<svg version="1.1" xmlns="http://www.w3.org/2000/svg" xmlns:xlink="http://www.w3.org/1999/xlink" width="100%" height="100%" viewBox="0 0 1200.000 674.916">
<title>Monthly sales of new passenger cars: Czechia</title>
<style type="text/css">
  #main {font-family:Helvetica,Arial,sans-serif; font-size:27.00px;
         fill-opacity:1; fill:#000000; stroke:none; stroke-linejoin:round; stroke-linecap:round; stroke-width:1.00;}
  a:hover {text-decoration: underline;}
  .marker {stroke-opacity:0;fill-opacity:0;}
  .marker:hover {stroke-opacity:0.5; fill-opacity:1;}
  .ticklabel {font-size:27.00px;fill:#808080;stroke:none;font-family:Helvetica}
  .ytl {text-anchor:end;}
  .dp1 {pointer-events:none;font-size:70%;text-anchor:middle;fill:#000000;}
  .dp2 {pointer-events:none;font-size:70%;text-anchor:middle;fill:#FFFFFF;}
  .numtip {pointer-events:none;}
  .cc {opacity:0.25;}
.dl_fe {background-color:#FDFFDF;display:flex;margin:auto;align-items:center}
.dl_fe_p {font-size:20px;text-align:center;margin:3px}
.dl_el {display:none;pointer-events:none;}
.cc:hover + .dl_el {display:block;}
text:hover + .dl_el {display:block;}
  #lines .pl {transition: all 0.2s ease;}
  #lines:hover .pl {opacity:0.3;}
  #lines:hover .thick {stroke-width:1;}
  #lines:hover .pl_1:hover .pl {opacity:1;}
  #lines:hover .pl_1:hover .pll {stroke-width:3;}
  #lines:hover .pl_1:hover .pldlm {stroke-width:2;}
  #lines:hover .pl_1:hover .thick {stroke-width:12;}
  #lines:hover .pl_2:hover .pl {opacity:1;}
  #lines:hover .pl_2:hover .pll {stroke-width:3;}
  #lines:hover .pl_2:hover .pldlm {stroke-width:2;}
  #lines:hover .pl_2:hover .thick {stroke-width:12;}
  #lines:hover .pl_3:hover .pl {opacity:1;}
  #lines:hover .pl_3:hover .pll {stroke-width:3;}
  #lines:hover .pl_3:hover .pldlm {stroke-width:2;}
  #lines:hover .pl_3:hover .thick {stroke-width:12;}
  #lines:hover .pl_4:hover .pl {opacity:1;}
  #lines:hover .pl_4:hover .pll {stroke-width:3;}
  #lines:hover .pl_4:hover .pldlm {stroke-width:2;}
  #lines:hover .pl_4:hover .thick {stroke-width:12;}
  #lines:hover .pl_5:hover .pl {opacity:1;}
  #lines:hover .pl_5:hover .pll {stroke-width:3;}
  #lines:hover .pl_5:hover .pldlm {stroke-width:2;}
  #lines:hover .pl_5:hover .thick {stroke-width:12;}
  #lines:hover .pl_6:hover .pl {opacity:1;}
  #lines:hover .pl_6:hover .pll {stroke-width:3;}
  #lines:hover .pl_6:hover .pldlm {stroke-width:2;}
  #lines:hover .pl_6:hover .thick {stroke-width:12;}
  #lines:hover .pl_7:hover .pl {opacity:1;}
  #lines:hover .pl_7:hover .pll {stroke-width:3;}
  #lines:hover .pl_7:hover .pldlm {stroke-width:2;}
  #lines:hover .pl_7:hover .thick {stroke-width:12;}
</style>
<defs>
  <clipPath id="axis_clip"><rect x="145.8" y="54.2" width="761.2" height="505.8" /></clipPath>
  <path id="line_y" d="M 0,53.993 v 506.187" stroke="#4D4D4D" stroke-opacity="0.15" stroke-width="1.00"/>
  <path id="line_x" d="M 145.600,0 h 761.600" stroke="#4D4D4D" stroke-opacity="0.15" stroke-width="1.00"/>
  <path id="tick_y" d="M 145.600,0 h -6.000" stroke="#808080" stroke-width="0.90"/>
  <path id="tick_x" d="M 0,560.180 v 6.000" stroke="#808080" stroke-width="0.90"/>
  <symbol id="line_1" viewBox="0 0 1200.000 674.916">
    <polyline class="pl pll" points="147.0,554.5 149.8,556.9 152.6,556.3 155.5,554.9 158.4,554.1 161.2,553.4 164.1,555.2 167.1,555.1 170.0,556.4 172.9,555.2 175.8,555.2 178.7,555.4 181.6,555.4 184.4,555.3 187.2,553.4 190.1,553.4 193.0,552.7 195.9,552.1 198.8,552.8 201.7,551.6 204.6,553.5 207.5,553.2 210.4,553.6 213.3,552.9 216.2,554.8 219.0,553.8 221.8,551.1 224.7,550.4 227.6,550.1 230.5,553.0 233.4,552.3 236.3,552.2 239.2,554.1 242.1,553.7 245.0,553.0 247.9,551.5 250.8,552.5 253.7,551.3 256.5,549.3 259.4,538.5 262.3,542.4 265.2,540.8 268.0,538.8 271.0,542.0 273.9,544.6 276.7,541.9 279.6,548.3 282.5,545.7 285.4,549.9 288.2,552.6 291.0,552.3 293.9,543.9 296.8,547.2 299.7,545.9 302.6,547.6 305.6,547.9 308.4,548.6 311.3,548.8 314.2,550.8 317.1,550.2 320.1,552.3 322.9,552.1 325.7,550.0 328.6,550.2 331.4,549.5 334.3,547.2 337.2,550.9 340.2,552.1 343.1,552.1 346.0,551.9 348.9,550.8 351.7,548.3 354.7,552.5 357.5,553.5 360.3,549.7 363.2,549.9 366.1,549.7 369.0,549.4 371.9,550.4 374.8,550.5 377.7,551.6 380.6,551.0 383.5,551.3 386.4,550.3 389.3,552.4 392.1,553.3 395.0,551.2 397.9,549.8 400.7,549.8 403.6,549.0 406.5,555.9 409.4,556.7 412.3,545.7 415.2,552.5 418.1,552.2 421.0,553.4 423.9,555.2 426.7,555.6 429.5,554.4 432.4,553.8 435.3,554.6 438.2,554.5 441.1,555.1 444.0,555.5 446.9,555.2 449.8,554.9 452.7,555.3 455.6,555.3 458.5,555.1 461.3,556.6 464.1,555.1 467.0,553.5 469.9,554.1 472.8,552.1 475.7,550.7 478.6,553.7 481.5,551.5 484.4,549.9 487.3,553.0 490.2,552.4 493.2,550.6 496.0,550.6 498.8,549.7 501.6,548.4 504.5,550.2 507.4,548.6 510.3,548.8 513.3,547.8 516.2,551.5 519.0,548.5 521.9,551.1 524.8,553.4 527.8,551.5 530.6,549.1 533.4,548.2 536.3,547.8 539.2,545.5 542.1,549.0 545.0,551.2 547.9,550.1 550.8,550.4 553.7,548.9 556.6,549.5 559.5,549.6 562.4,548.1 565.2,550.3 568.0,546.6 570.9,549.2 573.8,545.9 576.7,544.1 579.6,549.3 582.5,548.7 585.4,549.3 588.3,548.6 591.2,547.1 594.1,547.5 597.0,546.5 599.8,550.7 602.6,547.4 605.5,546.8 608.4,544.1 611.3,543.2 614.2,546.7 617.1,541.4 620.0,554.9 622.9,554.6 625.8,554.3 628.7,553.3 631.6,554.6 634.4,553.2 637.2,551.7 640.1,547.2 643.0,547.4 645.9,544.1 648.8,544.6 651.7,543.0 654.6,552.0 657.5,549.6 660.4,550.7 663.3,551.0 666.2,549.2 669.1,550.4 671.9,549.2 674.8,549.4 677.7,549.0 680.6,546.5 683.5,546.8 686.4,549.8 689.3,548.9 692.2,547.3 695.0,548.8 697.9,549.2 700.9,552.7 703.7,549.3 706.5,544.0 709.4,545.3 712.2,544.6 715.1,544.6 718.0,547.1 721.0,545.2 723.9,549.1 726.8,547.2 729.7,549.0 732.5,543.7 735.5,542.2 738.3,548.1 741.1,547.4 744.0,547.9 746.9,547.3 749.8,547.1 752.7,551.1 755.6,549.7 758.5,551.5 761.4,549.2 764.3,549.5 767.2,551.1 770.1,551.6 772.9,550.1 775.7,552.6 778.6,553.0 781.5,552.0 784.4,550.8 787.3,553.5 790.2,554.8 793.1,555.4 796.0,553.9 798.9,554.4 801.8,554.2 804.7,556.6 807.6,559.2 810.4,559.6 813.3,560.0 816.2,559.8 819.0,560.0 821.9,560.2 824.9,560.2 827.7,560.1 830.6,560.1 833.5,560.2 836.4,560.2 839.3,560.2 842.1,560.2 844.9,560.2 847.8,560.2 850.7,560.2 853.6,559.6 856.5,560.2 859.4,560.1 862.3,560.1 865.2,560.2 868.1,560.1 871.0,560.1 874.0,560.1 876.8,560.2 879.6,560.1 882.4,560.2 885.3,560.2 888.2,560.1" stroke="#828282" fill="none" clip-path="url(#axis_clip)"/>
  </symbol>
  <symbol id="line_2" viewBox="0 0 1200.000 674.916">
    <polyline class="pl pll" points="147.0,560.2 149.8,560.2 152.6,560.2 155.5,560.2 158.4,560.2 161.2,560.2 164.1,560.2 167.1,560.2 170.0,560.2 172.9,560.2 175.8,560.2 178.7,560.2 181.6,560.2 184.4,560.2 187.2,560.2 190.1,560.2 193.0,560.2 195.9,560.2 198.8,560.2 201.7,560.2 204.6,560.2 207.5,560.2 210.4,560.2 213.3,560.2 216.2,560.2 219.0,560.2 221.8,560.2 224.7,560.2 227.6,560.2 230.5,560.2 233.4,560.2 236.3,560.2 239.2,560.2 242.1,560.2 245.0,560.2 247.9,560.2 250.8,560.2 253.7,560.2 256.5,560.2 259.4,560.2 262.3,560.2 265.2,560.2 268.0,560.2 271.0,560.2 273.9,560.2 276.7,560.2 279.6,560.2 282.5,560.2 285.4,560.2 288.2,560.2 291.0,560.2 293.9,560.2 296.8,560.2 299.7,560.2 302.6,560.1 305.6,560.2 308.4,560.2 311.3,560.2 314.2,560.2 317.1,560.2 320.1,560.2 322.9,560.2 325.7,560.2 328.6,560.2 331.4,560.2 334.3,560.2 337.2,560.2 340.2,560.2 343.1,560.2 346.0,560.2 348.9,560.2 351.7,560.1 354.7,560.1 357.5,560.2 360.3,559.9 363.2,559.7 366.1,560.1 369.0,560.0 371.9,560.1 374.8,560.1 377.7,560.2 380.6,560.2 383.5,560.1 386.4,560.1 389.3,560.2 392.1,560.1 395.0,560.2 397.9,560.1 400.7,560.0 403.6,560.0 406.5,560.2 409.4,560.0 412.3,559.8 415.2,559.7 418.1,559.7 421.0,560.0 423.9,560.1 426.7,560.2 429.5,560.1 432.4,560.1 435.3,560.0 438.2,560.1 441.1,560.2 444.0,560.2 446.9,560.2 449.8,560.1 452.7,560.0 455.6,560.1 458.5,560.1 461.3,560.0 464.1,559.8 467.0,559.9 469.9,560.0 472.8,560.1 475.7,559.6 478.6,559.9 481.5,559.9 484.4,559.4 487.3,559.5 490.2,559.0 493.2,560.0 496.0,559.5 498.8,559.7 501.6,559.4 504.5,559.8 507.4,559.0 510.3,559.4 513.3,559.7 516.2,559.9 519.0,559.8 521.9,559.6 524.8,559.5 527.8,560.1 530.6,559.5 533.4,559.8 536.3,559.7 539.2,559.9 542.1,559.8 545.0,560.0 547.9,559.8 550.8,559.6 553.7,560.0 556.6,559.3 559.5,559.4 562.4,559.9 565.2,559.2 568.0,559.3 570.9,559.7 573.8,559.4 576.7,559.8 579.6,559.6 582.5,559.6 585.4,559.1 588.3,559.5 591.2,559.5 594.1,559.7 597.0,559.7 599.8,559.3 602.6,558.8 605.5,558.7 608.4,558.6 611.3,559.1 614.2,558.3 617.1,559.2 620.0,559.7 622.9,558.7 625.8,558.2 628.7,558.0 631.6,558.8 634.4,559.1 637.2,559.3 640.1,558.8 643.0,558.6 645.9,558.2 648.8,559.1 651.7,557.8 654.6,559.0 657.5,559.2 660.4,559.0 663.3,559.0 666.2,550.8 669.1,554.9 671.9,556.1 674.8,557.0 677.7,558.2 680.6,558.1 683.5,558.1 686.4,558.0 689.3,554.9 692.2,557.0 695.0,554.9 697.9,531.7 700.9,554.3 703.7,557.2 706.5,554.8 709.4,555.4 712.2,554.2 715.1,553.2 718.0,556.0 721.0,555.7 723.9,554.6 726.8,555.2 729.7,552.8 732.5,551.8 735.5,555.6 738.3,552.4 741.1,552.9 744.0,553.7 746.9,553.0 749.8,545.0 752.7,552.3 755.6,551.7 758.5,552.5 761.4,552.9 764.3,548.9 767.2,552.9 770.1,549.3 772.9,552.6 775.7,545.3 778.6,548.3 781.5,545.7 784.4,544.2 787.3,548.4 790.2,545.3 793.1,545.5 796.0,541.6 798.9,540.8 801.8,547.2 804.7,548.1 807.6,549.0 810.4,550.4 813.3,545.3 816.2,541.3 819.0,521.6 821.9,539.4 824.9,540.4 827.7,523.2 830.6,522.8 833.5,528.6 836.4,535.4 839.3,535.4 842.1,541.5 844.9,524.9 847.8,529.1 850.7,529.6 853.6,525.8 856.5,533.1 859.4,538.9 862.3,525.8 865.2,528.2 868.1,531.3 871.0,529.3 874.0,536.4 876.8,535.9 879.6,521.2 882.4,517.6 885.3,525.9 888.2,505.7" stroke="#6298C6" fill="none" clip-path="url(#axis_clip)"/>
  </symbol>
  <symbol id="line_3" viewBox="0 0 1200.000 674.916">
    <polyline class="pl pll" points="147.0,560.2 149.8,560.2 152.6,560.2 155.5,560.2 158.4,560.2 161.2,560.2 164.1,560.2 167.1,560.2 170.0,560.2 172.9,560.2 175.8,560.2 178.7,560.2 181.6,560.2 184.4,560.2 187.2,560.2 190.1,560.2 193.0,560.2 195.9,560.2 198.8,560.2 201.7,560.2 204.6,560.2 207.5,560.2 210.4,560.2 213.3,560.2 216.2,560.2 219.0,560.2 221.8,560.2 224.7,560.2 227.6,560.2 230.5,560.2 233.4,560.2 236.3,560.2 239.2,560.2 242.1,560.2 245.0,560.2 247.9,560.2 250.8,560.2 253.7,560.2 256.5,560.2 259.4,560.2 262.3,560.2 265.2,560.2 268.0,560.2 271.0,560.2 273.9,560.2 276.7,560.2 279.6,560.2 282.5,560.2 285.4,560.2 288.2,560.2 291.0,560.2 293.9,560.2 296.8,560.2 299.7,560.2 302.6,560.2 305.6,560.2 308.4,560.2 311.3,560.2 314.2,560.2 317.1,560.2 320.1,560.2 322.9,560.2 325.7,560.2 328.6,560.2 331.4,560.2 334.3,560.2 337.2,560.2 340.2,560.2 343.1,560.2 346.0,560.2 348.9,560.2 351.7,560.2 354.7,560.2 357.5,560.2 360.3,560.2 363.2,560.2 366.1,560.2 369.0,560.2 371.9,560.2 374.8,560.2 377.7,560.2 380.6,560.2 383.5,560.2 386.4,560.2 389.3,560.2 392.1,560.2 395.0,560.2 397.9,560.2 400.7,560.2 403.6,560.2 406.5,560.2 409.4,560.2 412.3,560.2 415.2,560.2 418.1,560.2 421.0,560.2 423.9,560.2 426.7,560.2 429.5,560.2 432.4,560.2 435.3,560.2 438.2,560.2 441.1,560.2 444.0,560.2 446.9,560.2 449.8,560.2 452.7,560.2 455.6,560.2 458.5,560.2 461.3,560.2 464.1,560.2 467.0,560.2 469.9,560.2 472.8,560.2 475.7,560.2 478.6,560.2 481.5,560.2 484.4,560.2 487.3,560.2 490.2,560.2 493.2,560.2 496.0,560.2 498.8,560.2 501.6,560.2 504.5,560.2 507.4,560.2 510.3,560.2 513.3,560.2 516.2,560.2 519.0,560.2 521.9,560.2 524.8,560.2 527.8,560.2 530.6,560.2 533.4,560.2 536.3,560.2 539.2,560.2 542.1,560.2 545.0,560.2 547.9,560.2 550.8,560.2 553.7,560.2 556.6,560.2 559.5,560.2 562.4,560.2 565.2,560.2 568.0,560.2 570.9,560.2 573.8,560.2 576.7,560.2 579.6,560.2 582.5,560.2 585.4,560.2 588.3,560.2 591.2,560.2 594.1,560.2 597.0,559.5 599.8,559.6 602.6,559.5 605.5,559.6 608.4,559.2 611.3,559.4 614.2,559.6 617.1,559.4 620.0,559.8 622.9,559.7 625.8,559.8 628.7,559.9 631.6,559.6 634.4,559.7 637.2,559.9 640.1,559.7 643.0,559.4 645.9,559.5 648.8,559.5 651.7,558.6 654.6,559.2 657.5,558.4 660.4,557.5 663.3,559.1 666.2,554.2 669.1,556.9 671.9,557.6 674.8,558.2 677.7,558.3 680.6,556.9 683.5,557.3 686.4,556.9 689.3,555.4 692.2,556.1 695.0,553.2 697.9,551.0 700.9,554.2 703.7,554.9 706.5,547.5 709.4,550.6 712.2,550.2 715.1,548.2 718.0,553.8 721.0,553.5 723.9,553.3 726.8,554.3 729.7,554.8 732.5,552.4 735.5,553.3 738.3,554.7 741.1,554.6 744.0,553.2 746.9,552.3 749.8,551.8 752.7,554.3 755.6,553.9 758.5,551.9 761.4,551.4 764.3,549.8 767.2,550.9 770.1,547.8 772.9,550.8 775.7,549.5 778.6,549.8 781.5,549.9 784.4,546.9 787.3,548.1 790.2,546.5 793.1,549.7 796.0,542.8 798.9,548.9 801.8,548.5 804.7,549.2 807.6,548.7 810.4,547.0 813.3,548.3 816.2,546.8 819.0,546.7 821.9,546.1 824.9,548.3 827.7,549.3 830.6,546.7 833.5,547.0 836.4,548.8 839.3,544.0 842.1,546.1 844.9,535.5 847.8,538.7 850.7,536.2 853.6,535.0 856.5,536.1 859.4,536.2 862.3,536.5 865.2,535.2 868.1,534.9 871.0,528.7 874.0,538.7 876.8,536.5 879.6,535.0 882.4,532.6 885.3,532.4 888.2,521.1" stroke="#77AC30" fill="none" clip-path="url(#axis_clip)"/>
  </symbol>
  <symbol id="line_4" viewBox="0 0 1200.000 674.916">
    <polyline class="pl pll" points="147.0,560.2 149.8,560.2 152.6,560.2 155.5,560.2 158.4,560.2 161.2,560.2 164.1,560.2 167.1,560.2 170.0,560.2 172.9,560.2 175.8,560.2 178.7,560.2 181.6,560.2 184.4,560.2 187.2,560.2 190.1,560.2 193.0,560.2 195.9,560.2 198.8,560.2 201.7,560.2 204.6,560.2 207.5,560.2 210.4,560.2 213.3,560.2 216.2,560.2 219.0,560.2 221.8,560.2 224.7,560.2 227.6,560.2 230.5,560.2 233.4,560.2 236.3,560.2 239.2,560.2 242.1,560.2 245.0,560.2 247.9,560.2 250.8,560.2 253.7,560.2 256.5,560.2 259.4,560.2 262.3,560.2 265.2,560.2 268.0,560.2 271.0,560.2 273.9,560.2 276.7,560.2 279.6,560.2 282.5,560.2 285.4,560.2 288.2,560.2 291.0,560.2 293.9,560.2 296.8,560.2 299.7,560.2 302.6,560.2 305.6,560.2 308.4,560.2 311.3,560.2 314.2,560.2 317.1,560.2 320.1,560.2 322.9,560.2 325.7,560.2 328.6,560.2 331.4,560.2 334.3,560.2 337.2,560.2 340.2,560.2 343.1,560.2 346.0,560.2 348.9,560.2 351.7,560.2 354.7,560.2 357.5,560.2 360.3,560.2 363.2,560.2 366.1,560.2 369.0,560.2 371.9,560.2 374.8,560.2 377.7,560.2 380.6,560.2 383.5,560.2 386.4,560.2 389.3,559.7 392.1,559.9 395.0,559.5 397.9,559.4 400.7,559.4 403.6,559.4 406.5,559.3 409.4,559.4 412.3,559.4 415.2,559.2 418.1,559.3 421.0,559.3 423.9,559.2 426.7,559.3 429.5,559.4 432.4,558.9 435.3,559.0 438.2,559.0 441.1,559.0 444.0,559.4 446.9,559.5 449.8,559.3 452.7,559.4 455.6,559.5 458.5,559.4 461.3,559.5 464.1,559.4 467.0,559.5 469.9,559.7 472.8,559.3 475.7,559.7 478.6,559.5 481.5,559.2 484.4,559.3 487.3,558.8 490.2,558.9 493.2,558.5 496.0,558.7 498.8,558.7 501.6,558.2 504.5,558.8 507.4,558.0 510.3,557.8 513.3,557.9 516.2,557.9 519.0,556.6 521.9,557.6 524.8,557.7 527.8,557.6 530.6,557.5 533.4,557.4 536.3,557.0 539.2,557.2 542.1,557.2 545.0,557.6 547.9,556.1 550.8,556.6 553.7,556.5 556.6,556.4 559.5,556.0 562.4,554.7 565.2,555.7 568.0,554.5 570.9,554.6 573.8,553.3 576.7,554.3 579.6,553.5 582.5,554.0 585.4,555.4 588.3,553.1 591.2,553.3 594.1,554.2 597.0,552.8 599.8,554.6 602.6,554.3 605.5,552.7 608.4,552.3 611.3,550.3 614.2,550.0 617.1,548.0 620.0,548.7 622.9,546.1 625.8,547.8 628.7,549.2 631.6,547.8 634.4,548.9 637.2,549.3 640.1,541.5 643.0,541.4 645.9,541.4 648.8,545.0 651.7,541.4 654.6,545.5 657.5,540.4 660.4,539.6 663.3,540.7 666.2,543.8 669.1,538.0 671.9,545.4 674.8,547.6 677.7,543.7 680.6,538.4 683.5,535.2 686.4,536.5 689.3,532.5 692.2,534.8 695.0,531.2 697.9,524.5 700.9,531.8 703.7,532.3 706.5,521.2 709.4,522.6 712.2,518.1 715.1,510.4 718.0,516.8 721.0,515.3 723.9,520.6 726.8,519.2 729.7,512.5 732.5,511.9 735.5,511.8 738.3,514.3 741.1,502.1 744.0,511.5 746.9,503.3 749.8,496.4 752.7,520.2 755.6,507.8 758.5,513.0 761.4,508.2 764.3,505.9 767.2,503.4 770.1,498.0 772.9,494.0 775.7,474.6 778.6,496.7 781.5,487.5 784.4,484.7 787.3,499.8 790.2,480.6 793.1,485.0 796.0,472.1 798.9,477.9 801.8,481.5 804.7,474.5 807.6,469.0 810.4,461.2 813.3,457.0 816.2,456.5 819.0,455.0 821.9,471.2 824.9,474.2 827.7,476.4 830.6,461.7 833.5,455.6 836.4,457.4 839.3,453.2 842.1,468.2 844.9,437.3 847.8,444.5 850.7,445.6 853.6,435.7 856.5,436.5 859.4,446.9 862.3,440.2 865.2,421.6 868.1,430.8 871.0,415.9 874.0,446.7 876.8,455.5 879.6,409.9 882.4,429.4 885.3,433.0 888.2,400.4" stroke="#919452" fill="none" clip-path="url(#axis_clip)"/>
  </symbol>
  <symbol id="line_5" viewBox="0 0 1200.000 674.916">
    <polyline class="pl pll" points="147.0,560.2 149.8,560.2 152.6,560.2 155.5,560.2 158.4,560.2 161.2,560.2 164.1,560.2 167.1,560.2 170.0,560.2 172.9,560.2 175.8,560.2 178.7,560.2 181.6,560.2 184.4,560.2 187.2,560.2 190.1,560.2 193.0,560.2 195.9,560.2 198.8,560.2 201.7,560.2 204.6,560.2 207.5,560.2 210.4,560.2 213.3,560.2 216.2,560.2 219.0,560.2 221.8,560.2 224.7,560.2 227.6,560.2 230.5,560.2 233.4,560.2 236.3,560.2 239.2,560.2 242.1,560.2 245.0,560.2 247.9,560.2 250.8,560.2 253.7,560.2 256.5,560.2 259.4,560.2 262.3,560.2 265.2,560.2 268.0,560.2 271.0,560.2 273.9,560.2 276.7,560.2 279.6,560.2 282.5,560.2 285.4,560.2 288.2,560.2 291.0,560.2 293.9,560.2 296.8,560.2 299.7,560.2 302.6,560.2 305.6,560.1 308.4,560.1 311.3,560.2 314.2,560.2 317.1,560.0 320.1,560.1 322.9,560.2 325.7,559.9 328.6,560.1 331.4,560.1 334.3,560.1 337.2,560.0 340.2,560.1 343.1,560.1 346.0,560.2 348.9,560.1 351.7,559.6 354.7,560.1 357.5,560.1 360.3,560.1 363.2,560.0 366.1,559.8 369.0,559.9 371.9,559.9 374.8,559.9 377.7,559.8 380.6,559.8 383.5,560.0 386.4,559.7 389.3,560.1 392.1,560.0 395.0,559.9 397.9,559.6 400.7,559.7 403.6,558.2 406.5,558.3 409.4,559.3 412.3,559.2 415.2,557.6 418.1,558.2 421.0,559.0 423.9,558.8 426.7,559.5 429.5,559.4 432.4,559.4 435.3,559.4 438.2,558.5 441.1,557.9 444.0,559.0 446.9,559.0 449.8,558.7 452.7,558.4 455.6,557.9 458.5,557.9 461.3,557.7 464.1,557.0 467.0,557.8 469.9,557.6 472.8,557.3 475.7,555.7 478.6,557.8 481.5,558.5 484.4,556.4 487.3,555.2 490.2,555.9 493.2,556.8 496.0,557.1 498.8,556.5 501.6,557.2 504.5,557.4 507.4,555.3 510.3,556.6 513.3,558.4 516.2,558.2 519.0,558.9 521.9,559.2 524.8,558.2 527.8,559.5 530.6,559.5 533.4,559.2 536.3,559.2 539.2,559.6 542.1,558.4 545.0,559.3 547.9,558.7 550.8,558.9 553.7,559.3 556.6,559.0 559.5,558.9 562.4,558.6 565.2,557.0 568.0,556.9 570.9,558.5 573.8,557.5 576.7,557.0 579.6,557.4 582.5,557.0 585.4,558.3 588.3,558.3 591.2,558.4 594.1,556.8 597.0,557.9 599.8,556.3 602.6,557.6 605.5,559.0 608.4,559.0 611.3,558.1 614.2,558.5 617.1,559.3 620.0,559.7 622.9,559.0 625.8,559.2 628.7,558.0 631.6,558.5 634.4,558.7 637.2,558.3 640.1,559.2 643.0,559.5 645.9,559.5 648.8,559.1 651.7,559.2 654.6,559.6 657.5,560.0 660.4,560.1 663.3,560.1 666.2,560.0 669.1,560.1 671.9,559.4 674.8,559.4 677.7,558.8 680.6,558.1 683.5,556.9 686.4,556.0 689.3,555.5 692.2,555.5 695.0,555.5 697.9,554.6 700.9,558.2 703.7,557.7 706.5,555.9 709.4,556.7 712.2,555.0 715.1,552.4 718.0,554.7 721.0,553.8 723.9,555.5 726.8,557.4 729.7,556.2 732.5,551.5 735.5,550.9 738.3,552.9 741.1,550.9 744.0,553.6 746.9,556.7 749.8,545.9 752.7,548.1 755.6,552.2 758.5,555.4 761.4,553.9 764.3,550.7 767.2,550.7 770.1,553.0 772.9,551.9 775.7,552.2 778.6,552.7 781.5,553.1 784.4,551.1 787.3,555.8 790.2,554.5 793.1,554.6 796.0,553.5 798.9,551.2 801.8,549.8 804.7,553.1 807.6,550.6 810.4,548.0 813.3,550.2 816.2,550.8 819.0,550.9 821.9,552.8 824.9,550.7 827.7,553.7 830.6,549.8 833.5,547.2 836.4,548.2 839.3,550.6 842.1,548.3 844.9,545.0 847.8,548.1 850.7,546.3 853.6,542.2 856.5,547.3 859.4,549.7 862.3,545.7 865.2,545.1 868.1,544.0 871.0,546.4 874.0,554.5 876.8,550.8 879.6,546.7 882.4,550.1 885.3,546.7 888.2,543.2" stroke="#85578F" fill="none" clip-path="url(#axis_clip)"/>
  </symbol>
  <symbol id="line_6" viewBox="0 0 1200.000 674.916">
    <polyline class="pl pll" points="147.0,414.0 149.8,424.0 152.6,362.0 155.5,318.1 158.4,310.2 161.2,319.1 164.1,375.0 167.1,366.2 170.0,409.6 172.9,382.7 175.8,383.8 178.7,387.2 181.6,429.3 184.4,408.8 187.2,356.2 190.1,346.4 193.0,320.0 195.9,359.1 198.8,383.7 201.7,379.9 204.6,411.9 207.5,373.7 210.4,378.1 213.3,401.8 216.2,404.8 219.0,399.9 221.8,352.9 224.7,347.4 227.6,333.5 230.5,334.1 233.4,353.1 236.3,374.2 239.2,396.6 242.1,346.7 245.0,368.2 247.9,378.9 250.8,386.3 253.7,366.3 256.5,330.5 259.4,300.7 262.3,353.2 265.2,311.1 268.0,328.5 271.0,370.4 273.9,344.6 276.7,328.8 279.6,351.2 282.5,377.2 285.4,402.7 288.2,375.8 291.0,310.6 293.9,272.4 296.8,325.8 299.7,298.2 302.6,327.2 305.6,361.5 308.4,369.0 311.3,345.7 314.2,337.3 317.1,341.4 320.1,421.2 322.9,405.7 325.7,285.5 328.6,333.1 331.4,329.2 334.3,294.0 337.2,383.1 340.2,373.0 343.1,367.5 346.0,381.7 348.9,352.4 351.7,342.4 354.7,400.3 357.5,371.7 360.3,282.4 363.2,337.6 366.1,326.9 369.0,326.0 371.9,390.3 374.8,352.1 377.7,392.3 380.6,345.6 383.5,322.6 386.4,339.7 389.3,396.1 392.1,373.9 395.0,307.9 397.9,317.1 400.7,323.3 403.6,294.4 406.5,401.7 409.4,373.3 412.3,387.9 415.2,337.3 418.1,365.4 421.0,386.9 423.9,404.2 426.7,413.5 429.5,358.3 432.4,347.3 435.3,333.4 438.2,350.0 441.1,347.3 444.0,391.1 446.9,383.5 449.8,351.3 452.7,365.0 455.6,364.5 458.5,388.3 461.3,383.6 464.1,325.5 467.0,311.2 469.9,339.6 472.8,297.3 475.7,314.4 478.6,350.9 481.5,322.3 484.4,313.7 487.3,333.4 490.2,339.4 493.2,356.1 496.0,326.9 498.8,254.5 501.6,278.1 504.5,309.1 507.4,266.3 510.3,260.0 513.3,321.8 516.2,307.6 519.0,303.9 521.9,295.3 524.8,300.9 527.8,336.9 530.6,294.2 533.4,246.1 536.3,240.5 539.2,222.7 542.1,209.3 545.0,290.3 547.9,255.9 550.8,278.1 553.7,260.2 556.6,245.4 559.5,256.6 562.4,287.9 565.2,265.0 568.0,165.6 570.9,223.3 573.8,154.6 576.7,171.0 579.6,272.1 582.5,235.4 585.4,252.6 588.3,217.8 591.2,214.8 594.1,243.1 597.0,204.1 599.8,225.4 602.6,149.6 605.5,170.7 608.4,134.7 611.3,140.0 614.2,186.8 617.1,65.0 620.0,320.3 622.9,229.3 625.8,243.8 628.7,320.5 631.6,245.6 634.4,227.1 637.2,178.8 640.1,166.6 643.0,147.3 645.9,182.4 648.8,190.5 651.7,122.2 654.6,302.8 657.5,242.2 660.4,232.0 663.3,259.3 666.2,264.9 669.1,282.2 671.9,347.4 674.8,395.7 677.7,336.3 680.6,221.7 683.5,261.4 686.4,309.0 689.3,313.8 692.2,316.8 695.0,310.8 697.9,280.8 700.9,348.7 703.7,345.2 706.5,261.5 709.4,273.3 712.2,221.3 715.1,203.2 718.0,260.0 721.0,300.1 723.9,339.2 726.8,368.0 729.7,317.1 732.5,333.2 735.5,344.9 738.3,355.4 741.1,312.6 744.0,349.4 746.9,299.6 749.8,297.2 752.7,362.5 755.6,304.5 758.5,345.2 761.4,337.7 764.3,311.3 767.2,361.5 770.1,324.3 772.9,324.6 775.7,249.7 778.6,307.4 781.5,286.9 784.4,288.7 787.3,341.2 790.2,296.2 793.1,325.8 796.0,308.3 798.9,304.6 801.8,373.5 804.7,275.6 807.6,312.6 810.4,316.5 813.3,318.8 816.2,330.6 819.0,295.2 821.9,355.9 824.9,351.7 827.7,337.7 830.6,296.9 833.5,297.3 836.4,348.9 839.3,323.2 842.1,336.3 844.9,289.1 847.8,287.6 850.7,335.7 853.6,303.0 856.5,315.4 859.4,354.8 862.3,300.8 865.2,274.4 868.1,305.0 871.0,317.9 874.0,363.9 876.8,344.0 879.6,289.4 882.4,302.8 885.3,339.4 888.2,277.9" stroke="#7B553E" fill="none" clip-path="url(#axis_clip)"/>
  </symbol>
  <symbol id="line_7" viewBox="0 0 1200.000 674.916">
    <polyline class="pl pll" points="147.0,485.7 149.8,501.1 152.6,482.4 155.5,487.0 158.4,477.5 161.2,473.6 164.1,496.1 167.1,492.8 170.0,494.8 172.9,481.2 175.8,479.6 178.7,476.3 181.6,497.9 184.4,502.2 187.2,485.3 190.1,490.3 193.0,473.0 195.9,478.1 198.8,493.4 201.7,493.1 204.6,490.7 207.5,475.8 210.4,476.1 213.3,483.7 216.2,489.5 219.0,494.2 221.8,478.7 224.7,479.8 227.6,472.3 230.5,473.3 233.4,482.8 236.3,490.5 239.2,497.6 242.1,473.4 245.0,476.8 247.9,483.1 250.8,486.7 253.7,493.6 256.5,489.5 259.4,467.3 262.3,484.9 265.2,479.5 268.0,485.7 271.0,503.2 273.9,484.3 276.7,481.5 279.6,493.0 282.5,496.8 285.4,504.1 288.2,503.5 291.0,503.6 293.9,419.0 296.8,446.2 299.7,424.4 302.6,447.8 305.6,463.1 308.4,454.3 311.3,428.6 314.2,413.4 317.1,414.2 320.1,433.6 322.9,442.3 325.7,403.7 328.6,411.1 331.4,399.9 334.3,370.3 337.2,458.6 340.2,449.6 343.1,425.7 346.0,414.8 348.9,392.0 351.7,407.7 354.7,432.2 357.5,430.3 360.3,405.8 363.2,423.7 366.1,412.6 369.0,396.8 371.9,433.5 374.8,421.4 377.7,408.6 380.6,408.3 383.5,404.1 386.4,411.0 389.3,405.6 392.1,411.1 395.0,390.5 397.9,395.2 400.7,404.4 403.6,381.0 406.5,443.3 409.4,418.6 412.3,433.4 415.2,390.7 418.1,406.8 421.0,419.0 423.9,418.1 426.7,445.8 429.5,419.7 432.4,400.4 435.3,419.5 438.2,412.4 441.1,413.9 444.0,442.6 446.9,409.3 449.8,388.4 452.7,391.0 455.6,395.8 458.5,395.1 461.3,420.2 464.1,384.7 467.0,376.4 469.9,400.4 472.8,375.1 475.7,373.0 478.6,426.5 481.5,410.4 484.4,372.1 487.3,387.0 490.2,373.2 493.2,381.0 496.0,393.7 498.8,346.6 501.6,339.3 504.5,367.3 507.4,334.5 510.3,336.4 513.3,353.0 516.2,369.0 519.0,335.8 521.9,321.3 524.8,331.1 527.8,352.5 530.6,352.8 533.4,313.4 536.3,311.4 539.2,300.3 542.1,276.5 545.0,368.4 547.9,342.5 550.8,352.6 553.7,321.8 556.6,305.2 559.5,326.0 562.4,325.2 565.2,356.2 568.0,300.3 570.9,340.0 573.8,306.7 576.7,300.7 579.6,371.8 582.5,370.0 585.4,374.7 588.3,336.9 591.2,347.7 594.1,394.4 597.0,353.1 599.8,404.0 602.6,375.1 605.5,359.8 608.4,362.3 611.3,354.8 614.2,413.6 617.1,384.6 620.0,450.1 622.9,415.2 625.8,410.0 628.7,451.1 631.6,408.5 634.4,437.6 637.2,420.0 640.1,408.2 643.0,398.7 645.9,421.8 648.8,411.2 651.7,405.8 654.6,444.1 657.5,406.9 660.4,412.1 663.3,418.6 666.2,414.1 669.1,438.9 671.9,459.7 674.8,483.7 677.7,478.2 680.6,415.8 683.5,405.1 686.4,434.7 689.3,432.1 692.2,427.7 695.0,424.4 697.9,415.0 700.9,446.8 703.7,452.9 706.5,428.8 709.4,437.2 712.2,427.8 715.1,438.1 718.0,467.0 721.0,481.3 723.9,490.4 726.8,499.2 729.7,469.6 732.5,466.7 735.5,450.9 738.3,483.5 741.1,473.0 744.0,479.5 746.9,451.6 749.8,463.6 752.7,492.4 755.6,481.8 758.5,474.7 761.4,455.7 764.3,464.7 767.2,482.5 770.1,463.5 772.9,471.3 775.7,431.0 778.6,447.0 781.5,432.4 784.4,436.6 787.3,467.4 790.2,469.7 793.1,469.9 796.0,460.0 798.9,452.2 801.8,483.8 804.7,448.9 807.6,468.3 810.4,459.8 813.3,446.9 816.2,435.9 819.0,426.6 821.9,453.9 824.9,463.4 827.7,459.2 830.6,450.0 833.5,462.9 836.4,469.5 839.3,465.0 842.1,470.8 844.9,458.2 847.8,475.8 850.7,473.8 853.6,457.9 856.5,465.8 859.4,488.8 862.3,471.3 865.2,466.9 868.1,475.6 871.0,474.6 874.0,464.4 876.8,468.0 879.6,453.7 882.4,461.8 885.3,465.8 888.2,444.7" stroke="#7B6E57" fill="none" clip-path="url(#axis_clip)"/>
  </symbol>
</defs>
<g id="main">
<text class="ticklabel ytl" transform="translate(128.8,568.3)">0</text>
<text class="ticklabel ytl" transform="translate(128.8,441.7)">5 000</text>
<text class="ticklabel ytl" transform="translate(128.8,315.2)">10 000</text>
<text class="ticklabel ytl" transform="translate(128.8,188.6)">15 000</text>
<text class="ticklabel ytl" transform="translate(128.8,62.1)">20 000</text>
<g id="lines">
  <g class="pl_1">
    <use xlink:href="#line_1" class="thick" stroke="#000" stroke-width="3" opacity="0"/>
    <use xlink:href="#line_1" class="pl pll" stroke="#828282" stroke-width="1.80"/>
    <text class="pl" transform="translate(937.2,560.2)" dy="7.6" font-size="25.20" fill="#828282" stroke="none">Others</text>
<polyline class="pl" points="910.8,560.1 911.9,560.1 913.0,560.1 914.0,560.1 914.9,560.1 915.8,560.1 916.6,560.1 917.4,560.1 918.1,560.1 918.8,560.1 919.5,560.1 920.1,560.1 920.7,560.1 921.3,560.2 921.9,560.2 922.5,560.2 923.1,560.2 923.7,560.2 924.3,560.2 924.9,560.2 925.6,560.2 926.3,560.2 927.0,560.2 927.8,560.2 928.6,560.2 929.5,560.2 930.4,560.2 931.4,560.2 932.5,560.2 933.6,560.2" stroke="#828282" stroke-width="0.90" stroke-opacity="1.00" fill="none" />
  </g>
  <g class="pl_2">
    <use xlink:href="#line_2" class="thick" stroke="#000" stroke-width="3" opacity="0"/>
    <use xlink:href="#line_2" class="pl pll" stroke="#6298C6" stroke-width="1.80"/>
    <text class="pl" transform="translate(937.2,485.1)" dy="7.6" font-size="25.20" fill="#6298C6" stroke="none">Battery electric</text>
<polyline class="pl" points="910.8,505.7 911.9,505.7 913.0,505.5 914.0,505.1 914.9,504.7 915.8,504.1 916.6,503.5 917.4,502.7 918.1,501.9 918.8,501.0 919.5,500.1 920.1,499.1 920.7,498.0 921.3,497.0 921.9,495.9 922.5,494.9 923.1,493.8 923.7,492.8 924.3,491.7 924.9,490.7 925.6,489.8 926.3,488.9 927.0,488.1 927.8,487.4 928.6,486.7 929.5,486.1 930.4,485.7 931.4,485.3 932.5,485.1 933.6,485.1" stroke="#6298C6" stroke-width="0.90" stroke-opacity="1.00" fill="none" />
  </g>
  <g class="pl_3">
    <use xlink:href="#line_3" class="thick" stroke="#000" stroke-width="3" opacity="0"/>
    <use xlink:href="#line_3" class="pl pll" stroke="#77AC30" stroke-width="1.80"/>
    <text class="pl" transform="translate(937.2,510.1)" dy="7.6" font-size="25.20" fill="#77AC30" stroke="none">Plugin hybrid</text>
<polyline class="pl" points="910.8,521.1 911.9,521.0 913.0,520.9 914.0,520.7 914.9,520.5 915.8,520.2 916.6,519.8 917.4,519.4 918.1,519.0 918.8,518.5 919.5,518.0 920.1,517.5 920.7,517.0 921.3,516.4 921.9,515.9 922.5,515.3 923.1,514.7 923.7,514.2 924.3,513.6 924.9,513.1 925.6,512.6 926.3,512.1 927.0,511.7 927.8,511.3 928.6,511.0 929.5,510.7 930.4,510.4 931.4,510.3 932.5,510.1 933.6,510.1" stroke="#77AC30" stroke-width="0.90" stroke-opacity="1.00" fill="none" />
  </g>
  <g class="pl_4">
    <use xlink:href="#line_4" class="thick" stroke="#000" stroke-width="3" opacity="0"/>
    <use xlink:href="#line_4" class="pl pll" stroke="#919452" stroke-width="1.80"/>
    <text class="pl" transform="translate(937.2,400.4)" dy="7.6" font-size="25.20" fill="#919452" stroke="none">Non-plugin hybrid</text>
  </g>
  <g class="pl_5">
    <use xlink:href="#line_5" class="thick" stroke="#000" stroke-width="3" opacity="0"/>
    <use xlink:href="#line_5" class="pl pll" stroke="#85578F" stroke-width="1.80"/>
    <text class="pl" transform="translate(937.2,535.1)" dy="7.6" font-size="25.20" fill="#85578F" stroke="none">LPG / LPG blend</text>
<polyline class="pl" points="910.8,543.2 911.9,543.2 913.0,543.1 914.0,543.0 914.9,542.8 915.8,542.6 916.6,542.3 917.4,542.0 918.1,541.7 918.8,541.4 919.5,541.0 920.1,540.6 920.7,540.2 921.3,539.8 921.9,539.4 922.5,539.0 923.1,538.5 923.7,538.1 924.3,537.7 924.9,537.4 925.6,537.0 926.3,536.6 927.0,536.3 927.8,536.0 928.6,535.8 929.5,535.6 930.4,535.4 931.4,535.3 932.5,535.2 933.6,535.1" stroke="#85578F" stroke-width="0.90" stroke-opacity="1.00" fill="none" />
  </g>
  <g class="pl_6">
    <use xlink:href="#line_6" class="thick" stroke="#000" stroke-width="3" opacity="0"/>
    <use xlink:href="#line_6" class="pl pll" stroke="#7B553E" stroke-width="1.80"/>
    <text class="pl" transform="translate(937.2,277.9)" dy="7.6" font-size="25.20" fill="#7B553E" stroke="none">Petrol</text>
  </g>
  <g class="pl_7">
    <use xlink:href="#line_7" class="thick" stroke="#000" stroke-width="3" opacity="0"/>
    <use xlink:href="#line_7" class="pl pll" stroke="#7B6E57" stroke-width="1.80"/>
    <text class="pl" transform="translate(937.2,444.7)" dy="7.6" font-size="25.20" fill="#7B6E57" stroke="none">Diesel</text>
  </g>
</g>
    <text class="pl" transform="translate(162.9,573.0) rotate(-90)" dy="8.1" font-size="27.00" fill="#808080" stroke="none" text-anchor="end">2005</text>
    <text class="pl" transform="translate(197.5,573.0) rotate(-90)" dy="8.1" font-size="27.00" fill="#808080" stroke="none" text-anchor="end">2006</text>
    <text class="pl" transform="translate(232.1,573.0) rotate(-90)" dy="8.1" font-size="27.00" fill="#808080" stroke="none" text-anchor="end">2007</text>
    <text class="pl" transform="translate(266.8,573.0) rotate(-90)" dy="8.1" font-size="27.00" fill="#808080" stroke="none" text-anchor="end">2008</text>
    <text class="pl" transform="translate(301.4,573.0) rotate(-90)" dy="8.1" font-size="27.00" fill="#808080" stroke="none" text-anchor="end">2009</text>
    <text class="pl" transform="translate(336.0,573.0) rotate(-90)" dy="8.1" font-size="27.00" fill="#808080" stroke="none" text-anchor="end">2010</text>
    <text class="pl" transform="translate(370.6,573.0) rotate(-90)" dy="8.1" font-size="27.00" fill="#808080" stroke="none" text-anchor="end">2011</text>
    <text class="pl" transform="translate(405.2,573.0) rotate(-90)" dy="8.1" font-size="27.00" fill="#808080" stroke="none" text-anchor="end">2012</text>
    <text class="pl" transform="translate(439.9,573.0) rotate(-90)" dy="8.1" font-size="27.00" fill="#808080" stroke="none" text-anchor="end">2013</text>
    <text class="pl" transform="translate(474.5,573.0) rotate(-90)" dy="8.1" font-size="27.00" fill="#808080" stroke="none" text-anchor="end">2014</text>
    <text class="pl" transform="translate(509.1,573.0) rotate(-90)" dy="8.1" font-size="27.00" fill="#808080" stroke="none" text-anchor="end">2015</text>
    <text class="pl" transform="translate(543.7,573.0) rotate(-90)" dy="8.1" font-size="27.00" fill="#808080" stroke="none" text-anchor="end">2016</text>
    <text class="pl" transform="translate(578.3,573.0) rotate(-90)" dy="8.1" font-size="27.00" fill="#808080" stroke="none" text-anchor="end">2017</text>
    <text class="pl" transform="translate(612.9,573.0) rotate(-90)" dy="8.1" font-size="27.00" fill="#808080" stroke="none" text-anchor="end">2018</text>
    <text class="pl" transform="translate(647.6,573.0) rotate(-90)" dy="8.1" font-size="27.00" fill="#808080" stroke="none" text-anchor="end">2019</text>
    <text class="pl" transform="translate(682.2,573.0) rotate(-90)" dy="8.1" font-size="27.00" fill="#808080" stroke="none" text-anchor="end">2020</text>
    <text class="pl" transform="translate(716.8,573.0) rotate(-90)" dy="8.1" font-size="27.00" fill="#808080" stroke="none" text-anchor="end">2021</text>
    <text class="pl" transform="translate(751.4,573.0) rotate(-90)" dy="8.1" font-size="27.00" fill="#808080" stroke="none" text-anchor="end">2022</text>
    <text class="pl" transform="translate(786.0,573.0) rotate(-90)" dy="8.1" font-size="27.00" fill="#808080" stroke="none" text-anchor="end">2023</text>
    <text class="pl" transform="translate(820.7,573.0) rotate(-90)" dy="8.1" font-size="27.00" fill="#808080" stroke="none" text-anchor="end">2024</text>
    <text class="pl" transform="translate(855.3,573.0) rotate(-90)" dy="8.1" font-size="27.00" fill="#808080" stroke="none" text-anchor="end">2025</text>
    <text class="pl" transform="translate(889.9,573.0) rotate(-90)" dy="8.1" font-size="27.00" fill="#808080" stroke="none" text-anchor="end">2026</text>
    <text class="pl" transform="translate(145.6,47.2)" dy="0.0" font-size="27.00" fill="#808080" stroke="none">Monthly sales of new passenger cars: Czechia</text>
<text transform="translate(157.6,666.1)" font-size="19.80" font-family="Helvetica" fill="#BFBFBF" stroke="none" xml:space="preserve"><a href="https://bsky.app/profile/robbieandrew.bsky.social" style="fill:#BFBFBF" target="_blank">@robbieandrew.bsky.social</a>   &#9679;   Data: SDA   &#9679;   Through June 2026</text>
<text class="twitlink" transform="translate(157.6,666.1)" opacity="0" font-size="19.80" fill="#BFBFBF" stroke="none" xml:space="preserve"><a href="https://bsky.app/profile/robbieandrew.bsky.social" style="fill:#BFBFBF" target="_blank">@robbieandrew.bsky.social</a></text>
  <g class="dl_el" transform="translate(154.6,578.4)">
    <g class="dl_el_balloon">
      <foreignObject x="0" y="0" width="120" height="500">
      <div xmlns="http://www.w3.org/1999/xhtml" class="dl_fe" style="height:60px">
      <p class="dl_fe_p">Find me on BlueSky</p>
      </div>
	    </foreignObject>
      <path stroke="#000" fill="#FDFFDF" d="M0,60H60l5,5l5,-5H120"/>
    </g>
  </g>
<use xlink:href="#line_y" transform="translate(145.6,0)"/>
<use xlink:href="#line_y" transform="translate(180.2,0)"/>
<use xlink:href="#line_y" transform="translate(214.8,0)"/>
<use xlink:href="#line_y" transform="translate(249.5,0)"/>
<use xlink:href="#line_y" transform="translate(284.1,0)"/>
<use xlink:href="#line_y" transform="translate(318.7,0)"/>
<use xlink:href="#line_y" transform="translate(353.3,0)"/>
<use xlink:href="#line_y" transform="translate(387.9,0)"/>
<use xlink:href="#line_y" transform="translate(422.5,0)"/>
<use xlink:href="#line_y" transform="translate(457.2,0)"/>
<use xlink:href="#line_y" transform="translate(491.8,0)"/>
<use xlink:href="#line_y" transform="translate(526.4,0)"/>
<use xlink:href="#line_y" transform="translate(561.0,0)"/>
<use xlink:href="#line_y" transform="translate(595.6,0)"/>
<use xlink:href="#line_y" transform="translate(630.3,0)"/>
<use xlink:href="#line_y" transform="translate(664.9,0)"/>
<use xlink:href="#line_y" transform="translate(699.5,0)"/>
<use xlink:href="#line_y" transform="translate(734.1,0)"/>
<use xlink:href="#line_y" transform="translate(768.7,0)"/>
<use xlink:href="#line_y" transform="translate(803.3,0)"/>
<use xlink:href="#line_y" transform="translate(838.0,0)"/>
<use xlink:href="#line_y" transform="translate(872.6,0)"/>
<use xlink:href="#line_y" transform="translate(907.2,0)"/>
<use xlink:href="#line_x" transform="translate(0,560.2)"/>
<use xlink:href="#line_x" transform="translate(0,433.6)"/>
<use xlink:href="#line_x" transform="translate(0,307.1)"/>
<use xlink:href="#line_x" transform="translate(0,180.5)"/>
<use xlink:href="#line_x" transform="translate(0,54.0)"/>
<use xlink:href="#tick_x" transform="translate(145.6,0)"/>
<use xlink:href="#tick_x" transform="translate(180.2,0)"/>
<use xlink:href="#tick_x" transform="translate(214.8,0)"/>
<use xlink:href="#tick_x" transform="translate(249.5,0)"/>
<use xlink:href="#tick_x" transform="translate(284.1,0)"/>
<use xlink:href="#tick_x" transform="translate(318.7,0)"/>
<use xlink:href="#tick_x" transform="translate(353.3,0)"/>
<use xlink:href="#tick_x" transform="translate(387.9,0)"/>
<use xlink:href="#tick_x" transform="translate(422.5,0)"/>
<use xlink:href="#tick_x" transform="translate(457.2,0)"/>
<use xlink:href="#tick_x" transform="translate(491.8,0)"/>
<use xlink:href="#tick_x" transform="translate(526.4,0)"/>
<use xlink:href="#tick_x" transform="translate(561.0,0)"/>
<use xlink:href="#tick_x" transform="translate(595.6,0)"/>
<use xlink:href="#tick_x" transform="translate(630.3,0)"/>
<use xlink:href="#tick_x" transform="translate(664.9,0)"/>
<use xlink:href="#tick_x" transform="translate(699.5,0)"/>
<use xlink:href="#tick_x" transform="translate(734.1,0)"/>
<use xlink:href="#tick_x" transform="translate(768.7,0)"/>
<use xlink:href="#tick_x" transform="translate(803.3,0)"/>
<use xlink:href="#tick_x" transform="translate(838.0,0)"/>
<use xlink:href="#tick_x" transform="translate(872.6,0)"/>
<use xlink:href="#tick_x" transform="translate(907.2,0)"/>
<use xlink:href="#tick_y" transform="translate(0,560.2)"/>
<use xlink:href="#tick_y" transform="translate(0,433.6)"/>
<use xlink:href="#tick_y" transform="translate(0,307.1)"/>
<use xlink:href="#tick_y" transform="translate(0,180.5)"/>
<use xlink:href="#tick_y" transform="translate(0,54.0)"/>
<polyline points="145.6,53.993 145.6,560.180 907.2,560.180" stroke="#808080" stroke-width="0.90" fill="none"/>
<g>
<a href="https://creativecommons.org/licenses/by/4.0/" target="_blank">
  <rect x="123.0" y="651.4" width="34" height="17" fill="#FFF" stroke="none" opacity="0.01"/>
  <g transform="translate(124.0,652.4) scale(0.24)">
  <g><circle fill="#FFF" cx="37.79" cy="28.5" r="28.84"/>
     <circle fill="none" cx="37.79" cy="28.5" r="28.84" stroke="#BFBFBF" stroke-width="5.5"/>
     <path fill="#BFBFBF" d="M37.16,23.19 l-4.29,2.23c-0.458-0.951-1.02-1.62-1.69-2c-0.667-0.38-1.29-0.571-1.86-0.571c-2.86,0-4.29,1.89-4.29,5.66 c0,1.71,0.36,3.08,1.09,4.11c0.724,1.03,1.79,1.54,3.2,1.54c1.87,0,3.18-0.915,3.94-2.74l3.94,2 c-0.838,1.56-2,2.79-3.49,3.69c-1.48,0.896-3.12,1.34-4.91,1.34c-2.86,0-5.16-0.875-6.92-2.63 c-1.75-1.75-2.63-4.19-2.63-7.31c0-3.05,0.886-5.47,2.66-7.26c1.77-1.79,4.01-2.69,6.72-2.69 C32.6,18.56,35.44,20.1,37.16,23.19z
              M55.61,23.19l-4.23,2.23c-0.457-0.951-1.02-1.62-1.69-2 c-0.668-0.38-1.31-0.571-1.91-0.571c-2.86,0-4.29,1.89-4.29,5.66c0,1.71,0.363,3.08,1.09,4.11 c0.723,1.03,1.79,1.54,3.2,1.54c1.87,0,3.18-0.915,3.94-2.74l4,2c-0.875,1.56-2.06,2.79-3.54,3.69 c-1.49,0.9-3.11,1.34-4.86,1.34c-2.9,0-5.21-0.875-6.94-2.63c-1.74-1.75-2.6-4.19-2.6-7.31 c0-3.05,0.885-5.47,2.66-7.26c1.77-1.79,4.01-2.69,6.71-2.69C51.12,18.56,53.944,20.1,55.61,23.19z"/>
  </g></g>
  <g transform="translate(140.2,652.4) scale(0.24)">
  <g><circle fill="#FFF" cx="37.79" cy="28.5" r="28.84"/>
     <circle fill="none" cx="37.79" cy="28.5" r="28.84" stroke="#BFBFBF" stroke-width="5.5"/>
     <path fill="#BFBFBF" d="M46.129,20.557v13.085h-3.656v15.542h-9.944V33.643h-3.656V20.557 c0-0.572,0.2-1.057,0.599-1.457c0.401-0.399,0.887-0.6,1.457-0.6h13.144c0.533,0,1.01,0.2,1.428,0.6 C45.918,19.5,46.129,19.986,46.129,20.557z
              M33.042,12.329c0-3.008,1.485-4.514,4.458-4.514s4.457,1.504,4.457,4.514 c0,2.971-1.486,4.457-4.457,4.457S33.042,15.3,33.042,12.329z"/>
  </g></g>
  </a>
</g>
  <g class="dl_el" transform="translate(69.1,548.4)">
    <g class="dl_el_balloon">
      <foreignObject x="0" y="0" width="250" height="500">
      <div xmlns="http://www.w3.org/1999/xhtml" class="dl_fe" style="height:90px">
      <p class="dl_fe_p">CC-BY: Material may be freely re-used as long as you credit the author</p>
      </div>
	    </foreignObject>
      <path stroke="#000" fill="#FDFFDF" d="M0,90H70l5,5l5,-5H250"/>
    </g>
  </g>
</g>
</svg>
