<svg version="1.1" xmlns="http://www.w3.org/2000/svg" xmlns:xlink="http://www.w3.org/1999/xlink" width="100%" height="100%" viewBox="0 0 1200.000 674.916">
<title>Half-Yearly sales of new passenger cars: Greece</title>
<style type="text/css">
  #main {font-family:Helvetica,Arial,sans-serif; font-size:27.00px;
         fill-opacity:1; fill:#000000; stroke:none; stroke-linejoin:round; stroke-linecap:round; stroke-width:1.00;}
  a:hover {text-decoration: underline;}
  .marker {stroke-opacity:0;fill-opacity:0;}
  .marker:hover {stroke-opacity:0.5; fill-opacity:1;}
  .ticklabel {font-size:27.00px;fill:#808080;stroke:none;font-family:Helvetica}
  .ytl {text-anchor:end;}
  .dp1 {pointer-events:none;font-size:70%;text-anchor:middle;fill:#000000;}
  .dp2 {pointer-events:none;font-size:70%;text-anchor:middle;fill:#FFFFFF;}
  .numtip {pointer-events:none;}
  .cc {opacity:0.25;}
.dl_fe {background-color:#FDFFDF;display:flex;margin:auto;align-items:center}
.dl_fe_p {font-size:20px;text-align:center;margin:3px}
.dl_el {display:none;pointer-events:none;}
.cc:hover + .dl_el {display:block;}
text:hover + .dl_el {display:block;}
  #lines .pl {transition: all 0.2s ease;}
  #lines:hover .pl {opacity:0.3;}
  #lines:hover .thick {stroke-width:1;}
  #lines:hover .pl_1:hover .pl {opacity:1;}
  #lines:hover .pl_1:hover .pll {stroke-width:3;}
  #lines:hover .pl_1:hover .pldlm {stroke-width:2;}
  #lines:hover .pl_1:hover .thick {stroke-width:12;}
  #lines:hover .pl_2:hover .pl {opacity:1;}
  #lines:hover .pl_2:hover .pll {stroke-width:3;}
  #lines:hover .pl_2:hover .pldlm {stroke-width:2;}
  #lines:hover .pl_2:hover .thick {stroke-width:12;}
  #lines:hover .pl_3:hover .pl {opacity:1;}
  #lines:hover .pl_3:hover .pll {stroke-width:3;}
  #lines:hover .pl_3:hover .pldlm {stroke-width:2;}
  #lines:hover .pl_3:hover .thick {stroke-width:12;}
  #lines:hover .pl_4:hover .pl {opacity:1;}
  #lines:hover .pl_4:hover .pll {stroke-width:3;}
  #lines:hover .pl_4:hover .pldlm {stroke-width:2;}
  #lines:hover .pl_4:hover .thick {stroke-width:12;}
  #lines:hover .pl_5:hover .pl {opacity:1;}
  #lines:hover .pl_5:hover .pll {stroke-width:3;}
  #lines:hover .pl_5:hover .pldlm {stroke-width:2;}
  #lines:hover .pl_5:hover .thick {stroke-width:12;}
</style>
<defs>
  <clipPath id="axis_clip"><rect x="145.8" y="54.2" width="761.2" height="505.8" /></clipPath>
  <path id="line_y" d="M 0,53.993 v 506.187" stroke="#4D4D4D" stroke-opacity="0.15" stroke-width="1.00"/>
  <path id="line_x" d="M 145.600,0 h 761.600" stroke="#4D4D4D" stroke-opacity="0.15" stroke-width="1.00"/>
  <path id="tick_y" d="M 145.600,0 h -6.000" stroke="#808080" stroke-width="0.90"/>
  <path id="tick_x" d="M 0,560.180 v 6.000" stroke="#808080" stroke-width="0.90"/>
  <symbol id="line_1" viewBox="0 0 1200.000 674.916">
    <polyline class="pl pll" points="172.8,560.2 227.2,560.2 281.6,560.2 336.0,560.2 390.4,542.8 444.8,540.3 499.2,541.5 553.6,540.6 608.0,548.8 662.4,536.8 716.8,537.6 771.2,535.1 825.6,534.5" stroke="#828282" fill="none" clip-path="url(#axis_clip)"/>
  </symbol>
  <symbol id="line_2" viewBox="0 0 1200.000 674.916">
    <polyline class="pl pll" points="172.8,558.8 227.2,554.7 281.6,549.7 336.0,548.6 390.4,547.2 444.8,544.6 499.2,527.7 553.6,528.1 608.0,526.4 662.4,505.9 716.8,517.0 771.2,513.3 825.6,506.7" stroke="#6298C6" fill="none" clip-path="url(#axis_clip)"/>
  </symbol>
  <symbol id="line_3" viewBox="0 0 1200.000 674.916">
    <polyline class="pl pll" points="172.8,557.9 227.2,547.8 281.6,538.2 336.0,533.7 390.4,531.8 444.8,533.0 499.2,523.5 553.6,507.5 608.0,519.4 662.4,517.3 716.8,510.3 771.2,492.0 825.6,507.5" stroke="#77AC30" fill="none" clip-path="url(#axis_clip)"/>
  </symbol>
  <symbol id="line_4" viewBox="0 0 1200.000 674.916">
    <polyline class="pl pll" points="172.8,512.8 227.2,488.9 281.6,435.1 336.0,449.1 390.4,403.1 444.8,423.5 499.2,358.0 553.6,341.6 608.0,250.0 662.4,284.0 716.8,177.4 771.2,202.6 825.6,78.7" stroke="#919452" fill="none" clip-path="url(#axis_clip)"/>
  </symbol>
  <symbol id="line_5" viewBox="0 0 1200.000 674.916">
    <polyline class="pl pll" points="172.8,241.0 227.2,199.7 281.6,126.8 336.0,278.4 390.4,221.3 444.8,248.4 499.2,137.9 553.6,233.9 608.0,166.5 662.4,359.0 716.8,267.3 771.2,389.3 825.6,323.1" stroke="#7B6E57" fill="none" clip-path="url(#axis_clip)"/>
  </symbol>
</defs>
<g id="main">
<text class="ticklabel ytl" transform="translate(128.8,568.3)">0</text>
<text class="ticklabel ytl" transform="translate(128.8,467.0)">10 000</text>
<text class="ticklabel ytl" transform="translate(128.8,365.8)">20 000</text>
<text class="ticklabel ytl" transform="translate(128.8,264.6)">30 000</text>
<text class="ticklabel ytl" transform="translate(128.8,163.3)">40 000</text>
<text class="ticklabel ytl" transform="translate(128.8,62.1)">50 000</text>
<g id="lines">
  <g class="pl_1">
    <use xlink:href="#line_1" class="thick" stroke="#000" stroke-width="3" opacity="0"/>
    <use xlink:href="#line_1" class="pl pll" stroke="#828282" stroke-width="1.80"/>
    <text class="pl" transform="translate(937.2,540.7)" dy="7.6" font-size="25.20" fill="#828282" stroke="none">Others</text>
<polyline class="pl" points="910.8,534.5 911.9,534.6 913.0,534.6 914.0,534.7 914.9,534.9 915.8,535.0 916.6,535.2 917.4,535.4 918.1,535.7 918.8,536.0 919.5,536.2 920.1,536.5 920.7,536.8 921.3,537.2 921.9,537.5 922.5,537.8 923.1,538.1 923.7,538.4 924.3,538.7 924.9,539.0 925.6,539.3 926.3,539.6 927.0,539.8 927.8,540.1 928.6,540.3 929.5,540.4 930.4,540.6 931.4,540.7 932.5,540.7 933.6,540.7" stroke="#828282" stroke-width="0.90" stroke-opacity="1.00" fill="none" />
    <g class="pl pll" fill="#828282" stroke="none" stroke-width="1.800">
      <circle cx="172.8" cy="560.2" r="2.7" />
      <circle cx="227.2" cy="560.2" r="2.7" />
      <circle cx="281.6" cy="560.2" r="2.7" />
      <circle cx="336.0" cy="560.2" r="2.7" />
      <circle cx="390.4" cy="542.8" r="2.7" />
      <circle cx="444.8" cy="540.3" r="2.7" />
      <circle cx="499.2" cy="541.5" r="2.7" />
      <circle cx="553.6" cy="540.6" r="2.7" />
      <circle cx="608.0" cy="548.8" r="2.7" />
      <circle cx="662.4" cy="536.8" r="2.7" />
      <circle cx="716.8" cy="537.6" r="2.7" />
      <circle cx="771.2" cy="535.1" r="2.7" />
      <circle cx="825.6" cy="534.5" r="2.7" />
    </g>
  </g>
  <g class="pl_2">
    <use xlink:href="#line_2" class="thick" stroke="#000" stroke-width="3" opacity="0"/>
    <use xlink:href="#line_2" class="pl pll" stroke="#6298C6" stroke-width="1.80"/>
    <text class="pl" transform="translate(937.2,491.8)" dy="7.6" font-size="25.20" fill="#6298C6" stroke="none">Battery electric</text>
<polyline class="pl" points="910.8,506.7 911.9,506.6 913.0,506.5 914.0,506.2 914.9,505.9 915.8,505.5 916.6,505.0 917.4,504.5 918.1,503.9 918.8,503.2 919.5,502.6 920.1,501.9 920.7,501.1 921.3,500.4 921.9,499.6 922.5,498.8 923.1,498.1 923.7,497.3 924.3,496.6 924.9,495.8 925.6,495.2 926.3,494.5 927.0,493.9 927.8,493.4 928.6,492.9 929.5,492.5 930.4,492.2 931.4,492.0 932.5,491.8 933.6,491.8" stroke="#6298C6" stroke-width="0.90" stroke-opacity="1.00" fill="none" />
    <g class="pl pll" fill="#6298C6" stroke="none" stroke-width="1.800">
      <circle cx="172.8" cy="558.8" r="2.7" />
      <circle cx="227.2" cy="554.7" r="2.7" />
      <circle cx="281.6" cy="549.7" r="2.7" />
      <circle cx="336.0" cy="548.6" r="2.7" />
      <circle cx="390.4" cy="547.2" r="2.7" />
      <circle cx="444.8" cy="544.6" r="2.7" />
      <circle cx="499.2" cy="527.7" r="2.7" />
      <circle cx="553.6" cy="528.1" r="2.7" />
      <circle cx="608.0" cy="526.4" r="2.7" />
      <circle cx="662.4" cy="505.9" r="2.7" />
      <circle cx="716.8" cy="517.0" r="2.7" />
      <circle cx="771.2" cy="513.3" r="2.7" />
      <circle cx="825.6" cy="506.7" r="2.7" />
    </g>
  </g>
  <g class="pl_3">
    <use xlink:href="#line_3" class="thick" stroke="#000" stroke-width="3" opacity="0"/>
    <use xlink:href="#line_3" class="pl pll" stroke="#77AC30" stroke-width="1.80"/>
    <text class="pl" transform="translate(937.2,516.2)" dy="7.6" font-size="25.20" fill="#77AC30" stroke="none">Plugin hybrid</text>
<polyline class="pl" points="910.8,507.5 911.9,507.6 913.0,507.7 914.0,507.8 914.9,508.0 915.8,508.2 916.6,508.5 917.4,508.8 918.1,509.2 918.8,509.5 919.5,509.9 920.1,510.4 920.7,510.8 921.3,511.2 921.9,511.7 922.5,512.1 923.1,512.6 923.7,513.0 924.3,513.4 924.9,513.9 925.6,514.3 926.3,514.6 927.0,515.0 927.8,515.3 928.6,515.6 929.5,515.8 930.4,516.0 931.4,516.1 932.5,516.2 933.6,516.2" stroke="#77AC30" stroke-width="0.90" stroke-opacity="1.00" fill="none" />
    <g class="pl pll" fill="#77AC30" stroke="none" stroke-width="1.800">
      <circle cx="172.8" cy="557.9" r="2.7" />
      <circle cx="227.2" cy="547.8" r="2.7" />
      <circle cx="281.6" cy="538.2" r="2.7" />
      <circle cx="336.0" cy="533.7" r="2.7" />
      <circle cx="390.4" cy="531.8" r="2.7" />
      <circle cx="444.8" cy="533.0" r="2.7" />
      <circle cx="499.2" cy="523.5" r="2.7" />
      <circle cx="553.6" cy="507.5" r="2.7" />
      <circle cx="608.0" cy="519.4" r="2.7" />
      <circle cx="662.4" cy="517.3" r="2.7" />
      <circle cx="716.8" cy="510.3" r="2.7" />
      <circle cx="771.2" cy="492.0" r="2.7" />
      <circle cx="825.6" cy="507.5" r="2.7" />
    </g>
  </g>
  <g class="pl_4">
    <use xlink:href="#line_4" class="thick" stroke="#000" stroke-width="3" opacity="0"/>
    <use xlink:href="#line_4" class="pl pll" stroke="#919452" stroke-width="1.80"/>
    <text class="pl" transform="translate(937.2,78.7)" dy="7.6" font-size="25.20" fill="#919452" stroke="none">Non-plugin hybrid</text>
    <g class="pl pll" fill="#919452" stroke="none" stroke-width="1.800">
      <circle cx="172.8" cy="512.8" r="2.7" />
      <circle cx="227.2" cy="488.9" r="2.7" />
      <circle cx="281.6" cy="435.1" r="2.7" />
      <circle cx="336.0" cy="449.1" r="2.7" />
      <circle cx="390.4" cy="403.1" r="2.7" />
      <circle cx="444.8" cy="423.5" r="2.7" />
      <circle cx="499.2" cy="358.0" r="2.7" />
      <circle cx="553.6" cy="341.6" r="2.7" />
      <circle cx="608.0" cy="250.0" r="2.7" />
      <circle cx="662.4" cy="284.0" r="2.7" />
      <circle cx="716.8" cy="177.4" r="2.7" />
      <circle cx="771.2" cy="202.6" r="2.7" />
      <circle cx="825.6" cy="78.7" r="2.7" />
    </g>
  </g>
  <g class="pl_5">
    <use xlink:href="#line_5" class="thick" stroke="#000" stroke-width="3" opacity="0"/>
    <use xlink:href="#line_5" class="pl pll" stroke="#7B6E57" stroke-width="1.80"/>
    <text class="pl" transform="translate(937.2,323.1)" dy="7.6" font-size="25.20" fill="#7B6E57" stroke="none">ICE</text>
    <g class="pl pll" fill="#7B6E57" stroke="none" stroke-width="1.800">
      <circle cx="172.8" cy="241.0" r="2.7" />
      <circle cx="227.2" cy="199.7" r="2.7" />
      <circle cx="281.6" cy="126.8" r="2.7" />
      <circle cx="336.0" cy="278.4" r="2.7" />
      <circle cx="390.4" cy="221.3" r="2.7" />
      <circle cx="444.8" cy="248.4" r="2.7" />
      <circle cx="499.2" cy="137.9" r="2.7" />
      <circle cx="553.6" cy="233.9" r="2.7" />
      <circle cx="608.0" cy="166.5" r="2.7" />
      <circle cx="662.4" cy="359.0" r="2.7" />
      <circle cx="716.8" cy="267.3" r="2.7" />
      <circle cx="771.2" cy="389.3" r="2.7" />
      <circle cx="825.6" cy="323.1" r="2.7" />
    </g>
  </g>
</g>
    <text class="pl" transform="translate(200.0,573.0) rotate(-90)" dy="8.1" font-size="27.00" fill="#808080" stroke="none" text-anchor="end">2020</text>
    <text class="pl" transform="translate(308.8,573.0) rotate(-90)" dy="8.1" font-size="27.00" fill="#808080" stroke="none" text-anchor="end">2021</text>
    <text class="pl" transform="translate(417.6,573.0) rotate(-90)" dy="8.1" font-size="27.00" fill="#808080" stroke="none" text-anchor="end">2022</text>
    <text class="pl" transform="translate(526.4,573.0) rotate(-90)" dy="8.1" font-size="27.00" fill="#808080" stroke="none" text-anchor="end">2023</text>
    <text class="pl" transform="translate(635.2,573.0) rotate(-90)" dy="8.1" font-size="27.00" fill="#808080" stroke="none" text-anchor="end">2024</text>
    <text class="pl" transform="translate(744.0,573.0) rotate(-90)" dy="8.1" font-size="27.00" fill="#808080" stroke="none" text-anchor="end">2025</text>
    <text class="pl" transform="translate(852.8,573.0) rotate(-90)" dy="8.1" font-size="27.00" fill="#808080" stroke="none" text-anchor="end">2026</text>
    <text class="pl" transform="translate(145.6,47.2)" dy="0.0" font-size="27.00" fill="#808080" stroke="none">Half-Yearly sales of new passenger cars: Greece</text>
<text transform="translate(157.6,666.1)" font-size="19.80" font-family="Helvetica" fill="#BFBFBF" stroke="none" xml:space="preserve"><a href="https://bsky.app/profile/robbieandrew.bsky.social" style="fill:#BFBFBF" target="_blank">@robbieandrew.bsky.social</a>   &#9679;   Data: SEAA via evstats.gr, ACEA   &#9679;   Through June 2026</text>
<text class="twitlink" transform="translate(157.6,666.1)" opacity="0" font-size="19.80" fill="#BFBFBF" stroke="none" xml:space="preserve"><a href="https://bsky.app/profile/robbieandrew.bsky.social" style="fill:#BFBFBF" target="_blank">@robbieandrew.bsky.social</a></text>
  <g class="dl_el" transform="translate(154.6,578.4)">
    <g class="dl_el_balloon">
      <foreignObject x="0" y="0" width="120" height="500">
      <div xmlns="http://www.w3.org/1999/xhtml" class="dl_fe" style="height:60px">
      <p class="dl_fe_p">Find me on BlueSky</p>
      </div>
	    </foreignObject>
      <path stroke="#000" fill="#FDFFDF" d="M0,60H60l5,5l5,-5H120"/>
    </g>
  </g>
<use xlink:href="#line_y" transform="translate(145.6,0)"/>
<use xlink:href="#line_y" transform="translate(254.4,0)"/>
<use xlink:href="#line_y" transform="translate(363.2,0)"/>
<use xlink:href="#line_y" transform="translate(472.0,0)"/>
<use xlink:href="#line_y" transform="translate(580.8,0)"/>
<use xlink:href="#line_y" transform="translate(689.6,0)"/>
<use xlink:href="#line_y" transform="translate(798.4,0)"/>
<use xlink:href="#line_y" transform="translate(907.2,0)"/>
<use xlink:href="#line_x" transform="translate(0,560.2)"/>
<use xlink:href="#line_x" transform="translate(0,458.9)"/>
<use xlink:href="#line_x" transform="translate(0,357.7)"/>
<use xlink:href="#line_x" transform="translate(0,256.5)"/>
<use xlink:href="#line_x" transform="translate(0,155.2)"/>
<use xlink:href="#line_x" transform="translate(0,54.0)"/>
<use xlink:href="#tick_x" transform="translate(145.6,0)"/>
<use xlink:href="#tick_x" transform="translate(254.4,0)"/>
<use xlink:href="#tick_x" transform="translate(363.2,0)"/>
<use xlink:href="#tick_x" transform="translate(472.0,0)"/>
<use xlink:href="#tick_x" transform="translate(580.8,0)"/>
<use xlink:href="#tick_x" transform="translate(689.6,0)"/>
<use xlink:href="#tick_x" transform="translate(798.4,0)"/>
<use xlink:href="#tick_x" transform="translate(907.2,0)"/>
<use xlink:href="#tick_y" transform="translate(0,560.2)"/>
<use xlink:href="#tick_y" transform="translate(0,458.9)"/>
<use xlink:href="#tick_y" transform="translate(0,357.7)"/>
<use xlink:href="#tick_y" transform="translate(0,256.5)"/>
<use xlink:href="#tick_y" transform="translate(0,155.2)"/>
<use xlink:href="#tick_y" transform="translate(0,54.0)"/>
<polyline points="145.6,53.993 145.6,560.180 907.2,560.180" stroke="#808080" stroke-width="0.90" fill="none"/>
<g>
<a href="https://creativecommons.org/licenses/by/4.0/" target="_blank">
  <rect x="123.0" y="651.4" width="34" height="17" fill="#FFF" stroke="none" opacity="0.01"/>
  <g transform="translate(124.0,652.4) scale(0.24)">
  <g><circle fill="#FFF" cx="37.79" cy="28.5" r="28.84"/>
     <circle fill="none" cx="37.79" cy="28.5" r="28.84" stroke="#BFBFBF" stroke-width="5.5"/>
     <path fill="#BFBFBF" d="M37.16,23.19 l-4.29,2.23c-0.458-0.951-1.02-1.62-1.69-2c-0.667-0.38-1.29-0.571-1.86-0.571c-2.86,0-4.29,1.89-4.29,5.66 c0,1.71,0.36,3.08,1.09,4.11c0.724,1.03,1.79,1.54,3.2,1.54c1.87,0,3.18-0.915,3.94-2.74l3.94,2 c-0.838,1.56-2,2.79-3.49,3.69c-1.48,0.896-3.12,1.34-4.91,1.34c-2.86,0-5.16-0.875-6.92-2.63 c-1.75-1.75-2.63-4.19-2.63-7.31c0-3.05,0.886-5.47,2.66-7.26c1.77-1.79,4.01-2.69,6.72-2.69 C32.6,18.56,35.44,20.1,37.16,23.19z
              M55.61,23.19l-4.23,2.23c-0.457-0.951-1.02-1.62-1.69-2 c-0.668-0.38-1.31-0.571-1.91-0.571c-2.86,0-4.29,1.89-4.29,5.66c0,1.71,0.363,3.08,1.09,4.11 c0.723,1.03,1.79,1.54,3.2,1.54c1.87,0,3.18-0.915,3.94-2.74l4,2c-0.875,1.56-2.06,2.79-3.54,3.69 c-1.49,0.9-3.11,1.34-4.86,1.34c-2.9,0-5.21-0.875-6.94-2.63c-1.74-1.75-2.6-4.19-2.6-7.31 c0-3.05,0.885-5.47,2.66-7.26c1.77-1.79,4.01-2.69,6.71-2.69C51.12,18.56,53.944,20.1,55.61,23.19z"/>
  </g></g>
  <g transform="translate(140.2,652.4) scale(0.24)">
  <g><circle fill="#FFF" cx="37.79" cy="28.5" r="28.84"/>
     <circle fill="none" cx="37.79" cy="28.5" r="28.84" stroke="#BFBFBF" stroke-width="5.5"/>
     <path fill="#BFBFBF" d="M46.129,20.557v13.085h-3.656v15.542h-9.944V33.643h-3.656V20.557 c0-0.572,0.2-1.057,0.599-1.457c0.401-0.399,0.887-0.6,1.457-0.6h13.144c0.533,0,1.01,0.2,1.428,0.6 C45.918,19.5,46.129,19.986,46.129,20.557z
              M33.042,12.329c0-3.008,1.485-4.514,4.458-4.514s4.457,1.504,4.457,4.514 c0,2.971-1.486,4.457-4.457,4.457S33.042,15.3,33.042,12.329z"/>
  </g></g>
  </a>
</g>
  <g class="dl_el" transform="translate(69.1,548.4)">
    <g class="dl_el_balloon">
      <foreignObject x="0" y="0" width="250" height="500">
      <div xmlns="http://www.w3.org/1999/xhtml" class="dl_fe" style="height:90px">
      <p class="dl_fe_p">CC-BY: Material may be freely re-used as long as you credit the author</p>
      </div>
	    </foreignObject>
      <path stroke="#000" fill="#FDFFDF" d="M0,90H70l5,5l5,-5H250"/>
    </g>
  </g>
</g>
</svg>
