<svg version="1.1" xmlns="http://www.w3.org/2000/svg" xmlns:xlink="http://www.w3.org/1999/xlink" width="100%" height="100%" viewBox="0 0 1200.000 674.916">
<title>Quarterly sales of new passenger cars: Latvia</title>
<style type="text/css">
  #main {font-family:Helvetica,Arial,sans-serif; font-size:27.00px;
         fill-opacity:1; fill:#000000; stroke:none; stroke-linejoin:round; stroke-linecap:round; stroke-width:1.00;}
  a:hover {text-decoration: underline;}
  .marker {stroke-opacity:0;fill-opacity:0;}
  .marker:hover {stroke-opacity:0.5; fill-opacity:1;}
  .ticklabel {font-size:27.00px;fill:#808080;stroke:none;font-family:Helvetica}
  .ytl {text-anchor:end;}
  .dp1 {pointer-events:none;font-size:70%;text-anchor:middle;fill:#000000;}
  .dp2 {pointer-events:none;font-size:70%;text-anchor:middle;fill:#FFFFFF;}
  .numtip {pointer-events:none;}
  .cc {opacity:0.25;}
.dl_fe {background-color:#FDFFDF;display:flex;margin:auto;align-items:center}
.dl_fe_p {font-size:20px;text-align:center;margin:3px}
.dl_el {display:none;pointer-events:none;}
.cc:hover + .dl_el {display:block;}
text:hover + .dl_el {display:block;}
  #lines .pl {transition: all 0.2s ease;}
  #lines:hover .pl {opacity:0.3;}
  #lines:hover .thick {stroke-width:1;}
  #lines:hover .pl_1:hover .pl {opacity:1;}
  #lines:hover .pl_1:hover .pll {stroke-width:3;}
  #lines:hover .pl_1:hover .pldlm {stroke-width:2;}
  #lines:hover .pl_1:hover .thick {stroke-width:12;}
  #lines:hover .pl_2:hover .pl {opacity:1;}
  #lines:hover .pl_2:hover .pll {stroke-width:3;}
  #lines:hover .pl_2:hover .pldlm {stroke-width:2;}
  #lines:hover .pl_2:hover .thick {stroke-width:12;}
  #lines:hover .pl_3:hover .pl {opacity:1;}
  #lines:hover .pl_3:hover .pll {stroke-width:3;}
  #lines:hover .pl_3:hover .pldlm {stroke-width:2;}
  #lines:hover .pl_3:hover .thick {stroke-width:12;}
  #lines:hover .pl_4:hover .pl {opacity:1;}
  #lines:hover .pl_4:hover .pll {stroke-width:3;}
  #lines:hover .pl_4:hover .pldlm {stroke-width:2;}
  #lines:hover .pl_4:hover .thick {stroke-width:12;}
  #lines:hover .pl_5:hover .pl {opacity:1;}
  #lines:hover .pl_5:hover .pll {stroke-width:3;}
  #lines:hover .pl_5:hover .pldlm {stroke-width:2;}
  #lines:hover .pl_5:hover .thick {stroke-width:12;}
  #lines:hover .pl_6:hover .pl {opacity:1;}
  #lines:hover .pl_6:hover .pll {stroke-width:3;}
  #lines:hover .pl_6:hover .pldlm {stroke-width:2;}
  #lines:hover .pl_6:hover .thick {stroke-width:12;}
</style>
<defs>
  <clipPath id="axis_clip"><rect x="145.8" y="54.2" width="761.2" height="505.8" /></clipPath>
  <path id="line_y" d="M 0,53.993 v 506.187" stroke="#4D4D4D" stroke-opacity="0.15" stroke-width="1.00"/>
  <path id="line_x" d="M 145.600,0 h 761.600" stroke="#4D4D4D" stroke-opacity="0.15" stroke-width="1.00"/>
  <path id="tick_y" d="M 145.600,0 h -6.000" stroke="#808080" stroke-width="0.90"/>
  <path id="tick_x" d="M 0,560.180 v 6.000" stroke="#808080" stroke-width="0.90"/>
  <symbol id="line_1" viewBox="0 0 1200.000 674.916">
    <polyline class="pl pll" points="164.6,549.8 202.7,552.5 240.8,549.6 278.9,550.6 317.0,550.8 355.0,547.1 393.1,552.8 431.2,551.1 469.3,547.6 507.4,551.2 545.4,550.7 583.5,549.2 621.6,550.6 659.7,548.5 697.8,549.6 735.8,546.8" stroke="#828282" fill="none" clip-path="url(#axis_clip)"/>
  </symbol>
  <symbol id="line_2" viewBox="0 0 1200.000 674.916">
    <polyline class="pl pll" points="164.6,542.3 202.7,531.5 240.8,527.7 278.9,518.7 317.0,511.5 355.0,500.4 393.1,509.4 431.2,522.8 469.3,530.7 507.4,523.7 545.4,521.7 583.5,523.1 621.6,527.1 659.7,509.7 697.8,503.4 735.8,520.4" stroke="#6298C6" fill="none" clip-path="url(#axis_clip)"/>
  </symbol>
  <symbol id="line_3" viewBox="0 0 1200.000 674.916">
    <polyline class="pl pll" points="164.6,554.2 202.7,551.4 240.8,550.3 278.9,552.1 317.0,551.9 355.0,547.2 393.1,550.6 431.2,551.9 469.3,548.0 507.4,544.7 545.4,537.6 583.5,524.3 621.6,506.2 659.7,477.6 697.8,463.6 735.8,484.9" stroke="#77AC30" fill="none" clip-path="url(#axis_clip)"/>
  </symbol>
  <symbol id="line_4" viewBox="0 0 1200.000 674.916">
    <polyline class="pl pll" points="164.6,449.7 202.7,447.7 240.8,421.0 278.9,433.3 317.0,413.0 355.0,398.3 393.1,409.6 431.2,426.9 469.3,560.2 507.4,560.2 545.4,560.2 583.5,560.2 621.6,560.2 659.7,560.2 697.8,560.2 735.8,560.2" stroke="#919452" fill="none" clip-path="url(#axis_clip)"/>
  </symbol>
  <symbol id="line_5" viewBox="0 0 1200.000 674.916">
    <polyline class="pl pll" points="164.6,363.2 202.7,284.7 240.8,335.3 278.9,372.8 317.0,345.7 355.0,284.9 393.1,327.0 431.2,381.2 469.3,269.1 507.4,192.5 545.4,246.6 583.5,293.9 621.6,221.7 659.7,64.7 697.8,105.2 735.8,202.6" stroke="#7B553E" fill="none" clip-path="url(#axis_clip)"/>
  </symbol>
  <symbol id="line_6" viewBox="0 0 1200.000 674.916">
    <polyline class="pl pll" points="164.6,486.1 202.7,489.3 240.8,471.5 278.9,474.4 317.0,473.3 355.0,472.3 393.1,471.9 431.2,491.5 469.3,466.3 507.4,449.3 545.4,471.2 583.5,435.4 621.6,457.9 659.7,473.8 697.8,472.9 735.8,484.9" stroke="#7B6E57" fill="none" clip-path="url(#axis_clip)"/>
  </symbol>
</defs>
<g id="main">
<text class="ticklabel ytl" transform="translate(128.8,568.3)">0</text>
<text class="ticklabel ytl" transform="translate(128.8,512.0)">500</text>
<text class="ticklabel ytl" transform="translate(128.8,455.8)">1 000</text>
<text class="ticklabel ytl" transform="translate(128.8,399.6)">1 500</text>
<text class="ticklabel ytl" transform="translate(128.8,343.3)">2 000</text>
<text class="ticklabel ytl" transform="translate(128.8,287.1)">2 500</text>
<text class="ticklabel ytl" transform="translate(128.8,230.8)">3 000</text>
<text class="ticklabel ytl" transform="translate(128.8,174.6)">3 500</text>
<text class="ticklabel ytl" transform="translate(128.8,118.3)">4 000</text>
<text class="ticklabel ytl" transform="translate(128.8,62.1)">4 500</text>
<g id="lines">
  <g class="pl_1">
    <use xlink:href="#line_1" class="thick" stroke="#000" stroke-width="3" opacity="0"/>
    <use xlink:href="#line_1" class="pl pll" stroke="#828282" stroke-width="1.80"/>
    <text class="pl" transform="translate(937.2,535.7)" dy="7.6" font-size="25.20" fill="#828282" stroke="none">Others</text>
<polyline class="pl" points="910.8,546.8 911.9,546.8 913.0,546.6 914.0,546.5 914.9,546.2 915.8,545.9 916.6,545.6 917.4,545.2 918.1,544.7 918.8,544.2 919.5,543.7 920.1,543.2 920.7,542.7 921.3,542.1 921.9,541.5 922.5,541.0 923.1,540.4 923.7,539.8 924.3,539.3 924.9,538.7 925.6,538.2 926.3,537.8 927.0,537.3 927.8,536.9 928.6,536.6 929.5,536.3 930.4,536.0 931.4,535.8 932.5,535.7 933.6,535.7" stroke="#828282" stroke-width="0.90" stroke-opacity="1.00" fill="none" />
    <g class="pl pll" fill="#828282" stroke="none" stroke-width="1.800">
      <circle cx="164.6" cy="549.8" r="2.7" />
      <circle cx="202.7" cy="552.5" r="2.7" />
      <circle cx="240.8" cy="549.6" r="2.7" />
      <circle cx="278.9" cy="550.6" r="2.7" />
      <circle cx="317.0" cy="550.8" r="2.7" />
      <circle cx="355.0" cy="547.1" r="2.7" />
      <circle cx="393.1" cy="552.8" r="2.7" />
      <circle cx="431.2" cy="551.1" r="2.7" />
      <circle cx="469.3" cy="547.6" r="2.7" />
      <circle cx="507.4" cy="551.2" r="2.7" />
      <circle cx="545.4" cy="550.7" r="2.7" />
      <circle cx="583.5" cy="549.2" r="2.7" />
      <circle cx="621.6" cy="550.6" r="2.7" />
      <circle cx="659.7" cy="548.5" r="2.7" />
      <circle cx="697.8" cy="549.6" r="2.7" />
      <circle cx="735.8" cy="546.8" r="2.7" />
    </g>
  </g>
  <g class="pl_2">
    <use xlink:href="#line_2" class="thick" stroke="#000" stroke-width="3" opacity="0"/>
    <use xlink:href="#line_2" class="pl pll" stroke="#6298C6" stroke-width="1.80"/>
    <text class="pl" transform="translate(937.2,511.2)" dy="7.6" font-size="25.20" fill="#6298C6" stroke="none">Battery electric</text>
<polyline class="pl" points="910.8,520.4 911.9,520.3 913.0,520.2 914.0,520.1 914.9,519.9 915.8,519.6 916.6,519.3 917.4,519.0 918.1,518.7 918.8,518.3 919.5,517.8 920.1,517.4 920.7,516.9 921.3,516.5 921.9,516.0 922.5,515.5 923.1,515.1 923.7,514.6 924.3,514.1 924.9,513.7 925.6,513.3 926.3,512.9 927.0,512.5 927.8,512.2 928.6,511.9 929.5,511.7 930.4,511.5 931.4,511.3 932.5,511.2 933.6,511.2" stroke="#6298C6" stroke-width="0.90" stroke-opacity="1.00" fill="none" />
    <g class="pl pll" fill="#6298C6" stroke="none" stroke-width="1.800">
      <circle cx="164.6" cy="542.3" r="2.7" />
      <circle cx="202.7" cy="531.5" r="2.7" />
      <circle cx="240.8" cy="527.7" r="2.7" />
      <circle cx="278.9" cy="518.7" r="2.7" />
      <circle cx="317.0" cy="511.5" r="2.7" />
      <circle cx="355.0" cy="500.4" r="2.7" />
      <circle cx="393.1" cy="509.4" r="2.7" />
      <circle cx="431.2" cy="522.8" r="2.7" />
      <circle cx="469.3" cy="530.7" r="2.7" />
      <circle cx="507.4" cy="523.7" r="2.7" />
      <circle cx="545.4" cy="521.7" r="2.7" />
      <circle cx="583.5" cy="523.1" r="2.7" />
      <circle cx="621.6" cy="527.1" r="2.7" />
      <circle cx="659.7" cy="509.7" r="2.7" />
      <circle cx="697.8" cy="503.4" r="2.7" />
      <circle cx="735.8" cy="520.4" r="2.7" />
    </g>
  </g>
  <g class="pl_3">
    <use xlink:href="#line_3" class="thick" stroke="#000" stroke-width="3" opacity="0"/>
    <use xlink:href="#line_3" class="pl pll" stroke="#77AC30" stroke-width="1.80"/>
    <text class="pl" transform="translate(937.2,462.2)" dy="7.6" font-size="25.20" fill="#77AC30" stroke="none">Plugin hybrid</text>
<polyline class="pl" points="910.8,484.9 911.9,484.8 913.0,484.6 914.0,484.2 914.9,483.7 915.8,483.1 916.6,482.4 917.4,481.6 918.1,480.7 918.8,479.7 919.5,478.7 920.1,477.6 920.7,476.5 921.3,475.3 921.9,474.1 922.5,473.0 923.1,471.8 923.7,470.6 924.3,469.5 924.9,468.4 925.6,467.4 926.3,466.4 927.0,465.5 927.8,464.7 928.6,464.0 929.5,463.4 930.4,462.9 931.4,462.5 932.5,462.3 933.6,462.2" stroke="#77AC30" stroke-width="0.90" stroke-opacity="1.00" fill="none" />
    <g class="pl pll" fill="#77AC30" stroke="none" stroke-width="1.800">
      <circle cx="164.6" cy="554.2" r="2.7" />
      <circle cx="202.7" cy="551.4" r="2.7" />
      <circle cx="240.8" cy="550.3" r="2.7" />
      <circle cx="278.9" cy="552.1" r="2.7" />
      <circle cx="317.0" cy="551.9" r="2.7" />
      <circle cx="355.0" cy="547.2" r="2.7" />
      <circle cx="393.1" cy="550.6" r="2.7" />
      <circle cx="431.2" cy="551.9" r="2.7" />
      <circle cx="469.3" cy="548.0" r="2.7" />
      <circle cx="507.4" cy="544.7" r="2.7" />
      <circle cx="545.4" cy="537.6" r="2.7" />
      <circle cx="583.5" cy="524.3" r="2.7" />
      <circle cx="621.6" cy="506.2" r="2.7" />
      <circle cx="659.7" cy="477.6" r="2.7" />
      <circle cx="697.8" cy="463.6" r="2.7" />
      <circle cx="735.8" cy="484.9" r="2.7" />
    </g>
  </g>
  <g class="pl_4">
    <use xlink:href="#line_4" class="thick" stroke="#000" stroke-width="3" opacity="0"/>
    <use xlink:href="#line_4" class="pl pll" stroke="#919452" stroke-width="1.80"/>
    <text class="pl" transform="translate(937.2,560.2)" dy="7.6" font-size="25.20" fill="#919452" stroke="none">Non-plugin hybrid</text>
    <g class="pl pll" fill="#919452" stroke="none" stroke-width="1.800">
      <circle cx="164.6" cy="449.7" r="2.7" />
      <circle cx="202.7" cy="447.7" r="2.7" />
      <circle cx="240.8" cy="421.0" r="2.7" />
      <circle cx="278.9" cy="433.3" r="2.7" />
      <circle cx="317.0" cy="413.0" r="2.7" />
      <circle cx="355.0" cy="398.3" r="2.7" />
      <circle cx="393.1" cy="409.6" r="2.7" />
      <circle cx="431.2" cy="426.9" r="2.7" />
      <circle cx="469.3" cy="560.2" r="2.7" />
      <circle cx="507.4" cy="560.2" r="2.7" />
      <circle cx="545.4" cy="560.2" r="2.7" />
      <circle cx="583.5" cy="560.2" r="2.7" />
      <circle cx="621.6" cy="560.2" r="2.7" />
      <circle cx="659.7" cy="560.2" r="2.7" />
      <circle cx="697.8" cy="560.2" r="2.7" />
      <circle cx="735.8" cy="560.2" r="2.7" />
    </g>
  </g>
  <g class="pl_5">
    <use xlink:href="#line_5" class="thick" stroke="#000" stroke-width="3" opacity="0"/>
    <use xlink:href="#line_5" class="pl pll" stroke="#7B553E" stroke-width="1.80"/>
    <text class="pl" transform="translate(937.2,202.6)" dy="7.6" font-size="25.20" fill="#7B553E" stroke="none">Petrol</text>
    <g class="pl pll" fill="#7B553E" stroke="none" stroke-width="1.800">
      <circle cx="164.6" cy="363.2" r="2.7" />
      <circle cx="202.7" cy="284.7" r="2.7" />
      <circle cx="240.8" cy="335.3" r="2.7" />
      <circle cx="278.9" cy="372.8" r="2.7" />
      <circle cx="317.0" cy="345.7" r="2.7" />
      <circle cx="355.0" cy="284.9" r="2.7" />
      <circle cx="393.1" cy="327.0" r="2.7" />
      <circle cx="431.2" cy="381.2" r="2.7" />
      <circle cx="469.3" cy="269.1" r="2.7" />
      <circle cx="507.4" cy="192.5" r="2.7" />
      <circle cx="545.4" cy="246.6" r="2.7" />
      <circle cx="583.5" cy="293.9" r="2.7" />
      <circle cx="621.6" cy="221.7" r="2.7" />
      <circle cx="659.7" cy="64.7" r="2.7" />
      <circle cx="697.8" cy="105.2" r="2.7" />
      <circle cx="735.8" cy="202.6" r="2.7" />
    </g>
  </g>
  <g class="pl_6">
    <use xlink:href="#line_6" class="thick" stroke="#000" stroke-width="3" opacity="0"/>
    <use xlink:href="#line_6" class="pl pll" stroke="#7B6E57" stroke-width="1.80"/>
    <text class="pl" transform="translate(937.2,486.7)" dy="7.6" font-size="25.20" fill="#7B6E57" stroke="none">Diesel</text>
<polyline class="pl" points="910.8,484.9 911.9,484.9 913.0,485.0 914.0,485.0 914.9,485.0 915.8,485.1 916.6,485.1 917.4,485.2 918.1,485.3 918.8,485.3 919.5,485.4 920.1,485.5 920.7,485.6 921.3,485.7 921.9,485.8 922.5,485.9 923.1,485.9 923.7,486.0 924.3,486.1 924.9,486.2 925.6,486.3 926.3,486.4 927.0,486.4 927.8,486.5 928.6,486.5 929.5,486.6 930.4,486.6 931.4,486.7 932.5,486.7 933.6,486.7" stroke="#7B6E57" stroke-width="0.90" stroke-opacity="1.00" fill="none" />
    <g class="pl pll" fill="#7B6E57" stroke="none" stroke-width="1.800">
      <circle cx="164.6" cy="486.1" r="2.7" />
      <circle cx="202.7" cy="489.3" r="2.7" />
      <circle cx="240.8" cy="471.5" r="2.7" />
      <circle cx="278.9" cy="474.4" r="2.7" />
      <circle cx="317.0" cy="473.3" r="2.7" />
      <circle cx="355.0" cy="472.3" r="2.7" />
      <circle cx="393.1" cy="471.9" r="2.7" />
      <circle cx="431.2" cy="491.5" r="2.7" />
      <circle cx="469.3" cy="466.3" r="2.7" />
      <circle cx="507.4" cy="449.3" r="2.7" />
      <circle cx="545.4" cy="471.2" r="2.7" />
      <circle cx="583.5" cy="435.4" r="2.7" />
      <circle cx="621.6" cy="457.9" r="2.7" />
      <circle cx="659.7" cy="473.8" r="2.7" />
      <circle cx="697.8" cy="472.9" r="2.7" />
      <circle cx="735.8" cy="484.9" r="2.7" />
    </g>
  </g>
</g>
    <text class="pl" transform="translate(221.8,573.0) rotate(-90)" dy="8.1" font-size="27.00" fill="#808080" stroke="none" text-anchor="end">2022</text>
    <text class="pl" transform="translate(374.1,573.0) rotate(-90)" dy="8.1" font-size="27.00" fill="#808080" stroke="none" text-anchor="end">2023</text>
    <text class="pl" transform="translate(526.4,573.0) rotate(-90)" dy="8.1" font-size="27.00" fill="#808080" stroke="none" text-anchor="end">2024</text>
    <text class="pl" transform="translate(678.7,573.0) rotate(-90)" dy="8.1" font-size="27.00" fill="#808080" stroke="none" text-anchor="end">2025</text>
    <text class="pl" transform="translate(831.0,573.0) rotate(-90)" dy="8.1" font-size="27.00" fill="#808080" stroke="none" text-anchor="end">2026</text>
    <text class="pl" transform="translate(145.6,47.2)" dy="0.0" font-size="27.00" fill="#808080" stroke="none">Quarterly sales of new passenger cars: Latvia</text>
<text transform="translate(157.6,666.1)" font-size="19.80" font-family="Helvetica" fill="#BFBFBF" stroke="none" xml:space="preserve"><a href="https://bsky.app/profile/robbieandrew.bsky.social" style="fill:#BFBFBF" target="_blank">@robbieandrew.bsky.social</a>   &#9679;   Data: ACEA   &#9679;   Through February 2026</text>
<text class="twitlink" transform="translate(157.6,666.1)" opacity="0" font-size="19.80" fill="#BFBFBF" stroke="none" xml:space="preserve"><a href="https://bsky.app/profile/robbieandrew.bsky.social" style="fill:#BFBFBF" target="_blank">@robbieandrew.bsky.social</a></text>
  <g class="dl_el" transform="translate(154.6,578.4)">
    <g class="dl_el_balloon">
      <foreignObject x="0" y="0" width="120" height="500">
      <div xmlns="http://www.w3.org/1999/xhtml" class="dl_fe" style="height:60px">
      <p class="dl_fe_p">Find me on BlueSky</p>
      </div>
	    </foreignObject>
      <path stroke="#000" fill="#FDFFDF" d="M0,60H60l5,5l5,-5H120"/>
    </g>
  </g>
<use xlink:href="#line_y" transform="translate(145.6,0)"/>
<use xlink:href="#line_y" transform="translate(297.9,0)"/>
<use xlink:href="#line_y" transform="translate(450.2,0)"/>
<use xlink:href="#line_y" transform="translate(602.6,0)"/>
<use xlink:href="#line_y" transform="translate(754.9,0)"/>
<use xlink:href="#line_y" transform="translate(907.2,0)"/>
<use xlink:href="#line_x" transform="translate(0,560.2)"/>
<use xlink:href="#line_x" transform="translate(0,503.9)"/>
<use xlink:href="#line_x" transform="translate(0,447.7)"/>
<use xlink:href="#line_x" transform="translate(0,391.5)"/>
<use xlink:href="#line_x" transform="translate(0,335.2)"/>
<use xlink:href="#line_x" transform="translate(0,279.0)"/>
<use xlink:href="#line_x" transform="translate(0,222.7)"/>
<use xlink:href="#line_x" transform="translate(0,166.5)"/>
<use xlink:href="#line_x" transform="translate(0,110.2)"/>
<use xlink:href="#line_x" transform="translate(0,54.0)"/>
<use xlink:href="#tick_x" transform="translate(145.6,0)"/>
<use xlink:href="#tick_x" transform="translate(297.9,0)"/>
<use xlink:href="#tick_x" transform="translate(450.2,0)"/>
<use xlink:href="#tick_x" transform="translate(602.6,0)"/>
<use xlink:href="#tick_x" transform="translate(754.9,0)"/>
<use xlink:href="#tick_x" transform="translate(907.2,0)"/>
<use xlink:href="#tick_y" transform="translate(0,560.2)"/>
<use xlink:href="#tick_y" transform="translate(0,503.9)"/>
<use xlink:href="#tick_y" transform="translate(0,447.7)"/>
<use xlink:href="#tick_y" transform="translate(0,391.5)"/>
<use xlink:href="#tick_y" transform="translate(0,335.2)"/>
<use xlink:href="#tick_y" transform="translate(0,279.0)"/>
<use xlink:href="#tick_y" transform="translate(0,222.7)"/>
<use xlink:href="#tick_y" transform="translate(0,166.5)"/>
<use xlink:href="#tick_y" transform="translate(0,110.2)"/>
<use xlink:href="#tick_y" transform="translate(0,54.0)"/>
<polyline points="145.6,53.993 145.6,560.180 907.2,560.180" stroke="#808080" stroke-width="0.90" fill="none"/>
<g>
<a href="https://creativecommons.org/licenses/by/4.0/" target="_blank">
  <rect x="123.0" y="651.4" width="34" height="17" fill="#FFF" stroke="none" opacity="0.01"/>
  <g transform="translate(124.0,652.4) scale(0.24)">
  <g><circle fill="#FFF" cx="37.79" cy="28.5" r="28.84"/>
     <circle fill="none" cx="37.79" cy="28.5" r="28.84" stroke="#BFBFBF" stroke-width="5.5"/>
     <path fill="#BFBFBF" d="M37.16,23.19 l-4.29,2.23c-0.458-0.951-1.02-1.62-1.69-2c-0.667-0.38-1.29-0.571-1.86-0.571c-2.86,0-4.29,1.89-4.29,5.66 c0,1.71,0.36,3.08,1.09,4.11c0.724,1.03,1.79,1.54,3.2,1.54c1.87,0,3.18-0.915,3.94-2.74l3.94,2 c-0.838,1.56-2,2.79-3.49,3.69c-1.48,0.896-3.12,1.34-4.91,1.34c-2.86,0-5.16-0.875-6.92-2.63 c-1.75-1.75-2.63-4.19-2.63-7.31c0-3.05,0.886-5.47,2.66-7.26c1.77-1.79,4.01-2.69,6.72-2.69 C32.6,18.56,35.44,20.1,37.16,23.19z
              M55.61,23.19l-4.23,2.23c-0.457-0.951-1.02-1.62-1.69-2 c-0.668-0.38-1.31-0.571-1.91-0.571c-2.86,0-4.29,1.89-4.29,5.66c0,1.71,0.363,3.08,1.09,4.11 c0.723,1.03,1.79,1.54,3.2,1.54c1.87,0,3.18-0.915,3.94-2.74l4,2c-0.875,1.56-2.06,2.79-3.54,3.69 c-1.49,0.9-3.11,1.34-4.86,1.34c-2.9,0-5.21-0.875-6.94-2.63c-1.74-1.75-2.6-4.19-2.6-7.31 c0-3.05,0.885-5.47,2.66-7.26c1.77-1.79,4.01-2.69,6.71-2.69C51.12,18.56,53.944,20.1,55.61,23.19z"/>
  </g></g>
  <g transform="translate(140.2,652.4) scale(0.24)">
  <g><circle fill="#FFF" cx="37.79" cy="28.5" r="28.84"/>
     <circle fill="none" cx="37.79" cy="28.5" r="28.84" stroke="#BFBFBF" stroke-width="5.5"/>
     <path fill="#BFBFBF" d="M46.129,20.557v13.085h-3.656v15.542h-9.944V33.643h-3.656V20.557 c0-0.572,0.2-1.057,0.599-1.457c0.401-0.399,0.887-0.6,1.457-0.6h13.144c0.533,0,1.01,0.2,1.428,0.6 C45.918,19.5,46.129,19.986,46.129,20.557z
              M33.042,12.329c0-3.008,1.485-4.514,4.458-4.514s4.457,1.504,4.457,4.514 c0,2.971-1.486,4.457-4.457,4.457S33.042,15.3,33.042,12.329z"/>
  </g></g>
  </a>
</g>
  <g class="dl_el" transform="translate(69.1,548.4)">
    <g class="dl_el_balloon">
      <foreignObject x="0" y="0" width="250" height="500">
      <div xmlns="http://www.w3.org/1999/xhtml" class="dl_fe" style="height:90px">
      <p class="dl_fe_p">CC-BY: Material may be freely re-used as long as you credit the author</p>
      </div>
	    </foreignObject>
      <path stroke="#000" fill="#FDFFDF" d="M0,90H70l5,5l5,-5H250"/>
    </g>
  </g>
</g>
</svg>
