<svg version="1.1" xmlns="http://www.w3.org/2000/svg" xmlns:xlink="http://www.w3.org/1999/xlink" width="100%" height="100%" viewBox="0 0 1200.000 674.916">
<title>Quarterly imports of passenger cars: Nepal</title>
<style type="text/css">
  #main {font-family:Helvetica,Arial,sans-serif; font-size:27.00px;
         fill-opacity:1; fill:#000000; stroke:none; stroke-linejoin:round; stroke-linecap:round; stroke-width:1.00;}
  a:hover {text-decoration: underline;}
  .marker {stroke-opacity:0;fill-opacity:0;}
  .marker:hover {stroke-opacity:0.5; fill-opacity:1;}
  .ticklabel {font-size:27.00px;fill:#808080;stroke:none;font-family:Helvetica}
  .ytl {text-anchor:end;}
  .dp1 {pointer-events:none;font-size:70%;text-anchor:middle;fill:#000000;}
  .dp2 {pointer-events:none;font-size:70%;text-anchor:middle;fill:#FFFFFF;}
  .numtip {pointer-events:none;}
  .cc {opacity:0.25;}
.dl_fe {background-color:#FDFFDF;display:flex;margin:auto;align-items:center}
.dl_fe_p {font-size:20px;text-align:center;margin:3px}
.dl_el {display:none;pointer-events:none;}
.cc:hover + .dl_el {display:block;}
text:hover + .dl_el {display:block;}
  #areas .pl {transition: all 0.2s ease;}
  #areas:hover .pl {opacity:0.5;}
  #areas:hover .thick {stroke-width:1;}
  #areas:hover .pg_1:hover .pl {opacity:1;}
  #areas:hover .pg_1:hover .pll {stroke-width:3;}
  #areas:hover .pg_1:hover .pldlm {stroke-width:2;}
  #areas:hover .pg_1:hover .thick {stroke-width:12;}
  #areas:hover .pg_2:hover .pl {opacity:1;}
  #areas:hover .pg_2:hover .pll {stroke-width:3;}
  #areas:hover .pg_2:hover .pldlm {stroke-width:2;}
  #areas:hover .pg_2:hover .thick {stroke-width:12;}
  #areas:hover .pg_3:hover .pl {opacity:1;}
  #areas:hover .pg_3:hover .pll {stroke-width:3;}
  #areas:hover .pg_3:hover .pldlm {stroke-width:2;}
  #areas:hover .pg_3:hover .thick {stroke-width:12;}
  #areas:hover .pg_4:hover .pl {opacity:1;}
  #areas:hover .pg_4:hover .pll {stroke-width:3;}
  #areas:hover .pg_4:hover .pldlm {stroke-width:2;}
  #areas:hover .pg_4:hover .thick {stroke-width:12;}
  #lines .pl {transition: all 0.2s ease;}
  #lines:hover .pl {opacity:0.3;}
  #lines:hover .thick {stroke-width:1;}
  #lines:hover .pl_1:hover .pl {opacity:1;}
  #lines:hover .pl_1:hover .pll {stroke-width:3;}
  #lines:hover .pl_1:hover .pldlm {stroke-width:2;}
  #lines:hover .pl_1:hover .thick {stroke-width:12;}
  #lines:hover .pl_2:hover .pl {opacity:1;}
  #lines:hover .pl_2:hover .pll {stroke-width:3;}
  #lines:hover .pl_2:hover .pldlm {stroke-width:2;}
  #lines:hover .pl_2:hover .thick {stroke-width:12;}
  #lines:hover .pl_3:hover .pl {opacity:1;}
  #lines:hover .pl_3:hover .pll {stroke-width:3;}
  #lines:hover .pl_3:hover .pldlm {stroke-width:2;}
  #lines:hover .pl_3:hover .thick {stroke-width:12;}
  #lines:hover .pl_4:hover .pl {opacity:1;}
  #lines:hover .pl_4:hover .pll {stroke-width:3;}
  #lines:hover .pl_4:hover .pldlm {stroke-width:2;}
  #lines:hover .pl_4:hover .thick {stroke-width:12;}
  #lines:hover .pl_5:hover .pl {opacity:1;}
  #lines:hover .pl_5:hover .pll {stroke-width:3;}
  #lines:hover .pl_5:hover .pldlm {stroke-width:2;}
  #lines:hover .pl_5:hover .thick {stroke-width:12;}
  #lines:hover .pl_6:hover .pl {opacity:1;}
  #lines:hover .pl_6:hover .pll {stroke-width:3;}
  #lines:hover .pl_6:hover .pldlm {stroke-width:2;}
  #lines:hover .pl_6:hover .thick {stroke-width:12;}
  #lines:hover .pl_7:hover .pl {opacity:1;}
  #lines:hover .pl_7:hover .pll {stroke-width:3;}
  #lines:hover .pl_7:hover .pldlm {stroke-width:2;}
  #lines:hover .pl_7:hover .thick {stroke-width:12;}
  #lines:hover .pl_8:hover .pl {opacity:1;}
  #lines:hover .pl_8:hover .pll {stroke-width:3;}
  #lines:hover .pl_8:hover .pldlm {stroke-width:2;}
  #lines:hover .pl_8:hover .thick {stroke-width:12;}
  #lines:hover .pl_9:hover .pl {opacity:1;}
  #lines:hover .pl_9:hover .pll {stroke-width:3;}
  #lines:hover .pl_9:hover .pldlm {stroke-width:2;}
  #lines:hover .pl_9:hover .thick {stroke-width:12;}
  #lines:hover .pl_10:hover .pl {opacity:1;}
  #lines:hover .pl_10:hover .pll {stroke-width:3;}
  #lines:hover .pl_10:hover .pldlm {stroke-width:2;}
  #lines:hover .pl_10:hover .thick {stroke-width:12;}
</style>
<defs>
  <clipPath id="axis_clip"><rect x="145.8" y="54.2" width="761.2" height="505.8" /></clipPath>
  <path id="line_y" d="M 0,53.993 v 506.187" stroke="#4D4D4D" stroke-opacity="0.15" stroke-width="1.00"/>
  <path id="line_x" d="M 145.600,0 h 761.600" stroke="#4D4D4D" stroke-opacity="0.15" stroke-width="1.00"/>
  <path id="tick_y" d="M 145.600,0 h -6.000" stroke="#808080" stroke-width="0.90"/>
  <path id="tick_x" d="M 0,560.180 v 6.000" stroke="#808080" stroke-width="0.90"/>
  <symbol id="line_1" viewBox="0 0 1200.000 674.916">
<polyline class="pl" points="145.6,228.8 145.6,326.1 177.3,326.1 177.3,348.0 209.1,348.0 209.1,161.9 240.8,161.9 240.8,182.4 272.5,182.4 272.5,344.2 304.3,344.2 304.3,353.5 336.0,353.5 336.0,388.6 367.7,388.6 367.7,472.9 399.5,472.9 399.5,465.7 431.2,465.7 431.2,383.5 462.9,383.5 462.9,118.2 494.7,118.2 494.7,299.6 526.4,299.6 526.4,335.1 558.1,335.1 558.1,178.0 589.9,178.0 589.9,57.9 621.6,57.9 621.6,285.3 653.3,285.3 653.3,358.0 685.1,358.0 685.1,63.0 716.8,63.0 716.8,94.6 748.5,94.6 748.5,247.3 780.3,247.3 780.3,316.6 812.0,316.6" stroke="#000" stroke-width="0.90" stroke-opacity="1.00" fill="none" clip-path="url(#axis_clip)"/>
  </symbol>
  <symbol id="line_2" viewBox="0 0 1200.000 674.916">
<polyline class="pl" points="145.6,231.2 145.6,330.3 177.3,330.3 177.3,355.0 209.1,355.0 209.1,236.4 240.8,236.4 240.8,231.2 272.5,231.2 272.5,372.3 304.3,372.3 304.3,375.4 336.0,375.4 336.0,518.7 367.7,518.7 367.7,532.3 399.5,532.3 399.5,519.2 431.2,519.2 431.2,489.3 462.9,489.3 462.9,502.5 494.7,502.5 494.7,476.0 526.4,476.0 526.4,509.1 558.1,509.1 558.1,496.3 589.9,496.3 589.9,496.7 621.6,496.7 621.6,481.2 653.3,481.2 653.3,509.3 685.1,509.3 685.1,468.1 716.8,468.1 716.8,441.7 748.5,441.7 748.5,457.0 780.3,457.0 780.3,481.0 812.0,481.0" stroke="#000" stroke-width="0.90" stroke-opacity="1.00" fill="none" clip-path="url(#axis_clip)"/>
  </symbol>
  <symbol id="line_3" viewBox="0 0 1200.000 674.916">
<polyline class="pl" points="145.6,231.5 145.6,330.4 177.3,330.4 177.3,355.0 209.1,355.0 209.1,236.6 240.8,236.6 240.8,231.3 272.5,231.3 272.5,373.0 304.3,373.0 304.3,376.1 336.0,376.1 336.0,519.4 367.7,519.4 367.7,532.6 399.5,532.6 399.5,519.9 431.2,519.9 431.2,489.8 462.9,489.8 462.9,503.0 494.7,503.0 494.7,476.3 526.4,476.3 526.4,509.4 558.1,509.4 558.1,497.0 589.9,497.0 589.9,498.3 621.6,498.3 621.6,481.5 653.3,481.5 653.3,510.2 685.1,510.2 685.1,470.2 716.8,470.2 716.8,443.3 748.5,443.3 748.5,457.5 780.3,457.5 780.3,481.0 812.0,481.0" stroke="#000" stroke-width="0.90" stroke-opacity="1.00" fill="none" clip-path="url(#axis_clip)"/>
  </symbol>
  <symbol id="line_4" viewBox="0 0 1200.000 674.916">
<polyline class="pl" points="145.6,231.5 145.6,330.6 177.3,330.6 177.3,355.0 209.1,355.0 209.1,236.6 240.8,236.6 240.8,231.3 272.5,231.3 272.5,373.0 304.3,373.0 304.3,376.1 336.0,376.1 336.0,519.4 367.7,519.4 367.7,532.6 399.5,532.6 399.5,519.9 431.2,519.9 431.2,490.6 462.9,490.6 462.9,503.2 494.7,503.2 494.7,476.3 526.4,476.3 526.4,509.7 558.1,509.7 558.1,497.3 589.9,497.3 589.9,498.7 621.6,498.7 621.6,481.7 653.3,481.7 653.3,510.3 685.1,510.3 685.1,470.4 716.8,470.4 716.8,443.7 748.5,443.7 748.5,457.7 780.3,457.7 780.3,481.6 812.0,481.6" stroke="#000" stroke-width="0.90" stroke-opacity="1.00" fill="none" clip-path="url(#axis_clip)"/>
  </symbol>
  <symbol id="line_5" viewBox="0 0 1200.000 674.916">
<polyline class="pl" points="145.6,231.2 145.6,330.3 177.3,330.3 177.3,355.0 209.1,355.0 209.1,236.4 240.8,236.4 240.8,231.2 272.5,231.2 272.5,372.3 304.3,372.3 304.3,375.4 336.0,375.4 336.0,518.7 367.7,518.7 367.7,532.3 399.5,532.3 399.5,519.2 431.2,519.2 431.2,489.3 462.9,489.3 462.9,502.5 494.7,502.5 494.7,476.0 526.4,476.0 526.4,509.1 558.1,509.1 558.1,496.3 589.9,496.3 589.9,496.7 621.6,496.7 621.6,481.2 653.3,481.2 653.3,509.3 685.1,509.3 685.1,468.1 716.8,468.1 716.8,441.7 748.5,441.7 748.5,457.0 780.3,457.0 780.3,481.0 812.0,481.0" stroke="#000" stroke-width="0.90" stroke-opacity="1.00" fill="none" clip-path="url(#axis_clip)"/>
  </symbol>
  <symbol id="line_6" viewBox="0 0 1200.000 674.916">
<polyline class="pl" points="145.6,231.5 145.6,330.4 177.3,330.4 177.3,355.0 209.1,355.0 209.1,236.6 240.8,236.6 240.8,231.3 272.5,231.3 272.5,373.0 304.3,373.0 304.3,376.1 336.0,376.1 336.0,519.4 367.7,519.4 367.7,532.6 399.5,532.6 399.5,519.9 431.2,519.9 431.2,489.8 462.9,489.8 462.9,503.0 494.7,503.0 494.7,476.3 526.4,476.3 526.4,509.4 558.1,509.4 558.1,497.0 589.9,497.0 589.9,498.3 621.6,498.3 621.6,481.5 653.3,481.5 653.3,510.2 685.1,510.2 685.1,470.2 716.8,470.2 716.8,443.3 748.5,443.3 748.5,457.5 780.3,457.5 780.3,481.0 812.0,481.0" stroke="#000" stroke-width="0.90" stroke-opacity="1.00" fill="none" clip-path="url(#axis_clip)"/>
  </symbol>
  <symbol id="line_7" viewBox="0 0 1200.000 674.916">
<polyline class="pl" points="145.6,231.5 145.6,330.6 177.3,330.6 177.3,355.0 209.1,355.0 209.1,236.6 240.8,236.6 240.8,231.3 272.5,231.3 272.5,373.0 304.3,373.0 304.3,376.1 336.0,376.1 336.0,519.4 367.7,519.4 367.7,532.6 399.5,532.6 399.5,519.9 431.2,519.9 431.2,490.6 462.9,490.6 462.9,503.2 494.7,503.2 494.7,476.3 526.4,476.3 526.4,509.7 558.1,509.7 558.1,497.3 589.9,497.3 589.9,498.7 621.6,498.7 621.6,481.7 653.3,481.7 653.3,510.3 685.1,510.3 685.1,470.4 716.8,470.4 716.8,443.7 748.5,443.7 748.5,457.7 780.3,457.7 780.3,481.6 812.0,481.6" stroke="#000" stroke-width="0.90" stroke-opacity="1.00" fill="none" clip-path="url(#axis_clip)"/>
  </symbol>
  <symbol id="line_8" viewBox="0 0 1200.000 674.916">
<polyline class="pl" points="145.6,231.5 145.6,330.4 177.3,330.4 177.3,355.0 209.1,355.0 209.1,236.6 240.8,236.6 240.8,231.3 272.5,231.3 272.5,373.0 304.3,373.0 304.3,376.1 336.0,376.1 336.0,519.4 367.7,519.4 367.7,532.6 399.5,532.6 399.5,519.9 431.2,519.9 431.2,489.8 462.9,489.8 462.9,503.0 494.7,503.0 494.7,476.3 526.4,476.3 526.4,509.4 558.1,509.4 558.1,497.0 589.9,497.0 589.9,498.3 621.6,498.3 621.6,481.5 653.3,481.5 653.3,510.2 685.1,510.2 685.1,470.2 716.8,470.2 716.8,443.3 748.5,443.3 748.5,457.5 780.3,457.5 780.3,481.0 812.0,481.0" stroke="#000" stroke-width="0.90" stroke-opacity="1.00" fill="none" clip-path="url(#axis_clip)"/>
  </symbol>
  <symbol id="line_9" viewBox="0 0 1200.000 674.916">
<polyline class="pl" points="145.6,231.5 145.6,330.6 177.3,330.6 177.3,355.0 209.1,355.0 209.1,236.6 240.8,236.6 240.8,231.3 272.5,231.3 272.5,373.0 304.3,373.0 304.3,376.1 336.0,376.1 336.0,519.4 367.7,519.4 367.7,532.6 399.5,532.6 399.5,519.9 431.2,519.9 431.2,490.6 462.9,490.6 462.9,503.2 494.7,503.2 494.7,476.3 526.4,476.3 526.4,509.7 558.1,509.7 558.1,497.3 589.9,497.3 589.9,498.7 621.6,498.7 621.6,481.7 653.3,481.7 653.3,510.3 685.1,510.3 685.1,470.4 716.8,470.4 716.8,443.7 748.5,443.7 748.5,457.7 780.3,457.7 780.3,481.6 812.0,481.6" stroke="#000" stroke-width="0.90" stroke-opacity="1.00" fill="none" clip-path="url(#axis_clip)"/>
  </symbol>
  <symbol id="line_10" viewBox="0 0 1200.000 674.916">
<polyline class="pl" points="145.6,231.5 145.6,330.6 177.3,330.6 177.3,355.0 209.1,355.0 209.1,236.6 240.8,236.6 240.8,231.3 272.5,231.3 272.5,373.0 304.3,373.0 304.3,376.1 336.0,376.1 336.0,519.4 367.7,519.4 367.7,532.6 399.5,532.6 399.5,519.9 431.2,519.9 431.2,490.6 462.9,490.6 462.9,503.2 494.7,503.2 494.7,476.3 526.4,476.3 526.4,509.7 558.1,509.7 558.1,497.3 589.9,497.3 589.9,498.7 621.6,498.7 621.6,481.7 653.3,481.7 653.3,510.3 685.1,510.3 685.1,470.4 716.8,470.4 716.8,443.7 748.5,443.7 748.5,457.7 780.3,457.7 780.3,481.6 812.0,481.6" stroke="#000" stroke-width="0.90" stroke-opacity="1.00" fill="none" clip-path="url(#axis_clip)"/>
  </symbol>
</defs>
<g id="main">
<text class="ticklabel ytl" transform="translate(128.8,568.3)">0</text>
<text class="ticklabel ytl" transform="translate(128.8,505.0)">1 000</text>
<text class="ticklabel ytl" transform="translate(128.8,441.7)">2 000</text>
<text class="ticklabel ytl" transform="translate(128.8,378.5)">3 000</text>
<text class="ticklabel ytl" transform="translate(128.8,315.2)">4 000</text>
<text class="ticklabel ytl" transform="translate(128.8,251.9)">5 000</text>
<text class="ticklabel ytl" transform="translate(128.8,188.6)">6 000</text>
<text class="ticklabel ytl" transform="translate(128.8,125.4)">7 000</text>
<text class="ticklabel ytl" transform="translate(128.8,62.1)">8 000</text>
<g id="areas">
  <g class="pg_4">
    <polygon class="pl" points="82.1,560.2 113.9,560.2 113.9,560.2 145.6,228.8 145.6,326.1 177.3,326.1 177.3,348.0 209.1,348.0 209.1,161.9 240.8,161.9 240.8,182.4 272.5,182.4 272.5,344.2 304.3,344.2 304.3,353.5 336.0,353.5 336.0,388.6 367.7,388.6 367.7,472.9 399.5,472.9 399.5,465.7 431.2,465.7 431.2,383.5 462.9,383.5 462.9,118.2 494.7,118.2 494.7,299.6 526.4,299.6 526.4,335.1 558.1,335.1 558.1,178.0 589.9,178.0 589.9,57.9 621.6,57.9 621.6,285.3 653.3,285.3 653.3,358.0 685.1,358.0 685.1,63.0 716.8,63.0 716.8,94.6 748.5,94.6 748.5,247.3 780.3,247.3 780.3,316.6 812.0,316.6 812.0,481.0 780.3,481.0 780.3,457.0 748.5,457.0 748.5,441.7 716.8,441.7 716.8,468.1 685.1,468.1 685.1,509.3 653.3,509.3 653.3,481.2 621.6,481.2 621.6,496.7 589.9,496.7 589.9,496.3 558.1,496.3 558.1,509.1 526.4,509.1 526.4,476.0 494.7,476.0 494.7,502.5 462.9,502.5 462.9,489.3 431.2,489.3 431.2,519.2 399.5,519.2 399.5,532.3 367.7,532.3 367.7,518.7 336.0,518.7 336.0,375.4 304.3,375.4 304.3,372.3 272.5,372.3 272.5,231.2 240.8,231.2 240.8,236.4 209.1,236.4 209.1,355.0 177.3,355.0 177.3,330.3 145.6,330.3 145.6,231.2 113.9,560.2 113.9,560.2 82.1,560.2" stroke="none" stroke-width="0.9000"  fill="#6298C6" clip-path="url(#axis_clip)"/>
    <text class="pl" transform="translate(937.2,398.8)" dy="7.6" font-size="25.20" fill="#6298C6" stroke="none">Battery electric</text>
  </g>
  <g class="pg_3">
    <polygon class="pl" points="82.1,560.2 113.9,560.2 113.9,560.2 145.6,231.2 145.6,330.3 177.3,330.3 177.3,355.0 209.1,355.0 209.1,236.4 240.8,236.4 240.8,231.2 272.5,231.2 272.5,372.3 304.3,372.3 304.3,375.4 336.0,375.4 336.0,518.7 367.7,518.7 367.7,532.3 399.5,532.3 399.5,519.2 431.2,519.2 431.2,489.3 462.9,489.3 462.9,502.5 494.7,502.5 494.7,476.0 526.4,476.0 526.4,509.1 558.1,509.1 558.1,496.3 589.9,496.3 589.9,496.7 621.6,496.7 621.6,481.2 653.3,481.2 653.3,509.3 685.1,509.3 685.1,468.1 716.8,468.1 716.8,441.7 748.5,441.7 748.5,457.0 780.3,457.0 780.3,481.0 812.0,481.0 812.0,481.0 780.3,481.0 780.3,457.5 748.5,457.5 748.5,443.3 716.8,443.3 716.8,470.2 685.1,470.2 685.1,510.2 653.3,510.2 653.3,481.5 621.6,481.5 621.6,498.3 589.9,498.3 589.9,497.0 558.1,497.0 558.1,509.4 526.4,509.4 526.4,476.3 494.7,476.3 494.7,503.0 462.9,503.0 462.9,489.8 431.2,489.8 431.2,519.9 399.5,519.9 399.5,532.6 367.7,532.6 367.7,519.4 336.0,519.4 336.0,376.1 304.3,376.1 304.3,373.0 272.5,373.0 272.5,231.3 240.8,231.3 240.8,236.6 209.1,236.6 209.1,355.0 177.3,355.0 177.3,330.4 145.6,330.4 145.6,231.5 113.9,560.2 113.9,560.2 82.1,560.2" stroke="none" stroke-width="0.9000"  fill="#77AC30" clip-path="url(#axis_clip)"/>
    <text class="pl" transform="translate(937.2,468.6)" dy="7.6" font-size="25.20" fill="#77AC30" stroke="none">Plugin hybrid</text>
<polyline class="pl" points="910.8,481.0 911.9,481.0 913.0,480.8 914.0,480.6 914.9,480.4 915.8,480.0 916.6,479.6 917.4,479.2 918.1,478.7 918.8,478.2 919.5,477.6 920.1,477.0 920.7,476.4 921.3,475.8 921.9,475.1 922.5,474.5 923.1,473.9 923.7,473.2 924.3,472.6 924.9,472.0 925.6,471.5 926.3,470.9 927.0,470.4 927.8,470.0 928.6,469.6 929.5,469.3 930.4,469.0 931.4,468.8 932.5,468.7 933.6,468.6" stroke="#77AC30" stroke-width="0.90" stroke-opacity="1.00" fill="none" />
  </g>
  <g class="pg_2">
    <polygon class="pl" points="82.1,560.2 113.9,560.2 113.9,560.2 145.6,231.5 145.6,330.4 177.3,330.4 177.3,355.0 209.1,355.0 209.1,236.6 240.8,236.6 240.8,231.3 272.5,231.3 272.5,373.0 304.3,373.0 304.3,376.1 336.0,376.1 336.0,519.4 367.7,519.4 367.7,532.6 399.5,532.6 399.5,519.9 431.2,519.9 431.2,489.8 462.9,489.8 462.9,503.0 494.7,503.0 494.7,476.3 526.4,476.3 526.4,509.4 558.1,509.4 558.1,497.0 589.9,497.0 589.9,498.3 621.6,498.3 621.6,481.5 653.3,481.5 653.3,510.2 685.1,510.2 685.1,470.2 716.8,470.2 716.8,443.3 748.5,443.3 748.5,457.5 780.3,457.5 780.3,481.0 812.0,481.0 812.0,481.6 780.3,481.6 780.3,457.7 748.5,457.7 748.5,443.7 716.8,443.7 716.8,470.4 685.1,470.4 685.1,510.3 653.3,510.3 653.3,481.7 621.6,481.7 621.6,498.7 589.9,498.7 589.9,497.3 558.1,497.3 558.1,509.7 526.4,509.7 526.4,476.3 494.7,476.3 494.7,503.2 462.9,503.2 462.9,490.6 431.2,490.6 431.2,519.9 399.5,519.9 399.5,532.6 367.7,532.6 367.7,519.4 336.0,519.4 336.0,376.1 304.3,376.1 304.3,373.0 272.5,373.0 272.5,231.3 240.8,231.3 240.8,236.6 209.1,236.6 209.1,355.0 177.3,355.0 177.3,330.6 145.6,330.6 145.6,231.5 113.9,560.2 113.9,560.2 82.1,560.2" stroke="none" stroke-width="0.9000"  fill="#919452" clip-path="url(#axis_clip)"/>
    <text class="pl" transform="translate(937.2,493.7)" dy="7.6" font-size="25.20" fill="#919452" stroke="none">Non-plugin hybrid</text>
<polyline class="pl" points="910.8,481.3 911.9,481.4 913.0,481.5 914.0,481.7 914.9,482.0 915.8,482.3 916.6,482.7 917.4,483.1 918.1,483.6 918.8,484.1 919.5,484.7 920.1,485.3 920.7,485.9 921.3,486.5 921.9,487.2 922.5,487.8 923.1,488.4 923.7,489.1 924.3,489.7 924.9,490.3 925.6,490.8 926.3,491.4 927.0,491.9 927.8,492.3 928.6,492.7 929.5,493.0 930.4,493.3 931.4,493.5 932.5,493.6 933.6,493.7" stroke="#919452" stroke-width="0.90" stroke-opacity="1.00" fill="none" />
  </g>
  <g class="pg_1">
    <polygon class="pl" points="82.1,560.2 113.9,560.2 113.9,560.2 145.6,231.5 145.6,330.6 177.3,330.6 177.3,355.0 209.1,355.0 209.1,236.6 240.8,236.6 240.8,231.3 272.5,231.3 272.5,373.0 304.3,373.0 304.3,376.1 336.0,376.1 336.0,519.4 367.7,519.4 367.7,532.6 399.5,532.6 399.5,519.9 431.2,519.9 431.2,490.6 462.9,490.6 462.9,503.2 494.7,503.2 494.7,476.3 526.4,476.3 526.4,509.7 558.1,509.7 558.1,497.3 589.9,497.3 589.9,498.7 621.6,498.7 621.6,481.7 653.3,481.7 653.3,510.3 685.1,510.3 685.1,470.4 716.8,470.4 716.8,443.7 748.5,443.7 748.5,457.7 780.3,457.7 780.3,481.6 812.0,481.6 812.0,560.2 82.1,560.2" stroke="none" stroke-width="0.9000"  fill="#7B6E57" clip-path="url(#axis_clip)"/>
    <text class="pl" transform="translate(937.2,520.9)" dy="7.6" font-size="25.20" fill="#7B6E57" stroke="none">ICE</text>
  </g>
</g>
<g id="lines">
  <g class="pl_1">
    <use xlink:href="#line_1" class="thick" stroke="#000" stroke-width="3" opacity="0"/>
    <use xlink:href="#line_1" class="pl pll" stroke="#000" stroke-width="0.90"/>
  </g>
  <g class="pl_2">
    <use xlink:href="#line_2" class="thick" stroke="#000" stroke-width="3" opacity="0"/>
    <use xlink:href="#line_2" class="pl pll" stroke="#000" stroke-width="0.90"/>
  </g>
  <g class="pl_3">
    <use xlink:href="#line_3" class="thick" stroke="#000" stroke-width="3" opacity="0"/>
    <use xlink:href="#line_3" class="pl pll" stroke="#000" stroke-width="0.90"/>
  </g>
  <g class="pl_4">
    <use xlink:href="#line_4" class="thick" stroke="#000" stroke-width="3" opacity="0"/>
    <use xlink:href="#line_4" class="pl pll" stroke="#000" stroke-width="0.90"/>
  </g>
  <g class="pl_5">
    <use xlink:href="#line_5" class="thick" stroke="#000" stroke-width="3" opacity="0"/>
    <use xlink:href="#line_5" class="pl pll" stroke="#000" stroke-width="0.90"/>
  </g>
  <g class="pl_6">
    <use xlink:href="#line_6" class="thick" stroke="#000" stroke-width="3" opacity="0"/>
    <use xlink:href="#line_6" class="pl pll" stroke="#000" stroke-width="0.90"/>
  </g>
  <g class="pl_7">
    <use xlink:href="#line_7" class="thick" stroke="#000" stroke-width="3" opacity="0"/>
    <use xlink:href="#line_7" class="pl pll" stroke="#000" stroke-width="0.90"/>
  </g>
  <g class="pl_8">
    <use xlink:href="#line_8" class="thick" stroke="#000" stroke-width="3" opacity="0"/>
    <use xlink:href="#line_8" class="pl pll" stroke="#000" stroke-width="0.90"/>
  </g>
  <g class="pl_9">
    <use xlink:href="#line_9" class="thick" stroke="#000" stroke-width="3" opacity="0"/>
    <use xlink:href="#line_9" class="pl pll" stroke="#000" stroke-width="0.90"/>
  </g>
  <g class="pl_10">
    <use xlink:href="#line_10" class="thick" stroke="#000" stroke-width="3" opacity="0"/>
    <use xlink:href="#line_10" class="pl pll" stroke="#000" stroke-width="0.90"/>
  </g>
</g>
    <text class="pl" transform="translate(209.1,573.0) rotate(-90)" dy="8.1" font-size="27.00" fill="#808080" stroke="none" text-anchor="end">2021</text>
    <text class="pl" transform="translate(336.0,573.0) rotate(-90)" dy="8.1" font-size="27.00" fill="#808080" stroke="none" text-anchor="end">2022</text>
    <text class="pl" transform="translate(462.9,573.0) rotate(-90)" dy="8.1" font-size="27.00" fill="#808080" stroke="none" text-anchor="end">2023</text>
    <text class="pl" transform="translate(589.9,573.0) rotate(-90)" dy="8.1" font-size="27.00" fill="#808080" stroke="none" text-anchor="end">2024</text>
    <text class="pl" transform="translate(716.8,573.0) rotate(-90)" dy="8.1" font-size="27.00" fill="#808080" stroke="none" text-anchor="end">2025</text>
    <text class="pl" transform="translate(843.7,573.0) rotate(-90)" dy="8.1" font-size="27.00" fill="#808080" stroke="none" text-anchor="end">2026</text>
    <text class="pl" transform="translate(145.6,47.2)" dy="0.0" font-size="27.00" fill="#808080" stroke="none">Quarterly imports of passenger cars: Nepal</text>
<text transform="translate(157.6,666.1)" font-size="19.80" font-family="Helvetica" fill="#BFBFBF" stroke="none" xml:space="preserve"><a href="https://bsky.app/profile/robbieandrew.bsky.social" style="fill:#BFBFBF" target="_blank">@robbieandrew.bsky.social</a>   &#9679;   Data: Nepal Customs   &#9679;   July = mid-June to mid-July   &#9679;   Through May 2026</text>
<text class="twitlink" transform="translate(157.6,666.1)" opacity="0" font-size="19.80" fill="#BFBFBF" stroke="none" xml:space="preserve"><a href="https://bsky.app/profile/robbieandrew.bsky.social" style="fill:#BFBFBF" target="_blank">@robbieandrew.bsky.social</a></text>
  <g class="dl_el" transform="translate(154.6,578.4)">
    <g class="dl_el_balloon">
      <foreignObject x="0" y="0" width="120" height="500">
      <div xmlns="http://www.w3.org/1999/xhtml" class="dl_fe" style="height:60px">
      <p class="dl_fe_p">Find me on BlueSky</p>
      </div>
	    </foreignObject>
      <path stroke="#000" fill="#FDFFDF" d="M0,60H60l5,5l5,-5H120"/>
    </g>
  </g>
<use xlink:href="#line_y" transform="translate(145.6,0)"/>
<use xlink:href="#line_y" transform="translate(272.5,0)"/>
<use xlink:href="#line_y" transform="translate(399.5,0)"/>
<use xlink:href="#line_y" transform="translate(526.4,0)"/>
<use xlink:href="#line_y" transform="translate(653.3,0)"/>
<use xlink:href="#line_y" transform="translate(780.3,0)"/>
<use xlink:href="#line_y" transform="translate(907.2,0)"/>
<use xlink:href="#line_x" transform="translate(0,560.2)"/>
<use xlink:href="#line_x" transform="translate(0,496.9)"/>
<use xlink:href="#line_x" transform="translate(0,433.6)"/>
<use xlink:href="#line_x" transform="translate(0,370.4)"/>
<use xlink:href="#line_x" transform="translate(0,307.1)"/>
<use xlink:href="#line_x" transform="translate(0,243.8)"/>
<use xlink:href="#line_x" transform="translate(0,180.5)"/>
<use xlink:href="#line_x" transform="translate(0,117.3)"/>
<use xlink:href="#line_x" transform="translate(0,54.0)"/>
<use xlink:href="#tick_x" transform="translate(145.6,0)"/>
<use xlink:href="#tick_x" transform="translate(272.5,0)"/>
<use xlink:href="#tick_x" transform="translate(399.5,0)"/>
<use xlink:href="#tick_x" transform="translate(526.4,0)"/>
<use xlink:href="#tick_x" transform="translate(653.3,0)"/>
<use xlink:href="#tick_x" transform="translate(780.3,0)"/>
<use xlink:href="#tick_x" transform="translate(907.2,0)"/>
<use xlink:href="#tick_y" transform="translate(0,560.2)"/>
<use xlink:href="#tick_y" transform="translate(0,496.9)"/>
<use xlink:href="#tick_y" transform="translate(0,433.6)"/>
<use xlink:href="#tick_y" transform="translate(0,370.4)"/>
<use xlink:href="#tick_y" transform="translate(0,307.1)"/>
<use xlink:href="#tick_y" transform="translate(0,243.8)"/>
<use xlink:href="#tick_y" transform="translate(0,180.5)"/>
<use xlink:href="#tick_y" transform="translate(0,117.3)"/>
<use xlink:href="#tick_y" transform="translate(0,54.0)"/>
<polyline points="145.6,53.993 145.6,560.180 907.2,560.180" stroke="#808080" stroke-width="0.90" fill="none"/>
<g>
<a href="https://creativecommons.org/licenses/by/4.0/" target="_blank">
  <rect x="123.0" y="651.4" width="34" height="17" fill="#FFF" stroke="none" opacity="0.01"/>
  <g transform="translate(124.0,652.4) scale(0.24)">
  <g><circle fill="#FFF" cx="37.79" cy="28.5" r="28.84"/>
     <circle fill="none" cx="37.79" cy="28.5" r="28.84" stroke="#BFBFBF" stroke-width="5.5"/>
     <path fill="#BFBFBF" d="M37.16,23.19 l-4.29,2.23c-0.458-0.951-1.02-1.62-1.69-2c-0.667-0.38-1.29-0.571-1.86-0.571c-2.86,0-4.29,1.89-4.29,5.66 c0,1.71,0.36,3.08,1.09,4.11c0.724,1.03,1.79,1.54,3.2,1.54c1.87,0,3.18-0.915,3.94-2.74l3.94,2 c-0.838,1.56-2,2.79-3.49,3.69c-1.48,0.896-3.12,1.34-4.91,1.34c-2.86,0-5.16-0.875-6.92-2.63 c-1.75-1.75-2.63-4.19-2.63-7.31c0-3.05,0.886-5.47,2.66-7.26c1.77-1.79,4.01-2.69,6.72-2.69 C32.6,18.56,35.44,20.1,37.16,23.19z
              M55.61,23.19l-4.23,2.23c-0.457-0.951-1.02-1.62-1.69-2 c-0.668-0.38-1.31-0.571-1.91-0.571c-2.86,0-4.29,1.89-4.29,5.66c0,1.71,0.363,3.08,1.09,4.11 c0.723,1.03,1.79,1.54,3.2,1.54c1.87,0,3.18-0.915,3.94-2.74l4,2c-0.875,1.56-2.06,2.79-3.54,3.69 c-1.49,0.9-3.11,1.34-4.86,1.34c-2.9,0-5.21-0.875-6.94-2.63c-1.74-1.75-2.6-4.19-2.6-7.31 c0-3.05,0.885-5.47,2.66-7.26c1.77-1.79,4.01-2.69,6.71-2.69C51.12,18.56,53.944,20.1,55.61,23.19z"/>
  </g></g>
  <g transform="translate(140.2,652.4) scale(0.24)">
  <g><circle fill="#FFF" cx="37.79" cy="28.5" r="28.84"/>
     <circle fill="none" cx="37.79" cy="28.5" r="28.84" stroke="#BFBFBF" stroke-width="5.5"/>
     <path fill="#BFBFBF" d="M46.129,20.557v13.085h-3.656v15.542h-9.944V33.643h-3.656V20.557 c0-0.572,0.2-1.057,0.599-1.457c0.401-0.399,0.887-0.6,1.457-0.6h13.144c0.533,0,1.01,0.2,1.428,0.6 C45.918,19.5,46.129,19.986,46.129,20.557z
              M33.042,12.329c0-3.008,1.485-4.514,4.458-4.514s4.457,1.504,4.457,4.514 c0,2.971-1.486,4.457-4.457,4.457S33.042,15.3,33.042,12.329z"/>
  </g></g>
  </a>
</g>
  <g class="dl_el" transform="translate(69.1,548.4)">
    <g class="dl_el_balloon">
      <foreignObject x="0" y="0" width="250" height="500">
      <div xmlns="http://www.w3.org/1999/xhtml" class="dl_fe" style="height:90px">
      <p class="dl_fe_p">CC-BY: Material may be freely re-used as long as you credit the author</p>
      </div>
	    </foreignObject>
      <path stroke="#000" fill="#FDFFDF" d="M0,90H70l5,5l5,-5H250"/>
    </g>
  </g>
</g>
</svg>
