<svg version="1.1" xmlns="http://www.w3.org/2000/svg" xmlns:xlink="http://www.w3.org/1999/xlink" width="100%" height="100%" viewBox="0 0 1200.000 674.916">
<title>Dutch new passenger cars sales by type: Half-Yearly</title>
<style type="text/css">
  #main {font-family:Helvetica,Arial,sans-serif; font-size:27.00px;
         fill-opacity:1; fill:#000000; stroke:none; stroke-linejoin:round; stroke-linecap:round; stroke-width:1.00;}
  a:hover {text-decoration: underline;}
  .marker {stroke-opacity:0;fill-opacity:0;}
  .marker:hover {stroke-opacity:0.5; fill-opacity:1;}
  .ticklabel {font-size:27.00px;fill:#808080;stroke:none;font-family:Helvetica}
  .ytl {text-anchor:end;}
  .dp1 {pointer-events:none;font-size:70%;text-anchor:middle;fill:#000000;}
  .dp2 {pointer-events:none;font-size:70%;text-anchor:middle;fill:#FFFFFF;}
  .numtip {pointer-events:none;}
  .cc {opacity:0.25;}
.dl_fe {background-color:#FDFFDF;display:flex;margin:auto;align-items:center}
.dl_fe_p {font-size:20px;text-align:center;margin:3px}
.dl_el {display:none;pointer-events:none;}
.cc:hover + .dl_el {display:block;}
text:hover + .dl_el {display:block;}
  #areas .pl {transition: all 0.2s ease;}
  #areas:hover .pl {opacity:0.5;}
  #areas:hover .thick {stroke-width:1;}
  #areas:hover .pg_1:hover .pl {opacity:1;}
  #areas:hover .pg_1:hover .pll {stroke-width:3;}
  #areas:hover .pg_1:hover .pldlm {stroke-width:2;}
  #areas:hover .pg_1:hover .thick {stroke-width:12;}
  #areas:hover .pg_2:hover .pl {opacity:1;}
  #areas:hover .pg_2:hover .pll {stroke-width:3;}
  #areas:hover .pg_2:hover .pldlm {stroke-width:2;}
  #areas:hover .pg_2:hover .thick {stroke-width:12;}
  #areas:hover .pg_3:hover .pl {opacity:1;}
  #areas:hover .pg_3:hover .pll {stroke-width:3;}
  #areas:hover .pg_3:hover .pldlm {stroke-width:2;}
  #areas:hover .pg_3:hover .thick {stroke-width:12;}
  #areas:hover .pg_4:hover .pl {opacity:1;}
  #areas:hover .pg_4:hover .pll {stroke-width:3;}
  #areas:hover .pg_4:hover .pldlm {stroke-width:2;}
  #areas:hover .pg_4:hover .thick {stroke-width:12;}
  #areas:hover .pg_5:hover .pl {opacity:1;}
  #areas:hover .pg_5:hover .pll {stroke-width:3;}
  #areas:hover .pg_5:hover .pldlm {stroke-width:2;}
  #areas:hover .pg_5:hover .thick {stroke-width:12;}
  #lines .pl {transition: all 0.2s ease;}
  #lines:hover .pl {opacity:0.3;}
  #lines:hover .thick {stroke-width:1;}
  #lines:hover .pl_1:hover .pl {opacity:1;}
  #lines:hover .pl_1:hover .pll {stroke-width:3;}
  #lines:hover .pl_1:hover .pldlm {stroke-width:2;}
  #lines:hover .pl_1:hover .thick {stroke-width:12;}
  #lines:hover .pl_2:hover .pl {opacity:1;}
  #lines:hover .pl_2:hover .pll {stroke-width:3;}
  #lines:hover .pl_2:hover .pldlm {stroke-width:2;}
  #lines:hover .pl_2:hover .thick {stroke-width:12;}
  #lines:hover .pl_3:hover .pl {opacity:1;}
  #lines:hover .pl_3:hover .pll {stroke-width:3;}
  #lines:hover .pl_3:hover .pldlm {stroke-width:2;}
  #lines:hover .pl_3:hover .thick {stroke-width:12;}
  #lines:hover .pl_4:hover .pl {opacity:1;}
  #lines:hover .pl_4:hover .pll {stroke-width:3;}
  #lines:hover .pl_4:hover .pldlm {stroke-width:2;}
  #lines:hover .pl_4:hover .thick {stroke-width:12;}
  #lines:hover .pl_5:hover .pl {opacity:1;}
  #lines:hover .pl_5:hover .pll {stroke-width:3;}
  #lines:hover .pl_5:hover .pldlm {stroke-width:2;}
  #lines:hover .pl_5:hover .thick {stroke-width:12;}
  #lines:hover .pl_6:hover .pl {opacity:1;}
  #lines:hover .pl_6:hover .pll {stroke-width:3;}
  #lines:hover .pl_6:hover .pldlm {stroke-width:2;}
  #lines:hover .pl_6:hover .thick {stroke-width:12;}
  #lines:hover .pl_7:hover .pl {opacity:1;}
  #lines:hover .pl_7:hover .pll {stroke-width:3;}
  #lines:hover .pl_7:hover .pldlm {stroke-width:2;}
  #lines:hover .pl_7:hover .thick {stroke-width:12;}
  #lines:hover .pl_8:hover .pl {opacity:1;}
  #lines:hover .pl_8:hover .pll {stroke-width:3;}
  #lines:hover .pl_8:hover .pldlm {stroke-width:2;}
  #lines:hover .pl_8:hover .thick {stroke-width:12;}
  #lines:hover .pl_9:hover .pl {opacity:1;}
  #lines:hover .pl_9:hover .pll {stroke-width:3;}
  #lines:hover .pl_9:hover .pldlm {stroke-width:2;}
  #lines:hover .pl_9:hover .thick {stroke-width:12;}
  #lines:hover .pl_10:hover .pl {opacity:1;}
  #lines:hover .pl_10:hover .pll {stroke-width:3;}
  #lines:hover .pl_10:hover .pldlm {stroke-width:2;}
  #lines:hover .pl_10:hover .thick {stroke-width:12;}
  #lines:hover .pl_11:hover .pl {opacity:1;}
  #lines:hover .pl_11:hover .pll {stroke-width:3;}
  #lines:hover .pl_11:hover .pldlm {stroke-width:2;}
  #lines:hover .pl_11:hover .thick {stroke-width:12;}
  #lines:hover .pl_12:hover .pl {opacity:1;}
  #lines:hover .pl_12:hover .pll {stroke-width:3;}
  #lines:hover .pl_12:hover .pldlm {stroke-width:2;}
  #lines:hover .pl_12:hover .thick {stroke-width:12;}
  #lines:hover .pl_13:hover .pl {opacity:1;}
  #lines:hover .pl_13:hover .pll {stroke-width:3;}
  #lines:hover .pl_13:hover .pldlm {stroke-width:2;}
  #lines:hover .pl_13:hover .thick {stroke-width:12;}
  #lines:hover .pl_14:hover .pl {opacity:1;}
  #lines:hover .pl_14:hover .pll {stroke-width:3;}
  #lines:hover .pl_14:hover .pldlm {stroke-width:2;}
  #lines:hover .pl_14:hover .thick {stroke-width:12;}
  #lines:hover .pl_15:hover .pl {opacity:1;}
  #lines:hover .pl_15:hover .pll {stroke-width:3;}
  #lines:hover .pl_15:hover .pldlm {stroke-width:2;}
  #lines:hover .pl_15:hover .thick {stroke-width:12;}
</style>
<defs>
  <clipPath id="axis_clip"><rect x="145.8" y="54.2" width="761.2" height="505.8" /></clipPath>
  <path id="line_y" d="M 0,53.993 v 506.187" stroke="#4D4D4D" stroke-opacity="0.15" stroke-width="1.00"/>
  <path id="line_x" d="M 145.600,0 h 761.600" stroke="#4D4D4D" stroke-opacity="0.15" stroke-width="1.00"/>
  <path id="tick_y" d="M 145.600,0 h -6.000" stroke="#808080" stroke-width="0.90"/>
  <path id="tick_x" d="M 0,560.180 v 6.000" stroke="#808080" stroke-width="0.90"/>
  <symbol id="line_1" viewBox="0 0 1200.000 674.916">
<polyline class="pl" points="145.6,111.7 187.9,111.7 187.9,194.0 230.2,194.0 230.2,143.1 272.5,143.1 272.5,150.3 314.8,150.3 314.8,242.2 357.2,242.2 357.2,148.3 399.5,148.3 399.5,191.3 441.8,191.3 441.8,183.3 484.1,183.3 484.1,217.4 526.4,217.4 526.4,225.2 568.7,225.2 568.7,159.5 611.0,159.5 611.0,202.9 653.3,202.9 653.3,150.4 695.6,150.4 695.6,153.1 738.0,153.1 738.0,149.4 780.3,149.4 780.3,120.2 822.6,120.2" stroke="#000" stroke-width="0.90" stroke-opacity="1.00" fill="none" clip-path="url(#axis_clip)"/>
  </symbol>
  <symbol id="line_2" viewBox="0 0 1200.000 674.916">
<polyline class="pl" points="145.6,114.2 187.9,114.2 187.9,195.8 230.2,195.8 230.2,144.9 272.5,144.9 272.5,151.6 314.8,151.6 314.8,243.6 357.2,243.6 357.2,151.6 399.5,151.6 399.5,193.6 441.8,193.6 441.8,186.0 484.1,186.0 484.1,219.9 526.4,219.9 526.4,227.5 568.7,227.5 568.7,161.6 611.0,161.6 611.0,205.5 653.3,205.5 653.3,152.7 695.6,152.7 695.6,155.0 738.0,155.0 738.0,150.9 780.3,150.9 780.3,121.7 822.6,121.7" stroke="#000" stroke-width="0.90" stroke-opacity="1.00" fill="none" clip-path="url(#axis_clip)"/>
  </symbol>
  <symbol id="line_3" viewBox="0 0 1200.000 674.916">
<polyline class="pl" points="145.6,124.8 187.9,124.8 187.9,217.0 230.2,217.0 230.2,167.3 272.5,167.3 272.5,208.6 314.8,208.6 314.8,262.7 357.2,262.7 357.2,228.4 399.5,228.4 399.5,217.1 441.8,217.1 441.8,251.9 484.1,251.9 484.1,267.8 526.4,267.8 526.4,291.0 568.7,291.0 568.7,244.7 611.0,244.7 611.0,283.7 653.3,283.7 653.3,236.6 695.6,236.6 695.6,255.1 738.0,255.1 738.0,240.0 780.3,240.0 780.3,245.6 822.6,245.6" stroke="#000" stroke-width="0.90" stroke-opacity="1.00" fill="none" clip-path="url(#axis_clip)"/>
  </symbol>
  <symbol id="line_4" viewBox="0 0 1200.000 674.916">
<polyline class="pl" points="145.6,127.6 187.9,127.6 187.9,220.6 230.2,220.6 230.2,172.0 272.5,172.0 272.5,212.7 314.8,212.7 314.8,271.2 357.2,271.2 357.2,242.5 399.5,242.5 399.5,241.6 441.8,241.6 441.8,279.1 484.1,279.1 484.1,301.9 526.4,301.9 526.4,323.9 568.7,323.9 568.7,297.4 611.0,297.4 611.0,335.7 653.3,335.7 653.3,308.7 695.6,308.7 695.6,332.0 738.0,332.0 738.0,338.3 780.3,338.3 780.3,348.6 822.6,348.6" stroke="#000" stroke-width="0.90" stroke-opacity="1.00" fill="none" clip-path="url(#axis_clip)"/>
  </symbol>
  <symbol id="line_5" viewBox="0 0 1200.000 674.916">
<polyline class="pl" points="145.6,486.4 187.9,486.4 187.9,512.0 230.2,512.0 230.2,518.0 272.5,518.0 272.5,529.2 314.8,529.2 314.8,540.4 357.2,540.4 357.2,541.9 399.5,541.9 399.5,545.5 441.8,545.5 441.8,547.1 484.1,547.1 484.1,549.2 526.4,549.2 526.4,552.6 568.7,552.6 568.7,553.3 611.0,553.3 611.0,553.5 653.3,553.5 653.3,553.6 695.6,553.6 695.6,554.1 738.0,554.1 738.0,554.6 780.3,554.6 780.3,555.0 822.6,555.0" stroke="#000" stroke-width="0.90" stroke-opacity="1.00" fill="none" clip-path="url(#axis_clip)"/>
  </symbol>
  <symbol id="line_6" viewBox="0 0 1200.000 674.916">
<polyline class="pl" points="145.6,114.2 187.9,114.2 187.9,195.8 230.2,195.8 230.2,144.9 272.5,144.9 272.5,151.6 314.8,151.6 314.8,243.6 357.2,243.6 357.2,151.6 399.5,151.6 399.5,193.6 441.8,193.6 441.8,186.0 484.1,186.0 484.1,219.9 526.4,219.9 526.4,227.5 568.7,227.5 568.7,161.6 611.0,161.6 611.0,205.5 653.3,205.5 653.3,152.7 695.6,152.7 695.6,155.0 738.0,155.0 738.0,150.9 780.3,150.9 780.3,121.7 822.6,121.7" stroke="#000" stroke-width="0.90" stroke-opacity="1.00" fill="none" clip-path="url(#axis_clip)"/>
  </symbol>
  <symbol id="line_7" viewBox="0 0 1200.000 674.916">
<polyline class="pl" points="145.6,124.8 187.9,124.8 187.9,217.0 230.2,217.0 230.2,167.3 272.5,167.3 272.5,208.6 314.8,208.6 314.8,262.7 357.2,262.7 357.2,228.4 399.5,228.4 399.5,217.1 441.8,217.1 441.8,251.9 484.1,251.9 484.1,267.8 526.4,267.8 526.4,291.0 568.7,291.0 568.7,244.7 611.0,244.7 611.0,283.7 653.3,283.7 653.3,236.6 695.6,236.6 695.6,255.1 738.0,255.1 738.0,240.0 780.3,240.0 780.3,245.6 822.6,245.6" stroke="#000" stroke-width="0.90" stroke-opacity="1.00" fill="none" clip-path="url(#axis_clip)"/>
  </symbol>
  <symbol id="line_8" viewBox="0 0 1200.000 674.916">
<polyline class="pl" points="145.6,127.6 187.9,127.6 187.9,220.6 230.2,220.6 230.2,172.0 272.5,172.0 272.5,212.7 314.8,212.7 314.8,271.2 357.2,271.2 357.2,242.5 399.5,242.5 399.5,241.6 441.8,241.6 441.8,279.1 484.1,279.1 484.1,301.9 526.4,301.9 526.4,323.9 568.7,323.9 568.7,297.4 611.0,297.4 611.0,335.7 653.3,335.7 653.3,308.7 695.6,308.7 695.6,332.0 738.0,332.0 738.0,338.3 780.3,338.3 780.3,348.6 822.6,348.6" stroke="#000" stroke-width="0.90" stroke-opacity="1.00" fill="none" clip-path="url(#axis_clip)"/>
  </symbol>
  <symbol id="line_9" viewBox="0 0 1200.000 674.916">
<polyline class="pl" points="145.6,486.4 187.9,486.4 187.9,512.0 230.2,512.0 230.2,518.0 272.5,518.0 272.5,529.2 314.8,529.2 314.8,540.4 357.2,540.4 357.2,541.9 399.5,541.9 399.5,545.5 441.8,545.5 441.8,547.1 484.1,547.1 484.1,549.2 526.4,549.2 526.4,552.6 568.7,552.6 568.7,553.3 611.0,553.3 611.0,553.5 653.3,553.5 653.3,553.6 695.6,553.6 695.6,554.1 738.0,554.1 738.0,554.6 780.3,554.6 780.3,555.0 822.6,555.0" stroke="#000" stroke-width="0.90" stroke-opacity="1.00" fill="none" clip-path="url(#axis_clip)"/>
  </symbol>
  <symbol id="line_10" viewBox="0 0 1200.000 674.916">
<polyline class="pl" points="145.6,124.8 187.9,124.8 187.9,217.0 230.2,217.0 230.2,167.3 272.5,167.3 272.5,208.6 314.8,208.6 314.8,262.7 357.2,262.7 357.2,228.4 399.5,228.4 399.5,217.1 441.8,217.1 441.8,251.9 484.1,251.9 484.1,267.8 526.4,267.8 526.4,291.0 568.7,291.0 568.7,244.7 611.0,244.7 611.0,283.7 653.3,283.7 653.3,236.6 695.6,236.6 695.6,255.1 738.0,255.1 738.0,240.0 780.3,240.0 780.3,245.6 822.6,245.6" stroke="#000" stroke-width="0.90" stroke-opacity="1.00" fill="none" clip-path="url(#axis_clip)"/>
  </symbol>
  <symbol id="line_11" viewBox="0 0 1200.000 674.916">
<polyline class="pl" points="145.6,127.6 187.9,127.6 187.9,220.6 230.2,220.6 230.2,172.0 272.5,172.0 272.5,212.7 314.8,212.7 314.8,271.2 357.2,271.2 357.2,242.5 399.5,242.5 399.5,241.6 441.8,241.6 441.8,279.1 484.1,279.1 484.1,301.9 526.4,301.9 526.4,323.9 568.7,323.9 568.7,297.4 611.0,297.4 611.0,335.7 653.3,335.7 653.3,308.7 695.6,308.7 695.6,332.0 738.0,332.0 738.0,338.3 780.3,338.3 780.3,348.6 822.6,348.6" stroke="#000" stroke-width="0.90" stroke-opacity="1.00" fill="none" clip-path="url(#axis_clip)"/>
  </symbol>
  <symbol id="line_12" viewBox="0 0 1200.000 674.916">
<polyline class="pl" points="145.6,486.4 187.9,486.4 187.9,512.0 230.2,512.0 230.2,518.0 272.5,518.0 272.5,529.2 314.8,529.2 314.8,540.4 357.2,540.4 357.2,541.9 399.5,541.9 399.5,545.5 441.8,545.5 441.8,547.1 484.1,547.1 484.1,549.2 526.4,549.2 526.4,552.6 568.7,552.6 568.7,553.3 611.0,553.3 611.0,553.5 653.3,553.5 653.3,553.6 695.6,553.6 695.6,554.1 738.0,554.1 738.0,554.6 780.3,554.6 780.3,555.0 822.6,555.0" stroke="#000" stroke-width="0.90" stroke-opacity="1.00" fill="none" clip-path="url(#axis_clip)"/>
  </symbol>
  <symbol id="line_13" viewBox="0 0 1200.000 674.916">
<polyline class="pl" points="145.6,127.6 187.9,127.6 187.9,220.6 230.2,220.6 230.2,172.0 272.5,172.0 272.5,212.7 314.8,212.7 314.8,271.2 357.2,271.2 357.2,242.5 399.5,242.5 399.5,241.6 441.8,241.6 441.8,279.1 484.1,279.1 484.1,301.9 526.4,301.9 526.4,323.9 568.7,323.9 568.7,297.4 611.0,297.4 611.0,335.7 653.3,335.7 653.3,308.7 695.6,308.7 695.6,332.0 738.0,332.0 738.0,338.3 780.3,338.3 780.3,348.6 822.6,348.6" stroke="#000" stroke-width="0.90" stroke-opacity="1.00" fill="none" clip-path="url(#axis_clip)"/>
  </symbol>
  <symbol id="line_14" viewBox="0 0 1200.000 674.916">
<polyline class="pl" points="145.6,486.4 187.9,486.4 187.9,512.0 230.2,512.0 230.2,518.0 272.5,518.0 272.5,529.2 314.8,529.2 314.8,540.4 357.2,540.4 357.2,541.9 399.5,541.9 399.5,545.5 441.8,545.5 441.8,547.1 484.1,547.1 484.1,549.2 526.4,549.2 526.4,552.6 568.7,552.6 568.7,553.3 611.0,553.3 611.0,553.5 653.3,553.5 653.3,553.6 695.6,553.6 695.6,554.1 738.0,554.1 738.0,554.6 780.3,554.6 780.3,555.0 822.6,555.0" stroke="#000" stroke-width="0.90" stroke-opacity="1.00" fill="none" clip-path="url(#axis_clip)"/>
  </symbol>
  <symbol id="line_15" viewBox="0 0 1200.000 674.916">
<polyline class="pl" points="145.6,486.4 187.9,486.4 187.9,512.0 230.2,512.0 230.2,518.0 272.5,518.0 272.5,529.2 314.8,529.2 314.8,540.4 357.2,540.4 357.2,541.9 399.5,541.9 399.5,545.5 441.8,545.5 441.8,547.1 484.1,547.1 484.1,549.2 526.4,549.2 526.4,552.6 568.7,552.6 568.7,553.3 611.0,553.3 611.0,553.5 653.3,553.5 653.3,553.6 695.6,553.6 695.6,554.1 738.0,554.1 738.0,554.6 780.3,554.6 780.3,555.0 822.6,555.0" stroke="#000" stroke-width="0.90" stroke-opacity="1.00" fill="none" clip-path="url(#axis_clip)"/>
  </symbol>
</defs>
<g id="main">
<text class="ticklabel ytl" transform="translate(128.8,568.3)">0</text>
<text class="ticklabel ytl" transform="translate(128.8,505.0)">50 000</text>
<text class="ticklabel ytl" transform="translate(128.8,441.7)">100 000</text>
<text class="ticklabel ytl" transform="translate(128.8,378.5)">150 000</text>
<text class="ticklabel ytl" transform="translate(128.8,315.2)">200 000</text>
<text class="ticklabel ytl" transform="translate(128.8,251.9)">250 000</text>
<text class="ticklabel ytl" transform="translate(128.8,188.6)">300 000</text>
<text class="ticklabel ytl" transform="translate(128.8,125.4)">350 000</text>
<text class="ticklabel ytl" transform="translate(128.8,62.1)">400 000</text>
<g id="areas">
  <g class="pg_5">
    <polygon class="pl" points="145.6,111.7 187.9,111.7 187.9,194.0 230.2,194.0 230.2,143.1 272.5,143.1 272.5,150.3 314.8,150.3 314.8,242.2 357.2,242.2 357.2,148.3 399.5,148.3 399.5,191.3 441.8,191.3 441.8,183.3 484.1,183.3 484.1,217.4 526.4,217.4 526.4,225.2 568.7,225.2 568.7,159.5 611.0,159.5 611.0,202.9 653.3,202.9 653.3,150.4 695.6,150.4 695.6,153.1 738.0,153.1 738.0,149.4 780.3,149.4 780.3,120.2 822.6,120.2 822.6,121.7 780.3,121.7 780.3,150.9 738.0,150.9 738.0,155.0 695.6,155.0 695.6,152.7 653.3,152.7 653.3,205.5 611.0,205.5 611.0,161.6 568.7,161.6 568.7,227.5 526.4,227.5 526.4,219.9 484.1,219.9 484.1,186.0 441.8,186.0 441.8,193.6 399.5,193.6 399.5,151.6 357.2,151.6 357.2,243.6 314.8,243.6 314.8,151.6 272.5,151.6 272.5,144.9 230.2,144.9 230.2,195.8 187.9,195.8 187.9,114.2 145.6,114.2" stroke="none" stroke-width="0.9000"  fill="#828282" clip-path="url(#axis_clip)"/>
    <text class="pl" transform="translate(925.2,121.0)" dy="7.6" font-size="25.20" fill="#828282" stroke="none">Others</text>
  </g>
  <g class="pg_4">
    <polygon class="pl" points="145.6,114.2 187.9,114.2 187.9,195.8 230.2,195.8 230.2,144.9 272.5,144.9 272.5,151.6 314.8,151.6 314.8,243.6 357.2,243.6 357.2,151.6 399.5,151.6 399.5,193.6 441.8,193.6 441.8,186.0 484.1,186.0 484.1,219.9 526.4,219.9 526.4,227.5 568.7,227.5 568.7,161.6 611.0,161.6 611.0,205.5 653.3,205.5 653.3,152.7 695.6,152.7 695.6,155.0 738.0,155.0 738.0,150.9 780.3,150.9 780.3,121.7 822.6,121.7 822.6,245.6 780.3,245.6 780.3,240.0 738.0,240.0 738.0,255.1 695.6,255.1 695.6,236.6 653.3,236.6 653.3,283.7 611.0,283.7 611.0,244.7 568.7,244.7 568.7,291.0 526.4,291.0 526.4,267.8 484.1,267.8 484.1,251.9 441.8,251.9 441.8,217.1 399.5,217.1 399.5,228.4 357.2,228.4 357.2,262.7 314.8,262.7 314.8,208.6 272.5,208.6 272.5,167.3 230.2,167.3 230.2,217.0 187.9,217.0 187.9,124.8 145.6,124.8" stroke="none" stroke-width="0.9000"  fill="#6298C6" clip-path="url(#axis_clip)"/>
    <text class="pl" transform="translate(925.2,183.7)" dy="7.6" font-size="25.20" fill="#6298C6" stroke="none">Battery electric</text>
  </g>
  <g class="pg_3">
    <polygon class="pl" points="145.6,124.8 187.9,124.8 187.9,217.0 230.2,217.0 230.2,167.3 272.5,167.3 272.5,208.6 314.8,208.6 314.8,262.7 357.2,262.7 357.2,228.4 399.5,228.4 399.5,217.1 441.8,217.1 441.8,251.9 484.1,251.9 484.1,267.8 526.4,267.8 526.4,291.0 568.7,291.0 568.7,244.7 611.0,244.7 611.0,283.7 653.3,283.7 653.3,236.6 695.6,236.6 695.6,255.1 738.0,255.1 738.0,240.0 780.3,240.0 780.3,245.6 822.6,245.6 822.6,348.6 780.3,348.6 780.3,338.3 738.0,338.3 738.0,332.0 695.6,332.0 695.6,308.7 653.3,308.7 653.3,335.7 611.0,335.7 611.0,297.4 568.7,297.4 568.7,323.9 526.4,323.9 526.4,301.9 484.1,301.9 484.1,279.1 441.8,279.1 441.8,241.6 399.5,241.6 399.5,242.5 357.2,242.5 357.2,271.2 314.8,271.2 314.8,212.7 272.5,212.7 272.5,172.0 230.2,172.0 230.2,220.6 187.9,220.6 187.9,127.6 145.6,127.6" stroke="none" stroke-width="0.9000"  fill="#77AC30" clip-path="url(#axis_clip)"/>
    <text class="pl" transform="translate(925.2,297.1)" dy="7.6" font-size="25.20" fill="#77AC30" stroke="none">Plugin hybrid</text>
  </g>
  <g class="pg_2">
    <polygon class="pl" points="145.6,127.6 187.9,127.6 187.9,220.6 230.2,220.6 230.2,172.0 272.5,172.0 272.5,212.7 314.8,212.7 314.8,271.2 357.2,271.2 357.2,242.5 399.5,242.5 399.5,241.6 441.8,241.6 441.8,279.1 484.1,279.1 484.1,301.9 526.4,301.9 526.4,323.9 568.7,323.9 568.7,297.4 611.0,297.4 611.0,335.7 653.3,335.7 653.3,308.7 695.6,308.7 695.6,332.0 738.0,332.0 738.0,338.3 780.3,338.3 780.3,348.6 822.6,348.6 822.6,555.0 780.3,555.0 780.3,554.6 738.0,554.6 738.0,554.1 695.6,554.1 695.6,553.6 653.3,553.6 653.3,553.5 611.0,553.5 611.0,553.3 568.7,553.3 568.7,552.6 526.4,552.6 526.4,549.2 484.1,549.2 484.1,547.1 441.8,547.1 441.8,545.5 399.5,545.5 399.5,541.9 357.2,541.9 357.2,540.4 314.8,540.4 314.8,529.2 272.5,529.2 272.5,518.0 230.2,518.0 230.2,512.0 187.9,512.0 187.9,486.4 145.6,486.4" stroke="none" stroke-width="0.9000"  fill="#7B553E" clip-path="url(#axis_clip)"/>
    <text class="pl" transform="translate(925.2,451.8)" dy="7.6" font-size="25.20" fill="#7B553E" stroke="none">Petrol</text>
    <text class="pl" transform="translate(925.2,467.4)" dy="18.0" font-size="18.00" fill="#7B553E" stroke="none">includes non-plugin hybrids</text>
  </g>
  <g class="pg_1">
    <polygon class="pl" points="145.6,486.4 187.9,486.4 187.9,512.0 230.2,512.0 230.2,518.0 272.5,518.0 272.5,529.2 314.8,529.2 314.8,540.4 357.2,540.4 357.2,541.9 399.5,541.9 399.5,545.5 441.8,545.5 441.8,547.1 484.1,547.1 484.1,549.2 526.4,549.2 526.4,552.6 568.7,552.6 568.7,553.3 611.0,553.3 611.0,553.5 653.3,553.5 653.3,553.6 695.6,553.6 695.6,554.1 738.0,554.1 738.0,554.6 780.3,554.6 780.3,555.0 822.6,555.0 822.6,560.2 145.6,560.2" stroke="none" stroke-width="0.9000"  fill="#7B6E57" clip-path="url(#axis_clip)"/>
    <text class="pl" transform="translate(925.2,557.6)" dy="7.6" font-size="25.20" fill="#7B6E57" stroke="none">Diesel</text>
    <text class="pl" transform="translate(925.2,573.2)" dy="18.0" font-size="18.00" fill="#7B6E57" stroke="none">includes non-plugin hybrids</text>
  </g>
</g>
<g id="lines">
  <g class="pl_1">
    <use xlink:href="#line_1" class="thick" stroke="#000" stroke-width="3" opacity="0"/>
    <use xlink:href="#line_1" class="pl pll" stroke="#000" stroke-width="0.90"/>
  </g>
  <g class="pl_2">
    <use xlink:href="#line_2" class="thick" stroke="#000" stroke-width="3" opacity="0"/>
    <use xlink:href="#line_2" class="pl pll" stroke="#000" stroke-width="0.90"/>
  </g>
  <g class="pl_3">
    <use xlink:href="#line_3" class="thick" stroke="#000" stroke-width="3" opacity="0"/>
    <use xlink:href="#line_3" class="pl pll" stroke="#000" stroke-width="0.90"/>
  </g>
  <g class="pl_4">
    <use xlink:href="#line_4" class="thick" stroke="#000" stroke-width="3" opacity="0"/>
    <use xlink:href="#line_4" class="pl pll" stroke="#000" stroke-width="0.90"/>
  </g>
  <g class="pl_5">
    <use xlink:href="#line_5" class="thick" stroke="#000" stroke-width="3" opacity="0"/>
    <use xlink:href="#line_5" class="pl pll" stroke="#000" stroke-width="0.90"/>
  </g>
  <g class="pl_6">
    <use xlink:href="#line_6" class="thick" stroke="#000" stroke-width="3" opacity="0"/>
    <use xlink:href="#line_6" class="pl pll" stroke="#000" stroke-width="0.90"/>
  </g>
  <g class="pl_7">
    <use xlink:href="#line_7" class="thick" stroke="#000" stroke-width="3" opacity="0"/>
    <use xlink:href="#line_7" class="pl pll" stroke="#000" stroke-width="0.90"/>
  </g>
  <g class="pl_8">
    <use xlink:href="#line_8" class="thick" stroke="#000" stroke-width="3" opacity="0"/>
    <use xlink:href="#line_8" class="pl pll" stroke="#000" stroke-width="0.90"/>
  </g>
  <g class="pl_9">
    <use xlink:href="#line_9" class="thick" stroke="#000" stroke-width="3" opacity="0"/>
    <use xlink:href="#line_9" class="pl pll" stroke="#000" stroke-width="0.90"/>
  </g>
  <g class="pl_10">
    <use xlink:href="#line_10" class="thick" stroke="#000" stroke-width="3" opacity="0"/>
    <use xlink:href="#line_10" class="pl pll" stroke="#000" stroke-width="0.90"/>
  </g>
  <g class="pl_11">
    <use xlink:href="#line_11" class="thick" stroke="#000" stroke-width="3" opacity="0"/>
    <use xlink:href="#line_11" class="pl pll" stroke="#000" stroke-width="0.90"/>
  </g>
  <g class="pl_12">
    <use xlink:href="#line_12" class="thick" stroke="#000" stroke-width="3" opacity="0"/>
    <use xlink:href="#line_12" class="pl pll" stroke="#000" stroke-width="0.90"/>
  </g>
  <g class="pl_13">
    <use xlink:href="#line_13" class="thick" stroke="#000" stroke-width="3" opacity="0"/>
    <use xlink:href="#line_13" class="pl pll" stroke="#000" stroke-width="0.90"/>
  </g>
  <g class="pl_14">
    <use xlink:href="#line_14" class="thick" stroke="#000" stroke-width="3" opacity="0"/>
    <use xlink:href="#line_14" class="pl pll" stroke="#000" stroke-width="0.90"/>
  </g>
  <g class="pl_15">
    <use xlink:href="#line_15" class="thick" stroke="#000" stroke-width="3" opacity="0"/>
    <use xlink:href="#line_15" class="pl pll" stroke="#000" stroke-width="0.90"/>
  </g>
</g>
    <text class="pl" transform="translate(187.9,573.0) rotate(-90)" dy="8.1" font-size="27.00" fill="#808080" stroke="none" text-anchor="end">2018</text>
    <text class="pl" transform="translate(272.5,573.0) rotate(-90)" dy="8.1" font-size="27.00" fill="#808080" stroke="none" text-anchor="end">2019</text>
    <text class="pl" transform="translate(357.2,573.0) rotate(-90)" dy="8.1" font-size="27.00" fill="#808080" stroke="none" text-anchor="end">2020</text>
    <text class="pl" transform="translate(441.8,573.0) rotate(-90)" dy="8.1" font-size="27.00" fill="#808080" stroke="none" text-anchor="end">2021</text>
    <text class="pl" transform="translate(526.4,573.0) rotate(-90)" dy="8.1" font-size="27.00" fill="#808080" stroke="none" text-anchor="end">2022</text>
    <text class="pl" transform="translate(611.0,573.0) rotate(-90)" dy="8.1" font-size="27.00" fill="#808080" stroke="none" text-anchor="end">2023</text>
    <text class="pl" transform="translate(695.6,573.0) rotate(-90)" dy="8.1" font-size="27.00" fill="#808080" stroke="none" text-anchor="end">2024</text>
    <text class="pl" transform="translate(780.3,573.0) rotate(-90)" dy="8.1" font-size="27.00" fill="#808080" stroke="none" text-anchor="end">2025</text>
    <text class="pl" transform="translate(864.9,573.0) rotate(-90)" dy="8.1" font-size="27.00" fill="#808080" stroke="none" text-anchor="end">2026</text>
    <text class="pl" transform="translate(145.6,47.2)" dy="0.0" font-size="27.00" fill="#808080" stroke="none">Dutch new passenger cars sales by type: Half-Yearly</text>
<text transform="translate(157.6,666.1)" font-size="19.80" font-family="Helvetica" fill="#BFBFBF" stroke="none" xml:space="preserve"><a href="https://bsky.app/profile/robbieandrew.bsky.social" style="fill:#BFBFBF" target="_blank">@robbieandrew.bsky.social</a>   &#9679;   Data: RVO   &#9679;   Includes used imports   &#9679;   Through January 2026</text>
<text class="twitlink" transform="translate(157.6,666.1)" opacity="0" font-size="19.80" fill="#BFBFBF" stroke="none" xml:space="preserve"><a href="https://bsky.app/profile/robbieandrew.bsky.social" style="fill:#BFBFBF" target="_blank">@robbieandrew.bsky.social</a></text>
  <g class="dl_el" transform="translate(154.6,578.4)">
    <g class="dl_el_balloon">
      <foreignObject x="0" y="0" width="120" height="500">
      <div xmlns="http://www.w3.org/1999/xhtml" class="dl_fe" style="height:60px">
      <p class="dl_fe_p">Find me on BlueSky</p>
      </div>
	    </foreignObject>
      <path stroke="#000" fill="#FDFFDF" d="M0,60H60l5,5l5,-5H120"/>
    </g>
  </g>
<use xlink:href="#line_y" transform="translate(145.6,0)"/>
<use xlink:href="#line_y" transform="translate(230.2,0)"/>
<use xlink:href="#line_y" transform="translate(314.8,0)"/>
<use xlink:href="#line_y" transform="translate(399.5,0)"/>
<use xlink:href="#line_y" transform="translate(484.1,0)"/>
<use xlink:href="#line_y" transform="translate(568.7,0)"/>
<use xlink:href="#line_y" transform="translate(653.3,0)"/>
<use xlink:href="#line_y" transform="translate(738.0,0)"/>
<use xlink:href="#line_y" transform="translate(822.6,0)"/>
<use xlink:href="#line_y" transform="translate(907.2,0)"/>
<use xlink:href="#line_x" transform="translate(0,560.2)"/>
<use xlink:href="#line_x" transform="translate(0,496.9)"/>
<use xlink:href="#line_x" transform="translate(0,433.6)"/>
<use xlink:href="#line_x" transform="translate(0,370.4)"/>
<use xlink:href="#line_x" transform="translate(0,307.1)"/>
<use xlink:href="#line_x" transform="translate(0,243.8)"/>
<use xlink:href="#line_x" transform="translate(0,180.5)"/>
<use xlink:href="#line_x" transform="translate(0,117.3)"/>
<use xlink:href="#line_x" transform="translate(0,54.0)"/>
<use xlink:href="#tick_x" transform="translate(145.6,0)"/>
<use xlink:href="#tick_x" transform="translate(230.2,0)"/>
<use xlink:href="#tick_x" transform="translate(314.8,0)"/>
<use xlink:href="#tick_x" transform="translate(399.5,0)"/>
<use xlink:href="#tick_x" transform="translate(484.1,0)"/>
<use xlink:href="#tick_x" transform="translate(568.7,0)"/>
<use xlink:href="#tick_x" transform="translate(653.3,0)"/>
<use xlink:href="#tick_x" transform="translate(738.0,0)"/>
<use xlink:href="#tick_x" transform="translate(822.6,0)"/>
<use xlink:href="#tick_x" transform="translate(907.2,0)"/>
<use xlink:href="#tick_y" transform="translate(0,560.2)"/>
<use xlink:href="#tick_y" transform="translate(0,496.9)"/>
<use xlink:href="#tick_y" transform="translate(0,433.6)"/>
<use xlink:href="#tick_y" transform="translate(0,370.4)"/>
<use xlink:href="#tick_y" transform="translate(0,307.1)"/>
<use xlink:href="#tick_y" transform="translate(0,243.8)"/>
<use xlink:href="#tick_y" transform="translate(0,180.5)"/>
<use xlink:href="#tick_y" transform="translate(0,117.3)"/>
<use xlink:href="#tick_y" transform="translate(0,54.0)"/>
<polyline points="145.6,53.993 145.6,560.180 907.2,560.180" stroke="#808080" stroke-width="0.90" fill="none"/>
<g>
<a href="https://creativecommons.org/licenses/by/4.0/" target="_blank">
  <rect x="123.0" y="651.4" width="34" height="17" fill="#FFF" stroke="none" opacity="0.01"/>
  <g transform="translate(124.0,652.4) scale(0.24)">
  <g><circle fill="#FFF" cx="37.79" cy="28.5" r="28.84"/>
     <circle fill="none" cx="37.79" cy="28.5" r="28.84" stroke="#BFBFBF" stroke-width="5.5"/>
     <path fill="#BFBFBF" d="M37.16,23.19 l-4.29,2.23c-0.458-0.951-1.02-1.62-1.69-2c-0.667-0.38-1.29-0.571-1.86-0.571c-2.86,0-4.29,1.89-4.29,5.66 c0,1.71,0.36,3.08,1.09,4.11c0.724,1.03,1.79,1.54,3.2,1.54c1.87,0,3.18-0.915,3.94-2.74l3.94,2 c-0.838,1.56-2,2.79-3.49,3.69c-1.48,0.896-3.12,1.34-4.91,1.34c-2.86,0-5.16-0.875-6.92-2.63 c-1.75-1.75-2.63-4.19-2.63-7.31c0-3.05,0.886-5.47,2.66-7.26c1.77-1.79,4.01-2.69,6.72-2.69 C32.6,18.56,35.44,20.1,37.16,23.19z
              M55.61,23.19l-4.23,2.23c-0.457-0.951-1.02-1.62-1.69-2 c-0.668-0.38-1.31-0.571-1.91-0.571c-2.86,0-4.29,1.89-4.29,5.66c0,1.71,0.363,3.08,1.09,4.11 c0.723,1.03,1.79,1.54,3.2,1.54c1.87,0,3.18-0.915,3.94-2.74l4,2c-0.875,1.56-2.06,2.79-3.54,3.69 c-1.49,0.9-3.11,1.34-4.86,1.34c-2.9,0-5.21-0.875-6.94-2.63c-1.74-1.75-2.6-4.19-2.6-7.31 c0-3.05,0.885-5.47,2.66-7.26c1.77-1.79,4.01-2.69,6.71-2.69C51.12,18.56,53.944,20.1,55.61,23.19z"/>
  </g></g>
  <g transform="translate(140.2,652.4) scale(0.24)">
  <g><circle fill="#FFF" cx="37.79" cy="28.5" r="28.84"/>
     <circle fill="none" cx="37.79" cy="28.5" r="28.84" stroke="#BFBFBF" stroke-width="5.5"/>
     <path fill="#BFBFBF" d="M46.129,20.557v13.085h-3.656v15.542h-9.944V33.643h-3.656V20.557 c0-0.572,0.2-1.057,0.599-1.457c0.401-0.399,0.887-0.6,1.457-0.6h13.144c0.533,0,1.01,0.2,1.428,0.6 C45.918,19.5,46.129,19.986,46.129,20.557z
              M33.042,12.329c0-3.008,1.485-4.514,4.458-4.514s4.457,1.504,4.457,4.514 c0,2.971-1.486,4.457-4.457,4.457S33.042,15.3,33.042,12.329z"/>
  </g></g>
  </a>
</g>
  <g class="dl_el" transform="translate(69.1,548.4)">
    <g class="dl_el_balloon">
      <foreignObject x="0" y="0" width="250" height="500">
      <div xmlns="http://www.w3.org/1999/xhtml" class="dl_fe" style="height:90px">
      <p class="dl_fe_p">CC-BY: Material may be freely re-used as long as you credit the author</p>
      </div>
	    </foreignObject>
      <path stroke="#000" fill="#FDFFDF" d="M0,90H70l5,5l5,-5H250"/>
    </g>
  </g>
</g>
</svg>
