<svg version="1.1" xmlns="http://www.w3.org/2000/svg" xmlns:xlink="http://www.w3.org/1999/xlink" width="100%" height="100%" viewBox="0 0 1200.000 674.916">
<title>Quarterly sales of new passenger cars: South Korea</title>
<style type="text/css">
  #main {font-family:Helvetica,Arial,sans-serif; font-size:27.00px;
         fill-opacity:1; fill:#000000; stroke:none; stroke-linejoin:round; stroke-linecap:round; stroke-width:1.00;}
  a:hover {text-decoration: underline;}
  .marker {stroke-opacity:0;fill-opacity:0;}
  .marker:hover {stroke-opacity:0.5; fill-opacity:1;}
  .ticklabel {font-size:27.00px;fill:#808080;stroke:none;font-family:Helvetica}
  .ytl {text-anchor:end;}
  .dp1 {pointer-events:none;font-size:70%;text-anchor:middle;fill:#000000;}
  .dp2 {pointer-events:none;font-size:70%;text-anchor:middle;fill:#FFFFFF;}
  .numtip {pointer-events:none;}
  .cc {opacity:0.25;}
.dl_fe {background-color:#FDFFDF;display:flex;margin:auto;align-items:center}
.dl_fe_p {font-size:20px;text-align:center;margin:3px}
.dl_el {display:none;pointer-events:none;}
.cc:hover + .dl_el {display:block;}
text:hover + .dl_el {display:block;}
  #areas .pl {transition: all 0.2s ease;}
  #areas:hover .pl {opacity:0.5;}
  #areas:hover .thick {stroke-width:1;}
  #areas:hover .pg_1:hover .pl {opacity:1;}
  #areas:hover .pg_1:hover .pll {stroke-width:3;}
  #areas:hover .pg_1:hover .pldlm {stroke-width:2;}
  #areas:hover .pg_1:hover .thick {stroke-width:12;}
  #areas:hover .pg_2:hover .pl {opacity:1;}
  #areas:hover .pg_2:hover .pll {stroke-width:3;}
  #areas:hover .pg_2:hover .pldlm {stroke-width:2;}
  #areas:hover .pg_2:hover .thick {stroke-width:12;}
  #areas:hover .pg_3:hover .pl {opacity:1;}
  #areas:hover .pg_3:hover .pll {stroke-width:3;}
  #areas:hover .pg_3:hover .pldlm {stroke-width:2;}
  #areas:hover .pg_3:hover .thick {stroke-width:12;}
  #areas:hover .pg_4:hover .pl {opacity:1;}
  #areas:hover .pg_4:hover .pll {stroke-width:3;}
  #areas:hover .pg_4:hover .pldlm {stroke-width:2;}
  #areas:hover .pg_4:hover .thick {stroke-width:12;}
  #areas:hover .pg_5:hover .pl {opacity:1;}
  #areas:hover .pg_5:hover .pll {stroke-width:3;}
  #areas:hover .pg_5:hover .pldlm {stroke-width:2;}
  #areas:hover .pg_5:hover .thick {stroke-width:12;}
  #lines .pl {transition: all 0.2s ease;}
  #lines:hover .pl {opacity:0.3;}
  #lines:hover .thick {stroke-width:1;}
  #lines:hover .pl_1:hover .pl {opacity:1;}
  #lines:hover .pl_1:hover .pll {stroke-width:3;}
  #lines:hover .pl_1:hover .pldlm {stroke-width:2;}
  #lines:hover .pl_1:hover .thick {stroke-width:12;}
  #lines:hover .pl_2:hover .pl {opacity:1;}
  #lines:hover .pl_2:hover .pll {stroke-width:3;}
  #lines:hover .pl_2:hover .pldlm {stroke-width:2;}
  #lines:hover .pl_2:hover .thick {stroke-width:12;}
  #lines:hover .pl_3:hover .pl {opacity:1;}
  #lines:hover .pl_3:hover .pll {stroke-width:3;}
  #lines:hover .pl_3:hover .pldlm {stroke-width:2;}
  #lines:hover .pl_3:hover .thick {stroke-width:12;}
  #lines:hover .pl_4:hover .pl {opacity:1;}
  #lines:hover .pl_4:hover .pll {stroke-width:3;}
  #lines:hover .pl_4:hover .pldlm {stroke-width:2;}
  #lines:hover .pl_4:hover .thick {stroke-width:12;}
  #lines:hover .pl_5:hover .pl {opacity:1;}
  #lines:hover .pl_5:hover .pll {stroke-width:3;}
  #lines:hover .pl_5:hover .pldlm {stroke-width:2;}
  #lines:hover .pl_5:hover .thick {stroke-width:12;}
  #lines:hover .pl_6:hover .pl {opacity:1;}
  #lines:hover .pl_6:hover .pll {stroke-width:3;}
  #lines:hover .pl_6:hover .pldlm {stroke-width:2;}
  #lines:hover .pl_6:hover .thick {stroke-width:12;}
  #lines:hover .pl_7:hover .pl {opacity:1;}
  #lines:hover .pl_7:hover .pll {stroke-width:3;}
  #lines:hover .pl_7:hover .pldlm {stroke-width:2;}
  #lines:hover .pl_7:hover .thick {stroke-width:12;}
  #lines:hover .pl_8:hover .pl {opacity:1;}
  #lines:hover .pl_8:hover .pll {stroke-width:3;}
  #lines:hover .pl_8:hover .pldlm {stroke-width:2;}
  #lines:hover .pl_8:hover .thick {stroke-width:12;}
  #lines:hover .pl_9:hover .pl {opacity:1;}
  #lines:hover .pl_9:hover .pll {stroke-width:3;}
  #lines:hover .pl_9:hover .pldlm {stroke-width:2;}
  #lines:hover .pl_9:hover .thick {stroke-width:12;}
  #lines:hover .pl_10:hover .pl {opacity:1;}
  #lines:hover .pl_10:hover .pll {stroke-width:3;}
  #lines:hover .pl_10:hover .pldlm {stroke-width:2;}
  #lines:hover .pl_10:hover .thick {stroke-width:12;}
  #lines:hover .pl_11:hover .pl {opacity:1;}
  #lines:hover .pl_11:hover .pll {stroke-width:3;}
  #lines:hover .pl_11:hover .pldlm {stroke-width:2;}
  #lines:hover .pl_11:hover .thick {stroke-width:12;}
  #lines:hover .pl_12:hover .pl {opacity:1;}
  #lines:hover .pl_12:hover .pll {stroke-width:3;}
  #lines:hover .pl_12:hover .pldlm {stroke-width:2;}
  #lines:hover .pl_12:hover .thick {stroke-width:12;}
  #lines:hover .pl_13:hover .pl {opacity:1;}
  #lines:hover .pl_13:hover .pll {stroke-width:3;}
  #lines:hover .pl_13:hover .pldlm {stroke-width:2;}
  #lines:hover .pl_13:hover .thick {stroke-width:12;}
  #lines:hover .pl_14:hover .pl {opacity:1;}
  #lines:hover .pl_14:hover .pll {stroke-width:3;}
  #lines:hover .pl_14:hover .pldlm {stroke-width:2;}
  #lines:hover .pl_14:hover .thick {stroke-width:12;}
  #lines:hover .pl_15:hover .pl {opacity:1;}
  #lines:hover .pl_15:hover .pll {stroke-width:3;}
  #lines:hover .pl_15:hover .pldlm {stroke-width:2;}
  #lines:hover .pl_15:hover .thick {stroke-width:12;}
</style>
<defs>
  <clipPath id="axis_clip"><rect x="145.8" y="54.2" width="761.2" height="505.8" /></clipPath>
  <path id="line_y" d="M 0,53.993 v 506.187" stroke="#4D4D4D" stroke-opacity="0.15" stroke-width="1.00"/>
  <path id="line_x" d="M 145.600,0 h 761.600" stroke="#4D4D4D" stroke-opacity="0.15" stroke-width="1.00"/>
  <path id="tick_y" d="M 145.600,0 h -6.000" stroke="#808080" stroke-width="0.90"/>
  <path id="tick_x" d="M 0,560.180 v 6.000" stroke="#808080" stroke-width="0.90"/>
  <symbol id="line_1" viewBox="0 0 1200.000 674.916">
<polyline class="pl" points="145.6,197.9 164.6,197.9 164.6,160.3 183.7,160.3 183.7,186.6 202.7,186.6 202.7,183.0 221.8,183.0 221.8,200.3 240.8,200.3 240.8,160.1 259.8,160.1 259.8,198.6 278.9,198.6 278.9,152.3 297.9,152.3 297.9,263.0 317.0,263.0 317.0,162.4 336.0,162.4 336.0,213.0 355.0,213.0 355.0,145.2 374.1,145.2 374.1,232.9 393.1,232.9 393.1,103.0 412.2,103.0 412.2,169.9 431.2,169.9 431.2,142.3 450.2,142.3 450.2,195.4 469.3,195.4 469.3,156.4 488.3,156.4 488.3,229.4 507.4,229.4 507.4,203.4 526.4,203.4 526.4,245.6 545.4,245.6 545.4,193.4 564.5,193.4 564.5,209.9 583.5,209.9 583.5,168.5 602.6,168.5 602.6,180.1 621.6,180.1 621.6,168.5 640.6,168.5 640.6,222.3 659.7,222.3 659.7,184.7 678.7,184.7 678.7,241.4 697.8,241.4 697.8,205.6 716.8,205.6 716.8,230.1 735.8,230.1 735.8,192.3 754.9,192.3 754.9,232.6 773.9,232.6 773.9,190.4 793.0,190.4 793.0,193.0 812.0,193.0 812.0,207.3 831.0,207.3" stroke="#000" stroke-width="0.90" stroke-opacity="1.00" fill="none" clip-path="url(#axis_clip)"/>
  </symbol>
  <symbol id="line_2" viewBox="0 0 1200.000 674.916">
<polyline class="pl" points="145.6,197.9 164.6,197.9 164.6,160.3 183.7,160.3 183.7,186.7 202.7,186.7 202.7,183.1 221.8,183.1 221.8,200.3 240.8,200.3 240.8,160.2 259.8,160.2 259.8,198.7 278.9,198.7 278.9,152.6 297.9,152.6 297.9,263.3 317.0,263.3 317.0,163.5 336.0,163.5 336.0,213.9 355.0,213.9 355.0,146.5 374.1,146.5 374.1,233.9 393.1,233.9 393.1,104.2 412.2,104.2 412.2,171.5 431.2,171.5 431.2,143.4 450.2,143.4 450.2,196.8 469.3,196.8 469.3,158.8 488.3,158.8 488.3,231.1 507.4,231.1 507.4,205.2 526.4,205.2 526.4,246.8 545.4,246.8 545.4,196.3 564.5,196.3 564.5,212.1 583.5,212.1 583.5,170.7 602.6,170.7 602.6,181.6 621.6,181.6 621.6,169.4 640.6,169.4 640.6,223.1 659.7,223.1 659.7,185.1 678.7,185.1 678.7,241.9 697.8,241.9 697.8,206.5 716.8,206.5 716.8,231.0 735.8,231.0 735.8,192.6 754.9,192.6 754.9,233.2 773.9,233.2 773.9,190.8 793.0,190.8 793.0,196.1 812.0,196.1 812.0,208.7 831.0,208.7" stroke="#000" stroke-width="0.90" stroke-opacity="1.00" fill="none" clip-path="url(#axis_clip)"/>
  </symbol>
  <symbol id="line_3" viewBox="0 0 1200.000 674.916">
<polyline class="pl" points="145.6,199.4 164.6,199.4 164.6,162.6 183.7,162.6 183.7,190.3 202.7,190.3 202.7,187.1 221.8,187.1 221.8,203.7 240.8,203.7 240.8,166.8 259.8,166.8 259.8,205.4 278.9,205.4 278.9,160.4 297.9,160.4 297.9,268.2 317.0,268.2 317.0,173.1 336.0,173.1 336.0,220.4 355.0,220.4 355.0,152.5 374.1,152.5 374.1,240.0 393.1,240.0 393.1,112.6 412.2,112.6 412.2,182.5 431.2,182.5 431.2,151.4 450.2,151.4 450.2,206.5 469.3,206.5 469.3,181.6 488.3,181.6 488.3,255.6 507.4,255.6 507.4,229.0 526.4,229.0 526.4,268.3 545.4,268.3 545.4,229.3 564.5,229.3 564.5,254.0 583.5,254.0 583.5,204.5 602.6,204.5 602.6,211.9 621.6,211.9 621.6,205.4 640.6,205.4 640.6,253.5 659.7,253.5 659.7,220.9 678.7,220.9 678.7,263.3 697.8,263.3 697.8,239.7 716.8,239.7 716.8,267.2 735.8,267.2 735.8,221.4 754.9,221.4 754.9,262.1 773.9,262.1 773.9,239.7 793.0,239.7 793.0,261.5 812.0,261.5 812.0,248.1 831.0,248.1" stroke="#000" stroke-width="0.90" stroke-opacity="1.00" fill="none" clip-path="url(#axis_clip)"/>
  </symbol>
  <symbol id="line_4" viewBox="0 0 1200.000 674.916">
<polyline class="pl" points="145.6,199.4 164.6,199.4 164.6,162.6 183.7,162.6 183.7,190.5 202.7,190.5 202.7,187.1 221.8,187.1 221.8,203.8 240.8,203.8 240.8,167.1 259.8,167.1 259.8,205.6 278.9,205.6 278.9,161.7 297.9,161.7 297.9,268.4 317.0,268.4 317.0,174.2 336.0,174.2 336.0,221.1 355.0,221.1 355.0,154.2 374.1,154.2 374.1,240.9 393.1,240.9 393.1,114.2 412.2,114.2 412.2,186.1 431.2,186.1 431.2,156.4 450.2,156.4 450.2,210.9 469.3,210.9 469.3,186.7 488.3,186.7 488.3,259.6 507.4,259.6 507.4,232.2 526.4,232.2 526.4,271.8 545.4,271.8 545.4,231.8 564.5,231.8 564.5,256.3 583.5,256.3 583.5,207.2 602.6,207.2 602.6,213.6 621.6,213.6 621.6,208.5 640.6,208.5 640.6,255.9 659.7,255.9 659.7,222.7 678.7,222.7 678.7,264.8 697.8,264.8 697.8,241.1 716.8,241.1 716.8,269.2 735.8,269.2 735.8,224.3 754.9,224.3 754.9,265.2 773.9,265.2 773.9,242.8 793.0,242.8 793.0,264.3 812.0,264.3 812.0,250.6 831.0,250.6" stroke="#000" stroke-width="0.90" stroke-opacity="1.00" fill="none" clip-path="url(#axis_clip)"/>
  </symbol>
  <symbol id="line_5" viewBox="0 0 1200.000 674.916">
<polyline class="pl" points="145.6,211.5 164.6,211.5 164.6,181.3 183.7,181.3 183.7,209.3 202.7,209.3 202.7,208.3 221.8,208.3 221.8,220.7 240.8,220.7 240.8,184.9 259.8,184.9 259.8,221.7 278.9,221.7 278.9,188.3 297.9,188.3 297.9,285.9 317.0,285.9 317.0,196.7 336.0,196.7 336.0,238.7 355.0,238.7 355.0,178.8 374.1,178.8 374.1,259.4 393.1,259.4 393.1,150.3 412.2,150.3 412.2,218.6 431.2,218.6 431.2,205.6 450.2,205.6 450.2,251.7 469.3,251.7 469.3,230.0 488.3,230.0 488.3,307.4 507.4,307.4 507.4,286.7 526.4,286.7 526.4,319.3 545.4,319.3 545.4,294.8 564.5,294.8 564.5,306.6 583.5,306.6 583.5,266.7 602.6,266.7 602.6,280.4 621.6,280.4 621.6,290.1 640.6,290.1 640.6,327.2 659.7,327.2 659.7,318.7 678.7,318.7 678.7,359.1 697.8,359.1 697.8,338.8 716.8,338.8 716.8,366.1 735.8,366.1 735.8,353.4 754.9,353.4 754.9,375.1 773.9,375.1 773.9,372.2 793.0,372.2 793.0,384.6 812.0,384.6 812.0,377.4 831.0,377.4" stroke="#000" stroke-width="0.90" stroke-opacity="1.00" fill="none" clip-path="url(#axis_clip)"/>
  </symbol>
  <symbol id="line_6" viewBox="0 0 1200.000 674.916">
<polyline class="pl" points="145.6,197.9 164.6,197.9 164.6,160.3 183.7,160.3 183.7,186.7 202.7,186.7 202.7,183.1 221.8,183.1 221.8,200.3 240.8,200.3 240.8,160.2 259.8,160.2 259.8,198.7 278.9,198.7 278.9,152.6 297.9,152.6 297.9,263.3 317.0,263.3 317.0,163.5 336.0,163.5 336.0,213.9 355.0,213.9 355.0,146.5 374.1,146.5 374.1,233.9 393.1,233.9 393.1,104.2 412.2,104.2 412.2,171.5 431.2,171.5 431.2,143.4 450.2,143.4 450.2,196.8 469.3,196.8 469.3,158.8 488.3,158.8 488.3,231.1 507.4,231.1 507.4,205.2 526.4,205.2 526.4,246.8 545.4,246.8 545.4,196.3 564.5,196.3 564.5,212.1 583.5,212.1 583.5,170.7 602.6,170.7 602.6,181.6 621.6,181.6 621.6,169.4 640.6,169.4 640.6,223.1 659.7,223.1 659.7,185.1 678.7,185.1 678.7,241.9 697.8,241.9 697.8,206.5 716.8,206.5 716.8,231.0 735.8,231.0 735.8,192.6 754.9,192.6 754.9,233.2 773.9,233.2 773.9,190.8 793.0,190.8 793.0,196.1 812.0,196.1 812.0,208.7 831.0,208.7" stroke="#000" stroke-width="0.90" stroke-opacity="1.00" fill="none" clip-path="url(#axis_clip)"/>
  </symbol>
  <symbol id="line_7" viewBox="0 0 1200.000 674.916">
<polyline class="pl" points="145.6,199.4 164.6,199.4 164.6,162.6 183.7,162.6 183.7,190.3 202.7,190.3 202.7,187.1 221.8,187.1 221.8,203.7 240.8,203.7 240.8,166.8 259.8,166.8 259.8,205.4 278.9,205.4 278.9,160.4 297.9,160.4 297.9,268.2 317.0,268.2 317.0,173.1 336.0,173.1 336.0,220.4 355.0,220.4 355.0,152.5 374.1,152.5 374.1,240.0 393.1,240.0 393.1,112.6 412.2,112.6 412.2,182.5 431.2,182.5 431.2,151.4 450.2,151.4 450.2,206.5 469.3,206.5 469.3,181.6 488.3,181.6 488.3,255.6 507.4,255.6 507.4,229.0 526.4,229.0 526.4,268.3 545.4,268.3 545.4,229.3 564.5,229.3 564.5,254.0 583.5,254.0 583.5,204.5 602.6,204.5 602.6,211.9 621.6,211.9 621.6,205.4 640.6,205.4 640.6,253.5 659.7,253.5 659.7,220.9 678.7,220.9 678.7,263.3 697.8,263.3 697.8,239.7 716.8,239.7 716.8,267.2 735.8,267.2 735.8,221.4 754.9,221.4 754.9,262.1 773.9,262.1 773.9,239.7 793.0,239.7 793.0,261.5 812.0,261.5 812.0,248.1 831.0,248.1" stroke="#000" stroke-width="0.90" stroke-opacity="1.00" fill="none" clip-path="url(#axis_clip)"/>
  </symbol>
  <symbol id="line_8" viewBox="0 0 1200.000 674.916">
<polyline class="pl" points="145.6,199.4 164.6,199.4 164.6,162.6 183.7,162.6 183.7,190.5 202.7,190.5 202.7,187.1 221.8,187.1 221.8,203.8 240.8,203.8 240.8,167.1 259.8,167.1 259.8,205.6 278.9,205.6 278.9,161.7 297.9,161.7 297.9,268.4 317.0,268.4 317.0,174.2 336.0,174.2 336.0,221.1 355.0,221.1 355.0,154.2 374.1,154.2 374.1,240.9 393.1,240.9 393.1,114.2 412.2,114.2 412.2,186.1 431.2,186.1 431.2,156.4 450.2,156.4 450.2,210.9 469.3,210.9 469.3,186.7 488.3,186.7 488.3,259.6 507.4,259.6 507.4,232.2 526.4,232.2 526.4,271.8 545.4,271.8 545.4,231.8 564.5,231.8 564.5,256.3 583.5,256.3 583.5,207.2 602.6,207.2 602.6,213.6 621.6,213.6 621.6,208.5 640.6,208.5 640.6,255.9 659.7,255.9 659.7,222.7 678.7,222.7 678.7,264.8 697.8,264.8 697.8,241.1 716.8,241.1 716.8,269.2 735.8,269.2 735.8,224.3 754.9,224.3 754.9,265.2 773.9,265.2 773.9,242.8 793.0,242.8 793.0,264.3 812.0,264.3 812.0,250.6 831.0,250.6" stroke="#000" stroke-width="0.90" stroke-opacity="1.00" fill="none" clip-path="url(#axis_clip)"/>
  </symbol>
  <symbol id="line_9" viewBox="0 0 1200.000 674.916">
<polyline class="pl" points="145.6,211.5 164.6,211.5 164.6,181.3 183.7,181.3 183.7,209.3 202.7,209.3 202.7,208.3 221.8,208.3 221.8,220.7 240.8,220.7 240.8,184.9 259.8,184.9 259.8,221.7 278.9,221.7 278.9,188.3 297.9,188.3 297.9,285.9 317.0,285.9 317.0,196.7 336.0,196.7 336.0,238.7 355.0,238.7 355.0,178.8 374.1,178.8 374.1,259.4 393.1,259.4 393.1,150.3 412.2,150.3 412.2,218.6 431.2,218.6 431.2,205.6 450.2,205.6 450.2,251.7 469.3,251.7 469.3,230.0 488.3,230.0 488.3,307.4 507.4,307.4 507.4,286.7 526.4,286.7 526.4,319.3 545.4,319.3 545.4,294.8 564.5,294.8 564.5,306.6 583.5,306.6 583.5,266.7 602.6,266.7 602.6,280.4 621.6,280.4 621.6,290.1 640.6,290.1 640.6,327.2 659.7,327.2 659.7,318.7 678.7,318.7 678.7,359.1 697.8,359.1 697.8,338.8 716.8,338.8 716.8,366.1 735.8,366.1 735.8,353.4 754.9,353.4 754.9,375.1 773.9,375.1 773.9,372.2 793.0,372.2 793.0,384.6 812.0,384.6 812.0,377.4 831.0,377.4" stroke="#000" stroke-width="0.90" stroke-opacity="1.00" fill="none" clip-path="url(#axis_clip)"/>
  </symbol>
  <symbol id="line_10" viewBox="0 0 1200.000 674.916">
<polyline class="pl" points="145.6,199.4 164.6,199.4 164.6,162.6 183.7,162.6 183.7,190.3 202.7,190.3 202.7,187.1 221.8,187.1 221.8,203.7 240.8,203.7 240.8,166.8 259.8,166.8 259.8,205.4 278.9,205.4 278.9,160.4 297.9,160.4 297.9,268.2 317.0,268.2 317.0,173.1 336.0,173.1 336.0,220.4 355.0,220.4 355.0,152.5 374.1,152.5 374.1,240.0 393.1,240.0 393.1,112.6 412.2,112.6 412.2,182.5 431.2,182.5 431.2,151.4 450.2,151.4 450.2,206.5 469.3,206.5 469.3,181.6 488.3,181.6 488.3,255.6 507.4,255.6 507.4,229.0 526.4,229.0 526.4,268.3 545.4,268.3 545.4,229.3 564.5,229.3 564.5,254.0 583.5,254.0 583.5,204.5 602.6,204.5 602.6,211.9 621.6,211.9 621.6,205.4 640.6,205.4 640.6,253.5 659.7,253.5 659.7,220.9 678.7,220.9 678.7,263.3 697.8,263.3 697.8,239.7 716.8,239.7 716.8,267.2 735.8,267.2 735.8,221.4 754.9,221.4 754.9,262.1 773.9,262.1 773.9,239.7 793.0,239.7 793.0,261.5 812.0,261.5 812.0,248.1 831.0,248.1" stroke="#000" stroke-width="0.90" stroke-opacity="1.00" fill="none" clip-path="url(#axis_clip)"/>
  </symbol>
  <symbol id="line_11" viewBox="0 0 1200.000 674.916">
<polyline class="pl" points="145.6,199.4 164.6,199.4 164.6,162.6 183.7,162.6 183.7,190.5 202.7,190.5 202.7,187.1 221.8,187.1 221.8,203.8 240.8,203.8 240.8,167.1 259.8,167.1 259.8,205.6 278.9,205.6 278.9,161.7 297.9,161.7 297.9,268.4 317.0,268.4 317.0,174.2 336.0,174.2 336.0,221.1 355.0,221.1 355.0,154.2 374.1,154.2 374.1,240.9 393.1,240.9 393.1,114.2 412.2,114.2 412.2,186.1 431.2,186.1 431.2,156.4 450.2,156.4 450.2,210.9 469.3,210.9 469.3,186.7 488.3,186.7 488.3,259.6 507.4,259.6 507.4,232.2 526.4,232.2 526.4,271.8 545.4,271.8 545.4,231.8 564.5,231.8 564.5,256.3 583.5,256.3 583.5,207.2 602.6,207.2 602.6,213.6 621.6,213.6 621.6,208.5 640.6,208.5 640.6,255.9 659.7,255.9 659.7,222.7 678.7,222.7 678.7,264.8 697.8,264.8 697.8,241.1 716.8,241.1 716.8,269.2 735.8,269.2 735.8,224.3 754.9,224.3 754.9,265.2 773.9,265.2 773.9,242.8 793.0,242.8 793.0,264.3 812.0,264.3 812.0,250.6 831.0,250.6" stroke="#000" stroke-width="0.90" stroke-opacity="1.00" fill="none" clip-path="url(#axis_clip)"/>
  </symbol>
  <symbol id="line_12" viewBox="0 0 1200.000 674.916">
<polyline class="pl" points="145.6,211.5 164.6,211.5 164.6,181.3 183.7,181.3 183.7,209.3 202.7,209.3 202.7,208.3 221.8,208.3 221.8,220.7 240.8,220.7 240.8,184.9 259.8,184.9 259.8,221.7 278.9,221.7 278.9,188.3 297.9,188.3 297.9,285.9 317.0,285.9 317.0,196.7 336.0,196.7 336.0,238.7 355.0,238.7 355.0,178.8 374.1,178.8 374.1,259.4 393.1,259.4 393.1,150.3 412.2,150.3 412.2,218.6 431.2,218.6 431.2,205.6 450.2,205.6 450.2,251.7 469.3,251.7 469.3,230.0 488.3,230.0 488.3,307.4 507.4,307.4 507.4,286.7 526.4,286.7 526.4,319.3 545.4,319.3 545.4,294.8 564.5,294.8 564.5,306.6 583.5,306.6 583.5,266.7 602.6,266.7 602.6,280.4 621.6,280.4 621.6,290.1 640.6,290.1 640.6,327.2 659.7,327.2 659.7,318.7 678.7,318.7 678.7,359.1 697.8,359.1 697.8,338.8 716.8,338.8 716.8,366.1 735.8,366.1 735.8,353.4 754.9,353.4 754.9,375.1 773.9,375.1 773.9,372.2 793.0,372.2 793.0,384.6 812.0,384.6 812.0,377.4 831.0,377.4" stroke="#000" stroke-width="0.90" stroke-opacity="1.00" fill="none" clip-path="url(#axis_clip)"/>
  </symbol>
  <symbol id="line_13" viewBox="0 0 1200.000 674.916">
<polyline class="pl" points="145.6,199.4 164.6,199.4 164.6,162.6 183.7,162.6 183.7,190.5 202.7,190.5 202.7,187.1 221.8,187.1 221.8,203.8 240.8,203.8 240.8,167.1 259.8,167.1 259.8,205.6 278.9,205.6 278.9,161.7 297.9,161.7 297.9,268.4 317.0,268.4 317.0,174.2 336.0,174.2 336.0,221.1 355.0,221.1 355.0,154.2 374.1,154.2 374.1,240.9 393.1,240.9 393.1,114.2 412.2,114.2 412.2,186.1 431.2,186.1 431.2,156.4 450.2,156.4 450.2,210.9 469.3,210.9 469.3,186.7 488.3,186.7 488.3,259.6 507.4,259.6 507.4,232.2 526.4,232.2 526.4,271.8 545.4,271.8 545.4,231.8 564.5,231.8 564.5,256.3 583.5,256.3 583.5,207.2 602.6,207.2 602.6,213.6 621.6,213.6 621.6,208.5 640.6,208.5 640.6,255.9 659.7,255.9 659.7,222.7 678.7,222.7 678.7,264.8 697.8,264.8 697.8,241.1 716.8,241.1 716.8,269.2 735.8,269.2 735.8,224.3 754.9,224.3 754.9,265.2 773.9,265.2 773.9,242.8 793.0,242.8 793.0,264.3 812.0,264.3 812.0,250.6 831.0,250.6" stroke="#000" stroke-width="0.90" stroke-opacity="1.00" fill="none" clip-path="url(#axis_clip)"/>
  </symbol>
  <symbol id="line_14" viewBox="0 0 1200.000 674.916">
<polyline class="pl" points="145.6,211.5 164.6,211.5 164.6,181.3 183.7,181.3 183.7,209.3 202.7,209.3 202.7,208.3 221.8,208.3 221.8,220.7 240.8,220.7 240.8,184.9 259.8,184.9 259.8,221.7 278.9,221.7 278.9,188.3 297.9,188.3 297.9,285.9 317.0,285.9 317.0,196.7 336.0,196.7 336.0,238.7 355.0,238.7 355.0,178.8 374.1,178.8 374.1,259.4 393.1,259.4 393.1,150.3 412.2,150.3 412.2,218.6 431.2,218.6 431.2,205.6 450.2,205.6 450.2,251.7 469.3,251.7 469.3,230.0 488.3,230.0 488.3,307.4 507.4,307.4 507.4,286.7 526.4,286.7 526.4,319.3 545.4,319.3 545.4,294.8 564.5,294.8 564.5,306.6 583.5,306.6 583.5,266.7 602.6,266.7 602.6,280.4 621.6,280.4 621.6,290.1 640.6,290.1 640.6,327.2 659.7,327.2 659.7,318.7 678.7,318.7 678.7,359.1 697.8,359.1 697.8,338.8 716.8,338.8 716.8,366.1 735.8,366.1 735.8,353.4 754.9,353.4 754.9,375.1 773.9,375.1 773.9,372.2 793.0,372.2 793.0,384.6 812.0,384.6 812.0,377.4 831.0,377.4" stroke="#000" stroke-width="0.90" stroke-opacity="1.00" fill="none" clip-path="url(#axis_clip)"/>
  </symbol>
  <symbol id="line_15" viewBox="0 0 1200.000 674.916">
<polyline class="pl" points="145.6,211.5 164.6,211.5 164.6,181.3 183.7,181.3 183.7,209.3 202.7,209.3 202.7,208.3 221.8,208.3 221.8,220.7 240.8,220.7 240.8,184.9 259.8,184.9 259.8,221.7 278.9,221.7 278.9,188.3 297.9,188.3 297.9,285.9 317.0,285.9 317.0,196.7 336.0,196.7 336.0,238.7 355.0,238.7 355.0,178.8 374.1,178.8 374.1,259.4 393.1,259.4 393.1,150.3 412.2,150.3 412.2,218.6 431.2,218.6 431.2,205.6 450.2,205.6 450.2,251.7 469.3,251.7 469.3,230.0 488.3,230.0 488.3,307.4 507.4,307.4 507.4,286.7 526.4,286.7 526.4,319.3 545.4,319.3 545.4,294.8 564.5,294.8 564.5,306.6 583.5,306.6 583.5,266.7 602.6,266.7 602.6,280.4 621.6,280.4 621.6,290.1 640.6,290.1 640.6,327.2 659.7,327.2 659.7,318.7 678.7,318.7 678.7,359.1 697.8,359.1 697.8,338.8 716.8,338.8 716.8,366.1 735.8,366.1 735.8,353.4 754.9,353.4 754.9,375.1 773.9,375.1 773.9,372.2 793.0,372.2 793.0,384.6 812.0,384.6 812.0,377.4 831.0,377.4" stroke="#000" stroke-width="0.90" stroke-opacity="1.00" fill="none" clip-path="url(#axis_clip)"/>
  </symbol>
</defs>
<g id="main">
<text class="ticklabel ytl" transform="translate(128.8,568.3)">0</text>
<text class="ticklabel ytl" transform="translate(128.8,483.9)">100 000</text>
<text class="ticklabel ytl" transform="translate(128.8,399.6)">200 000</text>
<text class="ticklabel ytl" transform="translate(128.8,315.2)">300 000</text>
<text class="ticklabel ytl" transform="translate(128.8,230.8)">400 000</text>
<text class="ticklabel ytl" transform="translate(128.8,146.5)">500 000</text>
<text class="ticklabel ytl" transform="translate(128.8,62.1)">600 000</text>
<g id="areas">
  <g class="pg_5">
    <polygon class="pl" points="145.6,197.9 164.6,197.9 164.6,160.3 183.7,160.3 183.7,186.6 202.7,186.6 202.7,183.0 221.8,183.0 221.8,200.3 240.8,200.3 240.8,160.1 259.8,160.1 259.8,198.6 278.9,198.6 278.9,152.3 297.9,152.3 297.9,263.0 317.0,263.0 317.0,162.4 336.0,162.4 336.0,213.0 355.0,213.0 355.0,145.2 374.1,145.2 374.1,232.9 393.1,232.9 393.1,103.0 412.2,103.0 412.2,169.9 431.2,169.9 431.2,142.3 450.2,142.3 450.2,195.4 469.3,195.4 469.3,156.4 488.3,156.4 488.3,229.4 507.4,229.4 507.4,203.4 526.4,203.4 526.4,245.6 545.4,245.6 545.4,193.4 564.5,193.4 564.5,209.9 583.5,209.9 583.5,168.5 602.6,168.5 602.6,180.1 621.6,180.1 621.6,168.5 640.6,168.5 640.6,222.3 659.7,222.3 659.7,184.7 678.7,184.7 678.7,241.4 697.8,241.4 697.8,205.6 716.8,205.6 716.8,230.1 735.8,230.1 735.8,192.3 754.9,192.3 754.9,232.6 773.9,232.6 773.9,190.4 793.0,190.4 793.0,193.0 812.0,193.0 812.0,207.3 831.0,207.3 831.0,208.7 812.0,208.7 812.0,196.1 793.0,196.1 793.0,190.8 773.9,190.8 773.9,233.2 754.9,233.2 754.9,192.6 735.8,192.6 735.8,231.0 716.8,231.0 716.8,206.5 697.8,206.5 697.8,241.9 678.7,241.9 678.7,185.1 659.7,185.1 659.7,223.1 640.6,223.1 640.6,169.4 621.6,169.4 621.6,181.6 602.6,181.6 602.6,170.7 583.5,170.7 583.5,212.1 564.5,212.1 564.5,196.3 545.4,196.3 545.4,246.8 526.4,246.8 526.4,205.2 507.4,205.2 507.4,231.1 488.3,231.1 488.3,158.8 469.3,158.8 469.3,196.8 450.2,196.8 450.2,143.4 431.2,143.4 431.2,171.5 412.2,171.5 412.2,104.2 393.1,104.2 393.1,233.9 374.1,233.9 374.1,146.5 355.0,146.5 355.0,213.9 336.0,213.9 336.0,163.5 317.0,163.5 317.0,263.3 297.9,263.3 297.9,152.6 278.9,152.6 278.9,198.7 259.8,198.7 259.8,160.2 240.8,160.2 240.8,200.3 221.8,200.3 221.8,183.1 202.7,183.1 202.7,186.7 183.7,186.7 183.7,160.3 164.6,160.3 164.6,197.9 145.6,197.9" stroke="none" stroke-width="0.9000"  fill="#85578F" clip-path="url(#axis_clip)"/>
    <text class="pl" transform="translate(937.2,204.1)" dy="7.6" font-size="25.20" fill="#85578F" stroke="none">Hydrogen</text>
<polyline class="pl" points="910.8,208.0 911.9,208.0 913.0,208.0 914.0,207.9 914.9,207.8 915.8,207.7 916.6,207.6 917.4,207.4 918.1,207.3 918.8,207.1 919.5,206.9 920.1,206.8 920.7,206.6 921.3,206.4 921.9,206.2 922.5,206.0 923.1,205.8 923.7,205.6 924.3,205.4 924.9,205.2 925.6,205.0 926.3,204.8 927.0,204.7 927.8,204.5 928.6,204.4 929.5,204.3 930.4,204.2 931.4,204.2 932.5,204.1 933.6,204.1" stroke="#85578F" stroke-width="0.90" stroke-opacity="1.00" fill="none" />
  </g>
  <g class="pg_4">
    <polygon class="pl" points="145.6,197.9 164.6,197.9 164.6,160.3 183.7,160.3 183.7,186.7 202.7,186.7 202.7,183.1 221.8,183.1 221.8,200.3 240.8,200.3 240.8,160.2 259.8,160.2 259.8,198.7 278.9,198.7 278.9,152.6 297.9,152.6 297.9,263.3 317.0,263.3 317.0,163.5 336.0,163.5 336.0,213.9 355.0,213.9 355.0,146.5 374.1,146.5 374.1,233.9 393.1,233.9 393.1,104.2 412.2,104.2 412.2,171.5 431.2,171.5 431.2,143.4 450.2,143.4 450.2,196.8 469.3,196.8 469.3,158.8 488.3,158.8 488.3,231.1 507.4,231.1 507.4,205.2 526.4,205.2 526.4,246.8 545.4,246.8 545.4,196.3 564.5,196.3 564.5,212.1 583.5,212.1 583.5,170.7 602.6,170.7 602.6,181.6 621.6,181.6 621.6,169.4 640.6,169.4 640.6,223.1 659.7,223.1 659.7,185.1 678.7,185.1 678.7,241.9 697.8,241.9 697.8,206.5 716.8,206.5 716.8,231.0 735.8,231.0 735.8,192.6 754.9,192.6 754.9,233.2 773.9,233.2 773.9,190.8 793.0,190.8 793.0,196.1 812.0,196.1 812.0,208.7 831.0,208.7 831.0,248.1 812.0,248.1 812.0,261.5 793.0,261.5 793.0,239.7 773.9,239.7 773.9,262.1 754.9,262.1 754.9,221.4 735.8,221.4 735.8,267.2 716.8,267.2 716.8,239.7 697.8,239.7 697.8,263.3 678.7,263.3 678.7,220.9 659.7,220.9 659.7,253.5 640.6,253.5 640.6,205.4 621.6,205.4 621.6,211.9 602.6,211.9 602.6,204.5 583.5,204.5 583.5,254.0 564.5,254.0 564.5,229.3 545.4,229.3 545.4,268.3 526.4,268.3 526.4,229.0 507.4,229.0 507.4,255.6 488.3,255.6 488.3,181.6 469.3,181.6 469.3,206.5 450.2,206.5 450.2,151.4 431.2,151.4 431.2,182.5 412.2,182.5 412.2,112.6 393.1,112.6 393.1,240.0 374.1,240.0 374.1,152.5 355.0,152.5 355.0,220.4 336.0,220.4 336.0,173.1 317.0,173.1 317.0,268.2 297.9,268.2 297.9,160.4 278.9,160.4 278.9,205.4 259.8,205.4 259.8,166.8 240.8,166.8 240.8,203.7 221.8,203.7 221.8,187.1 202.7,187.1 202.7,190.3 183.7,190.3 183.7,162.6 164.6,162.6 164.6,199.4 145.6,199.4" stroke="none" stroke-width="0.9000"  fill="#6298C6" clip-path="url(#axis_clip)"/>
    <text class="pl" transform="translate(937.2,228.6)" dy="7.6" font-size="25.20" fill="#6298C6" stroke="none">Battery electric</text>
<polyline class="pl" points="910.8,228.4 911.9,228.4 913.0,228.4 914.0,228.4 914.9,228.4 915.8,228.4 916.6,228.4 917.4,228.4 918.1,228.5 918.8,228.5 919.5,228.5 920.1,228.5 920.7,228.5 921.3,228.5 921.9,228.5 922.5,228.5 923.1,228.5 923.7,228.5 924.3,228.5 924.9,228.6 925.6,228.6 926.3,228.6 927.0,228.6 927.8,228.6 928.6,228.6 929.5,228.6 930.4,228.6 931.4,228.6 932.5,228.6 933.6,228.6" stroke="#6298C6" stroke-width="0.90" stroke-opacity="1.00" fill="none" />
  </g>
  <g class="pg_3">
    <polygon class="pl" points="145.6,199.4 164.6,199.4 164.6,162.6 183.7,162.6 183.7,190.3 202.7,190.3 202.7,187.1 221.8,187.1 221.8,203.7 240.8,203.7 240.8,166.8 259.8,166.8 259.8,205.4 278.9,205.4 278.9,160.4 297.9,160.4 297.9,268.2 317.0,268.2 317.0,173.1 336.0,173.1 336.0,220.4 355.0,220.4 355.0,152.5 374.1,152.5 374.1,240.0 393.1,240.0 393.1,112.6 412.2,112.6 412.2,182.5 431.2,182.5 431.2,151.4 450.2,151.4 450.2,206.5 469.3,206.5 469.3,181.6 488.3,181.6 488.3,255.6 507.4,255.6 507.4,229.0 526.4,229.0 526.4,268.3 545.4,268.3 545.4,229.3 564.5,229.3 564.5,254.0 583.5,254.0 583.5,204.5 602.6,204.5 602.6,211.9 621.6,211.9 621.6,205.4 640.6,205.4 640.6,253.5 659.7,253.5 659.7,220.9 678.7,220.9 678.7,263.3 697.8,263.3 697.8,239.7 716.8,239.7 716.8,267.2 735.8,267.2 735.8,221.4 754.9,221.4 754.9,262.1 773.9,262.1 773.9,239.7 793.0,239.7 793.0,261.5 812.0,261.5 812.0,248.1 831.0,248.1 831.0,250.6 812.0,250.6 812.0,264.3 793.0,264.3 793.0,242.8 773.9,242.8 773.9,265.2 754.9,265.2 754.9,224.3 735.8,224.3 735.8,269.2 716.8,269.2 716.8,241.1 697.8,241.1 697.8,264.8 678.7,264.8 678.7,222.7 659.7,222.7 659.7,255.9 640.6,255.9 640.6,208.5 621.6,208.5 621.6,213.6 602.6,213.6 602.6,207.2 583.5,207.2 583.5,256.3 564.5,256.3 564.5,231.8 545.4,231.8 545.4,271.8 526.4,271.8 526.4,232.2 507.4,232.2 507.4,259.6 488.3,259.6 488.3,186.7 469.3,186.7 469.3,210.9 450.2,210.9 450.2,156.4 431.2,156.4 431.2,186.1 412.2,186.1 412.2,114.2 393.1,114.2 393.1,240.9 374.1,240.9 374.1,154.2 355.0,154.2 355.0,221.1 336.0,221.1 336.0,174.2 317.0,174.2 317.0,268.4 297.9,268.4 297.9,161.7 278.9,161.7 278.9,205.6 259.8,205.6 259.8,167.1 240.8,167.1 240.8,203.8 221.8,203.8 221.8,187.1 202.7,187.1 202.7,190.5 183.7,190.5 183.7,162.6 164.6,162.6 164.6,199.4 145.6,199.4" stroke="none" stroke-width="0.9000"  fill="#77AC30" clip-path="url(#axis_clip)"/>
    <text class="pl" transform="translate(937.2,253.1)" dy="7.6" font-size="25.20" fill="#77AC30" stroke="none">Plugin hybrid</text>
<polyline class="pl" points="910.8,249.4 911.9,249.4 913.0,249.4 914.0,249.5 914.9,249.6 915.8,249.7 916.6,249.8 917.4,249.9 918.1,250.1 918.8,250.2 919.5,250.4 920.1,250.6 920.7,250.8 921.3,250.9 921.9,251.1 922.5,251.3 923.1,251.5 923.7,251.7 924.3,251.9 924.9,252.1 925.6,252.2 926.3,252.4 927.0,252.6 927.8,252.7 928.6,252.8 929.5,252.9 930.4,253.0 931.4,253.0 932.5,253.1 933.6,253.1" stroke="#77AC30" stroke-width="0.90" stroke-opacity="1.00" fill="none" />
  </g>
  <g class="pg_2">
    <polygon class="pl" points="145.6,199.4 164.6,199.4 164.6,162.6 183.7,162.6 183.7,190.5 202.7,190.5 202.7,187.1 221.8,187.1 221.8,203.8 240.8,203.8 240.8,167.1 259.8,167.1 259.8,205.6 278.9,205.6 278.9,161.7 297.9,161.7 297.9,268.4 317.0,268.4 317.0,174.2 336.0,174.2 336.0,221.1 355.0,221.1 355.0,154.2 374.1,154.2 374.1,240.9 393.1,240.9 393.1,114.2 412.2,114.2 412.2,186.1 431.2,186.1 431.2,156.4 450.2,156.4 450.2,210.9 469.3,210.9 469.3,186.7 488.3,186.7 488.3,259.6 507.4,259.6 507.4,232.2 526.4,232.2 526.4,271.8 545.4,271.8 545.4,231.8 564.5,231.8 564.5,256.3 583.5,256.3 583.5,207.2 602.6,207.2 602.6,213.6 621.6,213.6 621.6,208.5 640.6,208.5 640.6,255.9 659.7,255.9 659.7,222.7 678.7,222.7 678.7,264.8 697.8,264.8 697.8,241.1 716.8,241.1 716.8,269.2 735.8,269.2 735.8,224.3 754.9,224.3 754.9,265.2 773.9,265.2 773.9,242.8 793.0,242.8 793.0,264.3 812.0,264.3 812.0,250.6 831.0,250.6 831.0,377.4 812.0,377.4 812.0,384.6 793.0,384.6 793.0,372.2 773.9,372.2 773.9,375.1 754.9,375.1 754.9,353.4 735.8,353.4 735.8,366.1 716.8,366.1 716.8,338.8 697.8,338.8 697.8,359.1 678.7,359.1 678.7,318.7 659.7,318.7 659.7,327.2 640.6,327.2 640.6,290.1 621.6,290.1 621.6,280.4 602.6,280.4 602.6,266.7 583.5,266.7 583.5,306.6 564.5,306.6 564.5,294.8 545.4,294.8 545.4,319.3 526.4,319.3 526.4,286.7 507.4,286.7 507.4,307.4 488.3,307.4 488.3,230.0 469.3,230.0 469.3,251.7 450.2,251.7 450.2,205.6 431.2,205.6 431.2,218.6 412.2,218.6 412.2,150.3 393.1,150.3 393.1,259.4 374.1,259.4 374.1,178.8 355.0,178.8 355.0,238.7 336.0,238.7 336.0,196.7 317.0,196.7 317.0,285.9 297.9,285.9 297.9,188.3 278.9,188.3 278.9,221.7 259.8,221.7 259.8,184.9 240.8,184.9 240.8,220.7 221.8,220.7 221.8,208.3 202.7,208.3 202.7,209.3 183.7,209.3 183.7,181.3 164.6,181.3 164.6,211.5 145.6,211.5" stroke="none" stroke-width="0.9000"  fill="#919452" clip-path="url(#axis_clip)"/>
    <text class="pl" transform="translate(937.2,314.0)" dy="7.6" font-size="25.20" fill="#919452" stroke="none">Non-plugin hybrid</text>
  </g>
  <g class="pg_1">
    <polygon class="pl" points="145.6,211.5 164.6,211.5 164.6,181.3 183.7,181.3 183.7,209.3 202.7,209.3 202.7,208.3 221.8,208.3 221.8,220.7 240.8,220.7 240.8,184.9 259.8,184.9 259.8,221.7 278.9,221.7 278.9,188.3 297.9,188.3 297.9,285.9 317.0,285.9 317.0,196.7 336.0,196.7 336.0,238.7 355.0,238.7 355.0,178.8 374.1,178.8 374.1,259.4 393.1,259.4 393.1,150.3 412.2,150.3 412.2,218.6 431.2,218.6 431.2,205.6 450.2,205.6 450.2,251.7 469.3,251.7 469.3,230.0 488.3,230.0 488.3,307.4 507.4,307.4 507.4,286.7 526.4,286.7 526.4,319.3 545.4,319.3 545.4,294.8 564.5,294.8 564.5,306.6 583.5,306.6 583.5,266.7 602.6,266.7 602.6,280.4 621.6,280.4 621.6,290.1 640.6,290.1 640.6,327.2 659.7,327.2 659.7,318.7 678.7,318.7 678.7,359.1 697.8,359.1 697.8,338.8 716.8,338.8 716.8,366.1 735.8,366.1 735.8,353.4 754.9,353.4 754.9,375.1 773.9,375.1 773.9,372.2 793.0,372.2 793.0,384.6 812.0,384.6 812.0,377.4 831.0,377.4 831.0,560.2 145.6,560.2" stroke="none" stroke-width="0.9000"  fill="#7B553E" clip-path="url(#axis_clip)"/>
    <text class="pl" transform="translate(937.2,468.8)" dy="7.6" font-size="25.20" fill="#7B553E" stroke="none">ICE</text>
  </g>
</g>
<g id="lines">
  <g class="pl_1">
    <use xlink:href="#line_1" class="thick" stroke="#000" stroke-width="3" opacity="0"/>
    <use xlink:href="#line_1" class="pl pll" stroke="#000" stroke-width="0.90"/>
  </g>
  <g class="pl_2">
    <use xlink:href="#line_2" class="thick" stroke="#000" stroke-width="3" opacity="0"/>
    <use xlink:href="#line_2" class="pl pll" stroke="#000" stroke-width="0.90"/>
  </g>
  <g class="pl_3">
    <use xlink:href="#line_3" class="thick" stroke="#000" stroke-width="3" opacity="0"/>
    <use xlink:href="#line_3" class="pl pll" stroke="#000" stroke-width="0.90"/>
  </g>
  <g class="pl_4">
    <use xlink:href="#line_4" class="thick" stroke="#000" stroke-width="3" opacity="0"/>
    <use xlink:href="#line_4" class="pl pll" stroke="#000" stroke-width="0.90"/>
  </g>
  <g class="pl_5">
    <use xlink:href="#line_5" class="thick" stroke="#000" stroke-width="3" opacity="0"/>
    <use xlink:href="#line_5" class="pl pll" stroke="#000" stroke-width="0.90"/>
  </g>
  <g class="pl_6">
    <use xlink:href="#line_6" class="thick" stroke="#000" stroke-width="3" opacity="0"/>
    <use xlink:href="#line_6" class="pl pll" stroke="#000" stroke-width="0.90"/>
  </g>
  <g class="pl_7">
    <use xlink:href="#line_7" class="thick" stroke="#000" stroke-width="3" opacity="0"/>
    <use xlink:href="#line_7" class="pl pll" stroke="#000" stroke-width="0.90"/>
  </g>
  <g class="pl_8">
    <use xlink:href="#line_8" class="thick" stroke="#000" stroke-width="3" opacity="0"/>
    <use xlink:href="#line_8" class="pl pll" stroke="#000" stroke-width="0.90"/>
  </g>
  <g class="pl_9">
    <use xlink:href="#line_9" class="thick" stroke="#000" stroke-width="3" opacity="0"/>
    <use xlink:href="#line_9" class="pl pll" stroke="#000" stroke-width="0.90"/>
  </g>
  <g class="pl_10">
    <use xlink:href="#line_10" class="thick" stroke="#000" stroke-width="3" opacity="0"/>
    <use xlink:href="#line_10" class="pl pll" stroke="#000" stroke-width="0.90"/>
  </g>
  <g class="pl_11">
    <use xlink:href="#line_11" class="thick" stroke="#000" stroke-width="3" opacity="0"/>
    <use xlink:href="#line_11" class="pl pll" stroke="#000" stroke-width="0.90"/>
  </g>
  <g class="pl_12">
    <use xlink:href="#line_12" class="thick" stroke="#000" stroke-width="3" opacity="0"/>
    <use xlink:href="#line_12" class="pl pll" stroke="#000" stroke-width="0.90"/>
  </g>
  <g class="pl_13">
    <use xlink:href="#line_13" class="thick" stroke="#000" stroke-width="3" opacity="0"/>
    <use xlink:href="#line_13" class="pl pll" stroke="#000" stroke-width="0.90"/>
  </g>
  <g class="pl_14">
    <use xlink:href="#line_14" class="thick" stroke="#000" stroke-width="3" opacity="0"/>
    <use xlink:href="#line_14" class="pl pll" stroke="#000" stroke-width="0.90"/>
  </g>
  <g class="pl_15">
    <use xlink:href="#line_15" class="thick" stroke="#000" stroke-width="3" opacity="0"/>
    <use xlink:href="#line_15" class="pl pll" stroke="#000" stroke-width="0.90"/>
  </g>
</g>
    <text class="pl" transform="translate(183.7,573.0) rotate(-90)" dy="8.1" font-size="27.00" fill="#808080" stroke="none" text-anchor="end">2017</text>
    <text class="pl" transform="translate(259.8,573.0) rotate(-90)" dy="8.1" font-size="27.00" fill="#808080" stroke="none" text-anchor="end">2018</text>
    <text class="pl" transform="translate(336.0,573.0) rotate(-90)" dy="8.1" font-size="27.00" fill="#808080" stroke="none" text-anchor="end">2019</text>
    <text class="pl" transform="translate(412.2,573.0) rotate(-90)" dy="8.1" font-size="27.00" fill="#808080" stroke="none" text-anchor="end">2020</text>
    <text class="pl" transform="translate(488.3,573.0) rotate(-90)" dy="8.1" font-size="27.00" fill="#808080" stroke="none" text-anchor="end">2021</text>
    <text class="pl" transform="translate(564.5,573.0) rotate(-90)" dy="8.1" font-size="27.00" fill="#808080" stroke="none" text-anchor="end">2022</text>
    <text class="pl" transform="translate(640.6,573.0) rotate(-90)" dy="8.1" font-size="27.00" fill="#808080" stroke="none" text-anchor="end">2023</text>
    <text class="pl" transform="translate(716.8,573.0) rotate(-90)" dy="8.1" font-size="27.00" fill="#808080" stroke="none" text-anchor="end">2024</text>
    <text class="pl" transform="translate(793.0,573.0) rotate(-90)" dy="8.1" font-size="27.00" fill="#808080" stroke="none" text-anchor="end">2025</text>
    <text class="pl" transform="translate(869.1,573.0) rotate(-90)" dy="8.1" font-size="27.00" fill="#808080" stroke="none" text-anchor="end">2026</text>
    <text class="pl" transform="translate(145.6,47.2)" dy="0.0" font-size="27.00" fill="#808080" stroke="none">Quarterly sales of new passenger cars: South Korea</text>
<text transform="translate(157.6,666.1)" font-size="19.80" font-family="Helvetica" fill="#BFBFBF" stroke="none" xml:space="preserve"><a href="https://bsky.app/profile/robbieandrew.bsky.social" style="fill:#BFBFBF" target="_blank">@robbieandrew.bsky.social</a>   &#9679;   Data: MOTIE   &#9679;   Through February 2026</text>
<text class="twitlink" transform="translate(157.6,666.1)" opacity="0" font-size="19.80" fill="#BFBFBF" stroke="none" xml:space="preserve"><a href="https://bsky.app/profile/robbieandrew.bsky.social" style="fill:#BFBFBF" target="_blank">@robbieandrew.bsky.social</a></text>
  <g class="dl_el" transform="translate(154.6,578.4)">
    <g class="dl_el_balloon">
      <foreignObject x="0" y="0" width="120" height="500">
      <div xmlns="http://www.w3.org/1999/xhtml" class="dl_fe" style="height:60px">
      <p class="dl_fe_p">Find me on BlueSky</p>
      </div>
	    </foreignObject>
      <path stroke="#000" fill="#FDFFDF" d="M0,60H60l5,5l5,-5H120"/>
    </g>
  </g>
<use xlink:href="#line_y" transform="translate(145.6,0)"/>
<use xlink:href="#line_y" transform="translate(221.8,0)"/>
<use xlink:href="#line_y" transform="translate(297.9,0)"/>
<use xlink:href="#line_y" transform="translate(374.1,0)"/>
<use xlink:href="#line_y" transform="translate(450.2,0)"/>
<use xlink:href="#line_y" transform="translate(526.4,0)"/>
<use xlink:href="#line_y" transform="translate(602.6,0)"/>
<use xlink:href="#line_y" transform="translate(678.7,0)"/>
<use xlink:href="#line_y" transform="translate(754.9,0)"/>
<use xlink:href="#line_y" transform="translate(831.0,0)"/>
<use xlink:href="#line_y" transform="translate(907.2,0)"/>
<use xlink:href="#line_x" transform="translate(0,560.2)"/>
<use xlink:href="#line_x" transform="translate(0,475.8)"/>
<use xlink:href="#line_x" transform="translate(0,391.5)"/>
<use xlink:href="#line_x" transform="translate(0,307.1)"/>
<use xlink:href="#line_x" transform="translate(0,222.7)"/>
<use xlink:href="#line_x" transform="translate(0,138.4)"/>
<use xlink:href="#line_x" transform="translate(0,54.0)"/>
<use xlink:href="#tick_x" transform="translate(145.6,0)"/>
<use xlink:href="#tick_x" transform="translate(221.8,0)"/>
<use xlink:href="#tick_x" transform="translate(297.9,0)"/>
<use xlink:href="#tick_x" transform="translate(374.1,0)"/>
<use xlink:href="#tick_x" transform="translate(450.2,0)"/>
<use xlink:href="#tick_x" transform="translate(526.4,0)"/>
<use xlink:href="#tick_x" transform="translate(602.6,0)"/>
<use xlink:href="#tick_x" transform="translate(678.7,0)"/>
<use xlink:href="#tick_x" transform="translate(754.9,0)"/>
<use xlink:href="#tick_x" transform="translate(831.0,0)"/>
<use xlink:href="#tick_x" transform="translate(907.2,0)"/>
<use xlink:href="#tick_y" transform="translate(0,560.2)"/>
<use xlink:href="#tick_y" transform="translate(0,475.8)"/>
<use xlink:href="#tick_y" transform="translate(0,391.5)"/>
<use xlink:href="#tick_y" transform="translate(0,307.1)"/>
<use xlink:href="#tick_y" transform="translate(0,222.7)"/>
<use xlink:href="#tick_y" transform="translate(0,138.4)"/>
<use xlink:href="#tick_y" transform="translate(0,54.0)"/>
<polyline points="145.6,53.993 145.6,560.180 907.2,560.180" stroke="#808080" stroke-width="0.90" fill="none"/>
<g>
<a href="https://creativecommons.org/licenses/by/4.0/" target="_blank">
  <rect x="123.0" y="651.4" width="34" height="17" fill="#FFF" stroke="none" opacity="0.01"/>
  <g transform="translate(124.0,652.4) scale(0.24)">
  <g><circle fill="#FFF" cx="37.79" cy="28.5" r="28.84"/>
     <circle fill="none" cx="37.79" cy="28.5" r="28.84" stroke="#BFBFBF" stroke-width="5.5"/>
     <path fill="#BFBFBF" d="M37.16,23.19 l-4.29,2.23c-0.458-0.951-1.02-1.62-1.69-2c-0.667-0.38-1.29-0.571-1.86-0.571c-2.86,0-4.29,1.89-4.29,5.66 c0,1.71,0.36,3.08,1.09,4.11c0.724,1.03,1.79,1.54,3.2,1.54c1.87,0,3.18-0.915,3.94-2.74l3.94,2 c-0.838,1.56-2,2.79-3.49,3.69c-1.48,0.896-3.12,1.34-4.91,1.34c-2.86,0-5.16-0.875-6.92-2.63 c-1.75-1.75-2.63-4.19-2.63-7.31c0-3.05,0.886-5.47,2.66-7.26c1.77-1.79,4.01-2.69,6.72-2.69 C32.6,18.56,35.44,20.1,37.16,23.19z
              M55.61,23.19l-4.23,2.23c-0.457-0.951-1.02-1.62-1.69-2 c-0.668-0.38-1.31-0.571-1.91-0.571c-2.86,0-4.29,1.89-4.29,5.66c0,1.71,0.363,3.08,1.09,4.11 c0.723,1.03,1.79,1.54,3.2,1.54c1.87,0,3.18-0.915,3.94-2.74l4,2c-0.875,1.56-2.06,2.79-3.54,3.69 c-1.49,0.9-3.11,1.34-4.86,1.34c-2.9,0-5.21-0.875-6.94-2.63c-1.74-1.75-2.6-4.19-2.6-7.31 c0-3.05,0.885-5.47,2.66-7.26c1.77-1.79,4.01-2.69,6.71-2.69C51.12,18.56,53.944,20.1,55.61,23.19z"/>
  </g></g>
  <g transform="translate(140.2,652.4) scale(0.24)">
  <g><circle fill="#FFF" cx="37.79" cy="28.5" r="28.84"/>
     <circle fill="none" cx="37.79" cy="28.5" r="28.84" stroke="#BFBFBF" stroke-width="5.5"/>
     <path fill="#BFBFBF" d="M46.129,20.557v13.085h-3.656v15.542h-9.944V33.643h-3.656V20.557 c0-0.572,0.2-1.057,0.599-1.457c0.401-0.399,0.887-0.6,1.457-0.6h13.144c0.533,0,1.01,0.2,1.428,0.6 C45.918,19.5,46.129,19.986,46.129,20.557z
              M33.042,12.329c0-3.008,1.485-4.514,4.458-4.514s4.457,1.504,4.457,4.514 c0,2.971-1.486,4.457-4.457,4.457S33.042,15.3,33.042,12.329z"/>
  </g></g>
  </a>
</g>
  <g class="dl_el" transform="translate(69.1,548.4)">
    <g class="dl_el_balloon">
      <foreignObject x="0" y="0" width="250" height="500">
      <div xmlns="http://www.w3.org/1999/xhtml" class="dl_fe" style="height:90px">
      <p class="dl_fe_p">CC-BY: Material may be freely re-used as long as you credit the author</p>
      </div>
	    </foreignObject>
      <path stroke="#000" fill="#FDFFDF" d="M0,90H70l5,5l5,-5H250"/>
    </g>
  </g>
</g>
</svg>
