<svg version="1.1" xmlns="http://www.w3.org/2000/svg" xmlns:xlink="http://www.w3.org/1999/xlink" width="100%" height="100%" viewBox="0 0 1200.000 674.916">
<title>Quarterly sales of new heavy-duty vehicles: Finland</title>
<style type="text/css">
  #main {font-family:Helvetica,Arial,sans-serif; font-size:27.00px;
         fill-opacity:1; fill:#000000; stroke:none; stroke-linejoin:round; stroke-linecap:round; stroke-width:1.00;}
  a:hover {text-decoration: underline;}
  .marker {stroke-opacity:0;fill-opacity:0;}
  .marker:hover {stroke-opacity:0.5; fill-opacity:1;}
  .ticklabel {font-size:27.00px;fill:#808080;stroke:none;font-family:Helvetica}
  .ytl {text-anchor:end;}
  .dp1 {pointer-events:none;font-size:70%;text-anchor:middle;fill:#000000;}
  .dp2 {pointer-events:none;font-size:70%;text-anchor:middle;fill:#FFFFFF;}
  .numtip {pointer-events:none;}
  .cc {opacity:0.25;}
.dl_fe {background-color:#FDFFDF;display:flex;margin:auto;align-items:center}
.dl_fe_p {font-size:20px;text-align:center;margin:3px}
.dl_el {display:none;pointer-events:none;}
.cc:hover + .dl_el {display:block;}
text:hover + .dl_el {display:block;}
  #lines .pl {transition: all 0.2s ease;}
  #lines:hover .pl {opacity:0.3;}
  #lines:hover .thick {stroke-width:1;}
  #lines:hover .pl_1:hover .pl {opacity:1;}
  #lines:hover .pl_1:hover .pll {stroke-width:3;}
  #lines:hover .pl_1:hover .pldlm {stroke-width:2;}
  #lines:hover .pl_1:hover .thick {stroke-width:12;}
  #lines:hover .pl_2:hover .pl {opacity:1;}
  #lines:hover .pl_2:hover .pll {stroke-width:3;}
  #lines:hover .pl_2:hover .pldlm {stroke-width:2;}
  #lines:hover .pl_2:hover .thick {stroke-width:12;}
  #lines:hover .pl_3:hover .pl {opacity:1;}
  #lines:hover .pl_3:hover .pll {stroke-width:3;}
  #lines:hover .pl_3:hover .pldlm {stroke-width:2;}
  #lines:hover .pl_3:hover .thick {stroke-width:12;}
  #lines:hover .pl_4:hover .pl {opacity:1;}
  #lines:hover .pl_4:hover .pll {stroke-width:3;}
  #lines:hover .pl_4:hover .pldlm {stroke-width:2;}
  #lines:hover .pl_4:hover .thick {stroke-width:12;}
  #lines:hover .pl_5:hover .pl {opacity:1;}
  #lines:hover .pl_5:hover .pll {stroke-width:3;}
  #lines:hover .pl_5:hover .pldlm {stroke-width:2;}
  #lines:hover .pl_5:hover .thick {stroke-width:12;}
</style>
<defs>
  <clipPath id="axis_clip"><rect x="145.8" y="54.2" width="761.2" height="505.8" /></clipPath>
  <path id="line_y" d="M 0,53.993 v 506.187" stroke="#4D4D4D" stroke-opacity="0.15" stroke-width="1.00"/>
  <path id="line_x" d="M 145.600,0 h 761.600" stroke="#4D4D4D" stroke-opacity="0.15" stroke-width="1.00"/>
  <path id="tick_y" d="M 145.600,0 h -6.000" stroke="#808080" stroke-width="0.90"/>
  <path id="tick_x" d="M 0,560.180 v 6.000" stroke="#808080" stroke-width="0.90"/>
  <symbol id="line_1" viewBox="0 0 1200.000 674.916">
    <polyline class="pl pll" points="152.9,559.5 167.6,558.0 182.2,559.5 196.9,559.8 211.5,560.2 226.2,559.8 240.8,559.8 255.4,559.8 270.1,555.8 284.7,558.4 299.4,558.4 314.0,559.8 328.7,558.0 343.3,555.8 358.0,559.5 372.6,559.8 387.3,558.4 401.9,559.1 416.6,558.4 431.2,554.4 445.8,556.6 460.5,553.7 475.1,553.7 489.8,556.6 504.4,553.3 519.1,557.3 533.7,554.8 548.4,555.8 563.0,550.1 577.7,552.6 592.3,554.0 607.0,554.0 621.6,554.4 636.2,554.4 650.9,552.9 665.5,552.2 680.2,558.0 694.8,550.8 709.5,552.9 724.1,550.8 738.8,549.7 753.4,550.8 768.1,547.2 782.7,539.9 797.4,547.2 812.0,545.4 826.6,545.4 841.3,546.4 855.9,543.9" stroke="#828282" fill="none" clip-path="url(#axis_clip)"/>
  </symbol>
  <symbol id="line_2" viewBox="0 0 1200.000 674.916">
    <polyline class="pl pll" points="152.9,560.2 167.6,560.2 182.2,560.2 196.9,560.2 211.5,560.2 226.2,560.2 240.8,559.8 255.4,560.2 270.1,560.2 284.7,560.2 299.4,560.2 314.0,560.2 328.7,560.2 343.3,560.2 358.0,560.2 372.6,560.2 387.3,560.2 401.9,560.2 416.6,560.2 431.2,560.2 445.8,560.2 460.5,560.2 475.1,560.2 489.8,560.2 504.4,560.2 519.1,559.8 533.7,559.5 548.4,559.5 563.0,560.2 577.7,560.2 592.3,559.8 607.0,559.8 621.6,557.6 636.2,559.1 650.9,559.8 665.5,558.7 680.2,559.5 694.8,555.1 709.5,554.4 724.1,558.0 738.8,556.6 753.4,555.8 768.1,556.9 782.7,548.6 797.4,554.0 812.0,553.7 826.6,552.2 841.3,548.2 855.9,555.1" stroke="#6298C6" fill="none" clip-path="url(#axis_clip)"/>
  </symbol>
  <symbol id="line_3" viewBox="0 0 1200.000 674.916">
    <polyline class="pl pll" points="152.9,560.2 167.6,560.2 182.2,560.2 196.9,560.2 211.5,560.2 226.2,560.2 240.8,560.2 255.4,560.2 270.1,560.2 284.7,560.2 299.4,560.2 314.0,560.2 328.7,560.2 343.3,560.2 358.0,560.2 372.6,560.2 387.3,560.2 401.9,560.2 416.6,559.5 431.2,560.2 445.8,560.2 460.5,559.8 475.1,560.2 489.8,560.2 504.4,560.2 519.1,560.2 533.7,560.2 548.4,560.2 563.0,560.2 577.7,560.2 592.3,560.2 607.0,560.2 621.6,560.2 636.2,560.2 650.9,560.2 665.5,560.2 680.2,559.5 694.8,559.5 709.5,560.2 724.1,559.8 738.8,560.2 753.4,559.8 768.1,560.2 782.7,560.2 797.4,560.2 812.0,560.2 826.6,560.2 841.3,560.2 855.9,560.2" stroke="#77AC30" fill="none" clip-path="url(#axis_clip)"/>
  </symbol>
  <symbol id="line_4" viewBox="0 0 1200.000 674.916">
    <polyline class="pl pll" points="152.9,555.8 167.6,558.4 182.2,556.6 196.9,558.0 211.5,556.6 226.2,558.4 240.8,558.0 255.4,559.1 270.1,554.8 284.7,556.6 299.4,557.6 314.0,556.2 328.7,559.1 343.3,558.4 358.0,559.5 372.6,558.7 387.3,554.4 401.9,557.6 416.6,557.3 431.2,549.7 445.8,549.3 460.5,545.0 475.1,545.0 489.8,547.9 504.4,543.9 519.1,552.9 533.7,549.0 548.4,547.5 563.0,542.5 577.7,546.1 592.3,546.1 607.0,555.1 621.6,550.4 636.2,549.0 650.9,552.9 665.5,549.3 680.2,547.2 694.8,547.9 709.5,554.8 724.1,554.8 738.8,552.6 753.4,547.9 768.1,554.4 782.7,559.5 797.4,556.9 812.0,559.5 826.6,556.9 841.3,559.8 855.9,559.5" stroke="#7B553E" fill="none" clip-path="url(#axis_clip)"/>
  </symbol>
  <symbol id="line_5" viewBox="0 0 1200.000 674.916">
    <polyline class="pl pll" points="152.9,320.5 167.6,321.2 182.2,351.2 196.9,338.2 211.5,350.5 226.2,283.6 240.8,322.6 255.4,315.4 270.1,285.0 284.7,243.1 299.4,271.7 314.0,260.8 328.7,232.6 343.3,220.3 358.0,289.7 372.6,255.0 387.3,213.8 401.9,175.5 416.6,264.1 431.2,210.9 445.8,217.1 460.5,67.0 475.1,321.9 489.8,255.4 504.4,226.1 519.1,287.6 533.7,320.1 548.4,235.5 563.0,240.6 577.7,242.4 592.3,289.4 607.0,271.7 621.6,267.3 636.2,272.0 650.9,304.2 665.5,260.4 680.2,203.7 694.8,196.8 709.5,202.6 724.1,289.7 738.8,223.6 753.4,228.3 768.1,333.1 782.7,313.2 797.4,308.9 812.0,307.1 826.6,329.5 841.3,332.8 855.9,298.4" stroke="#7B6E57" fill="none" clip-path="url(#axis_clip)"/>
  </symbol>
</defs>
<g id="main">
<text class="ticklabel ytl" transform="translate(128.8,568.3)">0</text>
<text class="ticklabel ytl" transform="translate(128.8,496.0)">200</text>
<text class="ticklabel ytl" transform="translate(128.8,423.7)">400</text>
<text class="ticklabel ytl" transform="translate(128.8,351.3)">600</text>
<text class="ticklabel ytl" transform="translate(128.8,279.0)">800</text>
<text class="ticklabel ytl" transform="translate(128.8,206.7)">1 000</text>
<text class="ticklabel ytl" transform="translate(128.8,134.4)">1 200</text>
<text class="ticklabel ytl" transform="translate(128.8,62.1)">1 400</text>
<g id="lines">
  <g class="pl_1">
    <use xlink:href="#line_1" class="thick" stroke="#000" stroke-width="3" opacity="0"/>
    <use xlink:href="#line_1" class="pl pll" stroke="#828282" stroke-width="1.80"/>
    <text class="pl" transform="translate(937.2,485.1)" dy="7.6" font-size="25.20" fill="#828282" stroke="none">Others</text>
<polyline class="pl" points="910.8,543.9 911.9,543.7 913.0,543.1 914.0,542.2 914.9,540.9 915.8,539.3 916.6,537.4 917.4,535.3 918.1,532.9 918.8,530.4 919.5,527.7 920.1,524.9 920.7,522.0 921.3,519.0 921.9,516.0 922.5,513.0 923.1,509.9 923.7,507.0 924.3,504.0 924.9,501.2 925.6,498.5 926.3,496.0 927.0,493.7 927.8,491.6 928.6,489.7 929.5,488.1 930.4,486.8 931.4,485.9 932.5,485.3 933.6,485.1" stroke="#828282" stroke-width="0.90" stroke-opacity="1.00" fill="none" />
    <g class="pl pll" fill="#828282" stroke="none" stroke-width="1.800">
      <circle cx="152.9" cy="559.5" r="2.7" />
      <circle cx="167.6" cy="558.0" r="2.7" />
      <circle cx="182.2" cy="559.5" r="2.7" />
      <circle cx="196.9" cy="559.8" r="2.7" />
      <circle cx="211.5" cy="560.2" r="2.7" />
      <circle cx="226.2" cy="559.8" r="2.7" />
      <circle cx="240.8" cy="559.8" r="2.7" />
      <circle cx="255.4" cy="559.8" r="2.7" />
      <circle cx="270.1" cy="555.8" r="2.7" />
      <circle cx="284.7" cy="558.4" r="2.7" />
      <circle cx="299.4" cy="558.4" r="2.7" />
      <circle cx="314.0" cy="559.8" r="2.7" />
      <circle cx="328.7" cy="558.0" r="2.7" />
      <circle cx="343.3" cy="555.8" r="2.7" />
      <circle cx="358.0" cy="559.5" r="2.7" />
      <circle cx="372.6" cy="559.8" r="2.7" />
      <circle cx="387.3" cy="558.4" r="2.7" />
      <circle cx="401.9" cy="559.1" r="2.7" />
      <circle cx="416.6" cy="558.4" r="2.7" />
      <circle cx="431.2" cy="554.4" r="2.7" />
      <circle cx="445.8" cy="556.6" r="2.7" />
      <circle cx="460.5" cy="553.7" r="2.7" />
      <circle cx="475.1" cy="553.7" r="2.7" />
      <circle cx="489.8" cy="556.6" r="2.7" />
      <circle cx="504.4" cy="553.3" r="2.7" />
      <circle cx="519.1" cy="557.3" r="2.7" />
      <circle cx="533.7" cy="554.8" r="2.7" />
      <circle cx="548.4" cy="555.8" r="2.7" />
      <circle cx="563.0" cy="550.1" r="2.7" />
      <circle cx="577.7" cy="552.6" r="2.7" />
      <circle cx="592.3" cy="554.0" r="2.7" />
      <circle cx="607.0" cy="554.0" r="2.7" />
      <circle cx="621.6" cy="554.4" r="2.7" />
      <circle cx="636.2" cy="554.4" r="2.7" />
      <circle cx="650.9" cy="552.9" r="2.7" />
      <circle cx="665.5" cy="552.2" r="2.7" />
      <circle cx="680.2" cy="558.0" r="2.7" />
      <circle cx="694.8" cy="550.8" r="2.7" />
      <circle cx="709.5" cy="552.9" r="2.7" />
      <circle cx="724.1" cy="550.8" r="2.7" />
      <circle cx="738.8" cy="549.7" r="2.7" />
      <circle cx="753.4" cy="550.8" r="2.7" />
      <circle cx="768.1" cy="547.2" r="2.7" />
      <circle cx="782.7" cy="539.9" r="2.7" />
      <circle cx="797.4" cy="547.2" r="2.7" />
      <circle cx="812.0" cy="545.4" r="2.7" />
      <circle cx="826.6" cy="545.4" r="2.7" />
      <circle cx="841.3" cy="546.4" r="2.7" />
      <circle cx="855.9" cy="543.9" r="2.7" />
    </g>
  </g>
  <g class="pl_2">
    <use xlink:href="#line_2" class="thick" stroke="#000" stroke-width="3" opacity="0"/>
    <use xlink:href="#line_2" class="pl pll" stroke="#6298C6" stroke-width="1.80"/>
    <text class="pl" transform="translate(937.2,510.1)" dy="7.6" font-size="25.20" fill="#6298C6" stroke="none">Battery electric</text>
<polyline class="pl" points="910.8,555.1 911.9,555.0 913.0,554.5 914.0,553.8 914.9,552.8 915.8,551.6 916.6,550.1 917.4,548.5 918.1,546.7 918.8,544.8 919.5,542.8 920.1,540.6 920.7,538.4 921.3,536.1 921.9,533.8 922.5,531.4 923.1,529.1 923.7,526.8 924.3,524.6 924.9,522.5 925.6,520.4 926.3,518.5 927.0,516.7 927.8,515.1 928.6,513.7 929.5,512.4 930.4,511.4 931.4,510.7 932.5,510.3 933.6,510.1" stroke="#6298C6" stroke-width="0.90" stroke-opacity="1.00" fill="none" />
    <g class="pl pll" fill="#6298C6" stroke="none" stroke-width="1.800">
      <circle cx="152.9" cy="560.2" r="2.7" />
      <circle cx="167.6" cy="560.2" r="2.7" />
      <circle cx="182.2" cy="560.2" r="2.7" />
      <circle cx="196.9" cy="560.2" r="2.7" />
      <circle cx="211.5" cy="560.2" r="2.7" />
      <circle cx="226.2" cy="560.2" r="2.7" />
      <circle cx="240.8" cy="559.8" r="2.7" />
      <circle cx="255.4" cy="560.2" r="2.7" />
      <circle cx="270.1" cy="560.2" r="2.7" />
      <circle cx="284.7" cy="560.2" r="2.7" />
      <circle cx="299.4" cy="560.2" r="2.7" />
      <circle cx="314.0" cy="560.2" r="2.7" />
      <circle cx="328.7" cy="560.2" r="2.7" />
      <circle cx="343.3" cy="560.2" r="2.7" />
      <circle cx="358.0" cy="560.2" r="2.7" />
      <circle cx="372.6" cy="560.2" r="2.7" />
      <circle cx="387.3" cy="560.2" r="2.7" />
      <circle cx="401.9" cy="560.2" r="2.7" />
      <circle cx="416.6" cy="560.2" r="2.7" />
      <circle cx="431.2" cy="560.2" r="2.7" />
      <circle cx="445.8" cy="560.2" r="2.7" />
      <circle cx="460.5" cy="560.2" r="2.7" />
      <circle cx="475.1" cy="560.2" r="2.7" />
      <circle cx="489.8" cy="560.2" r="2.7" />
      <circle cx="504.4" cy="560.2" r="2.7" />
      <circle cx="519.1" cy="559.8" r="2.7" />
      <circle cx="533.7" cy="559.5" r="2.7" />
      <circle cx="548.4" cy="559.5" r="2.7" />
      <circle cx="563.0" cy="560.2" r="2.7" />
      <circle cx="577.7" cy="560.2" r="2.7" />
      <circle cx="592.3" cy="559.8" r="2.7" />
      <circle cx="607.0" cy="559.8" r="2.7" />
      <circle cx="621.6" cy="557.6" r="2.7" />
      <circle cx="636.2" cy="559.1" r="2.7" />
      <circle cx="650.9" cy="559.8" r="2.7" />
      <circle cx="665.5" cy="558.7" r="2.7" />
      <circle cx="680.2" cy="559.5" r="2.7" />
      <circle cx="694.8" cy="555.1" r="2.7" />
      <circle cx="709.5" cy="554.4" r="2.7" />
      <circle cx="724.1" cy="558.0" r="2.7" />
      <circle cx="738.8" cy="556.6" r="2.7" />
      <circle cx="753.4" cy="555.8" r="2.7" />
      <circle cx="768.1" cy="556.9" r="2.7" />
      <circle cx="782.7" cy="548.6" r="2.7" />
      <circle cx="797.4" cy="554.0" r="2.7" />
      <circle cx="812.0" cy="553.7" r="2.7" />
      <circle cx="826.6" cy="552.2" r="2.7" />
      <circle cx="841.3" cy="548.2" r="2.7" />
      <circle cx="855.9" cy="555.1" r="2.7" />
    </g>
  </g>
  <g class="pl_3">
    <use xlink:href="#line_3" class="thick" stroke="#000" stroke-width="3" opacity="0"/>
    <use xlink:href="#line_3" class="pl pll" stroke="#77AC30" stroke-width="1.80"/>
    <text class="pl" transform="translate(937.2,560.2)" dy="7.6" font-size="25.20" fill="#77AC30" stroke="none">Plugin hybrid</text>
    <g class="pl pll" fill="#77AC30" stroke="none" stroke-width="1.800">
      <circle cx="152.9" cy="560.2" r="2.7" />
      <circle cx="167.6" cy="560.2" r="2.7" />
      <circle cx="182.2" cy="560.2" r="2.7" />
      <circle cx="196.9" cy="560.2" r="2.7" />
      <circle cx="211.5" cy="560.2" r="2.7" />
      <circle cx="226.2" cy="560.2" r="2.7" />
      <circle cx="240.8" cy="560.2" r="2.7" />
      <circle cx="255.4" cy="560.2" r="2.7" />
      <circle cx="270.1" cy="560.2" r="2.7" />
      <circle cx="284.7" cy="560.2" r="2.7" />
      <circle cx="299.4" cy="560.2" r="2.7" />
      <circle cx="314.0" cy="560.2" r="2.7" />
      <circle cx="328.7" cy="560.2" r="2.7" />
      <circle cx="343.3" cy="560.2" r="2.7" />
      <circle cx="358.0" cy="560.2" r="2.7" />
      <circle cx="372.6" cy="560.2" r="2.7" />
      <circle cx="387.3" cy="560.2" r="2.7" />
      <circle cx="401.9" cy="560.2" r="2.7" />
      <circle cx="416.6" cy="559.5" r="2.7" />
      <circle cx="431.2" cy="560.2" r="2.7" />
      <circle cx="445.8" cy="560.2" r="2.7" />
      <circle cx="460.5" cy="559.8" r="2.7" />
      <circle cx="475.1" cy="560.2" r="2.7" />
      <circle cx="489.8" cy="560.2" r="2.7" />
      <circle cx="504.4" cy="560.2" r="2.7" />
      <circle cx="519.1" cy="560.2" r="2.7" />
      <circle cx="533.7" cy="560.2" r="2.7" />
      <circle cx="548.4" cy="560.2" r="2.7" />
      <circle cx="563.0" cy="560.2" r="2.7" />
      <circle cx="577.7" cy="560.2" r="2.7" />
      <circle cx="592.3" cy="560.2" r="2.7" />
      <circle cx="607.0" cy="560.2" r="2.7" />
      <circle cx="621.6" cy="560.2" r="2.7" />
      <circle cx="636.2" cy="560.2" r="2.7" />
      <circle cx="650.9" cy="560.2" r="2.7" />
      <circle cx="665.5" cy="560.2" r="2.7" />
      <circle cx="680.2" cy="559.5" r="2.7" />
      <circle cx="694.8" cy="559.5" r="2.7" />
      <circle cx="709.5" cy="560.2" r="2.7" />
      <circle cx="724.1" cy="559.8" r="2.7" />
      <circle cx="738.8" cy="560.2" r="2.7" />
      <circle cx="753.4" cy="559.8" r="2.7" />
      <circle cx="768.1" cy="560.2" r="2.7" />
      <circle cx="782.7" cy="560.2" r="2.7" />
      <circle cx="797.4" cy="560.2" r="2.7" />
      <circle cx="812.0" cy="560.2" r="2.7" />
      <circle cx="826.6" cy="560.2" r="2.7" />
      <circle cx="841.3" cy="560.2" r="2.7" />
      <circle cx="855.9" cy="560.2" r="2.7" />
    </g>
  </g>
  <g class="pl_4">
    <use xlink:href="#line_4" class="thick" stroke="#000" stroke-width="3" opacity="0"/>
    <use xlink:href="#line_4" class="pl pll" stroke="#7B553E" stroke-width="1.80"/>
    <text class="pl" transform="translate(937.2,535.1)" dy="7.6" font-size="25.20" fill="#7B553E" stroke="none">Petrol</text>
<polyline class="pl" points="910.8,559.5 911.9,559.4 913.0,559.1 914.0,558.7 914.9,558.2 915.8,557.5 916.6,556.8 917.4,555.9 918.1,554.9 918.8,553.9 919.5,552.8 920.1,551.6 920.7,550.4 921.3,549.2 921.9,547.9 922.5,546.7 923.1,545.4 923.7,544.2 924.3,543.0 924.9,541.8 925.6,540.7 926.3,539.7 927.0,538.7 927.8,537.8 928.6,537.1 929.5,536.4 930.4,535.9 931.4,535.5 932.5,535.2 933.6,535.1" stroke="#7B553E" stroke-width="0.90" stroke-opacity="1.00" fill="none" />
    <g class="pl pll" fill="#7B553E" stroke="none" stroke-width="1.800">
      <circle cx="152.9" cy="555.8" r="2.7" />
      <circle cx="167.6" cy="558.4" r="2.7" />
      <circle cx="182.2" cy="556.6" r="2.7" />
      <circle cx="196.9" cy="558.0" r="2.7" />
      <circle cx="211.5" cy="556.6" r="2.7" />
      <circle cx="226.2" cy="558.4" r="2.7" />
      <circle cx="240.8" cy="558.0" r="2.7" />
      <circle cx="255.4" cy="559.1" r="2.7" />
      <circle cx="270.1" cy="554.8" r="2.7" />
      <circle cx="284.7" cy="556.6" r="2.7" />
      <circle cx="299.4" cy="557.6" r="2.7" />
      <circle cx="314.0" cy="556.2" r="2.7" />
      <circle cx="328.7" cy="559.1" r="2.7" />
      <circle cx="343.3" cy="558.4" r="2.7" />
      <circle cx="358.0" cy="559.5" r="2.7" />
      <circle cx="372.6" cy="558.7" r="2.7" />
      <circle cx="387.3" cy="554.4" r="2.7" />
      <circle cx="401.9" cy="557.6" r="2.7" />
      <circle cx="416.6" cy="557.3" r="2.7" />
      <circle cx="431.2" cy="549.7" r="2.7" />
      <circle cx="445.8" cy="549.3" r="2.7" />
      <circle cx="460.5" cy="545.0" r="2.7" />
      <circle cx="475.1" cy="545.0" r="2.7" />
      <circle cx="489.8" cy="547.9" r="2.7" />
      <circle cx="504.4" cy="543.9" r="2.7" />
      <circle cx="519.1" cy="552.9" r="2.7" />
      <circle cx="533.7" cy="549.0" r="2.7" />
      <circle cx="548.4" cy="547.5" r="2.7" />
      <circle cx="563.0" cy="542.5" r="2.7" />
      <circle cx="577.7" cy="546.1" r="2.7" />
      <circle cx="592.3" cy="546.1" r="2.7" />
      <circle cx="607.0" cy="555.1" r="2.7" />
      <circle cx="621.6" cy="550.4" r="2.7" />
      <circle cx="636.2" cy="549.0" r="2.7" />
      <circle cx="650.9" cy="552.9" r="2.7" />
      <circle cx="665.5" cy="549.3" r="2.7" />
      <circle cx="680.2" cy="547.2" r="2.7" />
      <circle cx="694.8" cy="547.9" r="2.7" />
      <circle cx="709.5" cy="554.8" r="2.7" />
      <circle cx="724.1" cy="554.8" r="2.7" />
      <circle cx="738.8" cy="552.6" r="2.7" />
      <circle cx="753.4" cy="547.9" r="2.7" />
      <circle cx="768.1" cy="554.4" r="2.7" />
      <circle cx="782.7" cy="559.5" r="2.7" />
      <circle cx="797.4" cy="556.9" r="2.7" />
      <circle cx="812.0" cy="559.5" r="2.7" />
      <circle cx="826.6" cy="556.9" r="2.7" />
      <circle cx="841.3" cy="559.8" r="2.7" />
      <circle cx="855.9" cy="559.5" r="2.7" />
    </g>
  </g>
  <g class="pl_5">
    <use xlink:href="#line_5" class="thick" stroke="#000" stroke-width="3" opacity="0"/>
    <use xlink:href="#line_5" class="pl pll" stroke="#7B6E57" stroke-width="1.80"/>
    <text class="pl" transform="translate(937.2,298.4)" dy="7.6" font-size="25.20" fill="#7B6E57" stroke="none">Diesel</text>
    <g class="pl pll" fill="#7B6E57" stroke="none" stroke-width="1.800">
      <circle cx="152.9" cy="320.5" r="2.7" />
      <circle cx="167.6" cy="321.2" r="2.7" />
      <circle cx="182.2" cy="351.2" r="2.7" />
      <circle cx="196.9" cy="338.2" r="2.7" />
      <circle cx="211.5" cy="350.5" r="2.7" />
      <circle cx="226.2" cy="283.6" r="2.7" />
      <circle cx="240.8" cy="322.6" r="2.7" />
      <circle cx="255.4" cy="315.4" r="2.7" />
      <circle cx="270.1" cy="285.0" r="2.7" />
      <circle cx="284.7" cy="243.1" r="2.7" />
      <circle cx="299.4" cy="271.7" r="2.7" />
      <circle cx="314.0" cy="260.8" r="2.7" />
      <circle cx="328.7" cy="232.6" r="2.7" />
      <circle cx="343.3" cy="220.3" r="2.7" />
      <circle cx="358.0" cy="289.7" r="2.7" />
      <circle cx="372.6" cy="255.0" r="2.7" />
      <circle cx="387.3" cy="213.8" r="2.7" />
      <circle cx="401.9" cy="175.5" r="2.7" />
      <circle cx="416.6" cy="264.1" r="2.7" />
      <circle cx="431.2" cy="210.9" r="2.7" />
      <circle cx="445.8" cy="217.1" r="2.7" />
      <circle cx="460.5" cy="67.0" r="2.7" />
      <circle cx="475.1" cy="321.9" r="2.7" />
      <circle cx="489.8" cy="255.4" r="2.7" />
      <circle cx="504.4" cy="226.1" r="2.7" />
      <circle cx="519.1" cy="287.6" r="2.7" />
      <circle cx="533.7" cy="320.1" r="2.7" />
      <circle cx="548.4" cy="235.5" r="2.7" />
      <circle cx="563.0" cy="240.6" r="2.7" />
      <circle cx="577.7" cy="242.4" r="2.7" />
      <circle cx="592.3" cy="289.4" r="2.7" />
      <circle cx="607.0" cy="271.7" r="2.7" />
      <circle cx="621.6" cy="267.3" r="2.7" />
      <circle cx="636.2" cy="272.0" r="2.7" />
      <circle cx="650.9" cy="304.2" r="2.7" />
      <circle cx="665.5" cy="260.4" r="2.7" />
      <circle cx="680.2" cy="203.7" r="2.7" />
      <circle cx="694.8" cy="196.8" r="2.7" />
      <circle cx="709.5" cy="202.6" r="2.7" />
      <circle cx="724.1" cy="289.7" r="2.7" />
      <circle cx="738.8" cy="223.6" r="2.7" />
      <circle cx="753.4" cy="228.3" r="2.7" />
      <circle cx="768.1" cy="333.1" r="2.7" />
      <circle cx="782.7" cy="313.2" r="2.7" />
      <circle cx="797.4" cy="308.9" r="2.7" />
      <circle cx="812.0" cy="307.1" r="2.7" />
      <circle cx="826.6" cy="329.5" r="2.7" />
      <circle cx="841.3" cy="332.8" r="2.7" />
      <circle cx="855.9" cy="298.4" r="2.7" />
    </g>
  </g>
</g>
    <text class="pl" transform="translate(174.9,573.0) rotate(-90)" dy="8.1" font-size="27.00" fill="#808080" stroke="none" text-anchor="end">2014</text>
    <text class="pl" transform="translate(233.5,573.0) rotate(-90)" dy="8.1" font-size="27.00" fill="#808080" stroke="none" text-anchor="end">2015</text>
    <text class="pl" transform="translate(292.1,573.0) rotate(-90)" dy="8.1" font-size="27.00" fill="#808080" stroke="none" text-anchor="end">2016</text>
    <text class="pl" transform="translate(350.6,573.0) rotate(-90)" dy="8.1" font-size="27.00" fill="#808080" stroke="none" text-anchor="end">2017</text>
    <text class="pl" transform="translate(409.2,573.0) rotate(-90)" dy="8.1" font-size="27.00" fill="#808080" stroke="none" text-anchor="end">2018</text>
    <text class="pl" transform="translate(467.8,573.0) rotate(-90)" dy="8.1" font-size="27.00" fill="#808080" stroke="none" text-anchor="end">2019</text>
    <text class="pl" transform="translate(526.4,573.0) rotate(-90)" dy="8.1" font-size="27.00" fill="#808080" stroke="none" text-anchor="end">2020</text>
    <text class="pl" transform="translate(585.0,573.0) rotate(-90)" dy="8.1" font-size="27.00" fill="#808080" stroke="none" text-anchor="end">2021</text>
    <text class="pl" transform="translate(643.6,573.0) rotate(-90)" dy="8.1" font-size="27.00" fill="#808080" stroke="none" text-anchor="end">2022</text>
    <text class="pl" transform="translate(702.2,573.0) rotate(-90)" dy="8.1" font-size="27.00" fill="#808080" stroke="none" text-anchor="end">2023</text>
    <text class="pl" transform="translate(760.7,573.0) rotate(-90)" dy="8.1" font-size="27.00" fill="#808080" stroke="none" text-anchor="end">2024</text>
    <text class="pl" transform="translate(819.3,573.0) rotate(-90)" dy="8.1" font-size="27.00" fill="#808080" stroke="none" text-anchor="end">2025</text>
    <text class="pl" transform="translate(877.9,573.0) rotate(-90)" dy="8.1" font-size="27.00" fill="#808080" stroke="none" text-anchor="end">2026</text>
    <text class="pl" transform="translate(145.6,47.2)" dy="0.0" font-size="27.00" fill="#808080" stroke="none">Quarterly sales of new heavy-duty vehicles: Finland</text>
<text transform="translate(157.6,666.1)" font-size="19.80" font-family="Helvetica" fill="#BFBFBF" stroke="none" xml:space="preserve"><a href="https://bsky.app/profile/robbieandrew.bsky.social" style="fill:#BFBFBF" target="_blank">@robbieandrew.bsky.social</a>   &#9679;   Data: Statistics Finland   &#9679;   New only   &#9679;   Through May 2026</text>
<text class="twitlink" transform="translate(157.6,666.1)" opacity="0" font-size="19.80" fill="#BFBFBF" stroke="none" xml:space="preserve"><a href="https://bsky.app/profile/robbieandrew.bsky.social" style="fill:#BFBFBF" target="_blank">@robbieandrew.bsky.social</a></text>
  <g class="dl_el" transform="translate(154.6,578.4)">
    <g class="dl_el_balloon">
      <foreignObject x="0" y="0" width="120" height="500">
      <div xmlns="http://www.w3.org/1999/xhtml" class="dl_fe" style="height:60px">
      <p class="dl_fe_p">Find me on BlueSky</p>
      </div>
	    </foreignObject>
      <path stroke="#000" fill="#FDFFDF" d="M0,60H60l5,5l5,-5H120"/>
    </g>
  </g>
<use xlink:href="#line_y" transform="translate(145.6,0)"/>
<use xlink:href="#line_y" transform="translate(204.2,0)"/>
<use xlink:href="#line_y" transform="translate(262.8,0)"/>
<use xlink:href="#line_y" transform="translate(321.4,0)"/>
<use xlink:href="#line_y" transform="translate(379.9,0)"/>
<use xlink:href="#line_y" transform="translate(438.5,0)"/>
<use xlink:href="#line_y" transform="translate(497.1,0)"/>
<use xlink:href="#line_y" transform="translate(555.7,0)"/>
<use xlink:href="#line_y" transform="translate(614.3,0)"/>
<use xlink:href="#line_y" transform="translate(672.9,0)"/>
<use xlink:href="#line_y" transform="translate(731.4,0)"/>
<use xlink:href="#line_y" transform="translate(790.0,0)"/>
<use xlink:href="#line_y" transform="translate(848.6,0)"/>
<use xlink:href="#line_y" transform="translate(907.2,0)"/>
<use xlink:href="#line_x" transform="translate(0,560.2)"/>
<use xlink:href="#line_x" transform="translate(0,487.9)"/>
<use xlink:href="#line_x" transform="translate(0,415.6)"/>
<use xlink:href="#line_x" transform="translate(0,343.2)"/>
<use xlink:href="#line_x" transform="translate(0,270.9)"/>
<use xlink:href="#line_x" transform="translate(0,198.6)"/>
<use xlink:href="#line_x" transform="translate(0,126.3)"/>
<use xlink:href="#line_x" transform="translate(0,54.0)"/>
<use xlink:href="#tick_x" transform="translate(145.6,0)"/>
<use xlink:href="#tick_x" transform="translate(204.2,0)"/>
<use xlink:href="#tick_x" transform="translate(262.8,0)"/>
<use xlink:href="#tick_x" transform="translate(321.4,0)"/>
<use xlink:href="#tick_x" transform="translate(379.9,0)"/>
<use xlink:href="#tick_x" transform="translate(438.5,0)"/>
<use xlink:href="#tick_x" transform="translate(497.1,0)"/>
<use xlink:href="#tick_x" transform="translate(555.7,0)"/>
<use xlink:href="#tick_x" transform="translate(614.3,0)"/>
<use xlink:href="#tick_x" transform="translate(672.9,0)"/>
<use xlink:href="#tick_x" transform="translate(731.4,0)"/>
<use xlink:href="#tick_x" transform="translate(790.0,0)"/>
<use xlink:href="#tick_x" transform="translate(848.6,0)"/>
<use xlink:href="#tick_x" transform="translate(907.2,0)"/>
<use xlink:href="#tick_y" transform="translate(0,560.2)"/>
<use xlink:href="#tick_y" transform="translate(0,487.9)"/>
<use xlink:href="#tick_y" transform="translate(0,415.6)"/>
<use xlink:href="#tick_y" transform="translate(0,343.2)"/>
<use xlink:href="#tick_y" transform="translate(0,270.9)"/>
<use xlink:href="#tick_y" transform="translate(0,198.6)"/>
<use xlink:href="#tick_y" transform="translate(0,126.3)"/>
<use xlink:href="#tick_y" transform="translate(0,54.0)"/>
<polyline points="145.6,53.993 145.6,560.180 907.2,560.180" stroke="#808080" stroke-width="0.90" fill="none"/>
<g>
<a href="https://creativecommons.org/licenses/by/4.0/" target="_blank">
  <rect x="123.0" y="651.4" width="34" height="17" fill="#FFF" stroke="none" opacity="0.01"/>
  <g transform="translate(124.0,652.4) scale(0.24)">
  <g><circle fill="#FFF" cx="37.79" cy="28.5" r="28.84"/>
     <circle fill="none" cx="37.79" cy="28.5" r="28.84" stroke="#BFBFBF" stroke-width="5.5"/>
     <path fill="#BFBFBF" d="M37.16,23.19 l-4.29,2.23c-0.458-0.951-1.02-1.62-1.69-2c-0.667-0.38-1.29-0.571-1.86-0.571c-2.86,0-4.29,1.89-4.29,5.66 c0,1.71,0.36,3.08,1.09,4.11c0.724,1.03,1.79,1.54,3.2,1.54c1.87,0,3.18-0.915,3.94-2.74l3.94,2 c-0.838,1.56-2,2.79-3.49,3.69c-1.48,0.896-3.12,1.34-4.91,1.34c-2.86,0-5.16-0.875-6.92-2.63 c-1.75-1.75-2.63-4.19-2.63-7.31c0-3.05,0.886-5.47,2.66-7.26c1.77-1.79,4.01-2.69,6.72-2.69 C32.6,18.56,35.44,20.1,37.16,23.19z
              M55.61,23.19l-4.23,2.23c-0.457-0.951-1.02-1.62-1.69-2 c-0.668-0.38-1.31-0.571-1.91-0.571c-2.86,0-4.29,1.89-4.29,5.66c0,1.71,0.363,3.08,1.09,4.11 c0.723,1.03,1.79,1.54,3.2,1.54c1.87,0,3.18-0.915,3.94-2.74l4,2c-0.875,1.56-2.06,2.79-3.54,3.69 c-1.49,0.9-3.11,1.34-4.86,1.34c-2.9,0-5.21-0.875-6.94-2.63c-1.74-1.75-2.6-4.19-2.6-7.31 c0-3.05,0.885-5.47,2.66-7.26c1.77-1.79,4.01-2.69,6.71-2.69C51.12,18.56,53.944,20.1,55.61,23.19z"/>
  </g></g>
  <g transform="translate(140.2,652.4) scale(0.24)">
  <g><circle fill="#FFF" cx="37.79" cy="28.5" r="28.84"/>
     <circle fill="none" cx="37.79" cy="28.5" r="28.84" stroke="#BFBFBF" stroke-width="5.5"/>
     <path fill="#BFBFBF" d="M46.129,20.557v13.085h-3.656v15.542h-9.944V33.643h-3.656V20.557 c0-0.572,0.2-1.057,0.599-1.457c0.401-0.399,0.887-0.6,1.457-0.6h13.144c0.533,0,1.01,0.2,1.428,0.6 C45.918,19.5,46.129,19.986,46.129,20.557z
              M33.042,12.329c0-3.008,1.485-4.514,4.458-4.514s4.457,1.504,4.457,4.514 c0,2.971-1.486,4.457-4.457,4.457S33.042,15.3,33.042,12.329z"/>
  </g></g>
  </a>
</g>
  <g class="dl_el" transform="translate(69.1,548.4)">
    <g class="dl_el_balloon">
      <foreignObject x="0" y="0" width="250" height="500">
      <div xmlns="http://www.w3.org/1999/xhtml" class="dl_fe" style="height:90px">
      <p class="dl_fe_p">CC-BY: Material may be freely re-used as long as you credit the author</p>
      </div>
	    </foreignObject>
      <path stroke="#000" fill="#FDFFDF" d="M0,90H70l5,5l5,-5H250"/>
    </g>
  </g>
</g>
</svg>
