<svg version="1.1" xmlns="http://www.w3.org/2000/svg" xmlns:xlink="http://www.w3.org/1999/xlink" width="100%" height="100%" viewBox="0 0 1200.000 674.916">
<title>Quarterly sales of new heavy-duty vehicles: Germany</title>
<style type="text/css">
  #main {font-family:Helvetica,Arial,sans-serif; font-size:27.00px;
         fill-opacity:1; fill:#000000; stroke:none; stroke-linejoin:round; stroke-linecap:round; stroke-width:1.00;}
  a:hover {text-decoration: underline;}
  .marker {stroke-opacity:0;fill-opacity:0;}
  .marker:hover {stroke-opacity:0.5; fill-opacity:1;}
  .ticklabel {font-size:27.00px;fill:#808080;stroke:none;font-family:Helvetica}
  .ytl {text-anchor:end;}
  .dp1 {pointer-events:none;font-size:70%;text-anchor:middle;fill:#000000;}
  .dp2 {pointer-events:none;font-size:70%;text-anchor:middle;fill:#FFFFFF;}
  .numtip {pointer-events:none;}
  .cc {opacity:0.25;}
.dl_fe {background-color:#FDFFDF;display:flex;margin:auto;align-items:center}
.dl_fe_p {font-size:20px;text-align:center;margin:3px}
.dl_el {display:none;pointer-events:none;}
.cc:hover + .dl_el {display:block;}
text:hover + .dl_el {display:block;}
  #lines .pl {transition: all 0.2s ease;}
  #lines:hover .pl {opacity:0.3;}
  #lines:hover .thick {stroke-width:1;}
  #lines:hover .pl_1:hover .pl {opacity:1;}
  #lines:hover .pl_1:hover .pll {stroke-width:3;}
  #lines:hover .pl_1:hover .pldlm {stroke-width:2;}
  #lines:hover .pl_1:hover .thick {stroke-width:12;}
  #lines:hover .pl_2:hover .pl {opacity:1;}
  #lines:hover .pl_2:hover .pll {stroke-width:3;}
  #lines:hover .pl_2:hover .pldlm {stroke-width:2;}
  #lines:hover .pl_2:hover .thick {stroke-width:12;}
  #lines:hover .pl_3:hover .pl {opacity:1;}
  #lines:hover .pl_3:hover .pll {stroke-width:3;}
  #lines:hover .pl_3:hover .pldlm {stroke-width:2;}
  #lines:hover .pl_3:hover .thick {stroke-width:12;}
  #lines:hover .pl_4:hover .pl {opacity:1;}
  #lines:hover .pl_4:hover .pll {stroke-width:3;}
  #lines:hover .pl_4:hover .pldlm {stroke-width:2;}
  #lines:hover .pl_4:hover .thick {stroke-width:12;}
  #lines:hover .pl_5:hover .pl {opacity:1;}
  #lines:hover .pl_5:hover .pll {stroke-width:3;}
  #lines:hover .pl_5:hover .pldlm {stroke-width:2;}
  #lines:hover .pl_5:hover .thick {stroke-width:12;}
  #lines:hover .pl_6:hover .pl {opacity:1;}
  #lines:hover .pl_6:hover .pll {stroke-width:3;}
  #lines:hover .pl_6:hover .pldlm {stroke-width:2;}
  #lines:hover .pl_6:hover .thick {stroke-width:12;}
</style>
<defs>
  <clipPath id="axis_clip"><rect x="145.8" y="54.2" width="761.2" height="505.8" /></clipPath>
  <path id="line_y" d="M 0,53.993 v 506.187" stroke="#4D4D4D" stroke-opacity="0.15" stroke-width="1.00"/>
  <path id="line_x" d="M 145.600,0 h 761.600" stroke="#4D4D4D" stroke-opacity="0.15" stroke-width="1.00"/>
  <path id="tick_y" d="M 145.600,0 h -6.000" stroke="#808080" stroke-width="0.90"/>
  <path id="tick_x" d="M 0,560.180 v 6.000" stroke="#808080" stroke-width="0.90"/>
  <symbol id="line_1" viewBox="0 0 1200.000 674.916">
    <polyline class="pl pll" points="161.5,560.2 193.2,560.2 224.9,560.2 256.7,560.2 288.4,560.2 320.1,560.2 351.9,560.2 383.6,560.2 415.3,560.2 447.1,560.2 478.8,560.2 510.5,560.2 542.3,560.2 574.0,560.2 605.7,560.2 637.5,560.2 669.2,560.2 700.9,560.2 732.7,560.2 764.4,560.2 796.1,560.2" stroke="#828282" fill="none" clip-path="url(#axis_clip)"/>
  </symbol>
  <symbol id="line_2" viewBox="0 0 1200.000 674.916">
    <polyline class="pl pll" points="161.5,547.2 193.2,541.8 224.9,545.1 256.7,539.4 288.4,546.1 320.1,545.9 351.9,539.1 383.6,516.7 415.3,542.7 447.1,530.9 478.8,515.1 510.5,540.2 542.3,537.8 574.0,533.0 605.7,546.2 637.5,535.0 669.2,536.3 700.9,529.1 732.7,518.8 764.4,513.8 796.1,524.5" stroke="#6298C6" fill="none" clip-path="url(#axis_clip)"/>
  </symbol>
  <symbol id="line_3" viewBox="0 0 1200.000 674.916">
    <polyline class="pl pll" points="161.5,554.2 193.2,554.4 224.9,556.0 256.7,556.8 288.4,556.8 320.1,557.4 351.9,556.1 383.6,555.2 415.3,556.0 447.1,555.8 478.8,556.3 510.5,557.2 542.3,556.6 574.0,557.1 605.7,557.7 637.5,556.5 669.2,557.0 700.9,558.1 732.7,557.7 764.4,557.7 796.1,558.6" stroke="#77AC30" fill="none" clip-path="url(#axis_clip)"/>
  </symbol>
  <symbol id="line_4" viewBox="0 0 1200.000 674.916">
    <polyline class="pl pll" points="161.5,559.6 193.2,559.7 224.9,560.0 256.7,559.8 288.4,560.0 320.1,560.1 351.9,560.1 383.6,560.1 415.3,560.1 447.1,560.1 478.8,560.1 510.5,560.1 542.3,560.2 574.0,560.1 605.7,560.1 637.5,559.0 669.2,559.0 700.9,556.9 732.7,549.7 764.4,543.7 796.1,550.8" stroke="#85578F" fill="none" clip-path="url(#axis_clip)"/>
  </symbol>
  <symbol id="line_5" viewBox="0 0 1200.000 674.916">
    <polyline class="pl pll" points="161.5,558.9 193.2,559.1 224.9,559.3 256.7,559.1 288.4,558.7 320.1,558.6 351.9,559.2 383.6,559.4 415.3,559.0 447.1,559.2 478.8,559.1 510.5,559.4 542.3,559.0 574.0,559.1 605.7,559.2 637.5,559.4 669.2,558.6 700.9,559.3 732.7,558.6 764.4,558.5 796.1,559.0" stroke="#919452" fill="none" clip-path="url(#axis_clip)"/>
  </symbol>
  <symbol id="line_6" viewBox="0 0 1200.000 674.916">
    <polyline class="pl pll" points="161.5,161.5 193.2,134.3 224.9,207.4 256.7,194.8 288.4,208.7 320.1,247.5 351.9,247.8 383.6,200.0 415.3,167.4 447.1,181.1 478.8,163.9 510.5,173.7 542.3,131.5 574.0,71.2 605.7,219.2 637.5,158.5 669.2,199.0 700.9,189.3 732.7,197.8 764.4,201.3 796.1,244.0" stroke="#7B6E57" fill="none" clip-path="url(#axis_clip)"/>
  </symbol>
</defs>
<g id="main">
<text class="ticklabel ytl" transform="translate(128.8,568.3)">0</text>
<text class="ticklabel ytl" transform="translate(128.8,467.0)">20 000</text>
<text class="ticklabel ytl" transform="translate(128.8,365.8)">40 000</text>
<text class="ticklabel ytl" transform="translate(128.8,264.6)">60 000</text>
<text class="ticklabel ytl" transform="translate(128.8,163.3)">80 000</text>
<text class="ticklabel ytl" transform="translate(128.8,62.1)">100 000</text>
<g id="lines">
  <g class="pl_1">
    <use xlink:href="#line_1" class="thick" stroke="#000" stroke-width="3" opacity="0"/>
    <use xlink:href="#line_1" class="pl pll" stroke="#828282" stroke-width="1.80"/>
    <text class="pl" transform="translate(937.2,560.2)" dy="7.6" font-size="25.20" fill="#828282" stroke="none">Others</text>
<polyline class="pl" points="910.8,560.2 911.9,560.2 913.0,560.2 914.0,560.2 914.9,560.2 915.8,560.2 916.6,560.2 917.4,560.2 918.1,560.2 918.8,560.2 919.5,560.2 920.1,560.2 920.7,560.2 921.3,560.2 921.9,560.2 922.5,560.2 923.1,560.2 923.7,560.2 924.3,560.2 924.9,560.2 925.6,560.2 926.3,560.2 927.0,560.2 927.8,560.2 928.6,560.2 929.5,560.2 930.4,560.2 931.4,560.2 932.5,560.2 933.6,560.2" stroke="#828282" stroke-width="0.90" stroke-opacity="1.00" fill="none" />
    <g class="pl pll" fill="#828282" stroke="none" stroke-width="1.800">
      <circle cx="161.5" cy="560.2" r="2.7" />
      <circle cx="193.2" cy="560.2" r="2.7" />
      <circle cx="224.9" cy="560.2" r="2.7" />
      <circle cx="256.7" cy="560.2" r="2.7" />
      <circle cx="288.4" cy="560.2" r="2.7" />
      <circle cx="320.1" cy="560.2" r="2.7" />
      <circle cx="351.9" cy="560.2" r="2.7" />
      <circle cx="383.6" cy="560.2" r="2.7" />
      <circle cx="415.3" cy="560.2" r="2.7" />
      <circle cx="447.1" cy="560.2" r="2.7" />
      <circle cx="478.8" cy="560.2" r="2.7" />
      <circle cx="510.5" cy="560.2" r="2.7" />
      <circle cx="542.3" cy="560.2" r="2.7" />
      <circle cx="574.0" cy="560.2" r="2.7" />
      <circle cx="605.7" cy="560.2" r="2.7" />
      <circle cx="637.5" cy="560.2" r="2.7" />
      <circle cx="669.2" cy="560.2" r="2.7" />
      <circle cx="700.9" cy="560.2" r="2.7" />
      <circle cx="732.7" cy="560.2" r="2.7" />
      <circle cx="764.4" cy="560.2" r="2.7" />
      <circle cx="796.1" cy="560.2" r="2.7" />
    </g>
  </g>
  <g class="pl_2">
    <use xlink:href="#line_2" class="thick" stroke="#000" stroke-width="3" opacity="0"/>
    <use xlink:href="#line_2" class="pl pll" stroke="#6298C6" stroke-width="1.80"/>
    <text class="pl" transform="translate(937.2,460.0)" dy="7.6" font-size="25.20" fill="#6298C6" stroke="none">Battery electric</text>
<polyline class="pl" points="910.8,524.5 911.9,524.3 913.0,523.7 914.0,522.6 914.9,521.2 915.8,519.4 916.6,517.4 917.4,515.1 918.1,512.5 918.8,509.7 919.5,506.8 920.1,503.7 920.7,500.5 921.3,497.3 921.9,493.9 922.5,490.6 923.1,487.3 923.7,484.0 924.3,480.8 924.9,477.7 925.6,474.8 926.3,472.0 927.0,469.5 927.8,467.2 928.6,465.1 929.5,463.4 930.4,462.0 931.4,460.9 932.5,460.2 933.6,460.0" stroke="#6298C6" stroke-width="0.90" stroke-opacity="1.00" fill="none" />
    <g class="pl pll" fill="#6298C6" stroke="none" stroke-width="1.800">
      <circle cx="161.5" cy="547.2" r="2.7" />
      <circle cx="193.2" cy="541.8" r="2.7" />
      <circle cx="224.9" cy="545.1" r="2.7" />
      <circle cx="256.7" cy="539.4" r="2.7" />
      <circle cx="288.4" cy="546.1" r="2.7" />
      <circle cx="320.1" cy="545.9" r="2.7" />
      <circle cx="351.9" cy="539.1" r="2.7" />
      <circle cx="383.6" cy="516.7" r="2.7" />
      <circle cx="415.3" cy="542.7" r="2.7" />
      <circle cx="447.1" cy="530.9" r="2.7" />
      <circle cx="478.8" cy="515.1" r="2.7" />
      <circle cx="510.5" cy="540.2" r="2.7" />
      <circle cx="542.3" cy="537.8" r="2.7" />
      <circle cx="574.0" cy="533.0" r="2.7" />
      <circle cx="605.7" cy="546.2" r="2.7" />
      <circle cx="637.5" cy="535.0" r="2.7" />
      <circle cx="669.2" cy="536.3" r="2.7" />
      <circle cx="700.9" cy="529.1" r="2.7" />
      <circle cx="732.7" cy="518.8" r="2.7" />
      <circle cx="764.4" cy="513.8" r="2.7" />
      <circle cx="796.1" cy="524.5" r="2.7" />
    </g>
  </g>
  <g class="pl_3">
    <use xlink:href="#line_3" class="thick" stroke="#000" stroke-width="3" opacity="0"/>
    <use xlink:href="#line_3" class="pl pll" stroke="#77AC30" stroke-width="1.80"/>
    <text class="pl" transform="translate(937.2,510.1)" dy="7.6" font-size="25.20" fill="#77AC30" stroke="none">Plugin hybrid</text>
<polyline class="pl" points="910.8,558.6 911.9,558.5 913.0,558.0 914.0,557.2 914.9,556.1 915.8,554.8 916.6,553.3 917.4,551.5 918.1,549.6 918.8,547.5 919.5,545.3 920.1,543.0 920.7,540.6 921.3,538.1 921.9,535.6 922.5,533.1 923.1,530.6 923.7,528.2 924.3,525.7 924.9,523.4 925.6,521.2 926.3,519.1 927.0,517.2 927.8,515.5 928.6,513.9 929.5,512.6 930.4,511.6 931.4,510.8 932.5,510.3 933.6,510.1" stroke="#77AC30" stroke-width="0.90" stroke-opacity="1.00" fill="none" />
    <g class="pl pll" fill="#77AC30" stroke="none" stroke-width="1.800">
      <circle cx="161.5" cy="554.2" r="2.7" />
      <circle cx="193.2" cy="554.4" r="2.7" />
      <circle cx="224.9" cy="556.0" r="2.7" />
      <circle cx="256.7" cy="556.8" r="2.7" />
      <circle cx="288.4" cy="556.8" r="2.7" />
      <circle cx="320.1" cy="557.4" r="2.7" />
      <circle cx="351.9" cy="556.1" r="2.7" />
      <circle cx="383.6" cy="555.2" r="2.7" />
      <circle cx="415.3" cy="556.0" r="2.7" />
      <circle cx="447.1" cy="555.8" r="2.7" />
      <circle cx="478.8" cy="556.3" r="2.7" />
      <circle cx="510.5" cy="557.2" r="2.7" />
      <circle cx="542.3" cy="556.6" r="2.7" />
      <circle cx="574.0" cy="557.1" r="2.7" />
      <circle cx="605.7" cy="557.7" r="2.7" />
      <circle cx="637.5" cy="556.5" r="2.7" />
      <circle cx="669.2" cy="557.0" r="2.7" />
      <circle cx="700.9" cy="558.1" r="2.7" />
      <circle cx="732.7" cy="557.7" r="2.7" />
      <circle cx="764.4" cy="557.7" r="2.7" />
      <circle cx="796.1" cy="558.6" r="2.7" />
    </g>
  </g>
  <g class="pl_4">
    <use xlink:href="#line_4" class="thick" stroke="#000" stroke-width="3" opacity="0"/>
    <use xlink:href="#line_4" class="pl pll" stroke="#85578F" stroke-width="1.80"/>
    <text class="pl" transform="translate(937.2,485.1)" dy="7.6" font-size="25.20" fill="#85578F" stroke="none">Gas</text>
<polyline class="pl" points="910.8,550.8 911.9,550.6 913.0,549.9 914.0,548.9 914.9,547.4 915.8,545.6 916.6,543.5 917.4,541.2 918.1,538.6 918.8,535.7 919.5,532.8 920.1,529.6 920.7,526.4 921.3,523.0 921.9,519.6 922.5,516.2 923.1,512.9 923.7,509.5 924.3,506.3 924.9,503.1 925.6,500.1 926.3,497.3 927.0,494.7 927.8,492.3 928.6,490.3 929.5,488.5 930.4,487.0 931.4,486.0 932.5,485.3 933.6,485.1" stroke="#85578F" stroke-width="0.90" stroke-opacity="1.00" fill="none" />
    <g class="pl pll" fill="#85578F" stroke="none" stroke-width="1.800">
      <circle cx="161.5" cy="559.6" r="2.7" />
      <circle cx="193.2" cy="559.7" r="2.7" />
      <circle cx="224.9" cy="560.0" r="2.7" />
      <circle cx="256.7" cy="559.8" r="2.7" />
      <circle cx="288.4" cy="560.0" r="2.7" />
      <circle cx="320.1" cy="560.1" r="2.7" />
      <circle cx="351.9" cy="560.1" r="2.7" />
      <circle cx="383.6" cy="560.1" r="2.7" />
      <circle cx="415.3" cy="560.1" r="2.7" />
      <circle cx="447.1" cy="560.1" r="2.7" />
      <circle cx="478.8" cy="560.1" r="2.7" />
      <circle cx="510.5" cy="560.1" r="2.7" />
      <circle cx="542.3" cy="560.2" r="2.7" />
      <circle cx="574.0" cy="560.1" r="2.7" />
      <circle cx="605.7" cy="560.1" r="2.7" />
      <circle cx="637.5" cy="559.0" r="2.7" />
      <circle cx="669.2" cy="559.0" r="2.7" />
      <circle cx="700.9" cy="556.9" r="2.7" />
      <circle cx="732.7" cy="549.7" r="2.7" />
      <circle cx="764.4" cy="543.7" r="2.7" />
      <circle cx="796.1" cy="550.8" r="2.7" />
    </g>
  </g>
  <g class="pl_5">
    <use xlink:href="#line_5" class="thick" stroke="#000" stroke-width="3" opacity="0"/>
    <use xlink:href="#line_5" class="pl pll" stroke="#919452" stroke-width="1.80"/>
    <text class="pl" transform="translate(937.2,535.1)" dy="7.6" font-size="25.20" fill="#919452" stroke="none">Non-plugin hybrid</text>
<polyline class="pl" points="910.8,559.0 911.9,558.9 913.0,558.7 914.0,558.3 914.9,557.8 915.8,557.1 916.6,556.4 917.4,555.5 918.1,554.6 918.8,553.6 919.5,552.5 920.1,551.3 920.7,550.1 921.3,548.9 921.9,547.7 922.5,546.5 923.1,545.2 923.7,544.0 924.3,542.8 924.9,541.7 925.6,540.6 926.3,539.6 927.0,538.6 927.8,537.8 928.6,537.0 929.5,536.4 930.4,535.9 931.4,535.5 932.5,535.2 933.6,535.1" stroke="#919452" stroke-width="0.90" stroke-opacity="1.00" fill="none" />
    <g class="pl pll" fill="#919452" stroke="none" stroke-width="1.800">
      <circle cx="161.5" cy="558.9" r="2.7" />
      <circle cx="193.2" cy="559.1" r="2.7" />
      <circle cx="224.9" cy="559.3" r="2.7" />
      <circle cx="256.7" cy="559.1" r="2.7" />
      <circle cx="288.4" cy="558.7" r="2.7" />
      <circle cx="320.1" cy="558.6" r="2.7" />
      <circle cx="351.9" cy="559.2" r="2.7" />
      <circle cx="383.6" cy="559.4" r="2.7" />
      <circle cx="415.3" cy="559.0" r="2.7" />
      <circle cx="447.1" cy="559.2" r="2.7" />
      <circle cx="478.8" cy="559.1" r="2.7" />
      <circle cx="510.5" cy="559.4" r="2.7" />
      <circle cx="542.3" cy="559.0" r="2.7" />
      <circle cx="574.0" cy="559.1" r="2.7" />
      <circle cx="605.7" cy="559.2" r="2.7" />
      <circle cx="637.5" cy="559.4" r="2.7" />
      <circle cx="669.2" cy="558.6" r="2.7" />
      <circle cx="700.9" cy="559.3" r="2.7" />
      <circle cx="732.7" cy="558.6" r="2.7" />
      <circle cx="764.4" cy="558.5" r="2.7" />
      <circle cx="796.1" cy="559.0" r="2.7" />
    </g>
  </g>
  <g class="pl_6">
    <use xlink:href="#line_6" class="thick" stroke="#000" stroke-width="3" opacity="0"/>
    <use xlink:href="#line_6" class="pl pll" stroke="#7B6E57" stroke-width="1.80"/>
    <text class="pl" transform="translate(937.2,244.0)" dy="7.6" font-size="25.20" fill="#7B6E57" stroke="none">Diesel</text>
    <g class="pl pll" fill="#7B6E57" stroke="none" stroke-width="1.800">
      <circle cx="161.5" cy="161.5" r="2.7" />
      <circle cx="193.2" cy="134.3" r="2.7" />
      <circle cx="224.9" cy="207.4" r="2.7" />
      <circle cx="256.7" cy="194.8" r="2.7" />
      <circle cx="288.4" cy="208.7" r="2.7" />
      <circle cx="320.1" cy="247.5" r="2.7" />
      <circle cx="351.9" cy="247.8" r="2.7" />
      <circle cx="383.6" cy="200.0" r="2.7" />
      <circle cx="415.3" cy="167.4" r="2.7" />
      <circle cx="447.1" cy="181.1" r="2.7" />
      <circle cx="478.8" cy="163.9" r="2.7" />
      <circle cx="510.5" cy="173.7" r="2.7" />
      <circle cx="542.3" cy="131.5" r="2.7" />
      <circle cx="574.0" cy="71.2" r="2.7" />
      <circle cx="605.7" cy="219.2" r="2.7" />
      <circle cx="637.5" cy="158.5" r="2.7" />
      <circle cx="669.2" cy="199.0" r="2.7" />
      <circle cx="700.9" cy="189.3" r="2.7" />
      <circle cx="732.7" cy="197.8" r="2.7" />
      <circle cx="764.4" cy="201.3" r="2.7" />
      <circle cx="796.1" cy="244.0" r="2.7" />
    </g>
  </g>
</g>
    <text class="pl" transform="translate(209.1,573.0) rotate(-90)" dy="8.1" font-size="27.00" fill="#808080" stroke="none" text-anchor="end">2021</text>
    <text class="pl" transform="translate(336.0,573.0) rotate(-90)" dy="8.1" font-size="27.00" fill="#808080" stroke="none" text-anchor="end">2022</text>
    <text class="pl" transform="translate(462.9,573.0) rotate(-90)" dy="8.1" font-size="27.00" fill="#808080" stroke="none" text-anchor="end">2023</text>
    <text class="pl" transform="translate(589.9,573.0) rotate(-90)" dy="8.1" font-size="27.00" fill="#808080" stroke="none" text-anchor="end">2024</text>
    <text class="pl" transform="translate(716.8,573.0) rotate(-90)" dy="8.1" font-size="27.00" fill="#808080" stroke="none" text-anchor="end">2025</text>
    <text class="pl" transform="translate(843.7,573.0) rotate(-90)" dy="8.1" font-size="27.00" fill="#808080" stroke="none" text-anchor="end">2026</text>
    <text class="pl" transform="translate(145.6,47.2)" dy="0.0" font-size="27.00" fill="#808080" stroke="none">Quarterly sales of new heavy-duty vehicles: Germany</text>
<text transform="translate(157.6,666.1)" font-size="19.80" font-family="Helvetica" fill="#BFBFBF" stroke="none" xml:space="preserve"><a href="https://bsky.app/profile/robbieandrew.bsky.social" style="fill:#BFBFBF" target="_blank">@robbieandrew.bsky.social</a>   &#9679;   KBA   &#9679;   Through April 2026</text>
<text class="twitlink" transform="translate(157.6,666.1)" opacity="0" font-size="19.80" fill="#BFBFBF" stroke="none" xml:space="preserve"><a href="https://bsky.app/profile/robbieandrew.bsky.social" style="fill:#BFBFBF" target="_blank">@robbieandrew.bsky.social</a></text>
  <g class="dl_el" transform="translate(154.6,578.4)">
    <g class="dl_el_balloon">
      <foreignObject x="0" y="0" width="120" height="500">
      <div xmlns="http://www.w3.org/1999/xhtml" class="dl_fe" style="height:60px">
      <p class="dl_fe_p">Find me on BlueSky</p>
      </div>
	    </foreignObject>
      <path stroke="#000" fill="#FDFFDF" d="M0,60H60l5,5l5,-5H120"/>
    </g>
  </g>
<use xlink:href="#line_y" transform="translate(145.6,0)"/>
<use xlink:href="#line_y" transform="translate(272.5,0)"/>
<use xlink:href="#line_y" transform="translate(399.5,0)"/>
<use xlink:href="#line_y" transform="translate(526.4,0)"/>
<use xlink:href="#line_y" transform="translate(653.3,0)"/>
<use xlink:href="#line_y" transform="translate(780.3,0)"/>
<use xlink:href="#line_y" transform="translate(907.2,0)"/>
<use xlink:href="#line_x" transform="translate(0,560.2)"/>
<use xlink:href="#line_x" transform="translate(0,458.9)"/>
<use xlink:href="#line_x" transform="translate(0,357.7)"/>
<use xlink:href="#line_x" transform="translate(0,256.5)"/>
<use xlink:href="#line_x" transform="translate(0,155.2)"/>
<use xlink:href="#line_x" transform="translate(0,54.0)"/>
<use xlink:href="#tick_x" transform="translate(145.6,0)"/>
<use xlink:href="#tick_x" transform="translate(272.5,0)"/>
<use xlink:href="#tick_x" transform="translate(399.5,0)"/>
<use xlink:href="#tick_x" transform="translate(526.4,0)"/>
<use xlink:href="#tick_x" transform="translate(653.3,0)"/>
<use xlink:href="#tick_x" transform="translate(780.3,0)"/>
<use xlink:href="#tick_x" transform="translate(907.2,0)"/>
<use xlink:href="#tick_y" transform="translate(0,560.2)"/>
<use xlink:href="#tick_y" transform="translate(0,458.9)"/>
<use xlink:href="#tick_y" transform="translate(0,357.7)"/>
<use xlink:href="#tick_y" transform="translate(0,256.5)"/>
<use xlink:href="#tick_y" transform="translate(0,155.2)"/>
<use xlink:href="#tick_y" transform="translate(0,54.0)"/>
<polyline points="145.6,53.993 145.6,560.180 907.2,560.180" stroke="#808080" stroke-width="0.90" fill="none"/>
<g>
<a href="https://creativecommons.org/licenses/by/4.0/" target="_blank">
  <rect x="123.0" y="651.4" width="34" height="17" fill="#FFF" stroke="none" opacity="0.01"/>
  <g transform="translate(124.0,652.4) scale(0.24)">
  <g><circle fill="#FFF" cx="37.79" cy="28.5" r="28.84"/>
     <circle fill="none" cx="37.79" cy="28.5" r="28.84" stroke="#BFBFBF" stroke-width="5.5"/>
     <path fill="#BFBFBF" d="M37.16,23.19 l-4.29,2.23c-0.458-0.951-1.02-1.62-1.69-2c-0.667-0.38-1.29-0.571-1.86-0.571c-2.86,0-4.29,1.89-4.29,5.66 c0,1.71,0.36,3.08,1.09,4.11c0.724,1.03,1.79,1.54,3.2,1.54c1.87,0,3.18-0.915,3.94-2.74l3.94,2 c-0.838,1.56-2,2.79-3.49,3.69c-1.48,0.896-3.12,1.34-4.91,1.34c-2.86,0-5.16-0.875-6.92-2.63 c-1.75-1.75-2.63-4.19-2.63-7.31c0-3.05,0.886-5.47,2.66-7.26c1.77-1.79,4.01-2.69,6.72-2.69 C32.6,18.56,35.44,20.1,37.16,23.19z
              M55.61,23.19l-4.23,2.23c-0.457-0.951-1.02-1.62-1.69-2 c-0.668-0.38-1.31-0.571-1.91-0.571c-2.86,0-4.29,1.89-4.29,5.66c0,1.71,0.363,3.08,1.09,4.11 c0.723,1.03,1.79,1.54,3.2,1.54c1.87,0,3.18-0.915,3.94-2.74l4,2c-0.875,1.56-2.06,2.79-3.54,3.69 c-1.49,0.9-3.11,1.34-4.86,1.34c-2.9,0-5.21-0.875-6.94-2.63c-1.74-1.75-2.6-4.19-2.6-7.31 c0-3.05,0.885-5.47,2.66-7.26c1.77-1.79,4.01-2.69,6.71-2.69C51.12,18.56,53.944,20.1,55.61,23.19z"/>
  </g></g>
  <g transform="translate(140.2,652.4) scale(0.24)">
  <g><circle fill="#FFF" cx="37.79" cy="28.5" r="28.84"/>
     <circle fill="none" cx="37.79" cy="28.5" r="28.84" stroke="#BFBFBF" stroke-width="5.5"/>
     <path fill="#BFBFBF" d="M46.129,20.557v13.085h-3.656v15.542h-9.944V33.643h-3.656V20.557 c0-0.572,0.2-1.057,0.599-1.457c0.401-0.399,0.887-0.6,1.457-0.6h13.144c0.533,0,1.01,0.2,1.428,0.6 C45.918,19.5,46.129,19.986,46.129,20.557z
              M33.042,12.329c0-3.008,1.485-4.514,4.458-4.514s4.457,1.504,4.457,4.514 c0,2.971-1.486,4.457-4.457,4.457S33.042,15.3,33.042,12.329z"/>
  </g></g>
  </a>
</g>
  <g class="dl_el" transform="translate(69.1,548.4)">
    <g class="dl_el_balloon">
      <foreignObject x="0" y="0" width="250" height="500">
      <div xmlns="http://www.w3.org/1999/xhtml" class="dl_fe" style="height:90px">
      <p class="dl_fe_p">CC-BY: Material may be freely re-used as long as you credit the author</p>
      </div>
	    </foreignObject>
      <path stroke="#000" fill="#FDFFDF" d="M0,90H70l5,5l5,-5H250"/>
    </g>
  </g>
</g>
</svg>
