<svg version="1.1" xmlns="http://www.w3.org/2000/svg" xmlns:xlink="http://www.w3.org/1999/xlink" width="100%" height="100%" viewBox="0 0 1200.000 674.916">
<title>Quarterly sales of new heavy-duty vehicles: Poland</title>
<style type="text/css">
  #main {font-family:Helvetica,Arial,sans-serif; font-size:27.00px;
         fill-opacity:1; fill:#000000; stroke:none; stroke-linejoin:round; stroke-linecap:round; stroke-width:1.00;}
  a:hover {text-decoration: underline;}
  .marker {stroke-opacity:0;fill-opacity:0;}
  .marker:hover {stroke-opacity:0.5; fill-opacity:1;}
  .ticklabel {font-size:27.00px;fill:#808080;stroke:none;font-family:Helvetica}
  .ytl {text-anchor:end;}
  .dp1 {pointer-events:none;font-size:70%;text-anchor:middle;fill:#000000;}
  .dp2 {pointer-events:none;font-size:70%;text-anchor:middle;fill:#FFFFFF;}
  .numtip {pointer-events:none;}
  .cc {opacity:0.25;}
.dl_fe {background-color:#FDFFDF;display:flex;margin:auto;align-items:center}
.dl_fe_p {font-size:20px;text-align:center;margin:3px}
.dl_el {display:none;pointer-events:none;}
.cc:hover + .dl_el {display:block;}
text:hover + .dl_el {display:block;}
  #areas .pl {transition: all 0.2s ease;}
  #areas:hover .pl {opacity:0.5;}
  #areas:hover .thick {stroke-width:1;}
  #areas:hover .pg_1:hover .pl {opacity:1;}
  #areas:hover .pg_1:hover .pll {stroke-width:3;}
  #areas:hover .pg_1:hover .pldlm {stroke-width:2;}
  #areas:hover .pg_1:hover .thick {stroke-width:12;}
  #areas:hover .pg_2:hover .pl {opacity:1;}
  #areas:hover .pg_2:hover .pll {stroke-width:3;}
  #areas:hover .pg_2:hover .pldlm {stroke-width:2;}
  #areas:hover .pg_2:hover .thick {stroke-width:12;}
  #areas:hover .pg_3:hover .pl {opacity:1;}
  #areas:hover .pg_3:hover .pll {stroke-width:3;}
  #areas:hover .pg_3:hover .pldlm {stroke-width:2;}
  #areas:hover .pg_3:hover .thick {stroke-width:12;}
  #areas:hover .pg_4:hover .pl {opacity:1;}
  #areas:hover .pg_4:hover .pll {stroke-width:3;}
  #areas:hover .pg_4:hover .pldlm {stroke-width:2;}
  #areas:hover .pg_4:hover .thick {stroke-width:12;}
  #areas:hover .pg_5:hover .pl {opacity:1;}
  #areas:hover .pg_5:hover .pll {stroke-width:3;}
  #areas:hover .pg_5:hover .pldlm {stroke-width:2;}
  #areas:hover .pg_5:hover .thick {stroke-width:12;}
  #areas:hover .pg_6:hover .pl {opacity:1;}
  #areas:hover .pg_6:hover .pll {stroke-width:3;}
  #areas:hover .pg_6:hover .pldlm {stroke-width:2;}
  #areas:hover .pg_6:hover .thick {stroke-width:12;}
  #areas:hover .pg_7:hover .pl {opacity:1;}
  #areas:hover .pg_7:hover .pll {stroke-width:3;}
  #areas:hover .pg_7:hover .pldlm {stroke-width:2;}
  #areas:hover .pg_7:hover .thick {stroke-width:12;}
  #lines .pl {transition: all 0.2s ease;}
  #lines:hover .pl {opacity:0.3;}
  #lines:hover .thick {stroke-width:1;}
  #lines:hover .pl_1:hover .pl {opacity:1;}
  #lines:hover .pl_1:hover .pll {stroke-width:3;}
  #lines:hover .pl_1:hover .pldlm {stroke-width:2;}
  #lines:hover .pl_1:hover .thick {stroke-width:12;}
  #lines:hover .pl_2:hover .pl {opacity:1;}
  #lines:hover .pl_2:hover .pll {stroke-width:3;}
  #lines:hover .pl_2:hover .pldlm {stroke-width:2;}
  #lines:hover .pl_2:hover .thick {stroke-width:12;}
  #lines:hover .pl_3:hover .pl {opacity:1;}
  #lines:hover .pl_3:hover .pll {stroke-width:3;}
  #lines:hover .pl_3:hover .pldlm {stroke-width:2;}
  #lines:hover .pl_3:hover .thick {stroke-width:12;}
  #lines:hover .pl_4:hover .pl {opacity:1;}
  #lines:hover .pl_4:hover .pll {stroke-width:3;}
  #lines:hover .pl_4:hover .pldlm {stroke-width:2;}
  #lines:hover .pl_4:hover .thick {stroke-width:12;}
  #lines:hover .pl_5:hover .pl {opacity:1;}
  #lines:hover .pl_5:hover .pll {stroke-width:3;}
  #lines:hover .pl_5:hover .pldlm {stroke-width:2;}
  #lines:hover .pl_5:hover .thick {stroke-width:12;}
  #lines:hover .pl_6:hover .pl {opacity:1;}
  #lines:hover .pl_6:hover .pll {stroke-width:3;}
  #lines:hover .pl_6:hover .pldlm {stroke-width:2;}
  #lines:hover .pl_6:hover .thick {stroke-width:12;}
  #lines:hover .pl_7:hover .pl {opacity:1;}
  #lines:hover .pl_7:hover .pll {stroke-width:3;}
  #lines:hover .pl_7:hover .pldlm {stroke-width:2;}
  #lines:hover .pl_7:hover .thick {stroke-width:12;}
  #lines:hover .pl_8:hover .pl {opacity:1;}
  #lines:hover .pl_8:hover .pll {stroke-width:3;}
  #lines:hover .pl_8:hover .pldlm {stroke-width:2;}
  #lines:hover .pl_8:hover .thick {stroke-width:12;}
  #lines:hover .pl_9:hover .pl {opacity:1;}
  #lines:hover .pl_9:hover .pll {stroke-width:3;}
  #lines:hover .pl_9:hover .pldlm {stroke-width:2;}
  #lines:hover .pl_9:hover .thick {stroke-width:12;}
  #lines:hover .pl_10:hover .pl {opacity:1;}
  #lines:hover .pl_10:hover .pll {stroke-width:3;}
  #lines:hover .pl_10:hover .pldlm {stroke-width:2;}
  #lines:hover .pl_10:hover .thick {stroke-width:12;}
  #lines:hover .pl_11:hover .pl {opacity:1;}
  #lines:hover .pl_11:hover .pll {stroke-width:3;}
  #lines:hover .pl_11:hover .pldlm {stroke-width:2;}
  #lines:hover .pl_11:hover .thick {stroke-width:12;}
  #lines:hover .pl_12:hover .pl {opacity:1;}
  #lines:hover .pl_12:hover .pll {stroke-width:3;}
  #lines:hover .pl_12:hover .pldlm {stroke-width:2;}
  #lines:hover .pl_12:hover .thick {stroke-width:12;}
  #lines:hover .pl_13:hover .pl {opacity:1;}
  #lines:hover .pl_13:hover .pll {stroke-width:3;}
  #lines:hover .pl_13:hover .pldlm {stroke-width:2;}
  #lines:hover .pl_13:hover .thick {stroke-width:12;}
  #lines:hover .pl_14:hover .pl {opacity:1;}
  #lines:hover .pl_14:hover .pll {stroke-width:3;}
  #lines:hover .pl_14:hover .pldlm {stroke-width:2;}
  #lines:hover .pl_14:hover .thick {stroke-width:12;}
  #lines:hover .pl_15:hover .pl {opacity:1;}
  #lines:hover .pl_15:hover .pll {stroke-width:3;}
  #lines:hover .pl_15:hover .pldlm {stroke-width:2;}
  #lines:hover .pl_15:hover .thick {stroke-width:12;}
  #lines:hover .pl_16:hover .pl {opacity:1;}
  #lines:hover .pl_16:hover .pll {stroke-width:3;}
  #lines:hover .pl_16:hover .pldlm {stroke-width:2;}
  #lines:hover .pl_16:hover .thick {stroke-width:12;}
  #lines:hover .pl_17:hover .pl {opacity:1;}
  #lines:hover .pl_17:hover .pll {stroke-width:3;}
  #lines:hover .pl_17:hover .pldlm {stroke-width:2;}
  #lines:hover .pl_17:hover .thick {stroke-width:12;}
  #lines:hover .pl_18:hover .pl {opacity:1;}
  #lines:hover .pl_18:hover .pll {stroke-width:3;}
  #lines:hover .pl_18:hover .pldlm {stroke-width:2;}
  #lines:hover .pl_18:hover .thick {stroke-width:12;}
  #lines:hover .pl_19:hover .pl {opacity:1;}
  #lines:hover .pl_19:hover .pll {stroke-width:3;}
  #lines:hover .pl_19:hover .pldlm {stroke-width:2;}
  #lines:hover .pl_19:hover .thick {stroke-width:12;}
  #lines:hover .pl_20:hover .pl {opacity:1;}
  #lines:hover .pl_20:hover .pll {stroke-width:3;}
  #lines:hover .pl_20:hover .pldlm {stroke-width:2;}
  #lines:hover .pl_20:hover .thick {stroke-width:12;}
  #lines:hover .pl_21:hover .pl {opacity:1;}
  #lines:hover .pl_21:hover .pll {stroke-width:3;}
  #lines:hover .pl_21:hover .pldlm {stroke-width:2;}
  #lines:hover .pl_21:hover .thick {stroke-width:12;}
  #lines:hover .pl_22:hover .pl {opacity:1;}
  #lines:hover .pl_22:hover .pll {stroke-width:3;}
  #lines:hover .pl_22:hover .pldlm {stroke-width:2;}
  #lines:hover .pl_22:hover .thick {stroke-width:12;}
  #lines:hover .pl_23:hover .pl {opacity:1;}
  #lines:hover .pl_23:hover .pll {stroke-width:3;}
  #lines:hover .pl_23:hover .pldlm {stroke-width:2;}
  #lines:hover .pl_23:hover .thick {stroke-width:12;}
  #lines:hover .pl_24:hover .pl {opacity:1;}
  #lines:hover .pl_24:hover .pll {stroke-width:3;}
  #lines:hover .pl_24:hover .pldlm {stroke-width:2;}
  #lines:hover .pl_24:hover .thick {stroke-width:12;}
  #lines:hover .pl_25:hover .pl {opacity:1;}
  #lines:hover .pl_25:hover .pll {stroke-width:3;}
  #lines:hover .pl_25:hover .pldlm {stroke-width:2;}
  #lines:hover .pl_25:hover .thick {stroke-width:12;}
  #lines:hover .pl_26:hover .pl {opacity:1;}
  #lines:hover .pl_26:hover .pll {stroke-width:3;}
  #lines:hover .pl_26:hover .pldlm {stroke-width:2;}
  #lines:hover .pl_26:hover .thick {stroke-width:12;}
  #lines:hover .pl_27:hover .pl {opacity:1;}
  #lines:hover .pl_27:hover .pll {stroke-width:3;}
  #lines:hover .pl_27:hover .pldlm {stroke-width:2;}
  #lines:hover .pl_27:hover .thick {stroke-width:12;}
  #lines:hover .pl_28:hover .pl {opacity:1;}
  #lines:hover .pl_28:hover .pll {stroke-width:3;}
  #lines:hover .pl_28:hover .pldlm {stroke-width:2;}
  #lines:hover .pl_28:hover .thick {stroke-width:12;}
</style>
<defs>
  <clipPath id="axis_clip"><rect x="145.8" y="54.2" width="761.2" height="505.8" /></clipPath>
  <path id="line_y" d="M 0,53.993 v 506.187" stroke="#4D4D4D" stroke-opacity="0.15" stroke-width="1.00"/>
  <path id="line_x" d="M 145.600,0 h 761.600" stroke="#4D4D4D" stroke-opacity="0.15" stroke-width="1.00"/>
  <path id="tick_y" d="M 145.600,0 h -6.000" stroke="#808080" stroke-width="0.90"/>
  <path id="tick_x" d="M 0,560.180 v 6.000" stroke="#808080" stroke-width="0.90"/>
  <symbol id="line_1" viewBox="0 0 1200.000 674.916">
<polyline class="pl" points="145.6,204.2 145.6,271.0 209.1,271.0 209.1,227.3 272.5,227.3 272.5,342.7 336.0,342.7 336.0,278.6 399.5,278.6 399.5,307.3 462.9,307.3 462.9,211.3 526.4,211.3 526.4,292.3 589.9,292.3 589.9,243.8 653.3,243.8 653.3,232.8 716.8,232.8 716.8,155.0 780.3,155.0" stroke="#000" stroke-width="0.90" stroke-opacity="1.00" fill="none" clip-path="url(#axis_clip)"/>
  </symbol>
  <symbol id="line_2" viewBox="0 0 1200.000 674.916">
<polyline class="pl" points="145.6,207.0 145.6,272.3 209.1,272.3 209.1,228.8 272.5,228.8 272.5,343.5 336.0,343.5 336.0,280.3 399.5,280.3 399.5,309.1 462.9,309.1 462.9,213.0 526.4,213.0 526.4,293.5 589.9,293.5 589.9,246.7 653.3,246.7 653.3,235.9 716.8,235.9 716.8,157.6 780.3,157.6" stroke="#000" stroke-width="0.90" stroke-opacity="1.00" fill="none" clip-path="url(#axis_clip)"/>
  </symbol>
  <symbol id="line_3" viewBox="0 0 1200.000 674.916">
<polyline class="pl" points="145.6,207.7 145.6,273.1 209.1,273.1 209.1,229.9 272.5,229.9 272.5,344.0 336.0,344.0 336.0,281.0 399.5,281.0 399.5,309.9 462.9,309.9 462.9,213.8 526.4,213.8 526.4,295.0 589.9,295.0 589.9,248.4 653.3,248.4 653.3,237.1 716.8,237.1 716.8,159.1 780.3,159.1" stroke="#000" stroke-width="0.90" stroke-opacity="1.00" fill="none" clip-path="url(#axis_clip)"/>
  </symbol>
  <symbol id="line_4" viewBox="0 0 1200.000 674.916">
<polyline class="pl" points="145.6,207.7 145.6,273.1 209.1,273.1 209.1,229.9 272.5,229.9 272.5,344.0 336.0,344.0 336.0,281.0 399.5,281.0 399.5,309.9 462.9,309.9 462.9,213.8 526.4,213.8 526.4,295.0 589.9,295.0 589.9,248.4 653.3,248.4 653.3,237.1 716.8,237.1 716.8,159.1 780.3,159.1" stroke="#000" stroke-width="0.90" stroke-opacity="1.00" fill="none" clip-path="url(#axis_clip)"/>
  </symbol>
  <symbol id="line_5" viewBox="0 0 1200.000 674.916">
<polyline class="pl" points="145.6,207.7 145.6,273.1 209.1,273.1 209.1,229.9 272.5,229.9 272.5,344.0 336.0,344.0 336.0,281.0 399.5,281.0 399.5,309.9 462.9,309.9 462.9,213.8 526.4,213.8 526.4,295.0 589.9,295.0 589.9,248.4 653.3,248.4 653.3,237.1 716.8,237.1 716.8,159.1 780.3,159.1" stroke="#000" stroke-width="0.90" stroke-opacity="1.00" fill="none" clip-path="url(#axis_clip)"/>
  </symbol>
  <symbol id="line_6" viewBox="0 0 1200.000 674.916">
<polyline class="pl" points="145.6,207.7 145.6,273.1 209.1,273.1 209.1,229.9 272.5,229.9 272.5,344.0 336.0,344.0 336.0,281.0 399.5,281.0 399.5,309.9 462.9,309.9 462.9,213.8 526.4,213.8 526.4,295.0 589.9,295.0 589.9,248.4 653.3,248.4 653.3,237.1 716.8,237.1 716.8,159.1 780.3,159.1" stroke="#000" stroke-width="0.90" stroke-opacity="1.00" fill="none" clip-path="url(#axis_clip)"/>
  </symbol>
  <symbol id="line_7" viewBox="0 0 1200.000 674.916">
<polyline class="pl" points="145.6,207.7 145.6,273.1 209.1,273.1 209.1,229.9 272.5,229.9 272.5,344.0 336.0,344.0 336.0,281.0 399.5,281.0 399.5,309.9 462.9,309.9 462.9,213.8 526.4,213.8 526.4,295.0 589.9,295.0 589.9,248.4 653.3,248.4 653.3,237.1 716.8,237.1 716.8,159.1 780.3,159.1" stroke="#000" stroke-width="0.90" stroke-opacity="1.00" fill="none" clip-path="url(#axis_clip)"/>
  </symbol>
  <symbol id="line_8" viewBox="0 0 1200.000 674.916">
<polyline class="pl" points="145.6,207.0 145.6,272.3 209.1,272.3 209.1,228.8 272.5,228.8 272.5,343.5 336.0,343.5 336.0,280.3 399.5,280.3 399.5,309.1 462.9,309.1 462.9,213.0 526.4,213.0 526.4,293.5 589.9,293.5 589.9,246.7 653.3,246.7 653.3,235.9 716.8,235.9 716.8,157.6 780.3,157.6" stroke="#000" stroke-width="0.90" stroke-opacity="1.00" fill="none" clip-path="url(#axis_clip)"/>
  </symbol>
  <symbol id="line_9" viewBox="0 0 1200.000 674.916">
<polyline class="pl" points="145.6,207.7 145.6,273.1 209.1,273.1 209.1,229.9 272.5,229.9 272.5,344.0 336.0,344.0 336.0,281.0 399.5,281.0 399.5,309.9 462.9,309.9 462.9,213.8 526.4,213.8 526.4,295.0 589.9,295.0 589.9,248.4 653.3,248.4 653.3,237.1 716.8,237.1 716.8,159.1 780.3,159.1" stroke="#000" stroke-width="0.90" stroke-opacity="1.00" fill="none" clip-path="url(#axis_clip)"/>
  </symbol>
  <symbol id="line_10" viewBox="0 0 1200.000 674.916">
<polyline class="pl" points="145.6,207.7 145.6,273.1 209.1,273.1 209.1,229.9 272.5,229.9 272.5,344.0 336.0,344.0 336.0,281.0 399.5,281.0 399.5,309.9 462.9,309.9 462.9,213.8 526.4,213.8 526.4,295.0 589.9,295.0 589.9,248.4 653.3,248.4 653.3,237.1 716.8,237.1 716.8,159.1 780.3,159.1" stroke="#000" stroke-width="0.90" stroke-opacity="1.00" fill="none" clip-path="url(#axis_clip)"/>
  </symbol>
  <symbol id="line_11" viewBox="0 0 1200.000 674.916">
<polyline class="pl" points="145.6,207.7 145.6,273.1 209.1,273.1 209.1,229.9 272.5,229.9 272.5,344.0 336.0,344.0 336.0,281.0 399.5,281.0 399.5,309.9 462.9,309.9 462.9,213.8 526.4,213.8 526.4,295.0 589.9,295.0 589.9,248.4 653.3,248.4 653.3,237.1 716.8,237.1 716.8,159.1 780.3,159.1" stroke="#000" stroke-width="0.90" stroke-opacity="1.00" fill="none" clip-path="url(#axis_clip)"/>
  </symbol>
  <symbol id="line_12" viewBox="0 0 1200.000 674.916">
<polyline class="pl" points="145.6,207.7 145.6,273.1 209.1,273.1 209.1,229.9 272.5,229.9 272.5,344.0 336.0,344.0 336.0,281.0 399.5,281.0 399.5,309.9 462.9,309.9 462.9,213.8 526.4,213.8 526.4,295.0 589.9,295.0 589.9,248.4 653.3,248.4 653.3,237.1 716.8,237.1 716.8,159.1 780.3,159.1" stroke="#000" stroke-width="0.90" stroke-opacity="1.00" fill="none" clip-path="url(#axis_clip)"/>
  </symbol>
  <symbol id="line_13" viewBox="0 0 1200.000 674.916">
<polyline class="pl" points="145.6,207.7 145.6,273.1 209.1,273.1 209.1,229.9 272.5,229.9 272.5,344.0 336.0,344.0 336.0,281.0 399.5,281.0 399.5,309.9 462.9,309.9 462.9,213.8 526.4,213.8 526.4,295.0 589.9,295.0 589.9,248.4 653.3,248.4 653.3,237.1 716.8,237.1 716.8,159.1 780.3,159.1" stroke="#000" stroke-width="0.90" stroke-opacity="1.00" fill="none" clip-path="url(#axis_clip)"/>
  </symbol>
  <symbol id="line_14" viewBox="0 0 1200.000 674.916">
<polyline class="pl" points="145.6,207.7 145.6,273.1 209.1,273.1 209.1,229.9 272.5,229.9 272.5,344.0 336.0,344.0 336.0,281.0 399.5,281.0 399.5,309.9 462.9,309.9 462.9,213.8 526.4,213.8 526.4,295.0 589.9,295.0 589.9,248.4 653.3,248.4 653.3,237.1 716.8,237.1 716.8,159.1 780.3,159.1" stroke="#000" stroke-width="0.90" stroke-opacity="1.00" fill="none" clip-path="url(#axis_clip)"/>
  </symbol>
  <symbol id="line_15" viewBox="0 0 1200.000 674.916">
<polyline class="pl" points="145.6,207.7 145.6,273.1 209.1,273.1 209.1,229.9 272.5,229.9 272.5,344.0 336.0,344.0 336.0,281.0 399.5,281.0 399.5,309.9 462.9,309.9 462.9,213.8 526.4,213.8 526.4,295.0 589.9,295.0 589.9,248.4 653.3,248.4 653.3,237.1 716.8,237.1 716.8,159.1 780.3,159.1" stroke="#000" stroke-width="0.90" stroke-opacity="1.00" fill="none" clip-path="url(#axis_clip)"/>
  </symbol>
  <symbol id="line_16" viewBox="0 0 1200.000 674.916">
<polyline class="pl" points="145.6,207.7 145.6,273.1 209.1,273.1 209.1,229.9 272.5,229.9 272.5,344.0 336.0,344.0 336.0,281.0 399.5,281.0 399.5,309.9 462.9,309.9 462.9,213.8 526.4,213.8 526.4,295.0 589.9,295.0 589.9,248.4 653.3,248.4 653.3,237.1 716.8,237.1 716.8,159.1 780.3,159.1" stroke="#000" stroke-width="0.90" stroke-opacity="1.00" fill="none" clip-path="url(#axis_clip)"/>
  </symbol>
  <symbol id="line_17" viewBox="0 0 1200.000 674.916">
<polyline class="pl" points="145.6,207.7 145.6,273.1 209.1,273.1 209.1,229.9 272.5,229.9 272.5,344.0 336.0,344.0 336.0,281.0 399.5,281.0 399.5,309.9 462.9,309.9 462.9,213.8 526.4,213.8 526.4,295.0 589.9,295.0 589.9,248.4 653.3,248.4 653.3,237.1 716.8,237.1 716.8,159.1 780.3,159.1" stroke="#000" stroke-width="0.90" stroke-opacity="1.00" fill="none" clip-path="url(#axis_clip)"/>
  </symbol>
  <symbol id="line_18" viewBox="0 0 1200.000 674.916">
<polyline class="pl" points="145.6,207.7 145.6,273.1 209.1,273.1 209.1,229.9 272.5,229.9 272.5,344.0 336.0,344.0 336.0,281.0 399.5,281.0 399.5,309.9 462.9,309.9 462.9,213.8 526.4,213.8 526.4,295.0 589.9,295.0 589.9,248.4 653.3,248.4 653.3,237.1 716.8,237.1 716.8,159.1 780.3,159.1" stroke="#000" stroke-width="0.90" stroke-opacity="1.00" fill="none" clip-path="url(#axis_clip)"/>
  </symbol>
  <symbol id="line_19" viewBox="0 0 1200.000 674.916">
<polyline class="pl" points="145.6,207.7 145.6,273.1 209.1,273.1 209.1,229.9 272.5,229.9 272.5,344.0 336.0,344.0 336.0,281.0 399.5,281.0 399.5,309.9 462.9,309.9 462.9,213.8 526.4,213.8 526.4,295.0 589.9,295.0 589.9,248.4 653.3,248.4 653.3,237.1 716.8,237.1 716.8,159.1 780.3,159.1" stroke="#000" stroke-width="0.90" stroke-opacity="1.00" fill="none" clip-path="url(#axis_clip)"/>
  </symbol>
  <symbol id="line_20" viewBox="0 0 1200.000 674.916">
<polyline class="pl" points="145.6,207.7 145.6,273.1 209.1,273.1 209.1,229.9 272.5,229.9 272.5,344.0 336.0,344.0 336.0,281.0 399.5,281.0 399.5,309.9 462.9,309.9 462.9,213.8 526.4,213.8 526.4,295.0 589.9,295.0 589.9,248.4 653.3,248.4 653.3,237.1 716.8,237.1 716.8,159.1 780.3,159.1" stroke="#000" stroke-width="0.90" stroke-opacity="1.00" fill="none" clip-path="url(#axis_clip)"/>
  </symbol>
  <symbol id="line_21" viewBox="0 0 1200.000 674.916">
<polyline class="pl" points="145.6,207.7 145.6,273.1 209.1,273.1 209.1,229.9 272.5,229.9 272.5,344.0 336.0,344.0 336.0,281.0 399.5,281.0 399.5,309.9 462.9,309.9 462.9,213.8 526.4,213.8 526.4,295.0 589.9,295.0 589.9,248.4 653.3,248.4 653.3,237.1 716.8,237.1 716.8,159.1 780.3,159.1" stroke="#000" stroke-width="0.90" stroke-opacity="1.00" fill="none" clip-path="url(#axis_clip)"/>
  </symbol>
  <symbol id="line_22" viewBox="0 0 1200.000 674.916">
<polyline class="pl" points="145.6,207.7 145.6,273.1 209.1,273.1 209.1,229.9 272.5,229.9 272.5,344.0 336.0,344.0 336.0,281.0 399.5,281.0 399.5,309.9 462.9,309.9 462.9,213.8 526.4,213.8 526.4,295.0 589.9,295.0 589.9,248.4 653.3,248.4 653.3,237.1 716.8,237.1 716.8,159.1 780.3,159.1" stroke="#000" stroke-width="0.90" stroke-opacity="1.00" fill="none" clip-path="url(#axis_clip)"/>
  </symbol>
  <symbol id="line_23" viewBox="0 0 1200.000 674.916">
<polyline class="pl" points="145.6,207.7 145.6,273.1 209.1,273.1 209.1,229.9 272.5,229.9 272.5,344.0 336.0,344.0 336.0,281.0 399.5,281.0 399.5,309.9 462.9,309.9 462.9,213.8 526.4,213.8 526.4,295.0 589.9,295.0 589.9,248.4 653.3,248.4 653.3,237.1 716.8,237.1 716.8,159.1 780.3,159.1" stroke="#000" stroke-width="0.90" stroke-opacity="1.00" fill="none" clip-path="url(#axis_clip)"/>
  </symbol>
  <symbol id="line_24" viewBox="0 0 1200.000 674.916">
<polyline class="pl" points="145.6,207.7 145.6,273.1 209.1,273.1 209.1,229.9 272.5,229.9 272.5,344.0 336.0,344.0 336.0,281.0 399.5,281.0 399.5,309.9 462.9,309.9 462.9,213.8 526.4,213.8 526.4,295.0 589.9,295.0 589.9,248.4 653.3,248.4 653.3,237.1 716.8,237.1 716.8,159.1 780.3,159.1" stroke="#000" stroke-width="0.90" stroke-opacity="1.00" fill="none" clip-path="url(#axis_clip)"/>
  </symbol>
  <symbol id="line_25" viewBox="0 0 1200.000 674.916">
<polyline class="pl" points="145.6,207.7 145.6,273.1 209.1,273.1 209.1,229.9 272.5,229.9 272.5,344.0 336.0,344.0 336.0,281.0 399.5,281.0 399.5,309.9 462.9,309.9 462.9,213.8 526.4,213.8 526.4,295.0 589.9,295.0 589.9,248.4 653.3,248.4 653.3,237.1 716.8,237.1 716.8,159.1 780.3,159.1" stroke="#000" stroke-width="0.90" stroke-opacity="1.00" fill="none" clip-path="url(#axis_clip)"/>
  </symbol>
  <symbol id="line_26" viewBox="0 0 1200.000 674.916">
<polyline class="pl" points="145.6,207.7 145.6,273.1 209.1,273.1 209.1,229.9 272.5,229.9 272.5,344.0 336.0,344.0 336.0,281.0 399.5,281.0 399.5,309.9 462.9,309.9 462.9,213.8 526.4,213.8 526.4,295.0 589.9,295.0 589.9,248.4 653.3,248.4 653.3,237.1 716.8,237.1 716.8,159.1 780.3,159.1" stroke="#000" stroke-width="0.90" stroke-opacity="1.00" fill="none" clip-path="url(#axis_clip)"/>
  </symbol>
  <symbol id="line_27" viewBox="0 0 1200.000 674.916">
<polyline class="pl" points="145.6,207.7 145.6,273.1 209.1,273.1 209.1,229.9 272.5,229.9 272.5,344.0 336.0,344.0 336.0,281.0 399.5,281.0 399.5,309.9 462.9,309.9 462.9,213.8 526.4,213.8 526.4,295.0 589.9,295.0 589.9,248.4 653.3,248.4 653.3,237.1 716.8,237.1 716.8,159.1 780.3,159.1" stroke="#000" stroke-width="0.90" stroke-opacity="1.00" fill="none" clip-path="url(#axis_clip)"/>
  </symbol>
  <symbol id="line_28" viewBox="0 0 1200.000 674.916">
<polyline class="pl" points="145.6,207.7 145.6,273.1 209.1,273.1 209.1,229.9 272.5,229.9 272.5,344.0 336.0,344.0 336.0,281.0 399.5,281.0 399.5,309.9 462.9,309.9 462.9,213.8 526.4,213.8 526.4,295.0 589.9,295.0 589.9,248.4 653.3,248.4 653.3,237.1 716.8,237.1 716.8,159.1 780.3,159.1" stroke="#000" stroke-width="0.90" stroke-opacity="1.00" fill="none" clip-path="url(#axis_clip)"/>
  </symbol>
</defs>
<g id="main">
<text class="ticklabel ytl" transform="translate(128.8,568.3)">0</text>
<text class="ticklabel ytl" transform="translate(128.8,467.0)">5 000</text>
<text class="ticklabel ytl" transform="translate(128.8,365.8)">10 000</text>
<text class="ticklabel ytl" transform="translate(128.8,264.6)">15 000</text>
<text class="ticklabel ytl" transform="translate(128.8,163.3)">20 000</text>
<text class="ticklabel ytl" transform="translate(128.8,62.1)">25 000</text>
<g id="areas">
  <g class="pg_7">
    <polygon class="pl" points="18.7,560.2 82.1,560.2 82.1,560.2 145.6,204.2 145.6,271.0 209.1,271.0 209.1,227.3 272.5,227.3 272.5,342.7 336.0,342.7 336.0,278.6 399.5,278.6 399.5,307.3 462.9,307.3 462.9,211.3 526.4,211.3 526.4,292.3 589.9,292.3 589.9,243.8 653.3,243.8 653.3,232.8 716.8,232.8 716.8,155.0 780.3,155.0 780.3,157.6 716.8,157.6 716.8,235.9 653.3,235.9 653.3,246.7 589.9,246.7 589.9,293.5 526.4,293.5 526.4,213.0 462.9,213.0 462.9,309.1 399.5,309.1 399.5,280.3 336.0,280.3 336.0,343.5 272.5,343.5 272.5,228.8 209.1,228.8 209.1,272.3 145.6,272.3 145.6,207.0 82.1,560.2 82.1,560.2 18.7,560.2" stroke="none" stroke-width="0.9000"  fill="#828282" clip-path="url(#axis_clip)"/>
    <text class="pl" transform="translate(937.2,95.9)" dy="7.6" font-size="25.20" fill="#828282" stroke="none">Others</text>
<polyline class="pl" points="910.8,156.3 911.9,156.1 913.0,155.5 914.0,154.5 914.9,153.2 915.8,151.6 916.6,149.6 917.4,147.5 918.1,145.1 918.8,142.5 919.5,139.7 920.1,136.9 920.7,133.9 921.3,130.8 921.9,127.7 922.5,124.6 923.1,121.5 923.7,118.4 924.3,115.4 924.9,112.5 925.6,109.8 926.3,107.2 927.0,104.8 927.8,102.6 928.6,100.7 929.5,99.1 930.4,97.8 931.4,96.8 932.5,96.2 933.6,95.9" stroke="#828282" stroke-width="0.90" stroke-opacity="1.00" fill="none" />
  </g>
  <g class="pg_6">
    <polygon class="pl" points="18.7,560.2 82.1,560.2 82.1,560.2 145.6,207.0 145.6,272.3 209.1,272.3 209.1,228.8 272.5,228.8 272.5,343.5 336.0,343.5 336.0,280.3 399.5,280.3 399.5,309.1 462.9,309.1 462.9,213.0 526.4,213.0 526.4,293.5 589.9,293.5 589.9,246.7 653.3,246.7 653.3,235.9 716.8,235.9 716.8,157.6 780.3,157.6 780.3,159.1 716.8,159.1 716.8,237.1 653.3,237.1 653.3,248.4 589.9,248.4 589.9,295.0 526.4,295.0 526.4,213.8 462.9,213.8 462.9,309.9 399.5,309.9 399.5,281.0 336.0,281.0 336.0,344.0 272.5,344.0 272.5,229.9 209.1,229.9 209.1,273.1 145.6,273.1 145.6,207.7 82.1,560.2 82.1,560.2 18.7,560.2" stroke="none" stroke-width="0.9000"  fill="#6298C6" clip-path="url(#axis_clip)"/>
    <text class="pl" transform="translate(937.2,121.0)" dy="7.6" font-size="25.20" fill="#6298C6" stroke="none">Battery electric</text>
<polyline class="pl" points="910.8,158.4 911.9,158.3 913.0,157.9 914.0,157.3 914.9,156.5 915.8,155.4 916.6,154.2 917.4,152.9 918.1,151.4 918.8,149.8 919.5,148.1 920.1,146.3 920.7,144.5 921.3,142.6 921.9,140.7 922.5,138.7 923.1,136.8 923.7,134.9 924.3,133.0 924.9,131.3 925.6,129.6 926.3,128.0 927.0,126.5 927.8,125.1 928.6,123.9 929.5,122.9 930.4,122.1 931.4,121.5 932.5,121.1 933.6,121.0" stroke="#6298C6" stroke-width="0.90" stroke-opacity="1.00" fill="none" />
  </g>
  <g class="pg_5">
    <polygon class="pl" points="18.7,560.2 82.1,560.2 82.1,560.2 145.6,207.7 145.6,273.1 209.1,273.1 209.1,229.9 272.5,229.9 272.5,344.0 336.0,344.0 336.0,281.0 399.5,281.0 399.5,309.9 462.9,309.9 462.9,213.8 526.4,213.8 526.4,295.0 589.9,295.0 589.9,248.4 653.3,248.4 653.3,237.1 716.8,237.1 716.8,159.1 780.3,159.1 780.3,159.1 716.8,159.1 716.8,237.1 653.3,237.1 653.3,248.4 589.9,248.4 589.9,295.0 526.4,295.0 526.4,213.8 462.9,213.8 462.9,309.9 399.5,309.9 399.5,281.0 336.0,281.0 336.0,344.0 272.5,344.0 272.5,229.9 209.1,229.9 209.1,273.1 145.6,273.1 145.6,207.7 82.1,560.2 82.1,560.2 18.7,560.2" stroke="none" stroke-width="0.9000"  fill="#77AC30" clip-path="url(#axis_clip)"/>
    <text class="pl" transform="translate(937.2,146.0)" dy="7.6" font-size="25.20" fill="#77AC30" stroke="none">Plugin hybrid</text>
<polyline class="pl" points="910.8,159.1 911.9,159.1 913.0,159.0 914.0,158.7 914.9,158.5 915.8,158.1 916.6,157.7 917.4,157.2 918.1,156.7 918.8,156.1 919.5,155.5 920.1,154.9 920.7,154.3 921.3,153.6 921.9,152.9 922.5,152.2 923.1,151.6 923.7,150.9 924.3,150.3 924.9,149.6 925.6,149.0 926.3,148.5 927.0,147.9 927.8,147.5 928.6,147.1 929.5,146.7 930.4,146.4 931.4,146.2 932.5,146.1 933.6,146.0" stroke="#77AC30" stroke-width="0.90" stroke-opacity="1.00" fill="none" />
  </g>
  <g class="pg_4">
    <polygon class="pl" points="18.7,560.2 82.1,560.2 82.1,560.2 145.6,207.7 145.6,273.1 209.1,273.1 209.1,229.9 272.5,229.9 272.5,344.0 336.0,344.0 336.0,281.0 399.5,281.0 399.5,309.9 462.9,309.9 462.9,213.8 526.4,213.8 526.4,295.0 589.9,295.0 589.9,248.4 653.3,248.4 653.3,237.1 716.8,237.1 716.8,159.1 780.3,159.1 780.3,159.1 716.8,159.1 716.8,237.1 653.3,237.1 653.3,248.4 589.9,248.4 589.9,295.0 526.4,295.0 526.4,213.8 462.9,213.8 462.9,309.9 399.5,309.9 399.5,281.0 336.0,281.0 336.0,344.0 272.5,344.0 272.5,229.9 209.1,229.9 209.1,273.1 145.6,273.1 145.6,207.7 82.1,560.2 82.1,560.2 18.7,560.2" stroke="none" stroke-width="0.9000"  fill="#919452" clip-path="url(#axis_clip)"/>
    <text class="pl" transform="translate(937.2,171.1)" dy="7.6" font-size="25.20" fill="#919452" stroke="none">Non-plugin hybrid</text>
<polyline class="pl" points="910.8,159.1 911.9,159.2 913.0,159.3 914.0,159.5 914.9,159.8 915.8,160.1 916.6,160.5 917.4,160.9 918.1,161.4 918.8,161.9 919.5,162.4 920.1,163.0 920.7,163.6 921.3,164.2 921.9,164.8 922.5,165.4 923.1,166.0 923.7,166.6 924.3,167.2 924.9,167.8 925.6,168.3 926.3,168.8 927.0,169.3 927.8,169.7 928.6,170.1 929.5,170.4 930.4,170.7 931.4,170.9 932.5,171.0 933.6,171.1" stroke="#919452" stroke-width="0.90" stroke-opacity="1.00" fill="none" />
  </g>
  <g class="pg_3">
    <polygon class="pl" points="18.7,560.2 82.1,560.2 82.1,560.2 145.6,207.7 145.6,273.1 209.1,273.1 209.1,229.9 272.5,229.9 272.5,344.0 336.0,344.0 336.0,281.0 399.5,281.0 399.5,309.9 462.9,309.9 462.9,213.8 526.4,213.8 526.4,295.0 589.9,295.0 589.9,248.4 653.3,248.4 653.3,237.1 716.8,237.1 716.8,159.1 780.3,159.1 780.3,159.1 716.8,159.1 716.8,237.1 653.3,237.1 653.3,248.4 589.9,248.4 589.9,295.0 526.4,295.0 526.4,213.8 462.9,213.8 462.9,309.9 399.5,309.9 399.5,281.0 336.0,281.0 336.0,344.0 272.5,344.0 272.5,229.9 209.1,229.9 209.1,273.1 145.6,273.1 145.6,207.7 82.1,560.2 82.1,560.2 18.7,560.2" stroke="none" stroke-width="0.9000"  fill="#85578F" clip-path="url(#axis_clip)"/>
    <text class="pl" transform="translate(937.2,196.1)" dy="7.6" font-size="25.20" fill="#85578F" stroke="none">LPG</text>
<polyline class="pl" points="910.8,159.1 911.9,159.3 913.0,159.6 914.0,160.2 914.9,161.1 915.8,162.1 916.6,163.2 917.4,164.6 918.1,166.0 918.8,167.6 919.5,169.3 920.1,171.1 920.7,172.9 921.3,174.8 921.9,176.7 922.5,178.6 923.1,180.5 923.7,182.4 924.3,184.2 924.9,186.0 925.6,187.6 926.3,189.2 927.0,190.7 927.8,192.0 928.6,193.2 929.5,194.2 930.4,195.0 931.4,195.6 932.5,196.0 933.6,196.1" stroke="#85578F" stroke-width="0.90" stroke-opacity="1.00" fill="none" />
  </g>
  <g class="pg_2">
    <polygon class="pl" points="18.7,560.2 82.1,560.2 82.1,560.2 145.6,207.7 145.6,273.1 209.1,273.1 209.1,229.9 272.5,229.9 272.5,344.0 336.0,344.0 336.0,281.0 399.5,281.0 399.5,309.9 462.9,309.9 462.9,213.8 526.4,213.8 526.4,295.0 589.9,295.0 589.9,248.4 653.3,248.4 653.3,237.1 716.8,237.1 716.8,159.1 780.3,159.1 780.3,159.1 716.8,159.1 716.8,237.1 653.3,237.1 653.3,248.4 589.9,248.4 589.9,295.0 526.4,295.0 526.4,213.8 462.9,213.8 462.9,309.9 399.5,309.9 399.5,281.0 336.0,281.0 336.0,344.0 272.5,344.0 272.5,229.9 209.1,229.9 209.1,273.1 145.6,273.1 145.6,207.7 82.1,560.2 82.1,560.2 18.7,560.2" stroke="none" stroke-width="0.9000"  fill="#7B553E" clip-path="url(#axis_clip)"/>
    <text class="pl" transform="translate(937.2,221.1)" dy="7.6" font-size="25.20" fill="#7B553E" stroke="none">Petrol</text>
<polyline class="pl" points="910.8,159.1 911.9,159.4 913.0,160.0 914.0,161.0 914.9,162.4 915.8,164.0 916.6,166.0 917.4,168.2 918.1,170.7 918.8,173.3 919.5,176.2 920.1,179.1 920.7,182.2 921.3,185.3 921.9,188.5 922.5,191.7 923.1,194.9 923.7,198.1 924.3,201.1 924.9,204.1 925.6,206.9 926.3,209.6 927.0,212.1 927.8,214.3 928.6,216.3 929.5,217.9 930.4,219.3 931.4,220.3 932.5,220.9 933.6,221.1" stroke="#7B553E" stroke-width="0.90" stroke-opacity="1.00" fill="none" />
  </g>
  <g class="pg_1">
    <polygon class="pl" points="18.7,560.2 82.1,560.2 82.1,560.2 145.6,207.7 145.6,273.1 209.1,273.1 209.1,229.9 272.5,229.9 272.5,344.0 336.0,344.0 336.0,281.0 399.5,281.0 399.5,309.9 462.9,309.9 462.9,213.8 526.4,213.8 526.4,295.0 589.9,295.0 589.9,248.4 653.3,248.4 653.3,237.1 716.8,237.1 716.8,159.1 780.3,159.1 780.3,560.2 18.7,560.2" stroke="none" stroke-width="0.9000"  fill="#7B6E57" clip-path="url(#axis_clip)"/>
    <text class="pl" transform="translate(937.2,359.7)" dy="7.6" font-size="25.20" fill="#7B6E57" stroke="none">Diesel</text>
  </g>
</g>
<g id="lines">
  <g class="pl_1">
    <use xlink:href="#line_1" class="thick" stroke="#000" stroke-width="3" opacity="0"/>
    <use xlink:href="#line_1" class="pl pll" stroke="#000" stroke-width="0.90"/>
  </g>
  <g class="pl_2">
    <use xlink:href="#line_2" class="thick" stroke="#000" stroke-width="3" opacity="0"/>
    <use xlink:href="#line_2" class="pl pll" stroke="#000" stroke-width="0.90"/>
  </g>
  <g class="pl_3">
    <use xlink:href="#line_3" class="thick" stroke="#000" stroke-width="3" opacity="0"/>
    <use xlink:href="#line_3" class="pl pll" stroke="#000" stroke-width="0.90"/>
  </g>
  <g class="pl_4">
    <use xlink:href="#line_4" class="thick" stroke="#000" stroke-width="3" opacity="0"/>
    <use xlink:href="#line_4" class="pl pll" stroke="#000" stroke-width="0.90"/>
  </g>
  <g class="pl_5">
    <use xlink:href="#line_5" class="thick" stroke="#000" stroke-width="3" opacity="0"/>
    <use xlink:href="#line_5" class="pl pll" stroke="#000" stroke-width="0.90"/>
  </g>
  <g class="pl_6">
    <use xlink:href="#line_6" class="thick" stroke="#000" stroke-width="3" opacity="0"/>
    <use xlink:href="#line_6" class="pl pll" stroke="#000" stroke-width="0.90"/>
  </g>
  <g class="pl_7">
    <use xlink:href="#line_7" class="thick" stroke="#000" stroke-width="3" opacity="0"/>
    <use xlink:href="#line_7" class="pl pll" stroke="#000" stroke-width="0.90"/>
  </g>
  <g class="pl_8">
    <use xlink:href="#line_8" class="thick" stroke="#000" stroke-width="3" opacity="0"/>
    <use xlink:href="#line_8" class="pl pll" stroke="#000" stroke-width="0.90"/>
  </g>
  <g class="pl_9">
    <use xlink:href="#line_9" class="thick" stroke="#000" stroke-width="3" opacity="0"/>
    <use xlink:href="#line_9" class="pl pll" stroke="#000" stroke-width="0.90"/>
  </g>
  <g class="pl_10">
    <use xlink:href="#line_10" class="thick" stroke="#000" stroke-width="3" opacity="0"/>
    <use xlink:href="#line_10" class="pl pll" stroke="#000" stroke-width="0.90"/>
  </g>
  <g class="pl_11">
    <use xlink:href="#line_11" class="thick" stroke="#000" stroke-width="3" opacity="0"/>
    <use xlink:href="#line_11" class="pl pll" stroke="#000" stroke-width="0.90"/>
  </g>
  <g class="pl_12">
    <use xlink:href="#line_12" class="thick" stroke="#000" stroke-width="3" opacity="0"/>
    <use xlink:href="#line_12" class="pl pll" stroke="#000" stroke-width="0.90"/>
  </g>
  <g class="pl_13">
    <use xlink:href="#line_13" class="thick" stroke="#000" stroke-width="3" opacity="0"/>
    <use xlink:href="#line_13" class="pl pll" stroke="#000" stroke-width="0.90"/>
  </g>
  <g class="pl_14">
    <use xlink:href="#line_14" class="thick" stroke="#000" stroke-width="3" opacity="0"/>
    <use xlink:href="#line_14" class="pl pll" stroke="#000" stroke-width="0.90"/>
  </g>
  <g class="pl_15">
    <use xlink:href="#line_15" class="thick" stroke="#000" stroke-width="3" opacity="0"/>
    <use xlink:href="#line_15" class="pl pll" stroke="#000" stroke-width="0.90"/>
  </g>
  <g class="pl_16">
    <use xlink:href="#line_16" class="thick" stroke="#000" stroke-width="3" opacity="0"/>
    <use xlink:href="#line_16" class="pl pll" stroke="#000" stroke-width="0.90"/>
  </g>
  <g class="pl_17">
    <use xlink:href="#line_17" class="thick" stroke="#000" stroke-width="3" opacity="0"/>
    <use xlink:href="#line_17" class="pl pll" stroke="#000" stroke-width="0.90"/>
  </g>
  <g class="pl_18">
    <use xlink:href="#line_18" class="thick" stroke="#000" stroke-width="3" opacity="0"/>
    <use xlink:href="#line_18" class="pl pll" stroke="#000" stroke-width="0.90"/>
  </g>
  <g class="pl_19">
    <use xlink:href="#line_19" class="thick" stroke="#000" stroke-width="3" opacity="0"/>
    <use xlink:href="#line_19" class="pl pll" stroke="#000" stroke-width="0.90"/>
  </g>
  <g class="pl_20">
    <use xlink:href="#line_20" class="thick" stroke="#000" stroke-width="3" opacity="0"/>
    <use xlink:href="#line_20" class="pl pll" stroke="#000" stroke-width="0.90"/>
  </g>
  <g class="pl_21">
    <use xlink:href="#line_21" class="thick" stroke="#000" stroke-width="3" opacity="0"/>
    <use xlink:href="#line_21" class="pl pll" stroke="#000" stroke-width="0.90"/>
  </g>
  <g class="pl_22">
    <use xlink:href="#line_22" class="thick" stroke="#000" stroke-width="3" opacity="0"/>
    <use xlink:href="#line_22" class="pl pll" stroke="#000" stroke-width="0.90"/>
  </g>
  <g class="pl_23">
    <use xlink:href="#line_23" class="thick" stroke="#000" stroke-width="3" opacity="0"/>
    <use xlink:href="#line_23" class="pl pll" stroke="#000" stroke-width="0.90"/>
  </g>
  <g class="pl_24">
    <use xlink:href="#line_24" class="thick" stroke="#000" stroke-width="3" opacity="0"/>
    <use xlink:href="#line_24" class="pl pll" stroke="#000" stroke-width="0.90"/>
  </g>
  <g class="pl_25">
    <use xlink:href="#line_25" class="thick" stroke="#000" stroke-width="3" opacity="0"/>
    <use xlink:href="#line_25" class="pl pll" stroke="#000" stroke-width="0.90"/>
  </g>
  <g class="pl_26">
    <use xlink:href="#line_26" class="thick" stroke="#000" stroke-width="3" opacity="0"/>
    <use xlink:href="#line_26" class="pl pll" stroke="#000" stroke-width="0.90"/>
  </g>
  <g class="pl_27">
    <use xlink:href="#line_27" class="thick" stroke="#000" stroke-width="3" opacity="0"/>
    <use xlink:href="#line_27" class="pl pll" stroke="#000" stroke-width="0.90"/>
  </g>
  <g class="pl_28">
    <use xlink:href="#line_28" class="thick" stroke="#000" stroke-width="3" opacity="0"/>
    <use xlink:href="#line_28" class="pl pll" stroke="#000" stroke-width="0.90"/>
  </g>
</g>
    <text class="pl" transform="translate(272.5,573.0) rotate(-90)" dy="8.1" font-size="27.00" fill="#808080" stroke="none" text-anchor="end">2024</text>
    <text class="pl" transform="translate(526.4,573.0) rotate(-90)" dy="8.1" font-size="27.00" fill="#808080" stroke="none" text-anchor="end">2025</text>
    <text class="pl" transform="translate(780.3,573.0) rotate(-90)" dy="8.1" font-size="27.00" fill="#808080" stroke="none" text-anchor="end">2026</text>
    <text class="pl" transform="translate(145.6,47.2)" dy="0.0" font-size="27.00" fill="#808080" stroke="none">Quarterly sales of new heavy-duty vehicles: Poland</text>
<text transform="translate(157.6,666.1)" font-size="19.80" font-family="Helvetica" fill="#BFBFBF" stroke="none" xml:space="preserve"><a href="https://bsky.app/profile/robbieandrew.bsky.social" style="fill:#BFBFBF" target="_blank">@robbieandrew.bsky.social</a>   &#9679;   Data: PZPM   &#9679;   Through June 2026</text>
<text class="twitlink" transform="translate(157.6,666.1)" opacity="0" font-size="19.80" fill="#BFBFBF" stroke="none" xml:space="preserve"><a href="https://bsky.app/profile/robbieandrew.bsky.social" style="fill:#BFBFBF" target="_blank">@robbieandrew.bsky.social</a></text>
  <g class="dl_el" transform="translate(154.6,578.4)">
    <g class="dl_el_balloon">
      <foreignObject x="0" y="0" width="120" height="500">
      <div xmlns="http://www.w3.org/1999/xhtml" class="dl_fe" style="height:60px">
      <p class="dl_fe_p">Find me on BlueSky</p>
      </div>
	    </foreignObject>
      <path stroke="#000" fill="#FDFFDF" d="M0,60H60l5,5l5,-5H120"/>
    </g>
  </g>
<use xlink:href="#line_y" transform="translate(145.6,0)"/>
<use xlink:href="#line_y" transform="translate(399.5,0)"/>
<use xlink:href="#line_y" transform="translate(653.3,0)"/>
<use xlink:href="#line_y" transform="translate(907.2,0)"/>
<use xlink:href="#line_x" transform="translate(0,560.2)"/>
<use xlink:href="#line_x" transform="translate(0,458.9)"/>
<use xlink:href="#line_x" transform="translate(0,357.7)"/>
<use xlink:href="#line_x" transform="translate(0,256.5)"/>
<use xlink:href="#line_x" transform="translate(0,155.2)"/>
<use xlink:href="#line_x" transform="translate(0,54.0)"/>
<use xlink:href="#tick_x" transform="translate(145.6,0)"/>
<use xlink:href="#tick_x" transform="translate(399.5,0)"/>
<use xlink:href="#tick_x" transform="translate(653.3,0)"/>
<use xlink:href="#tick_x" transform="translate(907.2,0)"/>
<use xlink:href="#tick_y" transform="translate(0,560.2)"/>
<use xlink:href="#tick_y" transform="translate(0,458.9)"/>
<use xlink:href="#tick_y" transform="translate(0,357.7)"/>
<use xlink:href="#tick_y" transform="translate(0,256.5)"/>
<use xlink:href="#tick_y" transform="translate(0,155.2)"/>
<use xlink:href="#tick_y" transform="translate(0,54.0)"/>
<polyline points="145.6,53.993 145.6,560.180 907.2,560.180" stroke="#808080" stroke-width="0.90" fill="none"/>
<g>
<a href="https://creativecommons.org/licenses/by/4.0/" target="_blank">
  <rect x="123.0" y="651.4" width="34" height="17" fill="#FFF" stroke="none" opacity="0.01"/>
  <g transform="translate(124.0,652.4) scale(0.24)">
  <g><circle fill="#FFF" cx="37.79" cy="28.5" r="28.84"/>
     <circle fill="none" cx="37.79" cy="28.5" r="28.84" stroke="#BFBFBF" stroke-width="5.5"/>
     <path fill="#BFBFBF" d="M37.16,23.19 l-4.29,2.23c-0.458-0.951-1.02-1.62-1.69-2c-0.667-0.38-1.29-0.571-1.86-0.571c-2.86,0-4.29,1.89-4.29,5.66 c0,1.71,0.36,3.08,1.09,4.11c0.724,1.03,1.79,1.54,3.2,1.54c1.87,0,3.18-0.915,3.94-2.74l3.94,2 c-0.838,1.56-2,2.79-3.49,3.69c-1.48,0.896-3.12,1.34-4.91,1.34c-2.86,0-5.16-0.875-6.92-2.63 c-1.75-1.75-2.63-4.19-2.63-7.31c0-3.05,0.886-5.47,2.66-7.26c1.77-1.79,4.01-2.69,6.72-2.69 C32.6,18.56,35.44,20.1,37.16,23.19z
              M55.61,23.19l-4.23,2.23c-0.457-0.951-1.02-1.62-1.69-2 c-0.668-0.38-1.31-0.571-1.91-0.571c-2.86,0-4.29,1.89-4.29,5.66c0,1.71,0.363,3.08,1.09,4.11 c0.723,1.03,1.79,1.54,3.2,1.54c1.87,0,3.18-0.915,3.94-2.74l4,2c-0.875,1.56-2.06,2.79-3.54,3.69 c-1.49,0.9-3.11,1.34-4.86,1.34c-2.9,0-5.21-0.875-6.94-2.63c-1.74-1.75-2.6-4.19-2.6-7.31 c0-3.05,0.885-5.47,2.66-7.26c1.77-1.79,4.01-2.69,6.71-2.69C51.12,18.56,53.944,20.1,55.61,23.19z"/>
  </g></g>
  <g transform="translate(140.2,652.4) scale(0.24)">
  <g><circle fill="#FFF" cx="37.79" cy="28.5" r="28.84"/>
     <circle fill="none" cx="37.79" cy="28.5" r="28.84" stroke="#BFBFBF" stroke-width="5.5"/>
     <path fill="#BFBFBF" d="M46.129,20.557v13.085h-3.656v15.542h-9.944V33.643h-3.656V20.557 c0-0.572,0.2-1.057,0.599-1.457c0.401-0.399,0.887-0.6,1.457-0.6h13.144c0.533,0,1.01,0.2,1.428,0.6 C45.918,19.5,46.129,19.986,46.129,20.557z
              M33.042,12.329c0-3.008,1.485-4.514,4.458-4.514s4.457,1.504,4.457,4.514 c0,2.971-1.486,4.457-4.457,4.457S33.042,15.3,33.042,12.329z"/>
  </g></g>
  </a>
</g>
  <g class="dl_el" transform="translate(69.1,548.4)">
    <g class="dl_el_balloon">
      <foreignObject x="0" y="0" width="250" height="500">
      <div xmlns="http://www.w3.org/1999/xhtml" class="dl_fe" style="height:90px">
      <p class="dl_fe_p">CC-BY: Material may be freely re-used as long as you credit the author</p>
      </div>
	    </foreignObject>
      <path stroke="#000" fill="#FDFFDF" d="M0,90H70l5,5l5,-5H250"/>
    </g>
  </g>
</g>
</svg>
