<svg version="1.1" xmlns="http://www.w3.org/2000/svg" xmlns:xlink="http://www.w3.org/1999/xlink" width="100%" height="100%" viewBox="0 0 1200.000 674.916">
<title>Annual LULUCF emissions: Venezuela</title>
<style type="text/css">
  #main {font-family:Helvetica,Arial,sans-serif; font-size:27.00px;
         fill-opacity:1; fill:#000000; stroke:none; stroke-linejoin:round; stroke-linecap:round; stroke-width:1.00;}
  .marker {stroke-opacity:0;fill-opacity:0;}
  .marker:hover {stroke-opacity:0.5; fill-opacity:1;}
  .ticklabel {font-size:27.00px;fill:#808080;stroke:none;font-family:Helvetica}
  .ytl {text-anchor:end;}
  .dp1 {pointer-events:none;font-size:70%;text-anchor:middle;fill:#000000;}
  .dp2 {pointer-events:none;font-size:70%;text-anchor:middle;fill:#FFFFFF;}
  .numtip {pointer-events:none;}
  .cc {opacity:0.25;}
.dl_fe {background-color:#FDFFDF;display:flex;margin:auto;align-items:center}
.dl_fe_p {font-size:20px;text-align:center;margin:3px}
.dl_el {display:none;pointer-events:none;}
.cc:hover + .dl_el {display:block;}
text:hover + .dl_el {display:block;}
</style>
<defs>
  <clipPath id="axis_clip"><rect x="145.8" y="54.2" width="761.2" height="532.8" /></clipPath>
  <path id="line_x" d="M 145.600,0 h 761.600" stroke="#262626" stroke-opacity="0.15" stroke-width="1.00"/>
  <path id="tick_y" d="M 145.600,0 h -6.000" stroke="#808080" stroke-width="0.90"/>
  <path id="tick_x" d="M 0,587.177 v 6.000" stroke="#808080" stroke-width="0.90"/>
</defs>
<g id="main">
<use xlink:href="#line_x" transform="translate(0,520.5)"/>
<use xlink:href="#line_x" transform="translate(0,387.2)"/>
<use xlink:href="#line_x" transform="translate(0,253.9)"/>
<use xlink:href="#line_x" transform="translate(0,120.6)"/>
<use xlink:href="#tick_y" transform="translate(0,520.5)"/>
<use xlink:href="#tick_y" transform="translate(0,387.2)"/>
<use xlink:href="#tick_y" transform="translate(0,253.9)"/>
<use xlink:href="#tick_y" transform="translate(0,120.6)"/>
<use xlink:href="#tick_x" transform="translate(157.1,0)"/>
<use xlink:href="#tick_x" transform="translate(272.5,0)"/>
<use xlink:href="#tick_x" transform="translate(387.9,0)"/>
<use xlink:href="#tick_x" transform="translate(503.3,0)"/>
<use xlink:href="#tick_x" transform="translate(618.7,0)"/>
<use xlink:href="#tick_x" transform="translate(734.1,0)"/>
<use xlink:href="#tick_x" transform="translate(895.7,0)"/>
<polyline points="145.6,53.993 145.6,587.177 907.2,587.177" stroke="#808080" stroke-width="0.90" fill="none"/>
<text class="ticklabel xtl" transform="translate(157.1,629.0)" text-anchor="middle">1990</text>
<text class="ticklabel xtl" transform="translate(272.5,629.0)" text-anchor="middle">1995</text>
<text class="ticklabel xtl" transform="translate(387.9,629.0)" text-anchor="middle">2000</text>
<text class="ticklabel xtl" transform="translate(503.3,629.0)" text-anchor="middle">2005</text>
<text class="ticklabel xtl" transform="translate(618.7,629.0)" text-anchor="middle">2010</text>
<text class="ticklabel xtl" transform="translate(734.1,629.0)" text-anchor="middle">2015</text>
<text class="ticklabel xtl" transform="translate(895.7,629.0)" text-anchor="middle">2022</text>
<text class="ticklabel ytl" transform="translate(128.8,528.6)">-300</text>
<text class="ticklabel ytl" transform="translate(128.8,395.3)">-200</text>
<text class="ticklabel ytl" transform="translate(128.8,262.0)">-100</text>
<text class="ticklabel ytl" transform="translate(128.8,128.7)">0 Mt</text>
<g stroke="#000" stroke-width="0.90" fill="#1A4D1A"  clip-path="url(#axis_clip)">
</g>
<g stroke="#000" stroke-width="0.90" fill="#8B1E40"  clip-path="url(#axis_clip)">
  <polygon class="pl" points="286.4,120.3 286.4,120.6 304.8,120.6 304.8,120.3 286.4,120.3"/>
  <polygon class="pl" points="355.6,120.6 355.6,120.6 374.1,120.6 374.1,120.6 355.6,120.6"/>
  <polygon class="pl" points="378.7,120.2 378.7,120.6 397.2,120.6 397.2,120.2 378.7,120.2"/>
  <polygon class="pl" points="424.9,106.9 424.9,107.4 443.3,107.4 443.3,106.9 424.9,106.9"/>
  <polygon class="pl" points="447.9,88.1 447.9,88.4 466.4,88.4 466.4,88.1 447.9,88.1"/>
  <polygon class="pl" points="609.5,97.7 609.5,98.0 627.9,98.0 627.9,97.7 609.5,97.7"/>
  <polygon class="pl" points="632.6,110.9 632.6,111.2 651.0,111.2 651.0,110.9 632.6,110.9"/>
  <polygon class="pl" points="655.6,108.5 655.6,108.8 674.1,108.8 674.1,108.5 655.6,108.5"/>
  <polygon class="pl" points="701.8,94.1 701.8,94.2 720.3,94.2 720.3,94.1 701.8,94.1"/>
  <polygon class="pl" points="724.9,101.0 724.9,101.5 743.3,101.5 743.3,101.0 724.9,101.0"/>
  <polygon class="pl" points="748.0,99.3 748.0,100.0 766.4,100.0 766.4,99.3 748.0,99.3"/>
  <polygon class="pl" points="771.0,103.8 771.0,104.4 789.5,104.4 789.5,103.8 771.0,103.8"/>
  <polygon class="pl" points="794.1,91.2 794.1,91.8 812.6,91.8 812.6,91.2 794.1,91.2"/>
  <polygon class="pl" points="817.2,80.1 817.2,80.6 835.7,80.6 835.7,80.1 817.2,80.1"/>
  <polygon class="pl" points="840.3,71.3 840.3,71.8 858.7,71.8 858.7,71.3 840.3,71.3"/>
  <polygon class="pl" points="863.4,100.0 863.4,100.4 881.8,100.4 881.8,100.0 863.4,100.0"/>
  <polygon class="pl" points="886.4,78.0 886.4,78.3 904.9,78.3 904.9,78.0 886.4,78.0"/>
</g>
<g stroke="#000" stroke-width="0.90" fill="#7B417F"  clip-path="url(#axis_clip)">
  <polygon class="pl" points="332.5,111.9 332.5,120.6 351.0,120.6 351.0,111.9 332.5,111.9"/>
  <polygon class="pl" points="424.9,107.4 424.9,108.2 443.3,108.2 443.3,107.4 424.9,107.4"/>
  <polygon class="pl" points="517.2,100.1 517.2,100.5 535.6,100.5 535.6,100.1 517.2,100.1"/>
  <polygon class="pl" points="609.5,98.0 609.5,98.2 627.9,98.2 627.9,98.0 609.5,98.0"/>
  <polygon class="pl" points="701.8,94.2 701.8,94.5 720.3,94.5 720.3,94.2 701.8,94.2"/>
  <polygon class="pl" points="794.1,91.8 794.1,92.0 812.6,92.0 812.6,91.8 794.1,91.8"/>
  <polygon class="pl" points="886.4,78.3 886.4,78.3 904.9,78.3 904.9,78.3 886.4,78.3"/>
</g>
<g stroke="#000" stroke-width="0.90" fill="#EDB120"  clip-path="url(#axis_clip)">
  <polygon class="pl" points="171.0,120.5 171.0,120.5 189.4,120.5 189.4,120.5 171.0,120.5"/>
</g>
<g stroke="#000" stroke-width="0.90" fill="#D95319"  clip-path="url(#axis_clip)">
  <polygon class="pl" points="401.8,100.7 401.8,108.4 420.2,108.4 420.2,100.7 401.8,100.7"/>
  <polygon class="pl" points="424.9,108.2 424.9,115.3 443.3,115.3 443.3,108.2 424.9,108.2"/>
  <polygon class="pl" points="447.9,88.4 447.9,100.4 466.4,100.4 466.4,88.4 447.9,88.4"/>
  <polygon class="pl" points="471.0,103.5 471.0,114.6 489.5,114.6 489.5,103.5 471.0,103.5"/>
  <polygon class="pl" points="494.1,97.0 494.1,110.1 512.6,110.1 512.6,97.0 494.1,97.0"/>
  <polygon class="pl" points="517.2,100.5 517.2,111.2 535.6,111.2 535.6,100.5 517.2,100.5"/>
  <polygon class="pl" points="540.2,97.0 540.2,109.9 558.7,109.9 558.7,97.0 540.2,97.0"/>
  <polygon class="pl" points="563.3,98.9 563.3,109.2 581.8,109.2 581.8,98.9 563.3,98.9"/>
  <polygon class="pl" points="586.4,100.4 586.4,110.7 604.9,110.7 604.9,100.4 586.4,100.4"/>
  <polygon class="pl" points="609.5,98.2 609.5,107.3 627.9,107.3 627.9,98.2 609.5,98.2"/>
  <polygon class="pl" points="632.6,111.2 632.6,117.1 651.0,117.1 651.0,111.2 632.6,111.2"/>
  <polygon class="pl" points="655.6,108.8 655.6,116.0 674.1,116.0 674.1,108.8 655.6,108.8"/>
  <polygon class="pl" points="678.7,97.6 678.7,109.3 697.2,109.3 697.2,97.6 678.7,97.6"/>
  <polygon class="pl" points="701.8,94.5 701.8,106.3 720.3,106.3 720.3,94.5 701.8,94.5"/>
  <polygon class="pl" points="724.9,101.5 724.9,112.3 743.3,112.3 743.3,101.5 724.9,101.5"/>
  <polygon class="pl" points="748.0,100.0 748.0,111.8 766.4,111.8 766.4,100.0 748.0,100.0"/>
  <polygon class="pl" points="771.0,104.4 771.0,115.6 789.5,115.6 789.5,104.4 771.0,104.4"/>
  <polygon class="pl" points="794.1,92.0 794.1,107.3 812.6,107.3 812.6,92.0 794.1,92.0"/>
  <polygon class="pl" points="817.2,80.6 817.2,98.5 835.7,98.5 835.7,80.6 817.2,80.6"/>
  <polygon class="pl" points="840.3,71.8 840.3,94.5 858.7,94.5 858.7,71.8 840.3,71.8"/>
  <polygon class="pl" points="863.4,100.4 863.4,112.5 881.8,112.5 881.8,100.4 863.4,100.4"/>
  <polygon class="pl" points="886.4,78.3 886.4,105.3 904.9,105.3 904.9,78.3 886.4,78.3"/>
</g>
<g stroke="#000" stroke-width="0.90" fill="#5AA3D0"  clip-path="url(#axis_clip)">
  <polygon class="pl" points="171.0,120.5 171.0,120.6 189.4,120.6 189.4,120.5 171.0,120.5"/>
  <polygon class="pl" points="263.3,120.5 263.3,120.6 281.8,120.6 281.8,120.5 263.3,120.5"/>
  <polygon class="pl" points="286.4,120.6 286.4,120.6 304.8,120.6 304.8,120.6 286.4,120.6"/>
  <polygon class="pl" points="309.5,120.5 309.5,120.6 327.9,120.6 327.9,120.5 309.5,120.5"/>
  <polygon class="pl" points="401.8,108.4 401.8,120.6 420.2,120.6 420.2,108.4 401.8,108.4"/>
  <polygon class="pl" points="424.9,115.3 424.9,120.6 443.3,120.6 443.3,115.3 424.9,115.3"/>
  <polygon class="pl" points="447.9,100.4 447.9,120.6 466.4,120.6 466.4,100.4 447.9,100.4"/>
  <polygon class="pl" points="471.0,114.6 471.0,120.6 489.5,120.6 489.5,114.6 471.0,114.6"/>
  <polygon class="pl" points="494.1,110.1 494.1,120.6 512.6,120.6 512.6,110.1 494.1,110.1"/>
  <polygon class="pl" points="517.2,111.2 517.2,120.6 535.6,120.6 535.6,111.2 517.2,111.2"/>
  <polygon class="pl" points="540.2,109.9 540.2,120.6 558.7,120.6 558.7,109.9 540.2,109.9"/>
  <polygon class="pl" points="563.3,109.2 563.3,120.6 581.8,120.6 581.8,109.2 563.3,109.2"/>
  <polygon class="pl" points="586.4,110.7 586.4,120.6 604.9,120.6 604.9,110.7 586.4,110.7"/>
  <polygon class="pl" points="609.5,107.3 609.5,120.6 627.9,120.6 627.9,107.3 609.5,107.3"/>
  <polygon class="pl" points="632.6,117.1 632.6,120.6 651.0,120.6 651.0,117.1 632.6,117.1"/>
  <polygon class="pl" points="655.6,116.0 655.6,120.6 674.1,120.6 674.1,116.0 655.6,116.0"/>
  <polygon class="pl" points="678.7,109.3 678.7,120.6 697.2,120.6 697.2,109.3 678.7,109.3"/>
  <polygon class="pl" points="701.8,106.3 701.8,120.6 720.3,120.6 720.3,106.3 701.8,106.3"/>
  <polygon class="pl" points="724.9,112.3 724.9,120.6 743.3,120.6 743.3,112.3 724.9,112.3"/>
  <polygon class="pl" points="748.0,111.8 748.0,120.6 766.4,120.6 766.4,111.8 748.0,111.8"/>
  <polygon class="pl" points="771.0,115.6 771.0,120.6 789.5,120.6 789.5,115.6 771.0,115.6"/>
  <polygon class="pl" points="794.1,107.3 794.1,120.6 812.6,120.6 812.6,107.3 794.1,107.3"/>
  <polygon class="pl" points="817.2,98.5 817.2,120.6 835.7,120.6 835.7,98.5 817.2,98.5"/>
  <polygon class="pl" points="840.3,94.5 840.3,120.6 858.7,120.6 858.7,94.5 840.3,94.5"/>
  <polygon class="pl" points="863.4,112.5 863.4,120.6 881.8,120.6 881.8,112.5 863.4,112.5"/>
  <polygon class="pl" points="886.4,105.3 886.4,120.6 904.9,120.6 904.9,105.3 886.4,105.3"/>
</g>
<g stroke="#000" stroke-width="0.90" fill="#1A4D1A"  clip-path="url(#axis_clip)">
</g>
<g stroke="#000" stroke-width="0.90" fill="#8B1E40"  clip-path="url(#axis_clip)">
  <polygon class="pl" points="147.9,120.8 147.9,120.6 166.4,120.6 166.4,120.8 147.9,120.8"/>
  <polygon class="pl" points="171.0,538.5 171.0,538.4 189.4,538.4 189.4,538.5 171.0,538.5"/>
  <polygon class="pl" points="194.1,539.8 194.1,539.1 212.5,539.1 212.5,539.8 194.1,539.8"/>
  <polygon class="pl" points="217.1,536.3 217.1,535.9 235.6,535.9 235.6,536.3 217.1,536.3"/>
  <polygon class="pl" points="240.2,538.7 240.2,538.4 258.7,538.4 258.7,538.7 240.2,538.7"/>
  <polygon class="pl" points="263.3,535.1 263.3,535.1 281.8,535.1 281.8,535.1 263.3,535.1"/>
  <polygon class="pl" points="309.5,534.7 309.5,534.6 327.9,534.6 327.9,534.7 309.5,534.7"/>
  <polygon class="pl" points="332.5,534.8 332.5,534.7 351.0,534.7 351.0,534.8 332.5,534.8"/>
  <polygon class="pl" points="401.8,522.7 401.8,522.6 420.2,522.6 420.2,522.7 401.8,522.7"/>
  <polygon class="pl" points="471.0,523.8 471.0,523.8 489.5,523.8 489.5,523.8 471.0,523.8"/>
  <polygon class="pl" points="494.1,523.2 494.1,523.1 512.6,523.1 512.6,523.2 494.1,523.2"/>
  <polygon class="pl" points="517.2,524.2 517.2,523.6 535.6,523.6 535.6,524.2 517.2,524.2"/>
  <polygon class="pl" points="540.2,521.4 540.2,520.5 558.7,520.5 558.7,521.4 540.2,521.4"/>
  <polygon class="pl" points="563.3,525.5 563.3,524.2 581.8,524.2 581.8,525.5 563.3,525.5"/>
  <polygon class="pl" points="586.4,522.8 586.4,522.5 604.9,522.5 604.9,522.8 586.4,522.8"/>
  <polygon class="pl" points="678.7,527.9 678.7,527.9 697.2,527.9 697.2,527.9 678.7,527.9"/>
</g>
<g stroke="#000" stroke-width="0.90" fill="#7B417F"  clip-path="url(#axis_clip)">
</g>
<g stroke="#000" stroke-width="0.90" fill="#808080"  clip-path="url(#axis_clip)">
  <polygon class="pl" points="171.0,538.4 171.0,538.4 189.4,538.4 189.4,538.4 171.0,538.4"/>
  <polygon class="pl" points="194.1,539.1 194.1,539.0 212.5,539.0 212.5,539.1 194.1,539.1"/>
  <polygon class="pl" points="217.1,535.9 217.1,535.7 235.6,535.7 235.6,535.9 217.1,535.9"/>
  <polygon class="pl" points="240.2,538.4 240.2,538.2 258.7,538.2 258.7,538.4 240.2,538.4"/>
  <polygon class="pl" points="263.3,535.1 263.3,534.9 281.8,534.9 281.8,535.1 263.3,535.1"/>
  <polygon class="pl" points="286.4,534.8 286.4,534.5 304.8,534.5 304.8,534.8 286.4,534.8"/>
  <polygon class="pl" points="309.5,534.6 309.5,534.3 327.9,534.3 327.9,534.6 309.5,534.6"/>
  <polygon class="pl" points="332.5,534.7 332.5,534.5 351.0,534.5 351.0,534.7 332.5,534.7"/>
  <polygon class="pl" points="355.6,532.9 355.6,532.6 374.1,532.6 374.1,532.9 355.6,532.9"/>
  <polygon class="pl" points="378.7,530.4 378.7,530.1 397.2,530.1 397.2,530.4 378.7,530.4"/>
  <polygon class="pl" points="401.8,522.6 401.8,522.2 420.2,522.2 420.2,522.6 401.8,522.6"/>
  <polygon class="pl" points="424.9,528.3 424.9,527.9 443.3,527.9 443.3,528.3 424.9,528.3"/>
  <polygon class="pl" points="447.9,514.6 447.9,514.1 466.4,514.1 466.4,514.6 447.9,514.6"/>
  <polygon class="pl" points="471.0,523.8 471.0,523.2 489.5,523.2 489.5,523.8 471.0,523.8"/>
  <polygon class="pl" points="494.1,523.1 494.1,522.5 512.6,522.5 512.6,523.1 494.1,523.1"/>
  <polygon class="pl" points="517.2,523.6 517.2,522.9 535.6,522.9 535.6,523.6 517.2,523.6"/>
  <polygon class="pl" points="540.2,520.5 540.2,519.8 558.7,519.8 558.7,520.5 540.2,520.5"/>
  <polygon class="pl" points="563.3,524.2 563.3,523.5 581.8,523.5 581.8,524.2 563.3,524.2"/>
  <polygon class="pl" points="586.4,522.5 586.4,521.7 604.9,521.7 604.9,522.5 586.4,522.5"/>
  <polygon class="pl" points="609.5,525.0 609.5,524.1 627.9,524.1 627.9,525.0 609.5,525.0"/>
  <polygon class="pl" points="632.6,527.6 632.6,526.7 651.0,526.7 651.0,527.6 632.6,527.6"/>
  <polygon class="pl" points="655.6,527.5 655.6,526.7 674.1,526.7 674.1,527.5 655.6,527.5"/>
  <polygon class="pl" points="678.7,527.9 678.7,527.0 697.2,527.0 697.2,527.9 678.7,527.9"/>
  <polygon class="pl" points="701.8,526.6 701.8,525.7 720.3,525.7 720.3,526.6 701.8,526.6"/>
  <polygon class="pl" points="724.9,528.9 724.9,527.9 743.3,527.9 743.3,528.9 724.9,528.9"/>
  <polygon class="pl" points="748.0,526.1 748.0,525.2 766.4,525.2 766.4,526.1 748.0,526.1"/>
  <polygon class="pl" points="771.0,531.2 771.0,530.3 789.5,530.3 789.5,531.2 771.0,531.2"/>
  <polygon class="pl" points="794.1,528.2 794.1,527.2 812.6,527.2 812.6,528.2 794.1,528.2"/>
  <polygon class="pl" points="817.2,529.5 817.2,528.5 835.7,528.5 835.7,529.5 817.2,529.5"/>
  <polygon class="pl" points="840.3,525.3 840.3,524.3 858.7,524.3 858.7,525.3 840.3,525.3"/>
  <polygon class="pl" points="863.4,541.6 863.4,540.7 881.8,540.7 881.8,541.6 863.4,541.6"/>
  <polygon class="pl" points="886.4,539.9 886.4,539.0 904.9,539.0 904.9,539.9 886.4,539.9"/>
</g>
<g stroke="#000" stroke-width="0.90" fill="#EDB120"  clip-path="url(#axis_clip)">
  <polygon class="pl" points="194.1,539.0 194.1,538.9 212.5,538.9 212.5,539.0 194.1,539.0"/>
  <polygon class="pl" points="217.1,535.7 217.1,535.3 235.6,535.3 235.6,535.7 217.1,535.7"/>
  <polygon class="pl" points="240.2,538.2 240.2,537.9 258.7,537.9 258.7,538.2 240.2,538.2"/>
  <polygon class="pl" points="263.3,534.9 263.3,533.9 281.8,533.9 281.8,534.9 263.3,534.9"/>
  <polygon class="pl" points="286.4,534.5 286.4,533.3 304.8,533.3 304.8,534.5 286.4,534.5"/>
  <polygon class="pl" points="309.5,534.3 309.5,532.6 327.9,532.6 327.9,534.3 309.5,534.3"/>
  <polygon class="pl" points="332.5,534.5 332.5,532.6 351.0,532.6 351.0,534.5 332.5,534.5"/>
  <polygon class="pl" points="355.6,532.6 355.6,529.9 374.1,529.9 374.1,532.6 355.6,532.6"/>
  <polygon class="pl" points="378.7,530.1 378.7,527.2 397.2,527.2 397.2,530.1 378.7,530.1"/>
  <polygon class="pl" points="401.8,522.2 401.8,519.1 420.2,519.1 420.2,522.2 401.8,522.2"/>
  <polygon class="pl" points="424.9,527.9 424.9,524.7 443.3,524.7 443.3,527.9 424.9,527.9"/>
  <polygon class="pl" points="447.9,514.1 447.9,510.9 466.4,510.9 466.4,514.1 447.9,514.1"/>
  <polygon class="pl" points="471.0,523.2 471.0,519.7 489.5,519.7 489.5,523.2 471.0,523.2"/>
  <polygon class="pl" points="494.1,522.5 494.1,518.8 512.6,518.8 512.6,522.5 494.1,522.5"/>
  <polygon class="pl" points="517.2,522.9 517.2,519.0 535.6,519.0 535.6,522.9 517.2,522.9"/>
  <polygon class="pl" points="540.2,519.8 540.2,515.9 558.7,515.9 558.7,519.8 540.2,519.8"/>
  <polygon class="pl" points="563.3,523.5 563.3,519.4 581.8,519.4 581.8,523.5 563.3,523.5"/>
  <polygon class="pl" points="586.4,521.7 586.4,517.6 604.9,517.6 604.9,521.7 586.4,521.7"/>
  <polygon class="pl" points="609.5,524.1 609.5,519.8 627.9,519.8 627.9,524.1 609.5,524.1"/>
  <polygon class="pl" points="632.6,526.7 632.6,522.4 651.0,522.4 651.0,526.7 632.6,526.7"/>
  <polygon class="pl" points="655.6,526.7 655.6,522.4 674.1,522.4 674.1,526.7 655.6,526.7"/>
  <polygon class="pl" points="678.7,527.0 678.7,522.9 697.2,522.9 697.2,527.0 678.7,527.0"/>
  <polygon class="pl" points="701.8,525.7 701.8,521.6 720.3,521.6 720.3,525.7 701.8,525.7"/>
  <polygon class="pl" points="724.9,527.9 724.9,524.4 743.3,524.4 743.3,527.9 724.9,527.9"/>
  <polygon class="pl" points="748.0,525.2 748.0,522.0 766.4,522.0 766.4,525.2 748.0,525.2"/>
  <polygon class="pl" points="771.0,530.3 771.0,527.4 789.5,527.4 789.5,530.3 771.0,530.3"/>
  <polygon class="pl" points="794.1,527.2 794.1,524.7 812.6,524.7 812.6,527.2 794.1,527.2"/>
  <polygon class="pl" points="817.2,528.5 817.2,526.7 835.7,526.7 835.7,528.5 817.2,528.5"/>
  <polygon class="pl" points="840.3,524.3 840.3,522.9 858.7,522.9 858.7,524.3 840.3,524.3"/>
  <polygon class="pl" points="863.4,540.7 863.4,539.4 881.8,539.4 881.8,540.7 863.4,540.7"/>
  <polygon class="pl" points="886.4,539.0 886.4,537.7 904.9,537.7 904.9,539.0 886.4,539.0"/>
</g>
<g stroke="#000" stroke-width="0.90" fill="#D95319"  clip-path="url(#axis_clip)">
  <polygon class="pl" points="171.0,538.4 171.0,538.2 189.4,538.2 189.4,538.4 171.0,538.4"/>
  <polygon class="pl" points="194.1,538.9 194.1,538.4 212.5,538.4 212.5,538.9 194.1,538.9"/>
  <polygon class="pl" points="217.1,535.3 217.1,534.4 235.6,534.4 235.6,535.3 217.1,535.3"/>
  <polygon class="pl" points="240.2,537.9 240.2,536.9 258.7,536.9 258.7,537.9 240.2,537.9"/>
  <polygon class="pl" points="263.3,533.9 263.3,532.3 281.8,532.3 281.8,533.9 263.3,533.9"/>
  <polygon class="pl" points="286.4,533.3 286.4,531.6 304.8,531.6 304.8,533.3 286.4,533.3"/>
  <polygon class="pl" points="309.5,532.6 309.5,530.9 327.9,530.9 327.9,532.6 309.5,532.6"/>
  <polygon class="pl" points="332.5,532.6 332.5,531.0 351.0,531.0 351.0,532.6 332.5,532.6"/>
  <polygon class="pl" points="355.6,529.9 355.6,527.5 374.1,527.5 374.1,529.9 355.6,529.9"/>
  <polygon class="pl" points="378.7,527.2 378.7,526.6 397.2,526.6 397.2,527.2 378.7,527.2"/>
</g>
<g stroke="#000" stroke-width="0.90" fill="#5AA3D0"  clip-path="url(#axis_clip)">
  <polygon class="pl" points="194.1,538.4 194.1,538.4 212.5,538.4 212.5,538.4 194.1,538.4"/>
  <polygon class="pl" points="217.1,534.4 217.1,534.2 235.6,534.2 235.6,534.4 217.1,534.4"/>
  <polygon class="pl" points="240.2,536.9 240.2,536.8 258.7,536.8 258.7,536.9 240.2,536.9"/>
  <polygon class="pl" points="332.5,531.0 332.5,530.8 351.0,530.8 351.0,531.0 332.5,531.0"/>
  <polygon class="pl" points="355.6,527.5 355.6,526.3 374.1,526.3 374.1,527.5 355.6,527.5"/>
  <polygon class="pl" points="378.7,526.6 378.7,526.4 397.2,526.4 397.2,526.6 378.7,526.6"/>
</g>
<g stroke="#000" stroke-width="0.90" fill="#6AB561"  clip-path="url(#axis_clip)">
  <polygon class="pl" points="171.0,538.2 171.0,120.6 189.4,120.6 189.4,538.2 171.0,538.2"/>
  <polygon class="pl" points="194.1,538.4 194.1,120.6 212.5,120.6 212.5,538.4 194.1,538.4"/>
  <polygon class="pl" points="217.1,534.2 217.1,120.6 235.6,120.6 235.6,534.2 217.1,534.2"/>
  <polygon class="pl" points="240.2,536.8 240.2,120.6 258.7,120.6 258.7,536.8 240.2,536.8"/>
  <polygon class="pl" points="263.3,532.3 263.3,120.6 281.8,120.6 281.8,532.3 263.3,532.3"/>
  <polygon class="pl" points="286.4,531.6 286.4,120.6 304.8,120.6 304.8,531.6 286.4,531.6"/>
  <polygon class="pl" points="309.5,530.9 309.5,120.6 327.9,120.6 327.9,530.9 309.5,530.9"/>
  <polygon class="pl" points="332.5,530.8 332.5,120.6 351.0,120.6 351.0,530.8 332.5,530.8"/>
  <polygon class="pl" points="355.6,526.3 355.6,120.6 374.1,120.6 374.1,526.3 355.6,526.3"/>
  <polygon class="pl" points="378.7,526.4 378.7,120.6 397.2,120.6 397.2,526.4 378.7,526.4"/>
  <polygon class="pl" points="401.8,519.1 401.8,120.6 420.2,120.6 420.2,519.1 401.8,519.1"/>
  <polygon class="pl" points="424.9,524.7 424.9,120.6 443.3,120.6 443.3,524.7 424.9,524.7"/>
  <polygon class="pl" points="447.9,510.9 447.9,120.6 466.4,120.6 466.4,510.9 447.9,510.9"/>
  <polygon class="pl" points="471.0,519.7 471.0,120.6 489.5,120.6 489.5,519.7 471.0,519.7"/>
  <polygon class="pl" points="494.1,518.8 494.1,120.6 512.6,120.6 512.6,518.8 494.1,518.8"/>
  <polygon class="pl" points="517.2,519.0 517.2,120.6 535.6,120.6 535.6,519.0 517.2,519.0"/>
  <polygon class="pl" points="540.2,515.9 540.2,120.6 558.7,120.6 558.7,515.9 540.2,515.9"/>
  <polygon class="pl" points="563.3,519.4 563.3,120.6 581.8,120.6 581.8,519.4 563.3,519.4"/>
  <polygon class="pl" points="586.4,517.6 586.4,120.6 604.9,120.6 604.9,517.6 586.4,517.6"/>
  <polygon class="pl" points="609.5,519.8 609.5,120.6 627.9,120.6 627.9,519.8 609.5,519.8"/>
  <polygon class="pl" points="632.6,522.4 632.6,120.6 651.0,120.6 651.0,522.4 632.6,522.4"/>
  <polygon class="pl" points="655.6,522.4 655.6,120.6 674.1,120.6 674.1,522.4 655.6,522.4"/>
  <polygon class="pl" points="678.7,522.9 678.7,120.6 697.2,120.6 697.2,522.9 678.7,522.9"/>
  <polygon class="pl" points="701.8,521.6 701.8,120.6 720.3,120.6 720.3,521.6 701.8,521.6"/>
  <polygon class="pl" points="724.9,524.4 724.9,120.6 743.3,120.6 743.3,524.4 724.9,524.4"/>
  <polygon class="pl" points="748.0,522.0 748.0,120.6 766.4,120.6 766.4,522.0 748.0,522.0"/>
  <polygon class="pl" points="771.0,527.4 771.0,120.6 789.5,120.6 789.5,527.4 771.0,527.4"/>
  <polygon class="pl" points="794.1,524.7 794.1,120.6 812.6,120.6 812.6,524.7 794.1,524.7"/>
  <polygon class="pl" points="817.2,526.7 817.2,120.6 835.7,120.6 835.7,526.7 817.2,526.7"/>
  <polygon class="pl" points="840.3,522.9 840.3,120.6 858.7,120.6 858.7,522.9 840.3,522.9"/>
  <polygon class="pl" points="863.4,539.4 863.4,120.6 881.8,120.6 881.8,539.4 863.4,539.4"/>
  <polygon class="pl" points="886.4,537.7 886.4,120.6 904.9,120.6 904.9,537.7 886.4,537.7"/>
</g>
<polyline class="pl" points="180.2,538.3 203.3,539.8 226.4,536.3 249.5,538.7 272.5,535.0 295.6,534.4 318.7,534.6 341.8,526.0 364.8,532.9 387.9,530.0 411.0,502.7 434.1,514.6 457.2,482.1 480.2,506.7 503.3,499.5 526.4,503.7 549.5,497.7 572.6,503.7 595.6,502.6 618.7,502.0 641.8,517.9 664.9,515.4 688.0,504.9 711.0,500.1 734.1,509.3 757.2,504.8 780.3,514.4 803.3,498.7 826.4,489.0 849.5,475.9 872.6,521.0 895.7,497.2" stroke="#000" stroke-width="5.40" stroke-opacity="1.00" fill="none" clip-path="url(#axis_clip)"/>
<g class="pl" fill="#FFF" stroke="#000" stroke-width="0.900">
  <circle cx="180.2" cy="538.3" r="2.2" />
  <circle cx="203.3" cy="539.8" r="2.2" />
  <circle cx="226.4" cy="536.3" r="2.2" />
  <circle cx="249.5" cy="538.7" r="2.2" />
  <circle cx="272.5" cy="535.0" r="2.2" />
  <circle cx="295.6" cy="534.4" r="2.2" />
  <circle cx="318.7" cy="534.6" r="2.2" />
  <circle cx="341.8" cy="526.0" r="2.2" />
  <circle cx="364.8" cy="532.9" r="2.2" />
  <circle cx="411.0" cy="502.7" r="2.2" />
  <circle cx="434.1" cy="514.6" r="2.2" />
  <circle cx="457.2" cy="482.1" r="2.2" />
  <circle cx="480.2" cy="506.7" r="2.2" />
  <circle cx="503.3" cy="499.5" r="2.2" />
  <circle cx="526.4" cy="503.7" r="2.2" />
  <circle cx="549.5" cy="497.7" r="2.2" />
  <circle cx="572.6" cy="503.7" r="2.2" />
  <circle cx="595.6" cy="502.6" r="2.2" />
  <circle cx="641.8" cy="517.9" r="2.2" />
  <circle cx="664.9" cy="515.4" r="2.2" />
  <circle cx="688.0" cy="504.9" r="2.2" />
  <circle cx="711.0" cy="500.1" r="2.2" />
  <circle cx="734.1" cy="509.3" r="2.2" />
  <circle cx="757.2" cy="504.8" r="2.2" />
  <circle cx="780.3" cy="514.4" r="2.2" />
  <circle cx="803.3" cy="498.7" r="2.2" />
  <circle cx="826.4" cy="489.0" r="2.2" />
  <circle cx="872.6" cy="521.0" r="2.2" />
  <circle cx="895.7" cy="497.2" r="2.2" />
</g>
<g class="pl" fill="#FFF" stroke="#000" stroke-width="0.900">
  <circle cx="387.9" cy="530.0" r="5.4" />
  <circle cx="618.7" cy="502.0" r="5.4" />
  <circle cx="849.5" cy="475.9" r="5.4" />
</g>
<text transform="translate(145.6,47.2)" dy="0.0" font-size="27.00" fill="#808080" stroke="none">Annual LULUCF emissions: Venezuela</text>
<text transform="translate(130.0,148.3)" dy="8.1" font-size="27.00" fill="#808080" stroke="none" text-anchor="end">CO<tspan dy="0.2em"><tspan style="font-size:70%">2</tspan></tspan><tspan dy="-0.2em">e</tspan></text>
<text transform="translate(945.6,136.9)" dy="6.5" font-size="21.60" fill="#5AA3D0" stroke="none">Cropland</text>
<text transform="translate(945.6,116.2)" dy="6.5" font-size="21.60" fill="#D95319" stroke="none">Grassland</text>
<text transform="translate(945.6,95.4)" dy="6.5" font-size="21.60" fill="#7B417F" stroke="none">Other land</text>
<text transform="translate(945.6,74.7)" dy="6.5" font-size="21.60" fill="#8B1E40" stroke="none">HWP</text>
<text transform="translate(945.6,54.0)" dy="6.5" font-size="21.60" fill="#1A4D1A" stroke="none">Other</text>
<text transform="translate(945.6,329.2)" dy="6.5" font-size="21.60" fill="#6AB561" stroke="none">Forest land</text>
<text transform="translate(945.6,528.5)" dy="6.5" font-size="21.60" fill="#EDB120" stroke="none">Wetlands</text>
<text transform="translate(945.6,549.2)" dy="6.5" font-size="21.60" fill="#808080" stroke="none">Settlements</text>
<polyline class="pl" points="910.8,113.0 912.4,113.0 913.8,113.3 915.2,113.7 916.4,114.2 917.6,114.8 918.8,115.6 919.8,116.5 920.8,117.4 921.7,118.4 922.7,119.5 923.5,120.7 924.4,121.9 925.2,123.1 926.0,124.3 926.8,125.5 927.6,126.8 928.4,128.0 929.3,129.2 930.1,130.3 931.1,131.4 932.0,132.4 933.0,133.4 934.0,134.2 935.2,135.0 936.4,135.6 937.6,136.2 939.0,136.6 940.4,136.8 942.0,136.9" stroke="#5AA3D0" stroke-width="0.90" stroke-opacity="1.00" fill="none" />
<polyline class="pl" points="910.8,91.8 912.4,91.9 913.8,92.1 915.2,92.5 916.4,93.1 917.6,93.7 918.8,94.5 919.8,95.4 920.8,96.3 921.7,97.4 922.7,98.5 923.5,99.7 924.4,100.9 925.2,102.1 926.0,103.4 926.8,104.6 927.6,105.9 928.4,107.1 929.3,108.3 930.1,109.5 931.1,110.6 932.0,111.6 933.0,112.6 934.0,113.5 935.2,114.2 936.4,114.9 937.6,115.4 939.0,115.8 940.4,116.1 942.0,116.2" stroke="#D95319" stroke-width="0.90" stroke-opacity="1.00" fill="none" />
<polyline class="pl" points="910.8,78.3 912.4,78.4 913.8,78.6 915.2,78.8 916.4,79.2 917.6,79.7 918.8,80.2 919.8,80.8 920.8,81.5 921.7,82.3 922.7,83.0 923.5,83.8 924.4,84.7 925.2,85.6 926.0,86.4 926.8,87.3 927.6,88.2 928.4,89.1 929.3,89.9 930.1,90.7 931.1,91.5 932.0,92.3 933.0,92.9 934.0,93.5 935.2,94.1 936.4,94.6 937.6,94.9 939.0,95.2 940.4,95.4 942.0,95.4" stroke="#7B417F" stroke-width="0.90" stroke-opacity="1.00" fill="none" />
<polyline class="pl" points="910.8,78.1 912.4,78.1 913.8,78.1 915.2,78.0 916.4,78.0 917.6,77.9 918.8,77.8 919.8,77.6 920.8,77.5 921.7,77.4 922.7,77.2 923.5,77.0 924.4,76.9 925.2,76.7 926.0,76.5 926.8,76.3 927.6,76.2 928.4,76.0 929.3,75.8 930.1,75.7 931.1,75.5 932.0,75.4 933.0,75.2 934.0,75.1 935.2,75.0 936.4,74.9 937.6,74.8 939.0,74.8 940.4,74.7 942.0,74.7" stroke="#8B1E40" stroke-width="0.90" stroke-opacity="1.00" fill="none" />
<polyline class="pl" points="910.8,78.0 912.4,77.9 913.8,77.6 915.2,77.2 916.4,76.7 917.6,76.1 918.8,75.3 919.8,74.4 920.8,73.5 921.7,72.5 922.7,71.4 923.5,70.2 924.4,69.0 925.2,67.8 926.0,66.6 926.8,65.4 927.6,64.1 928.4,62.9 929.3,61.7 930.1,60.6 931.1,59.5 932.0,58.5 933.0,57.5 934.0,56.6 935.2,55.9 936.4,55.2 937.6,54.7 939.0,54.3 940.4,54.1 942.0,54.0" stroke="#1A4D1A" stroke-width="0.90" stroke-opacity="1.00" fill="none" />
<polyline class="pl" points="910.8,538.3 912.4,538.3 913.8,538.2 915.2,538.0 916.4,537.8 917.6,537.6 918.8,537.3 919.8,536.9 920.8,536.5 921.7,536.1 922.7,535.6 923.5,535.2 924.4,534.7 925.2,534.2 926.0,533.7 926.8,533.2 927.6,532.7 928.4,532.2 929.3,531.7 930.1,531.2 931.1,530.8 932.0,530.4 933.0,530.0 934.0,529.6 935.2,529.3 936.4,529.0 937.6,528.8 939.0,528.7 940.4,528.6 942.0,528.5" stroke="#EDB120" stroke-width="0.90" stroke-opacity="1.00" fill="none" />
<polyline class="pl" points="910.8,539.4 912.4,539.5 913.8,539.6 915.2,539.7 916.4,539.9 917.6,540.2 918.8,540.5 919.8,540.9 920.8,541.3 921.7,541.7 922.7,542.1 923.5,542.6 924.4,543.1 925.2,543.6 926.0,544.1 926.8,544.6 927.6,545.1 928.4,545.6 929.3,546.1 930.1,546.6 931.1,547.0 932.0,547.4 933.0,547.8 934.0,548.2 935.2,548.5 936.4,548.7 937.6,549.0 939.0,549.1 940.4,549.2 942.0,549.2" stroke="#808080" stroke-width="0.90" stroke-opacity="1.00" fill="none" />
<text transform="translate(160.0,666.1)" font-size="19.80" font-family="Helvetica" fill="#BFBFBF" stroke="none" xml:space="preserve">CICERO   &#9679;   Data: UNFCCC (2024)   &#9679;   HWP = Harvested Wood Products</text>
<g>
  <rect x="123.0" y="651.4" width="34" height="17" fill="#FFF" stroke="none" opacity="0.01"/>
  <g transform="translate(124.0,652.4) scale(0.24)">
  <g><circle fill="#FFF" cx="37.79" cy="28.5" r="28.84"/>
     <circle fill="none" cx="37.79" cy="28.5" r="28.84" stroke="#BFBFBF" stroke-width="5.5"/>
     <path fill="#BFBFBF" d="M37.16,23.19 l-4.29,2.23c-0.458-0.951-1.02-1.62-1.69-2c-0.667-0.38-1.29-0.571-1.86-0.571c-2.86,0-4.29,1.89-4.29,5.66 c0,1.71,0.36,3.08,1.09,4.11c0.724,1.03,1.79,1.54,3.2,1.54c1.87,0,3.18-0.915,3.94-2.74l3.94,2 c-0.838,1.56-2,2.79-3.49,3.69c-1.48,0.896-3.12,1.34-4.91,1.34c-2.86,0-5.16-0.875-6.92-2.63 c-1.75-1.75-2.63-4.19-2.63-7.31c0-3.05,0.886-5.47,2.66-7.26c1.77-1.79,4.01-2.69,6.72-2.69 C32.6,18.56,35.44,20.1,37.16,23.19z
              M55.61,23.19l-4.23,2.23c-0.457-0.951-1.02-1.62-1.69-2 c-0.668-0.38-1.31-0.571-1.91-0.571c-2.86,0-4.29,1.89-4.29,5.66c0,1.71,0.363,3.08,1.09,4.11 c0.723,1.03,1.79,1.54,3.2,1.54c1.87,0,3.18-0.915,3.94-2.74l4,2c-0.875,1.56-2.06,2.79-3.54,3.69 c-1.49,0.9-3.11,1.34-4.86,1.34c-2.9,0-5.21-0.875-6.94-2.63c-1.74-1.75-2.6-4.19-2.6-7.31 c0-3.05,0.885-5.47,2.66-7.26c1.77-1.79,4.01-2.69,6.71-2.69C51.12,18.56,53.944,20.1,55.61,23.19z"/>
  </g></g>
  <g transform="translate(140.2,652.4) scale(0.24)">
  <g><circle fill="#FFF" cx="37.79" cy="28.5" r="28.84"/>
     <circle fill="none" cx="37.79" cy="28.5" r="28.84" stroke="#BFBFBF" stroke-width="5.5"/>
     <path fill="#BFBFBF" d="M46.129,20.557v13.085h-3.656v15.542h-9.944V33.643h-3.656V20.557 c0-0.572,0.2-1.057,0.599-1.457c0.401-0.399,0.887-0.6,1.457-0.6h13.144c0.533,0,1.01,0.2,1.428,0.6 C45.918,19.5,46.129,19.986,46.129,20.557z
              M33.042,12.329c0-3.008,1.485-4.514,4.458-4.514s4.457,1.504,4.457,4.514 c0,2.971-1.486,4.457-4.457,4.457S33.042,15.3,33.042,12.329z"/>
  </g></g>
</g>
</g>
</svg>
