<svg version="1.1" xmlns="http://www.w3.org/2000/svg" xmlns:xlink="http://www.w3.org/1999/xlink" width="100%" height="100%" viewBox="0 0 1200.000 674.916">
<title>Annual Greenhouse Gas Emissions: Turkey</title>
<style type="text/css">
  #main {font-family:Helvetica,Arial,sans-serif; font-size:27.00px;
         fill-opacity:1; fill:#000000; stroke:none; stroke-linejoin:round; stroke-linecap:round; stroke-width:1.00;}
  .marker {stroke-opacity:0;fill-opacity:0;}
  .marker:hover {stroke-opacity:0.5; fill-opacity:1;}
  .ticklabel {font-size:27.00px;fill:#808080;stroke:none;font-family:Helvetica}
  .ytl {text-anchor:end;}
  .dp1 {pointer-events:none;font-size:70%;text-anchor:middle;fill:#000000;}
  .dp2 {pointer-events:none;font-size:70%;text-anchor:middle;fill:#FFFFFF;}
  .numtip {pointer-events:none;}
  .cc {opacity:0.25;}
.dl_fe {background-color:#FDFFDF;display:flex;margin:auto;align-items:center}
.dl_fe_p {font-size:20px;text-align:center;margin:3px}
.dl_el {display:none;pointer-events:none;}
.cc:hover + .dl_el {display:block;}
text:hover + .dl_el {display:block;}
</style>
<defs>
  <clipPath id="axis_clip"><rect x="145.8" y="54.2" width="761.2" height="532.8" /></clipPath>
  <path id="line_y" d="M 0,53.993 v 533.183" stroke="#262626" stroke-opacity="0.15" stroke-width="1.00"/>
  <path id="line_x" d="M 145.600,0 h 761.600" stroke="#262626" stroke-opacity="0.15" stroke-width="1.00"/>
  <path id="tick_y" d="M 145.600,0 h -6.000" stroke="#808080" stroke-width="0.90"/>
  <path id="tick_x" d="M 0,587.177 v 6.000" stroke="#808080" stroke-width="0.90"/>
</defs>
<g id="main">
<use xlink:href="#line_y" transform="translate(157.1,0)"/>
<use xlink:href="#line_y" transform="translate(272.5,0)"/>
<use xlink:href="#line_y" transform="translate(387.9,0)"/>
<use xlink:href="#line_y" transform="translate(503.3,0)"/>
<use xlink:href="#line_y" transform="translate(618.7,0)"/>
<use xlink:href="#line_y" transform="translate(734.1,0)"/>
<use xlink:href="#line_y" transform="translate(895.7,0)"/>
<use xlink:href="#line_x" transform="translate(0,511.0)"/>
<use xlink:href="#line_x" transform="translate(0,358.7)"/>
<use xlink:href="#line_x" transform="translate(0,206.3)"/>
<use xlink:href="#line_x" transform="translate(0,54.0)"/>
<use xlink:href="#tick_y" transform="translate(0,511.0)"/>
<use xlink:href="#tick_y" transform="translate(0,358.7)"/>
<use xlink:href="#tick_y" transform="translate(0,206.3)"/>
<use xlink:href="#tick_y" transform="translate(0,54.0)"/>
<use xlink:href="#tick_x" transform="translate(157.1,0)"/>
<use xlink:href="#tick_x" transform="translate(272.5,0)"/>
<use xlink:href="#tick_x" transform="translate(387.9,0)"/>
<use xlink:href="#tick_x" transform="translate(503.3,0)"/>
<use xlink:href="#tick_x" transform="translate(618.7,0)"/>
<use xlink:href="#tick_x" transform="translate(734.1,0)"/>
<use xlink:href="#tick_x" transform="translate(895.7,0)"/>
<polyline points="145.6,53.993 145.6,587.177 907.2,587.177" stroke="#808080" stroke-width="0.90" fill="none"/>
<text class="ticklabel xtl" transform="translate(157.1,629.0)" text-anchor="middle">1990</text>
<text class="ticklabel xtl" transform="translate(272.5,629.0)" text-anchor="middle">1995</text>
<text class="ticklabel xtl" transform="translate(387.9,629.0)" text-anchor="middle">2000</text>
<text class="ticklabel xtl" transform="translate(503.3,629.0)" text-anchor="middle">2005</text>
<text class="ticklabel xtl" transform="translate(618.7,629.0)" text-anchor="middle">2010</text>
<text class="ticklabel xtl" transform="translate(734.1,629.0)" text-anchor="middle">2015</text>
<text class="ticklabel xtl" transform="translate(895.7,629.0)" text-anchor="middle">2022</text>
<text class="ticklabel ytl" transform="translate(128.8,519.1)">0</text>
<text class="ticklabel ytl" transform="translate(128.8,366.8)">200</text>
<text class="ticklabel ytl" transform="translate(128.8,214.4)">400</text>
<text class="ticklabel ytl" transform="translate(128.8,62.1)">600 Mt</text>
<g stroke="#000" stroke-width="0.90" fill="#7FDEDE"  clip-path="url(#axis_clip)">
  <polygon points="147.9,337.3 147.9,345.2 166.4,345.2 166.4,337.3 147.9,337.3"/>
  <polygon points="171.0,331.7 171.0,339.8 189.4,339.8 189.4,331.7 171.0,331.7"/>
  <polygon points="194.1,326.8 194.1,335.2 212.5,335.2 212.5,326.8 194.1,326.8"/>
  <polygon points="217.1,321.2 217.1,329.9 235.6,329.9 235.6,321.2 217.1,321.2"/>
  <polygon points="240.2,326.1 240.2,335.0 258.7,335.0 258.7,326.1 240.2,326.1"/>
  <polygon points="263.3,315.6 263.3,324.9 281.8,324.9 281.8,315.6 263.3,315.6"/>
  <polygon points="286.4,300.9 286.4,310.4 304.8,310.4 304.8,300.9 286.4,300.9"/>
  <polygon points="309.5,292.6 309.5,302.6 327.9,302.6 327.9,292.6 309.5,292.6"/>
  <polygon points="332.5,291.5 332.5,301.8 351.0,301.8 351.0,291.5 332.5,291.5"/>
  <polygon points="355.6,293.4 355.6,304.1 374.1,304.1 374.1,293.4 355.6,293.4"/>
  <polygon points="378.7,277.6 378.7,288.7 397.2,288.7 397.2,277.6 378.7,277.6"/>
  <polygon points="401.8,292.0 401.8,303.4 420.2,303.4 420.2,292.0 401.8,292.0"/>
  <polygon points="424.9,288.2 424.9,300.1 443.3,300.1 443.3,288.2 424.9,288.2"/>
  <polygon points="447.9,273.3 447.9,285.4 466.4,285.4 466.4,273.3 447.9,273.3"/>
  <polygon points="471.0,266.0 471.0,278.6 489.5,278.6 489.5,266.0 471.0,266.0"/>
  <polygon points="494.1,248.4 494.1,261.3 512.6,261.3 512.6,248.4 494.1,248.4"/>
  <polygon points="517.2,232.8 517.2,246.1 535.6,246.1 535.6,232.8 517.2,232.8"/>
  <polygon points="540.2,207.1 540.2,220.5 558.7,220.5 558.7,207.1 540.2,207.1"/>
  <polygon points="563.3,210.2 563.3,223.7 581.8,223.7 581.8,210.2 563.3,210.2"/>
  <polygon points="586.4,205.3 586.4,218.9 604.9,218.9 604.9,205.3 586.4,205.3"/>
  <polygon points="609.5,202.3 609.5,216.1 627.9,216.1 627.9,202.3 609.5,202.3"/>
  <polygon points="632.6,179.8 632.6,193.9 651.0,193.9 651.0,179.8 632.6,179.8"/>
  <polygon points="655.6,164.3 655.6,178.2 674.1,178.2 674.1,164.3 655.6,164.3"/>
  <polygon points="678.7,170.3 678.7,183.5 697.2,183.5 697.2,170.3 678.7,170.3"/>
  <polygon points="701.8,155.8 701.8,168.8 720.3,168.8 720.3,155.8 701.8,155.8"/>
  <polygon points="724.9,145.3 724.9,158.8 743.3,158.8 743.3,145.3 724.9,145.3"/>
  <polygon points="748.0,127.0 748.0,140.2 766.4,140.2 766.4,127.0 748.0,127.0"/>
  <polygon points="771.0,106.5 771.0,119.3 789.5,119.3 789.5,106.5 771.0,106.5"/>
  <polygon points="794.1,108.8 794.1,121.9 812.6,121.9 812.6,108.8 794.1,108.8"/>
  <polygon points="817.2,118.3 817.2,131.1 835.7,131.1 835.7,118.3 817.2,118.3"/>
  <polygon points="840.3,107.2 840.3,120.1 858.7,120.1 858.7,107.2 840.3,107.2"/>
  <polygon points="863.4,75.3 863.4,87.1 881.8,87.1 881.8,75.3 863.4,75.3"/>
  <polygon points="886.4,85.8 886.4,98.2 904.9,98.2 904.9,85.8 886.4,85.8"/>
</g>
<g stroke="#000" stroke-width="0.90" fill="#DEDE7F"  clip-path="url(#axis_clip)">
  <polygon points="147.9,345.2 147.9,384.7 166.4,384.7 166.4,345.2 147.9,345.2"/>
  <polygon points="171.0,339.8 171.0,380.1 189.4,380.1 189.4,339.8 171.0,339.8"/>
  <polygon points="194.1,335.2 194.1,375.3 212.5,375.3 212.5,335.2 194.1,335.2"/>
  <polygon points="217.1,329.9 217.1,370.1 235.6,370.1 235.6,329.9 217.1,329.9"/>
  <polygon points="240.2,335.0 240.2,373.3 258.7,373.3 258.7,335.0 240.2,335.0"/>
  <polygon points="263.3,324.9 263.3,362.2 281.8,362.2 281.8,324.9 263.3,324.9"/>
  <polygon points="286.4,310.4 286.4,348.2 304.8,348.2 304.8,310.4 286.4,310.4"/>
  <polygon points="309.5,302.6 309.5,338.3 327.9,338.3 327.9,302.6 309.5,302.6"/>
  <polygon points="332.5,301.8 332.5,338.2 351.0,338.2 351.0,301.8 332.5,301.8"/>
  <polygon points="355.6,304.1 355.6,340.8 374.1,340.8 374.1,304.1 355.6,304.1"/>
  <polygon points="378.7,288.7 378.7,323.8 397.2,323.8 397.2,288.7 378.7,288.7"/>
  <polygon points="401.8,303.4 401.8,336.7 420.2,336.7 420.2,303.4 401.8,303.4"/>
  <polygon points="424.9,300.1 424.9,331.1 443.3,331.1 443.3,300.1 424.9,300.1"/>
  <polygon points="447.9,285.4 447.9,319.1 466.4,319.1 466.4,285.4 447.9,285.4"/>
  <polygon points="471.0,278.6 471.0,312.8 489.5,312.8 489.5,278.6 471.0,278.6"/>
  <polygon points="494.1,261.3 494.1,296.5 512.6,296.5 512.6,261.3 494.1,261.3"/>
  <polygon points="517.2,246.1 517.2,282.3 535.6,282.3 535.6,246.1 517.2,246.1"/>
  <polygon points="540.2,220.5 540.2,256.4 558.7,256.4 558.7,220.5 540.2,220.5"/>
  <polygon points="563.3,223.7 563.3,257.9 581.8,257.9 581.8,223.7 563.3,223.7"/>
  <polygon points="586.4,218.9 586.4,253.3 604.9,253.3 604.9,218.9 586.4,218.9"/>
  <polygon points="609.5,216.1 609.5,252.4 627.9,252.4 627.9,216.1 609.5,216.1"/>
  <polygon points="632.6,193.9 632.6,232.2 651.0,232.2 651.0,193.9 632.6,193.9"/>
  <polygon points="655.6,178.2 655.6,221.1 674.1,221.1 674.1,178.2 655.6,178.2"/>
  <polygon points="678.7,183.5 678.7,228.7 697.2,228.7 697.2,183.5 678.7,183.5"/>
  <polygon points="701.8,168.8 701.8,214.1 720.3,214.1 720.3,168.8 701.8,168.8"/>
  <polygon points="724.9,158.8 724.9,203.9 743.3,203.9 743.3,158.8 724.9,158.8"/>
  <polygon points="748.0,140.2 748.0,187.2 766.4,187.2 766.4,140.2 748.0,140.2"/>
  <polygon points="771.0,119.3 771.0,169.8 789.5,169.8 789.5,119.3 771.0,119.3"/>
  <polygon points="794.1,121.9 794.1,174.4 812.6,174.4 812.6,121.9 794.1,121.9"/>
  <polygon points="817.2,131.1 817.2,185.5 835.7,185.5 835.7,131.1 817.2,131.1"/>
  <polygon points="840.3,120.1 840.3,178.3 858.7,178.3 858.7,120.1 840.3,120.1"/>
  <polygon points="863.4,87.1 863.4,144.5 881.8,144.5 881.8,87.1 863.4,87.1"/>
  <polygon points="886.4,98.2 886.4,152.6 904.9,152.6 904.9,98.2 886.4,98.2"/>
</g>
<g stroke="#000" stroke-width="0.90" fill="#7F7FFF"  clip-path="url(#axis_clip)">
  <polygon points="147.9,384.7 147.9,402.0 166.4,402.0 166.4,384.7 147.9,384.7"/>
  <polygon points="171.0,380.1 171.0,398.7 189.4,398.7 189.4,380.1 171.0,380.1"/>
  <polygon points="194.1,375.3 194.1,393.7 212.5,393.7 212.5,375.3 194.1,375.3"/>
  <polygon points="217.1,370.1 217.1,388.8 235.6,388.8 235.6,370.1 217.1,370.1"/>
  <polygon points="240.2,373.3 240.2,391.6 258.7,391.6 258.7,373.3 240.2,373.3"/>
  <polygon points="263.3,362.2 263.3,381.5 281.8,381.5 281.8,362.2 263.3,362.2"/>
  <polygon points="286.4,348.2 286.4,368.0 304.8,368.0 304.8,348.2 286.4,348.2"/>
  <polygon points="309.5,338.3 309.5,358.7 327.9,358.7 327.9,338.3 309.5,338.3"/>
  <polygon points="332.5,338.2 332.5,358.9 351.0,358.9 351.0,338.2 332.5,338.2"/>
  <polygon points="355.6,340.8 355.6,360.4 374.1,360.4 374.1,340.8 355.6,340.8"/>
  <polygon points="378.7,323.8 378.7,343.6 397.2,343.6 397.2,323.8 378.7,323.8"/>
  <polygon points="401.8,336.7 401.8,356.3 420.2,356.3 420.2,336.7 401.8,336.7"/>
  <polygon points="424.9,331.1 424.9,351.4 443.3,351.4 443.3,331.1 424.9,331.1"/>
  <polygon points="447.9,319.1 447.9,340.4 466.4,340.4 466.4,319.1 447.9,319.1"/>
  <polygon points="471.0,312.8 471.0,336.1 489.5,336.1 489.5,312.8 471.0,312.8"/>
  <polygon points="494.1,296.5 494.1,322.4 512.6,322.4 512.6,296.5 494.1,296.5"/>
  <polygon points="517.2,282.3 517.2,310.0 535.6,310.0 535.6,282.3 517.2,282.3"/>
  <polygon points="540.2,256.4 540.2,286.4 558.7,286.4 558.7,256.4 540.2,256.4"/>
  <polygon points="563.3,257.9 563.3,289.3 581.8,289.3 581.8,257.9 563.3,257.9"/>
  <polygon points="586.4,253.3 586.4,285.8 604.9,285.8 604.9,253.3 586.4,253.3"/>
  <polygon points="609.5,252.4 609.5,289.4 627.9,289.4 627.9,252.4 609.5,252.4"/>
  <polygon points="632.6,232.2 632.6,272.9 651.0,272.9 651.0,232.2 632.6,232.2"/>
  <polygon points="655.6,221.1 655.6,263.5 674.1,263.5 674.1,221.1 655.6,221.1"/>
  <polygon points="678.7,228.7 678.7,273.4 697.2,273.4 697.2,228.7 678.7,228.7"/>
  <polygon points="701.8,214.1 701.8,259.4 720.3,259.4 720.3,214.1 701.8,214.1"/>
  <polygon points="724.9,203.9 724.9,249.0 743.3,249.0 743.3,203.9 724.9,203.9"/>
  <polygon points="748.0,187.2 748.0,235.4 766.4,235.4 766.4,187.2 748.0,187.2"/>
  <polygon points="771.0,169.8 771.0,220.2 789.5,220.2 789.5,169.8 771.0,169.8"/>
  <polygon points="794.1,174.4 794.1,225.6 812.6,225.6 812.6,174.4 794.1,174.4"/>
  <polygon points="817.2,185.5 817.2,230.0 835.7,230.0 835.7,185.5 817.2,185.5"/>
  <polygon points="840.3,178.3 840.3,229.5 858.7,229.5 858.7,178.3 840.3,178.3"/>
  <polygon points="863.4,144.5 863.4,201.4 881.8,201.4 881.8,144.5 863.4,144.5"/>
  <polygon points="886.4,152.6 886.4,205.9 904.9,205.9 904.9,152.6 886.4,152.6"/>
</g>
<g stroke="#000" stroke-width="0.90" fill="#FF7F7F"  clip-path="url(#axis_clip)">
  <polygon points="147.9,402.0 147.9,511.0 166.4,511.0 166.4,402.0 147.9,402.0"/>
  <polygon points="171.0,398.7 171.0,511.0 189.4,511.0 189.4,398.7 171.0,398.7"/>
  <polygon points="194.1,393.7 194.1,511.0 212.5,511.0 212.5,393.7 194.1,393.7"/>
  <polygon points="217.1,388.8 217.1,511.0 235.6,511.0 235.6,388.8 217.1,388.8"/>
  <polygon points="240.2,391.6 240.2,511.0 258.7,511.0 258.7,391.6 240.2,391.6"/>
  <polygon points="263.3,381.5 263.3,511.0 281.8,511.0 281.8,381.5 263.3,381.5"/>
  <polygon points="286.4,368.0 286.4,511.0 304.8,511.0 304.8,368.0 286.4,368.0"/>
  <polygon points="309.5,358.7 309.5,511.0 327.9,511.0 327.9,358.7 309.5,358.7"/>
  <polygon points="332.5,358.9 332.5,511.0 351.0,511.0 351.0,358.9 332.5,358.9"/>
  <polygon points="355.6,360.4 355.6,511.0 374.1,511.0 374.1,360.4 355.6,360.4"/>
  <polygon points="378.7,343.6 378.7,511.0 397.2,511.0 397.2,343.6 378.7,343.6"/>
  <polygon points="401.8,356.3 401.8,511.0 420.2,511.0 420.2,356.3 401.8,356.3"/>
  <polygon points="424.9,351.4 424.9,511.0 443.3,511.0 443.3,351.4 424.9,351.4"/>
  <polygon points="447.9,340.4 447.9,511.0 466.4,511.0 466.4,340.4 447.9,340.4"/>
  <polygon points="471.0,336.1 471.0,511.0 489.5,511.0 489.5,336.1 471.0,336.1"/>
  <polygon points="494.1,322.4 494.1,511.0 512.6,511.0 512.6,322.4 494.1,322.4"/>
  <polygon points="517.2,310.0 517.2,511.0 535.6,511.0 535.6,310.0 517.2,310.0"/>
  <polygon points="540.2,286.4 540.2,511.0 558.7,511.0 558.7,286.4 540.2,286.4"/>
  <polygon points="563.3,289.3 563.3,511.0 581.8,511.0 581.8,289.3 563.3,289.3"/>
  <polygon points="586.4,285.8 586.4,511.0 604.9,511.0 604.9,285.8 586.4,285.8"/>
  <polygon points="609.5,289.4 609.5,511.0 627.9,511.0 627.9,289.4 609.5,289.4"/>
  <polygon points="632.6,272.9 632.6,511.0 651.0,511.0 651.0,272.9 632.6,272.9"/>
  <polygon points="655.6,263.5 655.6,511.0 674.1,511.0 674.1,263.5 655.6,263.5"/>
  <polygon points="678.7,273.4 678.7,511.0 697.2,511.0 697.2,273.4 678.7,273.4"/>
  <polygon points="701.8,259.4 701.8,511.0 720.3,511.0 720.3,259.4 701.8,259.4"/>
  <polygon points="724.9,249.0 724.9,511.0 743.3,511.0 743.3,249.0 724.9,249.0"/>
  <polygon points="748.0,235.4 748.0,511.0 766.4,511.0 766.4,235.4 748.0,235.4"/>
  <polygon points="771.0,220.2 771.0,511.0 789.5,511.0 789.5,220.2 771.0,220.2"/>
  <polygon points="794.1,225.6 794.1,511.0 812.6,511.0 812.6,225.6 794.1,225.6"/>
  <polygon points="817.2,230.0 817.2,511.0 835.7,511.0 835.7,230.0 817.2,230.0"/>
  <polygon points="840.3,229.5 840.3,511.0 858.7,511.0 858.7,229.5 840.3,229.5"/>
  <polygon points="863.4,201.4 863.4,511.0 881.8,511.0 881.8,201.4 863.4,201.4"/>
  <polygon points="886.4,205.9 886.4,511.0 904.9,511.0 904.9,205.9 886.4,205.9"/>
</g>
<g stroke="#000" stroke-width="0.90" fill="#7FBF7F"  clip-path="url(#axis_clip)">
  <polygon points="147.9,561.6 147.9,511.0 166.4,511.0 166.4,561.6 147.9,561.6"/>
  <polygon points="171.0,562.4 171.0,511.0 189.4,511.0 189.4,562.4 171.0,562.4"/>
  <polygon points="194.1,562.4 194.1,511.0 212.5,511.0 212.5,562.4 194.1,562.4"/>
  <polygon points="217.1,561.8 217.1,511.0 235.6,511.0 235.6,561.8 217.1,561.8"/>
  <polygon points="240.2,562.8 240.2,511.0 258.7,511.0 258.7,562.8 240.2,562.8"/>
  <polygon points="263.3,562.8 263.3,511.0 281.8,511.0 281.8,562.8 263.3,562.8"/>
  <polygon points="286.4,562.3 286.4,511.0 304.8,511.0 304.8,562.3 286.4,562.3"/>
  <polygon points="309.5,564.7 309.5,511.0 327.9,511.0 327.9,564.7 309.5,564.7"/>
  <polygon points="332.5,564.8 332.5,511.0 351.0,511.0 351.0,564.8 332.5,564.8"/>
  <polygon points="355.6,565.3 355.6,511.0 374.1,511.0 374.1,565.3 355.6,565.3"/>
  <polygon points="378.7,562.9 378.7,511.0 397.2,511.0 397.2,562.9 378.7,562.9"/>
  <polygon points="401.8,564.9 401.8,511.0 420.2,511.0 420.2,564.9 401.8,564.9"/>
  <polygon points="424.9,563.8 424.9,511.0 443.3,511.0 443.3,563.8 424.9,563.8"/>
  <polygon points="447.9,565.3 447.9,511.0 466.4,511.0 466.4,565.3 447.9,565.3"/>
  <polygon points="471.0,564.3 471.0,511.0 489.5,511.0 489.5,564.3 471.0,564.3"/>
  <polygon points="494.1,566.0 494.1,511.0 512.6,511.0 512.6,566.0 494.1,566.0"/>
  <polygon points="517.2,565.5 517.2,511.0 535.6,511.0 535.6,565.5 517.2,565.5"/>
  <polygon points="540.2,565.8 540.2,511.0 558.7,511.0 558.7,565.8 540.2,565.8"/>
  <polygon points="563.3,562.7 563.3,511.0 581.8,511.0 581.8,562.7 563.3,562.7"/>
  <polygon points="586.4,564.9 586.4,511.0 604.9,511.0 604.9,564.9 586.4,564.9"/>
  <polygon points="609.5,565.9 609.5,511.0 627.9,511.0 627.9,565.9 609.5,565.9"/>
  <polygon points="632.6,568.6 632.6,511.0 651.0,511.0 651.0,568.6 632.6,568.6"/>
  <polygon points="655.6,566.9 655.6,511.0 674.1,511.0 674.1,566.9 655.6,566.9"/>
  <polygon points="678.7,569.2 678.7,511.0 697.2,511.0 697.2,569.2 678.7,569.2"/>
  <polygon points="701.8,569.5 701.8,511.0 720.3,511.0 720.3,569.5 701.8,569.5"/>
  <polygon points="724.9,566.5 724.9,511.0 743.3,511.0 743.3,566.5 724.9,566.5"/>
  <polygon points="748.0,567.2 748.0,511.0 766.4,511.0 766.4,567.2 748.0,567.2"/>
  <polygon points="771.0,568.9 771.0,511.0 789.5,511.0 789.5,568.9 771.0,568.9"/>
  <polygon points="794.1,564.6 794.1,511.0 812.6,511.0 812.6,564.6 794.1,564.6"/>
  <polygon points="817.2,560.0 817.2,511.0 835.7,511.0 835.7,560.0 817.2,560.0"/>
  <polygon points="840.3,554.9 840.3,511.0 858.7,511.0 858.7,554.9 840.3,554.9"/>
  <polygon points="863.4,547.5 863.4,511.0 881.8,511.0 881.8,547.5 863.4,547.5"/>
  <polygon points="886.4,553.7 886.4,511.0 904.9,511.0 904.9,553.7 886.4,553.7"/>
</g>
<polyline class="pl" points="157.1,387.9 180.2,383.1 203.3,378.2 226.4,372.0 249.5,377.9 272.5,367.4 295.6,352.1 318.7,346.3 341.8,345.3 364.8,347.7 387.9,329.5 411.0,345.9 434.1,341.1 457.2,327.6 480.2,319.3 503.3,303.4 526.4,287.4 549.5,261.9 572.6,261.9 595.6,259.2 618.7,257.2 641.8,237.4 664.9,220.2 688.0,228.5 711.0,214.3 734.1,200.8 757.2,183.2 780.3,164.4 803.3,162.4 826.4,167.3 849.5,151.1 872.6,111.8 895.7,128.5" stroke="#000" stroke-width="5.40" stroke-opacity="1.00" fill="none" clip-path="url(#axis_clip)"/>
<g class="pl" fill="#FFF" stroke="#000" stroke-width="0.900">
  <circle cx="180.2" cy="383.1" r="2.2" />
  <circle cx="203.3" cy="378.2" r="2.2" />
  <circle cx="226.4" cy="372.0" r="2.2" />
  <circle cx="249.5" cy="377.9" r="2.2" />
  <circle cx="272.5" cy="367.4" r="2.2" />
  <circle cx="295.6" cy="352.1" r="2.2" />
  <circle cx="318.7" cy="346.3" r="2.2" />
  <circle cx="341.8" cy="345.3" r="2.2" />
  <circle cx="364.8" cy="347.7" r="2.2" />
  <circle cx="411.0" cy="345.9" r="2.2" />
  <circle cx="434.1" cy="341.1" r="2.2" />
  <circle cx="457.2" cy="327.6" r="2.2" />
  <circle cx="480.2" cy="319.3" r="2.2" />
  <circle cx="503.3" cy="303.4" r="2.2" />
  <circle cx="526.4" cy="287.4" r="2.2" />
  <circle cx="549.5" cy="261.9" r="2.2" />
  <circle cx="572.6" cy="261.9" r="2.2" />
  <circle cx="595.6" cy="259.2" r="2.2" />
  <circle cx="641.8" cy="237.4" r="2.2" />
  <circle cx="664.9" cy="220.2" r="2.2" />
  <circle cx="688.0" cy="228.5" r="2.2" />
  <circle cx="711.0" cy="214.3" r="2.2" />
  <circle cx="734.1" cy="200.8" r="2.2" />
  <circle cx="757.2" cy="183.2" r="2.2" />
  <circle cx="780.3" cy="164.4" r="2.2" />
  <circle cx="803.3" cy="162.4" r="2.2" />
  <circle cx="826.4" cy="167.3" r="2.2" />
  <circle cx="872.6" cy="111.8" r="2.2" />
  <circle cx="895.7" cy="128.5" r="2.2" />
</g>
<g class="pl" fill="#FFF" stroke="#000" stroke-width="0.900">
  <circle cx="157.1" cy="387.9" r="5.4" />
  <circle cx="387.9" cy="329.5" r="5.4" />
  <circle cx="618.7" cy="257.2" r="5.4" />
  <circle cx="849.5" cy="151.1" r="5.4" />
</g>
<text transform="translate(145.6,47.2)" dy="0.0" font-size="27.00" fill="#808080" stroke="none">Annual Greenhouse Gas Emissions: Turkey</text>
<text transform="translate(130.0,81.6)" dy="8.1" font-size="27.00" fill="#808080" stroke="none" text-anchor="end">CO<tspan dy="0.2em"><tspan style="font-size:70%">2</tspan></tspan><tspan dy="-0.2em">e</tspan></text>
<text transform="translate(945.6,140.3)" dy="7.6" font-size="25.20" fill="#000" stroke="none">+210.8% since 1990</text>
<text transform="translate(945.6,358.4)" dy="7.6" font-size="25.20" fill="#FF7F7F" stroke="none">Energy</text>
<text transform="translate(945.6,179.3)" dy="7.6" font-size="25.20" fill="#7F7FFF" stroke="none">Industrial Processes</text>
<text transform="translate(945.6,115.3)" dy="7.6" font-size="25.20" fill="#DEDE7F" stroke="none">Agriculture</text>
<text transform="translate(945.6,90.3)" dy="7.6" font-size="25.20" fill="#7FDEDE" stroke="none">Waste</text>
<text transform="translate(945.6,532.4)" dy="7.6" font-size="25.20" fill="#7FBF7F" stroke="none">LULUCF</text>
<polyline class="pl" points="910.8,128.5 912.4,128.5 913.8,128.7 915.2,128.9 916.4,129.1 917.6,129.4 918.8,129.8 919.8,130.2 920.8,130.7 921.7,131.2 922.7,131.8 923.5,132.3 924.4,132.9 925.2,133.5 926.0,134.1 926.8,134.7 927.6,135.3 928.4,135.9 929.3,136.5 930.1,137.1 931.1,137.6 932.0,138.1 933.0,138.6 934.0,139.0 935.2,139.4 936.4,139.7 937.6,140.0 939.0,140.2 940.4,140.3 942.0,140.3" stroke="#000" stroke-width="0.90" stroke-opacity="1.00" fill="none" />
<polyline class="pl" points="910.8,125.4 912.4,125.4 913.8,125.3 915.2,125.1 916.4,124.9 917.6,124.6 918.8,124.3 919.8,123.9 920.8,123.5 921.7,123.1 922.7,122.6 923.5,122.1 924.4,121.6 925.2,121.1 926.0,120.6 926.8,120.1 927.6,119.6 928.4,119.1 929.3,118.6 930.1,118.1 931.1,117.6 932.0,117.2 933.0,116.8 934.0,116.4 935.2,116.1 936.4,115.8 937.6,115.6 939.0,115.4 940.4,115.3 942.0,115.3" stroke="#DEDE7F" stroke-width="0.90" stroke-opacity="1.00" fill="none" />
<polyline class="pl" points="910.8,92.0 912.4,92.0 913.8,91.9 915.2,91.9 916.4,91.9 917.6,91.8 918.8,91.8 919.8,91.7 920.8,91.7 921.7,91.6 922.7,91.5 923.5,91.4 924.4,91.3 925.2,91.2 926.0,91.2 926.8,91.1 927.6,91.0 928.4,90.9 929.3,90.8 930.1,90.7 931.1,90.6 932.0,90.6 933.0,90.5 934.0,90.4 935.2,90.4 936.4,90.3 937.6,90.3 939.0,90.3 940.4,90.3 942.0,90.3" stroke="#7FDEDE" stroke-width="0.90" stroke-opacity="1.00" fill="none" />
<text transform="translate(160.0,666.1)" font-size="19.80" font-family="Helvetica" fill="#BFBFBF" stroke="none" xml:space="preserve">CICERO   &#9679;   Data: UNFCCC (2024)</text>
<g>
  <rect x="123.0" y="651.4" width="34" height="17" fill="#FFF" stroke="none"/>
  <g transform="translate(124.0,652.4) scale(0.24)">
  <g><circle fill="#FFF" cx="37.79" cy="28.5" r="28.84"/>
     <circle fill="none" cx="37.79" cy="28.5" r="28.84" stroke="#BFBFBF" stroke-width="5.5"/>
     <path fill="#BFBFBF" d="M37.16,23.19 l-4.29,2.23c-0.458-0.951-1.02-1.62-1.69-2c-0.667-0.38-1.29-0.571-1.86-0.571c-2.86,0-4.29,1.89-4.29,5.66 c0,1.71,0.36,3.08,1.09,4.11c0.724,1.03,1.79,1.54,3.2,1.54c1.87,0,3.18-0.915,3.94-2.74l3.94,2 c-0.838,1.56-2,2.79-3.49,3.69c-1.48,0.896-3.12,1.34-4.91,1.34c-2.86,0-5.16-0.875-6.92-2.63 c-1.75-1.75-2.63-4.19-2.63-7.31c0-3.05,0.886-5.47,2.66-7.26c1.77-1.79,4.01-2.69,6.72-2.69 C32.6,18.56,35.44,20.1,37.16,23.19z
              M55.61,23.19l-4.23,2.23c-0.457-0.951-1.02-1.62-1.69-2 c-0.668-0.38-1.31-0.571-1.91-0.571c-2.86,0-4.29,1.89-4.29,5.66c0,1.71,0.363,3.08,1.09,4.11 c0.723,1.03,1.79,1.54,3.2,1.54c1.87,0,3.18-0.915,3.94-2.74l4,2c-0.875,1.56-2.06,2.79-3.54,3.69 c-1.49,0.9-3.11,1.34-4.86,1.34c-2.9,0-5.21-0.875-6.94-2.63c-1.74-1.75-2.6-4.19-2.6-7.31 c0-3.05,0.885-5.47,2.66-7.26c1.77-1.79,4.01-2.69,6.71-2.69C51.12,18.56,53.944,20.1,55.61,23.19z"/>
  </g></g>
  <g transform="translate(140.2,652.4) scale(0.24)">
  <g><circle fill="#FFF" cx="37.79" cy="28.5" r="28.84"/>
     <circle fill="none" cx="37.79" cy="28.5" r="28.84" stroke="#BFBFBF" stroke-width="5.5"/>
     <path fill="#BFBFBF" d="M46.129,20.557v13.085h-3.656v15.542h-9.944V33.643h-3.656V20.557 c0-0.572,0.2-1.057,0.599-1.457c0.401-0.399,0.887-0.6,1.457-0.6h13.144c0.533,0,1.01,0.2,1.428,0.6 C45.918,19.5,46.129,19.986,46.129,20.557z
              M33.042,12.329c0-3.008,1.485-4.514,4.458-4.514s4.457,1.504,4.457,4.514 c0,2.971-1.486,4.457-4.457,4.457S33.042,15.3,33.042,12.329z"/>
  </g></g>
</g>
</g>
</svg>
