<svg version="1.1" xmlns="http://www.w3.org/2000/svg" xmlns:xlink="http://www.w3.org/1999/xlink" width="100%" height="100%" viewBox="0 0 1200.000 674.916">
<title>Annual Greenhouse Gas Emissions: Turkey</title>
<style type="text/css">
  #main {font-family:Helvetica,Arial,sans-serif; font-size:27.00px;
         fill-opacity:1; fill:#000000; stroke:none; stroke-linejoin:round; stroke-linecap:round; stroke-width:1.00;}
  .marker {stroke-opacity:0;fill-opacity:0;}
  .marker:hover {stroke-opacity:0.5; fill-opacity:1;}
  .ticklabel {font-size:27.00px;fill:#808080;stroke:none;font-family:Helvetica}
  .ytl {text-anchor:end;}
  .dp1 {pointer-events:none;font-size:70%;text-anchor:middle;fill:#000000;}
  .dp2 {pointer-events:none;font-size:70%;text-anchor:middle;fill:#FFFFFF;}
  .numtip {pointer-events:none;}
  .cc {opacity:0.25;}
.dl_fe {background-color:#FDFFDF;display:flex;margin:auto;align-items:center}
.dl_fe_p {font-size:20px;text-align:center;margin:3px}
.dl_el {display:none;pointer-events:none;}
.cc:hover + .dl_el {display:block;}
text:hover + .dl_el {display:block;}
</style>
<defs>
  <clipPath id="axis_clip"><rect x="145.8" y="54.2" width="761.2" height="532.8" /></clipPath>
  <path id="line_y" d="M 0,53.993 v 533.183" stroke="#262626" stroke-opacity="0.15" stroke-width="1.00"/>
  <path id="line_x" d="M 145.600,0 h 761.600" stroke="#262626" stroke-opacity="0.15" stroke-width="1.00"/>
  <path id="tick_y" d="M 145.600,0 h -6.000" stroke="#808080" stroke-width="0.90"/>
  <path id="tick_x" d="M 0,587.177 v 6.000" stroke="#808080" stroke-width="0.90"/>
</defs>
<g id="main">
<use xlink:href="#line_y" transform="translate(156.8,0)"/>
<use xlink:href="#line_y" transform="translate(268.8,0)"/>
<use xlink:href="#line_y" transform="translate(380.8,0)"/>
<use xlink:href="#line_y" transform="translate(492.8,0)"/>
<use xlink:href="#line_y" transform="translate(604.8,0)"/>
<use xlink:href="#line_y" transform="translate(716.8,0)"/>
<use xlink:href="#line_y" transform="translate(828.8,0)"/>
<use xlink:href="#line_y" transform="translate(896.0,0)"/>
<use xlink:href="#line_x" transform="translate(0,511.0)"/>
<use xlink:href="#line_x" transform="translate(0,358.7)"/>
<use xlink:href="#line_x" transform="translate(0,206.3)"/>
<use xlink:href="#line_x" transform="translate(0,54.0)"/>
<use xlink:href="#tick_y" transform="translate(0,511.0)"/>
<use xlink:href="#tick_y" transform="translate(0,358.7)"/>
<use xlink:href="#tick_y" transform="translate(0,206.3)"/>
<use xlink:href="#tick_y" transform="translate(0,54.0)"/>
<use xlink:href="#tick_x" transform="translate(156.8,0)"/>
<use xlink:href="#tick_x" transform="translate(268.8,0)"/>
<use xlink:href="#tick_x" transform="translate(380.8,0)"/>
<use xlink:href="#tick_x" transform="translate(492.8,0)"/>
<use xlink:href="#tick_x" transform="translate(604.8,0)"/>
<use xlink:href="#tick_x" transform="translate(716.8,0)"/>
<use xlink:href="#tick_x" transform="translate(828.8,0)"/>
<use xlink:href="#tick_x" transform="translate(896.0,0)"/>
<polyline points="145.6,53.993 145.6,587.177 907.2,587.177" stroke="#808080" stroke-width="0.90" fill="none"/>
<text class="ticklabel xtl" transform="translate(156.8,629.0)" text-anchor="middle">1990</text>
<text class="ticklabel xtl" transform="translate(268.8,629.0)" text-anchor="middle">1995</text>
<text class="ticklabel xtl" transform="translate(380.8,629.0)" text-anchor="middle">2000</text>
<text class="ticklabel xtl" transform="translate(492.8,629.0)" text-anchor="middle">2005</text>
<text class="ticklabel xtl" transform="translate(604.8,629.0)" text-anchor="middle">2010</text>
<text class="ticklabel xtl" transform="translate(716.8,629.0)" text-anchor="middle">2015</text>
<text class="ticklabel xtl" transform="translate(828.8,629.0)" text-anchor="middle">2020</text>
<text class="ticklabel xtl" transform="translate(896.0,629.0)" text-anchor="middle">23</text>
<text class="ticklabel ytl" transform="translate(128.8,519.1)">0</text>
<text class="ticklabel ytl" transform="translate(128.8,366.8)">200</text>
<text class="ticklabel ytl" transform="translate(128.8,214.4)">400</text>
<text class="ticklabel ytl" transform="translate(128.8,62.1)">600 Mt</text>
<g stroke="#000" stroke-width="0.90" fill="#DBA746"  clip-path="url(#axis_clip)">
  <polygon class="pl" points="147.8,337.0 147.8,337.3 165.8,337.3 165.8,337.0 147.8,337.0"/>
  <polygon class="pl" points="170.2,331.3 170.2,331.7 188.2,331.7 188.2,331.3 170.2,331.3"/>
  <polygon class="pl" points="192.6,326.4 192.6,326.8 210.6,326.8 210.6,326.4 192.6,326.4"/>
  <polygon class="pl" points="215.0,320.8 215.0,321.2 233.0,321.2 233.0,320.8 215.0,320.8"/>
  <polygon class="pl" points="237.4,325.7 237.4,326.0 255.4,326.0 255.4,325.7 237.4,325.7"/>
  <polygon class="pl" points="259.8,315.2 259.8,315.5 277.8,315.5 277.8,315.2 259.8,315.2"/>
  <polygon class="pl" points="282.2,300.5 282.2,300.8 300.2,300.8 300.2,300.5 282.2,300.5"/>
  <polygon class="pl" points="304.6,292.2 304.6,292.5 322.6,292.5 322.6,292.2 304.6,292.2"/>
  <polygon class="pl" points="327.0,291.1 327.0,291.4 345.0,291.4 345.0,291.1 327.0,291.1"/>
  <polygon class="pl" points="349.4,293.0 349.4,293.3 367.4,293.3 367.4,293.0 349.4,293.0"/>
  <polygon class="pl" points="371.8,277.2 371.8,277.6 389.8,277.6 389.8,277.2 371.8,277.2"/>
  <polygon class="pl" points="394.2,291.5 394.2,292.0 412.2,292.0 412.2,291.5 394.2,291.5"/>
  <polygon class="pl" points="416.6,287.8 416.6,288.4 434.6,288.4 434.6,287.8 416.6,287.8"/>
  <polygon class="pl" points="439.0,272.8 439.0,273.5 457.0,273.5 457.0,272.8 439.0,272.8"/>
  <polygon class="pl" points="461.4,265.5 461.4,266.4 479.4,266.4 479.4,265.5 461.4,265.5"/>
  <polygon class="pl" points="483.8,247.8 483.8,248.9 501.8,248.9 501.8,247.8 483.8,247.8"/>
  <polygon class="pl" points="506.2,232.2 506.2,233.4 524.2,233.4 524.2,232.2 506.2,232.2"/>
  <polygon class="pl" points="528.6,206.4 528.6,207.9 546.6,207.9 546.6,206.4 528.6,206.4"/>
  <polygon class="pl" points="551.0,209.5 551.0,211.1 569.0,211.1 569.0,209.5 551.0,209.5"/>
  <polygon class="pl" points="573.4,204.5 573.4,206.1 591.4,206.1 591.4,204.5 573.4,204.5"/>
  <polygon class="pl" points="595.8,201.4 595.8,203.9 613.8,203.9 613.8,201.4 595.8,201.4"/>
  <polygon class="pl" points="618.2,178.9 618.2,181.6 636.2,181.6 636.2,178.9 618.2,178.9"/>
  <polygon class="pl" points="640.6,163.4 640.6,166.6 658.6,166.6 658.6,163.4 640.6,163.4"/>
  <polygon class="pl" points="663.0,169.3 663.0,172.6 681.0,172.6 681.0,169.3 663.0,169.3"/>
  <polygon class="pl" points="685.4,154.7 685.4,158.4 703.4,158.4 703.4,154.7 685.4,154.7"/>
  <polygon class="pl" points="707.8,144.4 707.8,147.9 725.8,147.9 725.8,144.4 707.8,144.4"/>
  <polygon class="pl" points="730.2,126.5 730.2,130.2 748.2,130.2 748.2,126.5 730.2,126.5"/>
  <polygon class="pl" points="752.6,105.8 752.6,109.6 770.6,109.6 770.6,105.8 752.6,105.8"/>
  <polygon class="pl" points="775.0,107.8 775.0,111.5 793.0,111.5 793.0,107.8 775.0,107.8"/>
  <polygon class="pl" points="797.4,117.3 797.4,121.4 815.4,121.4 815.4,117.3 797.4,117.3"/>
  <polygon class="pl" points="819.8,105.9 819.8,110.6 837.8,110.6 837.8,105.9 819.8,105.9"/>
  <polygon class="pl" points="842.2,73.9 842.2,79.2 860.2,79.2 860.2,73.9 842.2,73.9"/>
  <polygon class="pl" points="864.6,84.5 864.6,92.4 882.6,92.4 882.6,84.5 864.6,84.5"/>
  <polygon class="pl" points="887.0,90.4 887.0,98.0 905.0,98.0 905.0,90.4 887.0,90.4"/>
</g>
<g stroke="#000" stroke-width="0.90" fill="#845F48"  clip-path="url(#axis_clip)">
  <polygon class="pl" points="147.8,337.3 147.8,354.2 165.8,354.2 165.8,337.3 147.8,337.3"/>
  <polygon class="pl" points="170.2,331.7 170.2,348.4 188.2,348.4 188.2,331.7 170.2,331.7"/>
  <polygon class="pl" points="192.6,326.8 192.6,343.9 210.6,343.9 210.6,326.8 192.6,326.8"/>
  <polygon class="pl" points="215.0,321.2 215.0,338.8 233.0,338.8 233.0,321.2 215.0,321.2"/>
  <polygon class="pl" points="237.4,326.0 237.4,342.0 255.4,342.0 255.4,326.0 237.4,326.0"/>
  <polygon class="pl" points="259.8,315.5 259.8,331.7 277.8,331.7 277.8,315.5 259.8,315.5"/>
  <polygon class="pl" points="282.2,300.8 282.2,317.4 300.2,317.4 300.2,300.8 282.2,300.8"/>
  <polygon class="pl" points="304.6,292.5 304.6,308.7 322.6,308.7 322.6,292.5 304.6,292.5"/>
  <polygon class="pl" points="327.0,291.4 327.0,308.5 345.0,308.5 345.0,291.4 327.0,291.4"/>
  <polygon class="pl" points="349.4,293.3 349.4,310.7 367.4,310.7 367.4,293.3 349.4,293.3"/>
  <polygon class="pl" points="371.8,277.6 371.8,294.3 389.8,294.3 389.8,277.6 371.8,277.6"/>
  <polygon class="pl" points="394.2,292.0 394.2,307.3 412.2,307.3 412.2,292.0 394.2,292.0"/>
  <polygon class="pl" points="416.6,288.4 416.6,303.7 434.6,303.7 434.6,288.4 416.6,288.4"/>
  <polygon class="pl" points="439.0,273.5 439.0,289.8 457.0,289.8 457.0,273.5 439.0,273.5"/>
  <polygon class="pl" points="461.4,266.4 461.4,283.2 479.4,283.2 479.4,266.4 461.4,266.4"/>
  <polygon class="pl" points="483.8,248.9 483.8,266.5 501.8,266.5 501.8,248.9 483.8,248.9"/>
  <polygon class="pl" points="506.2,233.4 506.2,251.9 524.2,251.9 524.2,233.4 506.2,233.4"/>
  <polygon class="pl" points="528.6,207.9 528.6,226.0 546.6,226.0 546.6,207.9 528.6,207.9"/>
  <polygon class="pl" points="551.0,211.1 551.0,228.3 569.0,228.3 569.0,211.1 551.0,211.1"/>
  <polygon class="pl" points="573.4,206.1 573.4,224.1 591.4,224.1 591.4,206.1 573.4,206.1"/>
  <polygon class="pl" points="595.8,203.9 595.8,222.5 613.8,222.5 613.8,203.9 595.8,203.9"/>
  <polygon class="pl" points="618.2,181.6 618.2,201.0 636.2,201.0 636.2,181.6 618.2,181.6"/>
  <polygon class="pl" points="640.6,166.6 640.6,186.7 658.6,186.7 658.6,166.6 640.6,166.6"/>
  <polygon class="pl" points="663.0,172.6 663.0,193.9 681.0,193.9 681.0,172.6 663.0,172.6"/>
  <polygon class="pl" points="685.4,158.4 685.4,179.8 703.4,179.8 703.4,158.4 685.4,158.4"/>
  <polygon class="pl" points="707.8,147.9 707.8,169.8 725.8,169.8 725.8,147.9 707.8,147.9"/>
  <polygon class="pl" points="730.2,130.2 730.2,153.4 748.2,153.4 748.2,130.2 730.2,130.2"/>
  <polygon class="pl" points="752.6,109.6 752.6,133.6 770.6,133.6 770.6,109.6 752.6,109.6"/>
  <polygon class="pl" points="775.0,111.5 775.0,135.5 793.0,135.5 793.0,111.5 775.0,111.5"/>
  <polygon class="pl" points="797.4,121.4 797.4,146.5 815.4,146.5 815.4,121.4 797.4,121.4"/>
  <polygon class="pl" points="819.8,110.6 819.8,138.1 837.8,138.1 837.8,110.6 819.8,110.6"/>
  <polygon class="pl" points="842.2,79.2 842.2,106.5 860.2,106.5 860.2,79.2 842.2,79.2"/>
  <polygon class="pl" points="864.6,92.4 864.6,118.5 882.6,118.5 882.6,92.4 864.6,92.4"/>
  <polygon class="pl" points="887.0,98.0 887.0,124.7 905.0,124.7 905.0,98.0 887.0,98.0"/>
</g>
<g stroke="#000" stroke-width="0.90" fill="#4A89E8"  clip-path="url(#axis_clip)">
  <polygon class="pl" points="147.8,354.2 147.8,393.3 165.8,393.3 165.8,354.2 147.8,354.2"/>
  <polygon class="pl" points="170.2,348.4 170.2,388.3 188.2,388.3 188.2,348.4 170.2,348.4"/>
  <polygon class="pl" points="192.6,343.9 192.6,383.6 210.6,383.6 210.6,343.9 192.6,343.9"/>
  <polygon class="pl" points="215.0,338.8 215.0,378.3 233.0,378.3 233.0,338.8 215.0,338.8"/>
  <polygon class="pl" points="237.4,342.0 237.4,381.1 255.4,381.1 255.4,342.0 237.4,342.0"/>
  <polygon class="pl" points="259.8,331.7 259.8,370.3 277.8,370.3 277.8,331.7 259.8,331.7"/>
  <polygon class="pl" points="282.2,317.4 282.2,356.3 300.2,356.3 300.2,317.4 282.2,317.4"/>
  <polygon class="pl" points="304.6,308.7 304.6,346.9 322.6,346.9 322.6,308.7 304.6,308.7"/>
  <polygon class="pl" points="327.0,308.5 327.0,346.8 345.0,346.8 345.0,308.5 327.0,308.5"/>
  <polygon class="pl" points="349.4,310.7 349.4,350.1 367.4,350.1 367.4,310.7 349.4,310.7"/>
  <polygon class="pl" points="371.8,294.3 371.8,333.6 389.8,333.6 389.8,294.3 371.8,294.3"/>
  <polygon class="pl" points="394.2,307.3 394.2,345.8 412.2,345.8 412.2,307.3 394.2,307.3"/>
  <polygon class="pl" points="416.6,303.7 416.6,340.1 434.6,340.1 434.6,303.7 416.6,303.7"/>
  <polygon class="pl" points="439.0,289.8 439.0,328.3 457.0,328.3 457.0,289.8 439.0,289.8"/>
  <polygon class="pl" points="461.4,283.2 461.4,322.2 479.4,322.2 479.4,283.2 461.4,283.2"/>
  <polygon class="pl" points="483.8,266.5 483.8,307.1 501.8,307.1 501.8,266.5 483.8,266.5"/>
  <polygon class="pl" points="506.2,251.9 506.2,293.6 524.2,293.6 524.2,251.9 506.2,251.9"/>
  <polygon class="pl" points="528.6,226.0 528.6,269.9 546.6,269.9 546.6,226.0 528.6,226.0"/>
  <polygon class="pl" points="551.0,228.3 551.0,272.9 569.0,272.9 569.0,228.3 551.0,228.3"/>
  <polygon class="pl" points="573.4,224.1 573.4,268.4 591.4,268.4 591.4,224.1 573.4,224.1"/>
  <polygon class="pl" points="595.8,222.5 595.8,268.3 613.8,268.3 613.8,222.5 595.8,222.5"/>
  <polygon class="pl" points="618.2,201.0 618.2,248.9 636.2,248.9 636.2,201.0 618.2,201.0"/>
  <polygon class="pl" points="640.6,186.7 640.6,237.9 658.6,237.9 658.6,186.7 640.6,186.7"/>
  <polygon class="pl" points="663.0,193.9 663.0,244.0 681.0,244.0 681.0,193.9 663.0,193.9"/>
  <polygon class="pl" points="685.4,179.8 685.4,231.4 703.4,231.4 703.4,179.8 685.4,179.8"/>
  <polygon class="pl" points="707.8,169.8 707.8,215.9 725.8,215.9 725.8,169.8 707.8,169.8"/>
  <polygon class="pl" points="730.2,153.4 730.2,202.3 748.2,202.3 748.2,153.4 730.2,153.4"/>
  <polygon class="pl" points="752.6,133.6 752.6,183.3 770.6,183.3 770.6,133.6 752.6,133.6"/>
  <polygon class="pl" points="775.0,135.5 775.0,188.5 793.0,188.5 793.0,135.5 775.0,135.5"/>
  <polygon class="pl" points="797.4,146.5 797.4,202.1 815.4,202.1 815.4,146.5 797.4,146.5"/>
  <polygon class="pl" points="819.8,138.1 819.8,194.1 837.8,194.1 837.8,138.1 819.8,138.1"/>
  <polygon class="pl" points="842.2,106.5 842.2,162.8 860.2,162.8 860.2,106.5 842.2,106.5"/>
  <polygon class="pl" points="864.6,118.5 864.6,173.3 882.6,173.3 882.6,118.5 864.6,118.5"/>
  <polygon class="pl" points="887.0,124.7 887.0,173.7 905.0,173.7 905.0,124.7 887.0,124.7"/>
</g>
<g stroke="#000" stroke-width="0.90" fill="#FF7F61"  clip-path="url(#axis_clip)">
  <polygon class="pl" points="147.8,393.3 147.8,511.0 165.8,511.0 165.8,393.3 147.8,393.3"/>
  <polygon class="pl" points="170.2,388.3 170.2,511.0 188.2,511.0 188.2,388.3 170.2,388.3"/>
  <polygon class="pl" points="192.6,383.6 192.6,511.0 210.6,511.0 210.6,383.6 192.6,383.6"/>
  <polygon class="pl" points="215.0,378.3 215.0,511.0 233.0,511.0 233.0,378.3 215.0,378.3"/>
  <polygon class="pl" points="237.4,381.1 237.4,511.0 255.4,511.0 255.4,381.1 237.4,381.1"/>
  <polygon class="pl" points="259.8,370.3 259.8,511.0 277.8,511.0 277.8,370.3 259.8,370.3"/>
  <polygon class="pl" points="282.2,356.3 282.2,511.0 300.2,511.0 300.2,356.3 282.2,356.3"/>
  <polygon class="pl" points="304.6,346.9 304.6,511.0 322.6,511.0 322.6,346.9 304.6,346.9"/>
  <polygon class="pl" points="327.0,346.8 327.0,511.0 345.0,511.0 345.0,346.8 327.0,346.8"/>
  <polygon class="pl" points="349.4,350.1 349.4,511.0 367.4,511.0 367.4,350.1 349.4,350.1"/>
  <polygon class="pl" points="371.8,333.6 371.8,511.0 389.8,511.0 389.8,333.6 371.8,333.6"/>
  <polygon class="pl" points="394.2,345.8 394.2,511.0 412.2,511.0 412.2,345.8 394.2,345.8"/>
  <polygon class="pl" points="416.6,340.1 416.6,511.0 434.6,511.0 434.6,340.1 416.6,340.1"/>
  <polygon class="pl" points="439.0,328.3 439.0,511.0 457.0,511.0 457.0,328.3 439.0,328.3"/>
  <polygon class="pl" points="461.4,322.2 461.4,511.0 479.4,511.0 479.4,322.2 461.4,322.2"/>
  <polygon class="pl" points="483.8,307.1 483.8,511.0 501.8,511.0 501.8,307.1 483.8,307.1"/>
  <polygon class="pl" points="506.2,293.6 506.2,511.0 524.2,511.0 524.2,293.6 506.2,293.6"/>
  <polygon class="pl" points="528.6,269.9 528.6,511.0 546.6,511.0 546.6,269.9 528.6,269.9"/>
  <polygon class="pl" points="551.0,272.9 551.0,511.0 569.0,511.0 569.0,272.9 551.0,272.9"/>
  <polygon class="pl" points="573.4,268.4 573.4,511.0 591.4,511.0 591.4,268.4 573.4,268.4"/>
  <polygon class="pl" points="595.8,268.3 595.8,511.0 613.8,511.0 613.8,268.3 595.8,268.3"/>
  <polygon class="pl" points="618.2,248.9 618.2,511.0 636.2,511.0 636.2,248.9 618.2,248.9"/>
  <polygon class="pl" points="640.6,237.9 640.6,511.0 658.6,511.0 658.6,237.9 640.6,237.9"/>
  <polygon class="pl" points="663.0,244.0 663.0,511.0 681.0,511.0 681.0,244.0 663.0,244.0"/>
  <polygon class="pl" points="685.4,231.4 685.4,511.0 703.4,511.0 703.4,231.4 685.4,231.4"/>
  <polygon class="pl" points="707.8,215.9 707.8,511.0 725.8,511.0 725.8,215.9 707.8,215.9"/>
  <polygon class="pl" points="730.2,202.3 730.2,511.0 748.2,511.0 748.2,202.3 730.2,202.3"/>
  <polygon class="pl" points="752.6,183.3 752.6,511.0 770.6,511.0 770.6,183.3 752.6,183.3"/>
  <polygon class="pl" points="775.0,188.5 775.0,511.0 793.0,511.0 793.0,188.5 775.0,188.5"/>
  <polygon class="pl" points="797.4,202.1 797.4,511.0 815.4,511.0 815.4,202.1 797.4,202.1"/>
  <polygon class="pl" points="819.8,194.1 819.8,511.0 837.8,511.0 837.8,194.1 819.8,194.1"/>
  <polygon class="pl" points="842.2,162.8 842.2,511.0 860.2,511.0 860.2,162.8 842.2,162.8"/>
  <polygon class="pl" points="864.6,173.3 864.6,511.0 882.6,511.0 882.6,173.3 864.6,173.3"/>
  <polygon class="pl" points="887.0,173.7 887.0,511.0 905.0,511.0 905.0,173.7 887.0,173.7"/>
</g>
<g stroke="#000" stroke-width="0.90" fill="#7FBF7F"  clip-path="url(#axis_clip)">
  <polygon class="pl" points="147.8,561.6 147.8,511.0 165.8,511.0 165.8,561.6 147.8,561.6"/>
  <polygon class="pl" points="170.2,562.4 170.2,511.0 188.2,511.0 188.2,562.4 170.2,562.4"/>
  <polygon class="pl" points="192.6,562.4 192.6,511.0 210.6,511.0 210.6,562.4 192.6,562.4"/>
  <polygon class="pl" points="215.0,561.8 215.0,511.0 233.0,511.0 233.0,561.8 215.0,561.8"/>
  <polygon class="pl" points="237.4,562.8 237.4,511.0 255.4,511.0 255.4,562.8 237.4,562.8"/>
  <polygon class="pl" points="259.8,562.8 259.8,511.0 277.8,511.0 277.8,562.8 259.8,562.8"/>
  <polygon class="pl" points="282.2,562.3 282.2,511.0 300.2,511.0 300.2,562.3 282.2,562.3"/>
  <polygon class="pl" points="304.6,564.7 304.6,511.0 322.6,511.0 322.6,564.7 304.6,564.7"/>
  <polygon class="pl" points="327.0,564.8 327.0,511.0 345.0,511.0 345.0,564.8 327.0,564.8"/>
  <polygon class="pl" points="349.4,565.3 349.4,511.0 367.4,511.0 367.4,565.3 349.4,565.3"/>
  <polygon class="pl" points="371.8,562.9 371.8,511.0 389.8,511.0 389.8,562.9 371.8,562.9"/>
  <polygon class="pl" points="394.2,564.9 394.2,511.0 412.2,511.0 412.2,564.9 394.2,564.9"/>
  <polygon class="pl" points="416.6,563.8 416.6,511.0 434.6,511.0 434.6,563.8 416.6,563.8"/>
  <polygon class="pl" points="439.0,565.3 439.0,511.0 457.0,511.0 457.0,565.3 439.0,565.3"/>
  <polygon class="pl" points="461.4,564.3 461.4,511.0 479.4,511.0 479.4,564.3 461.4,564.3"/>
  <polygon class="pl" points="483.8,566.0 483.8,511.0 501.8,511.0 501.8,566.0 483.8,566.0"/>
  <polygon class="pl" points="506.2,565.5 506.2,511.0 524.2,511.0 524.2,565.5 506.2,565.5"/>
  <polygon class="pl" points="528.6,565.8 528.6,511.0 546.6,511.0 546.6,565.8 528.6,565.8"/>
  <polygon class="pl" points="551.0,562.7 551.0,511.0 569.0,511.0 569.0,562.7 551.0,562.7"/>
  <polygon class="pl" points="573.4,565.0 573.4,511.0 591.4,511.0 591.4,565.0 573.4,565.0"/>
  <polygon class="pl" points="595.8,565.9 595.8,511.0 613.8,511.0 613.8,565.9 595.8,565.9"/>
  <polygon class="pl" points="618.2,568.6 618.2,511.0 636.2,511.0 636.2,568.6 618.2,568.6"/>
  <polygon class="pl" points="640.6,567.0 640.6,511.0 658.6,511.0 658.6,567.0 640.6,567.0"/>
  <polygon class="pl" points="663.0,569.3 663.0,511.0 681.0,511.0 681.0,569.3 663.0,569.3"/>
  <polygon class="pl" points="685.4,569.6 685.4,511.0 703.4,511.0 703.4,569.6 685.4,569.6"/>
  <polygon class="pl" points="707.8,566.6 707.8,511.0 725.8,511.0 725.8,566.6 707.8,566.6"/>
  <polygon class="pl" points="730.2,567.2 730.2,511.0 748.2,511.0 748.2,567.2 730.2,567.2"/>
  <polygon class="pl" points="752.6,569.0 752.6,511.0 770.6,511.0 770.6,569.0 752.6,569.0"/>
  <polygon class="pl" points="775.0,564.7 775.0,511.0 793.0,511.0 793.0,564.7 775.0,564.7"/>
  <polygon class="pl" points="797.4,560.1 797.4,511.0 815.4,511.0 815.4,560.1 797.4,560.1"/>
  <polygon class="pl" points="819.8,555.0 819.8,511.0 837.8,511.0 837.8,555.0 819.8,555.0"/>
  <polygon class="pl" points="842.2,547.6 842.2,511.0 860.2,511.0 860.2,547.6 842.2,547.6"/>
  <polygon class="pl" points="864.6,553.9 864.6,511.0 882.6,511.0 882.6,553.9 864.6,553.9"/>
  <polygon class="pl" points="887.0,563.7 887.0,511.0 905.0,511.0 905.0,563.7 887.0,563.7"/>
</g>
<polyline class="pl" points="156.8,387.6 179.2,382.6 201.6,377.8 224.0,371.6 246.4,377.5 268.8,367.0 291.2,351.7 313.6,345.8 336.0,344.9 358.4,347.3 380.8,329.1 403.2,345.4 425.6,340.6 448.0,327.1 470.4,318.7 492.8,302.9 515.2,286.7 537.6,261.2 560.0,261.2 582.4,258.5 604.8,256.4 627.2,236.6 649.6,219.4 672.0,227.6 694.4,213.3 716.8,200.0 739.2,182.7 761.6,163.8 784.0,161.5 806.4,166.4 828.8,149.8 851.2,110.5 873.6,127.3 896.0,143.1" stroke="#000" stroke-width="5.40" stroke-opacity="1.00" fill="none" clip-path="url(#axis_clip)"/>
<g class="pl" fill="#FFF" stroke="#000" stroke-width="0.900">
  <circle cx="179.2" cy="382.6" r="2.2" />
  <circle cx="201.6" cy="377.8" r="2.2" />
  <circle cx="224.0" cy="371.6" r="2.2" />
  <circle cx="246.4" cy="377.5" r="2.2" />
  <circle cx="268.8" cy="367.0" r="2.2" />
  <circle cx="291.2" cy="351.7" r="2.2" />
  <circle cx="313.6" cy="345.8" r="2.2" />
  <circle cx="336.0" cy="344.9" r="2.2" />
  <circle cx="358.4" cy="347.3" r="2.2" />
  <circle cx="403.2" cy="345.4" r="2.2" />
  <circle cx="425.6" cy="340.6" r="2.2" />
  <circle cx="448.0" cy="327.1" r="2.2" />
  <circle cx="470.4" cy="318.7" r="2.2" />
  <circle cx="492.8" cy="302.9" r="2.2" />
  <circle cx="515.2" cy="286.7" r="2.2" />
  <circle cx="537.6" cy="261.2" r="2.2" />
  <circle cx="560.0" cy="261.2" r="2.2" />
  <circle cx="582.4" cy="258.5" r="2.2" />
  <circle cx="627.2" cy="236.6" r="2.2" />
  <circle cx="649.6" cy="219.4" r="2.2" />
  <circle cx="672.0" cy="227.6" r="2.2" />
  <circle cx="694.4" cy="213.3" r="2.2" />
  <circle cx="716.8" cy="200.0" r="2.2" />
  <circle cx="739.2" cy="182.7" r="2.2" />
  <circle cx="761.6" cy="163.8" r="2.2" />
  <circle cx="784.0" cy="161.5" r="2.2" />
  <circle cx="806.4" cy="166.4" r="2.2" />
  <circle cx="851.2" cy="110.5" r="2.2" />
  <circle cx="873.6" cy="127.3" r="2.2" />
  <circle cx="896.0" cy="143.1" r="2.2" />
</g>
<g class="pl" fill="#FFF" stroke="#000" stroke-width="0.900">
  <circle cx="156.8" cy="387.6" r="5.4" />
  <circle cx="380.8" cy="329.1" r="5.4" />
  <circle cx="604.8" cy="256.4" r="5.4" />
  <circle cx="828.8" cy="149.8" r="5.4" />
</g>
<text transform="translate(145.6,47.2)" dy="0.0" font-size="27.00" fill="#808080" stroke="none">Annual Greenhouse Gas Emissions: Turkey</text>
<text transform="translate(130.0,81.7)" dy="8.1" font-size="27.00" fill="#808080" stroke="none" text-anchor="end">CO<tspan dy="0.2em"><tspan style="font-size:70%">2</tspan></tspan><tspan dy="-0.2em">e</tspan></text>
<text transform="translate(945.6,136.7)" dy="7.6" font-size="25.20" fill="#000" stroke="none">+198.1% since 1990</text>
<text transform="translate(945.6,342.3)" dy="7.6" font-size="25.20" fill="#FF7F61" stroke="none">Fossil CO<tspan dy="0.2em"><tspan style="font-size:70%">2</tspan></tspan><tspan dy="-0.2em"></tspan></text>
<text transform="translate(945.6,161.2)" dy="7.6" font-size="25.20" fill="#4A89E8" stroke="none">CH<tspan dy="0.2em"><tspan style="font-size:70%">4</tspan></tspan><tspan dy="-0.2em"></tspan></text>
<text transform="translate(945.6,112.2)" dy="7.6" font-size="25.20" fill="#845F48" stroke="none">N<tspan dy="0.2em"><tspan style="font-size:70%">2</tspan></tspan><tspan dy="-0.2em">O</tspan></text>
<text transform="translate(945.6,87.7)" dy="7.6" font-size="25.20" fill="#DBA746" stroke="none">F-gas</text>
<text transform="translate(945.6,537.4)" dy="7.6" font-size="25.20" fill="#7FBF7F" stroke="none">LULUCF</text>
<polyline class="pl" points="910.8,143.1 912.4,143.1 913.8,143.1 915.2,143.0 916.4,142.8 917.6,142.6 918.8,142.4 919.8,142.2 920.8,141.9 921.7,141.7 922.7,141.4 923.5,141.1 924.4,140.8 925.2,140.4 926.0,140.1 926.8,139.8 927.6,139.4 928.4,139.1 929.3,138.8 930.1,138.5 931.1,138.2 932.0,137.9 933.0,137.7 934.0,137.4 935.2,137.2 936.4,137.1 937.6,136.9 939.0,136.8 940.4,136.7 942.0,136.7" stroke="#000" stroke-width="0.90" stroke-opacity="1.00" fill="none" />
<polyline class="pl" points="910.8,149.2 912.4,149.2 913.8,149.4 915.2,149.6 916.4,149.8 917.6,150.2 918.8,150.5 919.8,151.0 920.8,151.4 921.7,152.0 922.7,152.5 923.5,153.1 924.4,153.7 925.2,154.3 926.0,154.9 926.8,155.5 927.6,156.1 928.4,156.7 929.3,157.3 930.1,157.9 931.1,158.5 932.0,159.0 933.0,159.5 934.0,159.9 935.2,160.3 936.4,160.6 937.6,160.9 939.0,161.1 940.4,161.2 942.0,161.2" stroke="#4A89E8" stroke-width="0.90" stroke-opacity="1.00" fill="none" />
<polyline class="pl" points="910.8,111.3 912.4,111.3 913.8,111.4 915.2,111.4 916.4,111.4 917.6,111.4 918.8,111.4 919.8,111.5 920.8,111.5 921.7,111.5 922.7,111.6 923.5,111.6 924.4,111.7 925.2,111.7 926.0,111.8 926.8,111.8 927.6,111.8 928.4,111.9 929.3,111.9 930.1,112.0 931.1,112.0 932.0,112.1 933.0,112.1 934.0,112.1 935.2,112.2 936.4,112.2 937.6,112.2 939.0,112.2 940.4,112.2 942.0,112.2" stroke="#845F48" stroke-width="0.90" stroke-opacity="1.00" fill="none" />
<polyline class="pl" points="910.8,94.2 912.4,94.2 913.8,94.1 915.2,94.0 916.4,93.8 917.6,93.7 918.8,93.5 919.8,93.2 920.8,93.0 921.7,92.7 922.7,92.4 923.5,92.1 924.4,91.8 925.2,91.5 926.0,91.1 926.8,90.8 927.6,90.5 928.4,90.1 929.3,89.8 930.1,89.5 931.1,89.2 932.0,88.9 933.0,88.7 934.0,88.4 935.2,88.2 936.4,88.1 937.6,87.9 939.0,87.8 940.4,87.7 942.0,87.7" stroke="#DBA746" stroke-width="0.90" stroke-opacity="1.00" fill="none" />
<text transform="translate(160.0,666.1)" font-size="19.80" font-family="Helvetica" fill="#BFBFBF" stroke="none" xml:space="preserve">CICERO   &#9679;   Data: UNFCCC (2025)</text>
<g>
  <rect x="123.0" y="651.4" width="34" height="17" fill="#FFF" stroke="none" opacity="0.01"/>
  <g transform="translate(124.0,652.4) scale(0.24)">
  <g><circle fill="#FFF" cx="37.79" cy="28.5" r="28.84"/>
     <circle fill="none" cx="37.79" cy="28.5" r="28.84" stroke="#BFBFBF" stroke-width="5.5"/>
     <path fill="#BFBFBF" d="M37.16,23.19 l-4.29,2.23c-0.458-0.951-1.02-1.62-1.69-2c-0.667-0.38-1.29-0.571-1.86-0.571c-2.86,0-4.29,1.89-4.29,5.66 c0,1.71,0.36,3.08,1.09,4.11c0.724,1.03,1.79,1.54,3.2,1.54c1.87,0,3.18-0.915,3.94-2.74l3.94,2 c-0.838,1.56-2,2.79-3.49,3.69c-1.48,0.896-3.12,1.34-4.91,1.34c-2.86,0-5.16-0.875-6.92-2.63 c-1.75-1.75-2.63-4.19-2.63-7.31c0-3.05,0.886-5.47,2.66-7.26c1.77-1.79,4.01-2.69,6.72-2.69 C32.6,18.56,35.44,20.1,37.16,23.19z
              M55.61,23.19l-4.23,2.23c-0.457-0.951-1.02-1.62-1.69-2 c-0.668-0.38-1.31-0.571-1.91-0.571c-2.86,0-4.29,1.89-4.29,5.66c0,1.71,0.363,3.08,1.09,4.11 c0.723,1.03,1.79,1.54,3.2,1.54c1.87,0,3.18-0.915,3.94-2.74l4,2c-0.875,1.56-2.06,2.79-3.54,3.69 c-1.49,0.9-3.11,1.34-4.86,1.34c-2.9,0-5.21-0.875-6.94-2.63c-1.74-1.75-2.6-4.19-2.6-7.31 c0-3.05,0.885-5.47,2.66-7.26c1.77-1.79,4.01-2.69,6.71-2.69C51.12,18.56,53.944,20.1,55.61,23.19z"/>
  </g></g>
  <g transform="translate(140.2,652.4) scale(0.24)">
  <g><circle fill="#FFF" cx="37.79" cy="28.5" r="28.84"/>
     <circle fill="none" cx="37.79" cy="28.5" r="28.84" stroke="#BFBFBF" stroke-width="5.5"/>
     <path fill="#BFBFBF" d="M46.129,20.557v13.085h-3.656v15.542h-9.944V33.643h-3.656V20.557 c0-0.572,0.2-1.057,0.599-1.457c0.401-0.399,0.887-0.6,1.457-0.6h13.144c0.533,0,1.01,0.2,1.428,0.6 C45.918,19.5,46.129,19.986,46.129,20.557z
              M33.042,12.329c0-3.008,1.485-4.514,4.458-4.514s4.457,1.504,4.457,4.514 c0,2.971-1.486,4.457-4.457,4.457S33.042,15.3,33.042,12.329z"/>
  </g></g>
</g>
</g>
</svg>
