<svg version="1.1" xmlns="http://www.w3.org/2000/svg" xmlns:xlink="http://www.w3.org/1999/xlink" width="100%" height="100%" viewBox="0 0 1200.000 674.916">
<title>Emissions and removals on forest land: Czechia</title>
<style type="text/css">
  #main {font-family:Helvetica,Arial,sans-serif; font-size:27.00px;
         fill-opacity:1; fill:#000000; stroke:none; stroke-linejoin:round; stroke-linecap:round; stroke-width:1.00;}
  .marker {stroke-opacity:0;fill-opacity:0;}
  .marker:hover {stroke-opacity:0.5; fill-opacity:1;}
  .ticklabel {font-size:27.00px;fill:#808080;stroke:none;font-family:Helvetica}
  .ytl {text-anchor:end;}
  .dp1 {pointer-events:none;font-size:70%;text-anchor:middle;fill:#000000;}
  .dp2 {pointer-events:none;font-size:70%;text-anchor:middle;fill:#FFFFFF;}
  .numtip {pointer-events:none;}
  .cc {opacity:0.25;}
.dl_fe {background-color:#FDFFDF;display:flex;margin:auto;align-items:center}
.dl_fe_p {font-size:20px;text-align:center;margin:3px}
.dl_el {display:none;pointer-events:none;}
.cc:hover + .dl_el {display:block;}
text:hover + .dl_el {display:block;}
</style>
<defs>
  <clipPath id="axis_clip"><rect x="145.8" y="54.2" width="761.2" height="532.8" /></clipPath>
  <path id="line_x" d="M 145.600,0 h 761.600" stroke="#262626" stroke-opacity="0.15" stroke-width="1.00"/>
  <path id="tick_y" d="M 145.600,0 h -6.000" stroke="#808080" stroke-width="0.90"/>
  <path id="tick_x" d="M 0,587.177 v 6.000" stroke="#808080" stroke-width="0.90"/>
</defs>
<g id="main">
<use xlink:href="#line_x" transform="translate(0,587.2)"/>
<use xlink:href="#line_x" transform="translate(0,468.7)"/>
<use xlink:href="#line_x" transform="translate(0,350.2)"/>
<use xlink:href="#line_x" transform="translate(0,231.7)"/>
<use xlink:href="#line_x" transform="translate(0,113.2)"/>
<use xlink:href="#tick_y" transform="translate(0,587.2)"/>
<use xlink:href="#tick_y" transform="translate(0,468.7)"/>
<use xlink:href="#tick_y" transform="translate(0,350.2)"/>
<use xlink:href="#tick_y" transform="translate(0,231.7)"/>
<use xlink:href="#tick_y" transform="translate(0,113.2)"/>
<use xlink:href="#tick_x" transform="translate(156.8,0)"/>
<use xlink:href="#tick_x" transform="translate(268.8,0)"/>
<use xlink:href="#tick_x" transform="translate(380.8,0)"/>
<use xlink:href="#tick_x" transform="translate(492.8,0)"/>
<use xlink:href="#tick_x" transform="translate(604.8,0)"/>
<use xlink:href="#tick_x" transform="translate(716.8,0)"/>
<use xlink:href="#tick_x" transform="translate(828.8,0)"/>
<polyline points="145.6,53.993 145.6,587.177 907.2,587.177" stroke="#808080" stroke-width="0.90" fill="none"/>
<text class="ticklabel xtl" transform="translate(156.8,629.0)" text-anchor="middle">1990</text>
<text class="ticklabel xtl" transform="translate(268.8,629.0)" text-anchor="middle">1995</text>
<text class="ticklabel xtl" transform="translate(380.8,629.0)" text-anchor="middle">2000</text>
<text class="ticklabel xtl" transform="translate(492.8,629.0)" text-anchor="middle">2005</text>
<text class="ticklabel xtl" transform="translate(604.8,629.0)" text-anchor="middle">2010</text>
<text class="ticklabel xtl" transform="translate(716.8,629.0)" text-anchor="middle">2015</text>
<text class="ticklabel xtl" transform="translate(828.8,629.0)" text-anchor="middle">2020</text>
<text class="ticklabel ytl" transform="translate(128.8,595.3)">-40</text>
<text class="ticklabel ytl" transform="translate(128.8,476.8)">-20</text>
<text class="ticklabel ytl" transform="translate(128.8,358.3)">0</text>
<text class="ticklabel ytl" transform="translate(128.8,239.8)">20</text>
<text class="ticklabel ytl" transform="translate(128.8,121.3)">40 Mt</text>
<g stroke="#000" stroke-width="0.90" fill="#FFD92F"  clip-path="url(#axis_clip)">
</g>
<g stroke="#000" stroke-width="0.90" fill="#A6D854"  clip-path="url(#axis_clip)">
  <polygon points="147.8,240.4 147.8,240.6 165.8,240.6 165.8,240.4 147.8,240.4"/>
  <polygon points="170.2,260.5 170.2,261.1 188.2,261.1 188.2,260.5 170.2,260.5"/>
  <polygon points="215.0,270.2 215.0,270.4 233.0,270.4 233.0,270.2 215.0,270.2"/>
  <polygon points="327.0,243.4 327.0,243.4 345.0,243.4 345.0,243.4 327.0,243.4"/>
</g>
<g stroke="#000" stroke-width="0.90" fill="#E78AC3"  clip-path="url(#axis_clip)">
  <polygon points="147.8,240.6 147.8,247.7 165.8,247.7 165.8,240.6 147.8,240.6"/>
  <polygon points="170.2,261.1 170.2,266.7 188.2,266.7 188.2,261.1 170.2,261.1"/>
  <polygon points="192.6,268.8 192.6,272.5 210.6,272.5 210.6,268.8 192.6,268.8"/>
  <polygon points="215.0,270.4 215.0,272.4 233.0,272.4 233.0,270.4 215.0,270.4"/>
  <polygon points="887.0,206.0 887.0,207.5 905.0,207.5 905.0,206.0 887.0,206.0"/>
</g>
<g stroke="#000" stroke-width="0.90" fill="#8DA0CB"  clip-path="url(#axis_clip)">
  <polygon points="887.0,207.5 887.0,214.4 905.0,214.4 905.0,207.5 887.0,207.5"/>
</g>
<g stroke="#000" stroke-width="0.90" fill="#FC8D62"  clip-path="url(#axis_clip)">
  <polygon points="147.8,247.7 147.8,350.2 165.8,350.2 165.8,247.7 147.8,247.7"/>
  <polygon points="170.2,266.7 170.2,350.2 188.2,350.2 188.2,266.7 170.2,266.7"/>
  <polygon points="192.6,272.5 192.6,350.2 210.6,350.2 210.6,272.5 192.6,272.5"/>
  <polygon points="215.0,272.4 215.0,350.2 233.0,350.2 233.0,272.4 215.0,272.4"/>
  <polygon points="237.4,259.7 237.4,350.2 255.4,350.2 255.4,259.7 237.4,259.7"/>
  <polygon points="259.8,254.9 259.8,350.2 277.8,350.2 277.8,254.9 259.8,254.9"/>
  <polygon points="282.2,253.5 282.2,350.2 300.2,350.2 300.2,253.5 282.2,253.5"/>
  <polygon points="304.6,244.9 304.6,350.2 322.6,350.2 322.6,244.9 304.6,244.9"/>
  <polygon points="327.0,243.4 327.0,350.2 345.0,350.2 345.0,243.4 327.0,243.4"/>
  <polygon points="349.4,241.4 349.4,350.2 367.4,350.2 367.4,241.4 349.4,241.4"/>
  <polygon points="371.8,239.3 371.8,350.2 389.8,350.2 389.8,239.3 371.8,239.3"/>
  <polygon points="394.2,240.2 394.2,350.2 412.2,350.2 412.2,240.2 394.2,240.2"/>
  <polygon points="416.6,239.8 416.6,350.2 434.6,350.2 434.6,239.8 416.6,239.8"/>
  <polygon points="439.0,236.2 439.0,350.2 457.0,350.2 457.0,236.2 439.0,236.2"/>
  <polygon points="461.4,232.8 461.4,350.2 479.4,350.2 479.4,232.8 461.4,232.8"/>
  <polygon points="483.8,233.8 483.8,350.2 501.8,350.2 501.8,233.8 483.8,233.8"/>
  <polygon points="506.2,217.7 506.2,350.2 524.2,350.2 524.2,217.7 506.2,217.7"/>
  <polygon points="528.6,212.5 528.6,350.2 546.6,350.2 546.6,212.5 528.6,212.5"/>
  <polygon points="551.0,229.4 551.0,350.2 569.0,350.2 569.0,229.4 551.0,229.4"/>
  <polygon points="573.4,234.5 573.4,350.2 591.4,350.2 591.4,234.5 573.4,234.5"/>
  <polygon points="595.8,225.3 595.8,350.2 613.8,350.2 613.8,225.3 595.8,225.3"/>
  <polygon points="618.2,237.0 618.2,350.2 636.2,350.2 636.2,237.0 618.2,237.0"/>
  <polygon points="640.6,238.1 640.6,350.2 658.6,350.2 658.6,238.1 640.6,238.1"/>
  <polygon points="663.0,236.4 663.0,350.2 681.0,350.2 681.0,236.4 663.0,236.4"/>
  <polygon points="685.4,235.7 685.4,350.2 703.4,350.2 703.4,235.7 685.4,235.7"/>
  <polygon points="707.8,231.1 707.8,350.2 725.8,350.2 725.8,231.1 707.8,231.1"/>
  <polygon points="730.2,221.5 730.2,350.2 748.2,350.2 748.2,221.5 730.2,221.5"/>
  <polygon points="752.6,209.3 752.6,350.2 770.6,350.2 770.6,209.3 752.6,209.3"/>
  <polygon points="775.0,164.6 775.0,350.2 793.0,350.2 793.0,164.6 775.0,164.6"/>
  <polygon points="797.4,117.0 797.4,350.2 815.4,350.2 815.4,117.0 797.4,117.0"/>
  <polygon points="819.8,96.6 819.8,350.2 837.8,350.2 837.8,96.6 819.8,96.6"/>
  <polygon points="842.2,134.6 842.2,350.2 860.2,350.2 860.2,134.6 842.2,134.6"/>
  <polygon points="864.6,168.5 864.6,350.2 882.6,350.2 882.6,168.5 864.6,168.5"/>
  <polygon points="887.0,214.4 887.0,350.2 905.0,350.2 905.0,214.4 887.0,214.4"/>
</g>
<g stroke="#000" stroke-width="0.90" fill="#FFD92F"  clip-path="url(#axis_clip)">
</g>
<g stroke="#000" stroke-width="0.90" fill="#A6D854"  clip-path="url(#axis_clip)">
  <polygon points="192.6,504.0 192.6,503.9 210.6,503.9 210.6,504.0 192.6,504.0"/>
  <polygon points="237.4,503.7 237.4,503.3 255.4,503.3 255.4,503.7 237.4,503.7"/>
  <polygon points="259.8,506.8 259.8,506.1 277.8,506.1 277.8,506.8 259.8,506.8"/>
  <polygon points="282.2,507.4 282.2,507.1 300.2,507.1 300.2,507.4 282.2,507.4"/>
  <polygon points="304.6,511.4 304.6,510.7 322.6,510.7 322.6,511.4 304.6,511.4"/>
  <polygon points="349.4,513.5 349.4,512.9 367.4,512.9 367.4,513.5 349.4,513.5"/>
  <polygon points="371.8,515.7 371.8,514.7 389.8,514.7 389.8,515.7 371.8,515.7"/>
  <polygon points="394.2,514.6 394.2,513.2 412.2,513.2 412.2,514.6 394.2,514.6"/>
  <polygon points="416.6,514.8 416.6,513.3 434.6,513.3 434.6,514.8 416.6,514.8"/>
  <polygon points="439.0,515.0 439.0,513.8 457.0,513.8 457.0,515.0 439.0,515.0"/>
  <polygon points="461.4,515.8 461.4,514.5 479.4,514.5 479.4,515.8 461.4,515.8"/>
  <polygon points="483.8,515.5 483.8,514.1 501.8,514.1 501.8,515.5 483.8,515.5"/>
  <polygon points="506.2,520.1 506.2,518.2 524.2,518.2 524.2,520.1 506.2,520.1"/>
  <polygon points="528.6,520.9 528.6,518.9 546.6,518.9 546.6,520.9 528.6,520.9"/>
  <polygon points="551.0,515.2 551.0,513.4 569.0,513.4 569.0,515.2 551.0,515.2"/>
  <polygon points="573.4,514.1 573.4,512.2 591.4,512.2 591.4,514.1 573.4,514.1"/>
  <polygon points="595.8,516.5 595.8,514.6 613.8,514.6 613.8,516.5 595.8,516.5"/>
  <polygon points="618.2,513.3 618.2,511.7 636.2,511.7 636.2,513.3 618.2,513.3"/>
  <polygon points="640.6,514.3 640.6,512.1 658.6,512.1 658.6,514.3 640.6,514.3"/>
  <polygon points="663.0,515.2 663.0,513.0 681.0,513.0 681.0,515.2 663.0,515.2"/>
  <polygon points="685.4,515.4 685.4,513.2 703.4,513.2 703.4,515.4 685.4,515.4"/>
  <polygon points="707.8,517.1 707.8,514.7 725.8,514.7 725.8,517.1 707.8,517.1"/>
  <polygon points="730.2,519.7 730.2,517.3 748.2,517.3 748.2,519.7 730.2,519.7"/>
  <polygon points="752.6,522.3 752.6,519.8 770.6,519.8 770.6,522.3 752.6,522.3"/>
  <polygon points="775.0,534.1 775.0,531.1 793.0,531.1 793.0,534.1 775.0,534.1"/>
  <polygon points="797.4,543.8 797.4,540.5 815.4,540.5 815.4,543.8 797.4,543.8"/>
  <polygon points="819.8,542.7 819.8,539.4 837.8,539.4 837.8,542.7 819.8,542.7"/>
  <polygon points="842.2,524.8 842.2,521.8 860.2,521.8 860.2,524.8 842.2,524.8"/>
  <polygon points="864.6,511.7 864.6,509.1 882.6,509.1 882.6,511.7 864.6,511.7"/>
  <polygon points="887.0,506.5 887.0,504.0 905.0,504.0 905.0,506.5 887.0,506.5"/>
</g>
<g stroke="#000" stroke-width="0.90" fill="#E78AC3"  clip-path="url(#axis_clip)">
  <polygon points="237.4,503.3 237.4,503.3 255.4,503.3 255.4,503.3 237.4,503.3"/>
  <polygon points="259.8,506.1 259.8,505.1 277.8,505.1 277.8,506.1 259.8,506.1"/>
  <polygon points="282.2,507.1 282.2,505.5 300.2,505.5 300.2,507.1 282.2,507.1"/>
  <polygon points="304.6,510.7 304.6,508.2 322.6,508.2 322.6,510.7 304.6,510.7"/>
  <polygon points="327.0,513.1 327.0,510.5 345.0,510.5 345.0,513.1 327.0,513.1"/>
  <polygon points="349.4,512.9 349.4,510.2 367.4,510.2 367.4,512.9 349.4,512.9"/>
  <polygon points="371.8,514.7 371.8,511.6 389.8,511.6 389.8,514.7 371.8,514.7"/>
  <polygon points="394.2,513.2 394.2,510.4 412.2,510.4 412.2,513.2 394.2,513.2"/>
  <polygon points="416.6,513.3 416.6,510.5 434.6,510.5 434.6,513.3 416.6,513.3"/>
  <polygon points="439.0,513.8 439.0,510.7 457.0,510.7 457.0,513.8 439.0,513.8"/>
  <polygon points="461.4,514.5 461.4,511.5 479.4,511.5 479.4,514.5 461.4,514.5"/>
  <polygon points="483.8,514.1 483.8,511.3 501.8,511.3 501.8,514.1 483.8,514.1"/>
  <polygon points="506.2,518.2 506.2,514.6 524.2,514.6 524.2,518.2 506.2,518.2"/>
  <polygon points="528.6,518.9 528.6,515.0 546.6,515.0 546.6,518.9 528.6,518.9"/>
  <polygon points="551.0,513.4 551.0,510.9 569.0,510.9 569.0,513.4 551.0,513.4"/>
  <polygon points="573.4,512.2 573.4,510.2 591.4,510.2 591.4,512.2 573.4,512.2"/>
  <polygon points="595.8,514.6 595.8,512.2 613.8,512.2 613.8,514.6 595.8,514.6"/>
  <polygon points="618.2,511.7 618.2,510.3 636.2,510.3 636.2,511.7 618.2,511.7"/>
  <polygon points="640.6,512.1 640.6,510.7 658.6,510.7 658.6,512.1 640.6,512.1"/>
  <polygon points="663.0,513.0 663.0,511.5 681.0,511.5 681.0,513.0 663.0,513.0"/>
  <polygon points="685.4,513.2 685.4,511.6 703.4,511.6 703.4,513.2 685.4,513.2"/>
  <polygon points="707.8,514.7 707.8,512.7 725.8,512.7 725.8,514.7 707.8,514.7"/>
  <polygon points="730.2,517.3 730.2,514.7 748.2,514.7 748.2,517.3 730.2,517.3"/>
  <polygon points="752.6,519.8 752.6,516.6 770.6,516.6 770.6,519.8 752.6,519.8"/>
  <polygon points="775.0,531.1 775.0,525.3 793.0,525.3 793.0,531.1 775.0,531.1"/>
  <polygon points="797.4,540.5 797.4,532.5 815.4,532.5 815.4,540.5 797.4,540.5"/>
  <polygon points="819.8,539.4 819.8,531.4 837.8,531.4 837.8,539.4 819.8,539.4"/>
  <polygon points="842.2,521.8 842.2,517.7 860.2,517.7 860.2,521.8 842.2,521.8"/>
  <polygon points="864.6,509.1 864.6,507.7 882.6,507.7 882.6,509.1 864.6,509.1"/>
</g>
<g stroke="#000" stroke-width="0.90" fill="#8DA0CB"  clip-path="url(#axis_clip)">
  <polygon points="147.8,509.6 147.8,490.8 165.8,490.8 165.8,509.6 147.8,509.6"/>
  <polygon points="170.2,504.9 170.2,492.5 188.2,492.5 188.2,504.9 170.2,504.9"/>
  <polygon points="192.6,503.9 192.6,494.4 210.6,494.4 210.6,503.9 192.6,503.9"/>
  <polygon points="215.0,502.9 215.0,495.2 233.0,495.2 233.0,502.9 215.0,502.9"/>
  <polygon points="237.4,503.3 237.4,493.6 255.4,493.6 255.4,503.3 237.4,503.3"/>
  <polygon points="259.8,505.1 259.8,495.2 277.8,495.2 277.8,505.1 259.8,505.1"/>
  <polygon points="282.2,505.5 282.2,496.6 300.2,496.6 300.2,505.5 282.2,505.5"/>
  <polygon points="304.6,508.2 304.6,498.2 322.6,498.2 322.6,508.2 304.6,508.2"/>
  <polygon points="327.0,510.5 327.0,501.8 345.0,501.8 345.0,510.5 327.0,510.5"/>
  <polygon points="349.4,510.2 349.4,502.2 367.4,502.2 367.4,510.2 349.4,510.2"/>
  <polygon points="371.8,511.6 371.8,504.0 389.8,504.0 389.8,511.6 371.8,511.6"/>
  <polygon points="394.2,510.4 394.2,504.2 412.2,504.2 412.2,510.4 394.2,510.4"/>
  <polygon points="416.6,510.5 416.6,504.9 434.6,504.9 434.6,510.5 416.6,510.5"/>
  <polygon points="439.0,510.7 439.0,504.8 457.0,504.8 457.0,510.7 439.0,510.7"/>
  <polygon points="461.4,511.5 461.4,505.6 479.4,505.6 479.4,511.5 461.4,511.5"/>
  <polygon points="483.8,511.3 483.8,506.3 501.8,506.3 501.8,511.3 483.8,511.3"/>
  <polygon points="506.2,514.6 506.2,506.6 524.2,506.6 524.2,514.6 506.2,514.6"/>
  <polygon points="528.6,515.0 528.6,506.7 546.6,506.7 546.6,515.0 528.6,515.0"/>
  <polygon points="551.0,510.9 551.0,507.3 569.0,507.3 569.0,510.9 551.0,510.9"/>
  <polygon points="573.4,510.2 573.4,508.3 591.4,508.3 591.4,510.2 573.4,510.2"/>
  <polygon points="595.8,512.2 595.8,508.3 613.8,508.3 613.8,512.2 595.8,512.2"/>
  <polygon points="618.2,510.3 618.2,509.3 636.2,509.3 636.2,510.3 618.2,510.3"/>
  <polygon points="640.6,510.7 640.6,509.9 658.6,509.9 658.6,510.7 640.6,510.7"/>
  <polygon points="663.0,511.5 663.0,510.1 681.0,510.1 681.0,511.5 663.0,511.5"/>
  <polygon points="685.4,511.6 685.4,510.1 703.4,510.1 703.4,511.6 685.4,511.6"/>
  <polygon points="707.8,512.7 707.8,509.9 725.8,509.9 725.8,512.7 707.8,512.7"/>
  <polygon points="730.2,514.7 730.2,510.0 748.2,510.0 748.2,514.7 730.2,514.7"/>
  <polygon points="752.6,516.6 752.6,509.7 770.6,509.7 770.6,516.6 752.6,516.6"/>
  <polygon points="775.0,525.3 775.0,509.0 793.0,509.0 793.0,525.3 775.0,525.3"/>
  <polygon points="797.4,532.5 797.4,507.9 815.4,507.9 815.4,532.5 797.4,532.5"/>
  <polygon points="819.8,531.4 819.8,506.5 837.8,506.5 837.8,531.4 819.8,531.4"/>
  <polygon points="842.2,517.7 842.2,505.0 860.2,505.0 860.2,517.7 842.2,517.7"/>
  <polygon points="864.6,507.7 864.6,504.1 882.6,504.1 882.6,507.7 864.6,507.7"/>
</g>
<g stroke="#000" stroke-width="0.90" fill="#66C2A5"  clip-path="url(#axis_clip)">
  <polygon points="147.8,490.8 147.8,350.2 165.8,350.2 165.8,490.8 147.8,490.8"/>
  <polygon points="170.2,492.5 170.2,350.2 188.2,350.2 188.2,492.5 170.2,492.5"/>
  <polygon points="192.6,494.4 192.6,350.2 210.6,350.2 210.6,494.4 192.6,494.4"/>
  <polygon points="215.0,495.2 215.0,350.2 233.0,350.2 233.0,495.2 215.0,495.2"/>
  <polygon points="237.4,493.6 237.4,350.2 255.4,350.2 255.4,493.6 237.4,493.6"/>
  <polygon points="259.8,495.2 259.8,350.2 277.8,350.2 277.8,495.2 259.8,495.2"/>
  <polygon points="282.2,496.6 282.2,350.2 300.2,350.2 300.2,496.6 282.2,496.6"/>
  <polygon points="304.6,498.2 304.6,350.2 322.6,350.2 322.6,498.2 304.6,498.2"/>
  <polygon points="327.0,501.8 327.0,350.2 345.0,350.2 345.0,501.8 327.0,501.8"/>
  <polygon points="349.4,502.2 349.4,350.2 367.4,350.2 367.4,502.2 349.4,502.2"/>
  <polygon points="371.8,504.0 371.8,350.2 389.8,350.2 389.8,504.0 371.8,504.0"/>
  <polygon points="394.2,504.2 394.2,350.2 412.2,350.2 412.2,504.2 394.2,504.2"/>
  <polygon points="416.6,504.9 416.6,350.2 434.6,350.2 434.6,504.9 416.6,504.9"/>
  <polygon points="439.0,504.8 439.0,350.2 457.0,350.2 457.0,504.8 439.0,504.8"/>
  <polygon points="461.4,505.6 461.4,350.2 479.4,350.2 479.4,505.6 461.4,505.6"/>
  <polygon points="483.8,506.3 483.8,350.2 501.8,350.2 501.8,506.3 483.8,506.3"/>
  <polygon points="506.2,506.6 506.2,350.2 524.2,350.2 524.2,506.6 506.2,506.6"/>
  <polygon points="528.6,506.7 528.6,350.2 546.6,350.2 546.6,506.7 528.6,506.7"/>
  <polygon points="551.0,507.3 551.0,350.2 569.0,350.2 569.0,507.3 551.0,507.3"/>
  <polygon points="573.4,508.3 573.4,350.2 591.4,350.2 591.4,508.3 573.4,508.3"/>
  <polygon points="595.8,508.3 595.8,350.2 613.8,350.2 613.8,508.3 595.8,508.3"/>
  <polygon points="618.2,509.3 618.2,350.2 636.2,350.2 636.2,509.3 618.2,509.3"/>
  <polygon points="640.6,509.9 640.6,350.2 658.6,350.2 658.6,509.9 640.6,509.9"/>
  <polygon points="663.0,510.1 663.0,350.2 681.0,350.2 681.0,510.1 663.0,510.1"/>
  <polygon points="685.4,510.1 685.4,350.2 703.4,350.2 703.4,510.1 685.4,510.1"/>
  <polygon points="707.8,509.9 707.8,350.2 725.8,350.2 725.8,509.9 707.8,509.9"/>
  <polygon points="730.2,510.0 730.2,350.2 748.2,350.2 748.2,510.0 730.2,510.0"/>
  <polygon points="752.6,509.7 752.6,350.2 770.6,350.2 770.6,509.7 752.6,509.7"/>
  <polygon points="775.0,509.0 775.0,350.2 793.0,350.2 793.0,509.0 775.0,509.0"/>
  <polygon points="797.4,507.9 797.4,350.2 815.4,350.2 815.4,507.9 797.4,507.9"/>
  <polygon points="819.8,506.5 819.8,350.2 837.8,350.2 837.8,506.5 819.8,506.5"/>
  <polygon points="842.2,505.0 842.2,350.2 860.2,350.2 860.2,505.0 842.2,505.0"/>
  <polygon points="864.6,504.1 864.6,350.2 882.6,350.2 882.6,504.1 864.6,504.1"/>
  <polygon points="887.0,504.0 887.0,350.2 905.0,350.2 905.0,504.0 887.0,504.0"/>
</g>
<text transform="translate(145.6,47.2)" dy="0.0" font-size="27.00" fill="#808080" stroke="none">Emissions and removals on forest land: Czechia</text>
<text transform="translate(130.0,140.9)" dy="8.1" font-size="27.00" fill="#808080" stroke="none" text-anchor="end">CO<tspan dy="0.2em"><tspan style="font-size:70%">2</tspan></tspan><tspan dy="-0.2em"></tspan></text>
<polyline class="pl" points="156.8,399.8 179.2,415.2 201.6,422.7 224.0,423.0 246.4,413.3 268.8,411.5 291.2,410.7 313.6,406.2 336.0,406.3 358.4,404.8 380.8,404.8 403.2,404.6 425.6,404.4 448.0,401.0 470.4,398.4 492.8,399.1 515.2,387.6 537.6,383.2 560.0,394.4 582.4,398.5 604.8,391.7 627.2,400.2 649.6,402.3 672.0,401.4 694.4,400.9 716.8,398.0 739.2,391.0 761.6,381.3 784.0,348.5 806.4,310.6 828.8,289.0 851.2,309.1 873.6,330.0 896.0,362.3" stroke="#000" stroke-width="5.40" fill="none" clip-path="url(#axis_clip)"/>
<g class="pl" fill="#FFF" stroke="#000" stroke-width="0.900">
  <circle cx="179.2" cy="415.2" r="2.2" />
  <circle cx="201.6" cy="422.7" r="2.2" />
  <circle cx="224.0" cy="423.0" r="2.2" />
  <circle cx="246.4" cy="413.3" r="2.2" />
  <circle cx="268.8" cy="411.5" r="2.2" />
  <circle cx="291.2" cy="410.7" r="2.2" />
  <circle cx="313.6" cy="406.2" r="2.2" />
  <circle cx="336.0" cy="406.3" r="2.2" />
  <circle cx="358.4" cy="404.8" r="2.2" />
  <circle cx="403.2" cy="404.6" r="2.2" />
  <circle cx="425.6" cy="404.4" r="2.2" />
  <circle cx="448.0" cy="401.0" r="2.2" />
  <circle cx="470.4" cy="398.4" r="2.2" />
  <circle cx="492.8" cy="399.1" r="2.2" />
  <circle cx="515.2" cy="387.6" r="2.2" />
  <circle cx="537.6" cy="383.2" r="2.2" />
  <circle cx="560.0" cy="394.4" r="2.2" />
  <circle cx="582.4" cy="398.5" r="2.2" />
  <circle cx="627.2" cy="400.2" r="2.2" />
  <circle cx="649.6" cy="402.3" r="2.2" />
  <circle cx="672.0" cy="401.4" r="2.2" />
  <circle cx="694.4" cy="400.9" r="2.2" />
  <circle cx="716.8" cy="398.0" r="2.2" />
  <circle cx="739.2" cy="391.0" r="2.2" />
  <circle cx="761.6" cy="381.3" r="2.2" />
  <circle cx="784.0" cy="348.5" r="2.2" />
  <circle cx="806.4" cy="310.6" r="2.2" />
  <circle cx="851.2" cy="309.1" r="2.2" />
  <circle cx="873.6" cy="330.0" r="2.2" />
  <circle cx="896.0" cy="362.3" r="2.2" />
</g>
<g class="pl" fill="#FFF" stroke="#000" stroke-width="0.900">
  <circle cx="156.8" cy="399.8" r="5.4" />
  <circle cx="380.8" cy="404.8" r="5.4" />
  <circle cx="604.8" cy="391.7" r="5.4" />
  <circle cx="828.8" cy="289.0" r="5.4" />
</g>
<text transform="translate(945.6,362.3)" dy="6.5" font-size="21.60" fill="#000" stroke="none">Total (net)</text>
<text transform="translate(945.6,282.3)" dy="6.5" font-size="21.60" fill="#FC8D62" stroke="none">Losses</text>
<text transform="translate(945.6,219.2)" dy="6.5" font-size="21.60" fill="#8DA0CB" stroke="none">Dead wood (net)</text>
<text transform="translate(945.6,198.5)" dy="6.5" font-size="21.60" fill="#E78AC3" stroke="none">Litter (net)</text>
<text transform="translate(945.6,427.1)" dy="6.5" font-size="21.60" fill="#66C2A5" stroke="none">Gains</text>
<text transform="translate(945.6,505.3)" dy="6.5" font-size="21.60" fill="#A6D854" stroke="none">Mineral Soils (net)</text>
<polyline class="pl" points="910.8,210.9 912.4,211.0 913.8,211.1 915.2,211.2 916.4,211.4 917.6,211.6 918.8,211.9 919.8,212.2 920.8,212.5 921.7,212.8 922.7,213.2 923.5,213.6 924.4,214.0 925.2,214.4 926.0,214.9 926.8,215.3 927.6,215.7 928.4,216.1 929.3,216.5 930.1,216.9 931.1,217.3 932.0,217.7 933.0,218.0 934.0,218.3 935.2,218.6 936.4,218.8 937.6,219.0 939.0,219.1 940.4,219.2 942.0,219.2" stroke="#8DA0CB" stroke-width="0.90" stroke-opacity="1.00" fill="none" />
<polyline class="pl" points="910.8,206.7 912.4,206.7 913.8,206.6 915.2,206.5 916.4,206.3 917.6,206.1 918.8,205.8 919.8,205.5 920.8,205.2 921.7,204.8 922.7,204.5 923.5,204.1 924.4,203.7 925.2,203.3 926.0,202.8 926.8,202.4 927.6,202.0 928.4,201.6 929.3,201.1 930.1,200.7 931.1,200.4 932.0,200.0 933.0,199.7 934.0,199.4 935.2,199.1 936.4,198.9 937.6,198.7 939.0,198.6 940.4,198.5 942.0,198.5" stroke="#E78AC3" stroke-width="0.90" stroke-opacity="1.00" fill="none" />
<text transform="translate(160.0,666.1)" font-size="19.80" font-family="Helvetica" fill="#BFBFBF" stroke="none" xml:space="preserve">CICERO   &#9679;   Data: UNFCCC (2025)</text>
<g>
  <rect x="123.0" y="651.4" width="34" height="17" fill="#FFF" stroke="none"/>
  <g transform="translate(124.0,652.4) scale(0.24)">
  <g><circle fill="#FFF" cx="37.79" cy="28.5" r="28.84"/>
     <circle fill="none" cx="37.79" cy="28.5" r="28.84" stroke="#BFBFBF" stroke-width="5.5"/>
     <path fill="#BFBFBF" d="M37.16,23.19 l-4.29,2.23c-0.458-0.951-1.02-1.62-1.69-2c-0.667-0.38-1.29-0.571-1.86-0.571c-2.86,0-4.29,1.89-4.29,5.66 c0,1.71,0.36,3.08,1.09,4.11c0.724,1.03,1.79,1.54,3.2,1.54c1.87,0,3.18-0.915,3.94-2.74l3.94,2 c-0.838,1.56-2,2.79-3.49,3.69c-1.48,0.896-3.12,1.34-4.91,1.34c-2.86,0-5.16-0.875-6.92-2.63 c-1.75-1.75-2.63-4.19-2.63-7.31c0-3.05,0.886-5.47,2.66-7.26c1.77-1.79,4.01-2.69,6.72-2.69 C32.6,18.56,35.44,20.1,37.16,23.19z
              M55.61,23.19l-4.23,2.23c-0.457-0.951-1.02-1.62-1.69-2 c-0.668-0.38-1.31-0.571-1.91-0.571c-2.86,0-4.29,1.89-4.29,5.66c0,1.71,0.363,3.08,1.09,4.11 c0.723,1.03,1.79,1.54,3.2,1.54c1.87,0,3.18-0.915,3.94-2.74l4,2c-0.875,1.56-2.06,2.79-3.54,3.69 c-1.49,0.9-3.11,1.34-4.86,1.34c-2.9,0-5.21-0.875-6.94-2.63c-1.74-1.75-2.6-4.19-2.6-7.31 c0-3.05,0.885-5.47,2.66-7.26c1.77-1.79,4.01-2.69,6.71-2.69C51.12,18.56,53.944,20.1,55.61,23.19z"/>
  </g></g>
  <g transform="translate(140.2,652.4) scale(0.24)">
  <g><circle fill="#FFF" cx="37.79" cy="28.5" r="28.84"/>
     <circle fill="none" cx="37.79" cy="28.5" r="28.84" stroke="#BFBFBF" stroke-width="5.5"/>
     <path fill="#BFBFBF" d="M46.129,20.557v13.085h-3.656v15.542h-9.944V33.643h-3.656V20.557 c0-0.572,0.2-1.057,0.599-1.457c0.401-0.399,0.887-0.6,1.457-0.6h13.144c0.533,0,1.01,0.2,1.428,0.6 C45.918,19.5,46.129,19.986,46.129,20.557z
              M33.042,12.329c0-3.008,1.485-4.514,4.458-4.514s4.457,1.504,4.457,4.514 c0,2.971-1.486,4.457-4.457,4.457S33.042,15.3,33.042,12.329z"/>
  </g></g>
</g>
</g>
</svg>
