<svg version="1.1" xmlns="http://www.w3.org/2000/svg" xmlns:xlink="http://www.w3.org/1999/xlink" width="100%" height="100%" viewBox="0 0 1200.000 674.916">
<title>Annual N2O Emissions: Czechia</title>
<style type="text/css">
  #main {font-family:Helvetica,Arial,sans-serif; font-size:27.00px;
         fill-opacity:1; fill:#000000; stroke:none; stroke-linejoin:round; stroke-linecap:round; stroke-width:1.00;}
  .marker {stroke-opacity:0;fill-opacity:0;}
  .marker:hover {stroke-opacity:0.5; fill-opacity:1;}
  .ticklabel {font-size:27.00px;fill:#808080;stroke:none;font-family:Helvetica}
  .ytl {text-anchor:end;}
  .dp1 {pointer-events:none;font-size:70%;text-anchor:middle;fill:#000000;}
  .dp2 {pointer-events:none;font-size:70%;text-anchor:middle;fill:#FFFFFF;}
  .numtip {pointer-events:none;}
  .cc {opacity:0.25;}
.dl_fe {background-color:#FDFFDF;display:flex;margin:auto;align-items:center}
.dl_fe_p {font-size:20px;text-align:center;margin:3px}
.dl_el {display:none;pointer-events:none;}
.cc:hover + .dl_el {display:block;}
text:hover + .dl_el {display:block;}
</style>
<defs>
  <clipPath id="axis_clip"><rect x="145.8" y="54.2" width="761.2" height="532.8" /></clipPath>
  <path id="line_y" d="M 0,53.993 v 533.183" stroke="#262626" stroke-opacity="0.15" stroke-width="1.00"/>
  <path id="line_x" d="M 145.600,0 h 761.600" stroke="#262626" stroke-opacity="0.15" stroke-width="1.00"/>
  <path id="tick_y" d="M 145.600,0 h -6.000" stroke="#808080" stroke-width="0.90"/>
  <path id="tick_x" d="M 0,587.177 v 6.000" stroke="#808080" stroke-width="0.90"/>
</defs>
<g id="main">
<use xlink:href="#line_y" transform="translate(156.5,0)"/>
<use xlink:href="#line_y" transform="translate(265.3,0)"/>
<use xlink:href="#line_y" transform="translate(374.1,0)"/>
<use xlink:href="#line_y" transform="translate(482.9,0)"/>
<use xlink:href="#line_y" transform="translate(591.7,0)"/>
<use xlink:href="#line_y" transform="translate(700.5,0)"/>
<use xlink:href="#line_y" transform="translate(809.3,0)"/>
<use xlink:href="#line_y" transform="translate(896.3,0)"/>
<use xlink:href="#line_x" transform="translate(0,587.2)"/>
<use xlink:href="#line_x" transform="translate(0,480.5)"/>
<use xlink:href="#line_x" transform="translate(0,373.9)"/>
<use xlink:href="#line_x" transform="translate(0,267.3)"/>
<use xlink:href="#line_x" transform="translate(0,160.6)"/>
<use xlink:href="#line_x" transform="translate(0,54.0)"/>
<use xlink:href="#tick_y" transform="translate(0,587.2)"/>
<use xlink:href="#tick_y" transform="translate(0,480.5)"/>
<use xlink:href="#tick_y" transform="translate(0,373.9)"/>
<use xlink:href="#tick_y" transform="translate(0,267.3)"/>
<use xlink:href="#tick_y" transform="translate(0,160.6)"/>
<use xlink:href="#tick_y" transform="translate(0,54.0)"/>
<use xlink:href="#tick_x" transform="translate(156.5,0)"/>
<use xlink:href="#tick_x" transform="translate(265.3,0)"/>
<use xlink:href="#tick_x" transform="translate(374.1,0)"/>
<use xlink:href="#tick_x" transform="translate(482.9,0)"/>
<use xlink:href="#tick_x" transform="translate(591.7,0)"/>
<use xlink:href="#tick_x" transform="translate(700.5,0)"/>
<use xlink:href="#tick_x" transform="translate(809.3,0)"/>
<use xlink:href="#tick_x" transform="translate(896.3,0)"/>
<polyline points="145.6,53.993 145.6,587.177 907.2,587.177" stroke="#808080" stroke-width="0.90" fill="none"/>
<text class="ticklabel xtl" transform="translate(156.5,629.0)" text-anchor="middle">1990</text>
<text class="ticklabel xtl" transform="translate(265.3,629.0)" text-anchor="middle">1995</text>
<text class="ticklabel xtl" transform="translate(374.1,629.0)" text-anchor="middle">2000</text>
<text class="ticklabel xtl" transform="translate(482.9,629.0)" text-anchor="middle">2005</text>
<text class="ticklabel xtl" transform="translate(591.7,629.0)" text-anchor="middle">2010</text>
<text class="ticklabel xtl" transform="translate(700.5,629.0)" text-anchor="middle">2015</text>
<text class="ticklabel xtl" transform="translate(809.3,629.0)" text-anchor="middle">2020</text>
<text class="ticklabel xtl" transform="translate(896.3,629.0)" text-anchor="middle">2024</text>
<text class="ticklabel ytl" transform="translate(128.8,595.3)">0</text>
<text class="ticklabel ytl" transform="translate(128.8,488.6)">5</text>
<text class="ticklabel ytl" transform="translate(128.8,382.0)">10</text>
<text class="ticklabel ytl" transform="translate(128.8,275.4)">15</text>
<text class="ticklabel ytl" transform="translate(128.8,168.7)">20</text>
<text class="ticklabel ytl" transform="translate(128.8,62.1)">25 kt</text>
<g stroke="#000" stroke-width="0.90" fill="#7FBF7F"  clip-path="url(#axis_clip)">
  <polygon class="pl" points="147.8,127.1 147.8,133.0 165.2,133.0 165.2,127.1 147.8,127.1"/>
  <polygon class="pl" points="169.5,167.1 169.5,172.6 186.9,172.6 186.9,167.1 169.5,167.1"/>
  <polygon class="pl" points="191.3,239.4 191.3,245.0 208.7,245.0 208.7,239.4 191.3,239.4"/>
  <polygon class="pl" points="213.1,236.4 213.1,241.9 230.5,241.9 230.5,236.4 213.1,236.4"/>
  <polygon class="pl" points="234.8,248.6 234.8,253.8 252.2,253.8 252.2,248.6 234.8,248.6"/>
  <polygon class="pl" points="256.6,163.3 256.6,168.0 274.0,168.0 274.0,163.3 256.6,163.3"/>
  <polygon class="pl" points="278.3,179.9 278.3,184.8 295.7,184.8 295.7,179.9 278.3,179.9"/>
  <polygon class="pl" points="300.1,205.6 300.1,210.7 317.5,210.7 317.5,205.6 300.1,205.6"/>
  <polygon class="pl" points="321.9,219.4 321.9,223.9 339.3,223.9 339.3,219.4 321.9,219.4"/>
  <polygon class="pl" points="343.6,255.3 343.6,259.2 361.0,259.2 361.0,255.3 343.6,255.3"/>
  <polygon class="pl" points="365.4,212.1 365.4,215.8 382.8,215.8 382.8,212.1 365.4,212.1"/>
  <polygon class="pl" points="387.1,120.6 387.1,123.8 404.5,123.8 404.5,120.6 387.1,120.6"/>
  <polygon class="pl" points="408.9,164.2 408.9,167.4 426.3,167.4 426.3,164.2 408.9,164.2"/>
  <polygon class="pl" points="430.7,309.8 430.7,313.4 448.1,313.4 448.1,309.8 430.7,309.8"/>
  <polygon class="pl" points="452.4,200.2 452.4,203.4 469.8,203.4 469.8,200.2 452.4,200.2"/>
  <polygon class="pl" points="474.2,195.4 474.2,198.2 491.6,198.2 491.6,195.4 474.2,195.4"/>
  <polygon class="pl" points="495.9,206.4 495.9,209.2 513.3,209.2 513.3,206.4 495.9,206.4"/>
  <polygon class="pl" points="517.7,207.6 517.7,210.5 535.1,210.5 535.1,207.6 517.7,207.6"/>
  <polygon class="pl" points="539.5,249.1 539.5,251.8 556.9,251.8 556.9,249.1 539.5,249.1"/>
  <polygon class="pl" points="561.2,244.8 561.2,247.4 578.6,247.4 578.6,244.8 561.2,244.8"/>
  <polygon class="pl" points="583.0,191.1 583.0,193.7 600.4,193.7 600.4,191.1 583.0,191.1"/>
  <polygon class="pl" points="604.7,264.3 604.7,266.7 622.1,266.7 622.1,264.3 604.7,264.3"/>
  <polygon class="pl" points="626.5,242.3 626.5,244.8 643.9,244.8 643.9,242.3 626.5,242.3"/>
  <polygon class="pl" points="648.3,197.2 648.3,199.5 665.7,199.5 665.7,197.2 648.3,197.2"/>
  <polygon class="pl" points="670.0,232.6 670.0,235.1 687.4,235.1 687.4,232.6 670.0,232.6"/>
  <polygon class="pl" points="691.8,300.0 691.8,302.4 709.2,302.4 709.2,300.0 691.8,300.0"/>
  <polygon class="pl" points="713.5,223.6 713.5,225.9 730.9,225.9 730.9,223.6 713.5,223.6"/>
  <polygon class="pl" points="735.3,228.1 735.3,230.4 752.7,230.4 752.7,228.1 735.3,228.1"/>
  <polygon class="pl" points="757.1,317.6 757.1,319.5 774.5,319.5 774.5,317.6 757.1,317.6"/>
  <polygon class="pl" points="778.8,290.6 778.8,292.5 796.2,292.5 796.2,290.6 778.8,290.6"/>
  <polygon class="pl" points="800.6,240.1 800.6,242.0 818.0,242.0 818.0,240.1 800.6,240.1"/>
  <polygon class="pl" points="822.3,225.6 822.3,227.5 839.7,227.5 839.7,225.6 822.3,225.6"/>
  <polygon class="pl" points="844.1,279.6 844.1,282.0 861.5,282.0 861.5,279.6 844.1,279.6"/>
  <polygon class="pl" points="865.9,285.0 865.9,286.8 883.3,286.8 883.3,285.0 865.9,285.0"/>
  <polygon class="pl" points="887.6,238.0 887.6,239.7 905.0,239.7 905.0,238.0 887.6,238.0"/>
</g>
<g stroke="#000" stroke-width="0.90" fill="#DBA746"  clip-path="url(#axis_clip)">
  <polygon class="pl" points="147.8,133.0 147.8,149.8 165.2,149.8 165.2,133.0 147.8,133.0"/>
  <polygon class="pl" points="169.5,172.6 169.5,187.3 186.9,187.3 186.9,172.6 169.5,172.6"/>
  <polygon class="pl" points="191.3,245.0 191.3,258.8 208.7,258.8 208.7,245.0 191.3,245.0"/>
  <polygon class="pl" points="213.1,241.9 213.1,256.7 230.5,256.7 230.5,241.9 213.1,241.9"/>
  <polygon class="pl" points="234.8,253.8 234.8,267.9 252.2,267.9 252.2,253.8 234.8,253.8"/>
  <polygon class="pl" points="256.6,168.0 256.6,182.8 274.0,182.8 274.0,168.0 256.6,168.0"/>
  <polygon class="pl" points="278.3,184.8 278.3,199.9 295.7,199.9 295.7,184.8 278.3,184.8"/>
  <polygon class="pl" points="300.1,210.7 300.1,225.5 317.5,225.5 317.5,210.7 300.1,210.7"/>
  <polygon class="pl" points="321.9,223.9 321.9,239.3 339.3,239.3 339.3,223.9 321.9,223.9"/>
  <polygon class="pl" points="343.6,259.2 343.6,273.7 361.0,273.7 361.0,259.2 343.6,259.2"/>
  <polygon class="pl" points="365.4,215.8 365.4,230.1 382.8,230.1 382.8,215.8 365.4,215.8"/>
  <polygon class="pl" points="387.1,123.8 387.1,138.4 404.5,138.4 404.5,123.8 387.1,123.8"/>
  <polygon class="pl" points="408.9,167.4 408.9,182.1 426.3,182.1 426.3,167.4 408.9,167.4"/>
  <polygon class="pl" points="430.7,313.4 430.7,328.2 448.1,328.2 448.1,313.4 430.7,313.4"/>
  <polygon class="pl" points="452.4,203.4 452.4,218.6 469.8,218.6 469.8,203.4 452.4,203.4"/>
  <polygon class="pl" points="474.2,198.2 474.2,215.6 491.6,215.6 491.6,198.2 474.2,198.2"/>
  <polygon class="pl" points="495.9,209.2 495.9,225.9 513.3,225.9 513.3,209.2 495.9,209.2"/>
  <polygon class="pl" points="517.7,210.5 517.7,227.6 535.1,227.6 535.1,210.5 517.7,210.5"/>
  <polygon class="pl" points="539.5,251.8 539.5,269.7 556.9,269.7 556.9,251.8 539.5,251.8"/>
  <polygon class="pl" points="561.2,247.4 561.2,264.2 578.6,264.2 578.6,247.4 561.2,247.4"/>
  <polygon class="pl" points="583.0,193.7 583.0,211.6 600.4,211.6 600.4,193.7 583.0,193.7"/>
  <polygon class="pl" points="604.7,266.7 604.7,283.4 622.1,283.4 622.1,266.7 604.7,266.7"/>
  <polygon class="pl" points="626.5,244.8 626.5,261.0 643.9,261.0 643.9,244.8 626.5,244.8"/>
  <polygon class="pl" points="648.3,199.5 648.3,216.1 665.7,216.1 665.7,199.5 648.3,199.5"/>
  <polygon class="pl" points="670.0,235.1 670.0,252.1 687.4,252.1 687.4,235.1 670.0,235.1"/>
  <polygon class="pl" points="691.8,302.4 691.8,320.0 709.2,320.0 709.2,302.4 691.8,302.4"/>
  <polygon class="pl" points="713.5,225.9 713.5,246.2 730.9,246.2 730.9,225.9 713.5,225.9"/>
  <polygon class="pl" points="735.3,230.4 735.3,250.8 752.7,250.8 752.7,230.4 735.3,230.4"/>
  <polygon class="pl" points="757.1,319.5 757.1,340.0 774.5,340.0 774.5,319.5 757.1,319.5"/>
  <polygon class="pl" points="778.8,292.5 778.8,313.7 796.2,313.7 796.2,292.5 778.8,292.5"/>
  <polygon class="pl" points="800.6,242.0 800.6,263.2 818.0,263.2 818.0,242.0 800.6,242.0"/>
  <polygon class="pl" points="822.3,227.5 822.3,248.6 839.7,248.6 839.7,227.5 822.3,227.5"/>
  <polygon class="pl" points="844.1,282.0 844.1,303.4 861.5,303.4 861.5,282.0 844.1,282.0"/>
  <polygon class="pl" points="865.9,286.8 865.9,308.2 883.3,308.2 883.3,286.8 865.9,286.8"/>
  <polygon class="pl" points="887.6,239.7 887.6,261.2 905.0,261.2 905.0,239.7 887.6,239.7"/>
</g>
<g stroke="#000" stroke-width="0.90" fill="#845F48"  clip-path="url(#axis_clip)">
  <polygon class="pl" points="147.8,149.8 147.8,440.0 165.2,440.0 165.2,149.8 147.8,149.8"/>
  <polygon class="pl" points="169.5,187.3 169.5,470.8 186.9,470.8 186.9,187.3 169.5,187.3"/>
  <polygon class="pl" points="191.3,258.8 191.3,459.5 208.7,459.5 208.7,258.8 191.3,258.8"/>
  <polygon class="pl" points="213.1,256.7 213.1,475.0 230.5,475.0 230.5,256.7 213.1,256.7"/>
  <polygon class="pl" points="234.8,267.9 234.8,461.2 252.2,461.2 252.2,267.9 234.8,267.9"/>
  <polygon class="pl" points="256.6,182.8 256.6,449.9 274.0,449.9 274.0,182.8 256.6,182.8"/>
  <polygon class="pl" points="278.3,199.9 278.3,450.8 295.7,450.8 295.7,199.9 278.3,199.9"/>
  <polygon class="pl" points="300.1,225.5 300.1,449.1 317.5,449.1 317.5,225.5 300.1,225.5"/>
  <polygon class="pl" points="321.9,239.3 321.9,445.2 339.3,445.2 339.3,239.3 321.9,239.3"/>
  <polygon class="pl" points="343.6,273.7 343.6,457.3 361.0,457.3 361.0,273.7 343.6,273.7"/>
  <polygon class="pl" points="365.4,230.1 365.4,446.1 382.8,446.1 382.8,230.1 365.4,230.1"/>
  <polygon class="pl" points="387.1,138.4 387.1,455.7 404.5,455.7 404.5,138.4 387.1,138.4"/>
  <polygon class="pl" points="408.9,182.1 408.9,467.5 426.3,467.5 426.3,182.1 408.9,182.1"/>
  <polygon class="pl" points="430.7,328.2 430.7,464.7 448.1,464.7 448.1,328.2 430.7,328.2"/>
  <polygon class="pl" points="452.4,218.6 452.4,455.1 469.8,455.1 469.8,218.6 452.4,218.6"/>
  <polygon class="pl" points="474.2,215.6 474.2,458.7 491.6,458.7 491.6,215.6 474.2,215.6"/>
  <polygon class="pl" points="495.9,225.9 495.9,465.2 513.3,465.2 513.3,225.9 495.9,225.9"/>
  <polygon class="pl" points="517.7,227.6 517.7,473.9 535.1,473.9 535.1,227.6 517.7,227.6"/>
  <polygon class="pl" points="539.5,269.7 539.5,478.3 556.9,478.3 556.9,269.7 539.5,269.7"/>
  <polygon class="pl" points="561.2,264.2 561.2,491.3 578.6,491.3 578.6,264.2 561.2,264.2"/>
  <polygon class="pl" points="583.0,211.6 583.0,499.5 600.4,499.5 600.4,211.6 583.0,211.6"/>
  <polygon class="pl" points="604.7,283.4 604.7,495.4 622.1,495.4 622.1,283.4 604.7,283.4"/>
  <polygon class="pl" points="626.5,261.0 626.5,495.3 643.9,495.3 643.9,261.0 626.5,261.0"/>
  <polygon class="pl" points="648.3,216.1 648.3,508.5 665.7,508.5 665.7,216.1 648.3,216.1"/>
  <polygon class="pl" points="670.0,252.1 670.0,497.3 687.4,497.3 687.4,252.1 670.0,252.1"/>
  <polygon class="pl" points="691.8,320.0 691.8,490.9 709.2,490.9 709.2,320.0 691.8,320.0"/>
  <polygon class="pl" points="713.5,246.2 713.5,491.3 730.9,491.3 730.9,246.2 713.5,246.2"/>
  <polygon class="pl" points="735.3,250.8 735.3,495.0 752.7,495.0 752.7,250.8 735.3,250.8"/>
  <polygon class="pl" points="757.1,340.0 757.1,496.1 774.5,496.1 774.5,340.0 757.1,340.0"/>
  <polygon class="pl" points="778.8,313.7 778.8,499.6 796.2,499.6 796.2,313.7 778.8,313.7"/>
  <polygon class="pl" points="800.6,263.2 800.6,503.0 818.0,503.0 818.0,263.2 800.6,263.2"/>
  <polygon class="pl" points="822.3,248.6 822.3,495.5 839.7,495.5 839.7,248.6 822.3,248.6"/>
  <polygon class="pl" points="844.1,303.4 844.1,497.4 861.5,497.4 861.5,303.4 844.1,303.4"/>
  <polygon class="pl" points="865.9,308.2 865.9,505.6 883.3,505.6 883.3,308.2 865.9,308.2"/>
  <polygon class="pl" points="887.6,261.2 887.6,507.0 905.0,507.0 905.0,261.2 887.6,261.2"/>
</g>
<g stroke="#000" stroke-width="0.90" fill="#4A89E8"  clip-path="url(#axis_clip)">
  <polygon class="pl" points="147.8,440.0 147.8,535.3 165.2,535.3 165.2,440.0 147.8,440.0"/>
  <polygon class="pl" points="169.5,470.8 169.5,539.1 186.9,539.1 186.9,470.8 169.5,470.8"/>
  <polygon class="pl" points="191.3,459.5 191.3,540.2 208.7,540.2 208.7,459.5 191.3,459.5"/>
  <polygon class="pl" points="213.1,475.0 213.1,540.9 230.5,540.9 230.5,475.0 213.1,475.0"/>
  <polygon class="pl" points="234.8,461.2 234.8,540.7 252.2,540.7 252.2,461.2 234.8,461.2"/>
  <polygon class="pl" points="256.6,449.9 256.6,539.5 274.0,539.5 274.0,449.9 256.6,449.9"/>
  <polygon class="pl" points="278.3,450.8 278.3,537.4 295.7,537.4 295.7,450.8 278.3,450.8"/>
  <polygon class="pl" points="300.1,449.1 300.1,537.9 317.5,537.9 317.5,449.1 300.1,449.1"/>
  <polygon class="pl" points="321.9,445.2 321.9,538.6 339.3,538.6 339.3,445.2 321.9,445.2"/>
  <polygon class="pl" points="343.6,457.3 343.6,537.9 361.0,537.9 361.0,457.3 343.6,457.3"/>
  <polygon class="pl" points="365.4,446.1 365.4,535.6 382.8,535.6 382.8,446.1 365.4,446.1"/>
  <polygon class="pl" points="387.1,455.7 387.1,544.1 404.5,544.1 404.5,455.7 387.1,455.7"/>
  <polygon class="pl" points="408.9,467.5 408.9,544.3 426.3,544.3 426.3,467.5 408.9,467.5"/>
  <polygon class="pl" points="430.7,464.7 430.7,542.8 448.1,542.8 448.1,464.7 430.7,464.7"/>
  <polygon class="pl" points="452.4,455.1 452.4,542.4 469.8,542.4 469.8,455.1 452.4,455.1"/>
  <polygon class="pl" points="474.2,458.7 474.2,542.8 491.6,542.8 491.6,458.7 474.2,458.7"/>
  <polygon class="pl" points="495.9,465.2 495.9,542.3 513.3,542.3 513.3,465.2 495.9,465.2"/>
  <polygon class="pl" points="517.7,473.9 517.7,540.7 535.1,540.7 535.1,473.9 517.7,473.9"/>
  <polygon class="pl" points="539.5,478.3 539.5,541.9 556.9,541.9 556.9,478.3 539.5,478.3"/>
  <polygon class="pl" points="561.2,491.3 561.2,544.5 578.6,544.5 578.6,491.3 561.2,491.3"/>
  <polygon class="pl" points="583.0,499.5 583.0,544.0 600.4,544.0 600.4,499.5 583.0,499.5"/>
  <polygon class="pl" points="604.7,495.4 604.7,543.5 622.1,543.5 622.1,495.4 604.7,495.4"/>
  <polygon class="pl" points="626.5,495.3 626.5,543.8 643.9,543.8 643.9,495.3 626.5,495.3"/>
  <polygon class="pl" points="648.3,508.5 648.3,544.3 665.7,544.3 665.7,508.5 648.3,508.5"/>
  <polygon class="pl" points="670.0,497.3 670.0,538.8 687.4,538.8 687.4,497.3 670.0,497.3"/>
  <polygon class="pl" points="691.8,490.9 691.8,534.7 709.2,534.7 709.2,490.9 691.8,490.9"/>
  <polygon class="pl" points="713.5,491.3 713.5,529.5 730.9,529.5 730.9,491.3 713.5,491.3"/>
  <polygon class="pl" points="735.3,495.0 735.3,526.8 752.7,526.8 752.7,495.0 735.3,495.0"/>
  <polygon class="pl" points="757.1,496.1 757.1,526.3 774.5,526.3 774.5,496.1 757.1,496.1"/>
  <polygon class="pl" points="778.8,499.6 778.8,527.7 796.2,527.7 796.2,499.6 778.8,499.6"/>
  <polygon class="pl" points="800.6,503.0 800.6,529.7 818.0,529.7 818.0,503.0 800.6,503.0"/>
  <polygon class="pl" points="822.3,495.5 822.3,526.4 839.7,526.4 839.7,495.5 822.3,495.5"/>
  <polygon class="pl" points="844.1,497.4 844.1,526.2 861.5,526.2 861.5,497.4 844.1,497.4"/>
  <polygon class="pl" points="865.9,505.6 865.9,531.0 883.3,531.0 883.3,505.6 865.9,505.6"/>
  <polygon class="pl" points="887.6,507.0 887.6,532.1 905.0,532.1 905.0,507.0 887.6,507.0"/>
</g>
<g stroke="#000" stroke-width="0.90" fill="#FF7F61"  clip-path="url(#axis_clip)">
  <polygon class="pl" points="147.8,535.3 147.8,587.2 165.2,587.2 165.2,535.3 147.8,535.3"/>
  <polygon class="pl" points="169.5,539.1 169.5,587.2 186.9,587.2 186.9,539.1 169.5,539.1"/>
  <polygon class="pl" points="191.3,540.2 191.3,587.2 208.7,587.2 208.7,540.2 191.3,540.2"/>
  <polygon class="pl" points="213.1,540.9 213.1,587.2 230.5,587.2 230.5,540.9 213.1,540.9"/>
  <polygon class="pl" points="234.8,540.7 234.8,587.2 252.2,587.2 252.2,540.7 234.8,540.7"/>
  <polygon class="pl" points="256.6,539.5 256.6,587.2 274.0,587.2 274.0,539.5 256.6,539.5"/>
  <polygon class="pl" points="278.3,537.4 278.3,587.2 295.7,587.2 295.7,537.4 278.3,537.4"/>
  <polygon class="pl" points="300.1,537.9 300.1,587.2 317.5,587.2 317.5,537.9 300.1,537.9"/>
  <polygon class="pl" points="321.9,538.6 321.9,587.2 339.3,587.2 339.3,538.6 321.9,538.6"/>
  <polygon class="pl" points="343.6,537.9 343.6,587.2 361.0,587.2 361.0,537.9 343.6,537.9"/>
  <polygon class="pl" points="365.4,535.6 365.4,587.2 382.8,587.2 382.8,535.6 365.4,535.6"/>
  <polygon class="pl" points="387.1,544.1 387.1,587.2 404.5,587.2 404.5,544.1 387.1,544.1"/>
  <polygon class="pl" points="408.9,544.3 408.9,587.2 426.3,587.2 426.3,544.3 408.9,544.3"/>
  <polygon class="pl" points="430.7,542.8 430.7,587.2 448.1,587.2 448.1,542.8 430.7,542.8"/>
  <polygon class="pl" points="452.4,542.4 452.4,587.2 469.8,587.2 469.8,542.4 452.4,542.4"/>
  <polygon class="pl" points="474.2,542.8 474.2,587.2 491.6,587.2 491.6,542.8 474.2,542.8"/>
  <polygon class="pl" points="495.9,542.3 495.9,587.2 513.3,587.2 513.3,542.3 495.9,542.3"/>
  <polygon class="pl" points="517.7,540.7 517.7,587.2 535.1,587.2 535.1,540.7 517.7,540.7"/>
  <polygon class="pl" points="539.5,541.9 539.5,587.2 556.9,587.2 556.9,541.9 539.5,541.9"/>
  <polygon class="pl" points="561.2,544.5 561.2,587.2 578.6,587.2 578.6,544.5 561.2,544.5"/>
  <polygon class="pl" points="583.0,544.0 583.0,587.2 600.4,587.2 600.4,544.0 583.0,544.0"/>
  <polygon class="pl" points="604.7,543.5 604.7,587.2 622.1,587.2 622.1,543.5 604.7,543.5"/>
  <polygon class="pl" points="626.5,543.8 626.5,587.2 643.9,587.2 643.9,543.8 626.5,543.8"/>
  <polygon class="pl" points="648.3,544.3 648.3,587.2 665.7,587.2 665.7,544.3 648.3,544.3"/>
  <polygon class="pl" points="670.0,538.8 670.0,587.2 687.4,587.2 687.4,538.8 670.0,538.8"/>
  <polygon class="pl" points="691.8,534.7 691.8,587.2 709.2,587.2 709.2,534.7 691.8,534.7"/>
  <polygon class="pl" points="713.5,529.5 713.5,587.2 730.9,587.2 730.9,529.5 713.5,529.5"/>
  <polygon class="pl" points="735.3,526.8 735.3,587.2 752.7,587.2 752.7,526.8 735.3,526.8"/>
  <polygon class="pl" points="757.1,526.3 757.1,587.2 774.5,587.2 774.5,526.3 757.1,526.3"/>
  <polygon class="pl" points="778.8,527.7 778.8,587.2 796.2,587.2 796.2,527.7 778.8,527.7"/>
  <polygon class="pl" points="800.6,529.7 800.6,587.2 818.0,587.2 818.0,529.7 800.6,529.7"/>
  <polygon class="pl" points="822.3,526.4 822.3,587.2 839.7,587.2 839.7,526.4 822.3,526.4"/>
  <polygon class="pl" points="844.1,526.2 844.1,587.2 861.5,587.2 861.5,526.2 844.1,526.2"/>
  <polygon class="pl" points="865.9,531.0 865.9,587.2 883.3,587.2 883.3,531.0 865.9,531.0"/>
  <polygon class="pl" points="887.6,532.1 887.6,587.2 905.0,587.2 905.0,532.1 887.6,532.1"/>
</g>
<polyline class="pl" points="156.5,127.1 178.2,167.1 200.0,239.4 221.8,236.4 243.5,248.6 265.3,163.3 287.0,179.9 308.8,205.6 330.6,219.4 352.3,255.3 374.1,212.1 395.8,120.6 417.6,164.2 439.4,309.8 461.1,200.2 482.9,195.4 504.6,206.4 526.4,207.6 548.2,249.1 569.9,244.8 591.7,191.1 613.4,264.3 635.2,242.3 657.0,197.2 678.7,232.6 700.5,300.0 722.2,223.6 744.0,228.1 765.8,317.6 787.5,290.6 809.3,240.1 831.0,225.6 852.8,279.6 874.6,285.0 896.3,238.0" stroke="#000" stroke-width="5.40" stroke-opacity="1.00" fill="none" clip-path="url(#axis_clip)"/>
<g class="pl" fill="#FFF" stroke="#000" stroke-width="0.900">
  <circle cx="178.2" cy="167.1" r="2.2" />
  <circle cx="200.0" cy="239.4" r="2.2" />
  <circle cx="221.8" cy="236.4" r="2.2" />
  <circle cx="243.5" cy="248.6" r="2.2" />
  <circle cx="265.3" cy="163.3" r="2.2" />
  <circle cx="287.0" cy="179.9" r="2.2" />
  <circle cx="308.8" cy="205.6" r="2.2" />
  <circle cx="330.6" cy="219.4" r="2.2" />
  <circle cx="352.3" cy="255.3" r="2.2" />
  <circle cx="395.8" cy="120.6" r="2.2" />
  <circle cx="417.6" cy="164.2" r="2.2" />
  <circle cx="439.4" cy="309.8" r="2.2" />
  <circle cx="461.1" cy="200.2" r="2.2" />
  <circle cx="482.9" cy="195.4" r="2.2" />
  <circle cx="504.6" cy="206.4" r="2.2" />
  <circle cx="526.4" cy="207.6" r="2.2" />
  <circle cx="548.2" cy="249.1" r="2.2" />
  <circle cx="569.9" cy="244.8" r="2.2" />
  <circle cx="613.4" cy="264.3" r="2.2" />
  <circle cx="635.2" cy="242.3" r="2.2" />
  <circle cx="657.0" cy="197.2" r="2.2" />
  <circle cx="678.7" cy="232.6" r="2.2" />
  <circle cx="700.5" cy="300.0" r="2.2" />
  <circle cx="722.2" cy="223.6" r="2.2" />
  <circle cx="744.0" cy="228.1" r="2.2" />
  <circle cx="765.8" cy="317.6" r="2.2" />
  <circle cx="787.5" cy="290.6" r="2.2" />
  <circle cx="831.0" cy="225.6" r="2.2" />
  <circle cx="852.8" cy="279.6" r="2.2" />
  <circle cx="874.6" cy="285.0" r="2.2" />
  <circle cx="896.3" cy="238.0" r="2.2" />
</g>
<g class="pl" fill="#FFF" stroke="#000" stroke-width="0.900">
  <circle cx="156.5" cy="127.1" r="5.4" />
  <circle cx="374.1" cy="212.1" r="5.4" />
  <circle cx="591.7" cy="191.1" r="5.4" />
  <circle cx="809.3" cy="240.1" r="5.4" />
</g>
<text transform="translate(145.6,47.2)" dy="0.0" font-size="27.00" fill="#808080" stroke="none">Annual N<tspan dy="0.2em"><tspan style="font-size:70%">2</tspan></tspan><tspan dy="-0.2em">O</tspan> Emissions: Czechia</text>
<text transform="translate(130.0,81.6)" dy="8.1" font-size="27.00" fill="#808080" stroke="none" text-anchor="end">N<tspan dy="0.2em"><tspan style="font-size:70%">2</tspan></tspan><tspan dy="-0.2em">O</tspan></text>
<text transform="translate(945.6,217.4)" dy="7.6" font-size="25.20" fill="#000" stroke="none">-24.1% since 1990</text>
<text transform="translate(945.6,559.7)" dy="7.6" font-size="25.20" fill="#FF7F61" stroke="none">Energy</text>
<text transform="translate(945.6,519.5)" dy="7.6" font-size="25.20" fill="#4A89E8" stroke="none">Industrial Processes</text>
<text transform="translate(945.6,384.1)" dy="7.6" font-size="25.20" fill="#845F48" stroke="none">Agriculture</text>
<text transform="translate(945.6,267.5)" dy="7.6" font-size="25.20" fill="#DBA746" stroke="none">Waste</text>
<text transform="translate(945.6,242.4)" dy="7.6" font-size="25.20" fill="#7FBF7F" stroke="none">LULUCF</text>
<polyline class="pl" points="910.8,238.0 912.4,237.9 913.8,237.7 915.2,237.4 916.4,236.9 917.6,236.3 918.8,235.7 919.8,234.9 920.8,234.1 921.7,233.2 922.7,232.3 923.5,231.3 924.4,230.3 925.2,229.3 926.0,228.2 926.8,227.1 927.6,226.1 928.4,225.0 929.3,224.0 930.1,223.0 931.1,222.1 932.0,221.2 933.0,220.4 934.0,219.7 935.2,219.0 936.4,218.4 937.6,218.0 939.0,217.7 940.4,217.4 942.0,217.4" stroke="#000" stroke-width="0.90" stroke-opacity="1.00" fill="none" />
<polyline class="pl" points="910.8,250.4 912.4,250.5 913.8,250.7 915.2,251.0 916.4,251.3 917.6,251.8 918.8,252.3 919.8,252.9 920.8,253.6 921.7,254.3 922.7,255.1 923.5,255.9 924.4,256.8 925.2,257.6 926.0,258.5 926.8,259.4 927.6,260.3 928.4,261.1 929.3,262.0 930.1,262.8 931.1,263.6 932.0,264.3 933.0,265.0 934.0,265.6 935.2,266.1 936.4,266.6 937.6,266.9 939.0,267.2 940.4,267.4 942.0,267.5" stroke="#DBA746" stroke-width="0.90" stroke-opacity="1.00" fill="none" />
<polyline class="pl" points="910.8,238.8 912.4,238.9 913.8,238.9 915.2,239.0 916.4,239.0 917.6,239.1 918.8,239.2 919.8,239.4 920.8,239.5 921.7,239.7 922.7,239.8 923.5,240.0 924.4,240.2 925.2,240.4 926.0,240.5 926.8,240.7 927.6,240.9 928.4,241.1 929.3,241.3 930.1,241.4 931.1,241.6 932.0,241.8 933.0,241.9 934.0,242.0 935.2,242.1 936.4,242.2 937.6,242.3 939.0,242.4 940.4,242.4 942.0,242.4" stroke="#7FBF7F" stroke-width="0.90" stroke-opacity="1.00" fill="none" />
<text transform="translate(160.0,666.1)" font-size="19.80" font-family="Helvetica" fill="#BFBFBF" stroke="none" xml:space="preserve">CICERO   &#9679;   Data: EIONET (2026)</text>
<g>
  <rect x="123.0" y="651.4" width="34" height="17" fill="#FFF" stroke="none" opacity="0.01"/>
  <g transform="translate(124.0,652.4) scale(0.24)">
  <g><circle fill="#FFF" cx="37.79" cy="28.5" r="28.84"/>
     <circle fill="none" cx="37.79" cy="28.5" r="28.84" stroke="#BFBFBF" stroke-width="5.5"/>
     <path fill="#BFBFBF" d="M37.16,23.19 l-4.29,2.23c-0.458-0.951-1.02-1.62-1.69-2c-0.667-0.38-1.29-0.571-1.86-0.571c-2.86,0-4.29,1.89-4.29,5.66 c0,1.71,0.36,3.08,1.09,4.11c0.724,1.03,1.79,1.54,3.2,1.54c1.87,0,3.18-0.915,3.94-2.74l3.94,2 c-0.838,1.56-2,2.79-3.49,3.69c-1.48,0.896-3.12,1.34-4.91,1.34c-2.86,0-5.16-0.875-6.92-2.63 c-1.75-1.75-2.63-4.19-2.63-7.31c0-3.05,0.886-5.47,2.66-7.26c1.77-1.79,4.01-2.69,6.72-2.69 C32.6,18.56,35.44,20.1,37.16,23.19z
              M55.61,23.19l-4.23,2.23c-0.457-0.951-1.02-1.62-1.69-2 c-0.668-0.38-1.31-0.571-1.91-0.571c-2.86,0-4.29,1.89-4.29,5.66c0,1.71,0.363,3.08,1.09,4.11 c0.723,1.03,1.79,1.54,3.2,1.54c1.87,0,3.18-0.915,3.94-2.74l4,2c-0.875,1.56-2.06,2.79-3.54,3.69 c-1.49,0.9-3.11,1.34-4.86,1.34c-2.9,0-5.21-0.875-6.94-2.63c-1.74-1.75-2.6-4.19-2.6-7.31 c0-3.05,0.885-5.47,2.66-7.26c1.77-1.79,4.01-2.69,6.71-2.69C51.12,18.56,53.944,20.1,55.61,23.19z"/>
  </g></g>
  <g transform="translate(140.2,652.4) scale(0.24)">
  <g><circle fill="#FFF" cx="37.79" cy="28.5" r="28.84"/>
     <circle fill="none" cx="37.79" cy="28.5" r="28.84" stroke="#BFBFBF" stroke-width="5.5"/>
     <path fill="#BFBFBF" d="M46.129,20.557v13.085h-3.656v15.542h-9.944V33.643h-3.656V20.557 c0-0.572,0.2-1.057,0.599-1.457c0.401-0.399,0.887-0.6,1.457-0.6h13.144c0.533,0,1.01,0.2,1.428,0.6 C45.918,19.5,46.129,19.986,46.129,20.557z
              M33.042,12.329c0-3.008,1.485-4.514,4.458-4.514s4.457,1.504,4.457,4.514 c0,2.971-1.486,4.457-4.457,4.457S33.042,15.3,33.042,12.329z"/>
  </g></g>
</g>
</g>
</svg>
