<svg version="1.1" xmlns="http://www.w3.org/2000/svg" xmlns:xlink="http://www.w3.org/1999/xlink" width="100%" height="100%" viewBox="0 0 1200.000 674.916">
<title>Annual CO2 Emissions: Czechia</title>
<style type="text/css">
  #main {font-family:Helvetica,Arial,sans-serif; font-size:27.00px;
         fill-opacity:1; fill:#000000; stroke:none; stroke-linejoin:round; stroke-linecap:round; stroke-width:1.00;}
  .marker {stroke-opacity:0;fill-opacity:0;}
  .marker:hover {stroke-opacity:0.5; fill-opacity:1;}
  .ticklabel {font-size:27.00px;fill:#808080;stroke:none;font-family:Helvetica}
  .ytl {text-anchor:end;}
  .dp1 {pointer-events:none;font-size:70%;text-anchor:middle;fill:#000000;}
  .dp2 {pointer-events:none;font-size:70%;text-anchor:middle;fill:#FFFFFF;}
  .numtip {pointer-events:none;}
  .cc {opacity:0.25;}
.dl_fe {background-color:#FDFFDF;display:flex;margin:auto;align-items:center}
.dl_fe_p {font-size:20px;text-align:center;margin:3px}
.dl_el {display:none;pointer-events:none;}
.cc:hover + .dl_el {display:block;}
text:hover + .dl_el {display:block;}
</style>
<defs>
  <clipPath id="axis_clip"><rect x="145.8" y="54.2" width="761.2" height="532.8" /></clipPath>
  <path id="line_y" d="M 0,53.993 v 533.183" stroke="#262626" stroke-opacity="0.15" stroke-width="1.00"/>
  <path id="line_x" d="M 145.600,0 h 761.600" stroke="#262626" stroke-opacity="0.15" stroke-width="1.00"/>
  <path id="tick_y" d="M 145.600,0 h -6.000" stroke="#808080" stroke-width="0.90"/>
  <path id="tick_x" d="M 0,587.177 v 6.000" stroke="#808080" stroke-width="0.90"/>
</defs>
<g id="main">
<use xlink:href="#line_y" transform="translate(156.5,0)"/>
<use xlink:href="#line_y" transform="translate(265.3,0)"/>
<use xlink:href="#line_y" transform="translate(374.1,0)"/>
<use xlink:href="#line_y" transform="translate(482.9,0)"/>
<use xlink:href="#line_y" transform="translate(591.7,0)"/>
<use xlink:href="#line_y" transform="translate(700.5,0)"/>
<use xlink:href="#line_y" transform="translate(809.3,0)"/>
<use xlink:href="#line_y" transform="translate(896.3,0)"/>
<use xlink:href="#line_x" transform="translate(0,533.9)"/>
<use xlink:href="#line_x" transform="translate(0,427.2)"/>
<use xlink:href="#line_x" transform="translate(0,320.6)"/>
<use xlink:href="#line_x" transform="translate(0,213.9)"/>
<use xlink:href="#line_x" transform="translate(0,107.3)"/>
<use xlink:href="#tick_y" transform="translate(0,533.9)"/>
<use xlink:href="#tick_y" transform="translate(0,427.2)"/>
<use xlink:href="#tick_y" transform="translate(0,320.6)"/>
<use xlink:href="#tick_y" transform="translate(0,213.9)"/>
<use xlink:href="#tick_y" transform="translate(0,107.3)"/>
<use xlink:href="#tick_x" transform="translate(156.5,0)"/>
<use xlink:href="#tick_x" transform="translate(265.3,0)"/>
<use xlink:href="#tick_x" transform="translate(374.1,0)"/>
<use xlink:href="#tick_x" transform="translate(482.9,0)"/>
<use xlink:href="#tick_x" transform="translate(591.7,0)"/>
<use xlink:href="#tick_x" transform="translate(700.5,0)"/>
<use xlink:href="#tick_x" transform="translate(809.3,0)"/>
<use xlink:href="#tick_x" transform="translate(896.3,0)"/>
<polyline points="145.6,53.993 145.6,587.177 907.2,587.177" stroke="#808080" stroke-width="0.90" fill="none"/>
<text class="ticklabel xtl" transform="translate(156.5,629.0)" text-anchor="middle">1990</text>
<text class="ticklabel xtl" transform="translate(265.3,629.0)" text-anchor="middle">1995</text>
<text class="ticklabel xtl" transform="translate(374.1,629.0)" text-anchor="middle">2000</text>
<text class="ticklabel xtl" transform="translate(482.9,629.0)" text-anchor="middle">2005</text>
<text class="ticklabel xtl" transform="translate(591.7,629.0)" text-anchor="middle">2010</text>
<text class="ticklabel xtl" transform="translate(700.5,629.0)" text-anchor="middle">2015</text>
<text class="ticklabel xtl" transform="translate(809.3,629.0)" text-anchor="middle">2020</text>
<text class="ticklabel xtl" transform="translate(896.3,629.0)" text-anchor="middle">2024</text>
<text class="ticklabel ytl" transform="translate(128.8,542.0)">0</text>
<text class="ticklabel ytl" transform="translate(128.8,435.3)">40</text>
<text class="ticklabel ytl" transform="translate(128.8,328.7)">80</text>
<text class="ticklabel ytl" transform="translate(128.8,222.0)">120</text>
<text class="ticklabel ytl" transform="translate(128.8,115.4)">160 Mt</text>
<g stroke="#000" stroke-width="0.90" fill="#7FBF7F"  clip-path="url(#axis_clip)">
  <polygon class="pl" points="778.8,254.3 778.8,264.5 796.2,264.5 796.2,254.3 778.8,254.3"/>
  <polygon class="pl" points="800.6,270.7 800.6,289.4 818.0,289.4 818.0,270.7 800.6,270.7"/>
  <polygon class="pl" points="822.3,267.0 822.3,276.2 839.7,276.2 839.7,267.0 822.3,267.0"/>
</g>
<g stroke="#000" stroke-width="0.90" fill="#DBA746"  clip-path="url(#axis_clip)">
  <polygon class="pl" points="147.8,95.7 147.8,95.8 165.2,95.8 165.2,95.7 147.8,95.7"/>
  <polygon class="pl" points="169.5,136.7 169.5,136.8 186.9,136.8 186.9,136.7 169.5,136.7"/>
  <polygon class="pl" points="191.3,145.2 191.3,145.3 208.7,145.3 208.7,145.2 191.3,145.2"/>
  <polygon class="pl" points="213.1,160.1 213.1,160.2 230.5,160.2 230.5,160.1 213.1,160.1"/>
  <polygon class="pl" points="234.8,180.0 234.8,180.1 252.2,180.1 252.2,180.0 234.8,180.0"/>
  <polygon class="pl" points="256.6,182.8 256.6,183.0 274.0,183.0 274.0,182.8 256.6,182.8"/>
  <polygon class="pl" points="278.3,173.7 278.3,173.9 295.7,173.9 295.7,173.7 278.3,173.7"/>
  <polygon class="pl" points="300.1,184.6 300.1,184.8 317.5,184.8 317.5,184.6 300.1,184.6"/>
  <polygon class="pl" points="321.9,198.6 321.9,198.7 339.3,198.7 339.3,198.6 321.9,198.6"/>
  <polygon class="pl" points="343.6,222.7 343.6,222.9 361.0,222.9 361.0,222.7 343.6,222.7"/>
  <polygon class="pl" points="365.4,194.5 365.4,194.7 382.8,194.7 382.8,194.5 365.4,194.5"/>
  <polygon class="pl" points="387.1,194.7 387.1,194.9 404.5,194.9 404.5,194.7 387.1,194.7"/>
  <polygon class="pl" points="408.9,203.2 408.9,203.4 426.3,203.4 426.3,203.2 408.9,203.2"/>
  <polygon class="pl" points="430.7,193.6 430.7,194.0 448.1,194.0 448.1,193.6 430.7,193.6"/>
  <polygon class="pl" points="452.4,191.6 452.4,192.0 469.8,192.0 469.8,191.6 452.4,191.6"/>
  <polygon class="pl" points="474.2,198.6 474.2,198.9 491.6,198.9 491.6,198.6 474.2,198.6"/>
  <polygon class="pl" points="495.9,196.4 495.9,196.7 513.3,196.7 513.3,196.4 495.9,196.4"/>
  <polygon class="pl" points="517.7,191.5 517.7,191.7 535.1,191.7 535.1,191.5 517.7,191.5"/>
  <polygon class="pl" points="539.5,206.0 539.5,206.2 556.9,206.2 556.9,206.0 539.5,206.0"/>
  <polygon class="pl" points="561.2,227.2 561.2,227.4 578.6,227.4 578.6,227.2 561.2,227.2"/>
  <polygon class="pl" points="583.0,220.6 583.0,220.9 600.4,220.9 600.4,220.6 583.0,220.6"/>
  <polygon class="pl" points="604.7,226.7 604.7,226.9 622.1,226.9 622.1,226.7 604.7,226.7"/>
  <polygon class="pl" points="626.5,237.1 626.5,237.3 643.9,237.3 643.9,237.1 626.5,237.1"/>
  <polygon class="pl" points="648.3,249.2 648.3,249.5 665.7,249.5 665.7,249.2 648.3,249.2"/>
  <polygon class="pl" points="670.0,255.9 670.0,256.1 687.4,256.1 687.4,255.9 670.0,255.9"/>
  <polygon class="pl" points="691.8,253.9 691.8,254.1 709.2,254.1 709.2,253.9 691.8,253.9"/>
  <polygon class="pl" points="713.5,249.5 713.5,249.8 730.9,249.8 730.9,249.5 713.5,249.5"/>
  <polygon class="pl" points="735.3,246.5 735.3,246.8 752.7,246.8 752.7,246.5 735.3,246.5"/>
  <polygon class="pl" points="757.1,250.3 757.1,250.6 774.5,250.6 774.5,250.3 757.1,250.3"/>
  <polygon class="pl" points="778.8,264.5 778.8,264.8 796.2,264.8 796.2,264.5 778.8,264.5"/>
  <polygon class="pl" points="800.6,289.4 800.6,289.6 818.0,289.6 818.0,289.4 800.6,289.4"/>
  <polygon class="pl" points="822.3,276.2 822.3,276.4 839.7,276.4 839.7,276.2 822.3,276.2"/>
  <polygon class="pl" points="844.1,280.4 844.1,280.6 861.5,280.6 861.5,280.4 844.1,280.4"/>
  <polygon class="pl" points="865.9,311.8 865.9,312.0 883.3,312.0 883.3,311.8 865.9,311.8"/>
  <polygon class="pl" points="887.6,328.0 887.6,328.2 905.0,328.2 905.0,328.0 887.6,328.0"/>
</g>
<g stroke="#000" stroke-width="0.90" fill="#845F48"  clip-path="url(#axis_clip)">
  <polygon class="pl" points="147.8,95.8 147.8,99.4 165.2,99.4 165.2,95.8 147.8,95.8"/>
  <polygon class="pl" points="169.5,136.8 169.5,138.0 186.9,138.0 186.9,136.8 169.5,136.8"/>
  <polygon class="pl" points="191.3,145.3 191.3,145.9 208.7,145.9 208.7,145.3 191.3,145.3"/>
  <polygon class="pl" points="213.1,160.2 213.1,160.7 230.5,160.7 230.5,160.2 213.1,160.2"/>
  <polygon class="pl" points="234.8,180.1 234.8,180.7 252.2,180.7 252.2,180.1 234.8,180.1"/>
  <polygon class="pl" points="256.6,183.0 256.6,183.6 274.0,183.6 274.0,183.0 256.6,183.0"/>
  <polygon class="pl" points="278.3,173.9 278.3,174.5 295.7,174.5 295.7,173.9 278.3,173.9"/>
  <polygon class="pl" points="300.1,184.8 300.1,185.2 317.5,185.2 317.5,184.8 300.1,184.8"/>
  <polygon class="pl" points="321.9,198.7 321.9,199.4 339.3,199.4 339.3,198.7 321.9,198.7"/>
  <polygon class="pl" points="343.6,222.9 343.6,223.3 361.0,223.3 361.0,222.9 343.6,222.9"/>
  <polygon class="pl" points="365.4,194.7 365.4,195.3 382.8,195.3 382.8,194.7 365.4,194.7"/>
  <polygon class="pl" points="387.1,194.9 387.1,195.6 404.5,195.6 404.5,194.9 387.1,194.9"/>
  <polygon class="pl" points="408.9,203.4 408.9,204.1 426.3,204.1 426.3,203.4 408.9,203.4"/>
  <polygon class="pl" points="430.7,194.0 430.7,194.5 448.1,194.5 448.1,194.0 430.7,194.0"/>
  <polygon class="pl" points="452.4,192.0 452.4,192.6 469.8,192.6 469.8,192.0 452.4,192.0"/>
  <polygon class="pl" points="474.2,198.9 474.2,199.4 491.6,199.4 491.6,198.9 474.2,198.9"/>
  <polygon class="pl" points="495.9,196.7 495.9,197.4 513.3,197.4 513.3,196.7 495.9,196.7"/>
  <polygon class="pl" points="517.7,191.7 517.7,192.5 535.1,192.5 535.1,191.7 517.7,191.7"/>
  <polygon class="pl" points="539.5,206.2 539.5,207.0 556.9,207.0 556.9,206.2 539.5,206.2"/>
  <polygon class="pl" points="561.2,227.4 561.2,228.0 578.6,228.0 578.6,227.4 561.2,227.4"/>
  <polygon class="pl" points="583.0,220.9 583.0,221.5 600.4,221.5 600.4,220.9 583.0,220.9"/>
  <polygon class="pl" points="604.7,226.9 604.7,227.7 622.1,227.7 622.1,226.9 604.7,226.9"/>
  <polygon class="pl" points="626.5,237.3 626.5,238.2 643.9,238.2 643.9,237.3 626.5,237.3"/>
  <polygon class="pl" points="648.3,249.5 648.3,250.4 665.7,250.4 665.7,249.5 648.3,249.5"/>
  <polygon class="pl" points="670.0,256.1 670.0,256.9 687.4,256.9 687.4,256.1 670.0,256.1"/>
  <polygon class="pl" points="691.8,254.1 691.8,255.3 709.2,255.3 709.2,254.1 691.8,254.1"/>
  <polygon class="pl" points="713.5,249.8 713.5,251.0 730.9,251.0 730.9,249.8 713.5,249.8"/>
  <polygon class="pl" points="735.3,246.8 735.3,247.9 752.7,247.9 752.7,246.8 735.3,246.8"/>
  <polygon class="pl" points="757.1,250.6 757.1,251.5 774.5,251.5 774.5,250.6 757.1,250.6"/>
  <polygon class="pl" points="778.8,264.8 778.8,265.7 796.2,265.7 796.2,264.8 778.8,264.8"/>
  <polygon class="pl" points="800.6,289.6 800.6,290.5 818.0,290.5 818.0,289.6 800.6,289.6"/>
  <polygon class="pl" points="822.3,276.4 822.3,277.3 839.7,277.3 839.7,276.4 822.3,276.4"/>
  <polygon class="pl" points="844.1,280.6 844.1,281.5 861.5,281.5 861.5,280.6 844.1,280.6"/>
  <polygon class="pl" points="865.9,312.0 865.9,312.7 883.3,312.7 883.3,312.0 865.9,312.0"/>
  <polygon class="pl" points="887.6,328.2 887.6,329.0 905.0,329.0 905.0,328.2 887.6,328.2"/>
</g>
<g stroke="#000" stroke-width="0.90" fill="#4A89E8"  clip-path="url(#axis_clip)">
  <polygon class="pl" points="147.8,99.4 147.8,141.5 165.2,141.5 165.2,99.4 147.8,99.4"/>
  <polygon class="pl" points="169.5,138.0 169.5,172.1 186.9,172.1 186.9,138.0 169.5,138.0"/>
  <polygon class="pl" points="191.3,145.9 191.3,181.6 208.7,181.6 208.7,145.9 191.3,145.9"/>
  <polygon class="pl" points="213.1,160.7 213.1,193.8 230.5,193.8 230.5,160.7 213.1,160.7"/>
  <polygon class="pl" points="234.8,180.7 234.8,216.6 252.2,216.6 252.2,180.7 234.8,180.7"/>
  <polygon class="pl" points="256.6,183.6 256.6,217.7 274.0,217.7 274.0,183.6 256.6,183.6"/>
  <polygon class="pl" points="278.3,174.5 278.3,210.5 295.7,210.5 295.7,174.5 278.3,174.5"/>
  <polygon class="pl" points="300.1,185.2 300.1,223.4 317.5,223.4 317.5,185.2 300.1,185.2"/>
  <polygon class="pl" points="321.9,199.4 321.9,237.4 339.3,237.4 339.3,199.4 321.9,199.4"/>
  <polygon class="pl" points="343.6,223.3 343.6,254.7 361.0,254.7 361.0,223.3 343.6,223.3"/>
  <polygon class="pl" points="365.4,195.3 365.4,230.1 382.8,230.1 382.8,195.3 365.4,195.3"/>
  <polygon class="pl" points="387.1,195.6 387.1,228.0 404.5,228.0 404.5,195.6 387.1,195.6"/>
  <polygon class="pl" points="408.9,204.1 408.9,235.9 426.3,235.9 426.3,204.1 408.9,204.1"/>
  <polygon class="pl" points="430.7,194.5 430.7,228.9 448.1,228.9 448.1,194.5 430.7,194.5"/>
  <polygon class="pl" points="452.4,192.6 452.4,228.9 469.8,228.9 469.8,192.6 452.4,192.6"/>
  <polygon class="pl" points="474.2,199.4 474.2,232.3 491.6,232.3 491.6,199.4 474.2,199.4"/>
  <polygon class="pl" points="495.9,197.4 495.9,232.8 513.3,232.8 513.3,197.4 495.9,197.4"/>
  <polygon class="pl" points="517.7,192.5 517.7,229.3 535.1,229.3 535.1,192.5 517.7,192.5"/>
  <polygon class="pl" points="539.5,207.0 539.5,242.9 556.9,242.9 556.9,207.0 539.5,207.0"/>
  <polygon class="pl" points="561.2,228.0 561.2,257.2 578.6,257.2 578.6,228.0 561.2,228.0"/>
  <polygon class="pl" points="583.0,221.5 583.0,252.6 600.4,252.6 600.4,221.5 583.0,221.5"/>
  <polygon class="pl" points="604.7,227.7 604.7,259.2 622.1,259.2 622.1,227.7 604.7,227.7"/>
  <polygon class="pl" points="626.5,238.2 626.5,268.7 643.9,268.7 643.9,238.2 626.5,238.2"/>
  <polygon class="pl" points="648.3,250.4 648.3,280.7 665.7,280.7 665.7,250.4 648.3,250.4"/>
  <polygon class="pl" points="670.0,256.9 670.0,288.6 687.4,288.6 687.4,256.9 670.0,256.9"/>
  <polygon class="pl" points="691.8,255.3 691.8,285.7 709.2,285.7 709.2,255.3 691.8,255.3"/>
  <polygon class="pl" points="713.5,251.0 713.5,281.2 730.9,281.2 730.9,251.0 713.5,251.0"/>
  <polygon class="pl" points="735.3,247.9 735.3,278.3 752.7,278.3 752.7,247.9 735.3,247.9"/>
  <polygon class="pl" points="757.1,251.5 757.1,283.3 774.5,283.3 774.5,251.5 757.1,251.5"/>
  <polygon class="pl" points="778.8,265.7 778.8,295.6 796.2,295.6 796.2,265.7 778.8,265.7"/>
  <polygon class="pl" points="800.6,290.5 800.6,318.7 818.0,318.7 818.0,290.5 800.6,290.5"/>
  <polygon class="pl" points="822.3,277.3 822.3,308.9 839.7,308.9 839.7,277.3 822.3,277.3"/>
  <polygon class="pl" points="844.1,281.5 844.1,310.4 861.5,310.4 861.5,281.5 844.1,281.5"/>
  <polygon class="pl" points="865.9,312.7 865.9,335.7 883.3,335.7 883.3,312.7 865.9,312.7"/>
  <polygon class="pl" points="887.6,329.0 887.6,348.0 905.0,348.0 905.0,329.0 887.6,329.0"/>
</g>
<g stroke="#000" stroke-width="0.90" fill="#FF7F61"  clip-path="url(#axis_clip)">
  <polygon class="pl" points="147.8,141.5 147.8,533.9 165.2,533.9 165.2,141.5 147.8,141.5"/>
  <polygon class="pl" points="169.5,172.1 169.5,533.9 186.9,533.9 186.9,172.1 169.5,172.1"/>
  <polygon class="pl" points="191.3,181.6 191.3,533.9 208.7,533.9 208.7,181.6 191.3,181.6"/>
  <polygon class="pl" points="213.1,193.8 213.1,533.9 230.5,533.9 230.5,193.8 213.1,193.8"/>
  <polygon class="pl" points="234.8,216.6 234.8,533.9 252.2,533.9 252.2,216.6 234.8,216.6"/>
  <polygon class="pl" points="256.6,217.7 256.6,533.9 274.0,533.9 274.0,217.7 256.6,217.7"/>
  <polygon class="pl" points="278.3,210.5 278.3,533.9 295.7,533.9 295.7,210.5 278.3,210.5"/>
  <polygon class="pl" points="300.1,223.4 300.1,533.9 317.5,533.9 317.5,223.4 300.1,223.4"/>
  <polygon class="pl" points="321.9,237.4 321.9,533.9 339.3,533.9 339.3,237.4 321.9,237.4"/>
  <polygon class="pl" points="343.6,254.7 343.6,533.9 361.0,533.9 361.0,254.7 343.6,254.7"/>
  <polygon class="pl" points="365.4,230.1 365.4,533.9 382.8,533.9 382.8,230.1 365.4,230.1"/>
  <polygon class="pl" points="387.1,228.0 387.1,533.9 404.5,533.9 404.5,228.0 387.1,228.0"/>
  <polygon class="pl" points="408.9,235.9 408.9,533.9 426.3,533.9 426.3,235.9 408.9,235.9"/>
  <polygon class="pl" points="430.7,228.9 430.7,533.9 448.1,533.9 448.1,228.9 430.7,228.9"/>
  <polygon class="pl" points="452.4,228.9 452.4,533.9 469.8,533.9 469.8,228.9 452.4,228.9"/>
  <polygon class="pl" points="474.2,232.3 474.2,533.9 491.6,533.9 491.6,232.3 474.2,232.3"/>
  <polygon class="pl" points="495.9,232.8 495.9,533.9 513.3,533.9 513.3,232.8 495.9,232.8"/>
  <polygon class="pl" points="517.7,229.3 517.7,533.9 535.1,533.9 535.1,229.3 517.7,229.3"/>
  <polygon class="pl" points="539.5,242.9 539.5,533.9 556.9,533.9 556.9,242.9 539.5,242.9"/>
  <polygon class="pl" points="561.2,257.2 561.2,533.9 578.6,533.9 578.6,257.2 561.2,257.2"/>
  <polygon class="pl" points="583.0,252.6 583.0,533.9 600.4,533.9 600.4,252.6 583.0,252.6"/>
  <polygon class="pl" points="604.7,259.2 604.7,533.9 622.1,533.9 622.1,259.2 604.7,259.2"/>
  <polygon class="pl" points="626.5,268.7 626.5,533.9 643.9,533.9 643.9,268.7 626.5,268.7"/>
  <polygon class="pl" points="648.3,280.7 648.3,533.9 665.7,533.9 665.7,280.7 648.3,280.7"/>
  <polygon class="pl" points="670.0,288.6 670.0,533.9 687.4,533.9 687.4,288.6 670.0,288.6"/>
  <polygon class="pl" points="691.8,285.7 691.8,533.9 709.2,533.9 709.2,285.7 691.8,285.7"/>
  <polygon class="pl" points="713.5,281.2 713.5,533.9 730.9,533.9 730.9,281.2 713.5,281.2"/>
  <polygon class="pl" points="735.3,278.3 735.3,533.9 752.7,533.9 752.7,278.3 735.3,278.3"/>
  <polygon class="pl" points="757.1,283.3 757.1,533.9 774.5,533.9 774.5,283.3 757.1,283.3"/>
  <polygon class="pl" points="778.8,295.6 778.8,533.9 796.2,533.9 796.2,295.6 778.8,295.6"/>
  <polygon class="pl" points="800.6,318.7 800.6,533.9 818.0,533.9 818.0,318.7 800.6,318.7"/>
  <polygon class="pl" points="822.3,308.9 822.3,533.9 839.7,533.9 839.7,308.9 822.3,308.9"/>
  <polygon class="pl" points="844.1,310.4 844.1,533.9 861.5,533.9 861.5,310.4 844.1,310.4"/>
  <polygon class="pl" points="865.9,335.7 865.9,533.9 883.3,533.9 883.3,335.7 865.9,335.7"/>
  <polygon class="pl" points="887.6,348.0 887.6,533.9 905.0,533.9 905.0,348.0 887.6,348.0"/>
</g>
<g stroke="#000" stroke-width="0.90" fill="#7FBF7F"  clip-path="url(#axis_clip)">
  <polygon class="pl" points="147.8,564.1 147.8,533.9 165.2,533.9 165.2,564.1 147.8,564.1"/>
  <polygon class="pl" points="169.5,568.8 169.5,533.9 186.9,533.9 186.9,568.8 169.5,568.8"/>
  <polygon class="pl" points="191.3,569.8 191.3,533.9 208.7,533.9 208.7,569.8 191.3,569.8"/>
  <polygon class="pl" points="213.1,571.8 213.1,533.9 230.5,533.9 230.5,571.8 213.1,571.8"/>
  <polygon class="pl" points="234.8,568.3 234.8,533.9 252.2,533.9 252.2,568.3 234.8,568.3"/>
  <polygon class="pl" points="256.6,569.1 256.6,533.9 274.0,533.9 274.0,569.1 256.6,569.1"/>
  <polygon class="pl" points="278.3,568.7 278.3,533.9 295.7,533.9 295.7,568.7 278.3,568.7"/>
  <polygon class="pl" points="300.1,566.1 300.1,533.9 317.5,533.9 317.5,566.1 300.1,566.1"/>
  <polygon class="pl" points="321.9,565.2 321.9,533.9 339.3,533.9 339.3,565.2 321.9,565.2"/>
  <polygon class="pl" points="343.6,565.8 343.6,533.9 361.0,533.9 361.0,565.8 343.6,565.8"/>
  <polygon class="pl" points="365.4,568.2 365.4,533.9 382.8,533.9 382.8,568.2 365.4,568.2"/>
  <polygon class="pl" points="387.1,568.4 387.1,533.9 404.5,533.9 404.5,568.4 387.1,568.4"/>
  <polygon class="pl" points="408.9,568.0 408.9,533.9 426.3,533.9 426.3,568.0 408.9,568.0"/>
  <polygon class="pl" points="430.7,566.8 430.7,533.9 448.1,533.9 448.1,566.8 430.7,566.8"/>
  <polygon class="pl" points="452.4,566.0 452.4,533.9 469.8,533.9 469.8,566.0 452.4,566.0"/>
  <polygon class="pl" points="474.2,566.5 474.2,533.9 491.6,533.9 491.6,566.5 474.2,566.5"/>
  <polygon class="pl" points="495.9,563.6 495.9,533.9 513.3,533.9 513.3,563.6 495.9,563.6"/>
  <polygon class="pl" points="517.7,562.6 517.7,533.9 535.1,533.9 535.1,562.6 517.7,562.6"/>
  <polygon class="pl" points="539.5,566.1 539.5,533.9 556.9,533.9 556.9,566.1 539.5,566.1"/>
  <polygon class="pl" points="561.2,565.5 561.2,533.9 578.6,533.9 578.6,565.5 561.2,565.5"/>
  <polygon class="pl" points="583.0,563.7 583.0,533.9 600.4,533.9 600.4,563.7 583.0,563.7"/>
  <polygon class="pl" points="604.7,565.7 604.7,533.9 622.1,533.9 622.1,565.7 604.7,565.7"/>
  <polygon class="pl" points="626.5,566.7 626.5,533.9 643.9,533.9 643.9,566.7 626.5,566.7"/>
  <polygon class="pl" points="648.3,565.0 648.3,533.9 665.7,533.9 665.7,565.0 648.3,565.0"/>
  <polygon class="pl" points="670.0,565.2 670.0,533.9 687.4,533.9 687.4,565.2 670.0,565.2"/>
  <polygon class="pl" points="691.8,565.2 691.8,533.9 709.2,533.9 709.2,565.2 691.8,565.2"/>
  <polygon class="pl" points="713.5,561.6 713.5,533.9 730.9,533.9 730.9,561.6 713.5,561.6"/>
  <polygon class="pl" points="735.3,557.2 735.3,533.9 752.7,533.9 752.7,557.2 735.3,557.2"/>
  <polygon class="pl" points="757.1,542.2 757.1,533.9 774.5,533.9 774.5,542.2 757.1,542.2"/>
  <polygon class="pl" points="844.1,534.2 844.1,533.9 861.5,533.9 861.5,534.2 844.1,534.2"/>
  <polygon class="pl" points="865.9,549.8 865.9,533.9 883.3,533.9 883.3,549.8 865.9,549.8"/>
  <polygon class="pl" points="887.6,552.1 887.6,533.9 905.0,533.9 905.0,552.1 887.6,552.1"/>
</g>
<polyline class="pl" points="156.5,125.9 178.2,171.6 200.0,181.2 221.8,198.0 243.5,214.4 265.3,218.1 287.0,208.6 308.8,216.9 330.6,229.9 352.3,254.7 374.1,228.9 395.8,229.2 417.6,237.3 439.4,226.5 461.1,223.8 482.9,231.2 504.6,226.1 526.4,220.3 548.2,238.2 569.9,258.9 591.7,250.5 613.4,258.5 635.2,269.9 657.0,280.4 678.7,287.2 700.5,285.2 722.2,277.3 744.0,269.9 765.8,258.7 787.5,254.3 809.3,270.7 831.0,267.0 852.8,280.7 874.6,327.7 896.3,346.2" stroke="#000" stroke-width="5.40" stroke-opacity="1.00" fill="none" clip-path="url(#axis_clip)"/>
<g class="pl" fill="#FFF" stroke="#000" stroke-width="0.900">
  <circle cx="178.2" cy="171.6" r="2.2" />
  <circle cx="200.0" cy="181.2" r="2.2" />
  <circle cx="221.8" cy="198.0" r="2.2" />
  <circle cx="243.5" cy="214.4" r="2.2" />
  <circle cx="265.3" cy="218.1" r="2.2" />
  <circle cx="287.0" cy="208.6" r="2.2" />
  <circle cx="308.8" cy="216.9" r="2.2" />
  <circle cx="330.6" cy="229.9" r="2.2" />
  <circle cx="352.3" cy="254.7" r="2.2" />
  <circle cx="395.8" cy="229.2" r="2.2" />
  <circle cx="417.6" cy="237.3" r="2.2" />
  <circle cx="439.4" cy="226.5" r="2.2" />
  <circle cx="461.1" cy="223.8" r="2.2" />
  <circle cx="482.9" cy="231.2" r="2.2" />
  <circle cx="504.6" cy="226.1" r="2.2" />
  <circle cx="526.4" cy="220.3" r="2.2" />
  <circle cx="548.2" cy="238.2" r="2.2" />
  <circle cx="569.9" cy="258.9" r="2.2" />
  <circle cx="613.4" cy="258.5" r="2.2" />
  <circle cx="635.2" cy="269.9" r="2.2" />
  <circle cx="657.0" cy="280.4" r="2.2" />
  <circle cx="678.7" cy="287.2" r="2.2" />
  <circle cx="700.5" cy="285.2" r="2.2" />
  <circle cx="722.2" cy="277.3" r="2.2" />
  <circle cx="744.0" cy="269.9" r="2.2" />
  <circle cx="765.8" cy="258.7" r="2.2" />
  <circle cx="787.5" cy="254.3" r="2.2" />
  <circle cx="831.0" cy="267.0" r="2.2" />
  <circle cx="852.8" cy="280.7" r="2.2" />
  <circle cx="874.6" cy="327.7" r="2.2" />
  <circle cx="896.3" cy="346.2" r="2.2" />
</g>
<g class="pl" fill="#FFF" stroke="#000" stroke-width="0.900">
  <circle cx="156.5" cy="125.9" r="5.4" />
  <circle cx="374.1" cy="228.9" r="5.4" />
  <circle cx="591.7" cy="250.5" r="5.4" />
  <circle cx="809.3" cy="270.7" r="5.4" />
</g>
<text transform="translate(145.6,47.2)" dy="0.0" font-size="27.00" fill="#808080" stroke="none">Annual CO<tspan dy="0.2em"><tspan style="font-size:70%">2</tspan></tspan><tspan dy="-0.2em"> </tspan>Emissions: Czechia</text>
<text transform="translate(130.0,135.0)" dy="8.1" font-size="27.00" fill="#808080" stroke="none" text-anchor="end">CO<tspan dy="0.2em"><tspan style="font-size:70%">2</tspan></tspan><tspan dy="-0.2em"></tspan></text>
<text transform="translate(945.6,382.0)" dy="7.6" font-size="25.20" fill="#000" stroke="none">-54.0% since 1990</text>
<text transform="translate(945.6,441.0)" dy="7.6" font-size="25.20" fill="#FF7F61" stroke="none">Energy</text>
<text transform="translate(945.6,357.5)" dy="7.6" font-size="25.20" fill="#4A89E8" stroke="none">Industrial Processes</text>
<text transform="translate(945.6,333.0)" dy="7.6" font-size="25.20" fill="#845F48" stroke="none">Agriculture</text>
<text transform="translate(945.6,308.5)" dy="7.6" font-size="25.20" fill="#DBA746" stroke="none">Waste</text>
<text transform="translate(945.6,284.0)" dy="7.6" font-size="25.20" fill="#7FBF7F" stroke="none">LULUCF</text>
<text transform="translate(945.6,543.0)" dy="7.6" font-size="25.20" fill="#7FBF7F" stroke="none">LULUCF</text>
<polyline class="pl" points="910.8,346.2 912.4,346.3 913.8,346.7 915.2,347.3 916.4,348.1 917.6,349.0 918.8,350.2 919.8,351.5 920.8,352.9 921.7,354.4 922.7,356.0 923.5,357.7 924.4,359.5 925.2,361.3 926.0,363.2 926.8,365.0 927.6,366.9 928.4,368.7 929.3,370.4 930.1,372.1 931.1,373.8 932.0,375.3 933.0,376.7 934.0,378.0 935.2,379.1 936.4,380.1 937.6,380.9 939.0,381.5 940.4,381.8 942.0,382.0" stroke="#000" stroke-width="0.90" stroke-opacity="1.00" fill="none" />
<polyline class="pl" points="910.8,338.5 912.4,338.6 913.8,338.8 915.2,339.1 916.4,339.5 917.6,340.0 918.8,340.6 919.8,341.3 920.8,342.1 921.7,342.9 922.7,343.7 923.5,344.6 924.4,345.6 925.2,346.5 926.0,347.5 926.8,348.5 927.6,349.5 928.4,350.4 929.3,351.4 930.1,352.3 931.1,353.1 932.0,353.9 933.0,354.7 934.0,355.4 935.2,356.0 936.4,356.5 937.6,356.9 939.0,357.2 940.4,357.4 942.0,357.5" stroke="#4A89E8" stroke-width="0.90" stroke-opacity="1.00" fill="none" />
<polyline class="pl" points="910.8,328.6 912.4,328.6 913.8,328.7 915.2,328.7 916.4,328.8 917.6,328.9 918.8,329.1 919.8,329.2 920.8,329.4 921.7,329.6 922.7,329.8 923.5,330.0 924.4,330.2 925.2,330.4 926.0,330.7 926.8,330.9 927.6,331.1 928.4,331.3 929.3,331.6 930.1,331.8 931.1,332.0 932.0,332.2 933.0,332.3 934.0,332.5 935.2,332.6 936.4,332.7 937.6,332.8 939.0,332.9 940.4,332.9 942.0,333.0" stroke="#845F48" stroke-width="0.90" stroke-opacity="1.00" fill="none" />
<polyline class="pl" points="910.8,328.1 912.4,328.0 913.8,327.8 915.2,327.5 916.4,327.1 917.6,326.5 918.8,325.9 919.8,325.2 920.8,324.4 921.7,323.6 922.7,322.7 923.5,321.8 924.4,320.8 925.2,319.8 926.0,318.8 926.8,317.8 927.6,316.8 928.4,315.8 929.3,314.8 930.1,313.9 931.1,313.0 932.0,312.1 933.0,311.3 934.0,310.6 935.2,310.0 936.4,309.5 937.6,309.1 939.0,308.7 940.4,308.5 942.0,308.5" stroke="#DBA746" stroke-width="0.90" stroke-opacity="1.00" fill="none" />
<polyline class="pl" points="910.8,323.4 912.4,323.2 913.8,322.8 915.2,322.2 916.4,321.3 917.6,320.3 918.8,319.0 919.8,317.6 920.8,316.0 921.7,314.4 922.7,312.6 923.5,310.7 924.4,308.7 925.2,306.7 926.0,304.7 926.8,302.7 927.6,300.6 928.4,298.6 929.3,296.7 930.1,294.8 931.1,293.0 932.0,291.3 933.0,289.7 934.0,288.3 935.2,287.1 936.4,286.0 937.6,285.1 939.0,284.5 940.4,284.1 942.0,284.0" stroke="#7FBF7F" stroke-width="0.90" stroke-opacity="1.00" fill="none" />
<text transform="translate(160.0,666.1)" font-size="19.80" font-family="Helvetica" fill="#BFBFBF" stroke="none" xml:space="preserve">CICERO   &#9679;   Data: EIONET (2026)</text>
<g>
  <rect x="123.0" y="651.4" width="34" height="17" fill="#FFF" stroke="none" opacity="0.01"/>
  <g transform="translate(124.0,652.4) scale(0.24)">
  <g><circle fill="#FFF" cx="37.79" cy="28.5" r="28.84"/>
     <circle fill="none" cx="37.79" cy="28.5" r="28.84" stroke="#BFBFBF" stroke-width="5.5"/>
     <path fill="#BFBFBF" d="M37.16,23.19 l-4.29,2.23c-0.458-0.951-1.02-1.62-1.69-2c-0.667-0.38-1.29-0.571-1.86-0.571c-2.86,0-4.29,1.89-4.29,5.66 c0,1.71,0.36,3.08,1.09,4.11c0.724,1.03,1.79,1.54,3.2,1.54c1.87,0,3.18-0.915,3.94-2.74l3.94,2 c-0.838,1.56-2,2.79-3.49,3.69c-1.48,0.896-3.12,1.34-4.91,1.34c-2.86,0-5.16-0.875-6.92-2.63 c-1.75-1.75-2.63-4.19-2.63-7.31c0-3.05,0.886-5.47,2.66-7.26c1.77-1.79,4.01-2.69,6.72-2.69 C32.6,18.56,35.44,20.1,37.16,23.19z
              M55.61,23.19l-4.23,2.23c-0.457-0.951-1.02-1.62-1.69-2 c-0.668-0.38-1.31-0.571-1.91-0.571c-2.86,0-4.29,1.89-4.29,5.66c0,1.71,0.363,3.08,1.09,4.11 c0.723,1.03,1.79,1.54,3.2,1.54c1.87,0,3.18-0.915,3.94-2.74l4,2c-0.875,1.56-2.06,2.79-3.54,3.69 c-1.49,0.9-3.11,1.34-4.86,1.34c-2.9,0-5.21-0.875-6.94-2.63c-1.74-1.75-2.6-4.19-2.6-7.31 c0-3.05,0.885-5.47,2.66-7.26c1.77-1.79,4.01-2.69,6.71-2.69C51.12,18.56,53.944,20.1,55.61,23.19z"/>
  </g></g>
  <g transform="translate(140.2,652.4) scale(0.24)">
  <g><circle fill="#FFF" cx="37.79" cy="28.5" r="28.84"/>
     <circle fill="none" cx="37.79" cy="28.5" r="28.84" stroke="#BFBFBF" stroke-width="5.5"/>
     <path fill="#BFBFBF" d="M46.129,20.557v13.085h-3.656v15.542h-9.944V33.643h-3.656V20.557 c0-0.572,0.2-1.057,0.599-1.457c0.401-0.399,0.887-0.6,1.457-0.6h13.144c0.533,0,1.01,0.2,1.428,0.6 C45.918,19.5,46.129,19.986,46.129,20.557z
              M33.042,12.329c0-3.008,1.485-4.514,4.458-4.514s4.457,1.504,4.457,4.514 c0,2.971-1.486,4.457-4.457,4.457S33.042,15.3,33.042,12.329z"/>
  </g></g>
</g>
</g>
</svg>
