<svg version="1.1" xmlns="http://www.w3.org/2000/svg" xmlns:xlink="http://www.w3.org/1999/xlink" width="100%" height="100%" viewBox="0 0 1200.000 674.916">
<title>Annual LULUCF emissions: Czechia</title>
<style type="text/css">
  #main {font-family:Helvetica,Arial,sans-serif; font-size:27.00px;
         fill-opacity:1; fill:#000000; stroke:none; stroke-linejoin:round; stroke-linecap:round; stroke-width:1.00;}
  .marker {stroke-opacity:0;fill-opacity:0;}
  .marker:hover {stroke-opacity:0.5; fill-opacity:1;}
  .ticklabel {font-size:27.00px;fill:#808080;stroke:none;font-family:Helvetica}
  .ytl {text-anchor:end;}
  .dp1 {pointer-events:none;font-size:70%;text-anchor:middle;fill:#000000;}
  .dp2 {pointer-events:none;font-size:70%;text-anchor:middle;fill:#FFFFFF;}
  .numtip {pointer-events:none;}
  .cc {opacity:0.25;}
.dl_fe {background-color:#FDFFDF;display:flex;margin:auto;align-items:center}
.dl_fe_p {font-size:20px;text-align:center;margin:3px}
.dl_el {display:none;pointer-events:none;}
.cc:hover + .dl_el {display:block;}
text:hover + .dl_el {display:block;}
</style>
<defs>
  <clipPath id="axis_clip"><rect x="145.8" y="54.2" width="761.2" height="532.8" /></clipPath>
  <path id="line_x" d="M 145.600,0 h 761.600" stroke="#262626" stroke-opacity="0.15" stroke-width="1.00"/>
  <path id="tick_y" d="M 145.600,0 h -6.000" stroke="#808080" stroke-width="0.90"/>
  <path id="tick_x" d="M 0,587.177 v 6.000" stroke="#808080" stroke-width="0.90"/>
</defs>
<g id="main">
<use xlink:href="#line_x" transform="translate(0,587.2)"/>
<use xlink:href="#line_x" transform="translate(0,498.3)"/>
<use xlink:href="#line_x" transform="translate(0,409.4)"/>
<use xlink:href="#line_x" transform="translate(0,320.6)"/>
<use xlink:href="#line_x" transform="translate(0,231.7)"/>
<use xlink:href="#line_x" transform="translate(0,142.9)"/>
<use xlink:href="#line_x" transform="translate(0,54.0)"/>
<use xlink:href="#tick_y" transform="translate(0,587.2)"/>
<use xlink:href="#tick_y" transform="translate(0,498.3)"/>
<use xlink:href="#tick_y" transform="translate(0,409.4)"/>
<use xlink:href="#tick_y" transform="translate(0,320.6)"/>
<use xlink:href="#tick_y" transform="translate(0,231.7)"/>
<use xlink:href="#tick_y" transform="translate(0,142.9)"/>
<use xlink:href="#tick_y" transform="translate(0,54.0)"/>
<use xlink:href="#tick_x" transform="translate(156.5,0)"/>
<use xlink:href="#tick_x" transform="translate(265.3,0)"/>
<use xlink:href="#tick_x" transform="translate(374.1,0)"/>
<use xlink:href="#tick_x" transform="translate(482.9,0)"/>
<use xlink:href="#tick_x" transform="translate(591.7,0)"/>
<use xlink:href="#tick_x" transform="translate(700.5,0)"/>
<use xlink:href="#tick_x" transform="translate(809.3,0)"/>
<use xlink:href="#tick_x" transform="translate(896.3,0)"/>
<polyline points="145.6,53.993 145.6,587.177 907.2,587.177" stroke="#808080" stroke-width="0.90" fill="none"/>
<text class="ticklabel xtl" transform="translate(156.5,629.0)" text-anchor="middle">1990</text>
<text class="ticklabel xtl" transform="translate(265.3,629.0)" text-anchor="middle">1995</text>
<text class="ticklabel xtl" transform="translate(374.1,629.0)" text-anchor="middle">2000</text>
<text class="ticklabel xtl" transform="translate(482.9,629.0)" text-anchor="middle">2005</text>
<text class="ticklabel xtl" transform="translate(591.7,629.0)" text-anchor="middle">2010</text>
<text class="ticklabel xtl" transform="translate(700.5,629.0)" text-anchor="middle">2015</text>
<text class="ticklabel xtl" transform="translate(809.3,629.0)" text-anchor="middle">2020</text>
<text class="ticklabel xtl" transform="translate(896.3,629.0)" text-anchor="middle">2024</text>
<text class="ticklabel ytl" transform="translate(128.8,595.3)">-15</text>
<text class="ticklabel ytl" transform="translate(128.8,506.4)">-10</text>
<text class="ticklabel ytl" transform="translate(128.8,417.5)">-5</text>
<text class="ticklabel ytl" transform="translate(128.8,328.7)">0</text>
<text class="ticklabel ytl" transform="translate(128.8,239.8)">5</text>
<text class="ticklabel ytl" transform="translate(128.8,151.0)">10</text>
<text class="ticklabel ytl" transform="translate(128.8,62.1)">15 Mt</text>
<g stroke="#000" stroke-width="0.90" fill="#1A4D1A"  clip-path="url(#axis_clip)">
</g>
<g stroke="#000" stroke-width="0.90" fill="#8B1E40"  clip-path="url(#axis_clip)">
  <polygon class="pl" points="191.3,296.7 191.3,310.4 208.7,310.4 208.7,296.7 191.3,296.7"/>
</g>
<g stroke="#000" stroke-width="0.90" fill="#7B417F"  clip-path="url(#axis_clip)">
</g>
<g stroke="#000" stroke-width="0.90" fill="#808080"  clip-path="url(#axis_clip)">
  <polygon class="pl" points="147.8,306.7 147.8,315.5 165.2,315.5 165.2,306.7 147.8,306.7"/>
  <polygon class="pl" points="169.5,310.4 169.5,315.8 186.9,315.8 186.9,310.4 169.5,310.4"/>
  <polygon class="pl" points="191.3,310.4 191.3,315.8 208.7,315.8 208.7,310.4 191.3,310.4"/>
  <polygon class="pl" points="213.1,305.2 213.1,314.5 230.5,314.5 230.5,305.2 213.1,305.2"/>
  <polygon class="pl" points="234.8,308.1 234.8,315.6 252.2,315.6 252.2,308.1 234.8,308.1"/>
  <polygon class="pl" points="256.6,309.8 256.6,315.9 274.0,315.9 274.0,309.8 256.6,309.8"/>
  <polygon class="pl" points="278.3,308.8 278.3,315.9 295.7,315.9 295.7,308.8 278.3,308.8"/>
  <polygon class="pl" points="300.1,309.2 300.1,316.2 317.5,316.2 317.5,309.2 300.1,309.2"/>
  <polygon class="pl" points="321.9,303.8 321.9,313.0 339.3,313.0 339.3,303.8 321.9,303.8"/>
  <polygon class="pl" points="343.6,305.6 343.6,315.3 361.0,315.3 361.0,305.6 343.6,305.6"/>
  <polygon class="pl" points="365.4,309.0 365.4,315.9 382.8,315.9 382.8,309.0 365.4,309.0"/>
  <polygon class="pl" points="387.1,310.9 387.1,317.0 404.5,317.0 404.5,310.9 387.1,310.9"/>
  <polygon class="pl" points="408.9,310.0 408.9,317.1 426.3,317.1 426.3,310.0 408.9,310.0"/>
  <polygon class="pl" points="430.7,308.2 430.7,316.8 448.1,316.8 448.1,308.2 430.7,308.2"/>
  <polygon class="pl" points="452.4,307.5 452.4,316.6 469.8,316.6 469.8,307.5 452.4,307.5"/>
  <polygon class="pl" points="474.2,308.9 474.2,316.9 491.6,316.9 491.6,308.9 474.2,308.9"/>
  <polygon class="pl" points="495.9,310.7 495.9,317.1 513.3,317.1 513.3,310.7 495.9,310.7"/>
  <polygon class="pl" points="517.7,311.5 517.7,317.5 535.1,317.5 535.1,311.5 517.7,311.5"/>
  <polygon class="pl" points="539.5,310.6 539.5,316.5 556.9,316.5 556.9,310.6 539.5,310.6"/>
  <polygon class="pl" points="561.2,310.7 561.2,316.9 578.6,316.9 578.6,310.7 561.2,310.7"/>
  <polygon class="pl" points="583.0,309.1 583.0,315.9 600.4,315.9 600.4,309.1 583.0,309.1"/>
  <polygon class="pl" points="604.7,307.3 604.7,313.6 622.1,313.6 622.1,307.3 604.7,307.3"/>
  <polygon class="pl" points="626.5,310.9 626.5,316.6 643.9,316.6 643.9,310.9 626.5,310.9"/>
  <polygon class="pl" points="648.3,309.6 648.3,316.2 665.7,316.2 665.7,309.6 648.3,309.6"/>
  <polygon class="pl" points="670.0,309.8 670.0,316.6 687.4,316.6 687.4,309.8 670.0,309.8"/>
  <polygon class="pl" points="691.8,311.8 691.8,316.8 709.2,316.8 709.2,311.8 691.8,311.8"/>
  <polygon class="pl" points="713.5,310.6 713.5,316.7 730.9,316.7 730.9,310.6 713.5,310.6"/>
  <polygon class="pl" points="735.3,309.6 735.3,317.3 752.7,317.3 752.7,309.6 735.3,309.6"/>
  <polygon class="pl" points="757.1,314.7 757.1,318.9 774.5,318.9 774.5,314.7 757.1,314.7"/>
  <polygon class="pl" points="778.8,208.0 778.8,212.8 796.2,212.8 796.2,208.0 778.8,208.0"/>
  <polygon class="pl" points="800.6,133.9 800.6,139.0 818.0,139.0 818.0,133.9 800.6,133.9"/>
  <polygon class="pl" points="822.3,203.2 822.3,209.0 839.7,209.0 839.7,203.2 822.3,203.2"/>
  <polygon class="pl" points="844.1,272.9 844.1,277.7 861.5,277.7 861.5,272.9 844.1,272.9"/>
  <polygon class="pl" points="865.9,314.1 865.9,318.8 883.3,318.8 883.3,314.1 865.9,314.1"/>
  <polygon class="pl" points="887.6,313.7 887.6,318.6 905.0,318.6 905.0,313.7 887.6,313.7"/>
</g>
<g stroke="#000" stroke-width="0.90" fill="#EDB120"  clip-path="url(#axis_clip)">
  <polygon class="pl" points="169.5,315.8 169.5,315.8 186.9,315.8 186.9,315.8 169.5,315.8"/>
  <polygon class="pl" points="343.6,315.3 343.6,315.5 361.0,315.5 361.0,315.3 343.6,315.3"/>
  <polygon class="pl" points="365.4,315.9 365.4,316.2 382.8,316.2 382.8,315.9 365.4,315.9"/>
  <polygon class="pl" points="408.9,317.1 408.9,317.4 426.3,317.4 426.3,317.1 408.9,317.1"/>
  <polygon class="pl" points="430.7,316.8 430.7,316.8 448.1,316.8 448.1,316.8 430.7,316.8"/>
  <polygon class="pl" points="539.5,316.5 539.5,316.5 556.9,316.5 556.9,316.5 539.5,316.5"/>
  <polygon class="pl" points="583.0,315.9 583.0,316.4 600.4,316.4 600.4,315.9 583.0,315.9"/>
  <polygon class="pl" points="604.7,313.6 604.7,314.3 622.1,314.3 622.1,313.6 604.7,313.6"/>
  <polygon class="pl" points="626.5,316.6 626.5,316.8 643.9,316.8 643.9,316.6 626.5,316.6"/>
  <polygon class="pl" points="648.3,316.2 648.3,316.6 665.7,316.6 665.7,316.2 648.3,316.2"/>
  <polygon class="pl" points="670.0,316.6 670.0,316.8 687.4,316.8 687.4,316.6 670.0,316.6"/>
  <polygon class="pl" points="691.8,316.8 691.8,317.0 709.2,317.0 709.2,316.8 691.8,316.8"/>
  <polygon class="pl" points="713.5,316.7 713.5,316.9 730.9,316.9 730.9,316.7 713.5,316.7"/>
  <polygon class="pl" points="735.3,317.3 735.3,317.4 752.7,317.4 752.7,317.3 735.3,317.3"/>
  <polygon class="pl" points="778.8,212.8 778.8,212.9 796.2,212.9 796.2,212.8 778.8,212.8"/>
  <polygon class="pl" points="800.6,139.0 800.6,139.5 818.0,139.5 818.0,139.0 800.6,139.0"/>
  <polygon class="pl" points="822.3,209.0 822.3,209.1 839.7,209.1 839.7,209.0 822.3,209.0"/>
  <polygon class="pl" points="844.1,277.7 844.1,278.6 861.5,278.6 861.5,277.7 844.1,277.7"/>
  <polygon class="pl" points="887.6,318.6 887.6,318.8 905.0,318.8 905.0,318.6 887.6,318.6"/>
</g>
<g stroke="#000" stroke-width="0.90" fill="#5AA3D0"  clip-path="url(#axis_clip)">
  <polygon class="pl" points="147.8,315.5 147.8,320.6 165.2,320.6 165.2,315.5 147.8,315.5"/>
  <polygon class="pl" points="169.5,315.8 169.5,320.6 186.9,320.6 186.9,315.8 169.5,315.8"/>
  <polygon class="pl" points="191.3,315.8 191.3,320.6 208.7,320.6 208.7,315.8 191.3,315.8"/>
  <polygon class="pl" points="213.1,314.5 213.1,320.6 230.5,320.6 230.5,314.5 213.1,314.5"/>
  <polygon class="pl" points="234.8,315.6 234.8,320.6 252.2,320.6 252.2,315.6 234.8,315.6"/>
  <polygon class="pl" points="256.6,315.9 256.6,320.6 274.0,320.6 274.0,315.9 256.6,315.9"/>
  <polygon class="pl" points="278.3,315.9 278.3,320.6 295.7,320.6 295.7,315.9 278.3,315.9"/>
  <polygon class="pl" points="300.1,316.2 300.1,320.6 317.5,320.6 317.5,316.2 300.1,316.2"/>
  <polygon class="pl" points="321.9,313.0 321.9,320.6 339.3,320.6 339.3,313.0 321.9,313.0"/>
  <polygon class="pl" points="343.6,315.5 343.6,320.6 361.0,320.6 361.0,315.5 343.6,315.5"/>
  <polygon class="pl" points="365.4,316.2 365.4,320.6 382.8,320.6 382.8,316.2 365.4,316.2"/>
  <polygon class="pl" points="387.1,317.0 387.1,320.6 404.5,320.6 404.5,317.0 387.1,317.0"/>
  <polygon class="pl" points="408.9,317.4 408.9,320.6 426.3,320.6 426.3,317.4 408.9,317.4"/>
  <polygon class="pl" points="430.7,316.8 430.7,320.6 448.1,320.6 448.1,316.8 430.7,316.8"/>
  <polygon class="pl" points="452.4,316.6 452.4,320.6 469.8,320.6 469.8,316.6 452.4,316.6"/>
  <polygon class="pl" points="474.2,316.9 474.2,320.6 491.6,320.6 491.6,316.9 474.2,316.9"/>
  <polygon class="pl" points="495.9,317.1 495.9,320.6 513.3,320.6 513.3,317.1 495.9,317.1"/>
  <polygon class="pl" points="517.7,317.5 517.7,320.6 535.1,320.6 535.1,317.5 517.7,317.5"/>
  <polygon class="pl" points="539.5,316.5 539.5,320.6 556.9,320.6 556.9,316.5 539.5,316.5"/>
  <polygon class="pl" points="561.2,316.9 561.2,320.6 578.6,320.6 578.6,316.9 561.2,316.9"/>
  <polygon class="pl" points="583.0,316.4 583.0,320.6 600.4,320.6 600.4,316.4 583.0,316.4"/>
  <polygon class="pl" points="604.7,314.3 604.7,320.6 622.1,320.6 622.1,314.3 604.7,314.3"/>
  <polygon class="pl" points="626.5,316.8 626.5,320.6 643.9,320.6 643.9,316.8 626.5,316.8"/>
  <polygon class="pl" points="648.3,316.6 648.3,320.6 665.7,320.6 665.7,316.6 648.3,316.6"/>
  <polygon class="pl" points="670.0,316.8 670.0,320.6 687.4,320.6 687.4,316.8 670.0,316.8"/>
  <polygon class="pl" points="691.8,317.0 691.8,320.6 709.2,320.6 709.2,317.0 691.8,317.0"/>
  <polygon class="pl" points="713.5,316.9 713.5,320.6 730.9,320.6 730.9,316.9 713.5,316.9"/>
  <polygon class="pl" points="735.3,317.4 735.3,320.6 752.7,320.6 752.7,317.4 735.3,317.4"/>
  <polygon class="pl" points="757.1,318.9 757.1,320.6 774.5,320.6 774.5,318.9 757.1,318.9"/>
  <polygon class="pl" points="778.8,212.9 778.8,214.6 796.2,214.6 796.2,212.9 778.8,212.9"/>
  <polygon class="pl" points="800.6,139.5 800.6,141.2 818.0,141.2 818.0,139.5 800.6,139.5"/>
  <polygon class="pl" points="822.3,209.1 822.3,210.9 839.7,210.9 839.7,209.1 822.3,209.1"/>
  <polygon class="pl" points="844.1,278.6 844.1,280.4 861.5,280.4 861.5,278.6 844.1,278.6"/>
  <polygon class="pl" points="865.9,318.8 865.9,320.6 883.3,320.6 883.3,318.8 865.9,318.8"/>
  <polygon class="pl" points="887.6,318.8 887.6,320.6 905.0,320.6 905.0,318.8 887.6,318.8"/>
</g>
<g stroke="#000" stroke-width="0.90" fill="#6AB561"  clip-path="url(#axis_clip)">
  <polygon class="pl" points="778.8,214.6 778.8,320.6 796.2,320.6 796.2,214.6 778.8,214.6"/>
  <polygon class="pl" points="800.6,141.2 800.6,320.6 818.0,320.6 818.0,141.2 800.6,141.2"/>
  <polygon class="pl" points="822.3,210.9 822.3,320.6 839.7,320.6 839.7,210.9 822.3,210.9"/>
  <polygon class="pl" points="844.1,280.4 844.1,320.6 861.5,320.6 861.5,280.4 844.1,280.4"/>
</g>
<g stroke="#000" stroke-width="0.90" fill="#1A4D1A"  clip-path="url(#axis_clip)">
</g>
<g stroke="#000" stroke-width="0.90" fill="#8B1E40"  clip-path="url(#axis_clip)">
  <polygon class="pl" points="147.8,534.0 147.8,504.2 165.2,504.2 165.2,534.0 147.8,534.0"/>
  <polygon class="pl" points="169.5,561.9 169.5,556.2 186.9,556.2 186.9,561.9 169.5,561.9"/>
  <polygon class="pl" points="213.1,587.2 213.1,582.3 230.5,582.3 230.5,587.2 213.1,587.2"/>
  <polygon class="pl" points="234.8,560.7 234.8,553.2 252.2,553.2 252.2,560.7 234.8,560.7"/>
  <polygon class="pl" points="256.6,565.1 256.6,550.4 274.0,550.4 274.0,565.1 256.6,565.1"/>
  <polygon class="pl" points="278.3,562.8 278.3,549.2 295.7,549.2 295.7,562.8 278.3,562.8"/>
  <polygon class="pl" points="300.1,545.1 300.1,530.3 317.5,530.3 317.5,545.1 300.1,545.1"/>
  <polygon class="pl" points="321.9,544.9 321.9,533.1 339.3,533.1 339.3,544.9 321.9,544.9"/>
  <polygon class="pl" points="343.6,547.3 343.6,533.2 361.0,533.2 361.0,547.3 343.6,547.3"/>
  <polygon class="pl" points="365.4,560.1 365.4,537.5 382.8,537.5 382.8,560.1 365.4,560.1"/>
  <polygon class="pl" points="387.1,559.3 387.1,538.0 404.5,538.0 404.5,559.3 387.1,559.3"/>
  <polygon class="pl" points="408.9,557.8 408.9,538.3 426.3,538.3 426.3,557.8 408.9,557.8"/>
  <polygon class="pl" points="430.7,551.5 430.7,525.1 448.1,525.1 448.1,551.5 430.7,551.5"/>
  <polygon class="pl" points="452.4,547.1 452.4,519.7 469.8,519.7 469.8,547.1 452.4,547.1"/>
  <polygon class="pl" points="474.2,548.7 474.2,523.2 491.6,523.2 491.6,548.7 474.2,548.7"/>
  <polygon class="pl" points="495.9,527.7 495.9,484.7 513.3,484.7 513.3,527.7 495.9,527.7"/>
  <polygon class="pl" points="517.7,520.5 517.7,468.5 535.1,468.5 535.1,520.5 517.7,520.5"/>
  <polygon class="pl" points="539.5,544.2 539.5,507.9 556.9,507.9 556.9,544.2 539.5,544.2"/>
  <polygon class="pl" points="561.2,540.7 561.2,522.2 578.6,522.2 578.6,540.7 561.2,540.7"/>
  <polygon class="pl" points="583.0,530.4 583.0,501.6 600.4,501.6 600.4,530.4 583.0,530.4"/>
  <polygon class="pl" points="604.7,545.5 604.7,528.3 622.1,528.3 622.1,545.5 604.7,545.5"/>
  <polygon class="pl" points="626.5,548.1 626.5,535.9 643.9,535.9 643.9,548.1 626.5,548.1"/>
  <polygon class="pl" points="648.3,538.7 648.3,536.6 665.7,536.6 665.7,538.7 648.3,538.7"/>
  <polygon class="pl" points="670.0,539.5 670.0,538.0 687.4,538.0 687.4,539.5 670.0,539.5"/>
  <polygon class="pl" points="691.8,537.7 691.8,529.2 709.2,529.2 709.2,537.7 691.8,537.7"/>
  <polygon class="pl" points="713.5,515.0 713.5,500.8 730.9,500.8 730.9,515.0 713.5,515.0"/>
  <polygon class="pl" points="735.3,486.6 735.3,468.0 752.7,468.0 752.7,486.6 735.3,486.6"/>
  <polygon class="pl" points="757.1,381.6 757.1,356.2 774.5,356.2 774.5,381.6 757.1,381.6"/>
  <polygon class="pl" points="778.8,364.8 778.8,332.3 796.2,332.3 796.2,364.8 778.8,364.8"/>
  <polygon class="pl" points="800.6,382.0 800.6,332.3 818.0,332.3 818.0,382.0 800.6,382.0"/>
  <polygon class="pl" points="822.3,376.0 822.3,333.5 839.7,333.5 839.7,376.0 822.3,376.0"/>
  <polygon class="pl" points="844.1,369.4 844.1,334.2 861.5,334.2 861.5,369.4 844.1,369.4"/>
  <polygon class="pl" points="865.9,432.5 865.9,410.4 883.3,410.4 883.3,432.5 865.9,432.5"/>
  <polygon class="pl" points="887.6,448.5 887.6,425.6 905.0,425.6 905.0,448.5 887.6,448.5"/>
</g>
<g stroke="#000" stroke-width="0.90" fill="#7B417F"  clip-path="url(#axis_clip)">
</g>
<g stroke="#000" stroke-width="0.90" fill="#EDB120"  clip-path="url(#axis_clip)">
  <polygon class="pl" points="147.8,504.2 147.8,503.9 165.2,503.9 165.2,504.2 147.8,504.2"/>
  <polygon class="pl" points="191.3,582.4 191.3,581.9 208.7,581.9 208.7,582.4 191.3,582.4"/>
  <polygon class="pl" points="213.1,582.3 213.1,581.8 230.5,581.8 230.5,582.3 213.1,582.3"/>
  <polygon class="pl" points="234.8,553.2 234.8,552.7 252.2,552.7 252.2,553.2 234.8,553.2"/>
  <polygon class="pl" points="256.6,550.4 256.6,549.9 274.0,549.9 274.0,550.4 256.6,550.4"/>
  <polygon class="pl" points="278.3,549.2 278.3,548.8 295.7,548.8 295.7,549.2 278.3,549.2"/>
  <polygon class="pl" points="300.1,530.3 300.1,530.0 317.5,530.0 317.5,530.3 300.1,530.3"/>
  <polygon class="pl" points="321.9,533.1 321.9,533.1 339.3,533.1 339.3,533.1 321.9,533.1"/>
  <polygon class="pl" points="387.1,538.0 387.1,537.7 404.5,537.7 404.5,538.0 387.1,538.0"/>
  <polygon class="pl" points="452.4,519.7 452.4,519.5 469.8,519.5 469.8,519.7 452.4,519.7"/>
  <polygon class="pl" points="474.2,523.2 474.2,523.2 491.6,523.2 491.6,523.2 474.2,523.2"/>
  <polygon class="pl" points="495.9,484.7 495.9,484.6 513.3,484.6 513.3,484.7 495.9,484.7"/>
  <polygon class="pl" points="517.7,468.5 517.7,468.4 535.1,468.4 535.1,468.5 517.7,468.5"/>
  <polygon class="pl" points="561.2,522.2 561.2,522.2 578.6,522.2 578.6,522.2 561.2,522.2"/>
  <polygon class="pl" points="757.1,356.2 757.1,356.2 774.5,356.2 774.5,356.2 757.1,356.2"/>
  <polygon class="pl" points="865.9,410.4 865.9,410.1 883.3,410.1 883.3,410.4 865.9,410.4"/>
</g>
<g stroke="#000" stroke-width="0.90" fill="#D95319"  clip-path="url(#axis_clip)">
  <polygon class="pl" points="147.8,503.9 147.8,500.6 165.2,500.6 165.2,503.9 147.8,503.9"/>
  <polygon class="pl" points="169.5,556.2 169.5,553.3 186.9,553.3 186.9,556.2 169.5,556.2"/>
  <polygon class="pl" points="191.3,581.9 191.3,577.5 208.7,577.5 208.7,581.9 191.3,581.9"/>
  <polygon class="pl" points="213.1,581.8 213.1,576.8 230.5,576.8 230.5,581.8 213.1,581.8"/>
  <polygon class="pl" points="234.8,552.7 234.8,545.1 252.2,545.1 252.2,552.7 234.8,552.7"/>
  <polygon class="pl" points="256.6,549.9 256.6,541.3 274.0,541.3 274.0,549.9 256.6,549.9"/>
  <polygon class="pl" points="278.3,548.8 278.3,535.7 295.7,535.7 295.7,548.8 278.3,548.8"/>
  <polygon class="pl" points="300.1,530.0 300.1,519.7 317.5,519.7 317.5,530.0 300.1,530.0"/>
  <polygon class="pl" points="321.9,533.1 321.9,525.0 339.3,525.0 339.3,533.1 321.9,533.1"/>
  <polygon class="pl" points="343.6,533.2 343.6,523.1 361.0,523.1 361.0,533.2 343.6,533.2"/>
  <polygon class="pl" points="365.4,537.5 365.4,526.3 382.8,526.3 382.8,537.5 365.4,537.5"/>
  <polygon class="pl" points="387.1,537.7 387.1,526.8 404.5,526.8 404.5,537.7 387.1,537.7"/>
  <polygon class="pl" points="408.9,538.3 408.9,526.8 426.3,526.8 426.3,538.3 408.9,538.3"/>
  <polygon class="pl" points="430.7,525.1 430.7,514.3 448.1,514.3 448.1,525.1 430.7,525.1"/>
  <polygon class="pl" points="452.4,519.5 452.4,508.1 469.8,508.1 469.8,519.5 452.4,519.5"/>
  <polygon class="pl" points="474.2,523.2 474.2,511.9 491.6,511.9 491.6,523.2 474.2,523.2"/>
  <polygon class="pl" points="495.9,484.6 495.9,472.9 513.3,472.9 513.3,484.6 495.9,484.6"/>
  <polygon class="pl" points="517.7,468.4 517.7,457.3 535.1,457.3 535.1,468.4 517.7,468.4"/>
  <polygon class="pl" points="539.5,507.9 539.5,496.6 556.9,496.6 556.9,507.9 539.5,507.9"/>
  <polygon class="pl" points="561.2,522.2 561.2,511.5 578.6,511.5 578.6,522.2 561.2,522.2"/>
  <polygon class="pl" points="583.0,501.6 583.0,490.7 600.4,490.7 600.4,501.6 583.0,501.6"/>
  <polygon class="pl" points="604.7,528.3 604.7,520.3 622.1,520.3 622.1,528.3 604.7,528.3"/>
  <polygon class="pl" points="626.5,535.9 626.5,527.2 643.9,527.2 643.9,535.9 626.5,535.9"/>
  <polygon class="pl" points="648.3,536.6 648.3,527.2 665.7,527.2 665.7,536.6 648.3,536.6"/>
  <polygon class="pl" points="670.0,538.0 670.0,527.9 687.4,527.9 687.4,538.0 670.0,538.0"/>
  <polygon class="pl" points="691.8,529.2 691.8,518.2 709.2,518.2 709.2,529.2 691.8,529.2"/>
  <polygon class="pl" points="713.5,500.8 713.5,490.6 730.9,490.6 730.9,500.8 713.5,500.8"/>
  <polygon class="pl" points="735.3,468.0 735.3,457.4 752.7,457.4 752.7,468.0 735.3,468.0"/>
  <polygon class="pl" points="757.1,356.2 757.1,344.8 774.5,344.8 774.5,356.2 757.1,356.2"/>
  <polygon class="pl" points="778.8,332.3 778.8,320.6 796.2,320.6 796.2,332.3 778.8,332.3"/>
  <polygon class="pl" points="800.6,332.3 800.6,320.6 818.0,320.6 818.0,332.3 800.6,332.3"/>
  <polygon class="pl" points="822.3,333.5 822.3,320.6 839.7,320.6 839.7,333.5 822.3,333.5"/>
  <polygon class="pl" points="844.1,334.2 844.1,320.6 861.5,320.6 861.5,334.2 844.1,334.2"/>
  <polygon class="pl" points="865.9,410.1 865.9,395.8 883.3,395.8 883.3,410.1 865.9,410.1"/>
  <polygon class="pl" points="887.6,425.6 887.6,411.1 905.0,411.1 905.0,425.6 887.6,425.6"/>
</g>
<g stroke="#000" stroke-width="0.90" fill="#6AB561"  clip-path="url(#axis_clip)">
  <polygon class="pl" points="147.8,500.6 147.8,320.6 165.2,320.6 165.2,500.6 147.8,500.6"/>
  <polygon class="pl" points="169.5,553.3 169.5,320.6 186.9,320.6 186.9,553.3 169.5,553.3"/>
  <polygon class="pl" points="191.3,577.5 191.3,320.6 208.7,320.6 208.7,577.5 191.3,577.5"/>
  <polygon class="pl" points="213.1,576.8 213.1,320.6 230.5,320.6 230.5,576.8 213.1,576.8"/>
  <polygon class="pl" points="234.8,545.1 234.8,320.6 252.2,320.6 252.2,545.1 234.8,545.1"/>
  <polygon class="pl" points="256.6,541.3 256.6,320.6 274.0,320.6 274.0,541.3 256.6,541.3"/>
  <polygon class="pl" points="278.3,535.7 278.3,320.6 295.7,320.6 295.7,535.7 278.3,535.7"/>
  <polygon class="pl" points="300.1,519.7 300.1,320.6 317.5,320.6 317.5,519.7 300.1,519.7"/>
  <polygon class="pl" points="321.9,525.0 321.9,320.6 339.3,320.6 339.3,525.0 321.9,525.0"/>
  <polygon class="pl" points="343.6,523.1 343.6,320.6 361.0,320.6 361.0,523.1 343.6,523.1"/>
  <polygon class="pl" points="365.4,526.3 365.4,320.6 382.8,320.6 382.8,526.3 365.4,526.3"/>
  <polygon class="pl" points="387.1,526.8 387.1,320.6 404.5,320.6 404.5,526.8 387.1,526.8"/>
  <polygon class="pl" points="408.9,526.8 408.9,320.6 426.3,320.6 426.3,526.8 408.9,526.8"/>
  <polygon class="pl" points="430.7,514.3 430.7,320.6 448.1,320.6 448.1,514.3 430.7,514.3"/>
  <polygon class="pl" points="452.4,508.1 452.4,320.6 469.8,320.6 469.8,508.1 452.4,508.1"/>
  <polygon class="pl" points="474.2,511.9 474.2,320.6 491.6,320.6 491.6,511.9 474.2,511.9"/>
  <polygon class="pl" points="495.9,472.9 495.9,320.6 513.3,320.6 513.3,472.9 495.9,472.9"/>
  <polygon class="pl" points="517.7,457.3 517.7,320.6 535.1,320.6 535.1,457.3 517.7,457.3"/>
  <polygon class="pl" points="539.5,496.6 539.5,320.6 556.9,320.6 556.9,496.6 539.5,496.6"/>
  <polygon class="pl" points="561.2,511.5 561.2,320.6 578.6,320.6 578.6,511.5 561.2,511.5"/>
  <polygon class="pl" points="583.0,490.7 583.0,320.6 600.4,320.6 600.4,490.7 583.0,490.7"/>
  <polygon class="pl" points="604.7,520.3 604.7,320.6 622.1,320.6 622.1,520.3 604.7,520.3"/>
  <polygon class="pl" points="626.5,527.2 626.5,320.6 643.9,320.6 643.9,527.2 626.5,527.2"/>
  <polygon class="pl" points="648.3,527.2 648.3,320.6 665.7,320.6 665.7,527.2 648.3,527.2"/>
  <polygon class="pl" points="670.0,527.9 670.0,320.6 687.4,320.6 687.4,527.9 670.0,527.9"/>
  <polygon class="pl" points="691.8,518.2 691.8,320.6 709.2,320.6 709.2,518.2 691.8,518.2"/>
  <polygon class="pl" points="713.5,490.6 713.5,320.6 730.9,320.6 730.9,490.6 713.5,490.6"/>
  <polygon class="pl" points="735.3,457.4 735.3,320.6 752.7,320.6 752.7,457.4 735.3,457.4"/>
  <polygon class="pl" points="757.1,344.8 757.1,320.6 774.5,320.6 774.5,344.8 757.1,344.8"/>
  <polygon class="pl" points="865.9,395.8 865.9,320.6 883.3,320.6 883.3,395.8 865.9,395.8"/>
  <polygon class="pl" points="887.6,411.1 887.6,320.6 905.0,320.6 905.0,411.1 887.6,411.1"/>
</g>
<polyline class="pl" points="156.5,520.1 178.2,551.7 200.0,558.5 221.8,571.8 243.5,548.2 265.3,554.3 287.0,550.9 308.8,533.7 330.6,528.1 352.3,532.4 374.1,548.5 395.8,549.6 417.6,547.3 439.4,539.1 461.1,534.1 482.9,537.0 504.6,517.7 526.4,511.5 548.2,534.3 569.9,530.9 591.7,518.9 613.4,532.2 635.2,538.4 657.0,527.7 678.7,528.7 700.5,528.9 722.2,505.0 744.0,475.6 765.8,375.7 787.5,252.2 809.3,195.3 831.0,258.6 852.8,321.7 874.6,426.0 896.3,441.6" stroke="#000" stroke-width="5.40" stroke-opacity="1.00" fill="none" clip-path="url(#axis_clip)"/>
<g class="pl" fill="#FFF" stroke="#000" stroke-width="0.900">
  <circle cx="178.2" cy="551.7" r="2.2" />
  <circle cx="200.0" cy="558.5" r="2.2" />
  <circle cx="221.8" cy="571.8" r="2.2" />
  <circle cx="243.5" cy="548.2" r="2.2" />
  <circle cx="265.3" cy="554.3" r="2.2" />
  <circle cx="287.0" cy="550.9" r="2.2" />
  <circle cx="308.8" cy="533.7" r="2.2" />
  <circle cx="330.6" cy="528.1" r="2.2" />
  <circle cx="352.3" cy="532.4" r="2.2" />
  <circle cx="395.8" cy="549.6" r="2.2" />
  <circle cx="417.6" cy="547.3" r="2.2" />
  <circle cx="439.4" cy="539.1" r="2.2" />
  <circle cx="461.1" cy="534.1" r="2.2" />
  <circle cx="482.9" cy="537.0" r="2.2" />
  <circle cx="504.6" cy="517.7" r="2.2" />
  <circle cx="526.4" cy="511.5" r="2.2" />
  <circle cx="548.2" cy="534.3" r="2.2" />
  <circle cx="569.9" cy="530.9" r="2.2" />
  <circle cx="613.4" cy="532.2" r="2.2" />
  <circle cx="635.2" cy="538.4" r="2.2" />
  <circle cx="657.0" cy="527.7" r="2.2" />
  <circle cx="678.7" cy="528.7" r="2.2" />
  <circle cx="700.5" cy="528.9" r="2.2" />
  <circle cx="722.2" cy="505.0" r="2.2" />
  <circle cx="744.0" cy="475.6" r="2.2" />
  <circle cx="765.8" cy="375.7" r="2.2" />
  <circle cx="787.5" cy="252.2" r="2.2" />
  <circle cx="831.0" cy="258.6" r="2.2" />
  <circle cx="852.8" cy="321.7" r="2.2" />
  <circle cx="874.6" cy="426.0" r="2.2" />
  <circle cx="896.3" cy="441.6" r="2.2" />
</g>
<g class="pl" fill="#FFF" stroke="#000" stroke-width="0.900">
  <circle cx="156.5" cy="520.1" r="5.4" />
  <circle cx="374.1" cy="548.5" r="5.4" />
  <circle cx="591.7" cy="518.9" r="5.4" />
  <circle cx="809.3" cy="195.3" r="5.4" />
</g>
<text transform="translate(145.6,47.2)" dy="0.0" font-size="27.00" fill="#808080" stroke="none">Annual LULUCF emissions: Czechia</text>
<text transform="translate(130.0,81.7)" dy="8.1" font-size="27.00" fill="#808080" stroke="none" text-anchor="end">CO<tspan dy="0.2em"><tspan style="font-size:70%">2</tspan></tspan><tspan dy="-0.2em">e</tspan></text>
<text transform="translate(945.6,356.0)" dy="6.5" font-size="21.60" fill="#5AA3D0" stroke="none">Cropland</text>
<text transform="translate(945.6,335.1)" dy="6.5" font-size="21.60" fill="#EDB120" stroke="none">Wetlands</text>
<text transform="translate(945.6,314.2)" dy="6.5" font-size="21.60" fill="#808080" stroke="none">Settlements</text>
<text transform="translate(945.6,293.3)" dy="6.5" font-size="21.60" fill="#7B417F" stroke="none">Other land</text>
<text transform="translate(945.6,272.4)" dy="6.5" font-size="21.60" fill="#1A4D1A" stroke="none">Other</text>
<text transform="translate(945.6,376.9)" dy="6.5" font-size="21.60" fill="#6AB561" stroke="none">Forest land</text>
<text transform="translate(945.6,417.3)" dy="6.5" font-size="21.60" fill="#D95319" stroke="none">Grassland</text>
<text transform="translate(945.6,438.2)" dy="6.5" font-size="21.60" fill="#8B1E40" stroke="none">HWP</text>
<polyline class="pl" points="910.8,319.7 912.4,319.8 913.8,320.2 915.2,320.8 916.4,321.6 917.6,322.6 918.8,323.7 919.8,325.0 920.8,326.5 921.7,328.0 922.7,329.7 923.5,331.4 924.4,333.2 925.2,335.0 926.0,336.9 926.8,338.8 927.6,340.6 928.4,342.5 929.3,344.3 930.1,346.0 931.1,347.7 932.0,349.2 933.0,350.7 934.0,352.0 935.2,353.1 936.4,354.1 937.6,354.9 939.0,355.5 940.4,355.9 942.0,356.0" stroke="#5AA3D0" stroke-width="0.90" stroke-opacity="1.00" fill="none" />
<polyline class="pl" points="910.8,318.7 912.4,318.8 913.8,318.9 915.2,319.2 916.4,319.6 917.6,320.0 918.8,320.5 919.8,321.1 920.8,321.8 921.7,322.5 922.7,323.2 923.5,324.0 924.4,324.8 925.2,325.6 926.0,326.5 926.8,327.3 927.6,328.2 928.4,329.0 929.3,329.8 930.1,330.6 931.1,331.3 932.0,332.0 933.0,332.7 934.0,333.3 935.2,333.8 936.4,334.2 937.6,334.6 939.0,334.9 940.4,335.0 942.0,335.1" stroke="#EDB120" stroke-width="0.90" stroke-opacity="1.00" fill="none" />
<polyline class="pl" points="910.8,316.1 912.4,316.1 913.8,316.1 915.2,316.1 916.4,316.0 917.6,316.0 918.8,315.9 919.8,315.9 920.8,315.8 921.7,315.7 922.7,315.6 923.5,315.5 924.4,315.4 925.2,315.3 926.0,315.2 926.8,315.1 927.6,315.0 928.4,314.9 929.3,314.8 930.1,314.7 931.1,314.6 932.0,314.6 933.0,314.5 934.0,314.4 935.2,314.3 936.4,314.3 937.6,314.2 939.0,314.2 940.4,314.2 942.0,314.2" stroke="#808080" stroke-width="0.90" stroke-opacity="1.00" fill="none" />
<polyline class="pl" points="910.8,313.7 912.4,313.6 913.8,313.4 915.2,313.1 916.4,312.6 917.6,312.1 918.8,311.4 919.8,310.7 920.8,309.9 921.7,309.0 922.7,308.1 923.5,307.1 924.4,306.1 925.2,305.1 926.0,304.0 926.8,303.0 927.6,301.9 928.4,300.9 929.3,299.9 930.1,298.9 931.1,298.0 932.0,297.1 933.0,296.3 934.0,295.6 935.2,294.9 936.4,294.4 937.6,293.9 939.0,293.6 940.4,293.4 942.0,293.3" stroke="#7B417F" stroke-width="0.90" stroke-opacity="1.00" fill="none" />
<polyline class="pl" points="910.8,313.7 912.4,313.6 913.8,313.1 915.2,312.5 916.4,311.6 917.6,310.4 918.8,309.1 919.8,307.6 920.8,306.0 921.7,304.2 922.7,302.3 923.5,300.4 924.4,298.3 925.2,296.2 926.0,294.1 926.8,292.0 927.6,289.9 928.4,287.8 929.3,285.7 930.1,283.7 931.1,281.9 932.0,280.1 933.0,278.5 934.0,277.0 935.2,275.7 936.4,274.5 937.6,273.6 939.0,273.0 940.4,272.5 942.0,272.4" stroke="#1A4D1A" stroke-width="0.90" stroke-opacity="1.00" fill="none" />
<polyline class="pl" points="910.8,365.9 912.4,365.9 913.8,366.0 915.2,366.2 916.4,366.4 917.6,366.7 918.8,367.1 919.8,367.5 920.8,367.9 921.7,368.4 922.7,368.9 923.5,369.4 924.4,370.0 925.2,370.5 926.0,371.1 926.8,371.7 927.6,372.2 928.4,372.8 929.3,373.3 930.1,373.8 931.1,374.3 932.0,374.8 933.0,375.3 934.0,375.7 935.2,376.0 936.4,376.3 937.6,376.5 939.0,376.7 940.4,376.8 942.0,376.9" stroke="#6AB561" stroke-width="0.90" stroke-opacity="1.00" fill="none" />
<polyline class="pl" points="910.8,418.4 912.4,418.4 913.8,418.4 915.2,418.4 916.4,418.3 917.6,418.3 918.8,418.3 919.8,418.2 920.8,418.2 921.7,418.1 922.7,418.1 923.5,418.0 924.4,418.0 925.2,417.9 926.0,417.9 926.8,417.8 927.6,417.8 928.4,417.7 929.3,417.6 930.1,417.6 931.1,417.5 932.0,417.5 933.0,417.4 934.0,417.4 935.2,417.4 936.4,417.3 937.6,417.3 939.0,417.3 940.4,417.3 942.0,417.3" stroke="#D95319" stroke-width="0.90" stroke-opacity="1.00" fill="none" />
<polyline class="pl" points="910.8,437.1 912.4,437.1 913.8,437.1 915.2,437.1 916.4,437.1 917.6,437.2 918.8,437.2 919.8,437.2 920.8,437.3 921.7,437.3 922.7,437.4 923.5,437.4 924.4,437.5 925.2,437.5 926.0,437.6 926.8,437.7 927.6,437.7 928.4,437.8 929.3,437.8 930.1,437.9 931.1,437.9 932.0,438.0 933.0,438.0 934.0,438.1 935.2,438.1 936.4,438.1 937.6,438.1 939.0,438.2 940.4,438.2 942.0,438.2" stroke="#8B1E40" stroke-width="0.90" stroke-opacity="1.00" fill="none" />
<text transform="translate(160.0,666.1)" font-size="19.80" font-family="Helvetica" fill="#BFBFBF" stroke="none" xml:space="preserve">CICERO   &#9679;   Data: EIONET (2026)   &#9679;   HWP = Harvested Wood Products</text>
<g>
  <rect x="123.0" y="651.4" width="34" height="17" fill="#FFF" stroke="none" opacity="0.01"/>
  <g transform="translate(124.0,652.4) scale(0.24)">
  <g><circle fill="#FFF" cx="37.79" cy="28.5" r="28.84"/>
     <circle fill="none" cx="37.79" cy="28.5" r="28.84" stroke="#BFBFBF" stroke-width="5.5"/>
     <path fill="#BFBFBF" d="M37.16,23.19 l-4.29,2.23c-0.458-0.951-1.02-1.62-1.69-2c-0.667-0.38-1.29-0.571-1.86-0.571c-2.86,0-4.29,1.89-4.29,5.66 c0,1.71,0.36,3.08,1.09,4.11c0.724,1.03,1.79,1.54,3.2,1.54c1.87,0,3.18-0.915,3.94-2.74l3.94,2 c-0.838,1.56-2,2.79-3.49,3.69c-1.48,0.896-3.12,1.34-4.91,1.34c-2.86,0-5.16-0.875-6.92-2.63 c-1.75-1.75-2.63-4.19-2.63-7.31c0-3.05,0.886-5.47,2.66-7.26c1.77-1.79,4.01-2.69,6.72-2.69 C32.6,18.56,35.44,20.1,37.16,23.19z
              M55.61,23.19l-4.23,2.23c-0.457-0.951-1.02-1.62-1.69-2 c-0.668-0.38-1.31-0.571-1.91-0.571c-2.86,0-4.29,1.89-4.29,5.66c0,1.71,0.363,3.08,1.09,4.11 c0.723,1.03,1.79,1.54,3.2,1.54c1.87,0,3.18-0.915,3.94-2.74l4,2c-0.875,1.56-2.06,2.79-3.54,3.69 c-1.49,0.9-3.11,1.34-4.86,1.34c-2.9,0-5.21-0.875-6.94-2.63c-1.74-1.75-2.6-4.19-2.6-7.31 c0-3.05,0.885-5.47,2.66-7.26c1.77-1.79,4.01-2.69,6.71-2.69C51.12,18.56,53.944,20.1,55.61,23.19z"/>
  </g></g>
  <g transform="translate(140.2,652.4) scale(0.24)">
  <g><circle fill="#FFF" cx="37.79" cy="28.5" r="28.84"/>
     <circle fill="none" cx="37.79" cy="28.5" r="28.84" stroke="#BFBFBF" stroke-width="5.5"/>
     <path fill="#BFBFBF" d="M46.129,20.557v13.085h-3.656v15.542h-9.944V33.643h-3.656V20.557 c0-0.572,0.2-1.057,0.599-1.457c0.401-0.399,0.887-0.6,1.457-0.6h13.144c0.533,0,1.01,0.2,1.428,0.6 C45.918,19.5,46.129,19.986,46.129,20.557z
              M33.042,12.329c0-3.008,1.485-4.514,4.458-4.514s4.457,1.504,4.457,4.514 c0,2.971-1.486,4.457-4.457,4.457S33.042,15.3,33.042,12.329z"/>
  </g></g>
</g>
</g>
</svg>
