<svg version="1.1" xmlns="http://www.w3.org/2000/svg" xmlns:xlink="http://www.w3.org/1999/xlink" width="100%" height="100%" viewBox="0 0 1200.000 674.916">
<title>Annual CO2 Emissions: Malta</title>
<style type="text/css">
  #main {font-family:Helvetica,Arial,sans-serif; font-size:27.00px;
         fill-opacity:1; fill:#000000; stroke:none; stroke-linejoin:round; stroke-linecap:round; stroke-width:1.00;}
  .marker {stroke-opacity:0;fill-opacity:0;}
  .marker:hover {stroke-opacity:0.5; fill-opacity:1;}
  .ticklabel {font-size:27.00px;fill:#808080;stroke:none;font-family:Helvetica}
  .ytl {text-anchor:end;}
  .dp1 {pointer-events:none;font-size:70%;text-anchor:middle;fill:#000000;}
  .dp2 {pointer-events:none;font-size:70%;text-anchor:middle;fill:#FFFFFF;}
  .numtip {pointer-events:none;}
  .cc {opacity:0.25;}
.dl_fe {background-color:#FDFFDF;display:flex;margin:auto;align-items:center}
.dl_fe_p {font-size:20px;text-align:center;margin:3px}
.dl_el {display:none;pointer-events:none;}
.cc:hover + .dl_el {display:block;}
text:hover + .dl_el {display:block;}
</style>
<defs>
  <clipPath id="axis_clip"><rect x="145.8" y="54.2" width="761.2" height="532.8" /></clipPath>
  <path id="line_y" d="M 0,53.993 v 533.183" stroke="#262626" stroke-opacity="0.15" stroke-width="1.00"/>
  <path id="line_x" d="M 145.600,0 h 761.600" stroke="#262626" stroke-opacity="0.15" stroke-width="1.00"/>
  <path id="tick_y" d="M 145.600,0 h -6.000" stroke="#808080" stroke-width="0.90"/>
  <path id="tick_x" d="M 0,587.177 v 6.000" stroke="#808080" stroke-width="0.90"/>
</defs>
<g id="main">
<use xlink:href="#line_y" transform="translate(156.5,0)"/>
<use xlink:href="#line_y" transform="translate(265.3,0)"/>
<use xlink:href="#line_y" transform="translate(374.1,0)"/>
<use xlink:href="#line_y" transform="translate(482.9,0)"/>
<use xlink:href="#line_y" transform="translate(591.7,0)"/>
<use xlink:href="#line_y" transform="translate(700.5,0)"/>
<use xlink:href="#line_y" transform="translate(809.3,0)"/>
<use xlink:href="#line_y" transform="translate(896.3,0)"/>
<use xlink:href="#line_x" transform="translate(0,511.0)"/>
<use xlink:href="#line_x" transform="translate(0,358.7)"/>
<use xlink:href="#line_x" transform="translate(0,206.3)"/>
<use xlink:href="#line_x" transform="translate(0,54.0)"/>
<use xlink:href="#tick_y" transform="translate(0,511.0)"/>
<use xlink:href="#tick_y" transform="translate(0,358.7)"/>
<use xlink:href="#tick_y" transform="translate(0,206.3)"/>
<use xlink:href="#tick_y" transform="translate(0,54.0)"/>
<use xlink:href="#tick_x" transform="translate(156.5,0)"/>
<use xlink:href="#tick_x" transform="translate(265.3,0)"/>
<use xlink:href="#tick_x" transform="translate(374.1,0)"/>
<use xlink:href="#tick_x" transform="translate(482.9,0)"/>
<use xlink:href="#tick_x" transform="translate(591.7,0)"/>
<use xlink:href="#tick_x" transform="translate(700.5,0)"/>
<use xlink:href="#tick_x" transform="translate(809.3,0)"/>
<use xlink:href="#tick_x" transform="translate(896.3,0)"/>
<polyline points="145.6,53.993 145.6,587.177 907.2,587.177" stroke="#808080" stroke-width="0.90" fill="none"/>
<text class="ticklabel xtl" transform="translate(156.5,629.0)" text-anchor="middle">1990</text>
<text class="ticklabel xtl" transform="translate(265.3,629.0)" text-anchor="middle">1995</text>
<text class="ticklabel xtl" transform="translate(374.1,629.0)" text-anchor="middle">2000</text>
<text class="ticklabel xtl" transform="translate(482.9,629.0)" text-anchor="middle">2005</text>
<text class="ticklabel xtl" transform="translate(591.7,629.0)" text-anchor="middle">2010</text>
<text class="ticklabel xtl" transform="translate(700.5,629.0)" text-anchor="middle">2015</text>
<text class="ticklabel xtl" transform="translate(809.3,629.0)" text-anchor="middle">2020</text>
<text class="ticklabel xtl" transform="translate(896.3,629.0)" text-anchor="middle">2024</text>
<text class="ticklabel ytl" transform="translate(128.8,519.1)">0</text>
<text class="ticklabel ytl" transform="translate(128.8,366.8)">1</text>
<text class="ticklabel ytl" transform="translate(128.8,214.4)">2</text>
<text class="ticklabel ytl" transform="translate(128.8,62.1)">3 Mt</text>
<g stroke="#000" stroke-width="0.90" fill="#7FBF7F"  clip-path="url(#axis_clip)">
  <polygon class="pl" points="408.9,89.6 408.9,92.5 426.3,92.5 426.3,89.6 408.9,89.6"/>
  <polygon class="pl" points="430.7,57.0 430.7,59.9 448.1,59.9 448.1,57.0 430.7,57.0"/>
  <polygon class="pl" points="517.7,95.4 517.7,95.4 535.1,95.4 535.1,95.4 517.7,95.4"/>
  <polygon class="pl" points="539.5,94.1 539.5,96.4 556.9,96.4 556.9,94.1 539.5,94.1"/>
  <polygon class="pl" points="561.2,118.3 561.2,120.9 578.6,120.9 578.6,118.3 561.2,118.3"/>
  <polygon class="pl" points="583.0,109.1 583.0,112.0 600.4,112.0 600.4,109.1 583.0,109.1"/>
  <polygon class="pl" points="604.7,112.8 604.7,113.7 622.1,113.7 622.1,112.8 604.7,112.8"/>
  <polygon class="pl" points="626.5,91.3 626.5,92.2 643.9,92.2 643.9,91.3 626.5,91.3"/>
  <polygon class="pl" points="648.3,140.0 648.3,140.9 665.7,140.9 665.7,140.0 648.3,140.0"/>
  <polygon class="pl" points="670.0,141.7 670.0,142.7 687.4,142.7 687.4,141.7 670.0,141.7"/>
  <polygon class="pl" points="691.8,251.4 691.8,252.4 709.2,252.4 709.2,251.4 691.8,251.4"/>
  <polygon class="pl" points="713.5,300.4 713.5,301.4 730.9,301.4 730.9,300.4 713.5,300.4"/>
  <polygon class="pl" points="735.3,275.7 735.3,276.8 752.7,276.8 752.7,275.7 735.3,275.7"/>
  <polygon class="pl" points="757.1,274.4 757.1,275.2 774.5,275.2 774.5,274.4 757.1,274.4"/>
  <polygon class="pl" points="778.8,259.4 778.8,259.8 796.2,259.8 796.2,259.4 778.8,259.4"/>
  <polygon class="pl" points="800.6,266.9 800.6,267.1 818.0,267.1 818.0,266.9 800.6,266.9"/>
  <polygon class="pl" points="822.3,265.3 822.3,265.5 839.7,265.5 839.7,265.3 822.3,265.3"/>
  <polygon class="pl" points="887.6,251.7 887.6,251.9 905.0,251.9 905.0,251.7 887.6,251.7"/>
</g>
<g stroke="#000" stroke-width="0.90" fill="#DBA746"  clip-path="url(#axis_clip)">
  <polygon class="pl" points="147.8,141.2 147.8,141.3 165.2,141.3 165.2,141.2 147.8,141.2"/>
  <polygon class="pl" points="169.5,164.9 169.5,164.9 186.9,164.9 186.9,164.9 169.5,164.9"/>
  <polygon class="pl" points="191.3,161.6 191.3,161.6 208.7,161.6 208.7,161.6 191.3,161.6"/>
  <polygon class="pl" points="213.1,71.4 213.1,71.5 230.5,71.5 230.5,71.4 213.1,71.4"/>
  <polygon class="pl" points="234.8,106.0 234.8,106.1 252.2,106.1 252.2,106.0 234.8,106.0"/>
  <polygon class="pl" points="256.6,137.4 256.6,137.5 274.0,137.5 274.0,137.4 256.6,137.4"/>
  <polygon class="pl" points="278.3,125.0 278.3,125.0 295.7,125.0 295.7,125.0 278.3,125.0"/>
  <polygon class="pl" points="300.1,121.6 300.1,121.6 317.5,121.6 317.5,121.6 300.1,121.6"/>
  <polygon class="pl" points="321.9,126.3 321.9,126.4 339.3,126.4 339.3,126.3 321.9,126.3"/>
  <polygon class="pl" points="343.6,119.0 343.6,119.1 361.0,119.1 361.0,119.0 343.6,119.0"/>
  <polygon class="pl" points="365.4,135.0 365.4,135.0 382.8,135.0 382.8,135.0 365.4,135.0"/>
  <polygon class="pl" points="387.1,94.1 387.1,94.1 404.5,94.1 404.5,94.1 387.1,94.1"/>
  <polygon class="pl" points="408.9,92.5 408.9,92.5 426.3,92.5 426.3,92.5 408.9,92.5"/>
  <polygon class="pl" points="430.7,59.9 430.7,60.0 448.1,60.0 448.1,59.9 430.7,59.9"/>
  <polygon class="pl" points="452.4,77.0 452.4,77.0 469.8,77.0 469.8,77.0 452.4,77.0"/>
  <polygon class="pl" points="474.2,107.3 474.2,107.4 491.6,107.4 491.6,107.3 474.2,107.3"/>
  <polygon class="pl" points="495.9,106.5 495.9,106.5 513.3,106.5 513.3,106.5 495.9,106.5"/>
  <polygon class="pl" points="517.7,95.4 517.7,95.5 535.1,95.5 535.1,95.4 517.7,95.4"/>
  <polygon class="pl" points="539.5,96.4 539.5,96.5 556.9,96.5 556.9,96.4 539.5,96.4"/>
  <polygon class="pl" points="561.2,120.9 561.2,121.0 578.6,121.0 578.6,120.9 561.2,120.9"/>
  <polygon class="pl" points="583.0,112.0 583.0,112.1 600.4,112.1 600.4,112.0 583.0,112.0"/>
  <polygon class="pl" points="604.7,113.7 604.7,113.8 622.1,113.8 622.1,113.7 604.7,113.7"/>
  <polygon class="pl" points="626.5,92.2 626.5,92.3 643.9,92.3 643.9,92.2 626.5,92.2"/>
  <polygon class="pl" points="648.3,140.9 648.3,140.9 665.7,140.9 665.7,140.9 648.3,140.9"/>
  <polygon class="pl" points="670.0,142.7 670.0,142.8 687.4,142.8 687.4,142.7 670.0,142.7"/>
  <polygon class="pl" points="691.8,252.4 691.8,252.5 709.2,252.5 709.2,252.4 691.8,252.4"/>
  <polygon class="pl" points="713.5,301.4 713.5,301.5 730.9,301.5 730.9,301.4 713.5,301.4"/>
  <polygon class="pl" points="735.3,276.8 735.3,276.9 752.7,276.9 752.7,276.8 735.3,276.8"/>
  <polygon class="pl" points="757.1,275.2 757.1,275.3 774.5,275.3 774.5,275.2 757.1,275.2"/>
  <polygon class="pl" points="778.8,259.8 778.8,259.8 796.2,259.8 796.2,259.8 778.8,259.8"/>
  <polygon class="pl" points="800.6,267.1 800.6,267.2 818.0,267.2 818.0,267.1 800.6,267.1"/>
  <polygon class="pl" points="822.3,265.5 822.3,265.6 839.7,265.6 839.7,265.5 822.3,265.5"/>
  <polygon class="pl" points="844.1,240.7 844.1,240.7 861.5,240.7 861.5,240.7 844.1,240.7"/>
  <polygon class="pl" points="865.9,246.1 865.9,246.2 883.3,246.2 883.3,246.1 865.9,246.1"/>
  <polygon class="pl" points="887.6,251.9 887.6,251.9 905.0,251.9 905.0,251.9 887.6,251.9"/>
</g>
<g stroke="#000" stroke-width="0.90" fill="#845F48"  clip-path="url(#axis_clip)">
  <polygon class="pl" points="147.8,141.3 147.8,141.3 165.2,141.3 165.2,141.3 147.8,141.3"/>
  <polygon class="pl" points="169.5,164.9 169.5,165.0 186.9,165.0 186.9,164.9 169.5,164.9"/>
  <polygon class="pl" points="191.3,161.6 191.3,161.7 208.7,161.7 208.7,161.6 191.3,161.6"/>
  <polygon class="pl" points="213.1,71.5 213.1,71.5 230.5,71.5 230.5,71.5 213.1,71.5"/>
  <polygon class="pl" points="234.8,106.1 234.8,106.1 252.2,106.1 252.2,106.1 234.8,106.1"/>
  <polygon class="pl" points="256.6,137.5 256.6,137.5 274.0,137.5 274.0,137.5 256.6,137.5"/>
  <polygon class="pl" points="278.3,125.0 278.3,125.0 295.7,125.0 295.7,125.0 278.3,125.0"/>
  <polygon class="pl" points="300.1,121.6 300.1,121.6 317.5,121.6 317.5,121.6 300.1,121.6"/>
  <polygon class="pl" points="321.9,126.4 321.9,126.4 339.3,126.4 339.3,126.4 321.9,126.4"/>
  <polygon class="pl" points="343.6,119.1 343.6,119.1 361.0,119.1 361.0,119.1 343.6,119.1"/>
  <polygon class="pl" points="365.4,135.0 365.4,135.1 382.8,135.1 382.8,135.0 365.4,135.0"/>
  <polygon class="pl" points="387.1,94.1 387.1,94.2 404.5,94.2 404.5,94.1 387.1,94.1"/>
  <polygon class="pl" points="408.9,92.5 408.9,92.5 426.3,92.5 426.3,92.5 408.9,92.5"/>
  <polygon class="pl" points="430.7,60.0 430.7,60.0 448.1,60.0 448.1,60.0 430.7,60.0"/>
  <polygon class="pl" points="452.4,77.0 452.4,77.0 469.8,77.0 469.8,77.0 452.4,77.0"/>
  <polygon class="pl" points="474.2,107.4 474.2,107.4 491.6,107.4 491.6,107.4 474.2,107.4"/>
  <polygon class="pl" points="495.9,106.5 495.9,106.5 513.3,106.5 513.3,106.5 495.9,106.5"/>
  <polygon class="pl" points="517.7,95.5 517.7,95.5 535.1,95.5 535.1,95.5 517.7,95.5"/>
  <polygon class="pl" points="539.5,96.5 539.5,96.5 556.9,96.5 556.9,96.5 539.5,96.5"/>
  <polygon class="pl" points="561.2,121.0 561.2,121.0 578.6,121.0 578.6,121.0 561.2,121.0"/>
  <polygon class="pl" points="583.0,112.1 583.0,112.1 600.4,112.1 600.4,112.1 583.0,112.1"/>
  <polygon class="pl" points="604.7,113.8 604.7,113.8 622.1,113.8 622.1,113.8 604.7,113.8"/>
  <polygon class="pl" points="626.5,92.3 626.5,92.3 643.9,92.3 643.9,92.3 626.5,92.3"/>
  <polygon class="pl" points="648.3,140.9 648.3,140.9 665.7,140.9 665.7,140.9 648.3,140.9"/>
  <polygon class="pl" points="670.0,142.8 670.0,142.9 687.4,142.9 687.4,142.8 670.0,142.8"/>
  <polygon class="pl" points="691.8,252.5 691.8,252.5 709.2,252.5 709.2,252.5 691.8,252.5"/>
  <polygon class="pl" points="713.5,301.5 713.5,301.5 730.9,301.5 730.9,301.5 713.5,301.5"/>
  <polygon class="pl" points="735.3,276.9 735.3,276.9 752.7,276.9 752.7,276.9 735.3,276.9"/>
  <polygon class="pl" points="757.1,275.3 757.1,275.3 774.5,275.3 774.5,275.3 757.1,275.3"/>
  <polygon class="pl" points="778.8,259.8 778.8,259.9 796.2,259.9 796.2,259.8 778.8,259.8"/>
  <polygon class="pl" points="800.6,267.2 800.6,267.2 818.0,267.2 818.0,267.2 800.6,267.2"/>
  <polygon class="pl" points="822.3,265.6 822.3,265.6 839.7,265.6 839.7,265.6 822.3,265.6"/>
  <polygon class="pl" points="844.1,240.7 844.1,240.8 861.5,240.8 861.5,240.7 844.1,240.7"/>
  <polygon class="pl" points="865.9,246.2 865.9,246.2 883.3,246.2 883.3,246.2 865.9,246.2"/>
  <polygon class="pl" points="887.6,251.9 887.6,251.9 905.0,251.9 905.0,251.9 887.6,251.9"/>
</g>
<g stroke="#000" stroke-width="0.90" fill="#4A89E8"  clip-path="url(#axis_clip)">
  <polygon class="pl" points="147.8,141.3 147.8,142.1 165.2,142.1 165.2,141.3 147.8,141.3"/>
  <polygon class="pl" points="169.5,165.0 169.5,165.8 186.9,165.8 186.9,165.0 169.5,165.0"/>
  <polygon class="pl" points="191.3,161.7 191.3,162.4 208.7,162.4 208.7,161.7 191.3,161.7"/>
  <polygon class="pl" points="213.1,71.5 213.1,72.2 230.5,72.2 230.5,71.5 213.1,71.5"/>
  <polygon class="pl" points="234.8,106.1 234.8,106.9 252.2,106.9 252.2,106.1 234.8,106.1"/>
  <polygon class="pl" points="256.6,137.5 256.6,138.3 274.0,138.3 274.0,137.5 256.6,137.5"/>
  <polygon class="pl" points="278.3,125.0 278.3,125.8 295.7,125.8 295.7,125.0 278.3,125.0"/>
  <polygon class="pl" points="300.1,121.6 300.1,122.4 317.5,122.4 317.5,121.6 300.1,121.6"/>
  <polygon class="pl" points="321.9,126.4 321.9,127.1 339.3,127.1 339.3,126.4 321.9,126.4"/>
  <polygon class="pl" points="343.6,119.1 343.6,119.7 361.0,119.7 361.0,119.1 343.6,119.1"/>
  <polygon class="pl" points="365.4,135.1 365.4,135.6 382.8,135.6 382.8,135.1 365.4,135.1"/>
  <polygon class="pl" points="387.1,94.2 387.1,94.8 404.5,94.8 404.5,94.2 387.1,94.2"/>
  <polygon class="pl" points="408.9,92.5 408.9,93.1 426.3,93.1 426.3,92.5 408.9,92.5"/>
  <polygon class="pl" points="430.7,60.0 430.7,60.6 448.1,60.6 448.1,60.0 430.7,60.0"/>
  <polygon class="pl" points="452.4,77.0 452.4,77.6 469.8,77.6 469.8,77.0 452.4,77.0"/>
  <polygon class="pl" points="474.2,107.4 474.2,107.9 491.6,107.9 491.6,107.4 474.2,107.4"/>
  <polygon class="pl" points="495.9,106.5 495.9,107.2 513.3,107.2 513.3,106.5 495.9,106.5"/>
  <polygon class="pl" points="517.7,95.5 517.7,96.0 535.1,96.0 535.1,95.5 517.7,95.5"/>
  <polygon class="pl" points="539.5,96.5 539.5,97.1 556.9,97.1 556.9,96.5 539.5,96.5"/>
  <polygon class="pl" points="561.2,121.0 561.2,121.6 578.6,121.6 578.6,121.0 561.2,121.0"/>
  <polygon class="pl" points="583.0,112.1 583.0,112.6 600.4,112.6 600.4,112.1 583.0,112.1"/>
  <polygon class="pl" points="604.7,113.8 604.7,114.4 622.1,114.4 622.1,113.8 604.7,113.8"/>
  <polygon class="pl" points="626.5,92.3 626.5,93.1 643.9,93.1 643.9,92.3 626.5,92.3"/>
  <polygon class="pl" points="648.3,140.9 648.3,142.7 665.7,142.7 665.7,140.9 648.3,140.9"/>
  <polygon class="pl" points="670.0,142.9 670.0,144.5 687.4,144.5 687.4,142.9 670.0,142.9"/>
  <polygon class="pl" points="691.8,252.5 691.8,254.0 709.2,254.0 709.2,252.5 691.8,252.5"/>
  <polygon class="pl" points="713.5,301.5 713.5,302.6 730.9,302.6 730.9,301.5 713.5,301.5"/>
  <polygon class="pl" points="735.3,276.9 735.3,277.7 752.7,277.7 752.7,276.9 735.3,276.9"/>
  <polygon class="pl" points="757.1,275.3 757.1,276.1 774.5,276.1 774.5,275.3 757.1,275.3"/>
  <polygon class="pl" points="778.8,259.9 778.8,260.6 796.2,260.6 796.2,259.9 778.8,259.9"/>
  <polygon class="pl" points="800.6,267.2 800.6,267.9 818.0,267.9 818.0,267.2 800.6,267.2"/>
  <polygon class="pl" points="822.3,265.6 822.3,266.3 839.7,266.3 839.7,265.6 822.3,265.6"/>
  <polygon class="pl" points="844.1,240.8 844.1,241.6 861.5,241.6 861.5,240.8 844.1,240.8"/>
  <polygon class="pl" points="865.9,246.2 865.9,247.1 883.3,247.1 883.3,246.2 865.9,246.2"/>
  <polygon class="pl" points="887.6,251.9 887.6,252.9 905.0,252.9 905.0,251.9 887.6,251.9"/>
</g>
<g stroke="#000" stroke-width="0.90" fill="#FF7F61"  clip-path="url(#axis_clip)">
  <polygon class="pl" points="147.8,142.1 147.8,511.0 165.2,511.0 165.2,142.1 147.8,142.1"/>
  <polygon class="pl" points="169.5,165.8 169.5,511.0 186.9,511.0 186.9,165.8 169.5,165.8"/>
  <polygon class="pl" points="191.3,162.4 191.3,511.0 208.7,511.0 208.7,162.4 191.3,162.4"/>
  <polygon class="pl" points="213.1,72.2 213.1,511.0 230.5,511.0 230.5,72.2 213.1,72.2"/>
  <polygon class="pl" points="234.8,106.9 234.8,511.0 252.2,511.0 252.2,106.9 234.8,106.9"/>
  <polygon class="pl" points="256.6,138.3 256.6,511.0 274.0,511.0 274.0,138.3 256.6,138.3"/>
  <polygon class="pl" points="278.3,125.8 278.3,511.0 295.7,511.0 295.7,125.8 278.3,125.8"/>
  <polygon class="pl" points="300.1,122.4 300.1,511.0 317.5,511.0 317.5,122.4 300.1,122.4"/>
  <polygon class="pl" points="321.9,127.1 321.9,511.0 339.3,511.0 339.3,127.1 321.9,127.1"/>
  <polygon class="pl" points="343.6,119.7 343.6,511.0 361.0,511.0 361.0,119.7 343.6,119.7"/>
  <polygon class="pl" points="365.4,135.6 365.4,511.0 382.8,511.0 382.8,135.6 365.4,135.6"/>
  <polygon class="pl" points="387.1,94.8 387.1,511.0 404.5,511.0 404.5,94.8 387.1,94.8"/>
  <polygon class="pl" points="408.9,93.1 408.9,511.0 426.3,511.0 426.3,93.1 408.9,93.1"/>
  <polygon class="pl" points="430.7,60.6 430.7,511.0 448.1,511.0 448.1,60.6 430.7,60.6"/>
  <polygon class="pl" points="452.4,77.6 452.4,511.0 469.8,511.0 469.8,77.6 452.4,77.6"/>
  <polygon class="pl" points="474.2,107.9 474.2,511.0 491.6,511.0 491.6,107.9 474.2,107.9"/>
  <polygon class="pl" points="495.9,107.2 495.9,511.0 513.3,511.0 513.3,107.2 495.9,107.2"/>
  <polygon class="pl" points="517.7,96.0 517.7,511.0 535.1,511.0 535.1,96.0 517.7,96.0"/>
  <polygon class="pl" points="539.5,97.1 539.5,511.0 556.9,511.0 556.9,97.1 539.5,97.1"/>
  <polygon class="pl" points="561.2,121.6 561.2,511.0 578.6,511.0 578.6,121.6 561.2,121.6"/>
  <polygon class="pl" points="583.0,112.6 583.0,511.0 600.4,511.0 600.4,112.6 583.0,112.6"/>
  <polygon class="pl" points="604.7,114.4 604.7,511.0 622.1,511.0 622.1,114.4 604.7,114.4"/>
  <polygon class="pl" points="626.5,93.1 626.5,511.0 643.9,511.0 643.9,93.1 626.5,93.1"/>
  <polygon class="pl" points="648.3,142.7 648.3,511.0 665.7,511.0 665.7,142.7 648.3,142.7"/>
  <polygon class="pl" points="670.0,144.5 670.0,511.0 687.4,511.0 687.4,144.5 670.0,144.5"/>
  <polygon class="pl" points="691.8,254.0 691.8,511.0 709.2,511.0 709.2,254.0 691.8,254.0"/>
  <polygon class="pl" points="713.5,302.6 713.5,511.0 730.9,511.0 730.9,302.6 713.5,302.6"/>
  <polygon class="pl" points="735.3,277.7 735.3,511.0 752.7,511.0 752.7,277.7 735.3,277.7"/>
  <polygon class="pl" points="757.1,276.1 757.1,511.0 774.5,511.0 774.5,276.1 757.1,276.1"/>
  <polygon class="pl" points="778.8,260.6 778.8,511.0 796.2,511.0 796.2,260.6 778.8,260.6"/>
  <polygon class="pl" points="800.6,267.9 800.6,511.0 818.0,511.0 818.0,267.9 800.6,267.9"/>
  <polygon class="pl" points="822.3,266.3 822.3,511.0 839.7,511.0 839.7,266.3 822.3,266.3"/>
  <polygon class="pl" points="844.1,241.6 844.1,511.0 861.5,511.0 861.5,241.6 844.1,241.6"/>
  <polygon class="pl" points="865.9,247.1 865.9,511.0 883.3,511.0 883.3,247.1 865.9,247.1"/>
  <polygon class="pl" points="887.6,252.9 887.6,511.0 905.0,511.0 905.0,252.9 887.6,252.9"/>
</g>
<g stroke="#000" stroke-width="0.90" fill="#7FBF7F"  clip-path="url(#axis_clip)">
  <polygon class="pl" points="147.8,513.3 147.8,511.0 165.2,511.0 165.2,513.3 147.8,513.3"/>
  <polygon class="pl" points="169.5,514.0 169.5,511.0 186.9,511.0 186.9,514.0 169.5,514.0"/>
  <polygon class="pl" points="191.3,512.8 191.3,511.0 208.7,511.0 208.7,512.8 191.3,512.8"/>
  <polygon class="pl" points="213.1,512.9 213.1,511.0 230.5,511.0 230.5,512.9 213.1,512.9"/>
  <polygon class="pl" points="234.8,513.1 234.8,511.0 252.2,511.0 252.2,513.1 234.8,513.1"/>
  <polygon class="pl" points="256.6,512.9 256.6,511.0 274.0,511.0 274.0,512.9 256.6,512.9"/>
  <polygon class="pl" points="278.3,513.0 278.3,511.0 295.7,511.0 295.7,513.0 278.3,513.0"/>
  <polygon class="pl" points="300.1,512.9 300.1,511.0 317.5,511.0 317.5,512.9 300.1,512.9"/>
  <polygon class="pl" points="321.9,512.8 321.9,511.0 339.3,511.0 339.3,512.8 321.9,512.8"/>
  <polygon class="pl" points="343.6,512.9 343.6,511.0 361.0,511.0 361.0,512.9 343.6,512.9"/>
  <polygon class="pl" points="365.4,512.9 365.4,511.0 382.8,511.0 382.8,512.9 365.4,512.9"/>
  <polygon class="pl" points="387.1,512.1 387.1,511.0 404.5,511.0 404.5,512.1 387.1,512.1"/>
  <polygon class="pl" points="452.4,511.3 452.4,511.0 469.8,511.0 469.8,511.3 452.4,511.3"/>
  <polygon class="pl" points="474.2,511.2 474.2,511.0 491.6,511.0 491.6,511.2 474.2,511.2"/>
  <polygon class="pl" points="495.9,511.2 495.9,511.0 513.3,511.0 513.3,511.2 495.9,511.2"/>
  <polygon class="pl" points="844.1,511.2 844.1,511.0 861.5,511.0 861.5,511.2 844.1,511.2"/>
  <polygon class="pl" points="865.9,511.5 865.9,511.0 883.3,511.0 883.3,511.5 865.9,511.5"/>
</g>
<polyline class="pl" points="156.5,143.5 178.2,167.9 200.0,163.4 221.8,73.3 243.5,108.1 265.3,139.3 287.0,126.9 308.8,123.5 330.6,128.1 352.3,120.9 374.1,136.9 395.8,95.2 417.6,89.6 439.4,57.0 461.1,77.2 482.9,107.6 504.6,106.7 526.4,95.4 548.2,94.1 569.9,118.3 591.7,109.1 613.4,112.8 635.2,91.3 657.0,140.0 678.7,141.7 700.5,251.4 722.2,300.4 744.0,275.7 765.8,274.4 787.5,259.4 809.3,266.9 831.0,265.3 852.8,240.9 874.6,246.6 896.3,251.7" stroke="#000" stroke-width="5.40" stroke-opacity="1.00" fill="none" clip-path="url(#axis_clip)"/>
<g class="pl" fill="#FFF" stroke="#000" stroke-width="0.900">
  <circle cx="178.2" cy="167.9" r="2.2" />
  <circle cx="200.0" cy="163.4" r="2.2" />
  <circle cx="221.8" cy="73.3" r="2.2" />
  <circle cx="243.5" cy="108.1" r="2.2" />
  <circle cx="265.3" cy="139.3" r="2.2" />
  <circle cx="287.0" cy="126.9" r="2.2" />
  <circle cx="308.8" cy="123.5" r="2.2" />
  <circle cx="330.6" cy="128.1" r="2.2" />
  <circle cx="352.3" cy="120.9" r="2.2" />
  <circle cx="395.8" cy="95.2" r="2.2" />
  <circle cx="417.6" cy="89.6" r="2.2" />
  <circle cx="439.4" cy="57.0" r="2.2" />
  <circle cx="461.1" cy="77.2" r="2.2" />
  <circle cx="482.9" cy="107.6" r="2.2" />
  <circle cx="504.6" cy="106.7" r="2.2" />
  <circle cx="526.4" cy="95.4" r="2.2" />
  <circle cx="548.2" cy="94.1" r="2.2" />
  <circle cx="569.9" cy="118.3" r="2.2" />
  <circle cx="613.4" cy="112.8" r="2.2" />
  <circle cx="635.2" cy="91.3" r="2.2" />
  <circle cx="657.0" cy="140.0" r="2.2" />
  <circle cx="678.7" cy="141.7" r="2.2" />
  <circle cx="700.5" cy="251.4" r="2.2" />
  <circle cx="722.2" cy="300.4" r="2.2" />
  <circle cx="744.0" cy="275.7" r="2.2" />
  <circle cx="765.8" cy="274.4" r="2.2" />
  <circle cx="787.5" cy="259.4" r="2.2" />
  <circle cx="831.0" cy="265.3" r="2.2" />
  <circle cx="852.8" cy="240.9" r="2.2" />
  <circle cx="874.6" cy="246.6" r="2.2" />
  <circle cx="896.3" cy="251.7" r="2.2" />
</g>
<g class="pl" fill="#FFF" stroke="#000" stroke-width="0.900">
  <circle cx="156.5" cy="143.5" r="5.4" />
  <circle cx="374.1" cy="136.9" r="5.4" />
  <circle cx="591.7" cy="109.1" r="5.4" />
  <circle cx="809.3" cy="266.9" r="5.4" />
</g>
<text transform="translate(145.6,47.2)" dy="0.0" font-size="27.00" fill="#808080" stroke="none">Annual CO<tspan dy="0.2em"><tspan style="font-size:70%">2</tspan></tspan><tspan dy="-0.2em"> </tspan>Emissions: Malta</text>
<text transform="translate(130.0,81.7)" dy="8.1" font-size="27.00" fill="#808080" stroke="none" text-anchor="end">CO<tspan dy="0.2em"><tspan style="font-size:70%">2</tspan></tspan><tspan dy="-0.2em"></tspan></text>
<text transform="translate(945.6,203.0)" dy="7.6" font-size="25.20" fill="#000" stroke="none">-29.4% since 1990</text>
<text transform="translate(945.6,382.0)" dy="7.6" font-size="25.20" fill="#FF7F61" stroke="none">Energy</text>
<text transform="translate(945.6,300.9)" dy="7.6" font-size="25.20" fill="#4A89E8" stroke="none">Industrial Processes</text>
<text transform="translate(945.6,276.4)" dy="7.6" font-size="25.20" fill="#845F48" stroke="none">Agriculture</text>
<text transform="translate(945.6,251.9)" dy="7.6" font-size="25.20" fill="#DBA746" stroke="none">Waste</text>
<text transform="translate(945.6,227.4)" dy="7.6" font-size="25.20" fill="#7FBF7F" stroke="none">LULUCF</text>
<text transform="translate(945.6,511.2)" dy="7.6" font-size="25.20" fill="#7FBF7F" stroke="none">LULUCF</text>
<polyline class="pl" points="910.8,251.7 912.4,251.5 913.8,251.1 915.2,250.3 916.4,249.2 917.6,247.9 918.8,246.3 919.8,244.6 920.8,242.6 921.7,240.5 922.7,238.3 923.5,236.0 924.4,233.6 925.2,231.1 926.0,228.6 926.8,226.1 927.6,223.6 928.4,221.1 929.3,218.7 930.1,216.3 931.1,214.1 932.0,212.0 933.0,210.1 934.0,208.3 935.2,206.8 936.4,205.5 937.6,204.4 939.0,203.6 940.4,203.1 942.0,203.0" stroke="#000" stroke-width="0.90" stroke-opacity="1.00" fill="none" />
<polyline class="pl" points="910.8,252.4 912.4,252.6 913.8,253.1 915.2,253.9 916.4,254.9 917.6,256.3 918.8,257.8 919.8,259.5 920.8,261.5 921.7,263.5 922.7,265.7 923.5,268.1 924.4,270.5 925.2,272.9 926.0,275.4 926.8,277.9 927.6,280.4 928.4,282.9 929.3,285.3 930.1,287.6 931.1,289.8 932.0,291.9 933.0,293.8 934.0,295.6 935.2,297.1 936.4,298.4 937.6,299.5 939.0,300.3 940.4,300.8 942.0,300.9" stroke="#4A89E8" stroke-width="0.90" stroke-opacity="1.00" fill="none" />
<polyline class="pl" points="910.8,251.9 912.4,252.0 913.8,252.2 915.2,252.6 916.4,253.2 917.6,253.8 918.8,254.6 919.8,255.5 920.8,256.5 921.7,257.5 922.7,258.6 923.5,259.8 924.4,261.0 925.2,262.3 926.0,263.5 926.8,264.8 927.6,266.1 928.4,267.3 929.3,268.5 930.1,269.7 931.1,270.8 932.0,271.9 933.0,272.8 934.0,273.7 935.2,274.5 936.4,275.2 937.6,275.7 939.0,276.1 940.4,276.4 942.0,276.4" stroke="#845F48" stroke-width="0.90" stroke-opacity="1.00" fill="none" />
<polyline class="pl" points="910.8,251.9 912.4,251.9 913.8,251.9 915.2,251.9 916.4,251.9 917.6,251.9 918.8,251.9 919.8,251.9 920.8,251.9 921.7,251.9 922.7,251.9 923.5,251.9 924.4,251.9 925.2,251.9 926.0,251.9 926.8,251.9 927.6,251.9 928.4,251.9 929.3,251.9 930.1,251.9 931.1,251.9 932.0,251.9 933.0,251.9 934.0,251.9 935.2,251.9 936.4,251.9 937.6,251.9 939.0,251.9 940.4,251.9 942.0,251.9" stroke="#DBA746" stroke-width="0.90" stroke-opacity="1.00" fill="none" />
<polyline class="pl" points="910.8,251.8 912.4,251.7 913.8,251.5 915.2,251.1 916.4,250.5 917.6,249.9 918.8,249.1 919.8,248.2 920.8,247.3 921.7,246.2 922.7,245.1 923.5,243.9 924.4,242.7 925.2,241.5 926.0,240.3 926.8,239.0 927.6,237.7 928.4,236.5 929.3,235.3 930.1,234.1 931.1,233.0 932.0,232.0 933.0,231.0 934.0,230.1 935.2,229.4 936.4,228.7 937.6,228.2 939.0,227.8 940.4,227.5 942.0,227.4" stroke="#7FBF7F" stroke-width="0.90" stroke-opacity="1.00" fill="none" />
<text transform="translate(160.0,666.1)" font-size="19.80" font-family="Helvetica" fill="#BFBFBF" stroke="none" xml:space="preserve">CICERO   &#9679;   Data: EIONET (2026)</text>
<g>
  <rect x="123.0" y="651.4" width="34" height="17" fill="#FFF" stroke="none" opacity="0.01"/>
  <g transform="translate(124.0,652.4) scale(0.24)">
  <g><circle fill="#FFF" cx="37.79" cy="28.5" r="28.84"/>
     <circle fill="none" cx="37.79" cy="28.5" r="28.84" stroke="#BFBFBF" stroke-width="5.5"/>
     <path fill="#BFBFBF" d="M37.16,23.19 l-4.29,2.23c-0.458-0.951-1.02-1.62-1.69-2c-0.667-0.38-1.29-0.571-1.86-0.571c-2.86,0-4.29,1.89-4.29,5.66 c0,1.71,0.36,3.08,1.09,4.11c0.724,1.03,1.79,1.54,3.2,1.54c1.87,0,3.18-0.915,3.94-2.74l3.94,2 c-0.838,1.56-2,2.79-3.49,3.69c-1.48,0.896-3.12,1.34-4.91,1.34c-2.86,0-5.16-0.875-6.92-2.63 c-1.75-1.75-2.63-4.19-2.63-7.31c0-3.05,0.886-5.47,2.66-7.26c1.77-1.79,4.01-2.69,6.72-2.69 C32.6,18.56,35.44,20.1,37.16,23.19z
              M55.61,23.19l-4.23,2.23c-0.457-0.951-1.02-1.62-1.69-2 c-0.668-0.38-1.31-0.571-1.91-0.571c-2.86,0-4.29,1.89-4.29,5.66c0,1.71,0.363,3.08,1.09,4.11 c0.723,1.03,1.79,1.54,3.2,1.54c1.87,0,3.18-0.915,3.94-2.74l4,2c-0.875,1.56-2.06,2.79-3.54,3.69 c-1.49,0.9-3.11,1.34-4.86,1.34c-2.9,0-5.21-0.875-6.94-2.63c-1.74-1.75-2.6-4.19-2.6-7.31 c0-3.05,0.885-5.47,2.66-7.26c1.77-1.79,4.01-2.69,6.71-2.69C51.12,18.56,53.944,20.1,55.61,23.19z"/>
  </g></g>
  <g transform="translate(140.2,652.4) scale(0.24)">
  <g><circle fill="#FFF" cx="37.79" cy="28.5" r="28.84"/>
     <circle fill="none" cx="37.79" cy="28.5" r="28.84" stroke="#BFBFBF" stroke-width="5.5"/>
     <path fill="#BFBFBF" d="M46.129,20.557v13.085h-3.656v15.542h-9.944V33.643h-3.656V20.557 c0-0.572,0.2-1.057,0.599-1.457c0.401-0.399,0.887-0.6,1.457-0.6h13.144c0.533,0,1.01,0.2,1.428,0.6 C45.918,19.5,46.129,19.986,46.129,20.557z
              M33.042,12.329c0-3.008,1.485-4.514,4.458-4.514s4.457,1.504,4.457,4.514 c0,2.971-1.486,4.457-4.457,4.457S33.042,15.3,33.042,12.329z"/>
  </g></g>
</g>
</g>
</svg>
