<svg version="1.1" xmlns="http://www.w3.org/2000/svg" xmlns:xlink="http://www.w3.org/1999/xlink" width="100%" height="100%" viewBox="0 0 1200.000 674.916">
<title>Annual N2O Emissions: Ukraine</title>
<style type="text/css">
  #main {font-family:Helvetica,Arial,sans-serif; font-size:27.00px;
         fill-opacity:1; fill:#000000; stroke:none; stroke-linejoin:round; stroke-linecap:round; stroke-width:1.00;}
  .marker {stroke-opacity:0;fill-opacity:0;}
  .marker:hover {stroke-opacity:0.5; fill-opacity:1;}
  .ticklabel {font-size:27.00px;fill:#808080;stroke:none;font-family:Helvetica}
  .ytl {text-anchor:end;}
  .dp1 {pointer-events:none;font-size:70%;text-anchor:middle;fill:#000000;}
  .dp2 {pointer-events:none;font-size:70%;text-anchor:middle;fill:#FFFFFF;}
  .numtip {pointer-events:none;}
  .cc {opacity:0.25;}
.dl_fe {background-color:#FDFFDF;display:flex;margin:auto;align-items:center}
.dl_fe_p {font-size:20px;text-align:center;margin:3px}
.dl_el {display:none;pointer-events:none;}
.cc:hover + .dl_el {display:block;}
text:hover + .dl_el {display:block;}
</style>
<defs>
  <clipPath id="axis_clip"><rect x="145.8" y="54.2" width="761.2" height="532.8" /></clipPath>
  <path id="line_y" d="M 0,53.993 v 533.183" stroke="#262626" stroke-opacity="0.15" stroke-width="1.00"/>
  <path id="line_x" d="M 145.600,0 h 761.600" stroke="#262626" stroke-opacity="0.15" stroke-width="1.00"/>
  <path id="tick_y" d="M 145.600,0 h -6.000" stroke="#808080" stroke-width="0.90"/>
  <path id="tick_x" d="M 0,587.177 v 6.000" stroke="#808080" stroke-width="0.90"/>
</defs>
<g id="main">
<use xlink:href="#line_y" transform="translate(156.8,0)"/>
<use xlink:href="#line_y" transform="translate(268.8,0)"/>
<use xlink:href="#line_y" transform="translate(380.8,0)"/>
<use xlink:href="#line_y" transform="translate(492.8,0)"/>
<use xlink:href="#line_y" transform="translate(604.8,0)"/>
<use xlink:href="#line_y" transform="translate(716.8,0)"/>
<use xlink:href="#line_y" transform="translate(828.8,0)"/>
<use xlink:href="#line_y" transform="translate(896.0,0)"/>
<use xlink:href="#line_x" transform="translate(0,587.2)"/>
<use xlink:href="#line_x" transform="translate(0,453.9)"/>
<use xlink:href="#line_x" transform="translate(0,320.6)"/>
<use xlink:href="#line_x" transform="translate(0,187.3)"/>
<use xlink:href="#line_x" transform="translate(0,54.0)"/>
<use xlink:href="#tick_y" transform="translate(0,587.2)"/>
<use xlink:href="#tick_y" transform="translate(0,453.9)"/>
<use xlink:href="#tick_y" transform="translate(0,320.6)"/>
<use xlink:href="#tick_y" transform="translate(0,187.3)"/>
<use xlink:href="#tick_y" transform="translate(0,54.0)"/>
<use xlink:href="#tick_x" transform="translate(156.8,0)"/>
<use xlink:href="#tick_x" transform="translate(268.8,0)"/>
<use xlink:href="#tick_x" transform="translate(380.8,0)"/>
<use xlink:href="#tick_x" transform="translate(492.8,0)"/>
<use xlink:href="#tick_x" transform="translate(604.8,0)"/>
<use xlink:href="#tick_x" transform="translate(716.8,0)"/>
<use xlink:href="#tick_x" transform="translate(828.8,0)"/>
<use xlink:href="#tick_x" transform="translate(896.0,0)"/>
<polyline points="145.6,53.993 145.6,587.177 907.2,587.177" stroke="#808080" stroke-width="0.90" fill="none"/>
<text class="ticklabel xtl" transform="translate(156.8,629.0)" text-anchor="middle">1990</text>
<text class="ticklabel xtl" transform="translate(268.8,629.0)" text-anchor="middle">1995</text>
<text class="ticklabel xtl" transform="translate(380.8,629.0)" text-anchor="middle">2000</text>
<text class="ticklabel xtl" transform="translate(492.8,629.0)" text-anchor="middle">2005</text>
<text class="ticklabel xtl" transform="translate(604.8,629.0)" text-anchor="middle">2010</text>
<text class="ticklabel xtl" transform="translate(716.8,629.0)" text-anchor="middle">2015</text>
<text class="ticklabel xtl" transform="translate(828.8,629.0)" text-anchor="middle">2020</text>
<text class="ticklabel xtl" transform="translate(896.0,629.0)" text-anchor="middle">23</text>
<text class="ticklabel ytl" transform="translate(128.8,595.3)">0</text>
<text class="ticklabel ytl" transform="translate(128.8,462.0)">50</text>
<text class="ticklabel ytl" transform="translate(128.8,328.7)">100</text>
<text class="ticklabel ytl" transform="translate(128.8,195.4)">150</text>
<text class="ticklabel ytl" transform="translate(128.8,62.1)">200 kt</text>
<g stroke="#000" stroke-width="0.90" fill="#7FBF7F"  clip-path="url(#axis_clip)">
  <polygon points="147.8,98.9 147.8,100.6 165.8,100.6 165.8,98.9 147.8,98.9"/>
  <polygon points="170.2,144.5 170.2,146.2 188.2,146.2 188.2,144.5 170.2,144.5"/>
  <polygon points="192.6,176.7 192.6,178.5 210.6,178.5 210.6,176.7 192.6,176.7"/>
  <polygon points="215.0,202.5 215.0,204.5 233.0,204.5 233.0,202.5 215.0,202.5"/>
  <polygon points="237.4,255.0 237.4,257.2 255.4,257.2 255.4,255.0 237.4,255.0"/>
  <polygon points="259.8,286.7 259.8,289.0 277.8,289.0 277.8,286.7 259.8,286.7"/>
  <polygon points="282.2,326.3 282.2,328.8 300.2,328.8 300.2,326.3 282.2,326.3"/>
  <polygon points="304.6,330.5 304.6,332.8 322.6,332.8 322.6,330.5 304.6,330.5"/>
  <polygon points="327.0,354.0 327.0,356.5 345.0,356.5 345.0,354.0 327.0,354.0"/>
  <polygon points="349.4,374.3 349.4,376.8 367.4,376.8 367.4,374.3 349.4,374.3"/>
  <polygon points="371.8,379.9 371.8,382.4 389.8,382.4 389.8,379.9 371.8,379.9"/>
  <polygon points="394.2,364.1 394.2,366.7 412.2,366.7 412.2,364.1 394.2,364.1"/>
  <polygon points="416.6,360.4 416.6,363.0 434.6,363.0 434.6,360.4 416.6,360.4"/>
  <polygon points="439.0,387.7 439.0,390.4 457.0,390.4 457.0,387.7 439.0,387.7"/>
  <polygon points="461.4,364.7 461.4,367.3 479.4,367.3 479.4,364.7 461.4,364.7"/>
  <polygon points="483.8,362.0 483.8,364.7 501.8,364.7 501.8,362.0 483.8,362.0"/>
  <polygon points="506.2,360.2 506.2,363.0 524.2,363.0 524.2,360.2 506.2,360.2"/>
  <polygon points="528.6,361.8 528.6,365.1 546.6,365.1 546.6,361.8 528.6,361.8"/>
  <polygon points="551.0,318.6 551.0,321.5 569.0,321.5 569.0,318.6 551.0,318.6"/>
  <polygon points="573.4,345.1 573.4,348.0 591.4,348.0 591.4,345.1 573.4,345.1"/>
  <polygon points="595.8,339.4 595.8,341.1 613.8,341.1 613.8,339.4 595.8,339.4"/>
  <polygon points="618.2,289.9 618.2,291.5 636.2,291.5 636.2,289.9 618.2,289.9"/>
  <polygon points="640.6,303.6 640.6,305.4 658.6,305.4 658.6,303.6 640.6,303.6"/>
  <polygon points="663.0,275.5 663.0,276.9 681.0,276.9 681.0,275.5 663.0,275.5"/>
  <polygon points="685.4,278.1 685.4,279.8 703.4,279.8 703.4,278.1 685.4,278.1"/>
  <polygon points="707.8,299.0 707.8,300.3 725.8,300.3 725.8,299.0 707.8,299.0"/>
  <polygon points="730.2,271.8 730.2,273.0 748.2,273.0 748.2,271.8 730.2,271.8"/>
  <polygon points="752.6,284.8 752.6,286.0 770.6,286.0 770.6,284.8 752.6,284.8"/>
  <polygon points="775.0,254.9 775.0,256.4 793.0,256.4 793.0,254.9 775.0,254.9"/>
  <polygon points="797.4,237.3 797.4,238.9 815.4,238.9 815.4,237.3 797.4,237.3"/>
  <polygon points="819.8,254.1 819.8,257.3 837.8,257.3 837.8,254.1 819.8,254.1"/>
  <polygon points="842.2,207.6 842.2,209.1 860.2,209.1 860.2,207.6 842.2,207.6"/>
  <polygon points="864.6,315.2 864.6,316.9 882.6,316.9 882.6,315.2 864.6,315.2"/>
  <polygon points="887.0,300.9 887.0,302.5 905.0,302.5 905.0,300.9 887.0,300.9"/>
</g>
<g stroke="#000" stroke-width="0.90" fill="#DBA746"  clip-path="url(#axis_clip)">
  <polygon points="147.8,100.6 147.8,119.5 165.8,119.5 165.8,100.6 147.8,100.6"/>
  <polygon points="170.2,146.2 170.2,163.9 188.2,163.9 188.2,146.2 170.2,146.2"/>
  <polygon points="192.6,178.5 192.6,194.7 210.6,194.7 210.6,178.5 192.6,178.5"/>
  <polygon points="215.0,204.5 215.0,220.1 233.0,220.1 233.0,204.5 215.0,204.5"/>
  <polygon points="237.4,257.2 237.4,271.6 255.4,271.6 255.4,257.2 237.4,257.2"/>
  <polygon points="259.8,289.0 259.8,303.5 277.8,303.5 277.8,289.0 259.8,289.0"/>
  <polygon points="282.2,328.8 282.2,342.7 300.2,342.7 300.2,328.8 282.2,328.8"/>
  <polygon points="304.6,332.8 304.6,346.3 322.6,346.3 322.6,332.8 304.6,332.8"/>
  <polygon points="327.0,356.5 327.0,369.9 345.0,369.9 345.0,356.5 327.0,356.5"/>
  <polygon points="349.4,376.8 349.4,389.8 367.4,389.8 367.4,376.8 349.4,376.8"/>
  <polygon points="371.8,382.4 371.8,395.4 389.8,395.4 389.8,382.4 371.8,382.4"/>
  <polygon points="394.2,366.7 394.2,380.0 412.2,380.0 412.2,366.7 394.2,366.7"/>
  <polygon points="416.6,363.0 416.6,376.6 434.6,376.6 434.6,363.0 416.6,363.0"/>
  <polygon points="439.0,390.4 439.0,403.8 457.0,403.8 457.0,390.4 439.0,390.4"/>
  <polygon points="461.4,367.3 461.4,381.1 479.4,381.1 479.4,367.3 461.4,367.3"/>
  <polygon points="483.8,364.7 483.8,378.4 501.8,378.4 501.8,364.7 483.8,364.7"/>
  <polygon points="506.2,363.0 506.2,376.8 524.2,376.8 524.2,363.0 506.2,363.0"/>
  <polygon points="528.6,365.1 528.6,378.9 546.6,378.9 546.6,365.1 528.6,365.1"/>
  <polygon points="551.0,321.5 551.0,335.5 569.0,335.5 569.0,321.5 551.0,321.5"/>
  <polygon points="573.4,348.0 573.4,361.6 591.4,361.6 591.4,348.0 573.4,348.0"/>
  <polygon points="595.8,341.1 595.8,354.7 613.8,354.7 613.8,341.1 595.8,341.1"/>
  <polygon points="618.2,291.5 618.2,305.2 636.2,305.2 636.2,291.5 618.2,291.5"/>
  <polygon points="640.6,305.4 640.6,319.2 658.6,319.2 658.6,305.4 640.6,305.4"/>
  <polygon points="663.0,276.9 663.0,290.8 681.0,290.8 681.0,276.9 663.0,276.9"/>
  <polygon points="685.4,279.8 685.4,293.1 703.4,293.1 703.4,279.8 685.4,279.8"/>
  <polygon points="707.8,300.3 707.8,312.9 725.8,312.9 725.8,300.3 707.8,300.3"/>
  <polygon points="730.2,273.0 730.2,285.6 748.2,285.6 748.2,273.0 730.2,273.0"/>
  <polygon points="752.6,286.0 752.6,298.5 770.6,298.5 770.6,286.0 752.6,286.0"/>
  <polygon points="775.0,256.4 775.0,268.9 793.0,268.9 793.0,256.4 775.0,256.4"/>
  <polygon points="797.4,238.9 797.4,251.2 815.4,251.2 815.4,238.9 797.4,238.9"/>
  <polygon points="819.8,257.3 819.8,269.6 837.8,269.6 837.8,257.3 819.8,257.3"/>
  <polygon points="842.2,209.1 842.2,221.1 860.2,221.1 860.2,209.1 842.2,209.1"/>
  <polygon points="864.6,316.9 864.6,327.2 882.6,327.2 882.6,316.9 864.6,316.9"/>
  <polygon points="887.0,302.5 887.0,312.7 905.0,312.7 905.0,302.5 887.0,302.5"/>
</g>
<g stroke="#000" stroke-width="0.90" fill="#845F48"  clip-path="url(#axis_clip)">
  <polygon points="147.8,119.5 147.8,490.8 165.8,490.8 165.8,119.5 147.8,119.5"/>
  <polygon points="170.2,163.9 170.2,509.1 188.2,509.1 188.2,163.9 170.2,163.9"/>
  <polygon points="192.6,194.7 192.6,514.2 210.6,514.2 210.6,194.7 192.6,194.7"/>
  <polygon points="215.0,220.1 215.0,525.3 233.0,525.3 233.0,220.1 215.0,220.1"/>
  <polygon points="237.4,271.6 237.4,535.5 255.4,535.5 255.4,271.6 237.4,271.6"/>
  <polygon points="259.8,303.5 259.8,542.5 277.8,542.5 277.8,303.5 259.8,303.5"/>
  <polygon points="282.2,342.7 282.2,541.7 300.2,541.7 300.2,342.7 282.2,342.7"/>
  <polygon points="304.6,346.3 304.6,541.0 322.6,541.0 322.6,346.3 304.6,346.3"/>
  <polygon points="327.0,369.9 327.0,548.4 345.0,548.4 345.0,369.9 327.0,369.9"/>
  <polygon points="349.4,389.8 349.4,548.1 367.4,548.1 367.4,389.8 349.4,389.8"/>
  <polygon points="371.8,395.4 371.8,546.2 389.8,546.2 389.8,395.4 371.8,395.4"/>
  <polygon points="394.2,380.0 394.2,546.2 412.2,546.2 412.2,380.0 394.2,380.0"/>
  <polygon points="416.6,376.6 416.6,541.1 434.6,541.1 434.6,376.6 416.6,376.6"/>
  <polygon points="439.0,403.8 439.0,539.2 457.0,539.2 457.0,403.8 439.0,403.8"/>
  <polygon points="461.4,381.1 461.4,544.2 479.4,544.2 479.4,381.1 461.4,381.1"/>
  <polygon points="483.8,378.4 483.8,539.9 501.8,539.9 501.8,378.4 483.8,378.4"/>
  <polygon points="506.2,376.8 506.2,536.2 524.2,536.2 524.2,376.8 506.2,376.8"/>
  <polygon points="528.6,378.9 528.6,527.5 546.6,527.5 546.6,378.9 528.6,378.9"/>
  <polygon points="551.0,335.5 551.0,531.5 569.0,531.5 569.0,335.5 551.0,335.5"/>
  <polygon points="573.4,361.6 573.4,544.6 591.4,544.6 591.4,361.6 573.4,361.6"/>
  <polygon points="595.8,354.7 595.8,534.2 613.8,534.2 613.8,354.7 595.8,354.7"/>
  <polygon points="618.2,305.2 618.2,525.3 636.2,525.3 636.2,305.2 618.2,305.2"/>
  <polygon points="640.6,319.2 640.6,527.8 658.6,527.8 658.6,319.2 640.6,319.2"/>
  <polygon points="663.0,290.8 663.0,536.2 681.0,536.2 681.0,290.8 663.0,290.8"/>
  <polygon points="685.4,293.1 685.4,542.5 703.4,542.5 703.4,293.1 685.4,293.1"/>
  <polygon points="707.8,312.9 707.8,551.3 725.8,551.3 725.8,312.9 707.8,312.9"/>
  <polygon points="730.2,285.6 730.2,546.4 748.2,546.4 748.2,285.6 730.2,285.6"/>
  <polygon points="752.6,298.5 752.6,552.6 770.6,552.6 770.6,298.5 752.6,298.5"/>
  <polygon points="775.0,268.9 775.0,553.2 793.0,553.2 793.0,268.9 775.0,268.9"/>
  <polygon points="797.4,251.2 797.4,542.6 815.4,542.6 815.4,251.2 797.4,251.2"/>
  <polygon points="819.8,269.6 819.8,541.8 837.8,541.8 837.8,269.6 819.8,269.6"/>
  <polygon points="842.2,221.1 842.2,538.9 860.2,538.9 860.2,221.1 842.2,221.1"/>
  <polygon points="864.6,327.2 864.6,562.9 882.6,562.9 882.6,327.2 864.6,327.2"/>
  <polygon points="887.0,312.7 887.0,556.9 905.0,556.9 905.0,312.7 887.0,312.7"/>
</g>
<g stroke="#000" stroke-width="0.90" fill="#4A89E8"  clip-path="url(#axis_clip)">
  <polygon points="147.8,490.8 147.8,541.5 165.8,541.5 165.8,490.8 147.8,490.8"/>
  <polygon points="170.2,509.1 170.2,554.0 188.2,554.0 188.2,509.1 170.2,509.1"/>
  <polygon points="192.6,514.2 192.6,552.8 210.6,552.8 210.6,514.2 192.6,514.2"/>
  <polygon points="215.0,525.3 215.0,558.0 233.0,558.0 233.0,525.3 215.0,525.3"/>
  <polygon points="237.4,535.5 237.4,562.1 255.4,562.1 255.4,535.5 237.4,535.5"/>
  <polygon points="259.8,542.5 259.8,563.8 277.8,563.8 277.8,542.5 259.8,542.5"/>
  <polygon points="282.2,541.7 282.2,566.5 300.2,566.5 300.2,541.7 282.2,541.7"/>
  <polygon points="304.6,541.0 304.6,568.3 322.6,568.3 322.6,541.0 304.6,541.0"/>
  <polygon points="327.0,548.4 327.0,570.4 345.0,570.4 345.0,548.4 327.0,548.4"/>
  <polygon points="349.4,548.1 349.4,571.7 367.4,571.7 367.4,548.1 349.4,548.1"/>
  <polygon points="371.8,546.2 371.8,573.1 389.8,573.1 389.8,546.2 371.8,546.2"/>
  <polygon points="394.2,546.2 394.2,572.4 412.2,572.4 412.2,546.2 394.2,546.2"/>
  <polygon points="416.6,541.1 416.6,573.1 434.6,573.1 434.6,541.1 416.6,541.1"/>
  <polygon points="439.0,539.2 439.0,573.3 457.0,573.3 457.0,539.2 439.0,539.2"/>
  <polygon points="461.4,544.2 461.4,573.4 479.4,573.4 479.4,544.2 461.4,544.2"/>
  <polygon points="483.8,539.9 483.8,573.6 501.8,573.6 501.8,539.9 483.8,539.9"/>
  <polygon points="506.2,536.2 506.2,570.2 524.2,570.2 524.2,536.2 506.2,536.2"/>
  <polygon points="528.6,527.5 528.6,571.8 546.6,571.8 546.6,527.5 528.6,527.5"/>
  <polygon points="551.0,531.5 551.0,571.6 569.0,571.6 569.0,531.5 551.0,531.5"/>
  <polygon points="573.4,544.6 573.4,573.1 591.4,573.1 591.4,544.6 573.4,544.6"/>
  <polygon points="595.8,534.2 595.8,572.4 613.8,572.4 613.8,534.2 595.8,534.2"/>
  <polygon points="618.2,525.3 618.2,571.7 636.2,571.7 636.2,525.3 618.2,525.3"/>
  <polygon points="640.6,527.8 640.6,571.4 658.6,571.4 658.6,527.8 640.6,527.8"/>
  <polygon points="663.0,536.2 663.0,571.3 681.0,571.3 681.0,536.2 663.0,536.2"/>
  <polygon points="685.4,542.5 685.4,572.5 703.4,572.5 703.4,542.5 685.4,542.5"/>
  <polygon points="707.8,551.3 707.8,574.2 725.8,574.2 725.8,551.3 707.8,551.3"/>
  <polygon points="730.2,546.4 730.2,573.8 748.2,573.8 748.2,546.4 730.2,546.4"/>
  <polygon points="752.6,552.6 752.6,573.7 770.6,573.7 770.6,552.6 752.6,552.6"/>
  <polygon points="775.0,553.2 775.0,573.3 793.0,573.3 793.0,553.2 775.0,553.2"/>
  <polygon points="797.4,542.6 797.4,572.6 815.4,572.6 815.4,542.6 797.4,542.6"/>
  <polygon points="819.8,541.8 819.8,574.1 837.8,574.1 837.8,541.8 819.8,541.8"/>
  <polygon points="842.2,538.9 842.2,573.5 860.2,573.5 860.2,538.9 842.2,538.9"/>
  <polygon points="864.6,562.9 864.6,575.9 882.6,575.9 882.6,562.9 864.6,562.9"/>
  <polygon points="887.0,556.9 887.0,575.7 905.0,575.7 905.0,556.9 887.0,556.9"/>
</g>
<g stroke="#000" stroke-width="0.90" fill="#FF7F61"  clip-path="url(#axis_clip)">
  <polygon points="147.8,541.5 147.8,587.2 165.8,587.2 165.8,541.5 147.8,541.5"/>
  <polygon points="170.2,554.0 170.2,587.2 188.2,587.2 188.2,554.0 170.2,554.0"/>
  <polygon points="192.6,552.8 192.6,587.2 210.6,587.2 210.6,552.8 192.6,552.8"/>
  <polygon points="215.0,558.0 215.0,587.2 233.0,587.2 233.0,558.0 215.0,558.0"/>
  <polygon points="237.4,562.1 237.4,587.2 255.4,587.2 255.4,562.1 237.4,562.1"/>
  <polygon points="259.8,563.8 259.8,587.2 277.8,587.2 277.8,563.8 259.8,563.8"/>
  <polygon points="282.2,566.5 282.2,587.2 300.2,587.2 300.2,566.5 282.2,566.5"/>
  <polygon points="304.6,568.3 304.6,587.2 322.6,587.2 322.6,568.3 304.6,568.3"/>
  <polygon points="327.0,570.4 327.0,587.2 345.0,587.2 345.0,570.4 327.0,570.4"/>
  <polygon points="349.4,571.7 349.4,587.2 367.4,587.2 367.4,571.7 349.4,571.7"/>
  <polygon points="371.8,573.1 371.8,587.2 389.8,587.2 389.8,573.1 371.8,573.1"/>
  <polygon points="394.2,572.4 394.2,587.2 412.2,587.2 412.2,572.4 394.2,572.4"/>
  <polygon points="416.6,573.1 416.6,587.2 434.6,587.2 434.6,573.1 416.6,573.1"/>
  <polygon points="439.0,573.3 439.0,587.2 457.0,587.2 457.0,573.3 439.0,573.3"/>
  <polygon points="461.4,573.4 461.4,587.2 479.4,587.2 479.4,573.4 461.4,573.4"/>
  <polygon points="483.8,573.6 483.8,587.2 501.8,587.2 501.8,573.6 483.8,573.6"/>
  <polygon points="506.2,570.2 506.2,587.2 524.2,587.2 524.2,570.2 506.2,570.2"/>
  <polygon points="528.6,571.8 528.6,587.2 546.6,587.2 546.6,571.8 528.6,571.8"/>
  <polygon points="551.0,571.6 551.0,587.2 569.0,587.2 569.0,571.6 551.0,571.6"/>
  <polygon points="573.4,573.1 573.4,587.2 591.4,587.2 591.4,573.1 573.4,573.1"/>
  <polygon points="595.8,572.4 595.8,587.2 613.8,587.2 613.8,572.4 595.8,572.4"/>
  <polygon points="618.2,571.7 618.2,587.2 636.2,587.2 636.2,571.7 618.2,571.7"/>
  <polygon points="640.6,571.4 640.6,587.2 658.6,587.2 658.6,571.4 640.6,571.4"/>
  <polygon points="663.0,571.3 663.0,587.2 681.0,587.2 681.0,571.3 663.0,571.3"/>
  <polygon points="685.4,572.5 685.4,587.2 703.4,587.2 703.4,572.5 685.4,572.5"/>
  <polygon points="707.8,574.2 707.8,587.2 725.8,587.2 725.8,574.2 707.8,574.2"/>
  <polygon points="730.2,573.8 730.2,587.2 748.2,587.2 748.2,573.8 730.2,573.8"/>
  <polygon points="752.6,573.7 752.6,587.2 770.6,587.2 770.6,573.7 752.6,573.7"/>
  <polygon points="775.0,573.3 775.0,587.2 793.0,587.2 793.0,573.3 775.0,573.3"/>
  <polygon points="797.4,572.6 797.4,587.2 815.4,587.2 815.4,572.6 797.4,572.6"/>
  <polygon points="819.8,574.1 819.8,587.2 837.8,587.2 837.8,574.1 819.8,574.1"/>
  <polygon points="842.2,573.5 842.2,587.2 860.2,587.2 860.2,573.5 842.2,573.5"/>
  <polygon points="864.6,575.9 864.6,587.2 882.6,587.2 882.6,575.9 864.6,575.9"/>
  <polygon points="887.0,575.7 887.0,587.2 905.0,587.2 905.0,575.7 887.0,575.7"/>
</g>
<polyline class="pl" points="156.8,98.9 179.2,144.5 201.6,176.7 224.0,202.5 246.4,255.0 268.8,286.7 291.2,326.3 313.6,330.5 336.0,354.0 358.4,374.3 380.8,379.9 403.2,364.1 425.6,360.4 448.0,387.7 470.4,364.7 492.8,362.0 515.2,360.2 537.6,361.8 560.0,318.6 582.4,345.1 604.8,339.4 627.2,289.9 649.6,303.6 672.0,275.5 694.4,278.1 716.8,299.0 739.2,271.8 761.6,284.8 784.0,254.9 806.4,237.3 828.8,254.1 851.2,207.6 873.6,315.2 896.0,300.9" stroke="#000" stroke-width="5.40" stroke-opacity="1.00" fill="none" clip-path="url(#axis_clip)"/>
<g class="pl" fill="#FFF" stroke="#000" stroke-width="0.900">
  <circle cx="179.2" cy="144.5" r="2.2" />
  <circle cx="201.6" cy="176.7" r="2.2" />
  <circle cx="224.0" cy="202.5" r="2.2" />
  <circle cx="246.4" cy="255.0" r="2.2" />
  <circle cx="268.8" cy="286.7" r="2.2" />
  <circle cx="291.2" cy="326.3" r="2.2" />
  <circle cx="313.6" cy="330.5" r="2.2" />
  <circle cx="336.0" cy="354.0" r="2.2" />
  <circle cx="358.4" cy="374.3" r="2.2" />
  <circle cx="403.2" cy="364.1" r="2.2" />
  <circle cx="425.6" cy="360.4" r="2.2" />
  <circle cx="448.0" cy="387.7" r="2.2" />
  <circle cx="470.4" cy="364.7" r="2.2" />
  <circle cx="492.8" cy="362.0" r="2.2" />
  <circle cx="515.2" cy="360.2" r="2.2" />
  <circle cx="537.6" cy="361.8" r="2.2" />
  <circle cx="560.0" cy="318.6" r="2.2" />
  <circle cx="582.4" cy="345.1" r="2.2" />
  <circle cx="627.2" cy="289.9" r="2.2" />
  <circle cx="649.6" cy="303.6" r="2.2" />
  <circle cx="672.0" cy="275.5" r="2.2" />
  <circle cx="694.4" cy="278.1" r="2.2" />
  <circle cx="716.8" cy="299.0" r="2.2" />
  <circle cx="739.2" cy="271.8" r="2.2" />
  <circle cx="761.6" cy="284.8" r="2.2" />
  <circle cx="784.0" cy="254.9" r="2.2" />
  <circle cx="806.4" cy="237.3" r="2.2" />
  <circle cx="851.2" cy="207.6" r="2.2" />
  <circle cx="873.6" cy="315.2" r="2.2" />
  <circle cx="896.0" cy="300.9" r="2.2" />
</g>
<g class="pl" fill="#FFF" stroke="#000" stroke-width="0.900">
  <circle cx="156.8" cy="98.9" r="5.4" />
  <circle cx="380.8" cy="379.9" r="5.4" />
  <circle cx="604.8" cy="339.4" r="5.4" />
  <circle cx="828.8" cy="254.1" r="5.4" />
</g>
<text transform="translate(145.6,47.2)" dy="0.0" font-size="27.00" fill="#808080" stroke="none">Annual N<tspan dy="0.2em"><tspan style="font-size:70%">2</tspan></tspan><tspan dy="-0.2em">O</tspan> Emissions: Ukraine</text>
<text transform="translate(130.0,81.6)" dy="8.1" font-size="27.00" fill="#808080" stroke="none" text-anchor="end">N<tspan dy="0.2em"><tspan style="font-size:70%">2</tspan></tspan><tspan dy="-0.2em">O</tspan></text>
<text transform="translate(945.6,278.4)" dy="7.6" font-size="25.20" fill="#000" stroke="none">-41.4% since 1990</text>
<text transform="translate(945.6,586.4)" dy="7.6" font-size="25.20" fill="#FF7F61" stroke="none">Energy</text>
<text transform="translate(945.6,561.4)" dy="7.6" font-size="25.20" fill="#4A89E8" stroke="none">Industrial Processes</text>
<text transform="translate(945.6,434.8)" dy="7.6" font-size="25.20" fill="#845F48" stroke="none">Agriculture</text>
<text transform="translate(945.6,328.5)" dy="7.6" font-size="25.20" fill="#DBA746" stroke="none">Waste</text>
<text transform="translate(945.6,303.4)" dy="7.6" font-size="25.20" fill="#7FBF7F" stroke="none">LULUCF</text>
<polyline class="pl" points="910.8,300.9 912.4,300.8 913.8,300.6 915.2,300.3 916.4,299.8 917.6,299.1 918.8,298.4 919.8,297.6 920.8,296.7 921.7,295.8 922.7,294.7 923.5,293.7 924.4,292.5 925.2,291.4 926.0,290.2 926.8,289.1 927.6,287.9 928.4,286.8 929.3,285.7 930.1,284.6 931.1,283.6 932.0,282.6 933.0,281.7 934.0,280.9 935.2,280.2 936.4,279.6 937.6,279.1 939.0,278.7 940.4,278.5 942.0,278.4" stroke="#000" stroke-width="0.90" stroke-opacity="1.00" fill="none" />
<polyline class="pl" points="910.8,581.4 912.4,581.5 913.8,581.5 915.2,581.6 916.4,581.7 917.6,581.8 918.8,582.0 919.8,582.2 920.8,582.4 921.7,582.6 922.7,582.8 923.5,583.0 924.4,583.3 925.2,583.5 926.0,583.8 926.8,584.0 927.6,584.3 928.4,584.6 929.3,584.8 930.1,585.0 931.1,585.3 932.0,585.5 933.0,585.7 934.0,585.8 935.2,586.0 936.4,586.1 937.6,586.2 939.0,586.3 940.4,586.4 942.0,586.4" stroke="#FF7F61" stroke-width="0.90" stroke-opacity="1.00" fill="none" />
<polyline class="pl" points="910.8,566.3 912.4,566.3 913.8,566.2 915.2,566.2 916.4,566.1 917.6,565.9 918.8,565.8 919.8,565.6 920.8,565.4 921.7,565.2 922.7,565.0 923.5,564.7 924.4,564.5 925.2,564.2 926.0,564.0 926.8,563.7 927.6,563.5 928.4,563.2 929.3,563.0 930.1,562.7 931.1,562.5 932.0,562.3 933.0,562.1 934.0,561.9 935.2,561.7 936.4,561.6 937.6,561.5 939.0,561.4 940.4,561.4 942.0,561.4" stroke="#4A89E8" stroke-width="0.90" stroke-opacity="1.00" fill="none" />
<polyline class="pl" points="910.8,307.6 912.4,307.7 913.8,307.9 915.2,308.2 916.4,308.7 917.6,309.3 918.8,309.9 919.8,310.7 920.8,311.5 921.7,312.4 922.7,313.3 923.5,314.3 924.4,315.4 925.2,316.4 926.0,317.5 926.8,318.6 927.6,319.7 928.4,320.7 929.3,321.7 930.1,322.7 931.1,323.7 932.0,324.6 933.0,325.4 934.0,326.2 935.2,326.8 936.4,327.4 937.6,327.8 939.0,328.2 940.4,328.4 942.0,328.5" stroke="#DBA746" stroke-width="0.90" stroke-opacity="1.00" fill="none" />
<polyline class="pl" points="910.8,301.7 912.4,301.7 913.8,301.8 915.2,301.8 916.4,301.8 917.6,301.9 918.8,301.9 919.8,302.0 920.8,302.1 921.7,302.1 922.7,302.2 923.5,302.3 924.4,302.4 925.2,302.5 926.0,302.5 926.8,302.6 927.6,302.7 928.4,302.8 929.3,302.9 930.1,303.0 931.1,303.0 932.0,303.1 933.0,303.2 934.0,303.2 935.2,303.3 936.4,303.3 937.6,303.4 939.0,303.4 940.4,303.4 942.0,303.4" stroke="#7FBF7F" stroke-width="0.90" stroke-opacity="1.00" fill="none" />
<text transform="translate(160.0,666.1)" font-size="19.80" font-family="Helvetica" fill="#BFBFBF" stroke="none" xml:space="preserve">CICERO   &#9679;   Data: UNFCCC (2025)</text>
<g>
  <rect x="123.0" y="651.4" width="34" height="17" fill="#FFF" stroke="none" opacity="0.01"/>
  <g transform="translate(124.0,652.4) scale(0.24)">
  <g><circle fill="#FFF" cx="37.79" cy="28.5" r="28.84"/>
     <circle fill="none" cx="37.79" cy="28.5" r="28.84" stroke="#BFBFBF" stroke-width="5.5"/>
     <path fill="#BFBFBF" d="M37.16,23.19 l-4.29,2.23c-0.458-0.951-1.02-1.62-1.69-2c-0.667-0.38-1.29-0.571-1.86-0.571c-2.86,0-4.29,1.89-4.29,5.66 c0,1.71,0.36,3.08,1.09,4.11c0.724,1.03,1.79,1.54,3.2,1.54c1.87,0,3.18-0.915,3.94-2.74l3.94,2 c-0.838,1.56-2,2.79-3.49,3.69c-1.48,0.896-3.12,1.34-4.91,1.34c-2.86,0-5.16-0.875-6.92-2.63 c-1.75-1.75-2.63-4.19-2.63-7.31c0-3.05,0.886-5.47,2.66-7.26c1.77-1.79,4.01-2.69,6.72-2.69 C32.6,18.56,35.44,20.1,37.16,23.19z
              M55.61,23.19l-4.23,2.23c-0.457-0.951-1.02-1.62-1.69-2 c-0.668-0.38-1.31-0.571-1.91-0.571c-2.86,0-4.29,1.89-4.29,5.66c0,1.71,0.363,3.08,1.09,4.11 c0.723,1.03,1.79,1.54,3.2,1.54c1.87,0,3.18-0.915,3.94-2.74l4,2c-0.875,1.56-2.06,2.79-3.54,3.69 c-1.49,0.9-3.11,1.34-4.86,1.34c-2.9,0-5.21-0.875-6.94-2.63c-1.74-1.75-2.6-4.19-2.6-7.31 c0-3.05,0.885-5.47,2.66-7.26c1.77-1.79,4.01-2.69,6.71-2.69C51.12,18.56,53.944,20.1,55.61,23.19z"/>
  </g></g>
  <g transform="translate(140.2,652.4) scale(0.24)">
  <g><circle fill="#FFF" cx="37.79" cy="28.5" r="28.84"/>
     <circle fill="none" cx="37.79" cy="28.5" r="28.84" stroke="#BFBFBF" stroke-width="5.5"/>
     <path fill="#BFBFBF" d="M46.129,20.557v13.085h-3.656v15.542h-9.944V33.643h-3.656V20.557 c0-0.572,0.2-1.057,0.599-1.457c0.401-0.399,0.887-0.6,1.457-0.6h13.144c0.533,0,1.01,0.2,1.428,0.6 C45.918,19.5,46.129,19.986,46.129,20.557z
              M33.042,12.329c0-3.008,1.485-4.514,4.458-4.514s4.457,1.504,4.457,4.514 c0,2.971-1.486,4.457-4.457,4.457S33.042,15.3,33.042,12.329z"/>
  </g></g>
</g>
</g>
</svg>
