<svg version="1.1" xmlns="http://www.w3.org/2000/svg" xmlns:xlink="http://www.w3.org/1999/xlink" width="100%" height="100%" viewBox="0 0 1200.000 674.916">
<title>Annual Energy sector Emissions: Ukraine</title>
<style type="text/css">
  #main {font-family:Helvetica,Arial,sans-serif; font-size:27.00px;
         fill-opacity:1; fill:#000000; stroke:none; stroke-linejoin:round; stroke-linecap:round; stroke-width:1.00;}
  .marker {stroke-opacity:0;fill-opacity:0;}
  .marker:hover {stroke-opacity:0.5; fill-opacity:1;}
  .ticklabel {font-size:27.00px;fill:#808080;stroke:none;font-family:Helvetica}
  .ytl {text-anchor:end;}
  .dp1 {pointer-events:none;font-size:70%;text-anchor:middle;fill:#000000;}
  .dp2 {pointer-events:none;font-size:70%;text-anchor:middle;fill:#FFFFFF;}
  .numtip {pointer-events:none;}
  .cc {opacity:0.25;}
.dl_fe {background-color:#FDFFDF;display:flex;margin:auto;align-items:center}
.dl_fe_p {font-size:20px;text-align:center;margin:3px}
.dl_el {display:none;pointer-events:none;}
.cc:hover + .dl_el {display:block;}
text:hover + .dl_el {display:block;}
</style>
<defs>
  <clipPath id="axis_clip"><rect x="145.8" y="54.2" width="761.2" height="532.8" /></clipPath>
  <path id="line_y" d="M 0,53.993 v 533.183" stroke="#262626" stroke-opacity="0.15" stroke-width="1.00"/>
  <path id="line_x" d="M 145.600,0 h 761.600" stroke="#262626" stroke-opacity="0.15" stroke-width="1.00"/>
  <path id="tick_y" d="M 145.600,0 h -6.000" stroke="#808080" stroke-width="0.90"/>
  <path id="tick_x" d="M 0,587.177 v 6.000" stroke="#808080" stroke-width="0.90"/>
</defs>
<g id="main">
<use xlink:href="#line_y" transform="translate(156.8,0)"/>
<use xlink:href="#line_y" transform="translate(268.8,0)"/>
<use xlink:href="#line_y" transform="translate(380.8,0)"/>
<use xlink:href="#line_y" transform="translate(492.8,0)"/>
<use xlink:href="#line_y" transform="translate(604.8,0)"/>
<use xlink:href="#line_y" transform="translate(716.8,0)"/>
<use xlink:href="#line_y" transform="translate(828.8,0)"/>
<use xlink:href="#line_y" transform="translate(896.0,0)"/>
<use xlink:href="#line_x" transform="translate(0,587.2)"/>
<use xlink:href="#line_x" transform="translate(0,498.3)"/>
<use xlink:href="#line_x" transform="translate(0,409.4)"/>
<use xlink:href="#line_x" transform="translate(0,320.6)"/>
<use xlink:href="#line_x" transform="translate(0,231.7)"/>
<use xlink:href="#line_x" transform="translate(0,142.9)"/>
<use xlink:href="#line_x" transform="translate(0,54.0)"/>
<use xlink:href="#tick_y" transform="translate(0,587.2)"/>
<use xlink:href="#tick_y" transform="translate(0,498.3)"/>
<use xlink:href="#tick_y" transform="translate(0,409.4)"/>
<use xlink:href="#tick_y" transform="translate(0,320.6)"/>
<use xlink:href="#tick_y" transform="translate(0,231.7)"/>
<use xlink:href="#tick_y" transform="translate(0,142.9)"/>
<use xlink:href="#tick_y" transform="translate(0,54.0)"/>
<use xlink:href="#tick_x" transform="translate(156.8,0)"/>
<use xlink:href="#tick_x" transform="translate(268.8,0)"/>
<use xlink:href="#tick_x" transform="translate(380.8,0)"/>
<use xlink:href="#tick_x" transform="translate(492.8,0)"/>
<use xlink:href="#tick_x" transform="translate(604.8,0)"/>
<use xlink:href="#tick_x" transform="translate(716.8,0)"/>
<use xlink:href="#tick_x" transform="translate(828.8,0)"/>
<use xlink:href="#tick_x" transform="translate(896.0,0)"/>
<polyline points="145.6,53.993 145.6,587.177 907.2,587.177" stroke="#808080" stroke-width="0.90" fill="none"/>
<text class="ticklabel xtl" transform="translate(156.8,629.0)" text-anchor="middle">1990</text>
<text class="ticklabel xtl" transform="translate(268.8,629.0)" text-anchor="middle">1995</text>
<text class="ticklabel xtl" transform="translate(380.8,629.0)" text-anchor="middle">2000</text>
<text class="ticklabel xtl" transform="translate(492.8,629.0)" text-anchor="middle">2005</text>
<text class="ticklabel xtl" transform="translate(604.8,629.0)" text-anchor="middle">2010</text>
<text class="ticklabel xtl" transform="translate(716.8,629.0)" text-anchor="middle">2015</text>
<text class="ticklabel xtl" transform="translate(828.8,629.0)" text-anchor="middle">2020</text>
<text class="ticklabel xtl" transform="translate(896.0,629.0)" text-anchor="middle">23</text>
<text class="ticklabel ytl" transform="translate(128.8,595.3)">0</text>
<text class="ticklabel ytl" transform="translate(128.8,506.4)">100</text>
<text class="ticklabel ytl" transform="translate(128.8,417.5)">200</text>
<text class="ticklabel ytl" transform="translate(128.8,328.7)">300</text>
<text class="ticklabel ytl" transform="translate(128.8,239.8)">400</text>
<text class="ticklabel ytl" transform="translate(128.8,151.0)">500</text>
<text class="ticklabel ytl" transform="translate(128.8,62.1)">600 Mt</text>
<g stroke="#000" stroke-width="0.90" fill="#7FBF7F"  clip-path="url(#axis_clip)">
  <polygon points="147.8,56.0 147.8,56.1 165.8,56.1 165.8,56.0 147.8,56.0"/>
  <polygon points="170.2,108.2 170.2,108.3 188.2,108.3 188.2,108.2 170.2,108.2"/>
  <polygon points="192.6,143.9 192.6,144.0 210.6,144.0 210.6,143.9 192.6,143.9"/>
  <polygon points="215.0,199.3 215.0,199.4 233.0,199.4 233.0,199.3 215.0,199.3"/>
  <polygon points="237.4,270.4 237.4,270.4 255.4,270.4 255.4,270.4 237.4,270.4"/>
  <polygon points="259.8,289.3 259.8,289.3 277.8,289.3 277.8,289.3 259.8,289.3"/>
  <polygon points="282.2,320.9 282.2,321.0 300.2,321.0 300.2,320.9 282.2,320.9"/>
  <polygon points="304.6,335.5 304.6,335.6 322.6,335.6 322.6,335.5 304.6,335.5"/>
  <polygon points="327.0,345.1 327.0,345.1 345.0,345.1 345.0,345.1 327.0,345.1"/>
  <polygon points="349.4,374.4 349.4,374.5 367.4,374.5 367.4,374.4 349.4,374.4"/>
  <polygon points="371.8,389.9 371.8,389.9 389.8,389.9 389.8,389.9 371.8,389.9"/>
  <polygon points="394.2,377.0 394.2,377.0 412.2,377.0 412.2,377.0 394.2,377.0"/>
  <polygon points="416.6,385.3 416.6,385.4 434.6,385.4 434.6,385.3 416.6,385.3"/>
  <polygon points="439.0,377.9 439.0,378.0 457.0,378.0 457.0,377.9 439.0,377.9"/>
  <polygon points="461.4,377.5 461.4,377.5 479.4,377.5 479.4,377.5 461.4,377.5"/>
  <polygon points="483.8,374.5 483.8,374.6 501.8,374.6 501.8,374.5 483.8,374.5"/>
  <polygon points="506.2,360.7 506.2,360.7 524.2,360.7 524.2,360.7 506.2,360.7"/>
  <polygon points="528.6,362.9 528.6,363.0 546.6,363.0 546.6,362.9 528.6,362.9"/>
  <polygon points="551.0,371.3 551.0,371.4 569.0,371.4 569.0,371.3 551.0,371.3"/>
  <polygon points="573.4,399.0 573.4,399.0 591.4,399.0 591.4,399.0 573.4,399.0"/>
  <polygon points="595.8,388.5 595.8,388.5 613.8,388.5 613.8,388.5 595.8,388.5"/>
  <polygon points="618.2,379.8 618.2,379.9 636.2,379.9 636.2,379.8 618.2,379.8"/>
  <polygon points="640.6,380.6 640.6,380.7 658.6,380.7 658.6,380.6 640.6,380.6"/>
  <polygon points="663.0,384.0 663.0,384.1 681.0,384.1 681.0,384.0 663.0,384.0"/>
  <polygon points="685.4,410.6 685.4,411.0 703.4,411.0 703.4,410.6 685.4,410.6"/>
  <polygon points="707.8,436.5 707.8,436.8 725.8,436.8 725.8,436.5 707.8,436.5"/>
  <polygon points="730.2,428.4 730.2,428.8 748.2,428.8 748.2,428.4 730.2,428.4"/>
  <polygon points="752.6,432.0 752.6,432.4 770.6,432.4 770.6,432.0 752.6,432.0"/>
  <polygon points="775.0,426.8 775.0,427.2 793.0,427.2 793.0,426.8 775.0,426.8"/>
  <polygon points="797.4,435.1 797.4,435.4 815.4,435.4 815.4,435.1 797.4,435.1"/>
  <polygon points="819.8,447.3 819.8,447.7 837.8,447.7 837.8,447.3 819.8,447.3"/>
  <polygon points="842.2,445.7 842.2,446.0 860.2,446.0 860.2,445.7 842.2,445.7"/>
  <polygon points="864.6,476.3 864.6,477.0 882.6,477.0 882.6,476.3 864.6,476.3"/>
  <polygon points="887.0,479.1 887.0,479.9 905.0,479.9 905.0,479.1 887.0,479.1"/>
</g>
<g stroke="#000" stroke-width="0.90" fill="#DBA746"  clip-path="url(#axis_clip)">
  <polygon points="147.8,56.1 147.8,147.0 165.8,147.0 165.8,56.1 147.8,56.1"/>
  <polygon points="170.2,108.3 170.2,179.6 188.2,179.6 188.2,108.3 170.2,108.3"/>
  <polygon points="192.6,144.0 192.6,216.6 210.6,216.6 210.6,144.0 192.6,144.0"/>
  <polygon points="215.0,199.4 215.0,263.9 233.0,263.9 233.0,199.4 215.0,199.4"/>
  <polygon points="237.4,270.4 237.4,328.4 255.4,328.4 255.4,270.4 237.4,270.4"/>
  <polygon points="259.8,289.3 259.8,348.4 277.8,348.4 277.8,289.3 259.8,289.3"/>
  <polygon points="282.2,321.0 282.2,369.3 300.2,369.3 300.2,321.0 282.2,321.0"/>
  <polygon points="304.6,335.6 304.6,378.6 322.6,378.6 322.6,335.6 304.6,335.6"/>
  <polygon points="327.0,345.1 327.0,389.1 345.0,389.1 345.0,345.1 327.0,345.1"/>
  <polygon points="349.4,374.5 349.4,415.8 367.4,415.8 367.4,374.5 349.4,374.5"/>
  <polygon points="371.8,389.9 371.8,426.0 389.8,426.0 389.8,389.9 371.8,389.9"/>
  <polygon points="394.2,377.0 394.2,412.4 412.2,412.4 412.2,377.0 394.2,377.0"/>
  <polygon points="416.6,385.4 416.6,419.8 434.6,419.8 434.6,385.4 416.6,385.4"/>
  <polygon points="439.0,378.0 439.0,413.5 457.0,413.5 457.0,378.0 439.0,378.0"/>
  <polygon points="461.4,377.5 461.4,414.0 479.4,414.0 479.4,377.5 461.4,377.5"/>
  <polygon points="483.8,374.6 483.8,412.4 501.8,412.4 501.8,374.6 483.8,374.6"/>
  <polygon points="506.2,360.7 506.2,400.4 524.2,400.4 524.2,360.7 506.2,360.7"/>
  <polygon points="528.6,363.0 528.6,398.3 546.6,398.3 546.6,363.0 528.6,363.0"/>
  <polygon points="551.0,371.4 551.0,406.6 569.0,406.6 569.0,371.4 551.0,371.4"/>
  <polygon points="573.4,399.0 573.4,432.7 591.4,432.7 591.4,399.0 573.4,399.0"/>
  <polygon points="595.8,388.5 595.8,423.6 613.8,423.6 613.8,388.5 595.8,388.5"/>
  <polygon points="618.2,379.9 618.2,415.0 636.2,415.0 636.2,379.9 618.2,379.9"/>
  <polygon points="640.6,380.7 640.6,415.4 658.6,415.4 658.6,380.7 640.6,380.7"/>
  <polygon points="663.0,384.1 663.0,418.2 681.0,418.2 681.0,384.1 663.0,384.1"/>
  <polygon points="685.4,411.0 685.4,440.1 703.4,440.1 703.4,411.0 685.4,411.0"/>
  <polygon points="707.8,436.8 707.8,462.6 725.8,462.6 725.8,436.8 707.8,436.8"/>
  <polygon points="730.2,428.8 730.2,453.8 748.2,453.8 748.2,428.8 730.2,428.8"/>
  <polygon points="752.6,432.4 752.6,459.8 770.6,459.8 770.6,432.4 752.6,432.4"/>
  <polygon points="775.0,427.2 775.0,452.1 793.0,452.1 793.0,427.2 775.0,427.2"/>
  <polygon points="797.4,435.4 797.4,455.3 815.4,455.3 815.4,435.4 797.4,435.4"/>
  <polygon points="819.8,447.7 819.8,464.6 837.8,464.6 837.8,447.7 819.8,447.7"/>
  <polygon points="842.2,446.0 842.2,463.0 860.2,463.0 860.2,446.0 842.2,446.0"/>
  <polygon points="864.6,477.0 864.6,489.9 882.6,489.9 882.6,477.0 864.6,477.0"/>
  <polygon points="887.0,479.9 887.0,494.6 905.0,494.6 905.0,479.9 887.0,479.9"/>
</g>
<g stroke="#000" stroke-width="0.90" fill="#845F48"  clip-path="url(#axis_clip)">
  <polygon points="147.8,147.0 147.8,246.0 165.8,246.0 165.8,147.0 147.8,147.0"/>
  <polygon points="170.2,179.6 170.2,261.1 188.2,261.1 188.2,179.6 170.2,179.6"/>
  <polygon points="192.6,216.6 192.6,287.5 210.6,287.5 210.6,216.6 192.6,216.6"/>
  <polygon points="215.0,263.9 215.0,316.5 233.0,316.5 233.0,263.9 215.0,263.9"/>
  <polygon points="237.4,328.4 237.4,374.7 255.4,374.7 255.4,328.4 237.4,328.4"/>
  <polygon points="259.8,348.4 259.8,392.0 277.8,392.0 277.8,348.4 259.8,348.4"/>
  <polygon points="282.2,369.3 282.2,411.8 300.2,411.8 300.2,369.3 282.2,369.3"/>
  <polygon points="304.6,378.6 304.6,415.1 322.6,415.1 322.6,378.6 304.6,378.6"/>
  <polygon points="327.0,389.1 327.0,422.4 345.0,422.4 345.0,389.1 327.0,389.1"/>
  <polygon points="349.4,415.8 349.4,449.4 367.4,449.4 367.4,415.8 349.4,415.8"/>
  <polygon points="371.8,426.0 371.8,456.6 389.8,456.6 389.8,426.0 371.8,426.0"/>
  <polygon points="394.2,412.4 394.2,443.7 412.2,443.7 412.2,412.4 394.2,412.4"/>
  <polygon points="416.6,419.8 416.6,452.7 434.6,452.7 434.6,419.8 416.6,419.8"/>
  <polygon points="439.0,413.5 439.0,447.5 457.0,447.5 457.0,413.5 439.0,413.5"/>
  <polygon points="461.4,414.0 461.4,449.6 479.4,449.6 479.4,414.0 461.4,414.0"/>
  <polygon points="483.8,412.4 483.8,447.2 501.8,447.2 501.8,412.4 483.8,412.4"/>
  <polygon points="506.2,400.4 506.2,438.3 524.2,438.3 524.2,400.4 506.2,400.4"/>
  <polygon points="528.6,398.3 528.6,438.2 546.6,438.2 546.6,398.3 528.6,398.3"/>
  <polygon points="551.0,406.6 551.0,447.5 569.0,447.5 569.0,406.6 551.0,406.6"/>
  <polygon points="573.4,432.7 573.4,468.0 591.4,468.0 591.4,432.7 573.4,432.7"/>
  <polygon points="595.8,423.6 595.8,459.2 613.8,459.2 613.8,423.6 595.8,423.6"/>
  <polygon points="618.2,415.0 618.2,450.8 636.2,450.8 636.2,415.0 618.2,415.0"/>
  <polygon points="640.6,415.4 640.6,450.2 658.6,450.2 658.6,415.4 640.6,415.4"/>
  <polygon points="663.0,418.2 663.0,453.2 681.0,453.2 681.0,418.2 663.0,418.2"/>
  <polygon points="685.4,440.1 685.4,471.9 703.4,471.9 703.4,440.1 685.4,440.1"/>
  <polygon points="707.8,462.6 707.8,490.2 725.8,490.2 725.8,462.6 707.8,462.6"/>
  <polygon points="730.2,453.8 730.2,483.0 748.2,483.0 748.2,453.8 730.2,453.8"/>
  <polygon points="752.6,459.8 752.6,490.8 770.6,490.8 770.6,459.8 752.6,459.8"/>
  <polygon points="775.0,452.1 775.0,483.1 793.0,483.1 793.0,452.1 775.0,452.1"/>
  <polygon points="797.4,455.3 797.4,488.7 815.4,488.7 815.4,455.3 797.4,455.3"/>
  <polygon points="819.8,464.6 819.8,492.8 837.8,492.8 837.8,464.6 819.8,464.6"/>
  <polygon points="842.2,463.0 842.2,492.8 860.2,492.8 860.2,463.0 842.2,463.0"/>
  <polygon points="864.6,489.9 864.6,514.1 882.6,514.1 882.6,489.9 864.6,489.9"/>
  <polygon points="887.0,494.6 887.0,518.6 905.0,518.6 905.0,494.6 887.0,494.6"/>
</g>
<g stroke="#000" stroke-width="0.90" fill="#4A89E8"  clip-path="url(#axis_clip)">
  <polygon points="147.8,246.0 147.8,344.9 165.8,344.9 165.8,246.0 147.8,246.0"/>
  <polygon points="170.2,261.1 170.2,350.4 188.2,350.4 188.2,261.1 170.2,261.1"/>
  <polygon points="192.6,287.5 192.6,353.0 210.6,353.0 210.6,287.5 192.6,287.5"/>
  <polygon points="215.0,316.5 215.0,371.5 233.0,371.5 233.0,316.5 215.0,316.5"/>
  <polygon points="237.4,374.7 237.4,408.1 255.4,408.1 255.4,374.7 237.4,374.7"/>
  <polygon points="259.8,392.0 259.8,414.2 277.8,414.2 277.8,392.0 259.8,392.0"/>
  <polygon points="282.2,411.8 282.2,434.2 300.2,434.2 300.2,411.8 282.2,411.8"/>
  <polygon points="304.6,415.1 304.6,437.3 322.6,437.3 322.6,415.1 304.6,415.1"/>
  <polygon points="327.0,422.4 327.0,448.6 345.0,448.6 345.0,422.4 327.0,422.4"/>
  <polygon points="349.4,449.4 349.4,475.9 367.4,475.9 367.4,449.4 349.4,449.4"/>
  <polygon points="371.8,456.6 371.8,484.3 389.8,484.3 389.8,456.6 371.8,456.6"/>
  <polygon points="394.2,443.7 394.2,470.6 412.2,470.6 412.2,443.7 394.2,443.7"/>
  <polygon points="416.6,452.7 416.6,479.9 434.6,479.9 434.6,452.7 416.6,452.7"/>
  <polygon points="439.0,447.5 439.0,477.3 457.0,477.3 457.0,447.5 439.0,447.5"/>
  <polygon points="461.4,449.6 461.4,481.9 479.4,481.9 479.4,449.6 461.4,449.6"/>
  <polygon points="483.8,447.2 483.8,479.9 501.8,479.9 501.8,447.2 483.8,447.2"/>
  <polygon points="506.2,438.3 506.2,471.8 524.2,471.8 524.2,438.3 506.2,438.3"/>
  <polygon points="528.6,438.2 528.6,474.2 546.6,474.2 546.6,438.2 528.6,438.2"/>
  <polygon points="551.0,447.5 551.0,473.8 569.0,473.8 569.0,447.5 551.0,447.5"/>
  <polygon points="573.4,468.0 573.4,485.2 591.4,485.2 591.4,468.0 573.4,468.0"/>
  <polygon points="595.8,459.2 595.8,479.3 613.8,479.3 613.8,459.2 595.8,459.2"/>
  <polygon points="618.2,450.8 618.2,473.2 636.2,473.2 636.2,450.8 618.2,450.8"/>
  <polygon points="640.6,450.2 640.6,470.6 658.6,470.6 658.6,450.2 640.6,450.2"/>
  <polygon points="663.0,453.2 663.0,474.2 681.0,474.2 681.0,453.2 663.0,453.2"/>
  <polygon points="685.4,471.9 685.4,490.0 703.4,490.0 703.4,471.9 685.4,471.9"/>
  <polygon points="707.8,490.2 707.8,507.1 725.8,507.1 725.8,490.2 707.8,490.2"/>
  <polygon points="730.2,483.0 730.2,499.4 748.2,499.4 748.2,483.0 730.2,483.0"/>
  <polygon points="752.6,490.8 752.6,506.8 770.6,506.8 770.6,490.8 752.6,490.8"/>
  <polygon points="775.0,483.1 775.0,499.4 793.0,499.4 793.0,483.1 775.0,483.1"/>
  <polygon points="797.4,488.7 797.4,505.3 815.4,505.3 815.4,488.7 797.4,488.7"/>
  <polygon points="819.8,492.8 819.8,510.4 837.8,510.4 837.8,492.8 819.8,492.8"/>
  <polygon points="842.2,492.8 842.2,511.5 860.2,511.5 860.2,492.8 842.2,492.8"/>
  <polygon points="864.6,514.1 864.6,525.9 882.6,525.9 882.6,514.1 864.6,514.1"/>
  <polygon points="887.0,518.6 887.0,532.7 905.0,532.7 905.0,518.6 887.0,518.6"/>
</g>
<g stroke="#000" stroke-width="0.90" fill="#FF7F61"  clip-path="url(#axis_clip)">
  <polygon points="147.8,344.9 147.8,587.2 165.8,587.2 165.8,344.9 147.8,344.9"/>
  <polygon points="170.2,350.4 170.2,587.2 188.2,587.2 188.2,350.4 170.2,350.4"/>
  <polygon points="192.6,353.0 192.6,587.2 210.6,587.2 210.6,353.0 192.6,353.0"/>
  <polygon points="215.0,371.5 215.0,587.2 233.0,587.2 233.0,371.5 215.0,371.5"/>
  <polygon points="237.4,408.1 237.4,587.2 255.4,587.2 255.4,408.1 237.4,408.1"/>
  <polygon points="259.8,414.2 259.8,587.2 277.8,587.2 277.8,414.2 259.8,414.2"/>
  <polygon points="282.2,434.2 282.2,587.2 300.2,587.2 300.2,434.2 282.2,434.2"/>
  <polygon points="304.6,437.3 304.6,587.2 322.6,587.2 322.6,437.3 304.6,437.3"/>
  <polygon points="327.0,448.6 327.0,587.2 345.0,587.2 345.0,448.6 327.0,448.6"/>
  <polygon points="349.4,475.9 349.4,587.2 367.4,587.2 367.4,475.9 349.4,475.9"/>
  <polygon points="371.8,484.3 371.8,587.2 389.8,587.2 389.8,484.3 371.8,484.3"/>
  <polygon points="394.2,470.6 394.2,587.2 412.2,587.2 412.2,470.6 394.2,470.6"/>
  <polygon points="416.6,479.9 416.6,587.2 434.6,587.2 434.6,479.9 416.6,479.9"/>
  <polygon points="439.0,477.3 439.0,587.2 457.0,587.2 457.0,477.3 439.0,477.3"/>
  <polygon points="461.4,481.9 461.4,587.2 479.4,587.2 479.4,481.9 461.4,481.9"/>
  <polygon points="483.8,479.9 483.8,587.2 501.8,587.2 501.8,479.9 483.8,479.9"/>
  <polygon points="506.2,471.8 506.2,587.2 524.2,587.2 524.2,471.8 506.2,471.8"/>
  <polygon points="528.6,474.2 528.6,587.2 546.6,587.2 546.6,474.2 528.6,474.2"/>
  <polygon points="551.0,473.8 551.0,587.2 569.0,587.2 569.0,473.8 551.0,473.8"/>
  <polygon points="573.4,485.2 573.4,587.2 591.4,587.2 591.4,485.2 573.4,485.2"/>
  <polygon points="595.8,479.3 595.8,587.2 613.8,587.2 613.8,479.3 595.8,479.3"/>
  <polygon points="618.2,473.2 618.2,587.2 636.2,587.2 636.2,473.2 618.2,473.2"/>
  <polygon points="640.6,470.6 640.6,587.2 658.6,587.2 658.6,470.6 640.6,470.6"/>
  <polygon points="663.0,474.2 663.0,587.2 681.0,587.2 681.0,474.2 663.0,474.2"/>
  <polygon points="685.4,490.0 685.4,587.2 703.4,587.2 703.4,490.0 685.4,490.0"/>
  <polygon points="707.8,507.1 707.8,587.2 725.8,587.2 725.8,507.1 707.8,507.1"/>
  <polygon points="730.2,499.4 730.2,587.2 748.2,587.2 748.2,499.4 730.2,499.4"/>
  <polygon points="752.6,506.8 752.6,587.2 770.6,587.2 770.6,506.8 752.6,506.8"/>
  <polygon points="775.0,499.4 775.0,587.2 793.0,587.2 793.0,499.4 775.0,499.4"/>
  <polygon points="797.4,505.3 797.4,587.2 815.4,587.2 815.4,505.3 797.4,505.3"/>
  <polygon points="819.8,510.4 819.8,587.2 837.8,587.2 837.8,510.4 819.8,510.4"/>
  <polygon points="842.2,511.5 842.2,587.2 860.2,587.2 860.2,511.5 842.2,511.5"/>
  <polygon points="864.6,525.9 864.6,587.2 882.6,587.2 882.6,525.9 864.6,525.9"/>
  <polygon points="887.0,532.7 887.0,587.2 905.0,587.2 905.0,532.7 887.0,532.7"/>
</g>
<polyline class="pl" points="156.8,56.0 179.2,108.2 201.6,143.9 224.0,199.3 246.4,270.4 268.8,289.3 291.2,320.9 313.6,335.5 336.0,345.1 358.4,374.4 380.8,389.9 403.2,377.0 425.6,385.3 448.0,377.9 470.4,377.5 492.8,374.5 515.2,360.7 537.6,362.9 560.0,371.3 582.4,399.0 604.8,388.5 627.2,379.8 649.6,380.6 672.0,384.0 694.4,410.6 716.8,436.5 739.2,428.4 761.6,432.0 784.0,426.8 806.4,435.1 828.8,447.3 851.2,445.7 873.6,476.3 896.0,479.1" stroke="#000" stroke-width="5.40" stroke-opacity="1.00" fill="none" clip-path="url(#axis_clip)"/>
<g class="pl" fill="#FFF" stroke="#000" stroke-width="0.900">
  <circle cx="179.2" cy="108.2" r="2.2" />
  <circle cx="201.6" cy="143.9" r="2.2" />
  <circle cx="224.0" cy="199.3" r="2.2" />
  <circle cx="246.4" cy="270.4" r="2.2" />
  <circle cx="268.8" cy="289.3" r="2.2" />
  <circle cx="291.2" cy="320.9" r="2.2" />
  <circle cx="313.6" cy="335.5" r="2.2" />
  <circle cx="336.0" cy="345.1" r="2.2" />
  <circle cx="358.4" cy="374.4" r="2.2" />
  <circle cx="403.2" cy="377.0" r="2.2" />
  <circle cx="425.6" cy="385.3" r="2.2" />
  <circle cx="448.0" cy="377.9" r="2.2" />
  <circle cx="470.4" cy="377.5" r="2.2" />
  <circle cx="492.8" cy="374.5" r="2.2" />
  <circle cx="515.2" cy="360.7" r="2.2" />
  <circle cx="537.6" cy="362.9" r="2.2" />
  <circle cx="560.0" cy="371.3" r="2.2" />
  <circle cx="582.4" cy="399.0" r="2.2" />
  <circle cx="627.2" cy="379.8" r="2.2" />
  <circle cx="649.6" cy="380.6" r="2.2" />
  <circle cx="672.0" cy="384.0" r="2.2" />
  <circle cx="694.4" cy="410.6" r="2.2" />
  <circle cx="716.8" cy="436.5" r="2.2" />
  <circle cx="739.2" cy="428.4" r="2.2" />
  <circle cx="761.6" cy="432.0" r="2.2" />
  <circle cx="784.0" cy="426.8" r="2.2" />
  <circle cx="806.4" cy="435.1" r="2.2" />
  <circle cx="851.2" cy="445.7" r="2.2" />
  <circle cx="873.6" cy="476.3" r="2.2" />
  <circle cx="896.0" cy="479.1" r="2.2" />
</g>
<g class="pl" fill="#FFF" stroke="#000" stroke-width="0.900">
  <circle cx="156.8" cy="56.0" r="5.4" />
  <circle cx="380.8" cy="389.9" r="5.4" />
  <circle cx="604.8" cy="388.5" r="5.4" />
  <circle cx="828.8" cy="447.3" r="5.4" />
</g>
<text transform="translate(145.6,47.2)" dy="0.0" font-size="27.00" fill="#808080" stroke="none">Annual Energy sector Emissions: Ukraine</text>
<text transform="translate(130.0,81.6)" dy="8.1" font-size="27.00" fill="#808080" stroke="none" text-anchor="end">CO<tspan dy="0.2em"><tspan style="font-size:70%">2</tspan></tspan><tspan dy="-0.2em">e</tspan></text>
<text transform="translate(945.6,443.7)" dy="7.6" font-size="25.20" fill="#000" stroke="none">-79.7% since 1990</text>
<text transform="translate(945.6,568.9)" dy="7.6" font-size="25.20" fill="#FF7F61" stroke="none">Energy industries</text>
<text transform="translate(945.6,543.9)" dy="7.6" font-size="25.20" fill="#4A89E8" stroke="none">Manufacturing</text>
<text transform="translate(945.6,518.9)" dy="7.6" font-size="25.20" fill="#845F48" stroke="none">Transport</text>
<text transform="translate(945.6,493.8)" dy="7.6" font-size="25.20" fill="#DBA746" stroke="none">Other sectors</text>
<text transform="translate(945.6,468.8)" dy="7.6" font-size="25.20" fill="#7FBF7F" stroke="none">Other</text>
<polyline class="pl" points="910.8,479.1 912.4,479.0 913.8,478.6 915.2,478.0 916.4,477.3 917.6,476.3 918.8,475.2 919.8,473.9 920.8,472.5 921.7,471.0 922.7,469.4 923.5,467.7 924.4,465.9 925.2,464.2 926.0,462.3 926.8,460.5 927.6,458.7 928.4,456.9 929.3,455.1 930.1,453.5 931.1,451.8 932.0,450.3 933.0,448.9 934.0,447.7 935.2,446.5 936.4,445.6 937.6,444.8 939.0,444.2 940.4,443.9 942.0,443.7" stroke="#000" stroke-width="0.90" stroke-opacity="1.00" fill="none" />
<polyline class="pl" points="910.8,559.9 912.4,560.0 913.8,560.1 915.2,560.2 916.4,560.4 917.6,560.6 918.8,560.9 919.8,561.3 920.8,561.6 921.7,562.0 922.7,562.4 923.5,562.8 924.4,563.3 925.2,563.7 926.0,564.2 926.8,564.7 927.6,565.1 928.4,565.6 929.3,566.0 930.1,566.5 931.1,566.9 932.0,567.3 933.0,567.6 934.0,567.9 935.2,568.2 936.4,568.5 937.6,568.7 939.0,568.8 940.4,568.9 942.0,568.9" stroke="#FF7F61" stroke-width="0.90" stroke-opacity="1.00" fill="none" />
<polyline class="pl" points="910.8,525.7 912.4,525.7 913.8,525.9 915.2,526.2 916.4,526.6 917.6,527.1 918.8,527.7 919.8,528.3 920.8,529.1 921.7,529.8 922.7,530.7 923.5,531.5 924.4,532.4 925.2,533.4 926.0,534.3 926.8,535.2 927.6,536.2 928.4,537.1 929.3,538.0 930.1,538.9 931.1,539.7 932.0,540.5 933.0,541.2 934.0,541.9 935.2,542.5 936.4,543.0 937.6,543.4 939.0,543.7 940.4,543.8 942.0,543.9" stroke="#4A89E8" stroke-width="0.90" stroke-opacity="1.00" fill="none" />
<polyline class="pl" points="910.8,506.6 912.4,506.7 913.8,506.8 915.2,507.0 916.4,507.3 917.6,507.6 918.8,508.0 919.8,508.4 920.8,508.9 921.7,509.4 922.7,510.0 923.5,510.6 924.4,511.2 925.2,511.8 926.0,512.4 926.8,513.1 927.6,513.7 928.4,514.3 929.3,514.9 930.1,515.5 931.1,516.1 932.0,516.6 933.0,517.1 934.0,517.5 935.2,517.9 936.4,518.2 937.6,518.5 939.0,518.7 940.4,518.8 942.0,518.9" stroke="#845F48" stroke-width="0.90" stroke-opacity="1.00" fill="none" />
<polyline class="pl" points="910.8,487.3 912.4,487.3 913.8,487.3 915.2,487.5 916.4,487.6 917.6,487.8 918.8,488.0 919.8,488.2 920.8,488.5 921.7,488.8 922.7,489.1 923.5,489.4 924.4,489.7 925.2,490.0 926.0,490.4 926.8,490.7 927.6,491.0 928.4,491.4 929.3,491.7 930.1,492.0 931.1,492.3 932.0,492.6 933.0,492.9 934.0,493.1 935.2,493.3 936.4,493.5 937.6,493.6 939.0,493.7 940.4,493.8 942.0,493.8" stroke="#DBA746" stroke-width="0.90" stroke-opacity="1.00" fill="none" />
<polyline class="pl" points="910.8,479.5 912.4,479.4 913.8,479.3 915.2,479.2 916.4,478.9 917.6,478.6 918.8,478.3 919.8,477.9 920.8,477.5 921.7,477.0 922.7,476.5 923.5,476.0 924.4,475.5 925.2,475.0 926.0,474.4 926.8,473.9 927.6,473.3 928.4,472.8 929.3,472.2 930.1,471.7 931.1,471.2 932.0,470.8 933.0,470.4 934.0,470.0 935.2,469.6 936.4,469.3 937.6,469.1 939.0,468.9 940.4,468.8 942.0,468.8" stroke="#7FBF7F" stroke-width="0.90" stroke-opacity="1.00" fill="none" />
<text transform="translate(160.0,666.1)" font-size="19.80" font-family="Helvetica" fill="#BFBFBF" stroke="none" xml:space="preserve">CICERO   &#9679;   Data: UNFCCC (2025)</text>
<g>
  <rect x="123.0" y="651.4" width="34" height="17" fill="#FFF" stroke="none" opacity="0.01"/>
  <g transform="translate(124.0,652.4) scale(0.24)">
  <g><circle fill="#FFF" cx="37.79" cy="28.5" r="28.84"/>
     <circle fill="none" cx="37.79" cy="28.5" r="28.84" stroke="#BFBFBF" stroke-width="5.5"/>
     <path fill="#BFBFBF" d="M37.16,23.19 l-4.29,2.23c-0.458-0.951-1.02-1.62-1.69-2c-0.667-0.38-1.29-0.571-1.86-0.571c-2.86,0-4.29,1.89-4.29,5.66 c0,1.71,0.36,3.08,1.09,4.11c0.724,1.03,1.79,1.54,3.2,1.54c1.87,0,3.18-0.915,3.94-2.74l3.94,2 c-0.838,1.56-2,2.79-3.49,3.69c-1.48,0.896-3.12,1.34-4.91,1.34c-2.86,0-5.16-0.875-6.92-2.63 c-1.75-1.75-2.63-4.19-2.63-7.31c0-3.05,0.886-5.47,2.66-7.26c1.77-1.79,4.01-2.69,6.72-2.69 C32.6,18.56,35.44,20.1,37.16,23.19z
              M55.61,23.19l-4.23,2.23c-0.457-0.951-1.02-1.62-1.69-2 c-0.668-0.38-1.31-0.571-1.91-0.571c-2.86,0-4.29,1.89-4.29,5.66c0,1.71,0.363,3.08,1.09,4.11 c0.723,1.03,1.79,1.54,3.2,1.54c1.87,0,3.18-0.915,3.94-2.74l4,2c-0.875,1.56-2.06,2.79-3.54,3.69 c-1.49,0.9-3.11,1.34-4.86,1.34c-2.9,0-5.21-0.875-6.94-2.63c-1.74-1.75-2.6-4.19-2.6-7.31 c0-3.05,0.885-5.47,2.66-7.26c1.77-1.79,4.01-2.69,6.71-2.69C51.12,18.56,53.944,20.1,55.61,23.19z"/>
  </g></g>
  <g transform="translate(140.2,652.4) scale(0.24)">
  <g><circle fill="#FFF" cx="37.79" cy="28.5" r="28.84"/>
     <circle fill="none" cx="37.79" cy="28.5" r="28.84" stroke="#BFBFBF" stroke-width="5.5"/>
     <path fill="#BFBFBF" d="M46.129,20.557v13.085h-3.656v15.542h-9.944V33.643h-3.656V20.557 c0-0.572,0.2-1.057,0.599-1.457c0.401-0.399,0.887-0.6,1.457-0.6h13.144c0.533,0,1.01,0.2,1.428,0.6 C45.918,19.5,46.129,19.986,46.129,20.557z
              M33.042,12.329c0-3.008,1.485-4.514,4.458-4.514s4.457,1.504,4.457,4.514 c0,2.971-1.486,4.457-4.457,4.457S33.042,15.3,33.042,12.329z"/>
  </g></g>
</g>
</g>
</svg>
