<?xml version="1.0" encoding="UTF-8" standalone="no"?>
<!DOCTYPE svg PUBLIC "-//W3C//DTD SVG 1.1//EN" "http://www.w3.org/Graphics/SVG/1.1/DTD/svg11.dtd">
<svg width="100%" height="100%" viewBox="0 0 523 294" version="1.1" xmlns="http://www.w3.org/2000/svg" xmlns:xlink="http://www.w3.org/1999/xlink" xml:space="preserve" xmlns:serif="http://www.serif.com/" style="fill-rule:evenodd;clip-rule:evenodd;stroke-linejoin:round;stroke-miterlimit:10;">
    <g id="Artboard1" transform="matrix(1,0,0,1,-448.092,-274.632)">
        <rect x="568.592" y="274.632" width="281.479" height="293.651" style="fill:none;"/>
        <g transform="matrix(1,0,0,1,594.142,526.582)">
            <text x="0px" y="0px" style="font-family:'Helvetica', sans-serif;font-size:12px;fill:rgb(136,136,136);">−15</text>
        </g>
        <g transform="matrix(1,0,0,1,594.142,492.352)">
            <text x="0px" y="0px" style="font-family:'Helvetica', sans-serif;font-size:12px;fill:rgb(136,136,136);">−10</text>
        </g>
        <g transform="matrix(1,0,0,1,600.812,458.122)">
            <text x="0px" y="0px" style="font-family:'Helvetica', sans-serif;font-size:12px;fill:rgb(136,136,136);">−5</text>
        </g>
        <g transform="matrix(1,0,0,1,607.822,423.892)">
            <text x="0px" y="0px" style="font-family:'Helvetica', sans-serif;font-size:12px;fill:rgb(136,136,136);">0</text>
        </g>
        <g transform="matrix(1,0,0,1,607.822,389.662)">
            <text x="0px" y="0px" style="font-family:'Helvetica', sans-serif;font-size:12px;fill:rgb(136,136,136);">5</text>
        </g>
        <g transform="matrix(1,0,0,1,601.152,355.432)">
            <text x="0px" y="0px" style="font-family:'Helvetica', sans-serif;font-size:12px;fill:rgb(136,136,136);">10</text>
        </g>
        <g transform="matrix(1,0,0,1,601.152,321.202)">
            <text x="0px" y="0px" style="font-family:'Helvetica', sans-serif;font-size:12px;fill:rgb(136,136,136);">15</text>
        </g>
        <g transform="matrix(1,0,0,1,609.372,535.822)">
            <text x="0px" y="0px" style="font-family:'Helvetica', sans-serif;font-size:12px;fill:rgb(136,136,136);">1960</text>
        </g>
        <g transform="matrix(1,0,0,1,675.082,535.822)">
            <text x="0px" y="0px" style="font-family:'Helvetica', sans-serif;font-size:12px;fill:rgb(136,136,136);">1980</text>
        </g>
        <g transform="matrix(1,0,0,1,740.802,535.822)">
            <text x="0px" y="0px" style="font-family:'Helvetica', sans-serif;font-size:12px;fill:rgb(136,136,136);">2000</text>
        </g>
        <g transform="matrix(1,0,0,1,806.522,535.822)">
            <text x="0px" y="0px" style="font-family:'Helvetica', sans-serif;font-size:12px;fill:rgb(136,136,136);">2020</text>
        </g>
        <g transform="matrix(1,0,0,1,0.592047,0.631709)">
            <g transform="matrix(1,0,0,1,712.15,549.19)">
                <text x="0px" y="0px" style="font-family:'Helvetica', sans-serif;font-size:12px;fill:rgb(136,136,136);">Y</text>
            </g>
            <g transform="matrix(1,0,0,1,718.474,549.19)">
                <text x="0px" y="0px" style="font-family:'Helvetica', sans-serif;font-size:12px;fill:rgb(136,136,136);">ear</text>
            </g>
        </g>
        <g transform="matrix(0,-1,1,0,0.592047,0.631709)">
            <g transform="matrix(1,0,0,1,-477.15,585.6)">
                <text x="0px" y="0px" style="font-family:'Helvetica', sans-serif;font-size:12px;fill:rgb(136,136,136);">CO</text>
            </g>
            <g transform="matrix(1,0,0,1,-459.148,587.8)">
                <text x="0px" y="0px" style="font-family:'Helvetica', sans-serif;font-size:8px;fill:rgb(136,136,136);">2</text>
            </g>
            <g transform="matrix(1,0,0,1,-451.363,585.6)">
                <text x="0px" y="0px" style="font-family:'Helvetica', sans-serif;font-size:12px;fill:rgb(136,136,136);">Flux (GtCO</text>
            </g>
            <g transform="matrix(1,0,0,1,-390.683,587.8)">
                <text x="0px" y="0px" style="font-family:'Helvetica', sans-serif;font-size:8px;fill:rgb(136,136,136);">2</text>
            </g>
            <g transform="matrix(1,0,0,1,-383.59,585.6)">
                <text x="0px" y="0px" style="font-family:'Helvetica', sans-serif;font-size:12px;fill:rgb(136,136,136);">yr</text>
            </g>
            <g transform="matrix(1,0,0,1,-373.592,579.64)">
                <text x="0px" y="0px" style="font-family:'SymbolMT', 'Symbol', serif;font-size:8px;fill:rgb(136,136,136);">-</text>
            </g>
            <g transform="matrix(1,0,0,1,-369.2,579.64)">
                <text x="0px" y="0px" style="font-family:'Helvetica', sans-serif;font-size:8px;fill:rgb(136,136,136);">1</text>
            </g>
            <g transform="matrix(1,0,0,1,-364.75,585.6)">
                <text x="0px" y="0px" style="font-family:'Helvetica', sans-serif;font-size:12px;fill:rgb(136,136,136);">)</text>
            </g>
        </g>
        <g transform="matrix(1,0,0,1,0.592047,0.631709)">
            <g transform="matrix(1,0,0,1,618.83,305.5)">
                <text x="0px" y="0px" style="font-family:'Helvetica', sans-serif;font-size:12px;fill:rgb(136,136,136);">Budget Imbalance (B</text>
            </g>
            <g transform="matrix(1,0,0,1,730.892,307.7)">
                <text x="0px" y="0px" style="font-family:'Helvetica', sans-serif;font-size:8px;fill:rgb(136,136,136);">IM</text>
            </g>
            <g transform="matrix(1,0,0,1,739.781,305.5)">
                <text x="0px" y="0px" style="font-family:'Helvetica', sans-serif;font-size:12px;fill:rgb(136,136,136);">)</text>
            </g>
        </g>
        <g transform="matrix(1,0,0,1,0.592047,0.631709)">
            <g>
                <g transform="matrix(1,0,0,1,0,477.28)">
                    <path d="M618.83,44.36L829.13,44.36" style="fill:none;fill-rule:nonzero;stroke:rgb(235,235,235);stroke-width:1.07px;"/>
                </g>
                <g transform="matrix(1,0,0,1,0,408.82)">
                    <path d="M618.83,78.59L829.13,78.59" style="fill:none;fill-rule:nonzero;stroke:rgb(235,235,235);stroke-width:1.07px;"/>
                </g>
                <g transform="matrix(1,0,0,1,0,340.36)">
                    <path d="M618.83,112.82L829.13,112.82" style="fill:none;fill-rule:nonzero;stroke:rgb(235,235,235);stroke-width:1.07px;"/>
                </g>
                <g transform="matrix(1,0,0,1,0,271.9)">
                    <path d="M618.83,147.05L829.13,147.05" style="fill:none;fill-rule:nonzero;stroke:rgb(235,235,235);stroke-width:1.07px;"/>
                </g>
                <g transform="matrix(1,0,0,1,0,203.44)">
                    <path d="M618.83,181.28L829.13,181.28" style="fill:none;fill-rule:nonzero;stroke:rgb(235,235,235);stroke-width:1.07px;"/>
                </g>
                <g transform="matrix(1,0,0,1,0,134.98)">
                    <path d="M618.83,215.51L829.13,215.51" style="fill:none;fill-rule:nonzero;stroke:rgb(235,235,235);stroke-width:1.07px;"/>
                </g>
                <g transform="matrix(1,0,0,1,0,66.52)">
                    <path d="M618.83,249.74L829.13,249.74" style="fill:none;fill-rule:nonzero;stroke:rgb(235,235,235);stroke-width:1.07px;"/>
                </g>
                <g transform="matrix(1,0,0,1,0,279.03)">
                    <path d="M618.83,79.51L622.12,94.56L625.41,88.09L628.69,88.78L631.98,81.74L635.26,99.92L638.55,94.54L641.83,126.6L645.12,97.8L648.41,131.87L651.69,110.35L654.98,85.07L658.26,103.57L661.55,116.21L664.84,120.87L668.12,134.99L671.41,130.4L674.69,117.38L677.98,131.89L681.27,128.78L684.55,135.71L687.84,89.03L691.12,111.44L694.41,96L697.7,97.5L700.98,121.87L704.27,140.36L707.55,92.66L710.84,128.74L714.13,135.04L717.41,141.44L720.7,101.48L723.98,71.03L727.27,74.66L730.56,122.1L733.84,95.17L737.13,121.72L740.41,107.3L743.7,141.03L746.99,149.83L750.27,119.72L753.56,114.54L756.84,115.13L760.13,104.45L763.41,121.96L766.7,108.92L769.99,120.28L773.27,109.58L776.56,109.76L779.84,110.54L783.13,90.45L786.42,126.5L789.7,102.61L792.99,94.92L796.27,131.03L799.56,110.57L802.85,111.75L806.13,133.31L809.42,118.28L812.7,129.01L815.99,119.22L819.28,124.14L822.56,124.36L822.56,184.46L819.28,184.97L815.99,176.86L812.7,183.25L809.42,167.79L806.13,195.41L802.85,175.2L799.56,165.28L796.27,183.54L792.99,152.92L789.7,158.9L786.42,188.61L783.13,141.05L779.84,164.69L776.56,165.17L773.27,154.74L769.99,169.56L766.7,164L763.41,183.08L760.13,160.4L756.84,160.87L753.56,168.15L750.27,171.17L746.99,215.94L743.7,190.62L740.41,156.22L737.13,170.47L733.84,152.58L730.56,167.91L727.27,135.79L723.98,128.01L720.7,150.95L717.41,193.72L714.13,200.32L710.84,188.82L707.55,153.35L704.27,197.77L700.98,188.12L697.7,168.54L694.41,151.22L691.12,170.23L687.84,160.06L684.55,195.98L681.27,188.34L677.98,191.89L674.69,183.72L671.41,184.72L668.12,202.59L664.84,183.99L661.55,173.9L658.26,164.16L654.98,141.78L651.69,158.71L648.41,189.64L645.12,153.68L641.83,176.66L638.55,162.49L635.26,155.27L631.98,138.57L628.69,148.58L625.41,145.58L622.12,153.19L618.83,153.8L618.83,79.51Z" style="fill:rgb(255,65,35);fill-opacity:0.5;fill-rule:nonzero;"/>
                </g>
                <g transform="matrix(1,0,0,1,0,274.46)">
                    <path d="M618.83,121.23L622.12,128.45L625.41,121.41L628.69,123.25L631.98,114.72L635.26,132.17L638.55,133.08L641.83,156.2L645.12,130.31L648.41,165.32L651.69,139.1L654.98,118L658.26,138.43L661.55,149.63L664.84,157L668.12,173.36L671.41,162.13L674.69,155.12L677.98,166.46L681.27,163.13L684.55,170.42L687.84,129.11L691.12,145.4L694.41,128.18L697.7,137.59L700.98,159.56L704.27,173.63L707.55,127.58L710.84,163.35L714.13,172.25L717.41,172.15L720.7,130.79L723.98,104.09L727.27,109.8L730.56,149.57L733.84,128.45L737.13,150.66L740.41,136.33L743.7,170.39L746.99,187.45L750.27,150.01L753.56,145.91L756.84,142.57L760.13,136.99L763.41,157.09L766.7,141.03L769.99,149.49L773.27,136.73L776.56,142.04L779.84,142.18L783.13,120.32L786.42,162.12L789.7,135.32L792.99,128.49L796.27,161.85L799.56,142.49L802.85,148.04L806.13,168.93L809.42,147.61L812.7,160.7L815.99,152.61L819.28,159.12L822.56,158.98" style="fill:none;fill-rule:nonzero;stroke:black;stroke-width:1.07px;"/>
                </g>
                <g transform="matrix(0,1,1,0,691.76,-393.93)">
                    <path d="M825.85,132.13C824.77,132.13 823.89,133.01 823.89,134.09C823.89,135.16 824.77,136.04 825.85,136.04C826.92,136.04 827.8,135.16 827.8,134.09C827.8,133.01 826.92,132.13 825.85,132.13" style="fill:rgb(255,0,0);fill-rule:nonzero;stroke:rgb(255,0,0);stroke-width:0.71px;stroke-linecap:round;"/>
                </g>
                <g transform="matrix(1,0,0,1,0,226.64)">
                    <path d="M824.37,169.68L827.33,169.68" style="fill:none;fill-rule:nonzero;stroke:rgb(255,0,0);stroke-width:1.07px;"/>
                </g>
                <g transform="matrix(0,1,1,0,691.77,-393.93)">
                    <path d="M790.25,134.08L861.45,134.08" style="fill:none;fill-rule:nonzero;stroke:rgb(255,0,0);stroke-width:1.07px;"/>
                </g>
                <g transform="matrix(1,0,0,1,0,369.04)">
                    <path d="M824.37,98.48L827.33,98.48" style="fill:none;fill-rule:nonzero;stroke:rgb(255,0,0);stroke-width:1.07px;"/>
                </g>
            </g>
        </g>
        <g transform="matrix(0,-1,-1,0,766.472,1038.41)">
            <path d="M516.14,147.05L721.52,147.05" style="fill:none;fill-rule:nonzero;stroke:rgb(136,136,136);stroke-width:1.07px;"/>
        </g>
        <g transform="matrix(1,0,0,1,0.592047,477.912)">
            <path d="M616.09,44.36L618.83,44.36" style="fill:none;fill-rule:nonzero;stroke:rgb(136,136,136);stroke-width:1.07px;"/>
        </g>
        <g transform="matrix(1,0,0,1,0.592047,409.452)">
            <path d="M616.09,78.59L618.83,78.59" style="fill:none;fill-rule:nonzero;stroke:rgb(136,136,136);stroke-width:1.07px;"/>
        </g>
        <g transform="matrix(1,0,0,1,0.592047,340.992)">
            <path d="M616.09,112.82L618.83,112.82" style="fill:none;fill-rule:nonzero;stroke:rgb(136,136,136);stroke-width:1.07px;"/>
        </g>
        <g transform="matrix(1,0,0,1,0.592047,272.532)">
            <path d="M616.09,147.05L618.83,147.05" style="fill:none;fill-rule:nonzero;stroke:rgb(136,136,136);stroke-width:1.07px;"/>
        </g>
        <g transform="matrix(1,0,0,1,0.592047,204.072)">
            <path d="M616.09,181.28L618.83,181.28" style="fill:none;fill-rule:nonzero;stroke:rgb(136,136,136);stroke-width:1.07px;"/>
        </g>
        <g transform="matrix(1,0,0,1,0.592047,135.612)">
            <path d="M616.09,215.51L618.83,215.51" style="fill:none;fill-rule:nonzero;stroke:rgb(136,136,136);stroke-width:1.07px;"/>
        </g>
        <g transform="matrix(1,0,0,1,0.592047,67.1517)">
            <path d="M616.09,249.74L618.83,249.74" style="fill:none;fill-rule:nonzero;stroke:rgb(136,136,136);stroke-width:1.07px;"/>
        </g>
        <g transform="matrix(1,0,0,1,0.592047,477.912)">
            <path d="M618.83,44.36L829.13,44.36" style="fill:none;fill-rule:nonzero;stroke:rgb(136,136,136);stroke-width:1.07px;"/>
        </g>
        <g transform="matrix(0,-1,-1,0,665.702,1145.76)">
            <path d="M620.75,42.99L623.49,42.99" style="fill:none;fill-rule:nonzero;stroke:rgb(136,136,136);stroke-width:1.07px;"/>
        </g>
        <g transform="matrix(0,-1,-1,0,731.422,1211.48)">
            <path d="M686.47,42.99L689.21,42.99" style="fill:none;fill-rule:nonzero;stroke:rgb(136,136,136);stroke-width:1.07px;"/>
        </g>
        <g transform="matrix(0,-1,-1,0,797.142,1277.2)">
            <path d="M752.19,42.99L754.93,42.99" style="fill:none;fill-rule:nonzero;stroke:rgb(136,136,136);stroke-width:1.07px;"/>
        </g>
        <g transform="matrix(0,-1,-1,0,862.862,1342.92)">
            <path d="M817.91,42.99L820.65,42.99" style="fill:none;fill-rule:nonzero;stroke:rgb(136,136,136);stroke-width:1.07px;"/>
        </g>
    </g>
</svg>
