<svg version="1.1" xmlns="http://www.w3.org/2000/svg" xmlns:xlink="http://www.w3.org/1999/xlink" width="100%" height="100%" viewBox="0 0 1200.000 674.916">
<title>Annual Greenhouse Gas Emissions: Bulgaria</title>
<style type="text/css">
  #main {font-family:Helvetica,Arial,sans-serif; font-size:27.00px;
         fill-opacity:1; fill:#000000; stroke:none; stroke-linejoin:round; stroke-linecap:round; stroke-width:1.00;}
  .marker {stroke-opacity:0;fill-opacity:0;}
  .marker:hover {stroke-opacity:0.5; fill-opacity:1;}
  .ticklabel {font-size:27.00px;fill:#808080;stroke:none;font-family:Helvetica}
  .ytl {text-anchor:end;}
  .dp1 {pointer-events:none;font-size:70%;text-anchor:middle;fill:#000000;}
  .dp2 {pointer-events:none;font-size:70%;text-anchor:middle;fill:#FFFFFF;}
  .numtip {pointer-events:none;}
  .cc {opacity:0.25;}
.dl_fe {background-color:#FDFFDF;display:flex;margin:auto;align-items:center}
.dl_fe_p {font-size:20px;text-align:center;margin:3px}
.dl_el {display:none;pointer-events:none;}
.cc:hover + .dl_el {display:block;}
text:hover + .dl_el {display:block;}
</style>
<defs>
  <clipPath id="axis_clip"><rect x="145.8" y="54.2" width="761.2" height="532.8" /></clipPath>
  <path id="line_y" d="M 0,53.993 v 533.183" stroke="#262626" stroke-opacity="0.15" stroke-width="1.00"/>
  <path id="line_x" d="M 145.600,0 h 761.600" stroke="#262626" stroke-opacity="0.15" stroke-width="1.00"/>
  <path id="tick_y" d="M 145.600,0 h -6.000" stroke="#808080" stroke-width="0.90"/>
  <path id="tick_x" d="M 0,587.177 v 6.000" stroke="#808080" stroke-width="0.90"/>
</defs>
<g id="main">
<use xlink:href="#line_y" transform="translate(198.5,0)"/>
<use xlink:href="#line_y" transform="translate(304.3,0)"/>
<use xlink:href="#line_y" transform="translate(410.0,0)"/>
<use xlink:href="#line_y" transform="translate(515.8,0)"/>
<use xlink:href="#line_y" transform="translate(621.6,0)"/>
<use xlink:href="#line_y" transform="translate(727.4,0)"/>
<use xlink:href="#line_y" transform="translate(833.2,0)"/>
<use xlink:href="#line_y" transform="translate(896.6,0)"/>
<use xlink:href="#line_x" transform="translate(0,511.0)"/>
<use xlink:href="#line_x" transform="translate(0,358.7)"/>
<use xlink:href="#line_x" transform="translate(0,206.3)"/>
<use xlink:href="#line_x" transform="translate(0,54.0)"/>
<use xlink:href="#tick_y" transform="translate(0,511.0)"/>
<use xlink:href="#tick_y" transform="translate(0,358.7)"/>
<use xlink:href="#tick_y" transform="translate(0,206.3)"/>
<use xlink:href="#tick_y" transform="translate(0,54.0)"/>
<use xlink:href="#tick_x" transform="translate(198.5,0)"/>
<use xlink:href="#tick_x" transform="translate(304.3,0)"/>
<use xlink:href="#tick_x" transform="translate(410.0,0)"/>
<use xlink:href="#tick_x" transform="translate(515.8,0)"/>
<use xlink:href="#tick_x" transform="translate(621.6,0)"/>
<use xlink:href="#tick_x" transform="translate(727.4,0)"/>
<use xlink:href="#tick_x" transform="translate(833.2,0)"/>
<use xlink:href="#tick_x" transform="translate(896.6,0)"/>
<polyline points="145.6,53.993 145.6,587.177 907.2,587.177" stroke="#808080" stroke-width="0.90" fill="none"/>
<text class="ticklabel xtl" transform="translate(198.5,629.0)" text-anchor="middle">1990</text>
<text class="ticklabel xtl" transform="translate(304.3,629.0)" text-anchor="middle">1995</text>
<text class="ticklabel xtl" transform="translate(410.0,629.0)" text-anchor="middle">2000</text>
<text class="ticklabel xtl" transform="translate(515.8,629.0)" text-anchor="middle">2005</text>
<text class="ticklabel xtl" transform="translate(621.6,629.0)" text-anchor="middle">2010</text>
<text class="ticklabel xtl" transform="translate(727.4,629.0)" text-anchor="middle">2015</text>
<text class="ticklabel xtl" transform="translate(833.2,629.0)" text-anchor="middle">2020</text>
<text class="ticklabel xtl" transform="translate(896.6,629.0)" text-anchor="middle">23</text>
<text class="ticklabel ytl" transform="translate(128.8,519.1)">0</text>
<text class="ticklabel ytl" transform="translate(128.8,366.8)">40</text>
<text class="ticklabel ytl" transform="translate(128.8,214.4)">80</text>
<text class="ticklabel ytl" transform="translate(128.8,62.1)">120 Mt</text>
<g stroke="#000" stroke-width="0.90" fill="#DBA746"  clip-path="url(#axis_clip)">
  <polygon class="pl" points="147.7,78.3 147.7,78.3 164.6,78.3 164.6,78.3 147.7,78.3"/>
  <polygon class="pl" points="190.0,134.3 190.0,134.3 207.0,134.3 207.0,134.3 190.0,134.3"/>
  <polygon class="pl" points="211.2,202.8 211.2,202.9 228.1,202.9 228.1,202.8 211.2,202.8"/>
  <polygon class="pl" points="232.3,223.9 232.3,223.9 249.3,223.9 249.3,223.9 232.3,223.9"/>
  <polygon class="pl" points="253.5,226.5 253.5,226.5 270.4,226.5 270.4,226.5 253.5,226.5"/>
  <polygon class="pl" points="274.6,242.0 274.6,242.0 291.6,242.0 291.6,242.0 274.6,242.0"/>
  <polygon class="pl" points="295.8,236.1 295.8,236.1 312.7,236.1 312.7,236.1 295.8,236.1"/>
  <polygon class="pl" points="317.0,234.4 317.0,234.5 333.9,234.5 333.9,234.4 317.0,234.4"/>
  <polygon class="pl" points="338.1,246.7 338.1,246.7 355.0,246.7 355.0,246.7 338.1,246.7"/>
  <polygon class="pl" points="359.3,262.1 359.3,262.1 376.2,262.1 376.2,262.1 359.3,262.1"/>
  <polygon class="pl" points="380.4,288.8 380.4,288.9 397.4,288.9 397.4,288.8 380.4,288.8"/>
  <polygon class="pl" points="401.6,292.1 401.6,292.2 418.5,292.2 418.5,292.1 401.6,292.1"/>
  <polygon class="pl" points="422.7,281.1 422.7,281.3 439.7,281.3 439.7,281.1 422.7,281.1"/>
  <polygon class="pl" points="443.9,290.9 443.9,291.2 460.8,291.2 460.8,290.9 443.9,290.9"/>
  <polygon class="pl" points="465.0,272.3 465.0,272.6 482.0,272.6 482.0,272.3 465.0,272.3"/>
  <polygon class="pl" points="486.2,275.6 486.2,276.1 503.1,276.1 503.1,275.6 486.2,275.6"/>
  <polygon class="pl" points="507.4,273.6 507.4,274.3 524.3,274.3 524.3,273.6 507.4,273.6"/>
  <polygon class="pl" points="528.5,270.7 528.5,271.7 545.4,271.7 545.4,270.7 528.5,270.7"/>
  <polygon class="pl" points="549.7,256.1 549.7,257.2 566.6,257.2 566.6,256.1 549.7,256.1"/>
  <polygon class="pl" points="570.8,261.2 570.8,262.8 587.8,262.8 587.8,261.2 570.8,261.2"/>
  <polygon class="pl" points="592.0,295.1 592.0,296.7 608.9,296.7 608.9,295.1 592.0,295.1"/>
  <polygon class="pl" points="613.1,285.0 613.1,286.6 630.1,286.6 630.1,285.0 613.1,285.0"/>
  <polygon class="pl" points="634.3,264.5 634.3,266.3 651.2,266.3 651.2,264.5 634.3,264.5"/>
  <polygon class="pl" points="655.4,283.8 655.4,285.7 672.4,285.7 672.4,283.8 655.4,283.8"/>
  <polygon class="pl" points="676.6,304.4 676.6,306.6 693.5,306.6 693.5,304.4 676.6,304.4"/>
  <polygon class="pl" points="697.8,292.9 697.8,295.3 714.7,295.3 714.7,292.9 697.8,292.9"/>
  <polygon class="pl" points="718.9,280.9 718.9,283.6 735.8,283.6 735.8,280.9 718.9,280.9"/>
  <polygon class="pl" points="740.1,290.9 740.1,293.7 757.0,293.7 757.0,290.9 740.1,290.9"/>
  <polygon class="pl" points="761.2,284.1 761.2,286.9 778.2,286.9 778.2,284.1 761.2,284.1"/>
  <polygon class="pl" points="782.4,300.7 782.4,303.5 799.3,303.5 799.3,300.7 782.4,300.7"/>
  <polygon class="pl" points="803.5,305.7 803.5,308.7 820.5,308.7 820.5,305.7 803.5,305.7"/>
  <polygon class="pl" points="824.7,328.5 824.7,331.5 841.6,331.5 841.6,328.5 824.7,328.5"/>
  <polygon class="pl" points="845.8,305.2 845.8,308.2 862.8,308.2 862.8,305.2 845.8,305.2"/>
  <polygon class="pl" points="867.0,288.6 867.0,291.3 883.9,291.3 883.9,288.6 867.0,288.6"/>
  <polygon class="pl" points="888.2,338.2 888.2,340.7 905.1,340.7 905.1,338.2 888.2,338.2"/>
</g>
<g stroke="#000" stroke-width="0.90" fill="#845F48"  clip-path="url(#axis_clip)">
  <polygon class="pl" points="147.7,78.3 147.7,112.1 164.6,112.1 164.6,78.3 147.7,78.3"/>
  <polygon class="pl" points="190.0,134.3 190.0,163.4 207.0,163.4 207.0,134.3 190.0,134.3"/>
  <polygon class="pl" points="211.2,202.9 211.2,225.4 228.1,225.4 228.1,202.9 211.2,202.9"/>
  <polygon class="pl" points="232.3,223.9 232.3,242.8 249.3,242.8 249.3,223.9 232.3,223.9"/>
  <polygon class="pl" points="253.5,226.5 253.5,243.6 270.4,243.6 270.4,226.5 253.5,226.5"/>
  <polygon class="pl" points="274.6,242.0 274.6,258.8 291.6,258.8 291.6,242.0 274.6,242.0"/>
  <polygon class="pl" points="295.8,236.1 295.8,252.5 312.7,252.5 312.7,236.1 295.8,236.1"/>
  <polygon class="pl" points="317.0,234.5 317.0,250.4 333.9,250.4 333.9,234.5 317.0,234.5"/>
  <polygon class="pl" points="338.1,246.7 338.1,261.8 355.0,261.8 355.0,246.7 338.1,246.7"/>
  <polygon class="pl" points="359.3,262.1 359.3,274.5 376.2,274.5 376.2,262.1 359.3,262.1"/>
  <polygon class="pl" points="380.4,288.9 380.4,301.8 397.4,301.8 397.4,288.9 380.4,288.9"/>
  <polygon class="pl" points="401.6,292.2 401.6,305.4 418.5,305.4 418.5,292.2 401.6,292.2"/>
  <polygon class="pl" points="422.7,281.3 422.7,294.7 439.7,294.7 439.7,281.3 422.7,281.3"/>
  <polygon class="pl" points="443.9,291.2 443.9,304.4 460.8,304.4 460.8,291.2 443.9,291.2"/>
  <polygon class="pl" points="465.0,272.6 465.0,285.2 482.0,285.2 482.0,272.6 465.0,272.6"/>
  <polygon class="pl" points="486.2,276.1 486.2,290.6 503.1,290.6 503.1,276.1 486.2,276.1"/>
  <polygon class="pl" points="507.4,274.3 507.4,288.2 524.3,288.2 524.3,274.3 507.4,274.3"/>
  <polygon class="pl" points="528.5,271.7 528.5,284.1 545.4,284.1 545.4,271.7 528.5,271.7"/>
  <polygon class="pl" points="549.7,257.2 549.7,269.6 566.6,269.6 566.6,257.2 549.7,257.2"/>
  <polygon class="pl" points="570.8,262.8 570.8,276.1 587.8,276.1 587.8,262.8 570.8,262.8"/>
  <polygon class="pl" points="592.0,296.7 592.0,308.6 608.9,308.6 608.9,296.7 592.0,296.7"/>
  <polygon class="pl" points="613.1,286.6 613.1,300.2 630.1,300.2 630.1,286.6 613.1,286.6"/>
  <polygon class="pl" points="634.3,266.3 634.3,278.7 651.2,278.7 651.2,266.3 634.3,266.3"/>
  <polygon class="pl" points="655.4,285.7 655.4,298.4 672.4,298.4 672.4,285.7 655.4,285.7"/>
  <polygon class="pl" points="676.6,306.6 676.6,320.5 693.5,320.5 693.5,306.6 676.6,306.6"/>
  <polygon class="pl" points="697.8,295.3 697.8,310.8 714.7,310.8 714.7,295.3 697.8,295.3"/>
  <polygon class="pl" points="718.9,283.6 718.9,299.4 735.8,299.4 735.8,283.6 718.9,283.6"/>
  <polygon class="pl" points="740.1,293.7 740.1,310.7 757.0,310.7 757.0,293.7 740.1,293.7"/>
  <polygon class="pl" points="761.2,286.9 761.2,303.2 778.2,303.2 778.2,286.9 761.2,286.9"/>
  <polygon class="pl" points="782.4,303.5 782.4,319.5 799.3,319.5 799.3,303.5 782.4,303.5"/>
  <polygon class="pl" points="803.5,308.7 803.5,325.6 820.5,325.6 820.5,308.7 803.5,308.7"/>
  <polygon class="pl" points="824.7,331.5 824.7,347.4 841.6,347.4 841.6,331.5 824.7,331.5"/>
  <polygon class="pl" points="845.8,308.2 845.8,324.6 862.8,324.6 862.8,308.2 845.8,308.2"/>
  <polygon class="pl" points="867.0,291.3 867.0,307.3 883.9,307.3 883.9,291.3 867.0,291.3"/>
  <polygon class="pl" points="888.2,340.7 888.2,356.8 905.1,356.8 905.1,340.7 888.2,340.7"/>
</g>
<g stroke="#000" stroke-width="0.90" fill="#4A89E8"  clip-path="url(#axis_clip)">
  <polygon class="pl" points="147.7,112.1 147.7,170.0 164.6,170.0 164.6,112.1 147.7,112.1"/>
  <polygon class="pl" points="190.0,163.4 190.0,219.1 207.0,219.1 207.0,163.4 190.0,163.4"/>
  <polygon class="pl" points="211.2,225.4 211.2,276.7 228.1,276.7 228.1,225.4 211.2,225.4"/>
  <polygon class="pl" points="232.3,242.8 232.3,292.6 249.3,292.6 249.3,242.8 232.3,242.8"/>
  <polygon class="pl" points="253.5,243.6 253.5,288.6 270.4,288.6 270.4,243.6 253.5,243.6"/>
  <polygon class="pl" points="274.6,258.8 274.6,296.3 291.6,296.3 291.6,258.8 274.6,258.8"/>
  <polygon class="pl" points="295.8,252.5 295.8,290.4 312.7,290.4 312.7,252.5 295.8,252.5"/>
  <polygon class="pl" points="317.0,250.4 317.0,288.4 333.9,288.4 333.9,250.4 317.0,250.4"/>
  <polygon class="pl" points="338.1,261.8 338.1,298.5 355.0,298.5 355.0,261.8 338.1,261.8"/>
  <polygon class="pl" points="359.3,274.5 359.3,308.7 376.2,308.7 376.2,274.5 359.3,274.5"/>
  <polygon class="pl" points="380.4,301.8 380.4,334.4 397.4,334.4 397.4,301.8 380.4,301.8"/>
  <polygon class="pl" points="401.6,305.4 401.6,337.7 418.5,337.7 418.5,305.4 401.6,305.4"/>
  <polygon class="pl" points="422.7,294.7 422.7,324.3 439.7,324.3 439.7,294.7 422.7,294.7"/>
  <polygon class="pl" points="443.9,304.4 443.9,335.3 460.8,335.3 460.8,304.4 443.9,304.4"/>
  <polygon class="pl" points="465.0,285.2 465.0,318.7 482.0,318.7 482.0,285.2 465.0,285.2"/>
  <polygon class="pl" points="486.2,290.6 486.2,322.3 503.1,322.3 503.1,290.6 486.2,290.6"/>
  <polygon class="pl" points="507.4,288.2 507.4,318.3 524.3,318.3 524.3,288.2 507.4,288.2"/>
  <polygon class="pl" points="528.5,284.1 528.5,313.6 545.4,313.6 545.4,284.1 528.5,284.1"/>
  <polygon class="pl" points="549.7,269.6 549.7,299.0 566.6,299.0 566.6,269.6 549.7,269.6"/>
  <polygon class="pl" points="570.8,276.1 570.8,305.3 587.8,305.3 587.8,276.1 570.8,276.1"/>
  <polygon class="pl" points="592.0,308.6 592.0,336.8 608.9,336.8 608.9,308.6 592.0,308.6"/>
  <polygon class="pl" points="613.1,300.2 613.1,328.9 630.1,328.9 630.1,300.2 613.1,300.2"/>
  <polygon class="pl" points="634.3,278.7 634.3,308.7 651.2,308.7 651.2,278.7 634.3,278.7"/>
  <polygon class="pl" points="655.4,298.4 655.4,327.1 672.4,327.1 672.4,298.4 655.4,298.4"/>
  <polygon class="pl" points="676.6,320.5 676.6,348.8 693.5,348.8 693.5,320.5 676.6,320.5"/>
  <polygon class="pl" points="697.8,310.8 697.8,339.0 714.7,339.0 714.7,310.8 697.8,310.8"/>
  <polygon class="pl" points="718.9,299.4 718.9,327.7 735.8,327.7 735.8,299.4 718.9,299.4"/>
  <polygon class="pl" points="740.1,310.7 740.1,338.3 757.0,338.3 757.0,310.7 740.1,310.7"/>
  <polygon class="pl" points="761.2,303.2 761.2,330.3 778.2,330.3 778.2,303.2 761.2,303.2"/>
  <polygon class="pl" points="782.4,319.5 782.4,345.3 799.3,345.3 799.3,319.5 782.4,319.5"/>
  <polygon class="pl" points="803.5,325.6 803.5,350.3 820.5,350.3 820.5,325.6 803.5,325.6"/>
  <polygon class="pl" points="824.7,347.4 824.7,371.7 841.6,371.7 841.6,347.4 824.7,347.4"/>
  <polygon class="pl" points="845.8,324.6 845.8,349.7 862.8,349.7 862.8,324.6 845.8,324.6"/>
  <polygon class="pl" points="867.0,307.3 867.0,332.3 883.9,332.3 883.9,307.3 867.0,307.3"/>
  <polygon class="pl" points="888.2,356.8 888.2,379.6 905.1,379.6 905.1,356.8 888.2,356.8"/>
</g>
<g stroke="#000" stroke-width="0.90" fill="#FF7F61"  clip-path="url(#axis_clip)">
  <polygon class="pl" points="147.7,170.0 147.7,511.0 164.6,511.0 164.6,170.0 147.7,170.0"/>
  <polygon class="pl" points="190.0,219.1 190.0,511.0 207.0,511.0 207.0,219.1 190.0,219.1"/>
  <polygon class="pl" points="211.2,276.7 211.2,511.0 228.1,511.0 228.1,276.7 211.2,276.7"/>
  <polygon class="pl" points="232.3,292.6 232.3,511.0 249.3,511.0 249.3,292.6 232.3,292.6"/>
  <polygon class="pl" points="253.5,288.6 253.5,511.0 270.4,511.0 270.4,288.6 253.5,288.6"/>
  <polygon class="pl" points="274.6,296.3 274.6,511.0 291.6,511.0 291.6,296.3 274.6,296.3"/>
  <polygon class="pl" points="295.8,290.4 295.8,511.0 312.7,511.0 312.7,290.4 295.8,290.4"/>
  <polygon class="pl" points="317.0,288.4 317.0,511.0 333.9,511.0 333.9,288.4 317.0,288.4"/>
  <polygon class="pl" points="338.1,298.5 338.1,511.0 355.0,511.0 355.0,298.5 338.1,298.5"/>
  <polygon class="pl" points="359.3,308.7 359.3,511.0 376.2,511.0 376.2,308.7 359.3,308.7"/>
  <polygon class="pl" points="380.4,334.4 380.4,511.0 397.4,511.0 397.4,334.4 380.4,334.4"/>
  <polygon class="pl" points="401.6,337.7 401.6,511.0 418.5,511.0 418.5,337.7 401.6,337.7"/>
  <polygon class="pl" points="422.7,324.3 422.7,511.0 439.7,511.0 439.7,324.3 422.7,324.3"/>
  <polygon class="pl" points="443.9,335.3 443.9,511.0 460.8,511.0 460.8,335.3 443.9,335.3"/>
  <polygon class="pl" points="465.0,318.7 465.0,511.0 482.0,511.0 482.0,318.7 465.0,318.7"/>
  <polygon class="pl" points="486.2,322.3 486.2,511.0 503.1,511.0 503.1,322.3 486.2,322.3"/>
  <polygon class="pl" points="507.4,318.3 507.4,511.0 524.3,511.0 524.3,318.3 507.4,318.3"/>
  <polygon class="pl" points="528.5,313.6 528.5,511.0 545.4,511.0 545.4,313.6 528.5,313.6"/>
  <polygon class="pl" points="549.7,299.0 549.7,511.0 566.6,511.0 566.6,299.0 549.7,299.0"/>
  <polygon class="pl" points="570.8,305.3 570.8,511.0 587.8,511.0 587.8,305.3 570.8,305.3"/>
  <polygon class="pl" points="592.0,336.8 592.0,511.0 608.9,511.0 608.9,336.8 592.0,336.8"/>
  <polygon class="pl" points="613.1,328.9 613.1,511.0 630.1,511.0 630.1,328.9 613.1,328.9"/>
  <polygon class="pl" points="634.3,308.7 634.3,511.0 651.2,511.0 651.2,308.7 634.3,308.7"/>
  <polygon class="pl" points="655.4,327.1 655.4,511.0 672.4,511.0 672.4,327.1 655.4,327.1"/>
  <polygon class="pl" points="676.6,348.8 676.6,511.0 693.5,511.0 693.5,348.8 676.6,348.8"/>
  <polygon class="pl" points="697.8,339.0 697.8,511.0 714.7,511.0 714.7,339.0 697.8,339.0"/>
  <polygon class="pl" points="718.9,327.7 718.9,511.0 735.8,511.0 735.8,327.7 718.9,327.7"/>
  <polygon class="pl" points="740.1,338.3 740.1,511.0 757.0,511.0 757.0,338.3 740.1,338.3"/>
  <polygon class="pl" points="761.2,330.3 761.2,511.0 778.2,511.0 778.2,330.3 761.2,330.3"/>
  <polygon class="pl" points="782.4,345.3 782.4,511.0 799.3,511.0 799.3,345.3 782.4,345.3"/>
  <polygon class="pl" points="803.5,350.3 803.5,511.0 820.5,511.0 820.5,350.3 803.5,350.3"/>
  <polygon class="pl" points="824.7,371.7 824.7,511.0 841.6,511.0 841.6,371.7 824.7,371.7"/>
  <polygon class="pl" points="845.8,349.7 845.8,511.0 862.8,511.0 862.8,349.7 845.8,349.7"/>
  <polygon class="pl" points="867.0,332.3 867.0,511.0 883.9,511.0 883.9,332.3 867.0,332.3"/>
  <polygon class="pl" points="888.2,379.6 888.2,511.0 905.1,511.0 905.1,379.6 888.2,379.6"/>
</g>
<g stroke="#000" stroke-width="0.90" fill="#7FBF7F"  clip-path="url(#axis_clip)">
  <polygon class="pl" points="147.7,576.3 147.7,511.0 164.6,511.0 164.6,576.3 147.7,576.3"/>
  <polygon class="pl" points="190.0,576.7 190.0,511.0 207.0,511.0 207.0,576.7 190.0,576.7"/>
  <polygon class="pl" points="211.2,576.5 211.2,511.0 228.1,511.0 228.1,576.5 211.2,576.5"/>
  <polygon class="pl" points="232.3,574.2 232.3,511.0 249.3,511.0 249.3,574.2 232.3,574.2"/>
  <polygon class="pl" points="253.5,574.9 253.5,511.0 270.4,511.0 270.4,574.9 253.5,574.9"/>
  <polygon class="pl" points="274.6,575.0 274.6,511.0 291.6,511.0 291.6,575.0 274.6,575.0"/>
  <polygon class="pl" points="295.8,575.1 295.8,511.0 312.7,511.0 312.7,575.1 295.8,575.1"/>
  <polygon class="pl" points="317.0,572.4 317.0,511.0 333.9,511.0 333.9,572.4 317.0,572.4"/>
  <polygon class="pl" points="338.1,572.8 338.1,511.0 355.0,511.0 355.0,572.8 338.1,572.8"/>
  <polygon class="pl" points="359.3,571.8 359.3,511.0 376.2,511.0 376.2,571.8 359.3,571.8"/>
  <polygon class="pl" points="380.4,571.1 380.4,511.0 397.4,511.0 397.4,571.1 380.4,571.1"/>
  <polygon class="pl" points="401.6,574.8 401.6,511.0 418.5,511.0 418.5,574.8 401.6,574.8"/>
  <polygon class="pl" points="422.7,564.3 422.7,511.0 439.7,511.0 439.7,564.3 422.7,564.3"/>
  <polygon class="pl" points="443.9,565.3 443.9,511.0 460.8,511.0 460.8,565.3 443.9,565.3"/>
  <polygon class="pl" points="465.0,564.0 465.0,511.0 482.0,511.0 482.0,564.0 465.0,564.0"/>
  <polygon class="pl" points="486.2,566.5 486.2,511.0 503.1,511.0 503.1,566.5 486.2,566.5"/>
  <polygon class="pl" points="507.4,570.4 507.4,511.0 524.3,511.0 524.3,570.4 507.4,570.4"/>
  <polygon class="pl" points="528.5,558.8 528.5,511.0 545.4,511.0 545.4,558.8 528.5,558.8"/>
  <polygon class="pl" points="549.7,562.0 549.7,511.0 566.6,511.0 566.6,562.0 549.7,562.0"/>
  <polygon class="pl" points="570.8,556.3 570.8,511.0 587.8,511.0 587.8,556.3 570.8,556.3"/>
  <polygon class="pl" points="592.0,557.0 592.0,511.0 608.9,511.0 608.9,557.0 592.0,557.0"/>
  <polygon class="pl" points="613.1,554.8 613.1,511.0 630.1,511.0 630.1,554.8 613.1,554.8"/>
  <polygon class="pl" points="634.3,542.4 634.3,511.0 651.2,511.0 651.2,542.4 634.3,542.4"/>
  <polygon class="pl" points="655.4,540.7 655.4,511.0 672.4,511.0 672.4,540.7 655.4,540.7"/>
  <polygon class="pl" points="676.6,537.0 676.6,511.0 693.5,511.0 693.5,537.0 676.6,537.0"/>
  <polygon class="pl" points="697.8,541.8 697.8,511.0 714.7,511.0 714.7,541.8 697.8,541.8"/>
  <polygon class="pl" points="718.9,540.1 718.9,511.0 735.8,511.0 735.8,540.1 718.9,540.1"/>
  <polygon class="pl" points="740.1,547.0 740.1,511.0 757.0,511.0 757.0,547.0 740.1,547.0"/>
  <polygon class="pl" points="761.2,546.9 761.2,511.0 778.2,511.0 778.2,546.9 761.2,546.9"/>
  <polygon class="pl" points="782.4,547.2 782.4,511.0 799.3,511.0 799.3,547.2 782.4,547.2"/>
  <polygon class="pl" points="803.5,546.1 803.5,511.0 820.5,511.0 820.5,546.1 803.5,546.1"/>
  <polygon class="pl" points="824.7,546.3 824.7,511.0 841.6,511.0 841.6,546.3 824.7,546.3"/>
  <polygon class="pl" points="845.8,546.1 845.8,511.0 862.8,511.0 862.8,546.1 845.8,546.1"/>
  <polygon class="pl" points="867.0,545.9 867.0,511.0 883.9,511.0 883.9,545.9 867.0,545.9"/>
  <polygon class="pl" points="888.2,543.8 888.2,511.0 905.1,511.0 905.1,543.8 888.2,543.8"/>
</g>
<polyline class="pl" points="156.2,143.6 198.5,200.0 219.6,268.4 240.8,287.1 262.0,290.4 283.1,306.0 304.3,300.2 325.4,295.8 346.6,308.5 367.7,322.9 388.9,348.9 410.0,355.9 431.2,334.4 452.4,345.2 473.5,325.3 494.7,331.1 515.8,333.0 537.0,318.5 558.1,307.1 579.3,306.5 600.4,341.0 621.6,328.8 642.8,295.9 663.9,313.5 685.1,330.4 706.2,323.7 727.4,310.0 748.5,326.9 769.7,320.0 790.8,336.9 812.0,340.8 833.2,363.8 854.3,340.3 875.5,323.5 896.6,371.0" stroke="#000" stroke-width="5.40" stroke-opacity="1.00" fill="none" clip-path="url(#axis_clip)"/>
<g class="pl" fill="#FFF" stroke="#000" stroke-width="0.900">
  <circle cx="156.2" cy="143.6" r="2.2" />
  <circle cx="219.6" cy="268.4" r="2.2" />
  <circle cx="240.8" cy="287.1" r="2.2" />
  <circle cx="262.0" cy="290.4" r="2.2" />
  <circle cx="283.1" cy="306.0" r="2.2" />
  <circle cx="304.3" cy="300.2" r="2.2" />
  <circle cx="325.4" cy="295.8" r="2.2" />
  <circle cx="346.6" cy="308.5" r="2.2" />
  <circle cx="367.7" cy="322.9" r="2.2" />
  <circle cx="388.9" cy="348.9" r="2.2" />
  <circle cx="431.2" cy="334.4" r="2.2" />
  <circle cx="452.4" cy="345.2" r="2.2" />
  <circle cx="473.5" cy="325.3" r="2.2" />
  <circle cx="494.7" cy="331.1" r="2.2" />
  <circle cx="515.8" cy="333.0" r="2.2" />
  <circle cx="537.0" cy="318.5" r="2.2" />
  <circle cx="558.1" cy="307.1" r="2.2" />
  <circle cx="579.3" cy="306.5" r="2.2" />
  <circle cx="600.4" cy="341.0" r="2.2" />
  <circle cx="642.8" cy="295.9" r="2.2" />
  <circle cx="663.9" cy="313.5" r="2.2" />
  <circle cx="685.1" cy="330.4" r="2.2" />
  <circle cx="706.2" cy="323.7" r="2.2" />
  <circle cx="727.4" cy="310.0" r="2.2" />
  <circle cx="748.5" cy="326.9" r="2.2" />
  <circle cx="769.7" cy="320.0" r="2.2" />
  <circle cx="790.8" cy="336.9" r="2.2" />
  <circle cx="812.0" cy="340.8" r="2.2" />
  <circle cx="854.3" cy="340.3" r="2.2" />
  <circle cx="875.5" cy="323.5" r="2.2" />
  <circle cx="896.6" cy="371.0" r="2.2" />
</g>
<g class="pl" fill="#FFF" stroke="#000" stroke-width="0.900">
  <circle cx="198.5" cy="200.0" r="5.4" />
  <circle cx="410.0" cy="355.9" r="5.4" />
  <circle cx="621.6" cy="328.8" r="5.4" />
  <circle cx="833.2" cy="363.8" r="5.4" />
</g>
<text transform="translate(145.6,47.2)" dy="0.0" font-size="27.00" fill="#808080" stroke="none">Annual Greenhouse Gas Emissions: Bulgaria</text>
<text transform="translate(130.0,81.7)" dy="8.1" font-size="27.00" fill="#808080" stroke="none" text-anchor="end">CO<tspan dy="0.2em"><tspan style="font-size:70%">2</tspan></tspan><tspan dy="-0.2em">e</tspan></text>
<text transform="translate(945.6,393.6)" dy="7.6" font-size="25.20" fill="#000" stroke="none">-61.9% since 1988</text>
<text transform="translate(945.6,445.3)" dy="7.6" font-size="25.20" fill="#FF7F61" stroke="none">Fossil CO<tspan dy="0.2em"><tspan style="font-size:70%">2</tspan></tspan><tspan dy="-0.2em"></tspan></text>
<text transform="translate(945.6,369.1)" dy="7.6" font-size="25.20" fill="#4A89E8" stroke="none">CH<tspan dy="0.2em"><tspan style="font-size:70%">4</tspan></tspan><tspan dy="-0.2em"></tspan></text>
<text transform="translate(945.6,344.6)" dy="7.6" font-size="25.20" fill="#845F48" stroke="none">N<tspan dy="0.2em"><tspan style="font-size:70%">2</tspan></tspan><tspan dy="-0.2em">O</tspan></text>
<text transform="translate(945.6,320.1)" dy="7.6" font-size="25.20" fill="#DBA746" stroke="none">F-gas</text>
<text transform="translate(945.6,527.4)" dy="7.6" font-size="25.20" fill="#7FBF7F" stroke="none">LULUCF</text>
<polyline class="pl" points="910.8,371.0 912.4,371.1 913.8,371.3 915.2,371.7 916.4,372.2 917.6,372.8 918.8,373.5 919.8,374.3 920.8,375.2 921.7,376.2 922.7,377.2 923.5,378.3 924.4,379.4 925.2,380.6 926.0,381.7 926.8,382.9 927.6,384.0 928.4,385.2 929.3,386.3 930.1,387.4 931.1,388.4 932.0,389.4 933.0,390.3 934.0,391.1 935.2,391.8 936.4,392.4 937.6,392.9 939.0,393.3 940.4,393.5 942.0,393.6" stroke="#000" stroke-width="0.90" stroke-opacity="1.00" fill="none" />
<polyline class="pl" points="910.8,368.2 912.4,368.2 913.8,368.2 915.2,368.2 916.4,368.3 917.6,368.3 918.8,368.3 919.8,368.3 920.8,368.4 921.7,368.4 922.7,368.5 923.5,368.5 924.4,368.5 925.2,368.6 926.0,368.6 926.8,368.7 927.6,368.7 928.4,368.8 929.3,368.8 930.1,368.9 931.1,368.9 932.0,368.9 933.0,369.0 934.0,369.0 935.2,369.0 936.4,369.1 937.6,369.1 939.0,369.1 940.4,369.1 942.0,369.1" stroke="#4A89E8" stroke-width="0.90" stroke-opacity="1.00" fill="none" />
<polyline class="pl" points="910.8,348.8 912.4,348.7 913.8,348.7 915.2,348.6 916.4,348.5 917.6,348.4 918.8,348.3 919.8,348.2 920.8,348.0 921.7,347.8 922.7,347.6 923.5,347.4 924.4,347.2 925.2,347.0 926.0,346.8 926.8,346.6 927.6,346.4 928.4,346.2 929.3,346.0 930.1,345.8 931.1,345.6 932.0,345.4 933.0,345.2 934.0,345.1 935.2,344.9 936.4,344.8 937.6,344.7 939.0,344.7 940.4,344.6 942.0,344.6" stroke="#845F48" stroke-width="0.90" stroke-opacity="1.00" fill="none" />
<polyline class="pl" points="910.8,339.5 912.4,339.4 913.8,339.2 915.2,338.9 916.4,338.5 917.6,337.9 918.8,337.3 919.8,336.6 920.8,335.9 921.7,335.0 922.7,334.2 923.5,333.2 924.4,332.3 925.2,331.3 926.0,330.3 926.8,329.3 927.6,328.3 928.4,327.3 929.3,326.4 930.1,325.4 931.1,324.6 932.0,323.7 933.0,323.0 934.0,322.3 935.2,321.6 936.4,321.1 937.6,320.7 939.0,320.4 940.4,320.2 942.0,320.1" stroke="#DBA746" stroke-width="0.90" stroke-opacity="1.00" fill="none" />
<text transform="translate(160.0,666.1)" font-size="19.80" font-family="Helvetica" fill="#BFBFBF" stroke="none" xml:space="preserve">CICERO   &#9679;   Data: UNFCCC (2025)</text>
<g>
  <rect x="123.0" y="651.4" width="34" height="17" fill="#FFF" stroke="none" opacity="0.01"/>
  <g transform="translate(124.0,652.4) scale(0.24)">
  <g><circle fill="#FFF" cx="37.79" cy="28.5" r="28.84"/>
     <circle fill="none" cx="37.79" cy="28.5" r="28.84" stroke="#BFBFBF" stroke-width="5.5"/>
     <path fill="#BFBFBF" d="M37.16,23.19 l-4.29,2.23c-0.458-0.951-1.02-1.62-1.69-2c-0.667-0.38-1.29-0.571-1.86-0.571c-2.86,0-4.29,1.89-4.29,5.66 c0,1.71,0.36,3.08,1.09,4.11c0.724,1.03,1.79,1.54,3.2,1.54c1.87,0,3.18-0.915,3.94-2.74l3.94,2 c-0.838,1.56-2,2.79-3.49,3.69c-1.48,0.896-3.12,1.34-4.91,1.34c-2.86,0-5.16-0.875-6.92-2.63 c-1.75-1.75-2.63-4.19-2.63-7.31c0-3.05,0.886-5.47,2.66-7.26c1.77-1.79,4.01-2.69,6.72-2.69 C32.6,18.56,35.44,20.1,37.16,23.19z
              M55.61,23.19l-4.23,2.23c-0.457-0.951-1.02-1.62-1.69-2 c-0.668-0.38-1.31-0.571-1.91-0.571c-2.86,0-4.29,1.89-4.29,5.66c0,1.71,0.363,3.08,1.09,4.11 c0.723,1.03,1.79,1.54,3.2,1.54c1.87,0,3.18-0.915,3.94-2.74l4,2c-0.875,1.56-2.06,2.79-3.54,3.69 c-1.49,0.9-3.11,1.34-4.86,1.34c-2.9,0-5.21-0.875-6.94-2.63c-1.74-1.75-2.6-4.19-2.6-7.31 c0-3.05,0.885-5.47,2.66-7.26c1.77-1.79,4.01-2.69,6.71-2.69C51.12,18.56,53.944,20.1,55.61,23.19z"/>
  </g></g>
  <g transform="translate(140.2,652.4) scale(0.24)">
  <g><circle fill="#FFF" cx="37.79" cy="28.5" r="28.84"/>
     <circle fill="none" cx="37.79" cy="28.5" r="28.84" stroke="#BFBFBF" stroke-width="5.5"/>
     <path fill="#BFBFBF" d="M46.129,20.557v13.085h-3.656v15.542h-9.944V33.643h-3.656V20.557 c0-0.572,0.2-1.057,0.599-1.457c0.401-0.399,0.887-0.6,1.457-0.6h13.144c0.533,0,1.01,0.2,1.428,0.6 C45.918,19.5,46.129,19.986,46.129,20.557z
              M33.042,12.329c0-3.008,1.485-4.514,4.458-4.514s4.457,1.504,4.457,4.514 c0,2.971-1.486,4.457-4.457,4.457S33.042,15.3,33.042,12.329z"/>
  </g></g>
</g>
</g>
</svg>
