<svg version="1.1" xmlns="http://www.w3.org/2000/svg" xmlns:xlink="http://www.w3.org/1999/xlink" width="100%" height="100%" viewBox="0 0 1200.000 674.916">
<title>Emissions and removals on forest land: Bulgaria (net only)</title>
<style type="text/css">
  #main {font-family:Helvetica,Arial,sans-serif; font-size:27.00px;
         fill-opacity:1; fill:#000000; stroke:none; stroke-linejoin:round; stroke-linecap:round; stroke-width:1.00;}
  .marker {stroke-opacity:0;fill-opacity:0;}
  .marker:hover {stroke-opacity:0.5; fill-opacity:1;}
  .ticklabel {font-size:27.00px;fill:#808080;stroke:none;font-family:Helvetica}
  .ytl {text-anchor:end;}
  .dp1 {pointer-events:none;font-size:70%;text-anchor:middle;fill:#000000;}
  .dp2 {pointer-events:none;font-size:70%;text-anchor:middle;fill:#FFFFFF;}
  .numtip {pointer-events:none;}
  .cc {opacity:0.25;}
.dl_fe {background-color:#FDFFDF;display:flex;margin:auto;align-items:center}
.dl_fe_p {font-size:20px;text-align:center;margin:3px}
.dl_el {display:none;pointer-events:none;}
.cc:hover + .dl_el {display:block;}
text:hover + .dl_el {display:block;}
</style>
<defs>
  <clipPath id="axis_clip"><rect x="145.8" y="54.2" width="761.2" height="532.8" /></clipPath>
  <path id="line_y" d="M 0,53.993 v 533.183" stroke="#262626" stroke-opacity="0.15" stroke-width="1.00"/>
  <path id="line_x" d="M 145.600,0 h 761.600" stroke="#262626" stroke-opacity="0.15" stroke-width="1.00"/>
  <path id="tick_y" d="M 145.600,0 h -6.000" stroke="#808080" stroke-width="0.90"/>
  <path id="tick_x" d="M 0,587.177 v 6.000" stroke="#808080" stroke-width="0.90"/>
</defs>
<g id="main">
<use xlink:href="#line_y" transform="translate(197.1,0)"/>
<use xlink:href="#line_y" transform="translate(300.0,0)"/>
<use xlink:href="#line_y" transform="translate(402.9,0)"/>
<use xlink:href="#line_y" transform="translate(505.8,0)"/>
<use xlink:href="#line_y" transform="translate(608.7,0)"/>
<use xlink:href="#line_y" transform="translate(711.7,0)"/>
<use xlink:href="#line_y" transform="translate(814.6,0)"/>
<use xlink:href="#line_y" transform="translate(896.9,0)"/>
<use xlink:href="#line_x" transform="translate(0,533.9)"/>
<use xlink:href="#line_x" transform="translate(0,427.2)"/>
<use xlink:href="#line_x" transform="translate(0,320.6)"/>
<use xlink:href="#line_x" transform="translate(0,213.9)"/>
<use xlink:href="#line_x" transform="translate(0,107.3)"/>
<use xlink:href="#tick_y" transform="translate(0,533.9)"/>
<use xlink:href="#tick_y" transform="translate(0,427.2)"/>
<use xlink:href="#tick_y" transform="translate(0,320.6)"/>
<use xlink:href="#tick_y" transform="translate(0,213.9)"/>
<use xlink:href="#tick_y" transform="translate(0,107.3)"/>
<use xlink:href="#tick_x" transform="translate(197.1,0)"/>
<use xlink:href="#tick_x" transform="translate(300.0,0)"/>
<use xlink:href="#tick_x" transform="translate(402.9,0)"/>
<use xlink:href="#tick_x" transform="translate(505.8,0)"/>
<use xlink:href="#tick_x" transform="translate(608.7,0)"/>
<use xlink:href="#tick_x" transform="translate(711.7,0)"/>
<use xlink:href="#tick_x" transform="translate(814.6,0)"/>
<use xlink:href="#tick_x" transform="translate(896.9,0)"/>
<polyline points="145.6,53.993 145.6,587.177 907.2,587.177" stroke="#808080" stroke-width="0.90" fill="none"/>
<text class="ticklabel xtl" transform="translate(197.1,629.0)" text-anchor="middle">1990</text>
<text class="ticklabel xtl" transform="translate(300.0,629.0)" text-anchor="middle">1995</text>
<text class="ticklabel xtl" transform="translate(402.9,629.0)" text-anchor="middle">2000</text>
<text class="ticklabel xtl" transform="translate(505.8,629.0)" text-anchor="middle">2005</text>
<text class="ticklabel xtl" transform="translate(608.7,629.0)" text-anchor="middle">2010</text>
<text class="ticklabel xtl" transform="translate(711.7,629.0)" text-anchor="middle">2015</text>
<text class="ticklabel xtl" transform="translate(814.6,629.0)" text-anchor="middle">2020</text>
<text class="ticklabel xtl" transform="translate(896.9,629.0)" text-anchor="middle">2024</text>
<text class="ticklabel ytl" transform="translate(128.8,542.0)">-16</text>
<text class="ticklabel ytl" transform="translate(128.8,435.3)">-12</text>
<text class="ticklabel ytl" transform="translate(128.8,328.7)">-8</text>
<text class="ticklabel ytl" transform="translate(128.8,222.0)">-4</text>
<text class="ticklabel ytl" transform="translate(128.8,115.4)">0 Mt</text>
<g stroke="#000" stroke-width="0.90" fill="#834B8E"  clip-path="url(#axis_clip)">
  <polygon class="pl" points="147.7,102.1 147.7,107.3 164.1,107.3 164.1,102.1 147.7,102.1"/>
  <polygon class="pl" points="188.8,102.6 188.8,107.3 205.3,107.3 205.3,102.6 188.8,102.6"/>
  <polygon class="pl" points="209.4,103.0 209.4,107.3 225.9,107.3 225.9,103.0 209.4,103.0"/>
  <polygon class="pl" points="230.0,103.3 230.0,107.3 246.5,107.3 246.5,103.3 230.0,103.3"/>
  <polygon class="pl" points="250.6,103.7 250.6,107.3 267.0,107.3 267.0,103.7 250.6,103.7"/>
  <polygon class="pl" points="271.2,104.0 271.2,107.3 287.6,107.3 287.6,104.0 271.2,104.0"/>
  <polygon class="pl" points="291.7,104.4 291.7,107.3 308.2,107.3 308.2,104.4 291.7,104.4"/>
  <polygon class="pl" points="312.3,104.8 312.3,107.3 328.8,107.3 328.8,104.8 312.3,104.8"/>
  <polygon class="pl" points="332.9,105.2 332.9,107.3 349.4,107.3 349.4,105.2 332.9,105.2"/>
  <polygon class="pl" points="353.5,105.5 353.5,107.3 370.0,107.3 370.0,105.5 353.5,105.5"/>
  <polygon class="pl" points="374.1,105.9 374.1,107.3 390.5,107.3 390.5,105.9 374.1,105.9"/>
  <polygon class="pl" points="394.7,106.1 394.7,107.3 411.1,107.3 411.1,106.1 394.7,106.1"/>
  <polygon class="pl" points="415.2,106.4 415.2,107.3 431.7,107.3 431.7,106.4 415.2,106.4"/>
  <polygon class="pl" points="435.8,106.6 435.8,107.3 452.3,107.3 452.3,106.6 435.8,106.6"/>
  <polygon class="pl" points="456.4,106.8 456.4,107.3 472.9,107.3 472.9,106.8 456.4,106.8"/>
  <polygon class="pl" points="477.0,106.9 477.0,107.3 493.5,107.3 493.5,106.9 477.0,106.9"/>
  <polygon class="pl" points="497.6,107.1 497.6,107.3 514.0,107.3 514.0,107.1 497.6,107.1"/>
  <polygon class="pl" points="518.2,107.2 518.2,107.3 534.6,107.3 534.6,107.2 518.2,107.2"/>
  <polygon class="pl" points="538.8,107.3 538.8,107.3 555.2,107.3 555.2,107.3 538.8,107.3"/>
  <polygon class="pl" points="559.3,107.3 559.3,107.3 575.8,107.3 575.8,107.3 559.3,107.3"/>
  <polygon class="pl" points="579.9,107.2 579.9,107.3 596.4,107.3 596.4,107.2 579.9,107.2"/>
  <polygon class="pl" points="600.5,107.2 600.5,107.3 617.0,107.3 617.0,107.2 600.5,107.2"/>
  <polygon class="pl" points="621.1,107.2 621.1,107.3 637.6,107.3 637.6,107.2 621.1,107.2"/>
  <polygon class="pl" points="641.7,107.2 641.7,107.3 658.1,107.3 658.1,107.2 641.7,107.2"/>
  <polygon class="pl" points="662.3,107.2 662.3,107.3 678.7,107.3 678.7,107.2 662.3,107.2"/>
  <polygon class="pl" points="682.8,107.2 682.8,107.3 699.3,107.3 699.3,107.2 682.8,107.2"/>
  <polygon class="pl" points="703.4,107.1 703.4,107.3 719.9,107.3 719.9,107.1 703.4,107.1"/>
  <polygon class="pl" points="724.0,107.1 724.0,107.3 740.5,107.3 740.5,107.1 724.0,107.1"/>
  <polygon class="pl" points="744.6,107.1 744.6,107.3 761.1,107.3 761.1,107.1 744.6,107.1"/>
  <polygon class="pl" points="765.2,107.1 765.2,107.3 781.6,107.3 781.6,107.1 765.2,107.1"/>
  <polygon class="pl" points="785.8,107.1 785.8,107.3 802.2,107.3 802.2,107.1 785.8,107.1"/>
  <polygon class="pl" points="806.3,107.1 806.3,107.3 822.8,107.3 822.8,107.1 806.3,107.1"/>
  <polygon class="pl" points="826.9,107.1 826.9,107.3 843.4,107.3 843.4,107.1 826.9,107.1"/>
  <polygon class="pl" points="847.5,107.0 847.5,107.3 864.0,107.3 864.0,107.0 847.5,107.0"/>
  <polygon class="pl" points="868.1,107.0 868.1,107.3 884.6,107.3 884.6,107.0 868.1,107.0"/>
  <polygon class="pl" points="888.7,107.0 888.7,107.3 905.1,107.3 905.1,107.0 888.7,107.0"/>
</g>
<g stroke="#000" stroke-width="0.90" fill="#D5AF54"  clip-path="url(#axis_clip)">
</g>
<g stroke="#000" stroke-width="0.90" fill="#D97B53"  clip-path="url(#axis_clip)">
</g>
<g stroke="#000" stroke-width="0.90" fill="#66BF7D"  clip-path="url(#axis_clip)">
</g>
<g stroke="#000" stroke-width="0.90" fill="#834B8E"  clip-path="url(#axis_clip)">
</g>
<g stroke="#000" stroke-width="0.90" fill="#D5AF54"  clip-path="url(#axis_clip)">
  <polygon class="pl" points="147.7,546.3 147.7,521.6 164.1,521.6 164.1,546.3 147.7,546.3"/>
  <polygon class="pl" points="188.8,548.0 188.8,525.4 205.3,525.4 205.3,548.0 188.8,548.0"/>
  <polygon class="pl" points="209.4,548.1 209.4,526.9 225.9,526.9 225.9,548.1 209.4,548.1"/>
  <polygon class="pl" points="230.0,548.3 230.0,528.5 246.5,528.5 246.5,548.3 230.0,548.3"/>
  <polygon class="pl" points="250.6,548.8 250.6,530.6 267.0,530.6 267.0,548.8 250.6,548.8"/>
  <polygon class="pl" points="271.2,549.0 271.2,532.4 287.6,532.4 287.6,549.0 271.2,549.0"/>
  <polygon class="pl" points="291.7,549.4 291.7,534.4 308.2,534.4 308.2,549.4 291.7,549.4"/>
  <polygon class="pl" points="312.3,525.0 312.3,511.6 328.8,511.6 328.8,525.0 312.3,525.0"/>
  <polygon class="pl" points="332.9,526.0 332.9,514.3 349.4,514.3 349.4,526.0 332.9,526.0"/>
  <polygon class="pl" points="353.5,527.0 353.5,516.9 370.0,516.9 370.0,527.0 353.5,527.0"/>
  <polygon class="pl" points="374.1,527.9 374.1,519.1 390.5,519.1 390.5,527.9 374.1,527.9"/>
  <polygon class="pl" points="394.7,528.0 394.7,520.3 411.1,520.3 411.1,528.0 394.7,528.0"/>
  <polygon class="pl" points="415.2,448.5 415.2,441.8 431.7,441.8 431.7,448.5 415.2,448.5"/>
  <polygon class="pl" points="435.8,447.4 435.8,441.6 452.3,441.6 452.3,447.4 435.8,447.4"/>
  <polygon class="pl" points="456.4,446.6 456.4,441.6 472.9,441.6 472.9,446.6 456.4,446.6"/>
  <polygon class="pl" points="477.0,445.7 477.0,441.3 493.5,441.3 493.5,445.7 477.0,445.7"/>
  <polygon class="pl" points="497.6,445.6 497.6,441.7 514.0,441.7 514.0,445.6 497.6,445.6"/>
  <polygon class="pl" points="518.2,390.7 518.2,387.2 534.6,387.2 534.6,390.7 518.2,390.7"/>
  <polygon class="pl" points="538.8,390.3 538.8,387.2 555.2,387.2 555.2,390.3 538.8,390.3"/>
  <polygon class="pl" points="559.3,390.1 559.3,386.9 575.8,386.9 575.8,390.1 559.3,390.1"/>
  <polygon class="pl" points="579.9,390.4 579.9,387.2 596.4,387.2 596.4,390.4 579.9,390.4"/>
  <polygon class="pl" points="600.5,389.1 600.5,385.9 617.0,385.9 617.0,389.1 600.5,389.1"/>
  <polygon class="pl" points="621.1,293.4 621.1,290.2 637.6,290.2 637.6,293.4 621.1,293.4"/>
  <polygon class="pl" points="641.7,292.2 641.7,289.2 658.1,289.2 658.1,292.2 641.7,292.2"/>
  <polygon class="pl" points="662.3,291.1 662.3,288.1 678.7,288.1 678.7,291.1 662.3,291.1"/>
  <polygon class="pl" points="682.8,290.2 682.8,287.3 699.3,287.3 699.3,290.2 682.8,290.2"/>
  <polygon class="pl" points="703.4,286.7 703.4,283.9 719.9,283.9 719.9,286.7 703.4,286.7"/>
  <polygon class="pl" points="724.0,329.1 724.0,326.3 740.5,326.3 740.5,329.1 724.0,329.1"/>
  <polygon class="pl" points="744.6,328.2 744.6,325.5 761.1,325.5 761.1,328.2 744.6,328.2"/>
  <polygon class="pl" points="765.2,327.6 765.2,324.9 781.6,324.9 781.6,327.6 765.2,327.6"/>
  <polygon class="pl" points="785.8,326.4 785.8,323.9 802.2,323.9 802.2,326.4 785.8,326.4"/>
  <polygon class="pl" points="806.3,325.8 806.3,323.3 822.8,323.3 822.8,325.8 806.3,325.8"/>
  <polygon class="pl" points="826.9,326.2 826.9,323.9 843.4,323.9 843.4,326.2 826.9,326.2"/>
  <polygon class="pl" points="847.5,324.4 847.5,322.1 864.0,322.1 864.0,324.4 847.5,324.4"/>
  <polygon class="pl" points="868.1,322.6 868.1,320.2 884.6,320.2 884.6,322.6 868.1,322.6"/>
  <polygon class="pl" points="888.7,324.5 888.7,322.1 905.1,322.1 905.1,324.5 888.7,324.5"/>
</g>
<g stroke="#000" stroke-width="0.90" fill="#D97B53"  clip-path="url(#axis_clip)">
  <polygon class="pl" points="147.7,521.6 147.7,513.3 164.1,513.3 164.1,521.6 147.7,521.6"/>
  <polygon class="pl" points="188.8,525.4 188.8,516.8 205.3,516.8 205.3,525.4 188.8,525.4"/>
  <polygon class="pl" points="209.4,526.9 209.4,518.1 225.9,518.1 225.9,526.9 209.4,526.9"/>
  <polygon class="pl" points="230.0,528.5 230.0,519.7 246.5,519.7 246.5,528.5 230.0,528.5"/>
  <polygon class="pl" points="250.6,530.6 250.6,521.6 267.0,521.6 267.0,530.6 250.6,530.6"/>
  <polygon class="pl" points="271.2,532.4 271.2,523.3 287.6,523.3 287.6,532.4 271.2,532.4"/>
  <polygon class="pl" points="291.7,534.4 291.7,525.1 308.2,525.1 308.2,534.4 291.7,534.4"/>
  <polygon class="pl" points="312.3,511.6 312.3,502.2 328.8,502.2 328.8,511.6 312.3,511.6"/>
  <polygon class="pl" points="332.9,514.3 332.9,504.7 349.4,504.7 349.4,514.3 332.9,514.3"/>
  <polygon class="pl" points="353.5,516.9 353.5,507.2 370.0,507.2 370.0,516.9 353.5,516.9"/>
  <polygon class="pl" points="374.1,519.1 374.1,509.2 390.5,509.2 390.5,519.1 374.1,519.1"/>
  <polygon class="pl" points="394.7,520.3 394.7,510.3 411.1,510.3 411.1,520.3 394.7,520.3"/>
  <polygon class="pl" points="415.2,441.8 415.2,429.9 431.7,429.9 431.7,441.8 415.2,441.8"/>
  <polygon class="pl" points="435.8,441.6 435.8,429.5 452.3,429.5 452.3,441.6 435.8,441.6"/>
  <polygon class="pl" points="456.4,441.6 456.4,429.5 472.9,429.5 472.9,441.6 456.4,441.6"/>
  <polygon class="pl" points="477.0,441.3 477.0,429.1 493.5,429.1 493.5,441.3 477.0,441.3"/>
  <polygon class="pl" points="497.6,441.7 497.6,429.5 514.0,429.5 514.0,441.7 497.6,441.7"/>
  <polygon class="pl" points="518.2,387.2 518.2,374.9 534.6,374.9 534.6,387.2 518.2,387.2"/>
  <polygon class="pl" points="538.8,387.2 538.8,374.9 555.2,374.9 555.2,387.2 538.8,387.2"/>
  <polygon class="pl" points="559.3,386.9 559.3,374.6 575.8,374.6 575.8,386.9 559.3,386.9"/>
  <polygon class="pl" points="579.9,387.2 579.9,374.9 596.4,374.9 596.4,387.2 579.9,387.2"/>
  <polygon class="pl" points="600.5,385.9 600.5,373.6 617.0,373.6 617.0,385.9 600.5,385.9"/>
  <polygon class="pl" points="621.1,290.2 621.1,276.0 637.6,276.0 637.6,290.2 621.1,290.2"/>
  <polygon class="pl" points="641.7,289.2 641.7,274.9 658.1,274.9 658.1,289.2 641.7,289.2"/>
  <polygon class="pl" points="662.3,288.1 662.3,273.8 678.7,273.8 678.7,288.1 662.3,288.1"/>
  <polygon class="pl" points="682.8,287.3 682.8,272.9 699.3,272.9 699.3,287.3 682.8,287.3"/>
  <polygon class="pl" points="703.4,283.9 703.4,269.4 719.9,269.4 719.9,283.9 703.4,283.9"/>
  <polygon class="pl" points="724.0,326.3 724.0,304.6 740.5,304.6 740.5,326.3 724.0,326.3"/>
  <polygon class="pl" points="744.6,325.5 744.6,303.8 761.1,303.8 761.1,325.5 744.6,325.5"/>
  <polygon class="pl" points="765.2,324.9 765.2,303.1 781.6,303.1 781.6,324.9 765.2,324.9"/>
  <polygon class="pl" points="785.8,323.9 785.8,302.1 802.2,302.1 802.2,323.9 785.8,323.9"/>
  <polygon class="pl" points="806.3,323.3 806.3,301.5 822.8,301.5 822.8,323.3 806.3,323.3"/>
  <polygon class="pl" points="826.9,323.9 826.9,301.9 843.4,301.9 843.4,323.9 826.9,323.9"/>
  <polygon class="pl" points="847.5,322.1 847.5,300.1 864.0,300.1 864.0,322.1 847.5,322.1"/>
  <polygon class="pl" points="868.1,320.2 868.1,298.2 884.6,298.2 884.6,320.2 868.1,320.2"/>
  <polygon class="pl" points="888.7,322.1 888.7,300.2 905.1,300.2 905.1,322.1 888.7,322.1"/>
</g>
<g stroke="#000" stroke-width="0.90" fill="#66BF7D"  clip-path="url(#axis_clip)">
  <polygon class="pl" points="147.7,513.3 147.7,107.3 164.1,107.3 164.1,513.3 147.7,513.3"/>
  <polygon class="pl" points="188.8,516.8 188.8,107.3 205.3,107.3 205.3,516.8 188.8,516.8"/>
  <polygon class="pl" points="209.4,518.1 209.4,107.3 225.9,107.3 225.9,518.1 209.4,518.1"/>
  <polygon class="pl" points="230.0,519.7 230.0,107.3 246.5,107.3 246.5,519.7 230.0,519.7"/>
  <polygon class="pl" points="250.6,521.6 250.6,107.3 267.0,107.3 267.0,521.6 250.6,521.6"/>
  <polygon class="pl" points="271.2,523.3 271.2,107.3 287.6,107.3 287.6,523.3 271.2,523.3"/>
  <polygon class="pl" points="291.7,525.1 291.7,107.3 308.2,107.3 308.2,525.1 291.7,525.1"/>
  <polygon class="pl" points="312.3,502.2 312.3,107.3 328.8,107.3 328.8,502.2 312.3,502.2"/>
  <polygon class="pl" points="332.9,504.7 332.9,107.3 349.4,107.3 349.4,504.7 332.9,504.7"/>
  <polygon class="pl" points="353.5,507.2 353.5,107.3 370.0,107.3 370.0,507.2 353.5,507.2"/>
  <polygon class="pl" points="374.1,509.2 374.1,107.3 390.5,107.3 390.5,509.2 374.1,509.2"/>
  <polygon class="pl" points="394.7,510.3 394.7,107.3 411.1,107.3 411.1,510.3 394.7,510.3"/>
  <polygon class="pl" points="415.2,429.9 415.2,107.3 431.7,107.3 431.7,429.9 415.2,429.9"/>
  <polygon class="pl" points="435.8,429.5 435.8,107.3 452.3,107.3 452.3,429.5 435.8,429.5"/>
  <polygon class="pl" points="456.4,429.5 456.4,107.3 472.9,107.3 472.9,429.5 456.4,429.5"/>
  <polygon class="pl" points="477.0,429.1 477.0,107.3 493.5,107.3 493.5,429.1 477.0,429.1"/>
  <polygon class="pl" points="497.6,429.5 497.6,107.3 514.0,107.3 514.0,429.5 497.6,429.5"/>
  <polygon class="pl" points="518.2,374.9 518.2,107.3 534.6,107.3 534.6,374.9 518.2,374.9"/>
  <polygon class="pl" points="538.8,374.9 538.8,107.3 555.2,107.3 555.2,374.9 538.8,374.9"/>
  <polygon class="pl" points="559.3,374.6 559.3,107.3 575.8,107.3 575.8,374.6 559.3,374.6"/>
  <polygon class="pl" points="579.9,374.9 579.9,107.3 596.4,107.3 596.4,374.9 579.9,374.9"/>
  <polygon class="pl" points="600.5,373.6 600.5,107.3 617.0,107.3 617.0,373.6 600.5,373.6"/>
  <polygon class="pl" points="621.1,276.0 621.1,107.3 637.6,107.3 637.6,276.0 621.1,276.0"/>
  <polygon class="pl" points="641.7,274.9 641.7,107.3 658.1,107.3 658.1,274.9 641.7,274.9"/>
  <polygon class="pl" points="662.3,273.8 662.3,107.3 678.7,107.3 678.7,273.8 662.3,273.8"/>
  <polygon class="pl" points="682.8,272.9 682.8,107.3 699.3,107.3 699.3,272.9 682.8,272.9"/>
  <polygon class="pl" points="703.4,269.4 703.4,107.3 719.9,107.3 719.9,269.4 703.4,269.4"/>
  <polygon class="pl" points="724.0,304.6 724.0,107.3 740.5,107.3 740.5,304.6 724.0,304.6"/>
  <polygon class="pl" points="744.6,303.8 744.6,107.3 761.1,107.3 761.1,303.8 744.6,303.8"/>
  <polygon class="pl" points="765.2,303.1 765.2,107.3 781.6,107.3 781.6,303.1 765.2,303.1"/>
  <polygon class="pl" points="785.8,302.1 785.8,107.3 802.2,107.3 802.2,302.1 785.8,302.1"/>
  <polygon class="pl" points="806.3,301.5 806.3,107.3 822.8,107.3 822.8,301.5 806.3,301.5"/>
  <polygon class="pl" points="826.9,301.9 826.9,107.3 843.4,107.3 843.4,301.9 826.9,301.9"/>
  <polygon class="pl" points="847.5,300.1 847.5,107.3 864.0,107.3 864.0,300.1 847.5,300.1"/>
  <polygon class="pl" points="868.1,298.2 868.1,107.3 884.6,107.3 884.6,298.2 868.1,298.2"/>
  <polygon class="pl" points="888.7,300.2 888.7,107.3 905.1,107.3 905.1,300.2 888.7,300.2"/>
</g>
<text transform="translate(145.6,47.2)" dy="0.0" font-size="27.00" fill="#808080" stroke="none">Emissions and removals on forest land: Bulgaria (net only)</text>
<text transform="translate(130.0,135.0)" dy="8.1" font-size="27.00" fill="#808080" stroke="none" text-anchor="end">CO<tspan dy="0.2em"><tspan style="font-size:70%">2</tspan></tspan><tspan dy="-0.2em"></tspan></text>
<polyline class="pl" points="155.9,541.4 197.1,543.6 217.6,544.1 238.2,544.6 258.8,545.4 279.4,546.1 300.0,546.8 320.6,522.8 341.1,524.2 361.7,525.6 382.3,526.7 402.9,527.1 423.5,447.8 444.1,446.9 464.6,446.3 485.2,445.5 505.8,445.6 526.4,390.7 547.0,390.5 567.6,390.2 588.2,390.5 608.7,389.2 629.3,293.4 649.9,292.2 670.5,291.1 691.1,290.2 711.7,286.7 732.2,329.1 752.8,328.2 773.4,327.5 794.0,326.4 814.6,325.7 835.2,326.1 855.7,324.3 876.3,322.5 896.9,324.4" stroke="#000" stroke-width="5.40" fill="none" clip-path="url(#axis_clip)"/>
<g class="pl" fill="#FFF" stroke="#000" stroke-width="0.900">
  <circle cx="155.9" cy="541.4" r="2.2" />
  <circle cx="217.6" cy="544.1" r="2.2" />
  <circle cx="238.2" cy="544.6" r="2.2" />
  <circle cx="258.8" cy="545.4" r="2.2" />
  <circle cx="279.4" cy="546.1" r="2.2" />
  <circle cx="300.0" cy="546.8" r="2.2" />
  <circle cx="320.6" cy="522.8" r="2.2" />
  <circle cx="341.1" cy="524.2" r="2.2" />
  <circle cx="361.7" cy="525.6" r="2.2" />
  <circle cx="382.3" cy="526.7" r="2.2" />
  <circle cx="423.5" cy="447.8" r="2.2" />
  <circle cx="444.1" cy="446.9" r="2.2" />
  <circle cx="464.6" cy="446.3" r="2.2" />
  <circle cx="485.2" cy="445.5" r="2.2" />
  <circle cx="505.8" cy="445.6" r="2.2" />
  <circle cx="526.4" cy="390.7" r="2.2" />
  <circle cx="547.0" cy="390.5" r="2.2" />
  <circle cx="567.6" cy="390.2" r="2.2" />
  <circle cx="588.2" cy="390.5" r="2.2" />
  <circle cx="629.3" cy="293.4" r="2.2" />
  <circle cx="649.9" cy="292.2" r="2.2" />
  <circle cx="670.5" cy="291.1" r="2.2" />
  <circle cx="691.1" cy="290.2" r="2.2" />
  <circle cx="711.7" cy="286.7" r="2.2" />
  <circle cx="732.2" cy="329.1" r="2.2" />
  <circle cx="752.8" cy="328.2" r="2.2" />
  <circle cx="773.4" cy="327.5" r="2.2" />
  <circle cx="794.0" cy="326.4" r="2.2" />
  <circle cx="835.2" cy="326.1" r="2.2" />
  <circle cx="855.7" cy="324.3" r="2.2" />
  <circle cx="876.3" cy="322.5" r="2.2" />
  <circle cx="896.9" cy="324.4" r="2.2" />
</g>
<g class="pl" fill="#FFF" stroke="#000" stroke-width="0.900">
  <circle cx="197.1" cy="543.6" r="5.4" />
  <circle cx="402.9" cy="527.1" r="5.4" />
  <circle cx="608.7" cy="389.2" r="5.4" />
  <circle cx="814.6" cy="325.7" r="5.4" />
</g>
<text transform="translate(945.6,340.3)" dy="6.5" font-size="21.60" fill="#000" stroke="none">Total (net)</text>
<text transform="translate(945.6,107.1)" dy="6.5" font-size="21.60" fill="#834B8E" stroke="none">Mineral Soils (net)</text>
<text transform="translate(945.6,203.7)" dy="6.5" font-size="21.60" fill="#66BF7D" stroke="none">Living biomass (net)</text>
<text transform="translate(945.6,298.9)" dy="6.5" font-size="21.60" fill="#D97B53" stroke="none">Dead wood (net)</text>
<text transform="translate(945.6,319.6)" dy="6.5" font-size="21.60" fill="#D5AF54" stroke="none">Litter (net)</text>
<polyline class="pl" points="910.8,324.4 912.4,324.4 913.8,324.6 915.2,324.8 916.4,325.2 917.6,325.6 918.8,326.1 919.8,326.7 920.8,327.3 921.7,328.0 922.7,328.8 923.5,329.5 924.4,330.3 925.2,331.1 926.0,331.9 926.8,332.8 927.6,333.6 928.4,334.4 929.3,335.2 930.1,336.0 931.1,336.7 932.0,337.4 933.0,338.0 934.0,338.6 935.2,339.1 936.4,339.5 937.6,339.9 939.0,340.1 940.4,340.3 942.0,340.3" stroke="#000" stroke-width="0.90" stroke-opacity="1.00" fill="none" />
<polyline class="pl" points="910.8,311.1 912.4,311.1 913.8,311.0 915.2,310.8 916.4,310.5 917.6,310.2 918.8,309.8 919.8,309.3 920.8,308.9 921.7,308.3 922.7,307.8 923.5,307.2 924.4,306.6 925.2,306.0 926.0,305.3 926.8,304.7 927.6,304.1 928.4,303.5 929.3,302.8 930.1,302.3 931.1,301.7 932.0,301.2 933.0,300.7 934.0,300.3 935.2,299.9 936.4,299.5 937.6,299.3 939.0,299.1 940.4,298.9 942.0,298.9" stroke="#D97B53" stroke-width="0.90" stroke-opacity="1.00" fill="none" />
<polyline class="pl" points="910.8,323.3 912.4,323.3 913.8,323.3 915.2,323.2 916.4,323.1 917.6,323.0 918.8,322.9 919.8,322.8 920.8,322.6 921.7,322.5 922.7,322.3 923.5,322.1 924.4,322.0 925.2,321.8 926.0,321.6 926.8,321.4 927.6,321.2 928.4,321.0 929.3,320.8 930.1,320.6 931.1,320.5 932.0,320.3 933.0,320.2 934.0,320.0 935.2,319.9 936.4,319.8 937.6,319.7 939.0,319.7 940.4,319.6 942.0,319.6" stroke="#D5AF54" stroke-width="0.90" stroke-opacity="1.00" fill="none" />
<text transform="translate(160.0,666.1)" font-size="19.80" font-family="Helvetica" fill="#BFBFBF" stroke="none" xml:space="preserve">CICERO   &#9679;   Data: UNFCCC (2026)</text>
<g>
  <rect x="123.0" y="651.4" width="34" height="17" fill="#FFF" stroke="none" opacity="0.01"/>
  <g transform="translate(124.0,652.4) scale(0.24)">
  <g><circle fill="#FFF" cx="37.79" cy="28.5" r="28.84"/>
     <circle fill="none" cx="37.79" cy="28.5" r="28.84" stroke="#BFBFBF" stroke-width="5.5"/>
     <path fill="#BFBFBF" d="M37.16,23.19 l-4.29,2.23c-0.458-0.951-1.02-1.62-1.69-2c-0.667-0.38-1.29-0.571-1.86-0.571c-2.86,0-4.29,1.89-4.29,5.66 c0,1.71,0.36,3.08,1.09,4.11c0.724,1.03,1.79,1.54,3.2,1.54c1.87,0,3.18-0.915,3.94-2.74l3.94,2 c-0.838,1.56-2,2.79-3.49,3.69c-1.48,0.896-3.12,1.34-4.91,1.34c-2.86,0-5.16-0.875-6.92-2.63 c-1.75-1.75-2.63-4.19-2.63-7.31c0-3.05,0.886-5.47,2.66-7.26c1.77-1.79,4.01-2.69,6.72-2.69 C32.6,18.56,35.44,20.1,37.16,23.19z
              M55.61,23.19l-4.23,2.23c-0.457-0.951-1.02-1.62-1.69-2 c-0.668-0.38-1.31-0.571-1.91-0.571c-2.86,0-4.29,1.89-4.29,5.66c0,1.71,0.363,3.08,1.09,4.11 c0.723,1.03,1.79,1.54,3.2,1.54c1.87,0,3.18-0.915,3.94-2.74l4,2c-0.875,1.56-2.06,2.79-3.54,3.69 c-1.49,0.9-3.11,1.34-4.86,1.34c-2.9,0-5.21-0.875-6.94-2.63c-1.74-1.75-2.6-4.19-2.6-7.31 c0-3.05,0.885-5.47,2.66-7.26c1.77-1.79,4.01-2.69,6.71-2.69C51.12,18.56,53.944,20.1,55.61,23.19z"/>
  </g></g>
  <g transform="translate(140.2,652.4) scale(0.24)">
  <g><circle fill="#FFF" cx="37.79" cy="28.5" r="28.84"/>
     <circle fill="none" cx="37.79" cy="28.5" r="28.84" stroke="#BFBFBF" stroke-width="5.5"/>
     <path fill="#BFBFBF" d="M46.129,20.557v13.085h-3.656v15.542h-9.944V33.643h-3.656V20.557 c0-0.572,0.2-1.057,0.599-1.457c0.401-0.399,0.887-0.6,1.457-0.6h13.144c0.533,0,1.01,0.2,1.428,0.6 C45.918,19.5,46.129,19.986,46.129,20.557z
              M33.042,12.329c0-3.008,1.485-4.514,4.458-4.514s4.457,1.504,4.457,4.514 c0,2.971-1.486,4.457-4.457,4.457S33.042,15.3,33.042,12.329z"/>
  </g></g>
</g>
</g>
</svg>
