<svg version="1.1" xmlns="http://www.w3.org/2000/svg" xmlns:xlink="http://www.w3.org/1999/xlink" width="100%" height="100%" viewBox="0 0 1200.000 674.916">
<title>Kaya decomposition of emissions growth: Bulgaria</title>
<style type="text/css">
  #main {font-family:Helvetica,Arial,sans-serif; font-size:27.00px;
         fill-opacity:1; fill:#000000; stroke:none; stroke-linejoin:round; stroke-linecap:round; stroke-width:1.00;}
  .marker {stroke-opacity:0;fill-opacity:0;}
  .marker:hover {stroke-opacity:0.5; fill-opacity:1;}
  .ticklabel {font-size:27.00px;fill:#808080;stroke:none;font-family:Helvetica}
  .ytl {text-anchor:end;}
  .dp1 {pointer-events:none;font-size:70%;text-anchor:middle;fill:#000000;}
  .dp2 {pointer-events:none;font-size:70%;text-anchor:middle;fill:#FFFFFF;}
  .numtip {pointer-events:none;}
  .cc {opacity:0.25;}
.dl_fe {background-color:#FDFFDF;display:flex;margin:auto;align-items:center}
.dl_fe_p {font-size:20px;text-align:center;margin:3px}
.dl_el {display:none;pointer-events:none;}
.cc:hover + .dl_el {display:block;}
text:hover + .dl_el {display:block;}
</style>
<defs>
  <clipPath id="axis_clip"><rect x="145.8" y="54.2" width="761.2" height="532.8" /></clipPath>
  <path id="line_x" d="M 145.600,0 h 761.600" stroke="#262626" stroke-opacity="0.15" stroke-width="1.00"/>
  <path id="tick_y" d="M 145.600,0 h -6.000" stroke="#808080" stroke-width="0.90"/>
  <path id="tick_x" d="M 0,587.177 v 6.000" stroke="#808080" stroke-width="0.90"/>
</defs>
<g id="main">
<use xlink:href="#line_x" transform="translate(0,587.2)"/>
<use xlink:href="#line_x" transform="translate(0,480.5)"/>
<use xlink:href="#line_x" transform="translate(0,373.9)"/>
<use xlink:href="#line_x" transform="translate(0,267.3)"/>
<use xlink:href="#line_x" transform="translate(0,160.6)"/>
<use xlink:href="#line_x" transform="translate(0,54.0)"/>
<use xlink:href="#tick_y" transform="translate(0,587.2)"/>
<use xlink:href="#tick_y" transform="translate(0,480.5)"/>
<use xlink:href="#tick_y" transform="translate(0,373.9)"/>
<use xlink:href="#tick_y" transform="translate(0,267.3)"/>
<use xlink:href="#tick_y" transform="translate(0,160.6)"/>
<use xlink:href="#tick_y" transform="translate(0,54.0)"/>
<use xlink:href="#tick_x" transform="translate(156.8,0)"/>
<use xlink:href="#tick_x" transform="translate(268.8,0)"/>
<use xlink:href="#tick_x" transform="translate(380.8,0)"/>
<use xlink:href="#tick_x" transform="translate(492.8,0)"/>
<use xlink:href="#tick_x" transform="translate(604.8,0)"/>
<use xlink:href="#tick_x" transform="translate(716.8,0)"/>
<use xlink:href="#tick_x" transform="translate(828.8,0)"/>
<polyline points="145.6,53.993 145.6,587.177 907.2,587.177" stroke="#808080" stroke-width="0.90" fill="none"/>
<text class="ticklabel xtl" transform="translate(156.8,629.0)" text-anchor="middle">1990</text>
<text class="ticklabel xtl" transform="translate(268.8,629.0)" text-anchor="middle">1995</text>
<text class="ticklabel xtl" transform="translate(380.8,629.0)" text-anchor="middle">2000</text>
<text class="ticklabel xtl" transform="translate(492.8,629.0)" text-anchor="middle">2005</text>
<text class="ticklabel xtl" transform="translate(604.8,629.0)" text-anchor="middle">2010</text>
<text class="ticklabel xtl" transform="translate(716.8,629.0)" text-anchor="middle">2015</text>
<text class="ticklabel xtl" transform="translate(828.8,629.0)" text-anchor="middle">2020</text>
<text class="ticklabel ytl" transform="translate(128.8,595.3)">-30</text>
<text class="ticklabel ytl" transform="translate(128.8,488.6)">-20</text>
<text class="ticklabel ytl" transform="translate(128.8,382.0)">-10</text>
<text class="ticklabel ytl" transform="translate(128.8,275.4)">0</text>
<text class="ticklabel ytl" transform="translate(128.8,168.7)">10</text>
<text class="ticklabel ytl" transform="translate(128.8,62.1)">20 %/yr</text>
<g stroke="#000" stroke-width="0.90" fill="#808080"  clip-path="url(#axis_clip)">
  <polygon points="-367.4,99.5 -367.4,100.8 -349.4,100.8 -349.4,99.5 -367.4,99.5"/>
  <polygon points="-322.6,141.3 -322.6,144.8 -304.6,144.8 -304.6,141.3 -322.6,141.3"/>
  <polygon points="-121.0,170.4 -121.0,170.5 -103.0,170.5 -103.0,170.4 -121.0,170.4"/>
  <polygon points="-31.4,137.3 -31.4,139.9 -13.4,139.9 -13.4,137.3 -31.4,137.3"/>
  <polygon points="147.8,246.9 147.8,250.1 165.8,250.1 165.8,246.9 147.8,246.9"/>
  <polygon points="170.2,255.2 170.2,267.3 188.2,267.3 188.2,255.2 170.2,255.2"/>
  <polygon points="349.4,262.8 349.4,267.3 367.4,267.3 367.4,262.8 349.4,262.8"/>
  <polygon points="394.2,176.4 394.2,177.8 412.2,177.8 412.2,176.4 394.2,176.4"/>
  <polygon points="439.0,148.8 439.0,150.0 457.0,150.0 457.0,148.8 439.0,148.8"/>
  <polygon points="573.4,259.8 573.4,267.3 591.4,267.3 591.4,259.8 573.4,259.8"/>
  <polygon points="595.8,217.9 595.8,218.4 613.8,218.4 613.8,217.9 595.8,217.9"/>
  <polygon points="618.2,149.2 618.2,153.1 636.2,153.1 636.2,149.2 618.2,149.2"/>
  <polygon points="640.6,260.0 640.6,262.2 658.6,262.2 658.6,260.0 640.6,260.0"/>
  <polygon points="663.0,263.5 663.0,267.3 681.0,267.3 681.0,263.5 663.0,263.5"/>
  <polygon points="685.4,195.5 685.4,195.5 703.4,195.5 703.4,195.5 685.4,195.5"/>
  <polygon points="707.8,197.7 707.8,198.9 725.8,198.9 725.8,197.7 707.8,197.7"/>
  <polygon points="752.6,210.8 752.6,211.3 770.6,211.3 770.6,210.8 752.6,210.8"/>
  <polygon points="819.8,260.4 819.8,267.3 837.8,267.3 837.8,260.4 819.8,260.4"/>
  <polygon points="842.2,95.7 842.2,102.8 860.2,102.8 860.2,95.7 842.2,95.7"/>
  <polygon points="864.6,153.1 864.6,155.8 882.6,155.8 882.6,153.1 864.6,153.1"/>
  <polygon points="887.0,211.3 887.0,219.3 905.0,219.3 905.0,211.3 887.0,211.3"/>
</g>
<g stroke="#000" stroke-width="0.90" fill="#8DA0CB"  clip-path="url(#axis_clip)">
  <polygon points="-322.6,144.8 -322.6,145.3 -304.6,145.3 -304.6,144.8 -322.6,144.8"/>
  <polygon points="-277.8,185.2 -277.8,194.0 -259.8,194.0 -259.8,185.2 -277.8,185.2"/>
  <polygon points="-233.0,177.7 -233.0,178.7 -215.0,178.7 -215.0,177.7 -233.0,177.7"/>
  <polygon points="-210.6,181.0 -210.6,186.5 -192.6,186.5 -192.6,181.0 -210.6,181.0"/>
  <polygon points="-121.0,170.5 -121.0,207.6 -103.0,207.6 -103.0,170.5 -121.0,170.5"/>
  <polygon points="-53.8,156.2 -53.8,211.9 -35.8,211.9 -35.8,156.2 -53.8,156.2"/>
  <polygon points="-31.4,139.9 -31.4,241.2 -13.4,241.2 -13.4,139.9 -31.4,139.9"/>
  <polygon points="35.8,200.6 35.8,235.7 53.8,235.7 53.8,200.6 35.8,200.6"/>
  <polygon points="58.2,220.5 58.2,222.4 76.2,222.4 76.2,220.5 58.2,220.5"/>
  <polygon points="237.4,244.1 237.4,247.9 255.4,247.9 255.4,244.1 237.4,244.1"/>
  <polygon points="282.2,201.9 282.2,214.8 300.2,214.8 300.2,201.9 282.2,201.9"/>
  <polygon points="304.6,149.2 304.6,159.4 322.6,159.4 322.6,149.2 304.6,149.2"/>
  <polygon points="394.2,177.8 394.2,223.5 412.2,223.5 412.2,177.8 394.2,177.8"/>
  <polygon points="439.0,150.0 439.0,211.4 457.0,211.4 457.0,150.0 439.0,150.0"/>
  <polygon points="461.4,185.5 461.4,200.9 479.4,200.9 479.4,185.5 461.4,185.5"/>
  <polygon points="506.2,189.7 506.2,194.7 524.2,194.7 524.2,189.7 506.2,189.7"/>
  <polygon points="528.6,78.7 528.6,197.0 546.6,197.0 546.6,78.7 528.6,78.7"/>
  <polygon points="618.2,153.1 618.2,201.9 636.2,201.9 636.2,153.1 618.2,153.1"/>
  <polygon points="707.8,198.9 707.8,202.1 725.8,202.1 725.8,198.9 707.8,198.9"/>
  <polygon points="752.6,211.3 752.6,234.8 770.6,234.8 770.6,211.3 752.6,211.3"/>
  <polygon points="797.4,220.7 797.4,224.2 815.4,224.2 815.4,220.7 797.4,220.7"/>
  <polygon points="842.2,102.8 842.2,123.5 860.2,123.5 860.2,102.8 842.2,102.8"/>
  <polygon points="864.6,155.8 864.6,230.9 882.6,230.9 882.6,155.8 864.6,155.8"/>
</g>
<g stroke="#000" stroke-width="0.90" fill="#66C2A5"  clip-path="url(#axis_clip)">
  <polygon points="-367.4,100.8 -367.4,209.5 -349.4,209.5 -349.4,100.8 -367.4,100.8"/>
  <polygon points="-345.0,146.5 -345.0,251.0 -327.0,251.0 -327.0,146.5 -345.0,146.5"/>
  <polygon points="-322.6,145.3 -322.6,211.5 -304.6,211.5 -304.6,145.3 -322.6,145.3"/>
  <polygon points="-300.2,137.7 -300.2,207.5 -282.2,207.5 -282.2,137.7 -300.2,137.7"/>
  <polygon points="-188.2,156.4 -188.2,173.5 -170.2,173.5 -170.2,156.4 -188.2,156.4"/>
  <polygon points="-31.4,241.2 -31.4,242.4 -13.4,242.4 -13.4,241.2 -31.4,241.2"/>
  <polygon points="125.4,240.6 125.4,267.3 143.4,267.3 143.4,240.6 125.4,240.6"/>
  <polygon points="147.8,250.1 147.8,267.3 165.8,267.3 165.8,250.1 147.8,250.1"/>
  <polygon points="192.6,251.5 192.6,267.3 210.6,267.3 210.6,251.5 192.6,251.5"/>
  <polygon points="215.0,178.9 215.0,267.3 233.0,267.3 233.0,178.9 215.0,178.9"/>
  <polygon points="259.8,188.2 259.8,236.8 277.8,236.8 277.8,188.2 259.8,188.2"/>
  <polygon points="304.6,159.4 304.6,267.3 322.6,267.3 322.6,159.4 304.6,159.4"/>
  <polygon points="483.8,176.1 483.8,188.9 501.8,188.9 501.8,176.1 483.8,176.1"/>
  <polygon points="595.8,218.4 595.8,250.8 613.8,250.8 613.8,218.4 595.8,218.4"/>
  <polygon points="618.2,201.9 618.2,244.9 636.2,244.9 636.2,201.9 618.2,201.9"/>
  <polygon points="685.4,195.5 685.4,257.0 703.4,257.0 703.4,195.5 685.4,195.5"/>
  <polygon points="707.8,202.1 707.8,230.7 725.8,230.7 725.8,202.1 707.8,202.1"/>
  <polygon points="842.2,123.5 842.2,219.7 860.2,219.7 860.2,123.5 842.2,123.5"/>
  <polygon points="864.6,230.9 864.6,233.1 882.6,233.1 882.6,230.9 864.6,230.9"/>
</g>
<g stroke="#000" stroke-width="0.90" fill="#FC8D62"  clip-path="url(#axis_clip)">
  <polygon points="-389.8,183.7 -389.8,267.3 -371.8,267.3 -371.8,183.7 -389.8,183.7"/>
  <polygon points="-367.4,209.5 -367.4,267.3 -349.4,267.3 -349.4,209.5 -367.4,209.5"/>
  <polygon points="-345.0,251.0 -345.0,267.3 -327.0,267.3 -327.0,251.0 -345.0,251.0"/>
  <polygon points="-322.6,211.5 -322.6,267.3 -304.6,267.3 -304.6,211.5 -322.6,211.5"/>
  <polygon points="-300.2,207.5 -300.2,267.3 -282.2,267.3 -282.2,207.5 -300.2,207.5"/>
  <polygon points="-277.8,194.0 -277.8,267.3 -259.8,267.3 -259.8,194.0 -277.8,194.0"/>
  <polygon points="-255.4,186.2 -255.4,267.3 -237.4,267.3 -237.4,186.2 -255.4,186.2"/>
  <polygon points="-233.0,178.7 -233.0,267.3 -215.0,267.3 -215.0,178.7 -233.0,178.7"/>
  <polygon points="-210.6,186.5 -210.6,267.3 -192.6,267.3 -192.6,186.5 -210.6,186.5"/>
  <polygon points="-188.2,173.5 -188.2,267.3 -170.2,267.3 -170.2,173.5 -188.2,173.5"/>
  <polygon points="-165.8,199.9 -165.8,267.3 -147.8,267.3 -147.8,199.9 -165.8,199.9"/>
  <polygon points="-143.4,198.2 -143.4,267.3 -125.4,267.3 -125.4,198.2 -143.4,198.2"/>
  <polygon points="-121.0,207.6 -121.0,267.3 -103.0,267.3 -103.0,207.6 -121.0,207.6"/>
  <polygon points="-98.6,196.3 -98.6,267.3 -80.6,267.3 -80.6,196.3 -98.6,196.3"/>
  <polygon points="-76.2,209.6 -76.2,267.3 -58.2,267.3 -58.2,209.6 -76.2,209.6"/>
  <polygon points="-53.8,211.9 -53.8,267.3 -35.8,267.3 -35.8,211.9 -53.8,211.9"/>
  <polygon points="-31.4,242.4 -31.4,267.3 -13.4,267.3 -13.4,242.4 -31.4,242.4"/>
  <polygon points="-9.0,230.7 -9.0,267.3 9.0,267.3 9.0,230.7 -9.0,230.7"/>
  <polygon points="13.4,234.1 13.4,267.3 31.4,267.3 31.4,234.1 13.4,234.1"/>
  <polygon points="35.8,235.7 35.8,267.3 53.8,267.3 53.8,235.7 35.8,235.7"/>
  <polygon points="58.2,222.4 58.2,267.3 76.2,267.3 76.2,222.4 58.2,222.4"/>
  <polygon points="80.6,202.7 80.6,267.3 98.6,267.3 98.6,202.7 80.6,202.7"/>
  <polygon points="103.0,153.8 103.0,267.3 121.0,267.3 121.0,153.8 103.0,153.8"/>
  <polygon points="237.4,247.9 237.4,267.3 255.4,267.3 255.4,247.9 237.4,247.9"/>
  <polygon points="259.8,236.8 259.8,267.3 277.8,267.3 277.8,236.8 259.8,236.8"/>
  <polygon points="282.2,214.8 282.2,267.3 300.2,267.3 300.2,214.8 282.2,214.8"/>
  <polygon points="327.0,226.9 327.0,267.3 345.0,267.3 345.0,226.9 327.0,226.9"/>
  <polygon points="371.8,221.4 371.8,267.3 389.8,267.3 389.8,221.4 371.8,221.4"/>
  <polygon points="394.2,223.5 394.2,267.3 412.2,267.3 412.2,223.5 394.2,223.5"/>
  <polygon points="416.6,204.7 416.6,267.3 434.6,267.3 434.6,204.7 416.6,204.7"/>
  <polygon points="439.0,211.4 439.0,267.3 457.0,267.3 457.0,211.4 439.0,211.4"/>
  <polygon points="461.4,200.9 461.4,267.3 479.4,267.3 479.4,200.9 461.4,200.9"/>
  <polygon points="483.8,188.9 483.8,267.3 501.8,267.3 501.8,188.9 483.8,188.9"/>
  <polygon points="506.2,194.7 506.2,267.3 524.2,267.3 524.2,194.7 506.2,194.7"/>
  <polygon points="528.6,197.0 528.6,267.3 546.6,267.3 546.6,197.0 528.6,197.0"/>
  <polygon points="551.0,205.1 551.0,267.3 569.0,267.3 569.0,205.1 551.0,205.1"/>
  <polygon points="595.8,250.8 595.8,267.3 613.8,267.3 613.8,250.8 595.8,250.8"/>
  <polygon points="618.2,244.9 618.2,267.3 636.2,267.3 636.2,244.9 618.2,244.9"/>
  <polygon points="640.6,262.2 640.6,267.3 658.6,267.3 658.6,262.2 640.6,262.2"/>
  <polygon points="685.4,257.0 685.4,267.3 703.4,267.3 703.4,257.0 685.4,257.0"/>
  <polygon points="707.8,230.7 707.8,267.3 725.8,267.3 725.8,230.7 707.8,230.7"/>
  <polygon points="730.2,237.9 730.2,267.3 748.2,267.3 748.2,237.9 730.2,237.9"/>
  <polygon points="752.6,234.8 752.6,267.3 770.6,267.3 770.6,234.8 752.6,234.8"/>
  <polygon points="775.0,238.6 775.0,267.3 793.0,267.3 793.0,238.6 775.0,238.6"/>
  <polygon points="797.4,224.2 797.4,267.3 815.4,267.3 815.4,224.2 797.4,224.2"/>
  <polygon points="842.2,219.7 842.2,267.3 860.2,267.3 860.2,219.7 842.2,219.7"/>
  <polygon points="864.6,233.1 864.6,267.3 882.6,267.3 882.6,233.1 864.6,233.1"/>
  <polygon points="887.0,219.3 887.0,267.3 905.0,267.3 905.0,219.3 887.0,219.3"/>
</g>
<g stroke="#000" stroke-width="0.90" fill="#808080"  clip-path="url(#axis_clip)">
  <polygon points="-389.8,294.5 -389.8,292.6 -371.8,292.6 -371.8,294.5 -389.8,294.5"/>
  <polygon points="-345.0,306.9 -345.0,304.3 -327.0,304.3 -327.0,306.9 -345.0,306.9"/>
  <polygon points="-300.2,479.4 -300.2,459.3 -282.2,459.3 -282.2,479.4 -300.2,479.4"/>
  <polygon points="-277.8,296.2 -277.8,294.7 -259.8,294.7 -259.8,296.2 -277.8,296.2"/>
  <polygon points="-255.4,320.5 -255.4,316.8 -237.4,316.8 -237.4,320.5 -255.4,320.5"/>
  <polygon points="-233.0,311.2 -233.0,307.8 -215.0,307.8 -215.0,311.2 -233.0,311.2"/>
  <polygon points="-210.6,316.0 -210.6,312.7 -192.6,312.7 -192.6,316.0 -210.6,316.0"/>
  <polygon points="-188.2,351.3 -188.2,344.7 -170.2,344.7 -170.2,351.3 -188.2,351.3"/>
  <polygon points="-165.8,336.9 -165.8,333.2 -147.8,333.2 -147.8,336.9 -165.8,336.9"/>
  <polygon points="-143.4,292.0 -143.4,290.6 -125.4,290.6 -125.4,292.0 -143.4,292.0"/>
  <polygon points="-98.6,368.1 -98.6,363.7 -80.6,363.7 -80.6,368.1 -98.6,368.1"/>
  <polygon points="-76.2,350.5 -76.2,346.3 -58.2,346.3 -58.2,350.5 -76.2,350.5"/>
  <polygon points="-53.8,336.1 -53.8,332.1 -35.8,332.1 -35.8,336.1 -53.8,336.1"/>
  <polygon points="-9.0,301.3 -9.0,300.3 9.0,300.3 9.0,301.3 -9.0,301.3"/>
  <polygon points="13.4,339.0 13.4,338.0 31.4,338.0 31.4,339.0 13.4,339.0"/>
  <polygon points="35.8,304.2 35.8,303.0 53.8,303.0 53.8,304.2 35.8,304.2"/>
  <polygon points="58.2,290.7 58.2,289.8 76.2,289.8 76.2,290.7 58.2,290.7"/>
  <polygon points="80.6,330.6 80.6,327.4 98.6,327.4 98.6,330.6 80.6,330.6"/>
  <polygon points="103.0,402.5 103.0,392.8 121.0,392.8 121.0,402.5 103.0,402.5"/>
  <polygon points="125.4,308.3 125.4,307.6 143.4,307.6 143.4,308.3 125.4,308.3"/>
  <polygon points="192.6,357.8 192.6,357.2 210.6,357.2 210.6,357.8 192.6,357.8"/>
  <polygon points="215.0,333.4 215.0,328.9 233.0,328.9 233.0,333.4 215.0,333.4"/>
  <polygon points="237.4,327.5 237.4,326.3 255.4,326.3 255.4,327.5 237.4,327.5"/>
  <polygon points="259.8,317.2 259.8,315.0 277.8,315.0 277.8,317.2 259.8,317.2"/>
  <polygon points="282.2,325.6 282.2,322.8 300.2,322.8 300.2,325.6 282.2,325.6"/>
  <polygon points="304.6,430.8 304.6,415.3 322.6,415.3 322.6,430.8 304.6,430.8"/>
  <polygon points="327.0,358.8 327.0,356.2 345.0,356.2 345.0,358.8 327.0,358.8"/>
  <polygon points="371.8,336.2 371.8,334.2 389.8,334.2 389.8,336.2 371.8,336.2"/>
  <polygon points="416.6,392.4 416.6,388.2 434.6,388.2 434.6,392.4 416.6,392.4"/>
  <polygon points="461.4,372.1 461.4,365.5 479.4,365.5 479.4,372.1 461.4,372.1"/>
  <polygon points="483.8,332.6 483.8,328.3 501.8,328.3 501.8,332.6 483.8,332.6"/>
  <polygon points="506.2,318.9 506.2,315.7 524.2,315.7 524.2,318.9 506.2,318.9"/>
  <polygon points="528.6,377.2 528.6,366.7 546.6,366.7 546.6,377.2 528.6,377.2"/>
  <polygon points="551.0,363.6 551.0,359.7 569.0,359.7 569.0,363.6 551.0,363.6"/>
  <polygon points="730.2,361.0 730.2,359.1 748.2,359.1 748.2,361.0 730.2,361.0"/>
  <polygon points="775.0,384.4 775.0,383.5 793.0,383.5 793.0,384.4 775.0,384.4"/>
  <polygon points="797.4,345.8 797.4,342.7 815.4,342.7 815.4,345.8 797.4,345.8"/>
</g>
<g stroke="#000" stroke-width="0.90" fill="#8DA0CB"  clip-path="url(#axis_clip)">
  <polygon points="-389.8,292.6 -389.8,273.6 -371.8,273.6 -371.8,292.6 -389.8,292.6"/>
  <polygon points="-367.4,295.2 -367.4,267.3 -349.4,267.3 -349.4,295.2 -367.4,295.2"/>
  <polygon points="-345.0,304.3 -345.0,267.3 -327.0,267.3 -327.0,304.3 -345.0,304.3"/>
  <polygon points="-300.2,459.3 -300.2,267.3 -282.2,267.3 -282.2,459.3 -300.2,459.3"/>
  <polygon points="-255.4,316.8 -255.4,316.7 -237.4,316.7 -237.4,316.8 -255.4,316.8"/>
  <polygon points="-188.2,344.7 -188.2,267.3 -170.2,267.3 -170.2,344.7 -188.2,344.7"/>
  <polygon points="-165.8,333.2 -165.8,274.2 -147.8,274.2 -147.8,333.2 -165.8,333.2"/>
  <polygon points="-143.4,290.6 -143.4,275.4 -125.4,275.4 -125.4,290.6 -143.4,290.6"/>
  <polygon points="-98.6,363.7 -98.6,295.9 -80.6,295.9 -80.6,363.7 -98.6,363.7"/>
  <polygon points="-76.2,346.3 -76.2,268.5 -58.2,268.5 -58.2,346.3 -76.2,346.3"/>
  <polygon points="-9.0,300.3 -9.0,295.6 9.0,295.6 9.0,300.3 -9.0,300.3"/>
  <polygon points="13.4,338.0 13.4,308.3 31.4,308.3 31.4,338.0 13.4,338.0"/>
  <polygon points="80.6,327.4 80.6,320.4 98.6,320.4 98.6,327.4 80.6,327.4"/>
  <polygon points="103.0,392.8 103.0,350.1 121.0,350.1 121.0,392.8 103.0,392.8"/>
  <polygon points="125.4,307.6 125.4,299.5 143.4,299.5 143.4,307.6 125.4,307.6"/>
  <polygon points="147.8,426.2 147.8,364.5 165.8,364.5 165.8,426.2 147.8,426.2"/>
  <polygon points="170.2,489.4 170.2,480.9 188.2,480.9 188.2,489.4 170.2,489.4"/>
  <polygon points="192.6,357.2 192.6,347.5 210.6,347.5 210.6,357.2 192.6,357.2"/>
  <polygon points="215.0,328.9 215.0,280.2 233.0,280.2 233.0,328.9 215.0,328.9"/>
  <polygon points="259.8,315.0 259.8,267.3 277.8,267.3 277.8,315.0 259.8,315.0"/>
  <polygon points="327.0,356.2 327.0,345.7 345.0,345.7 345.0,356.2 327.0,356.2"/>
  <polygon points="349.4,406.8 349.4,400.3 367.4,400.3 367.4,406.8 349.4,406.8"/>
  <polygon points="371.8,334.2 371.8,313.5 389.8,313.5 389.8,334.2 371.8,334.2"/>
  <polygon points="416.6,388.2 416.6,356.6 434.6,356.6 434.6,388.2 416.6,388.2"/>
  <polygon points="483.8,328.3 483.8,267.3 501.8,267.3 501.8,328.3 483.8,328.3"/>
  <polygon points="551.0,359.7 551.0,339.2 569.0,339.2 569.0,359.7 551.0,359.7"/>
  <polygon points="573.4,435.3 573.4,397.9 591.4,397.9 591.4,435.3 573.4,435.3"/>
  <polygon points="595.8,268.6 595.8,267.3 613.8,267.3 613.8,268.6 595.8,268.6"/>
  <polygon points="640.6,374.2 640.6,327.9 658.6,327.9 658.6,374.2 640.6,374.2"/>
  <polygon points="663.0,392.7 663.0,341.3 681.0,341.3 681.0,392.7 663.0,392.7"/>
  <polygon points="685.4,276.0 685.4,267.3 703.4,267.3 703.4,276.0 685.4,276.0"/>
  <polygon points="730.2,359.1 730.2,352.0 748.2,352.0 748.2,359.1 730.2,359.1"/>
  <polygon points="775.0,383.5 775.0,292.1 793.0,292.1 793.0,383.5 775.0,383.5"/>
  <polygon points="819.8,418.5 819.8,353.2 837.8,353.2 837.8,418.5 819.8,418.5"/>
  <polygon points="887.0,570.1 887.0,447.5 905.0,447.5 905.0,570.1 887.0,570.1"/>
</g>
<g stroke="#000" stroke-width="0.90" fill="#66C2A5"  clip-path="url(#axis_clip)">
  <polygon points="-389.8,273.6 -389.8,267.3 -371.8,267.3 -371.8,273.6 -389.8,273.6"/>
  <polygon points="-277.8,294.7 -277.8,267.3 -259.8,267.3 -259.8,294.7 -277.8,294.7"/>
  <polygon points="-255.4,316.7 -255.4,267.3 -237.4,267.3 -237.4,316.7 -255.4,316.7"/>
  <polygon points="-233.0,307.8 -233.0,267.3 -215.0,267.3 -215.0,307.8 -233.0,307.8"/>
  <polygon points="-210.6,312.7 -210.6,267.3 -192.6,267.3 -192.6,312.7 -210.6,312.7"/>
  <polygon points="-165.8,274.2 -165.8,267.3 -147.8,267.3 -147.8,274.2 -165.8,274.2"/>
  <polygon points="-143.4,275.4 -143.4,267.3 -125.4,267.3 -125.4,275.4 -143.4,275.4"/>
  <polygon points="-121.0,288.0 -121.0,267.3 -103.0,267.3 -103.0,288.0 -121.0,288.0"/>
  <polygon points="-98.6,295.9 -98.6,267.3 -80.6,267.3 -80.6,295.9 -98.6,295.9"/>
  <polygon points="-76.2,268.5 -76.2,267.3 -58.2,267.3 -58.2,268.5 -76.2,268.5"/>
  <polygon points="-53.8,332.1 -53.8,267.3 -35.8,267.3 -35.8,332.1 -53.8,332.1"/>
  <polygon points="-9.0,295.6 -9.0,267.3 9.0,267.3 9.0,295.6 -9.0,295.6"/>
  <polygon points="13.4,308.3 13.4,267.3 31.4,267.3 31.4,308.3 13.4,308.3"/>
  <polygon points="35.8,303.0 35.8,267.3 53.8,267.3 53.8,303.0 35.8,303.0"/>
  <polygon points="58.2,289.8 58.2,267.3 76.2,267.3 76.2,289.8 58.2,289.8"/>
  <polygon points="80.6,320.4 80.6,267.3 98.6,267.3 98.6,320.4 80.6,320.4"/>
  <polygon points="103.0,350.1 103.0,267.3 121.0,267.3 121.0,350.1 103.0,350.1"/>
  <polygon points="170.2,480.9 170.2,357.3 188.2,357.3 188.2,480.9 170.2,480.9"/>
  <polygon points="237.4,326.3 237.4,267.3 255.4,267.3 255.4,326.3 237.4,326.3"/>
  <polygon points="282.2,322.8 282.2,267.3 300.2,267.3 300.2,322.8 282.2,322.8"/>
  <polygon points="327.0,345.7 327.0,267.3 345.0,267.3 345.0,345.7 327.0,345.7"/>
  <polygon points="349.4,400.3 349.4,356.8 367.4,356.8 367.4,400.3 349.4,400.3"/>
  <polygon points="371.8,313.5 371.8,267.3 389.8,267.3 389.8,313.5 371.8,313.5"/>
  <polygon points="394.2,272.6 394.2,267.3 412.2,267.3 412.2,272.6 394.2,272.6"/>
  <polygon points="416.6,356.6 416.6,267.3 434.6,267.3 434.6,356.6 416.6,356.6"/>
  <polygon points="439.0,285.4 439.0,267.3 457.0,267.3 457.0,285.4 439.0,285.4"/>
  <polygon points="461.4,365.5 461.4,267.3 479.4,267.3 479.4,365.5 461.4,365.5"/>
  <polygon points="506.2,315.7 506.2,267.3 524.2,267.3 524.2,315.7 506.2,315.7"/>
  <polygon points="528.6,366.7 528.6,267.3 546.6,267.3 546.6,366.7 528.6,366.7"/>
  <polygon points="551.0,339.2 551.0,267.3 569.0,267.3 569.0,339.2 551.0,339.2"/>
  <polygon points="573.4,397.9 573.4,299.3 591.4,299.3 591.4,397.9 573.4,397.9"/>
  <polygon points="640.6,327.9 640.6,267.3 658.6,267.3 658.6,327.9 640.6,327.9"/>
  <polygon points="663.0,341.3 663.0,270.3 681.0,270.3 681.0,341.3 663.0,341.3"/>
  <polygon points="730.2,352.0 730.2,267.3 748.2,267.3 748.2,352.0 730.2,352.0"/>
  <polygon points="752.6,271.3 752.6,267.3 770.6,267.3 770.6,271.3 752.6,271.3"/>
  <polygon points="775.0,292.1 775.0,267.3 793.0,267.3 793.0,292.1 775.0,292.1"/>
  <polygon points="797.4,342.7 797.4,267.3 815.4,267.3 815.4,342.7 797.4,342.7"/>
  <polygon points="819.8,353.2 819.8,316.8 837.8,316.8 837.8,353.2 819.8,353.2"/>
  <polygon points="887.0,447.5 887.0,267.3 905.0,267.3 905.0,447.5 887.0,447.5"/>
</g>
<g stroke="#000" stroke-width="0.90" fill="#FC8D62"  clip-path="url(#axis_clip)">
  <polygon points="125.4,299.5 125.4,267.3 143.4,267.3 143.4,299.5 125.4,299.5"/>
  <polygon points="147.8,364.5 147.8,267.3 165.8,267.3 165.8,364.5 147.8,364.5"/>
  <polygon points="170.2,357.3 170.2,267.3 188.2,267.3 188.2,357.3 170.2,357.3"/>
  <polygon points="192.6,347.5 192.6,267.3 210.6,267.3 210.6,347.5 192.6,347.5"/>
  <polygon points="215.0,280.2 215.0,267.3 233.0,267.3 233.0,280.2 215.0,280.2"/>
  <polygon points="304.6,415.3 304.6,267.3 322.6,267.3 322.6,415.3 304.6,415.3"/>
  <polygon points="349.4,356.8 349.4,267.3 367.4,267.3 367.4,356.8 349.4,356.8"/>
  <polygon points="573.4,299.3 573.4,267.3 591.4,267.3 591.4,299.3 573.4,299.3"/>
  <polygon points="663.0,270.3 663.0,267.3 681.0,267.3 681.0,270.3 663.0,270.3"/>
  <polygon points="819.8,316.8 819.8,267.3 837.8,267.3 837.8,316.8 819.8,316.8"/>
</g>
<g class="pl" fill="#000" stroke="#000" stroke-width="0.900">
  <circle cx="156.8" cy="405.9" r="5.4" />
  <circle cx="179.2" cy="477.3" r="5.4" />
  <circle cx="201.6" cy="342.1" r="5.4" />
  <circle cx="224.0" cy="245.1" r="5.4" />
  <circle cx="246.4" cy="304.3" r="5.4" />
  <circle cx="268.8" cy="238.2" r="5.4" />
  <circle cx="291.2" cy="260.2" r="5.4" />
  <circle cx="313.6" cy="312.7" r="5.4" />
  <circle cx="336.0" cy="318.4" r="5.4" />
  <circle cx="358.4" cy="402.3" r="5.4" />
  <circle cx="380.8" cy="290.3" r="5.4" />
  <circle cx="403.2" cy="181.7" r="5.4" />
  <circle cx="425.6" cy="329.8" r="5.4" />
  <circle cx="448.0" cy="166.9" r="5.4" />
  <circle cx="470.4" cy="290.4" r="5.4" />
  <circle cx="492.8" cy="241.5" r="5.4" />
  <circle cx="515.2" cy="241.2" r="5.4" />
  <circle cx="537.6" cy="188.6" r="5.4" />
  <circle cx="560.0" cy="301.5" r="5.4" />
  <circle cx="582.4" cy="427.8" r="5.4" />
  <circle cx="604.8" cy="219.3" r="5.4" />
  <circle cx="627.2" cy="149.2" r="5.4" />
  <circle cx="649.6" cy="367.0" r="5.4" />
  <circle cx="672.0" cy="388.9" r="5.4" />
  <circle cx="694.4" cy="204.2" r="5.4" />
  <circle cx="716.8" cy="197.7" r="5.4" />
  <circle cx="739.2" cy="331.6" r="5.4" />
  <circle cx="761.6" cy="214.9" r="5.4" />
  <circle cx="784.0" cy="355.8" r="5.4" />
  <circle cx="806.4" cy="299.3" r="5.4" />
  <circle cx="828.8" cy="411.7" r="5.4" />
  <circle cx="851.2" cy="95.7" r="5.4" />
  <circle cx="873.6" cy="153.1" r="5.4" />
  <circle cx="896.0" cy="514.1" r="5.4" />
</g>
<text transform="translate(945.6,243.3)" dy="8.1" font-size="27.00" fill="#FC8D62" stroke="none">GDP</text>
<text transform="translate(945.6,215.3)" dy="8.1" font-size="27.00" fill="#808080" stroke="none">Interactions</text>
<text transform="translate(945.6,357.4)" dy="8.1" font-size="27.00" fill="#66C2A5" stroke="none">Energy/GDP</text>
<text transform="translate(945.6,498.5)" dy="8.1" font-size="27.00" fill="#8DA0CB" stroke="none">CO<tspan dy="0.2em"><tspan style="font-size:70%">2</tspan></tspan><tspan dy="-0.2em">/</tspan>Energy</text>
<text transform="translate(945.6,524.4)" dy="8.1" font-size="27.00" fill="#000" stroke="none">Fossil CO<tspan dy="0.2em"><tspan style="font-size:70%">2</tspan></tspan><tspan dy="-0.2em"></tspan></text>
<polyline class="pl" points="910.8,243.3 912.4,243.3 913.8,243.3 915.2,243.3 916.4,243.3 917.6,243.3 918.8,243.3 919.8,243.3 920.8,243.3 921.7,243.3 922.7,243.3 923.5,243.3 924.4,243.3 925.2,243.3 926.0,243.3 926.8,243.3 927.6,243.3 928.4,243.3 929.3,243.3 930.1,243.3 931.1,243.3 932.0,243.3 933.0,243.3 934.0,243.3 935.2,243.3 936.4,243.3 937.6,243.3 939.0,243.3 940.4,243.3 942.0,243.3" stroke="#FC8D62" stroke-width="0.90" stroke-opacity="1.00" fill="none" />
<polyline class="pl" points="910.8,215.3 912.4,215.3 913.8,215.3 915.2,215.3 916.4,215.3 917.6,215.3 918.8,215.3 919.8,215.3 920.8,215.3 921.7,215.3 922.7,215.3 923.5,215.3 924.4,215.3 925.2,215.3 926.0,215.3 926.8,215.3 927.6,215.3 928.4,215.3 929.3,215.3 930.1,215.3 931.1,215.3 932.0,215.3 933.0,215.3 934.0,215.3 935.2,215.3 936.4,215.3 937.6,215.3 939.0,215.3 940.4,215.3 942.0,215.3" stroke="#808080" stroke-width="0.90" stroke-opacity="1.00" fill="none" />
<polyline class="pl" points="910.8,357.4 912.4,357.4 913.8,357.4 915.2,357.4 916.4,357.4 917.6,357.4 918.8,357.4 919.8,357.4 920.8,357.4 921.7,357.4 922.7,357.4 923.5,357.4 924.4,357.4 925.2,357.4 926.0,357.4 926.8,357.4 927.6,357.4 928.4,357.4 929.3,357.4 930.1,357.4 931.1,357.4 932.0,357.4 933.0,357.4 934.0,357.4 935.2,357.4 936.4,357.4 937.6,357.4 939.0,357.4 940.4,357.4 942.0,357.4" stroke="#66C2A5" stroke-width="0.90" stroke-opacity="1.00" fill="none" />
<polyline class="pl" points="910.8,508.8 912.4,508.8 913.8,508.7 915.2,508.5 916.4,508.3 917.6,508.0 918.8,507.7 919.8,507.3 920.8,506.9 921.7,506.5 922.7,506.0 923.5,505.5 924.4,505.0 925.2,504.5 926.0,503.9 926.8,503.4 927.6,502.9 928.4,502.4 929.3,501.8 930.1,501.4 931.1,500.9 932.0,500.4 933.0,500.0 934.0,499.7 935.2,499.3 936.4,499.1 937.6,498.8 939.0,498.7 940.4,498.6 942.0,498.5" stroke="#8DA0CB" stroke-width="0.90" stroke-opacity="1.00" fill="none" />
<polyline class="pl" points="910.8,514.1 912.4,514.2 913.8,514.3 915.2,514.4 916.4,514.7 917.6,514.9 918.8,515.3 919.8,515.6 920.8,516.0 921.7,516.5 922.7,517.0 923.5,517.4 924.4,518.0 925.2,518.5 926.0,519.0 926.8,519.5 927.6,520.1 928.4,520.6 929.3,521.1 930.1,521.6 931.1,522.1 932.0,522.5 933.0,522.9 934.0,523.3 935.2,523.6 936.4,523.9 937.6,524.1 939.0,524.3 940.4,524.4 942.0,524.4" stroke="#000" stroke-width="0.90" stroke-opacity="1.00" fill="none" />
<text transform="translate(145.6,47.2)" dy="0.0" font-size="27.00" fill="#808080" stroke="none">Kaya decomposition of emissions growth: Bulgaria</text>
<text transform="translate(157.6,60.7)" dy="18.0" font-size="18.00" fill="#808080" stroke="none">Percentage change relative to previous year</text>
<text transform="translate(157.6,82.3)" dy="18.0" font-size="18.00" fill="#808080" stroke="none">Adjusted for leap years</text>
<text transform="translate(160.3,666.1)" font-size="19.80" font-family="Helvetica" fill="#BFBFBF" stroke="none" xml:space="preserve">Global Carbon Project</text>
<g>
  <rect x="123.0" y="651.4" width="34" height="17" fill="#FFF" stroke="none" opacity="0.01"/>
  <g transform="translate(124.0,652.4) scale(0.24)">
  <g><circle fill="#FFF" cx="37.79" cy="28.5" r="28.84"/>
     <circle fill="none" cx="37.79" cy="28.5" r="28.84" stroke="#BFBFBF" stroke-width="5.5"/>
     <path fill="#BFBFBF" d="M37.16,23.19 l-4.29,2.23c-0.458-0.951-1.02-1.62-1.69-2c-0.667-0.38-1.29-0.571-1.86-0.571c-2.86,0-4.29,1.89-4.29,5.66 c0,1.71,0.36,3.08,1.09,4.11c0.724,1.03,1.79,1.54,3.2,1.54c1.87,0,3.18-0.915,3.94-2.74l3.94,2 c-0.838,1.56-2,2.79-3.49,3.69c-1.48,0.896-3.12,1.34-4.91,1.34c-2.86,0-5.16-0.875-6.92-2.63 c-1.75-1.75-2.63-4.19-2.63-7.31c0-3.05,0.886-5.47,2.66-7.26c1.77-1.79,4.01-2.69,6.72-2.69 C32.6,18.56,35.44,20.1,37.16,23.19z
              M55.61,23.19l-4.23,2.23c-0.457-0.951-1.02-1.62-1.69-2 c-0.668-0.38-1.31-0.571-1.91-0.571c-2.86,0-4.29,1.89-4.29,5.66c0,1.71,0.363,3.08,1.09,4.11 c0.723,1.03,1.79,1.54,3.2,1.54c1.87,0,3.18-0.915,3.94-2.74l4,2c-0.875,1.56-2.06,2.79-3.54,3.69 c-1.49,0.9-3.11,1.34-4.86,1.34c-2.9,0-5.21-0.875-6.94-2.63c-1.74-1.75-2.6-4.19-2.6-7.31 c0-3.05,0.885-5.47,2.66-7.26c1.77-1.79,4.01-2.69,6.71-2.69C51.12,18.56,53.944,20.1,55.61,23.19z"/>
  </g></g>
  <g transform="translate(140.2,652.4) scale(0.24)">
  <g><circle fill="#FFF" cx="37.79" cy="28.5" r="28.84"/>
     <circle fill="none" cx="37.79" cy="28.5" r="28.84" stroke="#BFBFBF" stroke-width="5.5"/>
     <path fill="#BFBFBF" d="M46.129,20.557v13.085h-3.656v15.542h-9.944V33.643h-3.656V20.557 c0-0.572,0.2-1.057,0.599-1.457c0.401-0.399,0.887-0.6,1.457-0.6h13.144c0.533,0,1.01,0.2,1.428,0.6 C45.918,19.5,46.129,19.986,46.129,20.557z
              M33.042,12.329c0-3.008,1.485-4.514,4.458-4.514s4.457,1.504,4.457,4.514 c0,2.971-1.486,4.457-4.457,4.457S33.042,15.3,33.042,12.329z"/>
  </g></g>
</g>
</g>
</svg>
