<svg version="1.1" xmlns="http://www.w3.org/2000/svg" xmlns:xlink="http://www.w3.org/1999/xlink" width="100%" height="100%" viewBox="0 0 1200.000 674.916">
<title>Annual Greenhouse Gas Emissions: Austria</title>
<style type="text/css">
  #main {font-family:Helvetica,Arial,sans-serif; font-size:27.00px;
         fill-opacity:1; fill:#000000; stroke:none; stroke-linejoin:round; stroke-linecap:round; stroke-width:1.00;}
  .marker {stroke-opacity:0;fill-opacity:0;}
  .marker:hover {stroke-opacity:0.5; fill-opacity:1;}
  .ticklabel {font-size:27.00px;fill:#808080;stroke:none;font-family:Helvetica}
  .ytl {text-anchor:end;}
  .dp1 {pointer-events:none;font-size:70%;text-anchor:middle;fill:#000000;}
  .dp2 {pointer-events:none;font-size:70%;text-anchor:middle;fill:#FFFFFF;}
  .numtip {pointer-events:none;}
  .cc {opacity:0.25;}
.dl_fe {background-color:#FDFFDF;display:flex;margin:auto;align-items:center}
.dl_fe_p {font-size:20px;text-align:center;margin:3px}
.dl_el {display:none;pointer-events:none;}
.cc:hover + .dl_el {display:block;}
text:hover + .dl_el {display:block;}
</style>
<defs>
  <clipPath id="axis_clip"><rect x="145.8" y="54.2" width="761.2" height="532.8" /></clipPath>
  <path id="line_y" d="M 0,53.993 v 533.183" stroke="#262626" stroke-opacity="0.15" stroke-width="1.00"/>
  <path id="line_x" d="M 145.600,0 h 761.600" stroke="#262626" stroke-opacity="0.15" stroke-width="1.00"/>
  <path id="tick_y" d="M 145.600,0 h -6.000" stroke="#808080" stroke-width="0.90"/>
  <path id="tick_x" d="M 0,587.177 v 6.000" stroke="#808080" stroke-width="0.90"/>
</defs>
<g id="main">
<use xlink:href="#line_y" transform="translate(156.8,0)"/>
<use xlink:href="#line_y" transform="translate(268.8,0)"/>
<use xlink:href="#line_y" transform="translate(380.8,0)"/>
<use xlink:href="#line_y" transform="translate(492.8,0)"/>
<use xlink:href="#line_y" transform="translate(604.8,0)"/>
<use xlink:href="#line_y" transform="translate(716.8,0)"/>
<use xlink:href="#line_y" transform="translate(828.8,0)"/>
<use xlink:href="#line_y" transform="translate(896.0,0)"/>
<use xlink:href="#line_x" transform="translate(0,587.2)"/>
<use xlink:href="#line_x" transform="translate(0,434.8)"/>
<use xlink:href="#line_x" transform="translate(0,282.5)"/>
<use xlink:href="#line_x" transform="translate(0,130.2)"/>
<use xlink:href="#tick_y" transform="translate(0,587.2)"/>
<use xlink:href="#tick_y" transform="translate(0,434.8)"/>
<use xlink:href="#tick_y" transform="translate(0,282.5)"/>
<use xlink:href="#tick_y" transform="translate(0,130.2)"/>
<use xlink:href="#tick_x" transform="translate(156.8,0)"/>
<use xlink:href="#tick_x" transform="translate(268.8,0)"/>
<use xlink:href="#tick_x" transform="translate(380.8,0)"/>
<use xlink:href="#tick_x" transform="translate(492.8,0)"/>
<use xlink:href="#tick_x" transform="translate(604.8,0)"/>
<use xlink:href="#tick_x" transform="translate(716.8,0)"/>
<use xlink:href="#tick_x" transform="translate(828.8,0)"/>
<use xlink:href="#tick_x" transform="translate(896.0,0)"/>
<polyline points="145.6,53.993 145.6,587.177 907.2,587.177" stroke="#808080" stroke-width="0.90" fill="none"/>
<text class="ticklabel xtl" transform="translate(156.8,629.0)" text-anchor="middle">1990</text>
<text class="ticklabel xtl" transform="translate(268.8,629.0)" text-anchor="middle">1995</text>
<text class="ticklabel xtl" transform="translate(380.8,629.0)" text-anchor="middle">2000</text>
<text class="ticklabel xtl" transform="translate(492.8,629.0)" text-anchor="middle">2005</text>
<text class="ticklabel xtl" transform="translate(604.8,629.0)" text-anchor="middle">2010</text>
<text class="ticklabel xtl" transform="translate(716.8,629.0)" text-anchor="middle">2015</text>
<text class="ticklabel xtl" transform="translate(828.8,629.0)" text-anchor="middle">2020</text>
<text class="ticklabel xtl" transform="translate(896.0,629.0)" text-anchor="middle">23</text>
<text class="ticklabel ytl" transform="translate(128.8,595.3)">-40</text>
<text class="ticklabel ytl" transform="translate(128.8,442.9)">0</text>
<text class="ticklabel ytl" transform="translate(128.8,290.6)">40</text>
<text class="ticklabel ytl" transform="translate(128.8,138.3)">80 Mt</text>
<g stroke="#000" stroke-width="0.90" fill="#7FBF7F"  clip-path="url(#axis_clip)">
  <polygon class="pl" points="775.0,125.3 775.0,132.3 793.0,132.3 793.0,125.3 775.0,125.3"/>
  <polygon class="pl" points="797.4,104.9 797.4,127.7 815.4,127.7 815.4,104.9 797.4,104.9"/>
  <polygon class="pl" points="887.0,144.5 887.0,173.2 905.0,173.2 905.0,144.5 887.0,144.5"/>
</g>
<g stroke="#000" stroke-width="0.90" fill="#DBA746"  clip-path="url(#axis_clip)">
  <polygon class="pl" points="147.8,131.6 147.8,137.5 165.8,137.5 165.8,131.6 147.8,131.6"/>
  <polygon class="pl" points="170.2,117.6 170.2,124.1 188.2,124.1 188.2,117.6 170.2,117.6"/>
  <polygon class="pl" points="192.6,142.6 192.6,147.0 210.6,147.0 210.6,142.6 192.6,142.6"/>
  <polygon class="pl" points="215.0,141.2 215.0,145.2 233.0,145.2 233.0,141.2 215.0,141.2"/>
  <polygon class="pl" points="237.4,140.4 237.4,145.2 255.4,145.2 255.4,140.4 237.4,140.4"/>
  <polygon class="pl" points="259.8,128.0 259.8,133.9 277.8,133.9 277.8,128.0 259.8,128.0"/>
  <polygon class="pl" points="282.2,115.9 282.2,122.3 300.2,122.3 300.2,115.9 282.2,115.9"/>
  <polygon class="pl" points="304.6,117.3 304.6,123.8 322.6,123.8 322.6,117.3 304.6,117.3"/>
  <polygon class="pl" points="327.0,119.9 327.0,125.7 345.0,125.7 345.0,119.9 327.0,119.9"/>
  <polygon class="pl" points="349.4,125.7 349.4,131.2 367.4,131.2 367.4,125.7 349.4,125.7"/>
  <polygon class="pl" points="371.8,124.9 371.8,130.1 389.8,130.1 389.8,124.9 371.8,124.9"/>
  <polygon class="pl" points="394.2,110.1 394.2,116.1 412.2,116.1 412.2,110.1 394.2,110.1"/>
  <polygon class="pl" points="416.6,103.3 416.6,109.8 434.6,109.8 434.6,103.3 416.6,103.3"/>
  <polygon class="pl" points="439.0,82.9 439.0,89.5 457.0,89.5 457.0,82.9 439.0,82.9"/>
  <polygon class="pl" points="461.4,83.6 461.4,90.4 479.4,90.4 479.4,83.6 461.4,83.6"/>
  <polygon class="pl" points="483.8,79.4 483.8,86.1 501.8,86.1 501.8,79.4 483.8,79.4"/>
  <polygon class="pl" points="506.2,88.7 506.2,95.4 524.2,95.4 524.2,88.7 506.2,88.7"/>
  <polygon class="pl" points="528.6,99.3 528.6,106.3 546.6,106.3 546.6,99.3 528.6,99.3"/>
  <polygon class="pl" points="551.0,101.6 551.0,108.7 569.0,108.7 569.0,101.6 551.0,101.6"/>
  <polygon class="pl" points="573.4,126.7 573.4,133.3 591.4,133.3 591.4,126.7 573.4,126.7"/>
  <polygon class="pl" points="595.8,109.4 595.8,116.6 613.8,116.6 613.8,109.4 595.8,109.4"/>
  <polygon class="pl" points="618.2,117.8 618.2,125.2 636.2,125.2 636.2,117.8 618.2,117.8"/>
  <polygon class="pl" points="640.6,128.3 640.6,135.8 658.6,135.8 658.6,128.3 640.6,128.3"/>
  <polygon class="pl" points="663.0,126.9 663.0,134.5 681.0,134.5 681.0,126.9 663.0,126.9"/>
  <polygon class="pl" points="685.4,140.8 685.4,148.6 703.4,148.6 703.4,140.8 685.4,140.8"/>
  <polygon class="pl" points="707.8,132.6 707.8,140.5 725.8,140.5 725.8,132.6 707.8,132.6"/>
  <polygon class="pl" points="730.2,128.9 730.2,137.2 748.2,137.2 748.2,128.9 730.2,128.9"/>
  <polygon class="pl" points="752.6,120.1 752.6,128.5 770.6,128.5 770.6,120.1 752.6,120.1"/>
  <polygon class="pl" points="775.0,132.3 775.0,141.0 793.0,141.0 793.0,132.3 775.0,132.3"/>
  <polygon class="pl" points="797.4,127.7 797.4,136.3 815.4,136.3 815.4,127.7 797.4,127.7"/>
  <polygon class="pl" points="819.8,150.4 819.8,158.8 837.8,158.8 837.8,150.4 819.8,150.4"/>
  <polygon class="pl" points="842.2,137.5 842.2,145.0 860.2,145.0 860.2,137.5 842.2,137.5"/>
  <polygon class="pl" points="864.6,154.9 864.6,162.1 882.6,162.1 882.6,154.9 864.6,154.9"/>
  <polygon class="pl" points="887.0,173.2 887.0,180.1 905.0,180.1 905.0,173.2 887.0,173.2"/>
</g>
<g stroke="#000" stroke-width="0.90" fill="#845F48"  clip-path="url(#axis_clip)">
  <polygon class="pl" points="147.8,137.5 147.8,153.2 165.8,153.2 165.8,137.5 147.8,137.5"/>
  <polygon class="pl" points="170.2,124.1 170.2,139.9 188.2,139.9 188.2,124.1 170.2,124.1"/>
  <polygon class="pl" points="192.6,147.0 192.6,162.0 210.6,162.0 210.6,147.0 192.6,147.0"/>
  <polygon class="pl" points="215.0,145.2 215.0,160.3 233.0,160.3 233.0,145.2 215.0,145.2"/>
  <polygon class="pl" points="237.4,145.2 237.4,160.1 255.4,160.1 255.4,145.2 237.4,145.2"/>
  <polygon class="pl" points="259.8,133.9 259.8,149.1 277.8,149.1 277.8,133.9 259.8,133.9"/>
  <polygon class="pl" points="282.2,122.3 282.2,137.7 300.2,137.7 300.2,122.3 282.2,122.3"/>
  <polygon class="pl" points="304.6,123.8 304.6,139.4 322.6,139.4 322.6,123.8 304.6,123.8"/>
  <polygon class="pl" points="327.0,125.7 327.0,141.5 345.0,141.5 345.0,125.7 327.0,125.7"/>
  <polygon class="pl" points="349.4,131.2 349.4,147.1 367.4,147.1 367.4,131.2 349.4,131.2"/>
  <polygon class="pl" points="371.8,130.1 371.8,145.9 389.8,145.9 389.8,130.1 371.8,130.1"/>
  <polygon class="pl" points="394.2,116.1 394.2,131.5 412.2,131.5 412.2,116.1 394.2,116.1"/>
  <polygon class="pl" points="416.6,109.8 416.6,125.2 434.6,125.2 434.6,109.8 416.6,109.8"/>
  <polygon class="pl" points="439.0,89.5 439.0,104.8 457.0,104.8 457.0,89.5 439.0,89.5"/>
  <polygon class="pl" points="461.4,90.4 461.4,103.7 479.4,103.7 479.4,90.4 461.4,90.4"/>
  <polygon class="pl" points="483.8,86.1 483.8,99.5 501.8,99.5 501.8,86.1 483.8,86.1"/>
  <polygon class="pl" points="506.2,95.4 506.2,108.7 524.2,108.7 524.2,95.4 506.2,95.4"/>
  <polygon class="pl" points="528.6,106.3 528.6,119.5 546.6,119.5 546.6,106.3 528.6,106.3"/>
  <polygon class="pl" points="551.0,108.7 551.0,122.4 569.0,122.4 569.0,108.7 551.0,108.7"/>
  <polygon class="pl" points="573.4,133.3 573.4,146.3 591.4,146.3 591.4,133.3 573.4,133.3"/>
  <polygon class="pl" points="595.8,116.6 595.8,128.8 613.8,128.8 613.8,116.6 595.8,116.6"/>
  <polygon class="pl" points="618.2,125.2 618.2,137.8 636.2,137.8 636.2,125.2 618.2,125.2"/>
  <polygon class="pl" points="640.6,135.8 640.6,148.3 658.6,148.3 658.6,135.8 640.6,135.8"/>
  <polygon class="pl" points="663.0,134.5 663.0,146.9 681.0,146.9 681.0,134.5 663.0,134.5"/>
  <polygon class="pl" points="685.4,148.6 685.4,161.2 703.4,161.2 703.4,148.6 685.4,148.6"/>
  <polygon class="pl" points="707.8,140.5 707.8,153.2 725.8,153.2 725.8,140.5 707.8,140.5"/>
  <polygon class="pl" points="730.2,137.2 730.2,150.1 748.2,150.1 748.2,137.2 730.2,137.2"/>
  <polygon class="pl" points="752.6,128.5 752.6,141.2 770.6,141.2 770.6,128.5 752.6,128.5"/>
  <polygon class="pl" points="775.0,141.0 775.0,153.6 793.0,153.6 793.0,141.0 775.0,141.0"/>
  <polygon class="pl" points="797.4,136.3 797.4,148.8 815.4,148.8 815.4,136.3 797.4,136.3"/>
  <polygon class="pl" points="819.8,158.8 819.8,171.1 837.8,171.1 837.8,158.8 819.8,158.8"/>
  <polygon class="pl" points="842.2,145.0 842.2,157.4 860.2,157.4 860.2,145.0 842.2,145.0"/>
  <polygon class="pl" points="864.6,162.1 864.6,174.1 882.6,174.1 882.6,162.1 864.6,162.1"/>
  <polygon class="pl" points="887.0,180.1 887.0,191.9 905.0,191.9 905.0,180.1 887.0,180.1"/>
</g>
<g stroke="#000" stroke-width="0.90" fill="#4A89E8"  clip-path="url(#axis_clip)">
  <polygon class="pl" points="147.8,153.2 147.8,198.0 165.8,198.0 165.8,153.2 147.8,153.2"/>
  <polygon class="pl" points="170.2,139.9 170.2,184.3 188.2,184.3 188.2,139.9 170.2,139.9"/>
  <polygon class="pl" points="192.6,162.0 192.6,205.2 210.6,205.2 210.6,162.0 192.6,162.0"/>
  <polygon class="pl" points="215.0,160.3 215.0,203.6 233.0,203.6 233.0,160.3 215.0,160.3"/>
  <polygon class="pl" points="237.4,160.1 237.4,202.2 255.4,202.2 255.4,160.1 237.4,160.1"/>
  <polygon class="pl" points="259.8,149.1 259.8,190.9 277.8,190.9 277.8,149.1 259.8,149.1"/>
  <polygon class="pl" points="282.2,137.7 282.2,178.1 300.2,178.1 300.2,137.7 282.2,137.7"/>
  <polygon class="pl" points="304.6,139.4 304.6,178.5 322.6,178.5 322.6,139.4 304.6,139.4"/>
  <polygon class="pl" points="327.0,141.5 327.0,179.9 345.0,179.9 345.0,141.5 327.0,141.5"/>
  <polygon class="pl" points="349.4,147.1 349.4,184.7 367.4,184.7 367.4,147.1 349.4,147.1"/>
  <polygon class="pl" points="371.8,145.9 371.8,182.7 389.8,182.7 389.8,145.9 371.8,145.9"/>
  <polygon class="pl" points="394.2,131.5 394.2,167.5 412.2,167.5 412.2,131.5 394.2,131.5"/>
  <polygon class="pl" points="416.6,125.2 416.6,160.7 434.6,160.7 434.6,125.2 416.6,125.2"/>
  <polygon class="pl" points="439.0,104.8 439.0,140.0 457.0,140.0 457.0,104.8 439.0,104.8"/>
  <polygon class="pl" points="461.4,103.7 461.4,138.9 479.4,138.9 479.4,103.7 461.4,103.7"/>
  <polygon class="pl" points="483.8,99.5 483.8,133.6 501.8,133.6 501.8,99.5 483.8,99.5"/>
  <polygon class="pl" points="506.2,108.7 506.2,142.4 524.2,142.4 524.2,108.7 506.2,108.7"/>
  <polygon class="pl" points="528.6,119.5 528.6,152.7 546.6,152.7 546.6,119.5 528.6,119.5"/>
  <polygon class="pl" points="551.0,122.4 551.0,155.0 569.0,155.0 569.0,122.4 551.0,122.4"/>
  <polygon class="pl" points="573.4,146.3 573.4,178.5 591.4,178.5 591.4,146.3 573.4,146.3"/>
  <polygon class="pl" points="595.8,128.8 595.8,160.6 613.8,160.6 613.8,128.8 595.8,128.8"/>
  <polygon class="pl" points="618.2,137.8 618.2,168.7 636.2,168.7 636.2,137.8 618.2,137.8"/>
  <polygon class="pl" points="640.6,148.3 640.6,178.7 658.6,178.7 658.6,148.3 640.6,148.3"/>
  <polygon class="pl" points="663.0,146.9 663.0,176.8 681.0,176.8 681.0,146.9 663.0,146.9"/>
  <polygon class="pl" points="685.4,161.2 685.4,190.5 703.4,190.5 703.4,161.2 685.4,161.2"/>
  <polygon class="pl" points="707.8,153.2 707.8,182.1 725.8,182.1 725.8,153.2 707.8,153.2"/>
  <polygon class="pl" points="730.2,150.1 730.2,178.8 748.2,178.8 748.2,150.1 730.2,150.1"/>
  <polygon class="pl" points="752.6,141.2 752.6,169.8 770.6,169.8 770.6,141.2 752.6,141.2"/>
  <polygon class="pl" points="775.0,153.6 775.0,181.3 793.0,181.3 793.0,153.6 775.0,153.6"/>
  <polygon class="pl" points="797.4,148.8 797.4,176.0 815.4,176.0 815.4,148.8 797.4,148.8"/>
  <polygon class="pl" points="819.8,171.1 819.8,198.0 837.8,198.0 837.8,171.1 819.8,171.1"/>
  <polygon class="pl" points="842.2,157.4 842.2,184.4 860.2,184.4 860.2,157.4 842.2,157.4"/>
  <polygon class="pl" points="864.6,174.1 864.6,200.8 882.6,200.8 882.6,174.1 864.6,174.1"/>
  <polygon class="pl" points="887.0,191.9 887.0,218.1 905.0,218.1 905.0,191.9 887.0,191.9"/>
</g>
<g stroke="#000" stroke-width="0.90" fill="#FF7F61"  clip-path="url(#axis_clip)">
  <polygon class="pl" points="147.8,198.0 147.8,434.8 165.8,434.8 165.8,198.0 147.8,198.0"/>
  <polygon class="pl" points="170.2,184.3 170.2,434.8 188.2,434.8 188.2,184.3 170.2,184.3"/>
  <polygon class="pl" points="192.6,205.2 192.6,434.8 210.6,434.8 210.6,205.2 192.6,205.2"/>
  <polygon class="pl" points="215.0,203.6 215.0,434.8 233.0,434.8 233.0,203.6 215.0,203.6"/>
  <polygon class="pl" points="237.4,202.2 237.4,434.8 255.4,434.8 255.4,202.2 237.4,202.2"/>
  <polygon class="pl" points="259.8,190.9 259.8,434.8 277.8,434.8 277.8,190.9 259.8,190.9"/>
  <polygon class="pl" points="282.2,178.1 282.2,434.8 300.2,434.8 300.2,178.1 282.2,178.1"/>
  <polygon class="pl" points="304.6,178.5 304.6,434.8 322.6,434.8 322.6,178.5 304.6,178.5"/>
  <polygon class="pl" points="327.0,179.9 327.0,434.8 345.0,434.8 345.0,179.9 327.0,179.9"/>
  <polygon class="pl" points="349.4,184.7 349.4,434.8 367.4,434.8 367.4,184.7 349.4,184.7"/>
  <polygon class="pl" points="371.8,182.7 371.8,434.8 389.8,434.8 389.8,182.7 371.8,182.7"/>
  <polygon class="pl" points="394.2,167.5 394.2,434.8 412.2,434.8 412.2,167.5 394.2,167.5"/>
  <polygon class="pl" points="416.6,160.7 416.6,434.8 434.6,434.8 434.6,160.7 416.6,160.7"/>
  <polygon class="pl" points="439.0,140.0 439.0,434.8 457.0,434.8 457.0,140.0 439.0,140.0"/>
  <polygon class="pl" points="461.4,138.9 461.4,434.8 479.4,434.8 479.4,138.9 461.4,138.9"/>
  <polygon class="pl" points="483.8,133.6 483.8,434.8 501.8,434.8 501.8,133.6 483.8,133.6"/>
  <polygon class="pl" points="506.2,142.4 506.2,434.8 524.2,434.8 524.2,142.4 506.2,142.4"/>
  <polygon class="pl" points="528.6,152.7 528.6,434.8 546.6,434.8 546.6,152.7 528.6,152.7"/>
  <polygon class="pl" points="551.0,155.0 551.0,434.8 569.0,434.8 569.0,155.0 551.0,155.0"/>
  <polygon class="pl" points="573.4,178.5 573.4,434.8 591.4,434.8 591.4,178.5 573.4,178.5"/>
  <polygon class="pl" points="595.8,160.6 595.8,434.8 613.8,434.8 613.8,160.6 595.8,160.6"/>
  <polygon class="pl" points="618.2,168.7 618.2,434.8 636.2,434.8 636.2,168.7 618.2,168.7"/>
  <polygon class="pl" points="640.6,178.7 640.6,434.8 658.6,434.8 658.6,178.7 640.6,178.7"/>
  <polygon class="pl" points="663.0,176.8 663.0,434.8 681.0,434.8 681.0,176.8 663.0,176.8"/>
  <polygon class="pl" points="685.4,190.5 685.4,434.8 703.4,434.8 703.4,190.5 685.4,190.5"/>
  <polygon class="pl" points="707.8,182.1 707.8,434.8 725.8,434.8 725.8,182.1 707.8,182.1"/>
  <polygon class="pl" points="730.2,178.8 730.2,434.8 748.2,434.8 748.2,178.8 730.2,178.8"/>
  <polygon class="pl" points="752.6,169.8 752.6,434.8 770.6,434.8 770.6,169.8 752.6,169.8"/>
  <polygon class="pl" points="775.0,181.3 775.0,434.8 793.0,434.8 793.0,181.3 775.0,181.3"/>
  <polygon class="pl" points="797.4,176.0 797.4,434.8 815.4,434.8 815.4,176.0 797.4,176.0"/>
  <polygon class="pl" points="819.8,198.0 819.8,434.8 837.8,434.8 837.8,198.0 819.8,198.0"/>
  <polygon class="pl" points="842.2,184.4 842.2,434.8 860.2,434.8 860.2,184.4 842.2,184.4"/>
  <polygon class="pl" points="864.6,200.8 864.6,434.8 882.6,434.8 882.6,200.8 864.6,200.8"/>
  <polygon class="pl" points="887.0,218.1 887.0,434.8 905.0,434.8 905.0,218.1 887.0,218.1"/>
</g>
<g stroke="#000" stroke-width="0.90" fill="#7FBF7F"  clip-path="url(#axis_clip)">
  <polygon class="pl" points="147.8,487.2 147.8,434.8 165.8,434.8 165.8,487.2 147.8,487.2"/>
  <polygon class="pl" points="170.2,507.5 170.2,434.8 188.2,434.8 188.2,507.5 170.2,507.5"/>
  <polygon class="pl" points="192.6,486.2 192.6,434.8 210.6,434.8 210.6,486.2 192.6,486.2"/>
  <polygon class="pl" points="215.0,494.4 215.0,434.8 233.0,434.8 233.0,494.4 215.0,494.4"/>
  <polygon class="pl" points="237.4,484.7 237.4,434.8 255.4,434.8 255.4,484.7 237.4,484.7"/>
  <polygon class="pl" points="259.8,504.9 259.8,434.8 277.8,434.8 277.8,504.9 259.8,504.9"/>
  <polygon class="pl" points="282.2,491.7 282.2,434.8 300.2,434.8 300.2,491.7 282.2,491.7"/>
  <polygon class="pl" points="304.6,519.8 304.6,434.8 322.6,434.8 322.6,519.8 304.6,519.8"/>
  <polygon class="pl" points="327.0,513.4 327.0,434.8 345.0,434.8 345.0,513.4 327.0,513.4"/>
  <polygon class="pl" points="349.4,518.5 349.4,434.8 367.4,434.8 367.4,518.5 349.4,518.5"/>
  <polygon class="pl" points="371.8,503.6 371.8,434.8 389.8,434.8 389.8,503.6 371.8,503.6"/>
  <polygon class="pl" points="394.2,527.9 394.2,434.8 412.2,434.8 412.2,527.9 394.2,527.9"/>
  <polygon class="pl" points="416.6,495.3 416.6,434.8 434.6,434.8 434.6,495.3 416.6,495.3"/>
  <polygon class="pl" points="439.0,476.6 439.0,434.8 457.0,434.8 457.0,476.6 439.0,476.6"/>
  <polygon class="pl" points="461.4,495.1 461.4,434.8 479.4,434.8 479.4,495.1 461.4,495.1"/>
  <polygon class="pl" points="483.8,492.8 483.8,434.8 501.8,434.8 501.8,492.8 483.8,492.8"/>
  <polygon class="pl" points="506.2,467.1 506.2,434.8 524.2,434.8 524.2,467.1 506.2,467.1"/>
  <polygon class="pl" points="528.6,465.3 528.6,434.8 546.6,434.8 546.6,465.3 528.6,465.3"/>
  <polygon class="pl" points="551.0,472.1 551.0,434.8 569.0,434.8 569.0,472.1 551.0,472.1"/>
  <polygon class="pl" points="573.4,471.0 573.4,434.8 591.4,434.8 591.4,471.0 573.4,471.0"/>
  <polygon class="pl" points="595.8,479.5 595.8,434.8 613.8,434.8 613.8,479.5 595.8,479.5"/>
  <polygon class="pl" points="618.2,476.8 618.2,434.8 636.2,434.8 636.2,476.8 618.2,476.8"/>
  <polygon class="pl" points="640.6,469.7 640.6,434.8 658.6,434.8 658.6,469.7 640.6,469.7"/>
  <polygon class="pl" points="663.0,454.0 663.0,434.8 681.0,434.8 681.0,454.0 663.0,454.0"/>
  <polygon class="pl" points="685.4,472.3 685.4,434.8 703.4,434.8 703.4,472.3 685.4,472.3"/>
  <polygon class="pl" points="707.8,450.4 707.8,434.8 725.8,434.8 725.8,450.4 707.8,450.4"/>
  <polygon class="pl" points="730.2,465.8 730.2,434.8 748.2,434.8 748.2,465.8 730.2,465.8"/>
  <polygon class="pl" points="752.6,451.7 752.6,434.8 770.6,434.8 770.6,451.7 752.6,451.7"/>
  <polygon class="pl" points="819.8,438.5 819.8,434.8 837.8,434.8 837.8,438.5 819.8,438.5"/>
  <polygon class="pl" points="842.2,447.6 842.2,434.8 860.2,434.8 860.2,447.6 842.2,447.6"/>
  <polygon class="pl" points="864.6,435.6 864.6,434.8 882.6,434.8 882.6,435.6 864.6,435.6"/>
</g>
<polyline class="pl" points="156.8,184.0 179.2,190.2 201.6,194.0 224.0,200.8 246.4,190.3 268.8,198.1 291.2,172.8 313.6,202.3 336.0,198.4 358.4,209.4 380.8,193.7 403.2,203.1 425.6,163.8 448.0,124.6 470.4,143.9 492.8,137.3 515.2,121.0 537.6,129.8 560.0,138.9 582.4,162.9 604.8,154.1 627.2,159.8 649.6,163.2 672.0,146.0 694.4,178.2 716.8,148.2 739.2,159.9 761.6,137.0 784.0,125.3 806.4,104.9 828.8,154.0 851.2,150.3 873.6,155.6 896.0,144.5" stroke="#000" stroke-width="5.40" stroke-opacity="1.00" fill="none" clip-path="url(#axis_clip)"/>
<g class="pl" fill="#FFF" stroke="#000" stroke-width="0.900">
  <circle cx="179.2" cy="190.2" r="2.2" />
  <circle cx="201.6" cy="194.0" r="2.2" />
  <circle cx="224.0" cy="200.8" r="2.2" />
  <circle cx="246.4" cy="190.3" r="2.2" />
  <circle cx="268.8" cy="198.1" r="2.2" />
  <circle cx="291.2" cy="172.8" r="2.2" />
  <circle cx="313.6" cy="202.3" r="2.2" />
  <circle cx="336.0" cy="198.4" r="2.2" />
  <circle cx="358.4" cy="209.4" r="2.2" />
  <circle cx="403.2" cy="203.1" r="2.2" />
  <circle cx="425.6" cy="163.8" r="2.2" />
  <circle cx="448.0" cy="124.6" r="2.2" />
  <circle cx="470.4" cy="143.9" r="2.2" />
  <circle cx="492.8" cy="137.3" r="2.2" />
  <circle cx="515.2" cy="121.0" r="2.2" />
  <circle cx="537.6" cy="129.8" r="2.2" />
  <circle cx="560.0" cy="138.9" r="2.2" />
  <circle cx="582.4" cy="162.9" r="2.2" />
  <circle cx="627.2" cy="159.8" r="2.2" />
  <circle cx="649.6" cy="163.2" r="2.2" />
  <circle cx="672.0" cy="146.0" r="2.2" />
  <circle cx="694.4" cy="178.2" r="2.2" />
  <circle cx="716.8" cy="148.2" r="2.2" />
  <circle cx="739.2" cy="159.9" r="2.2" />
  <circle cx="761.6" cy="137.0" r="2.2" />
  <circle cx="784.0" cy="125.3" r="2.2" />
  <circle cx="806.4" cy="104.9" r="2.2" />
  <circle cx="851.2" cy="150.3" r="2.2" />
  <circle cx="873.6" cy="155.6" r="2.2" />
  <circle cx="896.0" cy="144.5" r="2.2" />
</g>
<g class="pl" fill="#FFF" stroke="#000" stroke-width="0.900">
  <circle cx="156.8" cy="184.0" r="5.4" />
  <circle cx="380.8" cy="193.7" r="5.4" />
  <circle cx="604.8" cy="154.1" r="5.4" />
  <circle cx="828.8" cy="154.0" r="5.4" />
</g>
<text transform="translate(145.6,47.2)" dy="0.0" font-size="27.00" fill="#808080" stroke="none">Annual Greenhouse Gas Emissions: Austria</text>
<text transform="translate(130.0,157.9)" dy="8.1" font-size="27.00" fill="#808080" stroke="none" text-anchor="end">CO<tspan dy="0.2em"><tspan style="font-size:70%">2</tspan></tspan><tspan dy="-0.2em">e</tspan></text>
<text transform="translate(945.6,125.2)" dy="7.6" font-size="25.20" fill="#000" stroke="none">+15.7% since 1990</text>
<text transform="translate(945.6,326.5)" dy="7.6" font-size="25.20" fill="#FF7F61" stroke="none">Fossil CO<tspan dy="0.2em"><tspan style="font-size:70%">2</tspan></tspan><tspan dy="-0.2em"></tspan></text>
<text transform="translate(945.6,223.2)" dy="7.6" font-size="25.20" fill="#4A89E8" stroke="none">CH<tspan dy="0.2em"><tspan style="font-size:70%">4</tspan></tspan><tspan dy="-0.2em"></tspan></text>
<text transform="translate(945.6,198.7)" dy="7.6" font-size="25.20" fill="#845F48" stroke="none">N<tspan dy="0.2em"><tspan style="font-size:70%">2</tspan></tspan><tspan dy="-0.2em">O</tspan></text>
<text transform="translate(945.6,174.2)" dy="7.6" font-size="25.20" fill="#DBA746" stroke="none">F-gas</text>
<text transform="translate(945.6,149.7)" dy="7.6" font-size="25.20" fill="#7FBF7F" stroke="none">LULUCF</text>
<text transform="translate(945.6,435.2)" dy="7.6" font-size="25.20" fill="#7FBF7F" stroke="none">LULUCF</text>
<polyline class="pl" points="910.8,144.5 912.4,144.5 913.8,144.3 915.2,144.0 916.4,143.5 917.6,143.0 918.8,142.4 919.8,141.7 920.8,140.9 921.7,140.1 922.7,139.2 923.5,138.3 924.4,137.3 925.2,136.4 926.0,135.4 926.8,134.4 927.6,133.4 928.4,132.4 929.3,131.4 930.1,130.5 931.1,129.6 932.0,128.8 933.0,128.1 934.0,127.4 935.2,126.7 936.4,126.2 937.6,125.8 939.0,125.5 940.4,125.3 942.0,125.2" stroke="#000" stroke-width="0.90" stroke-opacity="1.00" fill="none" />
<polyline class="pl" points="910.8,205.0 912.4,205.0 913.8,205.2 915.2,205.5 916.4,205.9 917.6,206.4 918.8,207.0 919.8,207.7 920.8,208.4 921.7,209.2 922.7,210.0 923.5,210.9 924.4,211.8 925.2,212.7 926.0,213.6 926.8,214.6 927.6,215.5 928.4,216.4 929.3,217.3 930.1,218.2 931.1,219.0 932.0,219.8 933.0,220.5 934.0,221.2 935.2,221.8 936.4,222.3 937.6,222.7 939.0,223.0 940.4,223.1 942.0,223.2" stroke="#4A89E8" stroke-width="0.90" stroke-opacity="1.00" fill="none" />
<polyline class="pl" points="910.8,186.0 912.4,186.0 913.8,186.2 915.2,186.4 916.4,186.7 917.6,187.0 918.8,187.4 919.8,187.9 920.8,188.4 921.7,188.9 922.7,189.5 923.5,190.1 924.4,190.7 925.2,191.4 926.0,192.0 926.8,192.7 927.6,193.3 928.4,194.0 929.3,194.6 930.1,195.2 931.1,195.8 932.0,196.3 933.0,196.8 934.0,197.3 935.2,197.7 936.4,198.1 937.6,198.3 939.0,198.5 940.4,198.7 942.0,198.7" stroke="#845F48" stroke-width="0.90" stroke-opacity="1.00" fill="none" />
<polyline class="pl" points="910.8,176.7 912.4,176.7 913.8,176.6 915.2,176.6 916.4,176.5 917.6,176.5 918.8,176.4 919.8,176.3 920.8,176.2 921.7,176.1 922.7,176.0 923.5,175.9 924.4,175.8 925.2,175.6 926.0,175.5 926.8,175.4 927.6,175.3 928.4,175.1 929.3,175.0 930.1,174.9 931.1,174.8 932.0,174.7 933.0,174.6 934.0,174.5 935.2,174.4 936.4,174.3 937.6,174.3 939.0,174.2 940.4,174.2 942.0,174.2" stroke="#DBA746" stroke-width="0.90" stroke-opacity="1.00" fill="none" />
<polyline class="pl" points="910.8,158.9 912.4,158.8 913.8,158.7 915.2,158.6 916.4,158.4 917.6,158.2 918.8,157.9 919.8,157.5 920.8,157.2 921.7,156.8 922.7,156.4 923.5,155.9 924.4,155.5 925.2,155.0 926.0,154.5 926.8,154.1 927.6,153.6 928.4,153.1 929.3,152.7 930.1,152.2 931.1,151.8 932.0,151.4 933.0,151.1 934.0,150.7 935.2,150.4 936.4,150.2 937.6,150.0 939.0,149.8 940.4,149.7 942.0,149.7" stroke="#7FBF7F" stroke-width="0.90" stroke-opacity="1.00" fill="none" />
<text transform="translate(160.0,666.1)" font-size="19.80" font-family="Helvetica" fill="#BFBFBF" stroke="none" xml:space="preserve">CICERO   &#9679;   Data: UNFCCC (2025)</text>
<g>
  <rect x="123.0" y="651.4" width="34" height="17" fill="#FFF" stroke="none" opacity="0.01"/>
  <g transform="translate(124.0,652.4) scale(0.24)">
  <g><circle fill="#FFF" cx="37.79" cy="28.5" r="28.84"/>
     <circle fill="none" cx="37.79" cy="28.5" r="28.84" stroke="#BFBFBF" stroke-width="5.5"/>
     <path fill="#BFBFBF" d="M37.16,23.19 l-4.29,2.23c-0.458-0.951-1.02-1.62-1.69-2c-0.667-0.38-1.29-0.571-1.86-0.571c-2.86,0-4.29,1.89-4.29,5.66 c0,1.71,0.36,3.08,1.09,4.11c0.724,1.03,1.79,1.54,3.2,1.54c1.87,0,3.18-0.915,3.94-2.74l3.94,2 c-0.838,1.56-2,2.79-3.49,3.69c-1.48,0.896-3.12,1.34-4.91,1.34c-2.86,0-5.16-0.875-6.92-2.63 c-1.75-1.75-2.63-4.19-2.63-7.31c0-3.05,0.886-5.47,2.66-7.26c1.77-1.79,4.01-2.69,6.72-2.69 C32.6,18.56,35.44,20.1,37.16,23.19z
              M55.61,23.19l-4.23,2.23c-0.457-0.951-1.02-1.62-1.69-2 c-0.668-0.38-1.31-0.571-1.91-0.571c-2.86,0-4.29,1.89-4.29,5.66c0,1.71,0.363,3.08,1.09,4.11 c0.723,1.03,1.79,1.54,3.2,1.54c1.87,0,3.18-0.915,3.94-2.74l4,2c-0.875,1.56-2.06,2.79-3.54,3.69 c-1.49,0.9-3.11,1.34-4.86,1.34c-2.9,0-5.21-0.875-6.94-2.63c-1.74-1.75-2.6-4.19-2.6-7.31 c0-3.05,0.885-5.47,2.66-7.26c1.77-1.79,4.01-2.69,6.71-2.69C51.12,18.56,53.944,20.1,55.61,23.19z"/>
  </g></g>
  <g transform="translate(140.2,652.4) scale(0.24)">
  <g><circle fill="#FFF" cx="37.79" cy="28.5" r="28.84"/>
     <circle fill="none" cx="37.79" cy="28.5" r="28.84" stroke="#BFBFBF" stroke-width="5.5"/>
     <path fill="#BFBFBF" d="M46.129,20.557v13.085h-3.656v15.542h-9.944V33.643h-3.656V20.557 c0-0.572,0.2-1.057,0.599-1.457c0.401-0.399,0.887-0.6,1.457-0.6h13.144c0.533,0,1.01,0.2,1.428,0.6 C45.918,19.5,46.129,19.986,46.129,20.557z
              M33.042,12.329c0-3.008,1.485-4.514,4.458-4.514s4.457,1.504,4.457,4.514 c0,2.971-1.486,4.457-4.457,4.457S33.042,15.3,33.042,12.329z"/>
  </g></g>
</g>
</g>
</svg>
