<svg version="1.1" xmlns="http://www.w3.org/2000/svg" xmlns:xlink="http://www.w3.org/1999/xlink" width="100%" height="100%" viewBox="0 0 1200.000 674.916">
<title>Annual Fossil CO2 Emissions in Canada, 2000&#8211;22</title>
<style type="text/css">
  #main {font-family:Helvetica,Arial,sans-serif; font-size:27.00px;
         fill-opacity:1; fill:#000000; stroke:none; stroke-linejoin:round; stroke-linecap:round; stroke-width:1.00;}
  .marker {stroke-opacity:0;fill-opacity:0;}
  .marker:hover {stroke-opacity:0.5; fill-opacity:1;}
  .ticklabel {font-size:27.00px;fill:#808080;stroke:none;font-family:Helvetica}
  .ytl {text-anchor:end;}
  .dp1 {pointer-events:none;font-size:70%;text-anchor:middle;fill:#000000;}
  .dp2 {pointer-events:none;font-size:70%;text-anchor:middle;fill:#FFFFFF;}
  .numtip {pointer-events:none;}
  .cc {opacity:0.25;}
.dl_fe {background-color:#FDFFDF;display:flex;margin:auto;align-items:center}
.dl_fe_p {font-size:20px;text-align:center;margin:3px}
.dl_el {display:none;pointer-events:none;}
.cc:hover + .dl_el {display:block;}
text:hover + .dl_el {display:block;}
</style>
<defs>
  <clipPath id="axis_clip"><rect x="145.8" y="54.2" width="761.2" height="532.8" /></clipPath>
  <path id="line_x" d="M 145.600,0 h 761.600" stroke="#262626" stroke-opacity="0.15" stroke-width="1.00"/>
  <path id="tick_y" d="M 145.600,0 h -6.000" stroke="#808080" stroke-width="0.90"/>
  <path id="tick_x" d="M 0,587.177 v 6.000" stroke="#808080" stroke-width="0.90"/>
</defs>
<g id="main">
<use xlink:href="#line_x" transform="translate(0,587.2)"/>
<use xlink:href="#line_x" transform="translate(0,498.3)"/>
<use xlink:href="#line_x" transform="translate(0,409.4)"/>
<use xlink:href="#line_x" transform="translate(0,320.6)"/>
<use xlink:href="#line_x" transform="translate(0,231.7)"/>
<use xlink:href="#line_x" transform="translate(0,142.9)"/>
<use xlink:href="#line_x" transform="translate(0,54.0)"/>
<use xlink:href="#tick_y" transform="translate(0,587.2)"/>
<use xlink:href="#tick_y" transform="translate(0,498.3)"/>
<use xlink:href="#tick_y" transform="translate(0,409.4)"/>
<use xlink:href="#tick_y" transform="translate(0,320.6)"/>
<use xlink:href="#tick_y" transform="translate(0,231.7)"/>
<use xlink:href="#tick_y" transform="translate(0,142.9)"/>
<use xlink:href="#tick_y" transform="translate(0,54.0)"/>
<use xlink:href="#tick_x" transform="translate(221.8,0)"/>
<use xlink:href="#tick_x" transform="translate(374.1,0)"/>
<use xlink:href="#tick_x" transform="translate(526.4,0)"/>
<use xlink:href="#tick_x" transform="translate(678.7,0)"/>
<use xlink:href="#tick_x" transform="translate(831.0,0)"/>
<polyline points="145.6,53.993 145.6,587.177 907.2,587.177" stroke="#808080" stroke-width="0.90" fill="none"/>
<text class="ticklabel ytl" transform="translate(128.8,595.3)">0</text>
<text class="ticklabel ytl" transform="translate(128.8,506.4)">50</text>
<text class="ticklabel ytl" transform="translate(128.8,417.5)">100</text>
<text class="ticklabel ytl" transform="translate(128.8,328.7)">150</text>
<text class="ticklabel ytl" transform="translate(128.8,239.8)">200</text>
<text class="ticklabel ytl" transform="translate(128.8,151.0)">250</text>
<text class="ticklabel ytl" transform="translate(128.8,62.1)">300 Mt</text>
<g stroke="#262626" stroke-width="0.9000"  clip-path="url(#axis_clip)">
  <polygon points="160.8,587.2 160.8,356.8 166.1,356.8 166.1,587.2" fill="#FFEFE6"/>
  <polygon points="313.2,587.2 313.2,165.6 318.5,165.6 318.5,587.2" fill="#EEE"/>
  <polygon points="465.5,587.2 465.5,279.0 470.8,279.0 470.8,587.2" fill="#E6F3FF"/>
  <polygon points="617.8,587.2 617.8,574.3 623.1,574.3 623.1,587.2" fill="#EEE"/>
  <polygon points="770.1,587.2 770.1,558.3 775.4,558.3 775.4,587.2" fill="#FFEAE6"/>
</g>
<g stroke="#262626" stroke-width="0.9000"  clip-path="url(#axis_clip)">
  <polygon points="166.1,587.2 166.1,361.3 171.4,361.3 171.4,587.2" fill="#F9E7DC"/>
  <polygon points="318.5,587.2 318.5,158.8 323.7,158.8 323.7,587.2" fill="#E7E7E7"/>
  <polygon points="470.8,587.2 470.8,293.0 476.1,293.0 476.1,587.2" fill="#DFEFFC"/>
  <polygon points="623.1,587.2 623.1,574.8 628.4,574.8 628.4,587.2" fill="#E8E8E8"/>
  <polygon points="775.4,587.2 775.4,559.3 780.7,559.3 780.7,587.2" fill="#FFE4DE"/>
</g>
<g stroke="#262626" stroke-width="0.9000"  clip-path="url(#axis_clip)">
  <polygon points="171.4,587.2 171.4,366.0 176.7,366.0 176.7,587.2" fill="#F3DED2"/>
  <polygon points="323.7,587.2 323.7,157.0 329.0,157.0 329.0,587.2" fill="#DFDFDF"/>
  <polygon points="476.1,587.2 476.1,281.9 481.4,281.9 481.4,587.2" fill="#D8EAFA"/>
  <polygon points="628.4,587.2 628.4,574.5 633.7,574.5 633.7,587.2" fill="#E2E2E2"/>
  <polygon points="780.7,587.2 780.7,558.7 786.0,558.7 786.0,587.2" fill="#FFDED6"/>
</g>
<g stroke="#262626" stroke-width="0.9000"  clip-path="url(#axis_clip)">
  <polygon points="176.7,587.2 176.7,367.6 182.0,367.6 182.0,587.2" fill="#EDD6C9"/>
  <polygon points="329.0,587.2 329.0,128.7 334.3,128.7 334.3,587.2" fill="#D8D8D8"/>
  <polygon points="481.4,587.2 481.4,277.5 486.7,277.5 486.7,587.2" fill="#D1E6F7"/>
  <polygon points="633.7,587.2 633.7,574.3 639.0,574.3 639.0,587.2" fill="#DDD"/>
  <polygon points="786.0,587.2 786.0,559.6 791.3,559.6 791.3,587.2" fill="#FFD8CF"/>
</g>
<g stroke="#262626" stroke-width="0.9000"  clip-path="url(#axis_clip)">
  <polygon points="182.0,587.2 182.0,381.2 187.3,381.2 187.3,587.2" fill="#E7CEBF"/>
  <polygon points="334.3,587.2 334.3,112.7 339.6,112.7 339.6,587.2" fill="#D0D0D0"/>
  <polygon points="486.7,587.2 486.7,284.6 492.0,284.6 492.0,587.2" fill="#CAE1F5"/>
  <polygon points="639.0,587.2 639.0,573.8 644.3,573.8 644.3,587.2" fill="#D7D7D7"/>
  <polygon points="791.3,587.2 791.3,558.7 796.6,558.7 796.6,587.2" fill="#FFD2C7"/>
</g>
<g stroke="#262626" stroke-width="0.9000"  clip-path="url(#axis_clip)">
  <polygon points="187.3,587.2 187.3,379.3 192.6,379.3 192.6,587.2" fill="#E1C6B6"/>
  <polygon points="339.6,587.2 339.6,123.5 344.9,123.5 344.9,587.2" fill="#C9C9C9"/>
  <polygon points="492.0,587.2 492.0,283.9 497.3,283.9 497.3,587.2" fill="#C4DDF2"/>
  <polygon points="644.3,587.2 644.3,573.6 649.6,573.6 649.6,587.2" fill="#D1D1D1"/>
  <polygon points="796.6,587.2 796.6,559.3 801.9,559.3 801.9,587.2" fill="#FFCCBF"/>
</g>
<g stroke="#262626" stroke-width="0.9000"  clip-path="url(#axis_clip)">
  <polygon points="192.6,587.2 192.6,384.0 197.9,384.0 197.9,587.2" fill="#DBBFAD"/>
  <polygon points="344.9,587.2 344.9,126.7 350.2,126.7 350.2,587.2" fill="#C1C1C1"/>
  <polygon points="497.3,587.2 497.3,287.8 502.6,287.8 502.6,587.2" fill="#BDD8EF"/>
  <polygon points="649.6,587.2 649.6,573.4 654.9,573.4 654.9,587.2" fill="#CBCBCB"/>
  <polygon points="801.9,587.2 801.9,558.7 807.2,558.7 807.2,587.2" fill="#FFC6B8"/>
</g>
<g stroke="#262626" stroke-width="0.9000"  clip-path="url(#axis_clip)">
  <polygon points="197.9,587.2 197.9,375.4 203.2,375.4 203.2,587.2" fill="#D5B7A5"/>
  <polygon points="350.2,587.2 350.2,114.8 355.5,114.8 355.5,587.2" fill="#B9B9B9"/>
  <polygon points="502.6,587.2 502.6,263.4 507.9,263.4 507.9,587.2" fill="#B7D4ED"/>
  <polygon points="654.9,587.2 654.9,573.4 660.2,573.4 660.2,587.2" fill="#C5C5C5"/>
  <polygon points="807.2,587.2 807.2,558.6 812.5,558.6 812.5,587.2" fill="#FFBFB0"/>
</g>
<g stroke="#262626" stroke-width="0.9000"  clip-path="url(#axis_clip)">
  <polygon points="203.2,587.2 203.2,386.4 208.5,386.4 208.5,587.2" fill="#CFB09C"/>
  <polygon points="355.5,587.2 355.5,130.5 360.8,130.5 360.8,587.2" fill="#B2B2B2"/>
  <polygon points="507.9,587.2 507.9,264.0 513.2,264.0 513.2,587.2" fill="#B0D0EA"/>
  <polygon points="660.2,587.2 660.2,574.8 665.5,574.8 665.5,587.2" fill="#BFBFBF"/>
  <polygon points="812.5,587.2 812.5,560.0 817.8,560.0 817.8,587.2" fill="#FFB9A8"/>
</g>
<g stroke="#262626" stroke-width="0.9000"  clip-path="url(#axis_clip)">
  <polygon points="208.5,587.2 208.5,420.8 213.8,420.8 213.8,587.2" fill="#C9A894"/>
  <polygon points="360.8,587.2 360.8,137.0 366.1,137.0 366.1,587.2" fill="#AAA"/>
  <polygon points="513.2,587.2 513.2,275.7 518.5,275.7 518.5,587.2" fill="#AACBE8"/>
  <polygon points="665.5,587.2 665.5,577.6 670.8,577.6 670.8,587.2" fill="#B9B9B9"/>
  <polygon points="817.8,587.2 817.8,561.6 823.1,561.6 823.1,587.2" fill="#FFB3A1"/>
</g>
<g stroke="#262626" stroke-width="0.9000"  clip-path="url(#axis_clip)">
  <polygon points="213.8,587.2 213.8,416.5 219.1,416.5 219.1,587.2" fill="#C3A18C"/>
  <polygon points="366.1,587.2 366.1,129.0 371.4,129.0 371.4,587.2" fill="#A2A2A2"/>
  <polygon points="518.5,587.2 518.5,268.6 523.8,268.6 523.8,587.2" fill="#A4C7E5"/>
  <polygon points="670.8,587.2 670.8,576.5 676.1,576.5 676.1,587.2" fill="#B3B3B3"/>
  <polygon points="823.1,587.2 823.1,561.0 828.4,561.0 828.4,587.2" fill="#FFAD99"/>
</g>
<g stroke="#262626" stroke-width="0.9000"  clip-path="url(#axis_clip)">
  <polygon points="219.1,587.2 219.1,432.6 224.4,432.6 224.4,587.2" fill="#BD9A85"/>
  <polygon points="371.4,587.2 371.4,126.1 376.7,126.1 376.7,587.2" fill="#9A9A9A"/>
  <polygon points="523.8,587.2 523.8,239.8 529.0,239.8 529.0,587.2" fill="#9EC3E3"/>
  <polygon points="676.1,587.2 676.1,576.5 681.4,576.5 681.4,587.2" fill="#ADADAD"/>
  <polygon points="828.4,587.2 828.4,560.7 833.7,560.7 833.7,587.2" fill="#FFA791"/>
</g>
<g stroke="#262626" stroke-width="0.9000"  clip-path="url(#axis_clip)">
  <polygon points="224.4,587.2 224.4,442.0 229.7,442.0 229.7,587.2" fill="#B7937D"/>
  <polygon points="376.7,587.2 376.7,123.5 382.0,123.5 382.0,587.2" fill="#929292"/>
  <polygon points="529.0,587.2 529.0,234.7 534.3,234.7 534.3,587.2" fill="#98BFE0"/>
  <polygon points="681.4,587.2 681.4,575.6 686.7,575.6 686.7,587.2" fill="#A6A6A6"/>
  <polygon points="833.7,587.2 833.7,559.1 839.0,559.1 839.0,587.2" fill="#FFA18A"/>
</g>
<g stroke="#262626" stroke-width="0.9000"  clip-path="url(#axis_clip)">
  <polygon points="229.7,587.2 229.7,446.4 235.0,446.4 235.0,587.2" fill="#B18C76"/>
  <polygon points="382.0,587.2 382.0,124.1 387.3,124.1 387.3,587.2" fill="#8A8A8A"/>
  <polygon points="534.3,587.2 534.3,223.4 539.6,223.4 539.6,587.2" fill="#92BBDD"/>
  <polygon points="686.7,587.2 686.7,576.6 692.0,576.6 692.0,587.2" fill="#A0A0A0"/>
  <polygon points="839.0,587.2 839.0,557.5 844.3,557.5 844.3,587.2" fill="#FF9A82"/>
</g>
<g stroke="#262626" stroke-width="0.9000"  clip-path="url(#axis_clip)">
  <polygon points="235.0,587.2 235.0,450.6 240.3,450.6 240.3,587.2" fill="#AB866F"/>
  <polygon points="387.3,587.2 387.3,137.6 392.6,137.6 392.6,587.2" fill="#828282"/>
  <polygon points="539.6,587.2 539.6,211.8 544.9,211.8 544.9,587.2" fill="#8CB7DB"/>
  <polygon points="692.0,587.2 692.0,576.7 697.3,576.7 697.3,587.2" fill="#9A9A9A"/>
  <polygon points="844.3,587.2 844.3,557.1 849.6,557.1 849.6,587.2" fill="#FF947A"/>
</g>
<g stroke="#262626" stroke-width="0.9000"  clip-path="url(#axis_clip)">
  <polygon points="240.3,587.2 240.3,447.8 245.6,447.8 245.6,587.2" fill="#A57F68"/>
  <polygon points="392.6,587.2 392.6,136.0 397.9,136.0 397.9,587.2" fill="#7A7A7A"/>
  <polygon points="544.9,587.2 544.9,207.2 550.2,207.2 550.2,587.2" fill="#87B3D8"/>
  <polygon points="697.3,587.2 697.3,576.2 702.6,576.2 702.6,587.2" fill="#939393"/>
  <polygon points="849.6,587.2 849.6,558.6 854.9,558.6 854.9,587.2" fill="#FF8E73"/>
</g>
<g stroke="#262626" stroke-width="0.9000"  clip-path="url(#axis_clip)">
  <polygon points="245.6,587.2 245.6,456.2 250.9,456.2 250.9,587.2" fill="#9F7961"/>
  <polygon points="397.9,587.2 397.9,139.4 403.2,139.4 403.2,587.2" fill="#727272"/>
  <polygon points="550.2,587.2 550.2,214.7 555.5,214.7 555.5,587.2" fill="#81AFD6"/>
  <polygon points="702.6,587.2 702.6,576.3 707.9,576.3 707.9,587.2" fill="#8D8D8D"/>
  <polygon points="854.9,587.2 854.9,562.1 860.2,562.1 860.2,587.2" fill="#FF886B"/>
</g>
<g stroke="#262626" stroke-width="0.9000"  clip-path="url(#axis_clip)">
  <polygon points="250.9,587.2 250.9,457.7 256.2,457.7 256.2,587.2" fill="#99725B"/>
  <polygon points="403.2,587.2 403.2,132.9 408.5,132.9 408.5,587.2" fill="#6A6A6A"/>
  <polygon points="555.5,587.2 555.5,206.3 560.8,206.3 560.8,587.2" fill="#7CABD3"/>
  <polygon points="707.9,587.2 707.9,575.0 713.2,575.0 713.2,587.2" fill="#878787"/>
  <polygon points="860.2,587.2 860.2,560.8 865.5,560.8 865.5,587.2" fill="#FF8263"/>
</g>
<g stroke="#262626" stroke-width="0.9000"  clip-path="url(#axis_clip)">
  <polygon points="256.2,587.2 256.2,478.8 261.5,478.8 261.5,587.2" fill="#936C55"/>
  <polygon points="408.5,587.2 408.5,122.5 413.8,122.5 413.8,587.2" fill="#626262"/>
  <polygon points="560.8,587.2 560.8,178.4 566.1,178.4 566.1,587.2" fill="#76A7D0"/>
  <polygon points="713.2,587.2 713.2,574.8 718.5,574.8 718.5,587.2" fill="#808080"/>
  <polygon points="865.5,587.2 865.5,559.7 870.8,559.7 870.8,587.2" fill="#FF7C5C"/>
</g>
<g stroke="#262626" stroke-width="0.9000"  clip-path="url(#axis_clip)">
  <polygon points="261.5,587.2 261.5,483.0 266.8,483.0 266.8,587.2" fill="#8D664F"/>
  <polygon points="413.8,587.2 413.8,119.5 419.1,119.5 419.1,587.2" fill="#595959"/>
  <polygon points="566.1,587.2 566.1,175.6 571.4,175.6 571.4,587.2" fill="#71A3CE"/>
  <polygon points="718.5,587.2 718.5,574.4 723.8,574.4 723.8,587.2" fill="#7A7A7A"/>
  <polygon points="870.8,587.2 870.8,558.9 876.1,558.9 876.1,587.2" fill="#FF7554"/>
</g>
<g stroke="#262626" stroke-width="0.9000"  clip-path="url(#axis_clip)">
  <polygon points="266.8,587.2 266.8,500.9 272.1,500.9 272.1,587.2" fill="#876049"/>
  <polygon points="419.1,587.2 419.1,182.5 424.4,182.5 424.4,587.2" fill="#515151"/>
  <polygon points="571.4,587.2 571.4,193.6 576.7,193.6 576.7,587.2" fill="#6C9FCB"/>
  <polygon points="723.8,587.2 723.8,575.2 729.1,575.2 729.1,587.2" fill="#737373"/>
  <polygon points="876.1,587.2 876.1,558.0 881.4,558.0 881.4,587.2" fill="#FF6F4C"/>
</g>
<g stroke="#262626" stroke-width="0.9000"  clip-path="url(#axis_clip)">
  <polygon points="272.1,587.2 272.1,505.6 277.4,505.6 277.4,587.2" fill="#815B43"/>
  <polygon points="424.4,587.2 424.4,167.9 429.7,167.9 429.7,587.2" fill="#484848"/>
  <polygon points="576.7,587.2 576.7,180.7 582.0,180.7 582.0,587.2" fill="#679CC9"/>
  <polygon points="729.1,587.2 729.1,574.1 734.3,574.1 734.3,587.2" fill="#6D6D6D"/>
  <polygon points="881.4,587.2 881.4,556.7 886.7,556.7 886.7,587.2" fill="#FF6945"/>
</g>
<g stroke="#262626" stroke-width="0.9000"  clip-path="url(#axis_clip)">
  <polygon points="277.4,587.2 277.4,523.6 282.7,523.6 282.7,587.2" fill="#7B553E"/>
  <polygon points="429.7,587.2 429.7,151.6 435.0,151.6 435.0,587.2" fill="#404040"/>
  <polygon points="582.0,587.2 582.0,159.9 587.3,159.9 587.3,587.2" fill="#6298C6"/>
  <polygon points="734.3,587.2 734.3,574.1 739.6,574.1 739.6,587.2" fill="#666"/>
  <polygon points="886.7,587.2 886.7,556.7 892.0,556.7 892.0,587.2" fill="#FF633D"/>
</g>
<text transform="translate(221.8,600.7)" dy="21.6" font-size="21.60" fill="#808080" stroke="none" text-anchor="middle">Coal</text>
<text transform="translate(374.1,600.7)" dy="21.6" font-size="21.60" fill="#808080" stroke="none" text-anchor="middle">Oil</text>
<text transform="translate(526.4,600.7)" dy="21.6" font-size="21.60" fill="#808080" stroke="none" text-anchor="middle">Gas</text>
<text transform="translate(678.7,600.7)" dy="21.6" font-size="21.60" fill="#808080" stroke="none" text-anchor="middle">Cement</text>
<text transform="translate(831.0,600.7)" dy="21.6" font-size="21.60" fill="#808080" stroke="none" text-anchor="middle">Flaring</text>
<polyline class="pl" points="250.9,449.5 250.9,442.7 282.7,442.7 282.7,449.5" stroke="#808080" stroke-width="0.90" stroke-opacity="1.00" fill="none" clip-path="url(#axis_clip)"/>
<text transform="translate(282.7,343.3)" dy="0.0" font-size="21.60" fill="#808080" stroke="none" text-anchor="end">-13.1%/yr</text>
<polyline class="pl" points="266.8,442.7 266.8,356.8" stroke="#808080" stroke-width="0.90" stroke-opacity="1.00" fill="none" clip-path="url(#axis_clip)"/>
<polyline class="pl" points="403.2,112.7 403.2,106.0 435.0,106.0 435.0,112.7" stroke="#808080" stroke-width="0.90" stroke-opacity="1.00" fill="none" clip-path="url(#axis_clip)"/>
<text transform="translate(435.0,95.9)" dy="0.0" font-size="21.60" fill="#808080" stroke="none" text-anchor="end">-1.9%/yr</text>
<polyline class="pl" points="555.5,153.2 555.5,146.4 587.3,146.4 587.3,153.2" stroke="#808080" stroke-width="0.90" stroke-opacity="1.00" fill="none" clip-path="url(#axis_clip)"/>
<text transform="translate(587.3,136.3)" dy="0.0" font-size="21.60" fill="#808080" stroke="none" text-anchor="end">+1.5%/yr</text>
<polyline class="pl" points="707.9,567.3 707.9,560.6 739.6,560.6 739.6,567.3" stroke="#808080" stroke-width="0.90" stroke-opacity="1.00" fill="none" clip-path="url(#axis_clip)"/>
<text transform="translate(739.6,550.4)" dy="0.0" font-size="21.60" fill="#808080" stroke="none" text-anchor="end">+1.3%/yr</text>
<polyline class="pl" points="860.2,549.9 860.2,543.2 892.0,543.2 892.0,549.9" stroke="#808080" stroke-width="0.90" stroke-opacity="1.00" fill="none" clip-path="url(#axis_clip)"/>
<text transform="translate(892.0,533.1)" dy="0.0" font-size="21.60" fill="#808080" stroke="none" text-anchor="end">+3.1%/yr</text>
<text transform="translate(145.6,47.2)" dy="0.0" font-size="27.00" fill="#808080" stroke="none">Annual Fossil CO<tspan dy="0.2em"><tspan style="font-size:70%">2</tspan></tspan><tspan dy="-0.2em"> </tspan>Emissions in Canada, 2000&#8211;22</text>
<text transform="translate(130.0,81.6)" dy="8.1" font-size="27.00" fill="#808080" stroke="none" text-anchor="end">CO<tspan dy="0.2em"><tspan style="font-size:70%">2</tspan></tspan><tspan dy="-0.2em"></tspan></text>
<text transform="translate(145.6,54.0)" dy="18.0" font-size="18.00" fill="#808080" stroke="none" xml:space="preserve"> Annual growth rates from 2017&#8211;2022.</text>
<text transform="translate(162.3,666.1)" font-size="19.80" font-family="Helvetica" fill="#BFBFBF" stroke="none" xml:space="preserve">Global Carbon Project</text>
<g>
  <rect x="123.0" y="651.4" width="34" height="17" fill="#FFF" stroke="none"/>
  <g transform="translate(124.0,652.4) scale(0.24)">
  <g><circle fill="#FFF" cx="37.79" cy="28.5" r="28.84"/>
     <circle fill="none" cx="37.79" cy="28.5" r="28.84" stroke="#BFBFBF" stroke-width="5.5"/>
     <path fill="#BFBFBF" d="M37.16,23.19 l-4.29,2.23c-0.458-0.951-1.02-1.62-1.69-2c-0.667-0.38-1.29-0.571-1.86-0.571c-2.86,0-4.29,1.89-4.29,5.66 c0,1.71,0.36,3.08,1.09,4.11c0.724,1.03,1.79,1.54,3.2,1.54c1.87,0,3.18-0.915,3.94-2.74l3.94,2 c-0.838,1.56-2,2.79-3.49,3.69c-1.48,0.896-3.12,1.34-4.91,1.34c-2.86,0-5.16-0.875-6.92-2.63 c-1.75-1.75-2.63-4.19-2.63-7.31c0-3.05,0.886-5.47,2.66-7.26c1.77-1.79,4.01-2.69,6.72-2.69 C32.6,18.56,35.44,20.1,37.16,23.19z
              M55.61,23.19l-4.23,2.23c-0.457-0.951-1.02-1.62-1.69-2 c-0.668-0.38-1.31-0.571-1.91-0.571c-2.86,0-4.29,1.89-4.29,5.66c0,1.71,0.363,3.08,1.09,4.11 c0.723,1.03,1.79,1.54,3.2,1.54c1.87,0,3.18-0.915,3.94-2.74l4,2c-0.875,1.56-2.06,2.79-3.54,3.69 c-1.49,0.9-3.11,1.34-4.86,1.34c-2.9,0-5.21-0.875-6.94-2.63c-1.74-1.75-2.6-4.19-2.6-7.31 c0-3.05,0.885-5.47,2.66-7.26c1.77-1.79,4.01-2.69,6.71-2.69C51.12,18.56,53.944,20.1,55.61,23.19z"/>
  </g></g>
  <g transform="translate(140.2,652.4) scale(0.24)">
  <g><circle fill="#FFF" cx="37.79" cy="28.5" r="28.84"/>
     <circle fill="none" cx="37.79" cy="28.5" r="28.84" stroke="#BFBFBF" stroke-width="5.5"/>
     <path fill="#BFBFBF" d="M46.129,20.557v13.085h-3.656v15.542h-9.944V33.643h-3.656V20.557 c0-0.572,0.2-1.057,0.599-1.457c0.401-0.399,0.887-0.6,1.457-0.6h13.144c0.533,0,1.01,0.2,1.428,0.6 C45.918,19.5,46.129,19.986,46.129,20.557z
              M33.042,12.329c0-3.008,1.485-4.514,4.458-4.514s4.457,1.504,4.457,4.514 c0,2.971-1.486,4.457-4.457,4.457S33.042,15.3,33.042,12.329z"/>
  </g></g>
</g>
</g>
</svg>
