<svg version="1.1" xmlns="http://www.w3.org/2000/svg" xmlns:xlink="http://www.w3.org/1999/xlink" width="100%" height="100%" viewBox="0 0 1200.000 674.916">
<title>Annual Fossil CO2 Emissions in EU27, 2000&#8211;23</title>
<style type="text/css">
  #main {font-family:Helvetica,Arial,sans-serif; font-size:27.00px;
         fill-opacity:1; fill:#000000; stroke:none; stroke-linejoin:round; stroke-linecap:round; stroke-width:1.00;}
  .marker {stroke-opacity:0;fill-opacity:0;}
  .marker:hover {stroke-opacity:0.5; fill-opacity:1;}
  .ticklabel {font-size:27.00px;fill:#808080;stroke:none;font-family:Helvetica}
  .ytl {text-anchor:end;}
  .dp1 {pointer-events:none;font-size:70%;text-anchor:middle;fill:#000000;}
  .dp2 {pointer-events:none;font-size:70%;text-anchor:middle;fill:#FFFFFF;}
  .numtip {pointer-events:none;}
  .cc {opacity:0.25;}
.dl_fe {background-color:#FDFFDF;display:flex;margin:auto;align-items:center}
.dl_fe_p {font-size:20px;text-align:center;margin:3px}
.dl_el {display:none;pointer-events:none;}
.cc:hover + .dl_el {display:block;}
text:hover + .dl_el {display:block;}
</style>
<defs>
  <clipPath id="axis_clip"><rect x="145.8" y="54.2" width="761.2" height="532.8" /></clipPath>
  <path id="line_x" d="M 145.600,0 h 761.600" stroke="#262626" stroke-opacity="0.15" stroke-width="1.00"/>
  <path id="tick_y" d="M 145.600,0 h -6.000" stroke="#808080" stroke-width="0.90"/>
  <path id="tick_x" d="M 0,587.177 v 6.000" stroke="#808080" stroke-width="0.90"/>
</defs>
<g id="main">
<use xlink:href="#line_x" transform="translate(0,587.2)"/>
<use xlink:href="#line_x" transform="translate(0,468.7)"/>
<use xlink:href="#line_x" transform="translate(0,350.2)"/>
<use xlink:href="#line_x" transform="translate(0,231.7)"/>
<use xlink:href="#line_x" transform="translate(0,113.2)"/>
<use xlink:href="#tick_y" transform="translate(0,587.2)"/>
<use xlink:href="#tick_y" transform="translate(0,468.7)"/>
<use xlink:href="#tick_y" transform="translate(0,350.2)"/>
<use xlink:href="#tick_y" transform="translate(0,231.7)"/>
<use xlink:href="#tick_y" transform="translate(0,113.2)"/>
<use xlink:href="#tick_x" transform="translate(221.8,0)"/>
<use xlink:href="#tick_x" transform="translate(374.1,0)"/>
<use xlink:href="#tick_x" transform="translate(526.4,0)"/>
<use xlink:href="#tick_x" transform="translate(678.7,0)"/>
<use xlink:href="#tick_x" transform="translate(831.0,0)"/>
<polyline points="145.6,53.993 145.6,587.177 907.2,587.177" stroke="#808080" stroke-width="0.90" fill="none"/>
<text class="ticklabel ytl" transform="translate(128.8,595.3)">0</text>
<text class="ticklabel ytl" transform="translate(128.8,476.8)">0.4</text>
<text class="ticklabel ytl" transform="translate(128.8,358.3)">0.8</text>
<text class="ticklabel ytl" transform="translate(128.8,239.8)">1.2</text>
<text class="ticklabel ytl" transform="translate(128.8,121.3)">1.6 Gt</text>
<g stroke="#262626" stroke-width="0.9000"  clip-path="url(#axis_clip)">
  <polygon points="160.8,587.2 160.8,229.6 165.9,229.6 165.9,587.2" fill="#FFEFE6"/>
  <polygon points="313.2,587.2 313.2,138.0 318.2,138.0 318.2,587.2" fill="#EEE"/>
  <polygon points="465.5,587.2 465.5,373.8 470.5,373.8 470.5,587.2" fill="#E6F3FF"/>
  <polygon points="617.8,587.2 617.8,559.5 622.9,559.5 622.9,587.2" fill="#EEE"/>
  <polygon points="770.1,587.2 770.1,581.0 775.2,581.0 775.2,587.2" fill="#FFEAE6"/>
</g>
<g stroke="#262626" stroke-width="0.9000"  clip-path="url(#axis_clip)">
  <polygon points="165.9,587.2 165.9,230.8 171.0,230.8 171.0,587.2" fill="#F9E7DC"/>
  <polygon points="318.2,587.2 318.2,126.1 323.3,126.1 323.3,587.2" fill="#E7E7E7"/>
  <polygon points="470.5,587.2 470.5,366.7 475.6,366.7 475.6,587.2" fill="#DFEFFD"/>
  <polygon points="622.9,587.2 622.9,560.2 627.9,560.2 627.9,587.2" fill="#E9E9E9"/>
  <polygon points="775.2,587.2 775.2,581.4 780.3,581.4 780.3,587.2" fill="#FFE5DE"/>
</g>
<g stroke="#262626" stroke-width="0.9000"  clip-path="url(#axis_clip)">
  <polygon points="171.0,587.2 171.0,229.2 176.1,229.2 176.1,587.2" fill="#F4DFD3"/>
  <polygon points="323.3,587.2 323.3,129.2 328.4,129.2 328.4,587.2" fill="#E0E0E0"/>
  <polygon points="475.6,587.2 475.6,365.0 480.7,365.0 480.7,587.2" fill="#D8EAFA"/>
  <polygon points="627.9,587.2 627.9,560.5 633.0,560.5 633.0,587.2" fill="#E3E3E3"/>
  <polygon points="780.3,587.2 780.3,581.2 785.3,581.2 785.3,587.2" fill="#FFDFD7"/>
</g>
<g stroke="#262626" stroke-width="0.9000"  clip-path="url(#axis_clip)">
  <polygon points="176.1,587.2 176.1,219.4 181.1,219.4 181.1,587.2" fill="#EED7CA"/>
  <polygon points="328.4,587.2 328.4,126.2 333.5,126.2 333.5,587.2" fill="#D9D9D9"/>
  <polygon points="480.7,587.2 480.7,353.7 485.8,353.7 485.8,587.2" fill="#D2E6F8"/>
  <polygon points="633.0,587.2 633.0,560.1 638.1,560.1 638.1,587.2" fill="#DDD"/>
  <polygon points="785.3,587.2 785.3,580.9 790.4,580.9 790.4,587.2" fill="#FFD9D0"/>
</g>
<g stroke="#262626" stroke-width="0.9000"  clip-path="url(#axis_clip)">
  <polygon points="181.1,587.2 181.1,220.6 186.2,220.6 186.2,587.2" fill="#E8D0C1"/>
  <polygon points="333.5,587.2 333.5,128.2 338.5,128.2 338.5,587.2" fill="#D2D2D2"/>
  <polygon points="485.8,587.2 485.8,348.4 490.9,348.4 490.9,587.2" fill="#CBE2F5"/>
  <polygon points="638.1,587.2 638.1,558.9 643.2,558.9 643.2,587.2" fill="#D8D8D8"/>
  <polygon points="790.4,587.2 790.4,581.2 795.5,581.2 795.5,587.2" fill="#FFD3C8"/>
</g>
<g stroke="#262626" stroke-width="0.9000"  clip-path="url(#axis_clip)">
  <polygon points="186.2,587.2 186.2,231.4 191.3,231.4 191.3,587.2" fill="#E2C8B8"/>
  <polygon points="338.5,587.2 338.5,129.8 343.6,129.8 343.6,587.2" fill="#CACACA"/>
  <polygon points="490.9,587.2 490.9,341.8 495.9,341.8 495.9,587.2" fill="#C5DEF3"/>
  <polygon points="643.2,587.2 643.2,558.7 648.3,558.7 648.3,587.2" fill="#D2D2D2"/>
  <polygon points="795.5,587.2 795.5,581.0 800.6,581.0 800.6,587.2" fill="#FFCDC1"/>
</g>
<g stroke="#262626" stroke-width="0.9000"  clip-path="url(#axis_clip)">
  <polygon points="191.3,587.2 191.3,226.1 196.4,226.1 196.4,587.2" fill="#DDC1B0"/>
  <polygon points="343.6,587.2 343.6,134.3 348.7,134.3 348.7,587.2" fill="#C3C3C3"/>
  <polygon points="495.9,587.2 495.9,341.4 501.0,341.4 501.0,587.2" fill="#BFD9F0"/>
  <polygon points="648.3,587.2 648.3,557.9 653.3,557.9 653.3,587.2" fill="#CCC"/>
  <polygon points="800.6,587.2 800.6,580.4 805.7,580.4 805.7,587.2" fill="#FFC7BA"/>
</g>
<g stroke="#262626" stroke-width="0.9000"  clip-path="url(#axis_clip)">
  <polygon points="196.4,587.2 196.4,220.0 201.5,220.0 201.5,587.2" fill="#D7B9A7"/>
  <polygon points="348.7,587.2 348.7,150.0 353.8,150.0 353.8,587.2" fill="#BCBCBC"/>
  <polygon points="501.0,587.2 501.0,344.0 506.1,344.0 506.1,587.2" fill="#B9D5EE"/>
  <polygon points="653.3,587.2 653.3,556.6 658.4,556.6 658.4,587.2" fill="#C7C7C7"/>
  <polygon points="805.7,587.2 805.7,580.5 810.7,580.5 810.7,587.2" fill="#FFC1B2"/>
</g>
<g stroke="#262626" stroke-width="0.9000"  clip-path="url(#axis_clip)">
  <polygon points="201.5,587.2 201.5,246.2 206.5,246.2 206.5,587.2" fill="#D1B29F"/>
  <polygon points="353.8,587.2 353.8,153.1 358.8,153.1 358.8,587.2" fill="#B4B4B4"/>
  <polygon points="506.1,587.2 506.1,336.8 511.2,336.8 511.2,587.2" fill="#B3D1EB"/>
  <polygon points="658.4,587.2 658.4,558.7 663.5,558.7 663.5,587.2" fill="#C1C1C1"/>
  <polygon points="810.7,587.2 810.7,580.6 815.8,580.6 815.8,587.2" fill="#FFBBAB"/>
</g>
<g stroke="#262626" stroke-width="0.9000"  clip-path="url(#axis_clip)">
  <polygon points="206.5,587.2 206.5,286.7 211.6,286.7 211.6,587.2" fill="#CBAB98"/>
  <polygon points="358.8,587.2 358.8,175.4 363.9,175.4 363.9,587.2" fill="#ADADAD"/>
  <polygon points="511.2,587.2 511.2,352.8 516.2,352.8 516.2,587.2" fill="#ADCDE9"/>
  <polygon points="663.5,587.2 663.5,563.9 668.6,563.9 668.6,587.2" fill="#BBB"/>
  <polygon points="815.8,587.2 815.8,581.1 820.9,581.1 820.9,587.2" fill="#FFB5A4"/>
</g>
<g stroke="#262626" stroke-width="0.9000"  clip-path="url(#axis_clip)">
  <polygon points="211.6,587.2 211.6,270.7 216.7,270.7 216.7,587.2" fill="#C6A490"/>
  <polygon points="363.9,587.2 363.9,180.8 369.0,180.8 369.0,587.2" fill="#A5A5A5"/>
  <polygon points="516.2,587.2 516.2,333.9 521.3,333.9 521.3,587.2" fill="#A7C9E6"/>
  <polygon points="668.6,587.2 668.6,564.4 673.6,564.4 673.6,587.2" fill="#B5B5B5"/>
  <polygon points="820.9,587.2 820.9,580.9 826.0,580.9 826.0,587.2" fill="#FFB09C"/>
</g>
<g stroke="#262626" stroke-width="0.9000"  clip-path="url(#axis_clip)">
  <polygon points="216.7,587.2 216.7,264.9 221.8,264.9 221.8,587.2" fill="#C09D88"/>
  <polygon points="369.0,587.2 369.0,197.5 374.1,197.5 374.1,587.2" fill="#9E9E9E"/>
  <polygon points="521.3,587.2 521.3,353.2 526.4,353.2 526.4,587.2" fill="#A1C5E4"/>
  <polygon points="673.6,587.2 673.6,564.8 678.7,564.8 678.7,587.2" fill="#B0B0B0"/>
  <polygon points="826.0,587.2 826.0,580.8 831.0,580.8 831.0,587.2" fill="#FFAA95"/>
</g>
<g stroke="#262626" stroke-width="0.9000"  clip-path="url(#axis_clip)">
  <polygon points="221.8,587.2 221.8,265.7 226.8,265.7 226.8,587.2" fill="#BA9781"/>
  <polygon points="374.1,587.2 374.1,211.2 379.2,211.2 379.2,587.2" fill="#969696"/>
  <polygon points="526.4,587.2 526.4,358.2 531.5,358.2 531.5,587.2" fill="#9BC1E1"/>
  <polygon points="678.7,587.2 678.7,566.0 683.8,566.0 683.8,587.2" fill="#AAA"/>
  <polygon points="831.0,587.2 831.0,580.8 836.1,580.8 836.1,587.2" fill="#FFA48E"/>
</g>
<g stroke="#262626" stroke-width="0.9000"  clip-path="url(#axis_clip)">
  <polygon points="226.8,587.2 226.8,274.4 231.9,274.4 231.9,587.2" fill="#B4907A"/>
  <polygon points="379.2,587.2 379.2,219.3 384.2,219.3 384.2,587.2" fill="#8F8F8F"/>
  <polygon points="531.5,587.2 531.5,364.5 536.6,364.5 536.6,587.2" fill="#96BDDF"/>
  <polygon points="683.8,587.2 683.8,567.1 688.9,567.1 688.9,587.2" fill="#A4A4A4"/>
  <polygon points="836.1,587.2 836.1,580.3 841.2,580.3 841.2,587.2" fill="#FF9E86"/>
</g>
<g stroke="#262626" stroke-width="0.9000"  clip-path="url(#axis_clip)">
  <polygon points="231.9,587.2 231.9,285.9 237.0,285.9 237.0,587.2" fill="#AF8A73"/>
  <polygon points="384.2,587.2 384.2,224.6 389.3,224.6 389.3,587.2" fill="#878787"/>
  <polygon points="536.6,587.2 536.6,389.0 541.6,389.0 541.6,587.2" fill="#90B9DC"/>
  <polygon points="688.9,587.2 688.9,566.2 694.0,566.2 694.0,587.2" fill="#9E9E9E"/>
  <polygon points="841.2,587.2 841.2,580.5 846.3,580.5 846.3,587.2" fill="#FF987F"/>
</g>
<g stroke="#262626" stroke-width="0.9000"  clip-path="url(#axis_clip)">
  <polygon points="237.0,587.2 237.0,287.2 242.1,287.2 242.1,587.2" fill="#A9836C"/>
  <polygon points="389.3,587.2 389.3,216.9 394.4,216.9 394.4,587.2" fill="#7F7F7F"/>
  <polygon points="541.6,587.2 541.6,379.8 546.7,379.8 546.7,587.2" fill="#8BB5DA"/>
  <polygon points="694.0,587.2 694.0,566.4 699.0,566.4 699.0,587.2" fill="#989898"/>
  <polygon points="846.3,587.2 846.3,580.6 851.3,580.6 851.3,587.2" fill="#FF9278"/>
</g>
<g stroke="#262626" stroke-width="0.9000"  clip-path="url(#axis_clip)">
  <polygon points="242.1,587.2 242.1,301.9 247.1,301.9 247.1,587.2" fill="#A37D66"/>
  <polygon points="394.4,587.2 394.4,212.5 399.5,212.5 399.5,587.2" fill="#787878"/>
  <polygon points="546.7,587.2 546.7,367.8 551.8,367.8 551.8,587.2" fill="#85B2D7"/>
  <polygon points="699.0,587.2 699.0,566.4 704.1,566.4 704.1,587.2" fill="#929292"/>
  <polygon points="851.3,587.2 851.3,580.7 856.4,580.7 856.4,587.2" fill="#FF8C70"/>
</g>
<g stroke="#262626" stroke-width="0.9000"  clip-path="url(#axis_clip)">
  <polygon points="247.1,587.2 247.1,306.2 252.2,306.2 252.2,587.2" fill="#9D7760"/>
  <polygon points="399.5,587.2 399.5,211.0 404.5,211.0 404.5,587.2" fill="#707070"/>
  <polygon points="551.8,587.2 551.8,359.5 556.9,359.5 556.9,587.2" fill="#80AED5"/>
  <polygon points="704.1,587.2 704.1,565.8 709.2,565.8 709.2,587.2" fill="#8B8B8B"/>
  <polygon points="856.4,587.2 856.4,580.6 861.5,580.6 861.5,587.2" fill="#FF8669"/>
</g>
<g stroke="#262626" stroke-width="0.9000"  clip-path="url(#axis_clip)">
  <polygon points="252.2,587.2 252.2,320.7 257.3,320.7 257.3,587.2" fill="#98715A"/>
  <polygon points="404.5,587.2 404.5,214.5 409.6,214.5 409.6,587.2" fill="#686868"/>
  <polygon points="556.9,587.2 556.9,363.8 561.9,363.8 561.9,587.2" fill="#7BAAD2"/>
  <polygon points="709.2,587.2 709.2,565.4 714.3,565.4 714.3,587.2" fill="#858585"/>
  <polygon points="861.5,587.2 861.5,580.7 866.6,580.7 866.6,587.2" fill="#FF8062"/>
</g>
<g stroke="#262626" stroke-width="0.9000"  clip-path="url(#axis_clip)">
  <polygon points="257.3,587.2 257.3,368.3 262.4,368.3 262.4,587.2" fill="#926B54"/>
  <polygon points="409.6,587.2 409.6,214.5 414.7,214.5 414.7,587.2" fill="#606060"/>
  <polygon points="561.9,587.2 561.9,357.5 567.0,357.5 567.0,587.2" fill="#76A6D0"/>
  <polygon points="714.3,587.2 714.3,565.4 719.3,565.4 719.3,587.2" fill="#7F7F7F"/>
  <polygon points="866.6,587.2 866.6,580.9 871.7,580.9 871.7,587.2" fill="#FF7B5A"/>
</g>
<g stroke="#262626" stroke-width="0.9000"  clip-path="url(#axis_clip)">
  <polygon points="262.4,587.2 262.4,406.1 267.5,406.1 267.5,587.2" fill="#8C654E"/>
  <polygon points="414.7,587.2 414.7,249.8 419.8,249.8 419.8,587.2" fill="#585858"/>
  <polygon points="567.0,587.2 567.0,363.4 572.1,363.4 572.1,587.2" fill="#71A3CD"/>
  <polygon points="719.3,587.2 719.3,566.3 724.4,566.3 724.4,587.2" fill="#797979"/>
  <polygon points="871.7,587.2 871.7,581.6 876.7,581.6 876.7,587.2" fill="#FF7553"/>
</g>
<g stroke="#262626" stroke-width="0.9000"  clip-path="url(#axis_clip)">
  <polygon points="267.5,587.2 267.5,381.8 272.5,381.8 272.5,587.2" fill="#866048"/>
  <polygon points="419.8,587.2 419.8,233.8 424.9,233.8 424.9,587.2" fill="#505050"/>
  <polygon points="572.1,587.2 572.1,352.8 577.2,352.8 577.2,587.2" fill="#6C9FCB"/>
  <polygon points="724.4,587.2 724.4,565.7 729.5,565.7 729.5,587.2" fill="#737373"/>
  <polygon points="876.7,587.2 876.7,581.9 881.8,581.9 881.8,587.2" fill="#FF6F4C"/>
</g>
<g stroke="#262626" stroke-width="0.9000"  clip-path="url(#axis_clip)">
  <polygon points="272.5,587.2 272.5,376.5 277.6,376.5 277.6,587.2" fill="#815A43"/>
  <polygon points="424.9,587.2 424.9,220.8 429.9,220.8 429.9,587.2" fill="#484848"/>
  <polygon points="577.2,587.2 577.2,383.9 582.3,383.9 582.3,587.2" fill="#679CC8"/>
  <polygon points="729.5,587.2 729.5,565.9 734.6,565.9 734.6,587.2" fill="#6C6C6C"/>
  <polygon points="881.8,587.2 881.8,581.9 886.9,581.9 886.9,587.2" fill="#FF6944"/>
</g>
<g stroke="#262626" stroke-width="0.9000"  clip-path="url(#axis_clip)">
  <polygon points="277.6,587.2 277.6,416.2 282.7,416.2 282.7,587.2" fill="#7B553E"/>
  <polygon points="429.9,587.2 429.9,226.4 435.0,226.4 435.0,587.2" fill="#404040"/>
  <polygon points="582.3,587.2 582.3,397.3 587.3,397.3 587.3,587.2" fill="#6298C6"/>
  <polygon points="734.6,587.2 734.6,567.8 739.6,567.8 739.6,587.2" fill="#666"/>
  <polygon points="886.9,587.2 886.9,581.9 892.0,581.9 892.0,587.2" fill="#FF633D"/>
</g>
<text transform="translate(221.8,600.7)" dy="21.6" font-size="21.60" fill="#808080" stroke="none" text-anchor="middle">Coal</text>
<text transform="translate(374.1,600.7)" dy="21.6" font-size="21.60" fill="#808080" stroke="none" text-anchor="middle">Oil</text>
<text transform="translate(526.4,600.7)" dy="21.6" font-size="21.60" fill="#808080" stroke="none" text-anchor="middle">Gas</text>
<text transform="translate(678.7,600.7)" dy="21.6" font-size="21.60" fill="#808080" stroke="none" text-anchor="middle">Cement</text>
<text transform="translate(831.0,600.7)" dy="21.6" font-size="21.60" fill="#808080" stroke="none" text-anchor="middle">Flaring</text>
<polyline class="pl" points="252.2,299.4 252.2,292.7 282.7,292.7 282.7,299.4" stroke="#808080" stroke-width="0.90" stroke-opacity="1.00" fill="none" clip-path="url(#axis_clip)"/>
<text transform="translate(282.7,205.9)" dy="0.0" font-size="21.60" fill="#808080" stroke="none" text-anchor="end">-6.3%/yr</text>
<polyline class="pl" points="267.5,292.7 267.5,219.4" stroke="#808080" stroke-width="0.90" stroke-opacity="1.00" fill="none" clip-path="url(#axis_clip)"/>
<polyline class="pl" points="404.5,204.2 404.5,197.5 435.0,197.5 435.0,204.2" stroke="#808080" stroke-width="0.90" stroke-opacity="1.00" fill="none" clip-path="url(#axis_clip)"/>
<text transform="translate(435.0,112.6)" dy="0.0" font-size="21.60" fill="#808080" stroke="none" text-anchor="end">-0.5%/yr</text>
<polyline class="pl" points="419.8,197.5 419.8,126.1" stroke="#808080" stroke-width="0.90" stroke-opacity="1.00" fill="none" clip-path="url(#axis_clip)"/>
<polyline class="pl" points="556.9,346.1 556.9,339.3 587.3,339.3 587.3,346.1" stroke="#808080" stroke-width="0.90" stroke-opacity="1.00" fill="none" clip-path="url(#axis_clip)"/>
<text transform="translate(587.3,320.4)" dy="0.0" font-size="21.60" fill="#808080" stroke="none" text-anchor="end">-3.2%/yr</text>
<polyline class="pl" points="709.2,558.6 709.2,551.9 739.6,551.9 739.6,558.6" stroke="#808080" stroke-width="0.90" stroke-opacity="1.00" fill="none" clip-path="url(#axis_clip)"/>
<text transform="translate(739.6,541.8)" dy="0.0" font-size="21.60" fill="#808080" stroke="none" text-anchor="end">-1.8%/yr</text>
<polyline class="pl" points="861.5,573.8 861.5,567.1 892.0,567.1 892.0,573.8" stroke="#808080" stroke-width="0.90" stroke-opacity="1.00" fill="none" clip-path="url(#axis_clip)"/>
<text transform="translate(892.0,557.0)" dy="0.0" font-size="21.60" fill="#808080" stroke="none" text-anchor="end">-4.7%/yr</text>
<text transform="translate(145.6,47.2)" dy="0.0" font-size="27.00" fill="#808080" stroke="none">Annual Fossil CO<tspan dy="0.2em"><tspan style="font-size:70%">2</tspan></tspan><tspan dy="-0.2em"> </tspan>Emissions in EU27, 2000&#8211;23</text>
<text transform="translate(130.0,140.9)" dy="8.1" font-size="27.00" fill="#808080" stroke="none" text-anchor="end">CO<tspan dy="0.2em"><tspan style="font-size:70%">2</tspan></tspan><tspan dy="-0.2em"></tspan></text>
<text transform="translate(145.6,54.0)" dy="18.0" font-size="18.00" fill="#808080" stroke="none" xml:space="preserve"> Annual growth rates from 2018&#8211;2023.</text>
<text transform="translate(452.0,54.0)" dy="18.0" font-size="18.00" fill="#808080" stroke="none" xml:space="preserve"> Includes projection for 2023.</text>
<text transform="translate(162.3,666.1)" font-size="19.80" font-family="Helvetica" fill="#BFBFBF" stroke="none" xml:space="preserve">Global Carbon Project</text>
<g>
  <rect x="123.0" y="651.4" width="34" height="17" fill="#FFF" stroke="none"/>
  <g transform="translate(124.0,652.4) scale(0.24)">
  <g><circle fill="#FFF" cx="37.79" cy="28.5" r="28.84"/>
     <circle fill="none" cx="37.79" cy="28.5" r="28.84" stroke="#BFBFBF" stroke-width="5.5"/>
     <path fill="#BFBFBF" d="M37.16,23.19 l-4.29,2.23c-0.458-0.951-1.02-1.62-1.69-2c-0.667-0.38-1.29-0.571-1.86-0.571c-2.86,0-4.29,1.89-4.29,5.66 c0,1.71,0.36,3.08,1.09,4.11c0.724,1.03,1.79,1.54,3.2,1.54c1.87,0,3.18-0.915,3.94-2.74l3.94,2 c-0.838,1.56-2,2.79-3.49,3.69c-1.48,0.896-3.12,1.34-4.91,1.34c-2.86,0-5.16-0.875-6.92-2.63 c-1.75-1.75-2.63-4.19-2.63-7.31c0-3.05,0.886-5.47,2.66-7.26c1.77-1.79,4.01-2.69,6.72-2.69 C32.6,18.56,35.44,20.1,37.16,23.19z
              M55.61,23.19l-4.23,2.23c-0.457-0.951-1.02-1.62-1.69-2 c-0.668-0.38-1.31-0.571-1.91-0.571c-2.86,0-4.29,1.89-4.29,5.66c0,1.71,0.363,3.08,1.09,4.11 c0.723,1.03,1.79,1.54,3.2,1.54c1.87,0,3.18-0.915,3.94-2.74l4,2c-0.875,1.56-2.06,2.79-3.54,3.69 c-1.49,0.9-3.11,1.34-4.86,1.34c-2.9,0-5.21-0.875-6.94-2.63c-1.74-1.75-2.6-4.19-2.6-7.31 c0-3.05,0.885-5.47,2.66-7.26c1.77-1.79,4.01-2.69,6.71-2.69C51.12,18.56,53.944,20.1,55.61,23.19z"/>
  </g></g>
  <g transform="translate(140.2,652.4) scale(0.24)">
  <g><circle fill="#FFF" cx="37.79" cy="28.5" r="28.84"/>
     <circle fill="none" cx="37.79" cy="28.5" r="28.84" stroke="#BFBFBF" stroke-width="5.5"/>
     <path fill="#BFBFBF" d="M46.129,20.557v13.085h-3.656v15.542h-9.944V33.643h-3.656V20.557 c0-0.572,0.2-1.057,0.599-1.457c0.401-0.399,0.887-0.6,1.457-0.6h13.144c0.533,0,1.01,0.2,1.428,0.6 C45.918,19.5,46.129,19.986,46.129,20.557z
              M33.042,12.329c0-3.008,1.485-4.514,4.458-4.514s4.457,1.504,4.457,4.514 c0,2.971-1.486,4.457-4.457,4.457S33.042,15.3,33.042,12.329z"/>
  </g></g>
</g>
</g>
</svg>
