<svg version="1.1" xmlns="http://www.w3.org/2000/svg" xmlns:xlink="http://www.w3.org/1999/xlink" width="100%" height="100%" viewBox="0 0 1200.000 674.916">
<title>Annual Fossil CO2 Emissions in India, 2000&#8211;23</title>
<style type="text/css">
  #main {font-family:Helvetica,Arial,sans-serif; font-size:27.00px;
         fill-opacity:1; fill:#000000; stroke:none; stroke-linejoin:round; stroke-linecap:round; stroke-width:1.00;}
  .marker {stroke-opacity:0;fill-opacity:0;}
  .marker:hover {stroke-opacity:0.5; fill-opacity:1;}
  .ticklabel {font-size:27.00px;fill:#808080;stroke:none;font-family:Helvetica}
  .ytl {text-anchor:end;}
  .dp1 {pointer-events:none;font-size:70%;text-anchor:middle;fill:#000000;}
  .dp2 {pointer-events:none;font-size:70%;text-anchor:middle;fill:#FFFFFF;}
  .numtip {pointer-events:none;}
  .cc {opacity:0.25;}
.dl_fe {background-color:#FDFFDF;display:flex;margin:auto;align-items:center}
.dl_fe_p {font-size:20px;text-align:center;margin:3px}
.dl_el {display:none;pointer-events:none;}
.cc:hover + .dl_el {display:block;}
text:hover + .dl_el {display:block;}
</style>
<defs>
  <clipPath id="axis_clip"><rect x="145.8" y="54.2" width="761.2" height="532.8" /></clipPath>
  <path id="line_x" d="M 145.600,0 h 761.600" stroke="#262626" stroke-opacity="0.15" stroke-width="1.00"/>
  <path id="tick_y" d="M 145.600,0 h -6.000" stroke="#808080" stroke-width="0.90"/>
  <path id="tick_x" d="M 0,587.177 v 6.000" stroke="#808080" stroke-width="0.90"/>
</defs>
<g id="main">
<use xlink:href="#line_x" transform="translate(0,587.2)"/>
<use xlink:href="#line_x" transform="translate(0,480.5)"/>
<use xlink:href="#line_x" transform="translate(0,373.9)"/>
<use xlink:href="#line_x" transform="translate(0,267.3)"/>
<use xlink:href="#line_x" transform="translate(0,160.6)"/>
<use xlink:href="#line_x" transform="translate(0,54.0)"/>
<use xlink:href="#tick_y" transform="translate(0,587.2)"/>
<use xlink:href="#tick_y" transform="translate(0,480.5)"/>
<use xlink:href="#tick_y" transform="translate(0,373.9)"/>
<use xlink:href="#tick_y" transform="translate(0,267.3)"/>
<use xlink:href="#tick_y" transform="translate(0,160.6)"/>
<use xlink:href="#tick_y" transform="translate(0,54.0)"/>
<use xlink:href="#tick_x" transform="translate(221.8,0)"/>
<use xlink:href="#tick_x" transform="translate(374.1,0)"/>
<use xlink:href="#tick_x" transform="translate(526.4,0)"/>
<use xlink:href="#tick_x" transform="translate(678.7,0)"/>
<use xlink:href="#tick_x" transform="translate(831.0,0)"/>
<polyline points="145.6,53.993 145.6,587.177 907.2,587.177" stroke="#808080" stroke-width="0.90" fill="none"/>
<text class="ticklabel ytl" transform="translate(128.8,595.3)">0</text>
<text class="ticklabel ytl" transform="translate(128.8,488.6)">0.5</text>
<text class="ticklabel ytl" transform="translate(128.8,382.0)">1.0</text>
<text class="ticklabel ytl" transform="translate(128.8,275.4)">1.5</text>
<text class="ticklabel ytl" transform="translate(128.8,168.7)">2.0</text>
<text class="ticklabel ytl" transform="translate(128.8,62.1)">2.5 Gt</text>
<g stroke="#262626" stroke-width="0.9000"  clip-path="url(#axis_clip)">
  <polygon points="160.8,587.2 160.8,465.0 165.9,465.0 165.9,587.2" fill="#FFEFE6"/>
  <polygon points="313.2,587.2 313.2,520.5 318.2,520.5 318.2,587.2" fill="#EEE"/>
  <polygon points="465.5,587.2 465.5,577.8 470.5,577.8 470.5,587.2" fill="#E6F3FF"/>
  <polygon points="617.8,587.2 617.8,577.4 622.9,577.4 622.9,587.2" fill="#EEE"/>
  <polygon points="770.1,587.2 770.1,586.8 775.2,586.8 775.2,587.2" fill="#FFEAE6"/>
</g>
<g stroke="#262626" stroke-width="0.9000"  clip-path="url(#axis_clip)">
  <polygon points="165.9,587.2 165.9,463.0 171.0,463.0 171.0,587.2" fill="#F9E7DC"/>
  <polygon points="318.2,587.2 318.2,519.6 323.3,519.6 323.3,587.2" fill="#E7E7E7"/>
  <polygon points="470.5,587.2 470.5,577.9 475.6,577.9 475.6,587.2" fill="#DFEFFD"/>
  <polygon points="622.9,587.2 622.9,577.2 627.9,577.2 627.9,587.2" fill="#E9E9E9"/>
  <polygon points="775.2,587.2 775.2,586.8 780.3,586.8 780.3,587.2" fill="#FFE5DE"/>
</g>
<g stroke="#262626" stroke-width="0.9000"  clip-path="url(#axis_clip)">
  <polygon points="171.0,587.2 171.0,459.5 176.1,459.5 176.1,587.2" fill="#F4DFD3"/>
  <polygon points="323.3,587.2 323.3,517.8 328.4,517.8 328.4,587.2" fill="#E0E0E0"/>
  <polygon points="475.6,587.2 475.6,577.1 480.7,577.1 480.7,587.2" fill="#D8EAFA"/>
  <polygon points="627.9,587.2 627.9,576.7 633.0,576.7 633.0,587.2" fill="#E3E3E3"/>
  <polygon points="780.3,587.2 780.3,586.8 785.3,586.8 785.3,587.2" fill="#FFDFD7"/>
</g>
<g stroke="#262626" stroke-width="0.9000"  clip-path="url(#axis_clip)">
  <polygon points="176.1,587.2 176.1,453.7 181.1,453.7 181.1,587.2" fill="#EED7CA"/>
  <polygon points="328.4,587.2 328.4,516.7 333.5,516.7 333.5,587.2" fill="#D9D9D9"/>
  <polygon points="480.7,587.2 480.7,576.5 485.8,576.5 485.8,587.2" fill="#D2E6F8"/>
  <polygon points="633.0,587.2 633.0,576.3 638.1,576.3 638.1,587.2" fill="#DDD"/>
  <polygon points="785.3,587.2 785.3,586.8 790.4,586.8 790.4,587.2" fill="#FFD9D0"/>
</g>
<g stroke="#262626" stroke-width="0.9000"  clip-path="url(#axis_clip)">
  <polygon points="181.1,587.2 181.1,444.3 186.2,444.3 186.2,587.2" fill="#E8D0C1"/>
  <polygon points="333.5,587.2 333.5,512.9 338.5,512.9 338.5,587.2" fill="#D2D2D2"/>
  <polygon points="485.8,587.2 485.8,576.6 490.9,576.6 490.9,587.2" fill="#CBE2F5"/>
  <polygon points="638.1,587.2 638.1,575.3 643.2,575.3 643.2,587.2" fill="#D8D8D8"/>
  <polygon points="790.4,587.2 790.4,586.8 795.5,586.8 795.5,587.2" fill="#FFD3C8"/>
</g>
<g stroke="#262626" stroke-width="0.9000"  clip-path="url(#axis_clip)">
  <polygon points="186.2,587.2 186.2,433.3 191.3,433.3 191.3,587.2" fill="#E2C8B8"/>
  <polygon points="338.5,587.2 338.5,512.0 343.6,512.0 343.6,587.2" fill="#CACACA"/>
  <polygon points="490.9,587.2 490.9,576.4 495.9,576.4 495.9,587.2" fill="#C5DEF3"/>
  <polygon points="643.2,587.2 643.2,574.4 648.3,574.4 648.3,587.2" fill="#D2D2D2"/>
  <polygon points="795.5,587.2 795.5,586.8 800.6,586.8 800.6,587.2" fill="#FFCDC1"/>
</g>
<g stroke="#262626" stroke-width="0.9000"  clip-path="url(#axis_clip)">
  <polygon points="191.3,587.2 191.3,422.2 196.4,422.2 196.4,587.2" fill="#DDC1B0"/>
  <polygon points="343.6,587.2 343.6,508.3 348.7,508.3 348.7,587.2" fill="#C3C3C3"/>
  <polygon points="495.9,587.2 495.9,569.6 501.0,569.6 501.0,587.2" fill="#BFD9F0"/>
  <polygon points="648.3,587.2 648.3,573.3 653.3,573.3 653.3,587.2" fill="#CCC"/>
  <polygon points="800.6,587.2 800.6,586.8 805.7,586.8 805.7,587.2" fill="#FFC7BA"/>
</g>
<g stroke="#262626" stroke-width="0.9000"  clip-path="url(#axis_clip)">
  <polygon points="196.4,587.2 196.4,407.5 201.5,407.5 201.5,587.2" fill="#D7B9A7"/>
  <polygon points="348.7,587.2 348.7,503.6 353.8,503.6 353.8,587.2" fill="#BCBCBC"/>
  <polygon points="501.0,587.2 501.0,568.4 506.1,568.4 506.1,587.2" fill="#B9D5EE"/>
  <polygon points="653.3,587.2 653.3,572.6 658.4,572.6 658.4,587.2" fill="#C7C7C7"/>
  <polygon points="805.7,587.2 805.7,586.8 810.7,586.8 810.7,587.2" fill="#FFC1B2"/>
</g>
<g stroke="#262626" stroke-width="0.9000"  clip-path="url(#axis_clip)">
  <polygon points="201.5,587.2 201.5,392.9 206.5,392.9 206.5,587.2" fill="#D1B29F"/>
  <polygon points="353.8,587.2 353.8,499.0 358.8,499.0 358.8,587.2" fill="#B4B4B4"/>
  <polygon points="506.1,587.2 506.1,567.9 511.2,567.9 511.2,587.2" fill="#B3D1EB"/>
  <polygon points="658.4,587.2 658.4,571.6 663.5,571.6 663.5,587.2" fill="#C1C1C1"/>
  <polygon points="810.7,587.2 810.7,586.8 815.8,586.8 815.8,587.2" fill="#FFBBAB"/>
</g>
<g stroke="#262626" stroke-width="0.9000"  clip-path="url(#axis_clip)">
  <polygon points="206.5,587.2 206.5,377.3 211.6,377.3 211.6,587.2" fill="#CBAB98"/>
  <polygon points="358.8,587.2 358.8,494.9 363.9,494.9 363.9,587.2" fill="#ADADAD"/>
  <polygon points="511.2,587.2 511.2,563.2 516.2,563.2 516.2,587.2" fill="#ADCDE9"/>
  <polygon points="663.5,587.2 663.5,569.8 668.6,569.8 668.6,587.2" fill="#BBB"/>
  <polygon points="815.8,587.2 815.8,586.8 820.9,586.8 820.9,587.2" fill="#FFB5A4"/>
</g>
<g stroke="#262626" stroke-width="0.9000"  clip-path="url(#axis_clip)">
  <polygon points="211.6,587.2 211.6,370.5 216.7,370.5 216.7,587.2" fill="#C6A490"/>
  <polygon points="363.9,587.2 363.9,493.4 369.0,493.4 369.0,587.2" fill="#A5A5A5"/>
  <polygon points="516.2,587.2 516.2,558.6 521.3,558.6 521.3,587.2" fill="#A7C9E6"/>
  <polygon points="668.6,587.2 668.6,568.8 673.6,568.8 673.6,587.2" fill="#B5B5B5"/>
  <polygon points="820.9,587.2 820.9,586.8 826.0,586.8 826.0,587.2" fill="#FFB09C"/>
</g>
<g stroke="#262626" stroke-width="0.9000"  clip-path="url(#axis_clip)">
  <polygon points="216.7,587.2 216.7,358.0 221.8,358.0 221.8,587.2" fill="#C09D88"/>
  <polygon points="369.0,587.2 369.0,489.0 374.1,489.0 374.1,587.2" fill="#9E9E9E"/>
  <polygon points="521.3,587.2 521.3,558.1 526.4,558.1 526.4,587.2" fill="#A1C5E4"/>
  <polygon points="673.6,587.2 673.6,567.7 678.7,567.7 678.7,587.2" fill="#B0B0B0"/>
  <polygon points="826.0,587.2 826.0,586.6 831.0,586.6 831.0,587.2" fill="#FFAA95"/>
</g>
<g stroke="#262626" stroke-width="0.9000"  clip-path="url(#axis_clip)">
  <polygon points="221.8,587.2 221.8,329.9 226.8,329.9 226.8,587.2" fill="#BA9781"/>
  <polygon points="374.1,587.2 374.1,482.7 379.2,482.7 379.2,587.2" fill="#969696"/>
  <polygon points="526.4,587.2 526.4,560.4 531.5,560.4 531.5,587.2" fill="#9BC1E1"/>
  <polygon points="678.7,587.2 678.7,565.8 683.8,565.8 683.8,587.2" fill="#AAA"/>
  <polygon points="831.0,587.2 831.0,586.4 836.1,586.4 836.1,587.2" fill="#FFA48E"/>
</g>
<g stroke="#262626" stroke-width="0.9000"  clip-path="url(#axis_clip)">
  <polygon points="226.8,587.2 226.8,315.0 231.9,315.0 231.9,587.2" fill="#B4907A"/>
  <polygon points="379.2,587.2 379.2,481.2 384.2,481.2 384.2,587.2" fill="#8F8F8F"/>
  <polygon points="531.5,587.2 531.5,563.6 536.6,563.6 536.6,587.2" fill="#96BDDF"/>
  <polygon points="683.8,587.2 683.8,564.2 688.9,564.2 688.9,587.2" fill="#A4A4A4"/>
  <polygon points="836.1,587.2 836.1,586.5 841.2,586.5 841.2,587.2" fill="#FF9E86"/>
</g>
<g stroke="#262626" stroke-width="0.9000"  clip-path="url(#axis_clip)">
  <polygon points="231.9,587.2 231.9,287.1 237.0,287.1 237.0,587.2" fill="#AF8A73"/>
  <polygon points="384.2,587.2 384.2,477.9 389.3,477.9 389.3,587.2" fill="#878787"/>
  <polygon points="536.6,587.2 536.6,563.8 541.6,563.8 541.6,587.2" fill="#90B9DC"/>
  <polygon points="688.9,587.2 688.9,562.5 694.0,562.5 694.0,587.2" fill="#9E9E9E"/>
  <polygon points="841.2,587.2 841.2,586.4 846.3,586.4 846.3,587.2" fill="#FF987F"/>
</g>
<g stroke="#262626" stroke-width="0.9000"  clip-path="url(#axis_clip)">
  <polygon points="237.0,587.2 237.0,278.0 242.1,278.0 242.1,587.2" fill="#A9836C"/>
  <polygon points="389.3,587.2 389.3,468.6 394.4,468.6 394.4,587.2" fill="#7F7F7F"/>
  <polygon points="541.6,587.2 541.6,564.4 546.7,564.4 546.7,587.2" fill="#8BB5DA"/>
  <polygon points="694.0,587.2 694.0,562.1 699.0,562.1 699.0,587.2" fill="#989898"/>
  <polygon points="846.3,587.2 846.3,586.3 851.3,586.3 851.3,587.2" fill="#FF9278"/>
</g>
<g stroke="#262626" stroke-width="0.9000"  clip-path="url(#axis_clip)">
  <polygon points="242.1,587.2 242.1,267.4 247.1,267.4 247.1,587.2" fill="#A37D66"/>
  <polygon points="394.4,587.2 394.4,456.1 399.5,456.1 399.5,587.2" fill="#787878"/>
  <polygon points="546.7,587.2 546.7,562.9 551.8,562.9 551.8,587.2" fill="#85B2D7"/>
  <polygon points="699.0,587.2 699.0,560.9 704.1,560.9 704.1,587.2" fill="#929292"/>
  <polygon points="851.3,587.2 851.3,586.4 856.4,586.4 856.4,587.2" fill="#FF8C70"/>
</g>
<g stroke="#262626" stroke-width="0.9000"  clip-path="url(#axis_clip)">
  <polygon points="247.1,587.2 247.1,256.3 252.2,256.3 252.2,587.2" fill="#9D7760"/>
  <polygon points="399.5,587.2 399.5,452.3 404.5,452.3 404.5,587.2" fill="#707070"/>
  <polygon points="551.8,587.2 551.8,561.8 556.9,561.8 556.9,587.2" fill="#80AED5"/>
  <polygon points="704.1,587.2 704.1,561.4 709.2,561.4 709.2,587.2" fill="#8B8B8B"/>
  <polygon points="856.4,587.2 856.4,586.6 861.5,586.6 861.5,587.2" fill="#FF8669"/>
</g>
<g stroke="#262626" stroke-width="0.9000"  clip-path="url(#axis_clip)">
  <polygon points="252.2,587.2 252.2,231.4 257.3,231.4 257.3,587.2" fill="#98715A"/>
  <polygon points="404.5,587.2 404.5,447.0 409.6,447.0 409.6,587.2" fill="#686868"/>
  <polygon points="556.9,587.2 556.9,560.3 561.9,560.3 561.9,587.2" fill="#7BAAD2"/>
  <polygon points="709.2,587.2 709.2,557.5 714.3,557.5 714.3,587.2" fill="#858585"/>
  <polygon points="861.5,587.2 861.5,586.6 866.6,586.6 866.6,587.2" fill="#FF8062"/>
</g>
<g stroke="#262626" stroke-width="0.9000"  clip-path="url(#axis_clip)">
  <polygon points="257.3,587.2 257.3,232.7 262.4,232.7 262.4,587.2" fill="#926B54"/>
  <polygon points="409.6,587.2 409.6,443.0 414.7,443.0 414.7,587.2" fill="#606060"/>
  <polygon points="561.9,587.2 561.9,559.7 567.0,559.7 567.0,587.2" fill="#76A6D0"/>
  <polygon points="714.3,587.2 714.3,556.5 719.3,556.5 719.3,587.2" fill="#7F7F7F"/>
  <polygon points="866.6,587.2 866.6,586.7 871.7,586.7 871.7,587.2" fill="#FF7B5A"/>
</g>
<g stroke="#262626" stroke-width="0.9000"  clip-path="url(#axis_clip)">
  <polygon points="262.4,587.2 262.4,254.1 267.5,254.1 267.5,587.2" fill="#8C654E"/>
  <polygon points="414.7,587.2 414.7,457.9 419.8,457.9 419.8,587.2" fill="#585858"/>
  <polygon points="567.0,587.2 567.0,559.9 572.1,559.9 572.1,587.2" fill="#71A3CD"/>
  <polygon points="719.3,587.2 719.3,561.0 724.4,561.0 724.4,587.2" fill="#797979"/>
  <polygon points="871.7,587.2 871.7,586.6 876.7,586.6 876.7,587.2" fill="#FF7553"/>
</g>
<g stroke="#262626" stroke-width="0.9000"  clip-path="url(#axis_clip)">
  <polygon points="267.5,587.2 267.5,210.3 272.5,210.3 272.5,587.2" fill="#866048"/>
  <polygon points="419.8,587.2 419.8,454.5 424.9,454.5 424.9,587.2" fill="#505050"/>
  <polygon points="572.1,587.2 572.1,558.8 577.2,558.8 577.2,587.2" fill="#6C9FCB"/>
  <polygon points="724.4,587.2 724.4,555.4 729.5,555.4 729.5,587.2" fill="#737373"/>
  <polygon points="876.7,587.2 876.7,586.6 881.8,586.6 881.8,587.2" fill="#FF6F4C"/>
</g>
<g stroke="#262626" stroke-width="0.9000"  clip-path="url(#axis_clip)">
  <polygon points="272.5,587.2 272.5,191.7 277.6,191.7 277.6,587.2" fill="#815A43"/>
  <polygon points="424.9,587.2 424.9,441.3 429.9,441.3 429.9,587.2" fill="#484848"/>
  <polygon points="577.2,587.2 577.2,560.7 582.3,560.7 582.3,587.2" fill="#679CC8"/>
  <polygon points="729.5,587.2 729.5,552.1 734.6,552.1 734.6,587.2" fill="#6C6C6C"/>
  <polygon points="881.8,587.2 881.8,586.6 886.9,586.6 886.9,587.2" fill="#FF6944"/>
</g>
<g stroke="#262626" stroke-width="0.9000"  clip-path="url(#axis_clip)">
  <polygon points="277.6,587.2 277.6,154.3 282.7,154.3 282.7,587.2" fill="#7B553E"/>
  <polygon points="429.9,587.2 429.9,433.5 435.0,433.5 435.0,587.2" fill="#404040"/>
  <polygon points="582.3,587.2 582.3,559.2 587.3,559.2 587.3,587.2" fill="#6298C6"/>
  <polygon points="734.6,587.2 734.6,549.1 739.6,549.1 739.6,587.2" fill="#666"/>
  <polygon points="886.9,587.2 886.9,586.6 892.0,586.6 892.0,587.2" fill="#FF633D"/>
</g>
<text transform="translate(221.8,600.7)" dy="21.6" font-size="21.60" fill="#808080" stroke="none" text-anchor="middle">Coal</text>
<text transform="translate(374.1,600.7)" dy="21.6" font-size="21.60" fill="#808080" stroke="none" text-anchor="middle">Oil</text>
<text transform="translate(526.4,600.7)" dy="21.6" font-size="21.60" fill="#808080" stroke="none" text-anchor="middle">Gas</text>
<text transform="translate(678.7,600.7)" dy="21.6" font-size="21.60" fill="#808080" stroke="none" text-anchor="middle">Cement</text>
<text transform="translate(831.0,600.7)" dy="21.6" font-size="21.60" fill="#808080" stroke="none" text-anchor="middle">Flaring</text>
<polyline class="pl" points="252.2,147.5 252.2,140.8 282.7,140.8 282.7,147.5" stroke="#808080" stroke-width="0.90" stroke-opacity="1.00" fill="none" clip-path="url(#axis_clip)"/>
<text transform="translate(282.7,130.7)" dy="0.0" font-size="21.60" fill="#808080" stroke="none" text-anchor="end">+4.1%/yr</text>
<polyline class="pl" points="404.5,426.8 404.5,420.0 435.0,420.0 435.0,426.8" stroke="#808080" stroke-width="0.90" stroke-opacity="1.00" fill="none" clip-path="url(#axis_clip)"/>
<text transform="translate(435.0,409.9)" dy="0.0" font-size="21.60" fill="#808080" stroke="none" text-anchor="end">+1.5%/yr</text>
<polyline class="pl" points="556.9,552.0 556.9,545.3 587.3,545.3 587.3,552.0" stroke="#808080" stroke-width="0.90" stroke-opacity="1.00" fill="none" clip-path="url(#axis_clip)"/>
<text transform="translate(587.3,535.1)" dy="0.0" font-size="21.60" fill="#808080" stroke="none" text-anchor="end">+0.3%/yr</text>
<polyline class="pl" points="709.2,542.3 709.2,535.6 739.6,535.6 739.6,542.3" stroke="#808080" stroke-width="0.90" stroke-opacity="1.00" fill="none" clip-path="url(#axis_clip)"/>
<text transform="translate(739.6,525.4)" dy="0.0" font-size="21.60" fill="#808080" stroke="none" text-anchor="end">+5.3%/yr</text>
<polyline class="pl" points="861.5,579.8 861.5,573.1 892.0,573.1 892.0,579.8" stroke="#808080" stroke-width="0.90" stroke-opacity="1.00" fill="none" clip-path="url(#axis_clip)"/>
<text transform="translate(892.0,562.9)" dy="0.0" font-size="21.60" fill="#808080" stroke="none" text-anchor="end">+3.8%/yr</text>
<text transform="translate(145.6,47.2)" dy="0.0" font-size="27.00" fill="#808080" stroke="none">Annual Fossil CO<tspan dy="0.2em"><tspan style="font-size:70%">2</tspan></tspan><tspan dy="-0.2em"> </tspan>Emissions in India, 2000&#8211;23</text>
<text transform="translate(130.0,81.6)" dy="8.1" font-size="27.00" fill="#808080" stroke="none" text-anchor="end">CO<tspan dy="0.2em"><tspan style="font-size:70%">2</tspan></tspan><tspan dy="-0.2em"></tspan></text>
<text transform="translate(145.6,54.0)" dy="18.0" font-size="18.00" fill="#808080" stroke="none" xml:space="preserve"> Annual growth rates from 2018&#8211;2023.</text>
<text transform="translate(452.0,54.0)" dy="18.0" font-size="18.00" fill="#808080" stroke="none" xml:space="preserve"> Includes projection for 2023.</text>
<text transform="translate(162.3,666.1)" font-size="19.80" font-family="Helvetica" fill="#BFBFBF" stroke="none" xml:space="preserve">Global Carbon Project</text>
<g>
  <rect x="123.0" y="651.4" width="34" height="17" fill="#FFF" stroke="none"/>
  <g transform="translate(124.0,652.4) scale(0.24)">
  <g><circle fill="#FFF" cx="37.79" cy="28.5" r="28.84"/>
     <circle fill="none" cx="37.79" cy="28.5" r="28.84" stroke="#BFBFBF" stroke-width="5.5"/>
     <path fill="#BFBFBF" d="M37.16,23.19 l-4.29,2.23c-0.458-0.951-1.02-1.62-1.69-2c-0.667-0.38-1.29-0.571-1.86-0.571c-2.86,0-4.29,1.89-4.29,5.66 c0,1.71,0.36,3.08,1.09,4.11c0.724,1.03,1.79,1.54,3.2,1.54c1.87,0,3.18-0.915,3.94-2.74l3.94,2 c-0.838,1.56-2,2.79-3.49,3.69c-1.48,0.896-3.12,1.34-4.91,1.34c-2.86,0-5.16-0.875-6.92-2.63 c-1.75-1.75-2.63-4.19-2.63-7.31c0-3.05,0.886-5.47,2.66-7.26c1.77-1.79,4.01-2.69,6.72-2.69 C32.6,18.56,35.44,20.1,37.16,23.19z
              M55.61,23.19l-4.23,2.23c-0.457-0.951-1.02-1.62-1.69-2 c-0.668-0.38-1.31-0.571-1.91-0.571c-2.86,0-4.29,1.89-4.29,5.66c0,1.71,0.363,3.08,1.09,4.11 c0.723,1.03,1.79,1.54,3.2,1.54c1.87,0,3.18-0.915,3.94-2.74l4,2c-0.875,1.56-2.06,2.79-3.54,3.69 c-1.49,0.9-3.11,1.34-4.86,1.34c-2.9,0-5.21-0.875-6.94-2.63c-1.74-1.75-2.6-4.19-2.6-7.31 c0-3.05,0.885-5.47,2.66-7.26c1.77-1.79,4.01-2.69,6.71-2.69C51.12,18.56,53.944,20.1,55.61,23.19z"/>
  </g></g>
  <g transform="translate(140.2,652.4) scale(0.24)">
  <g><circle fill="#FFF" cx="37.79" cy="28.5" r="28.84"/>
     <circle fill="none" cx="37.79" cy="28.5" r="28.84" stroke="#BFBFBF" stroke-width="5.5"/>
     <path fill="#BFBFBF" d="M46.129,20.557v13.085h-3.656v15.542h-9.944V33.643h-3.656V20.557 c0-0.572,0.2-1.057,0.599-1.457c0.401-0.399,0.887-0.6,1.457-0.6h13.144c0.533,0,1.01,0.2,1.428,0.6 C45.918,19.5,46.129,19.986,46.129,20.557z
              M33.042,12.329c0-3.008,1.485-4.514,4.458-4.514s4.457,1.504,4.457,4.514 c0,2.971-1.486,4.457-4.457,4.457S33.042,15.3,33.042,12.329z"/>
  </g></g>
</g>
</g>
</svg>
