<svg version="1.1" xmlns="http://www.w3.org/2000/svg" xmlns:xlink="http://www.w3.org/1999/xlink" width="100%" height="100%" viewBox="0 0 1200.000 674.916">
<title>Annual Fossil CO2 Emissions in Thailand, 2000&#8211;22</title>
<style type="text/css">
  #main {font-family:Helvetica,Arial,sans-serif; font-size:27.00px;
         fill-opacity:1; fill:#000000; stroke:none; stroke-linejoin:round; stroke-linecap:round; stroke-width:1.00;}
  .marker {stroke-opacity:0;fill-opacity:0;}
  .marker:hover {stroke-opacity:0.5; fill-opacity:1;}
  .ticklabel {font-size:27.00px;fill:#808080;stroke:none;font-family:Helvetica}
  .ytl {text-anchor:end;}
  .dp1 {pointer-events:none;font-size:70%;text-anchor:middle;fill:#000000;}
  .dp2 {pointer-events:none;font-size:70%;text-anchor:middle;fill:#FFFFFF;}
  .numtip {pointer-events:none;}
  .cc {opacity:0.25;}
.dl_fe {background-color:#FDFFDF;display:flex;margin:auto;align-items:center}
.dl_fe_p {font-size:20px;text-align:center;margin:3px}
.dl_el {display:none;pointer-events:none;}
.cc:hover + .dl_el {display:block;}
text:hover + .dl_el {display:block;}
</style>
<defs>
  <clipPath id="axis_clip"><rect x="145.8" y="54.2" width="761.2" height="532.8" /></clipPath>
  <path id="line_x" d="M 145.600,0 h 761.600" stroke="#262626" stroke-opacity="0.15" stroke-width="1.00"/>
  <path id="tick_y" d="M 145.600,0 h -6.000" stroke="#808080" stroke-width="0.90"/>
  <path id="tick_x" d="M 0,587.177 v 6.000" stroke="#808080" stroke-width="0.90"/>
</defs>
<g id="main">
<use xlink:href="#line_x" transform="translate(0,587.2)"/>
<use xlink:href="#line_x" transform="translate(0,498.3)"/>
<use xlink:href="#line_x" transform="translate(0,409.4)"/>
<use xlink:href="#line_x" transform="translate(0,320.6)"/>
<use xlink:href="#line_x" transform="translate(0,231.7)"/>
<use xlink:href="#line_x" transform="translate(0,142.9)"/>
<use xlink:href="#line_x" transform="translate(0,54.0)"/>
<use xlink:href="#tick_y" transform="translate(0,587.2)"/>
<use xlink:href="#tick_y" transform="translate(0,498.3)"/>
<use xlink:href="#tick_y" transform="translate(0,409.4)"/>
<use xlink:href="#tick_y" transform="translate(0,320.6)"/>
<use xlink:href="#tick_y" transform="translate(0,231.7)"/>
<use xlink:href="#tick_y" transform="translate(0,142.9)"/>
<use xlink:href="#tick_y" transform="translate(0,54.0)"/>
<use xlink:href="#tick_x" transform="translate(221.8,0)"/>
<use xlink:href="#tick_x" transform="translate(374.1,0)"/>
<use xlink:href="#tick_x" transform="translate(526.4,0)"/>
<use xlink:href="#tick_x" transform="translate(678.7,0)"/>
<use xlink:href="#tick_x" transform="translate(831.0,0)"/>
<polyline points="145.6,53.993 145.6,587.177 907.2,587.177" stroke="#808080" stroke-width="0.90" fill="none"/>
<text class="ticklabel ytl" transform="translate(128.8,595.3)">0</text>
<text class="ticklabel ytl" transform="translate(128.8,506.4)">20</text>
<text class="ticklabel ytl" transform="translate(128.8,417.5)">40</text>
<text class="ticklabel ytl" transform="translate(128.8,328.7)">60</text>
<text class="ticklabel ytl" transform="translate(128.8,239.8)">80</text>
<text class="ticklabel ytl" transform="translate(128.8,151.0)">100</text>
<text class="ticklabel ytl" transform="translate(128.8,62.1)">120 Mt</text>
<g stroke="#262626" stroke-width="0.9000"  clip-path="url(#axis_clip)">
  <polygon points="160.8,587.2 160.8,440.1 166.1,440.1 166.1,587.2" fill="#FFEFE6"/>
  <polygon points="313.2,587.2 313.2,234.6 318.5,234.6 318.5,587.2" fill="#EEE"/>
  <polygon points="465.5,587.2 465.5,412.5 470.8,412.5 470.8,587.2" fill="#E6F3FF"/>
  <polygon points="617.8,587.2 617.8,519.2 623.1,519.2 623.1,587.2" fill="#EEE"/>
  <polygon points="770.1,587.2 770.1,585.9 775.4,585.9 775.4,587.2" fill="#FFEAE6"/>
</g>
<g stroke="#262626" stroke-width="0.9000"  clip-path="url(#axis_clip)">
  <polygon points="166.1,587.2 166.1,423.6 171.4,423.6 171.4,587.2" fill="#F9E7DC"/>
  <polygon points="318.5,587.2 318.5,253.2 323.7,253.2 323.7,587.2" fill="#E7E7E7"/>
  <polygon points="470.8,587.2 470.8,398.2 476.1,398.2 476.1,587.2" fill="#DFEFFC"/>
  <polygon points="623.1,587.2 623.1,509.6 628.4,509.6 628.4,587.2" fill="#E8E8E8"/>
  <polygon points="775.4,587.2 775.4,585.9 780.7,585.9 780.7,587.2" fill="#FFE4DE"/>
</g>
<g stroke="#262626" stroke-width="0.9000"  clip-path="url(#axis_clip)">
  <polygon points="171.4,587.2 171.4,412.8 176.7,412.8 176.7,587.2" fill="#F3DED2"/>
  <polygon points="323.7,587.2 323.7,236.4 329.0,236.4 329.0,587.2" fill="#DFDFDF"/>
  <polygon points="476.1,587.2 476.1,380.7 481.4,380.7 481.4,587.2" fill="#D8EAFA"/>
  <polygon points="628.4,587.2 628.4,499.5 633.7,499.5 633.7,587.2" fill="#E2E2E2"/>
  <polygon points="780.7,587.2 780.7,585.9 786.0,585.9 786.0,587.2" fill="#FFDED6"/>
</g>
<g stroke="#262626" stroke-width="0.9000"  clip-path="url(#axis_clip)">
  <polygon points="176.7,587.2 176.7,409.9 182.0,409.9 182.0,587.2" fill="#EDD6C9"/>
  <polygon points="329.0,587.2 329.0,214.6 334.3,214.6 334.3,587.2" fill="#D8D8D8"/>
  <polygon points="481.4,587.2 481.4,367.4 486.7,367.4 486.7,587.2" fill="#D1E6F7"/>
  <polygon points="633.7,587.2 633.7,509.5 639.0,509.5 639.0,587.2" fill="#DDD"/>
  <polygon points="786.0,587.2 786.0,585.6 791.3,585.6 791.3,587.2" fill="#FFD8CF"/>
</g>
<g stroke="#262626" stroke-width="0.9000"  clip-path="url(#axis_clip)">
  <polygon points="182.0,587.2 182.0,388.3 187.3,388.3 187.3,587.2" fill="#E7CEBF"/>
  <polygon points="334.3,587.2 334.3,179.5 339.6,179.5 339.6,587.2" fill="#D0D0D0"/>
  <polygon points="486.7,587.2 486.7,355.7 492.0,355.7 492.0,587.2" fill="#CAE1F5"/>
  <polygon points="639.0,587.2 639.0,506.0 644.3,506.0 644.3,587.2" fill="#D7D7D7"/>
  <polygon points="791.3,587.2 791.3,585.2 796.6,585.2 796.6,587.2" fill="#FFD2C7"/>
</g>
<g stroke="#262626" stroke-width="0.9000"  clip-path="url(#axis_clip)">
  <polygon points="187.3,587.2 187.3,372.4 192.6,372.4 192.6,587.2" fill="#E1C6B6"/>
  <polygon points="339.6,587.2 339.6,183.6 344.9,183.6 344.9,587.2" fill="#C9C9C9"/>
  <polygon points="492.0,587.2 492.0,345.2 497.3,345.2 497.3,587.2" fill="#C4DDF2"/>
  <polygon points="644.3,587.2 644.3,497.3 649.6,497.3 649.6,587.2" fill="#D1D1D1"/>
  <polygon points="796.6,587.2 796.6,585.2 801.9,585.2 801.9,587.2" fill="#FFCCBF"/>
</g>
<g stroke="#262626" stroke-width="0.9000"  clip-path="url(#axis_clip)">
  <polygon points="192.6,587.2 192.6,359.2 197.9,359.2 197.9,587.2" fill="#DBBFAD"/>
  <polygon points="344.9,587.2 344.9,199.3 350.2,199.3 350.2,587.2" fill="#C1C1C1"/>
  <polygon points="497.3,587.2 497.3,340.2 502.6,340.2 502.6,587.2" fill="#BDD8EF"/>
  <polygon points="649.6,587.2 649.6,492.9 654.9,492.9 654.9,587.2" fill="#CBCBCB"/>
  <polygon points="801.9,587.2 801.9,585.4 807.2,585.4 807.2,587.2" fill="#FFC6B8"/>
</g>
<g stroke="#262626" stroke-width="0.9000"  clip-path="url(#axis_clip)">
  <polygon points="197.9,587.2 197.9,330.3 203.2,330.3 203.2,587.2" fill="#D5B7A5"/>
  <polygon points="350.2,587.2 350.2,211.1 355.5,211.1 355.5,587.2" fill="#B9B9B9"/>
  <polygon points="502.6,587.2 502.6,323.9 507.9,323.9 507.9,587.2" fill="#B7D4ED"/>
  <polygon points="654.9,587.2 654.9,489.4 660.2,489.4 660.2,587.2" fill="#C5C5C5"/>
  <polygon points="807.2,587.2 807.2,585.5 812.5,585.5 812.5,587.2" fill="#FFBFB0"/>
</g>
<g stroke="#262626" stroke-width="0.9000"  clip-path="url(#axis_clip)">
  <polygon points="203.2,587.2 203.2,310.6 208.5,310.6 208.5,587.2" fill="#CFB09C"/>
  <polygon points="355.5,587.2 355.5,238.5 360.8,238.5 360.8,587.2" fill="#B2B2B2"/>
  <polygon points="507.9,587.2 507.9,304.1 513.2,304.1 513.2,587.2" fill="#B0D0EA"/>
  <polygon points="660.2,587.2 660.2,500.8 665.5,500.8 665.5,587.2" fill="#BFBFBF"/>
  <polygon points="812.5,587.2 812.5,585.5 817.8,585.5 817.8,587.2" fill="#FFB9A8"/>
</g>
<g stroke="#262626" stroke-width="0.9000"  clip-path="url(#axis_clip)">
  <polygon points="208.5,587.2 208.5,309.9 213.8,309.9 213.8,587.2" fill="#C9A894"/>
  <polygon points="360.8,587.2 360.8,232.5 366.1,232.5 366.1,587.2" fill="#AAA"/>
  <polygon points="513.2,587.2 513.2,287.2 518.5,287.2 518.5,587.2" fill="#AACBE8"/>
  <polygon points="665.5,587.2 665.5,504.2 670.8,504.2 670.8,587.2" fill="#B9B9B9"/>
  <polygon points="817.8,587.2 817.8,585.3 823.1,585.3 823.1,587.2" fill="#FFB3A1"/>
</g>
<g stroke="#262626" stroke-width="0.9000"  clip-path="url(#axis_clip)">
  <polygon points="213.8,587.2 213.8,302.8 219.1,302.8 219.1,587.2" fill="#C3A18C"/>
  <polygon points="366.1,587.2 366.1,228.2 371.4,228.2 371.4,587.2" fill="#A2A2A2"/>
  <polygon points="518.5,587.2 518.5,243.5 523.8,243.5 523.8,587.2" fill="#A4C7E5"/>
  <polygon points="670.8,587.2 670.8,505.0 676.1,505.0 676.1,587.2" fill="#B3B3B3"/>
  <polygon points="823.1,587.2 823.1,585.4 828.4,585.4 828.4,587.2" fill="#FFAD99"/>
</g>
<g stroke="#262626" stroke-width="0.9000"  clip-path="url(#axis_clip)">
  <polygon points="219.1,587.2 219.1,296.8 224.4,296.8 224.4,587.2" fill="#BD9A85"/>
  <polygon points="371.4,587.2 371.4,211.2 376.7,211.2 376.7,587.2" fill="#9A9A9A"/>
  <polygon points="523.8,587.2 523.8,249.4 529.0,249.4 529.0,587.2" fill="#9EC3E3"/>
  <polygon points="676.1,587.2 676.1,506.3 681.4,506.3 681.4,587.2" fill="#ADADAD"/>
  <polygon points="828.4,587.2 828.4,584.1 833.7,584.1 833.7,587.2" fill="#FFA791"/>
</g>
<g stroke="#262626" stroke-width="0.9000"  clip-path="url(#axis_clip)">
  <polygon points="224.4,587.2 224.4,284.4 229.7,284.4 229.7,587.2" fill="#B7937D"/>
  <polygon points="376.7,587.2 376.7,183.6 382.0,183.6 382.0,587.2" fill="#929292"/>
  <polygon points="529.0,587.2 529.0,215.7 534.3,215.7 534.3,587.2" fill="#98BFE0"/>
  <polygon points="681.4,587.2 681.4,503.9 686.7,503.9 686.7,587.2" fill="#A6A6A6"/>
  <polygon points="833.7,587.2 833.7,582.7 839.0,582.7 839.0,587.2" fill="#FFA18A"/>
</g>
<g stroke="#262626" stroke-width="0.9000"  clip-path="url(#axis_clip)">
  <polygon points="229.7,587.2 229.7,288.8 235.0,288.8 235.0,587.2" fill="#B18C76"/>
  <polygon points="382.0,587.2 382.0,181.2 387.3,181.2 387.3,587.2" fill="#8A8A8A"/>
  <polygon points="534.3,587.2 534.3,207.3 539.6,207.3 539.6,587.2" fill="#92BBDD"/>
  <polygon points="686.7,587.2 686.7,503.1 692.0,503.1 692.0,587.2" fill="#A0A0A0"/>
  <polygon points="839.0,587.2 839.0,583.6 844.3,583.6 844.3,587.2" fill="#FF9A82"/>
</g>
<g stroke="#262626" stroke-width="0.9000"  clip-path="url(#axis_clip)">
  <polygon points="235.0,587.2 235.0,259.3 240.3,259.3 240.3,587.2" fill="#AB866F"/>
  <polygon points="387.3,587.2 387.3,182.2 392.6,182.2 392.6,587.2" fill="#828282"/>
  <polygon points="539.6,587.2 539.6,200.2 544.9,200.2 544.9,587.2" fill="#8CB7DB"/>
  <polygon points="692.0,587.2 692.0,499.5 697.3,499.5 697.3,587.2" fill="#9A9A9A"/>
  <polygon points="844.3,587.2 844.3,583.9 849.6,583.9 849.6,587.2" fill="#FF947A"/>
</g>
<g stroke="#262626" stroke-width="0.9000"  clip-path="url(#axis_clip)">
  <polygon points="240.3,587.2 240.3,266.6 245.6,266.6 245.6,587.2" fill="#A57F68"/>
  <polygon points="392.6,587.2 392.6,164.1 397.9,164.1 397.9,587.2" fill="#7A7A7A"/>
  <polygon points="544.9,587.2 544.9,192.1 550.2,192.1 550.2,587.2" fill="#87B3D8"/>
  <polygon points="697.3,587.2 697.3,498.2 702.6,498.2 702.6,587.2" fill="#939393"/>
  <polygon points="849.6,587.2 849.6,583.6 854.9,583.6 854.9,587.2" fill="#FF8E73"/>
</g>
<g stroke="#262626" stroke-width="0.9000"  clip-path="url(#axis_clip)">
  <polygon points="245.6,587.2 245.6,260.2 250.9,260.2 250.9,587.2" fill="#9F7961"/>
  <polygon points="397.9,587.2 397.9,147.6 403.2,147.6 403.2,587.2" fill="#727272"/>
  <polygon points="550.2,587.2 550.2,197.2 555.5,197.2 555.5,587.2" fill="#81AFD6"/>
  <polygon points="702.6,587.2 702.6,484.7 707.9,484.7 707.9,587.2" fill="#8D8D8D"/>
  <polygon points="854.9,587.2 854.9,584.0 860.2,584.0 860.2,587.2" fill="#FF886B"/>
</g>
<g stroke="#262626" stroke-width="0.9000"  clip-path="url(#axis_clip)">
  <polygon points="250.9,587.2 250.9,259.2 256.2,259.2 256.2,587.2" fill="#99725B"/>
  <polygon points="403.2,587.2 403.2,137.8 408.5,137.8 408.5,587.2" fill="#6A6A6A"/>
  <polygon points="555.5,587.2 555.5,208.2 560.8,208.2 560.8,587.2" fill="#7CABD3"/>
  <polygon points="707.9,587.2 707.9,487.7 713.2,487.7 713.2,587.2" fill="#878787"/>
  <polygon points="860.2,587.2 860.2,584.1 865.5,584.1 865.5,587.2" fill="#FF8263"/>
</g>
<g stroke="#262626" stroke-width="0.9000"  clip-path="url(#axis_clip)">
  <polygon points="256.2,587.2 256.2,238.1 261.5,238.1 261.5,587.2" fill="#936C55"/>
  <polygon points="408.5,587.2 408.5,132.3 413.8,132.3 413.8,587.2" fill="#626262"/>
  <polygon points="560.8,587.2 560.8,212.5 566.1,212.5 566.1,587.2" fill="#76A7D0"/>
  <polygon points="713.2,587.2 713.2,487.4 718.5,487.4 718.5,587.2" fill="#808080"/>
  <polygon points="865.5,587.2 865.5,584.5 870.8,584.5 870.8,587.2" fill="#FF7C5C"/>
</g>
<g stroke="#262626" stroke-width="0.9000"  clip-path="url(#axis_clip)">
  <polygon points="261.5,587.2 261.5,275.9 266.8,275.9 266.8,587.2" fill="#8D664F"/>
  <polygon points="413.8,587.2 413.8,126.7 419.1,126.7 419.1,587.2" fill="#595959"/>
  <polygon points="566.1,587.2 566.1,208.3 571.4,208.3 571.4,587.2" fill="#71A3CE"/>
  <polygon points="718.5,587.2 718.5,488.1 723.8,488.1 723.8,587.2" fill="#7A7A7A"/>
  <polygon points="870.8,587.2 870.8,584.5 876.1,584.5 876.1,587.2" fill="#FF7554"/>
</g>
<g stroke="#262626" stroke-width="0.9000"  clip-path="url(#axis_clip)">
  <polygon points="266.8,587.2 266.8,254.8 272.1,254.8 272.1,587.2" fill="#876049"/>
  <polygon points="419.1,587.2 419.1,159.2 424.4,159.2 424.4,587.2" fill="#515151"/>
  <polygon points="571.4,587.2 571.4,239.7 576.7,239.7 576.7,587.2" fill="#6C9FCB"/>
  <polygon points="723.8,587.2 723.8,489.8 729.1,489.8 729.1,587.2" fill="#737373"/>
  <polygon points="876.1,587.2 876.1,584.5 881.4,584.5 881.4,587.2" fill="#FF6F4C"/>
</g>
<g stroke="#262626" stroke-width="0.9000"  clip-path="url(#axis_clip)">
  <polygon points="272.1,587.2 272.1,246.6 277.4,246.6 277.4,587.2" fill="#815B43"/>
  <polygon points="424.4,587.2 424.4,183.2 429.7,183.2 429.7,587.2" fill="#484848"/>
  <polygon points="576.7,587.2 576.7,240.6 582.0,240.6 582.0,587.2" fill="#679CC9"/>
  <polygon points="729.1,587.2 729.1,493.2 734.3,493.2 734.3,587.2" fill="#6D6D6D"/>
  <polygon points="881.4,587.2 881.4,585.0 886.7,585.0 886.7,587.2" fill="#FF6945"/>
</g>
<g stroke="#262626" stroke-width="0.9000"  clip-path="url(#axis_clip)">
  <polygon points="277.4,587.2 277.4,277.2 282.7,277.2 282.7,587.2" fill="#7B553E"/>
  <polygon points="429.7,587.2 429.7,125.9 435.0,125.9 435.0,587.2" fill="#404040"/>
  <polygon points="582.0,587.2 582.0,251.2 587.3,251.2 587.3,587.2" fill="#6298C6"/>
  <polygon points="734.3,587.2 734.3,493.2 739.6,493.2 739.6,587.2" fill="#666"/>
  <polygon points="886.7,587.2 886.7,585.4 892.0,585.4 892.0,587.2" fill="#FF633D"/>
</g>
<text transform="translate(221.8,600.7)" dy="21.6" font-size="21.60" fill="#808080" stroke="none" text-anchor="middle">Coal</text>
<text transform="translate(374.1,600.7)" dy="21.6" font-size="21.60" fill="#808080" stroke="none" text-anchor="middle">Oil</text>
<text transform="translate(526.4,600.7)" dy="21.6" font-size="21.60" fill="#808080" stroke="none" text-anchor="middle">Gas</text>
<text transform="translate(678.7,600.7)" dy="21.6" font-size="21.60" fill="#808080" stroke="none" text-anchor="middle">Cement</text>
<text transform="translate(831.0,600.7)" dy="21.6" font-size="21.60" fill="#808080" stroke="none" text-anchor="middle">Flaring</text>
<polyline class="pl" points="250.9,231.4 250.9,224.6 282.7,224.6 282.7,231.4" stroke="#808080" stroke-width="0.90" stroke-opacity="1.00" fill="none" clip-path="url(#axis_clip)"/>
<text transform="translate(282.7,214.5)" dy="0.0" font-size="21.60" fill="#808080" stroke="none" text-anchor="end">-0.8%/yr</text>
<polyline class="pl" points="403.2,119.2 403.2,112.4 435.0,112.4 435.0,119.2" stroke="#808080" stroke-width="0.90" stroke-opacity="1.00" fill="none" clip-path="url(#axis_clip)"/>
<text transform="translate(435.0,102.3)" dy="0.0" font-size="21.60" fill="#808080" stroke="none" text-anchor="end">-0.9%/yr</text>
<polyline class="pl" points="555.5,190.5 555.5,183.7 587.3,183.7 587.3,190.5" stroke="#808080" stroke-width="0.90" stroke-opacity="1.00" fill="none" clip-path="url(#axis_clip)"/>
<text transform="translate(587.3,173.6)" dy="0.0" font-size="21.60" fill="#808080" stroke="none" text-anchor="end">-2.6%/yr</text>
<polyline class="pl" points="707.9,478.0 707.9,471.2 739.6,471.2 739.6,478.0" stroke="#808080" stroke-width="0.90" stroke-opacity="1.00" fill="none" clip-path="url(#axis_clip)"/>
<text transform="translate(739.6,461.1)" dy="0.0" font-size="21.60" fill="#808080" stroke="none" text-anchor="end">-1.4%/yr</text>
<polyline class="pl" points="860.2,577.3 860.2,570.5 892.0,570.5 892.0,577.3" stroke="#808080" stroke-width="0.90" stroke-opacity="1.00" fill="none" clip-path="url(#axis_clip)"/>
<text transform="translate(892.0,560.4)" dy="0.0" font-size="21.60" fill="#808080" stroke="none" text-anchor="end">-9.4%/yr</text>
<text transform="translate(145.6,47.2)" dy="0.0" font-size="27.00" fill="#808080" stroke="none">Annual Fossil CO<tspan dy="0.2em"><tspan style="font-size:70%">2</tspan></tspan><tspan dy="-0.2em"> </tspan>Emissions in Thailand, 2000&#8211;22</text>
<text transform="translate(130.0,81.6)" dy="8.1" font-size="27.00" fill="#808080" stroke="none" text-anchor="end">CO<tspan dy="0.2em"><tspan style="font-size:70%">2</tspan></tspan><tspan dy="-0.2em"></tspan></text>
<text transform="translate(145.6,54.0)" dy="18.0" font-size="18.00" fill="#808080" stroke="none" xml:space="preserve"> Annual growth rates from 2017&#8211;2022.</text>
<text transform="translate(162.3,666.1)" font-size="19.80" font-family="Helvetica" fill="#BFBFBF" stroke="none" xml:space="preserve">Global Carbon Project</text>
<g>
  <rect x="123.0" y="651.4" width="34" height="17" fill="#FFF" stroke="none"/>
  <g transform="translate(124.0,652.4) scale(0.24)">
  <g><circle fill="#FFF" cx="37.79" cy="28.5" r="28.84"/>
     <circle fill="none" cx="37.79" cy="28.5" r="28.84" stroke="#BFBFBF" stroke-width="5.5"/>
     <path fill="#BFBFBF" d="M37.16,23.19 l-4.29,2.23c-0.458-0.951-1.02-1.62-1.69-2c-0.667-0.38-1.29-0.571-1.86-0.571c-2.86,0-4.29,1.89-4.29,5.66 c0,1.71,0.36,3.08,1.09,4.11c0.724,1.03,1.79,1.54,3.2,1.54c1.87,0,3.18-0.915,3.94-2.74l3.94,2 c-0.838,1.56-2,2.79-3.49,3.69c-1.48,0.896-3.12,1.34-4.91,1.34c-2.86,0-5.16-0.875-6.92-2.63 c-1.75-1.75-2.63-4.19-2.63-7.31c0-3.05,0.886-5.47,2.66-7.26c1.77-1.79,4.01-2.69,6.72-2.69 C32.6,18.56,35.44,20.1,37.16,23.19z
              M55.61,23.19l-4.23,2.23c-0.457-0.951-1.02-1.62-1.69-2 c-0.668-0.38-1.31-0.571-1.91-0.571c-2.86,0-4.29,1.89-4.29,5.66c0,1.71,0.363,3.08,1.09,4.11 c0.723,1.03,1.79,1.54,3.2,1.54c1.87,0,3.18-0.915,3.94-2.74l4,2c-0.875,1.56-2.06,2.79-3.54,3.69 c-1.49,0.9-3.11,1.34-4.86,1.34c-2.9,0-5.21-0.875-6.94-2.63c-1.74-1.75-2.6-4.19-2.6-7.31 c0-3.05,0.885-5.47,2.66-7.26c1.77-1.79,4.01-2.69,6.71-2.69C51.12,18.56,53.944,20.1,55.61,23.19z"/>
  </g></g>
  <g transform="translate(140.2,652.4) scale(0.24)">
  <g><circle fill="#FFF" cx="37.79" cy="28.5" r="28.84"/>
     <circle fill="none" cx="37.79" cy="28.5" r="28.84" stroke="#BFBFBF" stroke-width="5.5"/>
     <path fill="#BFBFBF" d="M46.129,20.557v13.085h-3.656v15.542h-9.944V33.643h-3.656V20.557 c0-0.572,0.2-1.057,0.599-1.457c0.401-0.399,0.887-0.6,1.457-0.6h13.144c0.533,0,1.01,0.2,1.428,0.6 C45.918,19.5,46.129,19.986,46.129,20.557z
              M33.042,12.329c0-3.008,1.485-4.514,4.458-4.514s4.457,1.504,4.457,4.514 c0,2.971-1.486,4.457-4.457,4.457S33.042,15.3,33.042,12.329z"/>
  </g></g>
</g>
</g>
</svg>
