<svg version="1.1" xmlns="http://www.w3.org/2000/svg" xmlns:xlink="http://www.w3.org/1999/xlink" width="100%" height="100%" viewBox="0 0 1200.000 674.916">
<title>Annual Fossil CO2 Emissions in Nigeria</title>
<style type="text/css">
  #main {font-family:Helvetica,Arial,sans-serif; font-size:27.00px;
         fill-opacity:1; fill:#000000; stroke:none; stroke-linejoin:round; stroke-linecap:round; stroke-width:1.00;}
  .marker {stroke-opacity:0;fill-opacity:0;}
  .marker:hover {stroke-opacity:0.5; fill-opacity:1;}
  .ticklabel {font-size:27.00px;fill:#808080;stroke:none;font-family:Helvetica}
  .ytl {text-anchor:end;}
  .dp1 {pointer-events:none;font-size:70%;text-anchor:middle;fill:#000000;}
  .dp2 {pointer-events:none;font-size:70%;text-anchor:middle;fill:#FFFFFF;}
  .numtip {pointer-events:none;}
  .cc {opacity:0.25;}
.dl_fe {background-color:#FDFFDF;display:flex;margin:auto;align-items:center}
.dl_fe_p {font-size:20px;text-align:center;margin:3px}
.dl_el {display:none;pointer-events:none;}
.cc:hover + .dl_el {display:block;}
text:hover + .dl_el {display:block;}
</style>
<defs>
  <clipPath id="axis_clip"><rect x="145.8" y="54.2" width="761.2" height="532.8" /></clipPath>
  <path id="line_x" d="M 145.600,0 h 761.600" stroke="#262626" stroke-opacity="0.15" stroke-width="1.00"/>
  <path id="tick_y" d="M 145.600,0 h -6.000" stroke="#808080" stroke-width="0.90"/>
  <path id="tick_x" d="M 0,587.177 v 6.000" stroke="#808080" stroke-width="0.90"/>
</defs>
<g id="main">
<use xlink:href="#line_x" transform="translate(0,587.2)"/>
<use xlink:href="#line_x" transform="translate(0,453.9)"/>
<use xlink:href="#line_x" transform="translate(0,320.6)"/>
<use xlink:href="#line_x" transform="translate(0,187.3)"/>
<use xlink:href="#line_x" transform="translate(0,54.0)"/>
<use xlink:href="#tick_y" transform="translate(0,587.2)"/>
<use xlink:href="#tick_y" transform="translate(0,453.9)"/>
<use xlink:href="#tick_y" transform="translate(0,320.6)"/>
<use xlink:href="#tick_y" transform="translate(0,187.3)"/>
<use xlink:href="#tick_y" transform="translate(0,54.0)"/>
<use xlink:href="#tick_x" transform="translate(162.5,0)"/>
<use xlink:href="#tick_x" transform="translate(275.4,0)"/>
<use xlink:href="#tick_x" transform="translate(388.2,0)"/>
<use xlink:href="#tick_x" transform="translate(501.0,0)"/>
<use xlink:href="#tick_x" transform="translate(613.8,0)"/>
<use xlink:href="#tick_x" transform="translate(726.7,0)"/>
<use xlink:href="#tick_x" transform="translate(862.1,0)"/>
<polyline points="145.6,53.993 145.6,587.177 907.2,587.177" stroke="#808080" stroke-width="0.90" fill="none"/>
<text class="ticklabel xtl" transform="translate(162.5,629.0)" text-anchor="middle">1960</text>
<text class="ticklabel xtl" transform="translate(275.4,629.0)" text-anchor="middle">1970</text>
<text class="ticklabel xtl" transform="translate(388.2,629.0)" text-anchor="middle">1980</text>
<text class="ticklabel xtl" transform="translate(501.0,629.0)" text-anchor="middle">1990</text>
<text class="ticklabel xtl" transform="translate(613.8,629.0)" text-anchor="middle">2000</text>
<text class="ticklabel xtl" transform="translate(726.7,629.0)" text-anchor="middle">2010</text>
<text class="ticklabel xtl" transform="translate(862.1,629.0)" text-anchor="middle">2022</text>
<text class="ticklabel ytl" transform="translate(128.8,595.3)">0</text>
<text class="ticklabel ytl" transform="translate(128.8,462.0)">20</text>
<text class="ticklabel ytl" transform="translate(128.8,328.7)">40</text>
<text class="ticklabel ytl" transform="translate(128.8,195.4)">60</text>
<text class="ticklabel ytl" transform="translate(128.8,62.1)">80 Mt</text>
<polyline class="pl" points="140.0,572.3 151.2,575.2 162.5,577.5 173.8,577.3 185.1,576.5 196.4,577.7 207.7,575.7 218.9,574.7 230.2,575.9 241.5,582.2 252.8,587.1 264.1,586.8 275.4,586.0 286.6,583.5 297.9,581.5 309.2,581.8 320.5,582.0 331.8,583.2 343.1,582.1 354.3,582.5 365.6,583.6 376.9,584.1 388.2,584.0 399.5,585.3 410.7,586.1 422.0,586.2 433.3,585.8 444.6,584.7 455.9,585.2 467.2,585.8 478.4,586.1 489.7,586.2 501.0,586.1 512.3,585.9 523.6,586.2 534.9,587.0 546.1,586.7 557.4,586.8 568.7,587.0 580.0,587.0 591.3,587.0 602.6,586.9 613.8,587.1 625.1,587.1 636.4,586.4 647.7,586.8 659.0,587.0 670.3,587.0 681.5,587.0 692.8,586.8 704.1,586.6 715.4,586.6 726.7,586.5 738.0,586.6 749.2,586.3 760.5,586.4 771.8,586.4 783.1,586.3 794.4,586.2 805.7,586.3 816.9,586.3 828.2,586.2 839.5,586.4 850.8,586.4 862.1,586.4" stroke="#7B553E" stroke-width="5.40" stroke-opacity="1.00" fill="none" clip-path="url(#axis_clip)"/>
<g class="pl" fill="#FFF" stroke="#7B553E" stroke-width="0.900" clip-path="url(#axis_clip)">
  <circle cx="151.2" cy="575.2" r="2.2"/>
  <circle cx="173.8" cy="577.3" r="2.2"/>
  <circle cx="185.1" cy="576.5" r="2.2"/>
  <circle cx="196.4" cy="577.7" r="2.2"/>
  <circle cx="207.7" cy="575.7" r="2.2"/>
  <circle cx="218.9" cy="574.7" r="2.2"/>
  <circle cx="230.2" cy="575.9" r="2.2"/>
  <circle cx="241.5" cy="582.2" r="2.2"/>
  <circle cx="252.8" cy="587.1" r="2.2"/>
  <circle cx="264.1" cy="586.8" r="2.2"/>
  <circle cx="286.6" cy="583.5" r="2.2"/>
  <circle cx="297.9" cy="581.5" r="2.2"/>
  <circle cx="309.2" cy="581.8" r="2.2"/>
  <circle cx="320.5" cy="582.0" r="2.2"/>
  <circle cx="331.8" cy="583.2" r="2.2"/>
  <circle cx="343.1" cy="582.1" r="2.2"/>
  <circle cx="354.3" cy="582.5" r="2.2"/>
  <circle cx="365.6" cy="583.6" r="2.2"/>
  <circle cx="376.9" cy="584.1" r="2.2"/>
  <circle cx="399.5" cy="585.3" r="2.2"/>
  <circle cx="410.7" cy="586.1" r="2.2"/>
  <circle cx="422.0" cy="586.2" r="2.2"/>
  <circle cx="433.3" cy="585.8" r="2.2"/>
  <circle cx="444.6" cy="584.7" r="2.2"/>
  <circle cx="455.9" cy="585.2" r="2.2"/>
  <circle cx="467.2" cy="585.8" r="2.2"/>
  <circle cx="478.4" cy="586.1" r="2.2"/>
  <circle cx="489.7" cy="586.2" r="2.2"/>
  <circle cx="512.3" cy="585.9" r="2.2"/>
  <circle cx="523.6" cy="586.2" r="2.2"/>
  <circle cx="534.9" cy="587.0" r="2.2"/>
  <circle cx="546.1" cy="586.7" r="2.2"/>
  <circle cx="557.4" cy="586.8" r="2.2"/>
  <circle cx="568.7" cy="587.0" r="2.2"/>
  <circle cx="580.0" cy="587.0" r="2.2"/>
  <circle cx="591.3" cy="587.0" r="2.2"/>
  <circle cx="602.6" cy="586.9" r="2.2"/>
  <circle cx="625.1" cy="587.1" r="2.2"/>
  <circle cx="636.4" cy="586.4" r="2.2"/>
  <circle cx="647.7" cy="586.8" r="2.2"/>
  <circle cx="659.0" cy="587.0" r="2.2"/>
  <circle cx="670.3" cy="587.0" r="2.2"/>
  <circle cx="681.5" cy="587.0" r="2.2"/>
  <circle cx="692.8" cy="586.8" r="2.2"/>
  <circle cx="704.1" cy="586.6" r="2.2"/>
  <circle cx="715.4" cy="586.6" r="2.2"/>
  <circle cx="738.0" cy="586.6" r="2.2"/>
  <circle cx="749.2" cy="586.3" r="2.2"/>
  <circle cx="760.5" cy="586.4" r="2.2"/>
  <circle cx="771.8" cy="586.4" r="2.2"/>
  <circle cx="783.1" cy="586.3" r="2.2"/>
  <circle cx="794.4" cy="586.2" r="2.2"/>
  <circle cx="805.7" cy="586.3" r="2.2"/>
  <circle cx="816.9" cy="586.3" r="2.2"/>
  <circle cx="828.2" cy="586.2" r="2.2"/>
  <circle cx="850.8" cy="586.4" r="2.2"/>
  <circle cx="862.1" cy="586.4" r="2.2"/>
</g>
<g class="pl" fill="#FFF" stroke="#7B553E" stroke-width="0.900" clip-path="url(#axis_clip)">
  <circle cx="162.5" cy="577.5" r="5.4"/>
  <circle cx="275.4" cy="586.0" r="5.4"/>
  <circle cx="388.2" cy="584.0" r="5.4"/>
  <circle cx="501.0" cy="586.1" r="5.4"/>
  <circle cx="613.8" cy="587.1" r="5.4"/>
  <circle cx="726.7" cy="586.5" r="5.4"/>
  <circle cx="839.5" cy="586.4" r="5.4"/>
</g>
<polyline class="pl" points="140.0,577.6 151.2,575.8 162.5,574.7 173.8,570.8 185.1,571.6 196.4,570.8 207.7,565.6 218.9,558.8 230.2,552.7 241.5,543.0 252.8,563.7 264.1,562.2 275.4,550.6 286.6,544.5 297.9,540.3 309.2,530.0 320.5,522.8 331.8,523.1 343.1,511.9 354.3,528.3 365.6,526.3 376.9,495.8 388.2,446.7 399.5,420.8 410.7,393.2 422.0,390.9 433.3,335.7 444.6,350.6 455.9,333.1 467.2,407.8 478.4,365.9 489.7,370.1 501.0,388.7 512.3,379.3 523.6,353.2 534.9,367.2 546.1,430.4 557.4,439.0 568.7,417.0 580.0,391.9 591.3,416.6 602.6,407.7 613.8,377.0 625.1,339.2 636.4,336.8 647.7,359.2 659.0,381.6 670.3,322.0 681.5,374.0 692.8,405.5 704.1,363.9 715.4,405.5 726.7,195.7 738.0,124.4 749.2,214.9 760.5,172.3 771.8,143.3 783.1,226.5 794.4,183.7 805.7,197.5 816.9,264.4 828.2,130.1 839.5,155.2 850.8,119.9 862.1,111.6" stroke="#404040" stroke-width="5.40" stroke-opacity="1.00" fill="none" clip-path="url(#axis_clip)"/>
<g class="pl" fill="#FFF" stroke="#404040" stroke-width="0.900" clip-path="url(#axis_clip)">
  <circle cx="151.2" cy="575.8" r="2.2"/>
  <circle cx="173.8" cy="570.8" r="2.2"/>
  <circle cx="185.1" cy="571.6" r="2.2"/>
  <circle cx="196.4" cy="570.8" r="2.2"/>
  <circle cx="207.7" cy="565.6" r="2.2"/>
  <circle cx="218.9" cy="558.8" r="2.2"/>
  <circle cx="230.2" cy="552.7" r="2.2"/>
  <circle cx="241.5" cy="543.0" r="2.2"/>
  <circle cx="252.8" cy="563.7" r="2.2"/>
  <circle cx="264.1" cy="562.2" r="2.2"/>
  <circle cx="286.6" cy="544.5" r="2.2"/>
  <circle cx="297.9" cy="540.3" r="2.2"/>
  <circle cx="309.2" cy="530.0" r="2.2"/>
  <circle cx="320.5" cy="522.8" r="2.2"/>
  <circle cx="331.8" cy="523.1" r="2.2"/>
  <circle cx="343.1" cy="511.9" r="2.2"/>
  <circle cx="354.3" cy="528.3" r="2.2"/>
  <circle cx="365.6" cy="526.3" r="2.2"/>
  <circle cx="376.9" cy="495.8" r="2.2"/>
  <circle cx="399.5" cy="420.8" r="2.2"/>
  <circle cx="410.7" cy="393.2" r="2.2"/>
  <circle cx="422.0" cy="390.9" r="2.2"/>
  <circle cx="433.3" cy="335.7" r="2.2"/>
  <circle cx="444.6" cy="350.6" r="2.2"/>
  <circle cx="455.9" cy="333.1" r="2.2"/>
  <circle cx="467.2" cy="407.8" r="2.2"/>
  <circle cx="478.4" cy="365.9" r="2.2"/>
  <circle cx="489.7" cy="370.1" r="2.2"/>
  <circle cx="512.3" cy="379.3" r="2.2"/>
  <circle cx="523.6" cy="353.2" r="2.2"/>
  <circle cx="534.9" cy="367.2" r="2.2"/>
  <circle cx="546.1" cy="430.4" r="2.2"/>
  <circle cx="557.4" cy="439.0" r="2.2"/>
  <circle cx="568.7" cy="417.0" r="2.2"/>
  <circle cx="580.0" cy="391.9" r="2.2"/>
  <circle cx="591.3" cy="416.6" r="2.2"/>
  <circle cx="602.6" cy="407.7" r="2.2"/>
  <circle cx="625.1" cy="339.2" r="2.2"/>
  <circle cx="636.4" cy="336.8" r="2.2"/>
  <circle cx="647.7" cy="359.2" r="2.2"/>
  <circle cx="659.0" cy="381.6" r="2.2"/>
  <circle cx="670.3" cy="322.0" r="2.2"/>
  <circle cx="681.5" cy="374.0" r="2.2"/>
  <circle cx="692.8" cy="405.5" r="2.2"/>
  <circle cx="704.1" cy="363.9" r="2.2"/>
  <circle cx="715.4" cy="405.5" r="2.2"/>
  <circle cx="738.0" cy="124.4" r="2.2"/>
  <circle cx="749.2" cy="214.9" r="2.2"/>
  <circle cx="760.5" cy="172.3" r="2.2"/>
  <circle cx="771.8" cy="143.3" r="2.2"/>
  <circle cx="783.1" cy="226.5" r="2.2"/>
  <circle cx="794.4" cy="183.7" r="2.2"/>
  <circle cx="805.7" cy="197.5" r="2.2"/>
  <circle cx="816.9" cy="264.4" r="2.2"/>
  <circle cx="828.2" cy="130.1" r="2.2"/>
  <circle cx="850.8" cy="119.9" r="2.2"/>
  <circle cx="862.1" cy="111.6" r="2.2"/>
</g>
<g class="pl" fill="#FFF" stroke="#404040" stroke-width="0.900" clip-path="url(#axis_clip)">
  <circle cx="162.5" cy="574.7" r="5.4"/>
  <circle cx="275.4" cy="550.6" r="5.4"/>
  <circle cx="388.2" cy="446.7" r="5.4"/>
  <circle cx="501.0" cy="388.7" r="5.4"/>
  <circle cx="613.8" cy="377.0" r="5.4"/>
  <circle cx="726.7" cy="195.7" r="5.4"/>
  <circle cx="839.5" cy="155.2" r="5.4"/>
</g>
<polyline class="pl" points="140.0,587.2 151.2,587.2 162.5,587.2 173.8,587.2 185.1,587.2 196.4,586.8 207.7,586.5 218.9,585.9 230.2,584.9 241.5,584.9 252.8,585.3 264.1,586.4 275.4,585.8 286.6,584.8 297.9,583.7 309.2,583.3 320.5,582.0 331.8,582.0 343.1,579.1 354.3,540.1 365.6,554.0 376.9,570.4 388.2,570.2 399.5,521.6 410.7,521.6 422.0,557.8 433.3,560.9 444.6,551.4 455.9,545.0 467.2,542.5 478.4,538.9 489.7,534.2 501.0,537.3 512.3,526.4 523.6,523.3 534.9,517.3 546.1,518.7 557.4,520.1 568.7,519.2 580.0,516.1 591.3,513.7 602.6,509.8 613.8,499.3 625.1,509.8 636.4,507.9 647.7,453.2 659.0,450.5 670.3,449.7 681.5,443.1 692.8,439.0 704.1,449.5 715.4,466.9 726.7,452.6 738.0,400.5 749.2,394.7 760.5,396.4 771.8,369.4 783.1,370.9 794.4,357.7 805.7,371.1 816.9,358.3 828.2,353.2 839.5,352.0 850.8,339.3 862.1,346.9" stroke="#6298C6" stroke-width="5.40" stroke-opacity="1.00" fill="none" clip-path="url(#axis_clip)"/>
<g class="pl" fill="#FFF" stroke="#6298C6" stroke-width="0.900" clip-path="url(#axis_clip)">
  <circle cx="151.2" cy="587.2" r="2.2"/>
  <circle cx="173.8" cy="587.2" r="2.2"/>
  <circle cx="185.1" cy="587.2" r="2.2"/>
  <circle cx="196.4" cy="586.8" r="2.2"/>
  <circle cx="207.7" cy="586.5" r="2.2"/>
  <circle cx="218.9" cy="585.9" r="2.2"/>
  <circle cx="230.2" cy="584.9" r="2.2"/>
  <circle cx="241.5" cy="584.9" r="2.2"/>
  <circle cx="252.8" cy="585.3" r="2.2"/>
  <circle cx="264.1" cy="586.4" r="2.2"/>
  <circle cx="286.6" cy="584.8" r="2.2"/>
  <circle cx="297.9" cy="583.7" r="2.2"/>
  <circle cx="309.2" cy="583.3" r="2.2"/>
  <circle cx="320.5" cy="582.0" r="2.2"/>
  <circle cx="331.8" cy="582.0" r="2.2"/>
  <circle cx="343.1" cy="579.1" r="2.2"/>
  <circle cx="354.3" cy="540.1" r="2.2"/>
  <circle cx="365.6" cy="554.0" r="2.2"/>
  <circle cx="376.9" cy="570.4" r="2.2"/>
  <circle cx="399.5" cy="521.6" r="2.2"/>
  <circle cx="410.7" cy="521.6" r="2.2"/>
  <circle cx="422.0" cy="557.8" r="2.2"/>
  <circle cx="433.3" cy="560.9" r="2.2"/>
  <circle cx="444.6" cy="551.4" r="2.2"/>
  <circle cx="455.9" cy="545.0" r="2.2"/>
  <circle cx="467.2" cy="542.5" r="2.2"/>
  <circle cx="478.4" cy="538.9" r="2.2"/>
  <circle cx="489.7" cy="534.2" r="2.2"/>
  <circle cx="512.3" cy="526.4" r="2.2"/>
  <circle cx="523.6" cy="523.3" r="2.2"/>
  <circle cx="534.9" cy="517.3" r="2.2"/>
  <circle cx="546.1" cy="518.7" r="2.2"/>
  <circle cx="557.4" cy="520.1" r="2.2"/>
  <circle cx="568.7" cy="519.2" r="2.2"/>
  <circle cx="580.0" cy="516.1" r="2.2"/>
  <circle cx="591.3" cy="513.7" r="2.2"/>
  <circle cx="602.6" cy="509.8" r="2.2"/>
  <circle cx="625.1" cy="509.8" r="2.2"/>
  <circle cx="636.4" cy="507.9" r="2.2"/>
  <circle cx="647.7" cy="453.2" r="2.2"/>
  <circle cx="659.0" cy="450.5" r="2.2"/>
  <circle cx="670.3" cy="449.7" r="2.2"/>
  <circle cx="681.5" cy="443.1" r="2.2"/>
  <circle cx="692.8" cy="439.0" r="2.2"/>
  <circle cx="704.1" cy="449.5" r="2.2"/>
  <circle cx="715.4" cy="466.9" r="2.2"/>
  <circle cx="738.0" cy="400.5" r="2.2"/>
  <circle cx="749.2" cy="394.7" r="2.2"/>
  <circle cx="760.5" cy="396.4" r="2.2"/>
  <circle cx="771.8" cy="369.4" r="2.2"/>
  <circle cx="783.1" cy="370.9" r="2.2"/>
  <circle cx="794.4" cy="357.7" r="2.2"/>
  <circle cx="805.7" cy="371.1" r="2.2"/>
  <circle cx="816.9" cy="358.3" r="2.2"/>
  <circle cx="828.2" cy="353.2" r="2.2"/>
  <circle cx="850.8" cy="339.3" r="2.2"/>
  <circle cx="862.1" cy="346.9" r="2.2"/>
</g>
<g class="pl" fill="#FFF" stroke="#6298C6" stroke-width="0.900" clip-path="url(#axis_clip)">
  <circle cx="162.5" cy="587.2" r="5.4"/>
  <circle cx="275.4" cy="585.8" r="5.4"/>
  <circle cx="388.2" cy="570.2" r="5.4"/>
  <circle cx="501.0" cy="537.3" r="5.4"/>
  <circle cx="613.8" cy="499.3" r="5.4"/>
  <circle cx="726.7" cy="452.6" r="5.4"/>
  <circle cx="839.5" cy="352.0" r="5.4"/>
</g>
<polyline class="pl" points="140.0,586.8 151.2,586.8 162.5,586.6 173.8,586.0 185.1,585.6 196.4,585.4 207.7,585.0 218.9,583.9 230.2,583.9 241.5,584.6 252.8,585.3 264.1,585.3 275.4,585.2 286.6,585.0 297.9,583.4 309.2,583.2 320.5,583.2 331.8,582.7 343.1,583.0 354.3,582.5 365.6,582.3 376.9,581.7 388.2,581.0 399.5,579.5 410.7,576.2 422.0,576.4 433.3,578.3 444.6,577.4 455.9,576.0 467.2,576.4 478.4,577.3 489.7,577.5 501.0,577.6 512.3,577.6 523.6,577.6 534.9,578.5 546.1,580.0 557.4,580.1 568.7,580.3 580.0,580.4 591.3,579.9 602.6,580.4 613.8,580.4 625.1,580.7 636.4,581.6 647.7,581.1 659.0,581.1 670.3,580.0 681.5,578.5 692.8,575.0 704.1,561.5 715.4,561.5 726.7,561.5 738.0,556.6 749.2,546.4 760.5,535.3 771.8,535.5 783.1,532.9 794.4,530.4 805.7,538.1 816.9,530.4 828.2,527.8 839.5,520.0 850.8,512.3 862.1,512.3" stroke="#666" stroke-width="5.40" stroke-opacity="1.00" fill="none" clip-path="url(#axis_clip)"/>
<g class="pl" fill="#FFF" stroke="#666" stroke-width="0.900" clip-path="url(#axis_clip)">
  <circle cx="151.2" cy="586.8" r="2.2"/>
  <circle cx="173.8" cy="586.0" r="2.2"/>
  <circle cx="185.1" cy="585.6" r="2.2"/>
  <circle cx="196.4" cy="585.4" r="2.2"/>
  <circle cx="207.7" cy="585.0" r="2.2"/>
  <circle cx="218.9" cy="583.9" r="2.2"/>
  <circle cx="230.2" cy="583.9" r="2.2"/>
  <circle cx="241.5" cy="584.6" r="2.2"/>
  <circle cx="252.8" cy="585.3" r="2.2"/>
  <circle cx="264.1" cy="585.3" r="2.2"/>
  <circle cx="286.6" cy="585.0" r="2.2"/>
  <circle cx="297.9" cy="583.4" r="2.2"/>
  <circle cx="309.2" cy="583.2" r="2.2"/>
  <circle cx="320.5" cy="583.2" r="2.2"/>
  <circle cx="331.8" cy="582.7" r="2.2"/>
  <circle cx="343.1" cy="583.0" r="2.2"/>
  <circle cx="354.3" cy="582.5" r="2.2"/>
  <circle cx="365.6" cy="582.3" r="2.2"/>
  <circle cx="376.9" cy="581.7" r="2.2"/>
  <circle cx="399.5" cy="579.5" r="2.2"/>
  <circle cx="410.7" cy="576.2" r="2.2"/>
  <circle cx="422.0" cy="576.4" r="2.2"/>
  <circle cx="433.3" cy="578.3" r="2.2"/>
  <circle cx="444.6" cy="577.4" r="2.2"/>
  <circle cx="455.9" cy="576.0" r="2.2"/>
  <circle cx="467.2" cy="576.4" r="2.2"/>
  <circle cx="478.4" cy="577.3" r="2.2"/>
  <circle cx="489.7" cy="577.5" r="2.2"/>
  <circle cx="512.3" cy="577.6" r="2.2"/>
  <circle cx="523.6" cy="577.6" r="2.2"/>
  <circle cx="534.9" cy="578.5" r="2.2"/>
  <circle cx="546.1" cy="580.0" r="2.2"/>
  <circle cx="557.4" cy="580.1" r="2.2"/>
  <circle cx="568.7" cy="580.3" r="2.2"/>
  <circle cx="580.0" cy="580.4" r="2.2"/>
  <circle cx="591.3" cy="579.9" r="2.2"/>
  <circle cx="602.6" cy="580.4" r="2.2"/>
  <circle cx="625.1" cy="580.7" r="2.2"/>
  <circle cx="636.4" cy="581.6" r="2.2"/>
  <circle cx="647.7" cy="581.1" r="2.2"/>
  <circle cx="659.0" cy="581.1" r="2.2"/>
  <circle cx="670.3" cy="580.0" r="2.2"/>
  <circle cx="681.5" cy="578.5" r="2.2"/>
  <circle cx="692.8" cy="575.0" r="2.2"/>
  <circle cx="704.1" cy="561.5" r="2.2"/>
  <circle cx="715.4" cy="561.5" r="2.2"/>
  <circle cx="738.0" cy="556.6" r="2.2"/>
  <circle cx="749.2" cy="546.4" r="2.2"/>
  <circle cx="760.5" cy="535.3" r="2.2"/>
  <circle cx="771.8" cy="535.5" r="2.2"/>
  <circle cx="783.1" cy="532.9" r="2.2"/>
  <circle cx="794.4" cy="530.4" r="2.2"/>
  <circle cx="805.7" cy="538.1" r="2.2"/>
  <circle cx="816.9" cy="530.4" r="2.2"/>
  <circle cx="828.2" cy="527.8" r="2.2"/>
  <circle cx="850.8" cy="512.3" r="2.2"/>
  <circle cx="862.1" cy="512.3" r="2.2"/>
</g>
<g class="pl" fill="#FFF" stroke="#666" stroke-width="0.900" clip-path="url(#axis_clip)">
  <circle cx="162.5" cy="586.6" r="5.4"/>
  <circle cx="275.4" cy="585.2" r="5.4"/>
  <circle cx="388.2" cy="581.0" r="5.4"/>
  <circle cx="501.0" cy="577.6" r="5.4"/>
  <circle cx="613.8" cy="580.4" r="5.4"/>
  <circle cx="726.7" cy="561.5" r="5.4"/>
  <circle cx="839.5" cy="520.0" r="5.4"/>
</g>
<text transform="translate(925.2,586.4)" dy="8.1" font-size="27.00" fill="#7B553E" stroke="none">Coal 0.1</text>
<text transform="translate(925.2,111.6)" dy="8.1" font-size="27.00" fill="#404040" stroke="none">Oil 71.4</text>
<text transform="translate(925.2,346.9)" dy="8.1" font-size="27.00" fill="#6298C6" stroke="none">Gas 36.1</text>
<text transform="translate(925.2,512.3)" dy="8.1" font-size="27.00" fill="#666" stroke="none">Cement 11.2</text>
<text transform="translate(925.2,88.6)" dy="0.0" font-size="19.80" fill="#404040" stroke="none">Mt CO<tspan dy="0.2em"><tspan style="font-size:70%">2</tspan></tspan><tspan dy="-0.2em"> </tspan>in 2022</text>
<g stroke="none" stroke-width="0.9000"  >
  <polygon points="1036.2,585.1 1055.4,585.1 1055.4,587.8 1036.2,587.8" fill="#7B553E"/>
</g>
<text transform="translate(1060.2,587.1)" dy="5.4" font-size="18.00" fill="#7B553E" stroke="none">nc</text>
<g stroke="none" stroke-width="0.9000"  >
  <polygon points="1028.7,118.3 1038.3,104.8 1047.9,118.3 1028.7,118.3" fill="#404040"/>
</g>
<text transform="translate(1052.7,113.6)" dy="5.4" font-size="18.00" fill="#404040" stroke="none">1.8%</text>
<g stroke="none" stroke-width="0.9000"  >
  <polygon points="1044.8,340.2 1054.4,353.7 1064.0,340.2 1044.8,340.2" fill="#6298C6"/>
</g>
<text transform="translate(1068.8,348.9)" dy="5.4" font-size="18.00" fill="#6298C6" stroke="none">3.1%</text>
<g stroke="none" stroke-width="0.9000"  >
  <polygon points="1090.1,510.9 1109.3,510.9 1109.3,513.6 1090.1,513.6" fill="#666"/>
</g>
<text transform="translate(1114.1,513.0)" dy="5.4" font-size="18.00" fill="#666" stroke="none">nc</text>
<text transform="translate(145.6,47.2)" dy="0.0" font-size="27.00" fill="#808080" stroke="none">Annual Fossil CO<tspan dy="0.2em"><tspan style="font-size:70%">2</tspan></tspan><tspan dy="-0.2em"> </tspan>Emissions in Nigeria</text>
<text transform="translate(130.0,81.6)" dy="8.1" font-size="27.00" fill="#808080" stroke="none" text-anchor="end">CO<tspan dy="0.2em"><tspan style="font-size:70%">2</tspan></tspan><tspan dy="-0.2em"></tspan></text>
<text transform="translate(157.6,60.7)" dy="18.0" font-size="18.00" fill="#808080" stroke="none">Total emissions growth in 2022: -1.8%</text>
<text transform="translate(160.2,666.1)" font-size="19.80" font-family="Helvetica" fill="#BFBFBF" stroke="none" xml:space="preserve">Global Carbon Project</text>
<g>
  <rect x="123.0" y="651.4" width="34" height="17" fill="#FFF" stroke="none"/>
  <g transform="translate(124.0,652.4) scale(0.24)">
  <g><circle fill="#FFF" cx="37.79" cy="28.5" r="28.84"/>
     <circle fill="none" cx="37.79" cy="28.5" r="28.84" stroke="#BFBFBF" stroke-width="5.5"/>
     <path fill="#BFBFBF" d="M37.16,23.19 l-4.29,2.23c-0.458-0.951-1.02-1.62-1.69-2c-0.667-0.38-1.29-0.571-1.86-0.571c-2.86,0-4.29,1.89-4.29,5.66 c0,1.71,0.36,3.08,1.09,4.11c0.724,1.03,1.79,1.54,3.2,1.54c1.87,0,3.18-0.915,3.94-2.74l3.94,2 c-0.838,1.56-2,2.79-3.49,3.69c-1.48,0.896-3.12,1.34-4.91,1.34c-2.86,0-5.16-0.875-6.92-2.63 c-1.75-1.75-2.63-4.19-2.63-7.31c0-3.05,0.886-5.47,2.66-7.26c1.77-1.79,4.01-2.69,6.72-2.69 C32.6,18.56,35.44,20.1,37.16,23.19z
              M55.61,23.19l-4.23,2.23c-0.457-0.951-1.02-1.62-1.69-2 c-0.668-0.38-1.31-0.571-1.91-0.571c-2.86,0-4.29,1.89-4.29,5.66c0,1.71,0.363,3.08,1.09,4.11 c0.723,1.03,1.79,1.54,3.2,1.54c1.87,0,3.18-0.915,3.94-2.74l4,2c-0.875,1.56-2.06,2.79-3.54,3.69 c-1.49,0.9-3.11,1.34-4.86,1.34c-2.9,0-5.21-0.875-6.94-2.63c-1.74-1.75-2.6-4.19-2.6-7.31 c0-3.05,0.885-5.47,2.66-7.26c1.77-1.79,4.01-2.69,6.71-2.69C51.12,18.56,53.944,20.1,55.61,23.19z"/>
  </g></g>
  <g transform="translate(140.2,652.4) scale(0.24)">
  <g><circle fill="#FFF" cx="37.79" cy="28.5" r="28.84"/>
     <circle fill="none" cx="37.79" cy="28.5" r="28.84" stroke="#BFBFBF" stroke-width="5.5"/>
     <path fill="#BFBFBF" d="M46.129,20.557v13.085h-3.656v15.542h-9.944V33.643h-3.656V20.557 c0-0.572,0.2-1.057,0.599-1.457c0.401-0.399,0.887-0.6,1.457-0.6h13.144c0.533,0,1.01,0.2,1.428,0.6 C45.918,19.5,46.129,19.986,46.129,20.557z
              M33.042,12.329c0-3.008,1.485-4.514,4.458-4.514s4.457,1.504,4.457,4.514 c0,2.971-1.486,4.457-4.457,4.457S33.042,15.3,33.042,12.329z"/>
  </g></g>
</g>
</g>
</svg>
