<svg version="1.1" xmlns="http://www.w3.org/2000/svg" xmlns:xlink="http://www.w3.org/1999/xlink" width="100%" height="100%" viewBox="0 0 1200.000 674.916">
<title>Annual Fossil CO2 Emissions in Argentina</title>
<style type="text/css">
  #main {font-family:Helvetica,Arial,sans-serif; font-size:27.00px;
         fill-opacity:1; fill:#000000; stroke:none; stroke-linejoin:round; stroke-linecap:round; stroke-width:1.00;}
  .marker {stroke-opacity:0;fill-opacity:0;}
  .marker:hover {stroke-opacity:0.5; fill-opacity:1;}
  .ticklabel {font-size:27.00px;fill:#808080;stroke:none;font-family:Helvetica}
  .ytl {text-anchor:end;}
  .dp1 {pointer-events:none;font-size:70%;text-anchor:middle;fill:#000000;}
  .dp2 {pointer-events:none;font-size:70%;text-anchor:middle;fill:#FFFFFF;}
  .numtip {pointer-events:none;}
  .cc {opacity:0.25;}
.dl_fe {background-color:#FDFFDF;display:flex;margin:auto;align-items:center}
.dl_fe_p {font-size:20px;text-align:center;margin:3px}
.dl_el {display:none;pointer-events:none;}
.cc:hover + .dl_el {display:block;}
text:hover + .dl_el {display:block;}
</style>
<defs>
  <clipPath id="axis_clip"><rect x="145.8" y="54.2" width="761.2" height="532.8" /></clipPath>
  <path id="line_x" d="M 145.600,0 h 761.600" stroke="#262626" stroke-opacity="0.15" stroke-width="1.00"/>
  <path id="tick_y" d="M 145.600,0 h -6.000" stroke="#808080" stroke-width="0.90"/>
  <path id="tick_x" d="M 0,587.177 v 6.000" stroke="#808080" stroke-width="0.90"/>
</defs>
<g id="main">
<use xlink:href="#line_x" transform="translate(0,587.2)"/>
<use xlink:href="#line_x" transform="translate(0,480.5)"/>
<use xlink:href="#line_x" transform="translate(0,373.9)"/>
<use xlink:href="#line_x" transform="translate(0,267.3)"/>
<use xlink:href="#line_x" transform="translate(0,160.6)"/>
<use xlink:href="#line_x" transform="translate(0,54.0)"/>
<use xlink:href="#tick_y" transform="translate(0,587.2)"/>
<use xlink:href="#tick_y" transform="translate(0,480.5)"/>
<use xlink:href="#tick_y" transform="translate(0,373.9)"/>
<use xlink:href="#tick_y" transform="translate(0,267.3)"/>
<use xlink:href="#tick_y" transform="translate(0,160.6)"/>
<use xlink:href="#tick_y" transform="translate(0,54.0)"/>
<use xlink:href="#tick_x" transform="translate(162.5,0)"/>
<use xlink:href="#tick_x" transform="translate(275.4,0)"/>
<use xlink:href="#tick_x" transform="translate(388.2,0)"/>
<use xlink:href="#tick_x" transform="translate(501.0,0)"/>
<use xlink:href="#tick_x" transform="translate(613.8,0)"/>
<use xlink:href="#tick_x" transform="translate(726.7,0)"/>
<use xlink:href="#tick_x" transform="translate(862.1,0)"/>
<polyline points="145.6,53.993 145.6,587.177 907.2,587.177" stroke="#808080" stroke-width="0.90" fill="none"/>
<text class="ticklabel xtl" transform="translate(162.5,629.0)" text-anchor="middle">1960</text>
<text class="ticklabel xtl" transform="translate(275.4,629.0)" text-anchor="middle">1970</text>
<text class="ticklabel xtl" transform="translate(388.2,629.0)" text-anchor="middle">1980</text>
<text class="ticklabel xtl" transform="translate(501.0,629.0)" text-anchor="middle">1990</text>
<text class="ticklabel xtl" transform="translate(613.8,629.0)" text-anchor="middle">2000</text>
<text class="ticklabel xtl" transform="translate(726.7,629.0)" text-anchor="middle">2010</text>
<text class="ticklabel xtl" transform="translate(862.1,629.0)" text-anchor="middle">2022</text>
<text class="ticklabel ytl" transform="translate(128.8,595.3)">0</text>
<text class="ticklabel ytl" transform="translate(128.8,488.6)">20</text>
<text class="ticklabel ytl" transform="translate(128.8,382.0)">40</text>
<text class="ticklabel ytl" transform="translate(128.8,275.4)">60</text>
<text class="ticklabel ytl" transform="translate(128.8,168.7)">80</text>
<text class="ticklabel ytl" transform="translate(128.8,62.1)">100 Mt</text>
<polyline class="pl" points="140.0,567.0 151.2,567.3 162.5,566.4 173.8,568.3 185.1,576.5 196.4,574.9 207.7,573.5 218.9,573.3 230.2,573.4 241.5,571.5 252.8,574.6 264.1,573.4 275.4,569.7 286.6,571.6 297.9,571.9 309.2,571.8 320.5,569.2 331.8,568.0 343.1,569.9 354.3,572.8 365.6,566.7 376.9,568.0 388.2,571.9 399.5,571.4 410.7,573.0 422.0,575.5 433.3,575.7 444.6,572.4 455.9,569.1 467.2,567.0 478.4,565.7 489.7,565.1 501.0,570.8 512.3,572.8 523.6,572.2 534.9,574.9 546.1,568.2 557.4,567.4 568.7,570.6 580.0,572.4 591.3,572.0 602.6,575.7 613.8,578.3 625.1,580.3 636.4,581.3 647.7,576.6 659.0,575.5 670.3,569.8 681.5,566.6 692.8,567.7 704.1,566.5 715.4,569.9 726.7,565.9 738.0,562.0 749.2,560.5 760.5,561.4 771.8,557.7 783.1,558.0 794.4,564.8 805.7,564.4 816.9,563.9 828.2,575.7 839.5,566.1 850.8,560.8 862.1,560.8" stroke="#7B553E" stroke-width="5.40" stroke-opacity="1.00" fill="none" clip-path="url(#axis_clip)"/>
<g class="pl" fill="#FFF" stroke="#7B553E" stroke-width="0.900" clip-path="url(#axis_clip)">
  <circle cx="151.2" cy="567.3" r="2.2"/>
  <circle cx="173.8" cy="568.3" r="2.2"/>
  <circle cx="185.1" cy="576.5" r="2.2"/>
  <circle cx="196.4" cy="574.9" r="2.2"/>
  <circle cx="207.7" cy="573.5" r="2.2"/>
  <circle cx="218.9" cy="573.3" r="2.2"/>
  <circle cx="230.2" cy="573.4" r="2.2"/>
  <circle cx="241.5" cy="571.5" r="2.2"/>
  <circle cx="252.8" cy="574.6" r="2.2"/>
  <circle cx="264.1" cy="573.4" r="2.2"/>
  <circle cx="286.6" cy="571.6" r="2.2"/>
  <circle cx="297.9" cy="571.9" r="2.2"/>
  <circle cx="309.2" cy="571.8" r="2.2"/>
  <circle cx="320.5" cy="569.2" r="2.2"/>
  <circle cx="331.8" cy="568.0" r="2.2"/>
  <circle cx="343.1" cy="569.9" r="2.2"/>
  <circle cx="354.3" cy="572.8" r="2.2"/>
  <circle cx="365.6" cy="566.7" r="2.2"/>
  <circle cx="376.9" cy="568.0" r="2.2"/>
  <circle cx="399.5" cy="571.4" r="2.2"/>
  <circle cx="410.7" cy="573.0" r="2.2"/>
  <circle cx="422.0" cy="575.5" r="2.2"/>
  <circle cx="433.3" cy="575.7" r="2.2"/>
  <circle cx="444.6" cy="572.4" r="2.2"/>
  <circle cx="455.9" cy="569.1" r="2.2"/>
  <circle cx="467.2" cy="567.0" r="2.2"/>
  <circle cx="478.4" cy="565.7" r="2.2"/>
  <circle cx="489.7" cy="565.1" r="2.2"/>
  <circle cx="512.3" cy="572.8" r="2.2"/>
  <circle cx="523.6" cy="572.2" r="2.2"/>
  <circle cx="534.9" cy="574.9" r="2.2"/>
  <circle cx="546.1" cy="568.2" r="2.2"/>
  <circle cx="557.4" cy="567.4" r="2.2"/>
  <circle cx="568.7" cy="570.6" r="2.2"/>
  <circle cx="580.0" cy="572.4" r="2.2"/>
  <circle cx="591.3" cy="572.0" r="2.2"/>
  <circle cx="602.6" cy="575.7" r="2.2"/>
  <circle cx="625.1" cy="580.3" r="2.2"/>
  <circle cx="636.4" cy="581.3" r="2.2"/>
  <circle cx="647.7" cy="576.6" r="2.2"/>
  <circle cx="659.0" cy="575.5" r="2.2"/>
  <circle cx="670.3" cy="569.8" r="2.2"/>
  <circle cx="681.5" cy="566.6" r="2.2"/>
  <circle cx="692.8" cy="567.7" r="2.2"/>
  <circle cx="704.1" cy="566.5" r="2.2"/>
  <circle cx="715.4" cy="569.9" r="2.2"/>
  <circle cx="738.0" cy="562.0" r="2.2"/>
  <circle cx="749.2" cy="560.5" r="2.2"/>
  <circle cx="760.5" cy="561.4" r="2.2"/>
  <circle cx="771.8" cy="557.7" r="2.2"/>
  <circle cx="783.1" cy="558.0" r="2.2"/>
  <circle cx="794.4" cy="564.8" r="2.2"/>
  <circle cx="805.7" cy="564.4" r="2.2"/>
  <circle cx="816.9" cy="563.9" r="2.2"/>
  <circle cx="828.2" cy="575.7" r="2.2"/>
  <circle cx="850.8" cy="560.8" r="2.2"/>
  <circle cx="862.1" cy="560.8" r="2.2"/>
</g>
<g class="pl" fill="#FFF" stroke="#7B553E" stroke-width="0.900" clip-path="url(#axis_clip)">
  <circle cx="162.5" cy="566.4" r="5.4"/>
  <circle cx="275.4" cy="569.7" r="5.4"/>
  <circle cx="388.2" cy="571.9" r="5.4"/>
  <circle cx="501.0" cy="570.8" r="5.4"/>
  <circle cx="613.8" cy="578.3" r="5.4"/>
  <circle cx="726.7" cy="565.9" r="5.4"/>
  <circle cx="839.5" cy="566.1" r="5.4"/>
</g>
<polyline class="pl" points="140.0,386.1 151.2,360.2 162.5,367.6 173.8,362.6 185.1,346.8 196.4,370.5 207.7,346.1 218.9,334.9 230.2,328.2 241.5,321.8 252.8,306.9 264.1,264.2 275.4,246.3 286.6,217.6 297.9,217.7 309.2,207.5 320.5,206.2 331.8,219.7 343.1,204.0 354.3,199.5 365.6,198.5 376.9,165.6 388.2,179.2 399.5,213.6 410.7,219.1 422.0,221.0 433.3,228.7 444.6,264.9 455.9,255.5 467.2,232.9 478.4,234.0 489.7,268.6 501.0,271.6 512.3,260.7 523.6,247.9 534.9,229.1 546.1,228.9 557.4,252.1 568.7,235.7 580.0,230.6 591.3,216.2 602.6,199.4 613.8,227.6 625.1,244.1 636.4,280.6 647.7,270.7 659.0,225.6 670.3,204.4 681.5,150.4 692.8,171.6 704.1,114.5 715.4,147.9 726.7,106.5 738.0,123.8 749.2,130.8 760.5,120.7 771.8,137.7 783.1,123.6 794.4,136.3 805.7,156.1 816.9,190.5 828.2,188.1 839.5,222.8 850.8,135.2 862.1,116.9" stroke="#404040" stroke-width="5.40" stroke-opacity="1.00" fill="none" clip-path="url(#axis_clip)"/>
<g class="pl" fill="#FFF" stroke="#404040" stroke-width="0.900" clip-path="url(#axis_clip)">
  <circle cx="151.2" cy="360.2" r="2.2"/>
  <circle cx="173.8" cy="362.6" r="2.2"/>
  <circle cx="185.1" cy="346.8" r="2.2"/>
  <circle cx="196.4" cy="370.5" r="2.2"/>
  <circle cx="207.7" cy="346.1" r="2.2"/>
  <circle cx="218.9" cy="334.9" r="2.2"/>
  <circle cx="230.2" cy="328.2" r="2.2"/>
  <circle cx="241.5" cy="321.8" r="2.2"/>
  <circle cx="252.8" cy="306.9" r="2.2"/>
  <circle cx="264.1" cy="264.2" r="2.2"/>
  <circle cx="286.6" cy="217.6" r="2.2"/>
  <circle cx="297.9" cy="217.7" r="2.2"/>
  <circle cx="309.2" cy="207.5" r="2.2"/>
  <circle cx="320.5" cy="206.2" r="2.2"/>
  <circle cx="331.8" cy="219.7" r="2.2"/>
  <circle cx="343.1" cy="204.0" r="2.2"/>
  <circle cx="354.3" cy="199.5" r="2.2"/>
  <circle cx="365.6" cy="198.5" r="2.2"/>
  <circle cx="376.9" cy="165.6" r="2.2"/>
  <circle cx="399.5" cy="213.6" r="2.2"/>
  <circle cx="410.7" cy="219.1" r="2.2"/>
  <circle cx="422.0" cy="221.0" r="2.2"/>
  <circle cx="433.3" cy="228.7" r="2.2"/>
  <circle cx="444.6" cy="264.9" r="2.2"/>
  <circle cx="455.9" cy="255.5" r="2.2"/>
  <circle cx="467.2" cy="232.9" r="2.2"/>
  <circle cx="478.4" cy="234.0" r="2.2"/>
  <circle cx="489.7" cy="268.6" r="2.2"/>
  <circle cx="512.3" cy="260.7" r="2.2"/>
  <circle cx="523.6" cy="247.9" r="2.2"/>
  <circle cx="534.9" cy="229.1" r="2.2"/>
  <circle cx="546.1" cy="228.9" r="2.2"/>
  <circle cx="557.4" cy="252.1" r="2.2"/>
  <circle cx="568.7" cy="235.7" r="2.2"/>
  <circle cx="580.0" cy="230.6" r="2.2"/>
  <circle cx="591.3" cy="216.2" r="2.2"/>
  <circle cx="602.6" cy="199.4" r="2.2"/>
  <circle cx="625.1" cy="244.1" r="2.2"/>
  <circle cx="636.4" cy="280.6" r="2.2"/>
  <circle cx="647.7" cy="270.7" r="2.2"/>
  <circle cx="659.0" cy="225.6" r="2.2"/>
  <circle cx="670.3" cy="204.4" r="2.2"/>
  <circle cx="681.5" cy="150.4" r="2.2"/>
  <circle cx="692.8" cy="171.6" r="2.2"/>
  <circle cx="704.1" cy="114.5" r="2.2"/>
  <circle cx="715.4" cy="147.9" r="2.2"/>
  <circle cx="738.0" cy="123.8" r="2.2"/>
  <circle cx="749.2" cy="130.8" r="2.2"/>
  <circle cx="760.5" cy="120.7" r="2.2"/>
  <circle cx="771.8" cy="137.7" r="2.2"/>
  <circle cx="783.1" cy="123.6" r="2.2"/>
  <circle cx="794.4" cy="136.3" r="2.2"/>
  <circle cx="805.7" cy="156.1" r="2.2"/>
  <circle cx="816.9" cy="190.5" r="2.2"/>
  <circle cx="828.2" cy="188.1" r="2.2"/>
  <circle cx="850.8" cy="135.2" r="2.2"/>
  <circle cx="862.1" cy="116.9" r="2.2"/>
</g>
<g class="pl" fill="#FFF" stroke="#404040" stroke-width="0.900" clip-path="url(#axis_clip)">
  <circle cx="162.5" cy="367.6" r="5.4"/>
  <circle cx="275.4" cy="246.3" r="5.4"/>
  <circle cx="388.2" cy="179.2" r="5.4"/>
  <circle cx="501.0" cy="271.6" r="5.4"/>
  <circle cx="613.8" cy="227.6" r="5.4"/>
  <circle cx="726.7" cy="106.5" r="5.4"/>
  <circle cx="839.5" cy="222.8" r="5.4"/>
</g>
<polyline class="pl" points="140.0,579.3 151.2,579.3 162.5,574.6 173.8,565.7 185.1,559.9 196.4,556.1 207.7,552.7 218.9,548.5 230.2,545.3 241.5,543.4 252.8,538.4 264.1,538.6 275.4,532.4 286.6,528.4 297.9,520.7 309.2,511.5 320.5,507.6 331.8,503.3 343.1,499.4 354.3,497.0 365.6,499.6 376.9,491.1 388.2,482.9 399.5,478.0 410.7,463.2 422.0,447.1 433.3,441.6 444.6,433.6 455.9,422.1 467.2,391.5 478.4,362.0 489.7,349.3 501.0,356.8 512.3,335.1 523.6,329.6 534.9,369.6 546.1,359.6 557.4,303.5 568.7,280.4 580.0,259.2 591.3,258.7 602.6,226.6 613.8,216.9 625.1,241.6 636.4,253.3 647.7,218.9 659.0,145.1 670.3,150.1 681.5,140.0 692.8,122.4 704.1,106.7 715.4,118.0 726.7,123.7 738.0,93.5 749.2,78.6 760.5,100.2 771.8,92.1 783.1,88.5 794.4,73.7 805.7,73.0 816.9,74.7 828.2,77.4 839.5,112.2 850.8,91.2 862.1,94.2" stroke="#6298C6" stroke-width="5.40" stroke-opacity="1.00" fill="none" clip-path="url(#axis_clip)"/>
<g class="pl" fill="#FFF" stroke="#6298C6" stroke-width="0.900" clip-path="url(#axis_clip)">
  <circle cx="151.2" cy="579.3" r="2.2"/>
  <circle cx="173.8" cy="565.7" r="2.2"/>
  <circle cx="185.1" cy="559.9" r="2.2"/>
  <circle cx="196.4" cy="556.1" r="2.2"/>
  <circle cx="207.7" cy="552.7" r="2.2"/>
  <circle cx="218.9" cy="548.5" r="2.2"/>
  <circle cx="230.2" cy="545.3" r="2.2"/>
  <circle cx="241.5" cy="543.4" r="2.2"/>
  <circle cx="252.8" cy="538.4" r="2.2"/>
  <circle cx="264.1" cy="538.6" r="2.2"/>
  <circle cx="286.6" cy="528.4" r="2.2"/>
  <circle cx="297.9" cy="520.7" r="2.2"/>
  <circle cx="309.2" cy="511.5" r="2.2"/>
  <circle cx="320.5" cy="507.6" r="2.2"/>
  <circle cx="331.8" cy="503.3" r="2.2"/>
  <circle cx="343.1" cy="499.4" r="2.2"/>
  <circle cx="354.3" cy="497.0" r="2.2"/>
  <circle cx="365.6" cy="499.6" r="2.2"/>
  <circle cx="376.9" cy="491.1" r="2.2"/>
  <circle cx="399.5" cy="478.0" r="2.2"/>
  <circle cx="410.7" cy="463.2" r="2.2"/>
  <circle cx="422.0" cy="447.1" r="2.2"/>
  <circle cx="433.3" cy="441.6" r="2.2"/>
  <circle cx="444.6" cy="433.6" r="2.2"/>
  <circle cx="455.9" cy="422.1" r="2.2"/>
  <circle cx="467.2" cy="391.5" r="2.2"/>
  <circle cx="478.4" cy="362.0" r="2.2"/>
  <circle cx="489.7" cy="349.3" r="2.2"/>
  <circle cx="512.3" cy="335.1" r="2.2"/>
  <circle cx="523.6" cy="329.6" r="2.2"/>
  <circle cx="534.9" cy="369.6" r="2.2"/>
  <circle cx="546.1" cy="359.6" r="2.2"/>
  <circle cx="557.4" cy="303.5" r="2.2"/>
  <circle cx="568.7" cy="280.4" r="2.2"/>
  <circle cx="580.0" cy="259.2" r="2.2"/>
  <circle cx="591.3" cy="258.7" r="2.2"/>
  <circle cx="602.6" cy="226.6" r="2.2"/>
  <circle cx="625.1" cy="241.6" r="2.2"/>
  <circle cx="636.4" cy="253.3" r="2.2"/>
  <circle cx="647.7" cy="218.9" r="2.2"/>
  <circle cx="659.0" cy="145.1" r="2.2"/>
  <circle cx="670.3" cy="150.1" r="2.2"/>
  <circle cx="681.5" cy="140.0" r="2.2"/>
  <circle cx="692.8" cy="122.4" r="2.2"/>
  <circle cx="704.1" cy="106.7" r="2.2"/>
  <circle cx="715.4" cy="118.0" r="2.2"/>
  <circle cx="738.0" cy="93.5" r="2.2"/>
  <circle cx="749.2" cy="78.6" r="2.2"/>
  <circle cx="760.5" cy="100.2" r="2.2"/>
  <circle cx="771.8" cy="92.1" r="2.2"/>
  <circle cx="783.1" cy="88.5" r="2.2"/>
  <circle cx="794.4" cy="73.7" r="2.2"/>
  <circle cx="805.7" cy="73.0" r="2.2"/>
  <circle cx="816.9" cy="74.7" r="2.2"/>
  <circle cx="828.2" cy="77.4" r="2.2"/>
  <circle cx="850.8" cy="91.2" r="2.2"/>
  <circle cx="862.1" cy="94.2" r="2.2"/>
</g>
<g class="pl" fill="#FFF" stroke="#6298C6" stroke-width="0.900" clip-path="url(#axis_clip)">
  <circle cx="162.5" cy="574.6" r="5.4"/>
  <circle cx="275.4" cy="532.4" r="5.4"/>
  <circle cx="388.2" cy="482.9" r="5.4"/>
  <circle cx="501.0" cy="356.8" r="5.4"/>
  <circle cx="613.8" cy="216.9" r="5.4"/>
  <circle cx="726.7" cy="123.7" r="5.4"/>
  <circle cx="839.5" cy="112.2" r="5.4"/>
</g>
<polyline class="pl" points="140.0,580.7 151.2,580.9 162.5,580.2 173.8,579.5 185.1,579.5 196.4,580.5 207.7,579.5 218.9,578.5 230.2,578.0 241.5,577.8 252.8,576.2 264.1,575.7 275.4,574.7 286.6,572.6 297.9,572.8 309.2,573.5 320.5,572.9 331.8,572.7 343.1,572.0 354.3,571.3 365.6,570.4 376.9,569.4 388.2,568.2 399.5,569.5 410.7,572.2 422.0,572.2 433.3,573.2 444.6,574.8 455.9,572.3 467.2,570.3 478.4,570.9 489.7,575.2 501.0,577.5 512.3,575.5 523.6,573.9 534.9,572.5 546.1,570.9 557.4,573.2 568.7,574.3 580.0,570.3 591.3,569.7 602.6,569.6 613.8,572.4 625.1,573.9 636.4,578.0 647.7,575.0 659.0,572.8 670.3,569.9 681.5,567.1 692.8,565.9 704.1,565.9 715.4,566.9 726.7,564.9 738.0,562.7 749.2,564.9 760.5,562.8 771.8,564.1 783.1,562.8 794.4,565.7 805.7,563.9 816.9,563.9 828.2,565.1 839.5,568.5 850.8,562.3 862.1,560.2" stroke="#666" stroke-width="5.40" stroke-opacity="1.00" fill="none" clip-path="url(#axis_clip)"/>
<g class="pl" fill="#FFF" stroke="#666" stroke-width="0.900" clip-path="url(#axis_clip)">
  <circle cx="151.2" cy="580.9" r="2.2"/>
  <circle cx="173.8" cy="579.5" r="2.2"/>
  <circle cx="185.1" cy="579.5" r="2.2"/>
  <circle cx="196.4" cy="580.5" r="2.2"/>
  <circle cx="207.7" cy="579.5" r="2.2"/>
  <circle cx="218.9" cy="578.5" r="2.2"/>
  <circle cx="230.2" cy="578.0" r="2.2"/>
  <circle cx="241.5" cy="577.8" r="2.2"/>
  <circle cx="252.8" cy="576.2" r="2.2"/>
  <circle cx="264.1" cy="575.7" r="2.2"/>
  <circle cx="286.6" cy="572.6" r="2.2"/>
  <circle cx="297.9" cy="572.8" r="2.2"/>
  <circle cx="309.2" cy="573.5" r="2.2"/>
  <circle cx="320.5" cy="572.9" r="2.2"/>
  <circle cx="331.8" cy="572.7" r="2.2"/>
  <circle cx="343.1" cy="572.0" r="2.2"/>
  <circle cx="354.3" cy="571.3" r="2.2"/>
  <circle cx="365.6" cy="570.4" r="2.2"/>
  <circle cx="376.9" cy="569.4" r="2.2"/>
  <circle cx="399.5" cy="569.5" r="2.2"/>
  <circle cx="410.7" cy="572.2" r="2.2"/>
  <circle cx="422.0" cy="572.2" r="2.2"/>
  <circle cx="433.3" cy="573.2" r="2.2"/>
  <circle cx="444.6" cy="574.8" r="2.2"/>
  <circle cx="455.9" cy="572.3" r="2.2"/>
  <circle cx="467.2" cy="570.3" r="2.2"/>
  <circle cx="478.4" cy="570.9" r="2.2"/>
  <circle cx="489.7" cy="575.2" r="2.2"/>
  <circle cx="512.3" cy="575.5" r="2.2"/>
  <circle cx="523.6" cy="573.9" r="2.2"/>
  <circle cx="534.9" cy="572.5" r="2.2"/>
  <circle cx="546.1" cy="570.9" r="2.2"/>
  <circle cx="557.4" cy="573.2" r="2.2"/>
  <circle cx="568.7" cy="574.3" r="2.2"/>
  <circle cx="580.0" cy="570.3" r="2.2"/>
  <circle cx="591.3" cy="569.7" r="2.2"/>
  <circle cx="602.6" cy="569.6" r="2.2"/>
  <circle cx="625.1" cy="573.9" r="2.2"/>
  <circle cx="636.4" cy="578.0" r="2.2"/>
  <circle cx="647.7" cy="575.0" r="2.2"/>
  <circle cx="659.0" cy="572.8" r="2.2"/>
  <circle cx="670.3" cy="569.9" r="2.2"/>
  <circle cx="681.5" cy="567.1" r="2.2"/>
  <circle cx="692.8" cy="565.9" r="2.2"/>
  <circle cx="704.1" cy="565.9" r="2.2"/>
  <circle cx="715.4" cy="566.9" r="2.2"/>
  <circle cx="738.0" cy="562.7" r="2.2"/>
  <circle cx="749.2" cy="564.9" r="2.2"/>
  <circle cx="760.5" cy="562.8" r="2.2"/>
  <circle cx="771.8" cy="564.1" r="2.2"/>
  <circle cx="783.1" cy="562.8" r="2.2"/>
  <circle cx="794.4" cy="565.7" r="2.2"/>
  <circle cx="805.7" cy="563.9" r="2.2"/>
  <circle cx="816.9" cy="563.9" r="2.2"/>
  <circle cx="828.2" cy="565.1" r="2.2"/>
  <circle cx="850.8" cy="562.3" r="2.2"/>
  <circle cx="862.1" cy="560.2" r="2.2"/>
</g>
<g class="pl" fill="#FFF" stroke="#666" stroke-width="0.900" clip-path="url(#axis_clip)">
  <circle cx="162.5" cy="580.2" r="5.4"/>
  <circle cx="275.4" cy="574.7" r="5.4"/>
  <circle cx="388.2" cy="568.2" r="5.4"/>
  <circle cx="501.0" cy="577.5" r="5.4"/>
  <circle cx="613.8" cy="572.4" r="5.4"/>
  <circle cx="726.7" cy="564.9" r="5.4"/>
  <circle cx="839.5" cy="568.5" r="5.4"/>
</g>
<text transform="translate(925.2,573.4)" dy="8.1" font-size="27.00" fill="#7B553E" stroke="none">Coal 4.9</text>
<text transform="translate(925.2,118.5)" dy="8.1" font-size="27.00" fill="#404040" stroke="none">Oil 88.2</text>
<text transform="translate(925.2,92.6)" dy="8.1" font-size="27.00" fill="#6298C6" stroke="none">Gas 92.5</text>
<text transform="translate(925.2,547.5)" dy="8.1" font-size="27.00" fill="#666" stroke="none">Cement 5.1</text>
<text transform="translate(925.2,69.7)" dy="0.0" font-size="19.80" fill="#6298C6" stroke="none">Mt CO<tspan dy="0.2em"><tspan style="font-size:70%">2</tspan></tspan><tspan dy="-0.2em"> </tspan>in 2022</text>
<g stroke="none" stroke-width="0.9000"  >
  <polygon points="1036.2,572.1 1055.4,572.1 1055.4,574.8 1036.2,574.8" fill="#7B553E"/>
</g>
<text transform="translate(1060.2,574.1)" dy="5.4" font-size="18.00" fill="#7B553E" stroke="none">nc</text>
<g stroke="none" stroke-width="0.9000"  >
  <polygon points="1028.7,125.3 1038.3,111.8 1047.9,125.3 1028.7,125.3" fill="#404040"/>
</g>
<text transform="translate(1052.7,120.5)" dy="5.4" font-size="18.00" fill="#404040" stroke="none">4.0%</text>
<g stroke="none" stroke-width="0.9000"  >
  <polygon points="1044.8,85.8 1054.4,99.3 1064.0,85.8 1044.8,85.8" fill="#6298C6"/>
</g>
<text transform="translate(1068.8,94.6)" dy="5.4" font-size="18.00" fill="#6298C6" stroke="none">0.6%</text>
<g stroke="none" stroke-width="0.9000"  >
  <polygon points="1075.0,554.3 1084.6,540.8 1094.2,554.3 1075.0,554.3" fill="#666"/>
</g>
<text transform="translate(1099.0,549.6)" dy="5.4" font-size="18.00" fill="#666" stroke="none">8.4%</text>
<text transform="translate(145.6,47.2)" dy="0.0" font-size="27.00" fill="#808080" stroke="none">Annual Fossil CO<tspan dy="0.2em"><tspan style="font-size:70%">2</tspan></tspan><tspan dy="-0.2em"> </tspan>Emissions in Argentina</text>
<text transform="translate(130.0,81.6)" dy="8.1" font-size="27.00" fill="#808080" stroke="none" text-anchor="end">CO<tspan dy="0.2em"><tspan style="font-size:70%">2</tspan></tspan><tspan dy="-0.2em"></tspan></text>
<text transform="translate(157.6,60.7)" dy="18.0" font-size="18.00" fill="#808080" stroke="none">Total emissions growth in 2022: +1.6%</text>
<text transform="translate(160.2,666.1)" font-size="19.80" font-family="Helvetica" fill="#BFBFBF" stroke="none" xml:space="preserve">Global Carbon Project</text>
<g>
  <rect x="123.0" y="651.4" width="34" height="17" fill="#FFF" stroke="none"/>
  <g transform="translate(124.0,652.4) scale(0.24)">
  <g><circle fill="#FFF" cx="37.79" cy="28.5" r="28.84"/>
     <circle fill="none" cx="37.79" cy="28.5" r="28.84" stroke="#BFBFBF" stroke-width="5.5"/>
     <path fill="#BFBFBF" d="M37.16,23.19 l-4.29,2.23c-0.458-0.951-1.02-1.62-1.69-2c-0.667-0.38-1.29-0.571-1.86-0.571c-2.86,0-4.29,1.89-4.29,5.66 c0,1.71,0.36,3.08,1.09,4.11c0.724,1.03,1.79,1.54,3.2,1.54c1.87,0,3.18-0.915,3.94-2.74l3.94,2 c-0.838,1.56-2,2.79-3.49,3.69c-1.48,0.896-3.12,1.34-4.91,1.34c-2.86,0-5.16-0.875-6.92-2.63 c-1.75-1.75-2.63-4.19-2.63-7.31c0-3.05,0.886-5.47,2.66-7.26c1.77-1.79,4.01-2.69,6.72-2.69 C32.6,18.56,35.44,20.1,37.16,23.19z
              M55.61,23.19l-4.23,2.23c-0.457-0.951-1.02-1.62-1.69-2 c-0.668-0.38-1.31-0.571-1.91-0.571c-2.86,0-4.29,1.89-4.29,5.66c0,1.71,0.363,3.08,1.09,4.11 c0.723,1.03,1.79,1.54,3.2,1.54c1.87,0,3.18-0.915,3.94-2.74l4,2c-0.875,1.56-2.06,2.79-3.54,3.69 c-1.49,0.9-3.11,1.34-4.86,1.34c-2.9,0-5.21-0.875-6.94-2.63c-1.74-1.75-2.6-4.19-2.6-7.31 c0-3.05,0.885-5.47,2.66-7.26c1.77-1.79,4.01-2.69,6.71-2.69C51.12,18.56,53.944,20.1,55.61,23.19z"/>
  </g></g>
  <g transform="translate(140.2,652.4) scale(0.24)">
  <g><circle fill="#FFF" cx="37.79" cy="28.5" r="28.84"/>
     <circle fill="none" cx="37.79" cy="28.5" r="28.84" stroke="#BFBFBF" stroke-width="5.5"/>
     <path fill="#BFBFBF" d="M46.129,20.557v13.085h-3.656v15.542h-9.944V33.643h-3.656V20.557 c0-0.572,0.2-1.057,0.599-1.457c0.401-0.399,0.887-0.6,1.457-0.6h13.144c0.533,0,1.01,0.2,1.428,0.6 C45.918,19.5,46.129,19.986,46.129,20.557z
              M33.042,12.329c0-3.008,1.485-4.514,4.458-4.514s4.457,1.504,4.457,4.514 c0,2.971-1.486,4.457-4.457,4.457S33.042,15.3,33.042,12.329z"/>
  </g></g>
</g>
</g>
</svg>
