<svg version="1.1" xmlns="http://www.w3.org/2000/svg" xmlns:xlink="http://www.w3.org/1999/xlink" width="100%" height="100%" viewBox="0 0 1200.000 674.916">
<title>Annual Fossil CO2 Emissions in Egypt</title>
<style type="text/css">
  #main {font-family:Helvetica,Arial,sans-serif; font-size:27.00px;
         fill-opacity:1; fill:#000000; stroke:none; stroke-linejoin:round; stroke-linecap:round; stroke-width:1.00;}
  .marker {stroke-opacity:0;fill-opacity:0;}
  .marker:hover {stroke-opacity:0.5; fill-opacity:1;}
  .ticklabel {font-size:27.00px;fill:#808080;stroke:none;font-family:Helvetica}
  .ytl {text-anchor:end;}
  .dp1 {pointer-events:none;font-size:70%;text-anchor:middle;fill:#000000;}
  .dp2 {pointer-events:none;font-size:70%;text-anchor:middle;fill:#FFFFFF;}
  .numtip {pointer-events:none;}
  .cc {opacity:0.25;}
.dl_fe {background-color:#FDFFDF;display:flex;margin:auto;align-items:center}
.dl_fe_p {font-size:20px;text-align:center;margin:3px}
.dl_el {display:none;pointer-events:none;}
.cc:hover + .dl_el {display:block;}
text:hover + .dl_el {display:block;}
</style>
<defs>
  <clipPath id="axis_clip"><rect x="145.8" y="54.2" width="761.2" height="532.8" /></clipPath>
  <path id="line_x" d="M 145.600,0 h 761.600" stroke="#262626" stroke-opacity="0.15" stroke-width="1.00"/>
  <path id="tick_y" d="M 145.600,0 h -6.000" stroke="#808080" stroke-width="0.90"/>
  <path id="tick_x" d="M 0,587.177 v 6.000" stroke="#808080" stroke-width="0.90"/>
</defs>
<g id="main">
<use xlink:href="#line_x" transform="translate(0,587.2)"/>
<use xlink:href="#line_x" transform="translate(0,434.8)"/>
<use xlink:href="#line_x" transform="translate(0,282.5)"/>
<use xlink:href="#line_x" transform="translate(0,130.2)"/>
<use xlink:href="#tick_y" transform="translate(0,587.2)"/>
<use xlink:href="#tick_y" transform="translate(0,434.8)"/>
<use xlink:href="#tick_y" transform="translate(0,282.5)"/>
<use xlink:href="#tick_y" transform="translate(0,130.2)"/>
<use xlink:href="#tick_x" transform="translate(162.5,0)"/>
<use xlink:href="#tick_x" transform="translate(275.4,0)"/>
<use xlink:href="#tick_x" transform="translate(388.2,0)"/>
<use xlink:href="#tick_x" transform="translate(501.0,0)"/>
<use xlink:href="#tick_x" transform="translate(613.8,0)"/>
<use xlink:href="#tick_x" transform="translate(726.7,0)"/>
<use xlink:href="#tick_x" transform="translate(862.1,0)"/>
<polyline points="145.6,53.993 145.6,587.177 907.2,587.177" stroke="#808080" stroke-width="0.90" fill="none"/>
<text class="ticklabel xtl" transform="translate(162.5,629.0)" text-anchor="middle">1960</text>
<text class="ticklabel xtl" transform="translate(275.4,629.0)" text-anchor="middle">1970</text>
<text class="ticklabel xtl" transform="translate(388.2,629.0)" text-anchor="middle">1980</text>
<text class="ticklabel xtl" transform="translate(501.0,629.0)" text-anchor="middle">1990</text>
<text class="ticklabel xtl" transform="translate(613.8,629.0)" text-anchor="middle">2000</text>
<text class="ticklabel xtl" transform="translate(726.7,629.0)" text-anchor="middle">2010</text>
<text class="ticklabel xtl" transform="translate(862.1,629.0)" text-anchor="middle">2022</text>
<text class="ticklabel ytl" transform="translate(128.8,595.3)">0</text>
<text class="ticklabel ytl" transform="translate(128.8,442.9)">40</text>
<text class="ticklabel ytl" transform="translate(128.8,290.6)">80</text>
<text class="ticklabel ytl" transform="translate(128.8,138.3)">120 Mt</text>
<polyline class="pl" points="140.0,584.6 151.2,586.4 162.5,585.6 173.8,584.2 185.1,584.5 196.4,584.5 207.7,582.6 218.9,583.3 230.2,584.6 241.5,582.9 252.8,582.8 264.1,582.4 275.4,582.5 286.6,583.7 297.9,583.6 309.2,583.8 320.5,581.3 331.8,573.6 343.1,578.5 354.3,577.5 365.6,579.6 376.9,580.3 388.2,580.3 399.5,576.2 410.7,574.9 422.0,578.6 433.3,578.6 444.6,578.5 455.9,576.7 467.2,576.0 478.4,577.3 489.7,576.4 501.0,574.4 512.3,576.9 523.6,577.3 534.9,574.2 546.1,573.1 557.4,577.8 568.7,574.1 580.0,576.3 591.3,576.5 602.6,577.6 613.8,575.2 625.1,576.7 636.4,575.9 647.7,575.5 659.0,575.0 670.3,575.5 681.5,576.0 692.8,576.1 704.1,576.3 715.4,576.9 726.7,571.5 738.0,580.7 749.2,580.3 760.5,580.7 771.8,581.5 783.1,582.1 794.4,581.1 805.7,562.4 816.9,537.6 828.2,548.6 839.5,566.6 850.8,552.9 862.1,552.9" stroke="#7B553E" stroke-width="5.40" stroke-opacity="1.00" fill="none" clip-path="url(#axis_clip)"/>
<g class="pl" fill="#FFF" stroke="#7B553E" stroke-width="0.900" clip-path="url(#axis_clip)">
  <circle cx="151.2" cy="586.4" r="2.2"/>
  <circle cx="173.8" cy="584.2" r="2.2"/>
  <circle cx="185.1" cy="584.5" r="2.2"/>
  <circle cx="196.4" cy="584.5" r="2.2"/>
  <circle cx="207.7" cy="582.6" r="2.2"/>
  <circle cx="218.9" cy="583.3" r="2.2"/>
  <circle cx="230.2" cy="584.6" r="2.2"/>
  <circle cx="241.5" cy="582.9" r="2.2"/>
  <circle cx="252.8" cy="582.8" r="2.2"/>
  <circle cx="264.1" cy="582.4" r="2.2"/>
  <circle cx="286.6" cy="583.7" r="2.2"/>
  <circle cx="297.9" cy="583.6" r="2.2"/>
  <circle cx="309.2" cy="583.8" r="2.2"/>
  <circle cx="320.5" cy="581.3" r="2.2"/>
  <circle cx="331.8" cy="573.6" r="2.2"/>
  <circle cx="343.1" cy="578.5" r="2.2"/>
  <circle cx="354.3" cy="577.5" r="2.2"/>
  <circle cx="365.6" cy="579.6" r="2.2"/>
  <circle cx="376.9" cy="580.3" r="2.2"/>
  <circle cx="399.5" cy="576.2" r="2.2"/>
  <circle cx="410.7" cy="574.9" r="2.2"/>
  <circle cx="422.0" cy="578.6" r="2.2"/>
  <circle cx="433.3" cy="578.6" r="2.2"/>
  <circle cx="444.6" cy="578.5" r="2.2"/>
  <circle cx="455.9" cy="576.7" r="2.2"/>
  <circle cx="467.2" cy="576.0" r="2.2"/>
  <circle cx="478.4" cy="577.3" r="2.2"/>
  <circle cx="489.7" cy="576.4" r="2.2"/>
  <circle cx="512.3" cy="576.9" r="2.2"/>
  <circle cx="523.6" cy="577.3" r="2.2"/>
  <circle cx="534.9" cy="574.2" r="2.2"/>
  <circle cx="546.1" cy="573.1" r="2.2"/>
  <circle cx="557.4" cy="577.8" r="2.2"/>
  <circle cx="568.7" cy="574.1" r="2.2"/>
  <circle cx="580.0" cy="576.3" r="2.2"/>
  <circle cx="591.3" cy="576.5" r="2.2"/>
  <circle cx="602.6" cy="577.6" r="2.2"/>
  <circle cx="625.1" cy="576.7" r="2.2"/>
  <circle cx="636.4" cy="575.9" r="2.2"/>
  <circle cx="647.7" cy="575.5" r="2.2"/>
  <circle cx="659.0" cy="575.0" r="2.2"/>
  <circle cx="670.3" cy="575.5" r="2.2"/>
  <circle cx="681.5" cy="576.0" r="2.2"/>
  <circle cx="692.8" cy="576.1" r="2.2"/>
  <circle cx="704.1" cy="576.3" r="2.2"/>
  <circle cx="715.4" cy="576.9" r="2.2"/>
  <circle cx="738.0" cy="580.7" r="2.2"/>
  <circle cx="749.2" cy="580.3" r="2.2"/>
  <circle cx="760.5" cy="580.7" r="2.2"/>
  <circle cx="771.8" cy="581.5" r="2.2"/>
  <circle cx="783.1" cy="582.1" r="2.2"/>
  <circle cx="794.4" cy="581.1" r="2.2"/>
  <circle cx="805.7" cy="562.4" r="2.2"/>
  <circle cx="816.9" cy="537.6" r="2.2"/>
  <circle cx="828.2" cy="548.6" r="2.2"/>
  <circle cx="850.8" cy="552.9" r="2.2"/>
  <circle cx="862.1" cy="552.9" r="2.2"/>
</g>
<g class="pl" fill="#FFF" stroke="#7B553E" stroke-width="0.900" clip-path="url(#axis_clip)">
  <circle cx="162.5" cy="585.6" r="5.4"/>
  <circle cx="275.4" cy="582.5" r="5.4"/>
  <circle cx="388.2" cy="580.3" r="5.4"/>
  <circle cx="501.0" cy="574.4" r="5.4"/>
  <circle cx="613.8" cy="575.2" r="5.4"/>
  <circle cx="726.7" cy="571.5" r="5.4"/>
  <circle cx="839.5" cy="566.6" r="5.4"/>
</g>
<polyline class="pl" points="140.0,540.5 151.2,542.9 162.5,531.5 173.8,529.0 185.1,523.4 196.4,512.6 207.7,499.8 218.9,490.8 230.2,493.7 241.5,522.2 252.8,510.8 264.1,529.7 275.4,524.0 286.6,516.7 297.9,506.0 309.2,513.2 320.5,510.0 331.8,499.1 343.1,484.8 354.3,474.6 365.6,468.6 376.9,461.1 388.2,439.8 399.5,424.9 410.7,408.2 422.0,404.9 433.3,385.6 444.6,389.7 455.9,359.0 467.2,368.2 478.4,375.9 489.7,393.9 501.0,388.9 512.3,389.7 523.6,384.8 534.9,348.2 546.1,385.0 557.4,365.9 568.7,382.8 580.0,319.1 591.3,272.6 602.6,284.3 613.8,262.2 625.1,334.2 636.4,369.6 647.7,308.0 659.0,299.1 670.3,285.5 681.5,268.4 692.8,264.4 704.1,235.3 715.4,211.2 726.7,228.2 738.0,211.9 749.2,232.9 760.5,226.7 771.8,138.9 783.1,160.5 794.4,149.7 805.7,133.8 816.9,195.1 828.2,200.8 839.5,270.9 850.8,246.8 862.1,191.0" stroke="#404040" stroke-width="5.40" stroke-opacity="1.00" fill="none" clip-path="url(#axis_clip)"/>
<g class="pl" fill="#FFF" stroke="#404040" stroke-width="0.900" clip-path="url(#axis_clip)">
  <circle cx="151.2" cy="542.9" r="2.2"/>
  <circle cx="173.8" cy="529.0" r="2.2"/>
  <circle cx="185.1" cy="523.4" r="2.2"/>
  <circle cx="196.4" cy="512.6" r="2.2"/>
  <circle cx="207.7" cy="499.8" r="2.2"/>
  <circle cx="218.9" cy="490.8" r="2.2"/>
  <circle cx="230.2" cy="493.7" r="2.2"/>
  <circle cx="241.5" cy="522.2" r="2.2"/>
  <circle cx="252.8" cy="510.8" r="2.2"/>
  <circle cx="264.1" cy="529.7" r="2.2"/>
  <circle cx="286.6" cy="516.7" r="2.2"/>
  <circle cx="297.9" cy="506.0" r="2.2"/>
  <circle cx="309.2" cy="513.2" r="2.2"/>
  <circle cx="320.5" cy="510.0" r="2.2"/>
  <circle cx="331.8" cy="499.1" r="2.2"/>
  <circle cx="343.1" cy="484.8" r="2.2"/>
  <circle cx="354.3" cy="474.6" r="2.2"/>
  <circle cx="365.6" cy="468.6" r="2.2"/>
  <circle cx="376.9" cy="461.1" r="2.2"/>
  <circle cx="399.5" cy="424.9" r="2.2"/>
  <circle cx="410.7" cy="408.2" r="2.2"/>
  <circle cx="422.0" cy="404.9" r="2.2"/>
  <circle cx="433.3" cy="385.6" r="2.2"/>
  <circle cx="444.6" cy="389.7" r="2.2"/>
  <circle cx="455.9" cy="359.0" r="2.2"/>
  <circle cx="467.2" cy="368.2" r="2.2"/>
  <circle cx="478.4" cy="375.9" r="2.2"/>
  <circle cx="489.7" cy="393.9" r="2.2"/>
  <circle cx="512.3" cy="389.7" r="2.2"/>
  <circle cx="523.6" cy="384.8" r="2.2"/>
  <circle cx="534.9" cy="348.2" r="2.2"/>
  <circle cx="546.1" cy="385.0" r="2.2"/>
  <circle cx="557.4" cy="365.9" r="2.2"/>
  <circle cx="568.7" cy="382.8" r="2.2"/>
  <circle cx="580.0" cy="319.1" r="2.2"/>
  <circle cx="591.3" cy="272.6" r="2.2"/>
  <circle cx="602.6" cy="284.3" r="2.2"/>
  <circle cx="625.1" cy="334.2" r="2.2"/>
  <circle cx="636.4" cy="369.6" r="2.2"/>
  <circle cx="647.7" cy="308.0" r="2.2"/>
  <circle cx="659.0" cy="299.1" r="2.2"/>
  <circle cx="670.3" cy="285.5" r="2.2"/>
  <circle cx="681.5" cy="268.4" r="2.2"/>
  <circle cx="692.8" cy="264.4" r="2.2"/>
  <circle cx="704.1" cy="235.3" r="2.2"/>
  <circle cx="715.4" cy="211.2" r="2.2"/>
  <circle cx="738.0" cy="211.9" r="2.2"/>
  <circle cx="749.2" cy="232.9" r="2.2"/>
  <circle cx="760.5" cy="226.7" r="2.2"/>
  <circle cx="771.8" cy="138.9" r="2.2"/>
  <circle cx="783.1" cy="160.5" r="2.2"/>
  <circle cx="794.4" cy="149.7" r="2.2"/>
  <circle cx="805.7" cy="133.8" r="2.2"/>
  <circle cx="816.9" cy="195.1" r="2.2"/>
  <circle cx="828.2" cy="200.8" r="2.2"/>
  <circle cx="850.8" cy="246.8" r="2.2"/>
  <circle cx="862.1" cy="191.0" r="2.2"/>
</g>
<g class="pl" fill="#FFF" stroke="#404040" stroke-width="0.900" clip-path="url(#axis_clip)">
  <circle cx="162.5" cy="531.5" r="5.4"/>
  <circle cx="275.4" cy="524.0" r="5.4"/>
  <circle cx="388.2" cy="439.8" r="5.4"/>
  <circle cx="501.0" cy="388.9" r="5.4"/>
  <circle cx="613.8" cy="262.2" r="5.4"/>
  <circle cx="726.7" cy="228.2" r="5.4"/>
  <circle cx="839.5" cy="270.9" r="5.4"/>
</g>
<polyline class="pl" points="140.0,587.2 151.2,587.2 162.5,587.2 173.8,587.2 185.1,587.2 196.4,587.2 207.7,586.8 218.9,586.8 230.2,586.8 241.5,586.8 252.8,586.8 264.1,586.7 275.4,586.5 286.6,586.6 297.9,586.7 309.2,586.5 320.5,586.9 331.8,586.8 343.1,584.4 354.3,579.2 365.6,575.5 376.9,566.1 388.2,575.5 399.5,573.2 410.7,571.6 422.0,571.2 433.3,566.8 444.6,561.0 455.9,556.5 467.2,549.2 478.4,543.3 489.7,540.3 501.0,537.6 512.3,530.4 523.6,525.8 534.9,516.7 546.1,510.4 557.4,488.1 568.7,481.7 580.0,491.7 591.3,487.0 602.6,466.7 613.8,432.1 625.1,422.0 636.4,385.4 647.7,365.5 659.0,367.7 670.3,325.8 681.5,306.0 692.8,278.2 704.1,269.9 715.4,275.7 726.7,275.1 738.0,234.2 749.2,233.3 760.5,242.9 771.8,276.0 783.1,266.7 794.4,226.0 805.7,174.3 816.9,196.1 828.2,128.2 839.5,143.0 850.8,113.4 862.1,124.0" stroke="#6298C6" stroke-width="5.40" stroke-opacity="1.00" fill="none" clip-path="url(#axis_clip)"/>
<g class="pl" fill="#FFF" stroke="#6298C6" stroke-width="0.900" clip-path="url(#axis_clip)">
  <circle cx="151.2" cy="587.2" r="2.2"/>
  <circle cx="173.8" cy="587.2" r="2.2"/>
  <circle cx="185.1" cy="587.2" r="2.2"/>
  <circle cx="196.4" cy="587.2" r="2.2"/>
  <circle cx="207.7" cy="586.8" r="2.2"/>
  <circle cx="218.9" cy="586.8" r="2.2"/>
  <circle cx="230.2" cy="586.8" r="2.2"/>
  <circle cx="241.5" cy="586.8" r="2.2"/>
  <circle cx="252.8" cy="586.8" r="2.2"/>
  <circle cx="264.1" cy="586.7" r="2.2"/>
  <circle cx="286.6" cy="586.6" r="2.2"/>
  <circle cx="297.9" cy="586.7" r="2.2"/>
  <circle cx="309.2" cy="586.5" r="2.2"/>
  <circle cx="320.5" cy="586.9" r="2.2"/>
  <circle cx="331.8" cy="586.8" r="2.2"/>
  <circle cx="343.1" cy="584.4" r="2.2"/>
  <circle cx="354.3" cy="579.2" r="2.2"/>
  <circle cx="365.6" cy="575.5" r="2.2"/>
  <circle cx="376.9" cy="566.1" r="2.2"/>
  <circle cx="399.5" cy="573.2" r="2.2"/>
  <circle cx="410.7" cy="571.6" r="2.2"/>
  <circle cx="422.0" cy="571.2" r="2.2"/>
  <circle cx="433.3" cy="566.8" r="2.2"/>
  <circle cx="444.6" cy="561.0" r="2.2"/>
  <circle cx="455.9" cy="556.5" r="2.2"/>
  <circle cx="467.2" cy="549.2" r="2.2"/>
  <circle cx="478.4" cy="543.3" r="2.2"/>
  <circle cx="489.7" cy="540.3" r="2.2"/>
  <circle cx="512.3" cy="530.4" r="2.2"/>
  <circle cx="523.6" cy="525.8" r="2.2"/>
  <circle cx="534.9" cy="516.7" r="2.2"/>
  <circle cx="546.1" cy="510.4" r="2.2"/>
  <circle cx="557.4" cy="488.1" r="2.2"/>
  <circle cx="568.7" cy="481.7" r="2.2"/>
  <circle cx="580.0" cy="491.7" r="2.2"/>
  <circle cx="591.3" cy="487.0" r="2.2"/>
  <circle cx="602.6" cy="466.7" r="2.2"/>
  <circle cx="625.1" cy="422.0" r="2.2"/>
  <circle cx="636.4" cy="385.4" r="2.2"/>
  <circle cx="647.7" cy="365.5" r="2.2"/>
  <circle cx="659.0" cy="367.7" r="2.2"/>
  <circle cx="670.3" cy="325.8" r="2.2"/>
  <circle cx="681.5" cy="306.0" r="2.2"/>
  <circle cx="692.8" cy="278.2" r="2.2"/>
  <circle cx="704.1" cy="269.9" r="2.2"/>
  <circle cx="715.4" cy="275.7" r="2.2"/>
  <circle cx="738.0" cy="234.2" r="2.2"/>
  <circle cx="749.2" cy="233.3" r="2.2"/>
  <circle cx="760.5" cy="242.9" r="2.2"/>
  <circle cx="771.8" cy="276.0" r="2.2"/>
  <circle cx="783.1" cy="266.7" r="2.2"/>
  <circle cx="794.4" cy="226.0" r="2.2"/>
  <circle cx="805.7" cy="174.3" r="2.2"/>
  <circle cx="816.9" cy="196.1" r="2.2"/>
  <circle cx="828.2" cy="128.2" r="2.2"/>
  <circle cx="850.8" cy="113.4" r="2.2"/>
  <circle cx="862.1" cy="124.0" r="2.2"/>
</g>
<g class="pl" fill="#FFF" stroke="#6298C6" stroke-width="0.900" clip-path="url(#axis_clip)">
  <circle cx="162.5" cy="587.2" r="5.4"/>
  <circle cx="275.4" cy="586.5" r="5.4"/>
  <circle cx="388.2" cy="575.5" r="5.4"/>
  <circle cx="501.0" cy="537.6" r="5.4"/>
  <circle cx="613.8" cy="432.1" r="5.4"/>
  <circle cx="726.7" cy="275.1" r="5.4"/>
  <circle cx="839.5" cy="143.0" r="5.4"/>
</g>
<polyline class="pl" points="140.0,584.3 151.2,583.8 162.5,583.3 173.8,583.3 185.1,583.0 196.4,582.5 207.7,582.4 218.9,582.6 230.2,582.6 241.5,582.0 252.8,581.3 264.1,580.4 275.4,580.2 286.6,579.8 297.9,580.0 309.2,580.4 320.5,581.0 331.8,580.4 343.1,580.9 354.3,581.1 365.6,581.6 376.9,581.7 388.2,581.5 399.5,580.7 410.7,579.3 422.0,577.0 433.3,575.2 444.6,576.6 455.9,573.2 467.2,571.1 478.4,569.2 489.7,564.3 501.0,561.4 512.3,557.3 523.6,556.3 534.9,558.2 546.1,558.2 557.4,555.5 568.7,553.7 580.0,552.1 591.3,549.9 602.6,546.0 613.8,544.6 625.1,542.4 636.4,538.7 647.7,541.9 659.0,538.9 670.3,533.3 681.5,527.9 692.8,522.1 704.1,525.5 715.4,511.1 726.7,509.1 738.0,510.6 749.2,507.3 760.5,510.2 771.8,508.1 783.1,504.7 794.4,500.3 805.7,504.3 816.9,507.2 828.2,512.3 839.5,518.1 850.8,510.3 862.1,508.7" stroke="#666" stroke-width="5.40" stroke-opacity="1.00" fill="none" clip-path="url(#axis_clip)"/>
<g class="pl" fill="#FFF" stroke="#666" stroke-width="0.900" clip-path="url(#axis_clip)">
  <circle cx="151.2" cy="583.8" r="2.2"/>
  <circle cx="173.8" cy="583.3" r="2.2"/>
  <circle cx="185.1" cy="583.0" r="2.2"/>
  <circle cx="196.4" cy="582.5" r="2.2"/>
  <circle cx="207.7" cy="582.4" r="2.2"/>
  <circle cx="218.9" cy="582.6" r="2.2"/>
  <circle cx="230.2" cy="582.6" r="2.2"/>
  <circle cx="241.5" cy="582.0" r="2.2"/>
  <circle cx="252.8" cy="581.3" r="2.2"/>
  <circle cx="264.1" cy="580.4" r="2.2"/>
  <circle cx="286.6" cy="579.8" r="2.2"/>
  <circle cx="297.9" cy="580.0" r="2.2"/>
  <circle cx="309.2" cy="580.4" r="2.2"/>
  <circle cx="320.5" cy="581.0" r="2.2"/>
  <circle cx="331.8" cy="580.4" r="2.2"/>
  <circle cx="343.1" cy="580.9" r="2.2"/>
  <circle cx="354.3" cy="581.1" r="2.2"/>
  <circle cx="365.6" cy="581.6" r="2.2"/>
  <circle cx="376.9" cy="581.7" r="2.2"/>
  <circle cx="399.5" cy="580.7" r="2.2"/>
  <circle cx="410.7" cy="579.3" r="2.2"/>
  <circle cx="422.0" cy="577.0" r="2.2"/>
  <circle cx="433.3" cy="575.2" r="2.2"/>
  <circle cx="444.6" cy="576.6" r="2.2"/>
  <circle cx="455.9" cy="573.2" r="2.2"/>
  <circle cx="467.2" cy="571.1" r="2.2"/>
  <circle cx="478.4" cy="569.2" r="2.2"/>
  <circle cx="489.7" cy="564.3" r="2.2"/>
  <circle cx="512.3" cy="557.3" r="2.2"/>
  <circle cx="523.6" cy="556.3" r="2.2"/>
  <circle cx="534.9" cy="558.2" r="2.2"/>
  <circle cx="546.1" cy="558.2" r="2.2"/>
  <circle cx="557.4" cy="555.5" r="2.2"/>
  <circle cx="568.7" cy="553.7" r="2.2"/>
  <circle cx="580.0" cy="552.1" r="2.2"/>
  <circle cx="591.3" cy="549.9" r="2.2"/>
  <circle cx="602.6" cy="546.0" r="2.2"/>
  <circle cx="625.1" cy="542.4" r="2.2"/>
  <circle cx="636.4" cy="538.7" r="2.2"/>
  <circle cx="647.7" cy="541.9" r="2.2"/>
  <circle cx="659.0" cy="538.9" r="2.2"/>
  <circle cx="670.3" cy="533.3" r="2.2"/>
  <circle cx="681.5" cy="527.9" r="2.2"/>
  <circle cx="692.8" cy="522.1" r="2.2"/>
  <circle cx="704.1" cy="525.5" r="2.2"/>
  <circle cx="715.4" cy="511.1" r="2.2"/>
  <circle cx="738.0" cy="510.6" r="2.2"/>
  <circle cx="749.2" cy="507.3" r="2.2"/>
  <circle cx="760.5" cy="510.2" r="2.2"/>
  <circle cx="771.8" cy="508.1" r="2.2"/>
  <circle cx="783.1" cy="504.7" r="2.2"/>
  <circle cx="794.4" cy="500.3" r="2.2"/>
  <circle cx="805.7" cy="504.3" r="2.2"/>
  <circle cx="816.9" cy="507.2" r="2.2"/>
  <circle cx="828.2" cy="512.3" r="2.2"/>
  <circle cx="850.8" cy="510.3" r="2.2"/>
  <circle cx="862.1" cy="508.7" r="2.2"/>
</g>
<g class="pl" fill="#FFF" stroke="#666" stroke-width="0.900" clip-path="url(#axis_clip)">
  <circle cx="162.5" cy="583.3" r="5.4"/>
  <circle cx="275.4" cy="580.2" r="5.4"/>
  <circle cx="388.2" cy="581.5" r="5.4"/>
  <circle cx="501.0" cy="561.4" r="5.4"/>
  <circle cx="613.8" cy="544.6" r="5.4"/>
  <circle cx="726.7" cy="509.1" r="5.4"/>
  <circle cx="839.5" cy="518.1" r="5.4"/>
</g>
<text transform="translate(925.2,552.9)" dy="8.1" font-size="27.00" fill="#7B553E" stroke="none">Coal 9.0</text>
<text transform="translate(925.2,191.0)" dy="8.1" font-size="27.00" fill="#404040" stroke="none">Oil 104.0</text>
<text transform="translate(925.2,124.0)" dy="8.1" font-size="27.00" fill="#6298C6" stroke="none">Gas 121.6</text>
<text transform="translate(925.2,508.7)" dy="8.1" font-size="27.00" fill="#666" stroke="none">Cement 20.6</text>
<text transform="translate(925.2,101.0)" dy="0.0" font-size="19.80" fill="#6298C6" stroke="none">Mt CO<tspan dy="0.2em"><tspan style="font-size:70%">2</tspan></tspan><tspan dy="-0.2em"> </tspan>in 2022</text>
<g stroke="none" stroke-width="0.9000"  >
  <polygon points="1036.2,551.5 1055.4,551.5 1055.4,554.2 1036.2,554.2" fill="#7B553E"/>
</g>
<text transform="translate(1060.2,553.6)" dy="5.4" font-size="18.00" fill="#7B553E" stroke="none">nc</text>
<g stroke="none" stroke-width="0.9000"  >
  <polygon points="1043.8,197.8 1053.4,184.3 1063.0,197.8 1043.8,197.8" fill="#404040"/>
</g>
<text transform="translate(1067.8,193.0)" dy="5.4" font-size="18.00" fill="#404040" stroke="none">16.4%</text>
<g stroke="none" stroke-width="0.9000"  >
  <polygon points="1059.9,117.2 1069.5,130.7 1079.1,117.2 1059.9,117.2" fill="#6298C6"/>
</g>
<text transform="translate(1083.9,126.0)" dy="5.4" font-size="18.00" fill="#6298C6" stroke="none">2.2%</text>
<g stroke="none" stroke-width="0.9000"  >
  <polygon points="1090.1,515.5 1099.7,502.0 1109.3,515.5 1090.1,515.5" fill="#666"/>
</g>
<text transform="translate(1114.1,510.8)" dy="5.4" font-size="18.00" fill="#666" stroke="none">2.0%</text>
<text transform="translate(145.6,47.2)" dy="0.0" font-size="27.00" fill="#808080" stroke="none">Annual Fossil CO<tspan dy="0.2em"><tspan style="font-size:70%">2</tspan></tspan><tspan dy="-0.2em"> </tspan>Emissions in Egypt</text>
<text transform="translate(130.0,157.8)" dy="8.1" font-size="27.00" fill="#808080" stroke="none" text-anchor="end">CO<tspan dy="0.2em"><tspan style="font-size:70%">2</tspan></tspan><tspan dy="-0.2em"></tspan></text>
<text transform="translate(157.6,60.7)" dy="18.0" font-size="18.00" fill="#808080" stroke="none">Total emissions growth in 2022: +4.9%</text>
<text transform="translate(160.2,666.1)" font-size="19.80" font-family="Helvetica" fill="#BFBFBF" stroke="none" xml:space="preserve">Global Carbon Project</text>
<g>
  <rect x="123.0" y="651.4" width="34" height="17" fill="#FFF" stroke="none"/>
  <g transform="translate(124.0,652.4) scale(0.24)">
  <g><circle fill="#FFF" cx="37.79" cy="28.5" r="28.84"/>
     <circle fill="none" cx="37.79" cy="28.5" r="28.84" stroke="#BFBFBF" stroke-width="5.5"/>
     <path fill="#BFBFBF" d="M37.16,23.19 l-4.29,2.23c-0.458-0.951-1.02-1.62-1.69-2c-0.667-0.38-1.29-0.571-1.86-0.571c-2.86,0-4.29,1.89-4.29,5.66 c0,1.71,0.36,3.08,1.09,4.11c0.724,1.03,1.79,1.54,3.2,1.54c1.87,0,3.18-0.915,3.94-2.74l3.94,2 c-0.838,1.56-2,2.79-3.49,3.69c-1.48,0.896-3.12,1.34-4.91,1.34c-2.86,0-5.16-0.875-6.92-2.63 c-1.75-1.75-2.63-4.19-2.63-7.31c0-3.05,0.886-5.47,2.66-7.26c1.77-1.79,4.01-2.69,6.72-2.69 C32.6,18.56,35.44,20.1,37.16,23.19z
              M55.61,23.19l-4.23,2.23c-0.457-0.951-1.02-1.62-1.69-2 c-0.668-0.38-1.31-0.571-1.91-0.571c-2.86,0-4.29,1.89-4.29,5.66c0,1.71,0.363,3.08,1.09,4.11 c0.723,1.03,1.79,1.54,3.2,1.54c1.87,0,3.18-0.915,3.94-2.74l4,2c-0.875,1.56-2.06,2.79-3.54,3.69 c-1.49,0.9-3.11,1.34-4.86,1.34c-2.9,0-5.21-0.875-6.94-2.63c-1.74-1.75-2.6-4.19-2.6-7.31 c0-3.05,0.885-5.47,2.66-7.26c1.77-1.79,4.01-2.69,6.71-2.69C51.12,18.56,53.944,20.1,55.61,23.19z"/>
  </g></g>
  <g transform="translate(140.2,652.4) scale(0.24)">
  <g><circle fill="#FFF" cx="37.79" cy="28.5" r="28.84"/>
     <circle fill="none" cx="37.79" cy="28.5" r="28.84" stroke="#BFBFBF" stroke-width="5.5"/>
     <path fill="#BFBFBF" d="M46.129,20.557v13.085h-3.656v15.542h-9.944V33.643h-3.656V20.557 c0-0.572,0.2-1.057,0.599-1.457c0.401-0.399,0.887-0.6,1.457-0.6h13.144c0.533,0,1.01,0.2,1.428,0.6 C45.918,19.5,46.129,19.986,46.129,20.557z
              M33.042,12.329c0-3.008,1.485-4.514,4.458-4.514s4.457,1.504,4.457,4.514 c0,2.971-1.486,4.457-4.457,4.457S33.042,15.3,33.042,12.329z"/>
  </g></g>
</g>
</g>
</svg>
