<svg version="1.1" xmlns="http://www.w3.org/2000/svg" xmlns:xlink="http://www.w3.org/1999/xlink" width="100%" height="100%" viewBox="0 0 1200.000 674.916">
<title>Annual Fossil CO2 Emissions in New Zealand</title>
<style type="text/css">
  #main {font-family:Helvetica,Arial,sans-serif; font-size:27.00px;
         fill-opacity:1; fill:#000000; stroke:none; stroke-linejoin:round; stroke-linecap:round; stroke-width:1.00;}
  .marker {stroke-opacity:0;fill-opacity:0;}
  .marker:hover {stroke-opacity:0.5; fill-opacity:1;}
  .ticklabel {font-size:27.00px;fill:#808080;stroke:none;font-family:Helvetica}
  .ytl {text-anchor:end;}
  .dp1 {pointer-events:none;font-size:70%;text-anchor:middle;fill:#000000;}
  .dp2 {pointer-events:none;font-size:70%;text-anchor:middle;fill:#FFFFFF;}
  .numtip {pointer-events:none;}
  .cc {opacity:0.25;}
.dl_fe {background-color:#FDFFDF;display:flex;margin:auto;align-items:center}
.dl_fe_p {font-size:20px;text-align:center;margin:3px}
.dl_el {display:none;pointer-events:none;}
.cc:hover + .dl_el {display:block;}
text:hover + .dl_el {display:block;}
</style>
<defs>
  <clipPath id="axis_clip"><rect x="145.8" y="54.2" width="761.2" height="532.8" /></clipPath>
  <path id="line_x" d="M 145.600,0 h 761.600" stroke="#262626" stroke-opacity="0.15" stroke-width="1.00"/>
  <path id="tick_y" d="M 145.600,0 h -6.000" stroke="#808080" stroke-width="0.90"/>
  <path id="tick_x" d="M 0,587.177 v 6.000" stroke="#808080" stroke-width="0.90"/>
</defs>
<g id="main">
<use xlink:href="#line_x" transform="translate(0,587.2)"/>
<use xlink:href="#line_x" transform="translate(0,480.5)"/>
<use xlink:href="#line_x" transform="translate(0,373.9)"/>
<use xlink:href="#line_x" transform="translate(0,267.3)"/>
<use xlink:href="#line_x" transform="translate(0,160.6)"/>
<use xlink:href="#line_x" transform="translate(0,54.0)"/>
<use xlink:href="#tick_y" transform="translate(0,587.2)"/>
<use xlink:href="#tick_y" transform="translate(0,480.5)"/>
<use xlink:href="#tick_y" transform="translate(0,373.9)"/>
<use xlink:href="#tick_y" transform="translate(0,267.3)"/>
<use xlink:href="#tick_y" transform="translate(0,160.6)"/>
<use xlink:href="#tick_y" transform="translate(0,54.0)"/>
<use xlink:href="#tick_x" transform="translate(162.5,0)"/>
<use xlink:href="#tick_x" transform="translate(275.4,0)"/>
<use xlink:href="#tick_x" transform="translate(388.2,0)"/>
<use xlink:href="#tick_x" transform="translate(501.0,0)"/>
<use xlink:href="#tick_x" transform="translate(613.8,0)"/>
<use xlink:href="#tick_x" transform="translate(726.7,0)"/>
<use xlink:href="#tick_x" transform="translate(862.1,0)"/>
<polyline points="145.6,53.993 145.6,587.177 907.2,587.177" stroke="#808080" stroke-width="0.90" fill="none"/>
<text class="ticklabel xtl" transform="translate(162.5,629.0)" text-anchor="middle">1960</text>
<text class="ticklabel xtl" transform="translate(275.4,629.0)" text-anchor="middle">1970</text>
<text class="ticklabel xtl" transform="translate(388.2,629.0)" text-anchor="middle">1980</text>
<text class="ticklabel xtl" transform="translate(501.0,629.0)" text-anchor="middle">1990</text>
<text class="ticklabel xtl" transform="translate(613.8,629.0)" text-anchor="middle">2000</text>
<text class="ticklabel xtl" transform="translate(726.7,629.0)" text-anchor="middle">2010</text>
<text class="ticklabel xtl" transform="translate(862.1,629.0)" text-anchor="middle">2022</text>
<text class="ticklabel ytl" transform="translate(128.8,595.3)">0</text>
<text class="ticklabel ytl" transform="translate(128.8,488.6)">5</text>
<text class="ticklabel ytl" transform="translate(128.8,382.0)">10</text>
<text class="ticklabel ytl" transform="translate(128.8,275.4)">15</text>
<text class="ticklabel ytl" transform="translate(128.8,168.7)">20</text>
<text class="ticklabel ytl" transform="translate(128.8,62.1)">25 Mt</text>
<polyline class="pl" points="140.0,460.4 151.2,456.3 162.5,446.5 173.8,450.0 185.1,467.3 196.4,458.8 207.7,452.0 218.9,462.6 230.2,462.9 241.5,476.6 252.8,484.0 264.1,479.0 275.4,481.1 286.6,490.4 297.9,487.8 309.2,473.6 320.5,468.1 331.8,475.2 343.1,472.5 354.3,476.0 365.6,494.2 376.9,506.9 388.2,501.7 399.5,502.2 410.7,501.7 422.0,495.1 433.3,496.5 444.6,501.6 455.9,512.8 467.2,498.9 478.4,481.7 489.7,498.0 501.0,487.9 512.3,491.1 523.6,482.2 534.9,482.9 546.1,488.5 557.4,488.4 568.7,489.4 580.0,482.0 591.3,490.8 602.6,488.7 613.8,493.1 625.1,471.8 636.4,471.6 647.7,422.1 659.0,416.3 670.3,397.0 681.5,399.6 692.8,443.7 704.1,410.5 715.4,452.5 726.7,470.8 738.0,469.1 749.2,441.0 760.5,458.9 771.8,471.1 783.1,470.5 794.4,491.9 805.7,487.6 816.9,475.2 828.2,464.7 839.5,469.1 850.8,455.5 862.1,493.1" stroke="#7B553E" stroke-width="5.40" stroke-opacity="1.00" fill="none" clip-path="url(#axis_clip)"/>
<g class="pl" fill="#FFF" stroke="#7B553E" stroke-width="0.900" clip-path="url(#axis_clip)">
  <circle cx="151.2" cy="456.3" r="2.2"/>
  <circle cx="173.8" cy="450.0" r="2.2"/>
  <circle cx="185.1" cy="467.3" r="2.2"/>
  <circle cx="196.4" cy="458.8" r="2.2"/>
  <circle cx="207.7" cy="452.0" r="2.2"/>
  <circle cx="218.9" cy="462.6" r="2.2"/>
  <circle cx="230.2" cy="462.9" r="2.2"/>
  <circle cx="241.5" cy="476.6" r="2.2"/>
  <circle cx="252.8" cy="484.0" r="2.2"/>
  <circle cx="264.1" cy="479.0" r="2.2"/>
  <circle cx="286.6" cy="490.4" r="2.2"/>
  <circle cx="297.9" cy="487.8" r="2.2"/>
  <circle cx="309.2" cy="473.6" r="2.2"/>
  <circle cx="320.5" cy="468.1" r="2.2"/>
  <circle cx="331.8" cy="475.2" r="2.2"/>
  <circle cx="343.1" cy="472.5" r="2.2"/>
  <circle cx="354.3" cy="476.0" r="2.2"/>
  <circle cx="365.6" cy="494.2" r="2.2"/>
  <circle cx="376.9" cy="506.9" r="2.2"/>
  <circle cx="399.5" cy="502.2" r="2.2"/>
  <circle cx="410.7" cy="501.7" r="2.2"/>
  <circle cx="422.0" cy="495.1" r="2.2"/>
  <circle cx="433.3" cy="496.5" r="2.2"/>
  <circle cx="444.6" cy="501.6" r="2.2"/>
  <circle cx="455.9" cy="512.8" r="2.2"/>
  <circle cx="467.2" cy="498.9" r="2.2"/>
  <circle cx="478.4" cy="481.7" r="2.2"/>
  <circle cx="489.7" cy="498.0" r="2.2"/>
  <circle cx="512.3" cy="491.1" r="2.2"/>
  <circle cx="523.6" cy="482.2" r="2.2"/>
  <circle cx="534.9" cy="482.9" r="2.2"/>
  <circle cx="546.1" cy="488.5" r="2.2"/>
  <circle cx="557.4" cy="488.4" r="2.2"/>
  <circle cx="568.7" cy="489.4" r="2.2"/>
  <circle cx="580.0" cy="482.0" r="2.2"/>
  <circle cx="591.3" cy="490.8" r="2.2"/>
  <circle cx="602.6" cy="488.7" r="2.2"/>
  <circle cx="625.1" cy="471.8" r="2.2"/>
  <circle cx="636.4" cy="471.6" r="2.2"/>
  <circle cx="647.7" cy="422.1" r="2.2"/>
  <circle cx="659.0" cy="416.3" r="2.2"/>
  <circle cx="670.3" cy="397.0" r="2.2"/>
  <circle cx="681.5" cy="399.6" r="2.2"/>
  <circle cx="692.8" cy="443.7" r="2.2"/>
  <circle cx="704.1" cy="410.5" r="2.2"/>
  <circle cx="715.4" cy="452.5" r="2.2"/>
  <circle cx="738.0" cy="469.1" r="2.2"/>
  <circle cx="749.2" cy="441.0" r="2.2"/>
  <circle cx="760.5" cy="458.9" r="2.2"/>
  <circle cx="771.8" cy="471.1" r="2.2"/>
  <circle cx="783.1" cy="470.5" r="2.2"/>
  <circle cx="794.4" cy="491.9" r="2.2"/>
  <circle cx="805.7" cy="487.6" r="2.2"/>
  <circle cx="816.9" cy="475.2" r="2.2"/>
  <circle cx="828.2" cy="464.7" r="2.2"/>
  <circle cx="850.8" cy="455.5" r="2.2"/>
  <circle cx="862.1" cy="493.1" r="2.2"/>
</g>
<g class="pl" fill="#FFF" stroke="#7B553E" stroke-width="0.900" clip-path="url(#axis_clip)">
  <circle cx="162.5" cy="446.5" r="5.4"/>
  <circle cx="275.4" cy="481.1" r="5.4"/>
  <circle cx="388.2" cy="501.7" r="5.4"/>
  <circle cx="501.0" cy="487.9" r="5.4"/>
  <circle cx="613.8" cy="493.1" r="5.4"/>
  <circle cx="726.7" cy="470.8" r="5.4"/>
  <circle cx="839.5" cy="469.1" r="5.4"/>
</g>
<polyline class="pl" points="140.0,502.7 151.2,503.9 162.5,488.4 173.8,480.6 185.1,474.9 196.4,462.6 207.7,451.4 218.9,428.8 230.2,422.1 241.5,415.7 252.8,411.1 264.1,399.7 275.4,404.4 286.6,378.0 297.9,360.8 309.2,335.9 320.5,331.8 331.8,335.7 343.1,341.3 354.3,337.4 365.6,364.2 376.9,370.8 388.2,355.2 399.5,377.1 410.7,376.8 422.0,396.0 433.3,396.0 444.6,364.9 455.9,359.0 467.2,339.9 478.4,345.2 489.7,332.5 501.0,322.9 512.3,325.3 523.6,303.7 534.9,306.3 546.1,286.8 557.4,272.9 568.7,269.4 580.0,262.6 591.3,256.5 602.6,250.0 613.8,235.9 625.1,233.4 636.4,217.7 647.7,201.1 659.0,193.0 670.3,189.1 681.5,186.3 692.8,181.9 704.1,185.0 715.4,200.4 726.7,198.8 738.0,194.6 749.2,200.0 760.5,191.8 771.8,185.1 783.1,174.1 794.4,171.5 805.7,152.9 816.9,149.2 828.2,141.2 839.5,179.3 850.8,163.7 862.1,163.7" stroke="#404040" stroke-width="5.40" stroke-opacity="1.00" fill="none" clip-path="url(#axis_clip)"/>
<g class="pl" fill="#FFF" stroke="#404040" stroke-width="0.900" clip-path="url(#axis_clip)">
  <circle cx="151.2" cy="503.9" r="2.2"/>
  <circle cx="173.8" cy="480.6" r="2.2"/>
  <circle cx="185.1" cy="474.9" r="2.2"/>
  <circle cx="196.4" cy="462.6" r="2.2"/>
  <circle cx="207.7" cy="451.4" r="2.2"/>
  <circle cx="218.9" cy="428.8" r="2.2"/>
  <circle cx="230.2" cy="422.1" r="2.2"/>
  <circle cx="241.5" cy="415.7" r="2.2"/>
  <circle cx="252.8" cy="411.1" r="2.2"/>
  <circle cx="264.1" cy="399.7" r="2.2"/>
  <circle cx="286.6" cy="378.0" r="2.2"/>
  <circle cx="297.9" cy="360.8" r="2.2"/>
  <circle cx="309.2" cy="335.9" r="2.2"/>
  <circle cx="320.5" cy="331.8" r="2.2"/>
  <circle cx="331.8" cy="335.7" r="2.2"/>
  <circle cx="343.1" cy="341.3" r="2.2"/>
  <circle cx="354.3" cy="337.4" r="2.2"/>
  <circle cx="365.6" cy="364.2" r="2.2"/>
  <circle cx="376.9" cy="370.8" r="2.2"/>
  <circle cx="399.5" cy="377.1" r="2.2"/>
  <circle cx="410.7" cy="376.8" r="2.2"/>
  <circle cx="422.0" cy="396.0" r="2.2"/>
  <circle cx="433.3" cy="396.0" r="2.2"/>
  <circle cx="444.6" cy="364.9" r="2.2"/>
  <circle cx="455.9" cy="359.0" r="2.2"/>
  <circle cx="467.2" cy="339.9" r="2.2"/>
  <circle cx="478.4" cy="345.2" r="2.2"/>
  <circle cx="489.7" cy="332.5" r="2.2"/>
  <circle cx="512.3" cy="325.3" r="2.2"/>
  <circle cx="523.6" cy="303.7" r="2.2"/>
  <circle cx="534.9" cy="306.3" r="2.2"/>
  <circle cx="546.1" cy="286.8" r="2.2"/>
  <circle cx="557.4" cy="272.9" r="2.2"/>
  <circle cx="568.7" cy="269.4" r="2.2"/>
  <circle cx="580.0" cy="262.6" r="2.2"/>
  <circle cx="591.3" cy="256.5" r="2.2"/>
  <circle cx="602.6" cy="250.0" r="2.2"/>
  <circle cx="625.1" cy="233.4" r="2.2"/>
  <circle cx="636.4" cy="217.7" r="2.2"/>
  <circle cx="647.7" cy="201.1" r="2.2"/>
  <circle cx="659.0" cy="193.0" r="2.2"/>
  <circle cx="670.3" cy="189.1" r="2.2"/>
  <circle cx="681.5" cy="186.3" r="2.2"/>
  <circle cx="692.8" cy="181.9" r="2.2"/>
  <circle cx="704.1" cy="185.0" r="2.2"/>
  <circle cx="715.4" cy="200.4" r="2.2"/>
  <circle cx="738.0" cy="194.6" r="2.2"/>
  <circle cx="749.2" cy="200.0" r="2.2"/>
  <circle cx="760.5" cy="191.8" r="2.2"/>
  <circle cx="771.8" cy="185.1" r="2.2"/>
  <circle cx="783.1" cy="174.1" r="2.2"/>
  <circle cx="794.4" cy="171.5" r="2.2"/>
  <circle cx="805.7" cy="152.9" r="2.2"/>
  <circle cx="816.9" cy="149.2" r="2.2"/>
  <circle cx="828.2" cy="141.2" r="2.2"/>
  <circle cx="850.8" cy="163.7" r="2.2"/>
  <circle cx="862.1" cy="163.7" r="2.2"/>
</g>
<g class="pl" fill="#FFF" stroke="#404040" stroke-width="0.900" clip-path="url(#axis_clip)">
  <circle cx="162.5" cy="488.4" r="5.4"/>
  <circle cx="275.4" cy="404.4" r="5.4"/>
  <circle cx="388.2" cy="355.2" r="5.4"/>
  <circle cx="501.0" cy="322.9" r="5.4"/>
  <circle cx="613.8" cy="235.9" r="5.4"/>
  <circle cx="726.7" cy="198.8" r="5.4"/>
  <circle cx="839.5" cy="179.3" r="5.4"/>
</g>
<polyline class="pl" points="140.0,587.2 151.2,587.2 162.5,587.2 173.8,587.2 185.1,587.2 196.4,587.2 207.7,587.2 218.9,587.2 230.2,587.2 241.5,587.2 252.8,587.2 264.1,587.2 275.4,582.8 286.6,581.6 297.9,578.2 309.2,576.4 320.5,574.9 331.8,574.3 343.1,551.2 354.3,528.9 365.6,529.8 376.9,544.4 388.2,548.3 399.5,541.1 410.7,504.8 422.0,497.8 433.3,467.9 444.6,440.7 455.9,411.5 467.2,418.4 478.4,402.0 489.7,397.4 501.0,434.9 512.3,417.6 523.6,407.6 534.9,413.0 546.1,424.8 557.4,437.6 568.7,414.3 580.0,389.4 591.3,416.6 602.6,391.6 613.8,384.8 625.1,364.4 636.4,376.9 647.7,405.4 659.0,432.4 670.3,425.8 681.5,426.1 692.8,411.0 704.1,420.6 715.4,428.1 726.7,408.4 738.0,424.5 749.2,409.2 760.5,408.6 771.8,403.7 783.1,410.1 794.4,418.8 805.7,405.5 816.9,418.7 828.2,411.4 839.5,419.8 850.8,444.4 862.1,451.7" stroke="#6298C6" stroke-width="5.40" stroke-opacity="1.00" fill="none" clip-path="url(#axis_clip)"/>
<g class="pl" fill="#FFF" stroke="#6298C6" stroke-width="0.900" clip-path="url(#axis_clip)">
  <circle cx="151.2" cy="587.2" r="2.2"/>
  <circle cx="173.8" cy="587.2" r="2.2"/>
  <circle cx="185.1" cy="587.2" r="2.2"/>
  <circle cx="196.4" cy="587.2" r="2.2"/>
  <circle cx="207.7" cy="587.2" r="2.2"/>
  <circle cx="218.9" cy="587.2" r="2.2"/>
  <circle cx="230.2" cy="587.2" r="2.2"/>
  <circle cx="241.5" cy="587.2" r="2.2"/>
  <circle cx="252.8" cy="587.2" r="2.2"/>
  <circle cx="264.1" cy="587.2" r="2.2"/>
  <circle cx="286.6" cy="581.6" r="2.2"/>
  <circle cx="297.9" cy="578.2" r="2.2"/>
  <circle cx="309.2" cy="576.4" r="2.2"/>
  <circle cx="320.5" cy="574.9" r="2.2"/>
  <circle cx="331.8" cy="574.3" r="2.2"/>
  <circle cx="343.1" cy="551.2" r="2.2"/>
  <circle cx="354.3" cy="528.9" r="2.2"/>
  <circle cx="365.6" cy="529.8" r="2.2"/>
  <circle cx="376.9" cy="544.4" r="2.2"/>
  <circle cx="399.5" cy="541.1" r="2.2"/>
  <circle cx="410.7" cy="504.8" r="2.2"/>
  <circle cx="422.0" cy="497.8" r="2.2"/>
  <circle cx="433.3" cy="467.9" r="2.2"/>
  <circle cx="444.6" cy="440.7" r="2.2"/>
  <circle cx="455.9" cy="411.5" r="2.2"/>
  <circle cx="467.2" cy="418.4" r="2.2"/>
  <circle cx="478.4" cy="402.0" r="2.2"/>
  <circle cx="489.7" cy="397.4" r="2.2"/>
  <circle cx="512.3" cy="417.6" r="2.2"/>
  <circle cx="523.6" cy="407.6" r="2.2"/>
  <circle cx="534.9" cy="413.0" r="2.2"/>
  <circle cx="546.1" cy="424.8" r="2.2"/>
  <circle cx="557.4" cy="437.6" r="2.2"/>
  <circle cx="568.7" cy="414.3" r="2.2"/>
  <circle cx="580.0" cy="389.4" r="2.2"/>
  <circle cx="591.3" cy="416.6" r="2.2"/>
  <circle cx="602.6" cy="391.6" r="2.2"/>
  <circle cx="625.1" cy="364.4" r="2.2"/>
  <circle cx="636.4" cy="376.9" r="2.2"/>
  <circle cx="647.7" cy="405.4" r="2.2"/>
  <circle cx="659.0" cy="432.4" r="2.2"/>
  <circle cx="670.3" cy="425.8" r="2.2"/>
  <circle cx="681.5" cy="426.1" r="2.2"/>
  <circle cx="692.8" cy="411.0" r="2.2"/>
  <circle cx="704.1" cy="420.6" r="2.2"/>
  <circle cx="715.4" cy="428.1" r="2.2"/>
  <circle cx="738.0" cy="424.5" r="2.2"/>
  <circle cx="749.2" cy="409.2" r="2.2"/>
  <circle cx="760.5" cy="408.6" r="2.2"/>
  <circle cx="771.8" cy="403.7" r="2.2"/>
  <circle cx="783.1" cy="410.1" r="2.2"/>
  <circle cx="794.4" cy="418.8" r="2.2"/>
  <circle cx="805.7" cy="405.5" r="2.2"/>
  <circle cx="816.9" cy="418.7" r="2.2"/>
  <circle cx="828.2" cy="411.4" r="2.2"/>
  <circle cx="850.8" cy="444.4" r="2.2"/>
  <circle cx="862.1" cy="451.7" r="2.2"/>
</g>
<g class="pl" fill="#FFF" stroke="#6298C6" stroke-width="0.900" clip-path="url(#axis_clip)">
  <circle cx="162.5" cy="587.2" r="5.4"/>
  <circle cx="275.4" cy="582.8" r="5.4"/>
  <circle cx="388.2" cy="548.3" r="5.4"/>
  <circle cx="501.0" cy="434.9" r="5.4"/>
  <circle cx="613.8" cy="384.8" r="5.4"/>
  <circle cx="726.7" cy="408.4" r="5.4"/>
  <circle cx="839.5" cy="419.8" r="5.4"/>
</g>
<polyline class="pl" points="140.0,581.3 151.2,581.3 162.5,580.7 173.8,580.3 185.1,580.5 196.4,579.6 207.7,578.9 218.9,578.3 230.2,578.0 241.5,578.6 252.8,579.1 264.1,578.7 275.4,578.4 286.6,578.4 297.9,577.5 309.2,575.7 320.5,575.0 331.8,575.3 343.1,576.0 354.3,576.9 365.6,578.0 376.9,578.5 388.2,578.8 399.5,576.7 410.7,577.9 422.0,578.1 433.3,577.2 444.6,575.3 455.9,576.0 467.2,576.2 478.4,577.0 489.7,578.0 501.0,577.6 512.3,577.8 523.6,577.0 534.9,576.7 546.1,576.6 557.4,575.7 568.7,576.3 580.0,575.8 591.3,576.7 602.6,575.8 613.8,575.9 625.1,575.8 636.4,575.4 647.7,575.8 659.0,576.8 670.3,574.9 681.5,575.6 692.8,572.5 704.1,573.5 715.4,574.7 726.7,575.3 738.0,575.9 749.2,575.0 760.5,574.7 771.8,574.0 783.1,573.9 794.4,576.8 805.7,577.7 816.9,578.3 828.2,578.4 839.5,579.1 850.8,579.3 862.1,579.3" stroke="#666" stroke-width="5.40" stroke-opacity="1.00" fill="none" clip-path="url(#axis_clip)"/>
<g class="pl" fill="#FFF" stroke="#666" stroke-width="0.900" clip-path="url(#axis_clip)">
  <circle cx="151.2" cy="581.3" r="2.2"/>
  <circle cx="173.8" cy="580.3" r="2.2"/>
  <circle cx="185.1" cy="580.5" r="2.2"/>
  <circle cx="196.4" cy="579.6" r="2.2"/>
  <circle cx="207.7" cy="578.9" r="2.2"/>
  <circle cx="218.9" cy="578.3" r="2.2"/>
  <circle cx="230.2" cy="578.0" r="2.2"/>
  <circle cx="241.5" cy="578.6" r="2.2"/>
  <circle cx="252.8" cy="579.1" r="2.2"/>
  <circle cx="264.1" cy="578.7" r="2.2"/>
  <circle cx="286.6" cy="578.4" r="2.2"/>
  <circle cx="297.9" cy="577.5" r="2.2"/>
  <circle cx="309.2" cy="575.7" r="2.2"/>
  <circle cx="320.5" cy="575.0" r="2.2"/>
  <circle cx="331.8" cy="575.3" r="2.2"/>
  <circle cx="343.1" cy="576.0" r="2.2"/>
  <circle cx="354.3" cy="576.9" r="2.2"/>
  <circle cx="365.6" cy="578.0" r="2.2"/>
  <circle cx="376.9" cy="578.5" r="2.2"/>
  <circle cx="399.5" cy="576.7" r="2.2"/>
  <circle cx="410.7" cy="577.9" r="2.2"/>
  <circle cx="422.0" cy="578.1" r="2.2"/>
  <circle cx="433.3" cy="577.2" r="2.2"/>
  <circle cx="444.6" cy="575.3" r="2.2"/>
  <circle cx="455.9" cy="576.0" r="2.2"/>
  <circle cx="467.2" cy="576.2" r="2.2"/>
  <circle cx="478.4" cy="577.0" r="2.2"/>
  <circle cx="489.7" cy="578.0" r="2.2"/>
  <circle cx="512.3" cy="577.8" r="2.2"/>
  <circle cx="523.6" cy="577.0" r="2.2"/>
  <circle cx="534.9" cy="576.7" r="2.2"/>
  <circle cx="546.1" cy="576.6" r="2.2"/>
  <circle cx="557.4" cy="575.7" r="2.2"/>
  <circle cx="568.7" cy="576.3" r="2.2"/>
  <circle cx="580.0" cy="575.8" r="2.2"/>
  <circle cx="591.3" cy="576.7" r="2.2"/>
  <circle cx="602.6" cy="575.8" r="2.2"/>
  <circle cx="625.1" cy="575.8" r="2.2"/>
  <circle cx="636.4" cy="575.4" r="2.2"/>
  <circle cx="647.7" cy="575.8" r="2.2"/>
  <circle cx="659.0" cy="576.8" r="2.2"/>
  <circle cx="670.3" cy="574.9" r="2.2"/>
  <circle cx="681.5" cy="575.6" r="2.2"/>
  <circle cx="692.8" cy="572.5" r="2.2"/>
  <circle cx="704.1" cy="573.5" r="2.2"/>
  <circle cx="715.4" cy="574.7" r="2.2"/>
  <circle cx="738.0" cy="575.9" r="2.2"/>
  <circle cx="749.2" cy="575.0" r="2.2"/>
  <circle cx="760.5" cy="574.7" r="2.2"/>
  <circle cx="771.8" cy="574.0" r="2.2"/>
  <circle cx="783.1" cy="573.9" r="2.2"/>
  <circle cx="794.4" cy="576.8" r="2.2"/>
  <circle cx="805.7" cy="577.7" r="2.2"/>
  <circle cx="816.9" cy="578.3" r="2.2"/>
  <circle cx="828.2" cy="578.4" r="2.2"/>
  <circle cx="850.8" cy="579.3" r="2.2"/>
  <circle cx="862.1" cy="579.3" r="2.2"/>
</g>
<g class="pl" fill="#FFF" stroke="#666" stroke-width="0.900" clip-path="url(#axis_clip)">
  <circle cx="162.5" cy="580.7" r="5.4"/>
  <circle cx="275.4" cy="578.4" r="5.4"/>
  <circle cx="388.2" cy="578.8" r="5.4"/>
  <circle cx="501.0" cy="577.6" r="5.4"/>
  <circle cx="613.8" cy="575.9" r="5.4"/>
  <circle cx="726.7" cy="575.3" r="5.4"/>
  <circle cx="839.5" cy="579.1" r="5.4"/>
</g>
<text transform="translate(925.2,493.1)" dy="8.1" font-size="27.00" fill="#7B553E" stroke="none">Coal 4.4</text>
<text transform="translate(925.2,163.7)" dy="8.1" font-size="27.00" fill="#404040" stroke="none">Oil 19.9</text>
<text transform="translate(925.2,451.7)" dy="8.1" font-size="27.00" fill="#6298C6" stroke="none">Gas 6.4</text>
<text transform="translate(925.2,579.3)" dy="8.1" font-size="27.00" fill="#666" stroke="none">Cement 0.4</text>
<text transform="translate(925.2,140.8)" dy="0.0" font-size="19.80" fill="#404040" stroke="none">Mt CO<tspan dy="0.2em"><tspan style="font-size:70%">2</tspan></tspan><tspan dy="-0.2em"> </tspan>in 2022</text>
<g stroke="none" stroke-width="0.9000"  >
  <polygon points="1036.2,486.4 1045.8,499.9 1055.4,486.4 1036.2,486.4" fill="#7B553E"/>
</g>
<text transform="translate(1060.2,495.1)" dy="5.4" font-size="18.00" fill="#7B553E" stroke="none">28.6%</text>
<g stroke="none" stroke-width="0.9000"  >
  <polygon points="1028.7,162.4 1047.9,162.4 1047.9,165.1 1028.7,165.1" fill="#404040"/>
</g>
<text transform="translate(1052.7,164.4)" dy="5.4" font-size="18.00" fill="#404040" stroke="none">nc</text>
<g stroke="none" stroke-width="0.9000"  >
  <polygon points="1029.7,444.9 1039.3,458.4 1048.9,444.9 1029.7,444.9" fill="#6298C6"/>
</g>
<text transform="translate(1053.7,453.7)" dy="5.4" font-size="18.00" fill="#6298C6" stroke="none">5.1%</text>
<g stroke="none" stroke-width="0.9000"  >
  <polygon points="1075.0,572.5 1084.6,586.0 1094.2,572.5 1075.0,572.5" fill="#666"/>
</g>
<text transform="translate(1099.0,581.3)" dy="5.4" font-size="18.00" fill="#666" stroke="none">0.0%</text>
<text transform="translate(145.6,47.2)" dy="0.0" font-size="27.00" fill="#808080" stroke="none">Annual Fossil CO<tspan dy="0.2em"><tspan style="font-size:70%">2</tspan></tspan><tspan dy="-0.2em"> </tspan>Emissions in New Zealand</text>
<text transform="translate(130.0,81.6)" dy="8.1" font-size="27.00" fill="#808080" stroke="none" text-anchor="end">CO<tspan dy="0.2em"><tspan style="font-size:70%">2</tspan></tspan><tspan dy="-0.2em"></tspan></text>
<text transform="translate(157.6,60.7)" dy="18.0" font-size="18.00" fill="#808080" stroke="none">Total emissions growth in 2022: -6.1%</text>
<text transform="translate(160.2,666.1)" font-size="19.80" font-family="Helvetica" fill="#BFBFBF" stroke="none" xml:space="preserve">Global Carbon Project</text>
<g>
  <rect x="123.0" y="651.4" width="34" height="17" fill="#FFF" stroke="none"/>
  <g transform="translate(124.0,652.4) scale(0.24)">
  <g><circle fill="#FFF" cx="37.79" cy="28.5" r="28.84"/>
     <circle fill="none" cx="37.79" cy="28.5" r="28.84" stroke="#BFBFBF" stroke-width="5.5"/>
     <path fill="#BFBFBF" d="M37.16,23.19 l-4.29,2.23c-0.458-0.951-1.02-1.62-1.69-2c-0.667-0.38-1.29-0.571-1.86-0.571c-2.86,0-4.29,1.89-4.29,5.66 c0,1.71,0.36,3.08,1.09,4.11c0.724,1.03,1.79,1.54,3.2,1.54c1.87,0,3.18-0.915,3.94-2.74l3.94,2 c-0.838,1.56-2,2.79-3.49,3.69c-1.48,0.896-3.12,1.34-4.91,1.34c-2.86,0-5.16-0.875-6.92-2.63 c-1.75-1.75-2.63-4.19-2.63-7.31c0-3.05,0.886-5.47,2.66-7.26c1.77-1.79,4.01-2.69,6.72-2.69 C32.6,18.56,35.44,20.1,37.16,23.19z
              M55.61,23.19l-4.23,2.23c-0.457-0.951-1.02-1.62-1.69-2 c-0.668-0.38-1.31-0.571-1.91-0.571c-2.86,0-4.29,1.89-4.29,5.66c0,1.71,0.363,3.08,1.09,4.11 c0.723,1.03,1.79,1.54,3.2,1.54c1.87,0,3.18-0.915,3.94-2.74l4,2c-0.875,1.56-2.06,2.79-3.54,3.69 c-1.49,0.9-3.11,1.34-4.86,1.34c-2.9,0-5.21-0.875-6.94-2.63c-1.74-1.75-2.6-4.19-2.6-7.31 c0-3.05,0.885-5.47,2.66-7.26c1.77-1.79,4.01-2.69,6.71-2.69C51.12,18.56,53.944,20.1,55.61,23.19z"/>
  </g></g>
  <g transform="translate(140.2,652.4) scale(0.24)">
  <g><circle fill="#FFF" cx="37.79" cy="28.5" r="28.84"/>
     <circle fill="none" cx="37.79" cy="28.5" r="28.84" stroke="#BFBFBF" stroke-width="5.5"/>
     <path fill="#BFBFBF" d="M46.129,20.557v13.085h-3.656v15.542h-9.944V33.643h-3.656V20.557 c0-0.572,0.2-1.057,0.599-1.457c0.401-0.399,0.887-0.6,1.457-0.6h13.144c0.533,0,1.01,0.2,1.428,0.6 C45.918,19.5,46.129,19.986,46.129,20.557z
              M33.042,12.329c0-3.008,1.485-4.514,4.458-4.514s4.457,1.504,4.457,4.514 c0,2.971-1.486,4.457-4.457,4.457S33.042,15.3,33.042,12.329z"/>
  </g></g>
</g>
</g>
</svg>
