<svg version="1.1" xmlns="http://www.w3.org/2000/svg" xmlns:xlink="http://www.w3.org/1999/xlink" width="100%" height="100%" viewBox="0 0 1200.000 674.916">
<title>Annual energy consumption Taiwan</title>
<style type="text/css">
  #main {font-family:Helvetica,Arial,sans-serif; font-size:27.00px;
         fill-opacity:1; fill:#000000; stroke:none; stroke-linejoin:round; stroke-linecap:round; stroke-width:1.00;}
  .marker {stroke-opacity:0;fill-opacity:0;}
  .marker:hover {stroke-opacity:0.5; fill-opacity:1;}
  .ticklabel {font-size:27.00px;fill:#808080;stroke:none;font-family:Helvetica}
  .ytl {text-anchor:end;}
  .dp1 {pointer-events:none;font-size:70%;text-anchor:middle;fill:#000000;}
  .dp2 {pointer-events:none;font-size:70%;text-anchor:middle;fill:#FFFFFF;}
  .numtip {pointer-events:none;}
  .cc {opacity:0.25;}
.dl_fe {background-color:#FDFFDF;display:flex;margin:auto;align-items:center}
.dl_fe_p {font-size:20px;text-align:center;margin:3px}
.dl_el {display:none;pointer-events:none;}
.cc:hover + .dl_el {display:block;}
text:hover + .dl_el {display:block;}
</style>
<defs>
  <clipPath id="axis_clip"><rect x="145.8" y="54.2" width="761.2" height="532.8" /></clipPath>
  <path id="line_x" d="M 145.600,0 h 761.600" stroke="#262626" stroke-opacity="0.15" stroke-width="1.00"/>
  <path id="tick_y" d="M 145.600,0 h -6.000" stroke="#808080" stroke-width="0.90"/>
  <path id="tick_x" d="M 0,587.177 v 6.000" stroke="#808080" stroke-width="0.90"/>
</defs>
<g id="main">
<use xlink:href="#line_x" transform="translate(0,587.2)"/>
<use xlink:href="#line_x" transform="translate(0,480.5)"/>
<use xlink:href="#line_x" transform="translate(0,373.9)"/>
<use xlink:href="#line_x" transform="translate(0,267.3)"/>
<use xlink:href="#line_x" transform="translate(0,160.6)"/>
<use xlink:href="#line_x" transform="translate(0,54.0)"/>
<use xlink:href="#tick_y" transform="translate(0,587.2)"/>
<use xlink:href="#tick_y" transform="translate(0,480.5)"/>
<use xlink:href="#tick_y" transform="translate(0,373.9)"/>
<use xlink:href="#tick_y" transform="translate(0,267.3)"/>
<use xlink:href="#tick_y" transform="translate(0,160.6)"/>
<use xlink:href="#tick_y" transform="translate(0,54.0)"/>
<use xlink:href="#tick_x" transform="translate(163.5,0)"/>
<use xlink:href="#tick_x" transform="translate(282.5,0)"/>
<use xlink:href="#tick_x" transform="translate(401.5,0)"/>
<use xlink:href="#tick_x" transform="translate(520.5,0)"/>
<use xlink:href="#tick_x" transform="translate(639.5,0)"/>
<use xlink:href="#tick_x" transform="translate(758.5,0)"/>
<use xlink:href="#tick_x" transform="translate(901.3,0)"/>
<polyline points="145.6,53.993 145.6,587.177 907.2,587.177" stroke="#808080" stroke-width="0.90" fill="none"/>
<text class="ticklabel xtl" transform="translate(163.5,629.0)" text-anchor="middle">1960</text>
<text class="ticklabel xtl" transform="translate(282.5,629.0)" text-anchor="middle">1970</text>
<text class="ticklabel xtl" transform="translate(401.5,629.0)" text-anchor="middle">1980</text>
<text class="ticklabel xtl" transform="translate(520.5,629.0)" text-anchor="middle">1990</text>
<text class="ticklabel xtl" transform="translate(639.5,629.0)" text-anchor="middle">2000</text>
<text class="ticklabel xtl" transform="translate(758.5,629.0)" text-anchor="middle">2010</text>
<text class="ticklabel xtl" transform="translate(901.3,629.0)" text-anchor="middle">2022</text>
<text class="ticklabel ytl" transform="translate(128.8,595.3)">0</text>
<text class="ticklabel ytl" transform="translate(128.8,488.6)">0.5</text>
<text class="ticklabel ytl" transform="translate(128.8,382.0)">1.0</text>
<text class="ticklabel ytl" transform="translate(128.8,275.4)">1.5</text>
<text class="ticklabel ytl" transform="translate(128.8,168.7)">2.0</text>
<text class="ticklabel ytl" transform="translate(128.8,62.1)">2.5 EJ</text>
<polyline class="pl" points="508.6,586.8 520.5,586.7 532.4,586.6 544.3,586.5 556.2,586.6 568.1,586.4 580.0,586.0 591.9,585.7 603.8,584.2 615.7,583.7 627.6,582.8 639.5,582.0 651.4,580.7 663.3,580.0 675.2,578.9 687.1,578.9 699.0,578.9 710.9,578.8 722.8,578.5 734.7,578.4 746.6,579.1 758.5,578.6 770.4,578.7 782.3,578.7 794.2,578.8 806.1,578.6 818.0,578.5 829.9,578.8 841.8,579.2 853.7,578.8 865.6,578.8 877.5,578.9 889.4,578.9 901.3,578.9" stroke="#FDBF6F" stroke-width="5.40" stroke-opacity="1.00" fill="none" clip-path="url(#axis_clip)"/>
<g class="pl" fill="#FFF" stroke="#FDBF6F" stroke-width="0.900" clip-path="url(#axis_clip)">
  <circle cx="508.6" cy="586.8" r="2.2"/>
  <circle cx="532.4" cy="586.6" r="2.2"/>
  <circle cx="544.3" cy="586.5" r="2.2"/>
  <circle cx="556.2" cy="586.6" r="2.2"/>
  <circle cx="568.1" cy="586.4" r="2.2"/>
  <circle cx="580.0" cy="586.0" r="2.2"/>
  <circle cx="591.9" cy="585.7" r="2.2"/>
  <circle cx="603.8" cy="584.2" r="2.2"/>
  <circle cx="615.7" cy="583.7" r="2.2"/>
  <circle cx="627.6" cy="582.8" r="2.2"/>
  <circle cx="651.4" cy="580.7" r="2.2"/>
  <circle cx="663.3" cy="580.0" r="2.2"/>
  <circle cx="675.2" cy="578.9" r="2.2"/>
  <circle cx="687.1" cy="578.9" r="2.2"/>
  <circle cx="699.0" cy="578.9" r="2.2"/>
  <circle cx="710.9" cy="578.8" r="2.2"/>
  <circle cx="722.8" cy="578.5" r="2.2"/>
  <circle cx="734.7" cy="578.4" r="2.2"/>
  <circle cx="746.6" cy="579.1" r="2.2"/>
  <circle cx="770.4" cy="578.7" r="2.2"/>
  <circle cx="782.3" cy="578.7" r="2.2"/>
  <circle cx="794.2" cy="578.8" r="2.2"/>
  <circle cx="806.1" cy="578.6" r="2.2"/>
  <circle cx="818.0" cy="578.5" r="2.2"/>
  <circle cx="829.9" cy="578.8" r="2.2"/>
  <circle cx="841.8" cy="579.2" r="2.2"/>
  <circle cx="853.7" cy="578.8" r="2.2"/>
  <circle cx="865.6" cy="578.8" r="2.2"/>
  <circle cx="889.4" cy="578.9" r="2.2"/>
  <circle cx="901.3" cy="578.9" r="2.2"/>
</g>
<g class="pl" fill="#FFF" stroke="#FDBF6F" stroke-width="0.900" clip-path="url(#axis_clip)">
  <circle cx="520.5" cy="586.7" r="5.4"/>
  <circle cx="639.5" cy="582.0" r="5.4"/>
  <circle cx="758.5" cy="578.6" r="5.4"/>
  <circle cx="877.5" cy="578.9" r="5.4"/>
</g>
<polyline class="pl" points="294.4,587.2 306.3,587.2 318.2,587.2 330.1,587.2 342.0,587.2 353.9,587.2 365.8,587.2 377.7,587.2 389.6,587.2 401.5,587.2 413.4,587.2 425.3,587.2 437.2,587.2 449.1,587.2 461.0,587.2 472.9,587.2 484.8,587.2 496.7,587.2 508.6,586.7 520.5,586.7 532.4,586.6 544.3,586.5 556.2,586.6 568.1,586.5 580.0,586.2 591.9,586.0 603.8,585.9 615.7,585.7 627.6,585.3 639.5,584.6 651.4,583.9 663.3,583.3 675.2,582.8 687.1,582.6 699.0,582.6 710.9,582.6 722.8,582.6 734.7,582.7 746.6,582.9 758.5,582.7 770.4,582.7 782.3,582.7 794.2,582.6 806.1,582.5 818.0,582.4 829.9,582.5 841.8,582.6 853.7,582.4 865.6,582.3 877.5,582.3 889.4,582.3 901.3,582.3" stroke="#E78AC3" stroke-width="5.40" stroke-opacity="1.00" fill="none" clip-path="url(#axis_clip)"/>
<g class="pl" fill="#FFF" stroke="#E78AC3" stroke-width="0.900" clip-path="url(#axis_clip)">
  <circle cx="294.4" cy="587.2" r="2.2"/>
  <circle cx="306.3" cy="587.2" r="2.2"/>
  <circle cx="318.2" cy="587.2" r="2.2"/>
  <circle cx="330.1" cy="587.2" r="2.2"/>
  <circle cx="342.0" cy="587.2" r="2.2"/>
  <circle cx="353.9" cy="587.2" r="2.2"/>
  <circle cx="365.8" cy="587.2" r="2.2"/>
  <circle cx="377.7" cy="587.2" r="2.2"/>
  <circle cx="389.6" cy="587.2" r="2.2"/>
  <circle cx="413.4" cy="587.2" r="2.2"/>
  <circle cx="425.3" cy="587.2" r="2.2"/>
  <circle cx="437.2" cy="587.2" r="2.2"/>
  <circle cx="449.1" cy="587.2" r="2.2"/>
  <circle cx="461.0" cy="587.2" r="2.2"/>
  <circle cx="472.9" cy="587.2" r="2.2"/>
  <circle cx="484.8" cy="587.2" r="2.2"/>
  <circle cx="496.7" cy="587.2" r="2.2"/>
  <circle cx="508.6" cy="586.7" r="2.2"/>
  <circle cx="532.4" cy="586.6" r="2.2"/>
  <circle cx="544.3" cy="586.5" r="2.2"/>
  <circle cx="556.2" cy="586.6" r="2.2"/>
  <circle cx="568.1" cy="586.5" r="2.2"/>
  <circle cx="580.0" cy="586.2" r="2.2"/>
  <circle cx="591.9" cy="586.0" r="2.2"/>
  <circle cx="603.8" cy="585.9" r="2.2"/>
  <circle cx="615.7" cy="585.7" r="2.2"/>
  <circle cx="627.6" cy="585.3" r="2.2"/>
  <circle cx="651.4" cy="583.9" r="2.2"/>
  <circle cx="663.3" cy="583.3" r="2.2"/>
  <circle cx="675.2" cy="582.8" r="2.2"/>
  <circle cx="687.1" cy="582.6" r="2.2"/>
  <circle cx="699.0" cy="582.6" r="2.2"/>
  <circle cx="710.9" cy="582.6" r="2.2"/>
  <circle cx="722.8" cy="582.6" r="2.2"/>
  <circle cx="734.7" cy="582.7" r="2.2"/>
  <circle cx="746.6" cy="582.9" r="2.2"/>
  <circle cx="770.4" cy="582.7" r="2.2"/>
  <circle cx="782.3" cy="582.7" r="2.2"/>
  <circle cx="794.2" cy="582.6" r="2.2"/>
  <circle cx="806.1" cy="582.5" r="2.2"/>
  <circle cx="818.0" cy="582.4" r="2.2"/>
  <circle cx="829.9" cy="582.5" r="2.2"/>
  <circle cx="841.8" cy="582.6" r="2.2"/>
  <circle cx="853.7" cy="582.4" r="2.2"/>
  <circle cx="865.6" cy="582.3" r="2.2"/>
  <circle cx="889.4" cy="582.3" r="2.2"/>
  <circle cx="901.3" cy="582.3" r="2.2"/>
</g>
<g class="pl" fill="#FFF" stroke="#E78AC3" stroke-width="0.900" clip-path="url(#axis_clip)">
  <circle cx="401.5" cy="587.2" r="5.4"/>
  <circle cx="520.5" cy="586.7" r="5.4"/>
  <circle cx="639.5" cy="584.6" r="5.4"/>
  <circle cx="758.5" cy="582.7" r="5.4"/>
  <circle cx="877.5" cy="582.3" r="5.4"/>
</g>
<g class="pl" fill="#FFF" stroke="#8DA0CB" stroke-width="0.900" clip-path="url(#axis_clip)">
</g>
<g class="pl" fill="#FFF" stroke="#8DA0CB" stroke-width="0.900" clip-path="url(#axis_clip)">
</g>
<polyline class="pl" points="223.0,587.2 234.9,587.2 246.8,587.2 258.7,587.2 270.6,587.2 282.5,587.2 294.4,587.2 306.3,587.2 318.2,587.2 330.1,587.2 342.0,587.2 353.9,587.2 365.8,587.0 377.7,581.4 389.6,573.4 401.5,569.3 413.4,563.9 425.3,558.7 437.2,546.0 449.1,533.6 461.0,524.6 472.9,528.5 484.8,515.0 496.7,520.4 508.6,525.6 520.5,515.6 532.4,510.3 544.3,513.4 556.2,512.3 568.1,511.2 580.0,510.2 591.9,504.9 603.8,508.2 615.7,506.9 627.6,504.4 639.5,503.3 651.4,510.4 663.3,502.1 675.2,504.1 687.1,503.3 699.0,502.8 710.9,503.6 722.8,502.7 734.7,502.7 746.6,501.6 758.5,502.0 770.4,501.6 782.3,505.5 794.2,503.6 806.1,502.6 818.0,514.8 829.9,524.7 841.8,543.2 853.7,533.2 865.6,524.4 877.5,526.3 889.4,533.6 901.3,541.5" stroke="#FC8D62" stroke-width="5.40" stroke-opacity="1.00" fill="none" clip-path="url(#axis_clip)"/>
<g class="pl" fill="#FFF" stroke="#FC8D62" stroke-width="0.900" clip-path="url(#axis_clip)">
  <circle cx="223.0" cy="587.2" r="2.2"/>
  <circle cx="234.9" cy="587.2" r="2.2"/>
  <circle cx="246.8" cy="587.2" r="2.2"/>
  <circle cx="258.7" cy="587.2" r="2.2"/>
  <circle cx="270.6" cy="587.2" r="2.2"/>
  <circle cx="294.4" cy="587.2" r="2.2"/>
  <circle cx="306.3" cy="587.2" r="2.2"/>
  <circle cx="318.2" cy="587.2" r="2.2"/>
  <circle cx="330.1" cy="587.2" r="2.2"/>
  <circle cx="342.0" cy="587.2" r="2.2"/>
  <circle cx="353.9" cy="587.2" r="2.2"/>
  <circle cx="365.8" cy="587.0" r="2.2"/>
  <circle cx="377.7" cy="581.4" r="2.2"/>
  <circle cx="389.6" cy="573.4" r="2.2"/>
  <circle cx="413.4" cy="563.9" r="2.2"/>
  <circle cx="425.3" cy="558.7" r="2.2"/>
  <circle cx="437.2" cy="546.0" r="2.2"/>
  <circle cx="449.1" cy="533.6" r="2.2"/>
  <circle cx="461.0" cy="524.6" r="2.2"/>
  <circle cx="472.9" cy="528.5" r="2.2"/>
  <circle cx="484.8" cy="515.0" r="2.2"/>
  <circle cx="496.7" cy="520.4" r="2.2"/>
  <circle cx="508.6" cy="525.6" r="2.2"/>
  <circle cx="532.4" cy="510.3" r="2.2"/>
  <circle cx="544.3" cy="513.4" r="2.2"/>
  <circle cx="556.2" cy="512.3" r="2.2"/>
  <circle cx="568.1" cy="511.2" r="2.2"/>
  <circle cx="580.0" cy="510.2" r="2.2"/>
  <circle cx="591.9" cy="504.9" r="2.2"/>
  <circle cx="603.8" cy="508.2" r="2.2"/>
  <circle cx="615.7" cy="506.9" r="2.2"/>
  <circle cx="627.6" cy="504.4" r="2.2"/>
  <circle cx="651.4" cy="510.4" r="2.2"/>
  <circle cx="663.3" cy="502.1" r="2.2"/>
  <circle cx="675.2" cy="504.1" r="2.2"/>
  <circle cx="687.1" cy="503.3" r="2.2"/>
  <circle cx="699.0" cy="502.8" r="2.2"/>
  <circle cx="710.9" cy="503.6" r="2.2"/>
  <circle cx="722.8" cy="502.7" r="2.2"/>
  <circle cx="734.7" cy="502.7" r="2.2"/>
  <circle cx="746.6" cy="501.6" r="2.2"/>
  <circle cx="770.4" cy="501.6" r="2.2"/>
  <circle cx="782.3" cy="505.5" r="2.2"/>
  <circle cx="794.2" cy="503.6" r="2.2"/>
  <circle cx="806.1" cy="502.6" r="2.2"/>
  <circle cx="818.0" cy="514.8" r="2.2"/>
  <circle cx="829.9" cy="524.7" r="2.2"/>
  <circle cx="841.8" cy="543.2" r="2.2"/>
  <circle cx="853.7" cy="533.2" r="2.2"/>
  <circle cx="865.6" cy="524.4" r="2.2"/>
  <circle cx="889.4" cy="533.6" r="2.2"/>
  <circle cx="901.3" cy="541.5" r="2.2"/>
</g>
<g class="pl" fill="#FFF" stroke="#FC8D62" stroke-width="0.900" clip-path="url(#axis_clip)">
  <circle cx="282.5" cy="587.2" r="5.4"/>
  <circle cx="401.5" cy="569.3" r="5.4"/>
  <circle cx="520.5" cy="515.6" r="5.4"/>
  <circle cx="639.5" cy="503.3" r="5.4"/>
  <circle cx="758.5" cy="502.0" r="5.4"/>
  <circle cx="877.5" cy="526.3" r="5.4"/>
</g>
<polyline class="pl" points="223.0,581.3 234.9,581.1 246.8,581.2 258.7,578.4 270.6,580.2 282.5,580.7 294.4,580.2 306.3,578.9 318.2,579.5 330.1,576.5 342.0,575.2 353.9,577.5 365.8,578.0 377.7,575.9 389.6,576.8 401.5,580.5 413.4,576.3 425.3,576.3 437.2,575.9 449.1,577.2 461.0,573.6 472.9,573.3 484.8,574.7 496.7,576.6 508.6,576.1 520.5,572.7 532.4,578.4 544.3,572.3 556.2,577.8 568.1,575.7 580.0,576.2 591.9,576.4 603.8,575.3 615.7,573.1 627.6,575.7 639.5,576.8 651.4,575.7 663.3,580.9 675.2,580.4 687.1,580.1 699.0,578.2 710.9,578.2 722.8,577.6 734.7,577.9 746.6,579.1 758.5,578.2 770.4,578.7 782.3,575.2 794.2,575.8 806.1,578.2 818.0,577.9 829.9,573.7 841.8,576.0 853.7,578.1 865.6,576.0 877.5,581.1 889.4,580.2 901.3,575.5" stroke="#66C2A5" stroke-width="5.40" stroke-opacity="1.00" fill="none" clip-path="url(#axis_clip)"/>
<g class="pl" fill="#FFF" stroke="#66C2A5" stroke-width="0.900" clip-path="url(#axis_clip)">
  <circle cx="223.0" cy="581.3" r="2.2"/>
  <circle cx="234.9" cy="581.1" r="2.2"/>
  <circle cx="246.8" cy="581.2" r="2.2"/>
  <circle cx="258.7" cy="578.4" r="2.2"/>
  <circle cx="270.6" cy="580.2" r="2.2"/>
  <circle cx="294.4" cy="580.2" r="2.2"/>
  <circle cx="306.3" cy="578.9" r="2.2"/>
  <circle cx="318.2" cy="579.5" r="2.2"/>
  <circle cx="330.1" cy="576.5" r="2.2"/>
  <circle cx="342.0" cy="575.2" r="2.2"/>
  <circle cx="353.9" cy="577.5" r="2.2"/>
  <circle cx="365.8" cy="578.0" r="2.2"/>
  <circle cx="377.7" cy="575.9" r="2.2"/>
  <circle cx="389.6" cy="576.8" r="2.2"/>
  <circle cx="413.4" cy="576.3" r="2.2"/>
  <circle cx="425.3" cy="576.3" r="2.2"/>
  <circle cx="437.2" cy="575.9" r="2.2"/>
  <circle cx="449.1" cy="577.2" r="2.2"/>
  <circle cx="461.0" cy="573.6" r="2.2"/>
  <circle cx="472.9" cy="573.3" r="2.2"/>
  <circle cx="484.8" cy="574.7" r="2.2"/>
  <circle cx="496.7" cy="576.6" r="2.2"/>
  <circle cx="508.6" cy="576.1" r="2.2"/>
  <circle cx="532.4" cy="578.4" r="2.2"/>
  <circle cx="544.3" cy="572.3" r="2.2"/>
  <circle cx="556.2" cy="577.8" r="2.2"/>
  <circle cx="568.1" cy="575.7" r="2.2"/>
  <circle cx="580.0" cy="576.2" r="2.2"/>
  <circle cx="591.9" cy="576.4" r="2.2"/>
  <circle cx="603.8" cy="575.3" r="2.2"/>
  <circle cx="615.7" cy="573.1" r="2.2"/>
  <circle cx="627.6" cy="575.7" r="2.2"/>
  <circle cx="651.4" cy="575.7" r="2.2"/>
  <circle cx="663.3" cy="580.9" r="2.2"/>
  <circle cx="675.2" cy="580.4" r="2.2"/>
  <circle cx="687.1" cy="580.1" r="2.2"/>
  <circle cx="699.0" cy="578.2" r="2.2"/>
  <circle cx="710.9" cy="578.2" r="2.2"/>
  <circle cx="722.8" cy="577.6" r="2.2"/>
  <circle cx="734.7" cy="577.9" r="2.2"/>
  <circle cx="746.6" cy="579.1" r="2.2"/>
  <circle cx="770.4" cy="578.7" r="2.2"/>
  <circle cx="782.3" cy="575.2" r="2.2"/>
  <circle cx="794.2" cy="575.8" r="2.2"/>
  <circle cx="806.1" cy="578.2" r="2.2"/>
  <circle cx="818.0" cy="577.9" r="2.2"/>
  <circle cx="829.9" cy="573.7" r="2.2"/>
  <circle cx="841.8" cy="576.0" r="2.2"/>
  <circle cx="853.7" cy="578.1" r="2.2"/>
  <circle cx="865.6" cy="576.0" r="2.2"/>
  <circle cx="889.4" cy="580.2" r="2.2"/>
  <circle cx="901.3" cy="575.5" r="2.2"/>
</g>
<g class="pl" fill="#FFF" stroke="#66C2A5" stroke-width="0.900" clip-path="url(#axis_clip)">
  <circle cx="282.5" cy="580.7" r="5.4"/>
  <circle cx="401.5" cy="580.5" r="5.4"/>
  <circle cx="520.5" cy="572.7" r="5.4"/>
  <circle cx="639.5" cy="576.8" r="5.4"/>
  <circle cx="758.5" cy="578.2" r="5.4"/>
  <circle cx="877.5" cy="581.1" r="5.4"/>
</g>
<polyline class="pl" points="294.4,587.2 306.3,587.2 318.2,587.2 330.1,587.2 342.0,587.2 353.9,587.2 365.8,587.2 377.7,587.2 389.6,587.2 401.5,587.2 413.4,587.2 425.3,587.2 437.2,587.2 449.1,587.2 461.0,587.2 472.9,587.2 484.8,587.2 496.7,587.2 508.6,587.2 520.5,587.2 532.4,587.2 544.3,587.2 556.2,587.2 568.1,587.2 580.0,587.2 591.9,587.2 603.8,587.2 615.7,587.2 627.6,587.2 639.5,587.2 651.4,587.2 663.3,587.2 675.2,587.2 687.1,587.2 699.0,587.2 710.9,587.2 722.8,587.2 734.7,587.2 746.6,587.2 758.5,587.1 770.4,587.0 782.3,586.8 794.2,586.5 806.1,586.1 818.0,585.4 829.9,584.9 841.8,583.8 853.7,581.7 865.6,579.0 877.5,574.9 889.4,571.2 901.3,565.8" stroke="#E5C494" stroke-width="5.40" stroke-opacity="1.00" fill="none" clip-path="url(#axis_clip)"/>
<g class="pl" fill="#FFF" stroke="#E5C494" stroke-width="0.900" clip-path="url(#axis_clip)">
  <circle cx="294.4" cy="587.2" r="2.2"/>
  <circle cx="306.3" cy="587.2" r="2.2"/>
  <circle cx="318.2" cy="587.2" r="2.2"/>
  <circle cx="330.1" cy="587.2" r="2.2"/>
  <circle cx="342.0" cy="587.2" r="2.2"/>
  <circle cx="353.9" cy="587.2" r="2.2"/>
  <circle cx="365.8" cy="587.2" r="2.2"/>
  <circle cx="377.7" cy="587.2" r="2.2"/>
  <circle cx="389.6" cy="587.2" r="2.2"/>
  <circle cx="413.4" cy="587.2" r="2.2"/>
  <circle cx="425.3" cy="587.2" r="2.2"/>
  <circle cx="437.2" cy="587.2" r="2.2"/>
  <circle cx="449.1" cy="587.2" r="2.2"/>
  <circle cx="461.0" cy="587.2" r="2.2"/>
  <circle cx="472.9" cy="587.2" r="2.2"/>
  <circle cx="484.8" cy="587.2" r="2.2"/>
  <circle cx="496.7" cy="587.2" r="2.2"/>
  <circle cx="508.6" cy="587.2" r="2.2"/>
  <circle cx="532.4" cy="587.2" r="2.2"/>
  <circle cx="544.3" cy="587.2" r="2.2"/>
  <circle cx="556.2" cy="587.2" r="2.2"/>
  <circle cx="568.1" cy="587.2" r="2.2"/>
  <circle cx="580.0" cy="587.2" r="2.2"/>
  <circle cx="591.9" cy="587.2" r="2.2"/>
  <circle cx="603.8" cy="587.2" r="2.2"/>
  <circle cx="615.7" cy="587.2" r="2.2"/>
  <circle cx="627.6" cy="587.2" r="2.2"/>
  <circle cx="651.4" cy="587.2" r="2.2"/>
  <circle cx="663.3" cy="587.2" r="2.2"/>
  <circle cx="675.2" cy="587.2" r="2.2"/>
  <circle cx="687.1" cy="587.2" r="2.2"/>
  <circle cx="699.0" cy="587.2" r="2.2"/>
  <circle cx="710.9" cy="587.2" r="2.2"/>
  <circle cx="722.8" cy="587.2" r="2.2"/>
  <circle cx="734.7" cy="587.2" r="2.2"/>
  <circle cx="746.6" cy="587.2" r="2.2"/>
  <circle cx="770.4" cy="587.0" r="2.2"/>
  <circle cx="782.3" cy="586.8" r="2.2"/>
  <circle cx="794.2" cy="586.5" r="2.2"/>
  <circle cx="806.1" cy="586.1" r="2.2"/>
  <circle cx="818.0" cy="585.4" r="2.2"/>
  <circle cx="829.9" cy="584.9" r="2.2"/>
  <circle cx="841.8" cy="583.8" r="2.2"/>
  <circle cx="853.7" cy="581.7" r="2.2"/>
  <circle cx="865.6" cy="579.0" r="2.2"/>
  <circle cx="889.4" cy="571.2" r="2.2"/>
  <circle cx="901.3" cy="565.8" r="2.2"/>
</g>
<g class="pl" fill="#FFF" stroke="#E5C494" stroke-width="0.900" clip-path="url(#axis_clip)">
  <circle cx="401.5" cy="587.2" r="5.4"/>
  <circle cx="520.5" cy="587.2" r="5.4"/>
  <circle cx="639.5" cy="587.2" r="5.4"/>
  <circle cx="758.5" cy="587.1" r="5.4"/>
  <circle cx="877.5" cy="574.9" r="5.4"/>
</g>
<polyline class="pl" points="294.4,587.2 306.3,587.2 318.2,587.2 330.1,587.2 342.0,587.2 353.9,587.2 365.8,587.2 377.7,587.2 389.6,587.2 401.5,587.2 413.4,587.2 425.3,587.2 437.2,587.2 449.1,587.2 461.0,587.2 472.9,587.2 484.8,587.2 496.7,587.2 508.6,587.2 520.5,587.2 532.4,587.2 544.3,587.2 556.2,587.2 568.1,587.2 580.0,587.2 591.9,587.2 603.8,587.2 615.7,587.2 627.6,587.2 639.5,587.2 651.4,587.1 663.3,587.1 675.2,587.1 687.1,587.1 699.0,587.0 710.9,586.6 722.8,586.2 734.7,585.9 746.6,585.5 758.5,585.0 770.4,584.0 782.3,584.2 794.2,583.7 806.1,584.1 818.0,584.0 829.9,584.2 841.8,583.7 853.7,583.7 865.6,583.3 877.5,582.5 889.4,582.7 901.3,580.1" stroke="#FFD92F" stroke-width="5.40" stroke-opacity="1.00" fill="none" clip-path="url(#axis_clip)"/>
<g class="pl" fill="#FFF" stroke="#FFD92F" stroke-width="0.900" clip-path="url(#axis_clip)">
  <circle cx="294.4" cy="587.2" r="2.2"/>
  <circle cx="306.3" cy="587.2" r="2.2"/>
  <circle cx="318.2" cy="587.2" r="2.2"/>
  <circle cx="330.1" cy="587.2" r="2.2"/>
  <circle cx="342.0" cy="587.2" r="2.2"/>
  <circle cx="353.9" cy="587.2" r="2.2"/>
  <circle cx="365.8" cy="587.2" r="2.2"/>
  <circle cx="377.7" cy="587.2" r="2.2"/>
  <circle cx="389.6" cy="587.2" r="2.2"/>
  <circle cx="413.4" cy="587.2" r="2.2"/>
  <circle cx="425.3" cy="587.2" r="2.2"/>
  <circle cx="437.2" cy="587.2" r="2.2"/>
  <circle cx="449.1" cy="587.2" r="2.2"/>
  <circle cx="461.0" cy="587.2" r="2.2"/>
  <circle cx="472.9" cy="587.2" r="2.2"/>
  <circle cx="484.8" cy="587.2" r="2.2"/>
  <circle cx="496.7" cy="587.2" r="2.2"/>
  <circle cx="508.6" cy="587.2" r="2.2"/>
  <circle cx="532.4" cy="587.2" r="2.2"/>
  <circle cx="544.3" cy="587.2" r="2.2"/>
  <circle cx="556.2" cy="587.2" r="2.2"/>
  <circle cx="568.1" cy="587.2" r="2.2"/>
  <circle cx="580.0" cy="587.2" r="2.2"/>
  <circle cx="591.9" cy="587.2" r="2.2"/>
  <circle cx="603.8" cy="587.2" r="2.2"/>
  <circle cx="615.7" cy="587.2" r="2.2"/>
  <circle cx="627.6" cy="587.2" r="2.2"/>
  <circle cx="651.4" cy="587.1" r="2.2"/>
  <circle cx="663.3" cy="587.1" r="2.2"/>
  <circle cx="675.2" cy="587.1" r="2.2"/>
  <circle cx="687.1" cy="587.1" r="2.2"/>
  <circle cx="699.0" cy="587.0" r="2.2"/>
  <circle cx="710.9" cy="586.6" r="2.2"/>
  <circle cx="722.8" cy="586.2" r="2.2"/>
  <circle cx="734.7" cy="585.9" r="2.2"/>
  <circle cx="746.6" cy="585.5" r="2.2"/>
  <circle cx="770.4" cy="584.0" r="2.2"/>
  <circle cx="782.3" cy="584.2" r="2.2"/>
  <circle cx="794.2" cy="583.7" r="2.2"/>
  <circle cx="806.1" cy="584.1" r="2.2"/>
  <circle cx="818.0" cy="584.0" r="2.2"/>
  <circle cx="829.9" cy="584.2" r="2.2"/>
  <circle cx="841.8" cy="583.7" r="2.2"/>
  <circle cx="853.7" cy="583.7" r="2.2"/>
  <circle cx="865.6" cy="583.3" r="2.2"/>
  <circle cx="889.4" cy="582.7" r="2.2"/>
  <circle cx="901.3" cy="580.1" r="2.2"/>
</g>
<g class="pl" fill="#FFF" stroke="#FFD92F" stroke-width="0.900" clip-path="url(#axis_clip)">
  <circle cx="401.5" cy="587.2" r="5.4"/>
  <circle cx="520.5" cy="587.2" r="5.4"/>
  <circle cx="639.5" cy="587.2" r="5.4"/>
  <circle cx="758.5" cy="585.0" r="5.4"/>
  <circle cx="877.5" cy="582.5" r="5.4"/>
</g>
<polyline class="pl" points="223.0,585.4 234.9,585.2 246.8,584.6 258.7,583.6 270.6,582.6 282.5,582.9 294.4,578.5 306.3,577.1 318.2,575.5 330.1,574.9 342.0,575.0 353.9,572.0 365.8,571.2 377.7,571.4 389.6,572.0 401.5,571.4 413.4,573.8 425.3,576.9 437.2,576.5 449.1,576.5 461.0,577.6 472.9,578.4 484.8,578.3 496.7,577.1 508.6,577.0 520.5,570.9 532.4,563.5 544.3,563.7 556.2,562.6 568.1,557.3 580.0,553.8 591.9,553.1 603.8,547.2 615.7,539.8 627.6,539.0 639.5,535.2 651.4,531.2 663.3,524.6 675.2,522.6 687.1,508.6 699.0,507.9 710.9,502.2 722.8,497.0 734.7,489.2 746.6,491.5 758.5,468.3 770.4,456.3 782.3,449.9 794.2,449.5 806.1,442.3 818.0,432.2 829.9,426.2 841.8,408.7 853.7,405.5 865.6,408.6 877.5,396.1 889.4,377.6 901.3,371.7" stroke="#6298C6" stroke-width="5.40" stroke-opacity="1.00" fill="none" clip-path="url(#axis_clip)"/>
<g class="pl" fill="#FFF" stroke="#6298C6" stroke-width="0.900" clip-path="url(#axis_clip)">
  <circle cx="223.0" cy="585.4" r="2.2"/>
  <circle cx="234.9" cy="585.2" r="2.2"/>
  <circle cx="246.8" cy="584.6" r="2.2"/>
  <circle cx="258.7" cy="583.6" r="2.2"/>
  <circle cx="270.6" cy="582.6" r="2.2"/>
  <circle cx="294.4" cy="578.5" r="2.2"/>
  <circle cx="306.3" cy="577.1" r="2.2"/>
  <circle cx="318.2" cy="575.5" r="2.2"/>
  <circle cx="330.1" cy="574.9" r="2.2"/>
  <circle cx="342.0" cy="575.0" r="2.2"/>
  <circle cx="353.9" cy="572.0" r="2.2"/>
  <circle cx="365.8" cy="571.2" r="2.2"/>
  <circle cx="377.7" cy="571.4" r="2.2"/>
  <circle cx="389.6" cy="572.0" r="2.2"/>
  <circle cx="413.4" cy="573.8" r="2.2"/>
  <circle cx="425.3" cy="576.9" r="2.2"/>
  <circle cx="437.2" cy="576.5" r="2.2"/>
  <circle cx="449.1" cy="576.5" r="2.2"/>
  <circle cx="461.0" cy="577.6" r="2.2"/>
  <circle cx="472.9" cy="578.4" r="2.2"/>
  <circle cx="484.8" cy="578.3" r="2.2"/>
  <circle cx="496.7" cy="577.1" r="2.2"/>
  <circle cx="508.6" cy="577.0" r="2.2"/>
  <circle cx="532.4" cy="563.5" r="2.2"/>
  <circle cx="544.3" cy="563.7" r="2.2"/>
  <circle cx="556.2" cy="562.6" r="2.2"/>
  <circle cx="568.1" cy="557.3" r="2.2"/>
  <circle cx="580.0" cy="553.8" r="2.2"/>
  <circle cx="591.9" cy="553.1" r="2.2"/>
  <circle cx="603.8" cy="547.2" r="2.2"/>
  <circle cx="615.7" cy="539.8" r="2.2"/>
  <circle cx="627.6" cy="539.0" r="2.2"/>
  <circle cx="651.4" cy="531.2" r="2.2"/>
  <circle cx="663.3" cy="524.6" r="2.2"/>
  <circle cx="675.2" cy="522.6" r="2.2"/>
  <circle cx="687.1" cy="508.6" r="2.2"/>
  <circle cx="699.0" cy="507.9" r="2.2"/>
  <circle cx="710.9" cy="502.2" r="2.2"/>
  <circle cx="722.8" cy="497.0" r="2.2"/>
  <circle cx="734.7" cy="489.2" r="2.2"/>
  <circle cx="746.6" cy="491.5" r="2.2"/>
  <circle cx="770.4" cy="456.3" r="2.2"/>
  <circle cx="782.3" cy="449.9" r="2.2"/>
  <circle cx="794.2" cy="449.5" r="2.2"/>
  <circle cx="806.1" cy="442.3" r="2.2"/>
  <circle cx="818.0" cy="432.2" r="2.2"/>
  <circle cx="829.9" cy="426.2" r="2.2"/>
  <circle cx="841.8" cy="408.7" r="2.2"/>
  <circle cx="853.7" cy="405.5" r="2.2"/>
  <circle cx="865.6" cy="408.6" r="2.2"/>
  <circle cx="889.4" cy="377.6" r="2.2"/>
  <circle cx="901.3" cy="371.7" r="2.2"/>
</g>
<g class="pl" fill="#FFF" stroke="#6298C6" stroke-width="0.900" clip-path="url(#axis_clip)">
  <circle cx="282.5" cy="582.9" r="5.4"/>
  <circle cx="401.5" cy="571.4" r="5.4"/>
  <circle cx="520.5" cy="570.9" r="5.4"/>
  <circle cx="639.5" cy="535.2" r="5.4"/>
  <circle cx="758.5" cy="468.3" r="5.4"/>
  <circle cx="877.5" cy="396.1" r="5.4"/>
</g>
<polyline class="pl" points="223.0,567.5 234.9,563.8 246.8,559.5 258.7,554.1 270.6,547.6 282.5,539.6 294.4,520.6 306.3,515.2 318.2,495.3 330.1,504.7 342.0,491.6 353.9,463.6 365.8,450.5 377.7,427.0 389.6,426.3 401.5,420.0 413.4,440.0 425.3,421.2 437.2,420.8 449.1,427.8 461.0,429.2 472.9,411.2 484.8,402.1 496.7,371.3 508.6,346.8 520.5,337.7 532.4,328.2 544.3,317.8 556.2,300.4 568.1,281.9 580.0,255.1 591.9,255.0 603.8,245.9 615.7,233.2 627.6,208.6 639.5,204.3 651.4,191.1 663.3,188.5 675.2,170.5 687.1,160.8 699.0,157.7 710.9,154.5 722.8,138.4 734.7,163.3 746.6,170.9 758.5,151.5 770.4,182.1 782.3,189.4 794.2,178.0 806.1,165.0 818.0,153.7 829.9,151.7 841.8,156.9 853.7,158.1 865.6,180.6 877.5,196.6 889.4,177.9 901.3,210.5" stroke="#404040" stroke-width="5.40" stroke-opacity="1.00" fill="none" clip-path="url(#axis_clip)"/>
<g class="pl" fill="#FFF" stroke="#404040" stroke-width="0.900" clip-path="url(#axis_clip)">
  <circle cx="223.0" cy="567.5" r="2.2"/>
  <circle cx="234.9" cy="563.8" r="2.2"/>
  <circle cx="246.8" cy="559.5" r="2.2"/>
  <circle cx="258.7" cy="554.1" r="2.2"/>
  <circle cx="270.6" cy="547.6" r="2.2"/>
  <circle cx="294.4" cy="520.6" r="2.2"/>
  <circle cx="306.3" cy="515.2" r="2.2"/>
  <circle cx="318.2" cy="495.3" r="2.2"/>
  <circle cx="330.1" cy="504.7" r="2.2"/>
  <circle cx="342.0" cy="491.6" r="2.2"/>
  <circle cx="353.9" cy="463.6" r="2.2"/>
  <circle cx="365.8" cy="450.5" r="2.2"/>
  <circle cx="377.7" cy="427.0" r="2.2"/>
  <circle cx="389.6" cy="426.3" r="2.2"/>
  <circle cx="413.4" cy="440.0" r="2.2"/>
  <circle cx="425.3" cy="421.2" r="2.2"/>
  <circle cx="437.2" cy="420.8" r="2.2"/>
  <circle cx="449.1" cy="427.8" r="2.2"/>
  <circle cx="461.0" cy="429.2" r="2.2"/>
  <circle cx="472.9" cy="411.2" r="2.2"/>
  <circle cx="484.8" cy="402.1" r="2.2"/>
  <circle cx="496.7" cy="371.3" r="2.2"/>
  <circle cx="508.6" cy="346.8" r="2.2"/>
  <circle cx="532.4" cy="328.2" r="2.2"/>
  <circle cx="544.3" cy="317.8" r="2.2"/>
  <circle cx="556.2" cy="300.4" r="2.2"/>
  <circle cx="568.1" cy="281.9" r="2.2"/>
  <circle cx="580.0" cy="255.1" r="2.2"/>
  <circle cx="591.9" cy="255.0" r="2.2"/>
  <circle cx="603.8" cy="245.9" r="2.2"/>
  <circle cx="615.7" cy="233.2" r="2.2"/>
  <circle cx="627.6" cy="208.6" r="2.2"/>
  <circle cx="651.4" cy="191.1" r="2.2"/>
  <circle cx="663.3" cy="188.5" r="2.2"/>
  <circle cx="675.2" cy="170.5" r="2.2"/>
  <circle cx="687.1" cy="160.8" r="2.2"/>
  <circle cx="699.0" cy="157.7" r="2.2"/>
  <circle cx="710.9" cy="154.5" r="2.2"/>
  <circle cx="722.8" cy="138.4" r="2.2"/>
  <circle cx="734.7" cy="163.3" r="2.2"/>
  <circle cx="746.6" cy="170.9" r="2.2"/>
  <circle cx="770.4" cy="182.1" r="2.2"/>
  <circle cx="782.3" cy="189.4" r="2.2"/>
  <circle cx="794.2" cy="178.0" r="2.2"/>
  <circle cx="806.1" cy="165.0" r="2.2"/>
  <circle cx="818.0" cy="153.7" r="2.2"/>
  <circle cx="829.9" cy="151.7" r="2.2"/>
  <circle cx="841.8" cy="156.9" r="2.2"/>
  <circle cx="853.7" cy="158.1" r="2.2"/>
  <circle cx="865.6" cy="180.6" r="2.2"/>
  <circle cx="889.4" cy="177.9" r="2.2"/>
  <circle cx="901.3" cy="210.5" r="2.2"/>
</g>
<g class="pl" fill="#FFF" stroke="#404040" stroke-width="0.900" clip-path="url(#axis_clip)">
  <circle cx="282.5" cy="539.6" r="5.4"/>
  <circle cx="401.5" cy="420.0" r="5.4"/>
  <circle cx="520.5" cy="337.7" r="5.4"/>
  <circle cx="639.5" cy="204.3" r="5.4"/>
  <circle cx="758.5" cy="151.5" r="5.4"/>
  <circle cx="877.5" cy="196.6" r="5.4"/>
</g>
<polyline class="pl" points="223.0,560.5 234.9,560.7 246.8,560.3 258.7,560.1 270.6,562.3 282.5,562.9 294.4,565.6 306.3,566.6 318.2,568.8 330.1,568.4 342.0,570.1 353.9,569.1 365.8,566.5 377.7,564.3 389.6,558.3 401.5,553.0 413.4,555.7 425.3,550.2 437.2,537.3 449.1,529.3 461.0,525.8 472.9,512.5 484.8,506.4 496.7,493.6 508.6,489.5 520.5,490.7 532.4,481.5 544.3,465.1 556.2,449.9 568.1,444.3 580.0,439.9 591.9,421.0 603.8,397.2 615.7,381.0 627.6,374.3 639.5,336.2 651.4,323.8 663.3,301.6 675.2,282.8 687.1,270.6 699.0,264.8 710.9,248.7 722.8,232.7 734.7,247.8 746.6,263.5 758.5,239.9 770.4,227.2 782.3,235.2 794.2,228.1 806.1,224.3 818.0,235.2 829.9,230.9 841.8,225.5 853.7,223.6 865.6,230.8 877.5,254.1 889.4,229.6 901.3,249.9" stroke="#7B553E" stroke-width="5.40" stroke-opacity="1.00" fill="none" clip-path="url(#axis_clip)"/>
<g class="pl" fill="#FFF" stroke="#7B553E" stroke-width="0.900" clip-path="url(#axis_clip)">
  <circle cx="223.0" cy="560.5" r="2.2"/>
  <circle cx="234.9" cy="560.7" r="2.2"/>
  <circle cx="246.8" cy="560.3" r="2.2"/>
  <circle cx="258.7" cy="560.1" r="2.2"/>
  <circle cx="270.6" cy="562.3" r="2.2"/>
  <circle cx="294.4" cy="565.6" r="2.2"/>
  <circle cx="306.3" cy="566.6" r="2.2"/>
  <circle cx="318.2" cy="568.8" r="2.2"/>
  <circle cx="330.1" cy="568.4" r="2.2"/>
  <circle cx="342.0" cy="570.1" r="2.2"/>
  <circle cx="353.9" cy="569.1" r="2.2"/>
  <circle cx="365.8" cy="566.5" r="2.2"/>
  <circle cx="377.7" cy="564.3" r="2.2"/>
  <circle cx="389.6" cy="558.3" r="2.2"/>
  <circle cx="413.4" cy="555.7" r="2.2"/>
  <circle cx="425.3" cy="550.2" r="2.2"/>
  <circle cx="437.2" cy="537.3" r="2.2"/>
  <circle cx="449.1" cy="529.3" r="2.2"/>
  <circle cx="461.0" cy="525.8" r="2.2"/>
  <circle cx="472.9" cy="512.5" r="2.2"/>
  <circle cx="484.8" cy="506.4" r="2.2"/>
  <circle cx="496.7" cy="493.6" r="2.2"/>
  <circle cx="508.6" cy="489.5" r="2.2"/>
  <circle cx="532.4" cy="481.5" r="2.2"/>
  <circle cx="544.3" cy="465.1" r="2.2"/>
  <circle cx="556.2" cy="449.9" r="2.2"/>
  <circle cx="568.1" cy="444.3" r="2.2"/>
  <circle cx="580.0" cy="439.9" r="2.2"/>
  <circle cx="591.9" cy="421.0" r="2.2"/>
  <circle cx="603.8" cy="397.2" r="2.2"/>
  <circle cx="615.7" cy="381.0" r="2.2"/>
  <circle cx="627.6" cy="374.3" r="2.2"/>
  <circle cx="651.4" cy="323.8" r="2.2"/>
  <circle cx="663.3" cy="301.6" r="2.2"/>
  <circle cx="675.2" cy="282.8" r="2.2"/>
  <circle cx="687.1" cy="270.6" r="2.2"/>
  <circle cx="699.0" cy="264.8" r="2.2"/>
  <circle cx="710.9" cy="248.7" r="2.2"/>
  <circle cx="722.8" cy="232.7" r="2.2"/>
  <circle cx="734.7" cy="247.8" r="2.2"/>
  <circle cx="746.6" cy="263.5" r="2.2"/>
  <circle cx="770.4" cy="227.2" r="2.2"/>
  <circle cx="782.3" cy="235.2" r="2.2"/>
  <circle cx="794.2" cy="228.1" r="2.2"/>
  <circle cx="806.1" cy="224.3" r="2.2"/>
  <circle cx="818.0" cy="235.2" r="2.2"/>
  <circle cx="829.9" cy="230.9" r="2.2"/>
  <circle cx="841.8" cy="225.5" r="2.2"/>
  <circle cx="853.7" cy="223.6" r="2.2"/>
  <circle cx="865.6" cy="230.8" r="2.2"/>
  <circle cx="889.4" cy="229.6" r="2.2"/>
  <circle cx="901.3" cy="249.9" r="2.2"/>
</g>
<g class="pl" fill="#FFF" stroke="#7B553E" stroke-width="0.900" clip-path="url(#axis_clip)">
  <circle cx="282.5" cy="562.9" r="5.4"/>
  <circle cx="401.5" cy="553.0" r="5.4"/>
  <circle cx="520.5" cy="490.7" r="5.4"/>
  <circle cx="639.5" cy="336.2" r="5.4"/>
  <circle cx="758.5" cy="239.9" r="5.4"/>
  <circle cx="877.5" cy="254.1" r="5.4"/>
</g>
<text transform="translate(945.6,535.4)" dy="8.1" font-size="27.00" fill="#FDBF6F" stroke="none">Bioenergy</text>
<text transform="translate(945.6,587.2)" dy="8.1" font-size="27.00" fill="#E78AC3" stroke="none">Other</text>
<text transform="translate(945.6,457.7)" dy="8.1" font-size="27.00" fill="#FC8D62" stroke="none">Nuclear</text>
<text transform="translate(945.6,509.5)" dy="8.1" font-size="27.00" fill="#66C2A5" stroke="none">Hydro</text>
<text transform="translate(945.6,483.6)" dy="8.1" font-size="27.00" fill="#E5C494" stroke="none">Solar</text>
<text transform="translate(945.6,561.3)" dy="8.1" font-size="27.00" fill="#FFD92F" stroke="none">Wind</text>
<text transform="translate(945.6,371.7)" dy="8.1" font-size="27.00" fill="#6298C6" stroke="none">Gas</text>
<text transform="translate(945.6,210.5)" dy="8.1" font-size="27.00" fill="#404040" stroke="none">Oil</text>
<text transform="translate(945.6,249.9)" dy="8.1" font-size="27.00" fill="#7B553E" stroke="none">Coal</text>
<polyline class="pl" points="910.8,578.9 912.4,578.8 913.8,578.3 915.2,577.6 916.4,576.7 917.6,575.5 918.8,574.1 919.8,572.6 920.8,570.8 921.7,569.0 922.7,567.0 923.5,564.9 924.4,562.7 925.2,560.5 926.0,558.3 926.8,556.0 927.6,553.8 928.4,551.6 929.3,549.4 930.1,547.3 931.1,545.4 932.0,543.5 933.0,541.8 934.0,540.2 935.2,538.8 936.4,537.6 937.6,536.7 939.0,536.0 940.4,535.5 942.0,535.4" stroke="#FDBF6F" stroke-width="0.90" stroke-opacity="1.00" fill="none" />
<polyline class="pl" points="910.8,582.3 912.4,582.3 913.8,582.4 915.2,582.5 916.4,582.6 917.6,582.7 918.8,582.9 919.8,583.0 920.8,583.2 921.7,583.4 922.7,583.7 923.5,583.9 924.4,584.1 925.2,584.4 926.0,584.6 926.8,584.9 927.6,585.1 928.4,585.4 929.3,585.6 930.1,585.8 931.1,586.1 932.0,586.3 933.0,586.5 934.0,586.6 935.2,586.8 936.4,586.9 937.6,587.0 939.0,587.1 940.4,587.2 942.0,587.2" stroke="#E78AC3" stroke-width="0.90" stroke-opacity="1.00" fill="none" />
<polyline class="pl" points="910.8,541.5 912.4,541.3 913.8,540.4 915.2,539.0 916.4,537.2 917.6,534.9 918.8,532.3 919.8,529.2 920.8,525.9 921.7,522.3 922.7,518.5 923.5,514.5 924.4,510.3 925.2,506.1 926.0,501.8 926.8,497.4 927.6,493.1 928.4,488.9 929.3,484.7 930.1,480.7 931.1,476.9 932.0,473.3 933.0,470.0 934.0,466.9 935.2,464.3 936.4,462.0 937.6,460.2 939.0,458.8 940.4,458.0 942.0,457.7" stroke="#FC8D62" stroke-width="0.90" stroke-opacity="1.00" fill="none" />
<polyline class="pl" points="910.8,575.5 912.4,575.3 913.8,574.6 915.2,573.5 916.4,572.1 917.6,570.3 918.8,568.2 919.8,565.8 920.8,563.2 921.7,560.4 922.7,557.4 923.5,554.2 924.4,550.9 925.2,547.6 926.0,544.2 926.8,540.8 927.6,537.4 928.4,534.0 929.3,530.8 930.1,527.6 931.1,524.6 932.0,521.8 933.0,519.1 934.0,516.8 935.2,514.7 936.4,512.9 937.6,511.4 939.0,510.4 940.4,509.7 942.0,509.5" stroke="#66C2A5" stroke-width="0.90" stroke-opacity="1.00" fill="none" />
<polyline class="pl" points="910.8,565.8 912.4,565.5 913.8,564.7 915.2,563.3 916.4,561.5 917.6,559.3 918.8,556.7 919.8,553.7 920.8,550.5 921.7,547.0 922.7,543.2 923.5,539.3 924.4,535.2 925.2,531.0 926.0,526.8 926.8,522.6 927.6,518.3 928.4,514.2 929.3,510.1 930.1,506.2 931.1,502.4 932.0,498.9 933.0,495.6 934.0,492.7 935.2,490.1 936.4,487.8 937.6,486.0 939.0,484.7 940.4,483.8 942.0,483.6" stroke="#E5C494" stroke-width="0.90" stroke-opacity="1.00" fill="none" />
<polyline class="pl" points="910.8,580.1 912.4,580.0 913.8,579.8 915.2,579.5 916.4,579.1 917.6,578.6 918.8,578.0 919.8,577.3 920.8,576.6 921.7,575.8 922.7,574.9 923.5,574.0 924.4,573.1 925.2,572.1 926.0,571.2 926.8,570.2 927.6,569.2 928.4,568.3 929.3,567.3 930.1,566.4 931.1,565.6 932.0,564.8 933.0,564.0 934.0,563.4 935.2,562.8 936.4,562.2 937.6,561.8 939.0,561.5 940.4,561.3 942.0,561.3" stroke="#FFD92F" stroke-width="0.90" stroke-opacity="1.00" fill="none" />
<text transform="translate(1079.5,532.0)" dy="0.0" font-size="14.40" fill="#FDBF6F" stroke="none">excluding</text>
<text transform="translate(1079.5,532.0)" dy="14.4" font-size="14.40" fill="#FDBF6F" stroke="none">liquids</text>
<text transform="translate(145.6,47.2)" dy="0.0" font-size="27.00" fill="#808080" stroke="none">Annual energy consumption Taiwan</text>
<text transform="translate(160.2,666.1)" font-size="19.80" font-family="Helvetica" fill="#BFBFBF" stroke="none" xml:space="preserve">Global Carbon Project   &#9679;   Data: Energy Institute, IEA (bioenergy)</text>
<g>
  <rect x="123.0" y="651.4" width="34" height="17" fill="#FFF" stroke="none"/>
  <g transform="translate(124.0,652.4) scale(0.24)">
  <g><circle fill="#FFF" cx="37.79" cy="28.5" r="28.84"/>
     <circle fill="none" cx="37.79" cy="28.5" r="28.84" stroke="#BFBFBF" stroke-width="5.5"/>
     <path fill="#BFBFBF" d="M37.16,23.19 l-4.29,2.23c-0.458-0.951-1.02-1.62-1.69-2c-0.667-0.38-1.29-0.571-1.86-0.571c-2.86,0-4.29,1.89-4.29,5.66 c0,1.71,0.36,3.08,1.09,4.11c0.724,1.03,1.79,1.54,3.2,1.54c1.87,0,3.18-0.915,3.94-2.74l3.94,2 c-0.838,1.56-2,2.79-3.49,3.69c-1.48,0.896-3.12,1.34-4.91,1.34c-2.86,0-5.16-0.875-6.92-2.63 c-1.75-1.75-2.63-4.19-2.63-7.31c0-3.05,0.886-5.47,2.66-7.26c1.77-1.79,4.01-2.69,6.72-2.69 C32.6,18.56,35.44,20.1,37.16,23.19z
              M55.61,23.19l-4.23,2.23c-0.457-0.951-1.02-1.62-1.69-2 c-0.668-0.38-1.31-0.571-1.91-0.571c-2.86,0-4.29,1.89-4.29,5.66c0,1.71,0.363,3.08,1.09,4.11 c0.723,1.03,1.79,1.54,3.2,1.54c1.87,0,3.18-0.915,3.94-2.74l4,2c-0.875,1.56-2.06,2.79-3.54,3.69 c-1.49,0.9-3.11,1.34-4.86,1.34c-2.9,0-5.21-0.875-6.94-2.63c-1.74-1.75-2.6-4.19-2.6-7.31 c0-3.05,0.885-5.47,2.66-7.26c1.77-1.79,4.01-2.69,6.71-2.69C51.12,18.56,53.944,20.1,55.61,23.19z"/>
  </g></g>
  <g transform="translate(140.2,652.4) scale(0.24)">
  <g><circle fill="#FFF" cx="37.79" cy="28.5" r="28.84"/>
     <circle fill="none" cx="37.79" cy="28.5" r="28.84" stroke="#BFBFBF" stroke-width="5.5"/>
     <path fill="#BFBFBF" d="M46.129,20.557v13.085h-3.656v15.542h-9.944V33.643h-3.656V20.557 c0-0.572,0.2-1.057,0.599-1.457c0.401-0.399,0.887-0.6,1.457-0.6h13.144c0.533,0,1.01,0.2,1.428,0.6 C45.918,19.5,46.129,19.986,46.129,20.557z
              M33.042,12.329c0-3.008,1.485-4.514,4.458-4.514s4.457,1.504,4.457,4.514 c0,2.971-1.486,4.457-4.457,4.457S33.042,15.3,33.042,12.329z"/>
  </g></g>
</g>
</g>
</svg>
