<svg version="1.1" xmlns="http://www.w3.org/2000/svg" xmlns:xlink="http://www.w3.org/1999/xlink" width="100%" height="100%" viewBox="0 0 1200.000 674.916">
<title>Annual energy consumption Brazil</title>
<style type="text/css">
  #main {font-family:Helvetica,Arial,sans-serif; font-size:27.00px;
         fill-opacity:1; fill:#000000; stroke:none; stroke-linejoin:round; stroke-linecap:round; stroke-width:1.00;}
  .marker {stroke-opacity:0;fill-opacity:0;}
  .marker:hover {stroke-opacity:0.5; fill-opacity:1;}
  .ticklabel {font-size:27.00px;fill:#808080;stroke:none;font-family:Helvetica}
  .ytl {text-anchor:end;}
  .dp1 {pointer-events:none;font-size:70%;text-anchor:middle;fill:#000000;}
  .dp2 {pointer-events:none;font-size:70%;text-anchor:middle;fill:#FFFFFF;}
  .numtip {pointer-events:none;}
  .cc {opacity:0.25;}
.dl_fe {background-color:#FDFFDF;display:flex;margin:auto;align-items:center}
.dl_fe_p {font-size:20px;text-align:center;margin:3px}
.dl_el {display:none;pointer-events:none;}
.cc:hover + .dl_el {display:block;}
text:hover + .dl_el {display:block;}
</style>
<defs>
  <clipPath id="axis_clip"><rect x="145.8" y="54.2" width="761.2" height="532.8" /></clipPath>
  <path id="line_x" d="M 145.600,0 h 761.600" stroke="#262626" stroke-opacity="0.15" stroke-width="1.00"/>
  <path id="tick_y" d="M 145.600,0 h -6.000" stroke="#808080" stroke-width="0.90"/>
  <path id="tick_x" d="M 0,587.177 v 6.000" stroke="#808080" stroke-width="0.90"/>
</defs>
<g id="main">
<use xlink:href="#line_x" transform="translate(0,587.2)"/>
<use xlink:href="#line_x" transform="translate(0,498.3)"/>
<use xlink:href="#line_x" transform="translate(0,409.4)"/>
<use xlink:href="#line_x" transform="translate(0,320.6)"/>
<use xlink:href="#line_x" transform="translate(0,231.7)"/>
<use xlink:href="#line_x" transform="translate(0,142.9)"/>
<use xlink:href="#line_x" transform="translate(0,54.0)"/>
<use xlink:href="#tick_y" transform="translate(0,587.2)"/>
<use xlink:href="#tick_y" transform="translate(0,498.3)"/>
<use xlink:href="#tick_y" transform="translate(0,409.4)"/>
<use xlink:href="#tick_y" transform="translate(0,320.6)"/>
<use xlink:href="#tick_y" transform="translate(0,231.7)"/>
<use xlink:href="#tick_y" transform="translate(0,142.9)"/>
<use xlink:href="#tick_y" transform="translate(0,54.0)"/>
<use xlink:href="#tick_x" transform="translate(163.5,0)"/>
<use xlink:href="#tick_x" transform="translate(282.5,0)"/>
<use xlink:href="#tick_x" transform="translate(401.5,0)"/>
<use xlink:href="#tick_x" transform="translate(520.5,0)"/>
<use xlink:href="#tick_x" transform="translate(639.5,0)"/>
<use xlink:href="#tick_x" transform="translate(758.5,0)"/>
<use xlink:href="#tick_x" transform="translate(901.3,0)"/>
<polyline points="145.6,53.993 145.6,587.177 907.2,587.177" stroke="#808080" stroke-width="0.90" fill="none"/>
<text class="ticklabel xtl" transform="translate(163.5,629.0)" text-anchor="middle">1960</text>
<text class="ticklabel xtl" transform="translate(282.5,629.0)" text-anchor="middle">1970</text>
<text class="ticklabel xtl" transform="translate(401.5,629.0)" text-anchor="middle">1980</text>
<text class="ticklabel xtl" transform="translate(520.5,629.0)" text-anchor="middle">1990</text>
<text class="ticklabel xtl" transform="translate(639.5,629.0)" text-anchor="middle">2000</text>
<text class="ticklabel xtl" transform="translate(758.5,629.0)" text-anchor="middle">2010</text>
<text class="ticklabel xtl" transform="translate(901.3,629.0)" text-anchor="middle">2022</text>
<text class="ticklabel ytl" transform="translate(128.8,595.3)">0</text>
<text class="ticklabel ytl" transform="translate(128.8,506.4)">1</text>
<text class="ticklabel ytl" transform="translate(128.8,417.5)">2</text>
<text class="ticklabel ytl" transform="translate(128.8,328.7)">3</text>
<text class="ticklabel ytl" transform="translate(128.8,239.8)">4</text>
<text class="ticklabel ytl" transform="translate(128.8,151.0)">5</text>
<text class="ticklabel ytl" transform="translate(128.8,62.1)">6 EJ</text>
<polyline class="pl" points="294.4,455.2 306.3,452.1 318.2,451.6 330.1,448.9 342.0,448.3 353.9,450.9 365.8,449.6 377.7,452.3 389.6,447.3 401.5,442.2 413.4,442.5 425.3,443.3 437.2,432.3 449.1,417.8 461.0,414.6 472.9,417.9 484.8,409.7 496.7,414.3 508.6,414.2 520.5,431.2 532.4,434.2 544.3,436.1 556.2,437.5 568.1,428.9 580.0,435.6 591.9,436.8 603.8,430.8 615.7,431.7 627.6,426.5 639.5,435.4 651.4,428.1 663.3,414.9 675.2,396.2 687.1,383.7 699.0,377.6 710.9,364.2 722.8,351.7 734.7,340.2 746.6,353.2 758.5,336.2 770.4,345.7 782.3,341.7 794.2,337.6 806.1,333.6 818.0,330.9 829.9,329.9 841.8,325.3 853.7,323.7 865.6,321.5 877.5,302.8 889.4,319.4 901.3,312.2" stroke="#FDBF6F" stroke-width="5.40" stroke-opacity="1.00" fill="none" clip-path="url(#axis_clip)"/>
<g class="pl" fill="#FFF" stroke="#FDBF6F" stroke-width="0.900" clip-path="url(#axis_clip)">
  <circle cx="294.4" cy="455.2" r="2.2"/>
  <circle cx="306.3" cy="452.1" r="2.2"/>
  <circle cx="318.2" cy="451.6" r="2.2"/>
  <circle cx="330.1" cy="448.9" r="2.2"/>
  <circle cx="342.0" cy="448.3" r="2.2"/>
  <circle cx="353.9" cy="450.9" r="2.2"/>
  <circle cx="365.8" cy="449.6" r="2.2"/>
  <circle cx="377.7" cy="452.3" r="2.2"/>
  <circle cx="389.6" cy="447.3" r="2.2"/>
  <circle cx="413.4" cy="442.5" r="2.2"/>
  <circle cx="425.3" cy="443.3" r="2.2"/>
  <circle cx="437.2" cy="432.3" r="2.2"/>
  <circle cx="449.1" cy="417.8" r="2.2"/>
  <circle cx="461.0" cy="414.6" r="2.2"/>
  <circle cx="472.9" cy="417.9" r="2.2"/>
  <circle cx="484.8" cy="409.7" r="2.2"/>
  <circle cx="496.7" cy="414.3" r="2.2"/>
  <circle cx="508.6" cy="414.2" r="2.2"/>
  <circle cx="532.4" cy="434.2" r="2.2"/>
  <circle cx="544.3" cy="436.1" r="2.2"/>
  <circle cx="556.2" cy="437.5" r="2.2"/>
  <circle cx="568.1" cy="428.9" r="2.2"/>
  <circle cx="580.0" cy="435.6" r="2.2"/>
  <circle cx="591.9" cy="436.8" r="2.2"/>
  <circle cx="603.8" cy="430.8" r="2.2"/>
  <circle cx="615.7" cy="431.7" r="2.2"/>
  <circle cx="627.6" cy="426.5" r="2.2"/>
  <circle cx="651.4" cy="428.1" r="2.2"/>
  <circle cx="663.3" cy="414.9" r="2.2"/>
  <circle cx="675.2" cy="396.2" r="2.2"/>
  <circle cx="687.1" cy="383.7" r="2.2"/>
  <circle cx="699.0" cy="377.6" r="2.2"/>
  <circle cx="710.9" cy="364.2" r="2.2"/>
  <circle cx="722.8" cy="351.7" r="2.2"/>
  <circle cx="734.7" cy="340.2" r="2.2"/>
  <circle cx="746.6" cy="353.2" r="2.2"/>
  <circle cx="770.4" cy="345.7" r="2.2"/>
  <circle cx="782.3" cy="341.7" r="2.2"/>
  <circle cx="794.2" cy="337.6" r="2.2"/>
  <circle cx="806.1" cy="333.6" r="2.2"/>
  <circle cx="818.0" cy="330.9" r="2.2"/>
  <circle cx="829.9" cy="329.9" r="2.2"/>
  <circle cx="841.8" cy="325.3" r="2.2"/>
  <circle cx="853.7" cy="323.7" r="2.2"/>
  <circle cx="865.6" cy="321.5" r="2.2"/>
  <circle cx="889.4" cy="319.4" r="2.2"/>
  <circle cx="901.3" cy="312.2" r="2.2"/>
</g>
<g class="pl" fill="#FFF" stroke="#FDBF6F" stroke-width="0.900" clip-path="url(#axis_clip)">
  <circle cx="401.5" cy="442.2" r="5.4"/>
  <circle cx="520.5" cy="431.2" r="5.4"/>
  <circle cx="639.5" cy="435.4" r="5.4"/>
  <circle cx="758.5" cy="336.2" r="5.4"/>
  <circle cx="877.5" cy="302.8" r="5.4"/>
</g>
<polyline class="pl" points="282.5,586.7 294.4,586.5 306.3,586.4 318.2,586.4 330.1,586.4 342.0,586.3 353.9,586.3 365.8,586.0 377.7,585.8 389.6,585.4 401.5,585.3 413.4,585.3 425.3,585.0 437.2,584.1 449.1,584.3 461.0,584.0 472.9,583.9 484.8,583.5 496.7,583.8 508.6,583.7 520.5,583.2 532.4,583.1 544.3,582.1 556.2,582.1 568.1,581.7 580.0,581.5 591.9,580.3 603.8,579.6 615.7,579.5 627.6,578.6 639.5,579.2 651.4,578.0 663.3,576.7 675.2,575.0 687.1,574.4 699.0,573.2 710.9,572.0 722.8,568.7 734.7,567.0 746.6,563.8 758.5,554.6 770.4,553.9 782.3,550.7 794.2,545.3 806.1,539.1 818.0,536.2 829.9,534.8 841.8,533.1 853.7,531.6 865.6,531.1 877.5,527.2 889.4,530.3 901.3,533.3" stroke="#E78AC3" stroke-width="5.40" stroke-opacity="1.00" fill="none" clip-path="url(#axis_clip)"/>
<g class="pl" fill="#FFF" stroke="#E78AC3" stroke-width="0.900" clip-path="url(#axis_clip)">
  <circle cx="294.4" cy="586.5" r="2.2"/>
  <circle cx="306.3" cy="586.4" r="2.2"/>
  <circle cx="318.2" cy="586.4" r="2.2"/>
  <circle cx="330.1" cy="586.4" r="2.2"/>
  <circle cx="342.0" cy="586.3" r="2.2"/>
  <circle cx="353.9" cy="586.3" r="2.2"/>
  <circle cx="365.8" cy="586.0" r="2.2"/>
  <circle cx="377.7" cy="585.8" r="2.2"/>
  <circle cx="389.6" cy="585.4" r="2.2"/>
  <circle cx="413.4" cy="585.3" r="2.2"/>
  <circle cx="425.3" cy="585.0" r="2.2"/>
  <circle cx="437.2" cy="584.1" r="2.2"/>
  <circle cx="449.1" cy="584.3" r="2.2"/>
  <circle cx="461.0" cy="584.0" r="2.2"/>
  <circle cx="472.9" cy="583.9" r="2.2"/>
  <circle cx="484.8" cy="583.5" r="2.2"/>
  <circle cx="496.7" cy="583.8" r="2.2"/>
  <circle cx="508.6" cy="583.7" r="2.2"/>
  <circle cx="532.4" cy="583.1" r="2.2"/>
  <circle cx="544.3" cy="582.1" r="2.2"/>
  <circle cx="556.2" cy="582.1" r="2.2"/>
  <circle cx="568.1" cy="581.7" r="2.2"/>
  <circle cx="580.0" cy="581.5" r="2.2"/>
  <circle cx="591.9" cy="580.3" r="2.2"/>
  <circle cx="603.8" cy="579.6" r="2.2"/>
  <circle cx="615.7" cy="579.5" r="2.2"/>
  <circle cx="627.6" cy="578.6" r="2.2"/>
  <circle cx="651.4" cy="578.0" r="2.2"/>
  <circle cx="663.3" cy="576.7" r="2.2"/>
  <circle cx="675.2" cy="575.0" r="2.2"/>
  <circle cx="687.1" cy="574.4" r="2.2"/>
  <circle cx="699.0" cy="573.2" r="2.2"/>
  <circle cx="710.9" cy="572.0" r="2.2"/>
  <circle cx="722.8" cy="568.7" r="2.2"/>
  <circle cx="734.7" cy="567.0" r="2.2"/>
  <circle cx="746.6" cy="563.8" r="2.2"/>
  <circle cx="770.4" cy="553.9" r="2.2"/>
  <circle cx="782.3" cy="550.7" r="2.2"/>
  <circle cx="794.2" cy="545.3" r="2.2"/>
  <circle cx="806.1" cy="539.1" r="2.2"/>
  <circle cx="818.0" cy="536.2" r="2.2"/>
  <circle cx="829.9" cy="534.8" r="2.2"/>
  <circle cx="841.8" cy="533.1" r="2.2"/>
  <circle cx="853.7" cy="531.6" r="2.2"/>
  <circle cx="865.6" cy="531.1" r="2.2"/>
  <circle cx="889.4" cy="530.3" r="2.2"/>
  <circle cx="901.3" cy="533.3" r="2.2"/>
</g>
<g class="pl" fill="#FFF" stroke="#E78AC3" stroke-width="0.900" clip-path="url(#axis_clip)">
  <circle cx="282.5" cy="586.7" r="5.4"/>
  <circle cx="401.5" cy="585.3" r="5.4"/>
  <circle cx="520.5" cy="583.2" r="5.4"/>
  <circle cx="639.5" cy="579.2" r="5.4"/>
  <circle cx="758.5" cy="554.6" r="5.4"/>
  <circle cx="877.5" cy="527.2" r="5.4"/>
</g>
<polyline class="pl" points="282.5,586.0 294.4,586.1 306.3,585.8 318.2,586.0 330.1,586.1 342.0,586.1 353.9,586.2 365.8,585.1 377.7,583.5 389.6,582.1 401.5,581.0 413.4,581.5 425.3,579.2 437.2,575.8 449.1,573.1 461.0,569.9 472.9,565.0 484.8,564.7 496.7,563.5 508.6,561.6 520.5,563.6 532.4,563.2 544.3,563.6 556.2,562.3 568.1,560.5 580.0,559.3 591.9,558.4 603.8,559.5 615.7,559.7 627.6,559.6 639.5,563.2 651.4,564.7 663.3,562.8 675.2,563.9 687.1,561.3 699.0,559.9 710.9,561.0 722.8,552.6 734.7,539.8 746.6,535.7 758.5,532.9 770.4,537.7 782.3,539.9 794.2,531.9 806.1,526.6 818.0,516.3 829.9,522.7 841.8,521.3 853.7,510.7 865.6,502.6 877.5,508.4 889.4,509.3 901.3,509.8" stroke="#8DA0CB" stroke-width="5.40" stroke-opacity="1.00" fill="none" clip-path="url(#axis_clip)"/>
<g class="pl" fill="#FFF" stroke="#8DA0CB" stroke-width="0.900" clip-path="url(#axis_clip)">
  <circle cx="294.4" cy="586.1" r="2.2"/>
  <circle cx="306.3" cy="585.8" r="2.2"/>
  <circle cx="318.2" cy="586.0" r="2.2"/>
  <circle cx="330.1" cy="586.1" r="2.2"/>
  <circle cx="342.0" cy="586.1" r="2.2"/>
  <circle cx="353.9" cy="586.2" r="2.2"/>
  <circle cx="365.8" cy="585.1" r="2.2"/>
  <circle cx="377.7" cy="583.5" r="2.2"/>
  <circle cx="389.6" cy="582.1" r="2.2"/>
  <circle cx="413.4" cy="581.5" r="2.2"/>
  <circle cx="425.3" cy="579.2" r="2.2"/>
  <circle cx="437.2" cy="575.8" r="2.2"/>
  <circle cx="449.1" cy="573.1" r="2.2"/>
  <circle cx="461.0" cy="569.9" r="2.2"/>
  <circle cx="472.9" cy="565.0" r="2.2"/>
  <circle cx="484.8" cy="564.7" r="2.2"/>
  <circle cx="496.7" cy="563.5" r="2.2"/>
  <circle cx="508.6" cy="561.6" r="2.2"/>
  <circle cx="532.4" cy="563.2" r="2.2"/>
  <circle cx="544.3" cy="563.6" r="2.2"/>
  <circle cx="556.2" cy="562.3" r="2.2"/>
  <circle cx="568.1" cy="560.5" r="2.2"/>
  <circle cx="580.0" cy="559.3" r="2.2"/>
  <circle cx="591.9" cy="558.4" r="2.2"/>
  <circle cx="603.8" cy="559.5" r="2.2"/>
  <circle cx="615.7" cy="559.7" r="2.2"/>
  <circle cx="627.6" cy="559.6" r="2.2"/>
  <circle cx="651.4" cy="564.7" r="2.2"/>
  <circle cx="663.3" cy="562.8" r="2.2"/>
  <circle cx="675.2" cy="563.9" r="2.2"/>
  <circle cx="687.1" cy="561.3" r="2.2"/>
  <circle cx="699.0" cy="559.9" r="2.2"/>
  <circle cx="710.9" cy="561.0" r="2.2"/>
  <circle cx="722.8" cy="552.6" r="2.2"/>
  <circle cx="734.7" cy="539.8" r="2.2"/>
  <circle cx="746.6" cy="535.7" r="2.2"/>
  <circle cx="770.4" cy="537.7" r="2.2"/>
  <circle cx="782.3" cy="539.9" r="2.2"/>
  <circle cx="794.2" cy="531.9" r="2.2"/>
  <circle cx="806.1" cy="526.6" r="2.2"/>
  <circle cx="818.0" cy="516.3" r="2.2"/>
  <circle cx="829.9" cy="522.7" r="2.2"/>
  <circle cx="841.8" cy="521.3" r="2.2"/>
  <circle cx="853.7" cy="510.7" r="2.2"/>
  <circle cx="865.6" cy="502.6" r="2.2"/>
  <circle cx="889.4" cy="509.3" r="2.2"/>
  <circle cx="901.3" cy="509.8" r="2.2"/>
</g>
<g class="pl" fill="#FFF" stroke="#8DA0CB" stroke-width="0.900" clip-path="url(#axis_clip)">
  <circle cx="282.5" cy="586.0" r="5.4"/>
  <circle cx="401.5" cy="581.0" r="5.4"/>
  <circle cx="520.5" cy="563.6" r="5.4"/>
  <circle cx="639.5" cy="563.2" r="5.4"/>
  <circle cx="758.5" cy="532.9" r="5.4"/>
  <circle cx="877.5" cy="508.4" r="5.4"/>
</g>
<polyline class="pl" points="223.0,587.2 234.9,587.2 246.8,587.2 258.7,587.2 270.6,587.2 282.5,587.2 294.4,587.2 306.3,587.2 318.2,587.2 330.1,587.2 342.0,587.2 353.9,587.2 365.8,587.2 377.7,587.2 389.6,587.2 401.5,587.2 413.4,587.2 425.3,587.2 437.2,587.2 449.1,585.7 461.0,584.1 472.9,587.0 484.8,586.3 496.7,586.6 508.6,585.5 520.5,585.1 532.4,585.9 544.3,585.6 556.2,586.8 568.1,587.1 580.0,584.9 591.9,585.0 603.8,584.3 615.7,584.2 627.6,583.6 639.5,581.7 651.4,574.3 663.3,574.8 675.2,575.3 687.1,576.9 699.0,578.5 710.9,575.2 722.8,576.5 734.7,575.1 746.6,576.1 758.5,574.8 770.4,573.9 782.3,573.7 794.2,574.3 806.1,574.4 818.0,575.0 829.9,574.1 841.8,574.3 853.7,574.4 865.6,574.1 877.5,575.8 889.4,575.4 901.3,575.5" stroke="#FC8D62" stroke-width="5.40" stroke-opacity="1.00" fill="none" clip-path="url(#axis_clip)"/>
<g class="pl" fill="#FFF" stroke="#FC8D62" stroke-width="0.900" clip-path="url(#axis_clip)">
  <circle cx="223.0" cy="587.2" r="2.2"/>
  <circle cx="234.9" cy="587.2" r="2.2"/>
  <circle cx="246.8" cy="587.2" r="2.2"/>
  <circle cx="258.7" cy="587.2" r="2.2"/>
  <circle cx="270.6" cy="587.2" r="2.2"/>
  <circle cx="294.4" cy="587.2" r="2.2"/>
  <circle cx="306.3" cy="587.2" r="2.2"/>
  <circle cx="318.2" cy="587.2" r="2.2"/>
  <circle cx="330.1" cy="587.2" r="2.2"/>
  <circle cx="342.0" cy="587.2" r="2.2"/>
  <circle cx="353.9" cy="587.2" r="2.2"/>
  <circle cx="365.8" cy="587.2" r="2.2"/>
  <circle cx="377.7" cy="587.2" r="2.2"/>
  <circle cx="389.6" cy="587.2" r="2.2"/>
  <circle cx="413.4" cy="587.2" r="2.2"/>
  <circle cx="425.3" cy="587.2" r="2.2"/>
  <circle cx="437.2" cy="587.2" r="2.2"/>
  <circle cx="449.1" cy="585.7" r="2.2"/>
  <circle cx="461.0" cy="584.1" r="2.2"/>
  <circle cx="472.9" cy="587.0" r="2.2"/>
  <circle cx="484.8" cy="586.3" r="2.2"/>
  <circle cx="496.7" cy="586.6" r="2.2"/>
  <circle cx="508.6" cy="585.5" r="2.2"/>
  <circle cx="532.4" cy="585.9" r="2.2"/>
  <circle cx="544.3" cy="585.6" r="2.2"/>
  <circle cx="556.2" cy="586.8" r="2.2"/>
  <circle cx="568.1" cy="587.1" r="2.2"/>
  <circle cx="580.0" cy="584.9" r="2.2"/>
  <circle cx="591.9" cy="585.0" r="2.2"/>
  <circle cx="603.8" cy="584.3" r="2.2"/>
  <circle cx="615.7" cy="584.2" r="2.2"/>
  <circle cx="627.6" cy="583.6" r="2.2"/>
  <circle cx="651.4" cy="574.3" r="2.2"/>
  <circle cx="663.3" cy="574.8" r="2.2"/>
  <circle cx="675.2" cy="575.3" r="2.2"/>
  <circle cx="687.1" cy="576.9" r="2.2"/>
  <circle cx="699.0" cy="578.5" r="2.2"/>
  <circle cx="710.9" cy="575.2" r="2.2"/>
  <circle cx="722.8" cy="576.5" r="2.2"/>
  <circle cx="734.7" cy="575.1" r="2.2"/>
  <circle cx="746.6" cy="576.1" r="2.2"/>
  <circle cx="770.4" cy="573.9" r="2.2"/>
  <circle cx="782.3" cy="573.7" r="2.2"/>
  <circle cx="794.2" cy="574.3" r="2.2"/>
  <circle cx="806.1" cy="574.4" r="2.2"/>
  <circle cx="818.0" cy="575.0" r="2.2"/>
  <circle cx="829.9" cy="574.1" r="2.2"/>
  <circle cx="841.8" cy="574.3" r="2.2"/>
  <circle cx="853.7" cy="574.4" r="2.2"/>
  <circle cx="865.6" cy="574.1" r="2.2"/>
  <circle cx="889.4" cy="575.4" r="2.2"/>
  <circle cx="901.3" cy="575.5" r="2.2"/>
</g>
<g class="pl" fill="#FFF" stroke="#FC8D62" stroke-width="0.900" clip-path="url(#axis_clip)">
  <circle cx="282.5" cy="587.2" r="5.4"/>
  <circle cx="401.5" cy="587.2" r="5.4"/>
  <circle cx="520.5" cy="585.1" r="5.4"/>
  <circle cx="639.5" cy="581.7" r="5.4"/>
  <circle cx="758.5" cy="574.8" r="5.4"/>
  <circle cx="877.5" cy="575.8" r="5.4"/>
</g>
<polyline class="pl" points="223.0,563.0 234.9,560.8 246.8,559.6 258.7,558.3 270.6,556.3 282.5,549.5 294.4,546.3 306.3,539.2 318.2,532.4 330.1,525.0 342.0,518.8 353.9,508.7 365.8,498.7 377.7,490.0 389.6,476.9 401.5,465.2 413.4,463.5 425.3,453.7 437.2,443.9 449.1,429.6 461.0,418.4 472.9,414.6 484.8,411.6 496.7,398.8 508.6,393.5 520.5,391.6 532.4,381.2 544.3,375.9 556.2,364.8 568.1,357.6 580.0,347.0 591.9,335.8 603.8,323.3 615.7,311.5 627.6,310.0 639.5,299.2 651.4,335.4 663.3,320.0 675.2,303.6 687.1,291.4 699.0,278.1 710.9,269.7 722.8,248.8 734.7,255.0 746.6,237.9 758.5,229.1 770.4,209.2 782.3,222.8 794.2,246.3 806.1,263.5 818.0,277.3 829.9,261.0 841.8,271.4 853.7,258.0 865.6,251.7 877.5,254.1 889.4,283.5 901.3,230.9" stroke="#66C2A5" stroke-width="5.40" stroke-opacity="1.00" fill="none" clip-path="url(#axis_clip)"/>
<g class="pl" fill="#FFF" stroke="#66C2A5" stroke-width="0.900" clip-path="url(#axis_clip)">
  <circle cx="223.0" cy="563.0" r="2.2"/>
  <circle cx="234.9" cy="560.8" r="2.2"/>
  <circle cx="246.8" cy="559.6" r="2.2"/>
  <circle cx="258.7" cy="558.3" r="2.2"/>
  <circle cx="270.6" cy="556.3" r="2.2"/>
  <circle cx="294.4" cy="546.3" r="2.2"/>
  <circle cx="306.3" cy="539.2" r="2.2"/>
  <circle cx="318.2" cy="532.4" r="2.2"/>
  <circle cx="330.1" cy="525.0" r="2.2"/>
  <circle cx="342.0" cy="518.8" r="2.2"/>
  <circle cx="353.9" cy="508.7" r="2.2"/>
  <circle cx="365.8" cy="498.7" r="2.2"/>
  <circle cx="377.7" cy="490.0" r="2.2"/>
  <circle cx="389.6" cy="476.9" r="2.2"/>
  <circle cx="413.4" cy="463.5" r="2.2"/>
  <circle cx="425.3" cy="453.7" r="2.2"/>
  <circle cx="437.2" cy="443.9" r="2.2"/>
  <circle cx="449.1" cy="429.6" r="2.2"/>
  <circle cx="461.0" cy="418.4" r="2.2"/>
  <circle cx="472.9" cy="414.6" r="2.2"/>
  <circle cx="484.8" cy="411.6" r="2.2"/>
  <circle cx="496.7" cy="398.8" r="2.2"/>
  <circle cx="508.6" cy="393.5" r="2.2"/>
  <circle cx="532.4" cy="381.2" r="2.2"/>
  <circle cx="544.3" cy="375.9" r="2.2"/>
  <circle cx="556.2" cy="364.8" r="2.2"/>
  <circle cx="568.1" cy="357.6" r="2.2"/>
  <circle cx="580.0" cy="347.0" r="2.2"/>
  <circle cx="591.9" cy="335.8" r="2.2"/>
  <circle cx="603.8" cy="323.3" r="2.2"/>
  <circle cx="615.7" cy="311.5" r="2.2"/>
  <circle cx="627.6" cy="310.0" r="2.2"/>
  <circle cx="651.4" cy="335.4" r="2.2"/>
  <circle cx="663.3" cy="320.0" r="2.2"/>
  <circle cx="675.2" cy="303.6" r="2.2"/>
  <circle cx="687.1" cy="291.4" r="2.2"/>
  <circle cx="699.0" cy="278.1" r="2.2"/>
  <circle cx="710.9" cy="269.7" r="2.2"/>
  <circle cx="722.8" cy="248.8" r="2.2"/>
  <circle cx="734.7" cy="255.0" r="2.2"/>
  <circle cx="746.6" cy="237.9" r="2.2"/>
  <circle cx="770.4" cy="209.2" r="2.2"/>
  <circle cx="782.3" cy="222.8" r="2.2"/>
  <circle cx="794.2" cy="246.3" r="2.2"/>
  <circle cx="806.1" cy="263.5" r="2.2"/>
  <circle cx="818.0" cy="277.3" r="2.2"/>
  <circle cx="829.9" cy="261.0" r="2.2"/>
  <circle cx="841.8" cy="271.4" r="2.2"/>
  <circle cx="853.7" cy="258.0" r="2.2"/>
  <circle cx="865.6" cy="251.7" r="2.2"/>
  <circle cx="889.4" cy="283.5" r="2.2"/>
  <circle cx="901.3" cy="230.9" r="2.2"/>
</g>
<g class="pl" fill="#FFF" stroke="#66C2A5" stroke-width="0.900" clip-path="url(#axis_clip)">
  <circle cx="282.5" cy="549.5" r="5.4"/>
  <circle cx="401.5" cy="465.2" r="5.4"/>
  <circle cx="520.5" cy="391.6" r="5.4"/>
  <circle cx="639.5" cy="299.2" r="5.4"/>
  <circle cx="758.5" cy="229.1" r="5.4"/>
  <circle cx="877.5" cy="254.1" r="5.4"/>
</g>
<polyline class="pl" points="520.5,587.2 532.4,587.2 544.3,587.2 556.2,587.2 568.1,587.2 580.0,587.2 591.9,587.2 603.8,587.2 615.7,587.2 627.6,587.2 639.5,587.2 651.4,587.2 663.3,587.2 675.2,587.2 687.1,587.2 699.0,587.2 710.9,587.2 722.8,587.2 734.7,587.2 746.6,587.2 758.5,587.2 770.4,587.2 782.3,587.2 794.2,587.2 806.1,587.2 818.0,587.1 829.9,587.1 841.8,586.5 853.7,584.2 865.6,581.6 877.5,578.1 889.4,573.2 901.3,562.0" stroke="#E5C494" stroke-width="5.40" stroke-opacity="1.00" fill="none" clip-path="url(#axis_clip)"/>
<g class="pl" fill="#FFF" stroke="#E5C494" stroke-width="0.900" clip-path="url(#axis_clip)">
  <circle cx="532.4" cy="587.2" r="2.2"/>
  <circle cx="544.3" cy="587.2" r="2.2"/>
  <circle cx="556.2" cy="587.2" r="2.2"/>
  <circle cx="568.1" cy="587.2" r="2.2"/>
  <circle cx="580.0" cy="587.2" r="2.2"/>
  <circle cx="591.9" cy="587.2" r="2.2"/>
  <circle cx="603.8" cy="587.2" r="2.2"/>
  <circle cx="615.7" cy="587.2" r="2.2"/>
  <circle cx="627.6" cy="587.2" r="2.2"/>
  <circle cx="651.4" cy="587.2" r="2.2"/>
  <circle cx="663.3" cy="587.2" r="2.2"/>
  <circle cx="675.2" cy="587.2" r="2.2"/>
  <circle cx="687.1" cy="587.2" r="2.2"/>
  <circle cx="699.0" cy="587.2" r="2.2"/>
  <circle cx="710.9" cy="587.2" r="2.2"/>
  <circle cx="722.8" cy="587.2" r="2.2"/>
  <circle cx="734.7" cy="587.2" r="2.2"/>
  <circle cx="746.6" cy="587.2" r="2.2"/>
  <circle cx="770.4" cy="587.2" r="2.2"/>
  <circle cx="782.3" cy="587.2" r="2.2"/>
  <circle cx="794.2" cy="587.2" r="2.2"/>
  <circle cx="806.1" cy="587.2" r="2.2"/>
  <circle cx="818.0" cy="587.1" r="2.2"/>
  <circle cx="829.9" cy="587.1" r="2.2"/>
  <circle cx="841.8" cy="586.5" r="2.2"/>
  <circle cx="853.7" cy="584.2" r="2.2"/>
  <circle cx="865.6" cy="581.6" r="2.2"/>
  <circle cx="889.4" cy="573.2" r="2.2"/>
  <circle cx="901.3" cy="562.0" r="2.2"/>
</g>
<g class="pl" fill="#FFF" stroke="#E5C494" stroke-width="0.900" clip-path="url(#axis_clip)">
  <circle cx="520.5" cy="587.2" r="5.4"/>
  <circle cx="639.5" cy="587.2" r="5.4"/>
  <circle cx="758.5" cy="587.2" r="5.4"/>
  <circle cx="877.5" cy="578.1" r="5.4"/>
</g>
<polyline class="pl" points="461.0,587.2 472.9,587.2 484.8,587.2 496.7,587.2 508.6,587.2 520.5,587.2 532.4,587.2 544.3,587.2 556.2,587.2 568.1,587.2 580.0,587.2 591.9,587.2 603.8,587.2 615.7,587.2 627.6,587.2 639.5,587.2 651.4,587.1 663.3,587.1 675.2,587.1 687.1,587.1 699.0,587.1 710.9,587.0 722.8,586.6 734.7,586.1 746.6,586.1 758.5,585.2 770.4,584.8 782.3,582.7 794.2,581.4 806.1,576.6 818.0,568.5 829.9,558.5 841.8,551.1 853.7,546.1 865.6,540.0 877.5,539.2 889.4,526.7 901.3,519.1" stroke="#FFD92F" stroke-width="5.40" stroke-opacity="1.00" fill="none" clip-path="url(#axis_clip)"/>
<g class="pl" fill="#FFF" stroke="#FFD92F" stroke-width="0.900" clip-path="url(#axis_clip)">
  <circle cx="461.0" cy="587.2" r="2.2"/>
  <circle cx="472.9" cy="587.2" r="2.2"/>
  <circle cx="484.8" cy="587.2" r="2.2"/>
  <circle cx="496.7" cy="587.2" r="2.2"/>
  <circle cx="508.6" cy="587.2" r="2.2"/>
  <circle cx="532.4" cy="587.2" r="2.2"/>
  <circle cx="544.3" cy="587.2" r="2.2"/>
  <circle cx="556.2" cy="587.2" r="2.2"/>
  <circle cx="568.1" cy="587.2" r="2.2"/>
  <circle cx="580.0" cy="587.2" r="2.2"/>
  <circle cx="591.9" cy="587.2" r="2.2"/>
  <circle cx="603.8" cy="587.2" r="2.2"/>
  <circle cx="615.7" cy="587.2" r="2.2"/>
  <circle cx="627.6" cy="587.2" r="2.2"/>
  <circle cx="651.4" cy="587.1" r="2.2"/>
  <circle cx="663.3" cy="587.1" r="2.2"/>
  <circle cx="675.2" cy="587.1" r="2.2"/>
  <circle cx="687.1" cy="587.1" r="2.2"/>
  <circle cx="699.0" cy="587.1" r="2.2"/>
  <circle cx="710.9" cy="587.0" r="2.2"/>
  <circle cx="722.8" cy="586.6" r="2.2"/>
  <circle cx="734.7" cy="586.1" r="2.2"/>
  <circle cx="746.6" cy="586.1" r="2.2"/>
  <circle cx="770.4" cy="584.8" r="2.2"/>
  <circle cx="782.3" cy="582.7" r="2.2"/>
  <circle cx="794.2" cy="581.4" r="2.2"/>
  <circle cx="806.1" cy="576.6" r="2.2"/>
  <circle cx="818.0" cy="568.5" r="2.2"/>
  <circle cx="829.9" cy="558.5" r="2.2"/>
  <circle cx="841.8" cy="551.1" r="2.2"/>
  <circle cx="853.7" cy="546.1" r="2.2"/>
  <circle cx="865.6" cy="540.0" r="2.2"/>
  <circle cx="889.4" cy="526.7" r="2.2"/>
  <circle cx="901.3" cy="519.1" r="2.2"/>
</g>
<g class="pl" fill="#FFF" stroke="#FFD92F" stroke-width="0.900" clip-path="url(#axis_clip)">
  <circle cx="520.5" cy="587.2" r="5.4"/>
  <circle cx="639.5" cy="587.2" r="5.4"/>
  <circle cx="758.5" cy="585.2" r="5.4"/>
  <circle cx="877.5" cy="539.2" r="5.4"/>
</g>
<polyline class="pl" points="223.0,587.0 234.9,587.0 246.8,587.0 258.7,586.9 270.6,586.9 282.5,586.9 294.4,586.8 306.3,586.6 318.2,586.5 330.1,585.9 342.0,585.8 353.9,585.6 365.8,585.2 377.7,584.6 389.6,584.4 401.5,583.9 413.4,584.3 425.3,583.0 437.2,581.5 449.1,580.6 461.0,578.9 472.9,577.6 484.8,576.5 496.7,576.4 508.6,576.1 520.5,577.1 532.4,576.7 544.3,575.3 556.2,573.3 568.1,572.0 580.0,570.4 591.9,568.7 603.8,567.1 615.7,566.2 627.6,562.3 639.5,556.1 651.4,547.9 663.3,540.7 675.2,535.2 687.1,525.4 699.0,522.8 710.9,519.5 722.8,517.4 734.7,505.1 746.6,521.1 758.5,499.0 770.4,499.3 782.3,483.0 794.2,464.4 806.1,457.1 818.0,449.8 829.9,468.5 841.8,466.8 853.7,472.4 865.6,472.9 877.5,486.6 889.4,457.8 901.3,484.9" stroke="#6298C6" stroke-width="5.40" stroke-opacity="1.00" fill="none" clip-path="url(#axis_clip)"/>
<g class="pl" fill="#FFF" stroke="#6298C6" stroke-width="0.900" clip-path="url(#axis_clip)">
  <circle cx="223.0" cy="587.0" r="2.2"/>
  <circle cx="234.9" cy="587.0" r="2.2"/>
  <circle cx="246.8" cy="587.0" r="2.2"/>
  <circle cx="258.7" cy="586.9" r="2.2"/>
  <circle cx="270.6" cy="586.9" r="2.2"/>
  <circle cx="294.4" cy="586.8" r="2.2"/>
  <circle cx="306.3" cy="586.6" r="2.2"/>
  <circle cx="318.2" cy="586.5" r="2.2"/>
  <circle cx="330.1" cy="585.9" r="2.2"/>
  <circle cx="342.0" cy="585.8" r="2.2"/>
  <circle cx="353.9" cy="585.6" r="2.2"/>
  <circle cx="365.8" cy="585.2" r="2.2"/>
  <circle cx="377.7" cy="584.6" r="2.2"/>
  <circle cx="389.6" cy="584.4" r="2.2"/>
  <circle cx="413.4" cy="584.3" r="2.2"/>
  <circle cx="425.3" cy="583.0" r="2.2"/>
  <circle cx="437.2" cy="581.5" r="2.2"/>
  <circle cx="449.1" cy="580.6" r="2.2"/>
  <circle cx="461.0" cy="578.9" r="2.2"/>
  <circle cx="472.9" cy="577.6" r="2.2"/>
  <circle cx="484.8" cy="576.5" r="2.2"/>
  <circle cx="496.7" cy="576.4" r="2.2"/>
  <circle cx="508.6" cy="576.1" r="2.2"/>
  <circle cx="532.4" cy="576.7" r="2.2"/>
  <circle cx="544.3" cy="575.3" r="2.2"/>
  <circle cx="556.2" cy="573.3" r="2.2"/>
  <circle cx="568.1" cy="572.0" r="2.2"/>
  <circle cx="580.0" cy="570.4" r="2.2"/>
  <circle cx="591.9" cy="568.7" r="2.2"/>
  <circle cx="603.8" cy="567.1" r="2.2"/>
  <circle cx="615.7" cy="566.2" r="2.2"/>
  <circle cx="627.6" cy="562.3" r="2.2"/>
  <circle cx="651.4" cy="547.9" r="2.2"/>
  <circle cx="663.3" cy="540.7" r="2.2"/>
  <circle cx="675.2" cy="535.2" r="2.2"/>
  <circle cx="687.1" cy="525.4" r="2.2"/>
  <circle cx="699.0" cy="522.8" r="2.2"/>
  <circle cx="710.9" cy="519.5" r="2.2"/>
  <circle cx="722.8" cy="517.4" r="2.2"/>
  <circle cx="734.7" cy="505.1" r="2.2"/>
  <circle cx="746.6" cy="521.1" r="2.2"/>
  <circle cx="770.4" cy="499.3" r="2.2"/>
  <circle cx="782.3" cy="483.0" r="2.2"/>
  <circle cx="794.2" cy="464.4" r="2.2"/>
  <circle cx="806.1" cy="457.1" r="2.2"/>
  <circle cx="818.0" cy="449.8" r="2.2"/>
  <circle cx="829.9" cy="468.5" r="2.2"/>
  <circle cx="841.8" cy="466.8" r="2.2"/>
  <circle cx="853.7" cy="472.4" r="2.2"/>
  <circle cx="865.6" cy="472.9" r="2.2"/>
  <circle cx="889.4" cy="457.8" r="2.2"/>
  <circle cx="901.3" cy="484.9" r="2.2"/>
</g>
<g class="pl" fill="#FFF" stroke="#6298C6" stroke-width="0.900" clip-path="url(#axis_clip)">
  <circle cx="282.5" cy="586.9" r="5.4"/>
  <circle cx="401.5" cy="583.9" r="5.4"/>
  <circle cx="520.5" cy="577.1" r="5.4"/>
  <circle cx="639.5" cy="556.1" r="5.4"/>
  <circle cx="758.5" cy="499.0" r="5.4"/>
  <circle cx="877.5" cy="486.6" r="5.4"/>
</g>
<polyline class="pl" points="223.0,530.3 234.9,525.2 246.8,523.2 258.7,510.3 270.6,502.9 282.5,490.8 294.4,477.7 306.3,462.8 318.2,436.5 330.1,420.1 342.0,415.0 353.9,401.7 365.8,398.3 377.7,380.3 389.6,366.9 401.5,373.5 413.4,381.4 425.3,377.6 437.2,391.6 449.1,392.0 461.0,386.1 472.9,369.8 484.8,364.3 496.7,364.0 508.6,358.4 520.5,357.1 532.4,356.8 544.3,355.8 556.2,346.0 568.1,330.7 580.0,312.1 591.9,292.4 603.8,266.1 615.7,253.7 627.6,253.1 639.5,238.1 651.4,235.4 663.3,242.3 675.2,251.8 687.1,240.5 699.0,234.7 710.9,226.7 722.8,208.6 734.7,193.1 746.6,197.3 758.5,169.5 770.4,154.7 782.3,129.1 794.2,116.6 806.1,97.8 818.0,127.6 829.9,152.0 841.8,147.6 853.7,169.0 865.6,170.8 877.5,194.1 889.4,162.5 901.3,142.3" stroke="#404040" stroke-width="5.40" stroke-opacity="1.00" fill="none" clip-path="url(#axis_clip)"/>
<g class="pl" fill="#FFF" stroke="#404040" stroke-width="0.900" clip-path="url(#axis_clip)">
  <circle cx="223.0" cy="530.3" r="2.2"/>
  <circle cx="234.9" cy="525.2" r="2.2"/>
  <circle cx="246.8" cy="523.2" r="2.2"/>
  <circle cx="258.7" cy="510.3" r="2.2"/>
  <circle cx="270.6" cy="502.9" r="2.2"/>
  <circle cx="294.4" cy="477.7" r="2.2"/>
  <circle cx="306.3" cy="462.8" r="2.2"/>
  <circle cx="318.2" cy="436.5" r="2.2"/>
  <circle cx="330.1" cy="420.1" r="2.2"/>
  <circle cx="342.0" cy="415.0" r="2.2"/>
  <circle cx="353.9" cy="401.7" r="2.2"/>
  <circle cx="365.8" cy="398.3" r="2.2"/>
  <circle cx="377.7" cy="380.3" r="2.2"/>
  <circle cx="389.6" cy="366.9" r="2.2"/>
  <circle cx="413.4" cy="381.4" r="2.2"/>
  <circle cx="425.3" cy="377.6" r="2.2"/>
  <circle cx="437.2" cy="391.6" r="2.2"/>
  <circle cx="449.1" cy="392.0" r="2.2"/>
  <circle cx="461.0" cy="386.1" r="2.2"/>
  <circle cx="472.9" cy="369.8" r="2.2"/>
  <circle cx="484.8" cy="364.3" r="2.2"/>
  <circle cx="496.7" cy="364.0" r="2.2"/>
  <circle cx="508.6" cy="358.4" r="2.2"/>
  <circle cx="532.4" cy="356.8" r="2.2"/>
  <circle cx="544.3" cy="355.8" r="2.2"/>
  <circle cx="556.2" cy="346.0" r="2.2"/>
  <circle cx="568.1" cy="330.7" r="2.2"/>
  <circle cx="580.0" cy="312.1" r="2.2"/>
  <circle cx="591.9" cy="292.4" r="2.2"/>
  <circle cx="603.8" cy="266.1" r="2.2"/>
  <circle cx="615.7" cy="253.7" r="2.2"/>
  <circle cx="627.6" cy="253.1" r="2.2"/>
  <circle cx="651.4" cy="235.4" r="2.2"/>
  <circle cx="663.3" cy="242.3" r="2.2"/>
  <circle cx="675.2" cy="251.8" r="2.2"/>
  <circle cx="687.1" cy="240.5" r="2.2"/>
  <circle cx="699.0" cy="234.7" r="2.2"/>
  <circle cx="710.9" cy="226.7" r="2.2"/>
  <circle cx="722.8" cy="208.6" r="2.2"/>
  <circle cx="734.7" cy="193.1" r="2.2"/>
  <circle cx="746.6" cy="197.3" r="2.2"/>
  <circle cx="770.4" cy="154.7" r="2.2"/>
  <circle cx="782.3" cy="129.1" r="2.2"/>
  <circle cx="794.2" cy="116.6" r="2.2"/>
  <circle cx="806.1" cy="97.8" r="2.2"/>
  <circle cx="818.0" cy="127.6" r="2.2"/>
  <circle cx="829.9" cy="152.0" r="2.2"/>
  <circle cx="841.8" cy="147.6" r="2.2"/>
  <circle cx="853.7" cy="169.0" r="2.2"/>
  <circle cx="865.6" cy="170.8" r="2.2"/>
  <circle cx="889.4" cy="162.5" r="2.2"/>
  <circle cx="901.3" cy="142.3" r="2.2"/>
</g>
<g class="pl" fill="#FFF" stroke="#404040" stroke-width="0.900" clip-path="url(#axis_clip)">
  <circle cx="282.5" cy="490.8" r="5.4"/>
  <circle cx="401.5" cy="373.5" r="5.4"/>
  <circle cx="520.5" cy="357.1" r="5.4"/>
  <circle cx="639.5" cy="238.1" r="5.4"/>
  <circle cx="758.5" cy="169.5" r="5.4"/>
  <circle cx="877.5" cy="194.1" r="5.4"/>
</g>
<polyline class="pl" points="223.0,580.7 234.9,580.2 246.8,579.9 258.7,580.1 270.6,579.2 282.5,578.1 294.4,578.0 306.3,577.6 318.2,577.7 330.1,577.2 342.0,575.3 353.9,574.5 365.8,571.1 377.7,568.6 389.6,567.0 401.5,565.2 413.4,565.7 425.3,564.5 437.2,561.6 449.1,555.6 461.0,549.9 472.9,549.4 484.8,547.7 496.7,546.8 508.6,547.1 520.5,551.5 532.4,546.2 544.3,547.5 556.2,546.2 568.1,545.2 580.0,543.1 591.9,541.7 603.8,541.4 615.7,542.4 627.6,541.8 639.5,538.8 651.4,539.6 663.3,541.1 675.2,539.4 687.1,537.1 699.0,538.8 710.9,539.5 722.8,536.7 734.7,535.9 746.6,545.8 758.5,533.4 770.4,529.7 782.3,530.3 794.2,525.9 806.1,522.0 818.0,521.6 829.9,527.9 841.8,524.7 853.7,526.1 865.6,529.7 877.5,535.0 889.4,523.9 901.3,535.1" stroke="#7B553E" stroke-width="5.40" stroke-opacity="1.00" fill="none" clip-path="url(#axis_clip)"/>
<g class="pl" fill="#FFF" stroke="#7B553E" stroke-width="0.900" clip-path="url(#axis_clip)">
  <circle cx="223.0" cy="580.7" r="2.2"/>
  <circle cx="234.9" cy="580.2" r="2.2"/>
  <circle cx="246.8" cy="579.9" r="2.2"/>
  <circle cx="258.7" cy="580.1" r="2.2"/>
  <circle cx="270.6" cy="579.2" r="2.2"/>
  <circle cx="294.4" cy="578.0" r="2.2"/>
  <circle cx="306.3" cy="577.6" r="2.2"/>
  <circle cx="318.2" cy="577.7" r="2.2"/>
  <circle cx="330.1" cy="577.2" r="2.2"/>
  <circle cx="342.0" cy="575.3" r="2.2"/>
  <circle cx="353.9" cy="574.5" r="2.2"/>
  <circle cx="365.8" cy="571.1" r="2.2"/>
  <circle cx="377.7" cy="568.6" r="2.2"/>
  <circle cx="389.6" cy="567.0" r="2.2"/>
  <circle cx="413.4" cy="565.7" r="2.2"/>
  <circle cx="425.3" cy="564.5" r="2.2"/>
  <circle cx="437.2" cy="561.6" r="2.2"/>
  <circle cx="449.1" cy="555.6" r="2.2"/>
  <circle cx="461.0" cy="549.9" r="2.2"/>
  <circle cx="472.9" cy="549.4" r="2.2"/>
  <circle cx="484.8" cy="547.7" r="2.2"/>
  <circle cx="496.7" cy="546.8" r="2.2"/>
  <circle cx="508.6" cy="547.1" r="2.2"/>
  <circle cx="532.4" cy="546.2" r="2.2"/>
  <circle cx="544.3" cy="547.5" r="2.2"/>
  <circle cx="556.2" cy="546.2" r="2.2"/>
  <circle cx="568.1" cy="545.2" r="2.2"/>
  <circle cx="580.0" cy="543.1" r="2.2"/>
  <circle cx="591.9" cy="541.7" r="2.2"/>
  <circle cx="603.8" cy="541.4" r="2.2"/>
  <circle cx="615.7" cy="542.4" r="2.2"/>
  <circle cx="627.6" cy="541.8" r="2.2"/>
  <circle cx="651.4" cy="539.6" r="2.2"/>
  <circle cx="663.3" cy="541.1" r="2.2"/>
  <circle cx="675.2" cy="539.4" r="2.2"/>
  <circle cx="687.1" cy="537.1" r="2.2"/>
  <circle cx="699.0" cy="538.8" r="2.2"/>
  <circle cx="710.9" cy="539.5" r="2.2"/>
  <circle cx="722.8" cy="536.7" r="2.2"/>
  <circle cx="734.7" cy="535.9" r="2.2"/>
  <circle cx="746.6" cy="545.8" r="2.2"/>
  <circle cx="770.4" cy="529.7" r="2.2"/>
  <circle cx="782.3" cy="530.3" r="2.2"/>
  <circle cx="794.2" cy="525.9" r="2.2"/>
  <circle cx="806.1" cy="522.0" r="2.2"/>
  <circle cx="818.0" cy="521.6" r="2.2"/>
  <circle cx="829.9" cy="527.9" r="2.2"/>
  <circle cx="841.8" cy="524.7" r="2.2"/>
  <circle cx="853.7" cy="526.1" r="2.2"/>
  <circle cx="865.6" cy="529.7" r="2.2"/>
  <circle cx="889.4" cy="523.9" r="2.2"/>
  <circle cx="901.3" cy="535.1" r="2.2"/>
</g>
<g class="pl" fill="#FFF" stroke="#7B553E" stroke-width="0.900" clip-path="url(#axis_clip)">
  <circle cx="282.5" cy="578.1" r="5.4"/>
  <circle cx="401.5" cy="565.2" r="5.4"/>
  <circle cx="520.5" cy="551.5" r="5.4"/>
  <circle cx="639.5" cy="538.8" r="5.4"/>
  <circle cx="758.5" cy="533.4" r="5.4"/>
  <circle cx="877.5" cy="535.0" r="5.4"/>
</g>
<text transform="translate(945.6,312.2)" dy="8.1" font-size="27.00" fill="#FDBF6F" stroke="none">Bioenergy</text>
<text transform="translate(945.6,509.5)" dy="8.1" font-size="27.00" fill="#E78AC3" stroke="none">Other</text>
<text transform="translate(945.6,457.7)" dy="8.1" font-size="27.00" fill="#8DA0CB" stroke="none">Biofuels</text>
<text transform="translate(945.6,587.2)" dy="8.1" font-size="27.00" fill="#FC8D62" stroke="none">Nuclear</text>
<text transform="translate(945.6,230.9)" dy="8.1" font-size="27.00" fill="#66C2A5" stroke="none">Hydro</text>
<text transform="translate(945.6,561.3)" dy="8.1" font-size="27.00" fill="#E5C494" stroke="none">Solar</text>
<text transform="translate(945.6,483.6)" dy="8.1" font-size="27.00" fill="#FFD92F" stroke="none">Wind</text>
<text transform="translate(945.6,431.8)" dy="8.1" font-size="27.00" fill="#6298C6" stroke="none">Gas</text>
<text transform="translate(945.6,142.3)" dy="8.1" font-size="27.00" fill="#404040" stroke="none">Oil</text>
<text transform="translate(945.6,535.4)" dy="8.1" font-size="27.00" fill="#7B553E" stroke="none">Coal</text>
<polyline class="pl" points="910.8,533.3 912.4,533.2 913.8,533.0 915.2,532.6 916.4,532.0 917.6,531.4 918.8,530.6 919.8,529.8 920.8,528.8 921.7,527.8 922.7,526.7 923.5,525.6 924.4,524.4 925.2,523.2 926.0,522.0 926.8,520.8 927.6,519.5 928.4,518.3 929.3,517.1 930.1,516.0 931.1,514.9 932.0,513.9 933.0,513.0 934.0,512.1 935.2,511.3 936.4,510.7 937.6,510.2 939.0,509.8 940.4,509.5 942.0,509.5" stroke="#E78AC3" stroke-width="0.90" stroke-opacity="1.00" fill="none" />
<polyline class="pl" points="910.8,509.8 912.4,509.6 913.8,509.1 915.2,508.2 916.4,507.1 917.6,505.7 918.8,504.0 919.8,502.1 920.8,500.1 921.7,497.8 922.7,495.5 923.5,493.0 924.4,490.4 925.2,487.7 926.0,485.1 926.8,482.4 927.6,479.7 928.4,477.0 929.3,474.5 930.1,472.0 931.1,469.6 932.0,467.4 933.0,465.3 934.0,463.4 935.2,461.8 936.4,460.4 937.6,459.2 939.0,458.4 940.4,457.8 942.0,457.7" stroke="#8DA0CB" stroke-width="0.90" stroke-opacity="1.00" fill="none" />
<polyline class="pl" points="910.8,575.5 912.4,575.6 913.8,575.7 915.2,575.9 916.4,576.1 917.6,576.4 918.8,576.8 919.8,577.2 920.8,577.7 921.7,578.2 922.7,578.7 923.5,579.3 924.4,579.9 925.2,580.4 926.0,581.0 926.8,581.7 927.6,582.3 928.4,582.8 929.3,583.4 930.1,584.0 931.1,584.5 932.0,585.0 933.0,585.5 934.0,585.9 935.2,586.3 936.4,586.6 937.6,586.8 939.0,587.0 940.4,587.1 942.0,587.2" stroke="#FC8D62" stroke-width="0.90" stroke-opacity="1.00" fill="none" />
<polyline class="pl" points="910.8,562.0 912.4,562.0 913.8,562.0 915.2,562.0 916.4,562.0 917.6,562.0 918.8,562.0 919.8,561.9 920.8,561.9 921.7,561.9 922.7,561.8 923.5,561.8 924.4,561.8 925.2,561.7 926.0,561.7 926.8,561.6 927.6,561.6 928.4,561.6 929.3,561.5 930.1,561.5 931.1,561.5 932.0,561.4 933.0,561.4 934.0,561.4 935.2,561.3 936.4,561.3 937.6,561.3 939.0,561.3 940.4,561.3 942.0,561.3" stroke="#E5C494" stroke-width="0.90" stroke-opacity="1.00" fill="none" />
<polyline class="pl" points="910.8,519.1 912.4,519.0 913.8,518.6 915.2,518.0 916.4,517.3 917.6,516.3 918.8,515.2 919.8,513.9 920.8,512.5 921.7,510.9 922.7,509.3 923.5,507.6 924.4,505.9 925.2,504.1 926.0,502.2 926.8,500.4 927.6,498.6 928.4,496.8 929.3,495.0 930.1,493.3 931.1,491.7 932.0,490.2 933.0,488.8 934.0,487.5 935.2,486.4 936.4,485.4 937.6,484.6 939.0,484.0 940.4,483.7 942.0,483.6" stroke="#FFD92F" stroke-width="0.90" stroke-opacity="1.00" fill="none" />
<polyline class="pl" points="910.8,484.9 912.4,484.7 913.8,484.2 915.2,483.3 916.4,482.1 917.6,480.7 918.8,479.0 919.8,477.1 920.8,475.0 921.7,472.7 922.7,470.3 923.5,467.7 924.4,465.1 925.2,462.4 926.0,459.7 926.8,456.9 927.6,454.2 928.4,451.5 929.3,448.9 930.1,446.3 931.1,443.9 932.0,441.7 933.0,439.5 934.0,437.6 935.2,435.9 936.4,434.5 937.6,433.3 939.0,432.5 940.4,431.9 942.0,431.8" stroke="#6298C6" stroke-width="0.90" stroke-opacity="1.00" fill="none" />
<polyline class="pl" points="910.8,535.1 912.4,535.1 913.8,535.1 915.2,535.1 916.4,535.2 917.6,535.2 918.8,535.2 919.8,535.2 920.8,535.2 921.7,535.2 922.7,535.2 923.5,535.2 924.4,535.2 925.2,535.2 926.0,535.2 926.8,535.3 927.6,535.3 928.4,535.3 929.3,535.3 930.1,535.3 931.1,535.3 932.0,535.3 933.0,535.3 934.0,535.3 935.2,535.4 936.4,535.4 937.6,535.4 939.0,535.4 940.4,535.4 942.0,535.4" stroke="#7B553E" stroke-width="0.90" stroke-opacity="1.00" fill="none" />
<text transform="translate(1079.5,308.8)" dy="0.0" font-size="14.40" fill="#FDBF6F" stroke="none">excluding</text>
<text transform="translate(1079.5,308.8)" dy="14.4" font-size="14.40" fill="#FDBF6F" stroke="none">liquids</text>
<text transform="translate(145.6,47.2)" dy="0.0" font-size="27.00" fill="#808080" stroke="none">Annual energy consumption Brazil</text>
<text transform="translate(160.2,666.1)" font-size="19.80" font-family="Helvetica" fill="#BFBFBF" stroke="none" xml:space="preserve">Global Carbon Project   &#9679;   Data: Energy Institute, IEA (bioenergy)</text>
<g>
  <rect x="123.0" y="651.4" width="34" height="17" fill="#FFF" stroke="none"/>
  <g transform="translate(124.0,652.4) scale(0.24)">
  <g><circle fill="#FFF" cx="37.79" cy="28.5" r="28.84"/>
     <circle fill="none" cx="37.79" cy="28.5" r="28.84" stroke="#BFBFBF" stroke-width="5.5"/>
     <path fill="#BFBFBF" d="M37.16,23.19 l-4.29,2.23c-0.458-0.951-1.02-1.62-1.69-2c-0.667-0.38-1.29-0.571-1.86-0.571c-2.86,0-4.29,1.89-4.29,5.66 c0,1.71,0.36,3.08,1.09,4.11c0.724,1.03,1.79,1.54,3.2,1.54c1.87,0,3.18-0.915,3.94-2.74l3.94,2 c-0.838,1.56-2,2.79-3.49,3.69c-1.48,0.896-3.12,1.34-4.91,1.34c-2.86,0-5.16-0.875-6.92-2.63 c-1.75-1.75-2.63-4.19-2.63-7.31c0-3.05,0.886-5.47,2.66-7.26c1.77-1.79,4.01-2.69,6.72-2.69 C32.6,18.56,35.44,20.1,37.16,23.19z
              M55.61,23.19l-4.23,2.23c-0.457-0.951-1.02-1.62-1.69-2 c-0.668-0.38-1.31-0.571-1.91-0.571c-2.86,0-4.29,1.89-4.29,5.66c0,1.71,0.363,3.08,1.09,4.11 c0.723,1.03,1.79,1.54,3.2,1.54c1.87,0,3.18-0.915,3.94-2.74l4,2c-0.875,1.56-2.06,2.79-3.54,3.69 c-1.49,0.9-3.11,1.34-4.86,1.34c-2.9,0-5.21-0.875-6.94-2.63c-1.74-1.75-2.6-4.19-2.6-7.31 c0-3.05,0.885-5.47,2.66-7.26c1.77-1.79,4.01-2.69,6.71-2.69C51.12,18.56,53.944,20.1,55.61,23.19z"/>
  </g></g>
  <g transform="translate(140.2,652.4) scale(0.24)">
  <g><circle fill="#FFF" cx="37.79" cy="28.5" r="28.84"/>
     <circle fill="none" cx="37.79" cy="28.5" r="28.84" stroke="#BFBFBF" stroke-width="5.5"/>
     <path fill="#BFBFBF" d="M46.129,20.557v13.085h-3.656v15.542h-9.944V33.643h-3.656V20.557 c0-0.572,0.2-1.057,0.599-1.457c0.401-0.399,0.887-0.6,1.457-0.6h13.144c0.533,0,1.01,0.2,1.428,0.6 C45.918,19.5,46.129,19.986,46.129,20.557z
              M33.042,12.329c0-3.008,1.485-4.514,4.458-4.514s4.457,1.504,4.457,4.514 c0,2.971-1.486,4.457-4.457,4.457S33.042,15.3,33.042,12.329z"/>
  </g></g>
</g>
</g>
</svg>
