<svg version="1.1" xmlns="http://www.w3.org/2000/svg" xmlns:xlink="http://www.w3.org/1999/xlink" width="100%" height="100%" viewBox="0 0 1200.000 674.916">
<title>Annual energy consumption in Bangladesh, 2000&#8211;2022</title>
<style type="text/css">
  #main {font-family:Helvetica,Arial,sans-serif; font-size:27.00px;
         fill-opacity:1; fill:#000000; stroke:none; stroke-linejoin:round; stroke-linecap:round; stroke-width:1.00;}
  .marker {stroke-opacity:0;fill-opacity:0;}
  .marker:hover {stroke-opacity:0.5; fill-opacity:1;}
  .ticklabel {font-size:27.00px;fill:#808080;stroke:none;font-family:Helvetica}
  .ytl {text-anchor:end;}
  .dp1 {pointer-events:none;font-size:70%;text-anchor:middle;fill:#000000;}
  .dp2 {pointer-events:none;font-size:70%;text-anchor:middle;fill:#FFFFFF;}
  .numtip {pointer-events:none;}
  .cc {opacity:0.25;}
.dl_fe {background-color:#FDFFDF;display:flex;margin:auto;align-items:center}
.dl_fe_p {font-size:20px;text-align:center;margin:3px}
.dl_el {display:none;pointer-events:none;}
.cc:hover + .dl_el {display:block;}
text:hover + .dl_el {display:block;}
</style>
<defs>
  <clipPath id="axis_clip"><rect x="145.8" y="54.2" width="761.2" height="532.8" /></clipPath>
  <path id="line_x" d="M 145.600,0 h 761.600" stroke="#262626" stroke-opacity="0.15" stroke-width="1.00"/>
  <path id="tick_y" d="M 145.600,0 h -6.000" stroke="#808080" stroke-width="0.90"/>
  <path id="tick_x" d="M 0,587.177 v 6.000" stroke="#808080" stroke-width="0.90"/>
</defs>
<g id="main">
<use xlink:href="#line_x" transform="translate(0,587.2)"/>
<use xlink:href="#line_x" transform="translate(0,434.8)"/>
<use xlink:href="#line_x" transform="translate(0,282.5)"/>
<use xlink:href="#line_x" transform="translate(0,130.2)"/>
<use xlink:href="#tick_y" transform="translate(0,587.2)"/>
<use xlink:href="#tick_y" transform="translate(0,434.8)"/>
<use xlink:href="#tick_y" transform="translate(0,282.5)"/>
<use xlink:href="#tick_y" transform="translate(0,130.2)"/>
<use xlink:href="#tick_x" transform="translate(209.1,0)"/>
<use xlink:href="#tick_x" transform="translate(336.0,0)"/>
<use xlink:href="#tick_x" transform="translate(462.9,0)"/>
<use xlink:href="#tick_x" transform="translate(589.9,0)"/>
<use xlink:href="#tick_x" transform="translate(716.8,0)"/>
<use xlink:href="#tick_x" transform="translate(843.7,0)"/>
<polyline points="145.6,53.993 145.6,587.177 907.2,587.177" stroke="#808080" stroke-width="0.90" fill="none"/>
<text class="ticklabel ytl" transform="translate(128.8,595.3)">0</text>
<text class="ticklabel ytl" transform="translate(128.8,442.9)">0.4</text>
<text class="ticklabel ytl" transform="translate(128.8,290.6)">0.8</text>
<text class="ticklabel ytl" transform="translate(128.8,138.3)">1.2 EJ</text>
<g stroke="#262626" stroke-width="0.9000"  clip-path="url(#axis_clip)">
  <polygon points="158.3,587.2 158.3,581.9 162.7,581.9 162.7,587.2" fill="#FFEFE6"/>
  <polygon points="285.2,587.2 285.2,533.0 289.6,533.0 289.6,587.2" fill="#EEE"/>
  <polygon points="412.2,587.2 412.2,463.0 416.6,463.0 416.6,587.2" fill="#E6F3FF"/>
  <polygon points="539.1,587.2 539.1,587.2 543.5,587.2 543.5,587.2" fill="#FFEDE6"/>
  <polygon points="666.0,587.2 666.0,584.1 670.4,584.1 670.4,587.2" fill="#E6EDFF"/>
  <polygon points="793.0,587.2 793.0,587.2 797.4,587.2 797.4,587.2" fill="#E6FFF7"/>
</g>
<g stroke="#262626" stroke-width="0.9000"  clip-path="url(#axis_clip)">
  <polygon points="162.7,587.2 162.7,581.6 167.1,581.6 167.1,587.2" fill="#F9E7DC"/>
  <polygon points="289.6,587.2 289.6,522.5 294.1,522.5 294.1,587.2" fill="#E7E7E7"/>
  <polygon points="416.6,587.2 416.6,448.1 421.0,448.1 421.0,587.2" fill="#DFEFFC"/>
  <polygon points="543.5,587.2 543.5,587.2 547.9,587.2 547.9,587.2" fill="#FFE8DF"/>
  <polygon points="670.4,587.2 670.4,583.2 674.9,583.2 674.9,587.2" fill="#E1E9FD"/>
  <polygon points="797.4,587.2 797.4,587.2 801.8,587.2 801.8,587.2" fill="#DFFCF3"/>
</g>
<g stroke="#262626" stroke-width="0.9000"  clip-path="url(#axis_clip)">
  <polygon points="167.1,587.2 167.1,581.4 171.5,581.4 171.5,587.2" fill="#F3DED2"/>
  <polygon points="294.1,587.2 294.1,528.4 298.5,528.4 298.5,587.2" fill="#DFDFDF"/>
  <polygon points="421.0,587.2 421.0,440.9 425.4,440.9 425.4,587.2" fill="#D8EAFA"/>
  <polygon points="547.9,587.2 547.9,587.2 552.3,587.2 552.3,587.2" fill="#FFE4D9"/>
  <polygon points="674.9,587.2 674.9,584.2 679.3,584.2 679.3,587.2" fill="#DDE6FA"/>
  <polygon points="801.8,587.2 801.8,587.2 806.2,587.2 806.2,587.2" fill="#D8F9EF"/>
</g>
<g stroke="#262626" stroke-width="0.9000"  clip-path="url(#axis_clip)">
  <polygon points="171.5,587.2 171.5,581.6 176.0,581.6 176.0,587.2" fill="#EDD6C9"/>
  <polygon points="298.5,587.2 298.5,527.0 302.9,527.0 302.9,587.2" fill="#D8D8D8"/>
  <polygon points="425.4,587.2 425.4,429.8 429.8,429.8 429.8,587.2" fill="#D1E6F7"/>
  <polygon points="552.3,587.2 552.3,587.2 556.8,587.2 556.8,587.2" fill="#FFDFD3"/>
  <polygon points="679.3,587.2 679.3,584.2 683.7,584.2 683.7,587.2" fill="#D8E2F8"/>
  <polygon points="806.2,587.2 806.2,587.2 810.6,587.2 810.6,587.2" fill="#D1F7EB"/>
</g>
<g stroke="#262626" stroke-width="0.9000"  clip-path="url(#axis_clip)">
  <polygon points="176.0,587.2 176.0,581.6 180.4,581.6 180.4,587.2" fill="#E7CEBF"/>
  <polygon points="302.9,587.2 302.9,524.9 307.3,524.9 307.3,587.2" fill="#D0D0D0"/>
  <polygon points="429.8,587.2 429.8,418.0 434.2,418.0 434.2,587.2" fill="#CAE1F5"/>
  <polygon points="556.8,587.2 556.8,587.2 561.2,587.2 561.2,587.2" fill="#FEDBCD"/>
  <polygon points="683.7,587.2 683.7,584.2 688.1,584.2 688.1,587.2" fill="#D4DEF6"/>
  <polygon points="810.6,587.2 810.6,587.2 815.0,587.2 815.0,587.2" fill="#CBF4E7"/>
</g>
<g stroke="#262626" stroke-width="0.9000"  clip-path="url(#axis_clip)">
  <polygon points="180.4,587.2 180.4,575.7 184.8,575.7 184.8,587.2" fill="#E1C6B6"/>
  <polygon points="307.3,587.2 307.3,523.4 311.7,523.4 311.7,587.2" fill="#C9C9C9"/>
  <polygon points="434.2,587.2 434.2,405.3 438.7,405.3 438.7,587.2" fill="#C4DDF2"/>
  <polygon points="561.2,587.2 561.2,587.2 565.6,587.2 565.6,587.2" fill="#FED7C7"/>
  <polygon points="688.1,587.2 688.1,584.2 692.5,584.2 692.5,587.2" fill="#D0DAF3"/>
  <polygon points="815.0,587.2 815.0,587.2 819.5,587.2 819.5,587.2" fill="#C5F1E3"/>
</g>
<g stroke="#262626" stroke-width="0.9000"  clip-path="url(#axis_clip)">
  <polygon points="184.8,587.2 184.8,569.8 189.2,569.8 189.2,587.2" fill="#DBBFAD"/>
  <polygon points="311.7,587.2 311.7,523.1 316.1,523.1 316.1,587.2" fill="#C1C1C1"/>
  <polygon points="438.7,587.2 438.7,390.2 443.1,390.2 443.1,587.2" fill="#BDD8EF"/>
  <polygon points="565.6,587.2 565.6,587.2 570.0,587.2 570.0,587.2" fill="#FED2C1"/>
  <polygon points="692.5,587.2 692.5,584.3 696.9,584.3 696.9,587.2" fill="#CBD7F1"/>
  <polygon points="819.5,587.2 819.5,587.1 823.9,587.1 823.9,587.2" fill="#BEEEDF"/>
</g>
<g stroke="#262626" stroke-width="0.9000"  clip-path="url(#axis_clip)">
  <polygon points="189.2,587.2 189.2,573.0 193.6,573.0 193.6,587.2" fill="#D5B7A5"/>
  <polygon points="316.1,587.2 316.1,526.4 320.5,526.4 320.5,587.2" fill="#B9B9B9"/>
  <polygon points="443.1,587.2 443.1,376.9 447.5,376.9 447.5,587.2" fill="#B7D4ED"/>
  <polygon points="570.0,587.2 570.0,587.2 574.4,587.2 574.4,587.2" fill="#FECEBB"/>
  <polygon points="696.9,587.2 696.9,584.3 701.3,584.3 701.3,587.2" fill="#C7D3EE"/>
  <polygon points="823.9,587.2 823.9,587.1 828.3,587.1 828.3,587.2" fill="#B8ECDB"/>
</g>
<g stroke="#262626" stroke-width="0.9000"  clip-path="url(#axis_clip)">
  <polygon points="193.6,587.2 193.6,572.2 198.0,572.2 198.0,587.2" fill="#CFB09C"/>
  <polygon points="320.5,587.2 320.5,525.6 325.0,525.6 325.0,587.2" fill="#B2B2B2"/>
  <polygon points="447.5,587.2 447.5,362.6 451.9,362.6 451.9,587.2" fill="#B0D0EA"/>
  <polygon points="574.4,587.2 574.4,587.2 578.8,587.2 578.8,587.2" fill="#FECAB5"/>
  <polygon points="701.3,587.2 701.3,583.5 705.8,583.5 705.8,587.2" fill="#C3CFEC"/>
  <polygon points="828.3,587.2 828.3,587.1 832.7,587.1 832.7,587.2" fill="#B2E9D7"/>
</g>
<g stroke="#262626" stroke-width="0.9000"  clip-path="url(#axis_clip)">
  <polygon points="198.0,587.2 198.0,568.5 202.4,568.5 202.4,587.2" fill="#C9A894"/>
  <polygon points="325.0,587.2 325.0,530.5 329.4,530.5 329.4,587.2" fill="#AAA"/>
  <polygon points="451.9,587.2 451.9,330.2 456.3,330.2 456.3,587.2" fill="#AACBE8"/>
  <polygon points="578.8,587.2 578.8,587.2 583.2,587.2 583.2,587.2" fill="#FEC5AF"/>
  <polygon points="705.8,587.2 705.8,585.6 710.2,585.6 710.2,587.2" fill="#BFCCEA"/>
  <polygon points="832.7,587.2 832.7,587.1 837.1,587.1 837.1,587.2" fill="#ACE6D4"/>
</g>
<g stroke="#262626" stroke-width="0.9000"  clip-path="url(#axis_clip)">
  <polygon points="202.4,587.2 202.4,575.3 206.9,575.3 206.9,587.2" fill="#C3A18C"/>
  <polygon points="329.4,587.2 329.4,523.0 333.8,523.0 333.8,587.2" fill="#A2A2A2"/>
  <polygon points="456.3,587.2 456.3,323.2 460.7,323.2 460.7,587.2" fill="#A4C7E5"/>
  <polygon points="583.2,587.2 583.2,587.2 587.7,587.2 587.7,587.2" fill="#FEC1A9"/>
  <polygon points="710.2,587.2 710.2,584.4 714.6,584.4 714.6,587.2" fill="#BBC8E7"/>
  <polygon points="837.1,587.2 837.1,587.0 841.5,587.0 841.5,587.2" fill="#A6E3D0"/>
</g>
<g stroke="#262626" stroke-width="0.9000"  clip-path="url(#axis_clip)">
  <polygon points="206.9,587.2 206.9,569.5 211.3,569.5 211.3,587.2" fill="#BD9A85"/>
  <polygon points="333.8,587.2 333.8,504.9 338.2,504.9 338.2,587.2" fill="#9A9A9A"/>
  <polygon points="460.7,587.2 460.7,318.7 465.1,318.7 465.1,587.2" fill="#9EC3E3"/>
  <polygon points="587.7,587.2 587.7,587.2 592.1,587.2 592.1,587.2" fill="#FEBDA3"/>
  <polygon points="714.6,587.2 714.6,583.9 719.0,583.9 719.0,587.2" fill="#B7C5E5"/>
  <polygon points="841.5,587.2 841.5,586.9 845.9,586.9 845.9,587.2" fill="#A0E1CC"/>
</g>
<g stroke="#262626" stroke-width="0.9000"  clip-path="url(#axis_clip)">
  <polygon points="211.3,587.2 211.3,572.6 215.7,572.6 215.7,587.2" fill="#B7937D"/>
  <polygon points="338.2,587.2 338.2,493.5 342.6,493.5 342.6,587.2" fill="#929292"/>
  <polygon points="465.1,587.2 465.1,294.6 469.6,294.6 469.6,587.2" fill="#98BFE0"/>
  <polygon points="592.1,587.2 592.1,587.2 596.5,587.2 596.5,587.2" fill="#FDB89D"/>
  <polygon points="719.0,587.2 719.0,584.3 723.4,584.3 723.4,587.2" fill="#B3C1E3"/>
  <polygon points="845.9,587.2 845.9,586.8 850.4,586.8 850.4,587.2" fill="#9ADEC8"/>
</g>
<g stroke="#262626" stroke-width="0.9000"  clip-path="url(#axis_clip)">
  <polygon points="215.7,587.2 215.7,566.9 220.1,566.9 220.1,587.2" fill="#B18C76"/>
  <polygon points="342.6,587.2 342.6,491.1 347.0,491.1 347.0,587.2" fill="#8A8A8A"/>
  <polygon points="469.6,587.2 469.6,286.2 474.0,286.2 474.0,587.2" fill="#92BBDD"/>
  <polygon points="596.5,587.2 596.5,587.2 600.9,587.2 600.9,587.2" fill="#FDB497"/>
  <polygon points="723.4,587.2 723.4,584.5 727.8,584.5 727.8,587.2" fill="#AFBEE0"/>
  <polygon points="850.4,587.2 850.4,586.7 854.8,586.7 854.8,587.2" fill="#95DBC5"/>
</g>
<g stroke="#262626" stroke-width="0.9000"  clip-path="url(#axis_clip)">
  <polygon points="220.1,587.2 220.1,574.4 224.5,574.4 224.5,587.2" fill="#AB866F"/>
  <polygon points="347.0,587.2 347.0,482.0 351.5,482.0 351.5,587.2" fill="#828282"/>
  <polygon points="474.0,587.2 474.0,271.5 478.4,271.5 478.4,587.2" fill="#8CB7DB"/>
  <polygon points="600.9,587.2 600.9,587.2 605.3,587.2 605.3,587.2" fill="#FDB091"/>
  <polygon points="727.8,587.2 727.8,585.1 732.3,585.1 732.3,587.2" fill="#ABBADE"/>
  <polygon points="854.8,587.2 854.8,586.5 859.2,586.5 859.2,587.2" fill="#8FD8C1"/>
</g>
<g stroke="#262626" stroke-width="0.9000"  clip-path="url(#axis_clip)">
  <polygon points="224.5,587.2 224.5,545.2 228.9,545.2 228.9,587.2" fill="#A57F68"/>
  <polygon points="351.5,587.2 351.5,459.6 355.9,459.6 355.9,587.2" fill="#7A7A7A"/>
  <polygon points="478.4,587.2 478.4,232.7 482.8,232.7 482.8,587.2" fill="#87B3D8"/>
  <polygon points="605.3,587.2 605.3,587.2 609.7,587.2 609.7,587.2" fill="#FDAB8C"/>
  <polygon points="732.3,587.2 732.3,583.9 736.7,583.9 736.7,587.2" fill="#A7B7DC"/>
  <polygon points="859.2,587.2 859.2,586.4 863.6,586.4 863.6,587.2" fill="#8AD5BE"/>
</g>
<g stroke="#262626" stroke-width="0.9000"  clip-path="url(#axis_clip)">
  <polygon points="228.9,587.2 228.9,555.6 233.3,555.6 233.3,587.2" fill="#9F7961"/>
  <polygon points="355.9,587.2 355.9,456.3 360.3,456.3 360.3,587.2" fill="#727272"/>
  <polygon points="482.8,587.2 482.8,224.5 487.2,224.5 487.2,587.2" fill="#81AFD6"/>
  <polygon points="609.7,587.2 609.7,587.2 614.1,587.2 614.1,587.2" fill="#FDA786"/>
  <polygon points="736.7,587.2 736.7,583.9 741.1,583.9 741.1,587.2" fill="#A3B4D9"/>
  <polygon points="863.6,587.2 863.6,586.3 868.0,586.3 868.0,587.2" fill="#84D3BA"/>
</g>
<g stroke="#262626" stroke-width="0.9000"  clip-path="url(#axis_clip)">
  <polygon points="233.3,587.2 233.3,552.7 237.8,552.7 237.8,587.2" fill="#99725B"/>
  <polygon points="360.3,587.2 360.3,437.7 364.7,437.7 364.7,587.2" fill="#6A6A6A"/>
  <polygon points="487.2,587.2 487.2,222.6 491.6,222.6 491.6,587.2" fill="#7CABD3"/>
  <polygon points="614.1,587.2 614.1,587.2 618.6,587.2 618.6,587.2" fill="#FDA380"/>
  <polygon points="741.1,587.2 741.1,583.4 745.5,583.4 745.5,587.2" fill="#9FB0D7"/>
  <polygon points="868.0,587.2 868.0,586.2 872.4,586.2 872.4,587.2" fill="#7FD0B6"/>
</g>
<g stroke="#262626" stroke-width="0.9000"  clip-path="url(#axis_clip)">
  <polygon points="237.8,587.2 237.8,548.0 242.2,548.0 242.2,587.2" fill="#936C55"/>
  <polygon points="364.7,587.2 364.7,416.4 369.1,416.4 369.1,587.2" fill="#626262"/>
  <polygon points="491.6,587.2 491.6,211.1 496.0,211.1 496.0,587.2" fill="#76A7D0"/>
  <polygon points="618.6,587.2 618.6,587.2 623.0,587.2 623.0,587.2" fill="#FD9E7A"/>
  <polygon points="745.5,587.2 745.5,584.0 749.9,584.0 749.9,587.2" fill="#9CADD4"/>
  <polygon points="872.4,587.2 872.4,586.1 876.8,586.1 876.8,587.2" fill="#7ACDB3"/>
</g>
<g stroke="#262626" stroke-width="0.9000"  clip-path="url(#axis_clip)">
  <polygon points="242.2,587.2 242.2,521.3 246.6,521.3 246.6,587.2" fill="#8D664F"/>
  <polygon points="369.1,587.2 369.1,419.6 373.5,419.6 373.5,587.2" fill="#595959"/>
  <polygon points="496.0,587.2 496.0,163.1 500.5,163.1 500.5,587.2" fill="#71A3CE"/>
  <polygon points="623.0,587.2 623.0,587.2 627.4,587.2 627.4,587.2" fill="#FC9A74"/>
  <polygon points="749.9,587.2 749.9,584.2 754.3,584.2 754.3,587.2" fill="#98AAD2"/>
  <polygon points="876.8,587.2 876.8,586.0 881.3,586.0 881.3,587.2" fill="#75CAAF"/>
</g>
<g stroke="#262626" stroke-width="0.9000"  clip-path="url(#axis_clip)">
  <polygon points="246.6,587.2 246.6,515.4 251.0,515.4 251.0,587.2" fill="#876049"/>
  <polygon points="373.5,587.2 373.5,446.4 377.9,446.4 377.9,587.2" fill="#515151"/>
  <polygon points="500.5,587.2 500.5,177.0 504.9,177.0 504.9,587.2" fill="#6C9FCB"/>
  <polygon points="627.4,587.2 627.4,587.2 631.8,587.2 631.8,587.2" fill="#FC966E"/>
  <polygon points="754.3,587.2 754.3,584.7 758.7,584.7 758.7,587.2" fill="#94A6D0"/>
  <polygon points="881.3,587.2 881.3,585.7 885.7,585.7 885.7,587.2" fill="#70C8AC"/>
</g>
<g stroke="#262626" stroke-width="0.9000"  clip-path="url(#axis_clip)">
  <polygon points="251.0,587.2 251.0,529.2 255.4,529.2 255.4,587.2" fill="#815B43"/>
  <polygon points="377.9,587.2 377.9,411.9 382.4,411.9 382.4,587.2" fill="#484848"/>
  <polygon points="504.9,587.2 504.9,167.7 509.3,167.7 509.3,587.2" fill="#679CC9"/>
  <polygon points="631.8,587.2 631.8,587.2 636.2,587.2 636.2,587.2" fill="#FC9168"/>
  <polygon points="758.7,587.2 758.7,584.7 763.2,584.7 763.2,587.2" fill="#91A3CD"/>
  <polygon points="885.7,587.2 885.7,585.0 890.1,585.0 890.1,587.2" fill="#6BC5A8"/>
</g>
<g stroke="#262626" stroke-width="0.9000"  clip-path="url(#axis_clip)">
  <polygon points="255.4,587.2 255.4,518.7 259.8,518.7 259.8,587.2" fill="#7B553E"/>
  <polygon points="382.4,587.2 382.4,377.7 386.8,377.7 386.8,587.2" fill="#404040"/>
  <polygon points="509.3,587.2 509.3,186.9 513.7,186.9 513.7,587.2" fill="#6298C6"/>
  <polygon points="636.2,587.2 636.2,587.2 640.6,587.2 640.6,587.2" fill="#FC8D62"/>
  <polygon points="763.2,587.2 763.2,584.4 767.6,584.4 767.6,587.2" fill="#8DA0CB"/>
  <polygon points="890.1,587.2 890.1,584.8 894.5,584.8 894.5,587.2" fill="#66C2A5"/>
</g>
<text transform="translate(209.1,600.7)" dy="21.6" font-size="21.60" fill="#808080" stroke="none" text-anchor="middle">Coal</text>
<text transform="translate(336.0,600.7)" dy="21.6" font-size="21.60" fill="#808080" stroke="none" text-anchor="middle">Oil</text>
<text transform="translate(462.9,600.7)" dy="21.6" font-size="21.60" fill="#808080" stroke="none" text-anchor="middle">Gas</text>
<text transform="translate(589.9,600.7)" dy="21.6" font-size="21.60" fill="#808080" stroke="none" text-anchor="middle">Nuclear</text>
<text transform="translate(716.8,600.7)" dy="21.6" font-size="21.60" fill="#808080" stroke="none" text-anchor="middle">Hydro</text>
<text transform="translate(843.7,600.7)"  font-size="21.60" fill="#808080" stroke="none" text-anchor="middle">
      <tspan x="0" y="18.0">Other</tspan><tspan x="0" y="42.2">Renewables</tspan>
    </text>
<polyline class="pl" points="233.3,508.7 233.3,501.9 259.8,501.9 259.8,508.7" stroke="#808080" stroke-width="0.90" stroke-opacity="1.00" fill="none" clip-path="url(#axis_clip)"/>
<text transform="translate(259.8,491.8)" dy="0.0" font-size="21.60" fill="#808080" stroke="none" text-anchor="end">+13.4%/yr</text>
<polyline class="pl" points="360.3,370.9 360.3,364.2 386.8,364.2 386.8,370.9" stroke="#808080" stroke-width="0.90" stroke-opacity="1.00" fill="none" clip-path="url(#axis_clip)"/>
<text transform="translate(386.8,354.0)" dy="0.0" font-size="21.60" fill="#808080" stroke="none" text-anchor="end">+4.5%/yr</text>
<polyline class="pl" points="487.2,156.3 487.2,149.6 513.7,149.6 513.7,156.3" stroke="#808080" stroke-width="0.90" stroke-opacity="1.00" fill="none" clip-path="url(#axis_clip)"/>
<text transform="translate(513.7,139.4)" dy="0.0" font-size="21.60" fill="#808080" stroke="none" text-anchor="end">+2.2%/yr</text>
<text transform="translate(640.6,573.7)" dy="0.0" font-size="21.60" fill="#808080" stroke="none" text-anchor="end">No Data</text>
<polyline class="pl" points="741.1,576.7 741.1,569.9 767.6,569.9 767.6,576.7" stroke="#808080" stroke-width="0.90" stroke-opacity="1.00" fill="none" clip-path="url(#axis_clip)"/>
<text transform="translate(767.6,559.8)" dy="0.0" font-size="21.60" fill="#808080" stroke="none" text-anchor="end">-7.0%/yr</text>
<polyline class="pl" points="868.0,578.0 868.0,571.3 894.5,571.3 894.5,578.0" stroke="#808080" stroke-width="0.90" stroke-opacity="1.00" fill="none" clip-path="url(#axis_clip)"/>
<text transform="translate(894.5,561.2)" dy="0.0" font-size="21.60" fill="#808080" stroke="none" text-anchor="end">+19.7%/yr</text>
<text transform="translate(145.6,47.2)" dy="0.0" font-size="27.00" fill="#808080" stroke="none">Annual energy consumption in Bangladesh, 2000&#8211;2022</text>
<text transform="translate(145.6,54.0)" dy="18.0" font-size="18.00" fill="#808080" stroke="none" xml:space="preserve"> Annual growth rates from 2017&#8211;2022</text>
<text transform="translate(161.9,666.1)" font-size="19.80" font-family="Helvetica" fill="#BFBFBF" stroke="none" xml:space="preserve">Global Carbon Project   &#9679;   Data: Energy Institute</text>
<g>
  <rect x="123.0" y="651.4" width="34" height="17" fill="#FFF" stroke="none"/>
  <g transform="translate(124.0,652.4) scale(0.24)">
  <g><circle fill="#FFF" cx="37.79" cy="28.5" r="28.84"/>
     <circle fill="none" cx="37.79" cy="28.5" r="28.84" stroke="#BFBFBF" stroke-width="5.5"/>
     <path fill="#BFBFBF" d="M37.16,23.19 l-4.29,2.23c-0.458-0.951-1.02-1.62-1.69-2c-0.667-0.38-1.29-0.571-1.86-0.571c-2.86,0-4.29,1.89-4.29,5.66 c0,1.71,0.36,3.08,1.09,4.11c0.724,1.03,1.79,1.54,3.2,1.54c1.87,0,3.18-0.915,3.94-2.74l3.94,2 c-0.838,1.56-2,2.79-3.49,3.69c-1.48,0.896-3.12,1.34-4.91,1.34c-2.86,0-5.16-0.875-6.92-2.63 c-1.75-1.75-2.63-4.19-2.63-7.31c0-3.05,0.886-5.47,2.66-7.26c1.77-1.79,4.01-2.69,6.72-2.69 C32.6,18.56,35.44,20.1,37.16,23.19z
              M55.61,23.19l-4.23,2.23c-0.457-0.951-1.02-1.62-1.69-2 c-0.668-0.38-1.31-0.571-1.91-0.571c-2.86,0-4.29,1.89-4.29,5.66c0,1.71,0.363,3.08,1.09,4.11 c0.723,1.03,1.79,1.54,3.2,1.54c1.87,0,3.18-0.915,3.94-2.74l4,2c-0.875,1.56-2.06,2.79-3.54,3.69 c-1.49,0.9-3.11,1.34-4.86,1.34c-2.9,0-5.21-0.875-6.94-2.63c-1.74-1.75-2.6-4.19-2.6-7.31 c0-3.05,0.885-5.47,2.66-7.26c1.77-1.79,4.01-2.69,6.71-2.69C51.12,18.56,53.944,20.1,55.61,23.19z"/>
  </g></g>
  <g transform="translate(140.2,652.4) scale(0.24)">
  <g><circle fill="#FFF" cx="37.79" cy="28.5" r="28.84"/>
     <circle fill="none" cx="37.79" cy="28.5" r="28.84" stroke="#BFBFBF" stroke-width="5.5"/>
     <path fill="#BFBFBF" d="M46.129,20.557v13.085h-3.656v15.542h-9.944V33.643h-3.656V20.557 c0-0.572,0.2-1.057,0.599-1.457c0.401-0.399,0.887-0.6,1.457-0.6h13.144c0.533,0,1.01,0.2,1.428,0.6 C45.918,19.5,46.129,19.986,46.129,20.557z
              M33.042,12.329c0-3.008,1.485-4.514,4.458-4.514s4.457,1.504,4.457,4.514 c0,2.971-1.486,4.457-4.457,4.457S33.042,15.3,33.042,12.329z"/>
  </g></g>
</g>
</g>
</svg>
