<svg version="1.1" xmlns="http://www.w3.org/2000/svg" xmlns:xlink="http://www.w3.org/1999/xlink" width="100%" height="100%" viewBox="0 0 1200.000 674.916">
<title>Annual energy consumption Poland</title>
<style type="text/css">
  #main {font-family:Helvetica,Arial,sans-serif; font-size:27.00px;
         fill-opacity:1; fill:#000000; stroke:none; stroke-linejoin:round; stroke-linecap:round; stroke-width:1.00;}
  .marker {stroke-opacity:0;fill-opacity:0;}
  .marker:hover {stroke-opacity:0.5; fill-opacity:1;}
  .ticklabel {font-size:27.00px;fill:#808080;stroke:none;font-family:Helvetica}
  .ytl {text-anchor:end;}
  .dp1 {pointer-events:none;font-size:70%;text-anchor:middle;fill:#000000;}
  .dp2 {pointer-events:none;font-size:70%;text-anchor:middle;fill:#FFFFFF;}
  .numtip {pointer-events:none;}
  .cc {opacity:0.25;}
.dl_fe {background-color:#FDFFDF;display:flex;margin:auto;align-items:center}
.dl_fe_p {font-size:20px;text-align:center;margin:3px}
.dl_el {display:none;pointer-events:none;}
.cc:hover + .dl_el {display:block;}
text:hover + .dl_el {display:block;}
</style>
<defs>
  <clipPath id="axis_clip"><rect x="145.8" y="54.2" width="761.2" height="532.8" /></clipPath>
  <path id="line_x" d="M 145.600,0 h 761.600" stroke="#262626" stroke-opacity="0.15" stroke-width="1.00"/>
  <path id="tick_y" d="M 145.600,0 h -6.000" stroke="#808080" stroke-width="0.90"/>
  <path id="tick_x" d="M 0,587.177 v 6.000" stroke="#808080" stroke-width="0.90"/>
</defs>
<g id="main">
<use xlink:href="#line_x" transform="translate(0,587.2)"/>
<use xlink:href="#line_x" transform="translate(0,468.7)"/>
<use xlink:href="#line_x" transform="translate(0,350.2)"/>
<use xlink:href="#line_x" transform="translate(0,231.7)"/>
<use xlink:href="#line_x" transform="translate(0,113.2)"/>
<use xlink:href="#tick_y" transform="translate(0,587.2)"/>
<use xlink:href="#tick_y" transform="translate(0,468.7)"/>
<use xlink:href="#tick_y" transform="translate(0,350.2)"/>
<use xlink:href="#tick_y" transform="translate(0,231.7)"/>
<use xlink:href="#tick_y" transform="translate(0,113.2)"/>
<use xlink:href="#tick_x" transform="translate(163.5,0)"/>
<use xlink:href="#tick_x" transform="translate(282.5,0)"/>
<use xlink:href="#tick_x" transform="translate(401.5,0)"/>
<use xlink:href="#tick_x" transform="translate(520.5,0)"/>
<use xlink:href="#tick_x" transform="translate(639.5,0)"/>
<use xlink:href="#tick_x" transform="translate(758.5,0)"/>
<use xlink:href="#tick_x" transform="translate(901.3,0)"/>
<polyline points="145.6,53.993 145.6,587.177 907.2,587.177" stroke="#808080" stroke-width="0.90" fill="none"/>
<text class="ticklabel xtl" transform="translate(163.5,629.0)" text-anchor="middle">1960</text>
<text class="ticklabel xtl" transform="translate(282.5,629.0)" text-anchor="middle">1970</text>
<text class="ticklabel xtl" transform="translate(401.5,629.0)" text-anchor="middle">1980</text>
<text class="ticklabel xtl" transform="translate(520.5,629.0)" text-anchor="middle">1990</text>
<text class="ticklabel xtl" transform="translate(639.5,629.0)" text-anchor="middle">2000</text>
<text class="ticklabel xtl" transform="translate(758.5,629.0)" text-anchor="middle">2010</text>
<text class="ticklabel xtl" transform="translate(901.3,629.0)" text-anchor="middle">2022</text>
<text class="ticklabel ytl" transform="translate(128.8,595.3)">0</text>
<text class="ticklabel ytl" transform="translate(128.8,476.8)">1</text>
<text class="ticklabel ytl" transform="translate(128.8,358.3)">2</text>
<text class="ticklabel ytl" transform="translate(128.8,239.8)">3</text>
<text class="ticklabel ytl" transform="translate(128.8,121.3)">4 EJ</text>
<polyline class="pl" points="223.0,582.7 234.9,582.6 246.8,582.2 258.7,582.0 270.6,581.8 282.5,582.6 294.4,581.9 306.3,581.3 318.2,582.0 330.1,581.9 342.0,581.9 353.9,582.2 365.8,582.4 377.7,582.9 389.6,583.3 401.5,583.0 413.4,581.7 425.3,582.3 437.2,582.0 449.1,581.1 461.0,580.7 472.9,577.2 484.8,578.3 496.7,579.0 508.6,579.4 520.5,579.9 532.4,581.1 544.3,580.4 556.2,568.3 568.1,568.8 580.0,568.5 591.9,568.8 603.8,568.8 615.7,568.7 627.6,569.5 639.5,569.2 651.4,568.0 663.3,567.7 675.2,567.5 687.1,566.8 699.0,566.2 710.9,565.4 722.8,565.1 734.7,563.1 746.6,560.9 758.5,557.5 770.4,554.8 782.3,551.5 794.2,552.2 806.1,552.5 818.0,551.7 829.9,552.7 841.8,554.1 853.7,538.7 865.6,538.6 877.5,538.6 889.4,539.8 901.3,541.6" stroke="#FDBF6F" stroke-width="5.40" stroke-opacity="1.00" fill="none" clip-path="url(#axis_clip)"/>
<g class="pl" fill="#FFF" stroke="#FDBF6F" stroke-width="0.900" clip-path="url(#axis_clip)">
  <circle cx="223.0" cy="582.7" r="2.2"/>
  <circle cx="234.9" cy="582.6" r="2.2"/>
  <circle cx="246.8" cy="582.2" r="2.2"/>
  <circle cx="258.7" cy="582.0" r="2.2"/>
  <circle cx="270.6" cy="581.8" r="2.2"/>
  <circle cx="294.4" cy="581.9" r="2.2"/>
  <circle cx="306.3" cy="581.3" r="2.2"/>
  <circle cx="318.2" cy="582.0" r="2.2"/>
  <circle cx="330.1" cy="581.9" r="2.2"/>
  <circle cx="342.0" cy="581.9" r="2.2"/>
  <circle cx="353.9" cy="582.2" r="2.2"/>
  <circle cx="365.8" cy="582.4" r="2.2"/>
  <circle cx="377.7" cy="582.9" r="2.2"/>
  <circle cx="389.6" cy="583.3" r="2.2"/>
  <circle cx="413.4" cy="581.7" r="2.2"/>
  <circle cx="425.3" cy="582.3" r="2.2"/>
  <circle cx="437.2" cy="582.0" r="2.2"/>
  <circle cx="449.1" cy="581.1" r="2.2"/>
  <circle cx="461.0" cy="580.7" r="2.2"/>
  <circle cx="472.9" cy="577.2" r="2.2"/>
  <circle cx="484.8" cy="578.3" r="2.2"/>
  <circle cx="496.7" cy="579.0" r="2.2"/>
  <circle cx="508.6" cy="579.4" r="2.2"/>
  <circle cx="532.4" cy="581.1" r="2.2"/>
  <circle cx="544.3" cy="580.4" r="2.2"/>
  <circle cx="556.2" cy="568.3" r="2.2"/>
  <circle cx="568.1" cy="568.8" r="2.2"/>
  <circle cx="580.0" cy="568.5" r="2.2"/>
  <circle cx="591.9" cy="568.8" r="2.2"/>
  <circle cx="603.8" cy="568.8" r="2.2"/>
  <circle cx="615.7" cy="568.7" r="2.2"/>
  <circle cx="627.6" cy="569.5" r="2.2"/>
  <circle cx="651.4" cy="568.0" r="2.2"/>
  <circle cx="663.3" cy="567.7" r="2.2"/>
  <circle cx="675.2" cy="567.5" r="2.2"/>
  <circle cx="687.1" cy="566.8" r="2.2"/>
  <circle cx="699.0" cy="566.2" r="2.2"/>
  <circle cx="710.9" cy="565.4" r="2.2"/>
  <circle cx="722.8" cy="565.1" r="2.2"/>
  <circle cx="734.7" cy="563.1" r="2.2"/>
  <circle cx="746.6" cy="560.9" r="2.2"/>
  <circle cx="770.4" cy="554.8" r="2.2"/>
  <circle cx="782.3" cy="551.5" r="2.2"/>
  <circle cx="794.2" cy="552.2" r="2.2"/>
  <circle cx="806.1" cy="552.5" r="2.2"/>
  <circle cx="818.0" cy="551.7" r="2.2"/>
  <circle cx="829.9" cy="552.7" r="2.2"/>
  <circle cx="841.8" cy="554.1" r="2.2"/>
  <circle cx="853.7" cy="538.7" r="2.2"/>
  <circle cx="865.6" cy="538.6" r="2.2"/>
  <circle cx="889.4" cy="539.8" r="2.2"/>
  <circle cx="901.3" cy="541.6" r="2.2"/>
</g>
<g class="pl" fill="#FFF" stroke="#FDBF6F" stroke-width="0.900" clip-path="url(#axis_clip)">
  <circle cx="282.5" cy="582.6" r="5.4"/>
  <circle cx="401.5" cy="583.0" r="5.4"/>
  <circle cx="520.5" cy="579.9" r="5.4"/>
  <circle cx="639.5" cy="569.2" r="5.4"/>
  <circle cx="758.5" cy="557.5" r="5.4"/>
  <circle cx="877.5" cy="538.6" r="5.4"/>
</g>
<polyline class="pl" points="223.0,587.1 234.9,587.1 246.8,587.1 258.7,587.1 270.6,587.1 282.5,587.1 294.4,587.0 306.3,586.9 318.2,586.9 330.1,586.9 342.0,586.9 353.9,586.9 365.8,586.8 377.7,586.8 389.6,586.8 401.5,586.8 413.4,586.8 425.3,586.8 437.2,586.7 449.1,586.7 461.0,586.6 472.9,586.7 484.8,586.9 496.7,587.0 508.6,587.0 520.5,587.1 532.4,587.1 544.3,587.0 556.2,587.1 568.1,587.1 580.0,587.1 591.9,587.0 603.8,586.9 615.7,586.9 627.6,586.9 639.5,586.9 651.4,586.6 663.3,586.6 675.2,586.6 687.1,586.0 699.0,585.1 710.9,584.5 722.8,583.7 734.7,582.3 746.6,580.1 758.5,578.6 770.4,576.8 782.3,573.4 794.2,575.4 806.1,573.6 818.0,573.9 829.9,576.3 841.8,578.3 853.7,578.3 865.6,576.7 877.5,576.9 889.4,576.2 901.3,577.4" stroke="#E78AC3" stroke-width="5.40" stroke-opacity="1.00" fill="none" clip-path="url(#axis_clip)"/>
<g class="pl" fill="#FFF" stroke="#E78AC3" stroke-width="0.900" clip-path="url(#axis_clip)">
  <circle cx="223.0" cy="587.1" r="2.2"/>
  <circle cx="234.9" cy="587.1" r="2.2"/>
  <circle cx="246.8" cy="587.1" r="2.2"/>
  <circle cx="258.7" cy="587.1" r="2.2"/>
  <circle cx="270.6" cy="587.1" r="2.2"/>
  <circle cx="294.4" cy="587.0" r="2.2"/>
  <circle cx="306.3" cy="586.9" r="2.2"/>
  <circle cx="318.2" cy="586.9" r="2.2"/>
  <circle cx="330.1" cy="586.9" r="2.2"/>
  <circle cx="342.0" cy="586.9" r="2.2"/>
  <circle cx="353.9" cy="586.9" r="2.2"/>
  <circle cx="365.8" cy="586.8" r="2.2"/>
  <circle cx="377.7" cy="586.8" r="2.2"/>
  <circle cx="389.6" cy="586.8" r="2.2"/>
  <circle cx="413.4" cy="586.8" r="2.2"/>
  <circle cx="425.3" cy="586.8" r="2.2"/>
  <circle cx="437.2" cy="586.7" r="2.2"/>
  <circle cx="449.1" cy="586.7" r="2.2"/>
  <circle cx="461.0" cy="586.6" r="2.2"/>
  <circle cx="472.9" cy="586.7" r="2.2"/>
  <circle cx="484.8" cy="586.9" r="2.2"/>
  <circle cx="496.7" cy="587.0" r="2.2"/>
  <circle cx="508.6" cy="587.0" r="2.2"/>
  <circle cx="532.4" cy="587.1" r="2.2"/>
  <circle cx="544.3" cy="587.0" r="2.2"/>
  <circle cx="556.2" cy="587.1" r="2.2"/>
  <circle cx="568.1" cy="587.1" r="2.2"/>
  <circle cx="580.0" cy="587.1" r="2.2"/>
  <circle cx="591.9" cy="587.0" r="2.2"/>
  <circle cx="603.8" cy="586.9" r="2.2"/>
  <circle cx="615.7" cy="586.9" r="2.2"/>
  <circle cx="627.6" cy="586.9" r="2.2"/>
  <circle cx="651.4" cy="586.6" r="2.2"/>
  <circle cx="663.3" cy="586.6" r="2.2"/>
  <circle cx="675.2" cy="586.6" r="2.2"/>
  <circle cx="687.1" cy="586.0" r="2.2"/>
  <circle cx="699.0" cy="585.1" r="2.2"/>
  <circle cx="710.9" cy="584.5" r="2.2"/>
  <circle cx="722.8" cy="583.7" r="2.2"/>
  <circle cx="734.7" cy="582.3" r="2.2"/>
  <circle cx="746.6" cy="580.1" r="2.2"/>
  <circle cx="770.4" cy="576.8" r="2.2"/>
  <circle cx="782.3" cy="573.4" r="2.2"/>
  <circle cx="794.2" cy="575.4" r="2.2"/>
  <circle cx="806.1" cy="573.6" r="2.2"/>
  <circle cx="818.0" cy="573.9" r="2.2"/>
  <circle cx="829.9" cy="576.3" r="2.2"/>
  <circle cx="841.8" cy="578.3" r="2.2"/>
  <circle cx="853.7" cy="578.3" r="2.2"/>
  <circle cx="865.6" cy="576.7" r="2.2"/>
  <circle cx="889.4" cy="576.2" r="2.2"/>
  <circle cx="901.3" cy="577.4" r="2.2"/>
</g>
<g class="pl" fill="#FFF" stroke="#E78AC3" stroke-width="0.900" clip-path="url(#axis_clip)">
  <circle cx="282.5" cy="587.1" r="5.4"/>
  <circle cx="401.5" cy="586.8" r="5.4"/>
  <circle cx="520.5" cy="587.1" r="5.4"/>
  <circle cx="639.5" cy="586.9" r="5.4"/>
  <circle cx="758.5" cy="578.6" r="5.4"/>
  <circle cx="877.5" cy="576.9" r="5.4"/>
</g>
<polyline class="pl" points="223.0,587.2 234.9,587.2 246.8,587.2 258.7,587.2 270.6,587.2 282.5,587.2 294.4,587.2 306.3,587.2 318.2,587.2 330.1,587.2 342.0,587.2 353.9,587.2 365.8,587.2 377.7,587.2 389.6,587.2 401.5,587.2 413.4,587.2 425.3,587.2 437.2,587.2 449.1,587.2 461.0,587.2 472.9,587.2 484.8,587.2 496.7,587.2 508.6,587.2 520.5,587.2 532.4,587.2 544.3,587.2 556.2,587.2 568.1,587.2 580.0,587.2 591.9,587.2 603.8,587.2 615.7,587.2 627.6,587.2 639.5,587.2 651.4,587.2 663.3,587.2 675.2,587.0 687.1,587.1 699.0,586.9 710.9,586.7 722.8,586.7 734.7,585.0 746.6,584.1 758.5,584.0 770.4,583.8 782.3,583.4 794.2,583.5 806.1,583.7 818.0,583.9 829.9,585.0 841.8,584.2 853.7,582.7 865.6,582.3 877.5,582.1 889.4,582.0 901.3,581.9" stroke="#8DA0CB" stroke-width="5.40" stroke-opacity="1.00" fill="none" clip-path="url(#axis_clip)"/>
<g class="pl" fill="#FFF" stroke="#8DA0CB" stroke-width="0.900" clip-path="url(#axis_clip)">
  <circle cx="223.0" cy="587.2" r="2.2"/>
  <circle cx="234.9" cy="587.2" r="2.2"/>
  <circle cx="246.8" cy="587.2" r="2.2"/>
  <circle cx="258.7" cy="587.2" r="2.2"/>
  <circle cx="270.6" cy="587.2" r="2.2"/>
  <circle cx="294.4" cy="587.2" r="2.2"/>
  <circle cx="306.3" cy="587.2" r="2.2"/>
  <circle cx="318.2" cy="587.2" r="2.2"/>
  <circle cx="330.1" cy="587.2" r="2.2"/>
  <circle cx="342.0" cy="587.2" r="2.2"/>
  <circle cx="353.9" cy="587.2" r="2.2"/>
  <circle cx="365.8" cy="587.2" r="2.2"/>
  <circle cx="377.7" cy="587.2" r="2.2"/>
  <circle cx="389.6" cy="587.2" r="2.2"/>
  <circle cx="413.4" cy="587.2" r="2.2"/>
  <circle cx="425.3" cy="587.2" r="2.2"/>
  <circle cx="437.2" cy="587.2" r="2.2"/>
  <circle cx="449.1" cy="587.2" r="2.2"/>
  <circle cx="461.0" cy="587.2" r="2.2"/>
  <circle cx="472.9" cy="587.2" r="2.2"/>
  <circle cx="484.8" cy="587.2" r="2.2"/>
  <circle cx="496.7" cy="587.2" r="2.2"/>
  <circle cx="508.6" cy="587.2" r="2.2"/>
  <circle cx="532.4" cy="587.2" r="2.2"/>
  <circle cx="544.3" cy="587.2" r="2.2"/>
  <circle cx="556.2" cy="587.2" r="2.2"/>
  <circle cx="568.1" cy="587.2" r="2.2"/>
  <circle cx="580.0" cy="587.2" r="2.2"/>
  <circle cx="591.9" cy="587.2" r="2.2"/>
  <circle cx="603.8" cy="587.2" r="2.2"/>
  <circle cx="615.7" cy="587.2" r="2.2"/>
  <circle cx="627.6" cy="587.2" r="2.2"/>
  <circle cx="651.4" cy="587.2" r="2.2"/>
  <circle cx="663.3" cy="587.2" r="2.2"/>
  <circle cx="675.2" cy="587.0" r="2.2"/>
  <circle cx="687.1" cy="587.1" r="2.2"/>
  <circle cx="699.0" cy="586.9" r="2.2"/>
  <circle cx="710.9" cy="586.7" r="2.2"/>
  <circle cx="722.8" cy="586.7" r="2.2"/>
  <circle cx="734.7" cy="585.0" r="2.2"/>
  <circle cx="746.6" cy="584.1" r="2.2"/>
  <circle cx="770.4" cy="583.8" r="2.2"/>
  <circle cx="782.3" cy="583.4" r="2.2"/>
  <circle cx="794.2" cy="583.5" r="2.2"/>
  <circle cx="806.1" cy="583.7" r="2.2"/>
  <circle cx="818.0" cy="583.9" r="2.2"/>
  <circle cx="829.9" cy="585.0" r="2.2"/>
  <circle cx="841.8" cy="584.2" r="2.2"/>
  <circle cx="853.7" cy="582.7" r="2.2"/>
  <circle cx="865.6" cy="582.3" r="2.2"/>
  <circle cx="889.4" cy="582.0" r="2.2"/>
  <circle cx="901.3" cy="581.9" r="2.2"/>
</g>
<g class="pl" fill="#FFF" stroke="#8DA0CB" stroke-width="0.900" clip-path="url(#axis_clip)">
  <circle cx="282.5" cy="587.2" r="5.4"/>
  <circle cx="401.5" cy="587.2" r="5.4"/>
  <circle cx="520.5" cy="587.2" r="5.4"/>
  <circle cx="639.5" cy="587.2" r="5.4"/>
  <circle cx="758.5" cy="584.0" r="5.4"/>
  <circle cx="877.5" cy="582.1" r="5.4"/>
</g>
<polyline class="pl" points="223.0,587.2 234.9,587.2 246.8,587.2 258.7,587.2 270.6,587.2 282.5,587.2 294.4,587.2 306.3,587.2 318.2,587.2 330.1,587.2 342.0,587.2 353.9,587.2 365.8,587.2 377.7,587.2 389.6,587.2 401.5,587.2 413.4,587.2 425.3,587.2 437.2,587.2 449.1,587.2 461.0,587.2 472.9,587.2 484.8,587.2 496.7,587.2 508.6,587.2 520.5,587.2 532.4,587.2 544.3,587.2 556.2,587.2 568.1,587.2 580.0,587.2 591.9,587.2 603.8,587.2 615.7,587.2 627.6,587.2" stroke="#FC8D62" stroke-width="5.40" stroke-opacity="1.00" fill="none" clip-path="url(#axis_clip)"/>
<polyline class="pl" points="710.9,587.2 722.8,587.2 734.7,587.2 746.6,587.2 758.5,587.2 770.4,587.2 782.3,587.2 794.2,587.2 806.1,587.2 818.0,587.2 829.9,587.2 841.8,587.2 853.7,587.2 865.6,587.2 877.5,587.2 889.4,587.2 901.3,587.2" stroke="#FC8D62" stroke-width="5.40" stroke-opacity="1.00" fill="none" clip-path="url(#axis_clip)"/>
<g class="pl" fill="#FFF" stroke="#FC8D62" stroke-width="0.900" clip-path="url(#axis_clip)">
  <circle cx="223.0" cy="587.2" r="2.2"/>
  <circle cx="234.9" cy="587.2" r="2.2"/>
  <circle cx="246.8" cy="587.2" r="2.2"/>
  <circle cx="258.7" cy="587.2" r="2.2"/>
  <circle cx="270.6" cy="587.2" r="2.2"/>
  <circle cx="294.4" cy="587.2" r="2.2"/>
  <circle cx="306.3" cy="587.2" r="2.2"/>
  <circle cx="318.2" cy="587.2" r="2.2"/>
  <circle cx="330.1" cy="587.2" r="2.2"/>
  <circle cx="342.0" cy="587.2" r="2.2"/>
  <circle cx="353.9" cy="587.2" r="2.2"/>
  <circle cx="365.8" cy="587.2" r="2.2"/>
  <circle cx="377.7" cy="587.2" r="2.2"/>
  <circle cx="389.6" cy="587.2" r="2.2"/>
  <circle cx="413.4" cy="587.2" r="2.2"/>
  <circle cx="425.3" cy="587.2" r="2.2"/>
  <circle cx="437.2" cy="587.2" r="2.2"/>
  <circle cx="449.1" cy="587.2" r="2.2"/>
  <circle cx="461.0" cy="587.2" r="2.2"/>
  <circle cx="472.9" cy="587.2" r="2.2"/>
  <circle cx="484.8" cy="587.2" r="2.2"/>
  <circle cx="496.7" cy="587.2" r="2.2"/>
  <circle cx="508.6" cy="587.2" r="2.2"/>
  <circle cx="532.4" cy="587.2" r="2.2"/>
  <circle cx="544.3" cy="587.2" r="2.2"/>
  <circle cx="556.2" cy="587.2" r="2.2"/>
  <circle cx="568.1" cy="587.2" r="2.2"/>
  <circle cx="580.0" cy="587.2" r="2.2"/>
  <circle cx="591.9" cy="587.2" r="2.2"/>
  <circle cx="603.8" cy="587.2" r="2.2"/>
  <circle cx="615.7" cy="587.2" r="2.2"/>
  <circle cx="627.6" cy="587.2" r="2.2"/>
  <circle cx="710.9" cy="587.2" r="2.2"/>
  <circle cx="722.8" cy="587.2" r="2.2"/>
  <circle cx="734.7" cy="587.2" r="2.2"/>
  <circle cx="746.6" cy="587.2" r="2.2"/>
  <circle cx="770.4" cy="587.2" r="2.2"/>
  <circle cx="782.3" cy="587.2" r="2.2"/>
  <circle cx="794.2" cy="587.2" r="2.2"/>
  <circle cx="806.1" cy="587.2" r="2.2"/>
  <circle cx="818.0" cy="587.2" r="2.2"/>
  <circle cx="829.9" cy="587.2" r="2.2"/>
  <circle cx="841.8" cy="587.2" r="2.2"/>
  <circle cx="853.7" cy="587.2" r="2.2"/>
  <circle cx="865.6" cy="587.2" r="2.2"/>
  <circle cx="889.4" cy="587.2" r="2.2"/>
  <circle cx="901.3" cy="587.2" r="2.2"/>
</g>
<g class="pl" fill="#FFF" stroke="#FC8D62" stroke-width="0.900" clip-path="url(#axis_clip)">
  <circle cx="282.5" cy="587.2" r="5.4"/>
  <circle cx="401.5" cy="587.2" r="5.4"/>
  <circle cx="520.5" cy="587.2" r="5.4"/>
  <circle cx="758.5" cy="587.2" r="5.4"/>
  <circle cx="877.5" cy="587.2" r="5.4"/>
</g>
<polyline class="pl" points="223.0,586.0 234.9,586.0 246.8,586.0 258.7,585.9 270.6,586.2 282.5,584.9 294.4,585.2 306.3,585.3 318.2,585.3 330.1,584.5 342.0,584.7 353.9,585.1 365.8,584.7 377.7,584.7 389.6,584.9 401.5,584.2 413.4,584.5 425.3,585.2 437.2,585.1 449.1,585.4 461.0,584.8 472.9,585.2 484.8,585.1 496.7,584.9 508.6,585.1 520.5,585.4 532.4,585.4 544.3,585.3 556.2,585.3 568.1,585.0 580.0,584.8 591.9,584.7 603.8,584.7 615.7,584.3 627.6,584.5 639.5,584.5 651.4,584.3 663.3,584.3 675.2,585.1 687.1,584.6 699.0,584.5 710.9,584.7 722.8,584.3 734.7,584.6 746.6,584.3 758.5,583.7 770.4,584.4 782.3,584.8 794.2,584.3 806.1,584.7 818.0,585.1 829.9,584.7 841.8,584.3 853.7,585.0 865.6,585.0 877.5,584.8 889.4,584.6 901.3,585.0" stroke="#66C2A5" stroke-width="5.40" stroke-opacity="1.00" fill="none" clip-path="url(#axis_clip)"/>
<g class="pl" fill="#FFF" stroke="#66C2A5" stroke-width="0.900" clip-path="url(#axis_clip)">
  <circle cx="223.0" cy="586.0" r="2.2"/>
  <circle cx="234.9" cy="586.0" r="2.2"/>
  <circle cx="246.8" cy="586.0" r="2.2"/>
  <circle cx="258.7" cy="585.9" r="2.2"/>
  <circle cx="270.6" cy="586.2" r="2.2"/>
  <circle cx="294.4" cy="585.2" r="2.2"/>
  <circle cx="306.3" cy="585.3" r="2.2"/>
  <circle cx="318.2" cy="585.3" r="2.2"/>
  <circle cx="330.1" cy="584.5" r="2.2"/>
  <circle cx="342.0" cy="584.7" r="2.2"/>
  <circle cx="353.9" cy="585.1" r="2.2"/>
  <circle cx="365.8" cy="584.7" r="2.2"/>
  <circle cx="377.7" cy="584.7" r="2.2"/>
  <circle cx="389.6" cy="584.9" r="2.2"/>
  <circle cx="413.4" cy="584.5" r="2.2"/>
  <circle cx="425.3" cy="585.2" r="2.2"/>
  <circle cx="437.2" cy="585.1" r="2.2"/>
  <circle cx="449.1" cy="585.4" r="2.2"/>
  <circle cx="461.0" cy="584.8" r="2.2"/>
  <circle cx="472.9" cy="585.2" r="2.2"/>
  <circle cx="484.8" cy="585.1" r="2.2"/>
  <circle cx="496.7" cy="584.9" r="2.2"/>
  <circle cx="508.6" cy="585.1" r="2.2"/>
  <circle cx="532.4" cy="585.4" r="2.2"/>
  <circle cx="544.3" cy="585.3" r="2.2"/>
  <circle cx="556.2" cy="585.3" r="2.2"/>
  <circle cx="568.1" cy="585.0" r="2.2"/>
  <circle cx="580.0" cy="584.8" r="2.2"/>
  <circle cx="591.9" cy="584.7" r="2.2"/>
  <circle cx="603.8" cy="584.7" r="2.2"/>
  <circle cx="615.7" cy="584.3" r="2.2"/>
  <circle cx="627.6" cy="584.5" r="2.2"/>
  <circle cx="651.4" cy="584.3" r="2.2"/>
  <circle cx="663.3" cy="584.3" r="2.2"/>
  <circle cx="675.2" cy="585.1" r="2.2"/>
  <circle cx="687.1" cy="584.6" r="2.2"/>
  <circle cx="699.0" cy="584.5" r="2.2"/>
  <circle cx="710.9" cy="584.7" r="2.2"/>
  <circle cx="722.8" cy="584.3" r="2.2"/>
  <circle cx="734.7" cy="584.6" r="2.2"/>
  <circle cx="746.6" cy="584.3" r="2.2"/>
  <circle cx="770.4" cy="584.4" r="2.2"/>
  <circle cx="782.3" cy="584.8" r="2.2"/>
  <circle cx="794.2" cy="584.3" r="2.2"/>
  <circle cx="806.1" cy="584.7" r="2.2"/>
  <circle cx="818.0" cy="585.1" r="2.2"/>
  <circle cx="829.9" cy="584.7" r="2.2"/>
  <circle cx="841.8" cy="584.3" r="2.2"/>
  <circle cx="853.7" cy="585.0" r="2.2"/>
  <circle cx="865.6" cy="585.0" r="2.2"/>
  <circle cx="889.4" cy="584.6" r="2.2"/>
  <circle cx="901.3" cy="585.0" r="2.2"/>
</g>
<g class="pl" fill="#FFF" stroke="#66C2A5" stroke-width="0.900" clip-path="url(#axis_clip)">
  <circle cx="282.5" cy="584.9" r="5.4"/>
  <circle cx="401.5" cy="584.2" r="5.4"/>
  <circle cx="520.5" cy="585.4" r="5.4"/>
  <circle cx="639.5" cy="584.5" r="5.4"/>
  <circle cx="758.5" cy="583.7" r="5.4"/>
  <circle cx="877.5" cy="584.8" r="5.4"/>
</g>
<polyline class="pl" points="223.0,587.2 234.9,587.2 246.8,587.2 258.7,587.2 270.6,587.2 282.5,587.2 294.4,587.2 306.3,587.2 318.2,587.2 330.1,587.2 342.0,587.2 353.9,587.2 365.8,587.2 377.7,587.2 389.6,587.2 401.5,587.2 413.4,587.2 425.3,587.2 437.2,587.2 449.1,587.2 461.0,587.2 472.9,587.2 484.8,587.2 496.7,587.2 508.6,587.2 520.5,587.2 532.4,587.2 544.3,587.2 556.2,587.2 568.1,587.2 580.0,587.2 591.9,587.2 603.8,587.2 615.7,587.2 627.6,587.2 639.5,587.2 651.4,587.2 663.3,587.2 675.2,587.2 687.1,587.2 699.0,587.2 710.9,587.2 722.8,587.2 734.7,587.2 746.6,587.2 758.5,587.2 770.4,587.2 782.3,587.2 794.2,587.2 806.1,587.2 818.0,587.1 829.9,587.0 841.8,587.0 853.7,586.8 865.6,586.4 877.5,585.0 889.4,582.8 901.3,578.1" stroke="#E5C494" stroke-width="5.40" stroke-opacity="1.00" fill="none" clip-path="url(#axis_clip)"/>
<g class="pl" fill="#FFF" stroke="#E5C494" stroke-width="0.900" clip-path="url(#axis_clip)">
  <circle cx="223.0" cy="587.2" r="2.2"/>
  <circle cx="234.9" cy="587.2" r="2.2"/>
  <circle cx="246.8" cy="587.2" r="2.2"/>
  <circle cx="258.7" cy="587.2" r="2.2"/>
  <circle cx="270.6" cy="587.2" r="2.2"/>
  <circle cx="294.4" cy="587.2" r="2.2"/>
  <circle cx="306.3" cy="587.2" r="2.2"/>
  <circle cx="318.2" cy="587.2" r="2.2"/>
  <circle cx="330.1" cy="587.2" r="2.2"/>
  <circle cx="342.0" cy="587.2" r="2.2"/>
  <circle cx="353.9" cy="587.2" r="2.2"/>
  <circle cx="365.8" cy="587.2" r="2.2"/>
  <circle cx="377.7" cy="587.2" r="2.2"/>
  <circle cx="389.6" cy="587.2" r="2.2"/>
  <circle cx="413.4" cy="587.2" r="2.2"/>
  <circle cx="425.3" cy="587.2" r="2.2"/>
  <circle cx="437.2" cy="587.2" r="2.2"/>
  <circle cx="449.1" cy="587.2" r="2.2"/>
  <circle cx="461.0" cy="587.2" r="2.2"/>
  <circle cx="472.9" cy="587.2" r="2.2"/>
  <circle cx="484.8" cy="587.2" r="2.2"/>
  <circle cx="496.7" cy="587.2" r="2.2"/>
  <circle cx="508.6" cy="587.2" r="2.2"/>
  <circle cx="532.4" cy="587.2" r="2.2"/>
  <circle cx="544.3" cy="587.2" r="2.2"/>
  <circle cx="556.2" cy="587.2" r="2.2"/>
  <circle cx="568.1" cy="587.2" r="2.2"/>
  <circle cx="580.0" cy="587.2" r="2.2"/>
  <circle cx="591.9" cy="587.2" r="2.2"/>
  <circle cx="603.8" cy="587.2" r="2.2"/>
  <circle cx="615.7" cy="587.2" r="2.2"/>
  <circle cx="627.6" cy="587.2" r="2.2"/>
  <circle cx="651.4" cy="587.2" r="2.2"/>
  <circle cx="663.3" cy="587.2" r="2.2"/>
  <circle cx="675.2" cy="587.2" r="2.2"/>
  <circle cx="687.1" cy="587.2" r="2.2"/>
  <circle cx="699.0" cy="587.2" r="2.2"/>
  <circle cx="710.9" cy="587.2" r="2.2"/>
  <circle cx="722.8" cy="587.2" r="2.2"/>
  <circle cx="734.7" cy="587.2" r="2.2"/>
  <circle cx="746.6" cy="587.2" r="2.2"/>
  <circle cx="770.4" cy="587.2" r="2.2"/>
  <circle cx="782.3" cy="587.2" r="2.2"/>
  <circle cx="794.2" cy="587.2" r="2.2"/>
  <circle cx="806.1" cy="587.2" r="2.2"/>
  <circle cx="818.0" cy="587.1" r="2.2"/>
  <circle cx="829.9" cy="587.0" r="2.2"/>
  <circle cx="841.8" cy="587.0" r="2.2"/>
  <circle cx="853.7" cy="586.8" r="2.2"/>
  <circle cx="865.6" cy="586.4" r="2.2"/>
  <circle cx="889.4" cy="582.8" r="2.2"/>
  <circle cx="901.3" cy="578.1" r="2.2"/>
</g>
<g class="pl" fill="#FFF" stroke="#E5C494" stroke-width="0.900" clip-path="url(#axis_clip)">
  <circle cx="282.5" cy="587.2" r="5.4"/>
  <circle cx="401.5" cy="587.2" r="5.4"/>
  <circle cx="520.5" cy="587.2" r="5.4"/>
  <circle cx="639.5" cy="587.2" r="5.4"/>
  <circle cx="758.5" cy="587.2" r="5.4"/>
  <circle cx="877.5" cy="585.0" r="5.4"/>
</g>
<polyline class="pl" points="223.0,587.2 234.9,587.2 246.8,587.2 258.7,587.2 270.6,587.2 282.5,587.2 294.4,587.2 306.3,587.2 318.2,587.2 330.1,587.2 342.0,587.2 353.9,587.2 365.8,587.2 377.7,587.2 389.6,587.2 401.5,587.2 413.4,587.2 425.3,587.2 437.2,587.2 449.1,587.2 461.0,587.2 472.9,587.2 484.8,587.2 496.7,587.2 508.6,587.2 520.5,587.2 532.4,587.2 544.3,587.2 556.2,587.2 568.1,587.2 580.0,587.2 591.9,587.2 603.8,587.2 615.7,587.2 627.6,587.2 639.5,587.2 651.4,587.2 663.3,587.1 675.2,587.0 687.1,587.0 699.0,587.0 710.9,586.9 722.8,586.5 734.7,586.2 746.6,585.9 758.5,585.2 770.4,583.4 782.3,581.6 794.2,580.2 806.1,578.3 818.0,574.7 829.9,572.8 841.8,570.3 853.7,572.7 865.6,570.2 877.5,569.5 889.4,569.1 901.3,565.6" stroke="#FFD92F" stroke-width="5.40" stroke-opacity="1.00" fill="none" clip-path="url(#axis_clip)"/>
<g class="pl" fill="#FFF" stroke="#FFD92F" stroke-width="0.900" clip-path="url(#axis_clip)">
  <circle cx="223.0" cy="587.2" r="2.2"/>
  <circle cx="234.9" cy="587.2" r="2.2"/>
  <circle cx="246.8" cy="587.2" r="2.2"/>
  <circle cx="258.7" cy="587.2" r="2.2"/>
  <circle cx="270.6" cy="587.2" r="2.2"/>
  <circle cx="294.4" cy="587.2" r="2.2"/>
  <circle cx="306.3" cy="587.2" r="2.2"/>
  <circle cx="318.2" cy="587.2" r="2.2"/>
  <circle cx="330.1" cy="587.2" r="2.2"/>
  <circle cx="342.0" cy="587.2" r="2.2"/>
  <circle cx="353.9" cy="587.2" r="2.2"/>
  <circle cx="365.8" cy="587.2" r="2.2"/>
  <circle cx="377.7" cy="587.2" r="2.2"/>
  <circle cx="389.6" cy="587.2" r="2.2"/>
  <circle cx="413.4" cy="587.2" r="2.2"/>
  <circle cx="425.3" cy="587.2" r="2.2"/>
  <circle cx="437.2" cy="587.2" r="2.2"/>
  <circle cx="449.1" cy="587.2" r="2.2"/>
  <circle cx="461.0" cy="587.2" r="2.2"/>
  <circle cx="472.9" cy="587.2" r="2.2"/>
  <circle cx="484.8" cy="587.2" r="2.2"/>
  <circle cx="496.7" cy="587.2" r="2.2"/>
  <circle cx="508.6" cy="587.2" r="2.2"/>
  <circle cx="532.4" cy="587.2" r="2.2"/>
  <circle cx="544.3" cy="587.2" r="2.2"/>
  <circle cx="556.2" cy="587.2" r="2.2"/>
  <circle cx="568.1" cy="587.2" r="2.2"/>
  <circle cx="580.0" cy="587.2" r="2.2"/>
  <circle cx="591.9" cy="587.2" r="2.2"/>
  <circle cx="603.8" cy="587.2" r="2.2"/>
  <circle cx="615.7" cy="587.2" r="2.2"/>
  <circle cx="627.6" cy="587.2" r="2.2"/>
  <circle cx="651.4" cy="587.2" r="2.2"/>
  <circle cx="663.3" cy="587.1" r="2.2"/>
  <circle cx="675.2" cy="587.0" r="2.2"/>
  <circle cx="687.1" cy="587.0" r="2.2"/>
  <circle cx="699.0" cy="587.0" r="2.2"/>
  <circle cx="710.9" cy="586.9" r="2.2"/>
  <circle cx="722.8" cy="586.5" r="2.2"/>
  <circle cx="734.7" cy="586.2" r="2.2"/>
  <circle cx="746.6" cy="585.9" r="2.2"/>
  <circle cx="770.4" cy="583.4" r="2.2"/>
  <circle cx="782.3" cy="581.6" r="2.2"/>
  <circle cx="794.2" cy="580.2" r="2.2"/>
  <circle cx="806.1" cy="578.3" r="2.2"/>
  <circle cx="818.0" cy="574.7" r="2.2"/>
  <circle cx="829.9" cy="572.8" r="2.2"/>
  <circle cx="841.8" cy="570.3" r="2.2"/>
  <circle cx="853.7" cy="572.7" r="2.2"/>
  <circle cx="865.6" cy="570.2" r="2.2"/>
  <circle cx="889.4" cy="569.1" r="2.2"/>
  <circle cx="901.3" cy="565.6" r="2.2"/>
</g>
<g class="pl" fill="#FFF" stroke="#FFD92F" stroke-width="0.900" clip-path="url(#axis_clip)">
  <circle cx="282.5" cy="587.2" r="5.4"/>
  <circle cx="401.5" cy="587.2" r="5.4"/>
  <circle cx="520.5" cy="587.2" r="5.4"/>
  <circle cx="639.5" cy="587.2" r="5.4"/>
  <circle cx="758.5" cy="585.2" r="5.4"/>
  <circle cx="877.5" cy="569.5" r="5.4"/>
</g>
<polyline class="pl" points="223.0,579.9 234.9,578.5 246.8,576.6 258.7,572.6 270.6,567.0 282.5,561.4 294.4,558.8 306.3,557.3 318.2,556.1 330.1,555.3 342.0,553.0 353.9,550.7 365.8,548.5 377.7,546.5 389.6,544.7 401.5,543.7 413.4,546.1 425.3,546.1 437.2,545.2 449.1,543.5 461.0,542.9 472.9,540.2 484.8,538.7 496.7,539.1 508.6,539.9 520.5,542.8 532.4,545.8 544.3,548.7 556.2,546.7 568.1,546.4 580.0,542.6 591.9,540.3 603.8,540.5 615.7,540.0 627.6,541.2 639.5,537.8 651.4,535.7 663.3,537.0 675.2,531.3 687.1,528.2 699.0,526.5 710.9,525.8 722.8,525.8 734.7,520.4 746.6,522.8 758.5,517.9 770.4,517.0 782.3,512.9 794.2,512.9 806.1,514.6 818.0,514.2 829.9,509.3 841.8,505.4 853.7,502.2 865.6,498.1 877.5,497.3 889.4,491.7 901.3,510.7" stroke="#6298C6" stroke-width="5.40" stroke-opacity="1.00" fill="none" clip-path="url(#axis_clip)"/>
<g class="pl" fill="#FFF" stroke="#6298C6" stroke-width="0.900" clip-path="url(#axis_clip)">
  <circle cx="223.0" cy="579.9" r="2.2"/>
  <circle cx="234.9" cy="578.5" r="2.2"/>
  <circle cx="246.8" cy="576.6" r="2.2"/>
  <circle cx="258.7" cy="572.6" r="2.2"/>
  <circle cx="270.6" cy="567.0" r="2.2"/>
  <circle cx="294.4" cy="558.8" r="2.2"/>
  <circle cx="306.3" cy="557.3" r="2.2"/>
  <circle cx="318.2" cy="556.1" r="2.2"/>
  <circle cx="330.1" cy="555.3" r="2.2"/>
  <circle cx="342.0" cy="553.0" r="2.2"/>
  <circle cx="353.9" cy="550.7" r="2.2"/>
  <circle cx="365.8" cy="548.5" r="2.2"/>
  <circle cx="377.7" cy="546.5" r="2.2"/>
  <circle cx="389.6" cy="544.7" r="2.2"/>
  <circle cx="413.4" cy="546.1" r="2.2"/>
  <circle cx="425.3" cy="546.1" r="2.2"/>
  <circle cx="437.2" cy="545.2" r="2.2"/>
  <circle cx="449.1" cy="543.5" r="2.2"/>
  <circle cx="461.0" cy="542.9" r="2.2"/>
  <circle cx="472.9" cy="540.2" r="2.2"/>
  <circle cx="484.8" cy="538.7" r="2.2"/>
  <circle cx="496.7" cy="539.1" r="2.2"/>
  <circle cx="508.6" cy="539.9" r="2.2"/>
  <circle cx="532.4" cy="545.8" r="2.2"/>
  <circle cx="544.3" cy="548.7" r="2.2"/>
  <circle cx="556.2" cy="546.7" r="2.2"/>
  <circle cx="568.1" cy="546.4" r="2.2"/>
  <circle cx="580.0" cy="542.6" r="2.2"/>
  <circle cx="591.9" cy="540.3" r="2.2"/>
  <circle cx="603.8" cy="540.5" r="2.2"/>
  <circle cx="615.7" cy="540.0" r="2.2"/>
  <circle cx="627.6" cy="541.2" r="2.2"/>
  <circle cx="651.4" cy="535.7" r="2.2"/>
  <circle cx="663.3" cy="537.0" r="2.2"/>
  <circle cx="675.2" cy="531.3" r="2.2"/>
  <circle cx="687.1" cy="528.2" r="2.2"/>
  <circle cx="699.0" cy="526.5" r="2.2"/>
  <circle cx="710.9" cy="525.8" r="2.2"/>
  <circle cx="722.8" cy="525.8" r="2.2"/>
  <circle cx="734.7" cy="520.4" r="2.2"/>
  <circle cx="746.6" cy="522.8" r="2.2"/>
  <circle cx="770.4" cy="517.0" r="2.2"/>
  <circle cx="782.3" cy="512.9" r="2.2"/>
  <circle cx="794.2" cy="512.9" r="2.2"/>
  <circle cx="806.1" cy="514.6" r="2.2"/>
  <circle cx="818.0" cy="514.2" r="2.2"/>
  <circle cx="829.9" cy="509.3" r="2.2"/>
  <circle cx="841.8" cy="505.4" r="2.2"/>
  <circle cx="853.7" cy="502.2" r="2.2"/>
  <circle cx="865.6" cy="498.1" r="2.2"/>
  <circle cx="889.4" cy="491.7" r="2.2"/>
  <circle cx="901.3" cy="510.7" r="2.2"/>
</g>
<g class="pl" fill="#FFF" stroke="#6298C6" stroke-width="0.900" clip-path="url(#axis_clip)">
  <circle cx="282.5" cy="561.4" r="5.4"/>
  <circle cx="401.5" cy="543.7" r="5.4"/>
  <circle cx="520.5" cy="542.8" r="5.4"/>
  <circle cx="639.5" cy="537.8" r="5.4"/>
  <circle cx="758.5" cy="517.9" r="5.4"/>
  <circle cx="877.5" cy="497.3" r="5.4"/>
</g>
<polyline class="pl" points="223.0,559.7 234.9,558.6 246.8,556.2 258.7,548.4 270.6,544.5 282.5,542.0 294.4,539.3 306.3,533.4 318.2,527.6 330.1,524.4 342.0,518.9 353.9,511.8 365.8,506.5 377.7,500.9 389.6,499.2 401.5,500.3 413.4,505.7 425.3,510.2 437.2,507.6 449.1,505.5 461.0,504.2 472.9,501.4 484.8,500.3 496.7,498.2 508.6,498.8 520.5,506.2 532.4,510.7 544.3,517.3 556.2,515.1 568.1,511.2 580.0,510.2 591.9,497.3 603.8,493.5 615.7,480.6 627.6,475.5 639.5,484.5 651.4,486.9 663.3,485.0 675.2,483.4 687.1,476.2 699.0,472.5 710.9,462.8 722.8,458.4 734.7,455.1 746.6,456.5 758.5,449.4 770.4,449.9 782.3,455.1 794.2,464.3 806.1,463.9 818.0,458.2 829.9,445.5 841.8,433.4 853.7,429.4 865.6,426.4 877.5,434.9 889.4,426.7 901.3,414.3" stroke="#404040" stroke-width="5.40" stroke-opacity="1.00" fill="none" clip-path="url(#axis_clip)"/>
<g class="pl" fill="#FFF" stroke="#404040" stroke-width="0.900" clip-path="url(#axis_clip)">
  <circle cx="223.0" cy="559.7" r="2.2"/>
  <circle cx="234.9" cy="558.6" r="2.2"/>
  <circle cx="246.8" cy="556.2" r="2.2"/>
  <circle cx="258.7" cy="548.4" r="2.2"/>
  <circle cx="270.6" cy="544.5" r="2.2"/>
  <circle cx="294.4" cy="539.3" r="2.2"/>
  <circle cx="306.3" cy="533.4" r="2.2"/>
  <circle cx="318.2" cy="527.6" r="2.2"/>
  <circle cx="330.1" cy="524.4" r="2.2"/>
  <circle cx="342.0" cy="518.9" r="2.2"/>
  <circle cx="353.9" cy="511.8" r="2.2"/>
  <circle cx="365.8" cy="506.5" r="2.2"/>
  <circle cx="377.7" cy="500.9" r="2.2"/>
  <circle cx="389.6" cy="499.2" r="2.2"/>
  <circle cx="413.4" cy="505.7" r="2.2"/>
  <circle cx="425.3" cy="510.2" r="2.2"/>
  <circle cx="437.2" cy="507.6" r="2.2"/>
  <circle cx="449.1" cy="505.5" r="2.2"/>
  <circle cx="461.0" cy="504.2" r="2.2"/>
  <circle cx="472.9" cy="501.4" r="2.2"/>
  <circle cx="484.8" cy="500.3" r="2.2"/>
  <circle cx="496.7" cy="498.2" r="2.2"/>
  <circle cx="508.6" cy="498.8" r="2.2"/>
  <circle cx="532.4" cy="510.7" r="2.2"/>
  <circle cx="544.3" cy="517.3" r="2.2"/>
  <circle cx="556.2" cy="515.1" r="2.2"/>
  <circle cx="568.1" cy="511.2" r="2.2"/>
  <circle cx="580.0" cy="510.2" r="2.2"/>
  <circle cx="591.9" cy="497.3" r="2.2"/>
  <circle cx="603.8" cy="493.5" r="2.2"/>
  <circle cx="615.7" cy="480.6" r="2.2"/>
  <circle cx="627.6" cy="475.5" r="2.2"/>
  <circle cx="651.4" cy="486.9" r="2.2"/>
  <circle cx="663.3" cy="485.0" r="2.2"/>
  <circle cx="675.2" cy="483.4" r="2.2"/>
  <circle cx="687.1" cy="476.2" r="2.2"/>
  <circle cx="699.0" cy="472.5" r="2.2"/>
  <circle cx="710.9" cy="462.8" r="2.2"/>
  <circle cx="722.8" cy="458.4" r="2.2"/>
  <circle cx="734.7" cy="455.1" r="2.2"/>
  <circle cx="746.6" cy="456.5" r="2.2"/>
  <circle cx="770.4" cy="449.9" r="2.2"/>
  <circle cx="782.3" cy="455.1" r="2.2"/>
  <circle cx="794.2" cy="464.3" r="2.2"/>
  <circle cx="806.1" cy="463.9" r="2.2"/>
  <circle cx="818.0" cy="458.2" r="2.2"/>
  <circle cx="829.9" cy="445.5" r="2.2"/>
  <circle cx="841.8" cy="433.4" r="2.2"/>
  <circle cx="853.7" cy="429.4" r="2.2"/>
  <circle cx="865.6" cy="426.4" r="2.2"/>
  <circle cx="889.4" cy="426.7" r="2.2"/>
  <circle cx="901.3" cy="414.3" r="2.2"/>
</g>
<g class="pl" fill="#FFF" stroke="#404040" stroke-width="0.900" clip-path="url(#axis_clip)">
  <circle cx="282.5" cy="542.0" r="5.4"/>
  <circle cx="401.5" cy="500.3" r="5.4"/>
  <circle cx="520.5" cy="506.2" r="5.4"/>
  <circle cx="639.5" cy="484.5" r="5.4"/>
  <circle cx="758.5" cy="449.4" r="5.4"/>
  <circle cx="877.5" cy="434.9" r="5.4"/>
</g>
<polyline class="pl" points="223.0,292.1 234.9,288.2 246.8,282.7 258.7,268.1 270.6,251.9 282.5,239.0 294.4,230.8 306.3,214.4 318.2,212.9 330.1,202.3 342.0,172.0 353.9,153.0 365.8,137.6 377.7,116.7 389.6,111.0 401.5,82.9 413.4,137.6 425.3,121.8 437.2,122.9 449.1,103.1 461.0,91.8 472.9,79.2 484.8,60.8 496.7,75.3 508.6,98.1 520.5,198.1 532.4,201.8 544.3,214.6 556.2,218.9 568.1,244.2 580.0,238.3 591.9,230.1 603.8,238.7 615.7,273.2 627.6,285.9 639.5,308.2 651.4,311.5 663.3,316.7 675.2,308.7 687.1,316.9 699.0,313.8 710.9,302.4 722.8,309.6 734.7,313.3 746.6,330.0 758.5,314.0 770.4,314.5 782.3,333.0 794.2,322.4 806.1,341.9 818.0,345.7 829.9,341.6 841.8,340.3 853.7,340.1 865.6,367.0 877.5,383.1 889.4,361.5 901.3,373.3" stroke="#7B553E" stroke-width="5.40" stroke-opacity="1.00" fill="none" clip-path="url(#axis_clip)"/>
<g class="pl" fill="#FFF" stroke="#7B553E" stroke-width="0.900" clip-path="url(#axis_clip)">
  <circle cx="223.0" cy="292.1" r="2.2"/>
  <circle cx="234.9" cy="288.2" r="2.2"/>
  <circle cx="246.8" cy="282.7" r="2.2"/>
  <circle cx="258.7" cy="268.1" r="2.2"/>
  <circle cx="270.6" cy="251.9" r="2.2"/>
  <circle cx="294.4" cy="230.8" r="2.2"/>
  <circle cx="306.3" cy="214.4" r="2.2"/>
  <circle cx="318.2" cy="212.9" r="2.2"/>
  <circle cx="330.1" cy="202.3" r="2.2"/>
  <circle cx="342.0" cy="172.0" r="2.2"/>
  <circle cx="353.9" cy="153.0" r="2.2"/>
  <circle cx="365.8" cy="137.6" r="2.2"/>
  <circle cx="377.7" cy="116.7" r="2.2"/>
  <circle cx="389.6" cy="111.0" r="2.2"/>
  <circle cx="413.4" cy="137.6" r="2.2"/>
  <circle cx="425.3" cy="121.8" r="2.2"/>
  <circle cx="437.2" cy="122.9" r="2.2"/>
  <circle cx="449.1" cy="103.1" r="2.2"/>
  <circle cx="461.0" cy="91.8" r="2.2"/>
  <circle cx="472.9" cy="79.2" r="2.2"/>
  <circle cx="484.8" cy="60.8" r="2.2"/>
  <circle cx="496.7" cy="75.3" r="2.2"/>
  <circle cx="508.6" cy="98.1" r="2.2"/>
  <circle cx="532.4" cy="201.8" r="2.2"/>
  <circle cx="544.3" cy="214.6" r="2.2"/>
  <circle cx="556.2" cy="218.9" r="2.2"/>
  <circle cx="568.1" cy="244.2" r="2.2"/>
  <circle cx="580.0" cy="238.3" r="2.2"/>
  <circle cx="591.9" cy="230.1" r="2.2"/>
  <circle cx="603.8" cy="238.7" r="2.2"/>
  <circle cx="615.7" cy="273.2" r="2.2"/>
  <circle cx="627.6" cy="285.9" r="2.2"/>
  <circle cx="651.4" cy="311.5" r="2.2"/>
  <circle cx="663.3" cy="316.7" r="2.2"/>
  <circle cx="675.2" cy="308.7" r="2.2"/>
  <circle cx="687.1" cy="316.9" r="2.2"/>
  <circle cx="699.0" cy="313.8" r="2.2"/>
  <circle cx="710.9" cy="302.4" r="2.2"/>
  <circle cx="722.8" cy="309.6" r="2.2"/>
  <circle cx="734.7" cy="313.3" r="2.2"/>
  <circle cx="746.6" cy="330.0" r="2.2"/>
  <circle cx="770.4" cy="314.5" r="2.2"/>
  <circle cx="782.3" cy="333.0" r="2.2"/>
  <circle cx="794.2" cy="322.4" r="2.2"/>
  <circle cx="806.1" cy="341.9" r="2.2"/>
  <circle cx="818.0" cy="345.7" r="2.2"/>
  <circle cx="829.9" cy="341.6" r="2.2"/>
  <circle cx="841.8" cy="340.3" r="2.2"/>
  <circle cx="853.7" cy="340.1" r="2.2"/>
  <circle cx="865.6" cy="367.0" r="2.2"/>
  <circle cx="889.4" cy="361.5" r="2.2"/>
  <circle cx="901.3" cy="373.3" r="2.2"/>
</g>
<g class="pl" fill="#FFF" stroke="#7B553E" stroke-width="0.900" clip-path="url(#axis_clip)">
  <circle cx="282.5" cy="239.0" r="5.4"/>
  <circle cx="401.5" cy="82.9" r="5.4"/>
  <circle cx="520.5" cy="198.1" r="5.4"/>
  <circle cx="639.5" cy="308.2" r="5.4"/>
  <circle cx="758.5" cy="314.0" r="5.4"/>
  <circle cx="877.5" cy="383.1" r="5.4"/>
</g>
<text transform="translate(945.6,431.8)" dy="8.1" font-size="27.00" fill="#FDBF6F" stroke="none">Bioenergy</text>
<text transform="translate(945.6,483.6)" dy="8.1" font-size="27.00" fill="#E78AC3" stroke="none">Other</text>
<text transform="translate(945.6,535.4)" dy="8.1" font-size="27.00" fill="#8DA0CB" stroke="none">Biofuels</text>
<text transform="translate(945.6,587.2)" dy="8.1" font-size="27.00" fill="#FC8D62" stroke="none">Nuclear</text>
<text transform="translate(945.6,561.3)" dy="8.1" font-size="27.00" fill="#66C2A5" stroke="none">Hydro</text>
<text transform="translate(945.6,509.5)" dy="8.1" font-size="27.00" fill="#E5C494" stroke="none">Solar</text>
<text transform="translate(945.6,457.7)" dy="8.1" font-size="27.00" fill="#FFD92F" stroke="none">Wind</text>
<text transform="translate(945.6,405.9)" dy="8.1" font-size="27.00" fill="#6298C6" stroke="none">Gas</text>
<text transform="translate(945.6,379.9)" dy="8.1" font-size="27.00" fill="#404040" stroke="none">Oil</text>
<text transform="translate(945.6,354.0)" dy="8.1" font-size="27.00" fill="#7B553E" stroke="none">Coal</text>
<polyline class="pl" points="910.8,541.6 912.4,541.2 913.8,540.1 915.2,538.3 916.4,535.9 917.6,532.9 918.8,529.4 919.8,525.5 920.8,521.1 921.7,516.4 922.7,511.4 923.5,506.2 924.4,500.7 925.2,495.2 926.0,489.5 926.8,483.8 927.6,478.2 928.4,472.6 929.3,467.2 930.1,461.9 931.1,456.9 932.0,452.2 933.0,447.9 934.0,443.9 935.2,440.4 936.4,437.4 937.6,435.0 939.0,433.2 940.4,432.1 942.0,431.8" stroke="#FDBF6F" stroke-width="0.90" stroke-opacity="1.00" fill="none" />
<polyline class="pl" points="910.8,577.4 912.4,577.1 913.8,576.2 915.2,574.6 916.4,572.6 917.6,570.0 918.8,567.0 919.8,563.7 920.8,559.9 921.7,555.9 922.7,551.6 923.5,547.2 924.4,542.5 925.2,537.8 926.0,532.9 926.8,528.1 927.6,523.2 928.4,518.5 929.3,513.8 930.1,509.4 931.1,505.1 932.0,501.1 933.0,497.3 934.0,494.0 935.2,491.0 936.4,488.4 937.6,486.4 939.0,484.8 940.4,483.9 942.0,483.6" stroke="#E78AC3" stroke-width="0.90" stroke-opacity="1.00" fill="none" />
<polyline class="pl" points="910.8,581.9 912.4,581.7 913.8,581.2 915.2,580.5 916.4,579.5 917.6,578.2 918.8,576.7 919.8,575.1 920.8,573.2 921.7,571.2 922.7,569.1 923.5,566.9 924.4,564.6 925.2,562.2 926.0,559.8 926.8,557.4 927.6,555.0 928.4,552.7 929.3,550.4 930.1,548.1 931.1,546.0 932.0,544.0 933.0,542.2 934.0,540.5 935.2,539.0 936.4,537.8 937.6,536.8 939.0,536.0 940.4,535.5 942.0,535.4" stroke="#8DA0CB" stroke-width="0.90" stroke-opacity="1.00" fill="none" />
<polyline class="pl" points="910.8,585.0 912.4,584.9 913.8,584.7 915.2,584.3 916.4,583.8 917.6,583.1 918.8,582.4 919.8,581.5 920.8,580.6 921.7,579.6 922.7,578.5 923.5,577.3 924.4,576.2 925.2,575.0 926.0,573.7 926.8,572.5 927.6,571.3 928.4,570.1 929.3,568.9 930.1,567.8 931.1,566.7 932.0,565.7 933.0,564.8 934.0,563.9 935.2,563.1 936.4,562.5 937.6,562.0 939.0,561.6 940.4,561.4 942.0,561.3" stroke="#66C2A5" stroke-width="0.90" stroke-opacity="1.00" fill="none" />
<polyline class="pl" points="910.8,578.1 912.4,577.9 913.8,577.2 915.2,576.1 916.4,574.6 917.6,572.7 918.8,570.5 919.8,568.1 920.8,565.3 921.7,562.4 922.7,559.3 923.5,556.0 924.4,552.6 925.2,549.1 926.0,545.6 926.8,542.0 927.6,538.5 928.4,535.0 929.3,531.6 930.1,528.3 931.1,525.2 932.0,522.3 933.0,519.5 934.0,517.1 935.2,514.9 936.4,513.0 937.6,511.5 939.0,510.4 940.4,509.7 942.0,509.5" stroke="#E5C494" stroke-width="0.90" stroke-opacity="1.00" fill="none" />
<polyline class="pl" points="910.8,565.6 912.4,565.2 913.8,564.1 915.2,562.3 916.4,560.0 917.6,557.0 918.8,553.6 919.8,549.7 920.8,545.5 921.7,540.8 922.7,535.9 923.5,530.8 924.4,525.4 925.2,519.9 926.0,514.4 926.8,508.8 927.6,503.3 928.4,497.8 929.3,492.5 930.1,487.3 931.1,482.4 932.0,477.8 933.0,473.5 934.0,469.6 935.2,466.2 936.4,463.3 937.6,460.9 939.0,459.1 940.4,458.0 942.0,457.7" stroke="#FFD92F" stroke-width="0.90" stroke-opacity="1.00" fill="none" />
<polyline class="pl" points="910.8,510.7 912.4,510.3 913.8,509.3 915.2,507.6 916.4,505.3 917.6,502.4 918.8,499.1 919.8,495.3 920.8,491.2 921.7,486.7 922.7,481.9 923.5,476.9 924.4,471.7 925.2,466.4 926.0,461.0 926.8,455.6 927.6,450.2 928.4,444.9 929.3,439.7 930.1,434.7 931.1,429.9 932.0,425.4 933.0,421.2 934.0,417.5 935.2,414.1 936.4,411.3 937.6,409.0 939.0,407.3 940.4,406.2 942.0,405.9" stroke="#6298C6" stroke-width="0.90" stroke-opacity="1.00" fill="none" />
<polyline class="pl" points="910.8,414.3 912.4,414.2 913.8,413.8 915.2,413.3 916.4,412.5 917.6,411.6 918.8,410.5 919.8,409.3 920.8,407.9 921.7,406.4 922.7,404.9 923.5,403.2 924.4,401.5 925.2,399.8 926.0,398.0 926.8,396.2 927.6,394.5 928.4,392.7 929.3,391.0 930.1,389.4 931.1,387.8 932.0,386.3 933.0,385.0 934.0,383.7 935.2,382.7 936.4,381.7 937.6,381.0 939.0,380.4 940.4,380.1 942.0,379.9" stroke="#404040" stroke-width="0.90" stroke-opacity="1.00" fill="none" />
<polyline class="pl" points="910.8,373.3 912.4,373.2 913.8,373.0 915.2,372.7 916.4,372.3 917.6,371.8 918.8,371.2 919.8,370.5 920.8,369.7 921.7,368.9 922.7,368.0 923.5,367.1 924.4,366.1 925.2,365.2 926.0,364.2 926.8,363.2 927.6,362.2 928.4,361.2 929.3,360.3 930.1,359.3 931.1,358.5 932.0,357.6 933.0,356.9 934.0,356.2 935.2,355.6 936.4,355.0 937.6,354.6 939.0,354.3 940.4,354.1 942.0,354.0" stroke="#7B553E" stroke-width="0.90" stroke-opacity="1.00" fill="none" />
<text transform="translate(1079.5,428.4)" dy="0.0" font-size="14.40" fill="#FDBF6F" stroke="none">excluding</text>
<text transform="translate(1079.5,428.4)" dy="14.4" font-size="14.40" fill="#FDBF6F" stroke="none">liquids</text>
<text transform="translate(145.6,47.2)" dy="0.0" font-size="27.00" fill="#808080" stroke="none">Annual energy consumption Poland</text>
<text transform="translate(160.2,666.1)" font-size="19.80" font-family="Helvetica" fill="#BFBFBF" stroke="none" xml:space="preserve">Global Carbon Project   &#9679;   Data: Energy Institute, IEA (bioenergy)</text>
<g>
  <rect x="123.0" y="651.4" width="34" height="17" fill="#FFF" stroke="none"/>
  <g transform="translate(124.0,652.4) scale(0.24)">
  <g><circle fill="#FFF" cx="37.79" cy="28.5" r="28.84"/>
     <circle fill="none" cx="37.79" cy="28.5" r="28.84" stroke="#BFBFBF" stroke-width="5.5"/>
     <path fill="#BFBFBF" d="M37.16,23.19 l-4.29,2.23c-0.458-0.951-1.02-1.62-1.69-2c-0.667-0.38-1.29-0.571-1.86-0.571c-2.86,0-4.29,1.89-4.29,5.66 c0,1.71,0.36,3.08,1.09,4.11c0.724,1.03,1.79,1.54,3.2,1.54c1.87,0,3.18-0.915,3.94-2.74l3.94,2 c-0.838,1.56-2,2.79-3.49,3.69c-1.48,0.896-3.12,1.34-4.91,1.34c-2.86,0-5.16-0.875-6.92-2.63 c-1.75-1.75-2.63-4.19-2.63-7.31c0-3.05,0.886-5.47,2.66-7.26c1.77-1.79,4.01-2.69,6.72-2.69 C32.6,18.56,35.44,20.1,37.16,23.19z
              M55.61,23.19l-4.23,2.23c-0.457-0.951-1.02-1.62-1.69-2 c-0.668-0.38-1.31-0.571-1.91-0.571c-2.86,0-4.29,1.89-4.29,5.66c0,1.71,0.363,3.08,1.09,4.11 c0.723,1.03,1.79,1.54,3.2,1.54c1.87,0,3.18-0.915,3.94-2.74l4,2c-0.875,1.56-2.06,2.79-3.54,3.69 c-1.49,0.9-3.11,1.34-4.86,1.34c-2.9,0-5.21-0.875-6.94-2.63c-1.74-1.75-2.6-4.19-2.6-7.31 c0-3.05,0.885-5.47,2.66-7.26c1.77-1.79,4.01-2.69,6.71-2.69C51.12,18.56,53.944,20.1,55.61,23.19z"/>
  </g></g>
  <g transform="translate(140.2,652.4) scale(0.24)">
  <g><circle fill="#FFF" cx="37.79" cy="28.5" r="28.84"/>
     <circle fill="none" cx="37.79" cy="28.5" r="28.84" stroke="#BFBFBF" stroke-width="5.5"/>
     <path fill="#BFBFBF" d="M46.129,20.557v13.085h-3.656v15.542h-9.944V33.643h-3.656V20.557 c0-0.572,0.2-1.057,0.599-1.457c0.401-0.399,0.887-0.6,1.457-0.6h13.144c0.533,0,1.01,0.2,1.428,0.6 C45.918,19.5,46.129,19.986,46.129,20.557z
              M33.042,12.329c0-3.008,1.485-4.514,4.458-4.514s4.457,1.504,4.457,4.514 c0,2.971-1.486,4.457-4.457,4.457S33.042,15.3,33.042,12.329z"/>
  </g></g>
</g>
</g>
</svg>
