<svg version="1.1" xmlns="http://www.w3.org/2000/svg" xmlns:xlink="http://www.w3.org/1999/xlink" width="100%" height="100%" viewBox="0 0 1200.000 674.916">
<title>Annual CO2 fluxes from land-use change: Viet Nam</title>
<style type="text/css">
  #main {font-family:Helvetica,Arial,sans-serif; font-size:27.00px;
         fill-opacity:1; fill:#000000; stroke:none; stroke-linejoin:round; stroke-linecap:round; stroke-width:1.00;}
  .marker {stroke-opacity:0;fill-opacity:0;}
  .marker:hover {stroke-opacity:0.5; fill-opacity:1;}
  .ticklabel {font-size:27.00px;fill:#808080;stroke:none;font-family:Helvetica}
  .ytl {text-anchor:end;}
  .dp1 {pointer-events:none;font-size:70%;text-anchor:middle;fill:#000000;}
  .dp2 {pointer-events:none;font-size:70%;text-anchor:middle;fill:#FFFFFF;}
  .numtip {pointer-events:none;}
  .cc {opacity:0.25;}
.dl_fe {background-color:#FDFFDF;display:flex;margin:auto;align-items:center}
.dl_fe_p {font-size:20px;text-align:center;margin:3px}
.dl_el {display:none;pointer-events:none;}
.cc:hover + .dl_el {display:block;}
text:hover + .dl_el {display:block;}
</style>
<defs>
  <clipPath id="axis_clip"><rect x="145.8" y="54.2" width="761.2" height="532.8" /></clipPath>
  <path id="line_x" d="M 145.600,0 h 761.600" stroke="#262626" stroke-opacity="0.15" stroke-width="1.00"/>
  <path id="tick_y" d="M 145.600,0 h -6.000" stroke="#808080" stroke-width="0.90"/>
  <path id="tick_x" d="M 0,587.177 v 6.000" stroke="#808080" stroke-width="0.90"/>
</defs>
<g id="main">
<use xlink:href="#line_x" transform="translate(0,587.2)"/>
<use xlink:href="#line_x" transform="translate(0,527.9)"/>
<use xlink:href="#line_x" transform="translate(0,468.7)"/>
<use xlink:href="#line_x" transform="translate(0,409.4)"/>
<use xlink:href="#line_x" transform="translate(0,350.2)"/>
<use xlink:href="#line_x" transform="translate(0,291.0)"/>
<use xlink:href="#line_x" transform="translate(0,231.7)"/>
<use xlink:href="#line_x" transform="translate(0,172.5)"/>
<use xlink:href="#line_x" transform="translate(0,113.2)"/>
<use xlink:href="#line_x" transform="translate(0,54.0)"/>
<use xlink:href="#tick_y" transform="translate(0,587.2)"/>
<use xlink:href="#tick_y" transform="translate(0,527.9)"/>
<use xlink:href="#tick_y" transform="translate(0,468.7)"/>
<use xlink:href="#tick_y" transform="translate(0,409.4)"/>
<use xlink:href="#tick_y" transform="translate(0,350.2)"/>
<use xlink:href="#tick_y" transform="translate(0,291.0)"/>
<use xlink:href="#tick_y" transform="translate(0,231.7)"/>
<use xlink:href="#tick_y" transform="translate(0,172.5)"/>
<use xlink:href="#tick_y" transform="translate(0,113.2)"/>
<use xlink:href="#tick_y" transform="translate(0,54.0)"/>
<use xlink:href="#tick_x" transform="translate(158.1,0)"/>
<use xlink:href="#tick_x" transform="translate(271.6,0)"/>
<use xlink:href="#tick_x" transform="translate(385.1,0)"/>
<use xlink:href="#tick_x" transform="translate(498.6,0)"/>
<use xlink:href="#tick_x" transform="translate(612.1,0)"/>
<use xlink:href="#tick_x" transform="translate(725.6,0)"/>
<use xlink:href="#tick_x" transform="translate(839.1,0)"/>
<polyline points="145.6,53.993 145.6,587.177 907.2,587.177" stroke="#808080" stroke-width="0.90" fill="none"/>
<text class="ticklabel xtl" transform="translate(158.1,629.0)" text-anchor="middle">1960</text>
<text class="ticklabel xtl" transform="translate(271.6,629.0)" text-anchor="middle">1970</text>
<text class="ticklabel xtl" transform="translate(385.1,629.0)" text-anchor="middle">1980</text>
<text class="ticklabel xtl" transform="translate(498.6,629.0)" text-anchor="middle">1990</text>
<text class="ticklabel xtl" transform="translate(612.1,629.0)" text-anchor="middle">2000</text>
<text class="ticklabel xtl" transform="translate(725.6,629.0)" text-anchor="middle">2010</text>
<text class="ticklabel xtl" transform="translate(839.1,629.0)" text-anchor="middle">2020</text>
<text class="ticklabel ytl" transform="translate(128.8,595.3)">-50</text>
<text class="ticklabel ytl" transform="translate(128.8,536.0)">0</text>
<text class="ticklabel ytl" transform="translate(128.8,476.8)">50</text>
<text class="ticklabel ytl" transform="translate(128.8,417.5)">100</text>
<text class="ticklabel ytl" transform="translate(128.8,358.3)">150</text>
<text class="ticklabel ytl" transform="translate(128.8,299.1)">200</text>
<text class="ticklabel ytl" transform="translate(128.8,239.8)">250</text>
<text class="ticklabel ytl" transform="translate(128.8,180.6)">300</text>
<text class="ticklabel ytl" transform="translate(128.8,121.3)">350</text>
<text class="ticklabel ytl" transform="translate(128.8,62.1)">400 Mt</text>
<polyline class="pl" points="145.6,527.9 907.2,527.9" stroke="#000" stroke-width="0.90" stroke-opacity="1.00" fill="none" clip-path="url(#axis_clip)"/>
<polyline class="pl" points="135.4,392.2 146.7,367.3 158.1,428.8 169.4,450.2 180.8,460.8 192.1,467.1 203.5,471.4 214.8,475.3 226.2,472.2 237.5,472.8 248.9,475.7 260.2,471.7 271.6,479.9 282.9,476.8 294.3,472.8 305.6,472.8 317.0,479.1 328.3,425.3 339.7,436.1 351.0,454.3 362.4,465.1 373.7,470.7 385.1,471.6 396.4,474.6 407.8,473.7 419.1,476.6 430.5,484.2 441.8,483.5 453.2,481.0 464.5,477.9 475.9,478.2 487.2,480.8 498.6,476.3 509.9,410.3 521.3,439.4 532.6,448.8 544.0,462.1 555.3,349.4 566.7,379.4 578.0,376.8 589.4,330.0 600.7,305.3 612.1,208.8 623.4,344.9 634.8,376.0 646.1,350.3 657.5,341.4 668.8,396.6 680.2,421.8 691.5,391.5 702.9,403.0 714.2,313.2 725.6,382.8 736.9,403.7 748.3,403.9 759.6,395.8 771.0,106.4 782.3,276.9 793.7,342.6 805.0,226.7 816.4,235.2 827.7,234.0 839.1,232.0 850.4,228.3 861.8,229.7" stroke="#0072BD" stroke-width="5.40" stroke-opacity="1.00" fill="none" clip-path="url(#axis_clip)"/>
<g class="pl" fill="#FFF" stroke="#0072BD" stroke-width="0.900" clip-path="url(#axis_clip)">
  <circle cx="146.7" cy="367.3" r="2.2"/>
  <circle cx="169.4" cy="450.2" r="2.2"/>
  <circle cx="180.8" cy="460.8" r="2.2"/>
  <circle cx="192.1" cy="467.1" r="2.2"/>
  <circle cx="203.5" cy="471.4" r="2.2"/>
  <circle cx="214.8" cy="475.3" r="2.2"/>
  <circle cx="226.2" cy="472.2" r="2.2"/>
  <circle cx="237.5" cy="472.8" r="2.2"/>
  <circle cx="248.9" cy="475.7" r="2.2"/>
  <circle cx="260.2" cy="471.7" r="2.2"/>
  <circle cx="282.9" cy="476.8" r="2.2"/>
  <circle cx="294.3" cy="472.8" r="2.2"/>
  <circle cx="305.6" cy="472.8" r="2.2"/>
  <circle cx="317.0" cy="479.1" r="2.2"/>
  <circle cx="328.3" cy="425.3" r="2.2"/>
  <circle cx="339.7" cy="436.1" r="2.2"/>
  <circle cx="351.0" cy="454.3" r="2.2"/>
  <circle cx="362.4" cy="465.1" r="2.2"/>
  <circle cx="373.7" cy="470.7" r="2.2"/>
  <circle cx="396.4" cy="474.6" r="2.2"/>
  <circle cx="407.8" cy="473.7" r="2.2"/>
  <circle cx="419.1" cy="476.6" r="2.2"/>
  <circle cx="430.5" cy="484.2" r="2.2"/>
  <circle cx="441.8" cy="483.5" r="2.2"/>
  <circle cx="453.2" cy="481.0" r="2.2"/>
  <circle cx="464.5" cy="477.9" r="2.2"/>
  <circle cx="475.9" cy="478.2" r="2.2"/>
  <circle cx="487.2" cy="480.8" r="2.2"/>
  <circle cx="509.9" cy="410.3" r="2.2"/>
  <circle cx="521.3" cy="439.4" r="2.2"/>
  <circle cx="532.6" cy="448.8" r="2.2"/>
  <circle cx="544.0" cy="462.1" r="2.2"/>
  <circle cx="555.3" cy="349.4" r="2.2"/>
  <circle cx="566.7" cy="379.4" r="2.2"/>
  <circle cx="578.0" cy="376.8" r="2.2"/>
  <circle cx="589.4" cy="330.0" r="2.2"/>
  <circle cx="600.7" cy="305.3" r="2.2"/>
  <circle cx="623.4" cy="344.9" r="2.2"/>
  <circle cx="634.8" cy="376.0" r="2.2"/>
  <circle cx="646.1" cy="350.3" r="2.2"/>
  <circle cx="657.5" cy="341.4" r="2.2"/>
  <circle cx="668.8" cy="396.6" r="2.2"/>
  <circle cx="680.2" cy="421.8" r="2.2"/>
  <circle cx="691.5" cy="391.5" r="2.2"/>
  <circle cx="702.9" cy="403.0" r="2.2"/>
  <circle cx="714.2" cy="313.2" r="2.2"/>
  <circle cx="736.9" cy="403.7" r="2.2"/>
  <circle cx="748.3" cy="403.9" r="2.2"/>
  <circle cx="759.6" cy="395.8" r="2.2"/>
  <circle cx="771.0" cy="106.4" r="2.2"/>
  <circle cx="782.3" cy="276.9" r="2.2"/>
  <circle cx="793.7" cy="342.6" r="2.2"/>
  <circle cx="805.0" cy="226.7" r="2.2"/>
  <circle cx="816.4" cy="235.2" r="2.2"/>
  <circle cx="827.7" cy="234.0" r="2.2"/>
  <circle cx="850.4" cy="228.3" r="2.2"/>
  <circle cx="861.8" cy="229.7" r="2.2"/>
</g>
<g class="pl" fill="#FFF" stroke="#0072BD" stroke-width="0.900" clip-path="url(#axis_clip)">
  <circle cx="158.1" cy="428.8" r="5.4"/>
  <circle cx="271.6" cy="479.9" r="5.4"/>
  <circle cx="385.1" cy="471.6" r="5.4"/>
  <circle cx="498.6" cy="476.3" r="5.4"/>
  <circle cx="612.1" cy="208.8" r="5.4"/>
  <circle cx="725.6" cy="382.8" r="5.4"/>
  <circle cx="839.1" cy="232.0" r="5.4"/>
</g>
<polyline class="pl" points="135.4,474.8 146.7,472.4 158.1,471.6 169.4,470.7 180.8,468.8 192.1,467.5 203.5,466.8 214.8,465.9 226.2,464.2 237.5,460.4 248.9,454.5 260.2,451.4 271.6,447.5 282.9,444.5 294.3,442.8 305.6,441.9 317.0,443.0 328.3,447.8 339.7,453.5 351.0,455.3 362.4,460.7 373.7,469.6 385.1,477.9 396.4,484.2 407.8,489.2 419.1,496.0 430.5,509.9 441.8,517.2 453.2,522.1 464.5,526.0 475.9,530.3 487.2,533.9 498.6,530.6 509.9,526.7 521.3,525.2 532.6,526.1 544.0,521.7 555.3,521.7 566.7,519.9 578.0,513.6 589.4,503.0 600.7,486.6 612.1,482.6 623.4,481.1 634.8,481.7 646.1,483.6 657.5,502.0 668.8,505.7 680.2,507.0 691.5,512.6 702.9,508.8 714.2,508.4 725.6,507.6 736.9,505.2 748.3,502.4 759.6,483.3 771.0,474.0 782.3,469.8 793.7,456.9 805.0,465.8 816.4,488.5 827.7,497.8 839.1,504.1 850.4,506.1 861.8,508.3" stroke="#D95319" stroke-width="5.40" stroke-opacity="1.00" fill="none" clip-path="url(#axis_clip)"/>
<g class="pl" fill="#FFF" stroke="#D95319" stroke-width="0.900" clip-path="url(#axis_clip)">
  <circle cx="146.7" cy="472.4" r="2.2"/>
  <circle cx="169.4" cy="470.7" r="2.2"/>
  <circle cx="180.8" cy="468.8" r="2.2"/>
  <circle cx="192.1" cy="467.5" r="2.2"/>
  <circle cx="203.5" cy="466.8" r="2.2"/>
  <circle cx="214.8" cy="465.9" r="2.2"/>
  <circle cx="226.2" cy="464.2" r="2.2"/>
  <circle cx="237.5" cy="460.4" r="2.2"/>
  <circle cx="248.9" cy="454.5" r="2.2"/>
  <circle cx="260.2" cy="451.4" r="2.2"/>
  <circle cx="282.9" cy="444.5" r="2.2"/>
  <circle cx="294.3" cy="442.8" r="2.2"/>
  <circle cx="305.6" cy="441.9" r="2.2"/>
  <circle cx="317.0" cy="443.0" r="2.2"/>
  <circle cx="328.3" cy="447.8" r="2.2"/>
  <circle cx="339.7" cy="453.5" r="2.2"/>
  <circle cx="351.0" cy="455.3" r="2.2"/>
  <circle cx="362.4" cy="460.7" r="2.2"/>
  <circle cx="373.7" cy="469.6" r="2.2"/>
  <circle cx="396.4" cy="484.2" r="2.2"/>
  <circle cx="407.8" cy="489.2" r="2.2"/>
  <circle cx="419.1" cy="496.0" r="2.2"/>
  <circle cx="430.5" cy="509.9" r="2.2"/>
  <circle cx="441.8" cy="517.2" r="2.2"/>
  <circle cx="453.2" cy="522.1" r="2.2"/>
  <circle cx="464.5" cy="526.0" r="2.2"/>
  <circle cx="475.9" cy="530.3" r="2.2"/>
  <circle cx="487.2" cy="533.9" r="2.2"/>
  <circle cx="509.9" cy="526.7" r="2.2"/>
  <circle cx="521.3" cy="525.2" r="2.2"/>
  <circle cx="532.6" cy="526.1" r="2.2"/>
  <circle cx="544.0" cy="521.7" r="2.2"/>
  <circle cx="555.3" cy="521.7" r="2.2"/>
  <circle cx="566.7" cy="519.9" r="2.2"/>
  <circle cx="578.0" cy="513.6" r="2.2"/>
  <circle cx="589.4" cy="503.0" r="2.2"/>
  <circle cx="600.7" cy="486.6" r="2.2"/>
  <circle cx="623.4" cy="481.1" r="2.2"/>
  <circle cx="634.8" cy="481.7" r="2.2"/>
  <circle cx="646.1" cy="483.6" r="2.2"/>
  <circle cx="657.5" cy="502.0" r="2.2"/>
  <circle cx="668.8" cy="505.7" r="2.2"/>
  <circle cx="680.2" cy="507.0" r="2.2"/>
  <circle cx="691.5" cy="512.6" r="2.2"/>
  <circle cx="702.9" cy="508.8" r="2.2"/>
  <circle cx="714.2" cy="508.4" r="2.2"/>
  <circle cx="736.9" cy="505.2" r="2.2"/>
  <circle cx="748.3" cy="502.4" r="2.2"/>
  <circle cx="759.6" cy="483.3" r="2.2"/>
  <circle cx="771.0" cy="474.0" r="2.2"/>
  <circle cx="782.3" cy="469.8" r="2.2"/>
  <circle cx="793.7" cy="456.9" r="2.2"/>
  <circle cx="805.0" cy="465.8" r="2.2"/>
  <circle cx="816.4" cy="488.5" r="2.2"/>
  <circle cx="827.7" cy="497.8" r="2.2"/>
  <circle cx="850.4" cy="506.1" r="2.2"/>
  <circle cx="861.8" cy="508.3" r="2.2"/>
</g>
<g class="pl" fill="#FFF" stroke="#D95319" stroke-width="0.900" clip-path="url(#axis_clip)">
  <circle cx="158.1" cy="471.6" r="5.4"/>
  <circle cx="271.6" cy="447.5" r="5.4"/>
  <circle cx="385.1" cy="477.9" r="5.4"/>
  <circle cx="498.6" cy="530.6" r="5.4"/>
  <circle cx="612.1" cy="482.6" r="5.4"/>
  <circle cx="725.6" cy="507.6" r="5.4"/>
  <circle cx="839.1" cy="504.1" r="5.4"/>
</g>
<polyline class="pl" points="135.4,448.6 146.7,437.7 158.1,439.3 169.4,448.7 180.8,455.2 192.1,452.5 203.5,453.7 214.8,457.4 226.2,454.1 237.5,455.8 248.9,454.8 260.2,455.5 271.6,447.1 282.9,445.0 294.3,444.8 305.6,446.6 317.0,446.1 328.3,438.0 339.7,436.6 351.0,445.3 362.4,444.5 373.7,458.0 385.1,460.6 396.4,464.0 407.8,467.9 419.1,473.8 430.5,477.0 441.8,481.9 453.2,478.7 464.5,489.7 475.9,486.5 487.2,486.6 498.6,483.0 509.9,474.4 521.3,465.8 532.6,474.7 544.0,468.4 555.3,441.5 566.7,421.2 578.0,432.0 589.4,419.6 600.7,389.5 612.1,368.9 623.4,372.3 634.8,404.4 646.1,412.7 657.5,411.6 668.8,423.4 680.2,442.8 691.5,440.8 702.9,430.2 714.2,425.6 725.6,423.6 736.9,433.0 748.3,438.0 759.6,426.9 771.0,358.9 782.3,333.2 793.7,376.6 805.0,351.6 816.4,340.2 827.7,358.8 839.1,356.7 850.4,351.5 861.8,349.4" stroke="#EDB120" stroke-width="5.40" stroke-opacity="1.00" fill="none" clip-path="url(#axis_clip)"/>
<g class="pl" fill="#FFF" stroke="#EDB120" stroke-width="0.900" clip-path="url(#axis_clip)">
  <circle cx="146.7" cy="437.7" r="2.2"/>
  <circle cx="169.4" cy="448.7" r="2.2"/>
  <circle cx="180.8" cy="455.2" r="2.2"/>
  <circle cx="192.1" cy="452.5" r="2.2"/>
  <circle cx="203.5" cy="453.7" r="2.2"/>
  <circle cx="214.8" cy="457.4" r="2.2"/>
  <circle cx="226.2" cy="454.1" r="2.2"/>
  <circle cx="237.5" cy="455.8" r="2.2"/>
  <circle cx="248.9" cy="454.8" r="2.2"/>
  <circle cx="260.2" cy="455.5" r="2.2"/>
  <circle cx="282.9" cy="445.0" r="2.2"/>
  <circle cx="294.3" cy="444.8" r="2.2"/>
  <circle cx="305.6" cy="446.6" r="2.2"/>
  <circle cx="317.0" cy="446.1" r="2.2"/>
  <circle cx="328.3" cy="438.0" r="2.2"/>
  <circle cx="339.7" cy="436.6" r="2.2"/>
  <circle cx="351.0" cy="445.3" r="2.2"/>
  <circle cx="362.4" cy="444.5" r="2.2"/>
  <circle cx="373.7" cy="458.0" r="2.2"/>
  <circle cx="396.4" cy="464.0" r="2.2"/>
  <circle cx="407.8" cy="467.9" r="2.2"/>
  <circle cx="419.1" cy="473.8" r="2.2"/>
  <circle cx="430.5" cy="477.0" r="2.2"/>
  <circle cx="441.8" cy="481.9" r="2.2"/>
  <circle cx="453.2" cy="478.7" r="2.2"/>
  <circle cx="464.5" cy="489.7" r="2.2"/>
  <circle cx="475.9" cy="486.5" r="2.2"/>
  <circle cx="487.2" cy="486.6" r="2.2"/>
  <circle cx="509.9" cy="474.4" r="2.2"/>
  <circle cx="521.3" cy="465.8" r="2.2"/>
  <circle cx="532.6" cy="474.7" r="2.2"/>
  <circle cx="544.0" cy="468.4" r="2.2"/>
  <circle cx="555.3" cy="441.5" r="2.2"/>
  <circle cx="566.7" cy="421.2" r="2.2"/>
  <circle cx="578.0" cy="432.0" r="2.2"/>
  <circle cx="589.4" cy="419.6" r="2.2"/>
  <circle cx="600.7" cy="389.5" r="2.2"/>
  <circle cx="623.4" cy="372.3" r="2.2"/>
  <circle cx="634.8" cy="404.4" r="2.2"/>
  <circle cx="646.1" cy="412.7" r="2.2"/>
  <circle cx="657.5" cy="411.6" r="2.2"/>
  <circle cx="668.8" cy="423.4" r="2.2"/>
  <circle cx="680.2" cy="442.8" r="2.2"/>
  <circle cx="691.5" cy="440.8" r="2.2"/>
  <circle cx="702.9" cy="430.2" r="2.2"/>
  <circle cx="714.2" cy="425.6" r="2.2"/>
  <circle cx="736.9" cy="433.0" r="2.2"/>
  <circle cx="748.3" cy="438.0" r="2.2"/>
  <circle cx="759.6" cy="426.9" r="2.2"/>
  <circle cx="771.0" cy="358.9" r="2.2"/>
  <circle cx="782.3" cy="333.2" r="2.2"/>
  <circle cx="793.7" cy="376.6" r="2.2"/>
  <circle cx="805.0" cy="351.6" r="2.2"/>
  <circle cx="816.4" cy="340.2" r="2.2"/>
  <circle cx="827.7" cy="358.8" r="2.2"/>
  <circle cx="850.4" cy="351.5" r="2.2"/>
  <circle cx="861.8" cy="349.4" r="2.2"/>
</g>
<g class="pl" fill="#FFF" stroke="#EDB120" stroke-width="0.900" clip-path="url(#axis_clip)">
  <circle cx="158.1" cy="439.3" r="5.4"/>
  <circle cx="271.6" cy="447.1" r="5.4"/>
  <circle cx="385.1" cy="460.6" r="5.4"/>
  <circle cx="498.6" cy="483.0" r="5.4"/>
  <circle cx="612.1" cy="368.9" r="5.4"/>
  <circle cx="725.6" cy="423.6" r="5.4"/>
  <circle cx="839.1" cy="356.7" r="5.4"/>
</g>
<polyline class="pl" points="135.4,438.5 146.7,425.8 158.1,446.6 169.4,456.5 180.8,461.6 192.1,462.4 203.5,464.0 214.8,466.2 226.2,463.5 237.5,463.0 248.9,461.7 260.2,459.5 271.6,458.2 282.9,455.4 294.3,453.5 305.6,453.8 317.0,456.0 328.3,437.0 339.7,442.1 351.0,451.7 362.4,456.8 373.7,466.1 385.1,470.0 396.4,474.2 407.8,476.9 419.1,482.1 430.5,490.3 441.8,494.2 453.2,493.9 464.5,497.9 475.9,498.3 487.2,500.4 498.6,496.6 509.9,470.5 521.3,476.8 532.6,483.2 544.0,484.1 555.3,437.6 566.7,440.2 578.0,440.8 589.4,417.5 600.7,393.8 612.1,353.4 623.4,399.4 634.8,420.7 646.1,415.5 657.5,418.3 668.8,441.9 680.2,457.2 691.5,448.3 702.9,447.4 714.2,415.7 725.6,438.0 736.9,447.3 748.3,448.1 759.6,435.3 771.0,313.1 782.3,360.0 793.7,392.0 805.0,348.0 816.4,354.6 827.7,363.5 839.1,364.3 850.4,361.9 861.8,362.5" stroke="#000" stroke-width="5.40" stroke-opacity="1.00" fill="none" clip-path="url(#axis_clip)"/>
<g class="pl" fill="#FFF" stroke="#000" stroke-width="0.900" clip-path="url(#axis_clip)">
  <circle cx="146.7" cy="425.8" r="2.2"/>
  <circle cx="169.4" cy="456.5" r="2.2"/>
  <circle cx="180.8" cy="461.6" r="2.2"/>
  <circle cx="192.1" cy="462.4" r="2.2"/>
  <circle cx="203.5" cy="464.0" r="2.2"/>
  <circle cx="214.8" cy="466.2" r="2.2"/>
  <circle cx="226.2" cy="463.5" r="2.2"/>
  <circle cx="237.5" cy="463.0" r="2.2"/>
  <circle cx="248.9" cy="461.7" r="2.2"/>
  <circle cx="260.2" cy="459.5" r="2.2"/>
  <circle cx="282.9" cy="455.4" r="2.2"/>
  <circle cx="294.3" cy="453.5" r="2.2"/>
  <circle cx="305.6" cy="453.8" r="2.2"/>
  <circle cx="317.0" cy="456.0" r="2.2"/>
  <circle cx="328.3" cy="437.0" r="2.2"/>
  <circle cx="339.7" cy="442.1" r="2.2"/>
  <circle cx="351.0" cy="451.7" r="2.2"/>
  <circle cx="362.4" cy="456.8" r="2.2"/>
  <circle cx="373.7" cy="466.1" r="2.2"/>
  <circle cx="396.4" cy="474.2" r="2.2"/>
  <circle cx="407.8" cy="476.9" r="2.2"/>
  <circle cx="419.1" cy="482.1" r="2.2"/>
  <circle cx="430.5" cy="490.3" r="2.2"/>
  <circle cx="441.8" cy="494.2" r="2.2"/>
  <circle cx="453.2" cy="493.9" r="2.2"/>
  <circle cx="464.5" cy="497.9" r="2.2"/>
  <circle cx="475.9" cy="498.3" r="2.2"/>
  <circle cx="487.2" cy="500.4" r="2.2"/>
  <circle cx="509.9" cy="470.5" r="2.2"/>
  <circle cx="521.3" cy="476.8" r="2.2"/>
  <circle cx="532.6" cy="483.2" r="2.2"/>
  <circle cx="544.0" cy="484.1" r="2.2"/>
  <circle cx="555.3" cy="437.6" r="2.2"/>
  <circle cx="566.7" cy="440.2" r="2.2"/>
  <circle cx="578.0" cy="440.8" r="2.2"/>
  <circle cx="589.4" cy="417.5" r="2.2"/>
  <circle cx="600.7" cy="393.8" r="2.2"/>
  <circle cx="623.4" cy="399.4" r="2.2"/>
  <circle cx="634.8" cy="420.7" r="2.2"/>
  <circle cx="646.1" cy="415.5" r="2.2"/>
  <circle cx="657.5" cy="418.3" r="2.2"/>
  <circle cx="668.8" cy="441.9" r="2.2"/>
  <circle cx="680.2" cy="457.2" r="2.2"/>
  <circle cx="691.5" cy="448.3" r="2.2"/>
  <circle cx="702.9" cy="447.4" r="2.2"/>
  <circle cx="714.2" cy="415.7" r="2.2"/>
  <circle cx="736.9" cy="447.3" r="2.2"/>
  <circle cx="748.3" cy="448.1" r="2.2"/>
  <circle cx="759.6" cy="435.3" r="2.2"/>
  <circle cx="771.0" cy="313.1" r="2.2"/>
  <circle cx="782.3" cy="360.0" r="2.2"/>
  <circle cx="793.7" cy="392.0" r="2.2"/>
  <circle cx="805.0" cy="348.0" r="2.2"/>
  <circle cx="816.4" cy="354.6" r="2.2"/>
  <circle cx="827.7" cy="363.5" r="2.2"/>
  <circle cx="850.4" cy="361.9" r="2.2"/>
  <circle cx="861.8" cy="362.5" r="2.2"/>
</g>
<g class="pl" fill="#FFF" stroke="#000" stroke-width="0.900" clip-path="url(#axis_clip)">
  <circle cx="158.1" cy="446.6" r="5.4"/>
  <circle cx="271.6" cy="458.2" r="5.4"/>
  <circle cx="385.1" cy="470.0" r="5.4"/>
  <circle cx="498.6" cy="496.6" r="5.4"/>
  <circle cx="612.1" cy="353.4" r="5.4"/>
  <circle cx="725.6" cy="438.0" r="5.4"/>
  <circle cx="839.1" cy="364.3" r="5.4"/>
</g>
<text transform="translate(945.6,229.7)" dy="8.1" font-size="27.00" fill="#0072BD" stroke="none">BLUE</text>
<text transform="translate(945.6,508.3)" dy="8.1" font-size="27.00" fill="#D95319" stroke="none">H&amp;C2023</text>
<text transform="translate(945.6,343.0)" dy="8.1" font-size="27.00" fill="#EDB120" stroke="none">OSCAR</text>
<text transform="translate(945.6,368.9)" dy="8.1" font-size="27.00" fill="#000" stroke="none">Mean</text>
<polyline class="pl" points="910.8,349.4 912.4,349.4 913.8,349.3 915.2,349.2 916.4,349.0 917.6,348.9 918.8,348.7 919.8,348.4 920.8,348.2 921.7,347.9 922.7,347.6 923.5,347.3 924.4,347.0 925.2,346.7 926.0,346.3 926.8,346.0 927.6,345.7 928.4,345.3 929.3,345.0 930.1,344.7 931.1,344.4 932.0,344.2 933.0,343.9 934.0,343.7 935.2,343.5 936.4,343.3 937.6,343.1 939.0,343.0 940.4,343.0 942.0,343.0" stroke="#EDB120" stroke-width="0.90" stroke-opacity="1.00" fill="none" />
<polyline class="pl" points="910.8,362.5 912.4,362.5 913.8,362.6 915.2,362.7 916.4,362.8 917.6,363.0 918.8,363.2 919.8,363.4 920.8,363.7 921.7,363.9 922.7,364.2 923.5,364.5 924.4,364.9 925.2,365.2 926.0,365.5 926.8,365.8 927.6,366.2 928.4,366.5 929.3,366.8 930.1,367.1 931.1,367.4 932.0,367.7 933.0,367.9 934.0,368.2 935.2,368.4 936.4,368.6 937.6,368.7 939.0,368.8 940.4,368.9 942.0,368.9" stroke="#000" stroke-width="0.90" stroke-opacity="1.00" fill="none" />
<text transform="translate(145.6,47.2)" dy="0.0" font-size="27.00" fill="#808080" stroke="none">Annual CO<tspan dy="0.2em"><tspan style="font-size:70%">2</tspan></tspan><tspan dy="-0.2em"> </tspan>fluxes from land-use change: Viet Nam</text>
<text transform="translate(130.0,81.7)" dy="8.1" font-size="27.00" fill="#808080" stroke="none" text-anchor="end">CO<tspan dy="0.2em"><tspan style="font-size:70%">2</tspan></tspan><tspan dy="-0.2em"></tspan></text>
<text transform="translate(160.2,666.1)" font-size="19.80" font-family="Helvetica" fill="#BFBFBF" stroke="none" xml:space="preserve">Global Carbon Project</text>
<g>
  <rect x="123.0" y="651.4" width="34" height="17" fill="#FFF" stroke="none"/>
  <g transform="translate(124.0,652.4) scale(0.24)">
  <g><circle fill="#FFF" cx="37.79" cy="28.5" r="28.84"/>
     <circle fill="none" cx="37.79" cy="28.5" r="28.84" stroke="#BFBFBF" stroke-width="5.5"/>
     <path fill="#BFBFBF" d="M37.16,23.19 l-4.29,2.23c-0.458-0.951-1.02-1.62-1.69-2c-0.667-0.38-1.29-0.571-1.86-0.571c-2.86,0-4.29,1.89-4.29,5.66 c0,1.71,0.36,3.08,1.09,4.11c0.724,1.03,1.79,1.54,3.2,1.54c1.87,0,3.18-0.915,3.94-2.74l3.94,2 c-0.838,1.56-2,2.79-3.49,3.69c-1.48,0.896-3.12,1.34-4.91,1.34c-2.86,0-5.16-0.875-6.92-2.63 c-1.75-1.75-2.63-4.19-2.63-7.31c0-3.05,0.886-5.47,2.66-7.26c1.77-1.79,4.01-2.69,6.72-2.69 C32.6,18.56,35.44,20.1,37.16,23.19z
              M55.61,23.19l-4.23,2.23c-0.457-0.951-1.02-1.62-1.69-2 c-0.668-0.38-1.31-0.571-1.91-0.571c-2.86,0-4.29,1.89-4.29,5.66c0,1.71,0.363,3.08,1.09,4.11 c0.723,1.03,1.79,1.54,3.2,1.54c1.87,0,3.18-0.915,3.94-2.74l4,2c-0.875,1.56-2.06,2.79-3.54,3.69 c-1.49,0.9-3.11,1.34-4.86,1.34c-2.9,0-5.21-0.875-6.94-2.63c-1.74-1.75-2.6-4.19-2.6-7.31 c0-3.05,0.885-5.47,2.66-7.26c1.77-1.79,4.01-2.69,6.71-2.69C51.12,18.56,53.944,20.1,55.61,23.19z"/>
  </g></g>
  <g transform="translate(140.2,652.4) scale(0.24)">
  <g><circle fill="#FFF" cx="37.79" cy="28.5" r="28.84"/>
     <circle fill="none" cx="37.79" cy="28.5" r="28.84" stroke="#BFBFBF" stroke-width="5.5"/>
     <path fill="#BFBFBF" d="M46.129,20.557v13.085h-3.656v15.542h-9.944V33.643h-3.656V20.557 c0-0.572,0.2-1.057,0.599-1.457c0.401-0.399,0.887-0.6,1.457-0.6h13.144c0.533,0,1.01,0.2,1.428,0.6 C45.918,19.5,46.129,19.986,46.129,20.557z
              M33.042,12.329c0-3.008,1.485-4.514,4.458-4.514s4.457,1.504,4.457,4.514 c0,2.971-1.486,4.457-4.457,4.457S33.042,15.3,33.042,12.329z"/>
  </g></g>
</g>
</g>
</svg>
