<svg version="1.1" xmlns="http://www.w3.org/2000/svg" xmlns:xlink="http://www.w3.org/1999/xlink" width="100%" height="100%" viewBox="0 0 1200.000 674.916">
<title>Annual CO2 fluxes from land-use change: Australia</title>
<style type="text/css">
  #main {font-family:Helvetica,Arial,sans-serif; font-size:27.00px;
         fill-opacity:1; fill:#000000; stroke:none; stroke-linejoin:round; stroke-linecap:round; stroke-width:1.00;}
  .marker {stroke-opacity:0;fill-opacity:0;}
  .marker:hover {stroke-opacity:0.5; fill-opacity:1;}
  .ticklabel {font-size:27.00px;fill:#808080;stroke:none;font-family:Helvetica}
  .ytl {text-anchor:end;}
  .dp1 {pointer-events:none;font-size:70%;text-anchor:middle;fill:#000000;}
  .dp2 {pointer-events:none;font-size:70%;text-anchor:middle;fill:#FFFFFF;}
  .numtip {pointer-events:none;}
  .cc {opacity:0.25;}
.dl_fe {background-color:#FDFFDF;display:flex;margin:auto;align-items:center}
.dl_fe_p {font-size:20px;text-align:center;margin:3px}
.dl_el {display:none;pointer-events:none;}
.cc:hover + .dl_el {display:block;}
text:hover + .dl_el {display:block;}
</style>
<defs>
  <clipPath id="axis_clip"><rect x="145.8" y="54.2" width="761.2" height="532.8" /></clipPath>
  <path id="line_x" d="M 145.600,0 h 761.600" stroke="#262626" stroke-opacity="0.15" stroke-width="1.00"/>
  <path id="tick_y" d="M 145.600,0 h -6.000" stroke="#808080" stroke-width="0.90"/>
  <path id="tick_x" d="M 0,587.177 v 6.000" stroke="#808080" stroke-width="0.90"/>
</defs>
<g id="main">
<use xlink:href="#line_x" transform="translate(0,587.2)"/>
<use xlink:href="#line_x" transform="translate(0,511.0)"/>
<use xlink:href="#line_x" transform="translate(0,434.8)"/>
<use xlink:href="#line_x" transform="translate(0,358.7)"/>
<use xlink:href="#line_x" transform="translate(0,282.5)"/>
<use xlink:href="#line_x" transform="translate(0,206.3)"/>
<use xlink:href="#line_x" transform="translate(0,130.2)"/>
<use xlink:href="#line_x" transform="translate(0,54.0)"/>
<use xlink:href="#tick_y" transform="translate(0,587.2)"/>
<use xlink:href="#tick_y" transform="translate(0,511.0)"/>
<use xlink:href="#tick_y" transform="translate(0,434.8)"/>
<use xlink:href="#tick_y" transform="translate(0,358.7)"/>
<use xlink:href="#tick_y" transform="translate(0,282.5)"/>
<use xlink:href="#tick_y" transform="translate(0,206.3)"/>
<use xlink:href="#tick_y" transform="translate(0,130.2)"/>
<use xlink:href="#tick_y" transform="translate(0,54.0)"/>
<use xlink:href="#tick_x" transform="translate(158.1,0)"/>
<use xlink:href="#tick_x" transform="translate(271.6,0)"/>
<use xlink:href="#tick_x" transform="translate(385.1,0)"/>
<use xlink:href="#tick_x" transform="translate(498.6,0)"/>
<use xlink:href="#tick_x" transform="translate(612.1,0)"/>
<use xlink:href="#tick_x" transform="translate(725.6,0)"/>
<use xlink:href="#tick_x" transform="translate(839.1,0)"/>
<polyline points="145.6,53.993 145.6,587.177 907.2,587.177" stroke="#808080" stroke-width="0.90" fill="none"/>
<text class="ticklabel xtl" transform="translate(158.1,629.0)" text-anchor="middle">1960</text>
<text class="ticklabel xtl" transform="translate(271.6,629.0)" text-anchor="middle">1970</text>
<text class="ticklabel xtl" transform="translate(385.1,629.0)" text-anchor="middle">1980</text>
<text class="ticklabel xtl" transform="translate(498.6,629.0)" text-anchor="middle">1990</text>
<text class="ticklabel xtl" transform="translate(612.1,629.0)" text-anchor="middle">2000</text>
<text class="ticklabel xtl" transform="translate(725.6,629.0)" text-anchor="middle">2010</text>
<text class="ticklabel xtl" transform="translate(839.1,629.0)" text-anchor="middle">2020</text>
<text class="ticklabel ytl" transform="translate(128.8,595.3)">-100</text>
<text class="ticklabel ytl" transform="translate(128.8,519.1)">0</text>
<text class="ticklabel ytl" transform="translate(128.8,442.9)">100</text>
<text class="ticklabel ytl" transform="translate(128.8,366.8)">200</text>
<text class="ticklabel ytl" transform="translate(128.8,290.6)">300</text>
<text class="ticklabel ytl" transform="translate(128.8,214.4)">400</text>
<text class="ticklabel ytl" transform="translate(128.8,138.3)">500</text>
<text class="ticklabel ytl" transform="translate(128.8,62.1)">600 Mt</text>
<polyline class="pl" points="145.6,511.0 907.2,511.0" stroke="#000" stroke-width="0.90" stroke-opacity="1.00" fill="none" clip-path="url(#axis_clip)"/>
<polyline class="pl" points="135.4,242.7 146.7,232.8 158.1,251.5 169.4,258.4 180.8,337.0 192.1,314.7 203.5,297.8 214.8,270.5 226.2,315.0 237.5,168.8 248.9,328.8 260.2,401.1 271.6,446.1 282.9,448.0 294.3,498.1 305.6,500.2 317.0,523.0 328.3,467.2 339.7,477.3 351.0,382.4 362.4,413.1 373.7,421.4 385.1,430.6 396.4,392.5 407.8,446.7 419.1,315.9 430.5,417.8 441.8,457.8 453.2,490.9 464.5,519.3 475.9,530.5 487.2,538.3 498.6,522.1 509.9,547.9 521.3,490.5 532.6,478.8 544.0,491.5 555.3,364.3 566.7,356.2 578.0,406.3 589.4,356.8 600.7,396.3 612.1,354.0 623.4,427.2 634.8,460.6 646.1,341.2 657.5,369.4 668.8,455.3 680.2,490.9 691.5,450.8 702.9,309.0 714.2,430.4 725.6,111.5 736.9,306.3 748.3,390.2 759.6,391.0 771.0,448.4 782.3,483.5 793.7,441.9 805.0,477.1 816.4,493.1 827.7,503.6 839.1,508.5 850.4,515.7 861.8,522.7" stroke="#0072BD" stroke-width="5.40" stroke-opacity="1.00" fill="none" clip-path="url(#axis_clip)"/>
<g class="pl" fill="#FFF" stroke="#0072BD" stroke-width="0.900" clip-path="url(#axis_clip)">
  <circle cx="146.7" cy="232.8" r="2.2"/>
  <circle cx="169.4" cy="258.4" r="2.2"/>
  <circle cx="180.8" cy="337.0" r="2.2"/>
  <circle cx="192.1" cy="314.7" r="2.2"/>
  <circle cx="203.5" cy="297.8" r="2.2"/>
  <circle cx="214.8" cy="270.5" r="2.2"/>
  <circle cx="226.2" cy="315.0" r="2.2"/>
  <circle cx="237.5" cy="168.8" r="2.2"/>
  <circle cx="248.9" cy="328.8" r="2.2"/>
  <circle cx="260.2" cy="401.1" r="2.2"/>
  <circle cx="282.9" cy="448.0" r="2.2"/>
  <circle cx="294.3" cy="498.1" r="2.2"/>
  <circle cx="305.6" cy="500.2" r="2.2"/>
  <circle cx="317.0" cy="523.0" r="2.2"/>
  <circle cx="328.3" cy="467.2" r="2.2"/>
  <circle cx="339.7" cy="477.3" r="2.2"/>
  <circle cx="351.0" cy="382.4" r="2.2"/>
  <circle cx="362.4" cy="413.1" r="2.2"/>
  <circle cx="373.7" cy="421.4" r="2.2"/>
  <circle cx="396.4" cy="392.5" r="2.2"/>
  <circle cx="407.8" cy="446.7" r="2.2"/>
  <circle cx="419.1" cy="315.9" r="2.2"/>
  <circle cx="430.5" cy="417.8" r="2.2"/>
  <circle cx="441.8" cy="457.8" r="2.2"/>
  <circle cx="453.2" cy="490.9" r="2.2"/>
  <circle cx="464.5" cy="519.3" r="2.2"/>
  <circle cx="475.9" cy="530.5" r="2.2"/>
  <circle cx="487.2" cy="538.3" r="2.2"/>
  <circle cx="509.9" cy="547.9" r="2.2"/>
  <circle cx="521.3" cy="490.5" r="2.2"/>
  <circle cx="532.6" cy="478.8" r="2.2"/>
  <circle cx="544.0" cy="491.5" r="2.2"/>
  <circle cx="555.3" cy="364.3" r="2.2"/>
  <circle cx="566.7" cy="356.2" r="2.2"/>
  <circle cx="578.0" cy="406.3" r="2.2"/>
  <circle cx="589.4" cy="356.8" r="2.2"/>
  <circle cx="600.7" cy="396.3" r="2.2"/>
  <circle cx="623.4" cy="427.2" r="2.2"/>
  <circle cx="634.8" cy="460.6" r="2.2"/>
  <circle cx="646.1" cy="341.2" r="2.2"/>
  <circle cx="657.5" cy="369.4" r="2.2"/>
  <circle cx="668.8" cy="455.3" r="2.2"/>
  <circle cx="680.2" cy="490.9" r="2.2"/>
  <circle cx="691.5" cy="450.8" r="2.2"/>
  <circle cx="702.9" cy="309.0" r="2.2"/>
  <circle cx="714.2" cy="430.4" r="2.2"/>
  <circle cx="736.9" cy="306.3" r="2.2"/>
  <circle cx="748.3" cy="390.2" r="2.2"/>
  <circle cx="759.6" cy="391.0" r="2.2"/>
  <circle cx="771.0" cy="448.4" r="2.2"/>
  <circle cx="782.3" cy="483.5" r="2.2"/>
  <circle cx="793.7" cy="441.9" r="2.2"/>
  <circle cx="805.0" cy="477.1" r="2.2"/>
  <circle cx="816.4" cy="493.1" r="2.2"/>
  <circle cx="827.7" cy="503.6" r="2.2"/>
  <circle cx="850.4" cy="515.7" r="2.2"/>
  <circle cx="861.8" cy="522.7" r="2.2"/>
</g>
<g class="pl" fill="#FFF" stroke="#0072BD" stroke-width="0.900" clip-path="url(#axis_clip)">
  <circle cx="158.1" cy="251.5" r="5.4"/>
  <circle cx="271.6" cy="446.1" r="5.4"/>
  <circle cx="385.1" cy="430.6" r="5.4"/>
  <circle cx="498.6" cy="522.1" r="5.4"/>
  <circle cx="612.1" cy="354.0" r="5.4"/>
  <circle cx="725.6" cy="111.5" r="5.4"/>
  <circle cx="839.1" cy="508.5" r="5.4"/>
</g>
<polyline class="pl" points="135.4,463.7 146.7,462.2 158.1,460.1 169.4,459.6 180.8,457.6 192.1,454.7 203.5,447.7 214.8,445.6 226.2,435.1 237.5,436.8 248.9,443.1 260.2,446.4 271.6,452.8 282.9,469.5 294.3,475.5 305.6,466.9 317.0,468.8 328.3,481.4 339.7,472.5 351.0,466.3 362.4,462.2 373.7,458.3 385.1,456.2 396.4,455.3 407.8,454.7 419.1,455.2 430.5,457.3 441.8,468.6 453.2,474.9 464.5,478.9 475.9,485.0 487.2,489.4 498.6,493.5 509.9,494.2 521.3,487.7 532.6,495.4 544.0,479.9 555.3,478.6 566.7,470.0 578.0,470.2 589.4,464.8 600.7,461.4 612.1,458.0 623.4,460.5 634.8,461.1 646.1,462.3 657.5,475.6 668.8,478.6 680.2,474.1 691.5,467.6 702.9,478.9 714.2,470.9 725.6,469.9 736.9,469.3 748.3,468.8 759.6,469.0 771.0,473.8 782.3,482.0 793.7,489.0 805.0,495.8 816.4,500.4 827.7,506.0 839.1,506.1 850.4,505.4 861.8,506.6" stroke="#D95319" stroke-width="5.40" stroke-opacity="1.00" fill="none" clip-path="url(#axis_clip)"/>
<g class="pl" fill="#FFF" stroke="#D95319" stroke-width="0.900" clip-path="url(#axis_clip)">
  <circle cx="146.7" cy="462.2" r="2.2"/>
  <circle cx="169.4" cy="459.6" r="2.2"/>
  <circle cx="180.8" cy="457.6" r="2.2"/>
  <circle cx="192.1" cy="454.7" r="2.2"/>
  <circle cx="203.5" cy="447.7" r="2.2"/>
  <circle cx="214.8" cy="445.6" r="2.2"/>
  <circle cx="226.2" cy="435.1" r="2.2"/>
  <circle cx="237.5" cy="436.8" r="2.2"/>
  <circle cx="248.9" cy="443.1" r="2.2"/>
  <circle cx="260.2" cy="446.4" r="2.2"/>
  <circle cx="282.9" cy="469.5" r="2.2"/>
  <circle cx="294.3" cy="475.5" r="2.2"/>
  <circle cx="305.6" cy="466.9" r="2.2"/>
  <circle cx="317.0" cy="468.8" r="2.2"/>
  <circle cx="328.3" cy="481.4" r="2.2"/>
  <circle cx="339.7" cy="472.5" r="2.2"/>
  <circle cx="351.0" cy="466.3" r="2.2"/>
  <circle cx="362.4" cy="462.2" r="2.2"/>
  <circle cx="373.7" cy="458.3" r="2.2"/>
  <circle cx="396.4" cy="455.3" r="2.2"/>
  <circle cx="407.8" cy="454.7" r="2.2"/>
  <circle cx="419.1" cy="455.2" r="2.2"/>
  <circle cx="430.5" cy="457.3" r="2.2"/>
  <circle cx="441.8" cy="468.6" r="2.2"/>
  <circle cx="453.2" cy="474.9" r="2.2"/>
  <circle cx="464.5" cy="478.9" r="2.2"/>
  <circle cx="475.9" cy="485.0" r="2.2"/>
  <circle cx="487.2" cy="489.4" r="2.2"/>
  <circle cx="509.9" cy="494.2" r="2.2"/>
  <circle cx="521.3" cy="487.7" r="2.2"/>
  <circle cx="532.6" cy="495.4" r="2.2"/>
  <circle cx="544.0" cy="479.9" r="2.2"/>
  <circle cx="555.3" cy="478.6" r="2.2"/>
  <circle cx="566.7" cy="470.0" r="2.2"/>
  <circle cx="578.0" cy="470.2" r="2.2"/>
  <circle cx="589.4" cy="464.8" r="2.2"/>
  <circle cx="600.7" cy="461.4" r="2.2"/>
  <circle cx="623.4" cy="460.5" r="2.2"/>
  <circle cx="634.8" cy="461.1" r="2.2"/>
  <circle cx="646.1" cy="462.3" r="2.2"/>
  <circle cx="657.5" cy="475.6" r="2.2"/>
  <circle cx="668.8" cy="478.6" r="2.2"/>
  <circle cx="680.2" cy="474.1" r="2.2"/>
  <circle cx="691.5" cy="467.6" r="2.2"/>
  <circle cx="702.9" cy="478.9" r="2.2"/>
  <circle cx="714.2" cy="470.9" r="2.2"/>
  <circle cx="736.9" cy="469.3" r="2.2"/>
  <circle cx="748.3" cy="468.8" r="2.2"/>
  <circle cx="759.6" cy="469.0" r="2.2"/>
  <circle cx="771.0" cy="473.8" r="2.2"/>
  <circle cx="782.3" cy="482.0" r="2.2"/>
  <circle cx="793.7" cy="489.0" r="2.2"/>
  <circle cx="805.0" cy="495.8" r="2.2"/>
  <circle cx="816.4" cy="500.4" r="2.2"/>
  <circle cx="827.7" cy="506.0" r="2.2"/>
  <circle cx="850.4" cy="505.4" r="2.2"/>
  <circle cx="861.8" cy="506.6" r="2.2"/>
</g>
<g class="pl" fill="#FFF" stroke="#D95319" stroke-width="0.900" clip-path="url(#axis_clip)">
  <circle cx="158.1" cy="460.1" r="5.4"/>
  <circle cx="271.6" cy="452.8" r="5.4"/>
  <circle cx="385.1" cy="456.2" r="5.4"/>
  <circle cx="498.6" cy="493.5" r="5.4"/>
  <circle cx="612.1" cy="458.0" r="5.4"/>
  <circle cx="725.6" cy="469.9" r="5.4"/>
  <circle cx="839.1" cy="506.1" r="5.4"/>
</g>
<polyline class="pl" points="135.4,438.7 146.7,441.8 158.1,450.3 169.4,460.6 180.8,456.8 192.1,453.3 203.5,450.7 214.8,452.8 226.2,449.8 237.5,423.5 248.9,428.3 260.2,449.6 271.6,445.8 282.9,441.8 294.3,446.7 305.6,431.7 317.0,427.9 328.3,430.2 339.7,430.9 351.0,428.1 362.4,429.0 373.7,433.7 385.1,435.5 396.4,435.1 407.8,441.6 419.1,439.0 430.5,439.3 441.8,444.7 453.2,445.4 464.5,442.6 475.9,445.2 487.2,449.4 498.6,452.8 509.9,445.1 521.3,449.3 532.6,451.9 544.0,451.4 555.3,445.9 566.7,458.4 578.0,461.2 589.4,462.0 600.7,463.6 612.1,445.1 623.4,456.3 634.8,474.3 646.1,464.0 657.5,450.8 668.8,458.6 680.2,464.5 691.5,469.7 702.9,468.8 714.2,472.8 725.6,447.4 736.9,467.7 748.3,499.1 759.6,509.1 771.0,509.2 782.3,514.3 793.7,482.3 805.0,490.5 816.4,519.5 827.7,529.0 839.1,518.4 850.4,518.2 861.8,521.2" stroke="#EDB120" stroke-width="5.40" stroke-opacity="1.00" fill="none" clip-path="url(#axis_clip)"/>
<g class="pl" fill="#FFF" stroke="#EDB120" stroke-width="0.900" clip-path="url(#axis_clip)">
  <circle cx="146.7" cy="441.8" r="2.2"/>
  <circle cx="169.4" cy="460.6" r="2.2"/>
  <circle cx="180.8" cy="456.8" r="2.2"/>
  <circle cx="192.1" cy="453.3" r="2.2"/>
  <circle cx="203.5" cy="450.7" r="2.2"/>
  <circle cx="214.8" cy="452.8" r="2.2"/>
  <circle cx="226.2" cy="449.8" r="2.2"/>
  <circle cx="237.5" cy="423.5" r="2.2"/>
  <circle cx="248.9" cy="428.3" r="2.2"/>
  <circle cx="260.2" cy="449.6" r="2.2"/>
  <circle cx="282.9" cy="441.8" r="2.2"/>
  <circle cx="294.3" cy="446.7" r="2.2"/>
  <circle cx="305.6" cy="431.7" r="2.2"/>
  <circle cx="317.0" cy="427.9" r="2.2"/>
  <circle cx="328.3" cy="430.2" r="2.2"/>
  <circle cx="339.7" cy="430.9" r="2.2"/>
  <circle cx="351.0" cy="428.1" r="2.2"/>
  <circle cx="362.4" cy="429.0" r="2.2"/>
  <circle cx="373.7" cy="433.7" r="2.2"/>
  <circle cx="396.4" cy="435.1" r="2.2"/>
  <circle cx="407.8" cy="441.6" r="2.2"/>
  <circle cx="419.1" cy="439.0" r="2.2"/>
  <circle cx="430.5" cy="439.3" r="2.2"/>
  <circle cx="441.8" cy="444.7" r="2.2"/>
  <circle cx="453.2" cy="445.4" r="2.2"/>
  <circle cx="464.5" cy="442.6" r="2.2"/>
  <circle cx="475.9" cy="445.2" r="2.2"/>
  <circle cx="487.2" cy="449.4" r="2.2"/>
  <circle cx="509.9" cy="445.1" r="2.2"/>
  <circle cx="521.3" cy="449.3" r="2.2"/>
  <circle cx="532.6" cy="451.9" r="2.2"/>
  <circle cx="544.0" cy="451.4" r="2.2"/>
  <circle cx="555.3" cy="445.9" r="2.2"/>
  <circle cx="566.7" cy="458.4" r="2.2"/>
  <circle cx="578.0" cy="461.2" r="2.2"/>
  <circle cx="589.4" cy="462.0" r="2.2"/>
  <circle cx="600.7" cy="463.6" r="2.2"/>
  <circle cx="623.4" cy="456.3" r="2.2"/>
  <circle cx="634.8" cy="474.3" r="2.2"/>
  <circle cx="646.1" cy="464.0" r="2.2"/>
  <circle cx="657.5" cy="450.8" r="2.2"/>
  <circle cx="668.8" cy="458.6" r="2.2"/>
  <circle cx="680.2" cy="464.5" r="2.2"/>
  <circle cx="691.5" cy="469.7" r="2.2"/>
  <circle cx="702.9" cy="468.8" r="2.2"/>
  <circle cx="714.2" cy="472.8" r="2.2"/>
  <circle cx="736.9" cy="467.7" r="2.2"/>
  <circle cx="748.3" cy="499.1" r="2.2"/>
  <circle cx="759.6" cy="509.1" r="2.2"/>
  <circle cx="771.0" cy="509.2" r="2.2"/>
  <circle cx="782.3" cy="514.3" r="2.2"/>
  <circle cx="793.7" cy="482.3" r="2.2"/>
  <circle cx="805.0" cy="490.5" r="2.2"/>
  <circle cx="816.4" cy="519.5" r="2.2"/>
  <circle cx="827.7" cy="529.0" r="2.2"/>
  <circle cx="850.4" cy="518.2" r="2.2"/>
  <circle cx="861.8" cy="521.2" r="2.2"/>
</g>
<g class="pl" fill="#FFF" stroke="#EDB120" stroke-width="0.900" clip-path="url(#axis_clip)">
  <circle cx="158.1" cy="450.3" r="5.4"/>
  <circle cx="271.6" cy="445.8" r="5.4"/>
  <circle cx="385.1" cy="435.5" r="5.4"/>
  <circle cx="498.6" cy="452.8" r="5.4"/>
  <circle cx="612.1" cy="445.1" r="5.4"/>
  <circle cx="725.6" cy="447.4" r="5.4"/>
  <circle cx="839.1" cy="518.4" r="5.4"/>
</g>
<polyline class="pl" points="135.4,381.7 146.7,378.9 158.1,387.3 169.4,392.9 180.8,417.1 192.1,407.5 203.5,398.8 214.8,389.6 226.2,400.0 237.5,343.0 248.9,400.1 260.2,432.4 271.6,448.2 282.9,453.1 294.3,473.4 305.6,466.3 317.0,473.3 328.3,459.6 339.7,460.3 351.0,425.6 362.4,434.8 373.7,437.8 385.1,440.8 396.4,427.6 407.8,447.7 419.1,403.4 430.5,438.1 441.8,457.0 453.2,470.4 464.5,480.2 475.9,486.9 487.2,492.4 498.6,489.5 509.9,495.8 521.3,475.8 532.6,475.4 544.0,474.3 555.3,429.6 566.7,428.2 578.0,445.9 589.4,427.9 600.7,440.4 612.1,419.0 623.4,448.0 634.8,465.4 646.1,422.5 657.5,432.0 668.8,464.2 680.2,476.5 691.5,462.7 702.9,418.9 714.2,458.0 725.6,342.9 736.9,414.5 748.3,452.7 759.6,456.4 771.0,477.1 782.3,493.2 793.7,471.1 805.0,487.8 816.4,504.3 827.7,512.9 839.1,511.0 850.4,513.1 861.8,516.8" stroke="#000" stroke-width="5.40" stroke-opacity="1.00" fill="none" clip-path="url(#axis_clip)"/>
<g class="pl" fill="#FFF" stroke="#000" stroke-width="0.900" clip-path="url(#axis_clip)">
  <circle cx="146.7" cy="378.9" r="2.2"/>
  <circle cx="169.4" cy="392.9" r="2.2"/>
  <circle cx="180.8" cy="417.1" r="2.2"/>
  <circle cx="192.1" cy="407.5" r="2.2"/>
  <circle cx="203.5" cy="398.8" r="2.2"/>
  <circle cx="214.8" cy="389.6" r="2.2"/>
  <circle cx="226.2" cy="400.0" r="2.2"/>
  <circle cx="237.5" cy="343.0" r="2.2"/>
  <circle cx="248.9" cy="400.1" r="2.2"/>
  <circle cx="260.2" cy="432.4" r="2.2"/>
  <circle cx="282.9" cy="453.1" r="2.2"/>
  <circle cx="294.3" cy="473.4" r="2.2"/>
  <circle cx="305.6" cy="466.3" r="2.2"/>
  <circle cx="317.0" cy="473.3" r="2.2"/>
  <circle cx="328.3" cy="459.6" r="2.2"/>
  <circle cx="339.7" cy="460.3" r="2.2"/>
  <circle cx="351.0" cy="425.6" r="2.2"/>
  <circle cx="362.4" cy="434.8" r="2.2"/>
  <circle cx="373.7" cy="437.8" r="2.2"/>
  <circle cx="396.4" cy="427.6" r="2.2"/>
  <circle cx="407.8" cy="447.7" r="2.2"/>
  <circle cx="419.1" cy="403.4" r="2.2"/>
  <circle cx="430.5" cy="438.1" r="2.2"/>
  <circle cx="441.8" cy="457.0" r="2.2"/>
  <circle cx="453.2" cy="470.4" r="2.2"/>
  <circle cx="464.5" cy="480.2" r="2.2"/>
  <circle cx="475.9" cy="486.9" r="2.2"/>
  <circle cx="487.2" cy="492.4" r="2.2"/>
  <circle cx="509.9" cy="495.8" r="2.2"/>
  <circle cx="521.3" cy="475.8" r="2.2"/>
  <circle cx="532.6" cy="475.4" r="2.2"/>
  <circle cx="544.0" cy="474.3" r="2.2"/>
  <circle cx="555.3" cy="429.6" r="2.2"/>
  <circle cx="566.7" cy="428.2" r="2.2"/>
  <circle cx="578.0" cy="445.9" r="2.2"/>
  <circle cx="589.4" cy="427.9" r="2.2"/>
  <circle cx="600.7" cy="440.4" r="2.2"/>
  <circle cx="623.4" cy="448.0" r="2.2"/>
  <circle cx="634.8" cy="465.4" r="2.2"/>
  <circle cx="646.1" cy="422.5" r="2.2"/>
  <circle cx="657.5" cy="432.0" r="2.2"/>
  <circle cx="668.8" cy="464.2" r="2.2"/>
  <circle cx="680.2" cy="476.5" r="2.2"/>
  <circle cx="691.5" cy="462.7" r="2.2"/>
  <circle cx="702.9" cy="418.9" r="2.2"/>
  <circle cx="714.2" cy="458.0" r="2.2"/>
  <circle cx="736.9" cy="414.5" r="2.2"/>
  <circle cx="748.3" cy="452.7" r="2.2"/>
  <circle cx="759.6" cy="456.4" r="2.2"/>
  <circle cx="771.0" cy="477.1" r="2.2"/>
  <circle cx="782.3" cy="493.2" r="2.2"/>
  <circle cx="793.7" cy="471.1" r="2.2"/>
  <circle cx="805.0" cy="487.8" r="2.2"/>
  <circle cx="816.4" cy="504.3" r="2.2"/>
  <circle cx="827.7" cy="512.9" r="2.2"/>
  <circle cx="850.4" cy="513.1" r="2.2"/>
  <circle cx="861.8" cy="516.8" r="2.2"/>
</g>
<g class="pl" fill="#FFF" stroke="#000" stroke-width="0.900" clip-path="url(#axis_clip)">
  <circle cx="158.1" cy="387.3" r="5.4"/>
  <circle cx="271.6" cy="448.2" r="5.4"/>
  <circle cx="385.1" cy="440.8" r="5.4"/>
  <circle cx="498.6" cy="489.5" r="5.4"/>
  <circle cx="612.1" cy="419.0" r="5.4"/>
  <circle cx="725.6" cy="342.9" r="5.4"/>
  <circle cx="839.1" cy="511.0" r="5.4"/>
</g>
<text transform="translate(945.6,555.7)" dy="8.1" font-size="27.00" fill="#0072BD" stroke="none">BLUE</text>
<text transform="translate(945.6,477.9)" dy="8.1" font-size="27.00" fill="#D95319" stroke="none">H&amp;C2023</text>
<text transform="translate(945.6,529.8)" dy="8.1" font-size="27.00" fill="#EDB120" stroke="none">OSCAR</text>
<text transform="translate(945.6,503.9)" dy="8.1" font-size="27.00" fill="#000" stroke="none">Mean</text>
<polyline class="pl" points="910.8,522.7 912.4,522.9 913.8,523.2 915.2,523.7 916.4,524.4 917.6,525.3 918.8,526.4 919.8,527.6 920.8,528.9 921.7,530.3 922.7,531.8 923.5,533.4 924.4,535.0 925.2,536.7 926.0,538.4 926.8,540.1 927.6,541.8 928.4,543.5 929.3,545.1 930.1,546.7 931.1,548.2 932.0,549.6 933.0,550.9 934.0,552.1 935.2,553.1 936.4,554.0 937.6,554.7 939.0,555.3 940.4,555.6 942.0,555.7" stroke="#0072BD" stroke-width="0.90" stroke-opacity="1.00" fill="none" />
<polyline class="pl" points="910.8,506.6 912.4,506.5 913.8,506.2 915.2,505.7 916.4,505.1 917.6,504.3 918.8,503.4 919.8,502.4 920.8,501.2 921.7,500.0 922.7,498.7 923.5,497.3 924.4,495.9 925.2,494.5 926.0,493.0 926.8,491.5 927.6,490.0 928.4,488.6 929.3,487.2 930.1,485.8 931.1,484.5 932.0,483.3 933.0,482.1 934.0,481.1 935.2,480.2 936.4,479.4 937.6,478.8 939.0,478.3 940.4,478.0 942.0,477.9" stroke="#D95319" stroke-width="0.90" stroke-opacity="1.00" fill="none" />
<polyline class="pl" points="910.8,521.2 912.4,521.2 913.8,521.3 915.2,521.4 916.4,521.6 917.6,521.9 918.8,522.1 919.8,522.4 920.8,522.8 921.7,523.2 922.7,523.5 923.5,524.0 924.4,524.4 925.2,524.8 926.0,525.3 926.8,525.7 927.6,526.2 928.4,526.6 929.3,527.0 930.1,527.4 931.1,527.8 932.0,528.2 933.0,528.5 934.0,528.8 935.2,529.1 936.4,529.4 937.6,529.5 939.0,529.7 940.4,529.8 942.0,529.8" stroke="#EDB120" stroke-width="0.90" stroke-opacity="1.00" fill="none" />
<polyline class="pl" points="910.8,516.8 912.4,516.8 913.8,516.7 915.2,516.4 916.4,516.2 917.6,515.8 918.8,515.4 919.8,514.9 920.8,514.4 921.7,513.9 922.7,513.3 923.5,512.6 924.4,512.0 925.2,511.3 926.0,510.7 926.8,510.0 927.6,509.3 928.4,508.7 929.3,508.0 930.1,507.4 931.1,506.8 932.0,506.3 933.0,505.8 934.0,505.3 935.2,504.9 936.4,504.5 937.6,504.2 939.0,504.0 940.4,503.9 942.0,503.9" stroke="#000" stroke-width="0.90" stroke-opacity="1.00" fill="none" />
<text transform="translate(145.6,47.2)" dy="0.0" font-size="27.00" fill="#808080" stroke="none">Annual CO<tspan dy="0.2em"><tspan style="font-size:70%">2</tspan></tspan><tspan dy="-0.2em"> </tspan>fluxes from land-use change: Australia</text>
<text transform="translate(130.0,81.7)" dy="8.1" font-size="27.00" fill="#808080" stroke="none" text-anchor="end">CO<tspan dy="0.2em"><tspan style="font-size:70%">2</tspan></tspan><tspan dy="-0.2em"></tspan></text>
<text transform="translate(160.2,666.1)" font-size="19.80" font-family="Helvetica" fill="#BFBFBF" stroke="none" xml:space="preserve">Global Carbon Project</text>
<g>
  <rect x="123.0" y="651.4" width="34" height="17" fill="#FFF" stroke="none"/>
  <g transform="translate(124.0,652.4) scale(0.24)">
  <g><circle fill="#FFF" cx="37.79" cy="28.5" r="28.84"/>
     <circle fill="none" cx="37.79" cy="28.5" r="28.84" stroke="#BFBFBF" stroke-width="5.5"/>
     <path fill="#BFBFBF" d="M37.16,23.19 l-4.29,2.23c-0.458-0.951-1.02-1.62-1.69-2c-0.667-0.38-1.29-0.571-1.86-0.571c-2.86,0-4.29,1.89-4.29,5.66 c0,1.71,0.36,3.08,1.09,4.11c0.724,1.03,1.79,1.54,3.2,1.54c1.87,0,3.18-0.915,3.94-2.74l3.94,2 c-0.838,1.56-2,2.79-3.49,3.69c-1.48,0.896-3.12,1.34-4.91,1.34c-2.86,0-5.16-0.875-6.92-2.63 c-1.75-1.75-2.63-4.19-2.63-7.31c0-3.05,0.886-5.47,2.66-7.26c1.77-1.79,4.01-2.69,6.72-2.69 C32.6,18.56,35.44,20.1,37.16,23.19z
              M55.61,23.19l-4.23,2.23c-0.457-0.951-1.02-1.62-1.69-2 c-0.668-0.38-1.31-0.571-1.91-0.571c-2.86,0-4.29,1.89-4.29,5.66c0,1.71,0.363,3.08,1.09,4.11 c0.723,1.03,1.79,1.54,3.2,1.54c1.87,0,3.18-0.915,3.94-2.74l4,2c-0.875,1.56-2.06,2.79-3.54,3.69 c-1.49,0.9-3.11,1.34-4.86,1.34c-2.9,0-5.21-0.875-6.94-2.63c-1.74-1.75-2.6-4.19-2.6-7.31 c0-3.05,0.885-5.47,2.66-7.26c1.77-1.79,4.01-2.69,6.71-2.69C51.12,18.56,53.944,20.1,55.61,23.19z"/>
  </g></g>
  <g transform="translate(140.2,652.4) scale(0.24)">
  <g><circle fill="#FFF" cx="37.79" cy="28.5" r="28.84"/>
     <circle fill="none" cx="37.79" cy="28.5" r="28.84" stroke="#BFBFBF" stroke-width="5.5"/>
     <path fill="#BFBFBF" d="M46.129,20.557v13.085h-3.656v15.542h-9.944V33.643h-3.656V20.557 c0-0.572,0.2-1.057,0.599-1.457c0.401-0.399,0.887-0.6,1.457-0.6h13.144c0.533,0,1.01,0.2,1.428,0.6 C45.918,19.5,46.129,19.986,46.129,20.557z
              M33.042,12.329c0-3.008,1.485-4.514,4.458-4.514s4.457,1.504,4.457,4.514 c0,2.971-1.486,4.457-4.457,4.457S33.042,15.3,33.042,12.329z"/>
  </g></g>
</g>
</g>
</svg>
