<svg version="1.1" xmlns="http://www.w3.org/2000/svg" xmlns:xlink="http://www.w3.org/1999/xlink" width="100%" height="100%" viewBox="0 0 1200.000 674.916">
<title>Annual CO2 fluxes from land-use change: Denmark</title>
<style type="text/css">
  #main {font-family:Helvetica,Arial,sans-serif; font-size:27.00px;
         fill-opacity:1; fill:#000000; stroke:none; stroke-linejoin:round; stroke-linecap:round; stroke-width:1.00;}
  .marker {stroke-opacity:0;fill-opacity:0;}
  .marker:hover {stroke-opacity:0.5; fill-opacity:1;}
  .ticklabel {font-size:27.00px;fill:#808080;stroke:none;font-family:Helvetica}
  .ytl {text-anchor:end;}
  .dp1 {pointer-events:none;font-size:70%;text-anchor:middle;fill:#000000;}
  .dp2 {pointer-events:none;font-size:70%;text-anchor:middle;fill:#FFFFFF;}
  .numtip {pointer-events:none;}
  .cc {opacity:0.25;}
.dl_fe {background-color:#FDFFDF;display:flex;margin:auto;align-items:center}
.dl_fe_p {font-size:20px;text-align:center;margin:3px}
.dl_el {display:none;pointer-events:none;}
.cc:hover + .dl_el {display:block;}
text:hover + .dl_el {display:block;}
</style>
<defs>
  <clipPath id="axis_clip"><rect x="145.8" y="54.2" width="761.2" height="532.8" /></clipPath>
  <path id="line_x" d="M 145.600,0 h 761.600" stroke="#262626" stroke-opacity="0.15" stroke-width="1.00"/>
  <path id="tick_y" d="M 145.600,0 h -6.000" stroke="#808080" stroke-width="0.90"/>
  <path id="tick_x" d="M 0,587.177 v 6.000" stroke="#808080" stroke-width="0.90"/>
</defs>
<g id="main">
<use xlink:href="#line_x" transform="translate(0,587.2)"/>
<use xlink:href="#line_x" transform="translate(0,520.5)"/>
<use xlink:href="#line_x" transform="translate(0,453.9)"/>
<use xlink:href="#line_x" transform="translate(0,387.2)"/>
<use xlink:href="#line_x" transform="translate(0,320.6)"/>
<use xlink:href="#line_x" transform="translate(0,253.9)"/>
<use xlink:href="#line_x" transform="translate(0,187.3)"/>
<use xlink:href="#line_x" transform="translate(0,120.6)"/>
<use xlink:href="#line_x" transform="translate(0,54.0)"/>
<use xlink:href="#tick_y" transform="translate(0,587.2)"/>
<use xlink:href="#tick_y" transform="translate(0,520.5)"/>
<use xlink:href="#tick_y" transform="translate(0,453.9)"/>
<use xlink:href="#tick_y" transform="translate(0,387.2)"/>
<use xlink:href="#tick_y" transform="translate(0,320.6)"/>
<use xlink:href="#tick_y" transform="translate(0,253.9)"/>
<use xlink:href="#tick_y" transform="translate(0,187.3)"/>
<use xlink:href="#tick_y" transform="translate(0,120.6)"/>
<use xlink:href="#tick_y" transform="translate(0,54.0)"/>
<use xlink:href="#tick_x" transform="translate(158.1,0)"/>
<use xlink:href="#tick_x" transform="translate(271.6,0)"/>
<use xlink:href="#tick_x" transform="translate(385.1,0)"/>
<use xlink:href="#tick_x" transform="translate(498.6,0)"/>
<use xlink:href="#tick_x" transform="translate(612.1,0)"/>
<use xlink:href="#tick_x" transform="translate(725.6,0)"/>
<use xlink:href="#tick_x" transform="translate(839.1,0)"/>
<polyline points="145.6,53.993 145.6,587.177 907.2,587.177" stroke="#808080" stroke-width="0.90" fill="none"/>
<text class="ticklabel xtl" transform="translate(158.1,629.0)" text-anchor="middle">1960</text>
<text class="ticklabel xtl" transform="translate(271.6,629.0)" text-anchor="middle">1970</text>
<text class="ticklabel xtl" transform="translate(385.1,629.0)" text-anchor="middle">1980</text>
<text class="ticklabel xtl" transform="translate(498.6,629.0)" text-anchor="middle">1990</text>
<text class="ticklabel xtl" transform="translate(612.1,629.0)" text-anchor="middle">2000</text>
<text class="ticklabel xtl" transform="translate(725.6,629.0)" text-anchor="middle">2010</text>
<text class="ticklabel xtl" transform="translate(839.1,629.0)" text-anchor="middle">2020</text>
<text class="ticklabel ytl" transform="translate(128.8,595.3)">-4</text>
<text class="ticklabel ytl" transform="translate(128.8,528.6)">-2</text>
<text class="ticklabel ytl" transform="translate(128.8,462.0)">0</text>
<text class="ticklabel ytl" transform="translate(128.8,395.3)">2</text>
<text class="ticklabel ytl" transform="translate(128.8,328.7)">4</text>
<text class="ticklabel ytl" transform="translate(128.8,262.0)">6</text>
<text class="ticklabel ytl" transform="translate(128.8,195.4)">8</text>
<text class="ticklabel ytl" transform="translate(128.8,128.7)">10</text>
<text class="ticklabel ytl" transform="translate(128.8,62.1)">12 Mt</text>
<polyline class="pl" points="145.6,453.9 907.2,453.9" stroke="#000" stroke-width="0.90" stroke-opacity="1.00" fill="none" clip-path="url(#axis_clip)"/>
<polyline class="pl" points="135.4,212.0 146.7,183.4 158.1,116.7 169.4,232.5 180.8,296.4 192.1,320.0 203.5,341.9 214.8,357.9 226.2,363.4 237.5,359.1 248.9,381.0 260.2,389.5 271.6,408.6 282.9,379.1 294.3,308.0 305.6,392.9 317.0,383.4 328.3,389.6 339.7,402.5 351.0,410.8 362.4,412.4 373.7,428.6 385.1,435.7 396.4,441.0 407.8,454.4 419.1,414.7 430.5,449.8 441.8,467.1 453.2,475.5 464.5,493.0 475.9,495.7 487.2,433.1 498.6,478.8 509.9,490.8 521.3,454.8 532.6,578.5 544.0,500.6 555.3,531.1 566.7,520.4 578.0,519.0 589.4,575.1 600.7,559.6 612.1,462.3 623.4,526.2 634.8,535.3 646.1,524.9 657.5,339.1 668.8,388.4 680.2,457.0 691.5,368.6 702.9,399.1 714.2,407.8 725.6,204.8 736.9,399.6 748.3,361.4 759.6,304.7 771.0,404.8 782.3,394.9 793.7,387.7 805.0,414.0 816.4,418.6 827.7,423.2 839.1,427.0 850.4,430.0 861.8,432.2" stroke="#0072BD" stroke-width="5.40" stroke-opacity="1.00" fill="none" clip-path="url(#axis_clip)"/>
<g class="pl" fill="#FFF" stroke="#0072BD" stroke-width="0.900" clip-path="url(#axis_clip)">
  <circle cx="146.7" cy="183.4" r="2.2"/>
  <circle cx="169.4" cy="232.5" r="2.2"/>
  <circle cx="180.8" cy="296.4" r="2.2"/>
  <circle cx="192.1" cy="320.0" r="2.2"/>
  <circle cx="203.5" cy="341.9" r="2.2"/>
  <circle cx="214.8" cy="357.9" r="2.2"/>
  <circle cx="226.2" cy="363.4" r="2.2"/>
  <circle cx="237.5" cy="359.1" r="2.2"/>
  <circle cx="248.9" cy="381.0" r="2.2"/>
  <circle cx="260.2" cy="389.5" r="2.2"/>
  <circle cx="282.9" cy="379.1" r="2.2"/>
  <circle cx="294.3" cy="308.0" r="2.2"/>
  <circle cx="305.6" cy="392.9" r="2.2"/>
  <circle cx="317.0" cy="383.4" r="2.2"/>
  <circle cx="328.3" cy="389.6" r="2.2"/>
  <circle cx="339.7" cy="402.5" r="2.2"/>
  <circle cx="351.0" cy="410.8" r="2.2"/>
  <circle cx="362.4" cy="412.4" r="2.2"/>
  <circle cx="373.7" cy="428.6" r="2.2"/>
  <circle cx="396.4" cy="441.0" r="2.2"/>
  <circle cx="407.8" cy="454.4" r="2.2"/>
  <circle cx="419.1" cy="414.7" r="2.2"/>
  <circle cx="430.5" cy="449.8" r="2.2"/>
  <circle cx="441.8" cy="467.1" r="2.2"/>
  <circle cx="453.2" cy="475.5" r="2.2"/>
  <circle cx="464.5" cy="493.0" r="2.2"/>
  <circle cx="475.9" cy="495.7" r="2.2"/>
  <circle cx="487.2" cy="433.1" r="2.2"/>
  <circle cx="509.9" cy="490.8" r="2.2"/>
  <circle cx="521.3" cy="454.8" r="2.2"/>
  <circle cx="532.6" cy="578.5" r="2.2"/>
  <circle cx="544.0" cy="500.6" r="2.2"/>
  <circle cx="555.3" cy="531.1" r="2.2"/>
  <circle cx="566.7" cy="520.4" r="2.2"/>
  <circle cx="578.0" cy="519.0" r="2.2"/>
  <circle cx="589.4" cy="575.1" r="2.2"/>
  <circle cx="600.7" cy="559.6" r="2.2"/>
  <circle cx="623.4" cy="526.2" r="2.2"/>
  <circle cx="634.8" cy="535.3" r="2.2"/>
  <circle cx="646.1" cy="524.9" r="2.2"/>
  <circle cx="657.5" cy="339.1" r="2.2"/>
  <circle cx="668.8" cy="388.4" r="2.2"/>
  <circle cx="680.2" cy="457.0" r="2.2"/>
  <circle cx="691.5" cy="368.6" r="2.2"/>
  <circle cx="702.9" cy="399.1" r="2.2"/>
  <circle cx="714.2" cy="407.8" r="2.2"/>
  <circle cx="736.9" cy="399.6" r="2.2"/>
  <circle cx="748.3" cy="361.4" r="2.2"/>
  <circle cx="759.6" cy="304.7" r="2.2"/>
  <circle cx="771.0" cy="404.8" r="2.2"/>
  <circle cx="782.3" cy="394.9" r="2.2"/>
  <circle cx="793.7" cy="387.7" r="2.2"/>
  <circle cx="805.0" cy="414.0" r="2.2"/>
  <circle cx="816.4" cy="418.6" r="2.2"/>
  <circle cx="827.7" cy="423.2" r="2.2"/>
  <circle cx="850.4" cy="430.0" r="2.2"/>
  <circle cx="861.8" cy="432.2" r="2.2"/>
</g>
<g class="pl" fill="#FFF" stroke="#0072BD" stroke-width="0.900" clip-path="url(#axis_clip)">
  <circle cx="158.1" cy="116.7" r="5.4"/>
  <circle cx="271.6" cy="408.6" r="5.4"/>
  <circle cx="385.1" cy="435.7" r="5.4"/>
  <circle cx="498.6" cy="478.8" r="5.4"/>
  <circle cx="612.1" cy="462.3" r="5.4"/>
  <circle cx="725.6" cy="204.8" r="5.4"/>
  <circle cx="839.1" cy="427.0" r="5.4"/>
</g>
<polyline class="pl" points="135.4,488.9 146.7,461.6 158.1,490.7 169.4,494.1 180.8,506.9 192.1,511.5 203.5,507.6 214.8,522.9 226.2,530.5 237.5,531.2 248.9,533.2 260.2,526.0 271.6,529.7 282.9,523.6 294.3,529.9 305.6,525.0 317.0,522.8 328.3,516.9 339.7,509.1 351.0,514.9 362.4,520.1 373.7,521.7 385.1,523.9 396.4,522.0 407.8,516.8 419.1,518.0 430.5,520.0 441.8,527.8 453.2,525.5 464.5,535.2 475.9,532.6 487.2,527.1 498.6,536.3 509.9,537.6 521.3,536.8 532.6,543.3 544.0,545.1 555.3,545.9 566.7,549.5 578.0,548.1 589.4,559.8 600.7,561.1 612.1,555.8 623.4,552.1 634.8,551.8 646.1,519.1 657.5,503.4 668.8,501.5 680.2,466.8 691.5,457.9 702.9,424.0 714.2,404.4 725.6,389.2 736.9,398.0 748.3,394.7 759.6,413.3 771.0,421.3 782.3,446.3 793.7,451.5 805.0,462.7 816.4,448.6 827.7,440.5 839.1,433.6 850.4,433.6 861.8,433.6" stroke="#D95319" stroke-width="5.40" stroke-opacity="1.00" fill="none" clip-path="url(#axis_clip)"/>
<g class="pl" fill="#FFF" stroke="#D95319" stroke-width="0.900" clip-path="url(#axis_clip)">
  <circle cx="146.7" cy="461.6" r="2.2"/>
  <circle cx="169.4" cy="494.1" r="2.2"/>
  <circle cx="180.8" cy="506.9" r="2.2"/>
  <circle cx="192.1" cy="511.5" r="2.2"/>
  <circle cx="203.5" cy="507.6" r="2.2"/>
  <circle cx="214.8" cy="522.9" r="2.2"/>
  <circle cx="226.2" cy="530.5" r="2.2"/>
  <circle cx="237.5" cy="531.2" r="2.2"/>
  <circle cx="248.9" cy="533.2" r="2.2"/>
  <circle cx="260.2" cy="526.0" r="2.2"/>
  <circle cx="282.9" cy="523.6" r="2.2"/>
  <circle cx="294.3" cy="529.9" r="2.2"/>
  <circle cx="305.6" cy="525.0" r="2.2"/>
  <circle cx="317.0" cy="522.8" r="2.2"/>
  <circle cx="328.3" cy="516.9" r="2.2"/>
  <circle cx="339.7" cy="509.1" r="2.2"/>
  <circle cx="351.0" cy="514.9" r="2.2"/>
  <circle cx="362.4" cy="520.1" r="2.2"/>
  <circle cx="373.7" cy="521.7" r="2.2"/>
  <circle cx="396.4" cy="522.0" r="2.2"/>
  <circle cx="407.8" cy="516.8" r="2.2"/>
  <circle cx="419.1" cy="518.0" r="2.2"/>
  <circle cx="430.5" cy="520.0" r="2.2"/>
  <circle cx="441.8" cy="527.8" r="2.2"/>
  <circle cx="453.2" cy="525.5" r="2.2"/>
  <circle cx="464.5" cy="535.2" r="2.2"/>
  <circle cx="475.9" cy="532.6" r="2.2"/>
  <circle cx="487.2" cy="527.1" r="2.2"/>
  <circle cx="509.9" cy="537.6" r="2.2"/>
  <circle cx="521.3" cy="536.8" r="2.2"/>
  <circle cx="532.6" cy="543.3" r="2.2"/>
  <circle cx="544.0" cy="545.1" r="2.2"/>
  <circle cx="555.3" cy="545.9" r="2.2"/>
  <circle cx="566.7" cy="549.5" r="2.2"/>
  <circle cx="578.0" cy="548.1" r="2.2"/>
  <circle cx="589.4" cy="559.8" r="2.2"/>
  <circle cx="600.7" cy="561.1" r="2.2"/>
  <circle cx="623.4" cy="552.1" r="2.2"/>
  <circle cx="634.8" cy="551.8" r="2.2"/>
  <circle cx="646.1" cy="519.1" r="2.2"/>
  <circle cx="657.5" cy="503.4" r="2.2"/>
  <circle cx="668.8" cy="501.5" r="2.2"/>
  <circle cx="680.2" cy="466.8" r="2.2"/>
  <circle cx="691.5" cy="457.9" r="2.2"/>
  <circle cx="702.9" cy="424.0" r="2.2"/>
  <circle cx="714.2" cy="404.4" r="2.2"/>
  <circle cx="736.9" cy="398.0" r="2.2"/>
  <circle cx="748.3" cy="394.7" r="2.2"/>
  <circle cx="759.6" cy="413.3" r="2.2"/>
  <circle cx="771.0" cy="421.3" r="2.2"/>
  <circle cx="782.3" cy="446.3" r="2.2"/>
  <circle cx="793.7" cy="451.5" r="2.2"/>
  <circle cx="805.0" cy="462.7" r="2.2"/>
  <circle cx="816.4" cy="448.6" r="2.2"/>
  <circle cx="827.7" cy="440.5" r="2.2"/>
  <circle cx="850.4" cy="433.6" r="2.2"/>
  <circle cx="861.8" cy="433.6" r="2.2"/>
</g>
<g class="pl" fill="#FFF" stroke="#D95319" stroke-width="0.900" clip-path="url(#axis_clip)">
  <circle cx="158.1" cy="490.7" r="5.4"/>
  <circle cx="271.6" cy="529.7" r="5.4"/>
  <circle cx="385.1" cy="523.9" r="5.4"/>
  <circle cx="498.6" cy="536.3" r="5.4"/>
  <circle cx="612.1" cy="555.8" r="5.4"/>
  <circle cx="725.6" cy="389.2" r="5.4"/>
  <circle cx="839.1" cy="433.6" r="5.4"/>
</g>
<polyline class="pl" points="135.4,367.8 146.7,346.0 158.1,355.7 169.4,360.9 180.8,375.8 192.1,379.9 203.5,377.6 214.8,382.3 226.2,384.6 237.5,391.5 248.9,390.0 260.2,384.0 271.6,386.8 282.9,391.4 294.3,383.1 305.6,382.3 317.0,399.6 328.3,410.5 339.7,402.3 351.0,410.5 362.4,416.4 373.7,413.9 385.1,421.0 396.4,421.4 407.8,413.7 419.1,409.8 430.5,412.6 441.8,417.9 453.2,424.9 464.5,431.5 475.9,441.2 487.2,438.2 498.6,442.6 509.9,445.4 521.3,443.7 532.6,425.9 544.0,404.9 555.3,401.1 566.7,414.4 578.0,428.5 589.4,430.7 600.7,432.1 612.1,401.8 623.4,391.8 634.8,418.3 646.1,421.4 657.5,387.2 668.8,372.7 680.2,398.1 691.5,414.5 702.9,418.4 714.2,427.1 725.6,394.1 736.9,411.5 748.3,423.2 759.6,403.2 771.0,400.4 782.3,394.7 793.7,398.8 805.0,393.3 816.4,406.5 827.7,398.7 839.1,401.6 850.4,391.2 861.8,397.7" stroke="#EDB120" stroke-width="5.40" stroke-opacity="1.00" fill="none" clip-path="url(#axis_clip)"/>
<g class="pl" fill="#FFF" stroke="#EDB120" stroke-width="0.900" clip-path="url(#axis_clip)">
  <circle cx="146.7" cy="346.0" r="2.2"/>
  <circle cx="169.4" cy="360.9" r="2.2"/>
  <circle cx="180.8" cy="375.8" r="2.2"/>
  <circle cx="192.1" cy="379.9" r="2.2"/>
  <circle cx="203.5" cy="377.6" r="2.2"/>
  <circle cx="214.8" cy="382.3" r="2.2"/>
  <circle cx="226.2" cy="384.6" r="2.2"/>
  <circle cx="237.5" cy="391.5" r="2.2"/>
  <circle cx="248.9" cy="390.0" r="2.2"/>
  <circle cx="260.2" cy="384.0" r="2.2"/>
  <circle cx="282.9" cy="391.4" r="2.2"/>
  <circle cx="294.3" cy="383.1" r="2.2"/>
  <circle cx="305.6" cy="382.3" r="2.2"/>
  <circle cx="317.0" cy="399.6" r="2.2"/>
  <circle cx="328.3" cy="410.5" r="2.2"/>
  <circle cx="339.7" cy="402.3" r="2.2"/>
  <circle cx="351.0" cy="410.5" r="2.2"/>
  <circle cx="362.4" cy="416.4" r="2.2"/>
  <circle cx="373.7" cy="413.9" r="2.2"/>
  <circle cx="396.4" cy="421.4" r="2.2"/>
  <circle cx="407.8" cy="413.7" r="2.2"/>
  <circle cx="419.1" cy="409.8" r="2.2"/>
  <circle cx="430.5" cy="412.6" r="2.2"/>
  <circle cx="441.8" cy="417.9" r="2.2"/>
  <circle cx="453.2" cy="424.9" r="2.2"/>
  <circle cx="464.5" cy="431.5" r="2.2"/>
  <circle cx="475.9" cy="441.2" r="2.2"/>
  <circle cx="487.2" cy="438.2" r="2.2"/>
  <circle cx="509.9" cy="445.4" r="2.2"/>
  <circle cx="521.3" cy="443.7" r="2.2"/>
  <circle cx="532.6" cy="425.9" r="2.2"/>
  <circle cx="544.0" cy="404.9" r="2.2"/>
  <circle cx="555.3" cy="401.1" r="2.2"/>
  <circle cx="566.7" cy="414.4" r="2.2"/>
  <circle cx="578.0" cy="428.5" r="2.2"/>
  <circle cx="589.4" cy="430.7" r="2.2"/>
  <circle cx="600.7" cy="432.1" r="2.2"/>
  <circle cx="623.4" cy="391.8" r="2.2"/>
  <circle cx="634.8" cy="418.3" r="2.2"/>
  <circle cx="646.1" cy="421.4" r="2.2"/>
  <circle cx="657.5" cy="387.2" r="2.2"/>
  <circle cx="668.8" cy="372.7" r="2.2"/>
  <circle cx="680.2" cy="398.1" r="2.2"/>
  <circle cx="691.5" cy="414.5" r="2.2"/>
  <circle cx="702.9" cy="418.4" r="2.2"/>
  <circle cx="714.2" cy="427.1" r="2.2"/>
  <circle cx="736.9" cy="411.5" r="2.2"/>
  <circle cx="748.3" cy="423.2" r="2.2"/>
  <circle cx="759.6" cy="403.2" r="2.2"/>
  <circle cx="771.0" cy="400.4" r="2.2"/>
  <circle cx="782.3" cy="394.7" r="2.2"/>
  <circle cx="793.7" cy="398.8" r="2.2"/>
  <circle cx="805.0" cy="393.3" r="2.2"/>
  <circle cx="816.4" cy="406.5" r="2.2"/>
  <circle cx="827.7" cy="398.7" r="2.2"/>
  <circle cx="850.4" cy="391.2" r="2.2"/>
  <circle cx="861.8" cy="397.7" r="2.2"/>
</g>
<g class="pl" fill="#FFF" stroke="#EDB120" stroke-width="0.900" clip-path="url(#axis_clip)">
  <circle cx="158.1" cy="355.7" r="5.4"/>
  <circle cx="271.6" cy="386.8" r="5.4"/>
  <circle cx="385.1" cy="421.0" r="5.4"/>
  <circle cx="498.6" cy="442.6" r="5.4"/>
  <circle cx="612.1" cy="401.8" r="5.4"/>
  <circle cx="725.6" cy="394.1" r="5.4"/>
  <circle cx="839.1" cy="401.6" r="5.4"/>
</g>
<polyline class="pl" points="135.4,356.2 146.7,330.3 158.1,321.0 169.4,362.5 180.8,393.0 192.1,403.8 203.5,409.0 214.8,421.0 226.2,426.2 237.5,427.3 248.9,434.7 260.2,433.2 271.6,441.7 282.9,431.4 294.3,407.0 305.6,433.4 317.0,435.3 328.3,439.0 339.7,438.0 351.0,445.4 362.4,449.7 373.7,454.7 385.1,460.2 396.4,461.5 407.8,461.6 419.1,447.5 430.5,460.8 441.8,470.9 453.2,475.3 464.5,486.6 475.9,489.8 487.2,466.1 498.6,485.9 509.9,491.3 521.3,478.4 532.6,515.9 544.0,483.5 555.3,492.7 566.7,494.8 578.0,498.5 589.4,521.9 600.7,517.6 612.1,473.3 623.4,490.0 634.8,501.8 646.1,488.5 657.5,409.9 668.8,420.9 680.2,440.7 691.5,413.7 702.9,413.8 714.2,413.1 725.6,329.3 736.9,403.0 748.3,393.1 759.6,373.7 771.0,408.8 782.3,412.0 793.7,412.7 805.0,423.3 816.4,424.6 827.7,420.8 839.1,420.7 850.4,418.2 861.8,421.1" stroke="#000" stroke-width="5.40" stroke-opacity="1.00" fill="none" clip-path="url(#axis_clip)"/>
<g class="pl" fill="#FFF" stroke="#000" stroke-width="0.900" clip-path="url(#axis_clip)">
  <circle cx="146.7" cy="330.3" r="2.2"/>
  <circle cx="169.4" cy="362.5" r="2.2"/>
  <circle cx="180.8" cy="393.0" r="2.2"/>
  <circle cx="192.1" cy="403.8" r="2.2"/>
  <circle cx="203.5" cy="409.0" r="2.2"/>
  <circle cx="214.8" cy="421.0" r="2.2"/>
  <circle cx="226.2" cy="426.2" r="2.2"/>
  <circle cx="237.5" cy="427.3" r="2.2"/>
  <circle cx="248.9" cy="434.7" r="2.2"/>
  <circle cx="260.2" cy="433.2" r="2.2"/>
  <circle cx="282.9" cy="431.4" r="2.2"/>
  <circle cx="294.3" cy="407.0" r="2.2"/>
  <circle cx="305.6" cy="433.4" r="2.2"/>
  <circle cx="317.0" cy="435.3" r="2.2"/>
  <circle cx="328.3" cy="439.0" r="2.2"/>
  <circle cx="339.7" cy="438.0" r="2.2"/>
  <circle cx="351.0" cy="445.4" r="2.2"/>
  <circle cx="362.4" cy="449.7" r="2.2"/>
  <circle cx="373.7" cy="454.7" r="2.2"/>
  <circle cx="396.4" cy="461.5" r="2.2"/>
  <circle cx="407.8" cy="461.6" r="2.2"/>
  <circle cx="419.1" cy="447.5" r="2.2"/>
  <circle cx="430.5" cy="460.8" r="2.2"/>
  <circle cx="441.8" cy="470.9" r="2.2"/>
  <circle cx="453.2" cy="475.3" r="2.2"/>
  <circle cx="464.5" cy="486.6" r="2.2"/>
  <circle cx="475.9" cy="489.8" r="2.2"/>
  <circle cx="487.2" cy="466.1" r="2.2"/>
  <circle cx="509.9" cy="491.3" r="2.2"/>
  <circle cx="521.3" cy="478.4" r="2.2"/>
  <circle cx="532.6" cy="515.9" r="2.2"/>
  <circle cx="544.0" cy="483.5" r="2.2"/>
  <circle cx="555.3" cy="492.7" r="2.2"/>
  <circle cx="566.7" cy="494.8" r="2.2"/>
  <circle cx="578.0" cy="498.5" r="2.2"/>
  <circle cx="589.4" cy="521.9" r="2.2"/>
  <circle cx="600.7" cy="517.6" r="2.2"/>
  <circle cx="623.4" cy="490.0" r="2.2"/>
  <circle cx="634.8" cy="501.8" r="2.2"/>
  <circle cx="646.1" cy="488.5" r="2.2"/>
  <circle cx="657.5" cy="409.9" r="2.2"/>
  <circle cx="668.8" cy="420.9" r="2.2"/>
  <circle cx="680.2" cy="440.7" r="2.2"/>
  <circle cx="691.5" cy="413.7" r="2.2"/>
  <circle cx="702.9" cy="413.8" r="2.2"/>
  <circle cx="714.2" cy="413.1" r="2.2"/>
  <circle cx="736.9" cy="403.0" r="2.2"/>
  <circle cx="748.3" cy="393.1" r="2.2"/>
  <circle cx="759.6" cy="373.7" r="2.2"/>
  <circle cx="771.0" cy="408.8" r="2.2"/>
  <circle cx="782.3" cy="412.0" r="2.2"/>
  <circle cx="793.7" cy="412.7" r="2.2"/>
  <circle cx="805.0" cy="423.3" r="2.2"/>
  <circle cx="816.4" cy="424.6" r="2.2"/>
  <circle cx="827.7" cy="420.8" r="2.2"/>
  <circle cx="850.4" cy="418.2" r="2.2"/>
  <circle cx="861.8" cy="421.1" r="2.2"/>
</g>
<g class="pl" fill="#FFF" stroke="#000" stroke-width="0.900" clip-path="url(#axis_clip)">
  <circle cx="158.1" cy="321.0" r="5.4"/>
  <circle cx="271.6" cy="441.7" r="5.4"/>
  <circle cx="385.1" cy="460.2" r="5.4"/>
  <circle cx="498.6" cy="485.9" r="5.4"/>
  <circle cx="612.1" cy="473.3" r="5.4"/>
  <circle cx="725.6" cy="329.3" r="5.4"/>
  <circle cx="839.1" cy="420.7" r="5.4"/>
</g>
<text transform="translate(945.6,434.1)" dy="8.1" font-size="27.00" fill="#0072BD" stroke="none">BLUE</text>
<text transform="translate(945.6,460.0)" dy="8.1" font-size="27.00" fill="#D95319" stroke="none">H&amp;C2023</text>
<text transform="translate(945.6,382.2)" dy="8.1" font-size="27.00" fill="#EDB120" stroke="none">OSCAR</text>
<text transform="translate(945.6,408.2)" dy="8.1" font-size="27.00" fill="#000" stroke="none">Mean</text>
<polyline class="pl" points="910.8,432.2 912.4,432.2 913.8,432.2 915.2,432.2 916.4,432.3 917.6,432.3 918.8,432.4 919.8,432.5 920.8,432.5 921.7,432.6 922.7,432.7 923.5,432.8 924.4,432.9 925.2,433.0 926.0,433.1 926.8,433.2 927.6,433.3 928.4,433.4 929.3,433.5 930.1,433.6 931.1,433.7 932.0,433.7 933.0,433.8 934.0,433.9 935.2,434.0 936.4,434.0 937.6,434.0 939.0,434.1 940.4,434.1 942.0,434.1" stroke="#0072BD" stroke-width="0.90" stroke-opacity="1.00" fill="none" />
<polyline class="pl" points="910.8,433.6 912.4,433.7 913.8,433.9 915.2,434.4 916.4,434.9 917.6,435.7 918.8,436.5 919.8,437.5 920.8,438.5 921.7,439.6 922.7,440.8 923.5,442.1 924.4,443.4 925.2,444.8 926.0,446.1 926.8,447.5 927.6,448.9 928.4,450.2 929.3,451.5 930.1,452.8 931.1,454.0 932.0,455.1 933.0,456.2 934.0,457.1 935.2,458.0 936.4,458.7 937.6,459.3 939.0,459.7 940.4,460.0 942.0,460.0" stroke="#D95319" stroke-width="0.90" stroke-opacity="1.00" fill="none" />
<polyline class="pl" points="910.8,397.7 912.4,397.6 913.8,397.4 915.2,397.2 916.4,396.9 917.6,396.4 918.8,395.9 919.8,395.4 920.8,394.8 921.7,394.1 922.7,393.4 923.5,392.7 924.4,391.9 925.2,391.1 926.0,390.3 926.8,389.5 927.6,388.7 928.4,388.0 929.3,387.2 930.1,386.5 931.1,385.8 932.0,385.1 933.0,384.5 934.0,383.9 935.2,383.4 936.4,383.0 937.6,382.7 939.0,382.4 940.4,382.3 942.0,382.2" stroke="#EDB120" stroke-width="0.90" stroke-opacity="1.00" fill="none" />
<polyline class="pl" points="910.8,421.1 912.4,421.1 913.8,421.0 915.2,420.7 916.4,420.5 917.6,420.1 918.8,419.7 919.8,419.2 920.8,418.7 921.7,418.2 922.7,417.6 923.5,417.0 924.4,416.3 925.2,415.7 926.0,415.0 926.8,414.3 927.6,413.6 928.4,413.0 929.3,412.4 930.1,411.7 931.1,411.1 932.0,410.6 933.0,410.1 934.0,409.6 935.2,409.2 936.4,408.8 937.6,408.6 939.0,408.3 940.4,408.2 942.0,408.2" stroke="#000" stroke-width="0.90" stroke-opacity="1.00" fill="none" />
<text transform="translate(157.6,60.7)" dy="18.0" font-size="18.00" fill="#808080" stroke="none">Note: The wide spread of the models means we have lower confidence in the estimates</text>
<text transform="translate(145.6,47.2)" dy="0.0" font-size="27.00" fill="#808080" stroke="none">Annual CO<tspan dy="0.2em"><tspan style="font-size:70%">2</tspan></tspan><tspan dy="-0.2em"> </tspan>fluxes from land-use change: Denmark</text>
<text transform="translate(130.0,81.7)" dy="8.1" font-size="27.00" fill="#808080" stroke="none" text-anchor="end">CO<tspan dy="0.2em"><tspan style="font-size:70%">2</tspan></tspan><tspan dy="-0.2em"></tspan></text>
<text transform="translate(160.2,666.1)" font-size="19.80" font-family="Helvetica" fill="#BFBFBF" stroke="none" xml:space="preserve">Global Carbon Project</text>
<g>
  <rect x="123.0" y="651.4" width="34" height="17" fill="#FFF" stroke="none"/>
  <g transform="translate(124.0,652.4) scale(0.24)">
  <g><circle fill="#FFF" cx="37.79" cy="28.5" r="28.84"/>
     <circle fill="none" cx="37.79" cy="28.5" r="28.84" stroke="#BFBFBF" stroke-width="5.5"/>
     <path fill="#BFBFBF" d="M37.16,23.19 l-4.29,2.23c-0.458-0.951-1.02-1.62-1.69-2c-0.667-0.38-1.29-0.571-1.86-0.571c-2.86,0-4.29,1.89-4.29,5.66 c0,1.71,0.36,3.08,1.09,4.11c0.724,1.03,1.79,1.54,3.2,1.54c1.87,0,3.18-0.915,3.94-2.74l3.94,2 c-0.838,1.56-2,2.79-3.49,3.69c-1.48,0.896-3.12,1.34-4.91,1.34c-2.86,0-5.16-0.875-6.92-2.63 c-1.75-1.75-2.63-4.19-2.63-7.31c0-3.05,0.886-5.47,2.66-7.26c1.77-1.79,4.01-2.69,6.72-2.69 C32.6,18.56,35.44,20.1,37.16,23.19z
              M55.61,23.19l-4.23,2.23c-0.457-0.951-1.02-1.62-1.69-2 c-0.668-0.38-1.31-0.571-1.91-0.571c-2.86,0-4.29,1.89-4.29,5.66c0,1.71,0.363,3.08,1.09,4.11 c0.723,1.03,1.79,1.54,3.2,1.54c1.87,0,3.18-0.915,3.94-2.74l4,2c-0.875,1.56-2.06,2.79-3.54,3.69 c-1.49,0.9-3.11,1.34-4.86,1.34c-2.9,0-5.21-0.875-6.94-2.63c-1.74-1.75-2.6-4.19-2.6-7.31 c0-3.05,0.885-5.47,2.66-7.26c1.77-1.79,4.01-2.69,6.71-2.69C51.12,18.56,53.944,20.1,55.61,23.19z"/>
  </g></g>
  <g transform="translate(140.2,652.4) scale(0.24)">
  <g><circle fill="#FFF" cx="37.79" cy="28.5" r="28.84"/>
     <circle fill="none" cx="37.79" cy="28.5" r="28.84" stroke="#BFBFBF" stroke-width="5.5"/>
     <path fill="#BFBFBF" d="M46.129,20.557v13.085h-3.656v15.542h-9.944V33.643h-3.656V20.557 c0-0.572,0.2-1.057,0.599-1.457c0.401-0.399,0.887-0.6,1.457-0.6h13.144c0.533,0,1.01,0.2,1.428,0.6 C45.918,19.5,46.129,19.986,46.129,20.557z
              M33.042,12.329c0-3.008,1.485-4.514,4.458-4.514s4.457,1.504,4.457,4.514 c0,2.971-1.486,4.457-4.457,4.457S33.042,15.3,33.042,12.329z"/>
  </g></g>
</g>
</g>
</svg>
