<svg version="1.1" xmlns="http://www.w3.org/2000/svg" xmlns:xlink="http://www.w3.org/1999/xlink" width="100%" height="100%" viewBox="0 0 1200.000 674.916">
<title>Annual CO2 fluxes from land-use change: South Africa</title>
<style type="text/css">
  #main {font-family:Helvetica,Arial,sans-serif; font-size:27.00px;
         fill-opacity:1; fill:#000000; stroke:none; stroke-linejoin:round; stroke-linecap:round; stroke-width:1.00;}
  .marker {stroke-opacity:0;fill-opacity:0;}
  .marker:hover {stroke-opacity:0.5; fill-opacity:1;}
  .ticklabel {font-size:27.00px;fill:#808080;stroke:none;font-family:Helvetica}
  .ytl {text-anchor:end;}
  .dp1 {pointer-events:none;font-size:70%;text-anchor:middle;fill:#000000;}
  .dp2 {pointer-events:none;font-size:70%;text-anchor:middle;fill:#FFFFFF;}
  .numtip {pointer-events:none;}
  .cc {opacity:0.25;}
.dl_fe {background-color:#FDFFDF;display:flex;margin:auto;align-items:center}
.dl_fe_p {font-size:20px;text-align:center;margin:3px}
.dl_el {display:none;pointer-events:none;}
.cc:hover + .dl_el {display:block;}
text:hover + .dl_el {display:block;}
</style>
<defs>
  <clipPath id="axis_clip"><rect x="145.8" y="54.2" width="761.2" height="532.8" /></clipPath>
  <path id="line_x" d="M 145.600,0 h 761.600" stroke="#262626" stroke-opacity="0.15" stroke-width="1.00"/>
  <path id="tick_y" d="M 145.600,0 h -6.000" stroke="#808080" stroke-width="0.90"/>
  <path id="tick_x" d="M 0,587.177 v 6.000" stroke="#808080" stroke-width="0.90"/>
</defs>
<g id="main">
<use xlink:href="#line_x" transform="translate(0,587.2)"/>
<use xlink:href="#line_x" transform="translate(0,520.5)"/>
<use xlink:href="#line_x" transform="translate(0,453.9)"/>
<use xlink:href="#line_x" transform="translate(0,387.2)"/>
<use xlink:href="#line_x" transform="translate(0,320.6)"/>
<use xlink:href="#line_x" transform="translate(0,253.9)"/>
<use xlink:href="#line_x" transform="translate(0,187.3)"/>
<use xlink:href="#line_x" transform="translate(0,120.6)"/>
<use xlink:href="#line_x" transform="translate(0,54.0)"/>
<use xlink:href="#tick_y" transform="translate(0,587.2)"/>
<use xlink:href="#tick_y" transform="translate(0,520.5)"/>
<use xlink:href="#tick_y" transform="translate(0,453.9)"/>
<use xlink:href="#tick_y" transform="translate(0,387.2)"/>
<use xlink:href="#tick_y" transform="translate(0,320.6)"/>
<use xlink:href="#tick_y" transform="translate(0,253.9)"/>
<use xlink:href="#tick_y" transform="translate(0,187.3)"/>
<use xlink:href="#tick_y" transform="translate(0,120.6)"/>
<use xlink:href="#tick_y" transform="translate(0,54.0)"/>
<use xlink:href="#tick_x" transform="translate(158.1,0)"/>
<use xlink:href="#tick_x" transform="translate(271.6,0)"/>
<use xlink:href="#tick_x" transform="translate(385.1,0)"/>
<use xlink:href="#tick_x" transform="translate(498.6,0)"/>
<use xlink:href="#tick_x" transform="translate(612.1,0)"/>
<use xlink:href="#tick_x" transform="translate(725.6,0)"/>
<use xlink:href="#tick_x" transform="translate(839.1,0)"/>
<polyline points="145.6,53.993 145.6,587.177 907.2,587.177" stroke="#808080" stroke-width="0.90" fill="none"/>
<text class="ticklabel xtl" transform="translate(158.1,629.0)" text-anchor="middle">1960</text>
<text class="ticklabel xtl" transform="translate(271.6,629.0)" text-anchor="middle">1970</text>
<text class="ticklabel xtl" transform="translate(385.1,629.0)" text-anchor="middle">1980</text>
<text class="ticklabel xtl" transform="translate(498.6,629.0)" text-anchor="middle">1990</text>
<text class="ticklabel xtl" transform="translate(612.1,629.0)" text-anchor="middle">2000</text>
<text class="ticklabel xtl" transform="translate(725.6,629.0)" text-anchor="middle">2010</text>
<text class="ticklabel xtl" transform="translate(839.1,629.0)" text-anchor="middle">2020</text>
<text class="ticklabel ytl" transform="translate(128.8,595.3)">-20</text>
<text class="ticklabel ytl" transform="translate(128.8,528.6)">0</text>
<text class="ticklabel ytl" transform="translate(128.8,462.0)">20</text>
<text class="ticklabel ytl" transform="translate(128.8,395.3)">40</text>
<text class="ticklabel ytl" transform="translate(128.8,328.7)">60</text>
<text class="ticklabel ytl" transform="translate(128.8,262.0)">80</text>
<text class="ticklabel ytl" transform="translate(128.8,195.4)">100</text>
<text class="ticklabel ytl" transform="translate(128.8,128.7)">120</text>
<text class="ticklabel ytl" transform="translate(128.8,62.1)">140 Mt</text>
<polyline class="pl" points="145.6,520.5 907.2,520.5" stroke="#000" stroke-width="0.90" stroke-opacity="1.00" fill="none" clip-path="url(#axis_clip)"/>
<polyline class="pl" points="135.4,161.1 146.7,150.2 158.1,105.1 169.4,215.8 180.8,258.9 192.1,284.1 203.5,301.2 214.8,306.8 226.2,276.4 237.5,257.2 248.9,248.7 260.2,245.5 271.6,243.1 282.9,244.5 294.3,247.8 305.6,253.7 317.0,258.3 328.3,264.7 339.7,286.1 351.0,303.2 362.4,319.1 373.7,331.0 385.1,333.4 396.4,333.8 407.8,331.3 419.1,326.4 430.5,332.7 441.8,273.1 453.2,303.6 464.5,290.4 475.9,272.5 487.2,262.5 498.6,262.5 509.9,230.7 521.3,216.9 532.6,259.0 544.0,270.5 555.3,253.5 566.7,268.5 578.0,284.9 589.4,292.2 600.7,296.3 612.1,328.4 623.4,340.1 634.8,367.0 646.1,386.0 657.5,393.3 668.8,418.6 680.2,406.0 691.5,380.1 702.9,412.9 714.2,444.9 725.6,484.5 736.9,497.3 748.3,492.9 759.6,503.8 771.0,515.6 782.3,516.8 793.7,523.5 805.0,534.1 816.4,529.3 827.7,522.6 839.1,521.2 850.4,519.5 861.8,516.8" stroke="#0072BD" stroke-width="5.40" stroke-opacity="1.00" fill="none" clip-path="url(#axis_clip)"/>
<g class="pl" fill="#FFF" stroke="#0072BD" stroke-width="0.900" clip-path="url(#axis_clip)">
  <circle cx="146.7" cy="150.2" r="2.2"/>
  <circle cx="169.4" cy="215.8" r="2.2"/>
  <circle cx="180.8" cy="258.9" r="2.2"/>
  <circle cx="192.1" cy="284.1" r="2.2"/>
  <circle cx="203.5" cy="301.2" r="2.2"/>
  <circle cx="214.8" cy="306.8" r="2.2"/>
  <circle cx="226.2" cy="276.4" r="2.2"/>
  <circle cx="237.5" cy="257.2" r="2.2"/>
  <circle cx="248.9" cy="248.7" r="2.2"/>
  <circle cx="260.2" cy="245.5" r="2.2"/>
  <circle cx="282.9" cy="244.5" r="2.2"/>
  <circle cx="294.3" cy="247.8" r="2.2"/>
  <circle cx="305.6" cy="253.7" r="2.2"/>
  <circle cx="317.0" cy="258.3" r="2.2"/>
  <circle cx="328.3" cy="264.7" r="2.2"/>
  <circle cx="339.7" cy="286.1" r="2.2"/>
  <circle cx="351.0" cy="303.2" r="2.2"/>
  <circle cx="362.4" cy="319.1" r="2.2"/>
  <circle cx="373.7" cy="331.0" r="2.2"/>
  <circle cx="396.4" cy="333.8" r="2.2"/>
  <circle cx="407.8" cy="331.3" r="2.2"/>
  <circle cx="419.1" cy="326.4" r="2.2"/>
  <circle cx="430.5" cy="332.7" r="2.2"/>
  <circle cx="441.8" cy="273.1" r="2.2"/>
  <circle cx="453.2" cy="303.6" r="2.2"/>
  <circle cx="464.5" cy="290.4" r="2.2"/>
  <circle cx="475.9" cy="272.5" r="2.2"/>
  <circle cx="487.2" cy="262.5" r="2.2"/>
  <circle cx="509.9" cy="230.7" r="2.2"/>
  <circle cx="521.3" cy="216.9" r="2.2"/>
  <circle cx="532.6" cy="259.0" r="2.2"/>
  <circle cx="544.0" cy="270.5" r="2.2"/>
  <circle cx="555.3" cy="253.5" r="2.2"/>
  <circle cx="566.7" cy="268.5" r="2.2"/>
  <circle cx="578.0" cy="284.9" r="2.2"/>
  <circle cx="589.4" cy="292.2" r="2.2"/>
  <circle cx="600.7" cy="296.3" r="2.2"/>
  <circle cx="623.4" cy="340.1" r="2.2"/>
  <circle cx="634.8" cy="367.0" r="2.2"/>
  <circle cx="646.1" cy="386.0" r="2.2"/>
  <circle cx="657.5" cy="393.3" r="2.2"/>
  <circle cx="668.8" cy="418.6" r="2.2"/>
  <circle cx="680.2" cy="406.0" r="2.2"/>
  <circle cx="691.5" cy="380.1" r="2.2"/>
  <circle cx="702.9" cy="412.9" r="2.2"/>
  <circle cx="714.2" cy="444.9" r="2.2"/>
  <circle cx="736.9" cy="497.3" r="2.2"/>
  <circle cx="748.3" cy="492.9" r="2.2"/>
  <circle cx="759.6" cy="503.8" r="2.2"/>
  <circle cx="771.0" cy="515.6" r="2.2"/>
  <circle cx="782.3" cy="516.8" r="2.2"/>
  <circle cx="793.7" cy="523.5" r="2.2"/>
  <circle cx="805.0" cy="534.1" r="2.2"/>
  <circle cx="816.4" cy="529.3" r="2.2"/>
  <circle cx="827.7" cy="522.6" r="2.2"/>
  <circle cx="850.4" cy="519.5" r="2.2"/>
  <circle cx="861.8" cy="516.8" r="2.2"/>
</g>
<g class="pl" fill="#FFF" stroke="#0072BD" stroke-width="0.900" clip-path="url(#axis_clip)">
  <circle cx="158.1" cy="105.1" r="5.4"/>
  <circle cx="271.6" cy="243.1" r="5.4"/>
  <circle cx="385.1" cy="333.4" r="5.4"/>
  <circle cx="498.6" cy="262.5" r="5.4"/>
  <circle cx="612.1" cy="328.4" r="5.4"/>
  <circle cx="725.6" cy="484.5" r="5.4"/>
  <circle cx="839.1" cy="521.2" r="5.4"/>
</g>
<polyline class="pl" points="135.4,331.4 146.7,344.5 158.1,357.5 169.4,372.7 180.8,386.8 192.1,397.0 203.5,411.7 214.8,420.0 226.2,427.3 237.5,433.9 248.9,443.2 260.2,450.0 271.6,458.8 282.9,467.7 294.3,476.5 305.6,485.3 317.0,493.4 328.3,501.4 339.7,510.4 351.0,521.0 362.4,526.9 373.7,532.6 385.1,536.4 396.4,539.0 407.8,540.7 419.1,539.6 430.5,519.0 441.8,515.3 453.2,506.5 464.5,493.0 475.9,478.0 487.2,474.8 498.6,438.0 509.9,420.6 521.3,411.7 532.6,404.4 544.0,394.6 555.3,399.0 566.7,413.5 578.0,416.7 589.4,419.2 600.7,446.6 612.1,457.1 623.4,466.4 634.8,471.7 646.1,479.6 657.5,486.5 668.8,494.7 680.2,503.3 691.5,508.6 702.9,516.2 714.2,522.6 725.6,528.4 736.9,533.2 748.3,541.5 759.6,543.1 771.0,545.5 782.3,545.3 793.7,543.9 805.0,541.1 816.4,541.3 827.7,538.7 839.1,534.8 850.4,534.3 861.8,534.9" stroke="#D95319" stroke-width="5.40" stroke-opacity="1.00" fill="none" clip-path="url(#axis_clip)"/>
<g class="pl" fill="#FFF" stroke="#D95319" stroke-width="0.900" clip-path="url(#axis_clip)">
  <circle cx="146.7" cy="344.5" r="2.2"/>
  <circle cx="169.4" cy="372.7" r="2.2"/>
  <circle cx="180.8" cy="386.8" r="2.2"/>
  <circle cx="192.1" cy="397.0" r="2.2"/>
  <circle cx="203.5" cy="411.7" r="2.2"/>
  <circle cx="214.8" cy="420.0" r="2.2"/>
  <circle cx="226.2" cy="427.3" r="2.2"/>
  <circle cx="237.5" cy="433.9" r="2.2"/>
  <circle cx="248.9" cy="443.2" r="2.2"/>
  <circle cx="260.2" cy="450.0" r="2.2"/>
  <circle cx="282.9" cy="467.7" r="2.2"/>
  <circle cx="294.3" cy="476.5" r="2.2"/>
  <circle cx="305.6" cy="485.3" r="2.2"/>
  <circle cx="317.0" cy="493.4" r="2.2"/>
  <circle cx="328.3" cy="501.4" r="2.2"/>
  <circle cx="339.7" cy="510.4" r="2.2"/>
  <circle cx="351.0" cy="521.0" r="2.2"/>
  <circle cx="362.4" cy="526.9" r="2.2"/>
  <circle cx="373.7" cy="532.6" r="2.2"/>
  <circle cx="396.4" cy="539.0" r="2.2"/>
  <circle cx="407.8" cy="540.7" r="2.2"/>
  <circle cx="419.1" cy="539.6" r="2.2"/>
  <circle cx="430.5" cy="519.0" r="2.2"/>
  <circle cx="441.8" cy="515.3" r="2.2"/>
  <circle cx="453.2" cy="506.5" r="2.2"/>
  <circle cx="464.5" cy="493.0" r="2.2"/>
  <circle cx="475.9" cy="478.0" r="2.2"/>
  <circle cx="487.2" cy="474.8" r="2.2"/>
  <circle cx="509.9" cy="420.6" r="2.2"/>
  <circle cx="521.3" cy="411.7" r="2.2"/>
  <circle cx="532.6" cy="404.4" r="2.2"/>
  <circle cx="544.0" cy="394.6" r="2.2"/>
  <circle cx="555.3" cy="399.0" r="2.2"/>
  <circle cx="566.7" cy="413.5" r="2.2"/>
  <circle cx="578.0" cy="416.7" r="2.2"/>
  <circle cx="589.4" cy="419.2" r="2.2"/>
  <circle cx="600.7" cy="446.6" r="2.2"/>
  <circle cx="623.4" cy="466.4" r="2.2"/>
  <circle cx="634.8" cy="471.7" r="2.2"/>
  <circle cx="646.1" cy="479.6" r="2.2"/>
  <circle cx="657.5" cy="486.5" r="2.2"/>
  <circle cx="668.8" cy="494.7" r="2.2"/>
  <circle cx="680.2" cy="503.3" r="2.2"/>
  <circle cx="691.5" cy="508.6" r="2.2"/>
  <circle cx="702.9" cy="516.2" r="2.2"/>
  <circle cx="714.2" cy="522.6" r="2.2"/>
  <circle cx="736.9" cy="533.2" r="2.2"/>
  <circle cx="748.3" cy="541.5" r="2.2"/>
  <circle cx="759.6" cy="543.1" r="2.2"/>
  <circle cx="771.0" cy="545.5" r="2.2"/>
  <circle cx="782.3" cy="545.3" r="2.2"/>
  <circle cx="793.7" cy="543.9" r="2.2"/>
  <circle cx="805.0" cy="541.1" r="2.2"/>
  <circle cx="816.4" cy="541.3" r="2.2"/>
  <circle cx="827.7" cy="538.7" r="2.2"/>
  <circle cx="850.4" cy="534.3" r="2.2"/>
  <circle cx="861.8" cy="534.9" r="2.2"/>
</g>
<g class="pl" fill="#FFF" stroke="#D95319" stroke-width="0.900" clip-path="url(#axis_clip)">
  <circle cx="158.1" cy="357.5" r="5.4"/>
  <circle cx="271.6" cy="458.8" r="5.4"/>
  <circle cx="385.1" cy="536.4" r="5.4"/>
  <circle cx="498.6" cy="438.0" r="5.4"/>
  <circle cx="612.1" cy="457.1" r="5.4"/>
  <circle cx="725.6" cy="528.4" r="5.4"/>
  <circle cx="839.1" cy="534.8" r="5.4"/>
</g>
<polyline class="pl" points="135.4,434.3 146.7,436.6 158.1,434.7 169.4,442.5 180.8,452.8 192.1,442.4 203.5,443.9 214.8,445.7 226.2,439.7 237.5,428.3 248.9,437.6 260.2,434.7 271.6,438.2 282.9,434.0 294.3,437.8 305.6,438.4 317.0,432.2 328.3,437.6 339.7,435.9 351.0,446.8 362.4,453.8 373.7,459.9 385.1,460.2 396.4,456.6 407.8,465.0 419.1,464.1 430.5,466.3 441.8,460.1 453.2,461.8 464.5,459.9 475.9,452.1 487.2,455.5 498.6,462.0 509.9,454.7 521.3,465.3 532.6,458.5 544.0,460.3 555.3,452.5 566.7,448.6 578.0,453.6 589.4,453.7 600.7,459.6 612.1,450.1 623.4,457.5 634.8,465.6 646.1,469.4 657.5,463.4 668.8,471.1 680.2,462.6 691.5,473.8 702.9,475.7 714.2,474.9 725.6,478.5 736.9,480.1 748.3,487.9 759.6,490.3 771.0,489.8 782.3,494.5 793.7,491.1 805.0,490.7 816.4,491.6 827.7,489.9 839.1,483.7 850.4,479.7 861.8,480.3" stroke="#EDB120" stroke-width="5.40" stroke-opacity="1.00" fill="none" clip-path="url(#axis_clip)"/>
<g class="pl" fill="#FFF" stroke="#EDB120" stroke-width="0.900" clip-path="url(#axis_clip)">
  <circle cx="146.7" cy="436.6" r="2.2"/>
  <circle cx="169.4" cy="442.5" r="2.2"/>
  <circle cx="180.8" cy="452.8" r="2.2"/>
  <circle cx="192.1" cy="442.4" r="2.2"/>
  <circle cx="203.5" cy="443.9" r="2.2"/>
  <circle cx="214.8" cy="445.7" r="2.2"/>
  <circle cx="226.2" cy="439.7" r="2.2"/>
  <circle cx="237.5" cy="428.3" r="2.2"/>
  <circle cx="248.9" cy="437.6" r="2.2"/>
  <circle cx="260.2" cy="434.7" r="2.2"/>
  <circle cx="282.9" cy="434.0" r="2.2"/>
  <circle cx="294.3" cy="437.8" r="2.2"/>
  <circle cx="305.6" cy="438.4" r="2.2"/>
  <circle cx="317.0" cy="432.2" r="2.2"/>
  <circle cx="328.3" cy="437.6" r="2.2"/>
  <circle cx="339.7" cy="435.9" r="2.2"/>
  <circle cx="351.0" cy="446.8" r="2.2"/>
  <circle cx="362.4" cy="453.8" r="2.2"/>
  <circle cx="373.7" cy="459.9" r="2.2"/>
  <circle cx="396.4" cy="456.6" r="2.2"/>
  <circle cx="407.8" cy="465.0" r="2.2"/>
  <circle cx="419.1" cy="464.1" r="2.2"/>
  <circle cx="430.5" cy="466.3" r="2.2"/>
  <circle cx="441.8" cy="460.1" r="2.2"/>
  <circle cx="453.2" cy="461.8" r="2.2"/>
  <circle cx="464.5" cy="459.9" r="2.2"/>
  <circle cx="475.9" cy="452.1" r="2.2"/>
  <circle cx="487.2" cy="455.5" r="2.2"/>
  <circle cx="509.9" cy="454.7" r="2.2"/>
  <circle cx="521.3" cy="465.3" r="2.2"/>
  <circle cx="532.6" cy="458.5" r="2.2"/>
  <circle cx="544.0" cy="460.3" r="2.2"/>
  <circle cx="555.3" cy="452.5" r="2.2"/>
  <circle cx="566.7" cy="448.6" r="2.2"/>
  <circle cx="578.0" cy="453.6" r="2.2"/>
  <circle cx="589.4" cy="453.7" r="2.2"/>
  <circle cx="600.7" cy="459.6" r="2.2"/>
  <circle cx="623.4" cy="457.5" r="2.2"/>
  <circle cx="634.8" cy="465.6" r="2.2"/>
  <circle cx="646.1" cy="469.4" r="2.2"/>
  <circle cx="657.5" cy="463.4" r="2.2"/>
  <circle cx="668.8" cy="471.1" r="2.2"/>
  <circle cx="680.2" cy="462.6" r="2.2"/>
  <circle cx="691.5" cy="473.8" r="2.2"/>
  <circle cx="702.9" cy="475.7" r="2.2"/>
  <circle cx="714.2" cy="474.9" r="2.2"/>
  <circle cx="736.9" cy="480.1" r="2.2"/>
  <circle cx="748.3" cy="487.9" r="2.2"/>
  <circle cx="759.6" cy="490.3" r="2.2"/>
  <circle cx="771.0" cy="489.8" r="2.2"/>
  <circle cx="782.3" cy="494.5" r="2.2"/>
  <circle cx="793.7" cy="491.1" r="2.2"/>
  <circle cx="805.0" cy="490.7" r="2.2"/>
  <circle cx="816.4" cy="491.6" r="2.2"/>
  <circle cx="827.7" cy="489.9" r="2.2"/>
  <circle cx="850.4" cy="479.7" r="2.2"/>
  <circle cx="861.8" cy="480.3" r="2.2"/>
</g>
<g class="pl" fill="#FFF" stroke="#EDB120" stroke-width="0.900" clip-path="url(#axis_clip)">
  <circle cx="158.1" cy="434.7" r="5.4"/>
  <circle cx="271.6" cy="438.2" r="5.4"/>
  <circle cx="385.1" cy="460.2" r="5.4"/>
  <circle cx="498.6" cy="462.0" r="5.4"/>
  <circle cx="612.1" cy="450.1" r="5.4"/>
  <circle cx="725.6" cy="478.5" r="5.4"/>
  <circle cx="839.1" cy="483.7" r="5.4"/>
</g>
<polyline class="pl" points="135.4,308.9 146.7,310.4 158.1,299.1 169.4,343.7 180.8,366.2 192.1,374.5 203.5,385.6 214.8,390.8 226.2,381.1 237.5,373.1 248.9,376.5 260.2,376.7 271.6,380.0 282.9,382.1 294.3,387.4 305.6,392.5 317.0,394.6 328.3,401.2 339.7,410.8 351.0,423.7 362.4,433.3 373.7,441.2 385.1,443.3 396.4,443.1 407.8,445.6 419.1,443.3 430.5,439.3 441.8,416.2 453.2,424.0 464.5,414.4 475.9,400.8 487.2,397.6 498.6,387.5 509.9,368.7 521.3,364.6 532.6,373.9 544.0,375.1 555.3,368.3 566.7,376.9 578.0,385.1 589.4,388.4 600.7,400.8 612.1,411.8 623.4,421.3 634.8,434.8 646.1,445.0 657.5,447.7 668.8,461.5 680.2,457.3 691.5,454.1 702.9,468.2 714.2,480.8 725.6,497.2 736.9,503.5 748.3,507.4 759.6,512.4 771.0,517.0 782.3,518.9 793.7,519.5 805.0,522.0 816.4,520.7 827.7,517.1 839.1,513.2 850.4,511.2 861.8,510.7" stroke="#000" stroke-width="5.40" stroke-opacity="1.00" fill="none" clip-path="url(#axis_clip)"/>
<g class="pl" fill="#FFF" stroke="#000" stroke-width="0.900" clip-path="url(#axis_clip)">
  <circle cx="146.7" cy="310.4" r="2.2"/>
  <circle cx="169.4" cy="343.7" r="2.2"/>
  <circle cx="180.8" cy="366.2" r="2.2"/>
  <circle cx="192.1" cy="374.5" r="2.2"/>
  <circle cx="203.5" cy="385.6" r="2.2"/>
  <circle cx="214.8" cy="390.8" r="2.2"/>
  <circle cx="226.2" cy="381.1" r="2.2"/>
  <circle cx="237.5" cy="373.1" r="2.2"/>
  <circle cx="248.9" cy="376.5" r="2.2"/>
  <circle cx="260.2" cy="376.7" r="2.2"/>
  <circle cx="282.9" cy="382.1" r="2.2"/>
  <circle cx="294.3" cy="387.4" r="2.2"/>
  <circle cx="305.6" cy="392.5" r="2.2"/>
  <circle cx="317.0" cy="394.6" r="2.2"/>
  <circle cx="328.3" cy="401.2" r="2.2"/>
  <circle cx="339.7" cy="410.8" r="2.2"/>
  <circle cx="351.0" cy="423.7" r="2.2"/>
  <circle cx="362.4" cy="433.3" r="2.2"/>
  <circle cx="373.7" cy="441.2" r="2.2"/>
  <circle cx="396.4" cy="443.1" r="2.2"/>
  <circle cx="407.8" cy="445.6" r="2.2"/>
  <circle cx="419.1" cy="443.3" r="2.2"/>
  <circle cx="430.5" cy="439.3" r="2.2"/>
  <circle cx="441.8" cy="416.2" r="2.2"/>
  <circle cx="453.2" cy="424.0" r="2.2"/>
  <circle cx="464.5" cy="414.4" r="2.2"/>
  <circle cx="475.9" cy="400.8" r="2.2"/>
  <circle cx="487.2" cy="397.6" r="2.2"/>
  <circle cx="509.9" cy="368.7" r="2.2"/>
  <circle cx="521.3" cy="364.6" r="2.2"/>
  <circle cx="532.6" cy="373.9" r="2.2"/>
  <circle cx="544.0" cy="375.1" r="2.2"/>
  <circle cx="555.3" cy="368.3" r="2.2"/>
  <circle cx="566.7" cy="376.9" r="2.2"/>
  <circle cx="578.0" cy="385.1" r="2.2"/>
  <circle cx="589.4" cy="388.4" r="2.2"/>
  <circle cx="600.7" cy="400.8" r="2.2"/>
  <circle cx="623.4" cy="421.3" r="2.2"/>
  <circle cx="634.8" cy="434.8" r="2.2"/>
  <circle cx="646.1" cy="445.0" r="2.2"/>
  <circle cx="657.5" cy="447.7" r="2.2"/>
  <circle cx="668.8" cy="461.5" r="2.2"/>
  <circle cx="680.2" cy="457.3" r="2.2"/>
  <circle cx="691.5" cy="454.1" r="2.2"/>
  <circle cx="702.9" cy="468.2" r="2.2"/>
  <circle cx="714.2" cy="480.8" r="2.2"/>
  <circle cx="736.9" cy="503.5" r="2.2"/>
  <circle cx="748.3" cy="507.4" r="2.2"/>
  <circle cx="759.6" cy="512.4" r="2.2"/>
  <circle cx="771.0" cy="517.0" r="2.2"/>
  <circle cx="782.3" cy="518.9" r="2.2"/>
  <circle cx="793.7" cy="519.5" r="2.2"/>
  <circle cx="805.0" cy="522.0" r="2.2"/>
  <circle cx="816.4" cy="520.7" r="2.2"/>
  <circle cx="827.7" cy="517.1" r="2.2"/>
  <circle cx="850.4" cy="511.2" r="2.2"/>
  <circle cx="861.8" cy="510.7" r="2.2"/>
</g>
<g class="pl" fill="#FFF" stroke="#000" stroke-width="0.900" clip-path="url(#axis_clip)">
  <circle cx="158.1" cy="299.1" r="5.4"/>
  <circle cx="271.6" cy="380.0" r="5.4"/>
  <circle cx="385.1" cy="443.3" r="5.4"/>
  <circle cx="498.6" cy="387.5" r="5.4"/>
  <circle cx="612.1" cy="411.8" r="5.4"/>
  <circle cx="725.6" cy="497.2" r="5.4"/>
  <circle cx="839.1" cy="513.2" r="5.4"/>
</g>
<text transform="translate(945.6,523.6)" dy="8.1" font-size="27.00" fill="#0072BD" stroke="none">BLUE</text>
<text transform="translate(945.6,549.6)" dy="8.1" font-size="27.00" fill="#D95319" stroke="none">H&amp;C2023</text>
<text transform="translate(945.6,471.7)" dy="8.1" font-size="27.00" fill="#EDB120" stroke="none">OSCAR</text>
<text transform="translate(945.6,497.7)" dy="8.1" font-size="27.00" fill="#000" stroke="none">Mean</text>
<polyline class="pl" points="910.8,516.8 912.4,516.8 913.8,516.9 915.2,517.0 916.4,517.1 917.6,517.3 918.8,517.5 919.8,517.8 920.8,518.1 921.7,518.3 922.7,518.7 923.5,519.0 924.4,519.3 925.2,519.7 926.0,520.0 926.8,520.4 927.6,520.7 928.4,521.1 929.3,521.4 930.1,521.7 931.1,522.1 932.0,522.3 933.0,522.6 934.0,522.9 935.2,523.1 936.4,523.3 937.6,523.4 939.0,523.5 940.4,523.6 942.0,523.6" stroke="#0072BD" stroke-width="0.90" stroke-opacity="1.00" fill="none" />
<polyline class="pl" points="910.8,534.9 912.4,534.9 913.8,535.1 915.2,535.3 916.4,535.6 917.6,536.0 918.8,536.5 919.8,537.0 920.8,537.6 921.7,538.2 922.7,538.9 923.5,539.6 924.4,540.3 925.2,541.1 926.0,541.8 926.8,542.6 927.6,543.3 928.4,544.1 929.3,544.8 930.1,545.5 931.1,546.2 932.0,546.8 933.0,547.4 934.0,547.9 935.2,548.4 936.4,548.8 937.6,549.1 939.0,549.4 940.4,549.5 942.0,549.6" stroke="#D95319" stroke-width="0.90" stroke-opacity="1.00" fill="none" />
<polyline class="pl" points="910.8,480.3 912.4,480.3 913.8,480.2 915.2,480.1 916.4,479.9 917.6,479.7 918.8,479.4 919.8,479.1 920.8,478.7 921.7,478.4 922.7,478.0 923.5,477.6 924.4,477.1 925.2,476.7 926.0,476.3 926.8,475.8 927.6,475.4 928.4,474.9 929.3,474.5 930.1,474.1 931.1,473.7 932.0,473.3 933.0,473.0 934.0,472.7 935.2,472.4 936.4,472.2 937.6,472.0 939.0,471.9 940.4,471.8 942.0,471.7" stroke="#EDB120" stroke-width="0.90" stroke-opacity="1.00" fill="none" />
<polyline class="pl" points="910.8,510.7 912.4,510.6 913.8,510.5 915.2,510.3 916.4,510.0 917.6,509.6 918.8,509.2 919.8,508.8 920.8,508.2 921.7,507.7 922.7,507.1 923.5,506.5 924.4,505.8 925.2,505.2 926.0,504.5 926.8,503.8 927.6,503.2 928.4,502.5 929.3,501.9 930.1,501.2 931.1,500.7 932.0,500.1 933.0,499.6 934.0,499.1 935.2,498.7 936.4,498.4 937.6,498.1 939.0,497.9 940.4,497.7 942.0,497.7" stroke="#000" stroke-width="0.90" stroke-opacity="1.00" fill="none" />
<text transform="translate(157.6,60.7)" dy="18.0" font-size="18.00" fill="#808080" stroke="none">Note: The wide spread of the models means we have lower confidence in the estimates</text>
<text transform="translate(145.6,47.2)" dy="0.0" font-size="27.00" fill="#808080" stroke="none">Annual CO<tspan dy="0.2em"><tspan style="font-size:70%">2</tspan></tspan><tspan dy="-0.2em"> </tspan>fluxes from land-use change: South Africa</text>
<text transform="translate(130.0,81.7)" dy="8.1" font-size="27.00" fill="#808080" stroke="none" text-anchor="end">CO<tspan dy="0.2em"><tspan style="font-size:70%">2</tspan></tspan><tspan dy="-0.2em"></tspan></text>
<text transform="translate(160.2,666.1)" font-size="19.80" font-family="Helvetica" fill="#BFBFBF" stroke="none" xml:space="preserve">Global Carbon Project</text>
<g>
  <rect x="123.0" y="651.4" width="34" height="17" fill="#FFF" stroke="none"/>
  <g transform="translate(124.0,652.4) scale(0.24)">
  <g><circle fill="#FFF" cx="37.79" cy="28.5" r="28.84"/>
     <circle fill="none" cx="37.79" cy="28.5" r="28.84" stroke="#BFBFBF" stroke-width="5.5"/>
     <path fill="#BFBFBF" d="M37.16,23.19 l-4.29,2.23c-0.458-0.951-1.02-1.62-1.69-2c-0.667-0.38-1.29-0.571-1.86-0.571c-2.86,0-4.29,1.89-4.29,5.66 c0,1.71,0.36,3.08,1.09,4.11c0.724,1.03,1.79,1.54,3.2,1.54c1.87,0,3.18-0.915,3.94-2.74l3.94,2 c-0.838,1.56-2,2.79-3.49,3.69c-1.48,0.896-3.12,1.34-4.91,1.34c-2.86,0-5.16-0.875-6.92-2.63 c-1.75-1.75-2.63-4.19-2.63-7.31c0-3.05,0.886-5.47,2.66-7.26c1.77-1.79,4.01-2.69,6.72-2.69 C32.6,18.56,35.44,20.1,37.16,23.19z
              M55.61,23.19l-4.23,2.23c-0.457-0.951-1.02-1.62-1.69-2 c-0.668-0.38-1.31-0.571-1.91-0.571c-2.86,0-4.29,1.89-4.29,5.66c0,1.71,0.363,3.08,1.09,4.11 c0.723,1.03,1.79,1.54,3.2,1.54c1.87,0,3.18-0.915,3.94-2.74l4,2c-0.875,1.56-2.06,2.79-3.54,3.69 c-1.49,0.9-3.11,1.34-4.86,1.34c-2.9,0-5.21-0.875-6.94-2.63c-1.74-1.75-2.6-4.19-2.6-7.31 c0-3.05,0.885-5.47,2.66-7.26c1.77-1.79,4.01-2.69,6.71-2.69C51.12,18.56,53.944,20.1,55.61,23.19z"/>
  </g></g>
  <g transform="translate(140.2,652.4) scale(0.24)">
  <g><circle fill="#FFF" cx="37.79" cy="28.5" r="28.84"/>
     <circle fill="none" cx="37.79" cy="28.5" r="28.84" stroke="#BFBFBF" stroke-width="5.5"/>
     <path fill="#BFBFBF" d="M46.129,20.557v13.085h-3.656v15.542h-9.944V33.643h-3.656V20.557 c0-0.572,0.2-1.057,0.599-1.457c0.401-0.399,0.887-0.6,1.457-0.6h13.144c0.533,0,1.01,0.2,1.428,0.6 C45.918,19.5,46.129,19.986,46.129,20.557z
              M33.042,12.329c0-3.008,1.485-4.514,4.458-4.514s4.457,1.504,4.457,4.514 c0,2.971-1.486,4.457-4.457,4.457S33.042,15.3,33.042,12.329z"/>
  </g></g>
</g>
</g>
</svg>
