<svg version="1.1" xmlns="http://www.w3.org/2000/svg" xmlns:xlink="http://www.w3.org/1999/xlink" width="100%" height="100%" viewBox="0 0 1200.000 674.916">
<title>Annual CH4 Emissions: Netherlands</title>
<style type="text/css">
  #main {font-family:Helvetica,Arial,sans-serif; font-size:27.00px;
         fill-opacity:1; fill:#000000; stroke:none; stroke-linejoin:round; stroke-linecap:round; stroke-width:1.00;}
  .marker {stroke-opacity:0;fill-opacity:0;}
  .marker:hover {stroke-opacity:0.5; fill-opacity:1;}
  .ticklabel {font-size:27.00px;fill:#808080;stroke:none;font-family:Helvetica}
  .ytl {text-anchor:end;}
  .dp1 {pointer-events:none;font-size:70%;text-anchor:middle;fill:#000000;}
  .dp2 {pointer-events:none;font-size:70%;text-anchor:middle;fill:#FFFFFF;}
  .numtip {pointer-events:none;}
  .cc {opacity:0.25;}
.dl_fe {background-color:#FDFFDF;display:flex;margin:auto;align-items:center}
.dl_fe_p {font-size:20px;text-align:center;margin:3px}
.dl_el {display:none;pointer-events:none;}
.cc:hover + .dl_el {display:block;}
text:hover + .dl_el {display:block;}
</style>
<defs>
  <clipPath id="axis_clip"><rect x="145.8" y="54.2" width="761.2" height="532.8" /></clipPath>
  <path id="line_y" d="M 0,53.993 v 533.183" stroke="#262626" stroke-opacity="0.15" stroke-width="1.00"/>
  <path id="line_x" d="M 145.600,0 h 761.600" stroke="#262626" stroke-opacity="0.15" stroke-width="1.00"/>
  <path id="tick_y" d="M 145.600,0 h -6.000" stroke="#808080" stroke-width="0.90"/>
  <path id="tick_x" d="M 0,587.177 v 6.000" stroke="#808080" stroke-width="0.90"/>
</defs>
<g id="main">
<use xlink:href="#line_y" transform="translate(156.8,0)"/>
<use xlink:href="#line_y" transform="translate(268.8,0)"/>
<use xlink:href="#line_y" transform="translate(380.8,0)"/>
<use xlink:href="#line_y" transform="translate(492.8,0)"/>
<use xlink:href="#line_y" transform="translate(604.8,0)"/>
<use xlink:href="#line_y" transform="translate(716.8,0)"/>
<use xlink:href="#line_y" transform="translate(828.8,0)"/>
<use xlink:href="#line_y" transform="translate(896.0,0)"/>
<use xlink:href="#line_x" transform="translate(0,587.2)"/>
<use xlink:href="#line_x" transform="translate(0,434.8)"/>
<use xlink:href="#line_x" transform="translate(0,282.5)"/>
<use xlink:href="#line_x" transform="translate(0,130.2)"/>
<use xlink:href="#tick_y" transform="translate(0,587.2)"/>
<use xlink:href="#tick_y" transform="translate(0,434.8)"/>
<use xlink:href="#tick_y" transform="translate(0,282.5)"/>
<use xlink:href="#tick_y" transform="translate(0,130.2)"/>
<use xlink:href="#tick_x" transform="translate(156.8,0)"/>
<use xlink:href="#tick_x" transform="translate(268.8,0)"/>
<use xlink:href="#tick_x" transform="translate(380.8,0)"/>
<use xlink:href="#tick_x" transform="translate(492.8,0)"/>
<use xlink:href="#tick_x" transform="translate(604.8,0)"/>
<use xlink:href="#tick_x" transform="translate(716.8,0)"/>
<use xlink:href="#tick_x" transform="translate(828.8,0)"/>
<use xlink:href="#tick_x" transform="translate(896.0,0)"/>
<polyline points="145.6,53.993 145.6,587.177 907.2,587.177" stroke="#808080" stroke-width="0.90" fill="none"/>
<text class="ticklabel xtl" transform="translate(156.8,629.0)" text-anchor="middle">1990</text>
<text class="ticklabel xtl" transform="translate(268.8,629.0)" text-anchor="middle">1995</text>
<text class="ticklabel xtl" transform="translate(380.8,629.0)" text-anchor="middle">2000</text>
<text class="ticklabel xtl" transform="translate(492.8,629.0)" text-anchor="middle">2005</text>
<text class="ticklabel xtl" transform="translate(604.8,629.0)" text-anchor="middle">2010</text>
<text class="ticklabel xtl" transform="translate(716.8,629.0)" text-anchor="middle">2015</text>
<text class="ticklabel xtl" transform="translate(828.8,629.0)" text-anchor="middle">2020</text>
<text class="ticklabel xtl" transform="translate(896.0,629.0)" text-anchor="middle">23</text>
<text class="ticklabel ytl" transform="translate(128.8,595.3)">0</text>
<text class="ticklabel ytl" transform="translate(128.8,442.9)">0.4</text>
<text class="ticklabel ytl" transform="translate(128.8,290.6)">0.8</text>
<text class="ticklabel ytl" transform="translate(128.8,138.3)">1.2 Mt</text>
<g stroke="#000" stroke-width="0.90" fill="#7FBF7F"  clip-path="url(#axis_clip)">
  <polygon points="147.8,91.1 147.8,98.9 165.8,98.9 165.8,91.1 147.8,91.1"/>
  <polygon points="170.2,84.8 170.2,92.7 188.2,92.7 188.2,84.8 170.2,84.8"/>
  <polygon points="192.6,91.0 192.6,99.0 210.6,99.0 210.6,91.0 192.6,91.0"/>
  <polygon points="215.0,97.9 215.0,105.8 233.0,105.8 233.0,97.9 215.0,97.9"/>
  <polygon points="237.4,113.8 237.4,121.8 255.4,121.8 255.4,113.8 237.4,113.8"/>
  <polygon points="259.8,125.2 259.8,133.2 277.8,133.2 277.8,125.2 259.8,125.2"/>
  <polygon points="282.2,135.5 282.2,143.6 300.2,143.6 300.2,135.5 282.2,135.5"/>
  <polygon points="304.6,160.7 304.6,168.8 322.6,168.8 322.6,160.7 304.6,160.7"/>
  <polygon points="327.0,171.9 327.0,180.0 345.0,180.0 345.0,171.9 327.0,171.9"/>
  <polygon points="349.4,191.3 349.4,199.5 367.4,199.5 367.4,191.3 349.4,191.3"/>
  <polygon points="371.8,208.3 371.8,216.4 389.8,216.4 389.8,208.3 371.8,208.3"/>
  <polygon points="394.2,218.3 394.2,226.4 412.2,226.4 412.2,218.3 394.2,218.3"/>
  <polygon points="416.6,235.6 416.6,243.8 434.6,243.8 434.6,235.6 416.6,235.6"/>
  <polygon points="439.0,247.5 439.0,255.7 457.0,255.7 457.0,247.5 439.0,247.5"/>
  <polygon points="461.4,253.5 461.4,261.8 479.4,261.8 479.4,253.5 461.4,253.5"/>
  <polygon points="483.8,275.9 483.8,284.2 501.8,284.2 501.8,275.9 483.8,275.9"/>
  <polygon points="506.2,283.0 506.2,291.3 524.2,291.3 524.2,283.0 506.2,283.0"/>
  <polygon points="528.6,282.6 528.6,291.0 546.6,291.0 546.6,282.6 528.6,282.6"/>
  <polygon points="551.0,279.5 551.0,287.9 569.0,287.9 569.0,279.5 551.0,279.5"/>
  <polygon points="573.4,282.3 573.4,290.7 591.4,290.7 591.4,282.3 573.4,282.3"/>
  <polygon points="595.8,283.5 595.8,291.9 613.8,291.9 613.8,283.5 595.8,283.5"/>
  <polygon points="618.2,292.2 618.2,300.5 636.2,300.5 636.2,292.2 618.2,292.2"/>
  <polygon points="640.6,298.5 640.6,306.8 658.6,306.8 658.6,298.5 640.6,298.5"/>
  <polygon points="663.0,299.0 663.0,307.3 681.0,307.3 681.0,299.0 663.0,299.0"/>
  <polygon points="685.4,305.7 685.4,314.0 703.4,314.0 703.4,305.7 685.4,305.7"/>
  <polygon points="707.8,302.7 707.8,311.0 725.8,311.0 725.8,302.7 707.8,302.7"/>
  <polygon points="730.2,300.9 730.2,309.1 748.2,309.1 748.2,300.9 730.2,300.9"/>
  <polygon points="752.6,305.9 752.6,314.1 770.6,314.1 770.6,305.9 752.6,305.9"/>
  <polygon points="775.0,315.3 775.0,323.4 793.0,323.4 793.0,315.3 775.0,315.3"/>
  <polygon points="797.4,317.3 797.4,325.5 815.4,325.5 815.4,317.3 797.4,317.3"/>
  <polygon points="819.8,321.5 819.8,329.6 837.8,329.6 837.8,321.5 819.8,321.5"/>
  <polygon points="842.2,325.6 842.2,333.7 860.2,333.7 860.2,325.6 842.2,325.6"/>
  <polygon points="864.6,334.2 864.6,342.2 882.6,342.2 882.6,334.2 864.6,334.2"/>
  <polygon points="887.0,336.4 887.0,344.4 905.0,344.4 905.0,336.4 887.0,336.4"/>
</g>
<g stroke="#000" stroke-width="0.90" fill="#DBA746"  clip-path="url(#axis_clip)">
  <polygon points="147.8,98.9 147.8,313.2 165.8,313.2 165.8,98.9 147.8,98.9"/>
  <polygon points="170.2,92.7 170.2,308.7 188.2,308.7 188.2,92.7 170.2,92.7"/>
  <polygon points="192.6,99.0 192.6,310.8 210.6,310.8 210.6,99.0 192.6,99.0"/>
  <polygon points="215.0,105.8 215.0,312.0 233.0,312.0 233.0,105.8 215.0,105.8"/>
  <polygon points="237.4,121.8 237.4,319.9 255.4,319.9 255.4,121.8 237.4,121.8"/>
  <polygon points="259.8,133.2 259.8,320.8 277.8,320.8 277.8,133.2 259.8,133.2"/>
  <polygon points="282.2,143.6 282.2,325.1 300.2,325.1 300.2,143.6 282.2,143.6"/>
  <polygon points="304.6,168.8 304.6,344.6 322.6,344.6 322.6,168.8 304.6,168.8"/>
  <polygon points="327.0,180.0 327.0,348.7 345.0,348.7 345.0,180.0 327.0,180.0"/>
  <polygon points="349.4,199.5 349.4,354.1 367.4,354.1 367.4,199.5 349.4,199.5"/>
  <polygon points="371.8,216.4 371.8,362.1 389.8,362.1 389.8,216.4 371.8,216.4"/>
  <polygon points="394.2,226.4 394.2,363.7 412.2,363.7 412.2,226.4 394.2,226.4"/>
  <polygon points="416.6,243.8 416.6,373.9 434.6,373.9 434.6,243.8 416.6,243.8"/>
  <polygon points="439.0,255.7 439.0,377.3 457.0,377.3 457.0,255.7 439.0,255.7"/>
  <polygon points="461.4,261.8 461.4,378.3 479.4,378.3 479.4,261.8 461.4,261.8"/>
  <polygon points="483.8,284.2 483.8,377.8 501.8,377.8 501.8,284.2 483.8,284.2"/>
  <polygon points="506.2,291.3 506.2,377.8 524.2,377.8 524.2,291.3 506.2,291.3"/>
  <polygon points="528.6,291.0 528.6,371.2 546.6,371.2 546.6,291.0 528.6,291.0"/>
  <polygon points="551.0,287.9 551.0,362.6 569.0,362.6 569.0,287.9 551.0,287.9"/>
  <polygon points="573.4,290.7 573.4,362.0 591.4,362.0 591.4,290.7 573.4,290.7"/>
  <polygon points="595.8,291.9 595.8,358.1 613.8,358.1 613.8,291.9 595.8,291.9"/>
  <polygon points="618.2,300.5 618.2,362.6 636.2,362.6 636.2,300.5 618.2,300.5"/>
  <polygon points="640.6,306.8 640.6,365.3 658.6,365.3 658.6,306.8 640.6,306.8"/>
  <polygon points="663.0,307.3 663.0,362.5 681.0,362.5 681.0,307.3 663.0,307.3"/>
  <polygon points="685.4,314.0 685.4,365.5 703.4,365.5 703.4,314.0 685.4,314.0"/>
  <polygon points="707.8,311.0 707.8,359.2 725.8,359.2 725.8,311.0 707.8,311.0"/>
  <polygon points="730.2,309.1 730.2,354.7 748.2,354.7 748.2,309.1 730.2,309.1"/>
  <polygon points="752.6,314.1 752.6,356.5 770.6,356.5 770.6,314.1 752.6,314.1"/>
  <polygon points="775.0,323.4 775.0,364.3 793.0,364.3 793.0,323.4 775.0,323.4"/>
  <polygon points="797.4,325.5 797.4,364.5 815.4,364.5 815.4,325.5 797.4,325.5"/>
  <polygon points="819.8,329.6 819.8,366.0 837.8,366.0 837.8,329.6 819.8,329.6"/>
  <polygon points="842.2,333.7 842.2,368.3 860.2,368.3 860.2,333.7 842.2,333.7"/>
  <polygon points="864.6,342.2 864.6,374.5 882.6,374.5 882.6,342.2 864.6,342.2"/>
  <polygon points="887.0,344.4 887.0,375.1 905.0,375.1 905.0,344.4 887.0,344.4"/>
</g>
<g stroke="#000" stroke-width="0.90" fill="#845F48"  clip-path="url(#axis_clip)">
  <polygon points="147.8,313.2 147.8,537.5 165.8,537.5 165.8,313.2 147.8,313.2"/>
  <polygon points="170.2,308.7 170.2,536.2 188.2,536.2 188.2,308.7 170.2,308.7"/>
  <polygon points="192.6,310.8 192.6,536.5 210.6,536.5 210.6,310.8 192.6,310.8"/>
  <polygon points="215.0,312.0 215.0,535.6 233.0,535.6 233.0,312.0 215.0,312.0"/>
  <polygon points="237.4,319.9 237.4,535.3 255.4,535.3 255.4,319.9 237.4,319.9"/>
  <polygon points="259.8,320.8 259.8,533.8 277.8,533.8 277.8,320.8 259.8,320.8"/>
  <polygon points="282.2,325.1 282.2,532.7 300.2,532.7 300.2,325.1 282.2,325.1"/>
  <polygon points="304.6,344.6 304.6,543.0 322.6,543.0 322.6,344.6 304.6,344.6"/>
  <polygon points="327.0,348.7 327.0,544.7 345.0,544.7 345.0,348.7 327.0,348.7"/>
  <polygon points="349.4,354.1 349.4,547.6 367.4,547.6 367.4,354.1 349.4,354.1"/>
  <polygon points="371.8,362.1 371.8,549.1 389.8,549.1 389.8,362.1 371.8,362.1"/>
  <polygon points="394.2,363.7 394.2,549.4 412.2,549.4 412.2,363.7 394.2,363.7"/>
  <polygon points="416.6,373.9 416.6,550.0 434.6,550.0 434.6,373.9 416.6,373.9"/>
  <polygon points="439.0,377.3 439.0,550.1 457.0,550.1 457.0,377.3 439.0,377.3"/>
  <polygon points="461.4,378.3 461.4,550.9 479.4,550.9 479.4,378.3 461.4,378.3"/>
  <polygon points="483.8,377.8 483.8,549.4 501.8,549.4 501.8,377.8 483.8,377.8"/>
  <polygon points="506.2,377.8 506.2,549.4 524.2,549.4 524.2,377.8 506.2,377.8"/>
  <polygon points="528.6,371.2 528.6,544.0 546.6,544.0 546.6,371.2 528.6,371.2"/>
  <polygon points="551.0,362.6 551.0,538.0 569.0,538.0 569.0,362.6 551.0,362.6"/>
  <polygon points="573.4,362.0 573.4,539.5 591.4,539.5 591.4,362.0 573.4,362.0"/>
  <polygon points="595.8,358.1 595.8,536.0 613.8,536.0 613.8,358.1 595.8,358.1"/>
  <polygon points="618.2,362.6 618.2,538.6 636.2,538.6 636.2,362.6 618.2,362.6"/>
  <polygon points="640.6,365.3 640.6,540.5 658.6,540.5 658.6,365.3 640.6,365.3"/>
  <polygon points="663.0,362.5 663.0,541.7 681.0,541.7 681.0,362.5 663.0,362.5"/>
  <polygon points="685.4,365.5 685.4,546.1 703.4,546.1 703.4,365.5 685.4,365.5"/>
  <polygon points="707.8,359.2 707.8,546.2 725.8,546.2 725.8,359.2 707.8,359.2"/>
  <polygon points="730.2,354.7 730.2,547.5 748.2,547.5 748.2,354.7 730.2,354.7"/>
  <polygon points="752.6,356.5 752.6,547.3 770.6,547.3 770.6,356.5 752.6,356.5"/>
  <polygon points="775.0,364.3 775.0,547.9 793.0,547.9 793.0,364.3 775.0,364.3"/>
  <polygon points="797.4,364.5 797.4,546.2 815.4,546.2 815.4,364.5 797.4,364.5"/>
  <polygon points="819.8,366.0 819.8,546.8 837.8,546.8 837.8,366.0 819.8,366.0"/>
  <polygon points="842.2,368.3 842.2,545.8 860.2,545.8 860.2,368.3 842.2,368.3"/>
  <polygon points="864.6,374.5 864.6,553.2 882.6,553.2 882.6,374.5 864.6,374.5"/>
  <polygon points="887.0,375.1 887.0,552.5 905.0,552.5 905.0,375.1 887.0,375.1"/>
</g>
<g stroke="#000" stroke-width="0.90" fill="#4A89E8"  clip-path="url(#axis_clip)">
  <polygon points="147.8,537.5 147.8,542.5 165.8,542.5 165.8,537.5 147.8,537.5"/>
  <polygon points="170.2,536.2 170.2,541.2 188.2,541.2 188.2,536.2 170.2,536.2"/>
  <polygon points="192.6,536.5 192.6,541.6 210.6,541.6 210.6,536.5 192.6,536.5"/>
  <polygon points="215.0,535.6 215.0,540.6 233.0,540.6 233.0,535.6 215.0,535.6"/>
  <polygon points="237.4,535.3 237.4,540.3 255.4,540.3 255.4,535.3 237.4,535.3"/>
  <polygon points="259.8,533.8 259.8,538.7 277.8,538.7 277.8,533.8 259.8,533.8"/>
  <polygon points="282.2,532.7 282.2,537.6 300.2,537.6 300.2,532.7 282.2,532.7"/>
  <polygon points="304.6,543.0 304.6,547.9 322.6,547.9 322.6,543.0 304.6,543.0"/>
  <polygon points="327.0,544.7 327.0,549.6 345.0,549.6 345.0,544.7 327.0,544.7"/>
  <polygon points="349.4,547.6 349.4,552.8 367.4,552.8 367.4,547.6 349.4,547.6"/>
  <polygon points="371.8,549.1 371.8,554.3 389.8,554.3 389.8,549.1 371.8,549.1"/>
  <polygon points="394.2,549.4 394.2,554.5 412.2,554.5 412.2,549.4 394.2,549.4"/>
  <polygon points="416.6,550.0 416.6,555.7 434.6,555.7 434.6,550.0 416.6,550.0"/>
  <polygon points="439.0,550.1 439.0,555.8 457.0,555.8 457.0,550.1 439.0,550.1"/>
  <polygon points="461.4,550.9 461.4,556.6 479.4,556.6 479.4,550.9 461.4,550.9"/>
  <polygon points="483.8,549.4 483.8,555.1 501.8,555.1 501.8,549.4 483.8,549.4"/>
  <polygon points="506.2,549.4 506.2,554.6 524.2,554.6 524.2,549.4 506.2,549.4"/>
  <polygon points="528.6,544.0 528.6,549.3 546.6,549.3 546.6,544.0 528.6,544.0"/>
  <polygon points="551.0,538.0 551.0,543.2 569.0,543.2 569.0,538.0 551.0,538.0"/>
  <polygon points="573.4,539.5 573.4,544.5 591.4,544.5 591.4,539.5 573.4,539.5"/>
  <polygon points="595.8,536.0 595.8,541.3 613.8,541.3 613.8,536.0 595.8,536.0"/>
  <polygon points="618.2,538.6 618.2,543.8 636.2,543.8 636.2,538.6 618.2,538.6"/>
  <polygon points="640.6,540.5 640.6,545.7 658.6,545.7 658.6,540.5 640.6,540.5"/>
  <polygon points="663.0,541.7 663.0,546.9 681.0,546.9 681.0,541.7 663.0,541.7"/>
  <polygon points="685.4,546.1 685.4,551.4 703.4,551.4 703.4,546.1 685.4,546.1"/>
  <polygon points="707.8,546.2 707.8,551.5 725.8,551.5 725.8,546.2 707.8,546.2"/>
  <polygon points="730.2,547.5 730.2,552.8 748.2,552.8 748.2,547.5 730.2,547.5"/>
  <polygon points="752.6,547.3 752.6,552.7 770.6,552.7 770.6,547.3 752.6,547.3"/>
  <polygon points="775.0,547.9 775.0,553.2 793.0,553.2 793.0,547.9 775.0,547.9"/>
  <polygon points="797.4,546.2 797.4,551.7 815.4,551.7 815.4,546.2 797.4,546.2"/>
  <polygon points="819.8,546.8 819.8,552.7 837.8,552.7 837.8,546.8 819.8,546.8"/>
  <polygon points="842.2,545.8 842.2,551.5 860.2,551.5 860.2,545.8 842.2,545.8"/>
  <polygon points="864.6,553.2 864.6,558.9 882.6,558.9 882.6,553.2 864.6,553.2"/>
  <polygon points="887.0,552.5 887.0,558.1 905.0,558.1 905.0,552.5 887.0,552.5"/>
</g>
<g stroke="#000" stroke-width="0.90" fill="#FF7F61"  clip-path="url(#axis_clip)">
  <polygon points="147.8,542.5 147.8,587.2 165.8,587.2 165.8,542.5 147.8,542.5"/>
  <polygon points="170.2,541.2 170.2,587.2 188.2,587.2 188.2,541.2 170.2,541.2"/>
  <polygon points="192.6,541.6 192.6,587.2 210.6,587.2 210.6,541.6 192.6,541.6"/>
  <polygon points="215.0,540.6 215.0,587.2 233.0,587.2 233.0,540.6 215.0,540.6"/>
  <polygon points="237.4,540.3 237.4,587.2 255.4,587.2 255.4,540.3 237.4,540.3"/>
  <polygon points="259.8,538.7 259.8,587.2 277.8,587.2 277.8,538.7 259.8,538.7"/>
  <polygon points="282.2,537.6 282.2,587.2 300.2,587.2 300.2,537.6 282.2,537.6"/>
  <polygon points="304.6,547.9 304.6,587.2 322.6,587.2 322.6,547.9 304.6,547.9"/>
  <polygon points="327.0,549.6 327.0,587.2 345.0,587.2 345.0,549.6 327.0,549.6"/>
  <polygon points="349.4,552.8 349.4,587.2 367.4,587.2 367.4,552.8 349.4,552.8"/>
  <polygon points="371.8,554.3 371.8,587.2 389.8,587.2 389.8,554.3 371.8,554.3"/>
  <polygon points="394.2,554.5 394.2,587.2 412.2,587.2 412.2,554.5 394.2,554.5"/>
  <polygon points="416.6,555.7 416.6,587.2 434.6,587.2 434.6,555.7 416.6,555.7"/>
  <polygon points="439.0,555.8 439.0,587.2 457.0,587.2 457.0,555.8 439.0,555.8"/>
  <polygon points="461.4,556.6 461.4,587.2 479.4,587.2 479.4,556.6 461.4,556.6"/>
  <polygon points="483.8,555.1 483.8,587.2 501.8,587.2 501.8,555.1 483.8,555.1"/>
  <polygon points="506.2,554.6 506.2,587.2 524.2,587.2 524.2,554.6 506.2,554.6"/>
  <polygon points="528.6,549.3 528.6,587.2 546.6,587.2 546.6,549.3 528.6,549.3"/>
  <polygon points="551.0,543.2 551.0,587.2 569.0,587.2 569.0,543.2 551.0,543.2"/>
  <polygon points="573.4,544.5 573.4,587.2 591.4,587.2 591.4,544.5 573.4,544.5"/>
  <polygon points="595.8,541.3 595.8,587.2 613.8,587.2 613.8,541.3 595.8,541.3"/>
  <polygon points="618.2,543.8 618.2,587.2 636.2,587.2 636.2,543.8 618.2,543.8"/>
  <polygon points="640.6,545.7 640.6,587.2 658.6,587.2 658.6,545.7 640.6,545.7"/>
  <polygon points="663.0,546.9 663.0,587.2 681.0,587.2 681.0,546.9 663.0,546.9"/>
  <polygon points="685.4,551.4 685.4,587.2 703.4,587.2 703.4,551.4 685.4,551.4"/>
  <polygon points="707.8,551.5 707.8,587.2 725.8,587.2 725.8,551.5 707.8,551.5"/>
  <polygon points="730.2,552.8 730.2,587.2 748.2,587.2 748.2,552.8 730.2,552.8"/>
  <polygon points="752.6,552.7 752.6,587.2 770.6,587.2 770.6,552.7 752.6,552.7"/>
  <polygon points="775.0,553.2 775.0,587.2 793.0,587.2 793.0,553.2 775.0,553.2"/>
  <polygon points="797.4,551.7 797.4,587.2 815.4,587.2 815.4,551.7 797.4,551.7"/>
  <polygon points="819.8,552.7 819.8,587.2 837.8,587.2 837.8,552.7 819.8,552.7"/>
  <polygon points="842.2,551.5 842.2,587.2 860.2,587.2 860.2,551.5 842.2,551.5"/>
  <polygon points="864.6,558.9 864.6,587.2 882.6,587.2 882.6,558.9 864.6,558.9"/>
  <polygon points="887.0,558.1 887.0,587.2 905.0,587.2 905.0,558.1 887.0,558.1"/>
</g>
<polyline class="pl" points="156.8,91.1 179.2,84.8 201.6,91.0 224.0,97.9 246.4,113.8 268.8,125.2 291.2,135.5 313.6,160.7 336.0,171.9 358.4,191.3 380.8,208.3 403.2,218.3 425.6,235.6 448.0,247.5 470.4,253.5 492.8,275.9 515.2,283.0 537.6,282.6 560.0,279.5 582.4,282.3 604.8,283.5 627.2,292.2 649.6,298.5 672.0,299.0 694.4,305.7 716.8,302.7 739.2,300.9 761.6,305.9 784.0,315.3 806.4,317.3 828.8,321.5 851.2,325.6 873.6,334.2 896.0,336.4" stroke="#000" stroke-width="5.40" stroke-opacity="1.00" fill="none" clip-path="url(#axis_clip)"/>
<g class="pl" fill="#FFF" stroke="#000" stroke-width="0.900">
  <circle cx="179.2" cy="84.8" r="2.2" />
  <circle cx="201.6" cy="91.0" r="2.2" />
  <circle cx="224.0" cy="97.9" r="2.2" />
  <circle cx="246.4" cy="113.8" r="2.2" />
  <circle cx="268.8" cy="125.2" r="2.2" />
  <circle cx="291.2" cy="135.5" r="2.2" />
  <circle cx="313.6" cy="160.7" r="2.2" />
  <circle cx="336.0" cy="171.9" r="2.2" />
  <circle cx="358.4" cy="191.3" r="2.2" />
  <circle cx="403.2" cy="218.3" r="2.2" />
  <circle cx="425.6" cy="235.6" r="2.2" />
  <circle cx="448.0" cy="247.5" r="2.2" />
  <circle cx="470.4" cy="253.5" r="2.2" />
  <circle cx="492.8" cy="275.9" r="2.2" />
  <circle cx="515.2" cy="283.0" r="2.2" />
  <circle cx="537.6" cy="282.6" r="2.2" />
  <circle cx="560.0" cy="279.5" r="2.2" />
  <circle cx="582.4" cy="282.3" r="2.2" />
  <circle cx="627.2" cy="292.2" r="2.2" />
  <circle cx="649.6" cy="298.5" r="2.2" />
  <circle cx="672.0" cy="299.0" r="2.2" />
  <circle cx="694.4" cy="305.7" r="2.2" />
  <circle cx="716.8" cy="302.7" r="2.2" />
  <circle cx="739.2" cy="300.9" r="2.2" />
  <circle cx="761.6" cy="305.9" r="2.2" />
  <circle cx="784.0" cy="315.3" r="2.2" />
  <circle cx="806.4" cy="317.3" r="2.2" />
  <circle cx="851.2" cy="325.6" r="2.2" />
  <circle cx="873.6" cy="334.2" r="2.2" />
  <circle cx="896.0" cy="336.4" r="2.2" />
</g>
<g class="pl" fill="#FFF" stroke="#000" stroke-width="0.900">
  <circle cx="156.8" cy="91.1" r="5.4" />
  <circle cx="380.8" cy="208.3" r="5.4" />
  <circle cx="604.8" cy="283.5" r="5.4" />
  <circle cx="828.8" cy="321.5" r="5.4" />
</g>
<text transform="translate(145.6,47.2)" dy="0.0" font-size="27.00" fill="#808080" stroke="none">Annual CH<tspan dy="0.2em"><tspan style="font-size:70%">4</tspan></tspan><tspan dy="-0.2em"> </tspan>Emissions: Netherlands</text>
<text transform="translate(130.0,157.8)" dy="8.1" font-size="27.00" fill="#808080" stroke="none" text-anchor="end">CH<tspan dy="0.2em"><tspan style="font-size:70%">4</tspan></tspan><tspan dy="-0.2em"></tspan></text>
<text transform="translate(945.6,320.5)" dy="7.6" font-size="25.20" fill="#000" stroke="none">-49.4% since 1990</text>
<text transform="translate(945.6,576.5)" dy="7.6" font-size="25.20" fill="#FF7F61" stroke="none">Energy</text>
<text transform="translate(945.6,551.5)" dy="7.6" font-size="25.20" fill="#4A89E8" stroke="none">Industrial Processes</text>
<text transform="translate(945.6,463.8)" dy="7.6" font-size="25.20" fill="#845F48" stroke="none">Agriculture</text>
<text transform="translate(945.6,370.5)" dy="7.6" font-size="25.20" fill="#DBA746" stroke="none">Waste</text>
<text transform="translate(945.6,345.5)" dy="7.6" font-size="25.20" fill="#7FBF7F" stroke="none">LULUCF</text>
<polyline class="pl" points="910.8,336.4 912.4,336.3 913.8,336.2 915.2,335.9 916.4,335.6 917.6,335.1 918.8,334.6 919.8,334.0 920.8,333.4 921.7,332.7 922.7,332.0 923.5,331.2 924.4,330.5 925.2,329.7 926.0,328.8 926.8,328.0 927.6,327.2 928.4,326.4 929.3,325.6 930.1,324.8 931.1,324.1 932.0,323.4 933.0,322.8 934.0,322.2 935.2,321.7 936.4,321.3 937.6,320.9 939.0,320.7 940.4,320.5 942.0,320.5" stroke="#000" stroke-width="0.90" stroke-opacity="1.00" fill="none" />
<polyline class="pl" points="910.8,572.7 912.4,572.7 913.8,572.7 915.2,572.8 916.4,572.9 917.6,573.0 918.8,573.1 919.8,573.2 920.8,573.4 921.7,573.5 922.7,573.7 923.5,573.9 924.4,574.1 925.2,574.3 926.0,574.5 926.8,574.7 927.6,574.9 928.4,575.1 929.3,575.3 930.1,575.4 931.1,575.6 932.0,575.8 933.0,575.9 934.0,576.1 935.2,576.2 936.4,576.3 937.6,576.4 939.0,576.4 940.4,576.5 942.0,576.5" stroke="#FF7F61" stroke-width="0.90" stroke-opacity="1.00" fill="none" />
<polyline class="pl" points="910.8,555.3 912.4,555.3 913.8,555.2 915.2,555.2 916.4,555.1 917.6,555.0 918.8,554.9 919.8,554.7 920.8,554.6 921.7,554.4 922.7,554.2 923.5,554.1 924.4,553.9 925.2,553.7 926.0,553.5 926.8,553.3 927.6,553.1 928.4,552.9 929.3,552.7 930.1,552.5 931.1,552.3 932.0,552.2 933.0,552.0 934.0,551.9 935.2,551.8 936.4,551.7 937.6,551.6 939.0,551.5 940.4,551.5 942.0,551.5" stroke="#4A89E8" stroke-width="0.90" stroke-opacity="1.00" fill="none" />
<polyline class="pl" points="910.8,359.8 912.4,359.8 913.8,359.9 915.2,360.1 916.4,360.3 917.6,360.6 918.8,361.0 919.8,361.3 920.8,361.8 921.7,362.2 922.7,362.7 923.5,363.2 924.4,363.8 925.2,364.3 926.0,364.9 926.8,365.4 927.6,366.0 928.4,366.5 929.3,367.1 930.1,367.6 931.1,368.1 932.0,368.5 933.0,369.0 934.0,369.4 935.2,369.7 936.4,370.0 937.6,370.2 939.0,370.4 940.4,370.5 942.0,370.5" stroke="#DBA746" stroke-width="0.90" stroke-opacity="1.00" fill="none" />
<polyline class="pl" points="910.8,340.4 912.4,340.4 913.8,340.4 915.2,340.5 916.4,340.6 917.6,340.8 918.8,340.9 919.8,341.1 920.8,341.3 921.7,341.6 922.7,341.8 923.5,342.0 924.4,342.3 925.2,342.5 926.0,342.8 926.8,343.1 927.6,343.3 928.4,343.6 929.3,343.9 930.1,344.1 931.1,344.3 932.0,344.6 933.0,344.8 934.0,344.9 935.2,345.1 936.4,345.2 937.6,345.4 939.0,345.4 940.4,345.5 942.0,345.5" stroke="#7FBF7F" stroke-width="0.90" stroke-opacity="1.00" fill="none" />
<text transform="translate(160.0,666.1)" font-size="19.80" font-family="Helvetica" fill="#BFBFBF" stroke="none" xml:space="preserve">CICERO   &#9679;   Data: UNFCCC (2025)</text>
<g>
  <rect x="123.0" y="651.4" width="34" height="17" fill="#FFF" stroke="none" opacity="0.01"/>
  <g transform="translate(124.0,652.4) scale(0.24)">
  <g><circle fill="#FFF" cx="37.79" cy="28.5" r="28.84"/>
     <circle fill="none" cx="37.79" cy="28.5" r="28.84" stroke="#BFBFBF" stroke-width="5.5"/>
     <path fill="#BFBFBF" d="M37.16,23.19 l-4.29,2.23c-0.458-0.951-1.02-1.62-1.69-2c-0.667-0.38-1.29-0.571-1.86-0.571c-2.86,0-4.29,1.89-4.29,5.66 c0,1.71,0.36,3.08,1.09,4.11c0.724,1.03,1.79,1.54,3.2,1.54c1.87,0,3.18-0.915,3.94-2.74l3.94,2 c-0.838,1.56-2,2.79-3.49,3.69c-1.48,0.896-3.12,1.34-4.91,1.34c-2.86,0-5.16-0.875-6.92-2.63 c-1.75-1.75-2.63-4.19-2.63-7.31c0-3.05,0.886-5.47,2.66-7.26c1.77-1.79,4.01-2.69,6.72-2.69 C32.6,18.56,35.44,20.1,37.16,23.19z
              M55.61,23.19l-4.23,2.23c-0.457-0.951-1.02-1.62-1.69-2 c-0.668-0.38-1.31-0.571-1.91-0.571c-2.86,0-4.29,1.89-4.29,5.66c0,1.71,0.363,3.08,1.09,4.11 c0.723,1.03,1.79,1.54,3.2,1.54c1.87,0,3.18-0.915,3.94-2.74l4,2c-0.875,1.56-2.06,2.79-3.54,3.69 c-1.49,0.9-3.11,1.34-4.86,1.34c-2.9,0-5.21-0.875-6.94-2.63c-1.74-1.75-2.6-4.19-2.6-7.31 c0-3.05,0.885-5.47,2.66-7.26c1.77-1.79,4.01-2.69,6.71-2.69C51.12,18.56,53.944,20.1,55.61,23.19z"/>
  </g></g>
  <g transform="translate(140.2,652.4) scale(0.24)">
  <g><circle fill="#FFF" cx="37.79" cy="28.5" r="28.84"/>
     <circle fill="none" cx="37.79" cy="28.5" r="28.84" stroke="#BFBFBF" stroke-width="5.5"/>
     <path fill="#BFBFBF" d="M46.129,20.557v13.085h-3.656v15.542h-9.944V33.643h-3.656V20.557 c0-0.572,0.2-1.057,0.599-1.457c0.401-0.399,0.887-0.6,1.457-0.6h13.144c0.533,0,1.01,0.2,1.428,0.6 C45.918,19.5,46.129,19.986,46.129,20.557z
              M33.042,12.329c0-3.008,1.485-4.514,4.458-4.514s4.457,1.504,4.457,4.514 c0,2.971-1.486,4.457-4.457,4.457S33.042,15.3,33.042,12.329z"/>
  </g></g>
</g>
</g>
</svg>
