<svg version="1.1" xmlns="http://www.w3.org/2000/svg" xmlns:xlink="http://www.w3.org/1999/xlink" width="100%" height="100%" viewBox="0 0 1200.000 674.916">
<title>Annual CH4 Emissions: Indonesia</title>
<style type="text/css">
  #main {font-family:Helvetica,Arial,sans-serif; font-size:27.00px;
         fill-opacity:1; fill:#000000; stroke:none; stroke-linejoin:round; stroke-linecap:round; stroke-width:1.00;}
  .marker {stroke-opacity:0;fill-opacity:0;}
  .marker:hover {stroke-opacity:0.5; fill-opacity:1;}
  .ticklabel {font-size:27.00px;fill:#808080;stroke:none;font-family:Helvetica}
  .ytl {text-anchor:end;}
  .dp1 {pointer-events:none;font-size:70%;text-anchor:middle;fill:#000000;}
  .dp2 {pointer-events:none;font-size:70%;text-anchor:middle;fill:#FFFFFF;}
  .numtip {pointer-events:none;}
  .cc {opacity:0.25;}
.dl_fe {background-color:#FDFFDF;display:flex;margin:auto;align-items:center}
.dl_fe_p {font-size:20px;text-align:center;margin:3px}
.dl_el {display:none;pointer-events:none;}
.cc:hover + .dl_el {display:block;}
text:hover + .dl_el {display:block;}
</style>
<defs>
  <clipPath id="axis_clip"><rect x="145.8" y="54.2" width="761.2" height="532.8" /></clipPath>
  <path id="line_y" d="M 0,53.993 v 533.183" stroke="#262626" stroke-opacity="0.15" stroke-width="1.00"/>
  <path id="line_x" d="M 145.600,0 h 761.600" stroke="#262626" stroke-opacity="0.15" stroke-width="1.00"/>
  <path id="tick_y" d="M 145.600,0 h -6.000" stroke="#808080" stroke-width="0.90"/>
  <path id="tick_x" d="M 0,587.177 v 6.000" stroke="#808080" stroke-width="0.90"/>
</defs>
<g id="main">
<use xlink:href="#line_y" transform="translate(162.2,0)"/>
<use xlink:href="#line_y" transform="translate(327.7,0)"/>
<use xlink:href="#line_y" transform="translate(493.3,0)"/>
<use xlink:href="#line_y" transform="translate(658.9,0)"/>
<use xlink:href="#line_y" transform="translate(824.4,0)"/>
<use xlink:href="#line_y" transform="translate(890.6,0)"/>
<use xlink:href="#line_x" transform="translate(0,587.2)"/>
<use xlink:href="#line_x" transform="translate(0,498.3)"/>
<use xlink:href="#line_x" transform="translate(0,409.4)"/>
<use xlink:href="#line_x" transform="translate(0,320.6)"/>
<use xlink:href="#line_x" transform="translate(0,231.7)"/>
<use xlink:href="#line_x" transform="translate(0,142.9)"/>
<use xlink:href="#line_x" transform="translate(0,54.0)"/>
<use xlink:href="#tick_y" transform="translate(0,587.2)"/>
<use xlink:href="#tick_y" transform="translate(0,498.3)"/>
<use xlink:href="#tick_y" transform="translate(0,409.4)"/>
<use xlink:href="#tick_y" transform="translate(0,320.6)"/>
<use xlink:href="#tick_y" transform="translate(0,231.7)"/>
<use xlink:href="#tick_y" transform="translate(0,142.9)"/>
<use xlink:href="#tick_y" transform="translate(0,54.0)"/>
<use xlink:href="#tick_x" transform="translate(162.2,0)"/>
<use xlink:href="#tick_x" transform="translate(327.7,0)"/>
<use xlink:href="#tick_x" transform="translate(493.3,0)"/>
<use xlink:href="#tick_x" transform="translate(658.9,0)"/>
<use xlink:href="#tick_x" transform="translate(824.4,0)"/>
<use xlink:href="#tick_x" transform="translate(890.6,0)"/>
<polyline points="145.6,53.993 145.6,587.177 907.2,587.177" stroke="#808080" stroke-width="0.90" fill="none"/>
<text class="ticklabel xtl" transform="translate(162.2,629.0)" text-anchor="middle">2000</text>
<text class="ticklabel xtl" transform="translate(327.7,629.0)" text-anchor="middle">2005</text>
<text class="ticklabel xtl" transform="translate(493.3,629.0)" text-anchor="middle">2010</text>
<text class="ticklabel xtl" transform="translate(658.9,629.0)" text-anchor="middle">2015</text>
<text class="ticklabel xtl" transform="translate(824.4,629.0)" text-anchor="middle">2020</text>
<text class="ticklabel xtl" transform="translate(890.6,629.0)" text-anchor="middle">22</text>
<text class="ticklabel ytl" transform="translate(128.8,595.3)">0</text>
<text class="ticklabel ytl" transform="translate(128.8,506.4)">2</text>
<text class="ticklabel ytl" transform="translate(128.8,417.5)">4</text>
<text class="ticklabel ytl" transform="translate(128.8,328.7)">6</text>
<text class="ticklabel ytl" transform="translate(128.8,239.8)">8</text>
<text class="ticklabel ytl" transform="translate(128.8,151.0)">10</text>
<text class="ticklabel ytl" transform="translate(128.8,62.1)">12 Mt</text>
<g stroke="#000" stroke-width="0.90" fill="#7FBF7F"  clip-path="url(#axis_clip)">
  <polygon points="148.9,307.5 148.9,315.0 175.4,315.0 175.4,307.5 148.9,307.5"/>
  <polygon points="182.0,294.0 182.0,313.7 208.5,313.7 208.5,294.0 182.0,294.0"/>
  <polygon points="215.1,270.2 215.1,307.5 241.6,307.5 241.6,270.2 215.1,270.2"/>
  <polygon points="248.3,275.9 248.3,303.3 274.7,303.3 274.7,275.9 248.3,275.9"/>
  <polygon points="281.4,253.2 281.4,305.3 307.9,305.3 307.9,253.2 281.4,253.2"/>
  <polygon points="314.5,261.3 314.5,302.2 341.0,302.2 341.0,261.3 314.5,261.3"/>
  <polygon points="347.6,128.2 347.6,284.2 374.1,284.2 374.1,128.2 347.6,128.2"/>
  <polygon points="380.7,261.8 380.7,288.8 407.2,288.8 407.2,261.8 380.7,261.8"/>
  <polygon points="413.8,282.3 413.8,298.9 440.3,298.9 440.3,282.3 413.8,282.3"/>
  <polygon points="446.9,261.1 446.9,307.1 473.4,307.1 473.4,261.1 446.9,261.1"/>
  <polygon points="480.0,268.4 480.0,286.8 506.5,286.8 506.5,268.4 480.0,268.4"/>
  <polygon points="513.2,252.3 513.2,276.5 539.6,276.5 539.6,252.3 513.2,252.3"/>
  <polygon points="546.3,221.0 546.3,279.2 572.8,279.2 572.8,221.0 546.3,221.0"/>
  <polygon points="579.4,256.7 579.4,279.4 605.9,279.4 605.9,256.7 579.4,256.7"/>
  <polygon points="612.5,183.7 612.5,270.4 639.0,270.4 639.0,183.7 612.5,183.7"/>
  <polygon points="645.6,144.8 645.6,245.6 672.1,245.6 672.1,144.8 645.6,144.8"/>
  <polygon points="678.7,224.6 678.7,245.0 705.2,245.0 705.2,224.6 678.7,224.6"/>
  <polygon points="711.8,231.7 711.8,242.2 738.3,242.2 738.3,231.7 711.8,231.7"/>
  <polygon points="744.9,225.1 744.9,251.3 771.4,251.3 771.4,225.1 744.9,225.1"/>
  <polygon points="778.1,152.0 778.1,227.7 804.5,227.7 804.5,152.0 778.1,152.0"/>
  <polygon points="811.2,215.4 811.2,229.9 837.7,229.9 837.7,215.4 811.2,215.4"/>
  <polygon points="844.3,192.9 844.3,203.5 870.8,203.5 870.8,192.9 844.3,192.9"/>
  <polygon points="877.4,189.7 877.4,204.0 903.9,204.0 903.9,189.7 877.4,189.7"/>
</g>
<g stroke="#000" stroke-width="0.90" fill="#DBA746"  clip-path="url(#axis_clip)">
  <polygon points="148.9,315.0 148.9,402.8 175.4,402.8 175.4,315.0 148.9,315.0"/>
  <polygon points="182.0,313.7 182.0,406.1 208.5,406.1 208.5,313.7 182.0,313.7"/>
  <polygon points="215.1,307.5 215.1,403.9 241.6,403.9 241.6,307.5 215.1,307.5"/>
  <polygon points="248.3,303.3 248.3,404.5 274.7,404.5 274.7,303.3 248.3,303.3"/>
  <polygon points="281.4,305.3 281.4,407.8 307.9,407.8 307.9,305.3 281.4,305.3"/>
  <polygon points="314.5,302.2 314.5,407.7 341.0,407.7 341.0,302.2 314.5,302.2"/>
  <polygon points="347.6,284.2 347.6,400.3 374.1,400.3 374.1,284.2 347.6,284.2"/>
  <polygon points="380.7,288.8 380.7,403.9 407.2,403.9 407.2,288.8 380.7,288.8"/>
  <polygon points="413.8,298.9 413.8,414.7 440.3,414.7 440.3,298.9 413.8,298.9"/>
  <polygon points="446.9,307.1 446.9,428.0 473.4,428.0 473.4,307.1 446.9,307.1"/>
  <polygon points="480.0,286.8 480.0,420.0 506.5,420.0 506.5,286.8 480.0,286.8"/>
  <polygon points="513.2,276.5 513.2,406.0 539.6,406.0 539.6,276.5 513.2,276.5"/>
  <polygon points="546.3,279.2 546.3,412.3 572.8,412.3 572.8,279.2 546.3,279.2"/>
  <polygon points="579.4,279.4 579.4,423.1 605.9,423.1 605.9,279.4 579.4,279.4"/>
  <polygon points="612.5,270.4 612.5,418.7 639.0,418.7 639.0,270.4 612.5,270.4"/>
  <polygon points="645.6,245.6 645.6,396.2 672.1,396.2 672.1,245.6 645.6,245.6"/>
  <polygon points="678.7,245.0 678.7,402.2 705.2,402.2 705.2,245.0 678.7,245.0"/>
  <polygon points="711.8,242.2 711.8,414.2 738.3,414.2 738.3,242.2 711.8,242.2"/>
  <polygon points="744.9,251.3 744.9,435.4 771.4,435.4 771.4,251.3 744.9,251.3"/>
  <polygon points="778.1,227.7 778.1,422.5 804.5,422.5 804.5,227.7 778.1,227.7"/>
  <polygon points="811.2,229.9 811.2,428.4 837.7,428.4 837.7,229.9 811.2,229.9"/>
  <polygon points="844.3,203.5 844.3,410.9 870.8,410.9 870.8,203.5 844.3,203.5"/>
  <polygon points="877.4,204.0 877.4,415.6 903.9,415.6 903.9,204.0 877.4,204.0"/>
</g>
<g stroke="#000" stroke-width="0.90" fill="#845F48"  clip-path="url(#axis_clip)">
  <polygon points="148.9,402.8 148.9,519.6 175.4,519.6 175.4,402.8 148.9,402.8"/>
  <polygon points="182.0,406.1 182.0,521.6 208.5,521.6 208.5,406.1 182.0,406.1"/>
  <polygon points="215.1,403.9 215.1,523.2 241.6,523.2 241.6,403.9 215.1,403.9"/>
  <polygon points="248.3,404.5 248.3,525.3 274.7,525.3 274.7,404.5 248.3,404.5"/>
  <polygon points="281.4,407.8 281.4,526.5 307.9,526.5 307.9,407.8 281.4,407.8"/>
  <polygon points="314.5,407.7 314.5,527.2 341.0,527.2 341.0,407.7 314.5,407.7"/>
  <polygon points="347.6,400.3 347.6,528.2 374.1,528.2 374.1,400.3 347.6,400.3"/>
  <polygon points="380.7,403.9 380.7,529.8 407.2,529.8 407.2,403.9 380.7,403.9"/>
  <polygon points="413.8,414.7 413.8,528.4 440.3,528.4 440.3,414.7 413.8,414.7"/>
  <polygon points="446.9,428.0 446.9,528.5 473.4,528.5 473.4,428.0 446.9,428.0"/>
  <polygon points="480.0,420.0 480.0,526.6 506.5,526.6 506.5,420.0 480.0,420.0"/>
  <polygon points="513.2,406.0 513.2,526.9 539.6,526.9 539.6,406.0 513.2,406.0"/>
  <polygon points="546.3,412.3 546.3,527.7 572.8,527.7 572.8,412.3 546.3,412.3"/>
  <polygon points="579.4,423.1 579.4,527.6 605.9,527.6 605.9,423.1 579.4,423.1"/>
  <polygon points="612.5,418.7 612.5,528.6 639.0,528.6 639.0,418.7 612.5,418.7"/>
  <polygon points="645.6,396.2 645.6,528.7 672.1,528.7 672.1,396.2 645.6,396.2"/>
  <polygon points="678.7,402.2 678.7,530.4 705.2,530.4 705.2,402.2 678.7,402.2"/>
  <polygon points="711.8,414.2 711.8,528.5 738.3,528.5 738.3,414.2 711.8,414.2"/>
  <polygon points="744.9,435.4 744.9,546.8 771.4,546.8 771.4,435.4 744.9,435.4"/>
  <polygon points="778.1,422.5 778.1,547.5 804.5,547.5 804.5,422.5 778.1,422.5"/>
  <polygon points="811.2,428.4 811.2,550.7 837.7,550.7 837.7,428.4 811.2,428.4"/>
  <polygon points="844.3,410.9 844.3,551.9 870.8,551.9 870.8,410.9 844.3,410.9"/>
  <polygon points="877.4,415.6 877.4,552.4 903.9,552.4 903.9,415.6 877.4,415.6"/>
</g>
<g stroke="#000" stroke-width="0.90" fill="#4A89E8"  clip-path="url(#axis_clip)">
  <polygon points="148.9,519.6 148.9,519.8 175.4,519.8 175.4,519.6 148.9,519.6"/>
  <polygon points="182.0,521.6 182.0,521.8 208.5,521.8 208.5,521.6 182.0,521.6"/>
  <polygon points="215.1,523.2 215.1,523.4 241.6,523.4 241.6,523.2 215.1,523.2"/>
  <polygon points="248.3,525.3 248.3,525.5 274.7,525.5 274.7,525.3 248.3,525.3"/>
  <polygon points="281.4,526.5 281.4,526.8 307.9,526.8 307.9,526.5 281.4,526.5"/>
  <polygon points="314.5,527.2 314.5,527.5 341.0,527.5 341.0,527.2 314.5,527.2"/>
  <polygon points="347.6,528.2 347.6,528.4 374.1,528.4 374.1,528.2 347.6,528.2"/>
  <polygon points="380.7,529.8 380.7,530.0 407.2,530.0 407.2,529.8 380.7,529.8"/>
  <polygon points="413.8,528.4 413.8,528.6 440.3,528.6 440.3,528.4 413.8,528.4"/>
  <polygon points="446.9,528.5 446.9,528.7 473.4,528.7 473.4,528.5 446.9,528.5"/>
  <polygon points="480.0,526.6 480.0,526.8 506.5,526.8 506.5,526.6 480.0,526.6"/>
  <polygon points="513.2,526.9 513.2,527.1 539.6,527.1 539.6,526.9 513.2,526.9"/>
  <polygon points="546.3,527.7 546.3,527.8 572.8,527.8 572.8,527.7 546.3,527.7"/>
  <polygon points="579.4,527.6 579.4,527.8 605.9,527.8 605.9,527.6 579.4,527.6"/>
  <polygon points="612.5,528.6 612.5,528.8 639.0,528.8 639.0,528.6 612.5,528.6"/>
  <polygon points="645.6,528.7 645.6,528.9 672.1,528.9 672.1,528.7 645.6,528.7"/>
  <polygon points="678.7,530.4 678.7,530.6 705.2,530.6 705.2,530.4 678.7,530.4"/>
  <polygon points="711.8,528.5 711.8,528.7 738.3,528.7 738.3,528.5 711.8,528.5"/>
  <polygon points="744.9,546.8 744.9,546.9 771.4,546.9 771.4,546.8 744.9,546.8"/>
  <polygon points="778.1,547.5 778.1,547.7 804.5,547.7 804.5,547.5 778.1,547.5"/>
  <polygon points="811.2,550.7 811.2,550.9 837.7,550.9 837.7,550.7 811.2,550.7"/>
  <polygon points="844.3,551.9 844.3,552.1 870.8,552.1 870.8,551.9 844.3,551.9"/>
  <polygon points="877.4,552.4 877.4,552.6 903.9,552.6 903.9,552.4 877.4,552.4"/>
</g>
<g stroke="#000" stroke-width="0.90" fill="#FF7F61"  clip-path="url(#axis_clip)">
  <polygon points="148.9,519.8 148.9,587.2 175.4,587.2 175.4,519.8 148.9,519.8"/>
  <polygon points="182.0,521.8 182.0,587.2 208.5,587.2 208.5,521.8 182.0,521.8"/>
  <polygon points="215.1,523.4 215.1,587.2 241.6,587.2 241.6,523.4 215.1,523.4"/>
  <polygon points="248.3,525.5 248.3,587.2 274.7,587.2 274.7,525.5 248.3,525.5"/>
  <polygon points="281.4,526.8 281.4,587.2 307.9,587.2 307.9,526.8 281.4,526.8"/>
  <polygon points="314.5,527.5 314.5,587.2 341.0,587.2 341.0,527.5 314.5,527.5"/>
  <polygon points="347.6,528.4 347.6,587.2 374.1,587.2 374.1,528.4 347.6,528.4"/>
  <polygon points="380.7,530.0 380.7,587.2 407.2,587.2 407.2,530.0 380.7,530.0"/>
  <polygon points="413.8,528.6 413.8,587.2 440.3,587.2 440.3,528.6 413.8,528.6"/>
  <polygon points="446.9,528.7 446.9,587.2 473.4,587.2 473.4,528.7 446.9,528.7"/>
  <polygon points="480.0,526.8 480.0,587.2 506.5,587.2 506.5,526.8 480.0,526.8"/>
  <polygon points="513.2,527.1 513.2,587.2 539.6,587.2 539.6,527.1 513.2,527.1"/>
  <polygon points="546.3,527.8 546.3,587.2 572.8,587.2 572.8,527.8 546.3,527.8"/>
  <polygon points="579.4,527.8 579.4,587.2 605.9,587.2 605.9,527.8 579.4,527.8"/>
  <polygon points="612.5,528.8 612.5,587.2 639.0,587.2 639.0,528.8 612.5,528.8"/>
  <polygon points="645.6,528.9 645.6,587.2 672.1,587.2 672.1,528.9 645.6,528.9"/>
  <polygon points="678.7,530.6 678.7,587.2 705.2,587.2 705.2,530.6 678.7,530.6"/>
  <polygon points="711.8,528.7 711.8,587.2 738.3,587.2 738.3,528.7 711.8,528.7"/>
  <polygon points="744.9,546.9 744.9,587.2 771.4,587.2 771.4,546.9 744.9,546.9"/>
  <polygon points="778.1,547.7 778.1,587.2 804.5,587.2 804.5,547.7 778.1,547.7"/>
  <polygon points="811.2,550.9 811.2,587.2 837.7,587.2 837.7,550.9 811.2,550.9"/>
  <polygon points="844.3,552.1 844.3,587.2 870.8,587.2 870.8,552.1 844.3,552.1"/>
  <polygon points="877.4,552.6 877.4,587.2 903.9,587.2 903.9,552.6 877.4,552.6"/>
</g>
<polyline class="pl" points="162.2,307.5 195.3,294.0 228.4,270.2 261.5,275.9 294.6,253.2 327.7,261.3 360.8,128.2 393.9,261.8 427.1,282.3 460.2,261.1 493.3,268.4 526.4,252.3 559.5,221.0 592.6,256.7 625.7,183.7 658.9,144.8 692.0,224.6 725.1,231.7 758.2,225.1 791.3,152.0 824.4,215.4 857.5,192.9 890.6,189.7" stroke="#000" stroke-width="5.40" stroke-opacity="1.00" fill="none" clip-path="url(#axis_clip)"/>
<g class="pl" fill="#FFF" stroke="#000" stroke-width="0.900">
  <circle cx="195.3" cy="294.0" r="2.2" />
  <circle cx="228.4" cy="270.2" r="2.2" />
  <circle cx="261.5" cy="275.9" r="2.2" />
  <circle cx="294.6" cy="253.2" r="2.2" />
  <circle cx="327.7" cy="261.3" r="2.2" />
  <circle cx="360.8" cy="128.2" r="2.2" />
  <circle cx="393.9" cy="261.8" r="2.2" />
  <circle cx="427.1" cy="282.3" r="2.2" />
  <circle cx="460.2" cy="261.1" r="2.2" />
  <circle cx="526.4" cy="252.3" r="2.2" />
  <circle cx="559.5" cy="221.0" r="2.2" />
  <circle cx="592.6" cy="256.7" r="2.2" />
  <circle cx="625.7" cy="183.7" r="2.2" />
  <circle cx="658.9" cy="144.8" r="2.2" />
  <circle cx="692.0" cy="224.6" r="2.2" />
  <circle cx="725.1" cy="231.7" r="2.2" />
  <circle cx="758.2" cy="225.1" r="2.2" />
  <circle cx="791.3" cy="152.0" r="2.2" />
  <circle cx="857.5" cy="192.9" r="2.2" />
  <circle cx="890.6" cy="189.7" r="2.2" />
</g>
<g class="pl" fill="#FFF" stroke="#000" stroke-width="0.900">
  <circle cx="162.2" cy="307.5" r="5.4" />
  <circle cx="493.3" cy="268.4" r="5.4" />
  <circle cx="824.4" cy="215.4" r="5.4" />
</g>
<text transform="translate(145.6,47.2)" dy="0.0" font-size="27.00" fill="#808080" stroke="none">Annual CH<tspan dy="0.2em"><tspan style="font-size:70%">4</tspan></tspan><tspan dy="-0.2em"> </tspan>Emissions: Indonesia</text>
<text transform="translate(130.0,81.6)" dy="8.1" font-size="27.00" fill="#808080" stroke="none" text-anchor="end">CH<tspan dy="0.2em"><tspan style="font-size:70%">4</tspan></tspan><tspan dy="-0.2em"></tspan></text>
<text transform="translate(945.6,180.7)" dy="7.6" font-size="25.20" fill="#000" stroke="none">+42.1% since 2000</text>
<text transform="translate(945.6,573.7)" dy="7.6" font-size="25.20" fill="#FF7F61" stroke="none">Energy</text>
<text transform="translate(945.6,548.7)" dy="7.6" font-size="25.20" fill="#4A89E8" stroke="none">Industrial Processes</text>
<text transform="translate(945.6,484.0)" dy="7.6" font-size="25.20" fill="#845F48" stroke="none">Agriculture</text>
<text transform="translate(945.6,309.8)" dy="7.6" font-size="25.20" fill="#DBA746" stroke="none">Waste</text>
<text transform="translate(945.6,205.8)" dy="7.6" font-size="25.20" fill="#7FBF7F" stroke="none">LULUCF</text>
<polyline class="pl" points="910.8,189.7 912.4,189.6 913.8,189.5 915.2,189.4 916.4,189.2 917.6,188.9 918.8,188.7 919.8,188.3 920.8,188.0 921.7,187.6 922.7,187.2 923.5,186.8 924.4,186.3 925.2,185.9 926.0,185.4 926.8,185.0 927.6,184.5 928.4,184.0 929.3,183.6 930.1,183.2 931.1,182.8 932.0,182.4 933.0,182.0 934.0,181.7 935.2,181.4 936.4,181.2 937.6,181.0 939.0,180.8 940.4,180.8 942.0,180.7" stroke="#000" stroke-width="0.90" stroke-opacity="1.00" fill="none" />
<polyline class="pl" points="910.8,569.9 912.4,569.9 913.8,569.9 915.2,570.0 916.4,570.1 917.6,570.2 918.8,570.3 919.8,570.4 920.8,570.6 921.7,570.7 922.7,570.9 923.5,571.1 924.4,571.3 925.2,571.5 926.0,571.7 926.8,571.9 927.6,572.1 928.4,572.3 929.3,572.5 930.1,572.6 931.1,572.8 932.0,573.0 933.0,573.1 934.0,573.3 935.2,573.4 936.4,573.5 937.6,573.6 939.0,573.6 940.4,573.7 942.0,573.7" stroke="#FF7F61" stroke-width="0.90" stroke-opacity="1.00" fill="none" />
<polyline class="pl" points="910.8,552.5 912.4,552.5 913.8,552.4 915.2,552.4 916.4,552.3 917.6,552.2 918.8,552.1 919.8,551.9 920.8,551.8 921.7,551.6 922.7,551.4 923.5,551.2 924.4,551.1 925.2,550.9 926.0,550.7 926.8,550.5 927.6,550.3 928.4,550.1 929.3,549.9 930.1,549.7 931.1,549.5 932.0,549.4 933.0,549.2 934.0,549.1 935.2,549.0 936.4,548.9 937.6,548.8 939.0,548.7 940.4,548.7 942.0,548.7" stroke="#4A89E8" stroke-width="0.90" stroke-opacity="1.00" fill="none" />
<polyline class="pl" points="910.8,196.8 912.4,196.9 913.8,197.0 915.2,197.1 916.4,197.3 917.6,197.5 918.8,197.8 919.8,198.1 920.8,198.5 921.7,198.9 922.7,199.3 923.5,199.7 924.4,200.2 925.2,200.6 926.0,201.1 926.8,201.5 927.6,202.0 928.4,202.4 929.3,202.9 930.1,203.3 931.1,203.7 932.0,204.1 933.0,204.5 934.0,204.8 935.2,205.1 936.4,205.3 937.6,205.5 939.0,205.6 940.4,205.7 942.0,205.8" stroke="#7FBF7F" stroke-width="0.90" stroke-opacity="1.00" fill="none" />
<text transform="translate(160.0,666.1)" font-size="19.80" font-family="Helvetica" fill="#BFBFBF" stroke="none" xml:space="preserve">CICERO   &#9679;   Data: UNFCCC (2024)</text>
<g>
  <rect x="123.0" y="651.4" width="34" height="17" fill="#FFF" stroke="none" opacity="0.01"/>
  <g transform="translate(124.0,652.4) scale(0.24)">
  <g><circle fill="#FFF" cx="37.79" cy="28.5" r="28.84"/>
     <circle fill="none" cx="37.79" cy="28.5" r="28.84" stroke="#BFBFBF" stroke-width="5.5"/>
     <path fill="#BFBFBF" d="M37.16,23.19 l-4.29,2.23c-0.458-0.951-1.02-1.62-1.69-2c-0.667-0.38-1.29-0.571-1.86-0.571c-2.86,0-4.29,1.89-4.29,5.66 c0,1.71,0.36,3.08,1.09,4.11c0.724,1.03,1.79,1.54,3.2,1.54c1.87,0,3.18-0.915,3.94-2.74l3.94,2 c-0.838,1.56-2,2.79-3.49,3.69c-1.48,0.896-3.12,1.34-4.91,1.34c-2.86,0-5.16-0.875-6.92-2.63 c-1.75-1.75-2.63-4.19-2.63-7.31c0-3.05,0.886-5.47,2.66-7.26c1.77-1.79,4.01-2.69,6.72-2.69 C32.6,18.56,35.44,20.1,37.16,23.19z
              M55.61,23.19l-4.23,2.23c-0.457-0.951-1.02-1.62-1.69-2 c-0.668-0.38-1.31-0.571-1.91-0.571c-2.86,0-4.29,1.89-4.29,5.66c0,1.71,0.363,3.08,1.09,4.11 c0.723,1.03,1.79,1.54,3.2,1.54c1.87,0,3.18-0.915,3.94-2.74l4,2c-0.875,1.56-2.06,2.79-3.54,3.69 c-1.49,0.9-3.11,1.34-4.86,1.34c-2.9,0-5.21-0.875-6.94-2.63c-1.74-1.75-2.6-4.19-2.6-7.31 c0-3.05,0.885-5.47,2.66-7.26c1.77-1.79,4.01-2.69,6.71-2.69C51.12,18.56,53.944,20.1,55.61,23.19z"/>
  </g></g>
  <g transform="translate(140.2,652.4) scale(0.24)">
  <g><circle fill="#FFF" cx="37.79" cy="28.5" r="28.84"/>
     <circle fill="none" cx="37.79" cy="28.5" r="28.84" stroke="#BFBFBF" stroke-width="5.5"/>
     <path fill="#BFBFBF" d="M46.129,20.557v13.085h-3.656v15.542h-9.944V33.643h-3.656V20.557 c0-0.572,0.2-1.057,0.599-1.457c0.401-0.399,0.887-0.6,1.457-0.6h13.144c0.533,0,1.01,0.2,1.428,0.6 C45.918,19.5,46.129,19.986,46.129,20.557z
              M33.042,12.329c0-3.008,1.485-4.514,4.458-4.514s4.457,1.504,4.457,4.514 c0,2.971-1.486,4.457-4.457,4.457S33.042,15.3,33.042,12.329z"/>
  </g></g>
</g>
</g>
</svg>
