<svg version="1.1" xmlns="http://www.w3.org/2000/svg" xmlns:xlink="http://www.w3.org/1999/xlink" width="100%" height="100%" viewBox="0 0 1200.000 674.916">
<title>Kaya decomposition of emissions growth: Indonesia</title>
<style type="text/css">
  #main {font-family:Helvetica,Arial,sans-serif; font-size:27.00px;
         fill-opacity:1; fill:#000000; stroke:none; stroke-linejoin:round; stroke-linecap:round; stroke-width:1.00;}
  .marker {stroke-opacity:0;fill-opacity:0;}
  .marker:hover {stroke-opacity:0.5; fill-opacity:1;}
  .ticklabel {font-size:27.00px;fill:#808080;stroke:none;font-family:Helvetica}
  .ytl {text-anchor:end;}
  .dp1 {pointer-events:none;font-size:70%;text-anchor:middle;fill:#000000;}
  .dp2 {pointer-events:none;font-size:70%;text-anchor:middle;fill:#FFFFFF;}
  .numtip {pointer-events:none;}
  .cc {opacity:0.25;}
.dl_fe {background-color:#FDFFDF;display:flex;margin:auto;align-items:center}
.dl_fe_p {font-size:20px;text-align:center;margin:3px}
.dl_el {display:none;pointer-events:none;}
.cc:hover + .dl_el {display:block;}
text:hover + .dl_el {display:block;}
</style>
<defs>
  <clipPath id="axis_clip"><rect x="145.8" y="54.2" width="761.2" height="532.8" /></clipPath>
  <path id="line_x" d="M 145.600,0 h 761.600" stroke="#262626" stroke-opacity="0.15" stroke-width="1.00"/>
  <path id="tick_y" d="M 145.600,0 h -6.000" stroke="#808080" stroke-width="0.90"/>
  <path id="tick_x" d="M 0,587.177 v 6.000" stroke="#808080" stroke-width="0.90"/>
</defs>
<g id="main">
<use xlink:href="#line_x" transform="translate(0,587.2)"/>
<use xlink:href="#line_x" transform="translate(0,498.3)"/>
<use xlink:href="#line_x" transform="translate(0,409.4)"/>
<use xlink:href="#line_x" transform="translate(0,320.6)"/>
<use xlink:href="#line_x" transform="translate(0,231.7)"/>
<use xlink:href="#line_x" transform="translate(0,142.9)"/>
<use xlink:href="#line_x" transform="translate(0,54.0)"/>
<use xlink:href="#tick_y" transform="translate(0,587.2)"/>
<use xlink:href="#tick_y" transform="translate(0,498.3)"/>
<use xlink:href="#tick_y" transform="translate(0,409.4)"/>
<use xlink:href="#tick_y" transform="translate(0,320.6)"/>
<use xlink:href="#tick_y" transform="translate(0,231.7)"/>
<use xlink:href="#tick_y" transform="translate(0,142.9)"/>
<use xlink:href="#tick_y" transform="translate(0,54.0)"/>
<use xlink:href="#tick_x" transform="translate(156.5,0)"/>
<use xlink:href="#tick_x" transform="translate(265.3,0)"/>
<use xlink:href="#tick_x" transform="translate(374.1,0)"/>
<use xlink:href="#tick_x" transform="translate(482.9,0)"/>
<use xlink:href="#tick_x" transform="translate(591.7,0)"/>
<use xlink:href="#tick_x" transform="translate(700.5,0)"/>
<use xlink:href="#tick_x" transform="translate(809.3,0)"/>
<polyline points="145.6,53.993 145.6,587.177 907.2,587.177" stroke="#808080" stroke-width="0.90" fill="none"/>
<text class="ticklabel xtl" transform="translate(156.5,629.0)" text-anchor="middle">1990</text>
<text class="ticklabel xtl" transform="translate(265.3,629.0)" text-anchor="middle">1995</text>
<text class="ticklabel xtl" transform="translate(374.1,629.0)" text-anchor="middle">2000</text>
<text class="ticklabel xtl" transform="translate(482.9,629.0)" text-anchor="middle">2005</text>
<text class="ticklabel xtl" transform="translate(591.7,629.0)" text-anchor="middle">2010</text>
<text class="ticklabel xtl" transform="translate(700.5,629.0)" text-anchor="middle">2015</text>
<text class="ticklabel xtl" transform="translate(809.3,629.0)" text-anchor="middle">2020</text>
<text class="ticklabel ytl" transform="translate(128.8,595.3)">-30</text>
<text class="ticklabel ytl" transform="translate(128.8,506.4)">-20</text>
<text class="ticklabel ytl" transform="translate(128.8,417.5)">-10</text>
<text class="ticklabel ytl" transform="translate(128.8,328.7)">0</text>
<text class="ticklabel ytl" transform="translate(128.8,239.8)">10</text>
<text class="ticklabel ytl" transform="translate(128.8,151.0)">20</text>
<text class="ticklabel ytl" transform="translate(128.8,62.1)">30 %/yr</text>
<g stroke="#000" stroke-width="0.90" fill="#808080"  clip-path="url(#axis_clip)">
  <polygon class="pl" points="147.8,162.5 147.8,171.4 165.2,171.4 165.2,162.5 147.8,162.5"/>
  <polygon class="pl" points="169.5,207.3 169.5,212.0 186.9,212.0 186.9,207.3 169.5,207.3"/>
  <polygon class="pl" points="191.3,198.5 191.3,204.2 208.7,204.2 208.7,198.5 191.3,198.5"/>
  <polygon class="pl" points="213.1,248.1 213.1,249.7 230.5,249.7 230.5,248.1 213.1,248.1"/>
  <polygon class="pl" points="278.3,196.0 278.3,200.2 295.7,200.2 295.7,196.0 278.3,196.0"/>
  <polygon class="pl" points="300.1,223.6 300.1,227.2 317.5,227.2 317.5,223.6 300.1,223.6"/>
  <polygon class="pl" points="343.6,141.6 343.6,149.8 361.0,149.8 361.0,141.6 343.6,141.6"/>
  <polygon class="pl" points="387.1,204.9 387.1,209.9 404.5,209.9 404.5,204.9 387.1,204.9"/>
  <polygon class="pl" points="430.7,231.7 430.7,234.6 448.1,234.6 448.1,231.7 430.7,231.7"/>
  <polygon class="pl" points="517.7,214.9 517.7,218.7 535.1,218.7 535.1,214.9 517.7,214.9"/>
  <polygon class="pl" points="561.2,220.3 561.2,221.6 578.6,221.6 578.6,220.3 561.2,220.3"/>
  <polygon class="pl" points="583.0,216.4 583.0,220.3 600.4,220.3 600.4,216.4 583.0,216.4"/>
  <polygon class="pl" points="604.7,206.2 604.7,209.7 622.1,209.7 622.1,206.2 604.7,206.2"/>
  <polygon class="pl" points="691.8,202.6 691.8,203.5 709.2,203.5 709.2,202.6 691.8,202.6"/>
  <polygon class="pl" points="757.1,263.9 757.1,264.8 774.5,264.8 774.5,263.9 757.1,263.9"/>
  <polygon class="pl" points="778.8,236.2 778.8,238.7 796.2,238.7 796.2,236.2 778.8,236.2"/>
  <polygon class="pl" points="800.6,312.3 800.6,313.0 818.0,313.0 818.0,312.3 800.6,312.3"/>
  <polygon class="pl" points="887.6,259.9 887.6,260.5 905.0,260.5 905.0,259.9 887.6,259.9"/>
</g>
<g stroke="#000" stroke-width="0.90" fill="#8DA0CB"  clip-path="url(#axis_clip)">
  <polygon class="pl" points="147.8,171.4 147.8,233.0 165.2,233.0 165.2,171.4 147.8,171.4"/>
  <polygon class="pl" points="169.5,212.0 169.5,244.3 186.9,244.3 186.9,212.0 169.5,212.0"/>
  <polygon class="pl" points="191.3,204.2 191.3,238.6 208.7,238.6 208.7,204.2 191.3,204.2"/>
  <polygon class="pl" points="213.1,249.7 213.1,260.5 230.5,260.5 230.5,249.7 213.1,249.7"/>
  <polygon class="pl" points="278.3,200.2 278.3,254.6 295.7,254.6 295.7,200.2 278.3,200.2"/>
  <polygon class="pl" points="300.1,227.2 300.1,244.3 317.5,244.3 317.5,227.2 300.1,227.2"/>
  <polygon class="pl" points="343.6,149.8 343.6,233.1 361.0,233.1 361.0,149.8 343.6,149.8"/>
  <polygon class="pl" points="387.1,209.9 387.1,256.5 404.5,256.5 404.5,209.9 387.1,209.9"/>
  <polygon class="pl" points="430.7,234.6 430.7,245.8 448.1,245.8 448.1,234.6 430.7,234.6"/>
  <polygon class="pl" points="452.4,259.4 452.4,278.8 469.8,278.8 469.8,259.4 452.4,259.4"/>
  <polygon class="pl" points="517.7,218.7 517.7,256.6 535.1,256.6 535.1,218.7 517.7,218.7"/>
  <polygon class="pl" points="561.2,221.6 561.2,276.7 578.6,276.7 578.6,221.6 561.2,221.6"/>
  <polygon class="pl" points="583.0,220.3 583.0,249.0 600.4,249.0 600.4,220.3 583.0,220.3"/>
  <polygon class="pl" points="604.7,209.7 604.7,266.3 622.1,266.3 622.1,209.7 604.7,209.7"/>
  <polygon class="pl" points="648.3,255.1 648.3,269.1 665.7,269.1 665.7,255.1 648.3,255.1"/>
  <polygon class="pl" points="691.8,203.5 691.8,277.6 709.2,277.6 709.2,203.5 691.8,203.5"/>
  <polygon class="pl" points="713.5,278.2 713.5,278.8 730.9,278.8 730.9,278.2 713.5,278.2"/>
  <polygon class="pl" points="757.1,264.8 757.1,273.7 774.5,273.7 774.5,264.8 757.1,264.8"/>
  <polygon class="pl" points="778.8,238.7 778.8,270.2 796.2,270.2 796.2,238.7 778.8,238.7"/>
</g>
<g stroke="#000" stroke-width="0.90" fill="#66C2A5"  clip-path="url(#axis_clip)">
  <polygon class="pl" points="147.8,233.0 147.8,257.1 165.2,257.1 165.2,233.0 147.8,233.0"/>
  <polygon class="pl" points="169.5,244.3 169.5,260.0 186.9,260.0 186.9,244.3 169.5,244.3"/>
  <polygon class="pl" points="191.3,238.6 191.3,266.1 208.7,266.1 208.7,238.6 191.3,238.6"/>
  <polygon class="pl" points="213.1,260.5 213.1,261.0 230.5,261.0 230.5,260.5 213.1,260.5"/>
  <polygon class="pl" points="256.6,243.5 256.6,248.5 274.0,248.5 274.0,243.5 256.6,243.5"/>
  <polygon class="pl" points="300.1,244.3 300.1,276.8 317.5,276.8 317.5,244.3 300.1,244.3"/>
  <polygon class="pl" points="321.9,189.5 321.9,306.4 339.3,306.4 339.3,189.5 321.9,189.5"/>
  <polygon class="pl" points="343.6,233.1 343.6,307.1 361.0,307.1 361.0,233.1 343.6,233.1"/>
  <polygon class="pl" points="365.4,261.3 365.4,279.8 382.8,279.8 382.8,261.3 365.4,261.3"/>
  <polygon class="pl" points="387.1,256.5 387.1,286.0 404.5,286.0 404.5,256.5 387.1,256.5"/>
  <polygon class="pl" points="430.7,245.8 430.7,278.5 448.1,278.5 448.1,245.8 430.7,245.8"/>
  <polygon class="pl" points="517.7,256.6 517.7,264.8 535.1,264.8 535.1,256.6 517.7,256.6"/>
  <polygon class="pl" points="583.0,249.0 583.0,264.5 600.4,264.5 600.4,249.0 583.0,249.0"/>
  <polygon class="pl" points="735.3,253.6 735.3,273.4 752.7,273.4 752.7,253.6 735.3,253.6"/>
  <polygon class="pl" points="757.1,273.7 757.1,275.0 774.5,275.0 774.5,273.7 757.1,273.7"/>
  <polygon class="pl" points="778.8,270.2 778.8,276.3 796.2,276.3 796.2,270.2 778.8,270.2"/>
  <polygon class="pl" points="822.3,284.6 822.3,285.5 839.7,285.5 839.7,284.6 822.3,284.6"/>
  <polygon class="pl" points="844.1,106.4 844.1,272.8 861.5,272.8 861.5,106.4 844.1,106.4"/>
  <polygon class="pl" points="887.6,260.5 887.6,272.3 905.0,272.3 905.0,260.5 887.6,260.5"/>
</g>
<g stroke="#000" stroke-width="0.90" fill="#E78AC3"  clip-path="url(#axis_clip)">
  <polygon class="pl" points="147.8,257.1 147.8,304.3 165.2,304.3 165.2,257.1 147.8,257.1"/>
  <polygon class="pl" points="169.5,260.0 169.5,304.7 186.9,304.7 186.9,260.0 169.5,260.0"/>
  <polygon class="pl" points="191.3,266.1 191.3,305.0 208.7,305.0 208.7,266.1 191.3,266.1"/>
  <polygon class="pl" points="213.1,261.0 213.1,305.3 230.5,305.3 230.5,261.0 213.1,261.0"/>
  <polygon class="pl" points="234.8,254.4 234.8,305.5 252.2,305.5 252.2,254.4 234.8,254.4"/>
  <polygon class="pl" points="256.6,248.5 256.6,305.7 274.0,305.7 274.0,248.5 256.6,248.5"/>
  <polygon class="pl" points="278.3,254.6 278.3,305.8 295.7,305.8 295.7,254.6 278.3,254.6"/>
  <polygon class="pl" points="300.1,276.8 300.1,306.0 317.5,306.0 317.5,276.8 300.1,276.8"/>
  <polygon class="pl" points="365.4,279.8 365.4,307.8 382.8,307.8 382.8,279.8 365.4,279.8"/>
  <polygon class="pl" points="387.1,286.0 387.1,308.2 404.5,308.2 404.5,286.0 387.1,286.0"/>
  <polygon class="pl" points="408.9,281.0 408.9,308.5 426.3,308.5 426.3,281.0 408.9,281.0"/>
  <polygon class="pl" points="430.7,278.5 430.7,308.7 448.1,308.7 448.1,278.5 430.7,278.5"/>
  <polygon class="pl" points="452.4,278.8 452.4,309.2 469.8,309.2 469.8,278.8 452.4,278.8"/>
  <polygon class="pl" points="474.2,268.0 474.2,309.1 491.6,309.1 491.6,268.0 474.2,268.0"/>
  <polygon class="pl" points="495.9,272.2 495.9,308.7 513.3,308.7 513.3,272.2 495.9,272.2"/>
  <polygon class="pl" points="517.7,264.8 517.7,308.8 535.1,308.8 535.1,264.8 517.7,264.8"/>
  <polygon class="pl" points="539.5,270.2 539.5,309.0 556.9,309.0 556.9,270.2 539.5,270.2"/>
  <polygon class="pl" points="561.2,276.7 561.2,309.3 578.6,309.3 578.6,276.7 561.2,276.7"/>
  <polygon class="pl" points="583.0,264.5 583.0,309.3 600.4,309.3 600.4,264.5 583.0,264.5"/>
  <polygon class="pl" points="604.7,266.3 604.7,309.2 622.1,309.2 622.1,266.3 604.7,266.3"/>
  <polygon class="pl" points="626.5,270.1 626.5,309.1 643.9,309.1 643.9,270.1 626.5,270.1"/>
  <polygon class="pl" points="648.3,269.1 648.3,309.5 665.7,309.5 665.7,269.1 648.3,269.1"/>
  <polygon class="pl" points="670.0,276.5 670.0,310.1 687.4,310.1 687.4,276.5 670.0,276.5"/>
  <polygon class="pl" points="691.8,277.6 691.8,310.6 709.2,310.6 709.2,277.6 691.8,277.6"/>
  <polygon class="pl" points="713.5,278.8 713.5,311.0 730.9,311.0 730.9,278.8 713.5,278.8"/>
  <polygon class="pl" points="735.3,273.4 735.3,311.5 752.7,311.5 752.7,273.4 735.3,273.4"/>
  <polygon class="pl" points="757.1,275.0 757.1,311.9 774.5,311.9 774.5,275.0 757.1,275.0"/>
  <polygon class="pl" points="778.8,276.3 778.8,312.2 796.2,312.2 796.2,276.3 778.8,276.3"/>
  <polygon class="pl" points="822.3,285.5 822.3,314.3 839.7,314.3 839.7,285.5 822.3,285.5"/>
  <polygon class="pl" points="844.1,272.8 844.1,313.9 861.5,313.9 861.5,272.8 844.1,272.8"/>
  <polygon class="pl" points="865.9,267.6 865.9,313.1 883.3,313.1 883.3,267.6 865.9,267.6"/>
  <polygon class="pl" points="887.6,272.3 887.6,313.3 905.0,313.3 905.0,272.3 887.6,272.3"/>
</g>
<g stroke="#000" stroke-width="0.90" fill="#A6D854"  clip-path="url(#axis_clip)">
  <polygon class="pl" points="147.8,304.3 147.8,320.6 165.2,320.6 165.2,304.3 147.8,304.3"/>
  <polygon class="pl" points="169.5,304.7 169.5,320.6 186.9,320.6 186.9,304.7 169.5,304.7"/>
  <polygon class="pl" points="191.3,305.0 191.3,320.6 208.7,320.6 208.7,305.0 191.3,305.0"/>
  <polygon class="pl" points="213.1,305.3 213.1,320.6 230.5,320.6 230.5,305.3 213.1,305.3"/>
  <polygon class="pl" points="234.8,305.5 234.8,320.6 252.2,320.6 252.2,305.5 234.8,305.5"/>
  <polygon class="pl" points="256.6,305.7 256.6,320.6 274.0,320.6 274.0,305.7 256.6,305.7"/>
  <polygon class="pl" points="278.3,305.8 278.3,320.6 295.7,320.6 295.7,305.8 278.3,305.8"/>
  <polygon class="pl" points="300.1,306.0 300.1,320.6 317.5,320.6 317.5,306.0 300.1,306.0"/>
  <polygon class="pl" points="321.9,306.4 321.9,320.6 339.3,320.6 339.3,306.4 321.9,306.4"/>
  <polygon class="pl" points="343.6,307.1 343.6,320.6 361.0,320.6 361.0,307.1 343.6,307.1"/>
  <polygon class="pl" points="365.4,307.8 365.4,320.6 382.8,320.6 382.8,307.8 365.4,307.8"/>
  <polygon class="pl" points="387.1,308.2 387.1,320.6 404.5,320.6 404.5,308.2 387.1,308.2"/>
  <polygon class="pl" points="408.9,308.5 408.9,320.6 426.3,320.6 426.3,308.5 408.9,308.5"/>
  <polygon class="pl" points="430.7,308.7 430.7,320.6 448.1,320.6 448.1,308.7 430.7,308.7"/>
  <polygon class="pl" points="452.4,309.2 452.4,320.6 469.8,320.6 469.8,309.2 452.4,309.2"/>
  <polygon class="pl" points="474.2,309.1 474.2,320.6 491.6,320.6 491.6,309.1 474.2,309.1"/>
  <polygon class="pl" points="495.9,308.7 495.9,320.6 513.3,320.6 513.3,308.7 495.9,308.7"/>
  <polygon class="pl" points="517.7,308.8 517.7,320.6 535.1,320.6 535.1,308.8 517.7,308.8"/>
  <polygon class="pl" points="539.5,309.0 539.5,320.6 556.9,320.6 556.9,309.0 539.5,309.0"/>
  <polygon class="pl" points="561.2,309.3 561.2,320.6 578.6,320.6 578.6,309.3 561.2,309.3"/>
  <polygon class="pl" points="583.0,309.3 583.0,320.6 600.4,320.6 600.4,309.3 583.0,309.3"/>
  <polygon class="pl" points="604.7,309.2 604.7,320.6 622.1,320.6 622.1,309.2 604.7,309.2"/>
  <polygon class="pl" points="626.5,309.1 626.5,320.6 643.9,320.6 643.9,309.1 626.5,309.1"/>
  <polygon class="pl" points="648.3,309.5 648.3,320.6 665.7,320.6 665.7,309.5 648.3,309.5"/>
  <polygon class="pl" points="670.0,310.1 670.0,320.6 687.4,320.6 687.4,310.1 670.0,310.1"/>
  <polygon class="pl" points="691.8,310.6 691.8,320.6 709.2,320.6 709.2,310.6 691.8,310.6"/>
  <polygon class="pl" points="713.5,311.0 713.5,320.6 730.9,320.6 730.9,311.0 713.5,311.0"/>
  <polygon class="pl" points="735.3,311.5 735.3,320.6 752.7,320.6 752.7,311.5 735.3,311.5"/>
  <polygon class="pl" points="757.1,311.9 757.1,320.6 774.5,320.6 774.5,311.9 757.1,311.9"/>
  <polygon class="pl" points="778.8,312.2 778.8,320.6 796.2,320.6 796.2,312.2 778.8,312.2"/>
  <polygon class="pl" points="800.6,313.0 800.6,320.6 818.0,320.6 818.0,313.0 800.6,313.0"/>
  <polygon class="pl" points="822.3,314.3 822.3,320.6 839.7,320.6 839.7,314.3 822.3,314.3"/>
  <polygon class="pl" points="844.1,313.9 844.1,320.6 861.5,320.6 861.5,313.9 844.1,313.9"/>
  <polygon class="pl" points="865.9,313.1 865.9,320.6 883.3,320.6 883.3,313.1 865.9,313.1"/>
  <polygon class="pl" points="887.6,313.3 887.6,320.6 905.0,320.6 905.0,313.3 887.6,313.3"/>
</g>
<g stroke="#000" stroke-width="0.90" fill="#808080"  clip-path="url(#axis_clip)">
  <polygon class="pl" points="234.8,369.2 234.8,367.2 252.2,367.2 252.2,369.2 234.8,369.2"/>
  <polygon class="pl" points="256.6,385.4 256.6,381.4 274.0,381.4 274.0,385.4 256.6,385.4"/>
  <polygon class="pl" points="321.9,564.1 321.9,548.4 339.3,548.4 339.3,564.1 321.9,564.1"/>
  <polygon class="pl" points="365.4,414.8 365.4,410.0 382.8,410.0 382.8,414.8 365.4,414.8"/>
  <polygon class="pl" points="408.9,384.2 408.9,382.6 426.3,382.6 426.3,384.2 408.9,384.2"/>
  <polygon class="pl" points="452.4,374.6 452.4,372.2 469.8,372.2 469.8,374.6 452.4,374.6"/>
  <polygon class="pl" points="474.2,358.7 474.2,357.4 491.6,357.4 491.6,358.7 474.2,358.7"/>
  <polygon class="pl" points="495.9,371.5 495.9,370.0 513.3,370.0 513.3,371.5 495.9,371.5"/>
  <polygon class="pl" points="539.5,424.1 539.5,421.8 556.9,421.8 556.9,424.1 539.5,424.1"/>
  <polygon class="pl" points="626.5,346.4 626.5,345.6 643.9,345.6 643.9,346.4 626.5,346.4"/>
  <polygon class="pl" points="648.3,422.2 648.3,416.3 665.7,416.3 665.7,422.2 648.3,422.2"/>
  <polygon class="pl" points="670.0,356.4 670.0,355.3 687.4,355.3 687.4,356.4 670.0,356.4"/>
  <polygon class="pl" points="713.5,370.6 713.5,368.6 730.9,368.6 730.9,370.6 713.5,370.6"/>
  <polygon class="pl" points="735.3,347.8 735.3,347.2 752.7,347.2 752.7,347.8 735.3,347.8"/>
  <polygon class="pl" points="822.3,340.4 822.3,339.9 839.7,339.9 839.7,340.4 822.3,340.4"/>
  <polygon class="pl" points="844.1,359.2 844.1,358.9 861.5,358.9 861.5,359.2 844.1,359.2"/>
  <polygon class="pl" points="865.9,368.4 865.9,366.4 883.3,366.4 883.3,368.4 865.9,368.4"/>
</g>
<g stroke="#000" stroke-width="0.90" fill="#8DA0CB"  clip-path="url(#axis_clip)">
  <polygon class="pl" points="234.8,367.2 234.8,344.2 252.2,344.2 252.2,367.2 234.8,367.2"/>
  <polygon class="pl" points="256.6,381.4 256.6,320.6 274.0,320.6 274.0,381.4 256.6,381.4"/>
  <polygon class="pl" points="321.9,548.4 321.9,449.3 339.3,449.3 339.3,548.4 321.9,548.4"/>
  <polygon class="pl" points="365.4,410.0 365.4,320.6 382.8,320.6 382.8,410.0 365.4,410.0"/>
  <polygon class="pl" points="408.9,382.6 408.9,335.4 426.3,335.4 426.3,382.6 408.9,382.6"/>
  <polygon class="pl" points="474.2,357.4 474.2,343.9 491.6,343.9 491.6,357.4 474.2,357.4"/>
  <polygon class="pl" points="495.9,370.0 495.9,352.5 513.3,352.5 513.3,370.0 495.9,370.0"/>
  <polygon class="pl" points="539.5,421.8 539.5,361.3 556.9,361.3 556.9,421.8 539.5,421.8"/>
  <polygon class="pl" points="626.5,345.6 626.5,325.7 643.9,325.7 643.9,345.6 626.5,345.6"/>
  <polygon class="pl" points="670.0,355.3 670.0,348.1 687.4,348.1 687.4,355.3 670.0,355.3"/>
  <polygon class="pl" points="735.3,347.2 735.3,320.6 752.7,320.6 752.7,347.2 735.3,347.2"/>
  <polygon class="pl" points="800.6,386.9 800.6,385.3 818.0,385.3 818.0,386.9 800.6,386.9"/>
  <polygon class="pl" points="822.3,339.9 822.3,320.6 839.7,320.6 839.7,339.9 822.3,339.9"/>
  <polygon class="pl" points="844.1,358.9 844.1,320.6 861.5,320.6 861.5,358.9 844.1,358.9"/>
  <polygon class="pl" points="865.9,366.4 865.9,360.0 883.3,360.0 883.3,366.4 865.9,366.4"/>
  <polygon class="pl" points="887.6,325.8 887.6,320.6 905.0,320.6 905.0,325.8 887.6,325.8"/>
</g>
<g stroke="#000" stroke-width="0.90" fill="#66C2A5"  clip-path="url(#axis_clip)">
  <polygon class="pl" points="234.8,344.2 234.8,320.6 252.2,320.6 252.2,344.2 234.8,344.2"/>
  <polygon class="pl" points="278.3,325.5 278.3,320.6 295.7,320.6 295.7,325.5 278.3,325.5"/>
  <polygon class="pl" points="408.9,335.4 408.9,320.6 426.3,320.6 426.3,335.4 408.9,335.4"/>
  <polygon class="pl" points="452.4,372.2 452.4,320.6 469.8,320.6 469.8,372.2 452.4,372.2"/>
  <polygon class="pl" points="474.2,343.9 474.2,320.6 491.6,320.6 491.6,343.9 474.2,343.9"/>
  <polygon class="pl" points="495.9,352.5 495.9,320.6 513.3,320.6 513.3,352.5 495.9,352.5"/>
  <polygon class="pl" points="539.5,361.3 539.5,320.6 556.9,320.6 556.9,361.3 539.5,361.3"/>
  <polygon class="pl" points="561.2,337.3 561.2,320.6 578.6,320.6 578.6,337.3 561.2,337.3"/>
  <polygon class="pl" points="604.7,325.0 604.7,320.6 622.1,320.6 622.1,325.0 604.7,325.0"/>
  <polygon class="pl" points="626.5,325.7 626.5,320.6 643.9,320.6 643.9,325.7 626.5,325.7"/>
  <polygon class="pl" points="648.3,416.3 648.3,320.6 665.7,320.6 665.7,416.3 648.3,416.3"/>
  <polygon class="pl" points="670.0,348.1 670.0,320.6 687.4,320.6 687.4,348.1 670.0,348.1"/>
  <polygon class="pl" points="691.8,343.7 691.8,320.6 709.2,320.6 709.2,343.7 691.8,343.7"/>
  <polygon class="pl" points="713.5,368.6 713.5,320.6 730.9,320.6 730.9,368.6 713.5,368.6"/>
  <polygon class="pl" points="800.6,385.3 800.6,348.7 818.0,348.7 818.0,385.3 800.6,385.3"/>
  <polygon class="pl" points="865.9,360.0 865.9,320.6 883.3,320.6 883.3,360.0 865.9,360.0"/>
</g>
<g stroke="#000" stroke-width="0.90" fill="#E78AC3"  clip-path="url(#axis_clip)">
  <polygon class="pl" points="321.9,449.3 321.9,320.6 339.3,320.6 339.3,449.3 321.9,449.3"/>
  <polygon class="pl" points="343.6,326.9 343.6,320.6 361.0,320.6 361.0,326.9 343.6,326.9"/>
  <polygon class="pl" points="800.6,348.7 800.6,320.6 818.0,320.6 818.0,348.7 800.6,348.7"/>
</g>
<g stroke="#000" stroke-width="0.90" fill="#A6D854"  clip-path="url(#axis_clip)">
</g>
<g class="pl" fill="#000" stroke="#000" stroke-width="0.900">
  <circle cx="156.5" cy="162.5" r="5.4" />
  <circle cx="178.2" cy="207.3" r="5.4" />
  <circle cx="200.0" cy="198.5" r="5.4" />
  <circle cx="221.8" cy="248.1" r="5.4" />
  <circle cx="243.5" cy="303.1" r="5.4" />
  <circle cx="265.3" cy="308.3" r="5.4" />
  <circle cx="287.0" cy="200.9" r="5.4" />
  <circle cx="308.8" cy="223.6" r="5.4" />
  <circle cx="330.6" cy="433.0" r="5.4" />
  <circle cx="352.3" cy="148.0" r="5.4" />
  <circle cx="374.1" cy="355.6" r="5.4" />
  <circle cx="395.8" cy="204.9" r="5.4" />
  <circle cx="417.6" cy="344.6" r="5.4" />
  <circle cx="439.4" cy="231.7" r="5.4" />
  <circle cx="461.1" cy="313.4" r="5.4" />
  <circle cx="482.9" cy="306.1" r="5.4" />
  <circle cx="504.6" cy="323.1" r="5.4" />
  <circle cx="526.4" cy="214.9" r="5.4" />
  <circle cx="548.2" cy="373.8" r="5.4" />
  <circle cx="569.9" cy="237.1" r="5.4" />
  <circle cx="591.7" cy="216.4" r="5.4" />
  <circle cx="613.4" cy="210.7" r="5.4" />
  <circle cx="635.2" cy="295.9" r="5.4" />
  <circle cx="657.0" cy="356.7" r="5.4" />
  <circle cx="678.7" cy="312.3" r="5.4" />
  <circle cx="700.5" cy="225.8" r="5.4" />
  <circle cx="722.2" cy="328.1" r="5.4" />
  <circle cx="744.0" cy="280.8" r="5.4" />
  <circle cx="765.8" cy="263.9" r="5.4" />
  <circle cx="787.5" cy="236.2" r="5.4" />
  <circle cx="809.3" cy="378.6" r="5.4" />
  <circle cx="831.0" cy="304.4" r="5.4" />
  <circle cx="852.8" cy="145.0" r="5.4" />
  <circle cx="874.6" cy="315.5" r="5.4" />
  <circle cx="896.3" cy="265.0" r="5.4" />
</g>
<g stroke="#000" stroke-width="0.90" fill="#808080"  >
  <polygon class="pl" points="959.6,270.7 959.6,271.1 977.0,271.1 977.0,270.7 959.6,270.7"/>
</g>
<g stroke="#000" stroke-width="0.90" fill="#8DA0CB"  >
  <polygon class="pl" points="959.6,271.1 959.6,275.2 977.0,275.2 977.0,271.1 959.6,271.1"/>
</g>
<g stroke="#000" stroke-width="0.90" fill="#66C2A5"  >
  <polygon class="pl" points="959.6,275.2 959.6,278.6 977.0,278.6 977.0,275.2 959.6,275.2"/>
</g>
<g stroke="#000" stroke-width="0.90" fill="#E78AC3"  >
  <polygon class="pl" points="959.6,278.6 959.6,309.0 977.0,309.0 977.0,278.6 959.6,278.6"/>
</g>
<g stroke="#000" stroke-width="0.90" fill="#A6D854"  >
  <polygon class="pl" points="959.6,309.0 959.6,320.6 977.0,320.6 977.0,309.0 959.6,309.0"/>
</g>
<g stroke="#000" stroke-width="0.90" fill="#808080"  >
</g>
<g stroke="#000" stroke-width="0.90" fill="#8DA0CB"  >
</g>
<g stroke="#000" stroke-width="0.90" fill="#66C2A5"  >
</g>
<g stroke="#000" stroke-width="0.90" fill="#E78AC3"  >
</g>
<g stroke="#000" stroke-width="0.90" fill="#A6D854"  >
</g>
<g class="pl" fill="#000" stroke="#000" stroke-width="0.900">
  <circle cx="968.3" cy="270.7" r="5.4" />
</g>
<text transform="translate(968.3,593.9)"  font-size="21.60" fill="#808080" stroke="none" text-anchor="middle">
      <tspan x="0" y="18.0">Average over</tspan><tspan x="0" y="42.2">1990&#8211;2024</tspan>
    </text>
<g stroke="none" stroke-width="0.9000"  >
  <polygon points="968.3,587.2 974.3,593.9 962.3,593.9 968.3,587.2" fill="#808080"/>
</g>
<text transform="translate(1009.2,231.1)" dy="6.5" font-size="21.60" fill="#000" stroke="none">Fossil CO<tspan dy="0.2em"><tspan style="font-size:70%">2</tspan></tspan><tspan dy="-0.2em"></tspan></text>
<text transform="translate(1009.2,335.6)" dy="6.5" font-size="21.60" fill="#A6D854" stroke="none">Population</text>
<text transform="translate(1009.2,314.7)" dy="6.5" font-size="21.60" fill="#E78AC3" stroke="none">GDP/Population</text>
<text transform="translate(1009.2,293.8)" dy="6.5" font-size="21.60" fill="#66C2A5" stroke="none">Energy/GDP</text>
<text transform="translate(1009.2,272.9)" dy="6.5" font-size="21.60" fill="#8DA0CB" stroke="none">CO<tspan dy="0.2em"><tspan style="font-size:70%">2</tspan></tspan><tspan dy="-0.2em">/</tspan>Energy</text>
<text transform="translate(1009.2,252.0)" dy="6.5" font-size="21.60" fill="#808080" stroke="none">Interactions</text>
<polyline class="pl" points="985.2,270.7 986.2,270.5 987.2,270.1 988.1,269.5 988.9,268.6 989.7,267.6 990.4,266.3 991.1,264.9 991.7,263.3 992.4,261.6 992.9,259.8 993.5,257.9 994.1,256.0 994.6,254.0 995.1,251.9 995.7,249.9 996.2,247.8 996.7,245.8 997.3,243.9 997.9,242.0 998.4,240.2 999.1,238.5 999.7,236.9 1000.4,235.5 1001.1,234.2 1001.9,233.2 1002.7,232.3 1003.6,231.7 1004.6,231.3 1005.6,231.1" stroke="#000" stroke-width="0.90" stroke-opacity="1.00" fill="none" />
<polyline class="pl" points="985.2,314.8 986.2,314.9 987.2,315.1 988.1,315.4 988.9,315.9 989.7,316.4 990.4,317.1 991.1,317.8 991.7,318.7 992.4,319.6 992.9,320.5 993.5,321.5 994.1,322.5 994.6,323.6 995.1,324.7 995.7,325.7 996.2,326.8 996.7,327.9 997.3,328.9 997.9,329.9 998.4,330.8 999.1,331.7 999.7,332.5 1000.4,333.3 1001.1,333.9 1001.9,334.5 1002.7,335.0 1003.6,335.3 1004.6,335.5 1005.6,335.6" stroke="#A6D854" stroke-width="0.90" stroke-opacity="1.00" fill="none" />
<polyline class="pl" points="985.2,293.8 986.2,293.9 987.2,294.1 988.1,294.4 988.9,294.9 989.7,295.4 990.4,296.1 991.1,296.9 991.7,297.7 992.4,298.6 992.9,299.5 993.5,300.5 994.1,301.6 994.6,302.6 995.1,303.7 995.7,304.8 996.2,305.9 996.7,306.9 997.3,308.0 997.9,308.9 998.4,309.9 999.1,310.8 999.7,311.6 1000.4,312.4 1001.1,313.0 1001.9,313.6 1002.7,314.1 1003.6,314.4 1004.6,314.6 1005.6,314.7" stroke="#E78AC3" stroke-width="0.90" stroke-opacity="1.00" fill="none" />
<polyline class="pl" points="985.2,276.9 986.2,276.9 987.2,277.1 988.1,277.4 988.9,277.7 989.7,278.2 990.4,278.7 991.1,279.3 991.7,280.0 992.4,280.7 992.9,281.5 993.5,282.3 994.1,283.2 994.6,284.0 995.1,284.9 995.7,285.8 996.2,286.6 996.7,287.5 997.3,288.3 997.9,289.1 998.4,289.9 999.1,290.6 999.7,291.3 1000.4,291.9 1001.1,292.5 1001.9,292.9 1002.7,293.3 1003.6,293.6 1004.6,293.7 1005.6,293.8" stroke="#66C2A5" stroke-width="0.90" stroke-opacity="1.00" fill="none" />
<polyline class="pl" points="985.2,273.1 986.2,273.1 987.2,273.1 988.1,273.1 988.9,273.1 989.7,273.1 990.4,273.1 991.1,273.1 991.7,273.1 992.4,273.1 992.9,273.1 993.5,273.0 994.1,273.0 994.6,273.0 995.1,273.0 995.7,273.0 996.2,273.0 996.7,273.0 997.3,273.0 997.9,273.0 998.4,273.0 999.1,272.9 999.7,272.9 1000.4,272.9 1001.1,272.9 1001.9,272.9 1002.7,272.9 1003.6,272.9 1004.6,272.9 1005.6,272.9" stroke="#8DA0CB" stroke-width="0.90" stroke-opacity="1.00" fill="none" />
<polyline class="pl" points="985.2,270.9 986.2,270.8 987.2,270.6 988.1,270.3 988.9,269.9 989.7,269.4 990.4,268.8 991.1,268.1 991.7,267.4 992.4,266.5 992.9,265.7 993.5,264.8 994.1,263.9 994.6,262.9 995.1,261.9 995.7,261.0 996.2,260.0 996.7,259.0 997.3,258.1 997.9,257.2 998.4,256.3 999.1,255.5 999.7,254.8 1000.4,254.1 1001.1,253.5 1001.9,253.0 1002.7,252.6 1003.6,252.3 1004.6,252.1 1005.6,252.0" stroke="#808080" stroke-width="0.90" stroke-opacity="1.00" fill="none" />
<text transform="translate(145.6,47.2)" dy="0.0" font-size="27.00" fill="#808080" stroke="none">Kaya decomposition of emissions growth: Indonesia</text>
<text transform="translate(157.6,60.7)" dy="18.0" font-size="18.00" fill="#808080" stroke="none">Percentage change relative to previous year</text>
<text transform="translate(157.6,82.4)" dy="18.0" font-size="18.00" fill="#808080" stroke="none">Adjusted for leap years</text>
<text transform="translate(160.3,666.1)" font-size="19.80" font-family="Helvetica" fill="#BFBFBF" stroke="none" xml:space="preserve">Global Carbon Project</text>
<g>
  <rect x="123.0" y="651.4" width="34" height="17" fill="#FFF" stroke="none" opacity="0.01"/>
  <g transform="translate(124.0,652.4) scale(0.24)">
  <g><circle fill="#FFF" cx="37.79" cy="28.5" r="28.84"/>
     <circle fill="none" cx="37.79" cy="28.5" r="28.84" stroke="#BFBFBF" stroke-width="5.5"/>
     <path fill="#BFBFBF" d="M37.16,23.19 l-4.29,2.23c-0.458-0.951-1.02-1.62-1.69-2c-0.667-0.38-1.29-0.571-1.86-0.571c-2.86,0-4.29,1.89-4.29,5.66 c0,1.71,0.36,3.08,1.09,4.11c0.724,1.03,1.79,1.54,3.2,1.54c1.87,0,3.18-0.915,3.94-2.74l3.94,2 c-0.838,1.56-2,2.79-3.49,3.69c-1.48,0.896-3.12,1.34-4.91,1.34c-2.86,0-5.16-0.875-6.92-2.63 c-1.75-1.75-2.63-4.19-2.63-7.31c0-3.05,0.886-5.47,2.66-7.26c1.77-1.79,4.01-2.69,6.72-2.69 C32.6,18.56,35.44,20.1,37.16,23.19z
              M55.61,23.19l-4.23,2.23c-0.457-0.951-1.02-1.62-1.69-2 c-0.668-0.38-1.31-0.571-1.91-0.571c-2.86,0-4.29,1.89-4.29,5.66c0,1.71,0.363,3.08,1.09,4.11 c0.723,1.03,1.79,1.54,3.2,1.54c1.87,0,3.18-0.915,3.94-2.74l4,2c-0.875,1.56-2.06,2.79-3.54,3.69 c-1.49,0.9-3.11,1.34-4.86,1.34c-2.9,0-5.21-0.875-6.94-2.63c-1.74-1.75-2.6-4.19-2.6-7.31 c0-3.05,0.885-5.47,2.66-7.26c1.77-1.79,4.01-2.69,6.71-2.69C51.12,18.56,53.944,20.1,55.61,23.19z"/>
  </g></g>
  <g transform="translate(140.2,652.4) scale(0.24)">
  <g><circle fill="#FFF" cx="37.79" cy="28.5" r="28.84"/>
     <circle fill="none" cx="37.79" cy="28.5" r="28.84" stroke="#BFBFBF" stroke-width="5.5"/>
     <path fill="#BFBFBF" d="M46.129,20.557v13.085h-3.656v15.542h-9.944V33.643h-3.656V20.557 c0-0.572,0.2-1.057,0.599-1.457c0.401-0.399,0.887-0.6,1.457-0.6h13.144c0.533,0,1.01,0.2,1.428,0.6 C45.918,19.5,46.129,19.986,46.129,20.557z
              M33.042,12.329c0-3.008,1.485-4.514,4.458-4.514s4.457,1.504,4.457,4.514 c0,2.971-1.486,4.457-4.457,4.457S33.042,15.3,33.042,12.329z"/>
  </g></g>
</g>
</g>
</svg>
