<svg version="1.1" xmlns="http://www.w3.org/2000/svg" xmlns:xlink="http://www.w3.org/1999/xlink" width="100%" height="100%" viewBox="0 0 1200.000 674.916">
<title>Annual per capita energy consumption, 2000–2021</title>
<style type="text/css">
  #main {font-family:Helvetica,Arial,sans-serif; font-size:27.00px;
         fill-opacity:1; fill:#000000; stroke:none; stroke-linejoin:round; stroke-linecap:round; stroke-width:1.00;}
  .marker {stroke-opacity:0;fill-opacity:0;}
  .marker:hover {stroke-opacity:0.5; fill-opacity:1;}
  .ticklabel {font-size:27.00px;fill:#808080;stroke:none}
  .ytl {text-anchor:end;}
  .dp1 {pointer-events:none;font-size:70%;text-anchor:middle;fill:#000000;}
  .dp2 {pointer-events:none;font-size:70%;text-anchor:middle;fill:#FFFFFF;}
  .numtip {pointer-events:none;}
  .cc {opacity:0.25;}
.dl_fe {background-color:#FDFFDF;display:flex;margin:auto;align-items:center}
.dl_fe_p {font-size:20px;text-align:center;margin:3px}
.dl_el {display:none;pointer-events:none;}
.cc:hover + .dl_el {display:block;}
text:hover + .dl_el {display:block;}
</style>
<defs>
  <clipPath id="axis_clip"><rect x="145.8" y="54.2" width="761.2" height="532.8" /></clipPath>
  <path id="line_x" d="M 145.600,0 h 761.600" stroke="#262626" stroke-opacity="0.15" stroke-width="1.00"/>
  <path id="tick_y" d="M 145.600,0 h -6.000" stroke="#808080" stroke-width="0.90"/>
  <path id="tick_x" d="M 0,587.177 v 6.000" stroke="#808080" stroke-width="0.90"/>
</defs>
<g id="main">
<use xlink:href="#line_x" transform="translate(0,587.2)"/>
<use xlink:href="#line_x" transform="translate(0,453.9)"/>
<use xlink:href="#line_x" transform="translate(0,320.6)"/>
<use xlink:href="#line_x" transform="translate(0,187.3)"/>
<use xlink:href="#line_x" transform="translate(0,54.0)"/>
<use xlink:href="#tick_y" transform="translate(0,587.2)"/>
<use xlink:href="#tick_y" transform="translate(0,453.9)"/>
<use xlink:href="#tick_y" transform="translate(0,320.6)"/>
<use xlink:href="#tick_y" transform="translate(0,187.3)"/>
<use xlink:href="#tick_y" transform="translate(0,54.0)"/>
<use xlink:href="#tick_x" transform="translate(209.1,0)"/>
<use xlink:href="#tick_x" transform="translate(336.0,0)"/>
<use xlink:href="#tick_x" transform="translate(462.9,0)"/>
<use xlink:href="#tick_x" transform="translate(589.9,0)"/>
<use xlink:href="#tick_x" transform="translate(716.8,0)"/>
<use xlink:href="#tick_x" transform="translate(843.7,0)"/>
<polyline points="145.6,53.993 145.6,587.177 907.2,587.177" stroke="#808080" stroke-width="0.90" fill="none"/>
<text class="ticklabel ytl" transform="translate(128.8,595.3)">0</text>
<text class="ticklabel ytl" transform="translate(128.8,462.0)">100</text>
<text class="ticklabel ytl" transform="translate(128.8,328.7)">200</text>
<text class="ticklabel ytl" transform="translate(128.8,195.4)">300</text>
<text class="ticklabel ytl" transform="translate(128.8,62.1)">400 GJ</text>
<g stroke="#262626" stroke-width="0.9000"  clip-path="url(#axis_clip)">
  <polygon points="158.3,587.2 158.3,501.1 162.9,501.1 162.9,587.2" fill="#FFE6E6"/>
  <polygon points="285.2,587.2 285.2,542.4 289.8,542.4 289.8,587.2" fill="#FFEDE6"/>
  <polygon points="412.2,587.2 412.2,136.1 416.8,136.1 416.8,587.2" fill="#FFFDE6"/>
  <polygon points="539.1,587.2 539.1,384.9 543.7,384.9 543.7,587.2" fill="#E6F2FF"/>
  <polygon points="666.0,587.2 666.0,570.3 670.6,570.3 670.6,587.2" fill="#FAE6FF"/>
  <polygon points="793.0,587.2 793.0,509.9 797.6,509.9 797.6,587.2" fill="#FFE6E6"/>
</g>
<g stroke="#262626" stroke-width="0.9000"  clip-path="url(#axis_clip)">
  <polygon points="162.9,587.2 162.9,501.4 167.5,501.4 167.5,587.2" fill="#F4DDDD"/>
  <polygon points="289.8,587.2 289.8,540.2 294.5,540.2 294.5,587.2" fill="#FFE9E0"/>
  <polygon points="416.8,587.2 416.8,151.6 421.4,151.6 421.4,587.2" fill="#FCFADF"/>
  <polygon points="543.7,587.2 543.7,381.3 548.3,381.3 548.3,587.2" fill="#DCEEFF"/>
  <polygon points="670.6,587.2 670.6,570.5 675.3,570.5 675.3,587.2" fill="#F7DEFD"/>
  <polygon points="797.6,587.2 797.6,510.1 802.2,510.1 802.2,587.2" fill="#FEDDDD"/>
</g>
<g stroke="#262626" stroke-width="0.9000"  clip-path="url(#axis_clip)">
  <polygon points="167.5,587.2 167.5,500.7 172.1,500.7 172.1,587.2" fill="#E9D4D4"/>
  <polygon points="294.5,587.2 294.5,536.3 299.1,536.3 299.1,587.2" fill="#FFE5DB"/>
  <polygon points="421.4,587.2 421.4,149.5 426.0,149.5 426.0,587.2" fill="#F9F6D8"/>
  <polygon points="548.3,587.2 548.3,383.1 552.9,383.1 552.9,587.2" fill="#D2E9FF"/>
  <polygon points="675.3,587.2 675.3,570.3 679.9,570.3 679.9,587.2" fill="#F3D6FB"/>
  <polygon points="802.2,587.2 802.2,509.9 806.8,509.9 806.8,587.2" fill="#FDD4D4"/>
</g>
<g stroke="#262626" stroke-width="0.9000"  clip-path="url(#axis_clip)">
  <polygon points="172.1,587.2 172.1,498.8 176.8,498.8 176.8,587.2" fill="#DECBCB"/>
  <polygon points="299.1,587.2 299.1,528.3 303.7,528.3 303.7,587.2" fill="#FFE2D6"/>
  <polygon points="426.0,587.2 426.0,152.3 430.6,152.3 430.6,587.2" fill="#F5F3D1"/>
  <polygon points="552.9,587.2 552.9,379.8 557.6,379.8 557.6,587.2" fill="#C9E4FF"/>
  <polygon points="679.9,587.2 679.9,570.0 684.5,570.0 684.5,587.2" fill="#F0CEF9"/>
  <polygon points="806.8,587.2 806.8,509.3 811.4,509.3 811.4,587.2" fill="#FCCBCC"/>
</g>
<g stroke="#262626" stroke-width="0.9000"  clip-path="url(#axis_clip)">
  <polygon points="176.8,587.2 176.8,495.6 181.4,495.6 181.4,587.2" fill="#D3C2C2"/>
  <polygon points="303.7,587.2 303.7,518.7 308.3,518.7 308.3,587.2" fill="#FFDED1"/>
  <polygon points="430.6,587.2 430.6,148.1 435.2,148.1 435.2,587.2" fill="#F2EFCB"/>
  <polygon points="557.6,587.2 557.6,377.6 562.2,377.6 562.2,587.2" fill="#BFE0FF"/>
  <polygon points="684.5,587.2 684.5,568.8 689.1,568.8 689.1,587.2" fill="#EDC6F6"/>
  <polygon points="811.4,587.2 811.4,507.6 816.0,507.6 816.0,587.2" fill="#FCC2C3"/>
</g>
<g stroke="#262626" stroke-width="0.9000"  clip-path="url(#axis_clip)">
  <polygon points="181.4,587.2 181.4,493.8 186.0,493.8 186.0,587.2" fill="#C8B9B9"/>
  <polygon points="308.3,587.2 308.3,509.9 312.9,509.9 312.9,587.2" fill="#FFDACC"/>
  <polygon points="435.2,587.2 435.2,152.2 439.9,152.2 439.9,587.2" fill="#EFECC4"/>
  <polygon points="562.2,587.2 562.2,378.1 566.8,378.1 566.8,587.2" fill="#B6DBFF"/>
  <polygon points="689.1,587.2 689.1,568.0 693.7,568.0 693.7,587.2" fill="#EABFF4"/>
  <polygon points="816.0,587.2 816.0,507.2 820.7,507.2 820.7,587.2" fill="#FBB9BA"/>
</g>
<g stroke="#262626" stroke-width="0.9000"  clip-path="url(#axis_clip)">
  <polygon points="186.0,587.2 186.0,492.4 190.6,492.4 190.6,587.2" fill="#BDB0B0"/>
  <polygon points="312.9,587.2 312.9,502.9 317.5,502.9 317.5,587.2" fill="#FFD7C7"/>
  <polygon points="439.9,587.2 439.9,159.8 444.5,159.8 444.5,587.2" fill="#ECE9BE"/>
  <polygon points="566.8,587.2 566.8,377.2 571.4,377.2 571.4,587.2" fill="#ACD6FF"/>
  <polygon points="693.7,587.2 693.7,567.3 698.3,567.3 698.3,587.2" fill="#E7B8F2"/>
  <polygon points="820.7,587.2 820.7,506.4 825.3,506.4 825.3,587.2" fill="#FAB1B2"/>
</g>
<g stroke="#262626" stroke-width="0.9000"  clip-path="url(#axis_clip)">
  <polygon points="190.6,587.2 190.6,490.7 195.2,490.7 195.2,587.2" fill="#B3A7A7"/>
  <polygon points="317.5,587.2 317.5,496.2 322.2,496.2 322.2,587.2" fill="#FFD3C2"/>
  <polygon points="444.5,587.2 444.5,158.2 449.1,158.2 449.1,587.2" fill="#E9E5B8"/>
  <polygon points="571.4,587.2 571.4,380.6 576.0,380.6 576.0,587.2" fill="#A3D1FF"/>
  <polygon points="698.3,587.2 698.3,565.9 703.0,565.9 703.0,587.2" fill="#E3B0F0"/>
  <polygon points="825.3,587.2 825.3,505.6 829.9,505.6 829.9,587.2" fill="#F9A8A9"/>
</g>
<g stroke="#262626" stroke-width="0.9000"  clip-path="url(#axis_clip)">
  <polygon points="195.2,587.2 195.2,490.8 199.8,490.8 199.8,587.2" fill="#A89D9D"/>
  <polygon points="322.2,587.2 322.2,493.3 326.8,493.3 326.8,587.2" fill="#FFCFBC"/>
  <polygon points="449.1,587.2 449.1,172.7 453.7,172.7 453.7,587.2" fill="#E6E2B1"/>
  <polygon points="576.0,587.2 576.0,382.3 580.6,382.3 580.6,587.2" fill="#99CDFF"/>
  <polygon points="703.0,587.2 703.0,565.0 707.6,565.0 707.6,587.2" fill="#E0A9EE"/>
  <polygon points="829.9,587.2 829.9,505.5 834.5,505.5 834.5,587.2" fill="#F8A0A1"/>
</g>
<g stroke="#262626" stroke-width="0.9000"  clip-path="url(#axis_clip)">
  <polygon points="199.8,587.2 199.8,493.5 204.5,493.5 204.5,587.2" fill="#9D9494"/>
  <polygon points="326.8,587.2 326.8,489.9 331.4,489.9 331.4,587.2" fill="#FFCCB7"/>
  <polygon points="453.7,587.2 453.7,196.7 458.3,196.7 458.3,587.2" fill="#E2DEAB"/>
  <polygon points="580.6,587.2 580.6,395.0 585.3,395.0 585.3,587.2" fill="#90C8FF"/>
  <polygon points="707.6,587.2 707.6,563.6 712.2,563.6 712.2,587.2" fill="#DDA2EC"/>
  <polygon points="834.5,587.2 834.5,508.4 839.1,508.4 839.1,587.2" fill="#F79798"/>
</g>
<g stroke="#262626" stroke-width="0.9000"  clip-path="url(#axis_clip)">
  <polygon points="204.5,587.2 204.5,490.1 209.1,490.1 209.1,587.2" fill="#928A8A"/>
  <polygon points="331.4,587.2 331.4,483.8 336.0,483.8 336.0,587.2" fill="#FFC8B2"/>
  <polygon points="458.3,587.2 458.3,187.0 462.9,187.0 462.9,587.2" fill="#DFDBA5"/>
  <polygon points="585.3,587.2 585.3,388.1 589.9,388.1 589.9,587.2" fill="#86C3FF"/>
  <polygon points="712.2,587.2 712.2,562.9 716.8,562.9 716.8,587.2" fill="#DA9BEA"/>
  <polygon points="839.1,587.2 839.1,505.9 843.7,505.9 843.7,587.2" fill="#F78F90"/>
</g>
<g stroke="#262626" stroke-width="0.9000"  clip-path="url(#axis_clip)">
  <polygon points="209.1,587.2 209.1,489.0 213.7,489.0 213.7,587.2" fill="#878080"/>
  <polygon points="336.0,587.2 336.0,476.4 340.6,476.4 340.6,587.2" fill="#FFC4AD"/>
  <polygon points="462.9,587.2 462.9,193.9 467.5,193.9 467.5,587.2" fill="#DCD8A0"/>
  <polygon points="589.9,587.2 589.9,394.3 594.5,394.3 594.5,587.2" fill="#7DBFFF"/>
  <polygon points="716.8,587.2 716.8,561.8 721.4,561.8 721.4,587.2" fill="#D794E8"/>
  <polygon points="843.7,587.2 843.7,505.2 848.3,505.2 848.3,587.2" fill="#F68688"/>
</g>
<g stroke="#262626" stroke-width="0.9000"  clip-path="url(#axis_clip)">
  <polygon points="213.7,587.2 213.7,488.9 218.3,488.9 218.3,587.2" fill="#7C7777"/>
  <polygon points="340.6,587.2 340.6,472.6 345.2,472.6 345.2,587.2" fill="#FFC1A8"/>
  <polygon points="467.5,587.2 467.5,207.6 472.2,207.6 472.2,587.2" fill="#D9D49A"/>
  <polygon points="594.5,587.2 594.5,396.7 599.1,396.7 599.1,587.2" fill="#73BAFF"/>
  <polygon points="721.4,587.2 721.4,560.6 726.0,560.6 726.0,587.2" fill="#D48DE5"/>
  <polygon points="848.3,587.2 848.3,504.9 853.0,504.9 853.0,587.2" fill="#F57E80"/>
</g>
<g stroke="#262626" stroke-width="0.9000"  clip-path="url(#axis_clip)">
  <polygon points="218.3,587.2 218.3,488.4 222.9,488.4 222.9,587.2" fill="#716D6D"/>
  <polygon points="345.2,587.2 345.2,469.1 349.8,469.1 349.8,587.2" fill="#FFBDA3"/>
  <polygon points="472.2,587.2 472.2,200.6 476.8,200.6 476.8,587.2" fill="#D6D194"/>
  <polygon points="599.1,587.2 599.1,398.4 603.7,398.4 603.7,587.2" fill="#6AB5FF"/>
  <polygon points="726.0,587.2 726.0,560.1 730.6,560.1 730.6,587.2" fill="#D187E3"/>
  <polygon points="853.0,587.2 853.0,505.5 857.6,505.5 857.6,587.2" fill="#F47677"/>
</g>
<g stroke="#262626" stroke-width="0.9000"  clip-path="url(#axis_clip)">
  <polygon points="222.9,587.2 222.9,488.5 227.5,488.5 227.5,587.2" fill="#666363"/>
  <polygon points="349.8,587.2 349.8,466.5 354.5,466.5 354.5,587.2" fill="#FFB99E"/>
  <polygon points="476.8,587.2 476.8,199.8 481.4,199.8 481.4,587.2" fill="#D3CE8F"/>
  <polygon points="603.7,587.2 603.7,405.2 608.3,405.2 608.3,587.2" fill="#60B0FF"/>
  <polygon points="730.6,587.2 730.6,558.5 735.3,558.5 735.3,587.2" fill="#CE80E1"/>
  <polygon points="857.6,587.2 857.6,506.1 862.2,506.1 862.2,587.2" fill="#F36E6F"/>
</g>
<g stroke="#262626" stroke-width="0.9000"  clip-path="url(#axis_clip)">
  <polygon points="227.5,587.2 227.5,488.8 232.1,488.8 232.1,587.2" fill="#5B5858"/>
  <polygon points="354.5,587.2 354.5,465.7 359.1,465.7 359.1,587.2" fill="#FFB598"/>
  <polygon points="481.4,587.2 481.4,206.6 486.0,206.6 486.0,587.2" fill="#CFCA89"/>
  <polygon points="608.3,587.2 608.3,403.0 612.9,403.0 612.9,587.2" fill="#57ACFF"/>
  <polygon points="735.3,587.2 735.3,558.0 739.9,558.0 739.9,587.2" fill="#CB7ADF"/>
  <polygon points="862.2,587.2 862.2,506.6 866.8,506.6 866.8,587.2" fill="#F26567"/>
</g>
<g stroke="#262626" stroke-width="0.9000"  clip-path="url(#axis_clip)">
  <polygon points="232.1,587.2 232.1,488.6 236.8,488.6 236.8,587.2" fill="#504E4E"/>
  <polygon points="359.1,587.2 359.1,464.4 363.7,464.4 363.7,587.2" fill="#FFB293"/>
  <polygon points="486.0,587.2 486.0,209.9 490.6,209.9 490.6,587.2" fill="#CCC784"/>
  <polygon points="612.9,587.2 612.9,401.2 617.6,401.2 617.6,587.2" fill="#4DA7FF"/>
  <polygon points="739.9,587.2 739.9,557.1 744.5,557.1 744.5,587.2" fill="#C873DD"/>
  <polygon points="866.8,587.2 866.8,506.5 871.4,506.5 871.4,587.2" fill="#F15D5F"/>
</g>
<g stroke="#262626" stroke-width="0.9000"  clip-path="url(#axis_clip)">
  <polygon points="236.8,587.2 236.8,487.8 241.4,487.8 241.4,587.2" fill="#454444"/>
  <polygon points="363.7,587.2 363.7,460.9 368.3,460.9 368.3,587.2" fill="#FFAE8E"/>
  <polygon points="490.6,587.2 490.6,211.5 495.2,211.5 495.2,587.2" fill="#C9C47F"/>
  <polygon points="617.6,587.2 617.6,399.7 622.2,399.7 622.2,587.2" fill="#44A2FF"/>
  <polygon points="744.5,587.2 744.5,556.3 749.1,556.3 749.1,587.2" fill="#C56DDB"/>
  <polygon points="871.4,587.2 871.4,506.3 876.0,506.3 876.0,587.2" fill="#F15557"/>
</g>
<g stroke="#262626" stroke-width="0.9000"  clip-path="url(#axis_clip)">
  <polygon points="241.4,587.2 241.4,486.1 246.0,486.1 246.0,587.2" fill="#3A3939"/>
  <polygon points="368.3,587.2 368.3,456.5 372.9,456.5 372.9,587.2" fill="#FFAA89"/>
  <polygon points="495.2,587.2 495.2,200.5 499.9,200.5 499.9,587.2" fill="#C6C079"/>
  <polygon points="622.2,587.2 622.2,399.3 626.8,399.3 626.8,587.2" fill="#3A9EFF"/>
  <polygon points="749.1,587.2 749.1,554.7 753.7,554.7 753.7,587.2" fill="#C267D9"/>
  <polygon points="876.0,587.2 876.0,505.9 880.7,505.9 880.7,587.2" fill="#F04D4F"/>
</g>
<g stroke="#262626" stroke-width="0.9000"  clip-path="url(#axis_clip)">
  <polygon points="246.0,587.2 246.0,486.3 250.6,486.3 250.6,587.2" fill="#2F2F2F"/>
  <polygon points="372.9,587.2 372.9,452.3 377.5,452.3 377.5,587.2" fill="#FFA784"/>
  <polygon points="499.9,587.2 499.9,205.8 504.5,205.8 504.5,587.2" fill="#C3BD74"/>
  <polygon points="626.8,587.2 626.8,402.6 631.4,402.6 631.4,587.2" fill="#3199FF"/>
  <polygon points="753.7,587.2 753.7,554.3 758.3,554.3 758.3,587.2" fill="#BF61D6"/>
  <polygon points="880.7,587.2 880.7,506.8 885.3,506.8 885.3,587.2" fill="#EF4548"/>
</g>
<g stroke="#262626" stroke-width="0.9000"  clip-path="url(#axis_clip)">
  <polygon points="250.6,587.2 250.6,491.3 255.2,491.3 255.2,587.2" fill="#242424"/>
  <polygon points="377.5,587.2 377.5,449.1 382.2,449.1 382.2,587.2" fill="#FFA37F"/>
  <polygon points="504.5,587.2 504.5,235.9 509.1,235.9 509.1,587.2" fill="#BFBA6F"/>
  <polygon points="631.4,587.2 631.4,416.7 636.0,416.7 636.0,587.2" fill="#2794FF"/>
  <polygon points="758.3,587.2 758.3,556.4 763.0,556.4 763.0,587.2" fill="#BC5BD4"/>
  <polygon points="885.3,587.2 885.3,512.1 889.9,512.1 889.9,587.2" fill="#EE3D40"/>
</g>
<g stroke="#262626" stroke-width="0.9000"  clip-path="url(#axis_clip)">
  <polygon points="255.2,587.2 255.2,486.9 259.8,486.9 259.8,587.2" fill="#1A1A1A"/>
  <polygon points="382.2,587.2 382.2,439.8 386.8,439.8 386.8,587.2" fill="#FF9F7A"/>
  <polygon points="509.1,587.2 509.1,219.4 513.7,219.4 513.7,587.2" fill="#BCB66B"/>
  <polygon points="636.0,587.2 636.0,407.5 640.6,407.5 640.6,587.2" fill="#1E8FFF"/>
  <polygon points="763.0,587.2 763.0,553.6 767.6,553.6 767.6,587.2" fill="#B955D2"/>
  <polygon points="889.9,587.2 889.9,509.8 894.5,509.8 894.5,587.2" fill="#ED3638"/>
</g>
<text transform="translate(209.1,600.7)" dy="21.6" font-size="21.60" fill="#808080" stroke="none" text-anchor="middle">World</text>
<text transform="translate(336.0,600.7)" dy="21.6" font-size="21.60" fill="#808080" stroke="none" text-anchor="middle">China</text>
<text transform="translate(462.9,600.7)" dy="21.6" font-size="21.60" fill="#808080" stroke="none" text-anchor="middle">USA</text>
<text transform="translate(589.9,600.7)" dy="21.6" font-size="21.60" fill="#808080" stroke="none" text-anchor="middle">EU27</text>
<text transform="translate(716.8,600.7)" dy="21.6" font-size="21.60" fill="#808080" stroke="none" text-anchor="middle">India</text>
<text transform="translate(843.7,600.7)" dy="21.6" font-size="21.60" fill="#808080" stroke="none" text-anchor="middle">RoW</text>
<polyline class="pl" points="232.1,479.4 232.1,472.6 259.8,472.6 259.8,479.4" stroke="#808080" stroke-width="0.90" stroke-opacity="1.00" fill="none" clip-path="url(#axis_clip)"/>
<text transform="translate(259.8,462.5)" dy="0.0" font-size="21.60" fill="#808080" stroke="none" text-anchor="end">-0.1%/yr</text>
<polyline class="pl" points="359.1,433.1 359.1,426.3 386.8,426.3 386.8,433.1" stroke="#808080" stroke-width="0.90" stroke-opacity="1.00" fill="none" clip-path="url(#axis_clip)"/>
<text transform="translate(386.8,416.2)" dy="0.0" font-size="21.60" fill="#808080" stroke="none" text-anchor="end">+3.5%/yr</text>
<polyline class="pl" points="486.0,193.8 486.0,187.0 513.7,187.0 513.7,193.8" stroke="#808080" stroke-width="0.90" stroke-opacity="1.00" fill="none" clip-path="url(#axis_clip)"/>
<text transform="translate(513.7,122.6)" dy="0.0" font-size="21.60" fill="#808080" stroke="none" text-anchor="end">-1.0%/yr</text>
<polyline class="pl" points="499.9,187.0 499.9,136.1" stroke="#808080" stroke-width="0.90" stroke-opacity="1.00" fill="none" clip-path="url(#axis_clip)"/>
<polyline class="pl" points="612.9,392.5 612.9,385.8 640.6,385.8 640.6,392.5" stroke="#808080" stroke-width="0.90" stroke-opacity="1.00" fill="none" clip-path="url(#axis_clip)"/>
<text transform="translate(640.6,363.7)" dy="0.0" font-size="21.60" fill="#808080" stroke="none" text-anchor="end">-1.4%/yr</text>
<polyline class="pl" points="626.8,385.8 626.8,377.2" stroke="#808080" stroke-width="0.90" stroke-opacity="1.00" fill="none" clip-path="url(#axis_clip)"/>
<polyline class="pl" points="739.9,546.9 739.9,540.1 767.6,540.1 767.6,546.9" stroke="#808080" stroke-width="0.90" stroke-opacity="1.00" fill="none" clip-path="url(#axis_clip)"/>
<text transform="translate(767.6,530.0)" dy="0.0" font-size="21.60" fill="#808080" stroke="none" text-anchor="end">+1.6%/yr</text>
<polyline class="pl" points="866.8,499.2 866.8,492.4 894.5,492.4 894.5,499.2" stroke="#808080" stroke-width="0.90" stroke-opacity="1.00" fill="none" clip-path="url(#axis_clip)"/>
<text transform="translate(894.5,482.3)" dy="0.0" font-size="21.60" fill="#808080" stroke="none" text-anchor="end">-1.3%/yr</text>
<text transform="translate(145.6,47.2)" dy="0.0" font-size="27.00" fill="#808080" stroke="none">Annual per capita energy consumption, 2000&#8211;2021</text>
<text transform="translate(130.0,81.7)" dy="8.1" font-size="27.00" fill="#808080" stroke="none" text-anchor="end">per person</text>
<text transform="translate(145.6,54.0)" dy="18.0" font-size="18.00" fill="#808080" stroke="none" xml:space="preserve"> Annual growth rates from 2016&#8211;2021</text>
<text transform="translate(161.9,666.1)" font-size="19.80" fill="#BFBFBF" stroke="none" xml:space="preserve">Global Carbon Project   &#9679;   Data: BP</text>
<g>
  <rect x="123.0" y="651.4" width="34" height="17" fill="#FFF" stroke="none"/>
  <g transform="translate(124.0,652.4) scale(0.24)">
  <g><circle fill="#FFF" cx="37.79" cy="28.5" r="28.84"/>
     <circle fill="none" cx="37.79" cy="28.5" r="28.84" stroke="#BFBFBF" stroke-width="5.5"/>
     <path fill="#BFBFBF" d="M37.16,23.19 l-4.29,2.23c-0.458-0.951-1.02-1.62-1.69-2c-0.667-0.38-1.29-0.571-1.86-0.571c-2.86,0-4.29,1.89-4.29,5.66 c0,1.71,0.36,3.08,1.09,4.11c0.724,1.03,1.79,1.54,3.2,1.54c1.87,0,3.18-0.915,3.94-2.74l3.94,2 c-0.838,1.56-2,2.79-3.49,3.69c-1.48,0.896-3.12,1.34-4.91,1.34c-2.86,0-5.16-0.875-6.92-2.63 c-1.75-1.75-2.63-4.19-2.63-7.31c0-3.05,0.886-5.47,2.66-7.26c1.77-1.79,4.01-2.69,6.72-2.69 C32.6,18.56,35.44,20.1,37.16,23.19z
              M55.61,23.19l-4.23,2.23c-0.457-0.951-1.02-1.62-1.69-2 c-0.668-0.38-1.31-0.571-1.91-0.571c-2.86,0-4.29,1.89-4.29,5.66c0,1.71,0.363,3.08,1.09,4.11 c0.723,1.03,1.79,1.54,3.2,1.54c1.87,0,3.18-0.915,3.94-2.74l4,2c-0.875,1.56-2.06,2.79-3.54,3.69 c-1.49,0.9-3.11,1.34-4.86,1.34c-2.9,0-5.21-0.875-6.94-2.63c-1.74-1.75-2.6-4.19-2.6-7.31 c0-3.05,0.885-5.47,2.66-7.26c1.77-1.79,4.01-2.69,6.71-2.69C51.12,18.56,53.944,20.1,55.61,23.19z"/>
  </g></g>
  <g transform="translate(140.2,652.4) scale(0.24)">
  <g><circle fill="#FFF" cx="37.79" cy="28.5" r="28.84"/>
     <circle fill="none" cx="37.79" cy="28.5" r="28.84" stroke="#BFBFBF" stroke-width="5.5"/>
     <path fill="#BFBFBF" d="M46.129,20.557v13.085h-3.656v15.542h-9.944V33.643h-3.656V20.557 c0-0.572,0.2-1.057,0.599-1.457c0.401-0.399,0.887-0.6,1.457-0.6h13.144c0.533,0,1.01,0.2,1.428,0.6 C45.918,19.5,46.129,19.986,46.129,20.557z
              M33.042,12.329c0-3.008,1.485-4.514,4.458-4.514s4.457,1.504,4.457,4.514 c0,2.971-1.486,4.457-4.457,4.457S33.042,15.3,33.042,12.329z"/>
  </g></g>
</g>
</g>
</svg>
