<svg version="1.1" xmlns="http://www.w3.org/2000/svg" xmlns:xlink="http://www.w3.org/1999/xlink" width="100%" height="100%" viewBox="0 0 1200.000 674.916">
<title>Global Fossil CO2 Emissions</title>
<style type="text/css">
  #main {font-family:Helvetica,Arial,sans-serif; font-size:27.00px;
         fill-opacity:1; fill:#000000; stroke:none; stroke-linejoin:round; stroke-linecap:round; stroke-width:1.00;}
  .marker {stroke-opacity:0;fill-opacity:0;}
  .marker:hover {stroke-opacity:0.5; fill-opacity:1;}
  .ticklabel {font-size:27.00px;fill:#808080;stroke:none}
  .ytl {text-anchor:end;}
  .dp1 {pointer-events:none;font-size:70%;text-anchor:middle;fill:#000000;}
  .dp2 {pointer-events:none;font-size:70%;text-anchor:middle;fill:#FFFFFF;}
  .numtip {pointer-events:none;}
  .cc {opacity:0.25;}
.dl_fe {background-color:#FDFFDF;display:flex;margin:auto;align-items:center}
.dl_fe_p {font-size:20px;text-align:center;margin:3px}
.dl_el {display:none;pointer-events:none;}
.cc:hover + .dl_el {display:block;}
text:hover + .dl_el {display:block;}
</style>
<defs>
  <clipPath id="axis_clip"><rect x="145.8" y="54.2" width="761.2" height="532.8" /></clipPath>
  <path id="tick_y" d="M 145.600,0 h -6.000" stroke="#808080" stroke-width="0.90"/>
  <path id="tick_x" d="M 0,587.177 v 6.000" stroke="#808080" stroke-width="0.90"/>
</defs>
<g id="main">
<text class="ticklabel xtl" transform="translate(162.8,629.0)" text-anchor="middle">1960</text>
<text class="ticklabel xtl" transform="translate(277.3,629.0)" text-anchor="middle">1970</text>
<text class="ticklabel xtl" transform="translate(391.8,629.0)" text-anchor="middle">1980</text>
<text class="ticklabel xtl" transform="translate(506.4,629.0)" text-anchor="middle">1990</text>
<text class="ticklabel xtl" transform="translate(620.9,629.0)" text-anchor="middle">2000</text>
<text class="ticklabel xtl" transform="translate(735.4,629.0)" text-anchor="middle">2010</text>
<text class="ticklabel xtl" transform="translate(872.8,629.0)" text-anchor="middle">2022</text>
<text class="ticklabel ytl" transform="translate(128.8,595.3)">0</text>
<text class="ticklabel ytl" transform="translate(128.8,498.3)">2</text>
<text class="ticklabel ytl" transform="translate(128.8,401.4)">4</text>
<text class="ticklabel ytl" transform="translate(128.8,304.4)">6</text>
<text class="ticklabel ytl" transform="translate(128.8,207.5)">8</text>
<text class="ticklabel ytl" transform="translate(128.8,110.6)">10 Gt C</text>
<polyline class="pl" points="145.6,102.5 907.2,102.5" stroke="#E6E6E6" stroke-width="0.90" stroke-opacity="1.00" fill="none" clip-path="url(#axis_clip)"/>
<polyline class="pl" points="145.6,199.4 907.2,199.4" stroke="#E6E6E6" stroke-width="0.90" stroke-opacity="1.00" fill="none" clip-path="url(#axis_clip)"/>
<polyline class="pl" points="145.6,296.3 907.2,296.3" stroke="#E6E6E6" stroke-width="0.90" stroke-opacity="1.00" fill="none" clip-path="url(#axis_clip)"/>
<polyline class="pl" points="145.6,393.3 907.2,393.3" stroke="#E6E6E6" stroke-width="0.90" stroke-opacity="1.00" fill="none" clip-path="url(#axis_clip)"/>
<polyline class="pl" points="145.6,490.2 907.2,490.2" stroke="#E6E6E6" stroke-width="0.90" stroke-opacity="1.00" fill="none" clip-path="url(#axis_clip)"/>
<g stroke="none" stroke-width="0.9000"  clip-path="url(#axis_clip)">
  <polygon points="151.3,464.2 162.8,456.8 174.2,456.3 185.7,451.7 197.1,444.5 208.6,436.7 220.0,430.0 231.5,422.3 242.9,417.1 254.4,407.8 265.9,395.9 277.3,380.2 288.8,371.8 300.2,361.8 311.7,349.8 323.1,350.8 334.6,350.3 346.0,337.3 357.5,330.2 368.9,322.2 380.4,314.7 391.8,316.3 403.3,322.8 414.7,324.9 426.2,323.2 437.6,314.0 449.1,304.8 460.5,300.7 472.0,291.7 483.5,280.1 494.9,275.9 506.4,271.1 517.8,264.3 529.3,273.5 540.7,270.3 552.2,268.1 563.6,261.3 575.1,251.6 586.5,249.6 598.0,250.8 609.4,243.6 620.9,233.6 632.3,230.6 643.8,222.1 655.2,203.1 666.7,189.4 678.1,175.8 689.6,162.2 701.1,149.5 712.5,141.5 724.0,148.7 735.4,123.7 746.9,108.1 758.3,100.9 769.8,96.6 781.2,93.0 792.7,93.3 804.1,93.7 815.6,85.8 827.0,75.6 838.5,72.1 849.9,97.3 861.4,71.5 872.8,62.1 872.8,120.4 861.4,120.6 849.9,144.0 838.5,121.1 827.0,124.4 815.6,133.5 804.1,140.7 792.7,140.3 781.2,140.1 769.8,143.3 758.3,147.2 746.9,153.8 735.4,167.9 724.0,190.5 712.5,183.9 701.1,191.2 689.6,202.7 678.1,215.0 666.7,227.3 655.2,239.7 643.8,256.9 632.3,264.6 620.9,267.3 609.4,276.4 598.0,282.9 586.5,281.8 575.1,283.6 563.6,292.4 552.2,298.5 540.7,300.5 529.3,303.4 517.8,295.0 506.4,301.2 494.9,305.5 483.5,309.3 472.0,319.8 460.5,327.9 449.1,331.7 437.6,340.0 426.2,348.3 414.7,349.8 403.3,347.9 391.8,342.1 380.4,340.6 368.9,347.4 357.5,354.6 346.0,361.1 334.6,372.8 323.1,373.3 311.7,372.4 300.2,383.2 288.8,392.3 277.3,399.9 265.9,414.2 254.4,424.9 242.9,433.3 231.5,438.0 220.0,444.9 208.6,451.1 197.1,458.1 185.7,464.6 174.2,468.8 162.8,469.2 151.3,475.9" fill="#F2F2F2"/>
</g>
<g stroke="none" stroke-width="0.9000"  clip-path="url(#axis_clip)">
  <polygon points="861.4,71.5 872.8,62.1 872.8,120.4 861.4,120.6" fill="#F2D9D9"/>
</g>
<polyline class="pl" points="151.3,464.2 162.8,456.8 174.2,456.3 185.7,451.7 197.1,444.5 208.6,436.7 220.0,430.0 231.5,422.3 242.9,417.1 254.4,407.8 265.9,395.9 277.3,380.2 288.8,371.8 300.2,361.8 311.7,349.8 323.1,350.8 334.6,350.3 346.0,337.3 357.5,330.2 368.9,322.2 380.4,314.7 391.8,316.3 403.3,322.8 414.7,324.9 426.2,323.2 437.6,314.0 449.1,304.8 460.5,300.7 472.0,291.7 483.5,280.1 494.9,275.9 506.4,271.1 517.8,264.3 529.3,273.5 540.7,270.3 552.2,268.1 563.6,261.3 575.1,251.6 586.5,249.6 598.0,250.8 609.4,243.6 620.9,233.6 632.3,230.6 643.8,222.1 655.2,203.1 666.7,189.4 678.1,175.8 689.6,162.2 701.1,149.5 712.5,141.5 724.0,148.7 735.4,123.7 746.9,108.1 758.3,100.9 769.8,96.6 781.2,93.0 792.7,93.3 804.1,93.7 815.6,85.8 827.0,75.6 838.5,72.1 849.9,97.3 861.4,71.5 872.8,62.1" stroke="#D9D9D9" stroke-width="0.90" stroke-opacity="1.00" fill="none" clip-path="url(#axis_clip)"/>
<polyline class="pl" points="151.3,475.9 162.8,469.2 174.2,468.8 185.7,464.6 197.1,458.1 208.6,451.1 220.0,444.9 231.5,438.0 242.9,433.3 254.4,424.9 265.9,414.2 277.3,399.9 288.8,392.3 300.2,383.2 311.7,372.4 323.1,373.3 334.6,372.8 346.0,361.1 357.5,354.6 368.9,347.4 380.4,340.6 391.8,342.1 403.3,347.9 414.7,349.8 426.2,348.3 437.6,340.0 449.1,331.7 460.5,327.9 472.0,319.8 483.5,309.3 494.9,305.5 506.4,301.2 517.8,295.0 529.3,303.4 540.7,300.5 552.2,298.5 563.6,292.4 575.1,283.6 586.5,281.8 598.0,282.9 609.4,276.4 620.9,267.3 632.3,264.6 643.8,256.9 655.2,239.7 666.7,227.3 678.1,215.0 689.6,202.7 701.1,191.2 712.5,183.9 724.0,190.5 735.4,167.9 746.9,153.8 758.3,147.2 769.8,143.3 781.2,140.1 792.7,140.3 804.1,140.7 815.6,133.5 827.0,124.4 838.5,121.1 849.9,144.0 861.4,120.6 872.8,120.4" stroke="#D9D9D9" stroke-width="0.90" stroke-opacity="1.00" fill="none" clip-path="url(#axis_clip)"/>
<polyline class="pl" points="861.4,96.1 872.8,91.2" stroke="#000" stroke-width="5.40" stroke-opacity="1.00" fill="none" clip-path="url(#axis_clip)"/>
<g class="pl" fill="#F00" stroke="#000" stroke-width="2.700">
  <circle cx="872.8" cy="91.2" r="8.1"/>
</g>
<polyline class="pl" points="151.3,470.0 162.8,463.0 174.2,462.6 185.7,458.2 197.1,451.3 208.6,443.9 220.0,437.5 231.5,430.2 242.9,425.2 254.4,416.4 265.9,405.0 277.3,390.1 288.8,382.1 300.2,372.5 311.7,361.1 323.1,362.1 334.6,361.6 346.0,349.2 357.5,342.4 368.9,334.8 380.4,327.6 391.8,329.2 403.3,335.3 414.7,337.4 426.2,335.7 437.6,327.0 449.1,318.3 460.5,314.3 472.0,305.7 483.5,294.7 494.9,290.7 506.4,286.1 517.8,279.7 529.3,288.5 540.7,285.4 552.2,283.3 563.6,276.8 575.1,267.6 586.5,265.7 598.0,266.9 609.4,260.0 620.9,250.4 632.3,247.6 643.8,239.5 655.2,221.4 666.7,208.3 678.1,195.4 689.6,182.5 701.1,170.4 712.5,162.7 724.0,169.6 735.4,145.8 746.9,130.9 758.3,124.1 769.8,119.9 781.2,116.5 792.7,116.8 804.1,117.2 815.6,109.7 827.0,100.0 838.5,96.6 849.9,120.7 861.4,96.1" stroke="#000" stroke-width="5.40" stroke-opacity="1.00" fill="none" clip-path="url(#axis_clip)"/>
<g class="pl" fill="#FFF" stroke="#000" stroke-width="0.900">
  <circle cx="151.3" cy="470.0" r="2.2"/>
  <circle cx="174.2" cy="462.6" r="2.2"/>
  <circle cx="185.7" cy="458.2" r="2.2"/>
  <circle cx="197.1" cy="451.3" r="2.2"/>
  <circle cx="208.6" cy="443.9" r="2.2"/>
  <circle cx="220.0" cy="437.5" r="2.2"/>
  <circle cx="231.5" cy="430.2" r="2.2"/>
  <circle cx="242.9" cy="425.2" r="2.2"/>
  <circle cx="254.4" cy="416.4" r="2.2"/>
  <circle cx="265.9" cy="405.0" r="2.2"/>
  <circle cx="288.8" cy="382.1" r="2.2"/>
  <circle cx="300.2" cy="372.5" r="2.2"/>
  <circle cx="311.7" cy="361.1" r="2.2"/>
  <circle cx="323.1" cy="362.1" r="2.2"/>
  <circle cx="334.6" cy="361.6" r="2.2"/>
  <circle cx="346.0" cy="349.2" r="2.2"/>
  <circle cx="357.5" cy="342.4" r="2.2"/>
  <circle cx="368.9" cy="334.8" r="2.2"/>
  <circle cx="380.4" cy="327.6" r="2.2"/>
  <circle cx="403.3" cy="335.3" r="2.2"/>
  <circle cx="414.7" cy="337.4" r="2.2"/>
  <circle cx="426.2" cy="335.7" r="2.2"/>
  <circle cx="437.6" cy="327.0" r="2.2"/>
  <circle cx="449.1" cy="318.3" r="2.2"/>
  <circle cx="460.5" cy="314.3" r="2.2"/>
  <circle cx="472.0" cy="305.7" r="2.2"/>
  <circle cx="483.5" cy="294.7" r="2.2"/>
  <circle cx="494.9" cy="290.7" r="2.2"/>
  <circle cx="517.8" cy="279.7" r="2.2"/>
  <circle cx="529.3" cy="288.5" r="2.2"/>
  <circle cx="540.7" cy="285.4" r="2.2"/>
  <circle cx="552.2" cy="283.3" r="2.2"/>
  <circle cx="563.6" cy="276.8" r="2.2"/>
  <circle cx="575.1" cy="267.6" r="2.2"/>
  <circle cx="586.5" cy="265.7" r="2.2"/>
  <circle cx="598.0" cy="266.9" r="2.2"/>
  <circle cx="609.4" cy="260.0" r="2.2"/>
  <circle cx="632.3" cy="247.6" r="2.2"/>
  <circle cx="643.8" cy="239.5" r="2.2"/>
  <circle cx="655.2" cy="221.4" r="2.2"/>
  <circle cx="666.7" cy="208.3" r="2.2"/>
  <circle cx="678.1" cy="195.4" r="2.2"/>
  <circle cx="689.6" cy="182.5" r="2.2"/>
  <circle cx="701.1" cy="170.4" r="2.2"/>
  <circle cx="712.5" cy="162.7" r="2.2"/>
  <circle cx="724.0" cy="169.6" r="2.2"/>
  <circle cx="746.9" cy="130.9" r="2.2"/>
  <circle cx="758.3" cy="124.1" r="2.2"/>
  <circle cx="769.8" cy="119.9" r="2.2"/>
  <circle cx="781.2" cy="116.5" r="2.2"/>
  <circle cx="792.7" cy="116.8" r="2.2"/>
  <circle cx="804.1" cy="117.2" r="2.2"/>
  <circle cx="815.6" cy="109.7" r="2.2"/>
  <circle cx="827.0" cy="100.0" r="2.2"/>
  <circle cx="838.5" cy="96.6" r="2.2"/>
  <circle cx="861.4" cy="96.1" r="2.2"/>
</g>
<g class="pl" fill="#FFF" stroke="#000" stroke-width="0.900">
  <circle cx="162.8" cy="463.0" r="5.4"/>
  <circle cx="277.3" cy="390.1" r="5.4"/>
  <circle cx="391.8" cy="329.2" r="5.4"/>
  <circle cx="506.4" cy="286.1" r="5.4"/>
  <circle cx="620.9" cy="250.4" r="5.4"/>
  <circle cx="735.4" cy="145.8" r="5.4"/>
  <circle cx="849.9" cy="120.7" r="5.4"/>
</g>
<text transform="translate(145.6,47.2)" dy="0.0" font-size="27.00" fill="#808080" stroke="none">Global Fossil CO<tspan dy="0.2em"><tspan style="font-size:70%">2</tspan></tspan><tspan dy="-0.2em"> </tspan>Emissions</text>
<text transform="translate(925.2,91.2)" dy="8.1" font-size="27.00" fill="#000" stroke="none">10.2 Gt C</text>
<g stroke="none" stroke-width="0.9000"  >
  <polygon points="925.2,120.9 934.8,107.4 944.4,120.9 925.2,120.9" fill="#000"/>
</g>
<text transform="translate(949.2,116.2)" dy="5.4" font-size="18.00" fill="#000" stroke="none">1.0%</text>
<text transform="translate(991.1,116.2)" dy="5.4" font-size="18.00" fill="#000" stroke="none" xml:space="preserve"> (0.1% to 1.9%)</text>
<text transform="translate(925.2,68.3)" dy="0.0" font-size="18.00" fill="#000" stroke="none">Projection 2022</text>
<polyline class="pl" points="323.1,368.8 323.1,368.9 323.1,369.1 323.1,369.5 323.1,370.1 323.2,370.8 323.2,371.6 323.2,372.5 323.3,373.6 323.3,374.8 323.4,376.1 323.5,377.5 323.6,379.0 323.8,380.5 324.0,382.2 324.1,383.9 324.4,385.7 324.6,387.5 324.9,389.4 325.2,391.4 325.6,393.4 325.9,395.4 326.4,397.4 326.8,399.5 327.3,401.5 327.9,403.6 328.5,405.6 329.1,407.7 329.8,409.7 330.6,411.7 331.4,413.7 332.2,415.7 333.1,417.6 334.1,419.4 335.1,421.2 336.2,422.9 337.4,424.6 338.6,426.1 339.9,427.6 341.3,429.0 342.7,430.3 344.2,431.5 345.8,432.6 347.4,433.5 349.2,434.3 351.0,435.0 352.9,435.6 354.9,436.0 357.0,436.2 359.1,436.3" stroke="#80AD7E" stroke-width="0.90" stroke-opacity="1.00" fill="none" />
<g class="pl" fill="#80AD7E" stroke="none" stroke-width="0.900">
  <circle cx="359.1" cy="436.3" r="3.6"/>
</g>
<text transform="translate(371.1,423.5)"  font-size="27.00" fill="#80AD7E" stroke="none">
      <tspan x="0" y="22.5">First</tspan><tspan x="0" y="52.7">Oil crisis</tspan>
    </text>
<polyline class="pl" points="403.3,342.1 403.3,342.1 403.3,342.3 403.3,342.5 403.3,342.7 403.3,343.1 403.4,343.5 403.4,344.0 403.4,344.5 403.5,345.1 403.6,345.7 403.7,346.4 403.8,347.2 404.0,348.0 404.1,348.8 404.3,349.6 404.5,350.5 404.8,351.5 405.1,352.4 405.4,353.4 405.7,354.4 406.1,355.4 406.5,356.4 407.0,357.4 407.5,358.5 408.1,359.5 408.7,360.5 409.3,361.5 410.0,362.6 410.7,363.6 411.5,364.6 412.4,365.5 413.3,366.5 414.3,367.4 415.3,368.3 416.4,369.2 417.6,370.0 418.8,370.8 420.1,371.5 421.4,372.2 422.9,372.8 424.4,373.4 426.0,374.0 427.6,374.4 429.4,374.9 431.2,375.2 433.1,375.5 435.1,375.7 437.1,375.8 439.3,375.8" stroke="#80AD7E" stroke-width="0.90" stroke-opacity="1.00" fill="none" />
<g class="pl" fill="#80AD7E" stroke="none" stroke-width="0.900">
  <circle cx="439.3" cy="375.8" r="3.6"/>
</g>
<text transform="translate(451.3,363.0)"  font-size="27.00" fill="#80AD7E" stroke="none">
      <tspan x="0" y="22.5">Second</tspan><tspan x="0" y="52.7">Oil crisis</tspan>
    </text>
<polyline class="pl" points="529.3,295.2 529.3,295.3 529.3,295.4 529.3,295.6 529.3,295.9 529.3,296.2 529.3,296.6 529.4,297.1 529.4,297.6 529.5,298.2 529.6,298.9 529.7,299.6 529.8,300.3 529.9,301.1 530.1,301.9 530.3,302.8 530.5,303.7 530.8,304.6 531.0,305.5 531.4,306.5 531.7,307.5 532.1,308.5 532.5,309.5 533.0,310.5 533.5,311.6 534.0,312.6 534.6,313.6 535.3,314.7 536.0,315.7 536.7,316.7 537.5,317.7 538.4,318.6 539.3,319.6 540.3,320.5 541.3,321.4 542.4,322.3 543.5,323.1 544.8,323.9 546.1,324.6 547.4,325.3 548.8,326.0 550.4,326.6 551.9,327.1 553.6,327.6 555.3,328.0 557.1,328.3 559.0,328.6 561.0,328.8 563.1,328.9 565.3,329.0" stroke="#80AD7E" stroke-width="0.90" stroke-opacity="1.00" fill="none" />
<g class="pl" fill="#80AD7E" stroke="none" stroke-width="0.900">
  <circle cx="565.3" cy="329.0" r="3.6"/>
</g>
<text transform="translate(577.3,316.1)"  font-size="27.00" fill="#80AD7E" stroke="none">
      <tspan x="0" y="22.5">Dissolution of</tspan><tspan x="0" y="52.7">Soviet Union</tspan>
    </text>
<g stroke="none" stroke-width="0.9000"  >
  <polygon points="577.3,380.9 586.9,394.4 596.5,380.9 577.3,380.9" fill="#80AD7E"/>
</g>
<text transform="translate(601.3,389.7)" dy="5.4" font-size="18.00" fill="#80AD7E" stroke="none">3.1%</text>
<polyline class="pl" points="724.0,176.4 724.0,176.4 724.0,176.5 724.0,176.7 724.0,177.0 724.0,177.3 724.0,177.8 724.1,178.2 724.1,178.8 724.2,179.4 724.3,180.0 724.4,180.7 724.5,181.4 724.6,182.2 724.8,183.1 725.0,183.9 725.2,184.8 725.5,185.7 725.7,186.7 726.1,187.7 726.4,188.6 726.8,189.6 727.2,190.7 727.7,191.7 728.2,192.7 728.7,193.8 729.3,194.8 730.0,195.8 730.7,196.8 731.4,197.8 732.2,198.8 733.1,199.8 734.0,200.7 735.0,201.7 736.0,202.6 737.1,203.4 738.2,204.2 739.5,205.0 740.7,205.8 742.1,206.5 743.5,207.1 745.0,207.7 746.6,208.2 748.3,208.7 750.0,209.1 751.8,209.5 753.7,209.7 755.7,209.9 757.8,210.1 760.0,210.1" stroke="#80AD7E" stroke-width="0.90" stroke-opacity="1.00" fill="none" />
<g class="pl" fill="#80AD7E" stroke="none" stroke-width="0.900">
  <circle cx="760.0" cy="210.1" r="3.6"/>
</g>
<text transform="translate(772.0,197.3)"  font-size="27.00" fill="#80AD7E" stroke="none">
      <tspan x="0" y="22.5">Global</tspan><tspan x="0" y="52.7">financial</tspan><tspan x="0" y="82.9">crisis</tspan>
    </text>
<g stroke="none" stroke-width="0.9000"  >
  <polygon points="772.0,294.5 781.6,308.0 791.2,294.5 772.0,294.5" fill="#80AD7E"/>
</g>
<text transform="translate(796.0,303.2)" dy="5.4" font-size="18.00" fill="#80AD7E" stroke="none">1.4%</text>
<polyline class="pl" points="849.9,130.8 849.9,130.9 849.9,131.1 849.9,131.5 850.0,132.1 850.0,132.8 850.0,133.6 850.0,134.5 850.1,135.6 850.2,136.8 850.2,138.1 850.3,139.5 850.5,141.0 850.6,142.5 850.8,144.2 851.0,145.9 851.2,147.7 851.4,149.5 851.7,151.4 852.0,153.4 852.4,155.3 852.8,157.4 853.2,159.4 853.7,161.4 854.2,163.5 854.7,165.6 855.3,167.6 856.0,169.7 856.7,171.7 857.4,173.7 858.2,175.7 859.1,177.7 860.0,179.5 860.9,181.4 862.0,183.2 863.1,184.9 864.2,186.6 865.4,188.1 866.7,189.6 868.1,191.0 869.5,192.3 871.0,193.5 872.6,194.5 874.3,195.5 876.0,196.3 877.8,197.0 879.7,197.6 881.7,198.0 883.8,198.2 885.9,198.3" stroke="#80AD7E" stroke-width="0.90" stroke-opacity="1.00" fill="none" />
<g class="pl" fill="#80AD7E" stroke="none" stroke-width="0.900">
  <circle cx="885.9" cy="198.3" r="3.6"/>
</g>
<text transform="translate(897.9,185.5)"  font-size="27.00" fill="#80AD7E" stroke="none">
      <tspan x="0" y="22.5">COVID-19</tspan><tspan x="0" y="52.7">pandemic</tspan>
    </text>
<g stroke="none" stroke-width="0.9000"  >
  <polygon points="897.9,250.3 907.5,263.7 917.1,250.3 897.9,250.3" fill="#80AD7E"/>
</g>
<text transform="translate(921.9,259.0)" dy="5.4" font-size="18.00" fill="#80AD7E" stroke="none">5.2%</text>
<text transform="translate(872.8,627.7)" dy="18.0" font-size="18.00" fill="#808080" stroke="none" text-anchor="middle">projected</text>
<text transform="translate(160.2,666.1)" font-size="19.80" fill="#BFBFBF" stroke="none" xml:space="preserve">Global Carbon Project</text>
<use xlink:href="#tick_x" transform="translate(162.8,0)"/>
<use xlink:href="#tick_x" transform="translate(277.3,0)"/>
<use xlink:href="#tick_x" transform="translate(391.8,0)"/>
<use xlink:href="#tick_x" transform="translate(506.4,0)"/>
<use xlink:href="#tick_x" transform="translate(620.9,0)"/>
<use xlink:href="#tick_x" transform="translate(735.4,0)"/>
<use xlink:href="#tick_x" transform="translate(872.8,0)"/>
<use xlink:href="#tick_y" transform="translate(0,587.2)"/>
<use xlink:href="#tick_y" transform="translate(0,490.2)"/>
<use xlink:href="#tick_y" transform="translate(0,393.3)"/>
<use xlink:href="#tick_y" transform="translate(0,296.3)"/>
<use xlink:href="#tick_y" transform="translate(0,199.4)"/>
<use xlink:href="#tick_y" transform="translate(0,102.5)"/>
<polyline points="145.6,53.993 145.6,587.177 907.2,587.177" stroke="#808080" stroke-width="0.90" fill="none"/>
<g>
  <rect x="123.0" y="651.4" width="34" height="17" fill="#FFF" stroke="none"/>
  <g transform="translate(124.0,652.4) scale(0.24)">
  <g><circle fill="#FFF" cx="37.79" cy="28.5" r="28.84"/>
     <circle fill="none" cx="37.79" cy="28.5" r="28.84" stroke="#BFBFBF" stroke-width="5.5"/>
     <path fill="#BFBFBF" d="M37.16,23.19 l-4.29,2.23c-0.458-0.951-1.02-1.62-1.69-2c-0.667-0.38-1.29-0.571-1.86-0.571c-2.86,0-4.29,1.89-4.29,5.66 c0,1.71,0.36,3.08,1.09,4.11c0.724,1.03,1.79,1.54,3.2,1.54c1.87,0,3.18-0.915,3.94-2.74l3.94,2 c-0.838,1.56-2,2.79-3.49,3.69c-1.48,0.896-3.12,1.34-4.91,1.34c-2.86,0-5.16-0.875-6.92-2.63 c-1.75-1.75-2.63-4.19-2.63-7.31c0-3.05,0.886-5.47,2.66-7.26c1.77-1.79,4.01-2.69,6.72-2.69 C32.6,18.56,35.44,20.1,37.16,23.19z
              M55.61,23.19l-4.23,2.23c-0.457-0.951-1.02-1.62-1.69-2 c-0.668-0.38-1.31-0.571-1.91-0.571c-2.86,0-4.29,1.89-4.29,5.66c0,1.71,0.363,3.08,1.09,4.11 c0.723,1.03,1.79,1.54,3.2,1.54c1.87,0,3.18-0.915,3.94-2.74l4,2c-0.875,1.56-2.06,2.79-3.54,3.69 c-1.49,0.9-3.11,1.34-4.86,1.34c-2.9,0-5.21-0.875-6.94-2.63c-1.74-1.75-2.6-4.19-2.6-7.31 c0-3.05,0.885-5.47,2.66-7.26c1.77-1.79,4.01-2.69,6.71-2.69C51.12,18.56,53.944,20.1,55.61,23.19z"/>
  </g></g>
  <g transform="translate(140.2,652.4) scale(0.24)">
  <g><circle fill="#FFF" cx="37.79" cy="28.5" r="28.84"/>
     <circle fill="none" cx="37.79" cy="28.5" r="28.84" stroke="#BFBFBF" stroke-width="5.5"/>
     <path fill="#BFBFBF" d="M46.129,20.557v13.085h-3.656v15.542h-9.944V33.643h-3.656V20.557 c0-0.572,0.2-1.057,0.599-1.457c0.401-0.399,0.887-0.6,1.457-0.6h13.144c0.533,0,1.01,0.2,1.428,0.6 C45.918,19.5,46.129,19.986,46.129,20.557z
              M33.042,12.329c0-3.008,1.485-4.514,4.458-4.514s4.457,1.504,4.457,4.514 c0,2.971-1.486,4.457-4.457,4.457S33.042,15.3,33.042,12.329z"/>
  </g></g>
</g>
</g>
</svg>
