<svg version="1.1" xmlns="http://www.w3.org/2000/svg" xmlns:xlink="http://www.w3.org/1999/xlink" width="100%" height="100%" viewBox="0 0 1200.000 674.916">
<title>Annual CO2 Emissions</title>
<style type="text/css">
  #main {font-family:Helvetica,Arial,sans-serif; font-size:27.00px;
         fill-opacity:1; fill:#000000; stroke:none; stroke-linejoin:round; stroke-linecap:round; stroke-width:1.00;}
  .marker {stroke-opacity:0;fill-opacity:0;}
  .marker:hover {stroke-opacity:0.5; fill-opacity:1;}
  .ticklabel {font-size:27.00px;fill:#808080;stroke:none}
  .ytl {text-anchor:end;}
  .dp1 {pointer-events:none;font-size:70%;text-anchor:middle;fill:#000000;}
  .dp2 {pointer-events:none;font-size:70%;text-anchor:middle;fill:#FFFFFF;}
  .numtip {pointer-events:none;}
  .cc {opacity:0.25;}
.dl_fe {background-color:#FDFFDF;display:flex;margin:auto;align-items:center}
.dl_fe_p {font-size:20px;text-align:center;margin:3px}
.dl_el {display:none;pointer-events:none;}
.cc:hover + .dl_el {display:block;}
text:hover + .dl_el {display:block;}
</style>
<defs>
  <clipPath id="axis_clip"><rect x="145.8" y="54.2" width="761.2" height="532.8" /></clipPath>
  <path id="line_x" d="M 145.600,0 h 761.600" stroke="#262626" stroke-opacity="0.15" stroke-width="1.00"/>
  <path id="tick_y" d="M 145.600,0 h -6.000" stroke="#808080" stroke-width="0.90"/>
  <path id="tick_x" d="M 0,587.177 v 6.000" stroke="#808080" stroke-width="0.90"/>
</defs>
<g id="main">
<use xlink:href="#line_x" transform="translate(0,587.2)"/>
<use xlink:href="#line_x" transform="translate(0,438.0)"/>
<use xlink:href="#line_x" transform="translate(0,288.9)"/>
<use xlink:href="#line_x" transform="translate(0,139.8)"/>
<use xlink:href="#tick_y" transform="translate(0,587.2)"/>
<use xlink:href="#tick_y" transform="translate(0,438.0)"/>
<use xlink:href="#tick_y" transform="translate(0,288.9)"/>
<use xlink:href="#tick_y" transform="translate(0,139.8)"/>
<use xlink:href="#tick_x" transform="translate(158.3,0)"/>
<use xlink:href="#tick_x" transform="translate(273.5,0)"/>
<use xlink:href="#tick_x" transform="translate(388.7,0)"/>
<use xlink:href="#tick_x" transform="translate(503.9,0)"/>
<use xlink:href="#tick_x" transform="translate(619.2,0)"/>
<use xlink:href="#tick_x" transform="translate(734.4,0)"/>
<use xlink:href="#tick_x" transform="translate(872.6,0)"/>
<polyline points="145.6,53.993 145.6,587.177 907.2,587.177" stroke="#808080" stroke-width="0.90" fill="none"/>
<text class="ticklabel xtl" transform="translate(158.3,629.0)" text-anchor="middle">1960</text>
<text class="ticklabel xtl" transform="translate(273.5,629.0)" text-anchor="middle">1970</text>
<text class="ticklabel xtl" transform="translate(388.7,629.0)" text-anchor="middle">1980</text>
<text class="ticklabel xtl" transform="translate(503.9,629.0)" text-anchor="middle">1990</text>
<text class="ticklabel xtl" transform="translate(619.2,629.0)" text-anchor="middle">2000</text>
<text class="ticklabel xtl" transform="translate(734.4,629.0)" text-anchor="middle">2010</text>
<text class="ticklabel xtl" transform="translate(872.6,629.0)" text-anchor="middle">2022</text>
<text class="ticklabel ytl" transform="translate(128.8,595.3)">0</text>
<text class="ticklabel ytl" transform="translate(128.8,446.1)">4</text>
<text class="ticklabel ytl" transform="translate(128.8,297.0)">8</text>
<text class="ticklabel ytl" transform="translate(128.8,147.9)">12 Gt C</text>
<g stroke="none" stroke-width="0.9000" fill-opacity="0.50" clip-path="url(#axis_clip)">
  <polygon points="-2261.3,587.2 -2249.8,587.2 -2238.3,587.2 -2226.8,587.2 -2215.2,587.2 -2203.7,587.2 -2192.2,587.2 -2180.7,587.2 -2169.2,587.2 -2157.6,587.2 -2146.1,587.2 -2134.6,587.2 -2123.1,587.2 -2111.5,587.2 -2100.0,587.2 -2088.5,587.2 -2077.0,587.2 -2065.5,587.2 -2053.9,587.2 -2042.4,587.2 -2030.9,587.2 -2019.4,587.2 -2007.8,587.2 -1996.3,587.2 -1984.8,587.2 -1973.3,587.2 -1961.8,587.2 -1950.2,587.2 -1938.7,587.2 -1927.2,587.2 -1915.7,587.2 -1904.2,587.2 -1892.6,587.2 -1881.1,587.2 -1869.6,587.2 -1858.1,587.2 -1846.5,587.2 -1835.0,587.2 -1823.5,587.2 -1812.0,587.2 -1800.5,587.2 -1788.9,587.2 -1777.4,587.2 -1765.9,587.2 -1754.4,587.2 -1742.8,587.2 -1731.3,587.2 -1719.8,587.2 -1708.3,587.2 -1696.8,587.2 -1685.2,587.2 -1673.7,587.2 -1662.2,587.2 -1650.7,587.2 -1639.1,587.2 -1627.6,587.2 -1616.1,587.2 -1604.6,587.2 -1593.1,587.2 -1581.5,587.2 -1570.0,587.2 -1558.5,587.2 -1547.0,587.2 -1535.5,587.2 -1523.9,587.2 -1512.4,587.2 -1500.9,587.2 -1489.4,587.2 -1477.8,587.2 -1466.3,587.2 -1454.8,587.2 -1443.3,587.2 -1431.8,587.2 -1420.2,587.2 -1408.7,587.2 -1397.2,587.2 -1385.7,587.2 -1374.1,587.2 -1362.6,587.2 -1351.1,587.2 -1339.6,587.2 -1328.1,587.2 -1316.5,587.2 -1305.0,587.2 -1293.5,587.2 -1282.0,587.2 -1270.4,587.2 -1258.9,587.2 -1247.4,587.2 -1235.9,587.2 -1224.4,587.2 -1212.8,587.2 -1201.3,587.2 -1189.8,587.2 -1178.3,587.2 -1166.7,587.2 -1155.2,587.2 -1143.7,587.2 -1132.2,587.2 -1120.7,587.2 -1109.1,536.4 -1097.6,535.5 -1086.1,535.1 -1074.6,534.5 -1063.1,534.3 -1051.5,534.2 -1040.0,533.8 -1028.5,533.6 -1017.0,533.3 -1005.4,533.0 -993.9,534.1 -982.4,535.4 -970.9,535.6 -959.4,535.6 -947.8,535.9 -936.3,536.2 -924.8,536.3 -913.3,536.3 -901.7,536.5 -890.2,536.7 -878.7,534.9 -867.2,533.8 -855.7,533.2 -844.1,532.5 -832.6,531.9 -821.1,531.7 -809.6,531.3 -798.0,530.8 -786.5,530.3 -775.0,529.9 -763.5,529.5 -752.0,529.6 -740.4,528.9 -728.9,528.3 -717.4,528.1 -705.9,528.1 -694.3,527.8 -682.8,527.2 -671.3,527.3 -659.8,527.0 -648.3,525.8 -636.7,524.8 -625.2,524.5 -613.7,523.8 -602.2,523.4 -590.7,523.0 -579.1,522.6 -567.6,522.3 -556.1,521.9 -544.6,521.5 -533.0,520.3 -521.5,519.8 -510.0,519.2 -498.5,519.0 -487.0,518.4 -475.4,518.0 -463.9,517.9 -452.4,517.5 -440.9,517.2 -429.3,516.9 -417.8,517.1 -406.3,517.2 -394.8,517.9 -383.3,518.0 -371.7,518.1 -360.2,518.5 -348.7,519.1 -337.2,519.0 -325.6,518.8 -314.1,519.1 -302.6,517.8 -291.1,516.6 -279.6,516.1 -268.0,516.0 -256.5,515.7 -245.0,515.1 -233.5,515.2 -221.9,515.1 -210.4,514.9 -198.9,514.8 -187.4,514.6 -175.9,514.0 -164.3,513.4 -152.8,513.2 -141.3,512.8 -129.8,512.8 -118.3,512.5 -106.7,512.5 -95.2,512.2 -83.7,512.1 -72.2,510.0 -60.6,508.5 -49.1,508.1 -37.6,508.0 -26.1,508.0 -14.6,508.3 -3.0,508.5 8.5,509.0 20.0,509.6 31.5,510.2 43.1,505.9 54.6,504.1 66.1,502.8 77.6,501.7 89.1,500.0 100.7,498.1 112.2,496.0 123.7,494.1 135.2,492.1 146.8,488.8 158.3,494.2 169.8,498.9 181.3,501.1 192.8,503.6 204.4,505.4 215.9,509.5 227.4,511.7 238.9,511.0 250.4,510.4 262.0,513.6 273.5,514.3 285.0,514.4 296.5,514.4 308.1,515.8 319.6,517.1 331.1,516.6 342.6,517.3 354.1,516.2 365.7,518.1 377.2,519.8 388.7,519.5 400.2,516.4 411.8,516.2 423.3,512.2 434.8,507.1 446.3,509.4 457.8,509.0 469.4,509.0 480.9,509.6 492.4,511.5 503.9,511.4 515.5,512.7 527.0,511.3 538.5,511.5 550.0,507.2 561.5,507.3 573.1,507.3 584.6,488.8 596.1,505.2 607.6,505.2 619.2,509.0 630.7,512.9 642.2,508.4 653.7,503.6 665.2,506.5 676.8,513.1 688.3,509.4 699.8,515.9 711.3,513.8 722.8,509.9 734.4,511.8 745.9,510.6 757.4,512.0 768.9,514.0 780.5,511.0 792.0,506.3 803.5,515.0 815.0,517.0 826.5,518.5 838.1,514.7 849.6,519.8 861.1,521.0 861.1,573.2 849.6,572.0 838.1,566.9 826.5,570.7 815.0,569.2 803.5,567.2 792.0,558.5 780.5,563.2 768.9,566.2 757.4,564.2 745.9,562.8 734.4,564.0 722.8,562.1 711.3,566.0 699.8,568.1 688.3,561.6 676.8,565.3 665.2,558.7 653.7,555.8 642.2,560.6 630.7,565.1 619.2,561.2 607.6,557.4 596.1,557.4 584.6,541.0 573.1,559.5 561.5,559.5 550.0,559.4 538.5,563.7 527.0,563.5 515.5,564.9 503.9,563.6 492.4,563.7 480.9,561.8 469.4,561.2 457.8,561.2 446.3,561.6 434.8,559.3 423.3,564.4 411.8,568.4 400.2,568.6 388.7,571.7 377.2,572.0 365.7,570.3 354.1,568.4 342.6,569.5 331.1,568.8 319.6,569.3 308.1,568.0 296.5,566.6 285.0,566.6 273.5,566.5 262.0,565.8 250.4,562.6 238.9,563.2 227.4,563.9 215.9,561.7 204.4,557.6 192.8,555.8 181.3,553.3 169.8,551.1 158.3,546.4 146.8,541.0 135.2,544.3 123.7,546.3 112.2,548.2 100.7,550.3 89.1,552.2 77.6,553.9 66.1,555.0 54.6,556.3 43.1,558.1 31.5,562.4 20.0,561.8 8.5,561.2 -3.0,560.7 -14.6,560.5 -26.1,560.2 -37.6,560.2 -49.1,560.3 -60.6,560.7 -72.2,562.2 -83.7,564.3 -95.2,564.4 -106.7,564.7 -118.3,564.7 -129.8,565.0 -141.3,565.0 -152.8,565.4 -164.3,565.6 -175.9,566.2 -187.4,566.8 -198.9,567.0 -210.4,567.1 -221.9,567.3 -233.5,567.4 -245.0,567.3 -256.5,567.9 -268.0,568.2 -279.6,568.3 -291.1,568.8 -302.6,570.0 -314.1,571.3 -325.6,571.0 -337.2,571.2 -348.7,571.3 -360.2,570.7 -371.7,570.3 -383.3,570.2 -394.8,570.1 -406.3,569.4 -417.8,569.3 -429.3,569.1 -440.9,569.4 -452.4,569.7 -463.9,570.1 -475.4,570.2 -487.0,570.6 -498.5,571.2 -510.0,571.4 -521.5,572.0 -533.0,572.5 -544.6,573.7 -556.1,574.1 -567.6,574.5 -579.1,574.8 -590.7,575.2 -602.2,575.6 -613.7,576.0 -625.2,576.7 -636.7,577.0 -648.3,578.0 -659.8,579.2 -671.3,579.4 -682.8,579.4 -694.3,580.0 -705.9,580.3 -717.4,580.3 -728.9,580.5 -740.4,581.1 -752.0,581.8 -763.5,581.7 -775.0,582.1 -786.5,582.5 -798.0,583.0 -809.6,583.5 -821.1,583.9 -832.6,584.1 -844.1,584.7 -855.7,585.4 -867.2,586.0 -878.7,587.1 -890.2,588.9 -901.7,588.7 -913.3,588.5 -924.8,588.5 -936.3,588.4 -947.8,588.1 -959.4,587.8 -970.9,587.8 -982.4,587.6 -993.9,586.3 -1005.4,585.2 -1017.0,585.5 -1028.5,585.8 -1040.0,586.0 -1051.5,586.4 -1063.1,586.5 -1074.6,586.7 -1086.1,587.3 -1097.6,587.7 -1109.1,588.6 -1120.7,587.2 -1132.2,587.2 -1143.7,587.2 -1155.2,587.2 -1166.7,587.2 -1178.3,587.2 -1189.8,587.2 -1201.3,587.2 -1212.8,587.2 -1224.4,587.2 -1235.9,587.2 -1247.4,587.2 -1258.9,587.2 -1270.4,587.2 -1282.0,587.2 -1293.5,587.2 -1305.0,587.2 -1316.5,587.2 -1328.1,587.2 -1339.6,587.2 -1351.1,587.2 -1362.6,587.2 -1374.1,587.2 -1385.7,587.2 -1397.2,587.2 -1408.7,587.2 -1420.2,587.2 -1431.8,587.2 -1443.3,587.2 -1454.8,587.2 -1466.3,587.2 -1477.8,587.2 -1489.4,587.2 -1500.9,587.2 -1512.4,587.2 -1523.9,587.2 -1535.5,587.2 -1547.0,587.2 -1558.5,587.2 -1570.0,587.2 -1581.5,587.2 -1593.1,587.2 -1604.6,587.2 -1616.1,587.2 -1627.6,587.2 -1639.1,587.2 -1650.7,587.2 -1662.2,587.2 -1673.7,587.2 -1685.2,587.2 -1696.8,587.2 -1708.3,587.2 -1719.8,587.2 -1731.3,587.2 -1742.8,587.2 -1754.4,587.2 -1765.9,587.2 -1777.4,587.2 -1788.9,587.2 -1800.5,587.2 -1812.0,587.2 -1823.5,587.2 -1835.0,587.2 -1846.5,587.2 -1858.1,587.2 -1869.6,587.2 -1881.1,587.2 -1892.6,587.2 -1904.2,587.2 -1915.7,587.2 -1927.2,587.2 -1938.7,587.2 -1950.2,587.2 -1961.8,587.2 -1973.3,587.2 -1984.8,587.2 -1996.3,587.2 -2007.8,587.2 -2019.4,587.2 -2030.9,587.2 -2042.4,587.2 -2053.9,587.2 -2065.5,587.2 -2077.0,587.2 -2088.5,587.2 -2100.0,587.2 -2111.5,587.2 -2123.1,587.2 -2134.6,587.2 -2146.1,587.2 -2157.6,587.2 -2169.2,587.2 -2180.7,587.2 -2192.2,587.2 -2203.7,587.2 -2215.2,587.2 -2226.8,587.2 -2238.3,587.2 -2249.8,587.2 -2261.3,587.2" fill="#DEC17C"/>
</g>
<polyline class="pl" points="135.2,492.1 146.8,488.8 158.3,494.2 169.8,498.9 181.3,501.1 192.8,503.6 204.4,505.4 215.9,509.5 227.4,511.7 238.9,511.0 250.4,510.4 262.0,513.6 273.5,514.3 285.0,514.4 296.5,514.4 308.1,515.8 319.6,517.1 331.1,516.6 342.6,517.3 354.1,516.2 365.7,518.1 377.2,519.8 388.7,519.5 400.2,516.4 411.8,516.2 423.3,512.2 434.8,507.1 446.3,509.4 457.8,509.0 469.4,509.0 480.9,509.6 492.4,511.5 503.9,511.4 515.5,512.7 527.0,511.3 538.5,511.5 550.0,507.2 561.5,507.3 573.1,507.3 584.6,488.8 596.1,505.2 607.6,505.2 619.2,509.0 630.7,512.9 642.2,508.4 653.7,503.6 665.2,506.5 676.8,513.1 688.3,509.4 699.8,515.9 711.3,513.8 722.8,509.9 734.4,511.8 745.9,510.6 757.4,512.0 768.9,514.0 780.5,511.0 792.0,506.3 803.5,515.0 815.0,517.0 826.5,518.5 838.1,514.7 849.6,519.8 861.1,521.0" stroke="#4D4D4D" stroke-width="0.90" stroke-opacity="1.00" fill="none" clip-path="url(#axis_clip)"/>
<polyline class="pl" points="135.2,544.3 146.8,541.0 158.3,546.4 169.8,551.1 181.3,553.3 192.8,555.8 204.4,557.6 215.9,561.7 227.4,563.9 238.9,563.2 250.4,562.6 262.0,565.8 273.5,566.5 285.0,566.6 296.5,566.6 308.1,568.0 319.6,569.3 331.1,568.8 342.6,569.5 354.1,568.4 365.7,570.3 377.2,572.0 388.7,571.7 400.2,568.6 411.8,568.4 423.3,564.4 434.8,559.3 446.3,561.6 457.8,561.2 469.4,561.2 480.9,561.8 492.4,563.7 503.9,563.6 515.5,564.9 527.0,563.5 538.5,563.7 550.0,559.4 561.5,559.5 573.1,559.5 584.6,541.0 596.1,557.4 607.6,557.4 619.2,561.2 630.7,565.1 642.2,560.6 653.7,555.8 665.2,558.7 676.8,565.3 688.3,561.6 699.8,568.1 711.3,566.0 722.8,562.1 734.4,564.0 745.9,562.8 757.4,564.2 768.9,566.2 780.5,563.2 792.0,558.5 803.5,567.2 815.0,569.2 826.5,570.7 838.1,566.9 849.6,572.0 861.1,573.2" stroke="#4D4D4D" stroke-width="0.90" stroke-opacity="1.00" fill="none" clip-path="url(#axis_clip)"/>
<polyline class="pl" points="135.2,518.2 146.8,514.9 158.3,520.3 169.8,525.0 181.3,527.2 192.8,529.7 204.4,531.5 215.9,535.6 227.4,537.8 238.9,537.1 250.4,536.5 262.0,539.7 273.5,540.4 285.0,540.5 296.5,540.5 308.1,541.9 319.6,543.2 331.1,542.7 342.6,543.4 354.1,542.3 365.7,544.2 377.2,545.9 388.7,545.6 400.2,542.5 411.8,542.3 423.3,538.3 434.8,533.2 446.3,535.5 457.8,535.1 469.4,535.1 480.9,535.7 492.4,537.6 503.9,537.5 515.5,538.8 527.0,537.4 538.5,537.6 550.0,533.3 561.5,533.4 573.1,533.4 584.6,514.9" stroke="#999" stroke-width="5.40" stroke-opacity="1.00" fill="none" clip-path="url(#axis_clip)"/>
<g class="pl" fill="#FFF" stroke="#999" stroke-width="0.900">
  <circle cx="146.8" cy="514.9" r="2.2"/>
  <circle cx="169.8" cy="525.0" r="2.2"/>
  <circle cx="181.3" cy="527.2" r="2.2"/>
  <circle cx="192.8" cy="529.7" r="2.2"/>
  <circle cx="204.4" cy="531.5" r="2.2"/>
  <circle cx="215.9" cy="535.6" r="2.2"/>
  <circle cx="227.4" cy="537.8" r="2.2"/>
  <circle cx="238.9" cy="537.1" r="2.2"/>
  <circle cx="250.4" cy="536.5" r="2.2"/>
  <circle cx="262.0" cy="539.7" r="2.2"/>
  <circle cx="285.0" cy="540.5" r="2.2"/>
  <circle cx="296.5" cy="540.5" r="2.2"/>
  <circle cx="308.1" cy="541.9" r="2.2"/>
  <circle cx="319.6" cy="543.2" r="2.2"/>
  <circle cx="331.1" cy="542.7" r="2.2"/>
  <circle cx="342.6" cy="543.4" r="2.2"/>
  <circle cx="354.1" cy="542.3" r="2.2"/>
  <circle cx="365.7" cy="544.2" r="2.2"/>
  <circle cx="377.2" cy="545.9" r="2.2"/>
  <circle cx="400.2" cy="542.5" r="2.2"/>
  <circle cx="411.8" cy="542.3" r="2.2"/>
  <circle cx="423.3" cy="538.3" r="2.2"/>
  <circle cx="434.8" cy="533.2" r="2.2"/>
  <circle cx="446.3" cy="535.5" r="2.2"/>
  <circle cx="457.8" cy="535.1" r="2.2"/>
  <circle cx="469.4" cy="535.1" r="2.2"/>
  <circle cx="480.9" cy="535.7" r="2.2"/>
  <circle cx="492.4" cy="537.6" r="2.2"/>
  <circle cx="515.5" cy="538.8" r="2.2"/>
  <circle cx="527.0" cy="537.4" r="2.2"/>
  <circle cx="538.5" cy="537.6" r="2.2"/>
  <circle cx="550.0" cy="533.3" r="2.2"/>
  <circle cx="561.5" cy="533.4" r="2.2"/>
  <circle cx="573.1" cy="533.4" r="2.2"/>
  <circle cx="584.6" cy="514.9" r="2.2"/>
</g>
<g class="pl" fill="#FFF" stroke="#999" stroke-width="0.900">
  <circle cx="158.3" cy="520.3" r="5.4"/>
  <circle cx="273.5" cy="540.4" r="5.4"/>
  <circle cx="388.7" cy="545.6" r="5.4"/>
  <circle cx="503.9" cy="537.5" r="5.4"/>
</g>
<polyline class="pl" points="584.6,514.9 596.1,531.3 607.6,531.3 619.2,535.1 630.7,539.0 642.2,534.5 653.7,529.7 665.2,532.6 676.8,539.2 688.3,535.5 699.8,542.0 711.3,539.9 722.8,536.0 734.4,537.9 745.9,536.7 757.4,538.1 768.9,540.1 780.5,537.1 792.0,532.4 803.5,541.1 815.0,543.1 826.5,544.6 838.1,540.8 849.6,545.9 861.1,547.1" stroke="#666" stroke-width="5.40" stroke-opacity="1.00" fill="none" clip-path="url(#axis_clip)"/>
<g class="pl" fill="#FFF" stroke="#666" stroke-width="0.900">
  <circle cx="584.6" cy="514.9" r="2.2"/>
  <circle cx="596.1" cy="531.3" r="2.2"/>
  <circle cx="607.6" cy="531.3" r="2.2"/>
  <circle cx="630.7" cy="539.0" r="2.2"/>
  <circle cx="642.2" cy="534.5" r="2.2"/>
  <circle cx="653.7" cy="529.7" r="2.2"/>
  <circle cx="665.2" cy="532.6" r="2.2"/>
  <circle cx="676.8" cy="539.2" r="2.2"/>
  <circle cx="688.3" cy="535.5" r="2.2"/>
  <circle cx="699.8" cy="542.0" r="2.2"/>
  <circle cx="711.3" cy="539.9" r="2.2"/>
  <circle cx="722.8" cy="536.0" r="2.2"/>
  <circle cx="745.9" cy="536.7" r="2.2"/>
  <circle cx="757.4" cy="538.1" r="2.2"/>
  <circle cx="768.9" cy="540.1" r="2.2"/>
  <circle cx="780.5" cy="537.1" r="2.2"/>
  <circle cx="792.0" cy="532.4" r="2.2"/>
  <circle cx="803.5" cy="541.1" r="2.2"/>
  <circle cx="815.0" cy="543.1" r="2.2"/>
  <circle cx="826.5" cy="544.6" r="2.2"/>
  <circle cx="838.1" cy="540.8" r="2.2"/>
  <circle cx="861.1" cy="547.1" r="2.2"/>
</g>
<g class="pl" fill="#FFF" stroke="#666" stroke-width="0.900">
  <circle cx="619.2" cy="535.1" r="5.4"/>
  <circle cx="734.4" cy="537.9" r="5.4"/>
  <circle cx="849.6" cy="545.9" r="5.4"/>
</g>
<g stroke="none" stroke-width="0.9000" fill-opacity="0.50" clip-path="url(#axis_clip)">
  <polygon points="861.1,521.0 872.6,521.7 872.6,573.9 861.1,573.2" fill="#F2D9D9"/>
</g>
<polyline class="pl" points="861.1,521.0 872.6,521.7" stroke="#4D4D4D" stroke-width="0.90" stroke-opacity="1.00" fill="none" clip-path="url(#axis_clip)"/>
<polyline class="pl" points="861.1,573.2 872.6,573.9" stroke="#4D4D4D" stroke-width="0.90" stroke-opacity="1.00" fill="none" clip-path="url(#axis_clip)"/>
<polyline class="pl" points="861.1,547.1 872.6,547.8" stroke="#666" stroke-width="5.40" stroke-opacity="1.00" fill="none" clip-path="url(#axis_clip)"/>
<g class="pl" fill="#FFF" stroke="#666" stroke-width="0.900">
  <circle cx="861.1" cy="547.1" r="2.2"/>
  <circle cx="872.6" cy="547.8" r="2.2"/>
</g>
<g class="pl" fill="#FFF" stroke="#666" stroke-width="0.900">
</g>
<g class="pl" fill="#F00" stroke="#000" stroke-width="2.700">
  <circle cx="872.6" cy="547.8" r="8.1"/>
</g>
<text transform="translate(872.6,627.7)" dy="18.0" font-size="18.00" fill="#808080" stroke="none" text-anchor="middle">projected</text>
<g stroke="none" stroke-width="0.9000"  clip-path="url(#axis_clip)">
  <polygon points="146.8,492.5 158.3,486.9 169.8,486.5 181.3,483.0 192.8,477.4 204.4,471.5 215.9,466.2 227.4,460.4 238.9,456.3 250.4,449.2 262.0,440.1 273.5,428.0 285.0,421.5 296.5,413.8 308.1,404.6 319.6,405.3 331.1,404.9 342.6,394.9 354.1,389.5 365.7,383.3 377.2,377.6 388.7,378.8 400.2,383.8 411.8,385.4 423.3,384.1 434.8,377.1 446.3,370.0 457.8,366.8 469.4,359.9 480.9,351.0 492.4,347.7 503.9,344.0 515.5,338.8 527.0,345.9 538.5,343.4 550.0,341.7 561.5,336.5 573.1,329.0 584.6,327.5 596.1,328.5 607.6,322.9 619.2,315.2 630.7,312.9 642.2,306.4 653.7,291.7 665.2,281.2 676.8,270.7 688.3,260.3 699.8,250.5 711.3,244.3 722.8,249.9 734.4,230.7 745.9,218.7 757.4,213.1 768.9,209.8 780.5,207.0 792.0,207.2 803.5,207.6 815.0,201.5 826.5,193.7 838.1,190.9 849.6,210.4 861.1,190.5 872.6,183.3 872.6,228.1 861.1,228.3 849.6,246.3 838.1,228.7 826.5,231.2 815.0,238.2 803.5,243.8 792.0,243.4 780.5,243.2 768.9,245.7 757.4,248.8 745.9,253.8 734.4,264.6 722.8,282.0 711.3,277.0 699.8,282.6 688.3,291.4 676.8,300.9 665.2,310.3 653.7,319.9 642.2,333.1 630.7,339.0 619.2,341.1 607.6,348.1 596.1,353.1 584.6,352.2 573.1,353.6 561.5,360.4 550.0,365.1 538.5,366.6 527.0,368.9 515.5,362.5 503.9,367.2 492.4,370.5 480.9,373.5 469.4,381.5 457.8,387.8 446.3,390.7 434.8,397.1 423.3,403.4 411.8,404.6 400.2,403.1 388.7,398.7 377.2,397.5 365.7,402.8 354.1,408.3 342.6,413.2 331.1,422.3 319.6,422.7 308.1,422.0 296.5,430.3 285.0,437.3 273.5,443.1 262.0,454.1 250.4,462.4 238.9,468.8 227.4,472.5 215.9,477.8 204.4,482.5 192.8,487.9 181.3,492.9 169.8,496.1 158.3,496.4 146.8,501.6" fill="#F2F2F2"/>
</g>
<g stroke="none" stroke-width="0.9000"  clip-path="url(#axis_clip)">
  <polygon points="861.1,190.5 872.6,183.3 872.6,228.1 861.1,228.3" fill="#F2D9D9"/>
</g>
<polyline class="pl" points="146.8,492.5 158.3,486.9 169.8,486.5 181.3,483.0 192.8,477.4 204.4,471.5 215.9,466.2 227.4,460.4 238.9,456.3 250.4,449.2 262.0,440.1 273.5,428.0 285.0,421.5 296.5,413.8 308.1,404.6 319.6,405.3 331.1,404.9 342.6,394.9 354.1,389.5 365.7,383.3 377.2,377.6 388.7,378.8 400.2,383.8 411.8,385.4 423.3,384.1 434.8,377.1 446.3,370.0 457.8,366.8 469.4,359.9 480.9,351.0 492.4,347.7 503.9,344.0 515.5,338.8 527.0,345.9 538.5,343.4 550.0,341.7 561.5,336.5 573.1,329.0 584.6,327.5 596.1,328.5 607.6,322.9 619.2,315.2 630.7,312.9 642.2,306.4 653.7,291.7 665.2,281.2 676.8,270.7 688.3,260.3 699.8,250.5 711.3,244.3 722.8,249.9 734.4,230.7 745.9,218.7 757.4,213.1 768.9,209.8 780.5,207.0 792.0,207.2 803.5,207.6 815.0,201.5 826.5,193.7 838.1,190.9 849.6,210.4 861.1,190.5 872.6,183.3" stroke="#D9D9D9" stroke-width="0.90" stroke-opacity="1.00" fill="none" clip-path="url(#axis_clip)"/>
<polyline class="pl" points="146.8,501.6 158.3,496.4 169.8,496.1 181.3,492.9 192.8,487.9 204.4,482.5 215.9,477.8 227.4,472.5 238.9,468.8 250.4,462.4 262.0,454.1 273.5,443.1 285.0,437.3 296.5,430.3 308.1,422.0 319.6,422.7 331.1,422.3 342.6,413.2 354.1,408.3 365.7,402.8 377.2,397.5 388.7,398.7 400.2,403.1 411.8,404.6 423.3,403.4 434.8,397.1 446.3,390.7 457.8,387.8 469.4,381.5 480.9,373.5 492.4,370.5 503.9,367.2 515.5,362.5 527.0,368.9 538.5,366.6 550.0,365.1 561.5,360.4 573.1,353.6 584.6,352.2 596.1,353.1 607.6,348.1 619.2,341.1 630.7,339.0 642.2,333.1 653.7,319.9 665.2,310.3 676.8,300.9 688.3,291.4 699.8,282.6 711.3,277.0 722.8,282.0 734.4,264.6 745.9,253.8 757.4,248.8 768.9,245.7 780.5,243.2 792.0,243.4 803.5,243.8 815.0,238.2 826.5,231.2 838.1,228.7 849.6,246.3 861.1,228.3 872.6,228.1" stroke="#D9D9D9" stroke-width="0.90" stroke-opacity="1.00" fill="none" clip-path="url(#axis_clip)"/>
<polyline class="pl" points="861.1,209.4 872.6,205.7" stroke="#000" stroke-width="5.40" stroke-opacity="1.00" fill="none" clip-path="url(#axis_clip)"/>
<polyline class="pl" points="146.8,497.1 158.3,491.6 169.8,491.3 181.3,487.9 192.8,482.7 204.4,477.0 215.9,472.0 227.4,466.4 238.9,462.6 250.4,455.8 262.0,447.1 273.5,435.6 285.0,429.4 296.5,422.0 308.1,413.3 319.6,414.0 331.1,413.6 342.6,404.1 354.1,398.9 365.7,393.0 377.2,387.5 388.7,388.7 400.2,393.5 411.8,395.0 423.3,393.8 434.8,387.1 446.3,380.3 457.8,377.3 469.4,370.7 480.9,362.2 492.4,359.1 503.9,355.6 515.5,350.6 527.0,357.4 538.5,355.0 550.0,353.4 561.5,348.5 573.1,341.3 584.6,339.9 596.1,340.8 607.6,335.5 619.2,328.2 630.7,326.0 642.2,319.7 653.7,305.8 665.2,295.8 676.8,285.8 688.3,275.9 699.8,266.6 711.3,260.7 722.8,266.0 734.4,247.7 745.9,236.2 757.4,230.9 768.9,227.8 780.5,225.1 792.0,225.3 803.5,225.7 815.0,219.8 826.5,212.4 838.1,209.8 849.6,228.3 861.1,209.4" stroke="#000" stroke-width="5.40" stroke-opacity="1.00" fill="none" clip-path="url(#axis_clip)"/>
<g class="pl" fill="#FFF" stroke="#000" stroke-width="0.900">
  <circle cx="146.8" cy="497.1" r="2.2"/>
  <circle cx="169.8" cy="491.3" r="2.2"/>
  <circle cx="181.3" cy="487.9" r="2.2"/>
  <circle cx="192.8" cy="482.7" r="2.2"/>
  <circle cx="204.4" cy="477.0" r="2.2"/>
  <circle cx="215.9" cy="472.0" r="2.2"/>
  <circle cx="227.4" cy="466.4" r="2.2"/>
  <circle cx="238.9" cy="462.6" r="2.2"/>
  <circle cx="250.4" cy="455.8" r="2.2"/>
  <circle cx="262.0" cy="447.1" r="2.2"/>
  <circle cx="285.0" cy="429.4" r="2.2"/>
  <circle cx="296.5" cy="422.0" r="2.2"/>
  <circle cx="308.1" cy="413.3" r="2.2"/>
  <circle cx="319.6" cy="414.0" r="2.2"/>
  <circle cx="331.1" cy="413.6" r="2.2"/>
  <circle cx="342.6" cy="404.1" r="2.2"/>
  <circle cx="354.1" cy="398.9" r="2.2"/>
  <circle cx="365.7" cy="393.0" r="2.2"/>
  <circle cx="377.2" cy="387.5" r="2.2"/>
  <circle cx="400.2" cy="393.5" r="2.2"/>
  <circle cx="411.8" cy="395.0" r="2.2"/>
  <circle cx="423.3" cy="393.8" r="2.2"/>
  <circle cx="434.8" cy="387.1" r="2.2"/>
  <circle cx="446.3" cy="380.3" r="2.2"/>
  <circle cx="457.8" cy="377.3" r="2.2"/>
  <circle cx="469.4" cy="370.7" r="2.2"/>
  <circle cx="480.9" cy="362.2" r="2.2"/>
  <circle cx="492.4" cy="359.1" r="2.2"/>
  <circle cx="515.5" cy="350.6" r="2.2"/>
  <circle cx="527.0" cy="357.4" r="2.2"/>
  <circle cx="538.5" cy="355.0" r="2.2"/>
  <circle cx="550.0" cy="353.4" r="2.2"/>
  <circle cx="561.5" cy="348.5" r="2.2"/>
  <circle cx="573.1" cy="341.3" r="2.2"/>
  <circle cx="584.6" cy="339.9" r="2.2"/>
  <circle cx="596.1" cy="340.8" r="2.2"/>
  <circle cx="607.6" cy="335.5" r="2.2"/>
  <circle cx="630.7" cy="326.0" r="2.2"/>
  <circle cx="642.2" cy="319.7" r="2.2"/>
  <circle cx="653.7" cy="305.8" r="2.2"/>
  <circle cx="665.2" cy="295.8" r="2.2"/>
  <circle cx="676.8" cy="285.8" r="2.2"/>
  <circle cx="688.3" cy="275.9" r="2.2"/>
  <circle cx="699.8" cy="266.6" r="2.2"/>
  <circle cx="711.3" cy="260.7" r="2.2"/>
  <circle cx="722.8" cy="266.0" r="2.2"/>
  <circle cx="745.9" cy="236.2" r="2.2"/>
  <circle cx="757.4" cy="230.9" r="2.2"/>
  <circle cx="768.9" cy="227.8" r="2.2"/>
  <circle cx="780.5" cy="225.1" r="2.2"/>
  <circle cx="792.0" cy="225.3" r="2.2"/>
  <circle cx="803.5" cy="225.7" r="2.2"/>
  <circle cx="815.0" cy="219.8" r="2.2"/>
  <circle cx="826.5" cy="212.4" r="2.2"/>
  <circle cx="838.1" cy="209.8" r="2.2"/>
  <circle cx="861.1" cy="209.4" r="2.2"/>
</g>
<g class="pl" fill="#FFF" stroke="#000" stroke-width="0.900">
  <circle cx="158.3" cy="491.6" r="5.4"/>
  <circle cx="273.5" cy="435.6" r="5.4"/>
  <circle cx="388.7" cy="388.7" r="5.4"/>
  <circle cx="503.9" cy="355.6" r="5.4"/>
  <circle cx="619.2" cy="328.2" r="5.4"/>
  <circle cx="734.4" cy="247.7" r="5.4"/>
  <circle cx="849.6" cy="228.3" r="5.4"/>
</g>
<text transform="translate(918.7,205.7)" dy="8.1" font-size="27.00" fill="#000" stroke="none">Fossil carbon</text>
<text transform="translate(918.7,547.1)" dy="8.1" font-size="27.00" fill="#000" stroke="none">Land-use change</text>
<g stroke="none" stroke-width="0.9000"  clip-path="url(#axis_clip)">
  <polygon points="146.8,398.3 158.3,398.3 169.8,402.7 181.3,401.4 192.8,398.5 204.4,394.6 215.9,393.7 227.4,390.3 238.9,385.6 250.4,378.2 262.0,372.6 273.5,361.6 285.0,355.5 296.5,347.9 308.1,340.5 319.6,342.5 331.1,341.7 342.6,332.6 354.1,326.3 365.7,322.2 377.2,318.3 388.7,319.2 400.2,320.9 411.8,322.3 423.3,317.0 434.8,305.1 446.3,300.6 457.8,297.1 469.4,290.4 480.9,282.3 492.4,281.1 503.9,277.4 515.5,273.6 527.0,279.1 538.5,276.8 550.0,270.9 561.5,265.9 573.1,258.7 584.6,238.7 596.1,256.1 607.6,250.7 619.2,247.0 630.7,248.6 642.2,237.7 653.7,218.6 665.2,211.3 676.8,207.7 688.3,193.8 699.8,190.8 711.3,182.6 722.8,184.1 734.4,167.3 745.9,154.3 757.4,150.2 768.9,149.0 780.5,143.3 792.0,138.8 803.5,147.9 815.0,143.9 826.5,137.7 838.1,131.2 849.6,155.4 861.1,137.1 872.6,131.9 872.6,200.7 861.1,201.5 849.6,218.7 838.1,195.6 826.5,202.0 815.0,207.7 803.5,211.3 792.0,202.3 780.5,206.9 768.9,212.4 757.4,213.4 745.9,217.2 734.4,229.6 722.8,245.4 711.3,244.2 699.8,252.0 688.3,254.6 676.8,268.0 665.2,271.1 653.7,277.9 642.2,296.4 630.7,306.9 619.2,305.2 607.6,308.6 596.1,313.8 584.6,296.4 573.1,316.4 561.5,323.3 550.0,328.1 538.5,334.0 527.0,336.1 515.5,330.9 503.9,334.5 492.4,338.1 480.9,339.1 469.4,346.9 457.8,353.3 446.3,356.7 434.8,361.0 423.3,372.7 411.8,378.0 400.2,376.6 388.7,375.1 377.2,374.2 365.7,377.9 354.1,381.8 342.6,387.9 331.1,396.7 319.6,397.5 308.1,395.6 296.5,402.7 285.0,410.0 273.5,415.9 262.0,426.6 250.4,432.1 238.9,439.3 227.4,443.9 215.9,447.2 204.4,447.9 192.8,451.7 181.3,454.6 169.8,455.7 158.3,451.3 146.8,451.2" fill="#FFE4E4"/>
</g>
<g stroke="none" stroke-width="0.9000"  clip-path="url(#axis_clip)">
  <polygon points="861.1,137.1 872.6,131.9 872.6,200.7 861.1,201.5" fill="#F2D9D9"/>
</g>
<polyline class="pl" points="146.8,398.3 158.3,398.3 169.8,402.7 181.3,401.4 192.8,398.5 204.4,394.6 215.9,393.7 227.4,390.3 238.9,385.6 250.4,378.2 262.0,372.6 273.5,361.6 285.0,355.5 296.5,347.9 308.1,340.5 319.6,342.5 331.1,341.7 342.6,332.6 354.1,326.3 365.7,322.2 377.2,318.3 388.7,319.2 400.2,320.9 411.8,322.3 423.3,317.0 434.8,305.1 446.3,300.6 457.8,297.1 469.4,290.4 480.9,282.3 492.4,281.1 503.9,277.4 515.5,273.6 527.0,279.1 538.5,276.8 550.0,270.9 561.5,265.9 573.1,258.7 584.6,238.7 596.1,256.1 607.6,250.7 619.2,247.0 630.7,248.6 642.2,237.7 653.7,218.6 665.2,211.3 676.8,207.7 688.3,193.8 699.8,190.8 711.3,182.6 722.8,184.1 734.4,167.3 745.9,154.3 757.4,150.2 768.9,149.0 780.5,143.3 792.0,138.8 803.5,147.9 815.0,143.9 826.5,137.7 838.1,131.2 849.6,155.4 861.1,137.1 872.6,131.9" stroke="#D9D9D9" stroke-width="0.90" stroke-opacity="1.00" fill="none" clip-path="url(#axis_clip)"/>
<polyline class="pl" points="146.8,451.2 158.3,451.3 169.8,455.7 181.3,454.6 192.8,451.7 204.4,447.9 215.9,447.2 227.4,443.9 238.9,439.3 250.4,432.1 262.0,426.6 273.5,415.9 285.0,410.0 296.5,402.7 308.1,395.6 319.6,397.5 331.1,396.7 342.6,387.9 354.1,381.8 365.7,377.9 377.2,374.2 388.7,375.1 400.2,376.6 411.8,378.0 423.3,372.7 434.8,361.0 446.3,356.7 457.8,353.3 469.4,346.9 480.9,339.1 492.4,338.1 503.9,334.5 515.5,330.9 527.0,336.1 538.5,334.0 550.0,328.1 561.5,323.3 573.1,316.4 584.6,296.4 596.1,313.8 607.6,308.6 619.2,305.2 630.7,306.9 642.2,296.4 653.7,277.9 665.2,271.1 676.8,268.0 688.3,254.6 699.8,252.0 711.3,244.2 722.8,245.4 734.4,229.6 745.9,217.2 757.4,213.4 768.9,212.4 780.5,206.9 792.0,202.3 803.5,211.3 815.0,207.7 826.5,202.0 838.1,195.6 849.6,218.7 861.1,201.5 872.6,200.7" stroke="#D9D9D9" stroke-width="0.90" stroke-opacity="1.00" fill="none" clip-path="url(#axis_clip)"/>
<polyline class="pl" points="861.1,169.3 872.6,166.3" stroke="#FF777A" stroke-width="5.40" stroke-opacity="1.00" fill="none" clip-path="url(#axis_clip)"/>
<g class="pl" fill="#F00" stroke="#000" stroke-width="2.700">
  <circle cx="872.6" cy="166.3" r="8.1"/>
</g>
<polyline class="pl" points="146.8,424.8 158.3,424.8 169.8,429.2 181.3,428.0 192.8,425.1 204.4,421.3 215.9,420.4 227.4,417.1 238.9,412.5 250.4,405.1 262.0,399.6 273.5,388.8 285.0,382.7 296.5,375.3 308.1,368.0 319.6,370.0 331.1,369.2 342.6,360.3 354.1,354.0 365.7,350.1 377.2,346.2 388.7,347.2 400.2,348.8 411.8,350.1 423.3,344.9 434.8,333.1 446.3,328.6 457.8,325.2 469.4,318.7 480.9,310.7 492.4,309.6 503.9,306.0 515.5,302.2 527.0,307.6 538.5,305.4 550.0,299.5 561.5,294.6 573.1,287.5 584.6,267.6 596.1,284.9 607.6,279.6 619.2,276.1 630.7,277.7 642.2,267.1 653.7,248.3 665.2,241.2 676.8,237.8 688.3,224.2 699.8,221.4 711.3,213.4 722.8,214.8 734.4,198.4 745.9,185.7 757.4,181.8 768.9,180.7 780.5,175.1 792.0,170.5 803.5,179.6 815.0,175.8 826.5,169.9 838.1,163.4 849.6,187.0 861.1,169.3" stroke="#FF777A" stroke-width="5.40" stroke-opacity="1.00" fill="none" clip-path="url(#axis_clip)"/>
<g class="pl" fill="#FFF" stroke="#FF777A" stroke-width="0.900">
  <circle cx="146.8" cy="424.8" r="2.2"/>
  <circle cx="169.8" cy="429.2" r="2.2"/>
  <circle cx="181.3" cy="428.0" r="2.2"/>
  <circle cx="192.8" cy="425.1" r="2.2"/>
  <circle cx="204.4" cy="421.3" r="2.2"/>
  <circle cx="215.9" cy="420.4" r="2.2"/>
  <circle cx="227.4" cy="417.1" r="2.2"/>
  <circle cx="238.9" cy="412.5" r="2.2"/>
  <circle cx="250.4" cy="405.1" r="2.2"/>
  <circle cx="262.0" cy="399.6" r="2.2"/>
  <circle cx="285.0" cy="382.7" r="2.2"/>
  <circle cx="296.5" cy="375.3" r="2.2"/>
  <circle cx="308.1" cy="368.0" r="2.2"/>
  <circle cx="319.6" cy="370.0" r="2.2"/>
  <circle cx="331.1" cy="369.2" r="2.2"/>
  <circle cx="342.6" cy="360.3" r="2.2"/>
  <circle cx="354.1" cy="354.0" r="2.2"/>
  <circle cx="365.7" cy="350.1" r="2.2"/>
  <circle cx="377.2" cy="346.2" r="2.2"/>
  <circle cx="400.2" cy="348.8" r="2.2"/>
  <circle cx="411.8" cy="350.1" r="2.2"/>
  <circle cx="423.3" cy="344.9" r="2.2"/>
  <circle cx="434.8" cy="333.1" r="2.2"/>
  <circle cx="446.3" cy="328.6" r="2.2"/>
  <circle cx="457.8" cy="325.2" r="2.2"/>
  <circle cx="469.4" cy="318.7" r="2.2"/>
  <circle cx="480.9" cy="310.7" r="2.2"/>
  <circle cx="492.4" cy="309.6" r="2.2"/>
  <circle cx="515.5" cy="302.2" r="2.2"/>
  <circle cx="527.0" cy="307.6" r="2.2"/>
  <circle cx="538.5" cy="305.4" r="2.2"/>
  <circle cx="550.0" cy="299.5" r="2.2"/>
  <circle cx="561.5" cy="294.6" r="2.2"/>
  <circle cx="573.1" cy="287.5" r="2.2"/>
  <circle cx="584.6" cy="267.6" r="2.2"/>
  <circle cx="596.1" cy="284.9" r="2.2"/>
  <circle cx="607.6" cy="279.6" r="2.2"/>
  <circle cx="630.7" cy="277.7" r="2.2"/>
  <circle cx="642.2" cy="267.1" r="2.2"/>
  <circle cx="653.7" cy="248.3" r="2.2"/>
  <circle cx="665.2" cy="241.2" r="2.2"/>
  <circle cx="676.8" cy="237.8" r="2.2"/>
  <circle cx="688.3" cy="224.2" r="2.2"/>
  <circle cx="699.8" cy="221.4" r="2.2"/>
  <circle cx="711.3" cy="213.4" r="2.2"/>
  <circle cx="722.8" cy="214.8" r="2.2"/>
  <circle cx="745.9" cy="185.7" r="2.2"/>
  <circle cx="757.4" cy="181.8" r="2.2"/>
  <circle cx="768.9" cy="180.7" r="2.2"/>
  <circle cx="780.5" cy="175.1" r="2.2"/>
  <circle cx="792.0" cy="170.5" r="2.2"/>
  <circle cx="803.5" cy="179.6" r="2.2"/>
  <circle cx="815.0" cy="175.8" r="2.2"/>
  <circle cx="826.5" cy="169.9" r="2.2"/>
  <circle cx="838.1" cy="163.4" r="2.2"/>
  <circle cx="861.1" cy="169.3" r="2.2"/>
</g>
<g class="pl" fill="#FFF" stroke="#FF777A" stroke-width="0.900">
  <circle cx="158.3" cy="424.8" r="5.4"/>
  <circle cx="273.5" cy="388.8" r="5.4"/>
  <circle cx="388.7" cy="347.2" r="5.4"/>
  <circle cx="503.9" cy="306.0" r="5.4"/>
  <circle cx="619.2" cy="276.1" r="5.4"/>
  <circle cx="734.4" cy="198.4" r="5.4"/>
  <circle cx="849.6" cy="187.0" r="5.4"/>
</g>
<g class="pl" fill="#F00" stroke="#000" stroke-width="2.700">
  <circle cx="872.6" cy="205.7" r="8.1"/>
</g>
<text transform="translate(918.7,166.3)" dy="8.1" font-size="27.00" fill="#000" stroke="none">Total</text>
<text transform="translate(145.6,47.2)" dy="0.0" font-size="27.00" fill="#808080" stroke="none">Annual CO<tspan dy="0.2em"><tspan style="font-size:70%">2</tspan></tspan><tspan dy="-0.2em"> </tspan>Emissions</text>
<text transform="translate(160.2,666.1)" font-size="19.80" fill="#BFBFBF" stroke="none" xml:space="preserve">Global Carbon Project</text>
<g>
  <rect x="123.0" y="651.4" width="34" height="17" fill="#FFF" stroke="none"/>
  <g transform="translate(124.0,652.4) scale(0.24)">
  <g><circle fill="#FFF" cx="37.79" cy="28.5" r="28.84"/>
     <circle fill="none" cx="37.79" cy="28.5" r="28.84" stroke="#BFBFBF" stroke-width="5.5"/>
     <path fill="#BFBFBF" d="M37.16,23.19 l-4.29,2.23c-0.458-0.951-1.02-1.62-1.69-2c-0.667-0.38-1.29-0.571-1.86-0.571c-2.86,0-4.29,1.89-4.29,5.66 c0,1.71,0.36,3.08,1.09,4.11c0.724,1.03,1.79,1.54,3.2,1.54c1.87,0,3.18-0.915,3.94-2.74l3.94,2 c-0.838,1.56-2,2.79-3.49,3.69c-1.48,0.896-3.12,1.34-4.91,1.34c-2.86,0-5.16-0.875-6.92-2.63 c-1.75-1.75-2.63-4.19-2.63-7.31c0-3.05,0.886-5.47,2.66-7.26c1.77-1.79,4.01-2.69,6.72-2.69 C32.6,18.56,35.44,20.1,37.16,23.19z
              M55.61,23.19l-4.23,2.23c-0.457-0.951-1.02-1.62-1.69-2 c-0.668-0.38-1.31-0.571-1.91-0.571c-2.86,0-4.29,1.89-4.29,5.66c0,1.71,0.363,3.08,1.09,4.11 c0.723,1.03,1.79,1.54,3.2,1.54c1.87,0,3.18-0.915,3.94-2.74l4,2c-0.875,1.56-2.06,2.79-3.54,3.69 c-1.49,0.9-3.11,1.34-4.86,1.34c-2.9,0-5.21-0.875-6.94-2.63c-1.74-1.75-2.6-4.19-2.6-7.31 c0-3.05,0.885-5.47,2.66-7.26c1.77-1.79,4.01-2.69,6.71-2.69C51.12,18.56,53.944,20.1,55.61,23.19z"/>
  </g></g>
  <g transform="translate(140.2,652.4) scale(0.24)">
  <g><circle fill="#FFF" cx="37.79" cy="28.5" r="28.84"/>
     <circle fill="none" cx="37.79" cy="28.5" r="28.84" stroke="#BFBFBF" stroke-width="5.5"/>
     <path fill="#BFBFBF" d="M46.129,20.557v13.085h-3.656v15.542h-9.944V33.643h-3.656V20.557 c0-0.572,0.2-1.057,0.599-1.457c0.401-0.399,0.887-0.6,1.457-0.6h13.144c0.533,0,1.01,0.2,1.428,0.6 C45.918,19.5,46.129,19.986,46.129,20.557z
              M33.042,12.329c0-3.008,1.485-4.514,4.458-4.514s4.457,1.504,4.457,4.514 c0,2.971-1.486,4.457-4.457,4.457S33.042,15.3,33.042,12.329z"/>
  </g></g>
</g>
</g>
</svg>
