<svg version="1.1" xmlns="http://www.w3.org/2000/svg" xmlns:xlink="http://www.w3.org/1999/xlink" width="100%" height="100%" viewBox="0 0 1200.000 674.916">
<title>Annual Fossil CO2 Emissions by Continent</title>
<style type="text/css">
  #main {font-family:Helvetica,Arial,sans-serif; font-size:27.00px;
         fill-opacity:1; fill:#000000; stroke:none; stroke-linejoin:round; stroke-linecap:round; stroke-width:1.00;}
  .marker {stroke-opacity:0;fill-opacity:0;}
  .marker:hover {stroke-opacity:0.5; fill-opacity:1;}
  .ticklabel {font-size:27.00px;fill:#808080;stroke:none}
  .ytl {text-anchor:end;}
  .dp1 {pointer-events:none;font-size:70%;text-anchor:middle;fill:#000000;}
  .dp2 {pointer-events:none;font-size:70%;text-anchor:middle;fill:#FFFFFF;}
  .numtip {pointer-events:none;}
  .cc {opacity:0.25;}
.dl_fe {background-color:#FDFFDF;display:flex;margin:auto;align-items:center}
.dl_fe_p {font-size:20px;text-align:center;margin:3px}
.dl_el {display:none;pointer-events:none;}
.cc:hover + .dl_el {display:block;}
text:hover + .dl_el {display:block;}
</style>
<defs>
  <clipPath id="axis_clip"><rect x="145.8" y="54.2" width="761.2" height="532.8" /></clipPath>
  <path id="line_x" d="M 145.600,0 h 761.600" stroke="#262626" stroke-opacity="0.15" stroke-width="1.00"/>
  <path id="tick_y" d="M 145.600,0 h -6.000" stroke="#808080" stroke-width="0.90"/>
  <path id="tick_x" d="M 0,587.177 v 6.000" stroke="#808080" stroke-width="0.90"/>
</defs>
<g id="main">
<use xlink:href="#line_x" transform="translate(0,587.2)"/>
<use xlink:href="#line_x" transform="translate(0,498.3)"/>
<use xlink:href="#line_x" transform="translate(0,409.4)"/>
<use xlink:href="#line_x" transform="translate(0,320.6)"/>
<use xlink:href="#line_x" transform="translate(0,231.7)"/>
<use xlink:href="#line_x" transform="translate(0,142.9)"/>
<use xlink:href="#line_x" transform="translate(0,54.0)"/>
<use xlink:href="#tick_y" transform="translate(0,587.2)"/>
<use xlink:href="#tick_y" transform="translate(0,498.3)"/>
<use xlink:href="#tick_y" transform="translate(0,409.4)"/>
<use xlink:href="#tick_y" transform="translate(0,320.6)"/>
<use xlink:href="#tick_y" transform="translate(0,231.7)"/>
<use xlink:href="#tick_y" transform="translate(0,142.9)"/>
<use xlink:href="#tick_y" transform="translate(0,54.0)"/>
<use xlink:href="#tick_x" transform="translate(162.8,0)"/>
<use xlink:href="#tick_x" transform="translate(277.3,0)"/>
<use xlink:href="#tick_x" transform="translate(391.8,0)"/>
<use xlink:href="#tick_x" transform="translate(506.4,0)"/>
<use xlink:href="#tick_x" transform="translate(620.9,0)"/>
<use xlink:href="#tick_x" transform="translate(735.4,0)"/>
<use xlink:href="#tick_x" transform="translate(861.4,0)"/>
<polyline points="145.6,53.993 145.6,587.177 907.2,587.177" stroke="#808080" stroke-width="0.90" fill="none"/>
<text class="ticklabel xtl" transform="translate(162.8,629.0)" text-anchor="middle">1960</text>
<text class="ticklabel xtl" transform="translate(277.3,629.0)" text-anchor="middle">1970</text>
<text class="ticklabel xtl" transform="translate(391.8,629.0)" text-anchor="middle">1980</text>
<text class="ticklabel xtl" transform="translate(506.4,629.0)" text-anchor="middle">1990</text>
<text class="ticklabel xtl" transform="translate(620.9,629.0)" text-anchor="middle">2000</text>
<text class="ticklabel xtl" transform="translate(735.4,629.0)" text-anchor="middle">2010</text>
<text class="ticklabel xtl" transform="translate(861.4,629.0)" text-anchor="middle">2021</text>
<text class="ticklabel ytl" transform="translate(128.8,595.3)">0</text>
<text class="ticklabel ytl" transform="translate(128.8,506.4)">1</text>
<text class="ticklabel ytl" transform="translate(128.8,417.5)">2</text>
<text class="ticklabel ytl" transform="translate(128.8,328.7)">3</text>
<text class="ticklabel ytl" transform="translate(128.8,239.8)">4</text>
<text class="ticklabel ytl" transform="translate(128.8,151.0)">5</text>
<text class="ticklabel ytl" transform="translate(128.8,62.1)">6 Gt C</text>
<polyline class="pl" points="139.9,499.1 151.3,497.1 162.8,491.0 174.2,487.5 185.7,482.0 197.1,475.4 208.6,469.8 220.0,466.4 231.5,462.2 242.9,459.4 254.4,453.5 265.9,446.2 277.3,439.4 288.8,433.8 300.2,428.3 311.7,421.2 323.1,420.7 334.6,419.8 346.0,410.7 357.5,409.3 368.9,403.7 380.4,399.3 391.8,399.2 403.3,406.1 414.7,407.5 426.2,407.4 437.6,406.1 449.1,398.3 460.5,397.9 472.0,397.4 483.5,396.5 494.9,397.3 506.4,392.3 517.8,399.5 529.3,415.1 540.7,422.1 552.2,430.8 563.6,431.3 575.1,430.2 586.5,435.2 598.0,435.8 609.4,437.8 620.9,437.8 632.3,434.7 643.8,435.5 655.2,432.0 666.7,431.2 678.1,431.4 689.6,429.0 701.1,430.1 712.5,431.9 724.0,444.3 735.4,438.8 746.9,440.6 758.3,441.8 769.8,445.6 781.2,451.2 792.7,451.2 804.1,451.4 815.6,450.6 827.0,451.3 838.5,455.6 849.9,465.6 861.4,458.5" stroke="#FD8D3C" stroke-width="5.40" stroke-opacity="1.00" fill="none" clip-path="url(#axis_clip)"/>
<g class="pl" fill="#FFF" stroke="#FD8D3C" stroke-width="0.900">
  <circle cx="151.3" cy="497.1" r="2.2"/>
  <circle cx="174.2" cy="487.5" r="2.2"/>
  <circle cx="185.7" cy="482.0" r="2.2"/>
  <circle cx="197.1" cy="475.4" r="2.2"/>
  <circle cx="208.6" cy="469.8" r="2.2"/>
  <circle cx="220.0" cy="466.4" r="2.2"/>
  <circle cx="231.5" cy="462.2" r="2.2"/>
  <circle cx="242.9" cy="459.4" r="2.2"/>
  <circle cx="254.4" cy="453.5" r="2.2"/>
  <circle cx="265.9" cy="446.2" r="2.2"/>
  <circle cx="288.8" cy="433.8" r="2.2"/>
  <circle cx="300.2" cy="428.3" r="2.2"/>
  <circle cx="311.7" cy="421.2" r="2.2"/>
  <circle cx="323.1" cy="420.7" r="2.2"/>
  <circle cx="334.6" cy="419.8" r="2.2"/>
  <circle cx="346.0" cy="410.7" r="2.2"/>
  <circle cx="357.5" cy="409.3" r="2.2"/>
  <circle cx="368.9" cy="403.7" r="2.2"/>
  <circle cx="380.4" cy="399.3" r="2.2"/>
  <circle cx="403.3" cy="406.1" r="2.2"/>
  <circle cx="414.7" cy="407.5" r="2.2"/>
  <circle cx="426.2" cy="407.4" r="2.2"/>
  <circle cx="437.6" cy="406.1" r="2.2"/>
  <circle cx="449.1" cy="398.3" r="2.2"/>
  <circle cx="460.5" cy="397.9" r="2.2"/>
  <circle cx="472.0" cy="397.4" r="2.2"/>
  <circle cx="483.5" cy="396.5" r="2.2"/>
  <circle cx="494.9" cy="397.3" r="2.2"/>
  <circle cx="517.8" cy="399.5" r="2.2"/>
  <circle cx="529.3" cy="415.1" r="2.2"/>
  <circle cx="540.7" cy="422.1" r="2.2"/>
  <circle cx="552.2" cy="430.8" r="2.2"/>
  <circle cx="563.6" cy="431.3" r="2.2"/>
  <circle cx="575.1" cy="430.2" r="2.2"/>
  <circle cx="586.5" cy="435.2" r="2.2"/>
  <circle cx="598.0" cy="435.8" r="2.2"/>
  <circle cx="609.4" cy="437.8" r="2.2"/>
  <circle cx="632.3" cy="434.7" r="2.2"/>
  <circle cx="643.8" cy="435.5" r="2.2"/>
  <circle cx="655.2" cy="432.0" r="2.2"/>
  <circle cx="666.7" cy="431.2" r="2.2"/>
  <circle cx="678.1" cy="431.4" r="2.2"/>
  <circle cx="689.6" cy="429.0" r="2.2"/>
  <circle cx="701.1" cy="430.1" r="2.2"/>
  <circle cx="712.5" cy="431.9" r="2.2"/>
  <circle cx="724.0" cy="444.3" r="2.2"/>
  <circle cx="746.9" cy="440.6" r="2.2"/>
  <circle cx="758.3" cy="441.8" r="2.2"/>
  <circle cx="769.8" cy="445.6" r="2.2"/>
  <circle cx="781.2" cy="451.2" r="2.2"/>
  <circle cx="792.7" cy="451.2" r="2.2"/>
  <circle cx="804.1" cy="451.4" r="2.2"/>
  <circle cx="815.6" cy="450.6" r="2.2"/>
  <circle cx="827.0" cy="451.3" r="2.2"/>
  <circle cx="838.5" cy="455.6" r="2.2"/>
  <circle cx="861.4" cy="458.5" r="2.2"/>
</g>
<g class="pl" fill="#FFF" stroke="#FD8D3C" stroke-width="0.900">
  <circle cx="162.8" cy="491.0" r="5.4"/>
  <circle cx="277.3" cy="439.4" r="5.4"/>
  <circle cx="391.8" cy="399.2" r="5.4"/>
  <circle cx="506.4" cy="392.3" r="5.4"/>
  <circle cx="620.9" cy="437.8" r="5.4"/>
  <circle cx="735.4" cy="438.8" r="5.4"/>
  <circle cx="849.9" cy="465.6" r="5.4"/>
</g>
<polyline class="pl" points="139.9,561.2 151.3,555.6 162.8,552.0 174.2,555.7 185.7,557.3 197.1,555.6 208.6,554.1 220.0,551.3 231.5,548.4 242.9,547.9 254.4,544.0 265.9,538.1 277.3,528.6 288.8,523.6 300.2,520.0 311.7,516.2 323.1,515.2 334.6,510.9 346.0,507.3 357.5,502.0 368.9,497.6 380.4,494.2 391.8,494.0 403.3,494.5 414.7,491.2 426.2,487.5 437.6,481.6 449.1,475.7 460.5,471.2 472.0,465.8 483.5,455.7 494.9,451.6 506.4,447.3 517.8,441.5 529.3,435.9 540.7,429.9 552.2,422.8 563.6,414.0 575.1,406.4 586.5,403.1 598.0,410.7 609.4,401.8 620.9,394.6 632.3,391.1 643.8,378.3 655.2,356.7 666.7,343.1 678.1,324.2 689.6,306.7 701.1,289.3 712.5,274.7 724.0,263.6 735.4,237.6 746.9,209.5 758.3,196.0 769.8,188.7 781.2,183.0 792.7,182.4 804.1,180.2 815.6,169.9 827.0,155.0 838.5,143.9 849.9,148.9 861.4,127.1" stroke="#74C476" stroke-width="5.40" stroke-opacity="1.00" fill="none" clip-path="url(#axis_clip)"/>
<g class="pl" fill="#FFF" stroke="#74C476" stroke-width="0.900">
  <circle cx="151.3" cy="555.6" r="2.2"/>
  <circle cx="174.2" cy="555.7" r="2.2"/>
  <circle cx="185.7" cy="557.3" r="2.2"/>
  <circle cx="197.1" cy="555.6" r="2.2"/>
  <circle cx="208.6" cy="554.1" r="2.2"/>
  <circle cx="220.0" cy="551.3" r="2.2"/>
  <circle cx="231.5" cy="548.4" r="2.2"/>
  <circle cx="242.9" cy="547.9" r="2.2"/>
  <circle cx="254.4" cy="544.0" r="2.2"/>
  <circle cx="265.9" cy="538.1" r="2.2"/>
  <circle cx="288.8" cy="523.6" r="2.2"/>
  <circle cx="300.2" cy="520.0" r="2.2"/>
  <circle cx="311.7" cy="516.2" r="2.2"/>
  <circle cx="323.1" cy="515.2" r="2.2"/>
  <circle cx="334.6" cy="510.9" r="2.2"/>
  <circle cx="346.0" cy="507.3" r="2.2"/>
  <circle cx="357.5" cy="502.0" r="2.2"/>
  <circle cx="368.9" cy="497.6" r="2.2"/>
  <circle cx="380.4" cy="494.2" r="2.2"/>
  <circle cx="403.3" cy="494.5" r="2.2"/>
  <circle cx="414.7" cy="491.2" r="2.2"/>
  <circle cx="426.2" cy="487.5" r="2.2"/>
  <circle cx="437.6" cy="481.6" r="2.2"/>
  <circle cx="449.1" cy="475.7" r="2.2"/>
  <circle cx="460.5" cy="471.2" r="2.2"/>
  <circle cx="472.0" cy="465.8" r="2.2"/>
  <circle cx="483.5" cy="455.7" r="2.2"/>
  <circle cx="494.9" cy="451.6" r="2.2"/>
  <circle cx="517.8" cy="441.5" r="2.2"/>
  <circle cx="529.3" cy="435.9" r="2.2"/>
  <circle cx="540.7" cy="429.9" r="2.2"/>
  <circle cx="552.2" cy="422.8" r="2.2"/>
  <circle cx="563.6" cy="414.0" r="2.2"/>
  <circle cx="575.1" cy="406.4" r="2.2"/>
  <circle cx="586.5" cy="403.1" r="2.2"/>
  <circle cx="598.0" cy="410.7" r="2.2"/>
  <circle cx="609.4" cy="401.8" r="2.2"/>
  <circle cx="632.3" cy="391.1" r="2.2"/>
  <circle cx="643.8" cy="378.3" r="2.2"/>
  <circle cx="655.2" cy="356.7" r="2.2"/>
  <circle cx="666.7" cy="343.1" r="2.2"/>
  <circle cx="678.1" cy="324.2" r="2.2"/>
  <circle cx="689.6" cy="306.7" r="2.2"/>
  <circle cx="701.1" cy="289.3" r="2.2"/>
  <circle cx="712.5" cy="274.7" r="2.2"/>
  <circle cx="724.0" cy="263.6" r="2.2"/>
  <circle cx="746.9" cy="209.5" r="2.2"/>
  <circle cx="758.3" cy="196.0" r="2.2"/>
  <circle cx="769.8" cy="188.7" r="2.2"/>
  <circle cx="781.2" cy="183.0" r="2.2"/>
  <circle cx="792.7" cy="182.4" r="2.2"/>
  <circle cx="804.1" cy="180.2" r="2.2"/>
  <circle cx="815.6" cy="169.9" r="2.2"/>
  <circle cx="827.0" cy="155.0" r="2.2"/>
  <circle cx="838.5" cy="143.9" r="2.2"/>
  <circle cx="861.4" cy="127.1" r="2.2"/>
</g>
<g class="pl" fill="#FFF" stroke="#74C476" stroke-width="0.900">
  <circle cx="162.8" cy="552.0" r="5.4"/>
  <circle cx="277.3" cy="528.6" r="5.4"/>
  <circle cx="391.8" cy="494.0" r="5.4"/>
  <circle cx="506.4" cy="447.3" r="5.4"/>
  <circle cx="620.9" cy="394.6" r="5.4"/>
  <circle cx="735.4" cy="237.6" r="5.4"/>
  <circle cx="849.9" cy="148.9" r="5.4"/>
</g>
<polyline class="pl" points="139.9,583.6 151.3,583.6 162.8,583.4 174.2,583.2 185.7,583.1 197.1,582.9 208.6,582.5 220.0,582.0 231.5,581.8 242.9,581.4 254.4,580.9 265.9,580.4 277.3,579.8 288.8,579.1 300.2,578.6 311.7,578.0 323.1,577.7 334.6,577.8 346.0,577.0 357.5,576.7 368.9,575.9 380.4,575.1 391.8,574.2 403.3,573.9 414.7,573.3 426.2,572.7 437.6,571.4 449.1,571.0 460.5,570.4 472.0,570.4 483.5,569.6 494.9,570.2 506.4,571.2 517.8,570.5 529.3,571.0 540.7,570.0 552.2,569.7 563.6,568.5 575.1,568.2 586.5,567.5 598.0,566.9 609.4,567.0 620.9,565.7 632.3,565.7 643.8,565.5 655.2,563.7 666.7,562.0 678.1,561.5 689.6,560.7 701.1,559.7 712.5,558.5 724.0,558.8 735.4,557.7 746.9,556.8 758.3,556.6 769.8,556.4 781.2,554.4 792.7,555.1 804.1,554.1 815.6,553.7 827.0,554.0 838.5,551.6 849.9,553.6 861.4,552.0" stroke="#6BAED6" stroke-width="5.40" stroke-opacity="1.00" fill="none" clip-path="url(#axis_clip)"/>
<g class="pl" fill="#FFF" stroke="#6BAED6" stroke-width="0.900">
  <circle cx="151.3" cy="583.6" r="2.2"/>
  <circle cx="174.2" cy="583.2" r="2.2"/>
  <circle cx="185.7" cy="583.1" r="2.2"/>
  <circle cx="197.1" cy="582.9" r="2.2"/>
  <circle cx="208.6" cy="582.5" r="2.2"/>
  <circle cx="220.0" cy="582.0" r="2.2"/>
  <circle cx="231.5" cy="581.8" r="2.2"/>
  <circle cx="242.9" cy="581.4" r="2.2"/>
  <circle cx="254.4" cy="580.9" r="2.2"/>
  <circle cx="265.9" cy="580.4" r="2.2"/>
  <circle cx="288.8" cy="579.1" r="2.2"/>
  <circle cx="300.2" cy="578.6" r="2.2"/>
  <circle cx="311.7" cy="578.0" r="2.2"/>
  <circle cx="323.1" cy="577.7" r="2.2"/>
  <circle cx="334.6" cy="577.8" r="2.2"/>
  <circle cx="346.0" cy="577.0" r="2.2"/>
  <circle cx="357.5" cy="576.7" r="2.2"/>
  <circle cx="368.9" cy="575.9" r="2.2"/>
  <circle cx="380.4" cy="575.1" r="2.2"/>
  <circle cx="403.3" cy="573.9" r="2.2"/>
  <circle cx="414.7" cy="573.3" r="2.2"/>
  <circle cx="426.2" cy="572.7" r="2.2"/>
  <circle cx="437.6" cy="571.4" r="2.2"/>
  <circle cx="449.1" cy="571.0" r="2.2"/>
  <circle cx="460.5" cy="570.4" r="2.2"/>
  <circle cx="472.0" cy="570.4" r="2.2"/>
  <circle cx="483.5" cy="569.6" r="2.2"/>
  <circle cx="494.9" cy="570.2" r="2.2"/>
  <circle cx="517.8" cy="570.5" r="2.2"/>
  <circle cx="529.3" cy="571.0" r="2.2"/>
  <circle cx="540.7" cy="570.0" r="2.2"/>
  <circle cx="552.2" cy="569.7" r="2.2"/>
  <circle cx="563.6" cy="568.5" r="2.2"/>
  <circle cx="575.1" cy="568.2" r="2.2"/>
  <circle cx="586.5" cy="567.5" r="2.2"/>
  <circle cx="598.0" cy="566.9" r="2.2"/>
  <circle cx="609.4" cy="567.0" r="2.2"/>
  <circle cx="632.3" cy="565.7" r="2.2"/>
  <circle cx="643.8" cy="565.5" r="2.2"/>
  <circle cx="655.2" cy="563.7" r="2.2"/>
  <circle cx="666.7" cy="562.0" r="2.2"/>
  <circle cx="678.1" cy="561.5" r="2.2"/>
  <circle cx="689.6" cy="560.7" r="2.2"/>
  <circle cx="701.1" cy="559.7" r="2.2"/>
  <circle cx="712.5" cy="558.5" r="2.2"/>
  <circle cx="724.0" cy="558.8" r="2.2"/>
  <circle cx="746.9" cy="556.8" r="2.2"/>
  <circle cx="758.3" cy="556.6" r="2.2"/>
  <circle cx="769.8" cy="556.4" r="2.2"/>
  <circle cx="781.2" cy="554.4" r="2.2"/>
  <circle cx="792.7" cy="555.1" r="2.2"/>
  <circle cx="804.1" cy="554.1" r="2.2"/>
  <circle cx="815.6" cy="553.7" r="2.2"/>
  <circle cx="827.0" cy="554.0" r="2.2"/>
  <circle cx="838.5" cy="551.6" r="2.2"/>
  <circle cx="861.4" cy="552.0" r="2.2"/>
</g>
<g class="pl" fill="#FFF" stroke="#6BAED6" stroke-width="0.900">
  <circle cx="162.8" cy="583.4" r="5.4"/>
  <circle cx="277.3" cy="579.8" r="5.4"/>
  <circle cx="391.8" cy="574.2" r="5.4"/>
  <circle cx="506.4" cy="571.2" r="5.4"/>
  <circle cx="620.9" cy="565.7" r="5.4"/>
  <circle cx="735.4" cy="557.7" r="5.4"/>
  <circle cx="849.9" cy="553.6" r="5.4"/>
</g>
<polyline class="pl" points="139.9,514.8 151.3,512.6 162.8,510.7 174.2,510.9 185.7,508.0 197.1,504.6 208.6,500.4 220.0,496.8 231.5,492.3 242.9,488.3 254.4,484.4 265.9,479.4 277.3,470.9 288.8,469.7 300.2,463.8 311.7,458.4 323.1,461.9 334.6,464.9 346.0,457.9 357.5,454.0 368.9,451.9 380.4,449.1 391.8,453.3 403.3,456.2 414.7,461.9 426.2,463.1 437.6,457.1 449.1,457.1 460.5,457.1 472.0,452.3 483.5,446.2 494.9,443.6 506.4,444.1 517.8,445.4 529.3,442.3 540.7,439.8 552.2,436.9 563.6,435.6 575.1,430.2 586.5,427.5 598.0,425.8 609.4,423.6 620.9,417.9 632.3,420.3 643.8,419.1 655.2,416.5 666.7,414.1 678.1,413.1 689.6,414.9 701.1,412.3 712.5,417.7 724.0,429.4 735.4,424.6 746.9,427.1 758.3,431.6 769.8,428.3 781.2,427.5 792.7,431.2 804.1,434.6 815.6,435.6 827.0,431.1 838.5,434.0 849.9,450.3 861.4,442.6" stroke="#DF65B0" stroke-width="5.40" stroke-opacity="1.00" fill="none" clip-path="url(#axis_clip)"/>
<g class="pl" fill="#FFF" stroke="#DF65B0" stroke-width="0.900">
  <circle cx="151.3" cy="512.6" r="2.2"/>
  <circle cx="174.2" cy="510.9" r="2.2"/>
  <circle cx="185.7" cy="508.0" r="2.2"/>
  <circle cx="197.1" cy="504.6" r="2.2"/>
  <circle cx="208.6" cy="500.4" r="2.2"/>
  <circle cx="220.0" cy="496.8" r="2.2"/>
  <circle cx="231.5" cy="492.3" r="2.2"/>
  <circle cx="242.9" cy="488.3" r="2.2"/>
  <circle cx="254.4" cy="484.4" r="2.2"/>
  <circle cx="265.9" cy="479.4" r="2.2"/>
  <circle cx="288.8" cy="469.7" r="2.2"/>
  <circle cx="300.2" cy="463.8" r="2.2"/>
  <circle cx="311.7" cy="458.4" r="2.2"/>
  <circle cx="323.1" cy="461.9" r="2.2"/>
  <circle cx="334.6" cy="464.9" r="2.2"/>
  <circle cx="346.0" cy="457.9" r="2.2"/>
  <circle cx="357.5" cy="454.0" r="2.2"/>
  <circle cx="368.9" cy="451.9" r="2.2"/>
  <circle cx="380.4" cy="449.1" r="2.2"/>
  <circle cx="403.3" cy="456.2" r="2.2"/>
  <circle cx="414.7" cy="461.9" r="2.2"/>
  <circle cx="426.2" cy="463.1" r="2.2"/>
  <circle cx="437.6" cy="457.1" r="2.2"/>
  <circle cx="449.1" cy="457.1" r="2.2"/>
  <circle cx="460.5" cy="457.1" r="2.2"/>
  <circle cx="472.0" cy="452.3" r="2.2"/>
  <circle cx="483.5" cy="446.2" r="2.2"/>
  <circle cx="494.9" cy="443.6" r="2.2"/>
  <circle cx="517.8" cy="445.4" r="2.2"/>
  <circle cx="529.3" cy="442.3" r="2.2"/>
  <circle cx="540.7" cy="439.8" r="2.2"/>
  <circle cx="552.2" cy="436.9" r="2.2"/>
  <circle cx="563.6" cy="435.6" r="2.2"/>
  <circle cx="575.1" cy="430.2" r="2.2"/>
  <circle cx="586.5" cy="427.5" r="2.2"/>
  <circle cx="598.0" cy="425.8" r="2.2"/>
  <circle cx="609.4" cy="423.6" r="2.2"/>
  <circle cx="632.3" cy="420.3" r="2.2"/>
  <circle cx="643.8" cy="419.1" r="2.2"/>
  <circle cx="655.2" cy="416.5" r="2.2"/>
  <circle cx="666.7" cy="414.1" r="2.2"/>
  <circle cx="678.1" cy="413.1" r="2.2"/>
  <circle cx="689.6" cy="414.9" r="2.2"/>
  <circle cx="701.1" cy="412.3" r="2.2"/>
  <circle cx="712.5" cy="417.7" r="2.2"/>
  <circle cx="724.0" cy="429.4" r="2.2"/>
  <circle cx="746.9" cy="427.1" r="2.2"/>
  <circle cx="758.3" cy="431.6" r="2.2"/>
  <circle cx="769.8" cy="428.3" r="2.2"/>
  <circle cx="781.2" cy="427.5" r="2.2"/>
  <circle cx="792.7" cy="431.2" r="2.2"/>
  <circle cx="804.1" cy="434.6" r="2.2"/>
  <circle cx="815.6" cy="435.6" r="2.2"/>
  <circle cx="827.0" cy="431.1" r="2.2"/>
  <circle cx="838.5" cy="434.0" r="2.2"/>
  <circle cx="861.4" cy="442.6" r="2.2"/>
</g>
<g class="pl" fill="#FFF" stroke="#DF65B0" stroke-width="0.900">
  <circle cx="162.8" cy="510.7" r="5.4"/>
  <circle cx="277.3" cy="470.9" r="5.4"/>
  <circle cx="391.8" cy="453.3" r="5.4"/>
  <circle cx="506.4" cy="444.1" r="5.4"/>
  <circle cx="620.9" cy="417.9" r="5.4"/>
  <circle cx="735.4" cy="424.6" r="5.4"/>
  <circle cx="849.9" cy="450.3" r="5.4"/>
</g>
<polyline class="pl" points="139.9,581.9 151.3,581.4 162.8,581.5 174.2,581.4 185.7,580.9 197.1,580.9 208.6,580.5 220.0,580.3 231.5,580.0 242.9,579.5 254.4,579.0 265.9,578.2 277.3,577.3 288.8,577.0 300.2,576.5 311.7,575.5 323.1,575.0 334.6,575.0 346.0,574.5 357.5,574.2 368.9,573.6 380.4,572.7 391.8,572.4 403.3,573.0 414.7,572.9 426.2,573.3 437.6,572.9 449.1,572.5 460.5,572.2 472.0,571.4 483.5,570.8 494.9,570.7 506.4,570.3 517.8,570.2 529.3,569.9 540.7,569.0 552.2,568.5 563.6,567.6 575.1,566.8 586.5,565.7 598.0,564.4 609.4,563.9 620.9,564.0 632.3,563.6 643.8,563.1 655.2,562.7 666.7,562.5 678.1,561.5 689.6,561.0 701.1,560.2 712.5,558.6 724.0,559.0 735.4,556.6 746.9,556.1 758.3,555.1 769.8,553.5 781.2,553.0 792.7,553.7 804.1,554.8 815.6,555.6 827.0,557.0 838.5,556.7 849.9,559.4 861.4,556.8" stroke="#F2D03A" stroke-width="5.40" stroke-opacity="1.00" fill="none" clip-path="url(#axis_clip)"/>
<g class="pl" fill="#FFF" stroke="#F2D03A" stroke-width="0.900">
  <circle cx="151.3" cy="581.4" r="2.2"/>
  <circle cx="174.2" cy="581.4" r="2.2"/>
  <circle cx="185.7" cy="580.9" r="2.2"/>
  <circle cx="197.1" cy="580.9" r="2.2"/>
  <circle cx="208.6" cy="580.5" r="2.2"/>
  <circle cx="220.0" cy="580.3" r="2.2"/>
  <circle cx="231.5" cy="580.0" r="2.2"/>
  <circle cx="242.9" cy="579.5" r="2.2"/>
  <circle cx="254.4" cy="579.0" r="2.2"/>
  <circle cx="265.9" cy="578.2" r="2.2"/>
  <circle cx="288.8" cy="577.0" r="2.2"/>
  <circle cx="300.2" cy="576.5" r="2.2"/>
  <circle cx="311.7" cy="575.5" r="2.2"/>
  <circle cx="323.1" cy="575.0" r="2.2"/>
  <circle cx="334.6" cy="575.0" r="2.2"/>
  <circle cx="346.0" cy="574.5" r="2.2"/>
  <circle cx="357.5" cy="574.2" r="2.2"/>
  <circle cx="368.9" cy="573.6" r="2.2"/>
  <circle cx="380.4" cy="572.7" r="2.2"/>
  <circle cx="403.3" cy="573.0" r="2.2"/>
  <circle cx="414.7" cy="572.9" r="2.2"/>
  <circle cx="426.2" cy="573.3" r="2.2"/>
  <circle cx="437.6" cy="572.9" r="2.2"/>
  <circle cx="449.1" cy="572.5" r="2.2"/>
  <circle cx="460.5" cy="572.2" r="2.2"/>
  <circle cx="472.0" cy="571.4" r="2.2"/>
  <circle cx="483.5" cy="570.8" r="2.2"/>
  <circle cx="494.9" cy="570.7" r="2.2"/>
  <circle cx="517.8" cy="570.2" r="2.2"/>
  <circle cx="529.3" cy="569.9" r="2.2"/>
  <circle cx="540.7" cy="569.0" r="2.2"/>
  <circle cx="552.2" cy="568.5" r="2.2"/>
  <circle cx="563.6" cy="567.6" r="2.2"/>
  <circle cx="575.1" cy="566.8" r="2.2"/>
  <circle cx="586.5" cy="565.7" r="2.2"/>
  <circle cx="598.0" cy="564.4" r="2.2"/>
  <circle cx="609.4" cy="563.9" r="2.2"/>
  <circle cx="632.3" cy="563.6" r="2.2"/>
  <circle cx="643.8" cy="563.1" r="2.2"/>
  <circle cx="655.2" cy="562.7" r="2.2"/>
  <circle cx="666.7" cy="562.5" r="2.2"/>
  <circle cx="678.1" cy="561.5" r="2.2"/>
  <circle cx="689.6" cy="561.0" r="2.2"/>
  <circle cx="701.1" cy="560.2" r="2.2"/>
  <circle cx="712.5" cy="558.6" r="2.2"/>
  <circle cx="724.0" cy="559.0" r="2.2"/>
  <circle cx="746.9" cy="556.1" r="2.2"/>
  <circle cx="758.3" cy="555.1" r="2.2"/>
  <circle cx="769.8" cy="553.5" r="2.2"/>
  <circle cx="781.2" cy="553.0" r="2.2"/>
  <circle cx="792.7" cy="553.7" r="2.2"/>
  <circle cx="804.1" cy="554.8" r="2.2"/>
  <circle cx="815.6" cy="555.6" r="2.2"/>
  <circle cx="827.0" cy="557.0" r="2.2"/>
  <circle cx="838.5" cy="556.7" r="2.2"/>
  <circle cx="861.4" cy="556.8" r="2.2"/>
</g>
<g class="pl" fill="#FFF" stroke="#F2D03A" stroke-width="0.900">
  <circle cx="162.8" cy="581.5" r="5.4"/>
  <circle cx="277.3" cy="577.3" r="5.4"/>
  <circle cx="391.8" cy="572.4" r="5.4"/>
  <circle cx="506.4" cy="570.3" r="5.4"/>
  <circle cx="620.9" cy="564.0" r="5.4"/>
  <circle cx="735.4" cy="556.6" r="5.4"/>
  <circle cx="849.9" cy="559.4" r="5.4"/>
</g>
<polyline class="pl" points="139.9,585.5 151.3,585.5 162.8,585.0 174.2,584.9 185.7,584.5 197.1,584.2 208.6,583.7 220.0,583.0 231.5,582.4 242.9,582.2 254.4,581.4 265.9,580.7 277.3,580.3 288.8,579.1 300.2,578.4 311.7,576.8 323.1,576.4 334.6,576.6 346.0,574.9 357.5,574.2 368.9,574.2 380.4,573.4 391.8,573.7 403.3,573.8 414.7,573.5 426.2,572.8 437.6,572.1 449.1,570.9 460.5,569.9 472.0,569.5 483.5,568.3 494.9,567.2 506.4,566.7 517.8,564.6 529.3,562.4 540.7,560.4 552.2,559.4 563.6,560.4 575.1,560.0 586.5,560.5 598.0,559.4 609.4,557.2 620.9,554.1 632.3,553.6 643.8,553.2 655.2,551.0 666.7,547.8 678.1,546.2 689.6,543.4 701.1,543.5 712.5,540.1 724.0,537.9 735.4,535.5 746.9,534.2 758.3,530.4 769.8,531.5 781.2,528.7 792.7,526.0 804.1,525.8 815.6,523.1 827.0,523.5 838.5,523.5 849.9,523.5 861.4,521.0" stroke="#DB4E15" stroke-width="5.40" stroke-opacity="1.00" fill="none" clip-path="url(#axis_clip)"/>
<g class="pl" fill="#FFF" stroke="#DB4E15" stroke-width="0.900">
  <circle cx="151.3" cy="585.5" r="2.2"/>
  <circle cx="174.2" cy="584.9" r="2.2"/>
  <circle cx="185.7" cy="584.5" r="2.2"/>
  <circle cx="197.1" cy="584.2" r="2.2"/>
  <circle cx="208.6" cy="583.7" r="2.2"/>
  <circle cx="220.0" cy="583.0" r="2.2"/>
  <circle cx="231.5" cy="582.4" r="2.2"/>
  <circle cx="242.9" cy="582.2" r="2.2"/>
  <circle cx="254.4" cy="581.4" r="2.2"/>
  <circle cx="265.9" cy="580.7" r="2.2"/>
  <circle cx="288.8" cy="579.1" r="2.2"/>
  <circle cx="300.2" cy="578.4" r="2.2"/>
  <circle cx="311.7" cy="576.8" r="2.2"/>
  <circle cx="323.1" cy="576.4" r="2.2"/>
  <circle cx="334.6" cy="576.6" r="2.2"/>
  <circle cx="346.0" cy="574.9" r="2.2"/>
  <circle cx="357.5" cy="574.2" r="2.2"/>
  <circle cx="368.9" cy="574.2" r="2.2"/>
  <circle cx="380.4" cy="573.4" r="2.2"/>
  <circle cx="403.3" cy="573.8" r="2.2"/>
  <circle cx="414.7" cy="573.5" r="2.2"/>
  <circle cx="426.2" cy="572.8" r="2.2"/>
  <circle cx="437.6" cy="572.1" r="2.2"/>
  <circle cx="449.1" cy="570.9" r="2.2"/>
  <circle cx="460.5" cy="569.9" r="2.2"/>
  <circle cx="472.0" cy="569.5" r="2.2"/>
  <circle cx="483.5" cy="568.3" r="2.2"/>
  <circle cx="494.9" cy="567.2" r="2.2"/>
  <circle cx="517.8" cy="564.6" r="2.2"/>
  <circle cx="529.3" cy="562.4" r="2.2"/>
  <circle cx="540.7" cy="560.4" r="2.2"/>
  <circle cx="552.2" cy="559.4" r="2.2"/>
  <circle cx="563.6" cy="560.4" r="2.2"/>
  <circle cx="575.1" cy="560.0" r="2.2"/>
  <circle cx="586.5" cy="560.5" r="2.2"/>
  <circle cx="598.0" cy="559.4" r="2.2"/>
  <circle cx="609.4" cy="557.2" r="2.2"/>
  <circle cx="632.3" cy="553.6" r="2.2"/>
  <circle cx="643.8" cy="553.2" r="2.2"/>
  <circle cx="655.2" cy="551.0" r="2.2"/>
  <circle cx="666.7" cy="547.8" r="2.2"/>
  <circle cx="678.1" cy="546.2" r="2.2"/>
  <circle cx="689.6" cy="543.4" r="2.2"/>
  <circle cx="701.1" cy="543.5" r="2.2"/>
  <circle cx="712.5" cy="540.1" r="2.2"/>
  <circle cx="724.0" cy="537.9" r="2.2"/>
  <circle cx="746.9" cy="534.2" r="2.2"/>
  <circle cx="758.3" cy="530.4" r="2.2"/>
  <circle cx="769.8" cy="531.5" r="2.2"/>
  <circle cx="781.2" cy="528.7" r="2.2"/>
  <circle cx="792.7" cy="526.0" r="2.2"/>
  <circle cx="804.1" cy="525.8" r="2.2"/>
  <circle cx="815.6" cy="523.1" r="2.2"/>
  <circle cx="827.0" cy="523.5" r="2.2"/>
  <circle cx="838.5" cy="523.5" r="2.2"/>
  <circle cx="861.4" cy="521.0" r="2.2"/>
</g>
<g class="pl" fill="#FFF" stroke="#DB4E15" stroke-width="0.900">
  <circle cx="162.8" cy="585.0" r="5.4"/>
  <circle cx="277.3" cy="580.3" r="5.4"/>
  <circle cx="391.8" cy="573.7" r="5.4"/>
  <circle cx="506.4" cy="566.7" r="5.4"/>
  <circle cx="620.9" cy="554.1" r="5.4"/>
  <circle cx="735.4" cy="535.5" r="5.4"/>
  <circle cx="849.9" cy="523.5" r="5.4"/>
</g>
<polyline class="pl" points="139.9,585.0 151.3,584.9 162.8,584.7 174.2,584.7 185.7,584.6 197.1,584.4 208.6,584.2 220.0,583.9 231.5,583.9 242.9,583.7 254.4,583.5 265.9,583.3 277.3,583.2 288.8,583.0 300.2,582.9 311.7,582.5 323.1,582.4 334.6,582.4 346.0,582.4 357.5,582.0 368.9,581.8 380.4,581.7 391.8,581.3 403.3,581.1 414.7,581.0 426.2,581.2 437.6,580.9 449.1,580.7 460.5,580.7 472.0,580.3 483.5,580.1 494.9,579.7 506.4,579.7 517.8,579.7 529.3,579.5 540.7,579.4 552.2,579.3 563.6,579.0 575.1,578.8 586.5,578.5 598.0,578.2 609.4,578.0 620.9,577.8 632.3,577.6 643.8,577.4 655.2,577.2 666.7,576.9 678.1,576.8 689.6,576.6 701.1,576.5 712.5,576.3 724.0,576.3 735.4,576.3 746.9,576.4 758.3,576.3 769.8,576.5 781.2,576.6 792.7,576.4 804.1,576.2 815.6,576.0 827.0,576.0 838.5,576.0 849.9,576.4 861.4,576.6" stroke="#933E1C" stroke-width="5.40" stroke-opacity="1.00" fill="none" clip-path="url(#axis_clip)"/>
<g class="pl" fill="#FFF" stroke="#933E1C" stroke-width="0.900">
  <circle cx="151.3" cy="584.9" r="2.2"/>
  <circle cx="174.2" cy="584.7" r="2.2"/>
  <circle cx="185.7" cy="584.6" r="2.2"/>
  <circle cx="197.1" cy="584.4" r="2.2"/>
  <circle cx="208.6" cy="584.2" r="2.2"/>
  <circle cx="220.0" cy="583.9" r="2.2"/>
  <circle cx="231.5" cy="583.9" r="2.2"/>
  <circle cx="242.9" cy="583.7" r="2.2"/>
  <circle cx="254.4" cy="583.5" r="2.2"/>
  <circle cx="265.9" cy="583.3" r="2.2"/>
  <circle cx="288.8" cy="583.0" r="2.2"/>
  <circle cx="300.2" cy="582.9" r="2.2"/>
  <circle cx="311.7" cy="582.5" r="2.2"/>
  <circle cx="323.1" cy="582.4" r="2.2"/>
  <circle cx="334.6" cy="582.4" r="2.2"/>
  <circle cx="346.0" cy="582.4" r="2.2"/>
  <circle cx="357.5" cy="582.0" r="2.2"/>
  <circle cx="368.9" cy="581.8" r="2.2"/>
  <circle cx="380.4" cy="581.7" r="2.2"/>
  <circle cx="403.3" cy="581.1" r="2.2"/>
  <circle cx="414.7" cy="581.0" r="2.2"/>
  <circle cx="426.2" cy="581.2" r="2.2"/>
  <circle cx="437.6" cy="580.9" r="2.2"/>
  <circle cx="449.1" cy="580.7" r="2.2"/>
  <circle cx="460.5" cy="580.7" r="2.2"/>
  <circle cx="472.0" cy="580.3" r="2.2"/>
  <circle cx="483.5" cy="580.1" r="2.2"/>
  <circle cx="494.9" cy="579.7" r="2.2"/>
  <circle cx="517.8" cy="579.7" r="2.2"/>
  <circle cx="529.3" cy="579.5" r="2.2"/>
  <circle cx="540.7" cy="579.4" r="2.2"/>
  <circle cx="552.2" cy="579.3" r="2.2"/>
  <circle cx="563.6" cy="579.0" r="2.2"/>
  <circle cx="575.1" cy="578.8" r="2.2"/>
  <circle cx="586.5" cy="578.5" r="2.2"/>
  <circle cx="598.0" cy="578.2" r="2.2"/>
  <circle cx="609.4" cy="578.0" r="2.2"/>
  <circle cx="632.3" cy="577.6" r="2.2"/>
  <circle cx="643.8" cy="577.4" r="2.2"/>
  <circle cx="655.2" cy="577.2" r="2.2"/>
  <circle cx="666.7" cy="576.9" r="2.2"/>
  <circle cx="678.1" cy="576.8" r="2.2"/>
  <circle cx="689.6" cy="576.6" r="2.2"/>
  <circle cx="701.1" cy="576.5" r="2.2"/>
  <circle cx="712.5" cy="576.3" r="2.2"/>
  <circle cx="724.0" cy="576.3" r="2.2"/>
  <circle cx="746.9" cy="576.4" r="2.2"/>
  <circle cx="758.3" cy="576.3" r="2.2"/>
  <circle cx="769.8" cy="576.5" r="2.2"/>
  <circle cx="781.2" cy="576.6" r="2.2"/>
  <circle cx="792.7" cy="576.4" r="2.2"/>
  <circle cx="804.1" cy="576.2" r="2.2"/>
  <circle cx="815.6" cy="576.0" r="2.2"/>
  <circle cx="827.0" cy="576.0" r="2.2"/>
  <circle cx="838.5" cy="576.0" r="2.2"/>
  <circle cx="861.4" cy="576.6" r="2.2"/>
</g>
<g class="pl" fill="#FFF" stroke="#933E1C" stroke-width="0.900">
  <circle cx="162.8" cy="584.7" r="5.4"/>
  <circle cx="277.3" cy="583.2" r="5.4"/>
  <circle cx="391.8" cy="581.3" r="5.4"/>
  <circle cx="506.4" cy="579.7" r="5.4"/>
  <circle cx="620.9" cy="577.8" r="5.4"/>
  <circle cx="735.4" cy="576.3" r="5.4"/>
  <circle cx="849.9" cy="576.4" r="5.4"/>
</g>
<text transform="translate(909.5,463.5)" dy="8.1" font-size="27.00" fill="#FD8D3C" stroke="none">Europe</text>
<text transform="translate(909.5,127.1)" dy="8.1" font-size="27.00" fill="#74C476" stroke="none">Asia</text>
<text transform="translate(909.5,535.3)" dy="8.1" font-size="27.00" fill="#6BAED6" stroke="none">Africa</text>
<text transform="translate(909.5,437.6)" dy="8.1" font-size="27.00" fill="#DF65B0" stroke="none">North America</text>
<text transform="translate(909.5,561.3)" dy="8.1" font-size="27.00" fill="#F2D03A" stroke="none">South America</text>
<text transform="translate(909.5,509.4)" dy="8.1" font-size="27.00" fill="#DB4E15" stroke="none">Middle East</text>
<text transform="translate(909.5,587.2)" dy="8.1" font-size="27.00" fill="#933E1C" stroke="none">Oceania</text>
<polyline class="pl" points="876.3,458.5 877.8,458.5 879.2,458.6 880.5,458.6 881.7,458.7 882.8,458.9 883.9,459.0 884.9,459.2 885.8,459.4 886.7,459.6 887.6,459.9 888.4,460.1 889.2,460.4 890.0,460.6 890.8,460.9 891.6,461.1 892.3,461.4 893.1,461.6 893.9,461.9 894.8,462.1 895.6,462.4 896.5,462.6 897.5,462.8 898.5,462.9 899.5,463.1 900.7,463.2 901.9,463.4 903.2,463.4 904.6,463.5 906.1,463.5" stroke="#FD8D3C" stroke-width="0.90" stroke-opacity="1.00" fill="none" />
<polyline class="pl" points="876.3,552.0 877.8,551.9 879.2,551.8 880.5,551.5 881.7,551.1 882.8,550.7 883.9,550.1 884.9,549.5 885.8,548.9 886.7,548.2 887.6,547.4 888.4,546.6 889.2,545.8 890.0,545.0 890.8,544.1 891.6,543.2 892.3,542.4 893.1,541.5 893.9,540.7 894.8,539.9 895.6,539.2 896.5,538.4 897.5,537.8 898.5,537.2 899.5,536.7 900.7,536.2 901.9,535.8 903.2,535.6 904.6,535.4 906.1,535.3" stroke="#6BAED6" stroke-width="0.90" stroke-opacity="1.00" fill="none" />
<polyline class="pl" points="876.3,442.6 877.8,442.6 879.2,442.5 880.5,442.5 881.7,442.3 882.8,442.2 883.9,442.1 884.9,441.9 885.8,441.7 886.7,441.5 887.6,441.2 888.4,441.0 889.2,440.7 890.0,440.5 890.8,440.2 891.6,440.0 892.3,439.7 893.1,439.5 893.9,439.2 894.8,439.0 895.6,438.7 896.5,438.5 897.5,438.3 898.5,438.1 899.5,438.0 900.7,437.8 901.9,437.7 903.2,437.7 904.6,437.6 906.1,437.6" stroke="#DF65B0" stroke-width="0.90" stroke-opacity="1.00" fill="none" />
<polyline class="pl" points="876.3,556.8 877.8,556.8 879.2,556.9 880.5,556.9 881.7,557.0 882.8,557.2 883.9,557.3 884.9,557.5 885.8,557.6 886.7,557.8 887.6,558.0 888.4,558.2 889.2,558.5 890.0,558.7 890.8,558.9 891.6,559.1 892.3,559.4 893.1,559.6 893.9,559.8 894.8,560.0 895.6,560.2 896.5,560.4 897.5,560.6 898.5,560.8 899.5,560.9 900.7,561.0 901.9,561.1 903.2,561.2 904.6,561.2 906.1,561.3" stroke="#F2D03A" stroke-width="0.90" stroke-opacity="1.00" fill="none" />
<polyline class="pl" points="876.3,521.0 877.8,521.0 879.2,520.9 880.5,520.7 881.7,520.4 882.8,520.1 883.9,519.8 884.9,519.3 885.8,518.9 886.7,518.4 887.6,517.9 888.4,517.3 889.2,516.7 890.0,516.1 890.8,515.5 891.6,514.9 892.3,514.3 893.1,513.7 893.9,513.2 894.8,512.6 895.6,512.1 896.5,511.6 897.5,511.1 898.5,510.7 899.5,510.3 900.7,510.0 901.9,509.8 903.2,509.6 904.6,509.5 906.1,509.4" stroke="#DB4E15" stroke-width="0.90" stroke-opacity="1.00" fill="none" />
<polyline class="pl" points="876.3,576.6 877.8,576.7 879.2,576.8 880.5,576.9 881.7,577.2 882.8,577.5 883.9,577.8 884.9,578.2 885.8,578.6 886.7,579.1 887.6,579.5 888.4,580.0 889.2,580.6 890.0,581.1 890.8,581.6 891.6,582.2 892.3,582.7 893.1,583.3 893.9,583.8 894.8,584.3 895.6,584.8 896.5,585.2 897.5,585.6 898.5,586.0 899.5,586.3 900.7,586.6 901.9,586.9 903.2,587.0 904.6,587.1 906.1,587.2" stroke="#933E1C" stroke-width="0.90" stroke-opacity="1.00" fill="none" />
<text transform="translate(145.6,47.2)" dy="0.0" font-size="27.00" fill="#808080" stroke="none">Annual Fossil CO<tspan dy="0.2em"><tspan style="font-size:70%">2</tspan></tspan><tspan dy="-0.2em"> </tspan>Emissions by Continent</text>
<text transform="translate(160.2,666.1)" font-size="19.80" fill="#BFBFBF" stroke="none" xml:space="preserve">Global Carbon Project</text>
<g>
  <rect x="123.0" y="651.4" width="34" height="17" fill="#FFF" stroke="none"/>
  <g transform="translate(124.0,652.4) scale(0.24)">
  <g><circle fill="#FFF" cx="37.79" cy="28.5" r="28.84"/>
     <circle fill="none" cx="37.79" cy="28.5" r="28.84" stroke="#BFBFBF" stroke-width="5.5"/>
     <path fill="#BFBFBF" d="M37.16,23.19 l-4.29,2.23c-0.458-0.951-1.02-1.62-1.69-2c-0.667-0.38-1.29-0.571-1.86-0.571c-2.86,0-4.29,1.89-4.29,5.66 c0,1.71,0.36,3.08,1.09,4.11c0.724,1.03,1.79,1.54,3.2,1.54c1.87,0,3.18-0.915,3.94-2.74l3.94,2 c-0.838,1.56-2,2.79-3.49,3.69c-1.48,0.896-3.12,1.34-4.91,1.34c-2.86,0-5.16-0.875-6.92-2.63 c-1.75-1.75-2.63-4.19-2.63-7.31c0-3.05,0.886-5.47,2.66-7.26c1.77-1.79,4.01-2.69,6.72-2.69 C32.6,18.56,35.44,20.1,37.16,23.19z
              M55.61,23.19l-4.23,2.23c-0.457-0.951-1.02-1.62-1.69-2 c-0.668-0.38-1.31-0.571-1.91-0.571c-2.86,0-4.29,1.89-4.29,5.66c0,1.71,0.363,3.08,1.09,4.11 c0.723,1.03,1.79,1.54,3.2,1.54c1.87,0,3.18-0.915,3.94-2.74l4,2c-0.875,1.56-2.06,2.79-3.54,3.69 c-1.49,0.9-3.11,1.34-4.86,1.34c-2.9,0-5.21-0.875-6.94-2.63c-1.74-1.75-2.6-4.19-2.6-7.31 c0-3.05,0.885-5.47,2.66-7.26c1.77-1.79,4.01-2.69,6.71-2.69C51.12,18.56,53.944,20.1,55.61,23.19z"/>
  </g></g>
  <g transform="translate(140.2,652.4) scale(0.24)">
  <g><circle fill="#FFF" cx="37.79" cy="28.5" r="28.84"/>
     <circle fill="none" cx="37.79" cy="28.5" r="28.84" stroke="#BFBFBF" stroke-width="5.5"/>
     <path fill="#BFBFBF" d="M46.129,20.557v13.085h-3.656v15.542h-9.944V33.643h-3.656V20.557 c0-0.572,0.2-1.057,0.599-1.457c0.401-0.399,0.887-0.6,1.457-0.6h13.144c0.533,0,1.01,0.2,1.428,0.6 C45.918,19.5,46.129,19.986,46.129,20.557z
              M33.042,12.329c0-3.008,1.485-4.514,4.458-4.514s4.457,1.504,4.457,4.514 c0,2.971-1.486,4.457-4.457,4.457S33.042,15.3,33.042,12.329z"/>
  </g></g>
</g>
</g>
</svg>
