<svg version="1.1" xmlns="http://www.w3.org/2000/svg" xmlns:xlink="http://www.w3.org/1999/xlink" width="100%" height="100%" viewBox="0 0 1200.000 674.916">
<title>Global Annual Fossil CO2 Emissions, 2000-25</title>
<style type="text/css">
  #main {font-family:Helvetica,Arial,sans-serif; font-size:27.00px;
         fill-opacity:1; fill:#000000; stroke:none; stroke-linejoin:round; stroke-linecap:round; stroke-width:1.00;}
  .marker {stroke-opacity:0;fill-opacity:0;}
  .marker:hover {stroke-opacity:0.5; fill-opacity:1;}
  .ticklabel {font-size:27.00px;fill:#808080;stroke:none;font-family:Helvetica}
  .ytl {text-anchor:end;}
  .dp1 {pointer-events:none;font-size:70%;text-anchor:middle;fill:#000000;}
  .dp2 {pointer-events:none;font-size:70%;text-anchor:middle;fill:#FFFFFF;}
  .numtip {pointer-events:none;}
  .cc {opacity:0.25;}
.dl_fe {background-color:#FDFFDF;display:flex;margin:auto;align-items:center}
.dl_fe_p {font-size:20px;text-align:center;margin:3px}
.dl_el {display:none;pointer-events:none;}
.cc:hover + .dl_el {display:block;}
text:hover + .dl_el {display:block;}
</style>
<defs>
  <clipPath id="axis_clip"><rect x="145.8" y="54.2" width="761.2" height="532.8" /></clipPath>
  <path id="line_x" d="M 145.600,0 h 761.600" stroke="#262626" stroke-opacity="0.15" stroke-width="1.00"/>
  <path id="tick_y" d="M 145.600,0 h -6.000" stroke="#808080" stroke-width="0.90"/>
  <path id="tick_x" d="M 0,587.177 v 6.000" stroke="#808080" stroke-width="0.90"/>
</defs>
<g id="main">
<use xlink:href="#line_x" transform="translate(0,587.2)"/>
<use xlink:href="#line_x" transform="translate(0,468.7)"/>
<use xlink:href="#line_x" transform="translate(0,350.2)"/>
<use xlink:href="#line_x" transform="translate(0,231.7)"/>
<use xlink:href="#line_x" transform="translate(0,113.2)"/>
<use xlink:href="#tick_y" transform="translate(0,587.2)"/>
<use xlink:href="#tick_y" transform="translate(0,468.7)"/>
<use xlink:href="#tick_y" transform="translate(0,350.2)"/>
<use xlink:href="#tick_y" transform="translate(0,231.7)"/>
<use xlink:href="#tick_y" transform="translate(0,113.2)"/>
<use xlink:href="#tick_x" transform="translate(209.1,0)"/>
<use xlink:href="#tick_x" transform="translate(336.0,0)"/>
<use xlink:href="#tick_x" transform="translate(462.9,0)"/>
<use xlink:href="#tick_x" transform="translate(589.9,0)"/>
<use xlink:href="#tick_x" transform="translate(716.8,0)"/>
<polyline points="145.6,53.993 145.6,587.177 907.2,587.177" stroke="#808080" stroke-width="0.90" fill="none"/>
<text class="ticklabel ytl" transform="translate(128.8,595.3)">0</text>
<text class="ticklabel ytl" transform="translate(128.8,476.8)">4</text>
<text class="ticklabel ytl" transform="translate(128.8,358.3)">8</text>
<text class="ticklabel ytl" transform="translate(128.8,239.8)">12</text>
<text class="ticklabel ytl" transform="translate(128.8,121.3)">16 Gt</text>
<g stroke="#262626" stroke-width="0.9000"  clip-path="url(#axis_clip)">
  <polygon points="158.3,587.2 158.3,315.9 162.2,315.9 162.2,587.2" fill="#FFEFE6"/>
  <polygon points="285.2,587.2 285.2,284.7 289.1,284.7 289.1,587.2" fill="#EEE"/>
  <polygon points="412.2,587.2 412.2,447.1 416.1,447.1 416.1,587.2" fill="#E6F3FF"/>
  <polygon points="539.1,587.2 539.1,565.9 543.0,565.9 543.0,587.2" fill="#EEE"/>
  <polygon points="666.0,587.2 666.0,576.9 669.9,576.9 669.9,587.2" fill="#FFEAE6"/>
</g>
<g stroke="#262626" stroke-width="0.9000"  clip-path="url(#axis_clip)">
  <polygon points="162.2,587.2 162.2,314.4 166.1,314.4 166.1,587.2" fill="#FAE8DD"/>
  <polygon points="289.1,587.2 289.1,282.6 293.0,282.6 293.0,587.2" fill="#E8E8E8"/>
  <polygon points="416.1,587.2 416.1,445.8 420.0,445.8 420.0,587.2" fill="#DFEFFD"/>
  <polygon points="543.0,587.2 543.0,564.9 546.9,564.9 546.9,587.2" fill="#E9E9E9"/>
  <polygon points="669.9,587.2 669.9,577.3 673.8,577.3 673.8,587.2" fill="#FFE5DF"/>
</g>
<g stroke="#262626" stroke-width="0.9000"  clip-path="url(#axis_clip)">
  <polygon points="166.1,587.2 166.1,301.9 170.0,301.9 170.0,587.2" fill="#F4E0D4"/>
  <polygon points="293.0,587.2 293.0,283.0 296.9,283.0 296.9,587.2" fill="#E1E1E1"/>
  <polygon points="420.0,587.2 420.0,441.6 423.9,441.6 423.9,587.2" fill="#D9EBFA"/>
  <polygon points="546.9,587.2 546.9,564.1 550.8,564.1 550.8,587.2" fill="#E4E4E4"/>
  <polygon points="673.8,587.2 673.8,577.6 677.7,577.6 677.7,587.2" fill="#FFE0D8"/>
</g>
<g stroke="#262626" stroke-width="0.9000"  clip-path="url(#axis_clip)">
  <polygon points="170.0,587.2 170.0,277.1 173.9,277.1 173.9,587.2" fill="#EFD9CC"/>
  <polygon points="296.9,587.2 296.9,274.9 300.8,274.9 300.8,587.2" fill="#DADADA"/>
  <polygon points="423.9,587.2 423.9,436.2 427.8,436.2 427.8,587.2" fill="#D3E7F8"/>
  <polygon points="550.8,587.2 550.8,561.8 554.7,561.8 554.7,587.2" fill="#DFDFDF"/>
  <polygon points="677.7,587.2 677.7,577.0 681.6,577.0 681.6,587.2" fill="#FFDAD1"/>
</g>
<g stroke="#262626" stroke-width="0.9000"  clip-path="url(#axis_clip)">
  <polygon points="173.9,587.2 173.9,266.9 177.8,266.9 177.8,587.2" fill="#EAD2C4"/>
  <polygon points="300.8,587.2 300.8,263.6 304.8,263.6 304.8,587.2" fill="#D4D4D4"/>
  <polygon points="427.8,587.2 427.8,431.4 431.7,431.4 431.7,587.2" fill="#CDE3F6"/>
  <polygon points="554.7,587.2 554.7,560.6 558.6,560.6 558.6,587.2" fill="#DADADA"/>
  <polygon points="681.6,587.2 681.6,577.1 685.6,577.1 685.6,587.2" fill="#FFD5CB"/>
</g>
<g stroke="#262626" stroke-width="0.9000"  clip-path="url(#axis_clip)">
  <polygon points="177.8,587.2 177.8,246.6 181.7,246.6 181.7,587.2" fill="#E5CBBC"/>
  <polygon points="304.8,587.2 304.8,260.4 308.7,260.4 308.7,587.2" fill="#CDCDCD"/>
  <polygon points="431.7,587.2 431.7,427.9 435.6,427.9 435.6,587.2" fill="#C8DFF4"/>
  <polygon points="558.6,587.2 558.6,558.5 562.5,558.5 562.5,587.2" fill="#D4D4D4"/>
  <polygon points="685.6,587.2 685.6,576.9 689.5,576.9 689.5,587.2" fill="#FFCFC4"/>
</g>
<g stroke="#262626" stroke-width="0.9000"  clip-path="url(#axis_clip)">
  <polygon points="181.7,587.2 181.7,227.7 185.6,227.7 185.6,587.2" fill="#DFC4B4"/>
  <polygon points="308.7,587.2 308.7,257.1 312.6,257.1 312.6,587.2" fill="#C7C7C7"/>
  <polygon points="435.6,587.2 435.6,423.3 439.5,423.3 439.5,587.2" fill="#C2DBF1"/>
  <polygon points="562.5,587.2 562.5,556.2 566.4,556.2 566.4,587.2" fill="#CFCFCF"/>
  <polygon points="689.5,587.2 689.5,576.9 693.4,576.9 693.4,587.2" fill="#FFCABD"/>
</g>
<g stroke="#262626" stroke-width="0.9000"  clip-path="url(#axis_clip)">
  <polygon points="185.6,587.2 185.6,210.3 189.5,210.3 189.5,587.2" fill="#DABDAC"/>
  <polygon points="312.6,587.2 312.6,255.9 316.5,255.9 316.5,587.2" fill="#C0C0C0"/>
  <polygon points="439.5,587.2 439.5,417.2 443.4,417.2 443.4,587.2" fill="#BCD8EF"/>
  <polygon points="566.4,587.2 566.4,553.8 570.3,553.8 570.3,587.2" fill="#CACACA"/>
  <polygon points="693.4,587.2 693.4,577.0 697.3,577.0 697.3,587.2" fill="#FFC5B6"/>
</g>
<g stroke="#262626" stroke-width="0.9000"  clip-path="url(#axis_clip)">
  <polygon points="189.5,587.2 189.5,197.7 193.4,197.7 193.4,587.2" fill="#D5B7A5"/>
  <polygon points="316.5,587.2 316.5,257.1 320.4,257.1 320.4,587.2" fill="#B9B9B9"/>
  <polygon points="443.4,587.2 443.4,412.2 447.3,412.2 447.3,587.2" fill="#B6D4ED"/>
  <polygon points="570.3,587.2 570.3,553.5 574.2,553.5 574.2,587.2" fill="#C5C5C5"/>
  <polygon points="697.3,587.2 697.3,577.3 701.2,577.3 701.2,587.2" fill="#FFBFB0"/>
</g>
<g stroke="#262626" stroke-width="0.9000"  clip-path="url(#axis_clip)">
  <polygon points="193.4,587.2 193.4,202.0 197.3,202.0 197.3,587.2" fill="#CFB09D"/>
  <polygon points="320.4,587.2 320.4,264.3 324.3,264.3 324.3,587.2" fill="#B2B2B2"/>
  <polygon points="447.3,587.2 447.3,416.4 451.2,416.4 451.2,587.2" fill="#B1D0EA"/>
  <polygon points="574.2,587.2 574.2,552.5 578.1,552.5 578.1,587.2" fill="#BFBFBF"/>
  <polygon points="701.2,587.2 701.2,577.4 705.1,577.4 705.1,587.2" fill="#FFBAA9"/>
</g>
<g stroke="#262626" stroke-width="0.9000"  clip-path="url(#axis_clip)">
  <polygon points="197.3,587.2 197.3,174.9 201.3,174.9 201.3,587.2" fill="#CAAA96"/>
  <polygon points="324.3,587.2 324.3,253.8 328.2,253.8 328.2,587.2" fill="#ABABAB"/>
  <polygon points="451.2,587.2 451.2,403.4 455.1,403.4 455.1,587.2" fill="#ABCCE8"/>
  <polygon points="578.1,587.2 578.1,550.1 582.1,550.1 582.1,587.2" fill="#BABABA"/>
  <polygon points="705.1,587.2 705.1,577.1 709.0,577.1 709.0,587.2" fill="#FFB4A2"/>
</g>
<g stroke="#262626" stroke-width="0.9000"  clip-path="url(#axis_clip)">
  <polygon points="201.3,587.2 201.3,151.6 205.2,151.6 205.2,587.2" fill="#C5A38F"/>
  <polygon points="328.2,587.2 328.2,252.2 332.1,252.2 332.1,587.2" fill="#A5A5A5"/>
  <polygon points="455.1,587.2 455.1,397.9 459.0,397.9 459.0,587.2" fill="#A6C8E6"/>
  <polygon points="582.1,587.2 582.1,547.3 586.0,547.3 586.0,587.2" fill="#B5B5B5"/>
  <polygon points="709.0,587.2 709.0,576.6 712.9,576.6 712.9,587.2" fill="#FFAF9B"/>
</g>
<g stroke="#262626" stroke-width="0.9000"  clip-path="url(#axis_clip)">
  <polygon points="205.2,587.2 205.2,146.8 209.1,146.8 209.1,587.2" fill="#C09D88"/>
  <polygon points="332.1,587.2 332.1,248.5 336.0,248.5 336.0,587.2" fill="#9E9E9E"/>
  <polygon points="459.0,587.2 459.0,394.0 462.9,394.0 462.9,587.2" fill="#A1C5E4"/>
  <polygon points="586.0,587.2 586.0,546.4 589.9,546.4 589.9,587.2" fill="#AFAFAF"/>
  <polygon points="712.9,587.2 712.9,576.1 716.8,576.1 716.8,587.2" fill="#FFA995"/>
</g>
<g stroke="#262626" stroke-width="0.9000"  clip-path="url(#axis_clip)">
  <polygon points="209.1,587.2 209.1,144.2 213.0,144.2 213.0,587.2" fill="#BA9781"/>
  <polygon points="336.0,587.2 336.0,246.0 339.9,246.0 339.9,587.2" fill="#979797"/>
  <polygon points="462.9,587.2 462.9,392.5 466.8,392.5 466.8,587.2" fill="#9BC1E1"/>
  <polygon points="589.9,587.2 589.9,544.5 593.8,544.5 593.8,587.2" fill="#AAA"/>
  <polygon points="716.8,587.2 716.8,575.9 720.7,575.9 720.7,587.2" fill="#FFA48E"/>
</g>
<g stroke="#262626" stroke-width="0.9000"  clip-path="url(#axis_clip)">
  <polygon points="213.0,587.2 213.0,142.4 216.9,142.4 216.9,587.2" fill="#B5917B"/>
  <polygon points="339.9,587.2 339.9,244.7 343.8,244.7 343.8,587.2" fill="#909090"/>
  <polygon points="466.8,587.2 466.8,391.5 470.7,391.5 470.7,587.2" fill="#96BEDF"/>
  <polygon points="593.8,587.2 593.8,543.0 597.7,543.0 597.7,587.2" fill="#A4A4A4"/>
  <polygon points="720.7,587.2 720.7,575.8 724.6,575.8 724.6,587.2" fill="#FF9F87"/>
</g>
<g stroke="#262626" stroke-width="0.9000"  clip-path="url(#axis_clip)">
  <polygon points="216.9,587.2 216.9,153.1 220.8,153.1 220.8,587.2" fill="#B08B74"/>
  <polygon points="343.8,587.2 343.8,238.5 347.7,238.5 347.7,587.2" fill="#898989"/>
  <polygon points="470.7,587.2 470.7,387.9 474.7,387.9 474.7,587.2" fill="#91BADD"/>
  <polygon points="597.7,587.2 597.7,544.5 601.6,544.5 601.6,587.2" fill="#9F9F9F"/>
  <polygon points="724.6,587.2 724.6,575.9 728.5,575.9 728.5,587.2" fill="#FF9980"/>
</g>
<g stroke="#262626" stroke-width="0.9000"  clip-path="url(#axis_clip)">
  <polygon points="220.8,587.2 220.8,162.9 224.7,162.9 224.7,587.2" fill="#AB856E"/>
  <polygon points="347.7,587.2 347.7,234.7 351.6,234.7 351.6,587.2" fill="#828282"/>
  <polygon points="474.7,587.2 474.7,382.3 478.6,382.3 478.6,587.2" fill="#8CB6DB"/>
  <polygon points="601.6,587.2 601.6,543.5 605.5,543.5 605.5,587.2" fill="#999"/>
  <polygon points="728.5,587.2 728.5,576.2 732.4,576.2 732.4,587.2" fill="#FF947A"/>
</g>
<g stroke="#262626" stroke-width="0.9000"  clip-path="url(#axis_clip)">
  <polygon points="224.7,587.2 224.7,157.8 228.6,157.8 228.6,587.2" fill="#A57F68"/>
  <polygon points="351.6,587.2 351.6,229.2 355.5,229.2 355.5,587.2" fill="#7A7A7A"/>
  <polygon points="478.6,587.2 478.6,377.3 482.5,377.3 482.5,587.2" fill="#87B3D8"/>
  <polygon points="605.5,587.2 605.5,542.7 609.4,542.7 609.4,587.2" fill="#949494"/>
  <polygon points="732.4,587.2 732.4,575.8 736.3,575.8 736.3,587.2" fill="#FF8E73"/>
</g>
<g stroke="#262626" stroke-width="0.9000"  clip-path="url(#axis_clip)">
  <polygon points="228.6,587.2 228.6,149.9 232.5,149.9 232.5,587.2" fill="#A07A62"/>
  <polygon points="355.5,587.2 355.5,227.5 359.4,227.5 359.4,587.2" fill="#737373"/>
  <polygon points="482.5,587.2 482.5,367.4 486.4,367.4 486.4,587.2" fill="#82AFD6"/>
  <polygon points="609.4,587.2 609.4,541.4 613.3,541.4 613.3,587.2" fill="#8E8E8E"/>
  <polygon points="736.3,587.2 736.3,575.2 740.2,575.2 740.2,587.2" fill="#FF896C"/>
</g>
<g stroke="#262626" stroke-width="0.9000"  clip-path="url(#axis_clip)">
  <polygon points="232.5,587.2 232.5,151.7 236.4,151.7 236.4,587.2" fill="#9B745D"/>
  <polygon points="359.4,587.2 359.4,222.1 363.3,222.1 363.3,587.2" fill="#6C6C6C"/>
  <polygon points="486.4,587.2 486.4,362.8 490.3,362.8 490.3,587.2" fill="#7DACD4"/>
  <polygon points="613.3,587.2 613.3,539.3 617.2,539.3 617.2,587.2" fill="#898989"/>
  <polygon points="740.2,587.2 740.2,574.4 744.1,574.4 744.1,587.2" fill="#FF8465"/>
</g>
<g stroke="#262626" stroke-width="0.9000"  clip-path="url(#axis_clip)">
  <polygon points="236.4,587.2 236.4,164.6 240.3,164.6 240.3,587.2" fill="#956F57"/>
  <polygon points="363.3,587.2 363.3,263.3 367.2,263.3 367.2,587.2" fill="#656565"/>
  <polygon points="490.3,587.2 490.3,364.4 494.2,364.4 494.2,587.2" fill="#79A9D1"/>
  <polygon points="617.2,587.2 617.2,539.1 621.1,539.1 621.1,587.2" fill="#838383"/>
  <polygon points="744.1,587.2 744.1,575.3 748.0,575.3 748.0,587.2" fill="#FF7E5F"/>
</g>
<g stroke="#262626" stroke-width="0.9000"  clip-path="url(#axis_clip)">
  <polygon points="240.3,587.2 240.3,143.8 244.2,143.8 244.2,587.2" fill="#906952"/>
  <polygon points="367.2,587.2 367.2,246.1 371.2,246.1 371.2,587.2" fill="#5E5E5E"/>
  <polygon points="494.2,587.2 494.2,353.8 498.1,353.8 498.1,587.2" fill="#74A5CF"/>
  <polygon points="621.1,587.2 621.1,537.8 625.0,537.8 625.0,587.2" fill="#7D7D7D"/>
  <polygon points="748.0,587.2 748.0,575.3 752.0,575.3 752.0,587.2" fill="#FF7958"/>
</g>
<g stroke="#262626" stroke-width="0.9000"  clip-path="url(#axis_clip)">
  <polygon points="244.2,587.2 244.2,129.6 248.1,129.6 248.1,587.2" fill="#8B644D"/>
  <polygon points="371.2,587.2 371.2,234.2 375.1,234.2 375.1,587.2" fill="#565656"/>
  <polygon points="498.1,587.2 498.1,357.4 502.0,357.4 502.0,587.2" fill="#6FA2CD"/>
  <polygon points="625.0,587.2 625.0,540.4 628.9,540.4 628.9,587.2" fill="#777"/>
  <polygon points="752.0,587.2 752.0,575.4 755.9,575.4 755.9,587.2" fill="#FF7351"/>
</g>
<g stroke="#262626" stroke-width="0.9000"  clip-path="url(#axis_clip)">
  <polygon points="248.1,587.2 248.1,124.0 252.0,124.0 252.0,587.2" fill="#865F48"/>
  <polygon points="375.1,587.2 375.1,223.5 379.0,223.5 379.0,587.2" fill="#4F4F4F"/>
  <polygon points="502.0,587.2 502.0,356.0 505.9,356.0 505.9,587.2" fill="#6B9FCB"/>
  <polygon points="628.9,587.2 628.9,541.6 632.8,541.6 632.8,587.2" fill="#727272"/>
  <polygon points="755.9,587.2 755.9,575.0 759.8,575.0 759.8,587.2" fill="#FF6E4A"/>
</g>
<g stroke="#262626" stroke-width="0.9000"  clip-path="url(#axis_clip)">
  <polygon points="252.0,587.2 252.0,119.0 255.9,119.0 255.9,587.2" fill="#805A43"/>
  <polygon points="379.0,587.2 379.0,217.8 382.9,217.8 382.9,587.2" fill="#474747"/>
  <polygon points="505.9,587.2 505.9,349.9 509.8,349.9 509.8,587.2" fill="#669BC8"/>
  <polygon points="632.8,587.2 632.8,543.5 636.7,543.5 636.7,587.2" fill="#6C6C6C"/>
  <polygon points="759.8,587.2 759.8,574.9 763.7,574.9 763.7,587.2" fill="#FF6844"/>
</g>
<g stroke="#262626" stroke-width="0.9000"  clip-path="url(#axis_clip)">
  <polygon points="255.9,587.2 255.9,116.2 259.8,116.2 259.8,587.2" fill="#7B553E"/>
  <polygon points="382.9,587.2 382.9,215.0 386.8,215.0 386.8,587.2" fill="#404040"/>
  <polygon points="509.8,587.2 509.8,347.4 513.7,347.4 513.7,587.2" fill="#6298C6"/>
  <polygon points="636.7,587.2 636.7,543.3 640.6,543.3 640.6,587.2" fill="#666"/>
  <polygon points="763.7,587.2 763.7,574.7 767.6,574.7 767.6,587.2" fill="#FF633D"/>
</g>
<text transform="translate(209.1,600.7)" dy="21.6" font-size="21.60" fill="#808080" stroke="none" text-anchor="middle">Coal</text>
<text transform="translate(336.0,600.7)" dy="21.6" font-size="21.60" fill="#808080" stroke="none" text-anchor="middle">Oil</text>
<text transform="translate(462.9,600.7)" dy="21.6" font-size="21.60" fill="#808080" stroke="none" text-anchor="middle">Gas</text>
<text transform="translate(589.9,600.7)" dy="21.6" font-size="21.60" fill="#808080" stroke="none" text-anchor="middle">Cement</text>
<text transform="translate(716.8,600.7)" dy="21.6" font-size="21.60" fill="#808080" stroke="none" text-anchor="middle">Flaring</text>
<polyline class="pl" points="236.4,109.4 236.4,102.7 259.8,102.7 259.8,109.4" stroke="#808080" stroke-width="0.90" fill="none" clip-path="url(#axis_clip)"/>
<text transform="translate(259.8,92.5)" dy="0.0" font-size="21.60" fill="#808080" stroke="none" text-anchor="end">+2.1%/yr</text>
<polyline class="pl" points="363.3,208.2 363.3,201.5 386.8,201.5 386.8,208.2" stroke="#808080" stroke-width="0.90" fill="none" clip-path="url(#axis_clip)"/>
<text transform="translate(386.8,191.4)" dy="0.0" font-size="21.60" fill="#808080" stroke="none" text-anchor="end">+2.8%/yr</text>
<polyline class="pl" points="490.3,340.7 490.3,333.9 513.7,333.9 513.7,340.7" stroke="#808080" stroke-width="0.90" fill="none" clip-path="url(#axis_clip)"/>
<text transform="translate(513.7,323.8)" dy="0.0" font-size="21.60" fill="#808080" stroke="none" text-anchor="end">+1.2%/yr</text>
<polyline class="pl" points="617.2,531.1 617.2,524.3 640.6,524.3 640.6,531.1" stroke="#808080" stroke-width="0.90" fill="none" clip-path="url(#axis_clip)"/>
<text transform="translate(640.6,514.2)" dy="0.0" font-size="21.60" fill="#808080" stroke="none" text-anchor="end">-2.4%/yr</text>
<polyline class="pl" points="744.1,567.6 744.1,560.9 767.6,560.9 767.6,567.6" stroke="#808080" stroke-width="0.90" fill="none" clip-path="url(#axis_clip)"/>
<text transform="translate(767.6,550.7)" dy="0.0" font-size="21.60" fill="#808080" stroke="none" text-anchor="end">+1.1%/yr</text>
<text transform="translate(145.6,47.2)" dy="0.0" font-size="27.00" fill="#808080" stroke="none">Global Annual Fossil CO<tspan dy="0.2em"><tspan style="font-size:70%">2</tspan></tspan><tspan dy="-0.2em"> </tspan>Emissions, 2000-25</text>
<text transform="translate(130.0,140.9)" dy="8.1" font-size="27.00" fill="#808080" stroke="none" text-anchor="end">CO<tspan dy="0.2em"><tspan style="font-size:70%">2</tspan></tspan><tspan dy="-0.2em"></tspan></text>
<text transform="translate(145.6,54.0)" dy="18.0" font-size="18.00" fill="#808080" stroke="none" xml:space="preserve"> Annual growth rates from 2020-2025.</text>
<text transform="translate(447.7,54.0)" dy="18.0" font-size="18.00" fill="#808080" stroke="none" xml:space="preserve"> Includes projection for 2025.</text>
<text transform="translate(161.9,666.1)" font-size="19.80" font-family="Helvetica" fill="#BFBFBF" stroke="none" xml:space="preserve">Global Carbon Project</text>
<g>
  <rect x="123.0" y="651.4" width="34" height="17" fill="#FFF" stroke="none" opacity="0.01"/>
  <g transform="translate(124.0,652.4) scale(0.24)">
  <g><circle fill="#FFF" cx="37.79" cy="28.5" r="28.84"/>
     <circle fill="none" cx="37.79" cy="28.5" r="28.84" stroke="#BFBFBF" stroke-width="5.5"/>
     <path fill="#BFBFBF" d="M37.16,23.19 l-4.29,2.23c-0.458-0.951-1.02-1.62-1.69-2c-0.667-0.38-1.29-0.571-1.86-0.571c-2.86,0-4.29,1.89-4.29,5.66 c0,1.71,0.36,3.08,1.09,4.11c0.724,1.03,1.79,1.54,3.2,1.54c1.87,0,3.18-0.915,3.94-2.74l3.94,2 c-0.838,1.56-2,2.79-3.49,3.69c-1.48,0.896-3.12,1.34-4.91,1.34c-2.86,0-5.16-0.875-6.92-2.63 c-1.75-1.75-2.63-4.19-2.63-7.31c0-3.05,0.886-5.47,2.66-7.26c1.77-1.79,4.01-2.69,6.72-2.69 C32.6,18.56,35.44,20.1,37.16,23.19z
              M55.61,23.19l-4.23,2.23c-0.457-0.951-1.02-1.62-1.69-2 c-0.668-0.38-1.31-0.571-1.91-0.571c-2.86,0-4.29,1.89-4.29,5.66c0,1.71,0.363,3.08,1.09,4.11 c0.723,1.03,1.79,1.54,3.2,1.54c1.87,0,3.18-0.915,3.94-2.74l4,2c-0.875,1.56-2.06,2.79-3.54,3.69 c-1.49,0.9-3.11,1.34-4.86,1.34c-2.9,0-5.21-0.875-6.94-2.63c-1.74-1.75-2.6-4.19-2.6-7.31 c0-3.05,0.885-5.47,2.66-7.26c1.77-1.79,4.01-2.69,6.71-2.69C51.12,18.56,53.944,20.1,55.61,23.19z"/>
  </g></g>
  <g transform="translate(140.2,652.4) scale(0.24)">
  <g><circle fill="#FFF" cx="37.79" cy="28.5" r="28.84"/>
     <circle fill="none" cx="37.79" cy="28.5" r="28.84" stroke="#BFBFBF" stroke-width="5.5"/>
     <path fill="#BFBFBF" d="M46.129,20.557v13.085h-3.656v15.542h-9.944V33.643h-3.656V20.557 c0-0.572,0.2-1.057,0.599-1.457c0.401-0.399,0.887-0.6,1.457-0.6h13.144c0.533,0,1.01,0.2,1.428,0.6 C45.918,19.5,46.129,19.986,46.129,20.557z
              M33.042,12.329c0-3.008,1.485-4.514,4.458-4.514s4.457,1.504,4.457,4.514 c0,2.971-1.486,4.457-4.457,4.457S33.042,15.3,33.042,12.329z"/>
  </g></g>
</g>
</g>
</svg>
