<svg version="1.1" xmlns="http://www.w3.org/2000/svg" xmlns:xlink="http://www.w3.org/1999/xlink" width="100%" height="100%" viewBox="0 0 1200.000 674.916">
<title>Weekly atmospheric CO2 at Mauna Loa</title>
<style type="text/css">
  #main {font-family:Helvetica,Arial,sans-serif; font-size:25.20px;
         fill-opacity:1; fill:#000000; stroke:none; stroke-linejoin:round; stroke-linecap:round; stroke-width:1.00;}
  .marker {stroke-opacity:0;fill-opacity:0;}
  .marker:hover {stroke-opacity:0.5; fill-opacity:1;}
  .ticklabel {font-size:25.20px;fill:#262626;stroke:none;font-family:Helvetica}
  .ytl {}
  .dp1 {pointer-events:none;font-size:70%;text-anchor:middle;fill:#000000;}
  .dp2 {pointer-events:none;font-size:70%;text-anchor:middle;fill:#FFFFFF;}
  .numtip {pointer-events:none;}
  .cc {opacity:0.25;}
.dl_fe {background-color:#FDFFDF;display:flex;margin:auto;align-items:center}
.dl_fe_p {font-size:20px;text-align:center;margin:3px}
.dl_el {display:none;pointer-events:none;}
.cc:hover + .dl_el {display:block;}
text:hover + .dl_el {display:block;}
</style>
<defs>
  <clipPath id="axis_clip"><rect x="156.2" y="50.8" width="929.6" height="549.7" /></clipPath>
  <path id="tick_y" d="M 156.000,0 h 6.000" stroke="#262626" stroke-width="0.90"/>
  <path id="tick_x" d="M 0,600.675 v -6.000" stroke="#262626" stroke-width="0.90"/>
</defs>
<g id="main">
<text class="ticklabel ytl" transform="translate(1102.8,557.1)">400</text>
<text class="ticklabel ytl" transform="translate(1102.8,493.1)">405</text>
<text class="ticklabel ytl" transform="translate(1102.8,429.1)">410</text>
<text class="ticklabel ytl" transform="translate(1102.8,365.2)">415</text>
<text class="ticklabel ytl" transform="translate(1102.8,301.2)">420</text>
<text class="ticklabel ytl" transform="translate(1102.8,237.3)">425</text>
<text class="ticklabel ytl" transform="translate(1102.8,173.3)">430</text>
<text class="ticklabel ytl" transform="translate(1102.8,109.3)">435 ppm</text>
<g id="areas">
  <g class="pg_1">
    <polygon class="pl" points="156.0,212.9 174.3,206.9 192.6,205.9 210.8,205.1 229.0,203.5 247.3,205.9 265.6,195.6 283.9,203.9 302.2,189.4 320.3,181.9 338.6,187.1 356.9,191.2 375.2,195.8 393.4,175.5 411.7,165.4 429.9,165.6 448.2,158.2 466.5,154.7 484.7,158.3 503.0,161.3 521.2,163.4 539.5,166.3 557.7,166.6 576.0,173.5 594.3,172.4 612.6,182.4 630.8,186.1 649.0,192.6 667.3,197.5 685.6,209.6 703.9,218.6 722.1,224.1 740.3,221.4 758.6,229.5 776.9,226.8 795.2,239.3 813.4,242.8 831.6,240.5 868.2,237.5 886.5,232.1 904.7,227.1 923.0,226.4 941.2,232.9 941.2,600.7 156.0,600.7" stroke="none" stroke-width="0.9000"  fill="#B83C02" clip-path="url(#axis_clip)"/>
<polyline class="pl" points="156.0,212.9 174.3,206.9 192.6,205.9 210.8,205.1 229.0,203.5 247.3,205.9 265.6,195.6 283.9,203.9 302.2,189.4 320.3,181.9 338.6,187.1 356.9,191.2 375.2,195.8 393.4,175.5 411.7,165.4 429.9,165.6 448.2,158.2 466.5,154.7 484.7,158.3 503.0,161.3 521.2,163.4 539.5,166.3 557.7,166.6 576.0,173.5 594.3,172.4 612.6,182.4 630.8,186.1 649.0,192.6 667.3,197.5 685.6,209.6 703.9,218.6 722.1,224.1 740.3,221.4 758.6,229.5 776.9,226.8 795.2,239.3 813.4,242.8 831.6,240.5 868.2,237.5 886.5,232.1 904.7,227.1 923.0,226.4 941.2,232.9" stroke="#000" stroke-width="0.90" stroke-opacity="1.00" fill="none" clip-path="url(#axis_clip)"/>
  </g>
  <g class="pg_1">
    <polygon class="pl" points="156.0,249.0 174.2,257.3 192.5,257.1 210.7,264.5 229.0,219.1 247.3,248.4 265.5,227.0 283.8,228.0 302.1,224.0 320.3,220.2 338.6,225.0 356.8,229.2 375.1,212.4 393.4,218.7 411.6,212.6 429.8,192.1 448.2,206.7 466.4,205.1 484.6,203.7 502.9,208.7 521.2,205.7 539.5,203.4 557.7,199.9 576.0,207.6 594.3,210.9 612.5,221.9 630.7,213.7 649.1,217.6 667.3,232.3 685.5,231.2 703.8,240.2 722.1,262.7 740.4,257.5 758.6,276.3 776.8,263.9 795.2,267.3 813.4,268.3 831.6,271.8 849.9,268.7 868.2,266.0 886.4,260.2 904.7,265.9 922.9,253.4 941.2,250.9 959.5,247.6 977.7,243.0 996.0,235.0 1014.3,230.3 1032.5,221.1 1050.8,230.2 1069.0,222.2 1087.3,215.9 1087.3,600.7 156.0,600.7" stroke="none" stroke-width="0.9000"  fill="#CA4101" clip-path="url(#axis_clip)"/>
<polyline class="pl" points="156.0,249.0 174.2,257.3 192.5,257.1 210.7,264.5 229.0,219.1 247.3,248.4 265.5,227.0 283.8,228.0 302.1,224.0 320.3,220.2 338.6,225.0 356.8,229.2 375.1,212.4 393.4,218.7 411.6,212.6 429.8,192.1 448.2,206.7 466.4,205.1 484.6,203.7 502.9,208.7 521.2,205.7 539.5,203.4 557.7,199.9 576.0,207.6 594.3,210.9 612.5,221.9 630.7,213.7 649.1,217.6 667.3,232.3 685.5,231.2 703.8,240.2 722.1,262.7 740.4,257.5 758.6,276.3 776.8,263.9 795.2,267.3 813.4,268.3 831.6,271.8 849.9,268.7 868.2,266.0 886.4,260.2 904.7,265.9 922.9,253.4 941.2,250.9 959.5,247.6 977.7,243.0 996.0,235.0 1014.3,230.3 1032.5,221.1 1050.8,230.2 1069.0,222.2 1087.3,215.9" stroke="#000" stroke-width="0.90" stroke-opacity="1.00" fill="none" clip-path="url(#axis_clip)"/>
  </g>
  <g class="pg_1">
    <polygon class="pl" points="156.0,302.7 173.8,299.2 191.8,304.3 209.7,297.0 227.6,296.0 245.6,291.1 263.4,283.3 281.3,299.0 299.3,273.8 317.2,278.2 335.1,291.0 353.0,283.7 370.9,272.2 388.8,258.5 406.7,255.8 424.6,248.9 442.5,241.5 460.4,242.8 478.4,238.8 496.3,250.3 514.1,243.3 532.1,234.2 550.0,237.6 567.9,240.7 585.8,249.0 603.7,265.8 621.6,260.2 639.6,263.6 657.5,276.5 675.3,277.3 693.3,283.0 711.2,293.4 729.1,306.7 747.0,302.5 764.9,303.0 782.8,311.1 800.7,312.6 818.7,315.0 836.5,315.5 854.4,315.3 872.4,312.5 890.3,300.6 908.1,307.6 926.1,305.8 944.0,302.9 961.9,278.1 979.9,278.2 997.7,289.7 1015.6,280.6 1033.6,265.5 1051.5,265.0 1069.4,269.9 1087.3,261.4 1087.3,600.7 156.0,600.7" stroke="none" stroke-width="0.9000"  fill="#D94801" clip-path="url(#axis_clip)"/>
<polyline class="pl" points="156.0,302.7 173.8,299.2 191.8,304.3 209.7,297.0 227.6,296.0 245.6,291.1 263.4,283.3 281.3,299.0 299.3,273.8 317.2,278.2 335.1,291.0 353.0,283.7 370.9,272.2 388.8,258.5 406.7,255.8 424.6,248.9 442.5,241.5 460.4,242.8 478.4,238.8 496.3,250.3 514.1,243.3 532.1,234.2 550.0,237.6 567.9,240.7 585.8,249.0 603.7,265.8 621.6,260.2 639.6,263.6 657.5,276.5 675.3,277.3 693.3,283.0 711.2,293.4 729.1,306.7 747.0,302.5 764.9,303.0 782.8,311.1 800.7,312.6 818.7,315.0 836.5,315.5 854.4,315.3 872.4,312.5 890.3,300.6 908.1,307.6 926.1,305.8 944.0,302.9 961.9,278.1 979.9,278.2 997.7,289.7 1015.6,280.6 1033.6,265.5 1051.5,265.0 1069.4,269.9 1087.3,261.4" stroke="#000" stroke-width="0.90" stroke-opacity="1.00" fill="none" clip-path="url(#axis_clip)"/>
  </g>
  <g class="pg_1">
    <polygon class="pl" points="156.0,327.3 174.3,315.7 192.6,324.6 210.7,305.3 229.0,304.5 247.3,314.9 265.6,297.0 283.9,299.2 302.1,304.4 320.3,313.2 338.6,315.4 356.9,317.6 375.1,289.6 393.4,291.7 411.7,292.3 429.9,289.4 448.2,291.9 466.4,292.0 484.7,280.0 503.0,281.9 521.3,275.2 539.4,273.5 557.7,277.5 576.0,281.1 594.3,283.2 612.6,290.3 630.7,297.6 649.0,306.1 667.3,314.4 685.6,321.8 703.9,317.3 722.1,328.3 740.3,329.2 758.6,338.2 776.9,338.4 795.1,341.1 813.4,344.8 831.7,351.0 849.9,350.8 868.2,354.8 886.4,351.7 904.7,346.9 923.0,341.5 941.3,339.8 959.4,330.3 977.7,328.8 996.0,313.1 1014.3,323.2 1032.6,306.3 1050.7,309.0 1069.0,304.0 1087.3,301.0 1087.3,600.7 156.0,600.7" stroke="none" stroke-width="0.9000"  fill="#E65607" clip-path="url(#axis_clip)"/>
<polyline class="pl" points="156.0,327.3 174.3,315.7 192.6,324.6 210.7,305.3 229.0,304.5 247.3,314.9 265.6,297.0 283.9,299.2 302.1,304.4 320.3,313.2 338.6,315.4 356.9,317.6 375.1,289.6 393.4,291.7 411.7,292.3 429.9,289.4 448.2,291.9 466.4,292.0 484.7,280.0 503.0,281.9 521.3,275.2 539.4,273.5 557.7,277.5 576.0,281.1 594.3,283.2 612.6,290.3 630.7,297.6 649.0,306.1 667.3,314.4 685.6,321.8 703.9,317.3 722.1,328.3 740.3,329.2 758.6,338.2 776.9,338.4 795.1,341.1 813.4,344.8 831.7,351.0 849.9,350.8 868.2,354.8 886.4,351.7 904.7,346.9 923.0,341.5 941.3,339.8 959.4,330.3 977.7,328.8 996.0,313.1 1014.3,323.2 1032.6,306.3 1050.7,309.0 1069.0,304.0 1087.3,301.0" stroke="#000" stroke-width="0.90" stroke-opacity="1.00" fill="none" clip-path="url(#axis_clip)"/>
  </g>
  <g class="pg_1">
    <polygon class="pl" points="156.0,353.0 174.3,357.1 192.6,352.6 210.8,345.1 229.1,330.9 247.3,333.4 265.6,338.7 283.9,341.3 302.2,320.1 320.4,333.2 338.6,322.3 356.9,323.3 375.2,319.5 393.5,303.4 411.6,307.1 429.9,317.2 448.2,294.1 466.5,300.2 484.8,313.5 503.0,305.8 521.2,307.9 539.5,299.9 557.8,300.4 576.0,306.1 594.3,313.6 612.5,318.7 630.8,326.5 649.1,325.9 667.3,335.8 685.6,350.6 703.9,358.1 722.1,363.8 740.3,359.2 758.6,373.1 776.9,380.8 795.2,379.0 813.4,382.4 831.6,379.8 849.9,379.0 868.2,375.4 886.5,372.2 904.8,366.3 922.9,372.1 941.2,368.6 959.5,358.5 977.8,359.7 996.0,353.4 1014.2,343.3 1032.5,347.0 1050.8,339.6 1069.1,326.3 1087.3,326.7 1087.3,600.7 156.0,600.7" stroke="none" stroke-width="0.9000"  fill="#F16913" clip-path="url(#axis_clip)"/>
<polyline class="pl" points="156.0,353.0 174.3,357.1 192.6,352.6 210.8,345.1 229.1,330.9 247.3,333.4 265.6,338.7 283.9,341.3 302.2,320.1 320.4,333.2 338.6,322.3 356.9,323.3 375.2,319.5 393.5,303.4 411.6,307.1 429.9,317.2 448.2,294.1 466.5,300.2 484.8,313.5 503.0,305.8 521.2,307.9 539.5,299.9 557.8,300.4 576.0,306.1 594.3,313.6 612.5,318.7 630.8,326.5 649.1,325.9 667.3,335.8 685.6,350.6 703.9,358.1 722.1,363.8 740.3,359.2 758.6,373.1 776.9,380.8 795.2,379.0 813.4,382.4 831.6,379.8 849.9,379.0 868.2,375.4 886.5,372.2 904.8,366.3 922.9,372.1 941.2,368.6 959.5,358.5 977.8,359.7 996.0,353.4 1014.2,343.3 1032.5,347.0 1050.8,339.6 1069.1,326.3 1087.3,326.7" stroke="#000" stroke-width="0.90" stroke-opacity="1.00" fill="none" clip-path="url(#axis_clip)"/>
  </g>
  <g class="pg_1">
    <polygon class="pl" points="156.0,375.8 174.2,383.2 192.5,372.3 210.8,367.3 229.0,363.9 247.3,362.5 265.5,367.0 283.8,371.4 302.1,369.5 320.3,366.3 338.7,364.0 356.9,348.0 375.1,345.5 393.4,336.5 411.7,338.7 429.9,343.7 448.2,331.8 466.4,331.5 484.7,332.0 503.0,329.7 521.2,323.9 539.4,326.8 557.8,337.8 576.0,339.5 594.2,341.4 612.5,349.4 630.8,351.9 649.1,361.1 667.3,369.4 685.5,377.8 703.9,378.5 722.1,383.9 740.3,388.5 758.6,393.8 776.9,398.7 795.1,401.4 813.4,400.2 831.6,406.2 849.9,405.3 868.2,405.5 886.4,404.7 904.6,399.6 923.0,400.0 941.2,396.5 959.5,383.5 977.8,386.5 996.0,369.9 1014.3,370.8 1032.5,375.5 1050.8,368.8 1069.1,359.9 1087.3,353.8 1087.3,600.7 156.0,600.7" stroke="none" stroke-width="0.9000"  fill="#F97C26" clip-path="url(#axis_clip)"/>
<polyline class="pl" points="156.0,375.8 174.2,383.2 192.5,372.3 210.8,367.3 229.0,363.9 247.3,362.5 265.5,367.0 283.8,371.4 302.1,369.5 320.3,366.3 338.7,364.0 356.9,348.0 375.1,345.5 393.4,336.5 411.7,338.7 429.9,343.7 448.2,331.8 466.4,331.5 484.7,332.0 503.0,329.7 521.2,323.9 539.4,326.8 557.8,337.8 576.0,339.5 594.2,341.4 612.5,349.4 630.8,351.9 649.1,361.1 667.3,369.4 685.5,377.8 703.9,378.5 722.1,383.9 740.3,388.5 758.6,393.8 776.9,398.7 795.1,401.4 813.4,400.2 831.6,406.2 849.9,405.3 868.2,405.5 886.4,404.7 904.6,399.6 923.0,400.0 941.2,396.5 959.5,383.5 977.8,386.5 996.0,369.9 1014.3,370.8 1032.5,375.5 1050.8,368.8 1069.1,359.9 1087.3,353.8" stroke="#000" stroke-width="0.90" stroke-opacity="1.00" fill="none" clip-path="url(#axis_clip)"/>
  </g>
  <g class="pg_1">
    <polygon class="pl" points="156.0,410.6 174.2,414.6 192.5,393.6 210.8,405.9 229.0,398.2 247.3,387.9 265.5,406.4 283.8,388.1 302.1,391.3 320.4,391.3 338.5,395.7 356.8,402.0 375.1,390.9 393.4,378.7 411.7,372.7 429.9,370.5 448.1,363.8 466.4,363.5 484.7,349.7 503.0,358.0 521.2,363.8 539.5,362.7 557.7,366.6 576.0,369.4 594.2,375.2 612.5,375.0 630.8,392.2 649.1,391.3 667.3,407.9 685.5,418.0 703.8,414.4 722.1,415.4 740.4,424.3 758.6,425.9 776.8,434.0 795.1,436.8 813.4,438.0 831.7,440.3 849.9,444.9 868.2,439.5 886.4,436.4 904.7,435.1 922.9,427.9 941.2,420.1 959.5,416.3 977.8,416.5 996.0,409.7 1014.2,405.2 1032.5,402.0 1050.8,394.7 1069.1,390.6 1087.4,380.8 1087.4,600.7 156.0,600.7" stroke="none" stroke-width="0.9000"  fill="#FD8D3C" clip-path="url(#axis_clip)"/>
<polyline class="pl" points="156.0,410.6 174.2,414.6 192.5,393.6 210.8,405.9 229.0,398.2 247.3,387.9 265.5,406.4 283.8,388.1 302.1,391.3 320.4,391.3 338.5,395.7 356.8,402.0 375.1,390.9 393.4,378.7 411.7,372.7 429.9,370.5 448.1,363.8 466.4,363.5 484.7,349.7 503.0,358.0 521.2,363.8 539.5,362.7 557.7,366.6 576.0,369.4 594.2,375.2 612.5,375.0 630.8,392.2 649.1,391.3 667.3,407.9 685.5,418.0 703.8,414.4 722.1,415.4 740.4,424.3 758.6,425.9 776.8,434.0 795.1,436.8 813.4,438.0 831.7,440.3 849.9,444.9 868.2,439.5 886.4,436.4 904.7,435.1 922.9,427.9 941.2,420.1 959.5,416.3 977.8,416.5 996.0,409.7 1014.2,405.2 1032.5,402.0 1050.8,394.7 1069.1,390.6 1087.4,380.8" stroke="#000" stroke-width="0.90" stroke-opacity="1.00" fill="none" clip-path="url(#axis_clip)"/>
  </g>
  <g class="pg_1">
    <polygon class="pl" points="156.0,442.9 174.3,446.1 192.6,441.2 210.7,446.3 229.0,442.1 247.3,440.0 265.6,438.9 283.9,433.2 302.1,421.2 320.3,435.5 338.6,430.3 356.9,418.8 375.1,429.4 393.4,426.1 411.7,405.6 429.9,397.5 448.2,423.4 466.4,405.6 484.7,395.1 503.0,400.5 521.3,401.0 539.4,407.0 557.7,404.2 576.0,414.4 594.3,411.9 612.6,426.7 630.7,429.9 649.0,437.7 667.3,441.0 685.6,451.6 703.9,454.6 722.1,456.6 740.3,459.6 758.6,468.9 776.9,476.8 795.1,478.1 813.4,474.3 831.7,476.2 849.9,476.7 868.2,475.7 886.4,470.2 904.7,462.4 923.0,464.2 941.3,457.7 959.4,435.1 977.7,437.2 996.0,439.8 1014.3,438.3 1032.6,426.7 1050.8,427.9 1069.0,430.2 1087.3,424.1 1087.3,600.7 156.0,600.7" stroke="none" stroke-width="0.9000"  fill="#FD994C" clip-path="url(#axis_clip)"/>
<polyline class="pl" points="156.0,442.9 174.3,446.1 192.6,441.2 210.7,446.3 229.0,442.1 247.3,440.0 265.6,438.9 283.9,433.2 302.1,421.2 320.3,435.5 338.6,430.3 356.9,418.8 375.1,429.4 393.4,426.1 411.7,405.6 429.9,397.5 448.2,423.4 466.4,405.6 484.7,395.1 503.0,400.5 521.3,401.0 539.4,407.0 557.7,404.2 576.0,414.4 594.3,411.9 612.6,426.7 630.7,429.9 649.0,437.7 667.3,441.0 685.6,451.6 703.9,454.6 722.1,456.6 740.3,459.6 758.6,468.9 776.9,476.8 795.1,478.1 813.4,474.3 831.7,476.2 849.9,476.7 868.2,475.7 886.4,470.2 904.7,462.4 923.0,464.2 941.3,457.7 959.4,435.1 977.7,437.2 996.0,439.8 1014.3,438.3 1032.6,426.7 1050.8,427.9 1069.0,430.2 1087.3,424.1" stroke="#000" stroke-width="0.90" stroke-opacity="1.00" fill="none" clip-path="url(#axis_clip)"/>
  </g>
  <g class="pg_1">
    <polygon class="pl" points="156.0,471.0 173.8,470.2 191.8,467.5 209.7,463.7 227.6,467.3 245.6,469.4 263.4,471.0 281.3,457.8 299.3,452.3 317.2,468.4 335.1,450.1 353.0,459.7 370.9,439.5 388.8,449.2 406.7,434.0 424.6,423.6 442.5,419.5 460.4,429.4 478.4,427.7 496.3,413.9 514.1,419.0 532.1,424.5 550.0,423.0 567.9,426.3 585.8,440.6 603.7,447.8 621.6,443.6 639.6,456.6 657.5,459.8 675.3,460.9 693.3,464.3 711.2,476.2 729.1,480.6 747.0,488.9 764.9,493.3 782.8,499.7 800.7,500.0 818.7,507.9 836.5,511.8 854.4,509.3 872.4,503.3 890.3,496.5 908.1,495.9 926.1,494.0 944.0,492.7 961.9,482.2 979.9,468.8 997.7,466.1 1015.6,460.7 1033.6,463.3 1051.5,460.1 1069.4,454.7 1087.3,452.7 1087.3,600.7 156.0,600.7" stroke="none" stroke-width="0.9000"  fill="#FDA35A" clip-path="url(#axis_clip)"/>
<polyline class="pl" points="156.0,471.0 173.8,470.2 191.8,467.5 209.7,463.7 227.6,467.3 245.6,469.4 263.4,471.0 281.3,457.8 299.3,452.3 317.2,468.4 335.1,450.1 353.0,459.7 370.9,439.5 388.8,449.2 406.7,434.0 424.6,423.6 442.5,419.5 460.4,429.4 478.4,427.7 496.3,413.9 514.1,419.0 532.1,424.5 550.0,423.0 567.9,426.3 585.8,440.6 603.7,447.8 621.6,443.6 639.6,456.6 657.5,459.8 675.3,460.9 693.3,464.3 711.2,476.2 729.1,480.6 747.0,488.9 764.9,493.3 782.8,499.7 800.7,500.0 818.7,507.9 836.5,511.8 854.4,509.3 872.4,503.3 890.3,496.5 908.1,495.9 926.1,494.0 944.0,492.7 961.9,482.2 979.9,468.8 997.7,466.1 1015.6,460.7 1033.6,463.3 1051.5,460.1 1069.4,454.7 1087.3,452.7" stroke="#000" stroke-width="0.90" stroke-opacity="1.00" fill="none" clip-path="url(#axis_clip)"/>
  </g>
  <g class="pg_1">
    <polygon class="pl" points="156.0,519.8 174.3,515.6 192.6,513.9 210.8,506.9 229.0,488.7 247.4,498.6 265.6,500.3 283.8,490.8 302.1,495.3 320.4,496.0 338.6,485.9 356.9,474.7 375.1,477.4 393.4,462.8 411.7,435.5 429.9,451.8 448.2,448.5 466.5,450.6 484.7,446.5 503.0,453.7 521.2,440.6 539.5,451.8 557.8,459.5 576.0,455.0 594.2,461.9 612.6,470.6 630.8,476.0 649.0,489.6 667.3,503.6 685.6,497.8 703.8,502.4 722.1,510.1 740.4,523.3 758.6,522.5 776.9,534.7 795.1,534.4 813.4,530.7 831.7,535.7 849.9,537.5 868.1,535.1 886.5,526.7 904.7,525.7 923.0,519.4 941.2,511.1 959.5,511.1 977.8,501.0 996.0,495.9 1014.2,488.7 1032.6,497.2 1050.8,485.2 1069.0,490.4 1087.3,486.1 1087.3,600.7 156.0,600.7" stroke="none" stroke-width="0.9000"  fill="#FDAE6B" clip-path="url(#axis_clip)"/>
<polyline class="pl" points="156.0,519.8 174.3,515.6 192.6,513.9 210.8,506.9 229.0,488.7 247.4,498.6 265.6,500.3 283.8,490.8 302.1,495.3 320.4,496.0 338.6,485.9 356.9,474.7 375.1,477.4 393.4,462.8 411.7,435.5 429.9,451.8 448.2,448.5 466.5,450.6 484.7,446.5 503.0,453.7 521.2,440.6 539.5,451.8 557.8,459.5 576.0,455.0 594.2,461.9 612.6,470.6 630.8,476.0 649.0,489.6 667.3,503.6 685.6,497.8 703.8,502.4 722.1,510.1 740.4,523.3 758.6,522.5 776.9,534.7 795.1,534.4 813.4,530.7 831.7,535.7 849.9,537.5 868.1,535.1 886.5,526.7 904.7,525.7 923.0,519.4 941.2,511.1 959.5,511.1 977.8,501.0 996.0,495.9 1014.2,488.7 1032.6,497.2 1050.8,485.2 1069.0,490.4 1087.3,486.1" stroke="#000" stroke-width="0.90" stroke-opacity="1.00" fill="none" clip-path="url(#axis_clip)"/>
  </g>
  <g class="pg_1">
    <polygon class="pl" points="156.0,548.9 174.3,544.9 192.5,553.3 210.8,544.5 229.0,543.9 247.3,547.7 265.6,548.1 283.8,529.9 302.1,530.6 320.3,521.0 338.6,537.1 356.8,524.3 375.1,523.9 393.4,506.1 411.7,495.4 429.9,507.7 448.1,498.5 466.4,494.1 484.7,496.3 503.0,496.3 521.3,498.5 539.4,506.4 557.7,505.9 576.0,516.8 594.3,512.7 612.5,519.7 630.8,525.2 649.0,529.4 667.3,531.2 685.6,544.6 703.8,568.2 722.1,557.6 740.4,558.2 758.6,561.8 776.8,566.4 795.1,575.6 813.4,582.4 831.7,581.2 850.0,582.6 868.1,567.9 886.4,570.4 904.7,566.0 923.0,566.4 941.2,559.0 959.5,546.7 977.7,542.5 996.0,542.1 1014.3,536.7 1032.5,530.1 1050.8,516.9 1069.0,513.6 1087.3,520.3 1087.3,600.7 156.0,600.7" stroke="none" stroke-width="0.9000"  fill="#FDC087" clip-path="url(#axis_clip)"/>
<polyline class="pl" points="156.0,548.9 174.3,544.9 192.5,553.3 210.8,544.5 229.0,543.9 247.3,547.7 265.6,548.1 283.8,529.9 302.1,530.6 320.3,521.0 338.6,537.1 356.8,524.3 375.1,523.9 393.4,506.1 411.7,495.4 429.9,507.7 448.1,498.5 466.4,494.1 484.7,496.3 503.0,496.3 521.3,498.5 539.4,506.4 557.7,505.9 576.0,516.8 594.3,512.7 612.5,519.7 630.8,525.2 649.0,529.4 667.3,531.2 685.6,544.6 703.8,568.2 722.1,557.6 740.4,558.2 758.6,561.8 776.8,566.4 795.1,575.6 813.4,582.4 831.7,581.2 850.0,582.6 868.1,567.9 886.4,570.4 904.7,566.0 923.0,566.4 941.2,559.0 959.5,546.7 977.7,542.5 996.0,542.1 1014.3,536.7 1032.5,530.1 1050.8,516.9 1069.0,513.6 1087.3,520.3" stroke="#000" stroke-width="0.90" stroke-opacity="1.00" fill="none" clip-path="url(#axis_clip)"/>
  </g>
  <g class="pg_1">
    <polygon class="pl" points="156.0,569.8 174.3,576.0 192.6,573.2 210.8,574.8 229.0,573.0 247.3,574.3 265.6,571.6 283.9,569.1 302.2,566.9 320.3,548.6 338.6,532.1 356.9,545.7 375.2,539.3 393.4,533.0 411.7,527.5 429.9,526.9 448.2,524.9 466.5,525.2 484.7,525.1 503.0,524.8 521.2,523.9 539.5,524.1 557.7,528.0 576.0,534.0 594.3,535.2 612.6,544.4 630.8,549.5 649.0,562.6 667.3,562.7 685.6,580.5 703.9,575.9 722.1,583.0 740.3,587.5 758.6,595.8 776.9,594.3 795.2,611.0 813.4,610.1 831.6,605.8 849.9,607.5 868.2,604.3 886.5,603.4 904.7,600.7 923.0,580.2 941.2,589.2 959.5,583.7 977.7,582.4 996.0,574.8 1014.3,570.7 1032.5,558.7 1050.8,558.7 1069.0,560.9 1087.3,549.1 1087.3,600.7 156.0,600.7" stroke="none" stroke-width="0.9000"  fill="#FDD0A2" clip-path="url(#axis_clip)"/>
<polyline class="pl" points="156.0,569.8 174.3,576.0 192.6,573.2 210.8,574.8 229.0,573.0 247.3,574.3 265.6,571.6 283.9,569.1 302.2,566.9 320.3,548.6 338.6,532.1 356.9,545.7 375.2,539.3 393.4,533.0 411.7,527.5 429.9,526.9 448.2,524.9 466.5,525.2 484.7,525.1 503.0,524.8 521.2,523.9 539.5,524.1 557.7,528.0 576.0,534.0 594.3,535.2 612.6,544.4 630.8,549.5 649.0,562.6 667.3,562.7 685.6,580.5 703.9,575.9 722.1,583.0 740.3,587.5 758.6,595.8 776.9,594.3 795.2,611.0 813.4,610.1 831.6,605.8 849.9,607.5 868.2,604.3 886.5,603.4 904.7,600.7 923.0,580.2 941.2,589.2 959.5,583.7 977.7,582.4 996.0,574.8 1014.3,570.7 1032.5,558.7 1050.8,558.7 1069.0,560.9 1087.3,549.1" stroke="#000" stroke-width="0.90" stroke-opacity="1.00" fill="none" clip-path="url(#axis_clip)"/>
  </g>
  <g class="pg_1">
    <polygon class="pl" points="156.0,605.8 174.2,598.0 192.5,600.5 210.8,600.8 229.0,589.7 247.3,585.3 265.5,583.1 283.8,588.4 302.1,576.6 320.4,585.7 338.5,580.5 356.8,572.7 375.1,571.3 393.4,575.1 411.7,572.7 429.9,556.7 448.1,552.6 466.4,552.7 484.7,549.8 503.0,547.3 521.2,548.0 539.5,557.2 557.7,564.9 576.0,570.9 594.2,564.3 612.5,569.6 630.8,576.0 649.1,584.4 667.3,587.8 685.5,589.5 703.8,602.5 722.1,609.4 740.4,609.1 758.6,620.9 776.8,625.6 795.1,631.5 813.4,629.7 831.7,631.6 849.9,632.4 868.2,632.0 886.4,627.8 904.7,623.8 922.9,620.6 941.2,617.7 959.5,604.1 977.8,612.6 996.0,598.1 1014.2,594.8 1032.5,596.5 1050.8,580.1 1069.1,582.0 1087.4,580.2 1087.4,600.7 156.0,600.7" stroke="none" stroke-width="0.9000"  fill="#FDD9B3" clip-path="url(#axis_clip)"/>
<polyline class="pl" points="156.0,605.8 174.2,598.0 192.5,600.5 210.8,600.8 229.0,589.7 247.3,585.3 265.5,583.1 283.8,588.4 302.1,576.6 320.4,585.7 338.5,580.5 356.8,572.7 375.1,571.3 393.4,575.1 411.7,572.7 429.9,556.7 448.1,552.6 466.4,552.7 484.7,549.8 503.0,547.3 521.2,548.0 539.5,557.2 557.7,564.9 576.0,570.9 594.2,564.3 612.5,569.6 630.8,576.0 649.1,584.4 667.3,587.8 685.5,589.5 703.8,602.5 722.1,609.4 740.4,609.1 758.6,620.9 776.8,625.6 795.1,631.5 813.4,629.7 831.7,631.6 849.9,632.4 868.2,632.0 886.4,627.8 904.7,623.8 922.9,620.6 941.2,617.7 959.5,604.1 977.8,612.6 996.0,598.1 1014.2,594.8 1032.5,596.5 1050.8,580.1 1069.1,582.0 1087.4,580.2" stroke="#000" stroke-width="0.90" stroke-opacity="1.00" fill="none" clip-path="url(#axis_clip)"/>
  </g>
  <g class="pg_1">
    <polygon class="pl" points="156.0,637.1 173.9,631.8 191.8,636.9 209.7,632.3 227.6,633.6 245.5,627.5 263.4,630.4 281.3,618.5 299.3,620.5 317.2,629.7 335.0,620.4 352.9,613.7 370.9,609.4 388.8,606.9 406.7,590.3 424.7,596.2 442.5,590.4 460.4,586.5 478.3,583.8 496.3,585.6 514.2,596.7 532.1,594.5 550.0,601.6 567.9,595.2 585.8,603.6 603.7,607.7 621.6,611.5 639.6,619.1 657.5,617.8 675.3,622.7 693.2,631.1 711.2,633.6 729.1,642.8 747.0,657.3 764.9,652.0 782.8,651.1 800.7,663.4 818.6,664.8 836.5,663.5 854.5,664.4 872.4,662.3 890.3,663.1 908.1,657.5 926.1,654.7 944.0,645.2 961.9,632.9 979.8,634.1 997.8,627.2 1015.6,627.8 1033.5,618.3 1051.5,616.7 1069.4,612.7 1087.3,617.0 1087.3,600.7 156.0,600.7" stroke="none" stroke-width="0.9000"  fill="#FEDFC0" clip-path="url(#axis_clip)"/>
<polyline class="pl" points="156.0,637.1 173.9,631.8 191.8,636.9 209.7,632.3 227.6,633.6 245.5,627.5 263.4,630.4 281.3,618.5 299.3,620.5 317.2,629.7 335.0,620.4 352.9,613.7 370.9,609.4 388.8,606.9 406.7,590.3 424.7,596.2 442.5,590.4 460.4,586.5 478.3,583.8 496.3,585.6 514.2,596.7 532.1,594.5 550.0,601.6 567.9,595.2 585.8,603.6 603.7,607.7 621.6,611.5 639.6,619.1 657.5,617.8 675.3,622.7 693.2,631.1 711.2,633.6 729.1,642.8 747.0,657.3 764.9,652.0 782.8,651.1 800.7,663.4 818.6,664.8 836.5,663.5 854.5,664.4 872.4,662.3 890.3,663.1 908.1,657.5 926.1,654.7 944.0,645.2 961.9,632.9 979.8,634.1 997.8,627.2 1015.6,627.8 1033.5,618.3 1051.5,616.7 1069.4,612.7 1087.3,617.0" stroke="#000" stroke-width="0.90" stroke-opacity="1.00" fill="none" clip-path="url(#axis_clip)"/>
  </g>
  <g class="pg_1">
    <polygon class="pl" points="156.0,655.2 174.3,665.1 192.6,655.7 210.7,657.5 229.0,648.5 247.3,656.6 265.6,653.9 283.9,648.8 302.1,648.5 320.3,650.9 338.6,643.0 356.9,637.9 375.1,623.6 393.4,636.6 411.7,635.5 429.9,629.7 448.2,632.7 466.4,622.0 484.7,638.0 503.0,612.2 521.3,609.8 539.4,621.0 557.7,630.1 576.0,626.3 594.3,629.5 612.6,630.7 630.7,630.0 649.0,632.8 667.3,658.0 685.6,649.4 703.9,659.5 722.1,667.2 740.3,673.1 758.6,682.7 776.9,681.3 795.1,687.1 813.4,685.7 831.7,686.5 849.9,691.9 868.2,690.5 886.4,690.1 904.7,687.3 923.0,684.6 941.3,679.9 959.4,677.8 977.7,669.0 996.0,668.5 1014.3,660.3 1032.6,657.5 1050.7,649.2 1069.0,643.5 1087.3,646.7 1087.3,600.7 156.0,600.7" stroke="none" stroke-width="0.9000"  fill="#FEE6CE" clip-path="url(#axis_clip)"/>
<polyline class="pl" points="156.0,655.2 174.3,665.1 192.6,655.7 210.7,657.5 229.0,648.5 247.3,656.6 265.6,653.9 283.9,648.8 302.1,648.5 320.3,650.9 338.6,643.0 356.9,637.9 375.1,623.6 393.4,636.6 411.7,635.5 429.9,629.7 448.2,632.7 466.4,622.0 484.7,638.0 503.0,612.2 521.3,609.8 539.4,621.0 557.7,630.1 576.0,626.3 594.3,629.5 612.6,630.7 630.7,630.0 649.0,632.8 667.3,658.0 685.6,649.4 703.9,659.5 722.1,667.2 740.3,673.1 758.6,682.7 776.9,681.3 795.1,687.1 813.4,685.7 831.7,686.5 849.9,691.9 868.2,690.5 886.4,690.1 904.7,687.3 923.0,684.6 941.3,679.9 959.4,677.8 977.7,669.0 996.0,668.5 1014.3,660.3 1032.6,657.5 1050.7,649.2 1069.0,643.5 1087.3,646.7" stroke="#000" stroke-width="0.90" stroke-opacity="1.00" fill="none" clip-path="url(#axis_clip)"/>
  </g>
  <g class="pg_1">
    <polygon class="pl" points="156.0,698.3 174.3,696.1 192.6,696.1 210.8,687.5 229.1,665.8 247.3,670.4 265.6,671.9 283.9,680.1 302.2,662.8 320.4,657.1 338.6,659.8 356.9,671.0 375.2,652.4 393.5,659.6 411.6,639.9 429.9,632.3 448.2,633.7 466.5,636.5 484.8,641.5 503.0,630.9 521.2,639.9 539.5,632.5 557.8,639.2 576.0,650.6 594.3,653.6 612.5,660.0 630.8,667.6 649.1,676.7 667.3,671.4 685.6,676.9 703.9,689.3 722.1,690.0 740.3,694.4 758.6,705.6 776.9,706.6 795.2,724.5 813.4,712.7 831.6,716.3 849.9,716.2 868.2,714.0 886.5,715.5 904.8,707.9 922.9,702.8 941.2,699.9 959.5,699.8 977.8,692.5 996.0,681.4 1014.2,679.2 1032.5,677.8 1050.8,682.0 1069.1,673.1 1087.3,675.8 1087.3,600.7 156.0,600.7" stroke="none" stroke-width="0.9000"  fill="#FEEDDD" clip-path="url(#axis_clip)"/>
<polyline class="pl" points="156.0,698.3 174.3,696.1 192.6,696.1 210.8,687.5 229.1,665.8 247.3,670.4 265.6,671.9 283.9,680.1 302.2,662.8 320.4,657.1 338.6,659.8 356.9,671.0 375.2,652.4 393.5,659.6 411.6,639.9 429.9,632.3 448.2,633.7 466.5,636.5 484.8,641.5 503.0,630.9 521.2,639.9 539.5,632.5 557.8,639.2 576.0,650.6 594.3,653.6 612.5,660.0 630.8,667.6 649.1,676.7 667.3,671.4 685.6,676.9 703.9,689.3 722.1,690.0 740.3,694.4 758.6,705.6 776.9,706.6 795.2,724.5 813.4,712.7 831.6,716.3 849.9,716.2 868.2,714.0 886.5,715.5 904.8,707.9 922.9,702.8 941.2,699.9 959.5,699.8 977.8,692.5 996.0,681.4 1014.2,679.2 1032.5,677.8 1050.8,682.0 1069.1,673.1 1087.3,675.8" stroke="#000" stroke-width="0.90" stroke-opacity="1.00" fill="none" clip-path="url(#axis_clip)"/>
  </g>
  <g class="pg_1">
    <polygon class="pl" points="156.0,720.5 174.3,712.7 192.5,711.1 210.8,706.3 229.0,712.6 247.3,713.8 265.6,705.1 283.8,697.3 302.1,686.4 320.3,689.8 338.6,697.6 356.8,683.7 375.1,686.9 393.4,681.9 411.7,688.3 429.9,680.2 448.1,668.0 466.4,677.7 484.7,672.4 503.0,669.8 521.3,669.5 539.4,676.5 557.7,672.1 576.0,682.0 594.3,693.8 612.5,691.5 630.8,694.1 649.0,695.7 667.3,704.4 685.6,708.4 703.8,712.2 722.1,725.8 740.4,729.7 758.6,730.8 776.8,736.8 795.1,742.8 813.4,741.9 831.7,743.4 850.0,751.2 868.1,753.2 886.4,746.8 904.7,742.4 923.0,738.6 941.2,734.0 959.5,729.9 977.7,721.6 996.0,721.0 1014.3,712.2 1032.5,713.5 1050.8,714.9 1069.0,695.2 1087.3,692.8 1087.3,600.7 156.0,600.7" stroke="none" stroke-width="0.9000"  fill="#FFF5EB" clip-path="url(#axis_clip)"/>
<polyline class="pl" points="156.0,720.5 174.3,712.7 192.5,711.1 210.8,706.3 229.0,712.6 247.3,713.8 265.6,705.1 283.8,697.3 302.1,686.4 320.3,689.8 338.6,697.6 356.8,683.7 375.1,686.9 393.4,681.9 411.7,688.3 429.9,680.2 448.1,668.0 466.4,677.7 484.7,672.4 503.0,669.8 521.3,669.5 539.4,676.5 557.7,672.1 576.0,682.0 594.3,693.8 612.5,691.5 630.8,694.1 649.0,695.7 667.3,704.4 685.6,708.4 703.8,712.2 722.1,725.8 740.4,729.7 758.6,730.8 776.8,736.8 795.1,742.8 813.4,741.9 831.7,743.4 850.0,751.2 868.1,753.2 886.4,746.8 904.7,742.4 923.0,738.6 941.2,734.0 959.5,729.9 977.7,721.6 996.0,721.0 1014.3,712.2 1032.5,713.5 1050.8,714.9 1069.0,695.2 1087.3,692.8" stroke="#000" stroke-width="0.90" stroke-opacity="1.00" fill="none" clip-path="url(#axis_clip)"/>
  </g>
</g>
<text transform="translate(156.0,43.9)" dy="0.0" font-size="27.00" fill="#808080" stroke="none">Weekly atmospheric CO<tspan dy="0.2em"><tspan style="font-size:70%">2</tspan></tspan><tspan dy="-0.2em"> </tspan>at Mauna Loa</text>
<polyline class="pl" points="156.0,549.5 1086.0,549.5" stroke="#000" stroke-width="0.18" stroke-dasharray="2 4" stroke-opacity="1.00" fill="none" clip-path="url(#axis_clip)"/>
<polyline class="pl" points="156.0,485.5 1086.0,485.5" stroke="#000" stroke-width="0.18" stroke-dasharray="2 4" stroke-opacity="1.00" fill="none" clip-path="url(#axis_clip)"/>
<polyline class="pl" points="156.0,421.6 1086.0,421.6" stroke="#000" stroke-width="0.18" stroke-dasharray="2 4" stroke-opacity="1.00" fill="none" clip-path="url(#axis_clip)"/>
<polyline class="pl" points="156.0,357.6 1086.0,357.6" stroke="#000" stroke-width="0.18" stroke-dasharray="2 4" stroke-opacity="1.00" fill="none" clip-path="url(#axis_clip)"/>
<polyline class="pl" points="156.0,293.7 1086.0,293.7" stroke="#000" stroke-width="0.18" stroke-dasharray="2 4" stroke-opacity="1.00" fill="none" clip-path="url(#axis_clip)"/>
<polyline class="pl" points="156.0,229.7 1086.0,229.7" stroke="#000" stroke-width="0.18" stroke-dasharray="2 4" stroke-opacity="1.00" fill="none" clip-path="url(#axis_clip)"/>
<polyline class="pl" points="156.0,165.7 1086.0,165.7" stroke="#000" stroke-width="0.18" stroke-dasharray="2 4" stroke-opacity="1.00" fill="none" clip-path="url(#axis_clip)"/>
<polyline class="pl" points="156.0,101.8 1086.0,101.8" stroke="#000" stroke-width="0.18" stroke-dasharray="2 4" stroke-opacity="1.00" fill="none" clip-path="url(#axis_clip)"/>
<text transform="translate(138.0,585.3)" dy="6.5" font-size="21.60" fill="#FFF5EB" stroke="none" text-anchor="end">2014</text>
<text transform="translate(138.0,559.4)" dy="6.5" font-size="21.60" fill="#FEEDDD" stroke="none" text-anchor="end">2015</text>
<text transform="translate(138.0,534.3)" dy="6.5" font-size="21.60" fill="#FEE6CE" stroke="none" text-anchor="end">2016</text>
<text transform="translate(138.0,495.4)" dy="6.5" font-size="21.60" fill="#FEDFC0" stroke="none" text-anchor="end">2017</text>
<text transform="translate(138.0,457.0)" dy="6.5" font-size="21.60" fill="#FDD9B3" stroke="none" text-anchor="end">2018</text>
<text transform="translate(138.0,426.8)" dy="6.5" font-size="21.60" fill="#FDD0A2" stroke="none" text-anchor="end">2019</text>
<text transform="translate(138.0,393.2)" dy="6.5" font-size="21.60" fill="#FDC087" stroke="none" text-anchor="end">2020</text>
<text transform="translate(138.0,364.4)" dy="6.5" font-size="21.60" fill="#FDAE6B" stroke="none" text-anchor="end">2021</text>
<text transform="translate(138.0,340.2)" dy="6.5" font-size="21.60" fill="#FDA35A" stroke="none" text-anchor="end">2022</text>
<text transform="translate(138.0,315.0)" dy="6.5" font-size="21.60" fill="#FD994C" stroke="none" text-anchor="end">2023</text>
<text transform="translate(138.0,275.9)" dy="6.5" font-size="21.60" fill="#FD8D3C" stroke="none" text-anchor="end">2024</text>
<text transform="translate(138.0,231.0)" dy="6.5" font-size="21.60" fill="#F97C26" stroke="none" text-anchor="end">2025</text>
<g stroke="none" stroke-width="0.9000"  >
  <polygon points="941.2,232.9 905.2,205.9 782.9,205.9 782.9,171.7 949.6,171.7 949.6,205.9 929.2,205.9 941.2,232.9" fill="#2171B5"/>
</g>
<text transform="translate(794.9,188.8)" dy="6.5" font-size="21.60" fill="#FFF" stroke="none">2 Nov &#8211; 8 Nov</text>
<text transform="translate(156.0,607.4)" dy="25.2" font-size="25.20" fill="#000" stroke="none">January</text>
<text transform="translate(1086.0,607.4)" dy="25.2" font-size="25.20" fill="#000" stroke="none" text-anchor="end">December</text>
<text transform="translate(163.2,666.1)" font-size="19.80" font-family="Helvetica" fill="#BFBFBF" stroke="none" xml:space="preserve">Global Carbon Project</text>
<use xlink:href="#tick_y" transform="translate(0,549.5)"/>
<use xlink:href="#tick_y" transform="translate(0,485.5)"/>
<use xlink:href="#tick_y" transform="translate(0,421.6)"/>
<use xlink:href="#tick_y" transform="translate(0,357.6)"/>
<use xlink:href="#tick_y" transform="translate(0,293.7)"/>
<use xlink:href="#tick_y" transform="translate(0,229.7)"/>
<use xlink:href="#tick_y" transform="translate(0,165.7)"/>
<use xlink:href="#tick_y" transform="translate(0,101.8)"/>
<rect x="156.000" y="50.619" width="930.000" height="550.056" stroke="#262626" stroke-width="0.90" fill="none"/>
<g>
  <rect x="129.4" y="651.4" width="34" height="17" fill="#FFF" stroke="none" opacity="0.01"/>
  <g transform="translate(130.4,652.4) scale(0.24)">
  <g><circle fill="#FFF" cx="37.79" cy="28.5" r="28.84"/>
     <circle fill="none" cx="37.79" cy="28.5" r="28.84" stroke="#BFBFBF" stroke-width="5.5"/>
     <path fill="#BFBFBF" d="M37.16,23.19 l-4.29,2.23c-0.458-0.951-1.02-1.62-1.69-2c-0.667-0.38-1.29-0.571-1.86-0.571c-2.86,0-4.29,1.89-4.29,5.66 c0,1.71,0.36,3.08,1.09,4.11c0.724,1.03,1.79,1.54,3.2,1.54c1.87,0,3.18-0.915,3.94-2.74l3.94,2 c-0.838,1.56-2,2.79-3.49,3.69c-1.48,0.896-3.12,1.34-4.91,1.34c-2.86,0-5.16-0.875-6.92-2.63 c-1.75-1.75-2.63-4.19-2.63-7.31c0-3.05,0.886-5.47,2.66-7.26c1.77-1.79,4.01-2.69,6.72-2.69 C32.6,18.56,35.44,20.1,37.16,23.19z
              M55.61,23.19l-4.23,2.23c-0.457-0.951-1.02-1.62-1.69-2 c-0.668-0.38-1.31-0.571-1.91-0.571c-2.86,0-4.29,1.89-4.29,5.66c0,1.71,0.363,3.08,1.09,4.11 c0.723,1.03,1.79,1.54,3.2,1.54c1.87,0,3.18-0.915,3.94-2.74l4,2c-0.875,1.56-2.06,2.79-3.54,3.69 c-1.49,0.9-3.11,1.34-4.86,1.34c-2.9,0-5.21-0.875-6.94-2.63c-1.74-1.75-2.6-4.19-2.6-7.31 c0-3.05,0.885-5.47,2.66-7.26c1.77-1.79,4.01-2.69,6.71-2.69C51.12,18.56,53.944,20.1,55.61,23.19z"/>
  </g></g>
  <g transform="translate(146.6,652.4) scale(0.24)">
  <g><circle fill="#FFF" cx="37.79" cy="28.5" r="28.84"/>
     <circle fill="none" cx="37.79" cy="28.5" r="28.84" stroke="#BFBFBF" stroke-width="5.5"/>
     <path fill="#BFBFBF" d="M46.129,20.557v13.085h-3.656v15.542h-9.944V33.643h-3.656V20.557 c0-0.572,0.2-1.057,0.599-1.457c0.401-0.399,0.887-0.6,1.457-0.6h13.144c0.533,0,1.01,0.2,1.428,0.6 C45.918,19.5,46.129,19.986,46.129,20.557z
              M33.042,12.329c0-3.008,1.485-4.514,4.458-4.514s4.457,1.504,4.457,4.514 c0,2.971-1.486,4.457-4.457,4.457S33.042,15.3,33.042,12.329z"/>
  </g></g>
</g>
</g>
</svg>
