<svg version="1.1" xmlns="http://www.w3.org/2000/svg" xmlns:xlink="http://www.w3.org/1999/xlink" width="100%" height="100%" viewBox="0 0 1200.000 674.916">
<title>Annual CH4 Emissions: Israel</title>
<style type="text/css">
  #main {font-family:Helvetica,Arial,sans-serif; font-size:27.00px;
         fill-opacity:1; fill:#000000; stroke:none; stroke-linejoin:round; stroke-linecap:round; stroke-width:1.00;}
  .marker {stroke-opacity:0;fill-opacity:0;}
  .marker:hover {stroke-opacity:0.5; fill-opacity:1;}
  .ticklabel {font-size:27.00px;fill:#808080;stroke:none;font-family:Helvetica}
  .ytl {text-anchor:end;}
  .dp1 {pointer-events:none;font-size:70%;text-anchor:middle;fill:#000000;}
  .dp2 {pointer-events:none;font-size:70%;text-anchor:middle;fill:#FFFFFF;}
  .numtip {pointer-events:none;}
  .cc {opacity:0.25;}
.dl_fe {background-color:#FDFFDF;display:flex;margin:auto;align-items:center}
.dl_fe_p {font-size:20px;text-align:center;margin:3px}
.dl_el {display:none;pointer-events:none;}
.cc:hover + .dl_el {display:block;}
text:hover + .dl_el {display:block;}
</style>
<defs>
  <clipPath id="axis_clip"><rect x="145.8" y="54.2" width="761.2" height="532.8" /></clipPath>
  <path id="line_y" d="M 0,53.993 v 533.183" stroke="#262626" stroke-opacity="0.15" stroke-width="1.00"/>
  <path id="line_x" d="M 145.600,0 h 761.600" stroke="#262626" stroke-opacity="0.15" stroke-width="1.00"/>
  <path id="tick_y" d="M 145.600,0 h -6.000" stroke="#808080" stroke-width="0.90"/>
  <path id="tick_x" d="M 0,587.177 v 6.000" stroke="#808080" stroke-width="0.90"/>
</defs>
<g id="main">
<use xlink:href="#line_y" transform="translate(272.5,0)"/>
<use xlink:href="#line_y" transform="translate(413.6,0)"/>
<use xlink:href="#line_y" transform="translate(554.6,0)"/>
<use xlink:href="#line_y" transform="translate(695.6,0)"/>
<use xlink:href="#line_y" transform="translate(893.1,0)"/>
<use xlink:href="#line_x" transform="translate(0,587.2)"/>
<use xlink:href="#line_x" transform="translate(0,453.9)"/>
<use xlink:href="#line_x" transform="translate(0,320.6)"/>
<use xlink:href="#line_x" transform="translate(0,187.3)"/>
<use xlink:href="#line_x" transform="translate(0,54.0)"/>
<use xlink:href="#tick_y" transform="translate(0,587.2)"/>
<use xlink:href="#tick_y" transform="translate(0,453.9)"/>
<use xlink:href="#tick_y" transform="translate(0,320.6)"/>
<use xlink:href="#tick_y" transform="translate(0,187.3)"/>
<use xlink:href="#tick_y" transform="translate(0,54.0)"/>
<use xlink:href="#tick_x" transform="translate(272.5,0)"/>
<use xlink:href="#tick_x" transform="translate(413.6,0)"/>
<use xlink:href="#tick_x" transform="translate(554.6,0)"/>
<use xlink:href="#tick_x" transform="translate(695.6,0)"/>
<use xlink:href="#tick_x" transform="translate(893.1,0)"/>
<polyline points="145.6,53.993 145.6,587.177 907.2,587.177" stroke="#808080" stroke-width="0.90" fill="none"/>
<text class="ticklabel xtl" transform="translate(272.5,629.0)" text-anchor="middle">2000</text>
<text class="ticklabel xtl" transform="translate(413.6,629.0)" text-anchor="middle">2005</text>
<text class="ticklabel xtl" transform="translate(554.6,629.0)" text-anchor="middle">2010</text>
<text class="ticklabel xtl" transform="translate(695.6,629.0)" text-anchor="middle">2015</text>
<text class="ticklabel xtl" transform="translate(893.1,629.0)" text-anchor="middle">2022</text>
<text class="ticklabel ytl" transform="translate(128.8,595.3)">0</text>
<text class="ticklabel ytl" transform="translate(128.8,462.0)">100</text>
<text class="ticklabel ytl" transform="translate(128.8,328.7)">200</text>
<text class="ticklabel ytl" transform="translate(128.8,195.4)">300</text>
<text class="ticklabel ytl" transform="translate(128.8,62.1)">400 kt</text>
<g stroke="#000" stroke-width="0.90" fill="#DBA746"  clip-path="url(#axis_clip)">
  <polygon class="pl" points="148.4,363.3 148.4,525.6 171.0,525.6 171.0,363.3 148.4,363.3"/>
  <polygon class="pl" points="261.3,340.4 261.3,523.9 283.8,523.9 283.8,340.4 261.3,340.4"/>
  <polygon class="pl" points="345.9,275.2 345.9,529.5 368.4,529.5 368.4,275.2 345.9,275.2"/>
  <polygon class="pl" points="374.1,257.7 374.1,529.0 396.6,529.0 396.6,257.7 374.1,257.7"/>
  <polygon class="pl" points="402.3,237.2 402.3,526.8 424.9,526.8 424.9,237.2 402.3,237.2"/>
  <polygon class="pl" points="430.5,218.3 430.5,523.5 453.1,523.5 453.1,218.3 430.5,218.3"/>
  <polygon class="pl" points="458.7,204.8 458.7,523.1 481.3,523.1 481.3,204.8 458.7,204.8"/>
  <polygon class="pl" points="486.9,189.9 486.9,521.0 509.5,521.0 509.5,189.9 486.9,189.9"/>
  <polygon class="pl" points="515.1,181.9 515.1,522.8 537.7,522.8 537.7,181.9 515.1,181.9"/>
  <polygon class="pl" points="543.3,159.9 543.3,521.0 565.9,521.0 565.9,159.9 543.3,159.9"/>
  <polygon class="pl" points="571.5,157.5 571.5,531.0 594.1,531.0 594.1,157.5 571.5,157.5"/>
  <polygon class="pl" points="599.7,144.3 599.7,530.2 622.3,530.2 622.3,144.3 599.7,144.3"/>
  <polygon class="pl" points="627.9,142.5 627.9,529.0 650.5,529.0 650.5,142.5 627.9,142.5"/>
  <polygon class="pl" points="656.2,134.3 656.2,528.6 678.7,528.6 678.7,134.3 656.2,134.3"/>
  <polygon class="pl" points="684.4,133.0 684.4,526.9 706.9,526.9 706.9,133.0 684.4,133.0"/>
  <polygon class="pl" points="712.6,123.3 712.6,527.7 735.1,527.7 735.1,123.3 712.6,123.3"/>
  <polygon class="pl" points="740.8,121.3 740.8,527.7 763.3,527.7 763.3,121.3 740.8,121.3"/>
  <polygon class="pl" points="769.0,117.2 769.0,525.0 791.5,525.0 791.5,117.2 769.0,117.2"/>
  <polygon class="pl" points="797.2,120.9 797.2,522.0 819.8,522.0 819.8,120.9 797.2,120.9"/>
  <polygon class="pl" points="825.4,118.4 825.4,523.7 848.0,523.7 848.0,118.4 825.4,118.4"/>
  <polygon class="pl" points="853.6,104.4 853.6,522.3 876.2,522.3 876.2,104.4 853.6,104.4"/>
  <polygon class="pl" points="881.8,89.8 881.8,520.0 904.4,520.0 904.4,89.8 881.8,89.8"/>
</g>
<g stroke="#000" stroke-width="0.90" fill="#845F48"  clip-path="url(#axis_clip)">
  <polygon class="pl" points="148.4,525.6 148.4,582.2 171.0,582.2 171.0,525.6 148.4,525.6"/>
  <polygon class="pl" points="261.3,523.9 261.3,582.3 283.8,582.3 283.8,523.9 261.3,523.9"/>
  <polygon class="pl" points="345.9,529.5 345.9,582.5 368.4,582.5 368.4,529.5 345.9,529.5"/>
  <polygon class="pl" points="374.1,529.0 374.1,582.6 396.6,582.6 396.6,529.0 374.1,529.0"/>
  <polygon class="pl" points="402.3,526.8 402.3,582.5 424.9,582.5 424.9,526.8 402.3,526.8"/>
  <polygon class="pl" points="430.5,523.5 430.5,582.5 453.1,582.5 453.1,523.5 430.5,523.5"/>
  <polygon class="pl" points="458.7,523.1 458.7,582.2 481.3,582.2 481.3,523.1 458.7,523.1"/>
  <polygon class="pl" points="486.9,521.0 486.9,582.1 509.5,582.1 509.5,521.0 486.9,521.0"/>
  <polygon class="pl" points="515.1,522.8 515.1,582.2 537.7,582.2 537.7,522.8 515.1,522.8"/>
  <polygon class="pl" points="543.3,521.0 543.3,582.0 565.9,582.0 565.9,521.0 543.3,521.0"/>
  <polygon class="pl" points="571.5,531.0 571.5,581.8 594.1,581.8 594.1,531.0 571.5,531.0"/>
  <polygon class="pl" points="599.7,530.2 599.7,581.5 622.3,581.5 622.3,530.2 599.7,530.2"/>
  <polygon class="pl" points="627.9,529.0 627.9,581.8 650.5,581.8 650.5,529.0 627.9,529.0"/>
  <polygon class="pl" points="656.2,528.6 656.2,581.8 678.7,581.8 678.7,528.6 656.2,528.6"/>
  <polygon class="pl" points="684.4,526.9 684.4,581.5 706.9,581.5 706.9,526.9 684.4,526.9"/>
  <polygon class="pl" points="712.6,527.7 712.6,581.3 735.1,581.3 735.1,527.7 712.6,527.7"/>
  <polygon class="pl" points="740.8,527.7 740.8,581.1 763.3,581.1 763.3,527.7 740.8,527.7"/>
  <polygon class="pl" points="769.0,525.0 769.0,581.0 791.5,581.0 791.5,525.0 769.0,525.0"/>
  <polygon class="pl" points="797.2,522.0 797.2,580.9 819.8,580.9 819.8,522.0 797.2,522.0"/>
  <polygon class="pl" points="825.4,523.7 825.4,581.4 848.0,581.4 848.0,523.7 825.4,523.7"/>
  <polygon class="pl" points="853.6,522.3 853.6,581.1 876.2,581.1 876.2,522.3 853.6,522.3"/>
  <polygon class="pl" points="881.8,520.0 881.8,580.8 904.4,580.8 904.4,520.0 881.8,520.0"/>
</g>
<g stroke="#000" stroke-width="0.90" fill="#4A89E8"  clip-path="url(#axis_clip)">
  <polygon class="pl" points="148.4,582.2 148.4,582.4 171.0,582.4 171.0,582.2 148.4,582.2"/>
  <polygon class="pl" points="261.3,582.3 261.3,582.6 283.8,582.6 283.8,582.3 261.3,582.3"/>
  <polygon class="pl" points="345.9,582.5 345.9,582.7 368.4,582.7 368.4,582.5 345.9,582.5"/>
  <polygon class="pl" points="374.1,582.6 374.1,582.8 396.6,582.8 396.6,582.6 374.1,582.6"/>
  <polygon class="pl" points="402.3,582.5 402.3,582.8 424.9,582.8 424.9,582.5 402.3,582.5"/>
  <polygon class="pl" points="430.5,582.5 430.5,582.7 453.1,582.7 453.1,582.5 430.5,582.5"/>
  <polygon class="pl" points="458.7,582.2 458.7,582.5 481.3,582.5 481.3,582.2 458.7,582.2"/>
  <polygon class="pl" points="486.9,582.1 486.9,582.4 509.5,582.4 509.5,582.1 486.9,582.1"/>
  <polygon class="pl" points="515.1,582.2 515.1,582.5 537.7,582.5 537.7,582.2 515.1,582.2"/>
  <polygon class="pl" points="543.3,582.0 543.3,582.3 565.9,582.3 565.9,582.0 543.3,582.0"/>
  <polygon class="pl" points="571.5,581.8 571.5,582.2 594.1,582.2 594.1,581.8 571.5,581.8"/>
  <polygon class="pl" points="599.7,581.5 599.7,581.8 622.3,581.8 622.3,581.5 599.7,581.5"/>
  <polygon class="pl" points="627.9,581.8 627.9,582.1 650.5,582.1 650.5,581.8 627.9,581.8"/>
  <polygon class="pl" points="656.2,581.8 656.2,582.0 678.7,582.0 678.7,581.8 656.2,581.8"/>
  <polygon class="pl" points="684.4,581.5 684.4,581.7 706.9,581.7 706.9,581.5 684.4,581.5"/>
  <polygon class="pl" points="712.6,581.3 712.6,581.5 735.1,581.5 735.1,581.3 712.6,581.3"/>
  <polygon class="pl" points="740.8,581.1 740.8,581.4 763.3,581.4 763.3,581.1 740.8,581.1"/>
  <polygon class="pl" points="769.0,581.0 769.0,581.3 791.5,581.3 791.5,581.0 769.0,581.0"/>
  <polygon class="pl" points="797.2,580.9 797.2,581.2 819.8,581.2 819.8,580.9 797.2,580.9"/>
  <polygon class="pl" points="825.4,581.4 825.4,581.7 848.0,581.7 848.0,581.4 825.4,581.4"/>
  <polygon class="pl" points="853.6,581.1 853.6,581.3 876.2,581.3 876.2,581.1 853.6,581.1"/>
  <polygon class="pl" points="881.8,580.8 881.8,581.0 904.4,581.0 904.4,580.8 881.8,580.8"/>
</g>
<g stroke="#000" stroke-width="0.90" fill="#FF7F61"  clip-path="url(#axis_clip)">
  <polygon class="pl" points="148.4,582.4 148.4,587.2 171.0,587.2 171.0,582.4 148.4,582.4"/>
  <polygon class="pl" points="261.3,582.6 261.3,587.2 283.8,587.2 283.8,582.6 261.3,582.6"/>
  <polygon class="pl" points="345.9,582.7 345.9,587.2 368.4,587.2 368.4,582.7 345.9,582.7"/>
  <polygon class="pl" points="374.1,582.8 374.1,587.2 396.6,587.2 396.6,582.8 374.1,582.8"/>
  <polygon class="pl" points="402.3,582.8 402.3,587.2 424.9,587.2 424.9,582.8 402.3,582.8"/>
  <polygon class="pl" points="430.5,582.7 430.5,587.2 453.1,587.2 453.1,582.7 430.5,582.7"/>
  <polygon class="pl" points="458.7,582.5 458.7,587.2 481.3,587.2 481.3,582.5 458.7,582.5"/>
  <polygon class="pl" points="486.9,582.4 486.9,587.2 509.5,587.2 509.5,582.4 486.9,582.4"/>
  <polygon class="pl" points="515.1,582.5 515.1,587.2 537.7,587.2 537.7,582.5 515.1,582.5"/>
  <polygon class="pl" points="543.3,582.3 543.3,587.2 565.9,587.2 565.9,582.3 543.3,582.3"/>
  <polygon class="pl" points="571.5,582.2 571.5,587.2 594.1,587.2 594.1,582.2 571.5,582.2"/>
  <polygon class="pl" points="599.7,581.8 599.7,587.2 622.3,587.2 622.3,581.8 599.7,581.8"/>
  <polygon class="pl" points="627.9,582.1 627.9,587.2 650.5,587.2 650.5,582.1 627.9,582.1"/>
  <polygon class="pl" points="656.2,582.0 656.2,587.2 678.7,587.2 678.7,582.0 656.2,582.0"/>
  <polygon class="pl" points="684.4,581.7 684.4,587.2 706.9,587.2 706.9,581.7 684.4,581.7"/>
  <polygon class="pl" points="712.6,581.5 712.6,587.2 735.1,587.2 735.1,581.5 712.6,581.5"/>
  <polygon class="pl" points="740.8,581.4 740.8,587.2 763.3,587.2 763.3,581.4 740.8,581.4"/>
  <polygon class="pl" points="769.0,581.3 769.0,587.2 791.5,587.2 791.5,581.3 769.0,581.3"/>
  <polygon class="pl" points="797.2,581.2 797.2,587.2 819.8,587.2 819.8,581.2 797.2,581.2"/>
  <polygon class="pl" points="825.4,581.7 825.4,587.2 848.0,587.2 848.0,581.7 825.4,581.7"/>
  <polygon class="pl" points="853.6,581.3 853.6,587.2 876.2,587.2 876.2,581.3 853.6,581.3"/>
  <polygon class="pl" points="881.8,581.0 881.8,587.2 904.4,587.2 904.4,581.0 881.8,581.0"/>
</g>
<polyline class="pl" points="159.7,363.3 272.5,340.4 357.2,275.2 385.4,257.7 413.6,237.2 441.8,218.3 470.0,204.8 498.2,189.9 526.4,181.9 554.6,159.9 582.8,157.5 611.0,144.3 639.2,142.5 667.4,134.3 695.6,133.0 723.9,123.3 752.1,121.3 780.3,117.2 808.5,120.9 836.7,118.4 864.9,104.4 893.1,89.8" stroke="#000" stroke-width="5.40" stroke-opacity="1.00" fill="none" clip-path="url(#axis_clip)"/>
<g class="pl" fill="#FFF" stroke="#000" stroke-width="0.900">
  <circle cx="159.7" cy="363.3" r="2.2" />
  <circle cx="357.2" cy="275.2" r="2.2" />
  <circle cx="385.4" cy="257.7" r="2.2" />
  <circle cx="413.6" cy="237.2" r="2.2" />
  <circle cx="441.8" cy="218.3" r="2.2" />
  <circle cx="470.0" cy="204.8" r="2.2" />
  <circle cx="498.2" cy="189.9" r="2.2" />
  <circle cx="526.4" cy="181.9" r="2.2" />
  <circle cx="582.8" cy="157.5" r="2.2" />
  <circle cx="611.0" cy="144.3" r="2.2" />
  <circle cx="639.2" cy="142.5" r="2.2" />
  <circle cx="667.4" cy="134.3" r="2.2" />
  <circle cx="695.6" cy="133.0" r="2.2" />
  <circle cx="723.9" cy="123.3" r="2.2" />
  <circle cx="752.1" cy="121.3" r="2.2" />
  <circle cx="780.3" cy="117.2" r="2.2" />
  <circle cx="808.5" cy="120.9" r="2.2" />
  <circle cx="864.9" cy="104.4" r="2.2" />
  <circle cx="893.1" cy="89.8" r="2.2" />
</g>
<g class="pl" fill="#FFF" stroke="#000" stroke-width="0.900">
  <circle cx="272.5" cy="340.4" r="5.4" />
  <circle cx="554.6" cy="159.9" r="5.4" />
  <circle cx="836.7" cy="118.4" r="5.4" />
</g>
<text transform="translate(145.6,47.2)" dy="0.0" font-size="27.00" fill="#808080" stroke="none">Annual CH<tspan dy="0.2em"><tspan style="font-size:70%">4</tspan></tspan><tspan dy="-0.2em"> </tspan>Emissions: Israel</text>
<text transform="translate(130.0,81.6)" dy="8.1" font-size="27.00" fill="#808080" stroke="none" text-anchor="end">CH<tspan dy="0.2em"><tspan style="font-size:70%">4</tspan></tspan><tspan dy="-0.2em"></tspan></text>
<text transform="translate(945.6,89.8)" dy="7.6" font-size="25.20" fill="#000" stroke="none">+122.2% since 1996</text>
<text transform="translate(945.6,587.2)" dy="7.6" font-size="25.20" fill="#FF7F61" stroke="none">Energy</text>
<text transform="translate(945.6,562.1)" dy="7.6" font-size="25.20" fill="#4A89E8" stroke="none">Industrial Processes</text>
<text transform="translate(945.6,537.1)" dy="7.6" font-size="25.20" fill="#845F48" stroke="none">Agriculture</text>
<text transform="translate(945.6,304.9)" dy="7.6" font-size="25.20" fill="#DBA746" stroke="none">Waste</text>
<polyline class="pl" points="910.8,584.1 912.4,584.1 913.8,584.1 915.2,584.2 916.4,584.3 917.6,584.3 918.8,584.4 919.8,584.5 920.8,584.7 921.7,584.8 922.7,584.9 923.5,585.1 924.4,585.2 925.2,585.4 926.0,585.6 926.8,585.7 927.6,585.9 928.4,586.0 929.3,586.2 930.1,586.3 931.1,586.5 932.0,586.6 933.0,586.7 934.0,586.8 935.2,586.9 936.4,587.0 937.6,587.1 939.0,587.1 940.4,587.2 942.0,587.2" stroke="#FF7F61" stroke-width="0.90" stroke-opacity="1.00" fill="none" />
<polyline class="pl" points="910.8,580.9 912.4,580.8 913.8,580.6 915.2,580.3 916.4,579.9 917.6,579.4 918.8,578.8 919.8,578.1 920.8,577.4 921.7,576.6 922.7,575.7 923.5,574.8 924.4,573.9 925.2,573.0 926.0,572.0 926.8,571.0 927.6,570.1 928.4,569.1 929.3,568.2 930.1,567.3 931.1,566.4 932.0,565.6 933.0,564.9 934.0,564.2 935.2,563.6 936.4,563.1 937.6,562.7 939.0,562.4 940.4,562.2 942.0,562.1" stroke="#4A89E8" stroke-width="0.90" stroke-opacity="1.00" fill="none" />
<polyline class="pl" points="910.8,550.4 912.4,550.3 913.8,550.2 915.2,550.0 916.4,549.7 917.6,549.3 918.8,548.9 919.8,548.4 920.8,547.9 921.7,547.3 922.7,546.7 923.5,546.1 924.4,545.4 925.2,544.8 926.0,544.1 926.8,543.4 927.6,542.7 928.4,542.0 929.3,541.4 930.1,540.7 931.1,540.1 932.0,539.6 933.0,539.0 934.0,538.6 935.2,538.1 936.4,537.8 937.6,537.5 939.0,537.3 940.4,537.1 942.0,537.1" stroke="#845F48" stroke-width="0.90" stroke-opacity="1.00" fill="none" />
<text transform="translate(160.0,666.1)" font-size="19.80" font-family="Helvetica" fill="#BFBFBF" stroke="none" xml:space="preserve">CICERO   &#9679;   Data: UNFCCC (2022)</text>
<g>
  <rect x="123.0" y="651.4" width="34" height="17" fill="#FFF" stroke="none" opacity="0.01"/>
  <g transform="translate(124.0,652.4) scale(0.24)">
  <g><circle fill="#FFF" cx="37.79" cy="28.5" r="28.84"/>
     <circle fill="none" cx="37.79" cy="28.5" r="28.84" stroke="#BFBFBF" stroke-width="5.5"/>
     <path fill="#BFBFBF" d="M37.16,23.19 l-4.29,2.23c-0.458-0.951-1.02-1.62-1.69-2c-0.667-0.38-1.29-0.571-1.86-0.571c-2.86,0-4.29,1.89-4.29,5.66 c0,1.71,0.36,3.08,1.09,4.11c0.724,1.03,1.79,1.54,3.2,1.54c1.87,0,3.18-0.915,3.94-2.74l3.94,2 c-0.838,1.56-2,2.79-3.49,3.69c-1.48,0.896-3.12,1.34-4.91,1.34c-2.86,0-5.16-0.875-6.92-2.63 c-1.75-1.75-2.63-4.19-2.63-7.31c0-3.05,0.886-5.47,2.66-7.26c1.77-1.79,4.01-2.69,6.72-2.69 C32.6,18.56,35.44,20.1,37.16,23.19z
              M55.61,23.19l-4.23,2.23c-0.457-0.951-1.02-1.62-1.69-2 c-0.668-0.38-1.31-0.571-1.91-0.571c-2.86,0-4.29,1.89-4.29,5.66c0,1.71,0.363,3.08,1.09,4.11 c0.723,1.03,1.79,1.54,3.2,1.54c1.87,0,3.18-0.915,3.94-2.74l4,2c-0.875,1.56-2.06,2.79-3.54,3.69 c-1.49,0.9-3.11,1.34-4.86,1.34c-2.9,0-5.21-0.875-6.94-2.63c-1.74-1.75-2.6-4.19-2.6-7.31 c0-3.05,0.885-5.47,2.66-7.26c1.77-1.79,4.01-2.69,6.71-2.69C51.12,18.56,53.944,20.1,55.61,23.19z"/>
  </g></g>
  <g transform="translate(140.2,652.4) scale(0.24)">
  <g><circle fill="#FFF" cx="37.79" cy="28.5" r="28.84"/>
     <circle fill="none" cx="37.79" cy="28.5" r="28.84" stroke="#BFBFBF" stroke-width="5.5"/>
     <path fill="#BFBFBF" d="M46.129,20.557v13.085h-3.656v15.542h-9.944V33.643h-3.656V20.557 c0-0.572,0.2-1.057,0.599-1.457c0.401-0.399,0.887-0.6,1.457-0.6h13.144c0.533,0,1.01,0.2,1.428,0.6 C45.918,19.5,46.129,19.986,46.129,20.557z
              M33.042,12.329c0-3.008,1.485-4.514,4.458-4.514s4.457,1.504,4.457,4.514 c0,2.971-1.486,4.457-4.457,4.457S33.042,15.3,33.042,12.329z"/>
  </g></g>
</g>
</g>
</svg>
