<svg version="1.1" xmlns="http://www.w3.org/2000/svg" xmlns:xlink="http://www.w3.org/1999/xlink" width="100%" height="100%" viewBox="0 0 1200.000 674.916">
<title>Annual Energy sector Emissions: United Kingdom</title>
<style type="text/css">
  #main {font-family:Helvetica,Arial,sans-serif; font-size:27.00px;
         fill-opacity:1; fill:#000000; stroke:none; stroke-linejoin:round; stroke-linecap:round; stroke-width:1.00;}
  .marker {stroke-opacity:0;fill-opacity:0;}
  .marker:hover {stroke-opacity:0.5; fill-opacity:1;}
  .ticklabel {font-size:27.00px;fill:#808080;stroke:none;font-family:Helvetica}
  .ytl {text-anchor:end;}
  .dp1 {pointer-events:none;font-size:70%;text-anchor:middle;fill:#000000;}
  .dp2 {pointer-events:none;font-size:70%;text-anchor:middle;fill:#FFFFFF;}
  .numtip {pointer-events:none;}
  .cc {opacity:0.25;}
.dl_fe {background-color:#FDFFDF;display:flex;margin:auto;align-items:center}
.dl_fe_p {font-size:20px;text-align:center;margin:3px}
.dl_el {display:none;pointer-events:none;}
.cc:hover + .dl_el {display:block;}
text:hover + .dl_el {display:block;}
</style>
<defs>
  <clipPath id="axis_clip"><rect x="145.8" y="54.2" width="761.2" height="532.8" /></clipPath>
  <path id="line_y" d="M 0,53.993 v 533.183" stroke="#262626" stroke-opacity="0.15" stroke-width="1.00"/>
  <path id="line_x" d="M 145.600,0 h 761.600" stroke="#262626" stroke-opacity="0.15" stroke-width="1.00"/>
  <path id="tick_y" d="M 145.600,0 h -6.000" stroke="#808080" stroke-width="0.90"/>
  <path id="tick_x" d="M 0,587.177 v 6.000" stroke="#808080" stroke-width="0.90"/>
</defs>
<g id="main">
<use xlink:href="#line_y" transform="translate(157.1,0)"/>
<use xlink:href="#line_y" transform="translate(272.5,0)"/>
<use xlink:href="#line_y" transform="translate(387.9,0)"/>
<use xlink:href="#line_y" transform="translate(503.3,0)"/>
<use xlink:href="#line_y" transform="translate(618.7,0)"/>
<use xlink:href="#line_y" transform="translate(734.1,0)"/>
<use xlink:href="#line_y" transform="translate(895.7,0)"/>
<use xlink:href="#line_x" transform="translate(0,587.2)"/>
<use xlink:href="#line_x" transform="translate(0,498.3)"/>
<use xlink:href="#line_x" transform="translate(0,409.4)"/>
<use xlink:href="#line_x" transform="translate(0,320.6)"/>
<use xlink:href="#line_x" transform="translate(0,231.7)"/>
<use xlink:href="#line_x" transform="translate(0,142.9)"/>
<use xlink:href="#line_x" transform="translate(0,54.0)"/>
<use xlink:href="#tick_y" transform="translate(0,587.2)"/>
<use xlink:href="#tick_y" transform="translate(0,498.3)"/>
<use xlink:href="#tick_y" transform="translate(0,409.4)"/>
<use xlink:href="#tick_y" transform="translate(0,320.6)"/>
<use xlink:href="#tick_y" transform="translate(0,231.7)"/>
<use xlink:href="#tick_y" transform="translate(0,142.9)"/>
<use xlink:href="#tick_y" transform="translate(0,54.0)"/>
<use xlink:href="#tick_x" transform="translate(157.1,0)"/>
<use xlink:href="#tick_x" transform="translate(272.5,0)"/>
<use xlink:href="#tick_x" transform="translate(387.9,0)"/>
<use xlink:href="#tick_x" transform="translate(503.3,0)"/>
<use xlink:href="#tick_x" transform="translate(618.7,0)"/>
<use xlink:href="#tick_x" transform="translate(734.1,0)"/>
<use xlink:href="#tick_x" transform="translate(895.7,0)"/>
<polyline points="145.6,53.993 145.6,587.177 907.2,587.177" stroke="#808080" stroke-width="0.90" fill="none"/>
<text class="ticklabel xtl" transform="translate(157.1,629.0)" text-anchor="middle">1990</text>
<text class="ticklabel xtl" transform="translate(272.5,629.0)" text-anchor="middle">1995</text>
<text class="ticklabel xtl" transform="translate(387.9,629.0)" text-anchor="middle">2000</text>
<text class="ticklabel xtl" transform="translate(503.3,629.0)" text-anchor="middle">2005</text>
<text class="ticklabel xtl" transform="translate(618.7,629.0)" text-anchor="middle">2010</text>
<text class="ticklabel xtl" transform="translate(734.1,629.0)" text-anchor="middle">2015</text>
<text class="ticklabel xtl" transform="translate(895.7,629.0)" text-anchor="middle">2022</text>
<text class="ticklabel ytl" transform="translate(128.8,595.3)">0</text>
<text class="ticklabel ytl" transform="translate(128.8,506.4)">100</text>
<text class="ticklabel ytl" transform="translate(128.8,417.5)">200</text>
<text class="ticklabel ytl" transform="translate(128.8,328.7)">300</text>
<text class="ticklabel ytl" transform="translate(128.8,239.8)">400</text>
<text class="ticklabel ytl" transform="translate(128.8,151.0)">500</text>
<text class="ticklabel ytl" transform="translate(128.8,62.1)">600 Mt</text>
<g stroke="#000" stroke-width="0.90" fill="#D95319"  clip-path="url(#axis_clip)">
</g>
<g stroke="#000" stroke-width="0.90" fill="#0072BD"  clip-path="url(#axis_clip)">
</g>
<g stroke="#000" stroke-width="0.90" fill="#7FBF7F"  clip-path="url(#axis_clip)">
  <polygon points="147.9,91.7 147.9,96.5 166.4,96.5 166.4,91.7 147.9,91.7"/>
  <polygon points="171.0,82.4 171.0,86.2 189.4,86.2 189.4,82.4 171.0,82.4"/>
  <polygon points="194.1,95.8 194.1,99.5 212.5,99.5 212.5,95.8 194.1,95.8"/>
  <polygon points="217.1,107.8 217.1,111.6 235.6,111.6 235.6,107.8 217.1,107.8"/>
  <polygon points="240.2,116.0 240.2,119.6 258.7,119.6 258.7,116.0 240.2,116.0"/>
  <polygon points="263.3,124.7 263.3,128.2 281.8,128.2 281.8,124.7 263.3,124.7"/>
  <polygon points="286.4,108.4 286.4,111.8 304.8,111.8 304.8,108.4 286.4,108.4"/>
  <polygon points="309.5,126.7 309.5,129.9 327.9,129.9 327.9,126.7 309.5,126.7"/>
  <polygon points="332.5,120.2 332.5,123.1 351.0,123.1 351.0,120.2 332.5,120.2"/>
  <polygon points="355.6,126.1 355.6,129.0 374.1,129.0 374.1,126.1 355.6,126.1"/>
  <polygon points="378.7,117.2 378.7,119.8 397.2,119.8 397.2,117.2 378.7,117.2"/>
  <polygon points="401.8,106.4 401.8,109.0 420.2,109.0 420.2,106.4 401.8,106.4"/>
  <polygon points="424.9,119.4 424.9,122.2 443.3,122.2 443.3,119.4 424.9,119.4"/>
  <polygon points="447.9,112.2 447.9,115.1 466.4,115.1 466.4,112.2 447.9,112.2"/>
  <polygon points="471.0,112.1 471.0,114.9 489.5,114.9 489.5,112.1 471.0,112.1"/>
  <polygon points="494.1,114.6 494.1,117.1 512.6,117.1 512.6,114.6 494.1,114.6"/>
  <polygon points="517.2,116.3 517.2,119.4 535.6,119.4 535.6,116.3 517.2,116.3"/>
  <polygon points="540.2,125.2 540.2,128.6 558.7,128.6 558.7,125.2 540.2,125.2"/>
  <polygon points="563.3,135.3 563.3,138.2 581.8,138.2 581.8,135.3 563.3,135.3"/>
  <polygon points="586.4,173.0 586.4,175.7 604.9,175.7 604.9,173.0 586.4,173.0"/>
  <polygon points="609.5,156.9 609.5,159.5 627.9,159.5 627.9,156.9 609.5,156.9"/>
  <polygon points="632.6,193.0 632.6,195.5 651.0,195.5 651.0,193.0 632.6,193.0"/>
  <polygon points="655.6,177.5 655.6,179.8 674.1,179.8 674.1,177.5 655.6,177.5"/>
  <polygon points="678.7,190.5 678.7,192.5 697.2,192.5 697.2,190.5 678.7,190.5"/>
  <polygon points="701.8,225.4 701.8,227.2 720.3,227.2 720.3,225.4 701.8,225.4"/>
  <polygon points="724.9,238.2 724.9,239.7 743.3,239.7 743.3,238.2 724.9,238.2"/>
  <polygon points="748.0,255.5 748.0,256.9 766.4,256.9 766.4,255.5 748.0,255.5"/>
  <polygon points="771.0,265.5 771.0,267.0 789.5,267.0 789.5,265.5 771.0,265.5"/>
  <polygon points="794.1,269.7 794.1,271.2 812.6,271.2 812.6,269.7 794.1,269.7"/>
  <polygon points="817.2,282.0 817.2,283.5 835.7,283.5 835.7,282.0 817.2,282.0"/>
  <polygon points="840.3,316.0 840.3,317.2 858.7,317.2 858.7,316.0 840.3,316.0"/>
  <polygon points="863.4,298.3 863.4,299.7 881.8,299.7 881.8,298.3 863.4,298.3"/>
  <polygon points="886.4,308.0 886.4,309.3 904.9,309.3 904.9,308.0 886.4,308.0"/>
</g>
<g stroke="#000" stroke-width="0.90" fill="#7FDEDE"  clip-path="url(#axis_clip)">
  <polygon points="147.9,96.5 147.9,198.6 166.4,198.6 166.4,96.5 147.9,96.5"/>
  <polygon points="171.0,86.2 171.0,198.7 189.4,198.7 189.4,86.2 171.0,86.2"/>
  <polygon points="194.1,99.5 194.1,209.0 212.5,209.0 212.5,99.5 194.1,99.5"/>
  <polygon points="217.1,111.6 217.1,224.2 235.6,224.2 235.6,111.6 217.1,111.6"/>
  <polygon points="240.2,119.6 240.2,227.6 258.7,227.6 258.7,119.6 240.2,119.6"/>
  <polygon points="263.3,128.2 263.3,232.3 281.8,232.3 281.8,128.2 263.3,128.2"/>
  <polygon points="286.4,111.8 286.4,227.7 304.8,227.7 304.8,111.8 286.4,111.8"/>
  <polygon points="309.5,129.9 309.5,237.0 327.9,237.0 327.9,129.9 309.5,129.9"/>
  <polygon points="332.5,123.1 332.5,233.0 351.0,233.0 351.0,123.1 332.5,123.1"/>
  <polygon points="355.6,129.0 355.6,240.3 374.1,240.3 374.1,129.0 355.6,129.0"/>
  <polygon points="378.7,119.8 378.7,230.4 397.2,230.4 397.2,119.8 378.7,119.8"/>
  <polygon points="401.8,109.0 401.8,222.3 420.2,222.3 420.2,109.0 401.8,109.0"/>
  <polygon points="424.9,122.2 424.9,228.3 443.3,228.3 443.3,122.2 424.9,122.2"/>
  <polygon points="447.9,115.1 447.9,221.7 466.4,221.7 466.4,115.1 447.9,115.1"/>
  <polygon points="471.0,114.9 471.0,224.1 489.5,224.1 489.5,114.9 471.0,114.9"/>
  <polygon points="494.1,117.1 494.1,222.5 512.6,222.5 512.6,117.1 494.1,117.1"/>
  <polygon points="517.2,119.4 517.2,220.4 535.6,220.4 535.6,119.4 517.2,119.4"/>
  <polygon points="540.2,128.6 540.2,225.1 558.7,225.1 558.7,128.6 540.2,128.6"/>
  <polygon points="563.3,138.2 563.3,239.3 581.8,239.3 581.8,138.2 563.3,138.2"/>
  <polygon points="586.4,175.7 586.4,270.1 604.9,270.1 604.9,175.7 586.4,175.7"/>
  <polygon points="609.5,159.5 609.5,263.5 627.9,263.5 627.9,159.5 609.5,159.5"/>
  <polygon points="632.6,195.5 632.6,280.6 651.0,280.6 651.0,195.5 632.6,195.5"/>
  <polygon points="655.6,179.8 655.6,273.6 674.1,273.6 674.1,179.8 655.6,179.8"/>
  <polygon points="678.7,192.5 678.7,286.9 697.2,286.9 697.2,192.5 678.7,192.5"/>
  <polygon points="701.8,227.2 701.8,307.8 720.3,307.8 720.3,227.2 701.8,227.2"/>
  <polygon points="724.9,239.7 724.9,324.1 743.3,324.1 743.3,239.7 724.9,239.7"/>
  <polygon points="748.0,256.9 748.0,342.5 766.4,342.5 766.4,256.9 748.0,256.9"/>
  <polygon points="771.0,267.0 771.0,350.9 789.5,350.9 789.5,267.0 771.0,267.0"/>
  <polygon points="794.1,271.2 794.1,357.7 812.6,357.7 812.6,271.2 794.1,271.2"/>
  <polygon points="817.2,283.5 817.2,367.2 835.7,367.2 835.7,283.5 817.2,283.5"/>
  <polygon points="840.3,317.2 840.3,399.6 858.7,399.6 858.7,317.2 840.3,317.2"/>
  <polygon points="863.4,299.7 863.4,386.4 881.8,386.4 881.8,299.7 863.4,299.7"/>
  <polygon points="886.4,309.3 886.4,384.8 904.9,384.8 904.9,309.3 886.4,309.3"/>
</g>
<g stroke="#000" stroke-width="0.90" fill="#DEDE7F"  clip-path="url(#axis_clip)">
  <polygon points="147.9,198.6 147.9,308.4 166.4,308.4 166.4,198.6 147.9,198.6"/>
  <polygon points="171.0,198.7 171.0,307.7 189.4,307.7 189.4,198.7 171.0,198.7"/>
  <polygon points="194.1,209.0 194.1,319.3 212.5,319.3 212.5,209.0 194.1,209.0"/>
  <polygon points="217.1,224.2 217.1,335.6 235.6,335.6 235.6,224.2 217.1,224.2"/>
  <polygon points="240.2,227.6 240.2,340.3 258.7,340.3 258.7,227.6 240.2,227.6"/>
  <polygon points="263.3,232.3 263.3,344.5 281.8,344.5 281.8,232.3 263.3,232.3"/>
  <polygon points="286.4,227.7 286.4,343.9 304.8,343.9 304.8,227.7 286.4,227.7"/>
  <polygon points="309.5,237.0 309.5,353.8 327.9,353.8 327.9,237.0 309.5,237.0"/>
  <polygon points="332.5,233.0 332.5,349.3 351.0,349.3 351.0,233.0 332.5,233.0"/>
  <polygon points="355.6,240.3 355.6,358.0 374.1,358.0 374.1,240.3 355.6,240.3"/>
  <polygon points="378.7,230.4 378.7,346.7 397.2,346.7 397.2,230.4 378.7,230.4"/>
  <polygon points="401.8,222.3 401.8,338.5 420.2,338.5 420.2,222.3 401.8,222.3"/>
  <polygon points="424.9,228.3 424.9,347.0 443.3,347.0 443.3,228.3 424.9,228.3"/>
  <polygon points="447.9,221.7 447.9,339.8 466.4,339.8 466.4,221.7 447.9,221.7"/>
  <polygon points="471.0,224.1 471.0,343.3 489.5,343.3 489.5,224.1 471.0,224.1"/>
  <polygon points="494.1,222.5 494.1,342.2 512.6,342.2 512.6,222.5 494.1,222.5"/>
  <polygon points="517.2,220.4 517.2,339.6 535.6,339.6 535.6,220.4 517.2,220.4"/>
  <polygon points="540.2,225.1 540.2,345.0 558.7,345.0 558.7,225.1 540.2,225.1"/>
  <polygon points="563.3,239.3 563.3,354.8 581.8,354.8 581.8,239.3 563.3,239.3"/>
  <polygon points="586.4,270.1 586.4,381.4 604.9,381.4 604.9,270.1 586.4,270.1"/>
  <polygon points="609.5,263.5 609.5,373.3 627.9,373.3 627.9,263.5 609.5,263.5"/>
  <polygon points="632.6,280.6 632.6,388.5 651.0,388.5 651.0,280.6 632.6,280.6"/>
  <polygon points="655.6,273.6 655.6,380.5 674.1,380.5 674.1,273.6 655.6,273.6"/>
  <polygon points="678.7,286.9 678.7,392.8 697.2,392.8 697.2,286.9 678.7,286.9"/>
  <polygon points="701.8,307.8 701.8,415.2 720.3,415.2 720.3,307.8 701.8,307.8"/>
  <polygon points="724.9,324.1 724.9,433.8 743.3,433.8 743.3,324.1 724.9,324.1"/>
  <polygon points="748.0,342.5 748.0,454.6 766.4,454.6 766.4,342.5 748.0,342.5"/>
  <polygon points="771.0,350.9 771.0,463.1 789.5,463.1 789.5,350.9 771.0,350.9"/>
  <polygon points="794.1,357.7 794.1,468.3 812.6,468.3 812.6,357.7 794.1,357.7"/>
  <polygon points="817.2,367.2 817.2,476.2 835.7,476.2 835.7,367.2 817.2,367.2"/>
  <polygon points="840.3,399.6 840.3,486.9 858.7,486.9 858.7,399.6 840.3,399.6"/>
  <polygon points="863.4,386.4 863.4,482.8 881.8,482.8 881.8,386.4 863.4,386.4"/>
  <polygon points="886.4,384.8 886.4,483.1 904.9,483.1 904.9,384.8 886.4,384.8"/>
</g>
<g stroke="#000" stroke-width="0.90" fill="#7F7FFF"  clip-path="url(#axis_clip)">
  <polygon points="147.9,308.4 147.9,374.3 166.4,374.3 166.4,308.4 147.9,308.4"/>
  <polygon points="171.0,307.7 171.0,376.7 189.4,376.7 189.4,307.7 171.0,307.7"/>
  <polygon points="194.1,319.3 194.1,386.3 212.5,386.3 212.5,319.3 194.1,319.3"/>
  <polygon points="217.1,335.6 217.1,400.4 235.6,400.4 235.6,335.6 217.1,335.6"/>
  <polygon points="240.2,340.3 240.2,404.2 258.7,404.2 258.7,340.3 240.2,340.3"/>
  <polygon points="263.3,344.5 263.3,406.0 281.8,406.0 281.8,344.5 263.3,344.5"/>
  <polygon points="286.4,343.9 286.4,405.2 304.8,405.2 304.8,343.9 286.4,343.9"/>
  <polygon points="309.5,353.8 309.5,414.8 327.9,414.8 327.9,353.8 309.5,353.8"/>
  <polygon points="332.5,349.3 332.5,409.7 351.0,409.7 351.0,349.3 332.5,349.3"/>
  <polygon points="355.6,358.0 355.6,418.1 374.1,418.1 374.1,358.0 355.6,358.0"/>
  <polygon points="378.7,346.7 378.7,408.5 397.2,408.5 397.2,346.7 378.7,346.7"/>
  <polygon points="401.8,338.5 401.8,398.7 420.2,398.7 420.2,338.5 401.8,338.5"/>
  <polygon points="424.9,347.0 424.9,401.4 443.3,401.4 443.3,347.0 424.9,347.0"/>
  <polygon points="447.9,339.8 447.9,394.5 466.4,394.5 466.4,339.8 447.9,339.8"/>
  <polygon points="471.0,343.3 471.0,396.1 489.5,396.1 489.5,343.3 471.0,343.3"/>
  <polygon points="494.1,342.2 494.1,395.8 512.6,395.8 512.6,342.2 494.1,342.2"/>
  <polygon points="517.2,339.6 517.2,390.6 535.6,390.6 535.6,339.6 517.2,339.6"/>
  <polygon points="540.2,345.0 540.2,395.1 558.7,395.1 558.7,345.0 540.2,345.0"/>
  <polygon points="563.3,354.8 563.3,400.1 581.8,400.1 581.8,354.8 563.3,354.8"/>
  <polygon points="586.4,381.4 586.4,420.7 604.9,420.7 604.9,381.4 586.4,381.4"/>
  <polygon points="609.5,373.3 609.5,414.2 627.9,414.2 627.9,373.3 609.5,373.3"/>
  <polygon points="632.6,388.5 632.6,426.9 651.0,426.9 651.0,388.5 632.6,388.5"/>
  <polygon points="655.6,380.5 655.6,417.0 674.1,417.0 674.1,380.5 655.6,380.5"/>
  <polygon points="678.7,392.8 678.7,427.8 697.2,427.8 697.2,392.8 678.7,392.8"/>
  <polygon points="701.8,415.2 701.8,449.8 720.3,449.8 720.3,415.2 701.8,415.2"/>
  <polygon points="724.9,433.8 724.9,467.2 743.3,467.2 743.3,433.8 724.9,433.8"/>
  <polygon points="748.0,454.6 748.0,487.0 766.4,487.0 766.4,454.6 748.0,454.6"/>
  <polygon points="771.0,463.1 771.0,496.1 789.5,496.1 789.5,463.1 771.0,463.1"/>
  <polygon points="794.1,468.3 794.1,502.5 812.6,502.5 812.6,468.3 794.1,468.3"/>
  <polygon points="817.2,476.2 817.2,509.4 835.7,509.4 835.7,476.2 817.2,476.2"/>
  <polygon points="840.3,486.9 840.3,518.4 858.7,518.4 858.7,486.9 840.3,486.9"/>
  <polygon points="863.4,482.8 863.4,515.7 881.8,515.7 881.8,482.8 863.4,482.8"/>
  <polygon points="886.4,483.1 886.4,514.9 904.9,514.9 904.9,483.1 886.4,483.1"/>
</g>
<g stroke="#000" stroke-width="0.90" fill="#FF7F7F"  clip-path="url(#axis_clip)">
  <polygon points="147.9,374.3 147.9,587.2 166.4,587.2 166.4,374.3 147.9,374.3"/>
  <polygon points="171.0,376.7 171.0,587.2 189.4,587.2 189.4,376.7 171.0,376.7"/>
  <polygon points="194.1,386.3 194.1,587.2 212.5,587.2 212.5,386.3 194.1,386.3"/>
  <polygon points="217.1,400.4 217.1,587.2 235.6,587.2 235.6,400.4 217.1,400.4"/>
  <polygon points="240.2,404.2 240.2,587.2 258.7,587.2 258.7,404.2 240.2,404.2"/>
  <polygon points="263.3,406.0 263.3,587.2 281.8,587.2 281.8,406.0 263.3,406.0"/>
  <polygon points="286.4,405.2 286.4,587.2 304.8,587.2 304.8,405.2 286.4,405.2"/>
  <polygon points="309.5,414.8 309.5,587.2 327.9,587.2 327.9,414.8 309.5,414.8"/>
  <polygon points="332.5,409.7 332.5,587.2 351.0,587.2 351.0,409.7 332.5,409.7"/>
  <polygon points="355.6,418.1 355.6,587.2 374.1,587.2 374.1,418.1 355.6,418.1"/>
  <polygon points="378.7,408.5 378.7,587.2 397.2,587.2 397.2,408.5 378.7,408.5"/>
  <polygon points="401.8,398.7 401.8,587.2 420.2,587.2 420.2,398.7 401.8,398.7"/>
  <polygon points="424.9,401.4 424.9,587.2 443.3,587.2 443.3,401.4 424.9,401.4"/>
  <polygon points="447.9,394.5 447.9,587.2 466.4,587.2 466.4,394.5 447.9,394.5"/>
  <polygon points="471.0,396.1 471.0,587.2 489.5,587.2 489.5,396.1 471.0,396.1"/>
  <polygon points="494.1,395.8 494.1,587.2 512.6,587.2 512.6,395.8 494.1,395.8"/>
  <polygon points="517.2,390.6 517.2,587.2 535.6,587.2 535.6,390.6 517.2,390.6"/>
  <polygon points="540.2,395.1 540.2,587.2 558.7,587.2 558.7,395.1 540.2,395.1"/>
  <polygon points="563.3,400.1 563.3,587.2 581.8,587.2 581.8,400.1 563.3,400.1"/>
  <polygon points="586.4,420.7 586.4,587.2 604.9,587.2 604.9,420.7 586.4,420.7"/>
  <polygon points="609.5,414.2 609.5,587.2 627.9,587.2 627.9,414.2 609.5,414.2"/>
  <polygon points="632.6,426.9 632.6,587.2 651.0,587.2 651.0,426.9 632.6,426.9"/>
  <polygon points="655.6,417.0 655.6,587.2 674.1,587.2 674.1,417.0 655.6,417.0"/>
  <polygon points="678.7,427.8 678.7,587.2 697.2,587.2 697.2,427.8 678.7,427.8"/>
  <polygon points="701.8,449.8 701.8,587.2 720.3,587.2 720.3,449.8 701.8,449.8"/>
  <polygon points="724.9,467.2 724.9,587.2 743.3,587.2 743.3,467.2 724.9,467.2"/>
  <polygon points="748.0,487.0 748.0,587.2 766.4,587.2 766.4,487.0 748.0,487.0"/>
  <polygon points="771.0,496.1 771.0,587.2 789.5,587.2 789.5,496.1 771.0,496.1"/>
  <polygon points="794.1,502.5 794.1,587.2 812.6,587.2 812.6,502.5 794.1,502.5"/>
  <polygon points="817.2,509.4 817.2,587.2 835.7,587.2 835.7,509.4 817.2,509.4"/>
  <polygon points="840.3,518.4 840.3,587.2 858.7,587.2 858.7,518.4 840.3,518.4"/>
  <polygon points="863.4,515.7 863.4,587.2 881.8,587.2 881.8,515.7 863.4,515.7"/>
  <polygon points="886.4,514.9 886.4,587.2 904.9,587.2 904.9,514.9 886.4,514.9"/>
</g>
<g stroke="#000" stroke-width="0.90" fill="#D95319"  clip-path="url(#axis_clip)">
</g>
<g stroke="#000" stroke-width="0.90" fill="#0072BD"  clip-path="url(#axis_clip)">
</g>
<g stroke="#000" stroke-width="0.90" fill="#7FBF7F"  clip-path="url(#axis_clip)">
</g>
<g stroke="#000" stroke-width="0.90" fill="#7FDEDE"  clip-path="url(#axis_clip)">
</g>
<g stroke="#000" stroke-width="0.90" fill="#DEDE7F"  clip-path="url(#axis_clip)">
</g>
<g stroke="#000" stroke-width="0.90" fill="#7F7FFF"  clip-path="url(#axis_clip)">
</g>
<g stroke="#000" stroke-width="0.90" fill="#FF7F7F"  clip-path="url(#axis_clip)">
</g>
<polyline class="pl" points="157.1,91.7 180.2,82.4 203.3,95.8 226.4,107.8 249.5,116.0 272.5,124.7 295.6,108.4 318.7,126.7 341.8,120.2 364.8,126.1 387.9,117.2 411.0,106.4 434.1,119.4 457.2,112.2 480.2,112.1 503.3,114.6 526.4,116.3 549.5,125.2 572.6,135.3 595.6,173.0 618.7,156.9 641.8,193.0 664.9,177.5 688.0,190.5 711.0,225.4 734.1,238.2 757.2,255.5 780.3,265.5 803.3,269.7 826.4,282.0 849.5,316.0 872.6,298.3 895.7,308.0" stroke="#000" stroke-width="5.40" stroke-opacity="1.00" fill="none" clip-path="url(#axis_clip)"/>
<g class="pl" fill="#FFF" stroke="#000" stroke-width="0.900">
  <circle cx="180.2" cy="82.4" r="2.2" />
  <circle cx="203.3" cy="95.8" r="2.2" />
  <circle cx="226.4" cy="107.8" r="2.2" />
  <circle cx="249.5" cy="116.0" r="2.2" />
  <circle cx="272.5" cy="124.7" r="2.2" />
  <circle cx="295.6" cy="108.4" r="2.2" />
  <circle cx="318.7" cy="126.7" r="2.2" />
  <circle cx="341.8" cy="120.2" r="2.2" />
  <circle cx="364.8" cy="126.1" r="2.2" />
  <circle cx="411.0" cy="106.4" r="2.2" />
  <circle cx="434.1" cy="119.4" r="2.2" />
  <circle cx="457.2" cy="112.2" r="2.2" />
  <circle cx="480.2" cy="112.1" r="2.2" />
  <circle cx="503.3" cy="114.6" r="2.2" />
  <circle cx="526.4" cy="116.3" r="2.2" />
  <circle cx="549.5" cy="125.2" r="2.2" />
  <circle cx="572.6" cy="135.3" r="2.2" />
  <circle cx="595.6" cy="173.0" r="2.2" />
  <circle cx="641.8" cy="193.0" r="2.2" />
  <circle cx="664.9" cy="177.5" r="2.2" />
  <circle cx="688.0" cy="190.5" r="2.2" />
  <circle cx="711.0" cy="225.4" r="2.2" />
  <circle cx="734.1" cy="238.2" r="2.2" />
  <circle cx="757.2" cy="255.5" r="2.2" />
  <circle cx="780.3" cy="265.5" r="2.2" />
  <circle cx="803.3" cy="269.7" r="2.2" />
  <circle cx="826.4" cy="282.0" r="2.2" />
  <circle cx="872.6" cy="298.3" r="2.2" />
  <circle cx="895.7" cy="308.0" r="2.2" />
</g>
<g class="pl" fill="#FFF" stroke="#000" stroke-width="0.900">
  <circle cx="157.1" cy="91.7" r="5.4" />
  <circle cx="387.9" cy="117.2" r="5.4" />
  <circle cx="618.7" cy="156.9" r="5.4" />
  <circle cx="849.5" cy="316.0" r="5.4" />
</g>
<text transform="translate(145.6,47.2)" dy="0.0" font-size="27.00" fill="#808080" stroke="none">Annual Energy sector Emissions: United Kingdom</text>
<text transform="translate(130.0,81.6)" dy="8.1" font-size="27.00" fill="#808080" stroke="none" text-anchor="end">CO<tspan dy="0.2em"><tspan style="font-size:70%">2</tspan></tspan><tspan dy="-0.2em">e</tspan></text>
<text transform="translate(945.6,295.8)" dy="7.6" font-size="25.20" fill="#000" stroke="none">-43.6% since 1990</text>
<text transform="translate(945.6,551.1)" dy="7.6" font-size="25.20" fill="#FF7F7F" stroke="none">Energy industries</text>
<text transform="translate(945.6,499.0)" dy="7.6" font-size="25.20" fill="#7F7FFF" stroke="none">Manufacturing</text>
<text transform="translate(945.6,433.9)" dy="7.6" font-size="25.20" fill="#DEDE7F" stroke="none">Transport</text>
<text transform="translate(945.6,347.1)" dy="7.6" font-size="25.20" fill="#7FDEDE" stroke="none">Other sectors</text>
<text transform="translate(945.6,320.8)" dy="7.6" font-size="25.20" fill="#7FBF7F" stroke="none">Other</text>
<polyline class="pl" points="910.8,308.0 912.4,307.9 913.8,307.8 915.2,307.6 916.4,307.3 917.6,307.0 918.8,306.6 919.8,306.2 920.8,305.7 921.7,305.2 922.7,304.6 923.5,304.0 924.4,303.4 925.2,302.8 926.0,302.2 926.8,301.6 927.6,300.9 928.4,300.3 929.3,299.7 930.1,299.1 931.1,298.6 932.0,298.0 933.0,297.6 934.0,297.1 935.2,296.7 936.4,296.4 937.6,296.1 939.0,295.9 940.4,295.8 942.0,295.8" stroke="#000" stroke-width="0.90" stroke-opacity="1.00" fill="none" />
<polyline class="pl" points="910.8,308.6 912.4,308.7 913.8,308.8 915.2,309.0 916.4,309.3 917.6,309.6 918.8,310.0 919.8,310.4 920.8,310.9 921.7,311.4 922.7,312.0 923.5,312.6 924.4,313.2 925.2,313.8 926.0,314.4 926.8,315.0 927.6,315.7 928.4,316.3 929.3,316.9 930.1,317.5 931.1,318.0 932.0,318.5 933.0,319.0 934.0,319.5 935.2,319.9 936.4,320.2 937.6,320.5 939.0,320.7 940.4,320.8 942.0,320.8" stroke="#7FBF7F" stroke-width="0.90" stroke-opacity="1.00" fill="none" />
<text transform="translate(160.0,666.1)" font-size="19.80" font-family="Helvetica" fill="#BFBFBF" stroke="none" xml:space="preserve">CICERO   &#9679;   Data: UNFCCC (2024)</text>
<g>
  <rect x="123.0" y="651.4" width="34" height="17" fill="#FFF" stroke="none"/>
  <g transform="translate(124.0,652.4) scale(0.24)">
  <g><circle fill="#FFF" cx="37.79" cy="28.5" r="28.84"/>
     <circle fill="none" cx="37.79" cy="28.5" r="28.84" stroke="#BFBFBF" stroke-width="5.5"/>
     <path fill="#BFBFBF" d="M37.16,23.19 l-4.29,2.23c-0.458-0.951-1.02-1.62-1.69-2c-0.667-0.38-1.29-0.571-1.86-0.571c-2.86,0-4.29,1.89-4.29,5.66 c0,1.71,0.36,3.08,1.09,4.11c0.724,1.03,1.79,1.54,3.2,1.54c1.87,0,3.18-0.915,3.94-2.74l3.94,2 c-0.838,1.56-2,2.79-3.49,3.69c-1.48,0.896-3.12,1.34-4.91,1.34c-2.86,0-5.16-0.875-6.92-2.63 c-1.75-1.75-2.63-4.19-2.63-7.31c0-3.05,0.886-5.47,2.66-7.26c1.77-1.79,4.01-2.69,6.72-2.69 C32.6,18.56,35.44,20.1,37.16,23.19z
              M55.61,23.19l-4.23,2.23c-0.457-0.951-1.02-1.62-1.69-2 c-0.668-0.38-1.31-0.571-1.91-0.571c-2.86,0-4.29,1.89-4.29,5.66c0,1.71,0.363,3.08,1.09,4.11 c0.723,1.03,1.79,1.54,3.2,1.54c1.87,0,3.18-0.915,3.94-2.74l4,2c-0.875,1.56-2.06,2.79-3.54,3.69 c-1.49,0.9-3.11,1.34-4.86,1.34c-2.9,0-5.21-0.875-6.94-2.63c-1.74-1.75-2.6-4.19-2.6-7.31 c0-3.05,0.885-5.47,2.66-7.26c1.77-1.79,4.01-2.69,6.71-2.69C51.12,18.56,53.944,20.1,55.61,23.19z"/>
  </g></g>
  <g transform="translate(140.2,652.4) scale(0.24)">
  <g><circle fill="#FFF" cx="37.79" cy="28.5" r="28.84"/>
     <circle fill="none" cx="37.79" cy="28.5" r="28.84" stroke="#BFBFBF" stroke-width="5.5"/>
     <path fill="#BFBFBF" d="M46.129,20.557v13.085h-3.656v15.542h-9.944V33.643h-3.656V20.557 c0-0.572,0.2-1.057,0.599-1.457c0.401-0.399,0.887-0.6,1.457-0.6h13.144c0.533,0,1.01,0.2,1.428,0.6 C45.918,19.5,46.129,19.986,46.129,20.557z
              M33.042,12.329c0-3.008,1.485-4.514,4.458-4.514s4.457,1.504,4.457,4.514 c0,2.971-1.486,4.457-4.457,4.457S33.042,15.3,33.042,12.329z"/>
  </g></g>
</g>
</g>
</svg>
