<svg version="1.1" xmlns="http://www.w3.org/2000/svg" xmlns:xlink="http://www.w3.org/1999/xlink" width="100%" height="100%" viewBox="0 0 1200.000 674.916">
<title>Annual LULUCF emissions: United Kingdom</title>
<style type="text/css">
  #main {font-family:Helvetica,Arial,sans-serif; font-size:27.00px;
         fill-opacity:1; fill:#000000; stroke:none; stroke-linejoin:round; stroke-linecap:round; stroke-width:1.00;}
  .marker {stroke-opacity:0;fill-opacity:0;}
  .marker:hover {stroke-opacity:0.5; fill-opacity:1;}
  .ticklabel {font-size:27.00px;fill:#808080;stroke:none;font-family:Helvetica}
  .ytl {text-anchor:end;}
  .dp1 {pointer-events:none;font-size:70%;text-anchor:middle;fill:#000000;}
  .dp2 {pointer-events:none;font-size:70%;text-anchor:middle;fill:#FFFFFF;}
  .numtip {pointer-events:none;}
  .cc {opacity:0.25;}
.dl_fe {background-color:#FDFFDF;display:flex;margin:auto;align-items:center}
.dl_fe_p {font-size:20px;text-align:center;margin:3px}
.dl_el {display:none;pointer-events:none;}
.cc:hover + .dl_el {display:block;}
text:hover + .dl_el {display:block;}
</style>
<defs>
  <clipPath id="axis_clip"><rect x="145.8" y="54.2" width="761.2" height="532.8" /></clipPath>
  <path id="line_x" d="M 145.600,0 h 761.600" stroke="#262626" stroke-opacity="0.15" stroke-width="1.00"/>
  <path id="tick_y" d="M 145.600,0 h -6.000" stroke="#808080" stroke-width="0.90"/>
  <path id="tick_x" d="M 0,587.177 v 6.000" stroke="#808080" stroke-width="0.90"/>
</defs>
<g id="main">
<use xlink:href="#line_x" transform="translate(0,587.2)"/>
<use xlink:href="#line_x" transform="translate(0,498.3)"/>
<use xlink:href="#line_x" transform="translate(0,409.4)"/>
<use xlink:href="#line_x" transform="translate(0,320.6)"/>
<use xlink:href="#line_x" transform="translate(0,231.7)"/>
<use xlink:href="#line_x" transform="translate(0,142.9)"/>
<use xlink:href="#line_x" transform="translate(0,54.0)"/>
<use xlink:href="#tick_y" transform="translate(0,587.2)"/>
<use xlink:href="#tick_y" transform="translate(0,498.3)"/>
<use xlink:href="#tick_y" transform="translate(0,409.4)"/>
<use xlink:href="#tick_y" transform="translate(0,320.6)"/>
<use xlink:href="#tick_y" transform="translate(0,231.7)"/>
<use xlink:href="#tick_y" transform="translate(0,142.9)"/>
<use xlink:href="#tick_y" transform="translate(0,54.0)"/>
<use xlink:href="#tick_x" transform="translate(156.5,0)"/>
<use xlink:href="#tick_x" transform="translate(265.3,0)"/>
<use xlink:href="#tick_x" transform="translate(374.1,0)"/>
<use xlink:href="#tick_x" transform="translate(482.9,0)"/>
<use xlink:href="#tick_x" transform="translate(591.7,0)"/>
<use xlink:href="#tick_x" transform="translate(700.5,0)"/>
<use xlink:href="#tick_x" transform="translate(809.3,0)"/>
<use xlink:href="#tick_x" transform="translate(896.3,0)"/>
<polyline points="145.6,53.993 145.6,587.177 907.2,587.177" stroke="#808080" stroke-width="0.90" fill="none"/>
<text class="ticklabel xtl" transform="translate(156.5,629.0)" text-anchor="middle">1990</text>
<text class="ticklabel xtl" transform="translate(265.3,629.0)" text-anchor="middle">1995</text>
<text class="ticklabel xtl" transform="translate(374.1,629.0)" text-anchor="middle">2000</text>
<text class="ticklabel xtl" transform="translate(482.9,629.0)" text-anchor="middle">2005</text>
<text class="ticklabel xtl" transform="translate(591.7,629.0)" text-anchor="middle">2010</text>
<text class="ticklabel xtl" transform="translate(700.5,629.0)" text-anchor="middle">2015</text>
<text class="ticklabel xtl" transform="translate(809.3,629.0)" text-anchor="middle">2020</text>
<text class="ticklabel xtl" transform="translate(896.3,629.0)" text-anchor="middle">2024</text>
<text class="ticklabel ytl" transform="translate(128.8,595.3)">-30</text>
<text class="ticklabel ytl" transform="translate(128.8,506.4)">-20</text>
<text class="ticklabel ytl" transform="translate(128.8,417.5)">-10</text>
<text class="ticklabel ytl" transform="translate(128.8,328.7)">0</text>
<text class="ticklabel ytl" transform="translate(128.8,239.8)">10</text>
<text class="ticklabel ytl" transform="translate(128.8,151.0)">20</text>
<text class="ticklabel ytl" transform="translate(128.8,62.1)">30 Mt</text>
<g stroke="#000" stroke-width="0.90" fill="#1A4D1A"  clip-path="url(#axis_clip)">
  <polygon class="pl" points="147.8,85.3 147.8,86.3 165.2,86.3 165.2,85.3 147.8,85.3"/>
  <polygon class="pl" points="169.5,86.8 169.5,87.8 186.9,87.8 186.9,86.8 169.5,86.8"/>
  <polygon class="pl" points="191.3,89.6 191.3,90.6 208.7,90.6 208.7,89.6 191.3,89.6"/>
  <polygon class="pl" points="213.1,90.9 213.1,91.8 230.5,91.8 230.5,90.9 213.1,90.9"/>
  <polygon class="pl" points="234.8,92.6 234.8,93.6 252.2,93.6 252.2,92.6 234.8,92.6"/>
  <polygon class="pl" points="256.6,91.3 256.6,92.2 274.0,92.2 274.0,91.3 256.6,91.3"/>
  <polygon class="pl" points="278.3,96.5 278.3,97.5 295.7,97.5 295.7,96.5 278.3,96.5"/>
  <polygon class="pl" points="300.1,98.8 300.1,99.8 317.5,99.8 317.5,98.8 300.1,98.8"/>
  <polygon class="pl" points="321.9,102.8 321.9,103.8 339.3,103.8 339.3,102.8 321.9,102.8"/>
  <polygon class="pl" points="343.6,98.5 343.6,99.4 361.0,99.4 361.0,98.5 343.6,98.5"/>
  <polygon class="pl" points="365.4,96.3 365.4,97.3 382.8,97.3 382.8,96.3 365.4,96.3"/>
  <polygon class="pl" points="387.1,98.9 387.1,99.9 404.5,99.9 404.5,98.9 387.1,98.9"/>
  <polygon class="pl" points="408.9,103.9 408.9,104.9 426.3,104.9 426.3,103.9 408.9,103.9"/>
  <polygon class="pl" points="430.7,102.4 430.7,103.3 448.1,103.3 448.1,102.4 430.7,102.4"/>
  <polygon class="pl" points="452.4,108.2 452.4,109.1 469.8,109.1 469.8,108.2 452.4,108.2"/>
  <polygon class="pl" points="474.2,109.8 474.2,110.7 491.6,110.7 491.6,109.8 474.2,109.8"/>
  <polygon class="pl" points="495.9,113.3 495.9,114.2 513.3,114.2 513.3,113.3 495.9,113.3"/>
  <polygon class="pl" points="517.7,114.7 517.7,115.6 535.1,115.6 535.1,114.7 517.7,114.7"/>
  <polygon class="pl" points="539.5,118.9 539.5,119.8 556.9,119.8 556.9,118.9 539.5,118.9"/>
  <polygon class="pl" points="561.2,118.5 561.2,119.4 578.6,119.4 578.6,118.5 561.2,118.5"/>
  <polygon class="pl" points="583.0,118.3 583.0,119.2 600.4,119.2 600.4,118.3 583.0,118.3"/>
  <polygon class="pl" points="604.7,124.0 604.7,124.9 622.1,124.9 622.1,124.0 604.7,124.0"/>
  <polygon class="pl" points="626.5,125.2 626.5,126.1 643.9,126.1 643.9,125.2 626.5,125.2"/>
  <polygon class="pl" points="648.3,127.9 648.3,128.8 665.7,128.8 665.7,127.9 648.3,127.9"/>
  <polygon class="pl" points="670.0,130.7 670.0,131.5 687.4,131.5 687.4,130.7 670.0,130.7"/>
  <polygon class="pl" points="691.8,132.6 691.8,133.4 709.2,133.4 709.2,132.6 691.8,132.6"/>
  <polygon class="pl" points="713.5,128.8 713.5,129.6 730.9,129.6 730.9,128.8 713.5,128.8"/>
  <polygon class="pl" points="735.3,132.7 735.3,133.5 752.7,133.5 752.7,132.7 735.3,132.7"/>
  <polygon class="pl" points="757.1,129.3 757.1,130.1 774.5,130.1 774.5,129.3 757.1,129.3"/>
  <polygon class="pl" points="778.8,133.7 778.8,134.5 796.2,134.5 796.2,133.7 778.8,133.7"/>
  <polygon class="pl" points="800.6,134.7 800.6,135.6 818.0,135.6 818.0,134.7 800.6,134.7"/>
  <polygon class="pl" points="822.3,133.5 822.3,134.4 839.7,134.4 839.7,133.5 822.3,133.5"/>
  <polygon class="pl" points="844.1,134.1 844.1,135.0 861.5,135.0 861.5,134.1 844.1,134.1"/>
  <polygon class="pl" points="865.9,136.1 865.9,136.9 883.3,136.9 883.3,136.1 865.9,136.1"/>
  <polygon class="pl" points="887.6,138.5 887.6,139.3 905.0,139.3 905.0,138.5 887.6,138.5"/>
</g>
<g stroke="#000" stroke-width="0.90" fill="#7B417F"  clip-path="url(#axis_clip)">
</g>
<g stroke="#000" stroke-width="0.90" fill="#808080"  clip-path="url(#axis_clip)">
  <polygon class="pl" points="147.8,86.3 147.8,138.9 165.2,138.9 165.2,86.3 147.8,86.3"/>
  <polygon class="pl" points="169.5,87.8 169.5,139.4 186.9,139.4 186.9,87.8 169.5,87.8"/>
  <polygon class="pl" points="191.3,90.6 191.3,141.2 208.7,141.2 208.7,90.6 191.3,90.6"/>
  <polygon class="pl" points="213.1,91.8 213.1,141.5 230.5,141.5 230.5,91.8 213.1,91.8"/>
  <polygon class="pl" points="234.8,93.6 234.8,142.4 252.2,142.4 252.2,93.6 234.8,93.6"/>
  <polygon class="pl" points="256.6,92.2 256.6,140.3 274.0,140.3 274.0,92.2 256.6,92.2"/>
  <polygon class="pl" points="278.3,97.5 278.3,144.2 295.7,144.2 295.7,97.5 278.3,97.5"/>
  <polygon class="pl" points="300.1,99.8 300.1,146.4 317.5,146.4 317.5,99.8 300.1,99.8"/>
  <polygon class="pl" points="321.9,103.8 321.9,149.1 339.3,149.1 339.3,103.8 321.9,103.8"/>
  <polygon class="pl" points="343.6,99.4 343.6,144.0 361.0,144.0 361.0,99.4 343.6,99.4"/>
  <polygon class="pl" points="365.4,97.3 365.4,139.4 382.8,139.4 382.8,97.3 365.4,97.3"/>
  <polygon class="pl" points="387.1,99.9 387.1,140.3 404.5,140.3 404.5,99.9 387.1,99.9"/>
  <polygon class="pl" points="408.9,104.9 408.9,144.5 426.3,144.5 426.3,104.9 408.9,104.9"/>
  <polygon class="pl" points="430.7,103.3 430.7,143.3 448.1,143.3 448.1,103.3 430.7,103.3"/>
  <polygon class="pl" points="452.4,109.1 452.4,149.8 469.8,149.8 469.8,109.1 452.4,109.1"/>
  <polygon class="pl" points="474.2,110.7 474.2,151.1 491.6,151.1 491.6,110.7 474.2,110.7"/>
  <polygon class="pl" points="495.9,114.2 495.9,152.1 513.3,152.1 513.3,114.2 495.9,114.2"/>
  <polygon class="pl" points="517.7,115.6 517.7,154.2 535.1,154.2 535.1,115.6 517.7,115.6"/>
  <polygon class="pl" points="539.5,119.8 539.5,157.5 556.9,157.5 556.9,119.8 539.5,119.8"/>
  <polygon class="pl" points="561.2,119.4 561.2,156.0 578.6,156.0 578.6,119.4 561.2,119.4"/>
  <polygon class="pl" points="583.0,119.2 583.0,157.0 600.4,157.0 600.4,119.2 583.0,119.2"/>
  <polygon class="pl" points="604.7,124.9 604.7,161.8 622.1,161.8 622.1,124.9 604.7,124.9"/>
  <polygon class="pl" points="626.5,126.1 626.5,162.3 643.9,162.3 643.9,126.1 626.5,126.1"/>
  <polygon class="pl" points="648.3,128.8 648.3,164.3 665.7,164.3 665.7,128.8 648.3,128.8"/>
  <polygon class="pl" points="670.0,131.5 670.0,166.0 687.4,166.0 687.4,131.5 670.0,131.5"/>
  <polygon class="pl" points="691.8,133.4 691.8,168.1 709.2,168.1 709.2,133.4 691.8,133.4"/>
  <polygon class="pl" points="713.5,129.6 713.5,168.3 730.9,168.3 730.9,129.6 713.5,129.6"/>
  <polygon class="pl" points="735.3,133.5 735.3,170.8 752.7,170.8 752.7,133.5 735.3,133.5"/>
  <polygon class="pl" points="757.1,130.1 757.1,168.8 774.5,168.8 774.5,130.1 757.1,130.1"/>
  <polygon class="pl" points="778.8,134.5 778.8,172.6 796.2,172.6 796.2,134.5 778.8,134.5"/>
  <polygon class="pl" points="800.6,135.6 800.6,172.8 818.0,172.8 818.0,135.6 800.6,135.6"/>
  <polygon class="pl" points="822.3,134.4 822.3,172.5 839.7,172.5 839.7,134.4 822.3,134.4"/>
  <polygon class="pl" points="844.1,135.0 844.1,173.3 861.5,173.3 861.5,135.0 844.1,135.0"/>
  <polygon class="pl" points="865.9,136.9 865.9,175.1 883.3,175.1 883.3,136.9 865.9,136.9"/>
  <polygon class="pl" points="887.6,139.3 887.6,177.7 905.0,177.7 905.0,139.3 887.6,139.3"/>
</g>
<g stroke="#000" stroke-width="0.90" fill="#EDB120"  clip-path="url(#axis_clip)">
  <polygon class="pl" points="147.8,138.9 147.8,164.2 165.2,164.2 165.2,138.9 147.8,138.9"/>
  <polygon class="pl" points="169.5,139.4 169.5,165.0 186.9,165.0 186.9,139.4 169.5,139.4"/>
  <polygon class="pl" points="191.3,141.2 191.3,166.4 208.7,166.4 208.7,141.2 191.3,141.2"/>
  <polygon class="pl" points="213.1,141.5 213.1,166.6 230.5,166.6 230.5,141.5 213.1,141.5"/>
  <polygon class="pl" points="234.8,142.4 234.8,168.5 252.2,168.5 252.2,142.4 234.8,142.4"/>
  <polygon class="pl" points="256.6,140.3 256.6,167.1 274.0,167.1 274.0,140.3 256.6,140.3"/>
  <polygon class="pl" points="278.3,144.2 278.3,170.0 295.7,170.0 295.7,144.2 278.3,144.2"/>
  <polygon class="pl" points="300.1,146.4 300.1,171.6 317.5,171.6 317.5,146.4 300.1,146.4"/>
  <polygon class="pl" points="321.9,149.1 321.9,173.2 339.3,173.2 339.3,149.1 321.9,149.1"/>
  <polygon class="pl" points="343.6,144.0 343.6,169.1 361.0,169.1 361.0,144.0 343.6,144.0"/>
  <polygon class="pl" points="365.4,139.4 365.4,165.2 382.8,165.2 382.8,139.4 365.4,139.4"/>
  <polygon class="pl" points="387.1,140.3 387.1,166.5 404.5,166.5 404.5,140.3 387.1,140.3"/>
  <polygon class="pl" points="408.9,144.5 408.9,169.0 426.3,169.0 426.3,144.5 408.9,144.5"/>
  <polygon class="pl" points="430.7,143.3 430.7,170.0 448.1,170.0 448.1,143.3 430.7,143.3"/>
  <polygon class="pl" points="452.4,149.8 452.4,175.1 469.8,175.1 469.8,149.8 452.4,149.8"/>
  <polygon class="pl" points="474.2,151.1 474.2,177.0 491.6,177.0 491.6,151.1 474.2,151.1"/>
  <polygon class="pl" points="495.9,152.1 495.9,178.3 513.3,178.3 513.3,152.1 495.9,152.1"/>
  <polygon class="pl" points="517.7,154.2 517.7,179.3 535.1,179.3 535.1,154.2 517.7,154.2"/>
  <polygon class="pl" points="539.5,157.5 539.5,182.4 556.9,182.4 556.9,157.5 539.5,157.5"/>
  <polygon class="pl" points="561.2,156.0 561.2,181.2 578.6,181.2 578.6,156.0 561.2,156.0"/>
  <polygon class="pl" points="583.0,157.0 583.0,182.5 600.4,182.5 600.4,157.0 583.0,157.0"/>
  <polygon class="pl" points="604.7,161.8 604.7,186.9 622.1,186.9 622.1,161.8 604.7,161.8"/>
  <polygon class="pl" points="626.5,162.3 626.5,187.2 643.9,187.2 643.9,162.3 626.5,162.3"/>
  <polygon class="pl" points="648.3,164.3 648.3,189.7 665.7,189.7 665.7,164.3 648.3,164.3"/>
  <polygon class="pl" points="670.0,166.0 670.0,190.1 687.4,190.1 687.4,166.0 670.0,166.0"/>
  <polygon class="pl" points="691.8,168.1 691.8,196.9 709.2,196.9 709.2,168.1 691.8,168.1"/>
  <polygon class="pl" points="713.5,168.3 713.5,193.5 730.9,193.5 730.9,168.3 713.5,168.3"/>
  <polygon class="pl" points="735.3,170.8 735.3,194.8 752.7,194.8 752.7,170.8 735.3,170.8"/>
  <polygon class="pl" points="757.1,168.8 757.1,197.3 774.5,197.3 774.5,168.8 757.1,168.8"/>
  <polygon class="pl" points="778.8,172.6 778.8,198.8 796.2,198.8 796.2,172.6 778.8,172.6"/>
  <polygon class="pl" points="800.6,172.8 800.6,198.6 818.0,198.6 818.0,172.8 800.6,172.8"/>
  <polygon class="pl" points="822.3,172.5 822.3,199.0 839.7,199.0 839.7,172.5 822.3,172.5"/>
  <polygon class="pl" points="844.1,173.3 844.1,197.1 861.5,197.1 861.5,173.3 844.1,173.3"/>
  <polygon class="pl" points="865.9,175.1 865.9,202.5 883.3,202.5 883.3,175.1 865.9,175.1"/>
  <polygon class="pl" points="887.6,177.7 887.6,202.9 905.0,202.9 905.0,177.7 887.6,177.7"/>
</g>
<g stroke="#000" stroke-width="0.90" fill="#D95319"  clip-path="url(#axis_clip)">
  <polygon class="pl" points="147.8,164.2 147.8,184.0 165.2,184.0 165.2,164.2 147.8,164.2"/>
  <polygon class="pl" points="169.5,165.0 169.5,184.0 186.9,184.0 186.9,165.0 169.5,165.0"/>
  <polygon class="pl" points="191.3,166.4 191.3,184.3 208.7,184.3 208.7,166.4 191.3,166.4"/>
  <polygon class="pl" points="213.1,166.6 213.1,183.1 230.5,183.1 230.5,166.6 213.1,166.6"/>
  <polygon class="pl" points="234.8,168.5 234.8,183.3 252.2,183.3 252.2,168.5 234.8,168.5"/>
  <polygon class="pl" points="256.6,167.1 256.6,181.7 274.0,181.7 274.0,167.1 256.6,167.1"/>
  <polygon class="pl" points="278.3,170.0 278.3,183.0 295.7,183.0 295.7,170.0 278.3,170.0"/>
  <polygon class="pl" points="300.1,171.6 300.1,183.4 317.5,183.4 317.5,171.6 300.1,171.6"/>
  <polygon class="pl" points="321.9,173.2 321.9,184.1 339.3,184.1 339.3,173.2 321.9,173.2"/>
  <polygon class="pl" points="343.6,169.1 343.6,184.8 361.0,184.8 361.0,169.1 343.6,169.1"/>
  <polygon class="pl" points="365.4,165.2 365.4,186.2 382.8,186.2 382.8,165.2 365.4,165.2"/>
  <polygon class="pl" points="387.1,166.5 387.1,187.8 404.5,187.8 404.5,166.5 387.1,166.5"/>
  <polygon class="pl" points="408.9,169.0 408.9,188.8 426.3,188.8 426.3,169.0 408.9,169.0"/>
  <polygon class="pl" points="430.7,170.0 430.7,190.1 448.1,190.1 448.1,170.0 430.7,170.0"/>
  <polygon class="pl" points="452.4,175.1 452.4,191.5 469.8,191.5 469.8,175.1 452.4,175.1"/>
  <polygon class="pl" points="474.2,177.0 474.2,193.2 491.6,193.2 491.6,177.0 474.2,177.0"/>
  <polygon class="pl" points="495.9,178.3 495.9,193.6 513.3,193.6 513.3,178.3 495.9,178.3"/>
  <polygon class="pl" points="517.7,179.3 517.7,195.5 535.1,195.5 535.1,179.3 517.7,179.3"/>
  <polygon class="pl" points="539.5,182.4 539.5,197.3 556.9,197.3 556.9,182.4 539.5,182.4"/>
  <polygon class="pl" points="561.2,181.2 561.2,195.5 578.6,195.5 578.6,181.2 561.2,181.2"/>
  <polygon class="pl" points="583.0,182.5 583.0,196.2 600.4,196.2 600.4,182.5 583.0,182.5"/>
  <polygon class="pl" points="604.7,186.9 604.7,197.0 622.1,197.0 622.1,186.9 604.7,186.9"/>
  <polygon class="pl" points="626.5,187.2 626.5,197.0 643.9,197.0 643.9,187.2 626.5,187.2"/>
  <polygon class="pl" points="648.3,189.7 648.3,198.4 665.7,198.4 665.7,189.7 648.3,189.7"/>
  <polygon class="pl" points="670.0,190.1 670.0,199.2 687.4,199.2 687.4,190.1 670.0,190.1"/>
  <polygon class="pl" points="691.8,196.9 691.8,200.3 709.2,200.3 709.2,196.9 691.8,196.9"/>
  <polygon class="pl" points="713.5,193.5 713.5,199.9 730.9,199.9 730.9,193.5 713.5,193.5"/>
  <polygon class="pl" points="735.3,194.8 735.3,200.3 752.7,200.3 752.7,194.8 735.3,194.8"/>
  <polygon class="pl" points="757.1,197.3 757.1,201.1 774.5,201.1 774.5,197.3 757.1,197.3"/>
  <polygon class="pl" points="778.8,198.8 778.8,201.2 796.2,201.2 796.2,198.8 778.8,198.8"/>
  <polygon class="pl" points="800.6,198.6 800.6,200.9 818.0,200.9 818.0,198.6 800.6,198.6"/>
  <polygon class="pl" points="822.3,199.0 822.3,201.0 839.7,201.0 839.7,199.0 822.3,199.0"/>
  <polygon class="pl" points="844.1,197.1 844.1,201.4 861.5,201.4 861.5,197.1 844.1,197.1"/>
</g>
<g stroke="#000" stroke-width="0.90" fill="#5AA3D0"  clip-path="url(#axis_clip)">
  <polygon class="pl" points="147.8,184.0 147.8,320.6 165.2,320.6 165.2,184.0 147.8,184.0"/>
  <polygon class="pl" points="169.5,184.0 169.5,320.6 186.9,320.6 186.9,184.0 169.5,184.0"/>
  <polygon class="pl" points="191.3,184.3 191.3,320.6 208.7,320.6 208.7,184.3 191.3,184.3"/>
  <polygon class="pl" points="213.1,183.1 213.1,320.6 230.5,320.6 230.5,183.1 213.1,183.1"/>
  <polygon class="pl" points="234.8,183.3 234.8,320.6 252.2,320.6 252.2,183.3 234.8,183.3"/>
  <polygon class="pl" points="256.6,181.7 256.6,320.6 274.0,320.6 274.0,181.7 256.6,181.7"/>
  <polygon class="pl" points="278.3,183.0 278.3,320.6 295.7,320.6 295.7,183.0 278.3,183.0"/>
  <polygon class="pl" points="300.1,183.4 300.1,320.6 317.5,320.6 317.5,183.4 300.1,183.4"/>
  <polygon class="pl" points="321.9,184.1 321.9,320.6 339.3,320.6 339.3,184.1 321.9,184.1"/>
  <polygon class="pl" points="343.6,184.8 343.6,320.6 361.0,320.6 361.0,184.8 343.6,184.8"/>
  <polygon class="pl" points="365.4,186.2 365.4,320.6 382.8,320.6 382.8,186.2 365.4,186.2"/>
  <polygon class="pl" points="387.1,187.8 387.1,320.6 404.5,320.6 404.5,187.8 387.1,187.8"/>
  <polygon class="pl" points="408.9,188.8 408.9,320.6 426.3,320.6 426.3,188.8 408.9,188.8"/>
  <polygon class="pl" points="430.7,190.1 430.7,320.6 448.1,320.6 448.1,190.1 430.7,190.1"/>
  <polygon class="pl" points="452.4,191.5 452.4,320.6 469.8,320.6 469.8,191.5 452.4,191.5"/>
  <polygon class="pl" points="474.2,193.2 474.2,320.6 491.6,320.6 491.6,193.2 474.2,193.2"/>
  <polygon class="pl" points="495.9,193.6 495.9,320.6 513.3,320.6 513.3,193.6 495.9,193.6"/>
  <polygon class="pl" points="517.7,195.5 517.7,320.6 535.1,320.6 535.1,195.5 517.7,195.5"/>
  <polygon class="pl" points="539.5,197.3 539.5,320.6 556.9,320.6 556.9,197.3 539.5,197.3"/>
  <polygon class="pl" points="561.2,195.5 561.2,320.6 578.6,320.6 578.6,195.5 561.2,195.5"/>
  <polygon class="pl" points="583.0,196.2 583.0,320.6 600.4,320.6 600.4,196.2 583.0,196.2"/>
  <polygon class="pl" points="604.7,197.0 604.7,320.6 622.1,320.6 622.1,197.0 604.7,197.0"/>
  <polygon class="pl" points="626.5,197.0 626.5,320.6 643.9,320.6 643.9,197.0 626.5,197.0"/>
  <polygon class="pl" points="648.3,198.4 648.3,320.6 665.7,320.6 665.7,198.4 648.3,198.4"/>
  <polygon class="pl" points="670.0,199.2 670.0,320.6 687.4,320.6 687.4,199.2 670.0,199.2"/>
  <polygon class="pl" points="691.8,200.3 691.8,320.6 709.2,320.6 709.2,200.3 691.8,200.3"/>
  <polygon class="pl" points="713.5,199.9 713.5,320.6 730.9,320.6 730.9,199.9 713.5,199.9"/>
  <polygon class="pl" points="735.3,200.3 735.3,320.6 752.7,320.6 752.7,200.3 735.3,200.3"/>
  <polygon class="pl" points="757.1,201.1 757.1,320.6 774.5,320.6 774.5,201.1 757.1,201.1"/>
  <polygon class="pl" points="778.8,201.2 778.8,320.6 796.2,320.6 796.2,201.2 778.8,201.2"/>
  <polygon class="pl" points="800.6,200.9 800.6,320.6 818.0,320.6 818.0,200.9 800.6,200.9"/>
  <polygon class="pl" points="822.3,201.0 822.3,320.6 839.7,320.6 839.7,201.0 822.3,201.0"/>
  <polygon class="pl" points="844.1,201.4 844.1,320.6 861.5,320.6 861.5,201.4 844.1,201.4"/>
  <polygon class="pl" points="865.9,202.5 865.9,320.6 883.3,320.6 883.3,202.5 865.9,202.5"/>
  <polygon class="pl" points="887.6,202.9 887.6,320.6 905.0,320.6 905.0,202.9 887.6,202.9"/>
</g>
<g stroke="#000" stroke-width="0.90" fill="#8B1E40"  clip-path="url(#axis_clip)">
  <polygon class="pl" points="147.8,464.2 147.8,446.5 165.2,446.5 165.2,464.2 147.8,464.2"/>
  <polygon class="pl" points="169.5,467.1 169.5,450.7 186.9,450.7 186.9,467.1 169.5,467.1"/>
  <polygon class="pl" points="191.3,471.6 191.3,454.8 208.7,454.8 208.7,471.6 191.3,471.6"/>
  <polygon class="pl" points="213.1,475.3 213.1,457.8 230.5,457.8 230.5,475.3 213.1,475.3"/>
  <polygon class="pl" points="234.8,477.8 234.8,457.9 252.2,457.9 252.2,477.8 234.8,477.8"/>
  <polygon class="pl" points="256.6,478.9 256.6,458.4 274.0,458.4 274.0,478.9 256.6,478.9"/>
  <polygon class="pl" points="278.3,482.5 278.3,462.5 295.7,462.5 295.7,482.5 278.3,482.5"/>
  <polygon class="pl" points="300.1,485.1 300.1,463.5 317.5,463.5 317.5,485.1 300.1,485.1"/>
  <polygon class="pl" points="321.9,488.1 321.9,467.2 339.3,467.2 339.3,488.1 321.9,488.1"/>
  <polygon class="pl" points="343.6,491.3 343.6,468.3 361.0,468.3 361.0,491.3 343.6,491.3"/>
  <polygon class="pl" points="365.4,495.7 365.4,470.3 382.8,470.3 382.8,495.7 365.4,495.7"/>
  <polygon class="pl" points="387.1,498.7 387.1,474.7 404.5,474.7 404.5,498.7 387.1,498.7"/>
  <polygon class="pl" points="408.9,500.9 408.9,477.3 426.3,477.3 426.3,500.9 408.9,500.9"/>
  <polygon class="pl" points="430.7,503.7 430.7,478.8 448.1,478.8 448.1,503.7 430.7,503.7"/>
  <polygon class="pl" points="452.4,505.3 452.4,482.1 469.8,482.1 469.8,505.3 452.4,505.3"/>
  <polygon class="pl" points="474.2,507.1 474.2,484.7 491.6,484.7 491.6,507.1 474.2,507.1"/>
  <polygon class="pl" points="495.9,507.6 495.9,487.2 513.3,487.2 513.3,507.6 495.9,507.6"/>
  <polygon class="pl" points="517.7,509.6 517.7,488.1 535.1,488.1 535.1,509.6 517.7,509.6"/>
  <polygon class="pl" points="539.5,511.9 539.5,493.3 556.9,493.3 556.9,511.9 539.5,511.9"/>
  <polygon class="pl" points="561.2,513.1 561.2,495.2 578.6,495.2 578.6,513.1 561.2,513.1"/>
  <polygon class="pl" points="583.0,514.2 583.0,494.6 600.4,494.6 600.4,514.2 583.0,514.2"/>
  <polygon class="pl" points="604.7,514.2 604.7,492.6 622.1,492.6 622.1,514.2 604.7,514.2"/>
  <polygon class="pl" points="626.5,512.1 626.5,487.8 643.9,487.8 643.9,512.1 626.5,512.1"/>
  <polygon class="pl" points="648.3,510.7 648.3,489.1 665.7,489.1 665.7,510.7 648.3,510.7"/>
  <polygon class="pl" points="670.0,512.2 670.0,491.5 687.4,491.5 687.4,512.2 670.0,512.2"/>
  <polygon class="pl" points="691.8,512.0 691.8,491.0 709.2,491.0 709.2,512.0 691.8,512.0"/>
  <polygon class="pl" points="713.5,513.2 713.5,493.3 730.9,493.3 730.9,513.2 713.5,513.2"/>
  <polygon class="pl" points="735.3,512.1 735.3,493.7 752.7,493.7 752.7,512.1 735.3,512.1"/>
  <polygon class="pl" points="757.1,509.9 757.1,492.2 774.5,492.2 774.5,509.9 757.1,509.9"/>
  <polygon class="pl" points="778.8,506.7 778.8,489.8 796.2,489.8 796.2,506.7 778.8,506.7"/>
  <polygon class="pl" points="800.6,507.0 800.6,490.2 818.0,490.2 818.0,507.0 800.6,507.0"/>
  <polygon class="pl" points="822.3,509.6 822.3,489.7 839.7,489.7 839.7,509.6 822.3,509.6"/>
  <polygon class="pl" points="844.1,506.0 844.1,487.0 861.5,487.0 861.5,506.0 844.1,506.0"/>
  <polygon class="pl" points="865.9,501.5 865.9,482.7 883.3,482.7 883.3,501.5 865.9,501.5"/>
  <polygon class="pl" points="887.6,499.5 887.6,479.8 905.0,479.8 905.0,499.5 887.6,499.5"/>
</g>
<g stroke="#000" stroke-width="0.90" fill="#7B417F"  clip-path="url(#axis_clip)">
</g>
<g stroke="#000" stroke-width="0.90" fill="#D95319"  clip-path="url(#axis_clip)">
  <polygon class="pl" points="865.9,482.7 865.9,481.9 883.3,481.9 883.3,482.7 865.9,482.7"/>
  <polygon class="pl" points="887.6,479.8 887.6,479.5 905.0,479.5 905.0,479.8 887.6,479.8"/>
</g>
<g stroke="#000" stroke-width="0.90" fill="#6AB561"  clip-path="url(#axis_clip)">
  <polygon class="pl" points="147.8,446.5 147.8,320.6 165.2,320.6 165.2,446.5 147.8,446.5"/>
  <polygon class="pl" points="169.5,450.7 169.5,320.6 186.9,320.6 186.9,450.7 169.5,450.7"/>
  <polygon class="pl" points="191.3,454.8 191.3,320.6 208.7,320.6 208.7,454.8 191.3,454.8"/>
  <polygon class="pl" points="213.1,457.8 213.1,320.6 230.5,320.6 230.5,457.8 213.1,457.8"/>
  <polygon class="pl" points="234.8,457.9 234.8,320.6 252.2,320.6 252.2,457.9 234.8,457.9"/>
  <polygon class="pl" points="256.6,458.4 256.6,320.6 274.0,320.6 274.0,458.4 256.6,458.4"/>
  <polygon class="pl" points="278.3,462.5 278.3,320.6 295.7,320.6 295.7,462.5 278.3,462.5"/>
  <polygon class="pl" points="300.1,463.5 300.1,320.6 317.5,320.6 317.5,463.5 300.1,463.5"/>
  <polygon class="pl" points="321.9,467.2 321.9,320.6 339.3,320.6 339.3,467.2 321.9,467.2"/>
  <polygon class="pl" points="343.6,468.3 343.6,320.6 361.0,320.6 361.0,468.3 343.6,468.3"/>
  <polygon class="pl" points="365.4,470.3 365.4,320.6 382.8,320.6 382.8,470.3 365.4,470.3"/>
  <polygon class="pl" points="387.1,474.7 387.1,320.6 404.5,320.6 404.5,474.7 387.1,474.7"/>
  <polygon class="pl" points="408.9,477.3 408.9,320.6 426.3,320.6 426.3,477.3 408.9,477.3"/>
  <polygon class="pl" points="430.7,478.8 430.7,320.6 448.1,320.6 448.1,478.8 430.7,478.8"/>
  <polygon class="pl" points="452.4,482.1 452.4,320.6 469.8,320.6 469.8,482.1 452.4,482.1"/>
  <polygon class="pl" points="474.2,484.7 474.2,320.6 491.6,320.6 491.6,484.7 474.2,484.7"/>
  <polygon class="pl" points="495.9,487.2 495.9,320.6 513.3,320.6 513.3,487.2 495.9,487.2"/>
  <polygon class="pl" points="517.7,488.1 517.7,320.6 535.1,320.6 535.1,488.1 517.7,488.1"/>
  <polygon class="pl" points="539.5,493.3 539.5,320.6 556.9,320.6 556.9,493.3 539.5,493.3"/>
  <polygon class="pl" points="561.2,495.2 561.2,320.6 578.6,320.6 578.6,495.2 561.2,495.2"/>
  <polygon class="pl" points="583.0,494.6 583.0,320.6 600.4,320.6 600.4,494.6 583.0,494.6"/>
  <polygon class="pl" points="604.7,492.6 604.7,320.6 622.1,320.6 622.1,492.6 604.7,492.6"/>
  <polygon class="pl" points="626.5,487.8 626.5,320.6 643.9,320.6 643.9,487.8 626.5,487.8"/>
  <polygon class="pl" points="648.3,489.1 648.3,320.6 665.7,320.6 665.7,489.1 648.3,489.1"/>
  <polygon class="pl" points="670.0,491.5 670.0,320.6 687.4,320.6 687.4,491.5 670.0,491.5"/>
  <polygon class="pl" points="691.8,491.0 691.8,320.6 709.2,320.6 709.2,491.0 691.8,491.0"/>
  <polygon class="pl" points="713.5,493.3 713.5,320.6 730.9,320.6 730.9,493.3 713.5,493.3"/>
  <polygon class="pl" points="735.3,493.7 735.3,320.6 752.7,320.6 752.7,493.7 735.3,493.7"/>
  <polygon class="pl" points="757.1,492.2 757.1,320.6 774.5,320.6 774.5,492.2 757.1,492.2"/>
  <polygon class="pl" points="778.8,489.8 778.8,320.6 796.2,320.6 796.2,489.8 778.8,489.8"/>
  <polygon class="pl" points="800.6,490.2 800.6,320.6 818.0,320.6 818.0,490.2 800.6,490.2"/>
  <polygon class="pl" points="822.3,489.7 822.3,320.6 839.7,320.6 839.7,489.7 822.3,489.7"/>
  <polygon class="pl" points="844.1,487.0 844.1,320.6 861.5,320.6 861.5,487.0 844.1,487.0"/>
  <polygon class="pl" points="865.9,481.9 865.9,320.6 883.3,320.6 883.3,481.9 865.9,481.9"/>
  <polygon class="pl" points="887.6,479.5 887.6,320.6 905.0,320.6 905.0,479.5 887.6,479.5"/>
</g>
<polyline class="pl" points="156.5,228.9 178.2,233.4 200.0,240.6 221.8,245.5 243.5,249.8 265.3,249.5 287.0,258.4 308.8,263.3 330.6,270.3 352.3,269.2 374.1,271.4 395.8,277.0 417.6,284.2 439.4,285.4 461.1,292.9 482.9,296.3 504.6,300.3 526.4,303.7 548.2,310.2 569.9,311.1 591.7,311.9 613.4,317.6 635.2,316.8 657.0,318.0 678.7,322.3 700.5,324.0 722.2,321.3 744.0,324.2 765.8,318.6 787.5,319.8 809.3,321.1 831.0,322.5 852.8,319.6 874.6,317.0 896.3,317.5" stroke="#000" stroke-width="5.40" stroke-opacity="1.00" fill="none" clip-path="url(#axis_clip)"/>
<g class="pl" fill="#FFF" stroke="#000" stroke-width="0.900">
  <circle cx="178.2" cy="233.4" r="2.2" />
  <circle cx="200.0" cy="240.6" r="2.2" />
  <circle cx="221.8" cy="245.5" r="2.2" />
  <circle cx="243.5" cy="249.8" r="2.2" />
  <circle cx="265.3" cy="249.5" r="2.2" />
  <circle cx="287.0" cy="258.4" r="2.2" />
  <circle cx="308.8" cy="263.3" r="2.2" />
  <circle cx="330.6" cy="270.3" r="2.2" />
  <circle cx="352.3" cy="269.2" r="2.2" />
  <circle cx="395.8" cy="277.0" r="2.2" />
  <circle cx="417.6" cy="284.2" r="2.2" />
  <circle cx="439.4" cy="285.4" r="2.2" />
  <circle cx="461.1" cy="292.9" r="2.2" />
  <circle cx="482.9" cy="296.3" r="2.2" />
  <circle cx="504.6" cy="300.3" r="2.2" />
  <circle cx="526.4" cy="303.7" r="2.2" />
  <circle cx="548.2" cy="310.2" r="2.2" />
  <circle cx="569.9" cy="311.1" r="2.2" />
  <circle cx="613.4" cy="317.6" r="2.2" />
  <circle cx="635.2" cy="316.8" r="2.2" />
  <circle cx="657.0" cy="318.0" r="2.2" />
  <circle cx="678.7" cy="322.3" r="2.2" />
  <circle cx="700.5" cy="324.0" r="2.2" />
  <circle cx="722.2" cy="321.3" r="2.2" />
  <circle cx="744.0" cy="324.2" r="2.2" />
  <circle cx="765.8" cy="318.6" r="2.2" />
  <circle cx="787.5" cy="319.8" r="2.2" />
  <circle cx="831.0" cy="322.5" r="2.2" />
  <circle cx="852.8" cy="319.6" r="2.2" />
  <circle cx="874.6" cy="317.0" r="2.2" />
  <circle cx="896.3" cy="317.5" r="2.2" />
</g>
<g class="pl" fill="#FFF" stroke="#000" stroke-width="0.900">
  <circle cx="156.5" cy="228.9" r="5.4" />
  <circle cx="374.1" cy="271.4" r="5.4" />
  <circle cx="591.7" cy="311.9" r="5.4" />
  <circle cx="809.3" cy="321.1" r="5.4" />
</g>
<text transform="translate(145.6,47.2)" dy="0.0" font-size="27.00" fill="#808080" stroke="none">Annual LULUCF emissions: United Kingdom</text>
<text transform="translate(130.0,81.6)" dy="8.1" font-size="27.00" fill="#808080" stroke="none" text-anchor="end">CO<tspan dy="0.2em"><tspan style="font-size:70%">2</tspan></tspan><tspan dy="-0.2em">e</tspan></text>
<text transform="translate(945.6,261.7)" dy="6.5" font-size="21.60" fill="#5AA3D0" stroke="none">Cropland</text>
<text transform="translate(945.6,190.3)" dy="6.5" font-size="21.60" fill="#EDB120" stroke="none">Wetlands</text>
<text transform="translate(945.6,166.3)" dy="6.5" font-size="21.60" fill="#808080" stroke="none">Settlements</text>
<text transform="translate(945.6,145.6)" dy="6.5" font-size="21.60" fill="#7B417F" stroke="none">Other land</text>
<text transform="translate(945.6,124.9)" dy="6.5" font-size="21.60" fill="#1A4D1A" stroke="none">Other</text>
<text transform="translate(945.6,400.0)" dy="6.5" font-size="21.60" fill="#6AB561" stroke="none">Forest land</text>
<text transform="translate(945.6,474.3)" dy="6.5" font-size="21.60" fill="#D95319" stroke="none">Grassland</text>
<text transform="translate(945.6,495.0)" dy="6.5" font-size="21.60" fill="#8B1E40" stroke="none">HWP</text>
<polyline class="pl" points="910.8,158.5 912.4,158.6 913.8,158.6 915.2,158.8 916.4,158.9 917.6,159.2 918.8,159.4 919.8,159.7 920.8,160.0 921.7,160.3 922.7,160.7 923.5,161.0 924.4,161.4 925.2,161.8 926.0,162.2 926.8,162.6 927.6,163.0 928.4,163.4 929.3,163.8 930.1,164.2 931.1,164.5 932.0,164.9 933.0,165.2 934.0,165.5 935.2,165.7 936.4,165.9 937.6,166.1 939.0,166.2 940.4,166.3 942.0,166.3" stroke="#808080" stroke-width="0.90" stroke-opacity="1.00" fill="none" />
<polyline class="pl" points="910.8,139.3 912.4,139.4 913.8,139.4 915.2,139.5 916.4,139.7 917.6,139.8 918.8,140.0 919.8,140.3 920.8,140.5 921.7,140.8 922.7,141.1 923.5,141.4 924.4,141.7 925.2,142.0 926.0,142.3 926.8,142.6 927.6,143.0 928.4,143.3 929.3,143.6 930.1,143.9 931.1,144.2 932.0,144.4 933.0,144.7 934.0,144.9 935.2,145.1 936.4,145.3 937.6,145.4 939.0,145.5 940.4,145.6 942.0,145.6" stroke="#7B417F" stroke-width="0.90" stroke-opacity="1.00" fill="none" />
<polyline class="pl" points="910.8,138.9 912.4,138.9 913.8,138.7 915.2,138.5 916.4,138.2 917.6,137.8 918.8,137.4 919.8,136.9 920.8,136.3 921.7,135.7 922.7,135.1 923.5,134.4 924.4,133.7 925.2,133.0 926.0,132.3 926.8,131.5 927.6,130.8 928.4,130.1 929.3,129.4 930.1,128.7 931.1,128.1 932.0,127.5 933.0,126.9 934.0,126.4 935.2,126.0 936.4,125.6 937.6,125.3 939.0,125.1 940.4,124.9 942.0,124.9" stroke="#1A4D1A" stroke-width="0.90" stroke-opacity="1.00" fill="none" />
<polyline class="pl" points="910.8,479.7 912.4,479.7 913.8,479.6 915.2,479.5 916.4,479.4 917.6,479.2 918.8,479.1 919.8,478.9 920.8,478.7 921.7,478.4 922.7,478.2 923.5,477.9 924.4,477.7 925.2,477.4 926.0,477.1 926.8,476.9 927.6,476.6 928.4,476.3 929.3,476.0 930.1,475.8 931.1,475.5 932.0,475.3 933.0,475.1 934.0,474.9 935.2,474.7 936.4,474.6 937.6,474.5 939.0,474.4 940.4,474.3 942.0,474.3" stroke="#D95319" stroke-width="0.90" stroke-opacity="1.00" fill="none" />
<polyline class="pl" points="910.8,489.7 912.4,489.7 913.8,489.8 915.2,489.9 916.4,490.0 917.6,490.1 918.8,490.3 919.8,490.5 920.8,490.7 921.7,490.9 922.7,491.2 923.5,491.4 924.4,491.7 925.2,492.0 926.0,492.2 926.8,492.5 927.6,492.8 928.4,493.1 929.3,493.3 930.1,493.6 931.1,493.8 932.0,494.0 933.0,494.3 934.0,494.4 935.2,494.6 936.4,494.8 937.6,494.9 939.0,495.0 940.4,495.0 942.0,495.0" stroke="#8B1E40" stroke-width="0.90" stroke-opacity="1.00" fill="none" />
<text transform="translate(160.0,666.1)" font-size="19.80" font-family="Helvetica" fill="#BFBFBF" stroke="none" xml:space="preserve">CICERO   &#9679;   Data: UNFCCC (2026)   &#9679;   HWP = Harvested Wood Products</text>
<g>
  <rect x="123.0" y="651.4" width="34" height="17" fill="#FFF" stroke="none" opacity="0.01"/>
  <g transform="translate(124.0,652.4) scale(0.24)">
  <g><circle fill="#FFF" cx="37.79" cy="28.5" r="28.84"/>
     <circle fill="none" cx="37.79" cy="28.5" r="28.84" stroke="#BFBFBF" stroke-width="5.5"/>
     <path fill="#BFBFBF" d="M37.16,23.19 l-4.29,2.23c-0.458-0.951-1.02-1.62-1.69-2c-0.667-0.38-1.29-0.571-1.86-0.571c-2.86,0-4.29,1.89-4.29,5.66 c0,1.71,0.36,3.08,1.09,4.11c0.724,1.03,1.79,1.54,3.2,1.54c1.87,0,3.18-0.915,3.94-2.74l3.94,2 c-0.838,1.56-2,2.79-3.49,3.69c-1.48,0.896-3.12,1.34-4.91,1.34c-2.86,0-5.16-0.875-6.92-2.63 c-1.75-1.75-2.63-4.19-2.63-7.31c0-3.05,0.886-5.47,2.66-7.26c1.77-1.79,4.01-2.69,6.72-2.69 C32.6,18.56,35.44,20.1,37.16,23.19z
              M55.61,23.19l-4.23,2.23c-0.457-0.951-1.02-1.62-1.69-2 c-0.668-0.38-1.31-0.571-1.91-0.571c-2.86,0-4.29,1.89-4.29,5.66c0,1.71,0.363,3.08,1.09,4.11 c0.723,1.03,1.79,1.54,3.2,1.54c1.87,0,3.18-0.915,3.94-2.74l4,2c-0.875,1.56-2.06,2.79-3.54,3.69 c-1.49,0.9-3.11,1.34-4.86,1.34c-2.9,0-5.21-0.875-6.94-2.63c-1.74-1.75-2.6-4.19-2.6-7.31 c0-3.05,0.885-5.47,2.66-7.26c1.77-1.79,4.01-2.69,6.71-2.69C51.12,18.56,53.944,20.1,55.61,23.19z"/>
  </g></g>
  <g transform="translate(140.2,652.4) scale(0.24)">
  <g><circle fill="#FFF" cx="37.79" cy="28.5" r="28.84"/>
     <circle fill="none" cx="37.79" cy="28.5" r="28.84" stroke="#BFBFBF" stroke-width="5.5"/>
     <path fill="#BFBFBF" d="M46.129,20.557v13.085h-3.656v15.542h-9.944V33.643h-3.656V20.557 c0-0.572,0.2-1.057,0.599-1.457c0.401-0.399,0.887-0.6,1.457-0.6h13.144c0.533,0,1.01,0.2,1.428,0.6 C45.918,19.5,46.129,19.986,46.129,20.557z
              M33.042,12.329c0-3.008,1.485-4.514,4.458-4.514s4.457,1.504,4.457,4.514 c0,2.971-1.486,4.457-4.457,4.457S33.042,15.3,33.042,12.329z"/>
  </g></g>
</g>
</g>
</svg>
