<svg version="1.1" xmlns="http://www.w3.org/2000/svg" xmlns:xlink="http://www.w3.org/1999/xlink" width="100%" height="100%" viewBox="0 0 1200.000 674.916">
<title>Annual CO2 Emissions: European Union</title>
<style type="text/css">
  #main {font-family:Helvetica,Arial,sans-serif; font-size:27.00px;
         fill-opacity:1; fill:#000000; stroke:none; stroke-linejoin:round; stroke-linecap:round; stroke-width:1.00;}
  .marker {stroke-opacity:0;fill-opacity:0;}
  .marker:hover {stroke-opacity:0.5; fill-opacity:1;}
  .ticklabel {font-size:27.00px;fill:#808080;stroke:none;font-family:Helvetica}
  .ytl {text-anchor:end;}
  .dp1 {pointer-events:none;font-size:70%;text-anchor:middle;fill:#000000;}
  .dp2 {pointer-events:none;font-size:70%;text-anchor:middle;fill:#FFFFFF;}
  .numtip {pointer-events:none;}
  .cc {opacity:0.25;}
.dl_fe {background-color:#FDFFDF;display:flex;margin:auto;align-items:center}
.dl_fe_p {font-size:20px;text-align:center;margin:3px}
.dl_el {display:none;pointer-events:none;}
.cc:hover + .dl_el {display:block;}
text:hover + .dl_el {display:block;}
</style>
<defs>
  <clipPath id="axis_clip"><rect x="145.8" y="54.2" width="761.2" height="532.8" /></clipPath>
  <path id="line_y" d="M 0,53.993 v 533.183" stroke="#262626" stroke-opacity="0.15" stroke-width="1.00"/>
  <path id="line_x" d="M 145.600,0 h 761.600" stroke="#262626" stroke-opacity="0.15" stroke-width="1.00"/>
  <path id="tick_y" d="M 145.600,0 h -6.000" stroke="#808080" stroke-width="0.90"/>
  <path id="tick_x" d="M 0,587.177 v 6.000" stroke="#808080" stroke-width="0.90"/>
</defs>
<g id="main">
<use xlink:href="#line_y" transform="translate(156.5,0)"/>
<use xlink:href="#line_y" transform="translate(265.3,0)"/>
<use xlink:href="#line_y" transform="translate(374.1,0)"/>
<use xlink:href="#line_y" transform="translate(482.9,0)"/>
<use xlink:href="#line_y" transform="translate(591.7,0)"/>
<use xlink:href="#line_y" transform="translate(700.5,0)"/>
<use xlink:href="#line_y" transform="translate(809.3,0)"/>
<use xlink:href="#line_y" transform="translate(896.3,0)"/>
<use xlink:href="#line_x" transform="translate(0,527.9)"/>
<use xlink:href="#line_x" transform="translate(0,409.4)"/>
<use xlink:href="#line_x" transform="translate(0,291.0)"/>
<use xlink:href="#line_x" transform="translate(0,172.5)"/>
<use xlink:href="#line_x" transform="translate(0,54.0)"/>
<use xlink:href="#tick_y" transform="translate(0,527.9)"/>
<use xlink:href="#tick_y" transform="translate(0,409.4)"/>
<use xlink:href="#tick_y" transform="translate(0,291.0)"/>
<use xlink:href="#tick_y" transform="translate(0,172.5)"/>
<use xlink:href="#tick_y" transform="translate(0,54.0)"/>
<use xlink:href="#tick_x" transform="translate(156.5,0)"/>
<use xlink:href="#tick_x" transform="translate(265.3,0)"/>
<use xlink:href="#tick_x" transform="translate(374.1,0)"/>
<use xlink:href="#tick_x" transform="translate(482.9,0)"/>
<use xlink:href="#tick_x" transform="translate(591.7,0)"/>
<use xlink:href="#tick_x" transform="translate(700.5,0)"/>
<use xlink:href="#tick_x" transform="translate(809.3,0)"/>
<use xlink:href="#tick_x" transform="translate(896.3,0)"/>
<polyline points="145.6,53.993 145.6,587.177 907.2,587.177" stroke="#808080" stroke-width="0.90" fill="none"/>
<text class="ticklabel xtl" transform="translate(156.5,629.0)" text-anchor="middle">1990</text>
<text class="ticklabel xtl" transform="translate(265.3,629.0)" text-anchor="middle">1995</text>
<text class="ticklabel xtl" transform="translate(374.1,629.0)" text-anchor="middle">2000</text>
<text class="ticklabel xtl" transform="translate(482.9,629.0)" text-anchor="middle">2005</text>
<text class="ticklabel xtl" transform="translate(591.7,629.0)" text-anchor="middle">2010</text>
<text class="ticklabel xtl" transform="translate(700.5,629.0)" text-anchor="middle">2015</text>
<text class="ticklabel xtl" transform="translate(809.3,629.0)" text-anchor="middle">2020</text>
<text class="ticklabel xtl" transform="translate(896.3,629.0)" text-anchor="middle">2024</text>
<text class="ticklabel ytl" transform="translate(128.8,536.0)">0</text>
<text class="ticklabel ytl" transform="translate(128.8,417.5)">1</text>
<text class="ticklabel ytl" transform="translate(128.8,299.1)">2</text>
<text class="ticklabel ytl" transform="translate(128.8,180.6)">3</text>
<text class="ticklabel ytl" transform="translate(128.8,62.1)">4 Gt</text>
<g stroke="#000" stroke-width="0.90" fill="#DBA746"  clip-path="url(#axis_clip)">
  <polygon class="pl" points="147.8,69.2 147.8,69.6 165.2,69.6 165.2,69.2 147.8,69.2"/>
  <polygon class="pl" points="169.5,76.9 169.5,77.3 186.9,77.3 186.9,76.9 169.5,76.9"/>
  <polygon class="pl" points="191.3,92.0 191.3,92.4 208.7,92.4 208.7,92.0 191.3,92.0"/>
  <polygon class="pl" points="213.1,100.1 213.1,100.5 230.5,100.5 230.5,100.1 213.1,100.1"/>
  <polygon class="pl" points="234.8,102.3 234.8,102.7 252.2,102.7 252.2,102.3 234.8,102.3"/>
  <polygon class="pl" points="256.6,96.8 256.6,97.2 274.0,97.2 274.0,96.8 256.6,96.8"/>
  <polygon class="pl" points="278.3,86.6 278.3,87.0 295.7,87.0 295.7,86.6 278.3,86.6"/>
  <polygon class="pl" points="300.1,94.3 300.1,94.7 317.5,94.7 317.5,94.3 300.1,94.3"/>
  <polygon class="pl" points="321.9,95.5 321.9,95.8 339.3,95.8 339.3,95.5 321.9,95.5"/>
  <polygon class="pl" points="343.6,102.0 343.6,102.3 361.0,102.3 361.0,102.0 343.6,102.0"/>
  <polygon class="pl" points="365.4,100.6 365.4,100.9 382.8,100.9 382.8,100.6 365.4,100.6"/>
  <polygon class="pl" points="387.1,93.9 387.1,94.2 404.5,94.2 404.5,93.9 387.1,93.9"/>
  <polygon class="pl" points="408.9,93.8 408.9,94.1 426.3,94.1 426.3,93.8 408.9,93.8"/>
  <polygon class="pl" points="430.7,83.8 430.7,84.1 448.1,84.1 448.1,83.8 430.7,83.8"/>
  <polygon class="pl" points="452.4,82.7 452.4,83.0 469.8,83.0 469.8,82.7 452.4,82.7"/>
  <polygon class="pl" points="474.2,84.6 474.2,85.0 491.6,85.0 491.6,84.6 474.2,84.6"/>
  <polygon class="pl" points="495.9,82.6 495.9,83.0 513.3,83.0 513.3,82.6 495.9,82.6"/>
  <polygon class="pl" points="517.7,89.1 517.7,89.4 535.1,89.4 535.1,89.1 517.7,89.1"/>
  <polygon class="pl" points="539.5,99.0 539.5,99.3 556.9,99.3 556.9,99.0 539.5,99.0"/>
  <polygon class="pl" points="561.2,132.0 561.2,132.4 578.6,132.4 578.6,132.0 561.2,132.0"/>
  <polygon class="pl" points="583.0,121.4 583.0,121.8 600.4,121.8 600.4,121.4 583.0,121.4"/>
  <polygon class="pl" points="604.7,133.7 604.7,134.0 622.1,134.0 622.1,133.7 604.7,133.7"/>
  <polygon class="pl" points="626.5,141.9 626.5,142.2 643.9,142.2 643.9,141.9 626.5,141.9"/>
  <polygon class="pl" points="648.3,151.3 648.3,151.6 665.7,151.6 665.7,151.3 648.3,151.3"/>
  <polygon class="pl" points="670.0,167.9 670.0,168.2 687.4,168.2 687.4,167.9 670.0,167.9"/>
  <polygon class="pl" points="691.8,161.6 691.8,161.9 709.2,161.9 709.2,161.6 691.8,161.6"/>
  <polygon class="pl" points="713.5,161.0 713.5,161.3 730.9,161.3 730.9,161.0 713.5,161.0"/>
  <polygon class="pl" points="735.3,158.0 735.3,158.3 752.7,158.3 752.7,158.0 735.3,158.0"/>
  <polygon class="pl" points="757.1,166.7 757.1,167.0 774.5,167.0 774.5,166.7 757.1,166.7"/>
  <polygon class="pl" points="778.8,183.6 778.8,183.9 796.2,183.9 796.2,183.6 778.8,183.6"/>
  <polygon class="pl" points="800.6,217.0 800.6,217.3 818.0,217.3 818.0,217.0 800.6,217.0"/>
  <polygon class="pl" points="822.3,195.9 822.3,196.2 839.7,196.2 839.7,195.9 822.3,195.9"/>
  <polygon class="pl" points="844.1,204.1 844.1,204.4 861.5,204.4 861.5,204.1 844.1,204.1"/>
  <polygon class="pl" points="865.9,234.6 865.9,234.9 883.3,234.9 883.3,234.6 865.9,234.6"/>
  <polygon class="pl" points="887.6,241.8 887.6,242.1 905.0,242.1 905.0,241.8 887.6,241.8"/>
</g>
<g stroke="#000" stroke-width="0.90" fill="#845F48"  clip-path="url(#axis_clip)">
  <polygon class="pl" points="147.8,69.6 147.8,71.3 165.2,71.3 165.2,69.6 147.8,69.6"/>
  <polygon class="pl" points="169.5,77.3 169.5,78.7 186.9,78.7 186.9,77.3 169.5,77.3"/>
  <polygon class="pl" points="191.3,92.4 191.3,93.6 208.7,93.6 208.7,92.4 191.3,92.4"/>
  <polygon class="pl" points="213.1,100.5 213.1,101.7 230.5,101.7 230.5,100.5 213.1,100.5"/>
  <polygon class="pl" points="234.8,102.7 234.8,103.9 252.2,103.9 252.2,102.7 234.8,102.7"/>
  <polygon class="pl" points="256.6,97.2 256.6,98.4 274.0,98.4 274.0,97.2 256.6,97.2"/>
  <polygon class="pl" points="278.3,87.0 278.3,88.2 295.7,88.2 295.7,87.0 278.3,87.0"/>
  <polygon class="pl" points="300.1,94.7 300.1,95.9 317.5,95.9 317.5,94.7 300.1,94.7"/>
  <polygon class="pl" points="321.9,95.8 321.9,97.0 339.3,97.0 339.3,95.8 321.9,95.8"/>
  <polygon class="pl" points="343.6,102.3 343.6,103.5 361.0,103.5 361.0,102.3 343.6,102.3"/>
  <polygon class="pl" points="365.4,100.9 365.4,102.1 382.8,102.1 382.8,100.9 365.4,100.9"/>
  <polygon class="pl" points="387.1,94.2 387.1,95.4 404.5,95.4 404.5,94.2 387.1,94.2"/>
  <polygon class="pl" points="408.9,94.1 408.9,95.3 426.3,95.3 426.3,94.1 408.9,94.1"/>
  <polygon class="pl" points="430.7,84.1 430.7,85.3 448.1,85.3 448.1,84.1 430.7,84.1"/>
  <polygon class="pl" points="452.4,83.0 452.4,84.1 469.8,84.1 469.8,83.0 452.4,83.0"/>
  <polygon class="pl" points="474.2,85.0 474.2,86.1 491.6,86.1 491.6,85.0 474.2,85.0"/>
  <polygon class="pl" points="495.9,83.0 495.9,84.1 513.3,84.1 513.3,83.0 495.9,83.0"/>
  <polygon class="pl" points="517.7,89.4 517.7,90.5 535.1,90.5 535.1,89.4 517.7,89.4"/>
  <polygon class="pl" points="539.5,99.3 539.5,100.4 556.9,100.4 556.9,99.3 539.5,99.3"/>
  <polygon class="pl" points="561.2,132.4 561.2,133.4 578.6,133.4 578.6,132.4 561.2,132.4"/>
  <polygon class="pl" points="583.0,121.8 583.0,122.8 600.4,122.8 600.4,121.8 583.0,121.8"/>
  <polygon class="pl" points="604.7,134.0 604.7,135.1 622.1,135.1 622.1,134.0 604.7,134.0"/>
  <polygon class="pl" points="626.5,142.2 626.5,143.3 643.9,143.3 643.9,142.2 626.5,142.2"/>
  <polygon class="pl" points="648.3,151.6 648.3,152.7 665.7,152.7 665.7,151.6 648.3,151.6"/>
  <polygon class="pl" points="670.0,168.2 670.0,169.4 687.4,169.4 687.4,168.2 670.0,168.2"/>
  <polygon class="pl" points="691.8,161.9 691.8,163.1 709.2,163.1 709.2,161.9 691.8,161.9"/>
  <polygon class="pl" points="713.5,161.3 713.5,162.6 730.9,162.6 730.9,161.3 713.5,161.3"/>
  <polygon class="pl" points="735.3,158.3 735.3,159.5 752.7,159.5 752.7,158.3 735.3,158.3"/>
  <polygon class="pl" points="757.1,167.0 757.1,168.2 774.5,168.2 774.5,167.0 757.1,167.0"/>
  <polygon class="pl" points="778.8,183.9 778.8,185.0 796.2,185.0 796.2,183.9 778.8,183.9"/>
  <polygon class="pl" points="800.6,217.3 800.6,218.5 818.0,218.5 818.0,217.3 800.6,217.3"/>
  <polygon class="pl" points="822.3,196.2 822.3,197.4 839.7,197.4 839.7,196.2 822.3,196.2"/>
  <polygon class="pl" points="844.1,204.4 844.1,205.5 861.5,205.5 861.5,204.4 844.1,204.4"/>
  <polygon class="pl" points="865.9,234.9 865.9,236.0 883.3,236.0 883.3,234.9 865.9,234.9"/>
  <polygon class="pl" points="887.6,242.1 887.6,243.2 905.0,243.2 905.0,242.1 887.6,242.1"/>
</g>
<g stroke="#000" stroke-width="0.90" fill="#4A89E8"  clip-path="url(#axis_clip)">
  <polygon class="pl" points="147.8,71.3 147.8,108.7 165.2,108.7 165.2,71.3 147.8,71.3"/>
  <polygon class="pl" points="169.5,78.7 169.5,113.1 186.9,113.1 186.9,78.7 169.5,78.7"/>
  <polygon class="pl" points="191.3,93.6 191.3,126.4 208.7,126.4 208.7,93.6 191.3,93.6"/>
  <polygon class="pl" points="213.1,101.7 213.1,133.3 230.5,133.3 230.5,101.7 213.1,101.7"/>
  <polygon class="pl" points="234.8,103.9 234.8,137.3 252.2,137.3 252.2,103.9 234.8,103.9"/>
  <polygon class="pl" points="256.6,98.4 256.6,132.5 274.0,132.5 274.0,98.4 256.6,98.4"/>
  <polygon class="pl" points="278.3,88.2 278.3,121.4 295.7,121.4 295.7,88.2 278.3,88.2"/>
  <polygon class="pl" points="300.1,95.9 300.1,130.0 317.5,130.0 317.5,95.9 300.1,95.9"/>
  <polygon class="pl" points="321.9,97.0 321.9,131.0 339.3,131.0 339.3,97.0 321.9,97.0"/>
  <polygon class="pl" points="343.6,103.5 343.6,136.6 361.0,136.6 361.0,103.5 343.6,103.5"/>
  <polygon class="pl" points="365.4,102.1 365.4,136.8 382.8,136.8 382.8,102.1 365.4,102.1"/>
  <polygon class="pl" points="387.1,95.4 387.1,128.8 404.5,128.8 404.5,95.4 387.1,95.4"/>
  <polygon class="pl" points="408.9,95.3 408.9,128.9 426.3,128.9 426.3,95.3 408.9,95.3"/>
  <polygon class="pl" points="430.7,85.3 430.7,119.8 448.1,119.8 448.1,85.3 430.7,85.3"/>
  <polygon class="pl" points="452.4,84.1 452.4,120.0 469.8,120.0 469.8,84.1 452.4,84.1"/>
  <polygon class="pl" points="474.2,86.1 474.2,121.6 491.6,121.6 491.6,86.1 474.2,86.1"/>
  <polygon class="pl" points="495.9,84.1 495.9,120.4 513.3,120.4 513.3,84.1 495.9,84.1"/>
  <polygon class="pl" points="517.7,90.5 517.7,127.7 535.1,127.7 535.1,90.5 517.7,90.5"/>
  <polygon class="pl" points="539.5,100.4 539.5,135.2 556.9,135.2 556.9,100.4 539.5,100.4"/>
  <polygon class="pl" points="561.2,133.4 561.2,160.6 578.6,160.6 578.6,133.4 561.2,133.4"/>
  <polygon class="pl" points="583.0,122.8 583.0,152.7 600.4,152.7 600.4,122.8 583.0,122.8"/>
  <polygon class="pl" points="604.7,135.1 604.7,165.1 622.1,165.1 622.1,135.1 604.7,135.1"/>
  <polygon class="pl" points="626.5,143.3 626.5,171.4 643.9,171.4 643.9,143.3 626.5,143.3"/>
  <polygon class="pl" points="648.3,152.7 648.3,180.5 665.7,180.5 665.7,152.7 648.3,152.7"/>
  <polygon class="pl" points="670.0,169.4 670.0,197.9 687.4,197.9 687.4,169.4 670.0,169.4"/>
  <polygon class="pl" points="691.8,163.1 691.8,191.3 709.2,191.3 709.2,163.1 691.8,163.1"/>
  <polygon class="pl" points="713.5,162.6 713.5,191.2 730.9,191.2 730.9,162.6 713.5,162.6"/>
  <polygon class="pl" points="735.3,159.5 735.3,189.1 752.7,189.1 752.7,159.5 735.3,159.5"/>
  <polygon class="pl" points="757.1,168.2 757.1,197.5 774.5,197.5 774.5,168.2 757.1,168.2"/>
  <polygon class="pl" points="778.8,185.0 778.8,213.5 796.2,213.5 796.2,185.0 778.8,185.0"/>
  <polygon class="pl" points="800.6,218.5 800.6,244.9 818.0,244.9 818.0,218.5 800.6,218.5"/>
  <polygon class="pl" points="822.3,197.4 822.3,225.6 839.7,225.6 839.7,197.4 822.3,197.4"/>
  <polygon class="pl" points="844.1,205.5 844.1,231.1 861.5,231.1 861.5,205.5 844.1,205.5"/>
  <polygon class="pl" points="865.9,236.0 865.9,259.2 883.3,259.2 883.3,236.0 865.9,236.0"/>
  <polygon class="pl" points="887.6,243.2 887.6,266.2 905.0,266.2 905.0,243.2 887.6,243.2"/>
</g>
<g stroke="#000" stroke-width="0.90" fill="#FF7F61"  clip-path="url(#axis_clip)">
  <polygon class="pl" points="147.8,108.7 147.8,527.9 165.2,527.9 165.2,108.7 147.8,108.7"/>
  <polygon class="pl" points="169.5,113.1 169.5,527.9 186.9,527.9 186.9,113.1 169.5,113.1"/>
  <polygon class="pl" points="191.3,126.4 191.3,527.9 208.7,527.9 208.7,126.4 191.3,126.4"/>
  <polygon class="pl" points="213.1,133.3 213.1,527.9 230.5,527.9 230.5,133.3 213.1,133.3"/>
  <polygon class="pl" points="234.8,137.3 234.8,527.9 252.2,527.9 252.2,137.3 234.8,137.3"/>
  <polygon class="pl" points="256.6,132.5 256.6,527.9 274.0,527.9 274.0,132.5 256.6,132.5"/>
  <polygon class="pl" points="278.3,121.4 278.3,527.9 295.7,527.9 295.7,121.4 278.3,121.4"/>
  <polygon class="pl" points="300.1,130.0 300.1,527.9 317.5,527.9 317.5,130.0 300.1,130.0"/>
  <polygon class="pl" points="321.9,131.0 321.9,527.9 339.3,527.9 339.3,131.0 321.9,131.0"/>
  <polygon class="pl" points="343.6,136.6 343.6,527.9 361.0,527.9 361.0,136.6 343.6,136.6"/>
  <polygon class="pl" points="365.4,136.8 365.4,527.9 382.8,527.9 382.8,136.8 365.4,136.8"/>
  <polygon class="pl" points="387.1,128.8 387.1,527.9 404.5,527.9 404.5,128.8 387.1,128.8"/>
  <polygon class="pl" points="408.9,128.9 408.9,527.9 426.3,527.9 426.3,128.9 408.9,128.9"/>
  <polygon class="pl" points="430.7,119.8 430.7,527.9 448.1,527.9 448.1,119.8 430.7,119.8"/>
  <polygon class="pl" points="452.4,120.0 452.4,527.9 469.8,527.9 469.8,120.0 452.4,120.0"/>
  <polygon class="pl" points="474.2,121.6 474.2,527.9 491.6,527.9 491.6,121.6 474.2,121.6"/>
  <polygon class="pl" points="495.9,120.4 495.9,527.9 513.3,527.9 513.3,120.4 495.9,120.4"/>
  <polygon class="pl" points="517.7,127.7 517.7,527.9 535.1,527.9 535.1,127.7 517.7,127.7"/>
  <polygon class="pl" points="539.5,135.2 539.5,527.9 556.9,527.9 556.9,135.2 539.5,135.2"/>
  <polygon class="pl" points="561.2,160.6 561.2,527.9 578.6,527.9 578.6,160.6 561.2,160.6"/>
  <polygon class="pl" points="583.0,152.7 583.0,527.9 600.4,527.9 600.4,152.7 583.0,152.7"/>
  <polygon class="pl" points="604.7,165.1 604.7,527.9 622.1,527.9 622.1,165.1 604.7,165.1"/>
  <polygon class="pl" points="626.5,171.4 626.5,527.9 643.9,527.9 643.9,171.4 626.5,171.4"/>
  <polygon class="pl" points="648.3,180.5 648.3,527.9 665.7,527.9 665.7,180.5 648.3,180.5"/>
  <polygon class="pl" points="670.0,197.9 670.0,527.9 687.4,527.9 687.4,197.9 670.0,197.9"/>
  <polygon class="pl" points="691.8,191.3 691.8,527.9 709.2,527.9 709.2,191.3 691.8,191.3"/>
  <polygon class="pl" points="713.5,191.2 713.5,527.9 730.9,527.9 730.9,191.2 713.5,191.2"/>
  <polygon class="pl" points="735.3,189.1 735.3,527.9 752.7,527.9 752.7,189.1 735.3,189.1"/>
  <polygon class="pl" points="757.1,197.5 757.1,527.9 774.5,527.9 774.5,197.5 757.1,197.5"/>
  <polygon class="pl" points="778.8,213.5 778.8,527.9 796.2,527.9 796.2,213.5 778.8,213.5"/>
  <polygon class="pl" points="800.6,244.9 800.6,527.9 818.0,527.9 818.0,244.9 800.6,244.9"/>
  <polygon class="pl" points="822.3,225.6 822.3,527.9 839.7,527.9 839.7,225.6 822.3,225.6"/>
  <polygon class="pl" points="844.1,231.1 844.1,527.9 861.5,527.9 861.5,231.1 844.1,231.1"/>
  <polygon class="pl" points="865.9,259.2 865.9,527.9 883.3,527.9 883.3,259.2 865.9,259.2"/>
  <polygon class="pl" points="887.6,266.2 887.6,527.9 905.0,527.9 905.0,266.2 887.6,266.2"/>
</g>
<g stroke="#000" stroke-width="0.90" fill="#7FBF7F"  clip-path="url(#axis_clip)">
  <polygon class="pl" points="147.8,562.1 147.8,527.9 165.2,527.9 165.2,562.1 147.8,562.1"/>
  <polygon class="pl" points="169.5,573.5 169.5,527.9 186.9,527.9 186.9,573.5 169.5,573.5"/>
  <polygon class="pl" points="191.3,569.8 191.3,527.9 208.7,527.9 208.7,569.8 191.3,569.8"/>
  <polygon class="pl" points="213.1,572.7 213.1,527.9 230.5,527.9 230.5,572.7 213.1,572.7"/>
  <polygon class="pl" points="234.8,572.6 234.8,527.9 252.2,527.9 252.2,572.6 234.8,572.6"/>
  <polygon class="pl" points="256.6,575.7 256.6,527.9 274.0,527.9 274.0,575.7 256.6,575.7"/>
  <polygon class="pl" points="278.3,577.4 278.3,527.9 295.7,527.9 295.7,577.4 278.3,577.4"/>
  <polygon class="pl" points="300.1,576.1 300.1,527.9 317.5,527.9 317.5,576.1 300.1,576.1"/>
  <polygon class="pl" points="321.9,576.3 321.9,527.9 339.3,527.9 339.3,576.3 321.9,576.3"/>
  <polygon class="pl" points="343.6,576.7 343.6,527.9 361.0,527.9 361.0,576.7 343.6,576.7"/>
  <polygon class="pl" points="365.4,571.9 365.4,527.9 382.8,527.9 382.8,571.9 365.4,571.9"/>
  <polygon class="pl" points="387.1,578.3 387.1,527.9 404.5,527.9 404.5,578.3 387.1,578.3"/>
  <polygon class="pl" points="408.9,577.2 408.9,527.9 426.3,527.9 426.3,577.2 408.9,577.2"/>
  <polygon class="pl" points="430.7,573.1 430.7,527.9 448.1,527.9 448.1,573.1 430.7,573.1"/>
  <polygon class="pl" points="452.4,576.6 452.4,527.9 469.8,527.9 469.8,576.6 452.4,576.6"/>
  <polygon class="pl" points="474.2,576.6 474.2,527.9 491.6,527.9 491.6,576.6 474.2,576.6"/>
  <polygon class="pl" points="495.9,577.4 495.9,527.9 513.3,527.9 513.3,577.4 495.9,577.4"/>
  <polygon class="pl" points="517.7,571.4 517.7,527.9 535.1,527.9 535.1,571.4 517.7,571.4"/>
  <polygon class="pl" points="539.5,576.7 539.5,527.9 556.9,527.9 556.9,576.7 539.5,576.7"/>
  <polygon class="pl" points="561.2,576.5 561.2,527.9 578.6,527.9 578.6,576.5 561.2,576.5"/>
  <polygon class="pl" points="583.0,576.1 583.0,527.9 600.4,527.9 600.4,576.1 583.0,576.1"/>
  <polygon class="pl" points="604.7,574.2 604.7,527.9 622.1,527.9 622.1,574.2 604.7,574.2"/>
  <polygon class="pl" points="626.5,575.7 626.5,527.9 643.9,527.9 643.9,575.7 626.5,575.7"/>
  <polygon class="pl" points="648.3,574.5 648.3,527.9 665.7,527.9 665.7,574.5 648.3,574.5"/>
  <polygon class="pl" points="670.0,571.7 670.0,527.9 687.4,527.9 687.4,571.7 670.0,571.7"/>
  <polygon class="pl" points="691.8,571.0 691.8,527.9 709.2,527.9 709.2,571.0 691.8,571.0"/>
  <polygon class="pl" points="713.5,569.9 713.5,527.9 730.9,527.9 730.9,569.9 713.5,569.9"/>
  <polygon class="pl" points="735.3,564.2 735.3,527.9 752.7,527.9 752.7,564.2 735.3,564.2"/>
  <polygon class="pl" points="757.1,559.3 757.1,527.9 774.5,527.9 774.5,559.3 757.1,559.3"/>
  <polygon class="pl" points="778.8,559.1 778.8,527.9 796.2,527.9 796.2,559.1 778.8,559.1"/>
  <polygon class="pl" points="800.6,559.1 800.6,527.9 818.0,527.9 818.0,559.1 800.6,559.1"/>
  <polygon class="pl" points="822.3,558.1 822.3,527.9 839.7,527.9 839.7,558.1 822.3,558.1"/>
  <polygon class="pl" points="844.1,557.1 844.1,527.9 861.5,527.9 861.5,557.1 844.1,557.1"/>
  <polygon class="pl" points="865.9,557.1 865.9,527.9 883.3,527.9 883.3,557.1 865.9,557.1"/>
  <polygon class="pl" points="887.6,558.8 887.6,527.9 905.0,527.9 905.0,558.8 887.6,558.8"/>
</g>
<polyline class="pl" points="156.5,103.4 178.2,122.5 200.0,133.8 221.8,144.9 243.5,147.0 265.3,144.6 287.0,136.1 308.8,142.5 330.6,143.9 352.3,150.8 374.1,144.6 395.8,144.2 417.6,143.1 439.4,128.9 461.1,131.4 482.9,133.2 504.6,132.1 526.4,132.5 548.2,147.8 569.9,180.6 591.7,169.5 613.4,180.0 635.2,189.6 657.0,197.8 678.7,211.7 700.5,204.6 722.2,203.0 744.0,194.2 765.8,198.1 787.5,214.7 809.3,248.2 831.0,226.0 852.8,233.2 874.6,263.8 896.3,272.7" stroke="#000" stroke-width="5.40" stroke-opacity="1.00" fill="none" clip-path="url(#axis_clip)"/>
<g class="pl" fill="#FFF" stroke="#000" stroke-width="0.900">
  <circle cx="178.2" cy="122.5" r="2.2" />
  <circle cx="200.0" cy="133.8" r="2.2" />
  <circle cx="221.8" cy="144.9" r="2.2" />
  <circle cx="243.5" cy="147.0" r="2.2" />
  <circle cx="265.3" cy="144.6" r="2.2" />
  <circle cx="287.0" cy="136.1" r="2.2" />
  <circle cx="308.8" cy="142.5" r="2.2" />
  <circle cx="330.6" cy="143.9" r="2.2" />
  <circle cx="352.3" cy="150.8" r="2.2" />
  <circle cx="395.8" cy="144.2" r="2.2" />
  <circle cx="417.6" cy="143.1" r="2.2" />
  <circle cx="439.4" cy="128.9" r="2.2" />
  <circle cx="461.1" cy="131.4" r="2.2" />
  <circle cx="482.9" cy="133.2" r="2.2" />
  <circle cx="504.6" cy="132.1" r="2.2" />
  <circle cx="526.4" cy="132.5" r="2.2" />
  <circle cx="548.2" cy="147.8" r="2.2" />
  <circle cx="569.9" cy="180.6" r="2.2" />
  <circle cx="613.4" cy="180.0" r="2.2" />
  <circle cx="635.2" cy="189.6" r="2.2" />
  <circle cx="657.0" cy="197.8" r="2.2" />
  <circle cx="678.7" cy="211.7" r="2.2" />
  <circle cx="700.5" cy="204.6" r="2.2" />
  <circle cx="722.2" cy="203.0" r="2.2" />
  <circle cx="744.0" cy="194.2" r="2.2" />
  <circle cx="765.8" cy="198.1" r="2.2" />
  <circle cx="787.5" cy="214.7" r="2.2" />
  <circle cx="831.0" cy="226.0" r="2.2" />
  <circle cx="852.8" cy="233.2" r="2.2" />
  <circle cx="874.6" cy="263.8" r="2.2" />
  <circle cx="896.3" cy="272.7" r="2.2" />
</g>
<g class="pl" fill="#FFF" stroke="#000" stroke-width="0.900">
  <circle cx="156.5" cy="103.4" r="5.4" />
  <circle cx="374.1" cy="144.6" r="5.4" />
  <circle cx="591.7" cy="169.5" r="5.4" />
  <circle cx="809.3" cy="248.2" r="5.4" />
</g>
<text transform="translate(145.6,47.2)" dy="0.0" font-size="27.00" fill="#808080" stroke="none">Annual CO<tspan dy="0.2em"><tspan style="font-size:70%">2</tspan></tspan><tspan dy="-0.2em"> </tspan>Emissions: European Union</text>
<text transform="translate(130.0,81.6)" dy="8.1" font-size="27.00" fill="#808080" stroke="none" text-anchor="end">CO<tspan dy="0.2em"><tspan style="font-size:70%">2</tspan></tspan><tspan dy="-0.2em"></tspan></text>
<text transform="translate(945.6,290.5)" dy="7.6" font-size="25.20" fill="#000" stroke="none">-39.9% since 1990</text>
<text transform="translate(945.6,397.1)" dy="7.6" font-size="25.20" fill="#FF7F61" stroke="none">Energy</text>
<text transform="translate(945.6,265.5)" dy="7.6" font-size="25.20" fill="#4A89E8" stroke="none">Industrial Processes</text>
<text transform="translate(945.6,240.5)" dy="7.6" font-size="25.20" fill="#845F48" stroke="none">Agriculture</text>
<text transform="translate(945.6,215.4)" dy="7.6" font-size="25.20" fill="#DBA746" stroke="none">Waste</text>
<text transform="translate(945.6,543.4)" dy="7.6" font-size="25.20" fill="#7FBF7F" stroke="none">LULUCF</text>
<polyline class="pl" points="910.8,272.7 912.4,272.8 913.8,273.0 915.2,273.3 916.4,273.6 917.6,274.1 918.8,274.7 919.8,275.3 920.8,276.0 921.7,276.8 922.7,277.6 923.5,278.5 924.4,279.4 925.2,280.3 926.0,281.2 926.8,282.1 927.6,283.0 928.4,283.9 929.3,284.8 930.1,285.7 931.1,286.5 932.0,287.2 933.0,287.9 934.0,288.6 935.2,289.1 936.4,289.6 937.6,290.0 939.0,290.3 940.4,290.5 942.0,290.5" stroke="#000" stroke-width="0.90" stroke-opacity="1.00" fill="none" />
<polyline class="pl" points="910.8,254.7 912.4,254.7 913.8,254.8 915.2,255.0 916.4,255.3 917.6,255.5 918.8,255.9 919.8,256.3 920.8,256.7 921.7,257.2 922.7,257.7 923.5,258.2 924.4,258.7 925.2,259.3 926.0,259.8 926.8,260.4 927.6,260.9 928.4,261.5 929.3,262.0 930.1,262.5 931.1,263.0 932.0,263.5 933.0,263.9 934.0,264.3 935.2,264.7 936.4,264.9 937.6,265.2 939.0,265.4 940.4,265.5 942.0,265.5" stroke="#4A89E8" stroke-width="0.90" stroke-opacity="1.00" fill="none" />
<polyline class="pl" points="910.8,242.6 912.4,242.6 913.8,242.6 915.2,242.5 916.4,242.5 917.6,242.4 918.8,242.4 919.8,242.3 920.8,242.2 921.7,242.1 922.7,242.0 923.5,241.9 924.4,241.8 925.2,241.7 926.0,241.6 926.8,241.5 927.6,241.4 928.4,241.3 929.3,241.2 930.1,241.1 931.1,241.0 932.0,240.9 933.0,240.8 934.0,240.7 935.2,240.6 936.4,240.6 937.6,240.5 939.0,240.5 940.4,240.5 942.0,240.5" stroke="#845F48" stroke-width="0.90" stroke-opacity="1.00" fill="none" />
<polyline class="pl" points="910.8,241.9 912.4,241.8 913.8,241.6 915.2,241.1 916.4,240.6 917.6,239.8 918.8,239.0 919.8,238.0 920.8,237.0 921.7,235.9 922.7,234.7 923.5,233.4 924.4,232.1 925.2,230.7 926.0,229.4 926.8,228.0 927.6,226.6 928.4,225.3 929.3,224.0 930.1,222.7 931.1,221.5 932.0,220.4 933.0,219.3 934.0,218.4 935.2,217.5 936.4,216.8 937.6,216.2 939.0,215.8 940.4,215.5 942.0,215.4" stroke="#DBA746" stroke-width="0.90" stroke-opacity="1.00" fill="none" />
<text transform="translate(160.0,666.1)" font-size="19.80" font-family="Helvetica" fill="#BFBFBF" stroke="none" xml:space="preserve">CICERO   &#9679;   Data: UNFCCC (2026)</text>
<g>
  <rect x="123.0" y="651.4" width="34" height="17" fill="#FFF" stroke="none" opacity="0.01"/>
  <g transform="translate(124.0,652.4) scale(0.24)">
  <g><circle fill="#FFF" cx="37.79" cy="28.5" r="28.84"/>
     <circle fill="none" cx="37.79" cy="28.5" r="28.84" stroke="#BFBFBF" stroke-width="5.5"/>
     <path fill="#BFBFBF" d="M37.16,23.19 l-4.29,2.23c-0.458-0.951-1.02-1.62-1.69-2c-0.667-0.38-1.29-0.571-1.86-0.571c-2.86,0-4.29,1.89-4.29,5.66 c0,1.71,0.36,3.08,1.09,4.11c0.724,1.03,1.79,1.54,3.2,1.54c1.87,0,3.18-0.915,3.94-2.74l3.94,2 c-0.838,1.56-2,2.79-3.49,3.69c-1.48,0.896-3.12,1.34-4.91,1.34c-2.86,0-5.16-0.875-6.92-2.63 c-1.75-1.75-2.63-4.19-2.63-7.31c0-3.05,0.886-5.47,2.66-7.26c1.77-1.79,4.01-2.69,6.72-2.69 C32.6,18.56,35.44,20.1,37.16,23.19z
              M55.61,23.19l-4.23,2.23c-0.457-0.951-1.02-1.62-1.69-2 c-0.668-0.38-1.31-0.571-1.91-0.571c-2.86,0-4.29,1.89-4.29,5.66c0,1.71,0.363,3.08,1.09,4.11 c0.723,1.03,1.79,1.54,3.2,1.54c1.87,0,3.18-0.915,3.94-2.74l4,2c-0.875,1.56-2.06,2.79-3.54,3.69 c-1.49,0.9-3.11,1.34-4.86,1.34c-2.9,0-5.21-0.875-6.94-2.63c-1.74-1.75-2.6-4.19-2.6-7.31 c0-3.05,0.885-5.47,2.66-7.26c1.77-1.79,4.01-2.69,6.71-2.69C51.12,18.56,53.944,20.1,55.61,23.19z"/>
  </g></g>
  <g transform="translate(140.2,652.4) scale(0.24)">
  <g><circle fill="#FFF" cx="37.79" cy="28.5" r="28.84"/>
     <circle fill="none" cx="37.79" cy="28.5" r="28.84" stroke="#BFBFBF" stroke-width="5.5"/>
     <path fill="#BFBFBF" d="M46.129,20.557v13.085h-3.656v15.542h-9.944V33.643h-3.656V20.557 c0-0.572,0.2-1.057,0.599-1.457c0.401-0.399,0.887-0.6,1.457-0.6h13.144c0.533,0,1.01,0.2,1.428,0.6 C45.918,19.5,46.129,19.986,46.129,20.557z
              M33.042,12.329c0-3.008,1.485-4.514,4.458-4.514s4.457,1.504,4.457,4.514 c0,2.971-1.486,4.457-4.457,4.457S33.042,15.3,33.042,12.329z"/>
  </g></g>
</g>
</g>
</svg>
