<svg version="1.1" xmlns="http://www.w3.org/2000/svg" xmlns:xlink="http://www.w3.org/1999/xlink" width="100%" height="100%" viewBox="0 0 1200.000 674.916">
<title>Emissions and removals on forest land: European Union</title>
<style type="text/css">
  #main {font-family:Helvetica,Arial,sans-serif; font-size:27.00px;
         fill-opacity:1; fill:#000000; stroke:none; stroke-linejoin:round; stroke-linecap:round; stroke-width:1.00;}
  .marker {stroke-opacity:0;fill-opacity:0;}
  .marker:hover {stroke-opacity:0.5; fill-opacity:1;}
  .ticklabel {font-size:27.00px;fill:#808080;stroke:none;font-family:Helvetica}
  .ytl {text-anchor:end;}
  .dp1 {pointer-events:none;font-size:70%;text-anchor:middle;fill:#000000;}
  .dp2 {pointer-events:none;font-size:70%;text-anchor:middle;fill:#FFFFFF;}
  .numtip {pointer-events:none;}
  .cc {opacity:0.25;}
.dl_fe {background-color:#FDFFDF;display:flex;margin:auto;align-items:center}
.dl_fe_p {font-size:20px;text-align:center;margin:3px}
.dl_el {display:none;pointer-events:none;}
.cc:hover + .dl_el {display:block;}
text:hover + .dl_el {display:block;}
</style>
<defs>
  <clipPath id="axis_clip"><rect x="145.8" y="54.2" width="761.2" height="532.8" /></clipPath>
  <path id="line_y" d="M 0,53.993 v 533.183" stroke="#262626" stroke-opacity="0.15" stroke-width="1.00"/>
  <path id="line_x" d="M 145.600,0 h 761.600" stroke="#262626" stroke-opacity="0.15" stroke-width="1.00"/>
  <path id="tick_y" d="M 145.600,0 h -6.000" stroke="#808080" stroke-width="0.90"/>
  <path id="tick_x" d="M 0,587.177 v 6.000" stroke="#808080" stroke-width="0.90"/>
</defs>
<g id="main">
<use xlink:href="#line_y" transform="translate(156.8,0)"/>
<use xlink:href="#line_y" transform="translate(268.8,0)"/>
<use xlink:href="#line_y" transform="translate(380.8,0)"/>
<use xlink:href="#line_y" transform="translate(492.8,0)"/>
<use xlink:href="#line_y" transform="translate(604.8,0)"/>
<use xlink:href="#line_y" transform="translate(716.8,0)"/>
<use xlink:href="#line_y" transform="translate(828.8,0)"/>
<use xlink:href="#line_y" transform="translate(896.0,0)"/>
<use xlink:href="#line_x" transform="translate(0,587.2)"/>
<use xlink:href="#line_x" transform="translate(0,498.3)"/>
<use xlink:href="#line_x" transform="translate(0,409.4)"/>
<use xlink:href="#line_x" transform="translate(0,320.6)"/>
<use xlink:href="#line_x" transform="translate(0,231.7)"/>
<use xlink:href="#line_x" transform="translate(0,142.9)"/>
<use xlink:href="#line_x" transform="translate(0,54.0)"/>
<use xlink:href="#tick_y" transform="translate(0,587.2)"/>
<use xlink:href="#tick_y" transform="translate(0,498.3)"/>
<use xlink:href="#tick_y" transform="translate(0,409.4)"/>
<use xlink:href="#tick_y" transform="translate(0,320.6)"/>
<use xlink:href="#tick_y" transform="translate(0,231.7)"/>
<use xlink:href="#tick_y" transform="translate(0,142.9)"/>
<use xlink:href="#tick_y" transform="translate(0,54.0)"/>
<use xlink:href="#tick_x" transform="translate(156.8,0)"/>
<use xlink:href="#tick_x" transform="translate(268.8,0)"/>
<use xlink:href="#tick_x" transform="translate(380.8,0)"/>
<use xlink:href="#tick_x" transform="translate(492.8,0)"/>
<use xlink:href="#tick_x" transform="translate(604.8,0)"/>
<use xlink:href="#tick_x" transform="translate(716.8,0)"/>
<use xlink:href="#tick_x" transform="translate(828.8,0)"/>
<use xlink:href="#tick_x" transform="translate(896.0,0)"/>
<polyline points="145.6,53.993 145.6,587.177 907.2,587.177" stroke="#808080" stroke-width="0.90" fill="none"/>
<text class="ticklabel xtl" transform="translate(156.8,629.0)" text-anchor="middle">1990</text>
<text class="ticklabel xtl" transform="translate(268.8,629.0)" text-anchor="middle">1995</text>
<text class="ticklabel xtl" transform="translate(380.8,629.0)" text-anchor="middle">2000</text>
<text class="ticklabel xtl" transform="translate(492.8,629.0)" text-anchor="middle">2005</text>
<text class="ticklabel xtl" transform="translate(604.8,629.0)" text-anchor="middle">2010</text>
<text class="ticklabel xtl" transform="translate(716.8,629.0)" text-anchor="middle">2015</text>
<text class="ticklabel xtl" transform="translate(828.8,629.0)" text-anchor="middle">2020</text>
<text class="ticklabel xtl" transform="translate(896.0,629.0)" text-anchor="middle">23</text>
<text class="ticklabel ytl" transform="translate(128.8,595.3)">-500</text>
<text class="ticklabel ytl" transform="translate(128.8,506.4)">-400</text>
<text class="ticklabel ytl" transform="translate(128.8,417.5)">-300</text>
<text class="ticklabel ytl" transform="translate(128.8,328.7)">-200</text>
<text class="ticklabel ytl" transform="translate(128.8,239.8)">-100</text>
<text class="ticklabel ytl" transform="translate(128.8,151.0)">0</text>
<text class="ticklabel ytl" transform="translate(128.8,62.1)">100 Mt</text>
<g stroke="#000" stroke-width="0.90" fill="#87AC55"  clip-path="url(#axis_clip)">
  <polygon points="147.8,128.5 147.8,142.9 165.8,142.9 165.8,128.5 147.8,128.5"/>
  <polygon points="170.2,127.9 170.2,142.9 188.2,142.9 188.2,127.9 170.2,127.9"/>
  <polygon points="192.6,128.3 192.6,142.9 210.6,142.9 210.6,128.3 192.6,128.3"/>
  <polygon points="215.0,129.2 215.0,142.9 233.0,142.9 233.0,129.2 215.0,129.2"/>
  <polygon points="237.4,129.7 237.4,142.9 255.4,142.9 255.4,129.7 237.4,129.7"/>
  <polygon points="259.8,129.3 259.8,142.9 277.8,142.9 277.8,129.3 259.8,129.3"/>
  <polygon points="282.2,128.6 282.2,142.9 300.2,142.9 300.2,128.6 282.2,128.6"/>
  <polygon points="304.6,129.2 304.6,142.9 322.6,142.9 322.6,129.2 304.6,129.2"/>
  <polygon points="327.0,129.0 327.0,142.9 345.0,142.9 345.0,129.0 327.0,129.0"/>
  <polygon points="349.4,128.7 349.4,142.9 367.4,142.9 367.4,128.7 349.4,128.7"/>
  <polygon points="371.8,128.6 371.8,142.9 389.8,142.9 389.8,128.6 371.8,128.6"/>
  <polygon points="394.2,127.9 394.2,142.9 412.2,142.9 412.2,127.9 394.2,127.9"/>
  <polygon points="416.6,127.9 416.6,142.9 434.6,142.9 434.6,127.9 416.6,127.9"/>
  <polygon points="439.0,127.5 439.0,142.9 457.0,142.9 457.0,127.5 439.0,127.5"/>
  <polygon points="461.4,127.9 461.4,142.9 479.4,142.9 479.4,127.9 461.4,127.9"/>
  <polygon points="483.8,127.5 483.8,142.9 501.8,142.9 501.8,127.5 483.8,127.5"/>
  <polygon points="506.2,126.2 506.2,142.9 524.2,142.9 524.2,126.2 506.2,126.2"/>
  <polygon points="528.6,126.2 528.6,142.9 546.6,142.9 546.6,126.2 528.6,126.2"/>
  <polygon points="551.0,126.1 551.0,142.9 569.0,142.9 569.0,126.1 551.0,126.1"/>
  <polygon points="573.4,125.2 573.4,142.9 591.4,142.9 591.4,125.2 573.4,125.2"/>
  <polygon points="595.8,125.9 595.8,142.9 613.8,142.9 613.8,125.9 595.8,125.9"/>
  <polygon points="618.2,125.5 618.2,142.9 636.2,142.9 636.2,125.5 618.2,125.5"/>
  <polygon points="640.6,125.0 640.6,142.9 658.6,142.9 658.6,125.0 640.6,125.0"/>
  <polygon points="663.0,125.0 663.0,142.9 681.0,142.9 681.0,125.0 663.0,125.0"/>
  <polygon points="685.4,124.7 685.4,142.9 703.4,142.9 703.4,124.7 685.4,124.7"/>
  <polygon points="707.8,124.5 707.8,142.9 725.8,142.9 725.8,124.5 707.8,124.5"/>
  <polygon points="730.2,124.1 730.2,142.9 748.2,142.9 748.2,124.1 730.2,124.1"/>
  <polygon points="752.6,123.9 752.6,142.9 770.6,142.9 770.6,123.9 752.6,123.9"/>
  <polygon points="775.0,123.8 775.0,142.9 793.0,142.9 793.0,123.8 775.0,123.8"/>
  <polygon points="797.4,122.9 797.4,142.9 815.4,142.9 815.4,122.9 797.4,122.9"/>
  <polygon points="819.8,121.6 819.8,142.9 837.8,142.9 837.8,121.6 819.8,121.6"/>
  <polygon points="842.2,121.3 842.2,142.9 860.2,142.9 860.2,121.3 842.2,121.3"/>
  <polygon points="864.6,120.0 864.6,142.9 882.6,142.9 882.6,120.0 864.6,120.0"/>
  <polygon points="887.0,118.3 887.0,142.9 905.0,142.9 905.0,118.3 887.0,118.3"/>
</g>
<g stroke="#000" stroke-width="0.90" fill="#834B8E"  clip-path="url(#axis_clip)">
</g>
<g stroke="#000" stroke-width="0.90" fill="#D5AF54"  clip-path="url(#axis_clip)">
</g>
<g stroke="#000" stroke-width="0.90" fill="#D97B53"  clip-path="url(#axis_clip)">
</g>
<g stroke="#000" stroke-width="0.90" fill="#3988BD"  clip-path="url(#axis_clip)">
</g>
<g stroke="#000" stroke-width="0.90" fill="#87AC55"  clip-path="url(#axis_clip)">
</g>
<g stroke="#000" stroke-width="0.90" fill="#834B8E"  clip-path="url(#axis_clip)">
  <polygon points="147.8,502.4 147.8,445.5 165.8,445.5 165.8,502.4 147.8,502.4"/>
  <polygon points="170.2,576.1 170.2,518.5 188.2,518.5 188.2,576.1 170.2,576.1"/>
  <polygon points="192.6,554.3 192.6,498.1 210.6,498.1 210.6,554.3 192.6,554.3"/>
  <polygon points="215.0,556.7 215.0,498.4 233.0,498.4 233.0,556.7 215.0,556.7"/>
  <polygon points="237.4,547.9 237.4,491.2 255.4,491.2 255.4,547.9 237.4,547.9"/>
  <polygon points="259.8,555.0 259.8,495.4 277.8,495.4 277.8,555.0 259.8,555.0"/>
  <polygon points="282.2,574.8 282.2,513.6 300.2,513.6 300.2,574.8 282.2,574.8"/>
  <polygon points="304.6,566.5 304.6,506.3 322.6,506.3 322.6,566.5 304.6,566.5"/>
  <polygon points="327.0,574.9 327.0,515.3 345.0,515.3 345.0,574.9 327.0,574.9"/>
  <polygon points="349.4,577.3 349.4,517.6 367.4,517.6 367.4,577.3 349.4,577.3"/>
  <polygon points="371.8,537.3 371.8,479.2 389.8,479.2 389.8,537.3 371.8,537.3"/>
  <polygon points="394.2,570.8 394.2,509.9 412.2,509.9 412.2,570.8 394.2,570.8"/>
  <polygon points="416.6,547.6 416.6,489.3 434.6,489.3 434.6,547.6 416.6,547.6"/>
  <polygon points="439.0,539.9 439.0,479.2 457.0,479.2 457.0,539.9 439.0,539.9"/>
  <polygon points="461.4,549.8 461.4,488.8 479.4,488.8 479.4,549.8 461.4,549.8"/>
  <polygon points="483.8,553.9 483.8,493.6 501.8,493.6 501.8,553.9 483.8,553.9"/>
  <polygon points="506.2,548.3 506.2,489.5 524.2,489.5 524.2,548.3 506.2,548.3"/>
  <polygon points="528.6,514.8 528.6,459.5 546.6,459.5 546.6,514.8 528.6,514.8"/>
  <polygon points="551.0,563.2 551.0,507.9 569.0,507.9 569.0,563.2 551.0,563.2"/>
  <polygon points="573.4,574.3 573.4,525.9 591.4,525.9 591.4,574.3 573.4,574.3"/>
  <polygon points="595.8,551.0 595.8,502.2 613.8,502.2 613.8,551.0 595.8,551.0"/>
  <polygon points="618.2,552.4 618.2,497.6 636.2,497.6 636.2,552.4 618.2,552.4"/>
  <polygon points="640.6,552.8 640.6,501.5 658.6,501.5 658.6,552.8 640.6,552.8"/>
  <polygon points="663.0,559.6 663.0,505.9 681.0,505.9 681.0,559.6 663.0,559.6"/>
  <polygon points="685.4,529.8 685.4,484.8 703.4,484.8 703.4,529.8 685.4,529.8"/>
  <polygon points="707.8,516.0 707.8,466.0 725.8,466.0 725.8,516.0 707.8,516.0"/>
  <polygon points="730.2,516.2 730.2,468.8 748.2,468.8 748.2,516.2 730.2,516.2"/>
  <polygon points="752.6,478.3 752.6,434.3 770.6,434.3 770.6,478.3 752.6,478.3"/>
  <polygon points="775.0,408.1 775.0,367.5 793.0,367.5 793.0,408.1 775.0,408.1"/>
  <polygon points="797.4,395.9 797.4,351.6 815.4,351.6 815.4,395.9 797.4,395.9"/>
  <polygon points="819.8,401.7 819.8,360.0 837.8,360.0 837.8,401.7 819.8,401.7"/>
  <polygon points="842.2,391.3 842.2,344.5 860.2,344.5 860.2,391.3 842.2,391.3"/>
  <polygon points="864.6,403.8 864.6,364.4 882.6,364.4 882.6,403.8 864.6,403.8"/>
  <polygon points="887.0,419.6 887.0,389.3 905.0,389.3 905.0,419.6 887.0,419.6"/>
</g>
<g stroke="#000" stroke-width="0.90" fill="#D5AF54"  clip-path="url(#axis_clip)">
  <polygon points="147.8,445.5 147.8,435.4 165.8,435.4 165.8,445.5 147.8,445.5"/>
  <polygon points="170.2,518.5 170.2,508.8 188.2,508.8 188.2,518.5 170.2,518.5"/>
  <polygon points="192.6,498.1 192.6,487.8 210.6,487.8 210.6,498.1 192.6,498.1"/>
  <polygon points="215.0,498.4 215.0,488.1 233.0,488.1 233.0,498.4 215.0,498.4"/>
  <polygon points="237.4,491.2 237.4,480.4 255.4,480.4 255.4,491.2 237.4,491.2"/>
  <polygon points="259.8,495.4 259.8,484.5 277.8,484.5 277.8,495.4 259.8,495.4"/>
  <polygon points="282.2,513.6 282.2,502.6 300.2,502.6 300.2,513.6 282.2,513.6"/>
  <polygon points="304.6,506.3 304.6,495.6 322.6,495.6 322.6,506.3 304.6,506.3"/>
  <polygon points="327.0,515.3 327.0,504.3 345.0,504.3 345.0,515.3 327.0,515.3"/>
  <polygon points="349.4,517.6 349.4,506.7 367.4,506.7 367.4,517.6 349.4,517.6"/>
  <polygon points="371.8,479.2 371.8,468.5 389.8,468.5 389.8,479.2 371.8,479.2"/>
  <polygon points="394.2,509.9 394.2,499.1 412.2,499.1 412.2,509.9 394.2,509.9"/>
  <polygon points="416.6,489.3 416.6,478.5 434.6,478.5 434.6,489.3 416.6,489.3"/>
  <polygon points="439.0,479.2 439.0,468.6 457.0,468.6 457.0,479.2 439.0,479.2"/>
  <polygon points="461.4,488.8 461.4,478.8 479.4,478.8 479.4,488.8 461.4,488.8"/>
  <polygon points="483.8,493.6 483.8,483.4 501.8,483.4 501.8,493.6 483.8,493.6"/>
  <polygon points="506.2,489.5 506.2,478.9 524.2,478.9 524.2,489.5 506.2,489.5"/>
  <polygon points="528.6,459.5 528.6,448.4 546.6,448.4 546.6,459.5 528.6,459.5"/>
  <polygon points="551.0,507.9 551.0,497.3 569.0,497.3 569.0,507.9 551.0,507.9"/>
  <polygon points="573.4,525.9 573.4,514.9 591.4,514.9 591.4,525.9 573.4,525.9"/>
  <polygon points="595.8,502.2 595.8,490.8 613.8,490.8 613.8,502.2 595.8,502.2"/>
  <polygon points="618.2,497.6 618.2,486.3 636.2,486.3 636.2,497.6 618.2,497.6"/>
  <polygon points="640.6,501.5 640.6,489.7 658.6,489.7 658.6,501.5 640.6,501.5"/>
  <polygon points="663.0,505.9 663.0,493.5 681.0,493.5 681.0,505.9 663.0,505.9"/>
  <polygon points="685.4,484.8 685.4,472.4 703.4,472.4 703.4,484.8 685.4,484.8"/>
  <polygon points="707.8,466.0 707.8,454.0 725.8,454.0 725.8,466.0 707.8,466.0"/>
  <polygon points="730.2,468.8 730.2,454.3 748.2,454.3 748.2,468.8 730.2,468.8"/>
  <polygon points="752.6,434.3 752.6,418.9 770.6,418.9 770.6,434.3 752.6,434.3"/>
  <polygon points="775.0,367.5 775.0,352.3 793.0,352.3 793.0,367.5 775.0,367.5"/>
  <polygon points="797.4,351.6 797.4,335.6 815.4,335.6 815.4,351.6 797.4,351.6"/>
  <polygon points="819.8,360.0 819.8,344.2 837.8,344.2 837.8,360.0 819.8,360.0"/>
  <polygon points="842.2,344.5 842.2,329.4 860.2,329.4 860.2,344.5 842.2,344.5"/>
  <polygon points="864.6,364.4 864.6,349.9 882.6,349.9 882.6,364.4 864.6,364.4"/>
  <polygon points="887.0,389.3 887.0,375.3 905.0,375.3 905.0,389.3 887.0,389.3"/>
</g>
<g stroke="#000" stroke-width="0.90" fill="#D97B53"  clip-path="url(#axis_clip)">
  <polygon points="147.8,435.4 147.8,416.1 165.8,416.1 165.8,435.4 147.8,435.4"/>
  <polygon points="170.2,508.8 170.2,492.5 188.2,492.5 188.2,508.8 170.2,508.8"/>
  <polygon points="192.6,487.8 192.6,469.4 210.6,469.4 210.6,487.8 192.6,487.8"/>
  <polygon points="215.0,488.1 215.0,469.6 233.0,469.6 233.0,488.1 215.0,488.1"/>
  <polygon points="237.4,480.4 237.4,460.8 255.4,460.8 255.4,480.4 237.4,480.4"/>
  <polygon points="259.8,484.5 259.8,464.0 277.8,464.0 277.8,484.5 259.8,484.5"/>
  <polygon points="282.2,502.6 282.2,483.3 300.2,483.3 300.2,502.6 282.2,502.6"/>
  <polygon points="304.6,495.6 304.6,474.7 322.6,474.7 322.6,495.6 304.6,495.6"/>
  <polygon points="327.0,504.3 327.0,482.9 345.0,482.9 345.0,504.3 327.0,504.3"/>
  <polygon points="349.4,506.7 349.4,425.0 367.4,425.0 367.4,506.7 349.4,506.7"/>
  <polygon points="371.8,468.5 371.8,451.9 389.8,451.9 389.8,468.5 371.8,468.5"/>
  <polygon points="394.2,499.1 394.2,478.8 412.2,478.8 412.2,499.1 394.2,499.1"/>
  <polygon points="416.6,478.5 416.6,456.6 434.6,456.6 434.6,478.5 416.6,478.5"/>
  <polygon points="439.0,468.6 439.0,446.0 457.0,446.0 457.0,468.6 439.0,468.6"/>
  <polygon points="461.4,478.8 461.4,455.3 479.4,455.3 479.4,478.8 461.4,478.8"/>
  <polygon points="483.8,483.4 483.8,459.0 501.8,459.0 501.8,483.4 483.8,483.4"/>
  <polygon points="506.2,478.9 506.2,455.8 524.2,455.8 524.2,478.9 506.2,478.9"/>
  <polygon points="528.6,448.4 528.6,424.0 546.6,424.0 546.6,448.4 528.6,448.4"/>
  <polygon points="551.0,497.3 551.0,486.3 569.0,486.3 569.0,497.3 551.0,497.3"/>
  <polygon points="573.4,514.9 573.4,485.2 591.4,485.2 591.4,514.9 573.4,514.9"/>
  <polygon points="595.8,490.8 595.8,474.8 613.8,474.8 613.8,490.8 595.8,490.8"/>
  <polygon points="618.2,486.3 618.2,470.1 636.2,470.1 636.2,486.3 618.2,486.3"/>
  <polygon points="640.6,489.7 640.6,466.3 658.6,466.3 658.6,489.7 640.6,489.7"/>
  <polygon points="663.0,493.5 663.0,469.7 681.0,469.7 681.0,493.5 663.0,493.5"/>
  <polygon points="685.4,472.4 685.4,449.7 703.4,449.7 703.4,472.4 685.4,472.4"/>
  <polygon points="707.8,454.0 707.8,433.8 725.8,433.8 725.8,454.0 707.8,454.0"/>
  <polygon points="730.2,454.3 730.2,425.3 748.2,425.3 748.2,454.3 730.2,454.3"/>
  <polygon points="752.6,418.9 752.6,385.2 770.6,385.2 770.6,418.9 752.6,418.9"/>
  <polygon points="775.0,352.3 775.0,308.6 793.0,308.6 793.0,352.3 775.0,352.3"/>
  <polygon points="797.4,335.6 797.4,287.0 815.4,287.0 815.4,335.6 797.4,335.6"/>
  <polygon points="819.8,344.2 819.8,291.3 837.8,291.3 837.8,344.2 819.8,344.2"/>
  <polygon points="842.2,329.4 842.2,278.6 860.2,278.6 860.2,329.4 842.2,329.4"/>
  <polygon points="864.6,349.9 864.6,298.4 882.6,298.4 882.6,349.9 864.6,349.9"/>
  <polygon points="887.0,375.3 887.0,330.6 905.0,330.6 905.0,375.3 887.0,375.3"/>
</g>
<g stroke="#000" stroke-width="0.90" fill="#3988BD"  clip-path="url(#axis_clip)">
  <polygon points="147.8,416.1 147.8,142.9 165.8,142.9 165.8,416.1 147.8,416.1"/>
  <polygon points="170.2,492.5 170.2,142.9 188.2,142.9 188.2,492.5 170.2,492.5"/>
  <polygon points="192.6,469.4 192.6,142.9 210.6,142.9 210.6,469.4 192.6,469.4"/>
  <polygon points="215.0,469.6 215.0,142.9 233.0,142.9 233.0,469.6 215.0,469.6"/>
  <polygon points="237.4,460.8 237.4,142.9 255.4,142.9 255.4,460.8 237.4,460.8"/>
  <polygon points="259.8,464.0 259.8,142.9 277.8,142.9 277.8,464.0 259.8,464.0"/>
  <polygon points="282.2,483.3 282.2,142.9 300.2,142.9 300.2,483.3 282.2,483.3"/>
  <polygon points="304.6,474.7 304.6,142.9 322.6,142.9 322.6,474.7 304.6,474.7"/>
  <polygon points="327.0,482.9 327.0,142.9 345.0,142.9 345.0,482.9 327.0,482.9"/>
  <polygon points="349.4,425.0 349.4,142.9 367.4,142.9 367.4,425.0 349.4,425.0"/>
  <polygon points="371.8,451.9 371.8,142.9 389.8,142.9 389.8,451.9 371.8,451.9"/>
  <polygon points="394.2,478.8 394.2,142.9 412.2,142.9 412.2,478.8 394.2,478.8"/>
  <polygon points="416.6,456.6 416.6,142.9 434.6,142.9 434.6,456.6 416.6,456.6"/>
  <polygon points="439.0,446.0 439.0,142.9 457.0,142.9 457.0,446.0 439.0,446.0"/>
  <polygon points="461.4,455.3 461.4,142.9 479.4,142.9 479.4,455.3 461.4,455.3"/>
  <polygon points="483.8,459.0 483.8,142.9 501.8,142.9 501.8,459.0 483.8,459.0"/>
  <polygon points="506.2,455.8 506.2,142.9 524.2,142.9 524.2,455.8 506.2,455.8"/>
  <polygon points="528.6,424.0 528.6,142.9 546.6,142.9 546.6,424.0 528.6,424.0"/>
  <polygon points="551.0,486.3 551.0,142.9 569.0,142.9 569.0,486.3 551.0,486.3"/>
  <polygon points="573.4,485.2 573.4,142.9 591.4,142.9 591.4,485.2 573.4,485.2"/>
  <polygon points="595.8,474.8 595.8,142.9 613.8,142.9 613.8,474.8 595.8,474.8"/>
  <polygon points="618.2,470.1 618.2,142.9 636.2,142.9 636.2,470.1 618.2,470.1"/>
  <polygon points="640.6,466.3 640.6,142.9 658.6,142.9 658.6,466.3 640.6,466.3"/>
  <polygon points="663.0,469.7 663.0,142.9 681.0,142.9 681.0,469.7 663.0,469.7"/>
  <polygon points="685.4,449.7 685.4,142.9 703.4,142.9 703.4,449.7 685.4,449.7"/>
  <polygon points="707.8,433.8 707.8,142.9 725.8,142.9 725.8,433.8 707.8,433.8"/>
  <polygon points="730.2,425.3 730.2,142.9 748.2,142.9 748.2,425.3 730.2,425.3"/>
  <polygon points="752.6,385.2 752.6,142.9 770.6,142.9 770.6,385.2 752.6,385.2"/>
  <polygon points="775.0,308.6 775.0,142.9 793.0,142.9 793.0,308.6 775.0,308.6"/>
  <polygon points="797.4,287.0 797.4,142.9 815.4,142.9 815.4,287.0 797.4,287.0"/>
  <polygon points="819.8,291.3 819.8,142.9 837.8,142.9 837.8,291.3 819.8,291.3"/>
  <polygon points="842.2,278.6 842.2,142.9 860.2,142.9 860.2,278.6 842.2,278.6"/>
  <polygon points="864.6,298.4 864.6,142.9 882.6,142.9 882.6,298.4 864.6,298.4"/>
  <polygon points="887.0,330.6 887.0,142.9 905.0,142.9 905.0,330.6 887.0,330.6"/>
</g>
<text transform="translate(145.6,47.2)" dy="0.0" font-size="27.00" fill="#808080" stroke="none">Emissions and removals on forest land: European Union</text>
<text transform="translate(130.0,81.6)" dy="8.1" font-size="27.00" fill="#808080" stroke="none" text-anchor="end">CO<tspan dy="0.2em"><tspan style="font-size:70%">2</tspan></tspan><tspan dy="-0.2em"></tspan></text>
<polyline class="pl" points="156.8,488.3 179.2,561.4 201.6,540.0 224.0,543.4 246.4,535.1 268.8,541.8 291.2,560.8 313.6,553.2 336.0,561.4 358.4,563.5 380.8,523.3 403.2,556.1 425.6,532.9 448.0,524.8 470.4,535.2 492.8,538.9 515.2,531.9 537.6,498.4 560.0,546.7 582.4,556.9 604.8,534.3 627.2,535.4 649.6,535.3 672.0,542.1 694.4,511.9 716.8,497.9 739.2,497.6 761.6,459.6 784.0,389.2 806.4,376.2 828.8,380.7 851.2,370.0 873.6,381.1 896.0,395.2" stroke="#000" stroke-width="5.40" fill="none" clip-path="url(#axis_clip)"/>
<g class="pl" fill="#FFF" stroke="#000" stroke-width="0.900">
  <circle cx="179.2" cy="561.4" r="2.2" />
  <circle cx="201.6" cy="540.0" r="2.2" />
  <circle cx="224.0" cy="543.4" r="2.2" />
  <circle cx="246.4" cy="535.1" r="2.2" />
  <circle cx="268.8" cy="541.8" r="2.2" />
  <circle cx="291.2" cy="560.8" r="2.2" />
  <circle cx="313.6" cy="553.2" r="2.2" />
  <circle cx="336.0" cy="561.4" r="2.2" />
  <circle cx="358.4" cy="563.5" r="2.2" />
  <circle cx="403.2" cy="556.1" r="2.2" />
  <circle cx="425.6" cy="532.9" r="2.2" />
  <circle cx="448.0" cy="524.8" r="2.2" />
  <circle cx="470.4" cy="535.2" r="2.2" />
  <circle cx="492.8" cy="538.9" r="2.2" />
  <circle cx="515.2" cy="531.9" r="2.2" />
  <circle cx="537.6" cy="498.4" r="2.2" />
  <circle cx="560.0" cy="546.7" r="2.2" />
  <circle cx="582.4" cy="556.9" r="2.2" />
  <circle cx="627.2" cy="535.4" r="2.2" />
  <circle cx="649.6" cy="535.3" r="2.2" />
  <circle cx="672.0" cy="542.1" r="2.2" />
  <circle cx="694.4" cy="511.9" r="2.2" />
  <circle cx="716.8" cy="497.9" r="2.2" />
  <circle cx="739.2" cy="497.6" r="2.2" />
  <circle cx="761.6" cy="459.6" r="2.2" />
  <circle cx="784.0" cy="389.2" r="2.2" />
  <circle cx="806.4" cy="376.2" r="2.2" />
  <circle cx="851.2" cy="370.0" r="2.2" />
  <circle cx="873.6" cy="381.1" r="2.2" />
  <circle cx="896.0" cy="395.2" r="2.2" />
</g>
<g class="pl" fill="#FFF" stroke="#000" stroke-width="0.900">
  <circle cx="156.8" cy="488.3" r="5.4" />
  <circle cx="380.8" cy="523.3" r="5.4" />
  <circle cx="604.8" cy="534.3" r="5.4" />
  <circle cx="828.8" cy="380.7" r="5.4" />
</g>
<text transform="translate(945.6,394.1)" dy="6.5" font-size="21.60" fill="#000" stroke="none">Total (net)</text>
<text transform="translate(945.6,130.6)" dy="6.5" font-size="21.60" fill="#87AC55" stroke="none">Organic Soils (net)</text>
<text transform="translate(945.6,236.7)" dy="6.5" font-size="21.60" fill="#3988BD" stroke="none">Living biomass (net)</text>
<text transform="translate(945.6,352.6)" dy="6.5" font-size="21.60" fill="#D97B53" stroke="none">Dead wood (net)</text>
<text transform="translate(945.6,373.3)" dy="6.5" font-size="21.60" fill="#D5AF54" stroke="none">Litter (net)</text>
<text transform="translate(945.6,414.8)" dy="6.5" font-size="21.60" fill="#834B8E" stroke="none">Mineral Soils (net)</text>
<polyline class="pl" points="910.8,395.2 912.4,395.2 913.8,395.2 915.2,395.1 916.4,395.1 917.6,395.1 918.8,395.1 919.8,395.0 920.8,395.0 921.7,394.9 922.7,394.9 923.5,394.8 924.4,394.8 925.2,394.7 926.0,394.7 926.8,394.6 927.6,394.5 928.4,394.5 929.3,394.4 930.1,394.4 931.1,394.3 932.0,394.3 933.0,394.2 934.0,394.2 935.2,394.1 936.4,394.1 937.6,394.1 939.0,394.1 940.4,394.1 942.0,394.1" stroke="#000" stroke-width="0.90" stroke-opacity="1.00" fill="none" />
<polyline class="pl" points="910.8,352.9 912.4,352.9 913.8,352.9 915.2,352.9 916.4,352.9 917.6,352.9 918.8,352.9 919.8,352.9 920.8,352.9 921.7,352.9 922.7,352.9 923.5,352.8 924.4,352.8 925.2,352.8 926.0,352.8 926.8,352.8 927.6,352.8 928.4,352.7 929.3,352.7 930.1,352.7 931.1,352.7 932.0,352.7 933.0,352.7 934.0,352.7 935.2,352.6 936.4,352.6 937.6,352.6 939.0,352.6 940.4,352.6 942.0,352.6" stroke="#D97B53" stroke-width="0.90" stroke-opacity="1.00" fill="none" />
<polyline class="pl" points="910.8,382.3 912.4,382.2 913.8,382.1 915.2,382.0 916.4,381.8 917.6,381.6 918.8,381.3 919.8,380.9 920.8,380.6 921.7,380.2 922.7,379.8 923.5,379.4 924.4,378.9 925.2,378.5 926.0,378.0 926.8,377.6 927.6,377.1 928.4,376.7 929.3,376.2 930.1,375.8 931.1,375.4 932.0,375.0 933.0,374.6 934.0,374.3 935.2,374.0 936.4,373.8 937.6,373.6 939.0,373.5 940.4,373.4 942.0,373.3" stroke="#D5AF54" stroke-width="0.90" stroke-opacity="1.00" fill="none" />
<polyline class="pl" points="910.8,404.4 912.4,404.5 913.8,404.6 915.2,404.7 916.4,405.0 917.6,405.2 918.8,405.6 919.8,405.9 920.8,406.3 921.7,406.8 922.7,407.3 923.5,407.8 924.4,408.3 925.2,408.8 926.0,409.3 926.8,409.9 927.6,410.4 928.4,410.9 929.3,411.4 930.1,411.9 931.1,412.4 932.0,412.9 933.0,413.3 934.0,413.6 935.2,414.0 936.4,414.2 937.6,414.5 939.0,414.6 940.4,414.7 942.0,414.8" stroke="#834B8E" stroke-width="0.90" stroke-opacity="1.00" fill="none" />
<text transform="translate(160.0,666.1)" font-size="19.80" font-family="Helvetica" fill="#BFBFBF" stroke="none" xml:space="preserve">CICERO   &#9679;   Data: UNFCCC (2025)</text>
<g>
  <rect x="123.0" y="651.4" width="34" height="17" fill="#FFF" stroke="none" opacity="0.01"/>
  <g transform="translate(124.0,652.4) scale(0.24)">
  <g><circle fill="#FFF" cx="37.79" cy="28.5" r="28.84"/>
     <circle fill="none" cx="37.79" cy="28.5" r="28.84" stroke="#BFBFBF" stroke-width="5.5"/>
     <path fill="#BFBFBF" d="M37.16,23.19 l-4.29,2.23c-0.458-0.951-1.02-1.62-1.69-2c-0.667-0.38-1.29-0.571-1.86-0.571c-2.86,0-4.29,1.89-4.29,5.66 c0,1.71,0.36,3.08,1.09,4.11c0.724,1.03,1.79,1.54,3.2,1.54c1.87,0,3.18-0.915,3.94-2.74l3.94,2 c-0.838,1.56-2,2.79-3.49,3.69c-1.48,0.896-3.12,1.34-4.91,1.34c-2.86,0-5.16-0.875-6.92-2.63 c-1.75-1.75-2.63-4.19-2.63-7.31c0-3.05,0.886-5.47,2.66-7.26c1.77-1.79,4.01-2.69,6.72-2.69 C32.6,18.56,35.44,20.1,37.16,23.19z
              M55.61,23.19l-4.23,2.23c-0.457-0.951-1.02-1.62-1.69-2 c-0.668-0.38-1.31-0.571-1.91-0.571c-2.86,0-4.29,1.89-4.29,5.66c0,1.71,0.363,3.08,1.09,4.11 c0.723,1.03,1.79,1.54,3.2,1.54c1.87,0,3.18-0.915,3.94-2.74l4,2c-0.875,1.56-2.06,2.79-3.54,3.69 c-1.49,0.9-3.11,1.34-4.86,1.34c-2.9,0-5.21-0.875-6.94-2.63c-1.74-1.75-2.6-4.19-2.6-7.31 c0-3.05,0.885-5.47,2.66-7.26c1.77-1.79,4.01-2.69,6.71-2.69C51.12,18.56,53.944,20.1,55.61,23.19z"/>
  </g></g>
  <g transform="translate(140.2,652.4) scale(0.24)">
  <g><circle fill="#FFF" cx="37.79" cy="28.5" r="28.84"/>
     <circle fill="none" cx="37.79" cy="28.5" r="28.84" stroke="#BFBFBF" stroke-width="5.5"/>
     <path fill="#BFBFBF" d="M46.129,20.557v13.085h-3.656v15.542h-9.944V33.643h-3.656V20.557 c0-0.572,0.2-1.057,0.599-1.457c0.401-0.399,0.887-0.6,1.457-0.6h13.144c0.533,0,1.01,0.2,1.428,0.6 C45.918,19.5,46.129,19.986,46.129,20.557z
              M33.042,12.329c0-3.008,1.485-4.514,4.458-4.514s4.457,1.504,4.457,4.514 c0,2.971-1.486,4.457-4.457,4.457S33.042,15.3,33.042,12.329z"/>
  </g></g>
</g>
</g>
</svg>
