<svg version="1.1" xmlns="http://www.w3.org/2000/svg" xmlns:xlink="http://www.w3.org/1999/xlink" width="100%" height="100%" viewBox="0 0 1200.000 674.916">
<title>Monthly changes in power generation: Portugal, 2026</title>
<style type="text/css">
  #main {font-family:Helvetica,Arial,sans-serif; font-size:27.00px;
         fill-opacity:1; fill:#000000; stroke:none; stroke-linejoin:round; stroke-linecap:round; stroke-width:1.00;}
  .marker {stroke-opacity:0;fill-opacity:0;}
  .marker:hover {stroke-opacity:0.5; fill-opacity:1;}
  .ticklabel {font-size:27.00px;fill:#808080;stroke:none;font-family:Helvetica}
  .ytl {text-anchor:end;}
  .dp1 {pointer-events:none;font-size:70%;text-anchor:middle;fill:#000000;}
  .dp2 {pointer-events:none;font-size:70%;text-anchor:middle;fill:#FFFFFF;}
  .numtip {pointer-events:none;}
  .cc {opacity:0.25;}
.dl_fe {background-color:#FDFFDF;display:flex;margin:auto;align-items:center}
.dl_fe_p {font-size:20px;text-align:center;margin:3px}
.dl_el {display:none;pointer-events:none;}
.cc:hover + .dl_el {display:block;}
text:hover + .dl_el {display:block;}
</style>
<defs>
  <clipPath id="axis_clip"><rect x="145.8" y="54.2" width="761.2" height="532.8" /></clipPath>
  <path id="line_x" d="M 145.600,0 h 761.600" stroke="#262626" stroke-opacity="0.15" stroke-width="1.00"/>
  <path id="tick_y" d="M 145.600,0 h -6.000" stroke="#808080" stroke-width="0.90"/>
  <path id="tick_x" d="M 0,587.177 v 6.000" stroke="#808080" stroke-width="0.90"/>
</defs>
<g id="main">
<use xlink:href="#line_x" transform="translate(0,587.2)"/>
<use xlink:href="#line_x" transform="translate(0,498.3)"/>
<use xlink:href="#line_x" transform="translate(0,409.4)"/>
<use xlink:href="#line_x" transform="translate(0,320.6)"/>
<use xlink:href="#line_x" transform="translate(0,231.7)"/>
<use xlink:href="#line_x" transform="translate(0,142.9)"/>
<use xlink:href="#line_x" transform="translate(0,54.0)"/>
<use xlink:href="#tick_y" transform="translate(0,587.2)"/>
<use xlink:href="#tick_y" transform="translate(0,498.3)"/>
<use xlink:href="#tick_y" transform="translate(0,409.4)"/>
<use xlink:href="#tick_y" transform="translate(0,320.6)"/>
<use xlink:href="#tick_y" transform="translate(0,231.7)"/>
<use xlink:href="#tick_y" transform="translate(0,142.9)"/>
<use xlink:href="#tick_y" transform="translate(0,54.0)"/>
<use xlink:href="#tick_x" transform="translate(177.3,0)"/>
<use xlink:href="#tick_x" transform="translate(240.8,0)"/>
<use xlink:href="#tick_x" transform="translate(304.3,0)"/>
<use xlink:href="#tick_x" transform="translate(367.7,0)"/>
<polyline points="145.6,53.993 145.6,587.177 907.2,587.177" stroke="#808080" stroke-width="0.90" fill="none"/>
<text class="ticklabel xtl" transform="translate(177.3,629.0)" text-anchor="middle">Jan</text>
<text class="ticklabel xtl" transform="translate(240.8,629.0)" text-anchor="middle">Feb</text>
<text class="ticklabel xtl" transform="translate(304.3,629.0)" text-anchor="middle">Mar</text>
<text class="ticklabel xtl" transform="translate(367.7,629.0)" text-anchor="middle">Apr</text>
<text class="ticklabel ytl" transform="translate(128.8,595.3)">-1.5</text>
<text class="ticklabel ytl" transform="translate(128.8,506.4)">-1.0</text>
<text class="ticklabel ytl" transform="translate(128.8,417.5)">-0.5</text>
<text class="ticklabel ytl" transform="translate(128.8,328.7)">0</text>
<text class="ticklabel ytl" transform="translate(128.8,239.8)">0.5</text>
<text class="ticklabel ytl" transform="translate(128.8,151.0)">1.0</text>
<text class="ticklabel ytl" transform="translate(128.8,62.1)">1.5 TWh</text>
<g stroke="#000" stroke-width="0.90" fill="#808080"  clip-path="url(#axis_clip)">
  <polygon class="pl" points="278.9,277.9 278.9,279.7 329.7,279.7 329.7,277.9 278.9,277.9"/>
  <polygon class="pl" points="342.3,265.5 342.3,267.3 393.1,267.3 393.1,265.5 342.3,265.5"/>
</g>
<g stroke="#000" stroke-width="0.90" fill="#4DBEEE"  clip-path="url(#axis_clip)">
</g>
<g stroke="#000" stroke-width="0.90" fill="#D95319"  clip-path="url(#axis_clip)">
  <polygon class="pl" points="151.9,365.0 151.9,363.2 202.7,363.2 202.7,365.0 151.9,365.0"/>
  <polygon class="pl" points="215.4,432.6 215.4,429.0 266.2,429.0 266.2,432.6 215.4,432.6"/>
  <polygon class="pl" points="278.9,427.2 278.9,425.4 329.7,425.4 329.7,427.2 278.9,427.2"/>
  <polygon class="pl" points="342.3,267.3 342.3,269.0 393.1,269.0 393.1,267.3 342.3,267.3"/>
</g>
<g stroke="#000" stroke-width="0.90" fill="#EDB120"  clip-path="url(#axis_clip)">
  <polygon class="pl" points="151.9,363.2 151.9,349.0 202.7,349.0 202.7,363.2 151.9,363.2"/>
  <polygon class="pl" points="215.4,429.0 215.4,411.2 266.2,411.2 266.2,429.0 215.4,429.0"/>
  <polygon class="pl" points="278.9,425.4 278.9,413.0 329.7,413.0 329.7,425.4 278.9,425.4"/>
  <polygon class="pl" points="342.3,269.0 342.3,283.3 393.1,283.3 393.1,269.0 342.3,269.0"/>
</g>
<g stroke="#000" stroke-width="0.90" fill="#77AC30"  clip-path="url(#axis_clip)">
  <polygon class="pl" points="151.9,349.0 151.9,320.6 202.7,320.6 202.7,349.0 151.9,349.0"/>
  <polygon class="pl" points="215.4,130.4 215.4,251.3 266.2,251.3 266.2,130.4 215.4,130.4"/>
  <polygon class="pl" points="278.9,413.0 278.9,368.6 329.7,368.6 329.7,413.0 278.9,413.0"/>
  <polygon class="pl" points="342.3,541.0 342.3,471.7 393.1,471.7 393.1,541.0 342.3,541.0"/>
</g>
<g stroke="#000" stroke-width="0.90" fill="#0072BD"  clip-path="url(#axis_clip)">
  <polygon class="pl" points="151.9,222.8 151.9,277.9 202.7,277.9 202.7,222.8 151.9,222.8"/>
  <polygon class="pl" points="215.4,411.2 215.4,320.6 266.2,320.6 266.2,411.2 215.4,411.2"/>
  <polygon class="pl" points="278.9,368.6 278.9,320.6 329.7,320.6 329.7,368.6 278.9,368.6"/>
  <polygon class="pl" points="342.3,471.7 342.3,320.6 393.1,320.6 393.1,471.7 342.3,471.7"/>
</g>
<g stroke="#000" stroke-width="0.90" fill="#7E2F8E"  clip-path="url(#axis_clip)">
  <polygon class="pl" points="151.9,277.9 151.9,320.6 202.7,320.6 202.7,277.9 151.9,277.9"/>
  <polygon class="pl" points="215.4,251.3 215.4,320.6 266.2,320.6 266.2,251.3 215.4,251.3"/>
  <polygon class="pl" points="278.9,279.7 278.9,320.6 329.7,320.6 329.7,279.7 278.9,279.7"/>
  <polygon class="pl" points="342.3,283.3 342.3,320.6 393.1,320.6 393.1,283.3 342.3,283.3"/>
</g>
<g stroke="#000" stroke-width="0.90" fill="#7B553E"  clip-path="url(#axis_clip)">
</g>
<text transform="translate(945.6,357.1)" dy="8.1" font-size="27.00" fill="#7B553E" stroke="none">Coal</text>
<text transform="translate(945.6,305.3)" dy="8.1" font-size="27.00" fill="#7E2F8E" stroke="none">Natural gas</text>
<text transform="translate(945.6,396.1)" dy="8.1" font-size="27.00" fill="#0072BD" stroke="none">Hydro</text>
<text transform="translate(945.6,506.3)" dy="8.1" font-size="27.00" fill="#77AC30" stroke="none">Wind</text>
<text transform="translate(945.6,279.3)" dy="8.1" font-size="27.00" fill="#EDB120" stroke="none">Solar</text>
<text transform="translate(945.6,253.4)" dy="8.1" font-size="27.00" fill="#D95319" stroke="none">Other renewables</text>
<text transform="translate(945.6,331.2)" dy="8.1" font-size="27.00" fill="#4DBEEE" stroke="none">Nuclear</text>
<text transform="translate(945.6,227.4)" dy="8.1" font-size="27.00" fill="#808080" stroke="none">Other fossil</text>
<polyline class="pl" points="910.8,320.6 912.4,320.7 913.8,321.1 915.2,321.7 916.4,322.5 917.6,323.5 918.8,324.6 919.8,325.9 920.8,327.4 921.7,329.0 922.7,330.6 923.5,332.4 924.4,334.2 925.2,336.0 926.0,337.9 926.8,339.8 927.6,341.7 928.4,343.5 929.3,345.4 930.1,347.1 931.1,348.8 932.0,350.3 933.0,351.8 934.0,353.1 935.2,354.3 936.4,355.2 937.6,356.1 939.0,356.6 940.4,357.0 942.0,357.1" stroke="#7B553E" stroke-width="0.90" stroke-opacity="1.00" fill="none" />
<polyline class="pl" points="910.8,301.9 912.4,301.9 913.8,302.0 915.2,302.0 916.4,302.1 917.6,302.2 918.8,302.3 919.8,302.4 920.8,302.5 921.7,302.7 922.7,302.8 923.5,303.0 924.4,303.2 925.2,303.3 926.0,303.5 926.8,303.7 927.6,303.9 928.4,304.0 929.3,304.2 930.1,304.3 931.1,304.5 932.0,304.6 933.0,304.8 934.0,304.9 935.2,305.0 936.4,305.1 937.6,305.2 939.0,305.2 940.4,305.3 942.0,305.3" stroke="#7E2F8E" stroke-width="0.90" stroke-opacity="1.00" fill="none" />
<polyline class="pl" points="910.8,276.2 912.4,276.2 913.8,276.2 915.2,276.2 916.4,276.3 917.6,276.4 918.8,276.5 919.8,276.6 920.8,276.7 921.7,276.9 922.7,277.0 923.5,277.2 924.4,277.3 925.2,277.5 926.0,277.7 926.8,277.8 927.6,278.0 928.4,278.1 929.3,278.3 930.1,278.5 931.1,278.6 932.0,278.7 933.0,278.9 934.0,279.0 935.2,279.1 936.4,279.2 937.6,279.2 939.0,279.3 940.4,279.3 942.0,279.3" stroke="#EDB120" stroke-width="0.90" stroke-opacity="1.00" fill="none" />
<polyline class="pl" points="910.8,268.2 912.4,268.1 913.8,268.0 915.2,267.7 916.4,267.4 917.6,267.0 918.8,266.5 919.8,266.0 920.8,265.4 921.7,264.8 922.7,264.1 923.5,263.4 924.4,262.7 925.2,261.9 926.0,261.2 926.8,260.4 927.6,259.6 928.4,258.9 929.3,258.2 930.1,257.4 931.1,256.8 932.0,256.1 933.0,255.6 934.0,255.0 935.2,254.6 936.4,254.2 937.6,253.8 939.0,253.6 940.4,253.4 942.0,253.4" stroke="#D95319" stroke-width="0.90" stroke-opacity="1.00" fill="none" />
<polyline class="pl" points="910.8,320.6 912.4,320.6 913.8,320.7 915.2,320.9 916.4,321.1 917.6,321.4 918.8,321.8 919.8,322.1 920.8,322.6 921.7,323.0 922.7,323.5 923.5,324.0 924.4,324.5 925.2,325.1 926.0,325.6 926.8,326.2 927.6,326.7 928.4,327.3 929.3,327.8 930.1,328.3 931.1,328.8 932.0,329.2 933.0,329.6 934.0,330.0 935.2,330.4 936.4,330.7 937.6,330.9 939.0,331.1 940.4,331.2 942.0,331.2" stroke="#4DBEEE" stroke-width="0.90" stroke-opacity="1.00" fill="none" />
<polyline class="pl" points="910.8,266.4 912.4,266.2 913.8,265.8 915.2,265.2 916.4,264.4 917.6,263.3 918.8,262.1 919.8,260.7 920.8,259.1 921.7,257.5 922.7,255.7 923.5,253.8 924.4,251.9 925.2,249.9 926.0,247.9 926.8,245.9 927.6,243.9 928.4,241.9 929.3,240.0 930.1,238.1 931.1,236.4 932.0,234.7 933.0,233.2 934.0,231.8 935.2,230.5 936.4,229.5 937.6,228.6 939.0,228.0 940.4,227.6 942.0,227.4" stroke="#808080" stroke-width="0.90" stroke-opacity="1.00" fill="none" />
<text transform="translate(145.6,47.2)" dy="0.0" font-size="27.00" fill="#808080" stroke="none">Monthly changes in power generation: Portugal, 2026</text>
<text transform="translate(157.6,666.1)" font-size="19.80" font-family="Helvetica" fill="#BFBFBF" stroke="none" xml:space="preserve">@robbieandrew.bsky.social   &#9679;   Data: Ember</text>
<text class="twitlink" transform="translate(157.6,666.1)" opacity="0" font-size="19.80" fill="#BFBFBF" stroke="none" xml:space="preserve"></text>
  <g class="dl_el" transform="translate(154.6,578.4)">
    <g class="dl_el_balloon">
      <foreignObject x="0" y="0" width="120" height="500">
      <div xmlns="http://www.w3.org/1999/xhtml" class="dl_fe" style="height:60px">
      <p class="dl_fe_p">Find me on BlueSky</p>
      </div>
	    </foreignObject>
      <path stroke="#000" fill="#FDFFDF" d="M0,60H60l5,5l5,-5H120"/>
    </g>
  </g>
<g>
  <rect x="123.0" y="651.4" width="34" height="17" fill="#FFF" stroke="none" opacity="0.01"/>
  <g transform="translate(124.0,652.4) scale(0.24)">
  <g><circle fill="#FFF" cx="37.79" cy="28.5" r="28.84"/>
     <circle fill="none" cx="37.79" cy="28.5" r="28.84" stroke="#BFBFBF" stroke-width="5.5"/>
     <path fill="#BFBFBF" d="M37.16,23.19 l-4.29,2.23c-0.458-0.951-1.02-1.62-1.69-2c-0.667-0.38-1.29-0.571-1.86-0.571c-2.86,0-4.29,1.89-4.29,5.66 c0,1.71,0.36,3.08,1.09,4.11c0.724,1.03,1.79,1.54,3.2,1.54c1.87,0,3.18-0.915,3.94-2.74l3.94,2 c-0.838,1.56-2,2.79-3.49,3.69c-1.48,0.896-3.12,1.34-4.91,1.34c-2.86,0-5.16-0.875-6.92-2.63 c-1.75-1.75-2.63-4.19-2.63-7.31c0-3.05,0.886-5.47,2.66-7.26c1.77-1.79,4.01-2.69,6.72-2.69 C32.6,18.56,35.44,20.1,37.16,23.19z
              M55.61,23.19l-4.23,2.23c-0.457-0.951-1.02-1.62-1.69-2 c-0.668-0.38-1.31-0.571-1.91-0.571c-2.86,0-4.29,1.89-4.29,5.66c0,1.71,0.363,3.08,1.09,4.11 c0.723,1.03,1.79,1.54,3.2,1.54c1.87,0,3.18-0.915,3.94-2.74l4,2c-0.875,1.56-2.06,2.79-3.54,3.69 c-1.49,0.9-3.11,1.34-4.86,1.34c-2.9,0-5.21-0.875-6.94-2.63c-1.74-1.75-2.6-4.19-2.6-7.31 c0-3.05,0.885-5.47,2.66-7.26c1.77-1.79,4.01-2.69,6.71-2.69C51.12,18.56,53.944,20.1,55.61,23.19z"/>
  </g></g>
  <g transform="translate(140.2,652.4) scale(0.24)">
  <g><circle fill="#FFF" cx="37.79" cy="28.5" r="28.84"/>
     <circle fill="none" cx="37.79" cy="28.5" r="28.84" stroke="#BFBFBF" stroke-width="5.5"/>
     <path fill="#BFBFBF" d="M46.129,20.557v13.085h-3.656v15.542h-9.944V33.643h-3.656V20.557 c0-0.572,0.2-1.057,0.599-1.457c0.401-0.399,0.887-0.6,1.457-0.6h13.144c0.533,0,1.01,0.2,1.428,0.6 C45.918,19.5,46.129,19.986,46.129,20.557z
              M33.042,12.329c0-3.008,1.485-4.514,4.458-4.514s4.457,1.504,4.457,4.514 c0,2.971-1.486,4.457-4.457,4.457S33.042,15.3,33.042,12.329z"/>
  </g></g>
</g>
</g>
</svg>
