<svg version="1.1" xmlns="http://www.w3.org/2000/svg" xmlns:xlink="http://www.w3.org/1999/xlink" width="100%" height="100%" viewBox="0 0 1200.000 674.916">
<title>Annual CO2 Emissions: Cyprus</title>
<style type="text/css">
  #main {font-family:Helvetica,Arial,sans-serif; font-size:27.00px;
         fill-opacity:1; fill:#000000; stroke:none; stroke-linejoin:round; stroke-linecap:round; stroke-width:1.00;}
  .marker {stroke-opacity:0;fill-opacity:0;}
  .marker:hover {stroke-opacity:0.5; fill-opacity:1;}
  .ticklabel {font-size:27.00px;fill:#808080;stroke:none;font-family:Helvetica}
  .ytl {text-anchor:end;}
  .dp1 {pointer-events:none;font-size:70%;text-anchor:middle;fill:#000000;}
  .dp2 {pointer-events:none;font-size:70%;text-anchor:middle;fill:#FFFFFF;}
  .numtip {pointer-events:none;}
  .cc {opacity:0.25;}
.dl_fe {background-color:#FDFFDF;display:flex;margin:auto;align-items:center}
.dl_fe_p {font-size:20px;text-align:center;margin:3px}
.dl_el {display:none;pointer-events:none;}
.cc:hover + .dl_el {display:block;}
text:hover + .dl_el {display:block;}
</style>
<defs>
  <clipPath id="axis_clip"><rect x="145.8" y="54.2" width="761.2" height="532.8" /></clipPath>
  <path id="line_y" d="M 0,53.993 v 533.183" stroke="#262626" stroke-opacity="0.15" stroke-width="1.00"/>
  <path id="line_x" d="M 145.600,0 h 761.600" stroke="#262626" stroke-opacity="0.15" stroke-width="1.00"/>
  <path id="tick_y" d="M 145.600,0 h -6.000" stroke="#808080" stroke-width="0.90"/>
  <path id="tick_x" d="M 0,587.177 v 6.000" stroke="#808080" stroke-width="0.90"/>
</defs>
<g id="main">
<use xlink:href="#line_y" transform="translate(156.5,0)"/>
<use xlink:href="#line_y" transform="translate(265.3,0)"/>
<use xlink:href="#line_y" transform="translate(374.1,0)"/>
<use xlink:href="#line_y" transform="translate(482.9,0)"/>
<use xlink:href="#line_y" transform="translate(591.7,0)"/>
<use xlink:href="#line_y" transform="translate(700.5,0)"/>
<use xlink:href="#line_y" transform="translate(809.3,0)"/>
<use xlink:href="#line_y" transform="translate(896.3,0)"/>
<use xlink:href="#line_x" transform="translate(0,533.9)"/>
<use xlink:href="#line_x" transform="translate(0,427.2)"/>
<use xlink:href="#line_x" transform="translate(0,320.6)"/>
<use xlink:href="#line_x" transform="translate(0,213.9)"/>
<use xlink:href="#line_x" transform="translate(0,107.3)"/>
<use xlink:href="#tick_y" transform="translate(0,533.9)"/>
<use xlink:href="#tick_y" transform="translate(0,427.2)"/>
<use xlink:href="#tick_y" transform="translate(0,320.6)"/>
<use xlink:href="#tick_y" transform="translate(0,213.9)"/>
<use xlink:href="#tick_y" transform="translate(0,107.3)"/>
<use xlink:href="#tick_x" transform="translate(156.5,0)"/>
<use xlink:href="#tick_x" transform="translate(265.3,0)"/>
<use xlink:href="#tick_x" transform="translate(374.1,0)"/>
<use xlink:href="#tick_x" transform="translate(482.9,0)"/>
<use xlink:href="#tick_x" transform="translate(591.7,0)"/>
<use xlink:href="#tick_x" transform="translate(700.5,0)"/>
<use xlink:href="#tick_x" transform="translate(809.3,0)"/>
<use xlink:href="#tick_x" transform="translate(896.3,0)"/>
<polyline points="145.6,53.993 145.6,587.177 907.2,587.177" stroke="#808080" stroke-width="0.90" fill="none"/>
<text class="ticklabel xtl" transform="translate(156.5,629.0)" text-anchor="middle">1990</text>
<text class="ticklabel xtl" transform="translate(265.3,629.0)" text-anchor="middle">1995</text>
<text class="ticklabel xtl" transform="translate(374.1,629.0)" text-anchor="middle">2000</text>
<text class="ticklabel xtl" transform="translate(482.9,629.0)" text-anchor="middle">2005</text>
<text class="ticklabel xtl" transform="translate(591.7,629.0)" text-anchor="middle">2010</text>
<text class="ticklabel xtl" transform="translate(700.5,629.0)" text-anchor="middle">2015</text>
<text class="ticklabel xtl" transform="translate(809.3,629.0)" text-anchor="middle">2020</text>
<text class="ticklabel xtl" transform="translate(896.3,629.0)" text-anchor="middle">2024</text>
<text class="ticklabel ytl" transform="translate(128.8,542.0)">0</text>
<text class="ticklabel ytl" transform="translate(128.8,435.3)">2</text>
<text class="ticklabel ytl" transform="translate(128.8,328.7)">4</text>
<text class="ticklabel ytl" transform="translate(128.8,222.0)">6</text>
<text class="ticklabel ytl" transform="translate(128.8,115.4)">8 Mt</text>
<g stroke="#000" stroke-width="0.90" fill="#DBA746"  clip-path="url(#axis_clip)">
</g>
<g stroke="#000" stroke-width="0.90" fill="#845F48"  clip-path="url(#axis_clip)">
  <polygon class="pl" points="147.8,286.2 147.8,286.3 165.2,286.3 165.2,286.2 147.8,286.2"/>
  <polygon class="pl" points="169.5,260.1 169.5,260.2 186.9,260.2 186.9,260.1 169.5,260.1"/>
  <polygon class="pl" points="191.3,240.2 191.3,240.3 208.7,240.3 208.7,240.2 191.3,240.2"/>
  <polygon class="pl" points="213.1,227.2 213.1,227.3 230.5,227.3 230.5,227.2 213.1,227.2"/>
  <polygon class="pl" points="234.8,214.2 234.8,214.3 252.2,214.3 252.2,214.2 234.8,214.2"/>
  <polygon class="pl" points="256.6,221.1 256.6,221.2 274.0,221.2 274.0,221.1 256.6,221.1"/>
  <polygon class="pl" points="278.3,202.4 278.3,202.5 295.7,202.5 295.7,202.4 278.3,202.4"/>
  <polygon class="pl" points="300.1,197.8 300.1,197.9 317.5,197.9 317.5,197.8 300.1,197.8"/>
  <polygon class="pl" points="321.9,182.2 321.9,182.3 339.3,182.3 339.3,182.2 321.9,182.2"/>
  <polygon class="pl" points="343.6,168.0 343.6,168.0 361.0,168.0 361.0,168.0 343.6,168.0"/>
  <polygon class="pl" points="365.4,154.9 365.4,155.0 382.8,155.0 382.8,154.9 365.4,154.9"/>
  <polygon class="pl" points="387.1,161.6 387.1,161.7 404.5,161.7 404.5,161.6 387.1,161.6"/>
  <polygon class="pl" points="408.9,151.5 408.9,151.5 426.3,151.5 426.3,151.5 408.9,151.5"/>
  <polygon class="pl" points="430.7,130.7 430.7,130.8 448.1,130.8 448.1,130.7 430.7,130.7"/>
  <polygon class="pl" points="452.4,118.6 452.4,118.7 469.8,118.7 469.8,118.6 452.4,118.6"/>
  <polygon class="pl" points="474.2,109.8 474.2,109.8 491.6,109.8 491.6,109.8 474.2,109.8"/>
  <polygon class="pl" points="495.9,97.4 495.9,97.4 513.3,97.4 513.3,97.4 495.9,97.4"/>
  <polygon class="pl" points="517.7,81.8 517.7,81.9 535.1,81.9 535.1,81.8 517.7,81.8"/>
  <polygon class="pl" points="539.5,70.3 539.5,70.3 556.9,70.3 556.9,70.3 539.5,70.3"/>
  <polygon class="pl" points="561.2,83.8 561.2,83.8 578.6,83.8 578.6,83.8 561.2,83.8"/>
  <polygon class="pl" points="583.0,103.3 583.0,103.3 600.4,103.3 600.4,103.3 583.0,103.3"/>
  <polygon class="pl" points="604.7,118.2 604.7,118.2 622.1,118.2 622.1,118.2 604.7,118.2"/>
  <polygon class="pl" points="626.5,146.5 626.5,146.5 643.9,146.5 643.9,146.5 626.5,146.5"/>
  <polygon class="pl" points="648.3,183.0 648.3,183.0 665.7,183.0 665.7,183.0 648.3,183.0"/>
  <polygon class="pl" points="670.0,164.2 670.0,164.2 687.4,164.2 687.4,164.2 670.0,164.2"/>
  <polygon class="pl" points="691.8,163.0 691.8,163.0 709.2,163.0 709.2,163.0 691.8,163.0"/>
  <polygon class="pl" points="713.5,141.8 713.5,141.8 730.9,141.8 730.9,141.8 713.5,141.8"/>
  <polygon class="pl" points="735.3,135.4 735.3,135.4 752.7,135.4 752.7,135.4 735.3,135.4"/>
  <polygon class="pl" points="757.1,143.2 757.1,143.2 774.5,143.2 774.5,143.2 757.1,143.2"/>
  <polygon class="pl" points="778.8,143.3 778.8,143.3 796.2,143.3 796.2,143.3 778.8,143.3"/>
  <polygon class="pl" points="800.6,165.8 800.6,165.8 818.0,165.8 818.0,165.8 800.6,165.8"/>
  <polygon class="pl" points="822.3,157.5 822.3,157.6 839.7,157.6 839.7,157.5 822.3,157.5"/>
  <polygon class="pl" points="844.1,155.8 844.1,155.8 861.5,155.8 861.5,155.8 844.1,155.8"/>
  <polygon class="pl" points="865.9,155.1 865.9,155.1 883.3,155.1 883.3,155.1 865.9,155.1"/>
  <polygon class="pl" points="887.6,153.5 887.6,153.5 905.0,153.5 905.0,153.5 887.6,153.5"/>
</g>
<g stroke="#000" stroke-width="0.90" fill="#4A89E8"  clip-path="url(#axis_clip)">
  <polygon class="pl" points="147.8,286.3 147.8,324.6 165.2,324.6 165.2,286.3 147.8,286.3"/>
  <polygon class="pl" points="169.5,260.2 169.5,296.4 186.9,296.4 186.9,260.2 169.5,260.2"/>
  <polygon class="pl" points="191.3,240.3 191.3,279.2 208.7,279.2 208.7,240.3 191.3,240.3"/>
  <polygon class="pl" points="213.1,227.3 213.1,269.9 230.5,269.9 230.5,227.3 213.1,227.3"/>
  <polygon class="pl" points="234.8,214.3 234.8,258.8 252.2,258.8 252.2,214.3 234.8,214.3"/>
  <polygon class="pl" points="256.6,221.2 256.6,263.9 274.0,263.9 274.0,221.2 256.6,221.2"/>
  <polygon class="pl" points="278.3,202.5 278.3,248.3 295.7,248.3 295.7,202.5 278.3,202.5"/>
  <polygon class="pl" points="300.1,197.9 300.1,241.9 317.5,241.9 317.5,197.9 300.1,197.9"/>
  <polygon class="pl" points="321.9,182.3 321.9,223.8 339.3,223.8 339.3,182.3 321.9,182.3"/>
  <polygon class="pl" points="343.6,168.0 343.6,209.9 361.0,209.9 361.0,168.0 343.6,168.0"/>
  <polygon class="pl" points="365.4,155.0 365.4,198.0 382.8,198.0 382.8,155.0 365.4,155.0"/>
  <polygon class="pl" points="387.1,161.7 387.1,203.9 404.5,203.9 404.5,161.7 387.1,161.7"/>
  <polygon class="pl" points="408.9,151.5 408.9,195.4 426.3,195.4 426.3,151.5 408.9,151.5"/>
  <polygon class="pl" points="430.7,130.8 430.7,174.8 448.1,174.8 448.1,130.8 430.7,130.8"/>
  <polygon class="pl" points="452.4,118.7 452.4,166.2 469.8,166.2 469.8,118.7 452.4,118.7"/>
  <polygon class="pl" points="474.2,109.8 474.2,156.0 491.6,156.0 491.6,109.8 474.2,109.8"/>
  <polygon class="pl" points="495.9,97.4 495.9,145.9 513.3,145.9 513.3,97.4 495.9,97.4"/>
  <polygon class="pl" points="517.7,81.9 517.7,130.1 535.1,130.1 535.1,81.9 517.7,81.9"/>
  <polygon class="pl" points="539.5,70.3 539.5,118.7 556.9,118.7 556.9,70.3 539.5,70.3"/>
  <polygon class="pl" points="561.2,83.8 561.2,122.9 578.6,122.9 578.6,83.8 561.2,83.8"/>
  <polygon class="pl" points="583.0,103.3 583.0,135.1 600.4,135.1 600.4,103.3 583.0,103.3"/>
  <polygon class="pl" points="604.7,118.2 604.7,149.0 622.1,149.0 622.1,118.2 604.7,118.2"/>
  <polygon class="pl" points="626.5,146.5 626.5,174.9 643.9,174.9 643.9,146.5 626.5,146.5"/>
  <polygon class="pl" points="648.3,183.0 648.3,224.0 665.7,224.0 665.7,183.0 648.3,183.0"/>
  <polygon class="pl" points="670.0,164.2 670.0,217.0 687.4,217.0 687.4,164.2 670.0,164.2"/>
  <polygon class="pl" points="691.8,163.0 691.8,210.6 709.2,210.6 709.2,163.0 691.8,163.0"/>
  <polygon class="pl" points="713.5,141.8 713.5,189.9 730.9,189.9 730.9,141.8 713.5,141.8"/>
  <polygon class="pl" points="735.3,135.4 735.3,185.7 752.7,185.7 752.7,135.4 735.3,135.4"/>
  <polygon class="pl" points="757.1,143.2 757.1,189.8 774.5,189.8 774.5,143.2 757.1,143.2"/>
  <polygon class="pl" points="778.8,143.3 778.8,187.0 796.2,187.0 796.2,143.3 778.8,143.3"/>
  <polygon class="pl" points="800.6,165.8 800.6,214.2 818.0,214.2 818.0,165.8 800.6,165.8"/>
  <polygon class="pl" points="822.3,157.6 822.3,205.7 839.7,205.7 839.7,157.6 822.3,157.6"/>
  <polygon class="pl" points="844.1,155.8 844.1,204.1 861.5,204.1 861.5,155.8 844.1,155.8"/>
  <polygon class="pl" points="865.9,155.1 865.9,206.6 883.3,206.6 883.3,155.1 865.9,155.1"/>
  <polygon class="pl" points="887.6,153.5 887.6,196.5 905.0,196.5 905.0,153.5 887.6,153.5"/>
</g>
<g stroke="#000" stroke-width="0.90" fill="#FF7F61"  clip-path="url(#axis_clip)">
  <polygon class="pl" points="147.8,324.6 147.8,533.9 165.2,533.9 165.2,324.6 147.8,324.6"/>
  <polygon class="pl" points="169.5,296.4 169.5,533.9 186.9,533.9 186.9,296.4 169.5,296.4"/>
  <polygon class="pl" points="191.3,279.2 191.3,533.9 208.7,533.9 208.7,279.2 191.3,279.2"/>
  <polygon class="pl" points="213.1,269.9 213.1,533.9 230.5,533.9 230.5,269.9 213.1,269.9"/>
  <polygon class="pl" points="234.8,258.8 234.8,533.9 252.2,533.9 252.2,258.8 234.8,258.8"/>
  <polygon class="pl" points="256.6,263.9 256.6,533.9 274.0,533.9 274.0,263.9 256.6,263.9"/>
  <polygon class="pl" points="278.3,248.3 278.3,533.9 295.7,533.9 295.7,248.3 278.3,248.3"/>
  <polygon class="pl" points="300.1,241.9 300.1,533.9 317.5,533.9 317.5,241.9 300.1,241.9"/>
  <polygon class="pl" points="321.9,223.8 321.9,533.9 339.3,533.9 339.3,223.8 321.9,223.8"/>
  <polygon class="pl" points="343.6,209.9 343.6,533.9 361.0,533.9 361.0,209.9 343.6,209.9"/>
  <polygon class="pl" points="365.4,198.0 365.4,533.9 382.8,533.9 382.8,198.0 365.4,198.0"/>
  <polygon class="pl" points="387.1,203.9 387.1,533.9 404.5,533.9 404.5,203.9 387.1,203.9"/>
  <polygon class="pl" points="408.9,195.4 408.9,533.9 426.3,533.9 426.3,195.4 408.9,195.4"/>
  <polygon class="pl" points="430.7,174.8 430.7,533.9 448.1,533.9 448.1,174.8 430.7,174.8"/>
  <polygon class="pl" points="452.4,166.2 452.4,533.9 469.8,533.9 469.8,166.2 452.4,166.2"/>
  <polygon class="pl" points="474.2,156.0 474.2,533.9 491.6,533.9 491.6,156.0 474.2,156.0"/>
  <polygon class="pl" points="495.9,145.9 495.9,533.9 513.3,533.9 513.3,145.9 495.9,145.9"/>
  <polygon class="pl" points="517.7,130.1 517.7,533.9 535.1,533.9 535.1,130.1 517.7,130.1"/>
  <polygon class="pl" points="539.5,118.7 539.5,533.9 556.9,533.9 556.9,118.7 539.5,118.7"/>
  <polygon class="pl" points="561.2,122.9 561.2,533.9 578.6,533.9 578.6,122.9 561.2,122.9"/>
  <polygon class="pl" points="583.0,135.1 583.0,533.9 600.4,533.9 600.4,135.1 583.0,135.1"/>
  <polygon class="pl" points="604.7,149.0 604.7,533.9 622.1,533.9 622.1,149.0 604.7,149.0"/>
  <polygon class="pl" points="626.5,174.9 626.5,533.9 643.9,533.9 643.9,174.9 626.5,174.9"/>
  <polygon class="pl" points="648.3,224.0 648.3,533.9 665.7,533.9 665.7,224.0 648.3,224.0"/>
  <polygon class="pl" points="670.0,217.0 670.0,533.9 687.4,533.9 687.4,217.0 670.0,217.0"/>
  <polygon class="pl" points="691.8,210.6 691.8,533.9 709.2,533.9 709.2,210.6 691.8,210.6"/>
  <polygon class="pl" points="713.5,189.9 713.5,533.9 730.9,533.9 730.9,189.9 713.5,189.9"/>
  <polygon class="pl" points="735.3,185.7 735.3,533.9 752.7,533.9 752.7,185.7 735.3,185.7"/>
  <polygon class="pl" points="757.1,189.8 757.1,533.9 774.5,533.9 774.5,189.8 757.1,189.8"/>
  <polygon class="pl" points="778.8,187.0 778.8,533.9 796.2,533.9 796.2,187.0 778.8,187.0"/>
  <polygon class="pl" points="800.6,214.2 800.6,533.9 818.0,533.9 818.0,214.2 800.6,214.2"/>
  <polygon class="pl" points="822.3,205.7 822.3,533.9 839.7,533.9 839.7,205.7 822.3,205.7"/>
  <polygon class="pl" points="844.1,204.1 844.1,533.9 861.5,533.9 861.5,204.1 844.1,204.1"/>
  <polygon class="pl" points="865.9,206.6 865.9,533.9 883.3,533.9 883.3,206.6 865.9,206.6"/>
  <polygon class="pl" points="887.6,196.5 887.6,533.9 905.0,533.9 905.0,196.5 887.6,196.5"/>
</g>
<g stroke="#000" stroke-width="0.90" fill="#7FBF7F"  clip-path="url(#axis_clip)">
  <polygon class="pl" points="147.8,538.0 147.8,533.9 165.2,533.9 165.2,538.0 147.8,538.0"/>
  <polygon class="pl" points="169.5,536.3 169.5,533.9 186.9,533.9 186.9,536.3 169.5,536.3"/>
  <polygon class="pl" points="191.3,536.8 191.3,533.9 208.7,533.9 208.7,536.8 191.3,536.8"/>
  <polygon class="pl" points="213.1,536.5 213.1,533.9 230.5,533.9 230.5,536.5 213.1,536.5"/>
  <polygon class="pl" points="234.8,536.4 234.8,533.9 252.2,533.9 252.2,536.4 234.8,536.4"/>
  <polygon class="pl" points="256.6,537.0 256.6,533.9 274.0,533.9 274.0,537.0 256.6,537.0"/>
  <polygon class="pl" points="278.3,536.6 278.3,533.9 295.7,533.9 295.7,536.6 278.3,536.6"/>
  <polygon class="pl" points="300.1,536.5 300.1,533.9 317.5,533.9 317.5,536.5 300.1,536.5"/>
  <polygon class="pl" points="321.9,535.2 321.9,533.9 339.3,533.9 339.3,535.2 321.9,535.2"/>
  <polygon class="pl" points="343.6,538.1 343.6,533.9 361.0,533.9 361.0,538.1 343.6,538.1"/>
  <polygon class="pl" points="365.4,535.8 365.4,533.9 382.8,533.9 382.8,535.8 365.4,535.8"/>
  <polygon class="pl" points="387.1,534.4 387.1,533.9 404.5,533.9 404.5,534.4 387.1,534.4"/>
  <polygon class="pl" points="408.9,536.7 408.9,533.9 426.3,533.9 426.3,536.7 408.9,536.7"/>
  <polygon class="pl" points="430.7,537.5 430.7,533.9 448.1,533.9 448.1,537.5 430.7,537.5"/>
  <polygon class="pl" points="452.4,537.7 452.4,533.9 469.8,533.9 469.8,537.7 452.4,537.7"/>
  <polygon class="pl" points="474.2,537.7 474.2,533.9 491.6,533.9 491.6,537.7 474.2,537.7"/>
  <polygon class="pl" points="495.9,537.9 495.9,533.9 513.3,533.9 513.3,537.9 495.9,537.9"/>
  <polygon class="pl" points="517.7,536.1 517.7,533.9 535.1,533.9 535.1,536.1 517.7,536.1"/>
  <polygon class="pl" points="539.5,539.3 539.5,533.9 556.9,533.9 556.9,539.3 539.5,539.3"/>
  <polygon class="pl" points="561.2,540.4 561.2,533.9 578.6,533.9 578.6,540.4 561.2,540.4"/>
  <polygon class="pl" points="583.0,540.5 583.0,533.9 600.4,533.9 600.4,540.5 583.0,540.5"/>
  <polygon class="pl" points="604.7,542.5 604.7,533.9 622.1,533.9 622.1,542.5 604.7,542.5"/>
  <polygon class="pl" points="626.5,542.1 626.5,533.9 643.9,533.9 643.9,542.1 626.5,542.1"/>
  <polygon class="pl" points="648.3,542.2 648.3,533.9 665.7,533.9 665.7,542.2 648.3,542.2"/>
  <polygon class="pl" points="670.0,542.3 670.0,533.9 687.4,533.9 687.4,542.3 670.0,542.3"/>
  <polygon class="pl" points="691.8,542.4 691.8,533.9 709.2,533.9 709.2,542.4 691.8,542.4"/>
  <polygon class="pl" points="713.5,537.3 713.5,533.9 730.9,533.9 730.9,537.3 713.5,537.3"/>
  <polygon class="pl" points="735.3,542.8 735.3,533.9 752.7,533.9 752.7,542.8 735.3,542.8"/>
  <polygon class="pl" points="757.1,542.5 757.1,533.9 774.5,533.9 774.5,542.5 757.1,542.5"/>
  <polygon class="pl" points="778.8,542.5 778.8,533.9 796.2,533.9 796.2,542.5 778.8,542.5"/>
  <polygon class="pl" points="800.6,542.5 800.6,533.9 818.0,533.9 818.0,542.5 800.6,542.5"/>
  <polygon class="pl" points="822.3,538.9 822.3,533.9 839.7,533.9 839.7,538.9 822.3,538.9"/>
  <polygon class="pl" points="844.1,542.5 844.1,533.9 861.5,533.9 861.5,542.5 844.1,542.5"/>
  <polygon class="pl" points="865.9,542.8 865.9,533.9 883.3,533.9 883.3,542.8 865.9,542.8"/>
  <polygon class="pl" points="887.6,543.0 887.6,533.9 905.0,533.9 905.0,543.0 887.6,543.0"/>
</g>
<polyline class="pl" points="156.5,290.3 178.2,262.6 200.0,243.1 221.8,229.8 243.5,216.8 265.3,224.2 287.0,205.2 308.8,200.4 330.6,183.6 352.3,172.2 374.1,156.8 395.8,162.2 417.6,154.3 439.4,134.4 461.1,122.4 482.9,113.6 504.6,101.5 526.4,84.1 548.2,75.7 569.9,90.3 591.7,109.9 613.4,126.8 635.2,154.8 657.0,191.3 678.7,172.7 700.5,171.5 722.2,145.2 744.0,144.4 765.8,151.9 787.5,152.0 809.3,174.5 831.0,162.5 852.8,164.5 874.6,164.1 896.3,162.6" stroke="#000" stroke-width="5.40" stroke-opacity="1.00" fill="none" clip-path="url(#axis_clip)"/>
<g class="pl" fill="#FFF" stroke="#000" stroke-width="0.900">
  <circle cx="178.2" cy="262.6" r="2.2" />
  <circle cx="200.0" cy="243.1" r="2.2" />
  <circle cx="221.8" cy="229.8" r="2.2" />
  <circle cx="243.5" cy="216.8" r="2.2" />
  <circle cx="265.3" cy="224.2" r="2.2" />
  <circle cx="287.0" cy="205.2" r="2.2" />
  <circle cx="308.8" cy="200.4" r="2.2" />
  <circle cx="330.6" cy="183.6" r="2.2" />
  <circle cx="352.3" cy="172.2" r="2.2" />
  <circle cx="395.8" cy="162.2" r="2.2" />
  <circle cx="417.6" cy="154.3" r="2.2" />
  <circle cx="439.4" cy="134.4" r="2.2" />
  <circle cx="461.1" cy="122.4" r="2.2" />
  <circle cx="482.9" cy="113.6" r="2.2" />
  <circle cx="504.6" cy="101.5" r="2.2" />
  <circle cx="526.4" cy="84.1" r="2.2" />
  <circle cx="548.2" cy="75.7" r="2.2" />
  <circle cx="569.9" cy="90.3" r="2.2" />
  <circle cx="613.4" cy="126.8" r="2.2" />
  <circle cx="635.2" cy="154.8" r="2.2" />
  <circle cx="657.0" cy="191.3" r="2.2" />
  <circle cx="678.7" cy="172.7" r="2.2" />
  <circle cx="700.5" cy="171.5" r="2.2" />
  <circle cx="722.2" cy="145.2" r="2.2" />
  <circle cx="744.0" cy="144.4" r="2.2" />
  <circle cx="765.8" cy="151.9" r="2.2" />
  <circle cx="787.5" cy="152.0" r="2.2" />
  <circle cx="831.0" cy="162.5" r="2.2" />
  <circle cx="852.8" cy="164.5" r="2.2" />
  <circle cx="874.6" cy="164.1" r="2.2" />
  <circle cx="896.3" cy="162.6" r="2.2" />
</g>
<g class="pl" fill="#FFF" stroke="#000" stroke-width="0.900">
  <circle cx="156.5" cy="290.3" r="5.4" />
  <circle cx="374.1" cy="156.8" r="5.4" />
  <circle cx="591.7" cy="109.9" r="5.4" />
  <circle cx="809.3" cy="174.5" r="5.4" />
</g>
<text transform="translate(145.6,47.2)" dy="0.0" font-size="27.00" fill="#808080" stroke="none">Annual CO<tspan dy="0.2em"><tspan style="font-size:70%">2</tspan></tspan><tspan dy="-0.2em"> </tspan>Emissions: Cyprus</text>
<text transform="translate(130.0,135.0)" dy="8.1" font-size="27.00" fill="#808080" stroke="none" text-anchor="end">CO<tspan dy="0.2em"><tspan style="font-size:70%">2</tspan></tspan><tspan dy="-0.2em"></tspan></text>
<text transform="translate(945.6,163.7)" dy="7.6" font-size="25.20" fill="#000" stroke="none">+52.4% since 1990</text>
<text transform="translate(945.6,365.2)" dy="7.6" font-size="25.20" fill="#FF7F61" stroke="none">Energy</text>
<text transform="translate(945.6,188.7)" dy="7.6" font-size="25.20" fill="#4A89E8" stroke="none">Industrial Processes</text>
<text transform="translate(945.6,138.6)" dy="7.6" font-size="25.20" fill="#845F48" stroke="none">Agriculture</text>
<text transform="translate(945.6,538.4)" dy="7.6" font-size="25.20" fill="#7FBF7F" stroke="none">LULUCF</text>
<polyline class="pl" points="910.8,162.6 912.4,162.6 913.8,162.6 915.2,162.6 916.4,162.7 917.6,162.7 918.8,162.7 919.8,162.8 920.8,162.8 921.7,162.9 922.7,162.9 923.5,163.0 924.4,163.0 925.2,163.1 926.0,163.1 926.8,163.2 927.6,163.2 928.4,163.3 929.3,163.3 930.1,163.4 931.1,163.4 932.0,163.5 933.0,163.5 934.0,163.6 935.2,163.6 936.4,163.6 937.6,163.7 939.0,163.7 940.4,163.7 942.0,163.7" stroke="#000" stroke-width="0.90" stroke-opacity="1.00" fill="none" />
<polyline class="pl" points="910.8,175.0 912.4,175.0 913.8,175.2 915.2,175.4 916.4,175.7 917.6,176.1 918.8,176.5 919.8,177.0 920.8,177.5 921.7,178.1 922.7,178.8 923.5,179.4 924.4,180.1 925.2,180.8 926.0,181.5 926.8,182.2 927.6,182.9 928.4,183.6 929.3,184.3 930.1,185.0 931.1,185.6 932.0,186.2 933.0,186.7 934.0,187.2 935.2,187.6 936.4,188.0 937.6,188.3 939.0,188.5 940.4,188.7 942.0,188.7" stroke="#4A89E8" stroke-width="0.90" stroke-opacity="1.00" fill="none" />
<polyline class="pl" points="910.8,153.5 912.4,153.4 913.8,153.3 915.2,153.0 916.4,152.7 917.6,152.3 918.8,151.8 919.8,151.3 920.8,150.7 921.7,150.1 922.7,149.4 923.5,148.7 924.4,147.9 925.2,147.2 926.0,146.4 926.8,145.7 927.6,144.9 928.4,144.2 929.3,143.4 930.1,142.7 931.1,142.0 932.0,141.4 933.0,140.8 934.0,140.3 935.2,139.8 936.4,139.4 937.6,139.1 939.0,138.8 940.4,138.7 942.0,138.6" stroke="#845F48" stroke-width="0.90" stroke-opacity="1.00" fill="none" />
<text transform="translate(160.0,666.1)" font-size="19.80" font-family="Helvetica" fill="#BFBFBF" stroke="none" xml:space="preserve">CICERO   &#9679;   Data: UNFCCC (2026)</text>
<g>
  <rect x="123.0" y="651.4" width="34" height="17" fill="#FFF" stroke="none" opacity="0.01"/>
  <g transform="translate(124.0,652.4) scale(0.24)">
  <g><circle fill="#FFF" cx="37.79" cy="28.5" r="28.84"/>
     <circle fill="none" cx="37.79" cy="28.5" r="28.84" stroke="#BFBFBF" stroke-width="5.5"/>
     <path fill="#BFBFBF" d="M37.16,23.19 l-4.29,2.23c-0.458-0.951-1.02-1.62-1.69-2c-0.667-0.38-1.29-0.571-1.86-0.571c-2.86,0-4.29,1.89-4.29,5.66 c0,1.71,0.36,3.08,1.09,4.11c0.724,1.03,1.79,1.54,3.2,1.54c1.87,0,3.18-0.915,3.94-2.74l3.94,2 c-0.838,1.56-2,2.79-3.49,3.69c-1.48,0.896-3.12,1.34-4.91,1.34c-2.86,0-5.16-0.875-6.92-2.63 c-1.75-1.75-2.63-4.19-2.63-7.31c0-3.05,0.886-5.47,2.66-7.26c1.77-1.79,4.01-2.69,6.72-2.69 C32.6,18.56,35.44,20.1,37.16,23.19z
              M55.61,23.19l-4.23,2.23c-0.457-0.951-1.02-1.62-1.69-2 c-0.668-0.38-1.31-0.571-1.91-0.571c-2.86,0-4.29,1.89-4.29,5.66c0,1.71,0.363,3.08,1.09,4.11 c0.723,1.03,1.79,1.54,3.2,1.54c1.87,0,3.18-0.915,3.94-2.74l4,2c-0.875,1.56-2.06,2.79-3.54,3.69 c-1.49,0.9-3.11,1.34-4.86,1.34c-2.9,0-5.21-0.875-6.94-2.63c-1.74-1.75-2.6-4.19-2.6-7.31 c0-3.05,0.885-5.47,2.66-7.26c1.77-1.79,4.01-2.69,6.71-2.69C51.12,18.56,53.944,20.1,55.61,23.19z"/>
  </g></g>
  <g transform="translate(140.2,652.4) scale(0.24)">
  <g><circle fill="#FFF" cx="37.79" cy="28.5" r="28.84"/>
     <circle fill="none" cx="37.79" cy="28.5" r="28.84" stroke="#BFBFBF" stroke-width="5.5"/>
     <path fill="#BFBFBF" d="M46.129,20.557v13.085h-3.656v15.542h-9.944V33.643h-3.656V20.557 c0-0.572,0.2-1.057,0.599-1.457c0.401-0.399,0.887-0.6,1.457-0.6h13.144c0.533,0,1.01,0.2,1.428,0.6 C45.918,19.5,46.129,19.986,46.129,20.557z
              M33.042,12.329c0-3.008,1.485-4.514,4.458-4.514s4.457,1.504,4.457,4.514 c0,2.971-1.486,4.457-4.457,4.457S33.042,15.3,33.042,12.329z"/>
  </g></g>
</g>
</g>
</svg>
