<svg version="1.1" xmlns="http://www.w3.org/2000/svg" xmlns:xlink="http://www.w3.org/1999/xlink" width="100%" height="100%" viewBox="0 0 1200.000 674.916">
<title>Kaya decomposition of emissions growth: New Zealand</title>
<style type="text/css">
  #main {font-family:Helvetica,Arial,sans-serif; font-size:27.00px;
         fill-opacity:1; fill:#000000; stroke:none; stroke-linejoin:round; stroke-linecap:round; stroke-width:1.00;}
  .marker {stroke-opacity:0;fill-opacity:0;}
  .marker:hover {stroke-opacity:0.5; fill-opacity:1;}
  .ticklabel {font-size:27.00px;fill:#808080;stroke:none;font-family:Helvetica}
  .ytl {text-anchor:end;}
  .dp1 {pointer-events:none;font-size:70%;text-anchor:middle;fill:#000000;}
  .dp2 {pointer-events:none;font-size:70%;text-anchor:middle;fill:#FFFFFF;}
  .numtip {pointer-events:none;}
  .cc {opacity:0.25;}
.dl_fe {background-color:#FDFFDF;display:flex;margin:auto;align-items:center}
.dl_fe_p {font-size:20px;text-align:center;margin:3px}
.dl_el {display:none;pointer-events:none;}
.cc:hover + .dl_el {display:block;}
text:hover + .dl_el {display:block;}
</style>
<defs>
  <clipPath id="axis_clip"><rect x="145.8" y="54.2" width="761.2" height="532.8" /></clipPath>
  <path id="line_x" d="M 145.600,0 h 761.600" stroke="#262626" stroke-opacity="0.15" stroke-width="1.00"/>
  <path id="tick_y" d="M 145.600,0 h -6.000" stroke="#808080" stroke-width="0.90"/>
  <path id="tick_x" d="M 0,587.177 v 6.000" stroke="#808080" stroke-width="0.90"/>
</defs>
<g id="main">
<use xlink:href="#line_x" transform="translate(0,587.2)"/>
<use xlink:href="#line_x" transform="translate(0,498.3)"/>
<use xlink:href="#line_x" transform="translate(0,409.4)"/>
<use xlink:href="#line_x" transform="translate(0,320.6)"/>
<use xlink:href="#line_x" transform="translate(0,231.7)"/>
<use xlink:href="#line_x" transform="translate(0,142.9)"/>
<use xlink:href="#line_x" transform="translate(0,54.0)"/>
<use xlink:href="#tick_y" transform="translate(0,587.2)"/>
<use xlink:href="#tick_y" transform="translate(0,498.3)"/>
<use xlink:href="#tick_y" transform="translate(0,409.4)"/>
<use xlink:href="#tick_y" transform="translate(0,320.6)"/>
<use xlink:href="#tick_y" transform="translate(0,231.7)"/>
<use xlink:href="#tick_y" transform="translate(0,142.9)"/>
<use xlink:href="#tick_y" transform="translate(0,54.0)"/>
<use xlink:href="#tick_x" transform="translate(156.5,0)"/>
<use xlink:href="#tick_x" transform="translate(265.3,0)"/>
<use xlink:href="#tick_x" transform="translate(374.1,0)"/>
<use xlink:href="#tick_x" transform="translate(482.9,0)"/>
<use xlink:href="#tick_x" transform="translate(591.7,0)"/>
<use xlink:href="#tick_x" transform="translate(700.5,0)"/>
<use xlink:href="#tick_x" transform="translate(809.3,0)"/>
<polyline points="145.6,53.993 145.6,587.177 907.2,587.177" stroke="#808080" stroke-width="0.90" fill="none"/>
<text class="ticklabel xtl" transform="translate(156.5,629.0)" text-anchor="middle">1990</text>
<text class="ticklabel xtl" transform="translate(265.3,629.0)" text-anchor="middle">1995</text>
<text class="ticklabel xtl" transform="translate(374.1,629.0)" text-anchor="middle">2000</text>
<text class="ticklabel xtl" transform="translate(482.9,629.0)" text-anchor="middle">2005</text>
<text class="ticklabel xtl" transform="translate(591.7,629.0)" text-anchor="middle">2010</text>
<text class="ticklabel xtl" transform="translate(700.5,629.0)" text-anchor="middle">2015</text>
<text class="ticklabel xtl" transform="translate(809.3,629.0)" text-anchor="middle">2020</text>
<text class="ticklabel ytl" transform="translate(128.8,595.3)">-15</text>
<text class="ticklabel ytl" transform="translate(128.8,506.4)">-10</text>
<text class="ticklabel ytl" transform="translate(128.8,417.5)">-5</text>
<text class="ticklabel ytl" transform="translate(128.8,328.7)">0</text>
<text class="ticklabel ytl" transform="translate(128.8,239.8)">5</text>
<text class="ticklabel ytl" transform="translate(128.8,151.0)">10</text>
<text class="ticklabel ytl" transform="translate(128.8,62.1)">15 %/yr</text>
<g stroke="#000" stroke-width="0.90" fill="#808080"  clip-path="url(#axis_clip)">
  <polygon class="pl" points="278.3,210.1 278.3,210.1 295.7,210.1 295.7,210.1 278.3,210.1"/>
  <polygon class="pl" points="778.8,259.0 778.8,259.2 796.2,259.2 796.2,259.0 778.8,259.0"/>
</g>
<g stroke="#000" stroke-width="0.90" fill="#8DA0CB"  clip-path="url(#axis_clip)">
  <polygon class="pl" points="169.5,200.2 169.5,211.6 186.9,211.6 186.9,200.2 169.5,200.2"/>
  <polygon class="pl" points="191.3,162.8 191.3,294.4 208.7,294.4 208.7,162.8 191.3,162.8"/>
  <polygon class="pl" points="278.3,210.1 278.3,266.2 295.7,266.2 295.7,210.1 278.3,210.1"/>
  <polygon class="pl" points="300.1,141.6 300.1,261.1 317.5,261.1 317.5,141.6 300.1,141.6"/>
  <polygon class="pl" points="343.6,148.1 343.6,227.4 361.0,227.4 361.0,148.1 343.6,148.1"/>
  <polygon class="pl" points="387.1,111.1 387.1,246.2 404.5,246.2 404.5,111.1 387.1,111.1"/>
  <polygon class="pl" points="430.7,94.1 430.7,240.7 448.1,240.7 448.1,94.1 430.7,94.1"/>
  <polygon class="pl" points="474.2,130.7 474.2,257.9 491.6,257.9 491.6,130.7 474.2,130.7"/>
  <polygon class="pl" points="539.5,224.1 539.5,272.8 556.9,272.8 556.9,224.1 539.5,224.1"/>
  <polygon class="pl" points="626.5,206.4 626.5,279.6 643.9,279.6 643.9,206.4 626.5,206.4"/>
  <polygon class="pl" points="691.8,233.5 691.8,242.9 709.2,242.9 709.2,233.5 691.8,233.5"/>
  <polygon class="pl" points="735.3,189.2 735.3,239.0 752.7,239.0 752.7,189.2 735.3,189.2"/>
  <polygon class="pl" points="757.1,239.0 757.1,249.9 774.5,249.9 774.5,239.0 757.1,239.0"/>
  <polygon class="pl" points="778.8,259.2 778.8,274.7 796.2,274.7 796.2,259.2 778.8,259.2"/>
  <polygon class="pl" points="800.6,250.4 800.6,291.9 818.0,291.9 818.0,250.4 800.6,250.4"/>
  <polygon class="pl" points="822.3,175.0 822.3,226.8 839.7,226.8 839.7,175.0 822.3,175.0"/>
  <polygon class="pl" points="887.6,187.5 887.6,291.2 905.0,291.2 905.0,187.5 887.6,187.5"/>
</g>
<g stroke="#000" stroke-width="0.90" fill="#66C2A5"  clip-path="url(#axis_clip)">
  <polygon class="pl" points="147.8,228.4 147.8,286.9 165.2,286.9 165.2,228.4 147.8,228.4"/>
  <polygon class="pl" points="169.5,211.6 169.5,276.7 186.9,276.7 186.9,211.6 169.5,211.6"/>
  <polygon class="pl" points="234.8,223.1 234.8,227.9 252.2,227.9 252.2,223.1 234.8,223.1"/>
  <polygon class="pl" points="365.4,248.8 365.4,284.2 382.8,284.2 382.8,248.8 365.4,248.8"/>
  <polygon class="pl" points="539.5,272.8 539.5,304.4 556.9,304.4 556.9,272.8 539.5,272.8"/>
  <polygon class="pl" points="583.0,275.3 583.0,302.6 600.4,302.6 600.4,275.3 583.0,275.3"/>
  <polygon class="pl" points="670.0,239.4 670.0,257.2 687.4,257.2 687.4,239.4 670.0,239.4"/>
  <polygon class="pl" points="865.9,267.4 865.9,273.8 883.3,273.8 883.3,267.4 865.9,267.4"/>
</g>
<g stroke="#000" stroke-width="0.90" fill="#E78AC3"  clip-path="url(#axis_clip)">
  <polygon class="pl" points="213.1,201.7 213.1,299.8 230.5,299.8 230.5,201.7 213.1,201.7"/>
  <polygon class="pl" points="234.8,227.9 234.8,297.0 252.2,297.0 252.2,227.9 234.8,227.9"/>
  <polygon class="pl" points="256.6,244.7 256.6,294.4 274.0,294.4 274.0,244.7 256.6,244.7"/>
  <polygon class="pl" points="278.3,266.2 278.3,294.0 295.7,294.0 295.7,266.2 278.3,266.2"/>
  <polygon class="pl" points="300.1,261.1 300.1,297.9 317.5,297.9 317.5,261.1 300.1,261.1"/>
  <polygon class="pl" points="321.9,301.7 321.9,304.4 339.3,304.4 339.3,301.7 321.9,301.7"/>
  <polygon class="pl" points="343.6,227.4 343.6,309.3 361.0,309.3 361.0,227.4 343.6,227.4"/>
  <polygon class="pl" points="365.4,284.2 365.4,310.4 382.8,310.4 382.8,284.2 365.4,284.2"/>
  <polygon class="pl" points="387.1,246.2 387.1,304.8 404.5,304.8 404.5,246.2 387.1,246.2"/>
  <polygon class="pl" points="408.9,231.5 408.9,293.5 426.3,293.5 426.3,231.5 408.9,231.5"/>
  <polygon class="pl" points="430.7,240.7 430.7,288.4 448.1,288.4 448.1,240.7 430.7,240.7"/>
  <polygon class="pl" points="452.4,269.0 452.4,293.5 469.8,293.5 469.8,269.0 452.4,269.0"/>
  <polygon class="pl" points="474.2,257.9 474.2,298.3 491.6,298.3 491.6,257.9 474.2,257.9"/>
  <polygon class="pl" points="495.9,276.1 495.9,300.4 513.3,300.4 513.3,276.1 495.9,276.1"/>
  <polygon class="pl" points="517.7,255.1 517.7,303.0 535.1,303.0 535.1,255.1 517.7,255.1"/>
  <polygon class="pl" points="561.2,280.7 561.2,302.9 578.6,302.9 578.6,280.7 561.2,280.7"/>
  <polygon class="pl" points="604.7,273.8 604.7,306.3 622.1,306.3 622.1,273.8 604.7,273.8"/>
  <polygon class="pl" points="626.5,279.6 626.5,308.8 643.9,308.8 643.9,279.6 626.5,279.6"/>
  <polygon class="pl" points="648.3,280.0 648.3,303.6 665.7,303.6 665.7,280.0 648.3,280.0"/>
  <polygon class="pl" points="670.0,257.2 670.0,293.0 687.4,293.0 687.4,257.2 670.0,257.2"/>
  <polygon class="pl" points="691.8,242.9 691.8,284.8 709.2,284.8 709.2,242.9 691.8,242.9"/>
  <polygon class="pl" points="713.5,260.1 713.5,281.8 730.9,281.8 730.9,260.1 713.5,260.1"/>
  <polygon class="pl" points="735.3,239.0 735.3,283.6 752.7,283.6 752.7,239.0 735.3,239.0"/>
  <polygon class="pl" points="757.1,249.9 757.1,288.1 774.5,288.1 774.5,249.9 757.1,249.9"/>
  <polygon class="pl" points="778.8,274.7 778.8,288.5 796.2,288.5 796.2,274.7 778.8,274.7"/>
  <polygon class="pl" points="822.3,226.8 822.3,307.3 839.7,307.3 839.7,226.8 822.3,226.8"/>
  <polygon class="pl" points="844.1,272.4 844.1,312.2 861.5,312.2 861.5,272.4 844.1,272.4"/>
  <polygon class="pl" points="865.9,273.8 865.9,306.4 883.3,306.4 883.3,273.8 865.9,273.8"/>
  <polygon class="pl" points="887.6,291.2 887.6,306.5 905.0,306.5 905.0,291.2 887.6,291.2"/>
</g>
<g stroke="#000" stroke-width="0.90" fill="#A6D854"  clip-path="url(#axis_clip)">
  <polygon class="pl" points="147.8,286.9 147.8,320.6 165.2,320.6 165.2,286.9 147.8,286.9"/>
  <polygon class="pl" points="169.5,276.7 169.5,320.6 186.9,320.6 186.9,276.7 169.5,276.7"/>
  <polygon class="pl" points="191.3,294.4 191.3,320.6 208.7,320.6 208.7,294.4 191.3,294.4"/>
  <polygon class="pl" points="213.1,299.8 213.1,320.6 230.5,320.6 230.5,299.8 213.1,299.8"/>
  <polygon class="pl" points="234.8,297.0 234.8,320.6 252.2,320.6 252.2,297.0 234.8,297.0"/>
  <polygon class="pl" points="256.6,294.4 256.6,320.6 274.0,320.6 274.0,294.4 256.6,294.4"/>
  <polygon class="pl" points="278.3,294.0 278.3,320.6 295.7,320.6 295.7,294.0 278.3,294.0"/>
  <polygon class="pl" points="300.1,297.9 300.1,320.6 317.5,320.6 317.5,297.9 300.1,297.9"/>
  <polygon class="pl" points="321.9,304.4 321.9,320.6 339.3,320.6 339.3,304.4 321.9,304.4"/>
  <polygon class="pl" points="343.6,309.3 343.6,320.6 361.0,320.6 361.0,309.3 343.6,309.3"/>
  <polygon class="pl" points="365.4,310.4 365.4,320.6 382.8,320.6 382.8,310.4 365.4,310.4"/>
  <polygon class="pl" points="387.1,304.8 387.1,320.6 404.5,320.6 404.5,304.8 387.1,304.8"/>
  <polygon class="pl" points="408.9,293.5 408.9,320.6 426.3,320.6 426.3,293.5 408.9,293.5"/>
  <polygon class="pl" points="430.7,288.4 430.7,320.6 448.1,320.6 448.1,288.4 430.7,288.4"/>
  <polygon class="pl" points="452.4,293.5 452.4,320.6 469.8,320.6 469.8,293.5 452.4,293.5"/>
  <polygon class="pl" points="474.2,298.3 474.2,320.6 491.6,320.6 491.6,298.3 474.2,298.3"/>
  <polygon class="pl" points="495.9,300.4 495.9,320.6 513.3,320.6 513.3,300.4 495.9,300.4"/>
  <polygon class="pl" points="517.7,303.0 517.7,320.6 535.1,320.6 535.1,303.0 517.7,303.0"/>
  <polygon class="pl" points="539.5,304.4 539.5,320.6 556.9,320.6 556.9,304.4 539.5,304.4"/>
  <polygon class="pl" points="561.2,302.9 561.2,320.6 578.6,320.6 578.6,302.9 561.2,302.9"/>
  <polygon class="pl" points="583.0,302.6 583.0,320.6 600.4,320.6 600.4,302.6 583.0,302.6"/>
  <polygon class="pl" points="604.7,306.3 604.7,320.6 622.1,320.6 622.1,306.3 604.7,306.3"/>
  <polygon class="pl" points="626.5,308.8 626.5,320.6 643.9,320.6 643.9,308.8 626.5,308.8"/>
  <polygon class="pl" points="648.3,303.6 648.3,320.6 665.7,320.6 665.7,303.6 648.3,303.6"/>
  <polygon class="pl" points="670.0,293.0 670.0,320.6 687.4,320.6 687.4,293.0 670.0,293.0"/>
  <polygon class="pl" points="691.8,284.8 691.8,320.6 709.2,320.6 709.2,284.8 691.8,284.8"/>
  <polygon class="pl" points="713.5,281.8 713.5,320.6 730.9,320.6 730.9,281.8 713.5,281.8"/>
  <polygon class="pl" points="735.3,283.6 735.3,320.6 752.7,320.6 752.7,283.6 735.3,283.6"/>
  <polygon class="pl" points="757.1,288.1 757.1,320.6 774.5,320.6 774.5,288.1 757.1,288.1"/>
  <polygon class="pl" points="778.8,288.5 778.8,320.6 796.2,320.6 796.2,288.5 778.8,288.5"/>
  <polygon class="pl" points="800.6,291.9 800.6,320.6 818.0,320.6 818.0,291.9 800.6,291.9"/>
  <polygon class="pl" points="822.3,307.3 822.3,320.6 839.7,320.6 839.7,307.3 822.3,307.3"/>
  <polygon class="pl" points="844.1,312.2 844.1,320.6 861.5,320.6 861.5,312.2 844.1,312.2"/>
  <polygon class="pl" points="865.9,306.4 865.9,320.6 883.3,320.6 883.3,306.4 865.9,306.4"/>
  <polygon class="pl" points="887.6,306.5 887.6,320.6 905.0,320.6 905.0,306.5 887.6,306.5"/>
</g>
<g stroke="#000" stroke-width="0.90" fill="#808080"  clip-path="url(#axis_clip)">
  <polygon class="pl" points="147.8,410.2 147.8,407.5 165.2,407.5 165.2,410.2 147.8,410.2"/>
  <polygon class="pl" points="169.5,393.6 169.5,391.0 186.9,391.0 186.9,393.6 169.5,393.6"/>
  <polygon class="pl" points="191.3,348.9 191.3,348.4 208.7,348.4 208.7,348.9 191.3,348.9"/>
  <polygon class="pl" points="213.1,460.4 213.1,455.1 230.5,455.1 230.5,460.4 213.1,460.4"/>
  <polygon class="pl" points="234.8,409.1 234.8,405.6 252.2,405.6 252.2,409.1 234.8,409.1"/>
  <polygon class="pl" points="256.6,389.8 256.6,388.0 274.0,388.0 274.0,389.8 256.6,389.8"/>
  <polygon class="pl" points="300.1,374.6 300.1,373.7 317.5,373.7 317.5,374.6 300.1,374.6"/>
  <polygon class="pl" points="321.9,420.5 321.9,420.3 339.3,420.3 339.3,420.5 321.9,420.5"/>
  <polygon class="pl" points="343.6,397.5 343.6,394.8 361.0,394.8 361.0,397.5 343.6,397.5"/>
  <polygon class="pl" points="365.4,353.4 365.4,352.9 382.8,352.9 382.8,353.4 365.4,353.4"/>
  <polygon class="pl" points="387.1,407.1 387.1,403.3 404.5,403.3 404.5,407.1 387.1,407.1"/>
  <polygon class="pl" points="408.9,401.3 408.9,399.1 426.3,399.1 426.3,401.3 408.9,401.3"/>
  <polygon class="pl" points="430.7,459.5 430.7,450.0 448.1,450.0 448.1,459.5 430.7,459.5"/>
  <polygon class="pl" points="452.4,397.3 452.4,395.7 469.8,395.7 469.8,397.3 452.4,397.3"/>
  <polygon class="pl" points="474.2,426.2 474.2,420.3 491.6,420.3 491.6,426.2 474.2,426.2"/>
  <polygon class="pl" points="495.9,369.7 495.9,369.0 513.3,369.0 513.3,369.7 495.9,369.7"/>
  <polygon class="pl" points="517.7,429.9 517.7,428.0 535.1,428.0 535.1,429.9 517.7,429.9"/>
  <polygon class="pl" points="539.5,368.2 539.5,367.2 556.9,367.2 556.9,368.2 539.5,368.2"/>
  <polygon class="pl" points="561.2,493.1 561.2,492.4 578.6,492.4 578.6,493.1 561.2,493.1"/>
  <polygon class="pl" points="583.0,356.0 583.0,355.4 600.4,355.4 600.4,356.0 583.0,356.0"/>
  <polygon class="pl" points="604.7,395.2 604.7,394.3 622.1,394.3 622.1,395.2 604.7,395.2"/>
  <polygon class="pl" points="626.5,352.9 626.5,352.7 643.9,352.7 643.9,352.9 626.5,352.9"/>
  <polygon class="pl" points="648.3,390.9 648.3,390.2 665.7,390.2 665.7,390.9 648.3,390.9"/>
  <polygon class="pl" points="670.0,392.7 670.0,390.6 687.4,390.6 687.4,392.7 670.0,392.7"/>
  <polygon class="pl" points="691.8,387.3 691.8,385.3 709.2,385.3 709.2,387.3 691.8,387.3"/>
  <polygon class="pl" points="713.5,468.6 713.5,466.5 730.9,466.5 730.9,468.6 713.5,468.6"/>
  <polygon class="pl" points="735.3,367.4 735.3,367.1 752.7,367.1 752.7,367.4 735.3,367.4"/>
  <polygon class="pl" points="757.1,400.9 757.1,398.4 774.5,398.4 774.5,400.9 757.1,400.9"/>
  <polygon class="pl" points="800.6,521.2 800.6,517.6 818.0,517.6 818.0,521.2 800.6,521.2"/>
  <polygon class="pl" points="822.3,435.8 822.3,430.0 839.7,430.0 839.7,435.8 822.3,435.8"/>
  <polygon class="pl" points="844.1,503.9 844.1,503.7 861.5,503.7 861.5,503.9 844.1,503.9"/>
  <polygon class="pl" points="865.9,396.4 865.9,394.6 883.3,394.6 883.3,396.4 865.9,396.4"/>
  <polygon class="pl" points="887.6,406.8 887.6,402.5 905.0,402.5 905.0,406.8 887.6,406.8"/>
</g>
<g stroke="#000" stroke-width="0.90" fill="#8DA0CB"  clip-path="url(#axis_clip)">
  <polygon class="pl" points="147.8,407.5 147.8,341.5 165.2,341.5 165.2,407.5 147.8,407.5"/>
  <polygon class="pl" points="213.1,455.1 213.1,378.1 230.5,378.1 230.5,455.1 213.1,455.1"/>
  <polygon class="pl" points="234.8,405.6 234.8,320.6 252.2,320.6 252.2,405.6 234.8,405.6"/>
  <polygon class="pl" points="256.6,388.0 256.6,330.1 274.0,330.1 274.0,388.0 256.6,388.0"/>
  <polygon class="pl" points="321.9,420.3 321.9,339.3 339.3,339.3 339.3,420.3 321.9,420.3"/>
  <polygon class="pl" points="365.4,352.9 365.4,320.6 382.8,320.6 382.8,352.9 365.4,352.9"/>
  <polygon class="pl" points="408.9,399.1 408.9,348.2 426.3,348.2 426.3,399.1 408.9,399.1"/>
  <polygon class="pl" points="452.4,395.7 452.4,325.9 469.8,325.9 469.8,395.7 452.4,395.7"/>
  <polygon class="pl" points="495.9,369.0 495.9,352.8 513.3,352.8 513.3,369.0 495.9,369.0"/>
  <polygon class="pl" points="517.7,428.0 517.7,390.2 535.1,390.2 535.1,428.0 517.7,428.0"/>
  <polygon class="pl" points="561.2,492.4 561.2,359.5 578.6,359.5 578.6,492.4 561.2,492.4"/>
  <polygon class="pl" points="583.0,355.4 583.0,322.6 600.4,322.6 600.4,355.4 583.0,355.4"/>
  <polygon class="pl" points="604.7,394.3 604.7,359.3 622.1,359.3 622.1,394.3 604.7,394.3"/>
  <polygon class="pl" points="648.3,390.2 648.3,343.1 665.7,343.1 665.7,390.2 648.3,390.2"/>
  <polygon class="pl" points="670.0,390.6 670.0,320.6 687.4,320.6 687.4,390.6 670.0,390.6"/>
  <polygon class="pl" points="713.5,466.5 713.5,360.7 730.9,360.7 730.9,466.5 713.5,466.5"/>
  <polygon class="pl" points="844.1,503.7 844.1,390.7 861.5,390.7 861.5,503.7 844.1,503.7"/>
  <polygon class="pl" points="865.9,394.6 865.9,320.6 883.3,320.6 883.3,394.6 865.9,394.6"/>
</g>
<g stroke="#000" stroke-width="0.90" fill="#66C2A5"  clip-path="url(#axis_clip)">
  <polygon class="pl" points="191.3,348.4 191.3,328.2 208.7,328.2 208.7,348.4 191.3,348.4"/>
  <polygon class="pl" points="213.1,378.1 213.1,320.6 230.5,320.6 230.5,378.1 213.1,378.1"/>
  <polygon class="pl" points="256.6,330.1 256.6,320.6 274.0,320.6 274.0,330.1 256.6,330.1"/>
  <polygon class="pl" points="278.3,353.8 278.3,320.6 295.7,320.6 295.7,353.8 278.3,353.8"/>
  <polygon class="pl" points="300.1,373.7 300.1,320.6 317.5,320.6 317.5,373.7 300.1,373.7"/>
  <polygon class="pl" points="321.9,339.3 321.9,320.6 339.3,320.6 339.3,339.3 321.9,339.3"/>
  <polygon class="pl" points="343.6,394.8 343.6,320.6 361.0,320.6 361.0,394.8 343.6,394.8"/>
  <polygon class="pl" points="387.1,403.3 387.1,320.6 404.5,320.6 404.5,403.3 387.1,403.3"/>
  <polygon class="pl" points="408.9,348.2 408.9,320.6 426.3,320.6 426.3,348.2 408.9,348.2"/>
  <polygon class="pl" points="430.7,450.0 430.7,320.6 448.1,320.6 448.1,450.0 430.7,450.0"/>
  <polygon class="pl" points="452.4,325.9 452.4,320.6 469.8,320.6 469.8,325.9 452.4,325.9"/>
  <polygon class="pl" points="474.2,420.3 474.2,320.6 491.6,320.6 491.6,420.3 474.2,420.3"/>
  <polygon class="pl" points="495.9,352.8 495.9,320.6 513.3,320.6 513.3,352.8 495.9,352.8"/>
  <polygon class="pl" points="517.7,390.2 517.7,320.6 535.1,320.6 535.1,390.2 517.7,390.2"/>
  <polygon class="pl" points="561.2,359.5 561.2,320.6 578.6,320.6 578.6,359.5 561.2,359.5"/>
  <polygon class="pl" points="604.7,359.3 604.7,320.6 622.1,320.6 622.1,359.3 604.7,359.3"/>
  <polygon class="pl" points="626.5,352.7 626.5,320.6 643.9,320.6 643.9,352.7 626.5,352.7"/>
  <polygon class="pl" points="648.3,343.1 648.3,320.6 665.7,320.6 665.7,343.1 648.3,343.1"/>
  <polygon class="pl" points="691.8,385.3 691.8,320.6 709.2,320.6 709.2,385.3 691.8,385.3"/>
  <polygon class="pl" points="713.5,360.7 713.5,320.6 730.9,320.6 730.9,360.7 713.5,360.7"/>
  <polygon class="pl" points="735.3,367.1 735.3,320.6 752.7,320.6 752.7,367.1 735.3,367.1"/>
  <polygon class="pl" points="757.1,398.4 757.1,320.6 774.5,320.6 774.5,398.4 757.1,398.4"/>
  <polygon class="pl" points="778.8,331.2 778.8,320.6 796.2,320.6 796.2,331.2 778.8,331.2"/>
  <polygon class="pl" points="800.6,517.6 800.6,359.0 818.0,359.0 818.0,517.6 800.6,517.6"/>
  <polygon class="pl" points="822.3,430.0 822.3,320.6 839.7,320.6 839.7,430.0 822.3,430.0"/>
  <polygon class="pl" points="844.1,390.7 844.1,320.6 861.5,320.6 861.5,390.7 844.1,390.7"/>
  <polygon class="pl" points="887.6,402.5 887.6,320.6 905.0,320.6 905.0,402.5 887.6,402.5"/>
</g>
<g stroke="#000" stroke-width="0.90" fill="#E78AC3"  clip-path="url(#axis_clip)">
  <polygon class="pl" points="147.8,341.5 147.8,320.6 165.2,320.6 165.2,341.5 147.8,341.5"/>
  <polygon class="pl" points="169.5,391.0 169.5,320.6 186.9,320.6 186.9,391.0 169.5,391.0"/>
  <polygon class="pl" points="191.3,328.2 191.3,320.6 208.7,320.6 208.7,328.2 191.3,328.2"/>
  <polygon class="pl" points="539.5,367.2 539.5,320.6 556.9,320.6 556.9,367.2 539.5,367.2"/>
  <polygon class="pl" points="583.0,322.6 583.0,320.6 600.4,320.6 600.4,322.6 583.0,322.6"/>
  <polygon class="pl" points="800.6,359.0 800.6,320.6 818.0,320.6 818.0,359.0 800.6,359.0"/>
</g>
<g stroke="#000" stroke-width="0.90" fill="#A6D854"  clip-path="url(#axis_clip)">
</g>
<g class="pl" fill="#000" stroke="#000" stroke-width="0.900">
  <circle cx="156.5" cy="318.0" r="5.4" />
  <circle cx="178.2" cy="273.2" r="5.4" />
  <circle cx="200.0" cy="191.1" r="5.4" />
  <circle cx="221.8" cy="341.5" r="5.4" />
  <circle cx="243.5" cy="311.7" r="5.4" />
  <circle cx="265.3" cy="313.9" r="5.4" />
  <circle cx="287.0" cy="243.2" r="5.4" />
  <circle cx="308.8" cy="195.6" r="5.4" />
  <circle cx="330.6" cy="401.6" r="5.4" />
  <circle cx="352.3" cy="225.0" r="5.4" />
  <circle cx="374.1" cy="281.6" r="5.4" />
  <circle cx="395.8" cy="197.6" r="5.4" />
  <circle cx="417.6" cy="312.2" r="5.4" />
  <circle cx="439.4" cy="233.0" r="5.4" />
  <circle cx="461.1" cy="345.7" r="5.4" />
  <circle cx="482.9" cy="236.3" r="5.4" />
  <circle cx="504.6" cy="325.2" r="5.4" />
  <circle cx="526.4" cy="364.5" r="5.4" />
  <circle cx="548.2" cy="271.7" r="5.4" />
  <circle cx="569.9" cy="453.2" r="5.4" />
  <circle cx="591.7" cy="310.7" r="5.4" />
  <circle cx="613.4" cy="348.5" r="5.4" />
  <circle cx="635.2" cy="238.6" r="5.4" />
  <circle cx="657.0" cy="350.4" r="5.4" />
  <circle cx="678.7" cy="311.5" r="5.4" />
  <circle cx="700.5" cy="300.2" r="5.4" />
  <circle cx="722.2" cy="408.1" r="5.4" />
  <circle cx="744.0" cy="236.0" r="5.4" />
  <circle cx="765.8" cy="319.3" r="5.4" />
  <circle cx="787.5" cy="269.6" r="5.4" />
  <circle cx="809.3" cy="451.1" r="5.4" />
  <circle cx="831.0" cy="290.2" r="5.4" />
  <circle cx="852.8" cy="455.7" r="5.4" />
  <circle cx="874.6" cy="343.2" r="5.4" />
  <circle cx="896.3" cy="273.8" r="5.4" />
</g>
<g stroke="#000" stroke-width="0.90" fill="#808080"  >
</g>
<g stroke="#000" stroke-width="0.90" fill="#8DA0CB"  >
  <polygon class="pl" points="959.6,268.9 959.6,269.6 977.0,269.6 977.0,268.9 959.6,268.9"/>
</g>
<g stroke="#000" stroke-width="0.90" fill="#66C2A5"  >
</g>
<g stroke="#000" stroke-width="0.90" fill="#E78AC3"  >
  <polygon class="pl" points="959.6,269.6 959.6,297.7 977.0,297.7 977.0,269.6 959.6,269.6"/>
</g>
<g stroke="#000" stroke-width="0.90" fill="#A6D854"  >
  <polygon class="pl" points="959.6,297.7 959.6,320.6 977.0,320.6 977.0,297.7 959.6,297.7"/>
</g>
<g stroke="#000" stroke-width="0.90" fill="#808080"  >
  <polygon class="pl" points="959.6,358.7 959.6,356.5 977.0,356.5 977.0,358.7 959.6,358.7"/>
</g>
<g stroke="#000" stroke-width="0.90" fill="#8DA0CB"  >
</g>
<g stroke="#000" stroke-width="0.90" fill="#66C2A5"  >
  <polygon class="pl" points="959.6,356.5 959.6,320.6 977.0,320.6 977.0,356.5 959.6,356.5"/>
</g>
<g stroke="#000" stroke-width="0.90" fill="#E78AC3"  >
</g>
<g stroke="#000" stroke-width="0.90" fill="#A6D854"  >
</g>
<g class="pl" fill="#000" stroke="#000" stroke-width="0.900">
  <circle cx="968.3" cy="306.9" r="5.4" />
</g>
<text transform="translate(968.3,593.9)"  font-size="21.60" fill="#808080" stroke="none" text-anchor="middle">
      <tspan x="0" y="18.0">Average over</tspan><tspan x="0" y="42.2">1990&#8211;2024</tspan>
    </text>
<g stroke="none" stroke-width="0.9000"  >
  <polygon points="968.3,587.2 974.3,593.9 962.3,593.9 968.3,587.2" fill="#808080"/>
</g>
<text transform="translate(1009.2,300.4)" dy="6.5" font-size="21.60" fill="#000" stroke="none">Fossil CO<tspan dy="0.2em"><tspan style="font-size:70%">2</tspan></tspan><tspan dy="-0.2em"></tspan></text>
<text transform="translate(1009.2,321.3)" dy="6.5" font-size="21.60" fill="#A6D854" stroke="none">Population</text>
<text transform="translate(1009.2,279.5)" dy="6.5" font-size="21.60" fill="#E78AC3" stroke="none">GDP/Population</text>
<text transform="translate(1009.2,258.6)" dy="6.5" font-size="21.60" fill="#8DA0CB" stroke="none">CO<tspan dy="0.2em"><tspan style="font-size:70%">2</tspan></tspan><tspan dy="-0.2em">/</tspan>Energy</text>
<text transform="translate(1009.2,342.2)" dy="6.5" font-size="21.60" fill="#66C2A5" stroke="none">Energy/GDP</text>
<text transform="translate(1009.2,363.1)" dy="6.5" font-size="21.60" fill="#808080" stroke="none">Interactions</text>
<polyline class="pl" points="985.2,306.9 986.2,306.9 987.2,306.8 988.1,306.7 988.9,306.6 989.7,306.4 990.4,306.2 991.1,306.0 991.7,305.7 992.4,305.4 992.9,305.1 993.5,304.8 994.1,304.5 994.6,304.2 995.1,303.8 995.7,303.5 996.2,303.2 996.7,302.8 997.3,302.5 997.9,302.2 998.4,301.9 999.1,301.6 999.7,301.4 1000.4,301.1 1001.1,300.9 1001.9,300.7 1002.7,300.6 1003.6,300.5 1004.6,300.4 1005.6,300.4" stroke="#000" stroke-width="0.90" stroke-opacity="1.00" fill="none" />
<polyline class="pl" points="985.2,309.1 986.2,309.2 987.2,309.3 988.1,309.5 988.9,309.8 989.7,310.1 990.4,310.5 991.1,310.9 991.7,311.4 992.4,311.9 992.9,312.5 993.5,313.1 994.1,313.7 994.6,314.3 995.1,314.9 995.7,315.5 996.2,316.2 996.7,316.8 997.3,317.4 997.9,318.0 998.4,318.5 999.1,319.0 999.7,319.5 1000.4,320.0 1001.1,320.3 1001.9,320.7 1002.7,320.9 1003.6,321.1 1004.6,321.3 1005.6,321.3" stroke="#A6D854" stroke-width="0.90" stroke-opacity="1.00" fill="none" />
<polyline class="pl" points="985.2,283.7 986.2,283.6 987.2,283.6 988.1,283.5 988.9,283.4 989.7,283.3 990.4,283.2 991.1,283.1 991.7,282.9 992.4,282.7 992.9,282.5 993.5,282.3 994.1,282.1 994.6,281.9 995.1,281.7 995.7,281.5 996.2,281.3 996.7,281.1 997.3,280.9 997.9,280.7 998.4,280.5 999.1,280.3 999.7,280.1 1000.4,280.0 1001.1,279.8 1001.9,279.7 1002.7,279.6 1003.6,279.6 1004.6,279.5 1005.6,279.5" stroke="#E78AC3" stroke-width="0.90" stroke-opacity="1.00" fill="none" />
<polyline class="pl" points="985.2,269.2 986.2,269.2 987.2,269.1 988.1,268.9 988.9,268.7 989.7,268.4 990.4,268.1 991.1,267.7 991.7,267.3 992.4,266.8 992.9,266.3 993.5,265.8 994.1,265.3 994.6,264.7 995.1,264.2 995.7,263.7 996.2,263.1 996.7,262.6 997.3,262.0 997.9,261.5 998.4,261.1 999.1,260.6 999.7,260.2 1000.4,259.8 1001.1,259.5 1001.9,259.2 1002.7,258.9 1003.6,258.8 1004.6,258.7 1005.6,258.6" stroke="#8DA0CB" stroke-width="0.90" stroke-opacity="1.00" fill="none" />
<polyline class="pl" points="985.2,338.6 986.2,338.6 987.2,338.6 988.1,338.7 988.9,338.7 989.7,338.8 990.4,339.0 991.1,339.1 991.7,339.2 992.4,339.4 992.9,339.6 993.5,339.7 994.1,339.9 994.6,340.1 995.1,340.3 995.7,340.5 996.2,340.7 996.7,340.8 997.3,341.0 997.9,341.2 998.4,341.4 999.1,341.5 999.7,341.7 1000.4,341.8 1001.1,341.9 1001.9,342.0 1002.7,342.1 1003.6,342.1 1004.6,342.2 1005.6,342.2" stroke="#66C2A5" stroke-width="0.90" stroke-opacity="1.00" fill="none" />
<polyline class="pl" points="985.2,357.6 986.2,357.6 987.2,357.7 988.1,357.8 988.9,357.9 989.7,358.0 990.4,358.2 991.1,358.4 991.7,358.6 992.4,358.9 992.9,359.1 993.5,359.4 994.1,359.6 994.6,359.9 995.1,360.2 995.7,360.5 996.2,360.8 996.7,361.0 997.3,361.3 997.9,361.6 998.4,361.8 999.1,362.1 999.7,362.3 1000.4,362.5 1001.1,362.7 1001.9,362.8 1002.7,362.9 1003.6,363.0 1004.6,363.1 1005.6,363.1" stroke="#808080" stroke-width="0.90" stroke-opacity="1.00" fill="none" />
<text transform="translate(145.6,47.2)" dy="0.0" font-size="27.00" fill="#808080" stroke="none">Kaya decomposition of emissions growth: New Zealand</text>
<text transform="translate(157.6,60.7)" dy="18.0" font-size="18.00" fill="#808080" stroke="none">Percentage change relative to previous year</text>
<text transform="translate(157.6,82.4)" dy="18.0" font-size="18.00" fill="#808080" stroke="none">Adjusted for leap years</text>
<text transform="translate(160.3,666.1)" font-size="19.80" font-family="Helvetica" fill="#BFBFBF" stroke="none" xml:space="preserve">Global Carbon Project</text>
<g>
  <rect x="123.0" y="651.4" width="34" height="17" fill="#FFF" stroke="none" opacity="0.01"/>
  <g transform="translate(124.0,652.4) scale(0.24)">
  <g><circle fill="#FFF" cx="37.79" cy="28.5" r="28.84"/>
     <circle fill="none" cx="37.79" cy="28.5" r="28.84" stroke="#BFBFBF" stroke-width="5.5"/>
     <path fill="#BFBFBF" d="M37.16,23.19 l-4.29,2.23c-0.458-0.951-1.02-1.62-1.69-2c-0.667-0.38-1.29-0.571-1.86-0.571c-2.86,0-4.29,1.89-4.29,5.66 c0,1.71,0.36,3.08,1.09,4.11c0.724,1.03,1.79,1.54,3.2,1.54c1.87,0,3.18-0.915,3.94-2.74l3.94,2 c-0.838,1.56-2,2.79-3.49,3.69c-1.48,0.896-3.12,1.34-4.91,1.34c-2.86,0-5.16-0.875-6.92-2.63 c-1.75-1.75-2.63-4.19-2.63-7.31c0-3.05,0.886-5.47,2.66-7.26c1.77-1.79,4.01-2.69,6.72-2.69 C32.6,18.56,35.44,20.1,37.16,23.19z
              M55.61,23.19l-4.23,2.23c-0.457-0.951-1.02-1.62-1.69-2 c-0.668-0.38-1.31-0.571-1.91-0.571c-2.86,0-4.29,1.89-4.29,5.66c0,1.71,0.363,3.08,1.09,4.11 c0.723,1.03,1.79,1.54,3.2,1.54c1.87,0,3.18-0.915,3.94-2.74l4,2c-0.875,1.56-2.06,2.79-3.54,3.69 c-1.49,0.9-3.11,1.34-4.86,1.34c-2.9,0-5.21-0.875-6.94-2.63c-1.74-1.75-2.6-4.19-2.6-7.31 c0-3.05,0.885-5.47,2.66-7.26c1.77-1.79,4.01-2.69,6.71-2.69C51.12,18.56,53.944,20.1,55.61,23.19z"/>
  </g></g>
  <g transform="translate(140.2,652.4) scale(0.24)">
  <g><circle fill="#FFF" cx="37.79" cy="28.5" r="28.84"/>
     <circle fill="none" cx="37.79" cy="28.5" r="28.84" stroke="#BFBFBF" stroke-width="5.5"/>
     <path fill="#BFBFBF" d="M46.129,20.557v13.085h-3.656v15.542h-9.944V33.643h-3.656V20.557 c0-0.572,0.2-1.057,0.599-1.457c0.401-0.399,0.887-0.6,1.457-0.6h13.144c0.533,0,1.01,0.2,1.428,0.6 C45.918,19.5,46.129,19.986,46.129,20.557z
              M33.042,12.329c0-3.008,1.485-4.514,4.458-4.514s4.457,1.504,4.457,4.514 c0,2.971-1.486,4.457-4.457,4.457S33.042,15.3,33.042,12.329z"/>
  </g></g>
</g>
</g>
</svg>
