<svg version="1.1" xmlns="http://www.w3.org/2000/svg" xmlns:xlink="http://www.w3.org/1999/xlink" width="100%" height="100%" viewBox="0 0 1200.000 674.916">
<title>Annual CO2 Emissions: Lithuania</title>
<style type="text/css">
  #main {font-family:Helvetica,Arial,sans-serif; font-size:27.00px;
         fill-opacity:1; fill:#000000; stroke:none; stroke-linejoin:round; stroke-linecap:round; stroke-width:1.00;}
  .marker {stroke-opacity:0;fill-opacity:0;}
  .marker:hover {stroke-opacity:0.5; fill-opacity:1;}
  .ticklabel {font-size:27.00px;fill:#808080;stroke:none;font-family:Helvetica}
  .ytl {text-anchor:end;}
  .dp1 {pointer-events:none;font-size:70%;text-anchor:middle;fill:#000000;}
  .dp2 {pointer-events:none;font-size:70%;text-anchor:middle;fill:#FFFFFF;}
  .numtip {pointer-events:none;}
  .cc {opacity:0.25;}
.dl_fe {background-color:#FDFFDF;display:flex;margin:auto;align-items:center}
.dl_fe_p {font-size:20px;text-align:center;margin:3px}
.dl_el {display:none;pointer-events:none;}
.cc:hover + .dl_el {display:block;}
text:hover + .dl_el {display:block;}
</style>
<defs>
  <clipPath id="axis_clip"><rect x="145.8" y="54.2" width="761.2" height="532.8" /></clipPath>
  <path id="line_y" d="M 0,53.993 v 533.183" stroke="#262626" stroke-opacity="0.15" stroke-width="1.00"/>
  <path id="line_x" d="M 145.600,0 h 761.600" stroke="#262626" stroke-opacity="0.15" stroke-width="1.00"/>
  <path id="tick_y" d="M 145.600,0 h -6.000" stroke="#808080" stroke-width="0.90"/>
  <path id="tick_x" d="M 0,587.177 v 6.000" stroke="#808080" stroke-width="0.90"/>
</defs>
<g id="main">
<use xlink:href="#line_y" transform="translate(156.5,0)"/>
<use xlink:href="#line_y" transform="translate(265.3,0)"/>
<use xlink:href="#line_y" transform="translate(374.1,0)"/>
<use xlink:href="#line_y" transform="translate(482.9,0)"/>
<use xlink:href="#line_y" transform="translate(591.7,0)"/>
<use xlink:href="#line_y" transform="translate(700.5,0)"/>
<use xlink:href="#line_y" transform="translate(809.3,0)"/>
<use xlink:href="#line_y" transform="translate(896.3,0)"/>
<use xlink:href="#line_x" transform="translate(0,587.2)"/>
<use xlink:href="#line_x" transform="translate(0,498.3)"/>
<use xlink:href="#line_x" transform="translate(0,409.4)"/>
<use xlink:href="#line_x" transform="translate(0,320.6)"/>
<use xlink:href="#line_x" transform="translate(0,231.7)"/>
<use xlink:href="#line_x" transform="translate(0,142.9)"/>
<use xlink:href="#line_x" transform="translate(0,54.0)"/>
<use xlink:href="#tick_y" transform="translate(0,587.2)"/>
<use xlink:href="#tick_y" transform="translate(0,498.3)"/>
<use xlink:href="#tick_y" transform="translate(0,409.4)"/>
<use xlink:href="#tick_y" transform="translate(0,320.6)"/>
<use xlink:href="#tick_y" transform="translate(0,231.7)"/>
<use xlink:href="#tick_y" transform="translate(0,142.9)"/>
<use xlink:href="#tick_y" transform="translate(0,54.0)"/>
<use xlink:href="#tick_x" transform="translate(156.5,0)"/>
<use xlink:href="#tick_x" transform="translate(265.3,0)"/>
<use xlink:href="#tick_x" transform="translate(374.1,0)"/>
<use xlink:href="#tick_x" transform="translate(482.9,0)"/>
<use xlink:href="#tick_x" transform="translate(591.7,0)"/>
<use xlink:href="#tick_x" transform="translate(700.5,0)"/>
<use xlink:href="#tick_x" transform="translate(809.3,0)"/>
<use xlink:href="#tick_x" transform="translate(896.3,0)"/>
<polyline points="145.6,53.993 145.6,587.177 907.2,587.177" stroke="#808080" stroke-width="0.90" fill="none"/>
<text class="ticklabel xtl" transform="translate(156.5,629.0)" text-anchor="middle">1990</text>
<text class="ticklabel xtl" transform="translate(265.3,629.0)" text-anchor="middle">1995</text>
<text class="ticklabel xtl" transform="translate(374.1,629.0)" text-anchor="middle">2000</text>
<text class="ticklabel xtl" transform="translate(482.9,629.0)" text-anchor="middle">2005</text>
<text class="ticklabel xtl" transform="translate(591.7,629.0)" text-anchor="middle">2010</text>
<text class="ticklabel xtl" transform="translate(700.5,629.0)" text-anchor="middle">2015</text>
<text class="ticklabel xtl" transform="translate(809.3,629.0)" text-anchor="middle">2020</text>
<text class="ticklabel xtl" transform="translate(896.3,629.0)" text-anchor="middle">2024</text>
<text class="ticklabel ytl" transform="translate(128.8,595.3)">-20</text>
<text class="ticklabel ytl" transform="translate(128.8,506.4)">-10</text>
<text class="ticklabel ytl" transform="translate(128.8,417.5)">0</text>
<text class="ticklabel ytl" transform="translate(128.8,328.7)">10</text>
<text class="ticklabel ytl" transform="translate(128.8,239.8)">20</text>
<text class="ticklabel ytl" transform="translate(128.8,151.0)">30</text>
<text class="ticklabel ytl" transform="translate(128.8,62.1)">40 Mt</text>
<g stroke="#000" stroke-width="0.90" fill="#7FBF7F"  clip-path="url(#axis_clip)">
  <polygon class="pl" points="278.3,263.3 278.3,269.6 295.7,269.6 295.7,263.3 278.3,263.3"/>
</g>
<g stroke="#000" stroke-width="0.90" fill="#DBA746"  clip-path="url(#axis_clip)">
  <polygon class="pl" points="147.8,91.9 147.8,91.9 165.2,91.9 165.2,91.9 147.8,91.9"/>
  <polygon class="pl" points="169.5,73.4 169.5,73.4 186.9,73.4 186.9,73.4 169.5,73.4"/>
  <polygon class="pl" points="191.3,221.3 191.3,221.3 208.7,221.3 208.7,221.3 191.3,221.3"/>
  <polygon class="pl" points="213.1,264.4 213.1,264.4 230.5,264.4 230.5,264.4 213.1,264.4"/>
  <polygon class="pl" points="234.8,269.3 234.8,269.3 252.2,269.3 252.2,269.3 234.8,269.3"/>
  <polygon class="pl" points="256.6,275.6 256.6,275.7 274.0,275.7 274.0,275.6 256.6,275.6"/>
  <polygon class="pl" points="278.3,269.6 278.3,269.6 295.7,269.6 295.7,269.6 278.3,269.6"/>
  <polygon class="pl" points="300.1,274.7 300.1,274.7 317.5,274.7 317.5,274.7 300.1,274.7"/>
  <polygon class="pl" points="321.9,267.3 321.9,267.3 339.3,267.3 339.3,267.3 321.9,267.3"/>
  <polygon class="pl" points="343.6,289.9 343.6,289.9 361.0,289.9 361.0,289.9 343.6,289.9"/>
  <polygon class="pl" points="365.4,304.2 365.4,304.2 382.8,304.2 382.8,304.2 365.4,304.2"/>
  <polygon class="pl" points="387.1,297.5 387.1,297.5 404.5,297.5 404.5,297.5 387.1,297.5"/>
  <polygon class="pl" points="408.9,296.9 408.9,296.9 426.3,296.9 426.3,296.9 408.9,296.9"/>
  <polygon class="pl" points="430.7,297.0 430.7,297.0 448.1,297.0 448.1,297.0 430.7,297.0"/>
  <polygon class="pl" points="452.4,291.7 452.4,291.7 469.8,291.7 469.8,291.7 452.4,291.7"/>
  <polygon class="pl" points="474.2,286.3 474.2,286.3 491.6,286.3 491.6,286.3 474.2,286.3"/>
  <polygon class="pl" points="495.9,283.3 495.9,283.3 513.3,283.3 513.3,283.3 495.9,283.3"/>
  <polygon class="pl" points="517.7,271.9 517.7,272.0 535.1,272.0 535.1,271.9 517.7,271.9"/>
  <polygon class="pl" points="539.5,276.9 539.5,276.9 556.9,276.9 556.9,276.9 539.5,276.9"/>
  <polygon class="pl" points="561.2,295.4 561.2,295.5 578.6,295.5 578.6,295.4 561.2,295.4"/>
  <polygon class="pl" points="583.0,286.8 583.0,286.8 600.4,286.8 600.4,286.8 583.0,286.8"/>
  <polygon class="pl" points="604.7,285.4 604.7,285.4 622.1,285.4 622.1,285.4 604.7,285.4"/>
  <polygon class="pl" points="626.5,284.6 626.5,284.6 643.9,284.6 643.9,284.6 626.5,284.6"/>
  <polygon class="pl" points="648.3,292.6 648.3,292.6 665.7,292.6 665.7,292.6 648.3,292.6"/>
  <polygon class="pl" points="670.0,295.3 670.0,295.3 687.4,295.3 687.4,295.3 670.0,295.3"/>
  <polygon class="pl" points="691.8,293.5 691.8,293.6 709.2,293.6 709.2,293.5 691.8,293.5"/>
  <polygon class="pl" points="713.5,293.0 713.5,293.0 730.9,293.0 730.9,293.0 713.5,293.0"/>
  <polygon class="pl" points="735.3,291.5 735.3,291.5 752.7,291.5 752.7,291.5 735.3,291.5"/>
  <polygon class="pl" points="757.1,290.4 757.1,290.4 774.5,290.4 774.5,290.4 757.1,290.4"/>
  <polygon class="pl" points="778.8,288.3 778.8,288.3 796.2,288.3 796.2,288.3 778.8,288.3"/>
  <polygon class="pl" points="800.6,290.1 800.6,290.1 818.0,290.1 818.0,290.1 800.6,290.1"/>
  <polygon class="pl" points="822.3,287.5 822.3,287.6 839.7,287.6 839.7,287.5 822.3,287.5"/>
  <polygon class="pl" points="844.1,295.1 844.1,295.1 861.5,295.1 861.5,295.1 844.1,295.1"/>
  <polygon class="pl" points="865.9,298.3 865.9,298.3 883.3,298.3 883.3,298.3 865.9,298.3"/>
  <polygon class="pl" points="887.6,295.0 887.6,295.0 905.0,295.0 905.0,295.0 887.6,295.0"/>
</g>
<g stroke="#000" stroke-width="0.90" fill="#845F48"  clip-path="url(#axis_clip)">
  <polygon class="pl" points="147.8,91.9 147.8,92.6 165.2,92.6 165.2,91.9 147.8,91.9"/>
  <polygon class="pl" points="169.5,73.4 169.5,74.2 186.9,74.2 186.9,73.4 169.5,73.4"/>
  <polygon class="pl" points="191.3,221.3 191.3,221.7 208.7,221.7 208.7,221.3 191.3,221.3"/>
  <polygon class="pl" points="213.1,264.4 213.1,264.6 230.5,264.6 230.5,264.4 213.1,264.4"/>
  <polygon class="pl" points="234.8,269.3 234.8,269.5 252.2,269.5 252.2,269.3 234.8,269.3"/>
  <polygon class="pl" points="256.6,275.7 256.6,275.8 274.0,275.8 274.0,275.7 256.6,275.7"/>
  <polygon class="pl" points="278.3,269.6 278.3,269.9 295.7,269.9 295.7,269.6 278.3,269.6"/>
  <polygon class="pl" points="300.1,274.7 300.1,275.0 317.5,275.0 317.5,274.7 300.1,274.7"/>
  <polygon class="pl" points="321.9,267.3 321.9,267.6 339.3,267.6 339.3,267.3 321.9,267.3"/>
  <polygon class="pl" points="343.6,289.9 343.6,290.3 361.0,290.3 361.0,289.9 343.6,289.9"/>
  <polygon class="pl" points="365.4,304.2 365.4,304.5 382.8,304.5 382.8,304.2 365.4,304.2"/>
  <polygon class="pl" points="387.1,297.5 387.1,297.9 404.5,297.9 404.5,297.5 387.1,297.5"/>
  <polygon class="pl" points="408.9,296.9 408.9,297.3 426.3,297.3 426.3,296.9 408.9,296.9"/>
  <polygon class="pl" points="430.7,297.0 430.7,297.3 448.1,297.3 448.1,297.0 430.7,297.0"/>
  <polygon class="pl" points="452.4,291.7 452.4,292.0 469.8,292.0 469.8,291.7 452.4,291.7"/>
  <polygon class="pl" points="474.2,286.3 474.2,286.8 491.6,286.8 491.6,286.3 474.2,286.3"/>
  <polygon class="pl" points="495.9,283.3 495.9,283.7 513.3,283.7 513.3,283.3 495.9,283.3"/>
  <polygon class="pl" points="517.7,272.0 517.7,272.4 535.1,272.4 535.1,272.0 517.7,272.0"/>
  <polygon class="pl" points="539.5,276.9 539.5,277.3 556.9,277.3 556.9,276.9 539.5,276.9"/>
  <polygon class="pl" points="561.2,295.5 561.2,295.9 578.6,295.9 578.6,295.5 561.2,295.5"/>
  <polygon class="pl" points="583.0,286.8 583.0,287.1 600.4,287.1 600.4,286.8 583.0,286.8"/>
  <polygon class="pl" points="604.7,285.4 604.7,285.8 622.1,285.8 622.1,285.4 604.7,285.4"/>
  <polygon class="pl" points="626.5,284.6 626.5,284.9 643.9,284.9 643.9,284.6 626.5,284.6"/>
  <polygon class="pl" points="648.3,292.6 648.3,293.0 665.7,293.0 665.7,292.6 648.3,292.6"/>
  <polygon class="pl" points="670.0,295.3 670.0,296.0 687.4,296.0 687.4,295.3 670.0,295.3"/>
  <polygon class="pl" points="691.8,293.6 691.8,294.1 709.2,294.1 709.2,293.6 691.8,293.6"/>
  <polygon class="pl" points="713.5,293.0 713.5,293.5 730.9,293.5 730.9,293.0 713.5,293.0"/>
  <polygon class="pl" points="735.3,291.5 735.3,291.9 752.7,291.9 752.7,291.5 735.3,291.5"/>
  <polygon class="pl" points="757.1,290.4 757.1,290.9 774.5,290.9 774.5,290.4 757.1,290.4"/>
  <polygon class="pl" points="778.8,288.3 778.8,288.9 796.2,288.9 796.2,288.3 778.8,288.3"/>
  <polygon class="pl" points="800.6,290.1 800.6,291.0 818.0,291.0 818.0,290.1 800.6,290.1"/>
  <polygon class="pl" points="822.3,287.6 822.3,288.7 839.7,288.7 839.7,287.6 822.3,287.6"/>
  <polygon class="pl" points="844.1,295.1 844.1,295.7 861.5,295.7 861.5,295.1 844.1,295.1"/>
  <polygon class="pl" points="865.9,298.3 865.9,298.9 883.3,298.9 883.3,298.3 865.9,298.3"/>
  <polygon class="pl" points="887.6,295.0 887.6,295.7 905.0,295.7 905.0,295.0 887.6,295.0"/>
</g>
<g stroke="#000" stroke-width="0.90" fill="#4A89E8"  clip-path="url(#axis_clip)">
  <polygon class="pl" points="147.8,92.6 147.8,122.9 165.2,122.9 165.2,92.6 147.8,92.6"/>
  <polygon class="pl" points="169.5,74.2 169.5,104.4 186.9,104.4 186.9,74.2 169.5,74.2"/>
  <polygon class="pl" points="191.3,221.7 191.3,238.0 208.7,238.0 208.7,221.7 191.3,221.7"/>
  <polygon class="pl" points="213.1,264.6 213.1,272.4 230.5,272.4 230.5,264.6 213.1,264.6"/>
  <polygon class="pl" points="234.8,269.5 234.8,280.5 252.2,280.5 252.2,269.5 234.8,269.5"/>
  <polygon class="pl" points="256.6,275.8 256.6,288.7 274.0,288.7 274.0,275.8 256.6,275.8"/>
  <polygon class="pl" points="278.3,269.9 278.3,284.2 295.7,284.2 295.7,269.9 278.3,269.9"/>
  <polygon class="pl" points="300.1,275.0 300.1,288.2 317.5,288.2 317.5,275.0 300.1,275.0"/>
  <polygon class="pl" points="321.9,267.6 321.9,282.0 339.3,282.0 339.3,267.6 321.9,267.6"/>
  <polygon class="pl" points="343.6,290.3 343.6,303.4 361.0,303.4 361.0,290.3 343.6,290.3"/>
  <polygon class="pl" points="365.4,304.5 365.4,317.1 382.8,317.1 382.8,304.5 365.4,304.5"/>
  <polygon class="pl" points="387.1,297.9 387.1,311.1 404.5,311.1 404.5,297.9 387.1,297.9"/>
  <polygon class="pl" points="408.9,297.3 408.9,310.8 426.3,310.8 426.3,297.3 408.9,297.3"/>
  <polygon class="pl" points="430.7,297.3 430.7,310.9 448.1,310.9 448.1,297.3 430.7,297.3"/>
  <polygon class="pl" points="452.4,292.0 452.4,305.3 469.8,305.3 469.8,292.0 452.4,292.0"/>
  <polygon class="pl" points="474.2,286.8 474.2,298.2 491.6,298.2 491.6,286.8 474.2,286.8"/>
  <polygon class="pl" points="495.9,283.7 495.9,297.7 513.3,297.7 513.3,283.7 495.9,283.7"/>
  <polygon class="pl" points="517.7,272.4 517.7,295.5 535.1,295.5 535.1,272.4 517.7,272.4"/>
  <polygon class="pl" points="539.5,277.3 539.5,296.6 556.9,296.6 556.9,277.3 539.5,277.3"/>
  <polygon class="pl" points="561.2,295.9 561.2,306.8 578.6,306.8 578.6,295.9 561.2,295.9"/>
  <polygon class="pl" points="583.0,287.1 583.0,298.3 600.4,298.3 600.4,287.1 583.0,287.1"/>
  <polygon class="pl" points="604.7,285.8 604.7,305.4 622.1,305.4 622.1,285.8 604.7,285.8"/>
  <polygon class="pl" points="626.5,284.9 626.5,305.6 643.9,305.6 643.9,284.9 626.5,284.9"/>
  <polygon class="pl" points="648.3,293.0 648.3,311.1 665.7,311.1 665.7,293.0 648.3,293.0"/>
  <polygon class="pl" points="670.0,296.0 670.0,314.9 687.4,314.9 687.4,296.0 670.0,296.0"/>
  <polygon class="pl" points="691.8,294.1 691.8,315.4 709.2,315.4 709.2,294.1 691.8,294.1"/>
  <polygon class="pl" points="713.5,293.5 713.5,312.7 730.9,312.7 730.9,293.5 713.5,293.5"/>
  <polygon class="pl" points="735.3,291.9 735.3,313.1 752.7,313.1 752.7,291.9 735.3,291.9"/>
  <polygon class="pl" points="757.1,290.9 757.1,310.0 774.5,310.0 774.5,290.9 757.1,290.9"/>
  <polygon class="pl" points="778.8,288.9 778.8,310.0 796.2,310.0 796.2,288.9 778.8,288.9"/>
  <polygon class="pl" points="800.6,291.0 800.6,310.8 818.0,310.8 818.0,291.0 800.6,291.0"/>
  <polygon class="pl" points="822.3,288.7 822.3,307.1 839.7,307.1 839.7,288.7 822.3,288.7"/>
  <polygon class="pl" points="844.1,295.7 844.1,310.4 861.5,310.4 861.5,295.7 844.1,295.7"/>
  <polygon class="pl" points="865.9,298.9 865.9,311.8 883.3,311.8 883.3,298.9 865.9,298.9"/>
  <polygon class="pl" points="887.6,295.7 887.6,310.9 905.0,310.9 905.0,295.7 887.6,295.7"/>
</g>
<g stroke="#000" stroke-width="0.90" fill="#FF7F61"  clip-path="url(#axis_clip)">
  <polygon class="pl" points="147.8,122.9 147.8,409.4 165.2,409.4 165.2,122.9 147.8,122.9"/>
  <polygon class="pl" points="169.5,104.4 169.5,409.4 186.9,409.4 186.9,104.4 169.5,104.4"/>
  <polygon class="pl" points="191.3,238.0 191.3,409.4 208.7,409.4 208.7,238.0 191.3,238.0"/>
  <polygon class="pl" points="213.1,272.4 213.1,409.4 230.5,409.4 230.5,272.4 213.1,272.4"/>
  <polygon class="pl" points="234.8,280.5 234.8,409.4 252.2,409.4 252.2,280.5 234.8,280.5"/>
  <polygon class="pl" points="256.6,288.7 256.6,409.4 274.0,409.4 274.0,288.7 256.6,288.7"/>
  <polygon class="pl" points="278.3,284.2 278.3,409.4 295.7,409.4 295.7,284.2 278.3,284.2"/>
  <polygon class="pl" points="300.1,288.2 300.1,409.4 317.5,409.4 317.5,288.2 300.1,288.2"/>
  <polygon class="pl" points="321.9,282.0 321.9,409.4 339.3,409.4 339.3,282.0 321.9,282.0"/>
  <polygon class="pl" points="343.6,303.4 343.6,409.4 361.0,409.4 361.0,303.4 343.6,303.4"/>
  <polygon class="pl" points="365.4,317.1 365.4,409.4 382.8,409.4 382.8,317.1 365.4,317.1"/>
  <polygon class="pl" points="387.1,311.1 387.1,409.4 404.5,409.4 404.5,311.1 387.1,311.1"/>
  <polygon class="pl" points="408.9,310.8 408.9,409.4 426.3,409.4 426.3,310.8 408.9,310.8"/>
  <polygon class="pl" points="430.7,310.9 430.7,409.4 448.1,409.4 448.1,310.9 430.7,310.9"/>
  <polygon class="pl" points="452.4,305.3 452.4,409.4 469.8,409.4 469.8,305.3 452.4,305.3"/>
  <polygon class="pl" points="474.2,298.2 474.2,409.4 491.6,409.4 491.6,298.2 474.2,298.2"/>
  <polygon class="pl" points="495.9,297.7 495.9,409.4 513.3,409.4 513.3,297.7 495.9,297.7"/>
  <polygon class="pl" points="517.7,295.5 517.7,409.4 535.1,409.4 535.1,295.5 517.7,295.5"/>
  <polygon class="pl" points="539.5,296.6 539.5,409.4 556.9,409.4 556.9,296.6 539.5,296.6"/>
  <polygon class="pl" points="561.2,306.8 561.2,409.4 578.6,409.4 578.6,306.8 561.2,306.8"/>
  <polygon class="pl" points="583.0,298.3 583.0,409.4 600.4,409.4 600.4,298.3 583.0,298.3"/>
  <polygon class="pl" points="604.7,305.4 604.7,409.4 622.1,409.4 622.1,305.4 604.7,305.4"/>
  <polygon class="pl" points="626.5,305.6 626.5,409.4 643.9,409.4 643.9,305.6 626.5,305.6"/>
  <polygon class="pl" points="648.3,311.1 648.3,409.4 665.7,409.4 665.7,311.1 648.3,311.1"/>
  <polygon class="pl" points="670.0,314.9 670.0,409.4 687.4,409.4 687.4,314.9 670.0,314.9"/>
  <polygon class="pl" points="691.8,315.4 691.8,409.4 709.2,409.4 709.2,315.4 691.8,315.4"/>
  <polygon class="pl" points="713.5,312.7 713.5,409.4 730.9,409.4 730.9,312.7 713.5,312.7"/>
  <polygon class="pl" points="735.3,313.1 735.3,409.4 752.7,409.4 752.7,313.1 735.3,313.1"/>
  <polygon class="pl" points="757.1,310.0 757.1,409.4 774.5,409.4 774.5,310.0 757.1,310.0"/>
  <polygon class="pl" points="778.8,310.0 778.8,409.4 796.2,409.4 796.2,310.0 778.8,310.0"/>
  <polygon class="pl" points="800.6,310.8 800.6,409.4 818.0,409.4 818.0,310.8 800.6,310.8"/>
  <polygon class="pl" points="822.3,307.1 822.3,409.4 839.7,409.4 839.7,307.1 822.3,307.1"/>
  <polygon class="pl" points="844.1,310.4 844.1,409.4 861.5,409.4 861.5,310.4 844.1,310.4"/>
  <polygon class="pl" points="865.9,311.8 865.9,409.4 883.3,409.4 883.3,311.8 865.9,311.8"/>
  <polygon class="pl" points="887.6,310.9 887.6,409.4 905.0,409.4 905.0,310.9 887.6,310.9"/>
</g>
<g stroke="#000" stroke-width="0.90" fill="#7FBF7F"  clip-path="url(#axis_clip)">
  <polygon class="pl" points="147.8,447.3 147.8,409.4 165.2,409.4 165.2,447.3 147.8,447.3"/>
  <polygon class="pl" points="169.5,457.4 169.5,409.4 186.9,409.4 186.9,457.4 169.5,457.4"/>
  <polygon class="pl" points="191.3,455.6 191.3,409.4 208.7,409.4 208.7,455.6 191.3,455.6"/>
  <polygon class="pl" points="213.1,468.3 213.1,409.4 230.5,409.4 230.5,468.3 213.1,468.3"/>
  <polygon class="pl" points="234.8,466.2 234.8,409.4 252.2,409.4 252.2,466.2 234.8,466.2"/>
  <polygon class="pl" points="256.6,453.1 256.6,409.4 274.0,409.4 274.0,453.1 256.6,453.1"/>
  <polygon class="pl" points="300.1,415.8 300.1,409.4 317.5,409.4 317.5,415.8 300.1,415.8"/>
  <polygon class="pl" points="321.9,486.0 321.9,409.4 339.3,409.4 339.3,486.0 321.9,486.0"/>
  <polygon class="pl" points="343.6,478.7 343.6,409.4 361.0,409.4 361.0,478.7 343.6,478.7"/>
  <polygon class="pl" points="365.4,498.7 365.4,409.4 382.8,409.4 382.8,498.7 365.4,498.7"/>
  <polygon class="pl" points="387.1,477.0 387.1,409.4 404.5,409.4 404.5,477.0 387.1,477.0"/>
  <polygon class="pl" points="408.9,461.5 408.9,409.4 426.3,409.4 426.3,461.5 408.9,461.5"/>
  <polygon class="pl" points="430.7,456.8 430.7,409.4 448.1,409.4 448.1,456.8 430.7,456.8"/>
  <polygon class="pl" points="452.4,449.3 452.4,409.4 469.8,409.4 469.8,449.3 452.4,449.3"/>
  <polygon class="pl" points="474.2,441.4 474.2,409.4 491.6,409.4 491.6,441.4 474.2,441.4"/>
  <polygon class="pl" points="495.9,433.5 495.9,409.4 513.3,409.4 513.3,433.5 495.9,433.5"/>
  <polygon class="pl" points="517.7,449.3 517.7,409.4 535.1,409.4 535.1,449.3 517.7,449.3"/>
  <polygon class="pl" points="539.5,455.2 539.5,409.4 556.9,409.4 556.9,455.2 539.5,455.2"/>
  <polygon class="pl" points="561.2,468.6 561.2,409.4 578.6,409.4 578.6,468.6 561.2,468.6"/>
  <polygon class="pl" points="583.0,508.2 583.0,409.4 600.4,409.4 600.4,508.2 583.0,508.2"/>
  <polygon class="pl" points="604.7,496.2 604.7,409.4 622.1,409.4 622.1,496.2 604.7,496.2"/>
  <polygon class="pl" points="626.5,490.4 626.5,409.4 643.9,409.4 643.9,490.4 626.5,490.4"/>
  <polygon class="pl" points="648.3,487.7 648.3,409.4 665.7,409.4 665.7,487.7 648.3,487.7"/>
  <polygon class="pl" points="670.0,479.8 670.0,409.4 687.4,409.4 687.4,479.8 670.0,479.8"/>
  <polygon class="pl" points="691.8,475.8 691.8,409.4 709.2,409.4 709.2,475.8 691.8,475.8"/>
  <polygon class="pl" points="713.5,471.4 713.5,409.4 730.9,409.4 730.9,471.4 713.5,471.4"/>
  <polygon class="pl" points="735.3,464.1 735.3,409.4 752.7,409.4 752.7,464.1 735.3,464.1"/>
  <polygon class="pl" points="757.1,465.4 757.1,409.4 774.5,409.4 774.5,465.4 757.1,465.4"/>
  <polygon class="pl" points="778.8,461.5 778.8,409.4 796.2,409.4 796.2,461.5 778.8,461.5"/>
  <polygon class="pl" points="800.6,463.5 800.6,409.4 818.0,409.4 818.0,463.5 800.6,463.5"/>
  <polygon class="pl" points="822.3,465.0 822.3,409.4 839.7,409.4 839.7,465.0 822.3,465.0"/>
  <polygon class="pl" points="844.1,469.7 844.1,409.4 861.5,409.4 861.5,469.7 844.1,469.7"/>
  <polygon class="pl" points="865.9,468.8 865.9,409.4 883.3,409.4 883.3,468.8 865.9,468.8"/>
  <polygon class="pl" points="887.6,482.3 887.6,409.4 905.0,409.4 905.0,482.3 887.6,482.3"/>
</g>
<polyline class="pl" points="156.5,129.8 178.2,121.3 200.0,267.5 221.8,323.2 243.5,326.1 265.3,319.2 287.0,263.3 308.8,281.1 330.6,343.8 352.3,359.2 374.1,393.5 395.8,365.1 417.6,348.9 439.4,344.3 461.1,331.5 482.9,318.2 504.6,307.3 526.4,311.8 548.2,322.6 569.9,354.6 591.7,385.5 613.4,372.1 635.2,365.5 657.0,370.9 678.7,365.7 700.5,359.9 722.2,354.9 744.0,346.1 765.8,346.4 787.5,340.3 809.3,344.1 831.0,343.1 852.8,355.3 874.6,357.7 896.3,367.9" stroke="#000" stroke-width="5.40" stroke-opacity="1.00" fill="none" clip-path="url(#axis_clip)"/>
<g class="pl" fill="#FFF" stroke="#000" stroke-width="0.900">
  <circle cx="178.2" cy="121.3" r="2.2" />
  <circle cx="200.0" cy="267.5" r="2.2" />
  <circle cx="221.8" cy="323.2" r="2.2" />
  <circle cx="243.5" cy="326.1" r="2.2" />
  <circle cx="265.3" cy="319.2" r="2.2" />
  <circle cx="287.0" cy="263.3" r="2.2" />
  <circle cx="308.8" cy="281.1" r="2.2" />
  <circle cx="330.6" cy="343.8" r="2.2" />
  <circle cx="352.3" cy="359.2" r="2.2" />
  <circle cx="395.8" cy="365.1" r="2.2" />
  <circle cx="417.6" cy="348.9" r="2.2" />
  <circle cx="439.4" cy="344.3" r="2.2" />
  <circle cx="461.1" cy="331.5" r="2.2" />
  <circle cx="482.9" cy="318.2" r="2.2" />
  <circle cx="504.6" cy="307.3" r="2.2" />
  <circle cx="526.4" cy="311.8" r="2.2" />
  <circle cx="548.2" cy="322.6" r="2.2" />
  <circle cx="569.9" cy="354.6" r="2.2" />
  <circle cx="613.4" cy="372.1" r="2.2" />
  <circle cx="635.2" cy="365.5" r="2.2" />
  <circle cx="657.0" cy="370.9" r="2.2" />
  <circle cx="678.7" cy="365.7" r="2.2" />
  <circle cx="700.5" cy="359.9" r="2.2" />
  <circle cx="722.2" cy="354.9" r="2.2" />
  <circle cx="744.0" cy="346.1" r="2.2" />
  <circle cx="765.8" cy="346.4" r="2.2" />
  <circle cx="787.5" cy="340.3" r="2.2" />
  <circle cx="831.0" cy="343.1" r="2.2" />
  <circle cx="852.8" cy="355.3" r="2.2" />
  <circle cx="874.6" cy="357.7" r="2.2" />
  <circle cx="896.3" cy="367.9" r="2.2" />
</g>
<g class="pl" fill="#FFF" stroke="#000" stroke-width="0.900">
  <circle cx="156.5" cy="129.8" r="5.4" />
  <circle cx="374.1" cy="393.5" r="5.4" />
  <circle cx="591.7" cy="385.5" r="5.4" />
  <circle cx="809.3" cy="344.1" r="5.4" />
</g>
<text transform="translate(145.6,47.2)" dy="0.0" font-size="27.00" fill="#808080" stroke="none">Annual CO<tspan dy="0.2em"><tspan style="font-size:70%">2</tspan></tspan><tspan dy="-0.2em"> </tspan>Emissions: Lithuania</text>
<text transform="translate(130.0,81.6)" dy="8.1" font-size="27.00" fill="#808080" stroke="none" text-anchor="end">CO<tspan dy="0.2em"><tspan style="font-size:70%">2</tspan></tspan><tspan dy="-0.2em"></tspan></text>
<text transform="translate(945.6,381.5)" dy="7.6" font-size="25.20" fill="#000" stroke="none">-85.1% since 1990</text>
<text transform="translate(945.6,356.5)" dy="7.6" font-size="25.20" fill="#FF7F61" stroke="none">Energy</text>
<text transform="translate(945.6,331.4)" dy="7.6" font-size="25.20" fill="#4A89E8" stroke="none">Industrial Processes</text>
<text transform="translate(945.6,306.4)" dy="7.6" font-size="25.20" fill="#845F48" stroke="none">Agriculture</text>
<text transform="translate(945.6,281.4)" dy="7.6" font-size="25.20" fill="#DBA746" stroke="none">Waste</text>
<text transform="translate(945.6,256.3)" dy="7.6" font-size="25.20" fill="#7FBF7F" stroke="none">LULUCF</text>
<text transform="translate(945.6,445.9)" dy="7.6" font-size="25.20" fill="#7FBF7F" stroke="none">LULUCF</text>
<polyline class="pl" points="910.8,367.9 912.4,367.9 913.8,368.1 915.2,368.3 916.4,368.6 917.6,368.9 918.8,369.4 919.8,369.9 920.8,370.4 921.7,371.0 922.7,371.6 923.5,372.3 924.4,372.9 925.2,373.6 926.0,374.3 926.8,375.0 927.6,375.7 928.4,376.4 929.3,377.1 930.1,377.8 931.1,378.4 932.0,379.0 933.0,379.5 934.0,380.0 935.2,380.4 936.4,380.8 937.6,381.1 939.0,381.3 940.4,381.5 942.0,381.5" stroke="#000" stroke-width="0.90" stroke-opacity="1.00" fill="none" />
<polyline class="pl" points="910.8,360.2 912.4,360.1 913.8,360.1 915.2,360.0 916.4,360.0 917.6,359.9 918.8,359.8 919.8,359.6 920.8,359.5 921.7,359.3 922.7,359.1 923.5,359.0 924.4,358.8 925.2,358.6 926.0,358.4 926.8,358.2 927.6,358.0 928.4,357.8 929.3,357.7 930.1,357.5 931.1,357.3 932.0,357.2 933.0,357.0 934.0,356.9 935.2,356.8 936.4,356.7 937.6,356.6 939.0,356.5 940.4,356.5 942.0,356.5" stroke="#FF7F61" stroke-width="0.90" stroke-opacity="1.00" fill="none" />
<polyline class="pl" points="910.8,303.3 912.4,303.4 913.8,303.7 915.2,304.1 916.4,304.8 917.6,305.5 918.8,306.4 919.8,307.4 920.8,308.5 921.7,309.7 922.7,311.0 923.5,312.4 924.4,313.8 925.2,315.2 926.0,316.6 926.8,318.1 927.6,319.5 928.4,321.0 929.3,322.4 930.1,323.7 931.1,325.0 932.0,326.2 933.0,327.3 934.0,328.3 935.2,329.2 936.4,330.0 937.6,330.6 939.0,331.1 940.4,331.3 942.0,331.4" stroke="#4A89E8" stroke-width="0.90" stroke-opacity="1.00" fill="none" />
<polyline class="pl" points="910.8,295.4 912.4,295.4 913.8,295.5 915.2,295.7 916.4,295.9 917.6,296.2 918.8,296.6 919.8,297.0 920.8,297.4 921.7,297.9 922.7,298.4 923.5,298.9 924.4,299.5 925.2,300.0 926.0,300.6 926.8,301.2 927.6,301.7 928.4,302.3 929.3,302.8 930.1,303.4 931.1,303.9 932.0,304.3 933.0,304.8 934.0,305.2 935.2,305.5 936.4,305.8 937.6,306.1 939.0,306.2 940.4,306.4 942.0,306.4" stroke="#845F48" stroke-width="0.90" stroke-opacity="1.00" fill="none" />
<polyline class="pl" points="910.8,295.0 912.4,294.9 913.8,294.8 915.2,294.6 916.4,294.3 917.6,293.9 918.8,293.5 919.8,293.0 920.8,292.4 921.7,291.9 922.7,291.2 923.5,290.6 924.4,289.9 925.2,289.2 926.0,288.5 926.8,287.8 927.6,287.1 928.4,286.4 929.3,285.7 930.1,285.1 931.1,284.5 932.0,283.9 933.0,283.4 934.0,282.9 935.2,282.4 936.4,282.1 937.6,281.8 939.0,281.5 940.4,281.4 942.0,281.4" stroke="#DBA746" stroke-width="0.90" stroke-opacity="1.00" fill="none" />
<polyline class="pl" points="910.8,291.8 912.4,291.7 913.8,291.3 915.2,290.8 916.4,290.0 917.6,289.0 918.8,287.9 919.8,286.6 920.8,285.2 921.7,283.7 922.7,282.1 923.5,280.4 924.4,278.6 925.2,276.8 926.0,275.0 926.8,273.2 927.6,271.3 928.4,269.5 929.3,267.8 930.1,266.1 931.1,264.5 932.0,262.9 933.0,261.5 934.0,260.2 935.2,259.1 936.4,258.2 937.6,257.4 939.0,256.8 940.4,256.4 942.0,256.3" stroke="#7FBF7F" stroke-width="0.90" stroke-opacity="1.00" fill="none" />
<text transform="translate(160.0,666.1)" font-size="19.80" font-family="Helvetica" fill="#BFBFBF" stroke="none" xml:space="preserve">CICERO   &#9679;   Data: UNFCCC (2026)</text>
<g>
  <rect x="123.0" y="651.4" width="34" height="17" fill="#FFF" stroke="none" opacity="0.01"/>
  <g transform="translate(124.0,652.4) scale(0.24)">
  <g><circle fill="#FFF" cx="37.79" cy="28.5" r="28.84"/>
     <circle fill="none" cx="37.79" cy="28.5" r="28.84" stroke="#BFBFBF" stroke-width="5.5"/>
     <path fill="#BFBFBF" d="M37.16,23.19 l-4.29,2.23c-0.458-0.951-1.02-1.62-1.69-2c-0.667-0.38-1.29-0.571-1.86-0.571c-2.86,0-4.29,1.89-4.29,5.66 c0,1.71,0.36,3.08,1.09,4.11c0.724,1.03,1.79,1.54,3.2,1.54c1.87,0,3.18-0.915,3.94-2.74l3.94,2 c-0.838,1.56-2,2.79-3.49,3.69c-1.48,0.896-3.12,1.34-4.91,1.34c-2.86,0-5.16-0.875-6.92-2.63 c-1.75-1.75-2.63-4.19-2.63-7.31c0-3.05,0.886-5.47,2.66-7.26c1.77-1.79,4.01-2.69,6.72-2.69 C32.6,18.56,35.44,20.1,37.16,23.19z
              M55.61,23.19l-4.23,2.23c-0.457-0.951-1.02-1.62-1.69-2 c-0.668-0.38-1.31-0.571-1.91-0.571c-2.86,0-4.29,1.89-4.29,5.66c0,1.71,0.363,3.08,1.09,4.11 c0.723,1.03,1.79,1.54,3.2,1.54c1.87,0,3.18-0.915,3.94-2.74l4,2c-0.875,1.56-2.06,2.79-3.54,3.69 c-1.49,0.9-3.11,1.34-4.86,1.34c-2.9,0-5.21-0.875-6.94-2.63c-1.74-1.75-2.6-4.19-2.6-7.31 c0-3.05,0.885-5.47,2.66-7.26c1.77-1.79,4.01-2.69,6.71-2.69C51.12,18.56,53.944,20.1,55.61,23.19z"/>
  </g></g>
  <g transform="translate(140.2,652.4) scale(0.24)">
  <g><circle fill="#FFF" cx="37.79" cy="28.5" r="28.84"/>
     <circle fill="none" cx="37.79" cy="28.5" r="28.84" stroke="#BFBFBF" stroke-width="5.5"/>
     <path fill="#BFBFBF" d="M46.129,20.557v13.085h-3.656v15.542h-9.944V33.643h-3.656V20.557 c0-0.572,0.2-1.057,0.599-1.457c0.401-0.399,0.887-0.6,1.457-0.6h13.144c0.533,0,1.01,0.2,1.428,0.6 C45.918,19.5,46.129,19.986,46.129,20.557z
              M33.042,12.329c0-3.008,1.485-4.514,4.458-4.514s4.457,1.504,4.457,4.514 c0,2.971-1.486,4.457-4.457,4.457S33.042,15.3,33.042,12.329z"/>
  </g></g>
</g>
</g>
</svg>
