<svg version="1.1" xmlns="http://www.w3.org/2000/svg" xmlns:xlink="http://www.w3.org/1999/xlink" width="100%" height="100%" viewBox="0 0 1200.000 674.916">
<title>Kaya decomposition of emissions growth: Lithuania</title>
<style type="text/css">
  #main {font-family:Helvetica,Arial,sans-serif; font-size:27.00px;
         fill-opacity:1; fill:#000000; stroke:none; stroke-linejoin:round; stroke-linecap:round; stroke-width:1.00;}
  .marker {stroke-opacity:0;fill-opacity:0;}
  .marker:hover {stroke-opacity:0.5; fill-opacity:1;}
  .ticklabel {font-size:27.00px;fill:#808080;stroke:none;font-family:Helvetica}
  .ytl {text-anchor:end;}
  .dp1 {pointer-events:none;font-size:70%;text-anchor:middle;fill:#000000;}
  .dp2 {pointer-events:none;font-size:70%;text-anchor:middle;fill:#FFFFFF;}
  .numtip {pointer-events:none;}
  .cc {opacity:0.25;}
.dl_fe {background-color:#FDFFDF;display:flex;margin:auto;align-items:center}
.dl_fe_p {font-size:20px;text-align:center;margin:3px}
.dl_el {display:none;pointer-events:none;}
.cc:hover + .dl_el {display:block;}
text:hover + .dl_el {display:block;}
</style>
<defs>
  <clipPath id="axis_clip"><rect x="145.8" y="54.2" width="761.2" height="532.8" /></clipPath>
  <path id="line_x" d="M 145.600,0 h 761.600" stroke="#262626" stroke-opacity="0.15" stroke-width="1.00"/>
  <path id="tick_y" d="M 145.600,0 h -6.000" stroke="#808080" stroke-width="0.90"/>
  <path id="tick_x" d="M 0,587.177 v 6.000" stroke="#808080" stroke-width="0.90"/>
</defs>
<g id="main">
<use xlink:href="#line_x" transform="translate(0,587.2)"/>
<use xlink:href="#line_x" transform="translate(0,320.6)"/>
<use xlink:href="#line_x" transform="translate(0,54.0)"/>
<use xlink:href="#tick_y" transform="translate(0,587.2)"/>
<use xlink:href="#tick_y" transform="translate(0,320.6)"/>
<use xlink:href="#tick_y" transform="translate(0,54.0)"/>
<use xlink:href="#tick_x" transform="translate(156.8,0)"/>
<use xlink:href="#tick_x" transform="translate(268.8,0)"/>
<use xlink:href="#tick_x" transform="translate(380.8,0)"/>
<use xlink:href="#tick_x" transform="translate(492.8,0)"/>
<use xlink:href="#tick_x" transform="translate(604.8,0)"/>
<use xlink:href="#tick_x" transform="translate(716.8,0)"/>
<use xlink:href="#tick_x" transform="translate(828.8,0)"/>
<polyline points="145.6,53.993 145.6,587.177 907.2,587.177" stroke="#808080" stroke-width="0.90" fill="none"/>
<text class="ticklabel xtl" transform="translate(156.8,629.0)" text-anchor="middle">1990</text>
<text class="ticklabel xtl" transform="translate(268.8,629.0)" text-anchor="middle">1995</text>
<text class="ticklabel xtl" transform="translate(380.8,629.0)" text-anchor="middle">2000</text>
<text class="ticklabel xtl" transform="translate(492.8,629.0)" text-anchor="middle">2005</text>
<text class="ticklabel xtl" transform="translate(604.8,629.0)" text-anchor="middle">2010</text>
<text class="ticklabel xtl" transform="translate(716.8,629.0)" text-anchor="middle">2015</text>
<text class="ticklabel xtl" transform="translate(828.8,629.0)" text-anchor="middle">2020</text>
<text class="ticklabel ytl" transform="translate(128.8,595.3)">-50</text>
<text class="ticklabel ytl" transform="translate(128.8,328.7)">0</text>
<text class="ticklabel ytl" transform="translate(128.8,62.1)">50 %/yr</text>
<g stroke="#000" stroke-width="0.90" fill="#808080"  clip-path="url(#axis_clip)">
  <polygon points="192.6,277.3 192.6,320.6 210.6,320.6 210.6,277.3 192.6,277.3"/>
  <polygon points="215.0,311.7 215.0,320.6 233.0,320.6 233.0,311.7 215.0,311.7"/>
  <polygon points="819.8,320.6 819.8,320.6 837.8,320.6 837.8,320.6 819.8,320.6"/>
</g>
<g stroke="#000" stroke-width="0.90" fill="#8DA0CB"  clip-path="url(#axis_clip)">
  <polygon points="170.2,254.3 170.2,256.7 188.2,256.7 188.2,254.3 170.2,254.3"/>
  <polygon points="237.4,244.1 237.4,308.8 255.4,308.8 255.4,244.1 237.4,244.1"/>
  <polygon points="304.6,254.0 304.6,274.7 322.6,274.7 322.6,254.0 304.6,254.0"/>
  <polygon points="349.4,305.3 349.4,320.6 367.4,320.6 367.4,305.3 349.4,305.3"/>
  <polygon points="461.4,268.3 461.4,287.1 479.4,287.1 479.4,268.3 461.4,268.3"/>
  <polygon points="483.8,199.9 483.8,277.8 501.8,277.8 501.8,199.9 483.8,199.9"/>
  <polygon points="506.2,240.1 506.2,281.1 524.2,281.1 524.2,240.1 506.2,240.1"/>
  <polygon points="595.8,65.0 595.8,311.8 613.8,311.8 613.8,65.0 595.8,65.0"/>
  <polygon points="640.6,297.6 640.6,301.6 658.6,301.6 658.6,297.6 640.6,297.6"/>
  <polygon points="663.0,293.3 663.0,300.1 681.0,300.1 681.0,293.3 663.0,293.3"/>
  <polygon points="685.4,294.8 685.4,301.7 703.4,301.7 703.4,294.8 685.4,294.8"/>
  <polygon points="797.4,284.0 797.4,296.2 815.4,296.2 815.4,284.0 797.4,284.0"/>
  <polygon points="842.2,279.9 842.2,292.4 860.2,292.4 860.2,279.9 842.2,279.9"/>
  <polygon points="864.6,310.4 864.6,310.8 882.6,310.8 882.6,310.4 864.6,310.4"/>
</g>
<g stroke="#000" stroke-width="0.90" fill="#66C2A5"  clip-path="url(#axis_clip)">
  <polygon points="147.8,306.4 147.8,320.6 165.8,320.6 165.8,306.4 147.8,306.4"/>
  <polygon points="170.2,256.7 170.2,320.6 188.2,320.6 188.2,256.7 170.2,256.7"/>
  <polygon points="259.8,246.5 259.8,320.6 277.8,320.6 277.8,246.5 259.8,246.5"/>
  <polygon points="282.2,275.2 282.2,294.6 300.2,294.6 300.2,275.2 282.2,275.2"/>
  <polygon points="394.2,241.3 394.2,284.2 412.2,284.2 412.2,241.3 394.2,241.3"/>
  <polygon points="416.6,276.1 416.6,284.6 434.6,284.6 434.6,276.1 416.6,276.1"/>
  <polygon points="573.4,277.6 573.4,320.6 591.4,320.6 591.4,277.6 573.4,277.6"/>
  <polygon points="707.8,295.5 707.8,309.8 725.8,309.8 725.8,295.5 707.8,295.5"/>
  <polygon points="752.6,291.5 752.6,296.2 770.6,296.2 770.6,291.5 752.6,291.5"/>
</g>
<g stroke="#000" stroke-width="0.90" fill="#FC8D62"  clip-path="url(#axis_clip)">
  <polygon points="237.4,308.8 237.4,320.6 255.4,320.6 255.4,308.8 237.4,308.8"/>
  <polygon points="282.2,294.6 282.2,320.6 300.2,320.6 300.2,294.6 282.2,294.6"/>
  <polygon points="304.6,274.7 304.6,320.6 322.6,320.6 322.6,274.7 304.6,274.7"/>
  <polygon points="327.0,280.7 327.0,320.6 345.0,320.6 345.0,280.7 327.0,280.7"/>
  <polygon points="371.8,302.4 371.8,320.6 389.8,320.6 389.8,302.4 371.8,302.4"/>
  <polygon points="394.2,284.2 394.2,320.6 412.2,320.6 412.2,284.2 394.2,284.2"/>
  <polygon points="416.6,284.6 416.6,320.6 434.6,320.6 434.6,284.6 416.6,284.6"/>
  <polygon points="439.0,264.2 439.0,320.6 457.0,320.6 457.0,264.2 439.0,264.2"/>
  <polygon points="461.4,287.1 461.4,320.6 479.4,320.6 479.4,287.1 461.4,287.1"/>
  <polygon points="483.8,277.8 483.8,320.6 501.8,320.6 501.8,277.8 483.8,277.8"/>
  <polygon points="506.2,281.1 506.2,320.6 524.2,320.6 524.2,281.1 506.2,281.1"/>
  <polygon points="528.6,261.4 528.6,320.6 546.6,320.6 546.6,261.4 528.6,261.4"/>
  <polygon points="551.0,308.1 551.0,320.6 569.0,320.6 569.0,308.1 551.0,308.1"/>
  <polygon points="595.8,311.8 595.8,320.6 613.8,320.6 613.8,311.8 595.8,311.8"/>
  <polygon points="618.2,288.4 618.2,320.6 636.2,320.6 636.2,288.4 618.2,288.4"/>
  <polygon points="640.6,301.6 640.6,320.6 658.6,320.6 658.6,301.6 640.6,301.6"/>
  <polygon points="663.0,300.1 663.0,320.6 681.0,320.6 681.0,300.1 663.0,300.1"/>
  <polygon points="685.4,301.7 685.4,320.6 703.4,320.6 703.4,301.7 685.4,301.7"/>
  <polygon points="707.8,309.8 707.8,320.6 725.8,320.6 725.8,309.8 707.8,309.8"/>
  <polygon points="730.2,308.6 730.2,320.6 748.2,320.6 748.2,308.6 730.2,308.6"/>
  <polygon points="752.6,296.2 752.6,320.6 770.6,320.6 770.6,296.2 752.6,296.2"/>
  <polygon points="775.0,299.3 775.0,320.6 793.0,320.6 793.0,299.3 775.0,299.3"/>
  <polygon points="797.4,296.2 797.4,320.6 815.4,320.6 815.4,296.2 797.4,296.2"/>
  <polygon points="842.2,292.4 842.2,320.6 860.2,320.6 860.2,292.4 842.2,292.4"/>
  <polygon points="864.6,310.8 864.6,320.6 882.6,320.6 882.6,310.8 864.6,310.8"/>
  <polygon points="887.0,306.8 887.0,320.6 905.0,320.6 905.0,306.8 887.0,306.8"/>
</g>
<g stroke="#000" stroke-width="0.90" fill="#808080"  clip-path="url(#axis_clip)">
  <polygon points="147.8,349.5 147.8,349.0 165.8,349.0 165.8,349.5 147.8,349.5"/>
  <polygon points="170.2,355.8 170.2,352.2 188.2,352.2 188.2,355.8 170.2,355.8"/>
  <polygon points="237.4,415.1 237.4,404.3 255.4,404.3 255.4,415.1 237.4,415.1"/>
  <polygon points="259.8,418.6 259.8,408.3 277.8,408.3 277.8,418.6 259.8,418.6"/>
  <polygon points="282.2,343.4 282.2,342.4 300.2,342.4 300.2,343.4 282.2,343.4"/>
  <polygon points="304.6,405.3 304.6,397.3 322.6,397.3 322.6,405.3 304.6,405.3"/>
  <polygon points="327.0,331.2 327.0,330.4 345.0,330.4 345.0,331.2 327.0,331.2"/>
  <polygon points="349.4,420.6 349.4,418.9 367.4,418.9 367.4,420.6 349.4,420.6"/>
  <polygon points="371.8,403.6 371.8,401.6 389.8,401.6 389.8,403.6 371.8,403.6"/>
  <polygon points="394.2,364.6 394.2,361.2 412.2,361.2 412.2,364.6 394.2,364.6"/>
  <polygon points="416.6,362.0 416.6,359.3 434.6,359.3 434.6,362.0 416.6,362.0"/>
  <polygon points="439.0,377.2 439.0,373.0 457.0,373.0 457.0,377.2 439.0,377.2"/>
  <polygon points="461.4,349.4 461.4,347.9 479.4,347.9 479.4,349.4 461.4,349.4"/>
  <polygon points="483.8,415.2 483.8,402.1 501.8,402.1 501.8,415.2 483.8,415.2"/>
  <polygon points="506.2,388.3 506.2,381.8 524.2,381.8 524.2,388.3 506.2,388.3"/>
  <polygon points="528.6,331.7 528.6,330.6 546.6,330.6 546.6,331.7 528.6,331.7"/>
  <polygon points="551.0,353.7 551.0,353.4 569.0,353.4 569.0,353.7 551.0,353.7"/>
  <polygon points="573.4,437.1 573.4,433.5 591.4,433.5 591.4,437.1 573.4,437.1"/>
  <polygon points="595.8,535.8 595.8,468.1 613.8,468.1 613.8,535.8 595.8,535.8"/>
  <polygon points="618.2,346.7 618.2,345.5 636.2,345.5 636.2,346.7 618.2,346.7"/>
  <polygon points="640.6,341.5 640.6,340.8 658.6,340.8 658.6,341.5 640.6,341.5"/>
  <polygon points="663.0,380.7 663.0,378.0 681.0,378.0 681.0,380.7 663.0,380.7"/>
  <polygon points="685.4,358.3 685.4,356.8 703.4,356.8 703.4,358.3 685.4,358.3"/>
  <polygon points="707.8,337.2 707.8,336.7 725.8,336.7 725.8,337.2 707.8,337.2"/>
  <polygon points="730.2,331.2 730.2,331.0 748.2,331.0 748.2,331.2 730.2,331.2"/>
  <polygon points="752.6,341.5 752.6,340.7 770.6,340.7 770.6,341.5 752.6,341.5"/>
  <polygon points="775.0,335.9 775.0,335.4 793.0,335.4 793.0,335.9 775.0,335.9"/>
  <polygon points="797.4,347.8 797.4,346.6 815.4,346.6 815.4,347.8 797.4,347.8"/>
  <polygon points="842.2,348.4 842.2,347.0 860.2,347.0 860.2,348.4 842.2,348.4"/>
  <polygon points="864.6,369.1 864.6,368.2 882.6,368.2 882.6,369.1 864.6,369.1"/>
  <polygon points="887.0,350.8 887.0,350.2 905.0,350.2 905.0,350.8 887.0,350.8"/>
</g>
<g stroke="#000" stroke-width="0.90" fill="#8DA0CB"  clip-path="url(#axis_clip)">
  <polygon points="147.8,349.0 147.8,340.9 165.8,340.9 165.8,349.0 147.8,349.0"/>
  <polygon points="192.6,599.2 192.6,535.7 210.6,535.7 210.6,599.2 192.6,599.2"/>
  <polygon points="215.0,450.3 215.0,439.5 233.0,439.5 233.0,450.3 215.0,450.3"/>
  <polygon points="259.8,408.3 259.8,331.7 277.8,331.7 277.8,408.3 259.8,408.3"/>
  <polygon points="282.2,342.4 282.2,320.6 300.2,320.6 300.2,342.4 282.2,342.4"/>
  <polygon points="327.0,330.4 327.0,321.1 345.0,321.1 345.0,330.4 327.0,330.4"/>
  <polygon points="371.8,401.6 371.8,396.0 389.8,396.0 389.8,401.6 371.8,401.6"/>
  <polygon points="394.2,361.2 394.2,320.6 412.2,320.6 412.2,361.2 394.2,361.2"/>
  <polygon points="416.6,359.3 416.6,320.6 434.6,320.6 434.6,359.3 416.6,359.3"/>
  <polygon points="439.0,373.0 439.0,350.6 457.0,350.6 457.0,373.0 439.0,373.0"/>
  <polygon points="528.6,330.6 528.6,323.7 546.6,323.7 546.6,330.6 528.6,330.6"/>
  <polygon points="551.0,353.4 551.0,340.8 569.0,340.8 569.0,353.4 551.0,353.4"/>
  <polygon points="573.4,433.5 573.4,398.5 591.4,398.5 591.4,433.5 573.4,433.5"/>
  <polygon points="618.2,345.5 618.2,332.0 636.2,332.0 636.2,345.5 618.2,345.5"/>
  <polygon points="707.8,336.7 707.8,320.6 725.8,320.6 725.8,336.7 707.8,336.7"/>
  <polygon points="730.2,331.0 730.2,320.6 748.2,320.6 748.2,331.0 730.2,331.0"/>
  <polygon points="752.6,340.7 752.6,320.6 770.6,320.6 770.6,340.7 752.6,340.7"/>
  <polygon points="775.0,335.4 775.0,327.6 793.0,327.6 793.0,335.4 775.0,335.4"/>
  <polygon points="819.8,327.7 819.8,324.3 837.8,324.3 837.8,327.7 819.8,327.7"/>
  <polygon points="887.0,350.2 887.0,324.0 905.0,324.0 905.0,350.2 887.0,350.2"/>
</g>
<g stroke="#000" stroke-width="0.90" fill="#66C2A5"  clip-path="url(#axis_clip)">
  <polygon points="192.6,535.7 192.6,398.5 210.6,398.5 210.6,535.7 192.6,535.7"/>
  <polygon points="215.0,439.5 215.0,380.1 233.0,380.1 233.0,439.5 215.0,439.5"/>
  <polygon points="237.4,404.3 237.4,320.6 255.4,320.6 255.4,404.3 237.4,404.3"/>
  <polygon points="304.6,397.3 304.6,320.6 322.6,320.6 322.6,397.3 304.6,397.3"/>
  <polygon points="327.0,321.1 327.0,320.6 345.0,320.6 345.0,321.1 327.0,321.1"/>
  <polygon points="349.4,418.9 349.4,326.7 367.4,326.7 367.4,418.9 349.4,418.9"/>
  <polygon points="371.8,396.0 371.8,320.6 389.8,320.6 389.8,396.0 371.8,396.0"/>
  <polygon points="439.0,350.6 439.0,320.6 457.0,320.6 457.0,350.6 439.0,350.6"/>
  <polygon points="461.4,347.9 461.4,320.6 479.4,320.6 479.4,347.9 461.4,347.9"/>
  <polygon points="483.8,402.1 483.8,320.6 501.8,320.6 501.8,402.1 483.8,402.1"/>
  <polygon points="506.2,381.8 506.2,320.6 524.2,320.6 524.2,381.8 506.2,381.8"/>
  <polygon points="528.6,323.7 528.6,320.6 546.6,320.6 546.6,323.7 528.6,323.7"/>
  <polygon points="551.0,340.8 551.0,320.6 569.0,320.6 569.0,340.8 551.0,340.8"/>
  <polygon points="595.8,468.1 595.8,320.6 613.8,320.6 613.8,468.1 595.8,468.1"/>
  <polygon points="618.2,332.0 618.2,320.6 636.2,320.6 636.2,332.0 618.2,332.0"/>
  <polygon points="640.6,340.8 640.6,320.6 658.6,320.6 658.6,340.8 640.6,340.8"/>
  <polygon points="663.0,378.0 663.0,320.6 681.0,320.6 681.0,378.0 663.0,378.0"/>
  <polygon points="685.4,356.8 685.4,320.6 703.4,320.6 703.4,356.8 685.4,356.8"/>
  <polygon points="730.2,320.6 730.2,320.6 748.2,320.6 748.2,320.6 730.2,320.6"/>
  <polygon points="775.0,327.6 775.0,320.6 793.0,320.6 793.0,327.6 775.0,327.6"/>
  <polygon points="797.4,346.6 797.4,320.6 815.4,320.6 815.4,346.6 797.4,346.6"/>
  <polygon points="819.8,324.3 819.8,322.7 837.8,322.7 837.8,324.3 819.8,324.3"/>
  <polygon points="842.2,347.0 842.2,320.6 860.2,320.6 860.2,347.0 842.2,347.0"/>
  <polygon points="864.6,368.2 864.6,320.6 882.6,320.6 882.6,368.2 864.6,368.2"/>
  <polygon points="887.0,324.0 887.0,320.6 905.0,320.6 905.0,324.0 887.0,324.0"/>
</g>
<g stroke="#000" stroke-width="0.90" fill="#FC8D62"  clip-path="url(#axis_clip)">
  <polygon points="147.8,340.9 147.8,320.6 165.8,320.6 165.8,340.9 147.8,340.9"/>
  <polygon points="170.2,352.2 170.2,320.6 188.2,320.6 188.2,352.2 170.2,352.2"/>
  <polygon points="192.6,398.5 192.6,320.6 210.6,320.6 210.6,398.5 192.6,398.5"/>
  <polygon points="215.0,380.1 215.0,320.6 233.0,320.6 233.0,380.1 215.0,380.1"/>
  <polygon points="259.8,331.7 259.8,320.6 277.8,320.6 277.8,331.7 259.8,331.7"/>
  <polygon points="349.4,326.7 349.4,320.6 367.4,320.6 367.4,326.7 349.4,326.7"/>
  <polygon points="573.4,398.5 573.4,320.6 591.4,320.6 591.4,398.5 573.4,398.5"/>
  <polygon points="819.8,322.7 819.8,320.6 837.8,320.6 837.8,322.7 819.8,322.7"/>
</g>
<g class="pl" fill="#000" stroke="#000" stroke-width="0.900">
  <circle cx="156.8" cy="335.3" r="5.4" />
  <circle cx="179.2" cy="289.5" r="5.4" />
  <circle cx="201.6" cy="555.9" r="5.4" />
  <circle cx="224.0" cy="441.4" r="5.4" />
  <circle cx="246.4" cy="338.6" r="5.4" />
  <circle cx="268.8" cy="344.5" r="5.4" />
  <circle cx="291.2" cy="298.0" r="5.4" />
  <circle cx="313.6" cy="338.7" r="5.4" />
  <circle cx="336.0" cy="291.3" r="5.4" />
  <circle cx="358.4" cy="405.3" r="5.4" />
  <circle cx="380.8" cy="385.4" r="5.4" />
  <circle cx="403.2" cy="285.3" r="5.4" />
  <circle cx="425.6" cy="317.5" r="5.4" />
  <circle cx="448.0" cy="320.9" r="5.4" />
  <circle cx="470.4" cy="297.1" r="5.4" />
  <circle cx="492.8" cy="294.5" r="5.4" />
  <circle cx="515.2" cy="307.8" r="5.4" />
  <circle cx="537.6" cy="272.5" r="5.4" />
  <circle cx="560.0" cy="341.3" r="5.4" />
  <circle cx="582.4" cy="394.1" r="5.4" />
  <circle cx="604.8" cy="280.2" r="5.4" />
  <circle cx="627.2" cy="314.5" r="5.4" />
  <circle cx="649.6" cy="318.5" r="5.4" />
  <circle cx="672.0" cy="353.4" r="5.4" />
  <circle cx="694.4" cy="332.5" r="5.4" />
  <circle cx="716.8" cy="312.2" r="5.4" />
  <circle cx="739.2" cy="319.3" r="5.4" />
  <circle cx="761.6" cy="312.4" r="5.4" />
  <circle cx="784.0" cy="314.6" r="5.4" />
  <circle cx="806.4" cy="311.2" r="5.4" />
  <circle cx="828.8" cy="327.6" r="5.4" />
  <circle cx="851.2" cy="307.8" r="5.4" />
  <circle cx="873.6" cy="358.9" r="5.4" />
  <circle cx="896.0" cy="337.0" r="5.4" />
</g>
<g stroke="#000" stroke-width="0.90" fill="#808080"  >
</g>
<g stroke="#000" stroke-width="0.90" fill="#8DA0CB"  >
  <polygon points="959.0,306.0 959.0,308.4 977.0,308.4 977.0,306.0 959.0,306.0"/>
</g>
<g stroke="#000" stroke-width="0.90" fill="#66C2A5"  >
</g>
<g stroke="#000" stroke-width="0.90" fill="#FC8D62"  >
  <polygon points="959.0,308.4 959.0,320.6 977.0,320.6 977.0,308.4 959.0,308.4"/>
</g>
<g stroke="#000" stroke-width="0.90" fill="#808080"  >
  <polygon points="959.0,348.6 959.0,345.5 977.0,345.5 977.0,348.6 959.0,348.6"/>
</g>
<g stroke="#000" stroke-width="0.90" fill="#8DA0CB"  >
</g>
<g stroke="#000" stroke-width="0.90" fill="#66C2A5"  >
  <polygon points="959.0,345.5 959.0,320.6 977.0,320.6 977.0,345.5 959.0,345.5"/>
</g>
<g stroke="#000" stroke-width="0.90" fill="#FC8D62"  >
</g>
<g class="pl" fill="#000" stroke="#000" stroke-width="0.900">
  <circle cx="968.0" cy="334.0" r="5.4" />
</g>
<text transform="translate(968.0,593.9)"  font-size="21.60" fill="#808080" stroke="none" text-anchor="middle">
      <tspan x="0" y="18.0">Average over</tspan><tspan x="0" y="42.2">1990&#8211;2023</tspan>
    </text>
<g stroke="none" stroke-width="0.9000"  >
  <polygon points="968.0,587.2 974.0,593.9 962.0,593.9 968.0,587.2" fill="#808080"/>
</g>
<text transform="translate(1009.2,347.9)" dy="6.5" font-size="21.60" fill="#000" stroke="none">Fossil CO<tspan dy="0.2em"><tspan style="font-size:70%">2</tspan></tspan><tspan dy="-0.2em"></tspan></text>
<text transform="translate(1009.2,306.4)" dy="6.5" font-size="21.60" fill="#FC8D62" stroke="none">GDP</text>
<text transform="translate(1009.2,285.7)" dy="6.5" font-size="21.60" fill="#8DA0CB" stroke="none">CO<tspan dy="0.2em"><tspan style="font-size:70%">2</tspan></tspan><tspan dy="-0.2em">/</tspan>Energy</text>
<text transform="translate(1009.2,327.1)" dy="6.5" font-size="21.60" fill="#66C2A5" stroke="none">Energy/GDP</text>
<text transform="translate(1009.2,368.6)" dy="6.5" font-size="21.60" fill="#808080" stroke="none">Interactions</text>
<polyline class="pl" points="985.2,334.0 986.2,334.0 987.2,334.2 988.1,334.4 988.9,334.7 989.7,335.1 990.4,335.5 991.1,336.0 991.7,336.6 992.4,337.2 992.9,337.8 993.5,338.5 994.1,339.1 994.6,339.8 995.1,340.6 995.7,341.3 996.2,342.0 996.7,342.7 997.3,343.4 997.9,344.1 998.4,344.7 999.1,345.3 999.7,345.8 1000.4,346.3 1001.1,346.8 1001.9,347.2 1002.7,347.5 1003.6,347.7 1004.6,347.8 1005.6,347.9" stroke="#000" stroke-width="0.90" stroke-opacity="1.00" fill="none" />
<polyline class="pl" points="985.2,314.5 986.2,314.5 987.2,314.4 988.1,314.2 988.9,314.1 989.7,313.8 990.4,313.6 991.1,313.3 991.7,313.0 992.4,312.6 992.9,312.3 993.5,311.9 994.1,311.5 994.6,311.1 995.1,310.7 995.7,310.2 996.2,309.8 996.7,309.4 997.3,309.0 997.9,308.6 998.4,308.3 999.1,307.9 999.7,307.6 1000.4,307.3 1001.1,307.1 1001.9,306.8 1002.7,306.7 1003.6,306.5 1004.6,306.5 1005.6,306.4" stroke="#FC8D62" stroke-width="0.90" stroke-opacity="1.00" fill="none" />
<polyline class="pl" points="985.2,307.2 986.2,307.1 987.2,306.9 988.1,306.5 988.9,306.1 989.7,305.5 990.4,304.8 991.1,304.0 991.7,303.2 992.4,302.3 992.9,301.3 993.5,300.3 994.1,299.2 994.6,298.1 995.1,297.0 995.7,295.9 996.2,294.8 996.7,293.7 997.3,292.6 997.9,291.6 998.4,290.6 999.1,289.7 999.7,288.9 1000.4,288.1 1001.1,287.4 1001.9,286.8 1002.7,286.3 1003.6,286.0 1004.6,285.8 1005.6,285.7" stroke="#8DA0CB" stroke-width="0.90" stroke-opacity="1.00" fill="none" />
<polyline class="pl" points="985.2,333.1 986.2,333.0 987.2,333.0 988.1,332.9 988.9,332.8 989.7,332.6 990.4,332.4 991.1,332.2 991.7,332.0 992.4,331.7 992.9,331.4 993.5,331.2 994.1,330.9 994.6,330.6 995.1,330.3 995.7,330.0 996.2,329.6 996.7,329.3 997.3,329.1 997.9,328.8 998.4,328.5 999.1,328.3 999.7,328.0 1000.4,327.8 1001.1,327.6 1001.9,327.5 1002.7,327.3 1003.6,327.2 1004.6,327.2 1005.6,327.1" stroke="#66C2A5" stroke-width="0.90" stroke-opacity="1.00" fill="none" />
<polyline class="pl" points="985.2,347.0 986.2,347.1 987.2,347.3 988.1,347.7 988.9,348.2 989.7,348.7 990.4,349.4 991.1,350.2 991.7,351.1 992.4,352.0 992.9,353.0 993.5,354.0 994.1,355.1 994.6,356.2 995.1,357.3 995.7,358.4 996.2,359.5 996.7,360.6 997.3,361.6 997.9,362.7 998.4,363.7 999.1,364.6 999.7,365.4 1000.4,366.2 1001.1,366.9 1001.9,367.5 1002.7,368.0 1003.6,368.3 1004.6,368.5 1005.6,368.6" stroke="#808080" stroke-width="0.90" stroke-opacity="1.00" fill="none" />
<text transform="translate(145.6,47.2)" dy="0.0" font-size="27.00" fill="#808080" stroke="none">Kaya decomposition of emissions growth: Lithuania</text>
<text transform="translate(157.6,60.7)" dy="18.0" font-size="18.00" fill="#808080" stroke="none">Percentage change relative to previous year</text>
<text transform="translate(157.6,82.3)" dy="18.0" font-size="18.00" fill="#808080" stroke="none">Adjusted for leap years</text>
<text transform="translate(160.3,666.1)" font-size="19.80" font-family="Helvetica" fill="#BFBFBF" stroke="none" xml:space="preserve">Global Carbon Project</text>
<g>
  <rect x="123.0" y="651.4" width="34" height="17" fill="#FFF" stroke="none" opacity="0.01"/>
  <g transform="translate(124.0,652.4) scale(0.24)">
  <g><circle fill="#FFF" cx="37.79" cy="28.5" r="28.84"/>
     <circle fill="none" cx="37.79" cy="28.5" r="28.84" stroke="#BFBFBF" stroke-width="5.5"/>
     <path fill="#BFBFBF" d="M37.16,23.19 l-4.29,2.23c-0.458-0.951-1.02-1.62-1.69-2c-0.667-0.38-1.29-0.571-1.86-0.571c-2.86,0-4.29,1.89-4.29,5.66 c0,1.71,0.36,3.08,1.09,4.11c0.724,1.03,1.79,1.54,3.2,1.54c1.87,0,3.18-0.915,3.94-2.74l3.94,2 c-0.838,1.56-2,2.79-3.49,3.69c-1.48,0.896-3.12,1.34-4.91,1.34c-2.86,0-5.16-0.875-6.92-2.63 c-1.75-1.75-2.63-4.19-2.63-7.31c0-3.05,0.886-5.47,2.66-7.26c1.77-1.79,4.01-2.69,6.72-2.69 C32.6,18.56,35.44,20.1,37.16,23.19z
              M55.61,23.19l-4.23,2.23c-0.457-0.951-1.02-1.62-1.69-2 c-0.668-0.38-1.31-0.571-1.91-0.571c-2.86,0-4.29,1.89-4.29,5.66c0,1.71,0.363,3.08,1.09,4.11 c0.723,1.03,1.79,1.54,3.2,1.54c1.87,0,3.18-0.915,3.94-2.74l4,2c-0.875,1.56-2.06,2.79-3.54,3.69 c-1.49,0.9-3.11,1.34-4.86,1.34c-2.9,0-5.21-0.875-6.94-2.63c-1.74-1.75-2.6-4.19-2.6-7.31 c0-3.05,0.885-5.47,2.66-7.26c1.77-1.79,4.01-2.69,6.71-2.69C51.12,18.56,53.944,20.1,55.61,23.19z"/>
  </g></g>
  <g transform="translate(140.2,652.4) scale(0.24)">
  <g><circle fill="#FFF" cx="37.79" cy="28.5" r="28.84"/>
     <circle fill="none" cx="37.79" cy="28.5" r="28.84" stroke="#BFBFBF" stroke-width="5.5"/>
     <path fill="#BFBFBF" d="M46.129,20.557v13.085h-3.656v15.542h-9.944V33.643h-3.656V20.557 c0-0.572,0.2-1.057,0.599-1.457c0.401-0.399,0.887-0.6,1.457-0.6h13.144c0.533,0,1.01,0.2,1.428,0.6 C45.918,19.5,46.129,19.986,46.129,20.557z
              M33.042,12.329c0-3.008,1.485-4.514,4.458-4.514s4.457,1.504,4.457,4.514 c0,2.971-1.486,4.457-4.457,4.457S33.042,15.3,33.042,12.329z"/>
  </g></g>
</g>
</g>
</svg>
