<svg version="1.1" xmlns="http://www.w3.org/2000/svg" xmlns:xlink="http://www.w3.org/1999/xlink" width="100%" height="100%" viewBox="0 0 1200.000 674.916">
<title>Annual LULUCF emissions: Lithuania</title>
<style type="text/css">
  #main {font-family:Helvetica,Arial,sans-serif; font-size:27.00px;
         fill-opacity:1; fill:#000000; stroke:none; stroke-linejoin:round; stroke-linecap:round; stroke-width:1.00;}
  .marker {stroke-opacity:0;fill-opacity:0;}
  .marker:hover {stroke-opacity:0.5; fill-opacity:1;}
  .ticklabel {font-size:27.00px;fill:#808080;stroke:none;font-family:Helvetica}
  .ytl {text-anchor:end;}
  .dp1 {pointer-events:none;font-size:70%;text-anchor:middle;fill:#000000;}
  .dp2 {pointer-events:none;font-size:70%;text-anchor:middle;fill:#FFFFFF;}
  .numtip {pointer-events:none;}
  .cc {opacity:0.25;}
.dl_fe {background-color:#FDFFDF;display:flex;margin:auto;align-items:center}
.dl_fe_p {font-size:20px;text-align:center;margin:3px}
.dl_el {display:none;pointer-events:none;}
.cc:hover + .dl_el {display:block;}
text:hover + .dl_el {display:block;}
</style>
<defs>
  <clipPath id="axis_clip"><rect x="145.8" y="54.2" width="761.2" height="532.8" /></clipPath>
  <path id="line_x" d="M 145.600,0 h 761.600" stroke="#262626" stroke-opacity="0.15" stroke-width="1.00"/>
  <path id="tick_y" d="M 145.600,0 h -6.000" stroke="#808080" stroke-width="0.90"/>
  <path id="tick_x" d="M 0,587.177 v 6.000" stroke="#808080" stroke-width="0.90"/>
</defs>
<g id="main">
<use xlink:href="#line_x" transform="translate(0,527.9)"/>
<use xlink:href="#line_x" transform="translate(0,409.4)"/>
<use xlink:href="#line_x" transform="translate(0,291.0)"/>
<use xlink:href="#line_x" transform="translate(0,172.5)"/>
<use xlink:href="#line_x" transform="translate(0,54.0)"/>
<use xlink:href="#tick_y" transform="translate(0,527.9)"/>
<use xlink:href="#tick_y" transform="translate(0,409.4)"/>
<use xlink:href="#tick_y" transform="translate(0,291.0)"/>
<use xlink:href="#tick_y" transform="translate(0,172.5)"/>
<use xlink:href="#tick_y" transform="translate(0,54.0)"/>
<use xlink:href="#tick_x" transform="translate(156.8,0)"/>
<use xlink:href="#tick_x" transform="translate(268.8,0)"/>
<use xlink:href="#tick_x" transform="translate(380.8,0)"/>
<use xlink:href="#tick_x" transform="translate(492.8,0)"/>
<use xlink:href="#tick_x" transform="translate(604.8,0)"/>
<use xlink:href="#tick_x" transform="translate(716.8,0)"/>
<use xlink:href="#tick_x" transform="translate(828.8,0)"/>
<use xlink:href="#tick_x" transform="translate(896.0,0)"/>
<polyline points="145.6,53.993 145.6,587.177 907.2,587.177" stroke="#808080" stroke-width="0.90" fill="none"/>
<text class="ticklabel xtl" transform="translate(156.8,629.0)" text-anchor="middle">1990</text>
<text class="ticklabel xtl" transform="translate(268.8,629.0)" text-anchor="middle">1995</text>
<text class="ticklabel xtl" transform="translate(380.8,629.0)" text-anchor="middle">2000</text>
<text class="ticklabel xtl" transform="translate(492.8,629.0)" text-anchor="middle">2005</text>
<text class="ticklabel xtl" transform="translate(604.8,629.0)" text-anchor="middle">2010</text>
<text class="ticklabel xtl" transform="translate(716.8,629.0)" text-anchor="middle">2015</text>
<text class="ticklabel xtl" transform="translate(828.8,629.0)" text-anchor="middle">2020</text>
<text class="ticklabel xtl" transform="translate(896.0,629.0)" text-anchor="middle">23</text>
<text class="ticklabel ytl" transform="translate(128.8,536.0)">-12</text>
<text class="ticklabel ytl" transform="translate(128.8,417.5)">-8</text>
<text class="ticklabel ytl" transform="translate(128.8,299.1)">-4</text>
<text class="ticklabel ytl" transform="translate(128.8,180.6)">0</text>
<text class="ticklabel ytl" transform="translate(128.8,62.1)">4 Mt</text>
<g stroke="#000" stroke-width="0.90" fill="#7A685F"  clip-path="url(#axis_clip)">
</g>
<g stroke="#000" stroke-width="0.90" fill="#8B1E40"  clip-path="url(#axis_clip)">
  <polygon points="192.6,98.8 192.6,108.6 210.6,108.6 210.6,98.8 192.6,98.8"/>
</g>
<g stroke="#000" stroke-width="0.90" fill="#7B417F"  clip-path="url(#axis_clip)">
  <polygon points="192.6,108.6 192.6,109.4 210.6,109.4 210.6,108.6 192.6,108.6"/>
  <polygon points="215.0,116.6 215.0,117.7 233.0,117.7 233.0,116.6 215.0,116.6"/>
  <polygon points="237.4,98.9 237.4,103.9 255.4,103.9 255.4,98.9 237.4,98.9"/>
  <polygon points="259.8,113.1 259.8,114.2 277.8,114.2 277.8,113.1 259.8,113.1"/>
  <polygon points="282.2,86.1 282.2,87.0 300.2,87.0 300.2,86.1 282.2,86.1"/>
  <polygon points="304.6,117.0 304.6,117.9 322.6,117.9 322.6,117.0 304.6,117.0"/>
  <polygon points="327.0,116.8 327.0,118.1 345.0,118.1 345.0,116.8 327.0,116.8"/>
  <polygon points="349.4,102.2 349.4,103.3 367.4,103.3 367.4,102.2 349.4,102.2"/>
  <polygon points="371.8,107.1 371.8,108.2 389.8,108.2 389.8,107.1 371.8,107.1"/>
  <polygon points="394.2,114.2 394.2,115.8 412.2,115.8 412.2,114.2 394.2,114.2"/>
  <polygon points="416.6,106.6 416.6,107.9 434.6,107.9 434.6,106.6 416.6,106.6"/>
  <polygon points="439.0,115.2 439.0,117.0 457.0,117.0 457.0,115.2 439.0,115.2"/>
  <polygon points="461.4,111.8 461.4,113.1 479.4,113.1 479.4,111.8 461.4,111.8"/>
  <polygon points="483.8,103.2 483.8,104.5 501.8,104.5 501.8,103.2 483.8,103.2"/>
  <polygon points="506.2,90.9 506.2,92.2 524.2,92.2 524.2,90.9 506.2,90.9"/>
  <polygon points="528.6,104.3 528.6,105.6 546.6,105.6 546.6,104.3 528.6,104.3"/>
  <polygon points="551.0,91.8 551.0,94.0 569.0,94.0 569.0,91.8 551.0,91.8"/>
  <polygon points="573.4,94.8 573.4,97.4 591.4,97.4 591.4,94.8 573.4,94.8"/>
  <polygon points="595.8,121.7 595.8,123.7 613.8,123.7 613.8,121.7 595.8,121.7"/>
  <polygon points="618.2,117.1 618.2,119.1 636.2,119.1 636.2,117.1 618.2,117.1"/>
  <polygon points="640.6,125.6 640.6,127.3 658.6,127.3 658.6,125.6 640.6,125.6"/>
  <polygon points="663.0,114.5 663.0,116.4 681.0,116.4 681.0,114.5 663.0,114.5"/>
  <polygon points="685.4,116.9 685.4,118.9 703.4,118.9 703.4,116.9 685.4,116.9"/>
  <polygon points="707.8,123.4 707.8,125.0 725.8,125.0 725.8,123.4 707.8,123.4"/>
  <polygon points="730.2,130.2 730.2,131.8 748.2,131.8 748.2,130.2 730.2,130.2"/>
  <polygon points="752.6,121.4 752.6,123.0 770.6,123.0 770.6,121.4 752.6,121.4"/>
  <polygon points="775.0,93.8 775.0,115.4 793.0,115.4 793.0,93.8 775.0,93.8"/>
  <polygon points="797.4,121.5 797.4,122.9 815.4,122.9 815.4,121.5 797.4,121.5"/>
  <polygon points="819.8,124.7 819.8,125.9 837.8,125.9 837.8,124.7 819.8,124.7"/>
  <polygon points="842.2,124.5 842.2,126.0 860.2,126.0 860.2,124.5 842.2,124.5"/>
  <polygon points="864.6,126.0 864.6,127.7 882.6,127.7 882.6,126.0 864.6,126.0"/>
  <polygon points="887.0,124.6 887.0,126.0 905.0,126.0 905.0,124.6 887.0,124.6"/>
</g>
<g stroke="#000" stroke-width="0.90" fill="#CCC"  clip-path="url(#axis_clip)">
  <polygon points="147.8,107.1 147.8,107.3 165.8,107.3 165.8,107.1 147.8,107.1"/>
  <polygon points="170.2,109.5 170.2,111.9 188.2,111.9 188.2,109.5 170.2,109.5"/>
  <polygon points="192.6,109.4 192.6,113.7 210.6,113.7 210.6,109.4 192.6,109.4"/>
  <polygon points="215.0,117.7 215.0,121.3 233.0,121.3 233.0,117.7 215.0,117.7"/>
  <polygon points="237.4,103.9 237.4,111.4 255.4,111.4 255.4,103.9 237.4,103.9"/>
  <polygon points="259.8,114.2 259.8,120.7 277.8,120.7 277.8,114.2 259.8,114.2"/>
  <polygon points="282.2,87.0 282.2,92.4 300.2,92.4 300.2,87.0 282.2,87.0"/>
  <polygon points="304.6,117.9 304.6,124.2 322.6,124.2 322.6,117.9 304.6,117.9"/>
  <polygon points="327.0,118.1 327.0,124.7 345.0,124.7 345.0,118.1 327.0,118.1"/>
  <polygon points="349.4,103.3 349.4,110.7 367.4,110.7 367.4,103.3 349.4,103.3"/>
  <polygon points="371.8,108.2 371.8,119.6 389.8,119.6 389.8,108.2 371.8,108.2"/>
  <polygon points="394.2,115.8 394.2,125.2 412.2,125.2 412.2,115.8 394.2,115.8"/>
  <polygon points="416.6,107.9 416.6,117.4 434.6,117.4 434.6,107.9 416.6,107.9"/>
  <polygon points="439.0,117.0 439.0,126.6 457.0,126.6 457.0,117.0 439.0,117.0"/>
  <polygon points="461.4,113.1 461.4,123.3 479.4,123.3 479.4,113.1 461.4,113.1"/>
  <polygon points="483.8,104.5 483.8,120.9 501.8,120.9 501.8,104.5 483.8,104.5"/>
  <polygon points="506.2,92.2 506.2,108.9 524.2,108.9 524.2,92.2 506.2,92.2"/>
  <polygon points="528.6,105.6 528.6,118.4 546.6,118.4 546.6,105.6 528.6,105.6"/>
  <polygon points="551.0,94.0 551.0,108.3 569.0,108.3 569.0,94.0 551.0,94.0"/>
  <polygon points="573.4,97.4 573.4,115.0 591.4,115.0 591.4,97.4 573.4,97.4"/>
  <polygon points="595.8,123.7 595.8,143.1 613.8,143.1 613.8,123.7 595.8,123.7"/>
  <polygon points="618.2,119.1 618.2,135.0 636.2,135.0 636.2,119.1 618.2,119.1"/>
  <polygon points="640.6,127.3 640.6,142.5 658.6,142.5 658.6,127.3 640.6,127.3"/>
  <polygon points="663.0,116.4 663.0,136.2 681.0,136.2 681.0,116.4 663.0,116.4"/>
  <polygon points="685.4,118.9 685.4,136.0 703.4,136.0 703.4,118.9 685.4,118.9"/>
  <polygon points="707.8,125.0 707.8,142.4 725.8,142.4 725.8,125.0 707.8,125.0"/>
  <polygon points="730.2,131.8 730.2,151.5 748.2,151.5 748.2,131.8 730.2,131.8"/>
  <polygon points="752.6,123.0 752.6,139.6 770.6,139.6 770.6,123.0 752.6,123.0"/>
  <polygon points="775.0,115.4 775.0,139.9 793.0,139.9 793.0,115.4 775.0,115.4"/>
  <polygon points="797.4,122.9 797.4,140.6 815.4,140.6 815.4,122.9 797.4,122.9"/>
  <polygon points="819.8,125.9 819.8,143.9 837.8,143.9 837.8,125.9 819.8,125.9"/>
  <polygon points="842.2,126.0 842.2,145.8 860.2,145.8 860.2,126.0 842.2,126.0"/>
  <polygon points="864.6,127.7 864.6,144.8 882.6,144.8 882.6,127.7 864.6,127.7"/>
  <polygon points="887.0,126.0 887.0,150.1 905.0,150.1 905.0,126.0 887.0,126.0"/>
</g>
<g stroke="#000" stroke-width="0.90" fill="#EDB120"  clip-path="url(#axis_clip)">
  <polygon points="147.8,107.3 147.8,121.7 165.8,121.7 165.8,107.3 147.8,107.3"/>
  <polygon points="170.2,111.9 170.2,125.7 188.2,125.7 188.2,111.9 170.2,111.9"/>
  <polygon points="192.6,113.7 192.6,126.2 210.6,126.2 210.6,113.7 192.6,113.7"/>
  <polygon points="215.0,121.3 215.0,129.1 233.0,129.1 233.0,121.3 215.0,121.3"/>
  <polygon points="237.4,111.4 237.4,128.7 255.4,128.7 255.4,111.4 237.4,111.4"/>
  <polygon points="259.8,120.7 259.8,130.8 277.8,130.8 277.8,120.7 259.8,120.7"/>
  <polygon points="282.2,92.4 282.2,102.7 300.2,102.7 300.2,92.4 282.2,92.4"/>
  <polygon points="304.6,124.2 304.6,134.3 322.6,134.3 322.6,124.2 304.6,124.2"/>
  <polygon points="327.0,124.7 327.0,132.0 345.0,132.0 345.0,124.7 327.0,124.7"/>
  <polygon points="349.4,110.7 349.4,130.1 367.4,130.1 367.4,110.7 349.4,110.7"/>
  <polygon points="371.8,119.6 371.8,131.2 389.8,131.2 389.8,119.6 371.8,119.6"/>
  <polygon points="394.2,125.2 394.2,137.3 412.2,137.3 412.2,125.2 394.2,125.2"/>
  <polygon points="416.6,117.4 416.6,139.9 434.6,139.9 434.6,117.4 416.6,117.4"/>
  <polygon points="439.0,126.6 439.0,146.9 457.0,146.9 457.0,126.6 439.0,126.6"/>
  <polygon points="461.4,123.3 461.4,146.3 479.4,146.3 479.4,123.3 461.4,123.3"/>
  <polygon points="483.8,120.9 483.8,143.8 501.8,143.8 501.8,120.9 483.8,120.9"/>
  <polygon points="506.2,108.9 506.2,129.7 524.2,129.7 524.2,108.9 506.2,108.9"/>
  <polygon points="528.6,118.4 528.6,131.5 546.6,131.5 546.6,118.4 528.6,118.4"/>
  <polygon points="551.0,108.3 551.0,130.9 569.0,130.9 569.0,108.3 551.0,108.3"/>
  <polygon points="573.4,115.0 573.4,138.9 591.4,138.9 591.4,115.0 573.4,115.0"/>
  <polygon points="595.8,143.1 595.8,157.7 613.8,157.7 613.8,143.1 595.8,143.1"/>
  <polygon points="618.2,135.0 618.2,151.8 636.2,151.8 636.2,135.0 618.2,135.0"/>
  <polygon points="640.6,142.5 640.6,158.5 658.6,158.5 658.6,142.5 640.6,142.5"/>
  <polygon points="663.0,136.2 663.0,158.3 681.0,158.3 681.0,136.2 663.0,136.2"/>
  <polygon points="685.4,136.0 685.4,157.2 703.4,157.2 703.4,136.0 685.4,136.0"/>
  <polygon points="707.8,142.4 707.8,167.3 725.8,167.3 725.8,142.4 707.8,142.4"/>
  <polygon points="730.2,151.5 730.2,171.9 748.2,171.9 748.2,151.5 730.2,151.5"/>
  <polygon points="752.6,139.6 752.6,165.2 770.6,165.2 770.6,139.6 752.6,139.6"/>
  <polygon points="775.0,139.9 775.0,163.9 793.0,163.9 793.0,139.9 775.0,139.9"/>
  <polygon points="797.4,140.6 797.4,163.4 815.4,163.4 815.4,140.6 797.4,140.6"/>
  <polygon points="819.8,143.9 819.8,170.9 837.8,170.9 837.8,143.9 819.8,143.9"/>
  <polygon points="842.2,145.8 842.2,170.8 860.2,170.8 860.2,145.8 842.2,145.8"/>
  <polygon points="864.6,144.8 864.6,169.6 882.6,169.6 882.6,144.8 864.6,144.8"/>
  <polygon points="887.0,150.1 887.0,170.4 905.0,170.4 905.0,150.1 887.0,150.1"/>
</g>
<g stroke="#000" stroke-width="0.90" fill="#D95319"  clip-path="url(#axis_clip)">
  <polygon points="147.8,121.7 147.8,124.0 165.8,124.0 165.8,121.7 147.8,121.7"/>
  <polygon points="887.0,170.4 887.0,171.5 905.0,171.5 905.0,170.4 887.0,170.4"/>
</g>
<g stroke="#000" stroke-width="0.90" fill="#5AA3D0"  clip-path="url(#axis_clip)">
  <polygon points="147.8,124.0 147.8,172.5 165.8,172.5 165.8,124.0 147.8,124.0"/>
  <polygon points="170.2,125.7 170.2,172.5 188.2,172.5 188.2,125.7 170.2,125.7"/>
  <polygon points="192.6,126.2 192.6,172.5 210.6,172.5 210.6,126.2 192.6,126.2"/>
  <polygon points="215.0,129.1 215.0,172.5 233.0,172.5 233.0,129.1 215.0,129.1"/>
  <polygon points="237.4,128.7 237.4,172.5 255.4,172.5 255.4,128.7 237.4,128.7"/>
  <polygon points="259.8,130.8 259.8,172.5 277.8,172.5 277.8,130.8 259.8,130.8"/>
  <polygon points="282.2,102.7 282.2,139.1 300.2,139.1 300.2,102.7 282.2,102.7"/>
  <polygon points="304.6,134.3 304.6,172.5 322.6,172.5 322.6,134.3 304.6,134.3"/>
  <polygon points="327.0,132.0 327.0,172.5 345.0,172.5 345.0,132.0 327.0,132.0"/>
  <polygon points="349.4,130.1 349.4,172.5 367.4,172.5 367.4,130.1 349.4,130.1"/>
  <polygon points="371.8,131.2 371.8,172.5 389.8,172.5 389.8,131.2 371.8,131.2"/>
  <polygon points="394.2,137.3 394.2,172.5 412.2,172.5 412.2,137.3 394.2,137.3"/>
  <polygon points="416.6,139.9 416.6,172.5 434.6,172.5 434.6,139.9 416.6,139.9"/>
  <polygon points="439.0,146.9 439.0,172.5 457.0,172.5 457.0,146.9 439.0,146.9"/>
  <polygon points="461.4,146.3 461.4,172.5 479.4,172.5 479.4,146.3 461.4,146.3"/>
  <polygon points="483.8,143.8 483.8,172.5 501.8,172.5 501.8,143.8 483.8,143.8"/>
  <polygon points="506.2,129.7 506.2,172.5 524.2,172.5 524.2,129.7 506.2,129.7"/>
  <polygon points="528.6,131.5 528.6,172.5 546.6,172.5 546.6,131.5 528.6,131.5"/>
  <polygon points="551.0,130.9 551.0,172.5 569.0,172.5 569.0,130.9 551.0,130.9"/>
  <polygon points="573.4,138.9 573.4,172.5 591.4,172.5 591.4,138.9 573.4,138.9"/>
  <polygon points="595.8,157.7 595.8,172.5 613.8,172.5 613.8,157.7 595.8,157.7"/>
  <polygon points="618.2,151.8 618.2,172.5 636.2,172.5 636.2,151.8 618.2,151.8"/>
  <polygon points="640.6,158.5 640.6,172.5 658.6,172.5 658.6,158.5 640.6,158.5"/>
  <polygon points="663.0,158.3 663.0,172.5 681.0,172.5 681.0,158.3 663.0,158.3"/>
  <polygon points="685.4,157.2 685.4,172.5 703.4,172.5 703.4,157.2 685.4,157.2"/>
  <polygon points="707.8,167.3 707.8,172.5 725.8,172.5 725.8,167.3 707.8,167.3"/>
  <polygon points="730.2,171.9 730.2,172.5 748.2,172.5 748.2,171.9 730.2,171.9"/>
  <polygon points="752.6,165.2 752.6,172.5 770.6,172.5 770.6,165.2 752.6,165.2"/>
  <polygon points="775.0,163.9 775.0,172.5 793.0,172.5 793.0,163.9 775.0,163.9"/>
  <polygon points="797.4,163.4 797.4,172.5 815.4,172.5 815.4,163.4 797.4,163.4"/>
  <polygon points="819.8,170.9 819.8,172.5 837.8,172.5 837.8,170.9 819.8,170.9"/>
  <polygon points="842.2,170.8 842.2,172.5 860.2,172.5 860.2,170.8 842.2,170.8"/>
  <polygon points="864.6,169.6 864.6,172.5 882.6,172.5 882.6,169.6 864.6,169.6"/>
  <polygon points="887.0,171.5 887.0,172.5 905.0,172.5 905.0,171.5 887.0,171.5"/>
</g>
<g stroke="#000" stroke-width="0.90" fill="#6AB561"  clip-path="url(#axis_clip)">
  <polygon points="282.2,139.1 282.2,172.5 300.2,172.5 300.2,139.1 282.2,139.1"/>
</g>
<g stroke="#000" stroke-width="0.90" fill="#7A685F"  clip-path="url(#axis_clip)">
</g>
<g stroke="#000" stroke-width="0.90" fill="#8B1E40"  clip-path="url(#axis_clip)">
  <polygon points="147.8,378.2 147.8,371.1 165.8,371.1 165.8,378.2 147.8,378.2"/>
  <polygon points="170.2,393.5 170.2,386.0 188.2,386.0 188.2,393.5 170.2,393.5"/>
  <polygon points="215.0,411.3 215.0,407.1 233.0,407.1 233.0,411.3 215.0,411.3"/>
  <polygon points="237.4,421.2 237.4,401.9 255.4,401.9 255.4,421.2 237.4,421.2"/>
  <polygon points="259.8,370.7 259.8,345.5 277.8,345.5 277.8,370.7 259.8,370.7"/>
  <polygon points="282.2,240.1 282.2,205.0 300.2,205.0 300.2,240.1 282.2,240.1"/>
  <polygon points="304.6,250.8 304.6,222.9 322.6,222.9 322.6,250.8 304.6,250.8"/>
  <polygon points="327.0,479.5 327.0,452.7 345.0,452.7 345.0,479.5 327.0,479.5"/>
  <polygon points="349.4,476.7 349.4,451.7 367.4,451.7 367.4,476.7 349.4,476.7"/>
  <polygon points="371.8,541.1 371.8,502.5 389.8,502.5 389.8,541.1 371.8,541.1"/>
  <polygon points="394.2,470.0 394.2,432.4 412.2,432.4 412.2,470.0 394.2,470.0"/>
  <polygon points="416.6,451.6 416.6,411.0 434.6,411.0 434.6,451.6 416.6,451.6"/>
  <polygon points="439.0,423.4 439.0,377.4 457.0,377.4 457.0,423.4 439.0,423.4"/>
  <polygon points="461.4,413.8 461.4,373.4 479.4,373.4 479.4,413.8 461.4,413.8"/>
  <polygon points="483.8,398.9 483.8,362.2 501.8,362.2 501.8,398.9 483.8,398.9"/>
  <polygon points="506.2,397.7 506.2,362.0 524.2,362.0 524.2,397.7 506.2,397.7"/>
  <polygon points="528.6,434.6 528.6,392.3 546.6,392.3 546.6,434.6 528.6,434.6"/>
  <polygon points="551.0,464.0 551.0,434.0 569.0,434.0 569.0,464.0 551.0,464.0"/>
  <polygon points="573.4,484.7 573.4,463.2 591.4,463.2 591.4,484.7 573.4,484.7"/>
  <polygon points="595.8,553.8 595.8,516.2 613.8,516.2 613.8,553.8 595.8,553.8"/>
  <polygon points="618.2,557.2 618.2,515.9 636.2,515.9 636.2,557.2 618.2,557.2"/>
  <polygon points="640.6,531.1 640.6,496.7 658.6,496.7 658.6,531.1 640.6,531.1"/>
  <polygon points="663.0,521.0 663.0,481.3 681.0,481.3 681.0,521.0 663.0,521.0"/>
  <polygon points="685.4,492.0 685.4,451.3 703.4,451.3 703.4,492.0 685.4,492.0"/>
  <polygon points="707.8,455.5 707.8,418.7 725.8,418.7 725.8,455.5 707.8,455.5"/>
  <polygon points="730.2,421.9 730.2,392.0 748.2,392.0 748.2,421.9 730.2,421.9"/>
  <polygon points="752.6,411.5 752.6,382.6 770.6,382.6 770.6,411.5 752.6,411.5"/>
  <polygon points="775.0,407.2 775.0,375.6 793.0,375.6 793.0,407.2 775.0,407.2"/>
  <polygon points="797.4,389.1 797.4,364.6 815.4,364.6 815.4,389.1 797.4,389.1"/>
  <polygon points="819.8,387.1 819.8,361.9 837.8,361.9 837.8,387.1 819.8,387.1"/>
  <polygon points="842.2,394.8 842.2,358.3 860.2,358.3 860.2,394.8 842.2,394.8"/>
  <polygon points="864.6,405.2 864.6,349.2 882.6,349.2 882.6,405.2 864.6,405.2"/>
  <polygon points="887.0,390.1 887.0,340.7 905.0,340.7 905.0,390.1 887.0,390.1"/>
</g>
<g stroke="#000" stroke-width="0.90" fill="#7B417F"  clip-path="url(#axis_clip)">
</g>
<g stroke="#000" stroke-width="0.90" fill="#D95319"  clip-path="url(#axis_clip)">
  <polygon points="170.2,386.0 170.2,374.3 188.2,374.3 188.2,386.0 170.2,386.0"/>
  <polygon points="192.6,383.8 192.6,365.1 210.6,365.1 210.6,383.8 192.6,383.8"/>
  <polygon points="215.0,407.1 215.0,382.1 233.0,382.1 233.0,407.1 215.0,407.1"/>
  <polygon points="237.4,401.9 237.4,368.9 255.4,368.9 255.4,401.9 237.4,401.9"/>
  <polygon points="259.8,345.5 259.8,306.4 277.8,306.4 277.8,345.5 259.8,345.5"/>
  <polygon points="282.2,205.0 282.2,172.5 300.2,172.5 300.2,205.0 282.2,205.0"/>
  <polygon points="304.6,222.9 304.6,183.2 322.6,183.2 322.6,222.9 304.6,222.9"/>
  <polygon points="327.0,452.7 327.0,403.7 345.0,403.7 345.0,452.7 327.0,452.7"/>
  <polygon points="349.4,451.7 349.4,397.2 367.4,397.2 367.4,451.7 349.4,451.7"/>
  <polygon points="371.8,502.5 371.8,438.7 389.8,438.7 389.8,502.5 371.8,502.5"/>
  <polygon points="394.2,432.4 394.2,363.4 412.2,363.4 412.2,432.4 394.2,432.4"/>
  <polygon points="416.6,411.0 416.6,340.2 434.6,340.2 434.6,411.0 416.6,411.0"/>
  <polygon points="439.0,377.4 439.0,307.1 457.0,307.1 457.0,377.4 439.0,377.4"/>
  <polygon points="461.4,373.4 461.4,303.3 479.4,303.3 479.4,373.4 461.4,373.4"/>
  <polygon points="483.8,362.2 483.8,290.9 501.8,290.9 501.8,362.2 483.8,362.2"/>
  <polygon points="506.2,362.0 506.2,296.1 524.2,296.1 524.2,362.0 506.2,362.0"/>
  <polygon points="528.6,392.3 528.6,331.6 546.6,331.6 546.6,392.3 528.6,392.3"/>
  <polygon points="551.0,434.0 551.0,377.2 569.0,377.2 569.0,434.0 551.0,434.0"/>
  <polygon points="573.4,463.2 573.4,410.9 591.4,410.9 591.4,463.2 573.4,463.2"/>
  <polygon points="595.8,516.2 595.8,441.8 613.8,441.8 613.8,516.2 595.8,516.2"/>
  <polygon points="618.2,515.9 618.2,455.2 636.2,455.2 636.2,515.9 618.2,515.9"/>
  <polygon points="640.6,496.7 640.6,442.1 658.6,442.1 658.6,496.7 640.6,496.7"/>
  <polygon points="663.0,481.3 663.0,433.9 681.0,433.9 681.0,481.3 663.0,481.3"/>
  <polygon points="685.4,451.3 685.4,409.0 703.4,409.0 703.4,451.3 685.4,451.3"/>
  <polygon points="707.8,418.7 707.8,383.3 725.8,383.3 725.8,418.7 707.8,418.7"/>
  <polygon points="730.2,392.0 730.2,358.0 748.2,358.0 748.2,392.0 730.2,392.0"/>
  <polygon points="752.6,382.6 752.6,352.8 770.6,352.8 770.6,382.6 752.6,382.6"/>
  <polygon points="775.0,375.6 775.0,351.4 793.0,351.4 793.0,375.6 775.0,375.6"/>
  <polygon points="797.4,364.6 797.4,345.1 815.4,345.1 815.4,364.6 797.4,364.6"/>
  <polygon points="819.8,361.9 819.8,349.1 837.8,349.1 837.8,361.9 819.8,361.9"/>
  <polygon points="842.2,358.3 842.2,349.9 860.2,349.9 860.2,358.3 842.2,358.3"/>
  <polygon points="864.6,349.2 864.6,347.0 882.6,347.0 882.6,349.2 864.6,349.2"/>
</g>
<g stroke="#000" stroke-width="0.90" fill="#6AB561"  clip-path="url(#axis_clip)">
  <polygon points="147.8,371.1 147.8,172.5 165.8,172.5 165.8,371.1 147.8,371.1"/>
  <polygon points="170.2,374.3 170.2,172.5 188.2,172.5 188.2,374.3 170.2,374.3"/>
  <polygon points="192.6,365.1 192.6,172.5 210.6,172.5 210.6,365.1 192.6,365.1"/>
  <polygon points="215.0,382.1 215.0,172.5 233.0,172.5 233.0,382.1 215.0,382.1"/>
  <polygon points="237.4,368.9 237.4,172.5 255.4,172.5 255.4,368.9 237.4,368.9"/>
  <polygon points="259.8,306.4 259.8,172.5 277.8,172.5 277.8,306.4 259.8,306.4"/>
  <polygon points="304.6,183.2 304.6,172.5 322.6,172.5 322.6,183.2 304.6,183.2"/>
  <polygon points="327.0,403.7 327.0,172.5 345.0,172.5 345.0,403.7 327.0,403.7"/>
  <polygon points="349.4,397.2 349.4,172.5 367.4,172.5 367.4,397.2 349.4,397.2"/>
  <polygon points="371.8,438.7 371.8,172.5 389.8,172.5 389.8,438.7 371.8,438.7"/>
  <polygon points="394.2,363.4 394.2,172.5 412.2,172.5 412.2,363.4 394.2,363.4"/>
  <polygon points="416.6,340.2 416.6,172.5 434.6,172.5 434.6,340.2 416.6,340.2"/>
  <polygon points="439.0,307.1 439.0,172.5 457.0,172.5 457.0,307.1 439.0,307.1"/>
  <polygon points="461.4,303.3 461.4,172.5 479.4,172.5 479.4,303.3 461.4,303.3"/>
  <polygon points="483.8,290.9 483.8,172.5 501.8,172.5 501.8,290.9 483.8,290.9"/>
  <polygon points="506.2,296.1 506.2,172.5 524.2,172.5 524.2,296.1 506.2,296.1"/>
  <polygon points="528.6,331.6 528.6,172.5 546.6,172.5 546.6,331.6 528.6,331.6"/>
  <polygon points="551.0,377.2 551.0,172.5 569.0,172.5 569.0,377.2 551.0,377.2"/>
  <polygon points="573.4,410.9 573.4,172.5 591.4,172.5 591.4,410.9 573.4,410.9"/>
  <polygon points="595.8,441.8 595.8,172.5 613.8,172.5 613.8,441.8 595.8,441.8"/>
  <polygon points="618.2,455.2 618.2,172.5 636.2,172.5 636.2,455.2 618.2,455.2"/>
  <polygon points="640.6,442.1 640.6,172.5 658.6,172.5 658.6,442.1 640.6,442.1"/>
  <polygon points="663.0,433.9 663.0,172.5 681.0,172.5 681.0,433.9 663.0,433.9"/>
  <polygon points="685.4,409.0 685.4,172.5 703.4,172.5 703.4,409.0 685.4,409.0"/>
  <polygon points="707.8,383.3 707.8,172.5 725.8,172.5 725.8,383.3 707.8,383.3"/>
  <polygon points="730.2,358.0 730.2,172.5 748.2,172.5 748.2,358.0 730.2,358.0"/>
  <polygon points="752.6,352.8 752.6,172.5 770.6,172.5 770.6,352.8 752.6,352.8"/>
  <polygon points="775.0,351.4 775.0,172.5 793.0,172.5 793.0,351.4 775.0,351.4"/>
  <polygon points="797.4,345.1 797.4,172.5 815.4,172.5 815.4,345.1 797.4,345.1"/>
  <polygon points="819.8,349.1 819.8,172.5 837.8,172.5 837.8,349.1 819.8,349.1"/>
  <polygon points="842.2,349.9 842.2,172.5 860.2,172.5 860.2,349.9 842.2,349.9"/>
  <polygon points="864.6,347.0 864.6,172.5 882.6,172.5 882.6,347.0 864.6,347.0"/>
  <polygon points="887.0,340.7 887.0,172.5 905.0,172.5 905.0,340.7 887.0,340.7"/>
</g>
<polyline class="pl" points="156.8,312.9 179.2,330.5 201.6,310.1 224.0,355.4 246.4,347.6 268.8,311.3 291.2,153.7 313.6,195.3 336.0,423.8 358.4,406.5 380.8,475.7 403.2,411.7 425.6,385.7 448.0,366.1 470.4,353.2 492.8,329.7 515.2,316.1 537.6,366.4 560.0,383.3 582.4,407.0 604.8,503.0 627.2,501.8 649.6,484.2 672.0,463.0 694.4,436.4 716.8,406.4 739.2,379.6 761.6,360.5 784.0,328.6 806.4,338.1 828.8,339.3 851.2,346.8 873.6,358.7 896.0,342.2" stroke="#000" stroke-width="5.40" stroke-opacity="1.00" fill="none" clip-path="url(#axis_clip)"/>
<g class="pl" fill="#FFF" stroke="#000" stroke-width="0.900">
  <circle cx="179.2" cy="330.5" r="2.2" />
  <circle cx="201.6" cy="310.1" r="2.2" />
  <circle cx="224.0" cy="355.4" r="2.2" />
  <circle cx="246.4" cy="347.6" r="2.2" />
  <circle cx="268.8" cy="311.3" r="2.2" />
  <circle cx="291.2" cy="153.7" r="2.2" />
  <circle cx="313.6" cy="195.3" r="2.2" />
  <circle cx="336.0" cy="423.8" r="2.2" />
  <circle cx="358.4" cy="406.5" r="2.2" />
  <circle cx="403.2" cy="411.7" r="2.2" />
  <circle cx="425.6" cy="385.7" r="2.2" />
  <circle cx="448.0" cy="366.1" r="2.2" />
  <circle cx="470.4" cy="353.2" r="2.2" />
  <circle cx="492.8" cy="329.7" r="2.2" />
  <circle cx="515.2" cy="316.1" r="2.2" />
  <circle cx="537.6" cy="366.4" r="2.2" />
  <circle cx="560.0" cy="383.3" r="2.2" />
  <circle cx="582.4" cy="407.0" r="2.2" />
  <circle cx="627.2" cy="501.8" r="2.2" />
  <circle cx="649.6" cy="484.2" r="2.2" />
  <circle cx="672.0" cy="463.0" r="2.2" />
  <circle cx="694.4" cy="436.4" r="2.2" />
  <circle cx="716.8" cy="406.4" r="2.2" />
  <circle cx="739.2" cy="379.6" r="2.2" />
  <circle cx="761.6" cy="360.5" r="2.2" />
  <circle cx="784.0" cy="328.6" r="2.2" />
  <circle cx="806.4" cy="338.1" r="2.2" />
  <circle cx="851.2" cy="346.8" r="2.2" />
  <circle cx="873.6" cy="358.7" r="2.2" />
  <circle cx="896.0" cy="342.2" r="2.2" />
</g>
<g class="pl" fill="#FFF" stroke="#000" stroke-width="0.900">
  <circle cx="156.8" cy="312.9" r="5.4" />
  <circle cx="380.8" cy="475.7" r="5.4" />
  <circle cx="604.8" cy="503.0" r="5.4" />
  <circle cx="828.8" cy="339.3" r="5.4" />
</g>
<text transform="translate(955.6,198.8)" dy="6.5" font-size="21.60" fill="#5AA3D0" stroke="none">Cropland</text>
<text transform="translate(955.6,178.7)" dy="6.5" font-size="21.60" fill="#D95319" stroke="none">Grassland</text>
<text transform="translate(955.6,158.6)" dy="6.5" font-size="21.60" fill="#EDB120" stroke="none">Wetlands</text>
<text transform="translate(955.6,138.5)" dy="6.5" font-size="21.60" fill="#CCC" stroke="none">Settlements</text>
<text transform="translate(955.6,118.4)" dy="6.5" font-size="21.60" fill="#7B417F" stroke="none">Other land</text>
<text transform="translate(955.6,98.2)" dy="6.5" font-size="21.60" fill="#7A685F" stroke="none">Other</text>
<text transform="translate(955.6,256.6)" dy="6.5" font-size="21.60" fill="#6AB561" stroke="none">Forest land</text>
<text transform="translate(955.6,365.4)" dy="6.5" font-size="21.60" fill="#8B1E40" stroke="none">HWP</text>
<polyline class="pl" points="925.9,172.0 927.3,172.1 928.5,172.4 929.7,172.8 930.8,173.4 931.8,174.1 932.7,175.0 933.6,175.9 934.5,177.0 935.3,178.1 936.1,179.4 936.8,180.7 937.5,182.0 938.2,183.3 938.9,184.7 939.6,186.1 940.3,187.5 941.0,188.8 941.7,190.2 942.4,191.4 943.2,192.7 944.0,193.8 944.9,194.9 945.8,195.8 946.7,196.7 947.7,197.4 948.8,198.0 950.0,198.4 951.2,198.7 952.6,198.8" stroke="#5AA3D0" stroke-width="0.90" stroke-opacity="1.00" fill="none" />
<polyline class="pl" points="925.9,171.0 927.3,171.0 928.5,171.1 929.7,171.2 930.8,171.4 931.8,171.6 932.7,171.8 933.6,172.1 934.5,172.4 935.3,172.7 936.1,173.1 936.8,173.5 937.5,173.8 938.2,174.2 938.9,174.6 939.6,175.0 940.3,175.4 941.0,175.8 941.7,176.2 942.4,176.6 943.2,176.9 944.0,177.3 944.9,177.6 945.8,177.8 946.7,178.1 947.7,178.3 948.8,178.5 950.0,178.6 951.2,178.7 952.6,178.7" stroke="#D95319" stroke-width="0.90" stroke-opacity="1.00" fill="none" />
<polyline class="pl" points="925.9,160.2 927.3,160.2 928.5,160.2 929.7,160.2 930.8,160.1 931.8,160.1 932.7,160.1 933.6,160.0 934.5,159.9 935.3,159.9 936.1,159.8 936.8,159.7 937.5,159.6 938.2,159.5 938.9,159.5 939.6,159.4 940.3,159.3 941.0,159.2 941.7,159.1 942.4,159.0 943.2,159.0 944.0,158.9 944.9,158.8 945.8,158.8 946.7,158.7 947.7,158.7 948.8,158.6 950.0,158.6 951.2,158.6 952.6,158.6" stroke="#EDB120" stroke-width="0.90" stroke-opacity="1.00" fill="none" />
<polyline class="pl" points="925.9,138.0 927.3,138.0 928.5,138.0 929.7,138.0 930.8,138.1 931.8,138.1 932.7,138.1 933.6,138.1 934.5,138.1 935.3,138.1 936.1,138.2 936.8,138.2 937.5,138.2 938.2,138.2 938.9,138.2 939.6,138.3 940.3,138.3 941.0,138.3 941.7,138.3 942.4,138.4 943.2,138.4 944.0,138.4 944.9,138.4 945.8,138.4 946.7,138.4 947.7,138.4 948.8,138.5 950.0,138.5 951.2,138.5 952.6,138.5" stroke="#CCC" stroke-width="0.90" stroke-opacity="1.00" fill="none" />
<polyline class="pl" points="925.9,125.3 927.3,125.3 928.5,125.2 929.7,125.1 930.8,124.9 931.8,124.8 932.7,124.5 933.6,124.3 934.5,124.0 935.3,123.7 936.1,123.4 936.8,123.1 937.5,122.7 938.2,122.4 938.9,122.0 939.6,121.7 940.3,121.3 941.0,120.9 941.7,120.6 942.4,120.3 943.2,120.0 944.0,119.7 944.9,119.4 945.8,119.1 946.7,118.9 947.7,118.7 948.8,118.6 950.0,118.5 951.2,118.4 952.6,118.4" stroke="#7B417F" stroke-width="0.90" stroke-opacity="1.00" fill="none" />
<polyline class="pl" points="925.9,124.6 927.3,124.5 928.5,124.2 929.7,123.8 930.8,123.2 931.8,122.5 932.7,121.7 933.6,120.7 934.5,119.7 935.3,118.6 936.1,117.4 936.8,116.1 937.5,114.8 938.2,113.5 938.9,112.1 939.6,110.7 940.3,109.4 941.0,108.1 941.7,106.7 942.4,105.5 943.2,104.3 944.0,103.2 944.9,102.1 945.8,101.2 946.7,100.3 947.7,99.6 948.8,99.0 950.0,98.6 951.2,98.3 952.6,98.2" stroke="#7A685F" stroke-width="0.90" stroke-opacity="1.00" fill="none" />
<text transform="translate(145.6,47.2)" dy="0.0" font-size="27.00" fill="#808080" stroke="none">Annual LULUCF emissions: Lithuania</text>
<text transform="translate(130.0,81.6)" dy="8.1" font-size="27.00" fill="#808080" stroke="none" text-anchor="end">CO<tspan dy="0.2em"><tspan style="font-size:70%">2</tspan></tspan><tspan dy="-0.2em">e</tspan></text>
<text transform="translate(160.0,666.1)" font-size="19.80" font-family="Helvetica" fill="#BFBFBF" stroke="none" xml:space="preserve">CICERO   &#9679;   Data: UNFCCC (2025)</text>
<g>
  <rect x="123.0" y="651.4" width="34" height="17" fill="#FFF" stroke="none" opacity="0.01"/>
  <g transform="translate(124.0,652.4) scale(0.24)">
  <g><circle fill="#FFF" cx="37.79" cy="28.5" r="28.84"/>
     <circle fill="none" cx="37.79" cy="28.5" r="28.84" stroke="#BFBFBF" stroke-width="5.5"/>
     <path fill="#BFBFBF" d="M37.16,23.19 l-4.29,2.23c-0.458-0.951-1.02-1.62-1.69-2c-0.667-0.38-1.29-0.571-1.86-0.571c-2.86,0-4.29,1.89-4.29,5.66 c0,1.71,0.36,3.08,1.09,4.11c0.724,1.03,1.79,1.54,3.2,1.54c1.87,0,3.18-0.915,3.94-2.74l3.94,2 c-0.838,1.56-2,2.79-3.49,3.69c-1.48,0.896-3.12,1.34-4.91,1.34c-2.86,0-5.16-0.875-6.92-2.63 c-1.75-1.75-2.63-4.19-2.63-7.31c0-3.05,0.886-5.47,2.66-7.26c1.77-1.79,4.01-2.69,6.72-2.69 C32.6,18.56,35.44,20.1,37.16,23.19z
              M55.61,23.19l-4.23,2.23c-0.457-0.951-1.02-1.62-1.69-2 c-0.668-0.38-1.31-0.571-1.91-0.571c-2.86,0-4.29,1.89-4.29,5.66c0,1.71,0.363,3.08,1.09,4.11 c0.723,1.03,1.79,1.54,3.2,1.54c1.87,0,3.18-0.915,3.94-2.74l4,2c-0.875,1.56-2.06,2.79-3.54,3.69 c-1.49,0.9-3.11,1.34-4.86,1.34c-2.9,0-5.21-0.875-6.94-2.63c-1.74-1.75-2.6-4.19-2.6-7.31 c0-3.05,0.885-5.47,2.66-7.26c1.77-1.79,4.01-2.69,6.71-2.69C51.12,18.56,53.944,20.1,55.61,23.19z"/>
  </g></g>
  <g transform="translate(140.2,652.4) scale(0.24)">
  <g><circle fill="#FFF" cx="37.79" cy="28.5" r="28.84"/>
     <circle fill="none" cx="37.79" cy="28.5" r="28.84" stroke="#BFBFBF" stroke-width="5.5"/>
     <path fill="#BFBFBF" d="M46.129,20.557v13.085h-3.656v15.542h-9.944V33.643h-3.656V20.557 c0-0.572,0.2-1.057,0.599-1.457c0.401-0.399,0.887-0.6,1.457-0.6h13.144c0.533,0,1.01,0.2,1.428,0.6 C45.918,19.5,46.129,19.986,46.129,20.557z
              M33.042,12.329c0-3.008,1.485-4.514,4.458-4.514s4.457,1.504,4.457,4.514 c0,2.971-1.486,4.457-4.457,4.457S33.042,15.3,33.042,12.329z"/>
  </g></g>
</g>
</g>
</svg>
