<svg version="1.1" xmlns="http://www.w3.org/2000/svg" xmlns:xlink="http://www.w3.org/1999/xlink" width="100%" height="100%" viewBox="0 0 1200.000 674.916">
<title>Annual LULUCF emissions: Lithuania</title>
<style type="text/css">
  #main {font-family:Helvetica,Arial,sans-serif; font-size:27.00px;
         fill-opacity:1; fill:#000000; stroke:none; stroke-linejoin:round; stroke-linecap:round; stroke-width:1.00;}
  .marker {stroke-opacity:0;fill-opacity:0;}
  .marker:hover {stroke-opacity:0.5; fill-opacity:1;}
  .ticklabel {font-size:27.00px;fill:#808080;stroke:none;font-family:Helvetica}
  .ytl {text-anchor:end;}
  .dp1 {pointer-events:none;font-size:70%;text-anchor:middle;fill:#000000;}
  .dp2 {pointer-events:none;font-size:70%;text-anchor:middle;fill:#FFFFFF;}
  .numtip {pointer-events:none;}
  .cc {opacity:0.25;}
.dl_fe {background-color:#FDFFDF;display:flex;margin:auto;align-items:center}
.dl_fe_p {font-size:20px;text-align:center;margin:3px}
.dl_el {display:none;pointer-events:none;}
.cc:hover + .dl_el {display:block;}
text:hover + .dl_el {display:block;}
</style>
<defs>
  <clipPath id="axis_clip"><rect x="145.8" y="54.2" width="761.2" height="532.8" /></clipPath>
  <path id="line_x" d="M 145.600,0 h 761.600" stroke="#262626" stroke-opacity="0.15" stroke-width="1.00"/>
  <path id="tick_y" d="M 145.600,0 h -6.000" stroke="#808080" stroke-width="0.90"/>
  <path id="tick_x" d="M 0,587.177 v 6.000" stroke="#808080" stroke-width="0.90"/>
</defs>
<g id="main">
<use xlink:href="#line_x" transform="translate(0,587.2)"/>
<use xlink:href="#line_x" transform="translate(0,453.9)"/>
<use xlink:href="#line_x" transform="translate(0,320.6)"/>
<use xlink:href="#line_x" transform="translate(0,187.3)"/>
<use xlink:href="#line_x" transform="translate(0,54.0)"/>
<use xlink:href="#tick_y" transform="translate(0,587.2)"/>
<use xlink:href="#tick_y" transform="translate(0,453.9)"/>
<use xlink:href="#tick_y" transform="translate(0,320.6)"/>
<use xlink:href="#tick_y" transform="translate(0,187.3)"/>
<use xlink:href="#tick_y" transform="translate(0,54.0)"/>
<use xlink:href="#tick_x" transform="translate(156.5,0)"/>
<use xlink:href="#tick_x" transform="translate(265.3,0)"/>
<use xlink:href="#tick_x" transform="translate(374.1,0)"/>
<use xlink:href="#tick_x" transform="translate(482.9,0)"/>
<use xlink:href="#tick_x" transform="translate(591.7,0)"/>
<use xlink:href="#tick_x" transform="translate(700.5,0)"/>
<use xlink:href="#tick_x" transform="translate(809.3,0)"/>
<use xlink:href="#tick_x" transform="translate(896.3,0)"/>
<polyline points="145.6,53.993 145.6,587.177 907.2,587.177" stroke="#808080" stroke-width="0.90" fill="none"/>
<text class="ticklabel xtl" transform="translate(156.5,629.0)" text-anchor="middle">1990</text>
<text class="ticklabel xtl" transform="translate(265.3,629.0)" text-anchor="middle">1995</text>
<text class="ticklabel xtl" transform="translate(374.1,629.0)" text-anchor="middle">2000</text>
<text class="ticklabel xtl" transform="translate(482.9,629.0)" text-anchor="middle">2005</text>
<text class="ticklabel xtl" transform="translate(591.7,629.0)" text-anchor="middle">2010</text>
<text class="ticklabel xtl" transform="translate(700.5,629.0)" text-anchor="middle">2015</text>
<text class="ticklabel xtl" transform="translate(809.3,629.0)" text-anchor="middle">2020</text>
<text class="ticklabel xtl" transform="translate(896.3,629.0)" text-anchor="middle">2024</text>
<text class="ticklabel ytl" transform="translate(128.8,595.3)">-12</text>
<text class="ticklabel ytl" transform="translate(128.8,462.0)">-8</text>
<text class="ticklabel ytl" transform="translate(128.8,328.7)">-4</text>
<text class="ticklabel ytl" transform="translate(128.8,195.4)">0</text>
<text class="ticklabel ytl" transform="translate(128.8,62.1)">4 Mt</text>
<g stroke="#000" stroke-width="0.90" fill="#1A4D1A"  clip-path="url(#axis_clip)">
</g>
<g stroke="#000" stroke-width="0.90" fill="#8B1E40"  clip-path="url(#axis_clip)">
  <polygon class="pl" points="191.3,131.3 191.3,142.4 208.7,142.4 208.7,131.3 191.3,131.3"/>
</g>
<g stroke="#000" stroke-width="0.90" fill="#7B417F"  clip-path="url(#axis_clip)">
  <polygon class="pl" points="147.8,91.4 147.8,98.0 165.2,98.0 165.2,91.4 147.8,91.4"/>
  <polygon class="pl" points="169.5,122.0 169.5,128.6 186.9,128.6 186.9,122.0 169.5,122.0"/>
  <polygon class="pl" points="191.3,142.4 191.3,146.0 208.7,146.0 208.7,142.4 191.3,142.4"/>
  <polygon class="pl" points="213.1,150.8 213.1,154.7 230.5,154.7 230.5,150.8 213.1,150.8"/>
  <polygon class="pl" points="234.8,134.4 234.8,139.2 252.2,139.2 252.2,134.4 234.8,134.4"/>
  <polygon class="pl" points="256.6,147.5 256.6,149.6 274.0,149.6 274.0,147.5 256.6,147.5"/>
  <polygon class="pl" points="278.3,103.7 278.3,105.7 295.7,105.7 295.7,103.7 278.3,103.7"/>
  <polygon class="pl" points="300.1,152.0 300.1,154.0 317.5,154.0 317.5,152.0 300.1,152.0"/>
  <polygon class="pl" points="321.9,148.9 321.9,151.4 339.3,151.4 339.3,148.9 321.9,148.9"/>
  <polygon class="pl" points="343.6,125.7 343.6,128.0 361.0,128.0 361.0,125.7 343.6,125.7"/>
  <polygon class="pl" points="365.4,130.7 365.4,133.0 382.8,133.0 382.8,130.7 365.4,130.7"/>
  <polygon class="pl" points="387.1,136.0 387.1,138.8 404.5,138.8 404.5,136.0 387.1,136.0"/>
  <polygon class="pl" points="408.9,127.8 408.9,130.3 426.3,130.3 426.3,127.8 408.9,127.8"/>
  <polygon class="pl" points="430.7,147.8 430.7,150.9 448.1,150.9 448.1,147.8 430.7,147.8"/>
  <polygon class="pl" points="452.4,143.6 452.4,146.1 469.8,146.1 469.8,143.6 452.4,143.6"/>
  <polygon class="pl" points="474.2,137.0 474.2,139.5 491.6,139.5 491.6,137.0 474.2,137.0"/>
  <polygon class="pl" points="495.9,96.4 495.9,98.9 513.3,98.9 513.3,96.4 495.9,96.4"/>
  <polygon class="pl" points="517.7,105.4 517.7,107.9 535.1,107.9 535.1,105.4 517.7,105.4"/>
  <polygon class="pl" points="539.5,94.3 539.5,98.1 556.9,98.1 556.9,94.3 539.5,94.3"/>
  <polygon class="pl" points="561.2,112.6 561.2,116.8 578.6,116.8 578.6,112.6 561.2,112.6"/>
  <polygon class="pl" points="583.0,173.5 583.0,176.8 600.4,176.8 600.4,173.5 583.0,173.5"/>
  <polygon class="pl" points="604.7,147.6 604.7,151.0 622.1,151.0 622.1,147.6 604.7,147.6"/>
  <polygon class="pl" points="626.5,149.8 626.5,152.8 643.9,152.8 643.9,149.8 626.5,149.8"/>
  <polygon class="pl" points="648.3,136.2 648.3,139.5 665.7,139.5 665.7,136.2 648.3,136.2"/>
  <polygon class="pl" points="670.0,135.1 670.0,137.6 687.4,137.6 687.4,135.1 670.0,135.1"/>
  <polygon class="pl" points="691.8,139.0 691.8,140.8 709.2,140.8 709.2,139.0 691.8,139.0"/>
  <polygon class="pl" points="713.5,143.0 713.5,144.8 730.9,144.8 730.9,143.0 713.5,143.0"/>
  <polygon class="pl" points="735.3,140.9 735.3,142.7 752.7,142.7 752.7,140.9 735.3,140.9"/>
  <polygon class="pl" points="757.1,130.7 757.1,135.1 774.5,135.1 774.5,130.7 757.1,130.7"/>
  <polygon class="pl" points="778.8,133.0 778.8,138.6 796.2,138.6 796.2,133.0 778.8,133.0"/>
  <polygon class="pl" points="800.6,139.3 800.6,144.7 818.0,144.7 818.0,139.3 800.6,139.3"/>
  <polygon class="pl" points="822.3,133.6 822.3,139.4 839.7,139.4 839.7,133.6 822.3,133.6"/>
  <polygon class="pl" points="844.1,126.6 844.1,130.4 861.5,130.4 861.5,126.6 844.1,126.6"/>
  <polygon class="pl" points="865.9,132.7 865.9,135.9 883.3,135.9 883.3,132.7 865.9,132.7"/>
  <polygon class="pl" points="887.6,134.6 887.6,137.7 905.0,137.7 905.0,134.6 887.6,134.6"/>
</g>
<g stroke="#000" stroke-width="0.90" fill="#EDB120"  clip-path="url(#axis_clip)">
  <polygon class="pl" points="147.8,98.0 147.8,135.8 165.2,135.8 165.2,98.0 147.8,98.0"/>
  <polygon class="pl" points="169.5,128.6 169.5,159.9 186.9,159.9 186.9,128.6 169.5,128.6"/>
  <polygon class="pl" points="191.3,146.0 191.3,159.2 208.7,159.2 208.7,146.0 191.3,146.0"/>
  <polygon class="pl" points="213.1,154.7 213.1,162.0 230.5,162.0 230.5,154.7 213.1,154.7"/>
  <polygon class="pl" points="234.8,139.2 234.8,158.0 252.2,158.0 252.2,139.2 234.8,139.2"/>
  <polygon class="pl" points="256.6,149.6 256.6,160.5 274.0,160.5 274.0,149.6 256.6,149.6"/>
  <polygon class="pl" points="278.3,105.7 278.3,116.0 295.7,116.0 295.7,105.7 278.3,105.7"/>
  <polygon class="pl" points="300.1,154.0 300.1,164.3 317.5,164.3 317.5,154.0 300.1,154.0"/>
  <polygon class="pl" points="321.9,151.4 321.9,152.9 339.3,152.9 339.3,151.4 321.9,151.4"/>
  <polygon class="pl" points="343.6,128.0 343.6,144.4 361.0,144.4 361.0,128.0 343.6,128.0"/>
  <polygon class="pl" points="365.4,133.0 365.4,145.1 382.8,145.1 382.8,133.0 365.4,133.0"/>
  <polygon class="pl" points="387.1,138.8 387.1,151.0 404.5,151.0 404.5,138.8 387.1,138.8"/>
  <polygon class="pl" points="408.9,130.3 408.9,153.3 426.3,153.3 426.3,130.3 408.9,130.3"/>
  <polygon class="pl" points="430.7,150.9 430.7,166.1 448.1,166.1 448.1,150.9 430.7,150.9"/>
  <polygon class="pl" points="452.4,146.1 452.4,162.4 469.8,162.4 469.8,146.1 452.4,146.1"/>
  <polygon class="pl" points="474.2,139.5 474.2,161.2 491.6,161.2 491.6,139.5 474.2,139.5"/>
  <polygon class="pl" points="495.9,98.9 495.9,121.8 513.3,121.8 513.3,98.9 495.9,98.9"/>
  <polygon class="pl" points="517.7,107.9 517.7,119.8 535.1,119.8 535.1,107.9 517.7,107.9"/>
  <polygon class="pl" points="539.5,98.1 539.5,120.9 556.9,120.9 556.9,98.1 539.5,98.1"/>
  <polygon class="pl" points="561.2,116.8 561.2,135.4 578.6,135.4 578.6,116.8 561.2,116.8"/>
  <polygon class="pl" points="583.0,176.8 583.0,187.3 600.4,187.3 600.4,176.8 583.0,176.8"/>
  <polygon class="pl" points="604.7,151.0 604.7,164.4 622.1,164.4 622.1,151.0 604.7,151.0"/>
  <polygon class="pl" points="626.5,152.8 626.5,166.7 643.9,166.7 643.9,152.8 626.5,152.8"/>
  <polygon class="pl" points="648.3,139.5 648.3,157.8 665.7,157.8 665.7,139.5 648.3,139.5"/>
  <polygon class="pl" points="670.0,137.6 670.0,155.6 687.4,155.6 687.4,137.6 670.0,137.6"/>
  <polygon class="pl" points="691.8,140.8 691.8,162.0 709.2,162.0 709.2,140.8 691.8,140.8"/>
  <polygon class="pl" points="713.5,144.8 713.5,161.6 730.9,161.6 730.9,144.8 713.5,144.8"/>
  <polygon class="pl" points="735.3,142.7 735.3,161.0 752.7,161.0 752.7,142.7 735.3,142.7"/>
  <polygon class="pl" points="757.1,135.1 757.1,159.7 774.5,159.7 774.5,135.1 757.1,135.1"/>
  <polygon class="pl" points="778.8,138.6 778.8,162.3 796.2,162.3 796.2,138.6 778.8,138.6"/>
  <polygon class="pl" points="800.6,144.7 800.6,166.9 818.0,166.9 818.0,144.7 800.6,144.7"/>
  <polygon class="pl" points="822.3,139.4 822.3,161.1 839.7,161.1 839.7,139.4 822.3,139.4"/>
  <polygon class="pl" points="844.1,130.4 844.1,153.2 861.5,153.2 861.5,130.4 844.1,130.4"/>
  <polygon class="pl" points="865.9,135.9 865.9,157.7 883.3,157.7 883.3,135.9 865.9,135.9"/>
  <polygon class="pl" points="887.6,137.7 887.6,161.3 905.0,161.3 905.0,137.7 887.6,137.7"/>
</g>
<g stroke="#000" stroke-width="0.90" fill="#D95319"  clip-path="url(#axis_clip)">
  <polygon class="pl" points="147.8,135.8 147.8,160.9 165.2,160.9 165.2,135.8 147.8,135.8"/>
  <polygon class="pl" points="169.5,159.9 169.5,161.5 186.9,161.5 186.9,159.9 169.5,159.9"/>
  <polygon class="pl" points="278.3,116.0 278.3,129.7 295.7,129.7 295.7,116.0 278.3,116.0"/>
  <polygon class="pl" points="452.4,162.4 452.4,162.8 469.8,162.8 469.8,162.4 452.4,162.4"/>
  <polygon class="pl" points="474.2,161.2 474.2,165.9 491.6,165.9 491.6,161.2 474.2,161.2"/>
  <polygon class="pl" points="495.9,121.8 495.9,130.1 513.3,130.1 513.3,121.8 495.9,121.8"/>
  <polygon class="pl" points="517.7,119.8 517.7,131.9 535.1,131.9 535.1,119.8 517.7,119.8"/>
  <polygon class="pl" points="539.5,120.9 539.5,132.5 556.9,132.5 556.9,120.9 539.5,120.9"/>
  <polygon class="pl" points="561.2,135.4 561.2,151.4 578.6,151.4 578.6,135.4 561.2,135.4"/>
  <polygon class="pl" points="604.7,164.4 604.7,167.8 622.1,167.8 622.1,164.4 604.7,164.4"/>
  <polygon class="pl" points="626.5,166.7 626.5,175.5 643.9,175.5 643.9,166.7 626.5,166.7"/>
  <polygon class="pl" points="648.3,157.8 648.3,176.2 665.7,176.2 665.7,157.8 648.3,157.8"/>
  <polygon class="pl" points="670.0,155.6 670.0,173.8 687.4,173.8 687.4,155.6 670.0,155.6"/>
  <polygon class="pl" points="691.8,162.0 691.8,187.3 709.2,187.3 709.2,162.0 691.8,162.0"/>
  <polygon class="pl" points="713.5,161.6 713.5,187.3 730.9,187.3 730.9,161.6 713.5,161.6"/>
  <polygon class="pl" points="735.3,161.0 735.3,187.3 752.7,187.3 752.7,161.0 735.3,161.0"/>
  <polygon class="pl" points="757.1,159.7 757.1,187.3 774.5,187.3 774.5,159.7 757.1,159.7"/>
  <polygon class="pl" points="778.8,162.3 778.8,187.3 796.2,187.3 796.2,162.3 778.8,162.3"/>
  <polygon class="pl" points="800.6,166.9 800.6,187.3 818.0,187.3 818.0,166.9 800.6,166.9"/>
  <polygon class="pl" points="822.3,161.1 822.3,185.8 839.7,185.8 839.7,161.1 822.3,161.1"/>
  <polygon class="pl" points="844.1,153.2 844.1,180.9 861.5,180.9 861.5,153.2 844.1,153.2"/>
  <polygon class="pl" points="865.9,157.7 865.9,185.2 883.3,185.2 883.3,157.7 865.9,157.7"/>
  <polygon class="pl" points="887.6,161.3 887.6,187.3 905.0,187.3 905.0,161.3 887.6,161.3"/>
</g>
<g stroke="#000" stroke-width="0.90" fill="#5AA3D0"  clip-path="url(#axis_clip)">
  <polygon class="pl" points="147.8,160.9 147.8,187.3 165.2,187.3 165.2,160.9 147.8,160.9"/>
  <polygon class="pl" points="169.5,161.5 169.5,187.3 186.9,187.3 186.9,161.5 169.5,161.5"/>
  <polygon class="pl" points="191.3,159.2 191.3,187.3 208.7,187.3 208.7,159.2 191.3,159.2"/>
  <polygon class="pl" points="213.1,162.0 213.1,187.3 230.5,187.3 230.5,162.0 213.1,162.0"/>
  <polygon class="pl" points="234.8,158.0 234.8,187.3 252.2,187.3 252.2,158.0 234.8,158.0"/>
  <polygon class="pl" points="256.6,160.5 256.6,187.3 274.0,187.3 274.0,160.5 256.6,160.5"/>
  <polygon class="pl" points="278.3,129.7 278.3,145.1 295.7,145.1 295.7,129.7 278.3,129.7"/>
  <polygon class="pl" points="300.1,164.3 300.1,187.3 317.5,187.3 317.5,164.3 300.1,164.3"/>
  <polygon class="pl" points="321.9,152.9 321.9,187.3 339.3,187.3 339.3,152.9 321.9,152.9"/>
  <polygon class="pl" points="343.6,144.4 343.6,187.3 361.0,187.3 361.0,144.4 343.6,144.4"/>
  <polygon class="pl" points="365.4,145.1 365.4,187.3 382.8,187.3 382.8,145.1 365.4,145.1"/>
  <polygon class="pl" points="387.1,151.0 387.1,187.3 404.5,187.3 404.5,151.0 387.1,151.0"/>
  <polygon class="pl" points="408.9,153.3 408.9,187.3 426.3,187.3 426.3,153.3 408.9,153.3"/>
  <polygon class="pl" points="430.7,166.1 430.7,187.3 448.1,187.3 448.1,166.1 430.7,166.1"/>
  <polygon class="pl" points="452.4,162.8 452.4,187.3 469.8,187.3 469.8,162.8 452.4,162.8"/>
  <polygon class="pl" points="474.2,165.9 474.2,187.3 491.6,187.3 491.6,165.9 474.2,165.9"/>
  <polygon class="pl" points="495.9,130.1 495.9,187.3 513.3,187.3 513.3,130.1 495.9,130.1"/>
  <polygon class="pl" points="517.7,131.9 517.7,187.3 535.1,187.3 535.1,131.9 517.7,131.9"/>
  <polygon class="pl" points="539.5,132.5 539.5,187.3 556.9,187.3 556.9,132.5 539.5,132.5"/>
  <polygon class="pl" points="561.2,151.4 561.2,187.3 578.6,187.3 578.6,151.4 561.2,151.4"/>
  <polygon class="pl" points="604.7,167.8 604.7,187.3 622.1,187.3 622.1,167.8 604.7,167.8"/>
  <polygon class="pl" points="626.5,175.5 626.5,187.3 643.9,187.3 643.9,175.5 626.5,175.5"/>
  <polygon class="pl" points="648.3,176.2 648.3,187.3 665.7,187.3 665.7,176.2 648.3,176.2"/>
  <polygon class="pl" points="670.0,173.8 670.0,187.3 687.4,187.3 687.4,173.8 670.0,173.8"/>
  <polygon class="pl" points="822.3,185.8 822.3,187.3 839.7,187.3 839.7,185.8 822.3,185.8"/>
  <polygon class="pl" points="844.1,180.9 844.1,187.3 861.5,187.3 861.5,180.9 844.1,180.9"/>
  <polygon class="pl" points="865.9,185.2 865.9,187.3 883.3,187.3 883.3,185.2 865.9,185.2"/>
</g>
<g stroke="#000" stroke-width="0.90" fill="#6AB561"  clip-path="url(#axis_clip)">
  <polygon class="pl" points="278.3,145.1 278.3,187.3 295.7,187.3 295.7,145.1 278.3,145.1"/>
</g>
<g stroke="#000" stroke-width="0.90" fill="#1A4D1A"  clip-path="url(#axis_clip)">
</g>
<g stroke="#000" stroke-width="0.90" fill="#8B1E40"  clip-path="url(#axis_clip)">
  <polygon class="pl" points="147.8,414.3 147.8,406.3 165.2,406.3 165.2,414.3 147.8,414.3"/>
  <polygon class="pl" points="169.5,421.1 169.5,412.6 186.9,412.6 186.9,421.1 169.5,421.1"/>
  <polygon class="pl" points="213.1,433.0 213.1,428.3 230.5,428.3 230.5,433.0 213.1,433.0"/>
  <polygon class="pl" points="234.8,441.5 234.8,419.8 252.2,419.8 252.2,441.5 234.8,441.5"/>
  <polygon class="pl" points="256.6,379.1 256.6,350.7 274.0,350.7 274.0,379.1 256.6,379.1"/>
  <polygon class="pl" points="278.3,235.7 278.3,196.2 295.7,196.2 295.7,235.7 278.3,235.7"/>
  <polygon class="pl" points="300.1,235.0 300.1,203.6 317.5,203.6 317.5,235.0 300.1,235.0"/>
  <polygon class="pl" points="321.9,501.1 321.9,470.9 339.3,470.9 339.3,501.1 321.9,501.1"/>
  <polygon class="pl" points="343.6,497.0 343.6,468.8 361.0,468.8 361.0,497.0 343.6,497.0"/>
  <polygon class="pl" points="365.4,566.8 365.4,523.4 382.8,523.4 382.8,566.8 365.4,566.8"/>
  <polygon class="pl" points="387.1,480.1 387.1,437.9 404.5,437.9 404.5,480.1 387.1,480.1"/>
  <polygon class="pl" points="408.9,430.0 408.9,384.3 426.3,384.3 426.3,430.0 408.9,430.0"/>
  <polygon class="pl" points="430.7,392.4 430.7,340.6 448.1,340.6 448.1,392.4 430.7,392.4"/>
  <polygon class="pl" points="452.4,368.6 452.4,323.1 469.8,323.1 469.8,368.6 452.4,368.6"/>
  <polygon class="pl" points="474.2,345.6 474.2,304.3 491.6,304.3 491.6,345.6 474.2,345.6"/>
  <polygon class="pl" points="495.9,355.7 495.9,315.5 513.3,315.5 513.3,355.7 495.9,355.7"/>
  <polygon class="pl" points="517.7,406.9 517.7,359.3 535.1,359.3 535.1,406.9 517.7,406.9"/>
  <polygon class="pl" points="539.5,439.7 539.5,405.9 556.9,405.9 556.9,439.7 539.5,439.7"/>
  <polygon class="pl" points="561.2,471.5 561.2,447.3 578.6,447.3 578.6,471.5 561.2,471.5"/>
  <polygon class="pl" points="583.0,559.3 583.0,517.2 600.4,517.2 600.4,559.3 583.0,559.3"/>
  <polygon class="pl" points="604.7,540.2 604.7,493.7 622.1,493.7 622.1,540.2 604.7,540.2"/>
  <polygon class="pl" points="626.5,516.2 626.5,477.5 643.9,477.5 643.9,516.2 626.5,516.2"/>
  <polygon class="pl" points="648.3,520.0 648.3,475.3 665.7,475.3 665.7,520.0 648.3,520.0"/>
  <polygon class="pl" points="670.0,491.3 670.0,445.4 687.4,445.4 687.4,491.3 670.0,491.3"/>
  <polygon class="pl" points="691.8,472.5 691.8,431.1 709.2,431.1 709.2,472.5 691.8,472.5"/>
  <polygon class="pl" points="713.5,451.7 713.5,418.1 730.9,418.1 730.9,451.7 713.5,451.7"/>
  <polygon class="pl" points="735.3,426.5 735.3,394.1 752.7,394.1 752.7,426.5 735.3,426.5"/>
  <polygon class="pl" points="757.1,441.7 757.1,406.1 774.5,406.1 774.5,441.7 757.1,441.7"/>
  <polygon class="pl" points="778.8,424.7 778.8,397.2 796.2,397.2 796.2,424.7 778.8,424.7"/>
  <polygon class="pl" points="800.6,425.9 800.6,397.5 818.0,397.5 818.0,425.9 800.6,425.9"/>
  <polygon class="pl" points="822.3,437.3 822.3,396.3 839.7,396.3 839.7,437.3 822.3,437.3"/>
  <polygon class="pl" points="844.1,461.6 844.1,398.5 861.5,398.5 861.5,461.6 844.1,461.6"/>
  <polygon class="pl" points="865.9,452.3 865.9,396.8 883.3,396.8 883.3,452.3 865.9,452.3"/>
  <polygon class="pl" points="887.6,501.0 887.6,430.8 905.0,430.8 905.0,501.0 887.6,501.0"/>
</g>
<g stroke="#000" stroke-width="0.90" fill="#808080"  clip-path="url(#axis_clip)">
  <polygon class="pl" points="147.8,406.3 147.8,400.0 165.2,400.0 165.2,406.3 147.8,406.3"/>
  <polygon class="pl" points="169.5,412.6 169.5,407.3 186.9,407.3 186.9,412.6 169.5,412.6"/>
  <polygon class="pl" points="191.3,404.9 191.3,399.2 208.7,399.2 208.7,404.9 191.3,404.9"/>
  <polygon class="pl" points="213.1,428.3 213.1,421.3 230.5,421.3 230.5,428.3 213.1,428.3"/>
  <polygon class="pl" points="234.8,419.8 234.8,414.2 252.2,414.2 252.2,419.8 234.8,419.8"/>
  <polygon class="pl" points="256.6,350.7 256.6,342.7 274.0,342.7 274.0,350.7 256.6,350.7"/>
  <polygon class="pl" points="278.3,196.2 278.3,187.3 295.7,187.3 295.7,196.2 278.3,196.2"/>
  <polygon class="pl" points="300.1,203.6 300.1,195.2 317.5,195.2 317.5,203.6 300.1,203.6"/>
  <polygon class="pl" points="321.9,470.9 321.9,462.5 339.3,462.5 339.3,470.9 321.9,470.9"/>
  <polygon class="pl" points="343.6,468.8 343.6,460.7 361.0,460.7 361.0,468.8 343.6,468.8"/>
  <polygon class="pl" points="365.4,523.4 365.4,517.2 382.8,517.2 382.8,523.4 365.4,523.4"/>
  <polygon class="pl" points="387.1,437.9 387.1,428.6 404.5,428.6 404.5,437.9 387.1,437.9"/>
  <polygon class="pl" points="408.9,384.3 408.9,374.6 426.3,374.6 426.3,384.3 408.9,384.3"/>
  <polygon class="pl" points="430.7,340.6 430.7,331.1 448.1,331.1 448.1,340.6 430.7,340.6"/>
  <polygon class="pl" points="452.4,323.1 452.4,313.6 469.8,313.6 469.8,323.1 452.4,323.1"/>
  <polygon class="pl" points="474.2,304.3 474.2,296.2 491.6,296.2 491.6,304.3 474.2,304.3"/>
  <polygon class="pl" points="495.9,315.5 495.9,307.4 513.3,307.4 513.3,315.5 495.9,315.5"/>
  <polygon class="pl" points="517.7,359.3 517.7,350.6 535.1,350.6 535.1,359.3 517.7,359.3"/>
  <polygon class="pl" points="539.5,405.9 539.5,397.6 556.9,397.6 556.9,405.9 539.5,405.9"/>
  <polygon class="pl" points="561.2,447.3 561.2,441.0 578.6,441.0 578.6,447.3 561.2,447.3"/>
  <polygon class="pl" points="583.0,517.2 583.0,510.7 600.4,510.7 600.4,517.2 583.0,517.2"/>
  <polygon class="pl" points="604.7,493.7 604.7,483.9 622.1,483.9 622.1,493.7 604.7,493.7"/>
  <polygon class="pl" points="626.5,477.5 626.5,468.8 643.9,468.8 643.9,477.5 626.5,477.5"/>
  <polygon class="pl" points="648.3,475.3 648.3,470.3 665.7,470.3 665.7,475.3 648.3,475.3"/>
  <polygon class="pl" points="670.0,445.4 670.0,437.8 687.4,437.8 687.4,445.4 670.0,445.4"/>
  <polygon class="pl" points="691.8,431.1 691.8,423.9 709.2,423.9 709.2,431.1 691.8,431.1"/>
  <polygon class="pl" points="713.5,418.1 713.5,408.8 730.9,408.8 730.9,418.1 713.5,418.1"/>
  <polygon class="pl" points="735.3,394.1 735.3,385.8 752.7,385.8 752.7,394.1 735.3,394.1"/>
  <polygon class="pl" points="757.1,406.1 757.1,398.0 774.5,398.0 774.5,406.1 757.1,406.1"/>
  <polygon class="pl" points="778.8,397.2 778.8,390.7 796.2,390.7 796.2,397.2 778.8,397.2"/>
  <polygon class="pl" points="800.6,397.5 800.6,390.0 818.0,390.0 818.0,397.5 800.6,397.5"/>
  <polygon class="pl" points="822.3,396.3 822.3,390.5 839.7,390.5 839.7,396.3 822.3,396.3"/>
  <polygon class="pl" points="844.1,398.5 844.1,390.7 861.5,390.7 861.5,398.5 844.1,398.5"/>
  <polygon class="pl" points="865.9,396.8 865.9,392.1 883.3,392.1 883.3,396.8 865.9,396.8"/>
  <polygon class="pl" points="887.6,430.8 887.6,425.3 905.0,425.3 905.0,430.8 887.6,430.8"/>
</g>
<g stroke="#000" stroke-width="0.90" fill="#D95319"  clip-path="url(#axis_clip)">
  <polygon class="pl" points="191.3,399.2 191.3,397.4 208.7,397.4 208.7,399.2 191.3,399.2"/>
  <polygon class="pl" points="213.1,421.3 213.1,417.6 230.5,417.6 230.5,421.3 213.1,421.3"/>
  <polygon class="pl" points="234.8,414.2 234.8,403.8 252.2,403.8 252.2,414.2 234.8,414.2"/>
  <polygon class="pl" points="256.6,342.7 256.6,333.6 274.0,333.6 274.0,342.7 256.6,342.7"/>
  <polygon class="pl" points="300.1,195.2 300.1,194.4 317.5,194.4 317.5,195.2 300.1,195.2"/>
  <polygon class="pl" points="321.9,462.5 321.9,442.9 339.3,442.9 339.3,462.5 321.9,462.5"/>
  <polygon class="pl" points="343.6,460.7 343.6,435.4 361.0,435.4 361.0,460.7 343.6,460.7"/>
  <polygon class="pl" points="365.4,517.2 365.4,483.3 382.8,483.3 382.8,517.2 365.4,517.2"/>
  <polygon class="pl" points="387.1,428.6 387.1,398.2 404.5,398.2 404.5,428.6 387.1,428.6"/>
  <polygon class="pl" points="408.9,374.6 408.9,353.0 426.3,353.0 426.3,374.6 408.9,374.6"/>
  <polygon class="pl" points="430.7,331.1 430.7,323.6 448.1,323.6 448.1,331.1 430.7,331.1"/>
  <polygon class="pl" points="583.0,510.7 583.0,478.9 600.4,478.9 600.4,510.7 583.0,510.7"/>
</g>
<g stroke="#000" stroke-width="0.90" fill="#5AA3D0"  clip-path="url(#axis_clip)">
  <polygon class="pl" points="583.0,478.9 583.0,478.2 600.4,478.2 600.4,478.9 583.0,478.9"/>
  <polygon class="pl" points="691.8,423.9 691.8,415.5 709.2,415.5 709.2,423.9 691.8,423.9"/>
  <polygon class="pl" points="713.5,408.8 713.5,393.8 730.9,393.8 730.9,408.8 713.5,408.8"/>
  <polygon class="pl" points="735.3,385.8 735.3,385.1 752.7,385.1 752.7,385.8 735.3,385.8"/>
  <polygon class="pl" points="757.1,398.0 757.1,396.1 774.5,396.1 774.5,398.0 757.1,398.0"/>
  <polygon class="pl" points="778.8,390.7 778.8,390.2 796.2,390.2 796.2,390.7 778.8,390.7"/>
  <polygon class="pl" points="800.6,390.0 800.6,389.1 818.0,389.1 818.0,390.0 800.6,390.0"/>
  <polygon class="pl" points="887.6,425.3 887.6,415.9 905.0,415.9 905.0,425.3 887.6,425.3"/>
</g>
<g stroke="#000" stroke-width="0.90" fill="#6AB561"  clip-path="url(#axis_clip)">
  <polygon class="pl" points="147.8,400.0 147.8,187.3 165.2,187.3 165.2,400.0 147.8,400.0"/>
  <polygon class="pl" points="169.5,407.3 169.5,187.3 186.9,187.3 186.9,407.3 169.5,407.3"/>
  <polygon class="pl" points="191.3,397.4 191.3,187.3 208.7,187.3 208.7,397.4 191.3,397.4"/>
  <polygon class="pl" points="213.1,417.6 213.1,187.3 230.5,187.3 230.5,417.6 213.1,417.6"/>
  <polygon class="pl" points="234.8,403.8 234.8,187.3 252.2,187.3 252.2,403.8 234.8,403.8"/>
  <polygon class="pl" points="256.6,333.6 256.6,187.3 274.0,187.3 274.0,333.6 256.6,333.6"/>
  <polygon class="pl" points="300.1,194.4 300.1,187.3 317.5,187.3 317.5,194.4 300.1,194.4"/>
  <polygon class="pl" points="321.9,442.9 321.9,187.3 339.3,187.3 339.3,442.9 321.9,442.9"/>
  <polygon class="pl" points="343.6,435.4 343.6,187.3 361.0,187.3 361.0,435.4 343.6,435.4"/>
  <polygon class="pl" points="365.4,483.3 365.4,187.3 382.8,187.3 382.8,483.3 365.4,483.3"/>
  <polygon class="pl" points="387.1,398.2 387.1,187.3 404.5,187.3 404.5,398.2 387.1,398.2"/>
  <polygon class="pl" points="408.9,353.0 408.9,187.3 426.3,187.3 426.3,353.0 408.9,353.0"/>
  <polygon class="pl" points="430.7,323.6 430.7,187.3 448.1,187.3 448.1,323.6 430.7,323.6"/>
  <polygon class="pl" points="452.4,313.6 452.4,187.3 469.8,187.3 469.8,313.6 452.4,313.6"/>
  <polygon class="pl" points="474.2,296.2 474.2,187.3 491.6,187.3 491.6,296.2 474.2,296.2"/>
  <polygon class="pl" points="495.9,307.4 495.9,187.3 513.3,187.3 513.3,307.4 495.9,307.4"/>
  <polygon class="pl" points="517.7,350.6 517.7,187.3 535.1,187.3 535.1,350.6 517.7,350.6"/>
  <polygon class="pl" points="539.5,397.6 539.5,187.3 556.9,187.3 556.9,397.6 539.5,397.6"/>
  <polygon class="pl" points="561.2,441.0 561.2,187.3 578.6,187.3 578.6,441.0 561.2,441.0"/>
  <polygon class="pl" points="583.0,478.2 583.0,187.3 600.4,187.3 600.4,478.2 583.0,478.2"/>
  <polygon class="pl" points="604.7,483.9 604.7,187.3 622.1,187.3 622.1,483.9 604.7,483.9"/>
  <polygon class="pl" points="626.5,468.8 626.5,187.3 643.9,187.3 643.9,468.8 626.5,468.8"/>
  <polygon class="pl" points="648.3,470.3 648.3,187.3 665.7,187.3 665.7,470.3 648.3,470.3"/>
  <polygon class="pl" points="670.0,437.8 670.0,187.3 687.4,187.3 687.4,437.8 670.0,437.8"/>
  <polygon class="pl" points="691.8,415.5 691.8,187.3 709.2,187.3 709.2,415.5 691.8,415.5"/>
  <polygon class="pl" points="713.5,393.8 713.5,187.3 730.9,187.3 730.9,393.8 713.5,393.8"/>
  <polygon class="pl" points="735.3,385.1 735.3,187.3 752.7,187.3 752.7,385.1 735.3,385.1"/>
  <polygon class="pl" points="757.1,396.1 757.1,187.3 774.5,187.3 774.5,396.1 757.1,396.1"/>
  <polygon class="pl" points="778.8,390.2 778.8,187.3 796.2,187.3 796.2,390.2 778.8,390.2"/>
  <polygon class="pl" points="800.6,389.1 800.6,187.3 818.0,187.3 818.0,389.1 800.6,389.1"/>
  <polygon class="pl" points="822.3,390.5 822.3,187.3 839.7,187.3 839.7,390.5 822.3,390.5"/>
  <polygon class="pl" points="844.1,390.7 844.1,187.3 861.5,187.3 861.5,390.7 844.1,390.7"/>
  <polygon class="pl" points="865.9,392.1 865.9,187.3 883.3,187.3 883.3,392.1 865.9,392.1"/>
  <polygon class="pl" points="887.6,415.9 887.6,187.3 905.0,187.3 905.0,415.9 887.6,415.9"/>
</g>
<polyline class="pl" points="156.5,318.4 178.2,355.8 200.0,348.9 221.8,396.5 243.5,388.6 265.3,339.3 287.0,152.1 308.8,199.6 330.6,462.7 352.3,435.3 374.1,510.3 395.8,428.8 417.6,370.5 439.4,352.9 461.1,324.9 482.9,295.4 504.6,264.8 526.4,325.0 548.2,346.7 569.9,396.8 591.7,545.5 613.4,500.5 635.2,478.7 657.0,468.9 678.7,439.1 700.5,424.2 722.2,407.5 744.0,380.1 765.8,385.1 787.5,370.4 809.3,377.9 831.0,383.6 852.8,400.9 874.6,397.8 896.3,448.3" stroke="#000" stroke-width="5.40" stroke-opacity="1.00" fill="none" clip-path="url(#axis_clip)"/>
<g class="pl" fill="#FFF" stroke="#000" stroke-width="0.900">
  <circle cx="178.2" cy="355.8" r="2.2" />
  <circle cx="200.0" cy="348.9" r="2.2" />
  <circle cx="221.8" cy="396.5" r="2.2" />
  <circle cx="243.5" cy="388.6" r="2.2" />
  <circle cx="265.3" cy="339.3" r="2.2" />
  <circle cx="287.0" cy="152.1" r="2.2" />
  <circle cx="308.8" cy="199.6" r="2.2" />
  <circle cx="330.6" cy="462.7" r="2.2" />
  <circle cx="352.3" cy="435.3" r="2.2" />
  <circle cx="395.8" cy="428.8" r="2.2" />
  <circle cx="417.6" cy="370.5" r="2.2" />
  <circle cx="439.4" cy="352.9" r="2.2" />
  <circle cx="461.1" cy="324.9" r="2.2" />
  <circle cx="482.9" cy="295.4" r="2.2" />
  <circle cx="504.6" cy="264.8" r="2.2" />
  <circle cx="526.4" cy="325.0" r="2.2" />
  <circle cx="548.2" cy="346.7" r="2.2" />
  <circle cx="569.9" cy="396.8" r="2.2" />
  <circle cx="613.4" cy="500.5" r="2.2" />
  <circle cx="635.2" cy="478.7" r="2.2" />
  <circle cx="657.0" cy="468.9" r="2.2" />
  <circle cx="678.7" cy="439.1" r="2.2" />
  <circle cx="700.5" cy="424.2" r="2.2" />
  <circle cx="722.2" cy="407.5" r="2.2" />
  <circle cx="744.0" cy="380.1" r="2.2" />
  <circle cx="765.8" cy="385.1" r="2.2" />
  <circle cx="787.5" cy="370.4" r="2.2" />
  <circle cx="831.0" cy="383.6" r="2.2" />
  <circle cx="852.8" cy="400.9" r="2.2" />
  <circle cx="874.6" cy="397.8" r="2.2" />
  <circle cx="896.3" cy="448.3" r="2.2" />
</g>
<g class="pl" fill="#FFF" stroke="#000" stroke-width="0.900">
  <circle cx="156.5" cy="318.4" r="5.4" />
  <circle cx="374.1" cy="510.3" r="5.4" />
  <circle cx="591.7" cy="545.5" r="5.4" />
  <circle cx="809.3" cy="377.9" r="5.4" />
</g>
<text transform="translate(145.6,47.2)" dy="0.0" font-size="27.00" fill="#808080" stroke="none">Annual LULUCF emissions: Lithuania</text>
<text transform="translate(130.0,81.6)" dy="8.1" font-size="27.00" fill="#808080" stroke="none" text-anchor="end">CO<tspan dy="0.2em"><tspan style="font-size:70%">2</tspan></tspan><tspan dy="-0.2em">e</tspan></text>
<text transform="translate(945.6,179.7)" dy="6.5" font-size="21.60" fill="#D95319" stroke="none">Grassland</text>
<text transform="translate(945.6,159.0)" dy="6.5" font-size="21.60" fill="#EDB120" stroke="none">Wetlands</text>
<text transform="translate(945.6,138.3)" dy="6.5" font-size="21.60" fill="#7B417F" stroke="none">Other land</text>
<text transform="translate(945.6,117.6)" dy="6.5" font-size="21.60" fill="#1A4D1A" stroke="none">Other</text>
<text transform="translate(945.6,301.6)" dy="6.5" font-size="21.60" fill="#6AB561" stroke="none">Forest land</text>
<text transform="translate(945.6,414.0)" dy="6.5" font-size="21.60" fill="#5AA3D0" stroke="none">Cropland</text>
<text transform="translate(945.6,434.7)" dy="6.5" font-size="21.60" fill="#808080" stroke="none">Settlements</text>
<text transform="translate(945.6,465.9)" dy="6.5" font-size="21.60" fill="#8B1E40" stroke="none">HWP</text>
<polyline class="pl" points="910.8,174.3 912.4,174.3 913.8,174.4 915.2,174.5 916.4,174.6 917.6,174.7 918.8,174.9 919.8,175.1 920.8,175.3 921.7,175.6 922.7,175.8 923.5,176.1 924.4,176.3 925.2,176.6 926.0,176.9 926.8,177.2 927.6,177.4 928.4,177.7 929.3,178.0 930.1,178.2 931.1,178.5 932.0,178.7 933.0,178.9 934.0,179.1 935.2,179.3 936.4,179.4 937.6,179.6 939.0,179.6 940.4,179.7 942.0,179.7" stroke="#D95319" stroke-width="0.90" stroke-opacity="1.00" fill="none" />
<polyline class="pl" points="910.8,149.5 912.4,149.6 913.8,149.6 915.2,149.8 916.4,150.0 917.6,150.3 918.8,150.6 919.8,150.9 920.8,151.3 921.7,151.7 922.7,152.1 923.5,152.6 924.4,153.0 925.2,153.5 926.0,154.0 926.8,154.5 927.6,155.0 928.4,155.5 929.3,155.9 930.1,156.4 931.1,156.8 932.0,157.2 933.0,157.6 934.0,158.0 935.2,158.3 936.4,158.5 937.6,158.7 939.0,158.9 940.4,159.0 942.0,159.0" stroke="#EDB120" stroke-width="0.90" stroke-opacity="1.00" fill="none" />
<polyline class="pl" points="910.8,136.1 912.4,136.2 913.8,136.2 915.2,136.2 916.4,136.3 917.6,136.3 918.8,136.4 919.8,136.5 920.8,136.5 921.7,136.6 922.7,136.7 923.5,136.8 924.4,136.9 925.2,137.0 926.0,137.2 926.8,137.3 927.6,137.4 928.4,137.5 929.3,137.6 930.1,137.7 931.1,137.8 932.0,137.9 933.0,138.0 934.0,138.0 935.2,138.1 936.4,138.2 937.6,138.2 939.0,138.2 940.4,138.3 942.0,138.3" stroke="#7B417F" stroke-width="0.90" stroke-opacity="1.00" fill="none" />
<polyline class="pl" points="910.8,134.6 912.4,134.5 913.8,134.4 915.2,134.1 916.4,133.7 917.6,133.2 918.8,132.7 919.8,132.1 920.8,131.4 921.7,130.7 922.7,129.9 923.5,129.1 924.4,128.2 925.2,127.4 926.0,126.5 926.8,125.6 927.6,124.8 928.4,123.9 929.3,123.0 930.1,122.2 931.1,121.5 932.0,120.7 933.0,120.1 934.0,119.4 935.2,118.9 936.4,118.4 937.6,118.1 939.0,117.8 940.4,117.6 942.0,117.6" stroke="#1A4D1A" stroke-width="0.90" stroke-opacity="1.00" fill="none" />
<polyline class="pl" points="910.8,420.6 912.4,420.6 913.8,420.5 915.2,420.4 916.4,420.3 917.6,420.1 918.8,419.9 919.8,419.6 920.8,419.4 921.7,419.1 922.7,418.8 923.5,418.5 924.4,418.1 925.2,417.8 926.0,417.5 926.8,417.1 927.6,416.8 928.4,416.4 929.3,416.1 930.1,415.8 931.1,415.5 932.0,415.2 933.0,415.0 934.0,414.7 935.2,414.5 936.4,414.3 937.6,414.2 939.0,414.1 940.4,414.0 942.0,414.0" stroke="#5AA3D0" stroke-width="0.90" stroke-opacity="1.00" fill="none" />
<polyline class="pl" points="910.8,428.1 912.4,428.1 913.8,428.2 915.2,428.3 916.4,428.4 917.6,428.6 918.8,428.8 919.8,429.1 920.8,429.3 921.7,429.6 922.7,429.9 923.5,430.2 924.4,430.5 925.2,430.9 926.0,431.2 926.8,431.6 927.6,431.9 928.4,432.2 929.3,432.6 930.1,432.9 931.1,433.2 932.0,433.5 933.0,433.7 934.0,434.0 935.2,434.2 936.4,434.4 937.6,434.5 939.0,434.6 940.4,434.7 942.0,434.7" stroke="#808080" stroke-width="0.90" stroke-opacity="1.00" fill="none" />
<text transform="translate(160.0,666.1)" font-size="19.80" font-family="Helvetica" fill="#BFBFBF" stroke="none" xml:space="preserve">CICERO   &#9679;   Data: UNFCCC (2026)   &#9679;   HWP = Harvested Wood Products</text>
<g>
  <rect x="123.0" y="651.4" width="34" height="17" fill="#FFF" stroke="none" opacity="0.01"/>
  <g transform="translate(124.0,652.4) scale(0.24)">
  <g><circle fill="#FFF" cx="37.79" cy="28.5" r="28.84"/>
     <circle fill="none" cx="37.79" cy="28.5" r="28.84" stroke="#BFBFBF" stroke-width="5.5"/>
     <path fill="#BFBFBF" d="M37.16,23.19 l-4.29,2.23c-0.458-0.951-1.02-1.62-1.69-2c-0.667-0.38-1.29-0.571-1.86-0.571c-2.86,0-4.29,1.89-4.29,5.66 c0,1.71,0.36,3.08,1.09,4.11c0.724,1.03,1.79,1.54,3.2,1.54c1.87,0,3.18-0.915,3.94-2.74l3.94,2 c-0.838,1.56-2,2.79-3.49,3.69c-1.48,0.896-3.12,1.34-4.91,1.34c-2.86,0-5.16-0.875-6.92-2.63 c-1.75-1.75-2.63-4.19-2.63-7.31c0-3.05,0.886-5.47,2.66-7.26c1.77-1.79,4.01-2.69,6.72-2.69 C32.6,18.56,35.44,20.1,37.16,23.19z
              M55.61,23.19l-4.23,2.23c-0.457-0.951-1.02-1.62-1.69-2 c-0.668-0.38-1.31-0.571-1.91-0.571c-2.86,0-4.29,1.89-4.29,5.66c0,1.71,0.363,3.08,1.09,4.11 c0.723,1.03,1.79,1.54,3.2,1.54c1.87,0,3.18-0.915,3.94-2.74l4,2c-0.875,1.56-2.06,2.79-3.54,3.69 c-1.49,0.9-3.11,1.34-4.86,1.34c-2.9,0-5.21-0.875-6.94-2.63c-1.74-1.75-2.6-4.19-2.6-7.31 c0-3.05,0.885-5.47,2.66-7.26c1.77-1.79,4.01-2.69,6.71-2.69C51.12,18.56,53.944,20.1,55.61,23.19z"/>
  </g></g>
  <g transform="translate(140.2,652.4) scale(0.24)">
  <g><circle fill="#FFF" cx="37.79" cy="28.5" r="28.84"/>
     <circle fill="none" cx="37.79" cy="28.5" r="28.84" stroke="#BFBFBF" stroke-width="5.5"/>
     <path fill="#BFBFBF" d="M46.129,20.557v13.085h-3.656v15.542h-9.944V33.643h-3.656V20.557 c0-0.572,0.2-1.057,0.599-1.457c0.401-0.399,0.887-0.6,1.457-0.6h13.144c0.533,0,1.01,0.2,1.428,0.6 C45.918,19.5,46.129,19.986,46.129,20.557z
              M33.042,12.329c0-3.008,1.485-4.514,4.458-4.514s4.457,1.504,4.457,4.514 c0,2.971-1.486,4.457-4.457,4.457S33.042,15.3,33.042,12.329z"/>
  </g></g>
</g>
</g>
</svg>
