<svg version="1.1" xmlns="http://www.w3.org/2000/svg" xmlns:xlink="http://www.w3.org/1999/xlink" width="100%" height="100%" viewBox="0 0 1200.000 674.916">
<title>Annual LULUCF emissions: United States of America</title>
<style type="text/css">
  #main {font-family:Helvetica,Arial,sans-serif; font-size:27.00px;
         fill-opacity:1; fill:#000000; stroke:none; stroke-linejoin:round; stroke-linecap:round; stroke-width:1.00;}
  .marker {stroke-opacity:0;fill-opacity:0;}
  .marker:hover {stroke-opacity:0.5; fill-opacity:1;}
  .ticklabel {font-size:27.00px;fill:#808080;stroke:none;font-family:Helvetica}
  .ytl {text-anchor:end;}
  .dp1 {pointer-events:none;font-size:70%;text-anchor:middle;fill:#000000;}
  .dp2 {pointer-events:none;font-size:70%;text-anchor:middle;fill:#FFFFFF;}
  .numtip {pointer-events:none;}
  .cc {opacity:0.25;}
.dl_fe {background-color:#FDFFDF;display:flex;margin:auto;align-items:center}
.dl_fe_p {font-size:20px;text-align:center;margin:3px}
.dl_el {display:none;pointer-events:none;}
.cc:hover + .dl_el {display:block;}
text:hover + .dl_el {display:block;}
</style>
<defs>
  <clipPath id="axis_clip"><rect x="145.8" y="54.2" width="761.2" height="532.8" /></clipPath>
  <path id="line_x" d="M 145.600,0 h 761.600" stroke="#262626" stroke-opacity="0.15" stroke-width="1.00"/>
  <path id="tick_y" d="M 145.600,0 h -6.000" stroke="#808080" stroke-width="0.90"/>
  <path id="tick_x" d="M 0,587.177 v 6.000" stroke="#808080" stroke-width="0.90"/>
</defs>
<g id="main">
<use xlink:href="#line_x" transform="translate(0,587.2)"/>
<use xlink:href="#line_x" transform="translate(0,434.8)"/>
<use xlink:href="#line_x" transform="translate(0,282.5)"/>
<use xlink:href="#line_x" transform="translate(0,130.2)"/>
<use xlink:href="#tick_y" transform="translate(0,587.2)"/>
<use xlink:href="#tick_y" transform="translate(0,434.8)"/>
<use xlink:href="#tick_y" transform="translate(0,282.5)"/>
<use xlink:href="#tick_y" transform="translate(0,130.2)"/>
<use xlink:href="#tick_x" transform="translate(157.1,0)"/>
<use xlink:href="#tick_x" transform="translate(272.5,0)"/>
<use xlink:href="#tick_x" transform="translate(387.9,0)"/>
<use xlink:href="#tick_x" transform="translate(503.3,0)"/>
<use xlink:href="#tick_x" transform="translate(618.7,0)"/>
<use xlink:href="#tick_x" transform="translate(734.1,0)"/>
<use xlink:href="#tick_x" transform="translate(895.7,0)"/>
<polyline points="145.6,53.993 145.6,587.177 907.2,587.177" stroke="#808080" stroke-width="0.90" fill="none"/>
<text class="ticklabel xtl" transform="translate(157.1,629.0)" text-anchor="middle">1990</text>
<text class="ticklabel xtl" transform="translate(272.5,629.0)" text-anchor="middle">1995</text>
<text class="ticklabel xtl" transform="translate(387.9,629.0)" text-anchor="middle">2000</text>
<text class="ticklabel xtl" transform="translate(503.3,629.0)" text-anchor="middle">2005</text>
<text class="ticklabel xtl" transform="translate(618.7,629.0)" text-anchor="middle">2010</text>
<text class="ticklabel xtl" transform="translate(734.1,629.0)" text-anchor="middle">2015</text>
<text class="ticklabel xtl" transform="translate(895.7,629.0)" text-anchor="middle">2022</text>
<text class="ticklabel ytl" transform="translate(128.8,595.3)">-1200</text>
<text class="ticklabel ytl" transform="translate(128.8,442.9)">-800</text>
<text class="ticklabel ytl" transform="translate(128.8,290.6)">-400</text>
<text class="ticklabel ytl" transform="translate(128.8,138.3)">0 Mt</text>
<g stroke="#000" stroke-width="0.90" fill="#7A685F"  clip-path="url(#axis_clip)">
</g>
<g stroke="#000" stroke-width="0.90" fill="#7B417F"  clip-path="url(#axis_clip)">
</g>
<g stroke="#000" stroke-width="0.90" fill="#EDB120"  clip-path="url(#axis_clip)">
  <polygon points="517.2,117.3 517.2,117.6 535.6,117.6 535.6,117.3 517.2,117.3"/>
  <polygon points="540.2,110.0 540.2,110.4 558.7,110.4 558.7,110.0 540.2,110.0"/>
  <polygon points="563.3,117.8 563.3,118.1 581.8,118.1 581.8,117.8 563.3,117.8"/>
  <polygon points="586.4,110.2 586.4,110.5 604.9,110.5 604.9,110.2 586.4,110.2"/>
  <polygon points="609.5,106.0 609.5,106.3 627.9,106.3 627.9,106.0 609.5,106.0"/>
</g>
<g stroke="#000" stroke-width="0.90" fill="#D95319"  clip-path="url(#axis_clip)">
  <polygon points="147.9,92.1 147.9,114.8 166.4,114.8 166.4,92.1 147.9,92.1"/>
  <polygon points="171.0,95.9 171.0,119.5 189.4,119.5 189.4,95.9 171.0,95.9"/>
  <polygon points="194.1,101.9 194.1,123.9 212.5,123.9 212.5,101.9 194.1,101.9"/>
  <polygon points="217.1,98.5 217.1,119.8 235.6,119.8 235.6,98.5 217.1,98.5"/>
  <polygon points="240.2,108.7 240.2,122.9 258.7,122.9 258.7,108.7 240.2,108.7"/>
  <polygon points="263.3,102.0 263.3,120.8 281.8,120.8 281.8,102.0 263.3,102.0"/>
  <polygon points="286.4,114.8 286.4,129.3 304.8,129.3 304.8,114.8 286.4,114.8"/>
  <polygon points="309.5,105.3 309.5,128.0 327.9,128.0 327.9,105.3 309.5,105.3"/>
  <polygon points="332.5,111.3 332.5,127.1 351.0,127.1 351.0,111.3 332.5,111.3"/>
  <polygon points="355.6,106.7 355.6,126.8 374.1,126.8 374.1,106.7 355.6,106.7"/>
  <polygon points="378.7,122.3 378.7,130.2 397.2,130.2 397.2,122.3 378.7,122.3"/>
  <polygon points="401.8,116.0 401.8,130.1 420.2,130.1 420.2,116.0 401.8,116.0"/>
  <polygon points="424.9,114.9 424.9,130.2 443.3,130.2 443.3,114.9 424.9,114.9"/>
  <polygon points="447.9,113.2 447.9,127.6 466.4,127.6 466.4,113.2 447.9,113.2"/>
  <polygon points="471.0,114.5 471.0,129.8 489.5,129.8 489.5,114.5 471.0,114.5"/>
  <polygon points="494.1,111.6 494.1,129.1 512.6,129.1 512.6,111.6 494.1,111.6"/>
  <polygon points="517.2,117.6 517.2,128.6 535.6,128.6 535.6,117.6 517.2,117.6"/>
  <polygon points="540.2,110.4 540.2,127.6 558.7,127.6 558.7,110.4 540.2,110.4"/>
  <polygon points="563.3,118.1 563.3,130.2 581.8,130.2 581.8,118.1 563.3,118.1"/>
  <polygon points="586.4,110.5 586.4,124.3 604.9,124.3 604.9,110.5 586.4,110.5"/>
  <polygon points="609.5,106.3 609.5,125.4 627.9,125.4 627.9,106.3 609.5,106.3"/>
  <polygon points="632.6,116.9 632.6,130.2 651.0,130.2 651.0,116.9 632.6,116.9"/>
  <polygon points="655.6,116.4 655.6,128.3 674.1,128.3 674.1,116.4 655.6,116.4"/>
  <polygon points="678.7,105.4 678.7,123.5 697.2,123.5 697.2,105.4 678.7,105.4"/>
  <polygon points="701.8,106.0 701.8,126.5 720.3,126.5 720.3,106.0 701.8,106.0"/>
  <polygon points="724.9,109.1 724.9,126.6 743.3,126.6 743.3,109.1 724.9,109.1"/>
  <polygon points="748.0,100.6 748.0,125.7 766.4,125.7 766.4,100.6 748.0,100.6"/>
  <polygon points="771.0,104.7 771.0,124.7 789.5,124.7 789.5,104.7 771.0,104.7"/>
  <polygon points="794.1,104.3 794.1,124.8 812.6,124.8 812.6,104.3 794.1,104.3"/>
  <polygon points="817.2,105.1 817.2,125.6 835.7,125.6 835.7,105.1 817.2,105.1"/>
  <polygon points="840.3,105.3 840.3,122.4 858.7,122.4 858.7,105.3 840.3,105.3"/>
  <polygon points="863.4,115.7 863.4,129.0 881.8,129.0 881.8,115.7 863.4,115.7"/>
  <polygon points="886.4,114.0 886.4,128.9 904.9,128.9 904.9,114.0 886.4,114.0"/>
</g>
<g stroke="#000" stroke-width="0.90" fill="#5AA3D0"  clip-path="url(#axis_clip)">
  <polygon points="147.9,114.8 147.9,130.2 166.4,130.2 166.4,114.8 147.9,114.8"/>
  <polygon points="171.0,119.5 171.0,130.2 189.4,130.2 189.4,119.5 171.0,119.5"/>
  <polygon points="194.1,123.9 194.1,130.2 212.5,130.2 212.5,123.9 194.1,123.9"/>
  <polygon points="217.1,119.8 217.1,130.2 235.6,130.2 235.6,119.8 217.1,119.8"/>
  <polygon points="240.2,122.9 240.2,130.2 258.7,130.2 258.7,122.9 240.2,122.9"/>
  <polygon points="263.3,120.8 263.3,130.2 281.8,130.2 281.8,120.8 263.3,120.8"/>
  <polygon points="286.4,129.3 286.4,130.2 304.8,130.2 304.8,129.3 286.4,129.3"/>
  <polygon points="309.5,128.0 309.5,130.2 327.9,130.2 327.9,128.0 309.5,128.0"/>
  <polygon points="332.5,127.1 332.5,130.2 351.0,130.2 351.0,127.1 332.5,127.1"/>
  <polygon points="355.6,126.8 355.6,130.2 374.1,130.2 374.1,126.8 355.6,126.8"/>
  <polygon points="401.8,130.1 401.8,130.2 420.2,130.2 420.2,130.1 401.8,130.1"/>
  <polygon points="447.9,127.6 447.9,130.2 466.4,130.2 466.4,127.6 447.9,127.6"/>
  <polygon points="471.0,129.8 471.0,130.2 489.5,130.2 489.5,129.8 471.0,129.8"/>
  <polygon points="494.1,129.1 494.1,130.2 512.6,130.2 512.6,129.1 494.1,129.1"/>
  <polygon points="517.2,128.6 517.2,130.2 535.6,130.2 535.6,128.6 517.2,128.6"/>
  <polygon points="540.2,127.6 540.2,130.2 558.7,130.2 558.7,127.6 540.2,127.6"/>
  <polygon points="586.4,124.3 586.4,130.2 604.9,130.2 604.9,124.3 586.4,124.3"/>
  <polygon points="609.5,125.4 609.5,130.2 627.9,130.2 627.9,125.4 609.5,125.4"/>
  <polygon points="655.6,128.3 655.6,130.2 674.1,130.2 674.1,128.3 655.6,128.3"/>
  <polygon points="678.7,123.5 678.7,130.2 697.2,130.2 697.2,123.5 678.7,123.5"/>
  <polygon points="701.8,126.5 701.8,130.2 720.3,130.2 720.3,126.5 701.8,126.5"/>
  <polygon points="724.9,126.6 724.9,130.2 743.3,130.2 743.3,126.6 724.9,126.6"/>
  <polygon points="748.0,125.7 748.0,130.2 766.4,130.2 766.4,125.7 748.0,125.7"/>
  <polygon points="771.0,124.7 771.0,130.2 789.5,130.2 789.5,124.7 771.0,124.7"/>
  <polygon points="794.1,124.8 794.1,130.2 812.6,130.2 812.6,124.8 794.1,124.8"/>
  <polygon points="817.2,125.6 817.2,130.2 835.7,130.2 835.7,125.6 817.2,125.6"/>
  <polygon points="840.3,122.4 840.3,130.2 858.7,130.2 858.7,122.4 840.3,122.4"/>
  <polygon points="863.4,129.0 863.4,130.2 881.8,130.2 881.8,129.0 863.4,129.0"/>
  <polygon points="886.4,128.9 886.4,130.2 904.9,130.2 904.9,128.9 886.4,128.9"/>
</g>
<g stroke="#000" stroke-width="0.90" fill="#7A685F"  clip-path="url(#axis_clip)">
</g>
<g stroke="#000" stroke-width="0.90" fill="#8B1E40"  clip-path="url(#axis_clip)">
  <polygon points="147.9,562.3 147.9,515.2 166.4,515.2 166.4,562.3 147.9,562.3"/>
  <polygon points="171.0,562.7 171.0,515.5 189.4,515.5 189.4,562.7 171.0,562.7"/>
  <polygon points="194.1,562.6 194.1,516.6 212.5,516.6 212.5,562.6 194.1,562.6"/>
  <polygon points="217.1,560.0 217.1,513.4 235.6,513.4 235.6,560.0 217.1,560.0"/>
  <polygon points="240.2,556.3 240.2,511.2 258.7,511.2 258.7,556.3 240.2,556.3"/>
  <polygon points="263.3,552.0 263.3,509.3 281.8,509.3 281.8,552.0 263.3,552.0"/>
  <polygon points="286.4,552.2 286.4,507.5 304.8,507.5 304.8,552.2 286.4,552.2"/>
  <polygon points="309.5,550.5 309.5,507.0 327.9,507.0 327.9,550.5 309.5,550.5"/>
  <polygon points="332.5,549.0 332.5,503.7 351.0,503.7 351.0,549.0 332.5,549.0"/>
  <polygon points="355.6,544.5 355.6,501.6 374.1,501.6 374.1,544.5 355.6,544.5"/>
  <polygon points="378.7,536.6 378.7,501.0 397.2,501.0 397.2,536.6 378.7,536.6"/>
  <polygon points="401.8,538.9 401.8,501.6 420.2,501.6 420.2,538.9 401.8,538.9"/>
  <polygon points="424.9,523.1 424.9,487.4 443.3,487.4 443.3,523.1 424.9,523.1"/>
  <polygon points="447.9,535.5 447.9,495.9 466.4,495.9 466.4,535.5 447.9,535.5"/>
  <polygon points="471.0,502.6 471.0,462.5 489.5,462.5 489.5,502.6 471.0,502.6"/>
  <polygon points="494.1,520.7 494.1,480.3 512.6,480.3 512.6,520.7 494.1,520.7"/>
  <polygon points="517.2,529.1 517.2,490.9 535.6,490.9 535.6,529.1 517.2,529.1"/>
  <polygon points="540.2,518.3 540.2,489.3 558.7,489.3 558.7,518.3 540.2,518.3"/>
  <polygon points="563.3,513.1 563.3,492.4 581.8,492.4 581.8,513.1 563.3,513.1"/>
  <polygon points="586.4,498.7 586.4,475.5 604.9,475.5 604.9,498.7 586.4,498.7"/>
  <polygon points="609.5,512.9 609.5,486.6 627.9,486.6 627.9,512.9 609.5,512.9"/>
  <polygon points="632.6,525.0 632.6,498.0 651.0,498.0 651.0,525.0 632.6,525.0"/>
  <polygon points="655.6,521.5 655.6,492.3 674.1,492.3 674.1,521.5 655.6,521.5"/>
  <polygon points="678.7,516.5 678.7,485.0 697.2,485.0 697.2,516.5 678.7,516.5"/>
  <polygon points="701.8,527.7 701.8,494.9 720.3,494.9 720.3,527.7 701.8,527.7"/>
  <polygon points="724.9,492.5 724.9,457.7 743.3,457.7 743.3,492.5 724.9,492.5"/>
  <polygon points="748.0,530.6 748.0,494.2 766.4,494.2 766.4,530.6 748.0,530.6"/>
  <polygon points="771.0,533.4 771.0,495.3 789.5,495.3 789.5,533.4 771.0,533.4"/>
  <polygon points="794.1,528.6 794.1,492.8 812.6,492.8 812.6,528.6 794.1,528.6"/>
  <polygon points="817.2,506.2 817.2,473.1 835.7,473.1 835.7,506.2 817.2,506.2"/>
  <polygon points="840.3,525.5 840.3,488.6 858.7,488.6 858.7,525.5 840.3,525.5"/>
  <polygon points="863.4,519.2 863.4,483.1 881.8,483.1 881.8,519.2 863.4,519.2"/>
  <polygon points="886.4,497.4 886.4,462.0 904.9,462.0 904.9,497.4 886.4,497.4"/>
</g>
<g stroke="#000" stroke-width="0.90" fill="#7B417F"  clip-path="url(#axis_clip)">
</g>
<g stroke="#000" stroke-width="0.90" fill="#CCC"  clip-path="url(#axis_clip)">
  <polygon points="147.9,515.2 147.9,494.6 166.4,494.6 166.4,515.2 147.9,515.2"/>
  <polygon points="171.0,515.5 171.0,495.2 189.4,495.2 189.4,515.5 171.0,515.5"/>
  <polygon points="194.1,516.6 194.1,497.6 212.5,497.6 212.5,516.6 194.1,516.6"/>
  <polygon points="217.1,513.4 217.1,495.3 235.6,495.3 235.6,513.4 217.1,513.4"/>
  <polygon points="240.2,511.2 240.2,494.4 258.7,494.4 258.7,511.2 240.2,511.2"/>
  <polygon points="263.3,509.3 263.3,493.3 281.8,493.3 281.8,509.3 263.3,509.3"/>
  <polygon points="286.4,507.5 286.4,491.8 304.8,491.8 304.8,507.5 286.4,507.5"/>
  <polygon points="309.5,507.0 309.5,491.9 327.9,491.9 327.9,507.0 309.5,507.0"/>
  <polygon points="332.5,503.7 332.5,488.6 351.0,488.6 351.0,503.7 332.5,503.7"/>
  <polygon points="355.6,501.6 355.6,486.1 374.1,486.1 374.1,501.6 355.6,501.6"/>
  <polygon points="378.7,501.0 378.7,485.8 397.2,485.8 397.2,501.0 378.7,501.0"/>
  <polygon points="401.8,501.6 401.8,486.2 420.2,486.2 420.2,501.6 401.8,501.6"/>
  <polygon points="424.9,487.4 424.9,472.9 443.3,472.9 443.3,487.4 424.9,487.4"/>
  <polygon points="447.9,495.9 447.9,481.1 466.4,481.1 466.4,495.9 447.9,495.9"/>
  <polygon points="471.0,462.5 471.0,447.2 489.5,447.2 489.5,462.5 471.0,462.5"/>
  <polygon points="494.1,480.3 494.1,464.6 512.6,464.6 512.6,480.3 494.1,480.3"/>
  <polygon points="517.2,490.9 517.2,475.0 535.6,475.0 535.6,490.9 517.2,490.9"/>
  <polygon points="540.2,489.3 540.2,473.0 558.7,473.0 558.7,489.3 540.2,489.3"/>
  <polygon points="563.3,492.4 563.3,474.8 581.8,474.8 581.8,492.4 563.3,492.4"/>
  <polygon points="586.4,475.5 586.4,457.1 604.9,457.1 604.9,475.5 586.4,475.5"/>
  <polygon points="609.5,486.6 609.5,467.9 627.9,467.9 627.9,486.6 609.5,486.6"/>
  <polygon points="632.6,498.0 632.6,478.9 651.0,478.9 651.0,498.0 632.6,498.0"/>
  <polygon points="655.6,492.3 655.6,473.2 674.1,473.2 674.1,492.3 655.6,492.3"/>
  <polygon points="678.7,485.0 678.7,465.1 697.2,465.1 697.2,485.0 678.7,485.0"/>
  <polygon points="701.8,494.9 701.8,474.4 720.3,474.4 720.3,494.9 701.8,494.9"/>
  <polygon points="724.9,457.7 724.9,437.0 743.3,437.0 743.3,457.7 724.9,457.7"/>
  <polygon points="748.0,494.2 748.0,473.3 766.4,473.3 766.4,494.2 748.0,494.2"/>
  <polygon points="771.0,495.3 771.0,472.3 789.5,472.3 789.5,495.3 771.0,495.3"/>
  <polygon points="794.1,492.8 794.1,469.2 812.6,469.2 812.6,492.8 794.1,492.8"/>
  <polygon points="817.2,473.1 817.2,448.8 835.7,448.8 835.7,473.1 817.2,473.1"/>
  <polygon points="840.3,488.6 840.3,463.7 858.7,463.7 858.7,488.6 840.3,488.6"/>
  <polygon points="863.4,483.1 863.4,457.7 881.8,457.7 881.8,483.1 863.4,483.1"/>
  <polygon points="886.4,462.0 886.4,436.7 904.9,436.7 904.9,462.0 886.4,462.0"/>
</g>
<g stroke="#000" stroke-width="0.90" fill="#EDB120"  clip-path="url(#axis_clip)">
  <polygon points="147.9,494.6 147.9,492.4 166.4,492.4 166.4,494.6 147.9,494.6"/>
  <polygon points="171.0,495.2 171.0,493.0 189.4,493.0 189.4,495.2 171.0,495.2"/>
  <polygon points="194.1,497.6 194.1,495.2 212.5,495.2 212.5,497.6 194.1,497.6"/>
  <polygon points="217.1,495.3 217.1,492.9 235.6,492.9 235.6,495.3 217.1,495.3"/>
  <polygon points="240.2,494.4 240.2,491.8 258.7,491.8 258.7,494.4 240.2,494.4"/>
  <polygon points="263.3,493.3 263.3,490.6 281.8,490.6 281.8,493.3 263.3,493.3"/>
  <polygon points="286.4,491.8 286.4,489.1 304.8,489.1 304.8,491.8 286.4,491.8"/>
  <polygon points="309.5,491.9 309.5,489.1 327.9,489.1 327.9,491.9 309.5,491.9"/>
  <polygon points="332.5,488.6 332.5,485.7 351.0,485.7 351.0,488.6 332.5,488.6"/>
  <polygon points="355.6,486.1 355.6,483.1 374.1,483.1 374.1,486.1 355.6,486.1"/>
  <polygon points="378.7,485.8 378.7,482.8 397.2,482.8 397.2,485.8 378.7,485.8"/>
  <polygon points="401.8,486.2 401.8,483.3 420.2,483.3 420.2,486.2 401.8,486.2"/>
  <polygon points="424.9,472.9 424.9,469.9 443.3,469.9 443.3,472.9 424.9,472.9"/>
  <polygon points="447.9,481.1 447.9,478.0 466.4,478.0 466.4,481.1 447.9,481.1"/>
  <polygon points="471.0,447.2 471.0,444.2 489.5,444.2 489.5,447.2 471.0,447.2"/>
  <polygon points="494.1,464.6 494.1,461.5 512.6,461.5 512.6,464.6 494.1,464.6"/>
  <polygon points="632.6,478.9 632.6,475.2 651.0,475.2 651.0,478.9 632.6,478.9"/>
  <polygon points="655.6,473.2 655.6,469.3 674.1,469.3 674.1,473.2 655.6,473.2"/>
  <polygon points="678.7,465.1 678.7,461.2 697.2,461.2 697.2,465.1 678.7,465.1"/>
  <polygon points="701.8,474.4 701.8,470.5 720.3,470.5 720.3,474.4 701.8,474.4"/>
  <polygon points="724.9,437.0 724.9,433.2 743.3,433.2 743.3,437.0 724.9,437.0"/>
  <polygon points="748.0,473.3 748.0,469.5 766.4,469.5 766.4,473.3 748.0,473.3"/>
  <polygon points="771.0,472.3 771.0,468.5 789.5,468.5 789.5,472.3 771.0,472.3"/>
  <polygon points="794.1,469.2 794.1,465.3 812.6,465.3 812.6,469.2 794.1,469.2"/>
  <polygon points="817.2,448.8 817.2,444.9 835.7,444.9 835.7,448.8 817.2,448.8"/>
  <polygon points="840.3,463.7 840.3,459.8 858.7,459.8 858.7,463.7 840.3,463.7"/>
  <polygon points="863.4,457.7 863.4,453.8 881.8,453.8 881.8,457.7 863.4,457.7"/>
  <polygon points="886.4,436.7 886.4,432.8 904.9,432.8 904.9,436.7 886.4,436.7"/>
</g>
<g stroke="#000" stroke-width="0.90" fill="#5AA3D0"  clip-path="url(#axis_clip)">
  <polygon points="378.7,482.8 378.7,482.5 397.2,482.5 397.2,482.8 378.7,482.8"/>
  <polygon points="424.9,469.9 424.9,468.9 443.3,468.9 443.3,469.9 424.9,469.9"/>
  <polygon points="563.3,474.8 563.3,473.5 581.8,473.5 581.8,474.8 563.3,474.8"/>
  <polygon points="632.6,475.2 632.6,471.8 651.0,471.8 651.0,475.2 632.6,475.2"/>
</g>
<g stroke="#000" stroke-width="0.90" fill="#6AB561"  clip-path="url(#axis_clip)">
  <polygon points="147.9,492.4 147.9,130.2 166.4,130.2 166.4,492.4 147.9,492.4"/>
  <polygon points="171.0,493.0 171.0,130.2 189.4,130.2 189.4,493.0 171.0,493.0"/>
  <polygon points="194.1,495.2 194.1,130.2 212.5,130.2 212.5,495.2 194.1,495.2"/>
  <polygon points="217.1,492.9 217.1,130.2 235.6,130.2 235.6,492.9 217.1,492.9"/>
  <polygon points="240.2,491.8 240.2,130.2 258.7,130.2 258.7,491.8 240.2,491.8"/>
  <polygon points="263.3,490.6 263.3,130.2 281.8,130.2 281.8,490.6 263.3,490.6"/>
  <polygon points="286.4,489.1 286.4,130.2 304.8,130.2 304.8,489.1 286.4,489.1"/>
  <polygon points="309.5,489.1 309.5,130.2 327.9,130.2 327.9,489.1 309.5,489.1"/>
  <polygon points="332.5,485.7 332.5,130.2 351.0,130.2 351.0,485.7 332.5,485.7"/>
  <polygon points="355.6,483.1 355.6,130.2 374.1,130.2 374.1,483.1 355.6,483.1"/>
  <polygon points="378.7,482.5 378.7,130.2 397.2,130.2 397.2,482.5 378.7,482.5"/>
  <polygon points="401.8,483.3 401.8,130.2 420.2,130.2 420.2,483.3 401.8,483.3"/>
  <polygon points="424.9,468.9 424.9,130.2 443.3,130.2 443.3,468.9 424.9,468.9"/>
  <polygon points="447.9,478.0 447.9,130.2 466.4,130.2 466.4,478.0 447.9,478.0"/>
  <polygon points="471.0,444.2 471.0,130.2 489.5,130.2 489.5,444.2 471.0,444.2"/>
  <polygon points="494.1,461.5 494.1,130.2 512.6,130.2 512.6,461.5 494.1,461.5"/>
  <polygon points="517.2,475.0 517.2,130.2 535.6,130.2 535.6,475.0 517.2,475.0"/>
  <polygon points="540.2,473.0 540.2,130.2 558.7,130.2 558.7,473.0 540.2,473.0"/>
  <polygon points="563.3,473.5 563.3,130.2 581.8,130.2 581.8,473.5 563.3,473.5"/>
  <polygon points="586.4,457.1 586.4,130.2 604.9,130.2 604.9,457.1 586.4,457.1"/>
  <polygon points="609.5,467.9 609.5,130.2 627.9,130.2 627.9,467.9 609.5,467.9"/>
  <polygon points="632.6,471.8 632.6,130.2 651.0,130.2 651.0,471.8 632.6,471.8"/>
  <polygon points="655.6,469.3 655.6,130.2 674.1,130.2 674.1,469.3 655.6,469.3"/>
  <polygon points="678.7,461.2 678.7,130.2 697.2,130.2 697.2,461.2 678.7,461.2"/>
  <polygon points="701.8,470.5 701.8,130.2 720.3,130.2 720.3,470.5 701.8,470.5"/>
  <polygon points="724.9,433.2 724.9,130.2 743.3,130.2 743.3,433.2 724.9,433.2"/>
  <polygon points="748.0,469.5 748.0,130.2 766.4,130.2 766.4,469.5 748.0,469.5"/>
  <polygon points="771.0,468.5 771.0,130.2 789.5,130.2 789.5,468.5 771.0,468.5"/>
  <polygon points="794.1,465.3 794.1,130.2 812.6,130.2 812.6,465.3 794.1,465.3"/>
  <polygon points="817.2,444.9 817.2,130.2 835.7,130.2 835.7,444.9 817.2,444.9"/>
  <polygon points="840.3,459.8 840.3,130.2 858.7,130.2 858.7,459.8 840.3,459.8"/>
  <polygon points="863.4,453.8 863.4,130.2 881.8,130.2 881.8,453.8 863.4,453.8"/>
  <polygon points="886.4,432.8 886.4,130.2 904.9,130.2 904.9,432.8 886.4,432.8"/>
</g>
<polyline class="pl" points="157.1,524.2 180.2,528.4 203.3,534.3 226.4,528.4 249.5,534.9 272.5,523.9 295.6,536.8 318.7,525.6 341.8,530.2 364.8,521.0 387.9,528.8 411.0,524.8 434.1,507.9 457.2,518.6 480.2,487.0 503.3,502.1 526.4,516.3 549.5,498.2 572.6,500.8 595.6,478.6 618.7,488.8 641.8,511.7 664.9,507.7 688.0,491.7 711.0,503.5 734.1,471.5 757.2,501.0 780.3,507.9 803.3,502.7 826.4,481.2 849.5,500.6 872.6,504.7 895.7,481.2" stroke="#000" stroke-width="5.40" stroke-opacity="1.00" fill="none" clip-path="url(#axis_clip)"/>
<g class="pl" fill="#FFF" stroke="#000" stroke-width="0.900">
  <circle cx="180.2" cy="528.4" r="2.2" />
  <circle cx="203.3" cy="534.3" r="2.2" />
  <circle cx="226.4" cy="528.4" r="2.2" />
  <circle cx="249.5" cy="534.9" r="2.2" />
  <circle cx="272.5" cy="523.9" r="2.2" />
  <circle cx="295.6" cy="536.8" r="2.2" />
  <circle cx="318.7" cy="525.6" r="2.2" />
  <circle cx="341.8" cy="530.2" r="2.2" />
  <circle cx="364.8" cy="521.0" r="2.2" />
  <circle cx="411.0" cy="524.8" r="2.2" />
  <circle cx="434.1" cy="507.9" r="2.2" />
  <circle cx="457.2" cy="518.6" r="2.2" />
  <circle cx="480.2" cy="487.0" r="2.2" />
  <circle cx="503.3" cy="502.1" r="2.2" />
  <circle cx="526.4" cy="516.3" r="2.2" />
  <circle cx="549.5" cy="498.2" r="2.2" />
  <circle cx="572.6" cy="500.8" r="2.2" />
  <circle cx="595.6" cy="478.6" r="2.2" />
  <circle cx="641.8" cy="511.7" r="2.2" />
  <circle cx="664.9" cy="507.7" r="2.2" />
  <circle cx="688.0" cy="491.7" r="2.2" />
  <circle cx="711.0" cy="503.5" r="2.2" />
  <circle cx="734.1" cy="471.5" r="2.2" />
  <circle cx="757.2" cy="501.0" r="2.2" />
  <circle cx="780.3" cy="507.9" r="2.2" />
  <circle cx="803.3" cy="502.7" r="2.2" />
  <circle cx="826.4" cy="481.2" r="2.2" />
  <circle cx="872.6" cy="504.7" r="2.2" />
  <circle cx="895.7" cy="481.2" r="2.2" />
</g>
<g class="pl" fill="#FFF" stroke="#000" stroke-width="0.900">
  <circle cx="157.1" cy="524.2" r="5.4" />
  <circle cx="387.9" cy="528.8" r="5.4" />
  <circle cx="618.7" cy="488.8" r="5.4" />
  <circle cx="849.5" cy="500.6" r="5.4" />
</g>
<text transform="translate(956.1,149.9)" dy="6.5" font-size="21.60" fill="#5AA3D0" stroke="none">Cropland</text>
<text transform="translate(956.1,129.8)" dy="6.5" font-size="21.60" fill="#D95319" stroke="none">Grassland</text>
<text transform="translate(956.1,109.7)" dy="6.5" font-size="21.60" fill="#7B417F" stroke="none">Other land</text>
<text transform="translate(956.1,89.6)" dy="6.5" font-size="21.60" fill="#7A685F" stroke="none">Other</text>
<text transform="translate(956.1,281.5)" dy="6.5" font-size="21.60" fill="#6AB561" stroke="none">Forest land</text>
<text transform="translate(956.1,432.0)" dy="6.5" font-size="21.60" fill="#EDB120" stroke="none">Wetlands</text>
<text transform="translate(956.1,452.1)" dy="6.5" font-size="21.60" fill="#CCC" stroke="none">Settlements</text>
<text transform="translate(956.1,479.7)" dy="6.5" font-size="21.60" fill="#8B1E40" stroke="none">HWP</text>
<polyline class="pl" points="926.4,129.5 927.8,129.6 929.0,129.8 930.2,130.1 931.2,130.6 932.3,131.1 933.2,131.8 934.1,132.5 935.0,133.3 935.8,134.2 936.5,135.1 937.3,136.1 938.0,137.1 938.7,138.1 939.4,139.2 940.1,140.2 940.8,141.3 941.5,142.3 942.2,143.3 942.9,144.3 943.7,145.2 944.5,146.1 945.4,146.9 946.3,147.7 947.2,148.3 948.2,148.9 949.3,149.3 950.5,149.6 951.7,149.9 953.1,149.9" stroke="#5AA3D0" stroke-width="0.90" stroke-opacity="1.00" fill="none" />
<polyline class="pl" points="926.4,121.4 927.8,121.5 929.0,121.6 930.2,121.7 931.2,121.9 932.3,122.1 933.2,122.4 934.1,122.7 935.0,123.0 935.8,123.4 936.5,123.7 937.3,124.1 938.0,124.6 938.7,125.0 939.4,125.4 940.1,125.8 940.8,126.3 941.5,126.7 942.2,127.1 942.9,127.5 943.7,127.9 944.5,128.3 945.4,128.6 946.3,128.9 947.2,129.1 948.2,129.4 949.3,129.6 950.5,129.7 951.7,129.8 953.1,129.8" stroke="#D95319" stroke-width="0.90" stroke-opacity="1.00" fill="none" />
<polyline class="pl" points="926.4,114.0 927.8,114.0 929.0,114.0 930.2,113.9 931.2,113.8 932.3,113.7 933.2,113.5 934.1,113.4 935.0,113.2 935.8,113.0 936.5,112.8 937.3,112.6 938.0,112.4 938.7,112.2 939.4,112.0 940.1,111.7 940.8,111.5 941.5,111.3 942.2,111.1 942.9,110.9 943.7,110.7 944.5,110.5 945.4,110.3 946.3,110.2 947.2,110.0 948.2,109.9 949.3,109.8 950.5,109.8 951.7,109.7 953.1,109.7" stroke="#7B417F" stroke-width="0.90" stroke-opacity="1.00" fill="none" />
<polyline class="pl" points="926.4,114.0 927.8,113.9 929.0,113.7 930.2,113.3 931.2,112.8 932.3,112.1 933.2,111.3 934.1,110.4 935.0,109.5 935.8,108.4 936.5,107.3 937.3,106.1 938.0,104.9 938.7,103.7 939.4,102.4 940.1,101.2 940.8,99.9 941.5,98.7 942.2,97.5 942.9,96.3 943.7,95.2 944.5,94.1 945.4,93.2 946.3,92.3 947.2,91.5 948.2,90.9 949.3,90.3 950.5,89.9 951.7,89.7 953.1,89.6" stroke="#7A685F" stroke-width="0.90" stroke-opacity="1.00" fill="none" />
<polyline class="pl" points="926.4,434.7 927.8,434.7 929.0,434.7 930.2,434.6 931.2,434.6 932.3,434.5 933.2,434.4 934.1,434.3 935.0,434.2 935.8,434.1 936.5,434.0 937.3,433.8 938.0,433.7 938.7,433.6 939.4,433.4 940.1,433.3 940.8,433.1 941.5,433.0 942.2,432.9 942.9,432.7 943.7,432.6 944.5,432.5 945.4,432.4 946.3,432.3 947.2,432.2 948.2,432.1 949.3,432.1 950.5,432.0 951.7,432.0 953.1,432.0" stroke="#EDB120" stroke-width="0.90" stroke-opacity="1.00" fill="none" />
<polyline class="pl" points="926.4,449.3 927.8,449.4 929.0,449.4 930.2,449.4 931.2,449.5 932.3,449.6 933.2,449.7 934.1,449.8 935.0,449.9 935.8,450.0 936.5,450.1 937.3,450.2 938.0,450.4 938.7,450.5 939.4,450.6 940.1,450.8 940.8,450.9 941.5,451.1 942.2,451.2 942.9,451.3 943.7,451.5 944.5,451.6 945.4,451.7 946.3,451.8 947.2,451.9 948.2,451.9 949.3,452.0 950.5,452.1 951.7,452.1 953.1,452.1" stroke="#CCC" stroke-width="0.90" stroke-opacity="1.00" fill="none" />
<text transform="translate(145.6,47.2)" dy="0.0" font-size="27.00" fill="#808080" stroke="none">Annual LULUCF emissions: United States of America</text>
<text transform="translate(130.0,157.8)" dy="8.1" font-size="27.00" fill="#808080" stroke="none" text-anchor="end">CO<tspan dy="0.2em"><tspan style="font-size:70%">2</tspan></tspan><tspan dy="-0.2em">e</tspan></text>
<text transform="translate(160.0,666.1)" font-size="19.80" font-family="Helvetica" fill="#BFBFBF" stroke="none" xml:space="preserve">CICERO   &#9679;   Data: UNFCCC (2024)</text>
<g>
  <rect x="123.0" y="651.4" width="34" height="17" fill="#FFF" stroke="none" opacity="0.01"/>
  <g transform="translate(124.0,652.4) scale(0.24)">
  <g><circle fill="#FFF" cx="37.79" cy="28.5" r="28.84"/>
     <circle fill="none" cx="37.79" cy="28.5" r="28.84" stroke="#BFBFBF" stroke-width="5.5"/>
     <path fill="#BFBFBF" d="M37.16,23.19 l-4.29,2.23c-0.458-0.951-1.02-1.62-1.69-2c-0.667-0.38-1.29-0.571-1.86-0.571c-2.86,0-4.29,1.89-4.29,5.66 c0,1.71,0.36,3.08,1.09,4.11c0.724,1.03,1.79,1.54,3.2,1.54c1.87,0,3.18-0.915,3.94-2.74l3.94,2 c-0.838,1.56-2,2.79-3.49,3.69c-1.48,0.896-3.12,1.34-4.91,1.34c-2.86,0-5.16-0.875-6.92-2.63 c-1.75-1.75-2.63-4.19-2.63-7.31c0-3.05,0.886-5.47,2.66-7.26c1.77-1.79,4.01-2.69,6.72-2.69 C32.6,18.56,35.44,20.1,37.16,23.19z
              M55.61,23.19l-4.23,2.23c-0.457-0.951-1.02-1.62-1.69-2 c-0.668-0.38-1.31-0.571-1.91-0.571c-2.86,0-4.29,1.89-4.29,5.66c0,1.71,0.363,3.08,1.09,4.11 c0.723,1.03,1.79,1.54,3.2,1.54c1.87,0,3.18-0.915,3.94-2.74l4,2c-0.875,1.56-2.06,2.79-3.54,3.69 c-1.49,0.9-3.11,1.34-4.86,1.34c-2.9,0-5.21-0.875-6.94-2.63c-1.74-1.75-2.6-4.19-2.6-7.31 c0-3.05,0.885-5.47,2.66-7.26c1.77-1.79,4.01-2.69,6.71-2.69C51.12,18.56,53.944,20.1,55.61,23.19z"/>
  </g></g>
  <g transform="translate(140.2,652.4) scale(0.24)">
  <g><circle fill="#FFF" cx="37.79" cy="28.5" r="28.84"/>
     <circle fill="none" cx="37.79" cy="28.5" r="28.84" stroke="#BFBFBF" stroke-width="5.5"/>
     <path fill="#BFBFBF" d="M46.129,20.557v13.085h-3.656v15.542h-9.944V33.643h-3.656V20.557 c0-0.572,0.2-1.057,0.599-1.457c0.401-0.399,0.887-0.6,1.457-0.6h13.144c0.533,0,1.01,0.2,1.428,0.6 C45.918,19.5,46.129,19.986,46.129,20.557z
              M33.042,12.329c0-3.008,1.485-4.514,4.458-4.514s4.457,1.504,4.457,4.514 c0,2.971-1.486,4.457-4.457,4.457S33.042,15.3,33.042,12.329z"/>
  </g></g>
</g>
</g>
</svg>
