<svg version="1.1" xmlns="http://www.w3.org/2000/svg" xmlns:xlink="http://www.w3.org/1999/xlink" width="100%" height="100%" viewBox="0 0 1200.000 674.916">
<title>Annual Fossil CO2 Emissions in Malaysia</title>
<style type="text/css">
  #main {font-family:Helvetica,Arial,sans-serif; font-size:27.00px;
         fill-opacity:1; fill:#000000; stroke:none; stroke-linejoin:round; stroke-linecap:round; stroke-width:1.00;}
  .marker {stroke-opacity:0;fill-opacity:0;}
  .marker:hover {stroke-opacity:0.5; fill-opacity:1;}
  .ticklabel {font-size:27.00px;fill:#808080;stroke:none}
  .ytl {text-anchor:end;}
  .xtl {text-anchor:middle;}
  .dp1 {pointer-events:none;font-size:70%;text-anchor:middle;fill:#000000;}
  .dp2 {pointer-events:none;font-size:70%;text-anchor:middle;fill:#FFFFFF;}
  .numtip {pointer-events:none;}
  .cc {opacity:0.25;}
.dl_fe {background-color:#FDFFDF;display:flex;margin:auto;align-items:center}
.dl_fe_p {font-size:20px;text-align:center;margin:3px}
.dl_el {display:none;pointer-events:none;}
.cc:hover + .dl_el {display:block;}
text:hover + .dl_el {display:block;}
</style>
<defs>
  <clipPath id="axis_clip"><rect x="145.8" y="54.2" width="761.2" height="532.8" /></clipPath>
  <path id="line_x" d="M 145.600,0 h 761.600" stroke="#262626" stroke-opacity="0.15" stroke-width="1.00"/>
  <path id="tick_y" d="M 145.600,0 h -6.000" stroke="#808080" stroke-width="0.90"/>
  <path id="tick_x" d="M 0,587.177 v 6.000" stroke="#808080" stroke-width="0.90"/>
</defs>
<g id="main">
<use xlink:href="#line_x" transform="translate(0,587.2)"/>
<use xlink:href="#line_x" transform="translate(0,498.3)"/>
<use xlink:href="#line_x" transform="translate(0,409.4)"/>
<use xlink:href="#line_x" transform="translate(0,320.6)"/>
<use xlink:href="#line_x" transform="translate(0,231.7)"/>
<use xlink:href="#line_x" transform="translate(0,142.9)"/>
<use xlink:href="#line_x" transform="translate(0,54.0)"/>
<use xlink:href="#tick_y" transform="translate(0,587.2)"/>
<use xlink:href="#tick_y" transform="translate(0,498.3)"/>
<use xlink:href="#tick_y" transform="translate(0,409.4)"/>
<use xlink:href="#tick_y" transform="translate(0,320.6)"/>
<use xlink:href="#tick_y" transform="translate(0,231.7)"/>
<use xlink:href="#tick_y" transform="translate(0,142.9)"/>
<use xlink:href="#tick_y" transform="translate(0,54.0)"/>
<use xlink:href="#tick_x" transform="translate(163.0,0)"/>
<use xlink:href="#tick_x" transform="translate(279.3,0)"/>
<use xlink:href="#tick_x" transform="translate(395.6,0)"/>
<use xlink:href="#tick_x" transform="translate(511.9,0)"/>
<use xlink:href="#tick_x" transform="translate(628.1,0)"/>
<use xlink:href="#tick_x" transform="translate(744.4,0)"/>
<use xlink:href="#tick_x" transform="translate(860.7,0)"/>
<polyline points="145.6,53.993 145.6,587.177 907.2,587.177" stroke="#808080" stroke-width="0.90" fill="none"/>
<text class="ticklabel xtl" transform="translate(163.0,629.0)">1960</text>
<text class="ticklabel xtl" transform="translate(279.3,629.0)">1970</text>
<text class="ticklabel xtl" transform="translate(395.6,629.0)">1980</text>
<text class="ticklabel xtl" transform="translate(511.9,629.0)">1990</text>
<text class="ticklabel xtl" transform="translate(628.1,629.0)">2000</text>
<text class="ticklabel xtl" transform="translate(744.4,629.0)">2010</text>
<text class="ticklabel xtl" transform="translate(860.7,629.0)">2020</text>
<text class="ticklabel ytl" transform="translate(128.8,595.3)">0</text>
<text class="ticklabel ytl" transform="translate(128.8,506.4)">20</text>
<text class="ticklabel ytl" transform="translate(128.8,417.5)">40</text>
<text class="ticklabel ytl" transform="translate(128.8,328.7)">60</text>
<text class="ticklabel ytl" transform="translate(128.8,239.8)">80</text>
<text class="ticklabel ytl" transform="translate(128.8,151.0)">100</text>
<text class="ticklabel ytl" transform="translate(128.8,62.1)">120 Mt</text>
<polyline class="pl" points="139.8,587.1 151.4,586.9 163.0,586.8 174.7,586.7 186.3,586.8 197.9,586.8 209.6,586.8 221.2,586.9 232.8,586.9 244.4,587.0 256.1,587.0 267.7,586.9 279.3,586.9 290.9,586.5 302.6,587.0 314.2,586.6 325.8,586.5 337.5,586.9 349.1,586.8 360.7,586.7 372.3,586.8 384.0,586.6 395.6,586.3 407.2,585.5 418.8,585.6 430.5,582.8 442.1,582.3 453.7,580.8 465.4,582.5 477.0,581.4 488.6,582.0 500.2,565.8 511.9,563.1 523.5,560.2 535.1,559.1 546.7,563.2 558.4,559.5 570.0,559.0 581.6,552.8 593.3,558.8 604.9,559.3 616.5,564.0 628.1,552.2 639.8,543.1 651.4,531.4 663.0,506.2 674.7,446.2 686.3,471.2 697.9,468.9 709.5,454.2 721.2,418.2 732.8,380.2 744.4,341.3 756.0,340.4 767.7,321.2 779.3,329.5 790.9,330.1 802.6,292.5 814.2,271.5 825.8,237.9 837.4,213.3 849.1,204.2 860.7,131.3" stroke="#7B553E" stroke-width="5.40" stroke-opacity="1.00" fill="none" clip-path="url(#axis_clip)"/>
<g class="pl" fill="#FFF" stroke="#7B553E" stroke-width="0.900">
  <circle cx="151.4" cy="586.9" r="2.3"/>
  <circle cx="174.7" cy="586.7" r="2.3"/>
  <circle cx="186.3" cy="586.8" r="2.3"/>
  <circle cx="197.9" cy="586.8" r="2.3"/>
  <circle cx="209.6" cy="586.8" r="2.3"/>
  <circle cx="221.2" cy="586.9" r="2.3"/>
  <circle cx="232.8" cy="586.9" r="2.3"/>
  <circle cx="244.4" cy="587.0" r="2.3"/>
  <circle cx="256.1" cy="587.0" r="2.3"/>
  <circle cx="267.7" cy="586.9" r="2.3"/>
  <circle cx="290.9" cy="586.5" r="2.3"/>
  <circle cx="302.6" cy="587.0" r="2.3"/>
  <circle cx="314.2" cy="586.6" r="2.3"/>
  <circle cx="325.8" cy="586.5" r="2.3"/>
  <circle cx="337.5" cy="586.9" r="2.3"/>
  <circle cx="349.1" cy="586.8" r="2.3"/>
  <circle cx="360.7" cy="586.7" r="2.3"/>
  <circle cx="372.3" cy="586.8" r="2.3"/>
  <circle cx="384.0" cy="586.6" r="2.3"/>
  <circle cx="407.2" cy="585.5" r="2.3"/>
  <circle cx="418.8" cy="585.6" r="2.3"/>
  <circle cx="430.5" cy="582.8" r="2.3"/>
  <circle cx="442.1" cy="582.3" r="2.3"/>
  <circle cx="453.7" cy="580.8" r="2.3"/>
  <circle cx="465.4" cy="582.5" r="2.3"/>
  <circle cx="477.0" cy="581.4" r="2.3"/>
  <circle cx="488.6" cy="582.0" r="2.3"/>
  <circle cx="500.2" cy="565.8" r="2.3"/>
  <circle cx="523.5" cy="560.2" r="2.3"/>
  <circle cx="535.1" cy="559.1" r="2.3"/>
  <circle cx="546.7" cy="563.2" r="2.3"/>
  <circle cx="558.4" cy="559.5" r="2.3"/>
  <circle cx="570.0" cy="559.0" r="2.3"/>
  <circle cx="581.6" cy="552.8" r="2.3"/>
  <circle cx="593.3" cy="558.8" r="2.3"/>
  <circle cx="604.9" cy="559.3" r="2.3"/>
  <circle cx="616.5" cy="564.0" r="2.3"/>
  <circle cx="639.8" cy="543.1" r="2.3"/>
  <circle cx="651.4" cy="531.4" r="2.3"/>
  <circle cx="663.0" cy="506.2" r="2.3"/>
  <circle cx="674.7" cy="446.2" r="2.3"/>
  <circle cx="686.3" cy="471.2" r="2.3"/>
  <circle cx="697.9" cy="468.9" r="2.3"/>
  <circle cx="709.5" cy="454.2" r="2.3"/>
  <circle cx="721.2" cy="418.2" r="2.3"/>
  <circle cx="732.8" cy="380.2" r="2.3"/>
  <circle cx="756.0" cy="340.4" r="2.3"/>
  <circle cx="767.7" cy="321.2" r="2.3"/>
  <circle cx="779.3" cy="329.5" r="2.3"/>
  <circle cx="790.9" cy="330.1" r="2.3"/>
  <circle cx="802.6" cy="292.5" r="2.3"/>
  <circle cx="814.2" cy="271.5" r="2.3"/>
  <circle cx="825.8" cy="237.9" r="2.3"/>
  <circle cx="837.4" cy="213.3" r="2.3"/>
  <circle cx="849.1" cy="204.2" r="2.3"/>
</g>
<g class="pl" fill="#FFF" stroke="#7B553E" stroke-width="0.900">
  <circle cx="163.0" cy="586.8" r="5.4"/>
  <circle cx="279.3" cy="586.9" r="5.4"/>
  <circle cx="395.6" cy="586.3" r="5.4"/>
  <circle cx="511.9" cy="563.1" r="5.4"/>
  <circle cx="628.1" cy="552.2" r="5.4"/>
  <circle cx="744.4" cy="341.3" r="5.4"/>
  <circle cx="860.7" cy="131.3" r="5.4"/>
</g>
<polyline class="pl" points="139.8,571.0 151.4,574.3 163.0,570.2 174.7,568.1 186.3,567.7 197.9,563.0 209.6,556.1 221.2,552.3 232.8,546.1 244.4,544.8 256.1,543.3 267.7,549.8 279.3,526.0 290.9,520.6 302.6,516.5 314.2,518.9 325.8,519.1 337.5,519.7 349.1,503.6 360.7,508.0 372.3,501.9 384.0,488.1 395.6,484.8 407.2,471.1 418.8,474.7 430.5,451.5 442.1,473.0 453.7,464.1 465.4,462.9 477.0,462.5 488.6,451.9 500.2,443.5 511.9,428.5 523.5,410.4 535.1,390.9 546.7,363.7 558.4,352.6 570.0,338.9 581.6,324.8 593.3,279.5 604.9,321.9 616.5,352.5 628.1,337.7 639.8,305.1 651.4,317.5 663.0,310.7 674.7,286.7 686.3,281.5 697.9,310.3 709.5,281.4 721.2,275.2 732.8,282.3 744.4,261.2 756.0,268.4 767.7,257.2 779.3,199.7 790.9,193.0 802.6,248.7 814.2,194.5 825.8,226.1 837.4,218.9 849.1,199.6 860.7,244.5" stroke="#404040" stroke-width="5.40" stroke-opacity="1.00" fill="none" clip-path="url(#axis_clip)"/>
<g class="pl" fill="#FFF" stroke="#404040" stroke-width="0.900">
  <circle cx="151.4" cy="574.3" r="2.3"/>
  <circle cx="174.7" cy="568.1" r="2.3"/>
  <circle cx="186.3" cy="567.7" r="2.3"/>
  <circle cx="197.9" cy="563.0" r="2.3"/>
  <circle cx="209.6" cy="556.1" r="2.3"/>
  <circle cx="221.2" cy="552.3" r="2.3"/>
  <circle cx="232.8" cy="546.1" r="2.3"/>
  <circle cx="244.4" cy="544.8" r="2.3"/>
  <circle cx="256.1" cy="543.3" r="2.3"/>
  <circle cx="267.7" cy="549.8" r="2.3"/>
  <circle cx="290.9" cy="520.6" r="2.3"/>
  <circle cx="302.6" cy="516.5" r="2.3"/>
  <circle cx="314.2" cy="518.9" r="2.3"/>
  <circle cx="325.8" cy="519.1" r="2.3"/>
  <circle cx="337.5" cy="519.7" r="2.3"/>
  <circle cx="349.1" cy="503.6" r="2.3"/>
  <circle cx="360.7" cy="508.0" r="2.3"/>
  <circle cx="372.3" cy="501.9" r="2.3"/>
  <circle cx="384.0" cy="488.1" r="2.3"/>
  <circle cx="407.2" cy="471.1" r="2.3"/>
  <circle cx="418.8" cy="474.7" r="2.3"/>
  <circle cx="430.5" cy="451.5" r="2.3"/>
  <circle cx="442.1" cy="473.0" r="2.3"/>
  <circle cx="453.7" cy="464.1" r="2.3"/>
  <circle cx="465.4" cy="462.9" r="2.3"/>
  <circle cx="477.0" cy="462.5" r="2.3"/>
  <circle cx="488.6" cy="451.9" r="2.3"/>
  <circle cx="500.2" cy="443.5" r="2.3"/>
  <circle cx="523.5" cy="410.4" r="2.3"/>
  <circle cx="535.1" cy="390.9" r="2.3"/>
  <circle cx="546.7" cy="363.7" r="2.3"/>
  <circle cx="558.4" cy="352.6" r="2.3"/>
  <circle cx="570.0" cy="338.9" r="2.3"/>
  <circle cx="581.6" cy="324.8" r="2.3"/>
  <circle cx="593.3" cy="279.5" r="2.3"/>
  <circle cx="604.9" cy="321.9" r="2.3"/>
  <circle cx="616.5" cy="352.5" r="2.3"/>
  <circle cx="639.8" cy="305.1" r="2.3"/>
  <circle cx="651.4" cy="317.5" r="2.3"/>
  <circle cx="663.0" cy="310.7" r="2.3"/>
  <circle cx="674.7" cy="286.7" r="2.3"/>
  <circle cx="686.3" cy="281.5" r="2.3"/>
  <circle cx="697.9" cy="310.3" r="2.3"/>
  <circle cx="709.5" cy="281.4" r="2.3"/>
  <circle cx="721.2" cy="275.2" r="2.3"/>
  <circle cx="732.8" cy="282.3" r="2.3"/>
  <circle cx="756.0" cy="268.4" r="2.3"/>
  <circle cx="767.7" cy="257.2" r="2.3"/>
  <circle cx="779.3" cy="199.7" r="2.3"/>
  <circle cx="790.9" cy="193.0" r="2.3"/>
  <circle cx="802.6" cy="248.7" r="2.3"/>
  <circle cx="814.2" cy="194.5" r="2.3"/>
  <circle cx="825.8" cy="226.1" r="2.3"/>
  <circle cx="837.4" cy="218.9" r="2.3"/>
  <circle cx="849.1" cy="199.6" r="2.3"/>
</g>
<g class="pl" fill="#FFF" stroke="#404040" stroke-width="0.900">
  <circle cx="163.0" cy="570.2" r="5.4"/>
  <circle cx="279.3" cy="526.0" r="5.4"/>
  <circle cx="395.6" cy="484.8" r="5.4"/>
  <circle cx="511.9" cy="428.5" r="5.4"/>
  <circle cx="628.1" cy="337.7" r="5.4"/>
  <circle cx="744.4" cy="261.2" r="5.4"/>
  <circle cx="860.7" cy="244.5" r="5.4"/>
</g>
<polyline class="pl" points="139.8,586.6 151.4,586.6 163.0,586.5 174.7,586.6 186.3,586.6 197.9,586.7 209.6,586.7 221.2,586.7 232.8,586.7 244.4,586.6 256.1,586.6 267.7,586.3 279.3,587.0 290.9,586.4 302.6,586.2 314.2,586.2 325.8,585.1 337.5,584.6 349.1,584.1 360.7,584.4 372.3,586.7 384.0,586.7 395.6,586.6 407.2,586.5 418.8,586.4 430.5,583.9 442.1,579.9 453.7,572.1 465.4,558.1 477.0,553.1 488.6,558.5 500.2,556.6 511.9,556.8 523.5,528.1 535.1,516.1 546.7,489.3 558.4,487.7 570.0,400.5 581.6,426.1 593.3,429.7 604.9,427.5 616.5,418.5 628.1,366.5 639.8,371.3 651.4,369.4 663.0,312.2 674.7,324.1 686.3,302.5 697.9,278.2 709.5,296.4 721.2,264.5 732.8,296.4 744.4,317.0 756.0,299.3 767.7,292.6 779.3,221.6 790.9,220.3 802.6,244.1 814.2,260.5 825.8,274.3 837.4,212.8 849.1,212.6 860.7,267.5" stroke="#6298C6" stroke-width="5.40" stroke-opacity="1.00" fill="none" clip-path="url(#axis_clip)"/>
<g class="pl" fill="#FFF" stroke="#6298C6" stroke-width="0.900">
  <circle cx="151.4" cy="586.6" r="2.3"/>
  <circle cx="174.7" cy="586.6" r="2.3"/>
  <circle cx="186.3" cy="586.6" r="2.3"/>
  <circle cx="197.9" cy="586.7" r="2.3"/>
  <circle cx="209.6" cy="586.7" r="2.3"/>
  <circle cx="221.2" cy="586.7" r="2.3"/>
  <circle cx="232.8" cy="586.7" r="2.3"/>
  <circle cx="244.4" cy="586.6" r="2.3"/>
  <circle cx="256.1" cy="586.6" r="2.3"/>
  <circle cx="267.7" cy="586.3" r="2.3"/>
  <circle cx="290.9" cy="586.4" r="2.3"/>
  <circle cx="302.6" cy="586.2" r="2.3"/>
  <circle cx="314.2" cy="586.2" r="2.3"/>
  <circle cx="325.8" cy="585.1" r="2.3"/>
  <circle cx="337.5" cy="584.6" r="2.3"/>
  <circle cx="349.1" cy="584.1" r="2.3"/>
  <circle cx="360.7" cy="584.4" r="2.3"/>
  <circle cx="372.3" cy="586.7" r="2.3"/>
  <circle cx="384.0" cy="586.7" r="2.3"/>
  <circle cx="407.2" cy="586.5" r="2.3"/>
  <circle cx="418.8" cy="586.4" r="2.3"/>
  <circle cx="430.5" cy="583.9" r="2.3"/>
  <circle cx="442.1" cy="579.9" r="2.3"/>
  <circle cx="453.7" cy="572.1" r="2.3"/>
  <circle cx="465.4" cy="558.1" r="2.3"/>
  <circle cx="477.0" cy="553.1" r="2.3"/>
  <circle cx="488.6" cy="558.5" r="2.3"/>
  <circle cx="500.2" cy="556.6" r="2.3"/>
  <circle cx="523.5" cy="528.1" r="2.3"/>
  <circle cx="535.1" cy="516.1" r="2.3"/>
  <circle cx="546.7" cy="489.3" r="2.3"/>
  <circle cx="558.4" cy="487.7" r="2.3"/>
  <circle cx="570.0" cy="400.5" r="2.3"/>
  <circle cx="581.6" cy="426.1" r="2.3"/>
  <circle cx="593.3" cy="429.7" r="2.3"/>
  <circle cx="604.9" cy="427.5" r="2.3"/>
  <circle cx="616.5" cy="418.5" r="2.3"/>
  <circle cx="639.8" cy="371.3" r="2.3"/>
  <circle cx="651.4" cy="369.4" r="2.3"/>
  <circle cx="663.0" cy="312.2" r="2.3"/>
  <circle cx="674.7" cy="324.1" r="2.3"/>
  <circle cx="686.3" cy="302.5" r="2.3"/>
  <circle cx="697.9" cy="278.2" r="2.3"/>
  <circle cx="709.5" cy="296.4" r="2.3"/>
  <circle cx="721.2" cy="264.5" r="2.3"/>
  <circle cx="732.8" cy="296.4" r="2.3"/>
  <circle cx="756.0" cy="299.3" r="2.3"/>
  <circle cx="767.7" cy="292.6" r="2.3"/>
  <circle cx="779.3" cy="221.6" r="2.3"/>
  <circle cx="790.9" cy="220.3" r="2.3"/>
  <circle cx="802.6" cy="244.1" r="2.3"/>
  <circle cx="814.2" cy="260.5" r="2.3"/>
  <circle cx="825.8" cy="274.3" r="2.3"/>
  <circle cx="837.4" cy="212.8" r="2.3"/>
  <circle cx="849.1" cy="212.6" r="2.3"/>
</g>
<g class="pl" fill="#FFF" stroke="#6298C6" stroke-width="0.900">
  <circle cx="163.0" cy="586.5" r="5.4"/>
  <circle cx="279.3" cy="587.0" r="5.4"/>
  <circle cx="395.6" cy="586.6" r="5.4"/>
  <circle cx="511.9" cy="556.8" r="5.4"/>
  <circle cx="628.1" cy="366.5" r="5.4"/>
  <circle cx="744.4" cy="317.0" r="5.4"/>
  <circle cx="860.7" cy="267.5" r="5.4"/>
</g>
<polyline class="pl" points="139.8,586.9 151.4,586.8 163.0,586.5 174.7,586.4 186.3,586.5 197.9,586.4 209.6,586.2 221.2,585.5 232.8,585.3 244.4,585.4 256.1,585.1 267.7,585.0 279.3,584.9 290.9,584.8 302.6,584.6 314.2,584.3 325.8,584.1 337.5,583.9 349.1,583.2 360.7,583.1 372.3,582.1 384.0,581.9 395.6,581.7 407.2,580.6 418.8,579.8 430.5,579.6 442.1,578.9 453.7,579.7 465.4,578.6 477.0,579.2 488.6,578.0 500.2,575.5 511.9,572.8 523.5,572.1 535.1,572.6 546.7,572.0 558.4,569.4 570.0,568.1 581.6,565.9 593.3,564.0 604.9,563.5 616.5,562.8 628.1,557.9 639.8,559.1 651.4,555.4 663.0,550.7 674.7,550.8 686.3,551.4 697.9,548.9 709.5,550.1 721.2,547.8 732.8,549.9 744.4,554.2 756.0,551.2 767.7,549.4 779.3,545.5 790.9,543.4 802.6,547.3 814.2,527.6 825.8,537.0 837.4,533.8 849.1,533.8 860.7,533.8" stroke="#666" stroke-width="5.40" stroke-opacity="1.00" fill="none" clip-path="url(#axis_clip)"/>
<g class="pl" fill="#FFF" stroke="#666" stroke-width="0.900">
  <circle cx="151.4" cy="586.8" r="2.3"/>
  <circle cx="174.7" cy="586.4" r="2.3"/>
  <circle cx="186.3" cy="586.5" r="2.3"/>
  <circle cx="197.9" cy="586.4" r="2.3"/>
  <circle cx="209.6" cy="586.2" r="2.3"/>
  <circle cx="221.2" cy="585.5" r="2.3"/>
  <circle cx="232.8" cy="585.3" r="2.3"/>
  <circle cx="244.4" cy="585.4" r="2.3"/>
  <circle cx="256.1" cy="585.1" r="2.3"/>
  <circle cx="267.7" cy="585.0" r="2.3"/>
  <circle cx="290.9" cy="584.8" r="2.3"/>
  <circle cx="302.6" cy="584.6" r="2.3"/>
  <circle cx="314.2" cy="584.3" r="2.3"/>
  <circle cx="325.8" cy="584.1" r="2.3"/>
  <circle cx="337.5" cy="583.9" r="2.3"/>
  <circle cx="349.1" cy="583.2" r="2.3"/>
  <circle cx="360.7" cy="583.1" r="2.3"/>
  <circle cx="372.3" cy="582.1" r="2.3"/>
  <circle cx="384.0" cy="581.9" r="2.3"/>
  <circle cx="407.2" cy="580.6" r="2.3"/>
  <circle cx="418.8" cy="579.8" r="2.3"/>
  <circle cx="430.5" cy="579.6" r="2.3"/>
  <circle cx="442.1" cy="578.9" r="2.3"/>
  <circle cx="453.7" cy="579.7" r="2.3"/>
  <circle cx="465.4" cy="578.6" r="2.3"/>
  <circle cx="477.0" cy="579.2" r="2.3"/>
  <circle cx="488.6" cy="578.0" r="2.3"/>
  <circle cx="500.2" cy="575.5" r="2.3"/>
  <circle cx="523.5" cy="572.1" r="2.3"/>
  <circle cx="535.1" cy="572.6" r="2.3"/>
  <circle cx="546.7" cy="572.0" r="2.3"/>
  <circle cx="558.4" cy="569.4" r="2.3"/>
  <circle cx="570.0" cy="568.1" r="2.3"/>
  <circle cx="581.6" cy="565.9" r="2.3"/>
  <circle cx="593.3" cy="564.0" r="2.3"/>
  <circle cx="604.9" cy="563.5" r="2.3"/>
  <circle cx="616.5" cy="562.8" r="2.3"/>
  <circle cx="639.8" cy="559.1" r="2.3"/>
  <circle cx="651.4" cy="555.4" r="2.3"/>
  <circle cx="663.0" cy="550.7" r="2.3"/>
  <circle cx="674.7" cy="550.8" r="2.3"/>
  <circle cx="686.3" cy="551.4" r="2.3"/>
  <circle cx="697.9" cy="548.9" r="2.3"/>
  <circle cx="709.5" cy="550.1" r="2.3"/>
  <circle cx="721.2" cy="547.8" r="2.3"/>
  <circle cx="732.8" cy="549.9" r="2.3"/>
  <circle cx="756.0" cy="551.2" r="2.3"/>
  <circle cx="767.7" cy="549.4" r="2.3"/>
  <circle cx="779.3" cy="545.5" r="2.3"/>
  <circle cx="790.9" cy="543.4" r="2.3"/>
  <circle cx="802.6" cy="547.3" r="2.3"/>
  <circle cx="814.2" cy="527.6" r="2.3"/>
  <circle cx="825.8" cy="537.0" r="2.3"/>
  <circle cx="837.4" cy="533.8" r="2.3"/>
  <circle cx="849.1" cy="533.8" r="2.3"/>
</g>
<g class="pl" fill="#FFF" stroke="#666" stroke-width="0.900">
  <circle cx="163.0" cy="586.5" r="5.4"/>
  <circle cx="279.3" cy="584.9" r="5.4"/>
  <circle cx="395.6" cy="581.7" r="5.4"/>
  <circle cx="511.9" cy="572.8" r="5.4"/>
  <circle cx="628.1" cy="557.9" r="5.4"/>
  <circle cx="744.4" cy="554.2" r="5.4"/>
  <circle cx="860.7" cy="533.8" r="5.4"/>
</g>
<text transform="translate(925.2,131.3)" dy="8.1" font-size="27.00" fill="#7B553E" stroke="none">Coal 102.6</text>
<text transform="translate(925.2,243.1)" dy="8.1" font-size="27.00" fill="#404040" stroke="none">Oil 77.1</text>
<text transform="translate(925.2,269.0)" dy="8.1" font-size="27.00" fill="#6298C6" stroke="none">Gas 72.0</text>
<text transform="translate(925.2,533.8)" dy="8.1" font-size="27.00" fill="#666" stroke="none">Cement 12.0</text>
<text transform="translate(925.2,108.3)" dy="0.0" font-size="19.80" fill="#7B553E" stroke="none">Mt CO<tspan dy="0.2em"><tspan style="font-size:70%">2</tspan></tspan><tspan dy="-0.2em"> </tspan>in 2020</text>
<g stroke="none" stroke-width="0.9000"  >
  <polygon points="1065.3,138.0 1074.9,124.5 1084.5,138.0 1065.3,138.0" fill="#7B553E"/>
</g>
<text transform="translate(1089.3,133.3)" dy="5.4" font-size="18.00" fill="#7B553E" stroke="none">18.7%</text>
<g stroke="none" stroke-width="0.9000"  >
  <polygon points="1028.7,236.3 1038.3,249.8 1047.9,236.3 1028.7,236.3" fill="#404040"/>
</g>
<text transform="translate(1052.7,245.1)" dy="5.4" font-size="18.00" fill="#404040" stroke="none">11.8%</text>
<g stroke="none" stroke-width="0.9000"  >
  <polygon points="1044.8,262.2 1054.4,275.7 1064.0,262.2 1044.8,262.2" fill="#6298C6"/>
</g>
<text transform="translate(1068.8,271.0)" dy="5.4" font-size="18.00" fill="#6298C6" stroke="none">14.9%</text>
<g stroke="none" stroke-width="0.9000"  >
  <polygon points="1090.1,527.0 1099.7,540.5 1109.3,527.0 1090.1,527.0" fill="#666"/>
</g>
<text transform="translate(1114.1,535.8)" dy="5.4" font-size="18.00" fill="#666" stroke="none">0.3%</text>
<text transform="translate(145.6,47.2)" dy="0.0" font-size="27.00" fill="#808080" stroke="none">Annual Fossil CO<tspan dy="0.2em"><tspan style="font-size:70%">2</tspan></tspan><tspan dy="-0.2em"> </tspan>Emissions in Malaysia</text>
<text transform="translate(130.0,81.6)" dy="8.1" font-size="27.00" fill="#808080" stroke="none" text-anchor="end">CO<tspan dy="0.2em"><tspan style="font-size:70%">2</tspan></tspan><tspan dy="-0.2em"></tspan></text>
<text transform="translate(157.6,60.7)" dy="18.0" font-size="18.00" fill="#808080" stroke="none">Total emissions growth in 2020: -2.4%</text>
<text transform="translate(160.2,666.1)" font-size="19.80" fill="#BFBFBF" stroke="none" xml:space="preserve">Global Carbon Project</text>
<g class="cc">
  <rect x="123.0" y="651.4" width="34" height="17" fill="#FFF" stroke="none"/>
  <g transform="translate(124.0,652.4) scale(0.24)">
  <g><circle fill="#FFF" cx="37.79" cy="28.5" r="28.84"/>
     <circle fill="none" cx="37.79" cy="28.5" r="28.84" stroke="#000" stroke-width="5.5"/>
     <path d="M37.16,23.19 l-4.29,2.23c-0.458-0.951-1.02-1.62-1.69-2c-0.667-0.38-1.29-0.571-1.86-0.571c-2.86,0-4.29,1.89-4.29,5.66 c0,1.71,0.36,3.08,1.09,4.11c0.724,1.03,1.79,1.54,3.2,1.54c1.87,0,3.18-0.915,3.94-2.74l3.94,2 c-0.838,1.56-2,2.79-3.49,3.69c-1.48,0.896-3.12,1.34-4.91,1.34c-2.86,0-5.16-0.875-6.92-2.63 c-1.75-1.75-2.63-4.19-2.63-7.31c0-3.05,0.886-5.47,2.66-7.26c1.77-1.79,4.01-2.69,6.72-2.69 C32.6,18.56,35.44,20.1,37.16,23.19z
              M55.61,23.19l-4.23,2.23c-0.457-0.951-1.02-1.62-1.69-2 c-0.668-0.38-1.31-0.571-1.91-0.571c-2.86,0-4.29,1.89-4.29,5.66c0,1.71,0.363,3.08,1.09,4.11 c0.723,1.03,1.79,1.54,3.2,1.54c1.87,0,3.18-0.915,3.94-2.74l4,2c-0.875,1.56-2.06,2.79-3.54,3.69 c-1.49,0.9-3.11,1.34-4.86,1.34c-2.9,0-5.21-0.875-6.94-2.63c-1.74-1.75-2.6-4.19-2.6-7.31 c0-3.05,0.885-5.47,2.66-7.26c1.77-1.79,4.01-2.69,6.71-2.69C51.12,18.56,53.944,20.1,55.61,23.19z"/>
  </g></g>
  <g transform="translate(140.2,652.4) scale(0.24)">
  <g><circle fill="#FFF" cx="37.79" cy="28.5" r="28.84"/>
     <circle fill="none" cx="37.79" cy="28.5" r="28.84" stroke="#000" stroke-width="5.5"/>
     <path d="M46.129,20.557v13.085h-3.656v15.542h-9.944V33.643h-3.656V20.557 c0-0.572,0.2-1.057,0.599-1.457c0.401-0.399,0.887-0.6,1.457-0.6h13.144c0.533,0,1.01,0.2,1.428,0.6 C45.918,19.5,46.129,19.986,46.129,20.557z
              M33.042,12.329c0-3.008,1.485-4.514,4.458-4.514s4.457,1.504,4.457,4.514 c0,2.971-1.486,4.457-4.457,4.457S33.042,15.3,33.042,12.329z"/>
  </g></g>
</g>
</g>
</svg>
