<svg version="1.1" xmlns="http://www.w3.org/2000/svg" xmlns:xlink="http://www.w3.org/1999/xlink" width="100%" height="100%" viewBox="0 0 1200.000 674.916">
<title>Annual energy consumption per capita South Korea</title>
<style type="text/css">
  #main {font-family:Helvetica,Arial,sans-serif; font-size:27.00px;
         fill-opacity:1; fill:#000000; stroke:none; stroke-linejoin:round; stroke-linecap:round; stroke-width:1.00;}
  .marker {stroke-opacity:0;fill-opacity:0;}
  .marker:hover {stroke-opacity:0.5; fill-opacity:1;}
  .ticklabel {font-size:27.00px;fill:#808080;stroke:none}
  .ytl {text-anchor:end;}
  .xtl {text-anchor:middle;}
  .dp1 {pointer-events:none;font-size:70%;text-anchor:middle;fill:#000000;}
  .dp2 {pointer-events:none;font-size:70%;text-anchor:middle;fill:#FFFFFF;}
  .numtip {pointer-events:none;}
  .cc {opacity:0.25;}
.dl_fe {background-color:#FDFFDF;display:flex;margin:auto;align-items:center}
.dl_fe_p {font-size:20px;text-align:center;margin:3px}
.dl_el {display:none;pointer-events:none;}
.cc:hover + .dl_el {display:block;}
text:hover + .dl_el {display:block;}
</style>
<defs>
  <clipPath id="axis_clip"><rect x="145.8" y="54.2" width="761.2" height="532.8" /></clipPath>
  <path id="line_x" d="M 145.600,0 h 761.600" stroke="#262626" stroke-opacity="0.15" stroke-width="1.00"/>
  <path id="tick_y" d="M 145.600,0 h -6.000" stroke="#808080" stroke-width="0.90"/>
  <path id="tick_x" d="M 0,587.177 v 6.000" stroke="#808080" stroke-width="0.90"/>
</defs>
<g id="main">
<use xlink:href="#line_x" transform="translate(0,587.2)"/>
<use xlink:href="#line_x" transform="translate(0,498.3)"/>
<use xlink:href="#line_x" transform="translate(0,409.4)"/>
<use xlink:href="#line_x" transform="translate(0,320.6)"/>
<use xlink:href="#line_x" transform="translate(0,231.7)"/>
<use xlink:href="#line_x" transform="translate(0,142.9)"/>
<use xlink:href="#line_x" transform="translate(0,54.0)"/>
<use xlink:href="#tick_y" transform="translate(0,587.2)"/>
<use xlink:href="#tick_y" transform="translate(0,498.3)"/>
<use xlink:href="#tick_y" transform="translate(0,409.4)"/>
<use xlink:href="#tick_y" transform="translate(0,320.6)"/>
<use xlink:href="#tick_y" transform="translate(0,231.7)"/>
<use xlink:href="#tick_y" transform="translate(0,142.9)"/>
<use xlink:href="#tick_y" transform="translate(0,54.0)"/>
<use xlink:href="#tick_x" transform="translate(164.0,0)"/>
<use xlink:href="#tick_x" transform="translate(286.9,0)"/>
<use xlink:href="#tick_x" transform="translate(409.7,0)"/>
<use xlink:href="#tick_x" transform="translate(532.5,0)"/>
<use xlink:href="#tick_x" transform="translate(655.4,0)"/>
<use xlink:href="#tick_x" transform="translate(778.2,0)"/>
<use xlink:href="#tick_x" transform="translate(901.1,0)"/>
<polyline points="145.6,53.993 145.6,587.177 907.2,587.177" stroke="#808080" stroke-width="0.90" fill="none"/>
<text class="ticklabel xtl" transform="translate(164.0,629.0)">1960</text>
<text class="ticklabel xtl" transform="translate(286.9,629.0)">1970</text>
<text class="ticklabel xtl" transform="translate(409.7,629.0)">1980</text>
<text class="ticklabel xtl" transform="translate(532.5,629.0)">1990</text>
<text class="ticklabel xtl" transform="translate(655.4,629.0)">2000</text>
<text class="ticklabel xtl" transform="translate(778.2,629.0)">2010</text>
<text class="ticklabel xtl" transform="translate(901.1,629.0)">2020</text>
<text class="ticklabel ytl" transform="translate(128.8,595.3)">0</text>
<text class="ticklabel ytl" transform="translate(128.8,506.4)">20</text>
<text class="ticklabel ytl" transform="translate(128.8,417.5)">40</text>
<text class="ticklabel ytl" transform="translate(128.8,328.7)">60</text>
<text class="ticklabel ytl" transform="translate(128.8,239.8)">80</text>
<text class="ticklabel ytl" transform="translate(128.8,151.0)">100</text>
<text class="ticklabel ytl" transform="translate(128.8,62.1)">120 GJ</text>
<polyline class="pl" points="532.5,585.2 544.8,585.8 557.1,586.1 569.4,586.4 581.7,586.5 594.0,586.5 606.2,585.6 618.5,585.6 630.8,585.5 643.1,585.7 655.4,585.7 667.7,585.7 679.9,585.2 692.2,585.1 704.5,585.1 716.8,584.5 729.1,584.2 741.4,583.9 753.7,584.0 765.9,583.8 778.2,583.6 790.5,583.4 802.8,582.2 815.1,581.5 827.4,577.3 839.6,578.2 851.9,578.4 864.2,577.8 876.5,576.7 888.8,577.9 901.1,577.7" stroke="#FDBF6F" stroke-width="5.40" stroke-opacity="1.00" fill="none" clip-path="url(#axis_clip)"/>
<g class="pl" fill="#FFF" stroke="#FDBF6F" stroke-width="0.900">
  <circle cx="544.8" cy="585.8" r="2.3"/>
  <circle cx="557.1" cy="586.1" r="2.3"/>
  <circle cx="569.4" cy="586.4" r="2.3"/>
  <circle cx="581.7" cy="586.5" r="2.3"/>
  <circle cx="594.0" cy="586.5" r="2.3"/>
  <circle cx="606.2" cy="585.6" r="2.3"/>
  <circle cx="618.5" cy="585.6" r="2.3"/>
  <circle cx="630.8" cy="585.5" r="2.3"/>
  <circle cx="643.1" cy="585.7" r="2.3"/>
  <circle cx="667.7" cy="585.7" r="2.3"/>
  <circle cx="679.9" cy="585.2" r="2.3"/>
  <circle cx="692.2" cy="585.1" r="2.3"/>
  <circle cx="704.5" cy="585.1" r="2.3"/>
  <circle cx="716.8" cy="584.5" r="2.3"/>
  <circle cx="729.1" cy="584.2" r="2.3"/>
  <circle cx="741.4" cy="583.9" r="2.3"/>
  <circle cx="753.7" cy="584.0" r="2.3"/>
  <circle cx="765.9" cy="583.8" r="2.3"/>
  <circle cx="790.5" cy="583.4" r="2.3"/>
  <circle cx="802.8" cy="582.2" r="2.3"/>
  <circle cx="815.1" cy="581.5" r="2.3"/>
  <circle cx="827.4" cy="577.3" r="2.3"/>
  <circle cx="839.6" cy="578.2" r="2.3"/>
  <circle cx="851.9" cy="578.4" r="2.3"/>
  <circle cx="864.2" cy="577.8" r="2.3"/>
  <circle cx="876.5" cy="576.7" r="2.3"/>
  <circle cx="888.8" cy="577.9" r="2.3"/>
</g>
<g class="pl" fill="#FFF" stroke="#FDBF6F" stroke-width="0.900">
  <circle cx="532.5" cy="585.2" r="5.4"/>
  <circle cx="655.4" cy="585.7" r="5.4"/>
  <circle cx="778.2" cy="583.6" r="5.4"/>
  <circle cx="901.1" cy="577.7" r="5.4"/>
</g>
<polyline class="pl" points="225.4,587.2 237.7,587.2 250.0,587.2 262.3,587.2 274.6,587.2 286.9,587.2 299.1,587.2 311.4,587.2 323.7,587.2 336.0,587.2 348.3,587.2 360.6,587.2 372.9,587.2 385.1,587.2 397.4,587.2 409.7,587.2 422.0,587.2 434.3,587.2 446.6,587.2 458.8,587.2 471.1,587.2 483.4,587.2 495.7,587.2 508.0,587.2 520.3,587.2 532.5,587.2 544.8,587.2 557.1,587.2 569.4,587.2 581.7,587.2 594.0,586.9 606.2,586.8 618.5,587.1 630.8,587.1 643.1,587.1 655.4,587.1 667.7,587.1 679.9,587.0 692.2,587.0 704.5,586.9 716.8,586.9 729.1,587.0 741.4,586.8 753.7,586.6 765.9,586.7 778.2,584.7 790.5,582.3 802.8,581.7 815.1,581.2 827.4,578.3 839.6,577.6 851.9,577.6 864.2,575.5 876.5,575.1 888.8,575.7 901.1,573.8" stroke="#E78AC3" stroke-width="5.40" stroke-opacity="1.00" fill="none" clip-path="url(#axis_clip)"/>
<g class="pl" fill="#FFF" stroke="#E78AC3" stroke-width="0.900">
  <circle cx="225.4" cy="587.2" r="2.3"/>
  <circle cx="237.7" cy="587.2" r="2.3"/>
  <circle cx="250.0" cy="587.2" r="2.3"/>
  <circle cx="262.3" cy="587.2" r="2.3"/>
  <circle cx="274.6" cy="587.2" r="2.3"/>
  <circle cx="299.1" cy="587.2" r="2.3"/>
  <circle cx="311.4" cy="587.2" r="2.3"/>
  <circle cx="323.7" cy="587.2" r="2.3"/>
  <circle cx="336.0" cy="587.2" r="2.3"/>
  <circle cx="348.3" cy="587.2" r="2.3"/>
  <circle cx="360.6" cy="587.2" r="2.3"/>
  <circle cx="372.9" cy="587.2" r="2.3"/>
  <circle cx="385.1" cy="587.2" r="2.3"/>
  <circle cx="397.4" cy="587.2" r="2.3"/>
  <circle cx="422.0" cy="587.2" r="2.3"/>
  <circle cx="434.3" cy="587.2" r="2.3"/>
  <circle cx="446.6" cy="587.2" r="2.3"/>
  <circle cx="458.8" cy="587.2" r="2.3"/>
  <circle cx="471.1" cy="587.2" r="2.3"/>
  <circle cx="483.4" cy="587.2" r="2.3"/>
  <circle cx="495.7" cy="587.2" r="2.3"/>
  <circle cx="508.0" cy="587.2" r="2.3"/>
  <circle cx="520.3" cy="587.2" r="2.3"/>
  <circle cx="544.8" cy="587.2" r="2.3"/>
  <circle cx="557.1" cy="587.2" r="2.3"/>
  <circle cx="569.4" cy="587.2" r="2.3"/>
  <circle cx="581.7" cy="587.2" r="2.3"/>
  <circle cx="594.0" cy="586.9" r="2.3"/>
  <circle cx="606.2" cy="586.8" r="2.3"/>
  <circle cx="618.5" cy="587.1" r="2.3"/>
  <circle cx="630.8" cy="587.1" r="2.3"/>
  <circle cx="643.1" cy="587.1" r="2.3"/>
  <circle cx="667.7" cy="587.1" r="2.3"/>
  <circle cx="679.9" cy="587.0" r="2.3"/>
  <circle cx="692.2" cy="587.0" r="2.3"/>
  <circle cx="704.5" cy="586.9" r="2.3"/>
  <circle cx="716.8" cy="586.9" r="2.3"/>
  <circle cx="729.1" cy="587.0" r="2.3"/>
  <circle cx="741.4" cy="586.8" r="2.3"/>
  <circle cx="753.7" cy="586.6" r="2.3"/>
  <circle cx="765.9" cy="586.7" r="2.3"/>
  <circle cx="790.5" cy="582.3" r="2.3"/>
  <circle cx="802.8" cy="581.7" r="2.3"/>
  <circle cx="815.1" cy="581.2" r="2.3"/>
  <circle cx="827.4" cy="578.3" r="2.3"/>
  <circle cx="839.6" cy="577.6" r="2.3"/>
  <circle cx="851.9" cy="577.6" r="2.3"/>
  <circle cx="864.2" cy="575.5" r="2.3"/>
  <circle cx="876.5" cy="575.1" r="2.3"/>
  <circle cx="888.8" cy="575.7" r="2.3"/>
</g>
<g class="pl" fill="#FFF" stroke="#E78AC3" stroke-width="0.900">
  <circle cx="286.9" cy="587.2" r="5.4"/>
  <circle cx="409.7" cy="587.2" r="5.4"/>
  <circle cx="532.5" cy="587.2" r="5.4"/>
  <circle cx="655.4" cy="587.1" r="5.4"/>
  <circle cx="778.2" cy="584.7" r="5.4"/>
  <circle cx="901.1" cy="573.8" r="5.4"/>
</g>
<polyline class="pl" points="532.5,587.2 544.8,587.2 557.1,587.2 569.4,587.2 581.7,587.2 594.0,587.2 606.2,587.2 618.5,587.2 630.8,587.2 643.1,587.2 655.4,587.2 667.7,587.2 679.9,587.2 692.2,587.2 704.5,587.2 716.8,587.1 729.1,587.0 741.4,586.8 753.7,586.5 765.9,586.2 778.2,585.8 790.5,585.9 802.8,585.8 815.1,585.2 827.4,585.5 839.6,585.5 851.9,585.6 864.2,585.6 876.5,584.7 888.8,584.6 901.1,584.7" stroke="#8DA0CB" stroke-width="5.40" stroke-opacity="1.00" fill="none" clip-path="url(#axis_clip)"/>
<g class="pl" fill="#FFF" stroke="#8DA0CB" stroke-width="0.900">
  <circle cx="544.8" cy="587.2" r="2.3"/>
  <circle cx="557.1" cy="587.2" r="2.3"/>
  <circle cx="569.4" cy="587.2" r="2.3"/>
  <circle cx="581.7" cy="587.2" r="2.3"/>
  <circle cx="594.0" cy="587.2" r="2.3"/>
  <circle cx="606.2" cy="587.2" r="2.3"/>
  <circle cx="618.5" cy="587.2" r="2.3"/>
  <circle cx="630.8" cy="587.2" r="2.3"/>
  <circle cx="643.1" cy="587.2" r="2.3"/>
  <circle cx="667.7" cy="587.2" r="2.3"/>
  <circle cx="679.9" cy="587.2" r="2.3"/>
  <circle cx="692.2" cy="587.2" r="2.3"/>
  <circle cx="704.5" cy="587.2" r="2.3"/>
  <circle cx="716.8" cy="587.1" r="2.3"/>
  <circle cx="729.1" cy="587.0" r="2.3"/>
  <circle cx="741.4" cy="586.8" r="2.3"/>
  <circle cx="753.7" cy="586.5" r="2.3"/>
  <circle cx="765.9" cy="586.2" r="2.3"/>
  <circle cx="790.5" cy="585.9" r="2.3"/>
  <circle cx="802.8" cy="585.8" r="2.3"/>
  <circle cx="815.1" cy="585.2" r="2.3"/>
  <circle cx="827.4" cy="585.5" r="2.3"/>
  <circle cx="839.6" cy="585.5" r="2.3"/>
  <circle cx="851.9" cy="585.6" r="2.3"/>
  <circle cx="864.2" cy="585.6" r="2.3"/>
  <circle cx="876.5" cy="584.7" r="2.3"/>
  <circle cx="888.8" cy="584.6" r="2.3"/>
</g>
<g class="pl" fill="#FFF" stroke="#8DA0CB" stroke-width="0.900">
  <circle cx="532.5" cy="587.2" r="5.4"/>
  <circle cx="655.4" cy="587.2" r="5.4"/>
  <circle cx="778.2" cy="585.8" r="5.4"/>
  <circle cx="901.1" cy="584.7" r="5.4"/>
</g>
<polyline class="pl" points="225.4,587.2 237.7,587.2 250.0,587.2 262.3,587.2 274.6,587.2 286.9,587.2 299.1,587.2 311.4,587.2 323.7,587.2 336.0,587.2 348.3,587.2 360.6,587.2 372.9,587.1 385.1,584.4 397.4,583.4 409.7,583.1 422.0,583.8 434.3,582.9 446.6,577.2 458.8,574.2 471.1,568.9 483.4,556.7 495.7,545.3 508.0,544.8 520.3,537.6 532.5,532.4 544.8,529.5 557.1,529.9 569.4,528.9 581.7,529.0 594.0,521.4 606.2,515.4 618.5,513.0 630.8,501.7 643.1,489.8 655.4,485.0 667.7,483.4 679.9,478.3 692.2,470.1 704.5,470.5 716.8,457.5 729.1,457.1 741.4,463.3 753.7,457.6 765.9,461.5 778.2,462.1 790.5,458.4 802.8,463.5 815.1,474.3 827.4,461.4 839.6,456.0 851.9,459.4 864.2,471.0 876.5,483.5 888.8,474.4 901.1,463.9" stroke="#FC8D62" stroke-width="5.40" stroke-opacity="1.00" fill="none" clip-path="url(#axis_clip)"/>
<g class="pl" fill="#FFF" stroke="#FC8D62" stroke-width="0.900">
  <circle cx="225.4" cy="587.2" r="2.3"/>
  <circle cx="237.7" cy="587.2" r="2.3"/>
  <circle cx="250.0" cy="587.2" r="2.3"/>
  <circle cx="262.3" cy="587.2" r="2.3"/>
  <circle cx="274.6" cy="587.2" r="2.3"/>
  <circle cx="299.1" cy="587.2" r="2.3"/>
  <circle cx="311.4" cy="587.2" r="2.3"/>
  <circle cx="323.7" cy="587.2" r="2.3"/>
  <circle cx="336.0" cy="587.2" r="2.3"/>
  <circle cx="348.3" cy="587.2" r="2.3"/>
  <circle cx="360.6" cy="587.2" r="2.3"/>
  <circle cx="372.9" cy="587.1" r="2.3"/>
  <circle cx="385.1" cy="584.4" r="2.3"/>
  <circle cx="397.4" cy="583.4" r="2.3"/>
  <circle cx="422.0" cy="583.8" r="2.3"/>
  <circle cx="434.3" cy="582.9" r="2.3"/>
  <circle cx="446.6" cy="577.2" r="2.3"/>
  <circle cx="458.8" cy="574.2" r="2.3"/>
  <circle cx="471.1" cy="568.9" r="2.3"/>
  <circle cx="483.4" cy="556.7" r="2.3"/>
  <circle cx="495.7" cy="545.3" r="2.3"/>
  <circle cx="508.0" cy="544.8" r="2.3"/>
  <circle cx="520.3" cy="537.6" r="2.3"/>
  <circle cx="544.8" cy="529.5" r="2.3"/>
  <circle cx="557.1" cy="529.9" r="2.3"/>
  <circle cx="569.4" cy="528.9" r="2.3"/>
  <circle cx="581.7" cy="529.0" r="2.3"/>
  <circle cx="594.0" cy="521.4" r="2.3"/>
  <circle cx="606.2" cy="515.4" r="2.3"/>
  <circle cx="618.5" cy="513.0" r="2.3"/>
  <circle cx="630.8" cy="501.7" r="2.3"/>
  <circle cx="643.1" cy="489.8" r="2.3"/>
  <circle cx="667.7" cy="483.4" r="2.3"/>
  <circle cx="679.9" cy="478.3" r="2.3"/>
  <circle cx="692.2" cy="470.1" r="2.3"/>
  <circle cx="704.5" cy="470.5" r="2.3"/>
  <circle cx="716.8" cy="457.5" r="2.3"/>
  <circle cx="729.1" cy="457.1" r="2.3"/>
  <circle cx="741.4" cy="463.3" r="2.3"/>
  <circle cx="753.7" cy="457.6" r="2.3"/>
  <circle cx="765.9" cy="461.5" r="2.3"/>
  <circle cx="790.5" cy="458.4" r="2.3"/>
  <circle cx="802.8" cy="463.5" r="2.3"/>
  <circle cx="815.1" cy="474.3" r="2.3"/>
  <circle cx="827.4" cy="461.4" r="2.3"/>
  <circle cx="839.6" cy="456.0" r="2.3"/>
  <circle cx="851.9" cy="459.4" r="2.3"/>
  <circle cx="864.2" cy="471.0" r="2.3"/>
  <circle cx="876.5" cy="483.5" r="2.3"/>
  <circle cx="888.8" cy="474.4" r="2.3"/>
</g>
<g class="pl" fill="#FFF" stroke="#FC8D62" stroke-width="0.900">
  <circle cx="286.9" cy="587.2" r="5.4"/>
  <circle cx="409.7" cy="583.1" r="5.4"/>
  <circle cx="532.5" cy="532.4" r="5.4"/>
  <circle cx="655.4" cy="485.0" r="5.4"/>
  <circle cx="778.2" cy="462.1" r="5.4"/>
  <circle cx="901.1" cy="463.9" r="5.4"/>
</g>
<polyline class="pl" points="225.4,586.1 237.7,585.7 250.0,585.8 262.3,585.8 274.6,585.2 286.9,585.5 299.1,585.4 311.4,585.4 323.7,585.5 336.0,584.7 348.3,585.1 360.6,585.0 372.9,585.5 385.1,585.0 397.4,584.5 409.7,584.9 422.0,584.2 434.3,585.2 446.6,584.6 458.8,585.0 471.1,583.7 483.4,583.8 495.7,583.0 508.0,585.1 520.3,584.1 532.5,582.3 544.8,583.6 557.1,584.0 569.4,582.9 581.7,584.9 594.0,584.5 606.2,584.8 618.5,584.5 630.8,583.1 643.1,583.2 655.4,583.4 667.7,585.0 679.9,584.2 692.2,582.8 704.5,583.3 716.8,583.9 729.1,584.1 741.4,584.0 753.7,584.5 765.9,584.8 778.2,584.1 790.5,583.3 802.8,583.9 815.1,583.7 827.4,585.0 839.6,585.5 851.9,584.9 864.2,585.0 876.5,584.6 888.8,585.0 901.1,584.2" stroke="#66C2A5" stroke-width="5.40" stroke-opacity="1.00" fill="none" clip-path="url(#axis_clip)"/>
<g class="pl" fill="#FFF" stroke="#66C2A5" stroke-width="0.900">
  <circle cx="225.4" cy="586.1" r="2.3"/>
  <circle cx="237.7" cy="585.7" r="2.3"/>
  <circle cx="250.0" cy="585.8" r="2.3"/>
  <circle cx="262.3" cy="585.8" r="2.3"/>
  <circle cx="274.6" cy="585.2" r="2.3"/>
  <circle cx="299.1" cy="585.4" r="2.3"/>
  <circle cx="311.4" cy="585.4" r="2.3"/>
  <circle cx="323.7" cy="585.5" r="2.3"/>
  <circle cx="336.0" cy="584.7" r="2.3"/>
  <circle cx="348.3" cy="585.1" r="2.3"/>
  <circle cx="360.6" cy="585.0" r="2.3"/>
  <circle cx="372.9" cy="585.5" r="2.3"/>
  <circle cx="385.1" cy="585.0" r="2.3"/>
  <circle cx="397.4" cy="584.5" r="2.3"/>
  <circle cx="422.0" cy="584.2" r="2.3"/>
  <circle cx="434.3" cy="585.2" r="2.3"/>
  <circle cx="446.6" cy="584.6" r="2.3"/>
  <circle cx="458.8" cy="585.0" r="2.3"/>
  <circle cx="471.1" cy="583.7" r="2.3"/>
  <circle cx="483.4" cy="583.8" r="2.3"/>
  <circle cx="495.7" cy="583.0" r="2.3"/>
  <circle cx="508.0" cy="585.1" r="2.3"/>
  <circle cx="520.3" cy="584.1" r="2.3"/>
  <circle cx="544.8" cy="583.6" r="2.3"/>
  <circle cx="557.1" cy="584.0" r="2.3"/>
  <circle cx="569.4" cy="582.9" r="2.3"/>
  <circle cx="581.7" cy="584.9" r="2.3"/>
  <circle cx="594.0" cy="584.5" r="2.3"/>
  <circle cx="606.2" cy="584.8" r="2.3"/>
  <circle cx="618.5" cy="584.5" r="2.3"/>
  <circle cx="630.8" cy="583.1" r="2.3"/>
  <circle cx="643.1" cy="583.2" r="2.3"/>
  <circle cx="667.7" cy="585.0" r="2.3"/>
  <circle cx="679.9" cy="584.2" r="2.3"/>
  <circle cx="692.2" cy="582.8" r="2.3"/>
  <circle cx="704.5" cy="583.3" r="2.3"/>
  <circle cx="716.8" cy="583.9" r="2.3"/>
  <circle cx="729.1" cy="584.1" r="2.3"/>
  <circle cx="741.4" cy="584.0" r="2.3"/>
  <circle cx="753.7" cy="584.5" r="2.3"/>
  <circle cx="765.9" cy="584.8" r="2.3"/>
  <circle cx="790.5" cy="583.3" r="2.3"/>
  <circle cx="802.8" cy="583.9" r="2.3"/>
  <circle cx="815.1" cy="583.7" r="2.3"/>
  <circle cx="827.4" cy="585.0" r="2.3"/>
  <circle cx="839.6" cy="585.5" r="2.3"/>
  <circle cx="851.9" cy="584.9" r="2.3"/>
  <circle cx="864.2" cy="585.0" r="2.3"/>
  <circle cx="876.5" cy="584.6" r="2.3"/>
  <circle cx="888.8" cy="585.0" r="2.3"/>
</g>
<g class="pl" fill="#FFF" stroke="#66C2A5" stroke-width="0.900">
  <circle cx="286.9" cy="585.5" r="5.4"/>
  <circle cx="409.7" cy="584.9" r="5.4"/>
  <circle cx="532.5" cy="582.3" r="5.4"/>
  <circle cx="655.4" cy="583.4" r="5.4"/>
  <circle cx="778.2" cy="584.1" r="5.4"/>
  <circle cx="901.1" cy="584.2" r="5.4"/>
</g>
<polyline class="pl" points="225.4,587.2 237.7,587.2 250.0,587.2 262.3,587.2 274.6,587.2 286.9,587.2 299.1,587.2 311.4,587.2 323.7,587.2 336.0,587.2 348.3,587.2 360.6,587.2 372.9,587.2 385.1,587.2 397.4,587.2 409.7,587.2 422.0,587.2 434.3,587.2 446.6,587.2 458.8,587.2 471.1,587.2 483.4,587.2 495.7,587.2 508.0,587.2 520.3,587.2 532.5,587.2 544.8,587.2 557.1,587.2 569.4,587.2 581.7,587.2 594.0,587.2 606.2,587.2 618.5,587.2 630.8,587.2 643.1,587.2 655.4,587.2 667.7,587.2 679.9,587.2 692.2,587.2 704.5,587.2 716.8,587.2 729.1,587.1 741.4,587.1 753.7,586.9 765.9,586.7 778.2,586.5 790.5,586.4 802.8,586.3 815.1,585.9 827.4,585.1 839.6,584.0 851.9,583.1 864.2,581.7 876.5,580.0 888.8,577.1 901.1,574.4" stroke="#E5C494" stroke-width="5.40" stroke-opacity="1.00" fill="none" clip-path="url(#axis_clip)"/>
<g class="pl" fill="#FFF" stroke="#E5C494" stroke-width="0.900">
  <circle cx="225.4" cy="587.2" r="2.3"/>
  <circle cx="237.7" cy="587.2" r="2.3"/>
  <circle cx="250.0" cy="587.2" r="2.3"/>
  <circle cx="262.3" cy="587.2" r="2.3"/>
  <circle cx="274.6" cy="587.2" r="2.3"/>
  <circle cx="299.1" cy="587.2" r="2.3"/>
  <circle cx="311.4" cy="587.2" r="2.3"/>
  <circle cx="323.7" cy="587.2" r="2.3"/>
  <circle cx="336.0" cy="587.2" r="2.3"/>
  <circle cx="348.3" cy="587.2" r="2.3"/>
  <circle cx="360.6" cy="587.2" r="2.3"/>
  <circle cx="372.9" cy="587.2" r="2.3"/>
  <circle cx="385.1" cy="587.2" r="2.3"/>
  <circle cx="397.4" cy="587.2" r="2.3"/>
  <circle cx="422.0" cy="587.2" r="2.3"/>
  <circle cx="434.3" cy="587.2" r="2.3"/>
  <circle cx="446.6" cy="587.2" r="2.3"/>
  <circle cx="458.8" cy="587.2" r="2.3"/>
  <circle cx="471.1" cy="587.2" r="2.3"/>
  <circle cx="483.4" cy="587.2" r="2.3"/>
  <circle cx="495.7" cy="587.2" r="2.3"/>
  <circle cx="508.0" cy="587.2" r="2.3"/>
  <circle cx="520.3" cy="587.2" r="2.3"/>
  <circle cx="544.8" cy="587.2" r="2.3"/>
  <circle cx="557.1" cy="587.2" r="2.3"/>
  <circle cx="569.4" cy="587.2" r="2.3"/>
  <circle cx="581.7" cy="587.2" r="2.3"/>
  <circle cx="594.0" cy="587.2" r="2.3"/>
  <circle cx="606.2" cy="587.2" r="2.3"/>
  <circle cx="618.5" cy="587.2" r="2.3"/>
  <circle cx="630.8" cy="587.2" r="2.3"/>
  <circle cx="643.1" cy="587.2" r="2.3"/>
  <circle cx="667.7" cy="587.2" r="2.3"/>
  <circle cx="679.9" cy="587.2" r="2.3"/>
  <circle cx="692.2" cy="587.2" r="2.3"/>
  <circle cx="704.5" cy="587.2" r="2.3"/>
  <circle cx="716.8" cy="587.2" r="2.3"/>
  <circle cx="729.1" cy="587.1" r="2.3"/>
  <circle cx="741.4" cy="587.1" r="2.3"/>
  <circle cx="753.7" cy="586.9" r="2.3"/>
  <circle cx="765.9" cy="586.7" r="2.3"/>
  <circle cx="790.5" cy="586.4" r="2.3"/>
  <circle cx="802.8" cy="586.3" r="2.3"/>
  <circle cx="815.1" cy="585.9" r="2.3"/>
  <circle cx="827.4" cy="585.1" r="2.3"/>
  <circle cx="839.6" cy="584.0" r="2.3"/>
  <circle cx="851.9" cy="583.1" r="2.3"/>
  <circle cx="864.2" cy="581.7" r="2.3"/>
  <circle cx="876.5" cy="580.0" r="2.3"/>
  <circle cx="888.8" cy="577.1" r="2.3"/>
</g>
<g class="pl" fill="#FFF" stroke="#E5C494" stroke-width="0.900">
  <circle cx="286.9" cy="587.2" r="5.4"/>
  <circle cx="409.7" cy="587.2" r="5.4"/>
  <circle cx="532.5" cy="587.2" r="5.4"/>
  <circle cx="655.4" cy="587.2" r="5.4"/>
  <circle cx="778.2" cy="586.5" r="5.4"/>
  <circle cx="901.1" cy="574.4" r="5.4"/>
</g>
<polyline class="pl" points="225.4,587.2 237.7,587.2 250.0,587.2 262.3,587.2 274.6,587.2 286.9,587.2 299.1,587.2 311.4,587.2 323.7,587.2 336.0,587.2 348.3,587.2 360.6,587.2 372.9,587.2 385.1,587.2 397.4,587.2 409.7,587.2 422.0,587.2 434.3,587.2 446.6,587.2 458.8,587.2 471.1,587.2 483.4,587.2 495.7,587.2 508.0,587.2 520.3,587.2 532.5,587.2 544.8,587.2 557.1,587.2 569.4,587.2 581.7,587.2 594.0,587.2 606.2,587.2 618.5,587.2 630.8,587.2 643.1,587.2 655.4,587.2 667.7,587.2 679.9,587.2 692.2,587.2 704.5,587.1 716.8,587.1 729.1,587.0 741.4,586.9 753.7,586.8 765.9,586.6 778.2,586.5 790.5,586.5 802.8,586.4 815.1,586.2 827.4,586.3 839.6,586.1 851.9,585.8 864.2,585.5 876.5,585.3 888.8,585.1 901.1,584.8" stroke="#FFD92F" stroke-width="5.40" stroke-opacity="1.00" fill="none" clip-path="url(#axis_clip)"/>
<g class="pl" fill="#FFF" stroke="#FFD92F" stroke-width="0.900">
  <circle cx="225.4" cy="587.2" r="2.3"/>
  <circle cx="237.7" cy="587.2" r="2.3"/>
  <circle cx="250.0" cy="587.2" r="2.3"/>
  <circle cx="262.3" cy="587.2" r="2.3"/>
  <circle cx="274.6" cy="587.2" r="2.3"/>
  <circle cx="299.1" cy="587.2" r="2.3"/>
  <circle cx="311.4" cy="587.2" r="2.3"/>
  <circle cx="323.7" cy="587.2" r="2.3"/>
  <circle cx="336.0" cy="587.2" r="2.3"/>
  <circle cx="348.3" cy="587.2" r="2.3"/>
  <circle cx="360.6" cy="587.2" r="2.3"/>
  <circle cx="372.9" cy="587.2" r="2.3"/>
  <circle cx="385.1" cy="587.2" r="2.3"/>
  <circle cx="397.4" cy="587.2" r="2.3"/>
  <circle cx="422.0" cy="587.2" r="2.3"/>
  <circle cx="434.3" cy="587.2" r="2.3"/>
  <circle cx="446.6" cy="587.2" r="2.3"/>
  <circle cx="458.8" cy="587.2" r="2.3"/>
  <circle cx="471.1" cy="587.2" r="2.3"/>
  <circle cx="483.4" cy="587.2" r="2.3"/>
  <circle cx="495.7" cy="587.2" r="2.3"/>
  <circle cx="508.0" cy="587.2" r="2.3"/>
  <circle cx="520.3" cy="587.2" r="2.3"/>
  <circle cx="544.8" cy="587.2" r="2.3"/>
  <circle cx="557.1" cy="587.2" r="2.3"/>
  <circle cx="569.4" cy="587.2" r="2.3"/>
  <circle cx="581.7" cy="587.2" r="2.3"/>
  <circle cx="594.0" cy="587.2" r="2.3"/>
  <circle cx="606.2" cy="587.2" r="2.3"/>
  <circle cx="618.5" cy="587.2" r="2.3"/>
  <circle cx="630.8" cy="587.2" r="2.3"/>
  <circle cx="643.1" cy="587.2" r="2.3"/>
  <circle cx="667.7" cy="587.2" r="2.3"/>
  <circle cx="679.9" cy="587.2" r="2.3"/>
  <circle cx="692.2" cy="587.2" r="2.3"/>
  <circle cx="704.5" cy="587.1" r="2.3"/>
  <circle cx="716.8" cy="587.1" r="2.3"/>
  <circle cx="729.1" cy="587.0" r="2.3"/>
  <circle cx="741.4" cy="586.9" r="2.3"/>
  <circle cx="753.7" cy="586.8" r="2.3"/>
  <circle cx="765.9" cy="586.6" r="2.3"/>
  <circle cx="790.5" cy="586.5" r="2.3"/>
  <circle cx="802.8" cy="586.4" r="2.3"/>
  <circle cx="815.1" cy="586.2" r="2.3"/>
  <circle cx="827.4" cy="586.3" r="2.3"/>
  <circle cx="839.6" cy="586.1" r="2.3"/>
  <circle cx="851.9" cy="585.8" r="2.3"/>
  <circle cx="864.2" cy="585.5" r="2.3"/>
  <circle cx="876.5" cy="585.3" r="2.3"/>
  <circle cx="888.8" cy="585.1" r="2.3"/>
</g>
<g class="pl" fill="#FFF" stroke="#FFD92F" stroke-width="0.900">
  <circle cx="286.9" cy="587.2" r="5.4"/>
  <circle cx="409.7" cy="587.2" r="5.4"/>
  <circle cx="532.5" cy="587.2" r="5.4"/>
  <circle cx="655.4" cy="587.2" r="5.4"/>
  <circle cx="778.2" cy="586.5" r="5.4"/>
  <circle cx="901.1" cy="584.8" r="5.4"/>
</g>
<polyline class="pl" points="225.4,587.2 237.7,587.2 250.0,587.2 262.3,587.2 274.6,587.2 286.9,587.2 299.1,587.2 311.4,587.2 323.7,587.2 336.0,587.2 348.3,587.2 360.6,587.2 372.9,587.2 385.1,587.2 397.4,587.2 409.7,587.2 422.0,587.2 434.3,587.2 446.6,587.2 458.8,587.2 471.1,587.2 483.4,586.9 495.7,578.7 508.0,576.4 520.3,576.8 532.5,575.4 544.8,573.7 557.1,569.7 569.4,565.6 581.7,558.7 594.0,553.1 606.2,542.6 618.5,533.6 630.8,537.5 643.1,527.2 655.4,520.3 667.7,514.2 679.9,506.6 692.2,503.2 704.5,489.3 716.8,482.8 729.1,477.6 741.4,468.8 753.7,465.7 765.9,472.1 778.2,441.8 790.5,431.5 802.8,419.3 815.1,412.5 827.4,429.1 839.6,443.5 851.9,437.7 864.2,431.4 876.5,406.5 888.8,412.2 901.1,410.4" stroke="#6298C6" stroke-width="5.40" stroke-opacity="1.00" fill="none" clip-path="url(#axis_clip)"/>
<g class="pl" fill="#FFF" stroke="#6298C6" stroke-width="0.900">
  <circle cx="225.4" cy="587.2" r="2.3"/>
  <circle cx="237.7" cy="587.2" r="2.3"/>
  <circle cx="250.0" cy="587.2" r="2.3"/>
  <circle cx="262.3" cy="587.2" r="2.3"/>
  <circle cx="274.6" cy="587.2" r="2.3"/>
  <circle cx="299.1" cy="587.2" r="2.3"/>
  <circle cx="311.4" cy="587.2" r="2.3"/>
  <circle cx="323.7" cy="587.2" r="2.3"/>
  <circle cx="336.0" cy="587.2" r="2.3"/>
  <circle cx="348.3" cy="587.2" r="2.3"/>
  <circle cx="360.6" cy="587.2" r="2.3"/>
  <circle cx="372.9" cy="587.2" r="2.3"/>
  <circle cx="385.1" cy="587.2" r="2.3"/>
  <circle cx="397.4" cy="587.2" r="2.3"/>
  <circle cx="422.0" cy="587.2" r="2.3"/>
  <circle cx="434.3" cy="587.2" r="2.3"/>
  <circle cx="446.6" cy="587.2" r="2.3"/>
  <circle cx="458.8" cy="587.2" r="2.3"/>
  <circle cx="471.1" cy="587.2" r="2.3"/>
  <circle cx="483.4" cy="586.9" r="2.3"/>
  <circle cx="495.7" cy="578.7" r="2.3"/>
  <circle cx="508.0" cy="576.4" r="2.3"/>
  <circle cx="520.3" cy="576.8" r="2.3"/>
  <circle cx="544.8" cy="573.7" r="2.3"/>
  <circle cx="557.1" cy="569.7" r="2.3"/>
  <circle cx="569.4" cy="565.6" r="2.3"/>
  <circle cx="581.7" cy="558.7" r="2.3"/>
  <circle cx="594.0" cy="553.1" r="2.3"/>
  <circle cx="606.2" cy="542.6" r="2.3"/>
  <circle cx="618.5" cy="533.6" r="2.3"/>
  <circle cx="630.8" cy="537.5" r="2.3"/>
  <circle cx="643.1" cy="527.2" r="2.3"/>
  <circle cx="667.7" cy="514.2" r="2.3"/>
  <circle cx="679.9" cy="506.6" r="2.3"/>
  <circle cx="692.2" cy="503.2" r="2.3"/>
  <circle cx="704.5" cy="489.3" r="2.3"/>
  <circle cx="716.8" cy="482.8" r="2.3"/>
  <circle cx="729.1" cy="477.6" r="2.3"/>
  <circle cx="741.4" cy="468.8" r="2.3"/>
  <circle cx="753.7" cy="465.7" r="2.3"/>
  <circle cx="765.9" cy="472.1" r="2.3"/>
  <circle cx="790.5" cy="431.5" r="2.3"/>
  <circle cx="802.8" cy="419.3" r="2.3"/>
  <circle cx="815.1" cy="412.5" r="2.3"/>
  <circle cx="827.4" cy="429.1" r="2.3"/>
  <circle cx="839.6" cy="443.5" r="2.3"/>
  <circle cx="851.9" cy="437.7" r="2.3"/>
  <circle cx="864.2" cy="431.4" r="2.3"/>
  <circle cx="876.5" cy="406.5" r="2.3"/>
  <circle cx="888.8" cy="412.2" r="2.3"/>
</g>
<g class="pl" fill="#FFF" stroke="#6298C6" stroke-width="0.900">
  <circle cx="286.9" cy="587.2" r="5.4"/>
  <circle cx="409.7" cy="587.2" r="5.4"/>
  <circle cx="532.5" cy="575.4" r="5.4"/>
  <circle cx="655.4" cy="520.3" r="5.4"/>
  <circle cx="778.2" cy="441.8" r="5.4"/>
  <circle cx="901.1" cy="410.4" r="5.4"/>
</g>
<polyline class="pl" points="225.4,578.8 237.7,574.9 250.0,566.4 262.3,557.1 274.6,547.2 286.9,538.3 299.1,533.1 311.4,531.8 323.7,520.3 336.0,519.3 348.3,511.6 360.6,503.7 372.9,489.1 385.1,476.6 397.4,464.5 409.7,467.4 422.0,470.3 434.3,472.8 446.6,469.3 458.8,470.4 471.1,465.2 483.4,455.8 495.7,450.5 508.0,425.3 520.3,404.0 532.5,367.3 544.8,322.6 557.1,270.5 569.4,243.3 581.7,213.8 594.0,184.0 606.2,160.1 618.5,122.2 630.8,214.3 643.1,190.3 655.4,183.8 667.7,186.3 679.9,180.9 692.2,179.4 704.5,184.8 716.8,184.9 729.1,186.2 741.4,176.5 753.7,197.1 765.9,193.3 778.2,185.6 790.5,184.9 802.8,174.9 815.1,177.4 827.4,181.4 839.6,164.4 851.9,132.6 864.2,128.9 876.5,133.6 888.8,139.2 901.1,162.2" stroke="#404040" stroke-width="5.40" stroke-opacity="1.00" fill="none" clip-path="url(#axis_clip)"/>
<g class="pl" fill="#FFF" stroke="#404040" stroke-width="0.900">
  <circle cx="225.4" cy="578.8" r="2.3"/>
  <circle cx="237.7" cy="574.9" r="2.3"/>
  <circle cx="250.0" cy="566.4" r="2.3"/>
  <circle cx="262.3" cy="557.1" r="2.3"/>
  <circle cx="274.6" cy="547.2" r="2.3"/>
  <circle cx="299.1" cy="533.1" r="2.3"/>
  <circle cx="311.4" cy="531.8" r="2.3"/>
  <circle cx="323.7" cy="520.3" r="2.3"/>
  <circle cx="336.0" cy="519.3" r="2.3"/>
  <circle cx="348.3" cy="511.6" r="2.3"/>
  <circle cx="360.6" cy="503.7" r="2.3"/>
  <circle cx="372.9" cy="489.1" r="2.3"/>
  <circle cx="385.1" cy="476.6" r="2.3"/>
  <circle cx="397.4" cy="464.5" r="2.3"/>
  <circle cx="422.0" cy="470.3" r="2.3"/>
  <circle cx="434.3" cy="472.8" r="2.3"/>
  <circle cx="446.6" cy="469.3" r="2.3"/>
  <circle cx="458.8" cy="470.4" r="2.3"/>
  <circle cx="471.1" cy="465.2" r="2.3"/>
  <circle cx="483.4" cy="455.8" r="2.3"/>
  <circle cx="495.7" cy="450.5" r="2.3"/>
  <circle cx="508.0" cy="425.3" r="2.3"/>
  <circle cx="520.3" cy="404.0" r="2.3"/>
  <circle cx="544.8" cy="322.6" r="2.3"/>
  <circle cx="557.1" cy="270.5" r="2.3"/>
  <circle cx="569.4" cy="243.3" r="2.3"/>
  <circle cx="581.7" cy="213.8" r="2.3"/>
  <circle cx="594.0" cy="184.0" r="2.3"/>
  <circle cx="606.2" cy="160.1" r="2.3"/>
  <circle cx="618.5" cy="122.2" r="2.3"/>
  <circle cx="630.8" cy="214.3" r="2.3"/>
  <circle cx="643.1" cy="190.3" r="2.3"/>
  <circle cx="667.7" cy="186.3" r="2.3"/>
  <circle cx="679.9" cy="180.9" r="2.3"/>
  <circle cx="692.2" cy="179.4" r="2.3"/>
  <circle cx="704.5" cy="184.8" r="2.3"/>
  <circle cx="716.8" cy="184.9" r="2.3"/>
  <circle cx="729.1" cy="186.2" r="2.3"/>
  <circle cx="741.4" cy="176.5" r="2.3"/>
  <circle cx="753.7" cy="197.1" r="2.3"/>
  <circle cx="765.9" cy="193.3" r="2.3"/>
  <circle cx="790.5" cy="184.9" r="2.3"/>
  <circle cx="802.8" cy="174.9" r="2.3"/>
  <circle cx="815.1" cy="177.4" r="2.3"/>
  <circle cx="827.4" cy="181.4" r="2.3"/>
  <circle cx="839.6" cy="164.4" r="2.3"/>
  <circle cx="851.9" cy="132.6" r="2.3"/>
  <circle cx="864.2" cy="128.9" r="2.3"/>
  <circle cx="876.5" cy="133.6" r="2.3"/>
  <circle cx="888.8" cy="139.2" r="2.3"/>
</g>
<g class="pl" fill="#FFF" stroke="#404040" stroke-width="0.900">
  <circle cx="286.9" cy="538.3" r="5.4"/>
  <circle cx="409.7" cy="467.4" r="5.4"/>
  <circle cx="532.5" cy="367.3" r="5.4"/>
  <circle cx="655.4" cy="183.8" r="5.4"/>
  <circle cx="778.2" cy="185.6" r="5.4"/>
  <circle cx="901.1" cy="162.2" r="5.4"/>
</g>
<polyline class="pl" points="225.4,555.3 237.7,551.9 250.0,554.3 262.3,556.8 274.6,556.1 286.9,554.7 299.1,555.0 311.4,554.8 323.7,547.0 336.0,546.5 348.3,544.9 360.6,540.8 372.9,537.3 385.1,537.4 397.4,528.4 409.7,522.6 422.0,513.7 434.3,513.8 446.6,510.0 458.8,495.5 471.1,486.8 483.4,482.0 495.7,481.7 508.0,476.0 520.3,479.9 532.5,482.6 544.8,483.4 557.1,487.2 569.4,478.8 581.7,477.1 594.0,474.2 606.2,456.7 618.5,446.5 630.8,443.3 643.1,436.2 655.4,418.6 667.7,408.9 679.9,396.8 692.2,390.1 704.5,383.1 716.8,377.9 729.1,371.6 741.4,360.9 753.7,337.2 765.9,328.6 778.2,297.5 790.5,274.5 802.8,287.5 815.1,285.9 827.4,276.9 839.6,274.6 851.9,289.8 864.2,273.4 876.5,272.2 888.8,288.9 901.1,324.7" stroke="#7B553E" stroke-width="5.40" stroke-opacity="1.00" fill="none" clip-path="url(#axis_clip)"/>
<g class="pl" fill="#FFF" stroke="#7B553E" stroke-width="0.900">
  <circle cx="225.4" cy="555.3" r="2.3"/>
  <circle cx="237.7" cy="551.9" r="2.3"/>
  <circle cx="250.0" cy="554.3" r="2.3"/>
  <circle cx="262.3" cy="556.8" r="2.3"/>
  <circle cx="274.6" cy="556.1" r="2.3"/>
  <circle cx="299.1" cy="555.0" r="2.3"/>
  <circle cx="311.4" cy="554.8" r="2.3"/>
  <circle cx="323.7" cy="547.0" r="2.3"/>
  <circle cx="336.0" cy="546.5" r="2.3"/>
  <circle cx="348.3" cy="544.9" r="2.3"/>
  <circle cx="360.6" cy="540.8" r="2.3"/>
  <circle cx="372.9" cy="537.3" r="2.3"/>
  <circle cx="385.1" cy="537.4" r="2.3"/>
  <circle cx="397.4" cy="528.4" r="2.3"/>
  <circle cx="422.0" cy="513.7" r="2.3"/>
  <circle cx="434.3" cy="513.8" r="2.3"/>
  <circle cx="446.6" cy="510.0" r="2.3"/>
  <circle cx="458.8" cy="495.5" r="2.3"/>
  <circle cx="471.1" cy="486.8" r="2.3"/>
  <circle cx="483.4" cy="482.0" r="2.3"/>
  <circle cx="495.7" cy="481.7" r="2.3"/>
  <circle cx="508.0" cy="476.0" r="2.3"/>
  <circle cx="520.3" cy="479.9" r="2.3"/>
  <circle cx="544.8" cy="483.4" r="2.3"/>
  <circle cx="557.1" cy="487.2" r="2.3"/>
  <circle cx="569.4" cy="478.8" r="2.3"/>
  <circle cx="581.7" cy="477.1" r="2.3"/>
  <circle cx="594.0" cy="474.2" r="2.3"/>
  <circle cx="606.2" cy="456.7" r="2.3"/>
  <circle cx="618.5" cy="446.5" r="2.3"/>
  <circle cx="630.8" cy="443.3" r="2.3"/>
  <circle cx="643.1" cy="436.2" r="2.3"/>
  <circle cx="667.7" cy="408.9" r="2.3"/>
  <circle cx="679.9" cy="396.8" r="2.3"/>
  <circle cx="692.2" cy="390.1" r="2.3"/>
  <circle cx="704.5" cy="383.1" r="2.3"/>
  <circle cx="716.8" cy="377.9" r="2.3"/>
  <circle cx="729.1" cy="371.6" r="2.3"/>
  <circle cx="741.4" cy="360.9" r="2.3"/>
  <circle cx="753.7" cy="337.2" r="2.3"/>
  <circle cx="765.9" cy="328.6" r="2.3"/>
  <circle cx="790.5" cy="274.5" r="2.3"/>
  <circle cx="802.8" cy="287.5" r="2.3"/>
  <circle cx="815.1" cy="285.9" r="2.3"/>
  <circle cx="827.4" cy="276.9" r="2.3"/>
  <circle cx="839.6" cy="274.6" r="2.3"/>
  <circle cx="851.9" cy="289.8" r="2.3"/>
  <circle cx="864.2" cy="273.4" r="2.3"/>
  <circle cx="876.5" cy="272.2" r="2.3"/>
  <circle cx="888.8" cy="288.9" r="2.3"/>
</g>
<g class="pl" fill="#FFF" stroke="#7B553E" stroke-width="0.900">
  <circle cx="286.9" cy="554.7" r="5.4"/>
  <circle cx="409.7" cy="522.6" r="5.4"/>
  <circle cx="532.5" cy="482.6" r="5.4"/>
  <circle cx="655.4" cy="418.6" r="5.4"/>
  <circle cx="778.2" cy="297.5" r="5.4"/>
  <circle cx="901.1" cy="324.7" r="5.4"/>
</g>
<text transform="translate(945.6,509.5)" dy="8.1" font-size="27.00" fill="#FDBF6F" stroke="none">Bioenergy</text>
<text transform="translate(945.6,457.7)" dy="8.1" font-size="27.00" fill="#E78AC3" stroke="none">Other</text>
<text transform="translate(945.6,561.3)" dy="8.1" font-size="27.00" fill="#8DA0CB" stroke="none">Biofuels</text>
<text transform="translate(945.6,431.8)" dy="8.1" font-size="27.00" fill="#FC8D62" stroke="none">Nuclear</text>
<text transform="translate(945.6,535.4)" dy="8.1" font-size="27.00" fill="#66C2A5" stroke="none">Hydro</text>
<text transform="translate(945.6,483.6)" dy="8.1" font-size="27.00" fill="#E5C494" stroke="none">Solar</text>
<text transform="translate(945.6,587.2)" dy="8.1" font-size="27.00" fill="#FFD92F" stroke="none">Wind</text>
<text transform="translate(945.6,405.9)" dy="8.1" font-size="27.00" fill="#6298C6" stroke="none">Gas</text>
<text transform="translate(945.6,162.2)" dy="8.1" font-size="27.00" fill="#404040" stroke="none">Oil</text>
<text transform="translate(945.6,324.7)" dy="8.1" font-size="27.00" fill="#7B553E" stroke="none">Coal</text>
<polyline class="pl" points="910.8,577.7 912.4,577.5 913.8,576.8 915.2,575.7 916.4,574.2 917.6,572.3 918.8,570.1 919.8,567.7 920.8,565.0 921.7,562.1 922.7,559.0 923.5,555.7 924.4,552.3 925.2,548.9 926.0,545.3 926.8,541.8 927.6,538.3 928.4,534.8 929.3,531.5 930.1,528.2 931.1,525.1 932.0,522.2 933.0,519.5 934.0,517.0 935.2,514.9 936.4,513.0 937.6,511.5 939.0,510.4 940.4,509.7 942.0,509.5" stroke="#FDBF6F" stroke-width="0.90" stroke-opacity="1.00" fill="none" />
<polyline class="pl" points="910.8,573.8 912.4,573.4 913.8,572.2 915.2,570.4 916.4,567.8 917.6,564.7 918.8,561.0 919.8,556.8 920.8,552.2 921.7,547.2 922.7,541.9 923.5,536.4 924.4,530.6 925.2,524.7 926.0,518.7 926.8,512.7 927.6,506.8 928.4,500.9 929.3,495.1 930.1,489.6 931.1,484.3 932.0,479.3 933.0,474.7 934.0,470.5 935.2,466.8 936.4,463.7 937.6,461.1 939.0,459.2 940.4,458.1 942.0,457.7" stroke="#E78AC3" stroke-width="0.90" stroke-opacity="1.00" fill="none" />
<polyline class="pl" points="910.8,584.7 912.4,584.6 913.8,584.3 915.2,584.0 916.4,583.4 917.6,582.8 918.8,582.1 919.8,581.2 920.8,580.3 921.7,579.3 922.7,578.2 923.5,577.1 924.4,576.0 925.2,574.8 926.0,573.6 926.8,572.4 927.6,571.2 928.4,570.0 929.3,568.8 930.1,567.7 931.1,566.6 932.0,565.6 933.0,564.7 934.0,563.9 935.2,563.1 936.4,562.5 937.6,562.0 939.0,561.6 940.4,561.4 942.0,561.3" stroke="#8DA0CB" stroke-width="0.90" stroke-opacity="1.00" fill="none" />
<polyline class="pl" points="910.8,463.9 912.4,463.8 913.8,463.4 915.2,462.9 916.4,462.2 917.6,461.3 918.8,460.3 919.8,459.2 920.8,457.9 921.7,456.5 922.7,455.1 923.5,453.5 924.4,451.9 925.2,450.3 926.0,448.6 926.8,447.0 927.6,445.3 928.4,443.7 929.3,442.1 930.1,440.6 931.1,439.1 932.0,437.7 933.0,436.5 934.0,435.3 935.2,434.3 936.4,433.4 937.6,432.7 939.0,432.2 940.4,431.9 942.0,431.8" stroke="#FC8D62" stroke-width="0.90" stroke-opacity="1.00" fill="none" />
<polyline class="pl" points="910.8,584.2 912.4,584.0 913.8,583.5 915.2,582.7 916.4,581.7 917.6,580.3 918.8,578.8 919.8,577.0 920.8,575.1 921.7,573.0 922.7,570.8 923.5,568.4 924.4,566.0 925.2,563.6 926.0,561.0 926.8,558.5 927.6,556.0 928.4,553.5 929.3,551.1 930.1,548.8 931.1,546.6 932.0,544.5 933.0,542.5 934.0,540.8 935.2,539.2 936.4,537.9 937.6,536.8 939.0,536.0 940.4,535.5 942.0,535.4" stroke="#66C2A5" stroke-width="0.90" stroke-opacity="1.00" fill="none" />
<polyline class="pl" points="910.8,574.4 912.4,574.1 913.8,573.2 915.2,571.7 916.4,569.7 917.6,567.3 918.8,564.4 919.8,561.1 920.8,557.5 921.7,553.6 922.7,549.5 923.5,545.1 924.4,540.6 925.2,536.0 926.0,531.3 926.8,526.6 927.6,522.0 928.4,517.4 929.3,512.9 930.1,508.5 931.1,504.4 932.0,500.5 933.0,496.9 934.0,493.6 935.2,490.7 936.4,488.3 937.6,486.3 939.0,484.8 940.4,483.9 942.0,483.6" stroke="#E5C494" stroke-width="0.90" stroke-opacity="1.00" fill="none" />
<polyline class="pl" points="910.8,584.8 912.4,584.8 913.8,584.8 915.2,584.8 916.4,584.9 917.6,585.0 918.8,585.0 919.8,585.1 920.8,585.2 921.7,585.3 922.7,585.4 923.5,585.5 924.4,585.7 925.2,585.8 926.0,585.9 926.8,586.0 927.6,586.2 928.4,586.3 929.3,586.4 930.1,586.5 931.1,586.6 932.0,586.7 933.0,586.8 934.0,586.9 935.2,587.0 936.4,587.1 937.6,587.1 939.0,587.1 940.4,587.2 942.0,587.2" stroke="#FFD92F" stroke-width="0.90" stroke-opacity="1.00" fill="none" />
<polyline class="pl" points="910.8,410.4 912.4,410.4 913.8,410.4 915.2,410.3 916.4,410.2 917.6,410.1 918.8,409.9 919.8,409.8 920.8,409.6 921.7,409.4 922.7,409.2 923.5,409.0 924.4,408.7 925.2,408.5 926.0,408.3 926.8,408.0 927.6,407.8 928.4,407.6 929.3,407.3 930.1,407.1 931.1,406.9 932.0,406.7 933.0,406.5 934.0,406.4 935.2,406.2 936.4,406.1 937.6,406.0 939.0,405.9 940.4,405.9 942.0,405.9" stroke="#6298C6" stroke-width="0.90" stroke-opacity="1.00" fill="none" />
<text transform="translate(1079.5,506.1)" dy="0.0" font-size="14.40" fill="#FDBF6F" stroke="none">excluding</text>
<text transform="translate(1079.5,506.1)" dy="14.4" font-size="14.40" fill="#FDBF6F" stroke="none">liquids</text>
<text transform="translate(145.6,47.2)" dy="0.0" font-size="27.00" fill="#808080" stroke="none">Annual energy consumption per capita South Korea</text>
<text transform="translate(130.0,81.6)" dy="8.1" font-size="27.00" fill="#808080" stroke="none" text-anchor="end">per person</text>
<text transform="translate(160.2,666.1)" font-size="19.80" fill="#BFBFBF" stroke="none" xml:space="preserve">Global Carbon Project   &#9679;   Data: BP, IEA (bioenergy)</text>
<g class="cc">
  <rect x="123.0" y="651.4" width="34" height="17" fill="#FFF" stroke="none"/>
  <g transform="translate(124.0,652.4) scale(0.24)">
  <g><circle fill="#FFF" cx="37.79" cy="28.5" r="28.84"/>
     <circle fill="none" cx="37.79" cy="28.5" r="28.84" stroke="#000" stroke-width="5.5"/>
     <path d="M37.16,23.19 l-4.29,2.23c-0.458-0.951-1.02-1.62-1.69-2c-0.667-0.38-1.29-0.571-1.86-0.571c-2.86,0-4.29,1.89-4.29,5.66 c0,1.71,0.36,3.08,1.09,4.11c0.724,1.03,1.79,1.54,3.2,1.54c1.87,0,3.18-0.915,3.94-2.74l3.94,2 c-0.838,1.56-2,2.79-3.49,3.69c-1.48,0.896-3.12,1.34-4.91,1.34c-2.86,0-5.16-0.875-6.92-2.63 c-1.75-1.75-2.63-4.19-2.63-7.31c0-3.05,0.886-5.47,2.66-7.26c1.77-1.79,4.01-2.69,6.72-2.69 C32.6,18.56,35.44,20.1,37.16,23.19z
              M55.61,23.19l-4.23,2.23c-0.457-0.951-1.02-1.62-1.69-2 c-0.668-0.38-1.31-0.571-1.91-0.571c-2.86,0-4.29,1.89-4.29,5.66c0,1.71,0.363,3.08,1.09,4.11 c0.723,1.03,1.79,1.54,3.2,1.54c1.87,0,3.18-0.915,3.94-2.74l4,2c-0.875,1.56-2.06,2.79-3.54,3.69 c-1.49,0.9-3.11,1.34-4.86,1.34c-2.9,0-5.21-0.875-6.94-2.63c-1.74-1.75-2.6-4.19-2.6-7.31 c0-3.05,0.885-5.47,2.66-7.26c1.77-1.79,4.01-2.69,6.71-2.69C51.12,18.56,53.944,20.1,55.61,23.19z"/>
  </g></g>
  <g transform="translate(140.2,652.4) scale(0.24)">
  <g><circle fill="#FFF" cx="37.79" cy="28.5" r="28.84"/>
     <circle fill="none" cx="37.79" cy="28.5" r="28.84" stroke="#000" stroke-width="5.5"/>
     <path d="M46.129,20.557v13.085h-3.656v15.542h-9.944V33.643h-3.656V20.557 c0-0.572,0.2-1.057,0.599-1.457c0.401-0.399,0.887-0.6,1.457-0.6h13.144c0.533,0,1.01,0.2,1.428,0.6 C45.918,19.5,46.129,19.986,46.129,20.557z
              M33.042,12.329c0-3.008,1.485-4.514,4.458-4.514s4.457,1.504,4.457,4.514 c0,2.971-1.486,4.457-4.457,4.457S33.042,15.3,33.042,12.329z"/>
  </g></g>
</g>
</g>
</svg>
