<svg version="1.1" xmlns="http://www.w3.org/2000/svg" xmlns:xlink="http://www.w3.org/1999/xlink" width="100%" height="100%" viewBox="0 0 1200.000 674.916">
<title>Annual energy consumption Poland</title>
<style type="text/css">
  #main {font-family:Helvetica,Arial,sans-serif; font-size:27.00px;
         fill-opacity:1; fill:#000000; stroke:none; stroke-linejoin:round; stroke-linecap:round; stroke-width:1.00;}
  .marker {stroke-opacity:0;fill-opacity:0;}
  .marker:hover {stroke-opacity:0.5; fill-opacity:1;}
  .ticklabel {font-size:27.00px;fill:#808080;stroke:none}
  .ytl {text-anchor:end;}
  .xtl {text-anchor:middle;}
  .dp1 {pointer-events:none;font-size:70%;text-anchor:middle;fill:#000000;}
  .dp2 {pointer-events:none;font-size:70%;text-anchor:middle;fill:#FFFFFF;}
  .numtip {pointer-events:none;}
  .cc {opacity:0.25;}
.dl_fe {background-color:#FDFFDF;display:flex;margin:auto;align-items:center}
.dl_fe_p {font-size:20px;text-align:center;margin:3px}
.dl_el {display:none;pointer-events:none;}
.cc:hover + .dl_el {display:block;}
text:hover + .dl_el {display:block;}
</style>
<defs>
  <clipPath id="axis_clip"><rect x="145.8" y="54.2" width="761.2" height="532.8" /></clipPath>
  <path id="line_x" d="M 145.600,0 h 761.600" stroke="#262626" stroke-opacity="0.15" stroke-width="1.00"/>
  <path id="tick_y" d="M 145.600,0 h -6.000" stroke="#808080" stroke-width="0.90"/>
  <path id="tick_x" d="M 0,587.177 v 6.000" stroke="#808080" stroke-width="0.90"/>
</defs>
<g id="main">
<use xlink:href="#line_x" transform="translate(0,587.2)"/>
<use xlink:href="#line_x" transform="translate(0,468.7)"/>
<use xlink:href="#line_x" transform="translate(0,350.2)"/>
<use xlink:href="#line_x" transform="translate(0,231.7)"/>
<use xlink:href="#line_x" transform="translate(0,113.2)"/>
<use xlink:href="#tick_y" transform="translate(0,587.2)"/>
<use xlink:href="#tick_y" transform="translate(0,468.7)"/>
<use xlink:href="#tick_y" transform="translate(0,350.2)"/>
<use xlink:href="#tick_y" transform="translate(0,231.7)"/>
<use xlink:href="#tick_y" transform="translate(0,113.2)"/>
<use xlink:href="#tick_x" transform="translate(164.0,0)"/>
<use xlink:href="#tick_x" transform="translate(286.9,0)"/>
<use xlink:href="#tick_x" transform="translate(409.7,0)"/>
<use xlink:href="#tick_x" transform="translate(532.5,0)"/>
<use xlink:href="#tick_x" transform="translate(655.4,0)"/>
<use xlink:href="#tick_x" transform="translate(778.2,0)"/>
<use xlink:href="#tick_x" transform="translate(901.1,0)"/>
<polyline points="145.6,53.993 145.6,587.177 907.2,587.177" stroke="#808080" stroke-width="0.90" fill="none"/>
<text class="ticklabel xtl" transform="translate(164.0,629.0)">1960</text>
<text class="ticklabel xtl" transform="translate(286.9,629.0)">1970</text>
<text class="ticklabel xtl" transform="translate(409.7,629.0)">1980</text>
<text class="ticklabel xtl" transform="translate(532.5,629.0)">1990</text>
<text class="ticklabel xtl" transform="translate(655.4,629.0)">2000</text>
<text class="ticklabel xtl" transform="translate(778.2,629.0)">2010</text>
<text class="ticklabel xtl" transform="translate(901.1,629.0)">2020</text>
<text class="ticklabel ytl" transform="translate(128.8,595.3)">0</text>
<text class="ticklabel ytl" transform="translate(128.8,476.8)">1</text>
<text class="ticklabel ytl" transform="translate(128.8,358.3)">2</text>
<text class="ticklabel ytl" transform="translate(128.8,239.8)">3</text>
<text class="ticklabel ytl" transform="translate(128.8,121.3)">4 EJ</text>
<polyline class="pl" points="225.4,582.7 237.7,582.6 250.0,582.2 262.3,582.0 274.6,581.8 286.9,582.6 299.1,581.9 311.4,581.3 323.7,582.0 336.0,581.9 348.3,581.9 360.6,582.2 372.9,582.4 385.1,582.9 397.4,583.3 409.7,583.0 422.0,581.7 434.3,582.3 446.6,582.0 458.8,581.1 471.1,580.7 483.4,577.2 495.7,578.3 508.0,579.0 520.3,579.4 532.5,579.9 544.8,581.1 557.1,580.4 569.4,568.3 581.7,568.8 594.0,568.5 606.2,568.8 618.5,568.8 630.8,568.7 643.1,569.5 655.4,569.2 667.7,568.0 679.9,567.7 692.2,567.5 704.5,566.8 716.8,566.2 729.1,565.4 741.4,565.1 753.7,563.1 765.9,560.9 778.2,557.5 790.5,554.8 802.8,551.5 815.1,552.2 827.4,552.5 839.6,551.7 851.9,552.7 864.2,554.1 876.5,554.0 888.8,552.5 901.1,552.2" stroke="#FDBF6F" stroke-width="5.40" stroke-opacity="1.00" fill="none" clip-path="url(#axis_clip)"/>
<g class="pl" fill="#FFF" stroke="#FDBF6F" stroke-width="0.900">
  <circle cx="225.4" cy="582.7" r="2.3"/>
  <circle cx="237.7" cy="582.6" r="2.3"/>
  <circle cx="250.0" cy="582.2" r="2.3"/>
  <circle cx="262.3" cy="582.0" r="2.3"/>
  <circle cx="274.6" cy="581.8" r="2.3"/>
  <circle cx="299.1" cy="581.9" r="2.3"/>
  <circle cx="311.4" cy="581.3" r="2.3"/>
  <circle cx="323.7" cy="582.0" r="2.3"/>
  <circle cx="336.0" cy="581.9" r="2.3"/>
  <circle cx="348.3" cy="581.9" r="2.3"/>
  <circle cx="360.6" cy="582.2" r="2.3"/>
  <circle cx="372.9" cy="582.4" r="2.3"/>
  <circle cx="385.1" cy="582.9" r="2.3"/>
  <circle cx="397.4" cy="583.3" r="2.3"/>
  <circle cx="422.0" cy="581.7" r="2.3"/>
  <circle cx="434.3" cy="582.3" r="2.3"/>
  <circle cx="446.6" cy="582.0" r="2.3"/>
  <circle cx="458.8" cy="581.1" r="2.3"/>
  <circle cx="471.1" cy="580.7" r="2.3"/>
  <circle cx="483.4" cy="577.2" r="2.3"/>
  <circle cx="495.7" cy="578.3" r="2.3"/>
  <circle cx="508.0" cy="579.0" r="2.3"/>
  <circle cx="520.3" cy="579.4" r="2.3"/>
  <circle cx="544.8" cy="581.1" r="2.3"/>
  <circle cx="557.1" cy="580.4" r="2.3"/>
  <circle cx="569.4" cy="568.3" r="2.3"/>
  <circle cx="581.7" cy="568.8" r="2.3"/>
  <circle cx="594.0" cy="568.5" r="2.3"/>
  <circle cx="606.2" cy="568.8" r="2.3"/>
  <circle cx="618.5" cy="568.8" r="2.3"/>
  <circle cx="630.8" cy="568.7" r="2.3"/>
  <circle cx="643.1" cy="569.5" r="2.3"/>
  <circle cx="667.7" cy="568.0" r="2.3"/>
  <circle cx="679.9" cy="567.7" r="2.3"/>
  <circle cx="692.2" cy="567.5" r="2.3"/>
  <circle cx="704.5" cy="566.8" r="2.3"/>
  <circle cx="716.8" cy="566.2" r="2.3"/>
  <circle cx="729.1" cy="565.4" r="2.3"/>
  <circle cx="741.4" cy="565.1" r="2.3"/>
  <circle cx="753.7" cy="563.1" r="2.3"/>
  <circle cx="765.9" cy="560.9" r="2.3"/>
  <circle cx="790.5" cy="554.8" r="2.3"/>
  <circle cx="802.8" cy="551.5" r="2.3"/>
  <circle cx="815.1" cy="552.2" r="2.3"/>
  <circle cx="827.4" cy="552.5" r="2.3"/>
  <circle cx="839.6" cy="551.7" r="2.3"/>
  <circle cx="851.9" cy="552.7" r="2.3"/>
  <circle cx="864.2" cy="554.1" r="2.3"/>
  <circle cx="876.5" cy="554.0" r="2.3"/>
  <circle cx="888.8" cy="552.5" r="2.3"/>
</g>
<g class="pl" fill="#FFF" stroke="#FDBF6F" stroke-width="0.900">
  <circle cx="286.9" cy="582.6" r="5.4"/>
  <circle cx="409.7" cy="583.0" r="5.4"/>
  <circle cx="532.5" cy="579.9" r="5.4"/>
  <circle cx="655.4" cy="569.2" r="5.4"/>
  <circle cx="778.2" cy="557.5" r="5.4"/>
  <circle cx="901.1" cy="552.2" r="5.4"/>
</g>
<polyline class="pl" points="225.4,587.1 237.7,587.1 250.0,587.1 262.3,587.1 274.6,587.1 286.9,587.1 299.1,587.1 311.4,587.0 323.7,586.9 336.0,586.9 348.3,586.9 360.6,587.0 372.9,586.9 385.1,586.9 397.4,586.9 409.7,586.9 422.0,586.9 434.3,586.9 446.6,586.7 458.8,586.8 471.1,586.7 483.4,586.7 495.7,586.9 508.0,587.1 520.3,587.1 532.5,587.1 544.8,587.1 557.1,587.0 569.4,587.1 581.7,587.1 594.0,587.1 606.2,587.0 618.5,587.0 630.8,586.9 643.1,586.9 655.4,586.9 667.7,586.7 679.9,586.7 692.2,586.6 704.5,586.2 716.8,585.4 729.1,584.9 741.4,584.3 753.7,583.1 765.9,581.3 778.2,580.2 790.5,578.8 802.8,576.1 815.1,577.8 827.4,576.3 839.6,576.7 851.9,578.6 864.2,580.3 876.5,580.2 888.8,579.1 901.1,578.9" stroke="#E78AC3" stroke-width="5.40" stroke-opacity="1.00" fill="none" clip-path="url(#axis_clip)"/>
<g class="pl" fill="#FFF" stroke="#E78AC3" stroke-width="0.900">
  <circle cx="225.4" cy="587.1" r="2.3"/>
  <circle cx="237.7" cy="587.1" r="2.3"/>
  <circle cx="250.0" cy="587.1" r="2.3"/>
  <circle cx="262.3" cy="587.1" r="2.3"/>
  <circle cx="274.6" cy="587.1" r="2.3"/>
  <circle cx="299.1" cy="587.1" r="2.3"/>
  <circle cx="311.4" cy="587.0" r="2.3"/>
  <circle cx="323.7" cy="586.9" r="2.3"/>
  <circle cx="336.0" cy="586.9" r="2.3"/>
  <circle cx="348.3" cy="586.9" r="2.3"/>
  <circle cx="360.6" cy="587.0" r="2.3"/>
  <circle cx="372.9" cy="586.9" r="2.3"/>
  <circle cx="385.1" cy="586.9" r="2.3"/>
  <circle cx="397.4" cy="586.9" r="2.3"/>
  <circle cx="422.0" cy="586.9" r="2.3"/>
  <circle cx="434.3" cy="586.9" r="2.3"/>
  <circle cx="446.6" cy="586.7" r="2.3"/>
  <circle cx="458.8" cy="586.8" r="2.3"/>
  <circle cx="471.1" cy="586.7" r="2.3"/>
  <circle cx="483.4" cy="586.7" r="2.3"/>
  <circle cx="495.7" cy="586.9" r="2.3"/>
  <circle cx="508.0" cy="587.1" r="2.3"/>
  <circle cx="520.3" cy="587.1" r="2.3"/>
  <circle cx="544.8" cy="587.1" r="2.3"/>
  <circle cx="557.1" cy="587.0" r="2.3"/>
  <circle cx="569.4" cy="587.1" r="2.3"/>
  <circle cx="581.7" cy="587.1" r="2.3"/>
  <circle cx="594.0" cy="587.1" r="2.3"/>
  <circle cx="606.2" cy="587.0" r="2.3"/>
  <circle cx="618.5" cy="587.0" r="2.3"/>
  <circle cx="630.8" cy="586.9" r="2.3"/>
  <circle cx="643.1" cy="586.9" r="2.3"/>
  <circle cx="667.7" cy="586.7" r="2.3"/>
  <circle cx="679.9" cy="586.7" r="2.3"/>
  <circle cx="692.2" cy="586.6" r="2.3"/>
  <circle cx="704.5" cy="586.2" r="2.3"/>
  <circle cx="716.8" cy="585.4" r="2.3"/>
  <circle cx="729.1" cy="584.9" r="2.3"/>
  <circle cx="741.4" cy="584.3" r="2.3"/>
  <circle cx="753.7" cy="583.1" r="2.3"/>
  <circle cx="765.9" cy="581.3" r="2.3"/>
  <circle cx="790.5" cy="578.8" r="2.3"/>
  <circle cx="802.8" cy="576.1" r="2.3"/>
  <circle cx="815.1" cy="577.8" r="2.3"/>
  <circle cx="827.4" cy="576.3" r="2.3"/>
  <circle cx="839.6" cy="576.7" r="2.3"/>
  <circle cx="851.9" cy="578.6" r="2.3"/>
  <circle cx="864.2" cy="580.3" r="2.3"/>
  <circle cx="876.5" cy="580.2" r="2.3"/>
  <circle cx="888.8" cy="579.1" r="2.3"/>
</g>
<g class="pl" fill="#FFF" stroke="#E78AC3" stroke-width="0.900">
  <circle cx="286.9" cy="587.1" r="5.4"/>
  <circle cx="409.7" cy="586.9" r="5.4"/>
  <circle cx="532.5" cy="587.1" r="5.4"/>
  <circle cx="655.4" cy="586.9" r="5.4"/>
  <circle cx="778.2" cy="580.2" r="5.4"/>
  <circle cx="901.1" cy="578.9" r="5.4"/>
</g>
<polyline class="pl" points="532.5,587.2 544.8,587.2 557.1,587.2 569.4,587.2 581.7,587.2 594.0,587.2 606.2,587.2 618.5,587.2 630.8,587.2 643.1,587.2 655.4,587.2 667.7,587.2 679.9,587.2 692.2,587.0 704.5,587.1 716.8,586.9 729.1,586.7 741.4,586.7 753.7,585.0 765.9,584.1 778.2,584.0 790.5,583.8 802.8,583.4 815.1,583.5 827.4,583.7 839.6,583.9 851.9,585.0 864.2,584.2 876.5,582.7 888.8,582.3 901.1,582.6" stroke="#8DA0CB" stroke-width="5.40" stroke-opacity="1.00" fill="none" clip-path="url(#axis_clip)"/>
<g class="pl" fill="#FFF" stroke="#8DA0CB" stroke-width="0.900">
  <circle cx="544.8" cy="587.2" r="2.3"/>
  <circle cx="557.1" cy="587.2" r="2.3"/>
  <circle cx="569.4" cy="587.2" r="2.3"/>
  <circle cx="581.7" cy="587.2" r="2.3"/>
  <circle cx="594.0" cy="587.2" r="2.3"/>
  <circle cx="606.2" cy="587.2" r="2.3"/>
  <circle cx="618.5" cy="587.2" r="2.3"/>
  <circle cx="630.8" cy="587.2" r="2.3"/>
  <circle cx="643.1" cy="587.2" r="2.3"/>
  <circle cx="667.7" cy="587.2" r="2.3"/>
  <circle cx="679.9" cy="587.2" r="2.3"/>
  <circle cx="692.2" cy="587.0" r="2.3"/>
  <circle cx="704.5" cy="587.1" r="2.3"/>
  <circle cx="716.8" cy="586.9" r="2.3"/>
  <circle cx="729.1" cy="586.7" r="2.3"/>
  <circle cx="741.4" cy="586.7" r="2.3"/>
  <circle cx="753.7" cy="585.0" r="2.3"/>
  <circle cx="765.9" cy="584.1" r="2.3"/>
  <circle cx="790.5" cy="583.8" r="2.3"/>
  <circle cx="802.8" cy="583.4" r="2.3"/>
  <circle cx="815.1" cy="583.5" r="2.3"/>
  <circle cx="827.4" cy="583.7" r="2.3"/>
  <circle cx="839.6" cy="583.9" r="2.3"/>
  <circle cx="851.9" cy="585.0" r="2.3"/>
  <circle cx="864.2" cy="584.2" r="2.3"/>
  <circle cx="876.5" cy="582.7" r="2.3"/>
  <circle cx="888.8" cy="582.3" r="2.3"/>
</g>
<g class="pl" fill="#FFF" stroke="#8DA0CB" stroke-width="0.900">
  <circle cx="532.5" cy="587.2" r="5.4"/>
  <circle cx="655.4" cy="587.2" r="5.4"/>
  <circle cx="778.2" cy="584.0" r="5.4"/>
  <circle cx="901.1" cy="582.6" r="5.4"/>
</g>
<polyline class="pl" points="225.4,587.2 237.7,587.2 250.0,587.2 262.3,587.2 274.6,587.2 286.9,587.2 299.1,587.2 311.4,587.2 323.7,587.2 336.0,587.2 348.3,587.2 360.6,587.2 372.9,587.2 385.1,587.2 397.4,587.2 409.7,587.2 422.0,587.2 434.3,587.2 446.6,587.2 458.8,587.2 471.1,587.2 483.4,587.2 495.7,587.2 508.0,587.2 520.3,587.2 532.5,587.2 544.8,587.2 557.1,587.2 569.4,587.2 581.7,587.2 594.0,587.2 606.2,587.2 618.5,587.2 630.8,587.2 643.1,587.2 655.4,587.2 667.7,587.2 679.9,587.2 692.2,587.2 704.5,587.2 716.8,587.2 729.1,587.2 741.4,587.2 753.7,587.2 765.9,587.2 778.2,587.2 790.5,587.2 802.8,587.2 815.1,587.2 827.4,587.2 839.6,587.2 851.9,587.2 864.2,587.2 876.5,587.2 888.8,587.2 901.1,587.2" stroke="#FC8D62" stroke-width="5.40" stroke-opacity="1.00" fill="none" clip-path="url(#axis_clip)"/>
<g class="pl" fill="#FFF" stroke="#FC8D62" stroke-width="0.900">
  <circle cx="225.4" cy="587.2" r="2.3"/>
  <circle cx="237.7" cy="587.2" r="2.3"/>
  <circle cx="250.0" cy="587.2" r="2.3"/>
  <circle cx="262.3" cy="587.2" r="2.3"/>
  <circle cx="274.6" cy="587.2" r="2.3"/>
  <circle cx="299.1" cy="587.2" r="2.3"/>
  <circle cx="311.4" cy="587.2" r="2.3"/>
  <circle cx="323.7" cy="587.2" r="2.3"/>
  <circle cx="336.0" cy="587.2" r="2.3"/>
  <circle cx="348.3" cy="587.2" r="2.3"/>
  <circle cx="360.6" cy="587.2" r="2.3"/>
  <circle cx="372.9" cy="587.2" r="2.3"/>
  <circle cx="385.1" cy="587.2" r="2.3"/>
  <circle cx="397.4" cy="587.2" r="2.3"/>
  <circle cx="422.0" cy="587.2" r="2.3"/>
  <circle cx="434.3" cy="587.2" r="2.3"/>
  <circle cx="446.6" cy="587.2" r="2.3"/>
  <circle cx="458.8" cy="587.2" r="2.3"/>
  <circle cx="471.1" cy="587.2" r="2.3"/>
  <circle cx="483.4" cy="587.2" r="2.3"/>
  <circle cx="495.7" cy="587.2" r="2.3"/>
  <circle cx="508.0" cy="587.2" r="2.3"/>
  <circle cx="520.3" cy="587.2" r="2.3"/>
  <circle cx="544.8" cy="587.2" r="2.3"/>
  <circle cx="557.1" cy="587.2" r="2.3"/>
  <circle cx="569.4" cy="587.2" r="2.3"/>
  <circle cx="581.7" cy="587.2" r="2.3"/>
  <circle cx="594.0" cy="587.2" r="2.3"/>
  <circle cx="606.2" cy="587.2" r="2.3"/>
  <circle cx="618.5" cy="587.2" r="2.3"/>
  <circle cx="630.8" cy="587.2" r="2.3"/>
  <circle cx="643.1" cy="587.2" r="2.3"/>
  <circle cx="667.7" cy="587.2" r="2.3"/>
  <circle cx="679.9" cy="587.2" r="2.3"/>
  <circle cx="692.2" cy="587.2" r="2.3"/>
  <circle cx="704.5" cy="587.2" r="2.3"/>
  <circle cx="716.8" cy="587.2" r="2.3"/>
  <circle cx="729.1" cy="587.2" r="2.3"/>
  <circle cx="741.4" cy="587.2" r="2.3"/>
  <circle cx="753.7" cy="587.2" r="2.3"/>
  <circle cx="765.9" cy="587.2" r="2.3"/>
  <circle cx="790.5" cy="587.2" r="2.3"/>
  <circle cx="802.8" cy="587.2" r="2.3"/>
  <circle cx="815.1" cy="587.2" r="2.3"/>
  <circle cx="827.4" cy="587.2" r="2.3"/>
  <circle cx="839.6" cy="587.2" r="2.3"/>
  <circle cx="851.9" cy="587.2" r="2.3"/>
  <circle cx="864.2" cy="587.2" r="2.3"/>
  <circle cx="876.5" cy="587.2" r="2.3"/>
  <circle cx="888.8" cy="587.2" r="2.3"/>
</g>
<g class="pl" fill="#FFF" stroke="#FC8D62" stroke-width="0.900">
  <circle cx="286.9" cy="587.2" r="5.4"/>
  <circle cx="409.7" cy="587.2" r="5.4"/>
  <circle cx="532.5" cy="587.2" r="5.4"/>
  <circle cx="655.4" cy="587.2" r="5.4"/>
  <circle cx="778.2" cy="587.2" r="5.4"/>
  <circle cx="901.1" cy="587.2" r="5.4"/>
</g>
<polyline class="pl" points="225.4,586.1 237.7,586.1 250.0,586.0 262.3,586.0 274.6,586.2 286.9,585.1 299.1,585.3 311.4,585.4 323.7,585.5 336.0,584.7 348.3,584.8 360.6,585.2 372.9,584.9 385.1,584.9 397.4,585.0 409.7,584.4 422.0,584.6 434.3,585.3 446.6,585.2 458.8,585.5 471.1,585.0 483.4,585.3 495.7,585.2 508.0,585.1 520.3,585.3 532.5,585.5 544.8,585.5 557.1,585.4 569.4,585.4 581.7,585.1 594.0,584.9 606.2,584.9 618.5,584.9 630.8,584.4 643.1,584.6 655.4,584.7 667.7,584.4 679.9,584.5 692.2,585.2 704.5,584.8 716.8,584.7 729.1,584.8 741.4,584.5 753.7,584.8 765.9,584.5 778.2,583.9 790.5,584.6 802.8,584.9 815.1,584.5 827.4,584.8 839.6,585.2 851.9,584.9 864.2,584.4 876.5,585.1 888.8,585.1 901.1,585.0" stroke="#66C2A5" stroke-width="5.40" stroke-opacity="1.00" fill="none" clip-path="url(#axis_clip)"/>
<g class="pl" fill="#FFF" stroke="#66C2A5" stroke-width="0.900">
  <circle cx="225.4" cy="586.1" r="2.3"/>
  <circle cx="237.7" cy="586.1" r="2.3"/>
  <circle cx="250.0" cy="586.0" r="2.3"/>
  <circle cx="262.3" cy="586.0" r="2.3"/>
  <circle cx="274.6" cy="586.2" r="2.3"/>
  <circle cx="299.1" cy="585.3" r="2.3"/>
  <circle cx="311.4" cy="585.4" r="2.3"/>
  <circle cx="323.7" cy="585.5" r="2.3"/>
  <circle cx="336.0" cy="584.7" r="2.3"/>
  <circle cx="348.3" cy="584.8" r="2.3"/>
  <circle cx="360.6" cy="585.2" r="2.3"/>
  <circle cx="372.9" cy="584.9" r="2.3"/>
  <circle cx="385.1" cy="584.9" r="2.3"/>
  <circle cx="397.4" cy="585.0" r="2.3"/>
  <circle cx="422.0" cy="584.6" r="2.3"/>
  <circle cx="434.3" cy="585.3" r="2.3"/>
  <circle cx="446.6" cy="585.2" r="2.3"/>
  <circle cx="458.8" cy="585.5" r="2.3"/>
  <circle cx="471.1" cy="585.0" r="2.3"/>
  <circle cx="483.4" cy="585.3" r="2.3"/>
  <circle cx="495.7" cy="585.2" r="2.3"/>
  <circle cx="508.0" cy="585.1" r="2.3"/>
  <circle cx="520.3" cy="585.3" r="2.3"/>
  <circle cx="544.8" cy="585.5" r="2.3"/>
  <circle cx="557.1" cy="585.4" r="2.3"/>
  <circle cx="569.4" cy="585.4" r="2.3"/>
  <circle cx="581.7" cy="585.1" r="2.3"/>
  <circle cx="594.0" cy="584.9" r="2.3"/>
  <circle cx="606.2" cy="584.9" r="2.3"/>
  <circle cx="618.5" cy="584.9" r="2.3"/>
  <circle cx="630.8" cy="584.4" r="2.3"/>
  <circle cx="643.1" cy="584.6" r="2.3"/>
  <circle cx="667.7" cy="584.4" r="2.3"/>
  <circle cx="679.9" cy="584.5" r="2.3"/>
  <circle cx="692.2" cy="585.2" r="2.3"/>
  <circle cx="704.5" cy="584.8" r="2.3"/>
  <circle cx="716.8" cy="584.7" r="2.3"/>
  <circle cx="729.1" cy="584.8" r="2.3"/>
  <circle cx="741.4" cy="584.5" r="2.3"/>
  <circle cx="753.7" cy="584.8" r="2.3"/>
  <circle cx="765.9" cy="584.5" r="2.3"/>
  <circle cx="790.5" cy="584.6" r="2.3"/>
  <circle cx="802.8" cy="584.9" r="2.3"/>
  <circle cx="815.1" cy="584.5" r="2.3"/>
  <circle cx="827.4" cy="584.8" r="2.3"/>
  <circle cx="839.6" cy="585.2" r="2.3"/>
  <circle cx="851.9" cy="584.9" r="2.3"/>
  <circle cx="864.2" cy="584.4" r="2.3"/>
  <circle cx="876.5" cy="585.1" r="2.3"/>
  <circle cx="888.8" cy="585.1" r="2.3"/>
</g>
<g class="pl" fill="#FFF" stroke="#66C2A5" stroke-width="0.900">
  <circle cx="286.9" cy="585.1" r="5.4"/>
  <circle cx="409.7" cy="584.4" r="5.4"/>
  <circle cx="532.5" cy="585.5" r="5.4"/>
  <circle cx="655.4" cy="584.7" r="5.4"/>
  <circle cx="778.2" cy="583.9" r="5.4"/>
  <circle cx="901.1" cy="585.0" r="5.4"/>
</g>
<polyline class="pl" points="225.4,587.2 237.7,587.2 250.0,587.2 262.3,587.2 274.6,587.2 286.9,587.2 299.1,587.2 311.4,587.2 323.7,587.2 336.0,587.2 348.3,587.2 360.6,587.2 372.9,587.2 385.1,587.2 397.4,587.2 409.7,587.2 422.0,587.2 434.3,587.2 446.6,587.2 458.8,587.2 471.1,587.2 483.4,587.2 495.7,587.2 508.0,587.2 520.3,587.2 532.5,587.2 544.8,587.2 557.1,587.2 569.4,587.2 581.7,587.2 594.0,587.2 606.2,587.2 618.5,587.2 630.8,587.2 643.1,587.2 655.4,587.2 667.7,587.2 679.9,587.2 692.2,587.2 704.5,587.2 716.8,587.2 729.1,587.2 741.4,587.2 753.7,587.2 765.9,587.2 778.2,587.2 790.5,587.2 802.8,587.2 815.1,587.2 827.4,587.2 839.6,587.1 851.9,587.0 864.2,587.0 876.5,586.9 888.8,586.4 901.1,585.1" stroke="#E5C494" stroke-width="5.40" stroke-opacity="1.00" fill="none" clip-path="url(#axis_clip)"/>
<g class="pl" fill="#FFF" stroke="#E5C494" stroke-width="0.900">
  <circle cx="225.4" cy="587.2" r="2.3"/>
  <circle cx="237.7" cy="587.2" r="2.3"/>
  <circle cx="250.0" cy="587.2" r="2.3"/>
  <circle cx="262.3" cy="587.2" r="2.3"/>
  <circle cx="274.6" cy="587.2" r="2.3"/>
  <circle cx="299.1" cy="587.2" r="2.3"/>
  <circle cx="311.4" cy="587.2" r="2.3"/>
  <circle cx="323.7" cy="587.2" r="2.3"/>
  <circle cx="336.0" cy="587.2" r="2.3"/>
  <circle cx="348.3" cy="587.2" r="2.3"/>
  <circle cx="360.6" cy="587.2" r="2.3"/>
  <circle cx="372.9" cy="587.2" r="2.3"/>
  <circle cx="385.1" cy="587.2" r="2.3"/>
  <circle cx="397.4" cy="587.2" r="2.3"/>
  <circle cx="422.0" cy="587.2" r="2.3"/>
  <circle cx="434.3" cy="587.2" r="2.3"/>
  <circle cx="446.6" cy="587.2" r="2.3"/>
  <circle cx="458.8" cy="587.2" r="2.3"/>
  <circle cx="471.1" cy="587.2" r="2.3"/>
  <circle cx="483.4" cy="587.2" r="2.3"/>
  <circle cx="495.7" cy="587.2" r="2.3"/>
  <circle cx="508.0" cy="587.2" r="2.3"/>
  <circle cx="520.3" cy="587.2" r="2.3"/>
  <circle cx="544.8" cy="587.2" r="2.3"/>
  <circle cx="557.1" cy="587.2" r="2.3"/>
  <circle cx="569.4" cy="587.2" r="2.3"/>
  <circle cx="581.7" cy="587.2" r="2.3"/>
  <circle cx="594.0" cy="587.2" r="2.3"/>
  <circle cx="606.2" cy="587.2" r="2.3"/>
  <circle cx="618.5" cy="587.2" r="2.3"/>
  <circle cx="630.8" cy="587.2" r="2.3"/>
  <circle cx="643.1" cy="587.2" r="2.3"/>
  <circle cx="667.7" cy="587.2" r="2.3"/>
  <circle cx="679.9" cy="587.2" r="2.3"/>
  <circle cx="692.2" cy="587.2" r="2.3"/>
  <circle cx="704.5" cy="587.2" r="2.3"/>
  <circle cx="716.8" cy="587.2" r="2.3"/>
  <circle cx="729.1" cy="587.2" r="2.3"/>
  <circle cx="741.4" cy="587.2" r="2.3"/>
  <circle cx="753.7" cy="587.2" r="2.3"/>
  <circle cx="765.9" cy="587.2" r="2.3"/>
  <circle cx="790.5" cy="587.2" r="2.3"/>
  <circle cx="802.8" cy="587.2" r="2.3"/>
  <circle cx="815.1" cy="587.2" r="2.3"/>
  <circle cx="827.4" cy="587.2" r="2.3"/>
  <circle cx="839.6" cy="587.1" r="2.3"/>
  <circle cx="851.9" cy="587.0" r="2.3"/>
  <circle cx="864.2" cy="587.0" r="2.3"/>
  <circle cx="876.5" cy="586.9" r="2.3"/>
  <circle cx="888.8" cy="586.4" r="2.3"/>
</g>
<g class="pl" fill="#FFF" stroke="#E5C494" stroke-width="0.900">
  <circle cx="286.9" cy="587.2" r="5.4"/>
  <circle cx="409.7" cy="587.2" r="5.4"/>
  <circle cx="532.5" cy="587.2" r="5.4"/>
  <circle cx="655.4" cy="587.2" r="5.4"/>
  <circle cx="778.2" cy="587.2" r="5.4"/>
  <circle cx="901.1" cy="585.1" r="5.4"/>
</g>
<polyline class="pl" points="225.4,587.2 237.7,587.2 250.0,587.2 262.3,587.2 274.6,587.2 286.9,587.2 299.1,587.2 311.4,587.2 323.7,587.2 336.0,587.2 348.3,587.2 360.6,587.2 372.9,587.2 385.1,587.2 397.4,587.2 409.7,587.2 422.0,587.2 434.3,587.2 446.6,587.2 458.8,587.2 471.1,587.2 483.4,587.2 495.7,587.2 508.0,587.2 520.3,587.2 532.5,587.2 544.8,587.2 557.1,587.2 569.4,587.2 581.7,587.2 594.0,587.2 606.2,587.2 618.5,587.2 630.8,587.2 643.1,587.2 655.4,587.2 667.7,587.2 679.9,587.1 692.2,587.0 704.5,587.0 716.8,587.0 729.1,586.9 741.4,586.6 753.7,586.2 765.9,586.0 778.2,585.3 790.5,583.6 802.8,582.0 815.1,580.6 827.4,578.8 839.6,575.5 851.9,573.7 864.2,571.3 876.5,573.6 888.8,571.2 901.1,570.6" stroke="#FFD92F" stroke-width="5.40" stroke-opacity="1.00" fill="none" clip-path="url(#axis_clip)"/>
<g class="pl" fill="#FFF" stroke="#FFD92F" stroke-width="0.900">
  <circle cx="225.4" cy="587.2" r="2.3"/>
  <circle cx="237.7" cy="587.2" r="2.3"/>
  <circle cx="250.0" cy="587.2" r="2.3"/>
  <circle cx="262.3" cy="587.2" r="2.3"/>
  <circle cx="274.6" cy="587.2" r="2.3"/>
  <circle cx="299.1" cy="587.2" r="2.3"/>
  <circle cx="311.4" cy="587.2" r="2.3"/>
  <circle cx="323.7" cy="587.2" r="2.3"/>
  <circle cx="336.0" cy="587.2" r="2.3"/>
  <circle cx="348.3" cy="587.2" r="2.3"/>
  <circle cx="360.6" cy="587.2" r="2.3"/>
  <circle cx="372.9" cy="587.2" r="2.3"/>
  <circle cx="385.1" cy="587.2" r="2.3"/>
  <circle cx="397.4" cy="587.2" r="2.3"/>
  <circle cx="422.0" cy="587.2" r="2.3"/>
  <circle cx="434.3" cy="587.2" r="2.3"/>
  <circle cx="446.6" cy="587.2" r="2.3"/>
  <circle cx="458.8" cy="587.2" r="2.3"/>
  <circle cx="471.1" cy="587.2" r="2.3"/>
  <circle cx="483.4" cy="587.2" r="2.3"/>
  <circle cx="495.7" cy="587.2" r="2.3"/>
  <circle cx="508.0" cy="587.2" r="2.3"/>
  <circle cx="520.3" cy="587.2" r="2.3"/>
  <circle cx="544.8" cy="587.2" r="2.3"/>
  <circle cx="557.1" cy="587.2" r="2.3"/>
  <circle cx="569.4" cy="587.2" r="2.3"/>
  <circle cx="581.7" cy="587.2" r="2.3"/>
  <circle cx="594.0" cy="587.2" r="2.3"/>
  <circle cx="606.2" cy="587.2" r="2.3"/>
  <circle cx="618.5" cy="587.2" r="2.3"/>
  <circle cx="630.8" cy="587.2" r="2.3"/>
  <circle cx="643.1" cy="587.2" r="2.3"/>
  <circle cx="667.7" cy="587.2" r="2.3"/>
  <circle cx="679.9" cy="587.1" r="2.3"/>
  <circle cx="692.2" cy="587.0" r="2.3"/>
  <circle cx="704.5" cy="587.0" r="2.3"/>
  <circle cx="716.8" cy="587.0" r="2.3"/>
  <circle cx="729.1" cy="586.9" r="2.3"/>
  <circle cx="741.4" cy="586.6" r="2.3"/>
  <circle cx="753.7" cy="586.2" r="2.3"/>
  <circle cx="765.9" cy="586.0" r="2.3"/>
  <circle cx="790.5" cy="583.6" r="2.3"/>
  <circle cx="802.8" cy="582.0" r="2.3"/>
  <circle cx="815.1" cy="580.6" r="2.3"/>
  <circle cx="827.4" cy="578.8" r="2.3"/>
  <circle cx="839.6" cy="575.5" r="2.3"/>
  <circle cx="851.9" cy="573.7" r="2.3"/>
  <circle cx="864.2" cy="571.3" r="2.3"/>
  <circle cx="876.5" cy="573.6" r="2.3"/>
  <circle cx="888.8" cy="571.2" r="2.3"/>
</g>
<g class="pl" fill="#FFF" stroke="#FFD92F" stroke-width="0.900">
  <circle cx="286.9" cy="587.2" r="5.4"/>
  <circle cx="409.7" cy="587.2" r="5.4"/>
  <circle cx="532.5" cy="587.2" r="5.4"/>
  <circle cx="655.4" cy="587.2" r="5.4"/>
  <circle cx="778.2" cy="585.3" r="5.4"/>
  <circle cx="901.1" cy="570.6" r="5.4"/>
</g>
<polyline class="pl" points="225.4,579.9 237.7,578.5 250.0,576.6 262.3,572.6 274.6,567.0 286.9,561.4 299.1,558.8 311.4,557.3 323.7,556.1 336.0,555.3 348.3,553.0 360.6,550.7 372.9,548.5 385.1,546.5 397.4,544.7 409.7,543.7 422.0,546.1 434.3,546.1 446.6,545.2 458.8,543.5 471.1,542.9 483.4,540.2 495.7,538.7 508.0,539.1 520.3,539.9 532.5,542.8 544.8,545.8 557.1,548.7 569.4,546.7 581.7,546.4 594.0,542.6 606.2,540.3 618.5,540.5 630.8,540.0 643.1,541.2 655.4,537.8 667.7,535.7 679.9,537.0 692.2,531.3 704.5,528.2 716.8,526.5 729.1,525.8 741.4,525.8 753.7,520.4 765.9,522.8 778.2,517.9 790.5,517.0 802.8,512.9 815.1,512.9 827.4,514.6 839.6,514.2 851.9,509.3 864.2,505.4 876.5,502.2 888.8,498.1 901.1,495.2" stroke="#6298C6" stroke-width="5.40" stroke-opacity="1.00" fill="none" clip-path="url(#axis_clip)"/>
<g class="pl" fill="#FFF" stroke="#6298C6" stroke-width="0.900">
  <circle cx="225.4" cy="579.9" r="2.3"/>
  <circle cx="237.7" cy="578.5" r="2.3"/>
  <circle cx="250.0" cy="576.6" r="2.3"/>
  <circle cx="262.3" cy="572.6" r="2.3"/>
  <circle cx="274.6" cy="567.0" r="2.3"/>
  <circle cx="299.1" cy="558.8" r="2.3"/>
  <circle cx="311.4" cy="557.3" r="2.3"/>
  <circle cx="323.7" cy="556.1" r="2.3"/>
  <circle cx="336.0" cy="555.3" r="2.3"/>
  <circle cx="348.3" cy="553.0" r="2.3"/>
  <circle cx="360.6" cy="550.7" r="2.3"/>
  <circle cx="372.9" cy="548.5" r="2.3"/>
  <circle cx="385.1" cy="546.5" r="2.3"/>
  <circle cx="397.4" cy="544.7" r="2.3"/>
  <circle cx="422.0" cy="546.1" r="2.3"/>
  <circle cx="434.3" cy="546.1" r="2.3"/>
  <circle cx="446.6" cy="545.2" r="2.3"/>
  <circle cx="458.8" cy="543.5" r="2.3"/>
  <circle cx="471.1" cy="542.9" r="2.3"/>
  <circle cx="483.4" cy="540.2" r="2.3"/>
  <circle cx="495.7" cy="538.7" r="2.3"/>
  <circle cx="508.0" cy="539.1" r="2.3"/>
  <circle cx="520.3" cy="539.9" r="2.3"/>
  <circle cx="544.8" cy="545.8" r="2.3"/>
  <circle cx="557.1" cy="548.7" r="2.3"/>
  <circle cx="569.4" cy="546.7" r="2.3"/>
  <circle cx="581.7" cy="546.4" r="2.3"/>
  <circle cx="594.0" cy="542.6" r="2.3"/>
  <circle cx="606.2" cy="540.3" r="2.3"/>
  <circle cx="618.5" cy="540.5" r="2.3"/>
  <circle cx="630.8" cy="540.0" r="2.3"/>
  <circle cx="643.1" cy="541.2" r="2.3"/>
  <circle cx="667.7" cy="535.7" r="2.3"/>
  <circle cx="679.9" cy="537.0" r="2.3"/>
  <circle cx="692.2" cy="531.3" r="2.3"/>
  <circle cx="704.5" cy="528.2" r="2.3"/>
  <circle cx="716.8" cy="526.5" r="2.3"/>
  <circle cx="729.1" cy="525.8" r="2.3"/>
  <circle cx="741.4" cy="525.8" r="2.3"/>
  <circle cx="753.7" cy="520.4" r="2.3"/>
  <circle cx="765.9" cy="522.8" r="2.3"/>
  <circle cx="790.5" cy="517.0" r="2.3"/>
  <circle cx="802.8" cy="512.9" r="2.3"/>
  <circle cx="815.1" cy="512.9" r="2.3"/>
  <circle cx="827.4" cy="514.6" r="2.3"/>
  <circle cx="839.6" cy="514.2" r="2.3"/>
  <circle cx="851.9" cy="509.3" r="2.3"/>
  <circle cx="864.2" cy="505.4" r="2.3"/>
  <circle cx="876.5" cy="502.2" r="2.3"/>
  <circle cx="888.8" cy="498.1" r="2.3"/>
</g>
<g class="pl" fill="#FFF" stroke="#6298C6" stroke-width="0.900">
  <circle cx="286.9" cy="561.4" r="5.4"/>
  <circle cx="409.7" cy="543.7" r="5.4"/>
  <circle cx="532.5" cy="542.8" r="5.4"/>
  <circle cx="655.4" cy="537.8" r="5.4"/>
  <circle cx="778.2" cy="517.9" r="5.4"/>
  <circle cx="901.1" cy="495.2" r="5.4"/>
</g>
<polyline class="pl" points="225.4,559.7 237.7,558.6 250.0,556.2 262.3,548.4 274.6,544.5 286.9,542.0 299.1,539.3 311.4,533.4 323.7,527.6 336.0,524.4 348.3,518.9 360.6,511.8 372.9,506.5 385.1,500.9 397.4,499.2 409.7,500.3 422.0,505.7 434.3,510.2 446.6,507.6 458.8,505.5 471.1,504.2 483.4,501.4 495.7,500.3 508.0,498.2 520.3,498.8 532.5,506.2 544.8,510.7 557.1,517.3 569.4,515.1 581.7,511.2 594.0,510.2 606.2,497.3 618.5,493.5 630.8,480.6 643.1,475.5 655.4,484.5 667.7,486.9 679.9,485.0 692.2,483.4 704.5,476.2 716.8,472.5 729.1,462.8 741.4,458.4 753.7,455.1 765.9,456.5 778.2,449.4 790.5,449.9 802.8,455.1 815.1,464.3 827.4,463.9 839.6,458.2 851.9,445.5 864.2,433.4 876.5,429.4 888.8,426.4 901.1,435.2" stroke="#404040" stroke-width="5.40" stroke-opacity="1.00" fill="none" clip-path="url(#axis_clip)"/>
<g class="pl" fill="#FFF" stroke="#404040" stroke-width="0.900">
  <circle cx="225.4" cy="559.7" r="2.3"/>
  <circle cx="237.7" cy="558.6" r="2.3"/>
  <circle cx="250.0" cy="556.2" r="2.3"/>
  <circle cx="262.3" cy="548.4" r="2.3"/>
  <circle cx="274.6" cy="544.5" r="2.3"/>
  <circle cx="299.1" cy="539.3" r="2.3"/>
  <circle cx="311.4" cy="533.4" r="2.3"/>
  <circle cx="323.7" cy="527.6" r="2.3"/>
  <circle cx="336.0" cy="524.4" r="2.3"/>
  <circle cx="348.3" cy="518.9" r="2.3"/>
  <circle cx="360.6" cy="511.8" r="2.3"/>
  <circle cx="372.9" cy="506.5" r="2.3"/>
  <circle cx="385.1" cy="500.9" r="2.3"/>
  <circle cx="397.4" cy="499.2" r="2.3"/>
  <circle cx="422.0" cy="505.7" r="2.3"/>
  <circle cx="434.3" cy="510.2" r="2.3"/>
  <circle cx="446.6" cy="507.6" r="2.3"/>
  <circle cx="458.8" cy="505.5" r="2.3"/>
  <circle cx="471.1" cy="504.2" r="2.3"/>
  <circle cx="483.4" cy="501.4" r="2.3"/>
  <circle cx="495.7" cy="500.3" r="2.3"/>
  <circle cx="508.0" cy="498.2" r="2.3"/>
  <circle cx="520.3" cy="498.8" r="2.3"/>
  <circle cx="544.8" cy="510.7" r="2.3"/>
  <circle cx="557.1" cy="517.3" r="2.3"/>
  <circle cx="569.4" cy="515.1" r="2.3"/>
  <circle cx="581.7" cy="511.2" r="2.3"/>
  <circle cx="594.0" cy="510.2" r="2.3"/>
  <circle cx="606.2" cy="497.3" r="2.3"/>
  <circle cx="618.5" cy="493.5" r="2.3"/>
  <circle cx="630.8" cy="480.6" r="2.3"/>
  <circle cx="643.1" cy="475.5" r="2.3"/>
  <circle cx="667.7" cy="486.9" r="2.3"/>
  <circle cx="679.9" cy="485.0" r="2.3"/>
  <circle cx="692.2" cy="483.4" r="2.3"/>
  <circle cx="704.5" cy="476.2" r="2.3"/>
  <circle cx="716.8" cy="472.5" r="2.3"/>
  <circle cx="729.1" cy="462.8" r="2.3"/>
  <circle cx="741.4" cy="458.4" r="2.3"/>
  <circle cx="753.7" cy="455.1" r="2.3"/>
  <circle cx="765.9" cy="456.5" r="2.3"/>
  <circle cx="790.5" cy="449.9" r="2.3"/>
  <circle cx="802.8" cy="455.1" r="2.3"/>
  <circle cx="815.1" cy="464.3" r="2.3"/>
  <circle cx="827.4" cy="463.9" r="2.3"/>
  <circle cx="839.6" cy="458.2" r="2.3"/>
  <circle cx="851.9" cy="445.5" r="2.3"/>
  <circle cx="864.2" cy="433.4" r="2.3"/>
  <circle cx="876.5" cy="429.4" r="2.3"/>
  <circle cx="888.8" cy="426.4" r="2.3"/>
</g>
<g class="pl" fill="#FFF" stroke="#404040" stroke-width="0.900">
  <circle cx="286.9" cy="542.0" r="5.4"/>
  <circle cx="409.7" cy="500.3" r="5.4"/>
  <circle cx="532.5" cy="506.2" r="5.4"/>
  <circle cx="655.4" cy="484.5" r="5.4"/>
  <circle cx="778.2" cy="449.4" r="5.4"/>
  <circle cx="901.1" cy="435.2" r="5.4"/>
</g>
<polyline class="pl" points="225.4,292.1 237.7,288.2 250.0,282.7 262.3,268.1 274.6,251.9 286.9,239.0 299.1,230.8 311.4,214.4 323.7,212.9 336.0,202.3 348.3,172.0 360.6,153.0 372.9,137.6 385.1,116.7 397.4,111.0 409.7,82.9 422.0,137.6 434.3,121.8 446.6,122.9 458.8,103.1 471.1,91.8 483.4,79.2 495.7,60.8 508.0,75.3 520.3,98.1 532.5,198.1 544.8,201.8 557.1,214.6 569.4,218.9 581.7,244.2 594.0,238.3 606.2,230.1 618.5,238.7 630.8,273.2 643.1,285.9 655.4,308.2 667.7,311.5 679.9,316.7 692.2,308.7 704.5,316.9 716.8,313.8 729.1,302.4 741.4,309.6 753.7,313.3 765.9,330.0 778.2,314.0 790.5,314.5 802.8,333.0 815.1,322.4 827.4,341.9 839.6,345.7 851.9,341.6 864.2,340.3 876.5,340.1 888.8,367.0 901.1,389.4" stroke="#7B553E" stroke-width="5.40" stroke-opacity="1.00" fill="none" clip-path="url(#axis_clip)"/>
<g class="pl" fill="#FFF" stroke="#7B553E" stroke-width="0.900">
  <circle cx="225.4" cy="292.1" r="2.3"/>
  <circle cx="237.7" cy="288.2" r="2.3"/>
  <circle cx="250.0" cy="282.7" r="2.3"/>
  <circle cx="262.3" cy="268.1" r="2.3"/>
  <circle cx="274.6" cy="251.9" r="2.3"/>
  <circle cx="299.1" cy="230.8" r="2.3"/>
  <circle cx="311.4" cy="214.4" r="2.3"/>
  <circle cx="323.7" cy="212.9" r="2.3"/>
  <circle cx="336.0" cy="202.3" r="2.3"/>
  <circle cx="348.3" cy="172.0" r="2.3"/>
  <circle cx="360.6" cy="153.0" r="2.3"/>
  <circle cx="372.9" cy="137.6" r="2.3"/>
  <circle cx="385.1" cy="116.7" r="2.3"/>
  <circle cx="397.4" cy="111.0" r="2.3"/>
  <circle cx="422.0" cy="137.6" r="2.3"/>
  <circle cx="434.3" cy="121.8" r="2.3"/>
  <circle cx="446.6" cy="122.9" r="2.3"/>
  <circle cx="458.8" cy="103.1" r="2.3"/>
  <circle cx="471.1" cy="91.8" r="2.3"/>
  <circle cx="483.4" cy="79.2" r="2.3"/>
  <circle cx="495.7" cy="60.8" r="2.3"/>
  <circle cx="508.0" cy="75.3" r="2.3"/>
  <circle cx="520.3" cy="98.1" r="2.3"/>
  <circle cx="544.8" cy="201.8" r="2.3"/>
  <circle cx="557.1" cy="214.6" r="2.3"/>
  <circle cx="569.4" cy="218.9" r="2.3"/>
  <circle cx="581.7" cy="244.2" r="2.3"/>
  <circle cx="594.0" cy="238.3" r="2.3"/>
  <circle cx="606.2" cy="230.1" r="2.3"/>
  <circle cx="618.5" cy="238.7" r="2.3"/>
  <circle cx="630.8" cy="273.2" r="2.3"/>
  <circle cx="643.1" cy="285.9" r="2.3"/>
  <circle cx="667.7" cy="311.5" r="2.3"/>
  <circle cx="679.9" cy="316.7" r="2.3"/>
  <circle cx="692.2" cy="308.7" r="2.3"/>
  <circle cx="704.5" cy="316.9" r="2.3"/>
  <circle cx="716.8" cy="313.8" r="2.3"/>
  <circle cx="729.1" cy="302.4" r="2.3"/>
  <circle cx="741.4" cy="309.6" r="2.3"/>
  <circle cx="753.7" cy="313.3" r="2.3"/>
  <circle cx="765.9" cy="330.0" r="2.3"/>
  <circle cx="790.5" cy="314.5" r="2.3"/>
  <circle cx="802.8" cy="333.0" r="2.3"/>
  <circle cx="815.1" cy="322.4" r="2.3"/>
  <circle cx="827.4" cy="341.9" r="2.3"/>
  <circle cx="839.6" cy="345.7" r="2.3"/>
  <circle cx="851.9" cy="341.6" r="2.3"/>
  <circle cx="864.2" cy="340.3" r="2.3"/>
  <circle cx="876.5" cy="340.1" r="2.3"/>
  <circle cx="888.8" cy="367.0" r="2.3"/>
</g>
<g class="pl" fill="#FFF" stroke="#7B553E" stroke-width="0.900">
  <circle cx="286.9" cy="239.0" r="5.4"/>
  <circle cx="409.7" cy="82.9" r="5.4"/>
  <circle cx="532.5" cy="198.1" r="5.4"/>
  <circle cx="655.4" cy="308.2" r="5.4"/>
  <circle cx="778.2" cy="314.0" r="5.4"/>
  <circle cx="901.1" cy="389.4" r="5.4"/>
</g>
<text transform="translate(945.6,431.8)" dy="8.1" font-size="27.00" fill="#FDBF6F" stroke="none">Bioenergy</text>
<text transform="translate(945.6,483.6)" dy="8.1" font-size="27.00" fill="#E78AC3" stroke="none">Other</text>
<text transform="translate(945.6,509.5)" dy="8.1" font-size="27.00" fill="#8DA0CB" stroke="none">Biofuels</text>
<text transform="translate(945.6,587.2)" dy="8.1" font-size="27.00" fill="#FC8D62" stroke="none">Nuclear</text>
<text transform="translate(945.6,535.4)" dy="8.1" font-size="27.00" fill="#66C2A5" stroke="none">Hydro</text>
<text transform="translate(945.6,561.3)" dy="8.1" font-size="27.00" fill="#E5C494" stroke="none">Solar</text>
<text transform="translate(945.6,457.7)" dy="8.1" font-size="27.00" fill="#FFD92F" stroke="none">Wind</text>
<text transform="translate(945.6,405.9)" dy="8.1" font-size="27.00" fill="#6298C6" stroke="none">Gas</text>
<text transform="translate(945.6,379.9)" dy="8.1" font-size="27.00" fill="#404040" stroke="none">Oil</text>
<text transform="translate(945.6,354.0)" dy="8.1" font-size="27.00" fill="#7B553E" stroke="none">Coal</text>
<polyline class="pl" points="910.8,552.2 912.4,551.7 913.8,550.5 915.2,548.6 916.4,545.9 917.6,542.7 918.8,538.8 919.8,534.5 920.8,529.7 921.7,524.6 922.7,519.1 923.5,513.3 924.4,507.4 925.2,501.3 926.0,495.1 926.8,488.8 927.6,482.6 928.4,476.5 929.3,470.6 930.1,464.8 931.1,459.3 932.0,454.2 933.0,449.4 934.0,445.1 935.2,441.3 936.4,438.0 937.6,435.4 939.0,433.4 940.4,432.2 942.0,431.8" stroke="#FDBF6F" stroke-width="0.90" stroke-opacity="1.00" fill="none" />
<polyline class="pl" points="910.8,578.9 912.4,578.5 913.8,577.6 915.2,576.0 916.4,573.9 917.6,571.3 918.8,568.3 919.8,564.9 920.8,561.1 921.7,557.0 922.7,552.7 923.5,548.1 924.4,543.4 925.2,538.6 926.0,533.7 926.8,528.7 927.6,523.8 928.4,519.0 929.3,514.3 930.1,509.7 931.1,505.4 932.0,501.3 933.0,497.5 934.0,494.1 935.2,491.1 936.4,488.5 937.6,486.4 939.0,484.9 940.4,483.9 942.0,483.6" stroke="#E78AC3" stroke-width="0.90" stroke-opacity="1.00" fill="none" />
<polyline class="pl" points="910.8,582.6 912.4,582.3 913.8,581.6 915.2,580.4 916.4,578.8 917.6,576.8 918.8,574.5 919.8,571.8 920.8,568.9 921.7,565.8 922.7,562.5 923.5,559.0 924.4,555.4 925.2,551.7 926.0,547.9 926.8,544.1 927.6,540.4 928.4,536.7 929.3,533.0 930.1,529.5 931.1,526.2 932.0,523.1 933.0,520.2 934.0,517.6 935.2,515.2 936.4,513.3 937.6,511.7 939.0,510.5 940.4,509.7 942.0,509.5" stroke="#8DA0CB" stroke-width="0.90" stroke-opacity="1.00" fill="none" />
<polyline class="pl" points="910.8,585.0 912.4,584.8 913.8,584.3 915.2,583.5 916.4,582.4 917.6,581.0 918.8,579.5 919.8,577.7 920.8,575.7 921.7,573.6 922.7,571.3 923.5,569.0 924.4,566.5 925.2,564.0 926.0,561.4 926.8,558.9 927.6,556.3 928.4,553.8 929.3,551.4 930.1,549.0 931.1,546.7 932.0,544.6 933.0,542.6 934.0,540.9 935.2,539.3 936.4,537.9 937.6,536.9 939.0,536.0 940.4,535.5 942.0,535.4" stroke="#66C2A5" stroke-width="0.90" stroke-opacity="1.00" fill="none" />
<polyline class="pl" points="910.8,585.1 912.4,585.0 913.8,584.8 915.2,584.4 916.4,583.8 917.6,583.2 918.8,582.4 919.8,581.6 920.8,580.6 921.7,579.6 922.7,578.5 923.5,577.4 924.4,576.2 925.2,575.0 926.0,573.8 926.8,572.6 927.6,571.3 928.4,570.1 929.3,569.0 930.1,567.8 931.1,566.7 932.0,565.7 933.0,564.8 934.0,563.9 935.2,563.2 936.4,562.5 937.6,562.0 939.0,561.6 940.4,561.4 942.0,561.3" stroke="#E5C494" stroke-width="0.90" stroke-opacity="1.00" fill="none" />
<polyline class="pl" points="910.8,570.6 912.4,570.2 913.8,569.1 915.2,567.3 916.4,564.8 917.6,561.7 918.8,558.1 919.8,554.1 920.8,549.6 921.7,544.7 922.7,539.6 923.5,534.2 924.4,528.6 925.2,522.9 926.0,517.1 926.8,511.2 927.6,505.4 928.4,499.7 929.3,494.1 930.1,488.7 931.1,483.5 932.0,478.7 933.0,474.2 934.0,470.2 935.2,466.6 936.4,463.5 937.6,461.0 939.0,459.2 940.4,458.1 942.0,457.7" stroke="#FFD92F" stroke-width="0.90" stroke-opacity="1.00" fill="none" />
<polyline class="pl" points="910.8,495.2 912.4,494.9 913.8,494.0 915.2,492.6 916.4,490.6 917.6,488.2 918.8,485.3 919.8,482.1 920.8,478.6 921.7,474.7 922.7,470.7 923.5,466.4 924.4,462.0 925.2,457.4 926.0,452.8 926.8,448.2 927.6,443.6 928.4,439.1 929.3,434.7 930.1,430.4 931.1,426.3 932.0,422.5 933.0,419.0 934.0,415.7 935.2,412.9 936.4,410.5 937.6,408.5 939.0,407.1 940.4,406.2 942.0,405.9" stroke="#6298C6" stroke-width="0.90" stroke-opacity="1.00" fill="none" />
<polyline class="pl" points="910.8,435.2 912.4,435.1 913.8,434.5 915.2,433.6 916.4,432.4 917.6,430.9 918.8,429.1 919.8,427.1 920.8,424.9 921.7,422.6 922.7,420.1 923.5,417.4 924.4,414.7 925.2,411.9 926.0,409.0 926.8,406.2 927.6,403.3 928.4,400.5 929.3,397.8 930.1,395.1 931.1,392.6 932.0,390.2 933.0,388.1 934.0,386.1 935.2,384.3 936.4,382.8 937.6,381.6 939.0,380.7 940.4,380.1 942.0,379.9" stroke="#404040" stroke-width="0.90" stroke-opacity="1.00" fill="none" />
<polyline class="pl" points="910.8,389.4 912.4,389.3 913.8,388.9 915.2,388.3 916.4,387.5 917.6,386.6 918.8,385.5 919.8,384.2 920.8,382.8 921.7,381.3 922.7,379.7 923.5,378.0 924.4,376.2 925.2,374.4 926.0,372.6 926.8,370.8 927.6,369.0 928.4,367.2 929.3,365.4 930.1,363.8 931.1,362.1 932.0,360.6 933.0,359.2 934.0,358.0 935.2,356.8 936.4,355.9 937.6,355.1 939.0,354.5 940.4,354.2 942.0,354.0" stroke="#7B553E" stroke-width="0.90" stroke-opacity="1.00" fill="none" />
<text transform="translate(1079.5,428.4)" dy="0.0" font-size="14.40" fill="#FDBF6F" stroke="none">excluding</text>
<text transform="translate(1079.5,428.4)" dy="14.4" font-size="14.40" fill="#FDBF6F" stroke="none">liquids</text>
<text transform="translate(145.6,47.2)" dy="0.0" font-size="27.00" fill="#808080" stroke="none">Annual energy consumption Poland</text>
<text transform="translate(160.2,666.1)" font-size="19.80" fill="#BFBFBF" stroke="none" xml:space="preserve">Global Carbon Project   &#9679;   Data: BP, IEA (bioenergy)</text>
<g class="cc">
  <rect x="123.0" y="651.4" width="34" height="17" fill="#FFF" stroke="none"/>
  <g transform="translate(124.0,652.4) scale(0.24)">
  <g><circle fill="#FFF" cx="37.79" cy="28.5" r="28.84"/>
     <circle fill="none" cx="37.79" cy="28.5" r="28.84" stroke="#000" stroke-width="5.5"/>
     <path d="M37.16,23.19 l-4.29,2.23c-0.458-0.951-1.02-1.62-1.69-2c-0.667-0.38-1.29-0.571-1.86-0.571c-2.86,0-4.29,1.89-4.29,5.66 c0,1.71,0.36,3.08,1.09,4.11c0.724,1.03,1.79,1.54,3.2,1.54c1.87,0,3.18-0.915,3.94-2.74l3.94,2 c-0.838,1.56-2,2.79-3.49,3.69c-1.48,0.896-3.12,1.34-4.91,1.34c-2.86,0-5.16-0.875-6.92-2.63 c-1.75-1.75-2.63-4.19-2.63-7.31c0-3.05,0.886-5.47,2.66-7.26c1.77-1.79,4.01-2.69,6.72-2.69 C32.6,18.56,35.44,20.1,37.16,23.19z
              M55.61,23.19l-4.23,2.23c-0.457-0.951-1.02-1.62-1.69-2 c-0.668-0.38-1.31-0.571-1.91-0.571c-2.86,0-4.29,1.89-4.29,5.66c0,1.71,0.363,3.08,1.09,4.11 c0.723,1.03,1.79,1.54,3.2,1.54c1.87,0,3.18-0.915,3.94-2.74l4,2c-0.875,1.56-2.06,2.79-3.54,3.69 c-1.49,0.9-3.11,1.34-4.86,1.34c-2.9,0-5.21-0.875-6.94-2.63c-1.74-1.75-2.6-4.19-2.6-7.31 c0-3.05,0.885-5.47,2.66-7.26c1.77-1.79,4.01-2.69,6.71-2.69C51.12,18.56,53.944,20.1,55.61,23.19z"/>
  </g></g>
  <g transform="translate(140.2,652.4) scale(0.24)">
  <g><circle fill="#FFF" cx="37.79" cy="28.5" r="28.84"/>
     <circle fill="none" cx="37.79" cy="28.5" r="28.84" stroke="#000" stroke-width="5.5"/>
     <path d="M46.129,20.557v13.085h-3.656v15.542h-9.944V33.643h-3.656V20.557 c0-0.572,0.2-1.057,0.599-1.457c0.401-0.399,0.887-0.6,1.457-0.6h13.144c0.533,0,1.01,0.2,1.428,0.6 C45.918,19.5,46.129,19.986,46.129,20.557z
              M33.042,12.329c0-3.008,1.485-4.514,4.458-4.514s4.457,1.504,4.457,4.514 c0,2.971-1.486,4.457-4.457,4.457S33.042,15.3,33.042,12.329z"/>
  </g></g>
</g>
</g>
</svg>
