<svg version="1.1" xmlns="http://www.w3.org/2000/svg" xmlns:xlink="http://www.w3.org/1999/xlink" width="100%" height="100%" viewBox="0 0 1200.000 674.916">
<title>Annual energy consumption Indonesia</title>
<style type="text/css">
  #main {font-family:Helvetica,Arial,sans-serif; font-size:27.00px;
         fill-opacity:1; fill:#000000; stroke:none; stroke-linejoin:round; stroke-linecap:round; stroke-width:1.00;}
  .marker {stroke-opacity:0;fill-opacity:0;}
  .marker:hover {stroke-opacity:0.5; fill-opacity:1;}
  .ticklabel {font-size:27.00px;fill:#808080;stroke:none}
  .ytl {text-anchor:end;}
  .xtl {text-anchor:middle;}
  .dp1 {pointer-events:none;font-size:70%;text-anchor:middle;fill:#000000;}
  .dp2 {pointer-events:none;font-size:70%;text-anchor:middle;fill:#FFFFFF;}
  .numtip {pointer-events:none;}
  .cc {opacity:0.25;}
.dl_fe {background-color:#FDFFDF;display:flex;margin:auto;align-items:center}
.dl_fe_p {font-size:20px;text-align:center;margin:3px}
.dl_el {display:none;pointer-events:none;}
.cc:hover + .dl_el {display:block;}
text:hover + .dl_el {display:block;}
</style>
<defs>
  <clipPath id="axis_clip"><rect x="145.8" y="54.2" width="761.2" height="532.8" /></clipPath>
  <path id="line_x" d="M 145.600,0 h 761.600" stroke="#262626" stroke-opacity="0.15" stroke-width="1.00"/>
  <path id="tick_y" d="M 145.600,0 h -6.000" stroke="#808080" stroke-width="0.90"/>
  <path id="tick_x" d="M 0,587.177 v 6.000" stroke="#808080" stroke-width="0.90"/>
</defs>
<g id="main">
<use xlink:href="#line_x" transform="translate(0,587.2)"/>
<use xlink:href="#line_x" transform="translate(0,434.8)"/>
<use xlink:href="#line_x" transform="translate(0,282.5)"/>
<use xlink:href="#line_x" transform="translate(0,130.2)"/>
<use xlink:href="#tick_y" transform="translate(0,587.2)"/>
<use xlink:href="#tick_y" transform="translate(0,434.8)"/>
<use xlink:href="#tick_y" transform="translate(0,282.5)"/>
<use xlink:href="#tick_y" transform="translate(0,130.2)"/>
<use xlink:href="#tick_x" transform="translate(164.0,0)"/>
<use xlink:href="#tick_x" transform="translate(286.9,0)"/>
<use xlink:href="#tick_x" transform="translate(409.7,0)"/>
<use xlink:href="#tick_x" transform="translate(532.5,0)"/>
<use xlink:href="#tick_x" transform="translate(655.4,0)"/>
<use xlink:href="#tick_x" transform="translate(778.2,0)"/>
<use xlink:href="#tick_x" transform="translate(901.1,0)"/>
<polyline points="145.6,53.993 145.6,587.177 907.2,587.177" stroke="#808080" stroke-width="0.90" fill="none"/>
<text class="ticklabel xtl" transform="translate(164.0,629.0)">1960</text>
<text class="ticklabel xtl" transform="translate(286.9,629.0)">1970</text>
<text class="ticklabel xtl" transform="translate(409.7,629.0)">1980</text>
<text class="ticklabel xtl" transform="translate(532.5,629.0)">1990</text>
<text class="ticklabel xtl" transform="translate(655.4,629.0)">2000</text>
<text class="ticklabel xtl" transform="translate(778.2,629.0)">2010</text>
<text class="ticklabel xtl" transform="translate(901.1,629.0)">2020</text>
<text class="ticklabel ytl" transform="translate(128.8,595.3)">0</text>
<text class="ticklabel ytl" transform="translate(128.8,442.9)">1</text>
<text class="ticklabel ytl" transform="translate(128.8,290.6)">2</text>
<text class="ticklabel ytl" transform="translate(128.8,138.3)">3 EJ</text>
<polyline class="pl" points="299.1,419.2 311.4,417.4 323.7,415.5 336.0,414.9 348.3,411.0 360.6,408.0 372.9,404.5 385.1,400.6 397.4,397.3 409.7,394.2 422.0,390.2 434.3,386.1 446.6,382.3 458.8,378.6 471.1,375.3 483.4,372.2 495.7,368.7 508.0,364.6 520.3,360.9 532.5,309.6 544.8,304.0 557.1,299.1 569.4,294.1 581.7,289.9 594.0,286.6 606.2,284.5 618.5,279.2 630.8,277.2 643.1,276.1 655.4,268.3 667.7,268.8 679.9,267.9 692.2,266.7 704.5,266.8 716.8,268.4 729.1,262.0 741.4,261.1 753.7,260.7 765.9,277.7 778.2,294.6 790.5,308.6 802.8,322.9 815.1,333.8 827.4,344.1 839.6,354.2 851.9,365.6 864.2,372.2 876.5,393.9 888.8,416.3 901.1,425.4" stroke="#FDBF6F" stroke-width="5.40" stroke-opacity="1.00" fill="none" clip-path="url(#axis_clip)"/>
<g class="pl" fill="#FFF" stroke="#FDBF6F" stroke-width="0.900">
  <circle cx="299.1" cy="419.2" r="2.3"/>
  <circle cx="311.4" cy="417.4" r="2.3"/>
  <circle cx="323.7" cy="415.5" r="2.3"/>
  <circle cx="336.0" cy="414.9" r="2.3"/>
  <circle cx="348.3" cy="411.0" r="2.3"/>
  <circle cx="360.6" cy="408.0" r="2.3"/>
  <circle cx="372.9" cy="404.5" r="2.3"/>
  <circle cx="385.1" cy="400.6" r="2.3"/>
  <circle cx="397.4" cy="397.3" r="2.3"/>
  <circle cx="422.0" cy="390.2" r="2.3"/>
  <circle cx="434.3" cy="386.1" r="2.3"/>
  <circle cx="446.6" cy="382.3" r="2.3"/>
  <circle cx="458.8" cy="378.6" r="2.3"/>
  <circle cx="471.1" cy="375.3" r="2.3"/>
  <circle cx="483.4" cy="372.2" r="2.3"/>
  <circle cx="495.7" cy="368.7" r="2.3"/>
  <circle cx="508.0" cy="364.6" r="2.3"/>
  <circle cx="520.3" cy="360.9" r="2.3"/>
  <circle cx="544.8" cy="304.0" r="2.3"/>
  <circle cx="557.1" cy="299.1" r="2.3"/>
  <circle cx="569.4" cy="294.1" r="2.3"/>
  <circle cx="581.7" cy="289.9" r="2.3"/>
  <circle cx="594.0" cy="286.6" r="2.3"/>
  <circle cx="606.2" cy="284.5" r="2.3"/>
  <circle cx="618.5" cy="279.2" r="2.3"/>
  <circle cx="630.8" cy="277.2" r="2.3"/>
  <circle cx="643.1" cy="276.1" r="2.3"/>
  <circle cx="667.7" cy="268.8" r="2.3"/>
  <circle cx="679.9" cy="267.9" r="2.3"/>
  <circle cx="692.2" cy="266.7" r="2.3"/>
  <circle cx="704.5" cy="266.8" r="2.3"/>
  <circle cx="716.8" cy="268.4" r="2.3"/>
  <circle cx="729.1" cy="262.0" r="2.3"/>
  <circle cx="741.4" cy="261.1" r="2.3"/>
  <circle cx="753.7" cy="260.7" r="2.3"/>
  <circle cx="765.9" cy="277.7" r="2.3"/>
  <circle cx="790.5" cy="308.6" r="2.3"/>
  <circle cx="802.8" cy="322.9" r="2.3"/>
  <circle cx="815.1" cy="333.8" r="2.3"/>
  <circle cx="827.4" cy="344.1" r="2.3"/>
  <circle cx="839.6" cy="354.2" r="2.3"/>
  <circle cx="851.9" cy="365.6" r="2.3"/>
  <circle cx="864.2" cy="372.2" r="2.3"/>
  <circle cx="876.5" cy="393.9" r="2.3"/>
  <circle cx="888.8" cy="416.3" r="2.3"/>
</g>
<g class="pl" fill="#FFF" stroke="#FDBF6F" stroke-width="0.900">
  <circle cx="409.7" cy="394.2" r="5.4"/>
  <circle cx="532.5" cy="309.6" r="5.4"/>
  <circle cx="655.4" cy="268.3" r="5.4"/>
  <circle cx="778.2" cy="294.6" r="5.4"/>
  <circle cx="901.1" cy="425.4" r="5.4"/>
</g>
<polyline class="pl" points="225.4,587.2 237.7,587.2 250.0,587.2 262.3,587.2 274.6,587.2 286.9,587.2 299.1,587.2 311.4,587.2 323.7,587.2 336.0,587.2 348.3,587.2 360.6,587.2 372.9,587.2 385.1,587.2 397.4,587.2 409.7,587.2 422.0,587.2 434.3,587.2 446.6,587.2 458.8,587.2 471.1,587.2 483.4,587.2 495.7,587.2 508.0,587.2 520.3,587.2 532.5,585.5 544.8,585.6 557.1,585.5 569.4,585.5 581.7,584.7 594.0,583.8 606.2,583.6 618.5,583.0 630.8,582.2 643.1,581.2 655.4,579.8 667.7,578.0 679.9,577.8 692.2,577.8 704.5,577.3 716.8,577.4 729.1,577.4 741.4,576.9 753.7,575.1 765.9,573.8 778.2,573.7 790.5,573.7 802.8,573.7 815.1,573.8 827.4,573.0 839.6,572.9 851.9,572.1 864.2,569.3 876.5,567.6 888.8,567.7 901.1,565.7" stroke="#E78AC3" stroke-width="5.40" stroke-opacity="1.00" fill="none" clip-path="url(#axis_clip)"/>
<g class="pl" fill="#FFF" stroke="#E78AC3" stroke-width="0.900">
  <circle cx="225.4" cy="587.2" r="2.3"/>
  <circle cx="237.7" cy="587.2" r="2.3"/>
  <circle cx="250.0" cy="587.2" r="2.3"/>
  <circle cx="262.3" cy="587.2" r="2.3"/>
  <circle cx="274.6" cy="587.2" r="2.3"/>
  <circle cx="299.1" cy="587.2" r="2.3"/>
  <circle cx="311.4" cy="587.2" r="2.3"/>
  <circle cx="323.7" cy="587.2" r="2.3"/>
  <circle cx="336.0" cy="587.2" r="2.3"/>
  <circle cx="348.3" cy="587.2" r="2.3"/>
  <circle cx="360.6" cy="587.2" r="2.3"/>
  <circle cx="372.9" cy="587.2" r="2.3"/>
  <circle cx="385.1" cy="587.2" r="2.3"/>
  <circle cx="397.4" cy="587.2" r="2.3"/>
  <circle cx="422.0" cy="587.2" r="2.3"/>
  <circle cx="434.3" cy="587.2" r="2.3"/>
  <circle cx="446.6" cy="587.2" r="2.3"/>
  <circle cx="458.8" cy="587.2" r="2.3"/>
  <circle cx="471.1" cy="587.2" r="2.3"/>
  <circle cx="483.4" cy="587.2" r="2.3"/>
  <circle cx="495.7" cy="587.2" r="2.3"/>
  <circle cx="508.0" cy="587.2" r="2.3"/>
  <circle cx="520.3" cy="587.2" r="2.3"/>
  <circle cx="544.8" cy="585.6" r="2.3"/>
  <circle cx="557.1" cy="585.5" r="2.3"/>
  <circle cx="569.4" cy="585.5" r="2.3"/>
  <circle cx="581.7" cy="584.7" r="2.3"/>
  <circle cx="594.0" cy="583.8" r="2.3"/>
  <circle cx="606.2" cy="583.6" r="2.3"/>
  <circle cx="618.5" cy="583.0" r="2.3"/>
  <circle cx="630.8" cy="582.2" r="2.3"/>
  <circle cx="643.1" cy="581.2" r="2.3"/>
  <circle cx="667.7" cy="578.0" r="2.3"/>
  <circle cx="679.9" cy="577.8" r="2.3"/>
  <circle cx="692.2" cy="577.8" r="2.3"/>
  <circle cx="704.5" cy="577.3" r="2.3"/>
  <circle cx="716.8" cy="577.4" r="2.3"/>
  <circle cx="729.1" cy="577.4" r="2.3"/>
  <circle cx="741.4" cy="576.9" r="2.3"/>
  <circle cx="753.7" cy="575.1" r="2.3"/>
  <circle cx="765.9" cy="573.8" r="2.3"/>
  <circle cx="790.5" cy="573.7" r="2.3"/>
  <circle cx="802.8" cy="573.7" r="2.3"/>
  <circle cx="815.1" cy="573.8" r="2.3"/>
  <circle cx="827.4" cy="573.0" r="2.3"/>
  <circle cx="839.6" cy="572.9" r="2.3"/>
  <circle cx="851.9" cy="572.1" r="2.3"/>
  <circle cx="864.2" cy="569.3" r="2.3"/>
  <circle cx="876.5" cy="567.6" r="2.3"/>
  <circle cx="888.8" cy="567.7" r="2.3"/>
</g>
<g class="pl" fill="#FFF" stroke="#E78AC3" stroke-width="0.900">
  <circle cx="286.9" cy="587.2" r="5.4"/>
  <circle cx="409.7" cy="587.2" r="5.4"/>
  <circle cx="532.5" cy="585.5" r="5.4"/>
  <circle cx="655.4" cy="579.8" r="5.4"/>
  <circle cx="778.2" cy="573.7" r="5.4"/>
  <circle cx="901.1" cy="565.7" r="5.4"/>
</g>
<polyline class="pl" points="532.5,587.2 544.8,587.2 557.1,587.2 569.4,587.2 581.7,587.2 594.0,587.2 606.2,587.2 618.5,587.2 630.8,587.2 643.1,587.2 655.4,587.2 667.7,587.2 679.9,586.8 692.2,586.7 704.5,586.7 716.8,586.6 729.1,586.7 741.4,586.5 753.7,586.5 765.9,586.0 778.2,585.5 790.5,584.9 802.8,583.3 815.1,581.5 827.4,577.6 839.6,582.1 851.9,571.6 864.2,573.8 876.5,568.0 888.8,554.7 901.1,553.8" stroke="#8DA0CB" stroke-width="5.40" stroke-opacity="1.00" fill="none" clip-path="url(#axis_clip)"/>
<g class="pl" fill="#FFF" stroke="#8DA0CB" stroke-width="0.900">
  <circle cx="544.8" cy="587.2" r="2.3"/>
  <circle cx="557.1" cy="587.2" r="2.3"/>
  <circle cx="569.4" cy="587.2" r="2.3"/>
  <circle cx="581.7" cy="587.2" r="2.3"/>
  <circle cx="594.0" cy="587.2" r="2.3"/>
  <circle cx="606.2" cy="587.2" r="2.3"/>
  <circle cx="618.5" cy="587.2" r="2.3"/>
  <circle cx="630.8" cy="587.2" r="2.3"/>
  <circle cx="643.1" cy="587.2" r="2.3"/>
  <circle cx="667.7" cy="587.2" r="2.3"/>
  <circle cx="679.9" cy="586.8" r="2.3"/>
  <circle cx="692.2" cy="586.7" r="2.3"/>
  <circle cx="704.5" cy="586.7" r="2.3"/>
  <circle cx="716.8" cy="586.6" r="2.3"/>
  <circle cx="729.1" cy="586.7" r="2.3"/>
  <circle cx="741.4" cy="586.5" r="2.3"/>
  <circle cx="753.7" cy="586.5" r="2.3"/>
  <circle cx="765.9" cy="586.0" r="2.3"/>
  <circle cx="790.5" cy="584.9" r="2.3"/>
  <circle cx="802.8" cy="583.3" r="2.3"/>
  <circle cx="815.1" cy="581.5" r="2.3"/>
  <circle cx="827.4" cy="577.6" r="2.3"/>
  <circle cx="839.6" cy="582.1" r="2.3"/>
  <circle cx="851.9" cy="571.6" r="2.3"/>
  <circle cx="864.2" cy="573.8" r="2.3"/>
  <circle cx="876.5" cy="568.0" r="2.3"/>
  <circle cx="888.8" cy="554.7" r="2.3"/>
</g>
<g class="pl" fill="#FFF" stroke="#8DA0CB" stroke-width="0.900">
  <circle cx="532.5" cy="587.2" r="5.4"/>
  <circle cx="655.4" cy="587.2" r="5.4"/>
  <circle cx="778.2" cy="585.5" r="5.4"/>
  <circle cx="901.1" cy="553.8" r="5.4"/>
</g>
<polyline class="pl" points="225.4,587.2 237.7,587.2 250.0,587.2 262.3,587.2 274.6,587.2 286.9,587.2 299.1,587.2 311.4,587.2 323.7,587.2 336.0,587.2 348.3,587.2 360.6,587.2 372.9,587.2 385.1,587.2 397.4,587.2 409.7,587.2 422.0,587.2 434.3,587.2 446.6,587.2 458.8,587.2 471.1,587.2 483.4,587.2 495.7,587.2 508.0,587.2 520.3,587.2 532.5,587.2 544.8,587.2 557.1,587.2 569.4,587.2 581.7,587.2 594.0,587.2 606.2,587.2 618.5,587.2 630.8,587.2 643.1,587.2 655.4,587.2 667.7,587.2 679.9,587.2 692.2,587.2 704.5,587.2 716.8,587.2 729.1,587.2 741.4,587.2 753.7,587.2 765.9,587.2 778.2,587.2 790.5,587.2 802.8,587.2 815.1,587.2 827.4,587.2 839.6,587.2 851.9,587.2 864.2,587.2 876.5,587.2 888.8,587.2 901.1,587.2" stroke="#FC8D62" stroke-width="5.40" stroke-opacity="1.00" fill="none" clip-path="url(#axis_clip)"/>
<g class="pl" fill="#FFF" stroke="#FC8D62" stroke-width="0.900">
  <circle cx="225.4" cy="587.2" r="2.3"/>
  <circle cx="237.7" cy="587.2" r="2.3"/>
  <circle cx="250.0" cy="587.2" r="2.3"/>
  <circle cx="262.3" cy="587.2" r="2.3"/>
  <circle cx="274.6" cy="587.2" r="2.3"/>
  <circle cx="299.1" cy="587.2" r="2.3"/>
  <circle cx="311.4" cy="587.2" r="2.3"/>
  <circle cx="323.7" cy="587.2" r="2.3"/>
  <circle cx="336.0" cy="587.2" r="2.3"/>
  <circle cx="348.3" cy="587.2" r="2.3"/>
  <circle cx="360.6" cy="587.2" r="2.3"/>
  <circle cx="372.9" cy="587.2" r="2.3"/>
  <circle cx="385.1" cy="587.2" r="2.3"/>
  <circle cx="397.4" cy="587.2" r="2.3"/>
  <circle cx="422.0" cy="587.2" r="2.3"/>
  <circle cx="434.3" cy="587.2" r="2.3"/>
  <circle cx="446.6" cy="587.2" r="2.3"/>
  <circle cx="458.8" cy="587.2" r="2.3"/>
  <circle cx="471.1" cy="587.2" r="2.3"/>
  <circle cx="483.4" cy="587.2" r="2.3"/>
  <circle cx="495.7" cy="587.2" r="2.3"/>
  <circle cx="508.0" cy="587.2" r="2.3"/>
  <circle cx="520.3" cy="587.2" r="2.3"/>
  <circle cx="544.8" cy="587.2" r="2.3"/>
  <circle cx="557.1" cy="587.2" r="2.3"/>
  <circle cx="569.4" cy="587.2" r="2.3"/>
  <circle cx="581.7" cy="587.2" r="2.3"/>
  <circle cx="594.0" cy="587.2" r="2.3"/>
  <circle cx="606.2" cy="587.2" r="2.3"/>
  <circle cx="618.5" cy="587.2" r="2.3"/>
  <circle cx="630.8" cy="587.2" r="2.3"/>
  <circle cx="643.1" cy="587.2" r="2.3"/>
  <circle cx="667.7" cy="587.2" r="2.3"/>
  <circle cx="679.9" cy="587.2" r="2.3"/>
  <circle cx="692.2" cy="587.2" r="2.3"/>
  <circle cx="704.5" cy="587.2" r="2.3"/>
  <circle cx="716.8" cy="587.2" r="2.3"/>
  <circle cx="729.1" cy="587.2" r="2.3"/>
  <circle cx="741.4" cy="587.2" r="2.3"/>
  <circle cx="753.7" cy="587.2" r="2.3"/>
  <circle cx="765.9" cy="587.2" r="2.3"/>
  <circle cx="790.5" cy="587.2" r="2.3"/>
  <circle cx="802.8" cy="587.2" r="2.3"/>
  <circle cx="815.1" cy="587.2" r="2.3"/>
  <circle cx="827.4" cy="587.2" r="2.3"/>
  <circle cx="839.6" cy="587.2" r="2.3"/>
  <circle cx="851.9" cy="587.2" r="2.3"/>
  <circle cx="864.2" cy="587.2" r="2.3"/>
  <circle cx="876.5" cy="587.2" r="2.3"/>
  <circle cx="888.8" cy="587.2" r="2.3"/>
</g>
<g class="pl" fill="#FFF" stroke="#FC8D62" stroke-width="0.900">
  <circle cx="286.9" cy="587.2" r="5.4"/>
  <circle cx="409.7" cy="587.2" r="5.4"/>
  <circle cx="532.5" cy="587.2" r="5.4"/>
  <circle cx="655.4" cy="587.2" r="5.4"/>
  <circle cx="778.2" cy="587.2" r="5.4"/>
  <circle cx="901.1" cy="587.2" r="5.4"/>
</g>
<polyline class="pl" points="225.4,584.4 237.7,583.6 250.0,583.1 262.3,582.2 274.6,581.9 286.9,580.8 299.1,585.1 311.4,585.3 323.7,584.8 336.0,584.6 348.3,584.4 360.6,585.6 372.9,584.5 385.1,585.3 397.4,585.0 409.7,585.2 422.0,585.3 434.3,585.1 446.6,584.0 458.8,583.7 471.1,583.0 483.4,580.4 495.7,580.2 508.0,579.5 520.3,577.6 532.5,577.3 544.8,575.9 557.1,572.5 569.4,573.6 581.7,575.0 594.0,574.5 606.2,573.7 618.5,578.2 630.8,571.4 643.1,571.4 655.4,571.9 667.7,569.5 679.9,572.2 692.2,573.6 704.5,572.8 716.8,571.4 729.1,573.1 741.4,570.7 753.7,570.5 765.9,570.8 778.2,562.2 790.5,569.5 802.8,569.1 815.1,563.4 827.4,566.0 839.6,568.1 851.9,561.4 864.2,561.6 876.5,564.2 888.8,564.7 901.1,560.9" stroke="#66C2A5" stroke-width="5.40" stroke-opacity="1.00" fill="none" clip-path="url(#axis_clip)"/>
<g class="pl" fill="#FFF" stroke="#66C2A5" stroke-width="0.900">
  <circle cx="225.4" cy="584.4" r="2.3"/>
  <circle cx="237.7" cy="583.6" r="2.3"/>
  <circle cx="250.0" cy="583.1" r="2.3"/>
  <circle cx="262.3" cy="582.2" r="2.3"/>
  <circle cx="274.6" cy="581.9" r="2.3"/>
  <circle cx="299.1" cy="585.1" r="2.3"/>
  <circle cx="311.4" cy="585.3" r="2.3"/>
  <circle cx="323.7" cy="584.8" r="2.3"/>
  <circle cx="336.0" cy="584.6" r="2.3"/>
  <circle cx="348.3" cy="584.4" r="2.3"/>
  <circle cx="360.6" cy="585.6" r="2.3"/>
  <circle cx="372.9" cy="584.5" r="2.3"/>
  <circle cx="385.1" cy="585.3" r="2.3"/>
  <circle cx="397.4" cy="585.0" r="2.3"/>
  <circle cx="422.0" cy="585.3" r="2.3"/>
  <circle cx="434.3" cy="585.1" r="2.3"/>
  <circle cx="446.6" cy="584.0" r="2.3"/>
  <circle cx="458.8" cy="583.7" r="2.3"/>
  <circle cx="471.1" cy="583.0" r="2.3"/>
  <circle cx="483.4" cy="580.4" r="2.3"/>
  <circle cx="495.7" cy="580.2" r="2.3"/>
  <circle cx="508.0" cy="579.5" r="2.3"/>
  <circle cx="520.3" cy="577.6" r="2.3"/>
  <circle cx="544.8" cy="575.9" r="2.3"/>
  <circle cx="557.1" cy="572.5" r="2.3"/>
  <circle cx="569.4" cy="573.6" r="2.3"/>
  <circle cx="581.7" cy="575.0" r="2.3"/>
  <circle cx="594.0" cy="574.5" r="2.3"/>
  <circle cx="606.2" cy="573.7" r="2.3"/>
  <circle cx="618.5" cy="578.2" r="2.3"/>
  <circle cx="630.8" cy="571.4" r="2.3"/>
  <circle cx="643.1" cy="571.4" r="2.3"/>
  <circle cx="667.7" cy="569.5" r="2.3"/>
  <circle cx="679.9" cy="572.2" r="2.3"/>
  <circle cx="692.2" cy="573.6" r="2.3"/>
  <circle cx="704.5" cy="572.8" r="2.3"/>
  <circle cx="716.8" cy="571.4" r="2.3"/>
  <circle cx="729.1" cy="573.1" r="2.3"/>
  <circle cx="741.4" cy="570.7" r="2.3"/>
  <circle cx="753.7" cy="570.5" r="2.3"/>
  <circle cx="765.9" cy="570.8" r="2.3"/>
  <circle cx="790.5" cy="569.5" r="2.3"/>
  <circle cx="802.8" cy="569.1" r="2.3"/>
  <circle cx="815.1" cy="563.4" r="2.3"/>
  <circle cx="827.4" cy="566.0" r="2.3"/>
  <circle cx="839.6" cy="568.1" r="2.3"/>
  <circle cx="851.9" cy="561.4" r="2.3"/>
  <circle cx="864.2" cy="561.6" r="2.3"/>
  <circle cx="876.5" cy="564.2" r="2.3"/>
  <circle cx="888.8" cy="564.7" r="2.3"/>
</g>
<g class="pl" fill="#FFF" stroke="#66C2A5" stroke-width="0.900">
  <circle cx="286.9" cy="580.8" r="5.4"/>
  <circle cx="409.7" cy="585.2" r="5.4"/>
  <circle cx="532.5" cy="577.3" r="5.4"/>
  <circle cx="655.4" cy="571.9" r="5.4"/>
  <circle cx="778.2" cy="562.2" r="5.4"/>
  <circle cx="901.1" cy="560.9" r="5.4"/>
</g>
<polyline class="pl" points="225.4,587.2 237.7,587.2 250.0,587.2 262.3,587.2 274.6,587.2 286.9,587.2 299.1,587.2 311.4,587.2 323.7,587.2 336.0,587.2 348.3,587.2 360.6,587.2 372.9,587.2 385.1,587.2 397.4,587.2 409.7,587.2 422.0,587.2 434.3,587.2 446.6,587.2 458.8,587.2 471.1,587.2 483.4,587.2 495.7,587.2 508.0,587.2 520.3,587.2 532.5,587.2 544.8,587.2 557.1,587.2 569.4,587.2 581.7,587.2 594.0,587.2 606.2,587.2 618.5,587.2 630.8,587.2 643.1,587.2 655.4,587.2 667.7,587.2 679.9,587.2 692.2,587.2 704.5,587.2 716.8,587.2 729.1,587.2 741.4,587.2 753.7,587.2 765.9,587.2 778.2,587.2 790.5,587.2 802.8,587.2 815.1,587.2 827.4,587.2 839.6,587.2 851.9,587.1 864.2,587.1 876.5,587.1 888.8,587.1 901.1,586.5" stroke="#E5C494" stroke-width="5.40" stroke-opacity="1.00" fill="none" clip-path="url(#axis_clip)"/>
<g class="pl" fill="#FFF" stroke="#E5C494" stroke-width="0.900">
  <circle cx="225.4" cy="587.2" r="2.3"/>
  <circle cx="237.7" cy="587.2" r="2.3"/>
  <circle cx="250.0" cy="587.2" r="2.3"/>
  <circle cx="262.3" cy="587.2" r="2.3"/>
  <circle cx="274.6" cy="587.2" r="2.3"/>
  <circle cx="299.1" cy="587.2" r="2.3"/>
  <circle cx="311.4" cy="587.2" r="2.3"/>
  <circle cx="323.7" cy="587.2" r="2.3"/>
  <circle cx="336.0" cy="587.2" r="2.3"/>
  <circle cx="348.3" cy="587.2" r="2.3"/>
  <circle cx="360.6" cy="587.2" r="2.3"/>
  <circle cx="372.9" cy="587.2" r="2.3"/>
  <circle cx="385.1" cy="587.2" r="2.3"/>
  <circle cx="397.4" cy="587.2" r="2.3"/>
  <circle cx="422.0" cy="587.2" r="2.3"/>
  <circle cx="434.3" cy="587.2" r="2.3"/>
  <circle cx="446.6" cy="587.2" r="2.3"/>
  <circle cx="458.8" cy="587.2" r="2.3"/>
  <circle cx="471.1" cy="587.2" r="2.3"/>
  <circle cx="483.4" cy="587.2" r="2.3"/>
  <circle cx="495.7" cy="587.2" r="2.3"/>
  <circle cx="508.0" cy="587.2" r="2.3"/>
  <circle cx="520.3" cy="587.2" r="2.3"/>
  <circle cx="544.8" cy="587.2" r="2.3"/>
  <circle cx="557.1" cy="587.2" r="2.3"/>
  <circle cx="569.4" cy="587.2" r="2.3"/>
  <circle cx="581.7" cy="587.2" r="2.3"/>
  <circle cx="594.0" cy="587.2" r="2.3"/>
  <circle cx="606.2" cy="587.2" r="2.3"/>
  <circle cx="618.5" cy="587.2" r="2.3"/>
  <circle cx="630.8" cy="587.2" r="2.3"/>
  <circle cx="643.1" cy="587.2" r="2.3"/>
  <circle cx="667.7" cy="587.2" r="2.3"/>
  <circle cx="679.9" cy="587.2" r="2.3"/>
  <circle cx="692.2" cy="587.2" r="2.3"/>
  <circle cx="704.5" cy="587.2" r="2.3"/>
  <circle cx="716.8" cy="587.2" r="2.3"/>
  <circle cx="729.1" cy="587.2" r="2.3"/>
  <circle cx="741.4" cy="587.2" r="2.3"/>
  <circle cx="753.7" cy="587.2" r="2.3"/>
  <circle cx="765.9" cy="587.2" r="2.3"/>
  <circle cx="790.5" cy="587.2" r="2.3"/>
  <circle cx="802.8" cy="587.2" r="2.3"/>
  <circle cx="815.1" cy="587.2" r="2.3"/>
  <circle cx="827.4" cy="587.2" r="2.3"/>
  <circle cx="839.6" cy="587.2" r="2.3"/>
  <circle cx="851.9" cy="587.1" r="2.3"/>
  <circle cx="864.2" cy="587.1" r="2.3"/>
  <circle cx="876.5" cy="587.1" r="2.3"/>
  <circle cx="888.8" cy="587.1" r="2.3"/>
</g>
<g class="pl" fill="#FFF" stroke="#E5C494" stroke-width="0.900">
  <circle cx="286.9" cy="587.2" r="5.4"/>
  <circle cx="409.7" cy="587.2" r="5.4"/>
  <circle cx="532.5" cy="587.2" r="5.4"/>
  <circle cx="655.4" cy="587.2" r="5.4"/>
  <circle cx="778.2" cy="587.2" r="5.4"/>
  <circle cx="901.1" cy="586.5" r="5.4"/>
</g>
<polyline class="pl" points="225.4,587.2 237.7,587.2 250.0,587.2 262.3,587.2 274.6,587.2 286.9,587.2 299.1,587.2 311.4,587.2 323.7,587.2 336.0,587.2 348.3,587.2 360.6,587.2 372.9,587.2 385.1,587.2 397.4,587.2 409.7,587.2 422.0,587.2 434.3,587.2 446.6,587.2 458.8,587.2 471.1,587.2 483.4,587.2 495.7,587.2 508.0,587.2 520.3,587.2 532.5,587.2 544.8,587.2 557.1,587.2 569.4,587.2 581.7,587.2 594.0,587.2 606.2,587.2 618.5,587.2 630.8,587.2 643.1,587.2 655.4,587.2 667.7,587.2 679.9,587.2 692.2,587.2 704.5,587.2 716.8,587.2 729.1,587.2 741.4,587.2 753.7,587.2 765.9,587.2 778.2,587.2 790.5,587.2 802.8,587.2 815.1,587.2 827.4,587.2 839.6,587.2 851.9,587.2 864.2,587.2 876.5,586.9 888.8,586.5 901.1,586.5" stroke="#FFD92F" stroke-width="5.40" stroke-opacity="1.00" fill="none" clip-path="url(#axis_clip)"/>
<g class="pl" fill="#FFF" stroke="#FFD92F" stroke-width="0.900">
  <circle cx="225.4" cy="587.2" r="2.3"/>
  <circle cx="237.7" cy="587.2" r="2.3"/>
  <circle cx="250.0" cy="587.2" r="2.3"/>
  <circle cx="262.3" cy="587.2" r="2.3"/>
  <circle cx="274.6" cy="587.2" r="2.3"/>
  <circle cx="299.1" cy="587.2" r="2.3"/>
  <circle cx="311.4" cy="587.2" r="2.3"/>
  <circle cx="323.7" cy="587.2" r="2.3"/>
  <circle cx="336.0" cy="587.2" r="2.3"/>
  <circle cx="348.3" cy="587.2" r="2.3"/>
  <circle cx="360.6" cy="587.2" r="2.3"/>
  <circle cx="372.9" cy="587.2" r="2.3"/>
  <circle cx="385.1" cy="587.2" r="2.3"/>
  <circle cx="397.4" cy="587.2" r="2.3"/>
  <circle cx="422.0" cy="587.2" r="2.3"/>
  <circle cx="434.3" cy="587.2" r="2.3"/>
  <circle cx="446.6" cy="587.2" r="2.3"/>
  <circle cx="458.8" cy="587.2" r="2.3"/>
  <circle cx="471.1" cy="587.2" r="2.3"/>
  <circle cx="483.4" cy="587.2" r="2.3"/>
  <circle cx="495.7" cy="587.2" r="2.3"/>
  <circle cx="508.0" cy="587.2" r="2.3"/>
  <circle cx="520.3" cy="587.2" r="2.3"/>
  <circle cx="544.8" cy="587.2" r="2.3"/>
  <circle cx="557.1" cy="587.2" r="2.3"/>
  <circle cx="569.4" cy="587.2" r="2.3"/>
  <circle cx="581.7" cy="587.2" r="2.3"/>
  <circle cx="594.0" cy="587.2" r="2.3"/>
  <circle cx="606.2" cy="587.2" r="2.3"/>
  <circle cx="618.5" cy="587.2" r="2.3"/>
  <circle cx="630.8" cy="587.2" r="2.3"/>
  <circle cx="643.1" cy="587.2" r="2.3"/>
  <circle cx="667.7" cy="587.2" r="2.3"/>
  <circle cx="679.9" cy="587.2" r="2.3"/>
  <circle cx="692.2" cy="587.2" r="2.3"/>
  <circle cx="704.5" cy="587.2" r="2.3"/>
  <circle cx="716.8" cy="587.2" r="2.3"/>
  <circle cx="729.1" cy="587.2" r="2.3"/>
  <circle cx="741.4" cy="587.2" r="2.3"/>
  <circle cx="753.7" cy="587.2" r="2.3"/>
  <circle cx="765.9" cy="587.2" r="2.3"/>
  <circle cx="790.5" cy="587.2" r="2.3"/>
  <circle cx="802.8" cy="587.2" r="2.3"/>
  <circle cx="815.1" cy="587.2" r="2.3"/>
  <circle cx="827.4" cy="587.2" r="2.3"/>
  <circle cx="839.6" cy="587.2" r="2.3"/>
  <circle cx="851.9" cy="587.2" r="2.3"/>
  <circle cx="864.2" cy="587.2" r="2.3"/>
  <circle cx="876.5" cy="586.9" r="2.3"/>
  <circle cx="888.8" cy="586.5" r="2.3"/>
</g>
<g class="pl" fill="#FFF" stroke="#FFD92F" stroke-width="0.900">
  <circle cx="286.9" cy="587.2" r="5.4"/>
  <circle cx="409.7" cy="587.2" r="5.4"/>
  <circle cx="532.5" cy="587.2" r="5.4"/>
  <circle cx="655.4" cy="587.2" r="5.4"/>
  <circle cx="778.2" cy="587.2" r="5.4"/>
  <circle cx="901.1" cy="586.5" r="5.4"/>
</g>
<polyline class="pl" points="225.4,584.4 237.7,584.3 250.0,583.7 262.3,583.7 274.6,580.5 286.9,580.3 299.1,580.2 311.4,580.3 323.7,582.7 336.0,580.9 348.3,574.2 360.6,574.1 372.9,559.3 385.1,555.0 397.4,545.7 409.7,548.0 422.0,548.1 434.3,550.0 446.6,537.4 458.8,529.0 471.1,518.4 483.4,513.0 495.7,510.4 508.0,505.7 520.3,495.9 532.5,493.0 544.8,478.8 557.1,468.9 569.4,461.8 581.7,438.6 594.0,430.6 606.2,424.1 618.5,417.1 630.8,423.2 643.1,409.0 655.4,406.2 667.7,400.0 679.9,383.7 692.2,370.2 704.5,388.6 716.8,387.6 729.1,383.7 741.4,397.2 753.7,369.5 765.9,356.3 778.2,345.6 790.5,352.8 802.8,351.5 815.1,343.1 827.4,345.6 839.6,336.2 851.9,342.4 864.2,350.2 876.5,343.0 888.8,346.3 901.1,359.4" stroke="#6298C6" stroke-width="5.40" stroke-opacity="1.00" fill="none" clip-path="url(#axis_clip)"/>
<g class="pl" fill="#FFF" stroke="#6298C6" stroke-width="0.900">
  <circle cx="225.4" cy="584.4" r="2.3"/>
  <circle cx="237.7" cy="584.3" r="2.3"/>
  <circle cx="250.0" cy="583.7" r="2.3"/>
  <circle cx="262.3" cy="583.7" r="2.3"/>
  <circle cx="274.6" cy="580.5" r="2.3"/>
  <circle cx="299.1" cy="580.2" r="2.3"/>
  <circle cx="311.4" cy="580.3" r="2.3"/>
  <circle cx="323.7" cy="582.7" r="2.3"/>
  <circle cx="336.0" cy="580.9" r="2.3"/>
  <circle cx="348.3" cy="574.2" r="2.3"/>
  <circle cx="360.6" cy="574.1" r="2.3"/>
  <circle cx="372.9" cy="559.3" r="2.3"/>
  <circle cx="385.1" cy="555.0" r="2.3"/>
  <circle cx="397.4" cy="545.7" r="2.3"/>
  <circle cx="422.0" cy="548.1" r="2.3"/>
  <circle cx="434.3" cy="550.0" r="2.3"/>
  <circle cx="446.6" cy="537.4" r="2.3"/>
  <circle cx="458.8" cy="529.0" r="2.3"/>
  <circle cx="471.1" cy="518.4" r="2.3"/>
  <circle cx="483.4" cy="513.0" r="2.3"/>
  <circle cx="495.7" cy="510.4" r="2.3"/>
  <circle cx="508.0" cy="505.7" r="2.3"/>
  <circle cx="520.3" cy="495.9" r="2.3"/>
  <circle cx="544.8" cy="478.8" r="2.3"/>
  <circle cx="557.1" cy="468.9" r="2.3"/>
  <circle cx="569.4" cy="461.8" r="2.3"/>
  <circle cx="581.7" cy="438.6" r="2.3"/>
  <circle cx="594.0" cy="430.6" r="2.3"/>
  <circle cx="606.2" cy="424.1" r="2.3"/>
  <circle cx="618.5" cy="417.1" r="2.3"/>
  <circle cx="630.8" cy="423.2" r="2.3"/>
  <circle cx="643.1" cy="409.0" r="2.3"/>
  <circle cx="667.7" cy="400.0" r="2.3"/>
  <circle cx="679.9" cy="383.7" r="2.3"/>
  <circle cx="692.2" cy="370.2" r="2.3"/>
  <circle cx="704.5" cy="388.6" r="2.3"/>
  <circle cx="716.8" cy="387.6" r="2.3"/>
  <circle cx="729.1" cy="383.7" r="2.3"/>
  <circle cx="741.4" cy="397.2" r="2.3"/>
  <circle cx="753.7" cy="369.5" r="2.3"/>
  <circle cx="765.9" cy="356.3" r="2.3"/>
  <circle cx="790.5" cy="352.8" r="2.3"/>
  <circle cx="802.8" cy="351.5" r="2.3"/>
  <circle cx="815.1" cy="343.1" r="2.3"/>
  <circle cx="827.4" cy="345.6" r="2.3"/>
  <circle cx="839.6" cy="336.2" r="2.3"/>
  <circle cx="851.9" cy="342.4" r="2.3"/>
  <circle cx="864.2" cy="350.2" r="2.3"/>
  <circle cx="876.5" cy="343.0" r="2.3"/>
  <circle cx="888.8" cy="346.3" r="2.3"/>
</g>
<g class="pl" fill="#FFF" stroke="#6298C6" stroke-width="0.900">
  <circle cx="286.9" cy="580.3" r="5.4"/>
  <circle cx="409.7" cy="548.0" r="5.4"/>
  <circle cx="532.5" cy="493.0" r="5.4"/>
  <circle cx="655.4" cy="406.2" r="5.4"/>
  <circle cx="778.2" cy="345.6" r="5.4"/>
  <circle cx="901.1" cy="359.4" r="5.4"/>
</g>
<polyline class="pl" points="225.4,547.4 237.7,548.9 250.0,550.2 262.3,548.1 274.6,545.3 286.9,542.8 299.1,541.1 311.4,537.4 323.7,527.7 336.0,525.1 348.3,516.0 360.6,510.5 372.9,496.7 385.1,487.3 397.4,478.3 409.7,465.3 422.0,451.1 434.3,445.8 446.6,448.5 458.8,441.2 471.1,443.4 483.4,430.7 495.7,424.5 508.0,416.2 520.3,406.1 532.5,379.3 544.8,366.7 557.1,349.3 569.4,337.2 581.7,330.6 594.0,313.8 606.2,295.8 618.5,264.5 630.8,279.6 643.1,265.4 655.4,228.6 667.7,216.6 679.9,210.9 692.2,206.3 704.5,180.5 716.8,184.0 729.1,202.9 741.4,179.6 753.7,179.6 765.9,171.6 778.2,145.5 790.5,105.6 802.8,80.6 815.1,85.8 827.4,92.7 839.6,122.3 851.9,135.8 864.2,107.3 876.5,96.5 888.8,105.1 901.1,230.5" stroke="#404040" stroke-width="5.40" stroke-opacity="1.00" fill="none" clip-path="url(#axis_clip)"/>
<g class="pl" fill="#FFF" stroke="#404040" stroke-width="0.900">
  <circle cx="225.4" cy="547.4" r="2.3"/>
  <circle cx="237.7" cy="548.9" r="2.3"/>
  <circle cx="250.0" cy="550.2" r="2.3"/>
  <circle cx="262.3" cy="548.1" r="2.3"/>
  <circle cx="274.6" cy="545.3" r="2.3"/>
  <circle cx="299.1" cy="541.1" r="2.3"/>
  <circle cx="311.4" cy="537.4" r="2.3"/>
  <circle cx="323.7" cy="527.7" r="2.3"/>
  <circle cx="336.0" cy="525.1" r="2.3"/>
  <circle cx="348.3" cy="516.0" r="2.3"/>
  <circle cx="360.6" cy="510.5" r="2.3"/>
  <circle cx="372.9" cy="496.7" r="2.3"/>
  <circle cx="385.1" cy="487.3" r="2.3"/>
  <circle cx="397.4" cy="478.3" r="2.3"/>
  <circle cx="422.0" cy="451.1" r="2.3"/>
  <circle cx="434.3" cy="445.8" r="2.3"/>
  <circle cx="446.6" cy="448.5" r="2.3"/>
  <circle cx="458.8" cy="441.2" r="2.3"/>
  <circle cx="471.1" cy="443.4" r="2.3"/>
  <circle cx="483.4" cy="430.7" r="2.3"/>
  <circle cx="495.7" cy="424.5" r="2.3"/>
  <circle cx="508.0" cy="416.2" r="2.3"/>
  <circle cx="520.3" cy="406.1" r="2.3"/>
  <circle cx="544.8" cy="366.7" r="2.3"/>
  <circle cx="557.1" cy="349.3" r="2.3"/>
  <circle cx="569.4" cy="337.2" r="2.3"/>
  <circle cx="581.7" cy="330.6" r="2.3"/>
  <circle cx="594.0" cy="313.8" r="2.3"/>
  <circle cx="606.2" cy="295.8" r="2.3"/>
  <circle cx="618.5" cy="264.5" r="2.3"/>
  <circle cx="630.8" cy="279.6" r="2.3"/>
  <circle cx="643.1" cy="265.4" r="2.3"/>
  <circle cx="667.7" cy="216.6" r="2.3"/>
  <circle cx="679.9" cy="210.9" r="2.3"/>
  <circle cx="692.2" cy="206.3" r="2.3"/>
  <circle cx="704.5" cy="180.5" r="2.3"/>
  <circle cx="716.8" cy="184.0" r="2.3"/>
  <circle cx="729.1" cy="202.9" r="2.3"/>
  <circle cx="741.4" cy="179.6" r="2.3"/>
  <circle cx="753.7" cy="179.6" r="2.3"/>
  <circle cx="765.9" cy="171.6" r="2.3"/>
  <circle cx="790.5" cy="105.6" r="2.3"/>
  <circle cx="802.8" cy="80.6" r="2.3"/>
  <circle cx="815.1" cy="85.8" r="2.3"/>
  <circle cx="827.4" cy="92.7" r="2.3"/>
  <circle cx="839.6" cy="122.3" r="2.3"/>
  <circle cx="851.9" cy="135.8" r="2.3"/>
  <circle cx="864.2" cy="107.3" r="2.3"/>
  <circle cx="876.5" cy="96.5" r="2.3"/>
  <circle cx="888.8" cy="105.1" r="2.3"/>
</g>
<g class="pl" fill="#FFF" stroke="#404040" stroke-width="0.900">
  <circle cx="286.9" cy="542.8" r="5.4"/>
  <circle cx="409.7" cy="465.3" r="5.4"/>
  <circle cx="532.5" cy="379.3" r="5.4"/>
  <circle cx="655.4" cy="228.6" r="5.4"/>
  <circle cx="778.2" cy="145.5" r="5.4"/>
  <circle cx="901.1" cy="230.5" r="5.4"/>
</g>
<polyline class="pl" points="225.4,586.4 237.7,586.2 250.0,586.5 262.3,586.6 274.6,586.5 286.9,586.6 299.1,586.5 311.4,586.5 323.7,586.7 336.0,586.7 348.3,586.6 360.6,586.6 372.9,586.5 385.1,586.3 397.4,585.9 409.7,585.6 422.0,585.5 434.3,585.6 446.6,585.6 458.8,585.5 471.1,581.4 483.4,578.0 495.7,572.7 508.0,572.1 520.3,564.5 532.5,565.4 544.8,565.1 557.1,560.2 569.4,555.8 581.7,555.7 594.0,552.6 606.2,545.9 618.5,536.3 630.8,532.6 643.1,512.1 655.4,503.2 667.7,480.6 679.9,477.2 692.2,439.6 704.5,451.6 716.8,431.8 729.1,403.1 741.4,356.2 753.7,386.3 765.9,375.6 778.2,335.4 790.5,288.2 802.8,249.1 815.1,223.6 827.4,299.5 839.6,261.0 851.9,246.9 864.2,222.6 876.5,154.8 888.8,67.1 901.1,91.2" stroke="#7B553E" stroke-width="5.40" stroke-opacity="1.00" fill="none" clip-path="url(#axis_clip)"/>
<g class="pl" fill="#FFF" stroke="#7B553E" stroke-width="0.900">
  <circle cx="225.4" cy="586.4" r="2.3"/>
  <circle cx="237.7" cy="586.2" r="2.3"/>
  <circle cx="250.0" cy="586.5" r="2.3"/>
  <circle cx="262.3" cy="586.6" r="2.3"/>
  <circle cx="274.6" cy="586.5" r="2.3"/>
  <circle cx="299.1" cy="586.5" r="2.3"/>
  <circle cx="311.4" cy="586.5" r="2.3"/>
  <circle cx="323.7" cy="586.7" r="2.3"/>
  <circle cx="336.0" cy="586.7" r="2.3"/>
  <circle cx="348.3" cy="586.6" r="2.3"/>
  <circle cx="360.6" cy="586.6" r="2.3"/>
  <circle cx="372.9" cy="586.5" r="2.3"/>
  <circle cx="385.1" cy="586.3" r="2.3"/>
  <circle cx="397.4" cy="585.9" r="2.3"/>
  <circle cx="422.0" cy="585.5" r="2.3"/>
  <circle cx="434.3" cy="585.6" r="2.3"/>
  <circle cx="446.6" cy="585.6" r="2.3"/>
  <circle cx="458.8" cy="585.5" r="2.3"/>
  <circle cx="471.1" cy="581.4" r="2.3"/>
  <circle cx="483.4" cy="578.0" r="2.3"/>
  <circle cx="495.7" cy="572.7" r="2.3"/>
  <circle cx="508.0" cy="572.1" r="2.3"/>
  <circle cx="520.3" cy="564.5" r="2.3"/>
  <circle cx="544.8" cy="565.1" r="2.3"/>
  <circle cx="557.1" cy="560.2" r="2.3"/>
  <circle cx="569.4" cy="555.8" r="2.3"/>
  <circle cx="581.7" cy="555.7" r="2.3"/>
  <circle cx="594.0" cy="552.6" r="2.3"/>
  <circle cx="606.2" cy="545.9" r="2.3"/>
  <circle cx="618.5" cy="536.3" r="2.3"/>
  <circle cx="630.8" cy="532.6" r="2.3"/>
  <circle cx="643.1" cy="512.1" r="2.3"/>
  <circle cx="667.7" cy="480.6" r="2.3"/>
  <circle cx="679.9" cy="477.2" r="2.3"/>
  <circle cx="692.2" cy="439.6" r="2.3"/>
  <circle cx="704.5" cy="451.6" r="2.3"/>
  <circle cx="716.8" cy="431.8" r="2.3"/>
  <circle cx="729.1" cy="403.1" r="2.3"/>
  <circle cx="741.4" cy="356.2" r="2.3"/>
  <circle cx="753.7" cy="386.3" r="2.3"/>
  <circle cx="765.9" cy="375.6" r="2.3"/>
  <circle cx="790.5" cy="288.2" r="2.3"/>
  <circle cx="802.8" cy="249.1" r="2.3"/>
  <circle cx="815.1" cy="223.6" r="2.3"/>
  <circle cx="827.4" cy="299.5" r="2.3"/>
  <circle cx="839.6" cy="261.0" r="2.3"/>
  <circle cx="851.9" cy="246.9" r="2.3"/>
  <circle cx="864.2" cy="222.6" r="2.3"/>
  <circle cx="876.5" cy="154.8" r="2.3"/>
  <circle cx="888.8" cy="67.1" r="2.3"/>
</g>
<g class="pl" fill="#FFF" stroke="#7B553E" stroke-width="0.900">
  <circle cx="286.9" cy="586.6" r="5.4"/>
  <circle cx="409.7" cy="585.6" r="5.4"/>
  <circle cx="532.5" cy="565.4" r="5.4"/>
  <circle cx="655.4" cy="503.2" r="5.4"/>
  <circle cx="778.2" cy="335.4" r="5.4"/>
  <circle cx="901.1" cy="91.2" r="5.4"/>
</g>
<text transform="translate(945.6,425.4)" dy="8.1" font-size="27.00" fill="#FDBF6F" stroke="none">Bioenergy</text>
<text transform="translate(945.6,509.5)" dy="8.1" font-size="27.00" fill="#E78AC3" stroke="none">Other</text>
<text transform="translate(945.6,457.7)" dy="8.1" font-size="27.00" fill="#8DA0CB" stroke="none">Biofuels</text>
<text transform="translate(945.6,587.2)" dy="8.1" font-size="27.00" fill="#FC8D62" stroke="none">Nuclear</text>
<text transform="translate(945.6,483.6)" dy="8.1" font-size="27.00" fill="#66C2A5" stroke="none">Hydro</text>
<text transform="translate(945.6,561.3)" dy="8.1" font-size="27.00" fill="#E5C494" stroke="none">Solar</text>
<text transform="translate(945.6,535.4)" dy="8.1" font-size="27.00" fill="#FFD92F" stroke="none">Wind</text>
<text transform="translate(945.6,359.4)" dy="8.1" font-size="27.00" fill="#6298C6" stroke="none">Gas</text>
<text transform="translate(945.6,230.5)" dy="8.1" font-size="27.00" fill="#404040" stroke="none">Oil</text>
<text transform="translate(945.6,91.2)" dy="8.1" font-size="27.00" fill="#7B553E" stroke="none">Coal</text>
<polyline class="pl" points="910.8,565.7 912.4,565.5 913.8,564.9 915.2,564.0 916.4,562.8 917.6,561.3 918.8,559.5 919.8,557.4 920.8,555.2 921.7,552.8 922.7,550.2 923.5,547.6 924.4,544.8 925.2,541.9 926.0,539.0 926.8,536.1 927.6,533.2 928.4,530.4 929.3,527.6 930.1,524.9 931.1,522.3 932.0,519.9 933.0,517.7 934.0,515.7 935.2,513.9 936.4,512.4 937.6,511.1 939.0,510.2 940.4,509.7 942.0,509.5" stroke="#E78AC3" stroke-width="0.90" stroke-opacity="1.00" fill="none" />
<polyline class="pl" points="910.8,553.8 912.4,553.4 913.8,552.4 915.2,550.9 916.4,548.8 917.6,546.2 918.8,543.1 919.8,539.7 920.8,535.8 921.7,531.7 922.7,527.4 923.5,522.8 924.4,518.0 925.2,513.1 926.0,508.2 926.8,503.2 927.6,498.3 928.4,493.4 929.3,488.6 930.1,484.1 931.1,479.7 932.0,475.6 933.0,471.8 934.0,468.3 935.2,465.2 936.4,462.6 937.6,460.5 939.0,459.0 940.4,458.0 942.0,457.7" stroke="#8DA0CB" stroke-width="0.90" stroke-opacity="1.00" fill="none" />
<polyline class="pl" points="910.8,560.9 912.4,560.6 913.8,559.8 915.2,558.5 916.4,556.8 917.6,554.8 918.8,552.3 919.8,549.5 920.8,546.5 921.7,543.1 922.7,539.6 923.5,535.9 924.4,532.1 925.2,528.2 926.0,524.2 926.8,520.2 927.6,516.2 928.4,512.3 929.3,508.5 930.1,504.8 931.1,501.3 932.0,498.0 933.0,494.9 934.0,492.1 935.2,489.7 936.4,487.6 937.6,485.9 939.0,484.6 940.4,483.8 942.0,483.6" stroke="#66C2A5" stroke-width="0.90" stroke-opacity="1.00" fill="none" />
<polyline class="pl" points="910.8,586.5 912.4,586.4 913.8,586.2 915.2,585.8 916.4,585.2 917.6,584.5 918.8,583.7 919.8,582.8 920.8,581.8 921.7,580.7 922.7,579.6 923.5,578.4 924.4,577.1 925.2,575.9 926.0,574.6 926.8,573.3 927.6,572.0 928.4,570.7 929.3,569.4 930.1,568.2 931.1,567.1 932.0,566.0 933.0,565.0 934.0,564.1 935.2,563.3 936.4,562.6 937.6,562.0 939.0,561.6 940.4,561.4 942.0,561.3" stroke="#E5C494" stroke-width="0.90" stroke-opacity="1.00" fill="none" />
<polyline class="pl" points="910.8,586.5 912.4,586.4 913.8,585.8 915.2,585.0 916.4,583.9 917.6,582.5 918.8,580.9 919.8,579.0 920.8,577.0 921.7,574.8 922.7,572.5 923.5,570.0 924.4,567.5 925.2,564.9 926.0,562.3 926.8,559.6 927.6,557.0 928.4,554.4 929.3,551.9 930.1,549.4 931.1,547.1 932.0,544.9 933.0,542.9 934.0,541.0 935.2,539.4 936.4,538.0 937.6,536.9 939.0,536.1 940.4,535.5 942.0,535.4" stroke="#FFD92F" stroke-width="0.90" stroke-opacity="1.00" fill="none" />
<text transform="translate(1079.5,422.1)" dy="0.0" font-size="14.40" fill="#FDBF6F" stroke="none">excluding</text>
<text transform="translate(1079.5,422.1)" dy="14.4" font-size="14.40" fill="#FDBF6F" stroke="none">liquids</text>
<text transform="translate(145.6,47.2)" dy="0.0" font-size="27.00" fill="#808080" stroke="none">Annual energy consumption Indonesia</text>
<text transform="translate(160.2,666.1)" font-size="19.80" fill="#BFBFBF" stroke="none" xml:space="preserve">Global Carbon Project   &#9679;   Data: BP, IEA (bioenergy)</text>
<g class="cc">
  <rect x="123.0" y="651.4" width="34" height="17" fill="#FFF" stroke="none"/>
  <g transform="translate(124.0,652.4) scale(0.24)">
  <g><circle fill="#FFF" cx="37.79" cy="28.5" r="28.84"/>
     <circle fill="none" cx="37.79" cy="28.5" r="28.84" stroke="#000" stroke-width="5.5"/>
     <path d="M37.16,23.19 l-4.29,2.23c-0.458-0.951-1.02-1.62-1.69-2c-0.667-0.38-1.29-0.571-1.86-0.571c-2.86,0-4.29,1.89-4.29,5.66 c0,1.71,0.36,3.08,1.09,4.11c0.724,1.03,1.79,1.54,3.2,1.54c1.87,0,3.18-0.915,3.94-2.74l3.94,2 c-0.838,1.56-2,2.79-3.49,3.69c-1.48,0.896-3.12,1.34-4.91,1.34c-2.86,0-5.16-0.875-6.92-2.63 c-1.75-1.75-2.63-4.19-2.63-7.31c0-3.05,0.886-5.47,2.66-7.26c1.77-1.79,4.01-2.69,6.72-2.69 C32.6,18.56,35.44,20.1,37.16,23.19z
              M55.61,23.19l-4.23,2.23c-0.457-0.951-1.02-1.62-1.69-2 c-0.668-0.38-1.31-0.571-1.91-0.571c-2.86,0-4.29,1.89-4.29,5.66c0,1.71,0.363,3.08,1.09,4.11 c0.723,1.03,1.79,1.54,3.2,1.54c1.87,0,3.18-0.915,3.94-2.74l4,2c-0.875,1.56-2.06,2.79-3.54,3.69 c-1.49,0.9-3.11,1.34-4.86,1.34c-2.9,0-5.21-0.875-6.94-2.63c-1.74-1.75-2.6-4.19-2.6-7.31 c0-3.05,0.885-5.47,2.66-7.26c1.77-1.79,4.01-2.69,6.71-2.69C51.12,18.56,53.944,20.1,55.61,23.19z"/>
  </g></g>
  <g transform="translate(140.2,652.4) scale(0.24)">
  <g><circle fill="#FFF" cx="37.79" cy="28.5" r="28.84"/>
     <circle fill="none" cx="37.79" cy="28.5" r="28.84" stroke="#000" stroke-width="5.5"/>
     <path d="M46.129,20.557v13.085h-3.656v15.542h-9.944V33.643h-3.656V20.557 c0-0.572,0.2-1.057,0.599-1.457c0.401-0.399,0.887-0.6,1.457-0.6h13.144c0.533,0,1.01,0.2,1.428,0.6 C45.918,19.5,46.129,19.986,46.129,20.557z
              M33.042,12.329c0-3.008,1.485-4.514,4.458-4.514s4.457,1.504,4.457,4.514 c0,2.971-1.486,4.457-4.457,4.457S33.042,15.3,33.042,12.329z"/>
  </g></g>
</g>
</g>
</svg>
