<svg version="1.1" xmlns="http://www.w3.org/2000/svg" xmlns:xlink="http://www.w3.org/1999/xlink" width="100%" height="100%" viewBox="0 0 1200.000 674.916">
<title>Annual energy consumption Iraq</title>
<style type="text/css">
  #main {font-family:Helvetica,Arial,sans-serif; font-size:27.00px;
         fill-opacity:1; fill:#000000; stroke:none; stroke-linejoin:round; stroke-linecap:round; stroke-width:1.00;}
  .marker {stroke-opacity:0;fill-opacity:0;}
  .marker:hover {stroke-opacity:0.5; fill-opacity:1;}
  .ticklabel {font-size:27.00px;fill:#808080;stroke:none}
  .ytl {text-anchor:end;}
  .xtl {text-anchor:middle;}
  .dp1 {pointer-events:none;font-size:70%;text-anchor:middle;fill:#000000;}
  .dp2 {pointer-events:none;font-size:70%;text-anchor:middle;fill:#FFFFFF;}
  .numtip {pointer-events:none;}
  .cc {opacity:0.25;}
.dl_fe {background-color:#FDFFDF;display:flex;margin:auto;align-items:center}
.dl_fe_p {font-size:20px;text-align:center;margin:3px}
.dl_el {display:none;pointer-events:none;}
.cc:hover + .dl_el {display:block;}
text:hover + .dl_el {display:block;}
</style>
<defs>
  <clipPath id="axis_clip"><rect x="145.8" y="54.2" width="761.2" height="532.8" /></clipPath>
  <path id="line_x" d="M 145.600,0 h 761.600" stroke="#262626" stroke-opacity="0.15" stroke-width="1.00"/>
  <path id="tick_y" d="M 145.600,0 h -6.000" stroke="#808080" stroke-width="0.90"/>
  <path id="tick_x" d="M 0,587.177 v 6.000" stroke="#808080" stroke-width="0.90"/>
</defs>
<g id="main">
<use xlink:href="#line_x" transform="translate(0,587.2)"/>
<use xlink:href="#line_x" transform="translate(0,453.9)"/>
<use xlink:href="#line_x" transform="translate(0,320.6)"/>
<use xlink:href="#line_x" transform="translate(0,187.3)"/>
<use xlink:href="#line_x" transform="translate(0,54.0)"/>
<use xlink:href="#tick_y" transform="translate(0,587.2)"/>
<use xlink:href="#tick_y" transform="translate(0,453.9)"/>
<use xlink:href="#tick_y" transform="translate(0,320.6)"/>
<use xlink:href="#tick_y" transform="translate(0,187.3)"/>
<use xlink:href="#tick_y" transform="translate(0,54.0)"/>
<use xlink:href="#tick_x" transform="translate(164.0,0)"/>
<use xlink:href="#tick_x" transform="translate(286.9,0)"/>
<use xlink:href="#tick_x" transform="translate(409.7,0)"/>
<use xlink:href="#tick_x" transform="translate(532.5,0)"/>
<use xlink:href="#tick_x" transform="translate(655.4,0)"/>
<use xlink:href="#tick_x" transform="translate(778.2,0)"/>
<use xlink:href="#tick_x" transform="translate(901.1,0)"/>
<polyline points="145.6,53.993 145.6,587.177 907.2,587.177" stroke="#808080" stroke-width="0.90" fill="none"/>
<text class="ticklabel xtl" transform="translate(164.0,629.0)">1960</text>
<text class="ticklabel xtl" transform="translate(286.9,629.0)">1970</text>
<text class="ticklabel xtl" transform="translate(409.7,629.0)">1980</text>
<text class="ticklabel xtl" transform="translate(532.5,629.0)">1990</text>
<text class="ticklabel xtl" transform="translate(655.4,629.0)">2000</text>
<text class="ticklabel xtl" transform="translate(778.2,629.0)">2010</text>
<text class="ticklabel xtl" transform="translate(901.1,629.0)">2020</text>
<text class="ticklabel ytl" transform="translate(128.8,595.3)">0</text>
<text class="ticklabel ytl" transform="translate(128.8,462.0)">0.4</text>
<text class="ticklabel ytl" transform="translate(128.8,328.7)">0.8</text>
<text class="ticklabel ytl" transform="translate(128.8,195.4)">1.2</text>
<text class="ticklabel ytl" transform="translate(128.8,62.1)">1.6 EJ</text>
<polyline class="pl" points="299.1,586.9 311.4,586.9 323.7,586.9 336.0,586.9 348.3,586.9 360.6,586.9 372.9,586.8 385.1,586.8 397.4,586.9 409.7,586.9 422.0,586.9 434.3,586.9 446.6,586.9 458.8,586.9 471.1,586.9 483.4,586.9 495.7,586.9 508.0,586.9 520.3,586.9 532.5,586.9 544.8,586.9 557.1,586.8 569.4,586.8 581.7,586.8 594.0,586.8 606.2,586.8 618.5,586.8 630.8,586.8 643.1,586.8 655.4,586.7 667.7,586.7 679.9,586.7 692.2,586.7 704.5,586.7 716.8,586.7 729.1,586.7 741.4,586.7 753.7,586.7 765.9,586.6 778.2,586.6 790.5,586.6 802.8,586.6 815.1,586.6 827.4,586.6 839.6,586.5 851.9,586.5 864.2,586.5 876.5,586.5 888.8,586.5 901.1,586.5" stroke="#FDBF6F" stroke-width="5.40" stroke-opacity="1.00" fill="none" clip-path="url(#axis_clip)"/>
<g class="pl" fill="#FFF" stroke="#FDBF6F" stroke-width="0.900">
  <circle cx="299.1" cy="586.9" r="2.3"/>
  <circle cx="311.4" cy="586.9" r="2.3"/>
  <circle cx="323.7" cy="586.9" r="2.3"/>
  <circle cx="336.0" cy="586.9" r="2.3"/>
  <circle cx="348.3" cy="586.9" r="2.3"/>
  <circle cx="360.6" cy="586.9" r="2.3"/>
  <circle cx="372.9" cy="586.8" r="2.3"/>
  <circle cx="385.1" cy="586.8" r="2.3"/>
  <circle cx="397.4" cy="586.9" r="2.3"/>
  <circle cx="422.0" cy="586.9" r="2.3"/>
  <circle cx="434.3" cy="586.9" r="2.3"/>
  <circle cx="446.6" cy="586.9" r="2.3"/>
  <circle cx="458.8" cy="586.9" r="2.3"/>
  <circle cx="471.1" cy="586.9" r="2.3"/>
  <circle cx="483.4" cy="586.9" r="2.3"/>
  <circle cx="495.7" cy="586.9" r="2.3"/>
  <circle cx="508.0" cy="586.9" r="2.3"/>
  <circle cx="520.3" cy="586.9" r="2.3"/>
  <circle cx="544.8" cy="586.9" r="2.3"/>
  <circle cx="557.1" cy="586.8" r="2.3"/>
  <circle cx="569.4" cy="586.8" r="2.3"/>
  <circle cx="581.7" cy="586.8" r="2.3"/>
  <circle cx="594.0" cy="586.8" r="2.3"/>
  <circle cx="606.2" cy="586.8" r="2.3"/>
  <circle cx="618.5" cy="586.8" r="2.3"/>
  <circle cx="630.8" cy="586.8" r="2.3"/>
  <circle cx="643.1" cy="586.8" r="2.3"/>
  <circle cx="667.7" cy="586.7" r="2.3"/>
  <circle cx="679.9" cy="586.7" r="2.3"/>
  <circle cx="692.2" cy="586.7" r="2.3"/>
  <circle cx="704.5" cy="586.7" r="2.3"/>
  <circle cx="716.8" cy="586.7" r="2.3"/>
  <circle cx="729.1" cy="586.7" r="2.3"/>
  <circle cx="741.4" cy="586.7" r="2.3"/>
  <circle cx="753.7" cy="586.7" r="2.3"/>
  <circle cx="765.9" cy="586.6" r="2.3"/>
  <circle cx="790.5" cy="586.6" r="2.3"/>
  <circle cx="802.8" cy="586.6" r="2.3"/>
  <circle cx="815.1" cy="586.6" r="2.3"/>
  <circle cx="827.4" cy="586.6" r="2.3"/>
  <circle cx="839.6" cy="586.5" r="2.3"/>
  <circle cx="851.9" cy="586.5" r="2.3"/>
  <circle cx="864.2" cy="586.5" r="2.3"/>
  <circle cx="876.5" cy="586.5" r="2.3"/>
  <circle cx="888.8" cy="586.5" r="2.3"/>
</g>
<g class="pl" fill="#FFF" stroke="#FDBF6F" stroke-width="0.900">
  <circle cx="409.7" cy="586.9" r="5.4"/>
  <circle cx="532.5" cy="586.9" r="5.4"/>
  <circle cx="655.4" cy="586.7" r="5.4"/>
  <circle cx="778.2" cy="586.6" r="5.4"/>
  <circle cx="901.1" cy="586.5" r="5.4"/>
</g>
<polyline class="pl" points="225.4,587.2 237.7,587.2 250.0,587.2 262.3,587.2 274.6,587.2 286.9,587.2 299.1,587.2 311.4,587.2 323.7,587.2 336.0,587.2 348.3,587.2 360.6,587.2 372.9,587.2 385.1,587.2 397.4,587.2 409.7,587.2 422.0,587.2 434.3,587.2 446.6,587.2 458.8,587.2 471.1,587.2 483.4,587.2 495.7,587.2 508.0,587.2 520.3,587.2 532.5,587.2 544.8,587.2 557.1,587.2 569.4,587.2 581.7,587.2 594.0,587.2 606.2,587.2 618.5,587.2 630.8,587.2 643.1,587.2 655.4,587.2 667.7,587.2 679.9,587.2 692.2,587.2 704.5,587.2 716.8,587.2 729.1,587.2 741.4,587.2 753.7,587.2 765.9,587.2 778.2,587.2 790.5,587.2 802.8,587.2 815.1,587.2 827.4,587.2 839.6,587.2 851.9,587.2 864.2,587.2 876.5,587.2 888.8,587.2 901.1,587.2" stroke="#E78AC3" stroke-width="5.40" stroke-opacity="1.00" fill="none" clip-path="url(#axis_clip)"/>
<g class="pl" fill="#FFF" stroke="#E78AC3" stroke-width="0.900">
  <circle cx="225.4" cy="587.2" r="2.3"/>
  <circle cx="237.7" cy="587.2" r="2.3"/>
  <circle cx="250.0" cy="587.2" r="2.3"/>
  <circle cx="262.3" cy="587.2" r="2.3"/>
  <circle cx="274.6" cy="587.2" r="2.3"/>
  <circle cx="299.1" cy="587.2" r="2.3"/>
  <circle cx="311.4" cy="587.2" r="2.3"/>
  <circle cx="323.7" cy="587.2" r="2.3"/>
  <circle cx="336.0" cy="587.2" r="2.3"/>
  <circle cx="348.3" cy="587.2" r="2.3"/>
  <circle cx="360.6" cy="587.2" r="2.3"/>
  <circle cx="372.9" cy="587.2" r="2.3"/>
  <circle cx="385.1" cy="587.2" r="2.3"/>
  <circle cx="397.4" cy="587.2" r="2.3"/>
  <circle cx="422.0" cy="587.2" r="2.3"/>
  <circle cx="434.3" cy="587.2" r="2.3"/>
  <circle cx="446.6" cy="587.2" r="2.3"/>
  <circle cx="458.8" cy="587.2" r="2.3"/>
  <circle cx="471.1" cy="587.2" r="2.3"/>
  <circle cx="483.4" cy="587.2" r="2.3"/>
  <circle cx="495.7" cy="587.2" r="2.3"/>
  <circle cx="508.0" cy="587.2" r="2.3"/>
  <circle cx="520.3" cy="587.2" r="2.3"/>
  <circle cx="544.8" cy="587.2" r="2.3"/>
  <circle cx="557.1" cy="587.2" r="2.3"/>
  <circle cx="569.4" cy="587.2" r="2.3"/>
  <circle cx="581.7" cy="587.2" r="2.3"/>
  <circle cx="594.0" cy="587.2" r="2.3"/>
  <circle cx="606.2" cy="587.2" r="2.3"/>
  <circle cx="618.5" cy="587.2" r="2.3"/>
  <circle cx="630.8" cy="587.2" r="2.3"/>
  <circle cx="643.1" cy="587.2" r="2.3"/>
  <circle cx="667.7" cy="587.2" r="2.3"/>
  <circle cx="679.9" cy="587.2" r="2.3"/>
  <circle cx="692.2" cy="587.2" r="2.3"/>
  <circle cx="704.5" cy="587.2" r="2.3"/>
  <circle cx="716.8" cy="587.2" r="2.3"/>
  <circle cx="729.1" cy="587.2" r="2.3"/>
  <circle cx="741.4" cy="587.2" r="2.3"/>
  <circle cx="753.7" cy="587.2" r="2.3"/>
  <circle cx="765.9" cy="587.2" r="2.3"/>
  <circle cx="790.5" cy="587.2" r="2.3"/>
  <circle cx="802.8" cy="587.2" r="2.3"/>
  <circle cx="815.1" cy="587.2" r="2.3"/>
  <circle cx="827.4" cy="587.2" r="2.3"/>
  <circle cx="839.6" cy="587.2" r="2.3"/>
  <circle cx="851.9" cy="587.2" r="2.3"/>
  <circle cx="864.2" cy="587.2" r="2.3"/>
  <circle cx="876.5" cy="587.2" r="2.3"/>
  <circle cx="888.8" cy="587.2" r="2.3"/>
</g>
<g class="pl" fill="#FFF" stroke="#E78AC3" stroke-width="0.900">
  <circle cx="286.9" cy="587.2" r="5.4"/>
  <circle cx="409.7" cy="587.2" r="5.4"/>
  <circle cx="532.5" cy="587.2" r="5.4"/>
  <circle cx="655.4" cy="587.2" r="5.4"/>
  <circle cx="778.2" cy="587.2" r="5.4"/>
  <circle cx="901.1" cy="587.2" r="5.4"/>
</g>
<g class="pl" fill="#FFF" stroke="#8DA0CB" stroke-width="0.900">
</g>
<g class="pl" fill="#FFF" stroke="#8DA0CB" stroke-width="0.900">
</g>
<polyline class="pl" points="225.4,587.2 237.7,587.2 250.0,587.2 262.3,587.2 274.6,587.2 286.9,587.2 299.1,587.2 311.4,587.2 323.7,587.2 336.0,587.2 348.3,587.2 360.6,587.2 372.9,587.2 385.1,587.2 397.4,587.2 409.7,587.2 422.0,587.2 434.3,587.2 446.6,587.2 458.8,587.2 471.1,587.2 483.4,587.2 495.7,587.2 508.0,587.2 520.3,587.2 532.5,587.2 544.8,587.2 557.1,587.2 569.4,587.2 581.7,587.2 594.0,587.2 606.2,587.2 618.5,587.2 630.8,587.2 643.1,587.2 655.4,587.2 667.7,587.2 679.9,587.2 692.2,587.2 704.5,587.2 716.8,587.2 729.1,587.2 741.4,587.2 753.7,587.2 765.9,587.2 778.2,587.2 790.5,587.2 802.8,587.2 815.1,587.2 827.4,587.2 839.6,587.2 851.9,587.2 864.2,587.2 876.5,587.2 888.8,587.2 901.1,587.2" stroke="#FC8D62" stroke-width="5.40" stroke-opacity="1.00" fill="none" clip-path="url(#axis_clip)"/>
<g class="pl" fill="#FFF" stroke="#FC8D62" stroke-width="0.900">
  <circle cx="225.4" cy="587.2" r="2.3"/>
  <circle cx="237.7" cy="587.2" r="2.3"/>
  <circle cx="250.0" cy="587.2" r="2.3"/>
  <circle cx="262.3" cy="587.2" r="2.3"/>
  <circle cx="274.6" cy="587.2" r="2.3"/>
  <circle cx="299.1" cy="587.2" r="2.3"/>
  <circle cx="311.4" cy="587.2" r="2.3"/>
  <circle cx="323.7" cy="587.2" r="2.3"/>
  <circle cx="336.0" cy="587.2" r="2.3"/>
  <circle cx="348.3" cy="587.2" r="2.3"/>
  <circle cx="360.6" cy="587.2" r="2.3"/>
  <circle cx="372.9" cy="587.2" r="2.3"/>
  <circle cx="385.1" cy="587.2" r="2.3"/>
  <circle cx="397.4" cy="587.2" r="2.3"/>
  <circle cx="422.0" cy="587.2" r="2.3"/>
  <circle cx="434.3" cy="587.2" r="2.3"/>
  <circle cx="446.6" cy="587.2" r="2.3"/>
  <circle cx="458.8" cy="587.2" r="2.3"/>
  <circle cx="471.1" cy="587.2" r="2.3"/>
  <circle cx="483.4" cy="587.2" r="2.3"/>
  <circle cx="495.7" cy="587.2" r="2.3"/>
  <circle cx="508.0" cy="587.2" r="2.3"/>
  <circle cx="520.3" cy="587.2" r="2.3"/>
  <circle cx="544.8" cy="587.2" r="2.3"/>
  <circle cx="557.1" cy="587.2" r="2.3"/>
  <circle cx="569.4" cy="587.2" r="2.3"/>
  <circle cx="581.7" cy="587.2" r="2.3"/>
  <circle cx="594.0" cy="587.2" r="2.3"/>
  <circle cx="606.2" cy="587.2" r="2.3"/>
  <circle cx="618.5" cy="587.2" r="2.3"/>
  <circle cx="630.8" cy="587.2" r="2.3"/>
  <circle cx="643.1" cy="587.2" r="2.3"/>
  <circle cx="667.7" cy="587.2" r="2.3"/>
  <circle cx="679.9" cy="587.2" r="2.3"/>
  <circle cx="692.2" cy="587.2" r="2.3"/>
  <circle cx="704.5" cy="587.2" r="2.3"/>
  <circle cx="716.8" cy="587.2" r="2.3"/>
  <circle cx="729.1" cy="587.2" r="2.3"/>
  <circle cx="741.4" cy="587.2" r="2.3"/>
  <circle cx="753.7" cy="587.2" r="2.3"/>
  <circle cx="765.9" cy="587.2" r="2.3"/>
  <circle cx="790.5" cy="587.2" r="2.3"/>
  <circle cx="802.8" cy="587.2" r="2.3"/>
  <circle cx="815.1" cy="587.2" r="2.3"/>
  <circle cx="827.4" cy="587.2" r="2.3"/>
  <circle cx="839.6" cy="587.2" r="2.3"/>
  <circle cx="851.9" cy="587.2" r="2.3"/>
  <circle cx="864.2" cy="587.2" r="2.3"/>
  <circle cx="876.5" cy="587.2" r="2.3"/>
  <circle cx="888.8" cy="587.2" r="2.3"/>
</g>
<g class="pl" fill="#FFF" stroke="#FC8D62" stroke-width="0.900">
  <circle cx="286.9" cy="587.2" r="5.4"/>
  <circle cx="409.7" cy="587.2" r="5.4"/>
  <circle cx="532.5" cy="587.2" r="5.4"/>
  <circle cx="655.4" cy="587.2" r="5.4"/>
  <circle cx="778.2" cy="587.2" r="5.4"/>
  <circle cx="901.1" cy="587.2" r="5.4"/>
</g>
<polyline class="pl" points="225.4,586.9 237.7,586.9 250.0,586.8 262.3,586.7 274.6,586.7 286.9,586.6 299.1,586.5 311.4,586.5 323.7,586.2 336.0,585.8 348.3,585.6 360.6,585.6 372.9,585.3 385.1,584.8 397.4,583.7 409.7,584.9 422.0,585.1 434.3,585.2 446.6,585.2 458.8,585.1 471.1,585.1 483.4,585.2 495.7,578.5 508.0,578.5 520.3,578.5 532.5,571.7 544.8,580.0 557.1,569.8 569.4,566.6 581.7,566.4 594.0,563.5 606.2,565.6 618.5,565.2 630.8,566.5 643.1,575.3 655.4,576.5 667.7,574.9 679.9,572.2 692.2,571.6 704.5,568.5 716.8,571.4 729.1,571.2 741.4,572.6 753.7,577.9 765.9,578.3 778.2,575.9 790.5,576.6 802.8,573.6 815.1,573.0 827.4,578.5 839.6,579.4 851.9,577.0 864.2,580.7 876.5,581.8 888.8,579.8 901.1,579.9" stroke="#66C2A5" stroke-width="5.40" stroke-opacity="1.00" fill="none" clip-path="url(#axis_clip)"/>
<g class="pl" fill="#FFF" stroke="#66C2A5" stroke-width="0.900">
  <circle cx="225.4" cy="586.9" r="2.3"/>
  <circle cx="237.7" cy="586.9" r="2.3"/>
  <circle cx="250.0" cy="586.8" r="2.3"/>
  <circle cx="262.3" cy="586.7" r="2.3"/>
  <circle cx="274.6" cy="586.7" r="2.3"/>
  <circle cx="299.1" cy="586.5" r="2.3"/>
  <circle cx="311.4" cy="586.5" r="2.3"/>
  <circle cx="323.7" cy="586.2" r="2.3"/>
  <circle cx="336.0" cy="585.8" r="2.3"/>
  <circle cx="348.3" cy="585.6" r="2.3"/>
  <circle cx="360.6" cy="585.6" r="2.3"/>
  <circle cx="372.9" cy="585.3" r="2.3"/>
  <circle cx="385.1" cy="584.8" r="2.3"/>
  <circle cx="397.4" cy="583.7" r="2.3"/>
  <circle cx="422.0" cy="585.1" r="2.3"/>
  <circle cx="434.3" cy="585.2" r="2.3"/>
  <circle cx="446.6" cy="585.2" r="2.3"/>
  <circle cx="458.8" cy="585.1" r="2.3"/>
  <circle cx="471.1" cy="585.1" r="2.3"/>
  <circle cx="483.4" cy="585.2" r="2.3"/>
  <circle cx="495.7" cy="578.5" r="2.3"/>
  <circle cx="508.0" cy="578.5" r="2.3"/>
  <circle cx="520.3" cy="578.5" r="2.3"/>
  <circle cx="544.8" cy="580.0" r="2.3"/>
  <circle cx="557.1" cy="569.8" r="2.3"/>
  <circle cx="569.4" cy="566.6" r="2.3"/>
  <circle cx="581.7" cy="566.4" r="2.3"/>
  <circle cx="594.0" cy="563.5" r="2.3"/>
  <circle cx="606.2" cy="565.6" r="2.3"/>
  <circle cx="618.5" cy="565.2" r="2.3"/>
  <circle cx="630.8" cy="566.5" r="2.3"/>
  <circle cx="643.1" cy="575.3" r="2.3"/>
  <circle cx="667.7" cy="574.9" r="2.3"/>
  <circle cx="679.9" cy="572.2" r="2.3"/>
  <circle cx="692.2" cy="571.6" r="2.3"/>
  <circle cx="704.5" cy="568.5" r="2.3"/>
  <circle cx="716.8" cy="571.4" r="2.3"/>
  <circle cx="729.1" cy="571.2" r="2.3"/>
  <circle cx="741.4" cy="572.6" r="2.3"/>
  <circle cx="753.7" cy="577.9" r="2.3"/>
  <circle cx="765.9" cy="578.3" r="2.3"/>
  <circle cx="790.5" cy="576.6" r="2.3"/>
  <circle cx="802.8" cy="573.6" r="2.3"/>
  <circle cx="815.1" cy="573.0" r="2.3"/>
  <circle cx="827.4" cy="578.5" r="2.3"/>
  <circle cx="839.6" cy="579.4" r="2.3"/>
  <circle cx="851.9" cy="577.0" r="2.3"/>
  <circle cx="864.2" cy="580.7" r="2.3"/>
  <circle cx="876.5" cy="581.8" r="2.3"/>
  <circle cx="888.8" cy="579.8" r="2.3"/>
</g>
<g class="pl" fill="#FFF" stroke="#66C2A5" stroke-width="0.900">
  <circle cx="286.9" cy="586.6" r="5.4"/>
  <circle cx="409.7" cy="584.9" r="5.4"/>
  <circle cx="532.5" cy="571.7" r="5.4"/>
  <circle cx="655.4" cy="576.5" r="5.4"/>
  <circle cx="778.2" cy="575.9" r="5.4"/>
  <circle cx="901.1" cy="579.9" r="5.4"/>
</g>
<polyline class="pl" points="225.4,587.2 237.7,587.2 250.0,587.2 262.3,587.2 274.6,587.2 286.9,587.2 299.1,587.2 311.4,587.2 323.7,587.2 336.0,587.2 348.3,587.2 360.6,587.2 372.9,587.2 385.1,587.2 397.4,587.2 409.7,587.2 422.0,587.2 434.3,587.2 446.6,587.2 458.8,587.2 471.1,587.2 483.4,587.2 495.7,587.2 508.0,587.2 520.3,587.2 532.5,587.2 544.8,587.2 557.1,587.2 569.4,587.2 581.7,587.2 594.0,587.2 606.2,587.2 618.5,587.2 630.8,587.2 643.1,587.2 655.4,587.2 667.7,587.2 679.9,587.2 692.2,587.2 704.5,587.2 716.8,587.2 729.1,587.2 741.4,587.2 753.7,587.2 765.9,587.2 778.2,587.2 790.5,587.2 802.8,587.2 815.1,587.0 827.4,587.0 839.6,587.0 851.9,587.0 864.2,587.0 876.5,586.1 888.8,586.1 901.1,586.1" stroke="#E5C494" stroke-width="5.40" stroke-opacity="1.00" fill="none" clip-path="url(#axis_clip)"/>
<g class="pl" fill="#FFF" stroke="#E5C494" stroke-width="0.900">
  <circle cx="225.4" cy="587.2" r="2.3"/>
  <circle cx="237.7" cy="587.2" r="2.3"/>
  <circle cx="250.0" cy="587.2" r="2.3"/>
  <circle cx="262.3" cy="587.2" r="2.3"/>
  <circle cx="274.6" cy="587.2" r="2.3"/>
  <circle cx="299.1" cy="587.2" r="2.3"/>
  <circle cx="311.4" cy="587.2" r="2.3"/>
  <circle cx="323.7" cy="587.2" r="2.3"/>
  <circle cx="336.0" cy="587.2" r="2.3"/>
  <circle cx="348.3" cy="587.2" r="2.3"/>
  <circle cx="360.6" cy="587.2" r="2.3"/>
  <circle cx="372.9" cy="587.2" r="2.3"/>
  <circle cx="385.1" cy="587.2" r="2.3"/>
  <circle cx="397.4" cy="587.2" r="2.3"/>
  <circle cx="422.0" cy="587.2" r="2.3"/>
  <circle cx="434.3" cy="587.2" r="2.3"/>
  <circle cx="446.6" cy="587.2" r="2.3"/>
  <circle cx="458.8" cy="587.2" r="2.3"/>
  <circle cx="471.1" cy="587.2" r="2.3"/>
  <circle cx="483.4" cy="587.2" r="2.3"/>
  <circle cx="495.7" cy="587.2" r="2.3"/>
  <circle cx="508.0" cy="587.2" r="2.3"/>
  <circle cx="520.3" cy="587.2" r="2.3"/>
  <circle cx="544.8" cy="587.2" r="2.3"/>
  <circle cx="557.1" cy="587.2" r="2.3"/>
  <circle cx="569.4" cy="587.2" r="2.3"/>
  <circle cx="581.7" cy="587.2" r="2.3"/>
  <circle cx="594.0" cy="587.2" r="2.3"/>
  <circle cx="606.2" cy="587.2" r="2.3"/>
  <circle cx="618.5" cy="587.2" r="2.3"/>
  <circle cx="630.8" cy="587.2" r="2.3"/>
  <circle cx="643.1" cy="587.2" r="2.3"/>
  <circle cx="667.7" cy="587.2" r="2.3"/>
  <circle cx="679.9" cy="587.2" r="2.3"/>
  <circle cx="692.2" cy="587.2" r="2.3"/>
  <circle cx="704.5" cy="587.2" r="2.3"/>
  <circle cx="716.8" cy="587.2" r="2.3"/>
  <circle cx="729.1" cy="587.2" r="2.3"/>
  <circle cx="741.4" cy="587.2" r="2.3"/>
  <circle cx="753.7" cy="587.2" r="2.3"/>
  <circle cx="765.9" cy="587.2" r="2.3"/>
  <circle cx="790.5" cy="587.2" r="2.3"/>
  <circle cx="802.8" cy="587.2" r="2.3"/>
  <circle cx="815.1" cy="587.0" r="2.3"/>
  <circle cx="827.4" cy="587.0" r="2.3"/>
  <circle cx="839.6" cy="587.0" r="2.3"/>
  <circle cx="851.9" cy="587.0" r="2.3"/>
  <circle cx="864.2" cy="587.0" r="2.3"/>
  <circle cx="876.5" cy="586.1" r="2.3"/>
  <circle cx="888.8" cy="586.1" r="2.3"/>
</g>
<g class="pl" fill="#FFF" stroke="#E5C494" stroke-width="0.900">
  <circle cx="286.9" cy="587.2" r="5.4"/>
  <circle cx="409.7" cy="587.2" r="5.4"/>
  <circle cx="532.5" cy="587.2" r="5.4"/>
  <circle cx="655.4" cy="587.2" r="5.4"/>
  <circle cx="778.2" cy="587.2" r="5.4"/>
  <circle cx="901.1" cy="586.1" r="5.4"/>
</g>
<polyline class="pl" points="225.4,587.2 237.7,587.2 250.0,587.2 262.3,587.2 274.6,587.2 286.9,587.2 299.1,587.2 311.4,587.2 323.7,587.2 336.0,587.2 348.3,587.2 360.6,587.2 372.9,587.2 385.1,587.2 397.4,587.2 409.7,587.2 422.0,587.2 434.3,587.2 446.6,587.2 458.8,587.2 471.1,587.2 483.4,587.2 495.7,587.2 508.0,587.2 520.3,587.2 532.5,587.2 544.8,587.2 557.1,587.2 569.4,587.2 581.7,587.2 594.0,587.2 606.2,587.2 618.5,587.2 630.8,587.2 643.1,587.2 655.4,587.2 667.7,587.2 679.9,587.2 692.2,587.2 704.5,587.2 716.8,587.2 729.1,587.2 741.4,587.2 753.7,587.2 765.9,587.2 778.2,587.2 790.5,587.2 802.8,587.2 815.1,587.2 827.4,587.2 839.6,587.2 851.9,587.2 864.2,587.2 876.5,587.2 888.8,587.2 901.1,587.2" stroke="#FFD92F" stroke-width="5.40" stroke-opacity="1.00" fill="none" clip-path="url(#axis_clip)"/>
<g class="pl" fill="#FFF" stroke="#FFD92F" stroke-width="0.900">
  <circle cx="225.4" cy="587.2" r="2.3"/>
  <circle cx="237.7" cy="587.2" r="2.3"/>
  <circle cx="250.0" cy="587.2" r="2.3"/>
  <circle cx="262.3" cy="587.2" r="2.3"/>
  <circle cx="274.6" cy="587.2" r="2.3"/>
  <circle cx="299.1" cy="587.2" r="2.3"/>
  <circle cx="311.4" cy="587.2" r="2.3"/>
  <circle cx="323.7" cy="587.2" r="2.3"/>
  <circle cx="336.0" cy="587.2" r="2.3"/>
  <circle cx="348.3" cy="587.2" r="2.3"/>
  <circle cx="360.6" cy="587.2" r="2.3"/>
  <circle cx="372.9" cy="587.2" r="2.3"/>
  <circle cx="385.1" cy="587.2" r="2.3"/>
  <circle cx="397.4" cy="587.2" r="2.3"/>
  <circle cx="422.0" cy="587.2" r="2.3"/>
  <circle cx="434.3" cy="587.2" r="2.3"/>
  <circle cx="446.6" cy="587.2" r="2.3"/>
  <circle cx="458.8" cy="587.2" r="2.3"/>
  <circle cx="471.1" cy="587.2" r="2.3"/>
  <circle cx="483.4" cy="587.2" r="2.3"/>
  <circle cx="495.7" cy="587.2" r="2.3"/>
  <circle cx="508.0" cy="587.2" r="2.3"/>
  <circle cx="520.3" cy="587.2" r="2.3"/>
  <circle cx="544.8" cy="587.2" r="2.3"/>
  <circle cx="557.1" cy="587.2" r="2.3"/>
  <circle cx="569.4" cy="587.2" r="2.3"/>
  <circle cx="581.7" cy="587.2" r="2.3"/>
  <circle cx="594.0" cy="587.2" r="2.3"/>
  <circle cx="606.2" cy="587.2" r="2.3"/>
  <circle cx="618.5" cy="587.2" r="2.3"/>
  <circle cx="630.8" cy="587.2" r="2.3"/>
  <circle cx="643.1" cy="587.2" r="2.3"/>
  <circle cx="667.7" cy="587.2" r="2.3"/>
  <circle cx="679.9" cy="587.2" r="2.3"/>
  <circle cx="692.2" cy="587.2" r="2.3"/>
  <circle cx="704.5" cy="587.2" r="2.3"/>
  <circle cx="716.8" cy="587.2" r="2.3"/>
  <circle cx="729.1" cy="587.2" r="2.3"/>
  <circle cx="741.4" cy="587.2" r="2.3"/>
  <circle cx="753.7" cy="587.2" r="2.3"/>
  <circle cx="765.9" cy="587.2" r="2.3"/>
  <circle cx="790.5" cy="587.2" r="2.3"/>
  <circle cx="802.8" cy="587.2" r="2.3"/>
  <circle cx="815.1" cy="587.2" r="2.3"/>
  <circle cx="827.4" cy="587.2" r="2.3"/>
  <circle cx="839.6" cy="587.2" r="2.3"/>
  <circle cx="851.9" cy="587.2" r="2.3"/>
  <circle cx="864.2" cy="587.2" r="2.3"/>
  <circle cx="876.5" cy="587.2" r="2.3"/>
  <circle cx="888.8" cy="587.2" r="2.3"/>
</g>
<g class="pl" fill="#FFF" stroke="#FFD92F" stroke-width="0.900">
  <circle cx="286.9" cy="587.2" r="5.4"/>
  <circle cx="409.7" cy="587.2" r="5.4"/>
  <circle cx="532.5" cy="587.2" r="5.4"/>
  <circle cx="655.4" cy="587.2" r="5.4"/>
  <circle cx="778.2" cy="587.2" r="5.4"/>
  <circle cx="901.1" cy="587.2" r="5.4"/>
</g>
<polyline class="pl" points="225.4,581.5 237.7,580.3 250.0,581.7 262.3,581.6 274.6,578.5 286.9,578.3 299.1,576.6 311.4,576.5 323.7,576.8 336.0,577.6 348.3,572.4 360.6,566.6 372.9,573.8 385.1,573.3 397.4,567.2 409.7,572.6 422.0,580.1 434.3,579.4 446.6,581.8 458.8,580.5 471.1,577.5 483.4,569.5 495.7,544.4 508.0,523.4 520.3,513.7 532.5,541.8 544.8,567.3 557.1,561.3 569.4,558.1 581.7,551.0 594.0,551.0 606.2,550.3 618.5,552.4 630.8,553.6 643.1,550.9 655.4,551.3 667.7,555.7 679.9,560.3 692.2,569.4 704.5,575.8 716.8,570.7 729.1,570.7 741.4,532.7 753.7,509.7 765.9,505.0 778.2,501.6 790.5,511.6 802.8,511.1 815.1,502.3 827.4,496.8 839.6,499.6 851.9,468.5 864.2,450.1 876.5,412.0 888.8,353.3 901.1,337.7" stroke="#6298C6" stroke-width="5.40" stroke-opacity="1.00" fill="none" clip-path="url(#axis_clip)"/>
<g class="pl" fill="#FFF" stroke="#6298C6" stroke-width="0.900">
  <circle cx="225.4" cy="581.5" r="2.3"/>
  <circle cx="237.7" cy="580.3" r="2.3"/>
  <circle cx="250.0" cy="581.7" r="2.3"/>
  <circle cx="262.3" cy="581.6" r="2.3"/>
  <circle cx="274.6" cy="578.5" r="2.3"/>
  <circle cx="299.1" cy="576.6" r="2.3"/>
  <circle cx="311.4" cy="576.5" r="2.3"/>
  <circle cx="323.7" cy="576.8" r="2.3"/>
  <circle cx="336.0" cy="577.6" r="2.3"/>
  <circle cx="348.3" cy="572.4" r="2.3"/>
  <circle cx="360.6" cy="566.6" r="2.3"/>
  <circle cx="372.9" cy="573.8" r="2.3"/>
  <circle cx="385.1" cy="573.3" r="2.3"/>
  <circle cx="397.4" cy="567.2" r="2.3"/>
  <circle cx="422.0" cy="580.1" r="2.3"/>
  <circle cx="434.3" cy="579.4" r="2.3"/>
  <circle cx="446.6" cy="581.8" r="2.3"/>
  <circle cx="458.8" cy="580.5" r="2.3"/>
  <circle cx="471.1" cy="577.5" r="2.3"/>
  <circle cx="483.4" cy="569.5" r="2.3"/>
  <circle cx="495.7" cy="544.4" r="2.3"/>
  <circle cx="508.0" cy="523.4" r="2.3"/>
  <circle cx="520.3" cy="513.7" r="2.3"/>
  <circle cx="544.8" cy="567.3" r="2.3"/>
  <circle cx="557.1" cy="561.3" r="2.3"/>
  <circle cx="569.4" cy="558.1" r="2.3"/>
  <circle cx="581.7" cy="551.0" r="2.3"/>
  <circle cx="594.0" cy="551.0" r="2.3"/>
  <circle cx="606.2" cy="550.3" r="2.3"/>
  <circle cx="618.5" cy="552.4" r="2.3"/>
  <circle cx="630.8" cy="553.6" r="2.3"/>
  <circle cx="643.1" cy="550.9" r="2.3"/>
  <circle cx="667.7" cy="555.7" r="2.3"/>
  <circle cx="679.9" cy="560.3" r="2.3"/>
  <circle cx="692.2" cy="569.4" r="2.3"/>
  <circle cx="704.5" cy="575.8" r="2.3"/>
  <circle cx="716.8" cy="570.7" r="2.3"/>
  <circle cx="729.1" cy="570.7" r="2.3"/>
  <circle cx="741.4" cy="532.7" r="2.3"/>
  <circle cx="753.7" cy="509.7" r="2.3"/>
  <circle cx="765.9" cy="505.0" r="2.3"/>
  <circle cx="790.5" cy="511.6" r="2.3"/>
  <circle cx="802.8" cy="511.1" r="2.3"/>
  <circle cx="815.1" cy="502.3" r="2.3"/>
  <circle cx="827.4" cy="496.8" r="2.3"/>
  <circle cx="839.6" cy="499.6" r="2.3"/>
  <circle cx="851.9" cy="468.5" r="2.3"/>
  <circle cx="864.2" cy="450.1" r="2.3"/>
  <circle cx="876.5" cy="412.0" r="2.3"/>
  <circle cx="888.8" cy="353.3" r="2.3"/>
</g>
<g class="pl" fill="#FFF" stroke="#6298C6" stroke-width="0.900">
  <circle cx="286.9" cy="578.3" r="5.4"/>
  <circle cx="409.7" cy="572.6" r="5.4"/>
  <circle cx="532.5" cy="541.8" r="5.4"/>
  <circle cx="655.4" cy="551.3" r="5.4"/>
  <circle cx="778.2" cy="501.6" r="5.4"/>
  <circle cx="901.1" cy="337.7" r="5.4"/>
</g>
<polyline class="pl" points="225.4,568.7 237.7,567.1 250.0,565.5 262.3,563.7 274.6,561.8 286.9,552.8 299.1,550.4 311.4,541.6 323.7,543.0 336.0,543.3 348.3,543.3 360.6,532.4 372.9,523.2 385.1,527.1 397.4,514.8 409.7,490.1 422.0,483.0 434.3,478.6 446.6,463.6 458.8,452.3 471.1,429.1 483.4,418.5 495.7,412.4 508.0,395.9 520.3,373.8 532.5,374.3 544.8,430.2 557.1,340.8 569.4,243.8 581.7,194.2 594.0,205.2 606.2,187.3 618.5,107.0 630.8,264.6 643.1,352.5 655.4,274.4 667.7,226.5 679.9,247.0 692.2,266.9 704.5,239.8 716.8,257.6 729.1,250.1 741.4,264.5 753.7,268.0 765.9,224.8 778.2,200.9 790.5,161.4 802.8,132.9 815.1,100.1 827.4,124.5 839.6,121.4 851.9,72.2 864.2,95.4 876.5,102.7 888.8,97.8 901.1,157.7" stroke="#404040" stroke-width="5.40" stroke-opacity="1.00" fill="none" clip-path="url(#axis_clip)"/>
<g class="pl" fill="#FFF" stroke="#404040" stroke-width="0.900">
  <circle cx="225.4" cy="568.7" r="2.3"/>
  <circle cx="237.7" cy="567.1" r="2.3"/>
  <circle cx="250.0" cy="565.5" r="2.3"/>
  <circle cx="262.3" cy="563.7" r="2.3"/>
  <circle cx="274.6" cy="561.8" r="2.3"/>
  <circle cx="299.1" cy="550.4" r="2.3"/>
  <circle cx="311.4" cy="541.6" r="2.3"/>
  <circle cx="323.7" cy="543.0" r="2.3"/>
  <circle cx="336.0" cy="543.3" r="2.3"/>
  <circle cx="348.3" cy="543.3" r="2.3"/>
  <circle cx="360.6" cy="532.4" r="2.3"/>
  <circle cx="372.9" cy="523.2" r="2.3"/>
  <circle cx="385.1" cy="527.1" r="2.3"/>
  <circle cx="397.4" cy="514.8" r="2.3"/>
  <circle cx="422.0" cy="483.0" r="2.3"/>
  <circle cx="434.3" cy="478.6" r="2.3"/>
  <circle cx="446.6" cy="463.6" r="2.3"/>
  <circle cx="458.8" cy="452.3" r="2.3"/>
  <circle cx="471.1" cy="429.1" r="2.3"/>
  <circle cx="483.4" cy="418.5" r="2.3"/>
  <circle cx="495.7" cy="412.4" r="2.3"/>
  <circle cx="508.0" cy="395.9" r="2.3"/>
  <circle cx="520.3" cy="373.8" r="2.3"/>
  <circle cx="544.8" cy="430.2" r="2.3"/>
  <circle cx="557.1" cy="340.8" r="2.3"/>
  <circle cx="569.4" cy="243.8" r="2.3"/>
  <circle cx="581.7" cy="194.2" r="2.3"/>
  <circle cx="594.0" cy="205.2" r="2.3"/>
  <circle cx="606.2" cy="187.3" r="2.3"/>
  <circle cx="618.5" cy="107.0" r="2.3"/>
  <circle cx="630.8" cy="264.6" r="2.3"/>
  <circle cx="643.1" cy="352.5" r="2.3"/>
  <circle cx="667.7" cy="226.5" r="2.3"/>
  <circle cx="679.9" cy="247.0" r="2.3"/>
  <circle cx="692.2" cy="266.9" r="2.3"/>
  <circle cx="704.5" cy="239.8" r="2.3"/>
  <circle cx="716.8" cy="257.6" r="2.3"/>
  <circle cx="729.1" cy="250.1" r="2.3"/>
  <circle cx="741.4" cy="264.5" r="2.3"/>
  <circle cx="753.7" cy="268.0" r="2.3"/>
  <circle cx="765.9" cy="224.8" r="2.3"/>
  <circle cx="790.5" cy="161.4" r="2.3"/>
  <circle cx="802.8" cy="132.9" r="2.3"/>
  <circle cx="815.1" cy="100.1" r="2.3"/>
  <circle cx="827.4" cy="124.5" r="2.3"/>
  <circle cx="839.6" cy="121.4" r="2.3"/>
  <circle cx="851.9" cy="72.2" r="2.3"/>
  <circle cx="864.2" cy="95.4" r="2.3"/>
  <circle cx="876.5" cy="102.7" r="2.3"/>
  <circle cx="888.8" cy="97.8" r="2.3"/>
</g>
<g class="pl" fill="#FFF" stroke="#404040" stroke-width="0.900">
  <circle cx="286.9" cy="552.8" r="5.4"/>
  <circle cx="409.7" cy="490.1" r="5.4"/>
  <circle cx="532.5" cy="374.3" r="5.4"/>
  <circle cx="655.4" cy="274.4" r="5.4"/>
  <circle cx="778.2" cy="200.9" r="5.4"/>
  <circle cx="901.1" cy="157.7" r="5.4"/>
</g>
<polyline class="pl" points="225.4,587.2 237.7,587.2 250.0,587.2 262.3,587.2 274.6,587.2 286.9,587.2 299.1,587.2 311.4,587.2 323.7,587.2 336.0,587.2 348.3,587.2 360.6,587.2 372.9,587.2 385.1,587.2 397.4,587.2 409.7,587.2 422.0,587.2 434.3,587.2 446.6,587.2 458.8,587.2 471.1,587.2 483.4,587.2 495.7,587.2 508.0,587.2 520.3,587.2 532.5,587.2 544.8,587.2 557.1,587.2 569.4,587.2 581.7,587.2 594.0,587.2 606.2,587.2 618.5,587.2 630.8,587.2 643.1,587.2 655.4,587.2 667.7,587.2 679.9,587.2 692.2,587.2 704.5,587.2 716.8,587.2 729.1,587.2 741.4,587.2 753.7,587.2 765.9,587.2 778.2,587.2 790.5,587.2 802.8,587.2 815.1,587.2 827.4,587.2 839.6,587.2 851.9,587.2 864.2,587.2 876.5,587.2 888.8,587.2 901.1,587.2" stroke="#7B553E" stroke-width="5.40" stroke-opacity="1.00" fill="none" clip-path="url(#axis_clip)"/>
<g class="pl" fill="#FFF" stroke="#7B553E" stroke-width="0.900">
  <circle cx="225.4" cy="587.2" r="2.3"/>
  <circle cx="237.7" cy="587.2" r="2.3"/>
  <circle cx="250.0" cy="587.2" r="2.3"/>
  <circle cx="262.3" cy="587.2" r="2.3"/>
  <circle cx="274.6" cy="587.2" r="2.3"/>
  <circle cx="299.1" cy="587.2" r="2.3"/>
  <circle cx="311.4" cy="587.2" r="2.3"/>
  <circle cx="323.7" cy="587.2" r="2.3"/>
  <circle cx="336.0" cy="587.2" r="2.3"/>
  <circle cx="348.3" cy="587.2" r="2.3"/>
  <circle cx="360.6" cy="587.2" r="2.3"/>
  <circle cx="372.9" cy="587.2" r="2.3"/>
  <circle cx="385.1" cy="587.2" r="2.3"/>
  <circle cx="397.4" cy="587.2" r="2.3"/>
  <circle cx="422.0" cy="587.2" r="2.3"/>
  <circle cx="434.3" cy="587.2" r="2.3"/>
  <circle cx="446.6" cy="587.2" r="2.3"/>
  <circle cx="458.8" cy="587.2" r="2.3"/>
  <circle cx="471.1" cy="587.2" r="2.3"/>
  <circle cx="483.4" cy="587.2" r="2.3"/>
  <circle cx="495.7" cy="587.2" r="2.3"/>
  <circle cx="508.0" cy="587.2" r="2.3"/>
  <circle cx="520.3" cy="587.2" r="2.3"/>
  <circle cx="544.8" cy="587.2" r="2.3"/>
  <circle cx="557.1" cy="587.2" r="2.3"/>
  <circle cx="569.4" cy="587.2" r="2.3"/>
  <circle cx="581.7" cy="587.2" r="2.3"/>
  <circle cx="594.0" cy="587.2" r="2.3"/>
  <circle cx="606.2" cy="587.2" r="2.3"/>
  <circle cx="618.5" cy="587.2" r="2.3"/>
  <circle cx="630.8" cy="587.2" r="2.3"/>
  <circle cx="643.1" cy="587.2" r="2.3"/>
  <circle cx="667.7" cy="587.2" r="2.3"/>
  <circle cx="679.9" cy="587.2" r="2.3"/>
  <circle cx="692.2" cy="587.2" r="2.3"/>
  <circle cx="704.5" cy="587.2" r="2.3"/>
  <circle cx="716.8" cy="587.2" r="2.3"/>
  <circle cx="729.1" cy="587.2" r="2.3"/>
  <circle cx="741.4" cy="587.2" r="2.3"/>
  <circle cx="753.7" cy="587.2" r="2.3"/>
  <circle cx="765.9" cy="587.2" r="2.3"/>
  <circle cx="790.5" cy="587.2" r="2.3"/>
  <circle cx="802.8" cy="587.2" r="2.3"/>
  <circle cx="815.1" cy="587.2" r="2.3"/>
  <circle cx="827.4" cy="587.2" r="2.3"/>
  <circle cx="839.6" cy="587.2" r="2.3"/>
  <circle cx="851.9" cy="587.2" r="2.3"/>
  <circle cx="864.2" cy="587.2" r="2.3"/>
  <circle cx="876.5" cy="587.2" r="2.3"/>
  <circle cx="888.8" cy="587.2" r="2.3"/>
</g>
<g class="pl" fill="#FFF" stroke="#7B553E" stroke-width="0.900">
  <circle cx="286.9" cy="587.2" r="5.4"/>
  <circle cx="409.7" cy="587.2" r="5.4"/>
  <circle cx="532.5" cy="587.2" r="5.4"/>
  <circle cx="655.4" cy="587.2" r="5.4"/>
  <circle cx="778.2" cy="587.2" r="5.4"/>
  <circle cx="901.1" cy="587.2" r="5.4"/>
</g>
<text transform="translate(945.6,483.6)" dy="8.1" font-size="27.00" fill="#FDBF6F" stroke="none">Bioenergy</text>
<text transform="translate(945.6,587.2)" dy="8.1" font-size="27.00" fill="#E78AC3" stroke="none">Other</text>
<text transform="translate(945.6,561.3)" dy="8.1" font-size="27.00" fill="#FC8D62" stroke="none">Nuclear</text>
<text transform="translate(945.6,431.8)" dy="8.1" font-size="27.00" fill="#66C2A5" stroke="none">Hydro</text>
<text transform="translate(945.6,457.7)" dy="8.1" font-size="27.00" fill="#E5C494" stroke="none">Solar</text>
<text transform="translate(945.6,535.4)" dy="8.1" font-size="27.00" fill="#FFD92F" stroke="none">Wind</text>
<text transform="translate(945.6,337.7)" dy="8.1" font-size="27.00" fill="#6298C6" stroke="none">Gas</text>
<text transform="translate(945.6,157.7)" dy="8.1" font-size="27.00" fill="#404040" stroke="none">Oil</text>
<text transform="translate(945.6,509.5)" dy="8.1" font-size="27.00" fill="#7B553E" stroke="none">Coal</text>
<polyline class="pl" points="910.8,586.5 912.4,586.1 913.8,585.1 915.2,583.4 916.4,581.1 917.6,578.4 918.8,575.1 919.8,571.4 920.8,567.3 921.7,562.9 922.7,558.2 923.5,553.3 924.4,548.2 925.2,543.0 926.0,537.7 926.8,532.4 927.6,527.1 928.4,521.8 929.3,516.8 930.1,511.8 931.1,507.1 932.0,502.7 933.0,498.7 934.0,495.0 935.2,491.7 936.4,488.9 937.6,486.6 939.0,485.0 940.4,483.9 942.0,483.6" stroke="#FDBF6F" stroke-width="0.90" stroke-opacity="1.00" fill="none" />
<polyline class="pl" points="910.8,587.2 912.4,587.1 913.8,586.8 915.2,586.4 916.4,585.8 917.6,585.1 918.8,584.3 919.8,583.4 920.8,582.4 921.7,581.2 922.7,580.1 923.5,578.8 924.4,577.5 925.2,576.2 926.0,574.9 926.8,573.6 927.6,572.2 928.4,570.9 929.3,569.6 930.1,568.4 931.1,567.2 932.0,566.1 933.0,565.1 934.0,564.1 935.2,563.3 936.4,562.6 937.6,562.0 939.0,561.6 940.4,561.4 942.0,561.3" stroke="#FC8D62" stroke-width="0.90" stroke-opacity="1.00" fill="none" />
<polyline class="pl" points="910.8,579.9 912.4,579.4 913.8,577.9 915.2,575.5 916.4,572.2 917.6,568.2 918.8,563.5 919.8,558.2 920.8,552.3 921.7,545.9 922.7,539.2 923.5,532.1 924.4,524.8 925.2,517.3 926.0,509.7 926.8,502.0 927.6,494.4 928.4,486.9 929.3,479.5 930.1,472.5 931.1,465.7 932.0,459.4 933.0,453.5 934.0,448.2 935.2,443.4 936.4,439.4 937.6,436.2 939.0,433.8 940.4,432.3 942.0,431.8" stroke="#66C2A5" stroke-width="0.90" stroke-opacity="1.00" fill="none" />
<polyline class="pl" points="910.8,586.1 912.4,585.6 913.8,584.3 915.2,582.2 916.4,579.4 917.6,575.9 918.8,571.8 919.8,567.2 920.8,562.1 921.7,556.6 922.7,550.8 923.5,544.7 924.4,538.3 925.2,531.8 926.0,525.2 926.8,518.5 927.6,511.9 928.4,505.4 929.3,499.1 930.1,492.9 931.1,487.1 932.0,481.6 933.0,476.5 934.0,471.9 935.2,467.8 936.4,464.3 937.6,461.5 939.0,459.4 940.4,458.1 942.0,457.7" stroke="#E5C494" stroke-width="0.90" stroke-opacity="1.00" fill="none" />
<polyline class="pl" points="910.8,587.2 912.4,587.0 913.8,586.5 915.2,585.6 916.4,584.5 917.6,583.1 918.8,581.4 919.8,579.6 920.8,577.5 921.7,575.3 922.7,572.9 923.5,570.5 924.4,567.9 925.2,565.3 926.0,562.6 926.8,559.9 927.6,557.3 928.4,554.6 929.3,552.1 930.1,549.6 931.1,547.2 932.0,545.0 933.0,543.0 934.0,541.1 935.2,539.5 936.4,538.1 937.6,536.9 939.0,536.1 940.4,535.5 942.0,535.4" stroke="#FFD92F" stroke-width="0.90" stroke-opacity="1.00" fill="none" />
<polyline class="pl" points="910.8,587.2 912.4,586.9 913.8,586.1 915.2,584.9 916.4,583.1 917.6,581.0 918.8,578.6 919.8,575.8 920.8,572.7 921.7,569.4 922.7,565.8 923.5,562.1 924.4,558.3 925.2,554.3 926.0,550.3 926.8,546.3 927.6,542.3 928.4,538.4 929.3,534.5 930.1,530.8 931.1,527.3 932.0,523.9 933.0,520.9 934.0,518.1 935.2,515.6 936.4,513.5 937.6,511.8 939.0,510.5 940.4,509.7 942.0,509.5" stroke="#7B553E" stroke-width="0.90" stroke-opacity="1.00" fill="none" />
<text transform="translate(1079.5,480.2)" dy="0.0" font-size="14.40" fill="#FDBF6F" stroke="none">excluding</text>
<text transform="translate(1079.5,480.2)" dy="14.4" font-size="14.40" fill="#FDBF6F" stroke="none">liquids</text>
<text transform="translate(145.6,47.2)" dy="0.0" font-size="27.00" fill="#808080" stroke="none">Annual energy consumption Iraq</text>
<text transform="translate(160.2,666.1)" font-size="19.80" fill="#BFBFBF" stroke="none" xml:space="preserve">Global Carbon Project   &#9679;   Data: BP, IEA (bioenergy)</text>
<g class="cc">
  <rect x="123.0" y="651.4" width="34" height="17" fill="#FFF" stroke="none"/>
  <g transform="translate(124.0,652.4) scale(0.24)">
  <g><circle fill="#FFF" cx="37.79" cy="28.5" r="28.84"/>
     <circle fill="none" cx="37.79" cy="28.5" r="28.84" stroke="#000" stroke-width="5.5"/>
     <path d="M37.16,23.19 l-4.29,2.23c-0.458-0.951-1.02-1.62-1.69-2c-0.667-0.38-1.29-0.571-1.86-0.571c-2.86,0-4.29,1.89-4.29,5.66 c0,1.71,0.36,3.08,1.09,4.11c0.724,1.03,1.79,1.54,3.2,1.54c1.87,0,3.18-0.915,3.94-2.74l3.94,2 c-0.838,1.56-2,2.79-3.49,3.69c-1.48,0.896-3.12,1.34-4.91,1.34c-2.86,0-5.16-0.875-6.92-2.63 c-1.75-1.75-2.63-4.19-2.63-7.31c0-3.05,0.886-5.47,2.66-7.26c1.77-1.79,4.01-2.69,6.72-2.69 C32.6,18.56,35.44,20.1,37.16,23.19z
              M55.61,23.19l-4.23,2.23c-0.457-0.951-1.02-1.62-1.69-2 c-0.668-0.38-1.31-0.571-1.91-0.571c-2.86,0-4.29,1.89-4.29,5.66c0,1.71,0.363,3.08,1.09,4.11 c0.723,1.03,1.79,1.54,3.2,1.54c1.87,0,3.18-0.915,3.94-2.74l4,2c-0.875,1.56-2.06,2.79-3.54,3.69 c-1.49,0.9-3.11,1.34-4.86,1.34c-2.9,0-5.21-0.875-6.94-2.63c-1.74-1.75-2.6-4.19-2.6-7.31 c0-3.05,0.885-5.47,2.66-7.26c1.77-1.79,4.01-2.69,6.71-2.69C51.12,18.56,53.944,20.1,55.61,23.19z"/>
  </g></g>
  <g transform="translate(140.2,652.4) scale(0.24)">
  <g><circle fill="#FFF" cx="37.79" cy="28.5" r="28.84"/>
     <circle fill="none" cx="37.79" cy="28.5" r="28.84" stroke="#000" stroke-width="5.5"/>
     <path d="M46.129,20.557v13.085h-3.656v15.542h-9.944V33.643h-3.656V20.557 c0-0.572,0.2-1.057,0.599-1.457c0.401-0.399,0.887-0.6,1.457-0.6h13.144c0.533,0,1.01,0.2,1.428,0.6 C45.918,19.5,46.129,19.986,46.129,20.557z
              M33.042,12.329c0-3.008,1.485-4.514,4.458-4.514s4.457,1.504,4.457,4.514 c0,2.971-1.486,4.457-4.457,4.457S33.042,15.3,33.042,12.329z"/>
  </g></g>
</g>
</g>
</svg>
