<svg version="1.1" xmlns="http://www.w3.org/2000/svg" xmlns:xlink="http://www.w3.org/1999/xlink" width="100%" height="100%" viewBox="0 0 1200.000 674.916">
<title>Annual energy consumption per capita South Africa</title>
<style type="text/css">
  #main {font-family:Helvetica,Arial,sans-serif; font-size:27.00px;
         fill-opacity:1; fill:#000000; stroke:none; stroke-linejoin:round; stroke-linecap:round; stroke-width:1.00;}
  .marker {stroke-opacity:0;fill-opacity:0;}
  .marker:hover {stroke-opacity:0.5; fill-opacity:1;}
  .ticklabel {font-size:27.00px;fill:#808080;stroke:none}
  .ytl {text-anchor:end;}
  .xtl {text-anchor:middle;}
  .dp1 {pointer-events:none;font-size:70%;text-anchor:middle;fill:#000000;}
  .dp2 {pointer-events:none;font-size:70%;text-anchor:middle;fill:#FFFFFF;}
  .numtip {pointer-events:none;}
  .cc {opacity:0.25;}
.dl_fe {background-color:#FDFFDF;display:flex;margin:auto;align-items:center}
.dl_fe_p {font-size:20px;text-align:center;margin:3px}
.dl_el {display:none;pointer-events:none;}
.cc:hover + .dl_el {display:block;}
text:hover + .dl_el {display:block;}
</style>
<defs>
  <clipPath id="axis_clip"><rect x="145.8" y="54.2" width="761.2" height="532.8" /></clipPath>
  <path id="line_x" d="M 145.600,0 h 761.600" stroke="#262626" stroke-opacity="0.15" stroke-width="1.00"/>
  <path id="tick_y" d="M 145.600,0 h -6.000" stroke="#808080" stroke-width="0.90"/>
  <path id="tick_x" d="M 0,587.177 v 6.000" stroke="#808080" stroke-width="0.90"/>
</defs>
<g id="main">
<use xlink:href="#line_x" transform="translate(0,587.2)"/>
<use xlink:href="#line_x" transform="translate(0,468.7)"/>
<use xlink:href="#line_x" transform="translate(0,350.2)"/>
<use xlink:href="#line_x" transform="translate(0,231.7)"/>
<use xlink:href="#line_x" transform="translate(0,113.2)"/>
<use xlink:href="#tick_y" transform="translate(0,587.2)"/>
<use xlink:href="#tick_y" transform="translate(0,468.7)"/>
<use xlink:href="#tick_y" transform="translate(0,350.2)"/>
<use xlink:href="#tick_y" transform="translate(0,231.7)"/>
<use xlink:href="#tick_y" transform="translate(0,113.2)"/>
<use xlink:href="#tick_x" transform="translate(164.0,0)"/>
<use xlink:href="#tick_x" transform="translate(286.9,0)"/>
<use xlink:href="#tick_x" transform="translate(409.7,0)"/>
<use xlink:href="#tick_x" transform="translate(532.5,0)"/>
<use xlink:href="#tick_x" transform="translate(655.4,0)"/>
<use xlink:href="#tick_x" transform="translate(778.2,0)"/>
<use xlink:href="#tick_x" transform="translate(901.1,0)"/>
<polyline points="145.6,53.993 145.6,587.177 907.2,587.177" stroke="#808080" stroke-width="0.90" fill="none"/>
<text class="ticklabel xtl" transform="translate(164.0,629.0)">1960</text>
<text class="ticklabel xtl" transform="translate(286.9,629.0)">1970</text>
<text class="ticklabel xtl" transform="translate(409.7,629.0)">1980</text>
<text class="ticklabel xtl" transform="translate(532.5,629.0)">1990</text>
<text class="ticklabel xtl" transform="translate(655.4,629.0)">2000</text>
<text class="ticklabel xtl" transform="translate(778.2,629.0)">2010</text>
<text class="ticklabel xtl" transform="translate(901.1,629.0)">2020</text>
<text class="ticklabel ytl" transform="translate(128.8,595.3)">0</text>
<text class="ticklabel ytl" transform="translate(128.8,476.8)">20</text>
<text class="ticklabel ytl" transform="translate(128.8,358.3)">40</text>
<text class="ticklabel ytl" transform="translate(128.8,239.8)">60</text>
<text class="ticklabel ytl" transform="translate(128.8,121.3)">80 GJ</text>
<polyline class="pl" points="299.1,535.7 311.4,534.6 323.7,533.9 336.0,532.1 348.3,528.3 360.6,531.7 372.9,533.3 385.1,533.7 397.4,533.1 409.7,532.4 422.0,528.2 434.3,527.6 446.6,528.1 458.8,523.5 471.1,524.3 483.4,524.7 495.7,521.9 508.0,519.8 520.3,516.8 532.5,517.0 544.8,517.3 557.1,517.9 569.4,518.4 581.7,518.7 594.0,518.7 606.2,518.9 618.5,519.0 630.8,518.8 643.1,519.6 655.4,528.3 667.7,531.3 679.9,535.3 692.2,536.0 704.5,537.0 716.8,542.1 729.1,544.2 741.4,543.9 753.7,539.0 765.9,540.4 778.2,543.2 790.5,545.0 802.8,547.3 815.1,549.6 827.4,551.3 839.6,552.1 851.9,553.1 864.2,552.7 876.5,554.3 888.8,554.2 901.1,556.5" stroke="#FDBF6F" stroke-width="5.40" stroke-opacity="1.00" fill="none" clip-path="url(#axis_clip)"/>
<g class="pl" fill="#FFF" stroke="#FDBF6F" stroke-width="0.900">
  <circle cx="299.1" cy="535.7" r="2.3"/>
  <circle cx="311.4" cy="534.6" r="2.3"/>
  <circle cx="323.7" cy="533.9" r="2.3"/>
  <circle cx="336.0" cy="532.1" r="2.3"/>
  <circle cx="348.3" cy="528.3" r="2.3"/>
  <circle cx="360.6" cy="531.7" r="2.3"/>
  <circle cx="372.9" cy="533.3" r="2.3"/>
  <circle cx="385.1" cy="533.7" r="2.3"/>
  <circle cx="397.4" cy="533.1" r="2.3"/>
  <circle cx="422.0" cy="528.2" r="2.3"/>
  <circle cx="434.3" cy="527.6" r="2.3"/>
  <circle cx="446.6" cy="528.1" r="2.3"/>
  <circle cx="458.8" cy="523.5" r="2.3"/>
  <circle cx="471.1" cy="524.3" r="2.3"/>
  <circle cx="483.4" cy="524.7" r="2.3"/>
  <circle cx="495.7" cy="521.9" r="2.3"/>
  <circle cx="508.0" cy="519.8" r="2.3"/>
  <circle cx="520.3" cy="516.8" r="2.3"/>
  <circle cx="544.8" cy="517.3" r="2.3"/>
  <circle cx="557.1" cy="517.9" r="2.3"/>
  <circle cx="569.4" cy="518.4" r="2.3"/>
  <circle cx="581.7" cy="518.7" r="2.3"/>
  <circle cx="594.0" cy="518.7" r="2.3"/>
  <circle cx="606.2" cy="518.9" r="2.3"/>
  <circle cx="618.5" cy="519.0" r="2.3"/>
  <circle cx="630.8" cy="518.8" r="2.3"/>
  <circle cx="643.1" cy="519.6" r="2.3"/>
  <circle cx="667.7" cy="531.3" r="2.3"/>
  <circle cx="679.9" cy="535.3" r="2.3"/>
  <circle cx="692.2" cy="536.0" r="2.3"/>
  <circle cx="704.5" cy="537.0" r="2.3"/>
  <circle cx="716.8" cy="542.1" r="2.3"/>
  <circle cx="729.1" cy="544.2" r="2.3"/>
  <circle cx="741.4" cy="543.9" r="2.3"/>
  <circle cx="753.7" cy="539.0" r="2.3"/>
  <circle cx="765.9" cy="540.4" r="2.3"/>
  <circle cx="790.5" cy="545.0" r="2.3"/>
  <circle cx="802.8" cy="547.3" r="2.3"/>
  <circle cx="815.1" cy="549.6" r="2.3"/>
  <circle cx="827.4" cy="551.3" r="2.3"/>
  <circle cx="839.6" cy="552.1" r="2.3"/>
  <circle cx="851.9" cy="553.1" r="2.3"/>
  <circle cx="864.2" cy="552.7" r="2.3"/>
  <circle cx="876.5" cy="554.3" r="2.3"/>
  <circle cx="888.8" cy="554.2" r="2.3"/>
</g>
<g class="pl" fill="#FFF" stroke="#FDBF6F" stroke-width="0.900">
  <circle cx="409.7" cy="532.4" r="5.4"/>
  <circle cx="532.5" cy="517.0" r="5.4"/>
  <circle cx="655.4" cy="528.3" r="5.4"/>
  <circle cx="778.2" cy="543.2" r="5.4"/>
  <circle cx="901.1" cy="556.5" r="5.4"/>
</g>
<polyline class="pl" points="225.4,587.2 237.7,587.2 250.0,587.2 262.3,587.2 274.6,587.2 286.9,587.2 299.1,587.2 311.4,587.2 323.7,587.2 336.0,587.2 348.3,587.2 360.6,587.2 372.9,587.2 385.1,587.2 397.4,587.2 409.7,587.2 422.0,587.2 434.3,587.2 446.6,587.2 458.8,587.2 471.1,587.2 483.4,587.2 495.7,587.2 508.0,587.2 520.3,587.2 532.5,587.2 544.8,587.2 557.1,587.2 569.4,587.2 581.7,587.2 594.0,587.2 606.2,587.1 618.5,587.0 630.8,586.9 643.1,586.9 655.4,586.5 667.7,586.6 679.9,586.6 692.2,586.7 704.5,586.7 716.8,586.7 729.1,586.7 741.4,586.7 753.7,586.7 765.9,586.7 778.2,586.7 790.5,586.7 802.8,586.7 815.1,586.7 827.4,586.7 839.6,586.8 851.9,586.8 864.2,586.7 876.5,586.8 888.8,586.8 901.1,586.8" stroke="#E78AC3" stroke-width="5.40" stroke-opacity="1.00" fill="none" clip-path="url(#axis_clip)"/>
<g class="pl" fill="#FFF" stroke="#E78AC3" stroke-width="0.900">
  <circle cx="225.4" cy="587.2" r="2.3"/>
  <circle cx="237.7" cy="587.2" r="2.3"/>
  <circle cx="250.0" cy="587.2" r="2.3"/>
  <circle cx="262.3" cy="587.2" r="2.3"/>
  <circle cx="274.6" cy="587.2" r="2.3"/>
  <circle cx="299.1" cy="587.2" r="2.3"/>
  <circle cx="311.4" cy="587.2" r="2.3"/>
  <circle cx="323.7" cy="587.2" r="2.3"/>
  <circle cx="336.0" cy="587.2" r="2.3"/>
  <circle cx="348.3" cy="587.2" r="2.3"/>
  <circle cx="360.6" cy="587.2" r="2.3"/>
  <circle cx="372.9" cy="587.2" r="2.3"/>
  <circle cx="385.1" cy="587.2" r="2.3"/>
  <circle cx="397.4" cy="587.2" r="2.3"/>
  <circle cx="422.0" cy="587.2" r="2.3"/>
  <circle cx="434.3" cy="587.2" r="2.3"/>
  <circle cx="446.6" cy="587.2" r="2.3"/>
  <circle cx="458.8" cy="587.2" r="2.3"/>
  <circle cx="471.1" cy="587.2" r="2.3"/>
  <circle cx="483.4" cy="587.2" r="2.3"/>
  <circle cx="495.7" cy="587.2" r="2.3"/>
  <circle cx="508.0" cy="587.2" r="2.3"/>
  <circle cx="520.3" cy="587.2" r="2.3"/>
  <circle cx="544.8" cy="587.2" r="2.3"/>
  <circle cx="557.1" cy="587.2" r="2.3"/>
  <circle cx="569.4" cy="587.2" r="2.3"/>
  <circle cx="581.7" cy="587.2" r="2.3"/>
  <circle cx="594.0" cy="587.2" r="2.3"/>
  <circle cx="606.2" cy="587.1" r="2.3"/>
  <circle cx="618.5" cy="587.0" r="2.3"/>
  <circle cx="630.8" cy="586.9" r="2.3"/>
  <circle cx="643.1" cy="586.9" r="2.3"/>
  <circle cx="667.7" cy="586.6" r="2.3"/>
  <circle cx="679.9" cy="586.6" r="2.3"/>
  <circle cx="692.2" cy="586.7" r="2.3"/>
  <circle cx="704.5" cy="586.7" r="2.3"/>
  <circle cx="716.8" cy="586.7" r="2.3"/>
  <circle cx="729.1" cy="586.7" r="2.3"/>
  <circle cx="741.4" cy="586.7" r="2.3"/>
  <circle cx="753.7" cy="586.7" r="2.3"/>
  <circle cx="765.9" cy="586.7" r="2.3"/>
  <circle cx="790.5" cy="586.7" r="2.3"/>
  <circle cx="802.8" cy="586.7" r="2.3"/>
  <circle cx="815.1" cy="586.7" r="2.3"/>
  <circle cx="827.4" cy="586.7" r="2.3"/>
  <circle cx="839.6" cy="586.8" r="2.3"/>
  <circle cx="851.9" cy="586.8" r="2.3"/>
  <circle cx="864.2" cy="586.7" r="2.3"/>
  <circle cx="876.5" cy="586.8" r="2.3"/>
  <circle cx="888.8" cy="586.8" r="2.3"/>
</g>
<g class="pl" fill="#FFF" stroke="#E78AC3" stroke-width="0.900">
  <circle cx="286.9" cy="587.2" r="5.4"/>
  <circle cx="409.7" cy="587.2" r="5.4"/>
  <circle cx="532.5" cy="587.2" r="5.4"/>
  <circle cx="655.4" cy="586.5" r="5.4"/>
  <circle cx="778.2" cy="586.7" r="5.4"/>
  <circle cx="901.1" cy="586.8" r="5.4"/>
</g>
<g class="pl" fill="#FFF" stroke="#8DA0CB" stroke-width="0.900">
</g>
<g class="pl" fill="#FFF" stroke="#8DA0CB" stroke-width="0.900">
</g>
<polyline class="pl" points="225.4,587.2 237.7,587.2 250.0,587.2 262.3,587.2 274.6,587.2 286.9,587.2 299.1,587.2 311.4,587.2 323.7,587.2 336.0,587.2 348.3,587.2 360.6,587.2 372.9,587.2 385.1,587.2 397.4,587.2 409.7,587.2 422.0,587.2 434.3,587.2 446.6,587.2 458.8,579.9 471.1,577.5 483.4,571.6 495.7,576.5 508.0,569.5 520.3,568.9 532.5,573.6 544.8,572.8 557.1,572.9 569.4,576.3 581.7,573.0 594.0,571.0 606.2,570.7 618.5,569.7 630.8,568.7 643.1,570.0 655.4,570.0 667.7,573.3 679.9,572.0 692.2,571.4 704.5,570.9 716.8,573.6 729.1,575.4 741.4,574.1 753.7,572.5 765.9,573.0 778.2,572.5 790.5,573.5 802.8,573.7 815.1,572.8 827.4,573.5 839.6,575.3 851.9,572.8 864.2,573.9 876.5,576.6 888.8,574.9 901.1,573.4" stroke="#FC8D62" stroke-width="5.40" stroke-opacity="1.00" fill="none" clip-path="url(#axis_clip)"/>
<g class="pl" fill="#FFF" stroke="#FC8D62" stroke-width="0.900">
  <circle cx="225.4" cy="587.2" r="2.3"/>
  <circle cx="237.7" cy="587.2" r="2.3"/>
  <circle cx="250.0" cy="587.2" r="2.3"/>
  <circle cx="262.3" cy="587.2" r="2.3"/>
  <circle cx="274.6" cy="587.2" r="2.3"/>
  <circle cx="299.1" cy="587.2" r="2.3"/>
  <circle cx="311.4" cy="587.2" r="2.3"/>
  <circle cx="323.7" cy="587.2" r="2.3"/>
  <circle cx="336.0" cy="587.2" r="2.3"/>
  <circle cx="348.3" cy="587.2" r="2.3"/>
  <circle cx="360.6" cy="587.2" r="2.3"/>
  <circle cx="372.9" cy="587.2" r="2.3"/>
  <circle cx="385.1" cy="587.2" r="2.3"/>
  <circle cx="397.4" cy="587.2" r="2.3"/>
  <circle cx="422.0" cy="587.2" r="2.3"/>
  <circle cx="434.3" cy="587.2" r="2.3"/>
  <circle cx="446.6" cy="587.2" r="2.3"/>
  <circle cx="458.8" cy="579.9" r="2.3"/>
  <circle cx="471.1" cy="577.5" r="2.3"/>
  <circle cx="483.4" cy="571.6" r="2.3"/>
  <circle cx="495.7" cy="576.5" r="2.3"/>
  <circle cx="508.0" cy="569.5" r="2.3"/>
  <circle cx="520.3" cy="568.9" r="2.3"/>
  <circle cx="544.8" cy="572.8" r="2.3"/>
  <circle cx="557.1" cy="572.9" r="2.3"/>
  <circle cx="569.4" cy="576.3" r="2.3"/>
  <circle cx="581.7" cy="573.0" r="2.3"/>
  <circle cx="594.0" cy="571.0" r="2.3"/>
  <circle cx="606.2" cy="570.7" r="2.3"/>
  <circle cx="618.5" cy="569.7" r="2.3"/>
  <circle cx="630.8" cy="568.7" r="2.3"/>
  <circle cx="643.1" cy="570.0" r="2.3"/>
  <circle cx="667.7" cy="573.3" r="2.3"/>
  <circle cx="679.9" cy="572.0" r="2.3"/>
  <circle cx="692.2" cy="571.4" r="2.3"/>
  <circle cx="704.5" cy="570.9" r="2.3"/>
  <circle cx="716.8" cy="573.6" r="2.3"/>
  <circle cx="729.1" cy="575.4" r="2.3"/>
  <circle cx="741.4" cy="574.1" r="2.3"/>
  <circle cx="753.7" cy="572.5" r="2.3"/>
  <circle cx="765.9" cy="573.0" r="2.3"/>
  <circle cx="790.5" cy="573.5" r="2.3"/>
  <circle cx="802.8" cy="573.7" r="2.3"/>
  <circle cx="815.1" cy="572.8" r="2.3"/>
  <circle cx="827.4" cy="573.5" r="2.3"/>
  <circle cx="839.6" cy="575.3" r="2.3"/>
  <circle cx="851.9" cy="572.8" r="2.3"/>
  <circle cx="864.2" cy="573.9" r="2.3"/>
  <circle cx="876.5" cy="576.6" r="2.3"/>
  <circle cx="888.8" cy="574.9" r="2.3"/>
</g>
<g class="pl" fill="#FFF" stroke="#FC8D62" stroke-width="0.900">
  <circle cx="286.9" cy="587.2" r="5.4"/>
  <circle cx="409.7" cy="587.2" r="5.4"/>
  <circle cx="532.5" cy="573.6" r="5.4"/>
  <circle cx="655.4" cy="570.0" r="5.4"/>
  <circle cx="778.2" cy="572.5" r="5.4"/>
  <circle cx="901.1" cy="573.4" r="5.4"/>
</g>
<polyline class="pl" points="225.4,587.1 237.7,587.1 250.0,587.1 262.3,587.1 274.6,587.1 286.9,587.1 299.1,586.9 311.4,585.1 323.7,584.7 336.0,584.4 348.3,584.5 360.6,582.9 372.9,582.8 385.1,583.0 397.4,584.7 409.7,585.1 422.0,583.8 434.3,585.2 446.6,586.0 458.8,586.1 471.1,586.0 483.4,584.3 495.7,584.4 508.0,581.8 520.3,582.6 532.5,585.6 544.8,584.1 557.1,586.0 569.4,587.0 581.7,585.6 594.0,586.4 606.2,585.3 618.5,584.3 630.8,585.0 643.1,586.2 655.4,585.7 667.7,585.0 679.9,584.5 692.2,586.1 704.5,586.0 716.8,585.6 729.1,583.8 741.4,583.9 753.7,585.8 765.9,585.6 778.2,585.9 790.5,583.9 802.8,586.1 815.1,586.1 827.4,585.4 839.6,586.6 851.9,586.2 864.2,585.3 876.5,586.1 888.8,586.3 901.1,586.7" stroke="#66C2A5" stroke-width="5.40" stroke-opacity="1.00" fill="none" clip-path="url(#axis_clip)"/>
<g class="pl" fill="#FFF" stroke="#66C2A5" stroke-width="0.900">
  <circle cx="225.4" cy="587.1" r="2.3"/>
  <circle cx="237.7" cy="587.1" r="2.3"/>
  <circle cx="250.0" cy="587.1" r="2.3"/>
  <circle cx="262.3" cy="587.1" r="2.3"/>
  <circle cx="274.6" cy="587.1" r="2.3"/>
  <circle cx="299.1" cy="586.9" r="2.3"/>
  <circle cx="311.4" cy="585.1" r="2.3"/>
  <circle cx="323.7" cy="584.7" r="2.3"/>
  <circle cx="336.0" cy="584.4" r="2.3"/>
  <circle cx="348.3" cy="584.5" r="2.3"/>
  <circle cx="360.6" cy="582.9" r="2.3"/>
  <circle cx="372.9" cy="582.8" r="2.3"/>
  <circle cx="385.1" cy="583.0" r="2.3"/>
  <circle cx="397.4" cy="584.7" r="2.3"/>
  <circle cx="422.0" cy="583.8" r="2.3"/>
  <circle cx="434.3" cy="585.2" r="2.3"/>
  <circle cx="446.6" cy="586.0" r="2.3"/>
  <circle cx="458.8" cy="586.1" r="2.3"/>
  <circle cx="471.1" cy="586.0" r="2.3"/>
  <circle cx="483.4" cy="584.3" r="2.3"/>
  <circle cx="495.7" cy="584.4" r="2.3"/>
  <circle cx="508.0" cy="581.8" r="2.3"/>
  <circle cx="520.3" cy="582.6" r="2.3"/>
  <circle cx="544.8" cy="584.1" r="2.3"/>
  <circle cx="557.1" cy="586.0" r="2.3"/>
  <circle cx="569.4" cy="587.0" r="2.3"/>
  <circle cx="581.7" cy="585.6" r="2.3"/>
  <circle cx="594.0" cy="586.4" r="2.3"/>
  <circle cx="606.2" cy="585.3" r="2.3"/>
  <circle cx="618.5" cy="584.3" r="2.3"/>
  <circle cx="630.8" cy="585.0" r="2.3"/>
  <circle cx="643.1" cy="586.2" r="2.3"/>
  <circle cx="667.7" cy="585.0" r="2.3"/>
  <circle cx="679.9" cy="584.5" r="2.3"/>
  <circle cx="692.2" cy="586.1" r="2.3"/>
  <circle cx="704.5" cy="586.0" r="2.3"/>
  <circle cx="716.8" cy="585.6" r="2.3"/>
  <circle cx="729.1" cy="583.8" r="2.3"/>
  <circle cx="741.4" cy="583.9" r="2.3"/>
  <circle cx="753.7" cy="585.8" r="2.3"/>
  <circle cx="765.9" cy="585.6" r="2.3"/>
  <circle cx="790.5" cy="583.9" r="2.3"/>
  <circle cx="802.8" cy="586.1" r="2.3"/>
  <circle cx="815.1" cy="586.1" r="2.3"/>
  <circle cx="827.4" cy="585.4" r="2.3"/>
  <circle cx="839.6" cy="586.6" r="2.3"/>
  <circle cx="851.9" cy="586.2" r="2.3"/>
  <circle cx="864.2" cy="585.3" r="2.3"/>
  <circle cx="876.5" cy="586.1" r="2.3"/>
  <circle cx="888.8" cy="586.3" r="2.3"/>
</g>
<g class="pl" fill="#FFF" stroke="#66C2A5" stroke-width="0.900">
  <circle cx="286.9" cy="587.1" r="5.4"/>
  <circle cx="409.7" cy="585.1" r="5.4"/>
  <circle cx="532.5" cy="585.6" r="5.4"/>
  <circle cx="655.4" cy="585.7" r="5.4"/>
  <circle cx="778.2" cy="585.9" r="5.4"/>
  <circle cx="901.1" cy="586.7" r="5.4"/>
</g>
<polyline class="pl" points="225.4,587.2 237.7,587.2 250.0,587.2 262.3,587.2 274.6,587.2 286.9,587.2 299.1,587.2 311.4,587.2 323.7,587.2 336.0,587.2 348.3,587.2 360.6,587.2 372.9,587.2 385.1,587.2 397.4,587.2 409.7,587.2 422.0,587.2 434.3,587.2 446.6,587.2 458.8,587.2 471.1,587.2 483.4,587.2 495.7,587.2 508.0,587.2 520.3,587.2 532.5,587.2 544.8,587.2 557.1,587.2 569.4,587.2 581.7,587.2 594.0,587.2 606.2,587.2 618.5,587.2 630.8,587.2 643.1,587.2 655.4,587.2 667.7,587.2 679.9,587.2 692.2,587.2 704.5,587.2 716.8,587.2 729.1,587.2 741.4,587.2 753.7,587.2 765.9,587.2 778.2,587.1 790.5,587.1 802.8,587.1 815.1,586.9 827.4,586.1 839.6,584.5 851.9,584.1 864.2,583.2 876.5,583.0 888.8,582.8 901.1,582.6" stroke="#E5C494" stroke-width="5.40" stroke-opacity="1.00" fill="none" clip-path="url(#axis_clip)"/>
<g class="pl" fill="#FFF" stroke="#E5C494" stroke-width="0.900">
  <circle cx="225.4" cy="587.2" r="2.3"/>
  <circle cx="237.7" cy="587.2" r="2.3"/>
  <circle cx="250.0" cy="587.2" r="2.3"/>
  <circle cx="262.3" cy="587.2" r="2.3"/>
  <circle cx="274.6" cy="587.2" r="2.3"/>
  <circle cx="299.1" cy="587.2" r="2.3"/>
  <circle cx="311.4" cy="587.2" r="2.3"/>
  <circle cx="323.7" cy="587.2" r="2.3"/>
  <circle cx="336.0" cy="587.2" r="2.3"/>
  <circle cx="348.3" cy="587.2" r="2.3"/>
  <circle cx="360.6" cy="587.2" r="2.3"/>
  <circle cx="372.9" cy="587.2" r="2.3"/>
  <circle cx="385.1" cy="587.2" r="2.3"/>
  <circle cx="397.4" cy="587.2" r="2.3"/>
  <circle cx="422.0" cy="587.2" r="2.3"/>
  <circle cx="434.3" cy="587.2" r="2.3"/>
  <circle cx="446.6" cy="587.2" r="2.3"/>
  <circle cx="458.8" cy="587.2" r="2.3"/>
  <circle cx="471.1" cy="587.2" r="2.3"/>
  <circle cx="483.4" cy="587.2" r="2.3"/>
  <circle cx="495.7" cy="587.2" r="2.3"/>
  <circle cx="508.0" cy="587.2" r="2.3"/>
  <circle cx="520.3" cy="587.2" r="2.3"/>
  <circle cx="544.8" cy="587.2" r="2.3"/>
  <circle cx="557.1" cy="587.2" r="2.3"/>
  <circle cx="569.4" cy="587.2" r="2.3"/>
  <circle cx="581.7" cy="587.2" r="2.3"/>
  <circle cx="594.0" cy="587.2" r="2.3"/>
  <circle cx="606.2" cy="587.2" r="2.3"/>
  <circle cx="618.5" cy="587.2" r="2.3"/>
  <circle cx="630.8" cy="587.2" r="2.3"/>
  <circle cx="643.1" cy="587.2" r="2.3"/>
  <circle cx="667.7" cy="587.2" r="2.3"/>
  <circle cx="679.9" cy="587.2" r="2.3"/>
  <circle cx="692.2" cy="587.2" r="2.3"/>
  <circle cx="704.5" cy="587.2" r="2.3"/>
  <circle cx="716.8" cy="587.2" r="2.3"/>
  <circle cx="729.1" cy="587.2" r="2.3"/>
  <circle cx="741.4" cy="587.2" r="2.3"/>
  <circle cx="753.7" cy="587.2" r="2.3"/>
  <circle cx="765.9" cy="587.2" r="2.3"/>
  <circle cx="790.5" cy="587.1" r="2.3"/>
  <circle cx="802.8" cy="587.1" r="2.3"/>
  <circle cx="815.1" cy="586.9" r="2.3"/>
  <circle cx="827.4" cy="586.1" r="2.3"/>
  <circle cx="839.6" cy="584.5" r="2.3"/>
  <circle cx="851.9" cy="584.1" r="2.3"/>
  <circle cx="864.2" cy="583.2" r="2.3"/>
  <circle cx="876.5" cy="583.0" r="2.3"/>
  <circle cx="888.8" cy="582.8" r="2.3"/>
</g>
<g class="pl" fill="#FFF" stroke="#E5C494" stroke-width="0.900">
  <circle cx="286.9" cy="587.2" r="5.4"/>
  <circle cx="409.7" cy="587.2" r="5.4"/>
  <circle cx="532.5" cy="587.2" r="5.4"/>
  <circle cx="655.4" cy="587.2" r="5.4"/>
  <circle cx="778.2" cy="587.1" r="5.4"/>
  <circle cx="901.1" cy="582.6" r="5.4"/>
</g>
<polyline class="pl" points="225.4,587.2 237.7,587.2 250.0,587.2 262.3,587.2 274.6,587.2 286.9,587.2 299.1,587.2 311.4,587.2 323.7,587.2 336.0,587.2 348.3,587.2 360.6,587.2 372.9,587.2 385.1,587.2 397.4,587.2 409.7,587.2 422.0,587.2 434.3,587.2 446.6,587.2 458.8,587.2 471.1,587.2 483.4,587.2 495.7,587.2 508.0,587.2 520.3,587.2 532.5,587.2 544.8,587.2 557.1,587.2 569.4,587.2 581.7,587.2 594.0,587.2 606.2,587.2 618.5,587.2 630.8,587.2 643.1,587.2 655.4,587.2 667.7,587.2 679.9,587.2 692.2,587.2 704.5,587.2 716.8,587.2 729.1,587.2 741.4,587.2 753.7,587.2 765.9,587.1 778.2,587.1 790.5,587.1 802.8,587.1 815.1,587.1 827.4,586.1 839.6,584.2 851.9,583.2 864.2,581.7 876.5,581.3 888.8,581.2 901.1,581.0" stroke="#FFD92F" stroke-width="5.40" stroke-opacity="1.00" fill="none" clip-path="url(#axis_clip)"/>
<g class="pl" fill="#FFF" stroke="#FFD92F" stroke-width="0.900">
  <circle cx="225.4" cy="587.2" r="2.3"/>
  <circle cx="237.7" cy="587.2" r="2.3"/>
  <circle cx="250.0" cy="587.2" r="2.3"/>
  <circle cx="262.3" cy="587.2" r="2.3"/>
  <circle cx="274.6" cy="587.2" r="2.3"/>
  <circle cx="299.1" cy="587.2" r="2.3"/>
  <circle cx="311.4" cy="587.2" r="2.3"/>
  <circle cx="323.7" cy="587.2" r="2.3"/>
  <circle cx="336.0" cy="587.2" r="2.3"/>
  <circle cx="348.3" cy="587.2" r="2.3"/>
  <circle cx="360.6" cy="587.2" r="2.3"/>
  <circle cx="372.9" cy="587.2" r="2.3"/>
  <circle cx="385.1" cy="587.2" r="2.3"/>
  <circle cx="397.4" cy="587.2" r="2.3"/>
  <circle cx="422.0" cy="587.2" r="2.3"/>
  <circle cx="434.3" cy="587.2" r="2.3"/>
  <circle cx="446.6" cy="587.2" r="2.3"/>
  <circle cx="458.8" cy="587.2" r="2.3"/>
  <circle cx="471.1" cy="587.2" r="2.3"/>
  <circle cx="483.4" cy="587.2" r="2.3"/>
  <circle cx="495.7" cy="587.2" r="2.3"/>
  <circle cx="508.0" cy="587.2" r="2.3"/>
  <circle cx="520.3" cy="587.2" r="2.3"/>
  <circle cx="544.8" cy="587.2" r="2.3"/>
  <circle cx="557.1" cy="587.2" r="2.3"/>
  <circle cx="569.4" cy="587.2" r="2.3"/>
  <circle cx="581.7" cy="587.2" r="2.3"/>
  <circle cx="594.0" cy="587.2" r="2.3"/>
  <circle cx="606.2" cy="587.2" r="2.3"/>
  <circle cx="618.5" cy="587.2" r="2.3"/>
  <circle cx="630.8" cy="587.2" r="2.3"/>
  <circle cx="643.1" cy="587.2" r="2.3"/>
  <circle cx="667.7" cy="587.2" r="2.3"/>
  <circle cx="679.9" cy="587.2" r="2.3"/>
  <circle cx="692.2" cy="587.2" r="2.3"/>
  <circle cx="704.5" cy="587.2" r="2.3"/>
  <circle cx="716.8" cy="587.2" r="2.3"/>
  <circle cx="729.1" cy="587.2" r="2.3"/>
  <circle cx="741.4" cy="587.2" r="2.3"/>
  <circle cx="753.7" cy="587.2" r="2.3"/>
  <circle cx="765.9" cy="587.1" r="2.3"/>
  <circle cx="790.5" cy="587.1" r="2.3"/>
  <circle cx="802.8" cy="587.1" r="2.3"/>
  <circle cx="815.1" cy="587.1" r="2.3"/>
  <circle cx="827.4" cy="586.1" r="2.3"/>
  <circle cx="839.6" cy="584.2" r="2.3"/>
  <circle cx="851.9" cy="583.2" r="2.3"/>
  <circle cx="864.2" cy="581.7" r="2.3"/>
  <circle cx="876.5" cy="581.3" r="2.3"/>
  <circle cx="888.8" cy="581.2" r="2.3"/>
</g>
<g class="pl" fill="#FFF" stroke="#FFD92F" stroke-width="0.900">
  <circle cx="286.9" cy="587.2" r="5.4"/>
  <circle cx="409.7" cy="587.2" r="5.4"/>
  <circle cx="532.5" cy="587.2" r="5.4"/>
  <circle cx="655.4" cy="587.2" r="5.4"/>
  <circle cx="778.2" cy="587.1" r="5.4"/>
  <circle cx="901.1" cy="581.0" r="5.4"/>
</g>
<polyline class="pl" points="225.4,587.2 237.7,587.2 250.0,587.2 262.3,587.2 274.6,587.2 286.9,587.2 299.1,586.6 311.4,586.3 323.7,586.3 336.0,586.2 348.3,585.9 360.6,585.9 372.9,586.0 385.1,586.0 397.4,585.7 409.7,585.6 422.0,585.7 434.3,585.8 446.6,585.7 458.8,585.7 471.1,585.9 483.4,585.8 495.7,586.0 508.0,586.0 520.3,586.0 532.5,575.8 544.8,575.9 557.1,577.0 569.4,580.3 581.7,580.5 594.0,580.5 606.2,581.5 618.5,582.6 630.8,582.6 643.1,581.5 655.4,581.8 667.7,580.7 679.9,580.7 692.2,582.4 704.5,576.2 716.8,571.8 729.1,570.7 741.4,570.7 753.7,570.4 765.9,573.1 778.2,570.0 790.5,569.6 802.8,569.6 815.1,571.1 827.4,570.4 839.6,570.5 851.9,573.3 864.2,572.2 876.5,570.9 888.8,571.7 901.1,572.6" stroke="#6298C6" stroke-width="5.40" stroke-opacity="1.00" fill="none" clip-path="url(#axis_clip)"/>
<g class="pl" fill="#FFF" stroke="#6298C6" stroke-width="0.900">
  <circle cx="225.4" cy="587.2" r="2.3"/>
  <circle cx="237.7" cy="587.2" r="2.3"/>
  <circle cx="250.0" cy="587.2" r="2.3"/>
  <circle cx="262.3" cy="587.2" r="2.3"/>
  <circle cx="274.6" cy="587.2" r="2.3"/>
  <circle cx="299.1" cy="586.6" r="2.3"/>
  <circle cx="311.4" cy="586.3" r="2.3"/>
  <circle cx="323.7" cy="586.3" r="2.3"/>
  <circle cx="336.0" cy="586.2" r="2.3"/>
  <circle cx="348.3" cy="585.9" r="2.3"/>
  <circle cx="360.6" cy="585.9" r="2.3"/>
  <circle cx="372.9" cy="586.0" r="2.3"/>
  <circle cx="385.1" cy="586.0" r="2.3"/>
  <circle cx="397.4" cy="585.7" r="2.3"/>
  <circle cx="422.0" cy="585.7" r="2.3"/>
  <circle cx="434.3" cy="585.8" r="2.3"/>
  <circle cx="446.6" cy="585.7" r="2.3"/>
  <circle cx="458.8" cy="585.7" r="2.3"/>
  <circle cx="471.1" cy="585.9" r="2.3"/>
  <circle cx="483.4" cy="585.8" r="2.3"/>
  <circle cx="495.7" cy="586.0" r="2.3"/>
  <circle cx="508.0" cy="586.0" r="2.3"/>
  <circle cx="520.3" cy="586.0" r="2.3"/>
  <circle cx="544.8" cy="575.9" r="2.3"/>
  <circle cx="557.1" cy="577.0" r="2.3"/>
  <circle cx="569.4" cy="580.3" r="2.3"/>
  <circle cx="581.7" cy="580.5" r="2.3"/>
  <circle cx="594.0" cy="580.5" r="2.3"/>
  <circle cx="606.2" cy="581.5" r="2.3"/>
  <circle cx="618.5" cy="582.6" r="2.3"/>
  <circle cx="630.8" cy="582.6" r="2.3"/>
  <circle cx="643.1" cy="581.5" r="2.3"/>
  <circle cx="667.7" cy="580.7" r="2.3"/>
  <circle cx="679.9" cy="580.7" r="2.3"/>
  <circle cx="692.2" cy="582.4" r="2.3"/>
  <circle cx="704.5" cy="576.2" r="2.3"/>
  <circle cx="716.8" cy="571.8" r="2.3"/>
  <circle cx="729.1" cy="570.7" r="2.3"/>
  <circle cx="741.4" cy="570.7" r="2.3"/>
  <circle cx="753.7" cy="570.4" r="2.3"/>
  <circle cx="765.9" cy="573.1" r="2.3"/>
  <circle cx="790.5" cy="569.6" r="2.3"/>
  <circle cx="802.8" cy="569.6" r="2.3"/>
  <circle cx="815.1" cy="571.1" r="2.3"/>
  <circle cx="827.4" cy="570.4" r="2.3"/>
  <circle cx="839.6" cy="570.5" r="2.3"/>
  <circle cx="851.9" cy="573.3" r="2.3"/>
  <circle cx="864.2" cy="572.2" r="2.3"/>
  <circle cx="876.5" cy="570.9" r="2.3"/>
  <circle cx="888.8" cy="571.7" r="2.3"/>
</g>
<g class="pl" fill="#FFF" stroke="#6298C6" stroke-width="0.900">
  <circle cx="286.9" cy="587.2" r="5.4"/>
  <circle cx="409.7" cy="585.6" r="5.4"/>
  <circle cx="532.5" cy="575.8" r="5.4"/>
  <circle cx="655.4" cy="581.8" r="5.4"/>
  <circle cx="778.2" cy="570.0" r="5.4"/>
  <circle cx="901.1" cy="572.6" r="5.4"/>
</g>
<polyline class="pl" points="225.4,513.1 237.7,508.7 250.0,503.8 262.3,498.9 274.6,492.6 286.9,487.4 299.1,480.9 311.4,474.4 323.7,466.1 336.0,472.3 348.3,468.2 360.6,469.9 372.9,473.8 385.1,471.0 397.4,479.8 409.7,479.6 422.0,473.7 434.3,475.2 446.6,477.2 458.8,470.6 471.1,476.2 483.4,482.7 495.7,479.2 508.0,471.0 520.3,469.5 532.5,471.2 544.8,473.1 557.1,472.3 569.4,470.5 581.7,468.2 594.0,463.0 606.2,461.7 618.5,461.9 630.8,462.0 643.1,462.1 655.4,461.8 667.7,460.8 679.9,459.2 692.2,456.2 704.5,452.9 716.8,454.3 729.1,453.5 741.4,452.5 753.7,461.1 765.9,465.3 778.2,461.7 790.5,462.2 802.8,461.0 815.1,460.8 827.4,464.5 839.6,453.9 851.9,461.2 864.2,463.3 876.5,465.3 888.8,468.4 901.1,485.6" stroke="#404040" stroke-width="5.40" stroke-opacity="1.00" fill="none" clip-path="url(#axis_clip)"/>
<g class="pl" fill="#FFF" stroke="#404040" stroke-width="0.900">
  <circle cx="225.4" cy="513.1" r="2.3"/>
  <circle cx="237.7" cy="508.7" r="2.3"/>
  <circle cx="250.0" cy="503.8" r="2.3"/>
  <circle cx="262.3" cy="498.9" r="2.3"/>
  <circle cx="274.6" cy="492.6" r="2.3"/>
  <circle cx="299.1" cy="480.9" r="2.3"/>
  <circle cx="311.4" cy="474.4" r="2.3"/>
  <circle cx="323.7" cy="466.1" r="2.3"/>
  <circle cx="336.0" cy="472.3" r="2.3"/>
  <circle cx="348.3" cy="468.2" r="2.3"/>
  <circle cx="360.6" cy="469.9" r="2.3"/>
  <circle cx="372.9" cy="473.8" r="2.3"/>
  <circle cx="385.1" cy="471.0" r="2.3"/>
  <circle cx="397.4" cy="479.8" r="2.3"/>
  <circle cx="422.0" cy="473.7" r="2.3"/>
  <circle cx="434.3" cy="475.2" r="2.3"/>
  <circle cx="446.6" cy="477.2" r="2.3"/>
  <circle cx="458.8" cy="470.6" r="2.3"/>
  <circle cx="471.1" cy="476.2" r="2.3"/>
  <circle cx="483.4" cy="482.7" r="2.3"/>
  <circle cx="495.7" cy="479.2" r="2.3"/>
  <circle cx="508.0" cy="471.0" r="2.3"/>
  <circle cx="520.3" cy="469.5" r="2.3"/>
  <circle cx="544.8" cy="473.1" r="2.3"/>
  <circle cx="557.1" cy="472.3" r="2.3"/>
  <circle cx="569.4" cy="470.5" r="2.3"/>
  <circle cx="581.7" cy="468.2" r="2.3"/>
  <circle cx="594.0" cy="463.0" r="2.3"/>
  <circle cx="606.2" cy="461.7" r="2.3"/>
  <circle cx="618.5" cy="461.9" r="2.3"/>
  <circle cx="630.8" cy="462.0" r="2.3"/>
  <circle cx="643.1" cy="462.1" r="2.3"/>
  <circle cx="667.7" cy="460.8" r="2.3"/>
  <circle cx="679.9" cy="459.2" r="2.3"/>
  <circle cx="692.2" cy="456.2" r="2.3"/>
  <circle cx="704.5" cy="452.9" r="2.3"/>
  <circle cx="716.8" cy="454.3" r="2.3"/>
  <circle cx="729.1" cy="453.5" r="2.3"/>
  <circle cx="741.4" cy="452.5" r="2.3"/>
  <circle cx="753.7" cy="461.1" r="2.3"/>
  <circle cx="765.9" cy="465.3" r="2.3"/>
  <circle cx="790.5" cy="462.2" r="2.3"/>
  <circle cx="802.8" cy="461.0" r="2.3"/>
  <circle cx="815.1" cy="460.8" r="2.3"/>
  <circle cx="827.4" cy="464.5" r="2.3"/>
  <circle cx="839.6" cy="453.9" r="2.3"/>
  <circle cx="851.9" cy="461.2" r="2.3"/>
  <circle cx="864.2" cy="463.3" r="2.3"/>
  <circle cx="876.5" cy="465.3" r="2.3"/>
  <circle cx="888.8" cy="468.4" r="2.3"/>
</g>
<g class="pl" fill="#FFF" stroke="#404040" stroke-width="0.900">
  <circle cx="286.9" cy="487.4" r="5.4"/>
  <circle cx="409.7" cy="479.6" r="5.4"/>
  <circle cx="532.5" cy="471.2" r="5.4"/>
  <circle cx="655.4" cy="461.8" r="5.4"/>
  <circle cx="778.2" cy="461.7" r="5.4"/>
  <circle cx="901.1" cy="485.6" r="5.4"/>
</g>
<polyline class="pl" points="225.4,271.7 237.7,283.6 250.0,282.7 262.3,276.6 274.6,281.7 286.9,279.8 299.1,267.1 311.4,273.3 323.7,261.7 336.0,255.1 348.3,241.8 360.6,233.6 372.9,229.8 385.1,248.4 397.4,234.8 409.7,216.2 422.0,159.0 434.3,130.5 446.6,136.0 458.8,113.9 471.1,113.6 483.4,118.8 495.7,121.7 508.0,95.1 520.3,138.5 532.5,133.5 544.8,152.5 557.1,161.6 569.4,170.3 581.7,166.8 594.0,160.1 606.2,161.8 618.5,160.0 630.8,179.4 643.1,167.4 655.4,175.5 667.7,179.5 679.9,204.3 692.2,166.8 704.5,132.1 716.8,172.8 729.1,170.4 741.4,164.7 753.7,122.1 765.9,126.1 778.2,137.6 790.5,155.5 802.8,172.4 815.1,179.0 827.4,180.2 839.6,211.2 851.9,188.7 864.2,200.8 876.5,225.4 888.8,218.8 901.1,239.3" stroke="#7B553E" stroke-width="5.40" stroke-opacity="1.00" fill="none" clip-path="url(#axis_clip)"/>
<g class="pl" fill="#FFF" stroke="#7B553E" stroke-width="0.900">
  <circle cx="225.4" cy="271.7" r="2.3"/>
  <circle cx="237.7" cy="283.6" r="2.3"/>
  <circle cx="250.0" cy="282.7" r="2.3"/>
  <circle cx="262.3" cy="276.6" r="2.3"/>
  <circle cx="274.6" cy="281.7" r="2.3"/>
  <circle cx="299.1" cy="267.1" r="2.3"/>
  <circle cx="311.4" cy="273.3" r="2.3"/>
  <circle cx="323.7" cy="261.7" r="2.3"/>
  <circle cx="336.0" cy="255.1" r="2.3"/>
  <circle cx="348.3" cy="241.8" r="2.3"/>
  <circle cx="360.6" cy="233.6" r="2.3"/>
  <circle cx="372.9" cy="229.8" r="2.3"/>
  <circle cx="385.1" cy="248.4" r="2.3"/>
  <circle cx="397.4" cy="234.8" r="2.3"/>
  <circle cx="422.0" cy="159.0" r="2.3"/>
  <circle cx="434.3" cy="130.5" r="2.3"/>
  <circle cx="446.6" cy="136.0" r="2.3"/>
  <circle cx="458.8" cy="113.9" r="2.3"/>
  <circle cx="471.1" cy="113.6" r="2.3"/>
  <circle cx="483.4" cy="118.8" r="2.3"/>
  <circle cx="495.7" cy="121.7" r="2.3"/>
  <circle cx="508.0" cy="95.1" r="2.3"/>
  <circle cx="520.3" cy="138.5" r="2.3"/>
  <circle cx="544.8" cy="152.5" r="2.3"/>
  <circle cx="557.1" cy="161.6" r="2.3"/>
  <circle cx="569.4" cy="170.3" r="2.3"/>
  <circle cx="581.7" cy="166.8" r="2.3"/>
  <circle cx="594.0" cy="160.1" r="2.3"/>
  <circle cx="606.2" cy="161.8" r="2.3"/>
  <circle cx="618.5" cy="160.0" r="2.3"/>
  <circle cx="630.8" cy="179.4" r="2.3"/>
  <circle cx="643.1" cy="167.4" r="2.3"/>
  <circle cx="667.7" cy="179.5" r="2.3"/>
  <circle cx="679.9" cy="204.3" r="2.3"/>
  <circle cx="692.2" cy="166.8" r="2.3"/>
  <circle cx="704.5" cy="132.1" r="2.3"/>
  <circle cx="716.8" cy="172.8" r="2.3"/>
  <circle cx="729.1" cy="170.4" r="2.3"/>
  <circle cx="741.4" cy="164.7" r="2.3"/>
  <circle cx="753.7" cy="122.1" r="2.3"/>
  <circle cx="765.9" cy="126.1" r="2.3"/>
  <circle cx="790.5" cy="155.5" r="2.3"/>
  <circle cx="802.8" cy="172.4" r="2.3"/>
  <circle cx="815.1" cy="179.0" r="2.3"/>
  <circle cx="827.4" cy="180.2" r="2.3"/>
  <circle cx="839.6" cy="211.2" r="2.3"/>
  <circle cx="851.9" cy="188.7" r="2.3"/>
  <circle cx="864.2" cy="200.8" r="2.3"/>
  <circle cx="876.5" cy="225.4" r="2.3"/>
  <circle cx="888.8" cy="218.8" r="2.3"/>
</g>
<g class="pl" fill="#FFF" stroke="#7B553E" stroke-width="0.900">
  <circle cx="286.9" cy="279.8" r="5.4"/>
  <circle cx="409.7" cy="216.2" r="5.4"/>
  <circle cx="532.5" cy="133.5" r="5.4"/>
  <circle cx="655.4" cy="175.5" r="5.4"/>
  <circle cx="778.2" cy="137.6" r="5.4"/>
  <circle cx="901.1" cy="239.3" r="5.4"/>
</g>
<text transform="translate(945.6,431.8)" dy="8.1" font-size="27.00" fill="#FDBF6F" stroke="none">Bioenergy</text>
<text transform="translate(945.6,587.2)" dy="8.1" font-size="27.00" fill="#E78AC3" stroke="none">Other</text>
<text transform="translate(945.6,483.6)" dy="8.1" font-size="27.00" fill="#FC8D62" stroke="none">Nuclear</text>
<text transform="translate(945.6,561.3)" dy="8.1" font-size="27.00" fill="#66C2A5" stroke="none">Hydro</text>
<text transform="translate(945.6,535.4)" dy="8.1" font-size="27.00" fill="#E5C494" stroke="none">Solar</text>
<text transform="translate(945.6,509.5)" dy="8.1" font-size="27.00" fill="#FFD92F" stroke="none">Wind</text>
<text transform="translate(945.6,457.7)" dy="8.1" font-size="27.00" fill="#6298C6" stroke="none">Gas</text>
<text transform="translate(945.6,405.9)" dy="8.1" font-size="27.00" fill="#404040" stroke="none">Oil</text>
<text transform="translate(945.6,239.3)" dy="8.1" font-size="27.00" fill="#7B553E" stroke="none">Coal</text>
<polyline class="pl" points="910.8,556.5 912.4,556.1 913.8,554.8 915.2,552.8 916.4,550.1 917.6,546.7 918.8,542.7 919.8,538.2 920.8,533.3 921.7,527.9 922.7,522.2 923.5,516.3 924.4,510.1 925.2,503.8 926.0,497.4 926.8,490.9 927.6,484.5 928.4,478.2 929.3,472.0 930.1,466.0 931.1,460.3 932.0,455.0 933.0,450.1 934.0,445.6 935.2,441.6 936.4,438.2 937.6,435.5 939.0,433.5 940.4,432.2 942.0,431.8" stroke="#FDBF6F" stroke-width="0.90" stroke-opacity="1.00" fill="none" />
<polyline class="pl" points="910.8,586.8 912.4,586.8 913.8,586.8 915.2,586.8 916.4,586.8 917.6,586.8 918.8,586.8 919.8,586.9 920.8,586.9 921.7,586.9 922.7,586.9 923.5,586.9 924.4,586.9 925.2,587.0 926.0,587.0 926.8,587.0 927.6,587.0 928.4,587.0 929.3,587.1 930.1,587.1 931.1,587.1 932.0,587.1 933.0,587.1 934.0,587.1 935.2,587.1 936.4,587.2 937.6,587.2 939.0,587.2 940.4,587.2 942.0,587.2" stroke="#E78AC3" stroke-width="0.90" stroke-opacity="1.00" fill="none" />
<polyline class="pl" points="910.8,573.4 912.4,573.1 913.8,572.2 915.2,570.7 916.4,568.7 917.6,566.3 918.8,563.4 919.8,560.2 920.8,556.6 921.7,552.8 922.7,548.7 923.5,544.4 924.4,540.0 925.2,535.4 926.0,530.8 926.8,526.1 927.6,521.5 928.4,517.0 929.3,512.5 930.1,508.2 931.1,504.1 932.0,500.3 933.0,496.7 934.0,493.5 935.2,490.7 936.4,488.2 937.6,486.2 939.0,484.8 940.4,483.9 942.0,483.6" stroke="#FC8D62" stroke-width="0.90" stroke-opacity="1.00" fill="none" />
<polyline class="pl" points="910.8,586.7 912.4,586.6 913.8,586.4 915.2,586.0 916.4,585.4 917.6,584.7 918.8,583.9 919.8,583.0 920.8,582.0 921.7,580.9 922.7,579.7 923.5,578.5 924.4,577.3 925.2,576.0 926.0,574.7 926.8,573.3 927.6,572.0 928.4,570.7 929.3,569.5 930.1,568.3 931.1,567.1 932.0,566.0 933.0,565.0 934.0,564.1 935.2,563.3 936.4,562.6 937.6,562.0 939.0,561.6 940.4,561.4 942.0,561.3" stroke="#66C2A5" stroke-width="0.90" stroke-opacity="1.00" fill="none" />
<polyline class="pl" points="910.8,582.6 912.4,582.4 913.8,581.9 915.2,581.2 916.4,580.1 917.6,578.9 918.8,577.4 919.8,575.7 920.8,573.8 921.7,571.8 922.7,569.6 923.5,567.4 924.4,565.0 925.2,562.6 926.0,560.2 926.8,557.8 927.6,555.3 928.4,552.9 929.3,550.6 930.1,548.3 931.1,546.2 932.0,544.2 933.0,542.3 934.0,540.6 935.2,539.1 936.4,537.8 937.6,536.8 939.0,536.0 940.4,535.5 942.0,535.4" stroke="#E5C494" stroke-width="0.90" stroke-opacity="1.00" fill="none" />
<polyline class="pl" points="910.8,581.0 912.4,580.7 913.8,580.0 915.2,578.8 916.4,577.3 917.6,575.3 918.8,573.1 919.8,570.5 920.8,567.7 921.7,564.6 922.7,561.3 923.5,557.9 924.4,554.4 925.2,550.7 926.0,547.1 926.8,543.4 927.6,539.7 928.4,536.1 929.3,532.5 930.1,529.1 931.1,525.9 932.0,522.8 933.0,520.0 934.0,517.4 935.2,515.1 936.4,513.2 937.6,511.6 939.0,510.4 940.4,509.7 942.0,509.5" stroke="#FFD92F" stroke-width="0.90" stroke-opacity="1.00" fill="none" />
<polyline class="pl" points="910.8,572.6 912.4,572.2 913.8,571.0 915.2,569.2 916.4,566.7 917.6,563.5 918.8,559.9 919.8,555.8 920.8,551.2 921.7,546.3 922.7,541.0 923.5,535.5 924.4,529.9 925.2,524.0 926.0,518.1 926.8,512.2 927.6,506.2 928.4,500.4 929.3,494.7 930.1,489.2 931.1,484.0 932.0,479.1 933.0,474.5 934.0,470.4 935.2,466.7 936.4,463.6 937.6,461.1 939.0,459.2 940.4,458.1 942.0,457.7" stroke="#6298C6" stroke-width="0.90" stroke-opacity="1.00" fill="none" />
<polyline class="pl" points="910.8,485.6 912.4,485.4 913.8,484.6 915.2,483.3 916.4,481.5 917.6,479.3 918.8,476.8 919.8,473.9 920.8,470.8 921.7,467.4 922.7,463.7 923.5,459.9 924.4,456.0 925.2,451.9 926.0,447.8 926.8,443.7 927.6,439.6 928.4,435.5 929.3,431.6 930.1,427.8 931.1,424.1 932.0,420.7 933.0,417.6 934.0,414.7 935.2,412.1 936.4,410.0 937.6,408.2 939.0,406.9 940.4,406.1 942.0,405.9" stroke="#404040" stroke-width="0.90" stroke-opacity="1.00" fill="none" />
<text transform="translate(1079.5,428.4)" dy="0.0" font-size="14.40" fill="#FDBF6F" stroke="none">excluding</text>
<text transform="translate(1079.5,428.4)" dy="14.4" font-size="14.40" fill="#FDBF6F" stroke="none">liquids</text>
<text transform="translate(145.6,47.2)" dy="0.0" font-size="27.00" fill="#808080" stroke="none">Annual energy consumption per capita South Africa</text>
<text transform="translate(130.0,140.9)" dy="8.1" font-size="27.00" fill="#808080" stroke="none" text-anchor="end">per person</text>
<text transform="translate(160.2,666.1)" font-size="19.80" fill="#BFBFBF" stroke="none" xml:space="preserve">Global Carbon Project   &#9679;   Data: BP, IEA (bioenergy)</text>
<g class="cc">
  <rect x="123.0" y="651.4" width="34" height="17" fill="#FFF" stroke="none"/>
  <g transform="translate(124.0,652.4) scale(0.24)">
  <g><circle fill="#FFF" cx="37.79" cy="28.5" r="28.84"/>
     <circle fill="none" cx="37.79" cy="28.5" r="28.84" stroke="#000" stroke-width="5.5"/>
     <path d="M37.16,23.19 l-4.29,2.23c-0.458-0.951-1.02-1.62-1.69-2c-0.667-0.38-1.29-0.571-1.86-0.571c-2.86,0-4.29,1.89-4.29,5.66 c0,1.71,0.36,3.08,1.09,4.11c0.724,1.03,1.79,1.54,3.2,1.54c1.87,0,3.18-0.915,3.94-2.74l3.94,2 c-0.838,1.56-2,2.79-3.49,3.69c-1.48,0.896-3.12,1.34-4.91,1.34c-2.86,0-5.16-0.875-6.92-2.63 c-1.75-1.75-2.63-4.19-2.63-7.31c0-3.05,0.886-5.47,2.66-7.26c1.77-1.79,4.01-2.69,6.72-2.69 C32.6,18.56,35.44,20.1,37.16,23.19z
              M55.61,23.19l-4.23,2.23c-0.457-0.951-1.02-1.62-1.69-2 c-0.668-0.38-1.31-0.571-1.91-0.571c-2.86,0-4.29,1.89-4.29,5.66c0,1.71,0.363,3.08,1.09,4.11 c0.723,1.03,1.79,1.54,3.2,1.54c1.87,0,3.18-0.915,3.94-2.74l4,2c-0.875,1.56-2.06,2.79-3.54,3.69 c-1.49,0.9-3.11,1.34-4.86,1.34c-2.9,0-5.21-0.875-6.94-2.63c-1.74-1.75-2.6-4.19-2.6-7.31 c0-3.05,0.885-5.47,2.66-7.26c1.77-1.79,4.01-2.69,6.71-2.69C51.12,18.56,53.944,20.1,55.61,23.19z"/>
  </g></g>
  <g transform="translate(140.2,652.4) scale(0.24)">
  <g><circle fill="#FFF" cx="37.79" cy="28.5" r="28.84"/>
     <circle fill="none" cx="37.79" cy="28.5" r="28.84" stroke="#000" stroke-width="5.5"/>
     <path d="M46.129,20.557v13.085h-3.656v15.542h-9.944V33.643h-3.656V20.557 c0-0.572,0.2-1.057,0.599-1.457c0.401-0.399,0.887-0.6,1.457-0.6h13.144c0.533,0,1.01,0.2,1.428,0.6 C45.918,19.5,46.129,19.986,46.129,20.557z
              M33.042,12.329c0-3.008,1.485-4.514,4.458-4.514s4.457,1.504,4.457,4.514 c0,2.971-1.486,4.457-4.457,4.457S33.042,15.3,33.042,12.329z"/>
  </g></g>
</g>
</g>
</svg>
