<svg version="1.1" xmlns="http://www.w3.org/2000/svg" xmlns:xlink="http://www.w3.org/1999/xlink" width="100%" height="100%" viewBox="0 0 1200.000 674.916">
<title>Annual energy consumption in Thailand, 2000&#8211;2020</title>
<style type="text/css">
  #main {font-family:Helvetica,Arial,sans-serif; font-size:27.00px;
         fill-opacity:1; fill:#000000; stroke:none; stroke-linejoin:round; stroke-linecap:round; stroke-width:1.00;}
  .marker {stroke-opacity:0;fill-opacity:0;}
  .marker:hover {stroke-opacity:0.5; fill-opacity:1;}
  .ticklabel {font-size:27.00px;fill:#808080;stroke:none}
  .ytl {text-anchor:end;}
  .xtl {text-anchor:middle;}
  .dp1 {pointer-events:none;font-size:70%;text-anchor:middle;fill:#000000;}
  .dp2 {pointer-events:none;font-size:70%;text-anchor:middle;fill:#FFFFFF;}
  .numtip {pointer-events:none;}
  .cc {opacity:0.25;}
.dl_fe {background-color:#FDFFDF;display:flex;margin:auto;align-items:center}
.dl_fe_p {font-size:20px;text-align:center;margin:3px}
.dl_el {display:none;pointer-events:none;}
.cc:hover + .dl_el {display:block;}
text:hover + .dl_el {display:block;}
</style>
<defs>
  <clipPath id="axis_clip"><rect x="145.8" y="54.2" width="761.2" height="532.8" /></clipPath>
  <path id="line_x" d="M 145.600,0 h 761.600" stroke="#262626" stroke-opacity="0.15" stroke-width="1.00"/>
  <path id="tick_y" d="M 145.600,0 h -6.000" stroke="#808080" stroke-width="0.90"/>
  <path id="tick_x" d="M 0,587.177 v 6.000" stroke="#808080" stroke-width="0.90"/>
</defs>
<g id="main">
<use xlink:href="#line_x" transform="translate(0,587.2)"/>
<use xlink:href="#line_x" transform="translate(0,498.3)"/>
<use xlink:href="#line_x" transform="translate(0,409.4)"/>
<use xlink:href="#line_x" transform="translate(0,320.6)"/>
<use xlink:href="#line_x" transform="translate(0,231.7)"/>
<use xlink:href="#line_x" transform="translate(0,142.9)"/>
<use xlink:href="#line_x" transform="translate(0,54.0)"/>
<use xlink:href="#tick_y" transform="translate(0,587.2)"/>
<use xlink:href="#tick_y" transform="translate(0,498.3)"/>
<use xlink:href="#tick_y" transform="translate(0,409.4)"/>
<use xlink:href="#tick_y" transform="translate(0,320.6)"/>
<use xlink:href="#tick_y" transform="translate(0,231.7)"/>
<use xlink:href="#tick_y" transform="translate(0,142.9)"/>
<use xlink:href="#tick_y" transform="translate(0,54.0)"/>
<use xlink:href="#tick_x" transform="translate(209.1,0)"/>
<use xlink:href="#tick_x" transform="translate(336.0,0)"/>
<use xlink:href="#tick_x" transform="translate(462.9,0)"/>
<use xlink:href="#tick_x" transform="translate(589.9,0)"/>
<use xlink:href="#tick_x" transform="translate(716.8,0)"/>
<use xlink:href="#tick_x" transform="translate(843.7,0)"/>
<polyline points="145.6,53.993 145.6,587.177 907.2,587.177" stroke="#808080" stroke-width="0.90" fill="none"/>
<text class="ticklabel ytl" transform="translate(128.8,595.3)">0</text>
<text class="ticklabel ytl" transform="translate(128.8,506.4)">0.5</text>
<text class="ticklabel ytl" transform="translate(128.8,417.5)">1.0</text>
<text class="ticklabel ytl" transform="translate(128.8,328.7)">1.5</text>
<text class="ticklabel ytl" transform="translate(128.8,239.8)">2.0</text>
<text class="ticklabel ytl" transform="translate(128.8,151.0)">2.5</text>
<text class="ticklabel ytl" transform="translate(128.8,62.1)">3.0 EJ</text>
<g stroke="#262626" stroke-width="0.9000"  clip-path="url(#axis_clip)">
  <polygon points="158.3,587.2 158.3,528.5 163.1,528.5 163.1,587.2" fill="#FFEFE6"/>
  <polygon points="285.2,587.2 285.2,322.6 290.1,322.6 290.1,587.2" fill="#FFE6E6"/>
  <polygon points="412.2,587.2 412.2,451.6 417.0,451.6 417.0,587.2" fill="#E6F3FF"/>
  <polygon points="539.1,587.2 539.1,587.2 543.9,587.2 543.9,587.2" fill="#FFEDE6"/>
  <polygon points="666.0,587.2 666.0,576.7 670.9,576.7 670.9,587.2" fill="#E6EDFF"/>
  <polygon points="793.0,587.2 793.0,586.2 797.8,586.2 797.8,587.2" fill="#E6FFF7"/>
</g>
<g stroke="#262626" stroke-width="0.9000"  clip-path="url(#axis_clip)">
  <polygon points="163.1,587.2 163.1,521.9 168.0,521.9 168.0,587.2" fill="#F8E6DB"/>
  <polygon points="290.1,587.2 290.1,327.0 294.9,327.0 294.9,587.2" fill="#F5DEDE"/>
  <polygon points="417.0,587.2 417.0,430.0 421.8,430.0 421.8,587.2" fill="#DEEEFC"/>
  <polygon points="543.9,587.2 543.9,587.2 548.8,587.2 548.8,587.2" fill="#FFE8DF"/>
  <polygon points="670.9,587.2 670.9,576.3 675.7,576.3 675.7,587.2" fill="#E1E9FC"/>
  <polygon points="797.8,587.2 797.8,586.1 802.6,586.1 802.6,587.2" fill="#DEFCF3"/>
</g>
<g stroke="#262626" stroke-width="0.9000"  clip-path="url(#axis_clip)">
  <polygon points="168.0,587.2 168.0,517.5 172.8,517.5 172.8,587.2" fill="#F2DDD0"/>
  <polygon points="294.9,587.2 294.9,296.6 299.7,296.6 299.7,587.2" fill="#ECD7D7"/>
  <polygon points="421.8,587.2 421.8,416.4 426.7,416.4 426.7,587.2" fill="#D6E9F9"/>
  <polygon points="548.8,587.2 548.8,587.2 553.6,587.2 553.6,587.2" fill="#FFE3D8"/>
  <polygon points="675.7,587.2 675.7,574.3 680.5,574.3 680.5,587.2" fill="#DCE5FA"/>
  <polygon points="802.6,587.2 802.6,585.9 807.5,585.9 807.5,587.2" fill="#D7F9EE"/>
</g>
<g stroke="#262626" stroke-width="0.9000"  clip-path="url(#axis_clip)">
  <polygon points="172.8,587.2 172.8,516.0 177.6,516.0 177.6,587.2" fill="#EBD4C6"/>
  <polygon points="299.7,587.2 299.7,265.3 304.6,265.3 304.6,587.2" fill="#E2CFCF"/>
  <polygon points="426.7,587.2 426.7,405.3 431.5,405.3 431.5,587.2" fill="#CFE4F6"/>
  <polygon points="553.6,587.2 553.6,587.2 558.4,587.2 558.4,587.2" fill="#FFDED2"/>
  <polygon points="680.5,587.2 680.5,574.6 685.4,574.6 685.4,587.2" fill="#D7E1F7"/>
  <polygon points="807.5,587.2 807.5,585.0 812.3,585.0 812.3,587.2" fill="#CFF6EA"/>
</g>
<g stroke="#262626" stroke-width="0.9000"  clip-path="url(#axis_clip)">
  <polygon points="177.6,587.2 177.6,507.4 182.5,507.4 182.5,587.2" fill="#E5CBBC"/>
  <polygon points="304.6,587.2 304.6,233.1 309.4,233.1 309.4,587.2" fill="#D9C7C7"/>
  <polygon points="431.5,587.2 431.5,396.8 436.3,396.8 436.3,587.2" fill="#C8DFF4"/>
  <polygon points="558.4,587.2 558.4,587.2 563.3,587.2 563.3,587.2" fill="#FED9CB"/>
  <polygon points="685.4,587.2 685.4,577.0 690.2,577.0 690.2,587.2" fill="#D2DDF5"/>
  <polygon points="812.3,587.2 812.3,584.0 817.1,584.0 817.1,587.2" fill="#C8F3E5"/>
</g>
<g stroke="#262626" stroke-width="0.9000"  clip-path="url(#axis_clip)">
  <polygon points="182.5,587.2 182.5,501.0 187.3,501.0 187.3,587.2" fill="#DEC2B2"/>
  <polygon points="309.4,587.2 309.4,231.0 314.2,231.0 314.2,587.2" fill="#CFC0C0"/>
  <polygon points="436.3,587.2 436.3,382.1 441.2,382.1 441.2,587.2" fill="#C0DAF1"/>
  <polygon points="563.3,587.2 563.3,587.2 568.1,587.2 568.1,587.2" fill="#FED5C4"/>
  <polygon points="690.2,587.2 690.2,577.4 695.0,577.4 695.0,587.2" fill="#CDD9F2"/>
  <polygon points="817.1,587.2 817.1,583.3 822.0,583.3 822.0,587.2" fill="#C1F0E1"/>
</g>
<g stroke="#262626" stroke-width="0.9000"  clip-path="url(#axis_clip)">
  <polygon points="187.3,587.2 187.3,495.2 192.1,495.2 192.1,587.2" fill="#D7BAA8"/>
  <polygon points="314.2,587.2 314.2,237.9 319.1,237.9 319.1,587.2" fill="#C6B8B8"/>
  <polygon points="441.2,587.2 441.2,376.0 446.0,376.0 446.0,587.2" fill="#B9D6EE"/>
  <polygon points="568.1,587.2 568.1,587.2 572.9,587.2 572.9,587.2" fill="#FED0BE"/>
  <polygon points="695.0,587.2 695.0,573.6 699.9,573.6 699.9,587.2" fill="#C9D5EF"/>
  <polygon points="822.0,587.2 822.0,582.4 826.8,582.4 826.8,587.2" fill="#BAEDDD"/>
</g>
<g stroke="#262626" stroke-width="0.9000"  clip-path="url(#axis_clip)">
  <polygon points="192.1,587.2 192.1,483.8 197.0,483.8 197.0,587.2" fill="#D1B29F"/>
  <polygon points="319.1,587.2 319.1,233.7 323.9,233.7 323.9,587.2" fill="#BCB0B0"/>
  <polygon points="446.0,587.2 446.0,362.1 450.8,362.1 450.8,587.2" fill="#B2D1EB"/>
  <polygon points="572.9,587.2 572.9,587.2 577.8,587.2 577.8,587.2" fill="#FECBB7"/>
  <polygon points="699.9,587.2 699.9,573.6 704.7,573.6 704.7,587.2" fill="#C4D1ED"/>
  <polygon points="826.8,587.2 826.8,581.9 831.6,581.9 831.6,587.2" fill="#B4EAD9"/>
</g>
<g stroke="#262626" stroke-width="0.9000"  clip-path="url(#axis_clip)">
  <polygon points="197.0,587.2 197.0,475.6 201.8,475.6 201.8,587.2" fill="#CAAA96"/>
  <polygon points="323.9,587.2 323.9,245.2 328.7,245.2 328.7,587.2" fill="#B3A8A8"/>
  <polygon points="450.8,587.2 450.8,350.8 455.7,350.8 455.7,587.2" fill="#ABCCE8"/>
  <polygon points="577.8,587.2 577.8,587.2 582.6,587.2 582.6,587.2" fill="#FEC6B1"/>
  <polygon points="704.7,587.2 704.7,575.4 709.5,575.4 709.5,587.2" fill="#C0CDEA"/>
  <polygon points="831.6,587.2 831.6,579.6 836.5,579.6 836.5,587.2" fill="#ADE7D4"/>
</g>
<g stroke="#262626" stroke-width="0.9000"  clip-path="url(#axis_clip)">
  <polygon points="201.8,587.2 201.8,475.3 206.6,475.3 206.6,587.2" fill="#C4A28D"/>
  <polygon points="328.7,587.2 328.7,230.1 333.6,230.1 333.6,587.2" fill="#A9A0A0"/>
  <polygon points="455.7,587.2 455.7,343.2 460.5,343.2 460.5,587.2" fill="#A5C8E5"/>
  <polygon points="582.6,587.2 582.6,587.2 587.4,587.2 587.4,587.2" fill="#FEC1AA"/>
  <polygon points="709.5,587.2 709.5,575.5 714.4,575.5 714.4,587.2" fill="#BBC9E8"/>
  <polygon points="836.5,587.2 836.5,578.1 841.3,578.1 841.3,587.2" fill="#A6E4D0"/>
</g>
<g stroke="#262626" stroke-width="0.9000"  clip-path="url(#axis_clip)">
  <polygon points="206.6,587.2 206.6,472.3 211.5,472.3 211.5,587.2" fill="#BD9A85"/>
  <polygon points="333.6,587.2 333.6,218.6 338.4,218.6 338.4,587.2" fill="#A09898"/>
  <polygon points="460.5,587.2 460.5,310.7 465.4,310.7 465.4,587.2" fill="#9EC3E3"/>
  <polygon points="587.4,587.2 587.4,587.2 592.3,587.2 592.3,587.2" fill="#FEBDA3"/>
  <polygon points="714.4,587.2 714.4,578.3 719.2,578.3 719.2,587.2" fill="#B7C5E5"/>
  <polygon points="841.3,587.2 841.3,576.0 846.2,576.0 846.2,587.2" fill="#A0E1CC"/>
</g>
<g stroke="#262626" stroke-width="0.9000"  clip-path="url(#axis_clip)">
  <polygon points="211.5,587.2 211.5,470.4 216.3,470.4 216.3,587.2" fill="#B6927C"/>
  <polygon points="338.4,587.2 338.4,202.8 343.3,202.8 343.3,587.2" fill="#968F8F"/>
  <polygon points="465.4,587.2 465.4,303.6 470.2,303.6 470.2,587.2" fill="#97BEE0"/>
  <polygon points="592.3,587.2 592.3,587.2 597.1,587.2 597.1,587.2" fill="#FDB89D"/>
  <polygon points="719.2,587.2 719.2,574.0 724.1,574.0 724.1,587.2" fill="#B2C1E2"/>
  <polygon points="846.2,587.2 846.2,575.0 851.0,575.0 851.0,587.2" fill="#9ADDC8"/>
</g>
<g stroke="#262626" stroke-width="0.9000"  clip-path="url(#axis_clip)">
  <polygon points="216.3,587.2 216.3,464.6 221.2,464.6 221.2,587.2" fill="#B08B74"/>
  <polygon points="343.3,587.2 343.3,184.7 348.1,184.7 348.1,587.2" fill="#8C8787"/>
  <polygon points="470.2,587.2 470.2,276.0 475.0,276.0 475.0,587.2" fill="#91BADD"/>
  <polygon points="597.1,587.2 597.1,587.2 602.0,587.2 602.0,587.2" fill="#FDB396"/>
  <polygon points="724.1,587.2 724.1,573.3 728.9,573.3 728.9,587.2" fill="#AEBDE0"/>
  <polygon points="851.0,587.2 851.0,571.5 855.8,571.5 855.8,587.2" fill="#94DAC4"/>
</g>
<g stroke="#262626" stroke-width="0.9000"  clip-path="url(#axis_clip)">
  <polygon points="221.2,587.2 221.2,466.5 226.0,466.5 226.0,587.2" fill="#A9846D"/>
  <polygon points="348.1,587.2 348.1,170.5 352.9,170.5 352.9,587.2" fill="#837E7E"/>
  <polygon points="475.0,587.2 475.0,274.5 479.9,274.5 479.9,587.2" fill="#8BB6DA"/>
  <polygon points="602.0,587.2 602.0,587.2 606.8,587.2 606.8,587.2" fill="#FDAE90"/>
  <polygon points="728.9,587.2 728.9,578.3 733.7,578.3 733.7,587.2" fill="#AAB9DD"/>
  <polygon points="855.8,587.2 855.8,565.7 860.7,565.7 860.7,587.2" fill="#8DD7C0"/>
</g>
<g stroke="#262626" stroke-width="0.9000"  clip-path="url(#axis_clip)">
  <polygon points="226.0,587.2 226.0,454.2 230.8,454.2 230.8,587.2" fill="#A37C65"/>
  <polygon points="352.9,587.2 352.9,169.9 357.8,169.9 357.8,587.2" fill="#797676"/>
  <polygon points="479.9,587.2 479.9,267.6 484.7,267.6 484.7,587.2" fill="#85B1D7"/>
  <polygon points="606.8,587.2 606.8,587.2 611.6,587.2 611.6,587.2" fill="#FDA989"/>
  <polygon points="733.7,587.2 733.7,578.8 738.6,578.8 738.6,587.2" fill="#A5B6DB"/>
  <polygon points="860.7,587.2 860.7,561.2 865.5,561.2 865.5,587.2" fill="#87D4BC"/>
</g>
<g stroke="#262626" stroke-width="0.9000"  clip-path="url(#axis_clip)">
  <polygon points="230.8,587.2 230.8,456.6 235.7,456.6 235.7,587.2" fill="#9C755E"/>
  <polygon points="357.8,587.2 357.8,152.8 362.6,152.8 362.6,587.2" fill="#706D6D"/>
  <polygon points="484.7,587.2 484.7,261.1 489.5,261.1 489.5,587.2" fill="#7FADD4"/>
  <polygon points="611.6,587.2 611.6,587.2 616.5,587.2 616.5,587.2" fill="#FDA583"/>
  <polygon points="738.6,587.2 738.6,581.1 743.4,581.1 743.4,587.2" fill="#A1B2D8"/>
  <polygon points="865.5,587.2 865.5,558.9 870.3,558.9 870.3,587.2" fill="#82D1B8"/>
</g>
<g stroke="#262626" stroke-width="0.9000"  clip-path="url(#axis_clip)">
  <polygon points="235.7,587.2 235.7,454.1 240.5,454.1 240.5,587.2" fill="#956F57"/>
  <polygon points="362.6,587.2 362.6,136.3 367.4,136.3 367.4,587.2" fill="#666464"/>
  <polygon points="489.5,587.2 489.5,263.7 494.4,263.7 494.4,587.2" fill="#79A9D1"/>
  <polygon points="616.5,587.2 616.5,587.2 621.3,587.2 621.3,587.2" fill="#FDA07C"/>
  <polygon points="743.4,587.2 743.4,581.5 748.2,581.5 748.2,587.2" fill="#9DAED5"/>
  <polygon points="870.3,587.2 870.3,554.7 875.2,554.7 875.2,587.2" fill="#7CCEB4"/>
</g>
<g stroke="#262626" stroke-width="0.9000"  clip-path="url(#axis_clip)">
  <polygon points="240.5,587.2 240.5,453.5 245.3,453.5 245.3,587.2" fill="#8F6850"/>
  <polygon points="367.4,587.2 367.4,124.4 372.3,124.4 372.3,587.2" fill="#5D5B5B"/>
  <polygon points="494.4,587.2 494.4,266.7 499.2,266.7 499.2,587.2" fill="#73A4CF"/>
  <polygon points="621.3,587.2 621.3,587.2 626.1,587.2 626.1,587.2" fill="#FC9B76"/>
  <polygon points="748.2,587.2 748.2,579.7 753.1,579.7 753.1,587.2" fill="#99ABD3"/>
  <polygon points="875.2,587.2 875.2,549.7 880.0,549.7 880.0,587.2" fill="#76CBB0"/>
</g>
<g stroke="#262626" stroke-width="0.9000"  clip-path="url(#axis_clip)">
  <polygon points="245.3,587.2 245.3,444.7 250.2,444.7 250.2,587.2" fill="#88614A"/>
  <polygon points="372.3,587.2 372.3,122.8 377.1,122.8 377.1,587.2" fill="#535252"/>
  <polygon points="499.2,587.2 499.2,267.1 504.0,267.1 504.0,587.2" fill="#6DA0CC"/>
  <polygon points="626.1,587.2 626.1,587.2 631.0,587.2 631.0,587.2" fill="#FC966F"/>
  <polygon points="753.1,587.2 753.1,575.1 757.9,575.1 757.9,587.2" fill="#95A7D0"/>
  <polygon points="880.0,587.2 880.0,543.8 884.8,543.8 884.8,587.2" fill="#71C8AD"/>
</g>
<g stroke="#262626" stroke-width="0.9000"  clip-path="url(#axis_clip)">
  <polygon points="250.2,587.2 250.2,460.2 255.0,460.2 255.0,587.2" fill="#825B44"/>
  <polygon points="377.1,587.2 377.1,120.7 381.9,120.7 381.9,587.2" fill="#4A4949"/>
  <polygon points="504.0,587.2 504.0,261.3 508.9,261.3 508.9,587.2" fill="#679CC9"/>
  <polygon points="631.0,587.2 631.0,587.2 635.8,587.2 635.8,587.2" fill="#FC9269"/>
  <polygon points="757.9,587.2 757.9,577.2 762.7,577.2 762.7,587.2" fill="#91A4CE"/>
  <polygon points="884.8,587.2 884.8,536.7 889.7,536.7 889.7,587.2" fill="#6BC5A9"/>
</g>
<g stroke="#262626" stroke-width="0.9000"  clip-path="url(#axis_clip)">
  <polygon points="255.0,587.2 255.0,457.8 259.8,457.8 259.8,587.2" fill="#7B553E"/>
  <polygon points="381.9,587.2 381.9,162.7 386.8,162.7 386.8,587.2" fill="#404040"/>
  <polygon points="508.9,587.2 508.9,287.4 513.7,287.4 513.7,587.2" fill="#6298C6"/>
  <polygon points="635.8,587.2 635.8,587.2 640.6,587.2 640.6,587.2" fill="#FC8D62"/>
  <polygon points="762.7,587.2 762.7,580.0 767.6,580.0 767.6,587.2" fill="#8DA0CB"/>
  <polygon points="889.7,587.2 889.7,538.2 894.5,538.2 894.5,587.2" fill="#66C2A5"/>
</g>
<text transform="translate(209.1,600.7)" dy="21.6" font-size="21.60" fill="#808080" stroke="none" text-anchor="middle">Coal</text>
<text transform="translate(336.0,600.7)" dy="21.6" font-size="21.60" fill="#808080" stroke="none" text-anchor="middle">Oil</text>
<text transform="translate(462.9,600.7)" dy="21.6" font-size="21.60" fill="#808080" stroke="none" text-anchor="middle">Gas</text>
<text transform="translate(589.9,600.7)" dy="21.6" font-size="21.60" fill="#808080" stroke="none" text-anchor="middle">Nuclear</text>
<text transform="translate(716.8,600.7)" dy="21.6" font-size="21.60" fill="#808080" stroke="none" text-anchor="middle">Hydro</text>
<text transform="translate(843.7,600.7)"  font-size="21.60" fill="#808080" stroke="none" text-anchor="middle">
      <tspan x="0" y="18.0">Other</tspan><tspan x="0" y="42.2">Renewables</tspan>
    </text>
<polyline class="pl" points="230.8,438.0 230.8,431.2 259.8,431.2 259.8,438.0" stroke="#808080" stroke-width="0.90" stroke-opacity="1.00" fill="none" clip-path="url(#axis_clip)"/>
<text transform="translate(259.8,421.1)" dy="0.0" font-size="21.60" fill="#808080" stroke="none" text-anchor="end">-0.4%/yr</text>
<polyline class="pl" points="357.8,113.9 357.8,107.2 386.8,107.2 386.8,113.9" stroke="#808080" stroke-width="0.90" stroke-opacity="1.00" fill="none" clip-path="url(#axis_clip)"/>
<text transform="translate(386.8,97.1)" dy="0.0" font-size="21.60" fill="#808080" stroke="none" text-anchor="end">-0.0%/yr</text>
<polyline class="pl" points="484.7,254.4 484.7,247.6 513.7,247.6 513.7,254.4" stroke="#808080" stroke-width="0.90" stroke-opacity="1.00" fill="none" clip-path="url(#axis_clip)"/>
<text transform="translate(513.7,237.5)" dy="0.0" font-size="21.60" fill="#808080" stroke="none" text-anchor="end">-1.1%/yr</text>
<polyline class="pl" points="611.6,580.4 611.6,573.7 640.6,573.7 640.6,580.4" stroke="#808080" stroke-width="0.90" stroke-opacity="1.00" fill="none" clip-path="url(#axis_clip)"/>
<text transform="translate(640.6,563.6)" dy="0.0" font-size="21.60" fill="#808080" stroke="none" text-anchor="end">No Data</text>
<polyline class="pl" points="738.6,568.3 738.6,561.6 767.6,561.6 767.6,568.3" stroke="#808080" stroke-width="0.90" stroke-opacity="1.00" fill="none" clip-path="url(#axis_clip)"/>
<text transform="translate(767.6,551.5)" dy="0.0" font-size="21.60" fill="#808080" stroke="none" text-anchor="end">+8.5%/yr</text>
<polyline class="pl" points="865.5,529.9 865.5,523.2 894.5,523.2 894.5,529.9" stroke="#808080" stroke-width="0.90" stroke-opacity="1.00" fill="none" clip-path="url(#axis_clip)"/>
<text transform="translate(894.5,513.0)" dy="0.0" font-size="21.60" fill="#808080" stroke="none" text-anchor="end">+12.0%/yr</text>
<text transform="translate(145.6,47.2)" dy="0.0" font-size="27.00" fill="#808080" stroke="none">Annual energy consumption in Thailand, 2000&#8211;2020</text>
<text transform="translate(145.6,54.0)" dy="18.0" font-size="18.00" fill="#808080" stroke="none" xml:space="preserve"> Annual growth rates from 2015&#8211;2020</text>
<text transform="translate(161.9,666.1)" font-size="19.80" fill="#BFBFBF" stroke="none" xml:space="preserve">Global Carbon Project   &#9679;   Data: BP</text>
<g class="cc">
  <rect x="123.0" y="651.4" width="34" height="17" fill="#FFF" stroke="none"/>
  <g transform="translate(124.0,652.4) scale(0.24)">
  <g><circle fill="#FFF" cx="37.79" cy="28.5" r="28.84"/>
     <circle fill="none" cx="37.79" cy="28.5" r="28.84" stroke="#000" stroke-width="5.5"/>
     <path d="M37.16,23.19 l-4.29,2.23c-0.458-0.951-1.02-1.62-1.69-2c-0.667-0.38-1.29-0.571-1.86-0.571c-2.86,0-4.29,1.89-4.29,5.66 c0,1.71,0.36,3.08,1.09,4.11c0.724,1.03,1.79,1.54,3.2,1.54c1.87,0,3.18-0.915,3.94-2.74l3.94,2 c-0.838,1.56-2,2.79-3.49,3.69c-1.48,0.896-3.12,1.34-4.91,1.34c-2.86,0-5.16-0.875-6.92-2.63 c-1.75-1.75-2.63-4.19-2.63-7.31c0-3.05,0.886-5.47,2.66-7.26c1.77-1.79,4.01-2.69,6.72-2.69 C32.6,18.56,35.44,20.1,37.16,23.19z
              M55.61,23.19l-4.23,2.23c-0.457-0.951-1.02-1.62-1.69-2 c-0.668-0.38-1.31-0.571-1.91-0.571c-2.86,0-4.29,1.89-4.29,5.66c0,1.71,0.363,3.08,1.09,4.11 c0.723,1.03,1.79,1.54,3.2,1.54c1.87,0,3.18-0.915,3.94-2.74l4,2c-0.875,1.56-2.06,2.79-3.54,3.69 c-1.49,0.9-3.11,1.34-4.86,1.34c-2.9,0-5.21-0.875-6.94-2.63c-1.74-1.75-2.6-4.19-2.6-7.31 c0-3.05,0.885-5.47,2.66-7.26c1.77-1.79,4.01-2.69,6.71-2.69C51.12,18.56,53.944,20.1,55.61,23.19z"/>
  </g></g>
  <g transform="translate(140.2,652.4) scale(0.24)">
  <g><circle fill="#FFF" cx="37.79" cy="28.5" r="28.84"/>
     <circle fill="none" cx="37.79" cy="28.5" r="28.84" stroke="#000" stroke-width="5.5"/>
     <path d="M46.129,20.557v13.085h-3.656v15.542h-9.944V33.643h-3.656V20.557 c0-0.572,0.2-1.057,0.599-1.457c0.401-0.399,0.887-0.6,1.457-0.6h13.144c0.533,0,1.01,0.2,1.428,0.6 C45.918,19.5,46.129,19.986,46.129,20.557z
              M33.042,12.329c0-3.008,1.485-4.514,4.458-4.514s4.457,1.504,4.457,4.514 c0,2.971-1.486,4.457-4.457,4.457S33.042,15.3,33.042,12.329z"/>
  </g></g>
</g>
</g>
</svg>
