<svg version="1.1" xmlns="http://www.w3.org/2000/svg" xmlns:xlink="http://www.w3.org/1999/xlink" width="100%" height="100%" viewBox="0 0 1200.000 674.916">
<title>Weekly atmospheric CO2 at Mauna Loa</title>
<style type="text/css">
  #main {font-family:Helvetica,Arial,sans-serif; font-size:25.20px;
         fill-opacity:1; fill:#000000; stroke:none; stroke-linejoin:round; stroke-linecap:round; stroke-width:1.00;}
  .marker {stroke-opacity:0;fill-opacity:0;}
  .marker:hover {stroke-opacity:0.5; fill-opacity:1;}
  .ticklabel {font-size:25.20px;fill:#262626;stroke:none;font-family:Helvetica}
  .ytl {}
  .dp1 {pointer-events:none;font-size:70%;text-anchor:middle;fill:#000000;}
  .dp2 {pointer-events:none;font-size:70%;text-anchor:middle;fill:#FFFFFF;}
  .numtip {pointer-events:none;}
  .cc {opacity:0.25;}
.dl_fe {background-color:#FDFFDF;display:flex;margin:auto;align-items:center}
.dl_fe_p {font-size:20px;text-align:center;margin:3px}
.dl_el {display:none;pointer-events:none;}
.cc:hover + .dl_el {display:block;}
text:hover + .dl_el {display:block;}
</style>
<defs>
  <clipPath id="axis_clip"><rect x="156.2" y="50.8" width="929.6" height="549.7" /></clipPath>
  <path id="tick_y" d="M 156.000,0 h 6.000" stroke="#262626" stroke-width="0.90"/>
  <path id="tick_x" d="M 0,600.675 v -6.000" stroke="#262626" stroke-width="0.90"/>
</defs>
<g id="main">
<text class="ticklabel ytl" transform="translate(1102.8,589.0)">395</text>
<text class="ticklabel ytl" transform="translate(1102.8,525.1)">400</text>
<text class="ticklabel ytl" transform="translate(1102.8,461.1)">405</text>
<text class="ticklabel ytl" transform="translate(1102.8,397.2)">410</text>
<text class="ticklabel ytl" transform="translate(1102.8,333.2)">415</text>
<text class="ticklabel ytl" transform="translate(1102.8,269.2)">420</text>
<text class="ticklabel ytl" transform="translate(1102.8,205.3)">425</text>
<text class="ticklabel ytl" transform="translate(1102.8,141.3)">430</text>
<text class="ticklabel ytl" transform="translate(1102.8,77.4)">435 ppm</text>
<g id="areas">
  <g class="pg_1">
    <polygon class="pl" points="156.0,217.0 174.2,225.4 192.5,225.1 210.7,232.5 229.0,187.1 247.3,216.4 265.5,195.0 283.8,196.1 302.1,192.0 320.3,188.3 338.6,193.0 356.8,197.2 375.1,180.5 393.4,186.7 411.6,180.6 429.8,160.1 448.2,174.7 466.4,173.2 484.6,171.8 502.9,176.7 521.2,173.7 539.5,171.4 557.7,167.9 576.0,175.6 594.3,178.9 612.5,189.9 630.7,181.7 649.1,185.6 667.3,200.3 685.5,199.3 703.8,208.2 722.1,230.7 740.4,225.5 758.6,244.3 776.8,231.9 795.2,235.3 813.4,236.4 831.6,239.8 849.9,236.7 868.2,234.1 886.4,228.2 904.7,233.9 922.9,221.4 941.2,219.7 941.2,600.7 156.0,600.7" stroke="none" stroke-width="0.9000"  fill="#B83C02" clip-path="url(#axis_clip)"/>
<polyline class="pl" points="156.0,217.0 174.2,225.4 192.5,225.1 210.7,232.5 229.0,187.1 247.3,216.4 265.5,195.0 283.8,196.1 302.1,192.0 320.3,188.3 338.6,193.0 356.8,197.2 375.1,180.5 393.4,186.7 411.6,180.6 429.8,160.1 448.2,174.7 466.4,173.2 484.6,171.8 502.9,176.7 521.2,173.7 539.5,171.4 557.7,167.9 576.0,175.6 594.3,178.9 612.5,189.9 630.7,181.7 649.1,185.6 667.3,200.3 685.5,199.3 703.8,208.2 722.1,230.7 740.4,225.5 758.6,244.3 776.8,231.9 795.2,235.3 813.4,236.4 831.6,239.8 849.9,236.7 868.2,234.1 886.4,228.2 904.7,233.9 922.9,221.4 941.2,219.7" stroke="#000" stroke-width="0.90" stroke-opacity="1.00" fill="none" clip-path="url(#axis_clip)"/>
  </g>
  <g class="pg_1">
    <polygon class="pl" points="156.0,270.8 173.8,267.2 191.8,272.3 209.7,265.0 227.6,264.0 245.6,259.1 263.4,251.3 281.3,267.1 299.3,241.9 317.2,246.2 335.1,259.0 353.0,251.7 370.9,240.2 388.8,226.5 406.7,223.8 424.6,216.9 442.5,209.5 460.4,210.8 478.4,206.8 496.3,218.3 514.1,211.3 532.1,202.2 550.0,205.7 567.9,208.7 585.8,217.0 603.7,233.8 621.6,228.2 639.6,231.6 657.5,244.5 675.3,245.3 693.3,251.1 711.2,261.4 729.1,274.7 747.0,270.5 764.9,271.0 782.8,279.1 800.7,280.6 818.7,283.0 836.5,283.6 854.4,283.3 872.4,280.5 890.3,268.6 908.1,275.6 926.1,273.8 944.0,270.9 961.9,246.1 979.9,246.2 997.7,257.7 1015.6,248.6 1033.6,233.5 1051.5,233.0 1069.4,237.9 1087.3,229.5 1087.3,600.7 156.0,600.7" stroke="none" stroke-width="0.9000"  fill="#CA4101" clip-path="url(#axis_clip)"/>
<polyline class="pl" points="156.0,270.8 173.8,267.2 191.8,272.3 209.7,265.0 227.6,264.0 245.6,259.1 263.4,251.3 281.3,267.1 299.3,241.9 317.2,246.2 335.1,259.0 353.0,251.7 370.9,240.2 388.8,226.5 406.7,223.8 424.6,216.9 442.5,209.5 460.4,210.8 478.4,206.8 496.3,218.3 514.1,211.3 532.1,202.2 550.0,205.7 567.9,208.7 585.8,217.0 603.7,233.8 621.6,228.2 639.6,231.6 657.5,244.5 675.3,245.3 693.3,251.1 711.2,261.4 729.1,274.7 747.0,270.5 764.9,271.0 782.8,279.1 800.7,280.6 818.7,283.0 836.5,283.6 854.4,283.3 872.4,280.5 890.3,268.6 908.1,275.6 926.1,273.8 944.0,270.9 961.9,246.1 979.9,246.2 997.7,257.7 1015.6,248.6 1033.6,233.5 1051.5,233.0 1069.4,237.9 1087.3,229.5" stroke="#000" stroke-width="0.90" stroke-opacity="1.00" fill="none" clip-path="url(#axis_clip)"/>
  </g>
  <g class="pg_1">
    <polygon class="pl" points="156.0,295.3 174.3,283.7 192.6,292.6 210.7,273.3 229.0,272.6 247.3,282.9 265.6,265.0 283.9,267.2 302.1,272.4 320.3,281.3 338.6,283.4 356.9,285.6 375.1,257.6 393.4,259.8 411.7,260.3 429.9,257.5 448.2,259.9 466.4,260.0 484.7,248.0 503.0,249.9 521.3,243.3 539.4,241.5 557.7,245.6 576.0,249.2 594.3,251.2 612.6,258.4 630.7,265.7 649.0,274.1 667.3,282.4 685.6,289.8 703.9,285.4 722.1,296.4 740.3,297.2 758.6,306.2 776.9,306.5 795.1,309.1 813.4,312.9 831.7,319.0 849.9,318.9 868.2,322.8 886.4,319.8 904.7,314.9 923.0,309.5 941.3,307.9 959.4,298.3 977.7,296.9 996.0,281.1 1014.3,291.2 1032.6,274.4 1050.7,277.0 1069.0,272.0 1087.3,269.0 1087.3,600.7 156.0,600.7" stroke="none" stroke-width="0.9000"  fill="#D94801" clip-path="url(#axis_clip)"/>
<polyline class="pl" points="156.0,295.3 174.3,283.7 192.6,292.6 210.7,273.3 229.0,272.6 247.3,282.9 265.6,265.0 283.9,267.2 302.1,272.4 320.3,281.3 338.6,283.4 356.9,285.6 375.1,257.6 393.4,259.8 411.7,260.3 429.9,257.5 448.2,259.9 466.4,260.0 484.7,248.0 503.0,249.9 521.3,243.3 539.4,241.5 557.7,245.6 576.0,249.2 594.3,251.2 612.6,258.4 630.7,265.7 649.0,274.1 667.3,282.4 685.6,289.8 703.9,285.4 722.1,296.4 740.3,297.2 758.6,306.2 776.9,306.5 795.1,309.1 813.4,312.9 831.7,319.0 849.9,318.9 868.2,322.8 886.4,319.8 904.7,314.9 923.0,309.5 941.3,307.9 959.4,298.3 977.7,296.9 996.0,281.1 1014.3,291.2 1032.6,274.4 1050.7,277.0 1069.0,272.0 1087.3,269.0" stroke="#000" stroke-width="0.90" stroke-opacity="1.00" fill="none" clip-path="url(#axis_clip)"/>
  </g>
  <g class="pg_1">
    <polygon class="pl" points="156.0,321.0 174.3,325.1 192.6,320.7 210.8,313.1 229.1,298.9 247.3,301.5 265.6,306.7 283.9,309.3 302.2,288.2 320.4,301.2 338.6,290.3 356.9,291.4 375.2,287.5 393.5,271.4 411.6,275.1 429.9,285.2 448.2,262.1 466.5,268.2 484.8,281.5 503.0,273.8 521.2,275.9 539.5,268.0 557.8,268.5 576.0,274.1 594.3,281.6 612.5,286.8 630.8,294.6 649.1,293.9 667.3,303.8 685.6,318.6 703.9,326.2 722.1,331.8 740.3,327.2 758.6,341.1 776.9,348.8 795.2,347.0 813.4,350.5 831.6,347.8 849.9,347.0 868.2,343.4 886.5,340.2 904.8,334.3 922.9,340.1 941.2,336.6 959.5,326.5 977.8,327.7 996.0,321.4 1014.2,311.3 1032.5,315.0 1050.8,307.6 1069.1,294.3 1087.3,294.7 1087.3,600.7 156.0,600.7" stroke="none" stroke-width="0.9000"  fill="#E65607" clip-path="url(#axis_clip)"/>
<polyline class="pl" points="156.0,321.0 174.3,325.1 192.6,320.7 210.8,313.1 229.1,298.9 247.3,301.5 265.6,306.7 283.9,309.3 302.2,288.2 320.4,301.2 338.6,290.3 356.9,291.4 375.2,287.5 393.5,271.4 411.6,275.1 429.9,285.2 448.2,262.1 466.5,268.2 484.8,281.5 503.0,273.8 521.2,275.9 539.5,268.0 557.8,268.5 576.0,274.1 594.3,281.6 612.5,286.8 630.8,294.6 649.1,293.9 667.3,303.8 685.6,318.6 703.9,326.2 722.1,331.8 740.3,327.2 758.6,341.1 776.9,348.8 795.2,347.0 813.4,350.5 831.6,347.8 849.9,347.0 868.2,343.4 886.5,340.2 904.8,334.3 922.9,340.1 941.2,336.6 959.5,326.5 977.8,327.7 996.0,321.4 1014.2,311.3 1032.5,315.0 1050.8,307.6 1069.1,294.3 1087.3,294.7" stroke="#000" stroke-width="0.90" stroke-opacity="1.00" fill="none" clip-path="url(#axis_clip)"/>
  </g>
  <g class="pg_1">
    <polygon class="pl" points="156.0,343.8 174.2,351.2 192.5,340.4 210.8,335.4 229.0,331.9 247.3,330.5 265.5,335.0 283.8,339.5 302.1,337.5 320.3,334.3 338.7,332.0 356.9,316.1 375.1,313.5 393.4,304.5 411.7,306.7 429.9,311.7 448.2,299.8 466.4,299.6 484.7,300.1 503.0,297.8 521.2,291.9 539.4,294.8 557.8,305.8 576.0,307.5 594.2,309.4 612.5,317.5 630.8,319.9 649.1,329.1 667.3,337.4 685.5,345.9 703.9,346.5 722.1,351.9 740.3,356.5 758.6,361.8 776.9,366.7 795.1,369.4 813.4,368.2 831.6,374.3 849.9,373.4 868.2,373.5 886.4,372.7 904.6,367.6 923.0,368.0 941.2,364.5 959.5,351.5 977.8,354.6 996.0,337.9 1014.3,338.8 1032.5,343.6 1050.8,336.8 1069.1,327.9 1087.3,321.8 1087.3,600.7 156.0,600.7" stroke="none" stroke-width="0.9000"  fill="#F16913" clip-path="url(#axis_clip)"/>
<polyline class="pl" points="156.0,343.8 174.2,351.2 192.5,340.4 210.8,335.4 229.0,331.9 247.3,330.5 265.5,335.0 283.8,339.5 302.1,337.5 320.3,334.3 338.7,332.0 356.9,316.1 375.1,313.5 393.4,304.5 411.7,306.7 429.9,311.7 448.2,299.8 466.4,299.6 484.7,300.1 503.0,297.8 521.2,291.9 539.4,294.8 557.8,305.8 576.0,307.5 594.2,309.4 612.5,317.5 630.8,319.9 649.1,329.1 667.3,337.4 685.5,345.9 703.9,346.5 722.1,351.9 740.3,356.5 758.6,361.8 776.9,366.7 795.1,369.4 813.4,368.2 831.6,374.3 849.9,373.4 868.2,373.5 886.4,372.7 904.6,367.6 923.0,368.0 941.2,364.5 959.5,351.5 977.8,354.6 996.0,337.9 1014.3,338.8 1032.5,343.6 1050.8,336.8 1069.1,327.9 1087.3,321.8" stroke="#000" stroke-width="0.90" stroke-opacity="1.00" fill="none" clip-path="url(#axis_clip)"/>
  </g>
  <g class="pg_1">
    <polygon class="pl" points="156.0,378.6 174.2,382.6 192.5,361.6 210.8,373.9 229.0,366.2 247.3,356.0 265.5,374.4 283.8,356.1 302.1,359.3 320.4,359.3 338.5,363.8 356.8,370.0 375.1,358.9 393.4,346.8 411.7,340.7 429.9,338.6 448.1,331.8 466.4,331.5 484.7,317.7 503.0,326.0 521.2,331.8 539.5,330.8 557.7,334.6 576.0,337.4 594.2,343.2 612.5,343.0 630.8,360.2 649.1,359.3 667.3,375.9 685.5,386.0 703.8,382.4 722.1,383.5 740.4,392.3 758.6,394.0 776.8,402.0 795.1,404.8 813.4,406.0 831.7,408.3 849.9,412.9 868.2,407.5 886.4,404.4 904.7,403.2 922.9,395.9 941.2,388.1 959.5,384.4 977.8,384.5 996.0,377.7 1014.2,373.2 1032.5,370.0 1050.8,362.7 1069.1,358.7 1087.4,348.8 1087.4,600.7 156.0,600.7" stroke="none" stroke-width="0.9000"  fill="#F97C26" clip-path="url(#axis_clip)"/>
<polyline class="pl" points="156.0,378.6 174.2,382.6 192.5,361.6 210.8,373.9 229.0,366.2 247.3,356.0 265.5,374.4 283.8,356.1 302.1,359.3 320.4,359.3 338.5,363.8 356.8,370.0 375.1,358.9 393.4,346.8 411.7,340.7 429.9,338.6 448.1,331.8 466.4,331.5 484.7,317.7 503.0,326.0 521.2,331.8 539.5,330.8 557.7,334.6 576.0,337.4 594.2,343.2 612.5,343.0 630.8,360.2 649.1,359.3 667.3,375.9 685.5,386.0 703.8,382.4 722.1,383.5 740.4,392.3 758.6,394.0 776.8,402.0 795.1,404.8 813.4,406.0 831.7,408.3 849.9,412.9 868.2,407.5 886.4,404.4 904.7,403.2 922.9,395.9 941.2,388.1 959.5,384.4 977.8,384.5 996.0,377.7 1014.2,373.2 1032.5,370.0 1050.8,362.7 1069.1,358.7 1087.4,348.8" stroke="#000" stroke-width="0.90" stroke-opacity="1.00" fill="none" clip-path="url(#axis_clip)"/>
  </g>
  <g class="pg_1">
    <polygon class="pl" points="156.0,411.0 174.3,414.2 192.6,409.2 210.7,414.3 229.0,410.1 247.3,408.0 265.6,406.9 283.9,401.2 302.1,389.2 320.3,403.6 338.6,398.3 356.9,386.8 375.1,397.4 393.4,394.1 411.7,373.6 429.9,365.6 448.2,391.4 466.4,373.6 484.7,363.1 503.0,368.5 521.3,369.0 539.4,375.0 557.7,372.2 576.0,382.4 594.3,379.9 612.6,394.7 630.7,397.9 649.0,405.7 667.3,409.1 685.6,419.7 703.9,422.6 722.1,424.7 740.3,427.6 758.6,436.9 776.9,444.9 795.1,446.1 813.4,442.3 831.7,444.2 849.9,444.7 868.2,443.7 886.4,438.2 904.7,430.4 923.0,432.2 941.3,425.7 959.4,403.2 977.7,405.2 996.0,407.8 1014.3,406.4 1032.6,394.7 1050.8,395.9 1069.0,398.2 1087.3,392.2 1087.3,600.7 156.0,600.7" stroke="none" stroke-width="0.9000"  fill="#FD8D3C" clip-path="url(#axis_clip)"/>
<polyline class="pl" points="156.0,411.0 174.3,414.2 192.6,409.2 210.7,414.3 229.0,410.1 247.3,408.0 265.6,406.9 283.9,401.2 302.1,389.2 320.3,403.6 338.6,398.3 356.9,386.8 375.1,397.4 393.4,394.1 411.7,373.6 429.9,365.6 448.2,391.4 466.4,373.6 484.7,363.1 503.0,368.5 521.3,369.0 539.4,375.0 557.7,372.2 576.0,382.4 594.3,379.9 612.6,394.7 630.7,397.9 649.0,405.7 667.3,409.1 685.6,419.7 703.9,422.6 722.1,424.7 740.3,427.6 758.6,436.9 776.9,444.9 795.1,446.1 813.4,442.3 831.7,444.2 849.9,444.7 868.2,443.7 886.4,438.2 904.7,430.4 923.0,432.2 941.3,425.7 959.4,403.2 977.7,405.2 996.0,407.8 1014.3,406.4 1032.6,394.7 1050.8,395.9 1069.0,398.2 1087.3,392.2" stroke="#000" stroke-width="0.90" stroke-opacity="1.00" fill="none" clip-path="url(#axis_clip)"/>
  </g>
  <g class="pg_1">
    <polygon class="pl" points="156.0,439.0 173.8,438.2 191.8,435.5 209.7,431.7 227.6,435.3 245.6,437.4 263.4,439.0 281.3,425.8 299.3,420.3 317.2,436.4 335.1,418.1 353.0,427.7 370.9,407.5 388.8,417.2 406.7,402.0 424.6,391.7 442.5,387.6 460.4,397.4 478.4,395.7 496.3,381.9 514.1,387.0 532.1,392.5 550.0,391.0 567.9,394.3 585.8,408.7 603.7,415.8 621.6,411.6 639.6,424.7 657.5,427.9 675.3,428.9 693.3,432.3 711.2,444.2 729.1,448.6 747.0,456.9 764.9,461.4 782.8,467.8 800.7,468.0 818.7,476.0 836.5,479.8 854.4,477.4 872.4,471.3 890.3,464.6 908.1,463.9 926.1,462.0 944.0,460.7 961.9,450.2 979.9,436.8 997.7,434.1 1015.6,428.8 1033.6,431.3 1051.5,428.1 1069.4,422.7 1087.3,420.7 1087.3,600.7 156.0,600.7" stroke="none" stroke-width="0.9000"  fill="#FD994C" clip-path="url(#axis_clip)"/>
<polyline class="pl" points="156.0,439.0 173.8,438.2 191.8,435.5 209.7,431.7 227.6,435.3 245.6,437.4 263.4,439.0 281.3,425.8 299.3,420.3 317.2,436.4 335.1,418.1 353.0,427.7 370.9,407.5 388.8,417.2 406.7,402.0 424.6,391.7 442.5,387.6 460.4,397.4 478.4,395.7 496.3,381.9 514.1,387.0 532.1,392.5 550.0,391.0 567.9,394.3 585.8,408.7 603.7,415.8 621.6,411.6 639.6,424.7 657.5,427.9 675.3,428.9 693.3,432.3 711.2,444.2 729.1,448.6 747.0,456.9 764.9,461.4 782.8,467.8 800.7,468.0 818.7,476.0 836.5,479.8 854.4,477.4 872.4,471.3 890.3,464.6 908.1,463.9 926.1,462.0 944.0,460.7 961.9,450.2 979.9,436.8 997.7,434.1 1015.6,428.8 1033.6,431.3 1051.5,428.1 1069.4,422.7 1087.3,420.7" stroke="#000" stroke-width="0.90" stroke-opacity="1.00" fill="none" clip-path="url(#axis_clip)"/>
  </g>
  <g class="pg_1">
    <polygon class="pl" points="156.0,487.8 174.3,483.6 192.6,482.0 210.8,474.9 229.0,456.8 247.4,466.6 265.6,468.3 283.8,458.8 302.1,463.3 320.4,464.1 338.6,454.0 356.9,442.7 375.1,445.4 393.4,430.8 411.7,403.6 429.9,419.8 448.2,416.5 466.5,418.6 484.7,414.6 503.0,421.7 521.2,408.7 539.5,419.8 557.8,427.5 576.0,423.0 594.2,429.9 612.6,438.6 630.8,444.0 649.0,457.7 667.3,471.6 685.6,465.8 703.8,470.5 722.1,478.1 740.4,491.3 758.6,490.5 776.9,502.7 795.1,502.4 813.4,498.7 831.7,503.7 849.9,505.5 868.1,503.1 886.5,494.8 904.7,493.7 923.0,487.5 941.2,479.2 959.5,479.2 977.8,469.0 996.0,463.9 1014.2,456.8 1032.6,465.2 1050.8,453.2 1069.0,458.4 1087.3,454.1 1087.3,600.7 156.0,600.7" stroke="none" stroke-width="0.9000"  fill="#FDA35A" clip-path="url(#axis_clip)"/>
<polyline class="pl" points="156.0,487.8 174.3,483.6 192.6,482.0 210.8,474.9 229.0,456.8 247.4,466.6 265.6,468.3 283.8,458.8 302.1,463.3 320.4,464.1 338.6,454.0 356.9,442.7 375.1,445.4 393.4,430.8 411.7,403.6 429.9,419.8 448.2,416.5 466.5,418.6 484.7,414.6 503.0,421.7 521.2,408.7 539.5,419.8 557.8,427.5 576.0,423.0 594.2,429.9 612.6,438.6 630.8,444.0 649.0,457.7 667.3,471.6 685.6,465.8 703.8,470.5 722.1,478.1 740.4,491.3 758.6,490.5 776.9,502.7 795.1,502.4 813.4,498.7 831.7,503.7 849.9,505.5 868.1,503.1 886.5,494.8 904.7,493.7 923.0,487.5 941.2,479.2 959.5,479.2 977.8,469.0 996.0,463.9 1014.2,456.8 1032.6,465.2 1050.8,453.2 1069.0,458.4 1087.3,454.1" stroke="#000" stroke-width="0.90" stroke-opacity="1.00" fill="none" clip-path="url(#axis_clip)"/>
  </g>
  <g class="pg_1">
    <polygon class="pl" points="156.0,516.9 174.3,512.9 192.5,521.4 210.8,512.5 229.0,511.9 247.3,515.7 265.6,516.1 283.8,498.0 302.1,498.6 320.3,489.0 338.6,505.1 356.8,492.3 375.1,491.9 393.4,474.2 411.7,463.4 429.9,475.7 448.1,466.5 466.4,462.1 484.7,464.3 503.0,464.3 521.3,466.5 539.4,474.4 557.7,473.9 576.0,484.8 594.3,480.7 612.5,487.7 630.8,493.2 649.0,497.4 667.3,499.2 685.6,512.7 703.8,536.2 722.1,525.6 740.4,526.2 758.6,529.8 776.8,534.4 795.1,543.6 813.4,550.4 831.7,549.3 850.0,550.7 868.1,535.9 886.4,538.4 904.7,534.0 923.0,534.4 941.2,527.0 959.5,514.7 977.7,510.5 996.0,510.1 1014.3,504.7 1032.5,498.1 1050.8,484.9 1069.0,481.6 1087.3,488.4 1087.3,600.7 156.0,600.7" stroke="none" stroke-width="0.9000"  fill="#FDAE6B" clip-path="url(#axis_clip)"/>
<polyline class="pl" points="156.0,516.9 174.3,512.9 192.5,521.4 210.8,512.5 229.0,511.9 247.3,515.7 265.6,516.1 283.8,498.0 302.1,498.6 320.3,489.0 338.6,505.1 356.8,492.3 375.1,491.9 393.4,474.2 411.7,463.4 429.9,475.7 448.1,466.5 466.4,462.1 484.7,464.3 503.0,464.3 521.3,466.5 539.4,474.4 557.7,473.9 576.0,484.8 594.3,480.7 612.5,487.7 630.8,493.2 649.0,497.4 667.3,499.2 685.6,512.7 703.8,536.2 722.1,525.6 740.4,526.2 758.6,529.8 776.8,534.4 795.1,543.6 813.4,550.4 831.7,549.3 850.0,550.7 868.1,535.9 886.4,538.4 904.7,534.0 923.0,534.4 941.2,527.0 959.5,514.7 977.7,510.5 996.0,510.1 1014.3,504.7 1032.5,498.1 1050.8,484.9 1069.0,481.6 1087.3,488.4" stroke="#000" stroke-width="0.90" stroke-opacity="1.00" fill="none" clip-path="url(#axis_clip)"/>
  </g>
  <g class="pg_1">
    <polygon class="pl" points="156.0,537.9 174.3,544.0 192.6,541.2 210.8,542.9 229.0,541.1 247.3,542.3 265.6,539.7 283.9,537.1 302.2,534.9 320.3,516.6 338.6,500.1 356.9,513.7 375.2,507.3 393.4,501.0 411.7,495.5 429.9,494.9 448.2,493.0 466.5,493.2 484.7,493.1 503.0,492.8 521.2,491.9 539.5,492.1 557.7,496.0 576.0,502.0 594.3,503.2 612.6,512.4 630.8,517.5 649.0,530.6 667.3,530.7 685.6,548.5 703.9,543.9 722.1,551.0 740.3,555.5 758.6,563.8 776.9,562.3 795.2,579.1 813.4,578.2 831.6,573.8 849.9,575.5 868.2,572.3 886.5,571.4 904.7,568.7 923.0,548.2 941.2,557.2 959.5,551.7 977.7,550.4 996.0,542.9 1014.3,538.8 1032.5,526.7 1050.8,526.7 1069.0,528.9 1087.3,517.1 1087.3,600.7 156.0,600.7" stroke="none" stroke-width="0.9000"  fill="#FDC087" clip-path="url(#axis_clip)"/>
<polyline class="pl" points="156.0,537.9 174.3,544.0 192.6,541.2 210.8,542.9 229.0,541.1 247.3,542.3 265.6,539.7 283.9,537.1 302.2,534.9 320.3,516.6 338.6,500.1 356.9,513.7 375.2,507.3 393.4,501.0 411.7,495.5 429.9,494.9 448.2,493.0 466.5,493.2 484.7,493.1 503.0,492.8 521.2,491.9 539.5,492.1 557.7,496.0 576.0,502.0 594.3,503.2 612.6,512.4 630.8,517.5 649.0,530.6 667.3,530.7 685.6,548.5 703.9,543.9 722.1,551.0 740.3,555.5 758.6,563.8 776.9,562.3 795.2,579.1 813.4,578.2 831.6,573.8 849.9,575.5 868.2,572.3 886.5,571.4 904.7,568.7 923.0,548.2 941.2,557.2 959.5,551.7 977.7,550.4 996.0,542.9 1014.3,538.8 1032.5,526.7 1050.8,526.7 1069.0,528.9 1087.3,517.1" stroke="#000" stroke-width="0.90" stroke-opacity="1.00" fill="none" clip-path="url(#axis_clip)"/>
  </g>
  <g class="pg_1">
    <polygon class="pl" points="156.0,573.8 174.2,566.0 192.5,568.6 210.8,568.8 229.0,557.7 247.3,553.3 265.5,551.2 283.8,556.4 302.1,544.6 320.4,553.7 338.5,548.5 356.8,540.7 375.1,539.3 393.4,543.1 411.7,540.7 429.9,524.7 448.1,520.6 466.4,520.7 484.7,517.8 503.0,515.4 521.2,516.0 539.5,525.2 557.7,532.9 576.0,538.9 594.2,532.4 612.5,537.6 630.8,544.0 649.1,552.4 667.3,555.8 685.5,557.6 703.8,570.5 722.1,577.4 740.4,577.1 758.6,588.9 776.8,593.6 795.1,599.5 813.4,597.7 831.7,599.7 849.9,600.4 868.2,600.0 886.4,595.8 904.7,591.8 922.9,588.7 941.2,585.7 959.5,572.1 977.8,580.6 996.0,566.1 1014.2,562.8 1032.5,564.5 1050.8,548.1 1069.1,550.0 1087.4,548.2 1087.4,600.7 156.0,600.7" stroke="none" stroke-width="0.9000"  fill="#FDD0A2" clip-path="url(#axis_clip)"/>
<polyline class="pl" points="156.0,573.8 174.2,566.0 192.5,568.6 210.8,568.8 229.0,557.7 247.3,553.3 265.5,551.2 283.8,556.4 302.1,544.6 320.4,553.7 338.5,548.5 356.8,540.7 375.1,539.3 393.4,543.1 411.7,540.7 429.9,524.7 448.1,520.6 466.4,520.7 484.7,517.8 503.0,515.4 521.2,516.0 539.5,525.2 557.7,532.9 576.0,538.9 594.2,532.4 612.5,537.6 630.8,544.0 649.1,552.4 667.3,555.8 685.5,557.6 703.8,570.5 722.1,577.4 740.4,577.1 758.6,588.9 776.8,593.6 795.1,599.5 813.4,597.7 831.7,599.7 849.9,600.4 868.2,600.0 886.4,595.8 904.7,591.8 922.9,588.7 941.2,585.7 959.5,572.1 977.8,580.6 996.0,566.1 1014.2,562.8 1032.5,564.5 1050.8,548.1 1069.1,550.0 1087.4,548.2" stroke="#000" stroke-width="0.90" stroke-opacity="1.00" fill="none" clip-path="url(#axis_clip)"/>
  </g>
  <g class="pg_1">
    <polygon class="pl" points="156.0,605.2 173.9,599.8 191.8,604.9 209.7,600.3 227.6,601.6 245.5,595.6 263.4,598.4 281.3,586.5 299.3,588.5 317.2,597.7 335.0,588.4 352.9,581.7 370.9,577.4 388.8,575.0 406.7,558.3 424.7,564.2 442.5,558.5 460.4,554.5 478.3,551.8 496.3,553.6 514.2,564.7 532.1,562.6 550.0,569.6 567.9,563.2 585.8,571.6 603.7,575.7 621.6,579.6 639.6,587.1 657.5,585.8 675.3,590.7 693.2,599.1 711.2,601.6 729.1,610.8 747.0,625.4 764.9,620.0 782.8,619.1 800.7,631.4 818.6,632.8 836.5,631.5 854.5,632.4 872.4,630.4 890.3,631.1 908.1,625.5 926.1,622.7 944.0,613.2 961.9,600.9 979.8,602.1 997.8,595.2 1015.6,595.8 1033.5,586.3 1051.5,584.7 1069.4,580.7 1087.3,585.1 1087.3,600.7 156.0,600.7" stroke="none" stroke-width="0.9000"  fill="#FDD9B3" clip-path="url(#axis_clip)"/>
<polyline class="pl" points="156.0,605.2 173.9,599.8 191.8,604.9 209.7,600.3 227.6,601.6 245.5,595.6 263.4,598.4 281.3,586.5 299.3,588.5 317.2,597.7 335.0,588.4 352.9,581.7 370.9,577.4 388.8,575.0 406.7,558.3 424.7,564.2 442.5,558.5 460.4,554.5 478.3,551.8 496.3,553.6 514.2,564.7 532.1,562.6 550.0,569.6 567.9,563.2 585.8,571.6 603.7,575.7 621.6,579.6 639.6,587.1 657.5,585.8 675.3,590.7 693.2,599.1 711.2,601.6 729.1,610.8 747.0,625.4 764.9,620.0 782.8,619.1 800.7,631.4 818.6,632.8 836.5,631.5 854.5,632.4 872.4,630.4 890.3,631.1 908.1,625.5 926.1,622.7 944.0,613.2 961.9,600.9 979.8,602.1 997.8,595.2 1015.6,595.8 1033.5,586.3 1051.5,584.7 1069.4,580.7 1087.3,585.1" stroke="#000" stroke-width="0.90" stroke-opacity="1.00" fill="none" clip-path="url(#axis_clip)"/>
  </g>
  <g class="pg_1">
    <polygon class="pl" points="156.0,623.2 174.3,633.2 192.6,623.7 210.7,625.5 229.0,616.5 247.3,624.6 265.6,621.9 283.9,616.8 302.1,616.5 320.3,619.0 338.6,611.0 356.9,605.9 375.1,591.6 393.4,604.6 411.7,603.5 429.9,597.7 448.2,600.7 466.4,590.1 484.7,606.0 503.0,580.2 521.3,577.8 539.4,589.0 557.7,598.1 576.0,594.3 594.3,597.5 612.6,598.8 630.7,598.0 649.0,600.8 667.3,626.0 685.6,617.4 703.9,627.5 722.1,635.2 740.3,641.1 758.6,650.7 776.9,649.3 795.1,655.2 813.4,653.8 831.7,654.5 849.9,659.9 868.2,658.5 886.4,658.1 904.7,655.3 923.0,652.6 941.3,647.9 959.4,645.8 977.7,637.0 996.0,636.5 1014.3,628.3 1032.6,625.5 1050.7,617.2 1069.0,611.5 1087.3,614.7 1087.3,600.7 156.0,600.7" stroke="none" stroke-width="0.9000"  fill="#FEDFC0" clip-path="url(#axis_clip)"/>
<polyline class="pl" points="156.0,623.2 174.3,633.2 192.6,623.7 210.7,625.5 229.0,616.5 247.3,624.6 265.6,621.9 283.9,616.8 302.1,616.5 320.3,619.0 338.6,611.0 356.9,605.9 375.1,591.6 393.4,604.6 411.7,603.5 429.9,597.7 448.2,600.7 466.4,590.1 484.7,606.0 503.0,580.2 521.3,577.8 539.4,589.0 557.7,598.1 576.0,594.3 594.3,597.5 612.6,598.8 630.7,598.0 649.0,600.8 667.3,626.0 685.6,617.4 703.9,627.5 722.1,635.2 740.3,641.1 758.6,650.7 776.9,649.3 795.1,655.2 813.4,653.8 831.7,654.5 849.9,659.9 868.2,658.5 886.4,658.1 904.7,655.3 923.0,652.6 941.3,647.9 959.4,645.8 977.7,637.0 996.0,636.5 1014.3,628.3 1032.6,625.5 1050.7,617.2 1069.0,611.5 1087.3,614.7" stroke="#000" stroke-width="0.90" stroke-opacity="1.00" fill="none" clip-path="url(#axis_clip)"/>
  </g>
  <g class="pg_1">
    <polygon class="pl" points="156.0,666.3 174.3,664.1 192.6,664.1 210.8,655.6 229.1,633.8 247.3,638.4 265.6,639.9 283.9,648.1 302.2,630.9 320.4,625.1 338.6,627.8 356.9,639.1 375.2,620.4 393.5,627.7 411.6,608.0 429.9,600.3 448.2,601.7 466.5,604.5 484.8,609.5 503.0,598.9 521.2,608.0 539.5,600.5 557.8,607.2 576.0,618.6 594.3,621.7 612.5,628.0 630.8,635.6 649.1,644.7 667.3,639.4 685.6,644.9 703.9,657.3 722.1,658.0 740.3,662.5 758.6,673.6 776.9,674.6 795.2,692.5 813.4,680.8 831.6,684.3 849.9,684.2 868.2,682.0 886.5,683.6 904.8,675.9 922.9,670.8 941.2,668.0 959.5,667.8 977.8,660.5 996.0,649.4 1014.2,647.2 1032.5,645.8 1050.8,650.1 1069.1,641.1 1087.3,643.8 1087.3,600.7 156.0,600.7" stroke="none" stroke-width="0.9000"  fill="#FEE6CE" clip-path="url(#axis_clip)"/>
<polyline class="pl" points="156.0,666.3 174.3,664.1 192.6,664.1 210.8,655.6 229.1,633.8 247.3,638.4 265.6,639.9 283.9,648.1 302.2,630.9 320.4,625.1 338.6,627.8 356.9,639.1 375.2,620.4 393.5,627.7 411.6,608.0 429.9,600.3 448.2,601.7 466.5,604.5 484.8,609.5 503.0,598.9 521.2,608.0 539.5,600.5 557.8,607.2 576.0,618.6 594.3,621.7 612.5,628.0 630.8,635.6 649.1,644.7 667.3,639.4 685.6,644.9 703.9,657.3 722.1,658.0 740.3,662.5 758.6,673.6 776.9,674.6 795.2,692.5 813.4,680.8 831.6,684.3 849.9,684.2 868.2,682.0 886.5,683.6 904.8,675.9 922.9,670.8 941.2,668.0 959.5,667.8 977.8,660.5 996.0,649.4 1014.2,647.2 1032.5,645.8 1050.8,650.1 1069.1,641.1 1087.3,643.8" stroke="#000" stroke-width="0.90" stroke-opacity="1.00" fill="none" clip-path="url(#axis_clip)"/>
  </g>
  <g class="pg_1">
    <polygon class="pl" points="156.0,688.6 174.3,680.8 192.5,679.1 210.8,674.4 229.0,680.6 247.3,681.8 265.6,673.1 283.8,665.3 302.1,654.4 320.3,657.9 338.6,665.7 356.8,651.7 375.1,654.9 393.4,649.9 411.7,656.3 429.9,648.3 448.1,636.0 466.4,645.7 484.7,640.5 503.0,637.8 521.3,637.5 539.4,644.6 557.7,640.1 576.0,650.1 594.3,661.8 612.5,659.5 630.8,662.1 649.0,663.7 667.3,672.4 685.6,676.4 703.8,680.2 722.1,693.8 740.4,697.8 758.6,698.8 776.8,704.8 795.1,710.8 813.4,709.9 831.7,711.5 850.0,719.3 868.1,721.2 886.4,714.8 904.7,710.4 923.0,706.6 941.2,702.0 959.5,697.9 977.7,689.6 996.0,689.1 1014.3,680.2 1032.5,681.5 1050.8,682.9 1069.0,663.2 1087.3,660.8 1087.3,600.7 156.0,600.7" stroke="none" stroke-width="0.9000"  fill="#FEEDDD" clip-path="url(#axis_clip)"/>
<polyline class="pl" points="156.0,688.6 174.3,680.8 192.5,679.1 210.8,674.4 229.0,680.6 247.3,681.8 265.6,673.1 283.8,665.3 302.1,654.4 320.3,657.9 338.6,665.7 356.8,651.7 375.1,654.9 393.4,649.9 411.7,656.3 429.9,648.3 448.1,636.0 466.4,645.7 484.7,640.5 503.0,637.8 521.3,637.5 539.4,644.6 557.7,640.1 576.0,650.1 594.3,661.8 612.5,659.5 630.8,662.1 649.0,663.7 667.3,672.4 685.6,676.4 703.8,680.2 722.1,693.8 740.4,697.8 758.6,698.8 776.8,704.8 795.1,710.8 813.4,709.9 831.7,711.5 850.0,719.3 868.1,721.2 886.4,714.8 904.7,710.4 923.0,706.6 941.2,702.0 959.5,697.9 977.7,689.6 996.0,689.1 1014.3,680.2 1032.5,681.5 1050.8,682.9 1069.0,663.2 1087.3,660.8" stroke="#000" stroke-width="0.90" stroke-opacity="1.00" fill="none" clip-path="url(#axis_clip)"/>
  </g>
  <g class="pg_1">
    <polygon class="pl" points="156.0,713.6 174.3,696.0 192.6,693.4 210.8,683.6 229.0,693.4 247.4,694.1 265.6,702.5 283.8,701.5 302.1,695.8 320.4,697.3 338.6,695.6 356.9,684.2 375.1,667.1 393.4,684.1 411.7,687.4 429.9,676.4 448.2,677.2 466.5,661.2 484.7,656.8 503.0,656.6 521.2,660.5 539.5,661.3 557.8,674.4 576.0,669.6 594.2,677.0 667.3,688.8 685.6,707.6 703.8,703.5 722.1,720.0 740.3,723.4 758.6,728.3 776.9,725.7 795.1,731.5 813.4,727.3 831.7,731.4 849.9,735.4 868.2,733.7 886.5,734.1 904.7,731.3 923.0,719.5 941.2,722.1 959.5,718.0 977.8,714.9 996.0,713.0 1014.2,705.8 1032.6,702.8 1050.8,699.6 1069.0,694.7 1087.3,690.7 1087.3,600.7 156.0,600.7" stroke="none" stroke-width="0.9000"  fill="#FFF5EB" clip-path="url(#axis_clip)"/>
<polyline class="pl" points="156.0,713.6 174.3,696.0 192.6,693.4 210.8,683.6 229.0,693.4 247.4,694.1 265.6,702.5 283.8,701.5 302.1,695.8 320.4,697.3 338.6,695.6 356.9,684.2 375.1,667.1 393.4,684.1 411.7,687.4 429.9,676.4 448.2,677.2 466.5,661.2 484.7,656.8 503.0,656.6 521.2,660.5 539.5,661.3 557.8,674.4 576.0,669.6 594.2,677.0 667.3,688.8 685.6,707.6 703.8,703.5 722.1,720.0 740.3,723.4 758.6,728.3 776.9,725.7 795.1,731.5 813.4,727.3 831.7,731.4 849.9,735.4 868.2,733.7 886.5,734.1 904.7,731.3 923.0,719.5 941.2,722.1 959.5,718.0 977.8,714.9 996.0,713.0 1014.2,705.8 1032.6,702.8 1050.8,699.6 1069.0,694.7 1087.3,690.7" stroke="#000" stroke-width="0.90" stroke-opacity="1.00" fill="none" clip-path="url(#axis_clip)"/>
  </g>
</g>
<text transform="translate(156.0,43.9)" dy="0.0" font-size="27.00" fill="#808080" stroke="none">Weekly atmospheric CO<tspan dy="0.2em"><tspan style="font-size:70%">2</tspan></tspan><tspan dy="-0.2em"> </tspan>at Mauna Loa</text>
<polyline class="pl" points="156.0,581.5 1086.0,581.5" stroke="#000" stroke-width="0.18" stroke-dasharray="2 4" stroke-opacity="1.00" fill="none" clip-path="url(#axis_clip)"/>
<polyline class="pl" points="156.0,517.5 1086.0,517.5" stroke="#000" stroke-width="0.18" stroke-dasharray="2 4" stroke-opacity="1.00" fill="none" clip-path="url(#axis_clip)"/>
<polyline class="pl" points="156.0,453.6 1086.0,453.6" stroke="#000" stroke-width="0.18" stroke-dasharray="2 4" stroke-opacity="1.00" fill="none" clip-path="url(#axis_clip)"/>
<polyline class="pl" points="156.0,389.6 1086.0,389.6" stroke="#000" stroke-width="0.18" stroke-dasharray="2 4" stroke-opacity="1.00" fill="none" clip-path="url(#axis_clip)"/>
<polyline class="pl" points="156.0,325.6 1086.0,325.6" stroke="#000" stroke-width="0.18" stroke-dasharray="2 4" stroke-opacity="1.00" fill="none" clip-path="url(#axis_clip)"/>
<polyline class="pl" points="156.0,261.7 1086.0,261.7" stroke="#000" stroke-width="0.18" stroke-dasharray="2 4" stroke-opacity="1.00" fill="none" clip-path="url(#axis_clip)"/>
<polyline class="pl" points="156.0,197.7 1086.0,197.7" stroke="#000" stroke-width="0.18" stroke-dasharray="2 4" stroke-opacity="1.00" fill="none" clip-path="url(#axis_clip)"/>
<polyline class="pl" points="156.0,133.8 1086.0,133.8" stroke="#000" stroke-width="0.18" stroke-dasharray="2 4" stroke-opacity="1.00" fill="none" clip-path="url(#axis_clip)"/>
<polyline class="pl" points="156.0,69.8 1086.0,69.8" stroke="#000" stroke-width="0.18" stroke-dasharray="2 4" stroke-opacity="1.00" fill="none" clip-path="url(#axis_clip)"/>
<text transform="translate(138.0,587.2)" dy="6.5" font-size="21.60" fill="#FFF5EB" stroke="none" text-anchor="end">2013</text>
<text transform="translate(138.0,555.8)" dy="6.5" font-size="21.60" fill="#FEEDDD" stroke="none" text-anchor="end">2014</text>
<text transform="translate(138.0,527.4)" dy="6.5" font-size="21.60" fill="#FEE6CE" stroke="none" text-anchor="end">2015</text>
<text transform="translate(138.0,502.4)" dy="6.5" font-size="21.60" fill="#FEDFC0" stroke="none" text-anchor="end">2016</text>
<text transform="translate(138.0,463.4)" dy="6.5" font-size="21.60" fill="#FDD9B3" stroke="none" text-anchor="end">2017</text>
<text transform="translate(138.0,425.0)" dy="6.5" font-size="21.60" fill="#FDD0A2" stroke="none" text-anchor="end">2018</text>
<text transform="translate(138.0,394.8)" dy="6.5" font-size="21.60" fill="#FDC087" stroke="none" text-anchor="end">2019</text>
<text transform="translate(138.0,361.2)" dy="6.5" font-size="21.60" fill="#FDAE6B" stroke="none" text-anchor="end">2020</text>
<text transform="translate(138.0,332.4)" dy="6.5" font-size="21.60" fill="#FDA35A" stroke="none" text-anchor="end">2021</text>
<text transform="translate(138.0,308.2)" dy="6.5" font-size="21.60" fill="#FD994C" stroke="none" text-anchor="end">2022</text>
<text transform="translate(138.0,283.0)" dy="6.5" font-size="21.60" fill="#FD8D3C" stroke="none" text-anchor="end">2023</text>
<text transform="translate(138.0,243.9)" dy="6.5" font-size="21.60" fill="#F97C26" stroke="none" text-anchor="end">2024</text>
<g stroke="none" stroke-width="0.9000"  >
  <polygon points="941.2,219.7 905.2,192.7 782.5,192.7 782.5,158.7 949.6,158.7 949.6,192.7 929.2,192.7 941.2,219.7" fill="#2171B5"/>
</g>
<text transform="translate(794.5,175.7)" dy="6.5" font-size="21.60" fill="#FFF" stroke="none">3 Nov &#8211; 9 Nov</text>
<text transform="translate(156.0,607.4)" dy="25.2" font-size="25.20" fill="#000" stroke="none">January</text>
<text transform="translate(1086.0,607.4)" dy="25.2" font-size="25.20" fill="#000" stroke="none" text-anchor="end">December</text>
<text transform="translate(163.2,666.1)" font-size="19.80" font-family="Helvetica" fill="#BFBFBF" stroke="none" xml:space="preserve">Global Carbon Project</text>
<use xlink:href="#tick_y" transform="translate(0,581.5)"/>
<use xlink:href="#tick_y" transform="translate(0,517.5)"/>
<use xlink:href="#tick_y" transform="translate(0,453.6)"/>
<use xlink:href="#tick_y" transform="translate(0,389.6)"/>
<use xlink:href="#tick_y" transform="translate(0,325.6)"/>
<use xlink:href="#tick_y" transform="translate(0,261.7)"/>
<use xlink:href="#tick_y" transform="translate(0,197.7)"/>
<use xlink:href="#tick_y" transform="translate(0,133.8)"/>
<use xlink:href="#tick_y" transform="translate(0,69.8)"/>
<rect x="156.000" y="50.619" width="930.000" height="550.056" stroke="#262626" stroke-width="0.90" fill="none"/>
<g>
  <rect x="133.4" y="651.4" width="34" height="17" fill="#FFF" stroke="none"/>
  <g transform="translate(134.4,652.4) scale(0.24)">
  <g><circle fill="#FFF" cx="37.79" cy="28.5" r="28.84"/>
     <circle fill="none" cx="37.79" cy="28.5" r="28.84" stroke="#BFBFBF" stroke-width="5.5"/>
     <path fill="#BFBFBF" d="M37.16,23.19 l-4.29,2.23c-0.458-0.951-1.02-1.62-1.69-2c-0.667-0.38-1.29-0.571-1.86-0.571c-2.86,0-4.29,1.89-4.29,5.66 c0,1.71,0.36,3.08,1.09,4.11c0.724,1.03,1.79,1.54,3.2,1.54c1.87,0,3.18-0.915,3.94-2.74l3.94,2 c-0.838,1.56-2,2.79-3.49,3.69c-1.48,0.896-3.12,1.34-4.91,1.34c-2.86,0-5.16-0.875-6.92-2.63 c-1.75-1.75-2.63-4.19-2.63-7.31c0-3.05,0.886-5.47,2.66-7.26c1.77-1.79,4.01-2.69,6.72-2.69 C32.6,18.56,35.44,20.1,37.16,23.19z
              M55.61,23.19l-4.23,2.23c-0.457-0.951-1.02-1.62-1.69-2 c-0.668-0.38-1.31-0.571-1.91-0.571c-2.86,0-4.29,1.89-4.29,5.66c0,1.71,0.363,3.08,1.09,4.11 c0.723,1.03,1.79,1.54,3.2,1.54c1.87,0,3.18-0.915,3.94-2.74l4,2c-0.875,1.56-2.06,2.79-3.54,3.69 c-1.49,0.9-3.11,1.34-4.86,1.34c-2.9,0-5.21-0.875-6.94-2.63c-1.74-1.75-2.6-4.19-2.6-7.31 c0-3.05,0.885-5.47,2.66-7.26c1.77-1.79,4.01-2.69,6.71-2.69C51.12,18.56,53.944,20.1,55.61,23.19z"/>
  </g></g>
  <g transform="translate(150.6,652.4) scale(0.24)">
  <g><circle fill="#FFF" cx="37.79" cy="28.5" r="28.84"/>
     <circle fill="none" cx="37.79" cy="28.5" r="28.84" stroke="#BFBFBF" stroke-width="5.5"/>
     <path fill="#BFBFBF" d="M46.129,20.557v13.085h-3.656v15.542h-9.944V33.643h-3.656V20.557 c0-0.572,0.2-1.057,0.599-1.457c0.401-0.399,0.887-0.6,1.457-0.6h13.144c0.533,0,1.01,0.2,1.428,0.6 C45.918,19.5,46.129,19.986,46.129,20.557z
              M33.042,12.329c0-3.008,1.485-4.514,4.458-4.514s4.457,1.504,4.457,4.514 c0,2.971-1.486,4.457-4.457,4.457S33.042,15.3,33.042,12.329z"/>
  </g></g>
</g>
</g>
</svg>
