<svg version="1.1" xmlns="http://www.w3.org/2000/svg" xmlns:xlink="http://www.w3.org/1999/xlink" width="100%" height="100%" viewBox="0 0 1200.000 674.916">
<title>Annual Energy sector Emissions: Japan</title>
<style type="text/css">
  #main {font-family:Helvetica,Arial,sans-serif; font-size:27.00px;
         fill-opacity:1; fill:#000000; stroke:none; stroke-linejoin:round; stroke-linecap:round; stroke-width:1.00;}
  .marker {stroke-opacity:0;fill-opacity:0;}
  .marker:hover {stroke-opacity:0.5; fill-opacity:1;}
  .ticklabel {font-size:27.00px;fill:#808080;stroke:none;font-family:Helvetica}
  .ytl {text-anchor:end;}
  .dp1 {pointer-events:none;font-size:70%;text-anchor:middle;fill:#000000;}
  .dp2 {pointer-events:none;font-size:70%;text-anchor:middle;fill:#FFFFFF;}
  .numtip {pointer-events:none;}
  .cc {opacity:0.25;}
.dl_fe {background-color:#FDFFDF;display:flex;margin:auto;align-items:center}
.dl_fe_p {font-size:20px;text-align:center;margin:3px}
.dl_el {display:none;pointer-events:none;}
.cc:hover + .dl_el {display:block;}
text:hover + .dl_el {display:block;}
</style>
<defs>
  <clipPath id="axis_clip"><rect x="145.8" y="54.2" width="761.2" height="532.8" /></clipPath>
  <path id="line_y" d="M 0,53.993 v 533.183" stroke="#262626" stroke-opacity="0.15" stroke-width="1.00"/>
  <path id="line_x" d="M 145.600,0 h 761.600" stroke="#262626" stroke-opacity="0.15" stroke-width="1.00"/>
  <path id="tick_y" d="M 145.600,0 h -6.000" stroke="#808080" stroke-width="0.90"/>
  <path id="tick_x" d="M 0,587.177 v 6.000" stroke="#808080" stroke-width="0.90"/>
</defs>
<g id="main">
<use xlink:href="#line_y" transform="translate(156.8,0)"/>
<use xlink:href="#line_y" transform="translate(268.8,0)"/>
<use xlink:href="#line_y" transform="translate(380.8,0)"/>
<use xlink:href="#line_y" transform="translate(492.8,0)"/>
<use xlink:href="#line_y" transform="translate(604.8,0)"/>
<use xlink:href="#line_y" transform="translate(716.8,0)"/>
<use xlink:href="#line_y" transform="translate(828.8,0)"/>
<use xlink:href="#line_y" transform="translate(896.0,0)"/>
<use xlink:href="#line_x" transform="translate(0,587.2)"/>
<use xlink:href="#line_x" transform="translate(0,434.8)"/>
<use xlink:href="#line_x" transform="translate(0,282.5)"/>
<use xlink:href="#line_x" transform="translate(0,130.2)"/>
<use xlink:href="#tick_y" transform="translate(0,587.2)"/>
<use xlink:href="#tick_y" transform="translate(0,434.8)"/>
<use xlink:href="#tick_y" transform="translate(0,282.5)"/>
<use xlink:href="#tick_y" transform="translate(0,130.2)"/>
<use xlink:href="#tick_x" transform="translate(156.8,0)"/>
<use xlink:href="#tick_x" transform="translate(268.8,0)"/>
<use xlink:href="#tick_x" transform="translate(380.8,0)"/>
<use xlink:href="#tick_x" transform="translate(492.8,0)"/>
<use xlink:href="#tick_x" transform="translate(604.8,0)"/>
<use xlink:href="#tick_x" transform="translate(716.8,0)"/>
<use xlink:href="#tick_x" transform="translate(828.8,0)"/>
<use xlink:href="#tick_x" transform="translate(896.0,0)"/>
<polyline points="145.6,53.993 145.6,587.177 907.2,587.177" stroke="#808080" stroke-width="0.90" fill="none"/>
<text class="ticklabel xtl" transform="translate(156.8,629.0)" text-anchor="middle">1990</text>
<text class="ticklabel xtl" transform="translate(268.8,629.0)" text-anchor="middle">1995</text>
<text class="ticklabel xtl" transform="translate(380.8,629.0)" text-anchor="middle">2000</text>
<text class="ticklabel xtl" transform="translate(492.8,629.0)" text-anchor="middle">2005</text>
<text class="ticklabel xtl" transform="translate(604.8,629.0)" text-anchor="middle">2010</text>
<text class="ticklabel xtl" transform="translate(716.8,629.0)" text-anchor="middle">2015</text>
<text class="ticklabel xtl" transform="translate(828.8,629.0)" text-anchor="middle">2020</text>
<text class="ticklabel xtl" transform="translate(896.0,629.0)" text-anchor="middle">23</text>
<text class="ticklabel ytl" transform="translate(128.8,595.3)">0</text>
<text class="ticklabel ytl" transform="translate(128.8,442.9)">0.4</text>
<text class="ticklabel ytl" transform="translate(128.8,290.6)">0.8</text>
<text class="ticklabel ytl" transform="translate(128.8,138.3)">1.2 Gt</text>
<g stroke="#000" stroke-width="0.90" fill="#DBA746"  clip-path="url(#axis_clip)">
  <polygon points="147.8,174.0 147.8,234.6 165.8,234.6 165.8,174.0 147.8,174.0"/>
  <polygon points="170.2,169.9 170.2,231.0 188.2,231.0 188.2,169.9 170.2,169.9"/>
  <polygon points="192.6,166.7 192.6,228.7 210.6,228.7 210.6,166.7 192.6,166.7"/>
  <polygon points="215.0,168.6 215.0,233.3 233.0,233.3 233.0,168.6 215.0,168.6"/>
  <polygon points="237.4,149.3 237.4,213.5 255.4,213.5 255.4,149.3 237.4,149.3"/>
  <polygon points="259.8,144.7 259.8,211.9 277.8,211.9 277.8,144.7 259.8,144.7"/>
  <polygon points="282.2,140.2 282.2,207.0 300.2,207.0 300.2,140.2 282.2,140.2"/>
  <polygon points="304.6,142.4 304.6,209.5 322.6,209.5 322.6,142.4 304.6,142.4"/>
  <polygon points="327.0,155.2 327.0,224.4 345.0,224.4 345.0,155.2 327.0,155.2"/>
  <polygon points="349.4,141.2 349.4,212.6 367.4,212.6 367.4,141.2 349.4,141.2"/>
  <polygon points="371.8,132.9 371.8,205.8 389.8,205.8 389.8,132.9 371.8,132.9"/>
  <polygon points="394.2,137.5 394.2,209.9 412.2,209.9 412.2,137.5 394.2,137.5"/>
  <polygon points="416.6,125.3 416.6,199.0 434.6,199.0 434.6,125.3 416.6,125.3"/>
  <polygon points="439.0,121.9 439.0,194.2 457.0,194.2 457.0,121.9 439.0,121.9"/>
  <polygon points="461.4,123.5 461.4,197.7 479.4,197.7 479.4,123.5 461.4,123.5"/>
  <polygon points="483.8,121.0 483.8,196.1 501.8,196.1 501.8,121.0 483.8,121.0"/>
  <polygon points="506.2,129.6 506.2,201.5 524.2,201.5 524.2,129.6 506.2,129.6"/>
  <polygon points="528.6,115.9 528.6,184.2 546.6,184.2 546.6,115.9 528.6,115.9"/>
  <polygon points="551.0,141.6 551.0,205.5 569.0,205.5 569.0,141.6 551.0,141.6"/>
  <polygon points="573.4,164.8 573.4,224.7 591.4,224.7 591.4,164.8 573.4,164.8"/>
  <polygon points="595.8,145.9 595.8,206.0 613.8,206.0 613.8,145.9 595.8,145.9"/>
  <polygon points="618.2,126.6 618.2,185.0 636.2,185.0 636.2,126.6 618.2,126.6"/>
  <polygon points="640.6,111.2 640.6,167.0 658.6,167.0 658.6,111.2 640.6,111.2"/>
  <polygon points="663.0,108.3 663.0,165.4 681.0,165.4 681.0,108.3 663.0,108.3"/>
  <polygon points="685.4,127.5 685.4,181.9 703.4,181.9 703.4,127.5 685.4,127.5"/>
  <polygon points="707.8,142.4 707.8,195.7 725.8,195.7 725.8,142.4 707.8,142.4"/>
  <polygon points="730.2,149.6 730.2,203.6 748.2,203.6 748.2,149.6 730.2,149.6"/>
  <polygon points="752.6,155.7 752.6,210.9 770.6,210.9 770.6,155.7 752.6,155.7"/>
  <polygon points="775.0,173.3 775.0,227.6 793.0,227.6 793.0,173.3 775.0,173.3"/>
  <polygon points="797.4,186.6 797.4,240.7 815.4,240.7 815.4,186.6 797.4,186.6"/>
  <polygon points="819.8,210.0 819.8,264.0 837.8,264.0 837.8,210.0 819.8,210.0"/>
  <polygon points="842.2,202.7 842.2,254.5 860.2,254.5 860.2,202.7 842.2,202.7"/>
  <polygon points="864.6,212.7 864.6,261.9 882.6,261.9 882.6,212.7 864.6,212.7"/>
  <polygon points="887.0,227.9 887.0,274.5 905.0,274.5 905.0,227.9 887.0,227.9"/>
</g>
<g stroke="#000" stroke-width="0.90" fill="#845F48"  clip-path="url(#axis_clip)">
  <polygon points="147.8,234.6 147.8,313.0 165.8,313.0 165.8,234.6 147.8,234.6"/>
  <polygon points="170.2,231.0 170.2,313.9 188.2,313.9 188.2,231.0 170.2,231.0"/>
  <polygon points="192.6,228.7 192.6,314.2 210.6,314.2 210.6,228.7 192.6,228.7"/>
  <polygon points="215.0,233.3 215.0,320.2 233.0,320.2 233.0,233.3 215.0,233.3"/>
  <polygon points="237.4,213.5 237.4,303.9 255.4,303.9 255.4,213.5 237.4,213.5"/>
  <polygon points="259.8,211.9 259.8,305.9 277.8,305.9 277.8,211.9 259.8,211.9"/>
  <polygon points="282.2,207.0 282.2,303.6 300.2,303.6 300.2,207.0 282.2,207.0"/>
  <polygon points="304.6,209.5 304.6,306.8 322.6,306.8 322.6,209.5 304.6,209.5"/>
  <polygon points="327.0,224.4 327.0,320.9 345.0,320.9 345.0,224.4 327.0,224.4"/>
  <polygon points="349.4,212.6 349.4,310.7 367.4,310.7 367.4,212.6 349.4,212.6"/>
  <polygon points="371.8,205.8 371.8,303.7 389.8,303.7 389.8,205.8 371.8,205.8"/>
  <polygon points="394.2,209.9 394.2,309.3 412.2,309.3 412.2,209.9 394.2,209.9"/>
  <polygon points="416.6,199.0 416.6,297.0 434.6,297.0 434.6,199.0 416.6,199.0"/>
  <polygon points="439.0,194.2 439.0,290.5 457.0,290.5 457.0,194.2 439.0,194.2"/>
  <polygon points="461.4,197.7 461.4,291.6 479.4,291.6 479.4,197.7 461.4,197.7"/>
  <polygon points="483.8,196.1 483.8,287.8 501.8,287.8 501.8,196.1 483.8,196.1"/>
  <polygon points="506.2,201.5 506.2,292.2 524.2,292.2 524.2,201.5 506.2,201.5"/>
  <polygon points="528.6,184.2 528.6,273.7 546.6,273.7 546.6,184.2 528.6,184.2"/>
  <polygon points="551.0,205.5 551.0,292.0 569.0,292.0 569.0,205.5 551.0,205.5"/>
  <polygon points="573.4,224.7 573.4,310.0 591.4,310.0 591.4,224.7 573.4,224.7"/>
  <polygon points="595.8,206.0 595.8,291.3 613.8,291.3 613.8,206.0 595.8,206.0"/>
  <polygon points="618.2,185.0 618.2,268.4 636.2,268.4 636.2,185.0 618.2,185.0"/>
  <polygon points="640.6,167.0 640.6,250.8 658.6,250.8 658.6,167.0 640.6,167.0"/>
  <polygon points="663.0,165.4 663.0,248.1 681.0,248.1 681.0,165.4 663.0,165.4"/>
  <polygon points="685.4,181.9 685.4,262.6 703.4,262.6 703.4,181.9 685.4,181.9"/>
  <polygon points="707.8,195.7 707.8,275.9 725.8,275.9 725.8,195.7 707.8,195.7"/>
  <polygon points="730.2,203.6 730.2,283.0 748.2,283.0 748.2,203.6 730.2,203.6"/>
  <polygon points="752.6,210.9 752.6,289.7 770.6,289.7 770.6,210.9 752.6,210.9"/>
  <polygon points="775.0,227.6 775.0,305.5 793.0,305.5 793.0,227.6 775.0,227.6"/>
  <polygon points="797.4,240.7 797.4,317.0 815.4,317.0 815.4,240.7 797.4,240.7"/>
  <polygon points="819.8,264.0 819.8,331.7 837.8,331.7 837.8,264.0 819.8,264.0"/>
  <polygon points="842.2,254.5 842.2,322.8 860.2,322.8 860.2,254.5 842.2,254.5"/>
  <polygon points="864.6,261.9 864.6,332.8 882.6,332.8 882.6,261.9 864.6,261.9"/>
  <polygon points="887.0,274.5 887.0,345.0 905.0,345.0 905.0,274.5 887.0,274.5"/>
</g>
<g stroke="#000" stroke-width="0.90" fill="#4A89E8"  clip-path="url(#axis_clip)">
  <polygon points="147.8,313.0 147.8,446.5 165.8,446.5 165.8,313.0 147.8,313.0"/>
  <polygon points="170.2,313.9 170.2,446.1 188.2,446.1 188.2,313.9 170.2,313.9"/>
  <polygon points="192.6,314.2 192.6,444.3 210.6,444.3 210.6,314.2 192.6,314.2"/>
  <polygon points="215.0,320.2 215.0,450.9 233.0,450.9 233.0,320.2 215.0,320.2"/>
  <polygon points="237.4,303.9 237.4,437.7 255.4,437.7 255.4,303.9 237.4,303.9"/>
  <polygon points="259.8,305.9 259.8,442.4 277.8,442.4 277.8,305.9 259.8,305.9"/>
  <polygon points="282.2,303.6 282.2,441.4 300.2,441.4 300.2,303.6 282.2,303.6"/>
  <polygon points="304.6,306.8 304.6,443.0 322.6,443.0 322.6,306.8 304.6,306.8"/>
  <polygon points="327.0,320.9 327.0,447.7 345.0,447.7 345.0,320.9 327.0,320.9"/>
  <polygon points="349.4,310.7 349.4,439.3 367.4,439.3 367.4,310.7 349.4,310.7"/>
  <polygon points="371.8,303.7 371.8,436.1 389.8,436.1 389.8,303.7 371.8,303.7"/>
  <polygon points="394.2,309.3 394.2,439.4 412.2,439.4 412.2,309.3 394.2,309.3"/>
  <polygon points="416.6,297.0 416.6,429.2 434.6,429.2 434.6,297.0 416.6,297.0"/>
  <polygon points="439.0,290.5 439.0,421.9 457.0,421.9 457.0,290.5 439.0,290.5"/>
  <polygon points="461.4,291.6 461.4,422.8 479.4,422.8 479.4,291.6 461.4,291.6"/>
  <polygon points="483.8,287.8 483.8,415.3 501.8,415.3 501.8,287.8 483.8,287.8"/>
  <polygon points="506.2,292.2 506.2,418.7 524.2,418.7 524.2,292.2 506.2,292.2"/>
  <polygon points="528.6,273.7 528.6,399.6 546.6,399.6 546.6,273.7 528.6,273.7"/>
  <polygon points="551.0,292.0 551.0,406.9 569.0,406.9 569.0,292.0 551.0,292.0"/>
  <polygon points="573.4,310.0 573.4,418.5 591.4,418.5 591.4,310.0 573.4,310.0"/>
  <polygon points="595.8,291.3 595.8,406.1 613.8,406.1 613.8,291.3 595.8,291.3"/>
  <polygon points="618.2,268.4 618.2,382.8 636.2,382.8 636.2,268.4 618.2,268.4"/>
  <polygon points="640.6,250.8 640.6,365.0 658.6,365.0 658.6,250.8 640.6,250.8"/>
  <polygon points="663.0,248.1 663.0,364.3 681.0,364.3 681.0,248.1 663.0,248.1"/>
  <polygon points="685.4,262.6 685.4,376.0 703.4,376.0 703.4,262.6 685.4,262.6"/>
  <polygon points="707.8,275.9 707.8,385.7 725.8,385.7 725.8,275.9 707.8,275.9"/>
  <polygon points="730.2,283.0 730.2,387.6 748.2,387.6 748.2,283.0 730.2,283.0"/>
  <polygon points="752.6,289.7 752.6,392.8 770.6,392.8 770.6,289.7 752.6,289.7"/>
  <polygon points="775.0,305.5 775.0,407.4 793.0,407.4 793.0,305.5 775.0,305.5"/>
  <polygon points="797.4,317.0 797.4,415.9 815.4,415.9 815.4,317.0 797.4,317.0"/>
  <polygon points="819.8,331.7 819.8,420.4 837.8,420.4 837.8,331.7 819.8,331.7"/>
  <polygon points="842.2,322.8 842.2,418.0 860.2,418.0 860.2,322.8 842.2,322.8"/>
  <polygon points="864.6,332.8 864.6,421.0 882.6,421.0 882.6,332.8 864.6,332.8"/>
  <polygon points="887.0,345.0 887.0,430.5 905.0,430.5 905.0,345.0 887.0,345.0"/>
</g>
<g stroke="#000" stroke-width="0.90" fill="#FF7F61"  clip-path="url(#axis_clip)">
  <polygon points="147.8,446.5 147.8,587.2 165.8,587.2 165.8,446.5 147.8,446.5"/>
  <polygon points="170.2,446.1 170.2,587.2 188.2,587.2 188.2,446.1 170.2,446.1"/>
  <polygon points="192.6,444.3 192.6,587.2 210.6,587.2 210.6,444.3 192.6,444.3"/>
  <polygon points="215.0,450.9 215.0,587.2 233.0,587.2 233.0,450.9 215.0,450.9"/>
  <polygon points="237.4,437.7 237.4,587.2 255.4,587.2 255.4,437.7 237.4,437.7"/>
  <polygon points="259.8,442.4 259.8,587.2 277.8,587.2 277.8,442.4 259.8,442.4"/>
  <polygon points="282.2,441.4 282.2,587.2 300.2,587.2 300.2,441.4 282.2,441.4"/>
  <polygon points="304.6,443.0 304.6,587.2 322.6,587.2 322.6,443.0 304.6,443.0"/>
  <polygon points="327.0,447.7 327.0,587.2 345.0,587.2 345.0,447.7 327.0,447.7"/>
  <polygon points="349.4,439.3 349.4,587.2 367.4,587.2 367.4,439.3 349.4,439.3"/>
  <polygon points="371.8,436.1 371.8,587.2 389.8,587.2 389.8,436.1 371.8,436.1"/>
  <polygon points="394.2,439.4 394.2,587.2 412.2,587.2 412.2,439.4 394.2,439.4"/>
  <polygon points="416.6,429.2 416.6,587.2 434.6,587.2 434.6,429.2 416.6,429.2"/>
  <polygon points="439.0,421.9 439.0,587.2 457.0,587.2 457.0,421.9 439.0,421.9"/>
  <polygon points="461.4,422.8 461.4,587.2 479.4,587.2 479.4,422.8 461.4,422.8"/>
  <polygon points="483.8,415.3 483.8,587.2 501.8,587.2 501.8,415.3 483.8,415.3"/>
  <polygon points="506.2,418.7 506.2,587.2 524.2,587.2 524.2,418.7 506.2,418.7"/>
  <polygon points="528.6,399.6 528.6,587.2 546.6,587.2 546.6,399.6 528.6,399.6"/>
  <polygon points="551.0,406.9 551.0,587.2 569.0,587.2 569.0,406.9 551.0,406.9"/>
  <polygon points="573.4,418.5 573.4,587.2 591.4,587.2 591.4,418.5 573.4,418.5"/>
  <polygon points="595.8,406.1 595.8,587.2 613.8,587.2 613.8,406.1 595.8,406.1"/>
  <polygon points="618.2,382.8 618.2,587.2 636.2,587.2 636.2,382.8 618.2,382.8"/>
  <polygon points="640.6,365.0 640.6,587.2 658.6,587.2 658.6,365.0 640.6,365.0"/>
  <polygon points="663.0,364.3 663.0,587.2 681.0,587.2 681.0,364.3 663.0,364.3"/>
  <polygon points="685.4,376.0 685.4,587.2 703.4,587.2 703.4,376.0 685.4,376.0"/>
  <polygon points="707.8,385.7 707.8,587.2 725.8,587.2 725.8,385.7 707.8,385.7"/>
  <polygon points="730.2,387.6 730.2,587.2 748.2,587.2 748.2,387.6 730.2,387.6"/>
  <polygon points="752.6,392.8 752.6,587.2 770.6,587.2 770.6,392.8 752.6,392.8"/>
  <polygon points="775.0,407.4 775.0,587.2 793.0,587.2 793.0,407.4 775.0,407.4"/>
  <polygon points="797.4,415.9 797.4,587.2 815.4,587.2 815.4,415.9 797.4,415.9"/>
  <polygon points="819.8,420.4 819.8,587.2 837.8,587.2 837.8,420.4 819.8,420.4"/>
  <polygon points="842.2,418.0 842.2,587.2 860.2,587.2 860.2,418.0 842.2,418.0"/>
  <polygon points="864.6,421.0 864.6,587.2 882.6,587.2 882.6,421.0 864.6,421.0"/>
  <polygon points="887.0,430.5 887.0,587.2 905.0,587.2 905.0,430.5 887.0,430.5"/>
</g>
<polyline class="pl" points="156.8,174.0 179.2,169.9 201.6,166.7 224.0,168.6 246.4,149.3 268.8,144.7 291.2,140.2 313.6,142.4 336.0,155.2 358.4,141.2 380.8,132.9 403.2,137.5 425.6,125.3 448.0,121.9 470.4,123.5 492.8,121.0 515.2,129.6 537.6,115.9 560.0,141.6 582.4,164.8 604.8,145.9 627.2,126.6 649.6,111.2 672.0,108.3 694.4,127.5 716.8,142.4 739.2,149.6 761.6,155.7 784.0,173.3 806.4,186.6 828.8,210.0 851.2,202.7 873.6,212.7 896.0,227.9" stroke="#000" stroke-width="5.40" stroke-opacity="1.00" fill="none" clip-path="url(#axis_clip)"/>
<g class="pl" fill="#FFF" stroke="#000" stroke-width="0.900">
  <circle cx="179.2" cy="169.9" r="2.2" />
  <circle cx="201.6" cy="166.7" r="2.2" />
  <circle cx="224.0" cy="168.6" r="2.2" />
  <circle cx="246.4" cy="149.3" r="2.2" />
  <circle cx="268.8" cy="144.7" r="2.2" />
  <circle cx="291.2" cy="140.2" r="2.2" />
  <circle cx="313.6" cy="142.4" r="2.2" />
  <circle cx="336.0" cy="155.2" r="2.2" />
  <circle cx="358.4" cy="141.2" r="2.2" />
  <circle cx="403.2" cy="137.5" r="2.2" />
  <circle cx="425.6" cy="125.3" r="2.2" />
  <circle cx="448.0" cy="121.9" r="2.2" />
  <circle cx="470.4" cy="123.5" r="2.2" />
  <circle cx="492.8" cy="121.0" r="2.2" />
  <circle cx="515.2" cy="129.6" r="2.2" />
  <circle cx="537.6" cy="115.9" r="2.2" />
  <circle cx="560.0" cy="141.6" r="2.2" />
  <circle cx="582.4" cy="164.8" r="2.2" />
  <circle cx="627.2" cy="126.6" r="2.2" />
  <circle cx="649.6" cy="111.2" r="2.2" />
  <circle cx="672.0" cy="108.3" r="2.2" />
  <circle cx="694.4" cy="127.5" r="2.2" />
  <circle cx="716.8" cy="142.4" r="2.2" />
  <circle cx="739.2" cy="149.6" r="2.2" />
  <circle cx="761.6" cy="155.7" r="2.2" />
  <circle cx="784.0" cy="173.3" r="2.2" />
  <circle cx="806.4" cy="186.6" r="2.2" />
  <circle cx="851.2" cy="202.7" r="2.2" />
  <circle cx="873.6" cy="212.7" r="2.2" />
  <circle cx="896.0" cy="227.9" r="2.2" />
</g>
<g class="pl" fill="#FFF" stroke="#000" stroke-width="0.900">
  <circle cx="156.8" cy="174.0" r="5.4" />
  <circle cx="380.8" cy="132.9" r="5.4" />
  <circle cx="604.8" cy="145.9" r="5.4" />
  <circle cx="828.8" cy="210.0" r="5.4" />
</g>
<text transform="translate(145.6,47.2)" dy="0.0" font-size="27.00" fill="#808080" stroke="none">Annual Energy sector Emissions: Japan</text>
<text transform="translate(130.0,157.8)" dy="8.1" font-size="27.00" fill="#808080" stroke="none" text-anchor="end">CO<tspan dy="0.2em"><tspan style="font-size:70%">2</tspan></tspan><tspan dy="-0.2em">e</tspan></text>
<text transform="translate(945.6,227.0)" dy="7.6" font-size="25.20" fill="#000" stroke="none">-13.0% since 1990</text>
<text transform="translate(945.6,508.8)" dy="7.6" font-size="25.20" fill="#FF7F61" stroke="none">Energy industries</text>
<text transform="translate(945.6,387.7)" dy="7.6" font-size="25.20" fill="#4A89E8" stroke="none">Manufacturing</text>
<text transform="translate(945.6,309.7)" dy="7.6" font-size="25.20" fill="#845F48" stroke="none">Transport</text>
<text transform="translate(945.6,252.1)" dy="7.6" font-size="25.20" fill="#DBA746" stroke="none">Other sectors</text>
<polyline class="pl" points="910.8,227.9 912.4,227.9 913.8,227.9 915.2,227.9 916.4,227.8 917.6,227.8 918.8,227.8 919.8,227.8 920.8,227.7 921.7,227.7 922.7,227.6 923.5,227.6 924.4,227.6 925.2,227.5 926.0,227.5 926.8,227.4 927.6,227.4 928.4,227.3 929.3,227.3 930.1,227.3 931.1,227.2 932.0,227.2 933.0,227.1 934.0,227.1 935.2,227.1 936.4,227.1 937.6,227.0 939.0,227.0 940.4,227.0 942.0,227.0" stroke="#000" stroke-width="0.90" stroke-opacity="1.00" fill="none" />
<polyline class="pl" points="910.8,251.2 912.4,251.2 913.8,251.2 915.2,251.2 916.4,251.2 917.6,251.3 918.8,251.3 919.8,251.3 920.8,251.4 921.7,251.4 922.7,251.4 923.5,251.5 924.4,251.5 925.2,251.6 926.0,251.6 926.8,251.7 927.6,251.7 928.4,251.7 929.3,251.8 930.1,251.8 931.1,251.9 932.0,251.9 933.0,251.9 934.0,252.0 935.2,252.0 936.4,252.0 937.6,252.0 939.0,252.1 940.4,252.1 942.0,252.1" stroke="#DBA746" stroke-width="0.90" stroke-opacity="1.00" fill="none" />
<text transform="translate(160.0,666.1)" font-size="19.80" font-family="Helvetica" fill="#BFBFBF" stroke="none" xml:space="preserve">CICERO   &#9679;   Data: UNFCCC (2025)</text>
<g>
  <rect x="123.0" y="651.4" width="34" height="17" fill="#FFF" stroke="none" opacity="0.01"/>
  <g transform="translate(124.0,652.4) scale(0.24)">
  <g><circle fill="#FFF" cx="37.79" cy="28.5" r="28.84"/>
     <circle fill="none" cx="37.79" cy="28.5" r="28.84" stroke="#BFBFBF" stroke-width="5.5"/>
     <path fill="#BFBFBF" d="M37.16,23.19 l-4.29,2.23c-0.458-0.951-1.02-1.62-1.69-2c-0.667-0.38-1.29-0.571-1.86-0.571c-2.86,0-4.29,1.89-4.29,5.66 c0,1.71,0.36,3.08,1.09,4.11c0.724,1.03,1.79,1.54,3.2,1.54c1.87,0,3.18-0.915,3.94-2.74l3.94,2 c-0.838,1.56-2,2.79-3.49,3.69c-1.48,0.896-3.12,1.34-4.91,1.34c-2.86,0-5.16-0.875-6.92-2.63 c-1.75-1.75-2.63-4.19-2.63-7.31c0-3.05,0.886-5.47,2.66-7.26c1.77-1.79,4.01-2.69,6.72-2.69 C32.6,18.56,35.44,20.1,37.16,23.19z
              M55.61,23.19l-4.23,2.23c-0.457-0.951-1.02-1.62-1.69-2 c-0.668-0.38-1.31-0.571-1.91-0.571c-2.86,0-4.29,1.89-4.29,5.66c0,1.71,0.363,3.08,1.09,4.11 c0.723,1.03,1.79,1.54,3.2,1.54c1.87,0,3.18-0.915,3.94-2.74l4,2c-0.875,1.56-2.06,2.79-3.54,3.69 c-1.49,0.9-3.11,1.34-4.86,1.34c-2.9,0-5.21-0.875-6.94-2.63c-1.74-1.75-2.6-4.19-2.6-7.31 c0-3.05,0.885-5.47,2.66-7.26c1.77-1.79,4.01-2.69,6.71-2.69C51.12,18.56,53.944,20.1,55.61,23.19z"/>
  </g></g>
  <g transform="translate(140.2,652.4) scale(0.24)">
  <g><circle fill="#FFF" cx="37.79" cy="28.5" r="28.84"/>
     <circle fill="none" cx="37.79" cy="28.5" r="28.84" stroke="#BFBFBF" stroke-width="5.5"/>
     <path fill="#BFBFBF" d="M46.129,20.557v13.085h-3.656v15.542h-9.944V33.643h-3.656V20.557 c0-0.572,0.2-1.057,0.599-1.457c0.401-0.399,0.887-0.6,1.457-0.6h13.144c0.533,0,1.01,0.2,1.428,0.6 C45.918,19.5,46.129,19.986,46.129,20.557z
              M33.042,12.329c0-3.008,1.485-4.514,4.458-4.514s4.457,1.504,4.457,4.514 c0,2.971-1.486,4.457-4.457,4.457S33.042,15.3,33.042,12.329z"/>
  </g></g>
</g>
</g>
</svg>
