<svg version="1.1" xmlns="http://www.w3.org/2000/svg" xmlns:xlink="http://www.w3.org/1999/xlink" width="100%" height="100%" viewBox="0 0 1200.000 674.916">
<title>Annual N2O Emissions: Japan</title>
<style type="text/css">
  #main {font-family:Helvetica,Arial,sans-serif; font-size:27.00px;
         fill-opacity:1; fill:#000000; stroke:none; stroke-linejoin:round; stroke-linecap:round; stroke-width:1.00;}
  .marker {stroke-opacity:0;fill-opacity:0;}
  .marker:hover {stroke-opacity:0.5; fill-opacity:1;}
  .ticklabel {font-size:27.00px;fill:#808080;stroke:none;font-family:Helvetica}
  .ytl {text-anchor:end;}
  .dp1 {pointer-events:none;font-size:70%;text-anchor:middle;fill:#000000;}
  .dp2 {pointer-events:none;font-size:70%;text-anchor:middle;fill:#FFFFFF;}
  .numtip {pointer-events:none;}
  .cc {opacity:0.25;}
.dl_fe {background-color:#FDFFDF;display:flex;margin:auto;align-items:center}
.dl_fe_p {font-size:20px;text-align:center;margin:3px}
.dl_el {display:none;pointer-events:none;}
.cc:hover + .dl_el {display:block;}
text:hover + .dl_el {display:block;}
</style>
<defs>
  <clipPath id="axis_clip"><rect x="145.8" y="54.2" width="761.2" height="532.8" /></clipPath>
  <path id="line_y" d="M 0,53.993 v 533.183" stroke="#262626" stroke-opacity="0.15" stroke-width="1.00"/>
  <path id="line_x" d="M 145.600,0 h 761.600" stroke="#262626" stroke-opacity="0.15" stroke-width="1.00"/>
  <path id="tick_y" d="M 145.600,0 h -6.000" stroke="#808080" stroke-width="0.90"/>
  <path id="tick_x" d="M 0,587.177 v 6.000" stroke="#808080" stroke-width="0.90"/>
</defs>
<g id="main">
<use xlink:href="#line_y" transform="translate(156.8,0)"/>
<use xlink:href="#line_y" transform="translate(268.8,0)"/>
<use xlink:href="#line_y" transform="translate(380.8,0)"/>
<use xlink:href="#line_y" transform="translate(492.8,0)"/>
<use xlink:href="#line_y" transform="translate(604.8,0)"/>
<use xlink:href="#line_y" transform="translate(716.8,0)"/>
<use xlink:href="#line_y" transform="translate(828.8,0)"/>
<use xlink:href="#line_y" transform="translate(896.0,0)"/>
<use xlink:href="#line_x" transform="translate(0,587.2)"/>
<use xlink:href="#line_x" transform="translate(0,434.8)"/>
<use xlink:href="#line_x" transform="translate(0,282.5)"/>
<use xlink:href="#line_x" transform="translate(0,130.2)"/>
<use xlink:href="#tick_y" transform="translate(0,587.2)"/>
<use xlink:href="#tick_y" transform="translate(0,434.8)"/>
<use xlink:href="#tick_y" transform="translate(0,282.5)"/>
<use xlink:href="#tick_y" transform="translate(0,130.2)"/>
<use xlink:href="#tick_x" transform="translate(156.8,0)"/>
<use xlink:href="#tick_x" transform="translate(268.8,0)"/>
<use xlink:href="#tick_x" transform="translate(380.8,0)"/>
<use xlink:href="#tick_x" transform="translate(492.8,0)"/>
<use xlink:href="#tick_x" transform="translate(604.8,0)"/>
<use xlink:href="#tick_x" transform="translate(716.8,0)"/>
<use xlink:href="#tick_x" transform="translate(828.8,0)"/>
<use xlink:href="#tick_x" transform="translate(896.0,0)"/>
<polyline points="145.6,53.993 145.6,587.177 907.2,587.177" stroke="#808080" stroke-width="0.90" fill="none"/>
<text class="ticklabel xtl" transform="translate(156.8,629.0)" text-anchor="middle">1990</text>
<text class="ticklabel xtl" transform="translate(268.8,629.0)" text-anchor="middle">1995</text>
<text class="ticklabel xtl" transform="translate(380.8,629.0)" text-anchor="middle">2000</text>
<text class="ticklabel xtl" transform="translate(492.8,629.0)" text-anchor="middle">2005</text>
<text class="ticklabel xtl" transform="translate(604.8,629.0)" text-anchor="middle">2010</text>
<text class="ticklabel xtl" transform="translate(716.8,629.0)" text-anchor="middle">2015</text>
<text class="ticklabel xtl" transform="translate(828.8,629.0)" text-anchor="middle">2020</text>
<text class="ticklabel xtl" transform="translate(896.0,629.0)" text-anchor="middle">23</text>
<text class="ticklabel ytl" transform="translate(128.8,595.3)">0</text>
<text class="ticklabel ytl" transform="translate(128.8,442.9)">40</text>
<text class="ticklabel ytl" transform="translate(128.8,290.6)">80</text>
<text class="ticklabel ytl" transform="translate(128.8,138.3)">120 kt</text>
<g stroke="#000" stroke-width="0.90" fill="#7FBF7F"  clip-path="url(#axis_clip)">
  <polygon points="147.8,159.9 147.8,172.4 165.8,172.4 165.8,159.9 147.8,159.9"/>
  <polygon points="170.2,164.6 170.2,176.8 188.2,176.8 188.2,164.6 170.2,164.6"/>
  <polygon points="192.6,163.7 192.6,175.7 210.6,175.7 210.6,163.7 192.6,163.7"/>
  <polygon points="215.0,164.4 215.0,176.1 233.0,176.1 233.0,164.4 215.0,164.4"/>
  <polygon points="237.4,150.7 237.4,162.0 255.4,162.0 255.4,150.7 237.4,150.7"/>
  <polygon points="259.8,147.6 259.8,158.7 277.8,158.7 277.8,147.6 259.8,147.6"/>
  <polygon points="282.2,134.0 282.2,144.8 300.2,144.8 300.2,134.0 282.2,134.0"/>
  <polygon points="304.6,125.7 304.6,136.4 322.6,136.4 322.6,125.7 304.6,125.7"/>
  <polygon points="327.0,144.1 327.0,154.7 345.0,154.7 345.0,144.1 327.0,144.1"/>
  <polygon points="349.4,224.1 349.4,234.4 367.4,234.4 367.4,224.1 349.4,224.1"/>
  <polygon points="371.8,191.8 371.8,201.9 389.8,201.9 389.8,191.8 371.8,191.8"/>
  <polygon points="394.2,238.2 394.2,248.1 412.2,248.1 412.2,238.2 394.2,238.2"/>
  <polygon points="416.6,247.7 416.6,257.4 434.6,257.4 434.6,247.7 416.6,247.7"/>
  <polygon points="439.0,245.9 439.0,255.5 457.0,255.5 457.0,245.9 439.0,245.9"/>
  <polygon points="461.4,245.8 461.4,255.1 479.4,255.1 479.4,245.8 461.4,245.8"/>
  <polygon points="483.8,251.0 483.8,260.1 501.8,260.1 501.8,251.0 483.8,251.0"/>
  <polygon points="506.2,252.5 506.2,261.2 524.2,261.2 524.2,252.5 506.2,252.5"/>
  <polygon points="528.6,258.0 528.6,266.5 546.6,266.5 546.6,258.0 528.6,258.0"/>
  <polygon points="551.0,272.5 551.0,280.7 569.0,280.7 569.0,272.5 551.0,272.5"/>
  <polygon points="573.4,280.9 573.4,288.8 591.4,288.8 591.4,280.9 573.4,280.9"/>
  <polygon points="595.8,286.5 595.8,294.0 613.8,294.0 613.8,286.5 595.8,286.5"/>
  <polygon points="618.2,292.0 618.2,299.1 636.2,299.1 636.2,292.0 618.2,292.0"/>
  <polygon points="640.6,297.0 640.6,303.8 658.6,303.8 658.6,297.0 640.6,297.0"/>
  <polygon points="663.0,297.8 663.0,304.3 681.0,304.3 681.0,297.8 663.0,297.8"/>
  <polygon points="685.4,305.1 685.4,311.4 703.4,311.4 703.4,305.1 685.4,305.1"/>
  <polygon points="707.8,309.5 707.8,315.6 725.8,315.6 725.8,309.5 707.8,309.5"/>
  <polygon points="730.2,316.3 730.2,322.3 748.2,322.3 748.2,316.3 730.2,316.3"/>
  <polygon points="752.6,316.2 752.6,322.0 770.6,322.0 770.6,316.2 752.6,316.2"/>
  <polygon points="775.0,327.8 775.0,333.6 793.0,333.6 793.0,327.8 775.0,327.8"/>
  <polygon points="797.4,333.8 797.4,339.6 815.4,339.6 815.4,333.8 797.4,333.8"/>
  <polygon points="819.8,339.3 819.8,345.0 837.8,345.0 837.8,339.3 819.8,339.3"/>
  <polygon points="842.2,342.6 842.2,348.4 860.2,348.4 860.2,342.6 842.2,342.6"/>
  <polygon points="864.6,350.0 864.6,355.9 882.6,355.9 882.6,350.0 864.6,350.0"/>
  <polygon points="887.0,354.0 887.0,360.0 905.0,360.0 905.0,354.0 887.0,354.0"/>
</g>
<g stroke="#000" stroke-width="0.90" fill="#DBA746"  clip-path="url(#axis_clip)">
  <polygon points="147.8,172.4 147.8,223.6 165.8,223.6 165.8,172.4 147.8,172.4"/>
  <polygon points="170.2,176.8 170.2,228.4 188.2,228.4 188.2,176.8 170.2,176.8"/>
  <polygon points="192.6,175.7 192.6,228.4 210.6,228.4 210.6,175.7 192.6,175.7"/>
  <polygon points="215.0,176.1 215.0,229.4 233.0,229.4 233.0,176.1 215.0,176.1"/>
  <polygon points="237.4,162.0 237.4,215.8 255.4,215.8 255.4,162.0 237.4,162.0"/>
  <polygon points="259.8,158.7 259.8,214.6 277.8,214.6 277.8,158.7 259.8,158.7"/>
  <polygon points="282.2,144.8 282.2,202.0 300.2,202.0 300.2,144.8 282.2,144.8"/>
  <polygon points="304.6,136.4 304.6,192.8 322.6,192.8 322.6,136.4 304.6,136.4"/>
  <polygon points="327.0,154.7 327.0,212.9 345.0,212.9 345.0,154.7 327.0,154.7"/>
  <polygon points="349.4,234.4 349.4,291.2 367.4,291.2 367.4,234.4 349.4,234.4"/>
  <polygon points="371.8,201.9 371.8,258.3 389.8,258.3 389.8,201.9 371.8,201.9"/>
  <polygon points="394.2,248.1 394.2,304.1 412.2,304.1 412.2,248.1 394.2,248.1"/>
  <polygon points="416.6,257.4 416.6,309.8 434.6,309.8 434.6,257.4 416.6,257.4"/>
  <polygon points="439.0,255.5 439.0,312.6 457.0,312.6 457.0,255.5 439.0,255.5"/>
  <polygon points="461.4,255.1 461.4,315.2 479.4,315.2 479.4,255.1 461.4,255.1"/>
  <polygon points="483.8,260.1 483.8,320.6 501.8,320.6 501.8,260.1 483.8,260.1"/>
  <polygon points="506.2,261.2 506.2,320.2 524.2,320.2 524.2,261.2 506.2,261.2"/>
  <polygon points="528.6,266.5 528.6,324.2 546.6,324.2 546.6,266.5 528.6,266.5"/>
  <polygon points="551.0,280.7 551.0,335.9 569.0,335.9 569.0,280.7 551.0,280.7"/>
  <polygon points="573.4,288.8 573.4,341.3 591.4,341.3 591.4,288.8 573.4,288.8"/>
  <polygon points="595.8,294.0 595.8,345.8 613.8,345.8 613.8,294.0 595.8,294.0"/>
  <polygon points="618.2,299.1 618.2,351.4 636.2,351.4 636.2,299.1 618.2,299.1"/>
  <polygon points="640.6,303.8 640.6,355.8 658.6,355.8 658.6,303.8 640.6,303.8"/>
  <polygon points="663.0,304.3 663.0,357.2 681.0,357.2 681.0,304.3 663.0,304.3"/>
  <polygon points="685.4,311.4 685.4,360.7 703.4,360.7 703.4,311.4 685.4,311.4"/>
  <polygon points="707.8,315.6 707.8,365.0 725.8,365.0 725.8,315.6 707.8,315.6"/>
  <polygon points="730.2,322.3 730.2,369.4 748.2,369.4 748.2,322.3 730.2,322.3"/>
  <polygon points="752.6,322.0 752.6,369.5 770.6,369.5 770.6,322.0 752.6,322.0"/>
  <polygon points="775.0,333.6 775.0,381.7 793.0,381.7 793.0,333.6 775.0,333.6"/>
  <polygon points="797.4,339.6 797.4,388.4 815.4,388.4 815.4,339.6 797.4,339.6"/>
  <polygon points="819.8,345.0 819.8,391.6 837.8,391.6 837.8,345.0 819.8,345.0"/>
  <polygon points="842.2,348.4 842.2,394.4 860.2,394.4 860.2,348.4 842.2,348.4"/>
  <polygon points="864.6,355.9 864.6,401.1 882.6,401.1 882.6,355.9 864.6,355.9"/>
  <polygon points="887.0,360.0 887.0,405.1 905.0,405.1 905.0,360.0 887.0,360.0"/>
</g>
<g stroke="#000" stroke-width="0.90" fill="#845F48"  clip-path="url(#axis_clip)">
  <polygon points="147.8,223.6 147.8,375.2 165.8,375.2 165.8,223.6 147.8,223.6"/>
  <polygon points="170.2,228.4 170.2,377.9 188.2,377.9 188.2,228.4 170.2,228.4"/>
  <polygon points="192.6,228.4 192.6,376.8 210.6,376.8 210.6,228.4 192.6,228.4"/>
  <polygon points="215.0,229.4 215.0,378.7 233.0,378.7 233.0,229.4 215.0,229.4"/>
  <polygon points="237.4,215.8 237.4,361.7 255.4,361.7 255.4,215.8 237.4,215.8"/>
  <polygon points="259.8,214.6 259.8,355.4 277.8,355.4 277.8,214.6 259.8,214.6"/>
  <polygon points="282.2,202.0 282.2,340.1 300.2,340.1 300.2,202.0 282.2,202.0"/>
  <polygon points="304.6,192.8 304.6,329.7 322.6,329.7 322.6,192.8 304.6,192.8"/>
  <polygon points="327.0,212.9 327.0,348.3 345.0,348.3 345.0,212.9 327.0,212.9"/>
  <polygon points="349.4,291.2 349.4,426.1 367.4,426.1 367.4,291.2 349.4,291.2"/>
  <polygon points="371.8,258.3 371.8,393.7 389.8,393.7 389.8,258.3 371.8,258.3"/>
  <polygon points="394.2,304.1 394.2,436.6 412.2,436.6 412.2,304.1 394.2,304.1"/>
  <polygon points="416.6,309.8 416.6,442.3 434.6,442.3 434.6,309.8 416.6,309.8"/>
  <polygon points="439.0,312.6 439.0,445.1 457.0,445.1 457.0,312.6 439.0,312.6"/>
  <polygon points="461.4,315.2 461.4,446.3 479.4,446.3 479.4,315.2 461.4,315.2"/>
  <polygon points="483.8,320.6 483.8,453.1 501.8,453.1 501.8,320.6 483.8,320.6"/>
  <polygon points="506.2,320.2 506.2,453.8 524.2,453.8 524.2,320.2 506.2,320.2"/>
  <polygon points="528.6,324.2 528.6,464.6 546.6,464.6 546.6,324.2 528.6,324.2"/>
  <polygon points="551.0,335.9 551.0,465.8 569.0,465.8 569.0,335.9 551.0,335.9"/>
  <polygon points="573.4,341.3 573.4,468.6 591.4,468.6 591.4,341.3 573.4,341.3"/>
  <polygon points="595.8,345.8 595.8,478.0 613.8,478.0 613.8,345.8 595.8,345.8"/>
  <polygon points="618.2,351.4 618.2,481.9 636.2,481.9 636.2,351.4 618.2,351.4"/>
  <polygon points="640.6,355.8 640.6,484.9 658.6,484.9 658.6,355.8 640.6,355.8"/>
  <polygon points="663.0,357.2 663.0,485.0 681.0,485.0 681.0,357.2 663.0,357.2"/>
  <polygon points="685.4,360.7 685.4,486.8 703.4,486.8 703.4,360.7 685.4,360.7"/>
  <polygon points="707.8,365.0 707.8,492.1 725.8,492.1 725.8,365.0 707.8,365.0"/>
  <polygon points="730.2,369.4 730.2,495.8 748.2,495.8 748.2,369.4 730.2,369.4"/>
  <polygon points="752.6,369.5 752.6,494.1 770.6,494.1 770.6,369.5 752.6,369.5"/>
  <polygon points="775.0,381.7 775.0,499.7 793.0,499.7 793.0,381.7 775.0,381.7"/>
  <polygon points="797.4,388.4 797.4,505.3 815.4,505.3 815.4,388.4 797.4,388.4"/>
  <polygon points="819.8,391.6 819.8,508.6 837.8,508.6 837.8,391.6 819.8,391.6"/>
  <polygon points="842.2,394.4 842.2,510.4 860.2,510.4 860.2,394.4 842.2,394.4"/>
  <polygon points="864.6,401.1 864.6,513.7 882.6,513.7 882.6,401.1 864.6,401.1"/>
  <polygon points="887.0,405.1 887.0,516.6 905.0,516.6 905.0,405.1 887.0,405.1"/>
</g>
<g stroke="#000" stroke-width="0.90" fill="#4A89E8"  clip-path="url(#axis_clip)">
  <polygon points="147.8,375.2 147.8,501.7 165.8,501.7 165.8,375.2 147.8,375.2"/>
  <polygon points="170.2,377.9 170.2,498.3 188.2,498.3 188.2,377.9 170.2,377.9"/>
  <polygon points="192.6,376.8 192.6,496.8 210.6,496.8 210.6,376.8 192.6,376.8"/>
  <polygon points="215.0,378.7 215.0,495.2 233.0,495.2 233.0,378.7 215.0,378.7"/>
  <polygon points="237.4,361.7 237.4,492.0 255.4,492.0 255.4,361.7 237.4,361.7"/>
  <polygon points="259.8,355.4 259.8,484.4 277.8,484.4 277.8,355.4 259.8,355.4"/>
  <polygon points="282.2,340.1 282.2,481.9 300.2,481.9 300.2,340.1 282.2,340.1"/>
  <polygon points="304.6,329.7 304.6,479.1 322.6,479.1 322.6,329.7 304.6,329.7"/>
  <polygon points="327.0,348.3 327.0,481.3 345.0,481.3 345.0,348.3 327.0,348.3"/>
  <polygon points="349.4,426.1 349.4,479.6 367.4,479.6 367.4,426.1 349.4,426.1"/>
  <polygon points="371.8,393.7 371.8,479.2 389.8,479.2 389.8,393.7 371.8,393.7"/>
  <polygon points="394.2,436.6 394.2,479.1 412.2,479.1 412.2,436.6 394.2,436.6"/>
  <polygon points="416.6,442.3 416.6,482.9 434.6,482.9 434.6,442.3 416.6,442.3"/>
  <polygon points="439.0,445.1 439.0,486.2 457.0,486.2 457.0,445.1 439.0,445.1"/>
  <polygon points="461.4,446.3 461.4,489.3 479.4,489.3 479.4,446.3 461.4,446.3"/>
  <polygon points="483.8,453.1 483.8,489.4 501.8,489.4 501.8,453.1 483.8,453.1"/>
  <polygon points="506.2,453.8 506.2,492.4 524.2,492.4 524.2,453.8 506.2,453.8"/>
  <polygon points="528.6,464.6 528.6,492.8 546.6,492.8 546.6,464.6 528.6,464.6"/>
  <polygon points="551.0,465.8 551.0,496.6 569.0,496.6 569.0,465.8 551.0,465.8"/>
  <polygon points="573.4,468.6 573.4,500.7 591.4,500.7 591.4,468.6 573.4,468.6"/>
  <polygon points="595.8,478.0 595.8,503.0 613.8,503.0 613.8,478.0 595.8,478.0"/>
  <polygon points="618.2,481.9 618.2,502.9 636.2,502.9 636.2,481.9 618.2,481.9"/>
  <polygon points="640.6,484.9 640.6,503.3 658.6,503.3 658.6,484.9 640.6,484.9"/>
  <polygon points="663.0,485.0 663.0,503.0 681.0,503.0 681.0,485.0 663.0,485.0"/>
  <polygon points="685.4,486.8 685.4,504.5 703.4,504.5 703.4,486.8 685.4,486.8"/>
  <polygon points="707.8,492.1 707.8,504.2 725.8,504.2 725.8,492.1 707.8,492.1"/>
  <polygon points="730.2,495.8 730.2,506.4 748.2,506.4 748.2,495.8 730.2,495.8"/>
  <polygon points="752.6,494.1 752.6,503.8 770.6,503.8 770.6,494.1 752.6,494.1"/>
  <polygon points="775.0,499.7 775.0,507.9 793.0,507.9 793.0,499.7 775.0,499.7"/>
  <polygon points="797.4,505.3 797.4,514.4 815.4,514.4 815.4,505.3 797.4,505.3"/>
  <polygon points="819.8,508.6 819.8,519.2 837.8,519.2 837.8,508.6 819.8,508.6"/>
  <polygon points="842.2,510.4 842.2,519.0 860.2,519.0 860.2,510.4 842.2,510.4"/>
  <polygon points="864.6,513.7 864.6,520.9 882.6,520.9 882.6,513.7 864.6,513.7"/>
  <polygon points="887.0,516.6 887.0,523.7 905.0,523.7 905.0,516.6 887.0,516.6"/>
</g>
<g stroke="#000" stroke-width="0.90" fill="#FF7F61"  clip-path="url(#axis_clip)">
  <polygon points="147.8,501.7 147.8,587.2 165.8,587.2 165.8,501.7 147.8,501.7"/>
  <polygon points="170.2,498.3 170.2,587.2 188.2,587.2 188.2,498.3 170.2,498.3"/>
  <polygon points="192.6,496.8 192.6,587.2 210.6,587.2 210.6,496.8 192.6,496.8"/>
  <polygon points="215.0,495.2 215.0,587.2 233.0,587.2 233.0,495.2 215.0,495.2"/>
  <polygon points="237.4,492.0 237.4,587.2 255.4,587.2 255.4,492.0 237.4,492.0"/>
  <polygon points="259.8,484.4 259.8,587.2 277.8,587.2 277.8,484.4 259.8,484.4"/>
  <polygon points="282.2,481.9 282.2,587.2 300.2,587.2 300.2,481.9 282.2,481.9"/>
  <polygon points="304.6,479.1 304.6,587.2 322.6,587.2 322.6,479.1 304.6,479.1"/>
  <polygon points="327.0,481.3 327.0,587.2 345.0,587.2 345.0,481.3 327.0,481.3"/>
  <polygon points="349.4,479.6 349.4,587.2 367.4,587.2 367.4,479.6 349.4,479.6"/>
  <polygon points="371.8,479.2 371.8,587.2 389.8,587.2 389.8,479.2 371.8,479.2"/>
  <polygon points="394.2,479.1 394.2,587.2 412.2,587.2 412.2,479.1 394.2,479.1"/>
  <polygon points="416.6,482.9 416.6,587.2 434.6,587.2 434.6,482.9 416.6,482.9"/>
  <polygon points="439.0,486.2 439.0,587.2 457.0,587.2 457.0,486.2 439.0,486.2"/>
  <polygon points="461.4,489.3 461.4,587.2 479.4,587.2 479.4,489.3 461.4,489.3"/>
  <polygon points="483.8,489.4 483.8,587.2 501.8,587.2 501.8,489.4 483.8,489.4"/>
  <polygon points="506.2,492.4 506.2,587.2 524.2,587.2 524.2,492.4 506.2,492.4"/>
  <polygon points="528.6,492.8 528.6,587.2 546.6,587.2 546.6,492.8 528.6,492.8"/>
  <polygon points="551.0,496.6 551.0,587.2 569.0,587.2 569.0,496.6 551.0,496.6"/>
  <polygon points="573.4,500.7 573.4,587.2 591.4,587.2 591.4,500.7 573.4,500.7"/>
  <polygon points="595.8,503.0 595.8,587.2 613.8,587.2 613.8,503.0 595.8,503.0"/>
  <polygon points="618.2,502.9 618.2,587.2 636.2,587.2 636.2,502.9 618.2,502.9"/>
  <polygon points="640.6,503.3 640.6,587.2 658.6,587.2 658.6,503.3 640.6,503.3"/>
  <polygon points="663.0,503.0 663.0,587.2 681.0,587.2 681.0,503.0 663.0,503.0"/>
  <polygon points="685.4,504.5 685.4,587.2 703.4,587.2 703.4,504.5 685.4,504.5"/>
  <polygon points="707.8,504.2 707.8,587.2 725.8,587.2 725.8,504.2 707.8,504.2"/>
  <polygon points="730.2,506.4 730.2,587.2 748.2,587.2 748.2,506.4 730.2,506.4"/>
  <polygon points="752.6,503.8 752.6,587.2 770.6,587.2 770.6,503.8 752.6,503.8"/>
  <polygon points="775.0,507.9 775.0,587.2 793.0,587.2 793.0,507.9 775.0,507.9"/>
  <polygon points="797.4,514.4 797.4,587.2 815.4,587.2 815.4,514.4 797.4,514.4"/>
  <polygon points="819.8,519.2 819.8,587.2 837.8,587.2 837.8,519.2 819.8,519.2"/>
  <polygon points="842.2,519.0 842.2,587.2 860.2,587.2 860.2,519.0 842.2,519.0"/>
  <polygon points="864.6,520.9 864.6,587.2 882.6,587.2 882.6,520.9 864.6,520.9"/>
  <polygon points="887.0,523.7 887.0,587.2 905.0,587.2 905.0,523.7 887.0,523.7"/>
</g>
<polyline class="pl" points="156.8,159.9 179.2,164.6 201.6,163.7 224.0,164.4 246.4,150.7 268.8,147.6 291.2,134.0 313.6,125.7 336.0,144.1 358.4,224.1 380.8,191.8 403.2,238.2 425.6,247.7 448.0,245.9 470.4,245.8 492.8,251.0 515.2,252.5 537.6,258.0 560.0,272.5 582.4,280.9 604.8,286.5 627.2,292.0 649.6,297.0 672.0,297.8 694.4,305.1 716.8,309.5 739.2,316.3 761.6,316.2 784.0,327.8 806.4,333.8 828.8,339.3 851.2,342.6 873.6,350.0 896.0,354.0" stroke="#000" stroke-width="5.40" stroke-opacity="1.00" fill="none" clip-path="url(#axis_clip)"/>
<g class="pl" fill="#FFF" stroke="#000" stroke-width="0.900">
  <circle cx="179.2" cy="164.6" r="2.2" />
  <circle cx="201.6" cy="163.7" r="2.2" />
  <circle cx="224.0" cy="164.4" r="2.2" />
  <circle cx="246.4" cy="150.7" r="2.2" />
  <circle cx="268.8" cy="147.6" r="2.2" />
  <circle cx="291.2" cy="134.0" r="2.2" />
  <circle cx="313.6" cy="125.7" r="2.2" />
  <circle cx="336.0" cy="144.1" r="2.2" />
  <circle cx="358.4" cy="224.1" r="2.2" />
  <circle cx="403.2" cy="238.2" r="2.2" />
  <circle cx="425.6" cy="247.7" r="2.2" />
  <circle cx="448.0" cy="245.9" r="2.2" />
  <circle cx="470.4" cy="245.8" r="2.2" />
  <circle cx="492.8" cy="251.0" r="2.2" />
  <circle cx="515.2" cy="252.5" r="2.2" />
  <circle cx="537.6" cy="258.0" r="2.2" />
  <circle cx="560.0" cy="272.5" r="2.2" />
  <circle cx="582.4" cy="280.9" r="2.2" />
  <circle cx="627.2" cy="292.0" r="2.2" />
  <circle cx="649.6" cy="297.0" r="2.2" />
  <circle cx="672.0" cy="297.8" r="2.2" />
  <circle cx="694.4" cy="305.1" r="2.2" />
  <circle cx="716.8" cy="309.5" r="2.2" />
  <circle cx="739.2" cy="316.3" r="2.2" />
  <circle cx="761.6" cy="316.2" r="2.2" />
  <circle cx="784.0" cy="327.8" r="2.2" />
  <circle cx="806.4" cy="333.8" r="2.2" />
  <circle cx="851.2" cy="342.6" r="2.2" />
  <circle cx="873.6" cy="350.0" r="2.2" />
  <circle cx="896.0" cy="354.0" r="2.2" />
</g>
<g class="pl" fill="#FFF" stroke="#000" stroke-width="0.900">
  <circle cx="156.8" cy="159.9" r="5.4" />
  <circle cx="380.8" cy="191.8" r="5.4" />
  <circle cx="604.8" cy="286.5" r="5.4" />
  <circle cx="828.8" cy="339.3" r="5.4" />
</g>
<text transform="translate(145.6,47.2)" dy="0.0" font-size="27.00" fill="#808080" stroke="none">Annual N<tspan dy="0.2em"><tspan style="font-size:70%">2</tspan></tspan><tspan dy="-0.2em">O</tspan> Emissions: Japan</text>
<text transform="translate(130.0,157.8)" dy="8.1" font-size="27.00" fill="#808080" stroke="none" text-anchor="end">N<tspan dy="0.2em"><tspan style="font-size:70%">2</tspan></tspan><tspan dy="-0.2em">O</tspan></text>
<text transform="translate(945.6,339.5)" dy="7.6" font-size="25.20" fill="#000" stroke="none">-45.4% since 1990</text>
<text transform="translate(945.6,555.4)" dy="7.6" font-size="25.20" fill="#FF7F61" stroke="none">Energy</text>
<text transform="translate(945.6,520.1)" dy="7.6" font-size="25.20" fill="#4A89E8" stroke="none">Industrial Processes</text>
<text transform="translate(945.6,460.9)" dy="7.6" font-size="25.20" fill="#845F48" stroke="none">Agriculture</text>
<text transform="translate(945.6,389.6)" dy="7.6" font-size="25.20" fill="#DBA746" stroke="none">Waste</text>
<text transform="translate(945.6,364.5)" dy="7.6" font-size="25.20" fill="#7FBF7F" stroke="none">LULUCF</text>
<polyline class="pl" points="910.8,354.0 912.4,354.0 913.8,353.8 915.2,353.6 916.4,353.3 917.6,352.9 918.8,352.4 919.8,351.9 920.8,351.3 921.7,350.7 922.7,350.0 923.5,349.3 924.4,348.6 925.2,347.9 926.0,347.1 926.8,346.4 927.6,345.6 928.4,344.9 929.3,344.2 930.1,343.5 931.1,342.8 932.0,342.2 933.0,341.6 934.0,341.1 935.2,340.6 936.4,340.2 937.6,339.9 939.0,339.7 940.4,339.5 942.0,339.5" stroke="#000" stroke-width="0.90" stroke-opacity="1.00" fill="none" />
<polyline class="pl" points="910.8,382.6 912.4,382.6 913.8,382.7 915.2,382.8 916.4,382.9 917.6,383.1 918.8,383.3 919.8,383.6 920.8,383.9 921.7,384.2 922.7,384.5 923.5,384.8 924.4,385.2 925.2,385.5 926.0,385.9 926.8,386.2 927.6,386.6 928.4,387.0 929.3,387.3 930.1,387.6 931.1,388.0 932.0,388.3 933.0,388.5 934.0,388.8 935.2,389.0 936.4,389.2 937.6,389.4 939.0,389.5 940.4,389.5 942.0,389.6" stroke="#DBA746" stroke-width="0.90" stroke-opacity="1.00" fill="none" />
<polyline class="pl" points="910.8,357.0 912.4,357.0 913.8,357.1 915.2,357.2 916.4,357.4 917.6,357.6 918.8,357.9 919.8,358.1 920.8,358.4 921.7,358.7 922.7,359.1 923.5,359.4 924.4,359.8 925.2,360.2 926.0,360.6 926.8,361.0 927.6,361.4 928.4,361.7 929.3,362.1 930.1,362.5 931.1,362.8 932.0,363.1 933.0,363.4 934.0,363.7 935.2,363.9 936.4,364.1 937.6,364.3 939.0,364.4 940.4,364.5 942.0,364.5" stroke="#7FBF7F" stroke-width="0.90" stroke-opacity="1.00" fill="none" />
<text transform="translate(160.0,666.1)" font-size="19.80" font-family="Helvetica" fill="#BFBFBF" stroke="none" xml:space="preserve">CICERO   &#9679;   Data: UNFCCC (2025)</text>
<g>
  <rect x="123.0" y="651.4" width="34" height="17" fill="#FFF" stroke="none" opacity="0.01"/>
  <g transform="translate(124.0,652.4) scale(0.24)">
  <g><circle fill="#FFF" cx="37.79" cy="28.5" r="28.84"/>
     <circle fill="none" cx="37.79" cy="28.5" r="28.84" stroke="#BFBFBF" stroke-width="5.5"/>
     <path fill="#BFBFBF" d="M37.16,23.19 l-4.29,2.23c-0.458-0.951-1.02-1.62-1.69-2c-0.667-0.38-1.29-0.571-1.86-0.571c-2.86,0-4.29,1.89-4.29,5.66 c0,1.71,0.36,3.08,1.09,4.11c0.724,1.03,1.79,1.54,3.2,1.54c1.87,0,3.18-0.915,3.94-2.74l3.94,2 c-0.838,1.56-2,2.79-3.49,3.69c-1.48,0.896-3.12,1.34-4.91,1.34c-2.86,0-5.16-0.875-6.92-2.63 c-1.75-1.75-2.63-4.19-2.63-7.31c0-3.05,0.886-5.47,2.66-7.26c1.77-1.79,4.01-2.69,6.72-2.69 C32.6,18.56,35.44,20.1,37.16,23.19z
              M55.61,23.19l-4.23,2.23c-0.457-0.951-1.02-1.62-1.69-2 c-0.668-0.38-1.31-0.571-1.91-0.571c-2.86,0-4.29,1.89-4.29,5.66c0,1.71,0.363,3.08,1.09,4.11 c0.723,1.03,1.79,1.54,3.2,1.54c1.87,0,3.18-0.915,3.94-2.74l4,2c-0.875,1.56-2.06,2.79-3.54,3.69 c-1.49,0.9-3.11,1.34-4.86,1.34c-2.9,0-5.21-0.875-6.94-2.63c-1.74-1.75-2.6-4.19-2.6-7.31 c0-3.05,0.885-5.47,2.66-7.26c1.77-1.79,4.01-2.69,6.71-2.69C51.12,18.56,53.944,20.1,55.61,23.19z"/>
  </g></g>
  <g transform="translate(140.2,652.4) scale(0.24)">
  <g><circle fill="#FFF" cx="37.79" cy="28.5" r="28.84"/>
     <circle fill="none" cx="37.79" cy="28.5" r="28.84" stroke="#BFBFBF" stroke-width="5.5"/>
     <path fill="#BFBFBF" d="M46.129,20.557v13.085h-3.656v15.542h-9.944V33.643h-3.656V20.557 c0-0.572,0.2-1.057,0.599-1.457c0.401-0.399,0.887-0.6,1.457-0.6h13.144c0.533,0,1.01,0.2,1.428,0.6 C45.918,19.5,46.129,19.986,46.129,20.557z
              M33.042,12.329c0-3.008,1.485-4.514,4.458-4.514s4.457,1.504,4.457,4.514 c0,2.971-1.486,4.457-4.457,4.457S33.042,15.3,33.042,12.329z"/>
  </g></g>
</g>
</g>
</svg>
