<svg version="1.1" xmlns="http://www.w3.org/2000/svg" xmlns:xlink="http://www.w3.org/1999/xlink" width="100%" height="100%" viewBox="0 0 1200.000 674.916">
<title>Annual CH4 Emissions: France</title>
<style type="text/css">
  #main {font-family:Helvetica,Arial,sans-serif; font-size:27.00px;
         fill-opacity:1; fill:#000000; stroke:none; stroke-linejoin:round; stroke-linecap:round; stroke-width:1.00;}
  .marker {stroke-opacity:0;fill-opacity:0;}
  .marker:hover {stroke-opacity:0.5; fill-opacity:1;}
  .ticklabel {font-size:27.00px;fill:#808080;stroke:none;font-family:Helvetica}
  .ytl {text-anchor:end;}
  .dp1 {pointer-events:none;font-size:70%;text-anchor:middle;fill:#000000;}
  .dp2 {pointer-events:none;font-size:70%;text-anchor:middle;fill:#FFFFFF;}
  .numtip {pointer-events:none;}
  .cc {opacity:0.25;}
.dl_fe {background-color:#FDFFDF;display:flex;margin:auto;align-items:center}
.dl_fe_p {font-size:20px;text-align:center;margin:3px}
.dl_el {display:none;pointer-events:none;}
.cc:hover + .dl_el {display:block;}
text:hover + .dl_el {display:block;}
</style>
<defs>
  <clipPath id="axis_clip"><rect x="145.8" y="54.2" width="761.2" height="532.8" /></clipPath>
  <path id="line_y" d="M 0,53.993 v 533.183" stroke="#262626" stroke-opacity="0.15" stroke-width="1.00"/>
  <path id="line_x" d="M 145.600,0 h 761.600" stroke="#262626" stroke-opacity="0.15" stroke-width="1.00"/>
  <path id="tick_y" d="M 145.600,0 h -6.000" stroke="#808080" stroke-width="0.90"/>
  <path id="tick_x" d="M 0,587.177 v 6.000" stroke="#808080" stroke-width="0.90"/>
</defs>
<g id="main">
<use xlink:href="#line_y" transform="translate(156.8,0)"/>
<use xlink:href="#line_y" transform="translate(268.8,0)"/>
<use xlink:href="#line_y" transform="translate(380.8,0)"/>
<use xlink:href="#line_y" transform="translate(492.8,0)"/>
<use xlink:href="#line_y" transform="translate(604.8,0)"/>
<use xlink:href="#line_y" transform="translate(716.8,0)"/>
<use xlink:href="#line_y" transform="translate(828.8,0)"/>
<use xlink:href="#line_y" transform="translate(896.0,0)"/>
<use xlink:href="#line_x" transform="translate(0,587.2)"/>
<use xlink:href="#line_x" transform="translate(0,434.8)"/>
<use xlink:href="#line_x" transform="translate(0,282.5)"/>
<use xlink:href="#line_x" transform="translate(0,130.2)"/>
<use xlink:href="#tick_y" transform="translate(0,587.2)"/>
<use xlink:href="#tick_y" transform="translate(0,434.8)"/>
<use xlink:href="#tick_y" transform="translate(0,282.5)"/>
<use xlink:href="#tick_y" transform="translate(0,130.2)"/>
<use xlink:href="#tick_x" transform="translate(156.8,0)"/>
<use xlink:href="#tick_x" transform="translate(268.8,0)"/>
<use xlink:href="#tick_x" transform="translate(380.8,0)"/>
<use xlink:href="#tick_x" transform="translate(492.8,0)"/>
<use xlink:href="#tick_x" transform="translate(604.8,0)"/>
<use xlink:href="#tick_x" transform="translate(716.8,0)"/>
<use xlink:href="#tick_x" transform="translate(828.8,0)"/>
<use xlink:href="#tick_x" transform="translate(896.0,0)"/>
<polyline points="145.6,53.993 145.6,587.177 907.2,587.177" stroke="#808080" stroke-width="0.90" fill="none"/>
<text class="ticklabel xtl" transform="translate(156.8,629.0)" text-anchor="middle">1990</text>
<text class="ticklabel xtl" transform="translate(268.8,629.0)" text-anchor="middle">1995</text>
<text class="ticklabel xtl" transform="translate(380.8,629.0)" text-anchor="middle">2000</text>
<text class="ticklabel xtl" transform="translate(492.8,629.0)" text-anchor="middle">2005</text>
<text class="ticklabel xtl" transform="translate(604.8,629.0)" text-anchor="middle">2010</text>
<text class="ticklabel xtl" transform="translate(716.8,629.0)" text-anchor="middle">2015</text>
<text class="ticklabel xtl" transform="translate(828.8,629.0)" text-anchor="middle">2020</text>
<text class="ticklabel xtl" transform="translate(896.0,629.0)" text-anchor="middle">23</text>
<text class="ticklabel ytl" transform="translate(128.8,595.3)">0</text>
<text class="ticklabel ytl" transform="translate(128.8,442.9)">1</text>
<text class="ticklabel ytl" transform="translate(128.8,290.6)">2</text>
<text class="ticklabel ytl" transform="translate(128.8,138.3)">3 Mt</text>
<g stroke="#000" stroke-width="0.90" fill="#7FBF7F"  clip-path="url(#axis_clip)">
  <polygon points="147.8,138.3 147.8,141.7 165.8,141.7 165.8,138.3 147.8,138.3"/>
  <polygon points="170.2,137.3 170.2,140.0 188.2,140.0 188.2,137.3 170.2,137.3"/>
  <polygon points="192.6,138.0 192.6,140.9 210.6,140.9 210.6,138.0 192.6,138.0"/>
  <polygon points="215.0,136.0 215.0,138.9 233.0,138.9 233.0,136.0 215.0,136.0"/>
  <polygon points="237.4,121.7 237.4,139.4 255.4,139.4 255.4,121.7 237.4,121.7"/>
  <polygon points="259.8,118.0 259.8,137.2 277.8,137.2 277.8,118.0 259.8,118.0"/>
  <polygon points="282.2,126.6 282.2,141.5 300.2,141.5 300.2,126.6 282.2,126.6"/>
  <polygon points="304.6,138.0 304.6,149.9 322.6,149.9 322.6,138.0 304.6,138.0"/>
  <polygon points="327.0,138.6 327.0,148.3 345.0,148.3 345.0,138.6 327.0,138.6"/>
  <polygon points="349.4,140.7 349.4,148.8 367.4,148.8 367.4,140.7 349.4,140.7"/>
  <polygon points="371.8,137.4 371.8,144.4 389.8,144.4 389.8,137.4 371.8,137.4"/>
  <polygon points="394.2,136.6 394.2,142.8 412.2,142.8 412.2,136.6 394.2,136.6"/>
  <polygon points="416.6,147.1 416.6,152.8 434.6,152.8 434.6,147.1 416.6,147.1"/>
  <polygon points="439.0,154.1 439.0,159.7 457.0,159.7 457.0,154.1 439.0,154.1"/>
  <polygon points="461.4,161.2 461.4,166.0 479.4,166.0 479.4,161.2 461.4,161.2"/>
  <polygon points="483.8,166.6 483.8,171.2 501.8,171.2 501.8,166.6 483.8,166.6"/>
  <polygon points="506.2,170.6 506.2,175.0 524.2,175.0 524.2,170.6 506.2,170.6"/>
  <polygon points="528.6,171.1 528.6,175.6 546.6,175.6 546.6,171.1 528.6,171.1"/>
  <polygon points="551.0,167.0 551.0,171.4 569.0,171.4 569.0,167.0 551.0,167.0"/>
  <polygon points="573.4,174.0 573.4,178.4 591.4,178.4 591.4,174.0 573.4,174.0"/>
  <polygon points="595.8,175.4 595.8,179.7 613.8,179.7 613.8,175.4 595.8,175.4"/>
  <polygon points="618.2,190.7 618.2,195.0 636.2,195.0 636.2,190.7 618.2,190.7"/>
  <polygon points="640.6,193.7 640.6,197.9 658.6,197.9 658.6,193.7 640.6,193.7"/>
  <polygon points="663.0,203.0 663.0,206.9 681.0,206.9 681.0,203.0 663.0,203.0"/>
  <polygon points="685.4,210.7 685.4,214.7 703.4,214.7 703.4,210.7 685.4,210.7"/>
  <polygon points="707.8,214.6 707.8,218.6 725.8,218.6 725.8,214.6 707.8,214.6"/>
  <polygon points="730.2,215.5 730.2,219.5 748.2,219.5 748.2,215.5 730.2,215.5"/>
  <polygon points="752.6,219.2 752.6,223.3 770.6,223.3 770.6,219.2 752.6,219.2"/>
  <polygon points="775.0,225.8 775.0,229.7 793.0,229.7 793.0,225.8 775.0,225.8"/>
  <polygon points="797.4,226.2 797.4,230.0 815.4,230.0 815.4,226.2 797.4,226.2"/>
  <polygon points="819.8,234.2 819.8,237.9 837.8,237.9 837.8,234.2 819.8,234.2"/>
  <polygon points="842.2,242.1 842.2,245.7 860.2,245.7 860.2,242.1 842.2,242.1"/>
  <polygon points="864.6,248.0 864.6,252.2 882.6,252.2 882.6,248.0 864.6,248.0"/>
  <polygon points="887.0,253.1 887.0,256.7 905.0,256.7 905.0,253.1 887.0,253.1"/>
</g>
<g stroke="#000" stroke-width="0.90" fill="#DBA746"  clip-path="url(#axis_clip)">
  <polygon points="147.8,141.7 147.8,217.5 165.8,217.5 165.8,141.7 147.8,141.7"/>
  <polygon points="170.2,140.0 170.2,219.8 188.2,219.8 188.2,140.0 170.2,140.0"/>
  <polygon points="192.6,140.9 192.6,225.0 210.6,225.0 210.6,140.9 192.6,140.9"/>
  <polygon points="215.0,138.9 215.0,227.4 233.0,227.4 233.0,138.9 215.0,138.9"/>
  <polygon points="237.4,139.4 237.4,229.9 255.4,229.9 255.4,139.4 237.4,139.4"/>
  <polygon points="259.8,137.2 259.8,229.3 277.8,229.3 277.8,137.2 259.8,137.2"/>
  <polygon points="282.2,141.5 282.2,234.7 300.2,234.7 300.2,141.5 282.2,141.5"/>
  <polygon points="304.6,149.9 304.6,244.5 322.6,244.5 322.6,149.9 304.6,149.9"/>
  <polygon points="327.0,148.3 327.0,246.2 345.0,246.2 345.0,148.3 327.0,148.3"/>
  <polygon points="349.4,148.8 349.4,248.4 367.4,248.4 367.4,148.8 349.4,148.8"/>
  <polygon points="371.8,144.4 371.8,245.9 389.8,245.9 389.8,144.4 371.8,144.4"/>
  <polygon points="394.2,142.8 394.2,246.0 412.2,246.0 412.2,142.8 394.2,142.8"/>
  <polygon points="416.6,152.8 416.6,257.5 434.6,257.5 434.6,152.8 416.6,152.8"/>
  <polygon points="439.0,159.7 439.0,265.1 457.0,265.1 457.0,159.7 439.0,159.7"/>
  <polygon points="461.4,166.0 461.4,271.2 479.4,271.2 479.4,166.0 461.4,166.0"/>
  <polygon points="483.8,171.2 483.8,275.5 501.8,275.5 501.8,171.2 483.8,171.2"/>
  <polygon points="506.2,175.0 506.2,278.8 524.2,278.8 524.2,175.0 506.2,175.0"/>
  <polygon points="528.6,175.6 528.6,279.7 546.6,279.7 546.6,175.6 528.6,175.6"/>
  <polygon points="551.0,171.4 551.0,275.4 569.0,275.4 569.0,171.4 551.0,171.4"/>
  <polygon points="573.4,178.4 573.4,279.2 591.4,279.2 591.4,178.4 573.4,178.4"/>
  <polygon points="595.8,179.7 595.8,280.3 613.8,280.3 613.8,179.7 595.8,179.7"/>
  <polygon points="618.2,195.0 618.2,290.0 636.2,290.0 636.2,195.0 618.2,195.0"/>
  <polygon points="640.6,197.9 640.6,291.5 658.6,291.5 658.6,197.9 640.6,197.9"/>
  <polygon points="663.0,206.9 663.0,291.0 681.0,291.0 681.0,206.9 663.0,206.9"/>
  <polygon points="685.4,214.7 685.4,293.3 703.4,293.3 703.4,214.7 685.4,214.7"/>
  <polygon points="707.8,218.6 707.8,292.6 725.8,292.6 725.8,218.6 707.8,218.6"/>
  <polygon points="730.2,219.5 730.2,293.9 748.2,293.9 748.2,219.5 730.2,219.5"/>
  <polygon points="752.6,223.3 752.6,298.3 770.6,298.3 770.6,223.3 752.6,223.3"/>
  <polygon points="775.0,229.7 775.0,303.6 793.0,303.6 793.0,229.7 775.0,229.7"/>
  <polygon points="797.4,230.0 797.4,308.7 815.4,308.7 815.4,230.0 797.4,230.0"/>
  <polygon points="819.8,237.9 819.8,316.3 837.8,316.3 837.8,237.9 819.8,237.9"/>
  <polygon points="842.2,245.7 842.2,321.0 860.2,321.0 860.2,245.7 842.2,245.7"/>
  <polygon points="864.6,252.2 864.6,328.7 882.6,328.7 882.6,252.2 864.6,252.2"/>
  <polygon points="887.0,256.7 887.0,334.3 905.0,334.3 905.0,256.7 887.0,256.7"/>
</g>
<g stroke="#000" stroke-width="0.90" fill="#845F48"  clip-path="url(#axis_clip)">
  <polygon points="147.8,217.5 147.8,509.7 165.8,509.7 165.8,217.5 147.8,217.5"/>
  <polygon points="170.2,219.8 170.2,506.7 188.2,506.7 188.2,219.8 170.2,219.8"/>
  <polygon points="192.6,225.0 192.6,507.5 210.6,507.5 210.6,225.0 192.6,225.0"/>
  <polygon points="215.0,227.4 215.0,508.2 233.0,508.2 233.0,227.4 215.0,227.4"/>
  <polygon points="237.4,229.9 237.4,512.2 255.4,512.2 255.4,229.9 237.4,229.9"/>
  <polygon points="259.8,229.3 259.8,513.0 277.8,513.0 277.8,229.3 259.8,229.3"/>
  <polygon points="282.2,234.7 282.2,518.6 300.2,518.6 300.2,234.7 282.2,234.7"/>
  <polygon points="304.6,244.5 304.6,525.8 322.6,525.8 322.6,244.5 304.6,244.5"/>
  <polygon points="327.0,246.2 327.0,526.4 345.0,526.4 345.0,246.2 327.0,246.2"/>
  <polygon points="349.4,248.4 349.4,528.9 367.4,528.9 367.4,248.4 349.4,248.4"/>
  <polygon points="371.8,245.9 371.8,536.2 389.8,536.2 389.8,245.9 371.8,245.9"/>
  <polygon points="394.2,246.0 394.2,537.2 412.2,537.2 412.2,246.0 394.2,246.0"/>
  <polygon points="416.6,257.5 416.6,542.8 434.6,542.8 434.6,257.5 416.6,257.5"/>
  <polygon points="439.0,265.1 439.0,542.1 457.0,542.1 457.0,265.1 439.0,265.1"/>
  <polygon points="461.4,271.2 461.4,545.0 479.4,545.0 479.4,271.2 461.4,271.2"/>
  <polygon points="483.8,275.5 483.8,548.3 501.8,548.3 501.8,275.5 483.8,275.5"/>
  <polygon points="506.2,278.8 506.2,551.7 524.2,551.7 524.2,278.8 506.2,278.8"/>
  <polygon points="528.6,279.7 528.6,554.4 546.6,554.4 546.6,279.7 528.6,279.7"/>
  <polygon points="551.0,275.4 551.0,554.2 569.0,554.2 569.0,275.4 551.0,275.4"/>
  <polygon points="573.4,279.2 573.4,554.8 591.4,554.8 591.4,279.2 573.4,279.2"/>
  <polygon points="595.8,280.3 595.8,552.6 613.8,552.6 613.8,280.3 595.8,280.3"/>
  <polygon points="618.2,290.0 618.2,558.1 636.2,558.1 636.2,290.0 618.2,290.0"/>
  <polygon points="640.6,291.5 640.6,556.5 658.6,556.5 658.6,291.5 640.6,291.5"/>
  <polygon points="663.0,291.0 663.0,555.9 681.0,555.9 681.0,291.0 663.0,291.0"/>
  <polygon points="685.4,293.3 685.4,561.2 703.4,561.2 703.4,293.3 685.4,293.3"/>
  <polygon points="707.8,292.6 707.8,561.0 725.8,561.0 725.8,292.6 707.8,292.6"/>
  <polygon points="730.2,293.9 730.2,560.3 748.2,560.3 748.2,293.9 730.2,293.9"/>
  <polygon points="752.6,298.3 752.6,562.2 770.6,562.2 770.6,298.3 752.6,298.3"/>
  <polygon points="775.0,303.6 775.0,563.6 793.0,563.6 793.0,303.6 775.0,303.6"/>
  <polygon points="797.4,308.7 797.4,564.4 815.4,564.4 815.4,308.7 797.4,308.7"/>
  <polygon points="819.8,316.3 819.8,567.7 837.8,567.7 837.8,316.3 819.8,316.3"/>
  <polygon points="842.2,321.0 842.2,566.5 860.2,566.5 860.2,321.0 842.2,321.0"/>
  <polygon points="864.6,328.7 864.6,568.9 882.6,568.9 882.6,328.7 864.6,328.7"/>
  <polygon points="887.0,334.3 887.0,570.0 905.0,570.0 905.0,334.3 887.0,334.3"/>
</g>
<g stroke="#000" stroke-width="0.90" fill="#4A89E8"  clip-path="url(#axis_clip)">
  <polygon points="147.8,509.7 147.8,511.2 165.8,511.2 165.8,509.7 147.8,509.7"/>
  <polygon points="170.2,506.7 170.2,508.2 188.2,508.2 188.2,506.7 170.2,506.7"/>
  <polygon points="192.6,507.5 192.6,509.0 210.6,509.0 210.6,507.5 192.6,507.5"/>
  <polygon points="215.0,508.2 215.0,509.6 233.0,509.6 233.0,508.2 215.0,508.2"/>
  <polygon points="237.4,512.2 237.4,513.7 255.4,513.7 255.4,512.2 237.4,512.2"/>
  <polygon points="259.8,513.0 259.8,514.5 277.8,514.5 277.8,513.0 259.8,513.0"/>
  <polygon points="282.2,518.6 282.2,520.1 300.2,520.1 300.2,518.6 282.2,518.6"/>
  <polygon points="304.6,525.8 304.6,527.5 322.6,527.5 322.6,525.8 304.6,525.8"/>
  <polygon points="327.0,526.4 327.0,528.0 345.0,528.0 345.0,526.4 327.0,526.4"/>
  <polygon points="349.4,528.9 349.4,530.6 367.4,530.6 367.4,528.9 349.4,528.9"/>
  <polygon points="371.8,536.2 371.8,537.9 389.8,537.9 389.8,536.2 371.8,536.2"/>
  <polygon points="394.2,537.2 394.2,538.8 412.2,538.8 412.2,537.2 394.2,537.2"/>
  <polygon points="416.6,542.8 416.6,544.5 434.6,544.5 434.6,542.8 416.6,542.8"/>
  <polygon points="439.0,542.1 439.0,543.6 457.0,543.6 457.0,542.1 439.0,542.1"/>
  <polygon points="461.4,545.0 461.4,546.7 479.4,546.7 479.4,545.0 461.4,545.0"/>
  <polygon points="483.8,548.3 483.8,549.6 501.8,549.6 501.8,548.3 483.8,548.3"/>
  <polygon points="506.2,551.7 506.2,552.7 524.2,552.7 524.2,551.7 506.2,551.7"/>
  <polygon points="528.6,554.4 528.6,555.7 546.6,555.7 546.6,554.4 528.6,554.4"/>
  <polygon points="551.0,554.2 551.0,555.1 569.0,555.1 569.0,554.2 551.0,554.2"/>
  <polygon points="573.4,554.8 573.4,555.4 591.4,555.4 591.4,554.8 573.4,554.8"/>
  <polygon points="595.8,552.6 595.8,553.5 613.8,553.5 613.8,552.6 595.8,552.6"/>
  <polygon points="618.2,558.1 618.2,558.8 636.2,558.8 636.2,558.1 618.2,558.1"/>
  <polygon points="640.6,556.5 640.6,557.1 658.6,557.1 658.6,556.5 640.6,556.5"/>
  <polygon points="663.0,555.9 663.0,556.5 681.0,556.5 681.0,555.9 663.0,555.9"/>
  <polygon points="685.4,561.2 685.4,561.8 703.4,561.8 703.4,561.2 685.4,561.2"/>
  <polygon points="707.8,561.0 707.8,561.5 725.8,561.5 725.8,561.0 707.8,561.0"/>
  <polygon points="730.2,560.3 730.2,560.8 748.2,560.8 748.2,560.3 730.2,560.3"/>
  <polygon points="752.6,562.2 752.6,562.7 770.6,562.7 770.6,562.2 752.6,562.2"/>
  <polygon points="775.0,563.6 775.0,564.0 793.0,564.0 793.0,563.6 775.0,563.6"/>
  <polygon points="797.4,564.4 797.4,564.8 815.4,564.8 815.4,564.4 797.4,564.4"/>
  <polygon points="819.8,567.7 819.8,568.1 837.8,568.1 837.8,567.7 819.8,567.7"/>
  <polygon points="842.2,566.5 842.2,566.9 860.2,566.9 860.2,566.5 842.2,566.5"/>
  <polygon points="864.6,568.9 864.6,569.2 882.6,569.2 882.6,568.9 864.6,568.9"/>
  <polygon points="887.0,570.0 887.0,570.3 905.0,570.3 905.0,570.0 887.0,570.0"/>
</g>
<g stroke="#000" stroke-width="0.90" fill="#FF7F61"  clip-path="url(#axis_clip)">
  <polygon points="147.8,511.2 147.8,587.2 165.8,587.2 165.8,511.2 147.8,511.2"/>
  <polygon points="170.2,508.2 170.2,587.2 188.2,587.2 188.2,508.2 170.2,508.2"/>
  <polygon points="192.6,509.0 192.6,587.2 210.6,587.2 210.6,509.0 192.6,509.0"/>
  <polygon points="215.0,509.6 215.0,587.2 233.0,587.2 233.0,509.6 215.0,509.6"/>
  <polygon points="237.4,513.7 237.4,587.2 255.4,587.2 255.4,513.7 237.4,513.7"/>
  <polygon points="259.8,514.5 259.8,587.2 277.8,587.2 277.8,514.5 259.8,514.5"/>
  <polygon points="282.2,520.1 282.2,587.2 300.2,587.2 300.2,520.1 282.2,520.1"/>
  <polygon points="304.6,527.5 304.6,587.2 322.6,587.2 322.6,527.5 304.6,527.5"/>
  <polygon points="327.0,528.0 327.0,587.2 345.0,587.2 345.0,528.0 327.0,528.0"/>
  <polygon points="349.4,530.6 349.4,587.2 367.4,587.2 367.4,530.6 349.4,530.6"/>
  <polygon points="371.8,537.9 371.8,587.2 389.8,587.2 389.8,537.9 371.8,537.9"/>
  <polygon points="394.2,538.8 394.2,587.2 412.2,587.2 412.2,538.8 394.2,538.8"/>
  <polygon points="416.6,544.5 416.6,587.2 434.6,587.2 434.6,544.5 416.6,544.5"/>
  <polygon points="439.0,543.6 439.0,587.2 457.0,587.2 457.0,543.6 439.0,543.6"/>
  <polygon points="461.4,546.7 461.4,587.2 479.4,587.2 479.4,546.7 461.4,546.7"/>
  <polygon points="483.8,549.6 483.8,587.2 501.8,587.2 501.8,549.6 483.8,549.6"/>
  <polygon points="506.2,552.7 506.2,587.2 524.2,587.2 524.2,552.7 506.2,552.7"/>
  <polygon points="528.6,555.7 528.6,587.2 546.6,587.2 546.6,555.7 528.6,555.7"/>
  <polygon points="551.0,555.1 551.0,587.2 569.0,587.2 569.0,555.1 551.0,555.1"/>
  <polygon points="573.4,555.4 573.4,587.2 591.4,587.2 591.4,555.4 573.4,555.4"/>
  <polygon points="595.8,553.5 595.8,587.2 613.8,587.2 613.8,553.5 595.8,553.5"/>
  <polygon points="618.2,558.8 618.2,587.2 636.2,587.2 636.2,558.8 618.2,558.8"/>
  <polygon points="640.6,557.1 640.6,587.2 658.6,587.2 658.6,557.1 640.6,557.1"/>
  <polygon points="663.0,556.5 663.0,587.2 681.0,587.2 681.0,556.5 663.0,556.5"/>
  <polygon points="685.4,561.8 685.4,587.2 703.4,587.2 703.4,561.8 685.4,561.8"/>
  <polygon points="707.8,561.5 707.8,587.2 725.8,587.2 725.8,561.5 707.8,561.5"/>
  <polygon points="730.2,560.8 730.2,587.2 748.2,587.2 748.2,560.8 730.2,560.8"/>
  <polygon points="752.6,562.7 752.6,587.2 770.6,587.2 770.6,562.7 752.6,562.7"/>
  <polygon points="775.0,564.0 775.0,587.2 793.0,587.2 793.0,564.0 775.0,564.0"/>
  <polygon points="797.4,564.8 797.4,587.2 815.4,587.2 815.4,564.8 797.4,564.8"/>
  <polygon points="819.8,568.1 819.8,587.2 837.8,587.2 837.8,568.1 819.8,568.1"/>
  <polygon points="842.2,566.9 842.2,587.2 860.2,587.2 860.2,566.9 842.2,566.9"/>
  <polygon points="864.6,569.2 864.6,587.2 882.6,587.2 882.6,569.2 864.6,569.2"/>
  <polygon points="887.0,570.3 887.0,587.2 905.0,587.2 905.0,570.3 887.0,570.3"/>
</g>
<polyline class="pl" points="156.8,138.3 179.2,137.3 201.6,138.0 224.0,136.0 246.4,121.7 268.8,118.0 291.2,126.6 313.6,138.0 336.0,138.6 358.4,140.7 380.8,137.4 403.2,136.6 425.6,147.1 448.0,154.1 470.4,161.2 492.8,166.6 515.2,170.6 537.6,171.1 560.0,167.0 582.4,174.0 604.8,175.4 627.2,190.7 649.6,193.7 672.0,203.0 694.4,210.7 716.8,214.6 739.2,215.5 761.6,219.2 784.0,225.8 806.4,226.2 828.8,234.2 851.2,242.1 873.6,248.0 896.0,253.1" stroke="#000" stroke-width="5.40" stroke-opacity="1.00" fill="none" clip-path="url(#axis_clip)"/>
<g class="pl" fill="#FFF" stroke="#000" stroke-width="0.900">
  <circle cx="179.2" cy="137.3" r="2.2" />
  <circle cx="201.6" cy="138.0" r="2.2" />
  <circle cx="224.0" cy="136.0" r="2.2" />
  <circle cx="246.4" cy="121.7" r="2.2" />
  <circle cx="268.8" cy="118.0" r="2.2" />
  <circle cx="291.2" cy="126.6" r="2.2" />
  <circle cx="313.6" cy="138.0" r="2.2" />
  <circle cx="336.0" cy="138.6" r="2.2" />
  <circle cx="358.4" cy="140.7" r="2.2" />
  <circle cx="403.2" cy="136.6" r="2.2" />
  <circle cx="425.6" cy="147.1" r="2.2" />
  <circle cx="448.0" cy="154.1" r="2.2" />
  <circle cx="470.4" cy="161.2" r="2.2" />
  <circle cx="492.8" cy="166.6" r="2.2" />
  <circle cx="515.2" cy="170.6" r="2.2" />
  <circle cx="537.6" cy="171.1" r="2.2" />
  <circle cx="560.0" cy="167.0" r="2.2" />
  <circle cx="582.4" cy="174.0" r="2.2" />
  <circle cx="627.2" cy="190.7" r="2.2" />
  <circle cx="649.6" cy="193.7" r="2.2" />
  <circle cx="672.0" cy="203.0" r="2.2" />
  <circle cx="694.4" cy="210.7" r="2.2" />
  <circle cx="716.8" cy="214.6" r="2.2" />
  <circle cx="739.2" cy="215.5" r="2.2" />
  <circle cx="761.6" cy="219.2" r="2.2" />
  <circle cx="784.0" cy="225.8" r="2.2" />
  <circle cx="806.4" cy="226.2" r="2.2" />
  <circle cx="851.2" cy="242.1" r="2.2" />
  <circle cx="873.6" cy="248.0" r="2.2" />
  <circle cx="896.0" cy="253.1" r="2.2" />
</g>
<g class="pl" fill="#FFF" stroke="#000" stroke-width="0.900">
  <circle cx="156.8" cy="138.3" r="5.4" />
  <circle cx="380.8" cy="137.4" r="5.4" />
  <circle cx="604.8" cy="175.4" r="5.4" />
  <circle cx="828.8" cy="234.2" r="5.4" />
</g>
<text transform="translate(145.6,47.2)" dy="0.0" font-size="27.00" fill="#808080" stroke="none">Annual CH<tspan dy="0.2em"><tspan style="font-size:70%">4</tspan></tspan><tspan dy="-0.2em"> </tspan>Emissions: France</text>
<text transform="translate(130.0,157.8)" dy="8.1" font-size="27.00" fill="#808080" stroke="none" text-anchor="end">CH<tspan dy="0.2em"><tspan style="font-size:70%">4</tspan></tspan><tspan dy="-0.2em"></tspan></text>
<text transform="translate(945.6,241.4)" dy="7.6" font-size="25.20" fill="#000" stroke="none">-25.6% since 1990</text>
<text transform="translate(945.6,586.9)" dy="7.6" font-size="25.20" fill="#FF7F61" stroke="none">Energy</text>
<text transform="translate(945.6,561.9)" dy="7.6" font-size="25.20" fill="#4A89E8" stroke="none">Industrial Processes</text>
<text transform="translate(945.6,452.1)" dy="7.6" font-size="25.20" fill="#845F48" stroke="none">Agriculture</text>
<text transform="translate(945.6,295.5)" dy="7.6" font-size="25.20" fill="#DBA746" stroke="none">Waste</text>
<text transform="translate(945.6,266.5)" dy="7.6" font-size="25.20" fill="#7FBF7F" stroke="none">LULUCF</text>
<polyline class="pl" points="910.8,253.1 912.4,253.0 913.8,252.9 915.2,252.7 916.4,252.5 917.6,252.1 918.8,251.8 919.8,251.4 920.8,250.9 921.7,250.4 922.7,249.9 923.5,249.3 924.4,248.7 925.2,248.2 926.0,247.6 926.8,247.0 927.6,246.4 928.4,245.8 929.3,245.2 930.1,244.6 931.1,244.1 932.0,243.6 933.0,243.1 934.0,242.7 935.2,242.4 936.4,242.0 937.6,241.8 939.0,241.6 940.4,241.5 942.0,241.4" stroke="#000" stroke-width="0.90" stroke-opacity="1.00" fill="none" />
<polyline class="pl" points="910.8,578.7 912.4,578.8 913.8,578.8 915.2,579.0 916.4,579.2 917.6,579.4 918.8,579.6 919.8,579.9 920.8,580.3 921.7,580.6 922.7,581.0 923.5,581.4 924.4,581.8 925.2,582.2 926.0,582.6 926.8,583.0 927.6,583.5 928.4,583.9 929.3,584.3 930.1,584.7 931.1,585.1 932.0,585.4 933.0,585.7 934.0,586.0 935.2,586.3 936.4,586.5 937.6,586.7 939.0,586.8 940.4,586.9 942.0,586.9" stroke="#FF7F61" stroke-width="0.90" stroke-opacity="1.00" fill="none" />
<polyline class="pl" points="910.8,570.1 912.4,570.1 913.8,570.0 915.2,569.9 916.4,569.7 917.6,569.5 918.8,569.2 919.8,568.9 920.8,568.6 921.7,568.2 922.7,567.9 923.5,567.5 924.4,567.1 925.2,566.7 926.0,566.2 926.8,565.8 927.6,565.4 928.4,565.0 929.3,564.6 930.1,564.2 931.1,563.8 932.0,563.4 933.0,563.1 934.0,562.8 935.2,562.6 936.4,562.3 937.6,562.2 939.0,562.0 940.4,561.9 942.0,561.9" stroke="#4A89E8" stroke-width="0.90" stroke-opacity="1.00" fill="none" />
<polyline class="pl" points="910.8,254.9 912.4,254.9 913.8,255.0 915.2,255.2 916.4,255.5 917.6,255.8 918.8,256.2 919.8,256.6 920.8,257.0 921.7,257.5 922.7,258.1 923.5,258.6 924.4,259.2 925.2,259.8 926.0,260.4 926.8,261.0 927.6,261.6 928.4,262.2 929.3,262.7 930.1,263.3 931.1,263.8 932.0,264.3 933.0,264.8 934.0,265.2 935.2,265.6 936.4,265.9 937.6,266.1 939.0,266.3 940.4,266.4 942.0,266.5" stroke="#7FBF7F" stroke-width="0.90" stroke-opacity="1.00" fill="none" />
<text transform="translate(160.0,666.1)" font-size="19.80" font-family="Helvetica" fill="#BFBFBF" stroke="none" xml:space="preserve">CICERO   &#9679;   Data: UNFCCC (2025)</text>
<g>
  <rect x="123.0" y="651.4" width="34" height="17" fill="#FFF" stroke="none" opacity="0.01"/>
  <g transform="translate(124.0,652.4) scale(0.24)">
  <g><circle fill="#FFF" cx="37.79" cy="28.5" r="28.84"/>
     <circle fill="none" cx="37.79" cy="28.5" r="28.84" stroke="#BFBFBF" stroke-width="5.5"/>
     <path fill="#BFBFBF" d="M37.16,23.19 l-4.29,2.23c-0.458-0.951-1.02-1.62-1.69-2c-0.667-0.38-1.29-0.571-1.86-0.571c-2.86,0-4.29,1.89-4.29,5.66 c0,1.71,0.36,3.08,1.09,4.11c0.724,1.03,1.79,1.54,3.2,1.54c1.87,0,3.18-0.915,3.94-2.74l3.94,2 c-0.838,1.56-2,2.79-3.49,3.69c-1.48,0.896-3.12,1.34-4.91,1.34c-2.86,0-5.16-0.875-6.92-2.63 c-1.75-1.75-2.63-4.19-2.63-7.31c0-3.05,0.886-5.47,2.66-7.26c1.77-1.79,4.01-2.69,6.72-2.69 C32.6,18.56,35.44,20.1,37.16,23.19z
              M55.61,23.19l-4.23,2.23c-0.457-0.951-1.02-1.62-1.69-2 c-0.668-0.38-1.31-0.571-1.91-0.571c-2.86,0-4.29,1.89-4.29,5.66c0,1.71,0.363,3.08,1.09,4.11 c0.723,1.03,1.79,1.54,3.2,1.54c1.87,0,3.18-0.915,3.94-2.74l4,2c-0.875,1.56-2.06,2.79-3.54,3.69 c-1.49,0.9-3.11,1.34-4.86,1.34c-2.9,0-5.21-0.875-6.94-2.63c-1.74-1.75-2.6-4.19-2.6-7.31 c0-3.05,0.885-5.47,2.66-7.26c1.77-1.79,4.01-2.69,6.71-2.69C51.12,18.56,53.944,20.1,55.61,23.19z"/>
  </g></g>
  <g transform="translate(140.2,652.4) scale(0.24)">
  <g><circle fill="#FFF" cx="37.79" cy="28.5" r="28.84"/>
     <circle fill="none" cx="37.79" cy="28.5" r="28.84" stroke="#BFBFBF" stroke-width="5.5"/>
     <path fill="#BFBFBF" d="M46.129,20.557v13.085h-3.656v15.542h-9.944V33.643h-3.656V20.557 c0-0.572,0.2-1.057,0.599-1.457c0.401-0.399,0.887-0.6,1.457-0.6h13.144c0.533,0,1.01,0.2,1.428,0.6 C45.918,19.5,46.129,19.986,46.129,20.557z
              M33.042,12.329c0-3.008,1.485-4.514,4.458-4.514s4.457,1.504,4.457,4.514 c0,2.971-1.486,4.457-4.457,4.457S33.042,15.3,33.042,12.329z"/>
  </g></g>
</g>
</g>
</svg>
