<svg version="1.1" xmlns="http://www.w3.org/2000/svg" xmlns:xlink="http://www.w3.org/1999/xlink" width="100%" height="100%" viewBox="0 0 1200.000 674.916">
<title>Annual CH4 Emissions: France</title>
<style type="text/css">
  #main {font-family:Helvetica,Arial,sans-serif; font-size:27.00px;
         fill-opacity:1; fill:#000000; stroke:none; stroke-linejoin:round; stroke-linecap:round; stroke-width:1.00;}
  .marker {stroke-opacity:0;fill-opacity:0;}
  .marker:hover {stroke-opacity:0.5; fill-opacity:1;}
  .ticklabel {font-size:27.00px;fill:#808080;stroke:none;font-family:Helvetica}
  .ytl {text-anchor:end;}
  .dp1 {pointer-events:none;font-size:70%;text-anchor:middle;fill:#000000;}
  .dp2 {pointer-events:none;font-size:70%;text-anchor:middle;fill:#FFFFFF;}
  .numtip {pointer-events:none;}
  .cc {opacity:0.25;}
.dl_fe {background-color:#FDFFDF;display:flex;margin:auto;align-items:center}
.dl_fe_p {font-size:20px;text-align:center;margin:3px}
.dl_el {display:none;pointer-events:none;}
.cc:hover + .dl_el {display:block;}
text:hover + .dl_el {display:block;}
</style>
<defs>
  <clipPath id="axis_clip"><rect x="145.8" y="54.2" width="761.2" height="532.8" /></clipPath>
  <path id="line_y" d="M 0,53.993 v 533.183" stroke="#262626" stroke-opacity="0.15" stroke-width="1.00"/>
  <path id="line_x" d="M 145.600,0 h 761.600" stroke="#262626" stroke-opacity="0.15" stroke-width="1.00"/>
  <path id="tick_y" d="M 145.600,0 h -6.000" stroke="#808080" stroke-width="0.90"/>
  <path id="tick_x" d="M 0,587.177 v 6.000" stroke="#808080" stroke-width="0.90"/>
</defs>
<g id="main">
<use xlink:href="#line_y" transform="translate(156.5,0)"/>
<use xlink:href="#line_y" transform="translate(265.3,0)"/>
<use xlink:href="#line_y" transform="translate(374.1,0)"/>
<use xlink:href="#line_y" transform="translate(482.9,0)"/>
<use xlink:href="#line_y" transform="translate(591.7,0)"/>
<use xlink:href="#line_y" transform="translate(700.5,0)"/>
<use xlink:href="#line_y" transform="translate(809.3,0)"/>
<use xlink:href="#line_y" transform="translate(896.3,0)"/>
<use xlink:href="#line_x" transform="translate(0,587.2)"/>
<use xlink:href="#line_x" transform="translate(0,434.8)"/>
<use xlink:href="#line_x" transform="translate(0,282.5)"/>
<use xlink:href="#line_x" transform="translate(0,130.2)"/>
<use xlink:href="#tick_y" transform="translate(0,587.2)"/>
<use xlink:href="#tick_y" transform="translate(0,434.8)"/>
<use xlink:href="#tick_y" transform="translate(0,282.5)"/>
<use xlink:href="#tick_y" transform="translate(0,130.2)"/>
<use xlink:href="#tick_x" transform="translate(156.5,0)"/>
<use xlink:href="#tick_x" transform="translate(265.3,0)"/>
<use xlink:href="#tick_x" transform="translate(374.1,0)"/>
<use xlink:href="#tick_x" transform="translate(482.9,0)"/>
<use xlink:href="#tick_x" transform="translate(591.7,0)"/>
<use xlink:href="#tick_x" transform="translate(700.5,0)"/>
<use xlink:href="#tick_x" transform="translate(809.3,0)"/>
<use xlink:href="#tick_x" transform="translate(896.3,0)"/>
<polyline points="145.6,53.993 145.6,587.177 907.2,587.177" stroke="#808080" stroke-width="0.90" fill="none"/>
<text class="ticklabel xtl" transform="translate(156.5,629.0)" text-anchor="middle">1990</text>
<text class="ticklabel xtl" transform="translate(265.3,629.0)" text-anchor="middle">1995</text>
<text class="ticklabel xtl" transform="translate(374.1,629.0)" text-anchor="middle">2000</text>
<text class="ticklabel xtl" transform="translate(482.9,629.0)" text-anchor="middle">2005</text>
<text class="ticklabel xtl" transform="translate(591.7,629.0)" text-anchor="middle">2010</text>
<text class="ticklabel xtl" transform="translate(700.5,629.0)" text-anchor="middle">2015</text>
<text class="ticklabel xtl" transform="translate(809.3,629.0)" text-anchor="middle">2020</text>
<text class="ticklabel xtl" transform="translate(896.3,629.0)" text-anchor="middle">2024</text>
<text class="ticklabel ytl" transform="translate(128.8,595.3)">0</text>
<text class="ticklabel ytl" transform="translate(128.8,442.9)">1</text>
<text class="ticklabel ytl" transform="translate(128.8,290.6)">2</text>
<text class="ticklabel ytl" transform="translate(128.8,138.3)">3 Mt</text>
<g stroke="#000" stroke-width="0.90" fill="#7FBF7F"  clip-path="url(#axis_clip)">
  <polygon class="pl" points="147.8,134.9 147.8,138.8 165.2,138.8 165.2,134.9 147.8,134.9"/>
  <polygon class="pl" points="169.5,133.7 169.5,137.2 186.9,137.2 186.9,133.7 169.5,133.7"/>
  <polygon class="pl" points="191.3,134.5 191.3,138.0 208.7,138.0 208.7,134.5 191.3,134.5"/>
  <polygon class="pl" points="213.1,132.5 213.1,136.2 230.5,136.2 230.5,132.5 213.1,132.5"/>
  <polygon class="pl" points="234.8,118.2 234.8,136.7 252.2,136.7 252.2,118.2 234.8,118.2"/>
  <polygon class="pl" points="256.6,114.5 256.6,134.4 274.0,134.4 274.0,114.5 256.6,114.5"/>
  <polygon class="pl" points="278.3,123.0 278.3,138.7 295.7,138.7 295.7,123.0 278.3,123.0"/>
  <polygon class="pl" points="300.1,134.6 300.1,147.1 317.5,147.1 317.5,134.6 300.1,134.6"/>
  <polygon class="pl" points="321.9,135.2 321.9,145.5 339.3,145.5 339.3,135.2 321.9,135.2"/>
  <polygon class="pl" points="343.6,137.2 343.6,145.9 361.0,145.9 361.0,137.2 343.6,137.2"/>
  <polygon class="pl" points="365.4,134.3 365.4,141.6 382.8,141.6 382.8,134.3 365.4,134.3"/>
  <polygon class="pl" points="387.1,133.5 387.1,139.9 404.5,139.9 404.5,133.5 387.1,133.5"/>
  <polygon class="pl" points="408.9,143.1 408.9,149.8 426.3,149.8 426.3,143.1 408.9,143.1"/>
  <polygon class="pl" points="430.7,150.6 430.7,156.7 448.1,156.7 448.1,150.6 430.7,150.6"/>
  <polygon class="pl" points="452.4,157.2 452.4,162.9 469.8,162.9 469.8,157.2 452.4,157.2"/>
  <polygon class="pl" points="474.2,163.2 474.2,168.3 491.6,168.3 491.6,163.2 474.2,163.2"/>
  <polygon class="pl" points="495.9,167.3 495.9,172.1 513.3,172.1 513.3,167.3 495.9,167.3"/>
  <polygon class="pl" points="517.7,168.2 517.7,172.8 535.1,172.8 535.1,168.2 517.7,168.2"/>
  <polygon class="pl" points="539.5,164.2 539.5,168.7 556.9,168.7 556.9,164.2 539.5,164.2"/>
  <polygon class="pl" points="561.2,171.0 561.2,175.8 578.6,175.8 578.6,171.0 561.2,171.0"/>
  <polygon class="pl" points="583.0,172.5 583.0,177.2 600.4,177.2 600.4,172.5 583.0,172.5"/>
  <polygon class="pl" points="604.7,187.8 604.7,192.6 622.1,192.6 622.1,187.8 604.7,187.8"/>
  <polygon class="pl" points="626.5,190.5 626.5,195.0 643.9,195.0 643.9,190.5 626.5,190.5"/>
  <polygon class="pl" points="648.3,199.3 648.3,203.8 665.7,203.8 665.7,199.3 648.3,199.3"/>
  <polygon class="pl" points="670.0,207.2 670.0,211.9 687.4,211.9 687.4,207.2 670.0,207.2"/>
  <polygon class="pl" points="691.8,210.8 691.8,215.5 709.2,215.5 709.2,210.8 691.8,210.8"/>
  <polygon class="pl" points="713.5,211.2 713.5,216.0 730.9,216.0 730.9,211.2 713.5,211.2"/>
  <polygon class="pl" points="735.3,214.1 735.3,219.6 752.7,219.6 752.7,214.1 735.3,214.1"/>
  <polygon class="pl" points="757.1,221.4 757.1,226.0 774.5,226.0 774.5,221.4 757.1,221.4"/>
  <polygon class="pl" points="778.8,220.9 778.8,226.2 796.2,226.2 796.2,220.9 778.8,220.9"/>
  <polygon class="pl" points="800.6,229.4 800.6,233.8 818.0,233.8 818.0,229.4 800.6,229.4"/>
  <polygon class="pl" points="822.3,236.2 822.3,240.9 839.7,240.9 839.7,236.2 822.3,236.2"/>
  <polygon class="pl" points="844.1,242.7 844.1,247.7 861.5,247.7 861.5,242.7 844.1,242.7"/>
  <polygon class="pl" points="865.9,247.1 865.9,251.8 883.3,251.8 883.3,247.1 865.9,247.1"/>
  <polygon class="pl" points="887.6,251.4 887.6,256.2 905.0,256.2 905.0,251.4 887.6,251.4"/>
</g>
<g stroke="#000" stroke-width="0.90" fill="#DBA746"  clip-path="url(#axis_clip)">
  <polygon class="pl" points="147.8,138.8 147.8,215.5 165.2,215.5 165.2,138.8 147.8,138.8"/>
  <polygon class="pl" points="169.5,137.2 169.5,217.8 186.9,217.8 186.9,137.2 169.5,137.2"/>
  <polygon class="pl" points="191.3,138.0 191.3,223.0 208.7,223.0 208.7,138.0 191.3,138.0"/>
  <polygon class="pl" points="213.1,136.2 213.1,225.6 230.5,225.6 230.5,136.2 213.1,136.2"/>
  <polygon class="pl" points="234.8,136.7 234.8,228.2 252.2,228.2 252.2,136.7 234.8,136.7"/>
  <polygon class="pl" points="256.6,134.4 256.6,227.5 274.0,227.5 274.0,134.4 256.6,134.4"/>
  <polygon class="pl" points="278.3,138.7 278.3,232.9 295.7,232.9 295.7,138.7 278.3,138.7"/>
  <polygon class="pl" points="300.1,147.1 300.1,242.7 317.5,242.7 317.5,147.1 300.1,147.1"/>
  <polygon class="pl" points="321.9,145.5 321.9,244.4 339.3,244.4 339.3,145.5 321.9,145.5"/>
  <polygon class="pl" points="343.6,145.9 343.6,246.7 361.0,246.7 361.0,145.9 343.6,145.9"/>
  <polygon class="pl" points="365.4,141.6 365.4,244.1 382.8,244.1 382.8,141.6 365.4,141.6"/>
  <polygon class="pl" points="387.1,139.9 387.1,244.2 404.5,244.2 404.5,139.9 387.1,139.9"/>
  <polygon class="pl" points="408.9,149.8 408.9,255.7 426.3,255.7 426.3,149.8 408.9,149.8"/>
  <polygon class="pl" points="430.7,156.7 430.7,263.3 448.1,263.3 448.1,156.7 430.7,156.7"/>
  <polygon class="pl" points="452.4,162.9 452.4,269.4 469.8,269.4 469.8,162.9 452.4,162.9"/>
  <polygon class="pl" points="474.2,168.3 474.2,273.8 491.6,273.8 491.6,168.3 474.2,168.3"/>
  <polygon class="pl" points="495.9,172.1 495.9,277.2 513.3,277.2 513.3,172.1 495.9,172.1"/>
  <polygon class="pl" points="517.7,172.8 517.7,278.2 535.1,278.2 535.1,172.8 517.7,172.8"/>
  <polygon class="pl" points="539.5,168.7 539.5,274.1 556.9,274.1 556.9,168.7 539.5,168.7"/>
  <polygon class="pl" points="561.2,175.8 561.2,278.1 578.6,278.1 578.6,175.8 561.2,175.8"/>
  <polygon class="pl" points="583.0,177.2 583.0,279.4 600.4,279.4 600.4,177.2 583.0,177.2"/>
  <polygon class="pl" points="604.7,192.6 604.7,289.3 622.1,289.3 622.1,192.6 604.7,192.6"/>
  <polygon class="pl" points="626.5,195.0 626.5,290.5 643.9,290.5 643.9,195.0 626.5,195.0"/>
  <polygon class="pl" points="648.3,203.8 648.3,289.9 665.7,289.9 665.7,203.8 648.3,203.8"/>
  <polygon class="pl" points="670.0,211.9 670.0,292.4 687.4,292.4 687.4,211.9 670.0,211.9"/>
  <polygon class="pl" points="691.8,215.5 691.8,291.6 709.2,291.6 709.2,215.5 691.8,215.5"/>
  <polygon class="pl" points="713.5,216.0 713.5,292.6 730.9,292.6 730.9,216.0 713.5,216.0"/>
  <polygon class="pl" points="735.3,219.6 735.3,296.7 752.7,296.7 752.7,219.6 735.3,219.6"/>
  <polygon class="pl" points="757.1,226.0 757.1,302.0 774.5,302.0 774.5,226.0 757.1,226.0"/>
  <polygon class="pl" points="778.8,226.2 778.8,307.1 796.2,307.1 796.2,226.2 778.8,226.2"/>
  <polygon class="pl" points="800.6,233.8 800.6,314.3 818.0,314.3 818.0,233.8 800.6,233.8"/>
  <polygon class="pl" points="822.3,240.9 822.3,318.4 839.7,318.4 839.7,240.9 822.3,240.9"/>
  <polygon class="pl" points="844.1,247.7 844.1,326.3 861.5,326.3 861.5,247.7 844.1,247.7"/>
  <polygon class="pl" points="865.9,251.8 865.9,331.7 883.3,331.7 883.3,251.8 865.9,251.8"/>
  <polygon class="pl" points="887.6,256.2 887.6,334.9 905.0,334.9 905.0,256.2 887.6,256.2"/>
</g>
<g stroke="#000" stroke-width="0.90" fill="#845F48"  clip-path="url(#axis_clip)">
  <polygon class="pl" points="147.8,215.5 147.8,509.5 165.2,509.5 165.2,215.5 147.8,215.5"/>
  <polygon class="pl" points="169.5,217.8 169.5,506.5 186.9,506.5 186.9,217.8 169.5,217.8"/>
  <polygon class="pl" points="191.3,223.0 191.3,507.3 208.7,507.3 208.7,223.0 191.3,223.0"/>
  <polygon class="pl" points="213.1,225.6 213.1,508.1 230.5,508.1 230.5,225.6 213.1,225.6"/>
  <polygon class="pl" points="234.8,228.2 234.8,512.1 252.2,512.1 252.2,228.2 234.8,228.2"/>
  <polygon class="pl" points="256.6,227.5 256.6,512.9 274.0,512.9 274.0,227.5 256.6,227.5"/>
  <polygon class="pl" points="278.3,232.9 278.3,518.5 295.7,518.5 295.7,232.9 278.3,232.9"/>
  <polygon class="pl" points="300.1,242.7 300.1,525.8 317.5,525.8 317.5,242.7 300.1,242.7"/>
  <polygon class="pl" points="321.9,244.4 321.9,526.4 339.3,526.4 339.3,244.4 321.9,244.4"/>
  <polygon class="pl" points="343.6,246.7 343.6,528.9 361.0,528.9 361.0,246.7 343.6,246.7"/>
  <polygon class="pl" points="365.4,244.1 365.4,536.1 382.8,536.1 382.8,244.1 365.4,244.1"/>
  <polygon class="pl" points="387.1,244.2 387.1,537.2 404.5,537.2 404.5,244.2 387.1,244.2"/>
  <polygon class="pl" points="408.9,255.7 408.9,542.7 426.3,542.7 426.3,255.7 408.9,255.7"/>
  <polygon class="pl" points="430.7,263.3 430.7,541.9 448.1,541.9 448.1,263.3 430.7,263.3"/>
  <polygon class="pl" points="452.4,269.4 452.4,544.8 469.8,544.8 469.8,269.4 452.4,269.4"/>
  <polygon class="pl" points="474.2,273.8 474.2,548.2 491.6,548.2 491.6,273.8 474.2,273.8"/>
  <polygon class="pl" points="495.9,277.2 495.9,551.5 513.3,551.5 513.3,277.2 495.9,277.2"/>
  <polygon class="pl" points="517.7,278.2 517.7,554.4 535.1,554.4 535.1,278.2 517.7,278.2"/>
  <polygon class="pl" points="539.5,274.1 539.5,554.4 556.9,554.4 556.9,274.1 539.5,274.1"/>
  <polygon class="pl" points="561.2,278.1 561.2,555.2 578.6,555.2 578.6,278.1 561.2,278.1"/>
  <polygon class="pl" points="583.0,279.4 583.0,553.1 600.4,553.1 600.4,279.4 583.0,279.4"/>
  <polygon class="pl" points="604.7,289.3 604.7,558.8 622.1,558.8 622.1,289.3 604.7,289.3"/>
  <polygon class="pl" points="626.5,290.5 626.5,556.8 643.9,556.8 643.9,290.5 626.5,290.5"/>
  <polygon class="pl" points="648.3,289.9 648.3,556.1 665.7,556.1 665.7,289.9 648.3,289.9"/>
  <polygon class="pl" points="670.0,292.4 670.0,561.8 687.4,561.8 687.4,292.4 670.0,292.4"/>
  <polygon class="pl" points="691.8,291.6 691.8,561.3 709.2,561.3 709.2,291.6 691.8,291.6"/>
  <polygon class="pl" points="713.5,292.6 713.5,560.2 730.9,560.2 730.9,292.6 713.5,292.6"/>
  <polygon class="pl" points="735.3,296.7 735.3,561.8 752.7,561.8 752.7,296.7 735.3,296.7"/>
  <polygon class="pl" points="757.1,302.0 757.1,563.2 774.5,563.2 774.5,302.0 757.1,302.0"/>
  <polygon class="pl" points="778.8,307.1 778.8,564.1 796.2,564.1 796.2,307.1 778.8,307.1"/>
  <polygon class="pl" points="800.6,314.3 800.6,567.0 818.0,567.0 818.0,314.3 800.6,314.3"/>
  <polygon class="pl" points="822.3,318.4 822.3,565.1 839.7,565.1 839.7,318.4 822.3,318.4"/>
  <polygon class="pl" points="844.1,326.3 844.1,567.8 861.5,567.8 861.5,326.3 844.1,326.3"/>
  <polygon class="pl" points="865.9,331.7 865.9,568.8 883.3,568.8 883.3,331.7 865.9,331.7"/>
  <polygon class="pl" points="887.6,334.9 887.6,569.9 905.0,569.9 905.0,334.9 887.6,334.9"/>
</g>
<g stroke="#000" stroke-width="0.90" fill="#4A89E8"  clip-path="url(#axis_clip)">
  <polygon class="pl" points="147.8,509.5 147.8,511.0 165.2,511.0 165.2,509.5 147.8,509.5"/>
  <polygon class="pl" points="169.5,506.5 169.5,508.1 186.9,508.1 186.9,506.5 169.5,506.5"/>
  <polygon class="pl" points="191.3,507.3 191.3,508.8 208.7,508.8 208.7,507.3 191.3,507.3"/>
  <polygon class="pl" points="213.1,508.1 213.1,509.5 230.5,509.5 230.5,508.1 213.1,508.1"/>
  <polygon class="pl" points="234.8,512.1 234.8,513.6 252.2,513.6 252.2,512.1 234.8,512.1"/>
  <polygon class="pl" points="256.6,512.9 256.6,514.5 274.0,514.5 274.0,512.9 256.6,512.9"/>
  <polygon class="pl" points="278.3,518.5 278.3,520.0 295.7,520.0 295.7,518.5 278.3,518.5"/>
  <polygon class="pl" points="300.1,525.8 300.1,527.5 317.5,527.5 317.5,525.8 300.1,525.8"/>
  <polygon class="pl" points="321.9,526.4 321.9,528.0 339.3,528.0 339.3,526.4 321.9,526.4"/>
  <polygon class="pl" points="343.6,528.9 343.6,530.6 361.0,530.6 361.0,528.9 343.6,528.9"/>
  <polygon class="pl" points="365.4,536.1 365.4,537.8 382.8,537.8 382.8,536.1 365.4,536.1"/>
  <polygon class="pl" points="387.1,537.2 387.1,538.7 404.5,538.7 404.5,537.2 387.1,537.2"/>
  <polygon class="pl" points="408.9,542.7 408.9,544.4 426.3,544.4 426.3,542.7 408.9,542.7"/>
  <polygon class="pl" points="430.7,541.9 430.7,543.5 448.1,543.5 448.1,541.9 430.7,541.9"/>
  <polygon class="pl" points="452.4,544.8 452.4,546.5 469.8,546.5 469.8,544.8 452.4,544.8"/>
  <polygon class="pl" points="474.2,548.2 474.2,549.5 491.6,549.5 491.6,548.2 474.2,548.2"/>
  <polygon class="pl" points="495.9,551.5 495.9,552.5 513.3,552.5 513.3,551.5 495.9,551.5"/>
  <polygon class="pl" points="517.7,554.4 517.7,555.7 535.1,555.7 535.1,554.4 517.7,554.4"/>
  <polygon class="pl" points="539.5,554.4 539.5,555.3 556.9,555.3 556.9,554.4 539.5,554.4"/>
  <polygon class="pl" points="561.2,555.2 561.2,555.8 578.6,555.8 578.6,555.2 561.2,555.2"/>
  <polygon class="pl" points="583.0,553.1 583.0,554.0 600.4,554.0 600.4,553.1 583.0,553.1"/>
  <polygon class="pl" points="604.7,558.8 604.7,559.5 622.1,559.5 622.1,558.8 604.7,558.8"/>
  <polygon class="pl" points="626.5,556.8 626.5,557.4 643.9,557.4 643.9,556.8 626.5,556.8"/>
  <polygon class="pl" points="648.3,556.1 648.3,556.6 665.7,556.6 665.7,556.1 648.3,556.1"/>
  <polygon class="pl" points="670.0,561.8 670.0,562.3 687.4,562.3 687.4,561.8 670.0,561.8"/>
  <polygon class="pl" points="691.8,561.3 691.8,561.8 709.2,561.8 709.2,561.3 691.8,561.3"/>
  <polygon class="pl" points="713.5,560.2 713.5,560.7 730.9,560.7 730.9,560.2 713.5,560.2"/>
  <polygon class="pl" points="735.3,561.8 735.3,562.3 752.7,562.3 752.7,561.8 735.3,561.8"/>
  <polygon class="pl" points="757.1,563.2 757.1,563.6 774.5,563.6 774.5,563.2 757.1,563.2"/>
  <polygon class="pl" points="778.8,564.1 778.8,564.5 796.2,564.5 796.2,564.1 778.8,564.1"/>
  <polygon class="pl" points="800.6,567.0 800.6,567.4 818.0,567.4 818.0,567.0 800.6,567.0"/>
  <polygon class="pl" points="822.3,565.1 822.3,565.5 839.7,565.5 839.7,565.1 822.3,565.1"/>
  <polygon class="pl" points="844.1,567.8 844.1,568.1 861.5,568.1 861.5,567.8 844.1,567.8"/>
  <polygon class="pl" points="865.9,568.8 865.9,569.1 883.3,569.1 883.3,568.8 865.9,568.8"/>
  <polygon class="pl" points="887.6,569.9 887.6,570.2 905.0,570.2 905.0,569.9 887.6,569.9"/>
</g>
<g stroke="#000" stroke-width="0.90" fill="#FF7F61"  clip-path="url(#axis_clip)">
  <polygon class="pl" points="147.8,511.0 147.8,587.2 165.2,587.2 165.2,511.0 147.8,511.0"/>
  <polygon class="pl" points="169.5,508.1 169.5,587.2 186.9,587.2 186.9,508.1 169.5,508.1"/>
  <polygon class="pl" points="191.3,508.8 191.3,587.2 208.7,587.2 208.7,508.8 191.3,508.8"/>
  <polygon class="pl" points="213.1,509.5 213.1,587.2 230.5,587.2 230.5,509.5 213.1,509.5"/>
  <polygon class="pl" points="234.8,513.6 234.8,587.2 252.2,587.2 252.2,513.6 234.8,513.6"/>
  <polygon class="pl" points="256.6,514.5 256.6,587.2 274.0,587.2 274.0,514.5 256.6,514.5"/>
  <polygon class="pl" points="278.3,520.0 278.3,587.2 295.7,587.2 295.7,520.0 278.3,520.0"/>
  <polygon class="pl" points="300.1,527.5 300.1,587.2 317.5,587.2 317.5,527.5 300.1,527.5"/>
  <polygon class="pl" points="321.9,528.0 321.9,587.2 339.3,587.2 339.3,528.0 321.9,528.0"/>
  <polygon class="pl" points="343.6,530.6 343.6,587.2 361.0,587.2 361.0,530.6 343.6,530.6"/>
  <polygon class="pl" points="365.4,537.8 365.4,587.2 382.8,587.2 382.8,537.8 365.4,537.8"/>
  <polygon class="pl" points="387.1,538.7 387.1,587.2 404.5,587.2 404.5,538.7 387.1,538.7"/>
  <polygon class="pl" points="408.9,544.4 408.9,587.2 426.3,587.2 426.3,544.4 408.9,544.4"/>
  <polygon class="pl" points="430.7,543.5 430.7,587.2 448.1,587.2 448.1,543.5 430.7,543.5"/>
  <polygon class="pl" points="452.4,546.5 452.4,587.2 469.8,587.2 469.8,546.5 452.4,546.5"/>
  <polygon class="pl" points="474.2,549.5 474.2,587.2 491.6,587.2 491.6,549.5 474.2,549.5"/>
  <polygon class="pl" points="495.9,552.5 495.9,587.2 513.3,587.2 513.3,552.5 495.9,552.5"/>
  <polygon class="pl" points="517.7,555.7 517.7,587.2 535.1,587.2 535.1,555.7 517.7,555.7"/>
  <polygon class="pl" points="539.5,555.3 539.5,587.2 556.9,587.2 556.9,555.3 539.5,555.3"/>
  <polygon class="pl" points="561.2,555.8 561.2,587.2 578.6,587.2 578.6,555.8 561.2,555.8"/>
  <polygon class="pl" points="583.0,554.0 583.0,587.2 600.4,587.2 600.4,554.0 583.0,554.0"/>
  <polygon class="pl" points="604.7,559.5 604.7,587.2 622.1,587.2 622.1,559.5 604.7,559.5"/>
  <polygon class="pl" points="626.5,557.4 626.5,587.2 643.9,587.2 643.9,557.4 626.5,557.4"/>
  <polygon class="pl" points="648.3,556.6 648.3,587.2 665.7,587.2 665.7,556.6 648.3,556.6"/>
  <polygon class="pl" points="670.0,562.3 670.0,587.2 687.4,587.2 687.4,562.3 670.0,562.3"/>
  <polygon class="pl" points="691.8,561.8 691.8,587.2 709.2,587.2 709.2,561.8 691.8,561.8"/>
  <polygon class="pl" points="713.5,560.7 713.5,587.2 730.9,587.2 730.9,560.7 713.5,560.7"/>
  <polygon class="pl" points="735.3,562.3 735.3,587.2 752.7,587.2 752.7,562.3 735.3,562.3"/>
  <polygon class="pl" points="757.1,563.6 757.1,587.2 774.5,587.2 774.5,563.6 757.1,563.6"/>
  <polygon class="pl" points="778.8,564.5 778.8,587.2 796.2,587.2 796.2,564.5 778.8,564.5"/>
  <polygon class="pl" points="800.6,567.4 800.6,587.2 818.0,587.2 818.0,567.4 800.6,567.4"/>
  <polygon class="pl" points="822.3,565.5 822.3,587.2 839.7,587.2 839.7,565.5 822.3,565.5"/>
  <polygon class="pl" points="844.1,568.1 844.1,587.2 861.5,587.2 861.5,568.1 844.1,568.1"/>
  <polygon class="pl" points="865.9,569.1 865.9,587.2 883.3,587.2 883.3,569.1 865.9,569.1"/>
  <polygon class="pl" points="887.6,570.2 887.6,587.2 905.0,587.2 905.0,570.2 887.6,570.2"/>
</g>
<polyline class="pl" points="156.5,134.9 178.2,133.7 200.0,134.5 221.8,132.5 243.5,118.2 265.3,114.5 287.0,123.0 308.8,134.6 330.6,135.2 352.3,137.2 374.1,134.3 395.8,133.5 417.6,143.1 439.4,150.6 461.1,157.2 482.9,163.2 504.6,167.3 526.4,168.2 548.2,164.2 569.9,171.0 591.7,172.5 613.4,187.8 635.2,190.5 657.0,199.3 678.7,207.2 700.5,210.8 722.2,211.2 744.0,214.1 765.8,221.4 787.5,220.9 809.3,229.4 831.0,236.2 852.8,242.7 874.6,247.1 896.3,251.4" stroke="#000" stroke-width="5.40" stroke-opacity="1.00" fill="none" clip-path="url(#axis_clip)"/>
<g class="pl" fill="#FFF" stroke="#000" stroke-width="0.900">
  <circle cx="178.2" cy="133.7" r="2.2" />
  <circle cx="200.0" cy="134.5" r="2.2" />
  <circle cx="221.8" cy="132.5" r="2.2" />
  <circle cx="243.5" cy="118.2" r="2.2" />
  <circle cx="265.3" cy="114.5" r="2.2" />
  <circle cx="287.0" cy="123.0" r="2.2" />
  <circle cx="308.8" cy="134.6" r="2.2" />
  <circle cx="330.6" cy="135.2" r="2.2" />
  <circle cx="352.3" cy="137.2" r="2.2" />
  <circle cx="395.8" cy="133.5" r="2.2" />
  <circle cx="417.6" cy="143.1" r="2.2" />
  <circle cx="439.4" cy="150.6" r="2.2" />
  <circle cx="461.1" cy="157.2" r="2.2" />
  <circle cx="482.9" cy="163.2" r="2.2" />
  <circle cx="504.6" cy="167.3" r="2.2" />
  <circle cx="526.4" cy="168.2" r="2.2" />
  <circle cx="548.2" cy="164.2" r="2.2" />
  <circle cx="569.9" cy="171.0" r="2.2" />
  <circle cx="613.4" cy="187.8" r="2.2" />
  <circle cx="635.2" cy="190.5" r="2.2" />
  <circle cx="657.0" cy="199.3" r="2.2" />
  <circle cx="678.7" cy="207.2" r="2.2" />
  <circle cx="700.5" cy="210.8" r="2.2" />
  <circle cx="722.2" cy="211.2" r="2.2" />
  <circle cx="744.0" cy="214.1" r="2.2" />
  <circle cx="765.8" cy="221.4" r="2.2" />
  <circle cx="787.5" cy="220.9" r="2.2" />
  <circle cx="831.0" cy="236.2" r="2.2" />
  <circle cx="852.8" cy="242.7" r="2.2" />
  <circle cx="874.6" cy="247.1" r="2.2" />
  <circle cx="896.3" cy="251.4" r="2.2" />
</g>
<g class="pl" fill="#FFF" stroke="#000" stroke-width="0.900">
  <circle cx="156.5" cy="134.9" r="5.4" />
  <circle cx="374.1" cy="134.3" r="5.4" />
  <circle cx="591.7" cy="172.5" r="5.4" />
  <circle cx="809.3" cy="229.4" r="5.4" />
</g>
<text transform="translate(145.6,47.2)" dy="0.0" font-size="27.00" fill="#808080" stroke="none">Annual CH<tspan dy="0.2em"><tspan style="font-size:70%">4</tspan></tspan><tspan dy="-0.2em"> </tspan>Emissions: France</text>
<text transform="translate(130.0,157.8)" dy="8.1" font-size="27.00" fill="#808080" stroke="none" text-anchor="end">CH<tspan dy="0.2em"><tspan style="font-size:70%">4</tspan></tspan><tspan dy="-0.2em"></tspan></text>
<text transform="translate(945.6,240.1)" dy="7.6" font-size="25.20" fill="#000" stroke="none">-25.8% since 1990</text>
<text transform="translate(945.6,586.9)" dy="7.6" font-size="25.20" fill="#FF7F61" stroke="none">Energy</text>
<text transform="translate(945.6,561.9)" dy="7.6" font-size="25.20" fill="#4A89E8" stroke="none">Industrial Processes</text>
<text transform="translate(945.6,452.4)" dy="7.6" font-size="25.20" fill="#845F48" stroke="none">Agriculture</text>
<text transform="translate(945.6,295.5)" dy="7.6" font-size="25.20" fill="#DBA746" stroke="none">Waste</text>
<text transform="translate(945.6,265.1)" dy="7.6" font-size="25.20" fill="#7FBF7F" stroke="none">LULUCF</text>
<polyline class="pl" points="910.8,251.4 912.4,251.4 913.8,251.3 915.2,251.1 916.4,250.9 917.6,250.6 918.8,250.2 919.8,249.8 920.8,249.3 921.7,248.8 922.7,248.3 923.5,247.8 924.4,247.2 925.2,246.7 926.0,246.1 926.8,245.5 927.6,244.9 928.4,244.3 929.3,243.8 930.1,243.2 931.1,242.7 932.0,242.2 933.0,241.8 934.0,241.4 935.2,241.0 936.4,240.7 937.6,240.4 939.0,240.3 940.4,240.1 942.0,240.1" stroke="#000" stroke-width="0.90" stroke-opacity="1.00" fill="none" />
<polyline class="pl" points="910.8,578.7 912.4,578.7 913.8,578.8 915.2,578.9 916.4,579.1 917.6,579.3 918.8,579.6 919.8,579.9 920.8,580.2 921.7,580.6 922.7,580.9 923.5,581.3 924.4,581.7 925.2,582.2 926.0,582.6 926.8,583.0 927.6,583.4 928.4,583.8 929.3,584.2 930.1,584.6 931.1,585.0 932.0,585.4 933.0,585.7 934.0,586.0 935.2,586.2 936.4,586.5 937.6,586.7 939.0,586.8 940.4,586.9 942.0,586.9" stroke="#FF7F61" stroke-width="0.90" stroke-opacity="1.00" fill="none" />
<polyline class="pl" points="910.8,570.1 912.4,570.0 913.8,570.0 915.2,569.8 916.4,569.6 917.6,569.4 918.8,569.2 919.8,568.9 920.8,568.5 921.7,568.2 922.7,567.8 923.5,567.4 924.4,567.0 925.2,566.6 926.0,566.2 926.8,565.8 927.6,565.3 928.4,564.9 929.3,564.5 930.1,564.1 931.1,563.7 932.0,563.4 933.0,563.1 934.0,562.8 935.2,562.5 936.4,562.3 937.6,562.1 939.0,562.0 940.4,561.9 942.0,561.9" stroke="#4A89E8" stroke-width="0.90" stroke-opacity="1.00" fill="none" />
<polyline class="pl" points="910.8,253.8 912.4,253.8 913.8,254.0 915.2,254.1 916.4,254.4 917.6,254.7 918.8,255.1 919.8,255.5 920.8,255.9 921.7,256.4 922.7,256.9 923.5,257.5 924.4,258.0 925.2,258.6 926.0,259.2 926.8,259.8 927.6,260.4 928.4,260.9 929.3,261.5 930.1,262.0 931.1,262.5 932.0,263.0 933.0,263.5 934.0,263.9 935.2,264.3 936.4,264.6 937.6,264.8 939.0,265.0 940.4,265.1 942.0,265.1" stroke="#7FBF7F" stroke-width="0.90" stroke-opacity="1.00" fill="none" />
<text transform="translate(160.0,666.1)" font-size="19.80" font-family="Helvetica" fill="#BFBFBF" stroke="none" xml:space="preserve">CICERO   &#9679;   Data: UNFCCC (2026)</text>
<g>
  <rect x="123.0" y="651.4" width="34" height="17" fill="#FFF" stroke="none" opacity="0.01"/>
  <g transform="translate(124.0,652.4) scale(0.24)">
  <g><circle fill="#FFF" cx="37.79" cy="28.5" r="28.84"/>
     <circle fill="none" cx="37.79" cy="28.5" r="28.84" stroke="#BFBFBF" stroke-width="5.5"/>
     <path fill="#BFBFBF" d="M37.16,23.19 l-4.29,2.23c-0.458-0.951-1.02-1.62-1.69-2c-0.667-0.38-1.29-0.571-1.86-0.571c-2.86,0-4.29,1.89-4.29,5.66 c0,1.71,0.36,3.08,1.09,4.11c0.724,1.03,1.79,1.54,3.2,1.54c1.87,0,3.18-0.915,3.94-2.74l3.94,2 c-0.838,1.56-2,2.79-3.49,3.69c-1.48,0.896-3.12,1.34-4.91,1.34c-2.86,0-5.16-0.875-6.92-2.63 c-1.75-1.75-2.63-4.19-2.63-7.31c0-3.05,0.886-5.47,2.66-7.26c1.77-1.79,4.01-2.69,6.72-2.69 C32.6,18.56,35.44,20.1,37.16,23.19z
              M55.61,23.19l-4.23,2.23c-0.457-0.951-1.02-1.62-1.69-2 c-0.668-0.38-1.31-0.571-1.91-0.571c-2.86,0-4.29,1.89-4.29,5.66c0,1.71,0.363,3.08,1.09,4.11 c0.723,1.03,1.79,1.54,3.2,1.54c1.87,0,3.18-0.915,3.94-2.74l4,2c-0.875,1.56-2.06,2.79-3.54,3.69 c-1.49,0.9-3.11,1.34-4.86,1.34c-2.9,0-5.21-0.875-6.94-2.63c-1.74-1.75-2.6-4.19-2.6-7.31 c0-3.05,0.885-5.47,2.66-7.26c1.77-1.79,4.01-2.69,6.71-2.69C51.12,18.56,53.944,20.1,55.61,23.19z"/>
  </g></g>
  <g transform="translate(140.2,652.4) scale(0.24)">
  <g><circle fill="#FFF" cx="37.79" cy="28.5" r="28.84"/>
     <circle fill="none" cx="37.79" cy="28.5" r="28.84" stroke="#BFBFBF" stroke-width="5.5"/>
     <path fill="#BFBFBF" d="M46.129,20.557v13.085h-3.656v15.542h-9.944V33.643h-3.656V20.557 c0-0.572,0.2-1.057,0.599-1.457c0.401-0.399,0.887-0.6,1.457-0.6h13.144c0.533,0,1.01,0.2,1.428,0.6 C45.918,19.5,46.129,19.986,46.129,20.557z
              M33.042,12.329c0-3.008,1.485-4.514,4.458-4.514s4.457,1.504,4.457,4.514 c0,2.971-1.486,4.457-4.457,4.457S33.042,15.3,33.042,12.329z"/>
  </g></g>
</g>
</g>
</svg>
