<svg version="1.1" xmlns="http://www.w3.org/2000/svg" xmlns:xlink="http://www.w3.org/1999/xlink" width="100%" height="100%" viewBox="0 0 1200.000 674.916">
<title>Emissions and removals on forest land: France</title>
<style type="text/css">
  #main {font-family:Helvetica,Arial,sans-serif; font-size:27.00px;
         fill-opacity:1; fill:#000000; stroke:none; stroke-linejoin:round; stroke-linecap:round; stroke-width:1.00;}
  .marker {stroke-opacity:0;fill-opacity:0;}
  .marker:hover {stroke-opacity:0.5; fill-opacity:1;}
  .ticklabel {font-size:27.00px;fill:#808080;stroke:none;font-family:Helvetica}
  .ytl {text-anchor:end;}
  .dp1 {pointer-events:none;font-size:70%;text-anchor:middle;fill:#000000;}
  .dp2 {pointer-events:none;font-size:70%;text-anchor:middle;fill:#FFFFFF;}
  .numtip {pointer-events:none;}
  .cc {opacity:0.25;}
.dl_fe {background-color:#FDFFDF;display:flex;margin:auto;align-items:center}
.dl_fe_p {font-size:20px;text-align:center;margin:3px}
.dl_el {display:none;pointer-events:none;}
.cc:hover + .dl_el {display:block;}
text:hover + .dl_el {display:block;}
</style>
<defs>
  <clipPath id="axis_clip"><rect x="145.8" y="54.2" width="761.2" height="532.8" /></clipPath>
  <path id="line_x" d="M 145.600,0 h 761.600" stroke="#262626" stroke-opacity="0.15" stroke-width="1.00"/>
  <path id="tick_y" d="M 145.600,0 h -6.000" stroke="#808080" stroke-width="0.90"/>
  <path id="tick_x" d="M 0,587.177 v 6.000" stroke="#808080" stroke-width="0.90"/>
</defs>
<g id="main">
<use xlink:href="#line_x" transform="translate(0,527.9)"/>
<use xlink:href="#line_x" transform="translate(0,409.4)"/>
<use xlink:href="#line_x" transform="translate(0,291.0)"/>
<use xlink:href="#line_x" transform="translate(0,172.5)"/>
<use xlink:href="#line_x" transform="translate(0,54.0)"/>
<use xlink:href="#tick_y" transform="translate(0,527.9)"/>
<use xlink:href="#tick_y" transform="translate(0,409.4)"/>
<use xlink:href="#tick_y" transform="translate(0,291.0)"/>
<use xlink:href="#tick_y" transform="translate(0,172.5)"/>
<use xlink:href="#tick_y" transform="translate(0,54.0)"/>
<use xlink:href="#tick_x" transform="translate(156.8,0)"/>
<use xlink:href="#tick_x" transform="translate(268.8,0)"/>
<use xlink:href="#tick_x" transform="translate(380.8,0)"/>
<use xlink:href="#tick_x" transform="translate(492.8,0)"/>
<use xlink:href="#tick_x" transform="translate(604.8,0)"/>
<use xlink:href="#tick_x" transform="translate(716.8,0)"/>
<use xlink:href="#tick_x" transform="translate(828.8,0)"/>
<polyline points="145.6,53.993 145.6,587.177 907.2,587.177" stroke="#808080" stroke-width="0.90" fill="none"/>
<text class="ticklabel xtl" transform="translate(156.8,629.0)" text-anchor="middle">1990</text>
<text class="ticklabel xtl" transform="translate(268.8,629.0)" text-anchor="middle">1995</text>
<text class="ticklabel xtl" transform="translate(380.8,629.0)" text-anchor="middle">2000</text>
<text class="ticklabel xtl" transform="translate(492.8,629.0)" text-anchor="middle">2005</text>
<text class="ticklabel xtl" transform="translate(604.8,629.0)" text-anchor="middle">2010</text>
<text class="ticklabel xtl" transform="translate(716.8,629.0)" text-anchor="middle">2015</text>
<text class="ticklabel xtl" transform="translate(828.8,629.0)" text-anchor="middle">2020</text>
<text class="ticklabel ytl" transform="translate(128.8,536.0)">-200</text>
<text class="ticklabel ytl" transform="translate(128.8,417.5)">-100</text>
<text class="ticklabel ytl" transform="translate(128.8,299.1)">0</text>
<text class="ticklabel ytl" transform="translate(128.8,180.6)">100</text>
<text class="ticklabel ytl" transform="translate(128.8,62.1)">200 Mt</text>
<g stroke="#000" stroke-width="0.90" fill="#A6D854"  clip-path="url(#axis_clip)">
</g>
<g stroke="#000" stroke-width="0.90" fill="#E78AC3"  clip-path="url(#axis_clip)">
</g>
<g stroke="#000" stroke-width="0.90" fill="#8DA0CB"  clip-path="url(#axis_clip)">
  <polygon points="371.8,162.5 371.8,168.0 389.8,168.0 389.8,162.5 371.8,162.5"/>
  <polygon points="394.2,175.2 394.2,179.9 412.2,179.9 412.2,175.2 394.2,175.2"/>
  <polygon points="416.6,186.0 416.6,190.0 434.6,190.0 434.6,186.0 416.6,186.0"/>
  <polygon points="439.0,190.4 439.0,193.7 457.0,193.7 457.0,190.4 439.0,190.4"/>
  <polygon points="461.4,189.6 461.4,192.4 479.4,192.4 479.4,189.6 461.4,189.6"/>
  <polygon points="483.8,189.3 483.8,191.6 501.8,191.6 501.8,189.3 483.8,189.3"/>
  <polygon points="506.2,189.7 506.2,191.4 524.2,191.4 524.2,189.7 506.2,189.7"/>
  <polygon points="528.6,189.3 528.6,190.6 546.6,190.6 546.6,189.3 528.6,189.3"/>
  <polygon points="551.0,192.4 551.0,193.3 569.0,193.3 569.0,192.4 551.0,192.4"/>
  <polygon points="595.8,181.6 595.8,183.8 613.8,183.8 613.8,181.6 595.8,181.6"/>
  <polygon points="618.2,184.5 618.2,186.3 636.2,186.3 636.2,184.5 618.2,184.5"/>
  <polygon points="640.6,187.7 640.6,190.5 658.6,190.5 658.6,187.7 640.6,187.7"/>
  <polygon points="663.0,189.3 663.0,191.3 681.0,191.3 681.0,189.3 663.0,189.3"/>
  <polygon points="685.4,182.4 685.4,185.7 703.4,185.7 703.4,182.4 685.4,182.4"/>
  <polygon points="707.8,180.1 707.8,182.8 725.8,182.8 725.8,180.1 707.8,180.1"/>
</g>
<g stroke="#000" stroke-width="0.90" fill="#FC8D62"  clip-path="url(#axis_clip)">
  <polygon points="147.8,183.6 147.8,291.0 165.8,291.0 165.8,183.6 147.8,183.6"/>
  <polygon points="170.2,176.7 170.2,291.0 188.2,291.0 188.2,176.7 170.2,176.7"/>
  <polygon points="192.6,175.4 192.6,291.0 210.6,291.0 210.6,175.4 192.6,175.4"/>
  <polygon points="215.0,179.2 215.0,291.0 233.0,291.0 233.0,179.2 215.0,179.2"/>
  <polygon points="237.4,177.9 237.4,291.0 255.4,291.0 255.4,177.9 237.4,177.9"/>
  <polygon points="259.8,178.5 259.8,291.0 277.8,291.0 277.8,178.5 259.8,178.5"/>
  <polygon points="282.2,184.9 282.2,291.0 300.2,291.0 300.2,184.9 282.2,184.9"/>
  <polygon points="304.6,182.7 304.6,291.0 322.6,291.0 322.6,182.7 304.6,182.7"/>
  <polygon points="327.0,182.4 327.0,291.0 345.0,291.0 345.0,182.4 327.0,182.4"/>
  <polygon points="349.4,106.1 349.4,291.0 367.4,291.0 367.4,106.1 349.4,106.1"/>
  <polygon points="371.8,168.0 371.8,291.0 389.8,291.0 389.8,168.0 371.8,168.0"/>
  <polygon points="394.2,179.9 394.2,291.0 412.2,291.0 412.2,179.9 394.2,179.9"/>
  <polygon points="416.6,190.0 416.6,291.0 434.6,291.0 434.6,190.0 416.6,190.0"/>
  <polygon points="439.0,193.7 439.0,291.0 457.0,291.0 457.0,193.7 439.0,193.7"/>
  <polygon points="461.4,192.4 461.4,291.0 479.4,291.0 479.4,192.4 461.4,192.4"/>
  <polygon points="483.8,191.6 483.8,291.0 501.8,291.0 501.8,191.6 483.8,191.6"/>
  <polygon points="506.2,191.4 506.2,291.0 524.2,291.0 524.2,191.4 506.2,191.4"/>
  <polygon points="528.6,190.6 528.6,291.0 546.6,291.0 546.6,190.6 528.6,190.6"/>
  <polygon points="551.0,193.3 551.0,291.0 569.0,291.0 569.0,193.3 551.0,193.3"/>
  <polygon points="573.4,163.0 573.4,291.0 591.4,291.0 591.4,163.0 573.4,163.0"/>
  <polygon points="595.8,183.8 595.8,291.0 613.8,291.0 613.8,183.8 595.8,183.8"/>
  <polygon points="618.2,186.3 618.2,291.0 636.2,291.0 636.2,186.3 618.2,186.3"/>
  <polygon points="640.6,190.5 640.6,291.0 658.6,291.0 658.6,190.5 640.6,190.5"/>
  <polygon points="663.0,191.3 663.0,291.0 681.0,291.0 681.0,191.3 663.0,191.3"/>
  <polygon points="685.4,185.7 685.4,291.0 703.4,291.0 703.4,185.7 685.4,185.7"/>
  <polygon points="707.8,182.8 707.8,291.0 725.8,291.0 725.8,182.8 707.8,182.8"/>
  <polygon points="730.2,175.7 730.2,291.0 748.2,291.0 748.2,175.7 730.2,175.7"/>
  <polygon points="752.6,166.3 752.6,291.0 770.6,291.0 770.6,166.3 752.6,166.3"/>
  <polygon points="775.0,158.6 775.0,291.0 793.0,291.0 793.0,158.6 775.0,158.6"/>
  <polygon points="797.4,152.8 797.4,291.0 815.4,291.0 815.4,152.8 797.4,152.8"/>
  <polygon points="819.8,152.1 819.8,291.0 837.8,291.0 837.8,152.1 819.8,152.1"/>
  <polygon points="842.2,146.0 842.2,291.0 860.2,291.0 860.2,146.0 842.2,146.0"/>
  <polygon points="864.6,148.6 864.6,291.0 882.6,291.0 882.6,148.6 864.6,148.6"/>
  <polygon points="887.0,150.8 887.0,291.0 905.0,291.0 905.0,150.8 887.0,150.8"/>
</g>
<g stroke="#000" stroke-width="0.90" fill="#66C2A5"  clip-path="url(#axis_clip)">
</g>
<g stroke="#000" stroke-width="0.90" fill="#A6D854"  clip-path="url(#axis_clip)">
  <polygon points="147.8,455.4 147.8,449.6 165.8,449.6 165.8,455.4 147.8,455.4"/>
  <polygon points="170.2,457.2 170.2,451.5 188.2,451.5 188.2,457.2 170.2,457.2"/>
  <polygon points="192.6,459.0 192.6,453.3 210.6,453.3 210.6,459.0 192.6,459.0"/>
  <polygon points="215.0,460.8 215.0,455.1 233.0,455.1 233.0,460.8 215.0,460.8"/>
  <polygon points="237.4,462.6 237.4,456.9 255.4,456.9 255.4,462.6 237.4,462.6"/>
  <polygon points="259.8,464.4 259.8,458.7 277.8,458.7 277.8,464.4 259.8,464.4"/>
  <polygon points="282.2,466.1 282.2,460.4 300.2,460.4 300.2,466.1 282.2,466.1"/>
  <polygon points="304.6,467.8 304.6,462.1 322.6,462.1 322.6,467.8 304.6,467.8"/>
  <polygon points="327.0,469.5 327.0,463.8 345.0,463.8 345.0,469.5 327.0,469.5"/>
  <polygon points="349.4,549.5 349.4,543.7 367.4,543.7 367.4,549.5 349.4,549.5"/>
  <polygon points="371.8,471.0 371.8,465.2 389.8,465.2 389.8,471.0 371.8,471.0"/>
  <polygon points="394.2,472.2 394.2,466.5 412.2,466.5 412.2,472.2 394.2,472.2"/>
  <polygon points="416.6,473.4 416.6,467.7 434.6,467.7 434.6,473.4 416.6,473.4"/>
  <polygon points="439.0,474.7 439.0,469.0 457.0,469.0 457.0,474.7 439.0,474.7"/>
  <polygon points="461.4,476.0 461.4,470.3 479.4,470.3 479.4,476.0 461.4,476.0"/>
  <polygon points="483.8,477.2 483.8,471.6 501.8,471.6 501.8,477.2 483.8,477.2"/>
  <polygon points="506.2,478.4 506.2,472.9 524.2,472.9 524.2,478.4 506.2,478.4"/>
  <polygon points="528.6,479.7 528.6,474.2 546.6,474.2 546.6,479.7 528.6,479.7"/>
  <polygon points="551.0,479.3 551.0,473.8 569.0,473.8 569.0,479.3 551.0,479.3"/>
  <polygon points="573.4,498.6 573.4,493.3 591.4,493.3 591.4,498.6 573.4,498.6"/>
  <polygon points="595.8,478.6 595.8,473.4 613.8,473.4 613.8,478.6 595.8,478.6"/>
  <polygon points="618.2,475.6 618.2,470.3 636.2,470.3 636.2,475.6 618.2,475.6"/>
  <polygon points="640.6,474.7 640.6,469.3 658.6,469.3 658.6,474.7 640.6,474.7"/>
  <polygon points="663.0,476.6 663.0,471.1 681.0,471.1 681.0,476.6 663.0,476.6"/>
  <polygon points="685.4,473.7 685.4,468.2 703.4,468.2 703.4,473.7 685.4,473.7"/>
  <polygon points="707.8,472.3 707.8,466.7 725.8,466.7 725.8,472.3 707.8,472.3"/>
  <polygon points="730.2,468.9 730.2,463.3 748.2,463.3 748.2,468.9 730.2,468.9"/>
  <polygon points="752.6,469.7 752.6,464.1 770.6,464.1 770.6,469.7 752.6,469.7"/>
  <polygon points="775.0,480.8 775.0,475.2 793.0,475.2 793.0,480.8 775.0,480.8"/>
  <polygon points="797.4,487.9 797.4,482.3 815.4,482.3 815.4,487.9 797.4,487.9"/>
  <polygon points="819.8,491.3 819.8,485.7 837.8,485.7 837.8,491.3 819.8,491.3"/>
  <polygon points="842.2,491.8 842.2,486.2 860.2,486.2 860.2,491.8 842.2,491.8"/>
  <polygon points="864.6,492.2 864.6,486.6 882.6,486.6 882.6,492.2 864.6,492.2"/>
  <polygon points="887.0,491.9 887.0,486.3 905.0,486.3 905.0,491.9 887.0,491.9"/>
</g>
<g stroke="#000" stroke-width="0.90" fill="#E78AC3"  clip-path="url(#axis_clip)">
  <polygon points="147.8,449.6 147.8,445.4 165.8,445.4 165.8,449.6 147.8,449.6"/>
  <polygon points="170.2,451.5 170.2,447.1 188.2,447.1 188.2,451.5 170.2,451.5"/>
  <polygon points="192.6,453.3 192.6,448.8 210.6,448.8 210.6,453.3 192.6,453.3"/>
  <polygon points="215.0,455.1 215.0,450.5 233.0,450.5 233.0,455.1 215.0,455.1"/>
  <polygon points="237.4,456.9 237.4,452.2 255.4,452.2 255.4,456.9 237.4,456.9"/>
  <polygon points="259.8,458.7 259.8,453.9 277.8,453.9 277.8,458.7 259.8,458.7"/>
  <polygon points="282.2,460.4 282.2,455.5 300.2,455.5 300.2,460.4 282.2,460.4"/>
  <polygon points="304.6,462.1 304.6,457.2 322.6,457.2 322.6,462.1 304.6,462.1"/>
  <polygon points="327.0,463.8 327.0,458.9 345.0,458.9 345.0,463.8 327.0,463.8"/>
  <polygon points="349.4,543.7 349.4,538.9 367.4,538.9 367.4,543.7 349.4,543.7"/>
  <polygon points="371.8,465.2 371.8,460.3 389.8,460.3 389.8,465.2 371.8,465.2"/>
  <polygon points="394.2,466.5 394.2,461.7 412.2,461.7 412.2,466.5 394.2,466.5"/>
  <polygon points="416.6,467.7 416.6,463.0 434.6,463.0 434.6,467.7 416.6,467.7"/>
  <polygon points="439.0,469.0 439.0,464.4 457.0,464.4 457.0,469.0 439.0,469.0"/>
  <polygon points="461.4,470.3 461.4,465.8 479.4,465.8 479.4,470.3 461.4,470.3"/>
  <polygon points="483.8,471.6 483.8,467.2 501.8,467.2 501.8,471.6 483.8,471.6"/>
  <polygon points="506.2,472.9 506.2,468.6 524.2,468.6 524.2,472.9 506.2,472.9"/>
  <polygon points="528.6,474.2 528.6,469.9 546.6,469.9 546.6,474.2 528.6,474.2"/>
  <polygon points="551.0,473.8 551.0,469.6 569.0,469.6 569.0,473.8 551.0,473.8"/>
  <polygon points="573.4,493.3 573.4,489.0 591.4,489.0 591.4,493.3 573.4,493.3"/>
  <polygon points="595.8,473.4 595.8,469.1 613.8,469.1 613.8,473.4 595.8,473.4"/>
  <polygon points="618.2,470.3 618.2,466.1 636.2,466.1 636.2,470.3 618.2,470.3"/>
  <polygon points="640.6,469.3 640.6,465.0 658.6,465.0 658.6,469.3 640.6,469.3"/>
  <polygon points="663.0,471.1 663.0,466.8 681.0,466.8 681.0,471.1 663.0,471.1"/>
  <polygon points="685.4,468.2 685.4,463.9 703.4,463.9 703.4,468.2 685.4,468.2"/>
  <polygon points="707.8,466.7 707.8,462.5 725.8,462.5 725.8,466.7 707.8,466.7"/>
  <polygon points="730.2,463.3 730.2,459.1 748.2,459.1 748.2,463.3 730.2,463.3"/>
  <polygon points="752.6,464.1 752.6,459.8 770.6,459.8 770.6,464.1 752.6,464.1"/>
  <polygon points="775.0,475.2 775.0,470.9 793.0,470.9 793.0,475.2 775.0,475.2"/>
  <polygon points="797.4,482.3 797.4,478.1 815.4,478.1 815.4,482.3 797.4,482.3"/>
  <polygon points="819.8,485.7 819.8,481.5 837.8,481.5 837.8,485.7 819.8,485.7"/>
  <polygon points="842.2,486.2 842.2,481.9 860.2,481.9 860.2,486.2 842.2,486.2"/>
  <polygon points="864.6,486.6 864.6,482.3 882.6,482.3 882.6,486.6 864.6,486.6"/>
  <polygon points="887.0,486.3 887.0,482.1 905.0,482.1 905.0,486.3 887.0,486.3"/>
</g>
<g stroke="#000" stroke-width="0.90" fill="#8DA0CB"  clip-path="url(#axis_clip)">
  <polygon points="147.8,445.4 147.8,444.1 165.8,444.1 165.8,445.4 147.8,445.4"/>
  <polygon points="170.2,447.1 170.2,445.7 188.2,445.7 188.2,447.1 170.2,447.1"/>
  <polygon points="192.6,448.8 192.6,447.3 210.6,447.3 210.6,448.8 192.6,448.8"/>
  <polygon points="215.0,450.5 215.0,448.9 233.0,448.9 233.0,450.5 215.0,450.5"/>
  <polygon points="237.4,452.2 237.4,450.6 255.4,450.6 255.4,452.2 237.4,452.2"/>
  <polygon points="259.8,453.9 259.8,452.2 277.8,452.2 277.8,453.9 259.8,453.9"/>
  <polygon points="282.2,455.5 282.2,453.8 300.2,453.8 300.2,455.5 282.2,455.5"/>
  <polygon points="304.6,457.2 304.6,455.4 322.6,455.4 322.6,457.2 304.6,457.2"/>
  <polygon points="327.0,458.9 327.0,457.1 345.0,457.1 345.0,458.9 327.0,458.9"/>
  <polygon points="349.4,538.9 349.4,458.7 367.4,458.7 367.4,538.9 349.4,538.9"/>
  <polygon points="573.4,489.0 573.4,468.3 591.4,468.3 591.4,489.0 573.4,489.0"/>
  <polygon points="730.2,459.1 730.2,458.4 748.2,458.4 748.2,459.1 730.2,459.1"/>
  <polygon points="752.6,459.8 752.6,454.7 770.6,454.7 770.6,459.8 752.6,459.8"/>
  <polygon points="775.0,470.9 775.0,459.4 793.0,459.4 793.0,470.9 775.0,470.9"/>
  <polygon points="797.4,478.1 797.4,463.4 815.4,463.4 815.4,478.1 797.4,478.1"/>
  <polygon points="819.8,481.5 819.8,463.3 837.8,463.3 837.8,481.5 819.8,481.5"/>
  <polygon points="842.2,481.9 842.2,463.3 860.2,463.3 860.2,481.9 842.2,481.9"/>
  <polygon points="864.6,482.3 864.6,463.3 882.6,463.3 882.6,482.3 864.6,482.3"/>
  <polygon points="887.0,482.1 887.0,463.2 905.0,463.2 905.0,482.1 887.0,482.1"/>
</g>
<g stroke="#000" stroke-width="0.90" fill="#FC8D62"  clip-path="url(#axis_clip)">
</g>
<g stroke="#000" stroke-width="0.90" fill="#66C2A5"  clip-path="url(#axis_clip)">
  <polygon points="147.8,444.1 147.8,291.0 165.8,291.0 165.8,444.1 147.8,444.1"/>
  <polygon points="170.2,445.7 170.2,291.0 188.2,291.0 188.2,445.7 170.2,445.7"/>
  <polygon points="192.6,447.3 192.6,291.0 210.6,291.0 210.6,447.3 192.6,447.3"/>
  <polygon points="215.0,448.9 215.0,291.0 233.0,291.0 233.0,448.9 215.0,448.9"/>
  <polygon points="237.4,450.6 237.4,291.0 255.4,291.0 255.4,450.6 237.4,450.6"/>
  <polygon points="259.8,452.2 259.8,291.0 277.8,291.0 277.8,452.2 259.8,452.2"/>
  <polygon points="282.2,453.8 282.2,291.0 300.2,291.0 300.2,453.8 282.2,453.8"/>
  <polygon points="304.6,455.4 304.6,291.0 322.6,291.0 322.6,455.4 304.6,455.4"/>
  <polygon points="327.0,457.1 327.0,291.0 345.0,291.0 345.0,457.1 327.0,457.1"/>
  <polygon points="349.4,458.7 349.4,291.0 367.4,291.0 367.4,458.7 349.4,458.7"/>
  <polygon points="371.8,460.3 371.8,291.0 389.8,291.0 389.8,460.3 371.8,460.3"/>
  <polygon points="394.2,461.7 394.2,291.0 412.2,291.0 412.2,461.7 394.2,461.7"/>
  <polygon points="416.6,463.0 416.6,291.0 434.6,291.0 434.6,463.0 416.6,463.0"/>
  <polygon points="439.0,464.4 439.0,291.0 457.0,291.0 457.0,464.4 439.0,464.4"/>
  <polygon points="461.4,465.8 461.4,291.0 479.4,291.0 479.4,465.8 461.4,465.8"/>
  <polygon points="483.8,467.2 483.8,291.0 501.8,291.0 501.8,467.2 483.8,467.2"/>
  <polygon points="506.2,468.6 506.2,291.0 524.2,291.0 524.2,468.6 506.2,468.6"/>
  <polygon points="528.6,469.9 528.6,291.0 546.6,291.0 546.6,469.9 528.6,469.9"/>
  <polygon points="551.0,469.6 551.0,291.0 569.0,291.0 569.0,469.6 551.0,469.6"/>
  <polygon points="573.4,468.3 573.4,291.0 591.4,291.0 591.4,468.3 573.4,468.3"/>
  <polygon points="595.8,469.1 595.8,291.0 613.8,291.0 613.8,469.1 595.8,469.1"/>
  <polygon points="618.2,466.1 618.2,291.0 636.2,291.0 636.2,466.1 618.2,466.1"/>
  <polygon points="640.6,465.0 640.6,291.0 658.6,291.0 658.6,465.0 640.6,465.0"/>
  <polygon points="663.0,466.8 663.0,291.0 681.0,291.0 681.0,466.8 663.0,466.8"/>
  <polygon points="685.4,463.9 685.4,291.0 703.4,291.0 703.4,463.9 685.4,463.9"/>
  <polygon points="707.8,462.5 707.8,291.0 725.8,291.0 725.8,462.5 707.8,462.5"/>
  <polygon points="730.2,458.4 730.2,291.0 748.2,291.0 748.2,458.4 730.2,458.4"/>
  <polygon points="752.6,454.7 752.6,291.0 770.6,291.0 770.6,454.7 752.6,454.7"/>
  <polygon points="775.0,459.4 775.0,291.0 793.0,291.0 793.0,459.4 775.0,459.4"/>
  <polygon points="797.4,463.4 797.4,291.0 815.4,291.0 815.4,463.4 797.4,463.4"/>
  <polygon points="819.8,463.3 819.8,291.0 837.8,291.0 837.8,463.3 819.8,463.3"/>
  <polygon points="842.2,463.3 842.2,291.0 860.2,291.0 860.2,463.3 842.2,463.3"/>
  <polygon points="864.6,463.3 864.6,291.0 882.6,291.0 882.6,463.3 864.6,463.3"/>
  <polygon points="887.0,463.2 887.0,291.0 905.0,291.0 905.0,463.2 887.0,463.2"/>
</g>
<text transform="translate(145.6,47.2)" dy="0.0" font-size="27.00" fill="#808080" stroke="none">Emissions and removals on forest land: France</text>
<text transform="translate(130.0,81.6)" dy="8.1" font-size="27.00" fill="#808080" stroke="none" text-anchor="end">CO<tspan dy="0.2em"><tspan style="font-size:70%">2</tspan></tspan><tspan dy="-0.2em"></tspan></text>
<polyline class="pl" points="156.8,348.0 179.2,343.0 201.6,343.5 224.0,349.1 246.4,349.6 268.8,352.0 291.2,360.1 313.6,359.6 336.0,361.0 358.4,364.6 380.8,342.6 403.2,356.5 425.6,368.5 448.0,374.1 470.4,374.7 492.8,375.6 515.2,377.3 537.6,378.1 560.0,380.8 582.4,370.7 604.8,369.2 627.2,369.3 649.6,371.5 672.0,375.0 694.4,365.2 716.8,361.5 739.2,353.7 761.6,345.1 784.0,348.5 806.4,349.8 828.8,352.4 851.2,346.9 873.6,349.8 896.0,351.8" stroke="#000" stroke-width="5.40" fill="none" clip-path="url(#axis_clip)"/>
<g class="pl" fill="#FFF" stroke="#000" stroke-width="0.900">
  <circle cx="179.2" cy="343.0" r="2.2" />
  <circle cx="201.6" cy="343.5" r="2.2" />
  <circle cx="224.0" cy="349.1" r="2.2" />
  <circle cx="246.4" cy="349.6" r="2.2" />
  <circle cx="268.8" cy="352.0" r="2.2" />
  <circle cx="291.2" cy="360.1" r="2.2" />
  <circle cx="313.6" cy="359.6" r="2.2" />
  <circle cx="336.0" cy="361.0" r="2.2" />
  <circle cx="358.4" cy="364.6" r="2.2" />
  <circle cx="403.2" cy="356.5" r="2.2" />
  <circle cx="425.6" cy="368.5" r="2.2" />
  <circle cx="448.0" cy="374.1" r="2.2" />
  <circle cx="470.4" cy="374.7" r="2.2" />
  <circle cx="492.8" cy="375.6" r="2.2" />
  <circle cx="515.2" cy="377.3" r="2.2" />
  <circle cx="537.6" cy="378.1" r="2.2" />
  <circle cx="560.0" cy="380.8" r="2.2" />
  <circle cx="582.4" cy="370.7" r="2.2" />
  <circle cx="627.2" cy="369.3" r="2.2" />
  <circle cx="649.6" cy="371.5" r="2.2" />
  <circle cx="672.0" cy="375.0" r="2.2" />
  <circle cx="694.4" cy="365.2" r="2.2" />
  <circle cx="716.8" cy="361.5" r="2.2" />
  <circle cx="739.2" cy="353.7" r="2.2" />
  <circle cx="761.6" cy="345.1" r="2.2" />
  <circle cx="784.0" cy="348.5" r="2.2" />
  <circle cx="806.4" cy="349.8" r="2.2" />
  <circle cx="851.2" cy="346.9" r="2.2" />
  <circle cx="873.6" cy="349.8" r="2.2" />
  <circle cx="896.0" cy="351.8" r="2.2" />
</g>
<g class="pl" fill="#FFF" stroke="#000" stroke-width="0.900">
  <circle cx="156.8" cy="348.0" r="5.4" />
  <circle cx="380.8" cy="342.6" r="5.4" />
  <circle cx="604.8" cy="369.2" r="5.4" />
  <circle cx="828.8" cy="352.4" r="5.4" />
</g>
<text transform="translate(945.6,351.8)" dy="6.5" font-size="21.60" fill="#000" stroke="none">Total (net)</text>
<text transform="translate(945.6,220.9)" dy="6.5" font-size="21.60" fill="#FC8D62" stroke="none">Losses</text>
<text transform="translate(945.6,377.1)" dy="6.5" font-size="21.60" fill="#66C2A5" stroke="none">Gains</text>
<text transform="translate(945.6,461.3)" dy="6.5" font-size="21.60" fill="#8DA0CB" stroke="none">Dead wood (net)</text>
<text transform="translate(945.6,482.0)" dy="6.5" font-size="21.60" fill="#E78AC3" stroke="none">Litter (net)</text>
<text transform="translate(945.6,502.7)" dy="6.5" font-size="21.60" fill="#A6D854" stroke="none">Mineral Soils (net)</text>
<polyline class="pl" points="910.8,351.8 912.4,351.8 913.8,351.8 915.2,351.8 916.4,351.8 917.6,351.8 918.8,351.8 919.8,351.8 920.8,351.8 921.7,351.8 922.7,351.8 923.5,351.8 924.4,351.8 925.2,351.8 926.0,351.8 926.8,351.8 927.6,351.8 928.4,351.8 929.3,351.8 930.1,351.8 931.1,351.8 932.0,351.8 933.0,351.8 934.0,351.8 935.2,351.8 936.4,351.8 937.6,351.8 939.0,351.8 940.4,351.8 942.0,351.8" stroke="#000" stroke-width="0.90" stroke-opacity="1.00" fill="none" />
<polyline class="pl" points="910.8,220.9 912.4,220.9 913.8,220.9 915.2,220.9 916.4,220.9 917.6,220.9 918.8,220.9 919.8,220.9 920.8,220.9 921.7,220.9 922.7,220.9 923.5,220.9 924.4,220.9 925.2,220.9 926.0,220.9 926.8,220.9 927.6,220.9 928.4,220.9 929.3,220.9 930.1,220.9 931.1,220.9 932.0,220.9 933.0,220.9 934.0,220.9 935.2,220.9 936.4,220.9 937.6,220.9 939.0,220.9 940.4,220.9 942.0,220.9" stroke="#FC8D62" stroke-width="0.90" stroke-opacity="1.00" fill="none" />
<polyline class="pl" points="910.8,377.1 912.4,377.1 913.8,377.1 915.2,377.1 916.4,377.1 917.6,377.1 918.8,377.1 919.8,377.1 920.8,377.1 921.7,377.1 922.7,377.1 923.5,377.1 924.4,377.1 925.2,377.1 926.0,377.1 926.8,377.1 927.6,377.1 928.4,377.1 929.3,377.1 930.1,377.1 931.1,377.1 932.0,377.1 933.0,377.1 934.0,377.1 935.2,377.1 936.4,377.1 937.6,377.1 939.0,377.1 940.4,377.1 942.0,377.1" stroke="#66C2A5" stroke-width="0.90" stroke-opacity="1.00" fill="none" />
<polyline class="pl" points="910.8,472.7 912.4,472.6 913.8,472.5 915.2,472.3 916.4,472.1 917.6,471.8 918.8,471.4 919.8,471.0 920.8,470.5 921.7,470.1 922.7,469.5 923.5,469.0 924.4,468.4 925.2,467.9 926.0,467.3 926.8,466.7 927.6,466.1 928.4,465.5 929.3,464.9 930.1,464.4 931.1,463.9 932.0,463.4 933.0,462.9 934.0,462.5 935.2,462.2 936.4,461.9 937.6,461.6 939.0,461.4 940.4,461.3 942.0,461.3" stroke="#8DA0CB" stroke-width="0.90" stroke-opacity="1.00" fill="none" />
<polyline class="pl" points="910.8,484.2 912.4,484.2 913.8,484.2 915.2,484.1 916.4,484.1 917.6,484.0 918.8,484.0 919.8,483.9 920.8,483.8 921.7,483.7 922.7,483.6 923.5,483.5 924.4,483.4 925.2,483.3 926.0,483.2 926.8,483.0 927.6,482.9 928.4,482.8 929.3,482.7 930.1,482.6 931.1,482.5 932.0,482.4 933.0,482.3 934.0,482.2 935.2,482.2 936.4,482.1 937.6,482.1 939.0,482.0 940.4,482.0 942.0,482.0" stroke="#E78AC3" stroke-width="0.90" stroke-opacity="1.00" fill="none" />
<polyline class="pl" points="910.8,489.1 912.4,489.2 913.8,489.3 915.2,489.5 916.4,489.8 917.6,490.2 918.8,490.6 919.8,491.1 920.8,491.6 921.7,492.2 922.7,492.9 923.5,493.5 924.4,494.2 925.2,494.9 926.0,495.6 926.8,496.3 927.6,497.0 928.4,497.7 929.3,498.3 930.1,499.0 931.1,499.6 932.0,500.2 933.0,500.7 934.0,501.2 935.2,501.6 936.4,502.0 937.6,502.3 939.0,502.5 940.4,502.7 942.0,502.7" stroke="#A6D854" stroke-width="0.90" stroke-opacity="1.00" fill="none" />
<text transform="translate(160.0,666.1)" font-size="19.80" font-family="Helvetica" fill="#BFBFBF" stroke="none" xml:space="preserve">CICERO   &#9679;   Data: UNFCCC (2025)</text>
<g>
  <rect x="123.0" y="651.4" width="34" height="17" fill="#FFF" stroke="none"/>
  <g transform="translate(124.0,652.4) scale(0.24)">
  <g><circle fill="#FFF" cx="37.79" cy="28.5" r="28.84"/>
     <circle fill="none" cx="37.79" cy="28.5" r="28.84" stroke="#BFBFBF" stroke-width="5.5"/>
     <path fill="#BFBFBF" d="M37.16,23.19 l-4.29,2.23c-0.458-0.951-1.02-1.62-1.69-2c-0.667-0.38-1.29-0.571-1.86-0.571c-2.86,0-4.29,1.89-4.29,5.66 c0,1.71,0.36,3.08,1.09,4.11c0.724,1.03,1.79,1.54,3.2,1.54c1.87,0,3.18-0.915,3.94-2.74l3.94,2 c-0.838,1.56-2,2.79-3.49,3.69c-1.48,0.896-3.12,1.34-4.91,1.34c-2.86,0-5.16-0.875-6.92-2.63 c-1.75-1.75-2.63-4.19-2.63-7.31c0-3.05,0.886-5.47,2.66-7.26c1.77-1.79,4.01-2.69,6.72-2.69 C32.6,18.56,35.44,20.1,37.16,23.19z
              M55.61,23.19l-4.23,2.23c-0.457-0.951-1.02-1.62-1.69-2 c-0.668-0.38-1.31-0.571-1.91-0.571c-2.86,0-4.29,1.89-4.29,5.66c0,1.71,0.363,3.08,1.09,4.11 c0.723,1.03,1.79,1.54,3.2,1.54c1.87,0,3.18-0.915,3.94-2.74l4,2c-0.875,1.56-2.06,2.79-3.54,3.69 c-1.49,0.9-3.11,1.34-4.86,1.34c-2.9,0-5.21-0.875-6.94-2.63c-1.74-1.75-2.6-4.19-2.6-7.31 c0-3.05,0.885-5.47,2.66-7.26c1.77-1.79,4.01-2.69,6.71-2.69C51.12,18.56,53.944,20.1,55.61,23.19z"/>
  </g></g>
  <g transform="translate(140.2,652.4) scale(0.24)">
  <g><circle fill="#FFF" cx="37.79" cy="28.5" r="28.84"/>
     <circle fill="none" cx="37.79" cy="28.5" r="28.84" stroke="#BFBFBF" stroke-width="5.5"/>
     <path fill="#BFBFBF" d="M46.129,20.557v13.085h-3.656v15.542h-9.944V33.643h-3.656V20.557 c0-0.572,0.2-1.057,0.599-1.457c0.401-0.399,0.887-0.6,1.457-0.6h13.144c0.533,0,1.01,0.2,1.428,0.6 C45.918,19.5,46.129,19.986,46.129,20.557z
              M33.042,12.329c0-3.008,1.485-4.514,4.458-4.514s4.457,1.504,4.457,4.514 c0,2.971-1.486,4.457-4.457,4.457S33.042,15.3,33.042,12.329z"/>
  </g></g>
</g>
</g>
</svg>
