<svg version="1.1" xmlns="http://www.w3.org/2000/svg" xmlns:xlink="http://www.w3.org/1999/xlink" width="100%" height="100%" viewBox="0 0 1200.000 674.916">
<title>Annual LULUCF emissions: Mexico</title>
<style type="text/css">
  #main {font-family:Helvetica,Arial,sans-serif; font-size:27.00px;
         fill-opacity:1; fill:#000000; stroke:none; stroke-linejoin:round; stroke-linecap:round; stroke-width:1.00;}
  .marker {stroke-opacity:0;fill-opacity:0;}
  .marker:hover {stroke-opacity:0.5; fill-opacity:1;}
  .ticklabel {font-size:27.00px;fill:#808080;stroke:none;font-family:Helvetica}
  .ytl {text-anchor:end;}
  .dp1 {pointer-events:none;font-size:70%;text-anchor:middle;fill:#000000;}
  .dp2 {pointer-events:none;font-size:70%;text-anchor:middle;fill:#FFFFFF;}
  .numtip {pointer-events:none;}
  .cc {opacity:0.25;}
.dl_fe {background-color:#FDFFDF;display:flex;margin:auto;align-items:center}
.dl_fe_p {font-size:20px;text-align:center;margin:3px}
.dl_el {display:none;pointer-events:none;}
.cc:hover + .dl_el {display:block;}
text:hover + .dl_el {display:block;}
</style>
<defs>
  <clipPath id="axis_clip"><rect x="145.8" y="54.2" width="761.2" height="532.8" /></clipPath>
  <path id="line_x" d="M 145.600,0 h 761.600" stroke="#262626" stroke-opacity="0.15" stroke-width="1.00"/>
  <path id="tick_y" d="M 145.600,0 h -6.000" stroke="#808080" stroke-width="0.90"/>
  <path id="tick_x" d="M 0,587.177 v 6.000" stroke="#808080" stroke-width="0.90"/>
</defs>
<g id="main">
<use xlink:href="#line_x" transform="translate(0,587.2)"/>
<use xlink:href="#line_x" transform="translate(0,498.3)"/>
<use xlink:href="#line_x" transform="translate(0,409.4)"/>
<use xlink:href="#line_x" transform="translate(0,320.6)"/>
<use xlink:href="#line_x" transform="translate(0,231.7)"/>
<use xlink:href="#line_x" transform="translate(0,142.9)"/>
<use xlink:href="#line_x" transform="translate(0,54.0)"/>
<use xlink:href="#tick_y" transform="translate(0,587.2)"/>
<use xlink:href="#tick_y" transform="translate(0,498.3)"/>
<use xlink:href="#tick_y" transform="translate(0,409.4)"/>
<use xlink:href="#tick_y" transform="translate(0,320.6)"/>
<use xlink:href="#tick_y" transform="translate(0,231.7)"/>
<use xlink:href="#tick_y" transform="translate(0,142.9)"/>
<use xlink:href="#tick_y" transform="translate(0,54.0)"/>
<use xlink:href="#tick_x" transform="translate(157.1,0)"/>
<use xlink:href="#tick_x" transform="translate(272.5,0)"/>
<use xlink:href="#tick_x" transform="translate(387.9,0)"/>
<use xlink:href="#tick_x" transform="translate(503.3,0)"/>
<use xlink:href="#tick_x" transform="translate(618.7,0)"/>
<use xlink:href="#tick_x" transform="translate(734.1,0)"/>
<use xlink:href="#tick_x" transform="translate(895.7,0)"/>
<polyline points="145.6,53.993 145.6,587.177 907.2,587.177" stroke="#808080" stroke-width="0.90" fill="none"/>
<text class="ticklabel xtl" transform="translate(157.1,629.0)" text-anchor="middle">1990</text>
<text class="ticklabel xtl" transform="translate(272.5,629.0)" text-anchor="middle">1995</text>
<text class="ticklabel xtl" transform="translate(387.9,629.0)" text-anchor="middle">2000</text>
<text class="ticklabel xtl" transform="translate(503.3,629.0)" text-anchor="middle">2005</text>
<text class="ticklabel xtl" transform="translate(618.7,629.0)" text-anchor="middle">2010</text>
<text class="ticklabel xtl" transform="translate(734.1,629.0)" text-anchor="middle">2015</text>
<text class="ticklabel xtl" transform="translate(895.7,629.0)" text-anchor="middle">2022</text>
<text class="ticklabel ytl" transform="translate(128.8,595.3)">-250</text>
<text class="ticklabel ytl" transform="translate(128.8,506.4)">-200</text>
<text class="ticklabel ytl" transform="translate(128.8,417.5)">-150</text>
<text class="ticklabel ytl" transform="translate(128.8,328.7)">-100</text>
<text class="ticklabel ytl" transform="translate(128.8,239.8)">-50</text>
<text class="ticklabel ytl" transform="translate(128.8,151.0)">0</text>
<text class="ticklabel ytl" transform="translate(128.8,62.1)">50 Mt</text>
<g stroke="#000" stroke-width="0.90" fill="#1A4D1A"  clip-path="url(#axis_clip)">
</g>
<g stroke="#000" stroke-width="0.90" fill="#7B417F"  clip-path="url(#axis_clip)">
  <polygon class="pl" points="147.9,132.7 147.9,132.8 166.4,132.8 166.4,132.7 147.9,132.7"/>
  <polygon class="pl" points="171.0,131.1 171.0,131.2 189.4,131.2 189.4,131.1 171.0,131.1"/>
  <polygon class="pl" points="194.1,133.1 194.1,133.2 212.5,133.2 212.5,133.1 194.1,133.1"/>
  <polygon class="pl" points="217.1,131.5 217.1,131.6 235.6,131.6 235.6,131.5 217.1,131.5"/>
  <polygon class="pl" points="240.2,132.3 240.2,132.4 258.7,132.4 258.7,132.3 240.2,132.3"/>
  <polygon class="pl" points="263.3,131.3 263.3,131.4 281.8,131.4 281.8,131.3 263.3,131.3"/>
  <polygon class="pl" points="286.4,131.4 286.4,131.5 304.8,131.5 304.8,131.4 286.4,131.4"/>
  <polygon class="pl" points="309.5,132.5 309.5,132.6 327.9,132.6 327.9,132.5 309.5,132.5"/>
  <polygon class="pl" points="332.5,124.6 332.5,124.7 351.0,124.7 351.0,124.6 332.5,124.6"/>
  <polygon class="pl" points="355.6,131.5 355.6,131.6 374.1,131.6 374.1,131.5 355.6,131.5"/>
  <polygon class="pl" points="378.7,131.0 378.7,131.1 397.2,131.1 397.2,131.0 378.7,131.0"/>
  <polygon class="pl" points="401.8,131.9 401.8,132.0 420.2,132.0 420.2,131.9 401.8,131.9"/>
  <polygon class="pl" points="424.9,124.3 424.9,124.3 443.3,124.3 443.3,124.3 424.9,124.3"/>
  <polygon class="pl" points="447.9,122.1 447.9,122.1 466.4,122.1 466.4,122.1 447.9,122.1"/>
  <polygon class="pl" points="471.0,126.1 471.0,127.4 489.5,127.4 489.5,126.1 471.0,126.1"/>
  <polygon class="pl" points="494.1,125.9 494.1,126.0 512.6,126.0 512.6,125.9 494.1,125.9"/>
  <polygon class="pl" points="517.2,126.0 517.2,126.1 535.6,126.1 535.6,126.0 517.2,126.0"/>
  <polygon class="pl" points="540.2,120.3 540.2,120.5 558.7,120.5 558.7,120.3 540.2,120.3"/>
  <polygon class="pl" points="563.3,127.0 563.3,127.2 581.8,127.2 581.8,127.0 563.3,127.0"/>
  <polygon class="pl" points="586.4,104.5 586.4,104.5 604.9,104.5 604.9,104.5 586.4,104.5"/>
  <polygon class="pl" points="609.5,120.0 609.5,120.0 627.9,120.0 627.9,120.0 609.5,120.0"/>
  <polygon class="pl" points="632.6,107.5 632.6,107.8 651.0,107.8 651.0,107.5 632.6,107.5"/>
  <polygon class="pl" points="655.6,116.6 655.6,116.7 674.1,116.7 674.1,116.6 655.6,116.6"/>
  <polygon class="pl" points="678.7,106.7 678.7,107.5 697.2,107.5 697.2,106.7 678.7,106.7"/>
  <polygon class="pl" points="701.8,114.6 701.8,115.8 720.3,115.8 720.3,114.6 701.8,114.6"/>
  <polygon class="pl" points="724.9,118.5 724.9,118.7 743.3,118.7 743.3,118.5 724.9,118.5"/>
  <polygon class="pl" points="748.0,112.4 748.0,113.4 766.4,113.4 766.4,112.4 748.0,112.4"/>
  <polygon class="pl" points="771.0,110.5 771.0,110.8 789.5,110.8 789.5,110.5 771.0,110.5"/>
  <polygon class="pl" points="794.1,108.2 794.1,108.4 812.6,108.4 812.6,108.2 794.1,108.2"/>
  <polygon class="pl" points="817.2,103.4 817.2,105.1 835.7,105.1 835.7,103.4 817.2,103.4"/>
  <polygon class="pl" points="840.3,107.1 840.3,107.8 858.7,107.8 858.7,107.1 840.3,107.1"/>
  <polygon class="pl" points="863.4,106.8 863.4,108.1 881.8,108.1 881.8,106.8 863.4,106.8"/>
  <polygon class="pl" points="886.4,122.7 886.4,127.1 904.9,127.1 904.9,122.7 886.4,122.7"/>
</g>
<g stroke="#000" stroke-width="0.90" fill="#808080"  clip-path="url(#axis_clip)">
  <polygon class="pl" points="147.9,132.8 147.9,133.0 166.4,133.0 166.4,132.8 147.9,132.8"/>
  <polygon class="pl" points="171.0,131.2 171.0,131.3 189.4,131.3 189.4,131.2 171.0,131.2"/>
  <polygon class="pl" points="194.1,133.2 194.1,133.4 212.5,133.4 212.5,133.2 194.1,133.2"/>
  <polygon class="pl" points="217.1,131.6 217.1,131.7 235.6,131.7 235.6,131.6 217.1,131.6"/>
  <polygon class="pl" points="240.2,132.4 240.2,132.6 258.7,132.6 258.7,132.4 240.2,132.4"/>
  <polygon class="pl" points="263.3,131.4 263.3,131.6 281.8,131.6 281.8,131.4 263.3,131.4"/>
  <polygon class="pl" points="286.4,131.5 286.4,131.6 304.8,131.6 304.8,131.5 286.4,131.5"/>
  <polygon class="pl" points="309.5,132.6 309.5,132.7 327.9,132.7 327.9,132.6 309.5,132.6"/>
  <polygon class="pl" points="332.5,124.7 332.5,124.8 351.0,124.8 351.0,124.7 332.5,124.7"/>
  <polygon class="pl" points="355.6,131.6 355.6,131.8 374.1,131.8 374.1,131.6 355.6,131.6"/>
  <polygon class="pl" points="378.7,131.1 378.7,131.2 397.2,131.2 397.2,131.1 378.7,131.1"/>
  <polygon class="pl" points="401.8,132.0 401.8,132.1 420.2,132.1 420.2,132.0 401.8,132.0"/>
  <polygon class="pl" points="424.9,124.3 424.9,124.7 443.3,124.7 443.3,124.3 424.9,124.3"/>
  <polygon class="pl" points="447.9,122.1 447.9,122.4 466.4,122.4 466.4,122.1 447.9,122.1"/>
  <polygon class="pl" points="471.0,127.4 471.0,128.4 489.5,128.4 489.5,127.4 471.0,127.4"/>
  <polygon class="pl" points="494.1,126.0 494.1,127.5 512.6,127.5 512.6,126.0 494.1,126.0"/>
  <polygon class="pl" points="517.2,126.1 517.2,126.9 535.6,126.9 535.6,126.1 517.2,126.1"/>
  <polygon class="pl" points="540.2,120.5 540.2,121.3 558.7,121.3 558.7,120.5 540.2,120.5"/>
  <polygon class="pl" points="563.3,127.2 563.3,127.8 581.8,127.8 581.8,127.2 563.3,127.2"/>
  <polygon class="pl" points="586.4,104.5 586.4,105.7 604.9,105.7 604.9,104.5 586.4,104.5"/>
  <polygon class="pl" points="609.5,120.0 609.5,123.3 627.9,123.3 627.9,120.0 609.5,120.0"/>
  <polygon class="pl" points="632.6,107.8 632.6,112.8 651.0,112.8 651.0,107.8 632.6,107.8"/>
  <polygon class="pl" points="655.6,116.7 655.6,119.5 674.1,119.5 674.1,116.7 655.6,116.7"/>
  <polygon class="pl" points="678.7,107.5 678.7,108.0 697.2,108.0 697.2,107.5 678.7,107.5"/>
  <polygon class="pl" points="701.8,115.8 701.8,116.1 720.3,116.1 720.3,115.8 701.8,115.8"/>
  <polygon class="pl" points="724.9,118.7 724.9,120.7 743.3,120.7 743.3,118.7 724.9,118.7"/>
  <polygon class="pl" points="748.0,113.4 748.0,114.0 766.4,114.0 766.4,113.4 748.0,113.4"/>
  <polygon class="pl" points="771.0,110.8 771.0,112.2 789.5,112.2 789.5,110.8 771.0,110.8"/>
  <polygon class="pl" points="794.1,108.4 794.1,108.9 812.6,108.9 812.6,108.4 794.1,108.4"/>
  <polygon class="pl" points="817.2,105.1 817.2,105.3 835.7,105.3 835.7,105.1 817.2,105.1"/>
  <polygon class="pl" points="840.3,107.8 840.3,109.1 858.7,109.1 858.7,107.8 840.3,107.8"/>
  <polygon class="pl" points="863.4,108.1 863.4,108.6 881.8,108.6 881.8,108.1 863.4,108.1"/>
  <polygon class="pl" points="886.4,127.1 886.4,127.8 904.9,127.8 904.9,127.1 886.4,127.1"/>
</g>
<g stroke="#000" stroke-width="0.90" fill="#EDB120"  clip-path="url(#axis_clip)">
  <polygon class="pl" points="471.0,128.4 471.0,129.8 489.5,129.8 489.5,128.4 471.0,128.4"/>
  <polygon class="pl" points="494.1,127.5 494.1,127.6 512.6,127.6 512.6,127.5 494.1,127.5"/>
  <polygon class="pl" points="517.2,126.9 517.2,127.2 535.6,127.2 535.6,126.9 517.2,126.9"/>
  <polygon class="pl" points="540.2,121.3 540.2,121.4 558.7,121.4 558.7,121.3 540.2,121.3"/>
  <polygon class="pl" points="563.3,127.8 563.3,127.9 581.8,127.9 581.8,127.8 563.3,127.8"/>
  <polygon class="pl" points="586.4,105.7 586.4,105.9 604.9,105.9 604.9,105.7 586.4,105.7"/>
  <polygon class="pl" points="609.5,123.3 609.5,124.1 627.9,124.1 627.9,123.3 609.5,123.3"/>
  <polygon class="pl" points="632.6,112.8 632.6,113.0 651.0,113.0 651.0,112.8 632.6,112.8"/>
  <polygon class="pl" points="655.6,119.5 655.6,120.0 674.1,120.0 674.1,119.5 655.6,119.5"/>
  <polygon class="pl" points="678.7,108.0 678.7,108.5 697.2,108.5 697.2,108.0 678.7,108.0"/>
  <polygon class="pl" points="701.8,116.1 701.8,116.3 720.3,116.3 720.3,116.1 701.8,116.1"/>
  <polygon class="pl" points="724.9,120.7 724.9,120.9 743.3,120.9 743.3,120.7 724.9,120.7"/>
  <polygon class="pl" points="748.0,114.0 748.0,114.2 766.4,114.2 766.4,114.0 748.0,114.0"/>
  <polygon class="pl" points="771.0,112.2 771.0,112.3 789.5,112.3 789.5,112.2 771.0,112.2"/>
  <polygon class="pl" points="794.1,108.9 794.1,109.3 812.6,109.3 812.6,108.9 794.1,108.9"/>
  <polygon class="pl" points="817.2,105.3 817.2,105.6 835.7,105.6 835.7,105.3 817.2,105.3"/>
  <polygon class="pl" points="840.3,109.1 840.3,109.3 858.7,109.3 858.7,109.1 840.3,109.1"/>
  <polygon class="pl" points="863.4,108.6 863.4,108.9 881.8,108.9 881.8,108.6 863.4,108.6"/>
  <polygon class="pl" points="886.4,127.8 886.4,128.0 904.9,128.0 904.9,127.8 886.4,127.8"/>
</g>
<g stroke="#000" stroke-width="0.90" fill="#D95319"  clip-path="url(#axis_clip)">
  <polygon class="pl" points="147.9,133.0 147.9,142.9 166.4,142.9 166.4,133.0 147.9,133.0"/>
  <polygon class="pl" points="171.0,131.3 171.0,142.9 189.4,142.9 189.4,131.3 171.0,131.3"/>
  <polygon class="pl" points="194.1,133.4 194.1,142.9 212.5,142.9 212.5,133.4 194.1,133.4"/>
  <polygon class="pl" points="217.1,131.7 217.1,142.9 235.6,142.9 235.6,131.7 217.1,131.7"/>
  <polygon class="pl" points="240.2,132.6 240.2,142.9 258.7,142.9 258.7,132.6 240.2,132.6"/>
  <polygon class="pl" points="263.3,131.6 263.3,142.9 281.8,142.9 281.8,131.6 263.3,131.6"/>
  <polygon class="pl" points="286.4,131.6 286.4,142.9 304.8,142.9 304.8,131.6 286.4,131.6"/>
  <polygon class="pl" points="309.5,132.7 309.5,142.9 327.9,142.9 327.9,132.7 309.5,132.7"/>
  <polygon class="pl" points="332.5,124.8 332.5,142.9 351.0,142.9 351.0,124.8 332.5,124.8"/>
  <polygon class="pl" points="355.6,131.8 355.6,142.9 374.1,142.9 374.1,131.8 355.6,131.8"/>
  <polygon class="pl" points="378.7,131.2 378.7,142.9 397.2,142.9 397.2,131.2 378.7,131.2"/>
  <polygon class="pl" points="401.8,132.1 401.8,142.9 420.2,142.9 420.2,132.1 401.8,132.1"/>
  <polygon class="pl" points="424.9,124.7 424.9,142.9 443.3,142.9 443.3,124.7 424.9,124.7"/>
  <polygon class="pl" points="447.9,122.4 447.9,142.9 466.4,142.9 466.4,122.4 447.9,122.4"/>
  <polygon class="pl" points="471.0,129.8 471.0,142.9 489.5,142.9 489.5,129.8 471.0,129.8"/>
  <polygon class="pl" points="494.1,127.6 494.1,142.9 512.6,142.9 512.6,127.6 494.1,127.6"/>
  <polygon class="pl" points="517.2,127.2 517.2,142.9 535.6,142.9 535.6,127.2 517.2,127.2"/>
  <polygon class="pl" points="540.2,121.4 540.2,142.9 558.7,142.9 558.7,121.4 540.2,121.4"/>
  <polygon class="pl" points="563.3,127.9 563.3,142.9 581.8,142.9 581.8,127.9 563.3,127.9"/>
  <polygon class="pl" points="586.4,105.9 586.4,142.9 604.9,142.9 604.9,105.9 586.4,105.9"/>
  <polygon class="pl" points="609.5,124.1 609.5,142.9 627.9,142.9 627.9,124.1 609.5,124.1"/>
  <polygon class="pl" points="632.6,113.0 632.6,142.9 651.0,142.9 651.0,113.0 632.6,113.0"/>
  <polygon class="pl" points="655.6,120.0 655.6,142.9 674.1,142.9 674.1,120.0 655.6,120.0"/>
  <polygon class="pl" points="678.7,108.5 678.7,142.9 697.2,142.9 697.2,108.5 678.7,108.5"/>
  <polygon class="pl" points="701.8,116.3 701.8,142.9 720.3,142.9 720.3,116.3 701.8,116.3"/>
  <polygon class="pl" points="724.9,120.9 724.9,142.9 743.3,142.9 743.3,120.9 724.9,120.9"/>
  <polygon class="pl" points="748.0,114.2 748.0,142.9 766.4,142.9 766.4,114.2 748.0,114.2"/>
  <polygon class="pl" points="771.0,112.3 771.0,142.9 789.5,142.9 789.5,112.3 771.0,112.3"/>
  <polygon class="pl" points="794.1,109.3 794.1,142.9 812.6,142.9 812.6,109.3 794.1,109.3"/>
  <polygon class="pl" points="817.2,105.6 817.2,142.9 835.7,142.9 835.7,105.6 817.2,105.6"/>
  <polygon class="pl" points="840.3,109.3 840.3,142.9 858.7,142.9 858.7,109.3 840.3,109.3"/>
  <polygon class="pl" points="863.4,108.9 863.4,142.9 881.8,142.9 881.8,108.9 863.4,108.9"/>
  <polygon class="pl" points="886.4,128.0 886.4,142.9 904.9,142.9 904.9,128.0 886.4,128.0"/>
</g>
<g stroke="#000" stroke-width="0.90" fill="#1A4D1A"  clip-path="url(#axis_clip)">
</g>
<g stroke="#000" stroke-width="0.90" fill="#EDB120"  clip-path="url(#axis_clip)">
</g>
<g stroke="#000" stroke-width="0.90" fill="#5AA3D0"  clip-path="url(#axis_clip)">
  <polygon class="pl" points="147.9,507.6 147.9,482.3 166.4,482.3 166.4,507.6 147.9,507.6"/>
  <polygon class="pl" points="171.0,498.3 171.0,473.1 189.4,473.1 189.4,498.3 171.0,498.3"/>
  <polygon class="pl" points="194.1,506.2 194.1,481.1 212.5,481.1 212.5,506.2 194.1,506.2"/>
  <polygon class="pl" points="217.1,496.8 217.1,471.8 235.6,471.8 235.6,496.8 217.1,496.8"/>
  <polygon class="pl" points="240.2,499.1 240.2,474.3 258.7,474.3 258.7,499.1 240.2,499.1"/>
  <polygon class="pl" points="263.3,490.0 263.3,465.2 281.8,465.2 281.8,490.0 263.3,490.0"/>
  <polygon class="pl" points="286.4,490.5 286.4,465.9 304.8,465.9 304.8,490.5 286.4,490.5"/>
  <polygon class="pl" points="309.5,496.8 309.5,472.3 327.9,472.3 327.9,496.8 309.5,496.8"/>
  <polygon class="pl" points="332.5,467.9 332.5,443.4 351.0,443.4 351.0,467.9 332.5,467.9"/>
  <polygon class="pl" points="355.6,488.5 355.6,464.1 374.1,464.1 374.1,488.5 355.6,488.5"/>
  <polygon class="pl" points="378.7,495.7 378.7,470.9 397.2,470.9 397.2,495.7 378.7,495.7"/>
  <polygon class="pl" points="401.8,500.8 401.8,476.0 420.2,476.0 420.2,500.8 401.8,500.8"/>
  <polygon class="pl" points="424.9,493.1 424.9,471.1 443.3,471.1 443.3,493.1 424.9,493.1"/>
  <polygon class="pl" points="447.9,488.1 447.9,464.5 466.4,464.5 466.4,488.1 447.9,488.1"/>
  <polygon class="pl" points="471.0,493.8 471.0,474.6 489.5,474.6 489.5,493.8 471.0,493.8"/>
  <polygon class="pl" points="494.1,483.9 494.1,466.6 512.6,466.6 512.6,483.9 494.1,483.9"/>
  <polygon class="pl" points="517.2,487.5 517.2,466.2 535.6,466.2 535.6,487.5 517.2,487.5"/>
  <polygon class="pl" points="540.2,489.0 540.2,469.3 558.7,469.3 558.7,489.0 540.2,489.0"/>
  <polygon class="pl" points="563.3,484.3 563.3,466.0 581.8,466.0 581.8,484.3 563.3,484.3"/>
  <polygon class="pl" points="586.4,480.6 586.4,461.5 604.9,461.5 604.9,480.6 586.4,480.6"/>
  <polygon class="pl" points="609.5,487.4 609.5,467.9 627.9,467.9 627.9,487.4 609.5,487.4"/>
  <polygon class="pl" points="632.6,441.9 632.6,426.6 651.0,426.6 651.0,441.9 632.6,441.9"/>
  <polygon class="pl" points="655.6,483.0 655.6,460.5 674.1,460.5 674.1,483.0 655.6,483.0"/>
  <polygon class="pl" points="678.7,478.3 678.7,459.2 697.2,459.2 697.2,478.3 678.7,478.3"/>
  <polygon class="pl" points="701.8,485.9 701.8,465.5 720.3,465.5 720.3,485.9 701.8,485.9"/>
  <polygon class="pl" points="724.9,490.4 724.9,464.8 743.3,464.8 743.3,490.4 724.9,490.4"/>
  <polygon class="pl" points="748.0,480.8 748.0,461.5 766.4,461.5 766.4,480.8 748.0,480.8"/>
  <polygon class="pl" points="771.0,478.0 771.0,453.7 789.5,453.7 789.5,478.0 771.0,478.0"/>
  <polygon class="pl" points="794.1,474.9 794.1,457.4 812.6,457.4 812.6,474.9 794.1,474.9"/>
  <polygon class="pl" points="817.2,477.0 817.2,454.1 835.7,454.1 835.7,477.0 817.2,477.0"/>
  <polygon class="pl" points="840.3,480.1 840.3,454.4 858.7,454.4 858.7,480.1 840.3,480.1"/>
  <polygon class="pl" points="863.4,475.9 863.4,449.9 881.8,449.9 881.8,475.9 863.4,475.9"/>
  <polygon class="pl" points="886.4,448.7 886.4,417.2 904.9,417.2 904.9,448.7 886.4,448.7"/>
</g>
<g stroke="#000" stroke-width="0.90" fill="#6AB561"  clip-path="url(#axis_clip)">
  <polygon class="pl" points="147.9,482.3 147.9,142.9 166.4,142.9 166.4,482.3 147.9,482.3"/>
  <polygon class="pl" points="171.0,473.1 171.0,142.9 189.4,142.9 189.4,473.1 171.0,473.1"/>
  <polygon class="pl" points="194.1,481.1 194.1,142.9 212.5,142.9 212.5,481.1 194.1,481.1"/>
  <polygon class="pl" points="217.1,471.8 217.1,142.9 235.6,142.9 235.6,471.8 217.1,471.8"/>
  <polygon class="pl" points="240.2,474.3 240.2,142.9 258.7,142.9 258.7,474.3 240.2,474.3"/>
  <polygon class="pl" points="263.3,465.2 263.3,142.9 281.8,142.9 281.8,465.2 263.3,465.2"/>
  <polygon class="pl" points="286.4,465.9 286.4,142.9 304.8,142.9 304.8,465.9 286.4,465.9"/>
  <polygon class="pl" points="309.5,472.3 309.5,142.9 327.9,142.9 327.9,472.3 309.5,472.3"/>
  <polygon class="pl" points="332.5,443.4 332.5,142.9 351.0,142.9 351.0,443.4 332.5,443.4"/>
  <polygon class="pl" points="355.6,464.1 355.6,142.9 374.1,142.9 374.1,464.1 355.6,464.1"/>
  <polygon class="pl" points="378.7,470.9 378.7,142.9 397.2,142.9 397.2,470.9 378.7,470.9"/>
  <polygon class="pl" points="401.8,476.0 401.8,142.9 420.2,142.9 420.2,476.0 401.8,476.0"/>
  <polygon class="pl" points="424.9,471.1 424.9,142.9 443.3,142.9 443.3,471.1 424.9,471.1"/>
  <polygon class="pl" points="447.9,464.5 447.9,142.9 466.4,142.9 466.4,464.5 447.9,464.5"/>
  <polygon class="pl" points="471.0,474.6 471.0,142.9 489.5,142.9 489.5,474.6 471.0,474.6"/>
  <polygon class="pl" points="494.1,466.6 494.1,142.9 512.6,142.9 512.6,466.6 494.1,466.6"/>
  <polygon class="pl" points="517.2,466.2 517.2,142.9 535.6,142.9 535.6,466.2 517.2,466.2"/>
  <polygon class="pl" points="540.2,469.3 540.2,142.9 558.7,142.9 558.7,469.3 540.2,469.3"/>
  <polygon class="pl" points="563.3,466.0 563.3,142.9 581.8,142.9 581.8,466.0 563.3,466.0"/>
  <polygon class="pl" points="586.4,461.5 586.4,142.9 604.9,142.9 604.9,461.5 586.4,461.5"/>
  <polygon class="pl" points="609.5,467.9 609.5,142.9 627.9,142.9 627.9,467.9 609.5,467.9"/>
  <polygon class="pl" points="632.6,426.6 632.6,142.9 651.0,142.9 651.0,426.6 632.6,426.6"/>
  <polygon class="pl" points="655.6,460.5 655.6,142.9 674.1,142.9 674.1,460.5 655.6,460.5"/>
  <polygon class="pl" points="678.7,459.2 678.7,142.9 697.2,142.9 697.2,459.2 678.7,459.2"/>
  <polygon class="pl" points="701.8,465.5 701.8,142.9 720.3,142.9 720.3,465.5 701.8,465.5"/>
  <polygon class="pl" points="724.9,464.8 724.9,142.9 743.3,142.9 743.3,464.8 724.9,464.8"/>
  <polygon class="pl" points="748.0,461.5 748.0,142.9 766.4,142.9 766.4,461.5 748.0,461.5"/>
  <polygon class="pl" points="771.0,453.7 771.0,142.9 789.5,142.9 789.5,453.7 771.0,453.7"/>
  <polygon class="pl" points="794.1,457.4 794.1,142.9 812.6,142.9 812.6,457.4 794.1,457.4"/>
  <polygon class="pl" points="817.2,454.1 817.2,142.9 835.7,142.9 835.7,454.1 817.2,454.1"/>
  <polygon class="pl" points="840.3,454.4 840.3,142.9 858.7,142.9 858.7,454.4 840.3,454.4"/>
  <polygon class="pl" points="863.4,449.9 863.4,142.9 881.8,142.9 881.8,449.9 863.4,449.9"/>
  <polygon class="pl" points="886.4,417.2 886.4,142.9 904.9,142.9 904.9,417.2 886.4,417.2"/>
</g>
<g class="pl" fill="#FFF" stroke="#000" stroke-width="0.900">
</g>
<g class="pl" fill="#FFF" stroke="#000" stroke-width="0.900">
</g>
<text transform="translate(145.6,47.2)" dy="0.0" font-size="27.00" fill="#808080" stroke="none">Annual LULUCF emissions: Mexico</text>
<text transform="translate(130.0,81.6)" dy="8.1" font-size="27.00" fill="#808080" stroke="none" text-anchor="end">CO<tspan dy="0.2em"><tspan style="font-size:70%">2</tspan></tspan><tspan dy="-0.2em">e</tspan></text>
<text transform="translate(945.6,169.1)" dy="6.5" font-size="21.60" fill="#D95319" stroke="none">Grassland</text>
<text transform="translate(945.6,148.4)" dy="6.5" font-size="21.60" fill="#EDB120" stroke="none">Wetlands</text>
<text transform="translate(945.6,127.7)" dy="6.5" font-size="21.60" fill="#808080" stroke="none">Settlements</text>
<text transform="translate(945.6,106.9)" dy="6.5" font-size="21.60" fill="#7B417F" stroke="none">Other land</text>
<text transform="translate(945.6,86.2)" dy="6.5" font-size="21.60" fill="#1A4D1A" stroke="none">Other</text>
<text transform="translate(945.6,280.0)" dy="6.5" font-size="21.60" fill="#6AB561" stroke="none">Forest land</text>
<text transform="translate(945.6,433.0)" dy="6.5" font-size="21.60" fill="#5AA3D0" stroke="none">Cropland</text>
<polyline class="pl" points="910.8,135.4 912.4,135.5 913.8,135.9 915.2,136.4 916.4,137.2 917.6,138.1 918.8,139.1 919.8,140.3 920.8,141.7 921.7,143.1 922.7,144.7 923.5,146.3 924.4,147.9 925.2,149.7 926.0,151.4 926.8,153.1 927.6,154.9 928.4,156.6 929.3,158.2 930.1,159.8 931.1,161.4 932.0,162.8 933.0,164.2 934.0,165.4 935.2,166.4 936.4,167.4 937.6,168.1 939.0,168.6 940.4,169.0 942.0,169.1" stroke="#D95319" stroke-width="0.90" stroke-opacity="1.00" fill="none" />
<polyline class="pl" points="910.8,127.9 912.4,127.9 913.8,128.1 915.2,128.5 916.4,128.9 917.6,129.5 918.8,130.1 919.8,130.9 920.8,131.7 921.7,132.6 922.7,133.5 923.5,134.5 924.4,135.5 925.2,136.5 926.0,137.6 926.8,138.7 927.6,139.7 928.4,140.7 929.3,141.8 930.1,142.7 931.1,143.7 932.0,144.6 933.0,145.4 934.0,146.1 935.2,146.8 936.4,147.3 937.6,147.8 939.0,148.1 940.4,148.3 942.0,148.4" stroke="#EDB120" stroke-width="0.90" stroke-opacity="1.00" fill="none" />
<polyline class="pl" points="910.8,127.5 912.4,127.5 913.8,127.5 915.2,127.5 916.4,127.5 917.6,127.5 918.8,127.5 919.8,127.5 920.8,127.5 921.7,127.5 922.7,127.5 923.5,127.5 924.4,127.5 925.2,127.5 926.0,127.6 926.8,127.6 927.6,127.6 928.4,127.6 929.3,127.6 930.1,127.6 931.1,127.6 932.0,127.6 933.0,127.6 934.0,127.6 935.2,127.6 936.4,127.7 937.6,127.7 939.0,127.7 940.4,127.7 942.0,127.7" stroke="#808080" stroke-width="0.90" stroke-opacity="1.00" fill="none" />
<polyline class="pl" points="910.8,124.9 912.4,124.8 913.8,124.7 915.2,124.4 916.4,124.0 917.6,123.5 918.8,122.9 919.8,122.3 920.8,121.6 921.7,120.8 922.7,120.0 923.5,119.1 924.4,118.2 925.2,117.3 926.0,116.4 926.8,115.5 927.6,114.5 928.4,113.6 929.3,112.7 930.1,111.9 931.1,111.1 932.0,110.3 933.0,109.6 934.0,108.9 935.2,108.4 936.4,107.9 937.6,107.5 939.0,107.2 940.4,107.0 942.0,106.9" stroke="#7B417F" stroke-width="0.90" stroke-opacity="1.00" fill="none" />
<polyline class="pl" points="910.8,122.7 912.4,122.6 913.8,122.2 915.2,121.6 916.4,120.8 917.6,119.8 918.8,118.6 919.8,117.3 920.8,115.9 921.7,114.3 922.7,112.7 923.5,110.9 924.4,109.1 925.2,107.3 926.0,105.4 926.8,103.5 927.6,101.6 928.4,99.8 929.3,98.0 930.1,96.2 931.1,94.6 932.0,93.0 933.0,91.6 934.0,90.3 935.2,89.1 936.4,88.1 937.6,87.3 939.0,86.7 940.4,86.3 942.0,86.2" stroke="#1A4D1A" stroke-width="0.90" stroke-opacity="1.00" fill="none" />
<text transform="translate(160.0,666.1)" font-size="19.80" font-family="Helvetica" fill="#BFBFBF" stroke="none" xml:space="preserve">CICERO   &#9679;   Data: UNFCCC (2024)   &#9679;   HWP = Harvested Wood Products</text>
<g>
  <rect x="123.0" y="651.4" width="34" height="17" fill="#FFF" stroke="none" opacity="0.01"/>
  <g transform="translate(124.0,652.4) scale(0.24)">
  <g><circle fill="#FFF" cx="37.79" cy="28.5" r="28.84"/>
     <circle fill="none" cx="37.79" cy="28.5" r="28.84" stroke="#BFBFBF" stroke-width="5.5"/>
     <path fill="#BFBFBF" d="M37.16,23.19 l-4.29,2.23c-0.458-0.951-1.02-1.62-1.69-2c-0.667-0.38-1.29-0.571-1.86-0.571c-2.86,0-4.29,1.89-4.29,5.66 c0,1.71,0.36,3.08,1.09,4.11c0.724,1.03,1.79,1.54,3.2,1.54c1.87,0,3.18-0.915,3.94-2.74l3.94,2 c-0.838,1.56-2,2.79-3.49,3.69c-1.48,0.896-3.12,1.34-4.91,1.34c-2.86,0-5.16-0.875-6.92-2.63 c-1.75-1.75-2.63-4.19-2.63-7.31c0-3.05,0.886-5.47,2.66-7.26c1.77-1.79,4.01-2.69,6.72-2.69 C32.6,18.56,35.44,20.1,37.16,23.19z
              M55.61,23.19l-4.23,2.23c-0.457-0.951-1.02-1.62-1.69-2 c-0.668-0.38-1.31-0.571-1.91-0.571c-2.86,0-4.29,1.89-4.29,5.66c0,1.71,0.363,3.08,1.09,4.11 c0.723,1.03,1.79,1.54,3.2,1.54c1.87,0,3.18-0.915,3.94-2.74l4,2c-0.875,1.56-2.06,2.79-3.54,3.69 c-1.49,0.9-3.11,1.34-4.86,1.34c-2.9,0-5.21-0.875-6.94-2.63c-1.74-1.75-2.6-4.19-2.6-7.31 c0-3.05,0.885-5.47,2.66-7.26c1.77-1.79,4.01-2.69,6.71-2.69C51.12,18.56,53.944,20.1,55.61,23.19z"/>
  </g></g>
  <g transform="translate(140.2,652.4) scale(0.24)">
  <g><circle fill="#FFF" cx="37.79" cy="28.5" r="28.84"/>
     <circle fill="none" cx="37.79" cy="28.5" r="28.84" stroke="#BFBFBF" stroke-width="5.5"/>
     <path fill="#BFBFBF" d="M46.129,20.557v13.085h-3.656v15.542h-9.944V33.643h-3.656V20.557 c0-0.572,0.2-1.057,0.599-1.457c0.401-0.399,0.887-0.6,1.457-0.6h13.144c0.533,0,1.01,0.2,1.428,0.6 C45.918,19.5,46.129,19.986,46.129,20.557z
              M33.042,12.329c0-3.008,1.485-4.514,4.458-4.514s4.457,1.504,4.457,4.514 c0,2.971-1.486,4.457-4.457,4.457S33.042,15.3,33.042,12.329z"/>
  </g></g>
</g>
</g>
</svg>
