<svg version="1.1" xmlns="http://www.w3.org/2000/svg" xmlns:xlink="http://www.w3.org/1999/xlink" width="100%" height="100%" viewBox="0 0 1200.000 674.916">
<title>Emissions and removals on forest land: Hungary</title>
<style type="text/css">
  #main {font-family:Helvetica,Arial,sans-serif; font-size:27.00px;
         fill-opacity:1; fill:#000000; stroke:none; stroke-linejoin:round; stroke-linecap:round; stroke-width:1.00;}
  .marker {stroke-opacity:0;fill-opacity:0;}
  .marker:hover {stroke-opacity:0.5; fill-opacity:1;}
  .ticklabel {font-size:27.00px;fill:#808080;stroke:none;font-family:Helvetica}
  .ytl {text-anchor:end;}
  .dp1 {pointer-events:none;font-size:70%;text-anchor:middle;fill:#000000;}
  .dp2 {pointer-events:none;font-size:70%;text-anchor:middle;fill:#FFFFFF;}
  .numtip {pointer-events:none;}
  .cc {opacity:0.25;}
.dl_fe {background-color:#FDFFDF;display:flex;margin:auto;align-items:center}
.dl_fe_p {font-size:20px;text-align:center;margin:3px}
.dl_el {display:none;pointer-events:none;}
.cc:hover + .dl_el {display:block;}
text:hover + .dl_el {display:block;}
</style>
<defs>
  <clipPath id="axis_clip"><rect x="145.8" y="54.2" width="761.2" height="532.8" /></clipPath>
  <path id="line_y" d="M 0,53.993 v 533.183" stroke="#262626" stroke-opacity="0.15" stroke-width="1.00"/>
  <path id="line_x" d="M 145.600,0 h 761.600" stroke="#262626" stroke-opacity="0.15" stroke-width="1.00"/>
  <path id="tick_y" d="M 145.600,0 h -6.000" stroke="#808080" stroke-width="0.90"/>
  <path id="tick_x" d="M 0,587.177 v 6.000" stroke="#808080" stroke-width="0.90"/>
</defs>
<g id="main">
<use xlink:href="#line_y" transform="translate(157.1,0)"/>
<use xlink:href="#line_y" transform="translate(272.5,0)"/>
<use xlink:href="#line_y" transform="translate(387.9,0)"/>
<use xlink:href="#line_y" transform="translate(503.3,0)"/>
<use xlink:href="#line_y" transform="translate(618.7,0)"/>
<use xlink:href="#line_y" transform="translate(734.1,0)"/>
<use xlink:href="#line_y" transform="translate(895.7,0)"/>
<use xlink:href="#line_x" transform="translate(0,520.5)"/>
<use xlink:href="#line_x" transform="translate(0,387.2)"/>
<use xlink:href="#line_x" transform="translate(0,253.9)"/>
<use xlink:href="#line_x" transform="translate(0,120.6)"/>
<use xlink:href="#tick_y" transform="translate(0,520.5)"/>
<use xlink:href="#tick_y" transform="translate(0,387.2)"/>
<use xlink:href="#tick_y" transform="translate(0,253.9)"/>
<use xlink:href="#tick_y" transform="translate(0,120.6)"/>
<use xlink:href="#tick_x" transform="translate(157.1,0)"/>
<use xlink:href="#tick_x" transform="translate(272.5,0)"/>
<use xlink:href="#tick_x" transform="translate(387.9,0)"/>
<use xlink:href="#tick_x" transform="translate(503.3,0)"/>
<use xlink:href="#tick_x" transform="translate(618.7,0)"/>
<use xlink:href="#tick_x" transform="translate(734.1,0)"/>
<use xlink:href="#tick_x" transform="translate(895.7,0)"/>
<polyline points="145.6,53.993 145.6,587.177 907.2,587.177" stroke="#808080" stroke-width="0.90" fill="none"/>
<text class="ticklabel xtl" transform="translate(157.1,629.0)" text-anchor="middle">1990</text>
<text class="ticklabel xtl" transform="translate(272.5,629.0)" text-anchor="middle">1995</text>
<text class="ticklabel xtl" transform="translate(387.9,629.0)" text-anchor="middle">2000</text>
<text class="ticklabel xtl" transform="translate(503.3,629.0)" text-anchor="middle">2005</text>
<text class="ticklabel xtl" transform="translate(618.7,629.0)" text-anchor="middle">2010</text>
<text class="ticklabel xtl" transform="translate(734.1,629.0)" text-anchor="middle">2015</text>
<text class="ticklabel xtl" transform="translate(895.7,629.0)" text-anchor="middle">2022</text>
<text class="ticklabel ytl" transform="translate(128.8,528.6)">-6</text>
<text class="ticklabel ytl" transform="translate(128.8,395.3)">-4</text>
<text class="ticklabel ytl" transform="translate(128.8,262.0)">-2</text>
<text class="ticklabel ytl" transform="translate(128.8,128.7)">0 Mt</text>
<g stroke="#000" stroke-width="0.90" fill="#87AC55"  clip-path="url(#axis_clip)">
  <polygon points="147.9,116.5 147.9,120.6 166.4,120.6 166.4,116.5 147.9,116.5"/>
  <polygon points="171.0,116.5 171.0,120.6 189.4,120.6 189.4,116.5 171.0,116.5"/>
  <polygon points="194.1,116.5 194.1,120.6 212.5,120.6 212.5,116.5 194.1,116.5"/>
  <polygon points="217.1,116.5 217.1,120.6 235.6,120.6 235.6,116.5 217.1,116.5"/>
  <polygon points="240.2,116.5 240.2,120.6 258.7,120.6 258.7,116.5 240.2,116.5"/>
  <polygon points="263.3,116.5 263.3,120.6 281.8,120.6 281.8,116.5 263.3,116.5"/>
  <polygon points="286.4,116.5 286.4,120.6 304.8,120.6 304.8,116.5 286.4,116.5"/>
  <polygon points="309.5,116.5 309.5,120.6 327.9,120.6 327.9,116.5 309.5,116.5"/>
  <polygon points="332.5,116.5 332.5,120.6 351.0,120.6 351.0,116.5 332.5,116.5"/>
  <polygon points="355.6,116.5 355.6,120.6 374.1,120.6 374.1,116.5 355.6,116.5"/>
  <polygon points="378.7,116.5 378.7,120.6 397.2,120.6 397.2,116.5 378.7,116.5"/>
  <polygon points="401.8,116.5 401.8,120.6 420.2,120.6 420.2,116.5 401.8,116.5"/>
  <polygon points="424.9,116.5 424.9,120.6 443.3,120.6 443.3,116.5 424.9,116.5"/>
  <polygon points="447.9,116.5 447.9,120.6 466.4,120.6 466.4,116.5 447.9,116.5"/>
  <polygon points="471.0,116.5 471.0,120.6 489.5,120.6 489.5,116.5 471.0,116.5"/>
  <polygon points="494.1,116.5 494.1,120.6 512.6,120.6 512.6,116.5 494.1,116.5"/>
  <polygon points="517.2,116.5 517.2,120.6 535.6,120.6 535.6,116.5 517.2,116.5"/>
  <polygon points="540.2,116.5 540.2,120.6 558.7,120.6 558.7,116.5 540.2,116.5"/>
  <polygon points="563.3,116.5 563.3,120.6 581.8,120.6 581.8,116.5 563.3,116.5"/>
  <polygon points="586.4,116.5 586.4,120.6 604.9,120.6 604.9,116.5 586.4,116.5"/>
  <polygon points="609.5,116.5 609.5,120.6 627.9,120.6 627.9,116.5 609.5,116.5"/>
  <polygon points="632.6,116.5 632.6,120.6 651.0,120.6 651.0,116.5 632.6,116.5"/>
  <polygon points="655.6,116.5 655.6,120.6 674.1,120.6 674.1,116.5 655.6,116.5"/>
  <polygon points="678.7,116.5 678.7,120.6 697.2,120.6 697.2,116.5 678.7,116.5"/>
  <polygon points="701.8,116.5 701.8,120.6 720.3,120.6 720.3,116.5 701.8,116.5"/>
  <polygon points="724.9,116.5 724.9,120.6 743.3,120.6 743.3,116.5 724.9,116.5"/>
  <polygon points="748.0,116.5 748.0,120.6 766.4,120.6 766.4,116.5 748.0,116.5"/>
  <polygon points="771.0,116.5 771.0,120.6 789.5,120.6 789.5,116.5 771.0,116.5"/>
  <polygon points="794.1,116.5 794.1,120.6 812.6,120.6 812.6,116.5 794.1,116.5"/>
  <polygon points="817.2,116.5 817.2,120.6 835.7,120.6 835.7,116.5 817.2,116.5"/>
  <polygon points="840.3,116.5 840.3,120.6 858.7,120.6 858.7,116.5 840.3,116.5"/>
  <polygon points="863.4,116.5 863.4,120.6 881.8,120.6 881.8,116.5 863.4,116.5"/>
  <polygon points="886.4,116.5 886.4,120.6 904.9,120.6 904.9,116.5 886.4,116.5"/>
</g>
<g stroke="#000" stroke-width="0.90" fill="#834B8E"  clip-path="url(#axis_clip)">
</g>
<g stroke="#000" stroke-width="0.90" fill="#D5AF54"  clip-path="url(#axis_clip)">
</g>
<g stroke="#000" stroke-width="0.90" fill="#D97B53"  clip-path="url(#axis_clip)">
</g>
<g stroke="#000" stroke-width="0.90" fill="#3988BD"  clip-path="url(#axis_clip)">
</g>
<g stroke="#000" stroke-width="0.90" fill="#87AC55"  clip-path="url(#axis_clip)">
</g>
<g stroke="#000" stroke-width="0.90" fill="#834B8E"  clip-path="url(#axis_clip)">
  <polygon points="147.9,352.2 147.9,347.1 166.4,347.1 166.4,352.2 147.9,352.2"/>
  <polygon points="171.0,314.4 171.0,308.3 189.4,308.3 189.4,314.4 171.0,314.4"/>
  <polygon points="194.1,356.5 194.1,349.4 212.5,349.4 212.5,356.5 194.1,356.5"/>
  <polygon points="217.1,528.7 217.1,521.0 235.6,521.0 235.6,528.7 217.1,528.7"/>
  <polygon points="240.2,556.7 240.2,548.4 258.7,548.4 258.7,556.7 240.2,556.7"/>
  <polygon points="263.3,546.0 263.3,536.9 281.8,536.9 281.8,546.0 263.3,546.0"/>
  <polygon points="286.4,281.3 286.4,271.4 304.8,271.4 304.8,281.3 286.4,281.3"/>
  <polygon points="309.5,307.5 309.5,296.7 327.9,296.7 327.9,307.5 309.5,307.5"/>
  <polygon points="332.5,374.2 332.5,362.5 351.0,362.5 351.0,374.2 332.5,374.2"/>
  <polygon points="355.6,226.3 355.6,213.6 374.1,213.6 374.1,226.3 355.6,226.3"/>
  <polygon points="378.7,164.1 378.7,150.3 397.2,150.3 397.2,164.1 378.7,164.1"/>
  <polygon points="401.8,276.9 401.8,261.8 420.2,261.8 420.2,276.9 401.8,276.9"/>
  <polygon points="424.9,229.9 424.9,213.4 443.3,213.4 443.3,229.9 424.9,229.9"/>
  <polygon points="447.9,391.0 447.9,373.3 466.4,373.3 466.4,391.0 447.9,391.0"/>
  <polygon points="471.0,327.4 471.0,308.8 489.5,308.8 489.5,327.4 471.0,327.4"/>
  <polygon points="494.1,477.9 494.1,459.5 512.6,459.5 512.6,477.9 494.1,477.9"/>
  <polygon points="517.2,326.9 517.2,307.9 535.6,307.9 535.6,326.9 517.2,326.9"/>
  <polygon points="540.2,338.7 540.2,319.3 558.7,319.3 558.7,338.7 540.2,338.7"/>
  <polygon points="563.3,443.8 563.3,424.4 581.8,424.4 581.8,443.8 563.3,443.8"/>
  <polygon points="586.4,377.8 586.4,358.8 604.9,358.8 604.9,377.8 586.4,377.8"/>
  <polygon points="609.5,373.3 609.5,354.6 627.9,354.6 627.9,373.3 609.5,373.3"/>
  <polygon points="632.6,362.5 632.6,344.4 651.0,344.4 651.0,362.5 632.6,362.5"/>
  <polygon points="655.6,412.2 655.6,394.7 674.1,394.7 674.1,412.2 655.6,412.2"/>
  <polygon points="678.7,370.7 678.7,353.5 697.2,353.5 697.2,370.7 678.7,370.7"/>
  <polygon points="701.8,436.8 701.8,420.0 720.3,420.0 720.3,436.8 701.8,436.8"/>
  <polygon points="724.9,494.1 724.9,478.0 743.3,478.0 743.3,494.1 724.9,494.1"/>
  <polygon points="748.0,430.7 748.0,415.4 766.4,415.4 766.4,430.7 748.0,430.7"/>
  <polygon points="771.0,454.8 771.0,440.3 789.5,440.3 789.5,454.8 771.0,454.8"/>
  <polygon points="794.1,411.1 794.1,397.3 812.6,397.3 812.6,411.1 794.1,411.1"/>
  <polygon points="817.2,454.9 817.2,442.1 835.7,442.1 835.7,454.9 817.2,454.9"/>
  <polygon points="840.3,572.9 840.3,560.9 858.7,560.9 858.7,572.9 840.3,572.9"/>
  <polygon points="863.4,569.2 863.4,558.0 881.8,558.0 881.8,569.2 863.4,569.2"/>
  <polygon points="886.4,544.0 886.4,533.7 904.9,533.7 904.9,544.0 886.4,544.0"/>
</g>
<g stroke="#000" stroke-width="0.90" fill="#D5AF54"  clip-path="url(#axis_clip)">
  <polygon points="147.9,347.1 147.9,342.2 166.4,342.2 166.4,347.1 147.9,347.1"/>
  <polygon points="171.0,308.3 171.0,302.8 189.4,302.8 189.4,308.3 171.0,308.3"/>
  <polygon points="194.1,349.4 194.1,343.2 212.5,343.2 212.5,349.4 194.1,349.4"/>
  <polygon points="217.1,521.0 217.1,514.5 235.6,514.5 235.6,521.0 217.1,521.0"/>
  <polygon points="240.2,548.4 240.2,541.5 258.7,541.5 258.7,548.4 240.2,548.4"/>
  <polygon points="263.3,536.9 263.3,529.6 281.8,529.6 281.8,536.9 263.3,536.9"/>
  <polygon points="286.4,271.4 286.4,263.5 304.8,263.5 304.8,271.4 286.4,271.4"/>
  <polygon points="309.5,296.7 309.5,287.9 327.9,287.9 327.9,296.7 309.5,296.7"/>
  <polygon points="332.5,362.5 332.5,352.9 351.0,352.9 351.0,362.5 332.5,362.5"/>
  <polygon points="355.6,213.6 355.6,203.1 374.1,203.1 374.1,213.6 355.6,213.6"/>
  <polygon points="378.7,150.3 378.7,138.9 397.2,138.9 397.2,150.3 378.7,150.3"/>
  <polygon points="401.8,261.8 401.8,249.0 420.2,249.0 420.2,261.8 401.8,261.8"/>
  <polygon points="424.9,213.4 424.9,199.0 443.3,199.0 443.3,213.4 424.9,213.4"/>
  <polygon points="447.9,373.3 447.9,357.7 466.4,357.7 466.4,373.3 447.9,373.3"/>
  <polygon points="471.0,308.8 471.0,292.5 489.5,292.5 489.5,308.8 471.0,308.8"/>
  <polygon points="494.1,459.5 494.1,443.2 512.6,443.2 512.6,459.5 494.1,459.5"/>
  <polygon points="517.2,307.9 517.2,291.0 535.6,291.0 535.6,307.9 517.2,307.9"/>
  <polygon points="540.2,319.3 540.2,301.3 558.7,301.3 558.7,319.3 540.2,319.3"/>
  <polygon points="563.3,424.4 563.3,406.6 581.8,406.6 581.8,424.4 563.3,424.4"/>
  <polygon points="586.4,358.8 586.4,341.4 604.9,341.4 604.9,358.8 586.4,358.8"/>
  <polygon points="609.5,354.6 609.5,337.2 627.9,337.2 627.9,354.6 609.5,354.6"/>
  <polygon points="632.6,344.4 632.6,327.5 651.0,327.5 651.0,344.4 632.6,344.4"/>
  <polygon points="655.6,394.7 655.6,378.4 674.1,378.4 674.1,394.7 655.6,394.7"/>
  <polygon points="678.7,353.5 678.7,337.5 697.2,337.5 697.2,353.5 678.7,353.5"/>
  <polygon points="701.8,420.0 701.8,404.1 720.3,404.1 720.3,420.0 701.8,420.0"/>
  <polygon points="724.9,478.0 724.9,462.5 743.3,462.5 743.3,478.0 724.9,478.0"/>
  <polygon points="748.0,415.4 748.0,400.6 766.4,400.6 766.4,415.4 748.0,415.4"/>
  <polygon points="771.0,440.3 771.0,426.3 789.5,426.3 789.5,440.3 771.0,440.3"/>
  <polygon points="794.1,397.3 794.1,384.0 812.6,384.0 812.6,397.3 794.1,397.3"/>
  <polygon points="817.2,442.1 817.2,429.5 835.7,429.5 835.7,442.1 817.2,442.1"/>
  <polygon points="840.3,560.9 840.3,549.0 858.7,549.0 858.7,560.9 840.3,560.9"/>
  <polygon points="863.4,558.0 863.4,546.7 881.8,546.7 881.8,558.0 863.4,558.0"/>
  <polygon points="886.4,533.7 886.4,523.0 904.9,523.0 904.9,533.7 886.4,533.7"/>
</g>
<g stroke="#000" stroke-width="0.90" fill="#D97B53"  clip-path="url(#axis_clip)">
  <polygon points="147.9,342.2 147.9,330.6 166.4,330.6 166.4,342.2 147.9,342.2"/>
  <polygon points="171.0,302.8 171.0,287.2 189.4,287.2 189.4,302.8 171.0,302.8"/>
  <polygon points="194.1,343.2 194.1,326.1 212.5,326.1 212.5,343.2 194.1,343.2"/>
  <polygon points="217.1,514.5 217.1,495.5 235.6,495.5 235.6,514.5 217.1,514.5"/>
  <polygon points="240.2,541.5 240.2,522.6 258.7,522.6 258.7,541.5 240.2,541.5"/>
  <polygon points="263.3,529.6 263.3,507.7 281.8,507.7 281.8,529.6 263.3,529.6"/>
  <polygon points="286.4,263.5 286.4,245.6 304.8,245.6 304.8,263.5 286.4,263.5"/>
  <polygon points="309.5,287.9 309.5,269.5 327.9,269.5 327.9,287.9 309.5,287.9"/>
  <polygon points="332.5,352.9 332.5,336.0 351.0,336.0 351.0,352.9 332.5,352.9"/>
  <polygon points="355.6,203.1 355.6,186.8 374.1,186.8 374.1,203.1 355.6,203.1"/>
  <polygon points="378.7,138.9 378.7,126.0 397.2,126.0 397.2,138.9 378.7,138.9"/>
  <polygon points="401.8,249.0 401.8,232.6 420.2,232.6 420.2,249.0 401.8,249.0"/>
  <polygon points="424.9,199.0 424.9,184.1 443.3,184.1 443.3,199.0 424.9,199.0"/>
  <polygon points="447.9,357.7 447.9,343.0 466.4,343.0 466.4,357.7 447.9,357.7"/>
  <polygon points="471.0,292.5 471.0,277.5 489.5,277.5 489.5,292.5 471.0,292.5"/>
  <polygon points="494.1,443.2 494.1,428.4 512.6,428.4 512.6,443.2 494.1,443.2"/>
  <polygon points="517.2,291.0 517.2,274.0 535.6,274.0 535.6,291.0 517.2,291.0"/>
  <polygon points="540.2,301.3 540.2,284.9 558.7,284.9 558.7,301.3 540.2,301.3"/>
  <polygon points="563.3,406.6 563.3,389.4 581.8,389.4 581.8,406.6 563.3,406.6"/>
  <polygon points="586.4,341.4 586.4,324.8 604.9,324.8 604.9,341.4 586.4,341.4"/>
  <polygon points="609.5,337.2 609.5,321.1 627.9,321.1 627.9,337.2 609.5,337.2"/>
  <polygon points="632.6,327.5 632.6,311.5 651.0,311.5 651.0,327.5 632.6,327.5"/>
  <polygon points="655.6,378.4 655.6,360.9 674.1,360.9 674.1,378.4 655.6,378.4"/>
  <polygon points="678.7,337.5 678.7,321.4 697.2,321.4 697.2,337.5 678.7,337.5"/>
  <polygon points="701.8,404.1 701.8,387.5 720.3,387.5 720.3,404.1 701.8,404.1"/>
  <polygon points="724.9,462.5 724.9,442.3 743.3,442.3 743.3,462.5 724.9,462.5"/>
  <polygon points="748.0,400.6 748.0,385.5 766.4,385.5 766.4,400.6 748.0,400.6"/>
  <polygon points="771.0,426.3 771.0,409.3 789.5,409.3 789.5,426.3 771.0,426.3"/>
  <polygon points="794.1,384.0 794.1,371.5 812.6,371.5 812.6,384.0 794.1,384.0"/>
  <polygon points="817.2,429.5 817.2,415.4 835.7,415.4 835.7,429.5 817.2,429.5"/>
  <polygon points="840.3,549.0 840.3,533.8 858.7,533.8 858.7,549.0 840.3,549.0"/>
  <polygon points="863.4,546.7 863.4,531.7 881.8,531.7 881.8,546.7 863.4,546.7"/>
  <polygon points="886.4,523.0 886.4,509.5 904.9,509.5 904.9,523.0 886.4,523.0"/>
</g>
<g stroke="#000" stroke-width="0.90" fill="#3988BD"  clip-path="url(#axis_clip)">
  <polygon points="147.9,330.6 147.9,120.6 166.4,120.6 166.4,330.6 147.9,330.6"/>
  <polygon points="171.0,287.2 171.0,120.6 189.4,120.6 189.4,287.2 171.0,287.2"/>
  <polygon points="194.1,326.1 194.1,120.6 212.5,120.6 212.5,326.1 194.1,326.1"/>
  <polygon points="217.1,495.5 217.1,120.6 235.6,120.6 235.6,495.5 217.1,495.5"/>
  <polygon points="240.2,522.6 240.2,120.6 258.7,120.6 258.7,522.6 240.2,522.6"/>
  <polygon points="263.3,507.7 263.3,120.6 281.8,120.6 281.8,507.7 263.3,507.7"/>
  <polygon points="286.4,245.6 286.4,120.6 304.8,120.6 304.8,245.6 286.4,245.6"/>
  <polygon points="309.5,269.5 309.5,120.6 327.9,120.6 327.9,269.5 309.5,269.5"/>
  <polygon points="332.5,336.0 332.5,120.6 351.0,120.6 351.0,336.0 332.5,336.0"/>
  <polygon points="355.6,186.8 355.6,120.6 374.1,120.6 374.1,186.8 355.6,186.8"/>
  <polygon points="378.7,126.0 378.7,120.6 397.2,120.6 397.2,126.0 378.7,126.0"/>
  <polygon points="401.8,232.6 401.8,120.6 420.2,120.6 420.2,232.6 401.8,232.6"/>
  <polygon points="424.9,184.1 424.9,120.6 443.3,120.6 443.3,184.1 424.9,184.1"/>
  <polygon points="447.9,343.0 447.9,120.6 466.4,120.6 466.4,343.0 447.9,343.0"/>
  <polygon points="471.0,277.5 471.0,120.6 489.5,120.6 489.5,277.5 471.0,277.5"/>
  <polygon points="494.1,428.4 494.1,120.6 512.6,120.6 512.6,428.4 494.1,428.4"/>
  <polygon points="517.2,274.0 517.2,120.6 535.6,120.6 535.6,274.0 517.2,274.0"/>
  <polygon points="540.2,284.9 540.2,120.6 558.7,120.6 558.7,284.9 540.2,284.9"/>
  <polygon points="563.3,389.4 563.3,120.6 581.8,120.6 581.8,389.4 563.3,389.4"/>
  <polygon points="586.4,324.8 586.4,120.6 604.9,120.6 604.9,324.8 586.4,324.8"/>
  <polygon points="609.5,321.1 609.5,120.6 627.9,120.6 627.9,321.1 609.5,321.1"/>
  <polygon points="632.6,311.5 632.6,120.6 651.0,120.6 651.0,311.5 632.6,311.5"/>
  <polygon points="655.6,360.9 655.6,120.6 674.1,120.6 674.1,360.9 655.6,360.9"/>
  <polygon points="678.7,321.4 678.7,120.6 697.2,120.6 697.2,321.4 678.7,321.4"/>
  <polygon points="701.8,387.5 701.8,120.6 720.3,120.6 720.3,387.5 701.8,387.5"/>
  <polygon points="724.9,442.3 724.9,120.6 743.3,120.6 743.3,442.3 724.9,442.3"/>
  <polygon points="748.0,385.5 748.0,120.6 766.4,120.6 766.4,385.5 748.0,385.5"/>
  <polygon points="771.0,409.3 771.0,120.6 789.5,120.6 789.5,409.3 771.0,409.3"/>
  <polygon points="794.1,371.5 794.1,120.6 812.6,120.6 812.6,371.5 794.1,371.5"/>
  <polygon points="817.2,415.4 817.2,120.6 835.7,120.6 835.7,415.4 817.2,415.4"/>
  <polygon points="840.3,533.8 840.3,120.6 858.7,120.6 858.7,533.8 840.3,533.8"/>
  <polygon points="863.4,531.7 863.4,120.6 881.8,120.6 881.8,531.7 863.4,531.7"/>
  <polygon points="886.4,509.5 886.4,120.6 904.9,120.6 904.9,509.5 886.4,509.5"/>
</g>
<text transform="translate(145.6,47.2)" dy="0.0" font-size="27.00" fill="#808080" stroke="none">Emissions and removals on forest land: Hungary</text>
<text transform="translate(130.0,148.3)" dy="8.1" font-size="27.00" fill="#808080" stroke="none" text-anchor="end">CO<tspan dy="0.2em"><tspan style="font-size:70%">2</tspan></tspan><tspan dy="-0.2em"></tspan></text>
<polyline class="pl" points="157.1,348.3 180.2,310.4 203.3,352.5 226.4,524.9 249.5,552.9 272.5,542.2 295.6,277.3 318.7,303.5 341.8,370.2 364.8,222.3 387.9,160.0 411.0,272.9 434.1,225.9 457.2,387.0 480.2,323.4 503.3,474.1 526.4,323.0 549.5,334.8 572.6,439.9 595.6,373.9 618.7,369.3 641.8,358.5 664.9,408.3 688.0,366.7 711.0,432.9 734.1,490.3 757.2,426.8 780.3,450.9 803.3,407.2 826.4,451.0 849.5,569.1 872.6,565.4 895.7,540.2" stroke="#000" stroke-width="5.40" fill="none" clip-path="url(#axis_clip)"/>
<g class="pl" fill="#FFF" stroke="#000" stroke-width="0.900">
  <circle cx="180.2" cy="310.4" r="2.2" />
  <circle cx="203.3" cy="352.5" r="2.2" />
  <circle cx="226.4" cy="524.9" r="2.2" />
  <circle cx="249.5" cy="552.9" r="2.2" />
  <circle cx="272.5" cy="542.2" r="2.2" />
  <circle cx="295.6" cy="277.3" r="2.2" />
  <circle cx="318.7" cy="303.5" r="2.2" />
  <circle cx="341.8" cy="370.2" r="2.2" />
  <circle cx="364.8" cy="222.3" r="2.2" />
  <circle cx="411.0" cy="272.9" r="2.2" />
  <circle cx="434.1" cy="225.9" r="2.2" />
  <circle cx="457.2" cy="387.0" r="2.2" />
  <circle cx="480.2" cy="323.4" r="2.2" />
  <circle cx="503.3" cy="474.1" r="2.2" />
  <circle cx="526.4" cy="323.0" r="2.2" />
  <circle cx="549.5" cy="334.8" r="2.2" />
  <circle cx="572.6" cy="439.9" r="2.2" />
  <circle cx="595.6" cy="373.9" r="2.2" />
  <circle cx="641.8" cy="358.5" r="2.2" />
  <circle cx="664.9" cy="408.3" r="2.2" />
  <circle cx="688.0" cy="366.7" r="2.2" />
  <circle cx="711.0" cy="432.9" r="2.2" />
  <circle cx="734.1" cy="490.3" r="2.2" />
  <circle cx="757.2" cy="426.8" r="2.2" />
  <circle cx="780.3" cy="450.9" r="2.2" />
  <circle cx="803.3" cy="407.2" r="2.2" />
  <circle cx="826.4" cy="451.0" r="2.2" />
  <circle cx="872.6" cy="565.4" r="2.2" />
  <circle cx="895.7" cy="540.2" r="2.2" />
</g>
<g class="pl" fill="#FFF" stroke="#000" stroke-width="0.900">
  <circle cx="157.1" cy="348.3" r="5.4" />
  <circle cx="387.9" cy="160.0" r="5.4" />
  <circle cx="618.7" cy="369.3" r="5.4" />
  <circle cx="849.5" cy="569.1" r="5.4" />
</g>
<text transform="translate(945.6,562.0)" dy="6.5" font-size="21.60" fill="#000" stroke="none">Total (net)</text>
<text transform="translate(945.6,118.6)" dy="6.5" font-size="21.60" fill="#87AC55" stroke="none">Organic Soils (net)</text>
<text transform="translate(945.6,315.1)" dy="6.5" font-size="21.60" fill="#3988BD" stroke="none">Living biomass (net)</text>
<text transform="translate(945.6,499.8)" dy="6.5" font-size="21.60" fill="#D97B53" stroke="none">Dead wood (net)</text>
<text transform="translate(945.6,520.5)" dy="6.5" font-size="21.60" fill="#D5AF54" stroke="none">Litter (net)</text>
<text transform="translate(945.6,541.3)" dy="6.5" font-size="21.60" fill="#834B8E" stroke="none">Mineral Soils (net)</text>
<polyline class="pl" points="910.8,540.2 912.4,540.2 913.8,540.5 915.2,540.8 916.4,541.3 917.6,541.9 918.8,542.6 919.8,543.4 920.8,544.2 921.7,545.2 922.7,546.2 923.5,547.2 924.4,548.3 925.2,549.4 926.0,550.5 926.8,551.6 927.6,552.8 928.4,553.9 929.3,554.9 930.1,556.0 931.1,557.0 932.0,557.9 933.0,558.8 934.0,559.6 935.2,560.3 936.4,560.9 937.6,561.3 939.0,561.7 940.4,561.9 942.0,562.0" stroke="#000" stroke-width="0.90" stroke-opacity="1.00" fill="none" />
<polyline class="pl" points="910.8,516.2 912.4,516.2 913.8,516.0 915.2,515.7 916.4,515.4 917.6,514.9 918.8,514.4 919.8,513.8 920.8,513.2 921.7,512.5 922.7,511.7 923.5,510.9 924.4,510.1 925.2,509.3 926.0,508.4 926.8,507.6 927.6,506.8 928.4,505.9 929.3,505.1 930.1,504.3 931.1,503.6 932.0,502.9 933.0,502.2 934.0,501.6 935.2,501.1 936.4,500.7 937.6,500.3 939.0,500.0 940.4,499.9 942.0,499.8" stroke="#D97B53" stroke-width="0.90" stroke-opacity="1.00" fill="none" />
<polyline class="pl" points="910.8,528.4 912.4,528.3 913.8,528.2 915.2,528.1 916.4,528.0 917.6,527.7 918.8,527.5 919.8,527.2 920.8,526.9 921.7,526.6 922.7,526.2 923.5,525.8 924.4,525.4 925.2,525.1 926.0,524.6 926.8,524.2 927.6,523.8 928.4,523.4 929.3,523.1 930.1,522.7 931.1,522.3 932.0,522.0 933.0,521.7 934.0,521.4 935.2,521.2 936.4,520.9 937.6,520.8 939.0,520.6 940.4,520.6 942.0,520.5" stroke="#D5AF54" stroke-width="0.90" stroke-opacity="1.00" fill="none" />
<polyline class="pl" points="910.8,538.9 912.4,538.9 913.8,538.9 915.2,538.9 916.4,539.0 917.6,539.0 918.8,539.1 919.8,539.2 920.8,539.3 921.7,539.4 922.7,539.5 923.5,539.6 924.4,539.7 925.2,539.9 926.0,540.0 926.8,540.1 927.6,540.2 928.4,540.4 929.3,540.5 930.1,540.6 931.1,540.7 932.0,540.8 933.0,540.9 934.0,541.0 935.2,541.1 936.4,541.1 937.6,541.2 939.0,541.2 940.4,541.3 942.0,541.3" stroke="#834B8E" stroke-width="0.90" stroke-opacity="1.00" fill="none" />
<text transform="translate(160.0,666.1)" font-size="19.80" font-family="Helvetica" fill="#BFBFBF" stroke="none" xml:space="preserve">CICERO   &#9679;   Data: UNFCCC (2024)</text>
<g>
  <rect x="123.0" y="651.4" width="34" height="17" fill="#FFF" stroke="none" opacity="0.01"/>
  <g transform="translate(124.0,652.4) scale(0.24)">
  <g><circle fill="#FFF" cx="37.79" cy="28.5" r="28.84"/>
     <circle fill="none" cx="37.79" cy="28.5" r="28.84" stroke="#BFBFBF" stroke-width="5.5"/>
     <path fill="#BFBFBF" d="M37.16,23.19 l-4.29,2.23c-0.458-0.951-1.02-1.62-1.69-2c-0.667-0.38-1.29-0.571-1.86-0.571c-2.86,0-4.29,1.89-4.29,5.66 c0,1.71,0.36,3.08,1.09,4.11c0.724,1.03,1.79,1.54,3.2,1.54c1.87,0,3.18-0.915,3.94-2.74l3.94,2 c-0.838,1.56-2,2.79-3.49,3.69c-1.48,0.896-3.12,1.34-4.91,1.34c-2.86,0-5.16-0.875-6.92-2.63 c-1.75-1.75-2.63-4.19-2.63-7.31c0-3.05,0.886-5.47,2.66-7.26c1.77-1.79,4.01-2.69,6.72-2.69 C32.6,18.56,35.44,20.1,37.16,23.19z
              M55.61,23.19l-4.23,2.23c-0.457-0.951-1.02-1.62-1.69-2 c-0.668-0.38-1.31-0.571-1.91-0.571c-2.86,0-4.29,1.89-4.29,5.66c0,1.71,0.363,3.08,1.09,4.11 c0.723,1.03,1.79,1.54,3.2,1.54c1.87,0,3.18-0.915,3.94-2.74l4,2c-0.875,1.56-2.06,2.79-3.54,3.69 c-1.49,0.9-3.11,1.34-4.86,1.34c-2.9,0-5.21-0.875-6.94-2.63c-1.74-1.75-2.6-4.19-2.6-7.31 c0-3.05,0.885-5.47,2.66-7.26c1.77-1.79,4.01-2.69,6.71-2.69C51.12,18.56,53.944,20.1,55.61,23.19z"/>
  </g></g>
  <g transform="translate(140.2,652.4) scale(0.24)">
  <g><circle fill="#FFF" cx="37.79" cy="28.5" r="28.84"/>
     <circle fill="none" cx="37.79" cy="28.5" r="28.84" stroke="#BFBFBF" stroke-width="5.5"/>
     <path fill="#BFBFBF" d="M46.129,20.557v13.085h-3.656v15.542h-9.944V33.643h-3.656V20.557 c0-0.572,0.2-1.057,0.599-1.457c0.401-0.399,0.887-0.6,1.457-0.6h13.144c0.533,0,1.01,0.2,1.428,0.6 C45.918,19.5,46.129,19.986,46.129,20.557z
              M33.042,12.329c0-3.008,1.485-4.514,4.458-4.514s4.457,1.504,4.457,4.514 c0,2.971-1.486,4.457-4.457,4.457S33.042,15.3,33.042,12.329z"/>
  </g></g>
</g>
</g>
</svg>
