<svg version="1.1" xmlns="http://www.w3.org/2000/svg" xmlns:xlink="http://www.w3.org/1999/xlink" width="100%" height="100%" viewBox="0 0 1200.000 674.916">
<title>Annual CO2 Emissions: Hungary</title>
<style type="text/css">
  #main {font-family:Helvetica,Arial,sans-serif; font-size:27.00px;
         fill-opacity:1; fill:#000000; stroke:none; stroke-linejoin:round; stroke-linecap:round; stroke-width:1.00;}
  .marker {stroke-opacity:0;fill-opacity:0;}
  .marker:hover {stroke-opacity:0.5; fill-opacity:1;}
  .ticklabel {font-size:27.00px;fill:#808080;stroke:none;font-family:Helvetica}
  .ytl {text-anchor:end;}
  .dp1 {pointer-events:none;font-size:70%;text-anchor:middle;fill:#000000;}
  .dp2 {pointer-events:none;font-size:70%;text-anchor:middle;fill:#FFFFFF;}
  .numtip {pointer-events:none;}
  .cc {opacity:0.25;}
.dl_fe {background-color:#FDFFDF;display:flex;margin:auto;align-items:center}
.dl_fe_p {font-size:20px;text-align:center;margin:3px}
.dl_el {display:none;pointer-events:none;}
.cc:hover + .dl_el {display:block;}
text:hover + .dl_el {display:block;}
</style>
<defs>
  <clipPath id="axis_clip"><rect x="145.8" y="54.2" width="761.2" height="532.8" /></clipPath>
  <path id="line_y" d="M 0,53.993 v 533.183" stroke="#262626" stroke-opacity="0.15" stroke-width="1.00"/>
  <path id="line_x" d="M 145.600,0 h 761.600" stroke="#262626" stroke-opacity="0.15" stroke-width="1.00"/>
  <path id="tick_y" d="M 145.600,0 h -6.000" stroke="#808080" stroke-width="0.90"/>
  <path id="tick_x" d="M 0,587.177 v 6.000" stroke="#808080" stroke-width="0.90"/>
</defs>
<g id="main">
<use xlink:href="#line_y" transform="translate(156.5,0)"/>
<use xlink:href="#line_y" transform="translate(265.3,0)"/>
<use xlink:href="#line_y" transform="translate(374.1,0)"/>
<use xlink:href="#line_y" transform="translate(482.9,0)"/>
<use xlink:href="#line_y" transform="translate(591.7,0)"/>
<use xlink:href="#line_y" transform="translate(700.5,0)"/>
<use xlink:href="#line_y" transform="translate(809.3,0)"/>
<use xlink:href="#line_y" transform="translate(896.3,0)"/>
<use xlink:href="#line_x" transform="translate(0,527.9)"/>
<use xlink:href="#line_x" transform="translate(0,409.4)"/>
<use xlink:href="#line_x" transform="translate(0,291.0)"/>
<use xlink:href="#line_x" transform="translate(0,172.5)"/>
<use xlink:href="#line_x" transform="translate(0,54.0)"/>
<use xlink:href="#tick_y" transform="translate(0,527.9)"/>
<use xlink:href="#tick_y" transform="translate(0,409.4)"/>
<use xlink:href="#tick_y" transform="translate(0,291.0)"/>
<use xlink:href="#tick_y" transform="translate(0,172.5)"/>
<use xlink:href="#tick_y" transform="translate(0,54.0)"/>
<use xlink:href="#tick_x" transform="translate(156.5,0)"/>
<use xlink:href="#tick_x" transform="translate(265.3,0)"/>
<use xlink:href="#tick_x" transform="translate(374.1,0)"/>
<use xlink:href="#tick_x" transform="translate(482.9,0)"/>
<use xlink:href="#tick_x" transform="translate(591.7,0)"/>
<use xlink:href="#tick_x" transform="translate(700.5,0)"/>
<use xlink:href="#tick_x" transform="translate(809.3,0)"/>
<use xlink:href="#tick_x" transform="translate(896.3,0)"/>
<polyline points="145.6,53.993 145.6,587.177 907.2,587.177" stroke="#808080" stroke-width="0.90" fill="none"/>
<text class="ticklabel xtl" transform="translate(156.5,629.0)" text-anchor="middle">1990</text>
<text class="ticklabel xtl" transform="translate(265.3,629.0)" text-anchor="middle">1995</text>
<text class="ticklabel xtl" transform="translate(374.1,629.0)" text-anchor="middle">2000</text>
<text class="ticklabel xtl" transform="translate(482.9,629.0)" text-anchor="middle">2005</text>
<text class="ticklabel xtl" transform="translate(591.7,629.0)" text-anchor="middle">2010</text>
<text class="ticklabel xtl" transform="translate(700.5,629.0)" text-anchor="middle">2015</text>
<text class="ticklabel xtl" transform="translate(809.3,629.0)" text-anchor="middle">2020</text>
<text class="ticklabel xtl" transform="translate(896.3,629.0)" text-anchor="middle">2024</text>
<text class="ticklabel ytl" transform="translate(128.8,536.0)">0</text>
<text class="ticklabel ytl" transform="translate(128.8,417.5)">20</text>
<text class="ticklabel ytl" transform="translate(128.8,299.1)">40</text>
<text class="ticklabel ytl" transform="translate(128.8,180.6)">60</text>
<text class="ticklabel ytl" transform="translate(128.8,62.1)">80 Mt</text>
<g stroke="#000" stroke-width="0.90" fill="#DBA746"  clip-path="url(#axis_clip)">
  <polygon class="pl" points="147.8,92.9 147.8,93.5 165.2,93.5 165.2,92.9 147.8,92.9"/>
  <polygon class="pl" points="169.5,114.3 169.5,114.8 186.9,114.8 186.9,114.3 169.5,114.3"/>
  <polygon class="pl" points="191.3,159.0 191.3,159.5 208.7,159.5 208.7,159.0 191.3,159.0"/>
  <polygon class="pl" points="213.1,154.8 213.1,155.3 230.5,155.3 230.5,154.8 213.1,154.8"/>
  <polygon class="pl" points="234.8,161.3 234.8,161.9 252.2,161.9 252.2,161.3 234.8,161.3"/>
  <polygon class="pl" points="256.6,163.8 256.6,164.4 274.0,164.4 274.0,163.8 256.6,163.8"/>
  <polygon class="pl" points="278.3,154.2 278.3,154.8 295.7,154.8 295.7,154.2 278.3,154.2"/>
  <polygon class="pl" points="300.1,162.6 300.1,163.2 317.5,163.2 317.5,162.6 300.1,162.6"/>
  <polygon class="pl" points="321.9,165.1 321.9,165.7 339.3,165.7 339.3,165.1 321.9,165.1"/>
  <polygon class="pl" points="343.6,163.2 343.6,163.8 361.0,163.8 361.0,163.2 343.6,163.2"/>
  <polygon class="pl" points="365.4,182.9 365.4,183.5 382.8,183.5 382.8,182.9 365.4,182.9"/>
  <polygon class="pl" points="387.1,173.5 387.1,174.1 404.5,174.1 404.5,173.5 387.1,173.5"/>
  <polygon class="pl" points="408.9,179.4 408.9,180.0 426.3,180.0 426.3,179.4 408.9,179.4"/>
  <polygon class="pl" points="430.7,163.0 430.7,163.5 448.1,163.5 448.1,163.0 430.7,163.0"/>
  <polygon class="pl" points="452.4,172.6 452.4,173.2 469.8,173.2 469.8,172.6 452.4,172.6"/>
  <polygon class="pl" points="474.2,171.6 474.2,172.2 491.6,172.2 491.6,171.6 474.2,171.6"/>
  <polygon class="pl" points="495.9,175.3 495.9,175.8 513.3,175.8 513.3,175.3 495.9,175.3"/>
  <polygon class="pl" points="517.7,181.7 517.7,182.4 535.1,182.4 535.1,181.7 517.7,181.7"/>
  <polygon class="pl" points="539.5,189.2 539.5,189.8 556.9,189.8 556.9,189.2 539.5,189.2"/>
  <polygon class="pl" points="561.2,223.1 561.2,223.7 578.6,223.7 578.6,223.1 561.2,223.1"/>
  <polygon class="pl" points="583.0,220.0 583.0,220.6 600.4,220.6 600.4,220.0 583.0,220.0"/>
  <polygon class="pl" points="604.7,230.8 604.7,231.3 622.1,231.3 622.1,230.8 604.7,230.8"/>
  <polygon class="pl" points="626.5,251.2 626.5,251.7 643.9,251.7 643.9,251.2 626.5,251.2"/>
  <polygon class="pl" points="648.3,270.4 648.3,270.8 665.7,270.8 665.7,270.4 648.3,270.4"/>
  <polygon class="pl" points="670.0,269.4 670.0,269.9 687.4,269.9 687.4,269.4 670.0,269.4"/>
  <polygon class="pl" points="691.8,252.1 691.8,252.2 709.2,252.2 709.2,252.1 691.8,252.1"/>
  <polygon class="pl" points="713.5,249.3 713.5,249.4 730.9,249.4 730.9,249.3 713.5,249.3"/>
  <polygon class="pl" points="735.3,235.1 735.3,235.3 752.7,235.3 752.7,235.1 735.3,235.1"/>
  <polygon class="pl" points="757.1,235.5 757.1,235.6 774.5,235.6 774.5,235.5 757.1,235.5"/>
  <polygon class="pl" points="778.8,236.7 778.8,236.9 796.2,236.9 796.2,236.7 778.8,236.7"/>
  <polygon class="pl" points="800.6,248.9 800.6,249.0 818.0,249.0 818.0,248.9 800.6,248.9"/>
  <polygon class="pl" points="822.3,241.6 822.3,241.8 839.7,241.8 839.7,241.6 822.3,241.6"/>
  <polygon class="pl" points="844.1,259.8 844.1,259.8 861.5,259.8 861.5,259.8 844.1,259.8"/>
  <polygon class="pl" points="865.9,289.0 865.9,289.1 883.3,289.1 883.3,289.0 865.9,289.0"/>
  <polygon class="pl" points="887.6,294.0 887.6,294.1 905.0,294.1 905.0,294.0 887.6,294.0"/>
</g>
<g stroke="#000" stroke-width="0.90" fill="#845F48"  clip-path="url(#axis_clip)">
  <polygon class="pl" points="147.8,93.5 147.8,95.8 165.2,95.8 165.2,93.5 147.8,93.5"/>
  <polygon class="pl" points="169.5,114.8 169.5,116.5 186.9,116.5 186.9,114.8 169.5,114.8"/>
  <polygon class="pl" points="191.3,159.5 191.3,160.9 208.7,160.9 208.7,159.5 191.3,159.5"/>
  <polygon class="pl" points="213.1,155.3 213.1,156.5 230.5,156.5 230.5,155.3 213.1,155.3"/>
  <polygon class="pl" points="234.8,161.9 234.8,162.9 252.2,162.9 252.2,161.9 234.8,161.9"/>
  <polygon class="pl" points="256.6,164.4 256.6,165.1 274.0,165.1 274.0,164.4 256.6,164.4"/>
  <polygon class="pl" points="278.3,154.8 278.3,155.4 295.7,155.4 295.7,154.8 278.3,154.8"/>
  <polygon class="pl" points="300.1,163.2 300.1,163.7 317.5,163.7 317.5,163.2 300.1,163.2"/>
  <polygon class="pl" points="321.9,165.7 321.9,166.2 339.3,166.2 339.3,165.7 321.9,165.7"/>
  <polygon class="pl" points="343.6,163.8 343.6,164.3 361.0,164.3 361.0,163.8 343.6,163.8"/>
  <polygon class="pl" points="365.4,183.5 365.4,184.1 382.8,184.1 382.8,183.5 365.4,183.5"/>
  <polygon class="pl" points="387.1,174.1 387.1,174.8 404.5,174.8 404.5,174.1 387.1,174.1"/>
  <polygon class="pl" points="408.9,180.0 408.9,180.6 426.3,180.6 426.3,180.0 408.9,180.0"/>
  <polygon class="pl" points="430.7,163.5 430.7,164.3 448.1,164.3 448.1,163.5 430.7,163.5"/>
  <polygon class="pl" points="452.4,173.2 452.4,174.1 469.8,174.1 469.8,173.2 452.4,173.2"/>
  <polygon class="pl" points="474.2,172.2 474.2,173.1 491.6,173.1 491.6,172.2 474.2,172.2"/>
  <polygon class="pl" points="495.9,175.8 495.9,176.7 513.3,176.7 513.3,175.8 495.9,175.8"/>
  <polygon class="pl" points="517.7,182.4 517.7,183.3 535.1,183.3 535.1,182.4 517.7,182.4"/>
  <polygon class="pl" points="539.5,189.8 539.5,190.3 556.9,190.3 556.9,189.8 539.5,189.8"/>
  <polygon class="pl" points="561.2,223.7 561.2,224.3 578.6,224.3 578.6,223.7 561.2,223.7"/>
  <polygon class="pl" points="583.0,220.6 583.0,221.2 600.4,221.2 600.4,220.6 583.0,220.6"/>
  <polygon class="pl" points="604.7,231.3 604.7,232.1 622.1,232.1 622.1,231.3 604.7,231.3"/>
  <polygon class="pl" points="626.5,251.7 626.5,252.5 643.9,252.5 643.9,251.7 626.5,251.7"/>
  <polygon class="pl" points="648.3,270.8 648.3,271.8 665.7,271.8 665.7,270.8 648.3,270.8"/>
  <polygon class="pl" points="670.0,269.9 670.0,270.9 687.4,270.9 687.4,269.9 670.0,269.9"/>
  <polygon class="pl" points="691.8,252.2 691.8,253.4 709.2,253.4 709.2,252.2 691.8,252.2"/>
  <polygon class="pl" points="713.5,249.4 713.5,250.6 730.9,250.6 730.9,249.4 713.5,249.4"/>
  <polygon class="pl" points="735.3,235.3 735.3,236.6 752.7,236.6 752.7,235.3 735.3,235.3"/>
  <polygon class="pl" points="757.1,235.6 757.1,236.9 774.5,236.9 774.5,235.6 757.1,235.6"/>
  <polygon class="pl" points="778.8,236.9 778.8,238.2 796.2,238.2 796.2,236.9 778.8,236.9"/>
  <polygon class="pl" points="800.6,249.0 800.6,250.4 818.0,250.4 818.0,249.0 800.6,249.0"/>
  <polygon class="pl" points="822.3,241.8 822.3,243.2 839.7,243.2 839.7,241.8 822.3,241.8"/>
  <polygon class="pl" points="844.1,259.8 844.1,261.1 861.5,261.1 861.5,259.8 844.1,259.8"/>
  <polygon class="pl" points="865.9,289.1 865.9,290.1 883.3,290.1 883.3,289.1 865.9,289.1"/>
  <polygon class="pl" points="887.6,294.1 887.6,295.3 905.0,295.3 905.0,294.1 887.6,294.1"/>
</g>
<g stroke="#000" stroke-width="0.90" fill="#4A89E8"  clip-path="url(#axis_clip)">
  <polygon class="pl" points="147.8,95.8 147.8,144.0 165.2,144.0 165.2,95.8 147.8,95.8"/>
  <polygon class="pl" points="169.5,116.5 169.5,152.1 186.9,152.1 186.9,116.5 169.5,116.5"/>
  <polygon class="pl" points="191.3,160.9 191.3,191.2 208.7,191.2 208.7,160.9 191.3,160.9"/>
  <polygon class="pl" points="213.1,156.5 213.1,189.0 230.5,189.0 230.5,156.5 213.1,156.5"/>
  <polygon class="pl" points="234.8,162.9 234.8,200.2 252.2,200.2 252.2,162.9 234.8,162.9"/>
  <polygon class="pl" points="256.6,165.1 256.6,203.5 274.0,203.5 274.0,165.1 256.6,165.1"/>
  <polygon class="pl" points="278.3,155.4 278.3,192.7 295.7,192.7 295.7,155.4 278.3,155.4"/>
  <polygon class="pl" points="300.1,163.7 300.1,197.4 317.5,197.4 317.5,163.7 300.1,163.7"/>
  <polygon class="pl" points="321.9,166.2 321.9,198.5 339.3,198.5 339.3,166.2 321.9,166.2"/>
  <polygon class="pl" points="343.6,164.3 343.6,196.4 361.0,196.4 361.0,164.3 343.6,164.3"/>
  <polygon class="pl" points="365.4,184.1 365.4,218.3 382.8,218.3 382.8,184.1 365.4,184.1"/>
  <polygon class="pl" points="387.1,174.8 387.1,207.5 404.5,207.5 404.5,174.8 387.1,174.8"/>
  <polygon class="pl" points="408.9,180.6 408.9,213.4 426.3,213.4 426.3,180.6 408.9,180.6"/>
  <polygon class="pl" points="430.7,164.3 430.7,196.9 448.1,196.9 448.1,164.3 430.7,164.3"/>
  <polygon class="pl" points="452.4,174.1 452.4,207.3 469.8,207.3 469.8,174.1 452.4,174.1"/>
  <polygon class="pl" points="474.2,173.1 474.2,209.4 491.6,209.4 491.6,173.1 474.2,173.1"/>
  <polygon class="pl" points="495.9,176.7 495.9,213.0 513.3,213.0 513.3,176.7 495.9,176.7"/>
  <polygon class="pl" points="517.7,183.3 517.7,220.6 535.1,220.6 535.1,183.3 517.7,183.3"/>
  <polygon class="pl" points="539.5,190.3 539.5,225.1 556.9,225.1 556.9,190.3 539.5,190.3"/>
  <polygon class="pl" points="561.2,224.3 561.2,252.9 578.6,252.9 578.6,224.3 561.2,224.3"/>
  <polygon class="pl" points="583.0,221.2 583.0,250.4 600.4,250.4 600.4,221.2 583.0,221.2"/>
  <polygon class="pl" points="604.7,232.1 604.7,261.5 622.1,261.5 622.1,232.1 604.7,232.1"/>
  <polygon class="pl" points="626.5,252.5 626.5,279.8 643.9,279.8 643.9,252.5 626.5,252.5"/>
  <polygon class="pl" points="648.3,271.8 648.3,294.8 665.7,294.8 665.7,271.8 648.3,271.8"/>
  <polygon class="pl" points="670.0,270.9 670.0,296.8 687.4,296.8 687.4,270.9 670.0,270.9"/>
  <polygon class="pl" points="691.8,253.4 691.8,281.9 709.2,281.9 709.2,253.4 691.8,253.4"/>
  <polygon class="pl" points="713.5,250.6 713.5,277.0 730.9,277.0 730.9,250.6 713.5,250.6"/>
  <polygon class="pl" points="735.3,236.6 735.3,267.3 752.7,267.3 752.7,236.6 735.3,236.6"/>
  <polygon class="pl" points="757.1,236.9 757.1,268.5 774.5,268.5 774.5,236.9 757.1,236.9"/>
  <polygon class="pl" points="778.8,238.2 778.8,268.9 796.2,268.9 796.2,238.2 778.8,238.2"/>
  <polygon class="pl" points="800.6,250.4 800.6,280.8 818.0,280.8 818.0,250.4 800.6,250.4"/>
  <polygon class="pl" points="822.3,243.2 822.3,272.2 839.7,272.2 839.7,243.2 822.3,243.2"/>
  <polygon class="pl" points="844.1,261.1 844.1,283.4 861.5,283.4 861.5,261.1 844.1,261.1"/>
  <polygon class="pl" points="865.9,290.1 865.9,310.3 883.3,310.3 883.3,290.1 865.9,290.1"/>
  <polygon class="pl" points="887.6,295.3 887.6,315.1 905.0,315.1 905.0,295.3 887.6,295.3"/>
</g>
<g stroke="#000" stroke-width="0.90" fill="#FF7F61"  clip-path="url(#axis_clip)">
  <polygon class="pl" points="147.8,144.0 147.8,527.9 165.2,527.9 165.2,144.0 147.8,144.0"/>
  <polygon class="pl" points="169.5,152.1 169.5,527.9 186.9,527.9 186.9,152.1 169.5,152.1"/>
  <polygon class="pl" points="191.3,191.2 191.3,527.9 208.7,527.9 208.7,191.2 191.3,191.2"/>
  <polygon class="pl" points="213.1,189.0 213.1,527.9 230.5,527.9 230.5,189.0 213.1,189.0"/>
  <polygon class="pl" points="234.8,200.2 234.8,527.9 252.2,527.9 252.2,200.2 234.8,200.2"/>
  <polygon class="pl" points="256.6,203.5 256.6,527.9 274.0,527.9 274.0,203.5 256.6,203.5"/>
  <polygon class="pl" points="278.3,192.7 278.3,527.9 295.7,527.9 295.7,192.7 278.3,192.7"/>
  <polygon class="pl" points="300.1,197.4 300.1,527.9 317.5,527.9 317.5,197.4 300.1,197.4"/>
  <polygon class="pl" points="321.9,198.5 321.9,527.9 339.3,527.9 339.3,198.5 321.9,198.5"/>
  <polygon class="pl" points="343.6,196.4 343.6,527.9 361.0,527.9 361.0,196.4 343.6,196.4"/>
  <polygon class="pl" points="365.4,218.3 365.4,527.9 382.8,527.9 382.8,218.3 365.4,218.3"/>
  <polygon class="pl" points="387.1,207.5 387.1,527.9 404.5,527.9 404.5,207.5 387.1,207.5"/>
  <polygon class="pl" points="408.9,213.4 408.9,527.9 426.3,527.9 426.3,213.4 408.9,213.4"/>
  <polygon class="pl" points="430.7,196.9 430.7,527.9 448.1,527.9 448.1,196.9 430.7,196.9"/>
  <polygon class="pl" points="452.4,207.3 452.4,527.9 469.8,527.9 469.8,207.3 452.4,207.3"/>
  <polygon class="pl" points="474.2,209.4 474.2,527.9 491.6,527.9 491.6,209.4 474.2,209.4"/>
  <polygon class="pl" points="495.9,213.0 495.9,527.9 513.3,527.9 513.3,213.0 495.9,213.0"/>
  <polygon class="pl" points="517.7,220.6 517.7,527.9 535.1,527.9 535.1,220.6 517.7,220.6"/>
  <polygon class="pl" points="539.5,225.1 539.5,527.9 556.9,527.9 556.9,225.1 539.5,225.1"/>
  <polygon class="pl" points="561.2,252.9 561.2,527.9 578.6,527.9 578.6,252.9 561.2,252.9"/>
  <polygon class="pl" points="583.0,250.4 583.0,527.9 600.4,527.9 600.4,250.4 583.0,250.4"/>
  <polygon class="pl" points="604.7,261.5 604.7,527.9 622.1,527.9 622.1,261.5 604.7,261.5"/>
  <polygon class="pl" points="626.5,279.8 626.5,527.9 643.9,527.9 643.9,279.8 626.5,279.8"/>
  <polygon class="pl" points="648.3,294.8 648.3,527.9 665.7,527.9 665.7,294.8 648.3,294.8"/>
  <polygon class="pl" points="670.0,296.8 670.0,527.9 687.4,527.9 687.4,296.8 670.0,296.8"/>
  <polygon class="pl" points="691.8,281.9 691.8,527.9 709.2,527.9 709.2,281.9 691.8,281.9"/>
  <polygon class="pl" points="713.5,277.0 713.5,527.9 730.9,527.9 730.9,277.0 713.5,277.0"/>
  <polygon class="pl" points="735.3,267.3 735.3,527.9 752.7,527.9 752.7,267.3 735.3,267.3"/>
  <polygon class="pl" points="757.1,268.5 757.1,527.9 774.5,527.9 774.5,268.5 757.1,268.5"/>
  <polygon class="pl" points="778.8,268.9 778.8,527.9 796.2,527.9 796.2,268.9 778.8,268.9"/>
  <polygon class="pl" points="800.6,280.8 800.6,527.9 818.0,527.9 818.0,280.8 800.6,280.8"/>
  <polygon class="pl" points="822.3,272.2 822.3,527.9 839.7,527.9 839.7,272.2 822.3,272.2"/>
  <polygon class="pl" points="844.1,283.4 844.1,527.9 861.5,527.9 861.5,283.4 844.1,283.4"/>
  <polygon class="pl" points="865.9,310.3 865.9,527.9 883.3,527.9 883.3,310.3 865.9,310.3"/>
  <polygon class="pl" points="887.6,315.1 887.6,527.9 905.0,527.9 905.0,315.1 887.6,315.1"/>
</g>
<g stroke="#000" stroke-width="0.90" fill="#7FBF7F"  clip-path="url(#axis_clip)">
  <polygon class="pl" points="147.8,547.6 147.8,527.9 165.2,527.9 165.2,547.6 147.8,547.6"/>
  <polygon class="pl" points="169.5,542.5 169.5,527.9 186.9,527.9 186.9,542.5 169.5,542.5"/>
  <polygon class="pl" points="191.3,545.7 191.3,527.9 208.7,527.9 208.7,545.7 191.3,545.7"/>
  <polygon class="pl" points="213.1,561.2 213.1,527.9 230.5,527.9 230.5,561.2 213.1,561.2"/>
  <polygon class="pl" points="234.8,565.0 234.8,527.9 252.2,527.9 252.2,565.0 234.8,565.0"/>
  <polygon class="pl" points="256.6,565.0 256.6,527.9 274.0,527.9 274.0,565.0 256.6,565.0"/>
  <polygon class="pl" points="278.3,543.5 278.3,527.9 295.7,527.9 295.7,543.5 278.3,543.5"/>
  <polygon class="pl" points="300.1,546.1 300.1,527.9 317.5,527.9 317.5,546.1 300.1,546.1"/>
  <polygon class="pl" points="321.9,552.5 321.9,527.9 339.3,527.9 339.3,552.5 321.9,552.5"/>
  <polygon class="pl" points="343.6,539.2 343.6,527.9 361.0,527.9 361.0,539.2 343.6,539.2"/>
  <polygon class="pl" points="365.4,534.1 365.4,527.9 382.8,527.9 382.8,534.1 365.4,534.1"/>
  <polygon class="pl" points="387.1,543.8 387.1,527.9 404.5,527.9 404.5,543.8 387.1,543.8"/>
  <polygon class="pl" points="408.9,539.7 408.9,527.9 426.3,527.9 426.3,539.7 408.9,539.7"/>
  <polygon class="pl" points="430.7,553.9 430.7,527.9 448.1,527.9 448.1,553.9 430.7,553.9"/>
  <polygon class="pl" points="452.4,548.2 452.4,527.9 469.8,527.9 469.8,548.2 452.4,548.2"/>
  <polygon class="pl" points="474.2,563.2 474.2,527.9 491.6,527.9 491.6,563.2 474.2,563.2"/>
  <polygon class="pl" points="495.9,551.6 495.9,527.9 513.3,527.9 513.3,551.6 495.9,551.6"/>
  <polygon class="pl" points="517.7,553.5 517.7,527.9 535.1,527.9 535.1,553.5 517.7,553.5"/>
  <polygon class="pl" points="539.5,563.6 539.5,527.9 556.9,527.9 556.9,563.6 539.5,563.6"/>
  <polygon class="pl" points="561.2,555.2 561.2,527.9 578.6,527.9 578.6,555.2 561.2,555.2"/>
  <polygon class="pl" points="583.0,555.8 583.0,527.9 600.4,527.9 600.4,555.8 583.0,555.8"/>
  <polygon class="pl" points="604.7,552.6 604.7,527.9 622.1,527.9 622.1,552.6 604.7,552.6"/>
  <polygon class="pl" points="626.5,556.9 626.5,527.9 643.9,527.9 643.9,556.9 626.5,556.9"/>
  <polygon class="pl" points="648.3,552.0 648.3,527.9 665.7,527.9 665.7,552.0 648.3,552.0"/>
  <polygon class="pl" points="670.0,558.4 670.0,527.9 687.4,527.9 687.4,558.4 670.0,558.4"/>
  <polygon class="pl" points="691.8,562.2 691.8,527.9 709.2,527.9 709.2,562.2 691.8,562.2"/>
  <polygon class="pl" points="713.5,555.8 713.5,527.9 730.9,527.9 730.9,555.8 713.5,555.8"/>
  <polygon class="pl" points="735.3,562.4 735.3,527.9 752.7,527.9 752.7,562.4 735.3,562.4"/>
  <polygon class="pl" points="757.1,557.8 757.1,527.9 774.5,527.9 774.5,557.8 757.1,557.8"/>
  <polygon class="pl" points="778.8,561.5 778.8,527.9 796.2,527.9 796.2,561.5 778.8,561.5"/>
  <polygon class="pl" points="800.6,570.0 800.6,527.9 818.0,527.9 818.0,570.0 800.6,570.0"/>
  <polygon class="pl" points="822.3,571.1 822.3,527.9 839.7,527.9 839.7,571.1 822.3,571.1"/>
  <polygon class="pl" points="844.1,559.1 844.1,527.9 861.5,527.9 861.5,559.1 844.1,559.1"/>
  <polygon class="pl" points="865.9,560.0 865.9,527.9 883.3,527.9 883.3,560.0 865.9,560.0"/>
  <polygon class="pl" points="887.6,565.9 887.6,527.9 905.0,527.9 905.0,565.9 887.6,565.9"/>
</g>
<polyline class="pl" points="156.5,112.6 178.2,128.9 200.0,176.7 221.8,188.0 243.5,198.4 265.3,200.9 287.0,169.7 308.8,180.8 330.6,189.7 352.3,174.4 374.1,189.1 395.8,189.4 417.6,191.2 439.4,188.9 461.1,192.8 482.9,206.9 504.6,199.0 526.4,207.2 548.2,224.8 569.9,250.4 591.7,247.9 613.4,255.5 635.2,280.2 657.0,294.5 678.7,299.9 700.5,286.4 722.2,277.2 744.0,269.6 765.8,265.4 787.5,270.3 809.3,290.9 831.0,284.8 852.8,290.9 874.6,321.0 896.3,332.0" stroke="#000" stroke-width="5.40" stroke-opacity="1.00" fill="none" clip-path="url(#axis_clip)"/>
<g class="pl" fill="#FFF" stroke="#000" stroke-width="0.900">
  <circle cx="178.2" cy="128.9" r="2.2" />
  <circle cx="200.0" cy="176.7" r="2.2" />
  <circle cx="221.8" cy="188.0" r="2.2" />
  <circle cx="243.5" cy="198.4" r="2.2" />
  <circle cx="265.3" cy="200.9" r="2.2" />
  <circle cx="287.0" cy="169.7" r="2.2" />
  <circle cx="308.8" cy="180.8" r="2.2" />
  <circle cx="330.6" cy="189.7" r="2.2" />
  <circle cx="352.3" cy="174.4" r="2.2" />
  <circle cx="395.8" cy="189.4" r="2.2" />
  <circle cx="417.6" cy="191.2" r="2.2" />
  <circle cx="439.4" cy="188.9" r="2.2" />
  <circle cx="461.1" cy="192.8" r="2.2" />
  <circle cx="482.9" cy="206.9" r="2.2" />
  <circle cx="504.6" cy="199.0" r="2.2" />
  <circle cx="526.4" cy="207.2" r="2.2" />
  <circle cx="548.2" cy="224.8" r="2.2" />
  <circle cx="569.9" cy="250.4" r="2.2" />
  <circle cx="613.4" cy="255.5" r="2.2" />
  <circle cx="635.2" cy="280.2" r="2.2" />
  <circle cx="657.0" cy="294.5" r="2.2" />
  <circle cx="678.7" cy="299.9" r="2.2" />
  <circle cx="700.5" cy="286.4" r="2.2" />
  <circle cx="722.2" cy="277.2" r="2.2" />
  <circle cx="744.0" cy="269.6" r="2.2" />
  <circle cx="765.8" cy="265.4" r="2.2" />
  <circle cx="787.5" cy="270.3" r="2.2" />
  <circle cx="831.0" cy="284.8" r="2.2" />
  <circle cx="852.8" cy="290.9" r="2.2" />
  <circle cx="874.6" cy="321.0" r="2.2" />
  <circle cx="896.3" cy="332.0" r="2.2" />
</g>
<g class="pl" fill="#FFF" stroke="#000" stroke-width="0.900">
  <circle cx="156.5" cy="112.6" r="5.4" />
  <circle cx="374.1" cy="189.1" r="5.4" />
  <circle cx="591.7" cy="247.9" r="5.4" />
  <circle cx="809.3" cy="290.9" r="5.4" />
</g>
<text transform="translate(145.6,47.2)" dy="0.0" font-size="27.00" fill="#808080" stroke="none">Annual CO<tspan dy="0.2em"><tspan style="font-size:70%">2</tspan></tspan><tspan dy="-0.2em"> </tspan>Emissions: Hungary</text>
<text transform="translate(130.0,81.6)" dy="8.1" font-size="27.00" fill="#808080" stroke="none" text-anchor="end">CO<tspan dy="0.2em"><tspan style="font-size:70%">2</tspan></tspan><tspan dy="-0.2em"></tspan></text>
<text transform="translate(945.6,344.0)" dy="7.6" font-size="25.20" fill="#000" stroke="none">-52.8% since 1990</text>
<text transform="translate(945.6,421.5)" dy="7.6" font-size="25.20" fill="#FF7F61" stroke="none">Energy</text>
<text transform="translate(945.6,319.0)" dy="7.6" font-size="25.20" fill="#4A89E8" stroke="none">Industrial Processes</text>
<text transform="translate(945.6,294.0)" dy="7.6" font-size="25.20" fill="#845F48" stroke="none">Agriculture</text>
<text transform="translate(945.6,268.9)" dy="7.6" font-size="25.20" fill="#DBA746" stroke="none">Waste</text>
<text transform="translate(945.6,546.9)" dy="7.6" font-size="25.20" fill="#7FBF7F" stroke="none">LULUCF</text>
<polyline class="pl" points="910.8,332.0 912.4,332.0 913.8,332.1 915.2,332.3 916.4,332.6 917.6,332.9 918.8,333.3 919.8,333.7 920.8,334.2 921.7,334.7 922.7,335.3 923.5,335.9 924.4,336.5 925.2,337.1 926.0,337.7 926.8,338.3 927.6,338.9 928.4,339.5 929.3,340.1 930.1,340.7 931.1,341.3 932.0,341.8 933.0,342.3 934.0,342.7 935.2,343.1 936.4,343.4 937.6,343.7 939.0,343.9 940.4,344.0 942.0,344.0" stroke="#000" stroke-width="0.90" stroke-opacity="1.00" fill="none" />
<polyline class="pl" points="910.8,305.2 912.4,305.2 913.8,305.4 915.2,305.6 916.4,305.9 917.6,306.3 918.8,306.7 919.8,307.2 920.8,307.8 921.7,308.4 922.7,309.0 923.5,309.6 924.4,310.3 925.2,311.0 926.0,311.7 926.8,312.5 927.6,313.2 928.4,313.9 929.3,314.5 930.1,315.2 931.1,315.8 932.0,316.4 933.0,317.0 934.0,317.5 935.2,317.9 936.4,318.3 937.6,318.6 939.0,318.8 940.4,319.0 942.0,319.0" stroke="#4A89E8" stroke-width="0.90" stroke-opacity="1.00" fill="none" />
<polyline class="pl" points="910.8,294.7 912.4,294.7 913.8,294.7 915.2,294.7 916.4,294.7 917.6,294.6 918.8,294.6 919.8,294.6 920.8,294.6 921.7,294.5 922.7,294.5 923.5,294.5 924.4,294.4 925.2,294.4 926.0,294.4 926.8,294.3 927.6,294.3 928.4,294.2 929.3,294.2 930.1,294.2 931.1,294.1 932.0,294.1 933.0,294.1 934.0,294.0 935.2,294.0 936.4,294.0 937.6,294.0 939.0,294.0 940.4,294.0 942.0,294.0" stroke="#845F48" stroke-width="0.90" stroke-opacity="1.00" fill="none" />
<polyline class="pl" points="910.8,294.1 912.4,294.0 913.8,293.7 915.2,293.3 916.4,292.8 917.6,292.1 918.8,291.3 919.8,290.4 920.8,289.4 921.7,288.3 922.7,287.2 923.5,286.0 924.4,284.7 925.2,283.4 926.0,282.1 926.8,280.8 927.6,279.6 928.4,278.3 929.3,277.0 930.1,275.8 931.1,274.7 932.0,273.6 933.0,272.6 934.0,271.7 935.2,270.9 936.4,270.2 937.6,269.7 939.0,269.3 940.4,269.0 942.0,268.9" stroke="#DBA746" stroke-width="0.90" stroke-opacity="1.00" fill="none" />
<text transform="translate(160.0,666.1)" font-size="19.80" font-family="Helvetica" fill="#BFBFBF" stroke="none" xml:space="preserve">CICERO   &#9679;   Data: UNFCCC (2026)</text>
<g>
  <rect x="123.0" y="651.4" width="34" height="17" fill="#FFF" stroke="none" opacity="0.01"/>
  <g transform="translate(124.0,652.4) scale(0.24)">
  <g><circle fill="#FFF" cx="37.79" cy="28.5" r="28.84"/>
     <circle fill="none" cx="37.79" cy="28.5" r="28.84" stroke="#BFBFBF" stroke-width="5.5"/>
     <path fill="#BFBFBF" d="M37.16,23.19 l-4.29,2.23c-0.458-0.951-1.02-1.62-1.69-2c-0.667-0.38-1.29-0.571-1.86-0.571c-2.86,0-4.29,1.89-4.29,5.66 c0,1.71,0.36,3.08,1.09,4.11c0.724,1.03,1.79,1.54,3.2,1.54c1.87,0,3.18-0.915,3.94-2.74l3.94,2 c-0.838,1.56-2,2.79-3.49,3.69c-1.48,0.896-3.12,1.34-4.91,1.34c-2.86,0-5.16-0.875-6.92-2.63 c-1.75-1.75-2.63-4.19-2.63-7.31c0-3.05,0.886-5.47,2.66-7.26c1.77-1.79,4.01-2.69,6.72-2.69 C32.6,18.56,35.44,20.1,37.16,23.19z
              M55.61,23.19l-4.23,2.23c-0.457-0.951-1.02-1.62-1.69-2 c-0.668-0.38-1.31-0.571-1.91-0.571c-2.86,0-4.29,1.89-4.29,5.66c0,1.71,0.363,3.08,1.09,4.11 c0.723,1.03,1.79,1.54,3.2,1.54c1.87,0,3.18-0.915,3.94-2.74l4,2c-0.875,1.56-2.06,2.79-3.54,3.69 c-1.49,0.9-3.11,1.34-4.86,1.34c-2.9,0-5.21-0.875-6.94-2.63c-1.74-1.75-2.6-4.19-2.6-7.31 c0-3.05,0.885-5.47,2.66-7.26c1.77-1.79,4.01-2.69,6.71-2.69C51.12,18.56,53.944,20.1,55.61,23.19z"/>
  </g></g>
  <g transform="translate(140.2,652.4) scale(0.24)">
  <g><circle fill="#FFF" cx="37.79" cy="28.5" r="28.84"/>
     <circle fill="none" cx="37.79" cy="28.5" r="28.84" stroke="#BFBFBF" stroke-width="5.5"/>
     <path fill="#BFBFBF" d="M46.129,20.557v13.085h-3.656v15.542h-9.944V33.643h-3.656V20.557 c0-0.572,0.2-1.057,0.599-1.457c0.401-0.399,0.887-0.6,1.457-0.6h13.144c0.533,0,1.01,0.2,1.428,0.6 C45.918,19.5,46.129,19.986,46.129,20.557z
              M33.042,12.329c0-3.008,1.485-4.514,4.458-4.514s4.457,1.504,4.457,4.514 c0,2.971-1.486,4.457-4.457,4.457S33.042,15.3,33.042,12.329z"/>
  </g></g>
</g>
</g>
</svg>
