<svg version="1.1" xmlns="http://www.w3.org/2000/svg" xmlns:xlink="http://www.w3.org/1999/xlink" width="100%" height="100%" viewBox="0 0 1200.000 674.916">
<title>Emissions and removals on forest land: Hungary</title>
<style type="text/css">
  #main {font-family:Helvetica,Arial,sans-serif; font-size:27.00px;
         fill-opacity:1; fill:#000000; stroke:none; stroke-linejoin:round; stroke-linecap:round; stroke-width:1.00;}
  .marker {stroke-opacity:0;fill-opacity:0;}
  .marker:hover {stroke-opacity:0.5; fill-opacity:1;}
  .ticklabel {font-size:27.00px;fill:#808080;stroke:none;font-family:Helvetica}
  .ytl {text-anchor:end;}
  .dp1 {pointer-events:none;font-size:70%;text-anchor:middle;fill:#000000;}
  .dp2 {pointer-events:none;font-size:70%;text-anchor:middle;fill:#FFFFFF;}
  .numtip {pointer-events:none;}
  .cc {opacity:0.25;}
.dl_fe {background-color:#FDFFDF;display:flex;margin:auto;align-items:center}
.dl_fe_p {font-size:20px;text-align:center;margin:3px}
.dl_el {display:none;pointer-events:none;}
.cc:hover + .dl_el {display:block;}
text:hover + .dl_el {display:block;}
</style>
<defs>
  <clipPath id="axis_clip"><rect x="145.8" y="54.2" width="761.2" height="532.8" /></clipPath>
  <path id="line_y" d="M 0,53.993 v 533.183" stroke="#262626" stroke-opacity="0.15" stroke-width="1.00"/>
  <path id="line_x" d="M 145.600,0 h 761.600" stroke="#262626" stroke-opacity="0.15" stroke-width="1.00"/>
  <path id="tick_y" d="M 145.600,0 h -6.000" stroke="#808080" stroke-width="0.90"/>
  <path id="tick_x" d="M 0,587.177 v 6.000" stroke="#808080" stroke-width="0.90"/>
</defs>
<g id="main">
<use xlink:href="#line_y" transform="translate(156.5,0)"/>
<use xlink:href="#line_y" transform="translate(265.3,0)"/>
<use xlink:href="#line_y" transform="translate(374.1,0)"/>
<use xlink:href="#line_y" transform="translate(482.9,0)"/>
<use xlink:href="#line_y" transform="translate(591.7,0)"/>
<use xlink:href="#line_y" transform="translate(700.5,0)"/>
<use xlink:href="#line_y" transform="translate(809.3,0)"/>
<use xlink:href="#line_y" transform="translate(896.3,0)"/>
<use xlink:href="#line_x" transform="translate(0,520.5)"/>
<use xlink:href="#line_x" transform="translate(0,387.2)"/>
<use xlink:href="#line_x" transform="translate(0,253.9)"/>
<use xlink:href="#line_x" transform="translate(0,120.6)"/>
<use xlink:href="#tick_y" transform="translate(0,520.5)"/>
<use xlink:href="#tick_y" transform="translate(0,387.2)"/>
<use xlink:href="#tick_y" transform="translate(0,253.9)"/>
<use xlink:href="#tick_y" transform="translate(0,120.6)"/>
<use xlink:href="#tick_x" transform="translate(156.5,0)"/>
<use xlink:href="#tick_x" transform="translate(265.3,0)"/>
<use xlink:href="#tick_x" transform="translate(374.1,0)"/>
<use xlink:href="#tick_x" transform="translate(482.9,0)"/>
<use xlink:href="#tick_x" transform="translate(591.7,0)"/>
<use xlink:href="#tick_x" transform="translate(700.5,0)"/>
<use xlink:href="#tick_x" transform="translate(809.3,0)"/>
<use xlink:href="#tick_x" transform="translate(896.3,0)"/>
<polyline points="145.6,53.993 145.6,587.177 907.2,587.177" stroke="#808080" stroke-width="0.90" fill="none"/>
<text class="ticklabel xtl" transform="translate(156.5,629.0)" text-anchor="middle">1990</text>
<text class="ticklabel xtl" transform="translate(265.3,629.0)" text-anchor="middle">1995</text>
<text class="ticklabel xtl" transform="translate(374.1,629.0)" text-anchor="middle">2000</text>
<text class="ticklabel xtl" transform="translate(482.9,629.0)" text-anchor="middle">2005</text>
<text class="ticklabel xtl" transform="translate(591.7,629.0)" text-anchor="middle">2010</text>
<text class="ticklabel xtl" transform="translate(700.5,629.0)" text-anchor="middle">2015</text>
<text class="ticklabel xtl" transform="translate(809.3,629.0)" text-anchor="middle">2020</text>
<text class="ticklabel xtl" transform="translate(896.3,629.0)" text-anchor="middle">2024</text>
<text class="ticklabel ytl" transform="translate(128.8,528.6)">-6</text>
<text class="ticklabel ytl" transform="translate(128.8,395.3)">-4</text>
<text class="ticklabel ytl" transform="translate(128.8,262.0)">-2</text>
<text class="ticklabel ytl" transform="translate(128.8,128.7)">0 Mt</text>
<g stroke="#000" stroke-width="0.90" fill="#87AC55"  clip-path="url(#axis_clip)">
  <polygon class="pl" points="147.8,116.5 147.8,120.6 165.2,120.6 165.2,116.5 147.8,116.5"/>
  <polygon class="pl" points="169.5,116.5 169.5,120.6 186.9,120.6 186.9,116.5 169.5,116.5"/>
  <polygon class="pl" points="191.3,116.5 191.3,120.6 208.7,120.6 208.7,116.5 191.3,116.5"/>
  <polygon class="pl" points="213.1,116.5 213.1,120.6 230.5,120.6 230.5,116.5 213.1,116.5"/>
  <polygon class="pl" points="234.8,116.5 234.8,120.6 252.2,120.6 252.2,116.5 234.8,116.5"/>
  <polygon class="pl" points="256.6,116.5 256.6,120.6 274.0,120.6 274.0,116.5 256.6,116.5"/>
  <polygon class="pl" points="278.3,116.5 278.3,120.6 295.7,120.6 295.7,116.5 278.3,116.5"/>
  <polygon class="pl" points="300.1,116.5 300.1,120.6 317.5,120.6 317.5,116.5 300.1,116.5"/>
  <polygon class="pl" points="321.9,116.5 321.9,120.6 339.3,120.6 339.3,116.5 321.9,116.5"/>
  <polygon class="pl" points="343.6,116.5 343.6,120.6 361.0,120.6 361.0,116.5 343.6,116.5"/>
  <polygon class="pl" points="365.4,116.5 365.4,120.6 382.8,120.6 382.8,116.5 365.4,116.5"/>
  <polygon class="pl" points="387.1,116.5 387.1,120.6 404.5,120.6 404.5,116.5 387.1,116.5"/>
  <polygon class="pl" points="408.9,116.5 408.9,120.6 426.3,120.6 426.3,116.5 408.9,116.5"/>
  <polygon class="pl" points="430.7,116.5 430.7,120.6 448.1,120.6 448.1,116.5 430.7,116.5"/>
  <polygon class="pl" points="452.4,116.5 452.4,120.6 469.8,120.6 469.8,116.5 452.4,116.5"/>
  <polygon class="pl" points="474.2,116.5 474.2,120.6 491.6,120.6 491.6,116.5 474.2,116.5"/>
  <polygon class="pl" points="495.9,116.5 495.9,120.6 513.3,120.6 513.3,116.5 495.9,116.5"/>
  <polygon class="pl" points="517.7,116.5 517.7,120.6 535.1,120.6 535.1,116.5 517.7,116.5"/>
  <polygon class="pl" points="539.5,116.5 539.5,120.6 556.9,120.6 556.9,116.5 539.5,116.5"/>
  <polygon class="pl" points="561.2,116.5 561.2,120.6 578.6,120.6 578.6,116.5 561.2,116.5"/>
  <polygon class="pl" points="583.0,116.5 583.0,120.6 600.4,120.6 600.4,116.5 583.0,116.5"/>
  <polygon class="pl" points="604.7,116.5 604.7,120.6 622.1,120.6 622.1,116.5 604.7,116.5"/>
  <polygon class="pl" points="626.5,116.5 626.5,120.6 643.9,120.6 643.9,116.5 626.5,116.5"/>
  <polygon class="pl" points="648.3,116.5 648.3,120.6 665.7,120.6 665.7,116.5 648.3,116.5"/>
  <polygon class="pl" points="670.0,116.5 670.0,120.6 687.4,120.6 687.4,116.5 670.0,116.5"/>
  <polygon class="pl" points="691.8,116.5 691.8,120.6 709.2,120.6 709.2,116.5 691.8,116.5"/>
  <polygon class="pl" points="713.5,116.5 713.5,120.6 730.9,120.6 730.9,116.5 713.5,116.5"/>
  <polygon class="pl" points="735.3,116.5 735.3,120.6 752.7,120.6 752.7,116.5 735.3,116.5"/>
  <polygon class="pl" points="757.1,116.5 757.1,120.6 774.5,120.6 774.5,116.5 757.1,116.5"/>
  <polygon class="pl" points="778.8,116.5 778.8,120.6 796.2,120.6 796.2,116.5 778.8,116.5"/>
  <polygon class="pl" points="800.6,116.5 800.6,120.6 818.0,120.6 818.0,116.5 800.6,116.5"/>
  <polygon class="pl" points="822.3,116.5 822.3,120.6 839.7,120.6 839.7,116.5 822.3,116.5"/>
  <polygon class="pl" points="844.1,116.5 844.1,120.6 861.5,120.6 861.5,116.5 844.1,116.5"/>
  <polygon class="pl" points="865.9,116.5 865.9,120.6 883.3,120.6 883.3,116.5 865.9,116.5"/>
  <polygon class="pl" points="887.6,116.5 887.6,120.6 905.0,120.6 905.0,116.5 887.6,116.5"/>
</g>
<g stroke="#000" stroke-width="0.90" fill="#834B8E"  clip-path="url(#axis_clip)">
</g>
<g stroke="#000" stroke-width="0.90" fill="#D5AF54"  clip-path="url(#axis_clip)">
</g>
<g stroke="#000" stroke-width="0.90" fill="#D97B53"  clip-path="url(#axis_clip)">
</g>
<g stroke="#000" stroke-width="0.90" fill="#66BF7D"  clip-path="url(#axis_clip)">
</g>
<g stroke="#000" stroke-width="0.90" fill="#87AC55"  clip-path="url(#axis_clip)">
</g>
<g stroke="#000" stroke-width="0.90" fill="#834B8E"  clip-path="url(#axis_clip)">
  <polygon class="pl" points="147.8,352.9 147.8,347.7 165.2,347.7 165.2,352.9 147.8,352.9"/>
  <polygon class="pl" points="169.5,315.2 169.5,309.1 186.9,309.1 186.9,315.2 169.5,315.2"/>
  <polygon class="pl" points="191.3,357.1 191.3,350.1 208.7,350.1 208.7,357.1 191.3,357.1"/>
  <polygon class="pl" points="213.1,530.3 213.1,522.6 230.5,522.6 230.5,530.3 213.1,530.3"/>
  <polygon class="pl" points="234.8,558.3 234.8,550.1 252.2,550.1 252.2,558.3 234.8,558.3"/>
  <polygon class="pl" points="256.6,547.4 256.6,538.4 274.0,538.4 274.0,547.4 256.6,547.4"/>
  <polygon class="pl" points="278.3,282.7 278.3,272.8 295.7,272.8 295.7,282.7 278.3,282.7"/>
  <polygon class="pl" points="300.1,308.8 300.1,298.0 317.5,298.0 317.5,308.8 300.1,308.8"/>
  <polygon class="pl" points="321.9,375.5 321.9,363.9 339.3,363.9 339.3,375.5 321.9,375.5"/>
  <polygon class="pl" points="343.6,227.5 343.6,214.8 361.0,214.8 361.0,227.5 343.6,227.5"/>
  <polygon class="pl" points="365.4,165.3 365.4,151.5 382.8,151.5 382.8,165.3 365.4,165.3"/>
  <polygon class="pl" points="387.1,278.5 387.1,263.5 404.5,263.5 404.5,278.5 387.1,278.5"/>
  <polygon class="pl" points="408.9,231.5 408.9,214.9 426.3,214.9 426.3,231.5 408.9,231.5"/>
  <polygon class="pl" points="430.7,392.7 430.7,375.1 448.1,375.1 448.1,392.7 430.7,392.7"/>
  <polygon class="pl" points="452.4,329.2 452.4,310.6 469.8,310.6 469.8,329.2 452.4,329.2"/>
  <polygon class="pl" points="474.2,480.2 474.2,461.7 491.6,461.7 491.6,480.2 474.2,480.2"/>
  <polygon class="pl" points="495.9,328.9 495.9,309.9 513.3,309.9 513.3,328.9 495.9,328.9"/>
  <polygon class="pl" points="517.7,340.8 517.7,321.3 535.1,321.3 535.1,340.8 517.7,340.8"/>
  <polygon class="pl" points="539.5,446.3 539.5,426.9 556.9,426.9 556.9,446.3 539.5,446.3"/>
  <polygon class="pl" points="561.2,383.6 561.2,364.6 578.6,364.6 578.6,383.6 561.2,383.6"/>
  <polygon class="pl" points="583.0,375.7 583.0,357.0 600.4,357.0 600.4,375.7 583.0,375.7"/>
  <polygon class="pl" points="604.7,367.1 604.7,349.0 622.1,349.0 622.1,367.1 604.7,367.1"/>
  <polygon class="pl" points="626.5,426.0 626.5,408.4 643.9,408.4 643.9,426.0 626.5,426.0"/>
  <polygon class="pl" points="648.3,376.9 648.3,359.8 665.7,359.8 665.7,376.9 648.3,376.9"/>
  <polygon class="pl" points="670.0,445.6 670.0,428.7 687.4,428.7 687.4,445.6 670.0,445.6"/>
  <polygon class="pl" points="691.8,506.6 691.8,490.4 709.2,490.4 709.2,506.6 691.8,506.6"/>
  <polygon class="pl" points="713.5,446.9 713.5,431.5 730.9,431.5 730.9,446.9 713.5,446.9"/>
  <polygon class="pl" points="735.3,485.4 735.3,470.8 752.7,470.8 752.7,485.4 735.3,485.4"/>
  <polygon class="pl" points="757.1,429.2 757.1,415.4 774.5,415.4 774.5,429.2 757.1,429.2"/>
  <polygon class="pl" points="778.8,472.1 778.8,459.2 796.2,459.2 796.2,472.1 778.8,472.1"/>
  <polygon class="pl" points="800.6,575.9 800.6,563.8 818.0,563.8 818.0,575.9 800.6,575.9"/>
  <polygon class="pl" points="822.3,569.5 822.3,558.3 839.7,558.3 839.7,569.5 822.3,569.5"/>
  <polygon class="pl" points="844.1,437.5 844.1,427.2 861.5,427.2 861.5,437.5 844.1,437.5"/>
  <polygon class="pl" points="865.9,481.4 865.9,472.0 883.3,472.0 883.3,481.4 865.9,481.4"/>
  <polygon class="pl" points="887.6,550.7 887.6,542.1 905.0,542.1 905.0,550.7 887.6,550.7"/>
</g>
<g stroke="#000" stroke-width="0.90" fill="#D5AF54"  clip-path="url(#axis_clip)">
  <polygon class="pl" points="147.8,347.7 147.8,342.9 165.2,342.9 165.2,347.7 147.8,347.7"/>
  <polygon class="pl" points="169.5,309.1 169.5,303.6 186.9,303.6 186.9,309.1 169.5,309.1"/>
  <polygon class="pl" points="191.3,350.1 191.3,343.9 208.7,343.9 208.7,350.1 191.3,350.1"/>
  <polygon class="pl" points="213.1,522.6 213.1,516.0 230.5,516.0 230.5,522.6 213.1,522.6"/>
  <polygon class="pl" points="234.8,550.1 234.8,543.2 252.2,543.2 252.2,550.1 234.8,550.1"/>
  <polygon class="pl" points="256.6,538.4 256.6,531.1 274.0,531.1 274.0,538.4 256.6,538.4"/>
  <polygon class="pl" points="278.3,272.8 278.3,264.9 295.7,264.9 295.7,272.8 278.3,272.8"/>
  <polygon class="pl" points="300.1,298.0 300.1,289.2 317.5,289.2 317.5,298.0 300.1,298.0"/>
  <polygon class="pl" points="321.9,363.9 321.9,354.3 339.3,354.3 339.3,363.9 321.9,363.9"/>
  <polygon class="pl" points="343.6,214.8 343.6,204.3 361.0,204.3 361.0,214.8 343.6,214.8"/>
  <polygon class="pl" points="365.4,151.5 365.4,140.0 382.8,140.0 382.8,151.5 365.4,151.5"/>
  <polygon class="pl" points="387.1,263.5 387.1,250.7 404.5,250.7 404.5,263.5 387.1,263.5"/>
  <polygon class="pl" points="408.9,214.9 408.9,200.6 426.3,200.6 426.3,214.9 408.9,214.9"/>
  <polygon class="pl" points="430.7,375.1 430.7,359.5 448.1,359.5 448.1,375.1 430.7,375.1"/>
  <polygon class="pl" points="452.4,310.6 452.4,294.3 469.8,294.3 469.8,310.6 452.4,310.6"/>
  <polygon class="pl" points="474.2,461.7 474.2,445.4 491.6,445.4 491.6,461.7 474.2,461.7"/>
  <polygon class="pl" points="495.9,309.9 495.9,293.0 513.3,293.0 513.3,309.9 495.9,309.9"/>
  <polygon class="pl" points="517.7,321.3 517.7,303.4 535.1,303.4 535.1,321.3 517.7,321.3"/>
  <polygon class="pl" points="539.5,426.9 539.5,409.1 556.9,409.1 556.9,426.9 539.5,426.9"/>
  <polygon class="pl" points="561.2,364.6 561.2,347.2 578.6,347.2 578.6,364.6 561.2,364.6"/>
  <polygon class="pl" points="583.0,357.0 583.0,339.6 600.4,339.6 600.4,357.0 583.0,357.0"/>
  <polygon class="pl" points="604.7,349.0 604.7,332.1 622.1,332.1 622.1,349.0 604.7,349.0"/>
  <polygon class="pl" points="626.5,408.4 626.5,392.2 643.9,392.2 643.9,408.4 626.5,408.4"/>
  <polygon class="pl" points="648.3,359.8 648.3,343.7 665.7,343.7 665.7,359.8 648.3,359.8"/>
  <polygon class="pl" points="670.0,428.7 670.0,412.8 687.4,412.8 687.4,428.7 670.0,428.7"/>
  <polygon class="pl" points="691.8,490.4 691.8,474.9 709.2,474.9 709.2,490.4 691.8,490.4"/>
  <polygon class="pl" points="713.5,431.5 713.5,416.7 730.9,416.7 730.9,431.5 713.5,431.5"/>
  <polygon class="pl" points="735.3,470.8 735.3,456.7 752.7,456.7 752.7,470.8 735.3,470.8"/>
  <polygon class="pl" points="757.1,415.4 757.1,401.9 774.5,401.9 774.5,415.4 757.1,415.4"/>
  <polygon class="pl" points="778.8,459.2 778.8,446.4 796.2,446.4 796.2,459.2 778.8,459.2"/>
  <polygon class="pl" points="800.6,563.8 800.6,551.6 818.0,551.6 818.0,563.8 800.6,563.8"/>
  <polygon class="pl" points="822.3,558.3 822.3,546.6 839.7,546.6 839.7,558.3 822.3,558.3"/>
  <polygon class="pl" points="844.1,427.2 844.1,416.0 861.5,416.0 861.5,427.2 844.1,427.2"/>
  <polygon class="pl" points="865.9,472.0 865.9,461.6 883.3,461.6 883.3,472.0 865.9,472.0"/>
  <polygon class="pl" points="887.6,542.1 887.6,532.1 905.0,532.1 905.0,542.1 887.6,542.1"/>
</g>
<g stroke="#000" stroke-width="0.90" fill="#D97B53"  clip-path="url(#axis_clip)">
  <polygon class="pl" points="147.8,342.9 147.8,331.2 165.2,331.2 165.2,342.9 147.8,342.9"/>
  <polygon class="pl" points="169.5,303.6 169.5,288.0 186.9,288.0 186.9,303.6 169.5,303.6"/>
  <polygon class="pl" points="191.3,343.9 191.3,326.8 208.7,326.8 208.7,343.9 191.3,343.9"/>
  <polygon class="pl" points="213.1,516.0 213.1,497.1 230.5,497.1 230.5,516.0 213.1,516.0"/>
  <polygon class="pl" points="234.8,543.2 234.8,524.3 252.2,524.3 252.2,543.2 234.8,543.2"/>
  <polygon class="pl" points="256.6,531.1 256.6,509.2 274.0,509.2 274.0,531.1 256.6,531.1"/>
  <polygon class="pl" points="278.3,264.9 278.3,247.0 295.7,247.0 295.7,264.9 278.3,264.9"/>
  <polygon class="pl" points="300.1,289.2 300.1,270.7 317.5,270.7 317.5,289.2 300.1,289.2"/>
  <polygon class="pl" points="321.9,354.3 321.9,337.4 339.3,337.4 339.3,354.3 321.9,354.3"/>
  <polygon class="pl" points="343.6,204.3 343.6,188.1 361.0,188.1 361.0,204.3 343.6,204.3"/>
  <polygon class="pl" points="365.4,140.0 365.4,127.1 382.8,127.1 382.8,140.0 365.4,140.0"/>
  <polygon class="pl" points="387.1,250.7 387.1,234.3 404.5,234.3 404.5,250.7 387.1,250.7"/>
  <polygon class="pl" points="408.9,200.6 408.9,185.7 426.3,185.7 426.3,200.6 408.9,200.6"/>
  <polygon class="pl" points="430.7,359.5 430.7,344.8 448.1,344.8 448.1,359.5 430.7,359.5"/>
  <polygon class="pl" points="452.4,294.3 452.4,279.3 469.8,279.3 469.8,294.3 452.4,294.3"/>
  <polygon class="pl" points="474.2,445.4 474.2,430.6 491.6,430.6 491.6,445.4 474.2,445.4"/>
  <polygon class="pl" points="495.9,293.0 495.9,275.9 513.3,275.9 513.3,293.0 495.9,293.0"/>
  <polygon class="pl" points="517.7,303.4 517.7,286.9 535.1,286.9 535.1,303.4 517.7,303.4"/>
  <polygon class="pl" points="539.5,409.1 539.5,391.9 556.9,391.9 556.9,409.1 539.5,409.1"/>
  <polygon class="pl" points="561.2,347.2 561.2,330.6 578.6,330.6 578.6,347.2 561.2,347.2"/>
  <polygon class="pl" points="583.0,339.6 583.0,323.5 600.4,323.5 600.4,339.6 583.0,339.6"/>
  <polygon class="pl" points="604.7,332.1 604.7,316.1 622.1,316.1 622.1,332.1 604.7,332.1"/>
  <polygon class="pl" points="626.5,392.2 626.5,374.6 643.9,374.6 643.9,392.2 626.5,392.2"/>
  <polygon class="pl" points="648.3,343.7 648.3,327.6 665.7,327.6 665.7,343.7 648.3,343.7"/>
  <polygon class="pl" points="670.0,412.8 670.0,396.2 687.4,396.2 687.4,412.8 670.0,412.8"/>
  <polygon class="pl" points="691.8,474.9 691.8,454.7 709.2,454.7 709.2,474.9 691.8,474.9"/>
  <polygon class="pl" points="713.5,416.7 713.5,401.6 730.9,401.6 730.9,416.7 713.5,416.7"/>
  <polygon class="pl" points="735.3,456.7 735.3,439.8 752.7,439.8 752.7,456.7 735.3,456.7"/>
  <polygon class="pl" points="757.1,401.9 757.1,389.5 774.5,389.5 774.5,401.9 757.1,401.9"/>
  <polygon class="pl" points="778.8,446.4 778.8,432.4 796.2,432.4 796.2,446.4 778.8,446.4"/>
  <polygon class="pl" points="800.6,551.6 800.6,536.4 818.0,536.4 818.0,551.6 800.6,551.6"/>
  <polygon class="pl" points="822.3,546.6 822.3,531.7 839.7,531.7 839.7,546.6 822.3,546.6"/>
  <polygon class="pl" points="844.1,416.0 844.1,402.5 861.5,402.5 861.5,416.0 844.1,416.0"/>
  <polygon class="pl" points="865.9,461.6 865.9,448.4 883.3,448.4 883.3,461.6 865.9,461.6"/>
  <polygon class="pl" points="887.6,532.1 887.6,515.1 905.0,515.1 905.0,532.1 887.6,532.1"/>
</g>
<g stroke="#000" stroke-width="0.90" fill="#66BF7D"  clip-path="url(#axis_clip)">
  <polygon class="pl" points="147.8,331.2 147.8,120.6 165.2,120.6 165.2,331.2 147.8,331.2"/>
  <polygon class="pl" points="169.5,288.0 169.5,120.6 186.9,120.6 186.9,288.0 169.5,288.0"/>
  <polygon class="pl" points="191.3,326.8 191.3,120.6 208.7,120.6 208.7,326.8 191.3,326.8"/>
  <polygon class="pl" points="213.1,497.1 213.1,120.6 230.5,120.6 230.5,497.1 213.1,497.1"/>
  <polygon class="pl" points="234.8,524.3 234.8,120.6 252.2,120.6 252.2,524.3 234.8,524.3"/>
  <polygon class="pl" points="256.6,509.2 256.6,120.6 274.0,120.6 274.0,509.2 256.6,509.2"/>
  <polygon class="pl" points="278.3,247.0 278.3,120.6 295.7,120.6 295.7,247.0 278.3,247.0"/>
  <polygon class="pl" points="300.1,270.7 300.1,120.6 317.5,120.6 317.5,270.7 300.1,270.7"/>
  <polygon class="pl" points="321.9,337.4 321.9,120.6 339.3,120.6 339.3,337.4 321.9,337.4"/>
  <polygon class="pl" points="343.6,188.1 343.6,120.6 361.0,120.6 361.0,188.1 343.6,188.1"/>
  <polygon class="pl" points="365.4,127.1 365.4,120.6 382.8,120.6 382.8,127.1 365.4,127.1"/>
  <polygon class="pl" points="387.1,234.3 387.1,120.6 404.5,120.6 404.5,234.3 387.1,234.3"/>
  <polygon class="pl" points="408.9,185.7 408.9,120.6 426.3,120.6 426.3,185.7 408.9,185.7"/>
  <polygon class="pl" points="430.7,344.8 430.7,120.6 448.1,120.6 448.1,344.8 430.7,344.8"/>
  <polygon class="pl" points="452.4,279.3 452.4,120.6 469.8,120.6 469.8,279.3 452.4,279.3"/>
  <polygon class="pl" points="474.2,430.6 474.2,120.6 491.6,120.6 491.6,430.6 474.2,430.6"/>
  <polygon class="pl" points="495.9,275.9 495.9,120.6 513.3,120.6 513.3,275.9 495.9,275.9"/>
  <polygon class="pl" points="517.7,286.9 517.7,120.6 535.1,120.6 535.1,286.9 517.7,286.9"/>
  <polygon class="pl" points="539.5,391.9 539.5,120.6 556.9,120.6 556.9,391.9 539.5,391.9"/>
  <polygon class="pl" points="561.2,330.6 561.2,120.6 578.6,120.6 578.6,330.6 561.2,330.6"/>
  <polygon class="pl" points="583.0,323.5 583.0,120.6 600.4,120.6 600.4,323.5 583.0,323.5"/>
  <polygon class="pl" points="604.7,316.1 604.7,120.6 622.1,120.6 622.1,316.1 604.7,316.1"/>
  <polygon class="pl" points="626.5,374.6 626.5,120.6 643.9,120.6 643.9,374.6 626.5,374.6"/>
  <polygon class="pl" points="648.3,327.6 648.3,120.6 665.7,120.6 665.7,327.6 648.3,327.6"/>
  <polygon class="pl" points="670.0,396.2 670.0,120.6 687.4,120.6 687.4,396.2 670.0,396.2"/>
  <polygon class="pl" points="691.8,454.7 691.8,120.6 709.2,120.6 709.2,454.7 691.8,454.7"/>
  <polygon class="pl" points="713.5,401.6 713.5,120.6 730.9,120.6 730.9,401.6 713.5,401.6"/>
  <polygon class="pl" points="735.3,439.8 735.3,120.6 752.7,120.6 752.7,439.8 735.3,439.8"/>
  <polygon class="pl" points="757.1,389.5 757.1,120.6 774.5,120.6 774.5,389.5 757.1,389.5"/>
  <polygon class="pl" points="778.8,432.4 778.8,120.6 796.2,120.6 796.2,432.4 778.8,432.4"/>
  <polygon class="pl" points="800.6,536.4 800.6,120.6 818.0,120.6 818.0,536.4 800.6,536.4"/>
  <polygon class="pl" points="822.3,531.7 822.3,120.6 839.7,120.6 839.7,531.7 822.3,531.7"/>
  <polygon class="pl" points="844.1,402.5 844.1,120.6 861.5,120.6 861.5,402.5 844.1,402.5"/>
  <polygon class="pl" points="865.9,448.4 865.9,120.6 883.3,120.6 883.3,448.4 865.9,448.4"/>
  <polygon class="pl" points="887.6,515.1 887.6,120.6 905.0,120.6 905.0,515.1 887.6,515.1"/>
</g>
<text transform="translate(145.6,47.2)" dy="0.0" font-size="27.00" fill="#808080" stroke="none">Emissions and removals on forest land: Hungary</text>
<text transform="translate(130.0,148.3)" dy="8.1" font-size="27.00" fill="#808080" stroke="none" text-anchor="end">CO<tspan dy="0.2em"><tspan style="font-size:70%">2</tspan></tspan><tspan dy="-0.2em"></tspan></text>
<polyline class="pl" points="156.5,348.9 178.2,311.2 200.0,353.2 221.8,526.5 243.5,554.6 265.3,543.7 287.0,278.7 308.8,304.8 330.6,371.6 352.3,223.5 374.1,161.2 395.8,274.5 417.6,227.5 439.4,388.8 461.1,325.2 482.9,476.3 504.6,324.9 526.4,336.8 548.2,442.4 569.9,379.7 591.7,371.7 613.4,363.2 635.2,422.1 657.0,373.0 678.7,441.7 700.5,502.8 722.2,443.0 744.0,481.5 765.8,425.4 787.5,468.2 809.3,572.1 831.0,565.7 852.8,433.6 874.6,477.6 896.3,547.0" stroke="#000" stroke-width="5.40" fill="none" clip-path="url(#axis_clip)"/>
<g class="pl" fill="#FFF" stroke="#000" stroke-width="0.900">
  <circle cx="178.2" cy="311.2" r="2.2" />
  <circle cx="200.0" cy="353.2" r="2.2" />
  <circle cx="221.8" cy="526.5" r="2.2" />
  <circle cx="243.5" cy="554.6" r="2.2" />
  <circle cx="265.3" cy="543.7" r="2.2" />
  <circle cx="287.0" cy="278.7" r="2.2" />
  <circle cx="308.8" cy="304.8" r="2.2" />
  <circle cx="330.6" cy="371.6" r="2.2" />
  <circle cx="352.3" cy="223.5" r="2.2" />
  <circle cx="395.8" cy="274.5" r="2.2" />
  <circle cx="417.6" cy="227.5" r="2.2" />
  <circle cx="439.4" cy="388.8" r="2.2" />
  <circle cx="461.1" cy="325.2" r="2.2" />
  <circle cx="482.9" cy="476.3" r="2.2" />
  <circle cx="504.6" cy="324.9" r="2.2" />
  <circle cx="526.4" cy="336.8" r="2.2" />
  <circle cx="548.2" cy="442.4" r="2.2" />
  <circle cx="569.9" cy="379.7" r="2.2" />
  <circle cx="613.4" cy="363.2" r="2.2" />
  <circle cx="635.2" cy="422.1" r="2.2" />
  <circle cx="657.0" cy="373.0" r="2.2" />
  <circle cx="678.7" cy="441.7" r="2.2" />
  <circle cx="700.5" cy="502.8" r="2.2" />
  <circle cx="722.2" cy="443.0" r="2.2" />
  <circle cx="744.0" cy="481.5" r="2.2" />
  <circle cx="765.8" cy="425.4" r="2.2" />
  <circle cx="787.5" cy="468.2" r="2.2" />
  <circle cx="831.0" cy="565.7" r="2.2" />
  <circle cx="852.8" cy="433.6" r="2.2" />
  <circle cx="874.6" cy="477.6" r="2.2" />
  <circle cx="896.3" cy="547.0" r="2.2" />
</g>
<g class="pl" fill="#FFF" stroke="#000" stroke-width="0.900">
  <circle cx="156.5" cy="348.9" r="5.4" />
  <circle cx="374.1" cy="161.2" r="5.4" />
  <circle cx="591.7" cy="371.7" r="5.4" />
  <circle cx="809.3" cy="572.1" r="5.4" />
</g>
<text transform="translate(945.6,569.6)" dy="6.5" font-size="21.60" fill="#000" stroke="none">Total (net)</text>
<text transform="translate(945.6,118.6)" dy="6.5" font-size="21.60" fill="#87AC55" stroke="none">Organic Soils (net)</text>
<text transform="translate(945.6,317.9)" dy="6.5" font-size="21.60" fill="#66BF7D" stroke="none">Living biomass (net)</text>
<text transform="translate(945.6,507.4)" dy="6.5" font-size="21.60" fill="#D97B53" stroke="none">Dead wood (net)</text>
<text transform="translate(945.6,528.1)" dy="6.5" font-size="21.60" fill="#D5AF54" stroke="none">Litter (net)</text>
<text transform="translate(945.6,548.9)" dy="6.5" font-size="21.60" fill="#834B8E" stroke="none">Mineral Soils (net)</text>
<polyline class="pl" points="910.8,547.0 912.4,547.0 913.8,547.3 915.2,547.6 916.4,548.1 917.6,548.7 918.8,549.5 919.8,550.3 920.8,551.2 921.7,552.1 922.7,553.2 923.5,554.3 924.4,555.4 925.2,556.5 926.0,557.7 926.8,558.9 927.6,560.0 928.4,561.2 929.3,562.3 930.1,563.4 931.1,564.4 932.0,565.4 933.0,566.3 934.0,567.1 935.2,567.8 936.4,568.4 937.6,568.9 939.0,569.3 940.4,569.5 942.0,569.6" stroke="#000" stroke-width="0.90" stroke-opacity="1.00" fill="none" />
<polyline class="pl" points="910.8,523.6 912.4,523.5 913.8,523.4 915.2,523.1 916.4,522.8 917.6,522.3 918.8,521.8 919.8,521.2 920.8,520.6 921.7,519.9 922.7,519.1 923.5,518.4 924.4,517.6 925.2,516.8 926.0,515.9 926.8,515.1 927.6,514.3 928.4,513.4 929.3,512.6 930.1,511.9 931.1,511.1 932.0,510.4 933.0,509.8 934.0,509.2 935.2,508.7 936.4,508.3 937.6,507.9 939.0,507.6 940.4,507.5 942.0,507.4" stroke="#D97B53" stroke-width="0.90" stroke-opacity="1.00" fill="none" />
<polyline class="pl" points="910.8,537.1 912.4,537.1 913.8,537.0 915.2,536.8 916.4,536.6 917.6,536.4 918.8,536.1 919.8,535.8 920.8,535.4 921.7,535.0 922.7,534.6 923.5,534.2 924.4,533.8 925.2,533.3 926.0,532.8 926.8,532.4 927.6,531.9 928.4,531.5 929.3,531.0 930.1,530.6 931.1,530.2 932.0,529.8 933.0,529.5 934.0,529.1 935.2,528.9 936.4,528.6 937.6,528.4 939.0,528.3 940.4,528.2 942.0,528.1" stroke="#D5AF54" stroke-width="0.90" stroke-opacity="1.00" fill="none" />
<polyline class="pl" points="910.8,546.4 912.4,546.4 913.8,546.4 915.2,546.5 916.4,546.5 917.6,546.6 918.8,546.7 919.8,546.8 920.8,546.9 921.7,547.0 922.7,547.1 923.5,547.2 924.4,547.3 925.2,547.5 926.0,547.6 926.8,547.7 927.6,547.8 928.4,548.0 929.3,548.1 930.1,548.2 931.1,548.3 932.0,548.4 933.0,548.5 934.0,548.6 935.2,548.7 936.4,548.7 937.6,548.8 939.0,548.8 940.4,548.9 942.0,548.9" stroke="#834B8E" stroke-width="0.90" stroke-opacity="1.00" fill="none" />
<text transform="translate(160.0,666.1)" font-size="19.80" font-family="Helvetica" fill="#BFBFBF" stroke="none" xml:space="preserve">CICERO   &#9679;   Data: UNFCCC (2026)</text>
<g>
  <rect x="123.0" y="651.4" width="34" height="17" fill="#FFF" stroke="none" opacity="0.01"/>
  <g transform="translate(124.0,652.4) scale(0.24)">
  <g><circle fill="#FFF" cx="37.79" cy="28.5" r="28.84"/>
     <circle fill="none" cx="37.79" cy="28.5" r="28.84" stroke="#BFBFBF" stroke-width="5.5"/>
     <path fill="#BFBFBF" d="M37.16,23.19 l-4.29,2.23c-0.458-0.951-1.02-1.62-1.69-2c-0.667-0.38-1.29-0.571-1.86-0.571c-2.86,0-4.29,1.89-4.29,5.66 c0,1.71,0.36,3.08,1.09,4.11c0.724,1.03,1.79,1.54,3.2,1.54c1.87,0,3.18-0.915,3.94-2.74l3.94,2 c-0.838,1.56-2,2.79-3.49,3.69c-1.48,0.896-3.12,1.34-4.91,1.34c-2.86,0-5.16-0.875-6.92-2.63 c-1.75-1.75-2.63-4.19-2.63-7.31c0-3.05,0.886-5.47,2.66-7.26c1.77-1.79,4.01-2.69,6.72-2.69 C32.6,18.56,35.44,20.1,37.16,23.19z
              M55.61,23.19l-4.23,2.23c-0.457-0.951-1.02-1.62-1.69-2 c-0.668-0.38-1.31-0.571-1.91-0.571c-2.86,0-4.29,1.89-4.29,5.66c0,1.71,0.363,3.08,1.09,4.11 c0.723,1.03,1.79,1.54,3.2,1.54c1.87,0,3.18-0.915,3.94-2.74l4,2c-0.875,1.56-2.06,2.79-3.54,3.69 c-1.49,0.9-3.11,1.34-4.86,1.34c-2.9,0-5.21-0.875-6.94-2.63c-1.74-1.75-2.6-4.19-2.6-7.31 c0-3.05,0.885-5.47,2.66-7.26c1.77-1.79,4.01-2.69,6.71-2.69C51.12,18.56,53.944,20.1,55.61,23.19z"/>
  </g></g>
  <g transform="translate(140.2,652.4) scale(0.24)">
  <g><circle fill="#FFF" cx="37.79" cy="28.5" r="28.84"/>
     <circle fill="none" cx="37.79" cy="28.5" r="28.84" stroke="#BFBFBF" stroke-width="5.5"/>
     <path fill="#BFBFBF" d="M46.129,20.557v13.085h-3.656v15.542h-9.944V33.643h-3.656V20.557 c0-0.572,0.2-1.057,0.599-1.457c0.401-0.399,0.887-0.6,1.457-0.6h13.144c0.533,0,1.01,0.2,1.428,0.6 C45.918,19.5,46.129,19.986,46.129,20.557z
              M33.042,12.329c0-3.008,1.485-4.514,4.458-4.514s4.457,1.504,4.457,4.514 c0,2.971-1.486,4.457-4.457,4.457S33.042,15.3,33.042,12.329z"/>
  </g></g>
</g>
</g>
</svg>
