<svg version="1.1" xmlns="http://www.w3.org/2000/svg" xmlns:xlink="http://www.w3.org/1999/xlink" width="100%" height="100%" viewBox="0 0 1200.000 674.916">
<title>Annual N2O Emissions: Hungary</title>
<style type="text/css">
  #main {font-family:Helvetica,Arial,sans-serif; font-size:27.00px;
         fill-opacity:1; fill:#000000; stroke:none; stroke-linejoin:round; stroke-linecap:round; stroke-width:1.00;}
  .marker {stroke-opacity:0;fill-opacity:0;}
  .marker:hover {stroke-opacity:0.5; fill-opacity:1;}
  .ticklabel {font-size:27.00px;fill:#808080;stroke:none;font-family:Helvetica}
  .ytl {text-anchor:end;}
  .dp1 {pointer-events:none;font-size:70%;text-anchor:middle;fill:#000000;}
  .dp2 {pointer-events:none;font-size:70%;text-anchor:middle;fill:#FFFFFF;}
  .numtip {pointer-events:none;}
  .cc {opacity:0.25;}
.dl_fe {background-color:#FDFFDF;display:flex;margin:auto;align-items:center}
.dl_fe_p {font-size:20px;text-align:center;margin:3px}
.dl_el {display:none;pointer-events:none;}
.cc:hover + .dl_el {display:block;}
text:hover + .dl_el {display:block;}
</style>
<defs>
  <clipPath id="axis_clip"><rect x="145.8" y="54.2" width="761.2" height="532.8" /></clipPath>
  <path id="line_y" d="M 0,53.993 v 533.183" stroke="#262626" stroke-opacity="0.15" stroke-width="1.00"/>
  <path id="line_x" d="M 145.600,0 h 761.600" stroke="#262626" stroke-opacity="0.15" stroke-width="1.00"/>
  <path id="tick_y" d="M 145.600,0 h -6.000" stroke="#808080" stroke-width="0.90"/>
  <path id="tick_x" d="M 0,587.177 v 6.000" stroke="#808080" stroke-width="0.90"/>
</defs>
<g id="main">
<use xlink:href="#line_y" transform="translate(157.1,0)"/>
<use xlink:href="#line_y" transform="translate(272.5,0)"/>
<use xlink:href="#line_y" transform="translate(387.9,0)"/>
<use xlink:href="#line_y" transform="translate(503.3,0)"/>
<use xlink:href="#line_y" transform="translate(618.7,0)"/>
<use xlink:href="#line_y" transform="translate(734.1,0)"/>
<use xlink:href="#line_y" transform="translate(895.7,0)"/>
<use xlink:href="#line_x" transform="translate(0,587.2)"/>
<use xlink:href="#line_x" transform="translate(0,498.3)"/>
<use xlink:href="#line_x" transform="translate(0,409.4)"/>
<use xlink:href="#line_x" transform="translate(0,320.6)"/>
<use xlink:href="#line_x" transform="translate(0,231.7)"/>
<use xlink:href="#line_x" transform="translate(0,142.9)"/>
<use xlink:href="#line_x" transform="translate(0,54.0)"/>
<use xlink:href="#tick_y" transform="translate(0,587.2)"/>
<use xlink:href="#tick_y" transform="translate(0,498.3)"/>
<use xlink:href="#tick_y" transform="translate(0,409.4)"/>
<use xlink:href="#tick_y" transform="translate(0,320.6)"/>
<use xlink:href="#tick_y" transform="translate(0,231.7)"/>
<use xlink:href="#tick_y" transform="translate(0,142.9)"/>
<use xlink:href="#tick_y" transform="translate(0,54.0)"/>
<use xlink:href="#tick_x" transform="translate(157.1,0)"/>
<use xlink:href="#tick_x" transform="translate(272.5,0)"/>
<use xlink:href="#tick_x" transform="translate(387.9,0)"/>
<use xlink:href="#tick_x" transform="translate(503.3,0)"/>
<use xlink:href="#tick_x" transform="translate(618.7,0)"/>
<use xlink:href="#tick_x" transform="translate(734.1,0)"/>
<use xlink:href="#tick_x" transform="translate(895.7,0)"/>
<polyline points="145.6,53.993 145.6,587.177 907.2,587.177" stroke="#808080" stroke-width="0.90" fill="none"/>
<text class="ticklabel xtl" transform="translate(157.1,629.0)" text-anchor="middle">1990</text>
<text class="ticklabel xtl" transform="translate(272.5,629.0)" text-anchor="middle">1995</text>
<text class="ticklabel xtl" transform="translate(387.9,629.0)" text-anchor="middle">2000</text>
<text class="ticklabel xtl" transform="translate(503.3,629.0)" text-anchor="middle">2005</text>
<text class="ticklabel xtl" transform="translate(618.7,629.0)" text-anchor="middle">2010</text>
<text class="ticklabel xtl" transform="translate(734.1,629.0)" text-anchor="middle">2015</text>
<text class="ticklabel xtl" transform="translate(895.7,629.0)" text-anchor="middle">2022</text>
<text class="ticklabel ytl" transform="translate(128.8,595.3)">0</text>
<text class="ticklabel ytl" transform="translate(128.8,506.4)">5</text>
<text class="ticklabel ytl" transform="translate(128.8,417.5)">10</text>
<text class="ticklabel ytl" transform="translate(128.8,328.7)">15</text>
<text class="ticklabel ytl" transform="translate(128.8,239.8)">20</text>
<text class="ticklabel ytl" transform="translate(128.8,151.0)">25</text>
<text class="ticklabel ytl" transform="translate(128.8,62.1)">30 kt</text>
<g stroke="#000" stroke-width="0.90" fill="#7FBF7F"  clip-path="url(#axis_clip)">
  <polygon points="147.9,87.4 147.9,88.9 166.4,88.9 166.4,87.4 147.9,87.4"/>
  <polygon points="171.0,247.8 171.0,249.3 189.4,249.3 189.4,247.8 171.0,247.8"/>
  <polygon points="194.1,322.1 194.1,323.6 212.5,323.6 212.5,322.1 194.1,322.1"/>
  <polygon points="217.1,311.1 217.1,312.6 235.6,312.6 235.6,311.1 217.1,311.1"/>
  <polygon points="240.2,254.2 240.2,255.6 258.7,255.6 258.7,254.2 240.2,254.2"/>
  <polygon points="263.3,304.1 263.3,305.6 281.8,305.6 281.8,304.1 263.3,304.1"/>
  <polygon points="286.4,269.3 286.4,270.8 304.8,270.8 304.8,269.3 286.4,269.3"/>
  <polygon points="309.5,269.5 309.5,271.1 327.9,271.1 327.9,269.5 309.5,269.5"/>
  <polygon points="332.5,274.3 332.5,276.1 351.0,276.1 351.0,274.3 332.5,274.3"/>
  <polygon points="355.6,285.2 355.6,286.6 374.1,286.6 374.1,285.2 355.6,285.2"/>
  <polygon points="378.7,264.0 378.7,266.0 397.2,266.0 397.2,264.0 378.7,264.0"/>
  <polygon points="401.8,237.8 401.8,239.4 420.2,239.4 420.2,237.8 401.8,237.8"/>
  <polygon points="424.9,278.5 424.9,280.3 443.3,280.3 443.3,278.5 424.9,278.5"/>
  <polygon points="447.9,283.1 447.9,284.8 466.4,284.8 466.4,283.1 447.9,283.1"/>
  <polygon points="471.0,236.3 471.0,237.8 489.5,237.8 489.5,236.3 471.0,236.3"/>
  <polygon points="494.1,252.1 494.1,254.1 512.6,254.1 512.6,252.1 494.1,252.1"/>
  <polygon points="517.2,269.1 517.2,270.3 535.6,270.3 535.6,269.1 517.2,269.1"/>
  <polygon points="540.2,300.6 540.2,302.4 558.7,302.4 558.7,300.6 540.2,300.6"/>
  <polygon points="563.3,343.3 563.3,344.8 581.8,344.8 581.8,343.3 563.3,343.3"/>
  <polygon points="586.4,360.5 586.4,362.3 604.9,362.3 604.9,360.5 586.4,360.5"/>
  <polygon points="609.5,365.3 609.5,366.6 627.9,366.6 627.9,365.3 609.5,365.3"/>
  <polygon points="632.6,353.2 632.6,355.2 651.0,355.2 651.0,353.2 632.6,353.2"/>
  <polygon points="655.6,356.2 655.6,359.1 674.1,359.1 674.1,356.2 655.6,356.2"/>
  <polygon points="678.7,337.0 678.7,338.4 697.2,338.4 697.2,337.0 678.7,337.0"/>
  <polygon points="701.8,323.1 701.8,324.9 720.3,324.9 720.3,323.1 701.8,323.1"/>
  <polygon points="724.9,316.7 724.9,318.6 743.3,318.6 743.3,316.7 724.9,316.7"/>
  <polygon points="748.0,301.4 748.0,302.8 766.4,302.8 766.4,301.4 748.0,301.4"/>
  <polygon points="771.0,300.5 771.0,302.5 789.5,302.5 789.5,300.5 771.0,300.5"/>
  <polygon points="794.1,297.1 794.1,298.6 812.6,298.6 812.6,297.1 794.1,297.1"/>
  <polygon points="817.2,297.1 817.2,299.0 835.7,299.0 835.7,297.1 817.2,297.1"/>
  <polygon points="840.3,287.3 840.3,289.0 858.7,289.0 858.7,287.3 840.3,287.3"/>
  <polygon points="863.4,285.4 863.4,287.1 881.8,287.1 881.8,285.4 863.4,285.4"/>
  <polygon points="886.4,337.2 886.4,341.2 904.9,341.2 904.9,337.2 886.4,337.2"/>
</g>
<g stroke="#000" stroke-width="0.90" fill="#DBA746"  clip-path="url(#axis_clip)">
  <polygon points="147.9,88.9 147.9,98.0 166.4,98.0 166.4,88.9 147.9,88.9"/>
  <polygon points="171.0,249.3 171.0,258.1 189.4,258.1 189.4,249.3 171.0,249.3"/>
  <polygon points="194.1,323.6 194.1,332.4 212.5,332.4 212.5,323.6 194.1,323.6"/>
  <polygon points="217.1,312.6 217.1,320.8 235.6,320.8 235.6,312.6 217.1,312.6"/>
  <polygon points="240.2,255.6 240.2,263.6 258.7,263.6 258.7,255.6 240.2,255.6"/>
  <polygon points="263.3,305.6 263.3,313.3 281.8,313.3 281.8,305.6 263.3,305.6"/>
  <polygon points="286.4,270.8 286.4,278.4 304.8,278.4 304.8,270.8 286.4,270.8"/>
  <polygon points="309.5,271.1 309.5,278.9 327.9,278.9 327.9,271.1 309.5,271.1"/>
  <polygon points="332.5,276.1 332.5,283.7 351.0,283.7 351.0,276.1 332.5,276.1"/>
  <polygon points="355.6,286.6 355.6,294.5 374.1,294.5 374.1,286.6 355.6,286.6"/>
  <polygon points="378.7,266.0 378.7,274.3 397.2,274.3 397.2,266.0 378.7,266.0"/>
  <polygon points="401.8,239.4 401.8,247.4 420.2,247.4 420.2,239.4 401.8,239.4"/>
  <polygon points="424.9,280.3 424.9,288.3 443.3,288.3 443.3,280.3 424.9,280.3"/>
  <polygon points="447.9,284.8 447.9,293.3 466.4,293.3 466.4,284.8 447.9,284.8"/>
  <polygon points="471.0,237.8 471.0,245.7 489.5,245.7 489.5,237.8 471.0,237.8"/>
  <polygon points="494.1,254.1 494.1,262.5 512.6,262.5 512.6,254.1 494.1,254.1"/>
  <polygon points="517.2,270.3 517.2,278.8 535.6,278.8 535.6,270.3 517.2,270.3"/>
  <polygon points="540.2,302.4 540.2,310.6 558.7,310.6 558.7,302.4 540.2,302.4"/>
  <polygon points="563.3,344.8 563.3,353.0 581.8,353.0 581.8,344.8 563.3,344.8"/>
  <polygon points="586.4,362.3 586.4,370.7 604.9,370.7 604.9,362.3 586.4,362.3"/>
  <polygon points="609.5,366.6 609.5,374.5 627.9,374.5 627.9,366.6 609.5,366.6"/>
  <polygon points="632.6,355.2 632.6,362.8 651.0,362.8 651.0,355.2 632.6,355.2"/>
  <polygon points="655.6,359.1 655.6,366.1 674.1,366.1 674.1,359.1 655.6,359.1"/>
  <polygon points="678.7,338.4 678.7,345.3 697.2,345.3 697.2,338.4 678.7,338.4"/>
  <polygon points="701.8,324.9 701.8,331.8 720.3,331.8 720.3,324.9 701.8,324.9"/>
  <polygon points="724.9,318.6 724.9,325.7 743.3,325.7 743.3,318.6 724.9,318.6"/>
  <polygon points="748.0,302.8 748.0,310.0 766.4,310.0 766.4,302.8 748.0,302.8"/>
  <polygon points="771.0,302.5 771.0,310.0 789.5,310.0 789.5,302.5 771.0,302.5"/>
  <polygon points="794.1,298.6 794.1,305.8 812.6,305.8 812.6,298.6 794.1,298.6"/>
  <polygon points="817.2,299.0 817.2,306.7 835.7,306.7 835.7,299.0 817.2,299.0"/>
  <polygon points="840.3,289.0 840.3,296.7 858.7,296.7 858.7,289.0 840.3,289.0"/>
  <polygon points="863.4,287.1 863.4,294.8 881.8,294.8 881.8,287.1 863.4,287.1"/>
  <polygon points="886.4,341.2 886.4,348.7 904.9,348.7 904.9,341.2 886.4,341.2"/>
</g>
<g stroke="#000" stroke-width="0.90" fill="#845F48"  clip-path="url(#axis_clip)">
  <polygon points="147.9,98.0 147.9,376.0 166.4,376.0 166.4,98.0 147.9,98.0"/>
  <polygon points="171.0,258.1 171.0,469.3 189.4,469.3 189.4,258.1 171.0,258.1"/>
  <polygon points="194.1,332.4 194.1,513.2 212.5,513.2 212.5,332.4 194.1,332.4"/>
  <polygon points="217.1,320.8 217.1,487.2 235.6,487.2 235.6,320.8 217.1,320.8"/>
  <polygon points="240.2,263.6 240.2,448.8 258.7,448.8 258.7,263.6 240.2,263.6"/>
  <polygon points="263.3,313.3 263.3,487.6 281.8,487.6 281.8,313.3 263.3,313.3"/>
  <polygon points="286.4,278.4 286.4,454.7 304.8,454.7 304.8,278.4 286.4,278.4"/>
  <polygon points="309.5,278.9 309.5,458.9 327.9,458.9 327.9,278.9 309.5,278.9"/>
  <polygon points="332.5,283.7 332.5,475.9 351.0,475.9 351.0,283.7 332.5,283.7"/>
  <polygon points="355.6,294.5 355.6,486.9 374.1,486.9 374.1,294.5 355.6,294.5"/>
  <polygon points="378.7,274.3 378.7,461.8 397.2,461.8 397.2,274.3 378.7,274.3"/>
  <polygon points="401.8,247.4 401.8,452.3 420.2,452.3 420.2,247.4 401.8,247.4"/>
  <polygon points="424.9,288.3 424.9,494.1 443.3,494.1 443.3,288.3 424.9,288.3"/>
  <polygon points="447.9,293.3 447.9,488.6 466.4,488.6 466.4,293.3 447.9,293.3"/>
  <polygon points="471.0,245.7 471.0,462.6 489.5,462.6 489.5,245.7 471.0,245.7"/>
  <polygon points="494.1,262.5 494.1,463.5 512.6,463.5 512.6,262.5 494.1,262.5"/>
  <polygon points="517.2,278.8 517.2,482.8 535.6,482.8 535.6,278.8 517.2,278.8"/>
  <polygon points="540.2,310.6 540.2,512.0 558.7,512.0 558.7,310.6 540.2,310.6"/>
  <polygon points="563.3,353.0 563.3,563.3 581.8,563.3 581.8,353.0 563.3,353.0"/>
  <polygon points="586.4,370.7 586.4,563.1 604.9,563.1 604.9,370.7 586.4,370.7"/>
  <polygon points="609.5,374.5 609.5,563.2 627.9,563.2 627.9,374.5 609.5,374.5"/>
  <polygon points="632.6,362.8 632.6,563.2 651.0,563.2 651.0,362.8 632.6,362.8"/>
  <polygon points="655.6,366.1 655.6,563.3 674.1,563.3 674.1,366.1 655.6,366.1"/>
  <polygon points="678.7,345.3 678.7,561.8 697.2,561.8 697.2,345.3 678.7,345.3"/>
  <polygon points="701.8,331.8 701.8,558.2 720.3,558.2 720.3,331.8 701.8,331.8"/>
  <polygon points="724.9,325.7 724.9,558.6 743.3,558.6 743.3,325.7 724.9,325.7"/>
  <polygon points="748.0,310.0 748.0,558.7 766.4,558.7 766.4,310.0 748.0,310.0"/>
  <polygon points="771.0,310.0 771.0,558.8 789.5,558.8 789.5,310.0 771.0,310.0"/>
  <polygon points="794.1,305.8 794.1,555.0 812.6,555.0 812.6,305.8 794.1,305.8"/>
  <polygon points="817.2,306.7 817.2,554.6 835.7,554.6 835.7,306.7 817.2,306.7"/>
  <polygon points="840.3,296.7 840.3,552.7 858.7,552.7 858.7,296.7 840.3,296.7"/>
  <polygon points="863.4,294.8 863.4,550.4 881.8,550.4 881.8,294.8 863.4,294.8"/>
  <polygon points="886.4,348.7 886.4,549.0 904.9,549.0 904.9,348.7 886.4,348.7"/>
</g>
<g stroke="#000" stroke-width="0.90" fill="#4A89E8"  clip-path="url(#axis_clip)">
  <polygon points="147.9,376.0 147.9,568.2 166.4,568.2 166.4,376.0 147.9,376.0"/>
  <polygon points="171.0,469.3 171.0,569.5 189.4,569.5 189.4,469.3 171.0,469.3"/>
  <polygon points="194.1,513.2 194.1,571.4 212.5,571.4 212.5,513.2 194.1,513.2"/>
  <polygon points="217.1,487.2 217.1,571.7 235.6,571.7 235.6,487.2 217.1,487.2"/>
  <polygon points="240.2,448.8 240.2,572.1 258.7,572.1 258.7,448.8 240.2,448.8"/>
  <polygon points="263.3,487.6 263.3,572.2 281.8,572.2 281.8,487.6 263.3,487.6"/>
  <polygon points="286.4,454.7 286.4,572.0 304.8,572.0 304.8,454.7 286.4,454.7"/>
  <polygon points="309.5,458.9 309.5,571.9 327.9,571.9 327.9,458.9 309.5,458.9"/>
  <polygon points="332.5,475.9 332.5,571.6 351.0,571.6 351.0,475.9 332.5,475.9"/>
  <polygon points="355.6,486.9 355.6,571.2 374.1,571.2 374.1,486.9 355.6,486.9"/>
  <polygon points="378.7,461.8 378.7,570.6 397.2,570.6 397.2,461.8 378.7,461.8"/>
  <polygon points="401.8,452.3 401.8,570.0 420.2,570.0 420.2,452.3 401.8,452.3"/>
  <polygon points="424.9,494.1 424.9,571.5 443.3,571.5 443.3,494.1 424.9,494.1"/>
  <polygon points="447.9,488.6 447.9,570.2 466.4,570.2 466.4,488.6 447.9,488.6"/>
  <polygon points="471.0,462.6 471.0,570.3 489.5,570.3 489.5,462.6 471.0,462.6"/>
  <polygon points="494.1,463.5 494.1,569.9 512.6,569.9 512.6,463.5 494.1,463.5"/>
  <polygon points="517.2,482.8 517.2,571.0 535.6,571.0 535.6,482.8 517.2,482.8"/>
  <polygon points="540.2,512.0 540.2,570.5 558.7,570.5 558.7,512.0 540.2,512.0"/>
  <polygon points="563.3,563.3 563.3,570.5 581.8,570.5 581.8,563.3 563.3,563.3"/>
  <polygon points="586.4,563.1 586.4,569.4 604.9,569.4 604.9,563.1 586.4,563.1"/>
  <polygon points="609.5,563.2 609.5,569.1 627.9,569.1 627.9,563.2 609.5,563.2"/>
  <polygon points="632.6,563.2 632.6,569.1 651.0,569.1 651.0,563.2 632.6,563.2"/>
  <polygon points="655.6,563.3 655.6,569.3 674.1,569.3 674.1,563.3 655.6,563.3"/>
  <polygon points="678.7,561.8 678.7,569.0 697.2,569.0 697.2,561.8 678.7,561.8"/>
  <polygon points="701.8,558.2 701.8,568.9 720.3,568.9 720.3,558.2 701.8,558.2"/>
  <polygon points="724.9,558.6 724.9,567.6 743.3,567.6 743.3,558.6 724.9,558.6"/>
  <polygon points="748.0,558.7 748.0,567.5 766.4,567.5 766.4,558.7 748.0,558.7"/>
  <polygon points="771.0,558.8 771.0,567.2 789.5,567.2 789.5,558.8 771.0,558.8"/>
  <polygon points="794.1,555.0 794.1,567.3 812.6,567.3 812.6,555.0 794.1,555.0"/>
  <polygon points="817.2,554.6 817.2,567.1 835.7,567.1 835.7,554.6 817.2,554.6"/>
  <polygon points="840.3,552.7 840.3,568.4 858.7,568.4 858.7,552.7 840.3,552.7"/>
  <polygon points="863.4,550.4 863.4,567.1 881.8,567.1 881.8,550.4 863.4,550.4"/>
  <polygon points="886.4,549.0 886.4,566.9 904.9,566.9 904.9,549.0 886.4,549.0"/>
</g>
<g stroke="#000" stroke-width="0.90" fill="#FF7F61"  clip-path="url(#axis_clip)">
  <polygon points="147.9,568.2 147.9,587.2 166.4,587.2 166.4,568.2 147.9,568.2"/>
  <polygon points="171.0,569.5 171.0,587.2 189.4,587.2 189.4,569.5 171.0,569.5"/>
  <polygon points="194.1,571.4 194.1,587.2 212.5,587.2 212.5,571.4 194.1,571.4"/>
  <polygon points="217.1,571.7 217.1,587.2 235.6,587.2 235.6,571.7 217.1,571.7"/>
  <polygon points="240.2,572.1 240.2,587.2 258.7,587.2 258.7,572.1 240.2,572.1"/>
  <polygon points="263.3,572.2 263.3,587.2 281.8,587.2 281.8,572.2 263.3,572.2"/>
  <polygon points="286.4,572.0 286.4,587.2 304.8,587.2 304.8,572.0 286.4,572.0"/>
  <polygon points="309.5,571.9 309.5,587.2 327.9,587.2 327.9,571.9 309.5,571.9"/>
  <polygon points="332.5,571.6 332.5,587.2 351.0,587.2 351.0,571.6 332.5,571.6"/>
  <polygon points="355.6,571.2 355.6,587.2 374.1,587.2 374.1,571.2 355.6,571.2"/>
  <polygon points="378.7,570.6 378.7,587.2 397.2,587.2 397.2,570.6 378.7,570.6"/>
  <polygon points="401.8,570.0 401.8,587.2 420.2,587.2 420.2,570.0 401.8,570.0"/>
  <polygon points="424.9,571.5 424.9,587.2 443.3,587.2 443.3,571.5 424.9,571.5"/>
  <polygon points="447.9,570.2 447.9,587.2 466.4,587.2 466.4,570.2 447.9,570.2"/>
  <polygon points="471.0,570.3 471.0,587.2 489.5,587.2 489.5,570.3 471.0,570.3"/>
  <polygon points="494.1,569.9 494.1,587.2 512.6,587.2 512.6,569.9 494.1,569.9"/>
  <polygon points="517.2,571.0 517.2,587.2 535.6,587.2 535.6,571.0 517.2,571.0"/>
  <polygon points="540.2,570.5 540.2,587.2 558.7,587.2 558.7,570.5 540.2,570.5"/>
  <polygon points="563.3,570.5 563.3,587.2 581.8,587.2 581.8,570.5 563.3,570.5"/>
  <polygon points="586.4,569.4 586.4,587.2 604.9,587.2 604.9,569.4 586.4,569.4"/>
  <polygon points="609.5,569.1 609.5,587.2 627.9,587.2 627.9,569.1 609.5,569.1"/>
  <polygon points="632.6,569.1 632.6,587.2 651.0,587.2 651.0,569.1 632.6,569.1"/>
  <polygon points="655.6,569.3 655.6,587.2 674.1,587.2 674.1,569.3 655.6,569.3"/>
  <polygon points="678.7,569.0 678.7,587.2 697.2,587.2 697.2,569.0 678.7,569.0"/>
  <polygon points="701.8,568.9 701.8,587.2 720.3,587.2 720.3,568.9 701.8,568.9"/>
  <polygon points="724.9,567.6 724.9,587.2 743.3,587.2 743.3,567.6 724.9,567.6"/>
  <polygon points="748.0,567.5 748.0,587.2 766.4,587.2 766.4,567.5 748.0,567.5"/>
  <polygon points="771.0,567.2 771.0,587.2 789.5,587.2 789.5,567.2 771.0,567.2"/>
  <polygon points="794.1,567.3 794.1,587.2 812.6,587.2 812.6,567.3 794.1,567.3"/>
  <polygon points="817.2,567.1 817.2,587.2 835.7,587.2 835.7,567.1 817.2,567.1"/>
  <polygon points="840.3,568.4 840.3,587.2 858.7,587.2 858.7,568.4 840.3,568.4"/>
  <polygon points="863.4,567.1 863.4,587.2 881.8,587.2 881.8,567.1 863.4,567.1"/>
  <polygon points="886.4,566.9 886.4,587.2 904.9,587.2 904.9,566.9 886.4,566.9"/>
</g>
<polyline class="pl" points="157.1,87.4 180.2,247.8 203.3,322.1 226.4,311.1 249.5,254.2 272.5,304.1 295.6,269.3 318.7,269.5 341.8,274.3 364.8,285.2 387.9,264.0 411.0,237.8 434.1,278.5 457.2,283.1 480.2,236.3 503.3,252.1 526.4,269.1 549.5,300.6 572.6,343.3 595.6,360.5 618.7,365.3 641.8,353.2 664.9,356.2 688.0,337.0 711.0,323.1 734.1,316.7 757.2,301.4 780.3,300.5 803.3,297.1 826.4,297.1 849.5,287.3 872.6,285.4 895.7,337.2" stroke="#000" stroke-width="5.40" stroke-opacity="1.00" fill="none" clip-path="url(#axis_clip)"/>
<g class="pl" fill="#FFF" stroke="#000" stroke-width="0.900">
  <circle cx="180.2" cy="247.8" r="2.2" />
  <circle cx="203.3" cy="322.1" r="2.2" />
  <circle cx="226.4" cy="311.1" r="2.2" />
  <circle cx="249.5" cy="254.2" r="2.2" />
  <circle cx="272.5" cy="304.1" r="2.2" />
  <circle cx="295.6" cy="269.3" r="2.2" />
  <circle cx="318.7" cy="269.5" r="2.2" />
  <circle cx="341.8" cy="274.3" r="2.2" />
  <circle cx="364.8" cy="285.2" r="2.2" />
  <circle cx="411.0" cy="237.8" r="2.2" />
  <circle cx="434.1" cy="278.5" r="2.2" />
  <circle cx="457.2" cy="283.1" r="2.2" />
  <circle cx="480.2" cy="236.3" r="2.2" />
  <circle cx="503.3" cy="252.1" r="2.2" />
  <circle cx="526.4" cy="269.1" r="2.2" />
  <circle cx="549.5" cy="300.6" r="2.2" />
  <circle cx="572.6" cy="343.3" r="2.2" />
  <circle cx="595.6" cy="360.5" r="2.2" />
  <circle cx="641.8" cy="353.2" r="2.2" />
  <circle cx="664.9" cy="356.2" r="2.2" />
  <circle cx="688.0" cy="337.0" r="2.2" />
  <circle cx="711.0" cy="323.1" r="2.2" />
  <circle cx="734.1" cy="316.7" r="2.2" />
  <circle cx="757.2" cy="301.4" r="2.2" />
  <circle cx="780.3" cy="300.5" r="2.2" />
  <circle cx="803.3" cy="297.1" r="2.2" />
  <circle cx="826.4" cy="297.1" r="2.2" />
  <circle cx="872.6" cy="285.4" r="2.2" />
  <circle cx="895.7" cy="337.2" r="2.2" />
</g>
<g class="pl" fill="#FFF" stroke="#000" stroke-width="0.900">
  <circle cx="157.1" cy="87.4" r="5.4" />
  <circle cx="387.9" cy="264.0" r="5.4" />
  <circle cx="618.7" cy="365.3" r="5.4" />
  <circle cx="849.5" cy="287.3" r="5.4" />
</g>
<text transform="translate(145.6,47.2)" dy="0.0" font-size="27.00" fill="#808080" stroke="none">Annual N<tspan dy="0.2em"><tspan style="font-size:70%">2</tspan></tspan><tspan dy="-0.2em">O</tspan> Emissions: Hungary</text>
<text transform="translate(130.0,81.6)" dy="8.1" font-size="27.00" fill="#808080" stroke="none" text-anchor="end">N<tspan dy="0.2em"><tspan style="font-size:70%">2</tspan></tspan><tspan dy="-0.2em">O</tspan></text>
<text transform="translate(945.6,315.4)" dy="7.6" font-size="25.20" fill="#000" stroke="none">-50.0% since 1990</text>
<text transform="translate(945.6,580.0)" dy="7.6" font-size="25.20" fill="#FF7F61" stroke="none">Energy</text>
<text transform="translate(945.6,555.0)" dy="7.6" font-size="25.20" fill="#4A89E8" stroke="none">Industrial Processes</text>
<text transform="translate(945.6,448.8)" dy="7.6" font-size="25.20" fill="#845F48" stroke="none">Agriculture</text>
<text transform="translate(945.6,365.5)" dy="7.6" font-size="25.20" fill="#DBA746" stroke="none">Waste</text>
<text transform="translate(945.6,340.4)" dy="7.6" font-size="25.20" fill="#7FBF7F" stroke="none">LULUCF</text>
<polyline class="pl" points="910.8,337.2 912.4,337.1 913.8,336.9 915.2,336.5 916.4,336.1 917.6,335.5 918.8,334.8 919.8,334.0 920.8,333.1 921.7,332.2 922.7,331.2 923.5,330.2 924.4,329.1 925.2,328.0 926.0,326.9 926.8,325.7 927.6,324.6 928.4,323.5 929.3,322.4 930.1,321.4 931.1,320.4 932.0,319.5 933.0,318.6 934.0,317.8 935.2,317.1 936.4,316.5 937.6,316.1 939.0,315.7 940.4,315.5 942.0,315.4" stroke="#000" stroke-width="0.90" stroke-opacity="1.00" fill="none" />
<polyline class="pl" points="910.8,577.0 912.4,577.0 913.8,577.1 915.2,577.1 916.4,577.2 917.6,577.3 918.8,577.4 919.8,577.5 920.8,577.6 921.7,577.7 922.7,577.9 923.5,578.0 924.4,578.1 925.2,578.3 926.0,578.4 926.8,578.6 927.6,578.8 928.4,578.9 929.3,579.0 930.1,579.2 931.1,579.3 932.0,579.5 933.0,579.6 934.0,579.7 935.2,579.8 936.4,579.8 937.6,579.9 939.0,580.0 940.4,580.0 942.0,580.0" stroke="#FF7F61" stroke-width="0.90" stroke-opacity="1.00" fill="none" />
<polyline class="pl" points="910.8,557.9 912.4,557.9 913.8,557.9 915.2,557.8 916.4,557.8 917.6,557.7 918.8,557.6 919.8,557.5 920.8,557.4 921.7,557.2 922.7,557.1 923.5,557.0 924.4,556.8 925.2,556.7 926.0,556.5 926.8,556.4 927.6,556.2 928.4,556.1 929.3,555.9 930.1,555.8 931.1,555.6 932.0,555.5 933.0,555.4 934.0,555.3 935.2,555.2 936.4,555.1 937.6,555.1 939.0,555.0 940.4,555.0 942.0,555.0" stroke="#4A89E8" stroke-width="0.90" stroke-opacity="1.00" fill="none" />
<polyline class="pl" points="910.8,345.0 912.4,345.0 913.8,345.2 915.2,345.6 916.4,346.0 917.6,346.6 918.8,347.2 919.8,348.0 920.8,348.8 921.7,349.7 922.7,350.6 923.5,351.6 924.4,352.6 925.2,353.6 926.0,354.7 926.8,355.7 927.6,356.8 928.4,357.8 929.3,358.9 930.1,359.8 931.1,360.8 932.0,361.7 933.0,362.5 934.0,363.2 935.2,363.9 936.4,364.4 937.6,364.9 939.0,365.2 940.4,365.4 942.0,365.5" stroke="#DBA746" stroke-width="0.90" stroke-opacity="1.00" fill="none" />
<polyline class="pl" points="910.8,339.2 912.4,339.2 913.8,339.2 915.2,339.2 916.4,339.3 917.6,339.3 918.8,339.3 919.8,339.4 920.8,339.4 921.7,339.5 922.7,339.5 923.5,339.6 924.4,339.7 925.2,339.7 926.0,339.8 926.8,339.9 927.6,339.9 928.4,340.0 929.3,340.0 930.1,340.1 931.1,340.2 932.0,340.2 933.0,340.3 934.0,340.3 935.2,340.3 936.4,340.4 937.6,340.4 939.0,340.4 940.4,340.4 942.0,340.4" stroke="#7FBF7F" stroke-width="0.90" stroke-opacity="1.00" fill="none" />
<text transform="translate(160.0,666.1)" font-size="19.80" font-family="Helvetica" fill="#BFBFBF" stroke="none" xml:space="preserve">CICERO   &#9679;   Data: UNFCCC (2024)</text>
<g>
  <rect x="123.0" y="651.4" width="34" height="17" fill="#FFF" stroke="none" opacity="0.01"/>
  <g transform="translate(124.0,652.4) scale(0.24)">
  <g><circle fill="#FFF" cx="37.79" cy="28.5" r="28.84"/>
     <circle fill="none" cx="37.79" cy="28.5" r="28.84" stroke="#BFBFBF" stroke-width="5.5"/>
     <path fill="#BFBFBF" d="M37.16,23.19 l-4.29,2.23c-0.458-0.951-1.02-1.62-1.69-2c-0.667-0.38-1.29-0.571-1.86-0.571c-2.86,0-4.29,1.89-4.29,5.66 c0,1.71,0.36,3.08,1.09,4.11c0.724,1.03,1.79,1.54,3.2,1.54c1.87,0,3.18-0.915,3.94-2.74l3.94,2 c-0.838,1.56-2,2.79-3.49,3.69c-1.48,0.896-3.12,1.34-4.91,1.34c-2.86,0-5.16-0.875-6.92-2.63 c-1.75-1.75-2.63-4.19-2.63-7.31c0-3.05,0.886-5.47,2.66-7.26c1.77-1.79,4.01-2.69,6.72-2.69 C32.6,18.56,35.44,20.1,37.16,23.19z
              M55.61,23.19l-4.23,2.23c-0.457-0.951-1.02-1.62-1.69-2 c-0.668-0.38-1.31-0.571-1.91-0.571c-2.86,0-4.29,1.89-4.29,5.66c0,1.71,0.363,3.08,1.09,4.11 c0.723,1.03,1.79,1.54,3.2,1.54c1.87,0,3.18-0.915,3.94-2.74l4,2c-0.875,1.56-2.06,2.79-3.54,3.69 c-1.49,0.9-3.11,1.34-4.86,1.34c-2.9,0-5.21-0.875-6.94-2.63c-1.74-1.75-2.6-4.19-2.6-7.31 c0-3.05,0.885-5.47,2.66-7.26c1.77-1.79,4.01-2.69,6.71-2.69C51.12,18.56,53.944,20.1,55.61,23.19z"/>
  </g></g>
  <g transform="translate(140.2,652.4) scale(0.24)">
  <g><circle fill="#FFF" cx="37.79" cy="28.5" r="28.84"/>
     <circle fill="none" cx="37.79" cy="28.5" r="28.84" stroke="#BFBFBF" stroke-width="5.5"/>
     <path fill="#BFBFBF" d="M46.129,20.557v13.085h-3.656v15.542h-9.944V33.643h-3.656V20.557 c0-0.572,0.2-1.057,0.599-1.457c0.401-0.399,0.887-0.6,1.457-0.6h13.144c0.533,0,1.01,0.2,1.428,0.6 C45.918,19.5,46.129,19.986,46.129,20.557z
              M33.042,12.329c0-3.008,1.485-4.514,4.458-4.514s4.457,1.504,4.457,4.514 c0,2.971-1.486,4.457-4.457,4.457S33.042,15.3,33.042,12.329z"/>
  </g></g>
</g>
</g>
</svg>
