<svg version="1.1" xmlns="http://www.w3.org/2000/svg" xmlns:xlink="http://www.w3.org/1999/xlink" width="100%" height="100%" viewBox="0 0 1200.000 674.916">
<title>Annual Energy sector Emissions: Romania</title>
<style type="text/css">
  #main {font-family:Helvetica,Arial,sans-serif; font-size:27.00px;
         fill-opacity:1; fill:#000000; stroke:none; stroke-linejoin:round; stroke-linecap:round; stroke-width:1.00;}
  .marker {stroke-opacity:0;fill-opacity:0;}
  .marker:hover {stroke-opacity:0.5; fill-opacity:1;}
  .ticklabel {font-size:27.00px;fill:#808080;stroke:none;font-family:Helvetica}
  .ytl {text-anchor:end;}
  .dp1 {pointer-events:none;font-size:70%;text-anchor:middle;fill:#000000;}
  .dp2 {pointer-events:none;font-size:70%;text-anchor:middle;fill:#FFFFFF;}
  .numtip {pointer-events:none;}
  .cc {opacity:0.25;}
.dl_fe {background-color:#FDFFDF;display:flex;margin:auto;align-items:center}
.dl_fe_p {font-size:20px;text-align:center;margin:3px}
.dl_el {display:none;pointer-events:none;}
.cc:hover + .dl_el {display:block;}
text:hover + .dl_el {display:block;}
</style>
<defs>
  <clipPath id="axis_clip"><rect x="145.8" y="54.2" width="761.2" height="532.8" /></clipPath>
  <path id="line_y" d="M 0,53.993 v 533.183" stroke="#262626" stroke-opacity="0.15" stroke-width="1.00"/>
  <path id="line_x" d="M 145.600,0 h 761.600" stroke="#262626" stroke-opacity="0.15" stroke-width="1.00"/>
  <path id="tick_y" d="M 145.600,0 h -6.000" stroke="#808080" stroke-width="0.90"/>
  <path id="tick_x" d="M 0,587.177 v 6.000" stroke="#808080" stroke-width="0.90"/>
</defs>
<g id="main">
<use xlink:href="#line_y" transform="translate(178.2,0)"/>
<use xlink:href="#line_y" transform="translate(287.0,0)"/>
<use xlink:href="#line_y" transform="translate(395.8,0)"/>
<use xlink:href="#line_y" transform="translate(504.6,0)"/>
<use xlink:href="#line_y" transform="translate(613.4,0)"/>
<use xlink:href="#line_y" transform="translate(722.2,0)"/>
<use xlink:href="#line_y" transform="translate(831.0,0)"/>
<use xlink:href="#line_y" transform="translate(896.3,0)"/>
<use xlink:href="#line_x" transform="translate(0,587.2)"/>
<use xlink:href="#line_x" transform="translate(0,468.7)"/>
<use xlink:href="#line_x" transform="translate(0,350.2)"/>
<use xlink:href="#line_x" transform="translate(0,231.7)"/>
<use xlink:href="#line_x" transform="translate(0,113.2)"/>
<use xlink:href="#tick_y" transform="translate(0,587.2)"/>
<use xlink:href="#tick_y" transform="translate(0,468.7)"/>
<use xlink:href="#tick_y" transform="translate(0,350.2)"/>
<use xlink:href="#tick_y" transform="translate(0,231.7)"/>
<use xlink:href="#tick_y" transform="translate(0,113.2)"/>
<use xlink:href="#tick_x" transform="translate(178.2,0)"/>
<use xlink:href="#tick_x" transform="translate(287.0,0)"/>
<use xlink:href="#tick_x" transform="translate(395.8,0)"/>
<use xlink:href="#tick_x" transform="translate(504.6,0)"/>
<use xlink:href="#tick_x" transform="translate(613.4,0)"/>
<use xlink:href="#tick_x" transform="translate(722.2,0)"/>
<use xlink:href="#tick_x" transform="translate(831.0,0)"/>
<use xlink:href="#tick_x" transform="translate(896.3,0)"/>
<polyline points="145.6,53.993 145.6,587.177 907.2,587.177" stroke="#808080" stroke-width="0.90" fill="none"/>
<text class="ticklabel xtl" transform="translate(178.2,629.0)" text-anchor="middle">1990</text>
<text class="ticklabel xtl" transform="translate(287.0,629.0)" text-anchor="middle">1995</text>
<text class="ticklabel xtl" transform="translate(395.8,629.0)" text-anchor="middle">2000</text>
<text class="ticklabel xtl" transform="translate(504.6,629.0)" text-anchor="middle">2005</text>
<text class="ticklabel xtl" transform="translate(613.4,629.0)" text-anchor="middle">2010</text>
<text class="ticklabel xtl" transform="translate(722.2,629.0)" text-anchor="middle">2015</text>
<text class="ticklabel xtl" transform="translate(831.0,629.0)" text-anchor="middle">2020</text>
<text class="ticklabel xtl" transform="translate(896.3,629.0)" text-anchor="middle">23</text>
<text class="ticklabel ytl" transform="translate(128.8,595.3)">0</text>
<text class="ticklabel ytl" transform="translate(128.8,476.8)">40</text>
<text class="ticklabel ytl" transform="translate(128.8,358.3)">80</text>
<text class="ticklabel ytl" transform="translate(128.8,239.8)">120</text>
<text class="ticklabel ytl" transform="translate(128.8,121.3)">160 Mt</text>
<g stroke="#000" stroke-width="0.90" fill="#D95319"  clip-path="url(#axis_clip)">
</g>
<g stroke="#000" stroke-width="0.90" fill="#0072BD"  clip-path="url(#axis_clip)">
</g>
<g stroke="#000" stroke-width="0.90" fill="#7FBF7F"  clip-path="url(#axis_clip)">
  <polygon points="147.8,72.9 147.8,80.2 165.2,80.2 165.2,72.9 147.8,72.9"/>
  <polygon points="169.5,140.6 169.5,144.2 186.9,144.2 186.9,140.6 169.5,140.6"/>
  <polygon points="191.3,219.9 191.3,223.9 208.7,223.9 208.7,219.9 191.3,219.9"/>
  <polygon points="213.1,240.6 213.1,243.6 230.5,243.6 230.5,240.6 213.1,240.6"/>
  <polygon points="234.8,267.7 234.8,268.7 252.2,268.7 252.2,267.7 234.8,267.7"/>
  <polygon points="256.6,274.8 256.6,276.1 274.0,276.1 274.0,274.8 256.6,274.8"/>
  <polygon points="278.3,267.4 278.3,269.1 295.7,269.1 295.7,267.4 278.3,267.4"/>
  <polygon points="300.1,253.3 300.1,254.2 317.5,254.2 317.5,253.3 300.1,253.3"/>
  <polygon points="321.9,281.4 321.9,284.0 339.3,284.0 339.3,281.4 321.9,281.4"/>
  <polygon points="343.6,321.2 343.6,323.3 361.0,323.3 361.0,321.2 343.6,321.2"/>
  <polygon points="365.4,361.3 365.4,361.7 382.8,361.7 382.8,361.3 365.4,361.3"/>
  <polygon points="387.1,349.7 387.1,350.4 404.5,350.4 404.5,349.7 387.1,349.7"/>
  <polygon points="408.9,334.1 408.9,335.4 426.3,335.4 426.3,334.1 408.9,334.1"/>
  <polygon points="430.7,338.6 430.7,339.5 448.1,339.5 448.1,338.6 430.7,338.6"/>
  <polygon points="452.4,327.6 452.4,328.9 469.8,328.9 469.8,327.6 452.4,327.6"/>
  <polygon points="474.2,334.3 474.2,338.3 491.6,338.3 491.6,334.3 474.2,334.3"/>
  <polygon points="495.9,340.8 495.9,344.5 513.3,344.5 513.3,340.8 495.9,340.8"/>
  <polygon points="517.7,332.9 517.7,334.6 535.1,334.6 535.1,332.9 517.7,332.9"/>
  <polygon points="539.5,319.2 539.5,322.2 556.9,322.2 556.9,319.2 539.5,319.2"/>
  <polygon points="561.2,317.4 561.2,320.0 578.6,320.0 578.6,317.4 561.2,317.4"/>
  <polygon points="583.0,356.7 583.0,357.7 600.4,357.7 600.4,356.7 583.0,356.7"/>
  <polygon points="604.7,370.2 604.7,371.1 622.1,371.1 622.1,370.2 604.7,370.2"/>
  <polygon points="626.5,347.7 626.5,349.4 643.9,349.4 643.9,347.7 626.5,347.7"/>
  <polygon points="648.3,351.4 648.3,353.1 665.7,353.1 665.7,351.4 648.3,351.4"/>
  <polygon points="670.0,380.7 670.0,382.0 687.4,382.0 687.4,380.7 670.0,380.7"/>
  <polygon points="691.8,381.4 691.8,382.6 709.2,382.6 709.2,381.4 691.8,381.4"/>
  <polygon points="713.5,385.2 713.5,386.6 730.9,386.6 730.9,385.2 713.5,385.2"/>
  <polygon points="735.3,389.6 735.3,391.0 752.7,391.0 752.7,389.6 735.3,389.6"/>
  <polygon points="757.1,381.0 757.1,383.0 774.5,383.0 774.5,381.0 757.1,381.0"/>
  <polygon points="778.8,380.7 778.8,382.6 796.2,382.6 796.2,380.7 778.8,380.7"/>
  <polygon points="800.6,390.1 800.6,392.0 818.0,392.0 818.0,390.1 800.6,390.1"/>
  <polygon points="822.3,398.3 822.3,400.2 839.7,400.2 839.7,398.3 822.3,398.3"/>
  <polygon points="844.1,387.4 844.1,390.6 861.5,390.6 861.5,387.4 844.1,387.4"/>
  <polygon points="865.9,392.4 865.9,395.8 883.3,395.8 883.3,392.4 865.9,392.4"/>
  <polygon points="887.6,402.4 887.6,405.9 905.0,405.9 905.0,402.4 887.6,402.4"/>
</g>
<g stroke="#000" stroke-width="0.90" fill="#7FDEDE"  clip-path="url(#axis_clip)">
  <polygon points="147.8,80.2 147.8,124.5 165.2,124.5 165.2,80.2 147.8,80.2"/>
  <polygon points="169.5,144.2 169.5,177.9 186.9,177.9 186.9,144.2 169.5,144.2"/>
  <polygon points="191.3,223.9 191.3,256.8 208.7,256.8 208.7,223.9 191.3,223.9"/>
  <polygon points="213.1,243.6 213.1,274.7 230.5,274.7 230.5,243.6 213.1,243.6"/>
  <polygon points="234.8,268.7 234.8,295.4 252.2,295.4 252.2,268.7 234.8,268.7"/>
  <polygon points="256.6,276.1 256.6,298.0 274.0,298.0 274.0,276.1 256.6,276.1"/>
  <polygon points="278.3,269.1 278.3,294.3 295.7,294.3 295.7,269.1 278.3,269.1"/>
  <polygon points="300.1,254.2 300.1,279.7 317.5,279.7 317.5,254.2 300.1,254.2"/>
  <polygon points="321.9,284.0 321.9,315.2 339.3,315.2 339.3,284.0 321.9,284.0"/>
  <polygon points="343.6,323.3 343.6,355.0 361.0,355.0 361.0,323.3 343.6,323.3"/>
  <polygon points="365.4,361.7 365.4,388.6 382.8,388.6 382.8,361.7 365.4,361.7"/>
  <polygon points="387.1,350.4 387.1,378.1 404.5,378.1 404.5,350.4 387.1,350.4"/>
  <polygon points="408.9,335.4 408.9,360.8 426.3,360.8 426.3,335.4 408.9,335.4"/>
  <polygon points="430.7,339.5 430.7,365.1 448.1,365.1 448.1,339.5 430.7,339.5"/>
  <polygon points="452.4,328.9 452.4,359.3 469.8,359.3 469.8,328.9 452.4,328.9"/>
  <polygon points="474.2,338.3 474.2,371.0 491.6,371.0 491.6,338.3 474.2,338.3"/>
  <polygon points="495.9,344.5 495.9,378.2 513.3,378.2 513.3,344.5 495.9,344.5"/>
  <polygon points="517.7,334.6 517.7,373.4 535.1,373.4 535.1,334.6 517.7,334.6"/>
  <polygon points="539.5,322.2 539.5,355.5 556.9,355.5 556.9,322.2 539.5,322.2"/>
  <polygon points="561.2,320.0 561.2,350.7 578.6,350.7 578.6,320.0 561.2,320.0"/>
  <polygon points="583.0,357.7 583.0,389.0 600.4,389.0 600.4,357.7 583.0,357.7"/>
  <polygon points="604.7,371.1 604.7,402.5 622.1,402.5 622.1,371.1 604.7,371.1"/>
  <polygon points="626.5,349.4 626.5,380.7 643.9,380.7 643.9,349.4 626.5,349.4"/>
  <polygon points="648.3,353.1 648.3,386.1 665.7,386.1 665.7,353.1 648.3,353.1"/>
  <polygon points="670.0,382.0 670.0,413.7 687.4,413.7 687.4,382.0 670.0,382.0"/>
  <polygon points="691.8,382.6 691.8,413.1 709.2,413.1 709.2,382.6 691.8,382.6"/>
  <polygon points="713.5,386.6 713.5,417.9 730.9,417.9 730.9,386.6 713.5,386.6"/>
  <polygon points="735.3,391.0 735.3,422.8 752.7,422.8 752.7,391.0 735.3,391.0"/>
  <polygon points="757.1,383.0 757.1,416.5 774.5,416.5 774.5,383.0 757.1,383.0"/>
  <polygon points="778.8,382.6 778.8,417.8 796.2,417.8 796.2,382.6 778.8,382.6"/>
  <polygon points="800.6,392.0 800.6,427.2 818.0,427.2 818.0,392.0 800.6,392.0"/>
  <polygon points="822.3,400.2 822.3,436.1 839.7,436.1 839.7,400.2 822.3,400.2"/>
  <polygon points="844.1,390.6 844.1,430.4 861.5,430.4 861.5,390.6 844.1,390.6"/>
  <polygon points="865.9,395.8 865.9,432.2 883.3,432.2 883.3,395.8 865.9,395.8"/>
  <polygon points="887.6,405.9 887.6,441.7 905.0,441.7 905.0,405.9 887.6,405.9"/>
</g>
<g stroke="#000" stroke-width="0.90" fill="#DEDE7F"  clip-path="url(#axis_clip)">
  <polygon points="147.8,124.5 147.8,157.5 165.2,157.5 165.2,124.5 147.8,124.5"/>
  <polygon points="169.5,177.9 169.5,214.7 186.9,214.7 186.9,177.9 169.5,177.9"/>
  <polygon points="191.3,256.8 191.3,288.2 208.7,288.2 208.7,256.8 191.3,256.8"/>
  <polygon points="213.1,274.7 213.1,307.0 230.5,307.0 230.5,274.7 213.1,274.7"/>
  <polygon points="234.8,295.4 234.8,321.3 252.2,321.3 252.2,295.4 234.8,295.4"/>
  <polygon points="256.6,298.0 256.6,325.5 274.0,325.5 274.0,298.0 256.6,298.0"/>
  <polygon points="278.3,294.3 278.3,319.6 295.7,319.6 295.7,294.3 278.3,294.3"/>
  <polygon points="300.1,279.7 300.1,315.0 317.5,315.0 317.5,279.7 300.1,279.7"/>
  <polygon points="321.9,315.2 321.9,351.4 339.3,351.4 339.3,315.2 321.9,315.2"/>
  <polygon points="343.6,355.0 343.6,389.1 361.0,389.1 361.0,355.0 343.6,355.0"/>
  <polygon points="365.4,388.6 365.4,416.9 382.8,416.9 382.8,388.6 365.4,388.6"/>
  <polygon points="387.1,378.1 387.1,407.5 404.5,407.5 404.5,378.1 387.1,378.1"/>
  <polygon points="408.9,360.8 408.9,396.1 426.3,396.1 426.3,360.8 408.9,360.8"/>
  <polygon points="430.7,365.1 430.7,401.5 448.1,401.5 448.1,365.1 430.7,365.1"/>
  <polygon points="452.4,359.3 452.4,397.6 469.8,397.6 469.8,359.3 452.4,359.3"/>
  <polygon points="474.2,371.0 474.2,411.1 491.6,411.1 491.6,371.0 474.2,371.0"/>
  <polygon points="495.9,378.2 495.9,415.4 513.3,415.4 513.3,378.2 495.9,378.2"/>
  <polygon points="517.7,373.4 517.7,412.0 535.1,412.0 535.1,373.4 517.7,373.4"/>
  <polygon points="539.5,355.5 539.5,395.9 556.9,395.9 556.9,355.5 539.5,355.5"/>
  <polygon points="561.2,350.7 561.2,395.8 578.6,395.8 578.6,350.7 561.2,350.7"/>
  <polygon points="583.0,389.0 583.0,433.9 600.4,433.9 600.4,389.0 583.0,389.0"/>
  <polygon points="604.7,402.5 604.7,444.6 622.1,444.6 622.1,402.5 604.7,402.5"/>
  <polygon points="626.5,380.7 626.5,423.2 643.9,423.2 643.9,380.7 626.5,380.7"/>
  <polygon points="648.3,386.1 648.3,431.2 665.7,431.2 665.7,386.1 648.3,386.1"/>
  <polygon points="670.0,413.7 670.0,458.3 687.4,458.3 687.4,413.7 670.0,413.7"/>
  <polygon points="691.8,413.1 691.8,459.3 709.2,459.3 709.2,413.1 691.8,413.1"/>
  <polygon points="713.5,417.9 713.5,464.4 730.9,464.4 730.9,417.9 713.5,417.9"/>
  <polygon points="735.3,422.8 735.3,472.5 752.7,472.5 752.7,422.8 735.3,422.8"/>
  <polygon points="757.1,416.5 757.1,469.6 774.5,469.6 774.5,416.5 757.1,416.5"/>
  <polygon points="778.8,417.8 778.8,472.4 796.2,472.4 796.2,417.8 778.8,417.8"/>
  <polygon points="800.6,427.2 800.6,483.3 818.0,483.3 818.0,427.2 800.6,427.2"/>
  <polygon points="822.3,436.1 822.3,490.5 839.7,490.5 839.7,436.1 822.3,436.1"/>
  <polygon points="844.1,430.4 844.1,488.3 861.5,488.3 861.5,430.4 844.1,430.4"/>
  <polygon points="865.9,432.2 865.9,494.9 883.3,494.9 883.3,432.2 865.9,432.2"/>
  <polygon points="887.6,441.7 887.6,507.2 905.0,507.2 905.0,441.7 887.6,441.7"/>
</g>
<g stroke="#000" stroke-width="0.90" fill="#7F7FFF"  clip-path="url(#axis_clip)">
  <polygon points="147.8,157.5 147.8,352.8 165.2,352.8 165.2,157.5 147.8,157.5"/>
  <polygon points="169.5,214.7 169.5,374.9 186.9,374.9 186.9,214.7 169.5,214.7"/>
  <polygon points="191.3,288.2 191.3,391.3 208.7,391.3 208.7,288.2 191.3,288.2"/>
  <polygon points="213.1,307.0 213.1,411.0 230.5,411.0 230.5,307.0 213.1,307.0"/>
  <polygon points="234.8,321.3 234.8,415.1 252.2,415.1 252.2,321.3 234.8,321.3"/>
  <polygon points="256.6,325.5 256.6,412.3 274.0,412.3 274.0,325.5 256.6,325.5"/>
  <polygon points="278.3,319.6 278.3,405.2 295.7,405.2 295.7,319.6 278.3,319.6"/>
  <polygon points="300.1,315.0 300.1,398.9 317.5,398.9 317.5,315.0 300.1,315.0"/>
  <polygon points="321.9,351.4 321.9,418.1 339.3,418.1 339.3,351.4 321.9,351.4"/>
  <polygon points="343.6,389.1 343.6,443.9 361.0,443.9 361.0,389.1 343.6,389.1"/>
  <polygon points="365.4,416.9 365.4,467.2 382.8,467.2 382.8,416.9 365.4,416.9"/>
  <polygon points="387.1,407.5 387.1,459.9 404.5,459.9 404.5,407.5 387.1,407.5"/>
  <polygon points="408.9,396.1 408.9,452.6 426.3,452.6 426.3,396.1 408.9,396.1"/>
  <polygon points="430.7,401.5 430.7,460.1 448.1,460.1 448.1,401.5 430.7,401.5"/>
  <polygon points="452.4,397.6 452.4,450.2 469.8,450.2 469.8,397.6 452.4,397.6"/>
  <polygon points="474.2,411.1 474.2,465.0 491.6,465.0 491.6,411.1 474.2,411.1"/>
  <polygon points="495.9,415.4 495.9,465.7 513.3,465.7 513.3,415.4 495.9,415.4"/>
  <polygon points="517.7,412.0 517.7,459.7 535.1,459.7 535.1,412.0 517.7,412.0"/>
  <polygon points="539.5,395.9 539.5,452.1 556.9,452.1 556.9,395.9 539.5,395.9"/>
  <polygon points="561.2,395.8 561.2,456.4 578.6,456.4 578.6,395.8 561.2,395.8"/>
  <polygon points="583.0,433.9 583.0,477.4 600.4,477.4 600.4,433.9 583.0,433.9"/>
  <polygon points="604.7,444.6 604.7,488.2 622.1,488.2 622.1,444.6 604.7,444.6"/>
  <polygon points="626.5,423.2 626.5,475.0 643.9,475.0 643.9,423.2 626.5,423.2"/>
  <polygon points="648.3,431.2 648.3,483.9 665.7,483.9 665.7,431.2 648.3,431.2"/>
  <polygon points="670.0,458.3 670.0,502.8 687.4,502.8 687.4,458.3 670.0,458.3"/>
  <polygon points="691.8,459.3 691.8,502.8 709.2,502.8 709.2,459.3 691.8,459.3"/>
  <polygon points="713.5,464.4 713.5,503.4 730.9,503.4 730.9,464.4 713.5,464.4"/>
  <polygon points="735.3,472.5 735.3,510.8 752.7,510.8 752.7,472.5 735.3,472.5"/>
  <polygon points="757.1,469.6 757.1,508.4 774.5,508.4 774.5,469.6 757.1,469.6"/>
  <polygon points="778.8,472.4 778.8,513.1 796.2,513.1 796.2,472.4 778.8,472.4"/>
  <polygon points="800.6,483.3 800.6,522.9 818.0,522.9 818.0,483.3 800.6,483.3"/>
  <polygon points="822.3,490.5 822.3,533.3 839.7,533.3 839.7,490.5 822.3,490.5"/>
  <polygon points="844.1,488.3 844.1,532.2 861.5,532.2 861.5,488.3 844.1,488.3"/>
  <polygon points="865.9,494.9 865.9,533.8 883.3,533.8 883.3,494.9 865.9,494.9"/>
  <polygon points="887.6,507.2 887.6,541.2 905.0,541.2 905.0,507.2 887.6,507.2"/>
</g>
<g stroke="#000" stroke-width="0.90" fill="#FF7F7F"  clip-path="url(#axis_clip)">
  <polygon points="147.8,352.8 147.8,587.2 165.2,587.2 165.2,352.8 147.8,352.8"/>
  <polygon points="169.5,374.9 169.5,587.2 186.9,587.2 186.9,374.9 169.5,374.9"/>
  <polygon points="191.3,391.3 191.3,587.2 208.7,587.2 208.7,391.3 191.3,391.3"/>
  <polygon points="213.1,411.0 213.1,587.2 230.5,587.2 230.5,411.0 213.1,411.0"/>
  <polygon points="234.8,415.1 234.8,587.2 252.2,587.2 252.2,415.1 234.8,415.1"/>
  <polygon points="256.6,412.3 256.6,587.2 274.0,587.2 274.0,412.3 256.6,412.3"/>
  <polygon points="278.3,405.2 278.3,587.2 295.7,587.2 295.7,405.2 278.3,405.2"/>
  <polygon points="300.1,398.9 300.1,587.2 317.5,587.2 317.5,398.9 300.1,398.9"/>
  <polygon points="321.9,418.1 321.9,587.2 339.3,587.2 339.3,418.1 321.9,418.1"/>
  <polygon points="343.6,443.9 343.6,587.2 361.0,587.2 361.0,443.9 343.6,443.9"/>
  <polygon points="365.4,467.2 365.4,587.2 382.8,587.2 382.8,467.2 365.4,467.2"/>
  <polygon points="387.1,459.9 387.1,587.2 404.5,587.2 404.5,459.9 387.1,459.9"/>
  <polygon points="408.9,452.6 408.9,587.2 426.3,587.2 426.3,452.6 408.9,452.6"/>
  <polygon points="430.7,460.1 430.7,587.2 448.1,587.2 448.1,460.1 430.7,460.1"/>
  <polygon points="452.4,450.2 452.4,587.2 469.8,587.2 469.8,450.2 452.4,450.2"/>
  <polygon points="474.2,465.0 474.2,587.2 491.6,587.2 491.6,465.0 474.2,465.0"/>
  <polygon points="495.9,465.7 495.9,587.2 513.3,587.2 513.3,465.7 495.9,465.7"/>
  <polygon points="517.7,459.7 517.7,587.2 535.1,587.2 535.1,459.7 517.7,459.7"/>
  <polygon points="539.5,452.1 539.5,587.2 556.9,587.2 556.9,452.1 539.5,452.1"/>
  <polygon points="561.2,456.4 561.2,587.2 578.6,587.2 578.6,456.4 561.2,456.4"/>
  <polygon points="583.0,477.4 583.0,587.2 600.4,587.2 600.4,477.4 583.0,477.4"/>
  <polygon points="604.7,488.2 604.7,587.2 622.1,587.2 622.1,488.2 604.7,488.2"/>
  <polygon points="626.5,475.0 626.5,587.2 643.9,587.2 643.9,475.0 626.5,475.0"/>
  <polygon points="648.3,483.9 648.3,587.2 665.7,587.2 665.7,483.9 648.3,483.9"/>
  <polygon points="670.0,502.8 670.0,587.2 687.4,587.2 687.4,502.8 670.0,502.8"/>
  <polygon points="691.8,502.8 691.8,587.2 709.2,587.2 709.2,502.8 691.8,502.8"/>
  <polygon points="713.5,503.4 713.5,587.2 730.9,587.2 730.9,503.4 713.5,503.4"/>
  <polygon points="735.3,510.8 735.3,587.2 752.7,587.2 752.7,510.8 735.3,510.8"/>
  <polygon points="757.1,508.4 757.1,587.2 774.5,587.2 774.5,508.4 757.1,508.4"/>
  <polygon points="778.8,513.1 778.8,587.2 796.2,587.2 796.2,513.1 778.8,513.1"/>
  <polygon points="800.6,522.9 800.6,587.2 818.0,587.2 818.0,522.9 800.6,522.9"/>
  <polygon points="822.3,533.3 822.3,587.2 839.7,587.2 839.7,533.3 822.3,533.3"/>
  <polygon points="844.1,532.2 844.1,587.2 861.5,587.2 861.5,532.2 844.1,532.2"/>
  <polygon points="865.9,533.8 865.9,587.2 883.3,587.2 883.3,533.8 865.9,533.8"/>
  <polygon points="887.6,541.2 887.6,587.2 905.0,587.2 905.0,541.2 887.6,541.2"/>
</g>
<g stroke="#000" stroke-width="0.90" fill="#D95319"  clip-path="url(#axis_clip)">
</g>
<g stroke="#000" stroke-width="0.90" fill="#0072BD"  clip-path="url(#axis_clip)">
</g>
<g stroke="#000" stroke-width="0.90" fill="#7FBF7F"  clip-path="url(#axis_clip)">
</g>
<g stroke="#000" stroke-width="0.90" fill="#7FDEDE"  clip-path="url(#axis_clip)">
</g>
<g stroke="#000" stroke-width="0.90" fill="#DEDE7F"  clip-path="url(#axis_clip)">
</g>
<g stroke="#000" stroke-width="0.90" fill="#7F7FFF"  clip-path="url(#axis_clip)">
</g>
<g stroke="#000" stroke-width="0.90" fill="#FF7F7F"  clip-path="url(#axis_clip)">
</g>
<polyline class="pl" points="156.5,72.9 178.2,140.6 200.0,219.9 221.8,240.6 243.5,267.7 265.3,274.8 287.0,267.4 308.8,253.3 330.6,281.4 352.3,321.2 374.1,361.3 395.8,349.7 417.6,334.1 439.4,338.6 461.1,327.6 482.9,334.3 504.6,340.8 526.4,332.9 548.2,319.2 569.9,317.4 591.7,356.7 613.4,370.2 635.2,347.7 657.0,351.4 678.7,380.7 700.5,381.4 722.2,385.2 744.0,389.6 765.8,381.0 787.5,380.7 809.3,390.1 831.0,398.3 852.8,387.4 874.6,392.4 896.3,402.4" stroke="#000" stroke-width="5.40" stroke-opacity="1.00" fill="none" clip-path="url(#axis_clip)"/>
<g class="pl" fill="#FFF" stroke="#000" stroke-width="0.900">
  <circle cx="156.5" cy="72.9" r="2.2" />
  <circle cx="200.0" cy="219.9" r="2.2" />
  <circle cx="221.8" cy="240.6" r="2.2" />
  <circle cx="243.5" cy="267.7" r="2.2" />
  <circle cx="265.3" cy="274.8" r="2.2" />
  <circle cx="287.0" cy="267.4" r="2.2" />
  <circle cx="308.8" cy="253.3" r="2.2" />
  <circle cx="330.6" cy="281.4" r="2.2" />
  <circle cx="352.3" cy="321.2" r="2.2" />
  <circle cx="374.1" cy="361.3" r="2.2" />
  <circle cx="417.6" cy="334.1" r="2.2" />
  <circle cx="439.4" cy="338.6" r="2.2" />
  <circle cx="461.1" cy="327.6" r="2.2" />
  <circle cx="482.9" cy="334.3" r="2.2" />
  <circle cx="504.6" cy="340.8" r="2.2" />
  <circle cx="526.4" cy="332.9" r="2.2" />
  <circle cx="548.2" cy="319.2" r="2.2" />
  <circle cx="569.9" cy="317.4" r="2.2" />
  <circle cx="591.7" cy="356.7" r="2.2" />
  <circle cx="635.2" cy="347.7" r="2.2" />
  <circle cx="657.0" cy="351.4" r="2.2" />
  <circle cx="678.7" cy="380.7" r="2.2" />
  <circle cx="700.5" cy="381.4" r="2.2" />
  <circle cx="722.2" cy="385.2" r="2.2" />
  <circle cx="744.0" cy="389.6" r="2.2" />
  <circle cx="765.8" cy="381.0" r="2.2" />
  <circle cx="787.5" cy="380.7" r="2.2" />
  <circle cx="809.3" cy="390.1" r="2.2" />
  <circle cx="852.8" cy="387.4" r="2.2" />
  <circle cx="874.6" cy="392.4" r="2.2" />
  <circle cx="896.3" cy="402.4" r="2.2" />
</g>
<g class="pl" fill="#FFF" stroke="#000" stroke-width="0.900">
  <circle cx="178.2" cy="140.6" r="5.4" />
  <circle cx="395.8" cy="349.7" r="5.4" />
  <circle cx="613.4" cy="370.2" r="5.4" />
  <circle cx="831.0" cy="398.3" r="5.4" />
</g>
<text transform="translate(145.6,47.2)" dy="0.0" font-size="27.00" fill="#808080" stroke="none">Annual Energy sector Emissions: Romania</text>
<text transform="translate(130.0,140.9)" dy="8.1" font-size="27.00" fill="#808080" stroke="none" text-anchor="end">CO<tspan dy="0.2em"><tspan style="font-size:70%">2</tspan></tspan><tspan dy="-0.2em">e</tspan></text>
<text transform="translate(945.6,385.1)" dy="7.6" font-size="25.20" fill="#000" stroke="none">-64.1% since 1989</text>
<text transform="translate(945.6,564.2)" dy="7.6" font-size="25.20" fill="#FF7F7F" stroke="none">Energy industries</text>
<text transform="translate(945.6,524.2)" dy="7.6" font-size="25.20" fill="#7F7FFF" stroke="none">Manufacturing</text>
<text transform="translate(945.6,474.4)" dy="7.6" font-size="25.20" fill="#DEDE7F" stroke="none">Transport</text>
<text transform="translate(945.6,435.2)" dy="7.6" font-size="25.20" fill="#7FDEDE" stroke="none">Other sectors</text>
<text transform="translate(945.6,410.1)" dy="7.6" font-size="25.20" fill="#7FBF7F" stroke="none">Other</text>
<polyline class="pl" points="910.8,402.4 912.4,402.3 913.8,402.2 915.2,401.9 916.4,401.5 917.6,401.0 918.8,400.5 919.8,399.9 920.8,399.2 921.7,398.4 922.7,397.6 923.5,396.8 924.4,396.0 925.2,395.1 926.0,394.2 926.8,393.3 927.6,392.4 928.4,391.5 929.3,390.7 930.1,389.8 931.1,389.1 932.0,388.3 933.0,387.6 934.0,387.0 935.2,386.4 936.4,386.0 937.6,385.6 939.0,385.3 940.4,385.1 942.0,385.1" stroke="#000" stroke-width="0.90" stroke-opacity="1.00" fill="none" />
<polyline class="pl" points="910.8,423.8 912.4,423.8 913.8,423.9 915.2,424.1 916.4,424.4 917.6,424.7 918.8,425.0 919.8,425.5 920.8,425.9 921.7,426.4 922.7,426.9 923.5,427.5 924.4,428.0 925.2,428.6 926.0,429.2 926.8,429.8 927.6,430.4 928.4,430.9 929.3,431.5 930.1,432.0 931.1,432.6 932.0,433.0 933.0,433.5 934.0,433.9 935.2,434.3 936.4,434.6 937.6,434.8 939.0,435.0 940.4,435.1 942.0,435.2" stroke="#7FDEDE" stroke-width="0.90" stroke-opacity="1.00" fill="none" />
<polyline class="pl" points="910.8,404.2 912.4,404.2 913.8,404.2 915.2,404.3 916.4,404.5 917.6,404.6 918.8,404.8 919.8,405.0 920.8,405.3 921.7,405.5 922.7,405.8 923.5,406.1 924.4,406.4 925.2,406.7 926.0,407.0 926.8,407.3 927.6,407.6 928.4,407.9 929.3,408.2 930.1,408.5 931.1,408.8 932.0,409.0 933.0,409.2 934.0,409.5 935.2,409.7 936.4,409.8 937.6,409.9 939.0,410.0 940.4,410.1 942.0,410.1" stroke="#7FBF7F" stroke-width="0.90" stroke-opacity="1.00" fill="none" />
<text transform="translate(160.0,666.1)" font-size="19.80" font-family="Helvetica" fill="#BFBFBF" stroke="none" xml:space="preserve">CICERO   &#9679;   Data: UNFCCC (2025)</text>
<g>
  <rect x="123.0" y="651.4" width="34" height="17" fill="#FFF" stroke="none"/>
  <g transform="translate(124.0,652.4) scale(0.24)">
  <g><circle fill="#FFF" cx="37.79" cy="28.5" r="28.84"/>
     <circle fill="none" cx="37.79" cy="28.5" r="28.84" stroke="#BFBFBF" stroke-width="5.5"/>
     <path fill="#BFBFBF" d="M37.16,23.19 l-4.29,2.23c-0.458-0.951-1.02-1.62-1.69-2c-0.667-0.38-1.29-0.571-1.86-0.571c-2.86,0-4.29,1.89-4.29,5.66 c0,1.71,0.36,3.08,1.09,4.11c0.724,1.03,1.79,1.54,3.2,1.54c1.87,0,3.18-0.915,3.94-2.74l3.94,2 c-0.838,1.56-2,2.79-3.49,3.69c-1.48,0.896-3.12,1.34-4.91,1.34c-2.86,0-5.16-0.875-6.92-2.63 c-1.75-1.75-2.63-4.19-2.63-7.31c0-3.05,0.886-5.47,2.66-7.26c1.77-1.79,4.01-2.69,6.72-2.69 C32.6,18.56,35.44,20.1,37.16,23.19z
              M55.61,23.19l-4.23,2.23c-0.457-0.951-1.02-1.62-1.69-2 c-0.668-0.38-1.31-0.571-1.91-0.571c-2.86,0-4.29,1.89-4.29,5.66c0,1.71,0.363,3.08,1.09,4.11 c0.723,1.03,1.79,1.54,3.2,1.54c1.87,0,3.18-0.915,3.94-2.74l4,2c-0.875,1.56-2.06,2.79-3.54,3.69 c-1.49,0.9-3.11,1.34-4.86,1.34c-2.9,0-5.21-0.875-6.94-2.63c-1.74-1.75-2.6-4.19-2.6-7.31 c0-3.05,0.885-5.47,2.66-7.26c1.77-1.79,4.01-2.69,6.71-2.69C51.12,18.56,53.944,20.1,55.61,23.19z"/>
  </g></g>
  <g transform="translate(140.2,652.4) scale(0.24)">
  <g><circle fill="#FFF" cx="37.79" cy="28.5" r="28.84"/>
     <circle fill="none" cx="37.79" cy="28.5" r="28.84" stroke="#BFBFBF" stroke-width="5.5"/>
     <path fill="#BFBFBF" d="M46.129,20.557v13.085h-3.656v15.542h-9.944V33.643h-3.656V20.557 c0-0.572,0.2-1.057,0.599-1.457c0.401-0.399,0.887-0.6,1.457-0.6h13.144c0.533,0,1.01,0.2,1.428,0.6 C45.918,19.5,46.129,19.986,46.129,20.557z
              M33.042,12.329c0-3.008,1.485-4.514,4.458-4.514s4.457,1.504,4.457,4.514 c0,2.971-1.486,4.457-4.457,4.457S33.042,15.3,33.042,12.329z"/>
  </g></g>
</g>
</g>
</svg>
