<svg version="1.1" xmlns="http://www.w3.org/2000/svg" xmlns:xlink="http://www.w3.org/1999/xlink" width="100%" height="100%" viewBox="0 0 1200.000 674.916">
<title>Annual Greenhouse Gas Emissions: Romania</title>
<style type="text/css">
  #main {font-family:Helvetica,Arial,sans-serif; font-size:27.00px;
         fill-opacity:1; fill:#000000; stroke:none; stroke-linejoin:round; stroke-linecap:round; stroke-width:1.00;}
  .marker {stroke-opacity:0;fill-opacity:0;}
  .marker:hover {stroke-opacity:0.5; fill-opacity:1;}
  .ticklabel {font-size:27.00px;fill:#808080;stroke:none;font-family:Helvetica}
  .ytl {text-anchor:end;}
  .dp1 {pointer-events:none;font-size:70%;text-anchor:middle;fill:#000000;}
  .dp2 {pointer-events:none;font-size:70%;text-anchor:middle;fill:#FFFFFF;}
  .numtip {pointer-events:none;}
  .cc {opacity:0.25;}
.dl_fe {background-color:#FDFFDF;display:flex;margin:auto;align-items:center}
.dl_fe_p {font-size:20px;text-align:center;margin:3px}
.dl_el {display:none;pointer-events:none;}
.cc:hover + .dl_el {display:block;}
text:hover + .dl_el {display:block;}
</style>
<defs>
  <clipPath id="axis_clip"><rect x="145.8" y="54.2" width="761.2" height="532.8" /></clipPath>
  <path id="line_y" d="M 0,53.993 v 533.183" stroke="#262626" stroke-opacity="0.15" stroke-width="1.00"/>
  <path id="line_x" d="M 145.600,0 h 761.600" stroke="#262626" stroke-opacity="0.15" stroke-width="1.00"/>
  <path id="tick_y" d="M 145.600,0 h -6.000" stroke="#808080" stroke-width="0.90"/>
  <path id="tick_x" d="M 0,587.177 v 6.000" stroke="#808080" stroke-width="0.90"/>
</defs>
<g id="main">
<use xlink:href="#line_y" transform="translate(178.2,0)"/>
<use xlink:href="#line_y" transform="translate(287.0,0)"/>
<use xlink:href="#line_y" transform="translate(395.8,0)"/>
<use xlink:href="#line_y" transform="translate(504.6,0)"/>
<use xlink:href="#line_y" transform="translate(613.4,0)"/>
<use xlink:href="#line_y" transform="translate(722.2,0)"/>
<use xlink:href="#line_y" transform="translate(831.0,0)"/>
<use xlink:href="#line_y" transform="translate(896.3,0)"/>
<use xlink:href="#line_x" transform="translate(0,587.2)"/>
<use xlink:href="#line_x" transform="translate(0,468.7)"/>
<use xlink:href="#line_x" transform="translate(0,350.2)"/>
<use xlink:href="#line_x" transform="translate(0,231.7)"/>
<use xlink:href="#line_x" transform="translate(0,113.2)"/>
<use xlink:href="#tick_y" transform="translate(0,587.2)"/>
<use xlink:href="#tick_y" transform="translate(0,468.7)"/>
<use xlink:href="#tick_y" transform="translate(0,350.2)"/>
<use xlink:href="#tick_y" transform="translate(0,231.7)"/>
<use xlink:href="#tick_y" transform="translate(0,113.2)"/>
<use xlink:href="#tick_x" transform="translate(178.2,0)"/>
<use xlink:href="#tick_x" transform="translate(287.0,0)"/>
<use xlink:href="#tick_x" transform="translate(395.8,0)"/>
<use xlink:href="#tick_x" transform="translate(504.6,0)"/>
<use xlink:href="#tick_x" transform="translate(613.4,0)"/>
<use xlink:href="#tick_x" transform="translate(722.2,0)"/>
<use xlink:href="#tick_x" transform="translate(831.0,0)"/>
<use xlink:href="#tick_x" transform="translate(896.3,0)"/>
<polyline points="145.6,53.993 145.6,587.177 907.2,587.177" stroke="#808080" stroke-width="0.90" fill="none"/>
<text class="ticklabel xtl" transform="translate(178.2,629.0)" text-anchor="middle">1990</text>
<text class="ticklabel xtl" transform="translate(287.0,629.0)" text-anchor="middle">1995</text>
<text class="ticklabel xtl" transform="translate(395.8,629.0)" text-anchor="middle">2000</text>
<text class="ticklabel xtl" transform="translate(504.6,629.0)" text-anchor="middle">2005</text>
<text class="ticklabel xtl" transform="translate(613.4,629.0)" text-anchor="middle">2010</text>
<text class="ticklabel xtl" transform="translate(722.2,629.0)" text-anchor="middle">2015</text>
<text class="ticklabel xtl" transform="translate(831.0,629.0)" text-anchor="middle">2020</text>
<text class="ticklabel xtl" transform="translate(896.3,629.0)" text-anchor="middle">23</text>
<text class="ticklabel ytl" transform="translate(128.8,595.3)">-100</text>
<text class="ticklabel ytl" transform="translate(128.8,476.8)">0</text>
<text class="ticklabel ytl" transform="translate(128.8,358.3)">100</text>
<text class="ticklabel ytl" transform="translate(128.8,239.8)">200</text>
<text class="ticklabel ytl" transform="translate(128.8,121.3)">300 Mt</text>
<g stroke="#000" stroke-width="0.90" fill="#DBA746"  clip-path="url(#axis_clip)">
  <polygon points="147.8,106.7 147.8,113.4 165.2,113.4 165.2,106.7 147.8,106.7"/>
  <polygon points="169.5,167.6 169.5,174.3 186.9,174.3 186.9,167.6 169.5,167.6"/>
  <polygon points="191.3,222.4 191.3,229.0 208.7,229.0 208.7,222.4 191.3,222.4"/>
  <polygon points="213.1,240.1 213.1,246.5 230.5,246.5 230.5,240.1 213.1,240.1"/>
  <polygon points="234.8,252.7 234.8,259.2 252.2,259.2 252.2,252.7 234.8,252.7"/>
  <polygon points="256.6,255.9 256.6,262.4 274.0,262.4 274.0,255.9 256.6,255.9"/>
  <polygon points="278.3,248.1 278.3,254.9 295.7,254.9 295.7,248.1 278.3,248.1"/>
  <polygon points="300.1,244.5 300.1,251.4 317.5,251.4 317.5,244.5 300.1,244.5"/>
  <polygon points="321.9,252.2 321.9,259.2 339.3,259.2 339.3,252.2 321.9,252.2"/>
  <polygon points="343.6,272.4 343.6,279.2 361.0,279.2 361.0,272.4 343.6,272.4"/>
  <polygon points="365.4,293.4 365.4,300.3 382.8,300.3 382.8,293.4 365.4,293.4"/>
  <polygon points="387.1,302.5 387.1,309.6 404.5,309.6 404.5,302.5 387.1,302.5"/>
  <polygon points="408.9,297.8 408.9,304.9 426.3,304.9 426.3,297.8 408.9,297.8"/>
  <polygon points="430.7,295.3 430.7,302.5 448.1,302.5 448.1,295.3 430.7,295.3"/>
  <polygon points="452.4,287.6 452.4,295.1 469.8,295.1 469.8,287.6 452.4,287.6"/>
  <polygon points="474.2,289.5 474.2,297.1 491.6,297.1 491.6,289.5 474.2,289.5"/>
  <polygon points="495.9,291.0 495.9,298.8 513.3,298.8 513.3,291.0 495.9,291.0"/>
  <polygon points="517.7,289.4 517.7,296.8 535.1,296.8 535.1,289.4 517.7,289.4"/>
  <polygon points="539.5,286.0 539.5,293.6 556.9,293.6 556.9,286.0 539.5,286.0"/>
  <polygon points="561.2,290.2 561.2,297.8 578.6,297.8 578.6,290.2 561.2,290.2"/>
  <polygon points="583.0,315.5 583.0,323.0 600.4,323.0 600.4,315.5 583.0,315.5"/>
  <polygon points="604.7,321.9 604.7,329.6 622.1,329.6 622.1,321.9 604.7,321.9"/>
  <polygon points="626.5,313.2 626.5,320.2 643.9,320.2 643.9,313.2 626.5,313.2"/>
  <polygon points="648.3,316.9 648.3,324.2 665.7,324.2 665.7,316.9 648.3,316.9"/>
  <polygon points="670.0,330.5 670.0,338.1 687.4,338.1 687.4,330.5 670.0,330.5"/>
  <polygon points="691.8,330.3 691.8,337.9 709.2,337.9 709.2,330.3 691.8,330.3"/>
  <polygon points="713.5,332.0 713.5,339.5 730.9,339.5 730.9,332.0 713.5,332.0"/>
  <polygon points="735.3,334.5 735.3,342.0 752.7,342.0 752.7,334.5 735.3,334.5"/>
  <polygon points="757.1,331.2 757.1,338.8 774.5,338.8 774.5,331.2 757.1,331.2"/>
  <polygon points="778.8,330.4 778.8,337.9 796.2,337.9 796.2,330.4 778.8,330.4"/>
  <polygon points="800.6,334.2 800.6,341.9 818.0,341.9 818.0,334.2 800.6,334.2"/>
  <polygon points="822.3,338.8 822.3,346.5 839.7,346.5 839.7,338.8 822.3,338.8"/>
  <polygon points="844.1,334.3 844.1,341.9 861.5,341.9 861.5,334.3 844.1,334.3"/>
  <polygon points="865.9,341.2 865.9,348.7 883.3,348.7 883.3,341.2 865.9,341.2"/>
  <polygon points="887.6,348.0 887.6,355.5 905.0,355.5 905.0,348.0 887.6,348.0"/>
</g>
<g stroke="#000" stroke-width="0.90" fill="#845F48"  clip-path="url(#axis_clip)">
  <polygon points="147.8,113.4 147.8,158.8 165.2,158.8 165.2,113.4 147.8,113.4"/>
  <polygon points="169.5,174.3 169.5,214.7 186.9,214.7 186.9,174.3 169.5,174.3"/>
  <polygon points="191.3,229.0 191.3,262.9 208.7,262.9 208.7,229.0 191.3,229.0"/>
  <polygon points="213.1,246.5 213.1,276.3 230.5,276.3 230.5,246.5 213.1,246.5"/>
  <polygon points="234.8,259.2 234.8,288.8 252.2,288.8 252.2,259.2 234.8,259.2"/>
  <polygon points="256.6,262.4 256.6,290.9 274.0,290.9 274.0,262.4 256.6,262.4"/>
  <polygon points="278.3,254.9 278.3,283.6 295.7,283.6 295.7,254.9 278.3,254.9"/>
  <polygon points="300.1,251.4 300.1,279.4 317.5,279.4 317.5,251.4 300.1,251.4"/>
  <polygon points="321.9,259.2 321.9,285.6 339.3,285.6 339.3,259.2 321.9,259.2"/>
  <polygon points="343.6,279.2 343.6,304.9 361.0,304.9 361.0,279.2 343.6,279.2"/>
  <polygon points="365.4,300.3 365.4,324.7 382.8,324.7 382.8,300.3 365.4,300.3"/>
  <polygon points="387.1,309.6 387.1,332.8 404.5,332.8 404.5,309.6 387.1,309.6"/>
  <polygon points="408.9,304.9 408.9,328.2 426.3,328.2 426.3,304.9 408.9,304.9"/>
  <polygon points="430.7,302.5 430.7,326.3 448.1,326.3 448.1,302.5 430.7,302.5"/>
  <polygon points="452.4,295.1 452.4,319.4 469.8,319.4 469.8,295.1 452.4,295.1"/>
  <polygon points="474.2,297.1 474.2,321.3 491.6,321.3 491.6,297.1 474.2,297.1"/>
  <polygon points="495.9,298.8 495.9,323.4 513.3,323.4 513.3,298.8 495.9,298.8"/>
  <polygon points="517.7,296.8 517.7,321.8 535.1,321.8 535.1,296.8 517.7,296.8"/>
  <polygon points="539.5,293.6 539.5,318.2 556.9,318.2 556.9,293.6 539.5,293.6"/>
  <polygon points="561.2,297.8 561.2,322.0 578.6,322.0 578.6,297.8 561.2,297.8"/>
  <polygon points="583.0,323.0 583.0,346.5 600.4,346.5 600.4,323.0 583.0,323.0"/>
  <polygon points="604.7,329.6 604.7,350.7 622.1,350.7 622.1,329.6 604.7,329.6"/>
  <polygon points="626.5,320.2 626.5,341.6 643.9,341.6 643.9,320.2 626.5,320.2"/>
  <polygon points="648.3,324.2 648.3,345.3 665.7,345.3 665.7,324.2 648.3,324.2"/>
  <polygon points="670.0,338.1 670.0,359.9 687.4,359.9 687.4,338.1 670.0,338.1"/>
  <polygon points="691.8,337.9 691.8,359.8 709.2,359.8 709.2,337.9 691.8,337.9"/>
  <polygon points="713.5,339.5 713.5,361.8 730.9,361.8 730.9,339.5 713.5,339.5"/>
  <polygon points="735.3,342.0 735.3,364.1 752.7,364.1 752.7,342.0 735.3,342.0"/>
  <polygon points="757.1,338.8 757.1,361.0 774.5,361.0 774.5,338.8 757.1,338.8"/>
  <polygon points="778.8,337.9 778.8,360.9 796.2,360.9 796.2,337.9 778.8,337.9"/>
  <polygon points="800.6,341.9 800.6,364.5 818.0,364.5 818.0,341.9 800.6,341.9"/>
  <polygon points="822.3,346.5 822.3,368.5 839.7,368.5 839.7,346.5 822.3,346.5"/>
  <polygon points="844.1,341.9 844.1,364.4 861.5,364.4 861.5,341.9 844.1,341.9"/>
  <polygon points="865.9,348.7 865.9,370.0 883.3,370.0 883.3,348.7 865.9,348.7"/>
  <polygon points="887.6,355.5 887.6,376.7 905.0,376.7 905.0,355.5 887.6,355.5"/>
</g>
<g stroke="#000" stroke-width="0.90" fill="#4A89E8"  clip-path="url(#axis_clip)">
  <polygon points="147.8,158.8 147.8,207.4 165.2,207.4 165.2,158.8 147.8,158.8"/>
  <polygon points="169.5,214.7 169.5,249.5 186.9,249.5 186.9,214.7 169.5,214.7"/>
  <polygon points="191.3,262.9 191.3,287.3 208.7,287.3 208.7,262.9 191.3,262.9"/>
  <polygon points="213.1,276.3 213.1,297.8 230.5,297.8 230.5,276.3 213.1,276.3"/>
  <polygon points="234.8,288.8 234.8,310.1 252.2,310.1 252.2,288.8 234.8,288.8"/>
  <polygon points="256.6,290.9 256.6,312.3 274.0,312.3 274.0,290.9 256.6,290.9"/>
  <polygon points="278.3,283.6 278.3,308.2 295.7,308.2 295.7,283.6 278.3,283.6"/>
  <polygon points="300.1,279.4 300.1,303.2 317.5,303.2 317.5,279.4 300.1,279.4"/>
  <polygon points="321.9,285.6 321.9,307.5 339.3,307.5 339.3,285.6 321.9,285.6"/>
  <polygon points="343.6,304.9 343.6,325.5 361.0,325.5 361.0,304.9 343.6,304.9"/>
  <polygon points="365.4,324.7 365.4,342.5 382.8,342.5 382.8,324.7 365.4,324.7"/>
  <polygon points="387.1,332.8 387.1,352.4 404.5,352.4 404.5,332.8 387.1,332.8"/>
  <polygon points="408.9,328.2 408.9,347.7 426.3,347.7 426.3,328.2 408.9,328.2"/>
  <polygon points="430.7,326.3 430.7,347.1 448.1,347.1 448.1,326.3 430.7,326.3"/>
  <polygon points="452.4,319.4 452.4,341.9 469.8,341.9 469.8,319.4 452.4,319.4"/>
  <polygon points="474.2,321.3 474.2,346.4 491.6,346.4 491.6,321.3 474.2,321.3"/>
  <polygon points="495.9,323.4 495.9,348.5 513.3,348.5 513.3,323.4 495.9,323.4"/>
  <polygon points="517.7,321.8 517.7,346.2 535.1,346.2 535.1,321.8 517.7,321.8"/>
  <polygon points="539.5,318.2 539.5,342.8 556.9,342.8 556.9,318.2 539.5,318.2"/>
  <polygon points="561.2,322.0 561.2,342.6 578.6,342.6 578.6,322.0 561.2,322.0"/>
  <polygon points="583.0,346.5 583.0,360.0 600.4,360.0 600.4,346.5 583.0,346.5"/>
  <polygon points="604.7,350.7 604.7,366.1 622.1,366.1 622.1,350.7 604.7,350.7"/>
  <polygon points="626.5,341.6 626.5,357.6 643.9,357.6 643.9,341.6 626.5,341.6"/>
  <polygon points="648.3,345.3 648.3,359.7 665.7,359.7 665.7,345.3 648.3,345.3"/>
  <polygon points="670.0,359.9 670.0,372.2 687.4,372.2 687.4,359.9 670.0,359.9"/>
  <polygon points="691.8,359.8 691.8,373.0 709.2,373.0 709.2,359.8 691.8,359.8"/>
  <polygon points="713.5,361.8 713.5,374.8 730.9,374.8 730.9,361.8 713.5,361.8"/>
  <polygon points="735.3,364.1 735.3,377.2 752.7,377.2 752.7,364.1 735.3,364.1"/>
  <polygon points="757.1,361.0 757.1,374.0 774.5,374.0 774.5,361.0 757.1,361.0"/>
  <polygon points="778.8,360.9 778.8,374.1 796.2,374.1 796.2,360.9 778.8,360.9"/>
  <polygon points="800.6,364.5 800.6,377.7 818.0,377.7 818.0,364.5 800.6,364.5"/>
  <polygon points="822.3,368.5 822.3,381.8 839.7,381.8 839.7,368.5 822.3,368.5"/>
  <polygon points="844.1,364.4 844.1,377.6 861.5,377.6 861.5,364.4 844.1,364.4"/>
  <polygon points="865.9,370.0 865.9,379.9 883.3,379.9 883.3,370.0 865.9,370.0"/>
  <polygon points="887.6,376.7 887.6,384.3 905.0,384.3 905.0,376.7 887.6,376.7"/>
</g>
<g stroke="#000" stroke-width="0.90" fill="#FF7F61"  clip-path="url(#axis_clip)">
  <polygon points="147.8,207.4 147.8,468.7 165.2,468.7 165.2,207.4 147.8,207.4"/>
  <polygon points="169.5,249.5 169.5,468.7 186.9,468.7 186.9,249.5 169.5,249.5"/>
  <polygon points="191.3,287.3 191.3,468.7 208.7,468.7 208.7,287.3 191.3,287.3"/>
  <polygon points="213.1,297.8 213.1,468.7 230.5,468.7 230.5,297.8 213.1,297.8"/>
  <polygon points="234.8,310.1 234.8,468.7 252.2,468.7 252.2,310.1 234.8,310.1"/>
  <polygon points="256.6,312.3 256.6,468.7 274.0,468.7 274.0,312.3 256.6,312.3"/>
  <polygon points="278.3,308.2 278.3,468.7 295.7,468.7 295.7,308.2 278.3,308.2"/>
  <polygon points="300.1,303.2 300.1,468.7 317.5,468.7 317.5,303.2 300.1,303.2"/>
  <polygon points="321.9,307.5 321.9,468.7 339.3,468.7 339.3,307.5 321.9,307.5"/>
  <polygon points="343.6,325.5 343.6,468.7 361.0,468.7 361.0,325.5 343.6,325.5"/>
  <polygon points="365.4,342.5 365.4,468.7 382.8,468.7 382.8,342.5 365.4,342.5"/>
  <polygon points="387.1,352.4 387.1,468.7 404.5,468.7 404.5,352.4 387.1,352.4"/>
  <polygon points="408.9,347.7 408.9,468.7 426.3,468.7 426.3,347.7 408.9,347.7"/>
  <polygon points="430.7,347.1 430.7,468.7 448.1,468.7 448.1,347.1 430.7,347.1"/>
  <polygon points="452.4,341.9 452.4,468.7 469.8,468.7 469.8,341.9 452.4,341.9"/>
  <polygon points="474.2,346.4 474.2,468.7 491.6,468.7 491.6,346.4 474.2,346.4"/>
  <polygon points="495.9,348.5 495.9,468.7 513.3,468.7 513.3,348.5 495.9,348.5"/>
  <polygon points="517.7,346.2 517.7,468.7 535.1,468.7 535.1,346.2 517.7,346.2"/>
  <polygon points="539.5,342.8 539.5,468.7 556.9,468.7 556.9,342.8 539.5,342.8"/>
  <polygon points="561.2,342.6 561.2,468.7 578.6,468.7 578.6,342.6 561.2,342.6"/>
  <polygon points="583.0,360.0 583.0,468.7 600.4,468.7 600.4,360.0 583.0,360.0"/>
  <polygon points="604.7,366.1 604.7,468.7 622.1,468.7 622.1,366.1 604.7,366.1"/>
  <polygon points="626.5,357.6 626.5,468.7 643.9,468.7 643.9,357.6 626.5,357.6"/>
  <polygon points="648.3,359.7 648.3,468.7 665.7,468.7 665.7,359.7 648.3,359.7"/>
  <polygon points="670.0,372.2 670.0,468.7 687.4,468.7 687.4,372.2 670.0,372.2"/>
  <polygon points="691.8,373.0 691.8,468.7 709.2,468.7 709.2,373.0 691.8,373.0"/>
  <polygon points="713.5,374.8 713.5,468.7 730.9,468.7 730.9,374.8 713.5,374.8"/>
  <polygon points="735.3,377.2 735.3,468.7 752.7,468.7 752.7,377.2 735.3,377.2"/>
  <polygon points="757.1,374.0 757.1,468.7 774.5,468.7 774.5,374.0 757.1,374.0"/>
  <polygon points="778.8,374.1 778.8,468.7 796.2,468.7 796.2,374.1 778.8,374.1"/>
  <polygon points="800.6,377.7 800.6,468.7 818.0,468.7 818.0,377.7 800.6,377.7"/>
  <polygon points="822.3,381.8 822.3,468.7 839.7,468.7 839.7,381.8 822.3,381.8"/>
  <polygon points="844.1,377.6 844.1,468.7 861.5,468.7 861.5,377.6 844.1,377.6"/>
  <polygon points="865.9,379.9 865.9,468.7 883.3,468.7 883.3,379.9 865.9,379.9"/>
  <polygon points="887.6,384.3 887.6,468.7 905.0,468.7 905.0,384.3 887.6,384.3"/>
</g>
<g stroke="#000" stroke-width="0.90" fill="#7FBF7F"  clip-path="url(#axis_clip)">
  <polygon points="147.8,493.7 147.8,468.7 165.2,468.7 165.2,493.7 147.8,493.7"/>
  <polygon points="169.5,499.8 169.5,468.7 186.9,468.7 186.9,499.8 169.5,499.8"/>
  <polygon points="191.3,500.1 191.3,468.7 208.7,468.7 208.7,500.1 191.3,500.1"/>
  <polygon points="213.1,501.6 213.1,468.7 230.5,468.7 230.5,501.6 213.1,501.6"/>
  <polygon points="234.8,503.0 234.8,468.7 252.2,468.7 252.2,503.0 234.8,503.0"/>
  <polygon points="256.6,502.4 256.6,468.7 274.0,468.7 274.0,502.4 256.6,502.4"/>
  <polygon points="278.3,502.1 278.3,468.7 295.7,468.7 295.7,502.1 278.3,502.1"/>
  <polygon points="300.1,501.3 300.1,468.7 317.5,468.7 317.5,501.3 300.1,501.3"/>
  <polygon points="321.9,502.1 321.9,468.7 339.3,468.7 339.3,502.1 321.9,502.1"/>
  <polygon points="343.6,504.4 343.6,468.7 361.0,468.7 361.0,504.4 343.6,504.4"/>
  <polygon points="365.4,504.2 365.4,468.7 382.8,468.7 382.8,504.2 365.4,504.2"/>
  <polygon points="387.1,504.4 387.1,468.7 404.5,468.7 404.5,504.4 387.1,504.4"/>
  <polygon points="408.9,505.3 408.9,468.7 426.3,468.7 426.3,505.3 408.9,505.3"/>
  <polygon points="430.7,503.6 430.7,468.7 448.1,468.7 448.1,503.6 430.7,503.6"/>
  <polygon points="452.4,504.3 452.4,468.7 469.8,468.7 469.8,504.3 452.4,504.3"/>
  <polygon points="474.2,504.3 474.2,468.7 491.6,468.7 491.6,504.3 474.2,504.3"/>
  <polygon points="495.9,505.4 495.9,468.7 513.3,468.7 513.3,505.4 495.9,505.4"/>
  <polygon points="517.7,504.9 517.7,468.7 535.1,468.7 535.1,504.9 517.7,504.9"/>
  <polygon points="539.5,506.2 539.5,468.7 556.9,468.7 556.9,506.2 539.5,506.2"/>
  <polygon points="561.2,506.9 561.2,468.7 578.6,468.7 578.6,506.9 561.2,506.9"/>
  <polygon points="583.0,503.3 583.0,468.7 600.4,468.7 600.4,503.3 583.0,503.3"/>
  <polygon points="604.7,510.2 604.7,468.7 622.1,468.7 622.1,510.2 604.7,510.2"/>
  <polygon points="626.5,510.9 626.5,468.7 643.9,468.7 643.9,510.9 626.5,510.9"/>
  <polygon points="648.3,513.9 648.3,468.7 665.7,468.7 665.7,513.9 648.3,513.9"/>
  <polygon points="670.0,514.0 670.0,468.7 687.4,468.7 687.4,514.0 670.0,514.0"/>
  <polygon points="691.8,527.1 691.8,468.7 709.2,468.7 709.2,527.1 691.8,527.1"/>
  <polygon points="713.5,526.1 713.5,468.7 730.9,468.7 730.9,526.1 713.5,526.1"/>
  <polygon points="735.3,528.5 735.3,468.7 752.7,468.7 752.7,528.5 735.3,528.5"/>
  <polygon points="757.1,526.4 757.1,468.7 774.5,468.7 774.5,526.4 757.1,526.4"/>
  <polygon points="778.8,524.1 778.8,468.7 796.2,468.7 796.2,524.1 778.8,524.1"/>
  <polygon points="800.6,524.1 800.6,468.7 818.0,468.7 818.0,524.1 800.6,524.1"/>
  <polygon points="822.3,526.9 822.3,468.7 839.7,468.7 839.7,526.9 822.3,526.9"/>
  <polygon points="844.1,525.3 844.1,468.7 861.5,468.7 861.5,525.3 844.1,525.3"/>
  <polygon points="865.9,522.8 865.9,468.7 883.3,468.7 883.3,522.8 865.9,522.8"/>
  <polygon points="887.6,523.7 887.6,468.7 905.0,468.7 905.0,523.7 887.6,523.7"/>
</g>
<polyline class="pl" points="156.5,131.7 178.2,198.7 200.0,253.8 221.8,273.0 243.5,287.0 265.3,289.6 287.0,281.5 308.8,277.1 330.6,285.6 352.3,308.1 374.1,328.9 395.8,338.2 417.6,334.4 439.4,330.2 461.1,323.3 482.9,325.1 504.6,327.7 526.4,325.6 548.2,323.5 569.9,328.4 591.7,350.0 613.4,363.5 635.2,355.5 657.0,362.1 678.7,375.8 700.5,388.7 722.2,389.4 744.0,394.3 765.8,388.9 787.5,385.8 809.3,389.6 831.0,397.0 852.8,390.9 874.6,395.3 896.3,403.1" stroke="#000" stroke-width="5.40" stroke-opacity="1.00" fill="none" clip-path="url(#axis_clip)"/>
<g class="pl" fill="#FFF" stroke="#000" stroke-width="0.900">
  <circle cx="156.5" cy="131.7" r="2.2" />
  <circle cx="200.0" cy="253.8" r="2.2" />
  <circle cx="221.8" cy="273.0" r="2.2" />
  <circle cx="243.5" cy="287.0" r="2.2" />
  <circle cx="265.3" cy="289.6" r="2.2" />
  <circle cx="287.0" cy="281.5" r="2.2" />
  <circle cx="308.8" cy="277.1" r="2.2" />
  <circle cx="330.6" cy="285.6" r="2.2" />
  <circle cx="352.3" cy="308.1" r="2.2" />
  <circle cx="374.1" cy="328.9" r="2.2" />
  <circle cx="417.6" cy="334.4" r="2.2" />
  <circle cx="439.4" cy="330.2" r="2.2" />
  <circle cx="461.1" cy="323.3" r="2.2" />
  <circle cx="482.9" cy="325.1" r="2.2" />
  <circle cx="504.6" cy="327.7" r="2.2" />
  <circle cx="526.4" cy="325.6" r="2.2" />
  <circle cx="548.2" cy="323.5" r="2.2" />
  <circle cx="569.9" cy="328.4" r="2.2" />
  <circle cx="591.7" cy="350.0" r="2.2" />
  <circle cx="635.2" cy="355.5" r="2.2" />
  <circle cx="657.0" cy="362.1" r="2.2" />
  <circle cx="678.7" cy="375.8" r="2.2" />
  <circle cx="700.5" cy="388.7" r="2.2" />
  <circle cx="722.2" cy="389.4" r="2.2" />
  <circle cx="744.0" cy="394.3" r="2.2" />
  <circle cx="765.8" cy="388.9" r="2.2" />
  <circle cx="787.5" cy="385.8" r="2.2" />
  <circle cx="809.3" cy="389.6" r="2.2" />
  <circle cx="852.8" cy="390.9" r="2.2" />
  <circle cx="874.6" cy="395.3" r="2.2" />
  <circle cx="896.3" cy="403.1" r="2.2" />
</g>
<g class="pl" fill="#FFF" stroke="#000" stroke-width="0.900">
  <circle cx="178.2" cy="198.7" r="5.4" />
  <circle cx="395.8" cy="338.2" r="5.4" />
  <circle cx="613.4" cy="363.5" r="5.4" />
  <circle cx="831.0" cy="397.0" r="5.4" />
</g>
<text transform="translate(145.6,47.2)" dy="0.0" font-size="27.00" fill="#808080" stroke="none">Annual Greenhouse Gas Emissions: Romania</text>
<text transform="translate(130.0,140.9)" dy="8.1" font-size="27.00" fill="#808080" stroke="none" text-anchor="end">CO<tspan dy="0.2em"><tspan style="font-size:70%">2</tspan></tspan><tspan dy="-0.2em">e</tspan></text>
<text transform="translate(945.6,410.6)" dy="7.6" font-size="25.20" fill="#000" stroke="none">-80.5% since 1989</text>
<text transform="translate(945.6,435.7)" dy="7.6" font-size="25.20" fill="#FF7F61" stroke="none">Energy</text>
<text transform="translate(945.6,385.6)" dy="7.6" font-size="25.20" fill="#4A89E8" stroke="none">Industrial Processes</text>
<text transform="translate(945.6,360.6)" dy="7.6" font-size="25.20" fill="#845F48" stroke="none">Agriculture</text>
<text transform="translate(945.6,335.5)" dy="7.6" font-size="25.20" fill="#DBA746" stroke="none">Waste</text>
<text transform="translate(945.6,496.2)" dy="7.6" font-size="25.20" fill="#7FBF7F" stroke="none">LULUCF</text>
<polyline class="pl" points="910.8,403.1 912.4,403.1 913.8,403.2 915.2,403.3 916.4,403.4 917.6,403.6 918.8,403.9 919.8,404.2 920.8,404.5 921.7,404.8 922.7,405.1 923.5,405.5 924.4,405.9 925.2,406.3 926.0,406.6 926.8,407.0 927.6,407.4 928.4,407.8 929.3,408.2 930.1,408.6 931.1,408.9 932.0,409.2 933.0,409.5 934.0,409.8 935.2,410.0 936.4,410.2 937.6,410.4 939.0,410.5 940.4,410.6 942.0,410.6" stroke="#000" stroke-width="0.90" stroke-opacity="1.00" fill="none" />
<polyline class="pl" points="910.8,426.5 912.4,426.5 913.8,426.6 915.2,426.8 916.4,427.0 917.6,427.2 918.8,427.5 919.8,427.8 920.8,428.2 921.7,428.6 922.7,429.0 923.5,429.5 924.4,429.9 925.2,430.4 926.0,430.8 926.8,431.3 927.6,431.8 928.4,432.3 929.3,432.7 930.1,433.2 931.1,433.6 932.0,434.0 933.0,434.3 934.0,434.7 935.2,434.9 936.4,435.2 937.6,435.4 939.0,435.5 940.4,435.6 942.0,435.7" stroke="#FF7F61" stroke-width="0.90" stroke-opacity="1.00" fill="none" />
<polyline class="pl" points="910.8,380.5 912.4,380.5 913.8,380.6 915.2,380.7 916.4,380.8 917.6,380.9 918.8,381.1 919.8,381.3 920.8,381.5 921.7,381.7 922.7,381.9 923.5,382.2 924.4,382.4 925.2,382.7 926.0,382.9 926.8,383.2 927.6,383.4 928.4,383.7 929.3,384.0 930.1,384.2 931.1,384.4 932.0,384.6 933.0,384.8 934.0,385.0 935.2,385.2 936.4,385.3 937.6,385.4 939.0,385.5 940.4,385.6 942.0,385.6" stroke="#4A89E8" stroke-width="0.90" stroke-opacity="1.00" fill="none" />
<polyline class="pl" points="910.8,366.1 912.4,366.1 913.8,366.1 915.2,366.0 916.4,365.8 917.6,365.7 918.8,365.5 919.8,365.3 920.8,365.1 921.7,364.9 922.7,364.6 923.5,364.3 924.4,364.1 925.2,363.8 926.0,363.5 926.8,363.2 927.6,362.9 928.4,362.6 929.3,362.4 930.1,362.1 931.1,361.8 932.0,361.6 933.0,361.4 934.0,361.2 935.2,361.0 936.4,360.8 937.6,360.7 939.0,360.6 940.4,360.6 942.0,360.6" stroke="#845F48" stroke-width="0.90" stroke-opacity="1.00" fill="none" />
<polyline class="pl" points="910.8,351.8 912.4,351.7 913.8,351.6 915.2,351.3 916.4,350.9 917.6,350.5 918.8,350.0 919.8,349.4 920.8,348.8 921.7,348.1 922.7,347.3 923.5,346.5 924.4,345.7 925.2,344.9 926.0,344.1 926.8,343.2 927.6,342.4 928.4,341.6 929.3,340.8 930.1,340.0 931.1,339.2 932.0,338.5 933.0,337.9 934.0,337.3 935.2,336.8 936.4,336.4 937.6,336.0 939.0,335.7 940.4,335.6 942.0,335.5" stroke="#DBA746" stroke-width="0.90" stroke-opacity="1.00" fill="none" />
<text transform="translate(160.0,666.1)" font-size="19.80" font-family="Helvetica" fill="#BFBFBF" stroke="none" xml:space="preserve">CICERO   &#9679;   Data: UNFCCC (2025)</text>
<g>
  <rect x="123.0" y="651.4" width="34" height="17" fill="#FFF" stroke="none" opacity="0.01"/>
  <g transform="translate(124.0,652.4) scale(0.24)">
  <g><circle fill="#FFF" cx="37.79" cy="28.5" r="28.84"/>
     <circle fill="none" cx="37.79" cy="28.5" r="28.84" stroke="#BFBFBF" stroke-width="5.5"/>
     <path fill="#BFBFBF" d="M37.16,23.19 l-4.29,2.23c-0.458-0.951-1.02-1.62-1.69-2c-0.667-0.38-1.29-0.571-1.86-0.571c-2.86,0-4.29,1.89-4.29,5.66 c0,1.71,0.36,3.08,1.09,4.11c0.724,1.03,1.79,1.54,3.2,1.54c1.87,0,3.18-0.915,3.94-2.74l3.94,2 c-0.838,1.56-2,2.79-3.49,3.69c-1.48,0.896-3.12,1.34-4.91,1.34c-2.86,0-5.16-0.875-6.92-2.63 c-1.75-1.75-2.63-4.19-2.63-7.31c0-3.05,0.886-5.47,2.66-7.26c1.77-1.79,4.01-2.69,6.72-2.69 C32.6,18.56,35.44,20.1,37.16,23.19z
              M55.61,23.19l-4.23,2.23c-0.457-0.951-1.02-1.62-1.69-2 c-0.668-0.38-1.31-0.571-1.91-0.571c-2.86,0-4.29,1.89-4.29,5.66c0,1.71,0.363,3.08,1.09,4.11 c0.723,1.03,1.79,1.54,3.2,1.54c1.87,0,3.18-0.915,3.94-2.74l4,2c-0.875,1.56-2.06,2.79-3.54,3.69 c-1.49,0.9-3.11,1.34-4.86,1.34c-2.9,0-5.21-0.875-6.94-2.63c-1.74-1.75-2.6-4.19-2.6-7.31 c0-3.05,0.885-5.47,2.66-7.26c1.77-1.79,4.01-2.69,6.71-2.69C51.12,18.56,53.944,20.1,55.61,23.19z"/>
  </g></g>
  <g transform="translate(140.2,652.4) scale(0.24)">
  <g><circle fill="#FFF" cx="37.79" cy="28.5" r="28.84"/>
     <circle fill="none" cx="37.79" cy="28.5" r="28.84" stroke="#BFBFBF" stroke-width="5.5"/>
     <path fill="#BFBFBF" d="M46.129,20.557v13.085h-3.656v15.542h-9.944V33.643h-3.656V20.557 c0-0.572,0.2-1.057,0.599-1.457c0.401-0.399,0.887-0.6,1.457-0.6h13.144c0.533,0,1.01,0.2,1.428,0.6 C45.918,19.5,46.129,19.986,46.129,20.557z
              M33.042,12.329c0-3.008,1.485-4.514,4.458-4.514s4.457,1.504,4.457,4.514 c0,2.971-1.486,4.457-4.457,4.457S33.042,15.3,33.042,12.329z"/>
  </g></g>
</g>
</g>
</svg>
