<svg version="1.1" xmlns="http://www.w3.org/2000/svg" xmlns:xlink="http://www.w3.org/1999/xlink" width="100%" height="100%" viewBox="0 0 1200.000 674.916">
<title>Annual CO2 Emissions: Romania</title>
<style type="text/css">
  #main {font-family:Helvetica,Arial,sans-serif; font-size:27.00px;
         fill-opacity:1; fill:#000000; stroke:none; stroke-linejoin:round; stroke-linecap:round; stroke-width:1.00;}
  .marker {stroke-opacity:0;fill-opacity:0;}
  .marker:hover {stroke-opacity:0.5; fill-opacity:1;}
  .ticklabel {font-size:27.00px;fill:#808080;stroke:none;font-family:Helvetica}
  .ytl {text-anchor:end;}
  .dp1 {pointer-events:none;font-size:70%;text-anchor:middle;fill:#000000;}
  .dp2 {pointer-events:none;font-size:70%;text-anchor:middle;fill:#FFFFFF;}
  .numtip {pointer-events:none;}
  .cc {opacity:0.25;}
.dl_fe {background-color:#FDFFDF;display:flex;margin:auto;align-items:center}
.dl_fe_p {font-size:20px;text-align:center;margin:3px}
.dl_el {display:none;pointer-events:none;}
.cc:hover + .dl_el {display:block;}
text:hover + .dl_el {display:block;}
</style>
<defs>
  <clipPath id="axis_clip"><rect x="145.8" y="54.2" width="761.2" height="532.8" /></clipPath>
  <path id="line_y" d="M 0,53.993 v 533.183" stroke="#262626" stroke-opacity="0.15" stroke-width="1.00"/>
  <path id="line_x" d="M 145.600,0 h 761.600" stroke="#262626" stroke-opacity="0.15" stroke-width="1.00"/>
  <path id="tick_y" d="M 145.600,0 h -6.000" stroke="#808080" stroke-width="0.90"/>
  <path id="tick_x" d="M 0,587.177 v 6.000" stroke="#808080" stroke-width="0.90"/>
</defs>
<g id="main">
<use xlink:href="#line_y" transform="translate(178.2,0)"/>
<use xlink:href="#line_y" transform="translate(287.0,0)"/>
<use xlink:href="#line_y" transform="translate(395.8,0)"/>
<use xlink:href="#line_y" transform="translate(504.6,0)"/>
<use xlink:href="#line_y" transform="translate(613.4,0)"/>
<use xlink:href="#line_y" transform="translate(722.2,0)"/>
<use xlink:href="#line_y" transform="translate(831.0,0)"/>
<use xlink:href="#line_y" transform="translate(896.3,0)"/>
<use xlink:href="#line_x" transform="translate(0,587.2)"/>
<use xlink:href="#line_x" transform="translate(0,434.8)"/>
<use xlink:href="#line_x" transform="translate(0,282.5)"/>
<use xlink:href="#line_x" transform="translate(0,130.2)"/>
<use xlink:href="#tick_y" transform="translate(0,587.2)"/>
<use xlink:href="#tick_y" transform="translate(0,434.8)"/>
<use xlink:href="#tick_y" transform="translate(0,282.5)"/>
<use xlink:href="#tick_y" transform="translate(0,130.2)"/>
<use xlink:href="#tick_x" transform="translate(178.2,0)"/>
<use xlink:href="#tick_x" transform="translate(287.0,0)"/>
<use xlink:href="#tick_x" transform="translate(395.8,0)"/>
<use xlink:href="#tick_x" transform="translate(504.6,0)"/>
<use xlink:href="#tick_x" transform="translate(613.4,0)"/>
<use xlink:href="#tick_x" transform="translate(722.2,0)"/>
<use xlink:href="#tick_x" transform="translate(831.0,0)"/>
<use xlink:href="#tick_x" transform="translate(896.3,0)"/>
<polyline points="145.6,53.993 145.6,587.177 907.2,587.177" stroke="#808080" stroke-width="0.90" fill="none"/>
<text class="ticklabel xtl" transform="translate(178.2,629.0)" text-anchor="middle">1990</text>
<text class="ticklabel xtl" transform="translate(287.0,629.0)" text-anchor="middle">1995</text>
<text class="ticklabel xtl" transform="translate(395.8,629.0)" text-anchor="middle">2000</text>
<text class="ticklabel xtl" transform="translate(504.6,629.0)" text-anchor="middle">2005</text>
<text class="ticklabel xtl" transform="translate(613.4,629.0)" text-anchor="middle">2010</text>
<text class="ticklabel xtl" transform="translate(722.2,629.0)" text-anchor="middle">2015</text>
<text class="ticklabel xtl" transform="translate(831.0,629.0)" text-anchor="middle">2020</text>
<text class="ticklabel xtl" transform="translate(896.3,629.0)" text-anchor="middle">23</text>
<text class="ticklabel ytl" transform="translate(128.8,595.3)">-100</text>
<text class="ticklabel ytl" transform="translate(128.8,442.9)">0</text>
<text class="ticklabel ytl" transform="translate(128.8,290.6)">100</text>
<text class="ticklabel ytl" transform="translate(128.8,138.3)">200 Mt</text>
<g stroke="#000" stroke-width="0.90" fill="#DBA746"  clip-path="url(#axis_clip)">
  <polygon points="147.8,116.5 147.8,116.5 165.2,116.5 165.2,116.5 147.8,116.5"/>
  <polygon points="169.5,165.9 169.5,165.9 186.9,165.9 186.9,165.9 169.5,165.9"/>
  <polygon points="191.3,218.1 191.3,218.1 208.7,218.1 208.7,218.1 191.3,218.1"/>
  <polygon points="213.1,233.7 213.1,233.8 230.5,233.8 230.5,233.7 213.1,233.7"/>
  <polygon points="234.8,247.9 234.8,247.9 252.2,247.9 252.2,247.9 234.8,247.9"/>
  <polygon points="256.6,250.7 256.6,250.7 274.0,250.7 274.0,250.7 256.6,250.7"/>
  <polygon points="278.3,243.4 278.3,243.4 295.7,243.4 295.7,243.4 278.3,243.4"/>
  <polygon points="300.1,238.1 300.1,238.2 317.5,238.2 317.5,238.1 300.1,238.1"/>
  <polygon points="321.9,254.9 321.9,254.9 339.3,254.9 339.3,254.9 321.9,254.9"/>
  <polygon points="343.6,275.2 343.6,275.2 361.0,275.2 361.0,275.2 343.6,275.2"/>
  <polygon points="365.4,299.4 365.4,299.5 382.8,299.5 382.8,299.4 365.4,299.4"/>
  <polygon points="387.1,292.8 387.1,292.9 404.5,292.9 404.5,292.8 387.1,292.8"/>
  <polygon points="408.9,284.1 408.9,284.2 426.3,284.2 426.3,284.1 408.9,284.1"/>
  <polygon points="430.7,283.9 430.7,284.0 448.1,284.0 448.1,283.9 430.7,283.9"/>
  <polygon points="452.4,276.9 452.4,276.9 469.8,276.9 469.8,276.9 452.4,276.9"/>
  <polygon points="474.2,277.6 474.2,277.7 491.6,277.7 491.6,277.6 474.2,277.6"/>
  <polygon points="495.9,280.5 495.9,280.6 513.3,280.6 513.3,280.5 495.9,280.5"/>
  <polygon points="517.7,276.0 517.7,276.0 535.1,276.0 535.1,276.0 517.7,276.0"/>
  <polygon points="539.5,269.6 539.5,269.6 556.9,269.6 556.9,269.6 539.5,269.6"/>
  <polygon points="561.2,271.8 561.2,271.8 578.6,271.8 578.6,271.8 561.2,271.8"/>
  <polygon points="583.0,301.1 583.0,301.1 600.4,301.1 600.4,301.1 583.0,301.1"/>
  <polygon points="604.7,306.1 604.7,306.1 622.1,306.1 622.1,306.1 604.7,306.1"/>
  <polygon points="626.5,294.1 626.5,294.1 643.9,294.1 643.9,294.1 626.5,294.1"/>
  <polygon points="648.3,298.0 648.3,298.0 665.7,298.0 665.7,298.0 648.3,298.0"/>
  <polygon points="670.0,314.8 670.0,314.8 687.4,314.8 687.4,314.8 670.0,314.8"/>
  <polygon points="691.8,314.0 691.8,314.0 709.2,314.0 709.2,314.0 691.8,314.0"/>
  <polygon points="713.5,315.9 713.5,315.9 730.9,315.9 730.9,315.9 713.5,315.9"/>
  <polygon points="735.3,318.2 735.3,318.2 752.7,318.2 752.7,318.2 735.3,318.2"/>
  <polygon points="757.1,313.8 757.1,313.8 774.5,313.8 774.5,313.8 757.1,313.8"/>
  <polygon points="778.8,313.2 778.8,313.2 796.2,313.2 796.2,313.2 778.8,313.2"/>
  <polygon points="800.6,318.0 800.6,318.0 818.0,318.0 818.0,318.0 800.6,318.0"/>
  <polygon points="822.3,322.2 822.3,322.2 839.7,322.2 839.7,322.2 822.3,322.2"/>
  <polygon points="844.1,316.8 844.1,316.8 861.5,316.8 861.5,316.8 844.1,316.8"/>
  <polygon points="865.9,323.3 865.9,323.4 883.3,323.4 883.3,323.3 865.9,323.3"/>
  <polygon points="887.6,331.5 887.6,331.5 905.0,331.5 905.0,331.5 887.6,331.5"/>
</g>
<g stroke="#000" stroke-width="0.90" fill="#845F48"  clip-path="url(#axis_clip)">
  <polygon points="147.8,116.5 147.8,116.9 165.2,116.9 165.2,116.5 147.8,116.5"/>
  <polygon points="169.5,165.9 169.5,166.2 186.9,166.2 186.9,165.9 169.5,165.9"/>
  <polygon points="191.3,218.1 191.3,218.2 208.7,218.2 208.7,218.1 191.3,218.1"/>
  <polygon points="213.1,233.8 213.1,233.9 230.5,233.9 230.5,233.8 213.1,233.8"/>
  <polygon points="234.8,247.9 234.8,248.1 252.2,248.1 252.2,247.9 234.8,247.9"/>
  <polygon points="256.6,250.7 256.6,250.9 274.0,250.9 274.0,250.7 256.6,250.7"/>
  <polygon points="278.3,243.4 278.3,243.6 295.7,243.6 295.7,243.4 278.3,243.4"/>
  <polygon points="300.1,238.2 300.1,238.3 317.5,238.3 317.5,238.2 300.1,238.2"/>
  <polygon points="321.9,254.9 321.9,255.1 339.3,255.1 339.3,254.9 321.9,254.9"/>
  <polygon points="343.6,275.2 343.6,275.4 361.0,275.4 361.0,275.2 343.6,275.2"/>
  <polygon points="365.4,299.5 365.4,299.6 382.8,299.6 382.8,299.5 365.4,299.5"/>
  <polygon points="387.1,292.9 387.1,293.1 404.5,293.1 404.5,292.9 387.1,292.9"/>
  <polygon points="408.9,284.2 408.9,284.4 426.3,284.4 426.3,284.2 408.9,284.2"/>
  <polygon points="430.7,284.0 430.7,284.1 448.1,284.1 448.1,284.0 430.7,284.0"/>
  <polygon points="452.4,276.9 452.4,277.1 469.8,277.1 469.8,276.9 452.4,276.9"/>
  <polygon points="474.2,277.7 474.2,277.9 491.6,277.9 491.6,277.7 474.2,277.7"/>
  <polygon points="495.9,280.6 495.9,280.8 513.3,280.8 513.3,280.6 495.9,280.6"/>
  <polygon points="517.7,276.0 517.7,276.2 535.1,276.2 535.1,276.0 517.7,276.0"/>
  <polygon points="539.5,269.6 539.5,269.7 556.9,269.7 556.9,269.6 539.5,269.6"/>
  <polygon points="561.2,271.8 561.2,272.1 578.6,272.1 578.6,271.8 561.2,271.8"/>
  <polygon points="583.0,301.1 583.0,301.3 600.4,301.3 600.4,301.1 583.0,301.1"/>
  <polygon points="604.7,306.1 604.7,306.3 622.1,306.3 622.1,306.1 604.7,306.1"/>
  <polygon points="626.5,294.1 626.5,294.2 643.9,294.2 643.9,294.1 626.5,294.1"/>
  <polygon points="648.3,298.0 648.3,298.1 665.7,298.1 665.7,298.0 648.3,298.0"/>
  <polygon points="670.0,314.8 670.0,314.9 687.4,314.9 687.4,314.8 670.0,314.8"/>
  <polygon points="691.8,314.0 691.8,314.1 709.2,314.1 709.2,314.0 691.8,314.0"/>
  <polygon points="713.5,315.9 713.5,316.1 730.9,316.1 730.9,315.9 713.5,315.9"/>
  <polygon points="735.3,318.2 735.3,318.3 752.7,318.3 752.7,318.2 735.3,318.2"/>
  <polygon points="757.1,313.8 757.1,314.0 774.5,314.0 774.5,313.8 757.1,313.8"/>
  <polygon points="778.8,313.2 778.8,313.4 796.2,313.4 796.2,313.2 778.8,313.2"/>
  <polygon points="800.6,318.0 800.6,318.2 818.0,318.2 818.0,318.0 800.6,318.0"/>
  <polygon points="822.3,322.2 822.3,322.4 839.7,322.4 839.7,322.2 822.3,322.2"/>
  <polygon points="844.1,316.8 844.1,317.0 861.5,317.0 861.5,316.8 844.1,316.8"/>
  <polygon points="865.9,323.4 865.9,323.6 883.3,323.6 883.3,323.4 865.9,323.4"/>
  <polygon points="887.6,331.5 887.6,331.7 905.0,331.7 905.0,331.5 887.6,331.5"/>
</g>
<g stroke="#000" stroke-width="0.90" fill="#4A89E8"  clip-path="url(#axis_clip)">
  <polygon points="147.8,116.9 147.8,170.7 165.2,170.7 165.2,116.9 147.8,116.9"/>
  <polygon points="169.5,166.2 169.5,205.2 186.9,205.2 186.9,166.2 169.5,166.2"/>
  <polygon points="191.3,218.2 191.3,246.0 208.7,246.0 208.7,218.2 191.3,218.2"/>
  <polygon points="213.1,233.9 213.1,257.0 230.5,257.0 230.5,233.9 213.1,233.9"/>
  <polygon points="234.8,248.1 234.8,270.8 252.2,270.8 252.2,248.1 234.8,248.1"/>
  <polygon points="256.6,250.9 256.6,274.3 274.0,274.3 274.0,250.9 256.6,250.9"/>
  <polygon points="278.3,243.6 278.3,270.6 295.7,270.6 295.7,243.6 278.3,243.6"/>
  <polygon points="300.1,238.3 300.1,264.1 317.5,264.1 317.5,238.3 300.1,238.3"/>
  <polygon points="321.9,255.1 321.9,279.1 339.3,279.1 339.3,255.1 321.9,255.1"/>
  <polygon points="343.6,275.4 343.6,298.6 361.0,298.6 361.0,275.4 343.6,275.4"/>
  <polygon points="365.4,299.6 365.4,319.1 382.8,319.1 382.8,299.6 365.4,299.6"/>
  <polygon points="387.1,293.1 387.1,313.7 404.5,313.7 404.5,293.1 387.1,293.1"/>
  <polygon points="408.9,284.4 408.9,305.9 426.3,305.9 426.3,284.4 408.9,284.4"/>
  <polygon points="430.7,284.1 430.7,308.0 448.1,308.0 448.1,284.1 430.7,284.1"/>
  <polygon points="452.4,277.1 452.4,302.4 469.8,302.4 469.8,277.1 452.4,277.1"/>
  <polygon points="474.2,277.9 474.2,306.1 491.6,306.1 491.6,277.9 474.2,277.9"/>
  <polygon points="495.9,280.8 495.9,308.9 513.3,308.9 513.3,280.8 495.9,280.8"/>
  <polygon points="517.7,276.2 517.7,304.3 535.1,304.3 535.1,276.2 517.7,276.2"/>
  <polygon points="539.5,269.7 539.5,297.7 556.9,297.7 556.9,269.7 539.5,269.7"/>
  <polygon points="561.2,272.1 561.2,297.0 578.6,297.0 578.6,272.1 561.2,272.1"/>
  <polygon points="583.0,301.3 583.0,317.6 600.4,317.6 600.4,301.3 583.0,301.3"/>
  <polygon points="604.7,306.3 604.7,324.5 622.1,324.5 622.1,306.3 604.7,306.3"/>
  <polygon points="626.5,294.2 626.5,313.1 643.9,313.1 643.9,294.2 626.5,294.2"/>
  <polygon points="648.3,298.1 648.3,315.2 665.7,315.2 665.7,298.1 648.3,298.1"/>
  <polygon points="670.0,314.9 670.0,330.1 687.4,330.1 687.4,314.9 670.0,314.9"/>
  <polygon points="691.8,314.1 691.8,330.5 709.2,330.5 709.2,314.1 691.8,314.1"/>
  <polygon points="713.5,316.1 713.5,332.4 730.9,332.4 730.9,316.1 713.5,316.1"/>
  <polygon points="735.3,318.3 735.3,334.6 752.7,334.6 752.7,318.3 735.3,318.3"/>
  <polygon points="757.1,314.0 757.1,330.4 774.5,330.4 774.5,314.0 757.1,314.0"/>
  <polygon points="778.8,313.4 778.8,330.1 796.2,330.1 796.2,313.4 778.8,313.4"/>
  <polygon points="800.6,318.2 800.6,334.9 818.0,334.9 818.0,318.2 800.6,318.2"/>
  <polygon points="822.3,322.4 822.3,339.3 839.7,339.3 839.7,322.4 822.3,322.4"/>
  <polygon points="844.1,317.0 844.1,333.9 861.5,333.9 861.5,317.0 844.1,317.0"/>
  <polygon points="865.9,323.6 865.9,336.3 883.3,336.3 883.3,323.6 865.9,323.6"/>
  <polygon points="887.6,331.7 887.6,341.3 905.0,341.3 905.0,331.7 887.6,331.7"/>
</g>
<g stroke="#000" stroke-width="0.90" fill="#FF7F61"  clip-path="url(#axis_clip)">
  <polygon points="147.8,170.7 147.8,434.8 165.2,434.8 165.2,170.7 147.8,170.7"/>
  <polygon points="169.5,205.2 169.5,434.8 186.9,434.8 186.9,205.2 169.5,205.2"/>
  <polygon points="191.3,246.0 191.3,434.8 208.7,434.8 208.7,246.0 191.3,246.0"/>
  <polygon points="213.1,257.0 213.1,434.8 230.5,434.8 230.5,257.0 213.1,257.0"/>
  <polygon points="234.8,270.8 234.8,434.8 252.2,434.8 252.2,270.8 234.8,270.8"/>
  <polygon points="256.6,274.3 256.6,434.8 274.0,434.8 274.0,274.3 256.6,274.3"/>
  <polygon points="278.3,270.6 278.3,434.8 295.7,434.8 295.7,270.6 278.3,270.6"/>
  <polygon points="300.1,264.1 300.1,434.8 317.5,434.8 317.5,264.1 300.1,264.1"/>
  <polygon points="321.9,279.1 321.9,434.8 339.3,434.8 339.3,279.1 321.9,279.1"/>
  <polygon points="343.6,298.6 343.6,434.8 361.0,434.8 361.0,298.6 343.6,298.6"/>
  <polygon points="365.4,319.1 365.4,434.8 382.8,434.8 382.8,319.1 365.4,319.1"/>
  <polygon points="387.1,313.7 387.1,434.8 404.5,434.8 404.5,313.7 387.1,313.7"/>
  <polygon points="408.9,305.9 408.9,434.8 426.3,434.8 426.3,305.9 408.9,305.9"/>
  <polygon points="430.7,308.0 430.7,434.8 448.1,434.8 448.1,308.0 430.7,308.0"/>
  <polygon points="452.4,302.4 452.4,434.8 469.8,434.8 469.8,302.4 452.4,302.4"/>
  <polygon points="474.2,306.1 474.2,434.8 491.6,434.8 491.6,306.1 474.2,306.1"/>
  <polygon points="495.9,308.9 495.9,434.8 513.3,434.8 513.3,308.9 495.9,308.9"/>
  <polygon points="517.7,304.3 517.7,434.8 535.1,434.8 535.1,304.3 517.7,304.3"/>
  <polygon points="539.5,297.7 539.5,434.8 556.9,434.8 556.9,297.7 539.5,297.7"/>
  <polygon points="561.2,297.0 561.2,434.8 578.6,434.8 578.6,297.0 561.2,297.0"/>
  <polygon points="583.0,317.6 583.0,434.8 600.4,434.8 600.4,317.6 583.0,317.6"/>
  <polygon points="604.7,324.5 604.7,434.8 622.1,434.8 622.1,324.5 604.7,324.5"/>
  <polygon points="626.5,313.1 626.5,434.8 643.9,434.8 643.9,313.1 626.5,313.1"/>
  <polygon points="648.3,315.2 648.3,434.8 665.7,434.8 665.7,315.2 648.3,315.2"/>
  <polygon points="670.0,330.1 670.0,434.8 687.4,434.8 687.4,330.1 670.0,330.1"/>
  <polygon points="691.8,330.5 691.8,434.8 709.2,434.8 709.2,330.5 691.8,330.5"/>
  <polygon points="713.5,332.4 713.5,434.8 730.9,434.8 730.9,332.4 713.5,332.4"/>
  <polygon points="735.3,334.6 735.3,434.8 752.7,434.8 752.7,334.6 735.3,334.6"/>
  <polygon points="757.1,330.4 757.1,434.8 774.5,434.8 774.5,330.4 757.1,330.4"/>
  <polygon points="778.8,330.1 778.8,434.8 796.2,434.8 796.2,330.1 778.8,330.1"/>
  <polygon points="800.6,334.9 800.6,434.8 818.0,434.8 818.0,334.9 800.6,334.9"/>
  <polygon points="822.3,339.3 822.3,434.8 839.7,434.8 839.7,339.3 822.3,339.3"/>
  <polygon points="844.1,333.9 844.1,434.8 861.5,434.8 861.5,333.9 844.1,333.9"/>
  <polygon points="865.9,336.3 865.9,434.8 883.3,434.8 883.3,336.3 865.9,336.3"/>
  <polygon points="887.6,341.3 887.6,434.8 905.0,434.8 905.0,341.3 887.6,341.3"/>
</g>
<g stroke="#000" stroke-width="0.90" fill="#7FBF7F"  clip-path="url(#axis_clip)">
  <polygon points="147.8,467.3 147.8,434.8 165.2,434.8 165.2,467.3 147.8,467.3"/>
  <polygon points="169.5,475.1 169.5,434.8 186.9,434.8 186.9,475.1 169.5,475.1"/>
  <polygon points="191.3,475.5 191.3,434.8 208.7,434.8 208.7,475.5 191.3,475.5"/>
  <polygon points="213.1,477.4 213.1,434.8 230.5,434.8 230.5,477.4 213.1,477.4"/>
  <polygon points="234.8,479.2 234.8,434.8 252.2,434.8 252.2,479.2 234.8,479.2"/>
  <polygon points="256.6,478.5 256.6,434.8 274.0,434.8 274.0,478.5 256.6,478.5"/>
  <polygon points="278.3,478.1 278.3,434.8 295.7,434.8 295.7,478.1 278.3,478.1"/>
  <polygon points="300.1,477.1 300.1,434.8 317.5,434.8 317.5,477.1 300.1,477.1"/>
  <polygon points="321.9,478.1 321.9,434.8 339.3,434.8 339.3,478.1 321.9,478.1"/>
  <polygon points="343.6,481.1 343.6,434.8 361.0,434.8 361.0,481.1 343.6,481.1"/>
  <polygon points="365.4,480.8 365.4,434.8 382.8,434.8 382.8,480.8 365.4,480.8"/>
  <polygon points="387.1,481.0 387.1,434.8 404.5,434.8 404.5,481.0 387.1,481.0"/>
  <polygon points="408.9,482.2 408.9,434.8 426.3,434.8 426.3,482.2 408.9,482.2"/>
  <polygon points="430.7,480.0 430.7,434.8 448.1,434.8 448.1,480.0 430.7,480.0"/>
  <polygon points="452.4,481.0 452.4,434.8 469.8,434.8 469.8,481.0 452.4,481.0"/>
  <polygon points="474.2,480.8 474.2,434.8 491.6,434.8 491.6,480.8 474.2,480.8"/>
  <polygon points="495.9,482.3 495.9,434.8 513.3,434.8 513.3,482.3 495.9,482.3"/>
  <polygon points="517.7,481.7 517.7,434.8 535.1,434.8 535.1,481.7 517.7,481.7"/>
  <polygon points="539.5,483.4 539.5,434.8 556.9,434.8 556.9,483.4 539.5,483.4"/>
  <polygon points="561.2,484.2 561.2,434.8 578.6,434.8 578.6,484.2 561.2,484.2"/>
  <polygon points="583.0,479.6 583.0,434.8 600.4,434.8 600.4,479.6 583.0,479.6"/>
  <polygon points="604.7,488.6 604.7,434.8 622.1,434.8 622.1,488.6 604.7,488.6"/>
  <polygon points="626.5,489.6 626.5,434.8 643.9,434.8 643.9,489.6 626.5,489.6"/>
  <polygon points="648.3,493.5 648.3,434.8 665.7,434.8 665.7,493.5 648.3,493.5"/>
  <polygon points="670.0,493.7 670.0,434.8 687.4,434.8 687.4,493.7 670.0,493.7"/>
  <polygon points="691.8,510.0 691.8,434.8 709.2,434.8 709.2,510.0 691.8,510.0"/>
  <polygon points="713.5,508.7 713.5,434.8 730.9,434.8 730.9,508.7 713.5,508.7"/>
  <polygon points="735.3,511.9 735.3,434.8 752.7,434.8 752.7,511.9 735.3,511.9"/>
  <polygon points="757.1,509.1 757.1,434.8 774.5,434.8 774.5,509.1 757.1,509.1"/>
  <polygon points="778.8,506.2 778.8,434.8 796.2,434.8 796.2,506.2 778.8,506.2"/>
  <polygon points="800.6,506.2 800.6,434.8 818.0,434.8 818.0,506.2 800.6,506.2"/>
  <polygon points="822.3,509.8 822.3,434.8 839.7,434.8 839.7,509.8 822.3,509.8"/>
  <polygon points="844.1,507.8 844.1,434.8 861.5,434.8 861.5,507.8 844.1,507.8"/>
  <polygon points="865.9,504.7 865.9,434.8 883.3,434.8 883.3,504.7 865.9,504.7"/>
  <polygon points="887.6,505.8 887.6,434.8 905.0,434.8 905.0,505.8 887.6,505.8"/>
</g>
<polyline class="pl" points="156.5,148.9 178.2,206.2 200.0,258.8 221.8,276.3 243.5,292.3 265.3,294.3 287.0,286.7 308.8,280.4 330.6,298.1 352.3,321.5 374.1,345.4 395.8,339.0 417.6,331.5 439.4,329.1 461.1,323.0 482.9,323.6 504.6,327.9 526.4,322.9 548.2,318.1 569.9,321.2 591.7,345.8 613.4,359.9 635.2,348.8 657.0,356.6 678.7,373.7 700.5,389.1 722.2,389.8 744.0,395.2 765.8,388.1 787.5,384.5 809.3,389.4 831.0,397.2 852.8,389.7 874.6,393.2 896.3,402.4" stroke="#000" stroke-width="5.40" stroke-opacity="1.00" fill="none" clip-path="url(#axis_clip)"/>
<g class="pl" fill="#FFF" stroke="#000" stroke-width="0.900">
  <circle cx="156.5" cy="148.9" r="2.2" />
  <circle cx="200.0" cy="258.8" r="2.2" />
  <circle cx="221.8" cy="276.3" r="2.2" />
  <circle cx="243.5" cy="292.3" r="2.2" />
  <circle cx="265.3" cy="294.3" r="2.2" />
  <circle cx="287.0" cy="286.7" r="2.2" />
  <circle cx="308.8" cy="280.4" r="2.2" />
  <circle cx="330.6" cy="298.1" r="2.2" />
  <circle cx="352.3" cy="321.5" r="2.2" />
  <circle cx="374.1" cy="345.4" r="2.2" />
  <circle cx="417.6" cy="331.5" r="2.2" />
  <circle cx="439.4" cy="329.1" r="2.2" />
  <circle cx="461.1" cy="323.0" r="2.2" />
  <circle cx="482.9" cy="323.6" r="2.2" />
  <circle cx="504.6" cy="327.9" r="2.2" />
  <circle cx="526.4" cy="322.9" r="2.2" />
  <circle cx="548.2" cy="318.1" r="2.2" />
  <circle cx="569.9" cy="321.2" r="2.2" />
  <circle cx="591.7" cy="345.8" r="2.2" />
  <circle cx="635.2" cy="348.8" r="2.2" />
  <circle cx="657.0" cy="356.6" r="2.2" />
  <circle cx="678.7" cy="373.7" r="2.2" />
  <circle cx="700.5" cy="389.1" r="2.2" />
  <circle cx="722.2" cy="389.8" r="2.2" />
  <circle cx="744.0" cy="395.2" r="2.2" />
  <circle cx="765.8" cy="388.1" r="2.2" />
  <circle cx="787.5" cy="384.5" r="2.2" />
  <circle cx="809.3" cy="389.4" r="2.2" />
  <circle cx="852.8" cy="389.7" r="2.2" />
  <circle cx="874.6" cy="393.2" r="2.2" />
  <circle cx="896.3" cy="402.4" r="2.2" />
</g>
<g class="pl" fill="#FFF" stroke="#000" stroke-width="0.900">
  <circle cx="178.2" cy="206.2" r="5.4" />
  <circle cx="395.8" cy="339.0" r="5.4" />
  <circle cx="613.4" cy="359.9" r="5.4" />
  <circle cx="831.0" cy="397.2" r="5.4" />
</g>
<text transform="translate(145.6,47.2)" dy="0.0" font-size="27.00" fill="#808080" stroke="none">Annual CO<tspan dy="0.2em"><tspan style="font-size:70%">2</tspan></tspan><tspan dy="-0.2em"> </tspan>Emissions: Romania</text>
<text transform="translate(130.0,157.8)" dy="8.1" font-size="27.00" fill="#808080" stroke="none" text-anchor="end">CO<tspan dy="0.2em"><tspan style="font-size:70%">2</tspan></tspan><tspan dy="-0.2em"></tspan></text>
<text transform="translate(945.6,408.1)" dy="7.6" font-size="25.20" fill="#000" stroke="none">-88.6% since 1989</text>
<text transform="translate(945.6,383.0)" dy="7.6" font-size="25.20" fill="#FF7F61" stroke="none">Energy</text>
<text transform="translate(945.6,358.0)" dy="7.6" font-size="25.20" fill="#4A89E8" stroke="none">Industrial Processes</text>
<text transform="translate(945.6,333.0)" dy="7.6" font-size="25.20" fill="#845F48" stroke="none">Agriculture</text>
<text transform="translate(945.6,307.9)" dy="7.6" font-size="25.20" fill="#DBA746" stroke="none">Waste</text>
<text transform="translate(945.6,470.3)" dy="7.6" font-size="25.20" fill="#7FBF7F" stroke="none">LULUCF</text>
<polyline class="pl" points="910.8,402.4 912.4,402.4 913.8,402.5 915.2,402.5 916.4,402.7 917.6,402.8 918.8,403.0 919.8,403.2 920.8,403.4 921.7,403.7 922.7,403.9 923.5,404.2 924.4,404.5 925.2,404.8 926.0,405.1 926.8,405.4 927.6,405.7 928.4,406.0 929.3,406.2 930.1,406.5 931.1,406.8 932.0,407.0 933.0,407.2 934.0,407.4 935.2,407.6 936.4,407.8 937.6,407.9 939.0,408.0 940.4,408.1 942.0,408.1" stroke="#000" stroke-width="0.90" stroke-opacity="1.00" fill="none" />
<polyline class="pl" points="910.8,388.1 912.4,388.1 913.8,388.0 915.2,387.9 916.4,387.8 917.6,387.7 918.8,387.5 919.8,387.4 920.8,387.1 921.7,386.9 922.7,386.7 923.5,386.5 924.4,386.2 925.2,386.0 926.0,385.7 926.8,385.4 927.6,385.2 928.4,384.9 929.3,384.7 930.1,384.4 931.1,384.2 932.0,384.0 933.0,383.8 934.0,383.6 935.2,383.4 936.4,383.3 937.6,383.2 939.0,383.1 940.4,383.1 942.0,383.0" stroke="#FF7F61" stroke-width="0.90" stroke-opacity="1.00" fill="none" />
<polyline class="pl" points="910.8,336.5 912.4,336.6 913.8,336.8 915.2,337.1 916.4,337.6 917.6,338.2 918.8,338.9 919.8,339.7 920.8,340.5 921.7,341.4 922.7,342.4 923.5,343.4 924.4,344.5 925.2,345.6 926.0,346.7 926.8,347.8 927.6,348.9 928.4,350.0 929.3,351.1 930.1,352.1 931.1,353.1 932.0,354.0 933.0,354.8 934.0,355.6 935.2,356.3 936.4,356.9 937.6,357.4 939.0,357.7 940.4,357.9 942.0,358.0" stroke="#4A89E8" stroke-width="0.90" stroke-opacity="1.00" fill="none" />
<polyline class="pl" points="910.8,331.6 912.4,331.6 913.8,331.6 915.2,331.6 916.4,331.6 917.6,331.7 918.8,331.7 919.8,331.8 920.8,331.8 921.7,331.9 922.7,331.9 923.5,332.0 924.4,332.1 925.2,332.1 926.0,332.2 926.8,332.3 927.6,332.4 928.4,332.4 929.3,332.5 930.1,332.6 931.1,332.6 932.0,332.7 933.0,332.8 934.0,332.8 935.2,332.8 936.4,332.9 937.6,332.9 939.0,332.9 940.4,333.0 942.0,333.0" stroke="#845F48" stroke-width="0.90" stroke-opacity="1.00" fill="none" />
<polyline class="pl" points="910.8,331.5 912.4,331.4 913.8,331.1 915.2,330.8 916.4,330.2 917.6,329.6 918.8,328.9 919.8,328.0 920.8,327.1 921.7,326.1 922.7,325.0 923.5,323.9 924.4,322.7 925.2,321.5 926.0,320.3 926.8,319.1 927.6,317.9 928.4,316.7 929.3,315.5 930.1,314.4 931.1,313.3 932.0,312.3 933.0,311.4 934.0,310.5 935.2,309.8 936.4,309.1 937.6,308.6 939.0,308.2 940.4,308.0 942.0,307.9" stroke="#DBA746" stroke-width="0.90" stroke-opacity="1.00" fill="none" />
<text transform="translate(160.0,666.1)" font-size="19.80" font-family="Helvetica" fill="#BFBFBF" stroke="none" xml:space="preserve">CICERO   &#9679;   Data: UNFCCC (2025)</text>
<g>
  <rect x="123.0" y="651.4" width="34" height="17" fill="#FFF" stroke="none" opacity="0.01"/>
  <g transform="translate(124.0,652.4) scale(0.24)">
  <g><circle fill="#FFF" cx="37.79" cy="28.5" r="28.84"/>
     <circle fill="none" cx="37.79" cy="28.5" r="28.84" stroke="#BFBFBF" stroke-width="5.5"/>
     <path fill="#BFBFBF" d="M37.16,23.19 l-4.29,2.23c-0.458-0.951-1.02-1.62-1.69-2c-0.667-0.38-1.29-0.571-1.86-0.571c-2.86,0-4.29,1.89-4.29,5.66 c0,1.71,0.36,3.08,1.09,4.11c0.724,1.03,1.79,1.54,3.2,1.54c1.87,0,3.18-0.915,3.94-2.74l3.94,2 c-0.838,1.56-2,2.79-3.49,3.69c-1.48,0.896-3.12,1.34-4.91,1.34c-2.86,0-5.16-0.875-6.92-2.63 c-1.75-1.75-2.63-4.19-2.63-7.31c0-3.05,0.886-5.47,2.66-7.26c1.77-1.79,4.01-2.69,6.72-2.69 C32.6,18.56,35.44,20.1,37.16,23.19z
              M55.61,23.19l-4.23,2.23c-0.457-0.951-1.02-1.62-1.69-2 c-0.668-0.38-1.31-0.571-1.91-0.571c-2.86,0-4.29,1.89-4.29,5.66c0,1.71,0.363,3.08,1.09,4.11 c0.723,1.03,1.79,1.54,3.2,1.54c1.87,0,3.18-0.915,3.94-2.74l4,2c-0.875,1.56-2.06,2.79-3.54,3.69 c-1.49,0.9-3.11,1.34-4.86,1.34c-2.9,0-5.21-0.875-6.94-2.63c-1.74-1.75-2.6-4.19-2.6-7.31 c0-3.05,0.885-5.47,2.66-7.26c1.77-1.79,4.01-2.69,6.71-2.69C51.12,18.56,53.944,20.1,55.61,23.19z"/>
  </g></g>
  <g transform="translate(140.2,652.4) scale(0.24)">
  <g><circle fill="#FFF" cx="37.79" cy="28.5" r="28.84"/>
     <circle fill="none" cx="37.79" cy="28.5" r="28.84" stroke="#BFBFBF" stroke-width="5.5"/>
     <path fill="#BFBFBF" d="M46.129,20.557v13.085h-3.656v15.542h-9.944V33.643h-3.656V20.557 c0-0.572,0.2-1.057,0.599-1.457c0.401-0.399,0.887-0.6,1.457-0.6h13.144c0.533,0,1.01,0.2,1.428,0.6 C45.918,19.5,46.129,19.986,46.129,20.557z
              M33.042,12.329c0-3.008,1.485-4.514,4.458-4.514s4.457,1.504,4.457,4.514 c0,2.971-1.486,4.457-4.457,4.457S33.042,15.3,33.042,12.329z"/>
  </g></g>
</g>
</g>
</svg>
