<svg version="1.1" xmlns="http://www.w3.org/2000/svg" xmlns:xlink="http://www.w3.org/1999/xlink" width="100%" height="100%" viewBox="0 0 1200.000 674.916">
<title>Annual CO2 Emissions: India</title>
<style type="text/css">
  #main {font-family:Helvetica,Arial,sans-serif; font-size:27.00px;
         fill-opacity:1; fill:#000000; stroke:none; stroke-linejoin:round; stroke-linecap:round; stroke-width:1.00;}
  .marker {stroke-opacity:0;fill-opacity:0;}
  .marker:hover {stroke-opacity:0.5; fill-opacity:1;}
  .ticklabel {font-size:27.00px;fill:#808080;stroke:none;font-family:Helvetica}
  .ytl {text-anchor:end;}
  .dp1 {pointer-events:none;font-size:70%;text-anchor:middle;fill:#000000;}
  .dp2 {pointer-events:none;font-size:70%;text-anchor:middle;fill:#FFFFFF;}
  .numtip {pointer-events:none;}
  .cc {opacity:0.25;}
.dl_fe {background-color:#FDFFDF;display:flex;margin:auto;align-items:center}
.dl_fe_p {font-size:20px;text-align:center;margin:3px}
.dl_el {display:none;pointer-events:none;}
.cc:hover + .dl_el {display:block;}
text:hover + .dl_el {display:block;}
</style>
<defs>
  <clipPath id="axis_clip"><rect x="145.8" y="54.2" width="761.2" height="532.8" /></clipPath>
  <path id="line_y" d="M 0,53.993 v 533.183" stroke="#262626" stroke-opacity="0.15" stroke-width="1.00"/>
  <path id="line_x" d="M 145.600,0 h 761.600" stroke="#262626" stroke-opacity="0.15" stroke-width="1.00"/>
  <path id="tick_y" d="M 145.600,0 h -6.000" stroke="#808080" stroke-width="0.90"/>
  <path id="tick_x" d="M 0,587.177 v 6.000" stroke="#808080" stroke-width="0.90"/>
</defs>
<g id="main">
<use xlink:href="#line_y" transform="translate(209.1,0)"/>
<use xlink:href="#line_y" transform="translate(293.7,0)"/>
<use xlink:href="#line_y" transform="translate(378.3,0)"/>
<use xlink:href="#line_y" transform="translate(462.9,0)"/>
<use xlink:href="#line_y" transform="translate(547.6,0)"/>
<use xlink:href="#line_y" transform="translate(632.2,0)"/>
<use xlink:href="#line_y" transform="translate(716.8,0)"/>
<use xlink:href="#line_y" transform="translate(801.4,0)"/>
<use xlink:href="#line_y" transform="translate(886.0,0)"/>
<use xlink:href="#line_x" transform="translate(0,587.2)"/>
<use xlink:href="#line_x" transform="translate(0,453.9)"/>
<use xlink:href="#line_x" transform="translate(0,320.6)"/>
<use xlink:href="#line_x" transform="translate(0,187.3)"/>
<use xlink:href="#line_x" transform="translate(0,54.0)"/>
<use xlink:href="#tick_y" transform="translate(0,587.2)"/>
<use xlink:href="#tick_y" transform="translate(0,453.9)"/>
<use xlink:href="#tick_y" transform="translate(0,320.6)"/>
<use xlink:href="#tick_y" transform="translate(0,187.3)"/>
<use xlink:href="#tick_y" transform="translate(0,54.0)"/>
<use xlink:href="#tick_x" transform="translate(209.1,0)"/>
<use xlink:href="#tick_x" transform="translate(293.7,0)"/>
<use xlink:href="#tick_x" transform="translate(378.3,0)"/>
<use xlink:href="#tick_x" transform="translate(462.9,0)"/>
<use xlink:href="#tick_x" transform="translate(547.6,0)"/>
<use xlink:href="#tick_x" transform="translate(632.2,0)"/>
<use xlink:href="#tick_x" transform="translate(716.8,0)"/>
<use xlink:href="#tick_x" transform="translate(801.4,0)"/>
<use xlink:href="#tick_x" transform="translate(886.0,0)"/>
<polyline points="145.6,53.993 145.6,587.177 907.2,587.177" stroke="#808080" stroke-width="0.90" fill="none"/>
<text class="ticklabel xtl" transform="translate(209.1,629.0)" text-anchor="middle">2006</text>
<text class="ticklabel xtl" transform="translate(293.7,629.0)" text-anchor="middle">2008</text>
<text class="ticklabel xtl" transform="translate(378.3,629.0)" text-anchor="middle">2010</text>
<text class="ticklabel xtl" transform="translate(462.9,629.0)" text-anchor="middle">2012</text>
<text class="ticklabel xtl" transform="translate(547.6,629.0)" text-anchor="middle">2014</text>
<text class="ticklabel xtl" transform="translate(632.2,629.0)" text-anchor="middle">2016</text>
<text class="ticklabel xtl" transform="translate(716.8,629.0)" text-anchor="middle">2018</text>
<text class="ticklabel xtl" transform="translate(801.4,629.0)" text-anchor="middle">2020</text>
<text class="ticklabel xtl" transform="translate(886.0,629.0)" text-anchor="middle">2022</text>
<text class="ticklabel ytl" transform="translate(128.8,595.3)">-1</text>
<text class="ticklabel ytl" transform="translate(128.8,462.0)">0</text>
<text class="ticklabel ytl" transform="translate(128.8,328.7)">1</text>
<text class="ticklabel ytl" transform="translate(128.8,195.4)">2</text>
<text class="ticklabel ytl" transform="translate(128.8,62.1)">3 Gt</text>
<g stroke="#000" stroke-width="0.90" fill="#DBA746"  clip-path="url(#axis_clip)">
  <polygon class="pl" points="149.8,269.5 149.8,269.6 183.7,269.6 183.7,269.5 149.8,269.5"/>
  <polygon class="pl" points="784.5,147.6 784.5,147.6 818.3,147.6 818.3,147.6 784.5,147.6"/>
  <polygon class="pl" points="826.8,124.5 826.8,124.5 860.7,124.5 860.7,124.5 826.8,124.5"/>
  <polygon class="pl" points="869.1,96.9 869.1,96.9 903.0,96.9 903.0,96.9 869.1,96.9"/>
</g>
<g stroke="#000" stroke-width="0.90" fill="#845F48"  clip-path="url(#axis_clip)">
  <polygon class="pl" points="149.8,269.6 149.8,270.3 183.7,270.3 183.7,269.6 149.8,269.6"/>
  <polygon class="pl" points="784.5,147.6 784.5,148.6 818.3,148.6 818.3,147.6 784.5,147.6"/>
  <polygon class="pl" points="826.8,124.5 826.8,125.5 860.7,125.5 860.7,124.5 826.8,124.5"/>
  <polygon class="pl" points="869.1,96.9 869.1,98.0 903.0,98.0 903.0,96.9 869.1,96.9"/>
</g>
<g stroke="#000" stroke-width="0.90" fill="#4A89E8"  clip-path="url(#axis_clip)">
  <polygon class="pl" points="149.8,270.3 149.8,292.4 183.7,292.4 183.7,270.3 149.8,270.3"/>
  <polygon class="pl" points="784.5,148.6 784.5,176.8 818.3,176.8 818.3,148.6 784.5,148.6"/>
  <polygon class="pl" points="826.8,125.5 826.8,155.7 860.7,155.7 860.7,125.5 826.8,125.5"/>
  <polygon class="pl" points="869.1,98.0 869.1,129.4 903.0,129.4 903.0,98.0 869.1,98.0"/>
</g>
<g stroke="#000" stroke-width="0.90" fill="#FF7F61"  clip-path="url(#axis_clip)">
  <polygon class="pl" points="149.8,292.4 149.8,453.9 183.7,453.9 183.7,292.4 149.8,292.4"/>
  <polygon class="pl" points="784.5,176.8 784.5,453.9 818.3,453.9 818.3,176.8 784.5,176.8"/>
  <polygon class="pl" points="826.8,155.7 826.8,453.9 860.7,453.9 860.7,155.7 826.8,155.7"/>
  <polygon class="pl" points="869.1,129.4 869.1,453.9 903.0,453.9 903.0,129.4 869.1,129.4"/>
</g>
<g stroke="#000" stroke-width="0.90" fill="#7FBF7F"  clip-path="url(#axis_clip)">
  <polygon class="pl" points="149.8,481.7 149.8,453.9 183.7,453.9 183.7,481.7 149.8,481.7"/>
  <polygon class="pl" points="784.5,529.2 784.5,453.9 818.3,453.9 818.3,529.2 784.5,529.2"/>
  <polygon class="pl" points="826.8,529.4 826.8,453.9 860.7,453.9 860.7,529.4 826.8,529.4"/>
  <polygon class="pl" points="869.1,530.5 869.1,453.9 903.0,453.9 903.0,530.5 869.1,530.5"/>
</g>
<polyline class="pl" points="166.8,297.3 801.4,222.9 843.7,200.0 886.0,173.4" stroke="#000" stroke-width="5.40" stroke-opacity="1.00" fill="none" clip-path="url(#axis_clip)"/>
<g class="pl" fill="#FFF" stroke="#000" stroke-width="0.900">
  <circle cx="166.8" cy="297.3" r="2.2" />
  <circle cx="843.7" cy="200.0" r="2.2" />
  <circle cx="886.0" cy="173.4" r="2.2" />
</g>
<g class="pl" fill="#FFF" stroke="#000" stroke-width="0.900">
  <circle cx="801.4" cy="222.9" r="5.4" />
</g>
<text transform="translate(145.6,47.2)" dy="0.0" font-size="27.00" fill="#808080" stroke="none">Annual CO<tspan dy="0.2em"><tspan style="font-size:70%">2</tspan></tspan><tspan dy="-0.2em"> </tspan>Emissions: India</text>
<text transform="translate(130.0,81.6)" dy="8.1" font-size="27.00" fill="#808080" stroke="none" text-anchor="end">CO<tspan dy="0.2em"><tspan style="font-size:70%">2</tspan></tspan><tspan dy="-0.2em"></tspan></text>
<text transform="translate(945.6,173.4)" dy="7.6" font-size="25.20" fill="#000" stroke="none">+79.1% since 2005</text>
<text transform="translate(945.6,291.6)" dy="7.6" font-size="25.20" fill="#FF7F61" stroke="none">Energy</text>
<text transform="translate(945.6,127.7)" dy="7.6" font-size="25.20" fill="#4A89E8" stroke="none">Industrial Processes</text>
<text transform="translate(945.6,102.7)" dy="7.6" font-size="25.20" fill="#845F48" stroke="none">Agriculture</text>
<text transform="translate(945.6,77.6)" dy="7.6" font-size="25.20" fill="#DBA746" stroke="none">Waste</text>
<text transform="translate(945.6,492.2)" dy="7.6" font-size="25.20" fill="#7FBF7F" stroke="none">LULUCF</text>
<polyline class="pl" points="910.8,113.7 912.4,113.7 913.8,113.9 915.2,114.1 916.4,114.4 917.6,114.8 918.8,115.2 919.8,115.7 920.8,116.3 921.7,116.9 922.7,117.5 923.5,118.2 924.4,118.9 925.2,119.6 926.0,120.3 926.8,121.1 927.6,121.8 928.4,122.5 929.3,123.2 930.1,123.9 931.1,124.5 932.0,125.1 933.0,125.7 934.0,126.2 935.2,126.6 936.4,127.0 937.6,127.3 939.0,127.5 940.4,127.7 942.0,127.7" stroke="#4A89E8" stroke-width="0.90" stroke-opacity="1.00" fill="none" />
<polyline class="pl" points="910.8,97.5 912.4,97.5 913.8,97.5 915.2,97.6 916.4,97.7 917.6,97.9 918.8,98.0 919.8,98.2 920.8,98.4 921.7,98.7 922.7,98.9 923.5,99.1 924.4,99.4 925.2,99.7 926.0,99.9 926.8,100.2 927.6,100.5 928.4,100.7 929.3,101.0 930.1,101.2 931.1,101.5 932.0,101.7 933.0,101.9 934.0,102.1 935.2,102.3 936.4,102.4 937.6,102.5 939.0,102.6 940.4,102.7 942.0,102.7" stroke="#845F48" stroke-width="0.90" stroke-opacity="1.00" fill="none" />
<polyline class="pl" points="910.8,96.9 912.4,96.8 913.8,96.6 915.2,96.3 916.4,95.9 917.6,95.4 918.8,94.8 919.8,94.1 920.8,93.3 921.7,92.5 922.7,91.6 923.5,90.7 924.4,89.7 925.2,88.8 926.0,87.8 926.8,86.8 927.6,85.8 928.4,84.8 929.3,83.9 930.1,82.9 931.1,82.1 932.0,81.2 933.0,80.5 934.0,79.8 935.2,79.2 936.4,78.6 937.6,78.2 939.0,77.9 940.4,77.7 942.0,77.6" stroke="#DBA746" stroke-width="0.90" stroke-opacity="1.00" fill="none" />
<text transform="translate(160.0,666.1)" font-size="19.80" font-family="Helvetica" fill="#BFBFBF" stroke="none" xml:space="preserve">CICERO   &#9679;   Data: UNFCCC (2026)</text>
<g>
  <rect x="123.0" y="651.4" width="34" height="17" fill="#FFF" stroke="none" opacity="0.01"/>
  <g transform="translate(124.0,652.4) scale(0.24)">
  <g><circle fill="#FFF" cx="37.79" cy="28.5" r="28.84"/>
     <circle fill="none" cx="37.79" cy="28.5" r="28.84" stroke="#BFBFBF" stroke-width="5.5"/>
     <path fill="#BFBFBF" d="M37.16,23.19 l-4.29,2.23c-0.458-0.951-1.02-1.62-1.69-2c-0.667-0.38-1.29-0.571-1.86-0.571c-2.86,0-4.29,1.89-4.29,5.66 c0,1.71,0.36,3.08,1.09,4.11c0.724,1.03,1.79,1.54,3.2,1.54c1.87,0,3.18-0.915,3.94-2.74l3.94,2 c-0.838,1.56-2,2.79-3.49,3.69c-1.48,0.896-3.12,1.34-4.91,1.34c-2.86,0-5.16-0.875-6.92-2.63 c-1.75-1.75-2.63-4.19-2.63-7.31c0-3.05,0.886-5.47,2.66-7.26c1.77-1.79,4.01-2.69,6.72-2.69 C32.6,18.56,35.44,20.1,37.16,23.19z
              M55.61,23.19l-4.23,2.23c-0.457-0.951-1.02-1.62-1.69-2 c-0.668-0.38-1.31-0.571-1.91-0.571c-2.86,0-4.29,1.89-4.29,5.66c0,1.71,0.363,3.08,1.09,4.11 c0.723,1.03,1.79,1.54,3.2,1.54c1.87,0,3.18-0.915,3.94-2.74l4,2c-0.875,1.56-2.06,2.79-3.54,3.69 c-1.49,0.9-3.11,1.34-4.86,1.34c-2.9,0-5.21-0.875-6.94-2.63c-1.74-1.75-2.6-4.19-2.6-7.31 c0-3.05,0.885-5.47,2.66-7.26c1.77-1.79,4.01-2.69,6.71-2.69C51.12,18.56,53.944,20.1,55.61,23.19z"/>
  </g></g>
  <g transform="translate(140.2,652.4) scale(0.24)">
  <g><circle fill="#FFF" cx="37.79" cy="28.5" r="28.84"/>
     <circle fill="none" cx="37.79" cy="28.5" r="28.84" stroke="#BFBFBF" stroke-width="5.5"/>
     <path fill="#BFBFBF" d="M46.129,20.557v13.085h-3.656v15.542h-9.944V33.643h-3.656V20.557 c0-0.572,0.2-1.057,0.599-1.457c0.401-0.399,0.887-0.6,1.457-0.6h13.144c0.533,0,1.01,0.2,1.428,0.6 C45.918,19.5,46.129,19.986,46.129,20.557z
              M33.042,12.329c0-3.008,1.485-4.514,4.458-4.514s4.457,1.504,4.457,4.514 c0,2.971-1.486,4.457-4.457,4.457S33.042,15.3,33.042,12.329z"/>
  </g></g>
</g>
</g>
</svg>
