<svg version="1.1" xmlns="http://www.w3.org/2000/svg" xmlns:xlink="http://www.w3.org/1999/xlink" width="100%" height="100%" viewBox="0 0 1200.000 674.916">
<title>Annual Global Emissions</title>
<style type="text/css">
  #main {font-family:Helvetica,Arial,sans-serif; font-size:27.00px;
         fill-opacity:1; fill:#000000; stroke:none; stroke-linejoin:round; stroke-linecap:round; stroke-width:1.00;}
  .marker {stroke-opacity:0;fill-opacity:0;}
  .marker:hover {stroke-opacity:0.5; fill-opacity:1;}
  .ticklabel {font-size:27.00px;fill:#808080;stroke:none;font-family:Helvetica}
  .ytl {text-anchor:end;}
  .dp1 {pointer-events:none;font-size:70%;text-anchor:middle;fill:#000000;}
  .dp2 {pointer-events:none;font-size:70%;text-anchor:middle;fill:#FFFFFF;}
  .numtip {pointer-events:none;}
  .cc {opacity:0.25;}
.dl_fe {background-color:#FDFFDF;display:flex;margin:auto;align-items:center}
.dl_fe_p {font-size:20px;text-align:center;margin:3px}
.dl_el {display:none;pointer-events:none;}
.cc:hover + .dl_el {display:block;}
text:hover + .dl_el {display:block;}
</style>
<defs>
  <clipPath id="axis_clip"><rect x="145.8" y="54.2" width="761.2" height="532.8" /></clipPath>
  <path id="line_x" d="M 145.600,0 h 761.600" stroke="#262626" stroke-opacity="0.15" stroke-width="1.00"/>
  <path id="tick_y" d="M 145.600,0 h -6.000" stroke="#808080" stroke-width="0.90"/>
  <path id="tick_x" d="M 0,587.177 v 6.000" stroke="#808080" stroke-width="0.90"/>
</defs>
<g id="main">
<use xlink:href="#line_x" transform="translate(0,587.2)"/>
<use xlink:href="#line_x" transform="translate(0,498.3)"/>
<use xlink:href="#line_x" transform="translate(0,409.4)"/>
<use xlink:href="#line_x" transform="translate(0,320.6)"/>
<use xlink:href="#line_x" transform="translate(0,231.7)"/>
<use xlink:href="#line_x" transform="translate(0,142.9)"/>
<use xlink:href="#line_x" transform="translate(0,54.0)"/>
<use xlink:href="#tick_y" transform="translate(0,587.2)"/>
<use xlink:href="#tick_y" transform="translate(0,498.3)"/>
<use xlink:href="#tick_y" transform="translate(0,409.4)"/>
<use xlink:href="#tick_y" transform="translate(0,320.6)"/>
<use xlink:href="#tick_y" transform="translate(0,231.7)"/>
<use xlink:href="#tick_y" transform="translate(0,142.9)"/>
<use xlink:href="#tick_y" transform="translate(0,54.0)"/>
<use xlink:href="#tick_x" transform="translate(189.9,0)"/>
<use xlink:href="#tick_x" transform="translate(278.4,0)"/>
<use xlink:href="#tick_x" transform="translate(367.0,0)"/>
<use xlink:href="#tick_x" transform="translate(455.6,0)"/>
<use xlink:href="#tick_x" transform="translate(544.1,0)"/>
<use xlink:href="#tick_x" transform="translate(632.7,0)"/>
<use xlink:href="#tick_x" transform="translate(721.2,0)"/>
<use xlink:href="#tick_x" transform="translate(809.8,0)"/>
<use xlink:href="#tick_x" transform="translate(907.2,0)"/>
<polyline points="145.6,53.993 145.6,587.177 907.2,587.177" stroke="#808080" stroke-width="0.90" fill="none"/>
<text class="ticklabel xtl" transform="translate(189.9,629.0)" text-anchor="middle">1860</text>
<text class="ticklabel xtl" transform="translate(278.4,629.0)" text-anchor="middle">1880</text>
<text class="ticklabel xtl" transform="translate(367.0,629.0)" text-anchor="middle">1900</text>
<text class="ticklabel xtl" transform="translate(455.6,629.0)" text-anchor="middle">1920</text>
<text class="ticklabel xtl" transform="translate(544.1,629.0)" text-anchor="middle">1940</text>
<text class="ticklabel xtl" transform="translate(632.7,629.0)" text-anchor="middle">1960</text>
<text class="ticklabel xtl" transform="translate(721.2,629.0)" text-anchor="middle">1980</text>
<text class="ticklabel xtl" transform="translate(809.8,629.0)" text-anchor="middle">2000</text>
<text class="ticklabel xtl" transform="translate(907.2,629.0)" text-anchor="middle">2022</text>
<text class="ticklabel ytl" transform="translate(128.8,595.3)">0</text>
<text class="ticklabel ytl" transform="translate(128.8,506.4)">2</text>
<text class="ticklabel ytl" transform="translate(128.8,417.5)">4</text>
<text class="ticklabel ytl" transform="translate(128.8,328.7)">6</text>
<text class="ticklabel ytl" transform="translate(128.8,239.8)">8</text>
<text class="ticklabel ytl" transform="translate(128.8,151.0)">10</text>
<text class="ticklabel ytl" transform="translate(128.8,62.1)">12 Gt C</text>
<g id="areas">
  <g class="pg_5">
    <polygon class="pl" points="145.6,552.7 150.0,551.6 154.5,550.9 158.9,550.1 163.3,549.2 167.7,549.0 172.2,548.6 176.6,548.1 181.0,547.8 185.5,547.0 189.9,548.5 194.3,549.6 198.7,549.8 203.2,549.7 207.6,549.6 212.0,549.9 216.4,549.5 220.9,549.0 225.3,549.2 229.7,549.0 234.2,546.1 238.6,544.5 243.0,543.1 247.4,541.9 251.9,541.7 256.3,540.7 260.7,540.3 265.2,539.4 269.6,538.6 274.0,537.6 278.4,535.9 282.9,536.0 287.3,534.6 291.7,533.0 296.1,532.8 300.6,532.7 305.0,532.0 309.4,530.6 313.9,529.1 318.3,529.2 322.7,524.7 327.1,522.7 331.6,522.0 336.0,521.3 340.4,520.3 344.9,518.8 349.3,517.7 353.7,516.6 358.1,515.2 362.6,512.6 367.0,510.4 371.4,509.1 375.9,507.7 380.3,505.3 384.7,504.0 389.1,502.0 393.6,500.4 398.0,495.6 402.4,496.5 406.8,494.6 411.3,494.1 415.7,494.0 420.1,492.8 424.6,489.6 429.0,493.6 433.4,494.7 437.8,492.3 442.3,490.6 446.7,490.8 451.1,497.0 455.6,488.6 460.0,492.3 464.4,489.8 468.8,484.6 473.3,484.2 477.7,482.9 482.1,483.9 486.5,479.7 491.0,479.8 495.4,476.1 499.8,479.2 504.3,483.5 508.7,487.0 513.1,484.7 517.5,480.5 522.0,478.3 526.4,473.5 530.8,470.2 535.3,473.1 539.7,470.1 544.1,463.5 548.5,460.1 553.0,459.8 557.4,458.9 561.8,458.0 566.3,468.8 570.7,464.3 575.1,458.8 579.5,456.3 584.0,459.9 588.4,441.8 592.8,435.1 597.2,432.4 601.7,428.8 606.1,425.2 610.5,414.6 615.0,406.4 619.4,401.0 623.8,395.7 628.2,385.6 632.7,390.8 637.1,393.9 641.5,395.7 646.0,391.8 650.4,386.8 654.8,387.3 659.2,382.7 663.7,376.5 668.1,367.7 672.5,361.2 676.9,345.0 681.4,341.3 685.8,332.5 690.2,323.7 694.7,326.2 699.1,325.1 703.5,314.0 707.9,307.8 712.4,302.6 716.8,298.8 721.2,298.1 725.7,300.7 730.1,302.2 734.5,295.0 738.9,277.3 743.4,274.9 747.8,269.0 752.2,263.6 756.7,256.3 761.1,253.3 765.5,251.3 769.9,248.1 774.4,252.8 778.8,251.1 783.2,240.4 787.6,236.2 792.1,223.1 796.5,203.3 800.9,220.0 805.4,215.9 809.8,215.4 814.2,217.3 818.6,206.2 823.1,183.8 827.5,177.5 831.9,171.9 836.4,155.6 840.8,153.1 845.2,144.3 849.6,144.7 854.1,123.5 858.5,109.6 862.9,102.1 867.3,104.6 871.8,97.6 876.2,92.5 880.6,105.0 885.1,98.6 889.5,93.0 893.9,86.0 898.3,114.1 902.8,92.0 907.2,88.1 907.2,587.2 145.6,587.2" stroke="none" stroke-width="0.9000"  fill="#DEC17C" clip-path="url(#axis_clip)"/>
<polyline class="pl" points="145.6,552.7 150.0,551.6 154.5,550.9 158.9,550.1 163.3,549.2 167.7,549.0 172.2,548.6 176.6,548.1 181.0,547.8 185.5,547.0 189.9,548.5 194.3,549.6 198.7,549.8 203.2,549.7 207.6,549.6 212.0,549.9 216.4,549.5 220.9,549.0 225.3,549.2 229.7,549.0 234.2,546.1 238.6,544.5 243.0,543.1 247.4,541.9 251.9,541.7 256.3,540.7 260.7,540.3 265.2,539.4 269.6,538.6 274.0,537.6 278.4,535.9 282.9,536.0 287.3,534.6 291.7,533.0 296.1,532.8 300.6,532.7 305.0,532.0 309.4,530.6 313.9,529.1 318.3,529.2 322.7,524.7 327.1,522.7 331.6,522.0 336.0,521.3 340.4,520.3 344.9,518.8 349.3,517.7 353.7,516.6 358.1,515.2 362.6,512.6 367.0,510.4 371.4,509.1 375.9,507.7 380.3,505.3 384.7,504.0 389.1,502.0 393.6,500.4 398.0,495.6 402.4,496.5 406.8,494.6 411.3,494.1 415.7,494.0 420.1,492.8 424.6,489.6 429.0,493.6 433.4,494.7 437.8,492.3 442.3,490.6 446.7,490.8 451.1,497.0 455.6,488.6 460.0,492.3 464.4,489.8 468.8,484.6 473.3,484.2 477.7,482.9 482.1,483.9 486.5,479.7 491.0,479.8 495.4,476.1 499.8,479.2 504.3,483.5 508.7,487.0 513.1,484.7 517.5,480.5 522.0,478.3 526.4,473.5 530.8,470.2 535.3,473.1 539.7,470.1 544.1,463.5 548.5,460.1 553.0,459.8 557.4,458.9 561.8,458.0 566.3,468.8 570.7,464.3 575.1,458.8 579.5,456.3 584.0,459.9 588.4,441.8 592.8,435.1 597.2,432.4 601.7,428.8 606.1,425.2 610.5,414.6 615.0,406.4 619.4,401.0 623.8,395.7 628.2,385.6 632.7,390.8 637.1,393.9 641.5,395.7 646.0,391.8 650.4,386.8 654.8,387.3 659.2,382.7 663.7,376.5 668.1,367.7 672.5,361.2 676.9,345.0 681.4,341.3 685.8,332.5 690.2,323.7 694.7,326.2 699.1,325.1 703.5,314.0 707.9,307.8 712.4,302.6 716.8,298.8 721.2,298.1 725.7,300.7 730.1,302.2 734.5,295.0 738.9,277.3 743.4,274.9 747.8,269.0 752.2,263.6 756.7,256.3 761.1,253.3 765.5,251.3 769.9,248.1 774.4,252.8 778.8,251.1 783.2,240.4 787.6,236.2 792.1,223.1 796.5,203.3 800.9,220.0 805.4,215.9 809.8,215.4 814.2,217.3 818.6,206.2 823.1,183.8 827.5,177.5 831.9,171.9 836.4,155.6 840.8,153.1 845.2,144.3 849.6,144.7 854.1,123.5 858.5,109.6 862.9,102.1 867.3,104.6 871.8,97.6 876.2,92.5 880.6,105.0 885.1,98.6 889.5,93.0 893.9,86.0 898.3,114.1 902.8,92.0 907.2,88.1" stroke="#000" stroke-width="0.90" stroke-opacity="1.00" fill="none" clip-path="url(#axis_clip)"/>
  </g>
  <g class="pg_4">
    <polygon class="pl" points="145.6,584.8 150.0,584.8 154.5,584.7 158.9,584.5 163.3,584.1 167.7,584.0 172.2,583.8 176.6,583.8 181.0,583.7 185.5,583.5 189.9,583.2 194.3,583.0 198.7,582.9 203.2,582.6 207.6,582.2 212.0,581.9 216.4,581.8 220.9,581.4 225.3,581.2 229.7,580.8 234.2,580.7 238.6,580.3 243.0,579.6 247.4,579.1 251.9,579.6 256.3,579.0 260.7,578.8 265.2,578.7 269.6,578.6 274.0,578.0 278.4,576.8 282.9,576.5 287.3,575.9 291.7,575.1 296.1,575.0 300.6,574.9 305.0,574.7 309.4,574.1 313.9,572.7 318.3,572.7 322.7,571.4 327.1,570.7 331.6,570.5 336.0,570.7 340.4,570.2 344.9,569.1 349.3,568.5 353.7,567.7 358.1,566.6 362.6,564.7 367.0,563.5 371.4,562.7 375.9,562.1 380.3,559.8 384.7,559.6 389.1,557.8 393.6,556.5 398.0,552.2 402.4,553.5 406.8,552.2 411.3,550.4 415.7,549.9 420.1,548.0 424.6,544.7 429.0,548.6 433.4,549.2 437.8,546.2 442.3,544.3 446.7,544.8 451.1,550.5 455.6,544.5 460.0,549.7 464.4,547.9 468.8,542.6 473.3,542.5 477.7,542.0 482.1,542.8 486.5,538.8 491.0,539.0 495.4,535.4 499.8,539.4 504.3,544.5 508.7,548.7 513.1,546.7 517.5,543.1 522.0,540.9 526.4,536.5 530.8,533.0 535.3,536.2 539.7,533.2 544.1,528.3 548.5,526.9 553.0,527.1 557.4,526.1 561.8,525.2 566.3,535.6 570.7,530.9 575.1,524.8 579.5,521.4 584.0,524.4 588.4,515.3 592.8,509.9 597.2,508.8 601.7,506.6 606.1,504.9 610.5,497.0 615.0,491.1 619.4,488.0 623.8,485.2 628.2,479.9 632.7,473.7 637.1,473.4 641.5,469.4 646.0,463.1 650.4,456.3 654.8,450.4 659.2,443.8 663.7,439.2 668.1,431.2 672.5,420.8 676.9,407.1 681.4,399.7 685.8,391.0 690.2,380.6 694.7,381.5 699.1,381.0 703.5,369.7 707.9,363.5 712.4,356.6 716.8,350.1 721.2,351.5 725.7,357.1 730.1,358.9 734.5,357.5 738.9,349.6 743.4,341.6 747.8,338.0 752.2,330.4 756.7,320.5 761.1,316.8 765.5,314.0 769.9,308.1 774.4,316.1 778.8,313.3 783.2,310.5 787.6,304.6 792.1,295.8 796.5,294.0 800.9,294.8 805.4,288.7 809.8,280.6 814.2,278.4 818.6,271.5 823.1,254.6 827.5,242.9 831.9,231.3 836.4,219.1 840.8,208.3 845.2,201.8 849.6,208.2 854.1,186.3 858.5,172.9 862.9,166.9 867.3,163.5 871.8,160.8 876.2,160.8 880.6,160.8 885.1,154.0 889.5,145.0 893.9,141.7 898.3,166.2 902.8,144.4 907.2,140.3 907.2,587.2 145.6,587.2" stroke="none" stroke-width="0.9000"  fill="#666" clip-path="url(#axis_clip)"/>
<polyline class="pl" points="145.6,584.8 150.0,584.8 154.5,584.7 158.9,584.5 163.3,584.1 167.7,584.0 172.2,583.8 176.6,583.8 181.0,583.7 185.5,583.5 189.9,583.2 194.3,583.0 198.7,582.9 203.2,582.6 207.6,582.2 212.0,581.9 216.4,581.8 220.9,581.4 225.3,581.2 229.7,580.8 234.2,580.7 238.6,580.3 243.0,579.6 247.4,579.1 251.9,579.6 256.3,579.0 260.7,578.8 265.2,578.7 269.6,578.6 274.0,578.0 278.4,576.8 282.9,576.5 287.3,575.9 291.7,575.1 296.1,575.0 300.6,574.9 305.0,574.7 309.4,574.1 313.9,572.7 318.3,572.7 322.7,571.4 327.1,570.7 331.6,570.5 336.0,570.7 340.4,570.2 344.9,569.1 349.3,568.5 353.7,567.7 358.1,566.6 362.6,564.7 367.0,563.5 371.4,562.7 375.9,562.1 380.3,559.8 384.7,559.6 389.1,557.8 393.6,556.5 398.0,552.2 402.4,553.5 406.8,552.2 411.3,550.4 415.7,549.9 420.1,548.0 424.6,544.7 429.0,548.6 433.4,549.2 437.8,546.2 442.3,544.3 446.7,544.8 451.1,550.5 455.6,544.5 460.0,549.7 464.4,547.9 468.8,542.6 473.3,542.5 477.7,542.0 482.1,542.8 486.5,538.8 491.0,539.0 495.4,535.4 499.8,539.4 504.3,544.5 508.7,548.7 513.1,546.7 517.5,543.1 522.0,540.9 526.4,536.5 530.8,533.0 535.3,536.2 539.7,533.2 544.1,528.3 548.5,526.9 553.0,527.1 557.4,526.1 561.8,525.2 566.3,535.6 570.7,530.9 575.1,524.8 579.5,521.4 584.0,524.4 588.4,515.3 592.8,509.9 597.2,508.8 601.7,506.6 606.1,504.9 610.5,497.0 615.0,491.1 619.4,488.0 623.8,485.2 628.2,479.9 632.7,473.7 637.1,473.4 641.5,469.4 646.0,463.1 650.4,456.3 654.8,450.4 659.2,443.8 663.7,439.2 668.1,431.2 672.5,420.8 676.9,407.1 681.4,399.7 685.8,391.0 690.2,380.6 694.7,381.5 699.1,381.0 703.5,369.7 707.9,363.5 712.4,356.6 716.8,350.1 721.2,351.5 725.7,357.1 730.1,358.9 734.5,357.5 738.9,349.6 743.4,341.6 747.8,338.0 752.2,330.4 756.7,320.5 761.1,316.8 765.5,314.0 769.9,308.1 774.4,316.1 778.8,313.3 783.2,310.5 787.6,304.6 792.1,295.8 796.5,294.0 800.9,294.8 805.4,288.7 809.8,280.6 814.2,278.4 818.6,271.5 823.1,254.6 827.5,242.9 831.9,231.3 836.4,219.1 840.8,208.3 845.2,201.8 849.6,208.2 854.1,186.3 858.5,172.9 862.9,166.9 867.3,163.5 871.8,160.8 876.2,160.8 880.6,160.8 885.1,154.0 889.5,145.0 893.9,141.7 898.3,166.2 902.8,144.4 907.2,140.3" stroke="#000" stroke-width="0.90" stroke-opacity="1.00" fill="none" clip-path="url(#axis_clip)"/>
  </g>
  <g class="pg_3">
    <polygon class="pl" points="145.6,584.8 150.0,584.8 154.5,584.7 158.9,584.5 163.3,584.1 167.7,584.0 172.2,583.8 176.6,583.8 181.0,583.7 185.5,583.5 189.9,583.2 194.3,583.0 198.7,582.9 203.2,582.6 207.6,582.2 212.0,581.9 216.4,581.8 220.9,581.4 225.3,581.2 229.7,580.8 234.2,580.7 238.6,580.3 243.0,579.6 247.4,579.1 251.9,579.6 256.3,579.0 260.7,578.8 265.2,578.7 269.6,578.6 274.0,578.0 278.4,576.8 282.9,576.5 287.3,575.9 291.7,575.1 296.1,575.0 300.6,574.9 305.0,574.7 309.4,574.1 313.9,572.7 318.3,572.7 322.7,571.4 327.1,570.7 331.6,570.5 336.0,570.7 340.4,570.2 344.9,569.1 349.3,568.5 353.7,567.7 358.1,566.6 362.6,564.7 367.0,563.5 371.4,562.7 375.9,562.1 380.3,559.8 384.7,559.6 389.1,557.8 393.6,556.5 398.0,552.2 402.4,553.5 406.8,552.2 411.3,550.4 415.7,549.9 420.1,548.0 424.6,544.7 429.0,548.6 433.4,549.2 437.8,546.2 442.3,544.3 446.7,544.8 451.1,550.5 455.6,544.5 460.0,549.7 464.4,547.9 468.8,542.6 473.3,542.5 477.7,542.2 482.1,543.0 486.5,538.9 491.0,539.4 495.4,535.9 499.8,539.9 504.3,544.9 508.7,549.0 513.1,547.0 517.5,543.5 522.0,541.3 526.4,536.9 530.8,533.4 535.3,536.7 539.7,533.7 544.1,528.6 548.5,527.5 553.0,527.5 557.4,526.5 561.8,525.4 566.3,535.9 570.7,531.3 575.1,525.4 579.5,522.1 584.0,525.1 588.4,517.0 592.8,511.7 597.2,510.8 601.7,508.7 606.1,507.0 610.5,499.5 615.0,493.9 619.4,490.8 623.8,487.9 628.2,482.8 632.7,476.7 637.1,476.4 641.5,472.5 646.0,466.4 650.4,460.2 654.8,454.7 659.2,448.4 663.7,444.5 668.1,436.7 672.5,427.1 676.9,413.9 681.4,407.3 685.8,399.1 690.2,389.6 694.7,390.4 699.1,389.2 703.5,378.8 707.9,372.6 712.4,366.1 716.8,359.3 721.2,360.2 725.7,364.9 730.1,366.7 734.5,365.1 738.9,356.9 743.4,348.9 747.8,345.4 752.2,338.0 756.7,328.6 761.1,324.7 765.5,323.1 769.9,317.6 774.4,325.5 778.8,322.9 783.2,321.4 787.6,316.1 792.1,307.7 796.5,306.3 800.9,306.9 805.4,301.1 809.8,293.5 814.2,291.6 818.6,284.9 823.1,269.2 827.5,258.0 831.9,247.2 836.4,236.1 840.8,226.2 845.2,219.7 849.6,226.5 854.1,205.6 858.5,193.6 862.9,188.2 867.3,185.7 871.8,183.7 876.2,183.0 880.6,183.3 885.1,176.9 889.5,168.9 893.9,166.6 898.3,190.9 902.8,169.8 907.2,164.6 907.2,587.2 145.6,587.2" stroke="none" stroke-width="0.9000"  fill="#6298C6" clip-path="url(#axis_clip)"/>
<polyline class="pl" points="145.6,584.8 150.0,584.8 154.5,584.7 158.9,584.5 163.3,584.1 167.7,584.0 172.2,583.8 176.6,583.8 181.0,583.7 185.5,583.5 189.9,583.2 194.3,583.0 198.7,582.9 203.2,582.6 207.6,582.2 212.0,581.9 216.4,581.8 220.9,581.4 225.3,581.2 229.7,580.8 234.2,580.7 238.6,580.3 243.0,579.6 247.4,579.1 251.9,579.6 256.3,579.0 260.7,578.8 265.2,578.7 269.6,578.6 274.0,578.0 278.4,576.8 282.9,576.5 287.3,575.9 291.7,575.1 296.1,575.0 300.6,574.9 305.0,574.7 309.4,574.1 313.9,572.7 318.3,572.7 322.7,571.4 327.1,570.7 331.6,570.5 336.0,570.7 340.4,570.2 344.9,569.1 349.3,568.5 353.7,567.7 358.1,566.6 362.6,564.7 367.0,563.5 371.4,562.7 375.9,562.1 380.3,559.8 384.7,559.6 389.1,557.8 393.6,556.5 398.0,552.2 402.4,553.5 406.8,552.2 411.3,550.4 415.7,549.9 420.1,548.0 424.6,544.7 429.0,548.6 433.4,549.2 437.8,546.2 442.3,544.3 446.7,544.8 451.1,550.5 455.6,544.5 460.0,549.7 464.4,547.9 468.8,542.6 473.3,542.5 477.7,542.2 482.1,543.0 486.5,538.9 491.0,539.4 495.4,535.9 499.8,539.9 504.3,544.9 508.7,549.0 513.1,547.0 517.5,543.5 522.0,541.3 526.4,536.9 530.8,533.4 535.3,536.7 539.7,533.7 544.1,528.6 548.5,527.5 553.0,527.5 557.4,526.5 561.8,525.4 566.3,535.9 570.7,531.3 575.1,525.4 579.5,522.1 584.0,525.1 588.4,517.0 592.8,511.7 597.2,510.8 601.7,508.7 606.1,507.0 610.5,499.5 615.0,493.9 619.4,490.8 623.8,487.9 628.2,482.8 632.7,476.7 637.1,476.4 641.5,472.5 646.0,466.4 650.4,460.2 654.8,454.7 659.2,448.4 663.7,444.5 668.1,436.7 672.5,427.1 676.9,413.9 681.4,407.3 685.8,399.1 690.2,389.6 694.7,390.4 699.1,389.2 703.5,378.8 707.9,372.6 712.4,366.1 716.8,359.3 721.2,360.2 725.7,364.9 730.1,366.7 734.5,365.1 738.9,356.9 743.4,348.9 747.8,345.4 752.2,338.0 756.7,328.6 761.1,324.7 765.5,323.1 769.9,317.6 774.4,325.5 778.8,322.9 783.2,321.4 787.6,316.1 792.1,307.7 796.5,306.3 800.9,306.9 805.4,301.1 809.8,293.5 814.2,291.6 818.6,284.9 823.1,269.2 827.5,258.0 831.9,247.2 836.4,236.1 840.8,226.2 845.2,219.7 849.6,226.5 854.1,205.6 858.5,193.6 862.9,188.2 867.3,185.7 871.8,183.7 876.2,183.0 880.6,183.3 885.1,176.9 889.5,168.9 893.9,166.6 898.3,190.9 902.8,169.8 907.2,164.6" stroke="#000" stroke-width="0.90" stroke-opacity="1.00" fill="none" clip-path="url(#axis_clip)"/>
  </g>
  <g class="pg_2">
    <polygon class="pl" points="145.6,584.8 150.0,584.8 154.5,584.7 158.9,584.5 163.3,584.1 167.7,584.0 172.2,583.8 176.6,583.8 181.0,583.7 185.5,583.5 189.9,583.2 194.3,583.0 198.7,582.9 203.2,582.6 207.6,582.2 212.0,581.9 216.4,581.8 220.9,581.4 225.3,581.2 229.7,580.8 234.2,580.7 238.6,580.3 243.0,579.6 247.4,579.1 251.9,579.6 256.3,579.0 260.7,578.8 265.2,578.7 269.6,578.6 274.0,578.0 278.4,576.8 282.9,576.5 287.3,575.9 291.7,575.1 296.1,575.0 300.6,575.0 305.0,574.8 309.4,574.2 313.9,572.9 318.3,572.8 322.7,571.5 327.1,570.8 331.6,570.6 336.0,570.8 340.4,570.2 344.9,569.2 349.3,568.6 353.7,567.8 358.1,566.7 362.6,564.8 367.0,563.6 371.4,562.9 375.9,562.3 380.3,560.0 384.7,559.7 389.1,558.0 393.6,556.7 398.0,552.4 402.4,553.8 406.8,552.4 411.3,550.7 415.7,550.2 420.1,548.3 424.6,545.0 429.0,549.0 433.4,549.6 437.8,546.6 442.3,544.8 446.7,545.3 451.1,550.9 455.6,545.0 460.0,550.2 464.4,548.4 468.8,543.3 473.3,543.2 477.7,543.0 482.1,543.8 486.5,539.9 491.0,540.4 495.4,537.1 499.8,541.1 504.3,546.0 508.7,550.1 513.1,548.1 517.5,544.7 522.0,542.7 526.4,538.4 530.8,535.2 535.3,538.3 539.7,535.4 544.1,530.5 548.5,529.3 553.0,529.6 557.4,528.7 561.8,527.8 566.3,538.5 570.7,534.0 575.1,528.4 579.5,525.5 584.0,528.7 588.4,521.3 592.8,516.8 597.2,516.3 601.7,514.4 606.1,513.1 610.5,506.1 615.0,501.0 619.4,498.6 623.8,496.5 628.2,492.0 632.7,486.8 637.1,487.1 641.5,484.3 646.0,479.1 650.4,474.2 654.8,469.6 659.2,464.6 663.7,461.8 668.1,455.6 672.5,447.8 676.9,435.6 681.4,430.7 685.8,424.0 690.2,416.4 694.7,417.8 699.1,416.5 703.5,407.7 707.9,402.2 712.4,397.1 716.8,391.9 721.2,393.7 725.7,398.8 730.1,399.8 734.5,398.6 738.9,393.5 743.4,386.8 747.8,382.3 752.2,378.1 756.7,370.7 761.1,368.8 765.5,369.5 769.9,365.0 774.4,373.5 778.8,372.2 783.2,371.2 787.6,367.2 792.1,361.1 796.5,359.9 800.9,361.3 805.4,356.8 809.8,350.9 814.2,349.3 818.6,344.4 823.1,330.8 827.5,321.8 831.9,312.4 836.4,303.3 840.8,295.7 845.2,291.2 849.6,296.2 854.1,280.7 858.5,270.9 862.9,267.1 867.3,264.9 871.8,264.3 876.2,265.2 880.6,267.9 885.1,263.3 889.5,259.8 893.9,259.0 898.3,282.5 902.8,265.9 907.2,258.6 907.2,587.2 145.6,587.2" stroke="none" stroke-width="0.9000"  fill="#404040" clip-path="url(#axis_clip)"/>
<polyline class="pl" points="145.6,584.8 150.0,584.8 154.5,584.7 158.9,584.5 163.3,584.1 167.7,584.0 172.2,583.8 176.6,583.8 181.0,583.7 185.5,583.5 189.9,583.2 194.3,583.0 198.7,582.9 203.2,582.6 207.6,582.2 212.0,581.9 216.4,581.8 220.9,581.4 225.3,581.2 229.7,580.8 234.2,580.7 238.6,580.3 243.0,579.6 247.4,579.1 251.9,579.6 256.3,579.0 260.7,578.8 265.2,578.7 269.6,578.6 274.0,578.0 278.4,576.8 282.9,576.5 287.3,575.9 291.7,575.1 296.1,575.0 300.6,575.0 305.0,574.8 309.4,574.2 313.9,572.9 318.3,572.8 322.7,571.5 327.1,570.8 331.6,570.6 336.0,570.8 340.4,570.2 344.9,569.2 349.3,568.6 353.7,567.8 358.1,566.7 362.6,564.8 367.0,563.6 371.4,562.9 375.9,562.3 380.3,560.0 384.7,559.7 389.1,558.0 393.6,556.7 398.0,552.4 402.4,553.8 406.8,552.4 411.3,550.7 415.7,550.2 420.1,548.3 424.6,545.0 429.0,549.0 433.4,549.6 437.8,546.6 442.3,544.8 446.7,545.3 451.1,550.9 455.6,545.0 460.0,550.2 464.4,548.4 468.8,543.3 473.3,543.2 477.7,543.0 482.1,543.8 486.5,539.9 491.0,540.4 495.4,537.1 499.8,541.1 504.3,546.0 508.7,550.1 513.1,548.1 517.5,544.7 522.0,542.7 526.4,538.4 530.8,535.2 535.3,538.3 539.7,535.4 544.1,530.5 548.5,529.3 553.0,529.6 557.4,528.7 561.8,527.8 566.3,538.5 570.7,534.0 575.1,528.4 579.5,525.5 584.0,528.7 588.4,521.3 592.8,516.8 597.2,516.3 601.7,514.4 606.1,513.1 610.5,506.1 615.0,501.0 619.4,498.6 623.8,496.5 628.2,492.0 632.7,486.8 637.1,487.1 641.5,484.3 646.0,479.1 650.4,474.2 654.8,469.6 659.2,464.6 663.7,461.8 668.1,455.6 672.5,447.8 676.9,435.6 681.4,430.7 685.8,424.0 690.2,416.4 694.7,417.8 699.1,416.5 703.5,407.7 707.9,402.2 712.4,397.1 716.8,391.9 721.2,393.7 725.7,398.8 730.1,399.8 734.5,398.6 738.9,393.5 743.4,386.8 747.8,382.3 752.2,378.1 756.7,370.7 761.1,368.8 765.5,369.5 769.9,365.0 774.4,373.5 778.8,372.2 783.2,371.2 787.6,367.2 792.1,361.1 796.5,359.9 800.9,361.3 805.4,356.8 809.8,350.9 814.2,349.3 818.6,344.4 823.1,330.8 827.5,321.8 831.9,312.4 836.4,303.3 840.8,295.7 845.2,291.2 849.6,296.2 854.1,280.7 858.5,270.9 862.9,267.1 867.3,264.9 871.8,264.3 876.2,265.2 880.6,267.9 885.1,263.3 889.5,259.8 893.9,259.0 898.3,282.5 902.8,265.9 907.2,258.6" stroke="#000" stroke-width="0.90" stroke-opacity="1.00" fill="none" clip-path="url(#axis_clip)"/>
  </g>
  <g class="pg_1">
    <polygon class="pl" points="145.6,584.8 150.0,584.8 154.5,584.7 158.9,584.5 163.3,584.1 167.7,584.0 172.2,583.8 176.6,583.8 181.0,583.7 185.5,583.5 189.9,583.2 194.3,583.0 198.7,582.9 203.2,582.6 207.6,582.2 212.0,581.9 216.4,581.8 220.9,581.4 225.3,581.2 229.7,580.9 234.2,580.7 238.6,580.3 243.0,579.6 247.4,579.2 251.9,579.7 256.3,579.0 260.7,578.9 265.2,578.8 269.6,578.7 274.0,578.2 278.4,577.0 282.9,576.7 287.3,576.1 291.7,575.3 296.1,575.2 300.6,575.2 305.0,575.1 309.4,574.5 313.9,573.2 318.3,573.2 322.7,572.0 327.1,571.3 331.6,571.1 336.0,571.3 340.4,570.7 344.9,569.8 349.3,569.3 353.7,568.4 358.1,567.4 362.6,565.6 367.0,564.5 371.4,563.8 375.9,563.2 380.3,561.1 384.7,560.9 389.1,559.2 393.6,557.9 398.0,553.9 402.4,555.3 406.8,554.1 411.3,552.5 415.7,552.0 420.1,550.2 424.6,547.3 429.0,551.3 433.4,552.0 437.8,549.2 442.3,547.7 446.7,548.3 451.1,554.2 455.6,549.3 460.0,554.8 464.4,553.6 468.8,549.0 473.3,548.9 477.7,549.0 482.1,549.8 486.5,546.4 491.0,547.1 495.4,544.5 499.8,548.2 504.3,552.9 508.7,556.6 513.1,555.2 517.5,552.3 522.0,550.8 526.4,547.3 530.8,545.2 535.3,548.0 539.7,545.5 544.1,541.2 548.5,540.1 553.0,539.8 557.4,539.6 561.8,540.3 566.3,550.8 570.7,548.0 575.1,543.3 579.5,541.8 584.0,544.2 588.4,540.4 592.8,538.0 597.2,538.6 601.7,538.2 606.1,538.2 610.5,534.2 615.0,531.4 619.4,530.4 623.8,529.5 628.2,527.2 632.7,524.7 637.1,527.3 641.5,527.5 646.0,525.3 650.4,524.0 654.8,523.1 659.2,522.3 663.7,523.4 668.1,522.7 672.5,520.3 676.9,518.1 681.4,518.1 685.8,518.2 690.2,516.1 694.7,516.1 699.1,514.0 703.5,511.3 707.9,509.4 712.4,508.1 716.8,504.4 721.2,502.2 725.7,502.4 730.1,500.9 734.5,498.7 738.9,494.4 743.4,487.7 747.8,486.3 752.2,482.9 756.7,479.3 761.1,479.4 765.5,481.7 769.9,482.7 774.4,485.2 778.8,484.0 783.2,483.4 787.6,480.4 792.1,477.7 796.5,478.3 800.9,481.2 805.4,479.7 809.8,475.5 814.2,474.9 818.6,469.7 823.1,459.6 827.5,455.3 831.9,447.1 836.4,439.2 840.8,432.1 845.2,427.1 849.6,429.1 854.1,418.1 858.5,408.5 862.9,406.5 867.3,405.4 871.8,405.2 876.2,409.4 880.6,413.5 885.1,411.5 889.5,408.6 893.9,409.1 898.3,414.7 902.8,405.5 907.2,402.6 907.2,587.2 145.6,587.2" stroke="none" stroke-width="0.9000"  fill="#7B553E" clip-path="url(#axis_clip)"/>
<polyline class="pl" points="145.6,584.8 150.0,584.8 154.5,584.7 158.9,584.5 163.3,584.1 167.7,584.0 172.2,583.8 176.6,583.8 181.0,583.7 185.5,583.5 189.9,583.2 194.3,583.0 198.7,582.9 203.2,582.6 207.6,582.2 212.0,581.9 216.4,581.8 220.9,581.4 225.3,581.2 229.7,580.9 234.2,580.7 238.6,580.3 243.0,579.6 247.4,579.2 251.9,579.7 256.3,579.0 260.7,578.9 265.2,578.8 269.6,578.7 274.0,578.2 278.4,577.0 282.9,576.7 287.3,576.1 291.7,575.3 296.1,575.2 300.6,575.2 305.0,575.1 309.4,574.5 313.9,573.2 318.3,573.2 322.7,572.0 327.1,571.3 331.6,571.1 336.0,571.3 340.4,570.7 344.9,569.8 349.3,569.3 353.7,568.4 358.1,567.4 362.6,565.6 367.0,564.5 371.4,563.8 375.9,563.2 380.3,561.1 384.7,560.9 389.1,559.2 393.6,557.9 398.0,553.9 402.4,555.3 406.8,554.1 411.3,552.5 415.7,552.0 420.1,550.2 424.6,547.3 429.0,551.3 433.4,552.0 437.8,549.2 442.3,547.7 446.7,548.3 451.1,554.2 455.6,549.3 460.0,554.8 464.4,553.6 468.8,549.0 473.3,548.9 477.7,549.0 482.1,549.8 486.5,546.4 491.0,547.1 495.4,544.5 499.8,548.2 504.3,552.9 508.7,556.6 513.1,555.2 517.5,552.3 522.0,550.8 526.4,547.3 530.8,545.2 535.3,548.0 539.7,545.5 544.1,541.2 548.5,540.1 553.0,539.8 557.4,539.6 561.8,540.3 566.3,550.8 570.7,548.0 575.1,543.3 579.5,541.8 584.0,544.2 588.4,540.4 592.8,538.0 597.2,538.6 601.7,538.2 606.1,538.2 610.5,534.2 615.0,531.4 619.4,530.4 623.8,529.5 628.2,527.2 632.7,524.7 637.1,527.3 641.5,527.5 646.0,525.3 650.4,524.0 654.8,523.1 659.2,522.3 663.7,523.4 668.1,522.7 672.5,520.3 676.9,518.1 681.4,518.1 685.8,518.2 690.2,516.1 694.7,516.1 699.1,514.0 703.5,511.3 707.9,509.4 712.4,508.1 716.8,504.4 721.2,502.2 725.7,502.4 730.1,500.9 734.5,498.7 738.9,494.4 743.4,487.7 747.8,486.3 752.2,482.9 756.7,479.3 761.1,479.4 765.5,481.7 769.9,482.7 774.4,485.2 778.8,484.0 783.2,483.4 787.6,480.4 792.1,477.7 796.5,478.3 800.9,481.2 805.4,479.7 809.8,475.5 814.2,474.9 818.6,469.7 823.1,459.6 827.5,455.3 831.9,447.1 836.4,439.2 840.8,432.1 845.2,427.1 849.6,429.1 854.1,418.1 858.5,408.5 862.9,406.5 867.3,405.4 871.8,405.2 876.2,409.4 880.6,413.5 885.1,411.5 889.5,408.6 893.9,409.1 898.3,414.7 902.8,405.5 907.2,402.6" stroke="#000" stroke-width="0.90" stroke-opacity="1.00" fill="none" clip-path="url(#axis_clip)"/>
  </g>
</g>
<text transform="translate(925.2,494.9)" dy="8.1" font-size="27.00" fill="#7B553E" stroke="none">Coal</text>
<text transform="translate(925.2,330.6)" dy="8.1" font-size="27.00" fill="#404040" stroke="none">Oil</text>
<text transform="translate(925.2,211.6)" dy="8.1" font-size="27.00" fill="#6298C6" stroke="none">Gas</text>
<text transform="translate(925.2,152.5)" dy="8.1" font-size="27.00" fill="#666" stroke="none">Others</text>
<text transform="translate(925.2,114.2)" dy="8.1" font-size="27.00" fill="#DEC17C" stroke="none">Land-use change</text>
<text transform="translate(145.6,47.2)" dy="0.0" font-size="27.00" fill="#808080" stroke="none">Annual Global Emissions</text>
<text transform="translate(160.1,666.1)" font-size="19.80" font-family="Helvetica" fill="#BFBFBF" stroke="none" xml:space="preserve">Global Carbon Project</text>
<g>
  <rect x="123.0" y="651.4" width="34" height="17" fill="#FFF" stroke="none"/>
  <g transform="translate(124.0,652.4) scale(0.24)">
  <g><circle fill="#FFF" cx="37.79" cy="28.5" r="28.84"/>
     <circle fill="none" cx="37.79" cy="28.5" r="28.84" stroke="#BFBFBF" stroke-width="5.5"/>
     <path fill="#BFBFBF" d="M37.16,23.19 l-4.29,2.23c-0.458-0.951-1.02-1.62-1.69-2c-0.667-0.38-1.29-0.571-1.86-0.571c-2.86,0-4.29,1.89-4.29,5.66 c0,1.71,0.36,3.08,1.09,4.11c0.724,1.03,1.79,1.54,3.2,1.54c1.87,0,3.18-0.915,3.94-2.74l3.94,2 c-0.838,1.56-2,2.79-3.49,3.69c-1.48,0.896-3.12,1.34-4.91,1.34c-2.86,0-5.16-0.875-6.92-2.63 c-1.75-1.75-2.63-4.19-2.63-7.31c0-3.05,0.886-5.47,2.66-7.26c1.77-1.79,4.01-2.69,6.72-2.69 C32.6,18.56,35.44,20.1,37.16,23.19z
              M55.61,23.19l-4.23,2.23c-0.457-0.951-1.02-1.62-1.69-2 c-0.668-0.38-1.31-0.571-1.91-0.571c-2.86,0-4.29,1.89-4.29,5.66c0,1.71,0.363,3.08,1.09,4.11 c0.723,1.03,1.79,1.54,3.2,1.54c1.87,0,3.18-0.915,3.94-2.74l4,2c-0.875,1.56-2.06,2.79-3.54,3.69 c-1.49,0.9-3.11,1.34-4.86,1.34c-2.9,0-5.21-0.875-6.94-2.63c-1.74-1.75-2.6-4.19-2.6-7.31 c0-3.05,0.885-5.47,2.66-7.26c1.77-1.79,4.01-2.69,6.71-2.69C51.12,18.56,53.944,20.1,55.61,23.19z"/>
  </g></g>
  <g transform="translate(140.2,652.4) scale(0.24)">
  <g><circle fill="#FFF" cx="37.79" cy="28.5" r="28.84"/>
     <circle fill="none" cx="37.79" cy="28.5" r="28.84" stroke="#BFBFBF" stroke-width="5.5"/>
     <path fill="#BFBFBF" d="M46.129,20.557v13.085h-3.656v15.542h-9.944V33.643h-3.656V20.557 c0-0.572,0.2-1.057,0.599-1.457c0.401-0.399,0.887-0.6,1.457-0.6h13.144c0.533,0,1.01,0.2,1.428,0.6 C45.918,19.5,46.129,19.986,46.129,20.557z
              M33.042,12.329c0-3.008,1.485-4.514,4.458-4.514s4.457,1.504,4.457,4.514 c0,2.971-1.486,4.457-4.457,4.457S33.042,15.3,33.042,12.329z"/>
  </g></g>
</g>
</g>
</svg>
