<svg version="1.1" xmlns="http://www.w3.org/2000/svg" xmlns:xlink="http://www.w3.org/1999/xlink" width="100%" height="100%" viewBox="0 0 1200.000 674.916">
<title>Emissions and removals on forest land: Russia</title>
<style type="text/css">
  #main {font-family:Helvetica,Arial,sans-serif; font-size:27.00px;
         fill-opacity:1; fill:#000000; stroke:none; stroke-linejoin:round; stroke-linecap:round; stroke-width:1.00;}
  .marker {stroke-opacity:0;fill-opacity:0;}
  .marker:hover {stroke-opacity:0.5; fill-opacity:1;}
  .ticklabel {font-size:27.00px;fill:#808080;stroke:none;font-family:Helvetica}
  .ytl {text-anchor:end;}
  .dp1 {pointer-events:none;font-size:70%;text-anchor:middle;fill:#000000;}
  .dp2 {pointer-events:none;font-size:70%;text-anchor:middle;fill:#FFFFFF;}
  .numtip {pointer-events:none;}
  .cc {opacity:0.25;}
.dl_fe {background-color:#FDFFDF;display:flex;margin:auto;align-items:center}
.dl_fe_p {font-size:20px;text-align:center;margin:3px}
.dl_el {display:none;pointer-events:none;}
.cc:hover + .dl_el {display:block;}
text:hover + .dl_el {display:block;}
</style>
<defs>
  <clipPath id="axis_clip"><rect x="145.8" y="54.2" width="761.2" height="532.8" /></clipPath>
  <path id="line_y" d="M 0,53.993 v 533.183" stroke="#262626" stroke-opacity="0.15" stroke-width="1.00"/>
  <path id="line_x" d="M 145.600,0 h 761.600" stroke="#262626" stroke-opacity="0.15" stroke-width="1.00"/>
  <path id="tick_y" d="M 145.600,0 h -6.000" stroke="#808080" stroke-width="0.90"/>
  <path id="tick_x" d="M 0,587.177 v 6.000" stroke="#808080" stroke-width="0.90"/>
</defs>
<g id="main">
<use xlink:href="#line_y" transform="translate(156.5,0)"/>
<use xlink:href="#line_y" transform="translate(265.3,0)"/>
<use xlink:href="#line_y" transform="translate(374.1,0)"/>
<use xlink:href="#line_y" transform="translate(482.9,0)"/>
<use xlink:href="#line_y" transform="translate(591.7,0)"/>
<use xlink:href="#line_y" transform="translate(700.5,0)"/>
<use xlink:href="#line_y" transform="translate(809.3,0)"/>
<use xlink:href="#line_y" transform="translate(896.3,0)"/>
<use xlink:href="#line_x" transform="translate(0,511.0)"/>
<use xlink:href="#line_x" transform="translate(0,358.7)"/>
<use xlink:href="#line_x" transform="translate(0,206.3)"/>
<use xlink:href="#line_x" transform="translate(0,54.0)"/>
<use xlink:href="#tick_y" transform="translate(0,511.0)"/>
<use xlink:href="#tick_y" transform="translate(0,358.7)"/>
<use xlink:href="#tick_y" transform="translate(0,206.3)"/>
<use xlink:href="#tick_y" transform="translate(0,54.0)"/>
<use xlink:href="#tick_x" transform="translate(156.5,0)"/>
<use xlink:href="#tick_x" transform="translate(265.3,0)"/>
<use xlink:href="#tick_x" transform="translate(374.1,0)"/>
<use xlink:href="#tick_x" transform="translate(482.9,0)"/>
<use xlink:href="#tick_x" transform="translate(591.7,0)"/>
<use xlink:href="#tick_x" transform="translate(700.5,0)"/>
<use xlink:href="#tick_x" transform="translate(809.3,0)"/>
<use xlink:href="#tick_x" transform="translate(896.3,0)"/>
<polyline points="145.6,53.993 145.6,587.177 907.2,587.177" stroke="#808080" stroke-width="0.90" fill="none"/>
<text class="ticklabel xtl" transform="translate(156.5,629.0)" text-anchor="middle">1990</text>
<text class="ticklabel xtl" transform="translate(265.3,629.0)" text-anchor="middle">1995</text>
<text class="ticklabel xtl" transform="translate(374.1,629.0)" text-anchor="middle">2000</text>
<text class="ticklabel xtl" transform="translate(482.9,629.0)" text-anchor="middle">2005</text>
<text class="ticklabel xtl" transform="translate(591.7,629.0)" text-anchor="middle">2010</text>
<text class="ticklabel xtl" transform="translate(700.5,629.0)" text-anchor="middle">2015</text>
<text class="ticklabel xtl" transform="translate(809.3,629.0)" text-anchor="middle">2020</text>
<text class="ticklabel xtl" transform="translate(896.3,629.0)" text-anchor="middle">2024</text>
<text class="ticklabel ytl" transform="translate(128.8,519.1)">-2000</text>
<text class="ticklabel ytl" transform="translate(128.8,366.8)">-1000</text>
<text class="ticklabel ytl" transform="translate(128.8,214.4)">0</text>
<text class="ticklabel ytl" transform="translate(128.8,62.1)">1000 Mt</text>
<g stroke="#000" stroke-width="0.90" fill="#87AC55"  clip-path="url(#axis_clip)">
  <polygon class="pl" points="147.8,93.3 147.8,93.4 165.2,93.4 165.2,93.3 147.8,93.3"/>
  <polygon class="pl" points="626.5,88.0 626.5,92.9 643.9,92.9 643.9,88.0 626.5,88.0"/>
  <polygon class="pl" points="822.3,110.4 822.3,116.2 839.7,116.2 839.7,110.4 822.3,110.4"/>
</g>
<g stroke="#000" stroke-width="0.90" fill="#834B8E"  clip-path="url(#axis_clip)">
  <polygon class="pl" points="822.3,116.2 822.3,116.5 839.7,116.5 839.7,116.2 822.3,116.2"/>
</g>
<g stroke="#000" stroke-width="0.90" fill="#D5AF54"  clip-path="url(#axis_clip)">
</g>
<g stroke="#000" stroke-width="0.90" fill="#D97B53"  clip-path="url(#axis_clip)">
  <polygon class="pl" points="147.8,93.4 147.8,206.3 165.2,206.3 165.2,93.4 147.8,93.4"/>
  <polygon class="pl" points="169.5,121.3 169.5,206.3 186.9,206.3 186.9,121.3 169.5,121.3"/>
  <polygon class="pl" points="191.3,126.4 191.3,206.3 208.7,206.3 208.7,126.4 191.3,126.4"/>
  <polygon class="pl" points="213.1,139.6 213.1,206.3 230.5,206.3 230.5,139.6 213.1,139.6"/>
  <polygon class="pl" points="234.8,157.9 234.8,206.3 252.2,206.3 252.2,157.9 234.8,157.9"/>
  <polygon class="pl" points="256.6,164.2 256.6,206.3 274.0,206.3 274.0,164.2 256.6,164.2"/>
  <polygon class="pl" points="278.3,137.3 278.3,206.3 295.7,206.3 295.7,137.3 278.3,137.3"/>
  <polygon class="pl" points="300.1,157.4 300.1,206.3 317.5,206.3 317.5,157.4 300.1,157.4"/>
  <polygon class="pl" points="321.9,120.7 321.9,206.3 339.3,206.3 339.3,120.7 321.9,120.7"/>
  <polygon class="pl" points="343.6,153.4 343.6,206.3 361.0,206.3 361.0,153.4 343.6,153.4"/>
  <polygon class="pl" points="365.4,138.7 365.4,206.3 382.8,206.3 382.8,138.7 365.4,138.7"/>
  <polygon class="pl" points="387.1,148.3 387.1,206.3 404.5,206.3 404.5,148.3 387.1,148.3"/>
  <polygon class="pl" points="408.9,138.7 408.9,206.3 426.3,206.3 426.3,138.7 408.9,138.7"/>
  <polygon class="pl" points="430.7,111.7 430.7,206.3 448.1,206.3 448.1,111.7 430.7,111.7"/>
  <polygon class="pl" points="452.4,156.7 452.4,206.3 469.8,206.3 469.8,156.7 452.4,156.7"/>
  <polygon class="pl" points="474.2,143.9 474.2,206.3 491.6,206.3 491.6,143.9 474.2,143.9"/>
  <polygon class="pl" points="495.9,148.6 495.9,206.3 513.3,206.3 513.3,148.6 495.9,148.6"/>
  <polygon class="pl" points="517.7,155.8 517.7,206.3 535.1,206.3 535.1,155.8 517.7,155.8"/>
  <polygon class="pl" points="539.5,150.7 539.5,206.3 556.9,206.3 556.9,150.7 539.5,150.7"/>
  <polygon class="pl" points="561.2,158.8 561.2,206.3 578.6,206.3 578.6,158.8 561.2,158.8"/>
  <polygon class="pl" points="583.0,155.4 583.0,206.3 600.4,206.3 600.4,155.4 583.0,155.4"/>
  <polygon class="pl" points="604.7,124.4 604.7,206.3 622.1,206.3 622.1,124.4 604.7,124.4"/>
  <polygon class="pl" points="626.5,92.9 626.5,206.3 643.9,206.3 643.9,92.9 626.5,92.9"/>
  <polygon class="pl" points="648.3,151.7 648.3,206.3 665.7,206.3 665.7,151.7 648.3,151.7"/>
  <polygon class="pl" points="670.0,134.5 670.0,206.3 687.4,206.3 687.4,134.5 670.0,134.5"/>
  <polygon class="pl" points="691.8,136.5 691.8,206.3 709.2,206.3 709.2,136.5 691.8,136.5"/>
  <polygon class="pl" points="713.5,129.6 713.5,206.3 730.9,206.3 730.9,129.6 713.5,129.6"/>
  <polygon class="pl" points="735.3,139.0 735.3,206.3 752.7,206.3 752.7,139.0 735.3,139.0"/>
  <polygon class="pl" points="757.1,134.5 757.1,206.3 774.5,206.3 774.5,134.5 757.1,134.5"/>
  <polygon class="pl" points="778.8,119.6 778.8,206.3 796.2,206.3 796.2,119.6 778.8,119.6"/>
  <polygon class="pl" points="800.6,136.5 800.6,206.3 818.0,206.3 818.0,136.5 800.6,136.5"/>
  <polygon class="pl" points="822.3,116.5 822.3,206.3 839.7,206.3 839.7,116.5 822.3,116.5"/>
  <polygon class="pl" points="844.1,147.2 844.1,206.3 861.5,206.3 861.5,147.2 844.1,147.2"/>
  <polygon class="pl" points="865.9,143.2 865.9,206.3 883.3,206.3 883.3,143.2 865.9,143.2"/>
  <polygon class="pl" points="887.6,158.5 887.6,206.3 905.0,206.3 905.0,158.5 887.6,158.5"/>
</g>
<g stroke="#000" stroke-width="0.90" fill="#66BF7D"  clip-path="url(#axis_clip)">
</g>
<g stroke="#000" stroke-width="0.90" fill="#87AC55"  clip-path="url(#axis_clip)">
  <polygon class="pl" points="169.5,450.2 169.5,445.0 186.9,445.0 186.9,450.2 169.5,450.2"/>
  <polygon class="pl" points="191.3,454.9 191.3,448.6 208.7,448.6 208.7,454.9 191.3,454.9"/>
  <polygon class="pl" points="213.1,463.2 213.1,455.7 230.5,455.7 230.5,463.2 213.1,463.2"/>
  <polygon class="pl" points="234.8,471.6 234.8,461.8 252.2,461.8 252.2,471.6 234.8,471.6"/>
  <polygon class="pl" points="256.6,478.2 256.6,467.0 274.0,467.0 274.0,478.2 256.6,478.2"/>
  <polygon class="pl" points="278.3,472.1 278.3,467.0 295.7,467.0 295.7,472.1 278.3,472.1"/>
  <polygon class="pl" points="300.1,485.5 300.1,474.9 317.5,474.9 317.5,485.5 300.1,485.5"/>
  <polygon class="pl" points="321.9,475.3 321.9,472.6 339.3,472.6 339.3,475.3 321.9,475.3"/>
  <polygon class="pl" points="343.6,491.8 343.6,481.4 361.0,481.4 361.0,491.8 343.6,491.8"/>
  <polygon class="pl" points="365.4,490.9 365.4,483.4 382.8,483.4 382.8,490.9 365.4,490.9"/>
  <polygon class="pl" points="387.1,497.5 387.1,488.1 404.5,488.1 404.5,497.5 387.1,497.5"/>
  <polygon class="pl" points="408.9,497.8 408.9,490.0 426.3,490.0 426.3,497.8 408.9,497.8"/>
  <polygon class="pl" points="430.7,497.1 430.7,493.8 448.1,493.8 448.1,497.1 430.7,497.1"/>
  <polygon class="pl" points="452.4,515.3 452.4,503.4 469.8,503.4 469.8,515.3 452.4,515.3"/>
  <polygon class="pl" points="474.2,516.6 474.2,506.7 491.6,506.7 491.6,516.6 474.2,516.6"/>
  <polygon class="pl" points="495.9,519.9 495.9,510.6 513.3,510.6 513.3,519.9 495.9,519.9"/>
  <polygon class="pl" points="517.7,517.8 517.7,506.5 535.1,506.5 535.1,517.8 517.7,517.8"/>
  <polygon class="pl" points="539.5,518.2 539.5,510.2 556.9,510.2 556.9,518.2 539.5,518.2"/>
  <polygon class="pl" points="561.2,515.0 561.2,504.1 578.6,504.1 578.6,515.0 561.2,515.0"/>
  <polygon class="pl" points="583.0,503.6 583.0,492.4 600.4,492.4 600.4,503.6 583.0,503.6"/>
  <polygon class="pl" points="604.7,485.4 604.7,479.4 622.1,479.4 622.1,485.4 604.7,485.4"/>
  <polygon class="pl" points="648.3,471.9 648.3,463.7 665.7,463.7 665.7,471.9 648.3,471.9"/>
  <polygon class="pl" points="670.0,457.5 670.0,451.2 687.4,451.2 687.4,457.5 670.0,457.5"/>
  <polygon class="pl" points="691.8,451.2 691.8,442.8 709.2,442.8 709.2,451.2 691.8,451.2"/>
  <polygon class="pl" points="713.5,436.2 713.5,433.0 730.9,433.0 730.9,436.2 713.5,436.2"/>
  <polygon class="pl" points="735.3,438.0 735.3,430.2 752.7,430.2 752.7,438.0 735.3,438.0"/>
  <polygon class="pl" points="757.1,432.4 757.1,427.7 774.5,427.7 774.5,432.4 757.1,432.4"/>
  <polygon class="pl" points="778.8,438.6 778.8,434.5 796.2,434.5 796.2,438.6 778.8,438.6"/>
  <polygon class="pl" points="800.6,439.5 800.6,433.7 818.0,433.7 818.0,439.5 800.6,439.5"/>
  <polygon class="pl" points="844.1,446.8 844.1,435.0 861.5,435.0 861.5,446.8 844.1,446.8"/>
  <polygon class="pl" points="865.9,443.5 865.9,432.8 883.3,432.8 883.3,443.5 865.9,443.5"/>
  <polygon class="pl" points="887.6,438.5 887.6,424.5 905.0,424.5 905.0,438.5 887.6,438.5"/>
</g>
<g stroke="#000" stroke-width="0.90" fill="#834B8E"  clip-path="url(#axis_clip)">
  <polygon class="pl" points="147.8,440.9 147.8,440.5 165.2,440.5 165.2,440.9 147.8,440.9"/>
  <polygon class="pl" points="169.5,445.0 169.5,443.7 186.9,443.7 186.9,445.0 169.5,445.0"/>
  <polygon class="pl" points="191.3,448.6 191.3,447.0 208.7,447.0 208.7,448.6 191.3,448.6"/>
  <polygon class="pl" points="213.1,455.7 213.1,453.7 230.5,453.7 230.5,455.7 213.1,455.7"/>
  <polygon class="pl" points="234.8,461.8 234.8,459.3 252.2,459.3 252.2,461.8 234.8,461.8"/>
  <polygon class="pl" points="256.6,467.0 256.6,464.2 274.0,464.2 274.0,467.0 256.6,467.0"/>
  <polygon class="pl" points="278.3,467.0 278.3,465.1 295.7,465.1 295.7,467.0 278.3,467.0"/>
  <polygon class="pl" points="300.1,474.9 300.1,472.1 317.5,472.1 317.5,474.9 300.1,474.9"/>
  <polygon class="pl" points="321.9,472.6 321.9,471.0 339.3,471.0 339.3,472.6 321.9,472.6"/>
  <polygon class="pl" points="343.6,481.4 343.6,478.7 361.0,478.7 361.0,481.4 343.6,481.4"/>
  <polygon class="pl" points="365.4,483.4 365.4,481.1 382.8,481.1 382.8,483.4 365.4,483.4"/>
  <polygon class="pl" points="387.1,488.1 387.1,485.5 404.5,485.5 404.5,488.1 387.1,488.1"/>
  <polygon class="pl" points="408.9,490.0 408.9,487.7 426.3,487.7 426.3,490.0 408.9,490.0"/>
  <polygon class="pl" points="430.7,493.8 430.7,492.0 448.1,492.0 448.1,493.8 430.7,493.8"/>
  <polygon class="pl" points="452.4,503.4 452.4,500.4 469.8,500.4 469.8,503.4 452.4,503.4"/>
  <polygon class="pl" points="474.2,506.7 474.2,504.0 491.6,504.0 491.6,506.7 474.2,506.7"/>
  <polygon class="pl" points="495.9,510.6 495.9,508.0 513.3,508.0 513.3,510.6 495.9,510.6"/>
  <polygon class="pl" points="517.7,506.5 517.7,503.7 535.1,503.7 535.1,506.5 517.7,506.5"/>
  <polygon class="pl" points="539.5,510.2 539.5,507.8 556.9,507.8 556.9,510.2 539.5,510.2"/>
  <polygon class="pl" points="561.2,504.1 561.2,501.4 578.6,501.4 578.6,504.1 561.2,504.1"/>
  <polygon class="pl" points="583.0,492.4 583.0,489.8 600.4,489.8 600.4,492.4 583.0,492.4"/>
  <polygon class="pl" points="604.7,479.4 604.7,477.6 622.1,477.6 622.1,479.4 604.7,479.4"/>
  <polygon class="pl" points="626.5,465.3 626.5,465.0 643.9,465.0 643.9,465.3 626.5,465.3"/>
  <polygon class="pl" points="648.3,463.7 648.3,461.5 665.7,461.5 665.7,463.7 648.3,463.7"/>
  <polygon class="pl" points="670.0,451.2 670.0,449.3 687.4,449.3 687.4,451.2 670.0,451.2"/>
  <polygon class="pl" points="691.8,442.8 691.8,440.7 709.2,440.7 709.2,442.8 691.8,442.8"/>
  <polygon class="pl" points="713.5,433.0 713.5,431.6 730.9,431.6 730.9,433.0 713.5,433.0"/>
  <polygon class="pl" points="735.3,430.2 735.3,428.3 752.7,428.3 752.7,430.2 735.3,430.2"/>
  <polygon class="pl" points="757.1,427.7 757.1,426.3 774.5,426.3 774.5,427.7 757.1,427.7"/>
  <polygon class="pl" points="778.8,434.5 778.8,433.1 796.2,433.1 796.2,434.5 778.8,434.5"/>
  <polygon class="pl" points="800.6,433.7 800.6,432.2 818.0,432.2 818.0,433.7 800.6,433.7"/>
  <polygon class="pl" points="844.1,435.0 844.1,432.6 861.5,432.6 861.5,435.0 844.1,435.0"/>
  <polygon class="pl" points="865.9,432.8 865.9,430.6 883.3,430.6 883.3,432.8 865.9,432.8"/>
  <polygon class="pl" points="887.6,424.5 887.6,421.9 905.0,421.9 905.0,424.5 887.6,424.5"/>
</g>
<g stroke="#000" stroke-width="0.90" fill="#D5AF54"  clip-path="url(#axis_clip)">
  <polygon class="pl" points="147.8,440.5 147.8,428.7 165.2,428.7 165.2,440.5 147.8,440.5"/>
  <polygon class="pl" points="169.5,443.7 169.5,429.1 186.9,429.1 186.9,443.7 169.5,443.7"/>
  <polygon class="pl" points="191.3,447.0 191.3,432.0 208.7,432.0 208.7,447.0 191.3,447.0"/>
  <polygon class="pl" points="213.1,453.7 213.1,437.4 230.5,437.4 230.5,453.7 213.1,453.7"/>
  <polygon class="pl" points="234.8,459.3 234.8,441.4 252.2,441.4 252.2,459.3 234.8,459.3"/>
  <polygon class="pl" points="256.6,464.2 256.6,445.3 274.0,445.3 274.0,464.2 256.6,464.2"/>
  <polygon class="pl" points="278.3,465.1 278.3,449.2 295.7,449.2 295.7,465.1 278.3,465.1"/>
  <polygon class="pl" points="300.1,472.1 300.1,453.2 317.5,453.2 317.5,472.1 300.1,472.1"/>
  <polygon class="pl" points="321.9,471.0 321.9,456.4 339.3,456.4 339.3,471.0 321.9,471.0"/>
  <polygon class="pl" points="343.6,478.7 343.6,460.1 361.0,460.1 361.0,478.7 343.6,478.7"/>
  <polygon class="pl" points="365.4,481.1 365.4,463.9 382.8,463.9 382.8,481.1 365.4,481.1"/>
  <polygon class="pl" points="387.1,485.5 387.1,467.2 404.5,467.2 404.5,485.5 387.1,485.5"/>
  <polygon class="pl" points="408.9,487.7 408.9,470.4 426.3,470.4 426.3,487.7 408.9,487.7"/>
  <polygon class="pl" points="430.7,492.0 430.7,477.1 448.1,477.1 448.1,492.0 430.7,492.0"/>
  <polygon class="pl" points="452.4,500.4 452.4,480.3 469.8,480.3 469.8,500.4 452.4,500.4"/>
  <polygon class="pl" points="474.2,504.0 474.2,485.1 491.6,485.1 491.6,504.0 474.2,504.0"/>
  <polygon class="pl" points="495.9,508.0 495.9,489.7 513.3,489.7 513.3,508.0 495.9,508.0"/>
  <polygon class="pl" points="517.7,503.7 517.7,486.9 535.1,486.9 535.1,503.7 517.7,503.7"/>
  <polygon class="pl" points="539.5,507.8 539.5,486.3 556.9,486.3 556.9,507.8 539.5,507.8"/>
  <polygon class="pl" points="561.2,501.4 561.2,473.2 578.6,473.2 578.6,501.4 561.2,501.4"/>
  <polygon class="pl" points="583.0,489.8 583.0,463.7 600.4,463.7 600.4,489.8 583.0,489.8"/>
  <polygon class="pl" points="604.7,477.6 604.7,455.9 622.1,455.9 622.1,477.6 604.7,477.6"/>
  <polygon class="pl" points="626.5,465.0 626.5,449.4 643.9,449.4 643.9,465.0 626.5,465.0"/>
  <polygon class="pl" points="648.3,461.5 648.3,441.0 665.7,441.0 665.7,461.5 648.3,461.5"/>
  <polygon class="pl" points="670.0,449.3 670.0,431.2 687.4,431.2 687.4,449.3 670.0,449.3"/>
  <polygon class="pl" points="691.8,440.7 691.8,422.9 709.2,422.9 709.2,440.7 691.8,440.7"/>
  <polygon class="pl" points="713.5,431.6 713.5,417.3 730.9,417.3 730.9,431.6 713.5,431.6"/>
  <polygon class="pl" points="735.3,428.3 735.3,412.4 752.7,412.4 752.7,428.3 735.3,428.3"/>
  <polygon class="pl" points="757.1,426.3 757.1,412.5 774.5,412.5 774.5,426.3 757.1,426.3"/>
  <polygon class="pl" points="778.8,433.1 778.8,419.3 796.2,419.3 796.2,433.1 778.8,433.1"/>
  <polygon class="pl" points="800.6,432.2 800.6,417.0 818.0,417.0 818.0,432.2 800.6,432.2"/>
  <polygon class="pl" points="822.3,426.8 822.3,418.4 839.7,418.4 839.7,426.8 822.3,426.8"/>
  <polygon class="pl" points="844.1,432.6 844.1,414.7 861.5,414.7 861.5,432.6 844.1,432.6"/>
  <polygon class="pl" points="865.9,430.6 865.9,412.5 883.3,412.5 883.3,430.6 865.9,430.6"/>
  <polygon class="pl" points="887.6,421.9 887.6,405.9 905.0,405.9 905.0,421.9 887.6,421.9"/>
</g>
<g stroke="#000" stroke-width="0.90" fill="#D97B53"  clip-path="url(#axis_clip)">
</g>
<g stroke="#000" stroke-width="0.90" fill="#66BF7D"  clip-path="url(#axis_clip)">
  <polygon class="pl" points="147.8,428.7 147.8,206.3 165.2,206.3 165.2,428.7 147.8,428.7"/>
  <polygon class="pl" points="169.5,429.1 169.5,206.3 186.9,206.3 186.9,429.1 169.5,429.1"/>
  <polygon class="pl" points="191.3,432.0 191.3,206.3 208.7,206.3 208.7,432.0 191.3,432.0"/>
  <polygon class="pl" points="213.1,437.4 213.1,206.3 230.5,206.3 230.5,437.4 213.1,437.4"/>
  <polygon class="pl" points="234.8,441.4 234.8,206.3 252.2,206.3 252.2,441.4 234.8,441.4"/>
  <polygon class="pl" points="256.6,445.3 256.6,206.3 274.0,206.3 274.0,445.3 256.6,445.3"/>
  <polygon class="pl" points="278.3,449.2 278.3,206.3 295.7,206.3 295.7,449.2 278.3,449.2"/>
  <polygon class="pl" points="300.1,453.2 300.1,206.3 317.5,206.3 317.5,453.2 300.1,453.2"/>
  <polygon class="pl" points="321.9,456.4 321.9,206.3 339.3,206.3 339.3,456.4 321.9,456.4"/>
  <polygon class="pl" points="343.6,460.1 343.6,206.3 361.0,206.3 361.0,460.1 343.6,460.1"/>
  <polygon class="pl" points="365.4,463.9 365.4,206.3 382.8,206.3 382.8,463.9 365.4,463.9"/>
  <polygon class="pl" points="387.1,467.2 387.1,206.3 404.5,206.3 404.5,467.2 387.1,467.2"/>
  <polygon class="pl" points="408.9,470.4 408.9,206.3 426.3,206.3 426.3,470.4 408.9,470.4"/>
  <polygon class="pl" points="430.7,477.1 430.7,206.3 448.1,206.3 448.1,477.1 430.7,477.1"/>
  <polygon class="pl" points="452.4,480.3 452.4,206.3 469.8,206.3 469.8,480.3 452.4,480.3"/>
  <polygon class="pl" points="474.2,485.1 474.2,206.3 491.6,206.3 491.6,485.1 474.2,485.1"/>
  <polygon class="pl" points="495.9,489.7 495.9,206.3 513.3,206.3 513.3,489.7 495.9,489.7"/>
  <polygon class="pl" points="517.7,486.9 517.7,206.3 535.1,206.3 535.1,486.9 517.7,486.9"/>
  <polygon class="pl" points="539.5,486.3 539.5,206.3 556.9,206.3 556.9,486.3 539.5,486.3"/>
  <polygon class="pl" points="561.2,473.2 561.2,206.3 578.6,206.3 578.6,473.2 561.2,473.2"/>
  <polygon class="pl" points="583.0,463.7 583.0,206.3 600.4,206.3 600.4,463.7 583.0,463.7"/>
  <polygon class="pl" points="604.7,455.9 604.7,206.3 622.1,206.3 622.1,455.9 604.7,455.9"/>
  <polygon class="pl" points="626.5,449.4 626.5,206.3 643.9,206.3 643.9,449.4 626.5,449.4"/>
  <polygon class="pl" points="648.3,441.0 648.3,206.3 665.7,206.3 665.7,441.0 648.3,441.0"/>
  <polygon class="pl" points="670.0,431.2 670.0,206.3 687.4,206.3 687.4,431.2 670.0,431.2"/>
  <polygon class="pl" points="691.8,422.9 691.8,206.3 709.2,206.3 709.2,422.9 691.8,422.9"/>
  <polygon class="pl" points="713.5,417.3 713.5,206.3 730.9,206.3 730.9,417.3 713.5,417.3"/>
  <polygon class="pl" points="735.3,412.4 735.3,206.3 752.7,206.3 752.7,412.4 735.3,412.4"/>
  <polygon class="pl" points="757.1,412.5 757.1,206.3 774.5,206.3 774.5,412.5 757.1,412.5"/>
  <polygon class="pl" points="778.8,419.3 778.8,206.3 796.2,206.3 796.2,419.3 778.8,419.3"/>
  <polygon class="pl" points="800.6,417.0 800.6,206.3 818.0,206.3 818.0,417.0 800.6,417.0"/>
  <polygon class="pl" points="822.3,418.4 822.3,206.3 839.7,206.3 839.7,418.4 822.3,418.4"/>
  <polygon class="pl" points="844.1,414.7 844.1,206.3 861.5,206.3 861.5,414.7 844.1,414.7"/>
  <polygon class="pl" points="865.9,412.5 865.9,206.3 883.3,206.3 883.3,412.5 865.9,412.5"/>
  <polygon class="pl" points="887.6,405.9 887.6,206.3 905.0,206.3 905.0,405.9 887.6,405.9"/>
</g>
<text transform="translate(145.6,47.2)" dy="0.0" font-size="27.00" fill="#808080" stroke="none">Emissions and removals on forest land: Russia</text>
<text transform="translate(130.0,81.7)" dy="8.1" font-size="27.00" fill="#808080" stroke="none" text-anchor="end">CO<tspan dy="0.2em"><tspan style="font-size:70%">2</tspan></tspan><tspan dy="-0.2em"></tspan></text>
<polyline class="pl" points="156.5,328.0 178.2,365.3 200.0,375.1 221.8,396.6 243.5,423.3 265.3,436.3 287.0,403.2 308.8,436.7 330.6,389.8 352.3,439.0 374.1,423.5 395.8,439.7 417.6,430.4 439.4,402.7 461.1,465.9 482.9,454.4 504.6,462.4 526.4,467.5 548.2,462.8 569.9,467.6 591.7,452.9 613.4,403.6 635.2,347.0 657.0,417.4 678.7,385.8 700.5,381.5 722.2,359.6 744.0,370.7 765.8,360.7 787.5,352.0 809.3,369.9 831.0,331.0 852.8,387.7 874.6,380.5 896.3,390.8" stroke="#000" stroke-width="5.40" fill="none" clip-path="url(#axis_clip)"/>
<g class="pl" fill="#FFF" stroke="#000" stroke-width="0.900">
  <circle cx="178.2" cy="365.3" r="2.2" />
  <circle cx="200.0" cy="375.1" r="2.2" />
  <circle cx="221.8" cy="396.6" r="2.2" />
  <circle cx="243.5" cy="423.3" r="2.2" />
  <circle cx="265.3" cy="436.3" r="2.2" />
  <circle cx="287.0" cy="403.2" r="2.2" />
  <circle cx="308.8" cy="436.7" r="2.2" />
  <circle cx="330.6" cy="389.8" r="2.2" />
  <circle cx="352.3" cy="439.0" r="2.2" />
  <circle cx="395.8" cy="439.7" r="2.2" />
  <circle cx="417.6" cy="430.4" r="2.2" />
  <circle cx="439.4" cy="402.7" r="2.2" />
  <circle cx="461.1" cy="465.9" r="2.2" />
  <circle cx="482.9" cy="454.4" r="2.2" />
  <circle cx="504.6" cy="462.4" r="2.2" />
  <circle cx="526.4" cy="467.5" r="2.2" />
  <circle cx="548.2" cy="462.8" r="2.2" />
  <circle cx="569.9" cy="467.6" r="2.2" />
  <circle cx="613.4" cy="403.6" r="2.2" />
  <circle cx="635.2" cy="347.0" r="2.2" />
  <circle cx="657.0" cy="417.4" r="2.2" />
  <circle cx="678.7" cy="385.8" r="2.2" />
  <circle cx="700.5" cy="381.5" r="2.2" />
  <circle cx="722.2" cy="359.6" r="2.2" />
  <circle cx="744.0" cy="370.7" r="2.2" />
  <circle cx="765.8" cy="360.7" r="2.2" />
  <circle cx="787.5" cy="352.0" r="2.2" />
  <circle cx="831.0" cy="331.0" r="2.2" />
  <circle cx="852.8" cy="387.7" r="2.2" />
  <circle cx="874.6" cy="380.5" r="2.2" />
  <circle cx="896.3" cy="390.8" r="2.2" />
</g>
<g class="pl" fill="#FFF" stroke="#000" stroke-width="0.900">
  <circle cx="156.5" cy="328.0" r="5.4" />
  <circle cx="374.1" cy="423.5" r="5.4" />
  <circle cx="591.7" cy="452.9" r="5.4" />
  <circle cx="809.3" cy="369.9" r="5.4" />
</g>
<text transform="translate(945.6,383.5)" dy="6.5" font-size="21.60" fill="#000" stroke="none">Total (net)</text>
<text transform="translate(945.6,182.4)" dy="6.5" font-size="21.60" fill="#D97B53" stroke="none">Living biomass (losses)</text>
<text transform="translate(945.6,306.1)" dy="6.5" font-size="21.60" fill="#66BF7D" stroke="none">Living biomass (gains)</text>
<text transform="translate(945.6,404.4)" dy="6.5" font-size="21.60" fill="#D5AF54" stroke="none">Dead wood (net)</text>
<text transform="translate(945.6,425.3)" dy="6.5" font-size="21.60" fill="#834B8E" stroke="none">Litter (net)</text>
<text transform="translate(945.6,446.2)" dy="6.5" font-size="21.60" fill="#87AC55" stroke="none">Mineral Soils (net)</text>
<polyline class="pl" points="910.8,390.8 912.4,390.7 913.8,390.7 915.2,390.5 916.4,390.4 917.6,390.2 918.8,390.0 919.8,389.7 920.8,389.4 921.7,389.1 922.7,388.8 923.5,388.4 924.4,388.1 925.2,387.7 926.0,387.3 926.8,386.9 927.6,386.6 928.4,386.2 929.3,385.8 930.1,385.5 931.1,385.2 932.0,384.9 933.0,384.6 934.0,384.3 935.2,384.1 936.4,383.9 937.6,383.7 939.0,383.6 940.4,383.5 942.0,383.5" stroke="#000" stroke-width="0.90" stroke-opacity="1.00" fill="none" />
<polyline class="pl" points="910.8,413.9 912.4,413.9 913.8,413.8 915.2,413.6 916.4,413.4 917.6,413.2 918.8,412.9 919.8,412.5 920.8,412.1 921.7,411.7 922.7,411.3 923.5,410.8 924.4,410.4 925.2,409.9 926.0,409.4 926.8,408.9 927.6,408.4 928.4,407.9 929.3,407.5 930.1,407.0 931.1,406.6 932.0,406.2 933.0,405.8 934.0,405.5 935.2,405.2 936.4,404.9 937.6,404.7 939.0,404.5 940.4,404.4 942.0,404.4" stroke="#D5AF54" stroke-width="0.90" stroke-opacity="1.00" fill="none" />
<polyline class="pl" points="910.8,423.2 912.4,423.2 913.8,423.3 915.2,423.3 916.4,423.3 917.6,423.4 918.8,423.5 919.8,423.5 920.8,423.6 921.7,423.7 922.7,423.8 923.5,423.9 924.4,424.0 925.2,424.1 926.0,424.2 926.8,424.3 927.6,424.4 928.4,424.5 929.3,424.6 930.1,424.7 931.1,424.8 932.0,424.9 933.0,425.0 934.0,425.1 935.2,425.1 936.4,425.2 937.6,425.2 939.0,425.3 940.4,425.3 942.0,425.3" stroke="#834B8E" stroke-width="0.90" stroke-opacity="1.00" fill="none" />
<polyline class="pl" points="910.8,431.5 912.4,431.6 913.8,431.7 915.2,432.0 916.4,432.3 917.6,432.7 918.8,433.1 919.8,433.7 920.8,434.2 921.7,434.9 922.7,435.5 923.5,436.2 924.4,437.0 925.2,437.7 926.0,438.5 926.8,439.2 927.6,440.0 928.4,440.7 929.3,441.5 930.1,442.2 931.1,442.8 932.0,443.5 933.0,444.0 934.0,444.6 935.2,445.0 936.4,445.4 937.6,445.8 939.0,446.0 940.4,446.1 942.0,446.2" stroke="#87AC55" stroke-width="0.90" stroke-opacity="1.00" fill="none" />
<text transform="translate(160.0,666.1)" font-size="19.80" font-family="Helvetica" fill="#BFBFBF" stroke="none" xml:space="preserve">CICERO   &#9679;   Data: UNFCCC (2026)</text>
<g>
  <rect x="123.0" y="651.4" width="34" height="17" fill="#FFF" stroke="none" opacity="0.01"/>
  <g transform="translate(124.0,652.4) scale(0.24)">
  <g><circle fill="#FFF" cx="37.79" cy="28.5" r="28.84"/>
     <circle fill="none" cx="37.79" cy="28.5" r="28.84" stroke="#BFBFBF" stroke-width="5.5"/>
     <path fill="#BFBFBF" d="M37.16,23.19 l-4.29,2.23c-0.458-0.951-1.02-1.62-1.69-2c-0.667-0.38-1.29-0.571-1.86-0.571c-2.86,0-4.29,1.89-4.29,5.66 c0,1.71,0.36,3.08,1.09,4.11c0.724,1.03,1.79,1.54,3.2,1.54c1.87,0,3.18-0.915,3.94-2.74l3.94,2 c-0.838,1.56-2,2.79-3.49,3.69c-1.48,0.896-3.12,1.34-4.91,1.34c-2.86,0-5.16-0.875-6.92-2.63 c-1.75-1.75-2.63-4.19-2.63-7.31c0-3.05,0.886-5.47,2.66-7.26c1.77-1.79,4.01-2.69,6.72-2.69 C32.6,18.56,35.44,20.1,37.16,23.19z
              M55.61,23.19l-4.23,2.23c-0.457-0.951-1.02-1.62-1.69-2 c-0.668-0.38-1.31-0.571-1.91-0.571c-2.86,0-4.29,1.89-4.29,5.66c0,1.71,0.363,3.08,1.09,4.11 c0.723,1.03,1.79,1.54,3.2,1.54c1.87,0,3.18-0.915,3.94-2.74l4,2c-0.875,1.56-2.06,2.79-3.54,3.69 c-1.49,0.9-3.11,1.34-4.86,1.34c-2.9,0-5.21-0.875-6.94-2.63c-1.74-1.75-2.6-4.19-2.6-7.31 c0-3.05,0.885-5.47,2.66-7.26c1.77-1.79,4.01-2.69,6.71-2.69C51.12,18.56,53.944,20.1,55.61,23.19z"/>
  </g></g>
  <g transform="translate(140.2,652.4) scale(0.24)">
  <g><circle fill="#FFF" cx="37.79" cy="28.5" r="28.84"/>
     <circle fill="none" cx="37.79" cy="28.5" r="28.84" stroke="#BFBFBF" stroke-width="5.5"/>
     <path fill="#BFBFBF" d="M46.129,20.557v13.085h-3.656v15.542h-9.944V33.643h-3.656V20.557 c0-0.572,0.2-1.057,0.599-1.457c0.401-0.399,0.887-0.6,1.457-0.6h13.144c0.533,0,1.01,0.2,1.428,0.6 C45.918,19.5,46.129,19.986,46.129,20.557z
              M33.042,12.329c0-3.008,1.485-4.514,4.458-4.514s4.457,1.504,4.457,4.514 c0,2.971-1.486,4.457-4.457,4.457S33.042,15.3,33.042,12.329z"/>
  </g></g>
</g>
</g>
</svg>
