<svg version="1.1" xmlns="http://www.w3.org/2000/svg" xmlns:xlink="http://www.w3.org/1999/xlink" width="100%" height="100%" viewBox="0 0 1200.000 674.916">
<title>Annual Greenhouse Gas Emissions: Russia</title>
<style type="text/css">
  #main {font-family:Helvetica,Arial,sans-serif; font-size:27.00px;
         fill-opacity:1; fill:#000000; stroke:none; stroke-linejoin:round; stroke-linecap:round; stroke-width:1.00;}
  .marker {stroke-opacity:0;fill-opacity:0;}
  .marker:hover {stroke-opacity:0.5; fill-opacity:1;}
  .ticklabel {font-size:27.00px;fill:#808080;stroke:none;font-family:Helvetica}
  .ytl {text-anchor:end;}
  .dp1 {pointer-events:none;font-size:70%;text-anchor:middle;fill:#000000;}
  .dp2 {pointer-events:none;font-size:70%;text-anchor:middle;fill:#FFFFFF;}
  .numtip {pointer-events:none;}
  .cc {opacity:0.25;}
.dl_fe {background-color:#FDFFDF;display:flex;margin:auto;align-items:center}
.dl_fe_p {font-size:20px;text-align:center;margin:3px}
.dl_el {display:none;pointer-events:none;}
.cc:hover + .dl_el {display:block;}
text:hover + .dl_el {display:block;}
</style>
<defs>
  <clipPath id="axis_clip"><rect x="145.8" y="54.2" width="761.2" height="532.8" /></clipPath>
  <path id="line_y" d="M 0,53.993 v 533.183" stroke="#262626" stroke-opacity="0.15" stroke-width="1.00"/>
  <path id="line_x" d="M 145.600,0 h 761.600" stroke="#262626" stroke-opacity="0.15" stroke-width="1.00"/>
  <path id="tick_y" d="M 145.600,0 h -6.000" stroke="#808080" stroke-width="0.90"/>
  <path id="tick_x" d="M 0,587.177 v 6.000" stroke="#808080" stroke-width="0.90"/>
</defs>
<g id="main">
<use xlink:href="#line_y" transform="translate(156.5,0)"/>
<use xlink:href="#line_y" transform="translate(265.3,0)"/>
<use xlink:href="#line_y" transform="translate(374.1,0)"/>
<use xlink:href="#line_y" transform="translate(482.9,0)"/>
<use xlink:href="#line_y" transform="translate(591.7,0)"/>
<use xlink:href="#line_y" transform="translate(700.5,0)"/>
<use xlink:href="#line_y" transform="translate(809.3,0)"/>
<use xlink:href="#line_y" transform="translate(896.3,0)"/>
<use xlink:href="#line_x" transform="translate(0,587.2)"/>
<use xlink:href="#line_x" transform="translate(0,498.3)"/>
<use xlink:href="#line_x" transform="translate(0,409.4)"/>
<use xlink:href="#line_x" transform="translate(0,320.6)"/>
<use xlink:href="#line_x" transform="translate(0,231.7)"/>
<use xlink:href="#line_x" transform="translate(0,142.9)"/>
<use xlink:href="#line_x" transform="translate(0,54.0)"/>
<use xlink:href="#tick_y" transform="translate(0,587.2)"/>
<use xlink:href="#tick_y" transform="translate(0,498.3)"/>
<use xlink:href="#tick_y" transform="translate(0,409.4)"/>
<use xlink:href="#tick_y" transform="translate(0,320.6)"/>
<use xlink:href="#tick_y" transform="translate(0,231.7)"/>
<use xlink:href="#tick_y" transform="translate(0,142.9)"/>
<use xlink:href="#tick_y" transform="translate(0,54.0)"/>
<use xlink:href="#tick_x" transform="translate(156.5,0)"/>
<use xlink:href="#tick_x" transform="translate(265.3,0)"/>
<use xlink:href="#tick_x" transform="translate(374.1,0)"/>
<use xlink:href="#tick_x" transform="translate(482.9,0)"/>
<use xlink:href="#tick_x" transform="translate(591.7,0)"/>
<use xlink:href="#tick_x" transform="translate(700.5,0)"/>
<use xlink:href="#tick_x" transform="translate(809.3,0)"/>
<use xlink:href="#tick_x" transform="translate(896.3,0)"/>
<polyline points="145.6,53.993 145.6,587.177 907.2,587.177" stroke="#808080" stroke-width="0.90" fill="none"/>
<text class="ticklabel xtl" transform="translate(156.5,629.0)" text-anchor="middle">1990</text>
<text class="ticklabel xtl" transform="translate(265.3,629.0)" text-anchor="middle">1995</text>
<text class="ticklabel xtl" transform="translate(374.1,629.0)" text-anchor="middle">2000</text>
<text class="ticklabel xtl" transform="translate(482.9,629.0)" text-anchor="middle">2005</text>
<text class="ticklabel xtl" transform="translate(591.7,629.0)" text-anchor="middle">2010</text>
<text class="ticklabel xtl" transform="translate(700.5,629.0)" text-anchor="middle">2015</text>
<text class="ticklabel xtl" transform="translate(809.3,629.0)" text-anchor="middle">2020</text>
<text class="ticklabel xtl" transform="translate(896.3,629.0)" text-anchor="middle">2024</text>
<text class="ticklabel ytl" transform="translate(128.8,595.3)">-2</text>
<text class="ticklabel ytl" transform="translate(128.8,506.4)">-1</text>
<text class="ticklabel ytl" transform="translate(128.8,417.5)">0</text>
<text class="ticklabel ytl" transform="translate(128.8,328.7)">1</text>
<text class="ticklabel ytl" transform="translate(128.8,239.8)">2</text>
<text class="ticklabel ytl" transform="translate(128.8,151.0)">3</text>
<text class="ticklabel ytl" transform="translate(128.8,62.1)">4 Gt</text>
<g stroke="#000" stroke-width="0.90" fill="#DBA746"  clip-path="url(#axis_clip)">
  <polygon class="pl" points="147.8,128.7 147.8,133.6 165.2,133.6 165.2,128.7 147.8,128.7"/>
  <polygon class="pl" points="169.5,142.9 169.5,147.8 186.9,147.8 186.9,142.9 169.5,142.9"/>
  <polygon class="pl" points="191.3,186.0 191.3,190.8 208.7,190.8 208.7,186.0 191.3,186.0"/>
  <polygon class="pl" points="213.1,197.4 213.1,202.3 230.5,202.3 230.5,197.4 213.1,197.4"/>
  <polygon class="pl" points="234.8,220.7 234.8,225.5 252.2,225.5 252.2,220.7 234.8,220.7"/>
  <polygon class="pl" points="256.6,225.3 256.6,230.2 274.0,230.2 274.0,225.3 256.6,225.3"/>
  <polygon class="pl" points="278.3,229.8 278.3,234.7 295.7,234.7 295.7,229.8 278.3,229.8"/>
  <polygon class="pl" points="300.1,240.5 300.1,245.4 317.5,245.4 317.5,240.5 300.1,240.5"/>
  <polygon class="pl" points="321.9,243.3 321.9,248.4 339.3,248.4 339.3,243.3 321.9,243.3"/>
  <polygon class="pl" points="343.6,240.7 343.6,245.8 361.0,245.8 361.0,240.7 343.6,240.7"/>
  <polygon class="pl" points="365.4,240.9 365.4,246.2 382.8,246.2 382.8,240.9 365.4,240.9"/>
  <polygon class="pl" points="387.1,238.5 387.1,243.9 404.5,243.9 404.5,238.5 387.1,238.5"/>
  <polygon class="pl" points="408.9,240.4 408.9,245.9 426.3,245.9 426.3,240.4 408.9,240.4"/>
  <polygon class="pl" points="430.7,237.7 430.7,243.3 448.1,243.3 448.1,237.7 430.7,237.7"/>
  <polygon class="pl" points="452.4,237.2 452.4,242.9 469.8,242.9 469.8,237.2 452.4,237.2"/>
  <polygon class="pl" points="474.2,235.9 474.2,241.7 491.6,241.7 491.6,235.9 474.2,235.9"/>
  <polygon class="pl" points="495.9,230.8 495.9,236.9 513.3,236.9 513.3,230.8 495.9,230.8"/>
  <polygon class="pl" points="517.7,231.2 517.7,237.4 535.1,237.4 535.1,231.2 517.7,231.2"/>
  <polygon class="pl" points="539.5,228.8 539.5,235.1 556.9,235.1 556.9,228.8 539.5,228.8"/>
  <polygon class="pl" points="561.2,240.8 561.2,247.3 578.6,247.3 578.6,240.8 561.2,240.8"/>
  <polygon class="pl" points="583.0,232.8 583.0,239.4 600.4,239.4 600.4,232.8 583.0,232.8"/>
  <polygon class="pl" points="604.7,228.2 604.7,235.1 622.1,235.1 622.1,228.2 604.7,228.2"/>
  <polygon class="pl" points="626.5,226.5 626.5,233.6 643.9,233.6 643.9,226.5 626.5,226.5"/>
  <polygon class="pl" points="648.3,232.4 648.3,239.6 665.7,239.6 665.7,232.4 648.3,232.4"/>
  <polygon class="pl" points="670.0,233.3 670.0,240.8 687.4,240.8 687.4,233.3 670.0,233.3"/>
  <polygon class="pl" points="691.8,234.3 691.8,241.9 709.2,241.9 709.2,234.3 691.8,234.3"/>
  <polygon class="pl" points="713.5,234.9 713.5,242.5 730.9,242.5 730.9,234.9 713.5,234.9"/>
  <polygon class="pl" points="735.3,231.5 735.3,239.2 752.7,239.2 752.7,231.5 735.3,231.5"/>
  <polygon class="pl" points="757.1,226.2 757.1,233.9 774.5,233.9 774.5,226.2 757.1,226.2"/>
  <polygon class="pl" points="778.8,227.1 778.8,234.9 796.2,234.9 796.2,227.1 778.8,227.1"/>
  <polygon class="pl" points="800.6,233.7 800.6,241.6 818.0,241.6 818.0,233.7 800.6,233.7"/>
  <polygon class="pl" points="822.3,228.9 822.3,236.7 839.7,236.7 839.7,228.9 822.3,228.9"/>
  <polygon class="pl" points="844.1,229.3 844.1,237.1 861.5,237.1 861.5,229.3 844.1,229.3"/>
  <polygon class="pl" points="865.9,223.7 865.9,231.6 883.3,231.6 883.3,223.7 865.9,223.7"/>
  <polygon class="pl" points="887.6,219.5 887.6,227.4 905.0,227.4 905.0,219.5 887.6,219.5"/>
</g>
<g stroke="#000" stroke-width="0.90" fill="#845F48"  clip-path="url(#axis_clip)">
  <polygon class="pl" points="147.8,133.6 147.8,154.2 165.2,154.2 165.2,133.6 147.8,133.6"/>
  <polygon class="pl" points="169.5,147.8 169.5,167.3 186.9,167.3 186.9,147.8 169.5,147.8"/>
  <polygon class="pl" points="191.3,190.8 191.3,209.3 208.7,209.3 208.7,190.8 191.3,190.8"/>
  <polygon class="pl" points="213.1,202.3 213.1,219.2 230.5,219.2 230.5,202.3 213.1,202.3"/>
  <polygon class="pl" points="234.8,225.5 234.8,240.5 252.2,240.5 252.2,225.5 234.8,225.5"/>
  <polygon class="pl" points="256.6,230.2 256.6,243.3 274.0,243.3 274.0,230.2 256.6,230.2"/>
  <polygon class="pl" points="278.3,234.7 278.3,246.8 295.7,246.8 295.7,234.7 278.3,234.7"/>
  <polygon class="pl" points="300.1,245.4 300.1,256.4 317.5,256.4 317.5,245.4 300.1,245.4"/>
  <polygon class="pl" points="321.9,248.4 321.9,258.0 339.3,258.0 339.3,248.4 321.9,248.4"/>
  <polygon class="pl" points="343.6,245.8 343.6,254.8 361.0,254.8 361.0,245.8 343.6,245.8"/>
  <polygon class="pl" points="365.4,246.2 365.4,255.5 382.8,255.5 382.8,246.2 365.4,246.2"/>
  <polygon class="pl" points="387.1,243.9 387.1,252.8 404.5,252.8 404.5,243.9 387.1,243.9"/>
  <polygon class="pl" points="408.9,245.9 408.9,254.8 426.3,254.8 426.3,245.9 408.9,245.9"/>
  <polygon class="pl" points="430.7,243.3 430.7,252.0 448.1,252.0 448.1,243.3 430.7,243.3"/>
  <polygon class="pl" points="452.4,242.9 452.4,251.3 469.8,251.3 469.8,242.9 452.4,242.9"/>
  <polygon class="pl" points="474.2,241.7 474.2,249.7 491.6,249.7 491.6,241.7 474.2,241.7"/>
  <polygon class="pl" points="495.9,236.9 495.9,244.6 513.3,244.6 513.3,236.9 495.9,236.9"/>
  <polygon class="pl" points="517.7,237.4 517.7,245.4 535.1,245.4 535.1,237.4 517.7,237.4"/>
  <polygon class="pl" points="539.5,235.1 539.5,243.5 556.9,243.5 556.9,235.1 539.5,235.1"/>
  <polygon class="pl" points="561.2,247.3 561.2,255.5 578.6,255.5 578.6,247.3 561.2,247.3"/>
  <polygon class="pl" points="583.0,239.4 583.0,247.3 600.4,247.3 600.4,239.4 583.0,239.4"/>
  <polygon class="pl" points="604.7,235.1 604.7,243.2 622.1,243.2 622.1,235.1 604.7,235.1"/>
  <polygon class="pl" points="626.5,233.6 626.5,241.6 643.9,241.6 643.9,233.6 626.5,233.6"/>
  <polygon class="pl" points="648.3,239.6 648.3,247.8 665.7,247.8 665.7,239.6 648.3,239.6"/>
  <polygon class="pl" points="670.0,240.8 670.0,249.0 687.4,249.0 687.4,240.8 670.0,240.8"/>
  <polygon class="pl" points="691.8,241.9 691.8,250.1 709.2,250.1 709.2,241.9 691.8,241.9"/>
  <polygon class="pl" points="713.5,242.5 713.5,251.0 730.9,251.0 730.9,242.5 713.5,242.5"/>
  <polygon class="pl" points="735.3,239.2 735.3,247.8 752.7,247.8 752.7,239.2 735.3,239.2"/>
  <polygon class="pl" points="757.1,233.9 757.1,242.5 774.5,242.5 774.5,233.9 757.1,233.9"/>
  <polygon class="pl" points="778.8,234.9 778.8,243.6 796.2,243.6 796.2,234.9 778.8,234.9"/>
  <polygon class="pl" points="800.6,241.6 800.6,250.4 818.0,250.4 818.0,241.6 800.6,241.6"/>
  <polygon class="pl" points="822.3,236.7 822.3,245.7 839.7,245.7 839.7,236.7 822.3,236.7"/>
  <polygon class="pl" points="844.1,237.1 844.1,246.2 861.5,246.2 861.5,237.1 844.1,237.1"/>
  <polygon class="pl" points="865.9,231.6 865.9,240.7 883.3,240.7 883.3,231.6 865.9,231.6"/>
  <polygon class="pl" points="887.6,227.4 887.6,236.4 905.0,236.4 905.0,227.4 887.6,227.4"/>
</g>
<g stroke="#000" stroke-width="0.90" fill="#4A89E8"  clip-path="url(#axis_clip)">
  <polygon class="pl" points="147.8,154.2 147.8,179.9 165.2,179.9 165.2,154.2 147.8,154.2"/>
  <polygon class="pl" points="169.5,167.3 169.5,190.7 186.9,190.7 186.9,167.3 169.5,167.3"/>
  <polygon class="pl" points="191.3,209.3 191.3,230.1 208.7,230.1 208.7,209.3 191.3,209.3"/>
  <polygon class="pl" points="213.1,219.2 213.1,237.2 230.5,237.2 230.5,219.2 213.1,219.2"/>
  <polygon class="pl" points="234.8,240.5 234.8,256.1 252.2,256.1 252.2,240.5 234.8,240.5"/>
  <polygon class="pl" points="256.6,243.3 256.6,259.7 274.0,259.7 274.0,243.3 256.6,243.3"/>
  <polygon class="pl" points="278.3,246.8 278.3,261.7 295.7,261.7 295.7,246.8 278.3,246.8"/>
  <polygon class="pl" points="300.1,256.4 300.1,271.3 317.5,271.3 317.5,256.4 300.1,256.4"/>
  <polygon class="pl" points="321.9,258.0 321.9,272.1 339.3,272.1 339.3,258.0 321.9,258.0"/>
  <polygon class="pl" points="343.6,254.8 343.6,270.8 361.0,270.8 361.0,254.8 343.6,254.8"/>
  <polygon class="pl" points="365.4,255.5 365.4,273.0 382.8,273.0 382.8,255.5 365.4,255.5"/>
  <polygon class="pl" points="387.1,252.8 387.1,270.2 404.5,270.2 404.5,252.8 387.1,252.8"/>
  <polygon class="pl" points="408.9,254.8 408.9,271.9 426.3,271.9 426.3,254.8 408.9,254.8"/>
  <polygon class="pl" points="430.7,252.0 430.7,269.6 448.1,269.6 448.1,252.0 430.7,252.0"/>
  <polygon class="pl" points="452.4,251.3 452.4,269.8 469.8,269.8 469.8,251.3 452.4,251.3"/>
  <polygon class="pl" points="474.2,249.7 474.2,268.3 491.6,268.3 491.6,249.7 474.2,249.7"/>
  <polygon class="pl" points="495.9,244.6 495.9,263.9 513.3,263.9 513.3,244.6 495.9,244.6"/>
  <polygon class="pl" points="517.7,245.4 517.7,264.8 535.1,264.8 535.1,245.4 517.7,245.4"/>
  <polygon class="pl" points="539.5,243.5 539.5,262.1 556.9,262.1 556.9,243.5 539.5,243.5"/>
  <polygon class="pl" points="561.2,255.5 561.2,271.9 578.6,271.9 578.6,255.5 561.2,255.5"/>
  <polygon class="pl" points="583.0,247.3 583.0,265.1 600.4,265.1 600.4,247.3 583.0,247.3"/>
  <polygon class="pl" points="604.7,243.2 604.7,261.2 622.1,261.2 622.1,243.2 604.7,243.2"/>
  <polygon class="pl" points="626.5,241.6 626.5,261.1 643.9,261.1 643.9,241.6 626.5,241.6"/>
  <polygon class="pl" points="648.3,247.8 648.3,267.7 665.7,267.7 665.7,247.8 648.3,247.8"/>
  <polygon class="pl" points="670.0,249.0 670.0,268.9 687.4,268.9 687.4,249.0 670.0,249.0"/>
  <polygon class="pl" points="691.8,250.1 691.8,269.9 709.2,269.9 709.2,250.1 691.8,250.1"/>
  <polygon class="pl" points="713.5,251.0 713.5,270.6 730.9,270.6 730.9,251.0 713.5,251.0"/>
  <polygon class="pl" points="735.3,247.8 735.3,268.1 752.7,268.1 752.7,247.8 735.3,247.8"/>
  <polygon class="pl" points="757.1,242.5 757.1,263.6 774.5,263.6 774.5,242.5 757.1,242.5"/>
  <polygon class="pl" points="778.8,243.6 778.8,264.3 796.2,264.3 796.2,243.6 778.8,243.6"/>
  <polygon class="pl" points="800.6,250.4 800.6,271.8 818.0,271.8 818.0,250.4 800.6,250.4"/>
  <polygon class="pl" points="822.3,245.7 822.3,267.8 839.7,267.8 839.7,245.7 822.3,245.7"/>
  <polygon class="pl" points="844.1,246.2 844.1,267.5 861.5,267.5 861.5,246.2 844.1,246.2"/>
  <polygon class="pl" points="865.9,240.7 865.9,262.6 883.3,262.6 883.3,240.7 865.9,240.7"/>
  <polygon class="pl" points="887.6,236.4 887.6,257.8 905.0,257.8 905.0,236.4 887.6,236.4"/>
</g>
<g stroke="#000" stroke-width="0.90" fill="#FF7F61"  clip-path="url(#axis_clip)">
  <polygon class="pl" points="147.8,179.9 147.8,409.4 165.2,409.4 165.2,179.9 147.8,179.9"/>
  <polygon class="pl" points="169.5,190.7 169.5,409.4 186.9,409.4 186.9,190.7 169.5,190.7"/>
  <polygon class="pl" points="191.3,230.1 191.3,409.4 208.7,409.4 208.7,230.1 191.3,230.1"/>
  <polygon class="pl" points="213.1,237.2 213.1,409.4 230.5,409.4 230.5,237.2 213.1,237.2"/>
  <polygon class="pl" points="234.8,256.1 234.8,409.4 252.2,409.4 252.2,256.1 234.8,256.1"/>
  <polygon class="pl" points="256.6,259.7 256.6,409.4 274.0,409.4 274.0,259.7 256.6,259.7"/>
  <polygon class="pl" points="278.3,261.7 278.3,409.4 295.7,409.4 295.7,261.7 278.3,261.7"/>
  <polygon class="pl" points="300.1,271.3 300.1,409.4 317.5,409.4 317.5,271.3 300.1,271.3"/>
  <polygon class="pl" points="321.9,272.1 321.9,409.4 339.3,409.4 339.3,272.1 321.9,272.1"/>
  <polygon class="pl" points="343.6,270.8 343.6,409.4 361.0,409.4 361.0,270.8 343.6,270.8"/>
  <polygon class="pl" points="365.4,273.0 365.4,409.4 382.8,409.4 382.8,273.0 365.4,273.0"/>
  <polygon class="pl" points="387.1,270.2 387.1,409.4 404.5,409.4 404.5,270.2 387.1,270.2"/>
  <polygon class="pl" points="408.9,271.9 408.9,409.4 426.3,409.4 426.3,271.9 408.9,271.9"/>
  <polygon class="pl" points="430.7,269.6 430.7,409.4 448.1,409.4 448.1,269.6 430.7,269.6"/>
  <polygon class="pl" points="452.4,269.8 452.4,409.4 469.8,409.4 469.8,269.8 452.4,269.8"/>
  <polygon class="pl" points="474.2,268.3 474.2,409.4 491.6,409.4 491.6,268.3 474.2,268.3"/>
  <polygon class="pl" points="495.9,263.9 495.9,409.4 513.3,409.4 513.3,263.9 495.9,263.9"/>
  <polygon class="pl" points="517.7,264.8 517.7,409.4 535.1,409.4 535.1,264.8 517.7,264.8"/>
  <polygon class="pl" points="539.5,262.1 539.5,409.4 556.9,409.4 556.9,262.1 539.5,262.1"/>
  <polygon class="pl" points="561.2,271.9 561.2,409.4 578.6,409.4 578.6,271.9 561.2,271.9"/>
  <polygon class="pl" points="583.0,265.1 583.0,409.4 600.4,409.4 600.4,265.1 583.0,265.1"/>
  <polygon class="pl" points="604.7,261.2 604.7,409.4 622.1,409.4 622.1,261.2 604.7,261.2"/>
  <polygon class="pl" points="626.5,261.1 626.5,409.4 643.9,409.4 643.9,261.1 626.5,261.1"/>
  <polygon class="pl" points="648.3,267.7 648.3,409.4 665.7,409.4 665.7,267.7 648.3,267.7"/>
  <polygon class="pl" points="670.0,268.9 670.0,409.4 687.4,409.4 687.4,268.9 670.0,268.9"/>
  <polygon class="pl" points="691.8,269.9 691.8,409.4 709.2,409.4 709.2,269.9 691.8,269.9"/>
  <polygon class="pl" points="713.5,270.6 713.5,409.4 730.9,409.4 730.9,270.6 713.5,270.6"/>
  <polygon class="pl" points="735.3,268.1 735.3,409.4 752.7,409.4 752.7,268.1 735.3,268.1"/>
  <polygon class="pl" points="757.1,263.6 757.1,409.4 774.5,409.4 774.5,263.6 757.1,263.6"/>
  <polygon class="pl" points="778.8,264.3 778.8,409.4 796.2,409.4 796.2,264.3 778.8,264.3"/>
  <polygon class="pl" points="800.6,271.8 800.6,409.4 818.0,409.4 818.0,271.8 800.6,271.8"/>
  <polygon class="pl" points="822.3,267.8 822.3,409.4 839.7,409.4 839.7,267.8 822.3,267.8"/>
  <polygon class="pl" points="844.1,267.5 844.1,409.4 861.5,409.4 861.5,267.5 844.1,267.5"/>
  <polygon class="pl" points="865.9,262.6 865.9,409.4 883.3,409.4 883.3,262.6 865.9,262.6"/>
  <polygon class="pl" points="887.6,257.8 887.6,409.4 905.0,409.4 905.0,257.8 887.6,257.8"/>
</g>
<g stroke="#000" stroke-width="0.90" fill="#7FBF7F"  clip-path="url(#axis_clip)">
  <polygon class="pl" points="147.8,472.2 147.8,409.4 165.2,409.4 165.2,472.2 147.8,472.2"/>
  <polygon class="pl" points="169.5,490.7 169.5,409.4 186.9,409.4 186.9,490.7 169.5,490.7"/>
  <polygon class="pl" points="191.3,496.7 191.3,409.4 208.7,409.4 208.7,496.7 191.3,496.7"/>
  <polygon class="pl" points="213.1,509.6 213.1,409.4 230.5,409.4 230.5,509.6 213.1,509.6"/>
  <polygon class="pl" points="234.8,526.4 234.8,409.4 252.2,409.4 252.2,526.4 234.8,526.4"/>
  <polygon class="pl" points="256.6,534.4 256.6,409.4 274.0,409.4 274.0,534.4 256.6,534.4"/>
  <polygon class="pl" points="278.3,512.4 278.3,409.4 295.7,409.4 295.7,512.4 278.3,512.4"/>
  <polygon class="pl" points="300.1,535.4 300.1,409.4 317.5,409.4 317.5,535.4 300.1,535.4"/>
  <polygon class="pl" points="321.9,507.8 321.9,409.4 339.3,409.4 339.3,507.8 321.9,507.8"/>
  <polygon class="pl" points="343.6,541.5 343.6,409.4 361.0,409.4 361.0,541.5 343.6,541.5"/>
  <polygon class="pl" points="365.4,531.2 365.4,409.4 382.8,409.4 382.8,531.2 365.4,531.2"/>
  <polygon class="pl" points="387.1,541.8 387.1,409.4 404.5,409.4 404.5,541.8 387.1,541.8"/>
  <polygon class="pl" points="408.9,530.7 408.9,409.4 426.3,409.4 426.3,530.7 408.9,530.7"/>
  <polygon class="pl" points="430.7,524.2 430.7,409.4 448.1,409.4 448.1,524.2 430.7,524.2"/>
  <polygon class="pl" points="452.4,560.6 452.4,409.4 469.8,409.4 469.8,560.6 452.4,560.6"/>
  <polygon class="pl" points="474.2,554.9 474.2,409.4 491.6,409.4 491.6,554.9 474.2,554.9"/>
  <polygon class="pl" points="495.9,556.2 495.9,409.4 513.3,409.4 513.3,556.2 495.9,556.2"/>
  <polygon class="pl" points="517.7,560.6 517.7,409.4 535.1,409.4 535.1,560.6 517.7,560.6"/>
  <polygon class="pl" points="539.5,554.2 539.5,409.4 556.9,409.4 556.9,554.2 539.5,554.2"/>
  <polygon class="pl" points="561.2,558.7 561.2,409.4 578.6,409.4 578.6,558.7 561.2,558.7"/>
  <polygon class="pl" points="583.0,553.9 583.0,409.4 600.4,409.4 600.4,553.9 583.0,553.9"/>
  <polygon class="pl" points="604.7,525.3 604.7,409.4 622.1,409.4 622.1,525.3 604.7,525.3"/>
  <polygon class="pl" points="626.5,489.2 626.5,409.4 643.9,409.4 643.9,489.2 626.5,489.2"/>
  <polygon class="pl" points="648.3,532.2 648.3,409.4 665.7,409.4 665.7,532.2 648.3,532.2"/>
  <polygon class="pl" points="670.0,515.8 670.0,409.4 687.4,409.4 687.4,515.8 670.0,515.8"/>
  <polygon class="pl" points="691.8,511.9 691.8,409.4 709.2,409.4 709.2,511.9 691.8,511.9"/>
  <polygon class="pl" points="713.5,500.2 713.5,409.4 730.9,409.4 730.9,500.2 713.5,500.2"/>
  <polygon class="pl" points="735.3,511.0 735.3,409.4 752.7,409.4 752.7,511.0 735.3,511.0"/>
  <polygon class="pl" points="757.1,501.1 757.1,409.4 774.5,409.4 774.5,501.1 757.1,501.1"/>
  <polygon class="pl" points="778.8,490.0 778.8,409.4 796.2,409.4 796.2,490.0 778.8,490.0"/>
  <polygon class="pl" points="800.6,506.4 800.6,409.4 818.0,409.4 818.0,506.4 800.6,506.4"/>
  <polygon class="pl" points="822.3,475.4 822.3,409.4 839.7,409.4 839.7,475.4 822.3,475.4"/>
  <polygon class="pl" points="844.1,514.1 844.1,409.4 861.5,409.4 861.5,514.1 844.1,514.1"/>
  <polygon class="pl" points="865.9,513.7 865.9,409.4 883.3,409.4 883.3,513.7 865.9,513.7"/>
  <polygon class="pl" points="887.6,508.6 887.6,409.4 905.0,409.4 905.0,508.6 887.6,508.6"/>
</g>
<polyline class="pl" points="156.5,191.4 178.2,224.2 200.0,273.2 221.8,297.5 243.5,337.6 265.3,350.3 287.0,332.7 308.8,366.4 330.6,341.7 352.3,372.7 374.1,362.7 395.8,370.8 417.6,361.7 439.4,352.5 461.1,388.3 482.9,381.3 504.6,377.6 526.4,382.3 548.2,373.5 569.9,390.0 591.7,377.3 613.4,344.0 635.2,306.3 657.0,355.2 678.7,339.6 700.5,336.8 722.2,325.6 744.0,333.1 765.8,317.8 787.5,307.7 809.3,330.7 831.0,294.9 852.8,333.9 874.6,327.9 896.3,318.7" stroke="#000" stroke-width="5.40" stroke-opacity="1.00" fill="none" clip-path="url(#axis_clip)"/>
<g class="pl" fill="#FFF" stroke="#000" stroke-width="0.900">
  <circle cx="178.2" cy="224.2" r="2.2" />
  <circle cx="200.0" cy="273.2" r="2.2" />
  <circle cx="221.8" cy="297.5" r="2.2" />
  <circle cx="243.5" cy="337.6" r="2.2" />
  <circle cx="265.3" cy="350.3" r="2.2" />
  <circle cx="287.0" cy="332.7" r="2.2" />
  <circle cx="308.8" cy="366.4" r="2.2" />
  <circle cx="330.6" cy="341.7" r="2.2" />
  <circle cx="352.3" cy="372.7" r="2.2" />
  <circle cx="395.8" cy="370.8" r="2.2" />
  <circle cx="417.6" cy="361.7" r="2.2" />
  <circle cx="439.4" cy="352.5" r="2.2" />
  <circle cx="461.1" cy="388.3" r="2.2" />
  <circle cx="482.9" cy="381.3" r="2.2" />
  <circle cx="504.6" cy="377.6" r="2.2" />
  <circle cx="526.4" cy="382.3" r="2.2" />
  <circle cx="548.2" cy="373.5" r="2.2" />
  <circle cx="569.9" cy="390.0" r="2.2" />
  <circle cx="613.4" cy="344.0" r="2.2" />
  <circle cx="635.2" cy="306.3" r="2.2" />
  <circle cx="657.0" cy="355.2" r="2.2" />
  <circle cx="678.7" cy="339.6" r="2.2" />
  <circle cx="700.5" cy="336.8" r="2.2" />
  <circle cx="722.2" cy="325.6" r="2.2" />
  <circle cx="744.0" cy="333.1" r="2.2" />
  <circle cx="765.8" cy="317.8" r="2.2" />
  <circle cx="787.5" cy="307.7" r="2.2" />
  <circle cx="831.0" cy="294.9" r="2.2" />
  <circle cx="852.8" cy="333.9" r="2.2" />
  <circle cx="874.6" cy="327.9" r="2.2" />
  <circle cx="896.3" cy="318.7" r="2.2" />
</g>
<g class="pl" fill="#FFF" stroke="#000" stroke-width="0.900">
  <circle cx="156.5" cy="191.4" r="5.4" />
  <circle cx="374.1" cy="362.7" r="5.4" />
  <circle cx="591.7" cy="377.3" r="5.4" />
  <circle cx="809.3" cy="330.7" r="5.4" />
</g>
<text transform="translate(145.6,47.2)" dy="0.0" font-size="27.00" fill="#808080" stroke="none">Annual Greenhouse Gas Emissions: Russia</text>
<text transform="translate(130.0,81.7)" dy="8.1" font-size="27.00" fill="#808080" stroke="none" text-anchor="end">CO<tspan dy="0.2em"><tspan style="font-size:70%">2</tspan></tspan><tspan dy="-0.2em">e</tspan></text>
<text transform="translate(945.6,313.9)" dy="7.6" font-size="25.20" fill="#000" stroke="none">-58.4% since 1990</text>
<text transform="translate(945.6,338.4)" dy="7.6" font-size="25.20" fill="#FF7F61" stroke="none">Energy</text>
<text transform="translate(945.6,258.6)" dy="7.6" font-size="25.20" fill="#4A89E8" stroke="none">Industrial Processes</text>
<text transform="translate(945.6,234.1)" dy="7.6" font-size="25.20" fill="#845F48" stroke="none">Agriculture</text>
<text transform="translate(945.6,209.6)" dy="7.6" font-size="25.20" fill="#DBA746" stroke="none">Waste</text>
<text transform="translate(945.6,459.0)" dy="7.6" font-size="25.20" fill="#7FBF7F" stroke="none">LULUCF</text>
<polyline class="pl" points="910.8,318.7 912.4,318.7 913.8,318.6 915.2,318.6 916.4,318.4 917.6,318.3 918.8,318.2 919.8,318.0 920.8,317.8 921.7,317.6 922.7,317.4 923.5,317.2 924.4,316.9 925.2,316.7 926.0,316.4 926.8,316.2 927.6,315.9 928.4,315.7 929.3,315.5 930.1,315.2 931.1,315.0 932.0,314.8 933.0,314.6 934.0,314.4 935.2,314.3 936.4,314.2 937.6,314.1 939.0,314.0 940.4,313.9 942.0,313.9" stroke="#000" stroke-width="0.90" stroke-opacity="1.00" fill="none" />
<polyline class="pl" points="910.8,333.6 912.4,333.7 913.8,333.7 915.2,333.8 916.4,333.9 917.6,334.0 918.8,334.2 919.8,334.3 920.8,334.5 921.7,334.7 922.7,334.9 923.5,335.2 924.4,335.4 925.2,335.7 926.0,335.9 926.8,336.1 927.6,336.4 928.4,336.6 929.3,336.9 930.1,337.1 931.1,337.3 932.0,337.5 933.0,337.7 934.0,337.9 935.2,338.0 936.4,338.2 937.6,338.3 939.0,338.3 940.4,338.4 942.0,338.4" stroke="#FF7F61" stroke-width="0.90" stroke-opacity="1.00" fill="none" />
<polyline class="pl" points="910.8,247.1 912.4,247.1 913.8,247.3 915.2,247.4 916.4,247.7 917.6,248.0 918.8,248.4 919.8,248.8 920.8,249.2 921.7,249.7 922.7,250.3 923.5,250.8 924.4,251.4 925.2,252.0 926.0,252.6 926.8,253.2 927.6,253.8 928.4,254.3 929.3,254.9 930.1,255.5 931.1,256.0 932.0,256.5 933.0,256.9 934.0,257.4 935.2,257.7 936.4,258.0 937.6,258.3 939.0,258.5 940.4,258.6 942.0,258.6" stroke="#4A89E8" stroke-width="0.90" stroke-opacity="1.00" fill="none" />
<polyline class="pl" points="910.8,231.9 912.4,231.9 913.8,231.9 915.2,231.9 916.4,232.0 917.6,232.1 918.8,232.1 919.8,232.2 920.8,232.3 921.7,232.4 922.7,232.5 923.5,232.6 924.4,232.7 925.2,232.8 926.0,232.9 926.8,233.1 927.6,233.2 928.4,233.3 929.3,233.4 930.1,233.5 931.1,233.6 932.0,233.7 933.0,233.8 934.0,233.9 935.2,234.0 936.4,234.0 937.6,234.1 939.0,234.1 940.4,234.1 942.0,234.1" stroke="#845F48" stroke-width="0.90" stroke-opacity="1.00" fill="none" />
<polyline class="pl" points="910.8,223.4 912.4,223.4 913.8,223.3 915.2,223.0 916.4,222.7 917.6,222.4 918.8,221.9 919.8,221.4 920.8,220.9 921.7,220.3 922.7,219.6 923.5,219.0 924.4,218.3 925.2,217.6 926.0,216.9 926.8,216.2 927.6,215.5 928.4,214.8 929.3,214.1 930.1,213.4 931.1,212.8 932.0,212.2 933.0,211.7 934.0,211.2 935.2,210.7 936.4,210.4 937.6,210.1 939.0,209.8 940.4,209.7 942.0,209.6" stroke="#DBA746" stroke-width="0.90" stroke-opacity="1.00" fill="none" />
<text transform="translate(160.0,666.1)" font-size="19.80" font-family="Helvetica" fill="#BFBFBF" stroke="none" xml:space="preserve">CICERO   &#9679;   Data: UNFCCC (2026)</text>
<g>
  <rect x="123.0" y="651.4" width="34" height="17" fill="#FFF" stroke="none" opacity="0.01"/>
  <g transform="translate(124.0,652.4) scale(0.24)">
  <g><circle fill="#FFF" cx="37.79" cy="28.5" r="28.84"/>
     <circle fill="none" cx="37.79" cy="28.5" r="28.84" stroke="#BFBFBF" stroke-width="5.5"/>
     <path fill="#BFBFBF" d="M37.16,23.19 l-4.29,2.23c-0.458-0.951-1.02-1.62-1.69-2c-0.667-0.38-1.29-0.571-1.86-0.571c-2.86,0-4.29,1.89-4.29,5.66 c0,1.71,0.36,3.08,1.09,4.11c0.724,1.03,1.79,1.54,3.2,1.54c1.87,0,3.18-0.915,3.94-2.74l3.94,2 c-0.838,1.56-2,2.79-3.49,3.69c-1.48,0.896-3.12,1.34-4.91,1.34c-2.86,0-5.16-0.875-6.92-2.63 c-1.75-1.75-2.63-4.19-2.63-7.31c0-3.05,0.886-5.47,2.66-7.26c1.77-1.79,4.01-2.69,6.72-2.69 C32.6,18.56,35.44,20.1,37.16,23.19z
              M55.61,23.19l-4.23,2.23c-0.457-0.951-1.02-1.62-1.69-2 c-0.668-0.38-1.31-0.571-1.91-0.571c-2.86,0-4.29,1.89-4.29,5.66c0,1.71,0.363,3.08,1.09,4.11 c0.723,1.03,1.79,1.54,3.2,1.54c1.87,0,3.18-0.915,3.94-2.74l4,2c-0.875,1.56-2.06,2.79-3.54,3.69 c-1.49,0.9-3.11,1.34-4.86,1.34c-2.9,0-5.21-0.875-6.94-2.63c-1.74-1.75-2.6-4.19-2.6-7.31 c0-3.05,0.885-5.47,2.66-7.26c1.77-1.79,4.01-2.69,6.71-2.69C51.12,18.56,53.944,20.1,55.61,23.19z"/>
  </g></g>
  <g transform="translate(140.2,652.4) scale(0.24)">
  <g><circle fill="#FFF" cx="37.79" cy="28.5" r="28.84"/>
     <circle fill="none" cx="37.79" cy="28.5" r="28.84" stroke="#BFBFBF" stroke-width="5.5"/>
     <path fill="#BFBFBF" d="M46.129,20.557v13.085h-3.656v15.542h-9.944V33.643h-3.656V20.557 c0-0.572,0.2-1.057,0.599-1.457c0.401-0.399,0.887-0.6,1.457-0.6h13.144c0.533,0,1.01,0.2,1.428,0.6 C45.918,19.5,46.129,19.986,46.129,20.557z
              M33.042,12.329c0-3.008,1.485-4.514,4.458-4.514s4.457,1.504,4.457,4.514 c0,2.971-1.486,4.457-4.457,4.457S33.042,15.3,33.042,12.329z"/>
  </g></g>
</g>
</g>
</svg>
