<svg version="1.1" xmlns="http://www.w3.org/2000/svg" xmlns:xlink="http://www.w3.org/1999/xlink" width="100%" height="100%" viewBox="0 0 1200.000 674.916">
<title>Kaya decomposition of emissions growth: Taiwan</title>
<style type="text/css">
  #main {font-family:Helvetica,Arial,sans-serif; font-size:27.00px;
         fill-opacity:1; fill:#000000; stroke:none; stroke-linejoin:round; stroke-linecap:round; stroke-width:1.00;}
  .marker {stroke-opacity:0;fill-opacity:0;}
  .marker:hover {stroke-opacity:0.5; fill-opacity:1;}
  .ticklabel {font-size:27.00px;fill:#808080;stroke:none;font-family:Helvetica}
  .ytl {text-anchor:end;}
  .dp1 {pointer-events:none;font-size:70%;text-anchor:middle;fill:#000000;}
  .dp2 {pointer-events:none;font-size:70%;text-anchor:middle;fill:#FFFFFF;}
  .numtip {pointer-events:none;}
  .cc {opacity:0.25;}
.dl_fe {background-color:#FDFFDF;display:flex;margin:auto;align-items:center}
.dl_fe_p {font-size:20px;text-align:center;margin:3px}
.dl_el {display:none;pointer-events:none;}
.cc:hover + .dl_el {display:block;}
text:hover + .dl_el {display:block;}
</style>
<defs>
  <clipPath id="axis_clip"><rect x="145.8" y="54.2" width="761.2" height="532.8" /></clipPath>
  <path id="line_x" d="M 145.600,0 h 761.600" stroke="#262626" stroke-opacity="0.15" stroke-width="1.00"/>
  <path id="tick_y" d="M 145.600,0 h -6.000" stroke="#808080" stroke-width="0.90"/>
  <path id="tick_x" d="M 0,587.177 v 6.000" stroke="#808080" stroke-width="0.90"/>
</defs>
<g id="main">
<use xlink:href="#line_x" transform="translate(0,587.2)"/>
<use xlink:href="#line_x" transform="translate(0,533.9)"/>
<use xlink:href="#line_x" transform="translate(0,480.5)"/>
<use xlink:href="#line_x" transform="translate(0,427.2)"/>
<use xlink:href="#line_x" transform="translate(0,373.9)"/>
<use xlink:href="#line_x" transform="translate(0,320.6)"/>
<use xlink:href="#line_x" transform="translate(0,267.3)"/>
<use xlink:href="#line_x" transform="translate(0,213.9)"/>
<use xlink:href="#line_x" transform="translate(0,160.6)"/>
<use xlink:href="#line_x" transform="translate(0,107.3)"/>
<use xlink:href="#line_x" transform="translate(0,54.0)"/>
<use xlink:href="#tick_y" transform="translate(0,587.2)"/>
<use xlink:href="#tick_y" transform="translate(0,533.9)"/>
<use xlink:href="#tick_y" transform="translate(0,480.5)"/>
<use xlink:href="#tick_y" transform="translate(0,427.2)"/>
<use xlink:href="#tick_y" transform="translate(0,373.9)"/>
<use xlink:href="#tick_y" transform="translate(0,320.6)"/>
<use xlink:href="#tick_y" transform="translate(0,267.3)"/>
<use xlink:href="#tick_y" transform="translate(0,213.9)"/>
<use xlink:href="#tick_y" transform="translate(0,160.6)"/>
<use xlink:href="#tick_y" transform="translate(0,107.3)"/>
<use xlink:href="#tick_y" transform="translate(0,54.0)"/>
<use xlink:href="#tick_x" transform="translate(156.8,0)"/>
<use xlink:href="#tick_x" transform="translate(268.8,0)"/>
<use xlink:href="#tick_x" transform="translate(380.8,0)"/>
<use xlink:href="#tick_x" transform="translate(492.8,0)"/>
<use xlink:href="#tick_x" transform="translate(604.8,0)"/>
<use xlink:href="#tick_x" transform="translate(716.8,0)"/>
<use xlink:href="#tick_x" transform="translate(828.8,0)"/>
<polyline points="145.6,53.993 145.6,587.177 907.2,587.177" stroke="#808080" stroke-width="0.90" fill="none"/>
<text class="ticklabel xtl" transform="translate(156.8,629.0)" text-anchor="middle">1990</text>
<text class="ticklabel xtl" transform="translate(268.8,629.0)" text-anchor="middle">1995</text>
<text class="ticklabel xtl" transform="translate(380.8,629.0)" text-anchor="middle">2000</text>
<text class="ticklabel xtl" transform="translate(492.8,629.0)" text-anchor="middle">2005</text>
<text class="ticklabel xtl" transform="translate(604.8,629.0)" text-anchor="middle">2010</text>
<text class="ticklabel xtl" transform="translate(716.8,629.0)" text-anchor="middle">2015</text>
<text class="ticklabel xtl" transform="translate(828.8,629.0)" text-anchor="middle">2020</text>
<text class="ticklabel ytl" transform="translate(128.8,595.3)">-8</text>
<text class="ticklabel ytl" transform="translate(128.8,542.0)">-6</text>
<text class="ticklabel ytl" transform="translate(128.8,488.6)">-4</text>
<text class="ticklabel ytl" transform="translate(128.8,435.3)">-2</text>
<text class="ticklabel ytl" transform="translate(128.8,382.0)">0</text>
<text class="ticklabel ytl" transform="translate(128.8,328.7)">2</text>
<text class="ticklabel ytl" transform="translate(128.8,275.4)">4</text>
<text class="ticklabel ytl" transform="translate(128.8,222.0)">6</text>
<text class="ticklabel ytl" transform="translate(128.8,168.7)">8</text>
<text class="ticklabel ytl" transform="translate(128.8,115.4)">10</text>
<text class="ticklabel ytl" transform="translate(128.8,62.1)">12 %/yr</text>
<g stroke="#000" stroke-width="0.90" fill="#808080"  clip-path="url(#axis_clip)">
  <polygon class="pl" points="215.0,123.4 215.0,126.6 233.0,126.6 233.0,123.4 215.0,123.4"/>
  <polygon class="pl" points="304.6,170.1 304.6,172.8 322.6,172.8 322.6,170.1 304.6,170.1"/>
  <polygon class="pl" points="327.0,218.9 327.0,220.2 345.0,220.2 345.0,218.9 327.0,218.9"/>
  <polygon class="pl" points="371.8,139.5 371.8,144.9 389.8,144.9 389.8,139.5 371.8,139.5"/>
  <polygon class="pl" points="439.0,253.6 439.0,254.3 457.0,254.3 457.0,253.6 439.0,253.6"/>
  <polygon class="pl" points="551.0,359.5 551.0,360.0 569.0,360.0 569.0,359.5 551.0,359.5"/>
  <polygon class="pl" points="573.4,366.5 573.4,368.6 591.4,368.6 591.4,366.5 573.4,366.5"/>
</g>
<g stroke="#000" stroke-width="0.90" fill="#8DA0CB"  clip-path="url(#axis_clip)">
  <polygon class="pl" points="170.2,104.9 170.2,152.5 188.2,152.5 188.2,104.9 170.2,104.9"/>
  <polygon class="pl" points="192.6,153.3 192.6,161.9 210.6,161.9 210.6,153.3 192.6,153.3"/>
  <polygon class="pl" points="215.0,126.6 215.0,185.8 233.0,185.8 233.0,126.6 215.0,126.6"/>
  <polygon class="pl" points="282.2,203.0 282.2,218.0 300.2,218.0 300.2,203.0 282.2,203.0"/>
  <polygon class="pl" points="304.6,172.8 304.6,205.9 322.6,205.9 322.6,172.8 304.6,172.8"/>
  <polygon class="pl" points="371.8,144.9 371.8,199.8 389.8,199.8 389.8,144.9 371.8,144.9"/>
  <polygon class="pl" points="483.8,181.1 483.8,223.3 501.8,223.3 501.8,181.1 483.8,181.1"/>
  <polygon class="pl" points="506.2,196.2 506.2,220.6 524.2,220.6 524.2,196.2 506.2,196.2"/>
  <polygon class="pl" points="618.2,207.3 618.2,276.2 636.2,276.2 636.2,207.3 618.2,207.3"/>
  <polygon class="pl" points="730.2,299.6 730.2,323.8 748.2,323.8 748.2,299.6 730.2,299.6"/>
  <polygon class="pl" points="752.6,227.6 752.6,278.3 770.6,278.3 770.6,227.6 752.6,227.6"/>
  <polygon class="pl" points="819.8,234.0 819.8,292.0 837.8,292.0 837.8,234.0 819.8,234.0"/>
  <polygon class="pl" points="864.6,275.1 864.6,287.5 882.6,287.5 882.6,275.1 864.6,275.1"/>
  <polygon class="pl" points="887.0,296.0 887.0,297.1 905.0,297.1 905.0,296.0 887.0,296.0"/>
</g>
<g stroke="#000" stroke-width="0.90" fill="#66C2A5"  clip-path="url(#axis_clip)">
  <polygon class="pl" points="147.8,201.7 147.8,227.3 165.8,227.3 165.8,201.7 147.8,201.7"/>
  <polygon class="pl" points="327.0,220.2 327.0,262.4 345.0,262.4 345.0,220.2 327.0,220.2"/>
  <polygon class="pl" points="371.8,199.8 371.8,214.2 389.8,214.2 389.8,199.8 371.8,199.8"/>
  <polygon class="pl" points="394.2,233.0 394.2,357.3 412.2,357.3 412.2,233.0 394.2,233.0"/>
  <polygon class="pl" points="439.0,254.3 439.0,261.8 457.0,261.8 457.0,254.3 439.0,254.3"/>
  <polygon class="pl" points="842.2,198.8 842.2,198.9 860.2,198.9 860.2,198.8 842.2,198.8"/>
</g>
<g stroke="#000" stroke-width="0.90" fill="#E78AC3"  clip-path="url(#axis_clip)">
  <polygon class="pl" points="147.8,227.3 147.8,350.2 165.8,350.2 165.8,227.3 147.8,227.3"/>
  <polygon class="pl" points="170.2,152.5 170.2,350.0 188.2,350.0 188.2,152.5 170.2,152.5"/>
  <polygon class="pl" points="192.6,161.9 192.6,350.6 210.6,350.6 210.6,161.9 192.6,161.9"/>
  <polygon class="pl" points="215.0,185.8 215.0,351.8 233.0,351.8 233.0,185.8 215.0,185.8"/>
  <polygon class="pl" points="237.4,175.3 237.4,352.7 255.4,352.7 255.4,175.3 237.4,175.3"/>
  <polygon class="pl" points="259.8,201.8 259.8,353.6 277.8,353.6 277.8,201.8 259.8,201.8"/>
  <polygon class="pl" points="282.2,218.0 282.2,354.4 300.2,354.4 300.2,218.0 282.2,218.0"/>
  <polygon class="pl" points="304.6,205.9 304.6,355.1 322.6,355.1 322.6,205.9 304.6,205.9"/>
  <polygon class="pl" points="327.0,262.4 327.0,355.7 345.0,355.7 345.0,262.4 327.0,262.4"/>
  <polygon class="pl" points="349.4,195.5 349.4,356.4 367.4,356.4 367.4,195.5 349.4,195.5"/>
  <polygon class="pl" points="371.8,214.2 371.8,357.3 389.8,357.3 389.8,214.2 371.8,214.2"/>
  <polygon class="pl" points="416.6,228.6 416.6,357.6 434.6,357.6 434.6,228.6 416.6,228.6"/>
  <polygon class="pl" points="439.0,261.8 439.0,359.2 457.0,359.2 457.0,261.8 439.0,261.8"/>
  <polygon class="pl" points="461.4,197.2 461.4,361.0 479.4,361.0 479.4,197.2 461.4,197.2"/>
  <polygon class="pl" points="483.8,223.3 483.8,363.0 501.8,363.0 501.8,223.3 483.8,223.3"/>
  <polygon class="pl" points="506.2,220.6 506.2,364.7 524.2,364.7 524.2,220.6 506.2,220.6"/>
  <polygon class="pl" points="528.6,191.8 528.6,366.1 546.6,366.1 546.6,191.8 528.6,191.8"/>
  <polygon class="pl" points="551.0,360.0 551.0,367.4 569.0,367.4 569.0,360.0 551.0,360.0"/>
  <polygon class="pl" points="595.8,101.2 595.8,369.4 613.8,369.4 613.8,101.2 595.8,101.2"/>
  <polygon class="pl" points="618.2,276.2 618.2,367.0 636.2,367.0 636.2,276.2 618.2,276.2"/>
  <polygon class="pl" points="640.6,322.3 640.6,363.4 658.6,363.4 658.6,322.3 640.6,322.3"/>
  <polygon class="pl" points="663.0,300.5 663.0,362.9 681.0,362.9 681.0,300.5 663.0,300.5"/>
  <polygon class="pl" points="685.4,248.5 685.4,363.4 703.4,363.4 703.4,248.5 685.4,248.5"/>
  <polygon class="pl" points="707.8,334.9 707.8,363.7 725.8,363.7 725.8,334.9 707.8,334.9"/>
  <polygon class="pl" points="730.2,323.8 730.2,364.6 748.2,364.6 748.2,323.8 730.2,323.8"/>
  <polygon class="pl" points="752.6,278.3 752.6,365.9 770.6,365.9 770.6,278.3 752.6,278.3"/>
  <polygon class="pl" points="775.0,299.8 775.0,367.0 793.0,367.0 793.0,299.8 775.0,299.8"/>
  <polygon class="pl" points="797.4,292.4 797.4,368.1 815.4,368.1 815.4,292.4 797.4,292.4"/>
  <polygon class="pl" points="819.8,292.0 819.8,369.0 837.8,369.0 837.8,292.0 819.8,292.0"/>
  <polygon class="pl" points="842.2,198.9 842.2,369.6 860.2,369.6 860.2,198.9 842.2,198.9"/>
  <polygon class="pl" points="864.6,287.5 864.6,370.2 882.6,370.2 882.6,287.5 864.6,287.5"/>
  <polygon class="pl" points="887.0,297.1 887.0,370.6 905.0,370.6 905.0,297.1 887.0,297.1"/>
</g>
<g stroke="#000" stroke-width="0.90" fill="#A6D854"  clip-path="url(#axis_clip)">
  <polygon class="pl" points="147.8,350.2 147.8,373.9 165.8,373.9 165.8,350.2 147.8,350.2"/>
  <polygon class="pl" points="170.2,350.0 170.2,373.9 188.2,373.9 188.2,350.0 170.2,350.0"/>
  <polygon class="pl" points="192.6,350.6 192.6,373.9 210.6,373.9 210.6,350.6 192.6,350.6"/>
  <polygon class="pl" points="215.0,351.8 215.0,373.9 233.0,373.9 233.0,351.8 215.0,351.8"/>
  <polygon class="pl" points="237.4,352.7 237.4,373.9 255.4,373.9 255.4,352.7 237.4,352.7"/>
  <polygon class="pl" points="259.8,353.6 259.8,373.9 277.8,373.9 277.8,353.6 259.8,353.6"/>
  <polygon class="pl" points="282.2,354.4 282.2,373.9 300.2,373.9 300.2,354.4 282.2,354.4"/>
  <polygon class="pl" points="304.6,355.1 304.6,373.9 322.6,373.9 322.6,355.1 304.6,355.1"/>
  <polygon class="pl" points="327.0,355.7 327.0,373.9 345.0,373.9 345.0,355.7 327.0,355.7"/>
  <polygon class="pl" points="349.4,356.4 349.4,373.9 367.4,373.9 367.4,356.4 349.4,356.4"/>
  <polygon class="pl" points="371.8,357.3 371.8,373.9 389.8,373.9 389.8,357.3 371.8,357.3"/>
  <polygon class="pl" points="394.2,357.3 394.2,373.9 412.2,373.9 412.2,357.3 394.2,357.3"/>
  <polygon class="pl" points="416.6,357.6 416.6,373.9 434.6,373.9 434.6,357.6 416.6,357.6"/>
  <polygon class="pl" points="439.0,359.2 439.0,373.9 457.0,373.9 457.0,359.2 439.0,359.2"/>
  <polygon class="pl" points="461.4,361.0 461.4,373.9 479.4,373.9 479.4,361.0 461.4,361.0"/>
  <polygon class="pl" points="483.8,363.0 483.8,373.9 501.8,373.9 501.8,363.0 483.8,363.0"/>
  <polygon class="pl" points="506.2,364.7 506.2,373.9 524.2,373.9 524.2,364.7 506.2,364.7"/>
  <polygon class="pl" points="528.6,366.1 528.6,373.9 546.6,373.9 546.6,366.1 528.6,366.1"/>
  <polygon class="pl" points="551.0,367.4 551.0,373.9 569.0,373.9 569.0,367.4 551.0,367.4"/>
  <polygon class="pl" points="573.4,368.6 573.4,373.9 591.4,373.9 591.4,368.6 573.4,368.6"/>
  <polygon class="pl" points="595.8,369.4 595.8,373.9 613.8,373.9 613.8,369.4 595.8,369.4"/>
  <polygon class="pl" points="618.2,367.0 618.2,373.9 636.2,373.9 636.2,367.0 618.2,367.0"/>
  <polygon class="pl" points="640.6,363.4 640.6,373.9 658.6,373.9 658.6,363.4 640.6,363.4"/>
  <polygon class="pl" points="663.0,362.9 663.0,373.9 681.0,373.9 681.0,362.9 663.0,362.9"/>
  <polygon class="pl" points="685.4,363.4 685.4,373.9 703.4,373.9 703.4,363.4 685.4,363.4"/>
  <polygon class="pl" points="707.8,363.7 707.8,373.9 725.8,373.9 725.8,363.7 707.8,363.7"/>
  <polygon class="pl" points="730.2,364.6 730.2,373.9 748.2,373.9 748.2,364.6 730.2,364.6"/>
  <polygon class="pl" points="752.6,365.9 752.6,373.9 770.6,373.9 770.6,365.9 752.6,365.9"/>
  <polygon class="pl" points="775.0,367.0 775.0,373.9 793.0,373.9 793.0,367.0 775.0,367.0"/>
  <polygon class="pl" points="797.4,368.1 797.4,373.9 815.4,373.9 815.4,368.1 797.4,368.1"/>
  <polygon class="pl" points="819.8,369.0 819.8,373.9 837.8,373.9 837.8,369.0 819.8,369.0"/>
  <polygon class="pl" points="842.2,369.6 842.2,373.9 860.2,373.9 860.2,369.6 842.2,369.6"/>
  <polygon class="pl" points="864.6,370.2 864.6,373.9 882.6,373.9 882.6,370.2 864.6,370.2"/>
  <polygon class="pl" points="887.0,370.6 887.0,373.9 905.0,373.9 905.0,370.6 887.0,370.6"/>
</g>
<g stroke="#000" stroke-width="0.90" fill="#808080"  clip-path="url(#axis_clip)">
  <polygon class="pl" points="147.8,521.6 147.8,514.9 165.8,514.9 165.8,521.6 147.8,521.6"/>
  <polygon class="pl" points="170.2,441.8 170.2,440.7 188.2,440.7 188.2,441.8 170.2,441.8"/>
  <polygon class="pl" points="192.6,426.6 192.6,424.7 210.6,424.7 210.6,426.6 192.6,426.6"/>
  <polygon class="pl" points="237.4,442.4 237.4,439.3 255.4,439.3 255.4,442.4 237.4,442.4"/>
  <polygon class="pl" points="259.8,405.7 259.8,404.9 277.8,404.9 277.8,405.7 259.8,405.7"/>
  <polygon class="pl" points="282.2,427.1 282.2,425.6 300.2,425.6 300.2,427.1 282.2,427.1"/>
  <polygon class="pl" points="349.4,452.9 349.4,449.4 367.4,449.4 367.4,452.9 349.4,452.9"/>
  <polygon class="pl" points="394.2,454.6 394.2,451.8 412.2,451.8 412.2,454.6 394.2,454.6"/>
  <polygon class="pl" points="416.6,437.0 416.6,434.8 434.6,434.8 434.6,437.0 416.6,437.0"/>
  <polygon class="pl" points="461.4,448.7 461.4,444.8 479.4,444.8 479.4,448.7 461.4,448.7"/>
  <polygon class="pl" points="483.8,481.9 483.8,477.3 501.8,477.3 501.8,481.9 483.8,481.9"/>
  <polygon class="pl" points="506.2,455.3 506.2,451.9 524.2,451.9 524.2,455.3 506.2,455.3"/>
  <polygon class="pl" points="528.6,521.9 528.6,514.7 546.6,514.7 546.6,521.9 528.6,521.9"/>
  <polygon class="pl" points="595.8,460.3 595.8,452.8 613.8,452.8 613.8,460.3 595.8,460.3"/>
  <polygon class="pl" points="618.2,480.9 618.2,477.1 636.2,477.1 636.2,480.9 618.2,480.9"/>
  <polygon class="pl" points="640.6,466.3 640.6,465.1 658.6,465.1 658.6,466.3 640.6,466.3"/>
  <polygon class="pl" points="663.0,427.4 663.0,426.4 681.0,426.4 681.0,427.4 663.0,427.4"/>
  <polygon class="pl" points="685.4,476.1 685.4,472.8 703.4,472.8 703.4,476.1 685.4,476.1"/>
  <polygon class="pl" points="707.8,419.6 707.8,419.1 725.8,419.1 725.8,419.6 707.8,419.6"/>
  <polygon class="pl" points="730.2,417.7 730.2,417.1 748.2,417.1 748.2,417.7 730.2,417.7"/>
  <polygon class="pl" points="752.6,460.0 752.6,457.4 770.6,457.4 770.6,460.0 752.6,460.0"/>
  <polygon class="pl" points="775.0,465.1 775.0,463.6 793.0,463.6 793.0,465.1 775.0,465.1"/>
  <polygon class="pl" points="797.4,544.2 797.4,541.1 815.4,541.1 815.4,544.2 797.4,544.2"/>
  <polygon class="pl" points="819.8,542.8 819.8,536.1 837.8,536.1 837.8,542.8 819.8,542.8"/>
  <polygon class="pl" points="842.2,430.1 842.2,426.9 860.2,426.9 860.2,430.1 842.2,430.1"/>
  <polygon class="pl" points="864.6,565.8 864.6,559.4 882.6,559.4 882.6,565.8 864.6,565.8"/>
  <polygon class="pl" points="887.0,573.7 887.0,568.2 905.0,568.2 905.0,573.7 887.0,573.7"/>
</g>
<g stroke="#000" stroke-width="0.90" fill="#8DA0CB"  clip-path="url(#axis_clip)">
  <polygon class="pl" points="147.8,514.9 147.8,373.9 165.8,373.9 165.8,514.9 147.8,514.9"/>
  <polygon class="pl" points="237.4,439.3 237.4,407.9 255.4,407.9 255.4,439.3 237.4,439.3"/>
  <polygon class="pl" points="259.8,404.9 259.8,380.0 277.8,380.0 277.8,404.9 259.8,404.9"/>
  <polygon class="pl" points="327.0,392.5 327.0,373.9 345.0,373.9 345.0,392.5 327.0,392.5"/>
  <polygon class="pl" points="349.4,449.4 349.4,425.6 367.4,425.6 367.4,449.4 349.4,449.4"/>
  <polygon class="pl" points="394.2,451.8 394.2,420.4 412.2,420.4 412.2,451.8 394.2,451.8"/>
  <polygon class="pl" points="416.6,434.8 416.6,411.3 434.6,411.3 434.6,434.8 416.6,434.8"/>
  <polygon class="pl" points="439.0,376.2 439.0,373.9 457.0,373.9 457.0,376.2 439.0,376.2"/>
  <polygon class="pl" points="461.4,444.8 461.4,443.0 479.4,443.0 479.4,444.8 461.4,444.8"/>
  <polygon class="pl" points="528.6,514.7 528.6,440.8 546.6,440.8 546.6,514.7 528.6,514.7"/>
  <polygon class="pl" points="551.0,520.8 551.0,493.0 569.0,493.0 569.0,520.8 551.0,520.8"/>
  <polygon class="pl" points="573.4,512.7 573.4,451.0 591.4,451.0 591.4,512.7 573.4,512.7"/>
  <polygon class="pl" points="595.8,452.8 595.8,449.1 613.8,449.1 613.8,452.8 595.8,452.8"/>
  <polygon class="pl" points="640.6,465.1 640.6,453.6 658.6,453.6 658.6,465.1 640.6,465.1"/>
  <polygon class="pl" points="663.0,426.4 663.0,387.0 681.0,387.0 681.0,426.4 663.0,426.4"/>
  <polygon class="pl" points="685.4,472.8 685.4,437.1 703.4,437.1 703.4,472.8 685.4,472.8"/>
  <polygon class="pl" points="707.8,419.1 707.8,414.3 725.8,414.3 725.8,419.1 707.8,419.1"/>
  <polygon class="pl" points="775.0,463.6 775.0,415.2 793.0,415.2 793.0,463.6 775.0,463.6"/>
  <polygon class="pl" points="797.4,541.1 797.4,502.9 815.4,502.9 815.4,541.1 797.4,541.1"/>
  <polygon class="pl" points="842.2,426.9 842.2,373.9 860.2,373.9 860.2,426.9 842.2,426.9"/>
</g>
<g stroke="#000" stroke-width="0.90" fill="#66C2A5"  clip-path="url(#axis_clip)">
  <polygon class="pl" points="170.2,440.7 170.2,373.9 188.2,373.9 188.2,440.7 170.2,440.7"/>
  <polygon class="pl" points="192.6,424.7 192.6,373.9 210.6,373.9 210.6,424.7 192.6,424.7"/>
  <polygon class="pl" points="215.0,399.1 215.0,373.9 233.0,373.9 233.0,399.1 215.0,399.1"/>
  <polygon class="pl" points="237.4,407.9 237.4,373.9 255.4,373.9 255.4,407.9 237.4,407.9"/>
  <polygon class="pl" points="259.8,380.0 259.8,373.9 277.8,373.9 277.8,380.0 259.8,380.0"/>
  <polygon class="pl" points="282.2,425.6 282.2,373.9 300.2,373.9 300.2,425.6 282.2,425.6"/>
  <polygon class="pl" points="304.6,379.4 304.6,373.9 322.6,373.9 322.6,379.4 304.6,379.4"/>
  <polygon class="pl" points="349.4,425.6 349.4,373.9 367.4,373.9 367.4,425.6 349.4,425.6"/>
  <polygon class="pl" points="416.6,411.3 416.6,373.9 434.6,373.9 434.6,411.3 416.6,411.3"/>
  <polygon class="pl" points="461.4,443.0 461.4,373.9 479.4,373.9 479.4,443.0 461.4,443.0"/>
  <polygon class="pl" points="483.8,477.3 483.8,373.9 501.8,373.9 501.8,477.3 483.8,477.3"/>
  <polygon class="pl" points="506.2,451.9 506.2,373.9 524.2,373.9 524.2,451.9 506.2,451.9"/>
  <polygon class="pl" points="528.6,440.8 528.6,373.9 546.6,373.9 546.6,440.8 528.6,440.8"/>
  <polygon class="pl" points="551.0,493.0 551.0,373.9 569.0,373.9 569.0,493.0 551.0,493.0"/>
  <polygon class="pl" points="573.4,451.0 573.4,414.9 591.4,414.9 591.4,451.0 573.4,451.0"/>
  <polygon class="pl" points="595.8,449.1 595.8,373.9 613.8,373.9 613.8,449.1 595.8,449.1"/>
  <polygon class="pl" points="618.2,477.1 618.2,373.9 636.2,373.9 636.2,477.1 618.2,477.1"/>
  <polygon class="pl" points="640.6,453.6 640.6,373.9 658.6,373.9 658.6,453.6 640.6,453.6"/>
  <polygon class="pl" points="663.0,387.0 663.0,373.9 681.0,373.9 681.0,387.0 663.0,387.0"/>
  <polygon class="pl" points="685.4,437.1 685.4,373.9 703.4,373.9 703.4,437.1 685.4,437.1"/>
  <polygon class="pl" points="707.8,414.3 707.8,373.9 725.8,373.9 725.8,414.3 707.8,414.3"/>
  <polygon class="pl" points="730.2,417.1 730.2,373.9 748.2,373.9 748.2,417.1 730.2,417.1"/>
  <polygon class="pl" points="752.6,457.4 752.6,373.9 770.6,373.9 770.6,457.4 752.6,457.4"/>
  <polygon class="pl" points="775.0,415.2 775.0,373.9 793.0,373.9 793.0,415.2 775.0,415.2"/>
  <polygon class="pl" points="797.4,502.9 797.4,373.9 815.4,373.9 815.4,502.9 797.4,502.9"/>
  <polygon class="pl" points="819.8,536.1 819.8,373.9 837.8,373.9 837.8,536.1 819.8,536.1"/>
  <polygon class="pl" points="864.6,559.4 864.6,373.9 882.6,373.9 882.6,559.4 864.6,559.4"/>
  <polygon class="pl" points="887.0,568.2 887.0,373.9 905.0,373.9 905.0,568.2 887.0,568.2"/>
</g>
<g stroke="#000" stroke-width="0.90" fill="#E78AC3"  clip-path="url(#axis_clip)">
  <polygon class="pl" points="394.2,420.4 394.2,373.9 412.2,373.9 412.2,420.4 394.2,420.4"/>
  <polygon class="pl" points="573.4,414.9 573.4,373.9 591.4,373.9 591.4,414.9 573.4,414.9"/>
</g>
<g stroke="#000" stroke-width="0.90" fill="#A6D854"  clip-path="url(#axis_clip)">
</g>
<g class="pl" fill="#000" stroke="#000" stroke-width="0.900">
  <circle cx="156.8" cy="349.4" r="5.4" />
  <circle cx="179.2" cy="172.8" r="5.4" />
  <circle cx="201.6" cy="206.1" r="5.4" />
  <circle cx="224.0" cy="148.6" r="5.4" />
  <circle cx="246.4" cy="243.8" r="5.4" />
  <circle cx="268.8" cy="233.6" r="5.4" />
  <circle cx="291.2" cy="256.2" r="5.4" />
  <circle cx="313.6" cy="175.6" r="5.4" />
  <circle cx="336.0" cy="237.5" r="5.4" />
  <circle cx="358.4" cy="274.5" r="5.4" />
  <circle cx="380.8" cy="139.5" r="5.4" />
  <circle cx="403.2" cy="313.6" r="5.4" />
  <circle cx="425.6" cy="291.7" r="5.4" />
  <circle cx="448.0" cy="255.9" r="5.4" />
  <circle cx="470.4" cy="271.9" r="5.4" />
  <circle cx="492.8" cy="289.1" r="5.4" />
  <circle cx="515.2" cy="277.5" r="5.4" />
  <circle cx="537.6" cy="339.8" r="5.4" />
  <circle cx="560.0" cy="506.4" r="5.4" />
  <circle cx="582.4" cy="505.3" r="5.4" />
  <circle cx="604.8" cy="187.6" r="5.4" />
  <circle cx="627.2" cy="314.2" r="5.4" />
  <circle cx="649.6" cy="414.7" r="5.4" />
  <circle cx="672.0" cy="353.9" r="5.4" />
  <circle cx="694.4" cy="350.8" r="5.4" />
  <circle cx="716.8" cy="380.6" r="5.4" />
  <circle cx="739.2" cy="343.4" r="5.4" />
  <circle cx="761.6" cy="313.7" r="5.4" />
  <circle cx="784.0" cy="391.0" r="5.4" />
  <circle cx="806.4" cy="462.7" r="5.4" />
  <circle cx="828.8" cy="402.9" r="5.4" />
  <circle cx="851.2" cy="255.0" r="5.4" />
  <circle cx="873.6" cy="467.0" r="5.4" />
  <circle cx="896.0" cy="495.8" r="5.4" />
</g>
<g stroke="#000" stroke-width="0.90" fill="#808080"  >
</g>
<g stroke="#000" stroke-width="0.90" fill="#8DA0CB"  >
</g>
<g stroke="#000" stroke-width="0.90" fill="#66C2A5"  >
</g>
<g stroke="#000" stroke-width="0.90" fill="#E78AC3"  >
  <polygon class="pl" points="959.0,251.5 959.0,361.4 977.0,361.4 977.0,251.5 959.0,251.5"/>
</g>
<g stroke="#000" stroke-width="0.90" fill="#A6D854"  >
  <polygon class="pl" points="959.0,361.4 959.0,373.9 977.0,373.9 977.0,361.4 959.0,361.4"/>
</g>
<g stroke="#000" stroke-width="0.90" fill="#808080"  >
  <polygon class="pl" points="959.0,434.8 959.0,432.7 977.0,432.7 977.0,434.8 959.0,434.8"/>
</g>
<g stroke="#000" stroke-width="0.90" fill="#8DA0CB"  >
  <polygon class="pl" points="959.0,432.7 959.0,426.9 977.0,426.9 977.0,432.7 959.0,432.7"/>
</g>
<g stroke="#000" stroke-width="0.90" fill="#66C2A5"  >
  <polygon class="pl" points="959.0,426.9 959.0,373.9 977.0,373.9 977.0,426.9 959.0,426.9"/>
</g>
<g stroke="#000" stroke-width="0.90" fill="#E78AC3"  >
</g>
<g stroke="#000" stroke-width="0.90" fill="#A6D854"  >
</g>
<g class="pl" fill="#000" stroke="#000" stroke-width="0.900">
  <circle cx="968.0" cy="312.4" r="5.4" />
</g>
<text transform="translate(968.0,593.9)"  font-size="21.60" fill="#808080" stroke="none" text-anchor="middle">
      <tspan x="0" y="18.0">Average over</tspan><tspan x="0" y="42.2">1990&#8211;2023</tspan>
    </text>
<g stroke="none" stroke-width="0.9000"  >
  <polygon points="968.0,587.2 974.0,593.9 962.0,593.9 968.0,587.2" fill="#808080"/>
</g>
<text transform="translate(1009.2,319.9)" dy="6.5" font-size="21.60" fill="#000" stroke="none">Fossil CO<tspan dy="0.2em"><tspan style="font-size:70%">2</tspan></tspan><tspan dy="-0.2em"></tspan></text>
<text transform="translate(1009.2,367.6)" dy="6.5" font-size="21.60" fill="#A6D854" stroke="none">Population</text>
<text transform="translate(1009.2,299.0)" dy="6.5" font-size="21.60" fill="#E78AC3" stroke="none">GDP/Population</text>
<text transform="translate(1009.2,400.4)" dy="6.5" font-size="21.60" fill="#66C2A5" stroke="none">Energy/GDP</text>
<text transform="translate(1009.2,421.3)" dy="6.5" font-size="21.60" fill="#8DA0CB" stroke="none">CO<tspan dy="0.2em"><tspan style="font-size:70%">2</tspan></tspan><tspan dy="-0.2em">/</tspan>Energy</text>
<text transform="translate(1009.2,442.2)" dy="6.5" font-size="21.60" fill="#808080" stroke="none">Interactions</text>
<polyline class="pl" points="985.2,312.4 986.2,312.4 987.2,312.5 988.1,312.6 988.9,312.8 989.7,313.0 990.4,313.2 991.1,313.5 991.7,313.8 992.4,314.1 992.9,314.5 993.5,314.8 994.1,315.2 994.6,315.6 995.1,316.0 995.7,316.3 996.2,316.7 996.7,317.1 997.3,317.5 997.9,317.8 998.4,318.2 999.1,318.5 999.7,318.8 1000.4,319.1 1001.1,319.3 1001.9,319.5 1002.7,319.7 1003.6,319.8 1004.6,319.9 1005.6,319.9" stroke="#000" stroke-width="0.90" stroke-opacity="1.00" fill="none" />
<polyline class="pl" points="985.2,306.4 986.2,306.4 987.2,306.3 988.1,306.2 988.9,306.1 989.7,305.9 990.4,305.6 991.1,305.3 991.7,305.1 992.4,304.7 992.9,304.4 993.5,304.0 994.1,303.7 994.6,303.3 995.1,302.9 995.7,302.5 996.2,302.1 996.7,301.8 997.3,301.4 997.9,301.0 998.4,300.7 999.1,300.4 999.7,300.1 1000.4,299.8 1001.1,299.6 1001.9,299.4 1002.7,299.2 1003.6,299.1 1004.6,299.0 1005.6,299.0" stroke="#E78AC3" stroke-width="0.90" stroke-opacity="1.00" fill="none" />
<polyline class="pl" points="985.2,400.4 986.2,400.4 987.2,400.4 988.1,400.4 988.9,400.4 989.7,400.4 990.4,400.4 991.1,400.4 991.7,400.4 992.4,400.4 992.9,400.4 993.5,400.4 994.1,400.4 994.6,400.4 995.1,400.4 995.7,400.4 996.2,400.4 996.7,400.4 997.3,400.4 997.9,400.4 998.4,400.4 999.1,400.4 999.7,400.4 1000.4,400.4 1001.1,400.4 1001.9,400.4 1002.7,400.4 1003.6,400.4 1004.6,400.4 1005.6,400.4" stroke="#66C2A5" stroke-width="0.90" stroke-opacity="1.00" fill="none" />
<polyline class="pl" points="985.2,429.8 986.2,429.7 987.2,429.7 988.1,429.5 988.9,429.3 989.7,429.1 990.4,428.8 991.1,428.5 991.7,428.2 992.4,427.8 992.9,427.5 993.5,427.0 994.1,426.6 994.6,426.2 995.1,425.8 995.7,425.3 996.2,424.9 996.7,424.5 997.3,424.0 997.9,423.6 998.4,423.3 999.1,422.9 999.7,422.6 1000.4,422.3 1001.1,422.0 1001.9,421.8 1002.7,421.6 1003.6,421.4 1004.6,421.3 1005.6,421.3" stroke="#8DA0CB" stroke-width="0.90" stroke-opacity="1.00" fill="none" />
<polyline class="pl" points="985.2,433.8 986.2,433.8 987.2,433.9 988.1,434.0 988.9,434.2 989.7,434.4 990.4,434.7 991.1,435.0 991.7,435.3 992.4,435.7 992.9,436.1 993.5,436.5 994.1,436.9 994.6,437.3 995.1,437.8 995.7,438.2 996.2,438.6 996.7,439.1 997.3,439.5 997.9,439.9 998.4,440.3 999.1,440.6 999.7,441.0 1000.4,441.3 1001.1,441.5 1001.9,441.8 1002.7,442.0 1003.6,442.1 1004.6,442.2 1005.6,442.2" stroke="#808080" stroke-width="0.90" stroke-opacity="1.00" fill="none" />
<text transform="translate(145.6,47.2)" dy="0.0" font-size="27.00" fill="#808080" stroke="none">Kaya decomposition of emissions growth: Taiwan</text>
<text transform="translate(157.6,60.7)" dy="18.0" font-size="18.00" fill="#808080" stroke="none">Percentage change relative to previous year</text>
<text transform="translate(157.6,82.4)" dy="18.0" font-size="18.00" fill="#808080" stroke="none">Adjusted for leap years</text>
<text transform="translate(160.3,666.1)" font-size="19.80" font-family="Helvetica" fill="#BFBFBF" stroke="none" xml:space="preserve">Global Carbon Project</text>
<g>
  <rect x="123.0" y="651.4" width="34" height="17" fill="#FFF" stroke="none" opacity="0.01"/>
  <g transform="translate(124.0,652.4) scale(0.24)">
  <g><circle fill="#FFF" cx="37.79" cy="28.5" r="28.84"/>
     <circle fill="none" cx="37.79" cy="28.5" r="28.84" stroke="#BFBFBF" stroke-width="5.5"/>
     <path fill="#BFBFBF" d="M37.16,23.19 l-4.29,2.23c-0.458-0.951-1.02-1.62-1.69-2c-0.667-0.38-1.29-0.571-1.86-0.571c-2.86,0-4.29,1.89-4.29,5.66 c0,1.71,0.36,3.08,1.09,4.11c0.724,1.03,1.79,1.54,3.2,1.54c1.87,0,3.18-0.915,3.94-2.74l3.94,2 c-0.838,1.56-2,2.79-3.49,3.69c-1.48,0.896-3.12,1.34-4.91,1.34c-2.86,0-5.16-0.875-6.92-2.63 c-1.75-1.75-2.63-4.19-2.63-7.31c0-3.05,0.886-5.47,2.66-7.26c1.77-1.79,4.01-2.69,6.72-2.69 C32.6,18.56,35.44,20.1,37.16,23.19z
              M55.61,23.19l-4.23,2.23c-0.457-0.951-1.02-1.62-1.69-2 c-0.668-0.38-1.31-0.571-1.91-0.571c-2.86,0-4.29,1.89-4.29,5.66c0,1.71,0.363,3.08,1.09,4.11 c0.723,1.03,1.79,1.54,3.2,1.54c1.87,0,3.18-0.915,3.94-2.74l4,2c-0.875,1.56-2.06,2.79-3.54,3.69 c-1.49,0.9-3.11,1.34-4.86,1.34c-2.9,0-5.21-0.875-6.94-2.63c-1.74-1.75-2.6-4.19-2.6-7.31 c0-3.05,0.885-5.47,2.66-7.26c1.77-1.79,4.01-2.69,6.71-2.69C51.12,18.56,53.944,20.1,55.61,23.19z"/>
  </g></g>
  <g transform="translate(140.2,652.4) scale(0.24)">
  <g><circle fill="#FFF" cx="37.79" cy="28.5" r="28.84"/>
     <circle fill="none" cx="37.79" cy="28.5" r="28.84" stroke="#BFBFBF" stroke-width="5.5"/>
     <path fill="#BFBFBF" d="M46.129,20.557v13.085h-3.656v15.542h-9.944V33.643h-3.656V20.557 c0-0.572,0.2-1.057,0.599-1.457c0.401-0.399,0.887-0.6,1.457-0.6h13.144c0.533,0,1.01,0.2,1.428,0.6 C45.918,19.5,46.129,19.986,46.129,20.557z
              M33.042,12.329c0-3.008,1.485-4.514,4.458-4.514s4.457,1.504,4.457,4.514 c0,2.971-1.486,4.457-4.457,4.457S33.042,15.3,33.042,12.329z"/>
  </g></g>
</g>
</g>
</svg>
