<svg version="1.1" xmlns="http://www.w3.org/2000/svg" xmlns:xlink="http://www.w3.org/1999/xlink" width="100%" height="100%" viewBox="0 0 1200.000 674.916">
<title>Annual CO2 Emissions: Panama</title>
<style type="text/css">
  #main {font-family:Helvetica,Arial,sans-serif; font-size:27.00px;
         fill-opacity:1; fill:#000000; stroke:none; stroke-linejoin:round; stroke-linecap:round; stroke-width:1.00;}
  .marker {stroke-opacity:0;fill-opacity:0;}
  .marker:hover {stroke-opacity:0.5; fill-opacity:1;}
  .ticklabel {font-size:27.00px;fill:#808080;stroke:none;font-family:Helvetica}
  .ytl {text-anchor:end;}
  .dp1 {pointer-events:none;font-size:70%;text-anchor:middle;fill:#000000;}
  .dp2 {pointer-events:none;font-size:70%;text-anchor:middle;fill:#FFFFFF;}
  .numtip {pointer-events:none;}
  .cc {opacity:0.25;}
.dl_fe {background-color:#FDFFDF;display:flex;margin:auto;align-items:center}
.dl_fe_p {font-size:20px;text-align:center;margin:3px}
.dl_el {display:none;pointer-events:none;}
.cc:hover + .dl_el {display:block;}
text:hover + .dl_el {display:block;}
</style>
<defs>
  <clipPath id="axis_clip"><rect x="145.8" y="54.2" width="761.2" height="532.8" /></clipPath>
  <path id="line_y" d="M 0,53.993 v 533.183" stroke="#262626" stroke-opacity="0.15" stroke-width="1.00"/>
  <path id="line_x" d="M 145.600,0 h 761.600" stroke="#262626" stroke-opacity="0.15" stroke-width="1.00"/>
  <path id="tick_y" d="M 145.600,0 h -6.000" stroke="#808080" stroke-width="0.90"/>
  <path id="tick_x" d="M 0,587.177 v 6.000" stroke="#808080" stroke-width="0.90"/>
</defs>
<g id="main">
<use xlink:href="#line_y" transform="translate(162.9,0)"/>
<use xlink:href="#line_y" transform="translate(336.0,0)"/>
<use xlink:href="#line_y" transform="translate(509.1,0)"/>
<use xlink:href="#line_y" transform="translate(682.2,0)"/>
<use xlink:href="#line_y" transform="translate(889.9,0)"/>
<use xlink:href="#line_x" transform="translate(0,587.2)"/>
<use xlink:href="#line_x" transform="translate(0,480.5)"/>
<use xlink:href="#line_x" transform="translate(0,373.9)"/>
<use xlink:href="#line_x" transform="translate(0,267.3)"/>
<use xlink:href="#line_x" transform="translate(0,160.6)"/>
<use xlink:href="#line_x" transform="translate(0,54.0)"/>
<use xlink:href="#tick_y" transform="translate(0,587.2)"/>
<use xlink:href="#tick_y" transform="translate(0,480.5)"/>
<use xlink:href="#tick_y" transform="translate(0,373.9)"/>
<use xlink:href="#tick_y" transform="translate(0,267.3)"/>
<use xlink:href="#tick_y" transform="translate(0,160.6)"/>
<use xlink:href="#tick_y" transform="translate(0,54.0)"/>
<use xlink:href="#tick_x" transform="translate(162.9,0)"/>
<use xlink:href="#tick_x" transform="translate(336.0,0)"/>
<use xlink:href="#tick_x" transform="translate(509.1,0)"/>
<use xlink:href="#tick_x" transform="translate(682.2,0)"/>
<use xlink:href="#tick_x" transform="translate(889.9,0)"/>
<polyline points="145.6,53.993 145.6,587.177 907.2,587.177" stroke="#808080" stroke-width="0.90" fill="none"/>
<text class="ticklabel xtl" transform="translate(162.9,629.0)" text-anchor="middle">2000</text>
<text class="ticklabel xtl" transform="translate(336.0,629.0)" text-anchor="middle">2005</text>
<text class="ticklabel xtl" transform="translate(509.1,629.0)" text-anchor="middle">2010</text>
<text class="ticklabel xtl" transform="translate(682.2,629.0)" text-anchor="middle">2015</text>
<text class="ticklabel xtl" transform="translate(889.9,629.0)" text-anchor="middle">2021</text>
<text class="ticklabel ytl" transform="translate(128.8,595.3)">-30</text>
<text class="ticklabel ytl" transform="translate(128.8,488.6)">-20</text>
<text class="ticklabel ytl" transform="translate(128.8,382.0)">-10</text>
<text class="ticklabel ytl" transform="translate(128.8,275.4)">0</text>
<text class="ticklabel ytl" transform="translate(128.8,168.7)">10</text>
<text class="ticklabel ytl" transform="translate(128.8,62.1)">20 Mt</text>
<g stroke="#000" stroke-width="0.90" fill="#DBA746"  clip-path="url(#axis_clip)">
  <polygon points="149.1,210.4 149.1,210.5 176.8,210.5 176.8,210.4 149.1,210.4"/>
  <polygon points="183.7,200.8 183.7,200.9 211.4,200.9 211.4,200.8 183.7,200.8"/>
  <polygon points="218.3,208.9 218.3,208.9 246.0,208.9 246.0,208.9 218.3,208.9"/>
  <polygon points="252.9,203.6 252.9,203.6 280.6,203.6 280.6,203.6 252.9,203.6"/>
  <polygon points="287.5,205.8 287.5,205.8 315.2,205.8 315.2,205.8 287.5,205.8"/>
  <polygon points="322.2,204.9 322.2,205.0 349.8,205.0 349.8,204.9 322.2,204.9"/>
  <polygon points="356.8,198.6 356.8,198.7 384.5,198.7 384.5,198.6 356.8,198.6"/>
  <polygon points="391.4,189.7 391.4,189.8 419.1,189.8 419.1,189.7 391.4,189.7"/>
  <polygon points="426.0,189.6 426.0,189.7 453.7,189.7 453.7,189.6 426.0,189.6"/>
  <polygon points="460.6,176.1 460.6,176.2 488.3,176.2 488.3,176.1 460.6,176.1"/>
  <polygon points="495.2,165.7 495.2,165.8 522.9,165.8 522.9,165.7 495.2,165.7"/>
  <polygon points="529.9,152.3 529.9,152.4 557.6,152.4 557.6,152.3 529.9,152.3"/>
  <polygon points="564.5,152.1 564.5,152.2 592.2,152.2 592.2,152.1 564.5,152.1"/>
  <polygon points="599.1,153.7 599.1,153.8 626.8,153.8 626.8,153.7 599.1,153.7"/>
  <polygon points="633.7,152.9 633.7,153.1 661.4,153.1 661.4,152.9 633.7,152.9"/>
  <polygon points="668.3,138.1 668.3,138.2 696.0,138.2 696.0,138.1 668.3,138.1"/>
  <polygon points="703.0,139.1 703.0,139.3 730.6,139.3 730.6,139.1 703.0,139.1"/>
  <polygon points="737.6,140.3 737.6,140.5 765.3,140.5 765.3,140.3 737.6,140.3"/>
  <polygon points="772.2,139.6 772.2,139.7 799.9,139.7 799.9,139.6 772.2,139.6"/>
  <polygon points="806.8,101.2 806.8,101.4 834.5,101.4 834.5,101.2 806.8,101.2"/>
  <polygon points="841.4,142.8 841.4,143.0 869.1,143.0 869.1,142.8 841.4,142.8"/>
  <polygon points="876.0,120.5 876.0,120.7 903.7,120.7 903.7,120.5 876.0,120.5"/>
</g>
<g stroke="#000" stroke-width="0.90" fill="#845F48"  clip-path="url(#axis_clip)">
  <polygon points="149.1,210.5 149.1,210.6 176.8,210.6 176.8,210.5 149.1,210.5"/>
  <polygon points="183.7,200.9 183.7,200.9 211.4,200.9 211.4,200.9 183.7,200.9"/>
  <polygon points="218.3,208.9 218.3,209.1 246.0,209.1 246.0,208.9 218.3,208.9"/>
  <polygon points="252.9,203.6 252.9,203.8 280.6,203.8 280.6,203.6 252.9,203.6"/>
  <polygon points="287.5,205.8 287.5,206.0 315.2,206.0 315.2,205.8 287.5,205.8"/>
  <polygon points="322.2,205.0 322.2,205.2 349.8,205.2 349.8,205.0 322.2,205.0"/>
  <polygon points="356.8,198.7 356.8,198.8 384.5,198.8 384.5,198.7 356.8,198.7"/>
  <polygon points="391.4,189.8 391.4,190.0 419.1,190.0 419.1,189.8 391.4,189.8"/>
  <polygon points="426.0,189.7 426.0,189.9 453.7,189.9 453.7,189.7 426.0,189.7"/>
  <polygon points="460.6,176.2 460.6,176.4 488.3,176.4 488.3,176.2 460.6,176.2"/>
  <polygon points="495.2,165.8 495.2,166.1 522.9,166.1 522.9,165.8 495.2,165.8"/>
  <polygon points="529.9,152.4 529.9,152.7 557.6,152.7 557.6,152.4 529.9,152.4"/>
  <polygon points="564.5,152.2 564.5,152.5 592.2,152.5 592.2,152.2 564.5,152.2"/>
  <polygon points="599.1,153.8 599.1,154.0 626.8,154.0 626.8,153.8 599.1,153.8"/>
  <polygon points="633.7,153.1 633.7,153.2 661.4,153.2 661.4,153.1 633.7,153.1"/>
  <polygon points="668.3,138.2 668.3,138.3 696.0,138.3 696.0,138.2 668.3,138.2"/>
  <polygon points="703.0,139.3 703.0,139.5 730.6,139.5 730.6,139.3 703.0,139.3"/>
  <polygon points="737.6,140.5 737.6,140.7 765.3,140.7 765.3,140.5 737.6,140.5"/>
  <polygon points="772.2,139.7 772.2,140.0 799.9,140.0 799.9,139.7 772.2,139.7"/>
  <polygon points="806.8,101.4 806.8,101.6 834.5,101.6 834.5,101.4 806.8,101.4"/>
  <polygon points="841.4,143.0 841.4,143.3 869.1,143.3 869.1,143.0 841.4,143.0"/>
  <polygon points="876.0,120.7 876.0,121.0 903.7,121.0 903.7,120.7 876.0,120.7"/>
</g>
<g stroke="#000" stroke-width="0.90" fill="#4A89E8"  clip-path="url(#axis_clip)">
  <polygon points="149.1,210.6 149.1,214.0 176.8,214.0 176.8,210.6 149.1,210.6"/>
  <polygon points="183.7,200.9 183.7,204.2 211.4,204.2 211.4,200.9 183.7,200.9"/>
  <polygon points="218.3,209.1 218.3,211.3 246.0,211.3 246.0,209.1 218.3,209.1"/>
  <polygon points="252.9,203.8 252.9,206.1 280.6,206.1 280.6,203.8 252.9,203.8"/>
  <polygon points="287.5,206.0 287.5,208.5 315.2,208.5 315.2,206.0 287.5,206.0"/>
  <polygon points="322.2,205.2 322.2,207.4 349.8,207.4 349.8,205.2 322.2,205.2"/>
  <polygon points="356.8,198.8 356.8,200.9 384.5,200.9 384.5,198.8 356.8,198.8"/>
  <polygon points="391.4,190.0 391.4,192.3 419.1,192.3 419.1,190.0 391.4,190.0"/>
  <polygon points="426.0,189.9 426.0,192.2 453.7,192.2 453.7,189.9 426.0,189.9"/>
  <polygon points="460.6,176.4 460.6,179.2 488.3,179.2 488.3,176.4 460.6,176.4"/>
  <polygon points="495.2,166.1 495.2,172.3 522.9,172.3 522.9,166.1 495.2,166.1"/>
  <polygon points="529.9,152.7 529.9,160.4 557.6,160.4 557.6,152.7 529.9,152.7"/>
  <polygon points="564.5,152.5 564.5,160.8 592.2,160.8 592.2,152.5 564.5,152.5"/>
  <polygon points="599.1,154.0 599.1,162.6 626.8,162.6 626.8,154.0 599.1,154.0"/>
  <polygon points="633.7,153.2 633.7,161.7 661.4,161.7 661.4,153.2 633.7,153.2"/>
  <polygon points="668.3,138.3 668.3,146.3 696.0,146.3 696.0,138.3 668.3,138.3"/>
  <polygon points="703.0,139.5 703.0,147.4 730.6,147.4 730.6,139.5 703.0,139.5"/>
  <polygon points="737.6,140.7 737.6,149.0 765.3,149.0 765.3,140.7 737.6,140.7"/>
  <polygon points="772.2,140.0 772.2,146.8 799.9,146.8 799.9,140.0 772.2,140.0"/>
  <polygon points="806.8,101.6 806.8,107.5 834.5,107.5 834.5,101.6 806.8,101.6"/>
  <polygon points="841.4,143.3 841.4,146.2 869.1,146.2 869.1,143.3 841.4,143.3"/>
  <polygon points="876.0,121.0 876.0,126.3 903.7,126.3 903.7,121.0 876.0,121.0"/>
</g>
<g stroke="#000" stroke-width="0.90" fill="#FF7F61"  clip-path="url(#axis_clip)">
  <polygon points="149.1,214.0 149.1,267.3 176.8,267.3 176.8,214.0 149.1,214.0"/>
  <polygon points="183.7,204.2 183.7,267.3 211.4,267.3 211.4,204.2 183.7,204.2"/>
  <polygon points="218.3,211.3 218.3,267.3 246.0,267.3 246.0,211.3 218.3,211.3"/>
  <polygon points="252.9,206.1 252.9,267.3 280.6,267.3 280.6,206.1 252.9,206.1"/>
  <polygon points="287.5,208.5 287.5,267.3 315.2,267.3 315.2,208.5 287.5,208.5"/>
  <polygon points="322.2,207.4 322.2,267.3 349.8,267.3 349.8,207.4 322.2,207.4"/>
  <polygon points="356.8,200.9 356.8,267.3 384.5,267.3 384.5,200.9 356.8,200.9"/>
  <polygon points="391.4,192.3 391.4,267.3 419.1,267.3 419.1,192.3 391.4,192.3"/>
  <polygon points="426.0,192.2 426.0,267.3 453.7,267.3 453.7,192.2 426.0,192.2"/>
  <polygon points="460.6,179.2 460.6,267.3 488.3,267.3 488.3,179.2 460.6,179.2"/>
  <polygon points="495.2,172.3 495.2,267.3 522.9,267.3 522.9,172.3 495.2,172.3"/>
  <polygon points="529.9,160.4 529.9,267.3 557.6,267.3 557.6,160.4 529.9,160.4"/>
  <polygon points="564.5,160.8 564.5,267.3 592.2,267.3 592.2,160.8 564.5,160.8"/>
  <polygon points="599.1,162.6 599.1,267.3 626.8,267.3 626.8,162.6 599.1,162.6"/>
  <polygon points="633.7,161.7 633.7,267.3 661.4,267.3 661.4,161.7 633.7,161.7"/>
  <polygon points="668.3,146.3 668.3,267.3 696.0,267.3 696.0,146.3 668.3,146.3"/>
  <polygon points="703.0,147.4 703.0,267.3 730.6,267.3 730.6,147.4 703.0,147.4"/>
  <polygon points="737.6,149.0 737.6,267.3 765.3,267.3 765.3,149.0 737.6,149.0"/>
  <polygon points="772.2,146.8 772.2,267.3 799.9,267.3 799.9,146.8 772.2,146.8"/>
  <polygon points="806.8,107.5 806.8,267.3 834.5,267.3 834.5,107.5 806.8,107.5"/>
  <polygon points="841.4,146.2 841.4,267.3 869.1,267.3 869.1,146.2 841.4,146.2"/>
  <polygon points="876.0,126.3 876.0,267.3 903.7,267.3 903.7,126.3 876.0,126.3"/>
</g>
<g stroke="#000" stroke-width="0.90" fill="#7FBF7F"  clip-path="url(#axis_clip)">
  <polygon points="149.1,496.9 149.1,267.3 176.8,267.3 176.8,496.9 149.1,496.9"/>
  <polygon points="183.7,473.4 183.7,267.3 211.4,267.3 211.4,473.4 183.7,473.4"/>
  <polygon points="218.3,457.4 218.3,267.3 246.0,267.3 246.0,457.4 218.3,457.4"/>
  <polygon points="252.9,474.0 252.9,267.3 280.6,267.3 280.6,474.0 252.9,474.0"/>
  <polygon points="287.5,524.1 287.5,267.3 315.2,267.3 315.2,524.1 287.5,524.1"/>
  <polygon points="322.2,442.9 322.2,267.3 349.8,267.3 349.8,442.9 322.2,442.9"/>
  <polygon points="356.8,513.8 356.8,267.3 384.5,267.3 384.5,513.8 356.8,513.8"/>
  <polygon points="391.4,495.7 391.4,267.3 419.1,267.3 419.1,495.7 391.4,495.7"/>
  <polygon points="426.0,473.5 426.0,267.3 453.7,267.3 453.7,473.5 426.0,473.5"/>
  <polygon points="460.6,530.7 460.6,267.3 488.3,267.3 488.3,530.7 460.6,530.7"/>
  <polygon points="495.2,521.0 495.2,267.3 522.9,267.3 522.9,521.0 495.2,521.0"/>
  <polygon points="529.9,518.2 529.9,267.3 557.6,267.3 557.6,518.2 529.9,518.2"/>
  <polygon points="564.5,534.5 564.5,267.3 592.2,267.3 592.2,534.5 564.5,534.5"/>
  <polygon points="599.1,549.4 599.1,267.3 626.8,267.3 626.8,549.4 599.1,549.4"/>
  <polygon points="633.7,527.1 633.7,267.3 661.4,267.3 661.4,527.1 633.7,527.1"/>
  <polygon points="668.3,512.7 668.3,267.3 696.0,267.3 696.0,512.7 668.3,512.7"/>
  <polygon points="703.0,515.2 703.0,267.3 730.6,267.3 730.6,515.2 703.0,515.2"/>
  <polygon points="737.6,551.7 737.6,267.3 765.3,267.3 765.3,551.7 737.6,551.7"/>
  <polygon points="772.2,552.8 772.2,267.3 799.9,267.3 799.9,552.8 772.2,552.8"/>
  <polygon points="806.8,558.1 806.8,267.3 834.5,267.3 834.5,558.1 806.8,558.1"/>
  <polygon points="841.4,547.1 841.4,267.3 869.1,267.3 869.1,547.1 841.4,547.1"/>
  <polygon points="876.0,565.0 876.0,267.3 903.7,267.3 903.7,565.0 876.0,565.0"/>
</g>
<polyline class="pl" points="162.9,440.1 197.5,407.0 232.1,399.0 266.8,410.3 301.4,462.6 336.0,380.5 370.6,445.2 405.2,418.1 439.9,395.9 474.5,439.5 509.1,419.5 543.7,403.2 578.3,419.4 612.9,435.8 647.6,412.8 682.2,383.6 716.8,387.1 751.4,424.8 786.0,425.1 820.7,392.0 855.3,422.6 889.9,418.2" stroke="#000" stroke-width="5.40" stroke-opacity="1.00" fill="none" clip-path="url(#axis_clip)"/>
<g class="pl" fill="#FFF" stroke="#000" stroke-width="0.900">
  <circle cx="197.5" cy="407.0" r="2.2" />
  <circle cx="232.1" cy="399.0" r="2.2" />
  <circle cx="266.8" cy="410.3" r="2.2" />
  <circle cx="301.4" cy="462.6" r="2.2" />
  <circle cx="336.0" cy="380.5" r="2.2" />
  <circle cx="370.6" cy="445.2" r="2.2" />
  <circle cx="405.2" cy="418.1" r="2.2" />
  <circle cx="439.9" cy="395.9" r="2.2" />
  <circle cx="474.5" cy="439.5" r="2.2" />
  <circle cx="543.7" cy="403.2" r="2.2" />
  <circle cx="578.3" cy="419.4" r="2.2" />
  <circle cx="612.9" cy="435.8" r="2.2" />
  <circle cx="647.6" cy="412.8" r="2.2" />
  <circle cx="682.2" cy="383.6" r="2.2" />
  <circle cx="716.8" cy="387.1" r="2.2" />
  <circle cx="751.4" cy="424.8" r="2.2" />
  <circle cx="786.0" cy="425.1" r="2.2" />
  <circle cx="820.7" cy="392.0" r="2.2" />
  <circle cx="889.9" cy="418.2" r="2.2" />
</g>
<g class="pl" fill="#FFF" stroke="#000" stroke-width="0.900">
  <circle cx="162.9" cy="440.1" r="5.4" />
  <circle cx="509.1" cy="419.5" r="5.4" />
  <circle cx="855.3" cy="422.6" r="5.4" />
</g>
<text transform="translate(145.6,47.2)" dy="0.0" font-size="27.00" fill="#808080" stroke="none">Annual CO<tspan dy="0.2em"><tspan style="font-size:70%">2</tspan></tspan><tspan dy="-0.2em"> </tspan>Emissions: Panama</text>
<text transform="translate(130.0,81.6)" dy="8.1" font-size="27.00" fill="#808080" stroke="none" text-anchor="end">CO<tspan dy="0.2em"><tspan style="font-size:70%">2</tspan></tspan><tspan dy="-0.2em"></tspan></text>
<text transform="translate(945.6,429.7)" dy="7.6" font-size="25.20" fill="#000" stroke="none">-12.7% since 2000</text>
<text transform="translate(945.6,196.8)" dy="7.6" font-size="25.20" fill="#FF7F61" stroke="none">Energy</text>
<text transform="translate(945.6,146.7)" dy="7.6" font-size="25.20" fill="#4A89E8" stroke="none">Industrial Processes</text>
<text transform="translate(945.6,121.7)" dy="7.6" font-size="25.20" fill="#845F48" stroke="none">Agriculture</text>
<text transform="translate(945.6,96.6)" dy="7.6" font-size="25.20" fill="#DBA746" stroke="none">Waste</text>
<text transform="translate(945.6,404.7)" dy="7.6" font-size="25.20" fill="#7FBF7F" stroke="none">LULUCF</text>
<polyline class="pl" points="910.8,418.2 912.4,418.3 913.8,418.4 915.2,418.6 916.4,418.8 917.6,419.1 918.8,419.5 919.8,419.9 920.8,420.4 921.7,420.8 922.7,421.4 923.5,421.9 924.4,422.5 925.2,423.1 926.0,423.7 926.8,424.3 927.6,424.8 928.4,425.4 929.3,426.0 930.1,426.5 931.1,427.1 932.0,427.6 933.0,428.0 934.0,428.4 935.2,428.8 936.4,429.1 937.6,429.4 939.0,429.5 940.4,429.7 942.0,429.7" stroke="#000" stroke-width="0.90" stroke-opacity="1.00" fill="none" />
<polyline class="pl" points="910.8,123.6 912.4,123.7 913.8,123.9 915.2,124.3 916.4,124.8 917.6,125.4 918.8,126.2 919.8,127.0 920.8,127.9 921.7,128.9 922.7,130.0 923.5,131.1 924.4,132.2 925.2,133.4 926.0,134.6 926.8,135.8 927.6,137.0 928.4,138.1 929.3,139.3 930.1,140.4 931.1,141.4 932.0,142.4 933.0,143.3 934.0,144.2 935.2,144.9 936.4,145.5 937.6,146.0 939.0,146.4 940.4,146.6 942.0,146.7" stroke="#4A89E8" stroke-width="0.90" stroke-opacity="1.00" fill="none" />
<polyline class="pl" points="910.8,120.8 912.4,120.8 913.8,120.8 915.2,120.9 916.4,120.9 917.6,120.9 918.8,120.9 919.8,121.0 920.8,121.0 921.7,121.0 922.7,121.1 923.5,121.1 924.4,121.2 925.2,121.2 926.0,121.2 926.8,121.3 927.6,121.3 928.4,121.4 929.3,121.4 930.1,121.4 931.1,121.5 932.0,121.5 933.0,121.6 934.0,121.6 935.2,121.6 936.4,121.6 937.6,121.7 939.0,121.7 940.4,121.7 942.0,121.7" stroke="#845F48" stroke-width="0.90" stroke-opacity="1.00" fill="none" />
<polyline class="pl" points="910.8,120.6 912.4,120.5 913.8,120.3 915.2,119.9 916.4,119.3 917.6,118.7 918.8,117.9 919.8,117.1 920.8,116.1 921.7,115.1 922.7,114.0 923.5,112.9 924.4,111.7 925.2,110.5 926.0,109.2 926.8,108.0 927.6,106.8 928.4,105.5 929.3,104.4 930.1,103.2 931.1,102.1 932.0,101.1 933.0,100.2 934.0,99.3 935.2,98.5 936.4,97.9 937.6,97.4 939.0,97.0 940.4,96.7 942.0,96.6" stroke="#DBA746" stroke-width="0.90" stroke-opacity="1.00" fill="none" />
<polyline class="pl" points="910.8,416.1 912.4,416.1 913.8,416.0 915.2,415.8 916.4,415.5 917.6,415.2 918.8,414.9 919.8,414.5 920.8,414.0 921.7,413.5 922.7,413.0 923.5,412.4 924.4,411.9 925.2,411.3 926.0,410.7 926.8,410.1 927.6,409.5 928.4,408.9 929.3,408.4 930.1,407.8 931.1,407.3 932.0,406.8 933.0,406.3 934.0,405.9 935.2,405.6 936.4,405.3 937.6,405.0 939.0,404.8 940.4,404.7 942.0,404.7" stroke="#7FBF7F" stroke-width="0.90" stroke-opacity="1.00" fill="none" />
<text transform="translate(160.0,666.1)" font-size="19.80" font-family="Helvetica" fill="#BFBFBF" stroke="none" xml:space="preserve">CICERO   &#9679;   Data: UNFCCC (2024)</text>
<g>
  <rect x="123.0" y="651.4" width="34" height="17" fill="#FFF" stroke="none" opacity="0.01"/>
  <g transform="translate(124.0,652.4) scale(0.24)">
  <g><circle fill="#FFF" cx="37.79" cy="28.5" r="28.84"/>
     <circle fill="none" cx="37.79" cy="28.5" r="28.84" stroke="#BFBFBF" stroke-width="5.5"/>
     <path fill="#BFBFBF" d="M37.16,23.19 l-4.29,2.23c-0.458-0.951-1.02-1.62-1.69-2c-0.667-0.38-1.29-0.571-1.86-0.571c-2.86,0-4.29,1.89-4.29,5.66 c0,1.71,0.36,3.08,1.09,4.11c0.724,1.03,1.79,1.54,3.2,1.54c1.87,0,3.18-0.915,3.94-2.74l3.94,2 c-0.838,1.56-2,2.79-3.49,3.69c-1.48,0.896-3.12,1.34-4.91,1.34c-2.86,0-5.16-0.875-6.92-2.63 c-1.75-1.75-2.63-4.19-2.63-7.31c0-3.05,0.886-5.47,2.66-7.26c1.77-1.79,4.01-2.69,6.72-2.69 C32.6,18.56,35.44,20.1,37.16,23.19z
              M55.61,23.19l-4.23,2.23c-0.457-0.951-1.02-1.62-1.69-2 c-0.668-0.38-1.31-0.571-1.91-0.571c-2.86,0-4.29,1.89-4.29,5.66c0,1.71,0.363,3.08,1.09,4.11 c0.723,1.03,1.79,1.54,3.2,1.54c1.87,0,3.18-0.915,3.94-2.74l4,2c-0.875,1.56-2.06,2.79-3.54,3.69 c-1.49,0.9-3.11,1.34-4.86,1.34c-2.9,0-5.21-0.875-6.94-2.63c-1.74-1.75-2.6-4.19-2.6-7.31 c0-3.05,0.885-5.47,2.66-7.26c1.77-1.79,4.01-2.69,6.71-2.69C51.12,18.56,53.944,20.1,55.61,23.19z"/>
  </g></g>
  <g transform="translate(140.2,652.4) scale(0.24)">
  <g><circle fill="#FFF" cx="37.79" cy="28.5" r="28.84"/>
     <circle fill="none" cx="37.79" cy="28.5" r="28.84" stroke="#BFBFBF" stroke-width="5.5"/>
     <path fill="#BFBFBF" d="M46.129,20.557v13.085h-3.656v15.542h-9.944V33.643h-3.656V20.557 c0-0.572,0.2-1.057,0.599-1.457c0.401-0.399,0.887-0.6,1.457-0.6h13.144c0.533,0,1.01,0.2,1.428,0.6 C45.918,19.5,46.129,19.986,46.129,20.557z
              M33.042,12.329c0-3.008,1.485-4.514,4.458-4.514s4.457,1.504,4.457,4.514 c0,2.971-1.486,4.457-4.457,4.457S33.042,15.3,33.042,12.329z"/>
  </g></g>
</g>
</g>
</svg>
