<svg version="1.1" xmlns="http://www.w3.org/2000/svg" xmlns:xlink="http://www.w3.org/1999/xlink" width="100%" height="100%" viewBox="0 0 1200.000 674.916">
<title>Annual LULUCF emissions: Chile</title>
<style type="text/css">
  #main {font-family:Helvetica,Arial,sans-serif; font-size:27.00px;
         fill-opacity:1; fill:#000000; stroke:none; stroke-linejoin:round; stroke-linecap:round; stroke-width:1.00;}
  .marker {stroke-opacity:0;fill-opacity:0;}
  .marker:hover {stroke-opacity:0.5; fill-opacity:1;}
  .ticklabel {font-size:27.00px;fill:#808080;stroke:none;font-family:Helvetica}
  .ytl {text-anchor:end;}
  .dp1 {pointer-events:none;font-size:70%;text-anchor:middle;fill:#000000;}
  .dp2 {pointer-events:none;font-size:70%;text-anchor:middle;fill:#FFFFFF;}
  .numtip {pointer-events:none;}
  .cc {opacity:0.25;}
.dl_fe {background-color:#FDFFDF;display:flex;margin:auto;align-items:center}
.dl_fe_p {font-size:20px;text-align:center;margin:3px}
.dl_el {display:none;pointer-events:none;}
.cc:hover + .dl_el {display:block;}
text:hover + .dl_el {display:block;}
</style>
<defs>
  <clipPath id="axis_clip"><rect x="145.8" y="54.2" width="761.2" height="532.8" /></clipPath>
  <path id="line_x" d="M 145.600,0 h 761.600" stroke="#262626" stroke-opacity="0.15" stroke-width="1.00"/>
  <path id="tick_y" d="M 145.600,0 h -6.000" stroke="#808080" stroke-width="0.90"/>
  <path id="tick_x" d="M 0,587.177 v 6.000" stroke="#808080" stroke-width="0.90"/>
</defs>
<g id="main">
<use xlink:href="#line_x" transform="translate(0,511.0)"/>
<use xlink:href="#line_x" transform="translate(0,358.7)"/>
<use xlink:href="#line_x" transform="translate(0,206.3)"/>
<use xlink:href="#line_x" transform="translate(0,54.0)"/>
<use xlink:href="#tick_y" transform="translate(0,511.0)"/>
<use xlink:href="#tick_y" transform="translate(0,358.7)"/>
<use xlink:href="#tick_y" transform="translate(0,206.3)"/>
<use xlink:href="#tick_y" transform="translate(0,54.0)"/>
<use xlink:href="#tick_x" transform="translate(157.1,0)"/>
<use xlink:href="#tick_x" transform="translate(272.5,0)"/>
<use xlink:href="#tick_x" transform="translate(387.9,0)"/>
<use xlink:href="#tick_x" transform="translate(503.3,0)"/>
<use xlink:href="#tick_x" transform="translate(618.7,0)"/>
<use xlink:href="#tick_x" transform="translate(734.1,0)"/>
<use xlink:href="#tick_x" transform="translate(895.7,0)"/>
<polyline points="145.6,53.993 145.6,587.177 907.2,587.177" stroke="#808080" stroke-width="0.90" fill="none"/>
<text class="ticklabel xtl" transform="translate(157.1,629.0)" text-anchor="middle">1990</text>
<text class="ticklabel xtl" transform="translate(272.5,629.0)" text-anchor="middle">1995</text>
<text class="ticklabel xtl" transform="translate(387.9,629.0)" text-anchor="middle">2000</text>
<text class="ticklabel xtl" transform="translate(503.3,629.0)" text-anchor="middle">2005</text>
<text class="ticklabel xtl" transform="translate(618.7,629.0)" text-anchor="middle">2010</text>
<text class="ticklabel xtl" transform="translate(734.1,629.0)" text-anchor="middle">2015</text>
<text class="ticklabel xtl" transform="translate(895.7,629.0)" text-anchor="middle">2022</text>
<text class="ticklabel ytl" transform="translate(128.8,519.1)">-80</text>
<text class="ticklabel ytl" transform="translate(128.8,366.8)">-40</text>
<text class="ticklabel ytl" transform="translate(128.8,214.4)">0</text>
<text class="ticklabel ytl" transform="translate(128.8,62.1)">40 Mt</text>
<g stroke="#000" stroke-width="0.90" fill="#1A4D1A"  clip-path="url(#axis_clip)">
</g>
<g stroke="#000" stroke-width="0.90" fill="#7B417F"  clip-path="url(#axis_clip)">
</g>
<g stroke="#000" stroke-width="0.90" fill="#808080"  clip-path="url(#axis_clip)">
  <polygon points="147.9,186.7 147.9,188.0 166.4,188.0 166.4,186.7 147.9,186.7"/>
  <polygon points="171.0,186.5 171.0,187.8 189.4,187.8 189.4,186.5 171.0,186.5"/>
  <polygon points="194.1,186.4 194.1,187.8 212.5,187.8 212.5,186.4 194.1,186.4"/>
  <polygon points="217.1,186.2 217.1,187.7 235.6,187.7 235.6,186.2 217.1,186.2"/>
  <polygon points="240.2,186.0 240.2,187.5 258.7,187.5 258.7,186.0 240.2,186.0"/>
  <polygon points="263.3,186.0 263.3,187.5 281.8,187.5 281.8,186.0 263.3,186.0"/>
  <polygon points="286.4,185.8 286.4,187.4 304.8,187.4 304.8,185.8 286.4,185.8"/>
  <polygon points="309.5,185.7 309.5,187.4 327.9,187.4 327.9,185.7 309.5,185.7"/>
  <polygon points="332.5,185.3 332.5,187.0 351.0,187.0 351.0,185.3 332.5,185.3"/>
  <polygon points="355.6,185.2 355.6,187.0 374.1,187.0 374.1,185.2 355.6,185.2"/>
  <polygon points="378.7,185.3 378.7,187.2 397.2,187.2 397.2,185.3 378.7,185.3"/>
  <polygon points="401.8,185.3 401.8,187.2 420.2,187.2 420.2,185.3 401.8,185.3"/>
  <polygon points="424.9,185.1 424.9,187.1 443.3,187.1 443.3,185.1 424.9,185.1"/>
  <polygon points="447.9,185.0 447.9,187.0 466.4,187.0 466.4,185.0 447.9,185.0"/>
  <polygon points="471.0,184.9 471.0,187.0 489.5,187.0 489.5,184.9 471.0,184.9"/>
  <polygon points="494.1,184.8 494.1,186.9 512.6,186.9 512.6,184.8 494.1,184.8"/>
  <polygon points="517.2,184.8 517.2,186.9 535.6,186.9 535.6,184.8 517.2,184.8"/>
  <polygon points="540.2,184.4 540.2,186.7 558.7,186.7 558.7,184.4 540.2,184.4"/>
  <polygon points="563.3,183.0 563.3,185.3 581.8,185.3 581.8,183.0 563.3,183.0"/>
  <polygon points="586.4,183.9 586.4,186.3 604.9,186.3 604.9,183.9 586.4,183.9"/>
  <polygon points="609.5,183.8 609.5,186.1 627.9,186.1 627.9,183.8 609.5,183.8"/>
  <polygon points="632.6,184.2 632.6,186.5 651.0,186.5 651.0,184.2 632.6,184.2"/>
  <polygon points="655.6,184.2 655.6,186.5 674.1,186.5 674.1,184.2 655.6,184.2"/>
  <polygon points="678.7,184.4 678.7,186.7 697.2,186.7 697.2,184.4 678.7,184.4"/>
  <polygon points="701.8,192.1 701.8,193.8 720.3,193.8 720.3,192.1 701.8,192.1"/>
  <polygon points="724.9,192.2 724.9,193.8 743.3,193.8 743.3,192.2 724.9,192.2"/>
  <polygon points="748.0,192.5 748.0,194.0 766.4,194.0 766.4,192.5 748.0,192.5"/>
  <polygon points="771.0,121.7 771.0,124.5 789.5,124.5 789.5,121.7 771.0,121.7"/>
  <polygon points="794.1,186.6 794.1,189.3 812.6,189.3 812.6,186.6 794.1,186.6"/>
  <polygon points="817.2,186.3 817.2,189.0 835.7,189.0 835.7,186.3 817.2,186.3"/>
  <polygon points="840.3,198.1 840.3,200.4 858.7,200.4 858.7,198.1 840.3,198.1"/>
  <polygon points="863.4,197.6 863.4,200.1 881.8,200.1 881.8,197.6 863.4,197.6"/>
  <polygon points="886.4,198.0 886.4,200.4 904.9,200.4 904.9,198.0 886.4,198.0"/>
</g>
<g stroke="#000" stroke-width="0.90" fill="#EDB120"  clip-path="url(#axis_clip)">
  <polygon points="147.9,188.0 147.9,188.1 166.4,188.1 166.4,188.0 147.9,188.0"/>
  <polygon points="171.0,187.8 171.0,188.0 189.4,188.0 189.4,187.8 171.0,187.8"/>
  <polygon points="194.1,187.8 194.1,187.9 212.5,187.9 212.5,187.8 194.1,187.8"/>
  <polygon points="217.1,187.7 217.1,187.8 235.6,187.8 235.6,187.7 217.1,187.7"/>
  <polygon points="240.2,187.5 240.2,187.7 258.7,187.7 258.7,187.5 240.2,187.5"/>
  <polygon points="263.3,187.5 263.3,187.7 281.8,187.7 281.8,187.5 263.3,187.5"/>
  <polygon points="286.4,187.4 286.4,187.6 304.8,187.6 304.8,187.4 286.4,187.4"/>
  <polygon points="309.5,187.4 309.5,187.5 327.9,187.5 327.9,187.4 309.5,187.4"/>
  <polygon points="332.5,187.0 332.5,187.2 351.0,187.2 351.0,187.0 332.5,187.0"/>
  <polygon points="355.6,187.0 355.6,187.1 374.1,187.1 374.1,187.0 355.6,187.0"/>
  <polygon points="378.7,187.2 378.7,187.3 397.2,187.3 397.2,187.2 378.7,187.2"/>
  <polygon points="401.8,187.2 401.8,187.3 420.2,187.3 420.2,187.2 401.8,187.2"/>
  <polygon points="424.9,187.1 424.9,187.2 443.3,187.2 443.3,187.1 424.9,187.1"/>
  <polygon points="447.9,187.0 447.9,187.1 466.4,187.1 466.4,187.0 447.9,187.0"/>
  <polygon points="471.0,187.0 471.0,187.1 489.5,187.1 489.5,187.0 471.0,187.0"/>
  <polygon points="494.1,186.9 494.1,187.0 512.6,187.0 512.6,186.9 494.1,186.9"/>
  <polygon points="517.2,186.9 517.2,187.1 535.6,187.1 535.6,186.9 517.2,186.9"/>
  <polygon points="540.2,186.7 540.2,186.8 558.7,186.8 558.7,186.7 540.2,186.7"/>
  <polygon points="563.3,185.3 563.3,185.4 581.8,185.4 581.8,185.3 563.3,185.3"/>
  <polygon points="586.4,186.3 586.4,186.4 604.9,186.4 604.9,186.3 586.4,186.3"/>
  <polygon points="609.5,186.1 609.5,186.2 627.9,186.2 627.9,186.1 609.5,186.1"/>
  <polygon points="632.6,186.5 632.6,186.7 651.0,186.7 651.0,186.5 632.6,186.5"/>
  <polygon points="655.6,186.5 655.6,186.7 674.1,186.7 674.1,186.5 655.6,186.5"/>
  <polygon points="678.7,186.7 678.7,186.8 697.2,186.8 697.2,186.7 678.7,186.7"/>
  <polygon points="701.8,193.8 701.8,193.8 720.3,193.8 720.3,193.8 701.8,193.8"/>
  <polygon points="724.9,193.8 724.9,193.8 743.3,193.8 743.3,193.8 724.9,193.8"/>
  <polygon points="748.0,194.0 748.0,194.1 766.4,194.1 766.4,194.0 748.0,194.0"/>
  <polygon points="771.0,124.5 771.0,124.5 789.5,124.5 789.5,124.5 771.0,124.5"/>
  <polygon points="794.1,189.3 794.1,189.4 812.6,189.4 812.6,189.3 794.1,189.3"/>
  <polygon points="817.2,189.0 817.2,189.1 835.7,189.1 835.7,189.0 817.2,189.0"/>
  <polygon points="840.3,200.4 840.3,200.5 858.7,200.5 858.7,200.4 840.3,200.4"/>
  <polygon points="863.4,200.1 863.4,200.2 881.8,200.2 881.8,200.1 863.4,200.1"/>
  <polygon points="886.4,200.4 886.4,200.5 904.9,200.5 904.9,200.4 886.4,200.4"/>
</g>
<g stroke="#000" stroke-width="0.90" fill="#D95319"  clip-path="url(#axis_clip)">
  <polygon points="147.9,188.1 147.9,205.1 166.4,205.1 166.4,188.1 147.9,188.1"/>
  <polygon points="171.0,188.0 171.0,204.9 189.4,204.9 189.4,188.0 171.0,188.0"/>
  <polygon points="194.1,187.9 194.1,204.7 212.5,204.7 212.5,187.9 194.1,187.9"/>
  <polygon points="217.1,187.8 217.1,204.5 235.6,204.5 235.6,187.8 217.1,187.8"/>
  <polygon points="240.2,187.7 240.2,204.3 258.7,204.3 258.7,187.7 240.2,187.7"/>
  <polygon points="263.3,187.7 263.3,204.1 281.8,204.1 281.8,187.7 263.3,187.7"/>
  <polygon points="286.4,187.6 286.4,203.9 304.8,203.9 304.8,187.6 286.4,187.6"/>
  <polygon points="309.5,187.5 309.5,203.7 327.9,203.7 327.9,187.5 309.5,187.5"/>
  <polygon points="332.5,187.2 332.5,203.3 351.0,203.3 351.0,187.2 332.5,187.2"/>
  <polygon points="355.6,187.1 355.6,203.2 374.1,203.2 374.1,187.1 355.6,187.1"/>
  <polygon points="378.7,187.3 378.7,203.1 397.2,203.1 397.2,187.3 378.7,187.3"/>
  <polygon points="401.8,187.3 401.8,203.0 420.2,203.0 420.2,187.3 401.8,187.3"/>
  <polygon points="424.9,187.2 424.9,202.8 443.3,202.8 443.3,187.2 424.9,187.2"/>
  <polygon points="447.9,187.1 447.9,202.6 466.4,202.6 466.4,187.1 447.9,187.1"/>
  <polygon points="471.0,187.1 471.0,202.5 489.5,202.5 489.5,187.1 471.0,187.1"/>
  <polygon points="494.1,187.0 494.1,202.3 512.6,202.3 512.6,187.0 494.1,187.0"/>
  <polygon points="517.2,187.1 517.2,202.2 535.6,202.2 535.6,187.1 517.2,187.1"/>
  <polygon points="540.2,186.8 540.2,201.8 558.7,201.8 558.7,186.8 540.2,186.8"/>
  <polygon points="563.3,185.4 563.3,201.0 581.8,201.0 581.8,185.4 563.3,185.4"/>
  <polygon points="586.4,186.4 586.4,201.2 604.9,201.2 604.9,186.4 586.4,186.4"/>
  <polygon points="609.5,186.2 609.5,201.1 627.9,201.1 627.9,186.2 609.5,186.2"/>
  <polygon points="632.6,186.7 632.6,201.5 651.0,201.5 651.0,186.7 632.6,186.7"/>
  <polygon points="655.6,186.7 655.6,201.5 674.1,201.5 674.1,186.7 655.6,186.7"/>
  <polygon points="678.7,186.8 678.7,201.6 697.2,201.6 697.2,186.8 678.7,186.8"/>
  <polygon points="701.8,193.8 701.8,202.5 720.3,202.5 720.3,193.8 701.8,193.8"/>
  <polygon points="724.9,193.8 724.9,202.5 743.3,202.5 743.3,193.8 724.9,193.8"/>
  <polygon points="748.0,194.1 748.0,202.7 766.4,202.7 766.4,194.1 748.0,194.1"/>
  <polygon points="771.0,124.5 771.0,156.5 789.5,156.5 789.5,124.5 771.0,124.5"/>
  <polygon points="794.1,189.4 794.1,202.0 812.6,202.0 812.6,189.4 794.1,189.4"/>
  <polygon points="817.2,189.1 817.2,201.9 835.7,201.9 835.7,189.1 817.2,189.1"/>
  <polygon points="840.3,200.5 840.3,202.7 858.7,202.7 858.7,200.5 840.3,200.5"/>
  <polygon points="863.4,200.2 863.4,202.5 881.8,202.5 881.8,200.2 863.4,200.2"/>
  <polygon points="886.4,200.5 886.4,203.1 904.9,203.1 904.9,200.5 886.4,200.5"/>
</g>
<g stroke="#000" stroke-width="0.90" fill="#5AA3D0"  clip-path="url(#axis_clip)">
  <polygon points="147.9,205.1 147.9,206.3 166.4,206.3 166.4,205.1 147.9,205.1"/>
  <polygon points="171.0,204.9 171.0,206.3 189.4,206.3 189.4,204.9 171.0,204.9"/>
  <polygon points="194.1,204.7 194.1,206.3 212.5,206.3 212.5,204.7 194.1,204.7"/>
  <polygon points="217.1,204.5 217.1,206.3 235.6,206.3 235.6,204.5 217.1,204.5"/>
  <polygon points="240.2,204.3 240.2,206.3 258.7,206.3 258.7,204.3 240.2,204.3"/>
  <polygon points="263.3,204.1 263.3,206.3 281.8,206.3 281.8,204.1 263.3,204.1"/>
  <polygon points="286.4,203.9 286.4,206.3 304.8,206.3 304.8,203.9 286.4,203.9"/>
  <polygon points="309.5,203.7 309.5,206.3 327.9,206.3 327.9,203.7 309.5,203.7"/>
  <polygon points="332.5,203.3 332.5,206.3 351.0,206.3 351.0,203.3 332.5,203.3"/>
  <polygon points="355.6,203.2 355.6,206.3 374.1,206.3 374.1,203.2 355.6,203.2"/>
  <polygon points="378.7,203.1 378.7,206.3 397.2,206.3 397.2,203.1 378.7,203.1"/>
  <polygon points="401.8,203.0 401.8,206.3 420.2,206.3 420.2,203.0 401.8,203.0"/>
  <polygon points="424.9,202.8 424.9,206.3 443.3,206.3 443.3,202.8 424.9,202.8"/>
  <polygon points="447.9,202.6 447.9,206.3 466.4,206.3 466.4,202.6 447.9,202.6"/>
  <polygon points="471.0,202.5 471.0,206.3 489.5,206.3 489.5,202.5 471.0,202.5"/>
  <polygon points="494.1,202.3 494.1,206.3 512.6,206.3 512.6,202.3 494.1,202.3"/>
  <polygon points="517.2,202.2 517.2,206.3 535.6,206.3 535.6,202.2 517.2,202.2"/>
  <polygon points="540.2,201.8 540.2,206.3 558.7,206.3 558.7,201.8 540.2,201.8"/>
  <polygon points="563.3,201.0 563.3,206.3 581.8,206.3 581.8,201.0 563.3,201.0"/>
  <polygon points="586.4,201.2 586.4,206.3 604.9,206.3 604.9,201.2 586.4,201.2"/>
  <polygon points="609.5,201.1 609.5,206.3 627.9,206.3 627.9,201.1 609.5,201.1"/>
  <polygon points="632.6,201.5 632.6,206.3 651.0,206.3 651.0,201.5 632.6,201.5"/>
  <polygon points="655.6,201.5 655.6,206.3 674.1,206.3 674.1,201.5 655.6,201.5"/>
  <polygon points="678.7,201.6 678.7,206.3 697.2,206.3 697.2,201.6 678.7,201.6"/>
  <polygon points="701.8,202.5 701.8,206.3 720.3,206.3 720.3,202.5 701.8,202.5"/>
  <polygon points="724.9,202.5 724.9,206.3 743.3,206.3 743.3,202.5 724.9,202.5"/>
  <polygon points="748.0,202.7 748.0,206.3 766.4,206.3 766.4,202.7 748.0,202.7"/>
  <polygon points="771.0,156.5 771.0,161.1 789.5,161.1 789.5,156.5 771.0,156.5"/>
  <polygon points="794.1,202.0 794.1,206.3 812.6,206.3 812.6,202.0 794.1,202.0"/>
  <polygon points="817.2,201.9 817.2,206.3 835.7,206.3 835.7,201.9 817.2,201.9"/>
  <polygon points="840.3,202.7 840.3,206.3 858.7,206.3 858.7,202.7 840.3,202.7"/>
  <polygon points="863.4,202.5 863.4,206.3 881.8,206.3 881.8,202.5 863.4,202.5"/>
  <polygon points="886.4,203.1 886.4,206.3 904.9,206.3 904.9,203.1 886.4,203.1"/>
</g>
<g stroke="#000" stroke-width="0.90" fill="#6AB561"  clip-path="url(#axis_clip)">
  <polygon points="771.0,161.1 771.0,206.3 789.5,206.3 789.5,161.1 771.0,161.1"/>
</g>
<g stroke="#000" stroke-width="0.90" fill="#1A4D1A"  clip-path="url(#axis_clip)">
</g>
<g stroke="#000" stroke-width="0.90" fill="#8B1E40"  clip-path="url(#axis_clip)">
  <polygon points="147.9,541.6 147.9,530.5 166.4,530.5 166.4,541.6 147.9,541.6"/>
  <polygon points="171.0,520.3 171.0,510.6 189.4,510.6 189.4,520.3 171.0,520.3"/>
  <polygon points="194.1,521.2 194.1,512.0 212.5,512.0 212.5,521.2 194.1,521.2"/>
  <polygon points="217.1,518.8 217.1,509.0 235.6,509.0 235.6,518.8 217.1,518.8"/>
  <polygon points="240.2,515.9 240.2,504.6 258.7,504.6 258.7,515.9 240.2,515.9"/>
  <polygon points="263.3,509.6 263.3,496.1 281.8,496.1 281.8,509.6 263.3,509.6"/>
  <polygon points="286.4,504.2 286.4,490.2 304.8,490.2 304.8,504.2 286.4,504.2"/>
  <polygon points="309.5,514.0 309.5,497.9 327.9,497.9 327.9,514.0 309.5,514.0"/>
  <polygon points="332.5,441.8 332.5,428.2 351.0,428.2 351.0,441.8 332.5,441.8"/>
  <polygon points="355.6,492.1 355.6,474.8 374.1,474.8 374.1,492.1 355.6,492.1"/>
  <polygon points="378.7,523.3 378.7,504.6 397.2,504.6 397.2,523.3 378.7,523.3"/>
  <polygon points="401.8,523.9 401.8,504.8 420.2,504.8 420.2,523.9 401.8,523.9"/>
  <polygon points="424.9,468.8 424.9,447.0 443.3,447.0 443.3,468.8 424.9,468.8"/>
  <polygon points="447.9,516.5 447.9,492.8 466.4,492.8 466.4,516.5 447.9,516.5"/>
  <polygon points="471.0,493.2 471.0,466.4 489.5,466.4 489.5,493.2 471.0,493.2"/>
  <polygon points="494.1,487.3 494.1,459.7 512.6,459.7 512.6,487.3 494.1,487.3"/>
  <polygon points="517.2,495.6 517.2,466.4 535.6,466.4 535.6,495.6 517.2,495.6"/>
  <polygon points="540.2,449.0 540.2,421.7 558.7,421.7 558.7,449.0 540.2,449.0"/>
  <polygon points="563.3,438.0 563.3,412.8 581.8,412.8 581.8,438.0 563.3,438.0"/>
  <polygon points="586.4,449.7 586.4,431.2 604.9,431.2 604.9,449.7 586.4,449.7"/>
  <polygon points="609.5,476.8 609.5,455.4 627.9,455.4 627.9,476.8 609.5,476.8"/>
  <polygon points="632.6,475.0 632.6,451.8 651.0,451.8 651.0,475.0 632.6,475.0"/>
  <polygon points="655.6,450.7 655.6,429.1 674.1,429.1 674.1,450.7 655.6,450.7"/>
  <polygon points="678.7,474.7 678.7,452.2 697.2,452.2 697.2,474.7 678.7,474.7"/>
  <polygon points="701.8,451.9 701.8,428.0 720.3,428.0 720.3,451.9 701.8,451.9"/>
  <polygon points="724.9,406.4 724.9,380.3 743.3,380.3 743.3,406.4 724.9,406.4"/>
  <polygon points="748.0,462.6 748.0,436.9 766.4,436.9 766.4,462.6 748.0,462.6"/>
  <polygon points="771.0,230.4 771.0,206.3 789.5,206.3 789.5,230.4 771.0,230.4"/>
  <polygon points="794.1,427.2 794.1,401.5 812.6,401.5 812.6,427.2 794.1,427.2"/>
  <polygon points="817.2,416.4 817.2,392.8 835.7,392.8 835.7,416.4 817.2,416.4"/>
  <polygon points="840.3,422.5 840.3,400.1 858.7,400.1 858.7,422.5 840.3,422.5"/>
  <polygon points="863.4,452.7 863.4,427.2 881.8,427.2 881.8,452.7 863.4,452.7"/>
  <polygon points="886.4,430.6 886.4,409.0 904.9,409.0 904.9,430.6 886.4,430.6"/>
</g>
<g stroke="#000" stroke-width="0.90" fill="#7B417F"  clip-path="url(#axis_clip)">
</g>
<g stroke="#000" stroke-width="0.90" fill="#6AB561"  clip-path="url(#axis_clip)">
  <polygon points="147.9,530.5 147.9,206.3 166.4,206.3 166.4,530.5 147.9,530.5"/>
  <polygon points="171.0,510.6 171.0,206.3 189.4,206.3 189.4,510.6 171.0,510.6"/>
  <polygon points="194.1,512.0 194.1,206.3 212.5,206.3 212.5,512.0 194.1,512.0"/>
  <polygon points="217.1,509.0 217.1,206.3 235.6,206.3 235.6,509.0 217.1,509.0"/>
  <polygon points="240.2,504.6 240.2,206.3 258.7,206.3 258.7,504.6 240.2,504.6"/>
  <polygon points="263.3,496.1 263.3,206.3 281.8,206.3 281.8,496.1 263.3,496.1"/>
  <polygon points="286.4,490.2 286.4,206.3 304.8,206.3 304.8,490.2 286.4,490.2"/>
  <polygon points="309.5,497.9 309.5,206.3 327.9,206.3 327.9,497.9 309.5,497.9"/>
  <polygon points="332.5,428.2 332.5,206.3 351.0,206.3 351.0,428.2 332.5,428.2"/>
  <polygon points="355.6,474.8 355.6,206.3 374.1,206.3 374.1,474.8 355.6,474.8"/>
  <polygon points="378.7,504.6 378.7,206.3 397.2,206.3 397.2,504.6 378.7,504.6"/>
  <polygon points="401.8,504.8 401.8,206.3 420.2,206.3 420.2,504.8 401.8,504.8"/>
  <polygon points="424.9,447.0 424.9,206.3 443.3,206.3 443.3,447.0 424.9,447.0"/>
  <polygon points="447.9,492.8 447.9,206.3 466.4,206.3 466.4,492.8 447.9,492.8"/>
  <polygon points="471.0,466.4 471.0,206.3 489.5,206.3 489.5,466.4 471.0,466.4"/>
  <polygon points="494.1,459.7 494.1,206.3 512.6,206.3 512.6,459.7 494.1,459.7"/>
  <polygon points="517.2,466.4 517.2,206.3 535.6,206.3 535.6,466.4 517.2,466.4"/>
  <polygon points="540.2,421.7 540.2,206.3 558.7,206.3 558.7,421.7 540.2,421.7"/>
  <polygon points="563.3,412.8 563.3,206.3 581.8,206.3 581.8,412.8 563.3,412.8"/>
  <polygon points="586.4,431.2 586.4,206.3 604.9,206.3 604.9,431.2 586.4,431.2"/>
  <polygon points="609.5,455.4 609.5,206.3 627.9,206.3 627.9,455.4 609.5,455.4"/>
  <polygon points="632.6,451.8 632.6,206.3 651.0,206.3 651.0,451.8 632.6,451.8"/>
  <polygon points="655.6,429.1 655.6,206.3 674.1,206.3 674.1,429.1 655.6,429.1"/>
  <polygon points="678.7,452.2 678.7,206.3 697.2,206.3 697.2,452.2 678.7,452.2"/>
  <polygon points="701.8,428.0 701.8,206.3 720.3,206.3 720.3,428.0 701.8,428.0"/>
  <polygon points="724.9,380.3 724.9,206.3 743.3,206.3 743.3,380.3 724.9,380.3"/>
  <polygon points="748.0,436.9 748.0,206.3 766.4,206.3 766.4,436.9 748.0,436.9"/>
  <polygon points="794.1,401.5 794.1,206.3 812.6,206.3 812.6,401.5 794.1,401.5"/>
  <polygon points="817.2,392.8 817.2,206.3 835.7,206.3 835.7,392.8 817.2,392.8"/>
  <polygon points="840.3,400.1 840.3,206.3 858.7,206.3 858.7,400.1 840.3,400.1"/>
  <polygon points="863.4,427.2 863.4,206.3 881.8,206.3 881.8,427.2 863.4,427.2"/>
  <polygon points="886.4,409.0 886.4,206.3 904.9,206.3 904.9,409.0 886.4,409.0"/>
</g>
<polyline class="pl" points="157.1,522.0 180.2,500.5 203.3,501.3 226.4,498.7 249.5,495.6 272.5,489.2 295.6,483.7 318.7,493.4 341.8,420.8 364.8,470.9 387.9,502.2 411.0,502.8 434.1,447.6 457.2,495.2 480.2,471.7 503.3,465.7 526.4,474.0 549.5,427.1 572.6,414.7 595.6,427.3 618.7,454.2 641.8,452.9 664.9,428.5 688.0,452.7 711.0,437.7 734.1,392.2 757.2,448.8 780.3,145.8 803.3,407.4 826.4,396.4 849.5,414.2 872.6,444.0 895.7,422.2" stroke="#000" stroke-width="5.40" stroke-opacity="1.00" fill="none" clip-path="url(#axis_clip)"/>
<g class="pl" fill="#FFF" stroke="#000" stroke-width="0.900">
  <circle cx="180.2" cy="500.5" r="2.2" />
  <circle cx="203.3" cy="501.3" r="2.2" />
  <circle cx="226.4" cy="498.7" r="2.2" />
  <circle cx="249.5" cy="495.6" r="2.2" />
  <circle cx="272.5" cy="489.2" r="2.2" />
  <circle cx="295.6" cy="483.7" r="2.2" />
  <circle cx="318.7" cy="493.4" r="2.2" />
  <circle cx="341.8" cy="420.8" r="2.2" />
  <circle cx="364.8" cy="470.9" r="2.2" />
  <circle cx="411.0" cy="502.8" r="2.2" />
  <circle cx="434.1" cy="447.6" r="2.2" />
  <circle cx="457.2" cy="495.2" r="2.2" />
  <circle cx="480.2" cy="471.7" r="2.2" />
  <circle cx="503.3" cy="465.7" r="2.2" />
  <circle cx="526.4" cy="474.0" r="2.2" />
  <circle cx="549.5" cy="427.1" r="2.2" />
  <circle cx="572.6" cy="414.7" r="2.2" />
  <circle cx="595.6" cy="427.3" r="2.2" />
  <circle cx="641.8" cy="452.9" r="2.2" />
  <circle cx="664.9" cy="428.5" r="2.2" />
  <circle cx="688.0" cy="452.7" r="2.2" />
  <circle cx="711.0" cy="437.7" r="2.2" />
  <circle cx="734.1" cy="392.2" r="2.2" />
  <circle cx="757.2" cy="448.8" r="2.2" />
  <circle cx="780.3" cy="145.8" r="2.2" />
  <circle cx="803.3" cy="407.4" r="2.2" />
  <circle cx="826.4" cy="396.4" r="2.2" />
  <circle cx="872.6" cy="444.0" r="2.2" />
  <circle cx="895.7" cy="422.2" r="2.2" />
</g>
<g class="pl" fill="#FFF" stroke="#000" stroke-width="0.900">
  <circle cx="157.1" cy="522.0" r="5.4" />
  <circle cx="387.9" cy="502.2" r="5.4" />
  <circle cx="618.7" cy="454.2" r="5.4" />
  <circle cx="849.5" cy="414.2" r="5.4" />
</g>
<text transform="translate(145.6,47.2)" dy="0.0" font-size="27.00" fill="#808080" stroke="none">Annual LULUCF emissions: Chile</text>
<text transform="translate(130.0,81.6)" dy="8.1" font-size="27.00" fill="#808080" stroke="none" text-anchor="end">CO<tspan dy="0.2em"><tspan style="font-size:70%">2</tspan></tspan><tspan dy="-0.2em">e</tspan></text>
<text transform="translate(945.6,252.1)" dy="6.5" font-size="21.60" fill="#5AA3D0" stroke="none">Cropland</text>
<text transform="translate(945.6,231.4)" dy="6.5" font-size="21.60" fill="#D95319" stroke="none">Grassland</text>
<text transform="translate(945.6,210.7)" dy="6.5" font-size="21.60" fill="#EDB120" stroke="none">Wetlands</text>
<text transform="translate(945.6,190.0)" dy="6.5" font-size="21.60" fill="#808080" stroke="none">Settlements</text>
<text transform="translate(945.6,169.3)" dy="6.5" font-size="21.60" fill="#7B417F" stroke="none">Other land</text>
<text transform="translate(945.6,148.5)" dy="6.5" font-size="21.60" fill="#1A4D1A" stroke="none">Other</text>
<text transform="translate(945.6,307.7)" dy="6.5" font-size="21.60" fill="#6AB561" stroke="none">Forest land</text>
<text transform="translate(945.6,419.8)" dy="6.5" font-size="21.60" fill="#8B1E40" stroke="none">HWP</text>
<polyline class="pl" points="910.8,204.7 912.4,204.9 913.8,205.3 915.2,206.1 916.4,207.2 917.6,208.4 918.8,209.9 919.8,211.7 920.8,213.5 921.7,215.6 922.7,217.7 923.5,220.0 924.4,222.3 925.2,224.8 926.0,227.2 926.8,229.6 927.6,232.1 928.4,234.5 929.3,236.8 930.1,239.1 931.1,241.3 932.0,243.3 933.0,245.2 934.0,246.9 935.2,248.4 936.4,249.7 937.6,250.7 939.0,251.5 940.4,252.0 942.0,252.1" stroke="#5AA3D0" stroke-width="0.90" stroke-opacity="1.00" fill="none" />
<polyline class="pl" points="910.8,201.8 912.4,201.9 913.8,202.2 915.2,202.7 916.4,203.3 917.6,204.1 918.8,205.1 919.8,206.1 920.8,207.3 921.7,208.6 922.7,209.9 923.5,211.3 924.4,212.8 925.2,214.3 926.0,215.8 926.8,217.4 927.6,218.9 928.4,220.4 929.3,221.9 930.1,223.3 931.1,224.6 932.0,225.9 933.0,227.1 934.0,228.1 935.2,229.1 936.4,229.9 937.6,230.5 939.0,231.0 940.4,231.3 942.0,231.4" stroke="#D95319" stroke-width="0.90" stroke-opacity="1.00" fill="none" />
<polyline class="pl" points="910.8,200.5 912.4,200.5 913.8,200.6 915.2,200.8 916.4,201.0 917.6,201.3 918.8,201.6 919.8,202.0 920.8,202.4 921.7,202.8 922.7,203.3 923.5,203.8 924.4,204.3 925.2,204.8 926.0,205.3 926.8,205.8 927.6,206.4 928.4,206.9 929.3,207.4 930.1,207.9 931.1,208.4 932.0,208.8 933.0,209.2 934.0,209.6 935.2,209.9 936.4,210.2 937.6,210.4 939.0,210.6 940.4,210.7 942.0,210.7" stroke="#EDB120" stroke-width="0.90" stroke-opacity="1.00" fill="none" />
<polyline class="pl" points="910.8,199.2 912.4,199.2 913.8,199.1 915.2,198.9 916.4,198.7 917.6,198.5 918.8,198.2 919.8,197.8 920.8,197.5 921.7,197.1 922.7,196.7 923.5,196.2 924.4,195.8 925.2,195.3 926.0,194.8 926.8,194.3 927.6,193.9 928.4,193.4 929.3,192.9 930.1,192.5 931.1,192.1 932.0,191.7 933.0,191.3 934.0,191.0 935.2,190.7 936.4,190.5 937.6,190.3 939.0,190.1 940.4,190.0 942.0,190.0" stroke="#808080" stroke-width="0.90" stroke-opacity="1.00" fill="none" />
<polyline class="pl" points="910.8,198.0 912.4,197.9 913.8,197.6 915.2,197.1 916.4,196.5 917.6,195.7 918.8,194.8 919.8,193.7 920.8,192.6 921.7,191.4 922.7,190.1 923.5,188.7 924.4,187.3 925.2,185.8 926.0,184.3 926.8,182.9 927.6,181.4 928.4,179.9 929.3,178.5 930.1,177.1 931.1,175.8 932.0,174.6 933.0,173.5 934.0,172.4 935.2,171.5 936.4,170.7 937.6,170.1 939.0,169.6 940.4,169.4 942.0,169.3" stroke="#7B417F" stroke-width="0.90" stroke-opacity="1.00" fill="none" />
<polyline class="pl" points="910.8,198.0 912.4,197.8 913.8,197.3 915.2,196.5 916.4,195.4 917.6,194.1 918.8,192.5 919.8,190.7 920.8,188.7 921.7,186.6 922.7,184.4 923.5,182.0 924.4,179.6 925.2,177.1 926.0,174.5 926.8,172.0 927.6,169.4 928.4,166.9 929.3,164.5 930.1,162.1 931.1,159.9 932.0,157.7 933.0,155.8 934.0,154.0 935.2,152.4 936.4,151.1 937.6,150.0 939.0,149.2 940.4,148.7 942.0,148.5" stroke="#1A4D1A" stroke-width="0.90" stroke-opacity="1.00" fill="none" />
<text transform="translate(160.0,666.1)" font-size="19.80" font-family="Helvetica" fill="#BFBFBF" stroke="none" xml:space="preserve">CICERO   &#9679;   Data: UNFCCC (2024)   &#9679;   HWP = Harvested Wood Products</text>
<g>
  <rect x="123.0" y="651.4" width="34" height="17" fill="#FFF" stroke="none" opacity="0.01"/>
  <g transform="translate(124.0,652.4) scale(0.24)">
  <g><circle fill="#FFF" cx="37.79" cy="28.5" r="28.84"/>
     <circle fill="none" cx="37.79" cy="28.5" r="28.84" stroke="#BFBFBF" stroke-width="5.5"/>
     <path fill="#BFBFBF" d="M37.16,23.19 l-4.29,2.23c-0.458-0.951-1.02-1.62-1.69-2c-0.667-0.38-1.29-0.571-1.86-0.571c-2.86,0-4.29,1.89-4.29,5.66 c0,1.71,0.36,3.08,1.09,4.11c0.724,1.03,1.79,1.54,3.2,1.54c1.87,0,3.18-0.915,3.94-2.74l3.94,2 c-0.838,1.56-2,2.79-3.49,3.69c-1.48,0.896-3.12,1.34-4.91,1.34c-2.86,0-5.16-0.875-6.92-2.63 c-1.75-1.75-2.63-4.19-2.63-7.31c0-3.05,0.886-5.47,2.66-7.26c1.77-1.79,4.01-2.69,6.72-2.69 C32.6,18.56,35.44,20.1,37.16,23.19z
              M55.61,23.19l-4.23,2.23c-0.457-0.951-1.02-1.62-1.69-2 c-0.668-0.38-1.31-0.571-1.91-0.571c-2.86,0-4.29,1.89-4.29,5.66c0,1.71,0.363,3.08,1.09,4.11 c0.723,1.03,1.79,1.54,3.2,1.54c1.87,0,3.18-0.915,3.94-2.74l4,2c-0.875,1.56-2.06,2.79-3.54,3.69 c-1.49,0.9-3.11,1.34-4.86,1.34c-2.9,0-5.21-0.875-6.94-2.63c-1.74-1.75-2.6-4.19-2.6-7.31 c0-3.05,0.885-5.47,2.66-7.26c1.77-1.79,4.01-2.69,6.71-2.69C51.12,18.56,53.944,20.1,55.61,23.19z"/>
  </g></g>
  <g transform="translate(140.2,652.4) scale(0.24)">
  <g><circle fill="#FFF" cx="37.79" cy="28.5" r="28.84"/>
     <circle fill="none" cx="37.79" cy="28.5" r="28.84" stroke="#BFBFBF" stroke-width="5.5"/>
     <path fill="#BFBFBF" d="M46.129,20.557v13.085h-3.656v15.542h-9.944V33.643h-3.656V20.557 c0-0.572,0.2-1.057,0.599-1.457c0.401-0.399,0.887-0.6,1.457-0.6h13.144c0.533,0,1.01,0.2,1.428,0.6 C45.918,19.5,46.129,19.986,46.129,20.557z
              M33.042,12.329c0-3.008,1.485-4.514,4.458-4.514s4.457,1.504,4.457,4.514 c0,2.971-1.486,4.457-4.457,4.457S33.042,15.3,33.042,12.329z"/>
  </g></g>
</g>
</g>
</svg>
