<svg version="1.1" xmlns="http://www.w3.org/2000/svg" xmlns:xlink="http://www.w3.org/1999/xlink" width="100%" height="100%" viewBox="0 0 1200.000 674.916">
<title>Annual Greenhouse Gas Emissions: Italy</title>
<style type="text/css">
  #main {font-family:Helvetica,Arial,sans-serif; font-size:27.00px;
         fill-opacity:1; fill:#000000; stroke:none; stroke-linejoin:round; stroke-linecap:round; stroke-width:1.00;}
  .marker {stroke-opacity:0;fill-opacity:0;}
  .marker:hover {stroke-opacity:0.5; fill-opacity:1;}
  .ticklabel {font-size:27.00px;fill:#808080;stroke:none;font-family:Helvetica}
  .ytl {text-anchor:end;}
  .dp1 {pointer-events:none;font-size:70%;text-anchor:middle;fill:#000000;}
  .dp2 {pointer-events:none;font-size:70%;text-anchor:middle;fill:#FFFFFF;}
  .numtip {pointer-events:none;}
  .cc {opacity:0.25;}
.dl_fe {background-color:#FDFFDF;display:flex;margin:auto;align-items:center}
.dl_fe_p {font-size:20px;text-align:center;margin:3px}
.dl_el {display:none;pointer-events:none;}
.cc:hover + .dl_el {display:block;}
text:hover + .dl_el {display:block;}
</style>
<defs>
  <clipPath id="axis_clip"><rect x="145.8" y="54.2" width="761.2" height="532.8" /></clipPath>
  <path id="line_y" d="M 0,53.993 v 533.183" stroke="#262626" stroke-opacity="0.15" stroke-width="1.00"/>
  <path id="line_x" d="M 145.600,0 h 761.600" stroke="#262626" stroke-opacity="0.15" stroke-width="1.00"/>
  <path id="tick_y" d="M 145.600,0 h -6.000" stroke="#808080" stroke-width="0.90"/>
  <path id="tick_x" d="M 0,587.177 v 6.000" stroke="#808080" stroke-width="0.90"/>
</defs>
<g id="main">
<use xlink:href="#line_y" transform="translate(156.5,0)"/>
<use xlink:href="#line_y" transform="translate(265.3,0)"/>
<use xlink:href="#line_y" transform="translate(374.1,0)"/>
<use xlink:href="#line_y" transform="translate(482.9,0)"/>
<use xlink:href="#line_y" transform="translate(591.7,0)"/>
<use xlink:href="#line_y" transform="translate(700.5,0)"/>
<use xlink:href="#line_y" transform="translate(809.3,0)"/>
<use xlink:href="#line_y" transform="translate(896.3,0)"/>
<use xlink:href="#line_x" transform="translate(0,587.2)"/>
<use xlink:href="#line_x" transform="translate(0,498.3)"/>
<use xlink:href="#line_x" transform="translate(0,409.4)"/>
<use xlink:href="#line_x" transform="translate(0,320.6)"/>
<use xlink:href="#line_x" transform="translate(0,231.7)"/>
<use xlink:href="#line_x" transform="translate(0,142.9)"/>
<use xlink:href="#line_x" transform="translate(0,54.0)"/>
<use xlink:href="#tick_y" transform="translate(0,587.2)"/>
<use xlink:href="#tick_y" transform="translate(0,498.3)"/>
<use xlink:href="#tick_y" transform="translate(0,409.4)"/>
<use xlink:href="#tick_y" transform="translate(0,320.6)"/>
<use xlink:href="#tick_y" transform="translate(0,231.7)"/>
<use xlink:href="#tick_y" transform="translate(0,142.9)"/>
<use xlink:href="#tick_y" transform="translate(0,54.0)"/>
<use xlink:href="#tick_x" transform="translate(156.5,0)"/>
<use xlink:href="#tick_x" transform="translate(265.3,0)"/>
<use xlink:href="#tick_x" transform="translate(374.1,0)"/>
<use xlink:href="#tick_x" transform="translate(482.9,0)"/>
<use xlink:href="#tick_x" transform="translate(591.7,0)"/>
<use xlink:href="#tick_x" transform="translate(700.5,0)"/>
<use xlink:href="#tick_x" transform="translate(809.3,0)"/>
<use xlink:href="#tick_x" transform="translate(896.3,0)"/>
<polyline points="145.6,53.993 145.6,587.177 907.2,587.177" stroke="#808080" stroke-width="0.90" fill="none"/>
<text class="ticklabel xtl" transform="translate(156.5,629.0)" text-anchor="middle">1990</text>
<text class="ticklabel xtl" transform="translate(265.3,629.0)" text-anchor="middle">1995</text>
<text class="ticklabel xtl" transform="translate(374.1,629.0)" text-anchor="middle">2000</text>
<text class="ticklabel xtl" transform="translate(482.9,629.0)" text-anchor="middle">2005</text>
<text class="ticklabel xtl" transform="translate(591.7,629.0)" text-anchor="middle">2010</text>
<text class="ticklabel xtl" transform="translate(700.5,629.0)" text-anchor="middle">2015</text>
<text class="ticklabel xtl" transform="translate(809.3,629.0)" text-anchor="middle">2020</text>
<text class="ticklabel xtl" transform="translate(896.3,629.0)" text-anchor="middle">2024</text>
<text class="ticklabel ytl" transform="translate(128.8,595.3)">-0.5</text>
<text class="ticklabel ytl" transform="translate(128.8,506.4)">0</text>
<text class="ticklabel ytl" transform="translate(128.8,417.5)">0.5</text>
<text class="ticklabel ytl" transform="translate(128.8,328.7)">1.0</text>
<text class="ticklabel ytl" transform="translate(128.8,239.8)">1.5</text>
<text class="ticklabel ytl" transform="translate(128.8,151.0)">2.0</text>
<text class="ticklabel ytl" transform="translate(128.8,62.1)">2.5 Gt</text>
<g stroke="#000" stroke-width="0.90" fill="#DBA746"  clip-path="url(#axis_clip)">
  <polygon class="pl" points="147.8,334.9 147.8,335.5 165.2,335.5 165.2,334.9 147.8,334.9"/>
  <polygon class="pl" points="169.5,252.6 169.5,253.2 186.9,253.2 186.9,252.6 169.5,252.6"/>
  <polygon class="pl" points="191.3,262.9 191.3,263.4 208.7,263.4 208.7,262.9 191.3,262.9"/>
  <polygon class="pl" points="213.1,324.8 213.1,325.2 230.5,325.2 230.5,324.8 213.1,324.8"/>
  <polygon class="pl" points="234.8,263.0 234.8,263.4 252.2,263.4 252.2,263.0 234.8,263.0"/>
  <polygon class="pl" points="256.6,226.6 256.6,227.2 274.0,227.2 274.0,226.6 256.6,226.6"/>
  <polygon class="pl" points="278.3,230.8 278.3,231.4 295.7,231.4 295.7,230.8 278.3,230.8"/>
  <polygon class="pl" points="300.1,269.5 300.1,270.1 317.5,270.1 317.5,269.5 300.1,269.5"/>
  <polygon class="pl" points="321.9,278.8 321.9,279.6 339.3,279.6 339.3,278.8 321.9,278.8"/>
  <polygon class="pl" points="343.6,233.4 343.6,234.2 361.0,234.2 361.0,233.4 343.6,233.4"/>
  <polygon class="pl" points="365.4,245.8 365.4,246.8 382.8,246.8 382.8,245.8 365.4,245.8"/>
  <polygon class="pl" points="387.1,196.6 387.1,197.9 404.5,197.9 404.5,196.6 387.1,196.6"/>
  <polygon class="pl" points="408.9,174.7 408.9,176.2 426.3,176.2 426.3,174.7 408.9,174.7"/>
  <polygon class="pl" points="430.7,208.5 430.7,210.2 448.1,210.2 448.1,208.5 430.7,208.5"/>
  <polygon class="pl" points="452.4,177.1 452.4,179.1 469.8,179.1 469.8,177.1 452.4,177.1"/>
  <polygon class="pl" points="474.2,171.3 474.2,173.5 491.6,173.5 491.6,171.3 474.2,171.3"/>
  <polygon class="pl" points="495.9,153.8 495.9,156.2 513.3,156.2 513.3,153.8 495.9,153.8"/>
  <polygon class="pl" points="517.7,251.3 517.7,253.7 535.1,253.7 535.1,251.3 517.7,251.3"/>
  <polygon class="pl" points="539.5,185.7 539.5,188.1 556.9,188.1 556.9,185.7 539.5,185.7"/>
  <polygon class="pl" points="561.2,187.4 561.2,189.9 578.6,189.9 578.6,187.4 561.2,187.4"/>
  <polygon class="pl" points="583.0,169.6 583.0,172.2 600.4,172.2 600.4,169.6 583.0,169.6"/>
  <polygon class="pl" points="604.7,205.4 604.7,208.1 622.1,208.1 622.1,205.4 604.7,205.4"/>
  <polygon class="pl" points="626.5,246.9 626.5,249.6 643.9,249.6 643.9,246.9 626.5,246.9"/>
  <polygon class="pl" points="648.3,191.1 648.3,193.9 665.7,193.9 665.7,191.1 648.3,191.1"/>
  <polygon class="pl" points="670.0,192.3 670.0,195.1 687.4,195.1 687.4,192.3 670.0,192.3"/>
  <polygon class="pl" points="691.8,182.5 691.8,185.0 709.2,185.0 709.2,182.5 691.8,182.5"/>
  <polygon class="pl" points="713.5,180.9 713.5,183.3 730.9,183.3 730.9,180.9 713.5,180.9"/>
  <polygon class="pl" points="735.3,248.2 735.3,250.5 752.7,250.5 752.7,248.2 735.3,248.2"/>
  <polygon class="pl" points="757.1,160.2 757.1,162.6 774.5,162.6 774.5,160.2 757.1,160.2"/>
  <polygon class="pl" points="778.8,169.2 778.8,171.4 796.2,171.4 796.2,169.2 778.8,169.2"/>
  <polygon class="pl" points="800.6,211.6 800.6,213.4 818.0,213.4 818.0,211.6 800.6,211.6"/>
  <polygon class="pl" points="822.3,200.7 822.3,202.4 839.7,202.4 839.7,200.7 822.3,200.7"/>
  <polygon class="pl" points="844.1,199.3 844.1,201.0 861.5,201.0 861.5,199.3 844.1,199.3"/>
  <polygon class="pl" points="865.9,141.7 865.9,143.2 883.3,143.2 883.3,141.7 865.9,141.7"/>
  <polygon class="pl" points="887.6,112.3 887.6,113.6 905.0,113.6 905.0,112.3 887.6,112.3"/>
</g>
<g stroke="#000" stroke-width="0.90" fill="#845F48"  clip-path="url(#axis_clip)">
  <polygon class="pl" points="147.8,335.5 147.8,339.5 165.2,339.5 165.2,335.5 147.8,335.5"/>
  <polygon class="pl" points="169.5,253.2 169.5,257.4 186.9,257.4 186.9,253.2 169.5,253.2"/>
  <polygon class="pl" points="191.3,263.4 191.3,267.5 208.7,267.5 208.7,263.4 191.3,263.4"/>
  <polygon class="pl" points="213.1,325.2 213.1,329.4 230.5,329.4 230.5,325.2 213.1,325.2"/>
  <polygon class="pl" points="234.8,263.4 234.8,267.5 252.2,267.5 252.2,263.4 234.8,263.4"/>
  <polygon class="pl" points="256.6,227.2 256.6,231.5 274.0,231.5 274.0,227.2 256.6,227.2"/>
  <polygon class="pl" points="278.3,231.4 278.3,235.7 295.7,235.7 295.7,231.4 278.3,231.4"/>
  <polygon class="pl" points="300.1,270.1 300.1,274.6 317.5,274.6 317.5,270.1 300.1,270.1"/>
  <polygon class="pl" points="321.9,279.6 321.9,284.1 339.3,284.1 339.3,279.6 321.9,279.6"/>
  <polygon class="pl" points="343.6,234.2 343.6,238.9 361.0,238.9 361.0,234.2 343.6,234.2"/>
  <polygon class="pl" points="365.4,246.8 365.4,251.3 382.8,251.3 382.8,246.8 365.4,246.8"/>
  <polygon class="pl" points="387.1,197.9 387.1,202.4 404.5,202.4 404.5,197.9 387.1,197.9"/>
  <polygon class="pl" points="408.9,176.2 408.9,180.6 426.3,180.6 426.3,176.2 408.9,176.2"/>
  <polygon class="pl" points="430.7,210.2 430.7,214.6 448.1,214.6 448.1,210.2 430.7,210.2"/>
  <polygon class="pl" points="452.4,179.1 452.4,183.6 469.8,183.6 469.8,179.1 452.4,179.1"/>
  <polygon class="pl" points="474.2,173.5 474.2,177.8 491.6,177.8 491.6,173.5 474.2,173.5"/>
  <polygon class="pl" points="495.9,156.2 495.9,159.7 513.3,159.7 513.3,156.2 495.9,156.2"/>
  <polygon class="pl" points="517.7,253.7 517.7,257.1 535.1,257.1 535.1,253.7 517.7,253.7"/>
  <polygon class="pl" points="539.5,188.1 539.5,191.3 556.9,191.3 556.9,188.1 539.5,188.1"/>
  <polygon class="pl" points="561.2,189.9 561.2,192.9 578.6,192.9 578.6,189.9 561.2,189.9"/>
  <polygon class="pl" points="583.0,172.2 583.0,175.2 600.4,175.2 600.4,172.2 583.0,172.2"/>
  <polygon class="pl" points="604.7,208.1 604.7,210.9 622.1,210.9 622.1,208.1 604.7,208.1"/>
  <polygon class="pl" points="626.5,249.6 626.5,252.5 643.9,252.5 643.9,249.6 626.5,249.6"/>
  <polygon class="pl" points="648.3,193.9 648.3,196.6 665.7,196.6 665.7,193.9 648.3,193.9"/>
  <polygon class="pl" points="670.0,195.1 670.0,197.8 687.4,197.8 687.4,195.1 670.0,195.1"/>
  <polygon class="pl" points="691.8,185.0 691.8,187.7 709.2,187.7 709.2,185.0 691.8,185.0"/>
  <polygon class="pl" points="713.5,183.3 713.5,186.1 730.9,186.1 730.9,183.3 713.5,183.3"/>
  <polygon class="pl" points="735.3,250.5 735.3,253.2 752.7,253.2 752.7,250.5 735.3,250.5"/>
  <polygon class="pl" points="757.1,162.6 757.1,165.2 774.5,165.2 774.5,162.6 757.1,162.6"/>
  <polygon class="pl" points="778.8,171.4 778.8,174.0 796.2,174.0 796.2,171.4 778.8,171.4"/>
  <polygon class="pl" points="800.6,213.4 800.6,216.1 818.0,216.1 818.0,213.4 800.6,213.4"/>
  <polygon class="pl" points="822.3,202.4 822.3,205.1 839.7,205.1 839.7,202.4 822.3,202.4"/>
  <polygon class="pl" points="844.1,201.0 844.1,203.4 861.5,203.4 861.5,201.0 844.1,201.0"/>
  <polygon class="pl" points="865.9,143.2 865.9,145.7 883.3,145.7 883.3,143.2 865.9,143.2"/>
  <polygon class="pl" points="887.6,113.6 887.6,116.0 905.0,116.0 905.0,113.6 887.6,113.6"/>
</g>
<g stroke="#000" stroke-width="0.90" fill="#4A89E8"  clip-path="url(#axis_clip)">
  <polygon class="pl" points="147.8,339.5 147.8,420.4 165.2,420.4 165.2,339.5 147.8,339.5"/>
  <polygon class="pl" points="169.5,257.4 169.5,420.5 186.9,420.5 186.9,257.4 169.5,257.4"/>
  <polygon class="pl" points="191.3,267.5 191.3,420.5 208.7,420.5 208.7,267.5 191.3,267.5"/>
  <polygon class="pl" points="213.1,329.4 213.1,421.8 230.5,421.8 230.5,329.4 213.1,329.4"/>
  <polygon class="pl" points="234.8,267.5 234.8,422.9 252.2,422.9 252.2,267.5 234.8,267.5"/>
  <polygon class="pl" points="256.6,231.5 256.6,418.6 274.0,418.6 274.0,231.5 256.6,231.5"/>
  <polygon class="pl" points="278.3,235.7 278.3,419.6 295.7,419.6 295.7,235.7 278.3,235.7"/>
  <polygon class="pl" points="300.1,274.6 300.1,418.6 317.5,418.6 317.5,274.6 300.1,274.6"/>
  <polygon class="pl" points="321.9,284.1 321.9,416.4 339.3,416.4 339.3,284.1 321.9,284.1"/>
  <polygon class="pl" points="343.6,238.9 343.6,415.6 361.0,415.6 361.0,238.9 343.6,238.9"/>
  <polygon class="pl" points="365.4,251.3 365.4,414.9 382.8,414.9 382.8,251.3 365.4,251.3"/>
  <polygon class="pl" points="387.1,202.4 387.1,414.8 404.5,414.8 404.5,202.4 387.1,202.4"/>
  <polygon class="pl" points="408.9,180.6 408.9,413.5 426.3,413.5 426.3,180.6 408.9,180.6"/>
  <polygon class="pl" points="430.7,214.6 430.7,410.3 448.1,410.3 448.1,214.6 430.7,214.6"/>
  <polygon class="pl" points="452.4,183.6 452.4,409.3 469.8,409.3 469.8,183.6 452.4,183.6"/>
  <polygon class="pl" points="474.2,177.8 474.2,409.2 491.6,409.2 491.6,177.8 474.2,177.8"/>
  <polygon class="pl" points="495.9,159.7 495.9,410.1 513.3,410.1 513.3,159.7 495.9,159.7"/>
  <polygon class="pl" points="517.7,257.1 517.7,411.3 535.1,411.3 535.1,257.1 517.7,257.1"/>
  <polygon class="pl" points="539.5,191.3 539.5,413.3 556.9,413.3 556.9,191.3 539.5,191.3"/>
  <polygon class="pl" points="561.2,192.9 561.2,423.0 578.6,423.0 578.6,192.9 561.2,192.9"/>
  <polygon class="pl" points="583.0,175.2 583.0,421.1 600.4,421.1 600.4,175.2 583.0,175.2"/>
  <polygon class="pl" points="604.7,210.9 604.7,423.1 622.1,423.1 622.1,210.9 604.7,210.9"/>
  <polygon class="pl" points="626.5,252.5 626.5,426.8 643.9,426.8 643.9,252.5 626.5,252.5"/>
  <polygon class="pl" points="648.3,196.6 648.3,432.8 665.7,432.8 665.7,196.6 648.3,196.6"/>
  <polygon class="pl" points="670.0,197.8 670.0,436.5 687.4,436.5 687.4,197.8 670.0,197.8"/>
  <polygon class="pl" points="691.8,187.7 691.8,434.4 709.2,434.4 709.2,187.7 691.8,187.7"/>
  <polygon class="pl" points="713.5,186.1 713.5,435.0 730.9,435.0 730.9,186.1 713.5,186.1"/>
  <polygon class="pl" points="735.3,253.2 735.3,436.0 752.7,436.0 752.7,253.2 735.3,253.2"/>
  <polygon class="pl" points="757.1,165.2 757.1,436.6 774.5,436.6 774.5,165.2 757.1,165.2"/>
  <polygon class="pl" points="778.8,174.0 778.8,438.3 796.2,438.3 796.2,174.0 778.8,174.0"/>
  <polygon class="pl" points="800.6,216.1 800.6,444.9 818.0,444.9 818.0,216.1 800.6,216.1"/>
  <polygon class="pl" points="822.3,205.1 822.3,438.9 839.7,438.9 839.7,205.1 822.3,205.1"/>
  <polygon class="pl" points="844.1,203.4 844.1,438.5 861.5,438.5 861.5,203.4 844.1,203.4"/>
  <polygon class="pl" points="865.9,145.7 865.9,443.3 883.3,443.3 883.3,145.7 865.9,145.7"/>
  <polygon class="pl" points="887.6,116.0 887.6,445.3 905.0,445.3 905.0,116.0 887.6,116.0"/>
</g>
<g stroke="#000" stroke-width="0.90" fill="#FF7F61"  clip-path="url(#axis_clip)">
  <polygon class="pl" points="147.8,420.4 147.8,498.3 165.2,498.3 165.2,420.4 147.8,420.4"/>
  <polygon class="pl" points="169.5,420.5 169.5,498.3 186.9,498.3 186.9,420.5 169.5,420.5"/>
  <polygon class="pl" points="191.3,420.5 191.3,498.3 208.7,498.3 208.7,420.5 191.3,420.5"/>
  <polygon class="pl" points="213.1,421.8 213.1,498.3 230.5,498.3 230.5,421.8 213.1,421.8"/>
  <polygon class="pl" points="234.8,422.9 234.8,498.3 252.2,498.3 252.2,422.9 234.8,422.9"/>
  <polygon class="pl" points="256.6,418.6 256.6,498.3 274.0,498.3 274.0,418.6 256.6,418.6"/>
  <polygon class="pl" points="278.3,419.6 278.3,498.3 295.7,498.3 295.7,419.6 278.3,419.6"/>
  <polygon class="pl" points="300.1,418.6 300.1,498.3 317.5,498.3 317.5,418.6 300.1,418.6"/>
  <polygon class="pl" points="321.9,416.4 321.9,498.3 339.3,498.3 339.3,416.4 321.9,416.4"/>
  <polygon class="pl" points="343.6,415.6 343.6,498.3 361.0,498.3 361.0,415.6 343.6,415.6"/>
  <polygon class="pl" points="365.4,414.9 365.4,498.3 382.8,498.3 382.8,414.9 365.4,414.9"/>
  <polygon class="pl" points="387.1,414.8 387.1,498.3 404.5,498.3 404.5,414.8 387.1,414.8"/>
  <polygon class="pl" points="408.9,413.5 408.9,498.3 426.3,498.3 426.3,413.5 408.9,413.5"/>
  <polygon class="pl" points="430.7,410.3 430.7,498.3 448.1,498.3 448.1,410.3 430.7,410.3"/>
  <polygon class="pl" points="452.4,409.3 452.4,498.3 469.8,498.3 469.8,409.3 452.4,409.3"/>
  <polygon class="pl" points="474.2,409.2 474.2,498.3 491.6,498.3 491.6,409.2 474.2,409.2"/>
  <polygon class="pl" points="495.9,410.1 495.9,498.3 513.3,498.3 513.3,410.1 495.9,410.1"/>
  <polygon class="pl" points="517.7,411.3 517.7,498.3 535.1,498.3 535.1,411.3 517.7,411.3"/>
  <polygon class="pl" points="539.5,413.3 539.5,498.3 556.9,498.3 556.9,413.3 539.5,413.3"/>
  <polygon class="pl" points="561.2,423.0 561.2,498.3 578.6,498.3 578.6,423.0 561.2,423.0"/>
  <polygon class="pl" points="583.0,421.1 583.0,498.3 600.4,498.3 600.4,421.1 583.0,421.1"/>
  <polygon class="pl" points="604.7,423.1 604.7,498.3 622.1,498.3 622.1,423.1 604.7,423.1"/>
  <polygon class="pl" points="626.5,426.8 626.5,498.3 643.9,498.3 643.9,426.8 626.5,426.8"/>
  <polygon class="pl" points="648.3,432.8 648.3,498.3 665.7,498.3 665.7,432.8 648.3,432.8"/>
  <polygon class="pl" points="670.0,436.5 670.0,498.3 687.4,498.3 687.4,436.5 670.0,436.5"/>
  <polygon class="pl" points="691.8,434.4 691.8,498.3 709.2,498.3 709.2,434.4 691.8,434.4"/>
  <polygon class="pl" points="713.5,435.0 713.5,498.3 730.9,498.3 730.9,435.0 713.5,435.0"/>
  <polygon class="pl" points="735.3,436.0 735.3,498.3 752.7,498.3 752.7,436.0 735.3,436.0"/>
  <polygon class="pl" points="757.1,436.6 757.1,498.3 774.5,498.3 774.5,436.6 757.1,436.6"/>
  <polygon class="pl" points="778.8,438.3 778.8,498.3 796.2,498.3 796.2,438.3 778.8,438.3"/>
  <polygon class="pl" points="800.6,444.9 800.6,498.3 818.0,498.3 818.0,444.9 800.6,444.9"/>
  <polygon class="pl" points="822.3,438.9 822.3,498.3 839.7,498.3 839.7,438.9 822.3,438.9"/>
  <polygon class="pl" points="844.1,438.5 844.1,498.3 861.5,498.3 861.5,438.5 844.1,438.5"/>
  <polygon class="pl" points="865.9,443.3 865.9,498.3 883.3,498.3 883.3,443.3 865.9,443.3"/>
  <polygon class="pl" points="887.6,445.3 887.6,498.3 905.0,498.3 905.0,445.3 887.6,445.3"/>
</g>
<g stroke="#000" stroke-width="0.90" fill="#7FBF7F"  clip-path="url(#axis_clip)">
  <polygon class="pl" points="147.8,500.6 147.8,498.3 165.2,498.3 165.2,500.6 147.8,500.6"/>
  <polygon class="pl" points="169.5,503.7 169.5,498.3 186.9,498.3 186.9,503.7 169.5,503.7"/>
  <polygon class="pl" points="191.3,503.3 191.3,498.3 208.7,498.3 208.7,503.3 191.3,503.3"/>
  <polygon class="pl" points="213.1,501.0 213.1,498.3 230.5,498.3 230.5,501.0 213.1,501.0"/>
  <polygon class="pl" points="234.8,503.3 234.8,498.3 252.2,498.3 252.2,503.3 234.8,503.3"/>
  <polygon class="pl" points="256.6,504.5 256.6,498.3 274.0,498.3 274.0,504.5 256.6,504.5"/>
  <polygon class="pl" points="278.3,504.4 278.3,498.3 295.7,498.3 295.7,504.4 278.3,504.4"/>
  <polygon class="pl" points="300.1,502.9 300.1,498.3 317.5,498.3 317.5,502.9 300.1,502.9"/>
  <polygon class="pl" points="321.9,502.5 321.9,498.3 339.3,498.3 339.3,502.5 321.9,502.5"/>
  <polygon class="pl" points="343.6,504.1 343.6,498.3 361.0,498.3 361.0,504.1 343.6,504.1"/>
  <polygon class="pl" points="365.4,503.6 365.4,498.3 382.8,498.3 382.8,503.6 365.4,503.6"/>
  <polygon class="pl" points="387.1,505.4 387.1,498.3 404.5,498.3 404.5,505.4 387.1,505.4"/>
  <polygon class="pl" points="408.9,506.2 408.9,498.3 426.3,498.3 426.3,506.2 408.9,506.2"/>
  <polygon class="pl" points="430.7,504.8 430.7,498.3 448.1,498.3 448.1,504.8 430.7,504.8"/>
  <polygon class="pl" points="452.4,505.9 452.4,498.3 469.8,498.3 469.8,505.9 452.4,505.9"/>
  <polygon class="pl" points="474.2,506.1 474.2,498.3 491.6,498.3 491.6,506.1 474.2,506.1"/>
  <polygon class="pl" points="495.9,506.8 495.9,498.3 513.3,498.3 513.3,506.8 495.9,506.8"/>
  <polygon class="pl" points="517.7,503.2 517.7,498.3 535.1,498.3 535.1,503.2 517.7,503.2"/>
  <polygon class="pl" points="539.5,505.8 539.5,498.3 556.9,498.3 556.9,505.8 539.5,505.8"/>
  <polygon class="pl" points="561.2,506.1 561.2,498.3 578.6,498.3 578.6,506.1 561.2,506.1"/>
  <polygon class="pl" points="583.0,506.7 583.0,498.3 600.4,498.3 600.4,506.7 583.0,506.7"/>
  <polygon class="pl" points="604.7,505.4 604.7,498.3 622.1,498.3 622.1,505.4 604.7,505.4"/>
  <polygon class="pl" points="626.5,504.0 626.5,498.3 643.9,498.3 643.9,504.0 626.5,504.0"/>
  <polygon class="pl" points="648.3,506.4 648.3,498.3 665.7,498.3 665.7,506.4 648.3,506.4"/>
  <polygon class="pl" points="670.0,506.5 670.0,498.3 687.4,498.3 687.4,506.5 670.0,506.5"/>
  <polygon class="pl" points="691.8,506.7 691.8,498.3 709.2,498.3 709.2,506.7 691.8,506.7"/>
  <polygon class="pl" points="713.5,506.8 713.5,498.3 730.9,498.3 730.9,506.8 713.5,506.8"/>
  <polygon class="pl" points="735.3,504.3 735.3,498.3 752.7,498.3 752.7,504.3 735.3,504.3"/>
  <polygon class="pl" points="757.1,507.6 757.1,498.3 774.5,498.3 774.5,507.6 757.1,507.6"/>
  <polygon class="pl" points="778.8,507.4 778.8,498.3 796.2,498.3 796.2,507.4 778.8,507.4"/>
  <polygon class="pl" points="800.6,506.1 800.6,498.3 818.0,498.3 818.0,506.1 800.6,506.1"/>
  <polygon class="pl" points="822.3,506.2 822.3,498.3 839.7,498.3 839.7,506.2 822.3,506.2"/>
  <polygon class="pl" points="844.1,506.3 844.1,498.3 861.5,498.3 861.5,506.3 844.1,506.3"/>
  <polygon class="pl" points="865.9,508.5 865.9,498.3 883.3,498.3 883.3,508.5 865.9,508.5"/>
  <polygon class="pl" points="887.6,509.7 887.6,498.3 905.0,498.3 905.0,509.7 887.6,509.7"/>
</g>
<polyline class="pl" points="156.5,337.2 178.2,258.0 200.0,267.9 221.8,327.5 243.5,268.0 265.3,232.8 287.0,236.9 308.8,274.1 330.6,283.0 352.3,239.2 374.1,251.1 395.8,203.7 417.6,182.6 439.4,215.0 461.1,184.7 482.9,179.2 504.6,162.4 526.4,256.2 548.2,193.1 569.9,195.2 591.7,178.0 613.4,212.6 635.2,252.5 657.0,199.2 678.7,200.5 700.5,191.0 722.2,189.4 744.0,254.2 765.8,169.6 787.5,178.3 809.3,219.4 831.0,208.6 852.8,207.3 874.6,151.9 896.3,123.7" stroke="#000" stroke-width="5.40" stroke-opacity="1.00" fill="none" clip-path="url(#axis_clip)"/>
<g class="pl" fill="#FFF" stroke="#000" stroke-width="0.900">
  <circle cx="178.2" cy="258.0" r="2.2" />
  <circle cx="200.0" cy="267.9" r="2.2" />
  <circle cx="221.8" cy="327.5" r="2.2" />
  <circle cx="243.5" cy="268.0" r="2.2" />
  <circle cx="265.3" cy="232.8" r="2.2" />
  <circle cx="287.0" cy="236.9" r="2.2" />
  <circle cx="308.8" cy="274.1" r="2.2" />
  <circle cx="330.6" cy="283.0" r="2.2" />
  <circle cx="352.3" cy="239.2" r="2.2" />
  <circle cx="395.8" cy="203.7" r="2.2" />
  <circle cx="417.6" cy="182.6" r="2.2" />
  <circle cx="439.4" cy="215.0" r="2.2" />
  <circle cx="461.1" cy="184.7" r="2.2" />
  <circle cx="482.9" cy="179.2" r="2.2" />
  <circle cx="504.6" cy="162.4" r="2.2" />
  <circle cx="526.4" cy="256.2" r="2.2" />
  <circle cx="548.2" cy="193.1" r="2.2" />
  <circle cx="569.9" cy="195.2" r="2.2" />
  <circle cx="613.4" cy="212.6" r="2.2" />
  <circle cx="635.2" cy="252.5" r="2.2" />
  <circle cx="657.0" cy="199.2" r="2.2" />
  <circle cx="678.7" cy="200.5" r="2.2" />
  <circle cx="700.5" cy="191.0" r="2.2" />
  <circle cx="722.2" cy="189.4" r="2.2" />
  <circle cx="744.0" cy="254.2" r="2.2" />
  <circle cx="765.8" cy="169.6" r="2.2" />
  <circle cx="787.5" cy="178.3" r="2.2" />
  <circle cx="831.0" cy="208.6" r="2.2" />
  <circle cx="852.8" cy="207.3" r="2.2" />
  <circle cx="874.6" cy="151.9" r="2.2" />
  <circle cx="896.3" cy="123.7" r="2.2" />
</g>
<g class="pl" fill="#FFF" stroke="#000" stroke-width="0.900">
  <circle cx="156.5" cy="337.2" r="5.4" />
  <circle cx="374.1" cy="251.1" r="5.4" />
  <circle cx="591.7" cy="178.0" r="5.4" />
  <circle cx="809.3" cy="219.4" r="5.4" />
</g>
<text transform="translate(145.6,47.2)" dy="0.0" font-size="27.00" fill="#808080" stroke="none">Annual Greenhouse Gas Emissions: Italy</text>
<text transform="translate(130.0,81.7)" dy="8.1" font-size="27.00" fill="#808080" stroke="none" text-anchor="end">CO<tspan dy="0.2em"><tspan style="font-size:70%">2</tspan></tspan><tspan dy="-0.2em">e</tspan></text>
<text transform="translate(945.6,141.6)" dy="7.6" font-size="25.20" fill="#000" stroke="none">+132.5% since 1990</text>
<text transform="translate(945.6,471.8)" dy="7.6" font-size="25.20" fill="#FF7F61" stroke="none">Fossil CO<tspan dy="0.2em"><tspan style="font-size:70%">2</tspan></tspan><tspan dy="-0.2em"></tspan></text>
<text transform="translate(945.6,280.7)" dy="7.6" font-size="25.20" fill="#4A89E8" stroke="none">CH<tspan dy="0.2em"><tspan style="font-size:70%">4</tspan></tspan><tspan dy="-0.2em"></tspan></text>
<text transform="translate(945.6,117.2)" dy="7.6" font-size="25.20" fill="#845F48" stroke="none">N<tspan dy="0.2em"><tspan style="font-size:70%">2</tspan></tspan><tspan dy="-0.2em">O</tspan></text>
<text transform="translate(945.6,92.7)" dy="7.6" font-size="25.20" fill="#DBA746" stroke="none">F-gas</text>
<text transform="translate(945.6,504.0)" dy="7.6" font-size="25.20" fill="#7FBF7F" stroke="none">LULUCF</text>
<polyline class="pl" points="910.8,123.7 912.4,123.7 913.8,123.9 915.2,124.2 916.4,124.6 917.6,125.1 918.8,125.7 919.8,126.3 920.8,127.0 921.7,127.8 922.7,128.6 923.5,129.5 924.4,130.4 925.2,131.3 926.0,132.2 926.8,133.1 927.6,134.1 928.4,135.0 929.3,135.9 930.1,136.7 931.1,137.5 932.0,138.3 933.0,139.0 934.0,139.7 935.2,140.2 936.4,140.7 937.6,141.1 939.0,141.4 940.4,141.6 942.0,141.6" stroke="#000" stroke-width="0.90" stroke-opacity="1.00" fill="none" />
<polyline class="pl" points="910.8,114.8 912.4,114.8 913.8,114.9 915.2,114.9 916.4,114.9 917.6,115.0 918.8,115.1 919.8,115.2 920.8,115.3 921.7,115.4 922.7,115.5 923.5,115.6 924.4,115.7 925.2,115.8 926.0,115.9 926.8,116.0 927.6,116.2 928.4,116.3 929.3,116.4 930.1,116.5 931.1,116.6 932.0,116.7 933.0,116.8 934.0,116.9 935.2,117.0 936.4,117.0 937.6,117.1 939.0,117.1 940.4,117.1 942.0,117.2" stroke="#845F48" stroke-width="0.90" stroke-opacity="1.00" fill="none" />
<polyline class="pl" points="910.8,112.9 912.4,112.9 913.8,112.7 915.2,112.3 916.4,111.9 917.6,111.3 918.8,110.7 919.8,110.0 920.8,109.2 921.7,108.3 922.7,107.4 923.5,106.4 924.4,105.4 925.2,104.4 926.0,103.3 926.8,102.3 927.6,101.2 928.4,100.2 929.3,99.2 930.1,98.2 931.1,97.3 932.0,96.4 933.0,95.6 934.0,94.9 935.2,94.3 936.4,93.7 937.6,93.3 939.0,92.9 940.4,92.7 942.0,92.7" stroke="#DBA746" stroke-width="0.90" stroke-opacity="1.00" fill="none" />
<text transform="translate(160.0,666.1)" font-size="19.80" font-family="Helvetica" fill="#BFBFBF" stroke="none" xml:space="preserve">CICERO   &#9679;   Data: EEA (2026)   &#9679;   Preliminary data</text>
<g>
  <rect x="123.0" y="651.4" width="34" height="17" fill="#FFF" stroke="none" opacity="0.01"/>
  <g transform="translate(124.0,652.4) scale(0.24)">
  <g><circle fill="#FFF" cx="37.79" cy="28.5" r="28.84"/>
     <circle fill="none" cx="37.79" cy="28.5" r="28.84" stroke="#BFBFBF" stroke-width="5.5"/>
     <path fill="#BFBFBF" d="M37.16,23.19 l-4.29,2.23c-0.458-0.951-1.02-1.62-1.69-2c-0.667-0.38-1.29-0.571-1.86-0.571c-2.86,0-4.29,1.89-4.29,5.66 c0,1.71,0.36,3.08,1.09,4.11c0.724,1.03,1.79,1.54,3.2,1.54c1.87,0,3.18-0.915,3.94-2.74l3.94,2 c-0.838,1.56-2,2.79-3.49,3.69c-1.48,0.896-3.12,1.34-4.91,1.34c-2.86,0-5.16-0.875-6.92-2.63 c-1.75-1.75-2.63-4.19-2.63-7.31c0-3.05,0.886-5.47,2.66-7.26c1.77-1.79,4.01-2.69,6.72-2.69 C32.6,18.56,35.44,20.1,37.16,23.19z
              M55.61,23.19l-4.23,2.23c-0.457-0.951-1.02-1.62-1.69-2 c-0.668-0.38-1.31-0.571-1.91-0.571c-2.86,0-4.29,1.89-4.29,5.66c0,1.71,0.363,3.08,1.09,4.11 c0.723,1.03,1.79,1.54,3.2,1.54c1.87,0,3.18-0.915,3.94-2.74l4,2c-0.875,1.56-2.06,2.79-3.54,3.69 c-1.49,0.9-3.11,1.34-4.86,1.34c-2.9,0-5.21-0.875-6.94-2.63c-1.74-1.75-2.6-4.19-2.6-7.31 c0-3.05,0.885-5.47,2.66-7.26c1.77-1.79,4.01-2.69,6.71-2.69C51.12,18.56,53.944,20.1,55.61,23.19z"/>
  </g></g>
  <g transform="translate(140.2,652.4) scale(0.24)">
  <g><circle fill="#FFF" cx="37.79" cy="28.5" r="28.84"/>
     <circle fill="none" cx="37.79" cy="28.5" r="28.84" stroke="#BFBFBF" stroke-width="5.5"/>
     <path fill="#BFBFBF" d="M46.129,20.557v13.085h-3.656v15.542h-9.944V33.643h-3.656V20.557 c0-0.572,0.2-1.057,0.599-1.457c0.401-0.399,0.887-0.6,1.457-0.6h13.144c0.533,0,1.01,0.2,1.428,0.6 C45.918,19.5,46.129,19.986,46.129,20.557z
              M33.042,12.329c0-3.008,1.485-4.514,4.458-4.514s4.457,1.504,4.457,4.514 c0,2.971-1.486,4.457-4.457,4.457S33.042,15.3,33.042,12.329z"/>
  </g></g>
</g>
</g>
</svg>
