<svg version="1.1" xmlns="http://www.w3.org/2000/svg" xmlns:xlink="http://www.w3.org/1999/xlink" width="100%" height="100%" viewBox="0 0 1200.000 674.916">
<title>Annual Greenhouse Gas Emissions: Egypt</title>
<style type="text/css">
  #main {font-family:Helvetica,Arial,sans-serif; font-size:27.00px;
         fill-opacity:1; fill:#000000; stroke:none; stroke-linejoin:round; stroke-linecap:round; stroke-width:1.00;}
  .marker {stroke-opacity:0;fill-opacity:0;}
  .marker:hover {stroke-opacity:0.5; fill-opacity:1;}
  .ticklabel {font-size:27.00px;fill:#808080;stroke:none;font-family:Helvetica}
  .ytl {text-anchor:end;}
  .dp1 {pointer-events:none;font-size:70%;text-anchor:middle;fill:#000000;}
  .dp2 {pointer-events:none;font-size:70%;text-anchor:middle;fill:#FFFFFF;}
  .numtip {pointer-events:none;}
  .cc {opacity:0.25;}
.dl_fe {background-color:#FDFFDF;display:flex;margin:auto;align-items:center}
.dl_fe_p {font-size:20px;text-align:center;margin:3px}
.dl_el {display:none;pointer-events:none;}
.cc:hover + .dl_el {display:block;}
text:hover + .dl_el {display:block;}
</style>
<defs>
  <clipPath id="axis_clip"><rect x="145.8" y="54.2" width="761.2" height="532.8" /></clipPath>
  <path id="line_y" d="M 0,53.993 v 533.183" stroke="#262626" stroke-opacity="0.15" stroke-width="1.00"/>
  <path id="line_x" d="M 145.600,0 h 761.600" stroke="#262626" stroke-opacity="0.15" stroke-width="1.00"/>
  <path id="tick_y" d="M 145.600,0 h -6.000" stroke="#808080" stroke-width="0.90"/>
  <path id="tick_x" d="M 0,587.177 v 6.000" stroke="#808080" stroke-width="0.90"/>
</defs>
<g id="main">
<use xlink:href="#line_y" transform="translate(157.1,0)"/>
<use xlink:href="#line_y" transform="translate(272.5,0)"/>
<use xlink:href="#line_y" transform="translate(387.9,0)"/>
<use xlink:href="#line_y" transform="translate(503.3,0)"/>
<use xlink:href="#line_y" transform="translate(618.7,0)"/>
<use xlink:href="#line_y" transform="translate(734.1,0)"/>
<use xlink:href="#line_y" transform="translate(895.7,0)"/>
<use xlink:href="#line_x" transform="translate(0,587.2)"/>
<use xlink:href="#line_x" transform="translate(0,480.5)"/>
<use xlink:href="#line_x" transform="translate(0,373.9)"/>
<use xlink:href="#line_x" transform="translate(0,267.3)"/>
<use xlink:href="#line_x" transform="translate(0,160.6)"/>
<use xlink:href="#line_x" transform="translate(0,54.0)"/>
<use xlink:href="#tick_y" transform="translate(0,587.2)"/>
<use xlink:href="#tick_y" transform="translate(0,480.5)"/>
<use xlink:href="#tick_y" transform="translate(0,373.9)"/>
<use xlink:href="#tick_y" transform="translate(0,267.3)"/>
<use xlink:href="#tick_y" transform="translate(0,160.6)"/>
<use xlink:href="#tick_y" transform="translate(0,54.0)"/>
<use xlink:href="#tick_x" transform="translate(157.1,0)"/>
<use xlink:href="#tick_x" transform="translate(272.5,0)"/>
<use xlink:href="#tick_x" transform="translate(387.9,0)"/>
<use xlink:href="#tick_x" transform="translate(503.3,0)"/>
<use xlink:href="#tick_x" transform="translate(618.7,0)"/>
<use xlink:href="#tick_x" transform="translate(734.1,0)"/>
<use xlink:href="#tick_x" transform="translate(895.7,0)"/>
<polyline points="145.6,53.993 145.6,587.177 907.2,587.177" stroke="#808080" stroke-width="0.90" fill="none"/>
<text class="ticklabel xtl" transform="translate(157.1,629.0)" text-anchor="middle">1990</text>
<text class="ticklabel xtl" transform="translate(272.5,629.0)" text-anchor="middle">1995</text>
<text class="ticklabel xtl" transform="translate(387.9,629.0)" text-anchor="middle">2000</text>
<text class="ticklabel xtl" transform="translate(503.3,629.0)" text-anchor="middle">2005</text>
<text class="ticklabel xtl" transform="translate(618.7,629.0)" text-anchor="middle">2010</text>
<text class="ticklabel xtl" transform="translate(734.1,629.0)" text-anchor="middle">2015</text>
<text class="ticklabel xtl" transform="translate(895.7,629.0)" text-anchor="middle">2022</text>
<text class="ticklabel ytl" transform="translate(128.8,595.3)">0</text>
<text class="ticklabel ytl" transform="translate(128.8,488.6)">20</text>
<text class="ticklabel ytl" transform="translate(128.8,382.0)">40</text>
<text class="ticklabel ytl" transform="translate(128.8,275.4)">60</text>
<text class="ticklabel ytl" transform="translate(128.8,168.7)">80</text>
<text class="ticklabel ytl" transform="translate(128.8,62.1)">100 Mt</text>
<g stroke="#000" stroke-width="0.90" fill="#DBA746"  clip-path="url(#axis_clip)">
  <polygon points="147.9,298.4 147.9,313.1 166.4,313.1 166.4,298.4 147.9,298.4"/>
  <polygon points="171.0,294.5 171.0,309.7 189.4,309.7 189.4,294.5 171.0,294.5"/>
  <polygon points="194.1,290.0 194.1,305.9 212.5,305.9 212.5,290.0 194.1,290.0"/>
  <polygon points="217.1,285.1 217.1,301.5 235.6,301.5 235.6,285.1 217.1,285.1"/>
  <polygon points="240.2,280.6 240.2,297.0 258.7,297.0 258.7,280.6 240.2,280.6"/>
  <polygon points="263.3,275.5 263.3,293.1 281.8,293.1 281.8,275.5 263.3,275.5"/>
  <polygon points="286.4,270.8 286.4,289.0 304.8,289.0 304.8,270.8 286.4,270.8"/>
  <polygon points="309.5,266.1 309.5,284.9 327.9,284.9 327.9,266.1 309.5,266.1"/>
  <polygon points="332.5,261.2 332.5,280.7 351.0,280.7 351.0,261.2 332.5,261.2"/>
  <polygon points="355.6,259.2 355.6,279.3 374.1,279.3 374.1,259.2 355.6,259.2"/>
  <polygon points="378.7,255.0 378.7,275.8 397.2,275.8 397.2,255.0 378.7,255.0"/>
  <polygon points="401.8,248.6 401.8,269.8 420.2,269.8 420.2,248.6 401.8,248.6"/>
  <polygon points="424.9,241.5 424.9,263.2 443.3,263.2 443.3,241.5 424.9,241.5"/>
  <polygon points="447.9,235.8 447.9,257.9 466.4,257.9 466.4,235.8 447.9,235.8"/>
  <polygon points="471.0,228.5 471.0,251.1 489.5,251.1 489.5,228.5 471.0,228.5"/>
  <polygon points="494.1,192.3 494.1,215.4 512.6,215.4 512.6,192.3 494.1,192.3"/>
  <polygon points="517.2,183.1 517.2,207.0 535.6,207.0 535.6,183.1 517.2,183.1"/>
  <polygon points="540.2,168.4 540.2,192.3 558.7,192.3 558.7,168.4 540.2,168.4"/>
  <polygon points="563.3,158.7 563.3,183.1 581.8,183.1 581.8,158.7 563.3,158.7"/>
  <polygon points="586.4,173.1 586.4,198.4 604.9,198.4 604.9,173.1 586.4,173.1"/>
  <polygon points="609.5,158.3 609.5,188.1 627.9,188.1 627.9,158.3 609.5,158.3"/>
  <polygon points="632.6,146.3 632.6,174.9 651.0,174.9 651.0,146.3 632.6,146.3"/>
  <polygon points="655.6,143.8 655.6,168.9 674.1,168.9 674.1,143.8 655.6,143.8"/>
  <polygon points="678.7,144.9 678.7,170.8 697.2,170.8 697.2,144.9 678.7,144.9"/>
  <polygon points="701.8,139.6 701.8,165.6 720.3,165.6 720.3,139.6 701.8,139.6"/>
  <polygon points="724.9,130.1 724.9,158.7 743.3,158.7 743.3,130.1 724.9,130.1"/>
  <polygon points="748.0,105.6 748.0,141.6 766.4,141.6 766.4,105.6 748.0,105.6"/>
  <polygon points="771.0,98.7 771.0,134.7 789.5,134.7 789.5,98.7 771.0,98.7"/>
  <polygon points="794.1,98.8 794.1,141.6 812.6,141.6 812.6,98.8 794.1,98.8"/>
  <polygon points="817.2,138.2 817.2,185.4 835.7,185.4 835.7,138.2 817.2,138.2"/>
  <polygon points="840.3,127.6 840.3,177.0 858.7,177.0 858.7,127.6 840.3,127.6"/>
  <polygon points="863.4,109.2 863.4,160.8 881.8,160.8 881.8,109.2 863.4,109.2"/>
  <polygon points="886.4,90.8 886.4,153.2 904.9,153.2 904.9,90.8 886.4,90.8"/>
</g>
<g stroke="#000" stroke-width="0.90" fill="#845F48"  clip-path="url(#axis_clip)">
  <polygon points="147.9,313.1 147.9,410.5 166.4,410.5 166.4,313.1 147.9,313.1"/>
  <polygon points="171.0,309.7 171.0,407.0 189.4,407.0 189.4,309.7 171.0,309.7"/>
  <polygon points="194.1,305.9 194.1,403.1 212.5,403.1 212.5,305.9 194.1,305.9"/>
  <polygon points="217.1,301.5 217.1,398.7 235.6,398.7 235.6,301.5 217.1,301.5"/>
  <polygon points="240.2,297.0 240.2,394.2 258.7,394.2 258.7,297.0 240.2,297.0"/>
  <polygon points="263.3,293.1 263.3,390.3 281.8,390.3 281.8,293.1 263.3,293.1"/>
  <polygon points="286.4,289.0 286.4,386.2 304.8,386.2 304.8,289.0 286.4,289.0"/>
  <polygon points="309.5,284.9 309.5,382.1 327.9,382.1 327.9,284.9 309.5,284.9"/>
  <polygon points="332.5,280.7 332.5,378.0 351.0,378.0 351.0,280.7 332.5,280.7"/>
  <polygon points="355.6,279.3 355.6,376.1 374.1,376.1 374.1,279.3 355.6,279.3"/>
  <polygon points="378.7,275.8 378.7,372.2 397.2,372.2 397.2,275.8 378.7,275.8"/>
  <polygon points="401.8,269.8 401.8,366.4 420.2,366.4 420.2,269.8 401.8,269.8"/>
  <polygon points="424.9,263.2 424.9,360.2 443.3,360.2 443.3,263.2 424.9,263.2"/>
  <polygon points="447.9,257.9 447.9,354.9 466.4,354.9 466.4,257.9 447.9,257.9"/>
  <polygon points="471.0,251.1 471.0,349.4 489.5,349.4 489.5,251.1 471.0,251.1"/>
  <polygon points="494.1,215.4 494.1,328.3 512.6,328.3 512.6,215.4 494.1,215.4"/>
  <polygon points="517.2,207.0 517.2,319.4 535.6,319.4 535.6,207.0 517.2,207.0"/>
  <polygon points="540.2,192.3 540.2,303.8 558.7,303.8 558.7,192.3 540.2,192.3"/>
  <polygon points="563.3,183.1 563.3,296.3 581.8,296.3 581.8,183.1 563.3,183.1"/>
  <polygon points="586.4,198.4 586.4,312.8 604.9,312.8 604.9,198.4 586.4,198.4"/>
  <polygon points="609.5,188.1 609.5,304.6 627.9,304.6 627.9,188.1 609.5,188.1"/>
  <polygon points="632.6,174.9 632.6,295.4 651.0,295.4 651.0,174.9 632.6,174.9"/>
  <polygon points="655.6,168.9 655.6,286.1 674.1,286.1 674.1,168.9 655.6,168.9"/>
  <polygon points="678.7,170.8 678.7,288.4 697.2,288.4 697.2,170.8 678.7,170.8"/>
  <polygon points="701.8,165.6 701.8,285.8 720.3,285.8 720.3,165.6 701.8,165.6"/>
  <polygon points="724.9,158.7 724.9,284.7 743.3,284.7 743.3,158.7 724.9,158.7"/>
  <polygon points="748.0,141.6 748.0,265.3 766.4,265.3 766.4,141.6 748.0,141.6"/>
  <polygon points="771.0,134.7 771.0,259.2 789.5,259.2 789.5,134.7 771.0,134.7"/>
  <polygon points="794.1,141.6 794.1,272.6 812.6,272.6 812.6,141.6 794.1,141.6"/>
  <polygon points="817.2,185.4 817.2,310.9 835.7,310.9 835.7,185.4 817.2,185.4"/>
  <polygon points="840.3,177.0 840.3,316.4 858.7,316.4 858.7,177.0 840.3,177.0"/>
  <polygon points="863.4,160.8 863.4,316.1 881.8,316.1 881.8,160.8 863.4,160.8"/>
  <polygon points="886.4,153.2 886.4,304.6 904.9,304.6 904.9,153.2 886.4,153.2"/>
</g>
<g stroke="#000" stroke-width="0.90" fill="#4A89E8"  clip-path="url(#axis_clip)">
  <polygon points="147.9,410.5 147.9,587.2 166.4,587.2 166.4,410.5 147.9,410.5"/>
  <polygon points="171.0,407.0 171.0,587.2 189.4,587.2 189.4,407.0 171.0,407.0"/>
  <polygon points="194.1,403.1 194.1,587.2 212.5,587.2 212.5,403.1 194.1,403.1"/>
  <polygon points="217.1,398.7 217.1,587.2 235.6,587.2 235.6,398.7 217.1,398.7"/>
  <polygon points="240.2,394.2 240.2,587.2 258.7,587.2 258.7,394.2 240.2,394.2"/>
  <polygon points="263.3,390.3 263.3,587.2 281.8,587.2 281.8,390.3 263.3,390.3"/>
  <polygon points="286.4,386.2 286.4,587.2 304.8,587.2 304.8,386.2 286.4,386.2"/>
  <polygon points="309.5,382.1 309.5,587.2 327.9,587.2 327.9,382.1 309.5,382.1"/>
  <polygon points="332.5,378.0 332.5,587.2 351.0,587.2 351.0,378.0 332.5,378.0"/>
  <polygon points="355.6,376.1 355.6,587.2 374.1,587.2 374.1,376.1 355.6,376.1"/>
  <polygon points="378.7,372.2 378.7,587.2 397.2,587.2 397.2,372.2 378.7,372.2"/>
  <polygon points="401.8,366.4 401.8,587.2 420.2,587.2 420.2,366.4 401.8,366.4"/>
  <polygon points="424.9,360.2 424.9,587.2 443.3,587.2 443.3,360.2 424.9,360.2"/>
  <polygon points="447.9,354.9 447.9,587.2 466.4,587.2 466.4,354.9 447.9,354.9"/>
  <polygon points="471.0,349.4 471.0,587.2 489.5,587.2 489.5,349.4 471.0,349.4"/>
  <polygon points="494.1,328.3 494.1,587.2 512.6,587.2 512.6,328.3 494.1,328.3"/>
  <polygon points="517.2,319.4 517.2,587.2 535.6,587.2 535.6,319.4 517.2,319.4"/>
  <polygon points="540.2,303.8 540.2,587.2 558.7,587.2 558.7,303.8 540.2,303.8"/>
  <polygon points="563.3,296.3 563.3,587.2 581.8,587.2 581.8,296.3 563.3,296.3"/>
  <polygon points="586.4,312.8 586.4,587.2 604.9,587.2 604.9,312.8 586.4,312.8"/>
  <polygon points="609.5,304.6 609.5,587.2 627.9,587.2 627.9,304.6 609.5,304.6"/>
  <polygon points="632.6,295.4 632.6,587.2 651.0,587.2 651.0,295.4 632.6,295.4"/>
  <polygon points="655.6,286.1 655.6,587.2 674.1,587.2 674.1,286.1 655.6,286.1"/>
  <polygon points="678.7,288.4 678.7,587.2 697.2,587.2 697.2,288.4 678.7,288.4"/>
  <polygon points="701.8,285.8 701.8,587.2 720.3,587.2 720.3,285.8 701.8,285.8"/>
  <polygon points="724.9,284.7 724.9,587.2 743.3,587.2 743.3,284.7 724.9,284.7"/>
  <polygon points="748.0,265.3 748.0,587.2 766.4,587.2 766.4,265.3 748.0,265.3"/>
  <polygon points="771.0,259.2 771.0,587.2 789.5,587.2 789.5,259.2 771.0,259.2"/>
  <polygon points="794.1,272.6 794.1,587.2 812.6,587.2 812.6,272.6 794.1,272.6"/>
  <polygon points="817.2,310.9 817.2,587.2 835.7,587.2 835.7,310.9 817.2,310.9"/>
  <polygon points="840.3,316.4 840.3,587.2 858.7,587.2 858.7,316.4 840.3,316.4"/>
  <polygon points="863.4,316.1 863.4,587.2 881.8,587.2 881.8,316.1 863.4,316.1"/>
  <polygon points="886.4,304.6 886.4,587.2 904.9,587.2 904.9,304.6 886.4,304.6"/>
</g>
<polyline class="pl" points="157.1,298.4 180.2,294.5 203.3,290.0 226.4,285.1 249.5,280.6 272.5,275.5 295.6,270.8 318.7,266.1 341.8,261.2 364.8,259.2 387.9,255.0 411.0,248.6 434.1,241.5 457.2,235.8 480.2,228.5 503.3,192.3 526.4,183.1 549.5,168.4 572.6,158.7 595.6,173.1 618.7,158.3 641.8,146.3 664.9,143.8 688.0,144.9 711.0,139.6 734.1,130.1 757.2,105.6 780.3,98.7 803.3,98.8 826.4,138.2 849.5,127.6 872.6,109.2 895.7,90.8" stroke="#000" stroke-width="5.40" stroke-opacity="1.00" fill="none" clip-path="url(#axis_clip)"/>
<g class="pl" fill="#FFF" stroke="#000" stroke-width="0.900">
  <circle cx="180.2" cy="294.5" r="2.2" />
  <circle cx="203.3" cy="290.0" r="2.2" />
  <circle cx="226.4" cy="285.1" r="2.2" />
  <circle cx="249.5" cy="280.6" r="2.2" />
  <circle cx="272.5" cy="275.5" r="2.2" />
  <circle cx="295.6" cy="270.8" r="2.2" />
  <circle cx="318.7" cy="266.1" r="2.2" />
  <circle cx="341.8" cy="261.2" r="2.2" />
  <circle cx="364.8" cy="259.2" r="2.2" />
  <circle cx="411.0" cy="248.6" r="2.2" />
  <circle cx="434.1" cy="241.5" r="2.2" />
  <circle cx="457.2" cy="235.8" r="2.2" />
  <circle cx="480.2" cy="228.5" r="2.2" />
  <circle cx="503.3" cy="192.3" r="2.2" />
  <circle cx="526.4" cy="183.1" r="2.2" />
  <circle cx="549.5" cy="168.4" r="2.2" />
  <circle cx="572.6" cy="158.7" r="2.2" />
  <circle cx="595.6" cy="173.1" r="2.2" />
  <circle cx="641.8" cy="146.3" r="2.2" />
  <circle cx="664.9" cy="143.8" r="2.2" />
  <circle cx="688.0" cy="144.9" r="2.2" />
  <circle cx="711.0" cy="139.6" r="2.2" />
  <circle cx="734.1" cy="130.1" r="2.2" />
  <circle cx="757.2" cy="105.6" r="2.2" />
  <circle cx="780.3" cy="98.7" r="2.2" />
  <circle cx="803.3" cy="98.8" r="2.2" />
  <circle cx="826.4" cy="138.2" r="2.2" />
  <circle cx="872.6" cy="109.2" r="2.2" />
  <circle cx="895.7" cy="90.8" r="2.2" />
</g>
<g class="pl" fill="#FFF" stroke="#000" stroke-width="0.900">
  <circle cx="157.1" cy="298.4" r="5.4" />
  <circle cx="387.9" cy="255.0" r="5.4" />
  <circle cx="618.7" cy="158.3" r="5.4" />
  <circle cx="849.5" cy="127.6" r="5.4" />
</g>
<text transform="translate(145.6,47.2)" dy="0.0" font-size="27.00" fill="#808080" stroke="none">Annual Greenhouse Gas Emissions: Egypt</text>
<text transform="translate(130.0,81.6)" dy="8.1" font-size="27.00" fill="#808080" stroke="none" text-anchor="end">CO<tspan dy="0.2em"><tspan style="font-size:70%">2</tspan></tspan><tspan dy="-0.2em">e</tspan></text>
<text transform="translate(925.2,90.8)" dy="7.6" font-size="25.20" fill="#000" stroke="none">+71.9% since 1990</text>
<text transform="translate(925.2,445.9)" dy="7.6" font-size="25.20" fill="#4A89E8" stroke="none">CH<tspan dy="0.2em"><tspan style="font-size:70%">4</tspan></tspan><tspan dy="-0.2em"></tspan></text>
<text transform="translate(925.2,228.9)" dy="7.6" font-size="25.20" fill="#845F48" stroke="none">N<tspan dy="0.2em"><tspan style="font-size:70%">2</tspan></tspan><tspan dy="-0.2em">O</tspan></text>
<text transform="translate(925.2,122.0)" dy="7.6" font-size="25.20" fill="#DBA746" stroke="none">F-gas</text>
<text transform="translate(160.0,666.1)" font-size="19.80" font-family="Helvetica" fill="#BFBFBF" stroke="none" xml:space="preserve">CICERO   &#9679;   Data: UNFCCC (2024)</text>
<g>
  <rect x="123.0" y="651.4" width="34" height="17" fill="#FFF" stroke="none" opacity="0.01"/>
  <g transform="translate(124.0,652.4) scale(0.24)">
  <g><circle fill="#FFF" cx="37.79" cy="28.5" r="28.84"/>
     <circle fill="none" cx="37.79" cy="28.5" r="28.84" stroke="#BFBFBF" stroke-width="5.5"/>
     <path fill="#BFBFBF" d="M37.16,23.19 l-4.29,2.23c-0.458-0.951-1.02-1.62-1.69-2c-0.667-0.38-1.29-0.571-1.86-0.571c-2.86,0-4.29,1.89-4.29,5.66 c0,1.71,0.36,3.08,1.09,4.11c0.724,1.03,1.79,1.54,3.2,1.54c1.87,0,3.18-0.915,3.94-2.74l3.94,2 c-0.838,1.56-2,2.79-3.49,3.69c-1.48,0.896-3.12,1.34-4.91,1.34c-2.86,0-5.16-0.875-6.92-2.63 c-1.75-1.75-2.63-4.19-2.63-7.31c0-3.05,0.886-5.47,2.66-7.26c1.77-1.79,4.01-2.69,6.72-2.69 C32.6,18.56,35.44,20.1,37.16,23.19z
              M55.61,23.19l-4.23,2.23c-0.457-0.951-1.02-1.62-1.69-2 c-0.668-0.38-1.31-0.571-1.91-0.571c-2.86,0-4.29,1.89-4.29,5.66c0,1.71,0.363,3.08,1.09,4.11 c0.723,1.03,1.79,1.54,3.2,1.54c1.87,0,3.18-0.915,3.94-2.74l4,2c-0.875,1.56-2.06,2.79-3.54,3.69 c-1.49,0.9-3.11,1.34-4.86,1.34c-2.9,0-5.21-0.875-6.94-2.63c-1.74-1.75-2.6-4.19-2.6-7.31 c0-3.05,0.885-5.47,2.66-7.26c1.77-1.79,4.01-2.69,6.71-2.69C51.12,18.56,53.944,20.1,55.61,23.19z"/>
  </g></g>
  <g transform="translate(140.2,652.4) scale(0.24)">
  <g><circle fill="#FFF" cx="37.79" cy="28.5" r="28.84"/>
     <circle fill="none" cx="37.79" cy="28.5" r="28.84" stroke="#BFBFBF" stroke-width="5.5"/>
     <path fill="#BFBFBF" d="M46.129,20.557v13.085h-3.656v15.542h-9.944V33.643h-3.656V20.557 c0-0.572,0.2-1.057,0.599-1.457c0.401-0.399,0.887-0.6,1.457-0.6h13.144c0.533,0,1.01,0.2,1.428,0.6 C45.918,19.5,46.129,19.986,46.129,20.557z
              M33.042,12.329c0-3.008,1.485-4.514,4.458-4.514s4.457,1.504,4.457,4.514 c0,2.971-1.486,4.457-4.457,4.457S33.042,15.3,33.042,12.329z"/>
  </g></g>
</g>
</g>
</svg>
