<svg version="1.1" xmlns="http://www.w3.org/2000/svg" xmlns:xlink="http://www.w3.org/1999/xlink" width="100%" height="100%" viewBox="0 0 1200.000 674.916">
<title>Annual CO2 Emissions: Egypt</title>
<style type="text/css">
  #main {font-family:Helvetica,Arial,sans-serif; font-size:27.00px;
         fill-opacity:1; fill:#000000; stroke:none; stroke-linejoin:round; stroke-linecap:round; stroke-width:1.00;}
  .marker {stroke-opacity:0;fill-opacity:0;}
  .marker:hover {stroke-opacity:0.5; fill-opacity:1;}
  .ticklabel {font-size:27.00px;fill:#808080;stroke:none;font-family:Helvetica}
  .ytl {text-anchor:end;}
  .dp1 {pointer-events:none;font-size:70%;text-anchor:middle;fill:#000000;}
  .dp2 {pointer-events:none;font-size:70%;text-anchor:middle;fill:#FFFFFF;}
  .numtip {pointer-events:none;}
  .cc {opacity:0.25;}
.dl_fe {background-color:#FDFFDF;display:flex;margin:auto;align-items:center}
.dl_fe_p {font-size:20px;text-align:center;margin:3px}
.dl_el {display:none;pointer-events:none;}
.cc:hover + .dl_el {display:block;}
text:hover + .dl_el {display:block;}
</style>
<defs>
  <clipPath id="axis_clip"><rect x="145.8" y="54.2" width="761.2" height="532.8" /></clipPath>
  <path id="line_y" d="M 0,53.993 v 533.183" stroke="#262626" stroke-opacity="0.15" stroke-width="1.00"/>
  <path id="line_x" d="M 145.600,0 h 761.600" stroke="#262626" stroke-opacity="0.15" stroke-width="1.00"/>
  <path id="tick_y" d="M 145.600,0 h -6.000" stroke="#808080" stroke-width="0.90"/>
  <path id="tick_x" d="M 0,587.177 v 6.000" stroke="#808080" stroke-width="0.90"/>
</defs>
<g id="main">
<use xlink:href="#line_y" transform="translate(157.1,0)"/>
<use xlink:href="#line_y" transform="translate(272.5,0)"/>
<use xlink:href="#line_y" transform="translate(387.9,0)"/>
<use xlink:href="#line_y" transform="translate(503.3,0)"/>
<use xlink:href="#line_y" transform="translate(618.7,0)"/>
<use xlink:href="#line_y" transform="translate(734.1,0)"/>
<use xlink:href="#line_y" transform="translate(895.7,0)"/>
<use xlink:href="#line_x" transform="translate(0,587.2)"/>
<use xlink:href="#line_x" transform="translate(0,498.3)"/>
<use xlink:href="#line_x" transform="translate(0,409.4)"/>
<use xlink:href="#line_x" transform="translate(0,320.6)"/>
<use xlink:href="#line_x" transform="translate(0,231.7)"/>
<use xlink:href="#line_x" transform="translate(0,142.9)"/>
<use xlink:href="#line_x" transform="translate(0,54.0)"/>
<use xlink:href="#tick_y" transform="translate(0,587.2)"/>
<use xlink:href="#tick_y" transform="translate(0,498.3)"/>
<use xlink:href="#tick_y" transform="translate(0,409.4)"/>
<use xlink:href="#tick_y" transform="translate(0,320.6)"/>
<use xlink:href="#tick_y" transform="translate(0,231.7)"/>
<use xlink:href="#tick_y" transform="translate(0,142.9)"/>
<use xlink:href="#tick_y" transform="translate(0,54.0)"/>
<use xlink:href="#tick_x" transform="translate(157.1,0)"/>
<use xlink:href="#tick_x" transform="translate(272.5,0)"/>
<use xlink:href="#tick_x" transform="translate(387.9,0)"/>
<use xlink:href="#tick_x" transform="translate(503.3,0)"/>
<use xlink:href="#tick_x" transform="translate(618.7,0)"/>
<use xlink:href="#tick_x" transform="translate(734.1,0)"/>
<use xlink:href="#tick_x" transform="translate(895.7,0)"/>
<polyline points="145.6,53.993 145.6,587.177 907.2,587.177" stroke="#808080" stroke-width="0.90" fill="none"/>
<text class="ticklabel xtl" transform="translate(157.1,629.0)" text-anchor="middle">1990</text>
<text class="ticklabel xtl" transform="translate(272.5,629.0)" text-anchor="middle">1995</text>
<text class="ticklabel xtl" transform="translate(387.9,629.0)" text-anchor="middle">2000</text>
<text class="ticklabel xtl" transform="translate(503.3,629.0)" text-anchor="middle">2005</text>
<text class="ticklabel xtl" transform="translate(618.7,629.0)" text-anchor="middle">2010</text>
<text class="ticklabel xtl" transform="translate(734.1,629.0)" text-anchor="middle">2015</text>
<text class="ticklabel xtl" transform="translate(895.7,629.0)" text-anchor="middle">2022</text>
<text class="ticklabel ytl" transform="translate(128.8,595.3)">0</text>
<text class="ticklabel ytl" transform="translate(128.8,506.4)">50</text>
<text class="ticklabel ytl" transform="translate(128.8,417.5)">100</text>
<text class="ticklabel ytl" transform="translate(128.8,328.7)">150</text>
<text class="ticklabel ytl" transform="translate(128.8,239.8)">200</text>
<text class="ticklabel ytl" transform="translate(128.8,151.0)">250</text>
<text class="ticklabel ytl" transform="translate(128.8,62.1)">300 Mt</text>
<g stroke="#000" stroke-width="0.90" fill="#DBA746"  clip-path="url(#axis_clip)">
  <polygon points="147.9,428.2 147.9,428.2 166.4,428.2 166.4,428.2 147.9,428.2"/>
  <polygon points="171.0,428.2 171.0,428.2 189.4,428.2 189.4,428.2 171.0,428.2"/>
  <polygon points="194.1,421.7 194.1,421.8 212.5,421.8 212.5,421.7 194.1,421.7"/>
  <polygon points="217.1,416.8 217.1,416.8 235.6,416.8 235.6,416.8 217.1,416.8"/>
  <polygon points="240.2,426.7 240.2,426.7 258.7,426.7 258.7,426.7 240.2,426.7"/>
  <polygon points="263.3,416.4 263.3,416.5 281.8,416.5 281.8,416.4 263.3,416.4"/>
  <polygon points="286.4,407.2 286.4,407.3 304.8,407.3 304.8,407.2 286.4,407.2"/>
  <polygon points="309.5,395.1 309.5,395.2 327.9,395.2 327.9,395.1 309.5,395.1"/>
  <polygon points="332.5,383.7 332.5,383.8 351.0,383.8 351.0,383.7 332.5,383.7"/>
  <polygon points="355.6,376.0 355.6,376.1 374.1,376.1 374.1,376.0 355.6,376.0"/>
  <polygon points="378.7,380.3 378.7,380.4 397.2,380.4 397.2,380.3 378.7,380.3"/>
  <polygon points="401.8,360.3 401.8,360.3 420.2,360.3 420.2,360.3 401.8,360.3"/>
  <polygon points="424.9,352.2 424.9,352.3 443.3,352.3 443.3,352.2 424.9,352.2"/>
  <polygon points="447.9,350.6 447.9,350.6 466.4,350.6 466.4,350.6 447.9,350.6"/>
  <polygon points="471.0,331.8 471.0,331.8 489.5,331.8 489.5,331.8 471.0,331.8"/>
  <polygon points="494.1,303.4 494.1,303.5 512.6,303.5 512.6,303.4 494.1,303.4"/>
  <polygon points="517.2,285.4 517.2,285.5 535.6,285.5 535.6,285.4 517.2,285.4"/>
  <polygon points="540.2,262.3 540.2,262.3 558.7,262.3 558.7,262.3 540.2,262.3"/>
  <polygon points="563.3,256.6 563.3,256.7 581.8,256.7 581.8,256.6 563.3,256.6"/>
  <polygon points="586.4,241.9 586.4,242.0 604.9,242.0 604.9,241.9 586.4,241.9"/>
  <polygon points="609.5,241.1 609.5,241.1 627.9,241.1 627.9,241.1 609.5,241.1"/>
  <polygon points="632.6,230.8 632.6,230.8 651.0,230.8 651.0,230.8 632.6,230.8"/>
  <polygon points="655.6,222.0 655.6,222.1 674.1,222.1 674.1,222.0 655.6,222.0"/>
  <polygon points="678.7,214.0 678.7,214.0 697.2,214.0 697.2,214.0 678.7,214.0"/>
  <polygon points="701.8,202.6 701.8,202.7 720.3,202.7 720.3,202.6 701.8,202.6"/>
  <polygon points="724.9,145.6 724.9,145.7 743.3,145.7 743.3,145.6 724.9,145.6"/>
  <polygon points="748.0,129.4 748.0,129.5 766.4,129.5 766.4,129.4 748.0,129.4"/>
  <polygon points="771.0,116.7 771.0,116.8 789.5,116.8 789.5,116.7 771.0,116.7"/>
  <polygon points="794.1,99.5 794.1,99.6 812.6,99.6 812.6,99.5 794.1,99.5"/>
  <polygon points="817.2,124.4 817.2,124.5 835.7,124.5 835.7,124.4 817.2,124.4"/>
  <polygon points="840.3,140.3 840.3,140.4 858.7,140.4 858.7,140.3 840.3,140.3"/>
  <polygon points="863.4,99.9 863.4,100.0 881.8,100.0 881.8,99.9 863.4,99.9"/>
  <polygon points="886.4,66.2 886.4,66.3 904.9,66.3 904.9,66.2 886.4,66.2"/>
</g>
<g stroke="#000" stroke-width="0.90" fill="#845F48"  clip-path="url(#axis_clip)">
  <polygon points="147.9,428.2 147.9,432.3 166.4,432.3 166.4,428.2 147.9,428.2"/>
  <polygon points="171.0,428.2 171.0,432.3 189.4,432.3 189.4,428.2 171.0,428.2"/>
  <polygon points="194.1,421.8 194.1,425.8 212.5,425.8 212.5,421.8 194.1,421.8"/>
  <polygon points="217.1,416.8 217.1,420.8 235.6,420.8 235.6,416.8 217.1,416.8"/>
  <polygon points="240.2,426.7 240.2,430.7 258.7,430.7 258.7,426.7 240.2,426.7"/>
  <polygon points="263.3,416.5 263.3,420.4 281.8,420.4 281.8,416.5 263.3,416.5"/>
  <polygon points="286.4,407.3 286.4,411.2 304.8,411.2 304.8,407.3 286.4,407.3"/>
  <polygon points="309.5,395.2 309.5,399.0 327.9,399.0 327.9,395.2 309.5,395.2"/>
  <polygon points="332.5,383.8 332.5,387.5 351.0,387.5 351.0,383.8 332.5,383.8"/>
  <polygon points="355.6,376.1 355.6,379.8 374.1,379.8 374.1,376.1 355.6,376.1"/>
  <polygon points="378.7,380.4 378.7,384.0 397.2,384.0 397.2,380.4 378.7,380.4"/>
  <polygon points="401.8,360.3 401.8,363.9 420.2,363.9 420.2,360.3 401.8,360.3"/>
  <polygon points="424.9,352.3 424.9,355.8 443.3,355.8 443.3,352.3 424.9,352.3"/>
  <polygon points="447.9,350.6 447.9,354.1 466.4,354.1 466.4,350.6 447.9,350.6"/>
  <polygon points="471.0,331.8 471.0,335.3 489.5,335.3 489.5,331.8 471.0,331.8"/>
  <polygon points="494.1,303.5 494.1,305.7 512.6,305.7 512.6,303.5 494.1,303.5"/>
  <polygon points="517.2,285.5 517.2,287.8 535.6,287.8 535.6,285.5 517.2,285.5"/>
  <polygon points="540.2,262.3 540.2,264.4 558.7,264.4 558.7,262.3 540.2,262.3"/>
  <polygon points="563.3,256.7 563.3,258.8 581.8,258.8 581.8,256.7 563.3,256.7"/>
  <polygon points="586.4,242.0 586.4,244.0 604.9,244.0 604.9,242.0 586.4,242.0"/>
  <polygon points="609.5,241.1 609.5,243.2 627.9,243.2 627.9,241.1 609.5,241.1"/>
  <polygon points="632.6,230.8 632.6,233.0 651.0,233.0 651.0,230.8 632.6,230.8"/>
  <polygon points="655.6,222.1 655.6,224.2 674.1,224.2 674.1,222.1 655.6,222.1"/>
  <polygon points="678.7,214.0 678.7,216.2 697.2,216.2 697.2,214.0 678.7,214.0"/>
  <polygon points="701.8,202.7 701.8,205.0 720.3,205.0 720.3,202.7 701.8,202.7"/>
  <polygon points="724.9,145.7 724.9,148.1 743.3,148.1 743.3,145.7 724.9,145.7"/>
  <polygon points="748.0,129.5 748.0,132.1 766.4,132.1 766.4,129.5 748.0,129.5"/>
  <polygon points="771.0,116.8 771.0,119.4 789.5,119.4 789.5,116.8 771.0,116.8"/>
  <polygon points="794.1,99.6 794.1,102.0 812.6,102.0 812.6,99.6 794.1,99.6"/>
  <polygon points="817.2,124.5 817.2,126.8 835.7,126.8 835.7,124.5 817.2,124.5"/>
  <polygon points="840.3,140.4 840.3,143.0 858.7,143.0 858.7,140.4 840.3,140.4"/>
  <polygon points="863.4,100.0 863.4,102.7 881.8,102.7 881.8,100.0 863.4,100.0"/>
  <polygon points="886.4,66.3 886.4,69.0 904.9,69.0 904.9,66.3 886.4,66.3"/>
</g>
<g stroke="#000" stroke-width="0.90" fill="#4A89E8"  clip-path="url(#axis_clip)">
  <polygon points="147.9,432.3 147.9,447.3 166.4,447.3 166.4,432.3 147.9,432.3"/>
  <polygon points="171.0,432.3 171.0,448.4 189.4,448.4 189.4,432.3 171.0,432.3"/>
  <polygon points="194.1,425.8 194.1,443.5 212.5,443.5 212.5,425.8 194.1,425.8"/>
  <polygon points="217.1,420.8 217.1,440.0 235.6,440.0 235.6,420.8 217.1,420.8"/>
  <polygon points="240.2,430.7 240.2,451.4 258.7,451.4 258.7,430.7 240.2,430.7"/>
  <polygon points="263.3,420.4 263.3,443.8 281.8,443.8 281.8,420.4 263.3,420.4"/>
  <polygon points="286.4,411.2 286.4,435.6 304.8,435.6 304.8,411.2 286.4,411.2"/>
  <polygon points="309.5,399.0 309.5,424.7 327.9,424.7 327.9,399.0 309.5,399.0"/>
  <polygon points="332.5,387.5 332.5,414.6 351.0,414.6 351.0,387.5 332.5,387.5"/>
  <polygon points="355.6,379.8 355.6,408.3 374.1,408.3 374.1,379.8 355.6,379.8"/>
  <polygon points="378.7,384.0 378.7,414.0 397.2,414.0 397.2,384.0 378.7,384.0"/>
  <polygon points="401.8,363.9 401.8,394.5 420.2,394.5 420.2,363.9 401.8,363.9"/>
  <polygon points="424.9,355.8 424.9,389.4 443.3,389.4 443.3,355.8 424.9,355.8"/>
  <polygon points="447.9,354.1 447.9,386.2 466.4,386.2 466.4,354.1 447.9,354.1"/>
  <polygon points="471.0,335.3 471.0,367.9 489.5,367.9 489.5,335.3 471.0,335.3"/>
  <polygon points="494.1,305.7 494.1,342.1 512.6,342.1 512.6,305.7 494.1,305.7"/>
  <polygon points="517.2,287.8 517.2,328.4 535.6,328.4 535.6,287.8 517.2,287.8"/>
  <polygon points="540.2,264.4 540.2,309.0 558.7,309.0 558.7,264.4 540.2,264.4"/>
  <polygon points="563.3,258.8 563.3,298.4 581.8,298.4 581.8,258.8 563.3,258.8"/>
  <polygon points="586.4,244.0 586.4,291.3 604.9,291.3 604.9,244.0 586.4,244.0"/>
  <polygon points="609.5,243.2 609.5,289.7 627.9,289.7 627.9,243.2 609.5,243.2"/>
  <polygon points="632.6,233.0 632.6,279.1 651.0,279.1 651.0,233.0 632.6,233.0"/>
  <polygon points="655.6,224.2 655.6,267.2 674.1,267.2 674.1,224.2 655.6,224.2"/>
  <polygon points="678.7,216.2 678.7,265.5 697.2,265.5 697.2,216.2 678.7,216.2"/>
  <polygon points="701.8,205.0 701.8,255.5 720.3,255.5 720.3,205.0 701.8,205.0"/>
  <polygon points="724.9,148.1 724.9,205.8 743.3,205.8 743.3,148.1 724.9,148.1"/>
  <polygon points="748.0,132.1 748.0,193.9 766.4,193.9 766.4,132.1 748.0,132.1"/>
  <polygon points="771.0,119.4 771.0,188.2 789.5,188.2 789.5,119.4 771.0,119.4"/>
  <polygon points="794.1,102.0 794.1,170.2 812.6,170.2 812.6,102.0 794.1,102.0"/>
  <polygon points="817.2,126.8 817.2,191.0 835.7,191.0 835.7,126.8 817.2,126.8"/>
  <polygon points="840.3,143.0 840.3,205.5 858.7,205.5 858.7,143.0 840.3,143.0"/>
  <polygon points="863.4,102.7 863.4,174.3 881.8,174.3 881.8,102.7 863.4,102.7"/>
  <polygon points="886.4,69.0 886.4,139.0 904.9,139.0 904.9,69.0 886.4,69.0"/>
</g>
<g stroke="#000" stroke-width="0.90" fill="#FF7F61"  clip-path="url(#axis_clip)">
  <polygon points="147.9,447.3 147.9,587.2 166.4,587.2 166.4,447.3 147.9,447.3"/>
  <polygon points="171.0,448.4 171.0,587.2 189.4,587.2 189.4,448.4 171.0,448.4"/>
  <polygon points="194.1,443.5 194.1,587.2 212.5,587.2 212.5,443.5 194.1,443.5"/>
  <polygon points="217.1,440.0 217.1,587.2 235.6,587.2 235.6,440.0 217.1,440.0"/>
  <polygon points="240.2,451.4 240.2,587.2 258.7,587.2 258.7,451.4 240.2,451.4"/>
  <polygon points="263.3,443.8 263.3,587.2 281.8,587.2 281.8,443.8 263.3,443.8"/>
  <polygon points="286.4,435.6 286.4,587.2 304.8,587.2 304.8,435.6 286.4,435.6"/>
  <polygon points="309.5,424.7 309.5,587.2 327.9,587.2 327.9,424.7 309.5,424.7"/>
  <polygon points="332.5,414.6 332.5,587.2 351.0,587.2 351.0,414.6 332.5,414.6"/>
  <polygon points="355.6,408.3 355.6,587.2 374.1,587.2 374.1,408.3 355.6,408.3"/>
  <polygon points="378.7,414.0 378.7,587.2 397.2,587.2 397.2,414.0 378.7,414.0"/>
  <polygon points="401.8,394.5 401.8,587.2 420.2,587.2 420.2,394.5 401.8,394.5"/>
  <polygon points="424.9,389.4 424.9,587.2 443.3,587.2 443.3,389.4 424.9,389.4"/>
  <polygon points="447.9,386.2 447.9,587.2 466.4,587.2 466.4,386.2 447.9,386.2"/>
  <polygon points="471.0,367.9 471.0,587.2 489.5,587.2 489.5,367.9 471.0,367.9"/>
  <polygon points="494.1,342.1 494.1,587.2 512.6,587.2 512.6,342.1 494.1,342.1"/>
  <polygon points="517.2,328.4 517.2,587.2 535.6,587.2 535.6,328.4 517.2,328.4"/>
  <polygon points="540.2,309.0 540.2,587.2 558.7,587.2 558.7,309.0 540.2,309.0"/>
  <polygon points="563.3,298.4 563.3,587.2 581.8,587.2 581.8,298.4 563.3,298.4"/>
  <polygon points="586.4,291.3 586.4,587.2 604.9,587.2 604.9,291.3 586.4,291.3"/>
  <polygon points="609.5,289.7 609.5,587.2 627.9,587.2 627.9,289.7 609.5,289.7"/>
  <polygon points="632.6,279.1 632.6,587.2 651.0,587.2 651.0,279.1 632.6,279.1"/>
  <polygon points="655.6,267.2 655.6,587.2 674.1,587.2 674.1,267.2 655.6,267.2"/>
  <polygon points="678.7,265.5 678.7,587.2 697.2,587.2 697.2,265.5 678.7,265.5"/>
  <polygon points="701.8,255.5 701.8,587.2 720.3,587.2 720.3,255.5 701.8,255.5"/>
  <polygon points="724.9,205.8 724.9,587.2 743.3,587.2 743.3,205.8 724.9,205.8"/>
  <polygon points="748.0,193.9 748.0,587.2 766.4,587.2 766.4,193.9 748.0,193.9"/>
  <polygon points="771.0,188.2 771.0,587.2 789.5,587.2 789.5,188.2 771.0,188.2"/>
  <polygon points="794.1,170.2 794.1,587.2 812.6,587.2 812.6,170.2 794.1,170.2"/>
  <polygon points="817.2,191.0 817.2,587.2 835.7,587.2 835.7,191.0 817.2,191.0"/>
  <polygon points="840.3,205.5 840.3,587.2 858.7,587.2 858.7,205.5 840.3,205.5"/>
  <polygon points="863.4,174.3 863.4,587.2 881.8,587.2 881.8,174.3 863.4,174.3"/>
  <polygon points="886.4,139.0 886.4,587.2 904.9,587.2 904.9,139.0 886.4,139.0"/>
</g>
<polyline class="pl" points="157.1,428.2 180.2,428.2 203.3,421.7 226.4,416.8 249.5,426.7 272.5,416.4 295.6,407.2 318.7,395.1 341.8,383.7 364.8,376.0 387.9,380.3 411.0,360.3 434.1,352.2 457.2,350.6 480.2,331.8 503.3,303.4 526.4,285.4 549.5,262.3 572.6,256.6 595.6,241.9 618.7,241.1 641.8,230.8 664.9,222.0 688.0,214.0 711.0,202.6 734.1,145.6 757.2,129.4 780.3,116.7 803.3,99.5 826.4,124.4 849.5,140.3 872.6,99.9 895.7,66.2" stroke="#000" stroke-width="5.40" stroke-opacity="1.00" fill="none" clip-path="url(#axis_clip)"/>
<g class="pl" fill="#FFF" stroke="#000" stroke-width="0.900">
  <circle cx="180.2" cy="428.2" r="2.2" />
  <circle cx="203.3" cy="421.7" r="2.2" />
  <circle cx="226.4" cy="416.8" r="2.2" />
  <circle cx="249.5" cy="426.7" r="2.2" />
  <circle cx="272.5" cy="416.4" r="2.2" />
  <circle cx="295.6" cy="407.2" r="2.2" />
  <circle cx="318.7" cy="395.1" r="2.2" />
  <circle cx="341.8" cy="383.7" r="2.2" />
  <circle cx="364.8" cy="376.0" r="2.2" />
  <circle cx="411.0" cy="360.3" r="2.2" />
  <circle cx="434.1" cy="352.2" r="2.2" />
  <circle cx="457.2" cy="350.6" r="2.2" />
  <circle cx="480.2" cy="331.8" r="2.2" />
  <circle cx="503.3" cy="303.4" r="2.2" />
  <circle cx="526.4" cy="285.4" r="2.2" />
  <circle cx="549.5" cy="262.3" r="2.2" />
  <circle cx="572.6" cy="256.6" r="2.2" />
  <circle cx="595.6" cy="241.9" r="2.2" />
  <circle cx="641.8" cy="230.8" r="2.2" />
  <circle cx="664.9" cy="222.0" r="2.2" />
  <circle cx="688.0" cy="214.0" r="2.2" />
  <circle cx="711.0" cy="202.6" r="2.2" />
  <circle cx="734.1" cy="145.6" r="2.2" />
  <circle cx="757.2" cy="129.4" r="2.2" />
  <circle cx="780.3" cy="116.7" r="2.2" />
  <circle cx="803.3" cy="99.5" r="2.2" />
  <circle cx="826.4" cy="124.4" r="2.2" />
  <circle cx="872.6" cy="99.9" r="2.2" />
  <circle cx="895.7" cy="66.2" r="2.2" />
</g>
<g class="pl" fill="#FFF" stroke="#000" stroke-width="0.900">
  <circle cx="157.1" cy="428.2" r="5.4" />
  <circle cx="387.9" cy="380.3" r="5.4" />
  <circle cx="618.7" cy="241.1" r="5.4" />
  <circle cx="849.5" cy="140.3" r="5.4" />
</g>
<text transform="translate(145.6,47.2)" dy="0.0" font-size="27.00" fill="#808080" stroke="none">Annual CO<tspan dy="0.2em"><tspan style="font-size:70%">2</tspan></tspan><tspan dy="-0.2em"> </tspan>Emissions: Egypt</text>
<text transform="translate(130.0,81.6)" dy="8.1" font-size="27.00" fill="#808080" stroke="none" text-anchor="end">CO<tspan dy="0.2em"><tspan style="font-size:70%">2</tspan></tspan><tspan dy="-0.2em"></tspan></text>
<text transform="translate(945.6,54.0)" dy="7.6" font-size="25.20" fill="#000" stroke="none">+227.6% since 1990</text>
<text transform="translate(945.6,363.1)" dy="7.6" font-size="25.20" fill="#FF7F61" stroke="none">Energy</text>
<text transform="translate(945.6,129.1)" dy="7.6" font-size="25.20" fill="#4A89E8" stroke="none">Industrial Processes</text>
<text transform="translate(945.6,104.1)" dy="7.6" font-size="25.20" fill="#845F48" stroke="none">Agriculture</text>
<text transform="translate(945.6,79.0)" dy="7.6" font-size="25.20" fill="#DBA746" stroke="none">Waste</text>
<polyline class="pl" points="910.8,66.2 912.4,66.2 913.8,66.1 915.2,65.9 916.4,65.6 917.6,65.3 918.8,64.9 919.8,64.4 920.8,64.0 921.7,63.4 922.7,62.9 923.5,62.3 924.4,61.7 925.2,61.1 926.0,60.4 926.8,59.8 927.6,59.2 928.4,58.5 929.3,57.9 930.1,57.4 931.1,56.8 932.0,56.3 933.0,55.8 934.0,55.3 935.2,55.0 936.4,54.6 937.6,54.4 939.0,54.2 940.4,54.0 942.0,54.0" stroke="#000" stroke-width="0.90" stroke-opacity="1.00" fill="none" />
<polyline class="pl" points="910.8,104.0 912.4,104.1 913.8,104.3 915.2,104.7 916.4,105.3 917.6,106.0 918.8,106.8 919.8,107.7 920.8,108.7 921.7,109.7 922.7,110.9 923.5,112.1 924.4,113.3 925.2,114.6 926.0,115.9 926.8,117.2 927.6,118.5 928.4,119.8 929.3,121.0 930.1,122.2 931.1,123.4 932.0,124.4 933.0,125.4 934.0,126.3 935.2,127.1 936.4,127.8 937.6,128.4 939.0,128.8 940.4,129.0 942.0,129.1" stroke="#4A89E8" stroke-width="0.90" stroke-opacity="1.00" fill="none" />
<polyline class="pl" points="910.8,67.7 912.4,67.8 913.8,68.1 915.2,68.7 916.4,69.5 917.6,70.5 918.8,71.7 919.8,73.0 920.8,74.4 921.7,76.0 922.7,77.7 923.5,79.4 924.4,81.2 925.2,83.0 926.0,84.9 926.8,86.8 927.6,88.7 928.4,90.5 929.3,92.3 930.1,94.1 931.1,95.7 932.0,97.3 933.0,98.7 934.0,100.0 935.2,101.2 936.4,102.2 937.6,103.0 939.0,103.6 940.4,103.9 942.0,104.1" stroke="#845F48" stroke-width="0.90" stroke-opacity="1.00" fill="none" />
<polyline class="pl" points="910.8,66.3 912.4,66.3 913.8,66.5 915.2,66.7 916.4,67.0 917.6,67.3 918.8,67.7 919.8,68.2 920.8,68.7 921.7,69.2 922.7,69.8 923.5,70.4 924.4,71.0 925.2,71.7 926.0,72.3 926.8,73.0 927.6,73.6 928.4,74.3 929.3,74.9 930.1,75.5 931.1,76.1 932.0,76.7 933.0,77.2 934.0,77.6 935.2,78.0 936.4,78.4 937.6,78.7 939.0,78.9 940.4,79.0 942.0,79.0" stroke="#DBA746" stroke-width="0.90" stroke-opacity="1.00" fill="none" />
<text transform="translate(160.0,666.1)" font-size="19.80" font-family="Helvetica" fill="#BFBFBF" stroke="none" xml:space="preserve">CICERO   &#9679;   Data: UNFCCC (2024)</text>
<g>
  <rect x="123.0" y="651.4" width="34" height="17" fill="#FFF" stroke="none" opacity="0.01"/>
  <g transform="translate(124.0,652.4) scale(0.24)">
  <g><circle fill="#FFF" cx="37.79" cy="28.5" r="28.84"/>
     <circle fill="none" cx="37.79" cy="28.5" r="28.84" stroke="#BFBFBF" stroke-width="5.5"/>
     <path fill="#BFBFBF" d="M37.16,23.19 l-4.29,2.23c-0.458-0.951-1.02-1.62-1.69-2c-0.667-0.38-1.29-0.571-1.86-0.571c-2.86,0-4.29,1.89-4.29,5.66 c0,1.71,0.36,3.08,1.09,4.11c0.724,1.03,1.79,1.54,3.2,1.54c1.87,0,3.18-0.915,3.94-2.74l3.94,2 c-0.838,1.56-2,2.79-3.49,3.69c-1.48,0.896-3.12,1.34-4.91,1.34c-2.86,0-5.16-0.875-6.92-2.63 c-1.75-1.75-2.63-4.19-2.63-7.31c0-3.05,0.886-5.47,2.66-7.26c1.77-1.79,4.01-2.69,6.72-2.69 C32.6,18.56,35.44,20.1,37.16,23.19z
              M55.61,23.19l-4.23,2.23c-0.457-0.951-1.02-1.62-1.69-2 c-0.668-0.38-1.31-0.571-1.91-0.571c-2.86,0-4.29,1.89-4.29,5.66c0,1.71,0.363,3.08,1.09,4.11 c0.723,1.03,1.79,1.54,3.2,1.54c1.87,0,3.18-0.915,3.94-2.74l4,2c-0.875,1.56-2.06,2.79-3.54,3.69 c-1.49,0.9-3.11,1.34-4.86,1.34c-2.9,0-5.21-0.875-6.94-2.63c-1.74-1.75-2.6-4.19-2.6-7.31 c0-3.05,0.885-5.47,2.66-7.26c1.77-1.79,4.01-2.69,6.71-2.69C51.12,18.56,53.944,20.1,55.61,23.19z"/>
  </g></g>
  <g transform="translate(140.2,652.4) scale(0.24)">
  <g><circle fill="#FFF" cx="37.79" cy="28.5" r="28.84"/>
     <circle fill="none" cx="37.79" cy="28.5" r="28.84" stroke="#BFBFBF" stroke-width="5.5"/>
     <path fill="#BFBFBF" d="M46.129,20.557v13.085h-3.656v15.542h-9.944V33.643h-3.656V20.557 c0-0.572,0.2-1.057,0.599-1.457c0.401-0.399,0.887-0.6,1.457-0.6h13.144c0.533,0,1.01,0.2,1.428,0.6 C45.918,19.5,46.129,19.986,46.129,20.557z
              M33.042,12.329c0-3.008,1.485-4.514,4.458-4.514s4.457,1.504,4.457,4.514 c0,2.971-1.486,4.457-4.457,4.457S33.042,15.3,33.042,12.329z"/>
  </g></g>
</g>
</g>
</svg>
