<svg version="1.1" xmlns="http://www.w3.org/2000/svg" xmlns:xlink="http://www.w3.org/1999/xlink" width="100%" height="100%" viewBox="0 0 1200.000 674.916">
<title>Emissions and removals on forest land: Tajikistan</title>
<style type="text/css">
  #main {font-family:Helvetica,Arial,sans-serif; font-size:27.00px;
         fill-opacity:1; fill:#000000; stroke:none; stroke-linejoin:round; stroke-linecap:round; stroke-width:1.00;}
  .marker {stroke-opacity:0;fill-opacity:0;}
  .marker:hover {stroke-opacity:0.5; fill-opacity:1;}
  .ticklabel {font-size:27.00px;fill:#808080;stroke:none;font-family:Helvetica}
  .ytl {text-anchor:end;}
  .dp1 {pointer-events:none;font-size:70%;text-anchor:middle;fill:#000000;}
  .dp2 {pointer-events:none;font-size:70%;text-anchor:middle;fill:#FFFFFF;}
  .numtip {pointer-events:none;}
  .cc {opacity:0.25;}
.dl_fe {background-color:#FDFFDF;display:flex;margin:auto;align-items:center}
.dl_fe_p {font-size:20px;text-align:center;margin:3px}
.dl_el {display:none;pointer-events:none;}
.cc:hover + .dl_el {display:block;}
text:hover + .dl_el {display:block;}
</style>
<defs>
  <clipPath id="axis_clip"><rect x="145.8" y="54.2" width="761.2" height="532.8" /></clipPath>
  <path id="line_y" d="M 0,53.993 v 533.183" stroke="#262626" stroke-opacity="0.15" stroke-width="1.00"/>
  <path id="line_x" d="M 145.600,0 h 761.600" stroke="#262626" stroke-opacity="0.15" stroke-width="1.00"/>
  <path id="tick_y" d="M 145.600,0 h -6.000" stroke="#808080" stroke-width="0.90"/>
  <path id="tick_x" d="M 0,587.177 v 6.000" stroke="#808080" stroke-width="0.90"/>
</defs>
<g id="main">
<use xlink:href="#line_y" transform="translate(157.1,0)"/>
<use xlink:href="#line_y" transform="translate(272.5,0)"/>
<use xlink:href="#line_y" transform="translate(387.9,0)"/>
<use xlink:href="#line_y" transform="translate(503.3,0)"/>
<use xlink:href="#line_y" transform="translate(618.7,0)"/>
<use xlink:href="#line_y" transform="translate(734.1,0)"/>
<use xlink:href="#line_y" transform="translate(895.7,0)"/>
<use xlink:href="#line_x" transform="translate(0,527.9)"/>
<use xlink:href="#line_x" transform="translate(0,409.4)"/>
<use xlink:href="#line_x" transform="translate(0,291.0)"/>
<use xlink:href="#line_x" transform="translate(0,172.5)"/>
<use xlink:href="#line_x" transform="translate(0,54.0)"/>
<use xlink:href="#tick_y" transform="translate(0,527.9)"/>
<use xlink:href="#tick_y" transform="translate(0,409.4)"/>
<use xlink:href="#tick_y" transform="translate(0,291.0)"/>
<use xlink:href="#tick_y" transform="translate(0,172.5)"/>
<use xlink:href="#tick_y" transform="translate(0,54.0)"/>
<use xlink:href="#tick_x" transform="translate(157.1,0)"/>
<use xlink:href="#tick_x" transform="translate(272.5,0)"/>
<use xlink:href="#tick_x" transform="translate(387.9,0)"/>
<use xlink:href="#tick_x" transform="translate(503.3,0)"/>
<use xlink:href="#tick_x" transform="translate(618.7,0)"/>
<use xlink:href="#tick_x" transform="translate(734.1,0)"/>
<use xlink:href="#tick_x" transform="translate(895.7,0)"/>
<polyline points="145.6,53.993 145.6,587.177 907.2,587.177" stroke="#808080" stroke-width="0.90" fill="none"/>
<text class="ticklabel xtl" transform="translate(157.1,629.0)" text-anchor="middle">1990</text>
<text class="ticklabel xtl" transform="translate(272.5,629.0)" text-anchor="middle">1995</text>
<text class="ticklabel xtl" transform="translate(387.9,629.0)" text-anchor="middle">2000</text>
<text class="ticklabel xtl" transform="translate(503.3,629.0)" text-anchor="middle">2005</text>
<text class="ticklabel xtl" transform="translate(618.7,629.0)" text-anchor="middle">2010</text>
<text class="ticklabel xtl" transform="translate(734.1,629.0)" text-anchor="middle">2015</text>
<text class="ticklabel xtl" transform="translate(895.7,629.0)" text-anchor="middle">2022</text>
<text class="ticklabel ytl" transform="translate(128.8,536.0)">-1.6</text>
<text class="ticklabel ytl" transform="translate(128.8,417.5)">-1.2</text>
<text class="ticklabel ytl" transform="translate(128.8,299.1)">-0.8</text>
<text class="ticklabel ytl" transform="translate(128.8,180.6)">-0.4</text>
<text class="ticklabel ytl" transform="translate(128.8,62.1)">0 Mt</text>
<g stroke="#000" stroke-width="0.90" fill="#834B8E"  clip-path="url(#axis_clip)">
</g>
<g stroke="#000" stroke-width="0.90" fill="#D5AF54"  clip-path="url(#axis_clip)">
</g>
<g stroke="#000" stroke-width="0.90" fill="#3988BD"  clip-path="url(#axis_clip)">
</g>
<g stroke="#000" stroke-width="0.90" fill="#834B8E"  clip-path="url(#axis_clip)">
  <polygon points="147.9,513.0 147.9,512.0 166.4,512.0 166.4,513.0 147.9,513.0"/>
  <polygon points="171.0,513.2 171.0,512.2 189.4,512.2 189.4,513.2 171.0,513.2"/>
  <polygon points="194.1,513.2 194.1,512.2 212.5,512.2 212.5,513.2 194.1,513.2"/>
  <polygon points="217.1,513.5 217.1,512.4 235.6,512.4 235.6,513.5 217.1,513.5"/>
  <polygon points="240.2,513.7 240.2,512.7 258.7,512.7 258.7,513.7 240.2,513.7"/>
  <polygon points="263.3,513.9 263.3,512.9 281.8,512.9 281.8,513.9 263.3,513.9"/>
  <polygon points="286.4,514.2 286.4,513.2 304.8,513.2 304.8,514.2 286.4,514.2"/>
  <polygon points="309.5,514.4 309.5,513.4 327.9,513.4 327.9,514.4 309.5,514.4"/>
  <polygon points="332.5,514.6 332.5,513.6 351.0,513.6 351.0,514.6 332.5,514.6"/>
  <polygon points="355.6,514.9 355.6,513.9 374.1,513.9 374.1,514.9 355.6,514.9"/>
  <polygon points="378.7,514.2 378.7,513.2 397.2,513.2 397.2,514.2 378.7,514.2"/>
  <polygon points="401.8,517.0 401.8,515.8 420.2,515.8 420.2,517.0 401.8,517.0"/>
  <polygon points="424.9,518.9 424.9,517.6 443.3,517.6 443.3,518.9 424.9,518.9"/>
  <polygon points="447.9,520.7 447.9,519.3 466.4,519.3 466.4,520.7 447.9,520.7"/>
  <polygon points="471.0,522.6 471.0,521.1 489.5,521.1 489.5,522.6 471.0,522.6"/>
  <polygon points="494.1,524.5 494.1,522.8 512.6,522.8 512.6,524.5 494.1,524.5"/>
  <polygon points="517.2,526.3 517.2,524.6 535.6,524.6 535.6,526.3 517.2,526.3"/>
  <polygon points="540.2,528.2 540.2,526.3 558.7,526.3 558.7,528.2 540.2,528.2"/>
  <polygon points="563.3,530.1 563.3,528.1 581.8,528.1 581.8,530.1 563.3,530.1"/>
  <polygon points="586.4,532.0 586.4,529.8 604.9,529.8 604.9,532.0 586.4,532.0"/>
  <polygon points="609.5,532.9 609.5,530.7 627.9,530.7 627.9,532.9 609.5,532.9"/>
  <polygon points="632.6,534.8 632.6,532.4 651.0,532.4 651.0,534.8 632.6,534.8"/>
  <polygon points="655.6,536.5 655.6,534.0 674.1,534.0 674.1,536.5 655.6,536.5"/>
  <polygon points="678.7,537.6 678.7,535.0 697.2,535.0 697.2,537.6 678.7,537.6"/>
  <polygon points="701.8,539.3 701.8,536.6 720.3,536.6 720.3,539.3 701.8,539.3"/>
  <polygon points="724.9,541.0 724.9,538.2 743.3,538.2 743.3,541.0 724.9,541.0"/>
  <polygon points="748.0,542.7 748.0,539.8 766.4,539.8 766.4,542.7 748.0,542.7"/>
  <polygon points="771.0,544.5 771.0,541.5 789.5,541.5 789.5,544.5 771.0,544.5"/>
  <polygon points="794.1,546.2 794.1,543.1 812.6,543.1 812.6,546.2 794.1,546.2"/>
  <polygon points="817.2,548.8 817.2,545.5 835.7,545.5 835.7,548.8 817.2,548.8"/>
  <polygon points="840.3,549.5 840.3,546.1 858.7,546.1 858.7,549.5 840.3,549.5"/>
  <polygon points="863.4,550.1 863.4,546.8 881.8,546.8 881.8,550.1 863.4,550.1"/>
  <polygon points="886.4,550.8 886.4,547.5 904.9,547.5 904.9,550.8 886.4,550.8"/>
</g>
<g stroke="#000" stroke-width="0.90" fill="#D5AF54"  clip-path="url(#axis_clip)">
  <polygon points="147.9,512.0 147.9,503.8 166.4,503.8 166.4,512.0 147.9,512.0"/>
  <polygon points="171.0,512.2 171.0,504.0 189.4,504.0 189.4,512.2 171.0,512.2"/>
  <polygon points="194.1,512.2 194.1,504.0 212.5,504.0 212.5,512.2 194.1,512.2"/>
  <polygon points="217.1,512.4 217.1,504.3 235.6,504.3 235.6,512.4 217.1,512.4"/>
  <polygon points="240.2,512.7 240.2,504.5 258.7,504.5 258.7,512.7 240.2,512.7"/>
  <polygon points="263.3,512.9 263.3,504.8 281.8,504.8 281.8,512.9 263.3,512.9"/>
  <polygon points="286.4,513.2 286.4,505.0 304.8,505.0 304.8,513.2 286.4,513.2"/>
  <polygon points="309.5,513.4 309.5,505.2 327.9,505.2 327.9,513.4 309.5,513.4"/>
  <polygon points="332.5,513.6 332.5,505.5 351.0,505.5 351.0,513.6 332.5,513.6"/>
  <polygon points="355.6,513.9 355.6,505.7 374.1,505.7 374.1,513.9 355.6,513.9"/>
  <polygon points="378.7,513.2 378.7,505.0 397.2,505.0 397.2,513.2 378.7,513.2"/>
  <polygon points="401.8,515.8 401.8,506.7 420.2,506.7 420.2,515.8 401.8,515.8"/>
  <polygon points="424.9,517.6 424.9,507.5 443.3,507.5 443.3,517.6 424.9,517.6"/>
  <polygon points="447.9,519.3 447.9,508.3 466.4,508.3 466.4,519.3 447.9,519.3"/>
  <polygon points="471.0,521.1 471.0,509.1 489.5,509.1 489.5,521.1 471.0,521.1"/>
  <polygon points="494.1,522.8 494.1,509.9 512.6,509.9 512.6,522.8 494.1,522.8"/>
  <polygon points="517.2,524.6 517.2,510.7 535.6,510.7 535.6,524.6 517.2,524.6"/>
  <polygon points="540.2,526.3 540.2,511.5 558.7,511.5 558.7,526.3 540.2,526.3"/>
  <polygon points="563.3,528.1 563.3,512.3 581.8,512.3 581.8,528.1 563.3,528.1"/>
  <polygon points="586.4,529.8 586.4,513.1 604.9,513.1 604.9,529.8 586.4,529.8"/>
  <polygon points="609.5,530.7 609.5,512.9 627.9,512.9 627.9,530.7 609.5,530.7"/>
  <polygon points="632.6,532.4 632.6,513.7 651.0,513.7 651.0,532.4 632.6,532.4"/>
  <polygon points="655.6,534.0 655.6,514.5 674.1,514.5 674.1,534.0 655.6,534.0"/>
  <polygon points="678.7,535.0 678.7,514.5 697.2,514.5 697.2,535.0 678.7,535.0"/>
  <polygon points="701.8,536.6 701.8,515.3 720.3,515.3 720.3,536.6 701.8,536.6"/>
  <polygon points="724.9,538.2 724.9,516.0 743.3,516.0 743.3,538.2 724.9,538.2"/>
  <polygon points="748.0,539.8 748.0,516.7 766.4,516.7 766.4,539.8 748.0,539.8"/>
  <polygon points="771.0,541.5 771.0,517.5 789.5,517.5 789.5,541.5 771.0,541.5"/>
  <polygon points="794.1,543.1 794.1,518.2 812.6,518.2 812.6,543.1 794.1,543.1"/>
  <polygon points="817.2,545.5 817.2,519.8 835.7,519.8 835.7,545.5 817.2,545.5"/>
  <polygon points="840.3,546.1 840.3,519.5 858.7,519.5 858.7,546.1 840.3,546.1"/>
  <polygon points="863.4,546.8 863.4,520.3 881.8,520.3 881.8,546.8 863.4,546.8"/>
  <polygon points="886.4,547.5 886.4,521.0 904.9,521.0 904.9,547.5 886.4,547.5"/>
</g>
<g stroke="#000" stroke-width="0.90" fill="#3988BD"  clip-path="url(#axis_clip)">
  <polygon points="147.9,503.8 147.9,54.0 166.4,54.0 166.4,503.8 147.9,503.8"/>
  <polygon points="171.0,504.0 171.0,54.0 189.4,54.0 189.4,504.0 171.0,504.0"/>
  <polygon points="194.1,504.0 194.1,54.0 212.5,54.0 212.5,504.0 194.1,504.0"/>
  <polygon points="217.1,504.3 217.1,54.0 235.6,54.0 235.6,504.3 217.1,504.3"/>
  <polygon points="240.2,504.5 240.2,54.0 258.7,54.0 258.7,504.5 240.2,504.5"/>
  <polygon points="263.3,504.8 263.3,54.0 281.8,54.0 281.8,504.8 263.3,504.8"/>
  <polygon points="286.4,505.0 286.4,54.0 304.8,54.0 304.8,505.0 286.4,505.0"/>
  <polygon points="309.5,505.2 309.5,54.0 327.9,54.0 327.9,505.2 309.5,505.2"/>
  <polygon points="332.5,505.5 332.5,54.0 351.0,54.0 351.0,505.5 332.5,505.5"/>
  <polygon points="355.6,505.7 355.6,54.0 374.1,54.0 374.1,505.7 355.6,505.7"/>
  <polygon points="378.7,505.0 378.7,54.0 397.2,54.0 397.2,505.0 378.7,505.0"/>
  <polygon points="401.8,506.7 401.8,54.0 420.2,54.0 420.2,506.7 401.8,506.7"/>
  <polygon points="424.9,507.5 424.9,54.0 443.3,54.0 443.3,507.5 424.9,507.5"/>
  <polygon points="447.9,508.3 447.9,54.0 466.4,54.0 466.4,508.3 447.9,508.3"/>
  <polygon points="471.0,509.1 471.0,54.0 489.5,54.0 489.5,509.1 471.0,509.1"/>
  <polygon points="494.1,509.9 494.1,54.0 512.6,54.0 512.6,509.9 494.1,509.9"/>
  <polygon points="517.2,510.7 517.2,54.0 535.6,54.0 535.6,510.7 517.2,510.7"/>
  <polygon points="540.2,511.5 540.2,54.0 558.7,54.0 558.7,511.5 540.2,511.5"/>
  <polygon points="563.3,512.3 563.3,54.0 581.8,54.0 581.8,512.3 563.3,512.3"/>
  <polygon points="586.4,513.1 586.4,54.0 604.9,54.0 604.9,513.1 586.4,513.1"/>
  <polygon points="609.5,512.9 609.5,54.0 627.9,54.0 627.9,512.9 609.5,512.9"/>
  <polygon points="632.6,513.7 632.6,54.0 651.0,54.0 651.0,513.7 632.6,513.7"/>
  <polygon points="655.6,514.5 655.6,54.0 674.1,54.0 674.1,514.5 655.6,514.5"/>
  <polygon points="678.7,514.5 678.7,54.0 697.2,54.0 697.2,514.5 678.7,514.5"/>
  <polygon points="701.8,515.3 701.8,54.0 720.3,54.0 720.3,515.3 701.8,515.3"/>
  <polygon points="724.9,516.0 724.9,54.0 743.3,54.0 743.3,516.0 724.9,516.0"/>
  <polygon points="748.0,516.7 748.0,54.0 766.4,54.0 766.4,516.7 748.0,516.7"/>
  <polygon points="771.0,517.5 771.0,54.0 789.5,54.0 789.5,517.5 771.0,517.5"/>
  <polygon points="794.1,518.2 794.1,54.0 812.6,54.0 812.6,518.2 794.1,518.2"/>
  <polygon points="817.2,519.8 817.2,54.0 835.7,54.0 835.7,519.8 817.2,519.8"/>
  <polygon points="840.3,519.5 840.3,54.0 858.7,54.0 858.7,519.5 840.3,519.5"/>
  <polygon points="863.4,520.3 863.4,54.0 881.8,54.0 881.8,520.3 863.4,520.3"/>
  <polygon points="886.4,521.0 886.4,54.0 904.9,54.0 904.9,521.0 886.4,521.0"/>
</g>
<text transform="translate(145.6,47.2)" dy="0.0" font-size="27.00" fill="#808080" stroke="none">Emissions and removals on forest land: Tajikistan</text>
<text transform="translate(130.0,81.6)" dy="8.1" font-size="27.00" fill="#808080" stroke="none" text-anchor="end">CO<tspan dy="0.2em"><tspan style="font-size:70%">2</tspan></tspan><tspan dy="-0.2em"></tspan></text>
<polyline class="pl" points="157.1,513.4 180.2,513.5 203.3,513.6 226.4,513.8 249.5,514.0 272.5,514.3 295.6,514.5 318.7,514.7 341.8,515.0 364.8,515.2 387.9,514.6 411.0,517.3 434.1,519.2 457.2,521.1 480.2,522.9 503.3,524.8 526.4,526.7 549.5,528.6 572.6,530.4 595.6,532.3 618.7,533.3 641.8,535.1 664.9,536.9 688.0,537.9 711.0,539.6 734.1,541.4 757.2,543.1 780.3,544.8 803.3,546.6 826.4,549.1 849.5,549.9 872.6,550.5 895.7,551.2" stroke="#000" stroke-width="5.40" fill="none" clip-path="url(#axis_clip)"/>
<g class="pl" fill="#FFF" stroke="#000" stroke-width="0.900">
  <circle cx="180.2" cy="513.5" r="2.2" />
  <circle cx="203.3" cy="513.6" r="2.2" />
  <circle cx="226.4" cy="513.8" r="2.2" />
  <circle cx="249.5" cy="514.0" r="2.2" />
  <circle cx="272.5" cy="514.3" r="2.2" />
  <circle cx="295.6" cy="514.5" r="2.2" />
  <circle cx="318.7" cy="514.7" r="2.2" />
  <circle cx="341.8" cy="515.0" r="2.2" />
  <circle cx="364.8" cy="515.2" r="2.2" />
  <circle cx="411.0" cy="517.3" r="2.2" />
  <circle cx="434.1" cy="519.2" r="2.2" />
  <circle cx="457.2" cy="521.1" r="2.2" />
  <circle cx="480.2" cy="522.9" r="2.2" />
  <circle cx="503.3" cy="524.8" r="2.2" />
  <circle cx="526.4" cy="526.7" r="2.2" />
  <circle cx="549.5" cy="528.6" r="2.2" />
  <circle cx="572.6" cy="530.4" r="2.2" />
  <circle cx="595.6" cy="532.3" r="2.2" />
  <circle cx="641.8" cy="535.1" r="2.2" />
  <circle cx="664.9" cy="536.9" r="2.2" />
  <circle cx="688.0" cy="537.9" r="2.2" />
  <circle cx="711.0" cy="539.6" r="2.2" />
  <circle cx="734.1" cy="541.4" r="2.2" />
  <circle cx="757.2" cy="543.1" r="2.2" />
  <circle cx="780.3" cy="544.8" r="2.2" />
  <circle cx="803.3" cy="546.6" r="2.2" />
  <circle cx="826.4" cy="549.1" r="2.2" />
  <circle cx="872.6" cy="550.5" r="2.2" />
  <circle cx="895.7" cy="551.2" r="2.2" />
</g>
<g class="pl" fill="#FFF" stroke="#000" stroke-width="0.900">
  <circle cx="157.1" cy="513.4" r="5.4" />
  <circle cx="387.9" cy="514.6" r="5.4" />
  <circle cx="618.7" cy="533.3" r="5.4" />
  <circle cx="849.5" cy="549.9" r="5.4" />
</g>
<text transform="translate(945.6,565.6)" dy="6.5" font-size="21.60" fill="#000" stroke="none">Total (net)</text>
<text transform="translate(945.6,287.5)" dy="6.5" font-size="21.60" fill="#3988BD" stroke="none">Living biomass (net)</text>
<text transform="translate(945.6,524.1)" dy="6.5" font-size="21.60" fill="#D5AF54" stroke="none">Litter (net)</text>
<text transform="translate(945.6,544.8)" dy="6.5" font-size="21.60" fill="#834B8E" stroke="none">Mineral Soils (net)</text>
<polyline class="pl" points="910.8,551.2 912.4,551.2 913.8,551.3 915.2,551.6 916.4,551.9 917.6,552.3 918.8,552.7 919.8,553.3 920.8,553.8 921.7,554.5 922.7,555.1 923.5,555.8 924.4,556.5 925.2,557.2 926.0,558.0 926.8,558.7 927.6,559.5 928.4,560.2 929.3,560.9 930.1,561.6 931.1,562.3 932.0,562.9 933.0,563.5 934.0,564.0 935.2,564.4 936.4,564.8 937.6,565.1 939.0,565.4 940.4,565.5 942.0,565.6" stroke="#000" stroke-width="0.90" stroke-opacity="1.00" fill="none" />
<polyline class="pl" points="910.8,534.2 912.4,534.2 913.8,534.1 915.2,533.9 916.4,533.7 917.6,533.4 918.8,533.1 919.8,532.8 920.8,532.4 921.7,531.9 922.7,531.5 923.5,531.0 924.4,530.5 925.2,530.0 926.0,529.4 926.8,528.9 927.6,528.4 928.4,527.9 929.3,527.4 930.1,526.9 931.1,526.4 932.0,526.0 933.0,525.6 934.0,525.2 935.2,524.9 936.4,524.6 937.6,524.4 939.0,524.3 940.4,524.2 942.0,524.1" stroke="#D5AF54" stroke-width="0.90" stroke-opacity="1.00" fill="none" />
<polyline class="pl" points="910.8,549.1 912.4,549.1 913.8,549.1 915.2,549.0 916.4,548.9 917.6,548.8 918.8,548.7 919.8,548.5 920.8,548.3 921.7,548.1 922.7,548.0 923.5,547.7 924.4,547.5 925.2,547.3 926.0,547.1 926.8,546.9 927.6,546.7 928.4,546.4 929.3,546.2 930.1,546.0 931.1,545.8 932.0,545.6 933.0,545.5 934.0,545.3 935.2,545.2 936.4,545.1 937.6,545.0 939.0,544.9 940.4,544.9 942.0,544.8" stroke="#834B8E" stroke-width="0.90" stroke-opacity="1.00" fill="none" />
<text transform="translate(160.0,666.1)" font-size="19.80" font-family="Helvetica" fill="#BFBFBF" stroke="none" xml:space="preserve">CICERO   &#9679;   Data: UNFCCC (2024)</text>
<g>
  <rect x="123.0" y="651.4" width="34" height="17" fill="#FFF" stroke="none" opacity="0.01"/>
  <g transform="translate(124.0,652.4) scale(0.24)">
  <g><circle fill="#FFF" cx="37.79" cy="28.5" r="28.84"/>
     <circle fill="none" cx="37.79" cy="28.5" r="28.84" stroke="#BFBFBF" stroke-width="5.5"/>
     <path fill="#BFBFBF" d="M37.16,23.19 l-4.29,2.23c-0.458-0.951-1.02-1.62-1.69-2c-0.667-0.38-1.29-0.571-1.86-0.571c-2.86,0-4.29,1.89-4.29,5.66 c0,1.71,0.36,3.08,1.09,4.11c0.724,1.03,1.79,1.54,3.2,1.54c1.87,0,3.18-0.915,3.94-2.74l3.94,2 c-0.838,1.56-2,2.79-3.49,3.69c-1.48,0.896-3.12,1.34-4.91,1.34c-2.86,0-5.16-0.875-6.92-2.63 c-1.75-1.75-2.63-4.19-2.63-7.31c0-3.05,0.886-5.47,2.66-7.26c1.77-1.79,4.01-2.69,6.72-2.69 C32.6,18.56,35.44,20.1,37.16,23.19z
              M55.61,23.19l-4.23,2.23c-0.457-0.951-1.02-1.62-1.69-2 c-0.668-0.38-1.31-0.571-1.91-0.571c-2.86,0-4.29,1.89-4.29,5.66c0,1.71,0.363,3.08,1.09,4.11 c0.723,1.03,1.79,1.54,3.2,1.54c1.87,0,3.18-0.915,3.94-2.74l4,2c-0.875,1.56-2.06,2.79-3.54,3.69 c-1.49,0.9-3.11,1.34-4.86,1.34c-2.9,0-5.21-0.875-6.94-2.63c-1.74-1.75-2.6-4.19-2.6-7.31 c0-3.05,0.885-5.47,2.66-7.26c1.77-1.79,4.01-2.69,6.71-2.69C51.12,18.56,53.944,20.1,55.61,23.19z"/>
  </g></g>
  <g transform="translate(140.2,652.4) scale(0.24)">
  <g><circle fill="#FFF" cx="37.79" cy="28.5" r="28.84"/>
     <circle fill="none" cx="37.79" cy="28.5" r="28.84" stroke="#BFBFBF" stroke-width="5.5"/>
     <path fill="#BFBFBF" d="M46.129,20.557v13.085h-3.656v15.542h-9.944V33.643h-3.656V20.557 c0-0.572,0.2-1.057,0.599-1.457c0.401-0.399,0.887-0.6,1.457-0.6h13.144c0.533,0,1.01,0.2,1.428,0.6 C45.918,19.5,46.129,19.986,46.129,20.557z
              M33.042,12.329c0-3.008,1.485-4.514,4.458-4.514s4.457,1.504,4.457,4.514 c0,2.971-1.486,4.457-4.457,4.457S33.042,15.3,33.042,12.329z"/>
  </g></g>
</g>
</g>
</svg>
