<svg version="1.1" xmlns="http://www.w3.org/2000/svg" xmlns:xlink="http://www.w3.org/1999/xlink" width="100%" height="100%" viewBox="0 0 1200.000 674.916">
<title>Annual Greenhouse Gas Emissions: Tajikistan</title>
<style type="text/css">
  #main {font-family:Helvetica,Arial,sans-serif; font-size:27.00px;
         fill-opacity:1; fill:#000000; stroke:none; stroke-linejoin:round; stroke-linecap:round; stroke-width:1.00;}
  .marker {stroke-opacity:0;fill-opacity:0;}
  .marker:hover {stroke-opacity:0.5; fill-opacity:1;}
  .ticklabel {font-size:27.00px;fill:#808080;stroke:none;font-family:Helvetica}
  .ytl {text-anchor:end;}
  .dp1 {pointer-events:none;font-size:70%;text-anchor:middle;fill:#000000;}
  .dp2 {pointer-events:none;font-size:70%;text-anchor:middle;fill:#FFFFFF;}
  .numtip {pointer-events:none;}
  .cc {opacity:0.25;}
.dl_fe {background-color:#FDFFDF;display:flex;margin:auto;align-items:center}
.dl_fe_p {font-size:20px;text-align:center;margin:3px}
.dl_el {display:none;pointer-events:none;}
.cc:hover + .dl_el {display:block;}
text:hover + .dl_el {display:block;}
</style>
<defs>
  <clipPath id="axis_clip"><rect x="145.8" y="54.2" width="761.2" height="532.8" /></clipPath>
  <path id="line_y" d="M 0,53.993 v 533.183" stroke="#262626" stroke-opacity="0.15" stroke-width="1.00"/>
  <path id="line_x" d="M 145.600,0 h 761.600" stroke="#262626" stroke-opacity="0.15" stroke-width="1.00"/>
  <path id="tick_y" d="M 145.600,0 h -6.000" stroke="#808080" stroke-width="0.90"/>
  <path id="tick_x" d="M 0,587.177 v 6.000" stroke="#808080" stroke-width="0.90"/>
</defs>
<g id="main">
<use xlink:href="#line_y" transform="translate(157.1,0)"/>
<use xlink:href="#line_y" transform="translate(272.5,0)"/>
<use xlink:href="#line_y" transform="translate(387.9,0)"/>
<use xlink:href="#line_y" transform="translate(503.3,0)"/>
<use xlink:href="#line_y" transform="translate(618.7,0)"/>
<use xlink:href="#line_y" transform="translate(734.1,0)"/>
<use xlink:href="#line_y" transform="translate(895.7,0)"/>
<use xlink:href="#line_x" transform="translate(0,511.0)"/>
<use xlink:href="#line_x" transform="translate(0,358.7)"/>
<use xlink:href="#line_x" transform="translate(0,206.3)"/>
<use xlink:href="#line_x" transform="translate(0,54.0)"/>
<use xlink:href="#tick_y" transform="translate(0,511.0)"/>
<use xlink:href="#tick_y" transform="translate(0,358.7)"/>
<use xlink:href="#tick_y" transform="translate(0,206.3)"/>
<use xlink:href="#tick_y" transform="translate(0,54.0)"/>
<use xlink:href="#tick_x" transform="translate(157.1,0)"/>
<use xlink:href="#tick_x" transform="translate(272.5,0)"/>
<use xlink:href="#tick_x" transform="translate(387.9,0)"/>
<use xlink:href="#tick_x" transform="translate(503.3,0)"/>
<use xlink:href="#tick_x" transform="translate(618.7,0)"/>
<use xlink:href="#tick_x" transform="translate(734.1,0)"/>
<use xlink:href="#tick_x" transform="translate(895.7,0)"/>
<polyline points="145.6,53.993 145.6,587.177 907.2,587.177" stroke="#808080" stroke-width="0.90" fill="none"/>
<text class="ticklabel xtl" transform="translate(157.1,629.0)" text-anchor="middle">1990</text>
<text class="ticklabel xtl" transform="translate(272.5,629.0)" text-anchor="middle">1995</text>
<text class="ticklabel xtl" transform="translate(387.9,629.0)" text-anchor="middle">2000</text>
<text class="ticklabel xtl" transform="translate(503.3,629.0)" text-anchor="middle">2005</text>
<text class="ticklabel xtl" transform="translate(618.7,629.0)" text-anchor="middle">2010</text>
<text class="ticklabel xtl" transform="translate(734.1,629.0)" text-anchor="middle">2015</text>
<text class="ticklabel xtl" transform="translate(895.7,629.0)" text-anchor="middle">2022</text>
<text class="ticklabel ytl" transform="translate(128.8,519.1)">0</text>
<text class="ticklabel ytl" transform="translate(128.8,366.8)">10</text>
<text class="ticklabel ytl" transform="translate(128.8,214.4)">20</text>
<text class="ticklabel ytl" transform="translate(128.8,62.1)">30 Mt</text>
<g stroke="#000" stroke-width="0.90" fill="#7FBF7F"  clip-path="url(#axis_clip)">
  <polygon class="pl" points="147.9,113.5 147.9,139.5 166.4,139.5 166.4,113.5 147.9,113.5"/>
  <polygon class="pl" points="171.0,205.2 171.0,231.2 189.4,231.2 189.4,205.2 171.0,205.2"/>
  <polygon class="pl" points="194.1,264.1 194.1,290.0 212.5,290.0 212.5,264.1 194.1,264.1"/>
  <polygon class="pl" points="217.1,317.3 217.1,343.2 235.6,343.2 235.6,317.3 217.1,317.3"/>
  <polygon class="pl" points="240.2,340.6 240.2,366.6 258.7,366.6 258.7,340.6 240.2,340.6"/>
  <polygon class="pl" points="263.3,351.2 263.3,377.1 281.8,377.1 281.8,351.2 263.3,351.2"/>
  <polygon class="pl" points="286.4,373.3 286.4,399.2 304.8,399.2 304.8,373.3 286.4,373.3"/>
  <polygon class="pl" points="309.5,376.7 309.5,402.6 327.9,402.6 327.9,376.7 309.5,376.7"/>
  <polygon class="pl" points="332.5,379.2 332.5,405.1 351.0,405.1 351.0,379.2 332.5,379.2"/>
  <polygon class="pl" points="355.6,376.9 355.6,402.8 374.1,402.8 374.1,376.9 355.6,376.9"/>
  <polygon class="pl" points="378.7,372.3 378.7,398.2 397.2,398.2 397.2,372.3 378.7,372.3"/>
  <polygon class="pl" points="401.8,354.0 401.8,381.5 420.2,381.5 420.2,354.0 401.8,354.0"/>
  <polygon class="pl" points="424.9,350.7 424.9,379.1 443.3,379.1 443.3,350.7 424.9,350.7"/>
  <polygon class="pl" points="447.9,341.8 447.9,371.0 466.4,371.0 466.4,341.8 447.9,341.8"/>
  <polygon class="pl" points="471.0,325.8 471.0,355.8 489.5,355.8 489.5,325.8 471.0,325.8"/>
  <polygon class="pl" points="494.1,322.7 494.1,353.6 512.6,353.6 512.6,322.7 494.1,322.7"/>
  <polygon class="pl" points="517.2,322.4 517.2,354.2 535.6,354.2 535.6,322.4 517.2,322.4"/>
  <polygon class="pl" points="540.2,302.9 540.2,335.6 558.7,335.6 558.7,302.9 540.2,302.9"/>
  <polygon class="pl" points="563.3,302.6 563.3,336.1 581.8,336.1 581.8,302.6 563.3,302.6"/>
  <polygon class="pl" points="586.4,313.4 586.4,347.8 604.9,347.8 604.9,313.4 586.4,313.4"/>
  <polygon class="pl" points="609.5,310.5 609.5,345.8 627.9,345.8 627.9,310.5 609.5,310.5"/>
  <polygon class="pl" points="632.6,310.2 632.6,346.4 651.0,346.4 651.0,310.2 632.6,310.2"/>
  <polygon class="pl" points="655.6,303.5 655.6,330.2 674.1,330.2 674.1,303.5 655.6,303.5"/>
  <polygon class="pl" points="678.7,303.6 678.7,326.7 697.2,326.7 697.2,303.6 678.7,303.6"/>
  <polygon class="pl" points="701.8,284.6 701.8,304.1 720.3,304.1 720.3,284.6 701.8,284.6"/>
  <polygon class="pl" points="724.9,278.1 724.9,294.1 743.3,294.1 743.3,278.1 724.9,278.1"/>
  <polygon class="pl" points="748.0,267.3 748.0,279.6 766.4,279.6 766.4,267.3 748.0,267.3"/>
  <polygon class="pl" points="771.0,253.4 771.0,262.2 789.5,262.2 789.5,253.4 771.0,253.4"/>
  <polygon class="pl" points="794.1,237.1 794.1,242.3 812.6,242.3 812.6,237.1 794.1,237.1"/>
  <polygon class="pl" points="817.2,223.5 817.2,225.0 835.7,225.0 835.7,223.5 817.2,223.5"/>
</g>
<g stroke="#000" stroke-width="0.90" fill="#DBA746"  clip-path="url(#axis_clip)">
  <polygon class="pl" points="147.9,139.5 147.9,160.7 166.4,160.7 166.4,139.5 147.9,139.5"/>
  <polygon class="pl" points="171.0,231.2 171.0,249.1 189.4,249.1 189.4,231.2 171.0,231.2"/>
  <polygon class="pl" points="194.1,290.0 194.1,306.3 212.5,306.3 212.5,290.0 194.1,290.0"/>
  <polygon class="pl" points="217.1,343.2 217.1,355.1 235.6,355.1 235.6,343.2 217.1,343.2"/>
  <polygon class="pl" points="240.2,366.6 240.2,377.7 258.7,377.7 258.7,366.6 240.2,366.6"/>
  <polygon class="pl" points="263.3,377.1 263.3,388.3 281.8,388.3 281.8,377.1 263.3,377.1"/>
  <polygon class="pl" points="286.4,399.2 286.4,408.6 304.8,408.6 304.8,399.2 286.4,399.2"/>
  <polygon class="pl" points="309.5,402.6 309.5,411.6 327.9,411.6 327.9,402.6 309.5,402.6"/>
  <polygon class="pl" points="332.5,405.1 332.5,414.4 351.0,414.4 351.0,405.1 332.5,405.1"/>
  <polygon class="pl" points="355.6,402.8 355.6,413.7 374.1,413.7 374.1,402.8 355.6,402.8"/>
  <polygon class="pl" points="378.7,398.2 378.7,411.0 397.2,411.0 397.2,398.2 378.7,398.2"/>
  <polygon class="pl" points="401.8,381.5 401.8,395.2 420.2,395.2 420.2,381.5 401.8,381.5"/>
  <polygon class="pl" points="424.9,379.1 424.9,393.7 443.3,393.7 443.3,379.1 424.9,379.1"/>
  <polygon class="pl" points="447.9,371.0 447.9,386.2 466.4,386.2 466.4,371.0 447.9,371.0"/>
  <polygon class="pl" points="471.0,355.8 471.0,372.9 489.5,372.9 489.5,355.8 471.0,355.8"/>
  <polygon class="pl" points="494.1,353.6 494.1,371.7 512.6,371.7 512.6,353.6 494.1,353.6"/>
  <polygon class="pl" points="517.2,354.2 517.2,374.1 535.6,374.1 535.6,354.2 517.2,354.2"/>
  <polygon class="pl" points="540.2,335.6 540.2,355.9 558.7,355.9 558.7,335.6 540.2,335.6"/>
  <polygon class="pl" points="563.3,336.1 563.3,355.5 581.8,355.5 581.8,336.1 563.3,336.1"/>
  <polygon class="pl" points="586.4,347.8 586.4,365.4 604.9,365.4 604.9,347.8 586.4,347.8"/>
  <polygon class="pl" points="609.5,345.8 609.5,363.1 627.9,363.1 627.9,345.8 609.5,345.8"/>
  <polygon class="pl" points="632.6,346.4 632.6,360.5 651.0,360.5 651.0,346.4 632.6,346.4"/>
  <polygon class="pl" points="655.6,330.2 655.6,344.2 674.1,344.2 674.1,330.2 655.6,330.2"/>
  <polygon class="pl" points="678.7,326.7 678.7,338.3 697.2,338.3 697.2,326.7 678.7,326.7"/>
  <polygon class="pl" points="701.8,304.1 701.8,311.6 720.3,311.6 720.3,304.1 701.8,304.1"/>
  <polygon class="pl" points="724.9,294.1 724.9,302.4 743.3,302.4 743.3,294.1 724.9,294.1"/>
  <polygon class="pl" points="748.0,279.6 748.0,287.8 766.4,287.8 766.4,279.6 748.0,279.6"/>
  <polygon class="pl" points="771.0,262.2 771.0,269.3 789.5,269.3 789.5,262.2 771.0,262.2"/>
  <polygon class="pl" points="794.1,242.3 794.1,249.3 812.6,249.3 812.6,242.3 794.1,242.3"/>
  <polygon class="pl" points="817.2,225.0 817.2,232.5 835.7,232.5 835.7,225.0 817.2,225.0"/>
  <polygon class="pl" points="840.3,218.8 840.3,225.8 858.7,225.8 858.7,218.8 840.3,218.8"/>
  <polygon class="pl" points="863.4,213.9 863.4,219.9 881.8,219.9 881.8,213.9 863.4,213.9"/>
  <polygon class="pl" points="886.4,203.4 886.4,209.7 904.9,209.7 904.9,203.4 886.4,203.4"/>
</g>
<g stroke="#000" stroke-width="0.90" fill="#845F48"  clip-path="url(#axis_clip)">
  <polygon class="pl" points="147.9,160.7 147.9,192.4 166.4,192.4 166.4,160.7 147.9,160.7"/>
  <polygon class="pl" points="171.0,249.1 171.0,280.9 189.4,280.9 189.4,249.1 171.0,249.1"/>
  <polygon class="pl" points="194.1,306.3 194.1,335.8 212.5,335.8 212.5,306.3 194.1,306.3"/>
  <polygon class="pl" points="217.1,355.1 217.1,380.0 235.6,380.0 235.6,355.1 217.1,355.1"/>
  <polygon class="pl" points="240.2,377.7 240.2,399.7 258.7,399.7 258.7,377.7 240.2,377.7"/>
  <polygon class="pl" points="263.3,388.3 263.3,409.8 281.8,409.8 281.8,388.3 263.3,388.3"/>
  <polygon class="pl" points="286.4,408.6 286.4,427.3 304.8,427.3 304.8,408.6 286.4,408.6"/>
  <polygon class="pl" points="309.5,411.6 309.5,430.7 327.9,430.7 327.9,411.6 309.5,411.6"/>
  <polygon class="pl" points="332.5,414.4 332.5,432.0 351.0,432.0 351.0,414.4 332.5,414.4"/>
  <polygon class="pl" points="355.6,413.7 355.6,431.0 374.1,431.0 374.1,413.7 355.6,413.7"/>
  <polygon class="pl" points="378.7,411.0 378.7,428.6 397.2,428.6 397.2,411.0 378.7,411.0"/>
  <polygon class="pl" points="401.8,395.2 401.8,412.3 420.2,412.3 420.2,395.2 401.8,395.2"/>
  <polygon class="pl" points="424.9,393.7 424.9,413.3 443.3,413.3 443.3,393.7 424.9,393.7"/>
  <polygon class="pl" points="447.9,386.2 447.9,407.0 466.4,407.0 466.4,386.2 447.9,386.2"/>
  <polygon class="pl" points="471.0,372.9 471.0,398.4 489.5,398.4 489.5,372.9 471.0,372.9"/>
  <polygon class="pl" points="494.1,371.7 494.1,394.0 512.6,394.0 512.6,371.7 494.1,371.7"/>
  <polygon class="pl" points="517.2,374.1 517.2,398.3 535.6,398.3 535.6,374.1 517.2,374.1"/>
  <polygon class="pl" points="540.2,355.9 540.2,382.3 558.7,382.3 558.7,355.9 540.2,355.9"/>
  <polygon class="pl" points="563.3,355.5 563.3,383.7 581.8,383.7 581.8,355.5 563.3,355.5"/>
  <polygon class="pl" points="586.4,365.4 586.4,391.5 604.9,391.5 604.9,365.4 586.4,365.4"/>
  <polygon class="pl" points="609.5,363.1 609.5,388.0 627.9,388.0 627.9,363.1 609.5,363.1"/>
  <polygon class="pl" points="632.6,360.5 632.6,385.6 651.0,385.6 651.0,360.5 632.6,360.5"/>
  <polygon class="pl" points="655.6,344.2 655.6,370.9 674.1,370.9 674.1,344.2 655.6,344.2"/>
  <polygon class="pl" points="678.7,338.3 678.7,366.7 697.2,366.7 697.2,338.3 678.7,338.3"/>
  <polygon class="pl" points="701.8,311.6 701.8,340.4 720.3,340.4 720.3,311.6 701.8,311.6"/>
  <polygon class="pl" points="724.9,302.4 724.9,332.2 743.3,332.2 743.3,302.4 724.9,302.4"/>
  <polygon class="pl" points="748.0,287.8 748.0,320.2 766.4,320.2 766.4,287.8 748.0,287.8"/>
  <polygon class="pl" points="771.0,269.3 771.0,302.4 789.5,302.4 789.5,269.3 771.0,269.3"/>
  <polygon class="pl" points="794.1,249.3 794.1,282.8 812.6,282.8 812.6,249.3 794.1,249.3"/>
  <polygon class="pl" points="817.2,232.5 817.2,266.8 835.7,266.8 835.7,232.5 817.2,232.5"/>
  <polygon class="pl" points="840.3,225.8 840.3,260.9 858.7,260.9 858.7,225.8 840.3,225.8"/>
  <polygon class="pl" points="863.4,219.9 863.4,255.1 881.8,255.1 881.8,219.9 863.4,219.9"/>
  <polygon class="pl" points="886.4,209.7 886.4,247.0 904.9,247.0 904.9,209.7 886.4,209.7"/>
</g>
<g stroke="#000" stroke-width="0.90" fill="#4A89E8"  clip-path="url(#axis_clip)">
  <polygon class="pl" points="147.9,192.4 147.9,259.9 166.4,259.9 166.4,192.4 147.9,192.4"/>
  <polygon class="pl" points="171.0,280.9 171.0,347.5 189.4,347.5 189.4,280.9 171.0,280.9"/>
  <polygon class="pl" points="194.1,335.8 194.1,397.7 212.5,397.7 212.5,335.8 194.1,335.8"/>
  <polygon class="pl" points="217.1,380.0 217.1,440.7 235.6,440.7 235.6,380.0 217.1,380.0"/>
  <polygon class="pl" points="240.2,399.7 240.2,458.1 258.7,458.1 258.7,399.7 240.2,399.7"/>
  <polygon class="pl" points="263.3,409.8 263.3,466.3 281.8,466.3 281.8,409.8 263.3,409.8"/>
  <polygon class="pl" points="286.4,427.3 286.4,480.4 304.8,480.4 304.8,427.3 286.4,427.3"/>
  <polygon class="pl" points="309.5,430.7 309.5,483.4 327.9,483.4 327.9,430.7 309.5,430.7"/>
  <polygon class="pl" points="332.5,432.0 332.5,483.7 351.0,483.7 351.0,432.0 332.5,432.0"/>
  <polygon class="pl" points="355.6,431.0 355.6,483.3 374.1,483.3 374.1,431.0 355.6,431.0"/>
  <polygon class="pl" points="378.7,428.6 378.7,482.4 397.2,482.4 397.2,428.6 378.7,428.6"/>
  <polygon class="pl" points="401.8,412.3 401.8,467.7 420.2,467.7 420.2,412.3 401.8,412.3"/>
  <polygon class="pl" points="424.9,413.3 424.9,469.9 443.3,469.9 443.3,413.3 424.9,413.3"/>
  <polygon class="pl" points="447.9,407.0 447.9,466.4 466.4,466.4 466.4,407.0 447.9,407.0"/>
  <polygon class="pl" points="471.0,398.4 471.0,461.0 489.5,461.0 489.5,398.4 471.0,398.4"/>
  <polygon class="pl" points="494.1,394.0 494.1,459.6 512.6,459.6 512.6,394.0 494.1,394.0"/>
  <polygon class="pl" points="517.2,398.3 517.2,465.8 535.6,465.8 535.6,398.3 517.2,398.3"/>
  <polygon class="pl" points="540.2,382.3 540.2,458.8 558.7,458.8 558.7,382.3 540.2,382.3"/>
  <polygon class="pl" points="563.3,383.7 563.3,463.2 581.8,463.2 581.8,383.7 563.3,383.7"/>
  <polygon class="pl" points="586.4,391.5 586.4,472.7 604.9,472.7 604.9,391.5 586.4,391.5"/>
  <polygon class="pl" points="609.5,388.0 609.5,471.7 627.9,471.7 627.9,388.0 609.5,388.0"/>
  <polygon class="pl" points="632.6,385.6 632.6,472.6 651.0,472.6 651.0,385.6 632.6,385.6"/>
  <polygon class="pl" points="655.6,370.9 655.6,461.1 674.1,461.1 674.1,370.9 655.6,370.9"/>
  <polygon class="pl" points="678.7,366.7 678.7,459.4 697.2,459.4 697.2,366.7 678.7,366.7"/>
  <polygon class="pl" points="701.8,340.4 701.8,436.2 720.3,436.2 720.3,340.4 701.8,340.4"/>
  <polygon class="pl" points="724.9,332.2 724.9,431.8 743.3,431.8 743.3,332.2 724.9,332.2"/>
  <polygon class="pl" points="748.0,320.2 748.0,418.7 766.4,418.7 766.4,320.2 748.0,320.2"/>
  <polygon class="pl" points="771.0,302.4 771.0,402.0 789.5,402.0 789.5,302.4 771.0,302.4"/>
  <polygon class="pl" points="794.1,282.8 794.1,383.5 812.6,383.5 812.6,282.8 794.1,282.8"/>
  <polygon class="pl" points="817.2,266.8 817.2,369.3 835.7,369.3 835.7,266.8 817.2,266.8"/>
  <polygon class="pl" points="840.3,260.9 840.3,365.5 858.7,365.5 858.7,260.9 840.3,260.9"/>
  <polygon class="pl" points="863.4,255.1 863.4,363.0 881.8,363.0 881.8,255.1 863.4,255.1"/>
  <polygon class="pl" points="886.4,247.0 886.4,359.3 904.9,359.3 904.9,247.0 886.4,247.0"/>
</g>
<g stroke="#000" stroke-width="0.90" fill="#FF7F61"  clip-path="url(#axis_clip)">
  <polygon class="pl" points="147.9,259.9 147.9,511.0 166.4,511.0 166.4,259.9 147.9,259.9"/>
  <polygon class="pl" points="171.0,347.5 171.0,511.0 189.4,511.0 189.4,347.5 171.0,347.5"/>
  <polygon class="pl" points="194.1,397.7 194.1,511.0 212.5,511.0 212.5,397.7 194.1,397.7"/>
  <polygon class="pl" points="217.1,440.7 217.1,511.0 235.6,511.0 235.6,440.7 217.1,440.7"/>
  <polygon class="pl" points="240.2,458.1 240.2,511.0 258.7,511.0 258.7,458.1 240.2,458.1"/>
  <polygon class="pl" points="263.3,466.3 263.3,511.0 281.8,511.0 281.8,466.3 263.3,466.3"/>
  <polygon class="pl" points="286.4,480.4 286.4,511.0 304.8,511.0 304.8,480.4 286.4,480.4"/>
  <polygon class="pl" points="309.5,483.4 309.5,511.0 327.9,511.0 327.9,483.4 309.5,483.4"/>
  <polygon class="pl" points="332.5,483.7 332.5,511.0 351.0,511.0 351.0,483.7 332.5,483.7"/>
  <polygon class="pl" points="355.6,483.3 355.6,511.0 374.1,511.0 374.1,483.3 355.6,483.3"/>
  <polygon class="pl" points="378.7,482.4 378.7,511.0 397.2,511.0 397.2,482.4 378.7,482.4"/>
  <polygon class="pl" points="401.8,467.7 401.8,511.0 420.2,511.0 420.2,467.7 401.8,467.7"/>
  <polygon class="pl" points="424.9,469.9 424.9,511.0 443.3,511.0 443.3,469.9 424.9,469.9"/>
  <polygon class="pl" points="447.9,466.4 447.9,511.0 466.4,511.0 466.4,466.4 447.9,466.4"/>
  <polygon class="pl" points="471.0,461.0 471.0,511.0 489.5,511.0 489.5,461.0 471.0,461.0"/>
  <polygon class="pl" points="494.1,459.6 494.1,511.0 512.6,511.0 512.6,459.6 494.1,459.6"/>
  <polygon class="pl" points="517.2,465.8 517.2,511.0 535.6,511.0 535.6,465.8 517.2,465.8"/>
  <polygon class="pl" points="540.2,458.8 540.2,511.0 558.7,511.0 558.7,458.8 540.2,458.8"/>
  <polygon class="pl" points="563.3,463.2 563.3,511.0 581.8,511.0 581.8,463.2 563.3,463.2"/>
  <polygon class="pl" points="586.4,472.7 586.4,511.0 604.9,511.0 604.9,472.7 586.4,472.7"/>
  <polygon class="pl" points="609.5,471.7 609.5,511.0 627.9,511.0 627.9,471.7 609.5,471.7"/>
  <polygon class="pl" points="632.6,472.6 632.6,511.0 651.0,511.0 651.0,472.6 632.6,472.6"/>
  <polygon class="pl" points="655.6,461.1 655.6,511.0 674.1,511.0 674.1,461.1 655.6,461.1"/>
  <polygon class="pl" points="678.7,459.4 678.7,511.0 697.2,511.0 697.2,459.4 678.7,459.4"/>
  <polygon class="pl" points="701.8,436.2 701.8,511.0 720.3,511.0 720.3,436.2 701.8,436.2"/>
  <polygon class="pl" points="724.9,431.8 724.9,511.0 743.3,511.0 743.3,431.8 724.9,431.8"/>
  <polygon class="pl" points="748.0,418.7 748.0,511.0 766.4,511.0 766.4,418.7 748.0,418.7"/>
  <polygon class="pl" points="771.0,402.0 771.0,511.0 789.5,511.0 789.5,402.0 771.0,402.0"/>
  <polygon class="pl" points="794.1,383.5 794.1,511.0 812.6,511.0 812.6,383.5 794.1,383.5"/>
  <polygon class="pl" points="817.2,369.3 817.2,511.0 835.7,511.0 835.7,369.3 817.2,369.3"/>
  <polygon class="pl" points="840.3,365.5 840.3,511.0 858.7,511.0 858.7,365.5 840.3,365.5"/>
  <polygon class="pl" points="863.4,363.0 863.4,511.0 881.8,511.0 881.8,363.0 863.4,363.0"/>
  <polygon class="pl" points="886.4,359.3 886.4,511.0 904.9,511.0 904.9,359.3 886.4,359.3"/>
</g>
<g stroke="#000" stroke-width="0.90" fill="#7FBF7F"  clip-path="url(#axis_clip)">
  <polygon class="pl" points="840.3,513.0 840.3,511.0 858.7,511.0 858.7,513.0 840.3,513.0"/>
  <polygon class="pl" points="863.4,517.5 863.4,511.0 881.8,511.0 881.8,517.5 863.4,517.5"/>
  <polygon class="pl" points="886.4,522.0 886.4,511.0 904.9,511.0 904.9,522.0 886.4,522.0"/>
</g>
<polyline class="pl" points="157.1,113.5 180.2,205.2 203.3,264.1 226.4,317.3 249.5,340.6 272.5,351.2 295.6,373.3 318.7,376.7 341.8,379.2 364.8,376.9 387.9,372.3 411.0,354.0 434.1,350.7 457.2,341.8 480.2,325.8 503.3,322.7 526.4,322.4 549.5,302.9 572.6,302.6 595.6,313.4 618.7,310.5 641.8,310.2 664.9,303.5 688.0,303.6 711.0,284.6 734.1,278.1 757.2,267.3 780.3,253.4 803.3,237.1 826.4,223.5 849.5,220.8 872.6,220.4 895.7,214.4" stroke="#000" stroke-width="5.40" stroke-opacity="1.00" fill="none" clip-path="url(#axis_clip)"/>
<g class="pl" fill="#FFF" stroke="#000" stroke-width="0.900">
  <circle cx="180.2" cy="205.2" r="2.2" />
  <circle cx="203.3" cy="264.1" r="2.2" />
  <circle cx="226.4" cy="317.3" r="2.2" />
  <circle cx="249.5" cy="340.6" r="2.2" />
  <circle cx="272.5" cy="351.2" r="2.2" />
  <circle cx="295.6" cy="373.3" r="2.2" />
  <circle cx="318.7" cy="376.7" r="2.2" />
  <circle cx="341.8" cy="379.2" r="2.2" />
  <circle cx="364.8" cy="376.9" r="2.2" />
  <circle cx="411.0" cy="354.0" r="2.2" />
  <circle cx="434.1" cy="350.7" r="2.2" />
  <circle cx="457.2" cy="341.8" r="2.2" />
  <circle cx="480.2" cy="325.8" r="2.2" />
  <circle cx="503.3" cy="322.7" r="2.2" />
  <circle cx="526.4" cy="322.4" r="2.2" />
  <circle cx="549.5" cy="302.9" r="2.2" />
  <circle cx="572.6" cy="302.6" r="2.2" />
  <circle cx="595.6" cy="313.4" r="2.2" />
  <circle cx="641.8" cy="310.2" r="2.2" />
  <circle cx="664.9" cy="303.5" r="2.2" />
  <circle cx="688.0" cy="303.6" r="2.2" />
  <circle cx="711.0" cy="284.6" r="2.2" />
  <circle cx="734.1" cy="278.1" r="2.2" />
  <circle cx="757.2" cy="267.3" r="2.2" />
  <circle cx="780.3" cy="253.4" r="2.2" />
  <circle cx="803.3" cy="237.1" r="2.2" />
  <circle cx="826.4" cy="223.5" r="2.2" />
  <circle cx="872.6" cy="220.4" r="2.2" />
  <circle cx="895.7" cy="214.4" r="2.2" />
</g>
<g class="pl" fill="#FFF" stroke="#000" stroke-width="0.900">
  <circle cx="157.1" cy="113.5" r="5.4" />
  <circle cx="387.9" cy="372.3" r="5.4" />
  <circle cx="618.7" cy="310.5" r="5.4" />
  <circle cx="849.5" cy="220.8" r="5.4" />
</g>
<text transform="translate(145.6,47.2)" dy="0.0" font-size="27.00" fill="#808080" stroke="none">Annual Greenhouse Gas Emissions: Tajikistan</text>
<text transform="translate(130.0,81.7)" dy="8.1" font-size="27.00" fill="#808080" stroke="none" text-anchor="end">CO<tspan dy="0.2em"><tspan style="font-size:70%">2</tspan></tspan><tspan dy="-0.2em">e</tspan></text>
<text transform="translate(945.6,225.2)" dy="7.6" font-size="25.20" fill="#000" stroke="none">-25.4% since 1990</text>
<text transform="translate(945.6,435.1)" dy="7.6" font-size="25.20" fill="#FF7F61" stroke="none">Fossil CO<tspan dy="0.2em"><tspan style="font-size:70%">2</tspan></tspan><tspan dy="-0.2em"></tspan></text>
<text transform="translate(945.6,303.1)" dy="7.6" font-size="25.20" fill="#4A89E8" stroke="none">CH<tspan dy="0.2em"><tspan style="font-size:70%">4</tspan></tspan><tspan dy="-0.2em"></tspan></text>
<text transform="translate(945.6,249.7)" dy="7.6" font-size="25.20" fill="#845F48" stroke="none">N<tspan dy="0.2em"><tspan style="font-size:70%">2</tspan></tspan><tspan dy="-0.2em">O</tspan></text>
<text transform="translate(945.6,200.8)" dy="7.6" font-size="25.20" fill="#DBA746" stroke="none">F-gas</text>
<text transform="translate(945.6,176.3)" dy="7.6" font-size="25.20" fill="#7FBF7F" stroke="none">LULUCF</text>
<text transform="translate(945.6,516.5)" dy="7.6" font-size="25.20" fill="#7FBF7F" stroke="none">LULUCF</text>
<polyline class="pl" points="910.8,214.4 912.4,214.5 913.8,214.6 915.2,214.8 916.4,215.0 917.6,215.3 918.8,215.6 919.8,216.0 920.8,216.4 921.7,216.9 922.7,217.4 923.5,217.9 924.4,218.5 925.2,219.0 926.0,219.6 926.8,220.1 927.6,220.7 928.4,221.2 929.3,221.8 930.1,222.3 931.1,222.8 932.0,223.2 933.0,223.7 934.0,224.1 935.2,224.4 936.4,224.7 937.6,224.9 939.0,225.1 940.4,225.2 942.0,225.2" stroke="#000" stroke-width="0.90" stroke-opacity="1.00" fill="none" />
<polyline class="pl" points="910.8,228.4 912.4,228.4 913.8,228.7 915.2,229.0 916.4,229.5 917.6,230.1 918.8,230.7 919.8,231.5 920.8,232.3 921.7,233.3 922.7,234.2 923.5,235.3 924.4,236.3 925.2,237.4 926.0,238.5 926.8,239.6 927.6,240.7 928.4,241.8 929.3,242.9 930.1,243.9 931.1,244.8 932.0,245.8 933.0,246.6 934.0,247.4 935.2,248.1 936.4,248.6 937.6,249.1 939.0,249.5 940.4,249.7 942.0,249.7" stroke="#845F48" stroke-width="0.90" stroke-opacity="1.00" fill="none" />
<polyline class="pl" points="910.8,206.6 912.4,206.5 913.8,206.5 915.2,206.4 916.4,206.3 917.6,206.1 918.8,205.9 919.8,205.7 920.8,205.5 921.7,205.2 922.7,205.0 923.5,204.7 924.4,204.4 925.2,204.1 926.0,203.8 926.8,203.5 927.6,203.2 928.4,202.9 929.3,202.6 930.1,202.3 931.1,202.1 932.0,201.8 933.0,201.6 934.0,201.4 935.2,201.2 936.4,201.1 937.6,200.9 939.0,200.8 940.4,200.8 942.0,200.8" stroke="#DBA746" stroke-width="0.90" stroke-opacity="1.00" fill="none" />
<polyline class="pl" points="910.8,202.6 912.4,202.6 913.8,202.3 915.2,201.9 916.4,201.3 917.6,200.6 918.8,199.7 919.8,198.8 920.8,197.7 921.7,196.6 922.7,195.4 923.5,194.1 924.4,192.8 925.2,191.5 926.0,190.1 926.8,188.8 927.6,187.4 928.4,186.1 929.3,184.8 930.1,183.5 931.1,182.3 932.0,181.2 933.0,180.1 934.0,179.2 935.2,178.3 936.4,177.6 937.6,177.0 939.0,176.6 940.4,176.3 942.0,176.3" stroke="#7FBF7F" stroke-width="0.90" stroke-opacity="1.00" fill="none" />
<text transform="translate(160.0,666.1)" font-size="19.80" font-family="Helvetica" fill="#BFBFBF" stroke="none" xml:space="preserve">CICERO   &#9679;   Data: UNFCCC (2024)</text>
<g>
  <rect x="123.0" y="651.4" width="34" height="17" fill="#FFF" stroke="none" opacity="0.01"/>
  <g transform="translate(124.0,652.4) scale(0.24)">
  <g><circle fill="#FFF" cx="37.79" cy="28.5" r="28.84"/>
     <circle fill="none" cx="37.79" cy="28.5" r="28.84" stroke="#BFBFBF" stroke-width="5.5"/>
     <path fill="#BFBFBF" d="M37.16,23.19 l-4.29,2.23c-0.458-0.951-1.02-1.62-1.69-2c-0.667-0.38-1.29-0.571-1.86-0.571c-2.86,0-4.29,1.89-4.29,5.66 c0,1.71,0.36,3.08,1.09,4.11c0.724,1.03,1.79,1.54,3.2,1.54c1.87,0,3.18-0.915,3.94-2.74l3.94,2 c-0.838,1.56-2,2.79-3.49,3.69c-1.48,0.896-3.12,1.34-4.91,1.34c-2.86,0-5.16-0.875-6.92-2.63 c-1.75-1.75-2.63-4.19-2.63-7.31c0-3.05,0.886-5.47,2.66-7.26c1.77-1.79,4.01-2.69,6.72-2.69 C32.6,18.56,35.44,20.1,37.16,23.19z
              M55.61,23.19l-4.23,2.23c-0.457-0.951-1.02-1.62-1.69-2 c-0.668-0.38-1.31-0.571-1.91-0.571c-2.86,0-4.29,1.89-4.29,5.66c0,1.71,0.363,3.08,1.09,4.11 c0.723,1.03,1.79,1.54,3.2,1.54c1.87,0,3.18-0.915,3.94-2.74l4,2c-0.875,1.56-2.06,2.79-3.54,3.69 c-1.49,0.9-3.11,1.34-4.86,1.34c-2.9,0-5.21-0.875-6.94-2.63c-1.74-1.75-2.6-4.19-2.6-7.31 c0-3.05,0.885-5.47,2.66-7.26c1.77-1.79,4.01-2.69,6.71-2.69C51.12,18.56,53.944,20.1,55.61,23.19z"/>
  </g></g>
  <g transform="translate(140.2,652.4) scale(0.24)">
  <g><circle fill="#FFF" cx="37.79" cy="28.5" r="28.84"/>
     <circle fill="none" cx="37.79" cy="28.5" r="28.84" stroke="#BFBFBF" stroke-width="5.5"/>
     <path fill="#BFBFBF" d="M46.129,20.557v13.085h-3.656v15.542h-9.944V33.643h-3.656V20.557 c0-0.572,0.2-1.057,0.599-1.457c0.401-0.399,0.887-0.6,1.457-0.6h13.144c0.533,0,1.01,0.2,1.428,0.6 C45.918,19.5,46.129,19.986,46.129,20.557z
              M33.042,12.329c0-3.008,1.485-4.514,4.458-4.514s4.457,1.504,4.457,4.514 c0,2.971-1.486,4.457-4.457,4.457S33.042,15.3,33.042,12.329z"/>
  </g></g>
</g>
</g>
</svg>
