<svg version="1.1" xmlns="http://www.w3.org/2000/svg" xmlns:xlink="http://www.w3.org/1999/xlink" width="100%" height="100%" viewBox="0 0 1200.000 674.916">
<title>Annual LULUCF emissions: Liechtenstein</title>
<style type="text/css">
  #main {font-family:Helvetica,Arial,sans-serif; font-size:27.00px;
         fill-opacity:1; fill:#000000; stroke:none; stroke-linejoin:round; stroke-linecap:round; stroke-width:1.00;}
  .marker {stroke-opacity:0;fill-opacity:0;}
  .marker:hover {stroke-opacity:0.5; fill-opacity:1;}
  .ticklabel {font-size:27.00px;fill:#808080;stroke:none;font-family:Helvetica}
  .ytl {text-anchor:end;}
  .dp1 {pointer-events:none;font-size:70%;text-anchor:middle;fill:#000000;}
  .dp2 {pointer-events:none;font-size:70%;text-anchor:middle;fill:#FFFFFF;}
  .numtip {pointer-events:none;}
  .cc {opacity:0.25;}
.dl_fe {background-color:#FDFFDF;display:flex;margin:auto;align-items:center}
.dl_fe_p {font-size:20px;text-align:center;margin:3px}
.dl_el {display:none;pointer-events:none;}
.cc:hover + .dl_el {display:block;}
text:hover + .dl_el {display:block;}
</style>
<defs>
  <clipPath id="axis_clip"><rect x="145.8" y="54.2" width="761.2" height="532.8" /></clipPath>
  <path id="line_x" d="M 145.600,0 h 761.600" stroke="#262626" stroke-opacity="0.15" stroke-width="1.00"/>
  <path id="tick_y" d="M 145.600,0 h -6.000" stroke="#808080" stroke-width="0.90"/>
  <path id="tick_x" d="M 0,587.177 v 6.000" stroke="#808080" stroke-width="0.90"/>
</defs>
<g id="main">
<use xlink:href="#line_x" transform="translate(0,533.9)"/>
<use xlink:href="#line_x" transform="translate(0,427.2)"/>
<use xlink:href="#line_x" transform="translate(0,320.6)"/>
<use xlink:href="#line_x" transform="translate(0,213.9)"/>
<use xlink:href="#line_x" transform="translate(0,107.3)"/>
<use xlink:href="#tick_y" transform="translate(0,533.9)"/>
<use xlink:href="#tick_y" transform="translate(0,427.2)"/>
<use xlink:href="#tick_y" transform="translate(0,320.6)"/>
<use xlink:href="#tick_y" transform="translate(0,213.9)"/>
<use xlink:href="#tick_y" transform="translate(0,107.3)"/>
<use xlink:href="#tick_x" transform="translate(156.5,0)"/>
<use xlink:href="#tick_x" transform="translate(265.3,0)"/>
<use xlink:href="#tick_x" transform="translate(374.1,0)"/>
<use xlink:href="#tick_x" transform="translate(482.9,0)"/>
<use xlink:href="#tick_x" transform="translate(591.7,0)"/>
<use xlink:href="#tick_x" transform="translate(700.5,0)"/>
<use xlink:href="#tick_x" transform="translate(809.3,0)"/>
<use xlink:href="#tick_x" transform="translate(896.3,0)"/>
<polyline points="145.6,53.993 145.6,587.177 907.2,587.177" stroke="#808080" stroke-width="0.90" fill="none"/>
<text class="ticklabel xtl" transform="translate(156.5,629.0)" text-anchor="middle">1990</text>
<text class="ticklabel xtl" transform="translate(265.3,629.0)" text-anchor="middle">1995</text>
<text class="ticklabel xtl" transform="translate(374.1,629.0)" text-anchor="middle">2000</text>
<text class="ticklabel xtl" transform="translate(482.9,629.0)" text-anchor="middle">2005</text>
<text class="ticklabel xtl" transform="translate(591.7,629.0)" text-anchor="middle">2010</text>
<text class="ticklabel xtl" transform="translate(700.5,629.0)" text-anchor="middle">2015</text>
<text class="ticklabel xtl" transform="translate(809.3,629.0)" text-anchor="middle">2020</text>
<text class="ticklabel xtl" transform="translate(896.3,629.0)" text-anchor="middle">2024</text>
<text class="ticklabel ytl" transform="translate(128.8,542.0)">-0.02</text>
<text class="ticklabel ytl" transform="translate(128.8,435.3)">-0.01</text>
<text class="ticklabel ytl" transform="translate(128.8,328.7)">0</text>
<text class="ticklabel ytl" transform="translate(128.8,222.0)">0.01</text>
<text class="ticklabel ytl" transform="translate(128.8,115.4)">0.02 Mt</text>
<g stroke="#000" stroke-width="0.90" fill="#1A4D1A"  clip-path="url(#axis_clip)">
</g>
<g stroke="#000" stroke-width="0.90" fill="#8B1E40"  clip-path="url(#axis_clip)">
  <polygon class="pl" points="539.5,88.1 539.5,88.5 556.9,88.5 556.9,88.1 539.5,88.1"/>
  <polygon class="pl" points="561.2,122.5 561.2,123.8 578.6,123.8 578.6,122.5 561.2,122.5"/>
  <polygon class="pl" points="583.0,131.4 583.0,133.6 600.4,133.6 600.4,131.4 583.0,131.4"/>
  <polygon class="pl" points="604.7,146.6 604.7,148.8 622.1,148.8 622.1,146.6 604.7,146.6"/>
  <polygon class="pl" points="626.5,174.8 626.5,177.0 643.9,177.0 643.9,174.8 626.5,174.8"/>
  <polygon class="pl" points="648.3,199.1 648.3,201.3 665.7,201.3 665.7,199.1 648.3,199.1"/>
  <polygon class="pl" points="670.0,182.4 670.0,184.5 687.4,184.5 687.4,182.4 670.0,182.4"/>
  <polygon class="pl" points="691.8,181.6 691.8,183.7 709.2,183.7 709.2,181.6 691.8,181.6"/>
  <polygon class="pl" points="713.5,121.7 713.5,123.7 730.9,123.7 730.9,121.7 713.5,121.7"/>
  <polygon class="pl" points="735.3,134.1 735.3,136.0 752.7,136.0 752.7,134.1 735.3,134.1"/>
  <polygon class="pl" points="757.1,135.6 757.1,161.2 774.5,161.2 774.5,135.6 757.1,135.6"/>
  <polygon class="pl" points="778.8,150.1 778.8,175.2 796.2,175.2 796.2,150.1 778.8,150.1"/>
  <polygon class="pl" points="800.6,177.5 800.6,202.2 818.0,202.2 818.0,177.5 800.6,177.5"/>
  <polygon class="pl" points="822.3,183.2 822.3,207.4 839.7,207.4 839.7,183.2 822.3,183.2"/>
  <polygon class="pl" points="844.1,180.8 844.1,204.5 861.5,204.5 861.5,180.8 844.1,180.8"/>
  <polygon class="pl" points="865.9,132.4 865.9,155.6 883.3,155.6 883.3,132.4 865.9,132.4"/>
  <polygon class="pl" points="887.6,182.4 887.6,205.2 905.0,205.2 905.0,182.4 887.6,182.4"/>
</g>
<g stroke="#000" stroke-width="0.90" fill="#7B417F"  clip-path="url(#axis_clip)">
  <polygon class="pl" points="147.8,200.3 147.8,202.3 165.2,202.3 165.2,200.3 147.8,200.3"/>
  <polygon class="pl" points="169.5,208.3 169.5,210.6 186.9,210.6 186.9,208.3 169.5,208.3"/>
  <polygon class="pl" points="191.3,203.8 191.3,205.9 208.7,205.9 208.7,203.8 191.3,203.8"/>
  <polygon class="pl" points="213.1,193.5 213.1,203.0 230.5,203.0 230.5,193.5 213.1,193.5"/>
  <polygon class="pl" points="234.8,133.4 234.8,136.0 252.2,136.0 252.2,133.4 234.8,133.4"/>
  <polygon class="pl" points="256.6,191.5 256.6,194.3 274.0,194.3 274.0,191.5 256.6,191.5"/>
  <polygon class="pl" points="278.3,207.3 278.3,215.4 295.7,215.4 295.7,207.3 278.3,207.3"/>
  <polygon class="pl" points="300.1,131.1 300.1,140.8 317.5,140.8 317.5,131.1 300.1,131.1"/>
  <polygon class="pl" points="321.9,152.5 321.9,168.1 339.3,168.1 339.3,152.5 321.9,152.5"/>
  <polygon class="pl" points="343.6,150.6 343.6,166.1 361.0,166.1 361.0,150.6 343.6,150.6"/>
  <polygon class="pl" points="365.4,77.6 365.4,88.1 382.8,88.1 382.8,77.6 365.4,77.6"/>
  <polygon class="pl" points="387.1,117.7 387.1,134.0 404.5,134.0 404.5,117.7 387.1,117.7"/>
  <polygon class="pl" points="408.9,137.9 408.9,147.9 426.3,147.9 426.3,137.9 408.9,137.9"/>
  <polygon class="pl" points="430.7,164.6 430.7,170.6 448.1,170.6 448.1,164.6 430.7,164.6"/>
  <polygon class="pl" points="452.4,187.8 452.4,201.8 469.8,201.8 469.8,187.8 452.4,187.8"/>
  <polygon class="pl" points="474.2,152.4 474.2,162.4 491.6,162.4 491.6,152.4 474.2,152.4"/>
  <polygon class="pl" points="495.9,174.1 495.9,179.6 513.3,179.6 513.3,174.1 495.9,174.1"/>
  <polygon class="pl" points="517.7,83.1 517.7,94.8 535.1,94.8 535.1,83.1 517.7,83.1"/>
  <polygon class="pl" points="539.5,88.5 539.5,99.1 556.9,99.1 556.9,88.5 539.5,88.5"/>
  <polygon class="pl" points="561.2,123.8 561.2,140.6 578.6,140.6 578.6,123.8 561.2,123.8"/>
  <polygon class="pl" points="583.0,133.6 583.0,139.2 600.4,139.2 600.4,133.6 583.0,133.6"/>
  <polygon class="pl" points="604.7,148.8 604.7,155.6 622.1,155.6 622.1,148.8 604.7,148.8"/>
  <polygon class="pl" points="626.5,177.0 626.5,181.8 643.9,181.8 643.9,177.0 626.5,177.0"/>
  <polygon class="pl" points="648.3,201.3 648.3,206.0 665.7,206.0 665.7,201.3 648.3,201.3"/>
  <polygon class="pl" points="670.0,184.5 670.0,188.8 687.4,188.8 687.4,184.5 670.0,184.5"/>
  <polygon class="pl" points="691.8,183.7 691.8,194.4 709.2,194.4 709.2,183.7 691.8,183.7"/>
  <polygon class="pl" points="713.5,123.7 713.5,135.1 730.9,135.1 730.9,123.7 713.5,123.7"/>
  <polygon class="pl" points="735.3,136.0 735.3,145.1 752.7,145.1 752.7,136.0 735.3,136.0"/>
  <polygon class="pl" points="757.1,161.2 757.1,177.0 774.5,177.0 774.5,161.2 757.1,161.2"/>
  <polygon class="pl" points="778.8,175.2 778.8,179.7 796.2,179.7 796.2,175.2 778.8,175.2"/>
  <polygon class="pl" points="800.6,202.2 800.6,206.3 818.0,206.3 818.0,202.2 800.6,202.2"/>
  <polygon class="pl" points="822.3,207.4 822.3,211.0 839.7,211.0 839.7,207.4 822.3,207.4"/>
  <polygon class="pl" points="844.1,204.5 844.1,214.7 861.5,214.7 861.5,204.5 844.1,204.5"/>
  <polygon class="pl" points="865.9,155.6 865.9,180.0 883.3,180.0 883.3,155.6 865.9,155.6"/>
  <polygon class="pl" points="887.6,205.2 887.6,211.6 905.0,211.6 905.0,205.2 887.6,205.2"/>
</g>
<g stroke="#000" stroke-width="0.90" fill="#808080"  clip-path="url(#axis_clip)">
  <polygon class="pl" points="147.8,202.3 147.8,221.5 165.2,221.5 165.2,202.3 147.8,202.3"/>
  <polygon class="pl" points="169.5,210.6 169.5,226.2 186.9,226.2 186.9,210.6 169.5,210.6"/>
  <polygon class="pl" points="191.3,205.9 191.3,223.0 208.7,223.0 208.7,205.9 191.3,205.9"/>
  <polygon class="pl" points="213.1,203.0 213.1,230.9 230.5,230.9 230.5,203.0 213.1,203.0"/>
  <polygon class="pl" points="234.8,136.0 234.8,165.0 252.2,165.0 252.2,136.0 234.8,136.0"/>
  <polygon class="pl" points="256.6,194.3 256.6,215.9 274.0,215.9 274.0,194.3 256.6,194.3"/>
  <polygon class="pl" points="278.3,215.4 278.3,228.1 295.7,228.1 295.7,215.4 278.3,215.4"/>
  <polygon class="pl" points="300.1,140.8 300.1,174.7 317.5,174.7 317.5,140.8 300.1,140.8"/>
  <polygon class="pl" points="321.9,168.1 321.9,186.2 339.3,186.2 339.3,168.1 321.9,168.1"/>
  <polygon class="pl" points="343.6,166.1 343.6,191.6 361.0,191.6 361.0,166.1 343.6,166.1"/>
  <polygon class="pl" points="365.4,88.1 365.4,101.3 382.8,101.3 382.8,88.1 365.4,88.1"/>
  <polygon class="pl" points="387.1,134.0 387.1,174.9 404.5,174.9 404.5,134.0 387.1,134.0"/>
  <polygon class="pl" points="408.9,147.9 408.9,176.8 426.3,176.8 426.3,147.9 408.9,147.9"/>
  <polygon class="pl" points="430.7,170.6 430.7,178.2 448.1,178.2 448.1,170.6 430.7,170.6"/>
  <polygon class="pl" points="452.4,201.8 452.4,215.7 469.8,215.7 469.8,201.8 452.4,201.8"/>
  <polygon class="pl" points="474.2,162.4 474.2,191.5 491.6,191.5 491.6,162.4 474.2,162.4"/>
  <polygon class="pl" points="495.9,179.6 495.9,196.4 513.3,196.4 513.3,179.6 495.9,179.6"/>
  <polygon class="pl" points="517.7,94.8 517.7,125.6 535.1,125.6 535.1,94.8 517.7,94.8"/>
  <polygon class="pl" points="539.5,99.1 539.5,118.3 556.9,118.3 556.9,99.1 539.5,99.1"/>
  <polygon class="pl" points="561.2,140.6 561.2,163.2 578.6,163.2 578.6,140.6 561.2,140.6"/>
  <polygon class="pl" points="583.0,139.2 583.0,167.8 600.4,167.8 600.4,139.2 583.0,139.2"/>
  <polygon class="pl" points="604.7,155.6 604.7,192.5 622.1,192.5 622.1,155.6 604.7,155.6"/>
  <polygon class="pl" points="626.5,181.8 626.5,196.5 643.9,196.5 643.9,181.8 626.5,181.8"/>
  <polygon class="pl" points="648.3,206.0 648.3,215.3 665.7,215.3 665.7,206.0 648.3,206.0"/>
  <polygon class="pl" points="670.0,188.8 670.0,196.4 687.4,196.4 687.4,188.8 670.0,188.8"/>
  <polygon class="pl" points="713.5,135.1 713.5,178.8 730.9,178.8 730.9,135.1 713.5,135.1"/>
  <polygon class="pl" points="735.3,145.1 735.3,179.8 752.7,179.8 752.7,145.1 735.3,145.1"/>
  <polygon class="pl" points="757.1,177.0 757.1,185.4 774.5,185.4 774.5,177.0 757.1,177.0"/>
  <polygon class="pl" points="778.8,179.7 778.8,195.8 796.2,195.8 796.2,179.7 778.8,179.7"/>
  <polygon class="pl" points="800.6,206.3 800.6,215.4 818.0,215.4 818.0,206.3 800.6,206.3"/>
  <polygon class="pl" points="822.3,211.0 822.3,223.0 839.7,223.0 839.7,211.0 822.3,211.0"/>
  <polygon class="pl" points="844.1,214.7 844.1,223.1 861.5,223.1 861.5,214.7 844.1,214.7"/>
  <polygon class="pl" points="865.9,180.0 865.9,196.1 883.3,196.1 883.3,180.0 865.9,180.0"/>
  <polygon class="pl" points="887.6,211.6 887.6,213.9 905.0,213.9 905.0,211.6 887.6,211.6"/>
</g>
<g stroke="#000" stroke-width="0.90" fill="#EDB120"  clip-path="url(#axis_clip)">
  <polygon class="pl" points="147.8,221.5 147.8,249.8 165.2,249.8 165.2,221.5 147.8,221.5"/>
  <polygon class="pl" points="169.5,226.2 169.5,254.6 186.9,254.6 186.9,226.2 169.5,226.2"/>
  <polygon class="pl" points="191.3,223.0 191.3,246.2 208.7,246.2 208.7,223.0 191.3,223.0"/>
  <polygon class="pl" points="213.1,230.9 213.1,254.2 230.5,254.2 230.5,230.9 213.1,230.9"/>
  <polygon class="pl" points="234.8,165.0 234.8,188.6 252.2,188.6 252.2,165.0 234.8,165.0"/>
  <polygon class="pl" points="256.6,215.9 256.6,244.8 274.0,244.8 274.0,215.9 256.6,215.9"/>
  <polygon class="pl" points="278.3,228.1 278.3,251.5 295.7,251.5 295.7,228.1 278.3,228.1"/>
  <polygon class="pl" points="300.1,174.7 300.1,209.1 317.5,209.1 317.5,174.7 300.1,174.7"/>
  <polygon class="pl" points="321.9,186.2 321.9,213.1 339.3,213.1 339.3,186.2 321.9,186.2"/>
  <polygon class="pl" points="343.6,191.6 343.6,216.1 361.0,216.1 361.0,191.6 343.6,191.6"/>
  <polygon class="pl" points="365.4,101.3 365.4,126.6 382.8,126.6 382.8,101.3 365.4,101.3"/>
  <polygon class="pl" points="387.1,174.9 387.1,204.5 404.5,204.5 404.5,174.9 387.1,174.9"/>
  <polygon class="pl" points="408.9,176.8 408.9,201.2 426.3,201.2 426.3,176.8 408.9,176.8"/>
  <polygon class="pl" points="430.7,178.2 430.7,213.1 448.1,213.1 448.1,178.2 430.7,178.2"/>
  <polygon class="pl" points="452.4,215.7 452.4,240.3 469.8,240.3 469.8,215.7 452.4,215.7"/>
  <polygon class="pl" points="474.2,191.5 474.2,216.2 491.6,216.2 491.6,191.5 474.2,191.5"/>
  <polygon class="pl" points="495.9,196.4 495.9,221.1 513.3,221.1 513.3,196.4 495.9,196.4"/>
  <polygon class="pl" points="517.7,125.6 517.7,155.9 535.1,155.9 535.1,125.6 517.7,125.6"/>
  <polygon class="pl" points="539.5,118.3 539.5,143.0 556.9,143.0 556.9,118.3 539.5,118.3"/>
  <polygon class="pl" points="561.2,163.2 561.2,193.6 578.6,193.6 578.6,163.2 561.2,163.2"/>
  <polygon class="pl" points="583.0,167.8 583.0,192.7 600.4,192.7 600.4,167.8 583.0,167.8"/>
  <polygon class="pl" points="604.7,192.5 604.7,227.0 622.1,227.0 622.1,192.5 604.7,192.5"/>
  <polygon class="pl" points="626.5,196.5 626.5,221.3 643.9,221.3 643.9,196.5 626.5,196.5"/>
  <polygon class="pl" points="648.3,215.3 648.3,241.4 665.7,241.4 665.7,215.3 648.3,215.3"/>
  <polygon class="pl" points="670.0,196.4 670.0,225.7 687.4,225.7 687.4,196.4 670.0,196.4"/>
  <polygon class="pl" points="691.8,194.4 691.8,218.9 709.2,218.9 709.2,194.4 691.8,194.4"/>
  <polygon class="pl" points="713.5,178.8 713.5,203.7 730.9,203.7 730.9,178.8 713.5,178.8"/>
  <polygon class="pl" points="735.3,179.8 735.3,209.3 752.7,209.3 752.7,179.8 735.3,179.8"/>
  <polygon class="pl" points="757.1,185.4 757.1,206.9 774.5,206.9 774.5,185.4 757.1,185.4"/>
  <polygon class="pl" points="778.8,195.8 778.8,223.5 796.2,223.5 796.2,195.8 778.8,195.8"/>
  <polygon class="pl" points="800.6,215.4 800.6,239.2 818.0,239.2 818.0,215.4 800.6,215.4"/>
  <polygon class="pl" points="822.3,223.0 822.3,246.3 839.7,246.3 839.7,223.0 822.3,223.0"/>
  <polygon class="pl" points="844.1,223.1 844.1,246.1 861.5,246.1 861.5,223.1 844.1,223.1"/>
  <polygon class="pl" points="865.9,196.1 865.9,218.6 883.3,218.6 883.3,196.1 865.9,196.1"/>
  <polygon class="pl" points="887.6,213.9 887.6,236.1 905.0,236.1 905.0,213.9 887.6,213.9"/>
</g>
<g stroke="#000" stroke-width="0.90" fill="#D95319"  clip-path="url(#axis_clip)">
  <polygon class="pl" points="147.8,249.8 147.8,273.7 165.2,273.7 165.2,249.8 147.8,249.8"/>
  <polygon class="pl" points="169.5,254.6 169.5,273.8 186.9,273.8 186.9,254.6 169.5,254.6"/>
  <polygon class="pl" points="191.3,246.2 191.3,272.8 208.7,272.8 208.7,246.2 191.3,246.2"/>
  <polygon class="pl" points="213.1,254.2 213.1,273.4 230.5,273.4 230.5,254.2 213.1,254.2"/>
  <polygon class="pl" points="234.8,188.6 234.8,210.5 252.2,210.5 252.2,188.6 234.8,188.6"/>
  <polygon class="pl" points="256.6,244.8 256.6,274.7 274.0,274.7 274.0,244.8 256.6,244.8"/>
  <polygon class="pl" points="278.3,251.5 278.3,273.7 295.7,273.7 295.7,251.5 278.3,251.5"/>
  <polygon class="pl" points="300.1,209.1 300.1,274.0 317.5,274.0 317.5,209.1 300.1,209.1"/>
  <polygon class="pl" points="321.9,213.1 321.9,273.1 339.3,273.1 339.3,213.1 321.9,213.1"/>
  <polygon class="pl" points="343.6,216.1 343.6,274.0 361.0,274.0 361.0,216.1 343.6,216.1"/>
  <polygon class="pl" points="365.4,126.6 365.4,167.3 382.8,167.3 382.8,126.6 365.4,126.6"/>
  <polygon class="pl" points="387.1,204.5 387.1,274.3 404.5,274.3 404.5,204.5 387.1,204.5"/>
  <polygon class="pl" points="408.9,201.2 408.9,273.6 426.3,273.6 426.3,201.2 408.9,201.2"/>
  <polygon class="pl" points="430.7,213.1 430.7,269.2 448.1,269.2 448.1,213.1 430.7,213.1"/>
  <polygon class="pl" points="452.4,240.3 452.4,273.6 469.8,273.6 469.8,240.3 452.4,240.3"/>
  <polygon class="pl" points="474.2,216.2 474.2,275.2 491.6,275.2 491.6,216.2 474.2,216.2"/>
  <polygon class="pl" points="495.9,221.1 495.9,275.1 513.3,275.1 513.3,221.1 495.9,221.1"/>
  <polygon class="pl" points="517.7,155.9 517.7,211.1 535.1,211.1 535.1,155.9 517.7,155.9"/>
  <polygon class="pl" points="539.5,143.0 539.5,190.4 556.9,190.4 556.9,143.0 539.5,143.0"/>
  <polygon class="pl" points="561.2,193.6 561.2,226.5 578.6,226.5 578.6,193.6 561.2,193.6"/>
  <polygon class="pl" points="583.0,192.7 583.0,244.4 600.4,244.4 600.4,192.7 583.0,192.7"/>
  <polygon class="pl" points="604.7,227.0 604.7,276.0 622.1,276.0 622.1,227.0 604.7,227.0"/>
  <polygon class="pl" points="626.5,221.3 626.5,276.1 643.9,276.1 643.9,221.3 626.5,221.3"/>
  <polygon class="pl" points="648.3,241.4 648.3,276.2 665.7,276.2 665.7,241.4 648.3,241.4"/>
  <polygon class="pl" points="670.0,225.7 670.0,275.7 687.4,275.7 687.4,225.7 670.0,225.7"/>
  <polygon class="pl" points="691.8,218.9 691.8,277.7 709.2,277.7 709.2,218.9 691.8,218.9"/>
  <polygon class="pl" points="713.5,203.7 713.5,277.8 730.9,277.8 730.9,203.7 713.5,203.7"/>
  <polygon class="pl" points="735.3,209.3 735.3,277.9 752.7,277.9 752.7,209.3 735.3,209.3"/>
  <polygon class="pl" points="757.1,206.9 757.1,278.6 774.5,278.6 774.5,206.9 757.1,206.9"/>
  <polygon class="pl" points="778.8,223.5 778.8,280.5 796.2,280.5 796.2,223.5 778.8,223.5"/>
  <polygon class="pl" points="800.6,239.2 800.6,281.9 818.0,281.9 818.0,239.2 800.6,239.2"/>
  <polygon class="pl" points="822.3,246.3 822.3,282.3 839.7,282.3 839.7,246.3 822.3,246.3"/>
  <polygon class="pl" points="844.1,246.1 844.1,283.0 861.5,283.0 861.5,246.1 844.1,246.1"/>
  <polygon class="pl" points="865.9,218.6 865.9,283.8 883.3,283.8 883.3,218.6 865.9,218.6"/>
  <polygon class="pl" points="887.6,236.1 887.6,286.3 905.0,286.3 905.0,236.1 887.6,236.1"/>
</g>
<g stroke="#000" stroke-width="0.90" fill="#5AA3D0"  clip-path="url(#axis_clip)">
  <polygon class="pl" points="147.8,273.7 147.8,320.6 165.2,320.6 165.2,273.7 147.8,273.7"/>
  <polygon class="pl" points="169.5,273.8 169.5,320.6 186.9,320.6 186.9,273.8 169.5,273.8"/>
  <polygon class="pl" points="191.3,272.8 191.3,320.6 208.7,320.6 208.7,272.8 191.3,272.8"/>
  <polygon class="pl" points="213.1,273.4 213.1,320.6 230.5,320.6 230.5,273.4 213.1,273.4"/>
  <polygon class="pl" points="234.8,210.5 234.8,257.4 252.2,257.4 252.2,210.5 234.8,210.5"/>
  <polygon class="pl" points="256.6,274.7 256.6,320.6 274.0,320.6 274.0,274.7 256.6,274.7"/>
  <polygon class="pl" points="278.3,273.7 278.3,320.6 295.7,320.6 295.7,273.7 278.3,273.7"/>
  <polygon class="pl" points="300.1,274.0 300.1,320.6 317.5,320.6 317.5,274.0 300.1,274.0"/>
  <polygon class="pl" points="321.9,273.1 321.9,320.6 339.3,320.6 339.3,273.1 321.9,273.1"/>
  <polygon class="pl" points="343.6,274.0 343.6,320.6 361.0,320.6 361.0,274.0 343.6,274.0"/>
  <polygon class="pl" points="365.4,167.3 365.4,213.3 382.8,213.3 382.8,167.3 365.4,167.3"/>
  <polygon class="pl" points="387.1,274.3 387.1,320.6 404.5,320.6 404.5,274.3 387.1,274.3"/>
  <polygon class="pl" points="408.9,273.6 408.9,320.6 426.3,320.6 426.3,273.6 408.9,273.6"/>
  <polygon class="pl" points="430.7,269.2 430.7,320.6 448.1,320.6 448.1,269.2 430.7,269.2"/>
  <polygon class="pl" points="452.4,273.6 452.4,320.6 469.8,320.6 469.8,273.6 452.4,273.6"/>
  <polygon class="pl" points="474.2,275.2 474.2,320.6 491.6,320.6 491.6,275.2 474.2,275.2"/>
  <polygon class="pl" points="495.9,275.1 495.9,320.6 513.3,320.6 513.3,275.1 495.9,275.1"/>
  <polygon class="pl" points="517.7,211.1 517.7,256.5 535.1,256.5 535.1,211.1 517.7,211.1"/>
  <polygon class="pl" points="539.5,190.4 539.5,235.5 556.9,235.5 556.9,190.4 539.5,190.4"/>
  <polygon class="pl" points="561.2,226.5 561.2,271.1 578.6,271.1 578.6,226.5 561.2,226.5"/>
  <polygon class="pl" points="583.0,244.4 583.0,289.4 600.4,289.4 600.4,244.4 583.0,244.4"/>
  <polygon class="pl" points="604.7,276.0 604.7,320.6 622.1,320.6 622.1,276.0 604.7,276.0"/>
  <polygon class="pl" points="626.5,276.1 626.5,320.6 643.9,320.6 643.9,276.1 626.5,276.1"/>
  <polygon class="pl" points="648.3,276.2 648.3,320.6 665.7,320.6 665.7,276.2 648.3,276.2"/>
  <polygon class="pl" points="670.0,275.7 670.0,320.6 687.4,320.6 687.4,275.7 670.0,275.7"/>
  <polygon class="pl" points="691.8,277.7 691.8,320.6 709.2,320.6 709.2,277.7 691.8,277.7"/>
  <polygon class="pl" points="713.5,277.8 713.5,320.6 730.9,320.6 730.9,277.8 713.5,277.8"/>
  <polygon class="pl" points="735.3,277.9 735.3,320.6 752.7,320.6 752.7,277.9 735.3,277.9"/>
  <polygon class="pl" points="757.1,278.6 757.1,320.6 774.5,320.6 774.5,278.6 757.1,278.6"/>
  <polygon class="pl" points="778.8,280.5 778.8,320.6 796.2,320.6 796.2,280.5 778.8,280.5"/>
  <polygon class="pl" points="800.6,281.9 800.6,320.6 818.0,320.6 818.0,281.9 800.6,281.9"/>
  <polygon class="pl" points="822.3,282.3 822.3,320.6 839.7,320.6 839.7,282.3 822.3,282.3"/>
  <polygon class="pl" points="844.1,283.0 844.1,320.6 861.5,320.6 861.5,283.0 844.1,283.0"/>
  <polygon class="pl" points="865.9,283.8 865.9,320.6 883.3,320.6 883.3,283.8 865.9,283.8"/>
  <polygon class="pl" points="887.6,286.3 887.6,320.6 905.0,320.6 905.0,286.3 887.6,286.3"/>
</g>
<g stroke="#000" stroke-width="0.90" fill="#6AB561"  clip-path="url(#axis_clip)">
  <polygon class="pl" points="234.8,257.4 234.8,320.6 252.2,320.6 252.2,257.4 234.8,257.4"/>
  <polygon class="pl" points="365.4,213.3 365.4,320.6 382.8,320.6 382.8,213.3 365.4,213.3"/>
  <polygon class="pl" points="517.7,256.5 517.7,320.6 535.1,320.6 535.1,256.5 517.7,256.5"/>
  <polygon class="pl" points="539.5,235.5 539.5,320.6 556.9,320.6 556.9,235.5 539.5,235.5"/>
  <polygon class="pl" points="561.2,271.1 561.2,320.6 578.6,320.6 578.6,271.1 561.2,271.1"/>
  <polygon class="pl" points="583.0,289.4 583.0,320.6 600.4,320.6 600.4,289.4 583.0,289.4"/>
</g>
<g stroke="#000" stroke-width="0.90" fill="#1A4D1A"  clip-path="url(#axis_clip)">
</g>
<g stroke="#000" stroke-width="0.90" fill="#8B1E40"  clip-path="url(#axis_clip)">
  <polygon class="pl" points="147.8,397.6 147.8,368.9 165.2,368.9 165.2,397.6 147.8,397.6"/>
  <polygon class="pl" points="169.5,570.0 169.5,543.6 186.9,543.6 186.9,570.0 169.5,570.0"/>
  <polygon class="pl" points="191.3,451.4 191.3,427.2 208.7,427.2 208.7,451.4 191.3,451.4"/>
  <polygon class="pl" points="213.1,488.1 213.1,466.1 230.5,466.1 230.5,488.1 213.1,488.1"/>
  <polygon class="pl" points="234.8,340.5 234.8,320.6 252.2,320.6 252.2,340.5 234.8,340.5"/>
  <polygon class="pl" points="256.6,424.7 256.6,406.9 274.0,406.9 274.0,424.7 256.6,424.7"/>
  <polygon class="pl" points="278.3,516.2 278.3,500.4 295.7,500.4 295.7,516.2 278.3,516.2"/>
  <polygon class="pl" points="300.1,394.1 300.1,380.3 317.5,380.3 317.5,394.1 300.1,394.1"/>
  <polygon class="pl" points="321.9,482.1 321.9,470.3 339.3,470.3 339.3,482.1 321.9,482.1"/>
  <polygon class="pl" points="343.6,499.6 343.6,489.6 361.0,489.6 361.0,499.6 343.6,499.6"/>
  <polygon class="pl" points="365.4,328.6 365.4,320.6 382.8,320.6 382.8,328.6 365.4,328.6"/>
  <polygon class="pl" points="387.1,478.0 387.1,471.1 404.5,471.1 404.5,478.0 387.1,478.0"/>
  <polygon class="pl" points="408.9,470.3 408.9,464.5 426.3,464.5 426.3,470.3 408.9,470.3"/>
  <polygon class="pl" points="430.7,427.4 430.7,422.7 448.1,422.7 448.1,427.4 430.7,427.4"/>
  <polygon class="pl" points="452.4,403.8 452.4,400.1 469.8,400.1 469.8,403.8 452.4,403.8"/>
  <polygon class="pl" points="474.2,404.0 474.2,401.4 491.6,401.4 491.6,404.0 474.2,404.0"/>
  <polygon class="pl" points="495.9,353.5 495.9,351.9 513.3,351.9 513.3,353.5 495.9,353.5"/>
  <polygon class="pl" points="517.7,321.2 517.7,320.6 535.1,320.6 535.1,321.2 517.7,321.2"/>
</g>
<g stroke="#000" stroke-width="0.90" fill="#808080"  clip-path="url(#axis_clip)">
  <polygon class="pl" points="691.8,482.4 691.8,479.8 709.2,479.8 709.2,482.4 691.8,482.4"/>
</g>
<g stroke="#000" stroke-width="0.90" fill="#6AB561"  clip-path="url(#axis_clip)">
  <polygon class="pl" points="147.8,368.9 147.8,320.6 165.2,320.6 165.2,368.9 147.8,368.9"/>
  <polygon class="pl" points="169.5,543.6 169.5,320.6 186.9,320.6 186.9,543.6 169.5,543.6"/>
  <polygon class="pl" points="191.3,427.2 191.3,320.6 208.7,320.6 208.7,427.2 191.3,427.2"/>
  <polygon class="pl" points="213.1,466.1 213.1,320.6 230.5,320.6 230.5,466.1 213.1,466.1"/>
  <polygon class="pl" points="256.6,406.9 256.6,320.6 274.0,320.6 274.0,406.9 256.6,406.9"/>
  <polygon class="pl" points="278.3,500.4 278.3,320.6 295.7,320.6 295.7,500.4 278.3,500.4"/>
  <polygon class="pl" points="300.1,380.3 300.1,320.6 317.5,320.6 317.5,380.3 300.1,380.3"/>
  <polygon class="pl" points="321.9,470.3 321.9,320.6 339.3,320.6 339.3,470.3 321.9,470.3"/>
  <polygon class="pl" points="343.6,489.6 343.6,320.6 361.0,320.6 361.0,489.6 343.6,489.6"/>
  <polygon class="pl" points="387.1,471.1 387.1,320.6 404.5,320.6 404.5,471.1 387.1,471.1"/>
  <polygon class="pl" points="408.9,464.5 408.9,320.6 426.3,320.6 426.3,464.5 408.9,464.5"/>
  <polygon class="pl" points="430.7,422.7 430.7,320.6 448.1,320.6 448.1,422.7 430.7,422.7"/>
  <polygon class="pl" points="452.4,400.1 452.4,320.6 469.8,320.6 469.8,400.1 452.4,400.1"/>
  <polygon class="pl" points="474.2,401.4 474.2,320.6 491.6,320.6 491.6,401.4 474.2,401.4"/>
  <polygon class="pl" points="495.9,351.9 495.9,320.6 513.3,320.6 513.3,351.9 495.9,351.9"/>
  <polygon class="pl" points="604.7,382.5 604.7,320.6 622.1,320.6 622.1,382.5 604.7,382.5"/>
  <polygon class="pl" points="626.5,381.3 626.5,320.6 643.9,320.6 643.9,381.3 626.5,381.3"/>
  <polygon class="pl" points="648.3,435.1 648.3,320.6 665.7,320.6 665.7,435.1 648.3,435.1"/>
  <polygon class="pl" points="670.0,435.9 670.0,320.6 687.4,320.6 687.4,435.9 670.0,435.9"/>
  <polygon class="pl" points="691.8,479.8 691.8,320.6 709.2,320.6 709.2,479.8 691.8,479.8"/>
  <polygon class="pl" points="713.5,494.1 713.5,320.6 730.9,320.6 730.9,494.1 713.5,494.1"/>
  <polygon class="pl" points="735.3,485.9 735.3,320.6 752.7,320.6 752.7,485.9 735.3,485.9"/>
  <polygon class="pl" points="757.1,411.6 757.1,320.6 774.5,320.6 774.5,411.6 757.1,411.6"/>
  <polygon class="pl" points="778.8,484.1 778.8,320.6 796.2,320.6 796.2,484.1 778.8,484.1"/>
  <polygon class="pl" points="800.6,537.7 800.6,320.6 818.0,320.6 818.0,537.7 800.6,537.7"/>
  <polygon class="pl" points="822.3,569.9 822.3,320.6 839.7,320.6 839.7,569.9 822.3,569.9"/>
  <polygon class="pl" points="844.1,557.0 844.1,320.6 861.5,320.6 861.5,557.0 844.1,557.0"/>
  <polygon class="pl" points="865.9,556.6 865.9,320.6 883.3,320.6 883.3,556.6 865.9,556.6"/>
  <polygon class="pl" points="887.6,569.0 887.6,320.6 905.0,320.6 905.0,569.0 887.6,569.0"/>
</g>
<polyline class="pl" points="156.5,277.3 178.2,457.7 200.0,334.6 221.8,361.0 243.5,153.3 265.3,295.6 287.0,402.8 308.8,204.7 330.6,314.0 352.3,329.5 374.1,85.6 395.8,275.1 417.6,287.6 439.4,271.4 461.1,271.0 482.9,235.9 504.6,207.1 526.4,83.7 548.2,88.1 569.9,122.5 591.7,131.4 613.4,208.5 635.2,235.5 657.0,313.7 678.7,297.7 700.5,343.4 722.2,295.2 744.0,299.4 765.8,226.5 787.5,313.6 809.3,394.7 831.0,432.5 852.8,417.2 874.6,368.4 896.3,430.9" stroke="#000" stroke-width="5.40" stroke-opacity="1.00" fill="none" clip-path="url(#axis_clip)"/>
<g class="pl" fill="#FFF" stroke="#000" stroke-width="0.900">
  <circle cx="178.2" cy="457.7" r="2.2" />
  <circle cx="200.0" cy="334.6" r="2.2" />
  <circle cx="221.8" cy="361.0" r="2.2" />
  <circle cx="243.5" cy="153.3" r="2.2" />
  <circle cx="265.3" cy="295.6" r="2.2" />
  <circle cx="287.0" cy="402.8" r="2.2" />
  <circle cx="308.8" cy="204.7" r="2.2" />
  <circle cx="330.6" cy="314.0" r="2.2" />
  <circle cx="352.3" cy="329.5" r="2.2" />
  <circle cx="395.8" cy="275.1" r="2.2" />
  <circle cx="417.6" cy="287.6" r="2.2" />
  <circle cx="439.4" cy="271.4" r="2.2" />
  <circle cx="461.1" cy="271.0" r="2.2" />
  <circle cx="482.9" cy="235.9" r="2.2" />
  <circle cx="504.6" cy="207.1" r="2.2" />
  <circle cx="526.4" cy="83.7" r="2.2" />
  <circle cx="548.2" cy="88.1" r="2.2" />
  <circle cx="569.9" cy="122.5" r="2.2" />
  <circle cx="613.4" cy="208.5" r="2.2" />
  <circle cx="635.2" cy="235.5" r="2.2" />
  <circle cx="657.0" cy="313.7" r="2.2" />
  <circle cx="678.7" cy="297.7" r="2.2" />
  <circle cx="700.5" cy="343.4" r="2.2" />
  <circle cx="722.2" cy="295.2" r="2.2" />
  <circle cx="744.0" cy="299.4" r="2.2" />
  <circle cx="765.8" cy="226.5" r="2.2" />
  <circle cx="787.5" cy="313.6" r="2.2" />
  <circle cx="831.0" cy="432.5" r="2.2" />
  <circle cx="852.8" cy="417.2" r="2.2" />
  <circle cx="874.6" cy="368.4" r="2.2" />
  <circle cx="896.3" cy="430.9" r="2.2" />
</g>
<g class="pl" fill="#FFF" stroke="#000" stroke-width="0.900">
  <circle cx="156.5" cy="277.3" r="5.4" />
  <circle cx="374.1" cy="85.6" r="5.4" />
  <circle cx="591.7" cy="131.4" r="5.4" />
  <circle cx="809.3" cy="394.7" r="5.4" />
</g>
<text transform="translate(145.6,47.2)" dy="0.0" font-size="27.00" fill="#808080" stroke="none">Annual LULUCF emissions: Liechtenstein</text>
<text transform="translate(130.0,135.0)" dy="8.1" font-size="27.00" fill="#808080" stroke="none" text-anchor="end">CO<tspan dy="0.2em"><tspan style="font-size:70%">2</tspan></tspan><tspan dy="-0.2em">e</tspan></text>
<text transform="translate(945.6,303.4)" dy="6.5" font-size="21.60" fill="#5AA3D0" stroke="none">Cropland</text>
<text transform="translate(945.6,266.2)" dy="6.5" font-size="21.60" fill="#D95319" stroke="none">Grassland</text>
<text transform="translate(945.6,245.3)" dy="6.5" font-size="21.60" fill="#EDB120" stroke="none">Wetlands</text>
<text transform="translate(945.6,224.4)" dy="6.5" font-size="21.60" fill="#808080" stroke="none">Settlements</text>
<text transform="translate(945.6,203.5)" dy="6.5" font-size="21.60" fill="#7B417F" stroke="none">Other land</text>
<text transform="translate(945.6,182.6)" dy="6.5" font-size="21.60" fill="#8B1E40" stroke="none">HWP</text>
<text transform="translate(945.6,161.7)" dy="6.5" font-size="21.60" fill="#1A4D1A" stroke="none">Other</text>
<text transform="translate(945.6,444.8)" dy="6.5" font-size="21.60" fill="#6AB561" stroke="none">Forest land</text>
<polyline class="pl" points="910.8,261.2 912.4,261.2 913.8,261.3 915.2,261.4 916.4,261.5 917.6,261.6 918.8,261.8 919.8,261.9 920.8,262.1 921.7,262.4 922.7,262.6 923.5,262.8 924.4,263.1 925.2,263.3 926.0,263.6 926.8,263.8 927.6,264.1 928.4,264.3 929.3,264.6 930.1,264.8 931.1,265.1 932.0,265.3 933.0,265.5 934.0,265.6 935.2,265.8 936.4,265.9 937.6,266.0 939.0,266.1 940.4,266.2 942.0,266.2" stroke="#D95319" stroke-width="0.90" stroke-opacity="1.00" fill="none" />
<polyline class="pl" points="910.8,225.0 912.4,225.1 913.8,225.3 915.2,225.6 916.4,226.1 917.6,226.6 918.8,227.3 919.8,228.0 920.8,228.8 921.7,229.7 922.7,230.6 923.5,231.5 924.4,232.5 925.2,233.6 926.0,234.6 926.8,235.7 927.6,236.7 928.4,237.7 929.3,238.7 930.1,239.7 931.1,240.6 932.0,241.5 933.0,242.3 934.0,243.0 935.2,243.7 936.4,244.2 937.6,244.7 939.0,245.0 940.4,245.2 942.0,245.3" stroke="#EDB120" stroke-width="0.90" stroke-opacity="1.00" fill="none" />
<polyline class="pl" points="910.8,212.7 912.4,212.8 913.8,212.9 915.2,213.1 916.4,213.3 917.6,213.7 918.8,214.0 919.8,214.5 920.8,214.9 921.7,215.4 922.7,215.9 923.5,216.5 924.4,217.1 925.2,217.7 926.0,218.3 926.8,218.9 927.6,219.5 928.4,220.1 929.3,220.6 930.1,221.2 931.1,221.7 932.0,222.2 933.0,222.7 934.0,223.1 935.2,223.5 936.4,223.8 937.6,224.0 939.0,224.2 940.4,224.3 942.0,224.4" stroke="#808080" stroke-width="0.90" stroke-opacity="1.00" fill="none" />
<polyline class="pl" points="910.8,208.4 912.4,208.4 913.8,208.4 915.2,208.3 916.4,208.2 917.6,208.0 918.8,207.9 919.8,207.7 920.8,207.5 921.7,207.3 922.7,207.1 923.5,206.8 924.4,206.6 925.2,206.3 926.0,206.1 926.8,205.8 927.6,205.6 928.4,205.3 929.3,205.1 930.1,204.8 931.1,204.6 932.0,204.4 933.0,204.2 934.0,204.0 935.2,203.9 936.4,203.7 937.6,203.6 939.0,203.6 940.4,203.5 942.0,203.5" stroke="#7B417F" stroke-width="0.90" stroke-opacity="1.00" fill="none" />
<polyline class="pl" points="910.8,193.8 912.4,193.8 913.8,193.7 915.2,193.5 916.4,193.2 917.6,192.9 918.8,192.6 919.8,192.2 920.8,191.7 921.7,191.3 922.7,190.7 923.5,190.2 924.4,189.6 925.2,189.1 926.0,188.5 926.8,187.9 927.6,187.3 928.4,186.8 929.3,186.2 930.1,185.7 931.1,185.2 932.0,184.7 933.0,184.2 934.0,183.8 935.2,183.5 936.4,183.2 937.6,182.9 939.0,182.8 940.4,182.6 942.0,182.6" stroke="#8B1E40" stroke-width="0.90" stroke-opacity="1.00" fill="none" />
<polyline class="pl" points="910.8,182.4 912.4,182.4 913.8,182.1 915.2,181.8 916.4,181.4 917.6,180.8 918.8,180.1 919.8,179.4 920.8,178.6 921.7,177.7 922.7,176.7 923.5,175.7 924.4,174.7 925.2,173.7 926.0,172.6 926.8,171.5 927.6,170.5 928.4,169.4 929.3,168.4 930.1,167.4 931.1,166.4 932.0,165.6 933.0,164.7 934.0,164.0 935.2,163.3 936.4,162.8 937.6,162.3 939.0,162.0 940.4,161.8 942.0,161.7" stroke="#1A4D1A" stroke-width="0.90" stroke-opacity="1.00" fill="none" />
<text transform="translate(160.0,666.1)" font-size="19.80" font-family="Helvetica" fill="#BFBFBF" stroke="none" xml:space="preserve">CICERO   &#9679;   Data: UNFCCC (2026)   &#9679;   HWP = Harvested Wood Products</text>
<g>
  <rect x="123.0" y="651.4" width="34" height="17" fill="#FFF" stroke="none" opacity="0.01"/>
  <g transform="translate(124.0,652.4) scale(0.24)">
  <g><circle fill="#FFF" cx="37.79" cy="28.5" r="28.84"/>
     <circle fill="none" cx="37.79" cy="28.5" r="28.84" stroke="#BFBFBF" stroke-width="5.5"/>
     <path fill="#BFBFBF" d="M37.16,23.19 l-4.29,2.23c-0.458-0.951-1.02-1.62-1.69-2c-0.667-0.38-1.29-0.571-1.86-0.571c-2.86,0-4.29,1.89-4.29,5.66 c0,1.71,0.36,3.08,1.09,4.11c0.724,1.03,1.79,1.54,3.2,1.54c1.87,0,3.18-0.915,3.94-2.74l3.94,2 c-0.838,1.56-2,2.79-3.49,3.69c-1.48,0.896-3.12,1.34-4.91,1.34c-2.86,0-5.16-0.875-6.92-2.63 c-1.75-1.75-2.63-4.19-2.63-7.31c0-3.05,0.886-5.47,2.66-7.26c1.77-1.79,4.01-2.69,6.72-2.69 C32.6,18.56,35.44,20.1,37.16,23.19z
              M55.61,23.19l-4.23,2.23c-0.457-0.951-1.02-1.62-1.69-2 c-0.668-0.38-1.31-0.571-1.91-0.571c-2.86,0-4.29,1.89-4.29,5.66c0,1.71,0.363,3.08,1.09,4.11 c0.723,1.03,1.79,1.54,3.2,1.54c1.87,0,3.18-0.915,3.94-2.74l4,2c-0.875,1.56-2.06,2.79-3.54,3.69 c-1.49,0.9-3.11,1.34-4.86,1.34c-2.9,0-5.21-0.875-6.94-2.63c-1.74-1.75-2.6-4.19-2.6-7.31 c0-3.05,0.885-5.47,2.66-7.26c1.77-1.79,4.01-2.69,6.71-2.69C51.12,18.56,53.944,20.1,55.61,23.19z"/>
  </g></g>
  <g transform="translate(140.2,652.4) scale(0.24)">
  <g><circle fill="#FFF" cx="37.79" cy="28.5" r="28.84"/>
     <circle fill="none" cx="37.79" cy="28.5" r="28.84" stroke="#BFBFBF" stroke-width="5.5"/>
     <path fill="#BFBFBF" d="M46.129,20.557v13.085h-3.656v15.542h-9.944V33.643h-3.656V20.557 c0-0.572,0.2-1.057,0.599-1.457c0.401-0.399,0.887-0.6,1.457-0.6h13.144c0.533,0,1.01,0.2,1.428,0.6 C45.918,19.5,46.129,19.986,46.129,20.557z
              M33.042,12.329c0-3.008,1.485-4.514,4.458-4.514s4.457,1.504,4.457,4.514 c0,2.971-1.486,4.457-4.457,4.457S33.042,15.3,33.042,12.329z"/>
  </g></g>
</g>
</g>
</svg>
