<svg version="1.1" xmlns="http://www.w3.org/2000/svg" xmlns:xlink="http://www.w3.org/1999/xlink" width="100%" height="100%" viewBox="0 0 1200.000 674.916">
<title>Annual CO2 Emissions: Liechtenstein</title>
<style type="text/css">
  #main {font-family:Helvetica,Arial,sans-serif; font-size:27.00px;
         fill-opacity:1; fill:#000000; stroke:none; stroke-linejoin:round; stroke-linecap:round; stroke-width:1.00;}
  .marker {stroke-opacity:0;fill-opacity:0;}
  .marker:hover {stroke-opacity:0.5; fill-opacity:1;}
  .ticklabel {font-size:27.00px;fill:#808080;stroke:none;font-family:Helvetica}
  .ytl {text-anchor:end;}
  .dp1 {pointer-events:none;font-size:70%;text-anchor:middle;fill:#000000;}
  .dp2 {pointer-events:none;font-size:70%;text-anchor:middle;fill:#FFFFFF;}
  .numtip {pointer-events:none;}
  .cc {opacity:0.25;}
.dl_fe {background-color:#FDFFDF;display:flex;margin:auto;align-items:center}
.dl_fe_p {font-size:20px;text-align:center;margin:3px}
.dl_el {display:none;pointer-events:none;}
.cc:hover + .dl_el {display:block;}
text:hover + .dl_el {display:block;}
</style>
<defs>
  <clipPath id="axis_clip"><rect x="145.8" y="54.2" width="761.2" height="532.8" /></clipPath>
  <path id="line_y" d="M 0,53.993 v 533.183" stroke="#262626" stroke-opacity="0.15" stroke-width="1.00"/>
  <path id="line_x" d="M 145.600,0 h 761.600" stroke="#262626" stroke-opacity="0.15" stroke-width="1.00"/>
  <path id="tick_y" d="M 145.600,0 h -6.000" stroke="#808080" stroke-width="0.90"/>
  <path id="tick_x" d="M 0,587.177 v 6.000" stroke="#808080" stroke-width="0.90"/>
</defs>
<g id="main">
<use xlink:href="#line_y" transform="translate(156.5,0)"/>
<use xlink:href="#line_y" transform="translate(265.3,0)"/>
<use xlink:href="#line_y" transform="translate(374.1,0)"/>
<use xlink:href="#line_y" transform="translate(482.9,0)"/>
<use xlink:href="#line_y" transform="translate(591.7,0)"/>
<use xlink:href="#line_y" transform="translate(700.5,0)"/>
<use xlink:href="#line_y" transform="translate(809.3,0)"/>
<use xlink:href="#line_y" transform="translate(896.3,0)"/>
<use xlink:href="#line_x" transform="translate(0,587.2)"/>
<use xlink:href="#line_x" transform="translate(0,498.3)"/>
<use xlink:href="#line_x" transform="translate(0,409.4)"/>
<use xlink:href="#line_x" transform="translate(0,320.6)"/>
<use xlink:href="#line_x" transform="translate(0,231.7)"/>
<use xlink:href="#line_x" transform="translate(0,142.9)"/>
<use xlink:href="#line_x" transform="translate(0,54.0)"/>
<use xlink:href="#tick_y" transform="translate(0,587.2)"/>
<use xlink:href="#tick_y" transform="translate(0,498.3)"/>
<use xlink:href="#tick_y" transform="translate(0,409.4)"/>
<use xlink:href="#tick_y" transform="translate(0,320.6)"/>
<use xlink:href="#tick_y" transform="translate(0,231.7)"/>
<use xlink:href="#tick_y" transform="translate(0,142.9)"/>
<use xlink:href="#tick_y" transform="translate(0,54.0)"/>
<use xlink:href="#tick_x" transform="translate(156.5,0)"/>
<use xlink:href="#tick_x" transform="translate(265.3,0)"/>
<use xlink:href="#tick_x" transform="translate(374.1,0)"/>
<use xlink:href="#tick_x" transform="translate(482.9,0)"/>
<use xlink:href="#tick_x" transform="translate(591.7,0)"/>
<use xlink:href="#tick_x" transform="translate(700.5,0)"/>
<use xlink:href="#tick_x" transform="translate(809.3,0)"/>
<use xlink:href="#tick_x" transform="translate(896.3,0)"/>
<polyline points="145.6,53.993 145.6,587.177 907.2,587.177" stroke="#808080" stroke-width="0.90" fill="none"/>
<text class="ticklabel xtl" transform="translate(156.5,629.0)" text-anchor="middle">1990</text>
<text class="ticklabel xtl" transform="translate(265.3,629.0)" text-anchor="middle">1995</text>
<text class="ticklabel xtl" transform="translate(374.1,629.0)" text-anchor="middle">2000</text>
<text class="ticklabel xtl" transform="translate(482.9,629.0)" text-anchor="middle">2005</text>
<text class="ticklabel xtl" transform="translate(591.7,629.0)" text-anchor="middle">2010</text>
<text class="ticklabel xtl" transform="translate(700.5,629.0)" text-anchor="middle">2015</text>
<text class="ticklabel xtl" transform="translate(809.3,629.0)" text-anchor="middle">2020</text>
<text class="ticklabel xtl" transform="translate(896.3,629.0)" text-anchor="middle">2024</text>
<text class="ticklabel ytl" transform="translate(128.8,595.3)">-50</text>
<text class="ticklabel ytl" transform="translate(128.8,506.4)">0</text>
<text class="ticklabel ytl" transform="translate(128.8,417.5)">50</text>
<text class="ticklabel ytl" transform="translate(128.8,328.7)">100</text>
<text class="ticklabel ytl" transform="translate(128.8,239.8)">150</text>
<text class="ticklabel ytl" transform="translate(128.8,151.0)">200</text>
<text class="ticklabel ytl" transform="translate(128.8,62.1)">250 kt</text>
<g stroke="#000" stroke-width="0.90" fill="#7FBF7F"  clip-path="url(#axis_clip)">
  <polygon class="pl" points="147.8,138.0 147.8,144.7 165.2,144.7 165.2,138.0 147.8,138.0"/>
  <polygon class="pl" points="234.8,113.5 234.8,140.9 252.2,140.9 252.2,113.5 234.8,113.5"/>
  <polygon class="pl" points="256.6,131.7 256.6,135.4 274.0,135.4 274.0,131.7 256.6,131.7"/>
  <polygon class="pl" points="300.1,91.7 300.1,110.3 317.5,110.3 317.5,91.7 300.1,91.7"/>
  <polygon class="pl" points="321.9,90.6 321.9,91.0 339.3,91.0 339.3,90.6 321.9,90.6"/>
  <polygon class="pl" points="365.4,74.5 365.4,113.0 382.8,113.0 382.8,74.5 365.4,74.5"/>
  <polygon class="pl" points="387.1,110.0 387.1,116.9 404.5,116.9 404.5,110.0 387.1,110.0"/>
  <polygon class="pl" points="408.9,102.7 408.9,107.4 426.3,107.4 426.3,102.7 408.9,102.7"/>
  <polygon class="pl" points="430.7,83.5 430.7,90.8 448.1,90.8 448.1,83.5 430.7,83.5"/>
  <polygon class="pl" points="452.4,83.3 452.4,90.7 469.8,90.7 469.8,83.3 452.4,83.3"/>
  <polygon class="pl" points="474.2,78.2 474.2,91.5 491.6,91.5 491.6,78.2 474.2,78.2"/>
  <polygon class="pl" points="495.9,69.5 495.9,87.7 513.3,87.7 513.3,69.5 495.9,69.5"/>
  <polygon class="pl" points="517.7,103.0 517.7,141.6 535.1,141.6 535.1,103.0 517.7,103.0"/>
  <polygon class="pl" points="539.5,70.4 539.5,108.3 556.9,108.3 556.9,70.4 539.5,70.4"/>
  <polygon class="pl" points="561.2,101.1 561.2,133.4 578.6,133.4 578.6,101.1 561.2,101.1"/>
  <polygon class="pl" points="583.0,128.6 583.0,159.3 600.4,159.3 600.4,128.6 583.0,128.6"/>
  <polygon class="pl" points="604.7,166.3 604.7,184.2 622.1,184.2 622.1,166.3 604.7,166.3"/>
  <polygon class="pl" points="626.5,155.6 626.5,169.0 643.9,169.0 643.9,155.6 626.5,155.6"/>
  <polygon class="pl" points="648.3,155.7 648.3,156.1 665.7,156.1 665.7,155.7 648.3,155.7"/>
  <polygon class="pl" points="670.0,208.6 670.0,211.7 687.4,211.7 687.4,208.6 670.0,208.6"/>
  <polygon class="pl" points="713.5,228.6 713.5,231.9 730.9,231.9 730.9,228.6 713.5,228.6"/>
  <polygon class="pl" points="735.3,218.4 735.3,221.2 752.7,221.2 752.7,218.4 735.3,218.4"/>
  <polygon class="pl" points="757.1,229.1 757.1,243.8 774.5,243.8 774.5,229.1 757.1,229.1"/>
  <polygon class="pl" points="778.8,232.9 778.8,233.1 796.2,233.1 796.2,232.9 778.8,232.9"/>
</g>
<g stroke="#000" stroke-width="0.90" fill="#DBA746"  clip-path="url(#axis_clip)">
  <polygon class="pl" points="147.8,144.7 147.8,144.7 165.2,144.7 165.2,144.7 147.8,144.7"/>
  <polygon class="pl" points="169.5,131.6 169.5,131.6 186.9,131.6 186.9,131.6 169.5,131.6"/>
  <polygon class="pl" points="191.3,130.5 191.3,130.5 208.7,130.5 208.7,130.5 191.3,130.5"/>
  <polygon class="pl" points="213.1,116.1 213.1,116.2 230.5,116.2 230.5,116.1 213.1,116.1"/>
  <polygon class="pl" points="234.8,140.9 234.8,140.9 252.2,140.9 252.2,140.9 234.8,140.9"/>
  <polygon class="pl" points="256.6,135.4 256.6,135.4 274.0,135.4 274.0,135.4 256.6,135.4"/>
  <polygon class="pl" points="278.3,132.3 278.3,132.3 295.7,132.3 295.7,132.3 278.3,132.3"/>
  <polygon class="pl" points="300.1,110.3 300.1,110.3 317.5,110.3 317.5,110.3 300.1,110.3"/>
  <polygon class="pl" points="321.9,91.0 321.9,91.0 339.3,91.0 339.3,91.0 321.9,91.0"/>
  <polygon class="pl" points="343.6,95.7 343.6,95.7 361.0,95.7 361.0,95.7 343.6,95.7"/>
  <polygon class="pl" points="365.4,113.0 365.4,113.0 382.8,113.0 382.8,113.0 365.4,113.0"/>
  <polygon class="pl" points="387.1,116.9 387.1,116.9 404.5,116.9 404.5,116.9 387.1,116.9"/>
  <polygon class="pl" points="408.9,107.4 408.9,107.4 426.3,107.4 426.3,107.4 408.9,107.4"/>
  <polygon class="pl" points="430.7,90.8 430.7,90.8 448.1,90.8 448.1,90.8 430.7,90.8"/>
  <polygon class="pl" points="452.4,90.7 452.4,90.8 469.8,90.8 469.8,90.7 452.4,90.7"/>
  <polygon class="pl" points="474.2,91.5 474.2,91.5 491.6,91.5 491.6,91.5 474.2,91.5"/>
  <polygon class="pl" points="495.9,87.7 495.9,87.8 513.3,87.8 513.3,87.7 495.9,87.7"/>
  <polygon class="pl" points="517.7,141.6 517.7,141.7 535.1,141.7 535.1,141.6 517.7,141.6"/>
  <polygon class="pl" points="539.5,108.3 539.5,108.3 556.9,108.3 556.9,108.3 539.5,108.3"/>
  <polygon class="pl" points="561.2,133.4 561.2,133.4 578.6,133.4 578.6,133.4 561.2,133.4"/>
  <polygon class="pl" points="583.0,159.3 583.0,159.3 600.4,159.3 600.4,159.3 583.0,159.3"/>
  <polygon class="pl" points="604.7,184.2 604.7,184.2 622.1,184.2 622.1,184.2 604.7,184.2"/>
  <polygon class="pl" points="626.5,169.0 626.5,169.0 643.9,169.0 643.9,169.0 626.5,169.0"/>
  <polygon class="pl" points="648.3,156.1 648.3,156.2 665.7,156.2 665.7,156.1 648.3,156.1"/>
  <polygon class="pl" points="670.0,211.7 670.0,211.8 687.4,211.8 687.4,211.7 670.0,211.7"/>
  <polygon class="pl" points="691.8,214.4 691.8,214.4 709.2,214.4 709.2,214.4 691.8,214.4"/>
  <polygon class="pl" points="713.5,231.9 713.5,232.0 730.9,232.0 730.9,231.9 713.5,231.9"/>
  <polygon class="pl" points="735.3,221.2 735.3,221.2 752.7,221.2 752.7,221.2 735.3,221.2"/>
  <polygon class="pl" points="757.1,243.8 757.1,243.9 774.5,243.9 774.5,243.8 757.1,243.8"/>
  <polygon class="pl" points="778.8,233.1 778.8,233.1 796.2,233.1 796.2,233.1 778.8,233.1"/>
  <polygon class="pl" points="800.6,245.7 800.6,245.7 818.0,245.7 818.0,245.7 800.6,245.7"/>
  <polygon class="pl" points="822.3,238.9 822.3,238.9 839.7,238.9 839.7,238.9 822.3,238.9"/>
  <polygon class="pl" points="844.1,269.7 844.1,269.8 861.5,269.8 861.5,269.7 844.1,269.7"/>
  <polygon class="pl" points="865.9,265.0 865.9,265.1 883.3,265.1 883.3,265.0 865.9,265.0"/>
  <polygon class="pl" points="887.6,294.5 887.6,294.5 905.0,294.5 905.0,294.5 887.6,294.5"/>
</g>
<g stroke="#000" stroke-width="0.90" fill="#845F48"  clip-path="url(#axis_clip)">
  <polygon class="pl" points="147.8,144.7 147.8,144.8 165.2,144.8 165.2,144.7 147.8,144.7"/>
  <polygon class="pl" points="169.5,131.6 169.5,131.7 186.9,131.7 186.9,131.6 169.5,131.6"/>
  <polygon class="pl" points="191.3,130.5 191.3,130.6 208.7,130.6 208.7,130.5 191.3,130.5"/>
  <polygon class="pl" points="213.1,116.2 213.1,116.3 230.5,116.3 230.5,116.2 213.1,116.2"/>
  <polygon class="pl" points="234.8,140.9 234.8,141.0 252.2,141.0 252.2,140.9 234.8,140.9"/>
  <polygon class="pl" points="256.6,135.4 256.6,135.5 274.0,135.5 274.0,135.4 256.6,135.4"/>
  <polygon class="pl" points="278.3,132.3 278.3,132.4 295.7,132.4 295.7,132.3 278.3,132.3"/>
  <polygon class="pl" points="300.1,110.3 300.1,110.4 317.5,110.4 317.5,110.3 300.1,110.3"/>
  <polygon class="pl" points="321.9,91.0 321.9,91.1 339.3,91.1 339.3,91.0 321.9,91.0"/>
  <polygon class="pl" points="343.6,95.7 343.6,95.8 361.0,95.8 361.0,95.7 343.6,95.7"/>
  <polygon class="pl" points="365.4,113.0 365.4,113.1 382.8,113.1 382.8,113.0 365.4,113.0"/>
  <polygon class="pl" points="387.1,116.9 387.1,117.0 404.5,117.0 404.5,116.9 387.1,116.9"/>
  <polygon class="pl" points="408.9,107.4 408.9,107.5 426.3,107.5 426.3,107.4 408.9,107.4"/>
  <polygon class="pl" points="430.7,90.8 430.7,90.9 448.1,90.9 448.1,90.8 430.7,90.8"/>
  <polygon class="pl" points="452.4,90.8 452.4,90.8 469.8,90.8 469.8,90.8 452.4,90.8"/>
  <polygon class="pl" points="474.2,91.5 474.2,91.6 491.6,91.6 491.6,91.5 474.2,91.5"/>
  <polygon class="pl" points="495.9,87.8 495.9,87.8 513.3,87.8 513.3,87.8 495.9,87.8"/>
  <polygon class="pl" points="517.7,141.7 517.7,141.7 535.1,141.7 535.1,141.7 517.7,141.7"/>
  <polygon class="pl" points="539.5,108.3 539.5,108.4 556.9,108.4 556.9,108.3 539.5,108.3"/>
  <polygon class="pl" points="561.2,133.4 561.2,133.5 578.6,133.5 578.6,133.4 561.2,133.4"/>
  <polygon class="pl" points="583.0,159.3 583.0,159.4 600.4,159.4 600.4,159.3 583.0,159.3"/>
  <polygon class="pl" points="604.7,184.2 604.7,184.3 622.1,184.3 622.1,184.2 604.7,184.2"/>
  <polygon class="pl" points="626.5,169.0 626.5,169.1 643.9,169.1 643.9,169.0 626.5,169.0"/>
  <polygon class="pl" points="648.3,156.2 648.3,156.2 665.7,156.2 665.7,156.2 648.3,156.2"/>
  <polygon class="pl" points="670.0,211.8 670.0,211.8 687.4,211.8 687.4,211.8 670.0,211.8"/>
  <polygon class="pl" points="691.8,214.4 691.8,214.5 709.2,214.5 709.2,214.4 691.8,214.4"/>
  <polygon class="pl" points="713.5,232.0 713.5,232.0 730.9,232.0 730.9,232.0 713.5,232.0"/>
  <polygon class="pl" points="735.3,221.2 735.3,221.3 752.7,221.3 752.7,221.2 735.3,221.2"/>
  <polygon class="pl" points="757.1,243.9 757.1,243.9 774.5,243.9 774.5,243.9 757.1,243.9"/>
  <polygon class="pl" points="778.8,233.1 778.8,233.2 796.2,233.2 796.2,233.1 778.8,233.1"/>
  <polygon class="pl" points="800.6,245.7 800.6,245.8 818.0,245.8 818.0,245.7 800.6,245.7"/>
  <polygon class="pl" points="822.3,238.9 822.3,239.0 839.7,239.0 839.7,238.9 822.3,238.9"/>
  <polygon class="pl" points="844.1,269.8 844.1,269.8 861.5,269.8 861.5,269.8 844.1,269.8"/>
  <polygon class="pl" points="865.9,265.1 865.9,265.1 883.3,265.1 883.3,265.1 865.9,265.1"/>
  <polygon class="pl" points="887.6,294.5 887.6,294.5 905.0,294.5 905.0,294.5 887.6,294.5"/>
</g>
<g stroke="#000" stroke-width="0.90" fill="#4A89E8"  clip-path="url(#axis_clip)">
  <polygon class="pl" points="147.8,144.8 147.8,145.2 165.2,145.2 165.2,144.8 147.8,144.8"/>
  <polygon class="pl" points="169.5,131.7 169.5,132.1 186.9,132.1 186.9,131.7 169.5,131.7"/>
  <polygon class="pl" points="191.3,130.6 191.3,131.0 208.7,131.0 208.7,130.6 191.3,130.6"/>
  <polygon class="pl" points="213.1,116.3 213.1,116.6 230.5,116.6 230.5,116.3 213.1,116.3"/>
  <polygon class="pl" points="234.8,141.0 234.8,141.3 252.2,141.3 252.2,141.0 234.8,141.0"/>
  <polygon class="pl" points="256.6,135.5 256.6,135.8 274.0,135.8 274.0,135.5 256.6,135.5"/>
  <polygon class="pl" points="278.3,132.4 278.3,132.7 295.7,132.7 295.7,132.4 278.3,132.4"/>
  <polygon class="pl" points="300.1,110.4 300.1,110.7 317.5,110.7 317.5,110.4 300.1,110.4"/>
  <polygon class="pl" points="321.9,91.1 321.9,91.4 339.3,91.4 339.3,91.1 321.9,91.1"/>
  <polygon class="pl" points="343.6,95.8 343.6,96.1 361.0,96.1 361.0,95.8 343.6,95.8"/>
  <polygon class="pl" points="365.4,113.1 365.4,113.4 382.8,113.4 382.8,113.1 365.4,113.1"/>
  <polygon class="pl" points="387.1,117.0 387.1,117.3 404.5,117.3 404.5,117.0 387.1,117.0"/>
  <polygon class="pl" points="408.9,107.5 408.9,107.7 426.3,107.7 426.3,107.5 408.9,107.5"/>
  <polygon class="pl" points="430.7,90.9 430.7,91.2 448.1,91.2 448.1,90.9 430.7,90.9"/>
  <polygon class="pl" points="452.4,90.8 452.4,91.2 469.8,91.2 469.8,90.8 452.4,90.8"/>
  <polygon class="pl" points="474.2,91.6 474.2,92.0 491.6,92.0 491.6,91.6 474.2,91.6"/>
  <polygon class="pl" points="495.9,87.8 495.9,88.2 513.3,88.2 513.3,87.8 495.9,87.8"/>
  <polygon class="pl" points="517.7,141.7 517.7,142.1 535.1,142.1 535.1,141.7 517.7,141.7"/>
  <polygon class="pl" points="539.5,108.4 539.5,108.7 556.9,108.7 556.9,108.4 539.5,108.4"/>
  <polygon class="pl" points="561.2,133.5 561.2,133.8 578.6,133.8 578.6,133.5 561.2,133.5"/>
  <polygon class="pl" points="583.0,159.4 583.0,159.7 600.4,159.7 600.4,159.4 583.0,159.4"/>
  <polygon class="pl" points="604.7,184.3 604.7,184.5 622.1,184.5 622.1,184.3 604.7,184.3"/>
  <polygon class="pl" points="626.5,169.1 626.5,169.3 643.9,169.3 643.9,169.1 626.5,169.1"/>
  <polygon class="pl" points="648.3,156.2 648.3,156.5 665.7,156.5 665.7,156.2 648.3,156.2"/>
  <polygon class="pl" points="670.0,211.8 670.0,212.1 687.4,212.1 687.4,211.8 670.0,211.8"/>
  <polygon class="pl" points="691.8,214.5 691.8,214.7 709.2,214.7 709.2,214.5 691.8,214.5"/>
  <polygon class="pl" points="713.5,232.0 713.5,232.3 730.9,232.3 730.9,232.0 713.5,232.0"/>
  <polygon class="pl" points="735.3,221.3 735.3,221.5 752.7,221.5 752.7,221.3 735.3,221.3"/>
  <polygon class="pl" points="757.1,243.9 757.1,244.2 774.5,244.2 774.5,243.9 757.1,243.9"/>
  <polygon class="pl" points="778.8,233.2 778.8,233.4 796.2,233.4 796.2,233.2 778.8,233.2"/>
  <polygon class="pl" points="800.6,245.8 800.6,246.0 818.0,246.0 818.0,245.8 800.6,245.8"/>
  <polygon class="pl" points="822.3,239.0 822.3,239.2 839.7,239.2 839.7,239.0 822.3,239.0"/>
  <polygon class="pl" points="844.1,269.8 844.1,270.1 861.5,270.1 861.5,269.8 844.1,269.8"/>
  <polygon class="pl" points="865.9,265.1 865.9,265.3 883.3,265.3 883.3,265.1 865.9,265.1"/>
  <polygon class="pl" points="887.6,294.5 887.6,294.7 905.0,294.7 905.0,294.5 887.6,294.5"/>
</g>
<g stroke="#000" stroke-width="0.90" fill="#FF7F61"  clip-path="url(#axis_clip)">
  <polygon class="pl" points="147.8,145.2 147.8,498.3 165.2,498.3 165.2,145.2 147.8,145.2"/>
  <polygon class="pl" points="169.5,132.1 169.5,498.3 186.9,498.3 186.9,132.1 169.5,132.1"/>
  <polygon class="pl" points="191.3,131.0 191.3,498.3 208.7,498.3 208.7,131.0 191.3,131.0"/>
  <polygon class="pl" points="213.1,116.6 213.1,498.3 230.5,498.3 230.5,116.6 213.1,116.6"/>
  <polygon class="pl" points="234.8,141.3 234.8,498.3 252.2,498.3 252.2,141.3 234.8,141.3"/>
  <polygon class="pl" points="256.6,135.8 256.6,498.3 274.0,498.3 274.0,135.8 256.6,135.8"/>
  <polygon class="pl" points="278.3,132.7 278.3,498.3 295.7,498.3 295.7,132.7 278.3,132.7"/>
  <polygon class="pl" points="300.1,110.7 300.1,498.3 317.5,498.3 317.5,110.7 300.1,110.7"/>
  <polygon class="pl" points="321.9,91.4 321.9,498.3 339.3,498.3 339.3,91.4 321.9,91.4"/>
  <polygon class="pl" points="343.6,96.1 343.6,498.3 361.0,498.3 361.0,96.1 343.6,96.1"/>
  <polygon class="pl" points="365.4,113.4 365.4,498.3 382.8,498.3 382.8,113.4 365.4,113.4"/>
  <polygon class="pl" points="387.1,117.3 387.1,498.3 404.5,498.3 404.5,117.3 387.1,117.3"/>
  <polygon class="pl" points="408.9,107.7 408.9,498.3 426.3,498.3 426.3,107.7 408.9,107.7"/>
  <polygon class="pl" points="430.7,91.2 430.7,498.3 448.1,498.3 448.1,91.2 430.7,91.2"/>
  <polygon class="pl" points="452.4,91.2 452.4,498.3 469.8,498.3 469.8,91.2 452.4,91.2"/>
  <polygon class="pl" points="474.2,92.0 474.2,498.3 491.6,498.3 491.6,92.0 474.2,92.0"/>
  <polygon class="pl" points="495.9,88.2 495.9,498.3 513.3,498.3 513.3,88.2 495.9,88.2"/>
  <polygon class="pl" points="517.7,142.1 517.7,498.3 535.1,498.3 535.1,142.1 517.7,142.1"/>
  <polygon class="pl" points="539.5,108.7 539.5,498.3 556.9,498.3 556.9,108.7 539.5,108.7"/>
  <polygon class="pl" points="561.2,133.8 561.2,498.3 578.6,498.3 578.6,133.8 561.2,133.8"/>
  <polygon class="pl" points="583.0,159.7 583.0,498.3 600.4,498.3 600.4,159.7 583.0,159.7"/>
  <polygon class="pl" points="604.7,184.5 604.7,498.3 622.1,498.3 622.1,184.5 604.7,184.5"/>
  <polygon class="pl" points="626.5,169.3 626.5,498.3 643.9,498.3 643.9,169.3 626.5,169.3"/>
  <polygon class="pl" points="648.3,156.5 648.3,498.3 665.7,498.3 665.7,156.5 648.3,156.5"/>
  <polygon class="pl" points="670.0,212.1 670.0,498.3 687.4,498.3 687.4,212.1 670.0,212.1"/>
  <polygon class="pl" points="691.8,214.7 691.8,498.3 709.2,498.3 709.2,214.7 691.8,214.7"/>
  <polygon class="pl" points="713.5,232.3 713.5,498.3 730.9,498.3 730.9,232.3 713.5,232.3"/>
  <polygon class="pl" points="735.3,221.5 735.3,498.3 752.7,498.3 752.7,221.5 735.3,221.5"/>
  <polygon class="pl" points="757.1,244.2 757.1,498.3 774.5,498.3 774.5,244.2 757.1,244.2"/>
  <polygon class="pl" points="778.8,233.4 778.8,498.3 796.2,498.3 796.2,233.4 778.8,233.4"/>
  <polygon class="pl" points="800.6,246.0 800.6,498.3 818.0,498.3 818.0,246.0 800.6,246.0"/>
  <polygon class="pl" points="822.3,239.2 822.3,498.3 839.7,498.3 839.7,239.2 822.3,239.2"/>
  <polygon class="pl" points="844.1,270.1 844.1,498.3 861.5,498.3 861.5,270.1 844.1,270.1"/>
  <polygon class="pl" points="865.9,265.3 865.9,498.3 883.3,498.3 883.3,265.3 865.9,265.3"/>
  <polygon class="pl" points="887.6,294.7 887.6,498.3 905.0,498.3 905.0,294.7 887.6,294.7"/>
</g>
<g stroke="#000" stroke-width="0.90" fill="#7FBF7F"  clip-path="url(#axis_clip)">
  <polygon class="pl" points="169.5,521.6 169.5,498.3 186.9,498.3 186.9,521.6 169.5,521.6"/>
  <polygon class="pl" points="191.3,501.1 191.3,498.3 208.7,498.3 208.7,501.1 191.3,501.1"/>
  <polygon class="pl" points="213.1,505.6 213.1,498.3 230.5,498.3 230.5,505.6 213.1,505.6"/>
  <polygon class="pl" points="278.3,512.5 278.3,498.3 295.7,498.3 295.7,512.5 278.3,512.5"/>
  <polygon class="pl" points="343.6,500.4 343.6,498.3 361.0,498.3 361.0,500.4 343.6,500.4"/>
  <polygon class="pl" points="691.8,502.9 691.8,498.3 709.2,498.3 709.2,502.9 691.8,502.9"/>
  <polygon class="pl" points="800.6,511.4 800.6,498.3 818.0,498.3 818.0,511.4 800.6,511.4"/>
  <polygon class="pl" points="822.3,517.7 822.3,498.3 839.7,498.3 839.7,517.7 822.3,517.7"/>
  <polygon class="pl" points="844.1,515.2 844.1,498.3 861.5,498.3 861.5,515.2 844.1,515.2"/>
  <polygon class="pl" points="865.9,507.0 865.9,498.3 883.3,498.3 883.3,507.0 865.9,507.0"/>
  <polygon class="pl" points="887.6,517.4 887.6,498.3 905.0,498.3 905.0,517.4 887.6,517.4"/>
</g>
<polyline class="pl" points="156.5,138.0 178.2,154.9 200.0,133.3 221.8,123.4 243.5,113.5 265.3,131.7 287.0,146.5 308.8,91.7 330.6,90.6 352.3,97.8 374.1,74.5 395.8,110.0 417.6,102.7 439.4,83.5 461.1,83.3 482.9,78.2 504.6,69.5 526.4,103.0 548.2,70.4 569.9,101.1 591.7,128.6 613.4,166.3 635.2,155.6 657.0,155.7 678.7,208.6 700.5,219.0 722.2,228.6 744.0,218.4 765.8,229.1 787.5,232.9 809.3,258.8 831.0,258.3 852.8,286.6 874.6,273.7 896.3,313.5" stroke="#000" stroke-width="5.40" stroke-opacity="1.00" fill="none" clip-path="url(#axis_clip)"/>
<g class="pl" fill="#FFF" stroke="#000" stroke-width="0.900">
  <circle cx="178.2" cy="154.9" r="2.2" />
  <circle cx="200.0" cy="133.3" r="2.2" />
  <circle cx="221.8" cy="123.4" r="2.2" />
  <circle cx="243.5" cy="113.5" r="2.2" />
  <circle cx="265.3" cy="131.7" r="2.2" />
  <circle cx="287.0" cy="146.5" r="2.2" />
  <circle cx="308.8" cy="91.7" r="2.2" />
  <circle cx="330.6" cy="90.6" r="2.2" />
  <circle cx="352.3" cy="97.8" r="2.2" />
  <circle cx="395.8" cy="110.0" r="2.2" />
  <circle cx="417.6" cy="102.7" r="2.2" />
  <circle cx="439.4" cy="83.5" r="2.2" />
  <circle cx="461.1" cy="83.3" r="2.2" />
  <circle cx="482.9" cy="78.2" r="2.2" />
  <circle cx="504.6" cy="69.5" r="2.2" />
  <circle cx="526.4" cy="103.0" r="2.2" />
  <circle cx="548.2" cy="70.4" r="2.2" />
  <circle cx="569.9" cy="101.1" r="2.2" />
  <circle cx="613.4" cy="166.3" r="2.2" />
  <circle cx="635.2" cy="155.6" r="2.2" />
  <circle cx="657.0" cy="155.7" r="2.2" />
  <circle cx="678.7" cy="208.6" r="2.2" />
  <circle cx="700.5" cy="219.0" r="2.2" />
  <circle cx="722.2" cy="228.6" r="2.2" />
  <circle cx="744.0" cy="218.4" r="2.2" />
  <circle cx="765.8" cy="229.1" r="2.2" />
  <circle cx="787.5" cy="232.9" r="2.2" />
  <circle cx="831.0" cy="258.3" r="2.2" />
  <circle cx="852.8" cy="286.6" r="2.2" />
  <circle cx="874.6" cy="273.7" r="2.2" />
  <circle cx="896.3" cy="313.5" r="2.2" />
</g>
<g class="pl" fill="#FFF" stroke="#000" stroke-width="0.900">
  <circle cx="156.5" cy="138.0" r="5.4" />
  <circle cx="374.1" cy="74.5" r="5.4" />
  <circle cx="591.7" cy="128.6" r="5.4" />
  <circle cx="809.3" cy="258.8" r="5.4" />
</g>
<text transform="translate(145.6,47.2)" dy="0.0" font-size="27.00" fill="#808080" stroke="none">Annual CO<tspan dy="0.2em"><tspan style="font-size:70%">2</tspan></tspan><tspan dy="-0.2em"> </tspan>Emissions: Liechtenstein</text>
<text transform="translate(130.0,81.7)" dy="8.1" font-size="27.00" fill="#808080" stroke="none" text-anchor="end">CO<tspan dy="0.2em"><tspan style="font-size:70%">2</tspan></tspan><tspan dy="-0.2em"></tspan></text>
<text transform="translate(945.6,347.3)" dy="7.6" font-size="25.20" fill="#000" stroke="none">-48.7% since 1990</text>
<text transform="translate(945.6,396.5)" dy="7.6" font-size="25.20" fill="#FF7F61" stroke="none">Energy</text>
<text transform="translate(945.6,322.8)" dy="7.6" font-size="25.20" fill="#4A89E8" stroke="none">Industrial Processes</text>
<text transform="translate(945.6,298.3)" dy="7.6" font-size="25.20" fill="#845F48" stroke="none">Agriculture</text>
<text transform="translate(945.6,273.8)" dy="7.6" font-size="25.20" fill="#DBA746" stroke="none">Waste</text>
<text transform="translate(945.6,249.3)" dy="7.6" font-size="25.20" fill="#7FBF7F" stroke="none">LULUCF</text>
<text transform="translate(945.6,507.9)" dy="7.6" font-size="25.20" fill="#7FBF7F" stroke="none">LULUCF</text>
<polyline class="pl" points="910.8,313.5 912.4,313.7 913.8,314.0 915.2,314.6 916.4,315.3 917.6,316.2 918.8,317.3 919.8,318.5 920.8,319.8 921.7,321.3 922.7,322.8 923.5,324.4 924.4,326.1 925.2,327.8 926.0,329.5 926.8,331.3 927.6,333.0 928.4,334.7 929.3,336.4 930.1,338.0 931.1,339.6 932.0,341.0 933.0,342.3 934.0,343.6 935.2,344.6 936.4,345.5 937.6,346.3 939.0,346.8 940.4,347.2 942.0,347.3" stroke="#000" stroke-width="0.90" stroke-opacity="1.00" fill="none" />
<polyline class="pl" points="910.8,294.6 912.4,294.7 913.8,295.0 915.2,295.5 916.4,296.1 917.6,296.9 918.8,297.8 919.8,298.8 920.8,299.9 921.7,301.1 922.7,302.4 923.5,303.7 924.4,305.1 925.2,306.5 926.0,308.0 926.8,309.4 927.6,310.9 928.4,312.3 929.3,313.7 930.1,315.1 931.1,316.3 932.0,317.6 933.0,318.7 934.0,319.7 935.2,320.6 936.4,321.3 937.6,322.0 939.0,322.4 940.4,322.7 942.0,322.8" stroke="#4A89E8" stroke-width="0.90" stroke-opacity="1.00" fill="none" />
<polyline class="pl" points="910.8,294.5 912.4,294.5 913.8,294.6 915.2,294.6 916.4,294.7 917.6,294.8 918.8,294.9 919.8,295.1 920.8,295.2 921.7,295.4 922.7,295.6 923.5,295.7 924.4,295.9 925.2,296.1 926.0,296.3 926.8,296.5 927.6,296.7 928.4,296.9 929.3,297.1 930.1,297.3 931.1,297.4 932.0,297.6 933.0,297.7 934.0,297.9 935.2,298.0 936.4,298.1 937.6,298.2 939.0,298.2 940.4,298.3 942.0,298.3" stroke="#845F48" stroke-width="0.90" stroke-opacity="1.00" fill="none" />
<polyline class="pl" points="910.8,294.5 912.4,294.4 913.8,294.2 915.2,293.9 916.4,293.4 917.6,292.8 918.8,292.2 919.8,291.4 920.8,290.6 921.7,289.7 922.7,288.8 923.5,287.8 924.4,286.8 925.2,285.7 926.0,284.7 926.8,283.6 927.6,282.5 928.4,281.5 929.3,280.5 930.1,279.5 931.1,278.5 932.0,277.7 933.0,276.8 934.0,276.1 935.2,275.4 936.4,274.9 937.6,274.4 939.0,274.1 940.4,273.9 942.0,273.8" stroke="#DBA746" stroke-width="0.90" stroke-opacity="1.00" fill="none" />
<polyline class="pl" points="910.8,294.3 912.4,294.2 913.8,293.7 915.2,293.0 916.4,292.0 917.6,290.8 918.8,289.4 919.8,287.7 920.8,285.9 921.7,284.0 922.7,282.0 923.5,279.8 924.4,277.6 925.2,275.3 926.0,273.0 926.8,270.7 927.6,268.3 928.4,266.1 929.3,263.8 930.1,261.7 931.1,259.6 932.0,257.7 933.0,255.9 934.0,254.3 935.2,252.9 936.4,251.6 937.6,250.7 939.0,249.9 940.4,249.5 942.0,249.3" stroke="#7FBF7F" stroke-width="0.90" stroke-opacity="1.00" fill="none" />
<text transform="translate(160.0,666.1)" font-size="19.80" font-family="Helvetica" fill="#BFBFBF" stroke="none" xml:space="preserve">CICERO   &#9679;   Data: UNFCCC (2026)</text>
<g>
  <rect x="123.0" y="651.4" width="34" height="17" fill="#FFF" stroke="none" opacity="0.01"/>
  <g transform="translate(124.0,652.4) scale(0.24)">
  <g><circle fill="#FFF" cx="37.79" cy="28.5" r="28.84"/>
     <circle fill="none" cx="37.79" cy="28.5" r="28.84" stroke="#BFBFBF" stroke-width="5.5"/>
     <path fill="#BFBFBF" d="M37.16,23.19 l-4.29,2.23c-0.458-0.951-1.02-1.62-1.69-2c-0.667-0.38-1.29-0.571-1.86-0.571c-2.86,0-4.29,1.89-4.29,5.66 c0,1.71,0.36,3.08,1.09,4.11c0.724,1.03,1.79,1.54,3.2,1.54c1.87,0,3.18-0.915,3.94-2.74l3.94,2 c-0.838,1.56-2,2.79-3.49,3.69c-1.48,0.896-3.12,1.34-4.91,1.34c-2.86,0-5.16-0.875-6.92-2.63 c-1.75-1.75-2.63-4.19-2.63-7.31c0-3.05,0.886-5.47,2.66-7.26c1.77-1.79,4.01-2.69,6.72-2.69 C32.6,18.56,35.44,20.1,37.16,23.19z
              M55.61,23.19l-4.23,2.23c-0.457-0.951-1.02-1.62-1.69-2 c-0.668-0.38-1.31-0.571-1.91-0.571c-2.86,0-4.29,1.89-4.29,5.66c0,1.71,0.363,3.08,1.09,4.11 c0.723,1.03,1.79,1.54,3.2,1.54c1.87,0,3.18-0.915,3.94-2.74l4,2c-0.875,1.56-2.06,2.79-3.54,3.69 c-1.49,0.9-3.11,1.34-4.86,1.34c-2.9,0-5.21-0.875-6.94-2.63c-1.74-1.75-2.6-4.19-2.6-7.31 c0-3.05,0.885-5.47,2.66-7.26c1.77-1.79,4.01-2.69,6.71-2.69C51.12,18.56,53.944,20.1,55.61,23.19z"/>
  </g></g>
  <g transform="translate(140.2,652.4) scale(0.24)">
  <g><circle fill="#FFF" cx="37.79" cy="28.5" r="28.84"/>
     <circle fill="none" cx="37.79" cy="28.5" r="28.84" stroke="#BFBFBF" stroke-width="5.5"/>
     <path fill="#BFBFBF" d="M46.129,20.557v13.085h-3.656v15.542h-9.944V33.643h-3.656V20.557 c0-0.572,0.2-1.057,0.599-1.457c0.401-0.399,0.887-0.6,1.457-0.6h13.144c0.533,0,1.01,0.2,1.428,0.6 C45.918,19.5,46.129,19.986,46.129,20.557z
              M33.042,12.329c0-3.008,1.485-4.514,4.458-4.514s4.457,1.504,4.457,4.514 c0,2.971-1.486,4.457-4.457,4.457S33.042,15.3,33.042,12.329z"/>
  </g></g>
</g>
</g>
</svg>
