<svg version="1.1" xmlns="http://www.w3.org/2000/svg" xmlns:xlink="http://www.w3.org/1999/xlink" width="100%" height="100%" viewBox="0 0 1200.000 674.916">
<title>Annual CO2 Emissions: Ecuador</title>
<style type="text/css">
  #main {font-family:Helvetica,Arial,sans-serif; font-size:27.00px;
         fill-opacity:1; fill:#000000; stroke:none; stroke-linejoin:round; stroke-linecap:round; stroke-width:1.00;}
  .marker {stroke-opacity:0;fill-opacity:0;}
  .marker:hover {stroke-opacity:0.5; fill-opacity:1;}
  .ticklabel {font-size:27.00px;fill:#808080;stroke:none;font-family:Helvetica}
  .ytl {text-anchor:end;}
  .dp1 {pointer-events:none;font-size:70%;text-anchor:middle;fill:#000000;}
  .dp2 {pointer-events:none;font-size:70%;text-anchor:middle;fill:#FFFFFF;}
  .numtip {pointer-events:none;}
  .cc {opacity:0.25;}
.dl_fe {background-color:#FDFFDF;display:flex;margin:auto;align-items:center}
.dl_fe_p {font-size:20px;text-align:center;margin:3px}
.dl_el {display:none;pointer-events:none;}
.cc:hover + .dl_el {display:block;}
text:hover + .dl_el {display:block;}
</style>
<defs>
  <clipPath id="axis_clip"><rect x="145.8" y="54.2" width="761.2" height="532.8" /></clipPath>
  <path id="line_y" d="M 0,53.993 v 533.183" stroke="#262626" stroke-opacity="0.15" stroke-width="1.00"/>
  <path id="line_x" d="M 145.600,0 h 761.600" stroke="#262626" stroke-opacity="0.15" stroke-width="1.00"/>
  <path id="tick_y" d="M 145.600,0 h -6.000" stroke="#808080" stroke-width="0.90"/>
  <path id="tick_x" d="M 0,587.177 v 6.000" stroke="#808080" stroke-width="0.90"/>
</defs>
<g id="main">
<use xlink:href="#line_y" transform="translate(185.0,0)"/>
<use xlink:href="#line_y" transform="translate(316.3,0)"/>
<use xlink:href="#line_y" transform="translate(447.6,0)"/>
<use xlink:href="#line_y" transform="translate(578.9,0)"/>
<use xlink:href="#line_y" transform="translate(710.2,0)"/>
<use xlink:href="#line_y" transform="translate(894.1,0)"/>
<use xlink:href="#line_x" transform="translate(0,587.2)"/>
<use xlink:href="#line_x" transform="translate(0,453.9)"/>
<use xlink:href="#line_x" transform="translate(0,320.6)"/>
<use xlink:href="#line_x" transform="translate(0,187.3)"/>
<use xlink:href="#line_x" transform="translate(0,54.0)"/>
<use xlink:href="#tick_y" transform="translate(0,587.2)"/>
<use xlink:href="#tick_y" transform="translate(0,453.9)"/>
<use xlink:href="#tick_y" transform="translate(0,320.6)"/>
<use xlink:href="#tick_y" transform="translate(0,187.3)"/>
<use xlink:href="#tick_y" transform="translate(0,54.0)"/>
<use xlink:href="#tick_x" transform="translate(185.0,0)"/>
<use xlink:href="#tick_x" transform="translate(316.3,0)"/>
<use xlink:href="#tick_x" transform="translate(447.6,0)"/>
<use xlink:href="#tick_x" transform="translate(578.9,0)"/>
<use xlink:href="#tick_x" transform="translate(710.2,0)"/>
<use xlink:href="#tick_x" transform="translate(894.1,0)"/>
<polyline points="145.6,53.993 145.6,587.177 907.2,587.177" stroke="#808080" stroke-width="0.90" fill="none"/>
<text class="ticklabel xtl" transform="translate(185.0,629.0)" text-anchor="middle">1995</text>
<text class="ticklabel xtl" transform="translate(316.3,629.0)" text-anchor="middle">2000</text>
<text class="ticklabel xtl" transform="translate(447.6,629.0)" text-anchor="middle">2005</text>
<text class="ticklabel xtl" transform="translate(578.9,629.0)" text-anchor="middle">2010</text>
<text class="ticklabel xtl" transform="translate(710.2,629.0)" text-anchor="middle">2015</text>
<text class="ticklabel xtl" transform="translate(894.1,629.0)" text-anchor="middle">2022</text>
<text class="ticklabel ytl" transform="translate(128.8,595.3)">0</text>
<text class="ticklabel ytl" transform="translate(128.8,462.0)">20</text>
<text class="ticklabel ytl" transform="translate(128.8,328.7)">40</text>
<text class="ticklabel ytl" transform="translate(128.8,195.4)">60</text>
<text class="ticklabel ytl" transform="translate(128.8,62.1)">80 Mt</text>
<g stroke="#000" stroke-width="0.90" fill="#7FBF7F"  clip-path="url(#axis_clip)">
  <polygon points="148.2,58.1 148.2,477.0 169.2,477.0 169.2,58.1 148.2,58.1"/>
  <polygon points="305.8,166.0 305.8,449.8 326.8,449.8 326.8,166.0 305.8,166.0"/>
  <polygon points="463.4,127.3 463.4,393.2 484.4,393.2 484.4,127.3 463.4,127.3"/>
  <polygon points="568.4,119.3 568.4,353.2 589.4,353.2 589.4,119.3 568.4,119.3"/>
  <polygon points="620.9,122.8 620.9,340.1 642.0,340.1 642.0,122.8 620.9,122.8"/>
  <polygon points="673.5,105.4 673.5,311.7 694.5,311.7 694.5,105.4 673.5,105.4"/>
  <polygon points="726.0,137.9 726.0,324.8 747.0,324.8 747.0,137.9 726.0,137.9"/>
  <polygon points="778.5,185.2 778.5,320.4 799.5,320.4 799.5,185.2 778.5,185.2"/>
  <polygon points="831.0,230.3 831.0,365.6 852.0,365.6 852.0,230.3 831.0,230.3"/>
  <polygon points="857.3,173.2 857.3,337.1 878.3,337.1 878.3,173.2 857.3,173.2"/>
  <polygon points="883.6,141.4 883.6,313.3 904.6,313.3 904.6,141.4 883.6,141.4"/>
</g>
<g stroke="#000" stroke-width="0.90" fill="#DBA746"  clip-path="url(#axis_clip)">
  <polygon points="305.8,449.8 305.8,449.9 326.8,449.9 326.8,449.8 305.8,449.8"/>
  <polygon points="463.4,393.2 463.4,393.3 484.4,393.3 484.4,393.2 463.4,393.2"/>
  <polygon points="568.4,353.2 568.4,353.3 589.4,353.3 589.4,353.2 568.4,353.2"/>
  <polygon points="620.9,340.1 620.9,340.2 642.0,340.2 642.0,340.1 620.9,340.1"/>
  <polygon points="673.5,311.7 673.5,311.8 694.5,311.8 694.5,311.7 673.5,311.7"/>
  <polygon points="726.0,324.8 726.0,324.9 747.0,324.9 747.0,324.8 726.0,324.8"/>
  <polygon points="778.5,320.4 778.5,320.5 799.5,320.5 799.5,320.4 778.5,320.4"/>
  <polygon points="831.0,365.6 831.0,365.7 852.0,365.7 852.0,365.6 831.0,365.6"/>
  <polygon points="857.3,337.1 857.3,337.1 878.3,337.1 878.3,337.1 857.3,337.1"/>
  <polygon points="883.6,313.3 883.6,313.4 904.6,313.4 904.6,313.3 883.6,313.3"/>
</g>
<g stroke="#000" stroke-width="0.90" fill="#4A89E8"  clip-path="url(#axis_clip)">
  <polygon points="148.2,477.0 148.2,485.5 169.2,485.5 169.2,477.0 148.2,477.0"/>
  <polygon points="305.8,449.9 305.8,458.1 326.8,458.1 326.8,449.9 305.8,449.9"/>
  <polygon points="463.4,393.3 463.4,406.2 484.4,406.2 484.4,393.3 463.4,393.3"/>
  <polygon points="568.4,353.3 568.4,368.0 589.4,368.0 589.4,353.3 568.4,353.3"/>
  <polygon points="620.9,340.2 620.9,356.2 642.0,356.2 642.0,340.2 620.9,340.2"/>
  <polygon points="673.5,311.8 673.5,327.9 694.5,327.9 694.5,311.8 673.5,311.8"/>
  <polygon points="726.0,324.9 726.0,340.2 747.0,340.2 747.0,324.9 726.0,324.9"/>
  <polygon points="778.5,320.5 778.5,336.6 799.5,336.6 799.5,320.5 778.5,320.5"/>
  <polygon points="831.0,365.7 831.0,376.6 852.0,376.6 852.0,365.7 831.0,365.7"/>
  <polygon points="857.3,337.1 857.3,352.7 878.3,352.7 878.3,337.1 857.3,337.1"/>
  <polygon points="883.6,313.4 883.6,328.7 904.6,328.7 904.6,313.4 883.6,313.4"/>
</g>
<g stroke="#000" stroke-width="0.90" fill="#FF7F61"  clip-path="url(#axis_clip)">
  <polygon points="148.2,485.5 148.2,587.2 169.2,587.2 169.2,485.5 148.2,485.5"/>
  <polygon points="305.8,458.1 305.8,587.2 326.8,587.2 326.8,458.1 305.8,458.1"/>
  <polygon points="463.4,406.2 463.4,587.2 484.4,587.2 484.4,406.2 463.4,406.2"/>
  <polygon points="568.4,368.0 568.4,587.2 589.4,587.2 589.4,368.0 568.4,368.0"/>
  <polygon points="620.9,356.2 620.9,587.2 642.0,587.2 642.0,356.2 620.9,356.2"/>
  <polygon points="673.5,327.9 673.5,587.2 694.5,587.2 694.5,327.9 673.5,327.9"/>
  <polygon points="726.0,340.2 726.0,587.2 747.0,587.2 747.0,340.2 726.0,340.2"/>
  <polygon points="778.5,336.6 778.5,587.2 799.5,587.2 799.5,336.6 778.5,336.6"/>
  <polygon points="831.0,376.6 831.0,587.2 852.0,587.2 852.0,376.6 831.0,376.6"/>
  <polygon points="857.3,352.7 857.3,587.2 878.3,587.2 878.3,352.7 857.3,352.7"/>
  <polygon points="883.6,328.7 883.6,587.2 904.6,587.2 904.6,328.7 883.6,328.7"/>
</g>
<polyline class="pl" points="158.7,58.1 316.3,166.0 473.9,127.3 578.9,119.3 631.4,122.8 684.0,105.4 736.5,137.9 789.0,185.2 841.5,230.3 867.8,173.2 894.1,141.4" stroke="#000" stroke-width="5.40" stroke-opacity="1.00" fill="none" clip-path="url(#axis_clip)"/>
<g class="pl" fill="#FFF" stroke="#000" stroke-width="0.900">
  <circle cx="158.7" cy="58.1" r="2.2" />
  <circle cx="473.9" cy="127.3" r="2.2" />
  <circle cx="631.4" cy="122.8" r="2.2" />
  <circle cx="684.0" cy="105.4" r="2.2" />
  <circle cx="736.5" cy="137.9" r="2.2" />
  <circle cx="789.0" cy="185.2" r="2.2" />
  <circle cx="867.8" cy="173.2" r="2.2" />
  <circle cx="894.1" cy="141.4" r="2.2" />
</g>
<g class="pl" fill="#FFF" stroke="#000" stroke-width="0.900">
  <circle cx="316.3" cy="166.0" r="5.4" />
  <circle cx="578.9" cy="119.3" r="5.4" />
  <circle cx="841.5" cy="230.3" r="5.4" />
</g>
<text transform="translate(145.6,47.2)" dy="0.0" font-size="27.00" fill="#808080" stroke="none">Annual CO<tspan dy="0.2em"><tspan style="font-size:70%">2</tspan></tspan><tspan dy="-0.2em"> </tspan>Emissions: Ecuador</text>
<text transform="translate(130.0,81.6)" dy="8.1" font-size="27.00" fill="#808080" stroke="none" text-anchor="end">CO<tspan dy="0.2em"><tspan style="font-size:70%">2</tspan></tspan><tspan dy="-0.2em"></tspan></text>
<text transform="translate(945.6,141.4)" dy="7.6" font-size="25.20" fill="#000" stroke="none">-15.7% since 1994</text>
<text transform="translate(945.6,457.9)" dy="7.6" font-size="25.20" fill="#FF7F61" stroke="none">Energy</text>
<text transform="translate(945.6,329.7)" dy="7.6" font-size="25.20" fill="#4A89E8" stroke="none">Industrial Processes</text>
<text transform="translate(945.6,304.7)" dy="7.6" font-size="25.20" fill="#DBA746" stroke="none">Waste</text>
<text transform="translate(945.6,227.3)" dy="7.6" font-size="25.20" fill="#7FBF7F" stroke="none">LULUCF</text>
<polyline class="pl" points="910.8,321.0 912.4,321.1 913.8,321.2 915.2,321.3 916.4,321.5 917.6,321.7 918.8,322.0 919.8,322.3 920.8,322.7 921.7,323.0 922.7,323.4 923.5,323.8 924.4,324.3 925.2,324.7 926.0,325.2 926.8,325.6 927.6,326.1 928.4,326.5 929.3,326.9 930.1,327.3 931.1,327.7 932.0,328.1 933.0,328.4 934.0,328.8 935.2,329.0 936.4,329.3 937.6,329.5 939.0,329.6 940.4,329.7 942.0,329.7" stroke="#4A89E8" stroke-width="0.90" stroke-opacity="1.00" fill="none" />
<polyline class="pl" points="910.8,313.4 912.4,313.3 913.8,313.2 915.2,313.1 916.4,312.9 917.6,312.7 918.8,312.4 919.8,312.1 920.8,311.7 921.7,311.4 922.7,311.0 923.5,310.6 924.4,310.1 925.2,309.7 926.0,309.2 926.8,308.8 927.6,308.4 928.4,307.9 929.3,307.5 930.1,307.1 931.1,306.7 932.0,306.3 933.0,306.0 934.0,305.6 935.2,305.4 936.4,305.1 937.6,304.9 939.0,304.8 940.4,304.7 942.0,304.7" stroke="#DBA746" stroke-width="0.90" stroke-opacity="1.00" fill="none" />
<text transform="translate(160.0,666.1)" font-size="19.80" font-family="Helvetica" fill="#BFBFBF" stroke="none" xml:space="preserve">CICERO   &#9679;   Data: UNFCCC (2024)</text>
<g>
  <rect x="123.0" y="651.4" width="34" height="17" fill="#FFF" stroke="none" opacity="0.01"/>
  <g transform="translate(124.0,652.4) scale(0.24)">
  <g><circle fill="#FFF" cx="37.79" cy="28.5" r="28.84"/>
     <circle fill="none" cx="37.79" cy="28.5" r="28.84" stroke="#BFBFBF" stroke-width="5.5"/>
     <path fill="#BFBFBF" d="M37.16,23.19 l-4.29,2.23c-0.458-0.951-1.02-1.62-1.69-2c-0.667-0.38-1.29-0.571-1.86-0.571c-2.86,0-4.29,1.89-4.29,5.66 c0,1.71,0.36,3.08,1.09,4.11c0.724,1.03,1.79,1.54,3.2,1.54c1.87,0,3.18-0.915,3.94-2.74l3.94,2 c-0.838,1.56-2,2.79-3.49,3.69c-1.48,0.896-3.12,1.34-4.91,1.34c-2.86,0-5.16-0.875-6.92-2.63 c-1.75-1.75-2.63-4.19-2.63-7.31c0-3.05,0.886-5.47,2.66-7.26c1.77-1.79,4.01-2.69,6.72-2.69 C32.6,18.56,35.44,20.1,37.16,23.19z
              M55.61,23.19l-4.23,2.23c-0.457-0.951-1.02-1.62-1.69-2 c-0.668-0.38-1.31-0.571-1.91-0.571c-2.86,0-4.29,1.89-4.29,5.66c0,1.71,0.363,3.08,1.09,4.11 c0.723,1.03,1.79,1.54,3.2,1.54c1.87,0,3.18-0.915,3.94-2.74l4,2c-0.875,1.56-2.06,2.79-3.54,3.69 c-1.49,0.9-3.11,1.34-4.86,1.34c-2.9,0-5.21-0.875-6.94-2.63c-1.74-1.75-2.6-4.19-2.6-7.31 c0-3.05,0.885-5.47,2.66-7.26c1.77-1.79,4.01-2.69,6.71-2.69C51.12,18.56,53.944,20.1,55.61,23.19z"/>
  </g></g>
  <g transform="translate(140.2,652.4) scale(0.24)">
  <g><circle fill="#FFF" cx="37.79" cy="28.5" r="28.84"/>
     <circle fill="none" cx="37.79" cy="28.5" r="28.84" stroke="#BFBFBF" stroke-width="5.5"/>
     <path fill="#BFBFBF" d="M46.129,20.557v13.085h-3.656v15.542h-9.944V33.643h-3.656V20.557 c0-0.572,0.2-1.057,0.599-1.457c0.401-0.399,0.887-0.6,1.457-0.6h13.144c0.533,0,1.01,0.2,1.428,0.6 C45.918,19.5,46.129,19.986,46.129,20.557z
              M33.042,12.329c0-3.008,1.485-4.514,4.458-4.514s4.457,1.504,4.457,4.514 c0,2.971-1.486,4.457-4.457,4.457S33.042,15.3,33.042,12.329z"/>
  </g></g>
</g>
</g>
</svg>
