<svg version="1.1" xmlns="http://www.w3.org/2000/svg" xmlns:xlink="http://www.w3.org/1999/xlink" width="100%" height="100%" viewBox="0 0 1200.000 674.916">
<title>Annual CH4 Emissions: Ecuador</title>
<style type="text/css">
  #main {font-family:Helvetica,Arial,sans-serif; font-size:27.00px;
         fill-opacity:1; fill:#000000; stroke:none; stroke-linejoin:round; stroke-linecap:round; stroke-width:1.00;}
  .marker {stroke-opacity:0;fill-opacity:0;}
  .marker:hover {stroke-opacity:0.5; fill-opacity:1;}
  .ticklabel {font-size:27.00px;fill:#808080;stroke:none;font-family:Helvetica}
  .ytl {text-anchor:end;}
  .dp1 {pointer-events:none;font-size:70%;text-anchor:middle;fill:#000000;}
  .dp2 {pointer-events:none;font-size:70%;text-anchor:middle;fill:#FFFFFF;}
  .numtip {pointer-events:none;}
  .cc {opacity:0.25;}
.dl_fe {background-color:#FDFFDF;display:flex;margin:auto;align-items:center}
.dl_fe_p {font-size:20px;text-align:center;margin:3px}
.dl_el {display:none;pointer-events:none;}
.cc:hover + .dl_el {display:block;}
text:hover + .dl_el {display:block;}
</style>
<defs>
  <clipPath id="axis_clip"><rect x="145.8" y="54.2" width="761.2" height="532.8" /></clipPath>
  <path id="line_y" d="M 0,53.993 v 533.183" stroke="#262626" stroke-opacity="0.15" stroke-width="1.00"/>
  <path id="line_x" d="M 145.600,0 h 761.600" stroke="#262626" stroke-opacity="0.15" stroke-width="1.00"/>
  <path id="tick_y" d="M 145.600,0 h -6.000" stroke="#808080" stroke-width="0.90"/>
  <path id="tick_x" d="M 0,587.177 v 6.000" stroke="#808080" stroke-width="0.90"/>
</defs>
<g id="main">
<use xlink:href="#line_y" transform="translate(185.0,0)"/>
<use xlink:href="#line_y" transform="translate(316.3,0)"/>
<use xlink:href="#line_y" transform="translate(447.6,0)"/>
<use xlink:href="#line_y" transform="translate(578.9,0)"/>
<use xlink:href="#line_y" transform="translate(710.2,0)"/>
<use xlink:href="#line_y" transform="translate(894.1,0)"/>
<use xlink:href="#line_x" transform="translate(0,587.2)"/>
<use xlink:href="#line_x" transform="translate(0,434.8)"/>
<use xlink:href="#line_x" transform="translate(0,282.5)"/>
<use xlink:href="#line_x" transform="translate(0,130.2)"/>
<use xlink:href="#tick_y" transform="translate(0,587.2)"/>
<use xlink:href="#tick_y" transform="translate(0,434.8)"/>
<use xlink:href="#tick_y" transform="translate(0,282.5)"/>
<use xlink:href="#tick_y" transform="translate(0,130.2)"/>
<use xlink:href="#tick_x" transform="translate(185.0,0)"/>
<use xlink:href="#tick_x" transform="translate(316.3,0)"/>
<use xlink:href="#tick_x" transform="translate(447.6,0)"/>
<use xlink:href="#tick_x" transform="translate(578.9,0)"/>
<use xlink:href="#tick_x" transform="translate(710.2,0)"/>
<use xlink:href="#tick_x" transform="translate(894.1,0)"/>
<polyline points="145.6,53.993 145.6,587.177 907.2,587.177" stroke="#808080" stroke-width="0.90" fill="none"/>
<text class="ticklabel xtl" transform="translate(185.0,629.0)" text-anchor="middle">1995</text>
<text class="ticklabel xtl" transform="translate(316.3,629.0)" text-anchor="middle">2000</text>
<text class="ticklabel xtl" transform="translate(447.6,629.0)" text-anchor="middle">2005</text>
<text class="ticklabel xtl" transform="translate(578.9,629.0)" text-anchor="middle">2010</text>
<text class="ticklabel xtl" transform="translate(710.2,629.0)" text-anchor="middle">2015</text>
<text class="ticklabel xtl" transform="translate(894.1,629.0)" text-anchor="middle">2022</text>
<text class="ticklabel ytl" transform="translate(128.8,595.3)">0</text>
<text class="ticklabel ytl" transform="translate(128.8,442.9)">200</text>
<text class="ticklabel ytl" transform="translate(128.8,290.6)">400</text>
<text class="ticklabel ytl" transform="translate(128.8,138.3)">600 kt</text>
<g stroke="#000" stroke-width="0.90" fill="#7FBF7F"  clip-path="url(#axis_clip)">
  <polygon points="148.2,185.0 148.2,185.3 169.2,185.3 169.2,185.0 148.2,185.0"/>
  <polygon points="305.8,191.2 305.8,191.2 326.8,191.2 326.8,191.2 305.8,191.2"/>
  <polygon points="463.4,147.3 463.4,147.4 484.4,147.4 484.4,147.3 463.4,147.3"/>
  <polygon points="568.4,130.6 568.4,130.9 589.4,130.9 589.4,130.6 568.4,130.6"/>
  <polygon points="620.9,113.9 620.9,115.5 642.0,115.5 642.0,113.9 620.9,113.9"/>
  <polygon points="673.5,138.7 673.5,139.0 694.5,139.0 694.5,138.7 673.5,138.7"/>
  <polygon points="726.0,145.0 726.0,145.3 747.0,145.3 747.0,145.0 726.0,145.0"/>
  <polygon points="778.5,149.5 778.5,149.9 799.5,149.9 799.5,149.5 778.5,149.5"/>
  <polygon points="831.0,129.2 831.0,129.7 852.0,129.7 852.0,129.2 831.0,129.2"/>
  <polygon points="857.3,141.9 857.3,142.4 878.3,142.4 878.3,141.9 857.3,141.9"/>
  <polygon points="883.6,146.7 883.6,147.3 904.6,147.3 904.6,146.7 883.6,146.7"/>
</g>
<g stroke="#000" stroke-width="0.90" fill="#DBA746"  clip-path="url(#axis_clip)">
  <polygon points="148.2,185.3 148.2,206.3 169.2,206.3 169.2,185.3 148.2,185.3"/>
  <polygon points="305.8,191.2 305.8,222.3 326.8,222.3 326.8,191.2 305.8,191.2"/>
  <polygon points="463.4,147.4 463.4,192.8 484.4,192.8 484.4,147.4 463.4,147.4"/>
  <polygon points="568.4,130.9 568.4,187.5 589.4,187.5 589.4,130.9 568.4,130.9"/>
  <polygon points="620.9,115.5 620.9,191.3 642.0,191.3 642.0,115.5 620.9,115.5"/>
  <polygon points="673.5,139.0 673.5,218.8 694.5,218.8 694.5,139.0 673.5,139.0"/>
  <polygon points="726.0,145.3 726.0,244.6 747.0,244.6 747.0,145.3 726.0,145.3"/>
  <polygon points="778.5,149.9 778.5,255.6 799.5,255.6 799.5,149.9 778.5,149.9"/>
  <polygon points="831.0,129.7 831.0,244.6 852.0,244.6 852.0,129.7 831.0,129.7"/>
  <polygon points="857.3,142.4 857.3,259.6 878.3,259.6 878.3,142.4 857.3,142.4"/>
  <polygon points="883.6,147.3 883.6,271.8 904.6,271.8 904.6,147.3 883.6,147.3"/>
</g>
<g stroke="#000" stroke-width="0.90" fill="#845F48"  clip-path="url(#axis_clip)">
  <polygon points="148.2,206.3 148.2,530.3 169.2,530.3 169.2,206.3 148.2,206.3"/>
  <polygon points="305.8,222.3 305.8,529.7 326.8,529.7 326.8,222.3 305.8,222.3"/>
  <polygon points="463.4,192.8 463.4,511.3 484.4,511.3 484.4,192.8 463.4,192.8"/>
  <polygon points="568.4,187.5 568.4,517.5 589.4,517.5 589.4,187.5 568.4,187.5"/>
  <polygon points="620.9,191.3 620.9,514.5 642.0,514.5 642.0,191.3 620.9,191.3"/>
  <polygon points="673.5,218.8 673.5,507.1 694.5,507.1 694.5,218.8 673.5,218.8"/>
  <polygon points="726.0,244.6 726.0,507.8 747.0,507.8 747.0,244.6 726.0,244.6"/>
  <polygon points="778.5,255.6 778.5,512.3 799.5,512.3 799.5,255.6 778.5,255.6"/>
  <polygon points="831.0,244.6 831.0,518.3 852.0,518.3 852.0,244.6 831.0,244.6"/>
  <polygon points="857.3,259.6 857.3,518.4 878.3,518.4 878.3,259.6 857.3,259.6"/>
  <polygon points="883.6,271.8 883.6,517.3 904.6,517.3 904.6,271.8 883.6,271.8"/>
</g>
<g stroke="#000" stroke-width="0.90" fill="#4A89E8"  clip-path="url(#axis_clip)">
</g>
<g stroke="#000" stroke-width="0.90" fill="#FF7F61"  clip-path="url(#axis_clip)">
  <polygon points="148.2,530.3 148.2,587.2 169.2,587.2 169.2,530.3 148.2,530.3"/>
  <polygon points="305.8,529.7 305.8,587.2 326.8,587.2 326.8,529.7 305.8,529.7"/>
  <polygon points="463.4,511.3 463.4,587.2 484.4,587.2 484.4,511.3 463.4,511.3"/>
  <polygon points="568.4,517.5 568.4,587.2 589.4,587.2 589.4,517.5 568.4,517.5"/>
  <polygon points="620.9,514.5 620.9,587.2 642.0,587.2 642.0,514.5 620.9,514.5"/>
  <polygon points="673.5,507.1 673.5,587.2 694.5,587.2 694.5,507.1 673.5,507.1"/>
  <polygon points="726.0,507.8 726.0,587.2 747.0,587.2 747.0,507.8 726.0,507.8"/>
  <polygon points="778.5,512.3 778.5,587.2 799.5,587.2 799.5,512.3 778.5,512.3"/>
  <polygon points="831.0,518.3 831.0,587.2 852.0,587.2 852.0,518.3 831.0,518.3"/>
  <polygon points="857.3,518.4 857.3,587.2 878.3,587.2 878.3,518.4 857.3,518.4"/>
  <polygon points="883.6,517.3 883.6,587.2 904.6,587.2 904.6,517.3 883.6,517.3"/>
</g>
<polyline class="pl" points="158.7,185.0 316.3,191.2 473.9,147.3 578.9,130.6 631.4,113.9 684.0,138.7 736.5,145.0 789.0,149.5 841.5,129.2 867.8,141.9 894.1,146.7" stroke="#000" stroke-width="5.40" stroke-opacity="1.00" fill="none" clip-path="url(#axis_clip)"/>
<g class="pl" fill="#FFF" stroke="#000" stroke-width="0.900">
  <circle cx="158.7" cy="185.0" r="2.2" />
  <circle cx="473.9" cy="147.3" r="2.2" />
  <circle cx="631.4" cy="113.9" r="2.2" />
  <circle cx="684.0" cy="138.7" r="2.2" />
  <circle cx="736.5" cy="145.0" r="2.2" />
  <circle cx="789.0" cy="149.5" r="2.2" />
  <circle cx="867.8" cy="141.9" r="2.2" />
  <circle cx="894.1" cy="146.7" r="2.2" />
</g>
<g class="pl" fill="#FFF" stroke="#000" stroke-width="0.900">
  <circle cx="316.3" cy="191.2" r="5.4" />
  <circle cx="578.9" cy="130.6" r="5.4" />
  <circle cx="841.5" cy="129.2" r="5.4" />
</g>
<text transform="translate(145.6,47.2)" dy="0.0" font-size="27.00" fill="#808080" stroke="none">Annual CH<tspan dy="0.2em"><tspan style="font-size:70%">4</tspan></tspan><tspan dy="-0.2em"> </tspan>Emissions: Ecuador</text>
<text transform="translate(130.0,157.8)" dy="8.1" font-size="27.00" fill="#808080" stroke="none" text-anchor="end">CH<tspan dy="0.2em"><tspan style="font-size:70%">4</tspan></tspan><tspan dy="-0.2em"></tspan></text>
<text transform="translate(945.6,134.3)" dy="7.6" font-size="25.20" fill="#000" stroke="none">+9.5% since 1994</text>
<text transform="translate(945.6,552.3)" dy="7.6" font-size="25.20" fill="#FF7F61" stroke="none">Energy</text>
<text transform="translate(945.6,394.6)" dy="7.6" font-size="25.20" fill="#845F48" stroke="none">Agriculture</text>
<text transform="translate(945.6,209.6)" dy="7.6" font-size="25.20" fill="#DBA746" stroke="none">Waste</text>
<text transform="translate(945.6,159.4)" dy="7.6" font-size="25.20" fill="#7FBF7F" stroke="none">LULUCF</text>
<polyline class="pl" points="910.8,146.7 912.4,146.7 913.8,146.5 915.2,146.3 916.4,146.1 917.6,145.7 918.8,145.3 919.8,144.9 920.8,144.4 921.7,143.9 922.7,143.3 923.5,142.7 924.4,142.1 925.2,141.5 926.0,140.8 926.8,140.2 927.6,139.6 928.4,138.9 929.3,138.3 930.1,137.7 931.1,137.2 932.0,136.6 933.0,136.2 934.0,135.7 935.2,135.3 936.4,135.0 937.6,134.7 939.0,134.5 940.4,134.4 942.0,134.3" stroke="#000" stroke-width="0.90" stroke-opacity="1.00" fill="none" />
<polyline class="pl" points="910.8,147.0 912.4,147.0 913.8,147.2 915.2,147.4 916.4,147.6 917.6,148.0 918.8,148.4 919.8,148.8 920.8,149.3 921.7,149.8 922.7,150.4 923.5,151.0 924.4,151.6 925.2,152.2 926.0,152.9 926.8,153.5 927.6,154.1 928.4,154.8 929.3,155.4 930.1,156.0 931.1,156.5 932.0,157.1 933.0,157.6 934.0,158.0 935.2,158.4 936.4,158.7 937.6,159.0 939.0,159.2 940.4,159.3 942.0,159.4" stroke="#7FBF7F" stroke-width="0.90" stroke-opacity="1.00" fill="none" />
<text transform="translate(160.0,666.1)" font-size="19.80" font-family="Helvetica" fill="#BFBFBF" stroke="none" xml:space="preserve">CICERO   &#9679;   Data: UNFCCC (2024)</text>
<g>
  <rect x="123.0" y="651.4" width="34" height="17" fill="#FFF" stroke="none" opacity="0.01"/>
  <g transform="translate(124.0,652.4) scale(0.24)">
  <g><circle fill="#FFF" cx="37.79" cy="28.5" r="28.84"/>
     <circle fill="none" cx="37.79" cy="28.5" r="28.84" stroke="#BFBFBF" stroke-width="5.5"/>
     <path fill="#BFBFBF" d="M37.16,23.19 l-4.29,2.23c-0.458-0.951-1.02-1.62-1.69-2c-0.667-0.38-1.29-0.571-1.86-0.571c-2.86,0-4.29,1.89-4.29,5.66 c0,1.71,0.36,3.08,1.09,4.11c0.724,1.03,1.79,1.54,3.2,1.54c1.87,0,3.18-0.915,3.94-2.74l3.94,2 c-0.838,1.56-2,2.79-3.49,3.69c-1.48,0.896-3.12,1.34-4.91,1.34c-2.86,0-5.16-0.875-6.92-2.63 c-1.75-1.75-2.63-4.19-2.63-7.31c0-3.05,0.886-5.47,2.66-7.26c1.77-1.79,4.01-2.69,6.72-2.69 C32.6,18.56,35.44,20.1,37.16,23.19z
              M55.61,23.19l-4.23,2.23c-0.457-0.951-1.02-1.62-1.69-2 c-0.668-0.38-1.31-0.571-1.91-0.571c-2.86,0-4.29,1.89-4.29,5.66c0,1.71,0.363,3.08,1.09,4.11 c0.723,1.03,1.79,1.54,3.2,1.54c1.87,0,3.18-0.915,3.94-2.74l4,2c-0.875,1.56-2.06,2.79-3.54,3.69 c-1.49,0.9-3.11,1.34-4.86,1.34c-2.9,0-5.21-0.875-6.94-2.63c-1.74-1.75-2.6-4.19-2.6-7.31 c0-3.05,0.885-5.47,2.66-7.26c1.77-1.79,4.01-2.69,6.71-2.69C51.12,18.56,53.944,20.1,55.61,23.19z"/>
  </g></g>
  <g transform="translate(140.2,652.4) scale(0.24)">
  <g><circle fill="#FFF" cx="37.79" cy="28.5" r="28.84"/>
     <circle fill="none" cx="37.79" cy="28.5" r="28.84" stroke="#BFBFBF" stroke-width="5.5"/>
     <path fill="#BFBFBF" d="M46.129,20.557v13.085h-3.656v15.542h-9.944V33.643h-3.656V20.557 c0-0.572,0.2-1.057,0.599-1.457c0.401-0.399,0.887-0.6,1.457-0.6h13.144c0.533,0,1.01,0.2,1.428,0.6 C45.918,19.5,46.129,19.986,46.129,20.557z
              M33.042,12.329c0-3.008,1.485-4.514,4.458-4.514s4.457,1.504,4.457,4.514 c0,2.971-1.486,4.457-4.457,4.457S33.042,15.3,33.042,12.329z"/>
  </g></g>
</g>
</g>
</svg>
