<svg version="1.1" xmlns="http://www.w3.org/2000/svg" xmlns:xlink="http://www.w3.org/1999/xlink" width="100%" height="100%" viewBox="0 0 1200.000 674.916">
<title>Annual Greenhouse Gas Emissions: Croatia</title>
<style type="text/css">
  #main {font-family:Helvetica,Arial,sans-serif; font-size:27.00px;
         fill-opacity:1; fill:#000000; stroke:none; stroke-linejoin:round; stroke-linecap:round; stroke-width:1.00;}
  .marker {stroke-opacity:0;fill-opacity:0;}
  .marker:hover {stroke-opacity:0.5; fill-opacity:1;}
  .ticklabel {font-size:27.00px;fill:#808080;stroke:none;font-family:Helvetica}
  .ytl {text-anchor:end;}
  .dp1 {pointer-events:none;font-size:70%;text-anchor:middle;fill:#000000;}
  .dp2 {pointer-events:none;font-size:70%;text-anchor:middle;fill:#FFFFFF;}
  .numtip {pointer-events:none;}
  .cc {opacity:0.25;}
.dl_fe {background-color:#FDFFDF;display:flex;margin:auto;align-items:center}
.dl_fe_p {font-size:20px;text-align:center;margin:3px}
.dl_el {display:none;pointer-events:none;}
.cc:hover + .dl_el {display:block;}
text:hover + .dl_el {display:block;}
</style>
<defs>
  <clipPath id="axis_clip"><rect x="145.8" y="54.2" width="761.2" height="532.8" /></clipPath>
  <path id="line_y" d="M 0,53.993 v 533.183" stroke="#262626" stroke-opacity="0.15" stroke-width="1.00"/>
  <path id="line_x" d="M 145.600,0 h 761.600" stroke="#262626" stroke-opacity="0.15" stroke-width="1.00"/>
  <path id="tick_y" d="M 145.600,0 h -6.000" stroke="#808080" stroke-width="0.90"/>
  <path id="tick_x" d="M 0,587.177 v 6.000" stroke="#808080" stroke-width="0.90"/>
</defs>
<g id="main">
<use xlink:href="#line_y" transform="translate(156.5,0)"/>
<use xlink:href="#line_y" transform="translate(265.3,0)"/>
<use xlink:href="#line_y" transform="translate(374.1,0)"/>
<use xlink:href="#line_y" transform="translate(482.9,0)"/>
<use xlink:href="#line_y" transform="translate(591.7,0)"/>
<use xlink:href="#line_y" transform="translate(700.5,0)"/>
<use xlink:href="#line_y" transform="translate(809.3,0)"/>
<use xlink:href="#line_y" transform="translate(896.3,0)"/>
<use xlink:href="#line_x" transform="translate(0,587.2)"/>
<use xlink:href="#line_x" transform="translate(0,468.7)"/>
<use xlink:href="#line_x" transform="translate(0,350.2)"/>
<use xlink:href="#line_x" transform="translate(0,231.7)"/>
<use xlink:href="#line_x" transform="translate(0,113.2)"/>
<use xlink:href="#tick_y" transform="translate(0,587.2)"/>
<use xlink:href="#tick_y" transform="translate(0,468.7)"/>
<use xlink:href="#tick_y" transform="translate(0,350.2)"/>
<use xlink:href="#tick_y" transform="translate(0,231.7)"/>
<use xlink:href="#tick_y" transform="translate(0,113.2)"/>
<use xlink:href="#tick_x" transform="translate(156.5,0)"/>
<use xlink:href="#tick_x" transform="translate(265.3,0)"/>
<use xlink:href="#tick_x" transform="translate(374.1,0)"/>
<use xlink:href="#tick_x" transform="translate(482.9,0)"/>
<use xlink:href="#tick_x" transform="translate(591.7,0)"/>
<use xlink:href="#tick_x" transform="translate(700.5,0)"/>
<use xlink:href="#tick_x" transform="translate(809.3,0)"/>
<use xlink:href="#tick_x" transform="translate(896.3,0)"/>
<polyline points="145.6,53.993 145.6,587.177 907.2,587.177" stroke="#808080" stroke-width="0.90" fill="none"/>
<text class="ticklabel xtl" transform="translate(156.5,629.0)" text-anchor="middle">1990</text>
<text class="ticklabel xtl" transform="translate(265.3,629.0)" text-anchor="middle">1995</text>
<text class="ticklabel xtl" transform="translate(374.1,629.0)" text-anchor="middle">2000</text>
<text class="ticklabel xtl" transform="translate(482.9,629.0)" text-anchor="middle">2005</text>
<text class="ticklabel xtl" transform="translate(591.7,629.0)" text-anchor="middle">2010</text>
<text class="ticklabel xtl" transform="translate(700.5,629.0)" text-anchor="middle">2015</text>
<text class="ticklabel xtl" transform="translate(809.3,629.0)" text-anchor="middle">2020</text>
<text class="ticklabel xtl" transform="translate(896.3,629.0)" text-anchor="middle">2024</text>
<text class="ticklabel ytl" transform="translate(128.8,595.3)">-10</text>
<text class="ticklabel ytl" transform="translate(128.8,476.8)">0</text>
<text class="ticklabel ytl" transform="translate(128.8,358.3)">10</text>
<text class="ticklabel ytl" transform="translate(128.8,239.8)">20</text>
<text class="ticklabel ytl" transform="translate(128.8,121.3)">30 Mt</text>
<g stroke="#000" stroke-width="0.90" fill="#DBA746"  clip-path="url(#axis_clip)">
  <polygon class="pl" points="147.8,96.1 147.8,111.4 165.2,111.4 165.2,96.1 147.8,96.1"/>
  <polygon class="pl" points="169.5,173.5 169.5,188.9 186.9,188.9 186.9,173.5 169.5,173.5"/>
  <polygon class="pl" points="191.3,195.6 191.3,211.2 208.7,211.2 208.7,195.6 191.3,195.6"/>
  <polygon class="pl" points="213.1,195.8 213.1,211.5 230.5,211.5 230.5,195.8 213.1,195.8"/>
  <polygon class="pl" points="234.8,206.7 234.8,222.7 252.2,222.7 252.2,206.7 234.8,206.7"/>
  <polygon class="pl" points="256.6,198.7 256.6,215.0 274.0,215.0 274.0,198.7 256.6,198.7"/>
  <polygon class="pl" points="278.3,192.9 278.3,209.3 295.7,209.3 295.7,192.9 278.3,192.9"/>
  <polygon class="pl" points="300.1,176.6 300.1,193.4 317.5,193.4 317.5,176.6 300.1,176.6"/>
  <polygon class="pl" points="321.9,174.9 321.9,191.9 339.3,191.9 339.3,174.9 321.9,174.9"/>
  <polygon class="pl" points="343.6,159.5 343.6,177.0 361.0,177.0 361.0,159.5 343.6,159.5"/>
  <polygon class="pl" points="365.4,163.9 365.4,181.8 382.8,181.8 382.8,163.9 365.4,163.9"/>
  <polygon class="pl" points="387.1,150.0 387.1,168.0 404.5,168.0 404.5,150.0 387.1,150.0"/>
  <polygon class="pl" points="408.9,137.1 408.9,155.5 426.3,155.5 426.3,137.1 408.9,137.1"/>
  <polygon class="pl" points="430.7,120.1 430.7,138.9 448.1,138.9 448.1,120.1 430.7,120.1"/>
  <polygon class="pl" points="452.4,120.8 452.4,140.0 469.8,140.0 469.8,120.8 452.4,120.8"/>
  <polygon class="pl" points="474.2,115.1 474.2,134.2 491.6,134.2 491.6,115.1 474.2,115.1"/>
  <polygon class="pl" points="495.9,110.7 495.9,130.7 513.3,130.7 513.3,110.7 495.9,110.7"/>
  <polygon class="pl" points="517.7,93.7 517.7,114.7 535.1,114.7 535.1,93.7 517.7,93.7"/>
  <polygon class="pl" points="539.5,104.9 539.5,127.2 556.9,127.2 556.9,104.9 539.5,104.9"/>
  <polygon class="pl" points="561.2,130.5 561.2,153.6 578.6,153.6 578.6,130.5 561.2,130.5"/>
  <polygon class="pl" points="583.0,135.2 583.0,158.9 600.4,158.9 600.4,135.2 583.0,135.2"/>
  <polygon class="pl" points="604.7,138.6 604.7,162.8 622.1,162.8 622.1,138.6 604.7,138.6"/>
  <polygon class="pl" points="626.5,159.1 626.5,183.5 643.9,183.5 643.9,159.1 626.5,159.1"/>
  <polygon class="pl" points="648.3,173.5 648.3,197.7 665.7,197.7 665.7,173.5 648.3,173.5"/>
  <polygon class="pl" points="670.0,182.2 670.0,207.0 687.4,207.0 687.4,182.2 670.0,182.2"/>
  <polygon class="pl" points="691.8,176.8 691.8,202.2 709.2,202.2 709.2,176.8 691.8,176.8"/>
  <polygon class="pl" points="713.5,174.7 713.5,200.2 730.9,200.2 730.9,174.7 713.5,174.7"/>
  <polygon class="pl" points="735.3,164.6 735.3,190.0 752.7,190.0 752.7,164.6 735.3,164.6"/>
  <polygon class="pl" points="757.1,177.8 757.1,202.6 774.5,202.6 774.5,177.8 757.1,177.8"/>
  <polygon class="pl" points="778.8,176.0 778.8,200.3 796.2,200.3 796.2,176.0 778.8,176.0"/>
  <polygon class="pl" points="800.6,186.4 800.6,210.1 818.0,210.1 818.0,186.4 800.6,186.4"/>
  <polygon class="pl" points="822.3,180.3 822.3,202.5 839.7,202.5 839.7,180.3 822.3,180.3"/>
  <polygon class="pl" points="844.1,179.1 844.1,202.0 861.5,202.0 861.5,179.1 844.1,179.1"/>
  <polygon class="pl" points="865.9,168.4 865.9,191.1 883.3,191.1 883.3,168.4 865.9,168.4"/>
  <polygon class="pl" points="887.6,169.2 887.6,191.7 905.0,191.7 905.0,169.2 887.6,169.2"/>
</g>
<g stroke="#000" stroke-width="0.90" fill="#845F48"  clip-path="url(#axis_clip)">
  <polygon class="pl" points="147.8,111.4 147.8,162.6 165.2,162.6 165.2,111.4 147.8,111.4"/>
  <polygon class="pl" points="169.5,188.9 169.5,238.5 186.9,238.5 186.9,188.9 169.5,188.9"/>
  <polygon class="pl" points="191.3,211.2 191.3,252.8 208.7,252.8 208.7,211.2 191.3,211.2"/>
  <polygon class="pl" points="213.1,211.5 213.1,251.0 230.5,251.0 230.5,211.5 213.1,211.5"/>
  <polygon class="pl" points="234.8,222.7 234.8,260.2 252.2,260.2 252.2,222.7 234.8,222.7"/>
  <polygon class="pl" points="256.6,215.0 256.6,251.2 274.0,251.2 274.0,215.0 256.6,215.0"/>
  <polygon class="pl" points="278.3,209.3 278.3,244.5 295.7,244.5 295.7,209.3 278.3,209.3"/>
  <polygon class="pl" points="300.1,193.4 300.1,230.2 317.5,230.2 317.5,193.4 300.1,193.4"/>
  <polygon class="pl" points="321.9,191.9 321.9,226.3 339.3,226.3 339.3,191.9 321.9,191.9"/>
  <polygon class="pl" points="343.6,177.0 343.6,212.7 361.0,212.7 361.0,177.0 343.6,177.0"/>
  <polygon class="pl" points="365.4,181.8 365.4,217.4 382.8,217.4 382.8,181.8 365.4,181.8"/>
  <polygon class="pl" points="387.1,168.0 387.1,205.1 404.5,205.1 404.5,168.0 387.1,168.0"/>
  <polygon class="pl" points="408.9,155.5 408.9,191.9 426.3,191.9 426.3,155.5 408.9,155.5"/>
  <polygon class="pl" points="430.7,138.9 430.7,175.4 448.1,175.4 448.1,138.9 430.7,138.9"/>
  <polygon class="pl" points="452.4,140.0 452.4,178.3 469.8,178.3 469.8,140.0 452.4,140.0"/>
  <polygon class="pl" points="474.2,134.2 474.2,172.7 491.6,172.7 491.6,134.2 474.2,134.2"/>
  <polygon class="pl" points="495.9,130.7 495.9,170.0 513.3,170.0 513.3,130.7 495.9,130.7"/>
  <polygon class="pl" points="517.7,114.7 517.7,153.0 535.1,153.0 535.1,114.7 517.7,114.7"/>
  <polygon class="pl" points="539.5,127.2 539.5,167.6 556.9,167.6 556.9,127.2 539.5,127.2"/>
  <polygon class="pl" points="561.2,153.6 561.2,188.6 578.6,188.6 578.6,153.6 561.2,153.6"/>
  <polygon class="pl" points="583.0,158.9 583.0,194.6 600.4,194.6 600.4,158.9 583.0,158.9"/>
  <polygon class="pl" points="604.7,162.8 604.7,199.1 622.1,199.1 622.1,162.8 604.7,162.8"/>
  <polygon class="pl" points="626.5,183.5 626.5,218.4 643.9,218.4 643.9,183.5 626.5,183.5"/>
  <polygon class="pl" points="648.3,197.7 648.3,229.6 665.7,229.6 665.7,197.7 648.3,197.7"/>
  <polygon class="pl" points="670.0,207.0 670.0,238.1 687.4,238.1 687.4,207.0 670.0,207.0"/>
  <polygon class="pl" points="691.8,202.2 691.8,233.9 709.2,233.9 709.2,202.2 691.8,202.2"/>
  <polygon class="pl" points="713.5,200.2 713.5,231.2 730.9,231.2 730.9,200.2 713.5,200.2"/>
  <polygon class="pl" points="735.3,190.0 735.3,222.3 752.7,222.3 752.7,190.0 735.3,190.0"/>
  <polygon class="pl" points="757.1,202.6 757.1,233.7 774.5,233.7 774.5,202.6 757.1,202.6"/>
  <polygon class="pl" points="778.8,200.3 778.8,231.1 796.2,231.1 796.2,200.3 778.8,200.3"/>
  <polygon class="pl" points="800.6,210.1 800.6,241.3 818.0,241.3 818.0,210.1 800.6,210.1"/>
  <polygon class="pl" points="822.3,202.5 822.3,233.3 839.7,233.3 839.7,202.5 822.3,202.5"/>
  <polygon class="pl" points="844.1,202.0 844.1,230.1 861.5,230.1 861.5,202.0 844.1,202.0"/>
  <polygon class="pl" points="865.9,191.1 865.9,218.0 883.3,218.0 883.3,191.1 865.9,191.1"/>
  <polygon class="pl" points="887.6,191.7 887.6,219.7 905.0,219.7 905.0,191.7 887.6,191.7"/>
</g>
<g stroke="#000" stroke-width="0.90" fill="#4A89E8"  clip-path="url(#axis_clip)">
  <polygon class="pl" points="147.8,162.6 147.8,215.0 165.2,215.0 165.2,162.6 147.8,162.6"/>
  <polygon class="pl" points="169.5,238.5 169.5,278.1 186.9,278.1 186.9,238.5 169.5,238.5"/>
  <polygon class="pl" points="191.3,252.8 191.3,285.8 208.7,285.8 208.7,252.8 191.3,252.8"/>
  <polygon class="pl" points="213.1,251.0 213.1,277.9 230.5,277.9 230.5,251.0 213.1,251.0"/>
  <polygon class="pl" points="234.8,260.2 234.8,289.9 252.2,289.9 252.2,260.2 234.8,260.2"/>
  <polygon class="pl" points="256.6,251.2 256.6,278.7 274.0,278.7 274.0,251.2 256.6,251.2"/>
  <polygon class="pl" points="278.3,244.5 278.3,271.7 295.7,271.7 295.7,244.5 278.3,244.5"/>
  <polygon class="pl" points="300.1,230.2 300.1,259.6 317.5,259.6 317.5,230.2 300.1,230.2"/>
  <polygon class="pl" points="321.9,226.3 321.9,253.0 339.3,253.0 339.3,226.3 321.9,226.3"/>
  <polygon class="pl" points="343.6,212.7 343.6,244.6 361.0,244.6 361.0,212.7 343.6,212.7"/>
  <polygon class="pl" points="365.4,217.4 365.4,252.4 382.8,252.4 382.8,217.4 365.4,217.4"/>
  <polygon class="pl" points="387.1,205.1 387.1,240.1 404.5,240.1 404.5,205.1 387.1,205.1"/>
  <polygon class="pl" points="408.9,191.9 408.9,226.6 426.3,226.6 426.3,191.9 408.9,191.9"/>
  <polygon class="pl" points="430.7,175.4 430.7,210.5 448.1,210.5 448.1,175.4 430.7,175.4"/>
  <polygon class="pl" points="452.4,178.3 452.4,217.2 469.8,217.2 469.8,178.3 452.4,178.3"/>
  <polygon class="pl" points="474.2,172.7 474.2,213.0 491.6,213.0 491.6,172.7 474.2,172.7"/>
  <polygon class="pl" points="495.9,170.0 495.9,212.4 513.3,212.4 513.3,170.0 495.9,170.0"/>
  <polygon class="pl" points="517.7,153.0 517.7,197.8 535.1,197.8 535.1,153.0 517.7,153.0"/>
  <polygon class="pl" points="539.5,167.6 539.5,212.0 556.9,212.0 556.9,167.6 539.5,167.6"/>
  <polygon class="pl" points="561.2,188.6 561.2,225.5 578.6,225.5 578.6,188.6 561.2,188.6"/>
  <polygon class="pl" points="583.0,194.6 583.0,234.9 600.4,234.9 600.4,194.6 583.0,194.6"/>
  <polygon class="pl" points="604.7,199.1 604.7,237.9 622.1,237.9 622.1,199.1 604.7,199.1"/>
  <polygon class="pl" points="626.5,218.4 626.5,254.7 643.9,254.7 643.9,218.4 626.5,218.4"/>
  <polygon class="pl" points="648.3,229.6 648.3,263.6 665.7,263.6 665.7,229.6 648.3,229.6"/>
  <polygon class="pl" points="670.0,238.1 670.0,274.8 687.4,274.8 687.4,238.1 670.0,238.1"/>
  <polygon class="pl" points="691.8,233.9 691.8,271.8 709.2,271.8 709.2,233.9 691.8,233.9"/>
  <polygon class="pl" points="713.5,231.2 713.5,267.0 730.9,267.0 730.9,231.2 713.5,231.2"/>
  <polygon class="pl" points="735.3,222.3 735.3,262.5 752.7,262.5 752.7,222.3 735.3,222.3"/>
  <polygon class="pl" points="757.1,233.7 757.1,273.7 774.5,273.7 774.5,233.7 757.1,233.7"/>
  <polygon class="pl" points="778.8,231.1 778.8,273.1 796.2,273.1 796.2,231.1 778.8,231.1"/>
  <polygon class="pl" points="800.6,241.3 800.6,284.3 818.0,284.3 818.0,241.3 800.6,241.3"/>
  <polygon class="pl" points="822.3,233.3 822.3,275.8 839.7,275.8 839.7,233.3 822.3,233.3"/>
  <polygon class="pl" points="844.1,230.1 844.1,268.8 861.5,268.8 861.5,230.1 844.1,230.1"/>
  <polygon class="pl" points="865.9,218.0 865.9,259.6 883.3,259.6 883.3,218.0 865.9,218.0"/>
  <polygon class="pl" points="887.6,219.7 887.6,260.1 905.0,260.1 905.0,219.7 887.6,219.7"/>
</g>
<g stroke="#000" stroke-width="0.90" fill="#FF7F61"  clip-path="url(#axis_clip)">
  <polygon class="pl" points="147.8,215.0 147.8,468.7 165.2,468.7 165.2,215.0 147.8,215.0"/>
  <polygon class="pl" points="169.5,278.1 169.5,468.7 186.9,468.7 186.9,278.1 169.5,278.1"/>
  <polygon class="pl" points="191.3,285.8 191.3,468.7 208.7,468.7 208.7,285.8 191.3,285.8"/>
  <polygon class="pl" points="213.1,277.9 213.1,468.7 230.5,468.7 230.5,277.9 213.1,277.9"/>
  <polygon class="pl" points="234.8,289.9 234.8,468.7 252.2,468.7 252.2,289.9 234.8,289.9"/>
  <polygon class="pl" points="256.6,278.7 256.6,468.7 274.0,468.7 274.0,278.7 256.6,278.7"/>
  <polygon class="pl" points="278.3,271.7 278.3,468.7 295.7,468.7 295.7,271.7 278.3,271.7"/>
  <polygon class="pl" points="300.1,259.6 300.1,468.7 317.5,468.7 317.5,259.6 300.1,259.6"/>
  <polygon class="pl" points="321.9,253.0 321.9,468.7 339.3,468.7 339.3,253.0 321.9,253.0"/>
  <polygon class="pl" points="343.6,244.6 343.6,468.7 361.0,468.7 361.0,244.6 343.6,244.6"/>
  <polygon class="pl" points="365.4,252.4 365.4,468.7 382.8,468.7 382.8,252.4 365.4,252.4"/>
  <polygon class="pl" points="387.1,240.1 387.1,468.7 404.5,468.7 404.5,240.1 387.1,240.1"/>
  <polygon class="pl" points="408.9,226.6 408.9,468.7 426.3,468.7 426.3,226.6 408.9,226.6"/>
  <polygon class="pl" points="430.7,210.5 430.7,468.7 448.1,468.7 448.1,210.5 430.7,210.5"/>
  <polygon class="pl" points="452.4,217.2 452.4,468.7 469.8,468.7 469.8,217.2 452.4,217.2"/>
  <polygon class="pl" points="474.2,213.0 474.2,468.7 491.6,468.7 491.6,213.0 474.2,213.0"/>
  <polygon class="pl" points="495.9,212.4 495.9,468.7 513.3,468.7 513.3,212.4 495.9,212.4"/>
  <polygon class="pl" points="517.7,197.8 517.7,468.7 535.1,468.7 535.1,197.8 517.7,197.8"/>
  <polygon class="pl" points="539.5,212.0 539.5,468.7 556.9,468.7 556.9,212.0 539.5,212.0"/>
  <polygon class="pl" points="561.2,225.5 561.2,468.7 578.6,468.7 578.6,225.5 561.2,225.5"/>
  <polygon class="pl" points="583.0,234.9 583.0,468.7 600.4,468.7 600.4,234.9 583.0,234.9"/>
  <polygon class="pl" points="604.7,237.9 604.7,468.7 622.1,468.7 622.1,237.9 604.7,237.9"/>
  <polygon class="pl" points="626.5,254.7 626.5,468.7 643.9,468.7 643.9,254.7 626.5,254.7"/>
  <polygon class="pl" points="648.3,263.6 648.3,468.7 665.7,468.7 665.7,263.6 648.3,263.6"/>
  <polygon class="pl" points="670.0,274.8 670.0,468.7 687.4,468.7 687.4,274.8 670.0,274.8"/>
  <polygon class="pl" points="691.8,271.8 691.8,468.7 709.2,468.7 709.2,271.8 691.8,271.8"/>
  <polygon class="pl" points="713.5,267.0 713.5,468.7 730.9,468.7 730.9,267.0 713.5,267.0"/>
  <polygon class="pl" points="735.3,262.5 735.3,468.7 752.7,468.7 752.7,262.5 735.3,262.5"/>
  <polygon class="pl" points="757.1,273.7 757.1,468.7 774.5,468.7 774.5,273.7 757.1,273.7"/>
  <polygon class="pl" points="778.8,273.1 778.8,468.7 796.2,468.7 796.2,273.1 778.8,273.1"/>
  <polygon class="pl" points="800.6,284.3 800.6,468.7 818.0,468.7 818.0,284.3 800.6,284.3"/>
  <polygon class="pl" points="822.3,275.8 822.3,468.7 839.7,468.7 839.7,275.8 822.3,275.8"/>
  <polygon class="pl" points="844.1,268.8 844.1,468.7 861.5,468.7 861.5,268.8 844.1,268.8"/>
  <polygon class="pl" points="865.9,259.6 865.9,468.7 883.3,468.7 883.3,259.6 865.9,259.6"/>
  <polygon class="pl" points="887.6,260.1 887.6,468.7 905.0,468.7 905.0,260.1 887.6,260.1"/>
</g>
<g stroke="#000" stroke-width="0.90" fill="#7FBF7F"  clip-path="url(#axis_clip)">
  <polygon class="pl" points="147.8,543.9 147.8,468.7 165.2,468.7 165.2,543.9 147.8,543.9"/>
  <polygon class="pl" points="169.5,557.9 169.5,468.7 186.9,468.7 186.9,557.9 169.5,557.9"/>
  <polygon class="pl" points="191.3,558.8 191.3,468.7 208.7,468.7 208.7,558.8 191.3,558.8"/>
  <polygon class="pl" points="213.1,560.4 213.1,468.7 230.5,468.7 230.5,560.4 213.1,560.4"/>
  <polygon class="pl" points="234.8,564.1 234.8,468.7 252.2,468.7 252.2,564.1 234.8,564.1"/>
  <polygon class="pl" points="256.6,569.9 256.6,468.7 274.0,468.7 274.0,569.9 256.6,569.9"/>
  <polygon class="pl" points="278.3,565.6 278.3,468.7 295.7,468.7 295.7,565.6 278.3,565.6"/>
  <polygon class="pl" points="300.1,558.3 300.1,468.7 317.5,468.7 317.5,558.3 300.1,558.3"/>
  <polygon class="pl" points="321.9,555.5 321.9,468.7 339.3,468.7 339.3,555.5 321.9,555.5"/>
  <polygon class="pl" points="343.6,565.7 343.6,468.7 361.0,468.7 361.0,565.7 343.6,565.7"/>
  <polygon class="pl" points="365.4,546.9 365.4,468.7 382.8,468.7 382.8,546.9 365.4,546.9"/>
  <polygon class="pl" points="387.1,562.9 387.1,468.7 404.5,468.7 404.5,562.9 387.1,562.9"/>
  <polygon class="pl" points="408.9,566.4 408.9,468.7 426.3,468.7 426.3,566.4 408.9,566.4"/>
  <polygon class="pl" points="430.7,556.0 430.7,468.7 448.1,468.7 448.1,556.0 430.7,556.0"/>
  <polygon class="pl" points="452.4,560.5 452.4,468.7 469.8,468.7 469.8,560.5 452.4,560.5"/>
  <polygon class="pl" points="474.2,563.3 474.2,468.7 491.6,468.7 491.6,563.3 474.2,563.3"/>
  <polygon class="pl" points="495.9,561.0 495.9,468.7 513.3,468.7 513.3,561.0 495.9,561.0"/>
  <polygon class="pl" points="517.7,546.9 517.7,468.7 535.1,468.7 535.1,546.9 517.7,546.9"/>
  <polygon class="pl" points="539.5,549.7 539.5,468.7 556.9,468.7 556.9,549.7 539.5,549.7"/>
  <polygon class="pl" points="561.2,551.0 561.2,468.7 578.6,468.7 578.6,551.0 561.2,551.0"/>
  <polygon class="pl" points="583.0,550.4 583.0,468.7 600.4,468.7 600.4,550.4 583.0,550.4"/>
  <polygon class="pl" points="604.7,535.1 604.7,468.7 622.1,468.7 622.1,535.1 604.7,535.1"/>
  <polygon class="pl" points="626.5,529.5 626.5,468.7 643.9,468.7 643.9,529.5 626.5,529.5"/>
  <polygon class="pl" points="648.3,541.6 648.3,468.7 665.7,468.7 665.7,541.6 648.3,541.6"/>
  <polygon class="pl" points="670.0,539.9 670.0,468.7 687.4,468.7 687.4,539.9 670.0,539.9"/>
  <polygon class="pl" points="691.8,536.1 691.8,468.7 709.2,468.7 709.2,536.1 691.8,536.1"/>
  <polygon class="pl" points="713.5,536.3 713.5,468.7 730.9,468.7 730.9,536.3 713.5,536.3"/>
  <polygon class="pl" points="735.3,525.8 735.3,468.7 752.7,468.7 752.7,525.8 735.3,525.8"/>
  <polygon class="pl" points="757.1,533.9 757.1,468.7 774.5,468.7 774.5,533.9 757.1,533.9"/>
  <polygon class="pl" points="778.8,536.7 778.8,468.7 796.2,468.7 796.2,536.7 778.8,536.7"/>
  <polygon class="pl" points="800.6,535.4 800.6,468.7 818.0,468.7 818.0,535.4 800.6,535.4"/>
  <polygon class="pl" points="822.3,537.2 822.3,468.7 839.7,468.7 839.7,537.2 822.3,537.2"/>
  <polygon class="pl" points="844.1,526.4 844.1,468.7 861.5,468.7 861.5,526.4 844.1,526.4"/>
  <polygon class="pl" points="865.9,534.7 865.9,468.7 883.3,468.7 883.3,534.7 865.9,534.7"/>
  <polygon class="pl" points="887.6,520.9 887.6,468.7 905.0,468.7 905.0,520.9 887.6,520.9"/>
</g>
<polyline class="pl" points="156.5,171.3 178.2,262.6 200.0,285.8 221.8,287.6 243.5,302.1 265.3,300.0 287.0,289.8 308.8,266.2 330.6,261.8 352.3,256.4 374.1,242.1 395.8,244.2 417.6,234.8 439.4,207.5 461.1,212.5 482.9,209.7 504.6,202.9 526.4,171.9 548.2,185.9 569.9,212.8 591.7,216.9 613.4,204.9 635.2,219.9 657.0,246.3 678.7,253.4 700.5,244.2 722.2,242.4 744.0,221.7 765.8,243.0 787.5,244.0 809.3,253.1 831.0,248.8 852.8,236.8 874.6,234.4 896.3,221.4" stroke="#000" stroke-width="5.40" stroke-opacity="1.00" fill="none" clip-path="url(#axis_clip)"/>
<g class="pl" fill="#FFF" stroke="#000" stroke-width="0.900">
  <circle cx="178.2" cy="262.6" r="2.2" />
  <circle cx="200.0" cy="285.8" r="2.2" />
  <circle cx="221.8" cy="287.6" r="2.2" />
  <circle cx="243.5" cy="302.1" r="2.2" />
  <circle cx="265.3" cy="300.0" r="2.2" />
  <circle cx="287.0" cy="289.8" r="2.2" />
  <circle cx="308.8" cy="266.2" r="2.2" />
  <circle cx="330.6" cy="261.8" r="2.2" />
  <circle cx="352.3" cy="256.4" r="2.2" />
  <circle cx="395.8" cy="244.2" r="2.2" />
  <circle cx="417.6" cy="234.8" r="2.2" />
  <circle cx="439.4" cy="207.5" r="2.2" />
  <circle cx="461.1" cy="212.5" r="2.2" />
  <circle cx="482.9" cy="209.7" r="2.2" />
  <circle cx="504.6" cy="202.9" r="2.2" />
  <circle cx="526.4" cy="171.9" r="2.2" />
  <circle cx="548.2" cy="185.9" r="2.2" />
  <circle cx="569.9" cy="212.8" r="2.2" />
  <circle cx="613.4" cy="204.9" r="2.2" />
  <circle cx="635.2" cy="219.9" r="2.2" />
  <circle cx="657.0" cy="246.3" r="2.2" />
  <circle cx="678.7" cy="253.4" r="2.2" />
  <circle cx="700.5" cy="244.2" r="2.2" />
  <circle cx="722.2" cy="242.4" r="2.2" />
  <circle cx="744.0" cy="221.7" r="2.2" />
  <circle cx="765.8" cy="243.0" r="2.2" />
  <circle cx="787.5" cy="244.0" r="2.2" />
  <circle cx="831.0" cy="248.8" r="2.2" />
  <circle cx="852.8" cy="236.8" r="2.2" />
  <circle cx="874.6" cy="234.4" r="2.2" />
  <circle cx="896.3" cy="221.4" r="2.2" />
</g>
<g class="pl" fill="#FFF" stroke="#000" stroke-width="0.900">
  <circle cx="156.5" cy="171.3" r="5.4" />
  <circle cx="374.1" cy="242.1" r="5.4" />
  <circle cx="591.7" cy="216.9" r="5.4" />
  <circle cx="809.3" cy="253.1" r="5.4" />
</g>
<text transform="translate(145.6,47.2)" dy="0.0" font-size="27.00" fill="#808080" stroke="none">Annual Greenhouse Gas Emissions: Croatia</text>
<text transform="translate(130.0,140.9)" dy="8.1" font-size="27.00" fill="#808080" stroke="none" text-anchor="end">CO<tspan dy="0.2em"><tspan style="font-size:70%">2</tspan></tspan><tspan dy="-0.2em">e</tspan></text>
<text transform="translate(945.6,224.4)" dy="7.6" font-size="25.20" fill="#000" stroke="none">-16.8% since 1990</text>
<text transform="translate(945.6,364.4)" dy="7.6" font-size="25.20" fill="#FF7F61" stroke="none">Energy</text>
<text transform="translate(945.6,249.4)" dy="7.6" font-size="25.20" fill="#4A89E8" stroke="none">Industrial Processes</text>
<text transform="translate(945.6,199.3)" dy="7.6" font-size="25.20" fill="#845F48" stroke="none">Agriculture</text>
<text transform="translate(945.6,174.3)" dy="7.6" font-size="25.20" fill="#DBA746" stroke="none">Waste</text>
<text transform="translate(945.6,494.8)" dy="7.6" font-size="25.20" fill="#7FBF7F" stroke="none">LULUCF</text>
<polyline class="pl" points="910.8,221.4 912.4,221.4 913.8,221.5 915.2,221.5 916.4,221.6 917.6,221.6 918.8,221.7 919.8,221.9 920.8,222.0 921.7,222.1 922.7,222.2 923.5,222.4 924.4,222.5 925.2,222.7 926.0,222.8 926.8,223.0 927.6,223.1 928.4,223.3 929.3,223.4 930.1,223.6 931.1,223.7 932.0,223.8 933.0,224.0 934.0,224.1 935.2,224.2 936.4,224.2 937.6,224.3 939.0,224.3 940.4,224.4 942.0,224.4" stroke="#000" stroke-width="0.90" stroke-opacity="1.00" fill="none" />
<polyline class="pl" points="910.8,239.9 912.4,239.9 913.8,240.0 915.2,240.2 916.4,240.4 917.6,240.6 918.8,241.0 919.8,241.3 920.8,241.7 921.7,242.1 922.7,242.5 923.5,243.0 924.4,243.4 925.2,243.9 926.0,244.4 926.8,244.9 927.6,245.4 928.4,245.9 929.3,246.4 930.1,246.8 931.1,247.2 932.0,247.7 933.0,248.0 934.0,248.4 935.2,248.7 936.4,248.9 937.6,249.1 939.0,249.3 940.4,249.4 942.0,249.4" stroke="#4A89E8" stroke-width="0.90" stroke-opacity="1.00" fill="none" />
<polyline class="pl" points="910.8,205.7 912.4,205.7 913.8,205.6 915.2,205.5 916.4,205.4 917.6,205.2 918.8,205.0 919.8,204.8 920.8,204.5 921.7,204.2 922.7,203.9 923.5,203.6 924.4,203.3 925.2,203.0 926.0,202.7 926.8,202.4 927.6,202.0 928.4,201.7 929.3,201.4 930.1,201.1 931.1,200.8 932.0,200.5 933.0,200.3 934.0,200.1 935.2,199.8 936.4,199.7 937.6,199.5 939.0,199.4 940.4,199.4 942.0,199.3" stroke="#845F48" stroke-width="0.90" stroke-opacity="1.00" fill="none" />
<polyline class="pl" points="910.8,180.5 912.4,180.5 913.8,180.4 915.2,180.3 916.4,180.2 917.6,180.0 918.8,179.8 919.8,179.6 920.8,179.3 921.7,179.1 922.7,178.8 923.5,178.5 924.4,178.2 925.2,177.9 926.0,177.5 926.8,177.2 927.6,176.9 928.4,176.6 929.3,176.3 930.1,176.0 931.1,175.7 932.0,175.5 933.0,175.2 934.0,175.0 935.2,174.8 936.4,174.6 937.6,174.5 939.0,174.4 940.4,174.3 942.0,174.3" stroke="#DBA746" stroke-width="0.90" stroke-opacity="1.00" fill="none" />
<text transform="translate(160.0,666.1)" font-size="19.80" font-family="Helvetica" fill="#BFBFBF" stroke="none" xml:space="preserve">CICERO   &#9679;   Data: UNFCCC (2026)</text>
<g>
  <rect x="123.0" y="651.4" width="34" height="17" fill="#FFF" stroke="none" opacity="0.01"/>
  <g transform="translate(124.0,652.4) scale(0.24)">
  <g><circle fill="#FFF" cx="37.79" cy="28.5" r="28.84"/>
     <circle fill="none" cx="37.79" cy="28.5" r="28.84" stroke="#BFBFBF" stroke-width="5.5"/>
     <path fill="#BFBFBF" d="M37.16,23.19 l-4.29,2.23c-0.458-0.951-1.02-1.62-1.69-2c-0.667-0.38-1.29-0.571-1.86-0.571c-2.86,0-4.29,1.89-4.29,5.66 c0,1.71,0.36,3.08,1.09,4.11c0.724,1.03,1.79,1.54,3.2,1.54c1.87,0,3.18-0.915,3.94-2.74l3.94,2 c-0.838,1.56-2,2.79-3.49,3.69c-1.48,0.896-3.12,1.34-4.91,1.34c-2.86,0-5.16-0.875-6.92-2.63 c-1.75-1.75-2.63-4.19-2.63-7.31c0-3.05,0.886-5.47,2.66-7.26c1.77-1.79,4.01-2.69,6.72-2.69 C32.6,18.56,35.44,20.1,37.16,23.19z
              M55.61,23.19l-4.23,2.23c-0.457-0.951-1.02-1.62-1.69-2 c-0.668-0.38-1.31-0.571-1.91-0.571c-2.86,0-4.29,1.89-4.29,5.66c0,1.71,0.363,3.08,1.09,4.11 c0.723,1.03,1.79,1.54,3.2,1.54c1.87,0,3.18-0.915,3.94-2.74l4,2c-0.875,1.56-2.06,2.79-3.54,3.69 c-1.49,0.9-3.11,1.34-4.86,1.34c-2.9,0-5.21-0.875-6.94-2.63c-1.74-1.75-2.6-4.19-2.6-7.31 c0-3.05,0.885-5.47,2.66-7.26c1.77-1.79,4.01-2.69,6.71-2.69C51.12,18.56,53.944,20.1,55.61,23.19z"/>
  </g></g>
  <g transform="translate(140.2,652.4) scale(0.24)">
  <g><circle fill="#FFF" cx="37.79" cy="28.5" r="28.84"/>
     <circle fill="none" cx="37.79" cy="28.5" r="28.84" stroke="#BFBFBF" stroke-width="5.5"/>
     <path fill="#BFBFBF" d="M46.129,20.557v13.085h-3.656v15.542h-9.944V33.643h-3.656V20.557 c0-0.572,0.2-1.057,0.599-1.457c0.401-0.399,0.887-0.6,1.457-0.6h13.144c0.533,0,1.01,0.2,1.428,0.6 C45.918,19.5,46.129,19.986,46.129,20.557z
              M33.042,12.329c0-3.008,1.485-4.514,4.458-4.514s4.457,1.504,4.457,4.514 c0,2.971-1.486,4.457-4.457,4.457S33.042,15.3,33.042,12.329z"/>
  </g></g>
</g>
</g>
</svg>
