<svg version="1.1" xmlns="http://www.w3.org/2000/svg" xmlns:xlink="http://www.w3.org/1999/xlink" width="100%" height="100%" viewBox="0 0 1200.000 674.916">
<title>Annual changes in Croatia's power generation</title>
<style type="text/css">
  #main {font-family:Helvetica,Arial,sans-serif; font-size:27.00px;
         fill-opacity:1; fill:#000000; stroke:none; stroke-linejoin:round; stroke-linecap:round; stroke-width:1.00;}
  a:hover {text-decoration: underline;}
  .marker {stroke-opacity:0;fill-opacity:0;}
  .marker:hover {stroke-opacity:0.5; fill-opacity:1;}
  .ticklabel {font-size:27.00px;fill:#808080;stroke:none;font-family:Helvetica}
  .ytl {text-anchor:end;}
  .dp1 {pointer-events:none;font-size:70%;text-anchor:middle;fill:#000000;}
  .dp2 {pointer-events:none;font-size:70%;text-anchor:middle;fill:#FFFFFF;}
  .numtip {pointer-events:none;}
  .cc {opacity:0.25;}
.dl_fe {background-color:#FDFFDF;display:flex;margin:auto;align-items:center}
.dl_fe_p {font-size:20px;text-align:center;margin:3px}
.dl_el {display:none;pointer-events:none;}
.cc:hover + .dl_el {display:block;}
text:hover + .dl_el {display:block;}
</style>
<defs>
  <clipPath id="axis_clip"><rect x="145.8" y="54.2" width="761.2" height="532.8" /></clipPath>
  <path id="line_x" d="M 145.600,0 h 761.600" stroke="#262626" stroke-opacity="0.15" stroke-width="1.00"/>
  <path id="tick_y" d="M 145.600,0 h -6.000" stroke="#808080" stroke-width="0.90"/>
  <path id="tick_x" d="M 0,587.177 v 6.000" stroke="#808080" stroke-width="0.90"/>
</defs>
<g id="main">
<use xlink:href="#line_x" transform="translate(0,587.2)"/>
<use xlink:href="#line_x" transform="translate(0,498.3)"/>
<use xlink:href="#line_x" transform="translate(0,409.4)"/>
<use xlink:href="#line_x" transform="translate(0,320.6)"/>
<use xlink:href="#line_x" transform="translate(0,231.7)"/>
<use xlink:href="#line_x" transform="translate(0,142.9)"/>
<use xlink:href="#line_x" transform="translate(0,54.0)"/>
<use xlink:href="#tick_y" transform="translate(0,587.2)"/>
<use xlink:href="#tick_y" transform="translate(0,498.3)"/>
<use xlink:href="#tick_y" transform="translate(0,409.4)"/>
<use xlink:href="#tick_y" transform="translate(0,320.6)"/>
<use xlink:href="#tick_y" transform="translate(0,231.7)"/>
<use xlink:href="#tick_y" transform="translate(0,142.9)"/>
<use xlink:href="#tick_y" transform="translate(0,54.0)"/>
<use xlink:href="#tick_x" transform="translate(183.7,0)"/>
<use xlink:href="#tick_x" transform="translate(259.8,0)"/>
<use xlink:href="#tick_x" transform="translate(336.0,0)"/>
<use xlink:href="#tick_x" transform="translate(412.2,0)"/>
<use xlink:href="#tick_x" transform="translate(488.3,0)"/>
<use xlink:href="#tick_x" transform="translate(564.5,0)"/>
<use xlink:href="#tick_x" transform="translate(640.6,0)"/>
<use xlink:href="#tick_x" transform="translate(716.8,0)"/>
<use xlink:href="#tick_x" transform="translate(793.0,0)"/>
<use xlink:href="#tick_x" transform="translate(869.1,0)"/>
<polyline points="145.6,53.993 145.6,587.177 907.2,587.177" stroke="#808080" stroke-width="0.90" fill="none"/>
<text class="ticklabel xtl" transform="translate(183.7,629.0)" text-anchor="middle">2017</text>
<text class="ticklabel xtl" transform="translate(259.8,629.0)" text-anchor="middle">2018</text>
<text class="ticklabel xtl" transform="translate(336.0,629.0)" text-anchor="middle">2019</text>
<text class="ticklabel xtl" transform="translate(412.2,629.0)" text-anchor="middle">2020</text>
<text class="ticklabel xtl" transform="translate(488.3,629.0)" text-anchor="middle">2021</text>
<text class="ticklabel xtl" transform="translate(564.5,629.0)" text-anchor="middle">2022</text>
<text class="ticklabel xtl" transform="translate(640.6,629.0)" text-anchor="middle">2023</text>
<text class="ticklabel xtl" transform="translate(716.8,629.0)" text-anchor="middle">2024</text>
<text class="ticklabel xtl" transform="translate(793.0,629.0)" text-anchor="middle">2025</text>
<text class="ticklabel xtl" transform="translate(869.1,629.0)" text-anchor="middle">2026</text>
<text class="ticklabel ytl" transform="translate(128.8,595.3)">-2</text>
<text class="ticklabel ytl" transform="translate(128.8,506.4)">-1</text>
<text class="ticklabel ytl" transform="translate(128.8,417.5)">0</text>
<text class="ticklabel ytl" transform="translate(128.8,328.7)">1</text>
<text class="ticklabel ytl" transform="translate(128.8,239.8)">2</text>
<text class="ticklabel ytl" transform="translate(128.8,151.0)">3</text>
<text class="ticklabel ytl" transform="translate(128.8,62.1)">4 TWh</text>
<g stroke="#000" stroke-width="0.90" fill="#EDB021"  clip-path="url(#axis_clip)">
  <polygon class="pl" points="153.2,265.0 153.2,266.1 214.1,266.1 214.1,265.0 153.2,265.0"/>
  <polygon class="pl" points="229.4,480.5 229.4,480.2 290.3,480.2 290.3,480.5 229.4,480.5"/>
  <polygon class="pl" points="305.5,349.7 305.5,350.4 366.5,350.4 366.5,349.7 305.5,349.7"/>
  <polygon class="pl" points="381.7,318.6 381.7,319.7 442.6,319.7 442.6,318.6 381.7,318.6"/>
  <polygon class="pl" points="457.9,226.5 457.9,231.3 518.8,231.3 518.8,226.5 457.9,226.5"/>
  <polygon class="pl" points="534.0,359.7 534.0,360.0 594.9,360.0 594.9,359.7 534.0,359.7"/>
  <polygon class="pl" points="610.2,81.6 610.2,104.8 671.1,104.8 671.1,81.6 610.2,81.6"/>
  <polygon class="pl" points="686.3,373.5 686.3,409.4 747.3,409.4 747.3,373.5 686.3,373.5"/>
  <polygon class="pl" points="762.5,308.1 762.5,367.7 823.4,367.7 823.4,308.1 762.5,308.1"/>
  <polygon class="pl" points="838.7,389.1 838.7,389.9 899.6,389.9 899.6,389.1 838.7,389.1"/>
</g>
<g stroke="#000" stroke-width="0.90" fill="#598C1A"  clip-path="url(#axis_clip)">
  <polygon class="pl" points="153.2,266.1 153.2,282.9 214.1,282.9 214.1,266.1 153.2,266.1"/>
  <polygon class="pl" points="229.4,197.0 229.4,208.7 290.3,208.7 290.3,197.0 229.4,197.0"/>
  <polygon class="pl" points="305.5,350.4 305.5,362.1 366.5,362.1 366.5,350.4 305.5,350.4"/>
  <polygon class="pl" points="381.7,319.7 381.7,342.1 442.6,342.1 442.6,319.7 381.7,319.7"/>
  <polygon class="pl" points="457.9,231.3 457.9,261.7 518.8,261.7 518.8,231.3 457.9,231.3"/>
  <polygon class="pl" points="534.0,360.0 534.0,366.5 594.9,366.5 594.9,360.0 534.0,360.0"/>
  <polygon class="pl" points="610.2,104.8 610.2,144.6 671.1,144.6 671.1,104.8 610.2,104.8"/>
  <polygon class="pl" points="686.3,585.7 686.3,584.6 747.3,584.6 747.3,585.7 686.3,585.7"/>
  <polygon class="pl" points="762.5,367.7 762.5,409.4 823.4,409.4 823.4,367.7 762.5,367.7"/>
  <polygon class="pl" points="838.7,416.2 838.7,409.4 899.6,409.4 899.6,416.2 838.7,416.2"/>
</g>
<g stroke="#000" stroke-width="0.90" fill="#0073BF"  clip-path="url(#axis_clip)">
  <polygon class="pl" points="153.2,545.3 153.2,409.4 214.1,409.4 214.1,545.3 153.2,545.3"/>
  <polygon class="pl" points="229.4,208.7 229.4,409.4 290.3,409.4 290.3,208.7 229.4,208.7"/>
  <polygon class="pl" points="305.5,573.2 305.5,409.4 366.5,409.4 366.5,573.2 305.5,573.2"/>
  <polygon class="pl" points="381.7,453.2 381.7,443.7 442.6,443.7 442.6,453.2 381.7,453.2"/>
  <polygon class="pl" points="457.9,261.7 457.9,389.4 518.8,389.4 518.8,261.7 457.9,261.7"/>
  <polygon class="pl" points="534.0,556.8 534.0,409.4 594.9,409.4 594.9,556.8 534.0,556.8"/>
  <polygon class="pl" points="610.2,144.6 610.2,380.3 671.1,380.3 671.1,144.6 610.2,144.6"/>
  <polygon class="pl" points="686.3,584.6 686.3,463.4 747.3,463.4 747.3,584.6 686.3,584.6"/>
  <polygon class="pl" points="762.5,562.7 762.5,455.1 823.4,455.1 823.4,562.7 762.5,562.7"/>
  <polygon class="pl" points="838.7,389.9 838.7,405.2 899.6,405.2 899.6,389.9 838.7,389.9"/>
</g>
<g stroke="#000" stroke-width="0.90" fill="#6298C6"  clip-path="url(#axis_clip)">
  <polygon class="pl" points="153.2,282.9 153.2,409.4 214.1,409.4 214.1,282.9 153.2,282.9"/>
  <polygon class="pl" points="229.4,480.2 229.4,409.4 290.3,409.4 290.3,480.2 229.4,480.2"/>
  <polygon class="pl" points="305.5,362.1 305.5,393.9 366.5,393.9 366.5,362.1 305.5,362.1"/>
  <polygon class="pl" points="381.7,342.1 381.7,409.4 442.6,409.4 442.6,342.1 381.7,342.1"/>
  <polygon class="pl" points="457.9,437.2 457.9,409.4 518.8,409.4 518.8,437.2 457.9,437.2"/>
  <polygon class="pl" points="534.0,366.5 534.0,400.9 594.9,400.9 594.9,366.5 534.0,366.5"/>
  <polygon class="pl" points="610.2,380.3 610.2,409.4 671.1,409.4 671.1,380.3 610.2,380.3"/>
  <polygon class="pl" points="686.3,463.4 686.3,409.4 747.3,409.4 747.3,463.4 686.3,463.4"/>
  <polygon class="pl" points="762.5,455.1 762.5,409.4 823.4,409.4 823.4,455.1 762.5,455.1"/>
  <polygon class="pl" points="838.7,405.2 838.7,409.4 899.6,409.4 899.6,405.2 838.7,405.2"/>
</g>
<g stroke="#000" stroke-width="0.90" fill="#7B553E"  clip-path="url(#axis_clip)">
  <polygon class="pl" points="305.5,393.9 305.5,409.4 366.5,409.4 366.5,393.9 305.5,393.9"/>
  <polygon class="pl" points="381.7,443.7 381.7,409.4 442.6,409.4 442.6,443.7 381.7,443.7"/>
  <polygon class="pl" points="457.9,389.4 457.9,409.4 518.8,409.4 518.8,389.4 457.9,389.4"/>
  <polygon class="pl" points="534.0,400.9 534.0,409.4 594.9,409.4 594.9,400.9 534.0,400.9"/>
</g>
    <text class="pl" transform="translate(945.6,429.2)" dy="8.1" font-size="27.00" fill="#7B553E" stroke="none">Coal</text>
    <text class="pl" transform="translate(945.6,403.3)" dy="8.1" font-size="27.00" fill="#6298C6" stroke="none">Natural gas</text>
    <text class="pl" transform="translate(945.6,377.4)" dy="8.1" font-size="27.00" fill="#0073BF" stroke="none">Hydro</text>
    <text class="pl" transform="translate(945.6,455.1)" dy="8.1" font-size="27.00" fill="#598C1A" stroke="none">Wind</text>
    <text class="pl" transform="translate(945.6,351.5)" dy="8.1" font-size="27.00" fill="#EDB021" stroke="none">Solar</text>
<polyline class="pl" points="910.8,409.4 912.4,409.5 913.8,409.7 915.2,410.0 916.4,410.5 917.6,411.0 918.8,411.6 919.8,412.4 920.8,413.1 921.7,414.0 922.7,414.9 923.5,415.8 924.4,416.8 925.2,417.8 926.0,418.8 926.8,419.9 927.6,420.9 928.4,421.9 929.3,422.9 930.1,423.8 931.1,424.7 932.0,425.5 933.0,426.3 934.0,427.0 935.2,427.7 936.4,428.2 937.6,428.6 939.0,429.0 940.4,429.2 942.0,429.2" stroke="#7B553E" stroke-width="0.90" stroke-opacity="1.00" fill="none" />
<polyline class="pl" points="910.8,407.3 912.4,407.3 913.8,407.3 915.2,407.2 916.4,407.1 917.6,407.0 918.8,406.9 919.8,406.8 920.8,406.6 921.7,406.4 922.7,406.2 923.5,406.0 924.4,405.9 925.2,405.6 926.0,405.4 926.8,405.2 927.6,405.0 928.4,404.8 929.3,404.6 930.1,404.4 931.1,404.3 932.0,404.1 933.0,403.9 934.0,403.8 935.2,403.6 936.4,403.5 937.6,403.5 939.0,403.4 940.4,403.3 942.0,403.3" stroke="#6298C6" stroke-width="0.90" stroke-opacity="1.00" fill="none" />
<polyline class="pl" points="910.8,397.6 912.4,397.5 913.8,397.3 915.2,397.0 916.4,396.5 917.6,396.0 918.8,395.3 919.8,394.6 920.8,393.8 921.7,393.0 922.7,392.0 923.5,391.1 924.4,390.1 925.2,389.1 926.0,388.0 926.8,387.0 927.6,385.9 928.4,384.9 929.3,383.9 930.1,383.0 931.1,382.0 932.0,381.2 933.0,380.4 934.0,379.7 935.2,379.0 936.4,378.5 937.6,378.0 939.0,377.7 940.4,377.5 942.0,377.4" stroke="#0073BF" stroke-width="0.90" stroke-opacity="1.00" fill="none" />
<polyline class="pl" points="910.8,412.8 912.4,413.0 913.8,413.4 915.2,414.1 916.4,415.0 917.6,416.2 918.8,417.5 919.8,419.0 920.8,420.7 921.7,422.5 922.7,424.4 923.5,426.5 924.4,428.6 925.2,430.7 926.0,432.9 926.8,435.1 927.6,437.3 928.4,439.4 929.3,441.5 930.1,443.5 931.1,445.4 932.0,447.3 933.0,448.9 934.0,450.5 935.2,451.8 936.4,452.9 937.6,453.9 939.0,454.6 940.4,455.0 942.0,455.1" stroke="#598C1A" stroke-width="0.90" stroke-opacity="1.00" fill="none" />
<polyline class="pl" points="910.8,389.5 912.4,389.3 913.8,389.0 915.2,388.3 916.4,387.5 917.6,386.5 918.8,385.3 919.8,383.9 920.8,382.4 921.7,380.8 922.7,379.1 923.5,377.2 924.4,375.4 925.2,373.4 926.0,371.5 926.8,369.5 927.6,367.6 928.4,365.6 929.3,363.8 930.1,362.0 931.1,360.2 932.0,358.6 933.0,357.1 934.0,355.7 935.2,354.5 936.4,353.5 937.6,352.7 939.0,352.0 940.4,351.7 942.0,351.5" stroke="#EDB021" stroke-width="0.90" stroke-opacity="1.00" fill="none" />
    <text class="pl" transform="translate(869.1,627.7)" dy="18.0" font-size="18.00" fill="#808080" stroke="none" text-anchor="middle">Jan-Jan</text>
    <text class="pl" transform="translate(145.6,47.2)" dy="0.0" font-size="27.00" fill="#808080" stroke="none">Annual changes in Croatia's power generation</text>
<text transform="translate(157.6,666.1)" font-size="19.80" font-family="Helvetica" fill="#BFBFBF" stroke="none" xml:space="preserve"><a href="https://bsky.app/profile/robbieandrew.bsky.social" style="fill:#BFBFBF" target="_blank">@robbieandrew.bsky.social</a>   &#9679;   Data: <a href="https://www.iea.org/data-and-statistics" target="_blank" style="fill:#BFBFBF">IEA</a></text>
<text class="twitlink" transform="translate(157.6,666.1)" opacity="0" font-size="19.80" fill="#BFBFBF" stroke="none" xml:space="preserve"><a href="https://bsky.app/profile/robbieandrew.bsky.social" style="fill:#BFBFBF" target="_blank">@robbieandrew.bsky.social</a></text>
  <g class="dl_el" transform="translate(154.6,578.4)">
    <g class="dl_el_balloon">
      <foreignObject x="0" y="0" width="120" height="500">
      <div xmlns="http://www.w3.org/1999/xhtml" class="dl_fe" style="height:60px">
      <p class="dl_fe_p">Find me on BlueSky</p>
      </div>
	    </foreignObject>
      <path stroke="#000" fill="#FDFFDF" d="M0,60H60l5,5l5,-5H120"/>
    </g>
  </g>
<g>
<a href="https://creativecommons.org/licenses/by/4.0/" target="_blank">
  <rect x="123.0" y="651.4" width="34" height="17" fill="#FFF" stroke="none" opacity="0.01"/>
  <g transform="translate(124.0,652.4) scale(0.24)">
  <g><circle fill="#FFF" cx="37.79" cy="28.5" r="28.84"/>
     <circle fill="none" cx="37.79" cy="28.5" r="28.84" stroke="#BFBFBF" stroke-width="5.5"/>
     <path fill="#BFBFBF" d="M37.16,23.19 l-4.29,2.23c-0.458-0.951-1.02-1.62-1.69-2c-0.667-0.38-1.29-0.571-1.86-0.571c-2.86,0-4.29,1.89-4.29,5.66 c0,1.71,0.36,3.08,1.09,4.11c0.724,1.03,1.79,1.54,3.2,1.54c1.87,0,3.18-0.915,3.94-2.74l3.94,2 c-0.838,1.56-2,2.79-3.49,3.69c-1.48,0.896-3.12,1.34-4.91,1.34c-2.86,0-5.16-0.875-6.92-2.63 c-1.75-1.75-2.63-4.19-2.63-7.31c0-3.05,0.886-5.47,2.66-7.26c1.77-1.79,4.01-2.69,6.72-2.69 C32.6,18.56,35.44,20.1,37.16,23.19z
              M55.61,23.19l-4.23,2.23c-0.457-0.951-1.02-1.62-1.69-2 c-0.668-0.38-1.31-0.571-1.91-0.571c-2.86,0-4.29,1.89-4.29,5.66c0,1.71,0.363,3.08,1.09,4.11 c0.723,1.03,1.79,1.54,3.2,1.54c1.87,0,3.18-0.915,3.94-2.74l4,2c-0.875,1.56-2.06,2.79-3.54,3.69 c-1.49,0.9-3.11,1.34-4.86,1.34c-2.9,0-5.21-0.875-6.94-2.63c-1.74-1.75-2.6-4.19-2.6-7.31 c0-3.05,0.885-5.47,2.66-7.26c1.77-1.79,4.01-2.69,6.71-2.69C51.12,18.56,53.944,20.1,55.61,23.19z"/>
  </g></g>
  <g transform="translate(140.2,652.4) scale(0.24)">
  <g><circle fill="#FFF" cx="37.79" cy="28.5" r="28.84"/>
     <circle fill="none" cx="37.79" cy="28.5" r="28.84" stroke="#BFBFBF" stroke-width="5.5"/>
     <path fill="#BFBFBF" d="M46.129,20.557v13.085h-3.656v15.542h-9.944V33.643h-3.656V20.557 c0-0.572,0.2-1.057,0.599-1.457c0.401-0.399,0.887-0.6,1.457-0.6h13.144c0.533,0,1.01,0.2,1.428,0.6 C45.918,19.5,46.129,19.986,46.129,20.557z
              M33.042,12.329c0-3.008,1.485-4.514,4.458-4.514s4.457,1.504,4.457,4.514 c0,2.971-1.486,4.457-4.457,4.457S33.042,15.3,33.042,12.329z"/>
  </g></g>
  </a>
</g>
  <g class="dl_el" transform="translate(69.1,548.4)">
    <g class="dl_el_balloon">
      <foreignObject x="0" y="0" width="250" height="500">
      <div xmlns="http://www.w3.org/1999/xhtml" class="dl_fe" style="height:90px">
      <p class="dl_fe_p">CC-BY: Material may be freely re-used as long as you credit the author</p>
      </div>
	    </foreignObject>
      <path stroke="#000" fill="#FDFFDF" d="M0,90H70l5,5l5,-5H250"/>
    </g>
  </g>
</g>
</svg>
