<svg version="1.1" xmlns="http://www.w3.org/2000/svg" xmlns:xlink="http://www.w3.org/1999/xlink" width="100%" height="100%" viewBox="0 0 1200.000 674.916">
<title>Annual CO2 Emissions: Latvia</title>
<style type="text/css">
  #main {font-family:Helvetica,Arial,sans-serif; font-size:27.00px;
         fill-opacity:1; fill:#000000; stroke:none; stroke-linejoin:round; stroke-linecap:round; stroke-width:1.00;}
  .marker {stroke-opacity:0;fill-opacity:0;}
  .marker:hover {stroke-opacity:0.5; fill-opacity:1;}
  .ticklabel {font-size:27.00px;fill:#808080;stroke:none;font-family:Helvetica}
  .ytl {text-anchor:end;}
  .dp1 {pointer-events:none;font-size:70%;text-anchor:middle;fill:#000000;}
  .dp2 {pointer-events:none;font-size:70%;text-anchor:middle;fill:#FFFFFF;}
  .numtip {pointer-events:none;}
  .cc {opacity:0.25;}
.dl_fe {background-color:#FDFFDF;display:flex;margin:auto;align-items:center}
.dl_fe_p {font-size:20px;text-align:center;margin:3px}
.dl_el {display:none;pointer-events:none;}
.cc:hover + .dl_el {display:block;}
text:hover + .dl_el {display:block;}
</style>
<defs>
  <clipPath id="axis_clip"><rect x="145.8" y="54.2" width="761.2" height="532.8" /></clipPath>
  <path id="line_y" d="M 0,53.993 v 533.183" stroke="#262626" stroke-opacity="0.15" stroke-width="1.00"/>
  <path id="line_x" d="M 145.600,0 h 761.600" stroke="#262626" stroke-opacity="0.15" stroke-width="1.00"/>
  <path id="tick_y" d="M 145.600,0 h -6.000" stroke="#808080" stroke-width="0.90"/>
  <path id="tick_x" d="M 0,587.177 v 6.000" stroke="#808080" stroke-width="0.90"/>
</defs>
<g id="main">
<use xlink:href="#line_y" transform="translate(156.5,0)"/>
<use xlink:href="#line_y" transform="translate(265.3,0)"/>
<use xlink:href="#line_y" transform="translate(374.1,0)"/>
<use xlink:href="#line_y" transform="translate(482.9,0)"/>
<use xlink:href="#line_y" transform="translate(591.7,0)"/>
<use xlink:href="#line_y" transform="translate(700.5,0)"/>
<use xlink:href="#line_y" transform="translate(809.3,0)"/>
<use xlink:href="#line_y" transform="translate(896.3,0)"/>
<use xlink:href="#line_x" transform="translate(0,587.2)"/>
<use xlink:href="#line_x" transform="translate(0,453.9)"/>
<use xlink:href="#line_x" transform="translate(0,320.6)"/>
<use xlink:href="#line_x" transform="translate(0,187.3)"/>
<use xlink:href="#line_x" transform="translate(0,54.0)"/>
<use xlink:href="#tick_y" transform="translate(0,587.2)"/>
<use xlink:href="#tick_y" transform="translate(0,453.9)"/>
<use xlink:href="#tick_y" transform="translate(0,320.6)"/>
<use xlink:href="#tick_y" transform="translate(0,187.3)"/>
<use xlink:href="#tick_y" transform="translate(0,54.0)"/>
<use xlink:href="#tick_x" transform="translate(156.5,0)"/>
<use xlink:href="#tick_x" transform="translate(265.3,0)"/>
<use xlink:href="#tick_x" transform="translate(374.1,0)"/>
<use xlink:href="#tick_x" transform="translate(482.9,0)"/>
<use xlink:href="#tick_x" transform="translate(591.7,0)"/>
<use xlink:href="#tick_x" transform="translate(700.5,0)"/>
<use xlink:href="#tick_x" transform="translate(809.3,0)"/>
<use xlink:href="#tick_x" transform="translate(896.3,0)"/>
<polyline points="145.6,53.993 145.6,587.177 907.2,587.177" stroke="#808080" stroke-width="0.90" fill="none"/>
<text class="ticklabel xtl" transform="translate(156.5,629.0)" text-anchor="middle">1990</text>
<text class="ticklabel xtl" transform="translate(265.3,629.0)" text-anchor="middle">1995</text>
<text class="ticklabel xtl" transform="translate(374.1,629.0)" text-anchor="middle">2000</text>
<text class="ticklabel xtl" transform="translate(482.9,629.0)" text-anchor="middle">2005</text>
<text class="ticklabel xtl" transform="translate(591.7,629.0)" text-anchor="middle">2010</text>
<text class="ticklabel xtl" transform="translate(700.5,629.0)" text-anchor="middle">2015</text>
<text class="ticklabel xtl" transform="translate(809.3,629.0)" text-anchor="middle">2020</text>
<text class="ticklabel xtl" transform="translate(896.3,629.0)" text-anchor="middle">2024</text>
<text class="ticklabel ytl" transform="translate(128.8,595.3)">-20</text>
<text class="ticklabel ytl" transform="translate(128.8,462.0)">-10</text>
<text class="ticklabel ytl" transform="translate(128.8,328.7)">0</text>
<text class="ticklabel ytl" transform="translate(128.8,195.4)">10</text>
<text class="ticklabel ytl" transform="translate(128.8,62.1)">20 Mt</text>
<g stroke="#000" stroke-width="0.90" fill="#7FBF7F"  clip-path="url(#axis_clip)">
  <polygon class="pl" points="844.1,223.0 844.1,232.5 861.5,232.5 861.5,223.0 844.1,223.0"/>
  <polygon class="pl" points="887.6,221.4 887.6,236.6 905.0,236.6 905.0,221.4 887.6,221.4"/>
</g>
<g stroke="#000" stroke-width="0.90" fill="#DBA746"  clip-path="url(#axis_clip)">
  <polygon class="pl" points="147.8,58.5 147.8,58.5 165.2,58.5 165.2,58.5 147.8,58.5"/>
  <polygon class="pl" points="169.5,81.7 169.5,81.7 186.9,81.7 186.9,81.7 169.5,81.7"/>
  <polygon class="pl" points="191.3,131.4 191.3,131.4 208.7,131.4 208.7,131.4 191.3,131.4"/>
  <polygon class="pl" points="213.1,161.7 213.1,161.7 230.5,161.7 230.5,161.7 213.1,161.7"/>
  <polygon class="pl" points="234.8,182.4 234.8,182.4 252.2,182.4 252.2,182.4 234.8,182.4"/>
  <polygon class="pl" points="256.6,198.8 256.6,198.8 274.0,198.8 274.0,198.8 256.6,198.8"/>
  <polygon class="pl" points="278.3,197.8 278.3,197.8 295.7,197.8 295.7,197.8 278.3,197.8"/>
  <polygon class="pl" points="300.1,204.9 300.1,204.9 317.5,204.9 317.5,204.9 300.1,204.9"/>
  <polygon class="pl" points="321.9,209.9 321.9,209.9 339.3,209.9 339.3,209.9 321.9,209.9"/>
  <polygon class="pl" points="343.6,217.7 343.6,217.7 361.0,217.7 361.0,217.7 343.6,217.7"/>
  <polygon class="pl" points="365.4,226.2 365.4,226.3 382.8,226.3 382.8,226.2 365.4,226.2"/>
  <polygon class="pl" points="387.1,220.7 387.1,220.7 404.5,220.7 404.5,220.7 387.1,220.7"/>
  <polygon class="pl" points="408.9,220.4 408.9,220.4 426.3,220.4 426.3,220.4 408.9,220.4"/>
  <polygon class="pl" points="430.7,217.6 430.7,217.6 448.1,217.6 448.1,217.6 430.7,217.6"/>
  <polygon class="pl" points="452.4,217.6 452.4,217.6 469.8,217.6 469.8,217.6 452.4,217.6"/>
  <polygon class="pl" points="474.2,216.5 474.2,216.5 491.6,216.5 491.6,216.5 474.2,216.5"/>
  <polygon class="pl" points="495.9,209.8 495.9,209.9 513.3,209.9 513.3,209.8 495.9,209.8"/>
  <polygon class="pl" points="517.7,205.5 517.7,205.5 535.1,205.5 535.1,205.5 517.7,205.5"/>
  <polygon class="pl" points="539.5,211.3 539.5,211.3 556.9,211.3 556.9,211.3 539.5,211.3"/>
  <polygon class="pl" points="561.2,221.2 561.2,221.2 578.6,221.2 578.6,221.2 561.2,221.2"/>
  <polygon class="pl" points="583.0,206.6 583.0,206.6 600.4,206.6 600.4,206.6 583.0,206.6"/>
  <polygon class="pl" points="604.7,216.5 604.7,216.5 622.1,216.5 622.1,216.5 604.7,216.5"/>
  <polygon class="pl" points="626.5,220.4 626.5,220.4 643.9,220.4 643.9,220.4 626.5,220.4"/>
  <polygon class="pl" points="648.3,222.4 648.3,222.4 665.7,222.4 665.7,222.4 648.3,222.4"/>
  <polygon class="pl" points="670.0,225.0 670.0,225.0 687.4,225.0 687.4,225.0 670.0,225.0"/>
  <polygon class="pl" points="691.8,223.8 691.8,223.8 709.2,223.8 709.2,223.8 691.8,223.8"/>
  <polygon class="pl" points="713.5,224.5 713.5,224.5 730.9,224.5 730.9,224.5 713.5,224.5"/>
  <polygon class="pl" points="735.3,224.4 735.3,224.4 752.7,224.4 752.7,224.4 735.3,224.4"/>
  <polygon class="pl" points="757.1,216.0 757.1,216.0 774.5,216.0 774.5,216.0 757.1,216.0"/>
  <polygon class="pl" points="778.8,218.8 778.8,218.8 796.2,218.8 796.2,218.8 778.8,218.8"/>
  <polygon class="pl" points="800.6,227.3 800.6,227.3 818.0,227.3 818.0,227.3 800.6,227.3"/>
  <polygon class="pl" points="822.3,224.4 822.3,224.4 839.7,224.4 839.7,224.4 822.3,224.4"/>
</g>
<g stroke="#000" stroke-width="0.90" fill="#845F48"  clip-path="url(#axis_clip)">
  <polygon class="pl" points="147.8,58.5 147.8,63.4 165.2,63.4 165.2,58.5 147.8,58.5"/>
  <polygon class="pl" points="169.5,81.7 169.5,84.8 186.9,84.8 186.9,81.7 169.5,81.7"/>
  <polygon class="pl" points="191.3,131.4 191.3,131.9 208.7,131.9 208.7,131.4 191.3,131.4"/>
  <polygon class="pl" points="213.1,161.7 213.1,161.7 230.5,161.7 230.5,161.7 213.1,161.7"/>
  <polygon class="pl" points="234.8,182.4 234.8,182.4 252.2,182.4 252.2,182.4 234.8,182.4"/>
  <polygon class="pl" points="256.6,198.8 256.6,198.9 274.0,198.9 274.0,198.8 256.6,198.8"/>
  <polygon class="pl" points="278.3,197.8 278.3,197.8 295.7,197.8 295.7,197.8 278.3,197.8"/>
  <polygon class="pl" points="300.1,204.9 300.1,204.9 317.5,204.9 317.5,204.9 300.1,204.9"/>
  <polygon class="pl" points="321.9,209.9 321.9,209.9 339.3,209.9 339.3,209.9 321.9,209.9"/>
  <polygon class="pl" points="343.6,217.7 343.6,217.8 361.0,217.8 361.0,217.7 343.6,217.7"/>
  <polygon class="pl" points="365.4,226.3 365.4,226.3 382.8,226.3 382.8,226.3 365.4,226.3"/>
  <polygon class="pl" points="387.1,220.7 387.1,220.8 404.5,220.8 404.5,220.7 387.1,220.7"/>
  <polygon class="pl" points="408.9,220.4 408.9,220.7 426.3,220.7 426.3,220.4 408.9,220.4"/>
  <polygon class="pl" points="430.7,217.6 430.7,218.0 448.1,218.0 448.1,217.6 430.7,217.6"/>
  <polygon class="pl" points="452.4,217.6 452.4,217.6 469.8,217.6 469.8,217.6 452.4,217.6"/>
  <polygon class="pl" points="474.2,216.5 474.2,216.5 491.6,216.5 491.6,216.5 474.2,216.5"/>
  <polygon class="pl" points="495.9,209.9 495.9,209.9 513.3,209.9 513.3,209.9 495.9,209.9"/>
  <polygon class="pl" points="517.7,205.5 517.7,205.6 535.1,205.6 535.1,205.5 517.7,205.5"/>
  <polygon class="pl" points="539.5,211.3 539.5,211.4 556.9,211.4 556.9,211.3 539.5,211.3"/>
  <polygon class="pl" points="561.2,221.2 561.2,221.3 578.6,221.3 578.6,221.2 561.2,221.2"/>
  <polygon class="pl" points="583.0,206.6 583.0,206.7 600.4,206.7 600.4,206.6 583.0,206.6"/>
  <polygon class="pl" points="604.7,216.5 604.7,216.7 622.1,216.7 622.1,216.5 604.7,216.5"/>
  <polygon class="pl" points="626.5,220.4 626.5,220.6 643.9,220.6 643.9,220.4 626.5,220.4"/>
  <polygon class="pl" points="648.3,222.4 648.3,222.6 665.7,222.6 665.7,222.4 648.3,222.4"/>
  <polygon class="pl" points="670.0,225.0 670.0,225.3 687.4,225.3 687.4,225.0 670.0,225.0"/>
  <polygon class="pl" points="691.8,223.8 691.8,224.1 709.2,224.1 709.2,223.8 691.8,223.8"/>
  <polygon class="pl" points="713.5,224.5 713.5,224.9 730.9,224.9 730.9,224.5 713.5,224.5"/>
  <polygon class="pl" points="735.3,224.4 735.3,224.9 752.7,224.9 752.7,224.4 735.3,224.4"/>
  <polygon class="pl" points="757.1,216.0 757.1,216.6 774.5,216.6 774.5,216.0 757.1,216.0"/>
  <polygon class="pl" points="778.8,218.8 778.8,219.6 796.2,219.6 796.2,218.8 778.8,218.8"/>
  <polygon class="pl" points="800.6,227.3 800.6,228.2 818.0,228.2 818.0,227.3 800.6,227.3"/>
  <polygon class="pl" points="822.3,224.4 822.3,225.5 839.7,225.5 839.7,224.4 822.3,224.4"/>
  <polygon class="pl" points="844.1,232.5 844.1,233.6 861.5,233.6 861.5,232.5 844.1,232.5"/>
  <polygon class="pl" points="865.9,232.7 865.9,233.7 883.3,233.7 883.3,232.7 865.9,232.7"/>
  <polygon class="pl" points="887.6,236.6 887.6,237.8 905.0,237.8 905.0,236.6 887.6,236.6"/>
</g>
<g stroke="#000" stroke-width="0.90" fill="#4A89E8"  clip-path="url(#axis_clip)">
  <polygon class="pl" points="147.8,63.4 147.8,72.1 165.2,72.1 165.2,63.4 147.8,63.4"/>
  <polygon class="pl" points="169.5,84.8 169.5,92.6 186.9,92.6 186.9,84.8 169.5,84.8"/>
  <polygon class="pl" points="191.3,131.9 191.3,135.9 208.7,135.9 208.7,131.9 191.3,131.9"/>
  <polygon class="pl" points="213.1,161.7 213.1,163.7 230.5,163.7 230.5,161.7 213.1,161.7"/>
  <polygon class="pl" points="234.8,182.4 234.8,185.0 252.2,185.0 252.2,182.4 234.8,182.4"/>
  <polygon class="pl" points="256.6,198.9 256.6,201.6 274.0,201.6 274.0,198.9 256.6,198.9"/>
  <polygon class="pl" points="278.3,197.8 278.3,200.7 295.7,200.7 295.7,197.8 278.3,197.8"/>
  <polygon class="pl" points="300.1,204.9 300.1,208.0 317.5,208.0 317.5,204.9 300.1,204.9"/>
  <polygon class="pl" points="321.9,209.9 321.9,213.1 339.3,213.1 339.3,209.9 321.9,209.9"/>
  <polygon class="pl" points="343.6,217.8 343.6,221.3 361.0,221.3 361.0,217.8 343.6,217.8"/>
  <polygon class="pl" points="365.4,226.3 365.4,229.2 382.8,229.2 382.8,226.3 365.4,226.3"/>
  <polygon class="pl" points="387.1,220.8 387.1,223.9 404.5,223.9 404.5,220.8 387.1,220.8"/>
  <polygon class="pl" points="408.9,220.7 408.9,224.0 426.3,224.0 426.3,220.7 408.9,220.7"/>
  <polygon class="pl" points="430.7,218.0 430.7,221.5 448.1,221.5 448.1,218.0 430.7,218.0"/>
  <polygon class="pl" points="452.4,217.6 452.4,221.3 469.8,221.3 469.8,217.6 452.4,217.6"/>
  <polygon class="pl" points="474.2,216.5 474.2,220.0 491.6,220.0 491.6,216.5 474.2,216.5"/>
  <polygon class="pl" points="495.9,209.9 495.9,213.7 513.3,213.7 513.3,209.9 495.9,209.9"/>
  <polygon class="pl" points="517.7,205.6 517.7,209.3 535.1,209.3 535.1,205.6 517.7,205.6"/>
  <polygon class="pl" points="539.5,211.4 539.5,215.0 556.9,215.0 556.9,211.4 539.5,211.4"/>
  <polygon class="pl" points="561.2,221.3 561.2,224.7 578.6,224.7 578.6,221.3 561.2,221.3"/>
  <polygon class="pl" points="583.0,206.7 583.0,213.6 600.4,213.6 600.4,206.7 583.0,206.7"/>
  <polygon class="pl" points="604.7,216.7 604.7,224.9 622.1,224.9 622.1,216.7 604.7,216.7"/>
  <polygon class="pl" points="626.5,220.6 626.5,229.6 643.9,229.6 643.9,220.6 626.5,220.6"/>
  <polygon class="pl" points="648.3,222.6 648.3,230.7 665.7,230.7 665.7,222.6 648.3,222.6"/>
  <polygon class="pl" points="670.0,225.3 670.0,233.4 687.4,233.4 687.4,225.3 670.0,225.3"/>
  <polygon class="pl" points="691.8,224.1 691.8,231.1 709.2,231.1 709.2,224.1 691.8,224.1"/>
  <polygon class="pl" points="713.5,224.9 713.5,230.2 730.9,230.2 730.9,224.9 713.5,224.9"/>
  <polygon class="pl" points="735.3,224.9 735.3,231.3 752.7,231.3 752.7,224.9 735.3,224.9"/>
  <polygon class="pl" points="757.1,216.6 757.1,224.8 774.5,224.8 774.5,216.6 757.1,216.6"/>
  <polygon class="pl" points="778.8,219.6 778.8,227.8 796.2,227.8 796.2,219.6 778.8,219.6"/>
  <polygon class="pl" points="800.6,228.2 800.6,236.3 818.0,236.3 818.0,228.2 800.6,228.2"/>
  <polygon class="pl" points="822.3,225.5 822.3,233.5 839.7,233.5 839.7,225.5 822.3,225.5"/>
  <polygon class="pl" points="844.1,233.6 844.1,241.5 861.5,241.5 861.5,233.6 844.1,233.6"/>
  <polygon class="pl" points="865.9,233.7 865.9,241.6 883.3,241.6 883.3,233.7 865.9,233.7"/>
  <polygon class="pl" points="887.6,237.8 887.6,244.2 905.0,244.2 905.0,237.8 887.6,237.8"/>
</g>
<g stroke="#000" stroke-width="0.90" fill="#FF7F61"  clip-path="url(#axis_clip)">
  <polygon class="pl" points="147.8,72.1 147.8,320.6 165.2,320.6 165.2,72.1 147.8,72.1"/>
  <polygon class="pl" points="169.5,92.6 169.5,320.6 186.9,320.6 186.9,92.6 169.5,92.6"/>
  <polygon class="pl" points="191.3,135.9 191.3,320.6 208.7,320.6 208.7,135.9 191.3,135.9"/>
  <polygon class="pl" points="213.1,163.7 213.1,320.6 230.5,320.6 230.5,163.7 213.1,163.7"/>
  <polygon class="pl" points="234.8,185.0 234.8,320.6 252.2,320.6 252.2,185.0 234.8,185.0"/>
  <polygon class="pl" points="256.6,201.6 256.6,320.6 274.0,320.6 274.0,201.6 256.6,201.6"/>
  <polygon class="pl" points="278.3,200.7 278.3,320.6 295.7,320.6 295.7,200.7 278.3,200.7"/>
  <polygon class="pl" points="300.1,208.0 300.1,320.6 317.5,320.6 317.5,208.0 300.1,208.0"/>
  <polygon class="pl" points="321.9,213.1 321.9,320.6 339.3,320.6 339.3,213.1 321.9,213.1"/>
  <polygon class="pl" points="343.6,221.3 343.6,320.6 361.0,320.6 361.0,221.3 343.6,221.3"/>
  <polygon class="pl" points="365.4,229.2 365.4,320.6 382.8,320.6 382.8,229.2 365.4,229.2"/>
  <polygon class="pl" points="387.1,223.9 387.1,320.6 404.5,320.6 404.5,223.9 387.1,223.9"/>
  <polygon class="pl" points="408.9,224.0 408.9,320.6 426.3,320.6 426.3,224.0 408.9,224.0"/>
  <polygon class="pl" points="430.7,221.5 430.7,320.6 448.1,320.6 448.1,221.5 430.7,221.5"/>
  <polygon class="pl" points="452.4,221.3 452.4,320.6 469.8,320.6 469.8,221.3 452.4,221.3"/>
  <polygon class="pl" points="474.2,220.0 474.2,320.6 491.6,320.6 491.6,220.0 474.2,220.0"/>
  <polygon class="pl" points="495.9,213.7 495.9,320.6 513.3,320.6 513.3,213.7 495.9,213.7"/>
  <polygon class="pl" points="517.7,209.3 517.7,320.6 535.1,320.6 535.1,209.3 517.7,209.3"/>
  <polygon class="pl" points="539.5,215.0 539.5,320.6 556.9,320.6 556.9,215.0 539.5,215.0"/>
  <polygon class="pl" points="561.2,224.7 561.2,320.6 578.6,320.6 578.6,224.7 561.2,224.7"/>
  <polygon class="pl" points="583.0,213.6 583.0,320.6 600.4,320.6 600.4,213.6 583.0,213.6"/>
  <polygon class="pl" points="604.7,224.9 604.7,320.6 622.1,320.6 622.1,224.9 604.7,224.9"/>
  <polygon class="pl" points="626.5,229.6 626.5,320.6 643.9,320.6 643.9,229.6 626.5,229.6"/>
  <polygon class="pl" points="648.3,230.7 648.3,320.6 665.7,320.6 665.7,230.7 648.3,230.7"/>
  <polygon class="pl" points="670.0,233.4 670.0,320.6 687.4,320.6 687.4,233.4 670.0,233.4"/>
  <polygon class="pl" points="691.8,231.1 691.8,320.6 709.2,320.6 709.2,231.1 691.8,231.1"/>
  <polygon class="pl" points="713.5,230.2 713.5,320.6 730.9,320.6 730.9,230.2 713.5,230.2"/>
  <polygon class="pl" points="735.3,231.3 735.3,320.6 752.7,320.6 752.7,231.3 735.3,231.3"/>
  <polygon class="pl" points="757.1,224.8 757.1,320.6 774.5,320.6 774.5,224.8 757.1,224.8"/>
  <polygon class="pl" points="778.8,227.8 778.8,320.6 796.2,320.6 796.2,227.8 778.8,227.8"/>
  <polygon class="pl" points="800.6,236.3 800.6,320.6 818.0,320.6 818.0,236.3 800.6,236.3"/>
  <polygon class="pl" points="822.3,233.5 822.3,320.6 839.7,320.6 839.7,233.5 822.3,233.5"/>
  <polygon class="pl" points="844.1,241.5 844.1,320.6 861.5,320.6 861.5,241.5 844.1,241.5"/>
  <polygon class="pl" points="865.9,241.6 865.9,320.6 883.3,320.6 883.3,241.6 865.9,241.6"/>
  <polygon class="pl" points="887.6,244.2 887.6,320.6 905.0,320.6 905.0,244.2 887.6,244.2"/>
</g>
<g stroke="#000" stroke-width="0.90" fill="#7FBF7F"  clip-path="url(#axis_clip)">
  <polygon class="pl" points="147.8,496.6 147.8,320.6 165.2,320.6 165.2,496.6 147.8,496.6"/>
  <polygon class="pl" points="169.5,496.1 169.5,320.6 186.9,320.6 186.9,496.1 169.5,496.1"/>
  <polygon class="pl" points="191.3,502.2 191.3,320.6 208.7,320.6 208.7,502.2 191.3,502.2"/>
  <polygon class="pl" points="213.1,513.5 213.1,320.6 230.5,320.6 230.5,513.5 213.1,513.5"/>
  <polygon class="pl" points="234.8,542.0 234.8,320.6 252.2,320.6 252.2,542.0 234.8,542.0"/>
  <polygon class="pl" points="256.6,518.4 256.6,320.6 274.0,320.6 274.0,518.4 256.6,518.4"/>
  <polygon class="pl" points="278.3,531.1 278.3,320.6 295.7,320.6 295.7,531.1 278.3,531.1"/>
  <polygon class="pl" points="300.1,501.2 300.1,320.6 317.5,320.6 317.5,501.2 300.1,501.2"/>
  <polygon class="pl" points="321.9,488.2 321.9,320.6 339.3,320.6 339.3,488.2 321.9,488.2"/>
  <polygon class="pl" points="343.6,423.0 343.6,320.6 361.0,320.6 361.0,423.0 343.6,423.0"/>
  <polygon class="pl" points="365.4,467.2 365.4,320.6 382.8,320.6 382.8,467.2 365.4,467.2"/>
  <polygon class="pl" points="387.1,474.0 387.1,320.6 404.5,320.6 404.5,474.0 387.1,474.0"/>
  <polygon class="pl" points="408.9,463.7 408.9,320.6 426.3,320.6 426.3,463.7 408.9,463.7"/>
  <polygon class="pl" points="430.7,471.5 430.7,320.6 448.1,320.6 448.1,471.5 430.7,471.5"/>
  <polygon class="pl" points="452.4,433.7 452.4,320.6 469.8,320.6 469.8,433.7 452.4,433.7"/>
  <polygon class="pl" points="474.2,428.1 474.2,320.6 491.6,320.6 491.6,428.1 474.2,428.1"/>
  <polygon class="pl" points="495.9,438.2 495.9,320.6 513.3,320.6 513.3,438.2 495.9,438.2"/>
  <polygon class="pl" points="517.7,424.5 517.7,320.6 535.1,320.6 535.1,424.5 517.7,424.5"/>
  <polygon class="pl" points="539.5,418.9 539.5,320.6 556.9,320.6 556.9,418.9 539.5,418.9"/>
  <polygon class="pl" points="561.2,387.4 561.2,320.6 578.6,320.6 578.6,387.4 561.2,387.4"/>
  <polygon class="pl" points="583.0,372.5 583.0,320.6 600.4,320.6 600.4,372.5 583.0,372.5"/>
  <polygon class="pl" points="604.7,384.7 604.7,320.6 622.1,320.6 622.1,384.7 604.7,384.7"/>
  <polygon class="pl" points="626.5,405.3 626.5,320.6 643.9,320.6 643.9,405.3 626.5,405.3"/>
  <polygon class="pl" points="648.3,391.2 648.3,320.6 665.7,320.6 665.7,391.2 648.3,391.2"/>
  <polygon class="pl" points="670.0,336.8 670.0,320.6 687.4,320.6 687.4,336.8 670.0,336.8"/>
  <polygon class="pl" points="691.8,360.0 691.8,320.6 709.2,320.6 709.2,360.0 691.8,360.0"/>
  <polygon class="pl" points="713.5,380.9 713.5,320.6 730.9,320.6 730.9,380.9 713.5,380.9"/>
  <polygon class="pl" points="735.3,396.8 735.3,320.6 752.7,320.6 752.7,396.8 735.3,396.8"/>
  <polygon class="pl" points="757.1,363.9 757.1,320.6 774.5,320.6 774.5,363.9 757.1,363.9"/>
  <polygon class="pl" points="778.8,394.2 778.8,320.6 796.2,320.6 796.2,394.2 778.8,394.2"/>
  <polygon class="pl" points="800.6,375.3 800.6,320.6 818.0,320.6 818.0,375.3 800.6,375.3"/>
  <polygon class="pl" points="822.3,353.2 822.3,320.6 839.7,320.6 839.7,353.2 822.3,353.2"/>
  <polygon class="pl" points="865.9,321.6 865.9,320.6 883.3,320.6 883.3,321.6 865.9,321.6"/>
</g>
<polyline class="pl" points="156.5,234.5 178.2,257.3 200.0,313.0 221.8,354.6 243.5,403.8 265.3,396.6 287.0,408.3 308.8,385.5 330.6,377.4 352.3,320.1 374.1,372.9 395.8,374.1 417.6,363.5 439.4,368.6 461.1,330.6 482.9,324.1 504.6,327.4 526.4,309.4 548.2,309.6 569.9,288.1 591.7,258.5 613.4,280.6 635.2,305.0 657.0,293.0 678.7,241.2 700.5,263.2 722.2,284.8 744.0,300.6 765.8,259.3 787.5,292.5 809.3,282.0 831.0,257.0 852.8,223.0 874.6,233.8 896.3,221.4" stroke="#000" stroke-width="5.40" stroke-opacity="1.00" fill="none" clip-path="url(#axis_clip)"/>
<g class="pl" fill="#FFF" stroke="#000" stroke-width="0.900">
  <circle cx="178.2" cy="257.3" r="2.2" />
  <circle cx="200.0" cy="313.0" r="2.2" />
  <circle cx="221.8" cy="354.6" r="2.2" />
  <circle cx="243.5" cy="403.8" r="2.2" />
  <circle cx="265.3" cy="396.6" r="2.2" />
  <circle cx="287.0" cy="408.3" r="2.2" />
  <circle cx="308.8" cy="385.5" r="2.2" />
  <circle cx="330.6" cy="377.4" r="2.2" />
  <circle cx="352.3" cy="320.1" r="2.2" />
  <circle cx="395.8" cy="374.1" r="2.2" />
  <circle cx="417.6" cy="363.5" r="2.2" />
  <circle cx="439.4" cy="368.6" r="2.2" />
  <circle cx="461.1" cy="330.6" r="2.2" />
  <circle cx="482.9" cy="324.1" r="2.2" />
  <circle cx="504.6" cy="327.4" r="2.2" />
  <circle cx="526.4" cy="309.4" r="2.2" />
  <circle cx="548.2" cy="309.6" r="2.2" />
  <circle cx="569.9" cy="288.1" r="2.2" />
  <circle cx="613.4" cy="280.6" r="2.2" />
  <circle cx="635.2" cy="305.0" r="2.2" />
  <circle cx="657.0" cy="293.0" r="2.2" />
  <circle cx="678.7" cy="241.2" r="2.2" />
  <circle cx="700.5" cy="263.2" r="2.2" />
  <circle cx="722.2" cy="284.8" r="2.2" />
  <circle cx="744.0" cy="300.6" r="2.2" />
  <circle cx="765.8" cy="259.3" r="2.2" />
  <circle cx="787.5" cy="292.5" r="2.2" />
  <circle cx="831.0" cy="257.0" r="2.2" />
  <circle cx="852.8" cy="223.0" r="2.2" />
  <circle cx="874.6" cy="233.8" r="2.2" />
  <circle cx="896.3" cy="221.4" r="2.2" />
</g>
<g class="pl" fill="#FFF" stroke="#000" stroke-width="0.900">
  <circle cx="156.5" cy="234.5" r="5.4" />
  <circle cx="374.1" cy="372.9" r="5.4" />
  <circle cx="591.7" cy="258.5" r="5.4" />
  <circle cx="809.3" cy="282.0" r="5.4" />
</g>
<text transform="translate(145.6,47.2)" dy="0.0" font-size="27.00" fill="#808080" stroke="none">Annual CO<tspan dy="0.2em"><tspan style="font-size:70%">2</tspan></tspan><tspan dy="-0.2em"> </tspan>Emissions: Latvia</text>
<text transform="translate(130.0,81.6)" dy="8.1" font-size="27.00" fill="#808080" stroke="none" text-anchor="end">CO<tspan dy="0.2em"><tspan style="font-size:70%">2</tspan></tspan><tspan dy="-0.2em"></tspan></text>
<text transform="translate(945.6,177.6)" dy="7.6" font-size="25.20" fill="#000" stroke="none">+15.2% since 1990</text>
<text transform="translate(945.6,302.8)" dy="7.6" font-size="25.20" fill="#FF7F61" stroke="none">Energy</text>
<text transform="translate(945.6,277.7)" dy="7.6" font-size="25.20" fill="#4A89E8" stroke="none">Industrial Processes</text>
<text transform="translate(945.6,252.7)" dy="7.6" font-size="25.20" fill="#845F48" stroke="none">Agriculture</text>
<text transform="translate(945.6,227.6)" dy="7.6" font-size="25.20" fill="#DBA746" stroke="none">Waste</text>
<text transform="translate(945.6,202.6)" dy="7.6" font-size="25.20" fill="#7FBF7F" stroke="none">LULUCF</text>
<text transform="translate(945.6,327.8)" dy="7.6" font-size="25.20" fill="#7FBF7F" stroke="none">LULUCF</text>
<polyline class="pl" points="910.8,221.4 912.4,221.3 913.8,220.8 915.2,220.1 916.4,219.2 917.6,218.0 918.8,216.6 919.8,215.0 920.8,213.3 921.7,211.4 922.7,209.4 923.5,207.3 924.4,205.1 925.2,202.9 926.0,200.6 926.8,198.4 927.6,196.1 928.4,193.9 929.3,191.7 930.1,189.6 931.1,187.6 932.0,185.7 933.0,184.0 934.0,182.4 935.2,181.0 936.4,179.8 937.6,178.9 939.0,178.2 940.4,177.7 942.0,177.6" stroke="#000" stroke-width="0.90" stroke-opacity="1.00" fill="none" />
<polyline class="pl" points="910.8,282.4 912.4,282.4 913.8,282.7 915.2,283.0 916.4,283.4 917.6,284.0 918.8,284.6 919.8,285.4 920.8,286.2 921.7,287.0 922.7,288.0 923.5,288.9 924.4,290.0 925.2,291.0 926.0,292.0 926.8,293.1 927.6,294.1 928.4,295.2 929.3,296.2 930.1,297.2 931.1,298.1 932.0,299.0 933.0,299.8 934.0,300.5 935.2,301.1 936.4,301.7 937.6,302.1 939.0,302.5 940.4,302.7 942.0,302.8" stroke="#FF7F61" stroke-width="0.90" stroke-opacity="1.00" fill="none" />
<polyline class="pl" points="910.8,241.0 912.4,241.1 913.8,241.5 915.2,242.1 916.4,242.9 917.6,243.9 918.8,245.0 919.8,246.4 920.8,247.8 921.7,249.4 922.7,251.1 923.5,252.8 924.4,254.6 925.2,256.5 926.0,258.4 926.8,260.3 927.6,262.2 928.4,264.0 929.3,265.9 930.1,267.6 931.1,269.3 932.0,270.9 933.0,272.3 934.0,273.6 935.2,274.8 936.4,275.8 937.6,276.6 939.0,277.2 940.4,277.6 942.0,277.7" stroke="#4A89E8" stroke-width="0.90" stroke-opacity="1.00" fill="none" />
<polyline class="pl" points="910.8,237.2 912.4,237.2 913.8,237.4 915.2,237.7 916.4,238.0 917.6,238.4 918.8,238.9 919.8,239.5 920.8,240.1 921.7,240.7 922.7,241.4 923.5,242.2 924.4,243.0 925.2,243.7 926.0,244.5 926.8,245.3 927.6,246.1 928.4,246.9 929.3,247.7 930.1,248.4 931.1,249.1 932.0,249.8 933.0,250.4 934.0,251.0 935.2,251.5 936.4,251.9 937.6,252.2 939.0,252.5 940.4,252.6 942.0,252.7" stroke="#845F48" stroke-width="0.90" stroke-opacity="1.00" fill="none" />
<polyline class="pl" points="910.8,236.6 912.4,236.6 913.8,236.5 915.2,236.4 916.4,236.2 917.6,235.9 918.8,235.6 919.8,235.3 920.8,234.9 921.7,234.6 922.7,234.2 923.5,233.7 924.4,233.3 925.2,232.8 926.0,232.4 926.8,231.9 927.6,231.4 928.4,231.0 929.3,230.5 930.1,230.1 931.1,229.7 932.0,229.3 933.0,229.0 934.0,228.6 935.2,228.3 936.4,228.1 937.6,227.9 939.0,227.8 940.4,227.7 942.0,227.6" stroke="#DBA746" stroke-width="0.90" stroke-opacity="1.00" fill="none" />
<polyline class="pl" points="910.8,229.0 912.4,228.9 913.8,228.7 915.2,228.2 916.4,227.7 917.6,226.9 918.8,226.1 919.8,225.1 920.8,224.1 921.7,223.0 922.7,221.8 923.5,220.5 924.4,219.2 925.2,217.9 926.0,216.5 926.8,215.1 927.6,213.8 928.4,212.4 929.3,211.1 930.1,209.9 931.1,208.6 932.0,207.5 933.0,206.5 934.0,205.5 935.2,204.7 936.4,204.0 937.6,203.4 939.0,203.0 940.4,202.7 942.0,202.6" stroke="#7FBF7F" stroke-width="0.90" stroke-opacity="1.00" fill="none" />
<polyline class="pl" points="910.8,321.1 912.4,321.1 913.8,321.2 915.2,321.3 916.4,321.5 917.6,321.6 918.8,321.8 919.8,322.1 920.8,322.4 921.7,322.6 922.7,322.9 923.5,323.3 924.4,323.6 925.2,323.9 926.0,324.3 926.8,324.6 927.6,325.0 928.4,325.3 929.3,325.6 930.1,326.0 931.1,326.3 932.0,326.5 933.0,326.8 934.0,327.1 935.2,327.3 936.4,327.4 937.6,327.6 939.0,327.7 940.4,327.8 942.0,327.8" stroke="#7FBF7F" stroke-width="0.90" stroke-opacity="1.00" fill="none" />
<text transform="translate(160.0,666.1)" font-size="19.80" font-family="Helvetica" fill="#BFBFBF" stroke="none" xml:space="preserve">CICERO   &#9679;   Data: UNFCCC (2026)</text>
<g>
  <rect x="123.0" y="651.4" width="34" height="17" fill="#FFF" stroke="none" opacity="0.01"/>
  <g transform="translate(124.0,652.4) scale(0.24)">
  <g><circle fill="#FFF" cx="37.79" cy="28.5" r="28.84"/>
     <circle fill="none" cx="37.79" cy="28.5" r="28.84" stroke="#BFBFBF" stroke-width="5.5"/>
     <path fill="#BFBFBF" d="M37.16,23.19 l-4.29,2.23c-0.458-0.951-1.02-1.62-1.69-2c-0.667-0.38-1.29-0.571-1.86-0.571c-2.86,0-4.29,1.89-4.29,5.66 c0,1.71,0.36,3.08,1.09,4.11c0.724,1.03,1.79,1.54,3.2,1.54c1.87,0,3.18-0.915,3.94-2.74l3.94,2 c-0.838,1.56-2,2.79-3.49,3.69c-1.48,0.896-3.12,1.34-4.91,1.34c-2.86,0-5.16-0.875-6.92-2.63 c-1.75-1.75-2.63-4.19-2.63-7.31c0-3.05,0.886-5.47,2.66-7.26c1.77-1.79,4.01-2.69,6.72-2.69 C32.6,18.56,35.44,20.1,37.16,23.19z
              M55.61,23.19l-4.23,2.23c-0.457-0.951-1.02-1.62-1.69-2 c-0.668-0.38-1.31-0.571-1.91-0.571c-2.86,0-4.29,1.89-4.29,5.66c0,1.71,0.363,3.08,1.09,4.11 c0.723,1.03,1.79,1.54,3.2,1.54c1.87,0,3.18-0.915,3.94-2.74l4,2c-0.875,1.56-2.06,2.79-3.54,3.69 c-1.49,0.9-3.11,1.34-4.86,1.34c-2.9,0-5.21-0.875-6.94-2.63c-1.74-1.75-2.6-4.19-2.6-7.31 c0-3.05,0.885-5.47,2.66-7.26c1.77-1.79,4.01-2.69,6.71-2.69C51.12,18.56,53.944,20.1,55.61,23.19z"/>
  </g></g>
  <g transform="translate(140.2,652.4) scale(0.24)">
  <g><circle fill="#FFF" cx="37.79" cy="28.5" r="28.84"/>
     <circle fill="none" cx="37.79" cy="28.5" r="28.84" stroke="#BFBFBF" stroke-width="5.5"/>
     <path fill="#BFBFBF" d="M46.129,20.557v13.085h-3.656v15.542h-9.944V33.643h-3.656V20.557 c0-0.572,0.2-1.057,0.599-1.457c0.401-0.399,0.887-0.6,1.457-0.6h13.144c0.533,0,1.01,0.2,1.428,0.6 C45.918,19.5,46.129,19.986,46.129,20.557z
              M33.042,12.329c0-3.008,1.485-4.514,4.458-4.514s4.457,1.504,4.457,4.514 c0,2.971-1.486,4.457-4.457,4.457S33.042,15.3,33.042,12.329z"/>
  </g></g>
</g>
</g>
</svg>
