<svg version="1.1" xmlns="http://www.w3.org/2000/svg" xmlns:xlink="http://www.w3.org/1999/xlink" width="100%" height="100%" viewBox="0 0 1200.000 674.916">
<title>Annual LULUCF emissions: Latvia</title>
<style type="text/css">
  #main {font-family:Helvetica,Arial,sans-serif; font-size:27.00px;
         fill-opacity:1; fill:#000000; stroke:none; stroke-linejoin:round; stroke-linecap:round; stroke-width:1.00;}
  .marker {stroke-opacity:0;fill-opacity:0;}
  .marker:hover {stroke-opacity:0.5; fill-opacity:1;}
  .ticklabel {font-size:27.00px;fill:#808080;stroke:none;font-family:Helvetica}
  .ytl {text-anchor:end;}
  .dp1 {pointer-events:none;font-size:70%;text-anchor:middle;fill:#000000;}
  .dp2 {pointer-events:none;font-size:70%;text-anchor:middle;fill:#FFFFFF;}
  .numtip {pointer-events:none;}
  .cc {opacity:0.25;}
.dl_fe {background-color:#FDFFDF;display:flex;margin:auto;align-items:center}
.dl_fe_p {font-size:20px;text-align:center;margin:3px}
.dl_el {display:none;pointer-events:none;}
.cc:hover + .dl_el {display:block;}
text:hover + .dl_el {display:block;}
</style>
<defs>
  <clipPath id="axis_clip"><rect x="145.8" y="54.2" width="761.2" height="532.8" /></clipPath>
  <path id="line_x" d="M 145.600,0 h 761.600" stroke="#262626" stroke-opacity="0.15" stroke-width="1.00"/>
  <path id="tick_y" d="M 145.600,0 h -6.000" stroke="#808080" stroke-width="0.90"/>
  <path id="tick_x" d="M 0,587.177 v 6.000" stroke="#808080" stroke-width="0.90"/>
</defs>
<g id="main">
<use xlink:href="#line_x" transform="translate(0,587.2)"/>
<use xlink:href="#line_x" transform="translate(0,498.3)"/>
<use xlink:href="#line_x" transform="translate(0,409.4)"/>
<use xlink:href="#line_x" transform="translate(0,320.6)"/>
<use xlink:href="#line_x" transform="translate(0,231.7)"/>
<use xlink:href="#line_x" transform="translate(0,142.9)"/>
<use xlink:href="#line_x" transform="translate(0,54.0)"/>
<use xlink:href="#tick_y" transform="translate(0,587.2)"/>
<use xlink:href="#tick_y" transform="translate(0,498.3)"/>
<use xlink:href="#tick_y" transform="translate(0,409.4)"/>
<use xlink:href="#tick_y" transform="translate(0,320.6)"/>
<use xlink:href="#tick_y" transform="translate(0,231.7)"/>
<use xlink:href="#tick_y" transform="translate(0,142.9)"/>
<use xlink:href="#tick_y" transform="translate(0,54.0)"/>
<use xlink:href="#tick_x" transform="translate(156.8,0)"/>
<use xlink:href="#tick_x" transform="translate(268.8,0)"/>
<use xlink:href="#tick_x" transform="translate(380.8,0)"/>
<use xlink:href="#tick_x" transform="translate(492.8,0)"/>
<use xlink:href="#tick_x" transform="translate(604.8,0)"/>
<use xlink:href="#tick_x" transform="translate(716.8,0)"/>
<use xlink:href="#tick_x" transform="translate(828.8,0)"/>
<use xlink:href="#tick_x" transform="translate(896.0,0)"/>
<polyline points="145.6,53.993 145.6,587.177 907.2,587.177" stroke="#808080" stroke-width="0.90" fill="none"/>
<text class="ticklabel xtl" transform="translate(156.8,629.0)" text-anchor="middle">1990</text>
<text class="ticklabel xtl" transform="translate(268.8,629.0)" text-anchor="middle">1995</text>
<text class="ticklabel xtl" transform="translate(380.8,629.0)" text-anchor="middle">2000</text>
<text class="ticklabel xtl" transform="translate(492.8,629.0)" text-anchor="middle">2005</text>
<text class="ticklabel xtl" transform="translate(604.8,629.0)" text-anchor="middle">2010</text>
<text class="ticklabel xtl" transform="translate(716.8,629.0)" text-anchor="middle">2015</text>
<text class="ticklabel xtl" transform="translate(828.8,629.0)" text-anchor="middle">2020</text>
<text class="ticklabel xtl" transform="translate(896.0,629.0)" text-anchor="middle">23</text>
<text class="ticklabel ytl" transform="translate(128.8,595.3)">-20</text>
<text class="ticklabel ytl" transform="translate(128.8,506.4)">-15</text>
<text class="ticklabel ytl" transform="translate(128.8,417.5)">-10</text>
<text class="ticklabel ytl" transform="translate(128.8,328.7)">-5</text>
<text class="ticklabel ytl" transform="translate(128.8,239.8)">0</text>
<text class="ticklabel ytl" transform="translate(128.8,151.0)">5</text>
<text class="ticklabel ytl" transform="translate(128.8,62.1)">10 Mt</text>
<g stroke="#000" stroke-width="0.90" fill="#1A4D1A"  clip-path="url(#axis_clip)">
</g>
<g stroke="#000" stroke-width="0.90" fill="#8B1E40"  clip-path="url(#axis_clip)">
  <polygon points="192.6,159.3 192.6,160.3 210.6,160.3 210.6,159.3 192.6,159.3"/>
  <polygon points="215.0,158.6 215.0,165.7 233.0,165.7 233.0,158.6 215.0,158.6"/>
</g>
<g stroke="#000" stroke-width="0.90" fill="#7B417F"  clip-path="url(#axis_clip)">
</g>
<g stroke="#000" stroke-width="0.90" fill="#808080"  clip-path="url(#axis_clip)">
  <polygon points="147.8,148.8 147.8,148.9 165.8,148.9 165.8,148.8 147.8,148.8"/>
  <polygon points="371.8,166.9 371.8,166.9 389.8,166.9 389.8,166.9 371.8,166.9"/>
  <polygon points="394.2,169.8 394.2,171.4 412.2,171.4 412.2,169.8 394.2,169.8"/>
  <polygon points="416.6,164.6 416.6,166.3 434.6,166.3 434.6,164.6 416.6,164.6"/>
  <polygon points="439.0,166.9 439.0,168.8 457.0,168.8 457.0,166.9 439.0,166.9"/>
  <polygon points="461.4,166.9 461.4,169.1 479.4,169.1 479.4,166.9 461.4,166.9"/>
  <polygon points="483.8,163.7 483.8,166.1 501.8,166.1 501.8,163.7 483.8,163.7"/>
  <polygon points="506.2,160.1 506.2,162.7 524.2,162.7 524.2,160.1 506.2,160.1"/>
  <polygon points="528.6,172.1 528.6,173.7 546.6,173.7 546.6,172.1 528.6,172.1"/>
  <polygon points="551.0,166.5 551.0,168.3 569.0,168.3 569.0,166.5 551.0,166.5"/>
  <polygon points="573.4,154.5 573.4,159.1 591.4,159.1 591.4,154.5 573.4,154.5"/>
  <polygon points="595.8,156.5 595.8,161.7 613.8,161.7 613.8,156.5 595.8,156.5"/>
  <polygon points="618.2,151.9 618.2,157.4 636.2,157.4 636.2,151.9 618.2,151.9"/>
  <polygon points="752.6,152.4 752.6,160.2 770.6,160.2 770.6,152.4 752.6,152.4"/>
  <polygon points="775.0,130.3 775.0,144.0 793.0,144.0 793.0,130.3 775.0,130.3"/>
  <polygon points="797.4,140.0 797.4,150.9 815.4,150.9 815.4,140.0 797.4,140.0"/>
  <polygon points="819.8,138.6 819.8,150.6 837.8,150.6 837.8,138.6 819.8,138.6"/>
  <polygon points="842.2,136.7 842.2,149.6 860.2,149.6 860.2,136.7 842.2,136.7"/>
  <polygon points="864.6,95.2 864.6,116.2 882.6,116.2 882.6,95.2 864.6,95.2"/>
  <polygon points="887.0,108.6 887.0,128.2 905.0,128.2 905.0,108.6 887.0,108.6"/>
</g>
<g stroke="#000" stroke-width="0.90" fill="#EDB120"  clip-path="url(#axis_clip)">
  <polygon points="147.8,148.9 147.8,167.0 165.8,167.0 165.8,148.9 147.8,148.9"/>
  <polygon points="170.2,141.9 170.2,167.8 188.2,167.8 188.2,141.9 170.2,141.9"/>
  <polygon points="192.6,160.3 192.6,168.6 210.6,168.6 210.6,160.3 192.6,160.3"/>
  <polygon points="215.0,165.7 215.0,169.3 233.0,169.3 233.0,165.7 215.0,165.7"/>
  <polygon points="237.4,164.4 237.4,170.0 255.4,170.0 255.4,164.4 237.4,164.4"/>
  <polygon points="259.8,165.0 259.8,170.7 277.8,170.7 277.8,165.0 259.8,165.0"/>
  <polygon points="282.2,166.0 282.2,171.5 300.2,171.5 300.2,166.0 282.2,166.0"/>
  <polygon points="304.6,166.2 304.6,172.3 322.6,172.3 322.6,166.2 304.6,166.2"/>
  <polygon points="327.0,168.6 327.0,173.2 345.0,173.2 345.0,168.6 327.0,168.6"/>
  <polygon points="349.4,162.7 349.4,174.1 367.4,174.1 367.4,162.7 349.4,162.7"/>
  <polygon points="371.8,166.9 371.8,174.9 389.8,174.9 389.8,166.9 371.8,166.9"/>
  <polygon points="394.2,171.4 394.2,180.5 412.2,180.5 412.2,171.4 394.2,171.4"/>
  <polygon points="416.6,166.3 416.6,180.8 434.6,180.8 434.6,166.3 416.6,166.3"/>
  <polygon points="439.0,168.8 439.0,181.2 457.0,181.2 457.0,168.8 439.0,168.8"/>
  <polygon points="461.4,169.1 461.4,181.5 479.4,181.5 479.4,169.1 461.4,169.1"/>
  <polygon points="483.8,166.1 483.8,181.9 501.8,181.9 501.8,166.1 483.8,166.1"/>
  <polygon points="506.2,162.7 506.2,182.1 524.2,182.1 524.2,162.7 506.2,162.7"/>
  <polygon points="528.6,173.7 528.6,183.2 546.6,183.2 546.6,173.7 528.6,173.7"/>
  <polygon points="551.0,168.3 551.0,183.5 569.0,183.5 569.0,168.3 551.0,168.3"/>
  <polygon points="573.4,159.1 573.4,173.9 591.4,173.9 591.4,159.1 573.4,159.1"/>
  <polygon points="595.8,161.7 595.8,174.2 613.8,174.2 613.8,161.7 595.8,161.7"/>
  <polygon points="618.2,157.4 618.2,174.4 636.2,174.4 636.2,157.4 618.2,157.4"/>
  <polygon points="640.6,161.9 640.6,176.2 658.6,176.2 658.6,161.9 640.6,161.9"/>
  <polygon points="663.0,153.0 663.0,176.1 681.0,176.1 681.0,153.0 663.0,153.0"/>
  <polygon points="685.4,160.6 685.4,178.1 703.4,178.1 703.4,160.6 685.4,160.6"/>
  <polygon points="707.8,154.9 707.8,178.2 725.8,178.2 725.8,154.9 707.8,154.9"/>
  <polygon points="730.2,162.0 730.2,178.2 748.2,178.2 748.2,162.0 730.2,162.0"/>
  <polygon points="752.6,160.2 752.6,179.4 770.6,179.4 770.6,160.2 752.6,160.2"/>
  <polygon points="775.0,144.0 775.0,175.1 793.0,175.1 793.0,144.0 775.0,144.0"/>
  <polygon points="797.4,150.9 797.4,176.2 815.4,176.2 815.4,150.9 797.4,150.9"/>
  <polygon points="819.8,150.6 819.8,176.3 837.8,176.3 837.8,150.6 819.8,150.6"/>
  <polygon points="842.2,149.6 842.2,175.9 860.2,175.9 860.2,149.6 842.2,149.6"/>
  <polygon points="864.6,116.2 864.6,147.1 882.6,147.1 882.6,116.2 864.6,116.2"/>
  <polygon points="887.0,128.2 887.0,159.1 905.0,159.1 905.0,128.2 887.0,128.2"/>
</g>
<g stroke="#000" stroke-width="0.90" fill="#D95319"  clip-path="url(#axis_clip)">
  <polygon points="147.8,167.0 147.8,186.0 165.8,186.0 165.8,167.0 147.8,167.0"/>
  <polygon points="170.2,167.8 170.2,186.4 188.2,186.4 188.2,167.8 170.2,167.8"/>
  <polygon points="192.6,168.6 192.6,187.1 210.6,187.1 210.6,168.6 192.6,168.6"/>
  <polygon points="215.0,169.3 215.0,187.7 233.0,187.7 233.0,169.3 215.0,169.3"/>
  <polygon points="237.4,170.0 237.4,188.4 255.4,188.4 255.4,170.0 237.4,170.0"/>
  <polygon points="259.8,170.7 259.8,189.1 277.8,189.1 277.8,170.7 259.8,170.7"/>
  <polygon points="282.2,171.5 282.2,189.9 300.2,189.9 300.2,171.5 282.2,171.5"/>
  <polygon points="304.6,172.3 304.6,190.6 322.6,190.6 322.6,172.3 304.6,172.3"/>
  <polygon points="327.0,173.2 327.0,191.3 345.0,191.3 345.0,173.2 327.0,173.2"/>
  <polygon points="349.4,174.1 349.4,192.0 367.4,192.0 367.4,174.1 349.4,174.1"/>
  <polygon points="371.8,174.9 371.8,192.8 389.8,192.8 389.8,174.9 371.8,174.9"/>
  <polygon points="394.2,180.5 394.2,194.7 412.2,194.7 412.2,180.5 394.2,180.5"/>
  <polygon points="416.6,180.8 416.6,196.0 434.6,196.0 434.6,180.8 416.6,180.8"/>
  <polygon points="439.0,181.2 439.0,197.3 457.0,197.3 457.0,181.2 439.0,181.2"/>
  <polygon points="461.4,181.5 461.4,198.6 479.4,198.6 479.4,181.5 461.4,181.5"/>
  <polygon points="483.8,181.9 483.8,199.9 501.8,199.9 501.8,181.9 483.8,181.9"/>
  <polygon points="506.2,182.1 506.2,201.1 524.2,201.1 524.2,182.1 506.2,182.1"/>
  <polygon points="528.6,183.2 528.6,202.4 546.6,202.4 546.6,183.2 528.6,183.2"/>
  <polygon points="551.0,183.5 551.0,203.6 569.0,203.6 569.0,183.5 551.0,183.5"/>
  <polygon points="573.4,173.9 573.4,203.2 591.4,203.2 591.4,173.9 573.4,173.9"/>
  <polygon points="595.8,174.2 595.8,203.5 613.8,203.5 613.8,174.2 595.8,174.2"/>
  <polygon points="618.2,174.4 618.2,203.8 636.2,203.8 636.2,174.4 618.2,174.4"/>
  <polygon points="640.6,176.2 640.6,205.3 658.6,205.3 658.6,176.2 640.6,176.2"/>
  <polygon points="663.0,176.1 663.0,205.3 681.0,205.3 681.0,176.1 663.0,176.1"/>
  <polygon points="685.4,178.1 685.4,205.0 703.4,205.0 703.4,178.1 685.4,178.1"/>
  <polygon points="707.8,178.2 707.8,204.9 725.8,204.9 725.8,178.2 707.8,178.2"/>
  <polygon points="730.2,178.2 730.2,204.8 748.2,204.8 748.2,178.2 730.2,178.2"/>
  <polygon points="752.6,179.4 752.6,203.9 770.6,203.9 770.6,179.4 752.6,179.4"/>
  <polygon points="775.0,175.1 775.0,203.3 793.0,203.3 793.0,175.1 775.0,175.1"/>
  <polygon points="797.4,176.2 797.4,204.6 815.4,204.6 815.4,176.2 797.4,176.2"/>
  <polygon points="819.8,176.3 819.8,204.4 837.8,204.4 837.8,176.3 819.8,176.3"/>
  <polygon points="842.2,175.9 842.2,203.0 860.2,203.0 860.2,175.9 842.2,175.9"/>
  <polygon points="864.6,147.1 864.6,177.3 882.6,177.3 882.6,147.1 864.6,147.1"/>
  <polygon points="887.0,159.1 887.0,188.6 905.0,188.6 905.0,159.1 887.0,159.1"/>
</g>
<g stroke="#000" stroke-width="0.90" fill="#5AA3D0"  clip-path="url(#axis_clip)">
  <polygon points="147.8,186.0 147.8,231.7 165.8,231.7 165.8,186.0 147.8,186.0"/>
  <polygon points="170.2,186.4 170.2,231.7 188.2,231.7 188.2,186.4 170.2,186.4"/>
  <polygon points="192.6,187.1 192.6,231.7 210.6,231.7 210.6,187.1 192.6,187.1"/>
  <polygon points="215.0,187.7 215.0,231.7 233.0,231.7 233.0,187.7 215.0,187.7"/>
  <polygon points="237.4,188.4 237.4,231.7 255.4,231.7 255.4,188.4 237.4,188.4"/>
  <polygon points="259.8,189.1 259.8,231.7 277.8,231.7 277.8,189.1 259.8,189.1"/>
  <polygon points="282.2,189.9 282.2,231.7 300.2,231.7 300.2,189.9 282.2,189.9"/>
  <polygon points="304.6,190.6 304.6,231.7 322.6,231.7 322.6,190.6 304.6,190.6"/>
  <polygon points="327.0,191.3 327.0,231.7 345.0,231.7 345.0,191.3 327.0,191.3"/>
  <polygon points="349.4,192.0 349.4,231.7 367.4,231.7 367.4,192.0 349.4,192.0"/>
  <polygon points="371.8,192.8 371.8,231.7 389.8,231.7 389.8,192.8 371.8,192.8"/>
  <polygon points="394.2,194.7 394.2,231.7 412.2,231.7 412.2,194.7 394.2,194.7"/>
  <polygon points="416.6,196.0 416.6,231.7 434.6,231.7 434.6,196.0 416.6,196.0"/>
  <polygon points="439.0,197.3 439.0,231.7 457.0,231.7 457.0,197.3 439.0,197.3"/>
  <polygon points="461.4,198.6 461.4,231.7 479.4,231.7 479.4,198.6 461.4,198.6"/>
  <polygon points="483.8,199.9 483.8,231.7 501.8,231.7 501.8,199.9 483.8,199.9"/>
  <polygon points="506.2,201.1 506.2,231.7 524.2,231.7 524.2,201.1 506.2,201.1"/>
  <polygon points="528.6,202.4 528.6,231.7 546.6,231.7 546.6,202.4 528.6,202.4"/>
  <polygon points="551.0,203.6 551.0,231.7 569.0,231.7 569.0,203.6 551.0,203.6"/>
  <polygon points="573.4,203.2 573.4,231.7 591.4,231.7 591.4,203.2 573.4,203.2"/>
  <polygon points="595.8,203.5 595.8,231.7 613.8,231.7 613.8,203.5 595.8,203.5"/>
  <polygon points="618.2,203.8 618.2,231.7 636.2,231.7 636.2,203.8 618.2,203.8"/>
  <polygon points="640.6,205.3 640.6,231.7 658.6,231.7 658.6,205.3 640.6,205.3"/>
  <polygon points="663.0,205.3 663.0,231.7 681.0,231.7 681.0,205.3 663.0,205.3"/>
  <polygon points="685.4,205.0 685.4,231.7 703.4,231.7 703.4,205.0 685.4,205.0"/>
  <polygon points="707.8,204.9 707.8,231.7 725.8,231.7 725.8,204.9 707.8,204.9"/>
  <polygon points="730.2,204.8 730.2,231.7 748.2,231.7 748.2,204.8 730.2,204.8"/>
  <polygon points="752.6,203.9 752.6,231.7 770.6,231.7 770.6,203.9 752.6,203.9"/>
  <polygon points="775.0,203.3 775.0,231.7 793.0,231.7 793.0,203.3 775.0,203.3"/>
  <polygon points="797.4,204.6 797.4,231.7 815.4,231.7 815.4,204.6 797.4,204.6"/>
  <polygon points="819.8,204.4 819.8,231.7 837.8,231.7 837.8,204.4 819.8,204.4"/>
  <polygon points="842.2,203.0 842.2,231.7 860.2,231.7 860.2,203.0 842.2,203.0"/>
  <polygon points="864.6,177.3 864.6,208.6 882.6,208.6 882.6,177.3 864.6,177.3"/>
  <polygon points="887.0,188.6 887.0,219.7 905.0,219.7 905.0,188.6 887.0,188.6"/>
</g>
<g stroke="#000" stroke-width="0.90" fill="#6AB561"  clip-path="url(#axis_clip)">
  <polygon points="864.6,208.6 864.6,231.7 882.6,231.7 882.6,208.6 864.6,208.6"/>
  <polygon points="887.0,219.7 887.0,231.7 905.0,231.7 905.0,219.7 887.0,219.7"/>
</g>
<g stroke="#000" stroke-width="0.90" fill="#1A4D1A"  clip-path="url(#axis_clip)">
</g>
<g stroke="#000" stroke-width="0.90" fill="#8B1E40"  clip-path="url(#axis_clip)">
  <polygon points="147.8,537.2 147.8,534.3 165.8,534.3 165.8,537.2 147.8,537.2"/>
  <polygon points="170.2,551.4 170.2,548.5 188.2,548.5 188.2,551.4 170.2,551.4"/>
  <polygon points="237.4,585.1 237.4,583.3 255.4,583.3 255.4,585.1 237.4,585.1"/>
  <polygon points="259.8,564.3 259.8,555.8 277.8,555.8 277.8,564.3 259.8,564.3"/>
  <polygon points="282.2,567.1 282.2,555.0 300.2,555.0 300.2,567.1 282.2,567.1"/>
  <polygon points="304.6,535.5 304.6,507.7 322.6,507.7 322.6,535.5 304.6,535.5"/>
  <polygon points="327.0,516.3 327.0,481.4 345.0,481.4 345.0,516.3 327.0,516.3"/>
  <polygon points="349.4,456.8 349.4,416.0 367.4,416.0 367.4,456.8 349.4,456.8"/>
  <polygon points="371.8,510.2 371.8,467.2 389.8,467.2 389.8,510.2 371.8,510.2"/>
  <polygon points="394.2,525.3 394.2,485.2 412.2,485.2 412.2,525.3 394.2,525.3"/>
  <polygon points="416.6,499.8 416.6,459.0 434.6,459.0 434.6,499.8 416.6,499.8"/>
  <polygon points="439.0,490.0 439.0,449.7 457.0,449.7 457.0,490.0 439.0,490.0"/>
  <polygon points="461.4,423.8 461.4,385.7 479.4,385.7 479.4,423.8 461.4,423.8"/>
  <polygon points="483.8,417.0 483.8,378.1 501.8,378.1 501.8,417.0 483.8,417.0"/>
  <polygon points="506.2,434.4 506.2,394.8 524.2,394.8 524.2,434.4 506.2,434.4"/>
  <polygon points="528.6,414.7 528.6,391.2 546.6,391.2 546.6,414.7 528.6,414.7"/>
  <polygon points="551.0,427.0 551.0,409.4 569.0,409.4 569.0,427.0 551.0,427.0"/>
  <polygon points="573.4,377.8 573.4,356.8 591.4,356.8 591.4,377.8 573.4,377.8"/>
  <polygon points="595.8,343.8 595.8,312.5 613.8,312.5 613.8,343.8 595.8,343.8"/>
  <polygon points="618.2,355.2 618.2,320.1 636.2,320.1 636.2,355.2 618.2,355.2"/>
  <polygon points="640.6,369.1 640.6,336.4 658.6,336.4 658.6,369.1 640.6,369.1"/>
  <polygon points="663.0,354.8 663.0,322.0 681.0,322.0 681.0,354.8 663.0,354.8"/>
  <polygon points="685.4,276.0 685.4,243.6 703.4,243.6 703.4,276.0 685.4,276.0"/>
  <polygon points="707.8,303.7 707.8,271.4 725.8,271.4 725.8,303.7 707.8,303.7"/>
  <polygon points="730.2,328.9 730.2,291.6 748.2,291.6 748.2,328.9 730.2,328.9"/>
  <polygon points="752.6,364.0 752.6,319.7 770.6,319.7 770.6,364.0 752.6,364.0"/>
  <polygon points="775.0,341.7 775.0,300.9 793.0,300.9 793.0,341.7 775.0,341.7"/>
  <polygon points="797.4,362.7 797.4,321.6 815.4,321.6 815.4,362.7 797.4,362.7"/>
  <polygon points="819.8,315.4 819.8,277.8 837.8,277.8 837.8,315.4 819.8,315.4"/>
  <polygon points="842.2,291.6 842.2,245.7 860.2,245.7 860.2,291.6 842.2,291.6"/>
  <polygon points="864.6,266.9 864.6,231.7 882.6,231.7 882.6,266.9 864.6,266.9"/>
  <polygon points="887.0,272.6 887.0,231.7 905.0,231.7 905.0,272.6 887.0,272.6"/>
</g>
<g stroke="#000" stroke-width="0.90" fill="#7B417F"  clip-path="url(#axis_clip)">
</g>
<g stroke="#000" stroke-width="0.90" fill="#808080"  clip-path="url(#axis_clip)">
  <polygon points="170.2,548.5 170.2,548.0 188.2,548.0 188.2,548.5 170.2,548.5"/>
  <polygon points="192.6,540.9 192.6,540.4 210.6,540.4 210.6,540.9 192.6,540.9"/>
  <polygon points="215.0,539.3 215.0,538.9 233.0,538.9 233.0,539.3 215.0,539.3"/>
  <polygon points="237.4,583.3 237.4,582.9 255.4,582.9 255.4,583.3 237.4,583.3"/>
  <polygon points="259.8,555.8 259.8,555.4 277.8,555.4 277.8,555.8 259.8,555.8"/>
  <polygon points="282.2,555.0 282.2,554.8 300.2,554.8 300.2,555.0 282.2,555.0"/>
  <polygon points="304.6,507.7 304.6,507.6 322.6,507.6 322.6,507.7 304.6,507.7"/>
  <polygon points="327.0,481.4 327.0,481.2 345.0,481.2 345.0,481.4 327.0,481.4"/>
  <polygon points="349.4,416.0 349.4,415.9 367.4,415.9 367.4,416.0 349.4,416.0"/>
  <polygon points="640.6,336.4 640.6,330.0 658.6,330.0 658.6,336.4 640.6,336.4"/>
  <polygon points="663.0,322.0 663.0,316.2 681.0,316.2 681.0,322.0 663.0,322.0"/>
  <polygon points="685.4,243.6 685.4,239.7 703.4,239.7 703.4,243.6 685.4,243.6"/>
  <polygon points="707.8,271.4 707.8,268.2 725.8,268.2 725.8,271.4 707.8,271.4"/>
  <polygon points="730.2,291.6 730.2,289.2 748.2,289.2 748.2,291.6 730.2,291.6"/>
</g>
<g stroke="#000" stroke-width="0.90" fill="#6AB561"  clip-path="url(#axis_clip)">
  <polygon points="147.8,534.3 147.8,231.7 165.8,231.7 165.8,534.3 147.8,534.3"/>
  <polygon points="170.2,548.0 170.2,231.7 188.2,231.7 188.2,548.0 170.2,548.0"/>
  <polygon points="192.6,540.4 192.6,231.7 210.6,231.7 210.6,540.4 192.6,540.4"/>
  <polygon points="215.0,538.9 215.0,231.7 233.0,231.7 233.0,538.9 215.0,538.9"/>
  <polygon points="237.4,582.9 237.4,231.7 255.4,231.7 255.4,582.9 237.4,582.9"/>
  <polygon points="259.8,555.4 259.8,231.7 277.8,231.7 277.8,555.4 259.8,555.4"/>
  <polygon points="282.2,554.8 282.2,231.7 300.2,231.7 300.2,554.8 282.2,554.8"/>
  <polygon points="304.6,507.6 304.6,231.7 322.6,231.7 322.6,507.6 304.6,507.6"/>
  <polygon points="327.0,481.2 327.0,231.7 345.0,231.7 345.0,481.2 327.0,481.2"/>
  <polygon points="349.4,415.9 349.4,231.7 367.4,231.7 367.4,415.9 349.4,415.9"/>
  <polygon points="371.8,467.2 371.8,231.7 389.8,231.7 389.8,467.2 371.8,467.2"/>
  <polygon points="394.2,485.2 394.2,231.7 412.2,231.7 412.2,485.2 394.2,485.2"/>
  <polygon points="416.6,459.0 416.6,231.7 434.6,231.7 434.6,459.0 416.6,459.0"/>
  <polygon points="439.0,449.7 439.0,231.7 457.0,231.7 457.0,449.7 439.0,449.7"/>
  <polygon points="461.4,385.7 461.4,231.7 479.4,231.7 479.4,385.7 461.4,385.7"/>
  <polygon points="483.8,378.1 483.8,231.7 501.8,231.7 501.8,378.1 483.8,378.1"/>
  <polygon points="506.2,394.8 506.2,231.7 524.2,231.7 524.2,394.8 506.2,394.8"/>
  <polygon points="528.6,391.2 528.6,231.7 546.6,231.7 546.6,391.2 528.6,391.2"/>
  <polygon points="551.0,409.4 551.0,231.7 569.0,231.7 569.0,409.4 551.0,409.4"/>
  <polygon points="573.4,356.8 573.4,231.7 591.4,231.7 591.4,356.8 573.4,356.8"/>
  <polygon points="595.8,312.5 595.8,231.7 613.8,231.7 613.8,312.5 595.8,312.5"/>
  <polygon points="618.2,320.1 618.2,231.7 636.2,231.7 636.2,320.1 618.2,320.1"/>
  <polygon points="640.6,330.0 640.6,231.7 658.6,231.7 658.6,330.0 640.6,330.0"/>
  <polygon points="663.0,316.2 663.0,231.7 681.0,231.7 681.0,316.2 663.0,316.2"/>
  <polygon points="685.4,239.7 685.4,231.7 703.4,231.7 703.4,239.7 685.4,239.7"/>
  <polygon points="707.8,268.2 707.8,231.7 725.8,231.7 725.8,268.2 707.8,268.2"/>
  <polygon points="730.2,289.2 730.2,231.7 748.2,231.7 748.2,289.2 730.2,289.2"/>
  <polygon points="752.6,319.7 752.6,231.7 770.6,231.7 770.6,319.7 752.6,319.7"/>
  <polygon points="775.0,300.9 775.0,231.7 793.0,231.7 793.0,300.9 775.0,300.9"/>
  <polygon points="797.4,321.6 797.4,231.7 815.4,231.7 815.4,321.6 797.4,321.6"/>
  <polygon points="819.8,277.8 819.8,231.7 837.8,231.7 837.8,277.8 819.8,277.8"/>
  <polygon points="842.2,245.7 842.2,231.7 860.2,231.7 860.2,245.7 842.2,245.7"/>
</g>
<polyline class="pl" points="156.8,454.3 179.2,461.5 201.6,468.4 224.0,466.3 246.4,517.8 268.8,497.6 291.2,501.4 313.6,470.0 336.0,453.1 358.4,387.8 380.8,445.4 403.2,463.5 425.6,432.7 448.0,425.2 470.4,359.0 492.8,349.0 515.2,362.8 537.6,355.1 560.0,361.8 582.4,300.5 604.8,268.6 627.2,275.4 649.6,299.3 672.0,276.1 694.4,204.9 716.8,227.0 739.2,259.1 761.6,284.8 784.0,240.3 806.4,271.0 828.8,222.3 851.2,196.6 873.6,130.4 896.0,149.4" stroke="#000" stroke-width="5.40" stroke-opacity="1.00" fill="none" clip-path="url(#axis_clip)"/>
<g class="pl" fill="#FFF" stroke="#000" stroke-width="0.900">
  <circle cx="179.2" cy="461.5" r="2.2" />
  <circle cx="201.6" cy="468.4" r="2.2" />
  <circle cx="224.0" cy="466.3" r="2.2" />
  <circle cx="246.4" cy="517.8" r="2.2" />
  <circle cx="268.8" cy="497.6" r="2.2" />
  <circle cx="291.2" cy="501.4" r="2.2" />
  <circle cx="313.6" cy="470.0" r="2.2" />
  <circle cx="336.0" cy="453.1" r="2.2" />
  <circle cx="358.4" cy="387.8" r="2.2" />
  <circle cx="403.2" cy="463.5" r="2.2" />
  <circle cx="425.6" cy="432.7" r="2.2" />
  <circle cx="448.0" cy="425.2" r="2.2" />
  <circle cx="470.4" cy="359.0" r="2.2" />
  <circle cx="492.8" cy="349.0" r="2.2" />
  <circle cx="515.2" cy="362.8" r="2.2" />
  <circle cx="537.6" cy="355.1" r="2.2" />
  <circle cx="560.0" cy="361.8" r="2.2" />
  <circle cx="582.4" cy="300.5" r="2.2" />
  <circle cx="627.2" cy="275.4" r="2.2" />
  <circle cx="649.6" cy="299.3" r="2.2" />
  <circle cx="672.0" cy="276.1" r="2.2" />
  <circle cx="694.4" cy="204.9" r="2.2" />
  <circle cx="716.8" cy="227.0" r="2.2" />
  <circle cx="739.2" cy="259.1" r="2.2" />
  <circle cx="761.6" cy="284.8" r="2.2" />
  <circle cx="784.0" cy="240.3" r="2.2" />
  <circle cx="806.4" cy="271.0" r="2.2" />
  <circle cx="851.2" cy="196.6" r="2.2" />
  <circle cx="873.6" cy="130.4" r="2.2" />
  <circle cx="896.0" cy="149.4" r="2.2" />
</g>
<g class="pl" fill="#FFF" stroke="#000" stroke-width="0.900">
  <circle cx="156.8" cy="454.3" r="5.4" />
  <circle cx="380.8" cy="445.4" r="5.4" />
  <circle cx="604.8" cy="268.6" r="5.4" />
  <circle cx="828.8" cy="222.3" r="5.4" />
</g>
<text transform="translate(145.6,47.2)" dy="0.0" font-size="27.00" fill="#808080" stroke="none">Annual LULUCF emissions: Latvia</text>
<text transform="translate(130.0,81.6)" dy="8.1" font-size="27.00" fill="#808080" stroke="none" text-anchor="end">CO<tspan dy="0.2em"><tspan style="font-size:70%">2</tspan></tspan><tspan dy="-0.2em">e</tspan></text>
<text transform="translate(945.6,225.7)" dy="6.5" font-size="21.60" fill="#6AB561" stroke="none">Forest land</text>
<text transform="translate(945.6,204.1)" dy="6.5" font-size="21.60" fill="#5AA3D0" stroke="none">Cropland</text>
<text transform="translate(945.6,173.8)" dy="6.5" font-size="21.60" fill="#D95319" stroke="none">Grassland</text>
<text transform="translate(945.6,150.9)" dy="6.5" font-size="21.60" fill="#EDB120" stroke="none">Wetlands</text>
<text transform="translate(945.6,130.2)" dy="6.5" font-size="21.60" fill="#808080" stroke="none">Settlements</text>
<text transform="translate(945.6,109.4)" dy="6.5" font-size="21.60" fill="#7B417F" stroke="none">Other land</text>
<text transform="translate(945.6,88.7)" dy="6.5" font-size="21.60" fill="#1A4D1A" stroke="none">Other</text>
<text transform="translate(945.6,252.2)" dy="6.5" font-size="21.60" fill="#8B1E40" stroke="none">HWP</text>
<polyline class="pl" points="910.8,143.7 912.4,143.7 913.8,143.8 915.2,143.9 916.4,144.0 917.6,144.2 918.8,144.5 919.8,144.7 920.8,145.0 921.7,145.3 922.7,145.6 923.5,146.0 924.4,146.3 925.2,146.7 926.0,147.1 926.8,147.5 927.6,147.8 928.4,148.2 929.3,148.5 930.1,148.9 931.1,149.2 932.0,149.5 933.0,149.8 934.0,150.1 935.2,150.3 936.4,150.5 937.6,150.7 939.0,150.8 940.4,150.9 942.0,150.9" stroke="#EDB120" stroke-width="0.90" stroke-opacity="1.00" fill="none" />
<polyline class="pl" points="910.8,118.4 912.4,118.4 913.8,118.6 915.2,118.7 916.4,119.0 917.6,119.3 918.8,119.7 919.8,120.1 920.8,120.6 921.7,121.1 922.7,121.6 923.5,122.2 924.4,122.8 925.2,123.4 926.0,124.0 926.8,124.6 927.6,125.2 928.4,125.8 929.3,126.4 930.1,126.9 931.1,127.5 932.0,128.0 933.0,128.4 934.0,128.9 935.2,129.2 936.4,129.5 937.6,129.8 939.0,130.0 940.4,130.1 942.0,130.2" stroke="#808080" stroke-width="0.90" stroke-opacity="1.00" fill="none" />
<polyline class="pl" points="910.8,108.6 912.4,108.6 913.8,108.6 915.2,108.6 916.4,108.6 917.6,108.6 918.8,108.7 919.8,108.7 920.8,108.7 921.7,108.8 922.7,108.8 923.5,108.8 924.4,108.9 925.2,108.9 926.0,109.0 926.8,109.0 927.6,109.1 928.4,109.1 929.3,109.2 930.1,109.2 931.1,109.2 932.0,109.3 933.0,109.3 934.0,109.3 935.2,109.4 936.4,109.4 937.6,109.4 939.0,109.4 940.4,109.4 942.0,109.4" stroke="#7B417F" stroke-width="0.90" stroke-opacity="1.00" fill="none" />
<polyline class="pl" points="910.8,108.6 912.4,108.5 913.8,108.3 915.2,108.0 916.4,107.5 917.6,107.0 918.8,106.4 919.8,105.7 920.8,104.9 921.7,104.0 922.7,103.1 923.5,102.2 924.4,101.2 925.2,100.2 926.0,99.2 926.8,98.1 927.6,97.1 928.4,96.1 929.3,95.1 930.1,94.2 931.1,93.3 932.0,92.4 933.0,91.6 934.0,90.9 935.2,90.3 936.4,89.7 937.6,89.3 939.0,89.0 940.4,88.8 942.0,88.7" stroke="#1A4D1A" stroke-width="0.90" stroke-opacity="1.00" fill="none" />
<text transform="translate(160.0,666.1)" font-size="19.80" font-family="Helvetica" fill="#BFBFBF" stroke="none" xml:space="preserve">CICERO   &#9679;   Data: UNFCCC (2025)</text>
<g>
  <rect x="123.0" y="651.4" width="34" height="17" fill="#FFF" stroke="none" opacity="0.01"/>
  <g transform="translate(124.0,652.4) scale(0.24)">
  <g><circle fill="#FFF" cx="37.79" cy="28.5" r="28.84"/>
     <circle fill="none" cx="37.79" cy="28.5" r="28.84" stroke="#BFBFBF" stroke-width="5.5"/>
     <path fill="#BFBFBF" d="M37.16,23.19 l-4.29,2.23c-0.458-0.951-1.02-1.62-1.69-2c-0.667-0.38-1.29-0.571-1.86-0.571c-2.86,0-4.29,1.89-4.29,5.66 c0,1.71,0.36,3.08,1.09,4.11c0.724,1.03,1.79,1.54,3.2,1.54c1.87,0,3.18-0.915,3.94-2.74l3.94,2 c-0.838,1.56-2,2.79-3.49,3.69c-1.48,0.896-3.12,1.34-4.91,1.34c-2.86,0-5.16-0.875-6.92-2.63 c-1.75-1.75-2.63-4.19-2.63-7.31c0-3.05,0.886-5.47,2.66-7.26c1.77-1.79,4.01-2.69,6.72-2.69 C32.6,18.56,35.44,20.1,37.16,23.19z
              M55.61,23.19l-4.23,2.23c-0.457-0.951-1.02-1.62-1.69-2 c-0.668-0.38-1.31-0.571-1.91-0.571c-2.86,0-4.29,1.89-4.29,5.66c0,1.71,0.363,3.08,1.09,4.11 c0.723,1.03,1.79,1.54,3.2,1.54c1.87,0,3.18-0.915,3.94-2.74l4,2c-0.875,1.56-2.06,2.79-3.54,3.69 c-1.49,0.9-3.11,1.34-4.86,1.34c-2.9,0-5.21-0.875-6.94-2.63c-1.74-1.75-2.6-4.19-2.6-7.31 c0-3.05,0.885-5.47,2.66-7.26c1.77-1.79,4.01-2.69,6.71-2.69C51.12,18.56,53.944,20.1,55.61,23.19z"/>
  </g></g>
  <g transform="translate(140.2,652.4) scale(0.24)">
  <g><circle fill="#FFF" cx="37.79" cy="28.5" r="28.84"/>
     <circle fill="none" cx="37.79" cy="28.5" r="28.84" stroke="#BFBFBF" stroke-width="5.5"/>
     <path fill="#BFBFBF" d="M46.129,20.557v13.085h-3.656v15.542h-9.944V33.643h-3.656V20.557 c0-0.572,0.2-1.057,0.599-1.457c0.401-0.399,0.887-0.6,1.457-0.6h13.144c0.533,0,1.01,0.2,1.428,0.6 C45.918,19.5,46.129,19.986,46.129,20.557z
              M33.042,12.329c0-3.008,1.485-4.514,4.458-4.514s4.457,1.504,4.457,4.514 c0,2.971-1.486,4.457-4.457,4.457S33.042,15.3,33.042,12.329z"/>
  </g></g>
</g>
</g>
</svg>
