<svg version="1.1" xmlns="http://www.w3.org/2000/svg" xmlns:xlink="http://www.w3.org/1999/xlink" width="100%" height="100%" viewBox="0 0 1200.000 674.916">
<title>Emissions and removals on forest land: Latvia</title>
<style type="text/css">
  #main {font-family:Helvetica,Arial,sans-serif; font-size:27.00px;
         fill-opacity:1; fill:#000000; stroke:none; stroke-linejoin:round; stroke-linecap:round; stroke-width:1.00;}
  .marker {stroke-opacity:0;fill-opacity:0;}
  .marker:hover {stroke-opacity:0.5; fill-opacity:1;}
  .ticklabel {font-size:27.00px;fill:#808080;stroke:none;font-family:Helvetica}
  .ytl {text-anchor:end;}
  .dp1 {pointer-events:none;font-size:70%;text-anchor:middle;fill:#000000;}
  .dp2 {pointer-events:none;font-size:70%;text-anchor:middle;fill:#FFFFFF;}
  .numtip {pointer-events:none;}
  .cc {opacity:0.25;}
.dl_fe {background-color:#FDFFDF;display:flex;margin:auto;align-items:center}
.dl_fe_p {font-size:20px;text-align:center;margin:3px}
.dl_el {display:none;pointer-events:none;}
.cc:hover + .dl_el {display:block;}
text:hover + .dl_el {display:block;}
</style>
<defs>
  <clipPath id="axis_clip"><rect x="145.8" y="54.2" width="761.2" height="532.8" /></clipPath>
  <path id="line_y" d="M 0,53.993 v 533.183" stroke="#262626" stroke-opacity="0.15" stroke-width="1.00"/>
  <path id="line_x" d="M 145.600,0 h 761.600" stroke="#262626" stroke-opacity="0.15" stroke-width="1.00"/>
  <path id="tick_y" d="M 145.600,0 h -6.000" stroke="#808080" stroke-width="0.90"/>
  <path id="tick_x" d="M 0,587.177 v 6.000" stroke="#808080" stroke-width="0.90"/>
</defs>
<g id="main">
<use xlink:href="#line_y" transform="translate(156.8,0)"/>
<use xlink:href="#line_y" transform="translate(268.8,0)"/>
<use xlink:href="#line_y" transform="translate(380.8,0)"/>
<use xlink:href="#line_y" transform="translate(492.8,0)"/>
<use xlink:href="#line_y" transform="translate(604.8,0)"/>
<use xlink:href="#line_y" transform="translate(716.8,0)"/>
<use xlink:href="#line_y" transform="translate(828.8,0)"/>
<use xlink:href="#line_y" transform="translate(896.0,0)"/>
<use xlink:href="#line_x" transform="translate(0,587.2)"/>
<use xlink:href="#line_x" transform="translate(0,498.3)"/>
<use xlink:href="#line_x" transform="translate(0,409.4)"/>
<use xlink:href="#line_x" transform="translate(0,320.6)"/>
<use xlink:href="#line_x" transform="translate(0,231.7)"/>
<use xlink:href="#line_x" transform="translate(0,142.9)"/>
<use xlink:href="#line_x" transform="translate(0,54.0)"/>
<use xlink:href="#tick_y" transform="translate(0,587.2)"/>
<use xlink:href="#tick_y" transform="translate(0,498.3)"/>
<use xlink:href="#tick_y" transform="translate(0,409.4)"/>
<use xlink:href="#tick_y" transform="translate(0,320.6)"/>
<use xlink:href="#tick_y" transform="translate(0,231.7)"/>
<use xlink:href="#tick_y" transform="translate(0,142.9)"/>
<use xlink:href="#tick_y" transform="translate(0,54.0)"/>
<use xlink:href="#tick_x" transform="translate(156.8,0)"/>
<use xlink:href="#tick_x" transform="translate(268.8,0)"/>
<use xlink:href="#tick_x" transform="translate(380.8,0)"/>
<use xlink:href="#tick_x" transform="translate(492.8,0)"/>
<use xlink:href="#tick_x" transform="translate(604.8,0)"/>
<use xlink:href="#tick_x" transform="translate(716.8,0)"/>
<use xlink:href="#tick_x" transform="translate(828.8,0)"/>
<use xlink:href="#tick_x" transform="translate(896.0,0)"/>
<polyline points="145.6,53.993 145.6,587.177 907.2,587.177" stroke="#808080" stroke-width="0.90" fill="none"/>
<text class="ticklabel xtl" transform="translate(156.8,629.0)" text-anchor="middle">1990</text>
<text class="ticklabel xtl" transform="translate(268.8,629.0)" text-anchor="middle">1995</text>
<text class="ticklabel xtl" transform="translate(380.8,629.0)" text-anchor="middle">2000</text>
<text class="ticklabel xtl" transform="translate(492.8,629.0)" text-anchor="middle">2005</text>
<text class="ticklabel xtl" transform="translate(604.8,629.0)" text-anchor="middle">2010</text>
<text class="ticklabel xtl" transform="translate(716.8,629.0)" text-anchor="middle">2015</text>
<text class="ticklabel xtl" transform="translate(828.8,629.0)" text-anchor="middle">2020</text>
<text class="ticklabel xtl" transform="translate(896.0,629.0)" text-anchor="middle">23</text>
<text class="ticklabel ytl" transform="translate(128.8,595.3)">-25</text>
<text class="ticklabel ytl" transform="translate(128.8,506.4)">-20</text>
<text class="ticklabel ytl" transform="translate(128.8,417.5)">-15</text>
<text class="ticklabel ytl" transform="translate(128.8,328.7)">-10</text>
<text class="ticklabel ytl" transform="translate(128.8,239.8)">-5</text>
<text class="ticklabel ytl" transform="translate(128.8,151.0)">0</text>
<text class="ticklabel ytl" transform="translate(128.8,62.1)">5 Mt</text>
<g stroke="#000" stroke-width="0.90" fill="#87AC55"  clip-path="url(#axis_clip)">
  <polygon points="147.8,129.1 147.8,142.9 165.8,142.9 165.8,129.1 147.8,129.1"/>
  <polygon points="170.2,128.7 170.2,142.9 188.2,142.9 188.2,128.7 170.2,128.7"/>
  <polygon points="192.6,128.7 192.6,142.8 210.6,142.8 210.6,128.7 192.6,128.7"/>
  <polygon points="215.0,128.7 215.0,142.8 233.0,142.8 233.0,128.7 215.0,128.7"/>
  <polygon points="237.4,128.7 237.4,142.8 255.4,142.8 255.4,128.7 237.4,128.7"/>
  <polygon points="259.8,128.7 259.8,142.8 277.8,142.8 277.8,128.7 259.8,128.7"/>
  <polygon points="282.2,128.7 282.2,142.8 300.2,142.8 300.2,128.7 282.2,128.7"/>
  <polygon points="304.6,128.7 304.6,142.8 322.6,142.8 322.6,128.7 304.6,128.7"/>
  <polygon points="327.0,128.6 327.0,142.8 345.0,142.8 345.0,128.6 327.0,128.6"/>
  <polygon points="349.4,128.6 349.4,142.8 367.4,142.8 367.4,128.6 349.4,128.6"/>
  <polygon points="371.8,128.6 371.8,142.8 389.8,142.8 389.8,128.6 371.8,128.6"/>
  <polygon points="394.2,128.7 394.2,142.8 412.2,142.8 412.2,128.7 394.2,128.7"/>
  <polygon points="416.6,128.7 416.6,142.8 434.6,142.8 434.6,128.7 416.6,128.7"/>
  <polygon points="439.0,128.7 439.0,142.8 457.0,142.8 457.0,128.7 439.0,128.7"/>
  <polygon points="461.4,128.7 461.4,142.8 479.4,142.8 479.4,128.7 461.4,128.7"/>
  <polygon points="483.8,128.7 483.8,142.8 501.8,142.8 501.8,128.7 483.8,128.7"/>
  <polygon points="506.2,128.7 506.2,142.8 524.2,142.8 524.2,128.7 506.2,128.7"/>
  <polygon points="528.6,128.8 528.6,142.8 546.6,142.8 546.6,128.8 528.6,128.8"/>
  <polygon points="551.0,128.8 551.0,142.8 569.0,142.8 569.0,128.8 551.0,128.8"/>
  <polygon points="573.4,128.9 573.4,142.8 591.4,142.8 591.4,128.9 573.4,128.9"/>
  <polygon points="595.8,128.9 595.8,142.8 613.8,142.8 613.8,128.9 595.8,128.9"/>
  <polygon points="618.2,128.9 618.2,142.7 636.2,142.7 636.2,128.9 618.2,128.9"/>
  <polygon points="640.6,128.9 640.6,142.7 658.6,142.7 658.6,128.9 640.6,128.9"/>
  <polygon points="663.0,129.0 663.0,142.7 681.0,142.7 681.0,129.0 663.0,129.0"/>
  <polygon points="685.4,99.3 685.4,112.5 703.4,112.5 703.4,99.3 685.4,99.3"/>
  <polygon points="707.8,129.5 707.8,142.7 725.8,142.7 725.8,129.5 707.8,129.5"/>
  <polygon points="730.2,129.5 730.2,142.7 748.2,142.7 748.2,129.5 730.2,129.5"/>
  <polygon points="752.6,129.5 752.6,142.7 770.6,142.7 770.6,129.5 752.6,129.5"/>
  <polygon points="775.0,129.5 775.0,142.7 793.0,142.7 793.0,129.5 775.0,129.5"/>
  <polygon points="797.4,129.7 797.4,142.7 815.4,142.7 815.4,129.7 797.4,129.7"/>
  <polygon points="819.8,129.7 819.8,142.6 837.8,142.6 837.8,129.7 819.8,129.7"/>
  <polygon points="842.2,129.8 842.2,142.6 860.2,142.6 860.2,129.8 842.2,129.8"/>
  <polygon points="864.6,109.8 864.6,122.3 882.6,122.3 882.6,109.8 864.6,109.8"/>
  <polygon points="887.0,117.1 887.0,127.7 905.0,127.7 905.0,117.1 887.0,117.1"/>
</g>
<g stroke="#000" stroke-width="0.90" fill="#834B8E"  clip-path="url(#axis_clip)">
  <polygon points="147.8,142.9 147.8,142.9 165.8,142.9 165.8,142.9 147.8,142.9"/>
  <polygon points="170.2,142.9 170.2,142.9 188.2,142.9 188.2,142.9 170.2,142.9"/>
  <polygon points="192.6,142.8 192.6,142.9 210.6,142.9 210.6,142.8 192.6,142.8"/>
  <polygon points="215.0,142.8 215.0,142.9 233.0,142.9 233.0,142.8 215.0,142.8"/>
  <polygon points="237.4,142.8 237.4,142.9 255.4,142.9 255.4,142.8 237.4,142.8"/>
  <polygon points="259.8,142.8 259.8,142.9 277.8,142.9 277.8,142.8 259.8,142.8"/>
  <polygon points="282.2,142.8 282.2,142.9 300.2,142.9 300.2,142.8 282.2,142.8"/>
  <polygon points="304.6,142.8 304.6,142.9 322.6,142.9 322.6,142.8 304.6,142.8"/>
  <polygon points="327.0,142.8 327.0,142.9 345.0,142.9 345.0,142.8 327.0,142.8"/>
  <polygon points="349.4,142.8 349.4,142.9 367.4,142.9 367.4,142.8 349.4,142.8"/>
  <polygon points="371.8,142.8 371.8,142.9 389.8,142.9 389.8,142.8 371.8,142.8"/>
  <polygon points="394.2,142.8 394.2,142.9 412.2,142.9 412.2,142.8 394.2,142.8"/>
  <polygon points="416.6,142.8 416.6,142.9 434.6,142.9 434.6,142.8 416.6,142.8"/>
  <polygon points="439.0,142.8 439.0,142.9 457.0,142.9 457.0,142.8 439.0,142.8"/>
  <polygon points="461.4,142.8 461.4,142.9 479.4,142.9 479.4,142.8 461.4,142.8"/>
  <polygon points="483.8,142.8 483.8,142.9 501.8,142.9 501.8,142.8 483.8,142.8"/>
  <polygon points="506.2,142.8 506.2,142.9 524.2,142.9 524.2,142.8 506.2,142.8"/>
  <polygon points="528.6,142.8 528.6,142.9 546.6,142.9 546.6,142.8 528.6,142.8"/>
  <polygon points="551.0,142.8 551.0,142.9 569.0,142.9 569.0,142.8 551.0,142.8"/>
  <polygon points="573.4,142.8 573.4,142.9 591.4,142.9 591.4,142.8 573.4,142.8"/>
  <polygon points="595.8,142.8 595.8,142.9 613.8,142.9 613.8,142.8 595.8,142.8"/>
  <polygon points="618.2,142.7 618.2,142.9 636.2,142.9 636.2,142.7 618.2,142.7"/>
  <polygon points="640.6,142.7 640.6,142.9 658.6,142.9 658.6,142.7 640.6,142.7"/>
  <polygon points="663.0,142.7 663.0,142.9 681.0,142.9 681.0,142.7 663.0,142.7"/>
  <polygon points="685.4,112.5 685.4,112.7 703.4,112.7 703.4,112.5 685.4,112.5"/>
  <polygon points="707.8,142.7 707.8,142.9 725.8,142.9 725.8,142.7 707.8,142.7"/>
  <polygon points="730.2,142.7 730.2,142.9 748.2,142.9 748.2,142.7 730.2,142.7"/>
  <polygon points="752.6,142.7 752.6,142.9 770.6,142.9 770.6,142.7 752.6,142.7"/>
  <polygon points="775.0,142.7 775.0,142.9 793.0,142.9 793.0,142.7 775.0,142.7"/>
  <polygon points="797.4,142.7 797.4,142.9 815.4,142.9 815.4,142.7 797.4,142.7"/>
  <polygon points="819.8,142.6 819.8,142.9 837.8,142.9 837.8,142.6 819.8,142.6"/>
  <polygon points="842.2,142.6 842.2,142.9 860.2,142.9 860.2,142.6 842.2,142.6"/>
  <polygon points="864.6,122.3 864.6,122.6 882.6,122.6 882.6,122.3 864.6,122.3"/>
  <polygon points="887.0,127.7 887.0,128.0 905.0,128.0 905.0,127.7 887.0,127.7"/>
</g>
<g stroke="#000" stroke-width="0.90" fill="#D5AF54"  clip-path="url(#axis_clip)">
</g>
<g stroke="#000" stroke-width="0.90" fill="#D97B53"  clip-path="url(#axis_clip)">
</g>
<g stroke="#000" stroke-width="0.90" fill="#3988BD"  clip-path="url(#axis_clip)">
  <polygon points="685.4,112.7 685.4,142.9 703.4,142.9 703.4,112.7 685.4,112.7"/>
  <polygon points="864.6,122.6 864.6,142.9 882.6,142.9 882.6,122.6 864.6,122.6"/>
  <polygon points="887.0,128.0 887.0,142.9 905.0,142.9 905.0,128.0 887.0,128.0"/>
</g>
<g stroke="#000" stroke-width="0.90" fill="#87AC55"  clip-path="url(#axis_clip)">
</g>
<g stroke="#000" stroke-width="0.90" fill="#834B8E"  clip-path="url(#axis_clip)">
</g>
<g stroke="#000" stroke-width="0.90" fill="#D5AF54"  clip-path="url(#axis_clip)">
  <polygon points="147.8,468.8 147.8,468.7 165.8,468.7 165.8,468.8 147.8,468.8"/>
  <polygon points="170.2,482.8 170.2,482.7 188.2,482.7 188.2,482.8 170.2,482.8"/>
  <polygon points="192.6,490.9 192.6,490.8 210.6,490.8 210.6,490.9 192.6,490.9"/>
  <polygon points="215.0,474.7 215.0,474.6 233.0,474.6 233.0,474.7 215.0,474.7"/>
  <polygon points="237.4,517.7 237.4,517.6 255.4,517.6 255.4,517.7 237.4,517.7"/>
  <polygon points="259.8,491.4 259.8,491.3 277.8,491.3 277.8,491.4 259.8,491.4"/>
  <polygon points="282.2,491.7 282.2,491.5 300.2,491.5 300.2,491.7 282.2,491.7"/>
  <polygon points="304.6,443.7 304.6,443.5 322.6,443.5 322.6,443.7 304.6,443.7"/>
  <polygon points="327.0,417.1 327.0,416.8 345.0,416.8 345.0,417.1 327.0,417.1"/>
  <polygon points="349.4,355.1 349.4,354.7 367.4,354.7 367.4,355.1 349.4,355.1"/>
  <polygon points="371.8,405.6 371.8,405.2 389.8,405.2 389.8,405.6 371.8,405.6"/>
  <polygon points="394.2,420.8 394.2,420.4 412.2,420.4 412.2,420.8 394.2,420.8"/>
  <polygon points="416.6,399.5 416.6,399.0 434.6,399.0 434.6,399.5 416.6,399.5"/>
  <polygon points="439.0,386.2 439.0,385.7 457.0,385.7 457.0,386.2 439.0,386.2"/>
  <polygon points="461.4,321.8 461.4,321.3 479.4,321.3 479.4,321.8 461.4,321.8"/>
  <polygon points="483.8,313.0 483.8,312.4 501.8,312.4 501.8,313.0 483.8,313.0"/>
  <polygon points="506.2,337.4 506.2,336.8 524.2,336.8 524.2,337.4 506.2,337.4"/>
  <polygon points="528.6,326.3 528.6,325.7 546.6,325.7 546.6,326.3 528.6,326.3"/>
  <polygon points="551.0,344.7 551.0,344.0 569.0,344.0 569.0,344.7 551.0,344.7"/>
  <polygon points="573.4,293.0 573.4,292.3 591.4,292.3 591.4,293.0 573.4,293.0"/>
  <polygon points="595.8,248.3 595.8,247.6 613.8,247.6 613.8,248.3 595.8,248.3"/>
  <polygon points="618.2,255.8 618.2,255.1 636.2,255.1 636.2,255.8 618.2,255.8"/>
  <polygon points="640.6,265.9 640.6,265.2 658.6,265.2 658.6,265.9 640.6,265.9"/>
  <polygon points="663.0,252.7 663.0,251.9 681.0,251.9 681.0,252.7 663.0,252.7"/>
  <polygon points="685.4,207.7 685.4,206.9 703.4,206.9 703.4,207.7 685.4,207.7"/>
  <polygon points="707.8,206.5 707.8,205.7 725.8,205.7 725.8,206.5 707.8,206.5"/>
  <polygon points="730.2,228.4 730.2,227.6 748.2,227.6 748.2,228.4 730.2,228.4"/>
  <polygon points="752.6,259.5 752.6,258.8 770.6,258.8 770.6,259.5 752.6,259.5"/>
  <polygon points="775.0,248.3 775.0,247.7 793.0,247.7 793.0,248.3 775.0,248.3"/>
  <polygon points="797.4,263.9 797.4,263.2 815.4,263.2 815.4,263.9 797.4,263.9"/>
  <polygon points="819.8,218.9 819.8,218.2 837.8,218.2 837.8,218.9 819.8,218.9"/>
  <polygon points="842.2,187.5 842.2,186.7 860.2,186.7 860.2,187.5 842.2,187.5"/>
  <polygon points="864.6,170.0 864.6,169.2 882.6,169.2 882.6,170.0 864.6,170.0"/>
  <polygon points="887.0,173.5 887.0,172.6 905.0,172.6 905.0,173.5 887.0,173.5"/>
</g>
<g stroke="#000" stroke-width="0.90" fill="#D97B53"  clip-path="url(#axis_clip)">
  <polygon points="147.8,468.7 147.8,459.1 165.8,459.1 165.8,468.7 147.8,468.7"/>
  <polygon points="170.2,482.7 170.2,477.4 188.2,477.4 188.2,482.7 170.2,482.7"/>
  <polygon points="192.6,490.8 192.6,488.8 210.6,488.8 210.6,490.8 192.6,490.8"/>
  <polygon points="215.0,474.6 215.0,466.5 233.0,466.5 233.0,474.6 215.0,474.6"/>
  <polygon points="237.4,517.6 237.4,494.6 255.4,494.6 255.4,517.6 237.4,517.6"/>
  <polygon points="259.8,491.3 259.8,459.8 277.8,459.8 277.8,491.3 259.8,491.3"/>
  <polygon points="282.2,491.5 282.2,463.4 300.2,463.4 300.2,491.5 282.2,491.5"/>
  <polygon points="304.6,443.5 304.6,398.2 322.6,398.2 322.6,443.5 304.6,443.5"/>
  <polygon points="327.0,416.8 327.0,364.7 345.0,364.7 345.0,416.8 327.0,416.8"/>
  <polygon points="349.4,354.7 349.4,272.1 367.4,272.1 367.4,354.7 349.4,354.7"/>
  <polygon points="371.8,405.2 371.8,352.1 389.8,352.1 389.8,405.2 371.8,405.2"/>
  <polygon points="394.2,420.4 394.2,371.9 412.2,371.9 412.2,420.4 394.2,420.4"/>
  <polygon points="416.6,399.0 416.6,347.8 434.6,347.8 434.6,399.0 416.6,399.0"/>
  <polygon points="439.0,385.7 439.0,335.2 457.0,335.2 457.0,385.7 439.0,385.7"/>
  <polygon points="461.4,321.3 461.4,279.2 479.4,279.2 479.4,321.3 461.4,321.3"/>
  <polygon points="483.8,312.4 483.8,265.2 501.8,265.2 501.8,312.4 483.8,312.4"/>
  <polygon points="506.2,336.8 506.2,308.1 524.2,308.1 524.2,336.8 506.2,336.8"/>
  <polygon points="528.6,325.7 528.6,298.0 546.6,298.0 546.6,325.7 528.6,325.7"/>
  <polygon points="551.0,344.0 551.0,331.4 569.0,331.4 569.0,344.0 551.0,344.0"/>
  <polygon points="573.4,292.3 573.4,213.5 591.4,213.5 591.4,292.3 573.4,292.3"/>
  <polygon points="595.8,247.6 595.8,151.6 613.8,151.6 613.8,247.6 595.8,247.6"/>
  <polygon points="618.2,255.1 618.2,175.2 636.2,175.2 636.2,255.1 618.2,255.1"/>
  <polygon points="640.6,265.2 640.6,202.1 658.6,202.1 658.6,265.2 640.6,265.2"/>
  <polygon points="663.0,251.9 663.0,194.5 681.0,194.5 681.0,251.9 663.0,251.9"/>
  <polygon points="685.4,206.9 685.4,142.9 703.4,142.9 703.4,206.9 685.4,206.9"/>
  <polygon points="707.8,205.7 707.8,169.8 725.8,169.8 725.8,205.7 707.8,205.7"/>
  <polygon points="730.2,227.6 730.2,185.3 748.2,185.3 748.2,227.6 730.2,227.6"/>
  <polygon points="752.6,258.8 752.6,217.7 770.6,217.7 770.6,258.8 752.6,258.8"/>
  <polygon points="775.0,247.7 775.0,209.7 793.0,209.7 793.0,247.7 775.0,247.7"/>
  <polygon points="797.4,263.2 797.4,233.5 815.4,233.5 815.4,263.2 797.4,263.2"/>
  <polygon points="819.8,218.2 819.8,194.6 837.8,194.6 837.8,218.2 819.8,218.2"/>
  <polygon points="842.2,186.7 842.2,174.2 860.2,174.2 860.2,186.7 842.2,186.7"/>
  <polygon points="864.6,169.2 864.6,142.9 882.6,142.9 882.6,169.2 864.6,169.2"/>
  <polygon points="887.0,172.6 887.0,142.9 905.0,142.9 905.0,172.6 887.0,172.6"/>
</g>
<g stroke="#000" stroke-width="0.90" fill="#3988BD"  clip-path="url(#axis_clip)">
  <polygon points="147.8,459.1 147.8,142.9 165.8,142.9 165.8,459.1 147.8,459.1"/>
  <polygon points="170.2,477.4 170.2,142.9 188.2,142.9 188.2,477.4 170.2,477.4"/>
  <polygon points="192.6,488.8 192.6,142.9 210.6,142.9 210.6,488.8 192.6,488.8"/>
  <polygon points="215.0,466.5 215.0,142.9 233.0,142.9 233.0,466.5 215.0,466.5"/>
  <polygon points="237.4,494.6 237.4,142.9 255.4,142.9 255.4,494.6 237.4,494.6"/>
  <polygon points="259.8,459.8 259.8,142.9 277.8,142.9 277.8,459.8 259.8,459.8"/>
  <polygon points="282.2,463.4 282.2,142.9 300.2,142.9 300.2,463.4 282.2,463.4"/>
  <polygon points="304.6,398.2 304.6,142.9 322.6,142.9 322.6,398.2 304.6,398.2"/>
  <polygon points="327.0,364.7 327.0,142.9 345.0,142.9 345.0,364.7 327.0,364.7"/>
  <polygon points="349.4,272.1 349.4,142.9 367.4,142.9 367.4,272.1 349.4,272.1"/>
  <polygon points="371.8,352.1 371.8,142.9 389.8,142.9 389.8,352.1 371.8,352.1"/>
  <polygon points="394.2,371.9 394.2,142.9 412.2,142.9 412.2,371.9 394.2,371.9"/>
  <polygon points="416.6,347.8 416.6,142.9 434.6,142.9 434.6,347.8 416.6,347.8"/>
  <polygon points="439.0,335.2 439.0,142.9 457.0,142.9 457.0,335.2 439.0,335.2"/>
  <polygon points="461.4,279.2 461.4,142.9 479.4,142.9 479.4,279.2 461.4,279.2"/>
  <polygon points="483.8,265.2 483.8,142.9 501.8,142.9 501.8,265.2 483.8,265.2"/>
  <polygon points="506.2,308.1 506.2,142.9 524.2,142.9 524.2,308.1 506.2,308.1"/>
  <polygon points="528.6,298.0 528.6,142.9 546.6,142.9 546.6,298.0 528.6,298.0"/>
  <polygon points="551.0,331.4 551.0,142.9 569.0,142.9 569.0,331.4 551.0,331.4"/>
  <polygon points="573.4,213.5 573.4,142.9 591.4,142.9 591.4,213.5 573.4,213.5"/>
  <polygon points="595.8,151.6 595.8,142.9 613.8,142.9 613.8,151.6 595.8,151.6"/>
  <polygon points="618.2,175.2 618.2,142.9 636.2,142.9 636.2,175.2 618.2,175.2"/>
  <polygon points="640.6,202.1 640.6,142.9 658.6,142.9 658.6,202.1 640.6,202.1"/>
  <polygon points="663.0,194.5 663.0,142.9 681.0,142.9 681.0,194.5 663.0,194.5"/>
  <polygon points="707.8,169.8 707.8,142.9 725.8,142.9 725.8,169.8 707.8,169.8"/>
  <polygon points="730.2,185.3 730.2,142.9 748.2,142.9 748.2,185.3 730.2,185.3"/>
  <polygon points="752.6,217.7 752.6,142.9 770.6,142.9 770.6,217.7 752.6,217.7"/>
  <polygon points="775.0,209.7 775.0,142.9 793.0,142.9 793.0,209.7 775.0,209.7"/>
  <polygon points="797.4,233.5 797.4,142.9 815.4,142.9 815.4,233.5 797.4,233.5"/>
  <polygon points="819.8,194.6 819.8,142.9 837.8,142.9 837.8,194.6 819.8,194.6"/>
  <polygon points="842.2,174.2 842.2,142.9 860.2,142.9 860.2,174.2 842.2,174.2"/>
</g>
<text transform="translate(145.6,47.2)" dy="0.0" font-size="27.00" fill="#808080" stroke="none">Emissions and removals on forest land: Latvia</text>
<text transform="translate(130.0,81.6)" dy="8.1" font-size="27.00" fill="#808080" stroke="none" text-anchor="end">CO<tspan dy="0.2em"><tspan style="font-size:70%">2</tspan></tspan><tspan dy="-0.2em"></tspan></text>
<polyline class="pl" points="156.8,455.3 179.2,468.9 201.6,477.0 224.0,460.8 246.4,503.8 268.8,477.5 291.2,477.7 313.6,429.8 336.0,403.1 358.4,341.0 380.8,391.5 403.2,406.8 425.6,385.5 448.0,372.2 470.4,307.8 492.8,298.9 515.2,323.4 537.6,312.4 560.0,330.7 582.4,279.2 604.8,234.4 627.2,241.9 649.6,252.1 672.0,238.9 694.4,164.1 716.8,193.1 739.2,215.0 761.6,246.2 784.0,235.0 806.4,250.7 828.8,205.8 851.2,174.4 873.6,137.0 896.0,147.7" stroke="#000" stroke-width="5.40" fill="none" clip-path="url(#axis_clip)"/>
<g class="pl" fill="#FFF" stroke="#000" stroke-width="0.900">
  <circle cx="179.2" cy="468.9" r="2.2" />
  <circle cx="201.6" cy="477.0" r="2.2" />
  <circle cx="224.0" cy="460.8" r="2.2" />
  <circle cx="246.4" cy="503.8" r="2.2" />
  <circle cx="268.8" cy="477.5" r="2.2" />
  <circle cx="291.2" cy="477.7" r="2.2" />
  <circle cx="313.6" cy="429.8" r="2.2" />
  <circle cx="336.0" cy="403.1" r="2.2" />
  <circle cx="358.4" cy="341.0" r="2.2" />
  <circle cx="403.2" cy="406.8" r="2.2" />
  <circle cx="425.6" cy="385.5" r="2.2" />
  <circle cx="448.0" cy="372.2" r="2.2" />
  <circle cx="470.4" cy="307.8" r="2.2" />
  <circle cx="492.8" cy="298.9" r="2.2" />
  <circle cx="515.2" cy="323.4" r="2.2" />
  <circle cx="537.6" cy="312.4" r="2.2" />
  <circle cx="560.0" cy="330.7" r="2.2" />
  <circle cx="582.4" cy="279.2" r="2.2" />
  <circle cx="627.2" cy="241.9" r="2.2" />
  <circle cx="649.6" cy="252.1" r="2.2" />
  <circle cx="672.0" cy="238.9" r="2.2" />
  <circle cx="694.4" cy="164.1" r="2.2" />
  <circle cx="716.8" cy="193.1" r="2.2" />
  <circle cx="739.2" cy="215.0" r="2.2" />
  <circle cx="761.6" cy="246.2" r="2.2" />
  <circle cx="784.0" cy="235.0" r="2.2" />
  <circle cx="806.4" cy="250.7" r="2.2" />
  <circle cx="851.2" cy="174.4" r="2.2" />
  <circle cx="873.6" cy="137.0" r="2.2" />
  <circle cx="896.0" cy="147.7" r="2.2" />
</g>
<g class="pl" fill="#FFF" stroke="#000" stroke-width="0.900">
  <circle cx="156.8" cy="455.3" r="5.4" />
  <circle cx="380.8" cy="391.5" r="5.4" />
  <circle cx="604.8" cy="234.4" r="5.4" />
  <circle cx="828.8" cy="205.8" r="5.4" />
</g>
<text transform="translate(945.6,154.4)" dy="6.5" font-size="21.60" fill="#000" stroke="none">Total (net)</text>
<text transform="translate(945.6,133.7)" dy="6.5" font-size="21.60" fill="#3988BD" stroke="none">Living biomass (net)</text>
<text transform="translate(945.6,113.0)" dy="6.5" font-size="21.60" fill="#834B8E" stroke="none">Mineral Soils (net)</text>
<text transform="translate(945.6,92.2)" dy="6.5" font-size="21.60" fill="#87AC55" stroke="none">Organic Soils (net)</text>
<text transform="translate(945.6,175.1)" dy="6.5" font-size="21.60" fill="#D97B53" stroke="none">Dead wood (net)</text>
<text transform="translate(945.6,195.8)" dy="6.5" font-size="21.60" fill="#D5AF54" stroke="none">Litter (net)</text>
<polyline class="pl" points="910.8,147.7 912.4,147.8 913.8,147.8 915.2,147.9 916.4,148.1 917.6,148.3 918.8,148.5 919.8,148.7 920.8,149.0 921.7,149.3 922.7,149.6 923.5,149.9 924.4,150.2 925.2,150.6 926.0,150.9 926.8,151.2 927.6,151.6 928.4,151.9 929.3,152.3 930.1,152.6 931.1,152.9 932.0,153.2 933.0,153.4 934.0,153.7 935.2,153.9 936.4,154.1 937.6,154.2 939.0,154.3 940.4,154.4 942.0,154.4" stroke="#000" stroke-width="0.90" stroke-opacity="1.00" fill="none" />
<polyline class="pl" points="910.8,135.4 912.4,135.4 913.8,135.4 915.2,135.4 916.4,135.3 917.6,135.3 918.8,135.2 919.8,135.2 920.8,135.1 921.7,135.0 922.7,135.0 923.5,134.9 924.4,134.8 925.2,134.7 926.0,134.6 926.8,134.5 927.6,134.4 928.4,134.3 929.3,134.2 930.1,134.2 931.1,134.1 932.0,134.0 933.0,133.9 934.0,133.9 935.2,133.8 936.4,133.8 937.6,133.7 939.0,133.7 940.4,133.7 942.0,133.7" stroke="#3988BD" stroke-width="0.90" stroke-opacity="1.00" fill="none" />
<polyline class="pl" points="910.8,127.9 912.4,127.8 913.8,127.7 915.2,127.4 916.4,127.1 917.6,126.7 918.8,126.2 919.8,125.7 920.8,125.1 921.7,124.5 922.7,123.8 923.5,123.1 924.4,122.3 925.2,121.6 926.0,120.8 926.8,120.0 927.6,119.3 928.4,118.5 929.3,117.8 930.1,117.1 931.1,116.4 932.0,115.7 933.0,115.1 934.0,114.6 935.2,114.1 936.4,113.7 937.6,113.4 939.0,113.2 940.4,113.0 942.0,113.0" stroke="#834B8E" stroke-width="0.90" stroke-opacity="1.00" fill="none" />
<polyline class="pl" points="910.8,122.4 912.4,122.3 913.8,122.0 915.2,121.5 916.4,120.8 917.6,120.0 918.8,119.1 919.8,118.0 920.8,116.8 921.7,115.5 922.7,114.1 923.5,112.7 924.4,111.2 925.2,109.6 926.0,108.1 926.8,106.5 927.6,105.0 928.4,103.5 929.3,102.0 930.1,100.5 931.1,99.1 932.0,97.9 933.0,96.7 934.0,95.6 935.2,94.6 936.4,93.8 937.6,93.1 939.0,92.6 940.4,92.3 942.0,92.2" stroke="#87AC55" stroke-width="0.90" stroke-opacity="1.00" fill="none" />
<polyline class="pl" points="910.8,157.7 912.4,157.8 913.8,158.0 915.2,158.3 916.4,158.6 917.6,159.1 918.8,159.7 919.8,160.3 920.8,161.0 921.7,161.7 922.7,162.5 923.5,163.3 924.4,164.2 925.2,165.1 926.0,166.0 926.8,166.9 927.6,167.8 928.4,168.7 929.3,169.5 930.1,170.3 931.1,171.1 932.0,171.9 933.0,172.6 934.0,173.2 935.2,173.8 936.4,174.2 937.6,174.6 939.0,174.9 940.4,175.1 942.0,175.1" stroke="#D97B53" stroke-width="0.90" stroke-opacity="1.00" fill="none" />
<polyline class="pl" points="910.8,173.1 912.4,173.1 913.8,173.4 915.2,173.7 916.4,174.2 917.6,174.9 918.8,175.6 919.8,176.4 920.8,177.3 921.7,178.3 922.7,179.3 923.5,180.4 924.4,181.5 925.2,182.7 926.0,183.9 926.8,185.0 927.6,186.2 928.4,187.4 929.3,188.5 930.1,189.6 931.1,190.6 932.0,191.6 933.0,192.5 934.0,193.3 935.2,194.1 936.4,194.7 937.6,195.2 939.0,195.5 940.4,195.8 942.0,195.8" stroke="#D5AF54" stroke-width="0.90" stroke-opacity="1.00" fill="none" />
<text transform="translate(160.0,666.1)" font-size="19.80" font-family="Helvetica" fill="#BFBFBF" stroke="none" xml:space="preserve">CICERO   &#9679;   Data: UNFCCC (2025)</text>
<g>
  <rect x="123.0" y="651.4" width="34" height="17" fill="#FFF" stroke="none" opacity="0.01"/>
  <g transform="translate(124.0,652.4) scale(0.24)">
  <g><circle fill="#FFF" cx="37.79" cy="28.5" r="28.84"/>
     <circle fill="none" cx="37.79" cy="28.5" r="28.84" stroke="#BFBFBF" stroke-width="5.5"/>
     <path fill="#BFBFBF" d="M37.16,23.19 l-4.29,2.23c-0.458-0.951-1.02-1.62-1.69-2c-0.667-0.38-1.29-0.571-1.86-0.571c-2.86,0-4.29,1.89-4.29,5.66 c0,1.71,0.36,3.08,1.09,4.11c0.724,1.03,1.79,1.54,3.2,1.54c1.87,0,3.18-0.915,3.94-2.74l3.94,2 c-0.838,1.56-2,2.79-3.49,3.69c-1.48,0.896-3.12,1.34-4.91,1.34c-2.86,0-5.16-0.875-6.92-2.63 c-1.75-1.75-2.63-4.19-2.63-7.31c0-3.05,0.886-5.47,2.66-7.26c1.77-1.79,4.01-2.69,6.72-2.69 C32.6,18.56,35.44,20.1,37.16,23.19z
              M55.61,23.19l-4.23,2.23c-0.457-0.951-1.02-1.62-1.69-2 c-0.668-0.38-1.31-0.571-1.91-0.571c-2.86,0-4.29,1.89-4.29,5.66c0,1.71,0.363,3.08,1.09,4.11 c0.723,1.03,1.79,1.54,3.2,1.54c1.87,0,3.18-0.915,3.94-2.74l4,2c-0.875,1.56-2.06,2.79-3.54,3.69 c-1.49,0.9-3.11,1.34-4.86,1.34c-2.9,0-5.21-0.875-6.94-2.63c-1.74-1.75-2.6-4.19-2.6-7.31 c0-3.05,0.885-5.47,2.66-7.26c1.77-1.79,4.01-2.69,6.71-2.69C51.12,18.56,53.944,20.1,55.61,23.19z"/>
  </g></g>
  <g transform="translate(140.2,652.4) scale(0.24)">
  <g><circle fill="#FFF" cx="37.79" cy="28.5" r="28.84"/>
     <circle fill="none" cx="37.79" cy="28.5" r="28.84" stroke="#BFBFBF" stroke-width="5.5"/>
     <path fill="#BFBFBF" d="M46.129,20.557v13.085h-3.656v15.542h-9.944V33.643h-3.656V20.557 c0-0.572,0.2-1.057,0.599-1.457c0.401-0.399,0.887-0.6,1.457-0.6h13.144c0.533,0,1.01,0.2,1.428,0.6 C45.918,19.5,46.129,19.986,46.129,20.557z
              M33.042,12.329c0-3.008,1.485-4.514,4.458-4.514s4.457,1.504,4.457,4.514 c0,2.971-1.486,4.457-4.457,4.457S33.042,15.3,33.042,12.329z"/>
  </g></g>
</g>
</g>
</svg>
