<svg version="1.1" xmlns="http://www.w3.org/2000/svg" xmlns:xlink="http://www.w3.org/1999/xlink" width="100%" height="100%" viewBox="0 0 1200.000 674.916">
<title>Global Fossil CO2 Emissions</title>
<style type="text/css">
  #main {font-family:Helvetica,Arial,sans-serif; font-size:27.00px;
         fill-opacity:1; fill:#000000; stroke:none; stroke-linejoin:round; stroke-linecap:round; stroke-width:1.00;}
  .marker {stroke-opacity:0;fill-opacity:0;}
  .marker:hover {stroke-opacity:0.5; fill-opacity:1;}
  .ticklabel {font-size:27.00px;fill:#808080;stroke:none;font-family:Helvetica}
  .ytl {text-anchor:end;}
  .dp1 {pointer-events:none;font-size:70%;text-anchor:middle;fill:#000000;}
  .dp2 {pointer-events:none;font-size:70%;text-anchor:middle;fill:#FFFFFF;}
  .numtip {pointer-events:none;}
  .cc {opacity:0.25;}
.dl_fe {background-color:#FDFFDF;display:flex;margin:auto;align-items:center}
.dl_fe_p {font-size:20px;text-align:center;margin:3px}
.dl_el {display:none;pointer-events:none;}
.cc:hover + .dl_el {display:block;}
text:hover + .dl_el {display:block;}
</style>
<defs>
  <clipPath id="axis_clip"><rect x="145.8" y="54.2" width="761.2" height="532.8" /></clipPath>
  <path id="tick_y" d="M 145.600,0 h -6.000" stroke="#808080" stroke-width="0.90"/>
  <path id="tick_x" d="M 0,587.177 v 6.000" stroke="#808080" stroke-width="0.90"/>
</defs>
<g id="main">
<text class="ticklabel xtl" transform="translate(162.3,629.0)" text-anchor="middle">1960</text>
<text class="ticklabel xtl" transform="translate(273.5,629.0)" text-anchor="middle">1970</text>
<text class="ticklabel xtl" transform="translate(384.6,629.0)" text-anchor="middle">1980</text>
<text class="ticklabel xtl" transform="translate(495.8,629.0)" text-anchor="middle">1990</text>
<text class="ticklabel xtl" transform="translate(607.0,629.0)" text-anchor="middle">2000</text>
<text class="ticklabel xtl" transform="translate(718.2,629.0)" text-anchor="middle">2010</text>
<text class="ticklabel xtl" transform="translate(873.8,629.0)" text-anchor="middle">2024</text>
<text class="ticklabel ytl" transform="translate(128.8,595.3)">0</text>
<text class="ticklabel ytl" transform="translate(128.8,462.0)">10</text>
<text class="ticklabel ytl" transform="translate(128.8,328.7)">20</text>
<text class="ticklabel ytl" transform="translate(128.8,195.4)">30</text>
<text class="ticklabel ytl" transform="translate(128.8,62.1)">40 Gt</text>
<polyline class="pl" points="145.6,187.3 907.2,187.3" stroke="#E6E6E6" stroke-width="0.90" stroke-opacity="1.00" fill="none" clip-path="url(#axis_clip)"/>
<polyline class="pl" points="145.6,320.6 907.2,320.6" stroke="#E6E6E6" stroke-width="0.90" stroke-opacity="1.00" fill="none" clip-path="url(#axis_clip)"/>
<polyline class="pl" points="145.6,453.9 907.2,453.9" stroke="#E6E6E6" stroke-width="0.90" stroke-opacity="1.00" fill="none" clip-path="url(#axis_clip)"/>
<g stroke="none" stroke-width="0.9000"  clip-path="url(#axis_clip)">
  <polygon points="151.2,463.9 162.3,456.5 173.4,456.1 184.5,451.6 195.6,444.3 206.8,436.6 217.9,429.9 229.0,422.2 240.1,417.0 251.2,407.7 262.3,395.8 273.5,380.0 284.6,371.6 295.7,361.6 306.8,349.7 317.9,350.8 329.1,350.2 340.2,337.2 351.3,330.2 362.4,322.4 373.5,314.9 384.6,316.6 395.8,323.2 406.9,325.4 418.0,323.7 429.1,314.6 440.2,305.4 451.4,301.3 462.5,292.5 473.6,281.0 484.7,276.8 495.8,271.9 506.9,265.7 518.1,275.0 529.2,272.0 540.3,268.8 551.4,261.5 562.5,251.5 573.7,249.6 584.8,251.0 595.9,243.5 607.0,234.4 618.1,231.8 629.2,224.0 640.4,204.9 651.5,191.8 662.6,178.4 673.7,164.7 684.8,152.5 696.0,145.2 707.1,153.0 718.2,128.0 729.3,112.6 740.4,106.0 751.5,102.2 762.7,100.5 773.8,101.2 784.9,101.1 796.0,93.3 807.1,83.3 818.3,78.2 829.4,106.2 840.5,80.5 851.6,76.4 862.7,69.2 873.8,58.3 873.8,118.7 862.7,118.5 851.6,125.0 840.5,128.8 829.4,152.0 818.3,126.7 807.1,131.3 796.0,140.3 784.9,147.4 773.8,147.5 762.7,146.8 751.5,148.4 740.4,151.8 729.3,157.8 718.2,171.8 707.1,194.3 696.0,187.3 684.8,193.9 673.7,204.9 662.6,217.3 651.5,229.4 640.4,241.3 629.2,258.6 618.1,265.7 607.0,268.0 595.9,276.2 584.8,283.0 573.7,281.7 562.5,283.4 551.4,292.5 540.3,299.2 529.2,302.0 518.1,304.7 506.9,296.3 495.8,302.0 484.7,306.3 473.6,310.2 462.5,320.6 451.4,328.5 440.2,332.2 429.1,340.6 418.0,348.8 406.9,350.3 395.8,348.3 384.6,342.4 373.5,340.8 362.4,347.6 351.3,354.7 340.2,361.0 329.1,372.8 317.9,373.3 306.8,372.3 295.7,383.1 284.6,392.1 273.5,399.7 262.3,414.1 251.2,424.8 240.1,433.2 229.0,437.9 217.9,444.8 206.8,451.0 195.6,457.9 184.5,464.5 173.4,468.6 162.3,468.9 151.2,475.6" fill="#F2F2F2"/>
</g>
<g stroke="none" stroke-width="0.9000"  clip-path="url(#axis_clip)">
  <polygon points="862.7,69.2 873.8,58.3 873.8,118.7 862.7,118.5" fill="#F2D9D9"/>
</g>
<polyline class="pl" points="151.2,463.9 162.3,456.5 173.4,456.1 184.5,451.6 195.6,444.3 206.8,436.6 217.9,429.9 229.0,422.2 240.1,417.0 251.2,407.7 262.3,395.8 273.5,380.0 284.6,371.6 295.7,361.6 306.8,349.7 317.9,350.8 329.1,350.2 340.2,337.2 351.3,330.2 362.4,322.4 373.5,314.9 384.6,316.6 395.8,323.2 406.9,325.4 418.0,323.7 429.1,314.6 440.2,305.4 451.4,301.3 462.5,292.5 473.6,281.0 484.7,276.8 495.8,271.9 506.9,265.7 518.1,275.0 529.2,272.0 540.3,268.8 551.4,261.5 562.5,251.5 573.7,249.6 584.8,251.0 595.9,243.5 607.0,234.4 618.1,231.8 629.2,224.0 640.4,204.9 651.5,191.8 662.6,178.4 673.7,164.7 684.8,152.5 696.0,145.2 707.1,153.0 718.2,128.0 729.3,112.6 740.4,106.0 751.5,102.2 762.7,100.5 773.8,101.2 784.9,101.1 796.0,93.3 807.1,83.3 818.3,78.2 829.4,106.2 840.5,80.5 851.6,76.4 862.7,69.2 873.8,58.3" stroke="#D9D9D9" stroke-width="0.90" stroke-opacity="1.00" fill="none" clip-path="url(#axis_clip)"/>
<polyline class="pl" points="151.2,475.6 162.3,468.9 173.4,468.6 184.5,464.5 195.6,457.9 206.8,451.0 217.9,444.8 229.0,437.9 240.1,433.2 251.2,424.8 262.3,414.1 273.5,399.7 284.6,392.1 295.7,383.1 306.8,372.3 317.9,373.3 329.1,372.8 340.2,361.0 351.3,354.7 362.4,347.6 373.5,340.8 384.6,342.4 395.8,348.3 406.9,350.3 418.0,348.8 429.1,340.6 440.2,332.2 451.4,328.5 462.5,320.6 473.6,310.2 484.7,306.3 495.8,302.0 506.9,296.3 518.1,304.7 529.2,302.0 540.3,299.2 551.4,292.5 562.5,283.4 573.7,281.7 584.8,283.0 595.9,276.2 607.0,268.0 618.1,265.7 629.2,258.6 640.4,241.3 651.5,229.4 662.6,217.3 673.7,204.9 684.8,193.9 696.0,187.3 707.1,194.3 718.2,171.8 729.3,157.8 740.4,151.8 751.5,148.4 762.7,146.8 773.8,147.5 784.9,147.4 796.0,140.3 807.1,131.3 818.3,126.7 829.4,152.0 840.5,128.8 851.6,125.0 862.7,118.5 873.8,118.7" stroke="#D9D9D9" stroke-width="0.90" stroke-opacity="1.00" fill="none" clip-path="url(#axis_clip)"/>
<polyline class="pl" points="862.7,93.9 873.8,88.6" stroke="#000" stroke-width="5.40" stroke-opacity="1.00" fill="none" clip-path="url(#axis_clip)"/>
<g class="pl" fill="#F00" stroke="#000" stroke-width="2.700">
  <circle cx="873.8" cy="88.6" r="8.1" />
</g>
<polyline class="pl" points="151.2,469.8 162.3,462.7 173.4,462.4 184.5,458.0 195.6,451.1 206.8,443.8 217.9,437.4 229.0,430.1 240.1,425.1 251.2,416.3 262.3,404.9 273.5,389.9 284.6,381.9 295.7,372.4 306.8,361.0 317.9,362.0 329.1,361.5 340.2,349.1 351.3,342.4 362.4,335.0 373.5,327.8 384.6,329.5 395.8,335.8 406.9,337.8 418.0,336.3 429.1,327.6 440.2,318.8 451.4,314.9 462.5,306.5 473.6,295.6 484.7,291.5 495.8,286.9 506.9,281.0 518.1,289.8 529.2,287.0 540.3,284.0 551.4,277.0 562.5,267.4 573.7,265.7 584.8,267.0 595.9,259.8 607.0,251.2 618.1,248.7 629.2,241.3 640.4,223.1 651.5,210.6 662.6,197.9 673.7,184.8 684.8,173.2 696.0,166.2 707.1,173.6 718.2,149.9 729.3,135.2 740.4,128.9 751.5,125.3 762.7,123.7 773.8,124.3 784.9,124.3 796.0,116.8 807.1,107.3 818.3,102.4 829.4,129.1 840.5,104.7 851.6,100.7 862.7,93.9" stroke="#000" stroke-width="5.40" stroke-opacity="1.00" fill="none" clip-path="url(#axis_clip)"/>
<g class="pl" fill="#FFF" stroke="#000" stroke-width="0.900">
  <circle cx="151.2" cy="469.8" r="2.2" />
  <circle cx="173.4" cy="462.4" r="2.2" />
  <circle cx="184.5" cy="458.0" r="2.2" />
  <circle cx="195.6" cy="451.1" r="2.2" />
  <circle cx="206.8" cy="443.8" r="2.2" />
  <circle cx="217.9" cy="437.4" r="2.2" />
  <circle cx="229.0" cy="430.1" r="2.2" />
  <circle cx="240.1" cy="425.1" r="2.2" />
  <circle cx="251.2" cy="416.3" r="2.2" />
  <circle cx="262.3" cy="404.9" r="2.2" />
  <circle cx="284.6" cy="381.9" r="2.2" />
  <circle cx="295.7" cy="372.4" r="2.2" />
  <circle cx="306.8" cy="361.0" r="2.2" />
  <circle cx="317.9" cy="362.0" r="2.2" />
  <circle cx="329.1" cy="361.5" r="2.2" />
  <circle cx="340.2" cy="349.1" r="2.2" />
  <circle cx="351.3" cy="342.4" r="2.2" />
  <circle cx="362.4" cy="335.0" r="2.2" />
  <circle cx="373.5" cy="327.8" r="2.2" />
  <circle cx="395.8" cy="335.8" r="2.2" />
  <circle cx="406.9" cy="337.8" r="2.2" />
  <circle cx="418.0" cy="336.3" r="2.2" />
  <circle cx="429.1" cy="327.6" r="2.2" />
  <circle cx="440.2" cy="318.8" r="2.2" />
  <circle cx="451.4" cy="314.9" r="2.2" />
  <circle cx="462.5" cy="306.5" r="2.2" />
  <circle cx="473.6" cy="295.6" r="2.2" />
  <circle cx="484.7" cy="291.5" r="2.2" />
  <circle cx="506.9" cy="281.0" r="2.2" />
  <circle cx="518.1" cy="289.8" r="2.2" />
  <circle cx="529.2" cy="287.0" r="2.2" />
  <circle cx="540.3" cy="284.0" r="2.2" />
  <circle cx="551.4" cy="277.0" r="2.2" />
  <circle cx="562.5" cy="267.4" r="2.2" />
  <circle cx="573.7" cy="265.7" r="2.2" />
  <circle cx="584.8" cy="267.0" r="2.2" />
  <circle cx="595.9" cy="259.8" r="2.2" />
  <circle cx="618.1" cy="248.7" r="2.2" />
  <circle cx="629.2" cy="241.3" r="2.2" />
  <circle cx="640.4" cy="223.1" r="2.2" />
  <circle cx="651.5" cy="210.6" r="2.2" />
  <circle cx="662.6" cy="197.9" r="2.2" />
  <circle cx="673.7" cy="184.8" r="2.2" />
  <circle cx="684.8" cy="173.2" r="2.2" />
  <circle cx="696.0" cy="166.2" r="2.2" />
  <circle cx="707.1" cy="173.6" r="2.2" />
  <circle cx="729.3" cy="135.2" r="2.2" />
  <circle cx="740.4" cy="128.9" r="2.2" />
  <circle cx="751.5" cy="125.3" r="2.2" />
  <circle cx="762.7" cy="123.7" r="2.2" />
  <circle cx="773.8" cy="124.3" r="2.2" />
  <circle cx="784.9" cy="124.3" r="2.2" />
  <circle cx="796.0" cy="116.8" r="2.2" />
  <circle cx="807.1" cy="107.3" r="2.2" />
  <circle cx="818.3" cy="102.4" r="2.2" />
  <circle cx="840.5" cy="104.7" r="2.2" />
  <circle cx="851.6" cy="100.7" r="2.2" />
  <circle cx="862.7" cy="93.9" r="2.2" />
</g>
<g class="pl" fill="#FFF" stroke="#000" stroke-width="0.900">
  <circle cx="162.3" cy="462.7" r="5.4" />
  <circle cx="273.5" cy="389.9" r="5.4" />
  <circle cx="384.6" cy="329.5" r="5.4" />
  <circle cx="495.8" cy="286.9" r="5.4" />
  <circle cx="607.0" cy="251.2" r="5.4" />
  <circle cx="718.2" cy="149.9" r="5.4" />
  <circle cx="829.4" cy="129.1" r="5.4" />
</g>
<text transform="translate(145.6,47.2)" dy="0.0" font-size="27.00" fill="#808080" stroke="none">Global Fossil CO<tspan dy="0.2em"><tspan style="font-size:70%">2</tspan></tspan><tspan dy="-0.2em"> </tspan>Emissions</text>
<text transform="translate(130.0,81.6)" dy="8.1" font-size="27.00" fill="#808080" stroke="none" text-anchor="end">CO<tspan dy="0.2em"><tspan style="font-size:70%">2</tspan></tspan><tspan dy="-0.2em"></tspan></text>
<text transform="translate(925.2,88.6)" dy="8.1" font-size="27.00" fill="#000" stroke="none">37.4 Gt CO<tspan dy="0.2em"><tspan style="font-size:70%">2</tspan></tspan><tspan dy="-0.2em"></tspan></text>
<g stroke="none" stroke-width="0.9000"  >
  <polygon points="925.2,118.3 934.8,104.8 944.4,118.3 925.2,118.3" fill="#000"/>
</g>
<text transform="translate(949.2,113.5)" dy="5.4" font-size="18.00" fill="#000" stroke="none">0.8%</text>
<text transform="translate(990.2,113.5)" dy="5.4" font-size="18.00" fill="#000" stroke="none" xml:space="preserve"> (-0.3% to 1.9%)</text>
<text transform="translate(925.2,65.6)" dy="0.0" font-size="18.00" fill="#000" stroke="none">Projection 2024</text>
<polyline class="pl" points="317.9,368.8 317.9,368.9 317.9,369.1 317.9,369.5 318.0,370.1 318.0,370.7 318.0,371.6 318.0,372.5 318.1,373.6 318.2,374.8 318.2,376.1 318.3,377.5 318.5,378.9 318.6,380.5 318.8,382.2 319.0,383.9 319.2,385.7 319.4,387.5 319.7,389.4 320.0,391.4 320.4,393.3 320.8,395.3 321.2,397.4 321.7,399.4 322.2,401.5 322.7,403.6 323.3,405.6 324.0,407.7 324.7,409.7 325.4,411.7 326.2,413.7 327.0,415.6 328.0,417.5 328.9,419.4 330.0,421.2 331.1,422.9 332.2,424.5 333.4,426.1 334.7,427.6 336.1,429.0 337.5,430.3 339.0,431.5 340.6,432.5 342.3,433.5 344.0,434.3 345.8,435.0 347.7,435.5 349.7,435.9 351.8,436.2 353.9,436.3" stroke="#80AD7E" stroke-width="0.90" stroke-opacity="1.00" fill="none" />
<g class="pl" fill="#80AD7E" stroke="none" stroke-width="0.900">
  <circle cx="353.9" cy="436.3" r="3.6" />
</g>
<text transform="translate(365.9,423.5)"  font-size="27.00" fill="#80AD7E" stroke="none">
      <tspan x="0" y="22.5">First</tspan><tspan x="0" y="52.7">Oil crisis</tspan>
    </text>
<polyline class="pl" points="395.8,342.5 395.8,342.6 395.8,342.7 395.8,342.9 395.8,343.1 395.8,343.5 395.8,343.9 395.9,344.4 395.9,344.9 396.0,345.5 396.1,346.2 396.2,346.8 396.3,347.6 396.4,348.4 396.6,349.2 396.8,350.1 397.0,351.0 397.3,351.9 397.5,352.8 397.9,353.8 398.2,354.8 398.6,355.8 399.0,356.8 399.5,357.8 400.0,358.9 400.5,359.9 401.1,360.9 401.8,362.0 402.5,363.0 403.2,364.0 404.0,365.0 404.9,365.9 405.8,366.9 406.8,367.8 407.8,368.7 408.9,369.6 410.0,370.4 411.3,371.2 412.6,371.9 413.9,372.6 415.3,373.3 416.9,373.9 418.4,374.4 420.1,374.9 421.8,375.3 423.6,375.6 425.5,375.9 427.5,376.1 429.6,376.2 431.8,376.3" stroke="#80AD7E" stroke-width="0.90" stroke-opacity="1.00" fill="none" />
<g class="pl" fill="#80AD7E" stroke="none" stroke-width="0.900">
  <circle cx="431.8" cy="376.3" r="3.6" />
</g>
<text transform="translate(443.8,363.4)"  font-size="27.00" fill="#80AD7E" stroke="none">
      <tspan x="0" y="22.5">Second</tspan><tspan x="0" y="52.7">Oil crisis</tspan>
    </text>
<polyline class="pl" points="518.1,296.6 518.1,296.6 518.1,296.7 518.1,296.9 518.1,297.2 518.1,297.6 518.1,298.0 518.2,298.4 518.2,299.0 518.3,299.6 518.4,300.2 518.5,300.9 518.6,301.7 518.7,302.4 518.9,303.3 519.1,304.1 519.3,305.0 519.6,305.9 519.8,306.9 520.2,307.9 520.5,308.9 520.9,309.9 521.3,310.9 521.8,311.9 522.3,312.9 522.8,314.0 523.4,315.0 524.1,316.0 524.8,317.0 525.5,318.0 526.3,319.0 527.2,320.0 528.1,321.0 529.1,321.9 530.1,322.8 531.2,323.6 532.3,324.5 533.6,325.2 534.9,326.0 536.2,326.7 537.6,327.3 539.2,327.9 540.7,328.5 542.4,328.9 544.1,329.3 545.9,329.7 547.8,330.0 549.8,330.2 551.9,330.3 554.1,330.3" stroke="#80AD7E" stroke-width="0.90" stroke-opacity="1.00" fill="none" />
<g class="pl" fill="#80AD7E" stroke="none" stroke-width="0.900">
  <circle cx="554.1" cy="330.3" r="3.6" />
</g>
<text transform="translate(566.1,317.5)"  font-size="27.00" fill="#80AD7E" stroke="none">
      <tspan x="0" y="22.5">Dissolution of</tspan><tspan x="0" y="52.7">Soviet Union</tspan>
    </text>
<g stroke="none" stroke-width="0.9000"  >
  <polygon points="566.1,382.3 575.7,395.8 585.3,382.3 566.1,382.3" fill="#80AD7E"/>
</g>
<text transform="translate(590.1,391.0)" dy="5.4" font-size="18.00" fill="#80AD7E" stroke="none">3.1%</text>
<polyline class="pl" points="707.1,180.4 707.1,180.4 707.1,180.6 707.1,180.8 707.1,181.0 707.1,181.4 707.1,181.8 707.2,182.3 707.2,182.8 707.3,183.4 707.4,184.0 707.5,184.7 707.6,185.5 707.7,186.3 707.9,187.1 708.1,187.9 708.3,188.8 708.6,189.8 708.9,190.7 709.2,191.7 709.5,192.7 709.9,193.7 710.3,194.7 710.8,195.7 711.3,196.8 711.9,197.8 712.4,198.8 713.1,199.8 713.8,200.9 714.5,201.9 715.3,202.9 716.2,203.8 717.1,204.8 718.1,205.7 719.1,206.6 720.2,207.5 721.3,208.3 722.6,209.1 723.9,209.8 725.2,210.5 726.7,211.1 728.2,211.7 729.7,212.3 731.4,212.7 733.1,213.2 735.0,213.5 736.9,213.8 738.8,214.0 740.9,214.1 743.1,214.1" stroke="#80AD7E" stroke-width="0.90" stroke-opacity="1.00" fill="none" />
<g class="pl" fill="#80AD7E" stroke="none" stroke-width="0.900">
  <circle cx="743.1" cy="214.1" r="3.6" />
</g>
<text transform="translate(755.1,201.3)"  font-size="27.00" fill="#80AD7E" stroke="none">
      <tspan x="0" y="22.5">Global</tspan><tspan x="0" y="52.7">financial</tspan><tspan x="0" y="82.9">crisis</tspan>
    </text>
<g stroke="none" stroke-width="0.9000"  >
  <polygon points="755.1,298.5 764.7,312.0 774.3,298.5 755.1,298.5" fill="#80AD7E"/>
</g>
<text transform="translate(779.1,307.2)" dy="5.4" font-size="18.00" fill="#80AD7E" stroke="none">1.5%</text>
<polyline class="pl" points="829.4,139.2 829.4,139.3 829.4,139.5 829.4,139.9 829.4,140.5 829.4,141.1 829.4,142.0 829.5,142.9 829.5,144.0 829.6,145.2 829.7,146.5 829.8,147.9 829.9,149.3 830.0,150.9 830.2,152.6 830.4,154.3 830.6,156.1 830.9,157.9 831.2,159.8 831.5,161.8 831.8,163.7 832.2,165.7 832.6,167.8 833.1,169.8 833.6,171.9 834.2,174.0 834.8,176.0 835.4,178.1 836.1,180.1 836.8,182.1 837.6,184.1 838.5,186.0 839.4,187.9 840.4,189.8 841.4,191.6 842.5,193.3 843.6,194.9 844.9,196.5 846.2,198.0 847.5,199.4 849.0,200.7 850.5,201.9 852.0,202.9 853.7,203.9 855.4,204.7 857.3,205.4 859.2,205.9 861.1,206.3 863.2,206.6 865.4,206.7" stroke="#80AD7E" stroke-width="0.90" stroke-opacity="1.00" fill="none" />
<g class="pl" fill="#80AD7E" stroke="none" stroke-width="0.900">
  <circle cx="865.4" cy="206.7" r="3.6" />
</g>
<text transform="translate(877.4,193.8)"  font-size="27.00" fill="#80AD7E" stroke="none">
      <tspan x="0" y="22.5">COVID-19</tspan><tspan x="0" y="52.7">pandemic</tspan>
    </text>
<g stroke="none" stroke-width="0.9000"  >
  <polygon points="877.4,258.6 887.0,272.1 896.6,258.6 877.4,258.6" fill="#80AD7E"/>
</g>
<text transform="translate(901.4,267.4)" dy="5.4" font-size="18.00" fill="#80AD7E" stroke="none">5.7%</text>
<text transform="translate(873.8,627.7)" dy="18.0" font-size="18.00" fill="#808080" stroke="none" text-anchor="middle">projected</text>
<text transform="translate(160.2,666.1)" font-size="19.80" font-family="Helvetica" fill="#BFBFBF" stroke="none" xml:space="preserve">Global Carbon Project   &#9679;   Includes cement carbonation sink</text>
<use xlink:href="#tick_x" transform="translate(162.3,0)"/>
<use xlink:href="#tick_x" transform="translate(273.5,0)"/>
<use xlink:href="#tick_x" transform="translate(384.6,0)"/>
<use xlink:href="#tick_x" transform="translate(495.8,0)"/>
<use xlink:href="#tick_x" transform="translate(607.0,0)"/>
<use xlink:href="#tick_x" transform="translate(718.2,0)"/>
<use xlink:href="#tick_x" transform="translate(873.8,0)"/>
<use xlink:href="#tick_y" transform="translate(0,587.2)"/>
<use xlink:href="#tick_y" transform="translate(0,453.9)"/>
<use xlink:href="#tick_y" transform="translate(0,320.6)"/>
<use xlink:href="#tick_y" transform="translate(0,187.3)"/>
<use xlink:href="#tick_y" transform="translate(0,54.0)"/>
<polyline points="145.6,53.993 145.6,587.177 907.2,587.177" stroke="#808080" stroke-width="0.90" fill="none"/>
<g>
  <rect x="123.0" y="651.4" width="34" height="17" fill="#FFF" stroke="none"/>
  <g transform="translate(124.0,652.4) scale(0.24)">
  <g><circle fill="#FFF" cx="37.79" cy="28.5" r="28.84"/>
     <circle fill="none" cx="37.79" cy="28.5" r="28.84" stroke="#BFBFBF" stroke-width="5.5"/>
     <path fill="#BFBFBF" d="M37.16,23.19 l-4.29,2.23c-0.458-0.951-1.02-1.62-1.69-2c-0.667-0.38-1.29-0.571-1.86-0.571c-2.86,0-4.29,1.89-4.29,5.66 c0,1.71,0.36,3.08,1.09,4.11c0.724,1.03,1.79,1.54,3.2,1.54c1.87,0,3.18-0.915,3.94-2.74l3.94,2 c-0.838,1.56-2,2.79-3.49,3.69c-1.48,0.896-3.12,1.34-4.91,1.34c-2.86,0-5.16-0.875-6.92-2.63 c-1.75-1.75-2.63-4.19-2.63-7.31c0-3.05,0.886-5.47,2.66-7.26c1.77-1.79,4.01-2.69,6.72-2.69 C32.6,18.56,35.44,20.1,37.16,23.19z
              M55.61,23.19l-4.23,2.23c-0.457-0.951-1.02-1.62-1.69-2 c-0.668-0.38-1.31-0.571-1.91-0.571c-2.86,0-4.29,1.89-4.29,5.66c0,1.71,0.363,3.08,1.09,4.11 c0.723,1.03,1.79,1.54,3.2,1.54c1.87,0,3.18-0.915,3.94-2.74l4,2c-0.875,1.56-2.06,2.79-3.54,3.69 c-1.49,0.9-3.11,1.34-4.86,1.34c-2.9,0-5.21-0.875-6.94-2.63c-1.74-1.75-2.6-4.19-2.6-7.31 c0-3.05,0.885-5.47,2.66-7.26c1.77-1.79,4.01-2.69,6.71-2.69C51.12,18.56,53.944,20.1,55.61,23.19z"/>
  </g></g>
  <g transform="translate(140.2,652.4) scale(0.24)">
  <g><circle fill="#FFF" cx="37.79" cy="28.5" r="28.84"/>
     <circle fill="none" cx="37.79" cy="28.5" r="28.84" stroke="#BFBFBF" stroke-width="5.5"/>
     <path fill="#BFBFBF" d="M46.129,20.557v13.085h-3.656v15.542h-9.944V33.643h-3.656V20.557 c0-0.572,0.2-1.057,0.599-1.457c0.401-0.399,0.887-0.6,1.457-0.6h13.144c0.533,0,1.01,0.2,1.428,0.6 C45.918,19.5,46.129,19.986,46.129,20.557z
              M33.042,12.329c0-3.008,1.485-4.514,4.458-4.514s4.457,1.504,4.457,4.514 c0,2.971-1.486,4.457-4.457,4.457S33.042,15.3,33.042,12.329z"/>
  </g></g>
</g>
</g>
</svg>
