<svg version="1.1" xmlns="http://www.w3.org/2000/svg" xmlns:xlink="http://www.w3.org/1999/xlink" width="100%" height="100%" viewBox="0 0 1200.000 674.916">
<title>Kaya decomposition of emissions growth: India</title>
<style type="text/css">
  #main {font-family:Helvetica,Arial,sans-serif; font-size:27.00px;
         fill-opacity:1; fill:#000000; stroke:none; stroke-linejoin:round; stroke-linecap:round; stroke-width:1.00;}
  .marker {stroke-opacity:0;fill-opacity:0;}
  .marker:hover {stroke-opacity:0.5; fill-opacity:1;}
  .ticklabel {font-size:27.00px;fill:#808080;stroke:none;font-family:Helvetica}
  .ytl {text-anchor:end;}
  .dp1 {pointer-events:none;font-size:70%;text-anchor:middle;fill:#000000;}
  .dp2 {pointer-events:none;font-size:70%;text-anchor:middle;fill:#FFFFFF;}
  .numtip {pointer-events:none;}
  .cc {opacity:0.25;}
.dl_fe {background-color:#FDFFDF;display:flex;margin:auto;align-items:center}
.dl_fe_p {font-size:20px;text-align:center;margin:3px}
.dl_el {display:none;pointer-events:none;}
.cc:hover + .dl_el {display:block;}
text:hover + .dl_el {display:block;}
</style>
<defs>
  <clipPath id="axis_clip"><rect x="145.8" y="54.2" width="761.2" height="532.8" /></clipPath>
  <path id="line_x" d="M 145.600,0 h 761.600" stroke="#262626" stroke-opacity="0.15" stroke-width="1.00"/>
  <path id="tick_y" d="M 145.600,0 h -6.000" stroke="#808080" stroke-width="0.90"/>
  <path id="tick_x" d="M 0,587.177 v 6.000" stroke="#808080" stroke-width="0.90"/>
</defs>
<g id="main">
<use xlink:href="#line_x" transform="translate(0,587.2)"/>
<use xlink:href="#line_x" transform="translate(0,511.0)"/>
<use xlink:href="#line_x" transform="translate(0,434.8)"/>
<use xlink:href="#line_x" transform="translate(0,358.7)"/>
<use xlink:href="#line_x" transform="translate(0,282.5)"/>
<use xlink:href="#line_x" transform="translate(0,206.3)"/>
<use xlink:href="#line_x" transform="translate(0,130.2)"/>
<use xlink:href="#line_x" transform="translate(0,54.0)"/>
<use xlink:href="#tick_y" transform="translate(0,587.2)"/>
<use xlink:href="#tick_y" transform="translate(0,511.0)"/>
<use xlink:href="#tick_y" transform="translate(0,434.8)"/>
<use xlink:href="#tick_y" transform="translate(0,358.7)"/>
<use xlink:href="#tick_y" transform="translate(0,282.5)"/>
<use xlink:href="#tick_y" transform="translate(0,206.3)"/>
<use xlink:href="#tick_y" transform="translate(0,130.2)"/>
<use xlink:href="#tick_y" transform="translate(0,54.0)"/>
<use xlink:href="#tick_x" transform="translate(156.8,0)"/>
<use xlink:href="#tick_x" transform="translate(268.8,0)"/>
<use xlink:href="#tick_x" transform="translate(380.8,0)"/>
<use xlink:href="#tick_x" transform="translate(492.8,0)"/>
<use xlink:href="#tick_x" transform="translate(604.8,0)"/>
<use xlink:href="#tick_x" transform="translate(716.8,0)"/>
<use xlink:href="#tick_x" transform="translate(828.8,0)"/>
<polyline points="145.6,53.993 145.6,587.177 907.2,587.177" stroke="#808080" stroke-width="0.90" fill="none"/>
<text class="ticklabel xtl" transform="translate(156.8,629.0)" text-anchor="middle">1990</text>
<text class="ticklabel xtl" transform="translate(268.8,629.0)" text-anchor="middle">1995</text>
<text class="ticklabel xtl" transform="translate(380.8,629.0)" text-anchor="middle">2000</text>
<text class="ticklabel xtl" transform="translate(492.8,629.0)" text-anchor="middle">2005</text>
<text class="ticklabel xtl" transform="translate(604.8,629.0)" text-anchor="middle">2010</text>
<text class="ticklabel xtl" transform="translate(716.8,629.0)" text-anchor="middle">2015</text>
<text class="ticklabel xtl" transform="translate(828.8,629.0)" text-anchor="middle">2020</text>
<text class="ticklabel ytl" transform="translate(128.8,595.3)">-15</text>
<text class="ticklabel ytl" transform="translate(128.8,519.1)">-10</text>
<text class="ticklabel ytl" transform="translate(128.8,442.9)">-5</text>
<text class="ticklabel ytl" transform="translate(128.8,366.8)">0</text>
<text class="ticklabel ytl" transform="translate(128.8,290.6)">5</text>
<text class="ticklabel ytl" transform="translate(128.8,214.4)">10</text>
<text class="ticklabel ytl" transform="translate(128.8,138.3)">15</text>
<text class="ticklabel ytl" transform="translate(128.8,62.1)">20 %/yr</text>
<g stroke="#000" stroke-width="0.90" fill="#808080"  clip-path="url(#axis_clip)">
  <polygon points="-345.0,224.6 -345.0,228.6 -327.0,228.6 -327.0,224.6 -345.0,224.6"/>
  <polygon points="-277.8,263.9 -277.8,265.2 -259.8,265.2 -259.8,263.9 -277.8,263.9"/>
  <polygon points="-233.0,291.1 -233.0,291.2 -215.0,291.2 -215.0,291.1 -233.0,291.1"/>
  <polygon points="-188.2,206.4 -188.2,207.7 -170.2,207.7 -170.2,206.4 -188.2,206.4"/>
  <polygon points="-165.8,276.3 -165.8,276.4 -147.8,276.4 -147.8,276.3 -165.8,276.3"/>
  <polygon points="-143.4,244.8 -143.4,245.0 -125.4,245.0 -125.4,244.8 -143.4,244.8"/>
  <polygon points="-53.8,194.9 -53.8,196.3 -35.8,196.3 -35.8,194.9 -53.8,194.9"/>
  <polygon points="-9.0,202.9 -9.0,204.8 9.0,204.8 9.0,202.9 -9.0,202.9"/>
  <polygon points="35.8,202.3 35.8,207.3 53.8,207.3 53.8,202.3 35.8,202.3"/>
  <polygon points="58.2,248.6 58.2,251.2 76.2,251.2 76.2,248.6 58.2,248.6"/>
  <polygon points="80.6,254.9 80.6,257.3 98.6,257.3 98.6,254.9 80.6,254.9"/>
  <polygon points="103.0,218.6 103.0,218.9 121.0,218.9 121.0,218.6 103.0,218.6"/>
  <polygon points="125.4,202.4 125.4,207.6 143.4,207.6 143.4,202.4 125.4,202.4"/>
  <polygon points="147.8,247.3 147.8,249.4 165.8,249.4 165.8,247.3 147.8,247.3"/>
  <polygon points="170.2,244.3 170.2,245.4 188.2,245.4 188.2,244.3 170.2,244.3"/>
  <polygon points="192.6,259.1 192.6,260.8 210.6,260.8 210.6,259.1 192.6,259.1"/>
  <polygon points="237.4,257.8 237.4,258.0 255.4,258.0 255.4,257.8 237.4,257.8"/>
  <polygon points="259.8,244.4 259.8,245.0 277.8,245.0 277.8,244.4 259.8,244.4"/>
  <polygon points="282.2,186.4 282.2,186.6 300.2,186.6 300.2,186.4 282.2,186.4"/>
  <polygon points="304.6,271.2 304.6,271.7 322.6,271.7 322.6,271.2 304.6,271.2"/>
  <polygon points="416.6,301.1 416.6,301.3 434.6,301.3 434.6,301.1 416.6,301.1"/>
  <polygon points="506.2,195.6 506.2,196.2 524.2,196.2 524.2,195.6 506.2,195.6"/>
  <polygon points="528.6,229.7 528.6,231.0 546.6,231.0 546.6,229.7 528.6,229.7"/>
  <polygon points="551.0,257.1 551.0,259.4 569.0,259.4 569.0,257.1 551.0,257.1"/>
  <polygon points="573.4,222.7 573.4,224.5 591.4,224.5 591.4,222.7 573.4,222.7"/>
  <polygon points="618.2,275.8 618.2,276.5 636.2,276.5 636.2,275.8 618.2,275.8"/>
  <polygon points="640.6,223.5 640.6,227.0 658.6,227.0 658.6,223.5 640.6,223.5"/>
  <polygon points="685.4,232.4 685.4,233.8 703.4,233.8 703.4,232.4 685.4,232.4"/>
  <polygon points="775.0,241.8 775.0,242.8 793.0,242.8 793.0,241.8 775.0,241.8"/>
  <polygon points="842.2,189.8 842.2,192.7 860.2,192.7 860.2,189.8 842.2,189.8"/>
  <polygon points="887.0,234.3 887.0,236.3 905.0,236.3 905.0,234.3 887.0,234.3"/>
</g>
<g stroke="#000" stroke-width="0.90" fill="#8DA0CB"  clip-path="url(#axis_clip)">
  <polygon points="-389.8,268.7 -389.8,278.0 -371.8,278.0 -371.8,268.7 -389.8,268.7"/>
  <polygon points="-345.0,228.6 -345.0,259.6 -327.0,259.6 -327.0,228.6 -345.0,228.6"/>
  <polygon points="-300.2,210.0 -300.2,281.1 -282.2,281.1 -282.2,210.0 -300.2,210.0"/>
  <polygon points="-277.8,265.2 -277.8,289.0 -259.8,289.0 -259.8,265.2 -277.8,265.2"/>
  <polygon points="-255.4,228.0 -255.4,235.9 -237.4,235.9 -237.4,228.0 -255.4,228.0"/>
  <polygon points="-233.0,291.2 -233.0,304.6 -215.0,304.6 -215.0,291.2 -233.0,291.2"/>
  <polygon points="-188.2,207.7 -188.2,221.6 -170.2,221.6 -170.2,207.7 -188.2,207.7"/>
  <polygon points="-143.4,245.0 -143.4,245.4 -125.4,245.4 -125.4,245.0 -143.4,245.0"/>
  <polygon points="-76.2,223.9 -76.2,261.9 -58.2,261.9 -58.2,223.9 -76.2,223.9"/>
  <polygon points="-31.4,240.2 -31.4,306.1 -13.4,306.1 -13.4,240.2 -31.4,240.2"/>
  <polygon points="-9.0,204.8 -9.0,249.3 9.0,249.3 9.0,204.8 -9.0,204.8"/>
  <polygon points="35.8,207.3 35.8,271.0 53.8,271.0 53.8,207.3 35.8,207.3"/>
  <polygon points="58.2,251.2 58.2,254.0 76.2,254.0 76.2,251.2 58.2,251.2"/>
  <polygon points="80.6,257.3 80.6,264.2 98.6,264.2 98.6,257.3 80.6,257.3"/>
  <polygon points="125.4,207.6 125.4,217.8 143.4,217.8 143.4,207.6 125.4,207.6"/>
  <polygon points="170.2,245.4 170.2,259.1 188.2,259.1 188.2,245.4 170.2,245.4"/>
  <polygon points="192.6,260.8 192.6,280.5 210.6,280.5 210.6,260.8 192.6,260.8"/>
  <polygon points="215.0,270.2 215.0,282.8 233.0,282.8 233.0,270.2 215.0,270.2"/>
  <polygon points="237.4,258.0 237.4,258.6 255.4,258.6 255.4,258.0 237.4,258.0"/>
  <polygon points="282.2,186.6 282.2,249.7 300.2,249.7 300.2,186.6 282.2,186.6"/>
  <polygon points="349.4,123.7 349.4,225.9 367.4,225.9 367.4,123.7 349.4,123.7"/>
  <polygon points="394.2,266.3 394.2,281.7 412.2,281.7 412.2,266.3 394.2,266.3"/>
  <polygon points="506.2,196.2 506.2,237.4 524.2,237.4 524.2,196.2 506.2,196.2"/>
  <polygon points="551.0,259.4 551.0,275.6 569.0,275.6 569.0,259.4 551.0,259.4"/>
  <polygon points="573.4,224.5 573.4,235.8 591.4,235.8 591.4,224.5 573.4,224.5"/>
  <polygon points="640.6,227.0 640.6,280.7 658.6,280.7 658.6,227.0 640.6,227.0"/>
  <polygon points="663.0,253.7 663.0,258.0 681.0,258.0 681.0,253.7 663.0,253.7"/>
  <polygon points="685.4,233.8 685.4,246.9 703.4,246.9 703.4,233.8 685.4,233.8"/>
  <polygon points="707.8,230.3 707.8,238.1 725.8,238.1 725.8,230.3 707.8,230.3"/>
  <polygon points="730.2,225.3 730.2,238.6 748.2,238.6 748.2,225.3 730.2,225.3"/>
  <polygon points="775.0,242.8 775.0,260.0 793.0,260.0 793.0,242.8 775.0,242.8"/>
  <polygon points="842.2,192.7 842.2,218.8 860.2,218.8 860.2,192.7 842.2,192.7"/>
  <polygon points="864.6,228.5 864.6,235.2 882.6,235.2 882.6,228.5 864.6,228.5"/>
  <polygon points="887.0,236.3 887.0,249.0 905.0,249.0 905.0,236.3 887.0,236.3"/>
</g>
<g stroke="#000" stroke-width="0.90" fill="#66C2A5"  clip-path="url(#axis_clip)">
  <polygon points="-389.8,278.0 -389.8,325.5 -371.8,325.5 -371.8,278.0 -389.8,278.0"/>
  <polygon points="-345.0,259.6 -345.0,311.7 -327.0,311.7 -327.0,259.6 -345.0,259.6"/>
  <polygon points="-322.6,194.4 -322.6,256.1 -304.6,256.1 -304.6,194.4 -322.6,194.4"/>
  <polygon points="-277.8,289.0 -277.8,324.5 -259.8,324.5 -259.8,289.0 -277.8,289.0"/>
  <polygon points="-255.4,235.9 -255.4,324.4 -237.4,324.4 -237.4,235.9 -255.4,235.9"/>
  <polygon points="-210.6,252.3 -210.6,323.9 -192.6,323.9 -192.6,252.3 -210.6,252.3"/>
  <polygon points="-165.8,276.4 -165.8,324.6 -147.8,324.6 -147.8,276.4 -165.8,276.4"/>
  <polygon points="-98.6,151.3 -98.6,324.4 -80.6,324.4 -80.6,151.3 -98.6,151.3"/>
  <polygon points="-53.8,196.3 -53.8,264.1 -35.8,264.1 -35.8,196.3 -53.8,196.3"/>
  <polygon points="13.4,261.2 13.4,305.2 31.4,305.2 31.4,261.2 13.4,261.2"/>
  <polygon points="35.8,271.0 35.8,275.3 53.8,275.3 53.8,271.0 35.8,271.0"/>
  <polygon points="58.2,254.0 58.2,286.8 76.2,286.8 76.2,254.0 58.2,254.0"/>
  <polygon points="80.6,264.2 80.6,298.8 98.6,298.8 98.6,264.2 80.6,264.2"/>
  <polygon points="125.4,217.8 125.4,265.0 143.4,265.0 143.4,217.8 125.4,217.8"/>
  <polygon points="147.8,249.4 147.8,275.5 165.8,275.5 165.8,249.4 147.8,249.4"/>
  <polygon points="170.2,259.1 170.2,326.3 188.2,326.3 188.2,259.1 170.2,259.1"/>
  <polygon points="304.6,271.7 304.6,293.3 322.6,293.3 322.6,271.7 304.6,271.7"/>
  <polygon points="371.8,287.2 371.8,305.0 389.8,305.0 389.8,287.2 371.8,287.2"/>
  <polygon points="461.4,234.7 461.4,244.0 479.4,244.0 479.4,234.7 461.4,234.7"/>
  <polygon points="528.6,231.0 528.6,243.3 546.6,243.3 546.6,231.0 528.6,231.0"/>
  <polygon points="551.0,275.6 551.0,316.2 569.0,316.2 569.0,275.6 551.0,275.6"/>
  <polygon points="618.2,276.5 618.2,279.6 636.2,279.6 636.2,276.5 618.2,276.5"/>
  <polygon points="819.8,311.1 819.8,344.0 837.8,344.0 837.8,311.1 819.8,311.1"/>
  <polygon points="887.0,249.0 887.0,254.4 905.0,254.4 905.0,249.0 887.0,249.0"/>
</g>
<g stroke="#000" stroke-width="0.90" fill="#E78AC3"  clip-path="url(#axis_clip)">
  <polygon points="-367.4,241.3 -367.4,325.9 -349.4,325.9 -349.4,241.3 -367.4,241.3"/>
  <polygon points="-345.0,311.7 -345.0,325.3 -327.0,325.3 -327.0,311.7 -345.0,311.7"/>
  <polygon points="-322.6,256.1 -322.6,324.7 -304.6,324.7 -304.6,256.1 -322.6,256.1"/>
  <polygon points="-300.2,281.1 -300.2,324.6 -282.2,324.6 -282.2,281.1 -300.2,281.1"/>
  <polygon points="-233.0,304.6 -233.0,324.0 -215.0,324.0 -215.0,304.6 -233.0,304.6"/>
  <polygon points="-188.2,221.6 -188.2,324.2 -170.2,324.2 -170.2,221.6 -188.2,221.6"/>
  <polygon points="-143.4,245.4 -143.4,324.7 -125.4,324.7 -125.4,245.4 -143.4,245.4"/>
  <polygon points="-121.0,272.8 -121.0,324.6 -103.0,324.6 -103.0,272.8 -121.0,272.8"/>
  <polygon points="-76.2,261.9 -76.2,323.8 -58.2,323.8 -58.2,261.9 -76.2,261.9"/>
  <polygon points="-53.8,264.1 -53.8,323.6 -35.8,323.6 -35.8,264.1 -53.8,264.1"/>
  <polygon points="-31.4,306.1 -31.4,323.8 -13.4,323.8 -13.4,306.1 -31.4,306.1"/>
  <polygon points="-9.0,249.3 -9.0,323.9 9.0,323.9 9.0,249.3 -9.0,249.3"/>
  <polygon points="13.4,305.2 13.4,323.8 31.4,323.8 31.4,305.2 13.4,305.2"/>
  <polygon points="35.8,275.3 35.8,324.0 53.8,324.0 53.8,275.3 35.8,275.3"/>
  <polygon points="58.2,286.8 58.2,324.2 76.2,324.2 76.2,286.8 58.2,286.8"/>
  <polygon points="80.6,298.8 80.6,324.6 98.6,324.6 98.6,298.8 80.6,298.8"/>
  <polygon points="103.0,218.9 103.0,325.0 121.0,325.0 121.0,218.9 103.0,218.9"/>
  <polygon points="125.4,265.0 125.4,325.3 143.4,325.3 143.4,265.0 125.4,265.0"/>
  <polygon points="147.8,275.5 147.8,325.7 165.8,325.7 165.8,275.5 147.8,275.5"/>
  <polygon points="192.6,280.5 192.6,326.7 210.6,326.7 210.6,280.5 192.6,280.5"/>
  <polygon points="215.0,282.8 215.0,327.2 233.0,327.2 233.0,282.8 215.0,282.8"/>
  <polygon points="237.4,258.6 237.4,327.6 255.4,327.6 255.4,258.6 237.4,258.6"/>
  <polygon points="259.8,245.0 259.8,328.0 277.8,328.0 277.8,245.0 259.8,245.0"/>
  <polygon points="282.2,249.7 282.2,328.6 300.2,328.6 300.2,249.7 282.2,249.7"/>
  <polygon points="304.6,293.3 304.6,329.1 322.6,329.1 322.6,293.3 304.6,293.3"/>
  <polygon points="327.0,265.7 327.0,329.6 345.0,329.6 345.0,265.7 327.0,265.7"/>
  <polygon points="349.4,225.9 349.4,330.2 367.4,330.2 367.4,225.9 349.4,225.9"/>
  <polygon points="371.8,305.0 371.8,330.7 389.8,330.7 389.8,305.0 371.8,305.0"/>
  <polygon points="394.2,281.7 394.2,330.9 412.2,330.9 412.2,281.7 394.2,281.7"/>
  <polygon points="416.6,301.3 416.6,331.4 434.6,331.4 434.6,301.3 416.6,301.3"/>
  <polygon points="439.0,240.5 439.0,332.2 457.0,332.2 457.0,240.5 439.0,240.5"/>
  <polygon points="461.4,244.0 461.4,333.0 479.4,333.0 479.4,244.0 461.4,244.0"/>
  <polygon points="483.8,235.1 483.8,334.0 501.8,334.0 501.8,235.1 483.8,235.1"/>
  <polygon points="506.2,237.4 506.2,335.3 524.2,335.3 524.2,237.4 506.2,237.4"/>
  <polygon points="528.6,243.3 528.6,336.2 546.6,336.2 546.6,243.3 528.6,243.3"/>
  <polygon points="551.0,316.2 551.0,336.8 569.0,336.8 569.0,316.2 551.0,316.2"/>
  <polygon points="573.4,235.8 573.4,337.3 591.4,337.3 591.4,235.8 573.4,235.8"/>
  <polygon points="595.8,230.7 595.8,337.5 613.8,337.5 613.8,230.7 595.8,230.7"/>
  <polygon points="618.2,279.6 618.2,337.8 636.2,337.8 636.2,279.6 618.2,279.6"/>
  <polygon points="640.6,280.7 640.6,338.2 658.6,338.2 658.6,280.7 640.6,280.7"/>
  <polygon points="663.0,258.0 663.0,338.8 681.0,338.8 681.0,258.0 663.0,258.0"/>
  <polygon points="685.4,246.9 685.4,339.7 703.4,339.7 703.4,246.9 685.4,246.9"/>
  <polygon points="707.8,238.1 707.8,340.5 725.8,340.5 725.8,238.1 707.8,238.1"/>
  <polygon points="730.2,238.6 730.2,340.5 748.2,340.5 748.2,238.6 730.2,238.6"/>
  <polygon points="752.6,251.7 752.6,341.0 770.6,341.0 770.6,251.7 752.6,251.7"/>
  <polygon points="775.0,260.0 775.0,342.0 793.0,342.0 793.0,260.0 775.0,260.0"/>
  <polygon points="797.4,297.6 797.4,343.0 815.4,343.0 815.4,297.6 797.4,297.6"/>
  <polygon points="842.2,218.8 842.2,346.5 860.2,346.5 860.2,218.8 842.2,218.8"/>
  <polygon points="864.6,235.2 864.6,348.3 882.6,348.3 882.6,235.2 864.6,235.2"/>
  <polygon points="887.0,254.4 887.0,346.4 905.0,346.4 905.0,254.4 887.0,254.4"/>
</g>
<g stroke="#000" stroke-width="0.90" fill="#A6D854"  clip-path="url(#axis_clip)">
  <polygon points="-389.8,325.5 -389.8,358.7 -371.8,358.7 -371.8,325.5 -389.8,325.5"/>
  <polygon points="-367.4,325.9 -367.4,358.7 -349.4,358.7 -349.4,325.9 -367.4,325.9"/>
  <polygon points="-345.0,325.3 -345.0,358.7 -327.0,358.7 -327.0,325.3 -345.0,325.3"/>
  <polygon points="-322.6,324.7 -322.6,358.7 -304.6,358.7 -304.6,324.7 -322.6,324.7"/>
  <polygon points="-300.2,324.6 -300.2,358.7 -282.2,358.7 -282.2,324.6 -300.2,324.6"/>
  <polygon points="-277.8,324.5 -277.8,358.7 -259.8,358.7 -259.8,324.5 -277.8,324.5"/>
  <polygon points="-255.4,324.4 -255.4,358.7 -237.4,358.7 -237.4,324.4 -255.4,324.4"/>
  <polygon points="-233.0,324.0 -233.0,358.7 -215.0,358.7 -215.0,324.0 -233.0,324.0"/>
  <polygon points="-210.6,323.9 -210.6,358.7 -192.6,358.7 -192.6,323.9 -210.6,323.9"/>
  <polygon points="-188.2,324.2 -188.2,358.7 -170.2,358.7 -170.2,324.2 -188.2,324.2"/>
  <polygon points="-165.8,324.6 -165.8,358.7 -147.8,358.7 -147.8,324.6 -165.8,324.6"/>
  <polygon points="-143.4,324.7 -143.4,358.7 -125.4,358.7 -125.4,324.7 -143.4,324.7"/>
  <polygon points="-121.0,324.6 -121.0,358.7 -103.0,358.7 -103.0,324.6 -121.0,324.6"/>
  <polygon points="-98.6,324.4 -98.6,358.7 -80.6,358.7 -80.6,324.4 -98.6,324.4"/>
  <polygon points="-76.2,323.8 -76.2,358.7 -58.2,358.7 -58.2,323.8 -76.2,323.8"/>
  <polygon points="-53.8,323.6 -53.8,358.7 -35.8,358.7 -35.8,323.6 -53.8,323.6"/>
  <polygon points="-31.4,323.8 -31.4,358.7 -13.4,358.7 -13.4,323.8 -31.4,323.8"/>
  <polygon points="-9.0,323.9 -9.0,358.7 9.0,358.7 9.0,323.9 -9.0,323.9"/>
  <polygon points="13.4,323.8 13.4,358.7 31.4,358.7 31.4,323.8 13.4,323.8"/>
  <polygon points="35.8,324.0 35.8,358.7 53.8,358.7 53.8,324.0 35.8,324.0"/>
  <polygon points="58.2,324.2 58.2,358.7 76.2,358.7 76.2,324.2 58.2,324.2"/>
  <polygon points="80.6,324.6 80.6,358.7 98.6,358.7 98.6,324.6 80.6,324.6"/>
  <polygon points="103.0,325.0 103.0,358.7 121.0,358.7 121.0,325.0 103.0,325.0"/>
  <polygon points="125.4,325.3 125.4,358.7 143.4,358.7 143.4,325.3 125.4,325.3"/>
  <polygon points="147.8,325.7 147.8,358.7 165.8,358.7 165.8,325.7 147.8,325.7"/>
  <polygon points="170.2,326.3 170.2,358.7 188.2,358.7 188.2,326.3 170.2,326.3"/>
  <polygon points="192.6,326.7 192.6,358.7 210.6,358.7 210.6,326.7 192.6,326.7"/>
  <polygon points="215.0,327.2 215.0,358.7 233.0,358.7 233.0,327.2 215.0,327.2"/>
  <polygon points="237.4,327.6 237.4,358.7 255.4,358.7 255.4,327.6 237.4,327.6"/>
  <polygon points="259.8,328.0 259.8,358.7 277.8,358.7 277.8,328.0 259.8,328.0"/>
  <polygon points="282.2,328.6 282.2,358.7 300.2,358.7 300.2,328.6 282.2,328.6"/>
  <polygon points="304.6,329.1 304.6,358.7 322.6,358.7 322.6,329.1 304.6,329.1"/>
  <polygon points="327.0,329.6 327.0,358.7 345.0,358.7 345.0,329.6 327.0,329.6"/>
  <polygon points="349.4,330.2 349.4,358.7 367.4,358.7 367.4,330.2 349.4,330.2"/>
  <polygon points="371.8,330.7 371.8,358.7 389.8,358.7 389.8,330.7 371.8,330.7"/>
  <polygon points="394.2,330.9 394.2,358.7 412.2,358.7 412.2,330.9 394.2,330.9"/>
  <polygon points="416.6,331.4 416.6,358.7 434.6,358.7 434.6,331.4 416.6,331.4"/>
  <polygon points="439.0,332.2 439.0,358.7 457.0,358.7 457.0,332.2 439.0,332.2"/>
  <polygon points="461.4,333.0 461.4,358.7 479.4,358.7 479.4,333.0 461.4,333.0"/>
  <polygon points="483.8,334.0 483.8,358.7 501.8,358.7 501.8,334.0 483.8,334.0"/>
  <polygon points="506.2,335.3 506.2,358.7 524.2,358.7 524.2,335.3 506.2,335.3"/>
  <polygon points="528.6,336.2 528.6,358.7 546.6,358.7 546.6,336.2 528.6,336.2"/>
  <polygon points="551.0,336.8 551.0,358.7 569.0,358.7 569.0,336.8 551.0,336.8"/>
  <polygon points="573.4,337.3 573.4,358.7 591.4,358.7 591.4,337.3 573.4,337.3"/>
  <polygon points="595.8,337.5 595.8,358.7 613.8,358.7 613.8,337.5 595.8,337.5"/>
  <polygon points="618.2,337.8 618.2,358.7 636.2,358.7 636.2,337.8 618.2,337.8"/>
  <polygon points="640.6,338.2 640.6,358.7 658.6,358.7 658.6,338.2 640.6,338.2"/>
  <polygon points="663.0,338.8 663.0,358.7 681.0,358.7 681.0,338.8 663.0,338.8"/>
  <polygon points="685.4,339.7 685.4,358.7 703.4,358.7 703.4,339.7 685.4,339.7"/>
  <polygon points="707.8,340.5 707.8,358.7 725.8,358.7 725.8,340.5 707.8,340.5"/>
  <polygon points="730.2,340.5 730.2,358.7 748.2,358.7 748.2,340.5 730.2,340.5"/>
  <polygon points="752.6,341.0 752.6,358.7 770.6,358.7 770.6,341.0 752.6,341.0"/>
  <polygon points="775.0,342.0 775.0,358.7 793.0,358.7 793.0,342.0 775.0,342.0"/>
  <polygon points="797.4,343.0 797.4,358.7 815.4,358.7 815.4,343.0 797.4,343.0"/>
  <polygon points="819.8,344.0 819.8,358.7 837.8,358.7 837.8,344.0 819.8,344.0"/>
  <polygon points="842.2,346.5 842.2,358.7 860.2,358.7 860.2,346.5 842.2,346.5"/>
  <polygon points="864.6,348.3 864.6,358.7 882.6,358.7 882.6,348.3 864.6,348.3"/>
  <polygon points="887.0,346.4 887.0,358.7 905.0,358.7 905.0,346.4 887.0,346.4"/>
</g>
<g>
  <g class="pl_2 marker" transform="translate(156.8,342.2)"><use xlink:href="#mk5"/><text class="dp1" y="-25">2.2</text></g>
  <g class="pl_2 marker" transform="translate(179.2,342.5)"><use xlink:href="#mk5"/><text class="dp1" y="-25">2.1</text></g>
  <g class="pl_2 marker" transform="translate(201.6,342.7)"><use xlink:href="#mk5"/><text class="dp1" y="-25">2.1</text></g>
  <g class="pl_2 marker" transform="translate(224.0,342.9)"><use xlink:href="#mk5"/><text class="dp1" y="-25">2.1</text></g>
  <g class="pl_2 marker" transform="translate(246.4,343.1)"><use xlink:href="#mk5"/><text class="dp1" y="-25">2.0</text></g>
  <g class="pl_2 marker" transform="translate(268.8,343.3)"><use xlink:href="#mk5"/><text class="dp1" y="-25">2.0</text></g>
  <g class="pl_2 marker" transform="translate(291.2,343.7)"><use xlink:href="#mk5"/><text class="dp1" y="-25">2.0</text></g>
  <g class="pl_2 marker" transform="translate(313.6,343.9)"><use xlink:href="#mk5"/><text class="dp1" y="-25">1.9</text></g>
  <g class="pl_2 marker" transform="translate(336.0,344.2)"><use xlink:href="#mk5"/><text class="dp1" y="-25">1.9</text></g>
  <g class="pl_2 marker" transform="translate(358.4,344.5)"><use xlink:href="#mk5"/><text class="dp1" y="-25">1.9</text></g>
  <g class="pl_2 marker" transform="translate(380.8,344.7)"><use xlink:href="#mk5"/><text class="dp1" y="-25">1.8</text></g>
  <g class="pl_2 marker" transform="translate(403.2,344.8)"><use xlink:href="#mk5"/><text class="dp1" y="-25">1.8</text></g>
  <g class="pl_2 marker" transform="translate(425.6,345.0)"><use xlink:href="#mk5"/><text class="dp1" y="-25">1.8</text></g>
  <g class="pl_2 marker" transform="translate(448.0,345.4)"><use xlink:href="#mk5"/><text class="dp1" y="-25">1.7</text></g>
  <g class="pl_2 marker" transform="translate(470.4,345.8)"><use xlink:href="#mk5"/><text class="dp1" y="-25">1.7</text></g>
  <g class="pl_2 marker" transform="translate(492.8,346.4)"><use xlink:href="#mk5"/><text class="dp1" y="-25">1.6</text></g>
  <g class="pl_2 marker" transform="translate(515.2,347.0)"><use xlink:href="#mk5"/><text class="dp1" y="-25">1.5</text></g>
  <g class="pl_2 marker" transform="translate(537.6,347.4)"><use xlink:href="#mk5"/><text class="dp1" y="-25">1.5</text></g>
  <g class="pl_2 marker" transform="translate(560.0,347.8)"><use xlink:href="#mk5"/><text class="dp1" y="-25">1.4</text></g>
  <g class="pl_2 marker" transform="translate(582.4,348.0)"><use xlink:href="#mk5"/><text class="dp1" y="-25">1.4</text></g>
  <g class="pl_2 marker" transform="translate(604.8,348.1)"><use xlink:href="#mk5"/><text class="dp1" y="-25">1.4</text></g>
  <g class="pl_2 marker" transform="translate(627.2,348.2)"><use xlink:href="#mk5"/><text class="dp1" y="-25">1.4</text></g>
  <g class="pl_2 marker" transform="translate(649.6,348.5)"><use xlink:href="#mk5"/><text class="dp1" y="-25">1.3</text></g>
  <g class="pl_2 marker" transform="translate(672.0,348.7)"><use xlink:href="#mk5"/><text class="dp1" y="-25">1.3</text></g>
  <g class="pl_2 marker" transform="translate(694.4,349.2)"><use xlink:href="#mk5"/><text class="dp1" y="-25">1.2</text></g>
  <g class="pl_2 marker" transform="translate(716.8,349.6)"><use xlink:href="#mk5"/><text class="dp1" y="-25">1.2</text></g>
  <g class="pl_2 marker" transform="translate(739.2,349.6)"><use xlink:href="#mk5"/><text class="dp1" y="-25">1.2</text></g>
  <g class="pl_2 marker" transform="translate(761.6,349.8)"><use xlink:href="#mk5"/><text class="dp1" y="-25">1.2</text></g>
  <g class="pl_2 marker" transform="translate(784.0,350.3)"><use xlink:href="#mk5"/><text class="dp1" y="-25">1.1</text></g>
  <g class="pl_2 marker" transform="translate(806.4,350.8)"><use xlink:href="#mk5"/><text class="dp1" y="-25">1.0</text></g>
  <g class="pl_2 marker" transform="translate(828.8,351.4)"><use xlink:href="#mk5"/><text class="dp1" y="-25">1.0</text></g>
  <g class="pl_2 marker" transform="translate(851.2,352.6)"><use xlink:href="#mk5"/><text class="dp1" y="-25">0.8</text></g>
  <g class="pl_2 marker" transform="translate(873.6,353.5)"><use xlink:href="#mk5"/><text class="dp1" y="-25">0.7</text></g>
  <g class="pl_2 marker" transform="translate(896.0,352.5)"><use xlink:href="#mk5"/><text class="dp1" y="-25">0.8</text></g>
</g>
<g>
  <g class="pl_2 marker" transform="translate(156.8,300.6)"><use xlink:href="#mk4"/><text class="dp1" y="-25">3.3</text></g>
  <g class="pl_2 marker" transform="translate(179.2,326.3)"><use xlink:href="#mk4"/><text class="dp1" y="-25">-0.0</text></g>
  <g class="pl_2 marker" transform="translate(201.6,303.6)"><use xlink:href="#mk4"/><text class="dp1" y="-25">3.0</text></g>
  <g class="pl_2 marker" transform="translate(224.0,305.0)"><use xlink:href="#mk4"/><text class="dp1" y="-25">2.9</text></g>
  <g class="pl_2 marker" transform="translate(246.4,293.1)"><use xlink:href="#mk4"/><text class="dp1" y="-25">4.5</text></g>
  <g class="pl_2 marker" transform="translate(268.8,286.5)"><use xlink:href="#mk4"/><text class="dp1" y="-25">5.5</text></g>
  <g class="pl_2 marker" transform="translate(291.2,289.2)"><use xlink:href="#mk4"/><text class="dp1" y="-25">5.2</text></g>
  <g class="pl_2 marker" transform="translate(313.6,311.2)"><use xlink:href="#mk4"/><text class="dp1" y="-25">2.4</text></g>
  <g class="pl_2 marker" transform="translate(336.0,297.7)"><use xlink:href="#mk4"/><text class="dp1" y="-25">4.2</text></g>
  <g class="pl_2 marker" transform="translate(358.4,278.0)"><use xlink:href="#mk4"/><text class="dp1" y="-25">6.9</text></g>
  <g class="pl_2 marker" transform="translate(380.8,317.8)"><use xlink:href="#mk4"/><text class="dp1" y="-25">1.7</text></g>
  <g class="pl_2 marker" transform="translate(403.2,306.3)"><use xlink:href="#mk4"/><text class="dp1" y="-25">3.2</text></g>
  <g class="pl_2 marker" transform="translate(425.6,316.3)"><use xlink:href="#mk4"/><text class="dp1" y="-25">2.0</text></g>
  <g class="pl_2 marker" transform="translate(448.0,286.3)"><use xlink:href="#mk4"/><text class="dp1" y="-25">6.0</text></g>
  <g class="pl_2 marker" transform="translate(470.4,288.5)"><use xlink:href="#mk4"/><text class="dp1" y="-25">5.8</text></g>
  <g class="pl_2 marker" transform="translate(492.8,284.5)"><use xlink:href="#mk4"/><text class="dp1" y="-25">6.5</text></g>
  <g class="pl_2 marker" transform="translate(515.2,286.3)"><use xlink:href="#mk4"/><text class="dp1" y="-25">6.4</text></g>
  <g class="pl_2 marker" transform="translate(537.6,289.8)"><use xlink:href="#mk4"/><text class="dp1" y="-25">6.1</text></g>
  <g class="pl_2 marker" transform="translate(560.0,326.5)"><use xlink:href="#mk4"/><text class="dp1" y="-25">1.4</text></g>
  <g class="pl_2 marker" transform="translate(582.4,286.6)"><use xlink:href="#mk4"/><text class="dp1" y="-25">6.7</text></g>
  <g class="pl_2 marker" transform="translate(604.8,284.1)"><use xlink:href="#mk4"/><text class="dp1" y="-25">7.0</text></g>
  <g class="pl_2 marker" transform="translate(627.2,308.7)"><use xlink:href="#mk4"/><text class="dp1" y="-25">3.8</text></g>
  <g class="pl_2 marker" transform="translate(649.6,309.5)"><use xlink:href="#mk4"/><text class="dp1" y="-25">3.8</text></g>
  <g class="pl_2 marker" transform="translate(672.0,298.4)"><use xlink:href="#mk4"/><text class="dp1" y="-25">5.3</text></g>
  <g class="pl_2 marker" transform="translate(694.4,293.3)"><use xlink:href="#mk4"/><text class="dp1" y="-25">6.1</text></g>
  <g class="pl_2 marker" transform="translate(716.8,289.3)"><use xlink:href="#mk4"/><text class="dp1" y="-25">6.7</text></g>
  <g class="pl_2 marker" transform="translate(739.2,289.6)"><use xlink:href="#mk4"/><text class="dp1" y="-25">6.7</text></g>
  <g class="pl_2 marker" transform="translate(761.6,296.3)"><use xlink:href="#mk4"/><text class="dp1" y="-25">5.9</text></g>
  <g class="pl_2 marker" transform="translate(784.0,301.0)"><use xlink:href="#mk4"/><text class="dp1" y="-25">5.4</text></g>
  <g class="pl_2 marker" transform="translate(806.4,320.3)"><use xlink:href="#mk4"/><text class="dp1" y="-25">3.0</text></g>
  <g class="pl_2 marker" transform="translate(828.8,344.0)"><use xlink:href="#mk4"/><text class="dp1" y="-25">-0.0</text></g>
  <g class="pl_2 marker" transform="translate(851.2,282.7)"><use xlink:href="#mk4"/><text class="dp1" y="-25">8.4</text></g>
  <g class="pl_2 marker" transform="translate(873.6,291.8)"><use xlink:href="#mk4"/><text class="dp1" y="-25">7.4</text></g>
  <g class="pl_2 marker" transform="translate(896.0,300.4)"><use xlink:href="#mk4"/><text class="dp1" y="-25">6.0</text></g>
</g>
<g>
  <g class="pl_2 marker" transform="translate(156.8,262.4)"><use xlink:href="#mk3"/><text class="dp1" y="-25">1.7</text></g>
  <g class="pl_2 marker" transform="translate(179.2,292.7)"><use xlink:href="#mk3"/><text class="dp1" y="-25">4.4</text></g>
  <g class="pl_2 marker" transform="translate(201.6,280.5)"><use xlink:href="#mk3"/><text class="dp1" y="-25">-0.0</text></g>
  <g class="pl_2 marker" transform="translate(224.0,282.8)"><use xlink:href="#mk3"/><text class="dp1" y="-25">-0.0</text></g>
  <g class="pl_2 marker" transform="translate(246.4,258.6)"><use xlink:href="#mk3"/><text class="dp1" y="-25">-0.0</text></g>
  <g class="pl_2 marker" transform="translate(268.8,245.0)"><use xlink:href="#mk3"/><text class="dp1" y="-25">-0.0</text></g>
  <g class="pl_2 marker" transform="translate(291.2,249.7)"><use xlink:href="#mk3"/><text class="dp1" y="-25">-0.0</text></g>
  <g class="pl_2 marker" transform="translate(313.6,282.5)"><use xlink:href="#mk3"/><text class="dp1" y="-25">1.4</text></g>
  <g class="pl_2 marker" transform="translate(336.0,265.7)"><use xlink:href="#mk3"/><text class="dp1" y="-25">-0.0</text></g>
  <g class="pl_2 marker" transform="translate(358.4,225.9)"><use xlink:href="#mk3"/><text class="dp1" y="-25">-0.0</text></g>
  <g class="pl_2 marker" transform="translate(380.8,296.1)"><use xlink:href="#mk3"/><text class="dp1" y="-25">1.2</text></g>
  <g class="pl_2 marker" transform="translate(403.2,281.7)"><use xlink:href="#mk3"/><text class="dp1" y="-25">-0.0</text></g>
  <g class="pl_2 marker" transform="translate(425.6,301.3)"><use xlink:href="#mk3"/><text class="dp1" y="-25">-0.0</text></g>
  <g class="pl_2 marker" transform="translate(448.0,240.5)"><use xlink:href="#mk3"/><text class="dp1" y="-25">-0.0</text></g>
  <g class="pl_2 marker" transform="translate(470.4,239.3)"><use xlink:href="#mk3"/><text class="dp1" y="-25">0.6</text></g>
  <g class="pl_2 marker" transform="translate(492.8,235.1)"><use xlink:href="#mk3"/><text class="dp1" y="-25">-0.0</text></g>
  <g class="pl_2 marker" transform="translate(515.2,237.4)"><use xlink:href="#mk3"/><text class="dp1" y="-25">-0.0</text></g>
  <g class="pl_2 marker" transform="translate(537.6,237.2)"><use xlink:href="#mk3"/><text class="dp1" y="-25">0.8</text></g>
  <g class="pl_2 marker" transform="translate(560.0,295.9)"><use xlink:href="#mk3"/><text class="dp1" y="-25">2.7</text></g>
  <g class="pl_2 marker" transform="translate(582.4,235.8)"><use xlink:href="#mk3"/><text class="dp1" y="-25">-0.0</text></g>
  <g class="pl_2 marker" transform="translate(604.8,230.7)"><use xlink:href="#mk3"/><text class="dp1" y="-25">-0.0</text></g>
  <g class="pl_2 marker" transform="translate(627.2,278.1)"><use xlink:href="#mk3"/><text class="dp1" y="-25">0.2</text></g>
  <g class="pl_2 marker" transform="translate(649.6,280.7)"><use xlink:href="#mk3"/><text class="dp1" y="-25">-0.0</text></g>
  <g class="pl_2 marker" transform="translate(672.0,258.0)"><use xlink:href="#mk3"/><text class="dp1" y="-25">-0.0</text></g>
  <g class="pl_2 marker" transform="translate(694.4,246.9)"><use xlink:href="#mk3"/><text class="dp1" y="-25">-0.0</text></g>
  <g class="pl_2 marker" transform="translate(716.8,238.1)"><use xlink:href="#mk3"/><text class="dp1" y="-25">-0.0</text></g>
  <g class="pl_2 marker" transform="translate(739.2,238.6)"><use xlink:href="#mk3"/><text class="dp1" y="-25">-0.0</text></g>
  <g class="pl_2 marker" transform="translate(761.6,251.7)"><use xlink:href="#mk3"/><text class="dp1" y="-25">-0.0</text></g>
  <g class="pl_2 marker" transform="translate(784.0,260.0)"><use xlink:href="#mk3"/><text class="dp1" y="-25">-0.0</text></g>
  <g class="pl_2 marker" transform="translate(806.4,297.6)"><use xlink:href="#mk3"/><text class="dp1" y="-25">-0.0</text></g>
  <g class="pl_2 marker" transform="translate(828.8,327.6)"><use xlink:href="#mk3"/><text class="dp1" y="-25">2.2</text></g>
  <g class="pl_2 marker" transform="translate(851.2,218.8)"><use xlink:href="#mk3"/><text class="dp1" y="-25">-0.0</text></g>
  <g class="pl_2 marker" transform="translate(873.6,235.2)"><use xlink:href="#mk3"/><text class="dp1" y="-25">-0.0</text></g>
  <g class="pl_2 marker" transform="translate(896.0,251.7)"><use xlink:href="#mk3"/><text class="dp1" y="-25">0.4</text></g>
</g>
<g>
  <g class="pl_2 marker" transform="translate(156.8,249.4)"><use xlink:href="#mk2"/><text class="dp1" y="-25">-0.0</text></g>
  <g class="pl_2 marker" transform="translate(179.2,252.2)"><use xlink:href="#mk2"/><text class="dp1" y="-25">0.9</text></g>
  <g class="pl_2 marker" transform="translate(201.6,270.7)"><use xlink:href="#mk2"/><text class="dp1" y="-25">1.3</text></g>
  <g class="pl_2 marker" transform="translate(224.0,276.5)"><use xlink:href="#mk2"/><text class="dp1" y="-25">0.8</text></g>
  <g class="pl_2 marker" transform="translate(246.4,258.3)"><use xlink:href="#mk2"/><text class="dp1" y="-25">0.0</text></g>
  <g class="pl_2 marker" transform="translate(268.8,245.0)"><use xlink:href="#mk2"/><text class="dp1" y="-25">-0.0</text></g>
  <g class="pl_2 marker" transform="translate(291.2,218.2)"><use xlink:href="#mk2"/><text class="dp1" y="-25">4.1</text></g>
  <g class="pl_2 marker" transform="translate(313.6,271.7)"><use xlink:href="#mk2"/><text class="dp1" y="-25">-0.0</text></g>
  <g class="pl_2 marker" transform="translate(336.0,265.7)"><use xlink:href="#mk2"/><text class="dp1" y="-25">-0.0</text></g>
  <g class="pl_2 marker" transform="translate(358.4,174.8)"><use xlink:href="#mk2"/><text class="dp1" y="-25">6.7</text></g>
  <g class="pl_2 marker" transform="translate(380.8,287.2)"><use xlink:href="#mk2"/><text class="dp1" y="-25">-0.0</text></g>
  <g class="pl_2 marker" transform="translate(403.2,274.0)"><use xlink:href="#mk2"/><text class="dp1" y="-25">1.0</text></g>
  <g class="pl_2 marker" transform="translate(425.6,301.3)"><use xlink:href="#mk2"/><text class="dp1" y="-25">-0.0</text></g>
  <g class="pl_2 marker" transform="translate(448.0,240.5)"><use xlink:href="#mk2"/><text class="dp1" y="-25">-0.0</text></g>
  <g class="pl_2 marker" transform="translate(470.4,234.7)"><use xlink:href="#mk2"/><text class="dp1" y="-25">-0.0</text></g>
  <g class="pl_2 marker" transform="translate(492.8,235.1)"><use xlink:href="#mk2"/><text class="dp1" y="-25">-0.0</text></g>
  <g class="pl_2 marker" transform="translate(515.2,216.8)"><use xlink:href="#mk2"/><text class="dp1" y="-25">2.7</text></g>
  <g class="pl_2 marker" transform="translate(537.6,231.0)"><use xlink:href="#mk2"/><text class="dp1" y="-25">-0.0</text></g>
  <g class="pl_2 marker" transform="translate(560.0,267.5)"><use xlink:href="#mk2"/><text class="dp1" y="-25">1.1</text></g>
  <g class="pl_2 marker" transform="translate(582.4,230.2)"><use xlink:href="#mk2"/><text class="dp1" y="-25">0.7</text></g>
  <g class="pl_2 marker" transform="translate(604.8,230.7)"><use xlink:href="#mk2"/><text class="dp1" y="-25">-0.0</text></g>
  <g class="pl_2 marker" transform="translate(627.2,276.5)"><use xlink:href="#mk2"/><text class="dp1" y="-25">-0.0</text></g>
  <g class="pl_2 marker" transform="translate(649.6,253.8)"><use xlink:href="#mk2"/><text class="dp1" y="-25">3.5</text></g>
  <g class="pl_2 marker" transform="translate(672.0,255.8)"><use xlink:href="#mk2"/><text class="dp1" y="-25">0.3</text></g>
  <g class="pl_2 marker" transform="translate(694.4,240.4)"><use xlink:href="#mk2"/><text class="dp1" y="-25">0.9</text></g>
  <g class="pl_2 marker" transform="translate(716.8,234.2)"><use xlink:href="#mk2"/><text class="dp1" y="-25">0.5</text></g>
  <g class="pl_2 marker" transform="translate(739.2,232.0)"><use xlink:href="#mk2"/><text class="dp1" y="-25">0.9</text></g>
  <g class="pl_2 marker" transform="translate(761.6,251.7)"><use xlink:href="#mk2"/><text class="dp1" y="-25">-0.0</text></g>
  <g class="pl_2 marker" transform="translate(784.0,251.4)"><use xlink:href="#mk2"/><text class="dp1" y="-25">1.1</text></g>
  <g class="pl_2 marker" transform="translate(806.4,297.6)"><use xlink:href="#mk2"/><text class="dp1" y="-25">-0.0</text></g>
  <g class="pl_2 marker" transform="translate(828.8,311.1)"><use xlink:href="#mk2"/><text class="dp1" y="-25">-0.0</text></g>
  <g class="pl_2 marker" transform="translate(851.2,205.8)"><use xlink:href="#mk2"/><text class="dp1" y="-25">1.7</text></g>
  <g class="pl_2 marker" transform="translate(873.6,231.9)"><use xlink:href="#mk2"/><text class="dp1" y="-25">0.4</text></g>
  <g class="pl_2 marker" transform="translate(896.0,242.7)"><use xlink:href="#mk2"/><text class="dp1" y="-25">0.8</text></g>
</g>
<g>
  <g class="pl_2 marker" transform="translate(156.8,248.4)"><use xlink:href="#mk1"/><text class="dp1" y="-25">0.1</text></g>
  <g class="pl_2 marker" transform="translate(179.2,244.8)"><use xlink:href="#mk1"/><text class="dp1" y="-25">0.1</text></g>
  <g class="pl_2 marker" transform="translate(201.6,260.0)"><use xlink:href="#mk1"/><text class="dp1" y="-25">0.1</text></g>
  <g class="pl_2 marker" transform="translate(224.0,270.2)"><use xlink:href="#mk1"/><text class="dp1" y="-25">-0.0</text></g>
  <g class="pl_2 marker" transform="translate(246.4,257.9)"><use xlink:href="#mk1"/><text class="dp1" y="-25">0.0</text></g>
  <g class="pl_2 marker" transform="translate(268.8,244.7)"><use xlink:href="#mk1"/><text class="dp1" y="-25">0.0</text></g>
  <g class="pl_2 marker" transform="translate(291.2,186.5)"><use xlink:href="#mk1"/><text class="dp1" y="-25">0.0</text></g>
  <g class="pl_2 marker" transform="translate(313.6,271.4)"><use xlink:href="#mk1"/><text class="dp1" y="-25">0.0</text></g>
  <g class="pl_2 marker" transform="translate(336.0,265.7)"><use xlink:href="#mk1"/><text class="dp1" y="-25">-0.0</text></g>
  <g class="pl_2 marker" transform="translate(358.4,123.7)"><use xlink:href="#mk1"/><text class="dp1" y="-25">-0.0</text></g>
  <g class="pl_2 marker" transform="translate(380.8,287.2)"><use xlink:href="#mk1"/><text class="dp1" y="-25">-0.0</text></g>
  <g class="pl_2 marker" transform="translate(403.2,266.3)"><use xlink:href="#mk1"/><text class="dp1" y="-25">-0.0</text></g>
  <g class="pl_2 marker" transform="translate(425.6,301.2)"><use xlink:href="#mk1"/><text class="dp1" y="-25">0.0</text></g>
  <g class="pl_2 marker" transform="translate(448.0,240.5)"><use xlink:href="#mk1"/><text class="dp1" y="-25">-0.0</text></g>
  <g class="pl_2 marker" transform="translate(470.4,234.7)"><use xlink:href="#mk1"/><text class="dp1" y="-25">-0.0</text></g>
  <g class="pl_2 marker" transform="translate(492.8,235.1)"><use xlink:href="#mk1"/><text class="dp1" y="-25">-0.0</text></g>
  <g class="pl_2 marker" transform="translate(515.2,195.9)"><use xlink:href="#mk1"/><text class="dp1" y="-25">0.0</text></g>
  <g class="pl_2 marker" transform="translate(537.6,230.4)"><use xlink:href="#mk1"/><text class="dp1" y="-25">0.1</text></g>
  <g class="pl_2 marker" transform="translate(560.0,258.2)"><use xlink:href="#mk1"/><text class="dp1" y="-25">0.2</text></g>
  <g class="pl_2 marker" transform="translate(582.4,223.6)"><use xlink:href="#mk1"/><text class="dp1" y="-25">0.1</text></g>
  <g class="pl_2 marker" transform="translate(604.8,230.7)"><use xlink:href="#mk1"/><text class="dp1" y="-25">-0.0</text></g>
  <g class="pl_2 marker" transform="translate(627.2,276.1)"><use xlink:href="#mk1"/><text class="dp1" y="-25">0.1</text></g>
  <g class="pl_2 marker" transform="translate(649.6,225.2)"><use xlink:href="#mk1"/><text class="dp1" y="-25">0.2</text></g>
  <g class="pl_2 marker" transform="translate(672.0,253.7)"><use xlink:href="#mk1"/><text class="dp1" y="-25">-0.0</text></g>
  <g class="pl_2 marker" transform="translate(694.4,233.1)"><use xlink:href="#mk1"/><text class="dp1" y="-25">0.1</text></g>
  <g class="pl_2 marker" transform="translate(716.8,230.3)"><use xlink:href="#mk1"/><text class="dp1" y="-25">-0.0</text></g>
  <g class="pl_2 marker" transform="translate(739.2,225.3)"><use xlink:href="#mk1"/><text class="dp1" y="-25">-0.0</text></g>
  <g class="pl_2 marker" transform="translate(761.6,251.7)"><use xlink:href="#mk1"/><text class="dp1" y="-25">-0.0</text></g>
  <g class="pl_2 marker" transform="translate(784.0,242.3)"><use xlink:href="#mk1"/><text class="dp1" y="-25">0.1</text></g>
  <g class="pl_2 marker" transform="translate(806.4,297.6)"><use xlink:href="#mk1"/><text class="dp1" y="-25">-0.0</text></g>
  <g class="pl_2 marker" transform="translate(828.8,311.1)"><use xlink:href="#mk1"/><text class="dp1" y="-25">-0.0</text></g>
  <g class="pl_2 marker" transform="translate(851.2,191.3)"><use xlink:href="#mk1"/><text class="dp1" y="-25">0.2</text></g>
  <g class="pl_2 marker" transform="translate(873.6,228.5)"><use xlink:href="#mk1"/><text class="dp1" y="-25">-0.0</text></g>
  <g class="pl_2 marker" transform="translate(896.0,235.3)"><use xlink:href="#mk1"/><text class="dp1" y="-25">0.1</text></g>
</g>
<g stroke="#000" stroke-width="0.90" fill="#808080"  clip-path="url(#axis_clip)">
  <polygon points="-389.8,392.4 -389.8,391.9 -371.8,391.9 -371.8,392.4 -389.8,392.4"/>
  <polygon points="-367.4,474.3 -367.4,469.6 -349.4,469.6 -349.4,474.3 -367.4,474.3"/>
  <polygon points="-322.6,489.5 -322.6,481.5 -304.6,481.5 -304.6,489.5 -322.6,489.5"/>
  <polygon points="-300.2,470.4 -300.2,464.4 -282.2,464.4 -282.2,470.4 -300.2,470.4"/>
  <polygon points="-255.4,405.9 -255.4,404.5 -237.4,404.5 -237.4,405.9 -255.4,405.9"/>
  <polygon points="-210.6,415.8 -210.6,413.9 -192.6,413.9 -192.6,415.8 -210.6,415.8"/>
  <polygon points="-121.0,419.9 -121.0,418.3 -103.0,418.3 -103.0,419.9 -121.0,419.9"/>
  <polygon points="-98.6,490.0 -98.6,478.0 -80.6,478.0 -80.6,490.0 -98.6,490.0"/>
  <polygon points="-76.2,412.8 -76.2,411.8 -58.2,411.8 -58.2,412.8 -76.2,412.8"/>
  <polygon points="-31.4,426.8 -31.4,424.3 -13.4,424.3 -13.4,426.8 -31.4,426.8"/>
  <polygon points="13.4,420.0 13.4,418.1 31.4,418.1 31.4,420.0 13.4,420.0"/>
  <polygon points="215.0,392.0 215.0,391.6 233.0,391.6 233.0,392.0 215.0,392.0"/>
  <polygon points="327.0,420.1 327.0,417.8 345.0,417.8 345.0,420.1 327.0,420.1"/>
  <polygon points="349.4,445.8 349.4,443.2 367.4,443.2 367.4,445.8 349.4,445.8"/>
  <polygon points="371.8,393.7 371.8,393.1 389.8,393.1 389.8,393.7 371.8,393.7"/>
  <polygon points="394.2,425.0 394.2,422.7 412.2,422.7 412.2,425.0 394.2,425.0"/>
  <polygon points="439.0,424.3 439.0,421.0 457.0,421.0 457.0,424.3 439.0,424.3"/>
  <polygon points="461.4,392.8 461.4,392.2 479.4,392.2 479.4,392.8 461.4,392.8"/>
  <polygon points="483.8,396.2 483.8,395.0 501.8,395.0 501.8,396.2 483.8,396.2"/>
  <polygon points="595.8,425.1 595.8,421.4 613.8,421.4 613.8,425.1 595.8,425.1"/>
  <polygon points="663.0,404.4 663.0,402.7 681.0,402.7 681.0,404.4 663.0,404.4"/>
  <polygon points="707.8,426.2 707.8,422.6 725.8,422.6 725.8,426.2 707.8,426.2"/>
  <polygon points="730.2,414.3 730.2,411.8 748.2,411.8 748.2,414.3 730.2,414.3"/>
  <polygon points="752.6,414.8 752.6,412.3 770.6,412.3 770.6,414.8 752.6,414.8"/>
  <polygon points="797.4,408.1 797.4,407.0 815.4,407.0 815.4,408.1 797.4,408.1"/>
  <polygon points="819.8,521.6 819.8,519.8 837.8,519.8 837.8,521.6 819.8,521.6"/>
  <polygon points="864.6,399.4 864.6,397.4 882.6,397.4 882.6,399.4 864.6,399.4"/>
</g>
<g stroke="#000" stroke-width="0.90" fill="#8DA0CB"  clip-path="url(#axis_clip)">
  <polygon points="-367.4,469.6 -367.4,424.9 -349.4,424.9 -349.4,469.6 -367.4,469.6"/>
  <polygon points="-322.6,481.5 -322.6,358.7 -304.6,358.7 -304.6,481.5 -322.6,481.5"/>
  <polygon points="-210.6,413.9 -210.6,375.0 -192.6,375.0 -192.6,413.9 -210.6,413.9"/>
  <polygon points="-165.8,376.8 -165.8,371.3 -147.8,371.3 -147.8,376.8 -165.8,376.8"/>
  <polygon points="-121.0,418.3 -121.0,384.0 -103.0,384.0 -103.0,418.3 -121.0,418.3"/>
  <polygon points="-98.6,478.0 -98.6,470.2 -80.6,470.2 -80.6,478.0 -98.6,478.0"/>
  <polygon points="-53.8,396.5 -53.8,358.7 -35.8,358.7 -35.8,396.5 -53.8,396.5"/>
  <polygon points="13.4,418.1 13.4,358.7 31.4,358.7 31.4,418.1 13.4,418.1"/>
  <polygon points="103.0,381.6 103.0,369.6 121.0,369.6 121.0,381.6 103.0,381.6"/>
  <polygon points="147.8,364.8 147.8,358.7 165.8,358.7 165.8,364.8 147.8,364.8"/>
  <polygon points="259.8,373.9 259.8,360.1 277.8,360.1 277.8,373.9 259.8,373.9"/>
  <polygon points="304.6,378.2 304.6,358.7 322.6,358.7 322.6,378.2 304.6,378.2"/>
  <polygon points="327.0,417.8 327.0,360.3 345.0,360.3 345.0,417.8 327.0,417.8"/>
  <polygon points="371.8,393.1 371.8,358.7 389.8,358.7 389.8,393.1 371.8,393.1"/>
  <polygon points="416.6,368.1 416.6,363.5 434.6,363.5 434.6,368.1 416.6,368.1"/>
  <polygon points="439.0,421.0 439.0,419.4 457.0,419.4 457.0,421.0 439.0,421.0"/>
  <polygon points="461.4,392.2 461.4,358.7 479.4,358.7 479.4,392.2 461.4,392.2"/>
  <polygon points="483.8,395.0 483.8,387.6 501.8,387.6 501.8,395.0 483.8,395.0"/>
  <polygon points="528.6,369.8 528.6,358.7 546.6,358.7 546.6,369.8 528.6,369.8"/>
  <polygon points="595.8,421.4 595.8,417.2 613.8,417.2 613.8,421.4 595.8,421.4"/>
  <polygon points="618.2,362.2 618.2,358.7 636.2,358.7 636.2,362.2 618.2,362.2"/>
  <polygon points="752.6,412.3 752.6,401.2 770.6,401.2 770.6,412.3 752.6,412.3"/>
  <polygon points="797.4,407.0 797.4,380.9 815.4,380.9 815.4,407.0 797.4,407.0"/>
  <polygon points="819.8,519.8 819.8,486.4 837.8,486.4 837.8,519.8 819.8,519.8"/>
</g>
<g stroke="#000" stroke-width="0.90" fill="#66C2A5"  clip-path="url(#axis_clip)">
  <polygon points="-367.4,424.9 -367.4,358.7 -349.4,358.7 -349.4,424.9 -367.4,424.9"/>
  <polygon points="-300.2,464.4 -300.2,358.7 -282.2,358.7 -282.2,464.4 -300.2,464.4"/>
  <polygon points="-233.0,376.5 -233.0,358.7 -215.0,358.7 -215.0,376.5 -233.0,376.5"/>
  <polygon points="-188.2,381.4 -188.2,358.7 -170.2,358.7 -170.2,381.4 -188.2,381.4"/>
  <polygon points="-143.4,379.7 -143.4,358.7 -125.4,358.7 -125.4,379.7 -143.4,379.7"/>
  <polygon points="-121.0,384.0 -121.0,358.7 -103.0,358.7 -103.0,384.0 -121.0,384.0"/>
  <polygon points="-76.2,411.8 -76.2,358.7 -58.2,358.7 -58.2,411.8 -76.2,411.8"/>
  <polygon points="-31.4,424.3 -31.4,358.7 -13.4,358.7 -13.4,424.3 -31.4,424.3"/>
  <polygon points="-9.0,388.8 -9.0,358.7 9.0,358.7 9.0,388.8 -9.0,388.8"/>
  <polygon points="103.0,369.6 103.0,358.7 121.0,358.7 121.0,369.6 103.0,369.6"/>
  <polygon points="192.6,363.4 192.6,358.7 210.6,358.7 210.6,363.4 192.6,363.4"/>
  <polygon points="215.0,391.6 215.0,358.7 233.0,358.7 233.0,391.6 215.0,391.6"/>
  <polygon points="237.4,376.9 237.4,358.7 255.4,358.7 255.4,376.9 237.4,376.9"/>
  <polygon points="259.8,360.1 259.8,358.7 277.8,358.7 277.8,360.1 259.8,360.1"/>
  <polygon points="282.2,409.0 282.2,358.7 300.2,358.7 300.2,409.0 282.2,409.0"/>
  <polygon points="327.0,360.3 327.0,358.7 345.0,358.7 345.0,360.3 327.0,360.3"/>
  <polygon points="349.4,443.2 349.4,358.7 367.4,358.7 367.4,443.2 349.4,443.2"/>
  <polygon points="394.2,422.7 394.2,358.7 412.2,358.7 412.2,422.7 394.2,422.7"/>
  <polygon points="416.6,363.5 416.6,358.7 434.6,358.7 434.6,363.5 416.6,363.5"/>
  <polygon points="439.0,419.4 439.0,358.7 457.0,358.7 457.0,419.4 439.0,419.4"/>
  <polygon points="483.8,387.6 483.8,358.7 501.8,358.7 501.8,387.6 483.8,387.6"/>
  <polygon points="506.2,396.9 506.2,358.7 524.2,358.7 524.2,396.9 506.2,396.9"/>
  <polygon points="573.4,364.5 573.4,358.7 591.4,358.7 591.4,364.5 573.4,364.5"/>
  <polygon points="595.8,417.2 595.8,358.7 613.8,358.7 613.8,417.2 595.8,417.2"/>
  <polygon points="640.6,359.4 640.6,358.7 658.6,358.7 658.6,359.4 640.6,359.4"/>
  <polygon points="663.0,402.7 663.0,358.7 681.0,358.7 681.0,402.7 663.0,402.7"/>
  <polygon points="685.4,367.9 685.4,358.7 703.4,358.7 703.4,367.9 685.4,367.9"/>
  <polygon points="707.8,422.6 707.8,358.7 725.8,358.7 725.8,422.6 707.8,422.6"/>
  <polygon points="730.2,411.8 730.2,358.7 748.2,358.7 748.2,411.8 730.2,411.8"/>
  <polygon points="752.6,401.2 752.6,358.7 770.6,358.7 770.6,401.2 752.6,401.2"/>
  <polygon points="775.0,371.1 775.0,358.7 793.0,358.7 793.0,371.1 775.0,371.1"/>
  <polygon points="797.4,380.9 797.4,358.7 815.4,358.7 815.4,380.9 797.4,380.9"/>
  <polygon points="842.2,363.9 842.2,358.7 860.2,358.7 860.2,363.9 842.2,363.9"/>
  <polygon points="864.6,397.4 864.6,358.7 882.6,358.7 882.6,397.4 864.6,397.4"/>
</g>
<g stroke="#000" stroke-width="0.90" fill="#E78AC3"  clip-path="url(#axis_clip)">
  <polygon points="-389.8,391.9 -389.8,358.7 -371.8,358.7 -371.8,391.9 -389.8,391.9"/>
  <polygon points="-277.8,367.6 -277.8,358.7 -259.8,358.7 -259.8,367.6 -277.8,367.6"/>
  <polygon points="-255.4,404.5 -255.4,358.7 -237.4,358.7 -237.4,404.5 -255.4,404.5"/>
  <polygon points="-210.6,375.0 -210.6,358.7 -192.6,358.7 -192.6,375.0 -210.6,375.0"/>
  <polygon points="-165.8,371.3 -165.8,358.7 -147.8,358.7 -147.8,371.3 -165.8,371.3"/>
  <polygon points="-98.6,470.2 -98.6,358.7 -80.6,358.7 -80.6,470.2 -98.6,470.2"/>
  <polygon points="170.2,374.6 170.2,358.7 188.2,358.7 188.2,374.6 170.2,374.6"/>
  <polygon points="819.8,486.4 819.8,358.7 837.8,358.7 837.8,486.4 819.8,486.4"/>
</g>
<g>
  <g class="pl_2 marker" transform="translate(156.8,358.7)"><use xlink:href="#mk4"/><text class="dp1" y="-25">0.0</text></g>
  <g class="pl_2 marker" transform="translate(179.2,366.6)"><use xlink:href="#mk4"/><text class="dp1" y="-25">-1.0</text></g>
  <g class="pl_2 marker" transform="translate(201.6,358.7)"><use xlink:href="#mk4"/><text class="dp1" y="-25">0.0</text></g>
  <g class="pl_2 marker" transform="translate(224.0,358.7)"><use xlink:href="#mk4"/><text class="dp1" y="-25">0.0</text></g>
  <g class="pl_2 marker" transform="translate(246.4,358.7)"><use xlink:href="#mk4"/><text class="dp1" y="-25">0.0</text></g>
  <g class="pl_2 marker" transform="translate(268.8,358.7)"><use xlink:href="#mk4"/><text class="dp1" y="-25">0.0</text></g>
  <g class="pl_2 marker" transform="translate(291.2,358.7)"><use xlink:href="#mk4"/><text class="dp1" y="-25">0.0</text></g>
  <g class="pl_2 marker" transform="translate(313.6,358.7)"><use xlink:href="#mk4"/><text class="dp1" y="-25">0.0</text></g>
  <g class="pl_2 marker" transform="translate(336.0,358.7)"><use xlink:href="#mk4"/><text class="dp1" y="-25">0.0</text></g>
  <g class="pl_2 marker" transform="translate(358.4,358.7)"><use xlink:href="#mk4"/><text class="dp1" y="-25">0.0</text></g>
  <g class="pl_2 marker" transform="translate(380.8,358.7)"><use xlink:href="#mk4"/><text class="dp1" y="-25">0.0</text></g>
  <g class="pl_2 marker" transform="translate(403.2,358.7)"><use xlink:href="#mk4"/><text class="dp1" y="-25">0.0</text></g>
  <g class="pl_2 marker" transform="translate(425.6,358.7)"><use xlink:href="#mk4"/><text class="dp1" y="-25">0.0</text></g>
  <g class="pl_2 marker" transform="translate(448.0,358.7)"><use xlink:href="#mk4"/><text class="dp1" y="-25">0.0</text></g>
  <g class="pl_2 marker" transform="translate(470.4,358.7)"><use xlink:href="#mk4"/><text class="dp1" y="-25">0.0</text></g>
  <g class="pl_2 marker" transform="translate(492.8,358.7)"><use xlink:href="#mk4"/><text class="dp1" y="-25">0.0</text></g>
  <g class="pl_2 marker" transform="translate(515.2,358.7)"><use xlink:href="#mk4"/><text class="dp1" y="-25">0.0</text></g>
  <g class="pl_2 marker" transform="translate(537.6,358.7)"><use xlink:href="#mk4"/><text class="dp1" y="-25">0.0</text></g>
  <g class="pl_2 marker" transform="translate(560.0,358.7)"><use xlink:href="#mk4"/><text class="dp1" y="-25">0.0</text></g>
  <g class="pl_2 marker" transform="translate(582.4,358.7)"><use xlink:href="#mk4"/><text class="dp1" y="-25">0.0</text></g>
  <g class="pl_2 marker" transform="translate(604.8,358.7)"><use xlink:href="#mk4"/><text class="dp1" y="-25">0.0</text></g>
  <g class="pl_2 marker" transform="translate(627.2,358.7)"><use xlink:href="#mk4"/><text class="dp1" y="-25">0.0</text></g>
  <g class="pl_2 marker" transform="translate(649.6,358.7)"><use xlink:href="#mk4"/><text class="dp1" y="-25">0.0</text></g>
  <g class="pl_2 marker" transform="translate(672.0,358.7)"><use xlink:href="#mk4"/><text class="dp1" y="-25">0.0</text></g>
  <g class="pl_2 marker" transform="translate(694.4,358.7)"><use xlink:href="#mk4"/><text class="dp1" y="-25">0.0</text></g>
  <g class="pl_2 marker" transform="translate(716.8,358.7)"><use xlink:href="#mk4"/><text class="dp1" y="-25">0.0</text></g>
  <g class="pl_2 marker" transform="translate(739.2,358.7)"><use xlink:href="#mk4"/><text class="dp1" y="-25">0.0</text></g>
  <g class="pl_2 marker" transform="translate(761.6,358.7)"><use xlink:href="#mk4"/><text class="dp1" y="-25">0.0</text></g>
  <g class="pl_2 marker" transform="translate(784.0,358.7)"><use xlink:href="#mk4"/><text class="dp1" y="-25">0.0</text></g>
  <g class="pl_2 marker" transform="translate(806.4,358.7)"><use xlink:href="#mk4"/><text class="dp1" y="-25">0.0</text></g>
  <g class="pl_2 marker" transform="translate(828.8,422.5)"><use xlink:href="#mk4"/><text class="dp1" y="-25">-8.4</text></g>
  <g class="pl_2 marker" transform="translate(851.2,358.7)"><use xlink:href="#mk4"/><text class="dp1" y="-25">0.0</text></g>
  <g class="pl_2 marker" transform="translate(873.6,358.7)"><use xlink:href="#mk4"/><text class="dp1" y="-25">0.0</text></g>
  <g class="pl_2 marker" transform="translate(896.0,358.7)"><use xlink:href="#mk4"/><text class="dp1" y="-25">0.0</text></g>
</g>
<g>
  <g class="pl_2 marker" transform="translate(156.8,358.7)"><use xlink:href="#mk3"/><text class="dp1" y="-25">0.0</text></g>
  <g class="pl_2 marker" transform="translate(179.2,374.6)"><use xlink:href="#mk3"/><text class="dp1" y="-25">0.0</text></g>
  <g class="pl_2 marker" transform="translate(201.6,361.0)"><use xlink:href="#mk3"/><text class="dp1" y="-25">-0.3</text></g>
  <g class="pl_2 marker" transform="translate(224.0,375.1)"><use xlink:href="#mk3"/><text class="dp1" y="-25">-2.2</text></g>
  <g class="pl_2 marker" transform="translate(246.4,367.8)"><use xlink:href="#mk3"/><text class="dp1" y="-25">-1.2</text></g>
  <g class="pl_2 marker" transform="translate(268.8,359.4)"><use xlink:href="#mk3"/><text class="dp1" y="-25">-0.1</text></g>
  <g class="pl_2 marker" transform="translate(291.2,383.8)"><use xlink:href="#mk3"/><text class="dp1" y="-25">-3.3</text></g>
  <g class="pl_2 marker" transform="translate(313.6,358.7)"><use xlink:href="#mk3"/><text class="dp1" y="-25">0.0</text></g>
  <g class="pl_2 marker" transform="translate(336.0,359.5)"><use xlink:href="#mk3"/><text class="dp1" y="-25">-0.1</text></g>
  <g class="pl_2 marker" transform="translate(358.4,400.9)"><use xlink:href="#mk3"/><text class="dp1" y="-25">-5.5</text></g>
  <g class="pl_2 marker" transform="translate(380.8,358.7)"><use xlink:href="#mk3"/><text class="dp1" y="-25">0.0</text></g>
  <g class="pl_2 marker" transform="translate(403.2,390.7)"><use xlink:href="#mk3"/><text class="dp1" y="-25">-4.2</text></g>
  <g class="pl_2 marker" transform="translate(425.6,361.1)"><use xlink:href="#mk3"/><text class="dp1" y="-25">-0.3</text></g>
  <g class="pl_2 marker" transform="translate(448.0,389.0)"><use xlink:href="#mk3"/><text class="dp1" y="-25">-4.0</text></g>
  <g class="pl_2 marker" transform="translate(470.4,358.7)"><use xlink:href="#mk3"/><text class="dp1" y="-25">0.0</text></g>
  <g class="pl_2 marker" transform="translate(492.8,373.1)"><use xlink:href="#mk3"/><text class="dp1" y="-25">-1.9</text></g>
  <g class="pl_2 marker" transform="translate(515.2,377.8)"><use xlink:href="#mk3"/><text class="dp1" y="-25">-2.5</text></g>
  <g class="pl_2 marker" transform="translate(537.6,358.7)"><use xlink:href="#mk3"/><text class="dp1" y="-25">0.0</text></g>
  <g class="pl_2 marker" transform="translate(560.0,358.7)"><use xlink:href="#mk3"/><text class="dp1" y="-25">0.0</text></g>
  <g class="pl_2 marker" transform="translate(582.4,361.6)"><use xlink:href="#mk3"/><text class="dp1" y="-25">-0.4</text></g>
  <g class="pl_2 marker" transform="translate(604.8,387.9)"><use xlink:href="#mk3"/><text class="dp1" y="-25">-3.8</text></g>
  <g class="pl_2 marker" transform="translate(627.2,358.7)"><use xlink:href="#mk3"/><text class="dp1" y="-25">0.0</text></g>
  <g class="pl_2 marker" transform="translate(649.6,359.0)"><use xlink:href="#mk3"/><text class="dp1" y="-25">-0.0</text></g>
  <g class="pl_2 marker" transform="translate(672.0,380.7)"><use xlink:href="#mk3"/><text class="dp1" y="-25">-2.9</text></g>
  <g class="pl_2 marker" transform="translate(694.4,363.3)"><use xlink:href="#mk3"/><text class="dp1" y="-25">-0.6</text></g>
  <g class="pl_2 marker" transform="translate(716.8,390.6)"><use xlink:href="#mk3"/><text class="dp1" y="-25">-4.2</text></g>
  <g class="pl_2 marker" transform="translate(739.2,385.2)"><use xlink:href="#mk3"/><text class="dp1" y="-25">-3.5</text></g>
  <g class="pl_2 marker" transform="translate(761.6,380.0)"><use xlink:href="#mk3"/><text class="dp1" y="-25">-2.8</text></g>
  <g class="pl_2 marker" transform="translate(784.0,364.9)"><use xlink:href="#mk3"/><text class="dp1" y="-25">-0.8</text></g>
  <g class="pl_2 marker" transform="translate(806.4,369.8)"><use xlink:href="#mk3"/><text class="dp1" y="-25">-1.5</text></g>
  <g class="pl_2 marker" transform="translate(828.8,486.4)"><use xlink:href="#mk3"/><text class="dp1" y="-25">0.0</text></g>
  <g class="pl_2 marker" transform="translate(851.2,361.3)"><use xlink:href="#mk3"/><text class="dp1" y="-25">-0.3</text></g>
  <g class="pl_2 marker" transform="translate(873.6,378.0)"><use xlink:href="#mk3"/><text class="dp1" y="-25">-2.5</text></g>
  <g class="pl_2 marker" transform="translate(896.0,358.7)"><use xlink:href="#mk3"/><text class="dp1" y="-25">0.0</text></g>
</g>
<g>
  <g class="pl_2 marker" transform="translate(156.8,361.7)"><use xlink:href="#mk2"/><text class="dp1" y="-25">-0.4</text></g>
  <g class="pl_2 marker" transform="translate(179.2,374.6)"><use xlink:href="#mk2"/><text class="dp1" y="-25">0.0</text></g>
  <g class="pl_2 marker" transform="translate(201.6,363.4)"><use xlink:href="#mk2"/><text class="dp1" y="-25">0.0</text></g>
  <g class="pl_2 marker" transform="translate(224.0,391.6)"><use xlink:href="#mk2"/><text class="dp1" y="-25">0.0</text></g>
  <g class="pl_2 marker" transform="translate(246.4,376.9)"><use xlink:href="#mk2"/><text class="dp1" y="-25">0.0</text></g>
  <g class="pl_2 marker" transform="translate(268.8,367.0)"><use xlink:href="#mk2"/><text class="dp1" y="-25">-0.9</text></g>
  <g class="pl_2 marker" transform="translate(291.2,409.0)"><use xlink:href="#mk2"/><text class="dp1" y="-25">0.0</text></g>
  <g class="pl_2 marker" transform="translate(313.6,368.4)"><use xlink:href="#mk2"/><text class="dp1" y="-25">-1.3</text></g>
  <g class="pl_2 marker" transform="translate(336.0,389.0)"><use xlink:href="#mk2"/><text class="dp1" y="-25">-3.8</text></g>
  <g class="pl_2 marker" transform="translate(358.4,443.2)"><use xlink:href="#mk2"/><text class="dp1" y="-25">0.0</text></g>
  <g class="pl_2 marker" transform="translate(380.8,375.9)"><use xlink:href="#mk2"/><text class="dp1" y="-25">-2.3</text></g>
  <g class="pl_2 marker" transform="translate(403.2,422.7)"><use xlink:href="#mk2"/><text class="dp1" y="-25">0.0</text></g>
  <g class="pl_2 marker" transform="translate(425.6,365.8)"><use xlink:href="#mk2"/><text class="dp1" y="-25">-0.3</text></g>
  <g class="pl_2 marker" transform="translate(448.0,420.2)"><use xlink:href="#mk2"/><text class="dp1" y="-25">-0.1</text></g>
  <g class="pl_2 marker" transform="translate(470.4,375.4)"><use xlink:href="#mk2"/><text class="dp1" y="-25">-2.2</text></g>
  <g class="pl_2 marker" transform="translate(492.8,391.3)"><use xlink:href="#mk2"/><text class="dp1" y="-25">-0.5</text></g>
  <g class="pl_2 marker" transform="translate(515.2,396.9)"><use xlink:href="#mk2"/><text class="dp1" y="-25">0.0</text></g>
  <g class="pl_2 marker" transform="translate(537.6,364.2)"><use xlink:href="#mk2"/><text class="dp1" y="-25">-0.7</text></g>
  <g class="pl_2 marker" transform="translate(560.0,358.7)"><use xlink:href="#mk2"/><text class="dp1" y="-25">0.0</text></g>
  <g class="pl_2 marker" transform="translate(582.4,364.5)"><use xlink:href="#mk2"/><text class="dp1" y="-25">0.0</text></g>
  <g class="pl_2 marker" transform="translate(604.8,419.3)"><use xlink:href="#mk2"/><text class="dp1" y="-25">-0.3</text></g>
  <g class="pl_2 marker" transform="translate(627.2,360.4)"><use xlink:href="#mk2"/><text class="dp1" y="-25">-0.2</text></g>
  <g class="pl_2 marker" transform="translate(649.6,359.4)"><use xlink:href="#mk2"/><text class="dp1" y="-25">0.0</text></g>
  <g class="pl_2 marker" transform="translate(672.0,402.7)"><use xlink:href="#mk2"/><text class="dp1" y="-25">0.0</text></g>
  <g class="pl_2 marker" transform="translate(694.4,367.9)"><use xlink:href="#mk2"/><text class="dp1" y="-25">0.0</text></g>
  <g class="pl_2 marker" transform="translate(716.8,422.6)"><use xlink:href="#mk2"/><text class="dp1" y="-25">0.0</text></g>
  <g class="pl_2 marker" transform="translate(739.2,411.8)"><use xlink:href="#mk2"/><text class="dp1" y="-25">0.0</text></g>
  <g class="pl_2 marker" transform="translate(761.6,406.8)"><use xlink:href="#mk2"/><text class="dp1" y="-25">-0.7</text></g>
  <g class="pl_2 marker" transform="translate(784.0,371.1)"><use xlink:href="#mk2"/><text class="dp1" y="-25">0.0</text></g>
  <g class="pl_2 marker" transform="translate(806.4,394.0)"><use xlink:href="#mk2"/><text class="dp1" y="-25">-1.7</text></g>
  <g class="pl_2 marker" transform="translate(828.8,503.1)"><use xlink:href="#mk2"/><text class="dp1" y="-25">-2.2</text></g>
  <g class="pl_2 marker" transform="translate(851.2,363.9)"><use xlink:href="#mk2"/><text class="dp1" y="-25">0.0</text></g>
  <g class="pl_2 marker" transform="translate(873.6,397.4)"><use xlink:href="#mk2"/><text class="dp1" y="-25">0.0</text></g>
  <g class="pl_2 marker" transform="translate(896.0,358.7)"><use xlink:href="#mk2"/><text class="dp1" y="-25">0.0</text></g>
</g>
<g>
  <g class="pl_2 marker" transform="translate(156.8,364.8)"><use xlink:href="#mk1"/><text class="dp1" y="-25">0.0</text></g>
  <g class="pl_2 marker" transform="translate(179.2,374.6)"><use xlink:href="#mk1"/><text class="dp1" y="-25">0.0</text></g>
  <g class="pl_2 marker" transform="translate(201.6,363.4)"><use xlink:href="#mk1"/><text class="dp1" y="-25">0.0</text></g>
  <g class="pl_2 marker" transform="translate(224.0,391.8)"><use xlink:href="#mk1"/><text class="dp1" y="-25">-0.0</text></g>
  <g class="pl_2 marker" transform="translate(246.4,376.9)"><use xlink:href="#mk1"/><text class="dp1" y="-25">0.0</text></g>
  <g class="pl_2 marker" transform="translate(268.8,373.9)"><use xlink:href="#mk1"/><text class="dp1" y="-25">0.0</text></g>
  <g class="pl_2 marker" transform="translate(291.2,409.0)"><use xlink:href="#mk1"/><text class="dp1" y="-25">0.0</text></g>
  <g class="pl_2 marker" transform="translate(313.6,378.2)"><use xlink:href="#mk1"/><text class="dp1" y="-25">0.0</text></g>
  <g class="pl_2 marker" transform="translate(336.0,418.9)"><use xlink:href="#mk1"/><text class="dp1" y="-25">-0.2</text></g>
  <g class="pl_2 marker" transform="translate(358.4,444.5)"><use xlink:href="#mk1"/><text class="dp1" y="-25">-0.2</text></g>
  <g class="pl_2 marker" transform="translate(380.8,393.4)"><use xlink:href="#mk1"/><text class="dp1" y="-25">-0.0</text></g>
  <g class="pl_2 marker" transform="translate(403.2,423.9)"><use xlink:href="#mk1"/><text class="dp1" y="-25">-0.1</text></g>
  <g class="pl_2 marker" transform="translate(425.6,368.1)"><use xlink:href="#mk1"/><text class="dp1" y="-25">0.0</text></g>
  <g class="pl_2 marker" transform="translate(448.0,422.7)"><use xlink:href="#mk1"/><text class="dp1" y="-25">-0.2</text></g>
  <g class="pl_2 marker" transform="translate(470.4,392.5)"><use xlink:href="#mk1"/><text class="dp1" y="-25">-0.0</text></g>
  <g class="pl_2 marker" transform="translate(492.8,395.6)"><use xlink:href="#mk1"/><text class="dp1" y="-25">-0.1</text></g>
  <g class="pl_2 marker" transform="translate(515.2,396.9)"><use xlink:href="#mk1"/><text class="dp1" y="-25">0.0</text></g>
  <g class="pl_2 marker" transform="translate(537.6,369.8)"><use xlink:href="#mk1"/><text class="dp1" y="-25">0.0</text></g>
  <g class="pl_2 marker" transform="translate(560.0,358.7)"><use xlink:href="#mk1"/><text class="dp1" y="-25">0.0</text></g>
  <g class="pl_2 marker" transform="translate(582.4,364.5)"><use xlink:href="#mk1"/><text class="dp1" y="-25">0.0</text></g>
  <g class="pl_2 marker" transform="translate(604.8,423.3)"><use xlink:href="#mk1"/><text class="dp1" y="-25">-0.2</text></g>
  <g class="pl_2 marker" transform="translate(627.2,362.2)"><use xlink:href="#mk1"/><text class="dp1" y="-25">0.0</text></g>
  <g class="pl_2 marker" transform="translate(649.6,359.4)"><use xlink:href="#mk1"/><text class="dp1" y="-25">0.0</text></g>
  <g class="pl_2 marker" transform="translate(672.0,403.6)"><use xlink:href="#mk1"/><text class="dp1" y="-25">-0.1</text></g>
  <g class="pl_2 marker" transform="translate(694.4,367.9)"><use xlink:href="#mk1"/><text class="dp1" y="-25">0.0</text></g>
  <g class="pl_2 marker" transform="translate(716.8,424.4)"><use xlink:href="#mk1"/><text class="dp1" y="-25">-0.2</text></g>
  <g class="pl_2 marker" transform="translate(739.2,413.0)"><use xlink:href="#mk1"/><text class="dp1" y="-25">-0.2</text></g>
  <g class="pl_2 marker" transform="translate(761.6,413.5)"><use xlink:href="#mk1"/><text class="dp1" y="-25">-0.2</text></g>
  <g class="pl_2 marker" transform="translate(784.0,371.1)"><use xlink:href="#mk1"/><text class="dp1" y="-25">0.0</text></g>
  <g class="pl_2 marker" transform="translate(806.4,407.6)"><use xlink:href="#mk1"/><text class="dp1" y="-25">-0.1</text></g>
  <g class="pl_2 marker" transform="translate(828.8,520.7)"><use xlink:href="#mk1"/><text class="dp1" y="-25">-0.1</text></g>
  <g class="pl_2 marker" transform="translate(851.2,363.9)"><use xlink:href="#mk1"/><text class="dp1" y="-25">0.0</text></g>
  <g class="pl_2 marker" transform="translate(873.6,398.4)"><use xlink:href="#mk1"/><text class="dp1" y="-25">-0.1</text></g>
  <g class="pl_2 marker" transform="translate(896.0,358.7)"><use xlink:href="#mk1"/><text class="dp1" y="-25">0.0</text></g>
</g>
<g class="pl" fill="#000" stroke="#000" stroke-width="0.900">
  <circle cx="156.8" cy="253.4" r="5.4" />
  <circle cx="179.2" cy="260.2" r="5.4" />
  <circle cx="201.6" cy="263.9" r="5.4" />
  <circle cx="224.0" cy="303.6" r="5.4" />
  <circle cx="246.4" cy="276.0" r="5.4" />
  <circle cx="268.8" cy="259.7" r="5.4" />
  <circle cx="291.2" cy="236.7" r="5.4" />
  <circle cx="313.6" cy="290.7" r="5.4" />
  <circle cx="336.0" cy="327.1" r="5.4" />
  <circle cx="358.4" cy="210.8" r="5.4" />
  <circle cx="380.8" cy="322.2" r="5.4" />
  <circle cx="403.2" cy="332.7" r="5.4" />
  <circle cx="425.6" cy="310.5" r="5.4" />
  <circle cx="448.0" cy="306.1" r="5.4" />
  <circle cx="470.4" cy="268.8" r="5.4" />
  <circle cx="492.8" cy="272.6" r="5.4" />
  <circle cx="515.2" cy="233.8" r="5.4" />
  <circle cx="537.6" cy="240.8" r="5.4" />
  <circle cx="560.0" cy="257.1" r="5.4" />
  <circle cx="582.4" cy="228.6" r="5.4" />
  <circle cx="604.8" cy="297.1" r="5.4" />
  <circle cx="627.2" cy="279.3" r="5.4" />
  <circle cx="649.6" cy="224.2" r="5.4" />
  <circle cx="672.0" cy="299.4" r="5.4" />
  <circle cx="694.4" cy="241.7" r="5.4" />
  <circle cx="716.8" cy="297.8" r="5.4" />
  <circle cx="739.2" cy="280.9" r="5.4" />
  <circle cx="761.6" cy="307.8" r="5.4" />
  <circle cx="784.0" cy="254.2" r="5.4" />
  <circle cx="806.4" cy="347.0" r="5.4" />
  <circle cx="828.8" cy="474.1" r="5.4" />
  <circle cx="851.2" cy="195.1" r="5.4" />
  <circle cx="873.6" cy="269.3" r="5.4" />
  <circle cx="896.0" cy="234.3" r="5.4" />
</g>
<text transform="translate(945.6,352.5)" dy="8.1" font-size="27.00" fill="#A6D854" stroke="none">Population</text>
<text transform="translate(945.6,304.7)" dy="8.1" font-size="27.00" fill="#E78AC3" stroke="none">GDP/Population</text>
<text transform="translate(945.6,278.8)" dy="8.1" font-size="27.00" fill="#66C2A5" stroke="none">Energy/GDP</text>
<text transform="translate(945.6,252.9)" dy="8.1" font-size="27.00" fill="#8DA0CB" stroke="none">CO<tspan dy="0.2em"><tspan style="font-size:70%">2</tspan></tspan><tspan dy="-0.2em">/</tspan>Energy</text>
<text transform="translate(945.6,227.0)" dy="8.1" font-size="27.00" fill="#808080" stroke="none">Interactions</text>
<text transform="translate(945.6,201.1)" dy="8.1" font-size="27.00" fill="#000" stroke="none">Fossil CO<tspan dy="0.2em"><tspan style="font-size:70%">2</tspan></tspan><tspan dy="-0.2em"></tspan></text>
<polyline class="pl" points="910.8,352.5 912.4,352.5 913.8,352.5 915.2,352.5 916.4,352.5 917.6,352.5 918.8,352.5 919.8,352.5 920.8,352.5 921.7,352.5 922.7,352.5 923.5,352.5 924.4,352.5 925.2,352.5 926.0,352.5 926.8,352.5 927.6,352.5 928.4,352.5 929.3,352.5 930.1,352.5 931.1,352.5 932.0,352.5 933.0,352.5 934.0,352.5 935.2,352.5 936.4,352.5 937.6,352.5 939.0,352.5 940.4,352.5 942.0,352.5" stroke="#A6D854" stroke-width="0.90" stroke-opacity="1.00" fill="none" />
<polyline class="pl" points="910.8,300.4 912.4,300.4 913.8,300.4 915.2,300.5 916.4,300.6 917.6,300.7 918.8,300.8 919.8,301.0 920.8,301.2 921.7,301.4 922.7,301.6 923.5,301.8 924.4,302.0 925.2,302.2 926.0,302.4 926.8,302.6 927.6,302.9 928.4,303.1 929.3,303.3 930.1,303.5 931.1,303.7 932.0,303.9 933.0,304.0 934.0,304.2 935.2,304.3 936.4,304.4 937.6,304.5 939.0,304.6 940.4,304.7 942.0,304.7" stroke="#E78AC3" stroke-width="0.90" stroke-opacity="1.00" fill="none" />
<polyline class="pl" points="910.8,251.7 912.4,251.8 913.8,252.1 915.2,252.5 916.4,253.1 917.6,253.8 918.8,254.7 919.8,255.7 920.8,256.7 921.7,257.9 922.7,259.1 923.5,260.4 924.4,261.8 925.2,263.1 926.0,264.5 926.8,265.9 927.6,267.3 928.4,268.7 929.3,270.0 930.1,271.3 931.1,272.6 932.0,273.7 933.0,274.8 934.0,275.8 935.2,276.6 936.4,277.4 937.6,278.0 939.0,278.4 940.4,278.7 942.0,278.8" stroke="#66C2A5" stroke-width="0.90" stroke-opacity="1.00" fill="none" />
<polyline class="pl" points="910.8,242.7 912.4,242.7 913.8,242.8 915.2,243.0 916.4,243.2 917.6,243.5 918.8,243.8 919.8,244.2 920.8,244.6 921.7,245.0 922.7,245.5 923.5,246.0 924.4,246.5 925.2,247.0 926.0,247.5 926.8,248.0 927.6,248.6 928.4,249.1 929.3,249.6 930.1,250.1 931.1,250.5 932.0,251.0 933.0,251.4 934.0,251.7 935.2,252.1 936.4,252.3 937.6,252.6 939.0,252.7 940.4,252.8 942.0,252.9" stroke="#8DA0CB" stroke-width="0.90" stroke-opacity="1.00" fill="none" />
<polyline class="pl" points="910.8,235.3 912.4,235.3 913.8,235.2 915.2,235.1 916.4,234.9 917.6,234.6 918.8,234.4 919.8,234.1 920.8,233.8 921.7,233.4 922.7,233.0 923.5,232.6 924.4,232.2 925.2,231.8 926.0,231.4 926.8,230.9 927.6,230.5 928.4,230.1 929.3,229.7 930.1,229.3 931.1,228.9 932.0,228.5 933.0,228.2 934.0,227.9 935.2,227.6 936.4,227.4 937.6,227.2 939.0,227.1 940.4,227.0 942.0,227.0" stroke="#808080" stroke-width="0.90" stroke-opacity="1.00" fill="none" />
<polyline class="pl" points="910.8,234.3 912.4,234.2 913.8,233.8 915.2,233.3 916.4,232.6 917.6,231.7 918.8,230.6 919.8,229.4 920.8,228.1 921.7,226.7 922.7,225.2 923.5,223.6 924.4,221.9 925.2,220.2 926.0,218.5 926.8,216.8 927.6,215.1 928.4,213.4 929.3,211.8 930.1,210.2 931.1,208.7 932.0,207.2 933.0,205.9 934.0,204.7 935.2,203.7 936.4,202.8 937.6,202.1 939.0,201.5 940.4,201.2 942.0,201.1" stroke="#000" stroke-width="0.90" stroke-opacity="1.00" fill="none" />
<text transform="translate(145.6,47.2)" dy="0.0" font-size="27.00" fill="#808080" stroke="none">Kaya decomposition of emissions growth: India</text>
<text transform="translate(157.6,60.7)" dy="18.0" font-size="18.00" fill="#808080" stroke="none">Percentage change relative to previous year</text>
<text transform="translate(157.6,82.3)" dy="18.0" font-size="18.00" fill="#808080" stroke="none">Adjusted for leap years</text>
<text transform="translate(160.3,666.1)" font-size="19.80" font-family="Helvetica" fill="#BFBFBF" stroke="none" xml:space="preserve">Global Carbon Project</text>
<g>
  <rect x="123.0" y="651.4" width="34" height="17" fill="#FFF" stroke="none"/>
  <g transform="translate(124.0,652.4) scale(0.24)">
  <g><circle fill="#FFF" cx="37.79" cy="28.5" r="28.84"/>
     <circle fill="none" cx="37.79" cy="28.5" r="28.84" stroke="#BFBFBF" stroke-width="5.5"/>
     <path fill="#BFBFBF" d="M37.16,23.19 l-4.29,2.23c-0.458-0.951-1.02-1.62-1.69-2c-0.667-0.38-1.29-0.571-1.86-0.571c-2.86,0-4.29,1.89-4.29,5.66 c0,1.71,0.36,3.08,1.09,4.11c0.724,1.03,1.79,1.54,3.2,1.54c1.87,0,3.18-0.915,3.94-2.74l3.94,2 c-0.838,1.56-2,2.79-3.49,3.69c-1.48,0.896-3.12,1.34-4.91,1.34c-2.86,0-5.16-0.875-6.92-2.63 c-1.75-1.75-2.63-4.19-2.63-7.31c0-3.05,0.886-5.47,2.66-7.26c1.77-1.79,4.01-2.69,6.72-2.69 C32.6,18.56,35.44,20.1,37.16,23.19z
              M55.61,23.19l-4.23,2.23c-0.457-0.951-1.02-1.62-1.69-2 c-0.668-0.38-1.31-0.571-1.91-0.571c-2.86,0-4.29,1.89-4.29,5.66c0,1.71,0.363,3.08,1.09,4.11 c0.723,1.03,1.79,1.54,3.2,1.54c1.87,0,3.18-0.915,3.94-2.74l4,2c-0.875,1.56-2.06,2.79-3.54,3.69 c-1.49,0.9-3.11,1.34-4.86,1.34c-2.9,0-5.21-0.875-6.94-2.63c-1.74-1.75-2.6-4.19-2.6-7.31 c0-3.05,0.885-5.47,2.66-7.26c1.77-1.79,4.01-2.69,6.71-2.69C51.12,18.56,53.944,20.1,55.61,23.19z"/>
  </g></g>
  <g transform="translate(140.2,652.4) scale(0.24)">
  <g><circle fill="#FFF" cx="37.79" cy="28.5" r="28.84"/>
     <circle fill="none" cx="37.79" cy="28.5" r="28.84" stroke="#BFBFBF" stroke-width="5.5"/>
     <path fill="#BFBFBF" d="M46.129,20.557v13.085h-3.656v15.542h-9.944V33.643h-3.656V20.557 c0-0.572,0.2-1.057,0.599-1.457c0.401-0.399,0.887-0.6,1.457-0.6h13.144c0.533,0,1.01,0.2,1.428,0.6 C45.918,19.5,46.129,19.986,46.129,20.557z
              M33.042,12.329c0-3.008,1.485-4.514,4.458-4.514s4.457,1.504,4.457,4.514 c0,2.971-1.486,4.457-4.457,4.457S33.042,15.3,33.042,12.329z"/>
  </g></g>
</g>
</g>
</svg>
