<svg version="1.1" xmlns="http://www.w3.org/2000/svg" xmlns:xlink="http://www.w3.org/1999/xlink" width="100%" height="100%" viewBox="0 0 1200.000 674.916">
<title>Emissions and removals on forest land: Iceland</title>
<style type="text/css">
  #main {font-family:Helvetica,Arial,sans-serif; font-size:27.00px;
         fill-opacity:1; fill:#000000; stroke:none; stroke-linejoin:round; stroke-linecap:round; stroke-width:1.00;}
  .marker {stroke-opacity:0;fill-opacity:0;}
  .marker:hover {stroke-opacity:0.5; fill-opacity:1;}
  .ticklabel {font-size:27.00px;fill:#808080;stroke:none;font-family:Helvetica}
  .ytl {text-anchor:end;}
  .dp1 {pointer-events:none;font-size:70%;text-anchor:middle;fill:#000000;}
  .dp2 {pointer-events:none;font-size:70%;text-anchor:middle;fill:#FFFFFF;}
  .numtip {pointer-events:none;}
  .cc {opacity:0.25;}
.dl_fe {background-color:#FDFFDF;display:flex;margin:auto;align-items:center}
.dl_fe_p {font-size:20px;text-align:center;margin:3px}
.dl_el {display:none;pointer-events:none;}
.cc:hover + .dl_el {display:block;}
text:hover + .dl_el {display:block;}
</style>
<defs>
  <clipPath id="axis_clip"><rect x="145.8" y="54.2" width="761.2" height="532.8" /></clipPath>
  <path id="line_y" d="M 0,53.993 v 533.183" stroke="#262626" stroke-opacity="0.15" stroke-width="1.00"/>
  <path id="line_x" d="M 145.600,0 h 761.600" stroke="#262626" stroke-opacity="0.15" stroke-width="1.00"/>
  <path id="tick_y" d="M 145.600,0 h -6.000" stroke="#808080" stroke-width="0.90"/>
  <path id="tick_x" d="M 0,587.177 v 6.000" stroke="#808080" stroke-width="0.90"/>
</defs>
<g id="main">
<use xlink:href="#line_y" transform="translate(156.5,0)"/>
<use xlink:href="#line_y" transform="translate(265.3,0)"/>
<use xlink:href="#line_y" transform="translate(374.1,0)"/>
<use xlink:href="#line_y" transform="translate(482.9,0)"/>
<use xlink:href="#line_y" transform="translate(591.7,0)"/>
<use xlink:href="#line_y" transform="translate(700.5,0)"/>
<use xlink:href="#line_y" transform="translate(809.3,0)"/>
<use xlink:href="#line_y" transform="translate(896.3,0)"/>
<use xlink:href="#line_x" transform="translate(0,587.2)"/>
<use xlink:href="#line_x" transform="translate(0,434.8)"/>
<use xlink:href="#line_x" transform="translate(0,282.5)"/>
<use xlink:href="#line_x" transform="translate(0,130.2)"/>
<use xlink:href="#tick_y" transform="translate(0,587.2)"/>
<use xlink:href="#tick_y" transform="translate(0,434.8)"/>
<use xlink:href="#tick_y" transform="translate(0,282.5)"/>
<use xlink:href="#tick_y" transform="translate(0,130.2)"/>
<use xlink:href="#tick_x" transform="translate(156.5,0)"/>
<use xlink:href="#tick_x" transform="translate(265.3,0)"/>
<use xlink:href="#tick_x" transform="translate(374.1,0)"/>
<use xlink:href="#tick_x" transform="translate(482.9,0)"/>
<use xlink:href="#tick_x" transform="translate(591.7,0)"/>
<use xlink:href="#tick_x" transform="translate(700.5,0)"/>
<use xlink:href="#tick_x" transform="translate(809.3,0)"/>
<use xlink:href="#tick_x" transform="translate(896.3,0)"/>
<polyline points="145.6,53.993 145.6,587.177 907.2,587.177" stroke="#808080" stroke-width="0.90" fill="none"/>
<text class="ticklabel xtl" transform="translate(156.5,629.0)" text-anchor="middle">1990</text>
<text class="ticklabel xtl" transform="translate(265.3,629.0)" text-anchor="middle">1995</text>
<text class="ticklabel xtl" transform="translate(374.1,629.0)" text-anchor="middle">2000</text>
<text class="ticklabel xtl" transform="translate(482.9,629.0)" text-anchor="middle">2005</text>
<text class="ticklabel xtl" transform="translate(591.7,629.0)" text-anchor="middle">2010</text>
<text class="ticklabel xtl" transform="translate(700.5,629.0)" text-anchor="middle">2015</text>
<text class="ticklabel xtl" transform="translate(809.3,629.0)" text-anchor="middle">2020</text>
<text class="ticklabel xtl" transform="translate(896.3,629.0)" text-anchor="middle">2024</text>
<text class="ticklabel ytl" transform="translate(128.8,595.3)">-0.6</text>
<text class="ticklabel ytl" transform="translate(128.8,442.9)">-0.4</text>
<text class="ticklabel ytl" transform="translate(128.8,290.6)">-0.2</text>
<text class="ticklabel ytl" transform="translate(128.8,138.3)">0 Mt</text>
<g stroke="#000" stroke-width="0.90" fill="#71B8D6"  clip-path="url(#axis_clip)">
  <polygon class="pl" points="147.8,129.1 147.8,129.8 165.2,129.8 165.2,129.1 147.8,129.1"/>
  <polygon class="pl" points="169.5,128.9 169.5,129.8 186.9,129.8 186.9,128.9 169.5,128.9"/>
  <polygon class="pl" points="191.3,128.6 191.3,129.7 208.7,129.7 208.7,128.6 191.3,128.6"/>
  <polygon class="pl" points="213.1,128.5 213.1,129.7 230.5,129.7 230.5,128.5 213.1,128.5"/>
  <polygon class="pl" points="234.8,128.3 234.8,129.7 252.2,129.7 252.2,128.3 234.8,128.3"/>
  <polygon class="pl" points="256.6,128.2 256.6,129.6 274.0,129.6 274.0,128.2 256.6,128.2"/>
  <polygon class="pl" points="278.3,128.0 278.3,129.5 295.7,129.5 295.7,128.0 278.3,128.0"/>
  <polygon class="pl" points="300.1,128.0 300.1,129.7 317.5,129.7 317.5,128.0 300.1,128.0"/>
  <polygon class="pl" points="321.9,127.8 321.9,129.6 339.3,129.6 339.3,127.8 321.9,127.8"/>
  <polygon class="pl" points="343.6,127.6 343.6,129.6 361.0,129.6 361.0,127.6 343.6,127.6"/>
  <polygon class="pl" points="365.4,127.1 365.4,129.6 382.8,129.6 382.8,127.1 365.4,127.1"/>
  <polygon class="pl" points="387.1,127.1 387.1,129.7 404.5,129.7 404.5,127.1 387.1,127.1"/>
  <polygon class="pl" points="408.9,126.6 408.9,129.4 426.3,129.4 426.3,126.6 408.9,126.6"/>
  <polygon class="pl" points="430.7,125.9 430.7,129.0 448.1,129.0 448.1,125.9 430.7,125.9"/>
  <polygon class="pl" points="452.4,126.0 452.4,129.2 469.8,129.2 469.8,126.0 452.4,126.0"/>
  <polygon class="pl" points="474.2,125.2 474.2,128.4 491.6,128.4 491.6,125.2 474.2,125.2"/>
  <polygon class="pl" points="495.9,125.0 495.9,128.4 513.3,128.4 513.3,125.0 495.9,125.0"/>
  <polygon class="pl" points="517.7,125.4 517.7,129.0 535.1,129.0 535.1,125.4 517.7,125.4"/>
  <polygon class="pl" points="539.5,124.3 539.5,127.9 556.9,127.9 556.9,124.3 539.5,124.3"/>
  <polygon class="pl" points="561.2,123.1 561.2,126.9 578.6,126.9 578.6,123.1 561.2,123.1"/>
  <polygon class="pl" points="583.0,120.1 583.0,124.1 600.4,124.1 600.4,120.1 583.0,120.1"/>
  <polygon class="pl" points="604.7,120.2 604.7,124.2 622.1,124.2 622.1,120.2 604.7,120.2"/>
  <polygon class="pl" points="626.5,121.0 626.5,125.1 643.9,125.1 643.9,121.0 626.5,121.0"/>
  <polygon class="pl" points="648.3,118.2 648.3,122.2 665.7,122.2 665.7,118.2 648.3,118.2"/>
  <polygon class="pl" points="670.0,117.6 670.0,121.7 687.4,121.7 687.4,117.6 670.0,117.6"/>
  <polygon class="pl" points="691.8,119.2 691.8,123.3 709.2,123.3 709.2,119.2 691.8,119.2"/>
  <polygon class="pl" points="713.5,119.9 713.5,124.1 730.9,124.1 730.9,119.9 713.5,119.9"/>
  <polygon class="pl" points="735.3,119.0 735.3,123.1 752.7,123.1 752.7,119.0 735.3,119.0"/>
  <polygon class="pl" points="757.1,121.3 757.1,125.5 774.5,125.5 774.5,121.3 757.1,121.3"/>
  <polygon class="pl" points="778.8,121.8 778.8,126.0 796.2,126.0 796.2,121.8 778.8,121.8"/>
  <polygon class="pl" points="800.6,120.7 800.6,125.0 818.0,125.0 818.0,120.7 800.6,120.7"/>
  <polygon class="pl" points="822.3,121.7 822.3,126.1 839.7,126.1 839.7,121.7 822.3,121.7"/>
  <polygon class="pl" points="844.1,112.8 844.1,117.4 861.5,117.4 861.5,112.8 844.1,112.8"/>
  <polygon class="pl" points="865.9,121.9 865.9,126.5 883.3,126.5 883.3,121.9 865.9,121.9"/>
  <polygon class="pl" points="887.6,114.0 887.6,118.7 905.0,118.7 905.0,114.0 887.6,114.0"/>
</g>
<g stroke="#000" stroke-width="0.90" fill="#87AC55"  clip-path="url(#axis_clip)">
</g>
<g stroke="#000" stroke-width="0.90" fill="#834B8E"  clip-path="url(#axis_clip)">
</g>
<g stroke="#000" stroke-width="0.90" fill="#D5AF54"  clip-path="url(#axis_clip)">
</g>
<g stroke="#000" stroke-width="0.90" fill="#D97B53"  clip-path="url(#axis_clip)">
  <polygon class="pl" points="147.8,129.8 147.8,130.2 165.2,130.2 165.2,129.8 147.8,129.8"/>
  <polygon class="pl" points="169.5,129.8 169.5,130.2 186.9,130.2 186.9,129.8 169.5,129.8"/>
  <polygon class="pl" points="191.3,129.7 191.3,130.2 208.7,130.2 208.7,129.7 191.3,129.7"/>
  <polygon class="pl" points="213.1,129.7 213.1,130.2 230.5,130.2 230.5,129.7 213.1,129.7"/>
  <polygon class="pl" points="234.8,129.7 234.8,130.2 252.2,130.2 252.2,129.7 234.8,129.7"/>
  <polygon class="pl" points="256.6,129.6 256.6,130.2 274.0,130.2 274.0,129.6 256.6,129.6"/>
  <polygon class="pl" points="278.3,129.5 278.3,130.2 295.7,130.2 295.7,129.5 278.3,129.5"/>
  <polygon class="pl" points="300.1,129.7 300.1,130.2 317.5,130.2 317.5,129.7 300.1,129.7"/>
  <polygon class="pl" points="321.9,129.6 321.9,130.2 339.3,130.2 339.3,129.6 321.9,129.6"/>
  <polygon class="pl" points="343.6,129.6 343.6,130.2 361.0,130.2 361.0,129.6 343.6,129.6"/>
  <polygon class="pl" points="365.4,129.6 365.4,130.2 382.8,130.2 382.8,129.6 365.4,129.6"/>
  <polygon class="pl" points="387.1,129.7 387.1,130.2 404.5,130.2 404.5,129.7 387.1,129.7"/>
  <polygon class="pl" points="408.9,129.4 408.9,130.2 426.3,130.2 426.3,129.4 408.9,129.4"/>
  <polygon class="pl" points="430.7,129.0 430.7,130.2 448.1,130.2 448.1,129.0 430.7,129.0"/>
  <polygon class="pl" points="452.4,129.2 452.4,130.2 469.8,130.2 469.8,129.2 452.4,129.2"/>
  <polygon class="pl" points="474.2,128.4 474.2,130.2 491.6,130.2 491.6,128.4 474.2,128.4"/>
  <polygon class="pl" points="495.9,128.4 495.9,130.2 513.3,130.2 513.3,128.4 495.9,128.4"/>
  <polygon class="pl" points="517.7,129.0 517.7,130.2 535.1,130.2 535.1,129.0 517.7,129.0"/>
  <polygon class="pl" points="539.5,127.9 539.5,130.2 556.9,130.2 556.9,127.9 539.5,127.9"/>
  <polygon class="pl" points="561.2,126.9 561.2,130.2 578.6,130.2 578.6,126.9 561.2,126.9"/>
  <polygon class="pl" points="583.0,124.1 583.0,130.2 600.4,130.2 600.4,124.1 583.0,124.1"/>
  <polygon class="pl" points="604.7,124.2 604.7,130.2 622.1,130.2 622.1,124.2 604.7,124.2"/>
  <polygon class="pl" points="626.5,125.1 626.5,130.2 643.9,130.2 643.9,125.1 626.5,125.1"/>
  <polygon class="pl" points="648.3,122.2 648.3,130.2 665.7,130.2 665.7,122.2 648.3,122.2"/>
  <polygon class="pl" points="670.0,121.7 670.0,130.2 687.4,130.2 687.4,121.7 670.0,121.7"/>
  <polygon class="pl" points="691.8,123.3 691.8,130.2 709.2,130.2 709.2,123.3 691.8,123.3"/>
  <polygon class="pl" points="713.5,124.1 713.5,130.2 730.9,130.2 730.9,124.1 713.5,124.1"/>
  <polygon class="pl" points="735.3,123.1 735.3,130.2 752.7,130.2 752.7,123.1 735.3,123.1"/>
  <polygon class="pl" points="757.1,125.5 757.1,130.2 774.5,130.2 774.5,125.5 757.1,125.5"/>
  <polygon class="pl" points="778.8,126.0 778.8,130.2 796.2,130.2 796.2,126.0 778.8,126.0"/>
  <polygon class="pl" points="800.6,125.0 800.6,130.2 818.0,130.2 818.0,125.0 800.6,125.0"/>
  <polygon class="pl" points="822.3,126.1 822.3,130.2 839.7,130.2 839.7,126.1 822.3,126.1"/>
  <polygon class="pl" points="844.1,117.4 844.1,130.2 861.5,130.2 861.5,117.4 844.1,117.4"/>
  <polygon class="pl" points="865.9,126.5 865.9,130.2 883.3,130.2 883.3,126.5 865.9,126.5"/>
  <polygon class="pl" points="887.6,118.7 887.6,130.2 905.0,130.2 905.0,118.7 887.6,118.7"/>
</g>
<g stroke="#000" stroke-width="0.90" fill="#66BF7D"  clip-path="url(#axis_clip)">
</g>
<g stroke="#000" stroke-width="0.90" fill="#71B8D6"  clip-path="url(#axis_clip)">
</g>
<g stroke="#000" stroke-width="0.90" fill="#87AC55"  clip-path="url(#axis_clip)">
  <polygon class="pl" points="147.8,155.1 147.8,147.7 165.2,147.7 165.2,155.1 147.8,155.1"/>
  <polygon class="pl" points="169.5,156.6 169.5,148.3 186.9,148.3 186.9,156.6 169.5,156.6"/>
  <polygon class="pl" points="191.3,161.0 191.3,150.8 208.7,150.8 208.7,161.0 191.3,161.0"/>
  <polygon class="pl" points="213.1,165.3 213.1,153.1 230.5,153.1 230.5,165.3 213.1,165.3"/>
  <polygon class="pl" points="234.8,168.0 234.8,154.3 252.2,154.3 252.2,168.0 234.8,168.0"/>
  <polygon class="pl" points="256.6,176.3 256.6,159.3 274.0,159.3 274.0,176.3 256.6,176.3"/>
  <polygon class="pl" points="278.3,179.6 278.3,161.4 295.7,161.4 295.7,179.6 278.3,179.6"/>
  <polygon class="pl" points="300.1,185.0 300.1,164.8 317.5,164.8 317.5,185.0 300.1,185.0"/>
  <polygon class="pl" points="321.9,191.8 321.9,169.2 339.3,169.2 339.3,191.8 321.9,191.8"/>
  <polygon class="pl" points="343.6,197.0 343.6,172.4 361.0,172.4 361.0,197.0 343.6,197.0"/>
  <polygon class="pl" points="365.4,206.4 365.4,178.8 382.8,178.8 382.8,206.4 365.4,206.4"/>
  <polygon class="pl" points="387.1,211.2 387.1,181.8 404.5,181.8 404.5,211.2 387.1,211.2"/>
  <polygon class="pl" points="408.9,218.6 408.9,186.4 426.3,186.4 426.3,218.6 408.9,218.6"/>
  <polygon class="pl" points="430.7,227.3 430.7,192.1 448.1,192.1 448.1,227.3 430.7,227.3"/>
  <polygon class="pl" points="452.4,232.6 452.4,195.3 469.8,195.3 469.8,232.6 452.4,232.6"/>
  <polygon class="pl" points="474.2,248.6 474.2,208.1 491.6,208.1 491.6,248.6 474.2,248.6"/>
  <polygon class="pl" points="495.9,254.3 495.9,211.3 513.3,211.3 513.3,254.3 495.9,254.3"/>
  <polygon class="pl" points="517.7,343.7 517.7,298.6 535.1,298.6 535.1,343.7 517.7,343.7"/>
  <polygon class="pl" points="539.5,348.2 539.5,300.6 556.9,300.6 556.9,348.2 539.5,348.2"/>
  <polygon class="pl" points="561.2,359.6 561.2,309.8 578.6,309.8 578.6,359.6 561.2,359.6"/>
  <polygon class="pl" points="583.0,380.3 583.0,328.1 600.4,328.1 600.4,380.3 583.0,380.3"/>
  <polygon class="pl" points="604.7,401.3 604.7,347.4 622.1,347.4 622.1,401.3 604.7,401.3"/>
  <polygon class="pl" points="626.5,409.2 626.5,353.8 643.9,353.8 643.9,409.2 626.5,409.2"/>
  <polygon class="pl" points="648.3,425.7 648.3,368.9 665.7,368.9 665.7,425.7 648.3,425.7"/>
  <polygon class="pl" points="670.0,444.3 670.0,386.2 687.4,386.2 687.4,444.3 670.0,444.3"/>
  <polygon class="pl" points="691.8,461.5 691.8,402.2 709.2,402.2 709.2,461.5 691.8,461.5"/>
  <polygon class="pl" points="713.5,479.5 713.5,418.4 730.9,418.4 730.9,479.5 713.5,479.5"/>
  <polygon class="pl" points="735.3,509.6 735.3,447.4 752.7,447.4 752.7,509.6 735.3,509.6"/>
  <polygon class="pl" points="757.1,529.9 757.1,466.3 774.5,466.3 774.5,529.9 757.1,529.9"/>
  <polygon class="pl" points="778.8,530.5 778.8,465.7 796.2,465.7 796.2,530.5 778.8,530.5"/>
  <polygon class="pl" points="800.6,534.4 800.6,468.4 818.0,468.4 818.0,534.4 800.6,534.4"/>
  <polygon class="pl" points="822.3,535.2 822.3,467.3 839.7,467.3 839.7,535.2 822.3,535.2"/>
  <polygon class="pl" points="844.1,566.8 844.1,496.3 861.5,496.3 861.5,566.8 844.1,566.8"/>
  <polygon class="pl" points="865.9,551.9 865.9,479.0 883.3,479.0 883.3,551.9 865.9,551.9"/>
  <polygon class="pl" points="887.6,557.8 887.6,483.5 905.0,483.5 905.0,557.8 887.6,557.8"/>
</g>
<g stroke="#000" stroke-width="0.90" fill="#834B8E"  clip-path="url(#axis_clip)">
  <polygon class="pl" points="147.8,147.7 147.8,144.8 165.2,144.8 165.2,147.7 147.8,147.7"/>
  <polygon class="pl" points="169.5,148.3 169.5,145.1 186.9,145.1 186.9,148.3 169.5,148.3"/>
  <polygon class="pl" points="191.3,150.8 191.3,146.8 208.7,146.8 208.7,150.8 191.3,150.8"/>
  <polygon class="pl" points="213.1,153.1 213.1,148.4 230.5,148.4 230.5,153.1 213.1,153.1"/>
  <polygon class="pl" points="234.8,154.3 234.8,149.1 252.2,149.1 252.2,154.3 234.8,154.3"/>
  <polygon class="pl" points="256.6,159.3 256.6,152.9 274.0,152.9 274.0,159.3 256.6,159.3"/>
  <polygon class="pl" points="278.3,161.4 278.3,154.6 295.7,154.6 295.7,161.4 278.3,161.4"/>
  <polygon class="pl" points="300.1,164.8 300.1,157.3 317.5,157.3 317.5,164.8 300.1,164.8"/>
  <polygon class="pl" points="321.9,169.2 321.9,160.8 339.3,160.8 339.3,169.2 321.9,169.2"/>
  <polygon class="pl" points="343.6,172.4 343.6,163.3 361.0,163.3 361.0,172.4 343.6,172.4"/>
  <polygon class="pl" points="365.4,178.8 365.4,168.5 382.8,168.5 382.8,178.8 365.4,178.8"/>
  <polygon class="pl" points="387.1,181.8 387.1,170.8 404.5,170.8 404.5,181.8 387.1,181.8"/>
  <polygon class="pl" points="408.9,186.4 408.9,174.4 426.3,174.4 426.3,186.4 408.9,186.4"/>
  <polygon class="pl" points="430.7,192.1 430.7,179.0 448.1,179.0 448.1,192.1 430.7,192.1"/>
  <polygon class="pl" points="452.4,195.3 452.4,181.4 469.8,181.4 469.8,195.3 452.4,195.3"/>
  <polygon class="pl" points="474.2,208.1 474.2,193.1 491.6,193.1 491.6,208.1 474.2,208.1"/>
  <polygon class="pl" points="495.9,211.3 495.9,195.4 513.3,195.4 513.3,211.3 495.9,211.3"/>
  <polygon class="pl" points="517.7,298.6 517.7,281.9 535.1,281.9 535.1,298.6 517.7,298.6"/>
  <polygon class="pl" points="539.5,300.6 539.5,283.1 556.9,283.1 556.9,300.6 539.5,300.6"/>
  <polygon class="pl" points="561.2,309.8 561.2,291.5 578.6,291.5 578.6,309.8 561.2,309.8"/>
  <polygon class="pl" points="583.0,328.1 583.0,309.1 600.4,309.1 600.4,328.1 583.0,328.1"/>
  <polygon class="pl" points="604.7,347.4 604.7,327.7 622.1,327.7 622.1,347.4 604.7,347.4"/>
  <polygon class="pl" points="626.5,353.8 626.5,333.6 643.9,333.6 643.9,353.8 626.5,353.8"/>
  <polygon class="pl" points="648.3,368.9 648.3,348.3 665.7,348.3 665.7,368.9 648.3,368.9"/>
  <polygon class="pl" points="670.0,386.2 670.0,365.1 687.4,365.1 687.4,386.2 670.0,386.2"/>
  <polygon class="pl" points="691.8,402.2 691.8,380.7 709.2,380.7 709.2,402.2 691.8,402.2"/>
  <polygon class="pl" points="713.5,418.4 713.5,396.4 730.9,396.4 730.9,418.4 713.5,418.4"/>
  <polygon class="pl" points="735.3,447.4 735.3,425.0 752.7,425.0 752.7,447.4 735.3,447.4"/>
  <polygon class="pl" points="757.1,466.3 757.1,443.5 774.5,443.5 774.5,466.3 757.1,466.3"/>
  <polygon class="pl" points="778.8,465.7 778.8,442.4 796.2,442.4 796.2,465.7 778.8,465.7"/>
  <polygon class="pl" points="800.6,468.4 800.6,444.9 818.0,444.9 818.0,468.4 800.6,468.4"/>
  <polygon class="pl" points="822.3,467.3 822.3,443.2 839.7,443.2 839.7,467.3 822.3,467.3"/>
  <polygon class="pl" points="844.1,496.3 844.1,471.4 861.5,471.4 861.5,496.3 844.1,496.3"/>
  <polygon class="pl" points="865.9,479.0 865.9,453.3 883.3,453.3 883.3,479.0 865.9,479.0"/>
  <polygon class="pl" points="887.6,483.5 887.6,457.4 905.0,457.4 905.0,483.5 887.6,483.5"/>
</g>
<g stroke="#000" stroke-width="0.90" fill="#D5AF54"  clip-path="url(#axis_clip)">
  <polygon class="pl" points="147.8,144.8 147.8,144.7 165.2,144.7 165.2,144.8 147.8,144.8"/>
  <polygon class="pl" points="169.5,145.1 169.5,145.0 186.9,145.0 186.9,145.1 169.5,145.1"/>
  <polygon class="pl" points="191.3,146.8 191.3,146.7 208.7,146.7 208.7,146.8 191.3,146.8"/>
  <polygon class="pl" points="213.1,148.4 213.1,148.3 230.5,148.3 230.5,148.4 213.1,148.4"/>
  <polygon class="pl" points="234.8,149.1 234.8,149.0 252.2,149.0 252.2,149.1 234.8,149.1"/>
  <polygon class="pl" points="256.6,152.9 256.6,152.7 274.0,152.7 274.0,152.9 256.6,152.9"/>
  <polygon class="pl" points="278.3,154.6 278.3,154.4 295.7,154.4 295.7,154.6 278.3,154.6"/>
  <polygon class="pl" points="300.1,157.3 300.1,157.1 317.5,157.1 317.5,157.3 300.1,157.3"/>
  <polygon class="pl" points="321.9,160.8 321.9,160.6 339.3,160.6 339.3,160.8 321.9,160.8"/>
  <polygon class="pl" points="343.6,163.3 343.6,163.1 361.0,163.1 361.0,163.3 343.6,163.3"/>
  <polygon class="pl" points="365.4,168.5 365.4,168.3 382.8,168.3 382.8,168.5 365.4,168.5"/>
  <polygon class="pl" points="387.1,170.8 387.1,170.7 404.5,170.7 404.5,170.8 387.1,170.8"/>
  <polygon class="pl" points="408.9,174.4 408.9,174.2 426.3,174.2 426.3,174.4 408.9,174.4"/>
  <polygon class="pl" points="430.7,179.0 430.7,178.7 448.1,178.7 448.1,179.0 430.7,179.0"/>
  <polygon class="pl" points="452.4,181.4 452.4,181.2 469.8,181.2 469.8,181.4 452.4,181.4"/>
  <polygon class="pl" points="474.2,193.1 474.2,192.6 491.6,192.6 491.6,193.1 474.2,193.1"/>
  <polygon class="pl" points="495.9,195.4 495.9,194.9 513.3,194.9 513.3,195.4 495.9,195.4"/>
  <polygon class="pl" points="517.7,281.9 517.7,281.6 535.1,281.6 535.1,281.9 517.7,281.9"/>
  <polygon class="pl" points="539.5,283.1 539.5,282.5 556.9,282.5 556.9,283.1 539.5,283.1"/>
  <polygon class="pl" points="561.2,291.5 561.2,290.6 578.6,290.6 578.6,291.5 561.2,291.5"/>
  <polygon class="pl" points="583.0,309.1 583.0,307.3 600.4,307.3 600.4,309.1 583.0,309.1"/>
  <polygon class="pl" points="604.7,327.7 604.7,326.0 622.1,326.0 622.1,327.7 604.7,327.7"/>
  <polygon class="pl" points="626.5,333.6 626.5,332.2 643.9,332.2 643.9,333.6 626.5,333.6"/>
  <polygon class="pl" points="648.3,348.3 648.3,346.0 665.7,346.0 665.7,348.3 648.3,348.3"/>
  <polygon class="pl" points="670.0,365.1 670.0,362.8 687.4,362.8 687.4,365.1 670.0,365.1"/>
  <polygon class="pl" points="691.8,380.7 691.8,379.0 709.2,379.0 709.2,380.7 691.8,380.7"/>
  <polygon class="pl" points="713.5,396.4 713.5,394.9 730.9,394.9 730.9,396.4 713.5,396.4"/>
  <polygon class="pl" points="735.3,425.0 735.3,423.3 752.7,423.3 752.7,425.0 735.3,425.0"/>
  <polygon class="pl" points="757.1,443.5 757.1,442.5 774.5,442.5 774.5,443.5 757.1,443.5"/>
  <polygon class="pl" points="778.8,442.4 778.8,441.6 796.2,441.6 796.2,442.4 778.8,442.4"/>
  <polygon class="pl" points="800.6,444.9 800.6,443.8 818.0,443.8 818.0,444.9 800.6,444.9"/>
  <polygon class="pl" points="822.3,443.2 822.3,442.4 839.7,442.4 839.7,443.2 822.3,443.2"/>
  <polygon class="pl" points="844.1,471.4 844.1,468.0 861.5,468.0 861.5,471.4 844.1,471.4"/>
  <polygon class="pl" points="865.9,453.3 865.9,452.8 883.3,452.8 883.3,453.3 865.9,453.3"/>
  <polygon class="pl" points="887.6,457.4 887.6,454.5 905.0,454.5 905.0,457.4 887.6,457.4"/>
</g>
<g stroke="#000" stroke-width="0.90" fill="#D97B53"  clip-path="url(#axis_clip)">
</g>
<g stroke="#000" stroke-width="0.90" fill="#66BF7D"  clip-path="url(#axis_clip)">
  <polygon class="pl" points="147.8,144.7 147.8,130.2 165.2,130.2 165.2,144.7 147.8,144.7"/>
  <polygon class="pl" points="169.5,145.0 169.5,130.2 186.9,130.2 186.9,145.0 169.5,145.0"/>
  <polygon class="pl" points="191.3,146.7 191.3,130.2 208.7,130.2 208.7,146.7 191.3,146.7"/>
  <polygon class="pl" points="213.1,148.3 213.1,130.2 230.5,130.2 230.5,148.3 213.1,148.3"/>
  <polygon class="pl" points="234.8,149.0 234.8,130.2 252.2,130.2 252.2,149.0 234.8,149.0"/>
  <polygon class="pl" points="256.6,152.7 256.6,130.2 274.0,130.2 274.0,152.7 256.6,152.7"/>
  <polygon class="pl" points="278.3,154.4 278.3,130.2 295.7,130.2 295.7,154.4 278.3,154.4"/>
  <polygon class="pl" points="300.1,157.1 300.1,130.2 317.5,130.2 317.5,157.1 300.1,157.1"/>
  <polygon class="pl" points="321.9,160.6 321.9,130.2 339.3,130.2 339.3,160.6 321.9,160.6"/>
  <polygon class="pl" points="343.6,163.1 343.6,130.2 361.0,130.2 361.0,163.1 343.6,163.1"/>
  <polygon class="pl" points="365.4,168.3 365.4,130.2 382.8,130.2 382.8,168.3 365.4,168.3"/>
  <polygon class="pl" points="387.1,170.7 387.1,130.2 404.5,130.2 404.5,170.7 387.1,170.7"/>
  <polygon class="pl" points="408.9,174.2 408.9,130.2 426.3,130.2 426.3,174.2 408.9,174.2"/>
  <polygon class="pl" points="430.7,178.7 430.7,130.2 448.1,130.2 448.1,178.7 430.7,178.7"/>
  <polygon class="pl" points="452.4,181.2 452.4,130.2 469.8,130.2 469.8,181.2 452.4,181.2"/>
  <polygon class="pl" points="474.2,192.6 474.2,130.2 491.6,130.2 491.6,192.6 474.2,192.6"/>
  <polygon class="pl" points="495.9,194.9 495.9,130.2 513.3,130.2 513.3,194.9 495.9,194.9"/>
  <polygon class="pl" points="517.7,281.6 517.7,130.2 535.1,130.2 535.1,281.6 517.7,281.6"/>
  <polygon class="pl" points="539.5,282.5 539.5,130.2 556.9,130.2 556.9,282.5 539.5,282.5"/>
  <polygon class="pl" points="561.2,290.6 561.2,130.2 578.6,130.2 578.6,290.6 561.2,290.6"/>
  <polygon class="pl" points="583.0,307.3 583.0,130.2 600.4,130.2 600.4,307.3 583.0,307.3"/>
  <polygon class="pl" points="604.7,326.0 604.7,130.2 622.1,130.2 622.1,326.0 604.7,326.0"/>
  <polygon class="pl" points="626.5,332.2 626.5,130.2 643.9,130.2 643.9,332.2 626.5,332.2"/>
  <polygon class="pl" points="648.3,346.0 648.3,130.2 665.7,130.2 665.7,346.0 648.3,346.0"/>
  <polygon class="pl" points="670.0,362.8 670.0,130.2 687.4,130.2 687.4,362.8 670.0,362.8"/>
  <polygon class="pl" points="691.8,379.0 691.8,130.2 709.2,130.2 709.2,379.0 691.8,379.0"/>
  <polygon class="pl" points="713.5,394.9 713.5,130.2 730.9,130.2 730.9,394.9 713.5,394.9"/>
  <polygon class="pl" points="735.3,423.3 735.3,130.2 752.7,130.2 752.7,423.3 735.3,423.3"/>
  <polygon class="pl" points="757.1,442.5 757.1,130.2 774.5,130.2 774.5,442.5 757.1,442.5"/>
  <polygon class="pl" points="778.8,441.6 778.8,130.2 796.2,130.2 796.2,441.6 778.8,441.6"/>
  <polygon class="pl" points="800.6,443.8 800.6,130.2 818.0,130.2 818.0,443.8 800.6,443.8"/>
  <polygon class="pl" points="822.3,442.4 822.3,130.2 839.7,130.2 839.7,442.4 822.3,442.4"/>
  <polygon class="pl" points="844.1,468.0 844.1,130.2 861.5,130.2 861.5,468.0 844.1,468.0"/>
  <polygon class="pl" points="865.9,452.8 865.9,130.2 883.3,130.2 883.3,452.8 865.9,452.8"/>
  <polygon class="pl" points="887.6,454.5 887.6,130.2 905.0,130.2 905.0,454.5 887.6,454.5"/>
</g>
<text transform="translate(145.6,47.2)" dy="0.0" font-size="27.00" fill="#808080" stroke="none">Emissions and removals on forest land: Iceland</text>
<text transform="translate(130.0,157.8)" dy="8.1" font-size="27.00" fill="#808080" stroke="none" text-anchor="end">CO<tspan dy="0.2em"><tspan style="font-size:70%">2</tspan></tspan><tspan dy="-0.2em"></tspan></text>
<polyline class="pl" points="156.5,154.1 178.2,155.4 200.0,159.5 221.8,163.7 243.5,166.2 265.3,174.3 287.0,177.5 308.8,182.8 330.6,189.5 352.3,194.5 374.1,203.5 395.8,208.2 417.6,215.1 439.4,223.1 461.1,228.5 482.9,243.7 504.6,249.2 526.4,339.1 548.2,342.5 569.9,352.7 591.7,370.5 613.4,391.6 635.2,400.3 657.0,413.9 678.7,431.9 700.5,450.8 722.2,469.5 744.0,498.7 765.8,521.3 787.5,522.4 809.3,525.3 831.0,527.0 852.8,549.7 874.6,543.8 896.3,542.0" stroke="#000" stroke-width="5.40" fill="none" clip-path="url(#axis_clip)"/>
<g class="pl" fill="#FFF" stroke="#000" stroke-width="0.900">
  <circle cx="178.2" cy="155.4" r="2.2" />
  <circle cx="200.0" cy="159.5" r="2.2" />
  <circle cx="221.8" cy="163.7" r="2.2" />
  <circle cx="243.5" cy="166.2" r="2.2" />
  <circle cx="265.3" cy="174.3" r="2.2" />
  <circle cx="287.0" cy="177.5" r="2.2" />
  <circle cx="308.8" cy="182.8" r="2.2" />
  <circle cx="330.6" cy="189.5" r="2.2" />
  <circle cx="352.3" cy="194.5" r="2.2" />
  <circle cx="395.8" cy="208.2" r="2.2" />
  <circle cx="417.6" cy="215.1" r="2.2" />
  <circle cx="439.4" cy="223.1" r="2.2" />
  <circle cx="461.1" cy="228.5" r="2.2" />
  <circle cx="482.9" cy="243.7" r="2.2" />
  <circle cx="504.6" cy="249.2" r="2.2" />
  <circle cx="526.4" cy="339.1" r="2.2" />
  <circle cx="548.2" cy="342.5" r="2.2" />
  <circle cx="569.9" cy="352.7" r="2.2" />
  <circle cx="613.4" cy="391.6" r="2.2" />
  <circle cx="635.2" cy="400.3" r="2.2" />
  <circle cx="657.0" cy="413.9" r="2.2" />
  <circle cx="678.7" cy="431.9" r="2.2" />
  <circle cx="700.5" cy="450.8" r="2.2" />
  <circle cx="722.2" cy="469.5" r="2.2" />
  <circle cx="744.0" cy="498.7" r="2.2" />
  <circle cx="765.8" cy="521.3" r="2.2" />
  <circle cx="787.5" cy="522.4" r="2.2" />
  <circle cx="831.0" cy="527.0" r="2.2" />
  <circle cx="852.8" cy="549.7" r="2.2" />
  <circle cx="874.6" cy="543.8" r="2.2" />
  <circle cx="896.3" cy="542.0" r="2.2" />
</g>
<g class="pl" fill="#FFF" stroke="#000" stroke-width="0.900">
  <circle cx="156.5" cy="154.1" r="5.4" />
  <circle cx="374.1" cy="203.5" r="5.4" />
  <circle cx="591.7" cy="370.5" r="5.4" />
  <circle cx="809.3" cy="525.3" r="5.4" />
</g>
<text transform="translate(945.6,542.0)" dy="6.5" font-size="21.60" fill="#000" stroke="none">Total (net)</text>
<text transform="translate(945.6,130.8)" dy="6.5" font-size="21.60" fill="#D97B53" stroke="none">Living biomass (losses)</text>
<text transform="translate(945.6,110.0)" dy="6.5" font-size="21.60" fill="#71B8D6" stroke="none">Organic Soils (net)</text>
<text transform="translate(945.6,292.3)" dy="6.5" font-size="21.60" fill="#66BF7D" stroke="none">Living biomass (gains)</text>
<text transform="translate(945.6,452.8)" dy="6.5" font-size="21.60" fill="#D5AF54" stroke="none">Dead wood (net)</text>
<text transform="translate(945.6,473.6)" dy="6.5" font-size="21.60" fill="#834B8E" stroke="none">Litter (net)</text>
<text transform="translate(945.6,520.6)" dy="6.5" font-size="21.60" fill="#87AC55" stroke="none">Mineral Soils (net)</text>
<polyline class="pl" points="910.8,542.0 912.4,542.0 913.8,542.0 915.2,542.0 916.4,542.0 917.6,542.0 918.8,542.0 919.8,542.0 920.8,542.0 921.7,542.0 922.7,542.0 923.5,542.0 924.4,542.0 925.2,542.0 926.0,542.0 926.8,542.0 927.6,542.0 928.4,542.0 929.3,542.0 930.1,542.0 931.1,542.0 932.0,542.0 933.0,542.0 934.0,542.0 935.2,542.0 936.4,542.0 937.6,542.0 939.0,542.0 940.4,542.0 942.0,542.0" stroke="#000" stroke-width="0.90" stroke-opacity="1.00" fill="none" />
<polyline class="pl" points="910.8,124.4 912.4,124.5 913.8,124.5 915.2,124.6 916.4,124.8 917.6,124.9 918.8,125.1 919.8,125.4 920.8,125.6 921.7,125.9 922.7,126.2 923.5,126.5 924.4,126.8 925.2,127.1 926.0,127.4 926.8,127.8 927.6,128.1 928.4,128.4 929.3,128.7 930.1,129.0 931.1,129.3 932.0,129.6 933.0,129.8 934.0,130.1 935.2,130.3 936.4,130.4 937.6,130.6 939.0,130.7 940.4,130.7 942.0,130.8" stroke="#D97B53" stroke-width="0.90" stroke-opacity="1.00" fill="none" />
<polyline class="pl" points="910.8,116.4 912.4,116.3 913.8,116.3 915.2,116.2 916.4,116.0 917.6,115.9 918.8,115.7 919.8,115.4 920.8,115.2 921.7,114.9 922.7,114.6 923.5,114.3 924.4,114.0 925.2,113.7 926.0,113.4 926.8,113.0 927.6,112.7 928.4,112.4 929.3,112.1 930.1,111.8 931.1,111.5 932.0,111.2 933.0,111.0 934.0,110.7 935.2,110.5 936.4,110.4 937.6,110.2 939.0,110.1 940.4,110.1 942.0,110.0" stroke="#71B8D6" stroke-width="0.90" stroke-opacity="1.00" fill="none" />
<polyline class="pl" points="910.8,456.0 912.4,456.0 913.8,455.9 915.2,455.9 916.4,455.8 917.6,455.7 918.8,455.6 919.8,455.5 920.8,455.4 921.7,455.3 922.7,455.1 923.5,455.0 924.4,454.8 925.2,454.6 926.0,454.5 926.8,454.3 927.6,454.2 928.4,454.0 929.3,453.9 930.1,453.7 931.1,453.6 932.0,453.4 933.0,453.3 934.0,453.2 935.2,453.1 936.4,453.0 937.6,452.9 939.0,452.9 940.4,452.9 942.0,452.8" stroke="#D5AF54" stroke-width="0.90" stroke-opacity="1.00" fill="none" />
<polyline class="pl" points="910.8,470.4 912.4,470.5 913.8,470.5 915.2,470.5 916.4,470.6 917.6,470.7 918.8,470.8 919.8,470.9 920.8,471.0 921.7,471.2 922.7,471.3 923.5,471.4 924.4,471.6 925.2,471.8 926.0,471.9 926.8,472.1 927.6,472.2 928.4,472.4 929.3,472.6 930.1,472.7 931.1,472.9 932.0,473.0 933.0,473.1 934.0,473.2 935.2,473.3 936.4,473.4 937.6,473.5 939.0,473.5 940.4,473.6 942.0,473.6" stroke="#834B8E" stroke-width="0.90" stroke-opacity="1.00" fill="none" />
<polyline class="pl" points="910.8,520.6 912.4,520.6 913.8,520.6 915.2,520.6 916.4,520.6 917.6,520.6 918.8,520.6 919.8,520.6 920.8,520.6 921.7,520.6 922.7,520.6 923.5,520.6 924.4,520.6 925.2,520.6 926.0,520.6 926.8,520.6 927.6,520.6 928.4,520.6 929.3,520.6 930.1,520.6 931.1,520.6 932.0,520.6 933.0,520.6 934.0,520.6 935.2,520.6 936.4,520.6 937.6,520.6 939.0,520.6 940.4,520.6 942.0,520.6" stroke="#87AC55" stroke-width="0.90" stroke-opacity="1.00" fill="none" />
<text transform="translate(160.0,666.1)" font-size="19.80" font-family="Helvetica" fill="#BFBFBF" stroke="none" xml:space="preserve">CICERO   &#9679;   Data: UNFCCC (2026)</text>
<g>
  <rect x="123.0" y="651.4" width="34" height="17" fill="#FFF" stroke="none" opacity="0.01"/>
  <g transform="translate(124.0,652.4) scale(0.24)">
  <g><circle fill="#FFF" cx="37.79" cy="28.5" r="28.84"/>
     <circle fill="none" cx="37.79" cy="28.5" r="28.84" stroke="#BFBFBF" stroke-width="5.5"/>
     <path fill="#BFBFBF" d="M37.16,23.19 l-4.29,2.23c-0.458-0.951-1.02-1.62-1.69-2c-0.667-0.38-1.29-0.571-1.86-0.571c-2.86,0-4.29,1.89-4.29,5.66 c0,1.71,0.36,3.08,1.09,4.11c0.724,1.03,1.79,1.54,3.2,1.54c1.87,0,3.18-0.915,3.94-2.74l3.94,2 c-0.838,1.56-2,2.79-3.49,3.69c-1.48,0.896-3.12,1.34-4.91,1.34c-2.86,0-5.16-0.875-6.92-2.63 c-1.75-1.75-2.63-4.19-2.63-7.31c0-3.05,0.886-5.47,2.66-7.26c1.77-1.79,4.01-2.69,6.72-2.69 C32.6,18.56,35.44,20.1,37.16,23.19z
              M55.61,23.19l-4.23,2.23c-0.457-0.951-1.02-1.62-1.69-2 c-0.668-0.38-1.31-0.571-1.91-0.571c-2.86,0-4.29,1.89-4.29,5.66c0,1.71,0.363,3.08,1.09,4.11 c0.723,1.03,1.79,1.54,3.2,1.54c1.87,0,3.18-0.915,3.94-2.74l4,2c-0.875,1.56-2.06,2.79-3.54,3.69 c-1.49,0.9-3.11,1.34-4.86,1.34c-2.9,0-5.21-0.875-6.94-2.63c-1.74-1.75-2.6-4.19-2.6-7.31 c0-3.05,0.885-5.47,2.66-7.26c1.77-1.79,4.01-2.69,6.71-2.69C51.12,18.56,53.944,20.1,55.61,23.19z"/>
  </g></g>
  <g transform="translate(140.2,652.4) scale(0.24)">
  <g><circle fill="#FFF" cx="37.79" cy="28.5" r="28.84"/>
     <circle fill="none" cx="37.79" cy="28.5" r="28.84" stroke="#BFBFBF" stroke-width="5.5"/>
     <path fill="#BFBFBF" d="M46.129,20.557v13.085h-3.656v15.542h-9.944V33.643h-3.656V20.557 c0-0.572,0.2-1.057,0.599-1.457c0.401-0.399,0.887-0.6,1.457-0.6h13.144c0.533,0,1.01,0.2,1.428,0.6 C45.918,19.5,46.129,19.986,46.129,20.557z
              M33.042,12.329c0-3.008,1.485-4.514,4.458-4.514s4.457,1.504,4.457,4.514 c0,2.971-1.486,4.457-4.457,4.457S33.042,15.3,33.042,12.329z"/>
  </g></g>
</g>
</g>
</svg>
