<svg version="1.1" xmlns="http://www.w3.org/2000/svg" xmlns:xlink="http://www.w3.org/1999/xlink" width="100%" height="100%" viewBox="0 0 1200.000 674.916">
<title>Kaya decomposition of emissions growth: Iceland</title>
<style type="text/css">
  #main {font-family:Helvetica,Arial,sans-serif; font-size:27.00px;
         fill-opacity:1; fill:#000000; stroke:none; stroke-linejoin:round; stroke-linecap:round; stroke-width:1.00;}
  .marker {stroke-opacity:0;fill-opacity:0;}
  .marker:hover {stroke-opacity:0.5; fill-opacity:1;}
  .ticklabel {font-size:27.00px;fill:#808080;stroke:none;font-family:Helvetica}
  .ytl {text-anchor:end;}
  .dp1 {pointer-events:none;font-size:70%;text-anchor:middle;fill:#000000;}
  .dp2 {pointer-events:none;font-size:70%;text-anchor:middle;fill:#FFFFFF;}
  .numtip {pointer-events:none;}
  .cc {opacity:0.25;}
.dl_fe {background-color:#FDFFDF;display:flex;margin:auto;align-items:center}
.dl_fe_p {font-size:20px;text-align:center;margin:3px}
.dl_el {display:none;pointer-events:none;}
.cc:hover + .dl_el {display:block;}
text:hover + .dl_el {display:block;}
</style>
<defs>
  <clipPath id="axis_clip"><rect x="145.8" y="54.2" width="761.2" height="532.8" /></clipPath>
  <path id="line_x" d="M 145.600,0 h 761.600" stroke="#262626" stroke-opacity="0.15" stroke-width="1.00"/>
  <path id="tick_y" d="M 145.600,0 h -6.000" stroke="#808080" stroke-width="0.90"/>
  <path id="tick_x" d="M 0,587.177 v 6.000" stroke="#808080" stroke-width="0.90"/>
</defs>
<g id="main">
<use xlink:href="#line_x" transform="translate(0,587.2)"/>
<use xlink:href="#line_x" transform="translate(0,527.9)"/>
<use xlink:href="#line_x" transform="translate(0,468.7)"/>
<use xlink:href="#line_x" transform="translate(0,409.4)"/>
<use xlink:href="#line_x" transform="translate(0,350.2)"/>
<use xlink:href="#line_x" transform="translate(0,291.0)"/>
<use xlink:href="#line_x" transform="translate(0,231.7)"/>
<use xlink:href="#line_x" transform="translate(0,172.5)"/>
<use xlink:href="#line_x" transform="translate(0,113.2)"/>
<use xlink:href="#line_x" transform="translate(0,54.0)"/>
<use xlink:href="#tick_y" transform="translate(0,587.2)"/>
<use xlink:href="#tick_y" transform="translate(0,527.9)"/>
<use xlink:href="#tick_y" transform="translate(0,468.7)"/>
<use xlink:href="#tick_y" transform="translate(0,409.4)"/>
<use xlink:href="#tick_y" transform="translate(0,350.2)"/>
<use xlink:href="#tick_y" transform="translate(0,291.0)"/>
<use xlink:href="#tick_y" transform="translate(0,231.7)"/>
<use xlink:href="#tick_y" transform="translate(0,172.5)"/>
<use xlink:href="#tick_y" transform="translate(0,113.2)"/>
<use xlink:href="#tick_y" transform="translate(0,54.0)"/>
<use xlink:href="#tick_x" transform="translate(156.8,0)"/>
<use xlink:href="#tick_x" transform="translate(268.8,0)"/>
<use xlink:href="#tick_x" transform="translate(380.8,0)"/>
<use xlink:href="#tick_x" transform="translate(492.8,0)"/>
<use xlink:href="#tick_x" transform="translate(604.8,0)"/>
<use xlink:href="#tick_x" transform="translate(716.8,0)"/>
<use xlink:href="#tick_x" transform="translate(828.8,0)"/>
<polyline points="145.6,53.993 145.6,587.177 907.2,587.177" stroke="#808080" stroke-width="0.90" fill="none"/>
<text class="ticklabel xtl" transform="translate(156.8,629.0)" text-anchor="middle">1990</text>
<text class="ticklabel xtl" transform="translate(268.8,629.0)" text-anchor="middle">1995</text>
<text class="ticklabel xtl" transform="translate(380.8,629.0)" text-anchor="middle">2000</text>
<text class="ticklabel xtl" transform="translate(492.8,629.0)" text-anchor="middle">2005</text>
<text class="ticklabel xtl" transform="translate(604.8,629.0)" text-anchor="middle">2010</text>
<text class="ticklabel xtl" transform="translate(716.8,629.0)" text-anchor="middle">2015</text>
<text class="ticklabel xtl" transform="translate(828.8,629.0)" text-anchor="middle">2020</text>
<text class="ticklabel ytl" transform="translate(128.8,595.3)">-20</text>
<text class="ticklabel ytl" transform="translate(128.8,536.0)">-15</text>
<text class="ticklabel ytl" transform="translate(128.8,476.8)">-10</text>
<text class="ticklabel ytl" transform="translate(128.8,417.5)">-5</text>
<text class="ticklabel ytl" transform="translate(128.8,358.3)">0</text>
<text class="ticklabel ytl" transform="translate(128.8,299.1)">5</text>
<text class="ticklabel ytl" transform="translate(128.8,239.8)">10</text>
<text class="ticklabel ytl" transform="translate(128.8,180.6)">15</text>
<text class="ticklabel ytl" transform="translate(128.8,121.3)">20</text>
<text class="ticklabel ytl" transform="translate(128.8,62.1)">25 %/yr</text>
<g stroke="#000" stroke-width="0.90" fill="#808080"  clip-path="url(#axis_clip)">
  <polygon class="pl" points="170.2,335.7 170.2,336.4 188.2,336.4 188.2,335.7 170.2,335.7"/>
  <polygon class="pl" points="215.0,267.3 215.0,269.2 233.0,269.2 233.0,267.3 215.0,267.3"/>
  <polygon class="pl" points="259.8,284.8 259.8,285.5 277.8,285.5 277.8,284.8 259.8,284.8"/>
  <polygon class="pl" points="349.4,238.9 349.4,239.9 367.4,239.9 367.4,238.9 349.4,238.9"/>
  <polygon class="pl" points="416.6,293.7 416.6,294.1 434.6,294.1 434.6,293.7 416.6,293.7"/>
  <polygon class="pl" points="528.6,185.8 528.6,187.7 546.6,187.7 546.6,185.8 528.6,185.8"/>
  <polygon class="pl" points="752.6,293.4 752.6,293.5 770.6,293.5 770.6,293.4 752.6,293.4"/>
  <polygon class="pl" points="842.2,287.3 842.2,288.1 860.2,288.1 860.2,287.3 842.2,287.3"/>
</g>
<g stroke="#000" stroke-width="0.90" fill="#8DA0CB"  clip-path="url(#axis_clip)">
  <polygon class="pl" points="147.8,133.4 147.8,336.4 165.8,336.4 165.8,133.4 147.8,133.4"/>
  <polygon class="pl" points="192.6,211.3 192.6,250.6 210.6,250.6 210.6,211.3 192.6,211.3"/>
  <polygon class="pl" points="215.0,269.2 215.0,301.4 233.0,301.4 233.0,269.2 215.0,269.2"/>
  <polygon class="pl" points="259.8,285.5 259.8,307.0 277.8,307.0 277.8,285.5 259.8,285.5"/>
  <polygon class="pl" points="416.6,294.1 416.6,300.2 434.6,300.2 434.6,294.1 416.6,294.1"/>
  <polygon class="pl" points="461.4,237.6 461.4,261.9 479.4,261.9 479.4,237.6 461.4,237.6"/>
  <polygon class="pl" points="797.4,300.6 797.4,321.6 815.4,321.6 815.4,300.6 797.4,300.6"/>
  <polygon class="pl" points="819.8,302.1 819.8,330.8 837.8,330.8 837.8,302.1 819.8,302.1"/>
  <polygon class="pl" points="842.2,288.1 842.2,295.0 860.2,295.0 860.2,288.1 842.2,288.1"/>
  <polygon class="pl" points="887.0,256.2 887.0,322.8 905.0,322.8 905.0,256.2 887.0,256.2"/>
</g>
<g stroke="#000" stroke-width="0.90" fill="#66C2A5"  clip-path="url(#axis_clip)">
  <polygon class="pl" points="192.6,250.6 192.6,335.2 210.6,335.2 210.6,250.6 192.6,250.6"/>
  <polygon class="pl" points="215.0,301.4 215.0,331.4 233.0,331.4 233.0,301.4 215.0,301.4"/>
  <polygon class="pl" points="259.8,307.0 259.8,343.7 277.8,343.7 277.8,307.0 259.8,307.0"/>
  <polygon class="pl" points="282.2,285.4 282.2,299.7 300.2,299.7 300.2,285.4 282.2,285.4"/>
  <polygon class="pl" points="327.0,254.5 327.0,263.8 345.0,263.8 345.0,254.5 327.0,254.5"/>
  <polygon class="pl" points="349.4,239.9 349.4,302.8 367.4,302.8 367.4,239.9 349.4,239.9"/>
  <polygon class="pl" points="371.8,281.8 371.8,295.1 389.8,295.1 389.8,281.8 371.8,281.8"/>
  <polygon class="pl" points="416.6,300.2 416.6,339.6 434.6,339.6 434.6,300.2 416.6,300.2"/>
  <polygon class="pl" points="506.2,238.9 506.2,276.4 524.2,276.4 524.2,238.9 506.2,238.9"/>
  <polygon class="pl" points="528.6,187.7 528.6,251.8 546.6,251.8 546.6,187.7 528.6,187.7"/>
  <polygon class="pl" points="551.0,58.6 551.0,327.3 569.0,327.3 569.0,58.6 551.0,58.6"/>
  <polygon class="pl" points="573.4,250.0 573.4,346.2 591.4,346.2 591.4,250.0 573.4,250.0"/>
  <polygon class="pl" points="595.8,315.0 595.8,350.2 613.8,350.2 613.8,315.0 595.8,315.0"/>
  <polygon class="pl" points="752.6,293.5 752.6,297.7 770.6,297.7 770.6,293.5 752.6,293.5"/>
  <polygon class="pl" points="842.2,295.0 842.2,295.7 860.2,295.7 860.2,295.0 842.2,295.0"/>
  <polygon class="pl" points="864.6,290.7 864.6,311.9 882.6,311.9 882.6,290.7 864.6,290.7"/>
</g>
<g stroke="#000" stroke-width="0.90" fill="#E78AC3"  clip-path="url(#axis_clip)">
  <polygon class="pl" points="147.8,336.4 147.8,340.9 165.8,340.9 165.8,336.4 147.8,336.4"/>
  <polygon class="pl" points="215.0,331.4 215.0,338.1 233.0,338.1 233.0,331.4 215.0,331.4"/>
  <polygon class="pl" points="237.4,307.7 237.4,339.9 255.4,339.9 255.4,307.7 237.4,307.7"/>
  <polygon class="pl" points="282.2,299.7 282.2,343.8 300.2,343.8 300.2,299.7 282.2,299.7"/>
  <polygon class="pl" points="304.6,278.9 304.6,340.4 322.6,340.4 322.6,278.9 304.6,278.9"/>
  <polygon class="pl" points="327.0,263.8 327.0,337.4 345.0,337.4 345.0,263.8 327.0,263.8"/>
  <polygon class="pl" points="349.4,302.8 349.4,335.8 367.4,335.8 367.4,302.8 349.4,302.8"/>
  <polygon class="pl" points="371.8,295.1 371.8,333.8 389.8,333.8 389.8,295.1 371.8,295.1"/>
  <polygon class="pl" points="394.2,299.7 394.2,334.3 412.2,334.3 412.2,299.7 394.2,299.7"/>
  <polygon class="pl" points="439.0,324.9 439.0,342.0 457.0,342.0 457.0,324.9 439.0,324.9"/>
  <polygon class="pl" points="461.4,261.9 461.4,339.7 479.4,339.7 479.4,261.9 461.4,261.9"/>
  <polygon class="pl" points="483.8,275.1 483.8,331.3 501.8,331.3 501.8,275.1 483.8,275.1"/>
  <polygon class="pl" points="506.2,276.4 506.2,322.1 524.2,322.1 524.2,276.4 506.2,276.4"/>
  <polygon class="pl" points="528.6,251.8 528.6,319.9 546.6,319.9 546.6,251.8 528.6,251.8"/>
  <polygon class="pl" points="551.0,327.3 551.0,327.9 569.0,327.9 569.0,327.3 551.0,327.3"/>
  <polygon class="pl" points="618.2,328.4 618.2,346.6 636.2,346.6 636.2,328.4 618.2,328.4"/>
  <polygon class="pl" points="640.6,340.9 640.6,343.9 658.6,343.9 658.6,340.9 640.6,340.9"/>
  <polygon class="pl" points="663.0,293.3 663.0,339.0 681.0,339.0 681.0,293.3 663.0,293.3"/>
  <polygon class="pl" points="685.4,330.3 685.4,337.0 703.4,337.0 703.4,330.3 685.4,330.3"/>
  <polygon class="pl" points="707.8,298.1 707.8,337.9 725.8,337.9 725.8,298.1 707.8,298.1"/>
  <polygon class="pl" points="730.2,279.7 730.2,333.7 748.2,333.7 748.2,279.7 730.2,279.7"/>
  <polygon class="pl" points="752.6,297.7 752.6,322.1 770.6,322.1 770.6,297.7 752.6,297.7"/>
  <polygon class="pl" points="775.0,293.0 775.0,318.1 793.0,318.1 793.0,293.0 775.0,293.0"/>
  <polygon class="pl" points="797.4,321.6 797.4,323.9 815.4,323.9 815.4,321.6 797.4,321.6"/>
  <polygon class="pl" points="842.2,295.7 842.2,338.4 860.2,338.4 860.2,295.7 842.2,295.7"/>
  <polygon class="pl" points="864.6,311.9 864.6,342.0 882.6,342.0 882.6,311.9 864.6,311.9"/>
  <polygon class="pl" points="887.0,322.8 887.0,342.5 905.0,342.5 905.0,322.8 887.0,322.8"/>
</g>
<g stroke="#000" stroke-width="0.90" fill="#A6D854"  clip-path="url(#axis_clip)">
  <polygon class="pl" points="147.8,340.9 147.8,350.2 165.8,350.2 165.8,340.9 147.8,340.9"/>
  <polygon class="pl" points="170.2,336.4 170.2,350.2 188.2,350.2 188.2,336.4 170.2,336.4"/>
  <polygon class="pl" points="192.6,335.2 192.6,350.2 210.6,350.2 210.6,335.2 192.6,335.2"/>
  <polygon class="pl" points="215.0,338.1 215.0,350.2 233.0,350.2 233.0,338.1 215.0,338.1"/>
  <polygon class="pl" points="237.4,339.9 237.4,350.2 255.4,350.2 255.4,339.9 237.4,339.9"/>
  <polygon class="pl" points="259.8,343.7 259.8,350.2 277.8,350.2 277.8,343.7 259.8,343.7"/>
  <polygon class="pl" points="282.2,343.8 282.2,350.2 300.2,350.2 300.2,343.8 282.2,343.8"/>
  <polygon class="pl" points="304.6,340.4 304.6,350.2 322.6,350.2 322.6,340.4 304.6,340.4"/>
  <polygon class="pl" points="327.0,337.4 327.0,350.2 345.0,350.2 345.0,337.4 327.0,337.4"/>
  <polygon class="pl" points="349.4,335.8 349.4,350.2 367.4,350.2 367.4,335.8 349.4,335.8"/>
  <polygon class="pl" points="371.8,333.8 371.8,350.2 389.8,350.2 389.8,333.8 371.8,333.8"/>
  <polygon class="pl" points="394.2,334.3 394.2,350.2 412.2,350.2 412.2,334.3 394.2,334.3"/>
  <polygon class="pl" points="416.6,339.6 416.6,350.2 434.6,350.2 434.6,339.6 416.6,339.6"/>
  <polygon class="pl" points="439.0,342.0 439.0,350.2 457.0,350.2 457.0,342.0 439.0,342.0"/>
  <polygon class="pl" points="461.4,339.7 461.4,350.2 479.4,350.2 479.4,339.7 461.4,339.7"/>
  <polygon class="pl" points="483.8,331.3 483.8,350.2 501.8,350.2 501.8,331.3 483.8,331.3"/>
  <polygon class="pl" points="506.2,322.1 506.2,350.2 524.2,350.2 524.2,322.1 506.2,322.1"/>
  <polygon class="pl" points="528.6,319.9 528.6,350.2 546.6,350.2 546.6,319.9 528.6,319.9"/>
  <polygon class="pl" points="551.0,327.9 551.0,350.2 569.0,350.2 569.0,327.9 551.0,327.9"/>
  <polygon class="pl" points="573.4,346.2 573.4,350.2 591.4,350.2 591.4,346.2 573.4,346.2"/>
  <polygon class="pl" points="618.2,346.6 618.2,350.2 636.2,350.2 636.2,346.6 618.2,346.6"/>
  <polygon class="pl" points="640.6,343.9 640.6,350.2 658.6,350.2 658.6,343.9 640.6,343.9"/>
  <polygon class="pl" points="663.0,339.0 663.0,350.2 681.0,350.2 681.0,339.0 663.0,339.0"/>
  <polygon class="pl" points="685.4,337.0 685.4,350.2 703.4,350.2 703.4,337.0 685.4,337.0"/>
  <polygon class="pl" points="707.8,337.9 707.8,350.2 725.8,350.2 725.8,337.9 707.8,337.9"/>
  <polygon class="pl" points="730.2,333.7 730.2,350.2 748.2,350.2 748.2,333.7 730.2,333.7"/>
  <polygon class="pl" points="752.6,322.1 752.6,350.2 770.6,350.2 770.6,322.1 752.6,322.1"/>
  <polygon class="pl" points="775.0,318.1 775.0,350.2 793.0,350.2 793.0,318.1 775.0,318.1"/>
  <polygon class="pl" points="797.4,323.9 797.4,350.2 815.4,350.2 815.4,323.9 797.4,323.9"/>
  <polygon class="pl" points="819.8,330.8 819.8,350.2 837.8,350.2 837.8,330.8 819.8,330.8"/>
  <polygon class="pl" points="842.2,338.4 842.2,350.2 860.2,350.2 860.2,338.4 842.2,338.4"/>
  <polygon class="pl" points="864.6,342.0 864.6,350.2 882.6,350.2 882.6,342.0 864.6,342.0"/>
  <polygon class="pl" points="887.0,342.5 887.0,350.2 905.0,350.2 905.0,342.5 887.0,342.5"/>
</g>
<g stroke="#000" stroke-width="0.90" fill="#808080"  clip-path="url(#axis_clip)">
  <polygon class="pl" points="147.8,363.4 147.8,363.4 165.8,363.4 165.8,363.4 147.8,363.4"/>
  <polygon class="pl" points="192.6,410.1 192.6,407.6 210.6,407.6 210.6,410.1 192.6,410.1"/>
  <polygon class="pl" points="237.4,417.8 237.4,416.6 255.4,416.6 255.4,417.8 237.4,417.8"/>
  <polygon class="pl" points="282.2,392.3 282.2,390.9 300.2,390.9 300.2,392.3 282.2,392.3"/>
  <polygon class="pl" points="304.6,373.4 304.6,372.6 322.6,372.6 322.6,373.4 304.6,373.4"/>
  <polygon class="pl" points="327.0,437.0 327.0,431.7 345.0,431.7 345.0,437.0 327.0,437.0"/>
  <polygon class="pl" points="371.8,383.7 371.8,382.9 389.8,382.9 389.8,383.7 371.8,383.7"/>
  <polygon class="pl" points="394.2,424.9 394.2,423.3 412.2,423.3 412.2,424.9 394.2,424.9"/>
  <polygon class="pl" points="439.0,378.1 439.0,377.7 457.0,377.7 457.0,378.1 439.0,378.1"/>
  <polygon class="pl" points="461.4,417.9 461.4,414.2 479.4,414.2 479.4,417.9 461.4,417.9"/>
  <polygon class="pl" points="483.8,472.1 483.8,468.5 501.8,468.5 501.8,472.1 483.8,472.1"/>
  <polygon class="pl" points="506.2,390.7 506.2,390.2 524.2,390.2 524.2,390.7 506.2,390.7"/>
  <polygon class="pl" points="551.0,537.8 551.0,504.4 569.0,504.4 569.0,537.8 551.0,537.8"/>
  <polygon class="pl" points="573.4,472.2 573.4,464.7 591.4,464.7 591.4,472.2 573.4,472.2"/>
  <polygon class="pl" points="595.8,418.8 595.8,417.9 613.8,417.9 613.8,418.8 595.8,418.8"/>
  <polygon class="pl" points="618.2,412.2 618.2,411.9 636.2,411.9 636.2,412.2 618.2,412.2"/>
  <polygon class="pl" points="640.6,364.4 640.6,364.4 658.6,364.4 658.6,364.4 640.6,364.4"/>
  <polygon class="pl" points="663.0,407.4 663.0,405.7 681.0,405.7 681.0,407.4 663.0,407.4"/>
  <polygon class="pl" points="685.4,384.7 685.4,384.4 703.4,384.4 703.4,384.7 685.4,384.7"/>
  <polygon class="pl" points="707.8,369.3 707.8,368.9 725.8,368.9 725.8,369.3 707.8,369.3"/>
  <polygon class="pl" points="730.2,439.8 730.2,436.6 748.2,436.6 748.2,439.8 730.2,439.8"/>
  <polygon class="pl" points="775.0,389.0 775.0,388.2 793.0,388.2 793.0,389.0 775.0,389.0"/>
  <polygon class="pl" points="797.4,435.7 797.4,432.7 815.4,432.7 815.4,435.7 797.4,435.7"/>
  <polygon class="pl" points="819.8,473.2 819.8,470.1 837.8,470.1 837.8,473.2 819.8,473.2"/>
  <polygon class="pl" points="864.6,374.2 864.6,373.9 882.6,373.9 882.6,374.2 864.6,374.2"/>
  <polygon class="pl" points="887.0,395.2 887.0,393.4 905.0,393.4 905.0,395.2 887.0,395.2"/>
</g>
<g stroke="#000" stroke-width="0.90" fill="#8DA0CB"  clip-path="url(#axis_clip)">
  <polygon class="pl" points="170.2,428.1 170.2,391.2 188.2,391.2 188.2,428.1 170.2,428.1"/>
  <polygon class="pl" points="237.4,416.6 237.4,378.7 255.4,378.7 255.4,416.6 237.4,416.6"/>
  <polygon class="pl" points="282.2,390.9 282.2,350.2 300.2,350.2 300.2,390.9 282.2,390.9"/>
  <polygon class="pl" points="304.6,372.6 304.6,359.9 322.6,359.9 322.6,372.6 304.6,372.6"/>
  <polygon class="pl" points="327.0,431.7 327.0,350.2 345.0,350.2 345.0,431.7 327.0,431.7"/>
  <polygon class="pl" points="349.4,370.5 349.4,350.2 367.4,350.2 367.4,370.5 349.4,370.5"/>
  <polygon class="pl" points="371.8,382.9 371.8,350.2 389.8,350.2 389.8,382.9 371.8,382.9"/>
  <polygon class="pl" points="394.2,423.3 394.2,383.2 412.2,383.2 412.2,423.3 394.2,423.3"/>
  <polygon class="pl" points="439.0,377.7 439.0,369.2 457.0,369.2 457.0,377.7 439.0,377.7"/>
  <polygon class="pl" points="483.8,468.5 483.8,414.7 501.8,414.7 501.8,468.5 483.8,468.5"/>
  <polygon class="pl" points="506.2,390.2 506.2,350.2 524.2,350.2 524.2,390.2 506.2,390.2"/>
  <polygon class="pl" points="528.6,386.9 528.6,350.2 546.6,350.2 546.6,386.9 528.6,386.9"/>
  <polygon class="pl" points="551.0,504.4 551.0,350.2 569.0,350.2 569.0,504.4 551.0,504.4"/>
  <polygon class="pl" points="573.4,464.7 573.4,441.7 591.4,441.7 591.4,464.7 573.4,464.7"/>
  <polygon class="pl" points="595.8,417.9 595.8,383.8 613.8,383.8 613.8,417.9 595.8,417.9"/>
  <polygon class="pl" points="618.2,411.9 618.2,371.9 636.2,371.9 636.2,411.9 618.2,411.9"/>
  <polygon class="pl" points="640.6,364.4 640.6,351.8 658.6,351.8 658.6,364.4 640.6,364.4"/>
  <polygon class="pl" points="663.0,405.7 663.0,365.6 681.0,365.6 681.0,405.7 663.0,405.7"/>
  <polygon class="pl" points="685.4,384.4 685.4,371.6 703.4,371.6 703.4,384.4 685.4,384.4"/>
  <polygon class="pl" points="707.8,368.9 707.8,350.7 725.8,350.7 725.8,368.9 707.8,368.9"/>
  <polygon class="pl" points="730.2,436.6 730.2,416.2 748.2,416.2 748.2,436.6 730.2,436.6"/>
  <polygon class="pl" points="752.6,363.9 752.6,350.2 770.6,350.2 770.6,363.9 752.6,363.9"/>
  <polygon class="pl" points="775.0,388.2 775.0,366.5 793.0,366.5 793.0,388.2 775.0,388.2"/>
  <polygon class="pl" points="864.6,373.9 864.6,350.2 882.6,350.2 882.6,373.9 864.6,373.9"/>
</g>
<g stroke="#000" stroke-width="0.90" fill="#66C2A5"  clip-path="url(#axis_clip)">
  <polygon class="pl" points="147.8,363.4 147.8,350.2 165.8,350.2 165.8,363.4 147.8,363.4"/>
  <polygon class="pl" points="170.2,391.2 170.2,366.5 188.2,366.5 188.2,391.2 170.2,391.2"/>
  <polygon class="pl" points="237.4,378.7 237.4,350.2 255.4,350.2 255.4,378.7 237.4,378.7"/>
  <polygon class="pl" points="304.6,359.9 304.6,350.2 322.6,350.2 322.6,359.9 304.6,359.9"/>
  <polygon class="pl" points="394.2,383.2 394.2,350.2 412.2,350.2 412.2,383.2 394.2,383.2"/>
  <polygon class="pl" points="439.0,369.2 439.0,350.2 457.0,350.2 457.0,369.2 439.0,369.2"/>
  <polygon class="pl" points="461.4,414.2 461.4,350.2 479.4,350.2 479.4,414.2 461.4,414.2"/>
  <polygon class="pl" points="483.8,414.7 483.8,350.2 501.8,350.2 501.8,414.7 483.8,414.7"/>
  <polygon class="pl" points="618.2,371.9 618.2,350.2 636.2,350.2 636.2,371.9 618.2,371.9"/>
  <polygon class="pl" points="640.6,351.8 640.6,350.2 658.6,350.2 658.6,351.8 640.6,351.8"/>
  <polygon class="pl" points="663.0,365.6 663.0,350.2 681.0,350.2 681.0,365.6 663.0,365.6"/>
  <polygon class="pl" points="685.4,371.6 685.4,350.2 703.4,350.2 703.4,371.6 685.4,371.6"/>
  <polygon class="pl" points="707.8,350.7 707.8,350.2 725.8,350.2 725.8,350.7 707.8,350.7"/>
  <polygon class="pl" points="730.2,416.2 730.2,350.2 748.2,350.2 748.2,416.2 730.2,416.2"/>
  <polygon class="pl" points="775.0,366.5 775.0,350.2 793.0,350.2 793.0,366.5 775.0,366.5"/>
  <polygon class="pl" points="797.4,432.7 797.4,350.2 815.4,350.2 815.4,432.7 797.4,432.7"/>
  <polygon class="pl" points="819.8,470.1 819.8,454.6 837.8,454.6 837.8,470.1 819.8,470.1"/>
  <polygon class="pl" points="887.0,393.4 887.0,350.2 905.0,350.2 905.0,393.4 887.0,393.4"/>
</g>
<g stroke="#000" stroke-width="0.90" fill="#E78AC3"  clip-path="url(#axis_clip)">
  <polygon class="pl" points="170.2,366.5 170.2,350.2 188.2,350.2 188.2,366.5 170.2,366.5"/>
  <polygon class="pl" points="192.6,407.6 192.6,350.2 210.6,350.2 210.6,407.6 192.6,407.6"/>
  <polygon class="pl" points="259.8,355.3 259.8,350.2 277.8,350.2 277.8,355.3 259.8,355.3"/>
  <polygon class="pl" points="416.6,354.2 416.6,350.2 434.6,350.2 434.6,354.2 416.6,354.2"/>
  <polygon class="pl" points="573.4,441.7 573.4,350.2 591.4,350.2 591.4,441.7 573.4,441.7"/>
  <polygon class="pl" points="595.8,383.8 595.8,351.9 613.8,351.9 613.8,383.8 595.8,383.8"/>
  <polygon class="pl" points="819.8,454.6 819.8,350.2 837.8,350.2 837.8,454.6 819.8,454.6"/>
</g>
<g stroke="#000" stroke-width="0.90" fill="#A6D854"  clip-path="url(#axis_clip)">
  <polygon class="pl" points="595.8,351.9 595.8,350.2 613.8,350.2 613.8,351.9 595.8,351.9"/>
</g>
<g class="pl" fill="#000" stroke="#000" stroke-width="0.900">
  <circle cx="156.8" cy="146.6" r="5.4" />
  <circle cx="179.2" cy="413.6" r="5.4" />
  <circle cx="201.6" cy="271.3" r="5.4" />
  <circle cx="224.0" cy="267.3" r="5.4" />
  <circle cx="246.4" cy="375.3" r="5.4" />
  <circle cx="268.8" cy="289.9" r="5.4" />
  <circle cx="291.2" cy="327.6" r="5.4" />
  <circle cx="313.6" cy="302.0" r="5.4" />
  <circle cx="336.0" cy="341.2" r="5.4" />
  <circle cx="358.4" cy="259.2" r="5.4" />
  <circle cx="380.8" cy="315.3" r="5.4" />
  <circle cx="403.2" cy="374.4" r="5.4" />
  <circle cx="425.6" cy="297.7" r="5.4" />
  <circle cx="448.0" cy="352.8" r="5.4" />
  <circle cx="470.4" cy="305.3" r="5.4" />
  <circle cx="492.8" cy="397.0" r="5.4" />
  <circle cx="515.2" cy="279.3" r="5.4" />
  <circle cx="537.6" cy="222.6" r="5.4" />
  <circle cx="560.0" cy="246.2" r="5.4" />
  <circle cx="582.4" cy="372.0" r="5.4" />
  <circle cx="604.8" cy="383.6" r="5.4" />
  <circle cx="627.2" cy="390.4" r="5.4" />
  <circle cx="649.6" cy="355.1" r="5.4" />
  <circle cx="672.0" cy="350.5" r="5.4" />
  <circle cx="694.4" cy="364.8" r="5.4" />
  <circle cx="716.8" cy="317.2" r="5.4" />
  <circle cx="739.2" cy="369.3" r="5.4" />
  <circle cx="761.6" cy="307.1" r="5.4" />
  <circle cx="784.0" cy="331.8" r="5.4" />
  <circle cx="806.4" cy="386.1" r="5.4" />
  <circle cx="828.8" cy="425.1" r="5.4" />
  <circle cx="851.2" cy="287.3" r="5.4" />
  <circle cx="873.6" cy="314.8" r="5.4" />
  <circle cx="896.0" cy="301.3" r="5.4" />
</g>
<g stroke="#000" stroke-width="0.90" fill="#808080"  >
</g>
<g stroke="#000" stroke-width="0.90" fill="#8DA0CB"  >
</g>
<g stroke="#000" stroke-width="0.90" fill="#66C2A5"  >
  <polygon class="pl" points="959.0,310.7 959.0,318.8 977.0,318.8 977.0,310.7 959.0,310.7"/>
</g>
<g stroke="#000" stroke-width="0.90" fill="#E78AC3"  >
  <polygon class="pl" points="959.0,318.8 959.0,336.4 977.0,336.4 977.0,318.8 959.0,318.8"/>
</g>
<g stroke="#000" stroke-width="0.90" fill="#A6D854"  >
  <polygon class="pl" points="959.0,336.4 959.0,350.2 977.0,350.2 977.0,336.4 959.0,336.4"/>
</g>
<g stroke="#000" stroke-width="0.90" fill="#808080"  >
  <polygon class="pl" points="959.0,364.3 959.0,362.2 977.0,362.2 977.0,364.3 959.0,364.3"/>
</g>
<g stroke="#000" stroke-width="0.90" fill="#8DA0CB"  >
  <polygon class="pl" points="959.0,362.2 959.0,350.2 977.0,350.2 977.0,362.2 959.0,362.2"/>
</g>
<g stroke="#000" stroke-width="0.90" fill="#66C2A5"  >
</g>
<g stroke="#000" stroke-width="0.90" fill="#E78AC3"  >
</g>
<g stroke="#000" stroke-width="0.90" fill="#A6D854"  >
</g>
<g class="pl" fill="#000" stroke="#000" stroke-width="0.900">
  <circle cx="968.0" cy="324.7" r="5.4" />
</g>
<text transform="translate(968.0,593.9)"  font-size="21.60" fill="#808080" stroke="none" text-anchor="middle">
      <tspan x="0" y="18.0">Average over</tspan><tspan x="0" y="42.2">1990&#8211;2023</tspan>
    </text>
<g stroke="none" stroke-width="0.9000"  >
  <polygon points="968.0,587.2 974.0,593.9 962.0,593.9 968.0,587.2" fill="#808080"/>
</g>
<text transform="translate(1009.2,307.0)" dy="6.5" font-size="21.60" fill="#000" stroke="none">Fossil CO<tspan dy="0.2em"><tspan style="font-size:70%">2</tspan></tspan><tspan dy="-0.2em"></tspan></text>
<text transform="translate(1009.2,348.7)" dy="6.5" font-size="21.60" fill="#A6D854" stroke="none">Population</text>
<text transform="translate(1009.2,327.8)" dy="6.5" font-size="21.60" fill="#E78AC3" stroke="none">GDP/Population</text>
<text transform="translate(1009.2,286.1)" dy="6.5" font-size="21.60" fill="#66C2A5" stroke="none">Energy/GDP</text>
<text transform="translate(1009.2,369.6)" dy="6.5" font-size="21.60" fill="#8DA0CB" stroke="none">CO<tspan dy="0.2em"><tspan style="font-size:70%">2</tspan></tspan><tspan dy="-0.2em">/</tspan>Energy</text>
<text transform="translate(1009.2,390.5)" dy="6.5" font-size="21.60" fill="#808080" stroke="none">Interactions</text>
<polyline class="pl" points="985.2,324.7 986.2,324.7 987.2,324.5 988.1,324.2 988.9,323.8 989.7,323.3 990.4,322.8 991.1,322.1 991.7,321.4 992.4,320.7 992.9,319.8 993.5,319.0 994.1,318.1 994.6,317.2 995.1,316.3 995.7,315.4 996.2,314.5 996.7,313.6 997.3,312.7 997.9,311.8 998.4,311.0 999.1,310.3 999.7,309.6 1000.4,308.9 1001.1,308.4 1001.9,307.9 1002.7,307.5 1003.6,307.2 1004.6,307.0 1005.6,307.0" stroke="#000" stroke-width="0.90" stroke-opacity="1.00" fill="none" />
<polyline class="pl" points="985.2,343.3 986.2,343.3 987.2,343.4 988.1,343.4 988.9,343.6 989.7,343.7 990.4,343.9 991.1,344.1 991.7,344.3 992.4,344.5 992.9,344.8 993.5,345.0 994.1,345.3 994.6,345.6 995.1,345.9 995.7,346.2 996.2,346.4 996.7,346.7 997.3,347.0 997.9,347.2 998.4,347.5 999.1,347.7 999.7,347.9 1000.4,348.1 1001.1,348.3 1001.9,348.5 1002.7,348.6 1003.6,348.7 1004.6,348.7 1005.6,348.7" stroke="#A6D854" stroke-width="0.90" stroke-opacity="1.00" fill="none" />
<polyline class="pl" points="985.2,327.6 986.2,327.6 987.2,327.6 988.1,327.6 988.9,327.6 989.7,327.6 990.4,327.6 991.1,327.6 991.7,327.6 992.4,327.7 992.9,327.7 993.5,327.7 994.1,327.7 994.6,327.7 995.1,327.7 995.7,327.7 996.2,327.7 996.7,327.8 997.3,327.8 997.9,327.8 998.4,327.8 999.1,327.8 999.7,327.8 1000.4,327.8 1001.1,327.8 1001.9,327.8 1002.7,327.8 1003.6,327.8 1004.6,327.8 1005.6,327.8" stroke="#E78AC3" stroke-width="0.90" stroke-opacity="1.00" fill="none" />
<polyline class="pl" points="985.2,314.8 986.2,314.7 987.2,314.4 988.1,313.9 988.9,313.3 989.7,312.5 990.4,311.6 991.1,310.6 991.7,309.4 992.4,308.2 992.9,306.9 993.5,305.5 994.1,304.1 994.6,302.6 995.1,301.2 995.7,299.7 996.2,298.2 996.7,296.7 997.3,295.3 997.9,293.9 998.4,292.6 999.1,291.4 999.7,290.3 1000.4,289.2 1001.1,288.3 1001.9,287.5 1002.7,286.9 1003.6,286.4 1004.6,286.2 1005.6,286.1" stroke="#66C2A5" stroke-width="0.90" stroke-opacity="1.00" fill="none" />
<polyline class="pl" points="985.2,356.2 986.2,356.2 987.2,356.4 988.1,356.6 988.9,356.9 989.7,357.3 990.4,357.7 991.1,358.2 991.7,358.7 992.4,359.3 992.9,359.9 993.5,360.5 994.1,361.2 994.6,361.9 995.1,362.6 995.7,363.3 996.2,364.0 996.7,364.6 997.3,365.3 997.9,365.9 998.4,366.6 999.1,367.1 999.7,367.7 1000.4,368.1 1001.1,368.6 1001.9,368.9 1002.7,369.2 1003.6,369.5 1004.6,369.6 1005.6,369.6" stroke="#8DA0CB" stroke-width="0.90" stroke-opacity="1.00" fill="none" />
<polyline class="pl" points="985.2,363.2 986.2,363.3 987.2,363.6 988.1,364.0 988.9,364.6 989.7,365.4 990.4,366.2 991.1,367.2 991.7,368.3 992.4,369.5 992.9,370.7 993.5,372.0 994.1,373.4 994.6,374.8 995.1,376.2 995.7,377.6 996.2,379.0 996.7,380.4 997.3,381.7 997.9,383.0 998.4,384.3 999.1,385.4 999.7,386.5 1000.4,387.5 1001.1,388.4 1001.9,389.1 1002.7,389.7 1003.6,390.2 1004.6,390.4 1005.6,390.5" stroke="#808080" stroke-width="0.90" stroke-opacity="1.00" fill="none" />
<text transform="translate(145.6,47.2)" dy="0.0" font-size="27.00" fill="#808080" stroke="none">Kaya decomposition of emissions growth: Iceland</text>
<text transform="translate(157.6,60.7)" dy="18.0" font-size="18.00" fill="#808080" stroke="none">Percentage change relative to previous year</text>
<text transform="translate(157.6,82.4)" dy="18.0" font-size="18.00" fill="#808080" stroke="none">Adjusted for leap years</text>
<text transform="translate(160.3,666.1)" font-size="19.80" font-family="Helvetica" fill="#BFBFBF" stroke="none" xml:space="preserve">Global Carbon Project</text>
<g>
  <rect x="123.0" y="651.4" width="34" height="17" fill="#FFF" stroke="none" opacity="0.01"/>
  <g transform="translate(124.0,652.4) scale(0.24)">
  <g><circle fill="#FFF" cx="37.79" cy="28.5" r="28.84"/>
     <circle fill="none" cx="37.79" cy="28.5" r="28.84" stroke="#BFBFBF" stroke-width="5.5"/>
     <path fill="#BFBFBF" d="M37.16,23.19 l-4.29,2.23c-0.458-0.951-1.02-1.62-1.69-2c-0.667-0.38-1.29-0.571-1.86-0.571c-2.86,0-4.29,1.89-4.29,5.66 c0,1.71,0.36,3.08,1.09,4.11c0.724,1.03,1.79,1.54,3.2,1.54c1.87,0,3.18-0.915,3.94-2.74l3.94,2 c-0.838,1.56-2,2.79-3.49,3.69c-1.48,0.896-3.12,1.34-4.91,1.34c-2.86,0-5.16-0.875-6.92-2.63 c-1.75-1.75-2.63-4.19-2.63-7.31c0-3.05,0.886-5.47,2.66-7.26c1.77-1.79,4.01-2.69,6.72-2.69 C32.6,18.56,35.44,20.1,37.16,23.19z
              M55.61,23.19l-4.23,2.23c-0.457-0.951-1.02-1.62-1.69-2 c-0.668-0.38-1.31-0.571-1.91-0.571c-2.86,0-4.29,1.89-4.29,5.66c0,1.71,0.363,3.08,1.09,4.11 c0.723,1.03,1.79,1.54,3.2,1.54c1.87,0,3.18-0.915,3.94-2.74l4,2c-0.875,1.56-2.06,2.79-3.54,3.69 c-1.49,0.9-3.11,1.34-4.86,1.34c-2.9,0-5.21-0.875-6.94-2.63c-1.74-1.75-2.6-4.19-2.6-7.31 c0-3.05,0.885-5.47,2.66-7.26c1.77-1.79,4.01-2.69,6.71-2.69C51.12,18.56,53.944,20.1,55.61,23.19z"/>
  </g></g>
  <g transform="translate(140.2,652.4) scale(0.24)">
  <g><circle fill="#FFF" cx="37.79" cy="28.5" r="28.84"/>
     <circle fill="none" cx="37.79" cy="28.5" r="28.84" stroke="#BFBFBF" stroke-width="5.5"/>
     <path fill="#BFBFBF" d="M46.129,20.557v13.085h-3.656v15.542h-9.944V33.643h-3.656V20.557 c0-0.572,0.2-1.057,0.599-1.457c0.401-0.399,0.887-0.6,1.457-0.6h13.144c0.533,0,1.01,0.2,1.428,0.6 C45.918,19.5,46.129,19.986,46.129,20.557z
              M33.042,12.329c0-3.008,1.485-4.514,4.458-4.514s4.457,1.504,4.457,4.514 c0,2.971-1.486,4.457-4.457,4.457S33.042,15.3,33.042,12.329z"/>
  </g></g>
</g>
</g>
</svg>
