<svg version="1.1" xmlns="http://www.w3.org/2000/svg" xmlns:xlink="http://www.w3.org/1999/xlink" width="100%" height="100%" viewBox="0 0 1200.000 674.916">
<title>Annual LULUCF emissions: Poland</title>
<style type="text/css">
  #main {font-family:Helvetica,Arial,sans-serif; font-size:27.00px;
         fill-opacity:1; fill:#000000; stroke:none; stroke-linejoin:round; stroke-linecap:round; stroke-width:1.00;}
  .marker {stroke-opacity:0;fill-opacity:0;}
  .marker:hover {stroke-opacity:0.5; fill-opacity:1;}
  .ticklabel {font-size:27.00px;fill:#808080;stroke:none;font-family:Helvetica}
  .ytl {text-anchor:end;}
  .dp1 {pointer-events:none;font-size:70%;text-anchor:middle;fill:#000000;}
  .dp2 {pointer-events:none;font-size:70%;text-anchor:middle;fill:#FFFFFF;}
  .numtip {pointer-events:none;}
  .cc {opacity:0.25;}
.dl_fe {background-color:#FDFFDF;display:flex;margin:auto;align-items:center}
.dl_fe_p {font-size:20px;text-align:center;margin:3px}
.dl_el {display:none;pointer-events:none;}
.cc:hover + .dl_el {display:block;}
text:hover + .dl_el {display:block;}
</style>
<defs>
  <clipPath id="axis_clip"><rect x="145.8" y="54.2" width="761.2" height="532.8" /></clipPath>
  <path id="line_x" d="M 145.600,0 h 761.600" stroke="#262626" stroke-opacity="0.15" stroke-width="1.00"/>
  <path id="tick_y" d="M 145.600,0 h -6.000" stroke="#808080" stroke-width="0.90"/>
  <path id="tick_x" d="M 0,587.177 v 6.000" stroke="#808080" stroke-width="0.90"/>
</defs>
<g id="main">
<use xlink:href="#line_x" transform="translate(0,527.9)"/>
<use xlink:href="#line_x" transform="translate(0,409.4)"/>
<use xlink:href="#line_x" transform="translate(0,291.0)"/>
<use xlink:href="#line_x" transform="translate(0,172.5)"/>
<use xlink:href="#line_x" transform="translate(0,54.0)"/>
<use xlink:href="#tick_y" transform="translate(0,527.9)"/>
<use xlink:href="#tick_y" transform="translate(0,409.4)"/>
<use xlink:href="#tick_y" transform="translate(0,291.0)"/>
<use xlink:href="#tick_y" transform="translate(0,172.5)"/>
<use xlink:href="#tick_y" transform="translate(0,54.0)"/>
<use xlink:href="#tick_x" transform="translate(197.1,0)"/>
<use xlink:href="#tick_x" transform="translate(300.0,0)"/>
<use xlink:href="#tick_x" transform="translate(402.9,0)"/>
<use xlink:href="#tick_x" transform="translate(505.8,0)"/>
<use xlink:href="#tick_x" transform="translate(608.7,0)"/>
<use xlink:href="#tick_x" transform="translate(711.7,0)"/>
<use xlink:href="#tick_x" transform="translate(814.6,0)"/>
<use xlink:href="#tick_x" transform="translate(896.9,0)"/>
<polyline points="145.6,53.993 145.6,587.177 907.2,587.177" stroke="#808080" stroke-width="0.90" fill="none"/>
<text class="ticklabel xtl" transform="translate(197.1,629.0)" text-anchor="middle">1990</text>
<text class="ticklabel xtl" transform="translate(300.0,629.0)" text-anchor="middle">1995</text>
<text class="ticklabel xtl" transform="translate(402.9,629.0)" text-anchor="middle">2000</text>
<text class="ticklabel xtl" transform="translate(505.8,629.0)" text-anchor="middle">2005</text>
<text class="ticklabel xtl" transform="translate(608.7,629.0)" text-anchor="middle">2010</text>
<text class="ticklabel xtl" transform="translate(711.7,629.0)" text-anchor="middle">2015</text>
<text class="ticklabel xtl" transform="translate(814.6,629.0)" text-anchor="middle">2020</text>
<text class="ticklabel xtl" transform="translate(896.9,629.0)" text-anchor="middle">2024</text>
<text class="ticklabel ytl" transform="translate(128.8,536.0)">-60</text>
<text class="ticklabel ytl" transform="translate(128.8,417.5)">-40</text>
<text class="ticklabel ytl" transform="translate(128.8,299.1)">-20</text>
<text class="ticklabel ytl" transform="translate(128.8,180.6)">0</text>
<text class="ticklabel ytl" transform="translate(128.8,62.1)">20 Mt</text>
<g stroke="#000" stroke-width="0.90" fill="#1A4D1A"  clip-path="url(#axis_clip)">
</g>
<g stroke="#000" stroke-width="0.90" fill="#7B417F"  clip-path="url(#axis_clip)">
</g>
<g stroke="#000" stroke-width="0.90" fill="#808080"  clip-path="url(#axis_clip)">
  <polygon class="pl" points="147.7,147.6 147.7,166.2 164.1,166.2 164.1,147.6 147.7,147.6"/>
  <polygon class="pl" points="188.8,147.3 188.8,165.5 205.3,165.5 205.3,147.3 188.8,147.3"/>
  <polygon class="pl" points="209.4,148.1 209.4,165.9 225.9,165.9 225.9,148.1 209.4,148.1"/>
  <polygon class="pl" points="230.0,147.6 230.0,166.2 246.5,166.2 246.5,147.6 230.0,147.6"/>
  <polygon class="pl" points="250.6,147.7 250.6,166.4 267.0,166.4 267.0,147.7 250.6,147.7"/>
  <polygon class="pl" points="271.2,148.4 271.2,166.6 287.6,166.6 287.6,148.4 271.2,148.4"/>
  <polygon class="pl" points="291.7,148.6 291.7,165.9 308.2,165.9 308.2,148.6 291.7,148.6"/>
  <polygon class="pl" points="312.3,149.4 312.3,166.1 328.8,166.1 328.8,149.4 312.3,149.4"/>
  <polygon class="pl" points="332.9,148.9 332.9,165.9 349.4,165.9 349.4,148.9 332.9,148.9"/>
  <polygon class="pl" points="353.5,149.5 353.5,166.4 370.0,166.4 370.0,149.5 353.5,149.5"/>
  <polygon class="pl" points="374.1,148.0 374.1,164.0 390.5,164.0 390.5,148.0 374.1,148.0"/>
  <polygon class="pl" points="394.7,150.1 394.7,165.9 411.1,165.9 411.1,150.1 394.7,150.1"/>
  <polygon class="pl" points="415.2,150.7 415.2,165.8 431.7,165.8 431.7,150.7 415.2,150.7"/>
  <polygon class="pl" points="435.8,151.0 435.8,165.4 452.3,165.4 452.3,151.0 435.8,151.0"/>
  <polygon class="pl" points="456.4,149.0 456.4,163.4 472.9,163.4 472.9,149.0 456.4,149.0"/>
  <polygon class="pl" points="477.0,148.4 477.0,162.7 493.5,162.7 493.5,148.4 477.0,148.4"/>
  <polygon class="pl" points="497.6,146.8 497.6,161.3 514.0,161.3 514.0,146.8 497.6,146.8"/>
  <polygon class="pl" points="518.2,146.5 518.2,162.1 534.6,162.1 534.6,146.5 518.2,146.5"/>
  <polygon class="pl" points="538.8,145.6 538.8,160.7 555.2,160.7 555.2,145.6 538.8,145.6"/>
  <polygon class="pl" points="559.3,144.8 559.3,161.4 575.8,161.4 575.8,144.8 559.3,144.8"/>
  <polygon class="pl" points="579.9,146.3 579.9,162.3 596.4,162.3 596.4,146.3 579.9,146.3"/>
  <polygon class="pl" points="600.5,144.1 600.5,160.7 617.0,160.7 617.0,144.1 600.5,144.1"/>
  <polygon class="pl" points="621.1,143.9 621.1,160.1 637.6,160.1 637.6,143.9 621.1,143.9"/>
  <polygon class="pl" points="641.7,143.1 641.7,159.9 658.1,159.9 658.1,143.1 641.7,143.1"/>
  <polygon class="pl" points="662.3,141.7 662.3,158.9 678.7,158.9 678.7,141.7 662.3,141.7"/>
  <polygon class="pl" points="682.8,134.6 682.8,158.9 699.3,158.9 699.3,134.6 682.8,134.6"/>
  <polygon class="pl" points="703.4,136.6 703.4,159.1 719.9,159.1 719.9,136.6 703.4,136.6"/>
  <polygon class="pl" points="724.0,110.2 724.0,158.9 740.5,158.9 740.5,110.2 724.0,110.2"/>
  <polygon class="pl" points="744.6,126.4 744.6,156.6 761.1,156.6 761.1,126.4 744.6,126.4"/>
  <polygon class="pl" points="765.2,128.9 765.2,158.4 781.6,158.4 781.6,128.9 765.2,128.9"/>
  <polygon class="pl" points="785.8,125.8 785.8,157.0 802.2,157.0 802.2,125.8 785.8,125.8"/>
  <polygon class="pl" points="806.3,125.9 806.3,155.5 822.8,155.5 822.8,125.9 806.3,125.9"/>
  <polygon class="pl" points="826.9,126.5 826.9,156.9 843.4,156.9 843.4,126.5 826.9,126.5"/>
  <polygon class="pl" points="847.5,124.0 847.5,158.1 864.0,158.1 864.0,124.0 847.5,124.0"/>
  <polygon class="pl" points="868.1,67.7 868.1,157.2 884.6,157.2 884.6,67.7 868.1,67.7"/>
  <polygon class="pl" points="888.7,71.1 888.7,159.9 905.1,159.9 905.1,71.1 888.7,71.1"/>
</g>
<g stroke="#000" stroke-width="0.90" fill="#EDB120"  clip-path="url(#axis_clip)">
  <polygon class="pl" points="147.7,166.2 147.7,170.0 164.1,170.0 164.1,166.2 147.7,166.2"/>
  <polygon class="pl" points="188.8,165.5 188.8,169.4 205.3,169.4 205.3,165.5 188.8,165.5"/>
  <polygon class="pl" points="209.4,165.9 209.4,169.4 225.9,169.4 225.9,165.9 209.4,165.9"/>
  <polygon class="pl" points="230.0,166.2 230.0,169.7 246.5,169.7 246.5,166.2 230.0,166.2"/>
  <polygon class="pl" points="250.6,166.4 250.6,170.1 267.0,170.1 267.0,166.4 250.6,166.4"/>
  <polygon class="pl" points="271.2,166.6 271.2,170.1 287.6,170.1 287.6,166.6 271.2,166.6"/>
  <polygon class="pl" points="291.7,165.9 291.7,169.8 308.2,169.8 308.2,165.9 291.7,165.9"/>
  <polygon class="pl" points="312.3,166.1 312.3,169.9 328.8,169.9 328.8,166.1 312.3,166.1"/>
  <polygon class="pl" points="332.9,165.9 332.9,169.4 349.4,169.4 349.4,165.9 332.9,165.9"/>
  <polygon class="pl" points="353.5,166.4 353.5,170.0 370.0,170.0 370.0,166.4 353.5,166.4"/>
  <polygon class="pl" points="374.1,164.0 374.1,168.1 390.5,168.1 390.5,164.0 374.1,164.0"/>
  <polygon class="pl" points="394.7,165.9 394.7,169.9 411.1,169.9 411.1,165.9 394.7,165.9"/>
  <polygon class="pl" points="415.2,165.8 415.2,168.9 431.7,168.9 431.7,165.8 415.2,165.8"/>
  <polygon class="pl" points="435.8,165.4 435.8,169.1 452.3,169.1 452.3,165.4 435.8,165.4"/>
  <polygon class="pl" points="456.4,163.4 456.4,169.7 472.9,169.7 472.9,163.4 456.4,163.4"/>
  <polygon class="pl" points="477.0,162.7 477.0,168.2 493.5,168.2 493.5,162.7 477.0,162.7"/>
  <polygon class="pl" points="497.6,161.3 497.6,167.3 514.0,167.3 514.0,161.3 497.6,161.3"/>
  <polygon class="pl" points="518.2,162.1 518.2,167.5 534.6,167.5 534.6,162.1 518.2,162.1"/>
  <polygon class="pl" points="538.8,160.7 538.8,167.3 555.2,167.3 555.2,160.7 538.8,160.7"/>
  <polygon class="pl" points="559.3,161.4 559.3,167.6 575.8,167.6 575.8,161.4 559.3,161.4"/>
  <polygon class="pl" points="579.9,162.3 579.9,167.7 596.4,167.7 596.4,162.3 579.9,162.3"/>
  <polygon class="pl" points="600.5,160.7 600.5,167.4 617.0,167.4 617.0,160.7 600.5,160.7"/>
  <polygon class="pl" points="621.1,160.1 621.1,167.1 637.6,167.1 637.6,160.1 621.1,160.1"/>
  <polygon class="pl" points="641.7,159.9 641.7,166.8 658.1,166.8 658.1,159.9 641.7,159.9"/>
  <polygon class="pl" points="662.3,158.9 662.3,166.6 678.7,166.6 678.7,158.9 662.3,158.9"/>
  <polygon class="pl" points="682.8,158.9 682.8,166.2 699.3,166.2 699.3,158.9 682.8,158.9"/>
  <polygon class="pl" points="703.4,159.1 703.4,167.1 719.9,167.1 719.9,159.1 703.4,159.1"/>
  <polygon class="pl" points="724.0,158.9 724.0,167.1 740.5,167.1 740.5,158.9 724.0,158.9"/>
  <polygon class="pl" points="744.6,156.6 744.6,165.0 761.1,165.0 761.1,156.6 744.6,156.6"/>
  <polygon class="pl" points="765.2,158.4 765.2,165.7 781.6,165.7 781.6,158.4 765.2,158.4"/>
  <polygon class="pl" points="785.8,157.0 785.8,165.5 802.2,165.5 802.2,157.0 785.8,157.0"/>
  <polygon class="pl" points="806.3,155.5 806.3,165.8 822.8,165.8 822.8,155.5 806.3,155.5"/>
  <polygon class="pl" points="826.9,156.9 826.9,165.9 843.4,165.9 843.4,156.9 826.9,156.9"/>
  <polygon class="pl" points="847.5,158.1 847.5,165.3 864.0,165.3 864.0,158.1 847.5,158.1"/>
  <polygon class="pl" points="868.1,157.2 868.1,164.6 884.6,164.6 884.6,157.2 868.1,157.2"/>
  <polygon class="pl" points="888.7,159.9 888.7,167.8 905.1,167.8 905.1,159.9 888.7,159.9"/>
</g>
<g stroke="#000" stroke-width="0.90" fill="#D95319"  clip-path="url(#axis_clip)">
  <polygon class="pl" points="147.7,170.0 147.7,172.5 164.1,172.5 164.1,170.0 147.7,170.0"/>
  <polygon class="pl" points="188.8,169.4 188.8,172.5 205.3,172.5 205.3,169.4 188.8,169.4"/>
  <polygon class="pl" points="209.4,169.4 209.4,172.5 225.9,172.5 225.9,169.4 209.4,169.4"/>
  <polygon class="pl" points="230.0,169.7 230.0,172.5 246.5,172.5 246.5,169.7 230.0,169.7"/>
  <polygon class="pl" points="250.6,170.1 250.6,172.5 267.0,172.5 267.0,170.1 250.6,170.1"/>
  <polygon class="pl" points="271.2,170.1 271.2,172.5 287.6,172.5 287.6,170.1 271.2,170.1"/>
  <polygon class="pl" points="291.7,169.8 291.7,172.5 308.2,172.5 308.2,169.8 291.7,169.8"/>
  <polygon class="pl" points="312.3,169.9 312.3,172.5 328.8,172.5 328.8,169.9 312.3,169.9"/>
  <polygon class="pl" points="332.9,169.4 332.9,172.5 349.4,172.5 349.4,169.4 332.9,169.4"/>
  <polygon class="pl" points="353.5,170.0 353.5,172.5 370.0,172.5 370.0,170.0 353.5,170.0"/>
  <polygon class="pl" points="374.1,168.1 374.1,172.5 390.5,172.5 390.5,168.1 374.1,168.1"/>
  <polygon class="pl" points="394.7,169.9 394.7,172.5 411.1,172.5 411.1,169.9 394.7,169.9"/>
  <polygon class="pl" points="415.2,168.9 415.2,172.5 431.7,172.5 431.7,168.9 415.2,168.9"/>
  <polygon class="pl" points="435.8,169.1 435.8,172.5 452.3,172.5 452.3,169.1 435.8,169.1"/>
  <polygon class="pl" points="456.4,169.7 456.4,172.5 472.9,172.5 472.9,169.7 456.4,169.7"/>
  <polygon class="pl" points="477.0,168.2 477.0,172.5 493.5,172.5 493.5,168.2 477.0,168.2"/>
  <polygon class="pl" points="497.6,167.3 497.6,172.5 514.0,172.5 514.0,167.3 497.6,167.3"/>
  <polygon class="pl" points="518.2,167.5 518.2,172.5 534.6,172.5 534.6,167.5 518.2,167.5"/>
  <polygon class="pl" points="538.8,167.3 538.8,172.5 555.2,172.5 555.2,167.3 538.8,167.3"/>
  <polygon class="pl" points="559.3,167.6 559.3,172.5 575.8,172.5 575.8,167.6 559.3,167.6"/>
  <polygon class="pl" points="579.9,167.7 579.9,172.5 596.4,172.5 596.4,167.7 579.9,167.7"/>
  <polygon class="pl" points="600.5,167.4 600.5,172.5 617.0,172.5 617.0,167.4 600.5,167.4"/>
  <polygon class="pl" points="621.1,167.1 621.1,172.5 637.6,172.5 637.6,167.1 621.1,167.1"/>
  <polygon class="pl" points="641.7,166.8 641.7,172.5 658.1,172.5 658.1,166.8 641.7,166.8"/>
  <polygon class="pl" points="662.3,166.6 662.3,172.5 678.7,172.5 678.7,166.6 662.3,166.6"/>
  <polygon class="pl" points="682.8,166.2 682.8,172.5 699.3,172.5 699.3,166.2 682.8,166.2"/>
  <polygon class="pl" points="703.4,167.1 703.4,172.5 719.9,172.5 719.9,167.1 703.4,167.1"/>
  <polygon class="pl" points="724.0,167.1 724.0,172.5 740.5,172.5 740.5,167.1 724.0,167.1"/>
  <polygon class="pl" points="744.6,165.0 744.6,172.5 761.1,172.5 761.1,165.0 744.6,165.0"/>
  <polygon class="pl" points="765.2,165.7 765.2,172.5 781.6,172.5 781.6,165.7 765.2,165.7"/>
  <polygon class="pl" points="785.8,165.5 785.8,172.5 802.2,172.5 802.2,165.5 785.8,165.5"/>
  <polygon class="pl" points="806.3,165.8 806.3,172.5 822.8,172.5 822.8,165.8 806.3,165.8"/>
  <polygon class="pl" points="826.9,165.9 826.9,172.5 843.4,172.5 843.4,165.9 826.9,165.9"/>
  <polygon class="pl" points="847.5,165.3 847.5,172.5 864.0,172.5 864.0,165.3 847.5,165.3"/>
  <polygon class="pl" points="868.1,164.6 868.1,172.5 884.6,172.5 884.6,164.6 868.1,164.6"/>
  <polygon class="pl" points="888.7,167.8 888.7,172.5 905.1,172.5 905.1,167.8 888.7,167.8"/>
</g>
<g stroke="#000" stroke-width="0.90" fill="#1A4D1A"  clip-path="url(#axis_clip)">
</g>
<g stroke="#000" stroke-width="0.90" fill="#8B1E40"  clip-path="url(#axis_clip)">
  <polygon class="pl" points="147.7,480.1 147.7,472.9 164.1,472.9 164.1,480.1 147.7,480.1"/>
  <polygon class="pl" points="188.8,450.6 188.8,447.9 205.3,447.9 205.3,450.6 188.8,450.6"/>
  <polygon class="pl" points="209.4,384.7 209.4,382.8 225.9,382.8 225.9,384.7 209.4,384.7"/>
  <polygon class="pl" points="230.0,317.1 230.0,313.1 246.5,313.1 246.5,317.1 230.0,317.1"/>
  <polygon class="pl" points="250.6,351.1 250.6,345.6 267.0,345.6 267.0,351.1 250.6,351.1"/>
  <polygon class="pl" points="271.2,438.6 271.2,431.2 287.6,431.2 287.6,438.6 271.2,438.6"/>
  <polygon class="pl" points="291.7,564.2 291.7,558.6 308.2,558.6 308.2,564.2 291.7,564.2"/>
  <polygon class="pl" points="312.3,548.0 312.3,542.8 328.8,542.8 328.8,548.0 312.3,548.0"/>
  <polygon class="pl" points="332.9,566.5 332.9,559.3 349.4,559.3 349.4,566.5 332.9,566.5"/>
  <polygon class="pl" points="353.5,501.8 353.5,492.3 370.0,492.3 370.0,501.8 353.5,501.8"/>
  <polygon class="pl" points="374.1,486.3 374.1,472.8 390.5,472.8 390.5,486.3 374.1,486.3"/>
  <polygon class="pl" points="394.7,464.2 394.7,448.6 411.1,448.6 411.1,464.2 394.7,464.2"/>
  <polygon class="pl" points="415.2,415.1 415.2,401.1 431.7,401.1 431.7,415.1 415.2,415.1"/>
  <polygon class="pl" points="435.8,462.4 435.8,447.3 452.3,447.3 452.3,462.4 435.8,462.4"/>
  <polygon class="pl" points="456.4,474.5 456.4,456.8 472.9,456.8 472.9,474.5 456.4,474.5"/>
  <polygon class="pl" points="477.0,543.4 477.0,521.9 493.5,521.9 493.5,543.4 477.0,543.4"/>
  <polygon class="pl" points="497.6,541.9 497.6,522.4 514.0,522.4 514.0,541.9 497.6,541.9"/>
  <polygon class="pl" points="518.2,546.3 518.2,525.8 534.6,525.8 534.6,546.3 518.2,546.3"/>
  <polygon class="pl" points="538.8,468.2 538.8,444.0 555.2,444.0 555.2,468.2 538.8,468.2"/>
  <polygon class="pl" points="559.3,467.8 559.3,446.2 575.8,446.2 575.8,467.8 559.3,467.8"/>
  <polygon class="pl" points="579.9,523.5 579.9,502.9 596.4,502.9 596.4,523.5 579.9,523.5"/>
  <polygon class="pl" points="600.5,569.5 600.5,546.8 617.0,546.8 617.0,569.5 600.5,569.5"/>
  <polygon class="pl" points="621.1,534.7 621.1,512.4 637.6,512.4 637.6,534.7 621.1,534.7"/>
  <polygon class="pl" points="641.7,555.2 641.7,532.9 658.1,532.9 658.1,555.2 641.7,555.2"/>
  <polygon class="pl" points="662.3,518.5 662.3,495.7 678.7,495.7 678.7,518.5 662.3,518.5"/>
  <polygon class="pl" points="682.8,482.3 682.8,459.3 699.3,459.3 699.3,482.3 682.8,482.3"/>
  <polygon class="pl" points="703.4,456.9 703.4,433.2 719.9,433.2 719.9,456.9 703.4,456.9"/>
  <polygon class="pl" points="724.0,524.1 724.0,498.6 740.5,498.6 740.5,524.1 724.0,524.1"/>
  <polygon class="pl" points="744.6,509.0 744.6,481.9 761.1,481.9 761.1,509.0 744.6,509.0"/>
  <polygon class="pl" points="765.2,501.3 765.2,473.1 781.6,473.1 781.6,501.3 765.2,501.3"/>
  <polygon class="pl" points="785.8,405.5 785.8,377.5 802.2,377.5 802.2,405.5 785.8,405.5"/>
  <polygon class="pl" points="806.3,414.7 806.3,386.1 822.8,386.1 822.8,414.7 806.3,414.7"/>
  <polygon class="pl" points="826.9,414.5 826.9,382.6 843.4,382.6 843.4,414.5 826.9,414.5"/>
  <polygon class="pl" points="847.5,488.4 847.5,461.8 864.0,461.8 864.0,488.4 847.5,488.4"/>
  <polygon class="pl" points="868.1,514.3 868.1,492.5 884.6,492.5 884.6,514.3 868.1,514.3"/>
  <polygon class="pl" points="888.7,423.3 888.7,400.8 905.1,400.8 905.1,423.3 888.7,423.3"/>
</g>
<g stroke="#000" stroke-width="0.90" fill="#7B417F"  clip-path="url(#axis_clip)">
</g>
<g stroke="#000" stroke-width="0.90" fill="#5AA3D0"  clip-path="url(#axis_clip)">
  <polygon class="pl" points="147.7,472.9 147.7,446.3 164.1,446.3 164.1,472.9 147.7,472.9"/>
  <polygon class="pl" points="188.8,447.9 188.8,421.0 205.3,421.0 205.3,447.9 188.8,447.9"/>
  <polygon class="pl" points="209.4,382.8 209.4,353.1 225.9,353.1 225.9,382.8 209.4,382.8"/>
  <polygon class="pl" points="230.0,313.1 230.0,283.1 246.5,283.1 246.5,313.1 230.0,313.1"/>
  <polygon class="pl" points="250.6,345.6 250.6,315.3 267.0,315.3 267.0,345.6 250.6,345.6"/>
  <polygon class="pl" points="271.2,431.2 271.2,400.5 287.6,400.5 287.6,431.2 271.2,431.2"/>
  <polygon class="pl" points="291.7,558.6 291.7,527.6 308.2,527.6 308.2,558.6 291.7,558.6"/>
  <polygon class="pl" points="312.3,542.8 312.3,511.4 328.8,511.4 328.8,542.8 312.3,542.8"/>
  <polygon class="pl" points="332.9,559.3 332.9,528.0 349.4,528.0 349.4,559.3 332.9,559.3"/>
  <polygon class="pl" points="353.5,492.3 353.5,461.2 370.0,461.2 370.0,492.3 353.5,492.3"/>
  <polygon class="pl" points="374.1,472.8 374.1,441.8 390.5,441.8 390.5,472.8 374.1,472.8"/>
  <polygon class="pl" points="394.7,448.6 394.7,417.9 411.1,417.9 411.1,448.6 394.7,448.6"/>
  <polygon class="pl" points="415.2,401.1 415.2,369.8 431.7,369.8 431.7,401.1 415.2,401.1"/>
  <polygon class="pl" points="435.8,447.3 435.8,416.6 452.3,416.6 452.3,447.3 435.8,447.3"/>
  <polygon class="pl" points="456.4,456.8 456.4,426.7 472.9,426.7 472.9,456.8 456.4,456.8"/>
  <polygon class="pl" points="477.0,521.9 477.0,492.4 493.5,492.4 493.5,521.9 477.0,521.9"/>
  <polygon class="pl" points="497.6,522.4 497.6,494.1 514.0,494.1 514.0,522.4 497.6,522.4"/>
  <polygon class="pl" points="518.2,525.8 518.2,497.7 534.6,497.7 534.6,525.8 518.2,525.8"/>
  <polygon class="pl" points="538.8,444.0 538.8,416.0 555.2,416.0 555.2,444.0 538.8,444.0"/>
  <polygon class="pl" points="559.3,446.2 559.3,419.5 575.8,419.5 575.8,446.2 559.3,446.2"/>
  <polygon class="pl" points="579.9,502.9 579.9,475.6 596.4,475.6 596.4,502.9 579.9,502.9"/>
  <polygon class="pl" points="600.5,546.8 600.5,519.7 617.0,519.7 617.0,546.8 600.5,546.8"/>
  <polygon class="pl" points="621.1,512.4 621.1,485.3 637.6,485.3 637.6,512.4 621.1,512.4"/>
  <polygon class="pl" points="641.7,532.9 641.7,506.1 658.1,506.1 658.1,532.9 641.7,532.9"/>
  <polygon class="pl" points="662.3,495.7 662.3,469.3 678.7,469.3 678.7,495.7 662.3,495.7"/>
  <polygon class="pl" points="682.8,459.3 682.8,433.3 699.3,433.3 699.3,459.3 682.8,459.3"/>
  <polygon class="pl" points="703.4,433.2 703.4,407.1 719.9,407.1 719.9,433.2 703.4,433.2"/>
  <polygon class="pl" points="724.0,498.6 724.0,472.9 740.5,472.9 740.5,498.6 724.0,498.6"/>
  <polygon class="pl" points="744.6,481.9 744.6,457.0 761.1,457.0 761.1,481.9 744.6,481.9"/>
  <polygon class="pl" points="765.2,473.1 765.2,448.1 781.6,448.1 781.6,473.1 765.2,473.1"/>
  <polygon class="pl" points="785.8,377.5 785.8,352.9 802.2,352.9 802.2,377.5 785.8,377.5"/>
  <polygon class="pl" points="806.3,386.1 806.3,362.3 822.8,362.3 822.8,386.1 806.3,386.1"/>
  <polygon class="pl" points="826.9,382.6 826.9,358.6 843.4,358.6 843.4,382.6 826.9,382.6"/>
  <polygon class="pl" points="847.5,461.8 847.5,438.1 864.0,438.1 864.0,461.8 847.5,461.8"/>
  <polygon class="pl" points="868.1,492.5 868.1,469.0 884.6,469.0 884.6,492.5 868.1,492.5"/>
  <polygon class="pl" points="888.7,400.8 888.7,381.5 905.1,381.5 905.1,400.8 888.7,400.8"/>
</g>
<g stroke="#000" stroke-width="0.90" fill="#6AB561"  clip-path="url(#axis_clip)">
  <polygon class="pl" points="147.7,446.3 147.7,172.5 164.1,172.5 164.1,446.3 147.7,446.3"/>
  <polygon class="pl" points="188.8,421.0 188.8,172.5 205.3,172.5 205.3,421.0 188.8,421.0"/>
  <polygon class="pl" points="209.4,353.1 209.4,172.5 225.9,172.5 225.9,353.1 209.4,353.1"/>
  <polygon class="pl" points="230.0,283.1 230.0,172.5 246.5,172.5 246.5,283.1 230.0,283.1"/>
  <polygon class="pl" points="250.6,315.3 250.6,172.5 267.0,172.5 267.0,315.3 250.6,315.3"/>
  <polygon class="pl" points="271.2,400.5 271.2,172.5 287.6,172.5 287.6,400.5 271.2,400.5"/>
  <polygon class="pl" points="291.7,527.6 291.7,172.5 308.2,172.5 308.2,527.6 291.7,527.6"/>
  <polygon class="pl" points="312.3,511.4 312.3,172.5 328.8,172.5 328.8,511.4 312.3,511.4"/>
  <polygon class="pl" points="332.9,528.0 332.9,172.5 349.4,172.5 349.4,528.0 332.9,528.0"/>
  <polygon class="pl" points="353.5,461.2 353.5,172.5 370.0,172.5 370.0,461.2 353.5,461.2"/>
  <polygon class="pl" points="374.1,441.8 374.1,172.5 390.5,172.5 390.5,441.8 374.1,441.8"/>
  <polygon class="pl" points="394.7,417.9 394.7,172.5 411.1,172.5 411.1,417.9 394.7,417.9"/>
  <polygon class="pl" points="415.2,369.8 415.2,172.5 431.7,172.5 431.7,369.8 415.2,369.8"/>
  <polygon class="pl" points="435.8,416.6 435.8,172.5 452.3,172.5 452.3,416.6 435.8,416.6"/>
  <polygon class="pl" points="456.4,426.7 456.4,172.5 472.9,172.5 472.9,426.7 456.4,426.7"/>
  <polygon class="pl" points="477.0,492.4 477.0,172.5 493.5,172.5 493.5,492.4 477.0,492.4"/>
  <polygon class="pl" points="497.6,494.1 497.6,172.5 514.0,172.5 514.0,494.1 497.6,494.1"/>
  <polygon class="pl" points="518.2,497.7 518.2,172.5 534.6,172.5 534.6,497.7 518.2,497.7"/>
  <polygon class="pl" points="538.8,416.0 538.8,172.5 555.2,172.5 555.2,416.0 538.8,416.0"/>
  <polygon class="pl" points="559.3,419.5 559.3,172.5 575.8,172.5 575.8,419.5 559.3,419.5"/>
  <polygon class="pl" points="579.9,475.6 579.9,172.5 596.4,172.5 596.4,475.6 579.9,475.6"/>
  <polygon class="pl" points="600.5,519.7 600.5,172.5 617.0,172.5 617.0,519.7 600.5,519.7"/>
  <polygon class="pl" points="621.1,485.3 621.1,172.5 637.6,172.5 637.6,485.3 621.1,485.3"/>
  <polygon class="pl" points="641.7,506.1 641.7,172.5 658.1,172.5 658.1,506.1 641.7,506.1"/>
  <polygon class="pl" points="662.3,469.3 662.3,172.5 678.7,172.5 678.7,469.3 662.3,469.3"/>
  <polygon class="pl" points="682.8,433.3 682.8,172.5 699.3,172.5 699.3,433.3 682.8,433.3"/>
  <polygon class="pl" points="703.4,407.1 703.4,172.5 719.9,172.5 719.9,407.1 703.4,407.1"/>
  <polygon class="pl" points="724.0,472.9 724.0,172.5 740.5,172.5 740.5,472.9 724.0,472.9"/>
  <polygon class="pl" points="744.6,457.0 744.6,172.5 761.1,172.5 761.1,457.0 744.6,457.0"/>
  <polygon class="pl" points="765.2,448.1 765.2,172.5 781.6,172.5 781.6,448.1 765.2,448.1"/>
  <polygon class="pl" points="785.8,352.9 785.8,172.5 802.2,172.5 802.2,352.9 785.8,352.9"/>
  <polygon class="pl" points="806.3,362.3 806.3,172.5 822.8,172.5 822.8,362.3 806.3,362.3"/>
  <polygon class="pl" points="826.9,358.6 826.9,172.5 843.4,172.5 843.4,358.6 826.9,358.6"/>
  <polygon class="pl" points="847.5,438.1 847.5,172.5 864.0,172.5 864.0,438.1 847.5,438.1"/>
  <polygon class="pl" points="868.1,469.0 868.1,172.5 884.6,172.5 884.6,469.0 868.1,469.0"/>
  <polygon class="pl" points="888.7,381.5 888.7,172.5 905.1,172.5 905.1,381.5 888.7,381.5"/>
</g>
<polyline class="pl" points="155.9,455.2 197.1,425.5 217.6,360.3 238.2,292.2 258.8,326.3 279.4,414.5 300.0,540.3 320.6,524.9 341.1,542.9 361.7,478.9 382.3,461.9 402.9,441.8 423.5,393.3 444.1,440.9 464.6,451.0 485.2,519.4 505.8,516.3 526.4,520.3 547.0,441.4 567.6,440.2 588.2,497.3 608.7,541.1 629.3,506.1 649.9,525.8 670.5,487.7 691.1,444.5 711.7,421.0 732.2,461.9 752.8,462.9 773.4,457.7 794.0,358.8 814.6,368.1 835.2,368.5 855.7,440.0 876.3,409.5 896.9,321.8" stroke="#000" stroke-width="5.40" stroke-opacity="1.00" fill="none" clip-path="url(#axis_clip)"/>
<g class="pl" fill="#FFF" stroke="#000" stroke-width="0.900">
  <circle cx="155.9" cy="455.2" r="2.2" />
  <circle cx="217.6" cy="360.3" r="2.2" />
  <circle cx="238.2" cy="292.2" r="2.2" />
  <circle cx="258.8" cy="326.3" r="2.2" />
  <circle cx="279.4" cy="414.5" r="2.2" />
  <circle cx="300.0" cy="540.3" r="2.2" />
  <circle cx="320.6" cy="524.9" r="2.2" />
  <circle cx="341.1" cy="542.9" r="2.2" />
  <circle cx="361.7" cy="478.9" r="2.2" />
  <circle cx="382.3" cy="461.9" r="2.2" />
  <circle cx="423.5" cy="393.3" r="2.2" />
  <circle cx="444.1" cy="440.9" r="2.2" />
  <circle cx="464.6" cy="451.0" r="2.2" />
  <circle cx="485.2" cy="519.4" r="2.2" />
  <circle cx="505.8" cy="516.3" r="2.2" />
  <circle cx="526.4" cy="520.3" r="2.2" />
  <circle cx="547.0" cy="441.4" r="2.2" />
  <circle cx="567.6" cy="440.2" r="2.2" />
  <circle cx="588.2" cy="497.3" r="2.2" />
  <circle cx="629.3" cy="506.1" r="2.2" />
  <circle cx="649.9" cy="525.8" r="2.2" />
  <circle cx="670.5" cy="487.7" r="2.2" />
  <circle cx="691.1" cy="444.5" r="2.2" />
  <circle cx="711.7" cy="421.0" r="2.2" />
  <circle cx="732.2" cy="461.9" r="2.2" />
  <circle cx="752.8" cy="462.9" r="2.2" />
  <circle cx="773.4" cy="457.7" r="2.2" />
  <circle cx="794.0" cy="358.8" r="2.2" />
  <circle cx="835.2" cy="368.5" r="2.2" />
  <circle cx="855.7" cy="440.0" r="2.2" />
  <circle cx="876.3" cy="409.5" r="2.2" />
  <circle cx="896.9" cy="321.8" r="2.2" />
</g>
<g class="pl" fill="#FFF" stroke="#000" stroke-width="0.900">
  <circle cx="197.1" cy="425.5" r="5.4" />
  <circle cx="402.9" cy="441.8" r="5.4" />
  <circle cx="608.7" cy="541.1" r="5.4" />
  <circle cx="814.6" cy="368.1" r="5.4" />
</g>
<text transform="translate(145.6,47.2)" dy="0.0" font-size="27.00" fill="#808080" stroke="none">Annual LULUCF emissions: Poland</text>
<text transform="translate(130.0,81.7)" dy="8.1" font-size="27.00" fill="#808080" stroke="none" text-anchor="end">CO<tspan dy="0.2em"><tspan style="font-size:70%">2</tspan></tspan><tspan dy="-0.2em">e</tspan></text>
<text transform="translate(945.6,177.5)" dy="6.5" font-size="21.60" fill="#D95319" stroke="none">Grassland</text>
<text transform="translate(945.6,156.6)" dy="6.5" font-size="21.60" fill="#EDB120" stroke="none">Wetlands</text>
<text transform="translate(945.6,115.5)" dy="6.5" font-size="21.60" fill="#808080" stroke="none">Settlements</text>
<text transform="translate(945.6,81.5)" dy="6.5" font-size="21.60" fill="#7B417F" stroke="none">Other land</text>
<text transform="translate(945.6,60.6)" dy="6.5" font-size="21.60" fill="#1A4D1A" stroke="none">Other</text>
<text transform="translate(945.6,277.0)" dy="6.5" font-size="21.60" fill="#6AB561" stroke="none">Forest land</text>
<text transform="translate(945.6,391.2)" dy="6.5" font-size="21.60" fill="#5AA3D0" stroke="none">Cropland</text>
<text transform="translate(945.6,412.1)" dy="6.5" font-size="21.60" fill="#8B1E40" stroke="none">HWP</text>
<polyline class="pl" points="910.8,170.2 912.4,170.2 913.8,170.3 915.2,170.4 916.4,170.5 917.6,170.7 918.8,171.0 919.8,171.2 920.8,171.5 921.7,171.8 922.7,172.2 923.5,172.5 924.4,172.9 925.2,173.2 926.0,173.6 926.8,174.0 927.6,174.4 928.4,174.7 929.3,175.1 930.1,175.4 931.1,175.8 932.0,176.1 933.0,176.4 934.0,176.6 935.2,176.9 936.4,177.1 937.6,177.2 939.0,177.4 940.4,177.4 942.0,177.5" stroke="#D95319" stroke-width="0.90" stroke-opacity="1.00" fill="none" />
<polyline class="pl" points="910.8,163.9 912.4,163.8 913.8,163.8 915.2,163.6 916.4,163.5 917.6,163.3 918.8,163.1 919.8,162.8 920.8,162.5 921.7,162.2 922.7,161.9 923.5,161.5 924.4,161.1 925.2,160.8 926.0,160.4 926.8,160.0 927.6,159.6 928.4,159.3 929.3,158.9 930.1,158.6 931.1,158.2 932.0,157.9 933.0,157.6 934.0,157.4 935.2,157.1 936.4,156.9 937.6,156.8 939.0,156.7 940.4,156.6 942.0,156.6" stroke="#EDB120" stroke-width="0.90" stroke-opacity="1.00" fill="none" />
<polyline class="pl" points="910.8,71.1 912.4,71.1 913.8,71.2 915.2,71.4 916.4,71.6 917.6,71.9 918.8,72.2 919.8,72.6 920.8,73.0 921.7,73.4 922.7,73.9 923.5,74.4 924.4,74.9 925.2,75.5 926.0,76.0 926.8,76.5 927.6,77.1 928.4,77.6 929.3,78.1 930.1,78.6 931.1,79.1 932.0,79.6 933.0,80.0 934.0,80.3 935.2,80.7 936.4,81.0 937.6,81.2 939.0,81.4 940.4,81.5 942.0,81.5" stroke="#7B417F" stroke-width="0.90" stroke-opacity="1.00" fill="none" />
<polyline class="pl" points="910.8,71.1 912.4,71.0 913.8,70.9 915.2,70.7 916.4,70.5 917.6,70.2 918.8,69.9 919.8,69.5 920.8,69.1 921.7,68.7 922.7,68.2 923.5,67.7 924.4,67.2 925.2,66.6 926.0,66.1 926.8,65.6 927.6,65.0 928.4,64.5 929.3,64.0 930.1,63.5 931.1,63.0 932.0,62.5 933.0,62.1 934.0,61.8 935.2,61.4 936.4,61.1 937.6,60.9 939.0,60.7 940.4,60.6 942.0,60.6" stroke="#1A4D1A" stroke-width="0.90" stroke-opacity="1.00" fill="none" />
<polyline class="pl" points="910.8,391.2 912.4,391.2 913.8,391.2 915.2,391.2 916.4,391.2 917.6,391.2 918.8,391.2 919.8,391.2 920.8,391.2 921.7,391.2 922.7,391.2 923.5,391.2 924.4,391.2 925.2,391.2 926.0,391.2 926.8,391.2 927.6,391.2 928.4,391.2 929.3,391.2 930.1,391.2 931.1,391.2 932.0,391.2 933.0,391.2 934.0,391.2 935.2,391.2 936.4,391.2 937.6,391.2 939.0,391.2 940.4,391.2 942.0,391.2" stroke="#5AA3D0" stroke-width="0.90" stroke-opacity="1.00" fill="none" />
<polyline class="pl" points="910.8,412.1 912.4,412.1 913.8,412.1 915.2,412.1 916.4,412.1 917.6,412.1 918.8,412.1 919.8,412.1 920.8,412.1 921.7,412.1 922.7,412.1 923.5,412.1 924.4,412.1 925.2,412.1 926.0,412.1 926.8,412.1 927.6,412.1 928.4,412.1 929.3,412.1 930.1,412.1 931.1,412.1 932.0,412.1 933.0,412.1 934.0,412.1 935.2,412.1 936.4,412.1 937.6,412.1 939.0,412.1 940.4,412.1 942.0,412.1" stroke="#8B1E40" stroke-width="0.90" stroke-opacity="1.00" fill="none" />
<text transform="translate(160.0,666.1)" font-size="19.80" font-family="Helvetica" fill="#BFBFBF" stroke="none" xml:space="preserve">CICERO   &#9679;   Data: UNFCCC (2026)   &#9679;   HWP = Harvested Wood Products</text>
<g>
  <rect x="123.0" y="651.4" width="34" height="17" fill="#FFF" stroke="none" opacity="0.01"/>
  <g transform="translate(124.0,652.4) scale(0.24)">
  <g><circle fill="#FFF" cx="37.79" cy="28.5" r="28.84"/>
     <circle fill="none" cx="37.79" cy="28.5" r="28.84" stroke="#BFBFBF" stroke-width="5.5"/>
     <path fill="#BFBFBF" d="M37.16,23.19 l-4.29,2.23c-0.458-0.951-1.02-1.62-1.69-2c-0.667-0.38-1.29-0.571-1.86-0.571c-2.86,0-4.29,1.89-4.29,5.66 c0,1.71,0.36,3.08,1.09,4.11c0.724,1.03,1.79,1.54,3.2,1.54c1.87,0,3.18-0.915,3.94-2.74l3.94,2 c-0.838,1.56-2,2.79-3.49,3.69c-1.48,0.896-3.12,1.34-4.91,1.34c-2.86,0-5.16-0.875-6.92-2.63 c-1.75-1.75-2.63-4.19-2.63-7.31c0-3.05,0.886-5.47,2.66-7.26c1.77-1.79,4.01-2.69,6.72-2.69 C32.6,18.56,35.44,20.1,37.16,23.19z
              M55.61,23.19l-4.23,2.23c-0.457-0.951-1.02-1.62-1.69-2 c-0.668-0.38-1.31-0.571-1.91-0.571c-2.86,0-4.29,1.89-4.29,5.66c0,1.71,0.363,3.08,1.09,4.11 c0.723,1.03,1.79,1.54,3.2,1.54c1.87,0,3.18-0.915,3.94-2.74l4,2c-0.875,1.56-2.06,2.79-3.54,3.69 c-1.49,0.9-3.11,1.34-4.86,1.34c-2.9,0-5.21-0.875-6.94-2.63c-1.74-1.75-2.6-4.19-2.6-7.31 c0-3.05,0.885-5.47,2.66-7.26c1.77-1.79,4.01-2.69,6.71-2.69C51.12,18.56,53.944,20.1,55.61,23.19z"/>
  </g></g>
  <g transform="translate(140.2,652.4) scale(0.24)">
  <g><circle fill="#FFF" cx="37.79" cy="28.5" r="28.84"/>
     <circle fill="none" cx="37.79" cy="28.5" r="28.84" stroke="#BFBFBF" stroke-width="5.5"/>
     <path fill="#BFBFBF" d="M46.129,20.557v13.085h-3.656v15.542h-9.944V33.643h-3.656V20.557 c0-0.572,0.2-1.057,0.599-1.457c0.401-0.399,0.887-0.6,1.457-0.6h13.144c0.533,0,1.01,0.2,1.428,0.6 C45.918,19.5,46.129,19.986,46.129,20.557z
              M33.042,12.329c0-3.008,1.485-4.514,4.458-4.514s4.457,1.504,4.457,4.514 c0,2.971-1.486,4.457-4.457,4.457S33.042,15.3,33.042,12.329z"/>
  </g></g>
</g>
</g>
</svg>
