<svg version="1.1" xmlns="http://www.w3.org/2000/svg" xmlns:xlink="http://www.w3.org/1999/xlink" width="100%" height="100%" viewBox="0 0 1200.000 674.916">
<title>Annual CH4 Emissions: Poland</title>
<style type="text/css">
  #main {font-family:Helvetica,Arial,sans-serif; font-size:27.00px;
         fill-opacity:1; fill:#000000; stroke:none; stroke-linejoin:round; stroke-linecap:round; stroke-width:1.00;}
  .marker {stroke-opacity:0;fill-opacity:0;}
  .marker:hover {stroke-opacity:0.5; fill-opacity:1;}
  .ticklabel {font-size:27.00px;fill:#808080;stroke:none;font-family:Helvetica}
  .ytl {text-anchor:end;}
  .dp1 {pointer-events:none;font-size:70%;text-anchor:middle;fill:#000000;}
  .dp2 {pointer-events:none;font-size:70%;text-anchor:middle;fill:#FFFFFF;}
  .numtip {pointer-events:none;}
  .cc {opacity:0.25;}
.dl_fe {background-color:#FDFFDF;display:flex;margin:auto;align-items:center}
.dl_fe_p {font-size:20px;text-align:center;margin:3px}
.dl_el {display:none;pointer-events:none;}
.cc:hover + .dl_el {display:block;}
text:hover + .dl_el {display:block;}
</style>
<defs>
  <clipPath id="axis_clip"><rect x="145.8" y="54.2" width="761.2" height="532.8" /></clipPath>
  <path id="line_y" d="M 0,53.993 v 533.183" stroke="#262626" stroke-opacity="0.15" stroke-width="1.00"/>
  <path id="line_x" d="M 145.600,0 h 761.600" stroke="#262626" stroke-opacity="0.15" stroke-width="1.00"/>
  <path id="tick_y" d="M 145.600,0 h -6.000" stroke="#808080" stroke-width="0.90"/>
  <path id="tick_x" d="M 0,587.177 v 6.000" stroke="#808080" stroke-width="0.90"/>
</defs>
<g id="main">
<use xlink:href="#line_y" transform="translate(197.1,0)"/>
<use xlink:href="#line_y" transform="translate(300.0,0)"/>
<use xlink:href="#line_y" transform="translate(402.9,0)"/>
<use xlink:href="#line_y" transform="translate(505.8,0)"/>
<use xlink:href="#line_y" transform="translate(608.7,0)"/>
<use xlink:href="#line_y" transform="translate(711.7,0)"/>
<use xlink:href="#line_y" transform="translate(814.6,0)"/>
<use xlink:href="#line_y" transform="translate(896.9,0)"/>
<use xlink:href="#line_x" transform="translate(0,587.2)"/>
<use xlink:href="#line_x" transform="translate(0,498.3)"/>
<use xlink:href="#line_x" transform="translate(0,409.4)"/>
<use xlink:href="#line_x" transform="translate(0,320.6)"/>
<use xlink:href="#line_x" transform="translate(0,231.7)"/>
<use xlink:href="#line_x" transform="translate(0,142.9)"/>
<use xlink:href="#line_x" transform="translate(0,54.0)"/>
<use xlink:href="#tick_y" transform="translate(0,587.2)"/>
<use xlink:href="#tick_y" transform="translate(0,498.3)"/>
<use xlink:href="#tick_y" transform="translate(0,409.4)"/>
<use xlink:href="#tick_y" transform="translate(0,320.6)"/>
<use xlink:href="#tick_y" transform="translate(0,231.7)"/>
<use xlink:href="#tick_y" transform="translate(0,142.9)"/>
<use xlink:href="#tick_y" transform="translate(0,54.0)"/>
<use xlink:href="#tick_x" transform="translate(197.1,0)"/>
<use xlink:href="#tick_x" transform="translate(300.0,0)"/>
<use xlink:href="#tick_x" transform="translate(402.9,0)"/>
<use xlink:href="#tick_x" transform="translate(505.8,0)"/>
<use xlink:href="#tick_x" transform="translate(608.7,0)"/>
<use xlink:href="#tick_x" transform="translate(711.7,0)"/>
<use xlink:href="#tick_x" transform="translate(814.6,0)"/>
<use xlink:href="#tick_x" transform="translate(896.9,0)"/>
<polyline points="145.6,53.993 145.6,587.177 907.2,587.177" stroke="#808080" stroke-width="0.90" fill="none"/>
<text class="ticklabel xtl" transform="translate(197.1,629.0)" text-anchor="middle">1990</text>
<text class="ticklabel xtl" transform="translate(300.0,629.0)" text-anchor="middle">1995</text>
<text class="ticklabel xtl" transform="translate(402.9,629.0)" text-anchor="middle">2000</text>
<text class="ticklabel xtl" transform="translate(505.8,629.0)" text-anchor="middle">2005</text>
<text class="ticklabel xtl" transform="translate(608.7,629.0)" text-anchor="middle">2010</text>
<text class="ticklabel xtl" transform="translate(711.7,629.0)" text-anchor="middle">2015</text>
<text class="ticklabel xtl" transform="translate(814.6,629.0)" text-anchor="middle">2020</text>
<text class="ticklabel xtl" transform="translate(896.9,629.0)" text-anchor="middle">2024</text>
<text class="ticklabel ytl" transform="translate(128.8,595.3)">0</text>
<text class="ticklabel ytl" transform="translate(128.8,506.4)">0.5</text>
<text class="ticklabel ytl" transform="translate(128.8,417.5)">1.0</text>
<text class="ticklabel ytl" transform="translate(128.8,328.7)">1.5</text>
<text class="ticklabel ytl" transform="translate(128.8,239.8)">2.0</text>
<text class="ticklabel ytl" transform="translate(128.8,151.0)">2.5</text>
<text class="ticklabel ytl" transform="translate(128.8,62.1)">3.0 Mt</text>
<g stroke="#000" stroke-width="0.90" fill="#7FBF7F"  clip-path="url(#axis_clip)">
  <polygon class="pl" points="147.7,92.4 147.7,92.7 164.1,92.7 164.1,92.4 147.7,92.4"/>
  <polygon class="pl" points="188.8,135.5 188.8,135.8 205.3,135.8 205.3,135.5 188.8,135.5"/>
  <polygon class="pl" points="209.4,167.2 209.4,167.4 225.9,167.4 225.9,167.2 209.4,167.2"/>
  <polygon class="pl" points="230.0,177.8 230.0,179.7 246.5,179.7 246.5,177.8 230.0,177.8"/>
  <polygon class="pl" points="250.6,192.0 250.6,192.3 267.0,192.3 267.0,192.0 250.6,192.0"/>
  <polygon class="pl" points="271.2,196.5 271.2,196.9 287.6,196.9 287.6,196.5 271.2,196.5"/>
  <polygon class="pl" points="291.7,207.2 291.7,207.5 308.2,207.5 308.2,207.2 291.7,207.2"/>
  <polygon class="pl" points="312.3,213.4 312.3,214.0 328.8,214.0 328.8,213.4 312.3,213.4"/>
  <polygon class="pl" points="332.9,215.4 332.9,215.6 349.4,215.6 349.4,215.4 332.9,215.4"/>
  <polygon class="pl" points="353.5,231.7 353.5,231.9 370.0,231.9 370.0,231.7 353.5,231.7"/>
  <polygon class="pl" points="374.1,241.2 374.1,241.6 390.5,241.6 390.5,241.2 374.1,241.2"/>
  <polygon class="pl" points="394.7,257.0 394.7,257.3 411.1,257.3 411.1,257.0 394.7,257.0"/>
  <polygon class="pl" points="415.2,258.4 415.2,258.5 431.7,258.5 431.7,258.4 415.2,258.4"/>
  <polygon class="pl" points="435.8,262.3 435.8,262.5 452.3,262.5 452.3,262.3 435.8,262.3"/>
  <polygon class="pl" points="456.4,262.1 456.4,263.0 472.9,263.0 472.9,262.1 456.4,262.1"/>
  <polygon class="pl" points="477.0,266.8 477.0,266.9 493.5,266.9 493.5,266.8 477.0,266.8"/>
  <polygon class="pl" points="497.6,264.8 497.6,265.1 514.0,265.1 514.0,264.8 497.6,264.8"/>
  <polygon class="pl" points="518.2,264.8 518.2,265.1 534.6,265.1 534.6,264.8 518.2,264.8"/>
  <polygon class="pl" points="538.8,273.1 538.8,273.2 555.2,273.2 555.2,273.1 538.8,273.1"/>
  <polygon class="pl" points="559.3,278.9 559.3,279.0 575.8,279.0 575.8,278.9 559.3,278.9"/>
  <polygon class="pl" points="579.9,290.5 579.9,290.7 596.4,290.7 596.4,290.5 579.9,290.5"/>
  <polygon class="pl" points="600.5,295.3 600.5,295.4 617.0,295.4 617.0,295.3 600.5,295.3"/>
  <polygon class="pl" points="621.1,304.6 621.1,304.7 637.6,304.7 637.6,304.6 621.1,304.6"/>
  <polygon class="pl" points="641.7,306.5 641.7,306.8 658.1,306.8 658.1,306.5 641.7,306.5"/>
  <polygon class="pl" points="662.3,308.4 662.3,308.5 678.7,308.5 678.7,308.4 662.3,308.4"/>
  <polygon class="pl" points="682.8,310.9 682.8,311.1 699.3,311.1 699.3,310.9 682.8,310.9"/>
  <polygon class="pl" points="703.4,305.5 703.4,305.8 719.9,305.8 719.9,305.5 703.4,305.5"/>
  <polygon class="pl" points="724.0,309.3 724.0,309.4 740.5,309.4 740.5,309.3 724.0,309.3"/>
  <polygon class="pl" points="744.6,308.3 744.6,308.4 761.1,308.4 761.1,308.3 744.6,308.3"/>
  <polygon class="pl" points="765.2,304.7 765.2,304.9 781.6,304.9 781.6,304.7 765.2,304.7"/>
  <polygon class="pl" points="785.8,323.4 785.8,323.6 802.2,323.6 802.2,323.4 785.8,323.4"/>
  <polygon class="pl" points="806.3,324.7 806.3,325.1 822.8,325.1 822.8,324.7 806.3,324.7"/>
  <polygon class="pl" points="826.9,328.2 826.9,328.3 843.4,328.3 843.4,328.2 826.9,328.2"/>
  <polygon class="pl" points="847.5,338.5 847.5,338.7 864.0,338.7 864.0,338.5 847.5,338.5"/>
  <polygon class="pl" points="868.1,344.3 868.1,344.4 884.6,344.4 884.6,344.3 868.1,344.3"/>
  <polygon class="pl" points="888.7,347.6 888.7,347.7 905.1,347.7 905.1,347.6 888.7,347.6"/>
</g>
<g stroke="#000" stroke-width="0.90" fill="#DBA746"  clip-path="url(#axis_clip)">
  <polygon class="pl" points="147.7,92.7 147.7,214.9 164.1,214.9 164.1,92.7 147.7,92.7"/>
  <polygon class="pl" points="188.8,135.8 188.8,255.4 205.3,255.4 205.3,135.8 188.8,135.8"/>
  <polygon class="pl" points="209.4,167.4 209.4,284.2 225.9,284.2 225.9,167.4 209.4,167.4"/>
  <polygon class="pl" points="230.0,179.7 230.0,294.4 246.5,294.4 246.5,179.7 230.0,179.7"/>
  <polygon class="pl" points="250.6,192.3 250.6,304.0 267.0,304.0 267.0,192.3 250.6,192.3"/>
  <polygon class="pl" points="271.2,196.9 271.2,305.9 287.6,305.9 287.6,196.9 271.2,196.9"/>
  <polygon class="pl" points="291.7,207.5 291.7,313.5 308.2,313.5 308.2,207.5 291.7,207.5"/>
  <polygon class="pl" points="312.3,214.0 312.3,316.4 328.8,316.4 328.8,214.0 312.3,214.0"/>
  <polygon class="pl" points="332.9,215.6 332.9,314.9 349.4,314.9 349.4,215.6 332.9,215.6"/>
  <polygon class="pl" points="353.5,231.9 353.5,328.2 370.0,328.2 370.0,231.9 353.5,231.9"/>
  <polygon class="pl" points="374.1,241.6 374.1,334.9 390.5,334.9 390.5,241.6 374.1,241.6"/>
  <polygon class="pl" points="394.7,257.3 394.7,346.5 411.1,346.5 411.1,257.3 394.7,257.3"/>
  <polygon class="pl" points="415.2,258.5 415.2,344.0 431.7,344.0 431.7,258.5 415.2,258.5"/>
  <polygon class="pl" points="435.8,262.5 435.8,344.5 452.3,344.5 452.3,262.5 435.8,262.5"/>
  <polygon class="pl" points="456.4,263.0 456.4,340.3 472.9,340.3 472.9,263.0 456.4,263.0"/>
  <polygon class="pl" points="477.0,266.9 477.0,340.8 493.5,340.8 493.5,266.9 477.0,266.9"/>
  <polygon class="pl" points="497.6,265.1 497.6,335.3 514.0,335.3 514.0,265.1 497.6,265.1"/>
  <polygon class="pl" points="518.2,265.1 518.2,330.7 534.6,330.7 534.6,265.1 518.2,265.1"/>
  <polygon class="pl" points="538.8,273.2 538.8,334.4 555.2,334.4 555.2,273.2 538.8,273.2"/>
  <polygon class="pl" points="559.3,279.0 559.3,334.0 575.8,334.0 575.8,279.0 559.3,279.0"/>
  <polygon class="pl" points="579.9,290.7 579.9,341.3 596.4,341.3 596.4,290.7 579.9,290.7"/>
  <polygon class="pl" points="600.5,295.4 600.5,340.9 617.0,340.9 617.0,295.4 600.5,295.4"/>
  <polygon class="pl" points="621.1,304.7 621.1,344.9 637.6,344.9 637.6,304.7 621.1,304.7"/>
  <polygon class="pl" points="641.7,306.8 641.7,344.8 658.1,344.8 658.1,306.8 641.7,306.8"/>
  <polygon class="pl" points="662.3,308.5 662.3,344.1 678.7,344.1 678.7,308.5 662.3,308.5"/>
  <polygon class="pl" points="682.8,311.1 682.8,344.6 699.3,344.6 699.3,311.1 682.8,311.1"/>
  <polygon class="pl" points="703.4,305.8 703.4,336.8 719.9,336.8 719.9,305.8 703.4,305.8"/>
  <polygon class="pl" points="724.0,309.4 724.0,337.3 740.5,337.3 740.5,309.4 724.0,309.4"/>
  <polygon class="pl" points="744.6,308.4 744.6,335.6 761.1,335.6 761.1,308.4 744.6,308.4"/>
  <polygon class="pl" points="765.2,304.9 765.2,331.7 781.6,331.7 781.6,304.9 765.2,304.9"/>
  <polygon class="pl" points="785.8,323.6 785.8,348.9 802.2,348.9 802.2,323.6 785.8,323.6"/>
  <polygon class="pl" points="806.3,325.1 806.3,348.1 822.8,348.1 822.8,325.1 806.3,325.1"/>
  <polygon class="pl" points="826.9,328.3 826.9,350.1 843.4,350.1 843.4,328.3 826.9,328.3"/>
  <polygon class="pl" points="847.5,338.7 847.5,359.0 864.0,359.0 864.0,338.7 847.5,338.7"/>
  <polygon class="pl" points="868.1,344.4 868.1,364.9 884.6,364.9 884.6,344.4 868.1,344.4"/>
  <polygon class="pl" points="888.7,347.7 888.7,367.6 905.1,367.6 905.1,347.7 888.7,347.7"/>
</g>
<g stroke="#000" stroke-width="0.90" fill="#845F48"  clip-path="url(#axis_clip)">
  <polygon class="pl" points="147.7,214.9 147.7,372.9 164.1,372.9 164.1,214.9 147.7,214.9"/>
  <polygon class="pl" points="188.8,255.4 188.8,410.1 205.3,410.1 205.3,255.4 188.8,255.4"/>
  <polygon class="pl" points="209.4,284.2 209.4,425.7 225.9,425.7 225.9,284.2 209.4,284.2"/>
  <polygon class="pl" points="230.0,294.4 230.0,424.4 246.5,424.4 246.5,294.4 230.0,294.4"/>
  <polygon class="pl" points="250.6,304.0 250.6,424.1 267.0,424.1 267.0,304.0 250.6,304.0"/>
  <polygon class="pl" points="271.2,305.9 271.2,425.0 287.6,425.0 287.6,305.9 271.2,305.9"/>
  <polygon class="pl" points="291.7,313.5 291.7,426.7 308.2,426.7 308.2,313.5 291.7,313.5"/>
  <polygon class="pl" points="312.3,316.4 312.3,426.2 328.8,426.2 328.8,316.4 312.3,316.4"/>
  <polygon class="pl" points="332.9,314.9 332.9,427.7 349.4,427.7 349.4,314.9 332.9,314.9"/>
  <polygon class="pl" points="353.5,328.2 353.5,439.3 370.0,439.3 370.0,328.2 353.5,328.2"/>
  <polygon class="pl" points="374.1,334.9 374.1,441.5 390.5,441.5 390.5,334.9 374.1,334.9"/>
  <polygon class="pl" points="394.7,346.5 394.7,445.7 411.1,445.7 411.1,346.5 394.7,346.5"/>
  <polygon class="pl" points="415.2,344.0 415.2,440.1 431.7,440.1 431.7,344.0 415.2,344.0"/>
  <polygon class="pl" points="435.8,344.5 435.8,438.9 452.3,438.9 452.3,344.5 435.8,344.5"/>
  <polygon class="pl" points="456.4,340.3 456.4,435.0 472.9,435.0 472.9,340.3 456.4,340.3"/>
  <polygon class="pl" points="477.0,340.8 477.0,433.2 493.5,433.2 493.5,340.8 477.0,340.8"/>
  <polygon class="pl" points="497.6,335.3 497.6,430.2 514.0,430.2 514.0,335.3 497.6,335.3"/>
  <polygon class="pl" points="518.2,330.7 518.2,427.9 534.6,427.9 534.6,330.7 518.2,330.7"/>
  <polygon class="pl" points="538.8,334.4 538.8,432.4 555.2,432.4 555.2,334.4 538.8,334.4"/>
  <polygon class="pl" points="559.3,334.0 559.3,431.0 575.8,431.0 575.8,334.0 559.3,334.0"/>
  <polygon class="pl" points="579.9,341.3 579.9,436.3 596.4,436.3 596.4,341.3 579.9,341.3"/>
  <polygon class="pl" points="600.5,340.9 600.5,435.6 617.0,435.6 617.0,340.9 600.5,340.9"/>
  <polygon class="pl" points="621.1,344.9 621.1,438.9 637.6,438.9 637.6,344.9 621.1,344.9"/>
  <polygon class="pl" points="641.7,344.8 641.7,438.5 658.1,438.5 658.1,344.8 641.7,344.8"/>
  <polygon class="pl" points="662.3,344.1 662.3,438.4 678.7,438.4 678.7,344.1 662.3,344.1"/>
  <polygon class="pl" points="682.8,344.6 682.8,440.0 699.3,440.0 699.3,344.6 682.8,344.6"/>
  <polygon class="pl" points="703.4,336.8 703.4,433.3 719.9,433.3 719.9,336.8 703.4,336.8"/>
  <polygon class="pl" points="724.0,337.3 724.0,432.4 740.5,432.4 740.5,337.3 724.0,337.3"/>
  <polygon class="pl" points="744.6,335.6 744.6,434.0 761.1,434.0 761.1,335.6 744.6,335.6"/>
  <polygon class="pl" points="765.2,331.7 765.2,431.8 781.6,431.8 781.6,331.7 765.2,331.7"/>
  <polygon class="pl" points="785.8,348.9 785.8,449.5 802.2,449.5 802.2,348.9 785.8,348.9"/>
  <polygon class="pl" points="806.3,348.1 806.3,450.9 822.8,450.9 822.8,348.1 806.3,348.1"/>
  <polygon class="pl" points="826.9,350.1 826.9,453.5 843.4,453.5 843.4,350.1 826.9,350.1"/>
  <polygon class="pl" points="847.5,359.0 847.5,460.5 864.0,460.5 864.0,359.0 847.5,359.0"/>
  <polygon class="pl" points="868.1,364.9 868.1,467.9 884.6,467.9 884.6,364.9 868.1,364.9"/>
  <polygon class="pl" points="888.7,367.6 888.7,472.9 905.1,472.9 905.1,367.6 888.7,367.6"/>
</g>
<g stroke="#000" stroke-width="0.90" fill="#4A89E8"  clip-path="url(#axis_clip)">
  <polygon class="pl" points="147.7,372.9 147.7,373.4 164.1,373.4 164.1,372.9 147.7,372.9"/>
  <polygon class="pl" points="188.8,410.1 188.8,410.6 205.3,410.6 205.3,410.1 188.8,410.1"/>
  <polygon class="pl" points="209.4,425.7 209.4,426.0 225.9,426.0 225.9,425.7 209.4,425.7"/>
  <polygon class="pl" points="230.0,424.4 230.0,424.7 246.5,424.7 246.5,424.4 230.0,424.4"/>
  <polygon class="pl" points="250.6,424.1 250.6,424.4 267.0,424.4 267.0,424.1 250.6,424.1"/>
  <polygon class="pl" points="271.2,425.0 271.2,425.3 287.6,425.3 287.6,425.0 271.2,425.0"/>
  <polygon class="pl" points="291.7,426.7 291.7,427.1 308.2,427.1 308.2,426.7 291.7,426.7"/>
  <polygon class="pl" points="312.3,426.2 312.3,426.6 328.8,426.6 328.8,426.2 312.3,426.2"/>
  <polygon class="pl" points="332.9,427.7 332.9,428.1 349.4,428.1 349.4,427.7 332.9,427.7"/>
  <polygon class="pl" points="353.5,439.3 353.5,439.6 370.0,439.6 370.0,439.3 353.5,439.3"/>
  <polygon class="pl" points="374.1,441.5 374.1,441.8 390.5,441.8 390.5,441.5 374.1,441.5"/>
  <polygon class="pl" points="394.7,445.7 394.7,446.1 411.1,446.1 411.1,445.7 394.7,445.7"/>
  <polygon class="pl" points="415.2,440.1 415.2,440.5 431.7,440.5 431.7,440.1 415.2,440.1"/>
  <polygon class="pl" points="435.8,438.9 435.8,439.2 452.3,439.2 452.3,438.9 435.8,438.9"/>
  <polygon class="pl" points="456.4,435.0 456.4,435.4 472.9,435.4 472.9,435.0 456.4,435.0"/>
  <polygon class="pl" points="477.0,433.2 477.0,433.6 493.5,433.6 493.5,433.2 477.0,433.2"/>
  <polygon class="pl" points="497.6,430.2 497.6,430.6 514.0,430.6 514.0,430.2 497.6,430.2"/>
  <polygon class="pl" points="518.2,427.9 518.2,428.4 534.6,428.4 534.6,427.9 518.2,427.9"/>
  <polygon class="pl" points="538.8,432.4 538.8,432.9 555.2,432.9 555.2,432.4 538.8,432.4"/>
  <polygon class="pl" points="559.3,431.0 559.3,431.4 575.8,431.4 575.8,431.0 559.3,431.0"/>
  <polygon class="pl" points="579.9,436.3 579.9,436.8 596.4,436.8 596.4,436.3 579.9,436.3"/>
  <polygon class="pl" points="600.5,435.6 600.5,436.1 617.0,436.1 617.0,435.6 600.5,435.6"/>
  <polygon class="pl" points="621.1,438.9 621.1,439.4 637.6,439.4 637.6,438.9 621.1,438.9"/>
  <polygon class="pl" points="641.7,438.5 641.7,438.9 658.1,438.9 658.1,438.5 641.7,438.5"/>
  <polygon class="pl" points="662.3,438.4 662.3,438.9 678.7,438.9 678.7,438.4 662.3,438.4"/>
  <polygon class="pl" points="682.8,440.0 682.8,440.4 699.3,440.4 699.3,440.0 682.8,440.0"/>
  <polygon class="pl" points="703.4,433.3 703.4,433.8 719.9,433.8 719.9,433.3 703.4,433.3"/>
  <polygon class="pl" points="724.0,432.4 724.0,432.7 740.5,432.7 740.5,432.4 724.0,432.4"/>
  <polygon class="pl" points="744.6,434.0 744.6,434.4 761.1,434.4 761.1,434.0 744.6,434.0"/>
  <polygon class="pl" points="765.2,431.8 765.2,432.2 781.6,432.2 781.6,431.8 765.2,431.8"/>
  <polygon class="pl" points="785.8,449.5 785.8,449.9 802.2,449.9 802.2,449.5 785.8,449.5"/>
  <polygon class="pl" points="806.3,450.9 806.3,451.3 822.8,451.3 822.8,450.9 806.3,450.9"/>
  <polygon class="pl" points="826.9,453.5 826.9,453.9 843.4,453.9 843.4,453.5 826.9,453.5"/>
  <polygon class="pl" points="847.5,460.5 847.5,460.9 864.0,460.9 864.0,460.5 847.5,460.5"/>
  <polygon class="pl" points="868.1,467.9 868.1,468.2 884.6,468.2 884.6,467.9 868.1,467.9"/>
  <polygon class="pl" points="888.7,472.9 888.7,473.2 905.1,473.2 905.1,472.9 888.7,472.9"/>
</g>
<g stroke="#000" stroke-width="0.90" fill="#FF7F61"  clip-path="url(#axis_clip)">
  <polygon class="pl" points="147.7,373.4 147.7,587.2 164.1,587.2 164.1,373.4 147.7,373.4"/>
  <polygon class="pl" points="188.8,410.6 188.8,587.2 205.3,587.2 205.3,410.6 188.8,410.6"/>
  <polygon class="pl" points="209.4,426.0 209.4,587.2 225.9,587.2 225.9,426.0 209.4,426.0"/>
  <polygon class="pl" points="230.0,424.7 230.0,587.2 246.5,587.2 246.5,424.7 230.0,424.7"/>
  <polygon class="pl" points="250.6,424.4 250.6,587.2 267.0,587.2 267.0,424.4 250.6,424.4"/>
  <polygon class="pl" points="271.2,425.3 271.2,587.2 287.6,587.2 287.6,425.3 271.2,425.3"/>
  <polygon class="pl" points="291.7,427.1 291.7,587.2 308.2,587.2 308.2,427.1 291.7,427.1"/>
  <polygon class="pl" points="312.3,426.6 312.3,587.2 328.8,587.2 328.8,426.6 312.3,426.6"/>
  <polygon class="pl" points="332.9,428.1 332.9,587.2 349.4,587.2 349.4,428.1 332.9,428.1"/>
  <polygon class="pl" points="353.5,439.6 353.5,587.2 370.0,587.2 370.0,439.6 353.5,439.6"/>
  <polygon class="pl" points="374.1,441.8 374.1,587.2 390.5,587.2 390.5,441.8 374.1,441.8"/>
  <polygon class="pl" points="394.7,446.1 394.7,587.2 411.1,587.2 411.1,446.1 394.7,446.1"/>
  <polygon class="pl" points="415.2,440.5 415.2,587.2 431.7,587.2 431.7,440.5 415.2,440.5"/>
  <polygon class="pl" points="435.8,439.2 435.8,587.2 452.3,587.2 452.3,439.2 435.8,439.2"/>
  <polygon class="pl" points="456.4,435.4 456.4,587.2 472.9,587.2 472.9,435.4 456.4,435.4"/>
  <polygon class="pl" points="477.0,433.6 477.0,587.2 493.5,587.2 493.5,433.6 477.0,433.6"/>
  <polygon class="pl" points="497.6,430.6 497.6,587.2 514.0,587.2 514.0,430.6 497.6,430.6"/>
  <polygon class="pl" points="518.2,428.4 518.2,587.2 534.6,587.2 534.6,428.4 518.2,428.4"/>
  <polygon class="pl" points="538.8,432.9 538.8,587.2 555.2,587.2 555.2,432.9 538.8,432.9"/>
  <polygon class="pl" points="559.3,431.4 559.3,587.2 575.8,587.2 575.8,431.4 559.3,431.4"/>
  <polygon class="pl" points="579.9,436.8 579.9,587.2 596.4,587.2 596.4,436.8 579.9,436.8"/>
  <polygon class="pl" points="600.5,436.1 600.5,587.2 617.0,587.2 617.0,436.1 600.5,436.1"/>
  <polygon class="pl" points="621.1,439.4 621.1,587.2 637.6,587.2 637.6,439.4 621.1,439.4"/>
  <polygon class="pl" points="641.7,438.9 641.7,587.2 658.1,587.2 658.1,438.9 641.7,438.9"/>
  <polygon class="pl" points="662.3,438.9 662.3,587.2 678.7,587.2 678.7,438.9 662.3,438.9"/>
  <polygon class="pl" points="682.8,440.4 682.8,587.2 699.3,587.2 699.3,440.4 682.8,440.4"/>
  <polygon class="pl" points="703.4,433.8 703.4,587.2 719.9,587.2 719.9,433.8 703.4,433.8"/>
  <polygon class="pl" points="724.0,432.7 724.0,587.2 740.5,587.2 740.5,432.7 724.0,432.7"/>
  <polygon class="pl" points="744.6,434.4 744.6,587.2 761.1,587.2 761.1,434.4 744.6,434.4"/>
  <polygon class="pl" points="765.2,432.2 765.2,587.2 781.6,587.2 781.6,432.2 765.2,432.2"/>
  <polygon class="pl" points="785.8,449.9 785.8,587.2 802.2,587.2 802.2,449.9 785.8,449.9"/>
  <polygon class="pl" points="806.3,451.3 806.3,587.2 822.8,587.2 822.8,451.3 806.3,451.3"/>
  <polygon class="pl" points="826.9,453.9 826.9,587.2 843.4,587.2 843.4,453.9 826.9,453.9"/>
  <polygon class="pl" points="847.5,460.9 847.5,587.2 864.0,587.2 864.0,460.9 847.5,460.9"/>
  <polygon class="pl" points="868.1,468.2 868.1,587.2 884.6,587.2 884.6,468.2 868.1,468.2"/>
  <polygon class="pl" points="888.7,473.2 888.7,587.2 905.1,587.2 905.1,473.2 888.7,473.2"/>
</g>
<polyline class="pl" points="155.9,92.4 197.1,135.5 217.6,167.2 238.2,177.8 258.8,192.0 279.4,196.5 300.0,207.2 320.6,213.4 341.1,215.4 361.7,231.7 382.3,241.2 402.9,257.0 423.5,258.4 444.1,262.3 464.6,262.1 485.2,266.8 505.8,264.8 526.4,264.8 547.0,273.1 567.6,278.9 588.2,290.5 608.7,295.3 629.3,304.6 649.9,306.5 670.5,308.4 691.1,310.9 711.7,305.5 732.2,309.3 752.8,308.3 773.4,304.7 794.0,323.4 814.6,324.7 835.2,328.2 855.7,338.5 876.3,344.3 896.9,347.6" stroke="#000" stroke-width="5.40" stroke-opacity="1.00" fill="none" clip-path="url(#axis_clip)"/>
<g class="pl" fill="#FFF" stroke="#000" stroke-width="0.900">
  <circle cx="155.9" cy="92.4" r="2.2" />
  <circle cx="217.6" cy="167.2" r="2.2" />
  <circle cx="238.2" cy="177.8" r="2.2" />
  <circle cx="258.8" cy="192.0" r="2.2" />
  <circle cx="279.4" cy="196.5" r="2.2" />
  <circle cx="300.0" cy="207.2" r="2.2" />
  <circle cx="320.6" cy="213.4" r="2.2" />
  <circle cx="341.1" cy="215.4" r="2.2" />
  <circle cx="361.7" cy="231.7" r="2.2" />
  <circle cx="382.3" cy="241.2" r="2.2" />
  <circle cx="423.5" cy="258.4" r="2.2" />
  <circle cx="444.1" cy="262.3" r="2.2" />
  <circle cx="464.6" cy="262.1" r="2.2" />
  <circle cx="485.2" cy="266.8" r="2.2" />
  <circle cx="505.8" cy="264.8" r="2.2" />
  <circle cx="526.4" cy="264.8" r="2.2" />
  <circle cx="547.0" cy="273.1" r="2.2" />
  <circle cx="567.6" cy="278.9" r="2.2" />
  <circle cx="588.2" cy="290.5" r="2.2" />
  <circle cx="629.3" cy="304.6" r="2.2" />
  <circle cx="649.9" cy="306.5" r="2.2" />
  <circle cx="670.5" cy="308.4" r="2.2" />
  <circle cx="691.1" cy="310.9" r="2.2" />
  <circle cx="711.7" cy="305.5" r="2.2" />
  <circle cx="732.2" cy="309.3" r="2.2" />
  <circle cx="752.8" cy="308.3" r="2.2" />
  <circle cx="773.4" cy="304.7" r="2.2" />
  <circle cx="794.0" cy="323.4" r="2.2" />
  <circle cx="835.2" cy="328.2" r="2.2" />
  <circle cx="855.7" cy="338.5" r="2.2" />
  <circle cx="876.3" cy="344.3" r="2.2" />
  <circle cx="896.9" cy="347.6" r="2.2" />
</g>
<g class="pl" fill="#FFF" stroke="#000" stroke-width="0.900">
  <circle cx="197.1" cy="135.5" r="5.4" />
  <circle cx="402.9" cy="257.0" r="5.4" />
  <circle cx="608.7" cy="295.3" r="5.4" />
  <circle cx="814.6" cy="324.7" r="5.4" />
</g>
<text transform="translate(145.6,47.2)" dy="0.0" font-size="27.00" fill="#808080" stroke="none">Annual CH<tspan dy="0.2em"><tspan style="font-size:70%">4</tspan></tspan><tspan dy="-0.2em"> </tspan>Emissions: Poland</text>
<text transform="translate(130.0,81.6)" dy="8.1" font-size="27.00" fill="#808080" stroke="none" text-anchor="end">CH<tspan dy="0.2em"><tspan style="font-size:70%">4</tspan></tspan><tspan dy="-0.2em"></tspan></text>
<text transform="translate(945.6,325.9)" dy="7.6" font-size="25.20" fill="#000" stroke="none">-51.6% since 1988</text>
<text transform="translate(945.6,530.2)" dy="7.6" font-size="25.20" fill="#FF7F61" stroke="none">Energy</text>
<text transform="translate(945.6,473.1)" dy="7.6" font-size="25.20" fill="#4A89E8" stroke="none">Industrial Processes</text>
<text transform="translate(945.6,420.3)" dy="7.6" font-size="25.20" fill="#845F48" stroke="none">Agriculture</text>
<text transform="translate(945.6,376.0)" dy="7.6" font-size="25.20" fill="#DBA746" stroke="none">Waste</text>
<text transform="translate(945.6,351.0)" dy="7.6" font-size="25.20" fill="#7FBF7F" stroke="none">LULUCF</text>
<polyline class="pl" points="910.8,347.6 912.4,347.5 913.8,347.3 915.2,346.9 916.4,346.5 917.6,345.9 918.8,345.2 919.8,344.4 920.8,343.5 921.7,342.6 922.7,341.6 923.5,340.6 924.4,339.5 925.2,338.4 926.0,337.3 926.8,336.2 927.6,335.1 928.4,334.0 929.3,332.9 930.1,331.9 931.1,330.9 932.0,330.0 933.0,329.1 934.0,328.3 935.2,327.6 936.4,327.0 937.6,326.6 939.0,326.2 940.4,326.0 942.0,325.9" stroke="#000" stroke-width="0.90" stroke-opacity="1.00" fill="none" />
<polyline class="pl" points="910.8,357.6 912.4,357.7 913.8,357.9 915.2,358.2 916.4,358.6 917.6,359.1 918.8,359.7 919.8,360.3 920.8,361.1 921.7,361.9 922.7,362.7 923.5,363.6 924.4,364.5 925.2,365.4 926.0,366.3 926.8,367.3 927.6,368.2 928.4,369.2 929.3,370.1 930.1,371.0 931.1,371.8 932.0,372.6 933.0,373.3 934.0,374.0 935.2,374.6 936.4,375.0 937.6,375.5 939.0,375.7 940.4,375.9 942.0,376.0" stroke="#DBA746" stroke-width="0.90" stroke-opacity="1.00" fill="none" />
<polyline class="pl" points="910.8,347.7 912.4,347.7 913.8,347.7 915.2,347.7 916.4,347.8 917.6,347.9 918.8,348.0 919.8,348.1 920.8,348.3 921.7,348.4 922.7,348.6 923.5,348.7 924.4,348.9 925.2,349.0 926.0,349.2 926.8,349.4 927.6,349.6 928.4,349.7 929.3,349.9 930.1,350.0 931.1,350.2 932.0,350.3 933.0,350.5 934.0,350.6 935.2,350.7 936.4,350.8 937.6,350.9 939.0,350.9 940.4,350.9 942.0,351.0" stroke="#7FBF7F" stroke-width="0.90" stroke-opacity="1.00" fill="none" />
<text transform="translate(160.0,666.1)" font-size="19.80" font-family="Helvetica" fill="#BFBFBF" stroke="none" xml:space="preserve">CICERO   &#9679;   Data: EIONET (2026)</text>
<g>
  <rect x="123.0" y="651.4" width="34" height="17" fill="#FFF" stroke="none" opacity="0.01"/>
  <g transform="translate(124.0,652.4) scale(0.24)">
  <g><circle fill="#FFF" cx="37.79" cy="28.5" r="28.84"/>
     <circle fill="none" cx="37.79" cy="28.5" r="28.84" stroke="#BFBFBF" stroke-width="5.5"/>
     <path fill="#BFBFBF" d="M37.16,23.19 l-4.29,2.23c-0.458-0.951-1.02-1.62-1.69-2c-0.667-0.38-1.29-0.571-1.86-0.571c-2.86,0-4.29,1.89-4.29,5.66 c0,1.71,0.36,3.08,1.09,4.11c0.724,1.03,1.79,1.54,3.2,1.54c1.87,0,3.18-0.915,3.94-2.74l3.94,2 c-0.838,1.56-2,2.79-3.49,3.69c-1.48,0.896-3.12,1.34-4.91,1.34c-2.86,0-5.16-0.875-6.92-2.63 c-1.75-1.75-2.63-4.19-2.63-7.31c0-3.05,0.886-5.47,2.66-7.26c1.77-1.79,4.01-2.69,6.72-2.69 C32.6,18.56,35.44,20.1,37.16,23.19z
              M55.61,23.19l-4.23,2.23c-0.457-0.951-1.02-1.62-1.69-2 c-0.668-0.38-1.31-0.571-1.91-0.571c-2.86,0-4.29,1.89-4.29,5.66c0,1.71,0.363,3.08,1.09,4.11 c0.723,1.03,1.79,1.54,3.2,1.54c1.87,0,3.18-0.915,3.94-2.74l4,2c-0.875,1.56-2.06,2.79-3.54,3.69 c-1.49,0.9-3.11,1.34-4.86,1.34c-2.9,0-5.21-0.875-6.94-2.63c-1.74-1.75-2.6-4.19-2.6-7.31 c0-3.05,0.885-5.47,2.66-7.26c1.77-1.79,4.01-2.69,6.71-2.69C51.12,18.56,53.944,20.1,55.61,23.19z"/>
  </g></g>
  <g transform="translate(140.2,652.4) scale(0.24)">
  <g><circle fill="#FFF" cx="37.79" cy="28.5" r="28.84"/>
     <circle fill="none" cx="37.79" cy="28.5" r="28.84" stroke="#BFBFBF" stroke-width="5.5"/>
     <path fill="#BFBFBF" d="M46.129,20.557v13.085h-3.656v15.542h-9.944V33.643h-3.656V20.557 c0-0.572,0.2-1.057,0.599-1.457c0.401-0.399,0.887-0.6,1.457-0.6h13.144c0.533,0,1.01,0.2,1.428,0.6 C45.918,19.5,46.129,19.986,46.129,20.557z
              M33.042,12.329c0-3.008,1.485-4.514,4.458-4.514s4.457,1.504,4.457,4.514 c0,2.971-1.486,4.457-4.457,4.457S33.042,15.3,33.042,12.329z"/>
  </g></g>
</g>
</g>
</svg>
