<svg version="1.1" xmlns="http://www.w3.org/2000/svg" xmlns:xlink="http://www.w3.org/1999/xlink" width="100%" height="100%" viewBox="0 0 1200.000 674.916">
<title>Kaya decomposition of emissions growth: Poland</title>
<style type="text/css">
  #main {font-family:Helvetica,Arial,sans-serif; font-size:27.00px;
         fill-opacity:1; fill:#000000; stroke:none; stroke-linejoin:round; stroke-linecap:round; stroke-width:1.00;}
  .marker {stroke-opacity:0;fill-opacity:0;}
  .marker:hover {stroke-opacity:0.5; fill-opacity:1;}
  .ticklabel {font-size:27.00px;fill:#808080;stroke:none;font-family:Helvetica}
  .ytl {text-anchor:end;}
  .dp1 {pointer-events:none;font-size:70%;text-anchor:middle;fill:#000000;}
  .dp2 {pointer-events:none;font-size:70%;text-anchor:middle;fill:#FFFFFF;}
  .numtip {pointer-events:none;}
  .cc {opacity:0.25;}
.dl_fe {background-color:#FDFFDF;display:flex;margin:auto;align-items:center}
.dl_fe_p {font-size:20px;text-align:center;margin:3px}
.dl_el {display:none;pointer-events:none;}
.cc:hover + .dl_el {display:block;}
text:hover + .dl_el {display:block;}
</style>
<defs>
  <clipPath id="axis_clip"><rect x="145.8" y="54.2" width="761.2" height="532.8" /></clipPath>
  <path id="line_x" d="M 145.600,0 h 761.600" stroke="#262626" stroke-opacity="0.15" stroke-width="1.00"/>
  <path id="tick_y" d="M 145.600,0 h -6.000" stroke="#808080" stroke-width="0.90"/>
  <path id="tick_x" d="M 0,587.177 v 6.000" stroke="#808080" stroke-width="0.90"/>
</defs>
<g id="main">
<use xlink:href="#line_x" transform="translate(0,587.2)"/>
<use xlink:href="#line_x" transform="translate(0,511.0)"/>
<use xlink:href="#line_x" transform="translate(0,434.8)"/>
<use xlink:href="#line_x" transform="translate(0,358.7)"/>
<use xlink:href="#line_x" transform="translate(0,282.5)"/>
<use xlink:href="#line_x" transform="translate(0,206.3)"/>
<use xlink:href="#line_x" transform="translate(0,130.2)"/>
<use xlink:href="#line_x" transform="translate(0,54.0)"/>
<use xlink:href="#tick_y" transform="translate(0,587.2)"/>
<use xlink:href="#tick_y" transform="translate(0,511.0)"/>
<use xlink:href="#tick_y" transform="translate(0,434.8)"/>
<use xlink:href="#tick_y" transform="translate(0,358.7)"/>
<use xlink:href="#tick_y" transform="translate(0,282.5)"/>
<use xlink:href="#tick_y" transform="translate(0,206.3)"/>
<use xlink:href="#tick_y" transform="translate(0,130.2)"/>
<use xlink:href="#tick_y" transform="translate(0,54.0)"/>
<use xlink:href="#tick_x" transform="translate(156.8,0)"/>
<use xlink:href="#tick_x" transform="translate(268.8,0)"/>
<use xlink:href="#tick_x" transform="translate(380.8,0)"/>
<use xlink:href="#tick_x" transform="translate(492.8,0)"/>
<use xlink:href="#tick_x" transform="translate(604.8,0)"/>
<use xlink:href="#tick_x" transform="translate(716.8,0)"/>
<use xlink:href="#tick_x" transform="translate(828.8,0)"/>
<polyline points="145.6,53.993 145.6,587.177 907.2,587.177" stroke="#808080" stroke-width="0.90" fill="none"/>
<text class="ticklabel xtl" transform="translate(156.8,629.0)" text-anchor="middle">1990</text>
<text class="ticklabel xtl" transform="translate(268.8,629.0)" text-anchor="middle">1995</text>
<text class="ticklabel xtl" transform="translate(380.8,629.0)" text-anchor="middle">2000</text>
<text class="ticklabel xtl" transform="translate(492.8,629.0)" text-anchor="middle">2005</text>
<text class="ticklabel xtl" transform="translate(604.8,629.0)" text-anchor="middle">2010</text>
<text class="ticklabel xtl" transform="translate(716.8,629.0)" text-anchor="middle">2015</text>
<text class="ticklabel xtl" transform="translate(828.8,629.0)" text-anchor="middle">2020</text>
<text class="ticklabel ytl" transform="translate(128.8,595.3)">-20</text>
<text class="ticklabel ytl" transform="translate(128.8,519.1)">-15</text>
<text class="ticklabel ytl" transform="translate(128.8,442.9)">-10</text>
<text class="ticklabel ytl" transform="translate(128.8,366.8)">-5</text>
<text class="ticklabel ytl" transform="translate(128.8,290.6)">0</text>
<text class="ticklabel ytl" transform="translate(128.8,214.4)">5</text>
<text class="ticklabel ytl" transform="translate(128.8,138.3)">10</text>
<text class="ticklabel ytl" transform="translate(128.8,62.1)">15 %/yr</text>
<g stroke="#000" stroke-width="0.90" fill="#808080"  clip-path="url(#axis_clip)">
  <polygon class="pl" points="439.0,217.1 439.0,217.5 457.0,217.5 457.0,217.1 439.0,217.1"/>
  <polygon class="pl" points="595.8,182.2 595.8,183.0 613.8,183.0 613.8,182.2 595.8,182.2"/>
  <polygon class="pl" points="819.8,281.2 819.8,282.5 837.8,282.5 837.8,281.2 819.8,281.2"/>
  <polygon class="pl" points="842.2,129.4 842.2,132.6 860.2,132.6 860.2,129.4 842.2,129.4"/>
</g>
<g stroke="#000" stroke-width="0.90" fill="#8DA0CB"  clip-path="url(#axis_clip)">
  <polygon class="pl" points="147.8,150.7 147.8,277.5 165.8,277.5 165.8,150.7 147.8,150.7"/>
  <polygon class="pl" points="170.2,177.7 170.2,198.9 188.2,198.9 188.2,177.7 170.2,177.7"/>
  <polygon class="pl" points="192.6,217.7 192.6,248.5 210.6,248.5 210.6,217.7 192.6,217.7"/>
  <polygon class="pl" points="215.0,217.8 215.0,221.3 233.0,221.3 233.0,217.8 215.0,217.8"/>
  <polygon class="pl" points="237.4,155.1 237.4,202.0 255.4,202.0 255.4,155.1 237.4,155.1"/>
  <polygon class="pl" points="371.8,178.2 371.8,217.6 389.8,217.6 389.8,178.2 371.8,178.2"/>
  <polygon class="pl" points="439.0,217.5 439.0,228.1 457.0,228.1 457.0,217.5 439.0,217.5"/>
  <polygon class="pl" points="461.4,197.2 461.4,209.9 479.4,209.9 479.4,197.2 461.4,197.2"/>
  <polygon class="pl" points="528.6,168.9 528.6,173.9 546.6,173.9 546.6,168.9 528.6,168.9"/>
  <polygon class="pl" points="640.6,255.6 640.6,266.5 658.6,266.5 658.6,255.6 640.6,255.6"/>
  <polygon class="pl" points="842.2,132.6 842.2,160.0 860.2,160.0 860.2,132.6 842.2,132.6"/>
</g>
<g stroke="#000" stroke-width="0.90" fill="#66C2A5"  clip-path="url(#axis_clip)">
  <polygon class="pl" points="170.2,198.9 170.2,278.4 188.2,278.4 188.2,198.9 170.2,198.9"/>
  <polygon class="pl" points="595.8,183.0 595.8,225.6 613.8,225.6 613.8,183.0 595.8,183.0"/>
  <polygon class="pl" points="730.2,221.2 730.2,238.1 748.2,238.1 748.2,221.2 730.2,221.2"/>
  <polygon class="pl" points="752.6,201.4 752.6,204.5 770.6,204.5 770.6,201.4 752.6,201.4"/>
  <polygon class="pl" points="842.2,160.0 842.2,182.5 860.2,182.5 860.2,160.0 842.2,160.0"/>
</g>
<g stroke="#000" stroke-width="0.90" fill="#E78AC3"  clip-path="url(#axis_clip)">
  <polygon class="pl" points="192.6,248.5 192.6,279.1 210.6,279.1 210.6,248.5 192.6,248.5"/>
  <polygon class="pl" points="215.0,221.3 215.0,279.8 233.0,279.8 233.0,221.3 215.0,221.3"/>
  <polygon class="pl" points="237.4,202.0 237.4,280.3 255.4,280.3 255.4,202.0 237.4,202.0"/>
  <polygon class="pl" points="259.8,176.7 259.8,281.4 277.8,281.4 277.8,176.7 259.8,176.7"/>
  <polygon class="pl" points="282.2,193.7 282.2,282.5 300.2,282.5 300.2,193.7 282.2,193.7"/>
  <polygon class="pl" points="304.6,179.6 304.6,282.5 322.6,282.5 322.6,179.6 304.6,179.6"/>
  <polygon class="pl" points="327.0,211.1 327.0,282.5 345.0,282.5 345.0,211.1 327.0,211.1"/>
  <polygon class="pl" points="349.4,210.5 349.4,282.5 367.4,282.5 367.4,210.5 349.4,210.5"/>
  <polygon class="pl" points="371.8,217.6 371.8,276.6 389.8,276.6 389.8,217.6 371.8,217.6"/>
  <polygon class="pl" points="394.2,259.2 394.2,276.2 412.2,276.2 412.2,259.2 394.2,259.2"/>
  <polygon class="pl" points="416.6,250.9 416.6,282.5 434.6,282.5 434.6,250.9 416.6,250.9"/>
  <polygon class="pl" points="439.0,228.1 439.0,282.5 457.0,282.5 457.0,228.1 439.0,228.1"/>
  <polygon class="pl" points="461.4,209.9 461.4,282.5 479.4,282.5 479.4,209.9 461.4,209.9"/>
  <polygon class="pl" points="483.8,223.9 483.8,282.5 501.8,282.5 501.8,223.9 483.8,223.9"/>
  <polygon class="pl" points="506.2,187.9 506.2,282.5 524.2,282.5 524.2,187.9 506.2,187.9"/>
  <polygon class="pl" points="528.6,173.9 528.6,282.5 546.6,282.5 546.6,173.9 528.6,173.9"/>
  <polygon class="pl" points="551.0,222.9 551.0,282.5 569.0,282.5 569.0,222.9 551.0,222.9"/>
  <polygon class="pl" points="573.4,235.1 573.4,281.2 591.4,281.2 591.4,235.1 573.4,235.1"/>
  <polygon class="pl" points="595.8,225.6 595.8,280.8 613.8,280.8 613.8,225.6 595.8,225.6"/>
  <polygon class="pl" points="618.2,210.1 618.2,281.6 636.2,281.6 636.2,210.1 618.2,210.1"/>
  <polygon class="pl" points="640.6,266.5 640.6,282.3 658.6,282.3 658.6,266.5 640.6,266.5"/>
  <polygon class="pl" points="663.0,260.4 663.0,282.5 681.0,282.5 681.0,260.4 663.0,260.4"/>
  <polygon class="pl" points="685.4,230.0 685.4,282.5 703.4,282.5 703.4,230.0 685.4,230.0"/>
  <polygon class="pl" points="707.8,216.8 707.8,282.5 725.8,282.5 725.8,216.8 707.8,216.8"/>
  <polygon class="pl" points="730.2,238.1 730.2,282.5 748.2,282.5 748.2,238.1 730.2,238.1"/>
  <polygon class="pl" points="752.6,204.5 752.6,282.5 770.6,282.5 770.6,204.5 752.6,204.5"/>
  <polygon class="pl" points="775.0,200.5 775.0,282.5 793.0,282.5 793.0,200.5 775.0,200.5"/>
  <polygon class="pl" points="797.4,209.1 797.4,282.5 815.4,282.5 815.4,209.1 797.4,209.1"/>
  <polygon class="pl" points="842.2,182.5 842.2,282.5 860.2,282.5 860.2,182.5 842.2,182.5"/>
</g>
<g stroke="#000" stroke-width="0.90" fill="#A6D854"  clip-path="url(#axis_clip)">
  <polygon class="pl" points="147.8,277.5 147.8,282.5 165.8,282.5 165.8,277.5 147.8,277.5"/>
  <polygon class="pl" points="170.2,278.4 170.2,282.5 188.2,282.5 188.2,278.4 170.2,278.4"/>
  <polygon class="pl" points="192.6,279.1 192.6,282.5 210.6,282.5 210.6,279.1 192.6,279.1"/>
  <polygon class="pl" points="215.0,279.8 215.0,282.5 233.0,282.5 233.0,279.8 215.0,279.8"/>
  <polygon class="pl" points="237.4,280.3 237.4,282.5 255.4,282.5 255.4,280.3 237.4,280.3"/>
  <polygon class="pl" points="259.8,281.4 259.8,282.5 277.8,282.5 277.8,281.4 259.8,281.4"/>
  <polygon class="pl" points="371.8,276.6 371.8,282.5 389.8,282.5 389.8,276.6 371.8,276.6"/>
  <polygon class="pl" points="394.2,276.2 394.2,282.5 412.2,282.5 412.2,276.2 394.2,276.2"/>
  <polygon class="pl" points="551.0,282.5 551.0,282.5 569.0,282.5 569.0,282.5 551.0,282.5"/>
  <polygon class="pl" points="573.4,281.2 573.4,282.5 591.4,282.5 591.4,281.2 573.4,281.2"/>
  <polygon class="pl" points="595.8,280.8 595.8,282.5 613.8,282.5 613.8,280.8 595.8,280.8"/>
  <polygon class="pl" points="618.2,281.6 618.2,282.5 636.2,282.5 636.2,281.6 618.2,281.6"/>
  <polygon class="pl" points="640.6,282.3 640.6,282.5 658.6,282.5 658.6,282.3 640.6,282.3"/>
  <polygon class="pl" points="752.6,282.5 752.6,282.5 770.6,282.5 770.6,282.5 752.6,282.5"/>
  <polygon class="pl" points="864.6,220.9 864.6,282.5 882.6,282.5 882.6,220.9 864.6,220.9"/>
  <polygon class="pl" points="887.0,237.8 887.0,282.5 905.0,282.5 905.0,237.8 887.0,237.8"/>
</g>
<g stroke="#000" stroke-width="0.90" fill="#808080"  clip-path="url(#axis_clip)">
  <polygon class="pl" points="147.8,578.6 147.8,568.2 165.8,568.2 165.8,578.6 147.8,578.6"/>
  <polygon class="pl" points="170.2,399.5 170.2,393.2 188.2,393.2 188.2,399.5 170.2,399.5"/>
  <polygon class="pl" points="192.6,388.5 192.6,384.8 210.6,384.8 210.6,388.5 192.6,388.5"/>
  <polygon class="pl" points="215.0,340.2 215.0,338.1 233.0,338.1 233.0,340.2 215.0,340.2"/>
  <polygon class="pl" points="237.4,430.5 237.4,421.3 255.4,421.3 255.4,430.5 237.4,430.5"/>
  <polygon class="pl" points="259.8,378.2 259.8,373.1 277.8,373.1 277.8,378.2 259.8,378.2"/>
  <polygon class="pl" points="282.2,314.0 282.2,312.4 300.2,312.4 300.2,314.0 282.2,314.0"/>
  <polygon class="pl" points="304.6,421.9 304.6,414.9 322.6,414.9 322.6,421.9 304.6,421.9"/>
  <polygon class="pl" points="327.0,470.7 327.0,467.0 345.0,467.0 345.0,470.7 327.0,470.7"/>
  <polygon class="pl" points="349.4,398.5 349.4,394.3 367.4,394.3 367.4,398.5 349.4,398.5"/>
  <polygon class="pl" points="371.8,445.5 371.8,436.7 389.8,436.7 389.8,445.5 371.8,445.5"/>
  <polygon class="pl" points="394.2,320.7 394.2,320.3 412.2,320.3 412.2,320.7 394.2,320.7"/>
  <polygon class="pl" points="416.6,350.0 416.6,349.2 434.6,349.2 434.6,350.0 416.6,350.0"/>
  <polygon class="pl" points="461.4,348.9 461.4,346.0 479.4,346.0 479.4,348.9 461.4,348.9"/>
  <polygon class="pl" points="483.8,341.7 483.8,340.1 501.8,340.1 501.8,341.7 483.8,341.7"/>
  <polygon class="pl" points="506.2,311.9 506.2,310.3 524.2,310.3 524.2,311.9 506.2,311.9"/>
  <polygon class="pl" points="528.6,399.0 528.6,391.3 546.6,391.3 546.6,399.0 528.6,399.0"/>
  <polygon class="pl" points="551.0,375.1 551.0,372.9 569.0,372.9 569.0,375.1 551.0,375.1"/>
  <polygon class="pl" points="573.4,388.4 573.4,385.8 591.4,385.8 591.4,388.4 573.4,388.4"/>
  <polygon class="pl" points="618.2,357.8 618.2,354.8 636.2,354.8 636.2,357.8 618.2,357.8"/>
  <polygon class="pl" points="640.6,348.4 640.6,347.3 658.6,347.3 658.6,348.4 640.6,348.4"/>
  <polygon class="pl" points="663.0,319.3 663.0,319.0 681.0,319.0 681.0,319.3 663.0,319.3"/>
  <polygon class="pl" points="685.4,393.4 685.4,389.9 703.4,389.9 703.4,393.4 685.4,393.4"/>
  <polygon class="pl" points="707.8,332.7 707.8,330.7 725.8,330.7 725.8,332.7 707.8,332.7"/>
  <polygon class="pl" points="730.2,295.5 730.2,295.4 748.2,295.4 748.2,295.5 730.2,295.5"/>
  <polygon class="pl" points="752.6,297.0 752.6,296.5 770.6,296.5 770.6,297.0 752.6,297.0"/>
  <polygon class="pl" points="775.0,367.7 775.0,364.2 793.0,364.2 793.0,367.7 775.0,367.7"/>
  <polygon class="pl" points="797.4,439.1 797.4,435.0 815.4,435.0 815.4,439.1 797.4,439.1"/>
  <polygon class="pl" points="864.6,417.5 864.6,414.4 882.6,414.4 882.6,417.5 864.6,417.5"/>
  <polygon class="pl" points="887.0,451.7 887.0,451.6 905.0,451.6 905.0,451.7 887.0,451.7"/>
</g>
<g stroke="#000" stroke-width="0.90" fill="#8DA0CB"  clip-path="url(#axis_clip)">
  <polygon class="pl" points="259.8,373.1 259.8,347.9 277.8,347.9 277.8,373.1 259.8,373.1"/>
  <polygon class="pl" points="282.2,312.4 282.2,298.8 300.2,298.8 300.2,312.4 282.2,312.4"/>
  <polygon class="pl" points="304.6,414.9 304.6,389.0 322.6,389.0 322.6,414.9 304.6,414.9"/>
  <polygon class="pl" points="327.0,467.0 327.0,411.8 345.0,411.8 345.0,467.0 327.0,467.0"/>
  <polygon class="pl" points="349.4,394.3 349.4,379.6 367.4,379.6 367.4,394.3 349.4,394.3"/>
  <polygon class="pl" points="394.2,320.3 394.2,311.9 412.2,311.9 412.2,320.3 394.2,320.3"/>
  <polygon class="pl" points="416.6,349.2 416.6,329.6 434.6,329.6 434.6,349.2 416.6,349.2"/>
  <polygon class="pl" points="483.8,340.1 483.8,305.6 501.8,305.6 501.8,340.1 483.8,340.1"/>
  <polygon class="pl" points="506.2,310.3 506.2,306.2 524.2,306.2 524.2,310.3 506.2,310.3"/>
  <polygon class="pl" points="551.0,372.9 551.0,317.7 569.0,317.7 569.0,372.9 551.0,372.9"/>
  <polygon class="pl" points="573.4,385.8 573.4,376.2 591.4,376.2 591.4,385.8 573.4,385.8"/>
  <polygon class="pl" points="595.8,295.2 595.8,282.5 613.8,282.5 613.8,295.2 595.8,295.2"/>
  <polygon class="pl" points="618.2,354.8 618.2,344.9 636.2,344.9 636.2,354.8 618.2,354.8"/>
  <polygon class="pl" points="663.0,319.0 663.0,295.7 681.0,295.7 681.0,319.0 663.0,319.0"/>
  <polygon class="pl" points="685.4,389.9 685.4,388.0 703.4,388.0 703.4,389.9 685.4,389.9"/>
  <polygon class="pl" points="707.8,330.7 707.8,327.2 725.8,327.2 725.8,330.7 707.8,330.7"/>
  <polygon class="pl" points="730.2,295.4 730.2,283.3 748.2,283.3 748.2,295.4 730.2,295.4"/>
  <polygon class="pl" points="752.6,296.5 752.6,282.5 770.6,282.5 770.6,296.5 752.6,296.5"/>
  <polygon class="pl" points="775.0,364.2 775.0,343.9 793.0,343.9 793.0,364.2 775.0,364.2"/>
  <polygon class="pl" points="797.4,435.0 797.4,394.0 815.4,394.0 815.4,435.0 797.4,435.0"/>
  <polygon class="pl" points="819.8,361.1 819.8,348.9 837.8,348.9 837.8,361.1 819.8,361.1"/>
  <polygon class="pl" points="864.6,414.4 864.6,387.3 882.6,387.3 882.6,414.4 864.6,414.4"/>
  <polygon class="pl" points="887.0,451.6 887.0,380.1 905.0,380.1 905.0,451.6 887.0,451.6"/>
</g>
<g stroke="#000" stroke-width="0.90" fill="#66C2A5"  clip-path="url(#axis_clip)">
  <polygon class="pl" points="147.8,568.2 147.8,396.4 165.8,396.4 165.8,568.2 147.8,568.2"/>
  <polygon class="pl" points="192.6,384.8 192.6,282.5 210.6,282.5 210.6,384.8 192.6,384.8"/>
  <polygon class="pl" points="215.0,338.1 215.0,282.5 233.0,282.5 233.0,338.1 215.0,338.1"/>
  <polygon class="pl" points="237.4,421.3 237.4,282.5 255.4,282.5 255.4,421.3 237.4,421.3"/>
  <polygon class="pl" points="259.8,347.9 259.8,282.5 277.8,282.5 277.8,347.9 259.8,347.9"/>
  <polygon class="pl" points="282.2,298.8 282.2,282.5 300.2,282.5 300.2,298.8 282.2,298.8"/>
  <polygon class="pl" points="304.6,389.0 304.6,282.7 322.6,282.7 322.6,389.0 304.6,389.0"/>
  <polygon class="pl" points="327.0,411.8 327.0,283.1 345.0,283.1 345.0,411.8 327.0,411.8"/>
  <polygon class="pl" points="349.4,379.6 349.4,283.5 367.4,283.5 367.4,379.6 349.4,379.6"/>
  <polygon class="pl" points="371.8,436.7 371.8,282.5 389.8,282.5 389.8,436.7 371.8,436.7"/>
  <polygon class="pl" points="394.2,311.9 394.2,282.5 412.2,282.5 412.2,311.9 394.2,311.9"/>
  <polygon class="pl" points="416.6,329.6 416.6,283.1 434.6,283.1 434.6,329.6 416.6,329.6"/>
  <polygon class="pl" points="439.0,284.0 439.0,283.5 457.0,283.5 457.0,284.0 439.0,284.0"/>
  <polygon class="pl" points="461.4,346.0 461.4,283.5 479.4,283.5 479.4,346.0 461.4,346.0"/>
  <polygon class="pl" points="483.8,305.6 483.8,283.3 501.8,283.3 501.8,305.6 483.8,305.6"/>
  <polygon class="pl" points="506.2,306.2 506.2,283.6 524.2,283.6 524.2,306.2 506.2,306.2"/>
  <polygon class="pl" points="528.6,391.3 528.6,283.5 546.6,283.5 546.6,391.3 528.6,391.3"/>
  <polygon class="pl" points="551.0,317.7 551.0,282.5 569.0,282.5 569.0,317.7 551.0,317.7"/>
  <polygon class="pl" points="573.4,376.2 573.4,282.5 591.4,282.5 591.4,376.2 573.4,376.2"/>
  <polygon class="pl" points="618.2,344.9 618.2,282.5 636.2,282.5 636.2,344.9 618.2,344.9"/>
  <polygon class="pl" points="640.6,347.3 640.6,282.5 658.6,282.5 658.6,347.3 640.6,347.3"/>
  <polygon class="pl" points="663.0,295.7 663.0,283.2 681.0,283.2 681.0,295.7 663.0,295.7"/>
  <polygon class="pl" points="685.4,388.0 685.4,283.5 703.4,283.5 703.4,388.0 685.4,388.0"/>
  <polygon class="pl" points="707.8,327.2 707.8,283.6 725.8,283.6 725.8,327.2 707.8,327.2"/>
  <polygon class="pl" points="775.0,343.9 775.0,282.9 793.0,282.9 793.0,343.9 775.0,343.9"/>
  <polygon class="pl" points="797.4,394.0 797.4,283.6 815.4,283.6 815.4,394.0 797.4,394.0"/>
  <polygon class="pl" points="819.8,348.9 819.8,319.4 837.8,319.4 837.8,348.9 819.8,348.9"/>
  <polygon class="pl" points="864.6,387.3 864.6,287.5 882.6,287.5 882.6,387.3 864.6,387.3"/>
  <polygon class="pl" points="887.0,380.1 887.0,283.7 905.0,283.7 905.0,380.1 887.0,380.1"/>
</g>
<g stroke="#000" stroke-width="0.90" fill="#E78AC3"  clip-path="url(#axis_clip)">
  <polygon class="pl" points="147.8,396.4 147.8,282.5 165.8,282.5 165.8,396.4 147.8,396.4"/>
  <polygon class="pl" points="170.2,393.2 170.2,282.5 188.2,282.5 188.2,393.2 170.2,393.2"/>
  <polygon class="pl" points="819.8,319.4 819.8,285.1 837.8,285.1 837.8,319.4 819.8,319.4"/>
  <polygon class="pl" points="864.6,287.5 864.6,282.5 882.6,282.5 882.6,287.5 864.6,287.5"/>
  <polygon class="pl" points="887.0,283.7 887.0,282.5 905.0,282.5 905.0,283.7 887.0,283.7"/>
</g>
<g stroke="#000" stroke-width="0.90" fill="#A6D854"  clip-path="url(#axis_clip)">
  <polygon class="pl" points="282.2,282.5 282.2,282.5 300.2,282.5 300.2,282.5 282.2,282.5"/>
  <polygon class="pl" points="304.6,282.7 304.6,282.5 322.6,282.5 322.6,282.7 304.6,282.7"/>
  <polygon class="pl" points="327.0,283.1 327.0,282.5 345.0,282.5 345.0,283.1 327.0,283.1"/>
  <polygon class="pl" points="349.4,283.5 349.4,282.5 367.4,282.5 367.4,283.5 349.4,283.5"/>
  <polygon class="pl" points="416.6,283.1 416.6,282.5 434.6,282.5 434.6,283.1 416.6,283.1"/>
  <polygon class="pl" points="439.0,283.5 439.0,282.5 457.0,282.5 457.0,283.5 439.0,283.5"/>
  <polygon class="pl" points="461.4,283.5 461.4,282.5 479.4,282.5 479.4,283.5 461.4,283.5"/>
  <polygon class="pl" points="483.8,283.3 483.8,282.5 501.8,282.5 501.8,283.3 483.8,283.3"/>
  <polygon class="pl" points="506.2,283.6 506.2,282.5 524.2,282.5 524.2,283.6 506.2,283.6"/>
  <polygon class="pl" points="528.6,283.5 528.6,282.5 546.6,282.5 546.6,283.5 528.6,283.5"/>
  <polygon class="pl" points="663.0,283.2 663.0,282.5 681.0,282.5 681.0,283.2 663.0,283.2"/>
  <polygon class="pl" points="685.4,283.5 685.4,282.5 703.4,282.5 703.4,283.5 685.4,283.5"/>
  <polygon class="pl" points="707.8,283.6 707.8,282.5 725.8,282.5 725.8,283.6 707.8,283.6"/>
  <polygon class="pl" points="730.2,283.3 730.2,282.5 748.2,282.5 748.2,283.3 730.2,283.3"/>
  <polygon class="pl" points="775.0,282.9 775.0,282.5 793.0,282.5 793.0,282.9 775.0,282.9"/>
  <polygon class="pl" points="797.4,283.6 797.4,282.5 815.4,282.5 815.4,283.6 797.4,283.6"/>
  <polygon class="pl" points="819.8,285.1 819.8,282.5 837.8,282.5 837.8,285.1 819.8,285.1"/>
  <polygon class="pl" points="842.2,287.3 842.2,282.5 860.2,282.5 860.2,287.3 842.2,287.3"/>
</g>
<g class="pl" fill="#000" stroke="#000" stroke-width="0.900">
  <circle cx="156.8" cy="446.8" r="5.4" />
  <circle cx="179.2" cy="294.7" r="5.4" />
  <circle cx="201.6" cy="323.7" r="5.4" />
  <circle cx="224.0" cy="275.5" r="5.4" />
  <circle cx="246.4" cy="303.2" r="5.4" />
  <circle cx="268.8" cy="272.4" r="5.4" />
  <circle cx="291.2" cy="225.2" r="5.4" />
  <circle cx="313.6" cy="319.0" r="5.4" />
  <circle cx="336.0" cy="399.3" r="5.4" />
  <circle cx="358.4" cy="326.6" r="5.4" />
  <circle cx="380.8" cy="341.2" r="5.4" />
  <circle cx="403.2" cy="297.3" r="5.4" />
  <circle cx="425.6" cy="318.4" r="5.4" />
  <circle cx="448.0" cy="218.7" r="5.4" />
  <circle cx="470.4" cy="263.6" r="5.4" />
  <circle cx="492.8" cy="283.2" r="5.4" />
  <circle cx="515.2" cy="217.3" r="5.4" />
  <circle cx="537.6" cy="285.5" r="5.4" />
  <circle cx="560.0" cy="315.4" r="5.4" />
  <circle cx="582.4" cy="341.0" r="5.4" />
  <circle cx="604.8" cy="194.9" r="5.4" />
  <circle cx="627.2" cy="285.3" r="5.4" />
  <circle cx="649.6" cy="321.5" r="5.4" />
  <circle cx="672.0" cy="297.2" r="5.4" />
  <circle cx="694.4" cy="340.9" r="5.4" />
  <circle cx="716.8" cy="267.0" r="5.4" />
  <circle cx="739.2" cy="234.2" r="5.4" />
  <circle cx="761.6" cy="216.0" r="5.4" />
  <circle cx="784.0" cy="285.7" r="5.4" />
  <circle cx="806.4" cy="365.7" r="5.4" />
  <circle cx="828.8" cy="359.8" r="5.4" />
  <circle cx="851.2" cy="134.1" r="5.4" />
  <circle cx="873.6" cy="355.9" r="5.4" />
  <circle cx="896.0" cy="407.1" r="5.4" />
</g>
<g stroke="#000" stroke-width="0.90" fill="#808080"  >
</g>
<g stroke="#000" stroke-width="0.90" fill="#8DA0CB"  >
</g>
<g stroke="#000" stroke-width="0.90" fill="#66C2A5"  >
</g>
<g stroke="#000" stroke-width="0.90" fill="#E78AC3"  >
  <polygon class="pl" points="959.0,231.7 959.0,278.9 977.0,278.9 977.0,231.7 959.0,231.7"/>
</g>
<g stroke="#000" stroke-width="0.90" fill="#A6D854"  >
  <polygon class="pl" points="959.0,278.9 959.0,282.5 977.0,282.5 977.0,278.9 959.0,278.9"/>
</g>
<g stroke="#000" stroke-width="0.90" fill="#808080"  >
  <polygon class="pl" points="959.0,348.8 959.0,345.9 977.0,345.9 977.0,348.8 959.0,348.8"/>
</g>
<g stroke="#000" stroke-width="0.90" fill="#8DA0CB"  >
  <polygon class="pl" points="959.0,345.9 959.0,340.6 977.0,340.6 977.0,345.9 959.0,345.9"/>
</g>
<g stroke="#000" stroke-width="0.90" fill="#66C2A5"  >
  <polygon class="pl" points="959.0,340.6 959.0,282.5 977.0,282.5 977.0,340.6 959.0,340.6"/>
</g>
<g stroke="#000" stroke-width="0.90" fill="#E78AC3"  >
</g>
<g stroke="#000" stroke-width="0.90" fill="#A6D854"  >
</g>
<g class="pl" fill="#000" stroke="#000" stroke-width="0.900">
  <circle cx="968.0" cy="298.0" r="5.4" />
</g>
<text transform="translate(968.0,593.9)"  font-size="21.60" fill="#808080" stroke="none" text-anchor="middle">
      <tspan x="0" y="18.0">Average over</tspan><tspan x="0" y="42.2">1990&#8211;2023</tspan>
    </text>
<g stroke="none" stroke-width="0.9000"  >
  <polygon points="968.0,587.2 974.0,593.9 962.0,593.9 968.0,587.2" fill="#808080"/>
</g>
<text transform="translate(1009.2,295.6)" dy="6.5" font-size="21.60" fill="#000" stroke="none">Fossil CO<tspan dy="0.2em"><tspan style="font-size:70%">2</tspan></tspan><tspan dy="-0.2em"></tspan></text>
<text transform="translate(1009.2,274.7)" dy="6.5" font-size="21.60" fill="#A6D854" stroke="none">Population</text>
<text transform="translate(1009.2,253.8)" dy="6.5" font-size="21.60" fill="#E78AC3" stroke="none">GDP/Population</text>
<text transform="translate(1009.2,316.5)" dy="6.5" font-size="21.60" fill="#66C2A5" stroke="none">Energy/GDP</text>
<text transform="translate(1009.2,337.4)" dy="6.5" font-size="21.60" fill="#8DA0CB" stroke="none">CO<tspan dy="0.2em"><tspan style="font-size:70%">2</tspan></tspan><tspan dy="-0.2em">/</tspan>Energy</text>
<text transform="translate(1009.2,358.3)" dy="6.5" font-size="21.60" fill="#808080" stroke="none">Interactions</text>
<polyline class="pl" points="985.2,298.0 986.2,298.0 987.2,298.0 988.1,298.0 988.9,297.9 989.7,297.8 990.4,297.8 991.1,297.7 991.7,297.6 992.4,297.5 992.9,297.4 993.5,297.2 994.1,297.1 994.6,297.0 995.1,296.9 995.7,296.7 996.2,296.6 996.7,296.5 997.3,296.4 997.9,296.3 998.4,296.2 999.1,296.0 999.7,296.0 1000.4,295.9 1001.1,295.8 1001.9,295.7 1002.7,295.7 1003.6,295.6 1004.6,295.6 1005.6,295.6" stroke="#000" stroke-width="0.90" stroke-opacity="1.00" fill="none" />
<polyline class="pl" points="985.2,280.7 986.2,280.7 987.2,280.6 988.1,280.5 988.9,280.4 989.7,280.2 990.4,280.1 991.1,279.8 991.7,279.6 992.4,279.3 992.9,279.1 993.5,278.8 994.1,278.5 994.6,278.2 995.1,277.9 995.7,277.6 996.2,277.2 996.7,276.9 997.3,276.6 997.9,276.4 998.4,276.1 999.1,275.8 999.7,275.6 1000.4,275.4 1001.1,275.2 1001.9,275.0 1002.7,274.9 1003.6,274.8 1004.6,274.7 1005.6,274.7" stroke="#A6D854" stroke-width="0.90" stroke-opacity="1.00" fill="none" />
<polyline class="pl" points="985.2,255.3 986.2,255.3 987.2,255.3 988.1,255.3 988.9,255.3 989.7,255.2 990.4,255.2 991.1,255.1 991.7,255.1 992.4,255.0 992.9,254.9 993.5,254.8 994.1,254.8 994.6,254.7 995.1,254.6 995.7,254.5 996.2,254.5 996.7,254.4 997.3,254.3 997.9,254.2 998.4,254.2 999.1,254.1 999.7,254.0 1000.4,254.0 1001.1,253.9 1001.9,253.9 1002.7,253.9 1003.6,253.8 1004.6,253.8 1005.6,253.8" stroke="#E78AC3" stroke-width="0.90" stroke-opacity="1.00" fill="none" />
<polyline class="pl" points="985.2,311.6 986.2,311.6 987.2,311.6 988.1,311.7 988.9,311.8 989.7,311.9 990.4,312.1 991.1,312.3 991.7,312.5 992.4,312.7 992.9,312.9 993.5,313.1 994.1,313.4 994.6,313.6 995.1,313.9 995.7,314.2 996.2,314.4 996.7,314.7 997.3,314.9 997.9,315.1 998.4,315.4 999.1,315.6 999.7,315.8 1000.4,315.9 1001.1,316.1 1001.9,316.2 1002.7,316.3 1003.6,316.4 1004.6,316.5 1005.6,316.5" stroke="#66C2A5" stroke-width="0.90" stroke-opacity="1.00" fill="none" />
<polyline class="pl" points="985.2,343.3 986.2,343.2 987.2,343.2 988.1,343.1 988.9,343.0 989.7,342.8 990.4,342.6 991.1,342.4 991.7,342.2 992.4,341.9 992.9,341.7 993.5,341.4 994.1,341.1 994.6,340.8 995.1,340.5 995.7,340.2 996.2,339.9 996.7,339.6 997.3,339.3 997.9,339.0 998.4,338.7 999.1,338.5 999.7,338.2 1000.4,338.0 1001.1,337.9 1001.9,337.7 1002.7,337.6 1003.6,337.5 1004.6,337.4 1005.6,337.4" stroke="#8DA0CB" stroke-width="0.90" stroke-opacity="1.00" fill="none" />
<polyline class="pl" points="985.2,347.4 986.2,347.4 987.2,347.5 988.1,347.7 988.9,347.9 989.7,348.2 990.4,348.6 991.1,349.0 991.7,349.4 992.4,349.9 992.9,350.4 993.5,350.9 994.1,351.4 994.6,352.0 995.1,352.5 995.7,353.1 996.2,353.7 996.7,354.2 997.3,354.8 997.9,355.3 998.4,355.8 999.1,356.2 999.7,356.7 1000.4,357.1 1001.1,357.4 1001.9,357.7 1002.7,358.0 1003.6,358.1 1004.6,358.2 1005.6,358.3" stroke="#808080" stroke-width="0.90" stroke-opacity="1.00" fill="none" />
<text transform="translate(145.6,47.2)" dy="0.0" font-size="27.00" fill="#808080" stroke="none">Kaya decomposition of emissions growth: Poland</text>
<text transform="translate(157.6,60.7)" dy="18.0" font-size="18.00" fill="#808080" stroke="none">Percentage change relative to previous year</text>
<text transform="translate(157.6,82.4)" dy="18.0" font-size="18.00" fill="#808080" stroke="none">Adjusted for leap years</text>
<text transform="translate(160.3,666.1)" font-size="19.80" font-family="Helvetica" fill="#BFBFBF" stroke="none" xml:space="preserve">Global Carbon Project</text>
<g>
  <rect x="123.0" y="651.4" width="34" height="17" fill="#FFF" stroke="none" opacity="0.01"/>
  <g transform="translate(124.0,652.4) scale(0.24)">
  <g><circle fill="#FFF" cx="37.79" cy="28.5" r="28.84"/>
     <circle fill="none" cx="37.79" cy="28.5" r="28.84" stroke="#BFBFBF" stroke-width="5.5"/>
     <path fill="#BFBFBF" d="M37.16,23.19 l-4.29,2.23c-0.458-0.951-1.02-1.62-1.69-2c-0.667-0.38-1.29-0.571-1.86-0.571c-2.86,0-4.29,1.89-4.29,5.66 c0,1.71,0.36,3.08,1.09,4.11c0.724,1.03,1.79,1.54,3.2,1.54c1.87,0,3.18-0.915,3.94-2.74l3.94,2 c-0.838,1.56-2,2.79-3.49,3.69c-1.48,0.896-3.12,1.34-4.91,1.34c-2.86,0-5.16-0.875-6.92-2.63 c-1.75-1.75-2.63-4.19-2.63-7.31c0-3.05,0.886-5.47,2.66-7.26c1.77-1.79,4.01-2.69,6.72-2.69 C32.6,18.56,35.44,20.1,37.16,23.19z
              M55.61,23.19l-4.23,2.23c-0.457-0.951-1.02-1.62-1.69-2 c-0.668-0.38-1.31-0.571-1.91-0.571c-2.86,0-4.29,1.89-4.29,5.66c0,1.71,0.363,3.08,1.09,4.11 c0.723,1.03,1.79,1.54,3.2,1.54c1.87,0,3.18-0.915,3.94-2.74l4,2c-0.875,1.56-2.06,2.79-3.54,3.69 c-1.49,0.9-3.11,1.34-4.86,1.34c-2.9,0-5.21-0.875-6.94-2.63c-1.74-1.75-2.6-4.19-2.6-7.31 c0-3.05,0.885-5.47,2.66-7.26c1.77-1.79,4.01-2.69,6.71-2.69C51.12,18.56,53.944,20.1,55.61,23.19z"/>
  </g></g>
  <g transform="translate(140.2,652.4) scale(0.24)">
  <g><circle fill="#FFF" cx="37.79" cy="28.5" r="28.84"/>
     <circle fill="none" cx="37.79" cy="28.5" r="28.84" stroke="#BFBFBF" stroke-width="5.5"/>
     <path fill="#BFBFBF" d="M46.129,20.557v13.085h-3.656v15.542h-9.944V33.643h-3.656V20.557 c0-0.572,0.2-1.057,0.599-1.457c0.401-0.399,0.887-0.6,1.457-0.6h13.144c0.533,0,1.01,0.2,1.428,0.6 C45.918,19.5,46.129,19.986,46.129,20.557z
              M33.042,12.329c0-3.008,1.485-4.514,4.458-4.514s4.457,1.504,4.457,4.514 c0,2.971-1.486,4.457-4.457,4.457S33.042,15.3,33.042,12.329z"/>
  </g></g>
</g>
</g>
</svg>
