<svg version="1.1" xmlns="http://www.w3.org/2000/svg" xmlns:xlink="http://www.w3.org/1999/xlink" width="100%" height="100%" viewBox="0 0 1200.000 674.916">
<title>Annual LULUCF emissions: Paraguay</title>
<style type="text/css">
  #main {font-family:Helvetica,Arial,sans-serif; font-size:27.00px;
         fill-opacity:1; fill:#000000; stroke:none; stroke-linejoin:round; stroke-linecap:round; stroke-width:1.00;}
  .marker {stroke-opacity:0;fill-opacity:0;}
  .marker:hover {stroke-opacity:0.5; fill-opacity:1;}
  .ticklabel {font-size:27.00px;fill:#808080;stroke:none;font-family:Helvetica}
  .ytl {text-anchor:end;}
  .dp1 {pointer-events:none;font-size:70%;text-anchor:middle;fill:#000000;}
  .dp2 {pointer-events:none;font-size:70%;text-anchor:middle;fill:#FFFFFF;}
  .numtip {pointer-events:none;}
  .cc {opacity:0.25;}
.dl_fe {background-color:#FDFFDF;display:flex;margin:auto;align-items:center}
.dl_fe_p {font-size:20px;text-align:center;margin:3px}
.dl_el {display:none;pointer-events:none;}
.cc:hover + .dl_el {display:block;}
text:hover + .dl_el {display:block;}
</style>
<defs>
  <clipPath id="axis_clip"><rect x="145.8" y="54.2" width="761.2" height="532.8" /></clipPath>
  <path id="line_x" d="M 145.600,0 h 761.600" stroke="#262626" stroke-opacity="0.15" stroke-width="1.00"/>
  <path id="tick_y" d="M 145.600,0 h -6.000" stroke="#808080" stroke-width="0.90"/>
  <path id="tick_x" d="M 0,587.177 v 6.000" stroke="#808080" stroke-width="0.90"/>
</defs>
<g id="main">
<use xlink:href="#line_x" transform="translate(0,587.2)"/>
<use xlink:href="#line_x" transform="translate(0,498.3)"/>
<use xlink:href="#line_x" transform="translate(0,409.4)"/>
<use xlink:href="#line_x" transform="translate(0,320.6)"/>
<use xlink:href="#line_x" transform="translate(0,231.7)"/>
<use xlink:href="#line_x" transform="translate(0,142.9)"/>
<use xlink:href="#line_x" transform="translate(0,54.0)"/>
<use xlink:href="#tick_y" transform="translate(0,587.2)"/>
<use xlink:href="#tick_y" transform="translate(0,498.3)"/>
<use xlink:href="#tick_y" transform="translate(0,409.4)"/>
<use xlink:href="#tick_y" transform="translate(0,320.6)"/>
<use xlink:href="#tick_y" transform="translate(0,231.7)"/>
<use xlink:href="#tick_y" transform="translate(0,142.9)"/>
<use xlink:href="#tick_y" transform="translate(0,54.0)"/>
<use xlink:href="#tick_x" transform="translate(157.5,0)"/>
<use xlink:href="#tick_x" transform="translate(276.5,0)"/>
<use xlink:href="#tick_x" transform="translate(395.5,0)"/>
<use xlink:href="#tick_x" transform="translate(514.5,0)"/>
<use xlink:href="#tick_x" transform="translate(633.5,0)"/>
<use xlink:href="#tick_x" transform="translate(752.5,0)"/>
<use xlink:href="#tick_x" transform="translate(895.3,0)"/>
<polyline points="145.6,53.993 145.6,587.177 907.2,587.177" stroke="#808080" stroke-width="0.90" fill="none"/>
<text class="ticklabel xtl" transform="translate(157.5,629.0)" text-anchor="middle">1990</text>
<text class="ticklabel xtl" transform="translate(276.5,629.0)" text-anchor="middle">1995</text>
<text class="ticklabel xtl" transform="translate(395.5,629.0)" text-anchor="middle">2000</text>
<text class="ticklabel xtl" transform="translate(514.5,629.0)" text-anchor="middle">2005</text>
<text class="ticklabel xtl" transform="translate(633.5,629.0)" text-anchor="middle">2010</text>
<text class="ticklabel xtl" transform="translate(752.5,629.0)" text-anchor="middle">2015</text>
<text class="ticklabel xtl" transform="translate(895.3,629.0)" text-anchor="middle">2021</text>
<text class="ticklabel ytl" transform="translate(128.8,595.3)">-40</text>
<text class="ticklabel ytl" transform="translate(128.8,506.4)">-20</text>
<text class="ticklabel ytl" transform="translate(128.8,417.5)">0</text>
<text class="ticklabel ytl" transform="translate(128.8,328.7)">20</text>
<text class="ticklabel ytl" transform="translate(128.8,239.8)">40</text>
<text class="ticklabel ytl" transform="translate(128.8,151.0)">60</text>
<text class="ticklabel ytl" transform="translate(128.8,62.1)">80 Mt</text>
<g stroke="#000" stroke-width="0.90" fill="#1A4D1A"  clip-path="url(#axis_clip)">
</g>
<g stroke="#000" stroke-width="0.90" fill="#8B1E40"  clip-path="url(#axis_clip)">
</g>
<g stroke="#000" stroke-width="0.90" fill="#7B417F"  clip-path="url(#axis_clip)">
  <polygon points="671.6,155.9 671.6,157.9 690.6,157.9 690.6,155.9 671.6,155.9"/>
  <polygon points="695.4,160.1 695.4,162.2 714.4,162.2 714.4,160.1 695.4,160.1"/>
  <polygon points="719.2,127.9 719.2,131.5 738.2,131.5 738.2,127.9 719.2,127.9"/>
  <polygon points="743.0,130.9 743.0,134.6 762.0,134.6 762.0,130.9 743.0,130.9"/>
  <polygon points="766.8,202.9 766.8,207.6 785.8,207.6 785.8,202.9 766.8,202.9"/>
  <polygon points="790.6,209.9 790.6,214.6 809.6,214.6 809.6,209.9 790.6,209.9"/>
  <polygon points="814.4,208.3 814.4,217.2 833.4,217.2 833.4,208.3 814.4,208.3"/>
  <polygon points="838.2,206.9 838.2,216.0 857.2,216.0 857.2,206.9 838.2,206.9"/>
  <polygon points="862.0,257.2 862.0,263.2 881.0,263.2 881.0,257.2 862.0,257.2"/>
  <polygon points="885.8,289.7 885.8,290.8 904.8,290.8 904.8,289.7 885.8,289.7"/>
</g>
<g stroke="#000" stroke-width="0.90" fill="#808080"  clip-path="url(#axis_clip)">
  <polygon points="148.0,199.8 148.0,202.9 167.0,202.9 167.0,199.8 148.0,199.8"/>
  <polygon points="171.8,200.4 171.8,203.5 190.8,203.5 190.8,200.4 171.8,200.4"/>
  <polygon points="195.6,199.9 195.6,203.0 214.6,203.0 214.6,199.9 195.6,199.9"/>
  <polygon points="219.4,199.0 219.4,202.1 238.4,202.1 238.4,199.0 219.4,199.0"/>
  <polygon points="243.2,198.7 243.2,201.7 262.2,201.7 262.2,198.7 243.2,198.7"/>
  <polygon points="267.0,198.3 267.0,201.4 286.0,201.4 286.0,198.3 267.0,198.3"/>
  <polygon points="290.8,198.4 290.8,201.5 309.8,201.5 309.8,198.4 290.8,198.4"/>
  <polygon points="314.6,197.7 314.6,200.8 333.6,200.8 333.6,197.7 314.6,197.7"/>
  <polygon points="338.4,193.7 338.4,196.8 357.4,196.8 357.4,193.7 338.4,193.7"/>
  <polygon points="362.2,192.3 362.2,195.4 381.2,195.4 381.2,192.3 362.2,192.3"/>
  <polygon points="386.0,210.6 386.0,214.2 405.0,214.2 405.0,210.6 386.0,210.6"/>
  <polygon points="409.8,211.0 409.8,214.6 428.8,214.6 428.8,211.0 409.8,211.0"/>
  <polygon points="433.6,208.4 433.6,212.0 452.6,212.0 452.6,208.4 433.6,208.4"/>
  <polygon points="457.4,209.5 457.4,213.1 476.4,213.1 476.4,209.5 457.4,209.5"/>
  <polygon points="481.2,210.2 481.2,213.8 500.2,213.8 500.2,210.2 481.2,210.2"/>
  <polygon points="505.0,210.1 505.0,213.7 524.0,213.7 524.0,210.1 505.0,210.1"/>
  <polygon points="528.8,94.8 528.8,104.9 547.8,104.9 547.8,94.8 528.8,94.8"/>
  <polygon points="552.6,94.6 552.6,104.7 571.6,104.7 571.6,94.6 552.6,94.6"/>
  <polygon points="576.4,102.4 576.4,112.5 595.4,112.5 595.4,102.4 576.4,102.4"/>
  <polygon points="600.2,101.9 600.2,112.0 619.2,112.0 619.2,101.9 600.2,101.9"/>
  <polygon points="624.0,99.5 624.0,109.6 643.0,109.6 643.0,99.5 624.0,99.5"/>
  <polygon points="647.8,101.3 647.8,111.4 666.8,111.4 666.8,101.3 647.8,101.3"/>
  <polygon points="671.6,157.9 671.6,164.6 690.6,164.6 690.6,157.9 671.6,157.9"/>
  <polygon points="695.4,162.2 695.4,168.9 714.4,168.9 714.4,162.2 695.4,162.2"/>
  <polygon points="719.2,131.5 719.2,136.1 738.2,136.1 738.2,131.5 719.2,131.5"/>
  <polygon points="743.0,134.6 743.0,139.1 762.0,139.1 762.0,134.6 743.0,134.6"/>
  <polygon points="766.8,207.6 766.8,210.9 785.8,210.9 785.8,207.6 766.8,207.6"/>
  <polygon points="790.6,214.6 790.6,218.0 809.6,218.0 809.6,214.6 790.6,214.6"/>
  <polygon points="814.4,217.2 814.4,220.1 833.4,220.1 833.4,217.2 814.4,217.2"/>
  <polygon points="838.2,216.0 838.2,218.9 857.2,218.9 857.2,216.0 838.2,216.0"/>
  <polygon points="862.0,263.2 862.0,265.5 881.0,265.5 881.0,263.2 862.0,263.2"/>
  <polygon points="885.8,290.8 885.8,293.4 904.8,293.4 904.8,290.8 885.8,290.8"/>
</g>
<g stroke="#000" stroke-width="0.90" fill="#EDB120"  clip-path="url(#axis_clip)">
  <polygon points="148.0,202.9 148.0,202.9 167.0,202.9 167.0,202.9 148.0,202.9"/>
  <polygon points="171.8,203.5 171.8,203.5 190.8,203.5 190.8,203.5 171.8,203.5"/>
  <polygon points="195.6,203.0 195.6,203.0 214.6,203.0 214.6,203.0 195.6,203.0"/>
  <polygon points="219.4,202.1 219.4,202.1 238.4,202.1 238.4,202.1 219.4,202.1"/>
  <polygon points="243.2,201.7 243.2,201.7 262.2,201.7 262.2,201.7 243.2,201.7"/>
  <polygon points="267.0,201.4 267.0,201.4 286.0,201.4 286.0,201.4 267.0,201.4"/>
  <polygon points="290.8,201.5 290.8,201.5 309.8,201.5 309.8,201.5 290.8,201.5"/>
  <polygon points="314.6,200.8 314.6,200.8 333.6,200.8 333.6,200.8 314.6,200.8"/>
  <polygon points="338.4,196.8 338.4,196.8 357.4,196.8 357.4,196.8 338.4,196.8"/>
  <polygon points="362.2,195.4 362.2,195.4 381.2,195.4 381.2,195.4 362.2,195.4"/>
  <polygon points="386.0,214.2 386.0,214.2 405.0,214.2 405.0,214.2 386.0,214.2"/>
  <polygon points="409.8,214.6 409.8,214.6 428.8,214.6 428.8,214.6 409.8,214.6"/>
  <polygon points="433.6,212.0 433.6,212.0 452.6,212.0 452.6,212.0 433.6,212.0"/>
  <polygon points="457.4,213.1 457.4,213.1 476.4,213.1 476.4,213.1 457.4,213.1"/>
  <polygon points="481.2,213.8 481.2,213.8 500.2,213.8 500.2,213.8 481.2,213.8"/>
  <polygon points="505.0,213.7 505.0,213.7 524.0,213.7 524.0,213.7 505.0,213.7"/>
  <polygon points="528.8,104.9 528.8,105.2 547.8,105.2 547.8,104.9 528.8,104.9"/>
  <polygon points="552.6,104.7 552.6,105.0 571.6,105.0 571.6,104.7 552.6,104.7"/>
  <polygon points="576.4,112.5 576.4,112.8 595.4,112.8 595.4,112.5 576.4,112.5"/>
  <polygon points="600.2,112.0 600.2,112.3 619.2,112.3 619.2,112.0 600.2,112.0"/>
  <polygon points="624.0,109.6 624.0,109.9 643.0,109.9 643.0,109.6 624.0,109.6"/>
  <polygon points="647.8,111.4 647.8,111.7 666.8,111.7 666.8,111.4 647.8,111.4"/>
  <polygon points="671.6,164.6 671.6,164.7 690.6,164.7 690.6,164.6 671.6,164.6"/>
  <polygon points="695.4,168.9 695.4,168.9 714.4,168.9 714.4,168.9 695.4,168.9"/>
</g>
<g stroke="#000" stroke-width="0.90" fill="#D95319"  clip-path="url(#axis_clip)">
  <polygon points="148.0,202.9 148.0,249.4 167.0,249.4 167.0,202.9 148.0,202.9"/>
  <polygon points="171.8,203.5 171.8,250.0 190.8,250.0 190.8,203.5 171.8,203.5"/>
  <polygon points="195.6,203.0 195.6,249.4 214.6,249.4 214.6,203.0 195.6,203.0"/>
  <polygon points="219.4,202.1 219.4,248.6 238.4,248.6 238.4,202.1 219.4,202.1"/>
  <polygon points="243.2,201.7 243.2,248.2 262.2,248.2 262.2,201.7 243.2,201.7"/>
  <polygon points="267.0,201.4 267.0,247.8 286.0,247.8 286.0,201.4 267.0,201.4"/>
  <polygon points="290.8,201.5 290.8,247.9 309.8,247.9 309.8,201.5 290.8,201.5"/>
  <polygon points="314.6,200.8 314.6,247.2 333.6,247.2 333.6,200.8 314.6,200.8"/>
  <polygon points="338.4,196.8 338.4,243.2 357.4,243.2 357.4,196.8 338.4,196.8"/>
  <polygon points="362.2,195.4 362.2,241.8 381.2,241.8 381.2,195.4 362.2,195.4"/>
  <polygon points="386.0,214.2 386.0,270.0 405.0,270.0 405.0,214.2 386.0,214.2"/>
  <polygon points="409.8,214.6 409.8,270.4 428.8,270.4 428.8,214.6 409.8,214.6"/>
  <polygon points="433.6,212.0 433.6,267.8 452.6,267.8 452.6,212.0 433.6,212.0"/>
  <polygon points="457.4,213.1 457.4,268.9 476.4,268.9 476.4,213.1 457.4,213.1"/>
  <polygon points="481.2,213.8 481.2,269.6 500.2,269.6 500.2,213.8 481.2,213.8"/>
  <polygon points="505.0,213.7 505.0,269.5 524.0,269.5 524.0,213.7 505.0,213.7"/>
  <polygon points="528.8,105.2 528.8,268.7 547.8,268.7 547.8,105.2 528.8,105.2"/>
  <polygon points="552.6,105.0 552.6,268.5 571.6,268.5 571.6,105.0 552.6,105.0"/>
  <polygon points="576.4,112.8 576.4,276.3 595.4,276.3 595.4,112.8 576.4,112.8"/>
  <polygon points="600.2,112.3 600.2,275.7 619.2,275.7 619.2,112.3 600.2,112.3"/>
  <polygon points="624.0,109.9 624.0,273.3 643.0,273.3 643.0,109.9 624.0,109.9"/>
  <polygon points="647.8,111.7 647.8,275.2 666.8,275.2 666.8,111.7 647.8,111.7"/>
  <polygon points="671.6,164.7 671.6,300.2 690.6,300.2 690.6,164.7 671.6,164.7"/>
  <polygon points="695.4,168.9 695.4,304.5 714.4,304.5 714.4,168.9 695.4,168.9"/>
  <polygon points="719.2,136.1 719.2,312.3 738.2,312.3 738.2,136.1 719.2,136.1"/>
  <polygon points="743.0,139.1 743.0,315.4 762.0,315.4 762.0,139.1 743.0,139.1"/>
  <polygon points="766.8,210.9 766.8,339.2 785.8,339.2 785.8,210.9 766.8,210.9"/>
  <polygon points="790.6,218.0 790.6,346.3 809.6,346.3 809.6,218.0 790.6,218.0"/>
  <polygon points="814.4,220.1 814.4,334.6 833.4,334.6 833.4,220.1 814.4,220.1"/>
  <polygon points="838.2,218.9 838.2,333.4 857.2,333.4 857.2,218.9 838.2,218.9"/>
  <polygon points="862.0,265.5 862.0,357.2 881.0,357.2 881.0,265.5 862.0,265.5"/>
  <polygon points="885.8,293.4 885.8,409.4 904.8,409.4 904.8,293.4 885.8,293.4"/>
</g>
<g stroke="#000" stroke-width="0.90" fill="#5AA3D0"  clip-path="url(#axis_clip)">
  <polygon points="148.0,249.4 148.0,409.4 167.0,409.4 167.0,249.4 148.0,249.4"/>
  <polygon points="171.8,250.0 171.8,409.4 190.8,409.4 190.8,250.0 171.8,250.0"/>
  <polygon points="195.6,249.4 195.6,409.4 214.6,409.4 214.6,249.4 195.6,249.4"/>
  <polygon points="219.4,248.6 219.4,409.4 238.4,409.4 238.4,248.6 219.4,248.6"/>
  <polygon points="243.2,248.2 243.2,409.4 262.2,409.4 262.2,248.2 243.2,248.2"/>
  <polygon points="267.0,247.8 267.0,409.4 286.0,409.4 286.0,247.8 267.0,247.8"/>
  <polygon points="290.8,247.9 290.8,409.4 309.8,409.4 309.8,247.9 290.8,247.9"/>
  <polygon points="314.6,247.2 314.6,409.4 333.6,409.4 333.6,247.2 314.6,247.2"/>
  <polygon points="338.4,243.2 338.4,409.4 357.4,409.4 357.4,243.2 338.4,243.2"/>
  <polygon points="362.2,241.8 362.2,409.4 381.2,409.4 381.2,241.8 362.2,241.8"/>
  <polygon points="386.0,270.0 386.0,409.4 405.0,409.4 405.0,270.0 386.0,270.0"/>
  <polygon points="409.8,270.4 409.8,409.4 428.8,409.4 428.8,270.4 409.8,270.4"/>
  <polygon points="433.6,267.8 433.6,409.4 452.6,409.4 452.6,267.8 433.6,267.8"/>
  <polygon points="457.4,268.9 457.4,409.4 476.4,409.4 476.4,268.9 457.4,268.9"/>
  <polygon points="481.2,269.6 481.2,409.4 500.2,409.4 500.2,269.6 481.2,269.6"/>
  <polygon points="505.0,269.5 505.0,409.4 524.0,409.4 524.0,269.5 505.0,269.5"/>
  <polygon points="528.8,268.7 528.8,409.4 547.8,409.4 547.8,268.7 528.8,268.7"/>
  <polygon points="552.6,268.5 552.6,409.4 571.6,409.4 571.6,268.5 552.6,268.5"/>
  <polygon points="576.4,276.3 576.4,409.4 595.4,409.4 595.4,276.3 576.4,276.3"/>
  <polygon points="600.2,275.7 600.2,409.4 619.2,409.4 619.2,275.7 600.2,275.7"/>
  <polygon points="624.0,273.3 624.0,409.4 643.0,409.4 643.0,273.3 624.0,273.3"/>
  <polygon points="647.8,275.2 647.8,409.4 666.8,409.4 666.8,275.2 647.8,275.2"/>
  <polygon points="671.6,300.2 671.6,409.4 690.6,409.4 690.6,300.2 671.6,300.2"/>
  <polygon points="695.4,304.5 695.4,409.4 714.4,409.4 714.4,304.5 695.4,304.5"/>
  <polygon points="719.2,312.3 719.2,409.4 738.2,409.4 738.2,312.3 719.2,312.3"/>
  <polygon points="743.0,315.4 743.0,409.4 762.0,409.4 762.0,315.4 743.0,315.4"/>
  <polygon points="766.8,339.2 766.8,409.4 785.8,409.4 785.8,339.2 766.8,339.2"/>
  <polygon points="790.6,346.3 790.6,409.4 809.6,409.4 809.6,346.3 790.6,346.3"/>
  <polygon points="814.4,334.6 814.4,409.4 833.4,409.4 833.4,334.6 814.4,334.6"/>
  <polygon points="838.2,333.4 838.2,409.4 857.2,409.4 857.2,333.4 838.2,333.4"/>
  <polygon points="862.0,357.2 862.0,409.4 881.0,409.4 881.0,357.2 862.0,357.2"/>
</g>
<g stroke="#000" stroke-width="0.90" fill="#1A4D1A"  clip-path="url(#axis_clip)">
</g>
<g stroke="#000" stroke-width="0.90" fill="#8B1E40"  clip-path="url(#axis_clip)">
</g>
<g stroke="#000" stroke-width="0.90" fill="#7B417F"  clip-path="url(#axis_clip)">
</g>
<g stroke="#000" stroke-width="0.90" fill="#EDB120"  clip-path="url(#axis_clip)">
</g>
<g stroke="#000" stroke-width="0.90" fill="#5AA3D0"  clip-path="url(#axis_clip)">
  <polygon points="885.8,508.3 885.8,505.1 904.8,505.1 904.8,508.3 885.8,508.3"/>
</g>
<g stroke="#000" stroke-width="0.90" fill="#6AB561"  clip-path="url(#axis_clip)">
  <polygon points="148.0,498.3 148.0,409.4 167.0,409.4 167.0,498.3 148.0,498.3"/>
  <polygon points="171.8,492.6 171.8,409.4 190.8,409.4 190.8,492.6 171.8,492.6"/>
  <polygon points="195.6,503.8 195.6,409.4 214.6,409.4 214.6,503.8 195.6,503.8"/>
  <polygon points="219.4,502.9 219.4,409.4 238.4,409.4 238.4,502.9 219.4,502.9"/>
  <polygon points="243.2,505.2 243.2,409.4 262.2,409.4 262.2,505.2 243.2,505.2"/>
  <polygon points="267.0,495.0 267.0,409.4 286.0,409.4 286.0,495.0 267.0,495.0"/>
  <polygon points="290.8,484.0 290.8,409.4 309.8,409.4 309.8,484.0 290.8,484.0"/>
  <polygon points="314.6,486.5 314.6,409.4 333.6,409.4 333.6,486.5 314.6,486.5"/>
  <polygon points="338.4,506.6 338.4,409.4 357.4,409.4 357.4,506.6 338.4,506.6"/>
  <polygon points="362.2,518.2 362.2,409.4 381.2,409.4 381.2,518.2 362.2,518.2"/>
  <polygon points="386.0,521.8 386.0,409.4 405.0,409.4 405.0,521.8 386.0,521.8"/>
  <polygon points="409.8,518.0 409.8,409.4 428.8,409.4 428.8,518.0 409.8,518.0"/>
  <polygon points="433.6,522.8 433.6,409.4 452.6,409.4 452.6,522.8 433.6,522.8"/>
  <polygon points="457.4,517.5 457.4,409.4 476.4,409.4 476.4,517.5 457.4,517.5"/>
  <polygon points="481.2,512.3 481.2,409.4 500.2,409.4 500.2,512.3 481.2,512.3"/>
  <polygon points="505.0,505.5 505.0,409.4 524.0,409.4 524.0,505.5 505.0,505.5"/>
  <polygon points="528.8,522.2 528.8,409.4 547.8,409.4 547.8,522.2 528.8,522.2"/>
  <polygon points="552.6,514.3 552.6,409.4 571.6,409.4 571.6,514.3 552.6,514.3"/>
  <polygon points="576.4,514.6 576.4,409.4 595.4,409.4 595.4,514.6 576.4,514.6"/>
  <polygon points="600.2,512.3 600.2,409.4 619.2,409.4 619.2,512.3 600.2,512.3"/>
  <polygon points="624.0,508.8 624.0,409.4 643.0,409.4 643.0,508.8 624.0,508.8"/>
  <polygon points="647.8,509.2 647.8,409.4 666.8,409.4 666.8,509.2 647.8,509.2"/>
  <polygon points="671.6,505.3 671.6,409.4 690.6,409.4 690.6,505.3 671.6,505.3"/>
  <polygon points="695.4,502.4 695.4,409.4 714.4,409.4 714.4,502.4 695.4,502.4"/>
  <polygon points="719.2,509.6 719.2,409.4 738.2,409.4 738.2,509.6 719.2,509.6"/>
  <polygon points="743.0,504.2 743.0,409.4 762.0,409.4 762.0,504.2 743.0,504.2"/>
  <polygon points="766.8,512.7 766.8,409.4 785.8,409.4 785.8,512.7 766.8,512.7"/>
  <polygon points="790.6,511.7 790.6,409.4 809.6,409.4 809.6,511.7 790.6,511.7"/>
  <polygon points="814.4,513.4 814.4,409.4 833.4,409.4 833.4,513.4 814.4,513.4"/>
  <polygon points="838.2,511.8 838.2,409.4 857.2,409.4 857.2,511.8 838.2,511.8"/>
  <polygon points="862.0,511.8 862.0,409.4 881.0,409.4 881.0,511.8 862.0,511.8"/>
  <polygon points="885.8,505.1 885.8,409.4 904.8,409.4 904.8,505.1 885.8,505.1"/>
</g>
<polyline class="pl" points="157.5,288.7 181.3,283.6 205.1,294.2 228.9,292.5 252.7,294.4 276.5,283.9 300.3,272.9 324.1,274.7 347.9,290.8 371.7,301.1 395.5,322.9 419.3,319.6 443.1,321.7 466.9,317.6 490.7,313.1 514.5,306.1 538.3,207.6 562.1,199.5 585.9,207.5 609.7,204.7 633.5,198.8 657.3,201.1 681.1,251.7 704.9,253.1 728.7,228.0 752.5,225.6 776.3,306.2 800.1,312.1 823.9,312.2 847.7,309.2 871.5,359.6 895.3,388.6" stroke="#000" stroke-width="5.40" stroke-opacity="1.00" fill="none" clip-path="url(#axis_clip)"/>
<g class="pl" fill="#FFF" stroke="#000" stroke-width="0.900">
  <circle cx="181.3" cy="283.6" r="2.2" />
  <circle cx="205.1" cy="294.2" r="2.2" />
  <circle cx="228.9" cy="292.5" r="2.2" />
  <circle cx="252.7" cy="294.4" r="2.2" />
  <circle cx="276.5" cy="283.9" r="2.2" />
  <circle cx="300.3" cy="272.9" r="2.2" />
  <circle cx="324.1" cy="274.7" r="2.2" />
  <circle cx="347.9" cy="290.8" r="2.2" />
  <circle cx="371.7" cy="301.1" r="2.2" />
  <circle cx="419.3" cy="319.6" r="2.2" />
  <circle cx="443.1" cy="321.7" r="2.2" />
  <circle cx="466.9" cy="317.6" r="2.2" />
  <circle cx="490.7" cy="313.1" r="2.2" />
  <circle cx="514.5" cy="306.1" r="2.2" />
  <circle cx="538.3" cy="207.6" r="2.2" />
  <circle cx="562.1" cy="199.5" r="2.2" />
  <circle cx="585.9" cy="207.5" r="2.2" />
  <circle cx="609.7" cy="204.7" r="2.2" />
  <circle cx="657.3" cy="201.1" r="2.2" />
  <circle cx="681.1" cy="251.7" r="2.2" />
  <circle cx="704.9" cy="253.1" r="2.2" />
  <circle cx="728.7" cy="228.0" r="2.2" />
  <circle cx="752.5" cy="225.6" r="2.2" />
  <circle cx="776.3" cy="306.2" r="2.2" />
  <circle cx="800.1" cy="312.1" r="2.2" />
  <circle cx="823.9" cy="312.2" r="2.2" />
  <circle cx="847.7" cy="309.2" r="2.2" />
  <circle cx="895.3" cy="388.6" r="2.2" />
</g>
<g class="pl" fill="#FFF" stroke="#000" stroke-width="0.900">
  <circle cx="157.5" cy="288.7" r="5.4" />
  <circle cx="395.5" cy="322.9" r="5.4" />
  <circle cx="633.5" cy="198.8" r="5.4" />
  <circle cx="871.5" cy="359.6" r="5.4" />
</g>
<text transform="translate(145.6,47.2)" dy="0.0" font-size="27.00" fill="#808080" stroke="none">Annual LULUCF emissions: Paraguay</text>
<text transform="translate(130.0,81.6)" dy="8.1" font-size="27.00" fill="#808080" stroke="none" text-anchor="end">CO<tspan dy="0.2em"><tspan style="font-size:70%">2</tspan></tspan><tspan dy="-0.2em">e</tspan></text>
<text transform="translate(945.6,352.9)" dy="6.5" font-size="21.60" fill="#D95319" stroke="none">Grassland</text>
<text transform="translate(945.6,332.2)" dy="6.5" font-size="21.60" fill="#EDB120" stroke="none">Wetlands</text>
<text transform="translate(945.6,311.4)" dy="6.5" font-size="21.60" fill="#808080" stroke="none">Settlements</text>
<text transform="translate(945.6,290.7)" dy="6.5" font-size="21.60" fill="#7B417F" stroke="none">Other land</text>
<text transform="translate(945.6,270.0)" dy="6.5" font-size="21.60" fill="#8B1E40" stroke="none">HWP</text>
<text transform="translate(945.6,249.3)" dy="6.5" font-size="21.60" fill="#1A4D1A" stroke="none">Other</text>
<text transform="translate(945.6,457.3)" dy="6.5" font-size="21.60" fill="#6AB561" stroke="none">Forest land</text>
<text transform="translate(945.6,506.7)" dy="6.5" font-size="21.60" fill="#5AA3D0" stroke="none">Cropland</text>
<polyline class="pl" points="910.8,351.4 912.4,351.4 913.8,351.4 915.2,351.5 916.4,351.5 917.6,351.5 918.8,351.6 919.8,351.6 920.8,351.7 921.7,351.8 922.7,351.8 923.5,351.9 924.4,352.0 925.2,352.0 926.0,352.1 926.8,352.2 927.6,352.3 928.4,352.3 929.3,352.4 930.1,352.5 931.1,352.6 932.0,352.6 933.0,352.7 934.0,352.7 935.2,352.8 936.4,352.8 937.6,352.8 939.0,352.9 940.4,352.9 942.0,352.9" stroke="#D95319" stroke-width="0.90" stroke-opacity="1.00" fill="none" />
<polyline class="pl" points="910.8,293.4 912.4,293.5 913.8,293.9 915.2,294.5 916.4,295.4 917.6,296.4 918.8,297.7 919.8,299.1 920.8,300.6 921.7,302.3 922.7,304.0 923.5,305.9 924.4,307.8 925.2,309.8 926.0,311.8 926.8,313.8 927.6,315.8 928.4,317.7 929.3,319.7 930.1,321.5 931.1,323.3 932.0,324.9 933.0,326.5 934.0,327.9 935.2,329.1 936.4,330.2 937.6,331.0 939.0,331.6 940.4,332.0 942.0,332.2" stroke="#EDB120" stroke-width="0.90" stroke-opacity="1.00" fill="none" />
<polyline class="pl" points="910.8,292.1 912.4,292.1 913.8,292.3 915.2,292.7 916.4,293.1 917.6,293.6 918.8,294.2 919.8,294.9 920.8,295.7 921.7,296.5 922.7,297.4 923.5,298.3 924.4,299.3 925.2,300.3 926.0,301.3 926.8,302.3 927.6,303.3 928.4,304.2 929.3,305.2 930.1,306.1 931.1,307.0 932.0,307.8 933.0,308.6 934.0,309.3 935.2,309.9 936.4,310.4 937.6,310.9 939.0,311.2 940.4,311.4 942.0,311.4" stroke="#808080" stroke-width="0.90" stroke-opacity="1.00" fill="none" />
<polyline class="pl" points="910.8,290.2 912.4,290.2 913.8,290.2 915.2,290.3 916.4,290.3 917.6,290.3 918.8,290.3 919.8,290.3 920.8,290.3 921.7,290.3 922.7,290.4 923.5,290.4 924.4,290.4 925.2,290.4 926.0,290.5 926.8,290.5 927.6,290.5 928.4,290.5 929.3,290.6 930.1,290.6 931.1,290.6 932.0,290.6 933.0,290.6 934.0,290.7 935.2,290.7 936.4,290.7 937.6,290.7 939.0,290.7 940.4,290.7 942.0,290.7" stroke="#7B417F" stroke-width="0.90" stroke-opacity="1.00" fill="none" />
<polyline class="pl" points="910.8,289.7 912.4,289.6 913.8,289.4 915.2,289.1 916.4,288.7 917.6,288.1 918.8,287.5 919.8,286.8 920.8,286.0 921.7,285.2 922.7,284.3 923.5,283.3 924.4,282.4 925.2,281.4 926.0,280.4 926.8,279.3 927.6,278.3 928.4,277.3 929.3,276.3 930.1,275.4 931.1,274.5 932.0,273.7 933.0,272.9 934.0,272.2 935.2,271.6 936.4,271.0 937.6,270.6 939.0,270.3 940.4,270.1 942.0,270.0" stroke="#8B1E40" stroke-width="0.90" stroke-opacity="1.00" fill="none" />
<polyline class="pl" points="910.8,289.7 912.4,289.6 913.8,289.1 915.2,288.5 916.4,287.6 917.6,286.5 918.8,285.2 919.8,283.8 920.8,282.2 921.7,280.4 922.7,278.6 923.5,276.7 924.4,274.7 925.2,272.6 926.0,270.5 926.8,268.4 927.6,266.4 928.4,264.3 929.3,262.3 930.1,260.4 931.1,258.5 932.0,256.8 933.0,255.2 934.0,253.7 935.2,252.5 936.4,251.4 937.6,250.5 939.0,249.8 940.4,249.4 942.0,249.3" stroke="#1A4D1A" stroke-width="0.90" stroke-opacity="1.00" fill="none" />
<text transform="translate(160.0,666.1)" font-size="19.80" font-family="Helvetica" fill="#BFBFBF" stroke="none" xml:space="preserve">CICERO   &#9679;   Data: UNFCCC (2024)   &#9679;   HWP = Harvested Wood Products</text>
<g>
  <rect x="123.0" y="651.4" width="34" height="17" fill="#FFF" stroke="none" opacity="0.01"/>
  <g transform="translate(124.0,652.4) scale(0.24)">
  <g><circle fill="#FFF" cx="37.79" cy="28.5" r="28.84"/>
     <circle fill="none" cx="37.79" cy="28.5" r="28.84" stroke="#BFBFBF" stroke-width="5.5"/>
     <path fill="#BFBFBF" d="M37.16,23.19 l-4.29,2.23c-0.458-0.951-1.02-1.62-1.69-2c-0.667-0.38-1.29-0.571-1.86-0.571c-2.86,0-4.29,1.89-4.29,5.66 c0,1.71,0.36,3.08,1.09,4.11c0.724,1.03,1.79,1.54,3.2,1.54c1.87,0,3.18-0.915,3.94-2.74l3.94,2 c-0.838,1.56-2,2.79-3.49,3.69c-1.48,0.896-3.12,1.34-4.91,1.34c-2.86,0-5.16-0.875-6.92-2.63 c-1.75-1.75-2.63-4.19-2.63-7.31c0-3.05,0.886-5.47,2.66-7.26c1.77-1.79,4.01-2.69,6.72-2.69 C32.6,18.56,35.44,20.1,37.16,23.19z
              M55.61,23.19l-4.23,2.23c-0.457-0.951-1.02-1.62-1.69-2 c-0.668-0.38-1.31-0.571-1.91-0.571c-2.86,0-4.29,1.89-4.29,5.66c0,1.71,0.363,3.08,1.09,4.11 c0.723,1.03,1.79,1.54,3.2,1.54c1.87,0,3.18-0.915,3.94-2.74l4,2c-0.875,1.56-2.06,2.79-3.54,3.69 c-1.49,0.9-3.11,1.34-4.86,1.34c-2.9,0-5.21-0.875-6.94-2.63c-1.74-1.75-2.6-4.19-2.6-7.31 c0-3.05,0.885-5.47,2.66-7.26c1.77-1.79,4.01-2.69,6.71-2.69C51.12,18.56,53.944,20.1,55.61,23.19z"/>
  </g></g>
  <g transform="translate(140.2,652.4) scale(0.24)">
  <g><circle fill="#FFF" cx="37.79" cy="28.5" r="28.84"/>
     <circle fill="none" cx="37.79" cy="28.5" r="28.84" stroke="#BFBFBF" stroke-width="5.5"/>
     <path fill="#BFBFBF" d="M46.129,20.557v13.085h-3.656v15.542h-9.944V33.643h-3.656V20.557 c0-0.572,0.2-1.057,0.599-1.457c0.401-0.399,0.887-0.6,1.457-0.6h13.144c0.533,0,1.01,0.2,1.428,0.6 C45.918,19.5,46.129,19.986,46.129,20.557z
              M33.042,12.329c0-3.008,1.485-4.514,4.458-4.514s4.457,1.504,4.457,4.514 c0,2.971-1.486,4.457-4.457,4.457S33.042,15.3,33.042,12.329z"/>
  </g></g>
</g>
</g>
</svg>
