<svg version="1.1" xmlns="http://www.w3.org/2000/svg" xmlns:xlink="http://www.w3.org/1999/xlink" width="100%" height="100%" viewBox="0 0 1200.000 674.916">
<title>Annual CH4 Emissions: Belgium</title>
<style type="text/css">
  #main {font-family:Helvetica,Arial,sans-serif; font-size:27.00px;
         fill-opacity:1; fill:#000000; stroke:none; stroke-linejoin:round; stroke-linecap:round; stroke-width:1.00;}
  .marker {stroke-opacity:0;fill-opacity:0;}
  .marker:hover {stroke-opacity:0.5; fill-opacity:1;}
  .ticklabel {font-size:27.00px;fill:#808080;stroke:none;font-family:Helvetica}
  .ytl {text-anchor:end;}
  .dp1 {pointer-events:none;font-size:70%;text-anchor:middle;fill:#000000;}
  .dp2 {pointer-events:none;font-size:70%;text-anchor:middle;fill:#FFFFFF;}
  .numtip {pointer-events:none;}
  .cc {opacity:0.25;}
.dl_fe {background-color:#FDFFDF;display:flex;margin:auto;align-items:center}
.dl_fe_p {font-size:20px;text-align:center;margin:3px}
.dl_el {display:none;pointer-events:none;}
.cc:hover + .dl_el {display:block;}
text:hover + .dl_el {display:block;}
</style>
<defs>
  <clipPath id="axis_clip"><rect x="145.8" y="54.2" width="761.2" height="532.8" /></clipPath>
  <path id="line_y" d="M 0,53.993 v 533.183" stroke="#262626" stroke-opacity="0.15" stroke-width="1.00"/>
  <path id="line_x" d="M 145.600,0 h 761.600" stroke="#262626" stroke-opacity="0.15" stroke-width="1.00"/>
  <path id="tick_y" d="M 145.600,0 h -6.000" stroke="#808080" stroke-width="0.90"/>
  <path id="tick_x" d="M 0,587.177 v 6.000" stroke="#808080" stroke-width="0.90"/>
</defs>
<g id="main">
<use xlink:href="#line_y" transform="translate(156.8,0)"/>
<use xlink:href="#line_y" transform="translate(268.8,0)"/>
<use xlink:href="#line_y" transform="translate(380.8,0)"/>
<use xlink:href="#line_y" transform="translate(492.8,0)"/>
<use xlink:href="#line_y" transform="translate(604.8,0)"/>
<use xlink:href="#line_y" transform="translate(716.8,0)"/>
<use xlink:href="#line_y" transform="translate(828.8,0)"/>
<use xlink:href="#line_y" transform="translate(896.0,0)"/>
<use xlink:href="#line_x" transform="translate(0,587.2)"/>
<use xlink:href="#line_x" transform="translate(0,480.5)"/>
<use xlink:href="#line_x" transform="translate(0,373.9)"/>
<use xlink:href="#line_x" transform="translate(0,267.3)"/>
<use xlink:href="#line_x" transform="translate(0,160.6)"/>
<use xlink:href="#line_x" transform="translate(0,54.0)"/>
<use xlink:href="#tick_y" transform="translate(0,587.2)"/>
<use xlink:href="#tick_y" transform="translate(0,480.5)"/>
<use xlink:href="#tick_y" transform="translate(0,373.9)"/>
<use xlink:href="#tick_y" transform="translate(0,267.3)"/>
<use xlink:href="#tick_y" transform="translate(0,160.6)"/>
<use xlink:href="#tick_y" transform="translate(0,54.0)"/>
<use xlink:href="#tick_x" transform="translate(156.8,0)"/>
<use xlink:href="#tick_x" transform="translate(268.8,0)"/>
<use xlink:href="#tick_x" transform="translate(380.8,0)"/>
<use xlink:href="#tick_x" transform="translate(492.8,0)"/>
<use xlink:href="#tick_x" transform="translate(604.8,0)"/>
<use xlink:href="#tick_x" transform="translate(716.8,0)"/>
<use xlink:href="#tick_x" transform="translate(828.8,0)"/>
<use xlink:href="#tick_x" transform="translate(896.0,0)"/>
<polyline points="145.6,53.993 145.6,587.177 907.2,587.177" stroke="#808080" stroke-width="0.90" fill="none"/>
<text class="ticklabel xtl" transform="translate(156.8,629.0)" text-anchor="middle">1990</text>
<text class="ticklabel xtl" transform="translate(268.8,629.0)" text-anchor="middle">1995</text>
<text class="ticklabel xtl" transform="translate(380.8,629.0)" text-anchor="middle">2000</text>
<text class="ticklabel xtl" transform="translate(492.8,629.0)" text-anchor="middle">2005</text>
<text class="ticklabel xtl" transform="translate(604.8,629.0)" text-anchor="middle">2010</text>
<text class="ticklabel xtl" transform="translate(716.8,629.0)" text-anchor="middle">2015</text>
<text class="ticklabel xtl" transform="translate(828.8,629.0)" text-anchor="middle">2020</text>
<text class="ticklabel xtl" transform="translate(896.0,629.0)" text-anchor="middle">23</text>
<text class="ticklabel ytl" transform="translate(128.8,595.3)">0</text>
<text class="ticklabel ytl" transform="translate(128.8,488.6)">100</text>
<text class="ticklabel ytl" transform="translate(128.8,382.0)">200</text>
<text class="ticklabel ytl" transform="translate(128.8,275.4)">300</text>
<text class="ticklabel ytl" transform="translate(128.8,168.7)">400</text>
<text class="ticklabel ytl" transform="translate(128.8,62.1)">500 kt</text>
<g stroke="#000" stroke-width="0.90" fill="#7FBF7F"  clip-path="url(#axis_clip)">
  <polygon points="147.8,87.8 147.8,87.8 165.8,87.8 165.8,87.8 147.8,87.8"/>
  <polygon points="170.2,88.7 170.2,88.7 188.2,88.7 188.2,88.7 170.2,88.7"/>
  <polygon points="192.6,92.6 192.6,92.6 210.6,92.6 210.6,92.6 192.6,92.6"/>
  <polygon points="215.0,101.8 215.0,101.8 233.0,101.8 233.0,101.8 215.0,101.8"/>
  <polygon points="237.4,100.5 237.4,100.5 255.4,100.5 255.4,100.5 237.4,100.5"/>
  <polygon points="259.8,97.6 259.8,97.6 277.8,97.6 277.8,97.6 259.8,97.6"/>
  <polygon points="282.2,104.5 282.2,104.8 300.2,104.8 300.2,104.5 282.2,104.5"/>
  <polygon points="304.6,110.4 304.6,110.4 322.6,110.4 322.6,110.4 304.6,110.4"/>
  <polygon points="327.0,119.2 327.0,119.2 345.0,119.2 345.0,119.2 327.0,119.2"/>
  <polygon points="349.4,129.8 349.4,129.8 367.4,129.8 367.4,129.8 349.4,129.8"/>
  <polygon points="371.8,146.5 371.8,146.5 389.8,146.5 389.8,146.5 371.8,146.5"/>
  <polygon points="394.2,165.2 394.2,165.2 412.2,165.2 412.2,165.2 394.2,165.2"/>
  <polygon points="416.6,182.5 416.6,182.5 434.6,182.5 434.6,182.5 416.6,182.5"/>
  <polygon points="439.0,204.8 439.0,204.8 457.0,204.8 457.0,204.8 439.0,204.8"/>
  <polygon points="483.8,216.4 483.8,216.4 501.8,216.4 501.8,216.4 483.8,216.4"/>
  <polygon points="506.2,221.0 506.2,221.0 524.2,221.0 524.2,221.0 506.2,221.0"/>
  <polygon points="528.6,224.3 528.6,224.3 546.6,224.3 546.6,224.3 528.6,224.3"/>
  <polygon points="618.2,247.3 618.2,247.4 636.2,247.4 636.2,247.3 618.2,247.3"/>
  <polygon points="842.2,285.5 842.2,285.5 860.2,285.5 860.2,285.5 842.2,285.5"/>
  <polygon points="887.0,298.2 887.0,298.2 905.0,298.2 905.0,298.2 887.0,298.2"/>
</g>
<g stroke="#000" stroke-width="0.90" fill="#DBA746"  clip-path="url(#axis_clip)">
  <polygon points="147.8,87.8 147.8,254.4 165.8,254.4 165.8,87.8 147.8,87.8"/>
  <polygon points="170.2,88.7 170.2,260.9 188.2,260.9 188.2,88.7 170.2,88.7"/>
  <polygon points="192.6,92.6 192.6,269.0 210.6,269.0 210.6,92.6 192.6,92.6"/>
  <polygon points="215.0,101.8 215.0,264.4 233.0,264.4 233.0,101.8 215.0,101.8"/>
  <polygon points="237.4,100.5 237.4,271.1 255.4,271.1 255.4,100.5 237.4,100.5"/>
  <polygon points="259.8,97.6 259.8,267.9 277.8,267.9 277.8,97.6 259.8,97.6"/>
  <polygon points="282.2,104.8 282.2,271.2 300.2,271.2 300.2,104.8 282.2,104.8"/>
  <polygon points="304.6,110.4 304.6,278.1 322.6,278.1 322.6,110.4 304.6,110.4"/>
  <polygon points="327.0,119.2 327.0,281.9 345.0,281.9 345.0,119.2 327.0,119.2"/>
  <polygon points="349.4,129.8 349.4,281.7 367.4,281.7 367.4,129.8 349.4,129.8"/>
  <polygon points="371.8,146.5 371.8,291.7 389.8,291.7 389.8,146.5 371.8,146.5"/>
  <polygon points="394.2,165.2 394.2,293.1 412.2,293.1 412.2,165.2 394.2,165.2"/>
  <polygon points="416.6,182.5 416.6,302.8 434.6,302.8 434.6,182.5 416.6,182.5"/>
  <polygon points="439.0,204.8 439.0,310.9 457.0,310.9 457.0,204.8 439.0,204.8"/>
  <polygon points="461.4,207.2 461.4,312.7 479.4,312.7 479.4,207.2 461.4,207.2"/>
  <polygon points="483.8,216.4 483.8,313.4 501.8,313.4 501.8,216.4 483.8,216.4"/>
  <polygon points="506.2,221.0 506.2,314.9 524.2,314.9 524.2,221.0 506.2,221.0"/>
  <polygon points="528.6,224.3 528.6,310.9 546.6,310.9 546.6,224.3 528.6,224.3"/>
  <polygon points="551.0,230.8 551.0,311.0 569.0,311.0 569.0,230.8 551.0,230.8"/>
  <polygon points="573.4,233.9 573.4,311.2 591.4,311.2 591.4,233.9 573.4,233.9"/>
  <polygon points="595.8,235.3 595.8,305.2 613.8,305.2 613.8,235.3 595.8,235.3"/>
  <polygon points="618.2,247.4 618.2,314.8 636.2,314.8 636.2,247.4 618.2,247.4"/>
  <polygon points="640.6,248.9 640.6,313.2 658.6,313.2 658.6,248.9 640.6,248.9"/>
  <polygon points="663.0,255.2 663.0,312.9 681.0,312.9 681.0,255.2 663.0,255.2"/>
  <polygon points="685.4,261.7 685.4,316.0 703.4,316.0 703.4,261.7 685.4,261.7"/>
  <polygon points="707.8,262.0 707.8,311.1 725.8,311.1 725.8,262.0 707.8,262.0"/>
  <polygon points="730.2,264.0 730.2,310.2 748.2,310.2 748.2,264.0 730.2,264.0"/>
  <polygon points="752.6,270.8 752.6,315.5 770.6,315.5 770.6,270.8 752.6,270.8"/>
  <polygon points="775.0,274.2 775.0,315.4 793.0,315.4 793.0,274.2 775.0,274.2"/>
  <polygon points="797.4,277.5 797.4,316.4 815.4,316.4 815.4,277.5 797.4,277.5"/>
  <polygon points="819.8,282.7 819.8,318.6 837.8,318.6 837.8,282.7 819.8,282.7"/>
  <polygon points="842.2,285.5 842.2,318.5 860.2,318.5 860.2,285.5 842.2,285.5"/>
  <polygon points="864.6,294.6 864.6,326.2 882.6,326.2 882.6,294.6 864.6,294.6"/>
  <polygon points="887.0,298.2 887.0,328.1 905.0,328.1 905.0,298.2 887.0,298.2"/>
</g>
<g stroke="#000" stroke-width="0.90" fill="#845F48"  clip-path="url(#axis_clip)">
  <polygon points="147.8,254.4 147.8,517.5 165.8,517.5 165.8,254.4 147.8,254.4"/>
  <polygon points="170.2,260.9 170.2,522.6 188.2,522.6 188.2,260.9 170.2,260.9"/>
  <polygon points="192.6,269.0 192.6,528.9 210.6,528.9 210.6,269.0 192.6,269.0"/>
  <polygon points="215.0,264.4 215.0,527.6 233.0,527.6 233.0,264.4 215.0,264.4"/>
  <polygon points="237.4,271.1 237.4,534.1 255.4,534.1 255.4,271.1 237.4,271.1"/>
  <polygon points="259.8,267.9 259.8,534.2 277.8,534.2 277.8,267.9 259.8,267.9"/>
  <polygon points="282.2,271.2 282.2,534.0 300.2,534.0 300.2,271.2 282.2,271.2"/>
  <polygon points="304.6,278.1 304.6,537.4 322.6,537.4 322.6,278.1 304.6,278.1"/>
  <polygon points="327.0,281.9 327.0,539.0 345.0,539.0 345.0,281.9 327.0,281.9"/>
  <polygon points="349.4,281.7 349.4,539.4 367.4,539.4 367.4,281.7 349.4,281.7"/>
  <polygon points="371.8,291.7 371.8,540.6 389.8,540.6 389.8,291.7 371.8,291.7"/>
  <polygon points="394.2,293.1 394.2,540.4 412.2,540.4 412.2,293.1 394.2,293.1"/>
  <polygon points="416.6,302.8 416.6,542.4 434.6,542.4 434.6,302.8 416.6,302.8"/>
  <polygon points="439.0,310.9 439.0,542.3 457.0,542.3 457.0,310.9 439.0,310.9"/>
  <polygon points="461.4,312.7 461.4,542.0 479.4,542.0 479.4,312.7 461.4,312.7"/>
  <polygon points="483.8,313.4 483.8,539.9 501.8,539.9 501.8,313.4 483.8,313.4"/>
  <polygon points="506.2,314.9 506.2,539.1 524.2,539.1 524.2,314.9 506.2,314.9"/>
  <polygon points="528.6,310.9 528.6,539.1 546.6,539.1 546.6,310.9 528.6,310.9"/>
  <polygon points="551.0,311.0 551.0,538.4 569.0,538.4 569.0,311.0 551.0,311.0"/>
  <polygon points="573.4,311.2 573.4,539.4 591.4,539.4 591.4,311.2 573.4,311.2"/>
  <polygon points="595.8,305.2 595.8,534.5 613.8,534.5 613.8,305.2 595.8,305.2"/>
  <polygon points="618.2,314.8 618.2,540.4 636.2,540.4 636.2,314.8 618.2,314.8"/>
  <polygon points="640.6,313.2 640.6,540.5 658.6,540.5 658.6,313.2 640.6,313.2"/>
  <polygon points="663.0,312.9 663.0,538.6 681.0,538.6 681.0,312.9 663.0,312.9"/>
  <polygon points="685.4,316.0 685.4,542.5 703.4,542.5 703.4,316.0 685.4,316.0"/>
  <polygon points="707.8,311.1 707.8,539.8 725.8,539.8 725.8,311.1 707.8,311.1"/>
  <polygon points="730.2,310.2 730.2,539.7 748.2,539.7 748.2,310.2 730.2,310.2"/>
  <polygon points="752.6,315.5 752.6,540.6 770.6,540.6 770.6,315.5 752.6,315.5"/>
  <polygon points="775.0,315.4 775.0,541.2 793.0,541.2 793.0,315.4 775.0,315.4"/>
  <polygon points="797.4,316.4 797.4,541.0 815.4,541.0 815.4,316.4 797.4,316.4"/>
  <polygon points="819.8,318.6 819.8,542.8 837.8,542.8 837.8,318.6 819.8,318.6"/>
  <polygon points="842.2,318.5 842.2,541.2 860.2,541.2 860.2,318.5 842.2,318.5"/>
  <polygon points="864.6,326.2 864.6,545.1 882.6,545.1 882.6,326.2 864.6,326.2"/>
  <polygon points="887.0,328.1 887.0,544.5 905.0,544.5 905.0,328.1 887.0,328.1"/>
</g>
<g stroke="#000" stroke-width="0.90" fill="#4A89E8"  clip-path="url(#axis_clip)">
  <polygon points="147.8,517.5 147.8,518.8 165.8,518.8 165.8,517.5 147.8,517.5"/>
  <polygon points="170.2,522.6 170.2,523.9 188.2,523.9 188.2,522.6 170.2,522.6"/>
  <polygon points="192.6,528.9 192.6,530.2 210.6,530.2 210.6,528.9 192.6,528.9"/>
  <polygon points="215.0,527.6 215.0,529.0 233.0,529.0 233.0,527.6 215.0,527.6"/>
  <polygon points="237.4,534.1 237.4,535.6 255.4,535.6 255.4,534.1 237.4,534.1"/>
  <polygon points="259.8,534.2 259.8,535.6 277.8,535.6 277.8,534.2 259.8,534.2"/>
  <polygon points="282.2,534.0 282.2,535.5 300.2,535.5 300.2,534.0 282.2,534.0"/>
  <polygon points="304.6,537.4 304.6,538.9 322.6,538.9 322.6,537.4 304.6,537.4"/>
  <polygon points="327.0,539.0 327.0,540.5 345.0,540.5 345.0,539.0 327.0,539.0"/>
  <polygon points="349.4,539.4 349.4,541.1 367.4,541.1 367.4,539.4 349.4,539.4"/>
  <polygon points="371.8,540.6 371.8,542.3 389.8,542.3 389.8,540.6 371.8,540.6"/>
  <polygon points="394.2,540.4 394.2,542.1 412.2,542.1 412.2,540.4 394.2,540.4"/>
  <polygon points="416.6,542.4 416.6,544.2 434.6,544.2 434.6,542.4 416.6,542.4"/>
  <polygon points="439.0,542.3 439.0,544.2 457.0,544.2 457.0,542.3 439.0,542.3"/>
  <polygon points="461.4,542.0 461.4,544.4 479.4,544.4 479.4,542.0 461.4,542.0"/>
  <polygon points="483.8,539.9 483.8,543.8 501.8,543.8 501.8,539.9 483.8,539.9"/>
  <polygon points="506.2,539.1 506.2,543.6 524.2,543.6 524.2,539.1 506.2,539.1"/>
  <polygon points="528.6,539.1 528.6,543.7 546.6,543.7 546.6,539.1 528.6,539.1"/>
  <polygon points="551.0,538.4 551.0,542.4 569.0,542.4 569.0,538.4 551.0,538.4"/>
  <polygon points="573.4,539.4 573.4,541.1 591.4,541.1 591.4,539.4 573.4,539.4"/>
  <polygon points="595.8,534.5 595.8,536.3 613.8,536.3 613.8,534.5 595.8,534.5"/>
  <polygon points="618.2,540.4 618.2,541.8 636.2,541.8 636.2,540.4 618.2,540.4"/>
  <polygon points="640.6,540.5 640.6,542.0 658.6,542.0 658.6,540.5 640.6,540.5"/>
  <polygon points="663.0,538.6 663.0,540.2 681.0,540.2 681.0,538.6 663.0,538.6"/>
  <polygon points="685.4,542.5 685.4,544.5 703.4,544.5 703.4,542.5 685.4,542.5"/>
  <polygon points="707.8,539.8 707.8,541.4 725.8,541.4 725.8,539.8 707.8,539.8"/>
  <polygon points="730.2,539.7 730.2,541.6 748.2,541.6 748.2,539.7 730.2,539.7"/>
  <polygon points="752.6,540.6 752.6,542.3 770.6,542.3 770.6,540.6 752.6,540.6"/>
  <polygon points="775.0,541.2 775.0,542.9 793.0,542.9 793.0,541.2 775.0,541.2"/>
  <polygon points="797.4,541.0 797.4,542.4 815.4,542.4 815.4,541.0 797.4,541.0"/>
  <polygon points="819.8,542.8 819.8,543.9 837.8,543.9 837.8,542.8 819.8,542.8"/>
  <polygon points="842.2,541.2 842.2,542.1 860.2,542.1 860.2,541.2 842.2,541.2"/>
  <polygon points="864.6,545.1 864.6,546.2 882.6,546.2 882.6,545.1 864.6,545.1"/>
  <polygon points="887.0,544.5 887.0,545.2 905.0,545.2 905.0,544.5 887.0,544.5"/>
</g>
<g stroke="#000" stroke-width="0.90" fill="#FF7F61"  clip-path="url(#axis_clip)">
  <polygon points="147.8,518.8 147.8,587.2 165.8,587.2 165.8,518.8 147.8,518.8"/>
  <polygon points="170.2,523.9 170.2,587.2 188.2,587.2 188.2,523.9 170.2,523.9"/>
  <polygon points="192.6,530.2 192.6,587.2 210.6,587.2 210.6,530.2 192.6,530.2"/>
  <polygon points="215.0,529.0 215.0,587.2 233.0,587.2 233.0,529.0 215.0,529.0"/>
  <polygon points="237.4,535.6 237.4,587.2 255.4,587.2 255.4,535.6 237.4,535.6"/>
  <polygon points="259.8,535.6 259.8,587.2 277.8,587.2 277.8,535.6 259.8,535.6"/>
  <polygon points="282.2,535.5 282.2,587.2 300.2,587.2 300.2,535.5 282.2,535.5"/>
  <polygon points="304.6,538.9 304.6,587.2 322.6,587.2 322.6,538.9 304.6,538.9"/>
  <polygon points="327.0,540.5 327.0,587.2 345.0,587.2 345.0,540.5 327.0,540.5"/>
  <polygon points="349.4,541.1 349.4,587.2 367.4,587.2 367.4,541.1 349.4,541.1"/>
  <polygon points="371.8,542.3 371.8,587.2 389.8,587.2 389.8,542.3 371.8,542.3"/>
  <polygon points="394.2,542.1 394.2,587.2 412.2,587.2 412.2,542.1 394.2,542.1"/>
  <polygon points="416.6,544.2 416.6,587.2 434.6,587.2 434.6,544.2 416.6,544.2"/>
  <polygon points="439.0,544.2 439.0,587.2 457.0,587.2 457.0,544.2 439.0,544.2"/>
  <polygon points="461.4,544.4 461.4,587.2 479.4,587.2 479.4,544.4 461.4,544.4"/>
  <polygon points="483.8,543.8 483.8,587.2 501.8,587.2 501.8,543.8 483.8,543.8"/>
  <polygon points="506.2,543.6 506.2,587.2 524.2,587.2 524.2,543.6 506.2,543.6"/>
  <polygon points="528.6,543.7 528.6,587.2 546.6,587.2 546.6,543.7 528.6,543.7"/>
  <polygon points="551.0,542.4 551.0,587.2 569.0,587.2 569.0,542.4 551.0,542.4"/>
  <polygon points="573.4,541.1 573.4,587.2 591.4,587.2 591.4,541.1 573.4,541.1"/>
  <polygon points="595.8,536.3 595.8,587.2 613.8,587.2 613.8,536.3 595.8,536.3"/>
  <polygon points="618.2,541.8 618.2,587.2 636.2,587.2 636.2,541.8 618.2,541.8"/>
  <polygon points="640.6,542.0 640.6,587.2 658.6,587.2 658.6,542.0 640.6,542.0"/>
  <polygon points="663.0,540.2 663.0,587.2 681.0,587.2 681.0,540.2 663.0,540.2"/>
  <polygon points="685.4,544.5 685.4,587.2 703.4,587.2 703.4,544.5 685.4,544.5"/>
  <polygon points="707.8,541.4 707.8,587.2 725.8,587.2 725.8,541.4 707.8,541.4"/>
  <polygon points="730.2,541.6 730.2,587.2 748.2,587.2 748.2,541.6 730.2,541.6"/>
  <polygon points="752.6,542.3 752.6,587.2 770.6,587.2 770.6,542.3 752.6,542.3"/>
  <polygon points="775.0,542.9 775.0,587.2 793.0,587.2 793.0,542.9 775.0,542.9"/>
  <polygon points="797.4,542.4 797.4,587.2 815.4,587.2 815.4,542.4 797.4,542.4"/>
  <polygon points="819.8,543.9 819.8,587.2 837.8,587.2 837.8,543.9 819.8,543.9"/>
  <polygon points="842.2,542.1 842.2,587.2 860.2,587.2 860.2,542.1 842.2,542.1"/>
  <polygon points="864.6,546.2 864.6,587.2 882.6,587.2 882.6,546.2 864.6,546.2"/>
  <polygon points="887.0,545.2 887.0,587.2 905.0,587.2 905.0,545.2 887.0,545.2"/>
</g>
<polyline class="pl" points="156.8,87.8 179.2,88.7 201.6,92.6 224.0,101.8 246.4,100.5 268.8,97.6 291.2,104.5 313.6,110.4 336.0,119.2 358.4,129.8 380.8,146.5 403.2,165.2 425.6,182.5 448.0,204.8 470.4,207.2 492.8,216.4 515.2,221.0 537.6,224.3 560.0,230.8 582.4,233.9 604.8,235.3 627.2,247.3 649.6,248.9 672.0,255.2 694.4,261.7 716.8,262.0 739.2,264.0 761.6,270.8 784.0,274.2 806.4,277.5 828.8,282.7 851.2,285.5 873.6,294.6 896.0,298.2" stroke="#000" stroke-width="5.40" stroke-opacity="1.00" fill="none" clip-path="url(#axis_clip)"/>
<g class="pl" fill="#FFF" stroke="#000" stroke-width="0.900">
  <circle cx="179.2" cy="88.7" r="2.2" />
  <circle cx="201.6" cy="92.6" r="2.2" />
  <circle cx="224.0" cy="101.8" r="2.2" />
  <circle cx="246.4" cy="100.5" r="2.2" />
  <circle cx="268.8" cy="97.6" r="2.2" />
  <circle cx="291.2" cy="104.5" r="2.2" />
  <circle cx="313.6" cy="110.4" r="2.2" />
  <circle cx="336.0" cy="119.2" r="2.2" />
  <circle cx="358.4" cy="129.8" r="2.2" />
  <circle cx="403.2" cy="165.2" r="2.2" />
  <circle cx="425.6" cy="182.5" r="2.2" />
  <circle cx="448.0" cy="204.8" r="2.2" />
  <circle cx="470.4" cy="207.2" r="2.2" />
  <circle cx="492.8" cy="216.4" r="2.2" />
  <circle cx="515.2" cy="221.0" r="2.2" />
  <circle cx="537.6" cy="224.3" r="2.2" />
  <circle cx="560.0" cy="230.8" r="2.2" />
  <circle cx="582.4" cy="233.9" r="2.2" />
  <circle cx="627.2" cy="247.3" r="2.2" />
  <circle cx="649.6" cy="248.9" r="2.2" />
  <circle cx="672.0" cy="255.2" r="2.2" />
  <circle cx="694.4" cy="261.7" r="2.2" />
  <circle cx="716.8" cy="262.0" r="2.2" />
  <circle cx="739.2" cy="264.0" r="2.2" />
  <circle cx="761.6" cy="270.8" r="2.2" />
  <circle cx="784.0" cy="274.2" r="2.2" />
  <circle cx="806.4" cy="277.5" r="2.2" />
  <circle cx="851.2" cy="285.5" r="2.2" />
  <circle cx="873.6" cy="294.6" r="2.2" />
  <circle cx="896.0" cy="298.2" r="2.2" />
</g>
<g class="pl" fill="#FFF" stroke="#000" stroke-width="0.900">
  <circle cx="156.8" cy="87.8" r="5.4" />
  <circle cx="380.8" cy="146.5" r="5.4" />
  <circle cx="604.8" cy="235.3" r="5.4" />
  <circle cx="828.8" cy="282.7" r="5.4" />
</g>
<text transform="translate(145.6,47.2)" dy="0.0" font-size="27.00" fill="#808080" stroke="none">Annual CH<tspan dy="0.2em"><tspan style="font-size:70%">4</tspan></tspan><tspan dy="-0.2em"> </tspan>Emissions: Belgium</text>
<text transform="translate(130.0,81.6)" dy="8.1" font-size="27.00" fill="#808080" stroke="none" text-anchor="end">CH<tspan dy="0.2em"><tspan style="font-size:70%">4</tspan></tspan><tspan dy="-0.2em"></tspan></text>
<text transform="translate(945.6,278.1)" dy="7.6" font-size="25.20" fill="#000" stroke="none">-42.1% since 1990</text>
<text transform="translate(945.6,568.0)" dy="7.6" font-size="25.20" fill="#FF7F61" stroke="none">Energy</text>
<text transform="translate(945.6,543.0)" dy="7.6" font-size="25.20" fill="#4A89E8" stroke="none">Industrial Processes</text>
<text transform="translate(945.6,436.3)" dy="7.6" font-size="25.20" fill="#845F48" stroke="none">Agriculture</text>
<text transform="translate(945.6,328.2)" dy="7.6" font-size="25.20" fill="#DBA746" stroke="none">Waste</text>
<text transform="translate(945.6,303.2)" dy="7.6" font-size="25.20" fill="#7FBF7F" stroke="none">LULUCF</text>
<polyline class="pl" points="910.8,298.2 912.4,298.1 913.8,297.9 915.2,297.6 916.4,297.1 917.6,296.6 918.8,296.0 919.8,295.2 920.8,294.4 921.7,293.6 922.7,292.7 923.5,291.7 924.4,290.7 925.2,289.7 926.0,288.7 926.8,287.6 927.6,286.6 928.4,285.6 929.3,284.6 930.1,283.6 931.1,282.7 932.0,281.9 933.0,281.1 934.0,280.3 935.2,279.7 936.4,279.2 937.6,278.7 939.0,278.4 940.4,278.2 942.0,278.1" stroke="#000" stroke-width="0.90" stroke-opacity="1.00" fill="none" />
<polyline class="pl" points="910.8,566.2 912.4,566.2 913.8,566.2 915.2,566.3 916.4,566.3 917.6,566.3 918.8,566.4 919.8,566.5 920.8,566.5 921.7,566.6 922.7,566.7 923.5,566.8 924.4,566.9 925.2,567.0 926.0,567.1 926.8,567.2 927.6,567.3 928.4,567.4 929.3,567.5 930.1,567.5 931.1,567.6 932.0,567.7 933.0,567.8 934.0,567.8 935.2,567.9 936.4,568.0 937.6,568.0 939.0,568.0 940.4,568.0 942.0,568.0" stroke="#FF7F61" stroke-width="0.90" stroke-opacity="1.00" fill="none" />
<polyline class="pl" points="910.8,544.9 912.4,544.8 913.8,544.8 915.2,544.8 916.4,544.8 917.6,544.7 918.8,544.6 919.8,544.6 920.8,544.5 921.7,544.4 922.7,544.3 923.5,544.3 924.4,544.2 925.2,544.1 926.0,544.0 926.8,543.9 927.6,543.8 928.4,543.7 929.3,543.6 930.1,543.5 931.1,543.4 932.0,543.4 933.0,543.3 934.0,543.2 935.2,543.2 936.4,543.1 937.6,543.1 939.0,543.0 940.4,543.0 942.0,543.0" stroke="#4A89E8" stroke-width="0.90" stroke-opacity="1.00" fill="none" />
<polyline class="pl" points="910.8,313.2 912.4,313.2 913.8,313.4 915.2,313.6 916.4,313.9 917.6,314.3 918.8,314.8 919.8,315.4 920.8,316.0 921.7,316.6 922.7,317.3 923.5,318.0 924.4,318.8 925.2,319.5 926.0,320.3 926.8,321.1 927.6,321.8 928.4,322.6 929.3,323.4 930.1,324.1 931.1,324.8 932.0,325.4 933.0,326.0 934.0,326.5 935.2,327.0 936.4,327.4 937.6,327.8 939.0,328.0 940.4,328.2 942.0,328.2" stroke="#DBA746" stroke-width="0.90" stroke-opacity="1.00" fill="none" />
<polyline class="pl" points="910.8,298.2 912.4,298.2 913.8,298.2 915.2,298.3 916.4,298.4 917.6,298.6 918.8,298.7 919.8,298.9 920.8,299.1 921.7,299.3 922.7,299.5 923.5,299.8 924.4,300.0 925.2,300.3 926.0,300.5 926.8,300.8 927.6,301.1 928.4,301.3 929.3,301.6 930.1,301.8 931.1,302.0 932.0,302.2 933.0,302.4 934.0,302.6 935.2,302.8 936.4,302.9 937.6,303.0 939.0,303.1 940.4,303.1 942.0,303.2" stroke="#7FBF7F" stroke-width="0.90" stroke-opacity="1.00" fill="none" />
<text transform="translate(160.0,666.1)" font-size="19.80" font-family="Helvetica" fill="#BFBFBF" stroke="none" xml:space="preserve">CICERO   &#9679;   Data: UNFCCC (2025)</text>
<g>
  <rect x="123.0" y="651.4" width="34" height="17" fill="#FFF" stroke="none" opacity="0.01"/>
  <g transform="translate(124.0,652.4) scale(0.24)">
  <g><circle fill="#FFF" cx="37.79" cy="28.5" r="28.84"/>
     <circle fill="none" cx="37.79" cy="28.5" r="28.84" stroke="#BFBFBF" stroke-width="5.5"/>
     <path fill="#BFBFBF" d="M37.16,23.19 l-4.29,2.23c-0.458-0.951-1.02-1.62-1.69-2c-0.667-0.38-1.29-0.571-1.86-0.571c-2.86,0-4.29,1.89-4.29,5.66 c0,1.71,0.36,3.08,1.09,4.11c0.724,1.03,1.79,1.54,3.2,1.54c1.87,0,3.18-0.915,3.94-2.74l3.94,2 c-0.838,1.56-2,2.79-3.49,3.69c-1.48,0.896-3.12,1.34-4.91,1.34c-2.86,0-5.16-0.875-6.92-2.63 c-1.75-1.75-2.63-4.19-2.63-7.31c0-3.05,0.886-5.47,2.66-7.26c1.77-1.79,4.01-2.69,6.72-2.69 C32.6,18.56,35.44,20.1,37.16,23.19z
              M55.61,23.19l-4.23,2.23c-0.457-0.951-1.02-1.62-1.69-2 c-0.668-0.38-1.31-0.571-1.91-0.571c-2.86,0-4.29,1.89-4.29,5.66c0,1.71,0.363,3.08,1.09,4.11 c0.723,1.03,1.79,1.54,3.2,1.54c1.87,0,3.18-0.915,3.94-2.74l4,2c-0.875,1.56-2.06,2.79-3.54,3.69 c-1.49,0.9-3.11,1.34-4.86,1.34c-2.9,0-5.21-0.875-6.94-2.63c-1.74-1.75-2.6-4.19-2.6-7.31 c0-3.05,0.885-5.47,2.66-7.26c1.77-1.79,4.01-2.69,6.71-2.69C51.12,18.56,53.944,20.1,55.61,23.19z"/>
  </g></g>
  <g transform="translate(140.2,652.4) scale(0.24)">
  <g><circle fill="#FFF" cx="37.79" cy="28.5" r="28.84"/>
     <circle fill="none" cx="37.79" cy="28.5" r="28.84" stroke="#BFBFBF" stroke-width="5.5"/>
     <path fill="#BFBFBF" d="M46.129,20.557v13.085h-3.656v15.542h-9.944V33.643h-3.656V20.557 c0-0.572,0.2-1.057,0.599-1.457c0.401-0.399,0.887-0.6,1.457-0.6h13.144c0.533,0,1.01,0.2,1.428,0.6 C45.918,19.5,46.129,19.986,46.129,20.557z
              M33.042,12.329c0-3.008,1.485-4.514,4.458-4.514s4.457,1.504,4.457,4.514 c0,2.971-1.486,4.457-4.457,4.457S33.042,15.3,33.042,12.329z"/>
  </g></g>
</g>
</g>
</svg>
