<svg version="1.1" xmlns="http://www.w3.org/2000/svg" xmlns:xlink="http://www.w3.org/1999/xlink" width="100%" height="100%" viewBox="0 0 1200.000 674.916">
<title>Monthly changes in power generation: Belgium, 2025</title>
<style type="text/css">
  #main {font-family:Helvetica,Arial,sans-serif; font-size:27.00px;
         fill-opacity:1; fill:#000000; stroke:none; stroke-linejoin:round; stroke-linecap:round; stroke-width:1.00;}
  .marker {stroke-opacity:0;fill-opacity:0;}
  .marker:hover {stroke-opacity:0.5; fill-opacity:1;}
  .ticklabel {font-size:27.00px;fill:#808080;stroke:none;font-family:Helvetica}
  .ytl {text-anchor:end;}
  .dp1 {pointer-events:none;font-size:70%;text-anchor:middle;fill:#000000;}
  .dp2 {pointer-events:none;font-size:70%;text-anchor:middle;fill:#FFFFFF;}
  .numtip {pointer-events:none;}
  .cc {opacity:0.25;}
.dl_fe {background-color:#FDFFDF;display:flex;margin:auto;align-items:center}
.dl_fe_p {font-size:20px;text-align:center;margin:3px}
.dl_el {display:none;pointer-events:none;}
.cc:hover + .dl_el {display:block;}
text:hover + .dl_el {display:block;}
</style>
<defs>
  <clipPath id="axis_clip"><rect x="145.8" y="54.2" width="761.2" height="532.8" /></clipPath>
  <path id="line_x" d="M 145.600,0 h 761.600" stroke="#262626" stroke-opacity="0.15" stroke-width="1.00"/>
  <path id="tick_y" d="M 145.600,0 h -6.000" stroke="#808080" stroke-width="0.90"/>
  <path id="tick_x" d="M 0,587.177 v 6.000" stroke="#808080" stroke-width="0.90"/>
</defs>
<g id="main">
<use xlink:href="#line_x" transform="translate(0,587.2)"/>
<use xlink:href="#line_x" transform="translate(0,520.5)"/>
<use xlink:href="#line_x" transform="translate(0,453.9)"/>
<use xlink:href="#line_x" transform="translate(0,387.2)"/>
<use xlink:href="#line_x" transform="translate(0,320.6)"/>
<use xlink:href="#line_x" transform="translate(0,253.9)"/>
<use xlink:href="#line_x" transform="translate(0,187.3)"/>
<use xlink:href="#line_x" transform="translate(0,120.6)"/>
<use xlink:href="#line_x" transform="translate(0,54.0)"/>
<use xlink:href="#tick_y" transform="translate(0,587.2)"/>
<use xlink:href="#tick_y" transform="translate(0,520.5)"/>
<use xlink:href="#tick_y" transform="translate(0,453.9)"/>
<use xlink:href="#tick_y" transform="translate(0,387.2)"/>
<use xlink:href="#tick_y" transform="translate(0,320.6)"/>
<use xlink:href="#tick_y" transform="translate(0,253.9)"/>
<use xlink:href="#tick_y" transform="translate(0,187.3)"/>
<use xlink:href="#tick_y" transform="translate(0,120.6)"/>
<use xlink:href="#tick_y" transform="translate(0,54.0)"/>
<use xlink:href="#tick_x" transform="translate(177.3,0)"/>
<use xlink:href="#tick_x" transform="translate(240.8,0)"/>
<use xlink:href="#tick_x" transform="translate(304.3,0)"/>
<use xlink:href="#tick_x" transform="translate(367.7,0)"/>
<use xlink:href="#tick_x" transform="translate(431.2,0)"/>
<use xlink:href="#tick_x" transform="translate(494.7,0)"/>
<use xlink:href="#tick_x" transform="translate(558.1,0)"/>
<use xlink:href="#tick_x" transform="translate(621.6,0)"/>
<use xlink:href="#tick_x" transform="translate(685.1,0)"/>
<use xlink:href="#tick_x" transform="translate(748.5,0)"/>
<use xlink:href="#tick_x" transform="translate(812.0,0)"/>
<use xlink:href="#tick_x" transform="translate(875.5,0)"/>
<polyline points="145.6,53.993 145.6,587.177 907.2,587.177" stroke="#808080" stroke-width="0.90" fill="none"/>
<text class="ticklabel xtl" transform="translate(177.3,629.0)" text-anchor="middle">Jan</text>
<text class="ticklabel xtl" transform="translate(240.8,629.0)" text-anchor="middle">Feb</text>
<text class="ticklabel xtl" transform="translate(304.3,629.0)" text-anchor="middle">Mar</text>
<text class="ticklabel xtl" transform="translate(367.7,629.0)" text-anchor="middle">Apr</text>
<text class="ticklabel xtl" transform="translate(431.2,629.0)" text-anchor="middle">May</text>
<text class="ticklabel xtl" transform="translate(494.7,629.0)" text-anchor="middle">Jun</text>
<text class="ticklabel xtl" transform="translate(558.1,629.0)" text-anchor="middle">Jul</text>
<text class="ticklabel xtl" transform="translate(621.6,629.0)" text-anchor="middle">Aug</text>
<text class="ticklabel xtl" transform="translate(685.1,629.0)" text-anchor="middle">Sep</text>
<text class="ticklabel xtl" transform="translate(748.5,629.0)" text-anchor="middle">Oct</text>
<text class="ticklabel xtl" transform="translate(812.0,629.0)" text-anchor="middle">Nov</text>
<text class="ticklabel xtl" transform="translate(875.5,629.0)" text-anchor="middle">Dec</text>
<text class="ticklabel ytl" transform="translate(128.8,595.3)">-2.0</text>
<text class="ticklabel ytl" transform="translate(128.8,528.6)">-1.5</text>
<text class="ticklabel ytl" transform="translate(128.8,462.0)">-1.0</text>
<text class="ticklabel ytl" transform="translate(128.8,395.3)">-0.5</text>
<text class="ticklabel ytl" transform="translate(128.8,328.7)">0</text>
<text class="ticklabel ytl" transform="translate(128.8,262.0)">0.5</text>
<text class="ticklabel ytl" transform="translate(128.8,195.4)">1.0</text>
<text class="ticklabel ytl" transform="translate(128.8,128.7)">1.5</text>
<text class="ticklabel ytl" transform="translate(128.8,62.1)">2.0 TWh</text>
<g stroke="#000" stroke-width="0.90" fill="#808080"  clip-path="url(#axis_clip)">
  <polygon class="pl" points="151.9,415.2 151.9,403.2 202.7,403.2 202.7,415.2 151.9,415.2"/>
  <polygon class="pl" points="215.4,115.3 215.4,156.6 266.2,156.6 266.2,115.3 215.4,115.3"/>
  <polygon class="pl" points="278.9,155.3 278.9,192.6 329.7,192.6 329.7,155.3 278.9,155.3"/>
  <polygon class="pl" points="342.3,495.2 342.3,487.2 393.1,487.2 393.1,495.2 342.3,495.2"/>
  <polygon class="pl" points="405.8,449.9 405.8,435.2 456.6,435.2 456.6,449.9 405.8,449.9"/>
  <polygon class="pl" points="469.3,457.9 469.3,445.9 520.1,445.9 520.1,457.9 469.3,457.9"/>
  <polygon class="pl" points="596.2,311.3 596.2,315.3 647.0,315.3 647.0,311.3 596.2,311.3"/>
  <polygon class="pl" points="723.1,199.3 723.1,225.9 773.9,225.9 773.9,199.3 723.1,199.3"/>
  <polygon class="pl" points="786.6,227.3 786.6,241.9 837.4,241.9 837.4,227.3 786.6,227.3"/>
  <polygon class="pl" points="850.1,213.9 850.1,255.3 900.9,255.3 900.9,213.9 850.1,213.9"/>
</g>
<g stroke="#000" stroke-width="0.90" fill="#4DBEEE"  clip-path="url(#axis_clip)">
  <polygon class="pl" points="151.9,403.2 151.9,393.9 202.7,393.9 202.7,403.2 151.9,403.2"/>
  <polygon class="pl" points="215.4,427.2 215.4,395.2 266.2,395.2 266.2,427.2 215.4,427.2"/>
  <polygon class="pl" points="278.9,192.6 278.9,209.9 329.7,209.9 329.7,192.6 278.9,192.6"/>
  <polygon class="pl" points="342.3,487.2 342.3,417.9 393.1,417.9 393.1,487.2 342.3,487.2"/>
  <polygon class="pl" points="405.8,435.2 405.8,331.2 456.6,331.2 456.6,435.2 405.8,435.2"/>
  <polygon class="pl" points="469.3,445.9 469.3,329.9 520.1,329.9 520.1,445.9 469.3,445.9"/>
  <polygon class="pl" points="532.7,521.9 532.7,336.6 583.5,336.6 583.5,521.9 532.7,521.9"/>
  <polygon class="pl" points="596.2,483.2 596.2,351.2 647.0,351.2 647.0,483.2 596.2,483.2"/>
  <polygon class="pl" points="659.7,396.6 659.7,344.6 710.5,344.6 710.5,396.6 659.7,396.6"/>
  <polygon class="pl" points="723.1,415.2 723.1,340.6 773.9,340.6 773.9,415.2 723.1,415.2"/>
  <polygon class="pl" points="786.6,432.6 786.6,393.9 837.4,393.9 837.4,432.6 786.6,432.6"/>
  <polygon class="pl" points="850.1,479.2 850.1,323.3 900.9,323.3 900.9,479.2 850.1,479.2"/>
</g>
<g stroke="#000" stroke-width="0.90" fill="#D95319"  clip-path="url(#axis_clip)">
  <polygon class="pl" points="151.9,311.3 151.9,312.6 202.7,312.6 202.7,311.3 151.9,311.3"/>
  <polygon class="pl" points="215.4,156.6 215.4,159.3 266.2,159.3 266.2,156.6 215.4,156.6"/>
  <polygon class="pl" points="405.8,331.2 405.8,329.9 456.6,329.9 456.6,331.2 405.8,331.2"/>
  <polygon class="pl" points="469.3,255.3 469.3,256.6 520.1,256.6 520.1,255.3 469.3,255.3"/>
  <polygon class="pl" points="532.7,336.6 532.7,335.2 583.5,335.2 583.5,336.6 532.7,336.6"/>
  <polygon class="pl" points="596.2,315.3 596.2,316.6 647.0,316.6 647.0,315.3 596.2,315.3"/>
  <polygon class="pl" points="659.7,245.9 659.7,257.9 710.5,257.9 710.5,245.9 659.7,245.9"/>
  <polygon class="pl" points="723.1,225.9 723.1,231.3 773.9,231.3 773.9,225.9 723.1,225.9"/>
</g>
<g stroke="#000" stroke-width="0.90" fill="#EDB120"  clip-path="url(#axis_clip)">
  <polygon class="pl" points="151.9,393.9 151.9,391.2 202.7,391.2 202.7,393.9 151.9,393.9"/>
  <polygon class="pl" points="215.4,159.3 215.4,190.0 266.2,190.0 266.2,159.3 215.4,159.3"/>
  <polygon class="pl" points="278.9,209.9 278.9,263.3 329.7,263.3 329.7,209.9 278.9,209.9"/>
  <polygon class="pl" points="342.3,217.9 342.3,273.9 393.1,273.9 393.1,217.9 342.3,217.9"/>
  <polygon class="pl" points="405.8,231.3 405.8,275.3 456.6,275.3 456.6,231.3 405.8,231.3"/>
  <polygon class="pl" points="469.3,256.6 469.3,279.3 520.1,279.3 520.1,256.6 469.3,256.6"/>
  <polygon class="pl" points="532.7,275.3 532.7,284.6 583.5,284.6 583.5,275.3 532.7,275.3"/>
  <polygon class="pl" points="596.2,316.6 596.2,320.6 647.0,320.6 647.0,316.6 596.2,316.6"/>
  <polygon class="pl" points="659.7,257.9 659.7,279.3 710.5,279.3 710.5,257.9 659.7,257.9"/>
  <polygon class="pl" points="723.1,340.6 723.1,324.6 773.9,324.6 773.9,340.6 723.1,340.6"/>
  <polygon class="pl" points="786.6,241.9 786.6,256.6 837.4,256.6 837.4,241.9 786.6,241.9"/>
  <polygon class="pl" points="850.1,255.3 850.1,269.9 900.9,269.9 900.9,255.3 850.1,255.3"/>
</g>
<g stroke="#000" stroke-width="0.90" fill="#77AC30"  clip-path="url(#axis_clip)">
  <polygon class="pl" points="151.9,391.2 151.9,320.6 202.7,320.6 202.7,391.2 151.9,391.2"/>
  <polygon class="pl" points="215.4,395.2 215.4,320.6 266.2,320.6 266.2,395.2 215.4,395.2"/>
  <polygon class="pl" points="278.9,376.6 278.9,320.6 329.7,320.6 329.7,376.6 278.9,376.6"/>
  <polygon class="pl" points="342.3,417.9 342.3,323.3 393.1,323.3 393.1,417.9 342.3,417.9"/>
  <polygon class="pl" points="405.8,275.3 405.8,320.6 456.6,320.6 456.6,275.3 405.8,275.3"/>
  <polygon class="pl" points="469.3,279.3 469.3,320.6 520.1,320.6 520.1,279.3 469.3,279.3"/>
  <polygon class="pl" points="532.7,335.2 532.7,323.3 583.5,323.3 583.5,335.2 532.7,335.2"/>
  <polygon class="pl" points="596.2,351.2 596.2,333.9 647.0,333.9 647.0,351.2 596.2,351.2"/>
  <polygon class="pl" points="659.7,279.3 659.7,320.6 710.5,320.6 710.5,279.3 659.7,279.3"/>
  <polygon class="pl" points="723.1,231.3 723.1,289.9 773.9,289.9 773.9,231.3 723.1,231.3"/>
  <polygon class="pl" points="786.6,256.6 786.6,320.6 837.4,320.6 837.4,256.6 786.6,256.6"/>
  <polygon class="pl" points="850.1,269.9 850.1,299.3 900.9,299.3 900.9,269.9 850.1,269.9"/>
</g>
<g stroke="#000" stroke-width="0.90" fill="#0072BD"  clip-path="url(#axis_clip)">
  <polygon class="pl" points="215.4,190.0 215.4,194.0 266.2,194.0 266.2,190.0 215.4,190.0"/>
  <polygon class="pl" points="278.9,263.3 278.9,265.9 329.7,265.9 329.7,263.3 278.9,263.3"/>
  <polygon class="pl" points="342.3,323.3 342.3,320.6 393.1,320.6 393.1,323.3 342.3,323.3"/>
  <polygon class="pl" points="405.8,329.9 405.8,327.2 456.6,327.2 456.6,329.9 405.8,329.9"/>
  <polygon class="pl" points="469.3,329.9 469.3,327.2 520.1,327.2 520.1,329.9 469.3,329.9"/>
  <polygon class="pl" points="532.7,323.3 532.7,320.6 583.5,320.6 583.5,323.3 532.7,323.3"/>
  <polygon class="pl" points="596.2,333.9 596.2,332.6 647.0,332.6 647.0,333.9 596.2,333.9"/>
  <polygon class="pl" points="723.1,324.6 723.1,320.6 773.9,320.6 773.9,324.6 723.1,324.6"/>
  <polygon class="pl" points="786.6,393.9 786.6,391.2 837.4,391.2 837.4,393.9 786.6,393.9"/>
  <polygon class="pl" points="850.1,323.3 850.1,320.6 900.9,320.6 900.9,323.3 850.1,323.3"/>
</g>
<g stroke="#000" stroke-width="0.90" fill="#7E2F8E"  clip-path="url(#axis_clip)">
  <polygon class="pl" points="151.9,312.6 151.9,320.6 202.7,320.6 202.7,312.6 151.9,312.6"/>
  <polygon class="pl" points="215.4,194.0 215.4,320.6 266.2,320.6 266.2,194.0 215.4,194.0"/>
  <polygon class="pl" points="278.9,265.9 278.9,320.6 329.7,320.6 329.7,265.9 278.9,265.9"/>
  <polygon class="pl" points="342.3,273.9 342.3,320.6 393.1,320.6 393.1,273.9 342.3,273.9"/>
  <polygon class="pl" points="405.8,327.2 405.8,320.6 456.6,320.6 456.6,327.2 405.8,327.2"/>
  <polygon class="pl" points="469.3,327.2 469.3,320.6 520.1,320.6 520.1,327.2 469.3,327.2"/>
  <polygon class="pl" points="532.7,284.6 532.7,320.6 583.5,320.6 583.5,284.6 532.7,284.6"/>
  <polygon class="pl" points="596.2,332.6 596.2,320.6 647.0,320.6 647.0,332.6 596.2,332.6"/>
  <polygon class="pl" points="659.7,344.6 659.7,320.6 710.5,320.6 710.5,344.6 659.7,344.6"/>
  <polygon class="pl" points="723.1,289.9 723.1,320.6 773.9,320.6 773.9,289.9 723.1,289.9"/>
  <polygon class="pl" points="786.6,391.2 786.6,320.6 837.4,320.6 837.4,391.2 786.6,391.2"/>
  <polygon class="pl" points="850.1,299.3 850.1,320.6 900.9,320.6 900.9,299.3 850.1,299.3"/>
</g>
<g stroke="#000" stroke-width="0.90" fill="#7B553E"  clip-path="url(#axis_clip)">
</g>
<text transform="translate(945.6,345.4)" dy="8.1" font-size="27.00" fill="#7B553E" stroke="none">Coal</text>
<text transform="translate(945.6,293.5)" dy="8.1" font-size="27.00" fill="#7E2F8E" stroke="none">Natural gas</text>
<text transform="translate(945.6,371.3)" dy="8.1" font-size="27.00" fill="#0072BD" stroke="none">Hydro</text>
<text transform="translate(945.6,267.6)" dy="8.1" font-size="27.00" fill="#77AC30" stroke="none">Wind</text>
<text transform="translate(945.6,241.7)" dy="8.1" font-size="27.00" fill="#EDB120" stroke="none">Solar</text>
<text transform="translate(945.6,319.4)" dy="8.1" font-size="27.00" fill="#D95319" stroke="none">Other renewables</text>
<text transform="translate(945.6,401.2)" dy="8.1" font-size="27.00" fill="#4DBEEE" stroke="none">Nuclear</text>
<text transform="translate(945.6,215.8)" dy="8.1" font-size="27.00" fill="#808080" stroke="none">Other fossil</text>
<polyline class="pl" points="910.8,320.6 912.4,320.7 913.8,320.9 915.2,321.3 916.4,321.9 917.6,322.5 918.8,323.3 919.8,324.2 920.8,325.2 921.7,326.3 922.7,327.4 923.5,328.6 924.4,329.8 925.2,331.1 926.0,332.3 926.8,333.6 927.6,334.9 928.4,336.1 929.3,337.4 930.1,338.5 931.1,339.7 932.0,340.7 933.0,341.7 934.0,342.6 935.2,343.4 936.4,344.1 937.6,344.6 939.0,345.0 940.4,345.3 942.0,345.4" stroke="#7B553E" stroke-width="0.90" stroke-opacity="1.00" fill="none" />
<polyline class="pl" points="910.8,309.9 912.4,309.9 913.8,309.7 915.2,309.4 916.4,309.1 917.6,308.6 918.8,308.1 919.8,307.5 920.8,306.9 921.7,306.2 922.7,305.4 923.5,304.6 924.4,303.8 925.2,303.0 926.0,302.2 926.8,301.3 927.6,300.5 928.4,299.6 929.3,298.8 930.1,298.0 931.1,297.3 932.0,296.6 933.0,295.9 934.0,295.4 935.2,294.8 936.4,294.4 937.6,294.0 939.0,293.8 940.4,293.6 942.0,293.5" stroke="#7E2F8E" stroke-width="0.90" stroke-opacity="1.00" fill="none" />
<polyline class="pl" points="910.8,321.9 912.4,322.1 913.8,322.6 915.2,323.4 916.4,324.5 917.6,325.8 918.8,327.4 919.8,329.2 920.8,331.1 921.7,333.2 922.7,335.5 923.5,337.8 924.4,340.3 925.2,342.8 926.0,345.3 926.8,347.9 927.6,350.4 928.4,352.9 929.3,355.3 930.1,357.7 931.1,359.9 932.0,362.1 933.0,364.0 934.0,365.8 935.2,367.4 936.4,368.7 937.6,369.8 939.0,370.6 940.4,371.1 942.0,371.3" stroke="#0072BD" stroke-width="0.90" stroke-opacity="1.00" fill="none" />
<polyline class="pl" points="910.8,284.6 912.4,284.5 913.8,284.4 915.2,284.1 916.4,283.7 917.6,283.3 918.8,282.7 919.8,282.1 920.8,281.4 921.7,280.7 922.7,279.9 923.5,279.1 924.4,278.3 925.2,277.4 926.0,276.6 926.8,275.7 927.6,274.8 928.4,273.9 929.3,273.1 930.1,272.3 931.1,271.5 932.0,270.8 933.0,270.1 934.0,269.5 935.2,269.0 936.4,268.5 937.6,268.1 939.0,267.9 940.4,267.7 942.0,267.6" stroke="#77AC30" stroke-width="0.90" stroke-opacity="1.00" fill="none" />
<polyline class="pl" points="910.8,262.6 912.4,262.5 913.8,262.3 915.2,262.0 916.4,261.5 917.6,261.0 918.8,260.3 919.8,259.5 920.8,258.7 921.7,257.8 922.7,256.9 923.5,255.9 924.4,254.8 925.2,253.8 926.0,252.7 926.8,251.6 927.6,250.6 928.4,249.5 929.3,248.5 930.1,247.5 931.1,246.5 932.0,245.6 933.0,244.8 934.0,244.0 935.2,243.4 936.4,242.8 937.6,242.4 939.0,242.0 940.4,241.8 942.0,241.7" stroke="#EDB120" stroke-width="0.90" stroke-opacity="1.00" fill="none" />
<polyline class="pl" points="910.8,320.6 912.4,320.6 913.8,320.6 915.2,320.6 916.4,320.5 917.6,320.5 918.8,320.5 919.8,320.4 920.8,320.4 921.7,320.3 922.7,320.3 923.5,320.2 924.4,320.2 925.2,320.1 926.0,320.0 926.8,320.0 927.6,319.9 928.4,319.9 929.3,319.8 930.1,319.8 931.1,319.7 932.0,319.7 933.0,319.6 934.0,319.6 935.2,319.5 936.4,319.5 937.6,319.5 939.0,319.5 940.4,319.5 942.0,319.4" stroke="#D95319" stroke-width="0.90" stroke-opacity="1.00" fill="none" />
<polyline class="pl" points="910.8,234.6 912.4,234.5 913.8,234.4 915.2,234.0 916.4,233.6 917.6,233.1 918.8,232.5 919.8,231.9 920.8,231.1 921.7,230.3 922.7,229.5 923.5,228.6 924.4,227.6 925.2,226.7 926.0,225.7 926.8,224.7 927.6,223.8 928.4,222.8 929.3,221.9 930.1,221.0 931.1,220.1 932.0,219.3 933.0,218.6 934.0,217.9 935.2,217.3 936.4,216.8 937.6,216.4 939.0,216.1 940.4,215.9 942.0,215.8" stroke="#808080" stroke-width="0.90" stroke-opacity="1.00" fill="none" />
<text transform="translate(145.6,47.2)" dy="0.0" font-size="27.00" fill="#808080" stroke="none">Monthly changes in power generation: Belgium, 2025</text>
<text transform="translate(157.6,666.1)" font-size="19.80" font-family="Helvetica" fill="#BFBFBF" stroke="none" xml:space="preserve">@robbieandrew.bsky.social   &#9679;   Data: Ember</text>
<text class="twitlink" transform="translate(157.6,666.1)" opacity="0" font-size="19.80" fill="#BFBFBF" stroke="none" xml:space="preserve"></text>
  <g class="dl_el" transform="translate(154.6,578.4)">
    <g class="dl_el_balloon">
      <foreignObject x="0" y="0" width="120" height="500">
      <div xmlns="http://www.w3.org/1999/xhtml" class="dl_fe" style="height:60px">
      <p class="dl_fe_p">Find me on BlueSky</p>
      </div>
	    </foreignObject>
      <path stroke="#000" fill="#FDFFDF" d="M0,60H60l5,5l5,-5H120"/>
    </g>
  </g>
<g>
  <rect x="123.0" y="651.4" width="34" height="17" fill="#FFF" stroke="none" opacity="0.01"/>
  <g transform="translate(124.0,652.4) scale(0.24)">
  <g><circle fill="#FFF" cx="37.79" cy="28.5" r="28.84"/>
     <circle fill="none" cx="37.79" cy="28.5" r="28.84" stroke="#BFBFBF" stroke-width="5.5"/>
     <path fill="#BFBFBF" d="M37.16,23.19 l-4.29,2.23c-0.458-0.951-1.02-1.62-1.69-2c-0.667-0.38-1.29-0.571-1.86-0.571c-2.86,0-4.29,1.89-4.29,5.66 c0,1.71,0.36,3.08,1.09,4.11c0.724,1.03,1.79,1.54,3.2,1.54c1.87,0,3.18-0.915,3.94-2.74l3.94,2 c-0.838,1.56-2,2.79-3.49,3.69c-1.48,0.896-3.12,1.34-4.91,1.34c-2.86,0-5.16-0.875-6.92-2.63 c-1.75-1.75-2.63-4.19-2.63-7.31c0-3.05,0.886-5.47,2.66-7.26c1.77-1.79,4.01-2.69,6.72-2.69 C32.6,18.56,35.44,20.1,37.16,23.19z
              M55.61,23.19l-4.23,2.23c-0.457-0.951-1.02-1.62-1.69-2 c-0.668-0.38-1.31-0.571-1.91-0.571c-2.86,0-4.29,1.89-4.29,5.66c0,1.71,0.363,3.08,1.09,4.11 c0.723,1.03,1.79,1.54,3.2,1.54c1.87,0,3.18-0.915,3.94-2.74l4,2c-0.875,1.56-2.06,2.79-3.54,3.69 c-1.49,0.9-3.11,1.34-4.86,1.34c-2.9,0-5.21-0.875-6.94-2.63c-1.74-1.75-2.6-4.19-2.6-7.31 c0-3.05,0.885-5.47,2.66-7.26c1.77-1.79,4.01-2.69,6.71-2.69C51.12,18.56,53.944,20.1,55.61,23.19z"/>
  </g></g>
  <g transform="translate(140.2,652.4) scale(0.24)">
  <g><circle fill="#FFF" cx="37.79" cy="28.5" r="28.84"/>
     <circle fill="none" cx="37.79" cy="28.5" r="28.84" stroke="#BFBFBF" stroke-width="5.5"/>
     <path fill="#BFBFBF" d="M46.129,20.557v13.085h-3.656v15.542h-9.944V33.643h-3.656V20.557 c0-0.572,0.2-1.057,0.599-1.457c0.401-0.399,0.887-0.6,1.457-0.6h13.144c0.533,0,1.01,0.2,1.428,0.6 C45.918,19.5,46.129,19.986,46.129,20.557z
              M33.042,12.329c0-3.008,1.485-4.514,4.458-4.514s4.457,1.504,4.457,4.514 c0,2.971-1.486,4.457-4.457,4.457S33.042,15.3,33.042,12.329z"/>
  </g></g>
</g>
</g>
</svg>
