<svg version="1.1" xmlns="http://www.w3.org/2000/svg" xmlns:xlink="http://www.w3.org/1999/xlink" width="100%" height="100%" viewBox="0 0 1200.000 674.916">
<title>Emissions from road transport: Belgium</title>
<style type="text/css">
  #main {font-family:Helvetica,Arial,sans-serif; font-size:27.00px;
         fill-opacity:1; fill:#000000; stroke:none; stroke-linejoin:round; stroke-linecap:round; stroke-width:1.00;}
  a:hover {text-decoration: underline;}
  .marker {stroke-opacity:0;fill-opacity:0;}
  .marker:hover {stroke-opacity:0.5; fill-opacity:1;}
  .ticklabel {font-size:27.00px;fill:#808080;stroke:none;font-family:Helvetica}
  .ytl {text-anchor:end;}
  .dp1 {pointer-events:none;font-size:70%;text-anchor:middle;fill:#000000;}
  .dp2 {pointer-events:none;font-size:70%;text-anchor:middle;fill:#FFFFFF;}
  .numtip {pointer-events:none;}
  .cc {opacity:0.25;}
.dl_fe {background-color:#FDFFDF;display:flex;margin:auto;align-items:center}
.dl_fe_p {font-size:20px;text-align:center;margin:3px}
.dl_el {display:none;pointer-events:none;}
.cc:hover + .dl_el {display:block;}
text:hover + .dl_el {display:block;}
  #lines .pl {transition: all 0.2s ease;}
  #lines:hover .pl {opacity:0.3;}
  #lines:hover .thick {stroke-width:1;}
  #lines:hover .pl_1:hover .pl {opacity:1;}
  #lines:hover .pl_1:hover .pll {stroke-width:3;}
  #lines:hover .pl_1:hover .pldlm {stroke-width:2;}
  #lines:hover .pl_1:hover .thick {stroke-width:12;}
  #lines:hover .pl_2:hover .pl {opacity:1;}
  #lines:hover .pl_2:hover .pll {stroke-width:3;}
  #lines:hover .pl_2:hover .pldlm {stroke-width:2;}
  #lines:hover .pl_2:hover .thick {stroke-width:12;}
  #lines:hover .pl_3:hover .pl {opacity:1;}
  #lines:hover .pl_3:hover .pll {stroke-width:3;}
  #lines:hover .pl_3:hover .pldlm {stroke-width:2;}
  #lines:hover .pl_3:hover .thick {stroke-width:12;}
</style>
<defs>
  <clipPath id="axis_clip"><rect x="145.8" y="54.2" width="761.2" height="532.8" /></clipPath>
  <path id="line_y" d="M 0,53.993 v 533.183" stroke="#262626" stroke-opacity="0.15" stroke-width="1.00"/>
  <path id="line_x" d="M 145.600,0 h 761.600" stroke="#262626" stroke-opacity="0.15" stroke-width="1.00"/>
  <path id="tick_y" d="M 145.600,0 h -6.000" stroke="#808080" stroke-width="0.90"/>
  <path id="tick_x" d="M 0,587.177 v 6.000" stroke="#808080" stroke-width="0.90"/>
  <symbol id="line_1" viewBox="0 0 1200.000 674.916">
    <polyline class="pl pll" points="145.6,392.9 167.4,394.5 189.1,394.6 210.9,387.2 232.6,384.2 254.4,388.3 276.2,382.5 297.9,374.4 319.7,368.9 341.4,365.2 363.2,357.7 385.0,350.6 406.7,344.2 428.5,336.9 450.2,318.1 472.0,316.5 493.8,307.2 515.5,292.5 537.3,303.1 559.0,323.5 580.8,325.3 602.6,331.7 624.3,341.0 646.1,338.5 667.8,334.2 689.6,315.0 711.4,315.3 733.1,314.8 754.9,308.2 776.6,311.9 798.4,331.2 820.2,327.5 841.9,335.5 863.7,331.2 885.4,325.4" stroke="#7E2F8E" fill="none" clip-path="url(#axis_clip)"/>
  </symbol>
  <symbol id="line_2" viewBox="0 0 1200.000 674.916">
    <polyline class="pl pll" points="145.6,553.9 167.4,551.7 189.1,549.2 210.9,544.5 232.6,541.6 254.4,540.0 276.2,536.8 297.9,533.3 319.7,529.9 341.4,527.1 363.2,523.0 385.0,519.2 406.7,515.9 428.5,512.4 450.2,505.7 472.0,504.0 493.8,499.8 515.5,495.4 537.3,495.1 559.0,496.5 580.8,498.5 602.6,498.9 624.3,498.3 646.1,501.8 667.8,499.5 689.6,491.7 711.4,490.7 733.1,490.6 754.9,489.7 776.6,490.4 798.4,505.2 820.2,481.4 841.9,482.6 863.7,476.9 885.4,470.4" stroke="#D95319" fill="none" clip-path="url(#axis_clip)"/>
  </symbol>
  <symbol id="line_3" viewBox="0 0 1200.000 674.916">
    <polyline class="pl pll" points="145.6,162.3 167.4,157.0 189.1,135.2 210.9,130.8 232.6,121.3 254.4,117.1 276.2,112.2 297.9,115.2 319.7,101.5 341.4,97.8 363.2,97.3 385.0,88.6 406.7,88.1 428.5,80.8 450.2,71.2 472.0,98.1 493.8,91.4 515.5,84.1 537.3,71.1 559.0,72.5 580.8,97.4 602.6,103.0 624.3,119.6 646.1,134.1 667.8,129.6 689.6,102.2 711.4,111.0 733.1,130.6 754.9,133.8 776.6,138.6 798.4,242.8 820.2,197.9 841.9,183.4 863.7,178.7 885.4,182.1" stroke="#0072BD" fill="none" clip-path="url(#axis_clip)"/>
  </symbol>
</defs>
<g id="main">
<use xlink:href="#line_y" transform="translate(145.6,0)"/>
<use xlink:href="#line_y" transform="translate(254.4,0)"/>
<use xlink:href="#line_y" transform="translate(363.2,0)"/>
<use xlink:href="#line_y" transform="translate(472.0,0)"/>
<use xlink:href="#line_y" transform="translate(580.8,0)"/>
<use xlink:href="#line_y" transform="translate(689.6,0)"/>
<use xlink:href="#line_y" transform="translate(798.4,0)"/>
<use xlink:href="#line_y" transform="translate(907.2,0)"/>
<use xlink:href="#line_x" transform="translate(0,587.2)"/>
<use xlink:href="#line_x" transform="translate(0,520.5)"/>
<use xlink:href="#line_x" transform="translate(0,453.9)"/>
<use xlink:href="#line_x" transform="translate(0,387.2)"/>
<use xlink:href="#line_x" transform="translate(0,320.6)"/>
<use xlink:href="#line_x" transform="translate(0,253.9)"/>
<use xlink:href="#line_x" transform="translate(0,187.3)"/>
<use xlink:href="#line_x" transform="translate(0,120.6)"/>
<use xlink:href="#line_x" transform="translate(0,54.0)"/>
<use xlink:href="#tick_y" transform="translate(0,587.2)"/>
<use xlink:href="#tick_y" transform="translate(0,520.5)"/>
<use xlink:href="#tick_y" transform="translate(0,453.9)"/>
<use xlink:href="#tick_y" transform="translate(0,387.2)"/>
<use xlink:href="#tick_y" transform="translate(0,320.6)"/>
<use xlink:href="#tick_y" transform="translate(0,253.9)"/>
<use xlink:href="#tick_y" transform="translate(0,187.3)"/>
<use xlink:href="#tick_y" transform="translate(0,120.6)"/>
<use xlink:href="#tick_y" transform="translate(0,54.0)"/>
<use xlink:href="#tick_x" transform="translate(145.6,0)"/>
<use xlink:href="#tick_x" transform="translate(254.4,0)"/>
<use xlink:href="#tick_x" transform="translate(363.2,0)"/>
<use xlink:href="#tick_x" transform="translate(472.0,0)"/>
<use xlink:href="#tick_x" transform="translate(580.8,0)"/>
<use xlink:href="#tick_x" transform="translate(689.6,0)"/>
<use xlink:href="#tick_x" transform="translate(798.4,0)"/>
<use xlink:href="#tick_x" transform="translate(907.2,0)"/>
<polyline points="145.6,53.993 145.6,587.177 907.2,587.177" stroke="#808080" stroke-width="0.90" fill="none"/>
<text class="ticklabel xtl" transform="translate(145.6,629.0)" text-anchor="middle">1990</text>
<text class="ticklabel xtl" transform="translate(254.4,629.0)" text-anchor="middle">1995</text>
<text class="ticklabel xtl" transform="translate(363.2,629.0)" text-anchor="middle">2000</text>
<text class="ticklabel xtl" transform="translate(472.0,629.0)" text-anchor="middle">2005</text>
<text class="ticklabel xtl" transform="translate(580.8,629.0)" text-anchor="middle">2010</text>
<text class="ticklabel xtl" transform="translate(689.6,629.0)" text-anchor="middle">2015</text>
<text class="ticklabel xtl" transform="translate(798.4,629.0)" text-anchor="middle">2020</text>
<text class="ticklabel xtl" transform="translate(907.2,629.0)" text-anchor="middle">2025</text>
<text class="ticklabel ytl" transform="translate(128.8,595.3)">0</text>
<text class="ticklabel ytl" transform="translate(128.8,528.6)">2</text>
<text class="ticklabel ytl" transform="translate(128.8,462.0)">4</text>
<text class="ticklabel ytl" transform="translate(128.8,395.3)">6</text>
<text class="ticklabel ytl" transform="translate(128.8,328.7)">8</text>
<text class="ticklabel ytl" transform="translate(128.8,262.0)">10</text>
<text class="ticklabel ytl" transform="translate(128.8,195.4)">12</text>
<text class="ticklabel ytl" transform="translate(128.8,128.7)">14</text>
<text class="ticklabel ytl" transform="translate(128.8,62.1)">16 Mt</text>
<g id="lines">
  <g class="pl_1">
    <use xlink:href="#line_1" class="thick" stroke="#000" stroke-width="3" opacity="0"/>
    <use xlink:href="#line_1" class="pl pll" stroke="#7E2F8E" stroke-width="1.80"/>
    <text class="pl" transform="translate(925.2,325.4)" dy="6.5" font-size="21.60" fill="#7E2F8E" stroke="none">Heavy-duty trucks/buses</text>
    <g class="pl pll" fill="#7E2F8E" stroke="#7E2F8E" stroke-width="1.800">
      <circle cx="145.6" cy="392.9" r="2.7" />
      <circle cx="167.4" cy="394.5" r="2.7" />
      <circle cx="189.1" cy="394.6" r="2.7" />
      <circle cx="210.9" cy="387.2" r="2.7" />
      <circle cx="232.6" cy="384.2" r="2.7" />
      <circle cx="254.4" cy="388.3" r="2.7" />
      <circle cx="276.2" cy="382.5" r="2.7" />
      <circle cx="297.9" cy="374.4" r="2.7" />
      <circle cx="319.7" cy="368.9" r="2.7" />
      <circle cx="341.4" cy="365.2" r="2.7" />
      <circle cx="363.2" cy="357.7" r="2.7" />
      <circle cx="385.0" cy="350.6" r="2.7" />
      <circle cx="406.7" cy="344.2" r="2.7" />
      <circle cx="428.5" cy="336.9" r="2.7" />
      <circle cx="450.2" cy="318.1" r="2.7" />
      <circle cx="472.0" cy="316.5" r="2.7" />
      <circle cx="493.8" cy="307.2" r="2.7" />
      <circle cx="515.5" cy="292.5" r="2.7" />
      <circle cx="537.3" cy="303.1" r="2.7" />
      <circle cx="559.0" cy="323.5" r="2.7" />
      <circle cx="580.8" cy="325.3" r="2.7" />
      <circle cx="602.6" cy="331.7" r="2.7" />
      <circle cx="624.3" cy="341.0" r="2.7" />
      <circle cx="646.1" cy="338.5" r="2.7" />
      <circle cx="667.8" cy="334.2" r="2.7" />
      <circle cx="689.6" cy="315.0" r="2.7" />
      <circle cx="711.4" cy="315.3" r="2.7" />
      <circle cx="733.1" cy="314.8" r="2.7" />
      <circle cx="754.9" cy="308.2" r="2.7" />
      <circle cx="776.6" cy="311.9" r="2.7" />
      <circle cx="798.4" cy="331.2" r="2.7" />
      <circle cx="820.2" cy="327.5" r="2.7" />
      <circle cx="841.9" cy="335.5" r="2.7" />
      <circle cx="863.7" cy="331.2" r="2.7" />
      <circle cx="885.4" cy="325.4" r="2.7" />
    </g>
  </g>
  <g class="pl_2">
    <use xlink:href="#line_2" class="thick" stroke="#000" stroke-width="3" opacity="0"/>
    <use xlink:href="#line_2" class="pl pll" stroke="#D95319" stroke-width="1.80"/>
    <text class="pl" transform="translate(925.2,470.4)" dy="6.5" font-size="21.60" fill="#D95319" stroke="none">Light-duty trucks</text>
    <g class="pl pll" fill="#D95319" stroke="#D95319" stroke-width="1.800">
      <circle cx="145.6" cy="553.9" r="2.7" />
      <circle cx="167.4" cy="551.7" r="2.7" />
      <circle cx="189.1" cy="549.2" r="2.7" />
      <circle cx="210.9" cy="544.5" r="2.7" />
      <circle cx="232.6" cy="541.6" r="2.7" />
      <circle cx="254.4" cy="540.0" r="2.7" />
      <circle cx="276.2" cy="536.8" r="2.7" />
      <circle cx="297.9" cy="533.3" r="2.7" />
      <circle cx="319.7" cy="529.9" r="2.7" />
      <circle cx="341.4" cy="527.1" r="2.7" />
      <circle cx="363.2" cy="523.0" r="2.7" />
      <circle cx="385.0" cy="519.2" r="2.7" />
      <circle cx="406.7" cy="515.9" r="2.7" />
      <circle cx="428.5" cy="512.4" r="2.7" />
      <circle cx="450.2" cy="505.7" r="2.7" />
      <circle cx="472.0" cy="504.0" r="2.7" />
      <circle cx="493.8" cy="499.8" r="2.7" />
      <circle cx="515.5" cy="495.4" r="2.7" />
      <circle cx="537.3" cy="495.1" r="2.7" />
      <circle cx="559.0" cy="496.5" r="2.7" />
      <circle cx="580.8" cy="498.5" r="2.7" />
      <circle cx="602.6" cy="498.9" r="2.7" />
      <circle cx="624.3" cy="498.3" r="2.7" />
      <circle cx="646.1" cy="501.8" r="2.7" />
      <circle cx="667.8" cy="499.5" r="2.7" />
      <circle cx="689.6" cy="491.7" r="2.7" />
      <circle cx="711.4" cy="490.7" r="2.7" />
      <circle cx="733.1" cy="490.6" r="2.7" />
      <circle cx="754.9" cy="489.7" r="2.7" />
      <circle cx="776.6" cy="490.4" r="2.7" />
      <circle cx="798.4" cy="505.2" r="2.7" />
      <circle cx="820.2" cy="481.4" r="2.7" />
      <circle cx="841.9" cy="482.6" r="2.7" />
      <circle cx="863.7" cy="476.9" r="2.7" />
      <circle cx="885.4" cy="470.4" r="2.7" />
    </g>
  </g>
  <g class="pl_3">
    <use xlink:href="#line_3" class="thick" stroke="#000" stroke-width="3" opacity="0"/>
    <use xlink:href="#line_3" class="pl pll" stroke="#0072BD" stroke-width="1.80"/>
    <text class="pl" transform="translate(925.2,182.1)" dy="6.5" font-size="21.60" fill="#0072BD" stroke="none">Cars</text>
    <g class="pl pll" fill="#0072BD" stroke="#0072BD" stroke-width="1.800">
      <circle cx="145.6" cy="162.3" r="2.7" />
      <circle cx="167.4" cy="157.0" r="2.7" />
      <circle cx="189.1" cy="135.2" r="2.7" />
      <circle cx="210.9" cy="130.8" r="2.7" />
      <circle cx="232.6" cy="121.3" r="2.7" />
      <circle cx="254.4" cy="117.1" r="2.7" />
      <circle cx="276.2" cy="112.2" r="2.7" />
      <circle cx="297.9" cy="115.2" r="2.7" />
      <circle cx="319.7" cy="101.5" r="2.7" />
      <circle cx="341.4" cy="97.8" r="2.7" />
      <circle cx="363.2" cy="97.3" r="2.7" />
      <circle cx="385.0" cy="88.6" r="2.7" />
      <circle cx="406.7" cy="88.1" r="2.7" />
      <circle cx="428.5" cy="80.8" r="2.7" />
      <circle cx="450.2" cy="71.2" r="2.7" />
      <circle cx="472.0" cy="98.1" r="2.7" />
      <circle cx="493.8" cy="91.4" r="2.7" />
      <circle cx="515.5" cy="84.1" r="2.7" />
      <circle cx="537.3" cy="71.1" r="2.7" />
      <circle cx="559.0" cy="72.5" r="2.7" />
      <circle cx="580.8" cy="97.4" r="2.7" />
      <circle cx="602.6" cy="103.0" r="2.7" />
      <circle cx="624.3" cy="119.6" r="2.7" />
      <circle cx="646.1" cy="134.1" r="2.7" />
      <circle cx="667.8" cy="129.6" r="2.7" />
      <circle cx="689.6" cy="102.2" r="2.7" />
      <circle cx="711.4" cy="111.0" r="2.7" />
      <circle cx="733.1" cy="130.6" r="2.7" />
      <circle cx="754.9" cy="133.8" r="2.7" />
      <circle cx="776.6" cy="138.6" r="2.7" />
      <circle cx="798.4" cy="242.8" r="2.7" />
      <circle cx="820.2" cy="197.9" r="2.7" />
      <circle cx="841.9" cy="183.4" r="2.7" />
      <circle cx="863.7" cy="178.7" r="2.7" />
      <circle cx="885.4" cy="182.1" r="2.7" />
    </g>
  </g>
</g>
    <text class="pl" transform="translate(145.6,47.2)" dy="0.0" font-size="27.00" fill="#808080" stroke="none">Emissions from road transport: Belgium</text>
    <text class="pl" transform="translate(130.0,81.7)" dy="8.1" font-size="27.00" fill="#808080" stroke="none" text-anchor="end">CO<tspan dy="0.2em"><tspan style="font-size:70%">2</tspan></tspan><tspan dy="-0.2em"></tspan></text>
<text transform="translate(160.0,666.1)" font-size="19.80" font-family="Helvetica" fill="#BFBFBF" stroke="none" xml:space="preserve">CICERO   &#9679;   Data: EEA (2026)   &#9679;   Preliminary data   &#9679;   Data through 2024</text>
<g>
<a href="https://creativecommons.org/licenses/by/4.0/" target="_blank">
  <rect x="123.0" y="651.4" width="34" height="17" fill="#FFF" stroke="none" opacity="0.01"/>
  <g transform="translate(124.0,652.4) scale(0.24)">
  <g><circle fill="#FFF" cx="37.79" cy="28.5" r="28.84"/>
     <circle fill="none" cx="37.79" cy="28.5" r="28.84" stroke="#BFBFBF" stroke-width="5.5"/>
     <path fill="#BFBFBF" d="M37.16,23.19 l-4.29,2.23c-0.458-0.951-1.02-1.62-1.69-2c-0.667-0.38-1.29-0.571-1.86-0.571c-2.86,0-4.29,1.89-4.29,5.66 c0,1.71,0.36,3.08,1.09,4.11c0.724,1.03,1.79,1.54,3.2,1.54c1.87,0,3.18-0.915,3.94-2.74l3.94,2 c-0.838,1.56-2,2.79-3.49,3.69c-1.48,0.896-3.12,1.34-4.91,1.34c-2.86,0-5.16-0.875-6.92-2.63 c-1.75-1.75-2.63-4.19-2.63-7.31c0-3.05,0.886-5.47,2.66-7.26c1.77-1.79,4.01-2.69,6.72-2.69 C32.6,18.56,35.44,20.1,37.16,23.19z
              M55.61,23.19l-4.23,2.23c-0.457-0.951-1.02-1.62-1.69-2 c-0.668-0.38-1.31-0.571-1.91-0.571c-2.86,0-4.29,1.89-4.29,5.66c0,1.71,0.363,3.08,1.09,4.11 c0.723,1.03,1.79,1.54,3.2,1.54c1.87,0,3.18-0.915,3.94-2.74l4,2c-0.875,1.56-2.06,2.79-3.54,3.69 c-1.49,0.9-3.11,1.34-4.86,1.34c-2.9,0-5.21-0.875-6.94-2.63c-1.74-1.75-2.6-4.19-2.6-7.31 c0-3.05,0.885-5.47,2.66-7.26c1.77-1.79,4.01-2.69,6.71-2.69C51.12,18.56,53.944,20.1,55.61,23.19z"/>
  </g></g>
  <g transform="translate(140.2,652.4) scale(0.24)">
  <g><circle fill="#FFF" cx="37.79" cy="28.5" r="28.84"/>
     <circle fill="none" cx="37.79" cy="28.5" r="28.84" stroke="#BFBFBF" stroke-width="5.5"/>
     <path fill="#BFBFBF" d="M46.129,20.557v13.085h-3.656v15.542h-9.944V33.643h-3.656V20.557 c0-0.572,0.2-1.057,0.599-1.457c0.401-0.399,0.887-0.6,1.457-0.6h13.144c0.533,0,1.01,0.2,1.428,0.6 C45.918,19.5,46.129,19.986,46.129,20.557z
              M33.042,12.329c0-3.008,1.485-4.514,4.458-4.514s4.457,1.504,4.457,4.514 c0,2.971-1.486,4.457-4.457,4.457S33.042,15.3,33.042,12.329z"/>
  </g></g>
  </a>
</g>
  <g class="dl_el" transform="translate(69.1,548.4)">
    <g class="dl_el_balloon">
      <foreignObject x="0" y="0" width="250" height="500">
      <div xmlns="http://www.w3.org/1999/xhtml" class="dl_fe" style="height:90px">
      <p class="dl_fe_p">CC-BY: Material may be freely re-used as long as you credit the author</p>
      </div>
	    </foreignObject>
      <path stroke="#000" fill="#FDFFDF" d="M0,90H70l5,5l5,-5H250"/>
    </g>
  </g>
</g>
</svg>
