<svg version="1.1" xmlns="http://www.w3.org/2000/svg" xmlns:xlink="http://www.w3.org/1999/xlink" width="100%" height="100%" viewBox="0 0 1200.000 674.916">
<title>Annual CH4 Emissions: Côte d'Ivoire</title>
<style type="text/css">
  #main {font-family:Helvetica,Arial,sans-serif; font-size:27.00px;
         fill-opacity:1; fill:#000000; stroke:none; stroke-linejoin:round; stroke-linecap:round; stroke-width:1.00;}
  .marker {stroke-opacity:0;fill-opacity:0;}
  .marker:hover {stroke-opacity:0.5; fill-opacity:1;}
  .ticklabel {font-size:27.00px;fill:#808080;stroke:none;font-family:Helvetica}
  .ytl {text-anchor:end;}
  .dp1 {pointer-events:none;font-size:70%;text-anchor:middle;fill:#000000;}
  .dp2 {pointer-events:none;font-size:70%;text-anchor:middle;fill:#FFFFFF;}
  .numtip {pointer-events:none;}
  .cc {opacity:0.25;}
.dl_fe {background-color:#FDFFDF;display:flex;margin:auto;align-items:center}
.dl_fe_p {font-size:20px;text-align:center;margin:3px}
.dl_el {display:none;pointer-events:none;}
.cc:hover + .dl_el {display:block;}
text:hover + .dl_el {display:block;}
</style>
<defs>
  <clipPath id="axis_clip"><rect x="145.8" y="54.2" width="761.2" height="532.8" /></clipPath>
  <path id="line_y" d="M 0,53.993 v 533.183" stroke="#262626" stroke-opacity="0.15" stroke-width="1.00"/>
  <path id="line_x" d="M 145.600,0 h 761.600" stroke="#262626" stroke-opacity="0.15" stroke-width="1.00"/>
  <path id="tick_y" d="M 145.600,0 h -6.000" stroke="#808080" stroke-width="0.90"/>
  <path id="tick_x" d="M 0,587.177 v 6.000" stroke="#808080" stroke-width="0.90"/>
</defs>
<g id="main">
<use xlink:href="#line_y" transform="translate(157.1,0)"/>
<use xlink:href="#line_y" transform="translate(272.5,0)"/>
<use xlink:href="#line_y" transform="translate(387.9,0)"/>
<use xlink:href="#line_y" transform="translate(503.3,0)"/>
<use xlink:href="#line_y" transform="translate(618.7,0)"/>
<use xlink:href="#line_y" transform="translate(734.1,0)"/>
<use xlink:href="#line_y" transform="translate(895.7,0)"/>
<use xlink:href="#line_x" transform="translate(0,587.2)"/>
<use xlink:href="#line_x" transform="translate(0,434.8)"/>
<use xlink:href="#line_x" transform="translate(0,282.5)"/>
<use xlink:href="#line_x" transform="translate(0,130.2)"/>
<use xlink:href="#tick_y" transform="translate(0,587.2)"/>
<use xlink:href="#tick_y" transform="translate(0,434.8)"/>
<use xlink:href="#tick_y" transform="translate(0,282.5)"/>
<use xlink:href="#tick_y" transform="translate(0,130.2)"/>
<use xlink:href="#tick_x" transform="translate(157.1,0)"/>
<use xlink:href="#tick_x" transform="translate(272.5,0)"/>
<use xlink:href="#tick_x" transform="translate(387.9,0)"/>
<use xlink:href="#tick_x" transform="translate(503.3,0)"/>
<use xlink:href="#tick_x" transform="translate(618.7,0)"/>
<use xlink:href="#tick_x" transform="translate(734.1,0)"/>
<use xlink:href="#tick_x" transform="translate(895.7,0)"/>
<polyline points="145.6,53.993 145.6,587.177 907.2,587.177" stroke="#808080" stroke-width="0.90" fill="none"/>
<text class="ticklabel xtl" transform="translate(157.1,629.0)" text-anchor="middle">1990</text>
<text class="ticklabel xtl" transform="translate(272.5,629.0)" text-anchor="middle">1995</text>
<text class="ticklabel xtl" transform="translate(387.9,629.0)" text-anchor="middle">2000</text>
<text class="ticklabel xtl" transform="translate(503.3,629.0)" text-anchor="middle">2005</text>
<text class="ticklabel xtl" transform="translate(618.7,629.0)" text-anchor="middle">2010</text>
<text class="ticklabel xtl" transform="translate(734.1,629.0)" text-anchor="middle">2015</text>
<text class="ticklabel xtl" transform="translate(895.7,629.0)" text-anchor="middle">2022</text>
<text class="ticklabel ytl" transform="translate(128.8,595.3)">0</text>
<text class="ticklabel ytl" transform="translate(128.8,442.9)">100</text>
<text class="ticklabel ytl" transform="translate(128.8,290.6)">200</text>
<text class="ticklabel ytl" transform="translate(128.8,138.3)">300 kt</text>
<g stroke="#000" stroke-width="0.90" fill="#7FBF7F"  clip-path="url(#axis_clip)">
</g>
<g stroke="#000" stroke-width="0.90" fill="#DBA746"  clip-path="url(#axis_clip)">
  <polygon points="147.9,295.0 147.9,342.0 166.4,342.0 166.4,295.0 147.9,295.0"/>
  <polygon points="171.0,278.0 171.0,332.0 189.4,332.0 189.4,278.0 171.0,278.0"/>
  <polygon points="194.1,266.3 194.1,325.9 212.5,325.9 212.5,266.3 194.1,266.3"/>
  <polygon points="217.1,279.2 217.1,343.5 235.6,343.5 235.6,279.2 217.1,279.2"/>
  <polygon points="240.2,255.7 240.2,324.2 258.7,324.2 258.7,255.7 240.2,255.7"/>
  <polygon points="263.3,245.8 263.3,318.2 281.8,318.2 281.8,245.8 263.3,245.8"/>
  <polygon points="286.4,275.4 286.4,351.7 304.8,351.7 304.8,275.4 286.4,275.4"/>
  <polygon points="309.5,269.9 309.5,349.8 327.9,349.8 327.9,269.9 309.5,269.9"/>
  <polygon points="332.5,272.9 332.5,355.9 351.0,355.9 351.0,272.9 332.5,272.9"/>
  <polygon points="355.6,272.9 355.6,360.0 374.1,360.0 374.1,272.9 355.6,272.9"/>
  <polygon points="378.7,265.3 378.7,356.1 397.2,356.1 397.2,265.3 378.7,265.3"/>
  <polygon points="401.8,240.5 401.8,334.4 420.2,334.4 420.2,240.5 401.8,240.5"/>
  <polygon points="424.9,216.8 424.9,313.7 443.3,313.7 443.3,216.8 424.9,216.8"/>
  <polygon points="447.9,216.5 447.9,315.8 466.4,315.8 466.4,216.5 447.9,216.5"/>
  <polygon points="471.0,224.4 471.0,327.3 489.5,327.3 489.5,224.4 471.0,224.4"/>
  <polygon points="494.1,175.5 494.1,281.6 512.6,281.6 512.6,175.5 494.1,175.5"/>
  <polygon points="517.2,176.4 517.2,285.6 535.6,285.6 535.6,176.4 517.2,176.4"/>
  <polygon points="540.2,170.7 540.2,283.4 558.7,283.4 558.7,170.7 540.2,170.7"/>
  <polygon points="563.3,177.5 563.3,293.4 581.8,293.4 581.8,177.5 563.3,177.5"/>
  <polygon points="586.4,182.2 586.4,301.0 604.9,301.0 604.9,182.2 586.4,182.2"/>
  <polygon points="609.5,170.6 609.5,292.9 627.9,292.9 627.9,170.6 609.5,170.6"/>
  <polygon points="632.6,148.0 632.6,273.8 651.0,273.8 651.0,148.0 632.6,148.0"/>
  <polygon points="655.6,210.6 655.6,339.2 674.1,339.2 674.1,210.6 655.6,210.6"/>
  <polygon points="678.7,173.2 678.7,305.1 697.2,305.1 697.2,173.2 678.7,173.2"/>
  <polygon points="701.8,164.6 701.8,300.0 720.3,300.0 720.3,164.6 701.8,164.6"/>
  <polygon points="724.9,154.5 724.9,294.1 743.3,294.1 743.3,154.5 724.9,154.5"/>
  <polygon points="748.0,133.5 748.0,277.5 766.4,277.5 766.4,133.5 748.0,133.5"/>
  <polygon points="771.0,147.7 771.0,297.2 789.5,297.2 789.5,147.7 771.0,147.7"/>
  <polygon points="794.1,110.4 794.1,265.7 812.6,265.7 812.6,110.4 794.1,110.4"/>
  <polygon points="817.2,145.1 817.2,306.2 835.7,306.2 835.7,145.1 817.2,145.1"/>
  <polygon points="840.3,140.4 840.3,306.9 858.7,306.9 858.7,140.4 840.3,140.4"/>
  <polygon points="863.4,126.4 863.4,299.0 881.8,299.0 881.8,126.4 863.4,126.4"/>
  <polygon points="886.4,114.6 886.4,293.0 904.9,293.0 904.9,114.6 886.4,114.6"/>
</g>
<g stroke="#000" stroke-width="0.90" fill="#845F48"  clip-path="url(#axis_clip)">
  <polygon points="147.9,342.0 147.9,548.0 166.4,548.0 166.4,342.0 147.9,342.0"/>
  <polygon points="171.0,332.0 171.0,546.7 189.4,546.7 189.4,332.0 171.0,332.0"/>
  <polygon points="194.1,325.9 194.1,545.4 212.5,545.4 212.5,325.9 194.1,325.9"/>
  <polygon points="217.1,343.5 217.1,544.1 235.6,544.1 235.6,343.5 217.1,343.5"/>
  <polygon points="240.2,324.2 240.2,542.9 258.7,542.9 258.7,324.2 240.2,324.2"/>
  <polygon points="263.3,318.2 263.3,541.6 281.8,541.6 281.8,318.2 263.3,318.2"/>
  <polygon points="286.4,351.7 286.4,540.1 304.8,540.1 304.8,351.7 286.4,351.7"/>
  <polygon points="309.5,349.8 309.5,538.8 327.9,538.8 327.9,349.8 309.5,349.8"/>
  <polygon points="332.5,355.9 332.5,537.8 351.0,537.8 351.0,355.9 332.5,355.9"/>
  <polygon points="355.6,360.0 355.6,536.6 374.1,536.6 374.1,360.0 355.6,360.0"/>
  <polygon points="378.7,356.1 378.7,535.3 397.2,535.3 397.2,356.1 378.7,356.1"/>
  <polygon points="401.8,334.4 401.8,535.0 420.2,535.0 420.2,334.4 401.8,334.4"/>
  <polygon points="424.9,313.7 424.9,533.8 443.3,533.8 443.3,313.7 424.9,313.7"/>
  <polygon points="447.9,315.8 447.9,533.0 466.4,533.0 466.4,315.8 447.9,315.8"/>
  <polygon points="471.0,327.3 471.0,512.2 489.5,512.2 489.5,327.3 471.0,327.3"/>
  <polygon points="494.1,281.6 494.1,510.1 512.6,510.1 512.6,281.6 494.1,281.6"/>
  <polygon points="517.2,285.6 517.2,508.0 535.6,508.0 535.6,285.6 517.2,285.6"/>
  <polygon points="540.2,283.4 540.2,506.0 558.7,506.0 558.7,283.4 540.2,283.4"/>
  <polygon points="563.3,293.4 563.3,506.9 581.8,506.9 581.8,293.4 563.3,293.4"/>
  <polygon points="586.4,301.0 586.4,511.8 604.9,511.8 604.9,301.0 586.4,301.0"/>
  <polygon points="609.5,292.9 609.5,503.6 627.9,503.6 627.9,292.9 609.5,292.9"/>
  <polygon points="632.6,273.8 632.6,489.0 651.0,489.0 651.0,273.8 632.6,273.8"/>
  <polygon points="655.6,339.2 655.6,557.6 674.1,557.6 674.1,339.2 655.6,339.2"/>
  <polygon points="678.7,305.1 678.7,556.5 697.2,556.5 697.2,305.1 678.7,305.1"/>
  <polygon points="701.8,300.0 701.8,561.4 720.3,561.4 720.3,300.0 701.8,300.0"/>
  <polygon points="724.9,294.1 724.9,559.8 743.3,559.8 743.3,294.1 724.9,294.1"/>
  <polygon points="748.0,277.5 748.0,563.5 766.4,563.5 766.4,277.5 748.0,277.5"/>
  <polygon points="771.0,297.2 771.0,563.7 789.5,563.7 789.5,297.2 771.0,297.2"/>
  <polygon points="794.1,265.7 794.1,564.1 812.6,564.1 812.6,265.7 794.1,265.7"/>
  <polygon points="817.2,306.2 817.2,561.3 835.7,561.3 835.7,306.2 817.2,306.2"/>
  <polygon points="840.3,306.9 840.3,561.5 858.7,561.5 858.7,306.9 840.3,306.9"/>
  <polygon points="863.4,299.0 863.4,558.6 881.8,558.6 881.8,299.0 863.4,299.0"/>
  <polygon points="886.4,293.0 886.4,558.8 904.9,558.8 904.9,293.0 886.4,293.0"/>
</g>
<g stroke="#000" stroke-width="0.90" fill="#4A89E8"  clip-path="url(#axis_clip)">
</g>
<g stroke="#000" stroke-width="0.90" fill="#FF7F61"  clip-path="url(#axis_clip)">
  <polygon points="147.9,548.0 147.9,587.2 166.4,587.2 166.4,548.0 147.9,548.0"/>
  <polygon points="171.0,546.7 171.0,587.2 189.4,587.2 189.4,546.7 171.0,546.7"/>
  <polygon points="194.1,545.4 194.1,587.2 212.5,587.2 212.5,545.4 194.1,545.4"/>
  <polygon points="217.1,544.1 217.1,587.2 235.6,587.2 235.6,544.1 217.1,544.1"/>
  <polygon points="240.2,542.9 240.2,587.2 258.7,587.2 258.7,542.9 240.2,542.9"/>
  <polygon points="263.3,541.6 263.3,587.2 281.8,587.2 281.8,541.6 263.3,541.6"/>
  <polygon points="286.4,540.1 286.4,587.2 304.8,587.2 304.8,540.1 286.4,540.1"/>
  <polygon points="309.5,538.8 309.5,587.2 327.9,587.2 327.9,538.8 309.5,538.8"/>
  <polygon points="332.5,537.8 332.5,587.2 351.0,587.2 351.0,537.8 332.5,537.8"/>
  <polygon points="355.6,536.6 355.6,587.2 374.1,587.2 374.1,536.6 355.6,536.6"/>
  <polygon points="378.7,535.3 378.7,587.2 397.2,587.2 397.2,535.3 378.7,535.3"/>
  <polygon points="401.8,535.0 401.8,587.2 420.2,587.2 420.2,535.0 401.8,535.0"/>
  <polygon points="424.9,533.8 424.9,587.2 443.3,587.2 443.3,533.8 424.9,533.8"/>
  <polygon points="447.9,533.0 447.9,587.2 466.4,587.2 466.4,533.0 447.9,533.0"/>
  <polygon points="471.0,512.2 471.0,587.2 489.5,587.2 489.5,512.2 471.0,512.2"/>
  <polygon points="494.1,510.1 494.1,587.2 512.6,587.2 512.6,510.1 494.1,510.1"/>
  <polygon points="517.2,508.0 517.2,587.2 535.6,587.2 535.6,508.0 517.2,508.0"/>
  <polygon points="540.2,506.0 540.2,587.2 558.7,587.2 558.7,506.0 540.2,506.0"/>
  <polygon points="563.3,506.9 563.3,587.2 581.8,587.2 581.8,506.9 563.3,506.9"/>
  <polygon points="586.4,511.8 586.4,587.2 604.9,587.2 604.9,511.8 586.4,511.8"/>
  <polygon points="609.5,503.6 609.5,587.2 627.9,587.2 627.9,503.6 609.5,503.6"/>
  <polygon points="632.6,489.0 632.6,587.2 651.0,587.2 651.0,489.0 632.6,489.0"/>
  <polygon points="655.6,557.6 655.6,587.2 674.1,587.2 674.1,557.6 655.6,557.6"/>
  <polygon points="678.7,556.5 678.7,587.2 697.2,587.2 697.2,556.5 678.7,556.5"/>
  <polygon points="701.8,561.4 701.8,587.2 720.3,587.2 720.3,561.4 701.8,561.4"/>
  <polygon points="724.9,559.8 724.9,587.2 743.3,587.2 743.3,559.8 724.9,559.8"/>
  <polygon points="748.0,563.5 748.0,587.2 766.4,587.2 766.4,563.5 748.0,563.5"/>
  <polygon points="771.0,563.7 771.0,587.2 789.5,587.2 789.5,563.7 771.0,563.7"/>
  <polygon points="794.1,564.1 794.1,587.2 812.6,587.2 812.6,564.1 794.1,564.1"/>
  <polygon points="817.2,561.3 817.2,587.2 835.7,587.2 835.7,561.3 817.2,561.3"/>
  <polygon points="840.3,561.5 840.3,587.2 858.7,587.2 858.7,561.5 840.3,561.5"/>
  <polygon points="863.4,558.6 863.4,587.2 881.8,587.2 881.8,558.6 863.4,558.6"/>
  <polygon points="886.4,558.8 886.4,587.2 904.9,587.2 904.9,558.8 886.4,558.8"/>
</g>
<polyline class="pl" points="157.1,295.0 180.2,278.0 203.3,266.3 226.4,279.2 249.5,255.7 272.5,245.8 295.6,275.4 318.7,269.9 341.8,272.9 364.8,272.9 387.9,265.3 411.0,240.5 434.1,216.8 457.2,216.5 480.2,224.4 503.3,175.5 526.4,176.4 549.5,170.7 572.6,177.5 595.6,182.2 618.7,170.6 641.8,148.0 664.9,210.6 688.0,173.2 711.0,164.6 734.1,154.5 757.2,133.5 780.3,147.7 803.3,110.4 826.4,145.1 849.5,140.4 872.6,126.4 895.7,114.6" stroke="#000" stroke-width="5.40" stroke-opacity="1.00" fill="none" clip-path="url(#axis_clip)"/>
<g class="pl" fill="#FFF" stroke="#000" stroke-width="0.900">
  <circle cx="180.2" cy="278.0" r="2.2" />
  <circle cx="203.3" cy="266.3" r="2.2" />
  <circle cx="226.4" cy="279.2" r="2.2" />
  <circle cx="249.5" cy="255.7" r="2.2" />
  <circle cx="272.5" cy="245.8" r="2.2" />
  <circle cx="295.6" cy="275.4" r="2.2" />
  <circle cx="318.7" cy="269.9" r="2.2" />
  <circle cx="341.8" cy="272.9" r="2.2" />
  <circle cx="364.8" cy="272.9" r="2.2" />
  <circle cx="411.0" cy="240.5" r="2.2" />
  <circle cx="434.1" cy="216.8" r="2.2" />
  <circle cx="457.2" cy="216.5" r="2.2" />
  <circle cx="480.2" cy="224.4" r="2.2" />
  <circle cx="503.3" cy="175.5" r="2.2" />
  <circle cx="526.4" cy="176.4" r="2.2" />
  <circle cx="549.5" cy="170.7" r="2.2" />
  <circle cx="572.6" cy="177.5" r="2.2" />
  <circle cx="595.6" cy="182.2" r="2.2" />
  <circle cx="641.8" cy="148.0" r="2.2" />
  <circle cx="664.9" cy="210.6" r="2.2" />
  <circle cx="688.0" cy="173.2" r="2.2" />
  <circle cx="711.0" cy="164.6" r="2.2" />
  <circle cx="734.1" cy="154.5" r="2.2" />
  <circle cx="757.2" cy="133.5" r="2.2" />
  <circle cx="780.3" cy="147.7" r="2.2" />
  <circle cx="803.3" cy="110.4" r="2.2" />
  <circle cx="826.4" cy="145.1" r="2.2" />
  <circle cx="872.6" cy="126.4" r="2.2" />
  <circle cx="895.7" cy="114.6" r="2.2" />
</g>
<g class="pl" fill="#FFF" stroke="#000" stroke-width="0.900">
  <circle cx="157.1" cy="295.0" r="5.4" />
  <circle cx="387.9" cy="265.3" r="5.4" />
  <circle cx="618.7" cy="170.6" r="5.4" />
  <circle cx="849.5" cy="140.4" r="5.4" />
</g>
<text transform="translate(145.6,47.2)" dy="0.0" font-size="27.00" fill="#808080" stroke="none">Annual CH<tspan dy="0.2em"><tspan style="font-size:70%">4</tspan></tspan><tspan dy="-0.2em"> </tspan>Emissions: Côte d'Ivoire</text>
<text transform="translate(130.0,157.8)" dy="8.1" font-size="27.00" fill="#808080" stroke="none" text-anchor="end">CH<tspan dy="0.2em"><tspan style="font-size:70%">4</tspan></tspan><tspan dy="-0.2em"></tspan></text>
<text transform="translate(925.2,114.6)" dy="7.6" font-size="25.20" fill="#000" stroke="none">+61.7% since 1990</text>
<text transform="translate(925.2,573.0)" dy="7.6" font-size="25.20" fill="#FF7F61" stroke="none">Energy</text>
<text transform="translate(925.2,425.9)" dy="7.6" font-size="25.20" fill="#845F48" stroke="none">Agriculture</text>
<text transform="translate(925.2,203.8)" dy="7.6" font-size="25.20" fill="#DBA746" stroke="none">Waste</text>
<text transform="translate(160.0,666.1)" font-size="19.80" font-family="Helvetica" fill="#BFBFBF" stroke="none" xml:space="preserve">CICERO   &#9679;   Data: UNFCCC (2024)</text>
<g>
  <rect x="123.0" y="651.4" width="34" height="17" fill="#FFF" stroke="none" opacity="0.01"/>
  <g transform="translate(124.0,652.4) scale(0.24)">
  <g><circle fill="#FFF" cx="37.79" cy="28.5" r="28.84"/>
     <circle fill="none" cx="37.79" cy="28.5" r="28.84" stroke="#BFBFBF" stroke-width="5.5"/>
     <path fill="#BFBFBF" d="M37.16,23.19 l-4.29,2.23c-0.458-0.951-1.02-1.62-1.69-2c-0.667-0.38-1.29-0.571-1.86-0.571c-2.86,0-4.29,1.89-4.29,5.66 c0,1.71,0.36,3.08,1.09,4.11c0.724,1.03,1.79,1.54,3.2,1.54c1.87,0,3.18-0.915,3.94-2.74l3.94,2 c-0.838,1.56-2,2.79-3.49,3.69c-1.48,0.896-3.12,1.34-4.91,1.34c-2.86,0-5.16-0.875-6.92-2.63 c-1.75-1.75-2.63-4.19-2.63-7.31c0-3.05,0.886-5.47,2.66-7.26c1.77-1.79,4.01-2.69,6.72-2.69 C32.6,18.56,35.44,20.1,37.16,23.19z
              M55.61,23.19l-4.23,2.23c-0.457-0.951-1.02-1.62-1.69-2 c-0.668-0.38-1.31-0.571-1.91-0.571c-2.86,0-4.29,1.89-4.29,5.66c0,1.71,0.363,3.08,1.09,4.11 c0.723,1.03,1.79,1.54,3.2,1.54c1.87,0,3.18-0.915,3.94-2.74l4,2c-0.875,1.56-2.06,2.79-3.54,3.69 c-1.49,0.9-3.11,1.34-4.86,1.34c-2.9,0-5.21-0.875-6.94-2.63c-1.74-1.75-2.6-4.19-2.6-7.31 c0-3.05,0.885-5.47,2.66-7.26c1.77-1.79,4.01-2.69,6.71-2.69C51.12,18.56,53.944,20.1,55.61,23.19z"/>
  </g></g>
  <g transform="translate(140.2,652.4) scale(0.24)">
  <g><circle fill="#FFF" cx="37.79" cy="28.5" r="28.84"/>
     <circle fill="none" cx="37.79" cy="28.5" r="28.84" stroke="#BFBFBF" stroke-width="5.5"/>
     <path fill="#BFBFBF" d="M46.129,20.557v13.085h-3.656v15.542h-9.944V33.643h-3.656V20.557 c0-0.572,0.2-1.057,0.599-1.457c0.401-0.399,0.887-0.6,1.457-0.6h13.144c0.533,0,1.01,0.2,1.428,0.6 C45.918,19.5,46.129,19.986,46.129,20.557z
              M33.042,12.329c0-3.008,1.485-4.514,4.458-4.514s4.457,1.504,4.457,4.514 c0,2.971-1.486,4.457-4.457,4.457S33.042,15.3,33.042,12.329z"/>
  </g></g>
</g>
</g>
</svg>
