<svg version="1.1" xmlns="http://www.w3.org/2000/svg" xmlns:xlink="http://www.w3.org/1999/xlink" width="100%" height="100%" viewBox="0 0 1200.000 674.916">
<title>Annual CO2 Emissions: Argentina</title>
<style type="text/css">
  #main {font-family:Helvetica,Arial,sans-serif; font-size:27.00px;
         fill-opacity:1; fill:#000000; stroke:none; stroke-linejoin:round; stroke-linecap:round; stroke-width:1.00;}
  .marker {stroke-opacity:0;fill-opacity:0;}
  .marker:hover {stroke-opacity:0.5; fill-opacity:1;}
  .ticklabel {font-size:27.00px;fill:#808080;stroke:none;font-family:Helvetica}
  .ytl {text-anchor:end;}
  .dp1 {pointer-events:none;font-size:70%;text-anchor:middle;fill:#000000;}
  .dp2 {pointer-events:none;font-size:70%;text-anchor:middle;fill:#FFFFFF;}
  .numtip {pointer-events:none;}
  .cc {opacity:0.25;}
.dl_fe {background-color:#FDFFDF;display:flex;margin:auto;align-items:center}
.dl_fe_p {font-size:20px;text-align:center;margin:3px}
.dl_el {display:none;pointer-events:none;}
.cc:hover + .dl_el {display:block;}
text:hover + .dl_el {display:block;}
</style>
<defs>
  <clipPath id="axis_clip"><rect x="145.8" y="54.2" width="761.2" height="532.8" /></clipPath>
  <path id="line_y" d="M 0,53.993 v 533.183" stroke="#262626" stroke-opacity="0.15" stroke-width="1.00"/>
  <path id="line_x" d="M 145.600,0 h 761.600" stroke="#262626" stroke-opacity="0.15" stroke-width="1.00"/>
  <path id="tick_y" d="M 145.600,0 h -6.000" stroke="#808080" stroke-width="0.90"/>
  <path id="tick_x" d="M 0,587.177 v 6.000" stroke="#808080" stroke-width="0.90"/>
</defs>
<g id="main">
<use xlink:href="#line_y" transform="translate(157.1,0)"/>
<use xlink:href="#line_y" transform="translate(272.5,0)"/>
<use xlink:href="#line_y" transform="translate(387.9,0)"/>
<use xlink:href="#line_y" transform="translate(503.3,0)"/>
<use xlink:href="#line_y" transform="translate(618.7,0)"/>
<use xlink:href="#line_y" transform="translate(734.1,0)"/>
<use xlink:href="#line_y" transform="translate(895.7,0)"/>
<use xlink:href="#line_x" transform="translate(0,587.2)"/>
<use xlink:href="#line_x" transform="translate(0,498.3)"/>
<use xlink:href="#line_x" transform="translate(0,409.4)"/>
<use xlink:href="#line_x" transform="translate(0,320.6)"/>
<use xlink:href="#line_x" transform="translate(0,231.7)"/>
<use xlink:href="#line_x" transform="translate(0,142.9)"/>
<use xlink:href="#line_x" transform="translate(0,54.0)"/>
<use xlink:href="#tick_y" transform="translate(0,587.2)"/>
<use xlink:href="#tick_y" transform="translate(0,498.3)"/>
<use xlink:href="#tick_y" transform="translate(0,409.4)"/>
<use xlink:href="#tick_y" transform="translate(0,320.6)"/>
<use xlink:href="#tick_y" transform="translate(0,231.7)"/>
<use xlink:href="#tick_y" transform="translate(0,142.9)"/>
<use xlink:href="#tick_y" transform="translate(0,54.0)"/>
<use xlink:href="#tick_x" transform="translate(157.1,0)"/>
<use xlink:href="#tick_x" transform="translate(272.5,0)"/>
<use xlink:href="#tick_x" transform="translate(387.9,0)"/>
<use xlink:href="#tick_x" transform="translate(503.3,0)"/>
<use xlink:href="#tick_x" transform="translate(618.7,0)"/>
<use xlink:href="#tick_x" transform="translate(734.1,0)"/>
<use xlink:href="#tick_x" transform="translate(895.7,0)"/>
<polyline points="145.6,53.993 145.6,587.177 907.2,587.177" stroke="#808080" stroke-width="0.90" fill="none"/>
<text class="ticklabel xtl" transform="translate(157.1,629.0)" text-anchor="middle">1990</text>
<text class="ticklabel xtl" transform="translate(272.5,629.0)" text-anchor="middle">1995</text>
<text class="ticklabel xtl" transform="translate(387.9,629.0)" text-anchor="middle">2000</text>
<text class="ticklabel xtl" transform="translate(503.3,629.0)" text-anchor="middle">2005</text>
<text class="ticklabel xtl" transform="translate(618.7,629.0)" text-anchor="middle">2010</text>
<text class="ticklabel xtl" transform="translate(734.1,629.0)" text-anchor="middle">2015</text>
<text class="ticklabel xtl" transform="translate(895.7,629.0)" text-anchor="middle">2022</text>
<text class="ticklabel ytl" transform="translate(128.8,595.3)">0</text>
<text class="ticklabel ytl" transform="translate(128.8,506.4)">50</text>
<text class="ticklabel ytl" transform="translate(128.8,417.5)">100</text>
<text class="ticklabel ytl" transform="translate(128.8,328.7)">150</text>
<text class="ticklabel ytl" transform="translate(128.8,239.8)">200</text>
<text class="ticklabel ytl" transform="translate(128.8,151.0)">250</text>
<text class="ticklabel ytl" transform="translate(128.8,62.1)">300 Mt</text>
<g stroke="#000" stroke-width="0.90" fill="#7FBF7F"  clip-path="url(#axis_clip)">
  <polygon points="147.9,335.3 147.9,414.1 166.4,414.1 166.4,335.3 147.9,335.3"/>
  <polygon points="171.0,286.1 171.0,406.5 189.4,406.5 189.4,286.1 171.0,286.1"/>
  <polygon points="194.1,276.8 194.1,401.3 212.5,401.3 212.5,276.8 194.1,276.8"/>
  <polygon points="217.1,288.1 217.1,399.5 235.6,399.5 235.6,288.1 217.1,288.1"/>
  <polygon points="240.2,272.9 240.2,389.5 258.7,389.5 258.7,272.9 240.2,272.9"/>
  <polygon points="263.3,263.3 263.3,386.7 281.8,386.7 281.8,263.3 263.3,263.3"/>
  <polygon points="286.4,202.5 286.4,359.9 304.8,359.9 304.8,202.5 286.4,202.5"/>
  <polygon points="309.5,208.9 309.5,358.2 327.9,358.2 327.9,208.9 309.5,208.9"/>
  <polygon points="332.5,163.1 332.5,344.9 351.0,344.9 351.0,163.1 332.5,163.1"/>
  <polygon points="355.6,185.8 355.6,342.0 374.1,342.0 374.1,185.8 355.6,185.8"/>
  <polygon points="378.7,198.6 378.7,350.1 397.2,350.1 397.2,198.6 378.7,198.6"/>
  <polygon points="401.8,210.4 401.8,357.7 420.2,357.7 420.2,210.4 401.8,210.4"/>
  <polygon points="424.9,196.6 424.9,370.0 443.3,370.0 443.3,196.6 424.9,196.6"/>
  <polygon points="447.9,181.9 447.9,352.7 466.4,352.7 466.4,181.9 447.9,181.9"/>
  <polygon points="471.0,144.1 471.0,329.8 489.5,329.8 489.5,144.1 471.0,144.1"/>
  <polygon points="494.1,154.3 494.1,319.9 512.6,319.9 512.6,154.3 494.1,154.3"/>
  <polygon points="517.2,107.7 517.2,303.5 535.6,303.5 535.6,107.7 517.2,107.7"/>
  <polygon points="540.2,68.4 540.2,277.0 558.7,277.0 558.7,68.4 540.2,68.4"/>
  <polygon points="563.3,102.2 563.3,268.1 581.8,268.1 581.8,102.2 563.3,102.2"/>
  <polygon points="586.4,168.0 586.4,292.3 604.9,292.3 604.9,168.0 586.4,168.0"/>
  <polygon points="609.5,130.4 609.5,263.9 627.9,263.9 627.9,130.4 609.5,130.4"/>
  <polygon points="632.6,151.9 632.6,246.0 651.0,246.0 651.0,151.9 632.6,151.9"/>
  <polygon points="655.6,85.6 655.6,247.0 674.1,247.0 674.1,85.6 655.6,85.6"/>
  <polygon points="678.7,87.8 678.7,239.5 697.2,239.5 697.2,87.8 678.7,87.8"/>
  <polygon points="701.8,142.6 701.8,244.3 720.3,244.3 720.3,142.6 701.8,142.6"/>
  <polygon points="724.9,170.2 724.9,235.2 743.3,235.2 743.3,170.2 724.9,170.2"/>
  <polygon points="748.0,185.4 748.0,238.2 766.4,238.2 766.4,185.4 748.0,185.4"/>
  <polygon points="771.0,182.0 771.0,246.2 789.5,246.2 789.5,182.0 771.0,182.0"/>
  <polygon points="794.1,183.6 794.1,249.9 812.6,249.9 812.6,183.6 794.1,183.6"/>
  <polygon points="817.2,254.9 817.2,268.7 835.7,268.7 835.7,254.9 817.2,254.9"/>
  <polygon points="840.3,174.2 840.3,294.9 858.7,294.9 858.7,174.2 840.3,174.2"/>
  <polygon points="863.4,165.3 863.4,257.4 881.8,257.4 881.8,165.3 863.4,165.3"/>
  <polygon points="886.4,161.6 886.4,245.2 904.9,245.2 904.9,161.6 886.4,161.6"/>
</g>
<g stroke="#000" stroke-width="0.90" fill="#DBA746"  clip-path="url(#axis_clip)">
  <polygon points="147.9,414.1 147.9,414.2 166.4,414.2 166.4,414.1 147.9,414.1"/>
  <polygon points="171.0,406.5 171.0,406.5 189.4,406.5 189.4,406.5 171.0,406.5"/>
  <polygon points="194.1,401.3 194.1,401.4 212.5,401.4 212.5,401.3 194.1,401.3"/>
  <polygon points="217.1,399.5 217.1,399.6 235.6,399.6 235.6,399.5 217.1,399.5"/>
  <polygon points="240.2,389.5 240.2,389.6 258.7,389.6 258.7,389.5 240.2,389.5"/>
  <polygon points="263.3,386.7 263.3,386.8 281.8,386.8 281.8,386.7 263.3,386.7"/>
  <polygon points="286.4,359.9 286.4,359.9 304.8,359.9 304.8,359.9 286.4,359.9"/>
  <polygon points="309.5,358.2 309.5,358.2 327.9,358.2 327.9,358.2 309.5,358.2"/>
  <polygon points="332.5,344.9 332.5,345.0 351.0,345.0 351.0,344.9 332.5,344.9"/>
  <polygon points="355.6,342.0 355.6,342.0 374.1,342.0 374.1,342.0 355.6,342.0"/>
  <polygon points="378.7,350.1 378.7,350.1 397.2,350.1 397.2,350.1 378.7,350.1"/>
  <polygon points="401.8,357.7 401.8,357.7 420.2,357.7 420.2,357.7 401.8,357.7"/>
  <polygon points="424.9,370.0 424.9,370.1 443.3,370.1 443.3,370.0 424.9,370.0"/>
  <polygon points="447.9,352.7 447.9,352.7 466.4,352.7 466.4,352.7 447.9,352.7"/>
  <polygon points="471.0,329.8 471.0,329.8 489.5,329.8 489.5,329.8 471.0,329.8"/>
  <polygon points="494.1,319.9 494.1,320.0 512.6,320.0 512.6,319.9 494.1,319.9"/>
  <polygon points="517.2,303.5 517.2,303.5 535.6,303.5 535.6,303.5 517.2,303.5"/>
  <polygon points="540.2,277.0 540.2,277.0 558.7,277.0 558.7,277.0 540.2,277.0"/>
  <polygon points="563.3,268.1 563.3,268.2 581.8,268.2 581.8,268.1 563.3,268.1"/>
  <polygon points="586.4,292.3 586.4,292.4 604.9,292.4 604.9,292.3 586.4,292.3"/>
  <polygon points="609.5,263.9 609.5,264.0 627.9,264.0 627.9,263.9 609.5,263.9"/>
  <polygon points="632.6,246.0 632.6,246.1 651.0,246.1 651.0,246.0 632.6,246.0"/>
  <polygon points="655.6,247.0 655.6,247.1 674.1,247.1 674.1,247.0 655.6,247.0"/>
  <polygon points="678.7,239.5 678.7,239.5 697.2,239.5 697.2,239.5 678.7,239.5"/>
  <polygon points="701.8,244.3 701.8,244.4 720.3,244.4 720.3,244.3 701.8,244.3"/>
  <polygon points="724.9,235.2 724.9,235.3 743.3,235.3 743.3,235.2 724.9,235.2"/>
  <polygon points="748.0,238.2 748.0,238.2 766.4,238.2 766.4,238.2 748.0,238.2"/>
  <polygon points="771.0,246.2 771.0,246.3 789.5,246.3 789.5,246.2 771.0,246.2"/>
  <polygon points="794.1,249.9 794.1,250.0 812.6,250.0 812.6,249.9 794.1,249.9"/>
  <polygon points="817.2,268.7 817.2,268.8 835.7,268.8 835.7,268.7 817.2,268.7"/>
  <polygon points="840.3,294.9 840.3,294.9 858.7,294.9 858.7,294.9 840.3,294.9"/>
  <polygon points="863.4,257.4 863.4,257.4 881.8,257.4 881.8,257.4 863.4,257.4"/>
  <polygon points="886.4,245.2 886.4,245.3 904.9,245.3 904.9,245.2 886.4,245.2"/>
</g>
<g stroke="#000" stroke-width="0.90" fill="#845F48"  clip-path="url(#axis_clip)">
  <polygon points="147.9,414.2 147.9,414.4 166.4,414.4 166.4,414.2 147.9,414.2"/>
  <polygon points="171.0,406.5 171.0,406.7 189.4,406.7 189.4,406.5 171.0,406.5"/>
  <polygon points="194.1,401.4 194.1,401.6 212.5,401.6 212.5,401.4 194.1,401.4"/>
  <polygon points="217.1,399.6 217.1,399.8 235.6,399.8 235.6,399.6 217.1,399.6"/>
  <polygon points="240.2,389.6 240.2,390.0 258.7,390.0 258.7,389.6 240.2,389.6"/>
  <polygon points="263.3,386.8 263.3,387.2 281.8,387.2 281.8,386.8 263.3,386.8"/>
  <polygon points="286.4,359.9 286.4,360.6 304.8,360.6 304.8,359.9 286.4,359.9"/>
  <polygon points="309.5,358.2 309.5,358.9 327.9,358.9 327.9,358.2 309.5,358.2"/>
  <polygon points="332.5,345.0 332.5,345.6 351.0,345.6 351.0,345.0 332.5,345.0"/>
  <polygon points="355.6,342.0 355.6,342.8 374.1,342.8 374.1,342.0 355.6,342.0"/>
  <polygon points="378.7,350.1 378.7,351.0 397.2,351.0 397.2,350.1 378.7,350.1"/>
  <polygon points="401.8,357.7 401.8,358.6 420.2,358.6 420.2,357.7 401.8,357.7"/>
  <polygon points="424.9,370.1 424.9,370.9 443.3,370.9 443.3,370.1 424.9,370.1"/>
  <polygon points="447.9,352.7 447.9,353.8 466.4,353.8 466.4,352.7 447.9,352.7"/>
  <polygon points="471.0,329.8 471.0,331.1 489.5,331.1 489.5,329.8 471.0,329.8"/>
  <polygon points="494.1,320.0 494.1,321.0 512.6,321.0 512.6,320.0 494.1,320.0"/>
  <polygon points="517.2,303.5 517.2,304.8 535.6,304.8 535.6,303.5 517.2,303.5"/>
  <polygon points="540.2,277.0 540.2,278.3 558.7,278.3 558.7,277.0 540.2,277.0"/>
  <polygon points="563.3,268.2 563.3,269.3 581.8,269.3 581.8,268.2 563.3,268.2"/>
  <polygon points="586.4,292.4 586.4,293.5 604.9,293.5 604.9,292.4 586.4,292.4"/>
  <polygon points="609.5,264.0 609.5,265.5 627.9,265.5 627.9,264.0 609.5,264.0"/>
  <polygon points="632.6,246.1 632.6,247.8 651.0,247.8 651.0,246.1 632.6,246.1"/>
  <polygon points="655.6,247.1 655.6,248.5 674.1,248.5 674.1,247.1 655.6,247.1"/>
  <polygon points="678.7,239.5 678.7,241.1 697.2,241.1 697.2,239.5 678.7,239.5"/>
  <polygon points="701.8,244.4 701.8,246.0 720.3,246.0 720.3,244.4 701.8,244.4"/>
  <polygon points="724.9,235.3 724.9,236.5 743.3,236.5 743.3,235.3 724.9,235.3"/>
  <polygon points="748.0,238.2 748.0,240.1 766.4,240.1 766.4,238.2 748.0,238.2"/>
  <polygon points="771.0,246.3 771.0,248.2 789.5,248.2 789.5,246.3 771.0,246.3"/>
  <polygon points="794.1,250.0 794.1,252.4 812.6,252.4 812.6,250.0 794.1,250.0"/>
  <polygon points="817.2,268.8 817.2,271.5 835.7,271.5 835.7,268.8 817.2,268.8"/>
  <polygon points="840.3,294.9 840.3,297.9 858.7,297.9 858.7,294.9 840.3,294.9"/>
  <polygon points="863.4,257.4 863.4,260.7 881.8,260.7 881.8,257.4 863.4,257.4"/>
  <polygon points="886.4,245.3 886.4,248.1 904.9,248.1 904.9,245.3 886.4,245.3"/>
</g>
<g stroke="#000" stroke-width="0.90" fill="#4A89E8"  clip-path="url(#axis_clip)">
  <polygon points="147.9,414.4 147.9,429.3 166.4,429.3 166.4,414.4 147.9,414.4"/>
  <polygon points="171.0,406.7 171.0,420.5 189.4,420.5 189.4,406.7 171.0,406.7"/>
  <polygon points="194.1,401.6 194.1,415.4 212.5,415.4 212.5,401.6 194.1,401.6"/>
  <polygon points="217.1,399.8 217.1,414.4 235.6,414.4 235.6,399.8 217.1,399.8"/>
  <polygon points="240.2,390.0 240.2,406.8 258.7,406.8 258.7,390.0 240.2,390.0"/>
  <polygon points="263.3,387.2 263.3,404.0 281.8,404.0 281.8,387.2 263.3,387.2"/>
  <polygon points="286.4,360.6 286.4,378.7 304.8,378.7 304.8,360.6 286.4,360.6"/>
  <polygon points="309.5,358.9 309.5,379.0 327.9,379.0 327.9,358.9 309.5,358.9"/>
  <polygon points="332.5,345.6 332.5,366.2 351.0,366.2 351.0,345.6 332.5,345.6"/>
  <polygon points="355.6,342.8 355.6,362.2 374.1,362.2 374.1,342.8 355.6,342.8"/>
  <polygon points="378.7,351.0 378.7,369.4 397.2,369.4 397.2,351.0 378.7,351.0"/>
  <polygon points="401.8,358.6 401.8,377.8 420.2,377.8 420.2,358.6 401.8,358.6"/>
  <polygon points="424.9,370.9 424.9,389.6 443.3,389.6 443.3,370.9 424.9,370.9"/>
  <polygon points="447.9,353.8 447.9,375.4 466.4,375.4 466.4,353.8 447.9,353.8"/>
  <polygon points="471.0,331.1 471.0,355.0 489.5,355.0 489.5,331.1 471.0,331.1"/>
  <polygon points="494.1,321.0 494.1,346.9 512.6,346.9 512.6,321.0 494.1,321.0"/>
  <polygon points="517.2,304.8 517.2,331.7 535.6,331.7 535.6,304.8 517.2,304.8"/>
  <polygon points="540.2,278.3 540.2,306.3 558.7,306.3 558.7,278.3 540.2,278.3"/>
  <polygon points="563.3,269.3 563.3,297.0 581.8,297.0 581.8,269.3 563.3,269.3"/>
  <polygon points="586.4,293.5 586.4,318.0 604.9,318.0 604.9,293.5 586.4,293.5"/>
  <polygon points="609.5,265.5 609.5,293.8 627.9,293.8 627.9,265.5 609.5,265.5"/>
  <polygon points="632.6,247.8 632.6,278.5 651.0,278.5 651.0,247.8 632.6,247.8"/>
  <polygon points="655.6,248.5 655.6,277.0 674.1,277.0 674.1,248.5 655.6,248.5"/>
  <polygon points="678.7,241.1 678.7,271.1 697.2,271.1 697.2,241.1 678.7,241.1"/>
  <polygon points="701.8,246.0 701.8,276.4 720.3,276.4 720.3,246.0 701.8,246.0"/>
  <polygon points="724.9,236.5 724.9,266.8 743.3,266.8 743.3,236.5 724.9,236.5"/>
  <polygon points="748.0,240.1 748.0,266.6 766.4,266.6 766.4,240.1 748.0,240.1"/>
  <polygon points="771.0,248.2 771.0,276.4 789.5,276.4 789.5,248.2 771.0,248.2"/>
  <polygon points="794.1,252.4 794.1,280.9 812.6,280.9 812.6,252.4 794.1,252.4"/>
  <polygon points="817.2,271.5 817.2,297.6 835.7,297.6 835.7,271.5 817.2,271.5"/>
  <polygon points="840.3,297.9 840.3,321.1 858.7,321.1 858.7,297.9 840.3,297.9"/>
  <polygon points="863.4,260.7 863.4,288.3 881.8,288.3 881.8,260.7 863.4,260.7"/>
  <polygon points="886.4,248.1 886.4,277.8 904.9,277.8 904.9,248.1 886.4,248.1"/>
</g>
<g stroke="#000" stroke-width="0.90" fill="#FF7F61"  clip-path="url(#axis_clip)">
  <polygon points="147.9,429.3 147.9,587.2 166.4,587.2 166.4,429.3 147.9,429.3"/>
  <polygon points="171.0,420.5 171.0,587.2 189.4,587.2 189.4,420.5 171.0,420.5"/>
  <polygon points="194.1,415.4 194.1,587.2 212.5,587.2 212.5,415.4 194.1,415.4"/>
  <polygon points="217.1,414.4 217.1,587.2 235.6,587.2 235.6,414.4 217.1,414.4"/>
  <polygon points="240.2,406.8 240.2,587.2 258.7,587.2 258.7,406.8 240.2,406.8"/>
  <polygon points="263.3,404.0 263.3,587.2 281.8,587.2 281.8,404.0 263.3,404.0"/>
  <polygon points="286.4,378.7 286.4,587.2 304.8,587.2 304.8,378.7 286.4,378.7"/>
  <polygon points="309.5,379.0 309.5,587.2 327.9,587.2 327.9,379.0 309.5,379.0"/>
  <polygon points="332.5,366.2 332.5,587.2 351.0,587.2 351.0,366.2 332.5,366.2"/>
  <polygon points="355.6,362.2 355.6,587.2 374.1,587.2 374.1,362.2 355.6,362.2"/>
  <polygon points="378.7,369.4 378.7,587.2 397.2,587.2 397.2,369.4 378.7,369.4"/>
  <polygon points="401.8,377.8 401.8,587.2 420.2,587.2 420.2,377.8 401.8,377.8"/>
  <polygon points="424.9,389.6 424.9,587.2 443.3,587.2 443.3,389.6 424.9,389.6"/>
  <polygon points="447.9,375.4 447.9,587.2 466.4,587.2 466.4,375.4 447.9,375.4"/>
  <polygon points="471.0,355.0 471.0,587.2 489.5,587.2 489.5,355.0 471.0,355.0"/>
  <polygon points="494.1,346.9 494.1,587.2 512.6,587.2 512.6,346.9 494.1,346.9"/>
  <polygon points="517.2,331.7 517.2,587.2 535.6,587.2 535.6,331.7 517.2,331.7"/>
  <polygon points="540.2,306.3 540.2,587.2 558.7,587.2 558.7,306.3 540.2,306.3"/>
  <polygon points="563.3,297.0 563.3,587.2 581.8,587.2 581.8,297.0 563.3,297.0"/>
  <polygon points="586.4,318.0 586.4,587.2 604.9,587.2 604.9,318.0 586.4,318.0"/>
  <polygon points="609.5,293.8 609.5,587.2 627.9,587.2 627.9,293.8 609.5,293.8"/>
  <polygon points="632.6,278.5 632.6,587.2 651.0,587.2 651.0,278.5 632.6,278.5"/>
  <polygon points="655.6,277.0 655.6,587.2 674.1,587.2 674.1,277.0 655.6,277.0"/>
  <polygon points="678.7,271.1 678.7,587.2 697.2,587.2 697.2,271.1 678.7,271.1"/>
  <polygon points="701.8,276.4 701.8,587.2 720.3,587.2 720.3,276.4 701.8,276.4"/>
  <polygon points="724.9,266.8 724.9,587.2 743.3,587.2 743.3,266.8 724.9,266.8"/>
  <polygon points="748.0,266.6 748.0,587.2 766.4,587.2 766.4,266.6 748.0,266.6"/>
  <polygon points="771.0,276.4 771.0,587.2 789.5,587.2 789.5,276.4 771.0,276.4"/>
  <polygon points="794.1,280.9 794.1,587.2 812.6,587.2 812.6,280.9 794.1,280.9"/>
  <polygon points="817.2,297.6 817.2,587.2 835.7,587.2 835.7,297.6 817.2,297.6"/>
  <polygon points="840.3,321.1 840.3,587.2 858.7,587.2 858.7,321.1 840.3,321.1"/>
  <polygon points="863.4,288.3 863.4,587.2 881.8,587.2 881.8,288.3 863.4,288.3"/>
  <polygon points="886.4,277.8 886.4,587.2 904.9,587.2 904.9,277.8 886.4,277.8"/>
</g>
<polyline class="pl" points="157.1,335.3 180.2,286.1 203.3,276.8 226.4,288.1 249.5,272.9 272.5,263.3 295.6,202.5 318.7,208.9 341.8,163.1 364.8,185.8 387.9,198.6 411.0,210.4 434.1,196.6 457.2,181.9 480.2,144.1 503.3,154.3 526.4,107.7 549.5,68.4 572.6,102.2 595.6,168.0 618.7,130.4 641.8,151.9 664.9,85.6 688.0,87.8 711.0,142.6 734.1,170.2 757.2,185.4 780.3,182.0 803.3,183.6 826.4,254.9 849.5,174.2 872.6,165.3 895.7,161.6" stroke="#000" stroke-width="5.40" stroke-opacity="1.00" fill="none" clip-path="url(#axis_clip)"/>
<g class="pl" fill="#FFF" stroke="#000" stroke-width="0.900">
  <circle cx="180.2" cy="286.1" r="2.2" />
  <circle cx="203.3" cy="276.8" r="2.2" />
  <circle cx="226.4" cy="288.1" r="2.2" />
  <circle cx="249.5" cy="272.9" r="2.2" />
  <circle cx="272.5" cy="263.3" r="2.2" />
  <circle cx="295.6" cy="202.5" r="2.2" />
  <circle cx="318.7" cy="208.9" r="2.2" />
  <circle cx="341.8" cy="163.1" r="2.2" />
  <circle cx="364.8" cy="185.8" r="2.2" />
  <circle cx="411.0" cy="210.4" r="2.2" />
  <circle cx="434.1" cy="196.6" r="2.2" />
  <circle cx="457.2" cy="181.9" r="2.2" />
  <circle cx="480.2" cy="144.1" r="2.2" />
  <circle cx="503.3" cy="154.3" r="2.2" />
  <circle cx="526.4" cy="107.7" r="2.2" />
  <circle cx="549.5" cy="68.4" r="2.2" />
  <circle cx="572.6" cy="102.2" r="2.2" />
  <circle cx="595.6" cy="168.0" r="2.2" />
  <circle cx="641.8" cy="151.9" r="2.2" />
  <circle cx="664.9" cy="85.6" r="2.2" />
  <circle cx="688.0" cy="87.8" r="2.2" />
  <circle cx="711.0" cy="142.6" r="2.2" />
  <circle cx="734.1" cy="170.2" r="2.2" />
  <circle cx="757.2" cy="185.4" r="2.2" />
  <circle cx="780.3" cy="182.0" r="2.2" />
  <circle cx="803.3" cy="183.6" r="2.2" />
  <circle cx="826.4" cy="254.9" r="2.2" />
  <circle cx="872.6" cy="165.3" r="2.2" />
  <circle cx="895.7" cy="161.6" r="2.2" />
</g>
<g class="pl" fill="#FFF" stroke="#000" stroke-width="0.900">
  <circle cx="157.1" cy="335.3" r="5.4" />
  <circle cx="387.9" cy="198.6" r="5.4" />
  <circle cx="618.7" cy="130.4" r="5.4" />
  <circle cx="849.5" cy="174.2" r="5.4" />
</g>
<text transform="translate(145.6,47.2)" dy="0.0" font-size="27.00" fill="#808080" stroke="none">Annual CO<tspan dy="0.2em"><tspan style="font-size:70%">2</tspan></tspan><tspan dy="-0.2em"> </tspan>Emissions: Argentina</text>
<text transform="translate(130.0,81.6)" dy="8.1" font-size="27.00" fill="#808080" stroke="none" text-anchor="end">CO<tspan dy="0.2em"><tspan style="font-size:70%">2</tspan></tspan><tspan dy="-0.2em"></tspan></text>
<text transform="translate(945.6,161.6)" dy="7.6" font-size="25.20" fill="#000" stroke="none">+69.0% since 1990</text>
<text transform="translate(945.6,432.5)" dy="7.6" font-size="25.20" fill="#FF7F61" stroke="none">Energy</text>
<text transform="translate(945.6,277.1)" dy="7.6" font-size="25.20" fill="#4A89E8" stroke="none">Industrial Processes</text>
<text transform="translate(945.6,252.1)" dy="7.6" font-size="25.20" fill="#845F48" stroke="none">Agriculture</text>
<text transform="translate(945.6,227.1)" dy="7.6" font-size="25.20" fill="#DBA746" stroke="none">Waste</text>
<text transform="translate(945.6,202.0)" dy="7.6" font-size="25.20" fill="#7FBF7F" stroke="none">LULUCF</text>
<polyline class="pl" points="910.8,263.0 912.4,263.0 913.8,263.2 915.2,263.4 916.4,263.7 917.6,264.1 918.8,264.6 919.8,265.1 920.8,265.6 921.7,266.2 922.7,266.9 923.5,267.6 924.4,268.3 925.2,269.0 926.0,269.7 926.8,270.4 927.6,271.2 928.4,271.9 929.3,272.6 930.1,273.3 931.1,273.9 932.0,274.5 933.0,275.1 934.0,275.6 935.2,276.0 936.4,276.4 937.6,276.7 939.0,277.0 940.4,277.1 942.0,277.1" stroke="#4A89E8" stroke-width="0.90" stroke-opacity="1.00" fill="none" />
<polyline class="pl" points="910.8,246.7 912.4,246.7 913.8,246.8 915.2,246.9 916.4,247.0 917.6,247.1 918.8,247.3 919.8,247.5 920.8,247.7 921.7,247.9 922.7,248.2 923.5,248.4 924.4,248.7 925.2,249.0 926.0,249.3 926.8,249.5 927.6,249.8 928.4,250.1 929.3,250.4 930.1,250.6 931.1,250.9 932.0,251.1 933.0,251.3 934.0,251.5 935.2,251.7 936.4,251.8 937.6,251.9 939.0,252.0 940.4,252.1 942.0,252.1" stroke="#845F48" stroke-width="0.90" stroke-opacity="1.00" fill="none" />
<polyline class="pl" points="910.8,245.2 912.4,245.2 913.8,245.0 915.2,244.7 916.4,244.3 917.6,243.8 918.8,243.2 919.8,242.6 920.8,241.9 921.7,241.1 922.7,240.2 923.5,239.4 924.4,238.5 925.2,237.6 926.0,236.6 926.8,235.7 927.6,234.7 928.4,233.8 929.3,232.9 930.1,232.1 931.1,231.2 932.0,230.4 933.0,229.7 934.0,229.1 935.2,228.5 936.4,228.0 937.6,227.6 939.0,227.3 940.4,227.1 942.0,227.1" stroke="#DBA746" stroke-width="0.90" stroke-opacity="1.00" fill="none" />
<polyline class="pl" points="910.8,203.4 912.4,203.4 913.8,203.4 915.2,203.4 916.4,203.3 917.6,203.3 918.8,203.3 919.8,203.2 920.8,203.2 921.7,203.1 922.7,203.0 923.5,203.0 924.4,202.9 925.2,202.8 926.0,202.8 926.8,202.7 927.6,202.6 928.4,202.5 929.3,202.5 930.1,202.4 931.1,202.3 932.0,202.3 933.0,202.2 934.0,202.2 935.2,202.1 936.4,202.1 937.6,202.1 939.0,202.0 940.4,202.0 942.0,202.0" stroke="#7FBF7F" stroke-width="0.90" stroke-opacity="1.00" fill="none" />
<text transform="translate(160.0,666.1)" font-size="19.80" font-family="Helvetica" fill="#BFBFBF" stroke="none" xml:space="preserve">CICERO   &#9679;   Data: UNFCCC (2024)</text>
<g>
  <rect x="123.0" y="651.4" width="34" height="17" fill="#FFF" stroke="none" opacity="0.01"/>
  <g transform="translate(124.0,652.4) scale(0.24)">
  <g><circle fill="#FFF" cx="37.79" cy="28.5" r="28.84"/>
     <circle fill="none" cx="37.79" cy="28.5" r="28.84" stroke="#BFBFBF" stroke-width="5.5"/>
     <path fill="#BFBFBF" d="M37.16,23.19 l-4.29,2.23c-0.458-0.951-1.02-1.62-1.69-2c-0.667-0.38-1.29-0.571-1.86-0.571c-2.86,0-4.29,1.89-4.29,5.66 c0,1.71,0.36,3.08,1.09,4.11c0.724,1.03,1.79,1.54,3.2,1.54c1.87,0,3.18-0.915,3.94-2.74l3.94,2 c-0.838,1.56-2,2.79-3.49,3.69c-1.48,0.896-3.12,1.34-4.91,1.34c-2.86,0-5.16-0.875-6.92-2.63 c-1.75-1.75-2.63-4.19-2.63-7.31c0-3.05,0.886-5.47,2.66-7.26c1.77-1.79,4.01-2.69,6.72-2.69 C32.6,18.56,35.44,20.1,37.16,23.19z
              M55.61,23.19l-4.23,2.23c-0.457-0.951-1.02-1.62-1.69-2 c-0.668-0.38-1.31-0.571-1.91-0.571c-2.86,0-4.29,1.89-4.29,5.66c0,1.71,0.363,3.08,1.09,4.11 c0.723,1.03,1.79,1.54,3.2,1.54c1.87,0,3.18-0.915,3.94-2.74l4,2c-0.875,1.56-2.06,2.79-3.54,3.69 c-1.49,0.9-3.11,1.34-4.86,1.34c-2.9,0-5.21-0.875-6.94-2.63c-1.74-1.75-2.6-4.19-2.6-7.31 c0-3.05,0.885-5.47,2.66-7.26c1.77-1.79,4.01-2.69,6.71-2.69C51.12,18.56,53.944,20.1,55.61,23.19z"/>
  </g></g>
  <g transform="translate(140.2,652.4) scale(0.24)">
  <g><circle fill="#FFF" cx="37.79" cy="28.5" r="28.84"/>
     <circle fill="none" cx="37.79" cy="28.5" r="28.84" stroke="#BFBFBF" stroke-width="5.5"/>
     <path fill="#BFBFBF" d="M46.129,20.557v13.085h-3.656v15.542h-9.944V33.643h-3.656V20.557 c0-0.572,0.2-1.057,0.599-1.457c0.401-0.399,0.887-0.6,1.457-0.6h13.144c0.533,0,1.01,0.2,1.428,0.6 C45.918,19.5,46.129,19.986,46.129,20.557z
              M33.042,12.329c0-3.008,1.485-4.514,4.458-4.514s4.457,1.504,4.457,4.514 c0,2.971-1.486,4.457-4.457,4.457S33.042,15.3,33.042,12.329z"/>
  </g></g>
</g>
</g>
</svg>
