<svg version="1.1" xmlns="http://www.w3.org/2000/svg" xmlns:xlink="http://www.w3.org/1999/xlink" width="100%" height="100%" viewBox="0 0 1200.000 674.916">
<title>Annual LULUCF emissions: Belarus</title>
<style type="text/css">
  #main {font-family:Helvetica,Arial,sans-serif; font-size:27.00px;
         fill-opacity:1; fill:#000000; stroke:none; stroke-linejoin:round; stroke-linecap:round; stroke-width:1.00;}
  .marker {stroke-opacity:0;fill-opacity:0;}
  .marker:hover {stroke-opacity:0.5; fill-opacity:1;}
  .ticklabel {font-size:27.00px;fill:#808080;stroke:none;font-family:Helvetica}
  .ytl {text-anchor:end;}
  .dp1 {pointer-events:none;font-size:70%;text-anchor:middle;fill:#000000;}
  .dp2 {pointer-events:none;font-size:70%;text-anchor:middle;fill:#FFFFFF;}
  .numtip {pointer-events:none;}
  .cc {opacity:0.25;}
.dl_fe {background-color:#FDFFDF;display:flex;margin:auto;align-items:center}
.dl_fe_p {font-size:20px;text-align:center;margin:3px}
.dl_el {display:none;pointer-events:none;}
.cc:hover + .dl_el {display:block;}
text:hover + .dl_el {display:block;}
</style>
<defs>
  <clipPath id="axis_clip"><rect x="145.8" y="54.2" width="761.2" height="532.8" /></clipPath>
  <path id="line_x" d="M 145.600,0 h 761.600" stroke="#262626" stroke-opacity="0.15" stroke-width="1.00"/>
  <path id="tick_y" d="M 145.600,0 h -6.000" stroke="#808080" stroke-width="0.90"/>
  <path id="tick_x" d="M 0,587.177 v 6.000" stroke="#808080" stroke-width="0.90"/>
</defs>
<g id="main">
<use xlink:href="#line_x" transform="translate(0,587.2)"/>
<use xlink:href="#line_x" transform="translate(0,468.7)"/>
<use xlink:href="#line_x" transform="translate(0,350.2)"/>
<use xlink:href="#line_x" transform="translate(0,231.7)"/>
<use xlink:href="#line_x" transform="translate(0,113.2)"/>
<use xlink:href="#tick_y" transform="translate(0,587.2)"/>
<use xlink:href="#tick_y" transform="translate(0,468.7)"/>
<use xlink:href="#tick_y" transform="translate(0,350.2)"/>
<use xlink:href="#tick_y" transform="translate(0,231.7)"/>
<use xlink:href="#tick_y" transform="translate(0,113.2)"/>
<use xlink:href="#tick_x" transform="translate(156.8,0)"/>
<use xlink:href="#tick_x" transform="translate(268.8,0)"/>
<use xlink:href="#tick_x" transform="translate(380.8,0)"/>
<use xlink:href="#tick_x" transform="translate(492.8,0)"/>
<use xlink:href="#tick_x" transform="translate(604.8,0)"/>
<use xlink:href="#tick_x" transform="translate(716.8,0)"/>
<use xlink:href="#tick_x" transform="translate(828.8,0)"/>
<use xlink:href="#tick_x" transform="translate(896.0,0)"/>
<polyline points="145.6,53.993 145.6,587.177 907.2,587.177" stroke="#808080" stroke-width="0.90" fill="none"/>
<text class="ticklabel xtl" transform="translate(156.8,629.0)" text-anchor="middle">1990</text>
<text class="ticklabel xtl" transform="translate(268.8,629.0)" text-anchor="middle">1995</text>
<text class="ticklabel xtl" transform="translate(380.8,629.0)" text-anchor="middle">2000</text>
<text class="ticklabel xtl" transform="translate(492.8,629.0)" text-anchor="middle">2005</text>
<text class="ticklabel xtl" transform="translate(604.8,629.0)" text-anchor="middle">2010</text>
<text class="ticklabel xtl" transform="translate(716.8,629.0)" text-anchor="middle">2015</text>
<text class="ticklabel xtl" transform="translate(828.8,629.0)" text-anchor="middle">2020</text>
<text class="ticklabel xtl" transform="translate(896.0,629.0)" text-anchor="middle">23</text>
<text class="ticklabel ytl" transform="translate(128.8,595.3)">-60</text>
<text class="ticklabel ytl" transform="translate(128.8,476.8)">-40</text>
<text class="ticklabel ytl" transform="translate(128.8,358.3)">-20</text>
<text class="ticklabel ytl" transform="translate(128.8,239.8)">0</text>
<text class="ticklabel ytl" transform="translate(128.8,121.3)">20 Mt</text>
<g stroke="#000" stroke-width="0.90" fill="#1A4D1A"  clip-path="url(#axis_clip)">
</g>
<g stroke="#000" stroke-width="0.90" fill="#8B1E40"  clip-path="url(#axis_clip)">
  <polygon points="237.4,104.3 237.4,108.2 255.4,108.2 255.4,104.3 237.4,104.3"/>
  <polygon points="259.8,100.2 259.8,108.3 277.8,108.3 277.8,100.2 259.8,100.2"/>
  <polygon points="282.2,102.7 282.2,108.9 300.2,108.9 300.2,102.7 282.2,102.7"/>
  <polygon points="304.6,102.4 304.6,107.6 322.6,107.6 322.6,102.4 304.6,102.4"/>
  <polygon points="327.0,78.5 327.0,83.6 345.0,83.6 345.0,78.5 327.0,78.5"/>
  <polygon points="349.4,106.9 349.4,110.7 367.4,110.7 367.4,106.9 349.4,106.9"/>
  <polygon points="371.8,106.9 371.8,110.2 389.8,110.2 389.8,106.9 371.8,106.9"/>
  <polygon points="394.2,109.1 394.2,110.8 412.2,110.8 412.2,109.1 394.2,109.1"/>
  <polygon points="416.6,110.3 416.6,111.6 434.6,111.6 434.6,110.3 416.6,110.3"/>
  <polygon points="439.0,108.9 439.0,110.7 457.0,110.7 457.0,108.9 439.0,108.9"/>
  <polygon points="461.4,111.1 461.4,112.5 479.4,112.5 479.4,111.1 461.4,111.1"/>
  <polygon points="573.4,115.2 573.4,116.1 591.4,116.1 591.4,115.2 573.4,115.2"/>
</g>
<g stroke="#000" stroke-width="0.90" fill="#7B417F"  clip-path="url(#axis_clip)">
</g>
<g stroke="#000" stroke-width="0.90" fill="#808080"  clip-path="url(#axis_clip)">
  <polygon points="147.8,104.5 147.8,111.1 165.8,111.1 165.8,104.5 147.8,104.5"/>
  <polygon points="170.2,106.8 170.2,112.3 188.2,112.3 188.2,106.8 170.2,106.8"/>
  <polygon points="192.6,108.0 192.6,113.5 210.6,113.5 210.6,108.0 192.6,108.0"/>
  <polygon points="215.0,63.1 215.0,68.5 233.0,68.5 233.0,63.1 215.0,63.1"/>
  <polygon points="237.4,108.2 237.4,113.5 255.4,113.5 255.4,108.2 237.4,108.2"/>
  <polygon points="259.8,108.3 259.8,113.3 277.8,113.3 277.8,108.3 259.8,108.3"/>
  <polygon points="282.2,108.9 282.2,113.7 300.2,113.7 300.2,108.9 282.2,108.9"/>
  <polygon points="304.6,107.6 304.6,112.4 322.6,112.4 322.6,107.6 304.6,107.6"/>
  <polygon points="327.0,83.6 327.0,88.5 345.0,88.5 345.0,83.6 327.0,83.6"/>
  <polygon points="349.4,110.7 349.4,115.7 367.4,115.7 367.4,110.7 349.4,110.7"/>
  <polygon points="371.8,110.2 371.8,115.0 389.8,115.0 389.8,110.2 371.8,110.2"/>
  <polygon points="394.2,110.8 394.2,115.6 412.2,115.6 412.2,110.8 394.2,110.8"/>
  <polygon points="416.6,111.6 416.6,116.5 434.6,116.5 434.6,111.6 416.6,111.6"/>
  <polygon points="439.0,110.7 439.0,115.6 457.0,115.6 457.0,110.7 439.0,110.7"/>
  <polygon points="461.4,112.5 461.4,117.4 479.4,117.4 479.4,112.5 461.4,112.5"/>
  <polygon points="483.8,112.9 483.8,117.7 501.8,117.7 501.8,112.9 483.8,112.9"/>
  <polygon points="506.2,115.2 506.2,120.0 524.2,120.0 524.2,115.2 506.2,115.2"/>
  <polygon points="528.6,114.8 528.6,119.8 546.6,119.8 546.6,114.8 528.6,114.8"/>
  <polygon points="551.0,116.2 551.0,121.2 569.0,121.2 569.0,116.2 551.0,116.2"/>
  <polygon points="573.4,116.1 573.4,121.2 591.4,121.2 591.4,116.1 573.4,116.1"/>
  <polygon points="707.8,118.0 707.8,119.0 725.8,119.0 725.8,118.0 707.8,118.0"/>
  <polygon points="730.2,120.7 730.2,123.2 748.2,123.2 748.2,120.7 730.2,120.7"/>
  <polygon points="752.6,122.4 752.6,126.6 770.6,126.6 770.6,122.4 752.6,122.4"/>
  <polygon points="775.0,117.6 775.0,123.0 793.0,123.0 793.0,117.6 775.0,117.6"/>
  <polygon points="797.4,115.7 797.4,121.6 815.4,121.6 815.4,115.7 797.4,115.7"/>
  <polygon points="819.8,111.0 819.8,118.3 837.8,118.3 837.8,111.0 819.8,111.0"/>
  <polygon points="842.2,133.1 842.2,142.6 860.2,142.6 860.2,133.1 842.2,133.1"/>
  <polygon points="864.6,111.8 864.6,124.1 882.6,124.1 882.6,111.8 864.6,111.8"/>
  <polygon points="887.0,134.5 887.0,148.5 905.0,148.5 905.0,134.5 887.0,134.5"/>
</g>
<g stroke="#000" stroke-width="0.90" fill="#EDB120"  clip-path="url(#axis_clip)">
  <polygon points="147.8,111.1 147.8,111.5 165.8,111.5 165.8,111.1 147.8,111.1"/>
  <polygon points="170.2,112.3 170.2,112.6 188.2,112.6 188.2,112.3 170.2,112.3"/>
  <polygon points="192.6,113.5 192.6,113.8 210.6,113.8 210.6,113.5 192.6,113.5"/>
  <polygon points="215.0,68.5 215.0,68.7 233.0,68.7 233.0,68.5 215.0,68.5"/>
  <polygon points="237.4,113.5 237.4,113.7 255.4,113.7 255.4,113.5 237.4,113.5"/>
  <polygon points="259.8,113.3 259.8,113.5 277.8,113.5 277.8,113.3 259.8,113.3"/>
  <polygon points="282.2,113.7 282.2,113.9 300.2,113.9 300.2,113.7 282.2,113.7"/>
  <polygon points="304.6,112.4 304.6,112.6 322.6,112.6 322.6,112.4 304.6,112.4"/>
  <polygon points="327.0,88.5 327.0,88.6 345.0,88.6 345.0,88.5 327.0,88.5"/>
  <polygon points="349.4,115.7 349.4,115.8 367.4,115.8 367.4,115.7 349.4,115.7"/>
  <polygon points="371.8,115.0 371.8,115.2 389.8,115.2 389.8,115.0 371.8,115.0"/>
  <polygon points="394.2,115.6 394.2,115.7 412.2,115.7 412.2,115.6 394.2,115.6"/>
  <polygon points="416.6,116.5 416.6,116.6 434.6,116.6 434.6,116.5 416.6,116.5"/>
  <polygon points="439.0,115.6 439.0,115.7 457.0,115.7 457.0,115.6 439.0,115.6"/>
  <polygon points="461.4,117.4 461.4,117.5 479.4,117.5 479.4,117.4 461.4,117.4"/>
  <polygon points="483.8,117.7 483.8,117.8 501.8,117.8 501.8,117.7 483.8,117.7"/>
  <polygon points="506.2,120.0 506.2,120.1 524.2,120.1 524.2,120.0 506.2,120.0"/>
  <polygon points="528.6,119.8 528.6,119.8 546.6,119.8 546.6,119.8 528.6,119.8"/>
  <polygon points="551.0,121.2 551.0,121.3 569.0,121.3 569.0,121.2 551.0,121.2"/>
  <polygon points="573.4,121.2 573.4,121.2 591.4,121.2 591.4,121.2 573.4,121.2"/>
  <polygon points="595.8,122.5 595.8,122.6 613.8,122.6 613.8,122.5 595.8,122.5"/>
  <polygon points="618.2,122.6 618.2,122.7 636.2,122.7 636.2,122.6 618.2,122.6"/>
  <polygon points="640.6,121.2 640.6,121.3 658.6,121.3 658.6,121.2 640.6,121.2"/>
  <polygon points="663.0,122.9 663.0,123.0 681.0,123.0 681.0,122.9 663.0,122.9"/>
  <polygon points="685.4,123.4 685.4,123.4 703.4,123.4 703.4,123.4 685.4,123.4"/>
  <polygon points="707.8,119.0 707.8,119.1 725.8,119.1 725.8,119.0 707.8,119.0"/>
  <polygon points="730.2,123.2 730.2,123.3 748.2,123.3 748.2,123.2 730.2,123.2"/>
  <polygon points="752.6,126.6 752.6,126.6 770.6,126.6 770.6,126.6 752.6,126.6"/>
  <polygon points="775.0,123.0 775.0,123.0 793.0,123.0 793.0,123.0 775.0,123.0"/>
  <polygon points="797.4,121.6 797.4,121.7 815.4,121.7 815.4,121.6 797.4,121.6"/>
  <polygon points="819.8,118.3 819.8,118.4 837.8,118.4 837.8,118.3 819.8,118.3"/>
  <polygon points="842.2,142.6 842.2,142.6 860.2,142.6 860.2,142.6 842.2,142.6"/>
  <polygon points="864.6,124.1 864.6,124.1 882.6,124.1 882.6,124.1 864.6,124.1"/>
  <polygon points="887.0,148.5 887.0,148.5 905.0,148.5 905.0,148.5 887.0,148.5"/>
</g>
<g stroke="#000" stroke-width="0.90" fill="#D95319"  clip-path="url(#axis_clip)">
</g>
<g stroke="#000" stroke-width="0.90" fill="#5AA3D0"  clip-path="url(#axis_clip)">
  <polygon points="147.8,111.5 147.8,231.7 165.8,231.7 165.8,111.5 147.8,111.5"/>
  <polygon points="170.2,112.6 170.2,231.7 188.2,231.7 188.2,112.6 170.2,112.6"/>
  <polygon points="192.6,113.8 192.6,231.7 210.6,231.7 210.6,113.8 192.6,113.8"/>
  <polygon points="215.0,68.7 215.0,231.7 233.0,231.7 233.0,68.7 215.0,68.7"/>
  <polygon points="237.4,113.7 237.4,231.7 255.4,231.7 255.4,113.7 237.4,113.7"/>
  <polygon points="259.8,113.5 259.8,231.7 277.8,231.7 277.8,113.5 259.8,113.5"/>
  <polygon points="282.2,113.9 282.2,231.7 300.2,231.7 300.2,113.9 282.2,113.9"/>
  <polygon points="304.6,112.6 304.6,231.7 322.6,231.7 322.6,112.6 304.6,112.6"/>
  <polygon points="327.0,88.6 327.0,231.7 345.0,231.7 345.0,88.6 327.0,88.6"/>
  <polygon points="349.4,115.8 349.4,231.7 367.4,231.7 367.4,115.8 349.4,115.8"/>
  <polygon points="371.8,115.2 371.8,231.7 389.8,231.7 389.8,115.2 371.8,115.2"/>
  <polygon points="394.2,115.7 394.2,231.7 412.2,231.7 412.2,115.7 394.2,115.7"/>
  <polygon points="416.6,116.6 416.6,231.7 434.6,231.7 434.6,116.6 416.6,116.6"/>
  <polygon points="439.0,115.7 439.0,231.7 457.0,231.7 457.0,115.7 439.0,115.7"/>
  <polygon points="461.4,117.5 461.4,231.7 479.4,231.7 479.4,117.5 461.4,117.5"/>
  <polygon points="483.8,117.8 483.8,231.7 501.8,231.7 501.8,117.8 483.8,117.8"/>
  <polygon points="506.2,120.1 506.2,231.7 524.2,231.7 524.2,120.1 506.2,120.1"/>
  <polygon points="528.6,119.8 528.6,231.7 546.6,231.7 546.6,119.8 528.6,119.8"/>
  <polygon points="551.0,121.3 551.0,231.7 569.0,231.7 569.0,121.3 551.0,121.3"/>
  <polygon points="573.4,121.2 573.4,231.7 591.4,231.7 591.4,121.2 573.4,121.2"/>
  <polygon points="595.8,122.6 595.8,231.7 613.8,231.7 613.8,122.6 595.8,122.6"/>
  <polygon points="618.2,122.7 618.2,231.7 636.2,231.7 636.2,122.7 618.2,122.7"/>
  <polygon points="640.6,121.3 640.6,231.7 658.6,231.7 658.6,121.3 640.6,121.3"/>
  <polygon points="663.0,123.0 663.0,231.7 681.0,231.7 681.0,123.0 663.0,123.0"/>
  <polygon points="685.4,123.4 685.4,231.7 703.4,231.7 703.4,123.4 685.4,123.4"/>
  <polygon points="707.8,119.1 707.8,231.7 725.8,231.7 725.8,119.1 707.8,119.1"/>
  <polygon points="730.2,123.3 730.2,231.7 748.2,231.7 748.2,123.3 730.2,123.3"/>
  <polygon points="752.6,126.6 752.6,231.7 770.6,231.7 770.6,126.6 752.6,126.6"/>
  <polygon points="775.0,123.0 775.0,231.7 793.0,231.7 793.0,123.0 775.0,123.0"/>
  <polygon points="797.4,121.7 797.4,231.7 815.4,231.7 815.4,121.7 797.4,121.7"/>
  <polygon points="819.8,118.4 819.8,231.7 837.8,231.7 837.8,118.4 819.8,118.4"/>
  <polygon points="842.2,142.6 842.2,231.7 860.2,231.7 860.2,142.6 842.2,142.6"/>
  <polygon points="864.6,124.1 864.6,231.7 882.6,231.7 882.6,124.1 864.6,124.1"/>
  <polygon points="887.0,148.5 887.0,231.7 905.0,231.7 905.0,148.5 887.0,148.5"/>
</g>
<g stroke="#000" stroke-width="0.90" fill="#1A4D1A"  clip-path="url(#axis_clip)">
</g>
<g stroke="#000" stroke-width="0.90" fill="#8B1E40"  clip-path="url(#axis_clip)">
  <polygon points="147.8,491.0 147.8,476.5 165.8,476.5 165.8,491.0 147.8,491.0"/>
  <polygon points="170.2,497.4 170.2,487.9 188.2,487.9 188.2,497.4 170.2,497.4"/>
  <polygon points="192.6,488.5 192.6,483.3 210.6,483.3 210.6,488.5 192.6,488.5"/>
  <polygon points="215.0,495.1 215.0,494.9 233.0,494.9 233.0,495.1 215.0,495.1"/>
  <polygon points="483.8,521.9 483.8,520.6 501.8,520.6 501.8,521.9 483.8,521.9"/>
  <polygon points="506.2,535.7 506.2,534.6 524.2,534.6 524.2,535.7 506.2,535.7"/>
  <polygon points="528.6,549.0 528.6,547.2 546.6,547.2 546.6,549.0 528.6,549.0"/>
  <polygon points="551.0,549.7 551.0,545.9 569.0,545.9 569.0,549.7 551.0,549.7"/>
  <polygon points="595.8,584.7 595.8,582.9 613.8,582.9 613.8,584.7 595.8,584.7"/>
  <polygon points="618.2,580.8 618.2,577.0 636.2,577.0 636.2,580.8 618.2,580.8"/>
  <polygon points="640.6,572.8 640.6,568.6 658.6,568.6 658.6,572.8 640.6,572.8"/>
  <polygon points="663.0,584.7 663.0,579.1 681.0,579.1 681.0,584.7 663.0,584.7"/>
  <polygon points="685.4,581.1 685.4,573.4 703.4,573.4 703.4,581.1 685.4,581.1"/>
  <polygon points="707.8,573.8 707.8,564.3 725.8,564.3 725.8,573.8 707.8,573.8"/>
  <polygon points="730.2,547.0 730.2,536.0 748.2,536.0 748.2,547.0 730.2,547.0"/>
  <polygon points="752.6,523.6 752.6,503.5 770.6,503.5 770.6,523.6 752.6,523.6"/>
  <polygon points="775.0,544.0 775.0,516.7 793.0,516.7 793.0,544.0 775.0,544.0"/>
  <polygon points="797.4,519.8 797.4,492.9 815.4,492.9 815.4,519.8 797.4,519.8"/>
  <polygon points="819.8,533.0 819.8,512.5 837.8,512.5 837.8,533.0 819.8,533.0"/>
  <polygon points="842.2,546.7 842.2,522.7 860.2,522.7 860.2,546.7 842.2,546.7"/>
  <polygon points="864.6,560.4 864.6,541.7 882.6,541.7 882.6,560.4 864.6,560.4"/>
  <polygon points="887.0,573.6 887.0,555.5 905.0,555.5 905.0,573.6 887.0,573.6"/>
</g>
<g stroke="#000" stroke-width="0.90" fill="#7B417F"  clip-path="url(#axis_clip)">
</g>
<g stroke="#000" stroke-width="0.90" fill="#808080"  clip-path="url(#axis_clip)">
  <polygon points="595.8,582.9 595.8,582.7 613.8,582.7 613.8,582.9 595.8,582.9"/>
  <polygon points="618.2,577.0 618.2,575.8 636.2,575.8 636.2,577.0 618.2,577.0"/>
  <polygon points="640.6,568.6 640.6,566.6 658.6,566.6 658.6,568.6 640.6,568.6"/>
  <polygon points="663.0,579.1 663.0,578.1 681.0,578.1 681.0,579.1 663.0,579.1"/>
  <polygon points="685.4,573.4 685.4,573.2 703.4,573.2 703.4,573.4 685.4,573.4"/>
</g>
<g stroke="#000" stroke-width="0.90" fill="#D95319"  clip-path="url(#axis_clip)">
</g>
<g stroke="#000" stroke-width="0.90" fill="#6AB561"  clip-path="url(#axis_clip)">
  <polygon points="147.8,476.5 147.8,231.7 165.8,231.7 165.8,476.5 147.8,476.5"/>
  <polygon points="170.2,487.9 170.2,231.7 188.2,231.7 188.2,487.9 170.2,487.9"/>
  <polygon points="192.6,483.3 192.6,231.7 210.6,231.7 210.6,483.3 192.6,483.3"/>
  <polygon points="215.0,494.9 215.0,231.7 233.0,231.7 233.0,494.9 215.0,494.9"/>
  <polygon points="237.4,504.7 237.4,231.7 255.4,231.7 255.4,504.7 237.4,504.7"/>
  <polygon points="259.8,508.9 259.8,231.7 277.8,231.7 277.8,508.9 259.8,508.9"/>
  <polygon points="282.2,504.3 282.2,231.7 300.2,231.7 300.2,504.3 282.2,504.3"/>
  <polygon points="304.6,500.6 304.6,231.7 322.6,231.7 322.6,500.6 304.6,500.6"/>
  <polygon points="327.0,515.5 327.0,231.7 345.0,231.7 345.0,515.5 327.0,515.5"/>
  <polygon points="349.4,523.3 349.4,231.7 367.4,231.7 367.4,523.3 349.4,523.3"/>
  <polygon points="371.8,531.0 371.8,231.7 389.8,231.7 389.8,531.0 371.8,531.0"/>
  <polygon points="394.2,523.3 394.2,231.7 412.2,231.7 412.2,523.3 394.2,523.3"/>
  <polygon points="416.6,512.7 416.6,231.7 434.6,231.7 434.6,512.7 416.6,512.7"/>
  <polygon points="439.0,498.3 439.0,231.7 457.0,231.7 457.0,498.3 439.0,498.3"/>
  <polygon points="461.4,511.0 461.4,231.7 479.4,231.7 479.4,511.0 461.4,511.0"/>
  <polygon points="483.8,520.6 483.8,231.7 501.8,231.7 501.8,520.6 483.8,520.6"/>
  <polygon points="506.2,534.6 506.2,231.7 524.2,231.7 524.2,534.6 506.2,534.6"/>
  <polygon points="528.6,547.2 528.6,231.7 546.6,231.7 546.6,547.2 528.6,547.2"/>
  <polygon points="551.0,545.9 551.0,231.7 569.0,231.7 569.0,545.9 551.0,545.9"/>
  <polygon points="573.4,569.3 573.4,231.7 591.4,231.7 591.4,569.3 573.4,569.3"/>
  <polygon points="595.8,582.7 595.8,231.7 613.8,231.7 613.8,582.7 595.8,582.7"/>
  <polygon points="618.2,575.8 618.2,231.7 636.2,231.7 636.2,575.8 618.2,575.8"/>
  <polygon points="640.6,566.6 640.6,231.7 658.6,231.7 658.6,566.6 640.6,566.6"/>
  <polygon points="663.0,578.1 663.0,231.7 681.0,231.7 681.0,578.1 663.0,578.1"/>
  <polygon points="685.4,573.2 685.4,231.7 703.4,231.7 703.4,573.2 685.4,573.2"/>
  <polygon points="707.8,564.3 707.8,231.7 725.8,231.7 725.8,564.3 707.8,564.3"/>
  <polygon points="730.2,536.0 730.2,231.7 748.2,231.7 748.2,536.0 730.2,536.0"/>
  <polygon points="752.6,503.5 752.6,231.7 770.6,231.7 770.6,503.5 752.6,503.5"/>
  <polygon points="775.0,516.7 775.0,231.7 793.0,231.7 793.0,516.7 775.0,516.7"/>
  <polygon points="797.4,492.9 797.4,231.7 815.4,231.7 815.4,492.9 797.4,492.9"/>
  <polygon points="819.8,512.5 819.8,231.7 837.8,231.7 837.8,512.5 819.8,512.5"/>
  <polygon points="842.2,522.7 842.2,231.7 860.2,231.7 860.2,522.7 842.2,522.7"/>
  <polygon points="864.6,541.7 864.6,231.7 882.6,231.7 882.6,541.7 864.6,541.7"/>
  <polygon points="887.0,555.5 887.0,231.7 905.0,231.7 905.0,555.5 887.0,555.5"/>
</g>
<polyline class="pl" points="156.8,363.7 179.2,372.5 201.6,364.8 224.0,326.5 246.4,377.3 268.8,377.4 291.2,375.3 313.6,371.2 336.0,362.3 358.4,398.4 380.8,406.2 403.2,400.7 425.6,391.2 448.0,375.5 470.4,390.4 492.8,403.0 515.2,419.2 537.6,432.1 560.0,434.1 582.4,452.8 604.8,475.5 627.2,471.7 649.6,462.4 672.0,475.9 694.4,472.8 716.8,460.1 739.2,435.9 761.6,414.3 784.0,429.8 806.4,403.8 828.8,412.3 851.2,448.0 873.6,440.5 896.0,476.3" stroke="#000" stroke-width="5.40" stroke-opacity="1.00" fill="none" clip-path="url(#axis_clip)"/>
<g class="pl" fill="#FFF" stroke="#000" stroke-width="0.900">
  <circle cx="179.2" cy="372.5" r="2.2" />
  <circle cx="201.6" cy="364.8" r="2.2" />
  <circle cx="224.0" cy="326.5" r="2.2" />
  <circle cx="246.4" cy="377.3" r="2.2" />
  <circle cx="268.8" cy="377.4" r="2.2" />
  <circle cx="291.2" cy="375.3" r="2.2" />
  <circle cx="313.6" cy="371.2" r="2.2" />
  <circle cx="336.0" cy="362.3" r="2.2" />
  <circle cx="358.4" cy="398.4" r="2.2" />
  <circle cx="403.2" cy="400.7" r="2.2" />
  <circle cx="425.6" cy="391.2" r="2.2" />
  <circle cx="448.0" cy="375.5" r="2.2" />
  <circle cx="470.4" cy="390.4" r="2.2" />
  <circle cx="492.8" cy="403.0" r="2.2" />
  <circle cx="515.2" cy="419.2" r="2.2" />
  <circle cx="537.6" cy="432.1" r="2.2" />
  <circle cx="560.0" cy="434.1" r="2.2" />
  <circle cx="582.4" cy="452.8" r="2.2" />
  <circle cx="627.2" cy="471.7" r="2.2" />
  <circle cx="649.6" cy="462.4" r="2.2" />
  <circle cx="672.0" cy="475.9" r="2.2" />
  <circle cx="694.4" cy="472.8" r="2.2" />
  <circle cx="716.8" cy="460.1" r="2.2" />
  <circle cx="739.2" cy="435.9" r="2.2" />
  <circle cx="761.6" cy="414.3" r="2.2" />
  <circle cx="784.0" cy="429.8" r="2.2" />
  <circle cx="806.4" cy="403.8" r="2.2" />
  <circle cx="851.2" cy="448.0" r="2.2" />
  <circle cx="873.6" cy="440.5" r="2.2" />
  <circle cx="896.0" cy="476.3" r="2.2" />
</g>
<g class="pl" fill="#FFF" stroke="#000" stroke-width="0.900">
  <circle cx="156.8" cy="363.7" r="5.4" />
  <circle cx="380.8" cy="406.2" r="5.4" />
  <circle cx="604.8" cy="475.5" r="5.4" />
  <circle cx="828.8" cy="412.3" r="5.4" />
</g>
<text transform="translate(145.6,47.2)" dy="0.0" font-size="27.00" fill="#808080" stroke="none">Annual LULUCF emissions: Belarus</text>
<text transform="translate(130.0,140.9)" dy="8.1" font-size="27.00" fill="#808080" stroke="none" text-anchor="end">CO<tspan dy="0.2em"><tspan style="font-size:70%">2</tspan></tspan><tspan dy="-0.2em">e</tspan></text>
<text transform="translate(945.6,201.4)" dy="6.5" font-size="21.60" fill="#5AA3D0" stroke="none">Cropland</text>
<text transform="translate(945.6,180.7)" dy="6.5" font-size="21.60" fill="#D95319" stroke="none">Grassland</text>
<text transform="translate(945.6,159.9)" dy="6.5" font-size="21.60" fill="#EDB120" stroke="none">Wetlands</text>
<text transform="translate(945.6,139.2)" dy="6.5" font-size="21.60" fill="#808080" stroke="none">Settlements</text>
<text transform="translate(945.6,118.5)" dy="6.5" font-size="21.60" fill="#7B417F" stroke="none">Other land</text>
<text transform="translate(945.6,97.8)" dy="6.5" font-size="21.60" fill="#1A4D1A" stroke="none">Other</text>
<text transform="translate(945.6,393.6)" dy="6.5" font-size="21.60" fill="#6AB561" stroke="none">Forest land</text>
<text transform="translate(945.6,564.5)" dy="6.5" font-size="21.60" fill="#8B1E40" stroke="none">HWP</text>
<polyline class="pl" points="910.8,190.1 912.4,190.2 913.8,190.3 915.2,190.4 916.4,190.7 917.6,191.0 918.8,191.4 919.8,191.8 920.8,192.2 921.7,192.7 922.7,193.2 923.5,193.7 924.4,194.3 925.2,194.9 926.0,195.5 926.8,196.0 927.6,196.6 928.4,197.2 929.3,197.8 930.1,198.3 931.1,198.8 932.0,199.3 933.0,199.7 934.0,200.1 935.2,200.5 936.4,200.8 937.6,201.1 939.0,201.2 940.4,201.3 942.0,201.4" stroke="#5AA3D0" stroke-width="0.90" stroke-opacity="1.00" fill="none" />
<polyline class="pl" points="910.8,148.5 912.4,148.6 913.8,148.9 915.2,149.5 916.4,150.2 917.6,151.0 918.8,152.1 919.8,153.2 920.8,154.5 921.7,155.9 922.7,157.3 923.5,158.9 924.4,160.5 925.2,162.1 926.0,163.8 926.8,165.4 927.6,167.1 928.4,168.7 929.3,170.3 930.1,171.8 931.1,173.3 932.0,174.7 933.0,175.9 934.0,177.1 935.2,178.1 936.4,179.0 937.6,179.7 939.0,180.2 940.4,180.6 942.0,180.7" stroke="#D95319" stroke-width="0.90" stroke-opacity="1.00" fill="none" />
<polyline class="pl" points="910.8,148.5 912.4,148.5 913.8,148.6 915.2,148.8 916.4,149.1 917.6,149.4 918.8,149.8 919.8,150.2 920.8,150.6 921.7,151.1 922.7,151.6 923.5,152.2 924.4,152.8 925.2,153.3 926.0,153.9 926.8,154.5 927.6,155.1 928.4,155.7 929.3,156.2 930.1,156.8 931.1,157.3 932.0,157.8 933.0,158.3 934.0,158.7 935.2,159.0 936.4,159.3 937.6,159.6 939.0,159.8 940.4,159.9 942.0,159.9" stroke="#EDB120" stroke-width="0.90" stroke-opacity="1.00" fill="none" />
<polyline class="pl" points="910.8,141.5 912.4,141.5 913.8,141.4 915.2,141.4 916.4,141.3 917.6,141.3 918.8,141.2 919.8,141.1 920.8,141.0 921.7,141.0 922.7,140.8 923.5,140.7 924.4,140.6 925.2,140.5 926.0,140.4 926.8,140.3 927.6,140.2 928.4,140.1 929.3,139.9 930.1,139.8 931.1,139.7 932.0,139.6 933.0,139.5 934.0,139.5 935.2,139.4 936.4,139.3 937.6,139.3 939.0,139.2 940.4,139.2 942.0,139.2" stroke="#808080" stroke-width="0.90" stroke-opacity="1.00" fill="none" />
<polyline class="pl" points="910.8,134.5 912.4,134.4 913.8,134.2 915.2,134.0 916.4,133.6 917.6,133.2 918.8,132.7 919.8,132.1 920.8,131.5 921.7,130.8 922.7,130.1 923.5,129.3 924.4,128.5 925.2,127.7 926.0,126.9 926.8,126.1 927.6,125.2 928.4,124.4 929.3,123.6 930.1,122.9 931.1,122.2 932.0,121.5 933.0,120.8 934.0,120.3 935.2,119.8 936.4,119.3 937.6,119.0 939.0,118.7 940.4,118.6 942.0,118.5" stroke="#7B417F" stroke-width="0.90" stroke-opacity="1.00" fill="none" />
<polyline class="pl" points="910.8,134.5 912.4,134.3 913.8,134.0 915.2,133.4 916.4,132.6 917.6,131.6 918.8,130.4 919.8,129.1 920.8,127.6 921.7,126.0 922.7,124.4 923.5,122.6 924.4,120.8 925.2,118.9 926.0,117.1 926.8,115.2 927.6,113.3 928.4,111.4 929.3,109.6 930.1,107.9 931.1,106.2 932.0,104.6 933.0,103.2 934.0,101.8 935.2,100.7 936.4,99.7 937.6,98.9 939.0,98.3 940.4,97.9 942.0,97.8" stroke="#1A4D1A" stroke-width="0.90" stroke-opacity="1.00" fill="none" />
<text transform="translate(160.0,666.1)" font-size="19.80" font-family="Helvetica" fill="#BFBFBF" stroke="none" xml:space="preserve">CICERO   &#9679;   Data: UNFCCC (2025)   &#9679;   HWP = Harvested Wood Products</text>
<g>
  <rect x="123.0" y="651.4" width="34" height="17" fill="#FFF" stroke="none" opacity="0.01"/>
  <g transform="translate(124.0,652.4) scale(0.24)">
  <g><circle fill="#FFF" cx="37.79" cy="28.5" r="28.84"/>
     <circle fill="none" cx="37.79" cy="28.5" r="28.84" stroke="#BFBFBF" stroke-width="5.5"/>
     <path fill="#BFBFBF" d="M37.16,23.19 l-4.29,2.23c-0.458-0.951-1.02-1.62-1.69-2c-0.667-0.38-1.29-0.571-1.86-0.571c-2.86,0-4.29,1.89-4.29,5.66 c0,1.71,0.36,3.08,1.09,4.11c0.724,1.03,1.79,1.54,3.2,1.54c1.87,0,3.18-0.915,3.94-2.74l3.94,2 c-0.838,1.56-2,2.79-3.49,3.69c-1.48,0.896-3.12,1.34-4.91,1.34c-2.86,0-5.16-0.875-6.92-2.63 c-1.75-1.75-2.63-4.19-2.63-7.31c0-3.05,0.886-5.47,2.66-7.26c1.77-1.79,4.01-2.69,6.72-2.69 C32.6,18.56,35.44,20.1,37.16,23.19z
              M55.61,23.19l-4.23,2.23c-0.457-0.951-1.02-1.62-1.69-2 c-0.668-0.38-1.31-0.571-1.91-0.571c-2.86,0-4.29,1.89-4.29,5.66c0,1.71,0.363,3.08,1.09,4.11 c0.723,1.03,1.79,1.54,3.2,1.54c1.87,0,3.18-0.915,3.94-2.74l4,2c-0.875,1.56-2.06,2.79-3.54,3.69 c-1.49,0.9-3.11,1.34-4.86,1.34c-2.9,0-5.21-0.875-6.94-2.63c-1.74-1.75-2.6-4.19-2.6-7.31 c0-3.05,0.885-5.47,2.66-7.26c1.77-1.79,4.01-2.69,6.71-2.69C51.12,18.56,53.944,20.1,55.61,23.19z"/>
  </g></g>
  <g transform="translate(140.2,652.4) scale(0.24)">
  <g><circle fill="#FFF" cx="37.79" cy="28.5" r="28.84"/>
     <circle fill="none" cx="37.79" cy="28.5" r="28.84" stroke="#BFBFBF" stroke-width="5.5"/>
     <path fill="#BFBFBF" d="M46.129,20.557v13.085h-3.656v15.542h-9.944V33.643h-3.656V20.557 c0-0.572,0.2-1.057,0.599-1.457c0.401-0.399,0.887-0.6,1.457-0.6h13.144c0.533,0,1.01,0.2,1.428,0.6 C45.918,19.5,46.129,19.986,46.129,20.557z
              M33.042,12.329c0-3.008,1.485-4.514,4.458-4.514s4.457,1.504,4.457,4.514 c0,2.971-1.486,4.457-4.457,4.457S33.042,15.3,33.042,12.329z"/>
  </g></g>
</g>
</g>
</svg>
