<svg version="1.1" xmlns="http://www.w3.org/2000/svg" xmlns:xlink="http://www.w3.org/1999/xlink" width="100%" height="100%" viewBox="0 0 1200.000 674.916">
<title>Annual N2O Emissions: Costa Rica</title>
<style type="text/css">
  #main {font-family:Helvetica,Arial,sans-serif; font-size:27.00px;
         fill-opacity:1; fill:#000000; stroke:none; stroke-linejoin:round; stroke-linecap:round; stroke-width:1.00;}
  .marker {stroke-opacity:0;fill-opacity:0;}
  .marker:hover {stroke-opacity:0.5; fill-opacity:1;}
  .ticklabel {font-size:27.00px;fill:#808080;stroke:none;font-family:Helvetica}
  .ytl {text-anchor:end;}
  .dp1 {pointer-events:none;font-size:70%;text-anchor:middle;fill:#000000;}
  .dp2 {pointer-events:none;font-size:70%;text-anchor:middle;fill:#FFFFFF;}
  .numtip {pointer-events:none;}
  .cc {opacity:0.25;}
.dl_fe {background-color:#FDFFDF;display:flex;margin:auto;align-items:center}
.dl_fe_p {font-size:20px;text-align:center;margin:3px}
.dl_el {display:none;pointer-events:none;}
.cc:hover + .dl_el {display:block;}
text:hover + .dl_el {display:block;}
</style>
<defs>
  <clipPath id="axis_clip"><rect x="145.8" y="54.2" width="761.2" height="532.8" /></clipPath>
  <path id="line_y" d="M 0,53.993 v 533.183" stroke="#262626" stroke-opacity="0.15" stroke-width="1.00"/>
  <path id="line_x" d="M 145.600,0 h 761.600" stroke="#262626" stroke-opacity="0.15" stroke-width="1.00"/>
  <path id="tick_y" d="M 145.600,0 h -6.000" stroke="#808080" stroke-width="0.90"/>
  <path id="tick_x" d="M 0,587.177 v 6.000" stroke="#808080" stroke-width="0.90"/>
</defs>
<g id="main">
<use xlink:href="#line_y" transform="translate(157.5,0)"/>
<use xlink:href="#line_y" transform="translate(276.5,0)"/>
<use xlink:href="#line_y" transform="translate(395.5,0)"/>
<use xlink:href="#line_y" transform="translate(514.5,0)"/>
<use xlink:href="#line_y" transform="translate(633.5,0)"/>
<use xlink:href="#line_y" transform="translate(752.5,0)"/>
<use xlink:href="#line_y" transform="translate(895.3,0)"/>
<use xlink:href="#line_x" transform="translate(0,587.2)"/>
<use xlink:href="#line_x" transform="translate(0,480.5)"/>
<use xlink:href="#line_x" transform="translate(0,373.9)"/>
<use xlink:href="#line_x" transform="translate(0,267.3)"/>
<use xlink:href="#line_x" transform="translate(0,160.6)"/>
<use xlink:href="#line_x" transform="translate(0,54.0)"/>
<use xlink:href="#tick_y" transform="translate(0,587.2)"/>
<use xlink:href="#tick_y" transform="translate(0,480.5)"/>
<use xlink:href="#tick_y" transform="translate(0,373.9)"/>
<use xlink:href="#tick_y" transform="translate(0,267.3)"/>
<use xlink:href="#tick_y" transform="translate(0,160.6)"/>
<use xlink:href="#tick_y" transform="translate(0,54.0)"/>
<use xlink:href="#tick_x" transform="translate(157.5,0)"/>
<use xlink:href="#tick_x" transform="translate(276.5,0)"/>
<use xlink:href="#tick_x" transform="translate(395.5,0)"/>
<use xlink:href="#tick_x" transform="translate(514.5,0)"/>
<use xlink:href="#tick_x" transform="translate(633.5,0)"/>
<use xlink:href="#tick_x" transform="translate(752.5,0)"/>
<use xlink:href="#tick_x" transform="translate(895.3,0)"/>
<polyline points="145.6,53.993 145.6,587.177 907.2,587.177" stroke="#808080" stroke-width="0.90" fill="none"/>
<text class="ticklabel xtl" transform="translate(157.5,629.0)" text-anchor="middle">1990</text>
<text class="ticklabel xtl" transform="translate(276.5,629.0)" text-anchor="middle">1995</text>
<text class="ticklabel xtl" transform="translate(395.5,629.0)" text-anchor="middle">2000</text>
<text class="ticklabel xtl" transform="translate(514.5,629.0)" text-anchor="middle">2005</text>
<text class="ticklabel xtl" transform="translate(633.5,629.0)" text-anchor="middle">2010</text>
<text class="ticklabel xtl" transform="translate(752.5,629.0)" text-anchor="middle">2015</text>
<text class="ticklabel xtl" transform="translate(895.3,629.0)" text-anchor="middle">2021</text>
<text class="ticklabel ytl" transform="translate(128.8,595.3)">0</text>
<text class="ticklabel ytl" transform="translate(128.8,488.6)">1</text>
<text class="ticklabel ytl" transform="translate(128.8,382.0)">2</text>
<text class="ticklabel ytl" transform="translate(128.8,275.4)">3</text>
<text class="ticklabel ytl" transform="translate(128.8,168.7)">4</text>
<text class="ticklabel ytl" transform="translate(128.8,62.1)">5 kt</text>
<g stroke="#000" stroke-width="0.90" fill="#7FBF7F"  clip-path="url(#axis_clip)">
  <polygon class="pl" points="148.0,126.0 148.0,155.2 167.0,155.2 167.0,126.0 148.0,126.0"/>
  <polygon class="pl" points="171.8,157.6 171.8,181.5 190.8,181.5 190.8,157.6 171.8,157.6"/>
  <polygon class="pl" points="195.6,104.3 195.6,168.8 214.6,168.8 214.6,104.3 195.6,104.3"/>
  <polygon class="pl" points="219.4,139.2 219.4,179.1 238.4,179.1 238.4,139.2 219.4,139.2"/>
  <polygon class="pl" points="243.2,151.6 243.2,190.0 262.2,190.0 262.2,151.6 243.2,151.6"/>
  <polygon class="pl" points="267.0,155.7 267.0,179.0 286.0,179.0 286.0,155.7 267.0,155.7"/>
  <polygon class="pl" points="290.8,230.4 290.8,272.2 309.8,272.2 309.8,230.4 290.8,230.4"/>
  <polygon class="pl" points="314.6,218.2 314.6,258.8 333.6,258.8 333.6,218.2 314.6,218.2"/>
  <polygon class="pl" points="338.4,222.0 338.4,262.5 357.4,262.5 357.4,222.0 338.4,222.0"/>
  <polygon class="pl" points="362.2,229.7 362.2,259.2 381.2,259.2 381.2,229.7 362.2,229.7"/>
  <polygon class="pl" points="386.0,236.2 386.0,266.3 405.0,266.3 405.0,236.2 386.0,236.2"/>
  <polygon class="pl" points="409.8,233.7 409.8,266.5 428.8,266.5 428.8,233.7 409.8,233.7"/>
  <polygon class="pl" points="433.6,229.5 433.6,267.2 452.6,267.2 452.6,229.5 433.6,229.5"/>
  <polygon class="pl" points="457.4,233.7 457.4,265.4 476.4,265.4 476.4,233.7 457.4,233.7"/>
  <polygon class="pl" points="481.2,228.0 481.2,262.8 500.2,262.8 500.2,228.0 481.2,228.0"/>
  <polygon class="pl" points="505.0,234.9 505.0,264.2 524.0,264.2 524.0,234.9 505.0,234.9"/>
  <polygon class="pl" points="528.8,228.7 528.8,257.5 547.8,257.5 547.8,228.7 528.8,228.7"/>
  <polygon class="pl" points="552.6,215.8 552.6,250.4 571.6,250.4 571.6,215.8 552.6,215.8"/>
  <polygon class="pl" points="576.4,220.2 576.4,252.0 595.4,252.0 595.4,220.2 576.4,220.2"/>
  <polygon class="pl" points="600.2,210.6 600.2,245.7 619.2,245.7 619.2,210.6 600.2,210.6"/>
  <polygon class="pl" points="624.0,205.3 624.0,238.2 643.0,238.2 643.0,205.3 624.0,205.3"/>
  <polygon class="pl" points="647.8,225.8 647.8,243.2 666.8,243.2 666.8,225.8 647.8,225.8"/>
  <polygon class="pl" points="671.6,213.2 671.6,242.8 690.6,242.8 690.6,213.2 671.6,213.2"/>
  <polygon class="pl" points="695.4,208.9 695.4,246.8 714.4,246.8 714.4,208.9 695.4,208.9"/>
  <polygon class="pl" points="719.2,236.4 719.2,257.6 738.2,257.6 738.2,236.4 719.2,236.4"/>
  <polygon class="pl" points="743.0,224.8 743.0,254.0 762.0,254.0 762.0,224.8 743.0,224.8"/>
  <polygon class="pl" points="766.8,212.4 766.8,249.7 785.8,249.7 785.8,212.4 766.8,212.4"/>
  <polygon class="pl" points="790.6,228.9 790.6,252.5 809.6,252.5 809.6,228.9 790.6,228.9"/>
  <polygon class="pl" points="814.4,217.6 814.4,249.2 833.4,249.2 833.4,217.6 814.4,217.6"/>
  <polygon class="pl" points="838.2,219.5 838.2,250.3 857.2,250.3 857.2,219.5 838.2,219.5"/>
  <polygon class="pl" points="862.0,241.1 862.0,267.1 881.0,267.1 881.0,241.1 862.0,241.1"/>
  <polygon class="pl" points="885.8,235.9 885.8,258.0 904.8,258.0 904.8,235.9 885.8,235.9"/>
</g>
<g stroke="#000" stroke-width="0.90" fill="#DBA746"  clip-path="url(#axis_clip)">
  <polygon class="pl" points="148.0,155.2 148.0,168.5 167.0,168.5 167.0,155.2 148.0,155.2"/>
  <polygon class="pl" points="171.8,181.5 171.8,195.1 190.8,195.1 190.8,181.5 171.8,181.5"/>
  <polygon class="pl" points="195.6,168.8 195.6,182.8 214.6,182.8 214.6,168.8 195.6,168.8"/>
  <polygon class="pl" points="219.4,179.1 219.4,193.5 238.4,193.5 238.4,179.1 219.4,179.1"/>
  <polygon class="pl" points="243.2,190.0 243.2,204.9 262.2,204.9 262.2,190.0 243.2,190.0"/>
  <polygon class="pl" points="267.0,179.0 267.0,194.3 286.0,194.3 286.0,179.0 267.0,179.0"/>
  <polygon class="pl" points="290.8,272.2 290.8,288.0 309.8,288.0 309.8,272.2 290.8,272.2"/>
  <polygon class="pl" points="314.6,258.8 314.6,274.9 333.6,274.9 333.6,258.8 314.6,258.8"/>
  <polygon class="pl" points="338.4,262.5 338.4,279.1 357.4,279.1 357.4,262.5 338.4,262.5"/>
  <polygon class="pl" points="362.2,259.2 362.2,276.3 381.2,276.3 381.2,259.2 362.2,259.2"/>
  <polygon class="pl" points="386.0,266.3 386.0,283.8 405.0,283.8 405.0,266.3 386.0,266.3"/>
  <polygon class="pl" points="409.8,266.5 409.8,284.4 428.8,284.4 428.8,266.5 409.8,266.5"/>
  <polygon class="pl" points="433.6,267.2 433.6,285.5 452.6,285.5 452.6,267.2 433.6,267.2"/>
  <polygon class="pl" points="457.4,265.4 457.4,284.0 476.4,284.0 476.4,265.4 457.4,265.4"/>
  <polygon class="pl" points="481.2,262.8 481.2,281.7 500.2,281.7 500.2,262.8 481.2,262.8"/>
  <polygon class="pl" points="505.0,264.2 505.0,283.3 524.0,283.3 524.0,264.2 505.0,264.2"/>
  <polygon class="pl" points="528.8,257.5 528.8,277.0 547.8,277.0 547.8,257.5 528.8,257.5"/>
  <polygon class="pl" points="552.6,250.4 552.6,270.2 571.6,270.2 571.6,250.4 552.6,250.4"/>
  <polygon class="pl" points="576.4,252.0 576.4,272.1 595.4,272.1 595.4,252.0 576.4,252.0"/>
  <polygon class="pl" points="600.2,245.7 600.2,266.2 619.2,266.2 619.2,245.7 600.2,245.7"/>
  <polygon class="pl" points="624.0,238.2 624.0,258.9 643.0,258.9 643.0,238.2 624.0,238.2"/>
  <polygon class="pl" points="647.8,243.2 647.8,264.1 666.8,264.1 666.8,243.2 647.8,243.2"/>
  <polygon class="pl" points="671.6,242.8 671.6,263.8 690.6,263.8 690.6,242.8 671.6,242.8"/>
  <polygon class="pl" points="695.4,246.8 695.4,268.1 714.4,268.1 714.4,246.8 695.4,246.8"/>
  <polygon class="pl" points="719.2,257.6 719.2,279.1 738.2,279.1 738.2,257.6 719.2,257.6"/>
  <polygon class="pl" points="743.0,254.0 743.0,275.8 762.0,275.8 762.0,254.0 743.0,254.0"/>
  <polygon class="pl" points="766.8,249.7 766.8,271.8 785.8,271.8 785.8,249.7 766.8,249.7"/>
  <polygon class="pl" points="790.6,252.5 790.6,273.9 809.6,273.9 809.6,252.5 790.6,252.5"/>
  <polygon class="pl" points="814.4,249.2 814.4,270.7 833.4,270.7 833.4,249.2 814.4,249.2"/>
  <polygon class="pl" points="838.2,250.3 838.2,273.6 857.2,273.6 857.2,250.3 838.2,250.3"/>
  <polygon class="pl" points="862.0,267.1 862.0,290.5 881.0,290.5 881.0,267.1 862.0,267.1"/>
  <polygon class="pl" points="885.8,258.0 885.8,281.8 904.8,281.8 904.8,258.0 885.8,258.0"/>
</g>
<g stroke="#000" stroke-width="0.90" fill="#845F48"  clip-path="url(#axis_clip)">
  <polygon class="pl" points="148.0,168.5 148.0,496.1 167.0,496.1 167.0,168.5 148.0,168.5"/>
  <polygon class="pl" points="171.8,195.1 171.8,504.2 190.8,504.2 190.8,195.1 171.8,195.1"/>
  <polygon class="pl" points="195.6,182.8 195.6,482.6 214.6,482.6 214.6,182.8 195.6,182.8"/>
  <polygon class="pl" points="219.4,193.5 219.4,492.2 238.4,492.2 238.4,193.5 219.4,193.5"/>
  <polygon class="pl" points="243.2,204.9 243.2,500.9 262.2,500.9 262.2,204.9 243.2,204.9"/>
  <polygon class="pl" points="267.0,194.3 267.0,484.2 286.0,484.2 286.0,194.3 267.0,194.3"/>
  <polygon class="pl" points="290.8,288.0 290.8,470.2 309.8,470.2 309.8,288.0 290.8,288.0"/>
  <polygon class="pl" points="314.6,274.9 314.6,556.7 333.6,556.7 333.6,274.9 314.6,274.9"/>
  <polygon class="pl" points="338.4,279.1 338.4,554.0 357.4,554.0 357.4,279.1 338.4,279.1"/>
  <polygon class="pl" points="362.2,276.3 362.2,552.7 381.2,552.7 381.2,276.3 362.2,276.3"/>
  <polygon class="pl" points="386.0,283.8 386.0,552.9 405.0,552.9 405.0,283.8 386.0,283.8"/>
  <polygon class="pl" points="409.8,284.4 409.8,551.8 428.8,551.8 428.8,284.4 409.8,284.4"/>
  <polygon class="pl" points="433.6,285.5 433.6,549.9 452.6,549.9 452.6,285.5 433.6,285.5"/>
  <polygon class="pl" points="457.4,284.0 457.4,548.8 476.4,548.8 476.4,284.0 457.4,284.0"/>
  <polygon class="pl" points="481.2,281.7 481.2,547.3 500.2,547.3 500.2,281.7 481.2,281.7"/>
  <polygon class="pl" points="505.0,283.3 505.0,546.5 524.0,546.5 524.0,283.3 505.0,283.3"/>
  <polygon class="pl" points="528.8,277.0 528.8,542.7 547.8,542.7 547.8,277.0 528.8,277.0"/>
  <polygon class="pl" points="552.6,270.2 552.6,539.2 571.6,539.2 571.6,270.2 552.6,270.2"/>
  <polygon class="pl" points="576.4,272.1 576.4,539.3 595.4,539.3 595.4,272.1 576.4,272.1"/>
  <polygon class="pl" points="600.2,266.2 600.2,539.9 619.2,539.9 619.2,266.2 600.2,266.2"/>
  <polygon class="pl" points="624.0,258.9 624.0,539.2 643.0,539.2 643.0,258.9 624.0,258.9"/>
  <polygon class="pl" points="647.8,264.1 647.8,543.4 666.8,543.4 666.8,264.1 647.8,264.1"/>
  <polygon class="pl" points="671.6,263.8 671.6,543.6 690.6,543.6 690.6,263.8 671.6,263.8"/>
  <polygon class="pl" points="695.4,268.1 695.4,543.2 714.4,543.2 714.4,268.1 695.4,268.1"/>
  <polygon class="pl" points="719.2,279.1 719.2,542.9 738.2,542.9 738.2,279.1 719.2,279.1"/>
  <polygon class="pl" points="743.0,275.8 743.0,541.9 762.0,541.9 762.0,275.8 743.0,275.8"/>
  <polygon class="pl" points="766.8,271.8 766.8,541.9 785.8,541.9 785.8,271.8 766.8,271.8"/>
  <polygon class="pl" points="790.6,273.9 790.6,540.8 809.6,540.8 809.6,273.9 790.6,273.9"/>
  <polygon class="pl" points="814.4,270.7 814.4,540.6 833.4,540.6 833.4,270.7 814.4,270.7"/>
  <polygon class="pl" points="838.2,273.6 838.2,540.7 857.2,540.7 857.2,273.6 838.2,273.6"/>
  <polygon class="pl" points="862.0,290.5 862.0,546.7 881.0,546.7 881.0,290.5 862.0,290.5"/>
  <polygon class="pl" points="885.8,281.8 885.8,540.8 904.8,540.8 904.8,281.8 885.8,281.8"/>
</g>
<g stroke="#000" stroke-width="0.90" fill="#4A89E8"  clip-path="url(#axis_clip)">
  <polygon class="pl" points="148.0,496.1 148.0,564.1 167.0,564.1 167.0,496.1 148.0,496.1"/>
  <polygon class="pl" points="171.8,504.2 171.8,563.9 190.8,563.9 190.8,504.2 171.8,504.2"/>
  <polygon class="pl" points="195.6,482.6 195.6,562.1 214.6,562.1 214.6,482.6 195.6,482.6"/>
  <polygon class="pl" points="219.4,492.2 219.4,561.3 238.4,561.3 238.4,492.2 219.4,492.2"/>
  <polygon class="pl" points="243.2,500.9 243.2,559.0 262.2,559.0 262.2,500.9 243.2,500.9"/>
  <polygon class="pl" points="267.0,484.2 267.0,557.7 286.0,557.7 286.0,484.2 267.0,484.2"/>
  <polygon class="pl" points="290.8,470.2 290.8,557.1 309.8,557.1 309.8,470.2 290.8,470.2"/>
</g>
<g stroke="#000" stroke-width="0.90" fill="#FF7F61"  clip-path="url(#axis_clip)">
  <polygon class="pl" points="148.0,564.1 148.0,587.2 167.0,587.2 167.0,564.1 148.0,564.1"/>
  <polygon class="pl" points="171.8,563.9 171.8,587.2 190.8,587.2 190.8,563.9 171.8,563.9"/>
  <polygon class="pl" points="195.6,562.1 195.6,587.2 214.6,587.2 214.6,562.1 195.6,562.1"/>
  <polygon class="pl" points="219.4,561.3 219.4,587.2 238.4,587.2 238.4,561.3 219.4,561.3"/>
  <polygon class="pl" points="243.2,559.0 243.2,587.2 262.2,587.2 262.2,559.0 243.2,559.0"/>
  <polygon class="pl" points="267.0,557.7 267.0,587.2 286.0,587.2 286.0,557.7 267.0,557.7"/>
  <polygon class="pl" points="290.8,557.1 290.8,587.2 309.8,587.2 309.8,557.1 290.8,557.1"/>
  <polygon class="pl" points="314.6,556.7 314.6,587.2 333.6,587.2 333.6,556.7 314.6,556.7"/>
  <polygon class="pl" points="338.4,554.0 338.4,587.2 357.4,587.2 357.4,554.0 338.4,554.0"/>
  <polygon class="pl" points="362.2,552.7 362.2,587.2 381.2,587.2 381.2,552.7 362.2,552.7"/>
  <polygon class="pl" points="386.0,552.9 386.0,587.2 405.0,587.2 405.0,552.9 386.0,552.9"/>
  <polygon class="pl" points="409.8,551.8 409.8,587.2 428.8,587.2 428.8,551.8 409.8,551.8"/>
  <polygon class="pl" points="433.6,549.9 433.6,587.2 452.6,587.2 452.6,549.9 433.6,549.9"/>
  <polygon class="pl" points="457.4,548.8 457.4,587.2 476.4,587.2 476.4,548.8 457.4,548.8"/>
  <polygon class="pl" points="481.2,547.3 481.2,587.2 500.2,587.2 500.2,547.3 481.2,547.3"/>
  <polygon class="pl" points="505.0,546.5 505.0,587.2 524.0,587.2 524.0,546.5 505.0,546.5"/>
  <polygon class="pl" points="528.8,542.7 528.8,587.2 547.8,587.2 547.8,542.7 528.8,542.7"/>
  <polygon class="pl" points="552.6,539.2 552.6,587.2 571.6,587.2 571.6,539.2 552.6,539.2"/>
  <polygon class="pl" points="576.4,539.3 576.4,587.2 595.4,587.2 595.4,539.3 576.4,539.3"/>
  <polygon class="pl" points="600.2,539.9 600.2,587.2 619.2,587.2 619.2,539.9 600.2,539.9"/>
  <polygon class="pl" points="624.0,539.2 624.0,587.2 643.0,587.2 643.0,539.2 624.0,539.2"/>
  <polygon class="pl" points="647.8,543.4 647.8,587.2 666.8,587.2 666.8,543.4 647.8,543.4"/>
  <polygon class="pl" points="671.6,543.6 671.6,587.2 690.6,587.2 690.6,543.6 671.6,543.6"/>
  <polygon class="pl" points="695.4,543.2 695.4,587.2 714.4,587.2 714.4,543.2 695.4,543.2"/>
  <polygon class="pl" points="719.2,542.9 719.2,587.2 738.2,587.2 738.2,542.9 719.2,542.9"/>
  <polygon class="pl" points="743.0,541.9 743.0,587.2 762.0,587.2 762.0,541.9 743.0,541.9"/>
  <polygon class="pl" points="766.8,541.9 766.8,587.2 785.8,587.2 785.8,541.9 766.8,541.9"/>
  <polygon class="pl" points="790.6,540.8 790.6,587.2 809.6,587.2 809.6,540.8 790.6,540.8"/>
  <polygon class="pl" points="814.4,540.6 814.4,587.2 833.4,587.2 833.4,540.6 814.4,540.6"/>
  <polygon class="pl" points="838.2,540.7 838.2,587.2 857.2,587.2 857.2,540.7 838.2,540.7"/>
  <polygon class="pl" points="862.0,546.7 862.0,587.2 881.0,587.2 881.0,546.7 862.0,546.7"/>
  <polygon class="pl" points="885.8,540.8 885.8,587.2 904.8,587.2 904.8,540.8 885.8,540.8"/>
</g>
<polyline class="pl" points="157.5,126.0 181.3,157.6 205.1,104.3 228.9,139.2 252.7,151.6 276.5,155.7 300.3,230.4 324.1,218.2 347.9,222.0 371.7,229.7 395.5,236.2 419.3,233.7 443.1,229.5 466.9,233.7 490.7,228.0 514.5,234.9 538.3,228.7 562.1,215.8 585.9,220.2 609.7,210.6 633.5,205.3 657.3,225.8 681.1,213.2 704.9,208.9 728.7,236.4 752.5,224.8 776.3,212.4 800.1,228.9 823.9,217.6 847.7,219.5 871.5,241.1 895.3,235.9" stroke="#000" stroke-width="5.40" stroke-opacity="1.00" fill="none" clip-path="url(#axis_clip)"/>
<g class="pl" fill="#FFF" stroke="#000" stroke-width="0.900">
  <circle cx="181.3" cy="157.6" r="2.2" />
  <circle cx="205.1" cy="104.3" r="2.2" />
  <circle cx="228.9" cy="139.2" r="2.2" />
  <circle cx="252.7" cy="151.6" r="2.2" />
  <circle cx="276.5" cy="155.7" r="2.2" />
  <circle cx="300.3" cy="230.4" r="2.2" />
  <circle cx="324.1" cy="218.2" r="2.2" />
  <circle cx="347.9" cy="222.0" r="2.2" />
  <circle cx="371.7" cy="229.7" r="2.2" />
  <circle cx="419.3" cy="233.7" r="2.2" />
  <circle cx="443.1" cy="229.5" r="2.2" />
  <circle cx="466.9" cy="233.7" r="2.2" />
  <circle cx="490.7" cy="228.0" r="2.2" />
  <circle cx="514.5" cy="234.9" r="2.2" />
  <circle cx="538.3" cy="228.7" r="2.2" />
  <circle cx="562.1" cy="215.8" r="2.2" />
  <circle cx="585.9" cy="220.2" r="2.2" />
  <circle cx="609.7" cy="210.6" r="2.2" />
  <circle cx="657.3" cy="225.8" r="2.2" />
  <circle cx="681.1" cy="213.2" r="2.2" />
  <circle cx="704.9" cy="208.9" r="2.2" />
  <circle cx="728.7" cy="236.4" r="2.2" />
  <circle cx="752.5" cy="224.8" r="2.2" />
  <circle cx="776.3" cy="212.4" r="2.2" />
  <circle cx="800.1" cy="228.9" r="2.2" />
  <circle cx="823.9" cy="217.6" r="2.2" />
  <circle cx="847.7" cy="219.5" r="2.2" />
  <circle cx="895.3" cy="235.9" r="2.2" />
</g>
<g class="pl" fill="#FFF" stroke="#000" stroke-width="0.900">
  <circle cx="157.5" cy="126.0" r="5.4" />
  <circle cx="395.5" cy="236.2" r="5.4" />
  <circle cx="633.5" cy="205.3" r="5.4" />
  <circle cx="871.5" cy="241.1" r="5.4" />
</g>
<text transform="translate(145.6,47.2)" dy="0.0" font-size="27.00" fill="#808080" stroke="none">Annual N<tspan dy="0.2em"><tspan style="font-size:70%">2</tspan></tspan><tspan dy="-0.2em">O</tspan> Emissions: Costa Rica</text>
<text transform="translate(130.0,81.6)" dy="8.1" font-size="27.00" fill="#808080" stroke="none" text-anchor="end">N<tspan dy="0.2em"><tspan style="font-size:70%">2</tspan></tspan><tspan dy="-0.2em">O</tspan></text>
<text transform="translate(945.6,235.9)" dy="7.6" font-size="25.20" fill="#000" stroke="none">-23.8% since 1990</text>
<text transform="translate(945.6,564.0)" dy="7.6" font-size="25.20" fill="#FF7F61" stroke="none">Energy</text>
<text transform="translate(945.6,497.4)" dy="7.6" font-size="25.20" fill="#4A89E8" stroke="none">Industrial Processes</text>
<text transform="translate(945.6,324.5)" dy="7.6" font-size="25.20" fill="#845F48" stroke="none">Agriculture</text>
<text transform="translate(945.6,184.1)" dy="7.6" font-size="25.20" fill="#DBA746" stroke="none">Waste</text>
<text transform="translate(945.6,159.0)" dy="7.6" font-size="25.20" fill="#7FBF7F" stroke="none">LULUCF</text>
<polyline class="pl" points="910.8,183.0 912.4,183.0 913.8,183.1 915.2,183.1 916.4,183.1 917.6,183.1 918.8,183.2 919.8,183.2 920.8,183.2 921.7,183.3 922.7,183.3 923.5,183.4 924.4,183.4 925.2,183.5 926.0,183.5 926.8,183.6 927.6,183.6 928.4,183.7 929.3,183.7 930.1,183.8 931.1,183.8 932.0,183.9 933.0,183.9 934.0,184.0 935.2,184.0 936.4,184.0 937.6,184.0 939.0,184.1 940.4,184.1 942.0,184.1" stroke="#DBA746" stroke-width="0.90" stroke-opacity="1.00" fill="none" />
<polyline class="pl" points="910.8,160.1 912.4,160.1 913.8,160.1 915.2,160.0 916.4,160.0 917.6,160.0 918.8,160.0 919.8,159.9 920.8,159.9 921.7,159.8 922.7,159.8 923.5,159.7 924.4,159.7 925.2,159.6 926.0,159.6 926.8,159.5 927.6,159.5 928.4,159.4 929.3,159.4 930.1,159.3 931.1,159.3 932.0,159.2 933.0,159.2 934.0,159.2 935.2,159.1 936.4,159.1 937.6,159.1 939.0,159.1 940.4,159.0 942.0,159.0" stroke="#7FBF7F" stroke-width="0.90" stroke-opacity="1.00" fill="none" />
<text transform="translate(160.0,666.1)" font-size="19.80" font-family="Helvetica" fill="#BFBFBF" stroke="none" xml:space="preserve">CICERO   &#9679;   Data: UNFCCC (2024)</text>
<g>
  <rect x="123.0" y="651.4" width="34" height="17" fill="#FFF" stroke="none" opacity="0.01"/>
  <g transform="translate(124.0,652.4) scale(0.24)">
  <g><circle fill="#FFF" cx="37.79" cy="28.5" r="28.84"/>
     <circle fill="none" cx="37.79" cy="28.5" r="28.84" stroke="#BFBFBF" stroke-width="5.5"/>
     <path fill="#BFBFBF" d="M37.16,23.19 l-4.29,2.23c-0.458-0.951-1.02-1.62-1.69-2c-0.667-0.38-1.29-0.571-1.86-0.571c-2.86,0-4.29,1.89-4.29,5.66 c0,1.71,0.36,3.08,1.09,4.11c0.724,1.03,1.79,1.54,3.2,1.54c1.87,0,3.18-0.915,3.94-2.74l3.94,2 c-0.838,1.56-2,2.79-3.49,3.69c-1.48,0.896-3.12,1.34-4.91,1.34c-2.86,0-5.16-0.875-6.92-2.63 c-1.75-1.75-2.63-4.19-2.63-7.31c0-3.05,0.886-5.47,2.66-7.26c1.77-1.79,4.01-2.69,6.72-2.69 C32.6,18.56,35.44,20.1,37.16,23.19z
              M55.61,23.19l-4.23,2.23c-0.457-0.951-1.02-1.62-1.69-2 c-0.668-0.38-1.31-0.571-1.91-0.571c-2.86,0-4.29,1.89-4.29,5.66c0,1.71,0.363,3.08,1.09,4.11 c0.723,1.03,1.79,1.54,3.2,1.54c1.87,0,3.18-0.915,3.94-2.74l4,2c-0.875,1.56-2.06,2.79-3.54,3.69 c-1.49,0.9-3.11,1.34-4.86,1.34c-2.9,0-5.21-0.875-6.94-2.63c-1.74-1.75-2.6-4.19-2.6-7.31 c0-3.05,0.885-5.47,2.66-7.26c1.77-1.79,4.01-2.69,6.71-2.69C51.12,18.56,53.944,20.1,55.61,23.19z"/>
  </g></g>
  <g transform="translate(140.2,652.4) scale(0.24)">
  <g><circle fill="#FFF" cx="37.79" cy="28.5" r="28.84"/>
     <circle fill="none" cx="37.79" cy="28.5" r="28.84" stroke="#BFBFBF" stroke-width="5.5"/>
     <path fill="#BFBFBF" d="M46.129,20.557v13.085h-3.656v15.542h-9.944V33.643h-3.656V20.557 c0-0.572,0.2-1.057,0.599-1.457c0.401-0.399,0.887-0.6,1.457-0.6h13.144c0.533,0,1.01,0.2,1.428,0.6 C45.918,19.5,46.129,19.986,46.129,20.557z
              M33.042,12.329c0-3.008,1.485-4.514,4.458-4.514s4.457,1.504,4.457,4.514 c0,2.971-1.486,4.457-4.457,4.457S33.042,15.3,33.042,12.329z"/>
  </g></g>
</g>
</g>
</svg>
