<svg version="1.1" xmlns="http://www.w3.org/2000/svg" xmlns:xlink="http://www.w3.org/1999/xlink" width="100%" height="100%" viewBox="0 0 1200.000 674.916">
<title>Annual Greenhouse Gas Emissions: Costa Rica</title>
<style type="text/css">
  #main {font-family:Helvetica,Arial,sans-serif; font-size:27.00px;
         fill-opacity:1; fill:#000000; stroke:none; stroke-linejoin:round; stroke-linecap:round; stroke-width:1.00;}
  .marker {stroke-opacity:0;fill-opacity:0;}
  .marker:hover {stroke-opacity:0.5; fill-opacity:1;}
  .ticklabel {font-size:27.00px;fill:#808080;stroke:none;font-family:Helvetica}
  .ytl {text-anchor:end;}
  .dp1 {pointer-events:none;font-size:70%;text-anchor:middle;fill:#000000;}
  .dp2 {pointer-events:none;font-size:70%;text-anchor:middle;fill:#FFFFFF;}
  .numtip {pointer-events:none;}
  .cc {opacity:0.25;}
.dl_fe {background-color:#FDFFDF;display:flex;margin:auto;align-items:center}
.dl_fe_p {font-size:20px;text-align:center;margin:3px}
.dl_el {display:none;pointer-events:none;}
.cc:hover + .dl_el {display:block;}
text:hover + .dl_el {display:block;}
</style>
<defs>
  <clipPath id="axis_clip"><rect x="145.8" y="54.2" width="761.2" height="532.8" /></clipPath>
  <path id="line_y" d="M 0,53.993 v 533.183" stroke="#262626" stroke-opacity="0.15" stroke-width="1.00"/>
  <path id="line_x" d="M 145.600,0 h 761.600" stroke="#262626" stroke-opacity="0.15" stroke-width="1.00"/>
  <path id="tick_y" d="M 145.600,0 h -6.000" stroke="#808080" stroke-width="0.90"/>
  <path id="tick_x" d="M 0,587.177 v 6.000" stroke="#808080" stroke-width="0.90"/>
</defs>
<g id="main">
<use xlink:href="#line_y" transform="translate(157.5,0)"/>
<use xlink:href="#line_y" transform="translate(276.5,0)"/>
<use xlink:href="#line_y" transform="translate(395.5,0)"/>
<use xlink:href="#line_y" transform="translate(514.5,0)"/>
<use xlink:href="#line_y" transform="translate(633.5,0)"/>
<use xlink:href="#line_y" transform="translate(752.5,0)"/>
<use xlink:href="#line_y" transform="translate(895.3,0)"/>
<use xlink:href="#line_x" transform="translate(0,527.9)"/>
<use xlink:href="#line_x" transform="translate(0,409.4)"/>
<use xlink:href="#line_x" transform="translate(0,291.0)"/>
<use xlink:href="#line_x" transform="translate(0,172.5)"/>
<use xlink:href="#line_x" transform="translate(0,54.0)"/>
<use xlink:href="#tick_y" transform="translate(0,527.9)"/>
<use xlink:href="#tick_y" transform="translate(0,409.4)"/>
<use xlink:href="#tick_y" transform="translate(0,291.0)"/>
<use xlink:href="#tick_y" transform="translate(0,172.5)"/>
<use xlink:href="#tick_y" transform="translate(0,54.0)"/>
<use xlink:href="#tick_x" transform="translate(157.5,0)"/>
<use xlink:href="#tick_x" transform="translate(276.5,0)"/>
<use xlink:href="#tick_x" transform="translate(395.5,0)"/>
<use xlink:href="#tick_x" transform="translate(514.5,0)"/>
<use xlink:href="#tick_x" transform="translate(633.5,0)"/>
<use xlink:href="#tick_x" transform="translate(752.5,0)"/>
<use xlink:href="#tick_x" transform="translate(895.3,0)"/>
<polyline points="145.6,53.993 145.6,587.177 907.2,587.177" stroke="#808080" stroke-width="0.90" fill="none"/>
<text class="ticklabel xtl" transform="translate(157.5,629.0)" text-anchor="middle">1990</text>
<text class="ticklabel xtl" transform="translate(276.5,629.0)" text-anchor="middle">1995</text>
<text class="ticklabel xtl" transform="translate(395.5,629.0)" text-anchor="middle">2000</text>
<text class="ticklabel xtl" transform="translate(514.5,629.0)" text-anchor="middle">2005</text>
<text class="ticklabel xtl" transform="translate(633.5,629.0)" text-anchor="middle">2010</text>
<text class="ticklabel xtl" transform="translate(752.5,629.0)" text-anchor="middle">2015</text>
<text class="ticklabel xtl" transform="translate(895.3,629.0)" text-anchor="middle">2021</text>
<text class="ticklabel ytl" transform="translate(128.8,536.0)">0</text>
<text class="ticklabel ytl" transform="translate(128.8,417.5)">10</text>
<text class="ticklabel ytl" transform="translate(128.8,299.1)">20</text>
<text class="ticklabel ytl" transform="translate(128.8,180.6)">30</text>
<text class="ticklabel ytl" transform="translate(128.8,62.1)">40 Mt</text>
<g stroke="#000" stroke-width="0.90" fill="#7FBF7F"  clip-path="url(#axis_clip)">
  <polygon class="pl" points="148.0,91.8 148.0,421.2 167.0,421.2 167.0,91.8 148.0,91.8"/>
  <polygon class="pl" points="171.8,162.1 171.8,423.5 190.8,423.5 190.8,162.1 171.8,162.1"/>
  <polygon class="pl" points="195.6,222.0 195.6,414.9 214.6,414.9 214.6,222.0 195.6,222.0"/>
  <polygon class="pl" points="219.4,284.0 219.4,413.8 238.4,413.8 238.4,284.0 219.4,284.0"/>
  <polygon class="pl" points="243.2,287.9 243.2,405.0 262.2,405.0 262.2,287.9 243.2,287.9"/>
  <polygon class="pl" points="267.0,325.0 267.0,404.4 286.0,404.4 286.0,325.0 267.0,325.0"/>
  <polygon class="pl" points="290.8,302.0 290.8,409.0 309.8,409.0 309.8,302.0 290.8,302.0"/>
  <polygon class="pl" points="314.6,307.4 314.6,408.7 333.6,408.7 333.6,307.4 314.6,307.4"/>
  <polygon class="pl" points="338.4,239.8 338.4,402.2 357.4,402.2 357.4,239.8 338.4,239.8"/>
  <polygon class="pl" points="362.2,264.0 362.2,400.4 381.2,400.4 381.2,264.0 362.2,264.0"/>
  <polygon class="pl" points="386.0,264.6 386.0,399.5 405.0,399.5 405.0,264.6 386.0,264.6"/>
  <polygon class="pl" points="409.8,375.5 409.8,395.2 428.8,395.2 428.8,375.5 409.8,375.5"/>
  <polygon class="pl" points="433.6,362.9 433.6,392.1 452.6,392.1 452.6,362.9 433.6,362.9"/>
  <polygon class="pl" points="457.4,359.3 457.4,386.9 476.4,386.9 476.4,359.3 457.4,359.3"/>
  <polygon class="pl" points="481.2,345.6 481.2,386.7 500.2,386.7 500.2,345.6 481.2,345.6"/>
  <polygon class="pl" points="505.0,346.4 505.0,383.3 524.0,383.3 524.0,346.4 505.0,346.4"/>
  <polygon class="pl" points="528.8,335.6 528.8,375.4 547.8,375.4 547.8,335.6 528.8,335.6"/>
  <polygon class="pl" points="552.6,310.9 552.6,364.9 571.6,364.9 571.6,310.9 552.6,310.9"/>
  <polygon class="pl" points="576.4,325.2 576.4,364.3 595.4,364.3 595.4,325.2 576.4,325.2"/>
  <polygon class="pl" points="600.2,331.7 600.2,365.9 619.2,365.9 619.2,331.7 600.2,331.7"/>
  <polygon class="pl" points="624.0,332.5 624.0,360.6 643.0,360.6 643.0,332.5 624.0,332.5"/>
  <polygon class="pl" points="647.8,344.2 647.8,356.2 666.8,356.2 666.8,344.2 647.8,344.2"/>
  <polygon class="pl" points="671.6,286.5 671.6,359.5 690.6,359.5 690.6,286.5 671.6,286.5"/>
  <polygon class="pl" points="695.4,294.0 695.4,355.7 714.4,355.7 714.4,294.0 695.4,294.0"/>
</g>
<g stroke="#000" stroke-width="0.90" fill="#DBA746"  clip-path="url(#axis_clip)">
  <polygon class="pl" points="148.0,421.2 148.0,421.2 167.0,421.2 167.0,421.2 148.0,421.2"/>
  <polygon class="pl" points="171.8,423.5 171.8,423.5 190.8,423.5 190.8,423.5 171.8,423.5"/>
  <polygon class="pl" points="195.6,414.9 195.6,415.0 214.6,415.0 214.6,414.9 195.6,414.9"/>
  <polygon class="pl" points="219.4,413.8 219.4,413.9 238.4,413.9 238.4,413.8 219.4,413.8"/>
  <polygon class="pl" points="243.2,405.0 243.2,405.0 262.2,405.0 262.2,405.0 243.2,405.0"/>
  <polygon class="pl" points="267.0,404.4 267.0,404.4 286.0,404.4 286.0,404.4 267.0,404.4"/>
  <polygon class="pl" points="290.8,409.0 290.8,409.1 309.8,409.1 309.8,409.0 290.8,409.0"/>
  <polygon class="pl" points="314.6,408.7 314.6,408.8 333.6,408.8 333.6,408.7 314.6,408.7"/>
  <polygon class="pl" points="338.4,402.2 338.4,402.4 357.4,402.4 357.4,402.2 338.4,402.2"/>
  <polygon class="pl" points="362.2,400.4 362.2,400.7 381.2,400.7 381.2,400.4 362.2,400.4"/>
  <polygon class="pl" points="386.0,399.5 386.0,400.3 405.0,400.3 405.0,399.5 386.0,399.5"/>
  <polygon class="pl" points="409.8,395.2 409.8,396.0 428.8,396.0 428.8,395.2 409.8,395.2"/>
  <polygon class="pl" points="433.6,392.1 433.6,393.0 452.6,393.0 452.6,392.1 433.6,392.1"/>
  <polygon class="pl" points="457.4,386.9 457.4,387.9 476.4,387.9 476.4,386.9 457.4,386.9"/>
  <polygon class="pl" points="481.2,386.7 481.2,388.0 500.2,388.0 500.2,386.7 481.2,386.7"/>
  <polygon class="pl" points="505.0,383.3 505.0,384.6 524.0,384.6 524.0,383.3 505.0,383.3"/>
  <polygon class="pl" points="528.8,375.4 528.8,376.8 547.8,376.8 547.8,375.4 528.8,375.4"/>
  <polygon class="pl" points="552.6,364.9 552.6,366.6 571.6,366.6 571.6,364.9 552.6,364.9"/>
  <polygon class="pl" points="576.4,364.3 576.4,366.6 595.4,366.6 595.4,364.3 576.4,364.3"/>
  <polygon class="pl" points="600.2,365.9 600.2,368.3 619.2,368.3 619.2,365.9 600.2,365.9"/>
  <polygon class="pl" points="624.0,360.6 624.0,363.7 643.0,363.7 643.0,360.6 624.0,360.6"/>
  <polygon class="pl" points="647.8,356.2 647.8,359.6 666.8,359.6 666.8,356.2 647.8,356.2"/>
  <polygon class="pl" points="671.6,359.5 671.6,363.6 690.6,363.6 690.6,359.5 671.6,359.5"/>
  <polygon class="pl" points="695.4,355.7 695.4,360.8 714.4,360.8 714.4,355.7 695.4,355.7"/>
  <polygon class="pl" points="719.2,354.2 719.2,362.0 738.2,362.0 738.2,354.2 719.2,354.2"/>
  <polygon class="pl" points="743.0,356.9 743.0,364.7 762.0,364.7 762.0,356.9 743.0,356.9"/>
  <polygon class="pl" points="766.8,349.0 766.8,357.0 785.8,357.0 785.8,349.0 766.8,349.0"/>
  <polygon class="pl" points="790.6,343.9 790.6,352.3 809.6,352.3 809.6,343.9 790.6,343.9"/>
  <polygon class="pl" points="814.4,339.9 814.4,349.7 833.4,349.7 833.4,339.9 814.4,339.9"/>
  <polygon class="pl" points="838.2,339.1 838.2,350.0 857.2,350.0 857.2,339.1 838.2,339.1"/>
  <polygon class="pl" points="862.0,354.6 862.0,365.9 881.0,365.9 881.0,354.6 862.0,354.6"/>
  <polygon class="pl" points="885.8,336.5 885.8,348.4 904.8,348.4 904.8,336.5 885.8,336.5"/>
</g>
<g stroke="#000" stroke-width="0.90" fill="#845F48"  clip-path="url(#axis_clip)">
  <polygon class="pl" points="148.0,421.2 148.0,434.8 167.0,434.8 167.0,421.2 148.0,421.2"/>
  <polygon class="pl" points="171.8,423.5 171.8,436.1 190.8,436.1 190.8,423.5 171.8,423.5"/>
  <polygon class="pl" points="195.6,415.0 195.6,429.2 214.6,429.2 214.6,415.0 195.6,415.0"/>
  <polygon class="pl" points="219.4,413.9 219.4,427.0 238.4,427.0 238.4,413.9 219.4,413.9"/>
  <polygon class="pl" points="243.2,405.0 243.2,417.8 262.2,417.8 262.2,405.0 243.2,405.0"/>
  <polygon class="pl" points="267.0,404.4 267.0,417.2 286.0,417.2 286.0,404.4 267.0,404.4"/>
  <polygon class="pl" points="290.8,409.1 290.8,419.6 309.8,419.6 309.8,409.1 290.8,409.1"/>
  <polygon class="pl" points="314.6,408.8 314.6,419.7 333.6,419.7 333.6,408.8 314.6,408.8"/>
  <polygon class="pl" points="338.4,402.4 338.4,413.2 357.4,413.2 357.4,402.4 338.4,402.4"/>
  <polygon class="pl" points="362.2,400.7 362.2,411.2 381.2,411.2 381.2,400.7 362.2,400.7"/>
  <polygon class="pl" points="386.0,400.3 386.0,410.7 405.0,410.7 405.0,400.3 386.0,400.3"/>
  <polygon class="pl" points="409.8,396.0 409.8,406.5 428.8,406.5 428.8,396.0 409.8,396.0"/>
  <polygon class="pl" points="433.6,393.0 433.6,403.5 452.6,403.5 452.6,393.0 433.6,393.0"/>
  <polygon class="pl" points="457.4,387.9 457.4,398.3 476.4,398.3 476.4,387.9 457.4,387.9"/>
  <polygon class="pl" points="481.2,388.0 481.2,398.5 500.2,398.5 500.2,388.0 481.2,388.0"/>
  <polygon class="pl" points="505.0,384.6 505.0,395.0 524.0,395.0 524.0,384.6 505.0,384.6"/>
  <polygon class="pl" points="528.8,376.8 528.8,387.3 547.8,387.3 547.8,376.8 528.8,376.8"/>
  <polygon class="pl" points="552.6,366.6 552.6,377.5 571.6,377.5 571.6,366.6 552.6,366.6"/>
  <polygon class="pl" points="576.4,366.6 576.4,377.4 595.4,377.4 595.4,366.6 576.4,366.6"/>
  <polygon class="pl" points="600.2,368.3 600.2,379.3 619.2,379.3 619.2,368.3 600.2,368.3"/>
  <polygon class="pl" points="624.0,363.7 624.0,374.9 643.0,374.9 643.0,363.7 624.0,363.7"/>
  <polygon class="pl" points="647.8,359.6 647.8,370.3 666.8,370.3 666.8,359.6 647.8,359.6"/>
  <polygon class="pl" points="671.6,363.6 671.6,374.6 690.6,374.6 690.6,363.6 671.6,363.6"/>
  <polygon class="pl" points="695.4,360.8 695.4,371.9 714.4,371.9 714.4,360.8 695.4,360.8"/>
  <polygon class="pl" points="719.2,362.0 719.2,372.3 738.2,372.3 738.2,362.0 719.2,362.0"/>
  <polygon class="pl" points="743.0,364.7 743.0,375.4 762.0,375.4 762.0,364.7 743.0,364.7"/>
  <polygon class="pl" points="766.8,357.0 766.8,368.0 785.8,368.0 785.8,357.0 766.8,357.0"/>
  <polygon class="pl" points="790.6,352.3 790.6,362.8 809.6,362.8 809.6,352.3 790.6,352.3"/>
  <polygon class="pl" points="814.4,349.7 814.4,360.6 833.4,360.6 833.4,349.7 814.4,349.7"/>
  <polygon class="pl" points="838.2,350.0 838.2,360.8 857.2,360.8 857.2,350.0 838.2,350.0"/>
  <polygon class="pl" points="862.0,365.9 862.0,376.1 881.0,376.1 881.0,365.9 862.0,365.9"/>
  <polygon class="pl" points="885.8,348.4 885.8,358.7 904.8,358.7 904.8,348.4 885.8,348.4"/>
</g>
<g stroke="#000" stroke-width="0.90" fill="#4A89E8"  clip-path="url(#axis_clip)">
  <polygon class="pl" points="148.0,434.8 148.0,496.1 167.0,496.1 167.0,434.8 148.0,434.8"/>
  <polygon class="pl" points="171.8,436.1 171.8,493.1 190.8,493.1 190.8,436.1 171.8,436.1"/>
  <polygon class="pl" points="195.6,429.2 195.6,489.5 214.6,489.5 214.6,429.2 195.6,429.2"/>
  <polygon class="pl" points="219.4,427.0 219.4,484.2 238.4,484.2 238.4,427.0 219.4,427.0"/>
  <polygon class="pl" points="243.2,417.8 243.2,474.7 262.2,474.7 262.2,417.8 243.2,417.8"/>
  <polygon class="pl" points="267.0,417.2 267.0,471.9 286.0,471.9 286.0,417.2 267.0,417.2"/>
  <polygon class="pl" points="290.8,419.6 290.8,475.4 309.8,475.4 309.8,419.6 290.8,419.6"/>
  <polygon class="pl" points="314.6,419.7 314.6,476.1 333.6,476.1 333.6,419.7 314.6,419.7"/>
  <polygon class="pl" points="338.4,413.2 338.4,469.5 357.4,469.5 357.4,413.2 338.4,413.2"/>
  <polygon class="pl" points="362.2,411.2 362.2,466.3 381.2,466.3 381.2,411.2 362.2,411.2"/>
  <polygon class="pl" points="386.0,410.7 386.0,466.0 405.0,466.0 405.0,410.7 386.0,410.7"/>
  <polygon class="pl" points="409.8,406.5 409.8,462.4 428.8,462.4 428.8,406.5 409.8,406.5"/>
  <polygon class="pl" points="433.6,403.5 433.6,461.4 452.6,461.4 452.6,403.5 433.6,403.5"/>
  <polygon class="pl" points="457.4,398.3 457.4,456.7 476.4,456.7 476.4,398.3 457.4,398.3"/>
  <polygon class="pl" points="481.2,398.5 481.2,458.1 500.2,458.1 500.2,398.5 481.2,398.5"/>
  <polygon class="pl" points="505.0,395.0 505.0,454.7 524.0,454.7 524.0,395.0 505.0,395.0"/>
  <polygon class="pl" points="528.8,387.3 528.8,447.2 547.8,447.2 547.8,387.3 528.8,387.3"/>
  <polygon class="pl" points="552.6,377.5 552.6,439.5 571.6,439.5 571.6,377.5 552.6,377.5"/>
  <polygon class="pl" points="576.4,377.4 576.4,439.4 595.4,439.4 595.4,377.4 576.4,377.4"/>
  <polygon class="pl" points="600.2,379.3 600.2,443.5 619.2,443.5 619.2,379.3 600.2,379.3"/>
  <polygon class="pl" points="624.0,374.9 624.0,440.7 643.0,440.7 643.0,374.9 624.0,374.9"/>
  <polygon class="pl" points="647.8,370.3 647.8,436.5 666.8,436.5 666.8,370.3 647.8,370.3"/>
  <polygon class="pl" points="671.6,374.6 671.6,437.4 690.6,437.4 690.6,374.6 671.6,374.6"/>
  <polygon class="pl" points="695.4,371.9 695.4,434.3 714.4,434.3 714.4,371.9 695.4,371.9"/>
  <polygon class="pl" points="719.2,372.3 719.2,431.8 738.2,431.8 738.2,372.3 719.2,372.3"/>
  <polygon class="pl" points="743.0,375.4 743.0,436.9 762.0,436.9 762.0,375.4 743.0,375.4"/>
  <polygon class="pl" points="766.8,368.0 766.8,430.4 785.8,430.4 785.8,368.0 766.8,368.0"/>
  <polygon class="pl" points="790.6,362.8 790.6,425.5 809.6,425.5 809.6,362.8 790.6,362.8"/>
  <polygon class="pl" points="814.4,360.6 814.4,425.7 833.4,425.7 833.4,360.6 814.4,360.6"/>
  <polygon class="pl" points="838.2,360.8 838.2,427.4 857.2,427.4 857.2,360.8 838.2,360.8"/>
  <polygon class="pl" points="862.0,376.1 862.0,438.8 881.0,438.8 881.0,376.1 862.0,376.1"/>
  <polygon class="pl" points="885.8,358.7 885.8,425.6 904.8,425.6 904.8,358.7 885.8,358.7"/>
</g>
<g stroke="#000" stroke-width="0.90" fill="#FF7F61"  clip-path="url(#axis_clip)">
  <polygon class="pl" points="148.0,496.1 148.0,527.9 167.0,527.9 167.0,496.1 148.0,496.1"/>
  <polygon class="pl" points="171.8,493.1 171.8,527.9 190.8,527.9 190.8,493.1 171.8,493.1"/>
  <polygon class="pl" points="195.6,489.5 195.6,527.9 214.6,527.9 214.6,489.5 195.6,489.5"/>
  <polygon class="pl" points="219.4,484.2 219.4,527.9 238.4,527.9 238.4,484.2 219.4,484.2"/>
  <polygon class="pl" points="243.2,474.7 243.2,527.9 262.2,527.9 262.2,474.7 243.2,474.7"/>
  <polygon class="pl" points="267.0,471.9 267.0,527.9 286.0,527.9 286.0,471.9 267.0,471.9"/>
  <polygon class="pl" points="290.8,475.4 290.8,527.9 309.8,527.9 309.8,475.4 290.8,475.4"/>
  <polygon class="pl" points="314.6,476.1 314.6,527.9 333.6,527.9 333.6,476.1 314.6,476.1"/>
  <polygon class="pl" points="338.4,469.5 338.4,527.9 357.4,527.9 357.4,469.5 338.4,469.5"/>
  <polygon class="pl" points="362.2,466.3 362.2,527.9 381.2,527.9 381.2,466.3 362.2,466.3"/>
  <polygon class="pl" points="386.0,466.0 386.0,527.9 405.0,527.9 405.0,466.0 386.0,466.0"/>
  <polygon class="pl" points="409.8,462.4 409.8,527.9 428.8,527.9 428.8,462.4 409.8,462.4"/>
  <polygon class="pl" points="433.6,461.4 433.6,527.9 452.6,527.9 452.6,461.4 433.6,461.4"/>
  <polygon class="pl" points="457.4,456.7 457.4,527.9 476.4,527.9 476.4,456.7 457.4,456.7"/>
  <polygon class="pl" points="481.2,458.1 481.2,527.9 500.2,527.9 500.2,458.1 481.2,458.1"/>
  <polygon class="pl" points="505.0,454.7 505.0,527.9 524.0,527.9 524.0,454.7 505.0,454.7"/>
  <polygon class="pl" points="528.8,447.2 528.8,527.9 547.8,527.9 547.8,447.2 528.8,447.2"/>
  <polygon class="pl" points="552.6,439.5 552.6,527.9 571.6,527.9 571.6,439.5 552.6,439.5"/>
  <polygon class="pl" points="576.4,439.4 576.4,527.9 595.4,527.9 595.4,439.4 576.4,439.4"/>
  <polygon class="pl" points="600.2,443.5 600.2,527.9 619.2,527.9 619.2,443.5 600.2,443.5"/>
  <polygon class="pl" points="624.0,440.7 624.0,527.9 643.0,527.9 643.0,440.7 624.0,440.7"/>
  <polygon class="pl" points="647.8,436.5 647.8,527.9 666.8,527.9 666.8,436.5 647.8,436.5"/>
  <polygon class="pl" points="671.6,437.4 671.6,527.9 690.6,527.9 690.6,437.4 671.6,437.4"/>
  <polygon class="pl" points="695.4,434.3 695.4,527.9 714.4,527.9 714.4,434.3 695.4,434.3"/>
  <polygon class="pl" points="719.2,431.8 719.2,527.9 738.2,527.9 738.2,431.8 719.2,431.8"/>
  <polygon class="pl" points="743.0,436.9 743.0,527.9 762.0,527.9 762.0,436.9 743.0,436.9"/>
  <polygon class="pl" points="766.8,430.4 766.8,527.9 785.8,527.9 785.8,430.4 766.8,430.4"/>
  <polygon class="pl" points="790.6,425.5 790.6,527.9 809.6,527.9 809.6,425.5 790.6,425.5"/>
  <polygon class="pl" points="814.4,425.7 814.4,527.9 833.4,527.9 833.4,425.7 814.4,425.7"/>
  <polygon class="pl" points="838.2,427.4 838.2,527.9 857.2,527.9 857.2,427.4 838.2,427.4"/>
  <polygon class="pl" points="862.0,438.8 862.0,527.9 881.0,527.9 881.0,438.8 862.0,438.8"/>
  <polygon class="pl" points="885.8,425.6 885.8,527.9 904.8,527.9 904.8,425.6 885.8,425.6"/>
</g>
<g stroke="#000" stroke-width="0.90" fill="#7FBF7F"  clip-path="url(#axis_clip)">
  <polygon class="pl" points="719.2,546.3 719.2,527.9 738.2,527.9 738.2,546.3 719.2,546.3"/>
  <polygon class="pl" points="743.0,542.8 743.0,527.9 762.0,527.9 762.0,542.8 743.0,542.8"/>
  <polygon class="pl" points="766.8,552.4 766.8,527.9 785.8,527.9 785.8,552.4 766.8,552.4"/>
  <polygon class="pl" points="790.6,563.7 790.6,527.9 809.6,527.9 809.6,563.7 790.6,563.7"/>
  <polygon class="pl" points="814.4,532.9 814.4,527.9 833.4,527.9 833.4,532.9 814.4,532.9"/>
  <polygon class="pl" points="838.2,539.3 838.2,527.9 857.2,527.9 857.2,539.3 838.2,539.3"/>
  <polygon class="pl" points="862.0,568.4 862.0,527.9 881.0,527.9 881.0,568.4 862.0,568.4"/>
  <polygon class="pl" points="885.8,569.7 885.8,527.9 904.8,527.9 904.8,569.7 885.8,569.7"/>
</g>
<polyline class="pl" points="157.5,91.8 181.3,162.1 205.1,222.0 228.9,284.0 252.7,287.9 276.5,325.0 300.3,302.0 324.1,307.4 347.9,239.8 371.7,264.0 395.5,264.6 419.3,375.5 443.1,362.9 466.9,359.3 490.7,345.6 514.5,346.4 538.3,335.6 562.1,310.9 585.9,325.2 609.7,331.7 633.5,332.5 657.3,344.2 681.1,286.5 704.9,294.0 728.7,372.6 752.5,371.8 776.3,373.4 800.1,379.7 823.9,344.9 847.7,350.5 871.5,395.0 895.3,378.2" stroke="#000" stroke-width="5.40" stroke-opacity="1.00" fill="none" clip-path="url(#axis_clip)"/>
<g class="pl" fill="#FFF" stroke="#000" stroke-width="0.900">
  <circle cx="181.3" cy="162.1" r="2.2" />
  <circle cx="205.1" cy="222.0" r="2.2" />
  <circle cx="228.9" cy="284.0" r="2.2" />
  <circle cx="252.7" cy="287.9" r="2.2" />
  <circle cx="276.5" cy="325.0" r="2.2" />
  <circle cx="300.3" cy="302.0" r="2.2" />
  <circle cx="324.1" cy="307.4" r="2.2" />
  <circle cx="347.9" cy="239.8" r="2.2" />
  <circle cx="371.7" cy="264.0" r="2.2" />
  <circle cx="419.3" cy="375.5" r="2.2" />
  <circle cx="443.1" cy="362.9" r="2.2" />
  <circle cx="466.9" cy="359.3" r="2.2" />
  <circle cx="490.7" cy="345.6" r="2.2" />
  <circle cx="514.5" cy="346.4" r="2.2" />
  <circle cx="538.3" cy="335.6" r="2.2" />
  <circle cx="562.1" cy="310.9" r="2.2" />
  <circle cx="585.9" cy="325.2" r="2.2" />
  <circle cx="609.7" cy="331.7" r="2.2" />
  <circle cx="657.3" cy="344.2" r="2.2" />
  <circle cx="681.1" cy="286.5" r="2.2" />
  <circle cx="704.9" cy="294.0" r="2.2" />
  <circle cx="728.7" cy="372.6" r="2.2" />
  <circle cx="752.5" cy="371.8" r="2.2" />
  <circle cx="776.3" cy="373.4" r="2.2" />
  <circle cx="800.1" cy="379.7" r="2.2" />
  <circle cx="823.9" cy="344.9" r="2.2" />
  <circle cx="847.7" cy="350.5" r="2.2" />
  <circle cx="895.3" cy="378.2" r="2.2" />
</g>
<g class="pl" fill="#FFF" stroke="#000" stroke-width="0.900">
  <circle cx="157.5" cy="91.8" r="5.4" />
  <circle cx="395.5" cy="264.6" r="5.4" />
  <circle cx="633.5" cy="332.5" r="5.4" />
  <circle cx="871.5" cy="395.0" r="5.4" />
</g>
<text transform="translate(145.6,47.2)" dy="0.0" font-size="27.00" fill="#808080" stroke="none">Annual Greenhouse Gas Emissions: Costa Rica</text>
<text transform="translate(130.0,81.6)" dy="8.1" font-size="27.00" fill="#808080" stroke="none" text-anchor="end">CO<tspan dy="0.2em"><tspan style="font-size:70%">2</tspan></tspan><tspan dy="-0.2em">e</tspan></text>
<text transform="translate(945.6,379.4)" dy="7.6" font-size="25.20" fill="#000" stroke="none">-65.7% since 1990</text>
<text transform="translate(945.6,476.8)" dy="7.6" font-size="25.20" fill="#FF7F61" stroke="none">Fossil CO<tspan dy="0.2em"><tspan style="font-size:70%">2</tspan></tspan><tspan dy="-0.2em"></tspan></text>
<text transform="translate(945.6,404.5)" dy="7.6" font-size="25.20" fill="#4A89E8" stroke="none">CH<tspan dy="0.2em"><tspan style="font-size:70%">4</tspan></tspan><tspan dy="-0.2em"></tspan></text>
<text transform="translate(945.6,354.4)" dy="7.6" font-size="25.20" fill="#845F48" stroke="none">N<tspan dy="0.2em"><tspan style="font-size:70%">2</tspan></tspan><tspan dy="-0.2em">O</tspan></text>
<text transform="translate(945.6,329.4)" dy="7.6" font-size="25.20" fill="#DBA746" stroke="none">F-gas</text>
<text transform="translate(945.6,304.3)" dy="7.6" font-size="25.20" fill="#7FBF7F" stroke="none">LULUCF</text>
<text transform="translate(945.6,548.8)" dy="7.6" font-size="25.20" fill="#7FBF7F" stroke="none">LULUCF</text>
<polyline class="pl" points="910.8,378.2 912.4,378.2 913.8,378.3 915.2,378.3 916.4,378.3 917.6,378.3 918.8,378.4 919.8,378.4 920.8,378.5 921.7,378.5 922.7,378.6 923.5,378.6 924.4,378.7 925.2,378.8 926.0,378.8 926.8,378.9 927.6,378.9 928.4,379.0 929.3,379.1 930.1,379.1 931.1,379.2 932.0,379.2 933.0,379.3 934.0,379.3 935.2,379.4 936.4,379.4 937.6,379.4 939.0,379.4 940.4,379.4 942.0,379.4" stroke="#000" stroke-width="0.90" stroke-opacity="1.00" fill="none" />
<polyline class="pl" points="910.8,392.1 912.4,392.2 913.8,392.3 915.2,392.5 916.4,392.8 917.6,393.1 918.8,393.5 919.8,394.0 920.8,394.4 921.7,395.0 922.7,395.5 923.5,396.1 924.4,396.7 925.2,397.4 926.0,398.0 926.8,398.6 927.6,399.3 928.4,399.9 929.3,400.5 930.1,401.1 931.1,401.7 932.0,402.2 933.0,402.7 934.0,403.1 935.2,403.5 936.4,403.9 937.6,404.1 939.0,404.3 940.4,404.4 942.0,404.5" stroke="#4A89E8" stroke-width="0.90" stroke-opacity="1.00" fill="none" />
<polyline class="pl" points="910.8,353.5 912.4,353.5 913.8,353.6 915.2,353.6 916.4,353.6 917.6,353.6 918.8,353.6 919.8,353.7 920.8,353.7 921.7,353.7 922.7,353.8 923.5,353.8 924.4,353.9 925.2,353.9 926.0,354.0 926.8,354.0 927.6,354.0 928.4,354.1 929.3,354.1 930.1,354.2 931.1,354.2 932.0,354.2 933.0,354.3 934.0,354.3 935.2,354.3 936.4,354.4 937.6,354.4 939.0,354.4 940.4,354.4 942.0,354.4" stroke="#845F48" stroke-width="0.90" stroke-opacity="1.00" fill="none" />
<polyline class="pl" points="910.8,342.4 912.4,342.4 913.8,342.3 915.2,342.0 916.4,341.8 917.6,341.4 918.8,341.0 919.8,340.5 920.8,340.0 921.7,339.4 922.7,338.8 923.5,338.2 924.4,337.6 925.2,336.9 926.0,336.2 926.8,335.6 927.6,334.9 928.4,334.2 929.3,333.6 930.1,333.0 931.1,332.4 932.0,331.8 933.0,331.3 934.0,330.8 935.2,330.4 936.4,330.0 937.6,329.8 939.0,329.5 940.4,329.4 942.0,329.4" stroke="#DBA746" stroke-width="0.90" stroke-opacity="1.00" fill="none" />
<polyline class="pl" points="910.8,305.7 912.4,305.7 913.8,305.7 915.2,305.6 916.4,305.6 917.6,305.6 918.8,305.5 919.8,305.5 920.8,305.4 921.7,305.4 922.7,305.3 923.5,305.2 924.4,305.2 925.2,305.1 926.0,305.0 926.8,305.0 927.6,304.9 928.4,304.8 929.3,304.8 930.1,304.7 931.1,304.6 932.0,304.6 933.0,304.5 934.0,304.5 935.2,304.4 936.4,304.4 937.6,304.4 939.0,304.3 940.4,304.3 942.0,304.3" stroke="#7FBF7F" stroke-width="0.90" stroke-opacity="1.00" fill="none" />
<text transform="translate(160.0,666.1)" font-size="19.80" font-family="Helvetica" fill="#BFBFBF" stroke="none" xml:space="preserve">CICERO   &#9679;   Data: UNFCCC (2024)</text>
<g>
  <rect x="123.0" y="651.4" width="34" height="17" fill="#FFF" stroke="none" opacity="0.01"/>
  <g transform="translate(124.0,652.4) scale(0.24)">
  <g><circle fill="#FFF" cx="37.79" cy="28.5" r="28.84"/>
     <circle fill="none" cx="37.79" cy="28.5" r="28.84" stroke="#BFBFBF" stroke-width="5.5"/>
     <path fill="#BFBFBF" d="M37.16,23.19 l-4.29,2.23c-0.458-0.951-1.02-1.62-1.69-2c-0.667-0.38-1.29-0.571-1.86-0.571c-2.86,0-4.29,1.89-4.29,5.66 c0,1.71,0.36,3.08,1.09,4.11c0.724,1.03,1.79,1.54,3.2,1.54c1.87,0,3.18-0.915,3.94-2.74l3.94,2 c-0.838,1.56-2,2.79-3.49,3.69c-1.48,0.896-3.12,1.34-4.91,1.34c-2.86,0-5.16-0.875-6.92-2.63 c-1.75-1.75-2.63-4.19-2.63-7.31c0-3.05,0.886-5.47,2.66-7.26c1.77-1.79,4.01-2.69,6.72-2.69 C32.6,18.56,35.44,20.1,37.16,23.19z
              M55.61,23.19l-4.23,2.23c-0.457-0.951-1.02-1.62-1.69-2 c-0.668-0.38-1.31-0.571-1.91-0.571c-2.86,0-4.29,1.89-4.29,5.66c0,1.71,0.363,3.08,1.09,4.11 c0.723,1.03,1.79,1.54,3.2,1.54c1.87,0,3.18-0.915,3.94-2.74l4,2c-0.875,1.56-2.06,2.79-3.54,3.69 c-1.49,0.9-3.11,1.34-4.86,1.34c-2.9,0-5.21-0.875-6.94-2.63c-1.74-1.75-2.6-4.19-2.6-7.31 c0-3.05,0.885-5.47,2.66-7.26c1.77-1.79,4.01-2.69,6.71-2.69C51.12,18.56,53.944,20.1,55.61,23.19z"/>
  </g></g>
  <g transform="translate(140.2,652.4) scale(0.24)">
  <g><circle fill="#FFF" cx="37.79" cy="28.5" r="28.84"/>
     <circle fill="none" cx="37.79" cy="28.5" r="28.84" stroke="#BFBFBF" stroke-width="5.5"/>
     <path fill="#BFBFBF" d="M46.129,20.557v13.085h-3.656v15.542h-9.944V33.643h-3.656V20.557 c0-0.572,0.2-1.057,0.599-1.457c0.401-0.399,0.887-0.6,1.457-0.6h13.144c0.533,0,1.01,0.2,1.428,0.6 C45.918,19.5,46.129,19.986,46.129,20.557z
              M33.042,12.329c0-3.008,1.485-4.514,4.458-4.514s4.457,1.504,4.457,4.514 c0,2.971-1.486,4.457-4.457,4.457S33.042,15.3,33.042,12.329z"/>
  </g></g>
</g>
</g>
</svg>
