<svg version="1.1" xmlns="http://www.w3.org/2000/svg" xmlns:xlink="http://www.w3.org/1999/xlink" width="100%" height="100%" viewBox="0 0 1200.000 674.916">
<title>Annual LULUCF emissions: Estonia</title>
<style type="text/css">
  #main {font-family:Helvetica,Arial,sans-serif; font-size:27.00px;
         fill-opacity:1; fill:#000000; stroke:none; stroke-linejoin:round; stroke-linecap:round; stroke-width:1.00;}
  .marker {stroke-opacity:0;fill-opacity:0;}
  .marker:hover {stroke-opacity:0.5; fill-opacity:1;}
  .ticklabel {font-size:27.00px;fill:#808080;stroke:none;font-family:Helvetica}
  .ytl {text-anchor:end;}
  .dp1 {pointer-events:none;font-size:70%;text-anchor:middle;fill:#000000;}
  .dp2 {pointer-events:none;font-size:70%;text-anchor:middle;fill:#FFFFFF;}
  .numtip {pointer-events:none;}
  .cc {opacity:0.25;}
.dl_fe {background-color:#FDFFDF;display:flex;margin:auto;align-items:center}
.dl_fe_p {font-size:20px;text-align:center;margin:3px}
.dl_el {display:none;pointer-events:none;}
.cc:hover + .dl_el {display:block;}
text:hover + .dl_el {display:block;}
</style>
<defs>
  <clipPath id="axis_clip"><rect x="145.8" y="54.2" width="761.2" height="532.8" /></clipPath>
  <path id="line_x" d="M 145.600,0 h 761.600" stroke="#262626" stroke-opacity="0.15" stroke-width="1.00"/>
  <path id="tick_y" d="M 145.600,0 h -6.000" stroke="#808080" stroke-width="0.90"/>
  <path id="tick_x" d="M 0,587.177 v 6.000" stroke="#808080" stroke-width="0.90"/>
</defs>
<g id="main">
<use xlink:href="#line_x" transform="translate(0,587.2)"/>
<use xlink:href="#line_x" transform="translate(0,434.8)"/>
<use xlink:href="#line_x" transform="translate(0,282.5)"/>
<use xlink:href="#line_x" transform="translate(0,130.2)"/>
<use xlink:href="#tick_y" transform="translate(0,587.2)"/>
<use xlink:href="#tick_y" transform="translate(0,434.8)"/>
<use xlink:href="#tick_y" transform="translate(0,282.5)"/>
<use xlink:href="#tick_y" transform="translate(0,130.2)"/>
<use xlink:href="#tick_x" transform="translate(156.8,0)"/>
<use xlink:href="#tick_x" transform="translate(268.8,0)"/>
<use xlink:href="#tick_x" transform="translate(380.8,0)"/>
<use xlink:href="#tick_x" transform="translate(492.8,0)"/>
<use xlink:href="#tick_x" transform="translate(604.8,0)"/>
<use xlink:href="#tick_x" transform="translate(716.8,0)"/>
<use xlink:href="#tick_x" transform="translate(828.8,0)"/>
<use xlink:href="#tick_x" transform="translate(896.0,0)"/>
<polyline points="145.6,53.993 145.6,587.177 907.2,587.177" stroke="#808080" stroke-width="0.90" fill="none"/>
<text class="ticklabel xtl" transform="translate(156.8,629.0)" text-anchor="middle">1990</text>
<text class="ticklabel xtl" transform="translate(268.8,629.0)" text-anchor="middle">1995</text>
<text class="ticklabel xtl" transform="translate(380.8,629.0)" text-anchor="middle">2000</text>
<text class="ticklabel xtl" transform="translate(492.8,629.0)" text-anchor="middle">2005</text>
<text class="ticklabel xtl" transform="translate(604.8,629.0)" text-anchor="middle">2010</text>
<text class="ticklabel xtl" transform="translate(716.8,629.0)" text-anchor="middle">2015</text>
<text class="ticklabel xtl" transform="translate(828.8,629.0)" text-anchor="middle">2020</text>
<text class="ticklabel xtl" transform="translate(896.0,629.0)" text-anchor="middle">23</text>
<text class="ticklabel ytl" transform="translate(128.8,595.3)">-8</text>
<text class="ticklabel ytl" transform="translate(128.8,442.9)">-4</text>
<text class="ticklabel ytl" transform="translate(128.8,290.6)">0</text>
<text class="ticklabel ytl" transform="translate(128.8,138.3)">4 Mt</text>
<g stroke="#000" stroke-width="0.90" fill="#1A4D1A"  clip-path="url(#axis_clip)">
</g>
<g stroke="#000" stroke-width="0.90" fill="#8B1E40"  clip-path="url(#axis_clip)">
  <polygon points="192.6,217.7 192.6,221.8 210.6,221.8 210.6,217.7 192.6,217.7"/>
  <polygon points="215.0,251.0 215.0,253.3 233.0,253.3 233.0,251.0 215.0,251.0"/>
  <polygon points="237.4,235.4 237.4,236.1 255.4,236.1 255.4,235.4 237.4,235.4"/>
</g>
<g stroke="#000" stroke-width="0.90" fill="#7B417F"  clip-path="url(#axis_clip)">
  <polygon points="461.4,245.0 461.4,245.4 479.4,245.4 479.4,245.0 461.4,245.0"/>
  <polygon points="483.8,230.4 483.8,231.7 501.8,231.7 501.8,230.4 483.8,230.4"/>
  <polygon points="506.2,224.9 506.2,228.6 524.2,228.6 524.2,224.9 506.2,224.9"/>
  <polygon points="528.6,235.1 528.6,239.0 546.6,239.0 546.6,235.1 528.6,235.1"/>
  <polygon points="551.0,231.6 551.0,235.8 569.0,235.8 569.0,231.6 551.0,231.6"/>
  <polygon points="573.4,228.9 573.4,232.8 591.4,232.8 591.4,228.9 573.4,228.9"/>
  <polygon points="595.8,227.0 595.8,230.2 613.8,230.2 613.8,227.0 595.8,227.0"/>
  <polygon points="618.2,230.0 618.2,230.9 636.2,230.9 636.2,230.0 618.2,230.0"/>
  <polygon points="640.6,232.9 640.6,233.8 658.6,233.8 658.6,232.9 640.6,232.9"/>
  <polygon points="663.0,216.5 663.0,217.1 681.0,217.1 681.0,216.5 663.0,216.5"/>
  <polygon points="685.4,216.6 685.4,217.8 703.4,217.8 703.4,216.6 685.4,216.6"/>
  <polygon points="707.8,211.0 707.8,212.3 725.8,212.3 725.8,211.0 707.8,211.0"/>
  <polygon points="730.2,172.6 730.2,175.5 748.2,175.5 748.2,172.6 730.2,172.6"/>
  <polygon points="752.6,174.9 752.6,177.9 770.6,177.9 770.6,174.9 752.6,174.9"/>
  <polygon points="775.0,107.3 775.0,110.2 793.0,110.2 793.0,107.3 775.0,107.3"/>
  <polygon points="797.4,119.1 797.4,121.5 815.4,121.5 815.4,119.1 797.4,119.1"/>
  <polygon points="819.8,196.2 819.8,198.6 837.8,198.6 837.8,196.2 819.8,196.2"/>
  <polygon points="842.2,191.8 842.2,193.0 860.2,193.0 860.2,191.8 842.2,191.8"/>
  <polygon points="864.6,182.1 864.6,183.5 882.6,183.5 882.6,182.1 864.6,182.1"/>
  <polygon points="887.0,175.5 887.0,177.0 905.0,177.0 905.0,175.5 887.0,175.5"/>
</g>
<g stroke="#000" stroke-width="0.90" fill="#808080"  clip-path="url(#axis_clip)">
  <polygon points="170.2,246.5 170.2,246.5 188.2,246.5 188.2,246.5 170.2,246.5"/>
  <polygon points="192.6,221.8 192.6,221.8 210.6,221.8 210.6,221.8 192.6,221.8"/>
  <polygon points="215.0,253.3 215.0,253.4 233.0,253.4 233.0,253.3 215.0,253.3"/>
  <polygon points="237.4,236.1 237.4,236.3 255.4,236.3 255.4,236.1 237.4,236.1"/>
  <polygon points="259.8,240.5 259.8,240.7 277.8,240.7 277.8,240.5 259.8,240.5"/>
  <polygon points="282.2,246.7 282.2,246.9 300.2,246.9 300.2,246.7 282.2,246.7"/>
  <polygon points="304.6,240.7 304.6,241.0 322.6,241.0 322.6,240.7 304.6,240.7"/>
  <polygon points="327.0,252.4 327.0,252.7 345.0,252.7 345.0,252.4 327.0,252.4"/>
  <polygon points="349.4,232.7 349.4,232.9 367.4,232.9 367.4,232.7 349.4,232.7"/>
  <polygon points="371.8,245.3 371.8,245.5 389.8,245.5 389.8,245.3 371.8,245.3"/>
  <polygon points="394.2,246.6 394.2,247.9 412.2,247.9 412.2,246.6 394.2,246.6"/>
  <polygon points="416.6,235.2 416.6,237.6 434.6,237.6 434.6,235.2 416.6,235.2"/>
  <polygon points="439.0,238.3 439.0,243.3 457.0,243.3 457.0,238.3 439.0,238.3"/>
  <polygon points="461.4,245.4 461.4,251.6 479.4,251.6 479.4,245.4 461.4,245.4"/>
  <polygon points="483.8,231.7 483.8,239.8 501.8,239.8 501.8,231.7 483.8,231.7"/>
  <polygon points="506.2,228.6 506.2,238.7 524.2,238.7 524.2,228.6 506.2,228.6"/>
  <polygon points="528.6,239.0 528.6,250.1 546.6,250.1 546.6,239.0 528.6,239.0"/>
  <polygon points="551.0,235.8 551.0,246.7 569.0,246.7 569.0,235.8 551.0,235.8"/>
  <polygon points="573.4,232.8 573.4,244.3 591.4,244.3 591.4,232.8 573.4,232.8"/>
  <polygon points="595.8,230.2 595.8,241.6 613.8,241.6 613.8,230.2 595.8,230.2"/>
  <polygon points="618.2,230.9 618.2,242.7 636.2,242.7 636.2,230.9 618.2,230.9"/>
  <polygon points="640.6,233.8 640.6,246.7 658.6,246.7 658.6,233.8 640.6,233.8"/>
  <polygon points="663.0,217.1 663.0,230.0 681.0,230.0 681.0,217.1 663.0,217.1"/>
  <polygon points="685.4,217.8 685.4,231.0 703.4,231.0 703.4,217.8 685.4,217.8"/>
  <polygon points="707.8,212.3 707.8,226.4 725.8,226.4 725.8,212.3 707.8,212.3"/>
  <polygon points="730.2,175.5 730.2,190.6 748.2,190.6 748.2,175.5 730.2,175.5"/>
  <polygon points="752.6,177.9 752.6,193.2 770.6,193.2 770.6,177.9 752.6,177.9"/>
  <polygon points="775.0,110.2 775.0,127.4 793.0,127.4 793.0,110.2 775.0,110.2"/>
  <polygon points="797.4,121.5 797.4,140.2 815.4,140.2 815.4,121.5 797.4,121.5"/>
  <polygon points="819.8,198.6 819.8,217.3 837.8,217.3 837.8,198.6 819.8,198.6"/>
  <polygon points="842.2,193.0 842.2,209.8 860.2,209.8 860.2,193.0 842.2,193.0"/>
  <polygon points="864.6,183.5 864.6,199.0 882.6,199.0 882.6,183.5 864.6,183.5"/>
  <polygon points="887.0,177.0 887.0,190.0 905.0,190.0 905.0,177.0 887.0,177.0"/>
</g>
<g stroke="#000" stroke-width="0.90" fill="#EDB120"  clip-path="url(#axis_clip)">
  <polygon points="147.8,247.1 147.8,257.9 165.8,257.9 165.8,247.1 147.8,247.1"/>
  <polygon points="170.2,246.5 170.2,256.1 188.2,256.1 188.2,246.5 170.2,246.5"/>
  <polygon points="192.6,221.8 192.6,257.4 210.6,257.4 210.6,221.8 192.6,221.8"/>
  <polygon points="215.0,253.4 215.0,263.1 233.0,263.1 233.0,253.4 215.0,253.4"/>
  <polygon points="237.4,236.3 237.4,268.0 255.4,268.0 255.4,236.3 237.4,236.3"/>
  <polygon points="259.8,240.7 259.8,269.4 277.8,269.4 277.8,240.7 259.8,240.7"/>
  <polygon points="282.2,246.9 282.2,271.3 300.2,271.3 300.2,246.9 282.2,246.9"/>
  <polygon points="304.6,241.0 304.6,268.6 322.6,268.6 322.6,241.0 304.6,241.0"/>
  <polygon points="327.0,252.7 327.0,266.6 345.0,266.6 345.0,252.7 327.0,252.7"/>
  <polygon points="349.4,232.9 349.4,268.1 367.4,268.1 367.4,232.9 349.4,232.9"/>
  <polygon points="371.8,245.5 371.8,268.9 389.8,268.9 389.8,245.5 371.8,245.5"/>
  <polygon points="394.2,247.9 394.2,274.8 412.2,274.8 412.2,247.9 394.2,247.9"/>
  <polygon points="416.6,237.6 416.6,278.2 434.6,278.2 434.6,237.6 416.6,237.6"/>
  <polygon points="439.0,243.3 439.0,276.6 457.0,276.6 457.0,243.3 439.0,243.3"/>
  <polygon points="461.4,251.6 461.4,278.0 479.4,278.0 479.4,251.6 461.4,251.6"/>
  <polygon points="483.8,239.8 483.8,275.0 501.8,275.0 501.8,239.8 483.8,239.8"/>
  <polygon points="506.2,238.7 506.2,276.2 524.2,276.2 524.2,238.7 506.2,238.7"/>
  <polygon points="528.6,250.1 528.6,274.3 546.6,274.3 546.6,250.1 528.6,250.1"/>
  <polygon points="551.0,246.7 551.0,273.6 569.0,273.6 569.0,246.7 551.0,246.7"/>
  <polygon points="573.4,244.3 573.4,272.5 591.4,272.5 591.4,244.3 573.4,244.3"/>
  <polygon points="595.8,241.6 595.8,272.0 613.8,272.0 613.8,241.6 595.8,241.6"/>
  <polygon points="618.2,242.7 618.2,273.7 636.2,273.7 636.2,242.7 618.2,242.7"/>
  <polygon points="640.6,246.7 640.6,273.1 658.6,273.1 658.6,246.7 640.6,246.7"/>
  <polygon points="663.0,230.0 663.0,267.6 681.0,267.6 681.0,230.0 663.0,230.0"/>
  <polygon points="685.4,231.0 685.4,261.8 703.4,261.8 703.4,231.0 685.4,231.0"/>
  <polygon points="707.8,226.4 707.8,258.3 725.8,258.3 725.8,226.4 707.8,226.4"/>
  <polygon points="730.2,190.6 730.2,215.1 748.2,215.1 748.2,190.6 730.2,190.6"/>
  <polygon points="752.6,193.2 752.6,227.3 770.6,227.3 770.6,193.2 752.6,193.2"/>
  <polygon points="775.0,127.4 775.0,171.0 793.0,171.0 793.0,127.4 775.0,127.4"/>
  <polygon points="797.4,140.2 797.4,178.6 815.4,178.6 815.4,140.2 797.4,140.2"/>
  <polygon points="819.8,217.3 819.8,252.2 837.8,252.2 837.8,217.3 819.8,217.3"/>
  <polygon points="842.2,209.8 842.2,253.2 860.2,253.2 860.2,209.8 842.2,209.8"/>
  <polygon points="864.6,199.0 864.6,249.4 882.6,249.4 882.6,199.0 864.6,199.0"/>
  <polygon points="887.0,190.0 887.0,231.3 905.0,231.3 905.0,190.0 887.0,190.0"/>
</g>
<g stroke="#000" stroke-width="0.90" fill="#5AA3D0"  clip-path="url(#axis_clip)">
  <polygon points="147.8,257.9 147.8,282.5 165.8,282.5 165.8,257.9 147.8,257.9"/>
  <polygon points="170.2,256.1 170.2,282.5 188.2,282.5 188.2,256.1 170.2,256.1"/>
  <polygon points="192.6,257.4 192.6,282.5 210.6,282.5 210.6,257.4 192.6,257.4"/>
  <polygon points="215.0,263.1 215.0,282.5 233.0,282.5 233.0,263.1 215.0,263.1"/>
  <polygon points="237.4,268.0 237.4,282.5 255.4,282.5 255.4,268.0 237.4,268.0"/>
  <polygon points="259.8,269.4 259.8,282.5 277.8,282.5 277.8,269.4 259.8,269.4"/>
  <polygon points="282.2,271.3 282.2,282.5 300.2,282.5 300.2,271.3 282.2,271.3"/>
  <polygon points="304.6,268.6 304.6,282.5 322.6,282.5 322.6,268.6 304.6,268.6"/>
  <polygon points="327.0,266.6 327.0,282.5 345.0,282.5 345.0,266.6 327.0,266.6"/>
  <polygon points="349.4,268.1 349.4,282.5 367.4,282.5 367.4,268.1 349.4,268.1"/>
  <polygon points="371.8,268.9 371.8,282.5 389.8,282.5 389.8,268.9 371.8,268.9"/>
  <polygon points="394.2,274.8 394.2,282.5 412.2,282.5 412.2,274.8 394.2,274.8"/>
  <polygon points="416.6,278.2 416.6,282.5 434.6,282.5 434.6,278.2 416.6,278.2"/>
  <polygon points="439.0,276.6 439.0,282.5 457.0,282.5 457.0,276.6 439.0,276.6"/>
  <polygon points="461.4,278.0 461.4,282.5 479.4,282.5 479.4,278.0 461.4,278.0"/>
  <polygon points="483.8,275.0 483.8,282.5 501.8,282.5 501.8,275.0 483.8,275.0"/>
  <polygon points="506.2,276.2 506.2,282.5 524.2,282.5 524.2,276.2 506.2,276.2"/>
  <polygon points="528.6,274.3 528.6,282.5 546.6,282.5 546.6,274.3 528.6,274.3"/>
  <polygon points="551.0,273.6 551.0,282.5 569.0,282.5 569.0,273.6 551.0,273.6"/>
  <polygon points="573.4,272.5 573.4,282.5 591.4,282.5 591.4,272.5 573.4,272.5"/>
  <polygon points="595.8,272.0 595.8,282.5 613.8,282.5 613.8,272.0 595.8,272.0"/>
  <polygon points="618.2,273.7 618.2,282.5 636.2,282.5 636.2,273.7 618.2,273.7"/>
  <polygon points="640.6,273.1 640.6,282.5 658.6,282.5 658.6,273.1 640.6,273.1"/>
  <polygon points="663.0,267.6 663.0,282.5 681.0,282.5 681.0,267.6 663.0,267.6"/>
  <polygon points="685.4,261.8 685.4,282.5 703.4,282.5 703.4,261.8 685.4,261.8"/>
  <polygon points="707.8,258.3 707.8,282.5 725.8,282.5 725.8,258.3 707.8,258.3"/>
  <polygon points="730.2,215.1 730.2,241.1 748.2,241.1 748.2,215.1 730.2,215.1"/>
  <polygon points="752.6,227.3 752.6,250.2 770.6,250.2 770.6,227.3 752.6,227.3"/>
  <polygon points="775.0,171.0 775.0,191.9 793.0,191.9 793.0,171.0 775.0,171.0"/>
  <polygon points="797.4,178.6 797.4,201.0 815.4,201.0 815.4,178.6 797.4,178.6"/>
  <polygon points="819.8,252.2 819.8,275.8 837.8,275.8 837.8,252.2 819.8,252.2"/>
  <polygon points="842.2,253.2 842.2,282.5 860.2,282.5 860.2,253.2 842.2,253.2"/>
  <polygon points="864.6,249.4 864.6,282.5 882.6,282.5 882.6,249.4 864.6,249.4"/>
  <polygon points="887.0,231.3 887.0,263.6 905.0,263.6 905.0,231.3 887.0,231.3"/>
</g>
<g stroke="#000" stroke-width="0.90" fill="#6AB561"  clip-path="url(#axis_clip)">
  <polygon points="730.2,241.1 730.2,282.5 748.2,282.5 748.2,241.1 730.2,241.1"/>
  <polygon points="752.6,250.2 752.6,282.5 770.6,282.5 770.6,250.2 752.6,250.2"/>
  <polygon points="775.0,191.9 775.0,282.5 793.0,282.5 793.0,191.9 775.0,191.9"/>
  <polygon points="797.4,201.0 797.4,282.5 815.4,282.5 815.4,201.0 797.4,201.0"/>
  <polygon points="819.8,275.8 819.8,282.5 837.8,282.5 837.8,275.8 819.8,275.8"/>
  <polygon points="887.0,263.6 887.0,282.5 905.0,282.5 905.0,263.6 887.0,263.6"/>
</g>
<g stroke="#000" stroke-width="0.90" fill="#1A4D1A"  clip-path="url(#axis_clip)">
</g>
<g stroke="#000" stroke-width="0.90" fill="#8B1E40"  clip-path="url(#axis_clip)">
  <polygon points="147.8,507.1 147.8,501.2 165.8,501.2 165.8,507.1 147.8,507.1"/>
  <polygon points="170.2,502.2 170.2,501.3 188.2,501.3 188.2,502.2 170.2,502.2"/>
  <polygon points="259.8,498.4 259.8,497.3 277.8,497.3 277.8,498.4 259.8,498.4"/>
  <polygon points="282.2,503.4 282.2,497.8 300.2,497.8 300.2,503.4 282.2,503.4"/>
  <polygon points="304.6,514.2 304.6,498.5 322.6,498.5 322.6,514.2 304.6,514.2"/>
  <polygon points="327.0,484.3 327.0,467.7 345.0,467.7 345.0,484.3 327.0,484.3"/>
  <polygon points="349.4,462.5 349.4,436.9 367.4,436.9 367.4,462.5 349.4,462.5"/>
  <polygon points="371.8,432.2 371.8,396.1 389.8,396.1 389.8,432.2 371.8,432.2"/>
  <polygon points="394.2,407.5 394.2,365.3 412.2,365.3 412.2,407.5 394.2,407.5"/>
  <polygon points="416.6,378.2 416.6,334.2 434.6,334.2 434.6,378.2 416.6,378.2"/>
  <polygon points="439.0,345.3 439.0,303.4 457.0,303.4 457.0,345.3 439.0,345.3"/>
  <polygon points="461.4,372.7 461.4,341.4 479.4,341.4 479.4,372.7 461.4,372.7"/>
  <polygon points="483.8,427.6 483.8,404.4 501.8,404.4 501.8,427.6 483.8,427.6"/>
  <polygon points="506.2,519.8 506.2,495.9 524.2,495.9 524.2,519.8 506.2,519.8"/>
  <polygon points="528.6,526.4 528.6,509.1 546.6,509.1 546.6,526.4 528.6,526.4"/>
  <polygon points="551.0,515.7 551.0,495.4 569.0,495.4 569.0,515.7 551.0,515.7"/>
  <polygon points="573.4,527.9 573.4,508.5 591.4,508.5 591.4,527.9 573.4,527.9"/>
  <polygon points="595.8,520.2 595.8,487.9 613.8,487.9 613.8,520.2 595.8,520.2"/>
  <polygon points="618.2,464.9 618.2,433.7 636.2,433.7 636.2,464.9 618.2,464.9"/>
  <polygon points="640.6,395.4 640.6,370.6 658.6,370.6 658.6,395.4 640.6,395.4"/>
  <polygon points="663.0,370.0 663.0,343.9 681.0,343.9 681.0,370.0 663.0,370.0"/>
  <polygon points="685.4,343.7 685.4,314.6 703.4,314.6 703.4,343.7 685.4,343.7"/>
  <polygon points="707.8,327.4 707.8,292.4 725.8,292.4 725.8,327.4 707.8,327.4"/>
  <polygon points="730.2,330.0 730.2,291.5 748.2,291.5 748.2,330.0 730.2,330.0"/>
  <polygon points="752.6,331.0 752.6,290.7 770.6,290.7 770.6,331.0 752.6,331.0"/>
  <polygon points="775.0,332.0 775.0,290.3 793.0,290.3 793.0,332.0 775.0,332.0"/>
  <polygon points="797.4,327.0 797.4,290.0 815.4,290.0 815.4,327.0 797.4,327.0"/>
  <polygon points="819.8,325.3 819.8,289.7 837.8,289.7 837.8,325.3 819.8,325.3"/>
  <polygon points="842.2,340.9 842.2,305.1 860.2,305.1 860.2,340.9 842.2,340.9"/>
  <polygon points="864.6,375.4 864.6,350.2 882.6,350.2 882.6,375.4 864.6,375.4"/>
  <polygon points="887.0,308.3 887.0,289.2 905.0,289.2 905.0,308.3 887.0,308.3"/>
</g>
<g stroke="#000" stroke-width="0.90" fill="#7B417F"  clip-path="url(#axis_clip)">
</g>
<g stroke="#000" stroke-width="0.90" fill="#808080"  clip-path="url(#axis_clip)">
</g>
<g stroke="#000" stroke-width="0.90" fill="#D95319"  clip-path="url(#axis_clip)">
  <polygon points="147.8,501.2 147.8,496.6 165.8,496.6 165.8,501.2 147.8,501.2"/>
  <polygon points="170.2,501.3 170.2,496.7 188.2,496.7 188.2,501.3 170.2,501.3"/>
  <polygon points="192.6,501.3 192.6,496.8 210.6,496.8 210.6,501.3 192.6,501.3"/>
  <polygon points="215.0,501.6 215.0,497.0 233.0,497.0 233.0,501.6 215.0,501.6"/>
  <polygon points="237.4,496.9 237.4,492.2 255.4,492.2 255.4,496.9 237.4,496.9"/>
  <polygon points="259.8,497.3 259.8,492.4 277.8,492.4 277.8,497.3 259.8,497.3"/>
  <polygon points="282.2,497.8 282.2,492.6 300.2,492.6 300.2,497.8 282.2,497.8"/>
  <polygon points="304.6,498.5 304.6,492.8 322.6,492.8 322.6,498.5 304.6,498.5"/>
  <polygon points="327.0,467.7 327.0,461.6 345.0,461.6 345.0,467.7 327.0,467.7"/>
  <polygon points="349.4,436.9 349.4,430.3 367.4,430.3 367.4,436.9 349.4,436.9"/>
  <polygon points="371.8,396.1 371.8,389.0 389.8,389.0 389.8,396.1 371.8,396.1"/>
  <polygon points="394.2,365.3 394.2,357.7 412.2,357.7 412.2,365.3 394.2,365.3"/>
  <polygon points="416.6,334.2 416.6,326.2 434.6,326.2 434.6,334.2 416.6,334.2"/>
  <polygon points="439.0,303.4 439.0,294.9 457.0,294.9 457.0,303.4 439.0,303.4"/>
  <polygon points="461.4,341.4 461.4,332.8 479.4,332.8 479.4,341.4 461.4,341.4"/>
  <polygon points="483.8,404.4 483.8,395.4 501.8,395.4 501.8,404.4 483.8,404.4"/>
  <polygon points="506.2,495.9 506.2,486.7 524.2,486.7 524.2,495.9 506.2,495.9"/>
  <polygon points="528.6,509.1 528.6,499.8 546.6,499.8 546.6,509.1 528.6,509.1"/>
  <polygon points="551.0,495.4 551.0,485.8 569.0,485.8 569.0,495.4 551.0,495.4"/>
  <polygon points="573.4,508.5 573.4,498.6 591.4,498.6 591.4,508.5 573.4,508.5"/>
  <polygon points="595.8,487.9 595.8,477.9 613.8,477.9 613.8,487.9 595.8,487.9"/>
  <polygon points="618.2,433.7 618.2,423.5 636.2,423.5 636.2,433.7 618.2,433.7"/>
  <polygon points="640.6,370.6 640.6,360.3 658.6,360.3 658.6,370.6 640.6,370.6"/>
  <polygon points="663.0,343.9 663.0,333.7 681.0,333.7 681.0,343.9 663.0,343.9"/>
  <polygon points="685.4,314.6 685.4,304.8 703.4,304.8 703.4,314.6 685.4,314.6"/>
  <polygon points="707.8,292.4 707.8,283.0 725.8,283.0 725.8,292.4 707.8,292.4"/>
  <polygon points="730.2,291.5 730.2,282.5 748.2,282.5 748.2,291.5 730.2,291.5"/>
  <polygon points="752.6,290.7 752.6,282.5 770.6,282.5 770.6,290.7 752.6,290.7"/>
  <polygon points="775.0,290.3 775.0,282.5 793.0,282.5 793.0,290.3 775.0,290.3"/>
  <polygon points="797.4,290.0 797.4,282.5 815.4,282.5 815.4,290.0 797.4,290.0"/>
  <polygon points="819.8,289.7 819.8,282.5 837.8,282.5 837.8,289.7 819.8,289.7"/>
  <polygon points="842.2,305.1 842.2,298.3 860.2,298.3 860.2,305.1 842.2,305.1"/>
  <polygon points="864.6,350.2 864.6,343.2 882.6,343.2 882.6,350.2 864.6,350.2"/>
  <polygon points="887.0,289.2 887.0,282.5 905.0,282.5 905.0,289.2 887.0,289.2"/>
</g>
<g stroke="#000" stroke-width="0.90" fill="#6AB561"  clip-path="url(#axis_clip)">
  <polygon points="147.8,496.6 147.8,282.5 165.8,282.5 165.8,496.6 147.8,496.6"/>
  <polygon points="170.2,496.7 170.2,282.5 188.2,282.5 188.2,496.7 170.2,496.7"/>
  <polygon points="192.6,496.8 192.6,282.5 210.6,282.5 210.6,496.8 192.6,496.8"/>
  <polygon points="215.0,497.0 215.0,282.5 233.0,282.5 233.0,497.0 215.0,497.0"/>
  <polygon points="237.4,492.2 237.4,282.5 255.4,282.5 255.4,492.2 237.4,492.2"/>
  <polygon points="259.8,492.4 259.8,282.5 277.8,282.5 277.8,492.4 259.8,492.4"/>
  <polygon points="282.2,492.6 282.2,282.5 300.2,282.5 300.2,492.6 282.2,492.6"/>
  <polygon points="304.6,492.8 304.6,282.5 322.6,282.5 322.6,492.8 304.6,492.8"/>
  <polygon points="327.0,461.6 327.0,282.5 345.0,282.5 345.0,461.6 327.0,461.6"/>
  <polygon points="349.4,430.3 349.4,282.5 367.4,282.5 367.4,430.3 349.4,430.3"/>
  <polygon points="371.8,389.0 371.8,282.5 389.8,282.5 389.8,389.0 371.8,389.0"/>
  <polygon points="394.2,357.7 394.2,282.5 412.2,282.5 412.2,357.7 394.2,357.7"/>
  <polygon points="416.6,326.2 416.6,282.5 434.6,282.5 434.6,326.2 416.6,326.2"/>
  <polygon points="439.0,294.9 439.0,282.5 457.0,282.5 457.0,294.9 439.0,294.9"/>
  <polygon points="461.4,332.8 461.4,282.5 479.4,282.5 479.4,332.8 461.4,332.8"/>
  <polygon points="483.8,395.4 483.8,282.5 501.8,282.5 501.8,395.4 483.8,395.4"/>
  <polygon points="506.2,486.7 506.2,282.5 524.2,282.5 524.2,486.7 506.2,486.7"/>
  <polygon points="528.6,499.8 528.6,282.5 546.6,282.5 546.6,499.8 528.6,499.8"/>
  <polygon points="551.0,485.8 551.0,282.5 569.0,282.5 569.0,485.8 551.0,485.8"/>
  <polygon points="573.4,498.6 573.4,282.5 591.4,282.5 591.4,498.6 573.4,498.6"/>
  <polygon points="595.8,477.9 595.8,282.5 613.8,282.5 613.8,477.9 595.8,477.9"/>
  <polygon points="618.2,423.5 618.2,282.5 636.2,282.5 636.2,423.5 618.2,423.5"/>
  <polygon points="640.6,360.3 640.6,282.5 658.6,282.5 658.6,360.3 640.6,360.3"/>
  <polygon points="663.0,333.7 663.0,282.5 681.0,282.5 681.0,333.7 663.0,333.7"/>
  <polygon points="685.4,304.8 685.4,282.5 703.4,282.5 703.4,304.8 685.4,304.8"/>
  <polygon points="707.8,283.0 707.8,282.5 725.8,282.5 725.8,283.0 707.8,283.0"/>
  <polygon points="842.2,298.3 842.2,282.5 860.2,282.5 860.2,298.3 842.2,298.3"/>
  <polygon points="864.6,343.2 864.6,282.5 882.6,282.5 882.6,343.2 864.6,343.2"/>
</g>
<polyline class="pl" points="156.8,471.8 179.2,466.2 201.6,436.5 224.0,470.1 246.4,449.7 268.8,456.3 291.2,467.6 313.6,472.4 336.0,454.2 358.4,412.7 380.8,395.0 403.2,371.5 425.6,330.9 448.0,301.1 470.4,335.1 492.8,375.5 515.2,462.2 537.6,479.0 560.0,464.8 582.4,474.2 604.8,464.8 627.2,412.4 649.6,345.8 672.0,304.0 694.4,277.8 716.8,255.8 739.2,220.1 761.6,223.4 784.0,156.8 806.4,163.6 828.8,239.1 851.2,250.2 873.6,275.0 896.0,201.4" stroke="#000" stroke-width="5.40" stroke-opacity="1.00" fill="none" clip-path="url(#axis_clip)"/>
<g class="pl" fill="#FFF" stroke="#000" stroke-width="0.900">
  <circle cx="179.2" cy="466.2" r="2.2" />
  <circle cx="201.6" cy="436.5" r="2.2" />
  <circle cx="224.0" cy="470.1" r="2.2" />
  <circle cx="246.4" cy="449.7" r="2.2" />
  <circle cx="268.8" cy="456.3" r="2.2" />
  <circle cx="291.2" cy="467.6" r="2.2" />
  <circle cx="313.6" cy="472.4" r="2.2" />
  <circle cx="336.0" cy="454.2" r="2.2" />
  <circle cx="358.4" cy="412.7" r="2.2" />
  <circle cx="403.2" cy="371.5" r="2.2" />
  <circle cx="425.6" cy="330.9" r="2.2" />
  <circle cx="448.0" cy="301.1" r="2.2" />
  <circle cx="470.4" cy="335.1" r="2.2" />
  <circle cx="492.8" cy="375.5" r="2.2" />
  <circle cx="515.2" cy="462.2" r="2.2" />
  <circle cx="537.6" cy="479.0" r="2.2" />
  <circle cx="560.0" cy="464.8" r="2.2" />
  <circle cx="582.4" cy="474.2" r="2.2" />
  <circle cx="627.2" cy="412.4" r="2.2" />
  <circle cx="649.6" cy="345.8" r="2.2" />
  <circle cx="672.0" cy="304.0" r="2.2" />
  <circle cx="694.4" cy="277.8" r="2.2" />
  <circle cx="716.8" cy="255.8" r="2.2" />
  <circle cx="739.2" cy="220.1" r="2.2" />
  <circle cx="761.6" cy="223.4" r="2.2" />
  <circle cx="784.0" cy="156.8" r="2.2" />
  <circle cx="806.4" cy="163.6" r="2.2" />
  <circle cx="851.2" cy="250.2" r="2.2" />
  <circle cx="873.6" cy="275.0" r="2.2" />
  <circle cx="896.0" cy="201.4" r="2.2" />
</g>
<g class="pl" fill="#FFF" stroke="#000" stroke-width="0.900">
  <circle cx="156.8" cy="471.8" r="5.4" />
  <circle cx="380.8" cy="395.0" r="5.4" />
  <circle cx="604.8" cy="464.8" r="5.4" />
  <circle cx="828.8" cy="239.1" r="5.4" />
</g>
<text transform="translate(145.6,47.2)" dy="0.0" font-size="27.00" fill="#808080" stroke="none">Annual LULUCF emissions: Estonia</text>
<text transform="translate(130.0,157.8)" dy="8.1" font-size="27.00" fill="#808080" stroke="none" text-anchor="end">CO<tspan dy="0.2em"><tspan style="font-size:70%">2</tspan></tspan><tspan dy="-0.2em">e</tspan></text>
<text transform="translate(945.6,265.9)" dy="6.5" font-size="21.60" fill="#6AB561" stroke="none">Forest land</text>
<text transform="translate(945.6,245.2)" dy="6.5" font-size="21.60" fill="#5AA3D0" stroke="none">Cropland</text>
<text transform="translate(945.6,217.6)" dy="6.5" font-size="21.60" fill="#EDB120" stroke="none">Wetlands</text>
<text transform="translate(945.6,196.9)" dy="6.5" font-size="21.60" fill="#808080" stroke="none">Settlements</text>
<text transform="translate(945.6,176.1)" dy="6.5" font-size="21.60" fill="#7B417F" stroke="none">Other land</text>
<text transform="translate(945.6,155.4)" dy="6.5" font-size="21.60" fill="#1A4D1A" stroke="none">Other</text>
<text transform="translate(945.6,286.6)" dy="6.5" font-size="21.60" fill="#D95319" stroke="none">Grassland</text>
<text transform="translate(945.6,307.3)" dy="6.5" font-size="21.60" fill="#8B1E40" stroke="none">HWP</text>
<polyline class="pl" points="910.8,273.0 912.4,273.0 913.8,272.9 915.2,272.8 916.4,272.7 917.6,272.5 918.8,272.2 919.8,272.0 920.8,271.7 921.7,271.4 922.7,271.1 923.5,270.7 924.4,270.4 925.2,270.0 926.0,269.7 926.8,269.3 927.6,268.9 928.4,268.6 929.3,268.2 930.1,267.9 931.1,267.5 932.0,267.2 933.0,266.9 934.0,266.7 935.2,266.5 936.4,266.3 937.6,266.1 939.0,266.0 940.4,265.9 942.0,265.9" stroke="#6AB561" stroke-width="0.90" stroke-opacity="1.00" fill="none" />
<polyline class="pl" points="910.8,247.4 912.4,247.4 913.8,247.4 915.2,247.4 916.4,247.3 917.6,247.2 918.8,247.2 919.8,247.1 920.8,247.0 921.7,246.9 922.7,246.8 923.5,246.7 924.4,246.6 925.2,246.5 926.0,246.4 926.8,246.2 927.6,246.1 928.4,246.0 929.3,245.9 930.1,245.8 931.1,245.7 932.0,245.6 933.0,245.5 934.0,245.4 935.2,245.4 936.4,245.3 937.6,245.2 939.0,245.2 940.4,245.2 942.0,245.2" stroke="#5AA3D0" stroke-width="0.90" stroke-opacity="1.00" fill="none" />
<polyline class="pl" points="910.8,210.6 912.4,210.7 913.8,210.7 915.2,210.8 916.4,211.0 917.6,211.2 918.8,211.4 919.8,211.7 920.8,211.9 921.7,212.2 922.7,212.5 923.5,212.9 924.4,213.2 925.2,213.6 926.0,213.9 926.8,214.3 927.6,214.6 928.4,215.0 929.3,215.3 930.1,215.7 931.1,216.0 932.0,216.3 933.0,216.6 934.0,216.8 935.2,217.0 936.4,217.2 937.6,217.4 939.0,217.5 940.4,217.6 942.0,217.6" stroke="#EDB120" stroke-width="0.90" stroke-opacity="1.00" fill="none" />
<polyline class="pl" points="910.8,183.5 912.4,183.6 913.8,183.7 915.2,183.9 916.4,184.2 917.6,184.6 918.8,185.0 919.8,185.5 920.8,186.0 921.7,186.6 922.7,187.2 923.5,187.8 924.4,188.5 925.2,189.2 926.0,189.8 926.8,190.5 927.6,191.2 928.4,191.9 929.3,192.6 930.1,193.2 931.1,193.8 932.0,194.4 933.0,194.9 934.0,195.4 935.2,195.8 936.4,196.2 937.6,196.5 939.0,196.7 940.4,196.8 942.0,196.9" stroke="#808080" stroke-width="0.90" stroke-opacity="1.00" fill="none" />
<polyline class="pl" points="910.8,176.3 912.4,176.3 913.8,176.3 915.2,176.3 916.4,176.3 917.6,176.3 918.8,176.3 919.8,176.3 920.8,176.3 921.7,176.3 922.7,176.2 923.5,176.2 924.4,176.2 925.2,176.2 926.0,176.2 926.8,176.2 927.6,176.2 928.4,176.2 929.3,176.2 930.1,176.2 931.1,176.2 932.0,176.2 933.0,176.2 934.0,176.2 935.2,176.1 936.4,176.1 937.6,176.1 939.0,176.1 940.4,176.1 942.0,176.1" stroke="#7B417F" stroke-width="0.90" stroke-opacity="1.00" fill="none" />
<polyline class="pl" points="910.8,175.5 912.4,175.5 913.8,175.3 915.2,174.9 916.4,174.5 917.6,174.0 918.8,173.3 919.8,172.6 920.8,171.8 921.7,170.9 922.7,170.0 923.5,169.1 924.4,168.1 925.2,167.0 926.0,166.0 926.8,165.0 927.6,163.9 928.4,162.9 929.3,161.9 930.1,160.9 931.1,160.0 932.0,159.2 933.0,158.4 934.0,157.6 935.2,157.0 936.4,156.5 937.6,156.0 939.0,155.7 940.4,155.5 942.0,155.4" stroke="#1A4D1A" stroke-width="0.90" stroke-opacity="1.00" fill="none" />
<polyline class="pl" points="910.8,285.8 912.4,285.8 913.8,285.9 915.2,285.9 916.4,285.9 917.6,285.9 918.8,285.9 919.8,286.0 920.8,286.0 921.7,286.0 922.7,286.1 923.5,286.1 924.4,286.1 925.2,286.2 926.0,286.2 926.8,286.3 927.6,286.3 928.4,286.3 929.3,286.4 930.1,286.4 931.1,286.4 932.0,286.5 933.0,286.5 934.0,286.5 935.2,286.6 936.4,286.6 937.6,286.6 939.0,286.6 940.4,286.6 942.0,286.6" stroke="#D95319" stroke-width="0.90" stroke-opacity="1.00" fill="none" />
<polyline class="pl" points="910.8,298.7 912.4,298.8 913.8,298.9 915.2,299.0 916.4,299.2 917.6,299.4 918.8,299.7 919.8,300.0 920.8,300.3 921.7,300.7 922.7,301.1 923.5,301.5 924.4,301.9 925.2,302.4 926.0,302.8 926.8,303.3 927.6,303.7 928.4,304.1 929.3,304.6 930.1,305.0 931.1,305.4 932.0,305.7 933.0,306.1 934.0,306.4 935.2,306.7 936.4,306.9 937.6,307.1 939.0,307.2 940.4,307.3 942.0,307.3" stroke="#8B1E40" stroke-width="0.90" stroke-opacity="1.00" fill="none" />
<text transform="translate(160.0,666.1)" font-size="19.80" font-family="Helvetica" fill="#BFBFBF" stroke="none" xml:space="preserve">CICERO   &#9679;   Data: UNFCCC (2025)   &#9679;   HWP = Harvested Wood Products</text>
<g>
  <rect x="123.0" y="651.4" width="34" height="17" fill="#FFF" stroke="none" opacity="0.01"/>
  <g transform="translate(124.0,652.4) scale(0.24)">
  <g><circle fill="#FFF" cx="37.79" cy="28.5" r="28.84"/>
     <circle fill="none" cx="37.79" cy="28.5" r="28.84" stroke="#BFBFBF" stroke-width="5.5"/>
     <path fill="#BFBFBF" d="M37.16,23.19 l-4.29,2.23c-0.458-0.951-1.02-1.62-1.69-2c-0.667-0.38-1.29-0.571-1.86-0.571c-2.86,0-4.29,1.89-4.29,5.66 c0,1.71,0.36,3.08,1.09,4.11c0.724,1.03,1.79,1.54,3.2,1.54c1.87,0,3.18-0.915,3.94-2.74l3.94,2 c-0.838,1.56-2,2.79-3.49,3.69c-1.48,0.896-3.12,1.34-4.91,1.34c-2.86,0-5.16-0.875-6.92-2.63 c-1.75-1.75-2.63-4.19-2.63-7.31c0-3.05,0.886-5.47,2.66-7.26c1.77-1.79,4.01-2.69,6.72-2.69 C32.6,18.56,35.44,20.1,37.16,23.19z
              M55.61,23.19l-4.23,2.23c-0.457-0.951-1.02-1.62-1.69-2 c-0.668-0.38-1.31-0.571-1.91-0.571c-2.86,0-4.29,1.89-4.29,5.66c0,1.71,0.363,3.08,1.09,4.11 c0.723,1.03,1.79,1.54,3.2,1.54c1.87,0,3.18-0.915,3.94-2.74l4,2c-0.875,1.56-2.06,2.79-3.54,3.69 c-1.49,0.9-3.11,1.34-4.86,1.34c-2.9,0-5.21-0.875-6.94-2.63c-1.74-1.75-2.6-4.19-2.6-7.31 c0-3.05,0.885-5.47,2.66-7.26c1.77-1.79,4.01-2.69,6.71-2.69C51.12,18.56,53.944,20.1,55.61,23.19z"/>
  </g></g>
  <g transform="translate(140.2,652.4) scale(0.24)">
  <g><circle fill="#FFF" cx="37.79" cy="28.5" r="28.84"/>
     <circle fill="none" cx="37.79" cy="28.5" r="28.84" stroke="#BFBFBF" stroke-width="5.5"/>
     <path fill="#BFBFBF" d="M46.129,20.557v13.085h-3.656v15.542h-9.944V33.643h-3.656V20.557 c0-0.572,0.2-1.057,0.599-1.457c0.401-0.399,0.887-0.6,1.457-0.6h13.144c0.533,0,1.01,0.2,1.428,0.6 C45.918,19.5,46.129,19.986,46.129,20.557z
              M33.042,12.329c0-3.008,1.485-4.514,4.458-4.514s4.457,1.504,4.457,4.514 c0,2.971-1.486,4.457-4.457,4.457S33.042,15.3,33.042,12.329z"/>
  </g></g>
</g>
</g>
</svg>
