<svg version="1.1" xmlns="http://www.w3.org/2000/svg" xmlns:xlink="http://www.w3.org/1999/xlink" width="100%" height="100%" viewBox="0 0 1200.000 674.916">
<title>Annual Energy sector Emissions: Estonia</title>
<style type="text/css">
  #main {font-family:Helvetica,Arial,sans-serif; font-size:27.00px;
         fill-opacity:1; fill:#000000; stroke:none; stroke-linejoin:round; stroke-linecap:round; stroke-width:1.00;}
  .marker {stroke-opacity:0;fill-opacity:0;}
  .marker:hover {stroke-opacity:0.5; fill-opacity:1;}
  .ticklabel {font-size:27.00px;fill:#808080;stroke:none;font-family:Helvetica}
  .ytl {text-anchor:end;}
  .dp1 {pointer-events:none;font-size:70%;text-anchor:middle;fill:#000000;}
  .dp2 {pointer-events:none;font-size:70%;text-anchor:middle;fill:#FFFFFF;}
  .numtip {pointer-events:none;}
  .cc {opacity:0.25;}
.dl_fe {background-color:#FDFFDF;display:flex;margin:auto;align-items:center}
.dl_fe_p {font-size:20px;text-align:center;margin:3px}
.dl_el {display:none;pointer-events:none;}
.cc:hover + .dl_el {display:block;}
text:hover + .dl_el {display:block;}
</style>
<defs>
  <clipPath id="axis_clip"><rect x="145.8" y="54.2" width="761.2" height="532.8" /></clipPath>
  <path id="line_y" d="M 0,53.993 v 533.183" stroke="#262626" stroke-opacity="0.15" stroke-width="1.00"/>
  <path id="line_x" d="M 145.600,0 h 761.600" stroke="#262626" stroke-opacity="0.15" stroke-width="1.00"/>
  <path id="tick_y" d="M 145.600,0 h -6.000" stroke="#808080" stroke-width="0.90"/>
  <path id="tick_x" d="M 0,587.177 v 6.000" stroke="#808080" stroke-width="0.90"/>
</defs>
<g id="main">
<use xlink:href="#line_y" transform="translate(157.1,0)"/>
<use xlink:href="#line_y" transform="translate(272.5,0)"/>
<use xlink:href="#line_y" transform="translate(387.9,0)"/>
<use xlink:href="#line_y" transform="translate(503.3,0)"/>
<use xlink:href="#line_y" transform="translate(618.7,0)"/>
<use xlink:href="#line_y" transform="translate(734.1,0)"/>
<use xlink:href="#line_y" transform="translate(895.7,0)"/>
<use xlink:href="#line_x" transform="translate(0,587.2)"/>
<use xlink:href="#line_x" transform="translate(0,453.9)"/>
<use xlink:href="#line_x" transform="translate(0,320.6)"/>
<use xlink:href="#line_x" transform="translate(0,187.3)"/>
<use xlink:href="#line_x" transform="translate(0,54.0)"/>
<use xlink:href="#tick_y" transform="translate(0,587.2)"/>
<use xlink:href="#tick_y" transform="translate(0,453.9)"/>
<use xlink:href="#tick_y" transform="translate(0,320.6)"/>
<use xlink:href="#tick_y" transform="translate(0,187.3)"/>
<use xlink:href="#tick_y" transform="translate(0,54.0)"/>
<use xlink:href="#tick_x" transform="translate(157.1,0)"/>
<use xlink:href="#tick_x" transform="translate(272.5,0)"/>
<use xlink:href="#tick_x" transform="translate(387.9,0)"/>
<use xlink:href="#tick_x" transform="translate(503.3,0)"/>
<use xlink:href="#tick_x" transform="translate(618.7,0)"/>
<use xlink:href="#tick_x" transform="translate(734.1,0)"/>
<use xlink:href="#tick_x" transform="translate(895.7,0)"/>
<polyline points="145.6,53.993 145.6,587.177 907.2,587.177" stroke="#808080" stroke-width="0.90" fill="none"/>
<text class="ticklabel xtl" transform="translate(157.1,629.0)" text-anchor="middle">1990</text>
<text class="ticklabel xtl" transform="translate(272.5,629.0)" text-anchor="middle">1995</text>
<text class="ticklabel xtl" transform="translate(387.9,629.0)" text-anchor="middle">2000</text>
<text class="ticklabel xtl" transform="translate(503.3,629.0)" text-anchor="middle">2005</text>
<text class="ticklabel xtl" transform="translate(618.7,629.0)" text-anchor="middle">2010</text>
<text class="ticklabel xtl" transform="translate(734.1,629.0)" text-anchor="middle">2015</text>
<text class="ticklabel xtl" transform="translate(895.7,629.0)" text-anchor="middle">2022</text>
<text class="ticklabel ytl" transform="translate(128.8,595.3)">0</text>
<text class="ticklabel ytl" transform="translate(128.8,462.0)">10</text>
<text class="ticklabel ytl" transform="translate(128.8,328.7)">20</text>
<text class="ticklabel ytl" transform="translate(128.8,195.4)">30</text>
<text class="ticklabel ytl" transform="translate(128.8,62.1)">40 Mt</text>
<g stroke="#000" stroke-width="0.90" fill="#D95319"  clip-path="url(#axis_clip)">
</g>
<g stroke="#000" stroke-width="0.90" fill="#0072BD"  clip-path="url(#axis_clip)">
</g>
<g stroke="#000" stroke-width="0.90" fill="#7FBF7F"  clip-path="url(#axis_clip)">
</g>
<g stroke="#000" stroke-width="0.90" fill="#7FDEDE"  clip-path="url(#axis_clip)">
  <polygon points="147.9,105.8 147.9,129.8 166.4,129.8 166.4,105.8 147.9,105.8"/>
  <polygon points="171.0,142.9 171.0,166.0 189.4,166.0 189.4,142.9 171.0,142.9"/>
  <polygon points="194.1,267.8 194.1,281.8 212.5,281.8 212.5,267.8 194.1,267.8"/>
  <polygon points="217.1,331.4 217.1,342.3 235.6,342.3 235.6,331.4 217.1,331.4"/>
  <polygon points="240.2,326.5 240.2,334.0 258.7,334.0 258.7,326.5 240.2,326.5"/>
  <polygon points="263.3,353.3 263.3,361.0 281.8,361.0 281.8,353.3 263.3,353.3"/>
  <polygon points="286.4,340.1 286.4,349.8 304.8,349.8 304.8,340.1 286.4,340.1"/>
  <polygon points="309.5,345.6 309.5,353.8 327.9,353.8 327.9,345.6 309.5,345.6"/>
  <polygon points="332.5,369.8 332.5,377.4 351.0,377.4 351.0,369.8 332.5,369.8"/>
  <polygon points="355.6,382.2 355.6,389.5 374.1,389.5 374.1,382.2 355.6,382.2"/>
  <polygon points="378.7,388.1 378.7,395.5 397.2,395.5 397.2,388.1 378.7,388.1"/>
  <polygon points="401.8,383.0 401.8,392.6 420.2,392.6 420.2,383.0 401.8,383.0"/>
  <polygon points="424.9,387.4 424.9,396.7 443.3,396.7 443.3,387.4 424.9,387.4"/>
  <polygon points="447.9,362.8 447.9,372.8 466.4,372.8 466.4,362.8 447.9,362.8"/>
  <polygon points="471.0,363.4 471.0,373.2 489.5,373.2 489.5,363.4 471.0,363.4"/>
  <polygon points="494.1,366.1 494.1,375.7 512.6,375.7 512.6,366.1 494.1,366.1"/>
  <polygon points="517.2,375.1 517.2,383.5 535.6,383.5 535.6,375.1 517.2,375.1"/>
  <polygon points="540.2,330.9 540.2,339.2 558.7,339.2 558.7,330.9 540.2,330.9"/>
  <polygon points="563.3,359.5 563.3,367.5 581.8,367.5 581.8,359.5 563.3,359.5"/>
  <polygon points="586.4,398.3 586.4,405.6 604.9,405.6 604.9,398.3 586.4,398.3"/>
  <polygon points="609.5,338.0 609.5,345.3 627.9,345.3 627.9,338.0 609.5,338.0"/>
  <polygon points="632.6,339.7 632.6,348.2 651.0,348.2 651.0,339.7 632.6,339.7"/>
  <polygon points="655.6,358.7 655.6,367.3 674.1,367.3 674.1,358.7 655.6,358.7"/>
  <polygon points="678.7,335.0 678.7,343.4 697.2,343.4 697.2,335.0 678.7,335.0"/>
  <polygon points="701.8,342.3 701.8,351.7 720.3,351.7 720.3,342.3 701.8,342.3"/>
  <polygon points="724.9,379.7 724.9,388.9 743.3,388.9 743.3,379.7 724.9,379.7"/>
  <polygon points="748.0,357.4 748.0,366.5 766.4,366.5 766.4,357.4 748.0,357.4"/>
  <polygon points="771.0,343.4 771.0,352.0 789.5,352.0 789.5,343.4 771.0,343.4"/>
  <polygon points="794.1,354.2 794.1,362.6 812.6,362.6 812.6,354.2 794.1,354.2"/>
  <polygon points="817.2,427.6 817.2,435.3 835.7,435.3 835.7,427.6 817.2,427.6"/>
  <polygon points="840.3,464.9 840.3,472.2 858.7,472.2 858.7,464.9 840.3,464.9"/>
  <polygon points="863.4,449.0 863.4,456.0 881.8,456.0 881.8,449.0 863.4,449.0"/>
  <polygon points="886.4,430.5 886.4,436.1 904.9,436.1 904.9,430.5 886.4,430.5"/>
</g>
<g stroke="#000" stroke-width="0.90" fill="#DEDE7F"  clip-path="url(#axis_clip)">
  <polygon points="147.9,129.8 147.9,164.1 166.4,164.1 166.4,129.8 147.9,129.8"/>
  <polygon points="171.0,166.0 171.0,197.3 189.4,197.3 189.4,166.0 171.0,166.0"/>
  <polygon points="194.1,281.8 194.1,298.6 212.5,298.6 212.5,281.8 194.1,281.8"/>
  <polygon points="217.1,342.3 217.1,361.0 235.6,361.0 235.6,342.3 217.1,342.3"/>
  <polygon points="240.2,334.0 240.2,356.7 258.7,356.7 258.7,334.0 240.2,334.0"/>
  <polygon points="263.3,361.0 263.3,383.5 281.8,383.5 281.8,361.0 263.3,361.0"/>
  <polygon points="286.4,349.8 286.4,373.5 304.8,373.5 304.8,349.8 286.4,349.8"/>
  <polygon points="309.5,353.8 309.5,378.8 327.9,378.8 327.9,353.8 309.5,353.8"/>
  <polygon points="332.5,377.4 332.5,403.2 351.0,403.2 351.0,377.4 332.5,377.4"/>
  <polygon points="355.6,389.5 355.6,413.6 374.1,413.6 374.1,389.5 355.6,389.5"/>
  <polygon points="378.7,395.5 378.7,419.3 397.2,419.3 397.2,395.5 378.7,395.5"/>
  <polygon points="401.8,392.6 401.8,420.7 420.2,420.7 420.2,392.6 401.8,392.6"/>
  <polygon points="424.9,396.7 424.9,426.0 443.3,426.0 443.3,396.7 424.9,396.7"/>
  <polygon points="447.9,372.8 447.9,401.2 466.4,401.2 466.4,372.8 447.9,372.8"/>
  <polygon points="471.0,373.2 471.0,402.1 489.5,402.1 489.5,373.2 471.0,373.2"/>
  <polygon points="494.1,375.7 494.1,405.5 512.6,405.5 512.6,375.7 494.1,375.7"/>
  <polygon points="517.2,383.5 517.2,415.3 535.6,415.3 535.6,383.5 517.2,383.5"/>
  <polygon points="540.2,339.2 540.2,372.2 558.7,372.2 558.7,339.2 540.2,339.2"/>
  <polygon points="563.3,367.5 563.3,399.4 581.8,399.4 581.8,367.5 563.3,367.5"/>
  <polygon points="586.4,405.6 586.4,435.1 604.9,435.1 604.9,405.6 586.4,405.6"/>
  <polygon points="609.5,345.3 609.5,376.8 627.9,376.8 627.9,345.3 609.5,345.3"/>
  <polygon points="632.6,348.2 632.6,379.6 651.0,379.6 651.0,348.2 632.6,348.2"/>
  <polygon points="655.6,367.3 655.6,399.2 674.1,399.2 674.1,367.3 655.6,367.3"/>
  <polygon points="678.7,343.4 678.7,374.8 697.2,374.8 697.2,343.4 678.7,343.4"/>
  <polygon points="701.8,351.7 701.8,383.2 720.3,383.2 720.3,351.7 701.8,351.7"/>
  <polygon points="724.9,388.9 724.9,421.5 743.3,421.5 743.3,388.9 724.9,388.9"/>
  <polygon points="748.0,366.5 748.0,399.8 766.4,399.8 766.4,366.5 748.0,366.5"/>
  <polygon points="771.0,352.0 771.0,386.7 789.5,386.7 789.5,352.0 771.0,352.0"/>
  <polygon points="794.1,362.6 794.1,397.9 812.6,397.9 812.6,362.6 794.1,362.6"/>
  <polygon points="817.2,435.3 817.2,470.1 835.7,470.1 835.7,435.3 817.2,435.3"/>
  <polygon points="840.3,472.2 840.3,505.0 858.7,505.0 858.7,472.2 840.3,472.2"/>
  <polygon points="863.4,456.0 863.4,489.8 881.8,489.8 881.8,456.0 863.4,456.0"/>
  <polygon points="886.4,436.1 886.4,471.3 904.9,471.3 904.9,436.1 886.4,436.1"/>
</g>
<g stroke="#000" stroke-width="0.90" fill="#7F7FFF"  clip-path="url(#axis_clip)">
  <polygon points="147.9,164.1 147.9,210.2 166.4,210.2 166.4,164.1 147.9,164.1"/>
  <polygon points="171.0,197.3 171.0,241.7 189.4,241.7 189.4,197.3 171.0,197.3"/>
  <polygon points="194.1,298.6 194.1,324.4 212.5,324.4 212.5,298.6 194.1,298.6"/>
  <polygon points="217.1,361.0 217.1,384.9 235.6,384.9 235.6,361.0 217.1,361.0"/>
  <polygon points="240.2,356.7 240.2,377.0 258.7,377.0 258.7,356.7 240.2,356.7"/>
  <polygon points="263.3,383.5 263.3,403.3 281.8,403.3 281.8,383.5 263.3,383.5"/>
  <polygon points="286.4,373.5 286.4,394.4 304.8,394.4 304.8,373.5 286.4,373.5"/>
  <polygon points="309.5,378.8 309.5,396.4 327.9,396.4 327.9,378.8 309.5,378.8"/>
  <polygon points="332.5,403.2 332.5,419.0 351.0,419.0 351.0,403.2 332.5,403.2"/>
  <polygon points="355.6,413.6 355.6,424.4 374.1,424.4 374.1,413.6 355.6,413.6"/>
  <polygon points="378.7,419.3 378.7,431.1 397.2,431.1 397.2,419.3 378.7,419.3"/>
  <polygon points="401.8,420.7 401.8,435.2 420.2,435.2 420.2,420.7 401.8,420.7"/>
  <polygon points="424.9,426.0 424.9,436.7 443.3,436.7 443.3,426.0 424.9,426.0"/>
  <polygon points="447.9,401.2 447.9,413.6 466.4,413.6 466.4,401.2 447.9,401.2"/>
  <polygon points="471.0,402.1 471.0,415.2 489.5,415.2 489.5,402.1 471.0,402.1"/>
  <polygon points="494.1,405.5 494.1,419.1 512.6,419.1 512.6,405.5 494.1,405.5"/>
  <polygon points="517.2,415.3 517.2,428.8 535.6,428.8 535.6,415.3 517.2,415.3"/>
  <polygon points="540.2,372.2 540.2,389.6 558.7,389.6 558.7,372.2 540.2,372.2"/>
  <polygon points="563.3,399.4 563.3,415.4 581.8,415.4 581.8,399.4 563.3,399.4"/>
  <polygon points="586.4,435.1 586.4,445.1 604.9,445.1 604.9,435.1 586.4,435.1"/>
  <polygon points="609.5,376.8 609.5,387.1 627.9,387.1 627.9,376.8 609.5,376.8"/>
  <polygon points="632.6,379.6 632.6,391.5 651.0,391.5 651.0,379.6 632.6,379.6"/>
  <polygon points="655.6,399.2 655.6,411.1 674.1,411.1 674.1,399.2 655.6,399.2"/>
  <polygon points="678.7,374.8 678.7,386.7 697.2,386.7 697.2,374.8 678.7,374.8"/>
  <polygon points="701.8,383.2 701.8,394.0 720.3,394.0 720.3,383.2 701.8,383.2"/>
  <polygon points="724.9,421.5 724.9,429.3 743.3,429.3 743.3,421.5 724.9,421.5"/>
  <polygon points="748.0,399.8 748.0,408.0 766.4,408.0 766.4,399.8 748.0,399.8"/>
  <polygon points="771.0,386.7 771.0,394.4 789.5,394.4 789.5,386.7 771.0,386.7"/>
  <polygon points="794.1,397.9 794.1,406.0 812.6,406.0 812.6,397.9 794.1,397.9"/>
  <polygon points="817.2,470.1 817.2,478.6 835.7,478.6 835.7,470.1 817.2,470.1"/>
  <polygon points="840.3,505.0 840.3,510.5 858.7,510.5 858.7,505.0 840.3,505.0"/>
  <polygon points="863.4,489.8 863.4,493.9 881.8,493.9 881.8,489.8 863.4,489.8"/>
  <polygon points="886.4,471.3 886.4,474.9 904.9,474.9 904.9,471.3 886.4,471.3"/>
</g>
<g stroke="#000" stroke-width="0.90" fill="#FF7F7F"  clip-path="url(#axis_clip)">
  <polygon points="147.9,210.2 147.9,587.2 166.4,587.2 166.4,210.2 147.9,210.2"/>
  <polygon points="171.0,241.7 171.0,587.2 189.4,587.2 189.4,241.7 171.0,241.7"/>
  <polygon points="194.1,324.4 194.1,587.2 212.5,587.2 212.5,324.4 194.1,324.4"/>
  <polygon points="217.1,384.9 217.1,587.2 235.6,587.2 235.6,384.9 217.1,384.9"/>
  <polygon points="240.2,377.0 240.2,587.2 258.7,587.2 258.7,377.0 240.2,377.0"/>
  <polygon points="263.3,403.3 263.3,587.2 281.8,587.2 281.8,403.3 263.3,403.3"/>
  <polygon points="286.4,394.4 286.4,587.2 304.8,587.2 304.8,394.4 286.4,394.4"/>
  <polygon points="309.5,396.4 309.5,587.2 327.9,587.2 327.9,396.4 309.5,396.4"/>
  <polygon points="332.5,419.0 332.5,587.2 351.0,587.2 351.0,419.0 332.5,419.0"/>
  <polygon points="355.6,424.4 355.6,587.2 374.1,587.2 374.1,424.4 355.6,424.4"/>
  <polygon points="378.7,431.1 378.7,587.2 397.2,587.2 397.2,431.1 378.7,431.1"/>
  <polygon points="401.8,435.2 401.8,587.2 420.2,587.2 420.2,435.2 401.8,435.2"/>
  <polygon points="424.9,436.7 424.9,587.2 443.3,587.2 443.3,436.7 424.9,436.7"/>
  <polygon points="447.9,413.6 447.9,587.2 466.4,587.2 466.4,413.6 447.9,413.6"/>
  <polygon points="471.0,415.2 471.0,587.2 489.5,587.2 489.5,415.2 471.0,415.2"/>
  <polygon points="494.1,419.1 494.1,587.2 512.6,587.2 512.6,419.1 494.1,419.1"/>
  <polygon points="517.2,428.8 517.2,587.2 535.6,587.2 535.6,428.8 517.2,428.8"/>
  <polygon points="540.2,389.6 540.2,587.2 558.7,587.2 558.7,389.6 540.2,389.6"/>
  <polygon points="563.3,415.4 563.3,587.2 581.8,587.2 581.8,415.4 563.3,415.4"/>
  <polygon points="586.4,445.1 586.4,587.2 604.9,587.2 604.9,445.1 586.4,445.1"/>
  <polygon points="609.5,387.1 609.5,587.2 627.9,587.2 627.9,387.1 609.5,387.1"/>
  <polygon points="632.6,391.5 632.6,587.2 651.0,587.2 651.0,391.5 632.6,391.5"/>
  <polygon points="655.6,411.1 655.6,587.2 674.1,587.2 674.1,411.1 655.6,411.1"/>
  <polygon points="678.7,386.7 678.7,587.2 697.2,587.2 697.2,386.7 678.7,386.7"/>
  <polygon points="701.8,394.0 701.8,587.2 720.3,587.2 720.3,394.0 701.8,394.0"/>
  <polygon points="724.9,429.3 724.9,587.2 743.3,587.2 743.3,429.3 724.9,429.3"/>
  <polygon points="748.0,408.0 748.0,587.2 766.4,587.2 766.4,408.0 748.0,408.0"/>
  <polygon points="771.0,394.4 771.0,587.2 789.5,587.2 789.5,394.4 771.0,394.4"/>
  <polygon points="794.1,406.0 794.1,587.2 812.6,587.2 812.6,406.0 794.1,406.0"/>
  <polygon points="817.2,478.6 817.2,587.2 835.7,587.2 835.7,478.6 817.2,478.6"/>
  <polygon points="840.3,510.5 840.3,587.2 858.7,587.2 858.7,510.5 840.3,510.5"/>
  <polygon points="863.4,493.9 863.4,587.2 881.8,587.2 881.8,493.9 863.4,493.9"/>
  <polygon points="886.4,474.9 886.4,587.2 904.9,587.2 904.9,474.9 886.4,474.9"/>
</g>
<g stroke="#000" stroke-width="0.90" fill="#D95319"  clip-path="url(#axis_clip)">
</g>
<g stroke="#000" stroke-width="0.90" fill="#0072BD"  clip-path="url(#axis_clip)">
</g>
<g stroke="#000" stroke-width="0.90" fill="#7FBF7F"  clip-path="url(#axis_clip)">
</g>
<g stroke="#000" stroke-width="0.90" fill="#7FDEDE"  clip-path="url(#axis_clip)">
</g>
<g stroke="#000" stroke-width="0.90" fill="#DEDE7F"  clip-path="url(#axis_clip)">
</g>
<g stroke="#000" stroke-width="0.90" fill="#7F7FFF"  clip-path="url(#axis_clip)">
</g>
<g stroke="#000" stroke-width="0.90" fill="#FF7F7F"  clip-path="url(#axis_clip)">
</g>
<polyline class="pl" points="157.1,105.8 180.2,142.9 203.3,267.8 226.4,331.4 249.5,326.5 272.5,353.3 295.6,340.1 318.7,345.6 341.8,369.8 364.8,382.2 387.9,388.1 411.0,383.0 434.1,387.4 457.2,362.8 480.2,363.4 503.3,366.1 526.4,375.1 549.5,330.9 572.6,359.5 595.6,398.3 618.7,338.0 641.8,339.7 664.9,358.7 688.0,335.0 711.0,342.3 734.1,379.7 757.2,357.4 780.3,343.4 803.3,354.2 826.4,427.6 849.5,464.9 872.6,449.0 895.7,430.5" stroke="#000" stroke-width="5.40" stroke-opacity="1.00" fill="none" clip-path="url(#axis_clip)"/>
<g class="pl" fill="#FFF" stroke="#000" stroke-width="0.900">
  <circle cx="180.2" cy="142.9" r="2.2" />
  <circle cx="203.3" cy="267.8" r="2.2" />
  <circle cx="226.4" cy="331.4" r="2.2" />
  <circle cx="249.5" cy="326.5" r="2.2" />
  <circle cx="272.5" cy="353.3" r="2.2" />
  <circle cx="295.6" cy="340.1" r="2.2" />
  <circle cx="318.7" cy="345.6" r="2.2" />
  <circle cx="341.8" cy="369.8" r="2.2" />
  <circle cx="364.8" cy="382.2" r="2.2" />
  <circle cx="411.0" cy="383.0" r="2.2" />
  <circle cx="434.1" cy="387.4" r="2.2" />
  <circle cx="457.2" cy="362.8" r="2.2" />
  <circle cx="480.2" cy="363.4" r="2.2" />
  <circle cx="503.3" cy="366.1" r="2.2" />
  <circle cx="526.4" cy="375.1" r="2.2" />
  <circle cx="549.5" cy="330.9" r="2.2" />
  <circle cx="572.6" cy="359.5" r="2.2" />
  <circle cx="595.6" cy="398.3" r="2.2" />
  <circle cx="641.8" cy="339.7" r="2.2" />
  <circle cx="664.9" cy="358.7" r="2.2" />
  <circle cx="688.0" cy="335.0" r="2.2" />
  <circle cx="711.0" cy="342.3" r="2.2" />
  <circle cx="734.1" cy="379.7" r="2.2" />
  <circle cx="757.2" cy="357.4" r="2.2" />
  <circle cx="780.3" cy="343.4" r="2.2" />
  <circle cx="803.3" cy="354.2" r="2.2" />
  <circle cx="826.4" cy="427.6" r="2.2" />
  <circle cx="872.6" cy="449.0" r="2.2" />
  <circle cx="895.7" cy="430.5" r="2.2" />
</g>
<g class="pl" fill="#FFF" stroke="#000" stroke-width="0.900">
  <circle cx="157.1" cy="105.8" r="5.4" />
  <circle cx="387.9" cy="388.1" r="5.4" />
  <circle cx="618.7" cy="338.0" r="5.4" />
  <circle cx="849.5" cy="464.9" r="5.4" />
</g>
<text transform="translate(145.6,47.2)" dy="0.0" font-size="27.00" fill="#808080" stroke="none">Annual Energy sector Emissions: Estonia</text>
<text transform="translate(130.0,81.6)" dy="8.1" font-size="27.00" fill="#808080" stroke="none" text-anchor="end">CO<tspan dy="0.2em"><tspan style="font-size:70%">2</tspan></tspan><tspan dy="-0.2em">e</tspan></text>
<text transform="translate(945.6,410.1)" dy="7.6" font-size="25.20" fill="#000" stroke="none">-67.5% since 1990</text>
<text transform="translate(945.6,531.0)" dy="7.6" font-size="25.20" fill="#FF7F7F" stroke="none">Energy industries</text>
<text transform="translate(945.6,485.2)" dy="7.6" font-size="25.20" fill="#7F7FFF" stroke="none">Manufacturing</text>
<text transform="translate(945.6,460.2)" dy="7.6" font-size="25.20" fill="#DEDE7F" stroke="none">Transport</text>
<text transform="translate(945.6,435.1)" dy="7.6" font-size="25.20" fill="#7FDEDE" stroke="none">Other sectors</text>
<polyline class="pl" points="910.8,430.5 912.4,430.5 913.8,430.2 915.2,429.9 916.4,429.5 917.6,428.9 918.8,428.3 919.8,427.5 920.8,426.7 921.7,425.8 922.7,424.9 923.5,423.9 924.4,422.9 925.2,421.9 926.0,420.8 926.8,419.8 927.6,418.7 928.4,417.7 929.3,416.7 930.1,415.7 931.1,414.8 932.0,413.9 933.0,413.1 934.0,412.3 935.2,411.7 936.4,411.1 937.6,410.7 939.0,410.4 940.4,410.2 942.0,410.1" stroke="#000" stroke-width="0.90" stroke-opacity="1.00" fill="none" />
<polyline class="pl" points="910.8,473.1 912.4,473.1 913.8,473.2 915.2,473.4 916.4,473.7 917.6,474.0 918.8,474.4 919.8,474.9 920.8,475.3 921.7,475.9 922.7,476.4 923.5,477.0 924.4,477.6 925.2,478.2 926.0,478.8 926.8,479.5 927.6,480.1 928.4,480.7 929.3,481.3 930.1,481.9 931.1,482.4 932.0,482.9 933.0,483.4 934.0,483.9 935.2,484.2 936.4,484.6 937.6,484.8 939.0,485.0 940.4,485.2 942.0,485.2" stroke="#7F7FFF" stroke-width="0.90" stroke-opacity="1.00" fill="none" />
<polyline class="pl" points="910.8,453.7 912.4,453.7 913.8,453.8 915.2,453.9 916.4,454.0 917.6,454.2 918.8,454.4 919.8,454.6 920.8,454.9 921.7,455.2 922.7,455.5 923.5,455.8 924.4,456.1 925.2,456.4 926.0,456.8 926.8,457.1 927.6,457.4 928.4,457.7 929.3,458.1 930.1,458.4 931.1,458.7 932.0,459.0 933.0,459.2 934.0,459.4 935.2,459.6 936.4,459.8 937.6,460.0 939.0,460.1 940.4,460.1 942.0,460.2" stroke="#DEDE7F" stroke-width="0.90" stroke-opacity="1.00" fill="none" />
<polyline class="pl" points="910.8,433.3 912.4,433.3 913.8,433.3 915.2,433.3 916.4,433.4 917.6,433.4 918.8,433.5 919.8,433.6 920.8,433.6 921.7,433.7 922.7,433.8 923.5,433.9 924.4,434.0 925.2,434.1 926.0,434.2 926.8,434.3 927.6,434.3 928.4,434.4 929.3,434.5 930.1,434.6 931.1,434.7 932.0,434.8 933.0,434.9 934.0,434.9 935.2,435.0 936.4,435.0 937.6,435.1 939.0,435.1 940.4,435.1 942.0,435.1" stroke="#7FDEDE" stroke-width="0.90" stroke-opacity="1.00" fill="none" />
<text transform="translate(160.0,666.1)" font-size="19.80" font-family="Helvetica" fill="#BFBFBF" stroke="none" xml:space="preserve">CICERO   &#9679;   Data: UNFCCC (2024)</text>
<g>
  <rect x="123.0" y="651.4" width="34" height="17" fill="#FFF" stroke="none"/>
  <g transform="translate(124.0,652.4) scale(0.24)">
  <g><circle fill="#FFF" cx="37.79" cy="28.5" r="28.84"/>
     <circle fill="none" cx="37.79" cy="28.5" r="28.84" stroke="#BFBFBF" stroke-width="5.5"/>
     <path fill="#BFBFBF" d="M37.16,23.19 l-4.29,2.23c-0.458-0.951-1.02-1.62-1.69-2c-0.667-0.38-1.29-0.571-1.86-0.571c-2.86,0-4.29,1.89-4.29,5.66 c0,1.71,0.36,3.08,1.09,4.11c0.724,1.03,1.79,1.54,3.2,1.54c1.87,0,3.18-0.915,3.94-2.74l3.94,2 c-0.838,1.56-2,2.79-3.49,3.69c-1.48,0.896-3.12,1.34-4.91,1.34c-2.86,0-5.16-0.875-6.92-2.63 c-1.75-1.75-2.63-4.19-2.63-7.31c0-3.05,0.886-5.47,2.66-7.26c1.77-1.79,4.01-2.69,6.72-2.69 C32.6,18.56,35.44,20.1,37.16,23.19z
              M55.61,23.19l-4.23,2.23c-0.457-0.951-1.02-1.62-1.69-2 c-0.668-0.38-1.31-0.571-1.91-0.571c-2.86,0-4.29,1.89-4.29,5.66c0,1.71,0.363,3.08,1.09,4.11 c0.723,1.03,1.79,1.54,3.2,1.54c1.87,0,3.18-0.915,3.94-2.74l4,2c-0.875,1.56-2.06,2.79-3.54,3.69 c-1.49,0.9-3.11,1.34-4.86,1.34c-2.9,0-5.21-0.875-6.94-2.63c-1.74-1.75-2.6-4.19-2.6-7.31 c0-3.05,0.885-5.47,2.66-7.26c1.77-1.79,4.01-2.69,6.71-2.69C51.12,18.56,53.944,20.1,55.61,23.19z"/>
  </g></g>
  <g transform="translate(140.2,652.4) scale(0.24)">
  <g><circle fill="#FFF" cx="37.79" cy="28.5" r="28.84"/>
     <circle fill="none" cx="37.79" cy="28.5" r="28.84" stroke="#BFBFBF" stroke-width="5.5"/>
     <path fill="#BFBFBF" d="M46.129,20.557v13.085h-3.656v15.542h-9.944V33.643h-3.656V20.557 c0-0.572,0.2-1.057,0.599-1.457c0.401-0.399,0.887-0.6,1.457-0.6h13.144c0.533,0,1.01,0.2,1.428,0.6 C45.918,19.5,46.129,19.986,46.129,20.557z
              M33.042,12.329c0-3.008,1.485-4.514,4.458-4.514s4.457,1.504,4.457,4.514 c0,2.971-1.486,4.457-4.457,4.457S33.042,15.3,33.042,12.329z"/>
  </g></g>
</g>
</g>
</svg>
