<svg version="1.1" xmlns="http://www.w3.org/2000/svg" xmlns:xlink="http://www.w3.org/1999/xlink" width="100%" height="100%" viewBox="0 0 1200.000 674.916">
<title>Annual Greenhouse Gas Emissions: Greece</title>
<style type="text/css">
  #main {font-family:Helvetica,Arial,sans-serif; font-size:27.00px;
         fill-opacity:1; fill:#000000; stroke:none; stroke-linejoin:round; stroke-linecap:round; stroke-width:1.00;}
  .marker {stroke-opacity:0;fill-opacity:0;}
  .marker:hover {stroke-opacity:0.5; fill-opacity:1;}
  .ticklabel {font-size:27.00px;fill:#808080;stroke:none;font-family:Helvetica}
  .ytl {text-anchor:end;}
  .dp1 {pointer-events:none;font-size:70%;text-anchor:middle;fill:#000000;}
  .dp2 {pointer-events:none;font-size:70%;text-anchor:middle;fill:#FFFFFF;}
  .numtip {pointer-events:none;}
  .cc {opacity:0.25;}
.dl_fe {background-color:#FDFFDF;display:flex;margin:auto;align-items:center}
.dl_fe_p {font-size:20px;text-align:center;margin:3px}
.dl_el {display:none;pointer-events:none;}
.cc:hover + .dl_el {display:block;}
text:hover + .dl_el {display:block;}
</style>
<defs>
  <clipPath id="axis_clip"><rect x="145.8" y="54.2" width="761.2" height="532.8" /></clipPath>
  <path id="line_y" d="M 0,53.993 v 533.183" stroke="#262626" stroke-opacity="0.15" stroke-width="1.00"/>
  <path id="line_x" d="M 145.600,0 h 761.600" stroke="#262626" stroke-opacity="0.15" stroke-width="1.00"/>
  <path id="tick_y" d="M 145.600,0 h -6.000" stroke="#808080" stroke-width="0.90"/>
  <path id="tick_x" d="M 0,587.177 v 6.000" stroke="#808080" stroke-width="0.90"/>
</defs>
<g id="main">
<use xlink:href="#line_y" transform="translate(156.5,0)"/>
<use xlink:href="#line_y" transform="translate(265.3,0)"/>
<use xlink:href="#line_y" transform="translate(374.1,0)"/>
<use xlink:href="#line_y" transform="translate(482.9,0)"/>
<use xlink:href="#line_y" transform="translate(591.7,0)"/>
<use xlink:href="#line_y" transform="translate(700.5,0)"/>
<use xlink:href="#line_y" transform="translate(809.3,0)"/>
<use xlink:href="#line_y" transform="translate(896.3,0)"/>
<use xlink:href="#line_x" transform="translate(0,520.5)"/>
<use xlink:href="#line_x" transform="translate(0,387.2)"/>
<use xlink:href="#line_x" transform="translate(0,253.9)"/>
<use xlink:href="#line_x" transform="translate(0,120.6)"/>
<use xlink:href="#tick_y" transform="translate(0,520.5)"/>
<use xlink:href="#tick_y" transform="translate(0,387.2)"/>
<use xlink:href="#tick_y" transform="translate(0,253.9)"/>
<use xlink:href="#tick_y" transform="translate(0,120.6)"/>
<use xlink:href="#tick_x" transform="translate(156.5,0)"/>
<use xlink:href="#tick_x" transform="translate(265.3,0)"/>
<use xlink:href="#tick_x" transform="translate(374.1,0)"/>
<use xlink:href="#tick_x" transform="translate(482.9,0)"/>
<use xlink:href="#tick_x" transform="translate(591.7,0)"/>
<use xlink:href="#tick_x" transform="translate(700.5,0)"/>
<use xlink:href="#tick_x" transform="translate(809.3,0)"/>
<use xlink:href="#tick_x" transform="translate(896.3,0)"/>
<polyline points="145.6,53.993 145.6,587.177 907.2,587.177" stroke="#808080" stroke-width="0.90" fill="none"/>
<text class="ticklabel xtl" transform="translate(156.5,629.0)" text-anchor="middle">1990</text>
<text class="ticklabel xtl" transform="translate(265.3,629.0)" text-anchor="middle">1995</text>
<text class="ticklabel xtl" transform="translate(374.1,629.0)" text-anchor="middle">2000</text>
<text class="ticklabel xtl" transform="translate(482.9,629.0)" text-anchor="middle">2005</text>
<text class="ticklabel xtl" transform="translate(591.7,629.0)" text-anchor="middle">2010</text>
<text class="ticklabel xtl" transform="translate(700.5,629.0)" text-anchor="middle">2015</text>
<text class="ticklabel xtl" transform="translate(809.3,629.0)" text-anchor="middle">2020</text>
<text class="ticklabel xtl" transform="translate(896.3,629.0)" text-anchor="middle">2024</text>
<text class="ticklabel ytl" transform="translate(128.8,528.6)">0</text>
<text class="ticklabel ytl" transform="translate(128.8,395.3)">40</text>
<text class="ticklabel ytl" transform="translate(128.8,262.0)">80</text>
<text class="ticklabel ytl" transform="translate(128.8,128.7)">120 Mt</text>
<g stroke="#000" stroke-width="0.90" fill="#DBA746"  clip-path="url(#axis_clip)">
  <polygon class="pl" points="147.8,174.0 147.8,192.0 165.2,192.0 165.2,174.0 147.8,174.0"/>
  <polygon class="pl" points="169.5,173.9 169.5,191.8 186.9,191.8 186.9,173.9 169.5,173.9"/>
  <polygon class="pl" points="191.3,169.7 191.3,187.9 208.7,187.9 208.7,169.7 191.3,169.7"/>
  <polygon class="pl" points="213.1,171.2 213.1,189.6 230.5,189.6 230.5,171.2 213.1,171.2"/>
  <polygon class="pl" points="234.8,162.4 234.8,181.4 252.2,181.4 252.2,162.4 234.8,162.4"/>
  <polygon class="pl" points="256.6,155.4 256.6,174.4 274.0,174.4 274.0,155.4 256.6,155.4"/>
  <polygon class="pl" points="278.3,145.3 278.3,164.6 295.7,164.6 295.7,145.3 278.3,145.3"/>
  <polygon class="pl" points="300.1,129.1 300.1,148.3 317.5,148.3 317.5,129.1 300.1,129.1"/>
  <polygon class="pl" points="321.9,110.7 321.9,130.6 339.3,130.6 339.3,110.7 321.9,110.7"/>
  <polygon class="pl" points="343.6,110.7 343.6,130.4 361.0,130.4 361.0,110.7 343.6,110.7"/>
  <polygon class="pl" points="365.4,98.5 365.4,118.2 382.8,118.2 382.8,98.5 365.4,98.5"/>
  <polygon class="pl" points="387.1,94.9 387.1,111.7 404.5,111.7 404.5,94.9 387.1,94.9"/>
  <polygon class="pl" points="408.9,94.9 408.9,111.6 426.3,111.6 426.3,94.9 408.9,94.9"/>
  <polygon class="pl" points="430.7,82.1 430.7,99.2 448.1,99.2 448.1,82.1 430.7,82.1"/>
  <polygon class="pl" points="452.4,79.9 452.4,97.1 469.8,97.1 469.8,79.9 452.4,79.9"/>
  <polygon class="pl" points="474.2,64.8 474.2,82.3 491.6,82.3 491.6,64.8 474.2,64.8"/>
  <polygon class="pl" points="495.9,76.4 495.9,94.6 513.3,94.6 513.3,76.4 495.9,76.4"/>
  <polygon class="pl" points="517.7,67.7 517.7,85.3 535.1,85.3 535.1,67.7 517.7,67.7"/>
  <polygon class="pl" points="539.5,78.9 539.5,96.6 556.9,96.6 556.9,78.9 539.5,78.9"/>
  <polygon class="pl" points="561.2,102.9 561.2,119.6 578.6,119.6 578.6,102.9 561.2,102.9"/>
  <polygon class="pl" points="583.0,123.2 583.0,141.0 600.4,141.0 600.4,123.2 583.0,123.2"/>
  <polygon class="pl" points="604.7,133.1 604.7,150.1 622.1,150.1 622.1,133.1 604.7,133.1"/>
  <polygon class="pl" points="626.5,143.9 626.5,160.1 643.9,160.1 643.9,143.9 626.5,143.9"/>
  <polygon class="pl" points="648.3,176.1 648.3,192.6 665.7,192.6 665.7,176.1 648.3,176.1"/>
  <polygon class="pl" points="670.0,187.5 670.0,204.3 687.4,204.3 687.4,187.5 670.0,187.5"/>
  <polygon class="pl" points="691.8,200.4 691.8,217.1 709.2,217.1 709.2,200.4 691.8,200.4"/>
  <polygon class="pl" points="713.5,212.6 713.5,229.6 730.9,229.6 730.9,212.6 713.5,212.6"/>
  <polygon class="pl" points="735.3,199.8 735.3,217.5 752.7,217.5 752.7,199.8 735.3,199.8"/>
  <polygon class="pl" points="757.1,210.6 757.1,228.9 774.5,228.9 774.5,210.6 757.1,210.6"/>
  <polygon class="pl" points="778.8,232.9 778.8,251.4 796.2,251.4 796.2,232.9 778.8,232.9"/>
  <polygon class="pl" points="800.6,267.9 800.6,286.8 818.0,286.8 818.0,267.9 800.6,267.9"/>
  <polygon class="pl" points="822.3,260.9 822.3,281.3 839.7,281.3 839.7,260.9 822.3,260.9"/>
  <polygon class="pl" points="844.1,262.0 844.1,282.7 861.5,282.7 861.5,262.0 844.1,262.0"/>
  <polygon class="pl" points="865.9,280.8 865.9,301.4 883.3,301.4 883.3,280.8 865.9,280.8"/>
  <polygon class="pl" points="887.6,276.3 887.6,297.2 905.0,297.2 905.0,276.3 887.6,276.3"/>
</g>
<g stroke="#000" stroke-width="0.90" fill="#845F48"  clip-path="url(#axis_clip)">
  <polygon class="pl" points="147.8,192.0 147.8,227.1 165.2,227.1 165.2,192.0 147.8,192.0"/>
  <polygon class="pl" points="169.5,191.8 169.5,226.9 186.9,226.9 186.9,191.8 169.5,191.8"/>
  <polygon class="pl" points="191.3,187.9 191.3,222.1 208.7,222.1 208.7,187.9 191.3,187.9"/>
  <polygon class="pl" points="213.1,189.6 213.1,222.2 230.5,222.2 230.5,189.6 213.1,189.6"/>
  <polygon class="pl" points="234.8,181.4 234.8,213.2 252.2,213.2 252.2,181.4 234.8,181.4"/>
  <polygon class="pl" points="256.6,174.4 256.6,207.3 274.0,207.3 274.0,174.4 256.6,174.4"/>
  <polygon class="pl" points="278.3,164.6 278.3,197.7 295.7,197.7 295.7,164.6 278.3,164.6"/>
  <polygon class="pl" points="300.1,148.3 300.1,181.2 317.5,181.2 317.5,148.3 300.1,148.3"/>
  <polygon class="pl" points="321.9,130.6 321.9,163.3 339.3,163.3 339.3,130.6 321.9,130.6"/>
  <polygon class="pl" points="343.6,130.4 343.6,162.8 361.0,162.8 361.0,130.4 343.6,130.4"/>
  <polygon class="pl" points="365.4,118.2 365.4,150.1 382.8,150.1 382.8,118.2 365.4,118.2"/>
  <polygon class="pl" points="387.1,111.7 387.1,143.5 404.5,143.5 404.5,111.7 387.1,111.7"/>
  <polygon class="pl" points="408.9,111.6 408.9,143.4 426.3,143.4 426.3,111.6 408.9,111.6"/>
  <polygon class="pl" points="430.7,99.2 430.7,130.9 448.1,130.9 448.1,99.2 430.7,99.2"/>
  <polygon class="pl" points="452.4,97.1 452.4,128.9 469.8,128.9 469.8,97.1 452.4,97.1"/>
  <polygon class="pl" points="474.2,82.3 474.2,113.5 491.6,113.5 491.6,82.3 474.2,82.3"/>
  <polygon class="pl" points="495.9,94.6 495.9,125.4 513.3,125.4 513.3,94.6 495.9,94.6"/>
  <polygon class="pl" points="517.7,85.3 517.7,116.5 535.1,116.5 535.1,85.3 517.7,85.3"/>
  <polygon class="pl" points="539.5,96.6 539.5,126.9 556.9,126.9 556.9,96.6 539.5,96.6"/>
  <polygon class="pl" points="561.2,119.6 561.2,149.2 578.6,149.2 578.6,119.6 561.2,119.6"/>
  <polygon class="pl" points="583.0,141.0 583.0,171.6 600.4,171.6 600.4,141.0 583.0,141.0"/>
  <polygon class="pl" points="604.7,150.1 604.7,179.9 622.1,179.9 622.1,150.1 604.7,150.1"/>
  <polygon class="pl" points="626.5,160.1 626.5,189.5 643.9,189.5 643.9,160.1 626.5,160.1"/>
  <polygon class="pl" points="648.3,192.6 648.3,221.8 665.7,221.8 665.7,192.6 648.3,192.6"/>
  <polygon class="pl" points="670.0,204.3 670.0,232.1 687.4,232.1 687.4,204.3 670.0,204.3"/>
  <polygon class="pl" points="691.8,217.1 691.8,244.3 709.2,244.3 709.2,217.1 691.8,217.1"/>
  <polygon class="pl" points="713.5,229.6 713.5,256.8 730.9,256.8 730.9,229.6 713.5,229.6"/>
  <polygon class="pl" points="735.3,217.5 735.3,244.8 752.7,244.8 752.7,217.5 735.3,217.5"/>
  <polygon class="pl" points="757.1,228.9 757.1,256.0 774.5,256.0 774.5,228.9 757.1,228.9"/>
  <polygon class="pl" points="778.8,251.4 778.8,278.4 796.2,278.4 796.2,251.4 778.8,251.4"/>
  <polygon class="pl" points="800.6,286.8 800.6,314.9 818.0,314.9 818.0,286.8 800.6,286.8"/>
  <polygon class="pl" points="822.3,281.3 822.3,309.1 839.7,309.1 839.7,281.3 822.3,281.3"/>
  <polygon class="pl" points="844.1,282.7 844.1,309.3 861.5,309.3 861.5,282.7 844.1,282.7"/>
  <polygon class="pl" points="865.9,301.4 865.9,328.7 883.3,328.7 883.3,301.4 865.9,301.4"/>
  <polygon class="pl" points="887.6,297.2 887.6,324.2 905.0,324.2 905.0,297.2 887.6,297.2"/>
</g>
<g stroke="#000" stroke-width="0.90" fill="#4A89E8"  clip-path="url(#axis_clip)">
  <polygon class="pl" points="147.8,227.1 147.8,263.5 165.2,263.5 165.2,227.1 147.8,227.1"/>
  <polygon class="pl" points="169.5,226.9 169.5,263.1 186.9,263.1 186.9,226.9 169.5,226.9"/>
  <polygon class="pl" points="191.3,222.1 191.3,256.5 208.7,256.5 208.7,222.1 191.3,222.1"/>
  <polygon class="pl" points="213.1,222.2 213.1,257.7 230.5,257.7 230.5,222.2 213.1,222.2"/>
  <polygon class="pl" points="234.8,213.2 234.8,250.2 252.2,250.2 252.2,213.2 234.8,213.2"/>
  <polygon class="pl" points="256.6,207.3 256.6,250.0 274.0,250.0 274.0,207.3 256.6,207.3"/>
  <polygon class="pl" points="278.3,197.7 278.3,242.6 295.7,242.6 295.7,197.7 278.3,197.7"/>
  <polygon class="pl" points="300.1,181.2 300.1,227.5 317.5,227.5 317.5,181.2 300.1,181.2"/>
  <polygon class="pl" points="321.9,163.3 321.9,211.8 339.3,211.8 339.3,163.3 321.9,163.3"/>
  <polygon class="pl" points="343.6,162.8 343.6,213.6 361.0,213.6 361.0,162.8 343.6,162.8"/>
  <polygon class="pl" points="365.4,150.1 365.4,197.7 382.8,197.7 382.8,150.1 365.4,150.1"/>
  <polygon class="pl" points="387.1,143.5 387.1,189.5 404.5,189.5 404.5,143.5 387.1,143.5"/>
  <polygon class="pl" points="408.9,143.4 408.9,189.9 426.3,189.9 426.3,143.4 408.9,143.4"/>
  <polygon class="pl" points="430.7,130.9 430.7,177.0 448.1,177.0 448.1,130.9 430.7,130.9"/>
  <polygon class="pl" points="452.4,128.9 452.4,175.5 469.8,175.5 469.8,128.9 452.4,128.9"/>
  <polygon class="pl" points="474.2,113.5 474.2,162.7 491.6,162.7 491.6,113.5 474.2,113.5"/>
  <polygon class="pl" points="495.9,125.4 495.9,167.1 513.3,167.1 513.3,125.4 495.9,125.4"/>
  <polygon class="pl" points="517.7,116.5 517.7,159.6 535.1,159.6 535.1,116.5 517.7,116.5"/>
  <polygon class="pl" points="539.5,126.9 539.5,169.3 556.9,169.3 556.9,126.9 539.5,126.9"/>
  <polygon class="pl" points="561.2,149.2 561.2,185.8 578.6,185.8 578.6,149.2 561.2,149.2"/>
  <polygon class="pl" points="583.0,171.6 583.0,209.7 600.4,209.7 600.4,171.6 583.0,171.6"/>
  <polygon class="pl" points="604.7,179.9 604.7,213.4 622.1,213.4 622.1,179.9 604.7,179.9"/>
  <polygon class="pl" points="626.5,189.5 626.5,225.7 643.9,225.7 643.9,189.5 626.5,189.5"/>
  <polygon class="pl" points="648.3,221.8 648.3,260.4 665.7,260.4 665.7,221.8 648.3,221.8"/>
  <polygon class="pl" points="670.0,232.1 670.0,271.9 687.4,271.9 687.4,232.1 670.0,232.1"/>
  <polygon class="pl" points="691.8,244.3 691.8,282.9 709.2,282.9 709.2,244.3 691.8,244.3"/>
  <polygon class="pl" points="713.5,256.8 713.5,297.1 730.9,297.1 730.9,256.8 713.5,256.8"/>
  <polygon class="pl" points="735.3,244.8 735.3,286.1 752.7,286.1 752.7,244.8 735.3,244.8"/>
  <polygon class="pl" points="757.1,256.0 757.1,296.0 774.5,296.0 774.5,256.0 757.1,256.0"/>
  <polygon class="pl" points="778.8,278.4 778.8,316.3 796.2,316.3 796.2,278.4 778.8,278.4"/>
  <polygon class="pl" points="800.6,314.9 800.6,348.6 818.0,348.6 818.0,314.9 800.6,314.9"/>
  <polygon class="pl" points="822.3,309.1 822.3,342.1 839.7,342.1 839.7,309.1 822.3,309.1"/>
  <polygon class="pl" points="844.1,309.3 844.1,339.1 861.5,339.1 861.5,309.3 844.1,309.3"/>
  <polygon class="pl" points="865.9,328.7 865.9,358.4 883.3,358.4 883.3,328.7 865.9,328.7"/>
  <polygon class="pl" points="887.6,324.2 887.6,353.8 905.0,353.8 905.0,324.2 887.6,324.2"/>
</g>
<g stroke="#000" stroke-width="0.90" fill="#FF7F61"  clip-path="url(#axis_clip)">
  <polygon class="pl" points="147.8,263.5 147.8,520.5 165.2,520.5 165.2,263.5 147.8,263.5"/>
  <polygon class="pl" points="169.5,263.1 169.5,520.5 186.9,520.5 186.9,263.1 169.5,263.1"/>
  <polygon class="pl" points="191.3,256.5 191.3,520.5 208.7,520.5 208.7,256.5 191.3,256.5"/>
  <polygon class="pl" points="213.1,257.7 213.1,520.5 230.5,520.5 230.5,257.7 213.1,257.7"/>
  <polygon class="pl" points="234.8,250.2 234.8,520.5 252.2,520.5 252.2,250.2 234.8,250.2"/>
  <polygon class="pl" points="256.6,250.0 256.6,520.5 274.0,520.5 274.0,250.0 256.6,250.0"/>
  <polygon class="pl" points="278.3,242.6 278.3,520.5 295.7,520.5 295.7,242.6 278.3,242.6"/>
  <polygon class="pl" points="300.1,227.5 300.1,520.5 317.5,520.5 317.5,227.5 300.1,227.5"/>
  <polygon class="pl" points="321.9,211.8 321.9,520.5 339.3,520.5 339.3,211.8 321.9,211.8"/>
  <polygon class="pl" points="343.6,213.6 343.6,520.5 361.0,520.5 361.0,213.6 343.6,213.6"/>
  <polygon class="pl" points="365.4,197.7 365.4,520.5 382.8,520.5 382.8,197.7 365.4,197.7"/>
  <polygon class="pl" points="387.1,189.5 387.1,520.5 404.5,520.5 404.5,189.5 387.1,189.5"/>
  <polygon class="pl" points="408.9,189.9 408.9,520.5 426.3,520.5 426.3,189.9 408.9,189.9"/>
  <polygon class="pl" points="430.7,177.0 430.7,520.5 448.1,520.5 448.1,177.0 430.7,177.0"/>
  <polygon class="pl" points="452.4,175.5 452.4,520.5 469.8,520.5 469.8,175.5 452.4,175.5"/>
  <polygon class="pl" points="474.2,162.7 474.2,520.5 491.6,520.5 491.6,162.7 474.2,162.7"/>
  <polygon class="pl" points="495.9,167.1 495.9,520.5 513.3,520.5 513.3,167.1 495.9,167.1"/>
  <polygon class="pl" points="517.7,159.6 517.7,520.5 535.1,520.5 535.1,159.6 517.7,159.6"/>
  <polygon class="pl" points="539.5,169.3 539.5,520.5 556.9,520.5 556.9,169.3 539.5,169.3"/>
  <polygon class="pl" points="561.2,185.8 561.2,520.5 578.6,520.5 578.6,185.8 561.2,185.8"/>
  <polygon class="pl" points="583.0,209.7 583.0,520.5 600.4,520.5 600.4,209.7 583.0,209.7"/>
  <polygon class="pl" points="604.7,213.4 604.7,520.5 622.1,520.5 622.1,213.4 604.7,213.4"/>
  <polygon class="pl" points="626.5,225.7 626.5,520.5 643.9,520.5 643.9,225.7 626.5,225.7"/>
  <polygon class="pl" points="648.3,260.4 648.3,520.5 665.7,520.5 665.7,260.4 648.3,260.4"/>
  <polygon class="pl" points="670.0,271.9 670.0,520.5 687.4,520.5 687.4,271.9 670.0,271.9"/>
  <polygon class="pl" points="691.8,282.9 691.8,520.5 709.2,520.5 709.2,282.9 691.8,282.9"/>
  <polygon class="pl" points="713.5,297.1 713.5,520.5 730.9,520.5 730.9,297.1 713.5,297.1"/>
  <polygon class="pl" points="735.3,286.1 735.3,520.5 752.7,520.5 752.7,286.1 735.3,286.1"/>
  <polygon class="pl" points="757.1,296.0 757.1,520.5 774.5,520.5 774.5,296.0 757.1,296.0"/>
  <polygon class="pl" points="778.8,316.3 778.8,520.5 796.2,520.5 796.2,316.3 778.8,316.3"/>
  <polygon class="pl" points="800.6,348.6 800.6,520.5 818.0,520.5 818.0,348.6 800.6,348.6"/>
  <polygon class="pl" points="822.3,342.1 822.3,520.5 839.7,520.5 839.7,342.1 822.3,342.1"/>
  <polygon class="pl" points="844.1,339.1 844.1,520.5 861.5,520.5 861.5,339.1 844.1,339.1"/>
  <polygon class="pl" points="865.9,358.4 865.9,520.5 883.3,520.5 883.3,358.4 865.9,358.4"/>
  <polygon class="pl" points="887.6,353.8 887.6,520.5 905.0,520.5 905.0,353.8 887.6,353.8"/>
</g>
<g stroke="#000" stroke-width="0.90" fill="#7FBF7F"  clip-path="url(#axis_clip)">
  <polygon class="pl" points="147.8,528.2 147.8,520.5 165.2,520.5 165.2,528.2 147.8,528.2"/>
  <polygon class="pl" points="169.5,528.7 169.5,520.5 186.9,520.5 186.9,528.7 169.5,528.7"/>
  <polygon class="pl" points="191.3,529.2 191.3,520.5 208.7,520.5 208.7,529.2 191.3,529.2"/>
  <polygon class="pl" points="213.1,530.8 213.1,520.5 230.5,520.5 230.5,530.8 213.1,530.8"/>
  <polygon class="pl" points="234.8,530.0 234.8,520.5 252.2,520.5 252.2,530.0 234.8,530.0"/>
  <polygon class="pl" points="256.6,530.8 256.6,520.5 274.0,520.5 274.0,530.8 256.6,530.8"/>
  <polygon class="pl" points="278.3,528.5 278.3,520.5 295.7,520.5 295.7,528.5 278.3,528.5"/>
  <polygon class="pl" points="300.1,527.8 300.1,520.5 317.5,520.5 317.5,527.8 300.1,527.8"/>
  <polygon class="pl" points="321.9,527.9 321.9,520.5 339.3,520.5 339.3,527.9 321.9,527.9"/>
  <polygon class="pl" points="343.6,529.7 343.6,520.5 361.0,520.5 361.0,529.7 343.6,529.7"/>
  <polygon class="pl" points="365.4,529.1 365.4,520.5 382.8,520.5 382.8,529.1 365.4,529.1"/>
  <polygon class="pl" points="387.1,529.5 387.1,520.5 404.5,520.5 404.5,529.5 387.1,529.5"/>
  <polygon class="pl" points="408.9,530.5 408.9,520.5 426.3,520.5 426.3,530.5 408.9,530.5"/>
  <polygon class="pl" points="430.7,529.7 430.7,520.5 448.1,520.5 448.1,529.7 430.7,529.7"/>
  <polygon class="pl" points="452.4,529.6 452.4,520.5 469.8,520.5 469.8,529.6 452.4,529.6"/>
  <polygon class="pl" points="474.2,532.4 474.2,520.5 491.6,520.5 491.6,532.4 474.2,532.4"/>
  <polygon class="pl" points="495.9,532.6 495.9,520.5 513.3,520.5 513.3,532.6 495.9,532.6"/>
  <polygon class="pl" points="517.7,527.8 517.7,520.5 535.1,520.5 535.1,527.8 517.7,527.8"/>
  <polygon class="pl" points="539.5,531.7 539.5,520.5 556.9,520.5 556.9,531.7 539.5,531.7"/>
  <polygon class="pl" points="561.2,532.0 561.2,520.5 578.6,520.5 578.6,532.0 561.2,532.0"/>
  <polygon class="pl" points="583.0,531.9 583.0,520.5 600.4,520.5 600.4,531.9 583.0,531.9"/>
  <polygon class="pl" points="604.7,532.3 604.7,520.5 622.1,520.5 622.1,532.3 604.7,532.3"/>
  <polygon class="pl" points="626.5,532.4 626.5,520.5 643.9,520.5 643.9,532.4 626.5,532.4"/>
  <polygon class="pl" points="648.3,529.1 648.3,520.5 665.7,520.5 665.7,529.1 648.3,529.1"/>
  <polygon class="pl" points="670.0,527.2 670.0,520.5 687.4,520.5 687.4,527.2 670.0,527.2"/>
  <polygon class="pl" points="691.8,532.1 691.8,520.5 709.2,520.5 709.2,532.1 691.8,532.1"/>
  <polygon class="pl" points="713.5,534.0 713.5,520.5 730.9,520.5 730.9,534.0 713.5,534.0"/>
  <polygon class="pl" points="735.3,533.2 735.3,520.5 752.7,520.5 752.7,533.2 735.3,533.2"/>
  <polygon class="pl" points="757.1,536.0 757.1,520.5 774.5,520.5 774.5,536.0 757.1,536.0"/>
  <polygon class="pl" points="778.8,537.5 778.8,520.5 796.2,520.5 796.2,537.5 778.8,537.5"/>
  <polygon class="pl" points="800.6,537.7 800.6,520.5 818.0,520.5 818.0,537.7 800.6,537.7"/>
  <polygon class="pl" points="822.3,537.4 822.3,520.5 839.7,520.5 839.7,537.4 822.3,537.4"/>
  <polygon class="pl" points="844.1,537.6 844.1,520.5 861.5,520.5 861.5,537.6 844.1,537.6"/>
  <polygon class="pl" points="865.9,534.6 865.9,520.5 883.3,520.5 883.3,534.6 865.9,534.6"/>
  <polygon class="pl" points="887.6,535.4 887.6,520.5 905.0,520.5 905.0,535.4 887.6,535.4"/>
</g>
<polyline class="pl" points="156.5,181.7 178.2,182.1 200.0,178.4 221.8,181.5 243.5,171.9 265.3,165.6 287.0,153.2 308.8,136.4 330.6,118.1 352.3,119.8 374.1,107.0 395.8,103.9 417.6,104.9 439.4,91.2 461.1,89.0 482.9,76.7 504.6,88.5 526.4,75.0 548.2,90.1 569.9,114.4 591.7,134.6 613.4,144.8 635.2,155.8 657.0,184.6 678.7,194.2 700.5,211.9 722.2,226.1 744.0,212.4 765.8,226.0 787.5,249.8 809.3,285.0 831.0,277.8 852.8,279.1 874.6,294.9 896.3,291.2" stroke="#000" stroke-width="5.40" stroke-opacity="1.00" fill="none" clip-path="url(#axis_clip)"/>
<g class="pl" fill="#FFF" stroke="#000" stroke-width="0.900">
  <circle cx="178.2" cy="182.1" r="2.2" />
  <circle cx="200.0" cy="178.4" r="2.2" />
  <circle cx="221.8" cy="181.5" r="2.2" />
  <circle cx="243.5" cy="171.9" r="2.2" />
  <circle cx="265.3" cy="165.6" r="2.2" />
  <circle cx="287.0" cy="153.2" r="2.2" />
  <circle cx="308.8" cy="136.4" r="2.2" />
  <circle cx="330.6" cy="118.1" r="2.2" />
  <circle cx="352.3" cy="119.8" r="2.2" />
  <circle cx="395.8" cy="103.9" r="2.2" />
  <circle cx="417.6" cy="104.9" r="2.2" />
  <circle cx="439.4" cy="91.2" r="2.2" />
  <circle cx="461.1" cy="89.0" r="2.2" />
  <circle cx="482.9" cy="76.7" r="2.2" />
  <circle cx="504.6" cy="88.5" r="2.2" />
  <circle cx="526.4" cy="75.0" r="2.2" />
  <circle cx="548.2" cy="90.1" r="2.2" />
  <circle cx="569.9" cy="114.4" r="2.2" />
  <circle cx="613.4" cy="144.8" r="2.2" />
  <circle cx="635.2" cy="155.8" r="2.2" />
  <circle cx="657.0" cy="184.6" r="2.2" />
  <circle cx="678.7" cy="194.2" r="2.2" />
  <circle cx="700.5" cy="211.9" r="2.2" />
  <circle cx="722.2" cy="226.1" r="2.2" />
  <circle cx="744.0" cy="212.4" r="2.2" />
  <circle cx="765.8" cy="226.0" r="2.2" />
  <circle cx="787.5" cy="249.8" r="2.2" />
  <circle cx="831.0" cy="277.8" r="2.2" />
  <circle cx="852.8" cy="279.1" r="2.2" />
  <circle cx="874.6" cy="294.9" r="2.2" />
  <circle cx="896.3" cy="291.2" r="2.2" />
</g>
<g class="pl" fill="#FFF" stroke="#000" stroke-width="0.900">
  <circle cx="156.5" cy="181.7" r="5.4" />
  <circle cx="374.1" cy="107.0" r="5.4" />
  <circle cx="591.7" cy="134.6" r="5.4" />
  <circle cx="809.3" cy="285.0" r="5.4" />
</g>
<text transform="translate(145.6,47.2)" dy="0.0" font-size="27.00" fill="#808080" stroke="none">Annual Greenhouse Gas Emissions: Greece</text>
<text transform="translate(130.0,148.3)" dy="8.1" font-size="27.00" fill="#808080" stroke="none" text-anchor="end">CO<tspan dy="0.2em"><tspan style="font-size:70%">2</tspan></tspan><tspan dy="-0.2em">e</tspan></text>
<text transform="translate(945.6,294.7)" dy="7.6" font-size="25.20" fill="#000" stroke="none">-32.3% since 1990</text>
<text transform="translate(945.6,437.1)" dy="7.6" font-size="25.20" fill="#FF7F61" stroke="none">Energy</text>
<text transform="translate(945.6,343.7)" dy="7.6" font-size="25.20" fill="#4A89E8" stroke="none">Industrial Processes</text>
<text transform="translate(945.6,319.2)" dy="7.6" font-size="25.20" fill="#845F48" stroke="none">Agriculture</text>
<text transform="translate(945.6,270.2)" dy="7.6" font-size="25.20" fill="#DBA746" stroke="none">Waste</text>
<text transform="translate(945.6,528.0)" dy="7.6" font-size="25.20" fill="#7FBF7F" stroke="none">LULUCF</text>
<polyline class="pl" points="910.8,291.2 912.4,291.3 913.8,291.3 915.2,291.3 916.4,291.4 917.6,291.5 918.8,291.6 919.8,291.7 920.8,291.9 921.7,292.0 922.7,292.2 923.5,292.3 924.4,292.5 925.2,292.7 926.0,292.9 926.8,293.0 927.6,293.2 928.4,293.4 929.3,293.6 930.1,293.7 931.1,293.9 932.0,294.0 933.0,294.2 934.0,294.3 935.2,294.4 936.4,294.5 937.6,294.6 939.0,294.6 940.4,294.6 942.0,294.7" stroke="#000" stroke-width="0.90" stroke-opacity="1.00" fill="none" />
<polyline class="pl" points="910.8,339.0 912.4,339.0 913.8,339.0 915.2,339.1 916.4,339.2 917.6,339.3 918.8,339.5 919.8,339.7 920.8,339.8 921.7,340.0 922.7,340.3 923.5,340.5 924.4,340.7 925.2,341.0 926.0,341.2 926.8,341.4 927.6,341.7 928.4,341.9 929.3,342.1 930.1,342.4 931.1,342.6 932.0,342.8 933.0,343.0 934.0,343.1 935.2,343.3 936.4,343.4 937.6,343.5 939.0,343.6 940.4,343.6 942.0,343.7" stroke="#4A89E8" stroke-width="0.90" stroke-opacity="1.00" fill="none" />
<polyline class="pl" points="910.8,310.7 912.4,310.7 913.8,310.8 915.2,310.9 916.4,311.1 917.6,311.3 918.8,311.6 919.8,311.9 920.8,312.3 921.7,312.6 922.7,313.0 923.5,313.4 924.4,313.8 925.2,314.3 926.0,314.7 926.8,315.1 927.6,315.6 928.4,316.0 929.3,316.4 930.1,316.8 931.1,317.2 932.0,317.6 933.0,317.9 934.0,318.2 935.2,318.5 936.4,318.7 937.6,318.9 939.0,319.0 940.4,319.1 942.0,319.2" stroke="#845F48" stroke-width="0.90" stroke-opacity="1.00" fill="none" />
<polyline class="pl" points="910.8,286.7 912.4,286.7 913.8,286.5 915.2,286.2 916.4,285.9 917.6,285.4 918.8,284.9 919.8,284.3 920.8,283.6 921.7,282.9 922.7,282.2 923.5,281.4 924.4,280.6 925.2,279.7 926.0,278.9 926.8,278.0 927.6,277.2 928.4,276.3 929.3,275.5 930.1,274.7 931.1,274.0 932.0,273.2 933.0,272.6 934.0,272.0 935.2,271.5 936.4,271.0 937.6,270.7 939.0,270.4 940.4,270.2 942.0,270.2" stroke="#DBA746" stroke-width="0.90" stroke-opacity="1.00" fill="none" />
<text transform="translate(160.0,666.1)" font-size="19.80" font-family="Helvetica" fill="#BFBFBF" stroke="none" xml:space="preserve">CICERO   &#9679;   Data: UNFCCC (2026)</text>
<g>
  <rect x="123.0" y="651.4" width="34" height="17" fill="#FFF" stroke="none" opacity="0.01"/>
  <g transform="translate(124.0,652.4) scale(0.24)">
  <g><circle fill="#FFF" cx="37.79" cy="28.5" r="28.84"/>
     <circle fill="none" cx="37.79" cy="28.5" r="28.84" stroke="#BFBFBF" stroke-width="5.5"/>
     <path fill="#BFBFBF" d="M37.16,23.19 l-4.29,2.23c-0.458-0.951-1.02-1.62-1.69-2c-0.667-0.38-1.29-0.571-1.86-0.571c-2.86,0-4.29,1.89-4.29,5.66 c0,1.71,0.36,3.08,1.09,4.11c0.724,1.03,1.79,1.54,3.2,1.54c1.87,0,3.18-0.915,3.94-2.74l3.94,2 c-0.838,1.56-2,2.79-3.49,3.69c-1.48,0.896-3.12,1.34-4.91,1.34c-2.86,0-5.16-0.875-6.92-2.63 c-1.75-1.75-2.63-4.19-2.63-7.31c0-3.05,0.886-5.47,2.66-7.26c1.77-1.79,4.01-2.69,6.72-2.69 C32.6,18.56,35.44,20.1,37.16,23.19z
              M55.61,23.19l-4.23,2.23c-0.457-0.951-1.02-1.62-1.69-2 c-0.668-0.38-1.31-0.571-1.91-0.571c-2.86,0-4.29,1.89-4.29,5.66c0,1.71,0.363,3.08,1.09,4.11 c0.723,1.03,1.79,1.54,3.2,1.54c1.87,0,3.18-0.915,3.94-2.74l4,2c-0.875,1.56-2.06,2.79-3.54,3.69 c-1.49,0.9-3.11,1.34-4.86,1.34c-2.9,0-5.21-0.875-6.94-2.63c-1.74-1.75-2.6-4.19-2.6-7.31 c0-3.05,0.885-5.47,2.66-7.26c1.77-1.79,4.01-2.69,6.71-2.69C51.12,18.56,53.944,20.1,55.61,23.19z"/>
  </g></g>
  <g transform="translate(140.2,652.4) scale(0.24)">
  <g><circle fill="#FFF" cx="37.79" cy="28.5" r="28.84"/>
     <circle fill="none" cx="37.79" cy="28.5" r="28.84" stroke="#BFBFBF" stroke-width="5.5"/>
     <path fill="#BFBFBF" d="M46.129,20.557v13.085h-3.656v15.542h-9.944V33.643h-3.656V20.557 c0-0.572,0.2-1.057,0.599-1.457c0.401-0.399,0.887-0.6,1.457-0.6h13.144c0.533,0,1.01,0.2,1.428,0.6 C45.918,19.5,46.129,19.986,46.129,20.557z
              M33.042,12.329c0-3.008,1.485-4.514,4.458-4.514s4.457,1.504,4.457,4.514 c0,2.971-1.486,4.457-4.457,4.457S33.042,15.3,33.042,12.329z"/>
  </g></g>
</g>
</g>
</svg>
