<svg version="1.1" xmlns="http://www.w3.org/2000/svg" xmlns:xlink="http://www.w3.org/1999/xlink" width="100%" height="100%" viewBox="0 0 1200.000 674.916">
<title>Annual LULUCF emissions: Cuba</title>
<style type="text/css">
  #main {font-family:Helvetica,Arial,sans-serif; font-size:27.00px;
         fill-opacity:1; fill:#000000; stroke:none; stroke-linejoin:round; stroke-linecap:round; stroke-width:1.00;}
  .marker {stroke-opacity:0;fill-opacity:0;}
  .marker:hover {stroke-opacity:0.5; fill-opacity:1;}
  .ticklabel {font-size:27.00px;fill:#808080;stroke:none;font-family:Helvetica}
  .ytl {text-anchor:end;}
  .dp1 {pointer-events:none;font-size:70%;text-anchor:middle;fill:#000000;}
  .dp2 {pointer-events:none;font-size:70%;text-anchor:middle;fill:#FFFFFF;}
  .numtip {pointer-events:none;}
  .cc {opacity:0.25;}
.dl_fe {background-color:#FDFFDF;display:flex;margin:auto;align-items:center}
.dl_fe_p {font-size:20px;text-align:center;margin:3px}
.dl_el {display:none;pointer-events:none;}
.cc:hover + .dl_el {display:block;}
text:hover + .dl_el {display:block;}
</style>
<defs>
  <clipPath id="axis_clip"><rect x="145.8" y="54.2" width="761.2" height="532.8" /></clipPath>
  <path id="line_x" d="M 145.600,0 h 761.600" stroke="#262626" stroke-opacity="0.15" stroke-width="1.00"/>
  <path id="tick_y" d="M 145.600,0 h -6.000" stroke="#808080" stroke-width="0.90"/>
  <path id="tick_x" d="M 0,587.177 v 6.000" stroke="#808080" stroke-width="0.90"/>
</defs>
<g id="main">
<use xlink:href="#line_x" transform="translate(0,587.2)"/>
<use xlink:href="#line_x" transform="translate(0,498.3)"/>
<use xlink:href="#line_x" transform="translate(0,409.4)"/>
<use xlink:href="#line_x" transform="translate(0,320.6)"/>
<use xlink:href="#line_x" transform="translate(0,231.7)"/>
<use xlink:href="#line_x" transform="translate(0,142.9)"/>
<use xlink:href="#line_x" transform="translate(0,54.0)"/>
<use xlink:href="#tick_y" transform="translate(0,587.2)"/>
<use xlink:href="#tick_y" transform="translate(0,498.3)"/>
<use xlink:href="#tick_y" transform="translate(0,409.4)"/>
<use xlink:href="#tick_y" transform="translate(0,320.6)"/>
<use xlink:href="#tick_y" transform="translate(0,231.7)"/>
<use xlink:href="#tick_y" transform="translate(0,142.9)"/>
<use xlink:href="#tick_y" transform="translate(0,54.0)"/>
<use xlink:href="#tick_x" transform="translate(157.1,0)"/>
<use xlink:href="#tick_x" transform="translate(272.5,0)"/>
<use xlink:href="#tick_x" transform="translate(387.9,0)"/>
<use xlink:href="#tick_x" transform="translate(503.3,0)"/>
<use xlink:href="#tick_x" transform="translate(618.7,0)"/>
<use xlink:href="#tick_x" transform="translate(734.1,0)"/>
<use xlink:href="#tick_x" transform="translate(895.7,0)"/>
<polyline points="145.6,53.993 145.6,587.177 907.2,587.177" stroke="#808080" stroke-width="0.90" fill="none"/>
<text class="ticklabel xtl" transform="translate(157.1,629.0)" text-anchor="middle">1990</text>
<text class="ticklabel xtl" transform="translate(272.5,629.0)" text-anchor="middle">1995</text>
<text class="ticklabel xtl" transform="translate(387.9,629.0)" text-anchor="middle">2000</text>
<text class="ticklabel xtl" transform="translate(503.3,629.0)" text-anchor="middle">2005</text>
<text class="ticklabel xtl" transform="translate(618.7,629.0)" text-anchor="middle">2010</text>
<text class="ticklabel xtl" transform="translate(734.1,629.0)" text-anchor="middle">2015</text>
<text class="ticklabel xtl" transform="translate(895.7,629.0)" text-anchor="middle">2022</text>
<text class="ticklabel ytl" transform="translate(128.8,595.3)">-30</text>
<text class="ticklabel ytl" transform="translate(128.8,506.4)">-25</text>
<text class="ticklabel ytl" transform="translate(128.8,417.5)">-20</text>
<text class="ticklabel ytl" transform="translate(128.8,328.7)">-15</text>
<text class="ticklabel ytl" transform="translate(128.8,239.8)">-10</text>
<text class="ticklabel ytl" transform="translate(128.8,151.0)">-5</text>
<text class="ticklabel ytl" transform="translate(128.8,62.1)">0 Mt</text>
<g stroke="#000" stroke-width="0.90" fill="#1A4D1A"  clip-path="url(#axis_clip)">
</g>
<g stroke="#000" stroke-width="0.90" fill="#8B1E40"  clip-path="url(#axis_clip)">
</g>
<g stroke="#000" stroke-width="0.90" fill="#7B417F"  clip-path="url(#axis_clip)">
</g>
<g stroke="#000" stroke-width="0.90" fill="#808080"  clip-path="url(#axis_clip)">
</g>
<g stroke="#000" stroke-width="0.90" fill="#EDB120"  clip-path="url(#axis_clip)">
</g>
<g stroke="#000" stroke-width="0.90" fill="#D95319"  clip-path="url(#axis_clip)">
</g>
<g stroke="#000" stroke-width="0.90" fill="#5AA3D0"  clip-path="url(#axis_clip)">
</g>
<g stroke="#000" stroke-width="0.90" fill="#1A4D1A"  clip-path="url(#axis_clip)">
</g>
<g stroke="#000" stroke-width="0.90" fill="#8B1E40"  clip-path="url(#axis_clip)">
</g>
<g stroke="#000" stroke-width="0.90" fill="#7B417F"  clip-path="url(#axis_clip)">
</g>
<g stroke="#000" stroke-width="0.90" fill="#808080"  clip-path="url(#axis_clip)">
</g>
<g stroke="#000" stroke-width="0.90" fill="#EDB120"  clip-path="url(#axis_clip)">
</g>
<g stroke="#000" stroke-width="0.90" fill="#D95319"  clip-path="url(#axis_clip)">
</g>
<g stroke="#000" stroke-width="0.90" fill="#5AA3D0"  clip-path="url(#axis_clip)">
</g>
<g stroke="#000" stroke-width="0.90" fill="#6AB561"  clip-path="url(#axis_clip)">
  <polygon points="147.9,277.5 147.9,54.0 166.4,54.0 166.4,277.5 147.9,277.5"/>
  <polygon points="171.0,291.8 171.0,54.0 189.4,54.0 189.4,291.8 171.0,291.8"/>
  <polygon points="194.1,306.0 194.1,54.0 212.5,54.0 212.5,306.0 194.1,306.0"/>
  <polygon points="217.1,334.6 217.1,54.0 235.6,54.0 235.6,334.6 217.1,334.6"/>
  <polygon points="240.2,363.2 240.2,54.0 258.7,54.0 258.7,363.2 240.2,363.2"/>
  <polygon points="263.3,354.7 263.3,54.0 281.8,54.0 281.8,354.7 263.3,354.7"/>
  <polygon points="286.4,346.1 286.4,54.0 304.8,54.0 304.8,346.1 286.4,346.1"/>
  <polygon points="309.5,354.6 309.5,54.0 327.9,54.0 327.9,354.6 309.5,354.6"/>
  <polygon points="332.5,363.0 332.5,54.0 351.0,54.0 351.0,363.0 332.5,363.0"/>
  <polygon points="355.6,315.0 355.6,54.0 374.1,54.0 374.1,315.0 355.6,315.0"/>
  <polygon points="378.7,364.1 378.7,54.0 397.2,54.0 397.2,364.1 378.7,364.1"/>
  <polygon points="401.8,374.5 401.8,54.0 420.2,54.0 420.2,374.5 401.8,374.5"/>
  <polygon points="424.9,378.2 424.9,54.0 443.3,54.0 443.3,378.2 424.9,378.2"/>
  <polygon points="447.9,388.1 447.9,54.0 466.4,54.0 466.4,388.1 447.9,388.1"/>
  <polygon points="471.0,396.8 471.0,54.0 489.5,54.0 489.5,396.8 471.0,396.8"/>
  <polygon points="494.1,406.7 494.1,54.0 512.6,54.0 512.6,406.7 494.1,406.7"/>
  <polygon points="517.2,411.9 517.2,54.0 535.6,54.0 535.6,411.9 517.2,411.9"/>
  <polygon points="540.2,433.0 540.2,54.0 558.7,54.0 558.7,433.0 540.2,433.0"/>
  <polygon points="563.3,433.4 563.3,54.0 581.8,54.0 581.8,433.4 563.3,433.4"/>
  <polygon points="586.4,452.7 586.4,54.0 604.9,54.0 604.9,452.7 586.4,452.7"/>
  <polygon points="609.5,468.9 609.5,54.0 627.9,54.0 627.9,468.9 609.5,468.9"/>
  <polygon points="632.6,463.5 632.6,54.0 651.0,54.0 651.0,463.5 632.6,463.5"/>
  <polygon points="655.6,475.0 655.6,54.0 674.1,54.0 674.1,475.0 655.6,475.0"/>
  <polygon points="678.7,501.4 678.7,54.0 697.2,54.0 697.2,501.4 678.7,501.4"/>
  <polygon points="701.8,517.0 701.8,54.0 720.3,54.0 720.3,517.0 701.8,517.0"/>
  <polygon points="724.9,521.5 724.9,54.0 743.3,54.0 743.3,521.5 724.9,521.5"/>
  <polygon points="748.0,528.8 748.0,54.0 766.4,54.0 766.4,528.8 748.0,528.8"/>
  <polygon points="771.0,541.4 771.0,54.0 789.5,54.0 789.5,541.4 771.0,541.4"/>
  <polygon points="794.1,554.0 794.1,54.0 812.6,54.0 812.6,554.0 794.1,554.0"/>
  <polygon points="817.2,539.1 817.2,54.0 835.7,54.0 835.7,539.1 817.2,539.1"/>
  <polygon points="840.3,555.9 840.3,54.0 858.7,54.0 858.7,555.9 840.3,555.9"/>
  <polygon points="863.4,564.1 863.4,54.0 881.8,54.0 881.8,564.1 863.4,564.1"/>
  <polygon points="886.4,547.5 886.4,54.0 904.9,54.0 904.9,547.5 886.4,547.5"/>
</g>
<polyline class="pl" points="157.1,277.5 180.2,291.8 203.3,306.0 226.4,334.6 249.5,363.2 272.5,354.7 295.6,346.1 318.7,354.6 341.8,363.0 364.8,315.0 387.9,364.1 411.0,374.5 434.1,378.2 457.2,388.1 480.2,396.8 503.3,406.7 526.4,411.9 549.5,433.0 572.6,433.4 595.6,452.7 618.7,468.9 641.8,463.5 664.9,475.0 688.0,501.4 711.0,517.0 734.1,521.5 757.2,528.8 780.3,541.4 803.3,554.0 826.4,539.1 849.5,555.9 872.6,564.1 895.7,547.5" stroke="#000" stroke-width="5.40" stroke-opacity="1.00" fill="none" clip-path="url(#axis_clip)"/>
<g class="pl" fill="#FFF" stroke="#000" stroke-width="0.900">
  <circle cx="180.2" cy="291.8" r="2.2" />
  <circle cx="203.3" cy="306.0" r="2.2" />
  <circle cx="226.4" cy="334.6" r="2.2" />
  <circle cx="249.5" cy="363.2" r="2.2" />
  <circle cx="272.5" cy="354.7" r="2.2" />
  <circle cx="295.6" cy="346.1" r="2.2" />
  <circle cx="318.7" cy="354.6" r="2.2" />
  <circle cx="341.8" cy="363.0" r="2.2" />
  <circle cx="364.8" cy="315.0" r="2.2" />
  <circle cx="411.0" cy="374.5" r="2.2" />
  <circle cx="434.1" cy="378.2" r="2.2" />
  <circle cx="457.2" cy="388.1" r="2.2" />
  <circle cx="480.2" cy="396.8" r="2.2" />
  <circle cx="503.3" cy="406.7" r="2.2" />
  <circle cx="526.4" cy="411.9" r="2.2" />
  <circle cx="549.5" cy="433.0" r="2.2" />
  <circle cx="572.6" cy="433.4" r="2.2" />
  <circle cx="595.6" cy="452.7" r="2.2" />
  <circle cx="641.8" cy="463.5" r="2.2" />
  <circle cx="664.9" cy="475.0" r="2.2" />
  <circle cx="688.0" cy="501.4" r="2.2" />
  <circle cx="711.0" cy="517.0" r="2.2" />
  <circle cx="734.1" cy="521.5" r="2.2" />
  <circle cx="757.2" cy="528.8" r="2.2" />
  <circle cx="780.3" cy="541.4" r="2.2" />
  <circle cx="803.3" cy="554.0" r="2.2" />
  <circle cx="826.4" cy="539.1" r="2.2" />
  <circle cx="872.6" cy="564.1" r="2.2" />
  <circle cx="895.7" cy="547.5" r="2.2" />
</g>
<g class="pl" fill="#FFF" stroke="#000" stroke-width="0.900">
  <circle cx="157.1" cy="277.5" r="5.4" />
  <circle cx="387.9" cy="364.1" r="5.4" />
  <circle cx="618.7" cy="468.9" r="5.4" />
  <circle cx="849.5" cy="555.9" r="5.4" />
</g>
<text transform="translate(145.6,47.2)" dy="0.0" font-size="27.00" fill="#808080" stroke="none">Annual LULUCF emissions: Cuba</text>
<text transform="translate(130.0,81.6)" dy="8.1" font-size="27.00" fill="#808080" stroke="none" text-anchor="end">CO<tspan dy="0.2em"><tspan style="font-size:70%">2</tspan></tspan><tspan dy="-0.2em">e</tspan></text>
<text transform="translate(945.6,178.3)" dy="6.5" font-size="21.60" fill="#5AA3D0" stroke="none">Cropland</text>
<text transform="translate(945.6,157.6)" dy="6.5" font-size="21.60" fill="#D95319" stroke="none">Grassland</text>
<text transform="translate(945.6,136.9)" dy="6.5" font-size="21.60" fill="#EDB120" stroke="none">Wetlands</text>
<text transform="translate(945.6,116.2)" dy="6.5" font-size="21.60" fill="#808080" stroke="none">Settlements</text>
<text transform="translate(945.6,95.4)" dy="6.5" font-size="21.60" fill="#7B417F" stroke="none">Other land</text>
<text transform="translate(945.6,74.7)" dy="6.5" font-size="21.60" fill="#8B1E40" stroke="none">HWP</text>
<text transform="translate(945.6,54.0)" dy="6.5" font-size="21.60" fill="#1A4D1A" stroke="none">Other</text>
<text transform="translate(945.6,300.7)" dy="6.5" font-size="21.60" fill="#6AB561" stroke="none">Forest land</text>
<polyline class="pl" points="910.8,54.0 912.4,54.4 913.8,55.7 915.2,57.7 916.4,60.4 917.6,63.8 918.8,67.8 919.8,72.2 920.8,77.2 921.7,82.5 922.7,88.2 923.5,94.1 924.4,100.2 925.2,106.5 926.0,112.9 926.8,119.4 927.6,125.8 928.4,132.1 929.3,138.2 930.1,144.2 931.1,149.8 932.0,155.2 933.0,160.1 934.0,164.6 935.2,168.5 936.4,171.9 937.6,174.6 939.0,176.6 940.4,177.9 942.0,178.3" stroke="#5AA3D0" stroke-width="0.90" stroke-opacity="1.00" fill="none" />
<polyline class="pl" points="910.8,54.0 912.4,54.4 913.8,55.4 915.2,57.1 916.4,59.4 917.6,62.2 918.8,65.5 919.8,69.2 920.8,73.3 921.7,77.7 922.7,82.5 923.5,87.4 924.4,92.5 925.2,97.8 926.0,103.1 926.8,108.5 927.6,113.8 928.4,119.1 929.3,124.2 930.1,129.1 931.1,133.9 932.0,138.3 933.0,142.4 934.0,146.1 935.2,149.4 936.4,152.2 937.6,154.5 939.0,156.2 940.4,157.2 942.0,157.6" stroke="#D95319" stroke-width="0.90" stroke-opacity="1.00" fill="none" />
<polyline class="pl" points="910.8,54.0 912.4,54.3 913.8,55.1 915.2,56.5 916.4,58.3 917.6,60.5 918.8,63.2 919.8,66.2 920.8,69.4 921.7,73.0 922.7,76.8 923.5,80.7 924.4,84.8 925.2,89.0 926.0,93.3 926.8,97.6 927.6,101.8 928.4,106.1 929.3,110.2 930.1,114.1 931.1,117.9 932.0,121.4 933.0,124.7 934.0,127.7 935.2,130.3 936.4,132.6 937.6,134.4 939.0,135.8 940.4,136.6 942.0,136.9" stroke="#EDB120" stroke-width="0.90" stroke-opacity="1.00" fill="none" />
<polyline class="pl" points="910.8,54.0 912.4,54.2 913.8,54.8 915.2,55.9 916.4,57.2 917.6,58.9 918.8,60.9 919.8,63.1 920.8,65.6 921.7,68.2 922.7,71.1 923.5,74.0 924.4,77.1 925.2,80.3 926.0,83.5 926.8,86.7 927.6,89.9 928.4,93.0 929.3,96.1 930.1,99.1 931.1,101.9 932.0,104.6 933.0,107.0 934.0,109.3 935.2,111.3 936.4,112.9 937.6,114.3 939.0,115.3 940.4,115.9 942.0,116.2" stroke="#808080" stroke-width="0.90" stroke-opacity="1.00" fill="none" />
<polyline class="pl" points="910.8,54.0 912.4,54.1 913.8,54.6 915.2,55.2 916.4,56.1 917.6,57.3 918.8,58.6 919.8,60.1 920.8,61.7 921.7,63.5 922.7,65.4 923.5,67.4 924.4,69.4 925.2,71.5 926.0,73.6 926.8,75.8 927.6,77.9 928.4,80.0 929.3,82.1 930.1,84.1 931.1,85.9 932.0,87.7 933.0,89.4 934.0,90.9 935.2,92.2 936.4,93.3 937.6,94.2 939.0,94.9 940.4,95.3 942.0,95.4" stroke="#7B417F" stroke-width="0.90" stroke-opacity="1.00" fill="none" />
<polyline class="pl" points="910.8,54.0 912.4,54.1 913.8,54.3 915.2,54.6 916.4,55.1 917.6,55.6 918.8,56.3 919.8,57.0 920.8,57.9 921.7,58.7 922.7,59.7 923.5,60.7 924.4,61.7 925.2,62.8 926.0,63.8 926.8,64.9 927.6,66.0 928.4,67.0 929.3,68.0 930.1,69.0 931.1,70.0 932.0,70.9 933.0,71.7 934.0,72.4 935.2,73.1 936.4,73.6 937.6,74.1 939.0,74.4 940.4,74.6 942.0,74.7" stroke="#8B1E40" stroke-width="0.90" stroke-opacity="1.00" fill="none" />
<text transform="translate(160.0,666.1)" font-size="19.80" font-family="Helvetica" fill="#BFBFBF" stroke="none" xml:space="preserve">CICERO   &#9679;   Data: UNFCCC (2024)</text>
<g>
  <rect x="123.0" y="651.4" width="34" height="17" fill="#FFF" stroke="none" opacity="0.01"/>
  <g transform="translate(124.0,652.4) scale(0.24)">
  <g><circle fill="#FFF" cx="37.79" cy="28.5" r="28.84"/>
     <circle fill="none" cx="37.79" cy="28.5" r="28.84" stroke="#BFBFBF" stroke-width="5.5"/>
     <path fill="#BFBFBF" d="M37.16,23.19 l-4.29,2.23c-0.458-0.951-1.02-1.62-1.69-2c-0.667-0.38-1.29-0.571-1.86-0.571c-2.86,0-4.29,1.89-4.29,5.66 c0,1.71,0.36,3.08,1.09,4.11c0.724,1.03,1.79,1.54,3.2,1.54c1.87,0,3.18-0.915,3.94-2.74l3.94,2 c-0.838,1.56-2,2.79-3.49,3.69c-1.48,0.896-3.12,1.34-4.91,1.34c-2.86,0-5.16-0.875-6.92-2.63 c-1.75-1.75-2.63-4.19-2.63-7.31c0-3.05,0.886-5.47,2.66-7.26c1.77-1.79,4.01-2.69,6.72-2.69 C32.6,18.56,35.44,20.1,37.16,23.19z
              M55.61,23.19l-4.23,2.23c-0.457-0.951-1.02-1.62-1.69-2 c-0.668-0.38-1.31-0.571-1.91-0.571c-2.86,0-4.29,1.89-4.29,5.66c0,1.71,0.363,3.08,1.09,4.11 c0.723,1.03,1.79,1.54,3.2,1.54c1.87,0,3.18-0.915,3.94-2.74l4,2c-0.875,1.56-2.06,2.79-3.54,3.69 c-1.49,0.9-3.11,1.34-4.86,1.34c-2.9,0-5.21-0.875-6.94-2.63c-1.74-1.75-2.6-4.19-2.6-7.31 c0-3.05,0.885-5.47,2.66-7.26c1.77-1.79,4.01-2.69,6.71-2.69C51.12,18.56,53.944,20.1,55.61,23.19z"/>
  </g></g>
  <g transform="translate(140.2,652.4) scale(0.24)">
  <g><circle fill="#FFF" cx="37.79" cy="28.5" r="28.84"/>
     <circle fill="none" cx="37.79" cy="28.5" r="28.84" stroke="#BFBFBF" stroke-width="5.5"/>
     <path fill="#BFBFBF" d="M46.129,20.557v13.085h-3.656v15.542h-9.944V33.643h-3.656V20.557 c0-0.572,0.2-1.057,0.599-1.457c0.401-0.399,0.887-0.6,1.457-0.6h13.144c0.533,0,1.01,0.2,1.428,0.6 C45.918,19.5,46.129,19.986,46.129,20.557z
              M33.042,12.329c0-3.008,1.485-4.514,4.458-4.514s4.457,1.504,4.457,4.514 c0,2.971-1.486,4.457-4.457,4.457S33.042,15.3,33.042,12.329z"/>
  </g></g>
</g>
</g>
</svg>
