<svg version="1.1" xmlns="http://www.w3.org/2000/svg" xmlns:xlink="http://www.w3.org/1999/xlink" width="100%" height="100%" viewBox="0 0 1200.000 674.916">
<title>Annual N2O Emissions: Switzerland</title>
<style type="text/css">
  #main {font-family:Helvetica,Arial,sans-serif; font-size:27.00px;
         fill-opacity:1; fill:#000000; stroke:none; stroke-linejoin:round; stroke-linecap:round; stroke-width:1.00;}
  .marker {stroke-opacity:0;fill-opacity:0;}
  .marker:hover {stroke-opacity:0.5; fill-opacity:1;}
  .ticklabel {font-size:27.00px;fill:#808080;stroke:none;font-family:Helvetica}
  .ytl {text-anchor:end;}
  .dp1 {pointer-events:none;font-size:70%;text-anchor:middle;fill:#000000;}
  .dp2 {pointer-events:none;font-size:70%;text-anchor:middle;fill:#FFFFFF;}
  .numtip {pointer-events:none;}
  .cc {opacity:0.25;}
.dl_fe {background-color:#FDFFDF;display:flex;margin:auto;align-items:center}
.dl_fe_p {font-size:20px;text-align:center;margin:3px}
.dl_el {display:none;pointer-events:none;}
.cc:hover + .dl_el {display:block;}
text:hover + .dl_el {display:block;}
</style>
<defs>
  <clipPath id="axis_clip"><rect x="145.8" y="54.2" width="761.2" height="532.8" /></clipPath>
  <path id="line_y" d="M 0,53.993 v 533.183" stroke="#262626" stroke-opacity="0.15" stroke-width="1.00"/>
  <path id="line_x" d="M 145.600,0 h 761.600" stroke="#262626" stroke-opacity="0.15" stroke-width="1.00"/>
  <path id="tick_y" d="M 145.600,0 h -6.000" stroke="#808080" stroke-width="0.90"/>
  <path id="tick_x" d="M 0,587.177 v 6.000" stroke="#808080" stroke-width="0.90"/>
</defs>
<g id="main">
<use xlink:href="#line_y" transform="translate(156.5,0)"/>
<use xlink:href="#line_y" transform="translate(265.3,0)"/>
<use xlink:href="#line_y" transform="translate(374.1,0)"/>
<use xlink:href="#line_y" transform="translate(482.9,0)"/>
<use xlink:href="#line_y" transform="translate(591.7,0)"/>
<use xlink:href="#line_y" transform="translate(700.5,0)"/>
<use xlink:href="#line_y" transform="translate(809.3,0)"/>
<use xlink:href="#line_y" transform="translate(896.3,0)"/>
<use xlink:href="#line_x" transform="translate(0,587.2)"/>
<use xlink:href="#line_x" transform="translate(0,453.9)"/>
<use xlink:href="#line_x" transform="translate(0,320.6)"/>
<use xlink:href="#line_x" transform="translate(0,187.3)"/>
<use xlink:href="#line_x" transform="translate(0,54.0)"/>
<use xlink:href="#tick_y" transform="translate(0,587.2)"/>
<use xlink:href="#tick_y" transform="translate(0,453.9)"/>
<use xlink:href="#tick_y" transform="translate(0,320.6)"/>
<use xlink:href="#tick_y" transform="translate(0,187.3)"/>
<use xlink:href="#tick_y" transform="translate(0,54.0)"/>
<use xlink:href="#tick_x" transform="translate(156.5,0)"/>
<use xlink:href="#tick_x" transform="translate(265.3,0)"/>
<use xlink:href="#tick_x" transform="translate(374.1,0)"/>
<use xlink:href="#tick_x" transform="translate(482.9,0)"/>
<use xlink:href="#tick_x" transform="translate(591.7,0)"/>
<use xlink:href="#tick_x" transform="translate(700.5,0)"/>
<use xlink:href="#tick_x" transform="translate(809.3,0)"/>
<use xlink:href="#tick_x" transform="translate(896.3,0)"/>
<polyline points="145.6,53.993 145.6,587.177 907.2,587.177" stroke="#808080" stroke-width="0.90" fill="none"/>
<text class="ticklabel xtl" transform="translate(156.5,629.0)" text-anchor="middle">1990</text>
<text class="ticklabel xtl" transform="translate(265.3,629.0)" text-anchor="middle">1995</text>
<text class="ticklabel xtl" transform="translate(374.1,629.0)" text-anchor="middle">2000</text>
<text class="ticklabel xtl" transform="translate(482.9,629.0)" text-anchor="middle">2005</text>
<text class="ticklabel xtl" transform="translate(591.7,629.0)" text-anchor="middle">2010</text>
<text class="ticklabel xtl" transform="translate(700.5,629.0)" text-anchor="middle">2015</text>
<text class="ticklabel xtl" transform="translate(809.3,629.0)" text-anchor="middle">2020</text>
<text class="ticklabel xtl" transform="translate(896.3,629.0)" text-anchor="middle">2024</text>
<text class="ticklabel ytl" transform="translate(128.8,595.3)">0</text>
<text class="ticklabel ytl" transform="translate(128.8,462.0)">4</text>
<text class="ticklabel ytl" transform="translate(128.8,328.7)">8</text>
<text class="ticklabel ytl" transform="translate(128.8,195.4)">12</text>
<text class="ticklabel ytl" transform="translate(128.8,62.1)">16 kt</text>
<g stroke="#000" stroke-width="0.90" fill="#7FBF7F"  clip-path="url(#axis_clip)">
  <polygon class="pl" points="147.8,59.0 147.8,64.7 165.2,64.7 165.2,59.0 147.8,59.0"/>
  <polygon class="pl" points="169.5,64.4 169.5,69.0 186.9,69.0 186.9,64.4 169.5,64.4"/>
  <polygon class="pl" points="191.3,68.7 191.3,73.4 208.7,73.4 208.7,68.7 191.3,68.7"/>
  <polygon class="pl" points="213.1,62.6 213.1,67.3 230.5,67.3 230.5,62.6 213.1,62.6"/>
  <polygon class="pl" points="234.8,71.5 234.8,76.6 252.2,76.6 252.2,71.5 234.8,71.5"/>
  <polygon class="pl" points="256.6,68.3 256.6,73.6 274.0,73.6 274.0,68.3 256.6,68.3"/>
  <polygon class="pl" points="278.3,81.1 278.3,86.2 295.7,86.2 295.7,81.1 278.3,81.1"/>
  <polygon class="pl" points="300.1,87.8 300.1,94.0 317.5,94.0 317.5,87.8 300.1,87.8"/>
  <polygon class="pl" points="321.9,99.5 321.9,104.5 339.3,104.5 339.3,99.5 321.9,99.5"/>
  <polygon class="pl" points="343.6,103.1 343.6,107.9 361.0,107.9 361.0,103.1 343.6,103.1"/>
  <polygon class="pl" points="365.4,93.7 365.4,98.7 382.8,98.7 382.8,93.7 365.4,93.7"/>
  <polygon class="pl" points="387.1,101.4 387.1,106.1 404.5,106.1 404.5,101.4 387.1,101.4"/>
  <polygon class="pl" points="408.9,101.0 408.9,106.3 426.3,106.3 426.3,101.0 408.9,101.0"/>
  <polygon class="pl" points="430.7,122.6 430.7,127.9 448.1,127.9 448.1,122.6 430.7,122.6"/>
  <polygon class="pl" points="452.4,135.2 452.4,139.9 469.8,139.9 469.8,135.2 452.4,135.2"/>
  <polygon class="pl" points="474.2,129.7 474.2,134.4 491.6,134.4 491.6,129.7 474.2,129.7"/>
  <polygon class="pl" points="495.9,142.5 495.9,147.3 513.3,147.3 513.3,142.5 495.9,142.5"/>
  <polygon class="pl" points="517.7,135.7 517.7,140.6 535.1,140.6 535.1,135.7 517.7,135.7"/>
  <polygon class="pl" points="539.5,150.7 539.5,155.6 556.9,155.6 556.9,150.7 539.5,150.7"/>
  <polygon class="pl" points="561.2,165.6 561.2,170.5 578.6,170.5 578.6,165.6 561.2,165.6"/>
  <polygon class="pl" points="583.0,152.4 583.0,157.4 600.4,157.4 600.4,152.4 583.0,152.4"/>
  <polygon class="pl" points="604.7,164.2 604.7,169.2 622.1,169.2 622.1,164.2 604.7,164.2"/>
  <polygon class="pl" points="626.5,159.8 626.5,164.8 643.9,164.8 643.9,159.8 626.5,159.8"/>
  <polygon class="pl" points="648.3,168.6 648.3,173.5 665.7,173.5 665.7,168.6 648.3,168.6"/>
  <polygon class="pl" points="670.0,172.0 670.0,177.0 687.4,177.0 687.4,172.0 670.0,172.0"/>
  <polygon class="pl" points="691.8,176.6 691.8,181.5 709.2,181.5 709.2,176.6 691.8,176.6"/>
  <polygon class="pl" points="713.5,175.9 713.5,181.5 730.9,181.5 730.9,175.9 713.5,175.9"/>
  <polygon class="pl" points="735.3,160.0 735.3,165.2 752.7,165.2 752.7,160.0 735.3,160.0"/>
  <polygon class="pl" points="757.1,182.9 757.1,188.2 774.5,188.2 774.5,182.9 757.1,182.9"/>
  <polygon class="pl" points="778.8,175.1 778.8,180.0 796.2,180.0 796.2,175.1 778.8,175.1"/>
  <polygon class="pl" points="800.6,185.7 800.6,190.7 818.0,190.7 818.0,185.7 800.6,185.7"/>
  <polygon class="pl" points="822.3,198.4 822.3,203.4 839.7,203.4 839.7,198.4 822.3,198.4"/>
  <polygon class="pl" points="844.1,262.8 844.1,268.1 861.5,268.1 861.5,262.8 844.1,262.8"/>
  <polygon class="pl" points="865.9,264.3 865.9,269.2 883.3,269.2 883.3,264.3 865.9,264.3"/>
  <polygon class="pl" points="887.6,248.2 887.6,253.4 905.0,253.4 905.0,248.2 887.6,248.2"/>
</g>
<g stroke="#000" stroke-width="0.90" fill="#DBA746"  clip-path="url(#axis_clip)">
  <polygon class="pl" points="147.8,64.7 147.8,206.2 165.2,206.2 165.2,64.7 147.8,64.7"/>
  <polygon class="pl" points="169.5,69.0 169.5,209.0 186.9,209.0 186.9,69.0 169.5,69.0"/>
  <polygon class="pl" points="191.3,73.4 191.3,211.3 208.7,211.3 208.7,73.4 191.3,73.4"/>
  <polygon class="pl" points="213.1,67.3 213.1,202.8 230.5,202.8 230.5,67.3 213.1,67.3"/>
  <polygon class="pl" points="234.8,76.6 234.8,209.7 252.2,209.7 252.2,76.6 234.8,76.6"/>
  <polygon class="pl" points="256.6,73.6 256.6,205.3 274.0,205.3 274.0,73.6 256.6,73.6"/>
  <polygon class="pl" points="278.3,86.2 278.3,215.9 295.7,215.9 295.7,86.2 278.3,86.2"/>
  <polygon class="pl" points="300.1,94.0 300.1,221.1 317.5,221.1 317.5,94.0 300.1,94.0"/>
  <polygon class="pl" points="321.9,104.5 321.9,228.9 339.3,228.9 339.3,104.5 321.9,104.5"/>
  <polygon class="pl" points="343.6,107.9 343.6,229.5 361.0,229.5 361.0,107.9 343.6,107.9"/>
  <polygon class="pl" points="365.4,98.7 365.4,217.6 382.8,217.6 382.8,98.7 365.4,98.7"/>
  <polygon class="pl" points="387.1,106.1 387.1,223.0 404.5,223.0 404.5,106.1 387.1,106.1"/>
  <polygon class="pl" points="408.9,106.3 408.9,221.3 426.3,221.3 426.3,106.3 408.9,106.3"/>
  <polygon class="pl" points="430.7,127.9 430.7,241.6 448.1,241.6 448.1,127.9 430.7,127.9"/>
  <polygon class="pl" points="452.4,139.9 452.4,252.1 469.8,252.1 469.8,139.9 452.4,139.9"/>
  <polygon class="pl" points="474.2,134.4 474.2,243.5 491.6,243.5 491.6,134.4 474.2,134.4"/>
  <polygon class="pl" points="495.9,147.3 495.9,253.2 513.3,253.2 513.3,147.3 495.9,147.3"/>
  <polygon class="pl" points="517.7,140.6 517.7,243.7 535.1,243.7 535.1,140.6 517.7,140.6"/>
  <polygon class="pl" points="539.5,155.6 539.5,256.3 556.9,256.3 556.9,155.6 539.5,155.6"/>
  <polygon class="pl" points="561.2,170.5 561.2,268.7 578.6,268.7 578.6,170.5 561.2,170.5"/>
  <polygon class="pl" points="583.0,157.4 583.0,252.8 600.4,252.8 600.4,157.4 583.0,157.4"/>
  <polygon class="pl" points="604.7,169.2 604.7,262.5 622.1,262.5 622.1,169.2 604.7,169.2"/>
  <polygon class="pl" points="626.5,164.8 626.5,255.8 643.9,255.8 643.9,164.8 626.5,164.8"/>
  <polygon class="pl" points="648.3,173.5 648.3,265.7 665.7,265.7 665.7,173.5 648.3,173.5"/>
  <polygon class="pl" points="670.0,177.0 670.0,267.8 687.4,267.8 687.4,177.0 670.0,177.0"/>
  <polygon class="pl" points="691.8,181.5 691.8,269.0 709.2,269.0 709.2,181.5 691.8,181.5"/>
  <polygon class="pl" points="713.5,181.5 713.5,265.6 730.9,265.6 730.9,181.5 713.5,181.5"/>
  <polygon class="pl" points="735.3,165.2 735.3,245.6 752.7,245.6 752.7,165.2 735.3,165.2"/>
  <polygon class="pl" points="757.1,188.2 757.1,266.7 774.5,266.7 774.5,188.2 757.1,188.2"/>
  <polygon class="pl" points="778.8,180.0 778.8,257.2 796.2,257.2 796.2,180.0 778.8,180.0"/>
  <polygon class="pl" points="800.6,190.7 800.6,266.6 818.0,266.6 818.0,190.7 800.6,190.7"/>
  <polygon class="pl" points="822.3,203.4 822.3,278.0 839.7,278.0 839.7,203.4 822.3,203.4"/>
  <polygon class="pl" points="844.1,268.1 844.1,341.3 861.5,341.3 861.5,268.1 844.1,268.1"/>
  <polygon class="pl" points="865.9,269.2 865.9,341.8 883.3,341.8 883.3,269.2 865.9,269.2"/>
  <polygon class="pl" points="887.6,253.4 887.6,324.9 905.0,324.9 905.0,253.4 887.6,253.4"/>
</g>
<g stroke="#000" stroke-width="0.90" fill="#845F48"  clip-path="url(#axis_clip)">
  <polygon class="pl" points="147.8,206.2 147.8,483.3 165.2,483.3 165.2,206.2 147.8,206.2"/>
  <polygon class="pl" points="169.5,209.0 169.5,479.6 186.9,479.6 186.9,209.0 169.5,209.0"/>
  <polygon class="pl" points="191.3,211.3 191.3,482.8 208.7,482.8 208.7,211.3 191.3,211.3"/>
  <polygon class="pl" points="213.1,202.8 213.1,476.7 230.5,476.7 230.5,202.8 213.1,202.8"/>
  <polygon class="pl" points="234.8,209.7 234.8,477.1 252.2,477.1 252.2,209.7 234.8,209.7"/>
  <polygon class="pl" points="256.6,205.3 256.6,473.8 274.0,473.8 274.0,205.3 256.6,205.3"/>
  <polygon class="pl" points="278.3,215.9 278.3,468.5 295.7,468.5 295.7,215.9 278.3,215.9"/>
  <polygon class="pl" points="300.1,221.1 300.1,462.5 317.5,462.5 317.5,221.1 300.1,221.1"/>
  <polygon class="pl" points="321.9,228.9 321.9,470.4 339.3,470.4 339.3,228.9 321.9,228.9"/>
  <polygon class="pl" points="343.6,229.5 343.6,466.7 361.0,466.7 361.0,229.5 343.6,229.5"/>
  <polygon class="pl" points="365.4,217.6 365.4,463.3 382.8,463.3 382.8,217.6 365.4,217.6"/>
  <polygon class="pl" points="387.1,223.0 387.1,466.9 404.5,466.9 404.5,223.0 387.1,223.0"/>
  <polygon class="pl" points="408.9,221.3 408.9,457.6 426.3,457.6 426.3,221.3 408.9,221.3"/>
  <polygon class="pl" points="430.7,241.6 430.7,470.1 448.1,470.1 448.1,241.6 430.7,241.6"/>
  <polygon class="pl" points="452.4,252.1 452.4,478.9 469.8,478.9 469.8,252.1 452.4,252.1"/>
  <polygon class="pl" points="474.2,243.5 474.2,477.0 491.6,477.0 491.6,243.5 474.2,243.5"/>
  <polygon class="pl" points="495.9,253.2 495.9,480.0 513.3,480.0 513.3,253.2 495.9,253.2"/>
  <polygon class="pl" points="517.7,243.7 517.7,479.1 535.1,479.1 535.1,243.7 517.7,243.7"/>
  <polygon class="pl" points="539.5,256.3 539.5,487.4 556.9,487.4 556.9,256.3 539.5,256.3"/>
  <polygon class="pl" points="561.2,268.7 561.2,498.0 578.6,498.0 578.6,268.7 561.2,268.7"/>
  <polygon class="pl" points="583.0,252.8 583.0,487.9 600.4,487.9 600.4,252.8 583.0,252.8"/>
  <polygon class="pl" points="604.7,262.5 604.7,492.1 622.1,492.1 622.1,262.5 604.7,262.5"/>
  <polygon class="pl" points="626.5,255.8 626.5,492.9 643.9,492.9 643.9,255.8 626.5,255.8"/>
  <polygon class="pl" points="648.3,265.7 648.3,492.8 665.7,492.8 665.7,265.7 648.3,265.7"/>
  <polygon class="pl" points="670.0,267.8 670.0,504.1 687.4,504.1 687.4,267.8 670.0,267.8"/>
  <polygon class="pl" points="691.8,269.0 691.8,494.9 709.2,494.9 709.2,269.0 691.8,269.0"/>
  <polygon class="pl" points="713.5,265.6 713.5,498.9 730.9,498.9 730.9,265.6 713.5,265.6"/>
  <polygon class="pl" points="735.3,245.6 735.3,481.4 752.7,481.4 752.7,245.6 735.3,245.6"/>
  <polygon class="pl" points="757.1,266.7 757.1,491.3 774.5,491.3 774.5,266.7 757.1,266.7"/>
  <polygon class="pl" points="778.8,257.2 778.8,479.9 796.2,479.9 796.2,257.2 778.8,257.2"/>
  <polygon class="pl" points="800.6,266.6 800.6,489.7 818.0,489.7 818.0,266.6 800.6,266.6"/>
  <polygon class="pl" points="822.3,278.0 822.3,503.7 839.7,503.7 839.7,278.0 822.3,278.0"/>
  <polygon class="pl" points="844.1,341.3 844.1,553.5 861.5,553.5 861.5,341.3 844.1,341.3"/>
  <polygon class="pl" points="865.9,341.8 865.9,554.1 883.3,554.1 883.3,341.8 865.9,341.8"/>
  <polygon class="pl" points="887.6,324.9 887.6,554.8 905.0,554.8 905.0,324.9 887.6,324.9"/>
</g>
<g stroke="#000" stroke-width="0.90" fill="#4A89E8"  clip-path="url(#axis_clip)">
  <polygon class="pl" points="147.8,483.3 147.8,551.3 165.2,551.3 165.2,483.3 147.8,483.3"/>
  <polygon class="pl" points="169.5,479.6 169.5,548.5 186.9,548.5 186.9,479.6 169.5,479.6"/>
  <polygon class="pl" points="191.3,482.8 191.3,546.5 208.7,546.5 208.7,482.8 191.3,482.8"/>
  <polygon class="pl" points="213.1,476.7 213.1,547.5 230.5,547.5 230.5,476.7 213.1,476.7"/>
  <polygon class="pl" points="234.8,477.1 234.8,547.1 252.2,547.1 252.2,477.1 234.8,477.1"/>
  <polygon class="pl" points="256.6,473.8 256.6,546.1 274.0,546.1 274.0,473.8 256.6,473.8"/>
  <polygon class="pl" points="278.3,468.5 278.3,544.1 295.7,544.1 295.7,468.5 278.3,468.5"/>
  <polygon class="pl" points="300.1,462.5 300.1,543.8 317.5,543.8 317.5,462.5 300.1,462.5"/>
  <polygon class="pl" points="321.9,470.4 321.9,543.3 339.3,543.3 339.3,470.4 321.9,470.4"/>
  <polygon class="pl" points="343.6,466.7 343.6,543.2 361.0,543.2 361.0,466.7 343.6,466.7"/>
  <polygon class="pl" points="365.4,463.3 365.4,544.5 382.8,544.5 382.8,463.3 365.4,463.3"/>
  <polygon class="pl" points="387.1,466.9 387.1,545.7 404.5,545.7 404.5,466.9 387.1,466.9"/>
  <polygon class="pl" points="408.9,457.6 408.9,548.0 426.3,548.0 426.3,457.6 408.9,457.6"/>
  <polygon class="pl" points="430.7,470.1 430.7,549.4 448.1,549.4 448.1,470.1 430.7,470.1"/>
  <polygon class="pl" points="452.4,478.9 452.4,560.7 469.8,560.7 469.8,478.9 452.4,478.9"/>
  <polygon class="pl" points="474.2,477.0 474.2,561.0 491.6,561.0 491.6,477.0 474.2,477.0"/>
  <polygon class="pl" points="495.9,480.0 495.9,561.3 513.3,561.3 513.3,480.0 495.9,480.0"/>
  <polygon class="pl" points="517.7,479.1 517.7,561.8 535.1,561.8 535.1,479.1 517.7,479.1"/>
  <polygon class="pl" points="539.5,487.4 539.5,560.7 556.9,560.7 556.9,487.4 539.5,487.4"/>
  <polygon class="pl" points="561.2,498.0 561.2,560.8 578.6,560.8 578.6,498.0 561.2,498.0"/>
  <polygon class="pl" points="583.0,487.9 583.0,559.8 600.4,559.8 600.4,487.9 583.0,487.9"/>
  <polygon class="pl" points="604.7,492.1 604.7,561.1 622.1,561.1 622.1,492.1 604.7,492.1"/>
  <polygon class="pl" points="626.5,492.9 626.5,559.6 643.9,559.6 643.9,492.9 626.5,492.9"/>
  <polygon class="pl" points="648.3,492.8 648.3,558.6 665.7,558.6 665.7,492.8 648.3,492.8"/>
  <polygon class="pl" points="670.0,504.1 670.0,560.2 687.4,560.2 687.4,504.1 670.0,504.1"/>
  <polygon class="pl" points="691.8,494.9 691.8,559.9 709.2,559.9 709.2,494.9 691.8,494.9"/>
  <polygon class="pl" points="713.5,498.9 713.5,558.8 730.9,558.8 730.9,498.9 713.5,498.9"/>
  <polygon class="pl" points="735.3,481.4 735.3,558.5 752.7,558.5 752.7,481.4 735.3,481.4"/>
  <polygon class="pl" points="757.1,491.3 757.1,558.0 774.5,558.0 774.5,491.3 757.1,491.3"/>
  <polygon class="pl" points="778.8,479.9 778.8,557.5 796.2,557.5 796.2,479.9 778.8,479.9"/>
  <polygon class="pl" points="800.6,489.7 800.6,558.2 818.0,558.2 818.0,489.7 800.6,489.7"/>
  <polygon class="pl" points="822.3,503.7 822.3,557.2 839.7,557.2 839.7,503.7 822.3,503.7"/>
  <polygon class="pl" points="844.1,553.5 844.1,558.3 861.5,558.3 861.5,553.5 844.1,553.5"/>
  <polygon class="pl" points="865.9,554.1 865.9,558.7 883.3,558.7 883.3,554.1 865.9,554.1"/>
  <polygon class="pl" points="887.6,554.8 887.6,559.0 905.0,559.0 905.0,554.8 887.6,554.8"/>
</g>
<g stroke="#000" stroke-width="0.90" fill="#FF7F61"  clip-path="url(#axis_clip)">
  <polygon class="pl" points="147.8,551.3 147.8,587.2 165.2,587.2 165.2,551.3 147.8,551.3"/>
  <polygon class="pl" points="169.5,548.5 169.5,587.2 186.9,587.2 186.9,548.5 169.5,548.5"/>
  <polygon class="pl" points="191.3,546.5 191.3,587.2 208.7,587.2 208.7,546.5 191.3,546.5"/>
  <polygon class="pl" points="213.1,547.5 213.1,587.2 230.5,587.2 230.5,547.5 213.1,547.5"/>
  <polygon class="pl" points="234.8,547.1 234.8,587.2 252.2,587.2 252.2,547.1 234.8,547.1"/>
  <polygon class="pl" points="256.6,546.1 256.6,587.2 274.0,587.2 274.0,546.1 256.6,546.1"/>
  <polygon class="pl" points="278.3,544.1 278.3,587.2 295.7,587.2 295.7,544.1 278.3,544.1"/>
  <polygon class="pl" points="300.1,543.8 300.1,587.2 317.5,587.2 317.5,543.8 300.1,543.8"/>
  <polygon class="pl" points="321.9,543.3 321.9,587.2 339.3,587.2 339.3,543.3 321.9,543.3"/>
  <polygon class="pl" points="343.6,543.2 343.6,587.2 361.0,587.2 361.0,543.2 343.6,543.2"/>
  <polygon class="pl" points="365.4,544.5 365.4,587.2 382.8,587.2 382.8,544.5 365.4,544.5"/>
  <polygon class="pl" points="387.1,545.7 387.1,587.2 404.5,587.2 404.5,545.7 387.1,545.7"/>
  <polygon class="pl" points="408.9,548.0 408.9,587.2 426.3,587.2 426.3,548.0 408.9,548.0"/>
  <polygon class="pl" points="430.7,549.4 430.7,587.2 448.1,587.2 448.1,549.4 430.7,549.4"/>
  <polygon class="pl" points="452.4,560.7 452.4,587.2 469.8,587.2 469.8,560.7 452.4,560.7"/>
  <polygon class="pl" points="474.2,561.0 474.2,587.2 491.6,587.2 491.6,561.0 474.2,561.0"/>
  <polygon class="pl" points="495.9,561.3 495.9,587.2 513.3,587.2 513.3,561.3 495.9,561.3"/>
  <polygon class="pl" points="517.7,561.8 517.7,587.2 535.1,587.2 535.1,561.8 517.7,561.8"/>
  <polygon class="pl" points="539.5,560.7 539.5,587.2 556.9,587.2 556.9,560.7 539.5,560.7"/>
  <polygon class="pl" points="561.2,560.8 561.2,587.2 578.6,587.2 578.6,560.8 561.2,560.8"/>
  <polygon class="pl" points="583.0,559.8 583.0,587.2 600.4,587.2 600.4,559.8 583.0,559.8"/>
  <polygon class="pl" points="604.7,561.1 604.7,587.2 622.1,587.2 622.1,561.1 604.7,561.1"/>
  <polygon class="pl" points="626.5,559.6 626.5,587.2 643.9,587.2 643.9,559.6 626.5,559.6"/>
  <polygon class="pl" points="648.3,558.6 648.3,587.2 665.7,587.2 665.7,558.6 648.3,558.6"/>
  <polygon class="pl" points="670.0,560.2 670.0,587.2 687.4,587.2 687.4,560.2 670.0,560.2"/>
  <polygon class="pl" points="691.8,559.9 691.8,587.2 709.2,587.2 709.2,559.9 691.8,559.9"/>
  <polygon class="pl" points="713.5,558.8 713.5,587.2 730.9,587.2 730.9,558.8 713.5,558.8"/>
  <polygon class="pl" points="735.3,558.5 735.3,587.2 752.7,587.2 752.7,558.5 735.3,558.5"/>
  <polygon class="pl" points="757.1,558.0 757.1,587.2 774.5,587.2 774.5,558.0 757.1,558.0"/>
  <polygon class="pl" points="778.8,557.5 778.8,587.2 796.2,587.2 796.2,557.5 778.8,557.5"/>
  <polygon class="pl" points="800.6,558.2 800.6,587.2 818.0,587.2 818.0,558.2 800.6,558.2"/>
  <polygon class="pl" points="822.3,557.2 822.3,587.2 839.7,587.2 839.7,557.2 822.3,557.2"/>
  <polygon class="pl" points="844.1,558.3 844.1,587.2 861.5,587.2 861.5,558.3 844.1,558.3"/>
  <polygon class="pl" points="865.9,558.7 865.9,587.2 883.3,587.2 883.3,558.7 865.9,558.7"/>
  <polygon class="pl" points="887.6,559.0 887.6,587.2 905.0,587.2 905.0,559.0 887.6,559.0"/>
</g>
<polyline class="pl" points="156.5,59.0 178.2,64.4 200.0,68.7 221.8,62.6 243.5,71.5 265.3,68.3 287.0,81.1 308.8,87.8 330.6,99.5 352.3,103.1 374.1,93.7 395.8,101.4 417.6,101.0 439.4,122.6 461.1,135.2 482.9,129.7 504.6,142.5 526.4,135.7 548.2,150.7 569.9,165.6 591.7,152.4 613.4,164.2 635.2,159.8 657.0,168.6 678.7,172.0 700.5,176.6 722.2,175.9 744.0,160.0 765.8,182.9 787.5,175.1 809.3,185.7 831.0,198.4 852.8,262.8 874.6,264.3 896.3,248.2" stroke="#000" stroke-width="5.40" stroke-opacity="1.00" fill="none" clip-path="url(#axis_clip)"/>
<g class="pl" fill="#FFF" stroke="#000" stroke-width="0.900">
  <circle cx="178.2" cy="64.4" r="2.2" />
  <circle cx="200.0" cy="68.7" r="2.2" />
  <circle cx="221.8" cy="62.6" r="2.2" />
  <circle cx="243.5" cy="71.5" r="2.2" />
  <circle cx="265.3" cy="68.3" r="2.2" />
  <circle cx="287.0" cy="81.1" r="2.2" />
  <circle cx="308.8" cy="87.8" r="2.2" />
  <circle cx="330.6" cy="99.5" r="2.2" />
  <circle cx="352.3" cy="103.1" r="2.2" />
  <circle cx="395.8" cy="101.4" r="2.2" />
  <circle cx="417.6" cy="101.0" r="2.2" />
  <circle cx="439.4" cy="122.6" r="2.2" />
  <circle cx="461.1" cy="135.2" r="2.2" />
  <circle cx="482.9" cy="129.7" r="2.2" />
  <circle cx="504.6" cy="142.5" r="2.2" />
  <circle cx="526.4" cy="135.7" r="2.2" />
  <circle cx="548.2" cy="150.7" r="2.2" />
  <circle cx="569.9" cy="165.6" r="2.2" />
  <circle cx="613.4" cy="164.2" r="2.2" />
  <circle cx="635.2" cy="159.8" r="2.2" />
  <circle cx="657.0" cy="168.6" r="2.2" />
  <circle cx="678.7" cy="172.0" r="2.2" />
  <circle cx="700.5" cy="176.6" r="2.2" />
  <circle cx="722.2" cy="175.9" r="2.2" />
  <circle cx="744.0" cy="160.0" r="2.2" />
  <circle cx="765.8" cy="182.9" r="2.2" />
  <circle cx="787.5" cy="175.1" r="2.2" />
  <circle cx="831.0" cy="198.4" r="2.2" />
  <circle cx="852.8" cy="262.8" r="2.2" />
  <circle cx="874.6" cy="264.3" r="2.2" />
  <circle cx="896.3" cy="248.2" r="2.2" />
</g>
<g class="pl" fill="#FFF" stroke="#000" stroke-width="0.900">
  <circle cx="156.5" cy="59.0" r="5.4" />
  <circle cx="374.1" cy="93.7" r="5.4" />
  <circle cx="591.7" cy="152.4" r="5.4" />
  <circle cx="809.3" cy="185.7" r="5.4" />
</g>
<text transform="translate(145.6,47.2)" dy="0.0" font-size="27.00" fill="#808080" stroke="none">Annual N<tspan dy="0.2em"><tspan style="font-size:70%">2</tspan></tspan><tspan dy="-0.2em">O</tspan> Emissions: Switzerland</text>
<text transform="translate(130.0,81.7)" dy="8.1" font-size="27.00" fill="#808080" stroke="none" text-anchor="end">N<tspan dy="0.2em"><tspan style="font-size:70%">2</tspan></tspan><tspan dy="-0.2em">O</tspan></text>
<text transform="translate(945.6,237.3)" dy="7.6" font-size="25.20" fill="#000" stroke="none">-35.8% since 1990</text>
<text transform="translate(945.6,577.2)" dy="7.6" font-size="25.20" fill="#FF7F61" stroke="none">Energy</text>
<text transform="translate(945.6,552.7)" dy="7.6" font-size="25.20" fill="#4A89E8" stroke="none">Industrial Processes</text>
<text transform="translate(945.6,439.8)" dy="7.6" font-size="25.20" fill="#845F48" stroke="none">Agriculture</text>
<text transform="translate(945.6,289.1)" dy="7.6" font-size="25.20" fill="#DBA746" stroke="none">Waste</text>
<text transform="translate(945.6,261.8)" dy="7.6" font-size="25.20" fill="#7FBF7F" stroke="none">LULUCF</text>
<polyline class="pl" points="910.8,248.2 912.4,248.2 913.8,248.1 915.2,247.9 916.4,247.7 917.6,247.4 918.8,247.0 919.8,246.6 920.8,246.2 921.7,245.7 922.7,245.2 923.5,244.7 924.4,244.1 925.2,243.6 926.0,243.0 926.8,242.5 927.6,241.9 928.4,241.3 929.3,240.8 930.1,240.3 931.1,239.8 932.0,239.3 933.0,238.9 934.0,238.5 935.2,238.1 936.4,237.8 937.6,237.6 939.0,237.4 940.4,237.3 942.0,237.3" stroke="#000" stroke-width="0.90" stroke-opacity="1.00" fill="none" />
<polyline class="pl" points="910.8,573.1 912.4,573.1 913.8,573.1 915.2,573.2 916.4,573.3 917.6,573.4 918.8,573.5 919.8,573.7 920.8,573.8 921.7,574.0 922.7,574.2 923.5,574.4 924.4,574.6 925.2,574.8 926.0,575.0 926.8,575.3 927.6,575.5 928.4,575.7 929.3,575.9 930.1,576.1 931.1,576.3 932.0,576.4 933.0,576.6 934.0,576.8 935.2,576.9 936.4,577.0 937.6,577.1 939.0,577.2 940.4,577.2 942.0,577.2" stroke="#FF7F61" stroke-width="0.90" stroke-opacity="1.00" fill="none" />
<polyline class="pl" points="910.8,556.9 912.4,556.9 913.8,556.8 915.2,556.7 916.4,556.7 917.6,556.5 918.8,556.4 919.8,556.3 920.8,556.1 921.7,555.9 922.7,555.7 923.5,555.5 924.4,555.3 925.2,555.1 926.0,554.9 926.8,554.7 927.6,554.5 928.4,554.3 929.3,554.1 930.1,553.9 931.1,553.7 932.0,553.5 933.0,553.3 934.0,553.2 935.2,553.0 936.4,552.9 937.6,552.8 939.0,552.8 940.4,552.7 942.0,552.7" stroke="#4A89E8" stroke-width="0.90" stroke-opacity="1.00" fill="none" />
<polyline class="pl" points="910.8,250.8 912.4,250.8 913.8,250.9 915.2,251.1 916.4,251.4 917.6,251.7 918.8,252.0 919.8,252.4 920.8,252.8 921.7,253.3 922.7,253.8 923.5,254.3 924.4,254.9 925.2,255.4 926.0,256.0 926.8,256.6 927.6,257.1 928.4,257.7 929.3,258.2 930.1,258.8 931.1,259.2 932.0,259.7 933.0,260.2 934.0,260.5 935.2,260.9 936.4,261.2 937.6,261.4 939.0,261.6 940.4,261.7 942.0,261.8" stroke="#7FBF7F" stroke-width="0.90" stroke-opacity="1.00" fill="none" />
<text transform="translate(160.0,666.1)" font-size="19.80" font-family="Helvetica" fill="#BFBFBF" stroke="none" xml:space="preserve">CICERO   &#9679;   Data: UNFCCC (2026)</text>
<g>
  <rect x="123.0" y="651.4" width="34" height="17" fill="#FFF" stroke="none" opacity="0.01"/>
  <g transform="translate(124.0,652.4) scale(0.24)">
  <g><circle fill="#FFF" cx="37.79" cy="28.5" r="28.84"/>
     <circle fill="none" cx="37.79" cy="28.5" r="28.84" stroke="#BFBFBF" stroke-width="5.5"/>
     <path fill="#BFBFBF" d="M37.16,23.19 l-4.29,2.23c-0.458-0.951-1.02-1.62-1.69-2c-0.667-0.38-1.29-0.571-1.86-0.571c-2.86,0-4.29,1.89-4.29,5.66 c0,1.71,0.36,3.08,1.09,4.11c0.724,1.03,1.79,1.54,3.2,1.54c1.87,0,3.18-0.915,3.94-2.74l3.94,2 c-0.838,1.56-2,2.79-3.49,3.69c-1.48,0.896-3.12,1.34-4.91,1.34c-2.86,0-5.16-0.875-6.92-2.63 c-1.75-1.75-2.63-4.19-2.63-7.31c0-3.05,0.886-5.47,2.66-7.26c1.77-1.79,4.01-2.69,6.72-2.69 C32.6,18.56,35.44,20.1,37.16,23.19z
              M55.61,23.19l-4.23,2.23c-0.457-0.951-1.02-1.62-1.69-2 c-0.668-0.38-1.31-0.571-1.91-0.571c-2.86,0-4.29,1.89-4.29,5.66c0,1.71,0.363,3.08,1.09,4.11 c0.723,1.03,1.79,1.54,3.2,1.54c1.87,0,3.18-0.915,3.94-2.74l4,2c-0.875,1.56-2.06,2.79-3.54,3.69 c-1.49,0.9-3.11,1.34-4.86,1.34c-2.9,0-5.21-0.875-6.94-2.63c-1.74-1.75-2.6-4.19-2.6-7.31 c0-3.05,0.885-5.47,2.66-7.26c1.77-1.79,4.01-2.69,6.71-2.69C51.12,18.56,53.944,20.1,55.61,23.19z"/>
  </g></g>
  <g transform="translate(140.2,652.4) scale(0.24)">
  <g><circle fill="#FFF" cx="37.79" cy="28.5" r="28.84"/>
     <circle fill="none" cx="37.79" cy="28.5" r="28.84" stroke="#BFBFBF" stroke-width="5.5"/>
     <path fill="#BFBFBF" d="M46.129,20.557v13.085h-3.656v15.542h-9.944V33.643h-3.656V20.557 c0-0.572,0.2-1.057,0.599-1.457c0.401-0.399,0.887-0.6,1.457-0.6h13.144c0.533,0,1.01,0.2,1.428,0.6 C45.918,19.5,46.129,19.986,46.129,20.557z
              M33.042,12.329c0-3.008,1.485-4.514,4.458-4.514s4.457,1.504,4.457,4.514 c0,2.971-1.486,4.457-4.457,4.457S33.042,15.3,33.042,12.329z"/>
  </g></g>
</g>
</g>
</svg>
