<svg version="1.1" xmlns="http://www.w3.org/2000/svg" xmlns:xlink="http://www.w3.org/1999/xlink" width="100%" height="100%" viewBox="0 0 1200.000 674.916">
<title>Monthly production at Duva</title>
<style type="text/css">
  #main {font-family:Helvetica,Arial,sans-serif; font-size:27.00px;
         fill-opacity:1; fill:#000000; stroke:none; stroke-linejoin:round; stroke-linecap:round; stroke-width:1.00;}
  a:hover {text-decoration: underline;}
  .marker {stroke-opacity:0;fill-opacity:0;}
  .marker:hover {stroke-opacity:0.5; fill-opacity:1;}
  .ticklabel {font-size:27.00px;fill:#808080;stroke:none;font-family:Helvetica}
  .ytl {text-anchor:end;}
  .dp1 {pointer-events:none;font-size:70%;text-anchor:middle;fill:#000000;}
  .dp2 {pointer-events:none;font-size:70%;text-anchor:middle;fill:#FFFFFF;}
  .numtip {pointer-events:none;}
  .cc {opacity:0.25;}
.dl_fe {background-color:#FDFFDF;display:flex;margin:auto;align-items:center}
.dl_fe_p {font-size:20px;text-align:center;margin:3px}
.dl_el {display:none;pointer-events:none;}
.cc:hover + .dl_el {display:block;}
text:hover + .dl_el {display:block;}
  #lines .pl {transition: all 0.2s ease;}
  #lines:hover .pl {opacity:0.3;}
  #lines:hover .thick {stroke-width:1;}
  #lines:hover .pl_1:hover .pl {opacity:1;}
  #lines:hover .pl_1:hover .pll {stroke-width:3;}
  #lines:hover .pl_1:hover .pldlm {stroke-width:2;}
  #lines:hover .pl_1:hover .thick {stroke-width:12;}
  #lines:hover .pl_2:hover .pl {opacity:1;}
  #lines:hover .pl_2:hover .pll {stroke-width:3;}
  #lines:hover .pl_2:hover .pldlm {stroke-width:2;}
  #lines:hover .pl_2:hover .thick {stroke-width:12;}
  #lines:hover .pl_3:hover .pl {opacity:1;}
  #lines:hover .pl_3:hover .pll {stroke-width:3;}
  #lines:hover .pl_3:hover .pldlm {stroke-width:2;}
  #lines:hover .pl_3:hover .thick {stroke-width:12;}
</style>
<defs>
  <clipPath id="axis_clip"><rect x="145.8" y="54.2" width="761.2" height="505.8" /></clipPath>
  <path id="line_y" d="M 0,53.993 v 506.187" stroke="#262626" stroke-opacity="0.15" stroke-width="1.00"/>
  <path id="line_x" d="M 145.600,0 h 761.600" stroke="#262626" stroke-opacity="0.15" stroke-width="1.00"/>
  <path id="tick_y" d="M 145.600,0 h -6.000" stroke="#808080" stroke-width="0.90"/>
  <path id="tick_x" d="M 0,560.180 v 6.000" stroke="#808080" stroke-width="0.90"/>
  <symbol id="line_1" viewBox="0 0 1200.000 674.916">
  </symbol>
  <symbol id="line_2" viewBox="0 0 1200.000 674.916">
    <polyline class="pl pll" points="523.1,560.2 528.9,560.2 534.7,482.7 540.5,233.2 546.3,226.8 552.1,109.6 557.9,197.1 563.8,331.4 569.4,339.3 575.0,399.9 580.7,355.1 586.5,236.8 592.3,236.7 598.1,264.4 604.0,251.6 609.8,282.0 615.6,214.9 621.3,281.9 627.1,269.7 633.0,252.9 638.6,305.7 644.2,279.7 650.0,308.4 655.8,321.4 661.6,331.4 667.3,312.1 673.2,369.8 679.0,333.1 684.8,362.8 690.6,389.4 696.4,364.3 702.2,363.7 707.9,391.6 713.6,391.8 719.4,373.0 725.1,363.1 730.9,528.3 736.7,410.1 742.5,418.0 748.3,500.7 754.1,428.7 759.8,439.2 765.6,444.3 771.5,448.1 777.1,457.7 782.7,455.1 788.5,440.0 794.2,433.6 800.0,454.1 805.8,441.4 811.7,451.9 817.5,533.6 823.3,455.0 829.0,468.8 834.8,489.9 840.7,506.7 846.3,521.8 851.9,524.9" stroke="#D95319" fill="none" />
  </symbol>
  <symbol id="line_3" viewBox="0 0 1200.000 674.916">
    <polyline class="pl pll" points="586.5,516.0 592.3,412.1 598.1,412.2 604.0,442.9 609.8,393.0 615.6,409.7 621.3,406.3 627.1,341.8 633.0,333.7 638.6,414.9 644.2,310.3 650.0,352.6 655.8,379.6 661.6,362.4 667.3,334.2 673.2,407.1 679.0,351.8 684.8,392.3 690.6,393.2 696.4,325.3 702.2,276.3 707.9,333.4 713.6,347.5 719.4,324.9 725.1,321.2 730.9,338.8 736.7,369.3 742.5,376.5 748.3,457.7 754.1,385.2 759.8,358.2 765.6,344.3 771.5,408.2 777.1,446.6 782.7,417.8 788.5,386.7 794.2,376.4 800.0,432.6 805.8,396.2 811.7,426.1 817.5,514.4 823.3,444.1 829.0,302.8 834.8,275.5 840.7,333.5 846.3,294.3 851.9,305.7" stroke="#0072BD" fill="none" />
  </symbol>
</defs>
<g id="main">
<use xlink:href="#line_y" transform="translate(145.6,0)"/>
<use xlink:href="#line_y" transform="translate(214.8,0)"/>
<use xlink:href="#line_y" transform="translate(284.1,0)"/>
<use xlink:href="#line_y" transform="translate(353.3,0)"/>
<use xlink:href="#line_y" transform="translate(422.5,0)"/>
<use xlink:href="#line_y" transform="translate(491.8,0)"/>
<use xlink:href="#line_y" transform="translate(561.0,0)"/>
<use xlink:href="#line_y" transform="translate(630.3,0)"/>
<use xlink:href="#line_y" transform="translate(699.5,0)"/>
<use xlink:href="#line_y" transform="translate(768.7,0)"/>
<use xlink:href="#line_y" transform="translate(838.0,0)"/>
<use xlink:href="#line_y" transform="translate(907.2,0)"/>
<use xlink:href="#line_x" transform="translate(0,560.2)"/>
<use xlink:href="#line_x" transform="translate(0,475.8)"/>
<use xlink:href="#line_x" transform="translate(0,391.5)"/>
<use xlink:href="#line_x" transform="translate(0,307.1)"/>
<use xlink:href="#line_x" transform="translate(0,222.7)"/>
<use xlink:href="#line_x" transform="translate(0,138.4)"/>
<use xlink:href="#line_x" transform="translate(0,54.0)"/>
<use xlink:href="#tick_y" transform="translate(0,560.2)"/>
<use xlink:href="#tick_y" transform="translate(0,475.8)"/>
<use xlink:href="#tick_y" transform="translate(0,391.5)"/>
<use xlink:href="#tick_y" transform="translate(0,307.1)"/>
<use xlink:href="#tick_y" transform="translate(0,222.7)"/>
<use xlink:href="#tick_y" transform="translate(0,138.4)"/>
<use xlink:href="#tick_y" transform="translate(0,54.0)"/>
<use xlink:href="#tick_x" transform="translate(145.6,0)"/>
<use xlink:href="#tick_x" transform="translate(214.8,0)"/>
<use xlink:href="#tick_x" transform="translate(284.1,0)"/>
<use xlink:href="#tick_x" transform="translate(353.3,0)"/>
<use xlink:href="#tick_x" transform="translate(422.5,0)"/>
<use xlink:href="#tick_x" transform="translate(491.8,0)"/>
<use xlink:href="#tick_x" transform="translate(561.0,0)"/>
<use xlink:href="#tick_x" transform="translate(630.3,0)"/>
<use xlink:href="#tick_x" transform="translate(699.5,0)"/>
<use xlink:href="#tick_x" transform="translate(768.7,0)"/>
<use xlink:href="#tick_x" transform="translate(838.0,0)"/>
<use xlink:href="#tick_x" transform="translate(907.2,0)"/>
<polyline points="145.6,53.993 145.6,560.180 907.2,560.180" stroke="#808080" stroke-width="0.90" fill="none"/>
<text class="ticklabel ytl" transform="translate(128.8,568.3)">0</text>
<text class="ticklabel ytl" transform="translate(128.8,483.9)">1000</text>
<text class="ticklabel ytl" transform="translate(128.8,399.6)">2000</text>
<text class="ticklabel ytl" transform="translate(128.8,315.2)">3000</text>
<text class="ticklabel ytl" transform="translate(128.8,230.8)">4000</text>
<text class="ticklabel ytl" transform="translate(128.8,146.5)">5000</text>
<text class="ticklabel ytl" transform="translate(128.8,62.1)">6000 TJ</text>
<g id="lines">
  <g class="pl_1">
    <use xlink:href="#line_1" class="thick" stroke="#000" stroke-width="3" opacity="0"/>
    <use xlink:href="#line_1" class="pl pll" stroke="#7E2F8E" stroke-width="0.90"/>
  </g>
  <g class="pl_2">
    <use xlink:href="#line_2" class="thick" stroke="#000" stroke-width="3" opacity="0"/>
    <use xlink:href="#line_2" class="pl pll" stroke="#D95319" stroke-width="0.90"/>
    <text class="pl" transform="translate(925.2,524.9)" dy="8.1" font-size="27.00" fill="#D95319" stroke="none">Oil</text>
  </g>
  <g class="pl_3">
    <use xlink:href="#line_3" class="thick" stroke="#000" stroke-width="3" opacity="0"/>
    <use xlink:href="#line_3" class="pl pll" stroke="#0072BD" stroke-width="0.90"/>
    <text class="pl" transform="translate(925.2,305.7)" dy="8.1" font-size="27.00" fill="#0072BD" stroke="none">Natural gas</text>
  </g>
</g>
    <text class="pl" transform="translate(180.2,573.0) rotate(-90)" dy="8.1" font-size="27.00" fill="#808080" stroke="none" text-anchor="end">2016</text>
    <text class="pl" transform="translate(249.5,573.0) rotate(-90)" dy="8.1" font-size="27.00" fill="#808080" stroke="none" text-anchor="end">2017</text>
    <text class="pl" transform="translate(318.7,573.0) rotate(-90)" dy="8.1" font-size="27.00" fill="#808080" stroke="none" text-anchor="end">2018</text>
    <text class="pl" transform="translate(387.9,573.0) rotate(-90)" dy="8.1" font-size="27.00" fill="#808080" stroke="none" text-anchor="end">2019</text>
    <text class="pl" transform="translate(457.2,573.0) rotate(-90)" dy="8.1" font-size="27.00" fill="#808080" stroke="none" text-anchor="end">2020</text>
    <text class="pl" transform="translate(526.4,573.0) rotate(-90)" dy="8.1" font-size="27.00" fill="#808080" stroke="none" text-anchor="end">2021</text>
    <text class="pl" transform="translate(595.6,573.0) rotate(-90)" dy="8.1" font-size="27.00" fill="#808080" stroke="none" text-anchor="end">2022</text>
    <text class="pl" transform="translate(664.9,573.0) rotate(-90)" dy="8.1" font-size="27.00" fill="#808080" stroke="none" text-anchor="end">2023</text>
    <text class="pl" transform="translate(734.1,573.0) rotate(-90)" dy="8.1" font-size="27.00" fill="#808080" stroke="none" text-anchor="end">2024</text>
    <text class="pl" transform="translate(803.3,573.0) rotate(-90)" dy="8.1" font-size="27.00" fill="#808080" stroke="none" text-anchor="end">2025</text>
    <text class="pl" transform="translate(872.6,573.0) rotate(-90)" dy="8.1" font-size="27.00" fill="#808080" stroke="none" text-anchor="end">2026</text>
<polyline class="pl" points="486.7,442.2 486.8,443.5 486.9,444.8 487.1,446.0 487.4,447.2 487.7,448.3 488.1,449.4 488.6,450.4 489.2,451.4 489.8,452.3 490.4,453.3 491.2,454.2 491.9,455.0 492.7,455.9 493.6,456.7 494.5,457.4 495.4,458.2 496.4,458.9 497.4,459.7 498.5,460.4 499.5,461.1 500.6,461.8 501.7,462.5 502.9,463.1 504.0,463.8 505.2,464.5 506.3,465.2 507.5,465.8 508.7,466.5 509.9,467.2 511.0,467.9 512.2,468.6 513.4,469.3 514.5,470.1 515.6,470.8 516.7,471.6 517.8,472.4 518.9,473.3 519.9,474.1 521.0,475.0 521.9,475.9 522.9,476.9 523.8,477.9 524.6,478.9 525.5,480.0 526.2,481.1 526.9,482.3 527.6,483.5 528.2,484.8 528.7,486.1" stroke="#000" stroke-width="0.90" stroke-opacity="1.00" fill="none" clip-path="url(#axis_clip)"/>
<polyline class="pl" points="530.5,476.5 528.7,486.1 519.8,482.3" stroke="#000" stroke-width="0.90" stroke-opacity="1.00" fill="none" />
    <text class="pl" transform="translate(486.7,428.7)"  font-size="18.00" fill="#000" stroke="none" text-anchor="middle">
      <tspan x="0" y="-20.2">Production</tspan><tspan x="0" y="0.0">start</tspan>
    </text>
    <text class="pl" transform="translate(145.6,47.2)" dy="0.0" font-size="27.00" fill="#808080" stroke="none">Monthly production at Duva</text>
<text transform="translate(157.6,666.1)" font-size="19.80" font-family="Helvetica" fill="#BFBFBF" stroke="none" xml:space="preserve"><a href="https://bsky.app/profile/robbieandrew.bsky.social" style="fill:#BFBFBF" target="_blank">@robbieandrew.bsky.social</a>   &#9679;   Data: DISKOS   &#9679;   Through March 2026</text>
<text class="twitlink" transform="translate(157.6,666.1)" opacity="0" font-size="19.80" fill="#BFBFBF" stroke="none" xml:space="preserve"><a href="https://bsky.app/profile/robbieandrew.bsky.social" style="fill:#BFBFBF" target="_blank">@robbieandrew.bsky.social</a></text>
  <g class="dl_el" transform="translate(154.6,578.4)">
    <g class="dl_el_balloon">
      <foreignObject x="0" y="0" width="120" height="500">
      <div xmlns="http://www.w3.org/1999/xhtml" class="dl_fe" style="height:60px">
      <p class="dl_fe_p">Find me on BlueSky</p>
      </div>
	    </foreignObject>
      <path stroke="#000" fill="#FDFFDF" d="M0,60H60l5,5l5,-5H120"/>
    </g>
  </g>
<g>
<a href="https://creativecommons.org/licenses/by/4.0/" target="_blank">
  <rect x="123.0" y="651.4" width="34" height="17" fill="#FFF" stroke="none" opacity="0.01"/>
  <g transform="translate(124.0,652.4) scale(0.24)">
  <g><circle fill="#FFF" cx="37.79" cy="28.5" r="28.84"/>
     <circle fill="none" cx="37.79" cy="28.5" r="28.84" stroke="#BFBFBF" stroke-width="5.5"/>
     <path fill="#BFBFBF" d="M37.16,23.19 l-4.29,2.23c-0.458-0.951-1.02-1.62-1.69-2c-0.667-0.38-1.29-0.571-1.86-0.571c-2.86,0-4.29,1.89-4.29,5.66 c0,1.71,0.36,3.08,1.09,4.11c0.724,1.03,1.79,1.54,3.2,1.54c1.87,0,3.18-0.915,3.94-2.74l3.94,2 c-0.838,1.56-2,2.79-3.49,3.69c-1.48,0.896-3.12,1.34-4.91,1.34c-2.86,0-5.16-0.875-6.92-2.63 c-1.75-1.75-2.63-4.19-2.63-7.31c0-3.05,0.886-5.47,2.66-7.26c1.77-1.79,4.01-2.69,6.72-2.69 C32.6,18.56,35.44,20.1,37.16,23.19z
              M55.61,23.19l-4.23,2.23c-0.457-0.951-1.02-1.62-1.69-2 c-0.668-0.38-1.31-0.571-1.91-0.571c-2.86,0-4.29,1.89-4.29,5.66c0,1.71,0.363,3.08,1.09,4.11 c0.723,1.03,1.79,1.54,3.2,1.54c1.87,0,3.18-0.915,3.94-2.74l4,2c-0.875,1.56-2.06,2.79-3.54,3.69 c-1.49,0.9-3.11,1.34-4.86,1.34c-2.9,0-5.21-0.875-6.94-2.63c-1.74-1.75-2.6-4.19-2.6-7.31 c0-3.05,0.885-5.47,2.66-7.26c1.77-1.79,4.01-2.69,6.71-2.69C51.12,18.56,53.944,20.1,55.61,23.19z"/>
  </g></g>
  <g transform="translate(140.2,652.4) scale(0.24)">
  <g><circle fill="#FFF" cx="37.79" cy="28.5" r="28.84"/>
     <circle fill="none" cx="37.79" cy="28.5" r="28.84" stroke="#BFBFBF" stroke-width="5.5"/>
     <path fill="#BFBFBF" d="M46.129,20.557v13.085h-3.656v15.542h-9.944V33.643h-3.656V20.557 c0-0.572,0.2-1.057,0.599-1.457c0.401-0.399,0.887-0.6,1.457-0.6h13.144c0.533,0,1.01,0.2,1.428,0.6 C45.918,19.5,46.129,19.986,46.129,20.557z
              M33.042,12.329c0-3.008,1.485-4.514,4.458-4.514s4.457,1.504,4.457,4.514 c0,2.971-1.486,4.457-4.457,4.457S33.042,15.3,33.042,12.329z"/>
  </g></g>
  </a>
</g>
  <g class="dl_el" transform="translate(69.1,548.4)">
    <g class="dl_el_balloon">
      <foreignObject x="0" y="0" width="250" height="500">
      <div xmlns="http://www.w3.org/1999/xhtml" class="dl_fe" style="height:90px">
      <p class="dl_fe_p">CC-BY: Material may be freely re-used as long as you credit the author</p>
      </div>
	    </foreignObject>
      <path stroke="#000" fill="#FDFFDF" d="M0,90H70l5,5l5,-5H250"/>
    </g>
  </g>
</g>
</svg>
