<svg version="1.1" xmlns="http://www.w3.org/2000/svg" xmlns:xlink="http://www.w3.org/1999/xlink" width="100%" height="100%" viewBox="0 0 1200.000 674.916">
<title>Annual Fossil CO2 Emissions in Japan, 2000-23</title>
<style type="text/css">
  #main {font-family:Helvetica,Arial,sans-serif; font-size:27.00px;
         fill-opacity:1; fill:#000000; stroke:none; stroke-linejoin:round; stroke-linecap:round; stroke-width:1.00;}
  .marker {stroke-opacity:0;fill-opacity:0;}
  .marker:hover {stroke-opacity:0.5; fill-opacity:1;}
  .ticklabel {font-size:27.00px;fill:#808080;stroke:none;font-family:Helvetica}
  .ytl {text-anchor:end;}
  .dp1 {pointer-events:none;font-size:70%;text-anchor:middle;fill:#000000;}
  .dp2 {pointer-events:none;font-size:70%;text-anchor:middle;fill:#FFFFFF;}
  .numtip {pointer-events:none;}
  .cc {opacity:0.25;}
.dl_fe {background-color:#FDFFDF;display:flex;margin:auto;align-items:center}
.dl_fe_p {font-size:20px;text-align:center;margin:3px}
.dl_el {display:none;pointer-events:none;}
.cc:hover + .dl_el {display:block;}
text:hover + .dl_el {display:block;}
</style>
<defs>
  <clipPath id="axis_clip"><rect x="145.8" y="54.2" width="761.2" height="532.8" /></clipPath>
  <path id="line_x" d="M 145.600,0 h 761.600" stroke="#262626" stroke-opacity="0.15" stroke-width="1.00"/>
  <path id="tick_y" d="M 145.600,0 h -6.000" stroke="#808080" stroke-width="0.90"/>
  <path id="tick_x" d="M 0,587.177 v 6.000" stroke="#808080" stroke-width="0.90"/>
</defs>
<g id="main">
<use xlink:href="#line_x" transform="translate(0,587.2)"/>
<use xlink:href="#line_x" transform="translate(0,453.9)"/>
<use xlink:href="#line_x" transform="translate(0,320.6)"/>
<use xlink:href="#line_x" transform="translate(0,187.3)"/>
<use xlink:href="#line_x" transform="translate(0,54.0)"/>
<use xlink:href="#tick_y" transform="translate(0,587.2)"/>
<use xlink:href="#tick_y" transform="translate(0,453.9)"/>
<use xlink:href="#tick_y" transform="translate(0,320.6)"/>
<use xlink:href="#tick_y" transform="translate(0,187.3)"/>
<use xlink:href="#tick_y" transform="translate(0,54.0)"/>
<use xlink:href="#tick_x" transform="translate(221.8,0)"/>
<use xlink:href="#tick_x" transform="translate(374.1,0)"/>
<use xlink:href="#tick_x" transform="translate(526.4,0)"/>
<use xlink:href="#tick_x" transform="translate(678.7,0)"/>
<use xlink:href="#tick_x" transform="translate(831.0,0)"/>
<polyline points="145.6,53.993 145.6,587.177 907.2,587.177" stroke="#808080" stroke-width="0.90" fill="none"/>
<text class="ticklabel ytl" transform="translate(128.8,595.3)">0</text>
<text class="ticklabel ytl" transform="translate(128.8,462.0)">200</text>
<text class="ticklabel ytl" transform="translate(128.8,328.7)">400</text>
<text class="ticklabel ytl" transform="translate(128.8,195.4)">600</text>
<text class="ticklabel ytl" transform="translate(128.8,62.1)">800 Mt</text>
<g stroke="#262626" stroke-width="0.9000"  clip-path="url(#axis_clip)">
  <polygon points="160.8,587.2 160.8,338.6 165.9,338.6 165.9,587.2" fill="#FFEFE6"/>
  <polygon points="313.2,587.2 313.2,135.8 318.2,135.8 318.2,587.2" fill="#EEE"/>
  <polygon points="465.5,587.2 465.5,474.7 470.5,474.7 470.5,587.2" fill="#E6F3FF"/>
  <polygon points="617.8,587.2 617.8,563.8 622.9,563.8 622.9,587.2" fill="#EEE"/>
  <polygon points="770.1,587.2 770.1,586.8 775.2,586.8 775.2,587.2" fill="#FFEAE6"/>
</g>
<g stroke="#262626" stroke-width="0.9000"  clip-path="url(#axis_clip)">
  <polygon points="165.9,587.2 165.9,332.6 171.0,332.6 171.0,587.2" fill="#F9E7DC"/>
  <polygon points="318.2,587.2 318.2,150.2 323.3,150.2 323.3,587.2" fill="#E7E7E7"/>
  <polygon points="470.5,587.2 470.5,475.3 475.6,475.3 475.6,587.2" fill="#DFEFFD"/>
  <polygon points="622.9,587.2 622.9,564.3 627.9,564.3 627.9,587.2" fill="#E9E9E9"/>
  <polygon points="775.2,587.2 775.2,586.8 780.3,586.8 780.3,587.2" fill="#FFE5DE"/>
</g>
<g stroke="#262626" stroke-width="0.9000"  clip-path="url(#axis_clip)">
  <polygon points="171.0,587.2 171.0,321.2 176.1,321.2 176.1,587.2" fill="#F4DFD3"/>
  <polygon points="323.3,587.2 323.3,143.0 328.4,143.0 328.4,587.2" fill="#E0E0E0"/>
  <polygon points="475.6,587.2 475.6,472.7 480.7,472.7 480.7,587.2" fill="#D8EAFA"/>
  <polygon points="627.9,587.2 627.9,565.6 633.0,565.6 633.0,587.2" fill="#E3E3E3"/>
  <polygon points="780.3,587.2 780.3,586.8 785.3,586.8 785.3,587.2" fill="#FFDFD7"/>
</g>
<g stroke="#262626" stroke-width="0.9000"  clip-path="url(#axis_clip)">
  <polygon points="176.1,587.2 176.1,312.3 181.1,312.3 181.1,587.2" fill="#EED7CA"/>
  <polygon points="328.4,587.2 328.4,149.6 333.5,149.6 333.5,587.2" fill="#D9D9D9"/>
  <polygon points="480.7,587.2 480.7,469.1 485.8,469.1 485.8,587.2" fill="#D2E6F8"/>
  <polygon points="633.0,587.2 633.0,565.9 638.1,565.9 638.1,587.2" fill="#DDD"/>
  <polygon points="785.3,587.2 785.3,586.8 790.4,586.8 790.4,587.2" fill="#FFD9D0"/>
</g>
<g stroke="#262626" stroke-width="0.9000"  clip-path="url(#axis_clip)">
  <polygon points="181.1,587.2 181.1,306.9 186.2,306.9 186.2,587.2" fill="#E8D0C1"/>
  <polygon points="333.5,587.2 333.5,157.0 338.5,157.0 338.5,587.2" fill="#D2D2D2"/>
  <polygon points="485.8,587.2 485.8,469.8 490.9,469.8 490.9,587.2" fill="#CBE2F5"/>
  <polygon points="638.1,587.2 638.1,566.3 643.2,566.3 643.2,587.2" fill="#D8D8D8"/>
  <polygon points="790.4,587.2 790.4,586.9 795.5,586.9 795.5,587.2" fill="#FFD3C8"/>
</g>
<g stroke="#262626" stroke-width="0.9000"  clip-path="url(#axis_clip)">
  <polygon points="186.2,587.2 186.2,300.0 191.3,300.0 191.3,587.2" fill="#E2C8B8"/>
  <polygon points="338.5,587.2 338.5,159.1 343.6,159.1 343.6,587.2" fill="#CACACA"/>
  <polygon points="490.9,587.2 490.9,470.7 495.9,470.7 495.9,587.2" fill="#C5DEF3"/>
  <polygon points="643.2,587.2 643.2,565.7 648.3,565.7 648.3,587.2" fill="#D2D2D2"/>
  <polygon points="795.5,587.2 795.5,586.8 800.6,586.8 800.6,587.2" fill="#FFCDC1"/>
</g>
<g stroke="#262626" stroke-width="0.9000"  clip-path="url(#axis_clip)">
  <polygon points="191.3,587.2 191.3,301.9 196.4,301.9 196.4,587.2" fill="#DDC1B0"/>
  <polygon points="343.6,587.2 343.6,183.6 348.7,183.6 348.7,587.2" fill="#C3C3C3"/>
  <polygon points="495.9,587.2 495.9,459.7 501.0,459.7 501.0,587.2" fill="#BFD9F0"/>
  <polygon points="648.3,587.2 648.3,565.9 653.3,565.9 653.3,587.2" fill="#CCC"/>
  <polygon points="800.6,587.2 800.6,586.8 805.7,586.8 805.7,587.2" fill="#FFC7BA"/>
</g>
<g stroke="#262626" stroke-width="0.9000"  clip-path="url(#axis_clip)">
  <polygon points="196.4,587.2 196.4,290.3 201.5,290.3 201.5,587.2" fill="#D7B9A7"/>
  <polygon points="348.7,587.2 348.7,181.8 353.8,181.8 353.8,587.2" fill="#BCBCBC"/>
  <polygon points="501.0,587.2 501.0,448.7 506.1,448.7 506.1,587.2" fill="#B9D5EE"/>
  <polygon points="653.3,587.2 653.3,566.7 658.4,566.7 658.4,587.2" fill="#C7C7C7"/>
  <polygon points="805.7,587.2 805.7,586.8 810.7,586.8 810.7,587.2" fill="#FFC1B2"/>
</g>
<g stroke="#262626" stroke-width="0.9000"  clip-path="url(#axis_clip)">
  <polygon points="201.5,587.2 201.5,302.8 206.5,302.8 206.5,587.2" fill="#D1B29F"/>
  <polygon points="353.8,587.2 353.8,211.7 358.8,211.7 358.8,587.2" fill="#B4B4B4"/>
  <polygon points="506.1,587.2 506.1,451.7 511.2,451.7 511.2,587.2" fill="#B3D1EB"/>
  <polygon points="658.4,587.2 658.4,568.1 663.5,568.1 663.5,587.2" fill="#C1C1C1"/>
  <polygon points="810.7,587.2 810.7,586.8 815.8,586.8 815.8,587.2" fill="#FFBBAB"/>
</g>
<g stroke="#262626" stroke-width="0.9000"  clip-path="url(#axis_clip)">
  <polygon points="206.5,587.2 206.5,312.7 211.6,312.7 211.6,587.2" fill="#CBAB98"/>
  <polygon points="358.8,587.2 358.8,243.0 363.9,243.0 363.9,587.2" fill="#ADADAD"/>
  <polygon points="511.2,587.2 511.2,453.2 516.2,453.2 516.2,587.2" fill="#ADCDE9"/>
  <polygon points="663.5,587.2 663.5,570.3 668.6,570.3 668.6,587.2" fill="#BBB"/>
  <polygon points="815.8,587.2 815.8,586.8 820.9,586.8 820.9,587.2" fill="#FFB5A4"/>
</g>
<g stroke="#262626" stroke-width="0.9000"  clip-path="url(#axis_clip)">
  <polygon points="211.6,587.2 211.6,289.6 216.7,289.6 216.7,587.2" fill="#C6A490"/>
  <polygon points="363.9,587.2 363.9,239.1 369.0,239.1 369.0,587.2" fill="#A5A5A5"/>
  <polygon points="516.2,587.2 516.2,445.8 521.3,445.8 521.3,587.2" fill="#A7C9E6"/>
  <polygon points="668.6,587.2 668.6,571.0 673.6,571.0 673.6,587.2" fill="#B5B5B5"/>
  <polygon points="820.9,587.2 820.9,586.9 826.0,586.9 826.0,587.2" fill="#FFB09C"/>
</g>
<g stroke="#262626" stroke-width="0.9000"  clip-path="url(#axis_clip)">
  <polygon points="216.7,587.2 216.7,299.9 221.8,299.9 221.8,587.2" fill="#C09D88"/>
  <polygon points="369.0,587.2 369.0,218.7 374.1,218.7 374.1,587.2" fill="#9E9E9E"/>
  <polygon points="521.3,587.2 521.3,422.7 526.4,422.7 526.4,587.2" fill="#A1C5E4"/>
  <polygon points="673.6,587.2 673.6,570.5 678.7,570.5 678.7,587.2" fill="#B0B0B0"/>
  <polygon points="826.0,587.2 826.0,586.9 831.0,586.9 831.0,587.2" fill="#FFAA95"/>
</g>
<g stroke="#262626" stroke-width="0.9000"  clip-path="url(#axis_clip)">
  <polygon points="221.8,587.2 221.8,287.0 226.8,287.0 226.8,587.2" fill="#BA9781"/>
  <polygon points="374.1,587.2 374.1,210.9 379.2,210.9 379.2,587.2" fill="#969696"/>
  <polygon points="526.4,587.2 526.4,416.6 531.5,416.6 531.5,587.2" fill="#9BC1E1"/>
  <polygon points="678.7,587.2 678.7,570.1 683.8,570.1 683.8,587.2" fill="#AAA"/>
  <polygon points="831.0,587.2 831.0,586.8 836.1,586.8 836.1,587.2" fill="#FFA48E"/>
</g>
<g stroke="#262626" stroke-width="0.9000"  clip-path="url(#axis_clip)">
  <polygon points="226.8,587.2 226.8,266.2 231.9,266.2 231.9,587.2" fill="#B4907A"/>
  <polygon points="379.2,587.2 379.2,226.0 384.2,226.0 384.2,587.2" fill="#8F8F8F"/>
  <polygon points="531.5,587.2 531.5,417.0 536.6,417.0 536.6,587.2" fill="#96BDDF"/>
  <polygon points="683.8,587.2 683.8,569.3 688.9,569.3 688.9,587.2" fill="#A4A4A4"/>
  <polygon points="836.1,587.2 836.1,586.9 841.2,586.9 841.2,587.2" fill="#FF9E86"/>
</g>
<g stroke="#262626" stroke-width="0.9000"  clip-path="url(#axis_clip)">
  <polygon points="231.9,587.2 231.9,271.8 237.0,271.8 237.0,587.2" fill="#AF8A73"/>
  <polygon points="384.2,587.2 384.2,255.8 389.3,255.8 389.3,587.2" fill="#878787"/>
  <polygon points="536.6,587.2 536.6,415.7 541.6,415.7 541.6,587.2" fill="#90B9DC"/>
  <polygon points="688.9,587.2 688.9,569.5 694.0,569.5 694.0,587.2" fill="#9E9E9E"/>
  <polygon points="841.2,587.2 841.2,586.9 846.3,586.9 846.3,587.2" fill="#FF987F"/>
</g>
<g stroke="#262626" stroke-width="0.9000"  clip-path="url(#axis_clip)">
  <polygon points="237.0,587.2 237.0,276.4 242.1,276.4 242.1,587.2" fill="#A9836C"/>
  <polygon points="389.3,587.2 389.3,269.3 394.4,269.3 394.4,587.2" fill="#7F7F7F"/>
  <polygon points="541.6,587.2 541.6,423.7 546.7,423.7 546.7,587.2" fill="#8BB5DA"/>
  <polygon points="694.0,587.2 694.0,569.9 699.0,569.9 699.0,587.2" fill="#989898"/>
  <polygon points="846.3,587.2 846.3,586.9 851.3,586.9 851.3,587.2" fill="#FF9278"/>
</g>
<g stroke="#262626" stroke-width="0.9000"  clip-path="url(#axis_clip)">
  <polygon points="242.1,587.2 242.1,282.5 247.1,282.5 247.1,587.2" fill="#A37D66"/>
  <polygon points="394.4,587.2 394.4,280.3 399.5,280.3 399.5,587.2" fill="#787878"/>
  <polygon points="546.7,587.2 546.7,420.0 551.8,420.0 551.8,587.2" fill="#85B2D7"/>
  <polygon points="699.0,587.2 699.0,569.9 704.1,569.9 704.1,587.2" fill="#929292"/>
  <polygon points="851.3,587.2 851.3,586.9 856.4,586.9 856.4,587.2" fill="#FF8C70"/>
</g>
<g stroke="#262626" stroke-width="0.9000"  clip-path="url(#axis_clip)">
  <polygon points="247.1,587.2 247.1,281.2 252.2,281.2 252.2,587.2" fill="#9D7760"/>
  <polygon points="399.5,587.2 399.5,288.4 404.5,288.4 404.5,587.2" fill="#707070"/>
  <polygon points="551.8,587.2 551.8,424.0 556.9,424.0 556.9,587.2" fill="#80AED5"/>
  <polygon points="704.1,587.2 704.1,569.6 709.2,569.6 709.2,587.2" fill="#8B8B8B"/>
  <polygon points="856.4,587.2 856.4,586.9 861.5,586.9 861.5,587.2" fill="#FF8669"/>
</g>
<g stroke="#262626" stroke-width="0.9000"  clip-path="url(#axis_clip)">
  <polygon points="252.2,587.2 252.2,292.3 257.3,292.3 257.3,587.2" fill="#98715A"/>
  <polygon points="404.5,587.2 404.5,299.4 409.6,299.4 409.6,587.2" fill="#686868"/>
  <polygon points="556.9,587.2 556.9,431.7 561.9,431.7 561.9,587.2" fill="#7BAAD2"/>
  <polygon points="709.2,587.2 709.2,569.7 714.3,569.7 714.3,587.2" fill="#858585"/>
  <polygon points="861.5,587.2 861.5,586.9 866.6,586.9 866.6,587.2" fill="#FF8062"/>
</g>
<g stroke="#262626" stroke-width="0.9000"  clip-path="url(#axis_clip)">
  <polygon points="257.3,587.2 257.3,298.7 262.4,298.7 262.4,587.2" fill="#926B54"/>
  <polygon points="409.6,587.2 409.6,310.0 414.7,310.0 414.7,587.2" fill="#606060"/>
  <polygon points="561.9,587.2 561.9,438.3 567.0,438.3 567.0,587.2" fill="#76A6D0"/>
  <polygon points="714.3,587.2 714.3,570.3 719.3,570.3 719.3,587.2" fill="#7F7F7F"/>
  <polygon points="866.6,587.2 866.6,586.9 871.7,586.9 871.7,587.2" fill="#FF7B5A"/>
</g>
<g stroke="#262626" stroke-width="0.9000"  clip-path="url(#axis_clip)">
  <polygon points="262.4,587.2 262.4,320.9 267.5,320.9 267.5,587.2" fill="#8C654E"/>
  <polygon points="414.7,587.2 414.7,329.2 419.8,329.2 419.8,587.2" fill="#585858"/>
  <polygon points="567.0,587.2 567.0,439.3 572.1,439.3 572.1,587.2" fill="#71A3CD"/>
  <polygon points="719.3,587.2 719.3,570.9 724.4,570.9 724.4,587.2" fill="#797979"/>
  <polygon points="871.7,587.2 871.7,586.9 876.7,586.9 876.7,587.2" fill="#FF7553"/>
</g>
<g stroke="#262626" stroke-width="0.9000"  clip-path="url(#axis_clip)">
  <polygon points="267.5,587.2 267.5,301.9 272.5,301.9 272.5,587.2" fill="#866048"/>
  <polygon points="419.8,587.2 419.8,326.9 424.9,326.9 424.9,587.2" fill="#505050"/>
  <polygon points="572.1,587.2 572.1,446.5 577.2,446.5 577.2,587.2" fill="#6C9FCB"/>
  <polygon points="724.4,587.2 724.4,570.9 729.5,570.9 729.5,587.2" fill="#737373"/>
  <polygon points="876.7,587.2 876.7,586.9 881.8,586.9 881.8,587.2" fill="#FF6F4C"/>
</g>
<g stroke="#262626" stroke-width="0.9000"  clip-path="url(#axis_clip)">
  <polygon points="272.5,587.2 272.5,309.1 277.6,309.1 277.6,587.2" fill="#815A43"/>
  <polygon points="424.9,587.2 424.9,330.7 429.9,330.7 429.9,587.2" fill="#484848"/>
  <polygon points="577.2,587.2 577.2,454.1 582.3,454.1 582.3,587.2" fill="#679CC8"/>
  <polygon points="729.5,587.2 729.5,571.7 734.6,571.7 734.6,587.2" fill="#6C6C6C"/>
  <polygon points="881.8,587.2 881.8,586.9 886.9,586.9 886.9,587.2" fill="#FF6944"/>
</g>
<g stroke="#262626" stroke-width="0.9000"  clip-path="url(#axis_clip)">
  <polygon points="277.6,587.2 277.6,324.7 282.7,324.7 282.7,587.2" fill="#7B553E"/>
  <polygon points="429.9,587.2 429.9,335.4 435.0,335.4 435.0,587.2" fill="#404040"/>
  <polygon points="582.3,587.2 582.3,461.6 587.3,461.6 587.3,587.2" fill="#6298C6"/>
  <polygon points="734.6,587.2 734.6,573.4 739.6,573.4 739.6,587.2" fill="#666"/>
  <polygon points="886.9,587.2 886.9,586.9 892.0,586.9 892.0,587.2" fill="#FF633D"/>
</g>
<text transform="translate(221.8,600.7)" dy="21.6" font-size="21.60" fill="#808080" stroke="none" text-anchor="middle">Coal</text>
<text transform="translate(374.1,600.7)" dy="21.6" font-size="21.60" fill="#808080" stroke="none" text-anchor="middle">Oil</text>
<text transform="translate(526.4,600.7)" dy="21.6" font-size="21.60" fill="#808080" stroke="none" text-anchor="middle">Gas</text>
<text transform="translate(678.7,600.7)" dy="21.6" font-size="21.60" fill="#808080" stroke="none" text-anchor="middle">Cement</text>
<text transform="translate(831.0,600.7)" dy="21.6" font-size="21.60" fill="#808080" stroke="none" text-anchor="middle">Flaring</text>
<polyline class="pl" points="252.2,274.4 252.2,267.7 282.7,267.7 282.7,274.4" stroke="#808080" stroke-width="0.90" stroke-opacity="1.00" fill="none" clip-path="url(#axis_clip)"/>
<text transform="translate(282.7,252.7)" dy="0.0" font-size="21.60" fill="#808080" stroke="none" text-anchor="end">-1.8%/yr</text>
<polyline class="pl" points="404.5,281.7 404.5,274.9 435.0,274.9 435.0,281.7" stroke="#808080" stroke-width="0.90" stroke-opacity="1.00" fill="none" clip-path="url(#axis_clip)"/>
<text transform="translate(435.0,122.3)" dy="0.0" font-size="21.60" fill="#808080" stroke="none" text-anchor="end">-2.6%/yr</text>
<polyline class="pl" points="419.8,274.9 419.8,135.8" stroke="#808080" stroke-width="0.90" stroke-opacity="1.00" fill="none" clip-path="url(#axis_clip)"/>
<polyline class="pl" points="556.9,417.3 556.9,410.5 587.3,410.5 587.3,417.3" stroke="#808080" stroke-width="0.90" stroke-opacity="1.00" fill="none" clip-path="url(#axis_clip)"/>
<text transform="translate(587.3,400.4)" dy="0.0" font-size="21.60" fill="#808080" stroke="none" text-anchor="end">-4.2%/yr</text>
<polyline class="pl" points="709.2,562.8 709.2,556.1 739.6,556.1 739.6,562.8" stroke="#808080" stroke-width="0.90" stroke-opacity="1.00" fill="none" clip-path="url(#axis_clip)"/>
<text transform="translate(739.6,545.9)" dy="0.0" font-size="21.60" fill="#808080" stroke="none" text-anchor="end">-4.1%/yr</text>
<polyline class="pl" points="861.5,580.1 861.5,573.4 892.0,573.4 892.0,580.1" stroke="#808080" stroke-width="0.90" stroke-opacity="1.00" fill="none" clip-path="url(#axis_clip)"/>
<text transform="translate(892.0,563.3)" dy="0.0" font-size="21.60" fill="#808080" stroke="none" text-anchor="end">-3.7%/yr</text>
<text transform="translate(145.6,47.2)" dy="0.0" font-size="27.00" fill="#808080" stroke="none">Annual Fossil CO<tspan dy="0.2em"><tspan style="font-size:70%">2</tspan></tspan><tspan dy="-0.2em"> </tspan>Emissions in Japan, 2000-23</text>
<text transform="translate(130.0,81.6)" dy="8.1" font-size="27.00" fill="#808080" stroke="none" text-anchor="end">CO<tspan dy="0.2em"><tspan style="font-size:70%">2</tspan></tspan><tspan dy="-0.2em"></tspan></text>
<text transform="translate(145.6,54.0)" dy="18.0" font-size="18.00" fill="#808080" stroke="none" xml:space="preserve"> Annual growth rates from 2018-2023.</text>
<text transform="translate(162.3,666.1)" font-size="19.80" font-family="Helvetica" fill="#BFBFBF" stroke="none" xml:space="preserve">Global Carbon Project</text>
<g>
  <rect x="123.0" y="651.4" width="34" height="17" fill="#FFF" stroke="none"/>
  <g transform="translate(124.0,652.4) scale(0.24)">
  <g><circle fill="#FFF" cx="37.79" cy="28.5" r="28.84"/>
     <circle fill="none" cx="37.79" cy="28.5" r="28.84" stroke="#BFBFBF" stroke-width="5.5"/>
     <path fill="#BFBFBF" d="M37.16,23.19 l-4.29,2.23c-0.458-0.951-1.02-1.62-1.69-2c-0.667-0.38-1.29-0.571-1.86-0.571c-2.86,0-4.29,1.89-4.29,5.66 c0,1.71,0.36,3.08,1.09,4.11c0.724,1.03,1.79,1.54,3.2,1.54c1.87,0,3.18-0.915,3.94-2.74l3.94,2 c-0.838,1.56-2,2.79-3.49,3.69c-1.48,0.896-3.12,1.34-4.91,1.34c-2.86,0-5.16-0.875-6.92-2.63 c-1.75-1.75-2.63-4.19-2.63-7.31c0-3.05,0.886-5.47,2.66-7.26c1.77-1.79,4.01-2.69,6.72-2.69 C32.6,18.56,35.44,20.1,37.16,23.19z
              M55.61,23.19l-4.23,2.23c-0.457-0.951-1.02-1.62-1.69-2 c-0.668-0.38-1.31-0.571-1.91-0.571c-2.86,0-4.29,1.89-4.29,5.66c0,1.71,0.363,3.08,1.09,4.11 c0.723,1.03,1.79,1.54,3.2,1.54c1.87,0,3.18-0.915,3.94-2.74l4,2c-0.875,1.56-2.06,2.79-3.54,3.69 c-1.49,0.9-3.11,1.34-4.86,1.34c-2.9,0-5.21-0.875-6.94-2.63c-1.74-1.75-2.6-4.19-2.6-7.31 c0-3.05,0.885-5.47,2.66-7.26c1.77-1.79,4.01-2.69,6.71-2.69C51.12,18.56,53.944,20.1,55.61,23.19z"/>
  </g></g>
  <g transform="translate(140.2,652.4) scale(0.24)">
  <g><circle fill="#FFF" cx="37.79" cy="28.5" r="28.84"/>
     <circle fill="none" cx="37.79" cy="28.5" r="28.84" stroke="#BFBFBF" stroke-width="5.5"/>
     <path fill="#BFBFBF" d="M46.129,20.557v13.085h-3.656v15.542h-9.944V33.643h-3.656V20.557 c0-0.572,0.2-1.057,0.599-1.457c0.401-0.399,0.887-0.6,1.457-0.6h13.144c0.533,0,1.01,0.2,1.428,0.6 C45.918,19.5,46.129,19.986,46.129,20.557z
              M33.042,12.329c0-3.008,1.485-4.514,4.458-4.514s4.457,1.504,4.457,4.514 c0,2.971-1.486,4.457-4.457,4.457S33.042,15.3,33.042,12.329z"/>
  </g></g>
</g>
</g>
</svg>
