<svg version="1.1" xmlns="http://www.w3.org/2000/svg" xmlns:xlink="http://www.w3.org/1999/xlink" width="100%" height="100%" viewBox="0 0 1200.000 674.916">
<title>Annual Fossil CO2 Emissions in France</title>
<style type="text/css">
  #main {font-family:Helvetica,Arial,sans-serif; font-size:27.00px;
         fill-opacity:1; fill:#000000; stroke:none; stroke-linejoin:round; stroke-linecap:round; stroke-width:1.00;}
  .marker {stroke-opacity:0;fill-opacity:0;}
  .marker:hover {stroke-opacity:0.5; fill-opacity:1;}
  .ticklabel {font-size:27.00px;fill:#808080;stroke:none;font-family:Helvetica}
  .ytl {text-anchor:end;}
  .dp1 {pointer-events:none;font-size:70%;text-anchor:middle;fill:#000000;}
  .dp2 {pointer-events:none;font-size:70%;text-anchor:middle;fill:#FFFFFF;}
  .numtip {pointer-events:none;}
  .cc {opacity:0.25;}
.dl_fe {background-color:#FDFFDF;display:flex;margin:auto;align-items:center}
.dl_fe_p {font-size:20px;text-align:center;margin:3px}
.dl_el {display:none;pointer-events:none;}
.cc:hover + .dl_el {display:block;}
text:hover + .dl_el {display:block;}
</style>
<defs>
  <clipPath id="axis_clip"><rect x="145.8" y="54.2" width="761.2" height="532.8" /></clipPath>
  <path id="line_x" d="M 145.600,0 h 761.600" stroke="#262626" stroke-opacity="0.15" stroke-width="1.00"/>
  <path id="tick_y" d="M 145.600,0 h -6.000" stroke="#808080" stroke-width="0.90"/>
  <path id="tick_x" d="M 0,587.177 v 6.000" stroke="#808080" stroke-width="0.90"/>
</defs>
<g id="main">
<use xlink:href="#line_x" transform="translate(0,587.2)"/>
<use xlink:href="#line_x" transform="translate(0,490.2)"/>
<use xlink:href="#line_x" transform="translate(0,393.3)"/>
<use xlink:href="#line_x" transform="translate(0,296.3)"/>
<use xlink:href="#line_x" transform="translate(0,199.4)"/>
<use xlink:href="#line_x" transform="translate(0,102.5)"/>
<use xlink:href="#tick_y" transform="translate(0,587.2)"/>
<use xlink:href="#tick_y" transform="translate(0,490.2)"/>
<use xlink:href="#tick_y" transform="translate(0,393.3)"/>
<use xlink:href="#tick_y" transform="translate(0,296.3)"/>
<use xlink:href="#tick_y" transform="translate(0,199.4)"/>
<use xlink:href="#tick_y" transform="translate(0,102.5)"/>
<use xlink:href="#tick_x" transform="translate(162.3,0)"/>
<use xlink:href="#tick_x" transform="translate(273.5,0)"/>
<use xlink:href="#tick_x" transform="translate(384.6,0)"/>
<use xlink:href="#tick_x" transform="translate(495.8,0)"/>
<use xlink:href="#tick_x" transform="translate(607.0,0)"/>
<use xlink:href="#tick_x" transform="translate(718.2,0)"/>
<use xlink:href="#tick_x" transform="translate(862.7,0)"/>
<polyline points="145.6,53.993 145.6,587.177 907.2,587.177" stroke="#808080" stroke-width="0.90" fill="none"/>
<text class="ticklabel xtl" transform="translate(162.3,629.0)" text-anchor="middle">1960</text>
<text class="ticklabel xtl" transform="translate(273.5,629.0)" text-anchor="middle">1970</text>
<text class="ticklabel xtl" transform="translate(384.6,629.0)" text-anchor="middle">1980</text>
<text class="ticklabel xtl" transform="translate(495.8,629.0)" text-anchor="middle">1990</text>
<text class="ticklabel xtl" transform="translate(607.0,629.0)" text-anchor="middle">2000</text>
<text class="ticklabel xtl" transform="translate(718.2,629.0)" text-anchor="middle">2010</text>
<text class="ticklabel xtl" transform="translate(862.7,629.0)" text-anchor="middle">2023</text>
<text class="ticklabel ytl" transform="translate(128.8,595.3)">0</text>
<text class="ticklabel ytl" transform="translate(128.8,498.3)">100</text>
<text class="ticklabel ytl" transform="translate(128.8,401.4)">200</text>
<text class="ticklabel ytl" transform="translate(128.8,304.4)">300</text>
<text class="ticklabel ytl" transform="translate(128.8,207.5)">400</text>
<text class="ticklabel ytl" transform="translate(128.8,110.6)">500 Mt</text>
<polyline class="pl" points="140.0,329.2 151.2,333.3 162.3,299.6 173.4,280.6 184.5,263.9 195.6,258.9 206.8,228.9 217.9,234.1 229.0,217.7 240.1,194.1 251.2,180.9 262.3,156.5 273.5,139.9 284.6,107.9 295.7,87.9 306.8,63.9 317.9,81.2 329.1,118.7 340.2,78.8 351.3,94.6 362.4,73.5 373.5,70.2 384.6,90.6 395.8,140.8 406.9,159.1 418.0,175.7 429.1,186.6 440.2,193.3 451.4,207.7 462.5,210.2 473.6,212.5 484.7,199.1 495.8,205.5 506.9,182.1 518.1,192.3 529.2,211.3 540.3,218.0 551.4,213.2 562.5,197.3 573.7,204.4 584.8,186.6 595.9,187.8 607.0,193.5 618.1,189.3 629.2,193.6 640.4,187.8 651.5,186.4 662.6,184.1 673.7,193.4 684.8,203.3 696.0,210.0 707.1,227.6 718.2,222.2 729.3,243.6 740.4,241.6 751.5,239.4 762.7,270.3 773.8,265.8 784.9,263.2 796.0,260.4 807.1,275.1 818.3,281.8 829.4,315.3 840.5,290.9 851.6,302.6 862.7,323.0" stroke="#000" stroke-width="5.40" stroke-opacity="1.00" fill="none" clip-path="url(#axis_clip)"/>
<g class="pl" fill="#FFF" stroke="#000" stroke-width="0.900">
  <circle cx="151.2" cy="333.3" r="2.2" />
  <circle cx="173.4" cy="280.6" r="2.2" />
  <circle cx="184.5" cy="263.9" r="2.2" />
  <circle cx="195.6" cy="258.9" r="2.2" />
  <circle cx="206.8" cy="228.9" r="2.2" />
  <circle cx="217.9" cy="234.1" r="2.2" />
  <circle cx="229.0" cy="217.7" r="2.2" />
  <circle cx="240.1" cy="194.1" r="2.2" />
  <circle cx="251.2" cy="180.9" r="2.2" />
  <circle cx="262.3" cy="156.5" r="2.2" />
  <circle cx="284.6" cy="107.9" r="2.2" />
  <circle cx="295.7" cy="87.9" r="2.2" />
  <circle cx="306.8" cy="63.9" r="2.2" />
  <circle cx="317.9" cy="81.2" r="2.2" />
  <circle cx="329.1" cy="118.7" r="2.2" />
  <circle cx="340.2" cy="78.8" r="2.2" />
  <circle cx="351.3" cy="94.6" r="2.2" />
  <circle cx="362.4" cy="73.5" r="2.2" />
  <circle cx="373.5" cy="70.2" r="2.2" />
  <circle cx="395.8" cy="140.8" r="2.2" />
  <circle cx="406.9" cy="159.1" r="2.2" />
  <circle cx="418.0" cy="175.7" r="2.2" />
  <circle cx="429.1" cy="186.6" r="2.2" />
  <circle cx="440.2" cy="193.3" r="2.2" />
  <circle cx="451.4" cy="207.7" r="2.2" />
  <circle cx="462.5" cy="210.2" r="2.2" />
  <circle cx="473.6" cy="212.5" r="2.2" />
  <circle cx="484.7" cy="199.1" r="2.2" />
  <circle cx="506.9" cy="182.1" r="2.2" />
  <circle cx="518.1" cy="192.3" r="2.2" />
  <circle cx="529.2" cy="211.3" r="2.2" />
  <circle cx="540.3" cy="218.0" r="2.2" />
  <circle cx="551.4" cy="213.2" r="2.2" />
  <circle cx="562.5" cy="197.3" r="2.2" />
  <circle cx="573.7" cy="204.4" r="2.2" />
  <circle cx="584.8" cy="186.6" r="2.2" />
  <circle cx="595.9" cy="187.8" r="2.2" />
  <circle cx="618.1" cy="189.3" r="2.2" />
  <circle cx="629.2" cy="193.6" r="2.2" />
  <circle cx="640.4" cy="187.8" r="2.2" />
  <circle cx="651.5" cy="186.4" r="2.2" />
  <circle cx="662.6" cy="184.1" r="2.2" />
  <circle cx="673.7" cy="193.4" r="2.2" />
  <circle cx="684.8" cy="203.3" r="2.2" />
  <circle cx="696.0" cy="210.0" r="2.2" />
  <circle cx="707.1" cy="227.6" r="2.2" />
  <circle cx="729.3" cy="243.6" r="2.2" />
  <circle cx="740.4" cy="241.6" r="2.2" />
  <circle cx="751.5" cy="239.4" r="2.2" />
  <circle cx="762.7" cy="270.3" r="2.2" />
  <circle cx="773.8" cy="265.8" r="2.2" />
  <circle cx="784.9" cy="263.2" r="2.2" />
  <circle cx="796.0" cy="260.4" r="2.2" />
  <circle cx="807.1" cy="275.1" r="2.2" />
  <circle cx="818.3" cy="281.8" r="2.2" />
  <circle cx="840.5" cy="290.9" r="2.2" />
  <circle cx="851.6" cy="302.6" r="2.2" />
  <circle cx="862.7" cy="323.0" r="2.2" />
</g>
<g class="pl" fill="#FFF" stroke="#000" stroke-width="0.900">
  <circle cx="162.3" cy="299.6" r="5.4" />
  <circle cx="273.5" cy="139.9" r="5.4" />
  <circle cx="384.6" cy="90.6" r="5.4" />
  <circle cx="495.8" cy="205.5" r="5.4" />
  <circle cx="607.0" cy="193.5" r="5.4" />
  <circle cx="718.2" cy="222.2" r="5.4" />
  <circle cx="829.4" cy="315.3" r="5.4" />
</g>
<text transform="translate(925.2,323.0)" dy="8.1" font-size="27.00" fill="#000" stroke="none">Total 272.5</text>
<text transform="translate(925.2,300.1)" dy="0.0" font-size="19.80" fill="#000" stroke="none">Mt CO<tspan dy="0.2em"><tspan style="font-size:70%">2</tspan></tspan><tspan dy="-0.2em"> </tspan>in 2023</text>
<g stroke="none" stroke-width="0.9000"  >
  <polygon points="1070.7,316.3 1080.3,329.8 1089.9,316.3 1070.7,316.3" fill="#000"/>
</g>
<text transform="translate(1094.7,325.1)" dy="5.4" font-size="18.00" fill="#000" stroke="none">7.2%</text>
<text transform="translate(145.6,47.2)" dy="0.0" font-size="27.00" fill="#808080" stroke="none">Annual Fossil CO<tspan dy="0.2em"><tspan style="font-size:70%">2</tspan></tspan><tspan dy="-0.2em"> </tspan>Emissions in France</text>
<text transform="translate(130.0,130.1)" dy="8.1" font-size="27.00" fill="#808080" stroke="none" text-anchor="end">CO<tspan dy="0.2em"><tspan style="font-size:70%">2</tspan></tspan><tspan dy="-0.2em"></tspan></text>
<text transform="translate(157.6,60.7)" dy="18.0" font-size="18.00" fill="#808080" stroke="none">Total emissions growth in 2023: -7.2%</text>
<text transform="translate(160.2,666.1)" font-size="19.80" font-family="Helvetica" fill="#BFBFBF" stroke="none" xml:space="preserve">Global Carbon Project</text>
<g>
  <rect x="123.0" y="651.4" width="34" height="17" fill="#FFF" stroke="none"/>
  <g transform="translate(124.0,652.4) scale(0.24)">
  <g><circle fill="#FFF" cx="37.79" cy="28.5" r="28.84"/>
     <circle fill="none" cx="37.79" cy="28.5" r="28.84" stroke="#BFBFBF" stroke-width="5.5"/>
     <path fill="#BFBFBF" d="M37.16,23.19 l-4.29,2.23c-0.458-0.951-1.02-1.62-1.69-2c-0.667-0.38-1.29-0.571-1.86-0.571c-2.86,0-4.29,1.89-4.29,5.66 c0,1.71,0.36,3.08,1.09,4.11c0.724,1.03,1.79,1.54,3.2,1.54c1.87,0,3.18-0.915,3.94-2.74l3.94,2 c-0.838,1.56-2,2.79-3.49,3.69c-1.48,0.896-3.12,1.34-4.91,1.34c-2.86,0-5.16-0.875-6.92-2.63 c-1.75-1.75-2.63-4.19-2.63-7.31c0-3.05,0.886-5.47,2.66-7.26c1.77-1.79,4.01-2.69,6.72-2.69 C32.6,18.56,35.44,20.1,37.16,23.19z
              M55.61,23.19l-4.23,2.23c-0.457-0.951-1.02-1.62-1.69-2 c-0.668-0.38-1.31-0.571-1.91-0.571c-2.86,0-4.29,1.89-4.29,5.66c0,1.71,0.363,3.08,1.09,4.11 c0.723,1.03,1.79,1.54,3.2,1.54c1.87,0,3.18-0.915,3.94-2.74l4,2c-0.875,1.56-2.06,2.79-3.54,3.69 c-1.49,0.9-3.11,1.34-4.86,1.34c-2.9,0-5.21-0.875-6.94-2.63c-1.74-1.75-2.6-4.19-2.6-7.31 c0-3.05,0.885-5.47,2.66-7.26c1.77-1.79,4.01-2.69,6.71-2.69C51.12,18.56,53.944,20.1,55.61,23.19z"/>
  </g></g>
  <g transform="translate(140.2,652.4) scale(0.24)">
  <g><circle fill="#FFF" cx="37.79" cy="28.5" r="28.84"/>
     <circle fill="none" cx="37.79" cy="28.5" r="28.84" stroke="#BFBFBF" stroke-width="5.5"/>
     <path fill="#BFBFBF" d="M46.129,20.557v13.085h-3.656v15.542h-9.944V33.643h-3.656V20.557 c0-0.572,0.2-1.057,0.599-1.457c0.401-0.399,0.887-0.6,1.457-0.6h13.144c0.533,0,1.01,0.2,1.428,0.6 C45.918,19.5,46.129,19.986,46.129,20.557z
              M33.042,12.329c0-3.008,1.485-4.514,4.458-4.514s4.457,1.504,4.457,4.514 c0,2.971-1.486,4.457-4.457,4.457S33.042,15.3,33.042,12.329z"/>
  </g></g>
</g>
</g>
</svg>
