<svg version="1.1" xmlns="http://www.w3.org/2000/svg" xmlns:xlink="http://www.w3.org/1999/xlink" width="100%" height="100%" viewBox="0 0 1200.000 674.916">
<title>Annual Fossil CO2 Emissions in Brazil</title>
<style type="text/css">
  #main {font-family:Helvetica,Arial,sans-serif; font-size:27.00px;
         fill-opacity:1; fill:#000000; stroke:none; stroke-linejoin:round; stroke-linecap:round; stroke-width:1.00;}
  .marker {stroke-opacity:0;fill-opacity:0;}
  .marker:hover {stroke-opacity:0.5; fill-opacity:1;}
  .ticklabel {font-size:27.00px;fill:#808080;stroke:none;font-family:Helvetica}
  .ytl {text-anchor:end;}
  .dp1 {pointer-events:none;font-size:70%;text-anchor:middle;fill:#000000;}
  .dp2 {pointer-events:none;font-size:70%;text-anchor:middle;fill:#FFFFFF;}
  .numtip {pointer-events:none;}
  .cc {opacity:0.25;}
.dl_fe {background-color:#FDFFDF;display:flex;margin:auto;align-items:center}
.dl_fe_p {font-size:20px;text-align:center;margin:3px}
.dl_el {display:none;pointer-events:none;}
.cc:hover + .dl_el {display:block;}
text:hover + .dl_el {display:block;}
</style>
<defs>
  <clipPath id="axis_clip"><rect x="145.8" y="54.2" width="761.2" height="532.8" /></clipPath>
  <path id="line_x" d="M 145.600,0 h 761.600" stroke="#262626" stroke-opacity="0.15" stroke-width="1.00"/>
  <path id="tick_y" d="M 145.600,0 h -6.000" stroke="#808080" stroke-width="0.90"/>
  <path id="tick_x" d="M 0,587.177 v 6.000" stroke="#808080" stroke-width="0.90"/>
</defs>
<g id="main">
<use xlink:href="#line_x" transform="translate(0,587.2)"/>
<use xlink:href="#line_x" transform="translate(0,453.9)"/>
<use xlink:href="#line_x" transform="translate(0,320.6)"/>
<use xlink:href="#line_x" transform="translate(0,187.3)"/>
<use xlink:href="#line_x" transform="translate(0,54.0)"/>
<use xlink:href="#tick_y" transform="translate(0,587.2)"/>
<use xlink:href="#tick_y" transform="translate(0,453.9)"/>
<use xlink:href="#tick_y" transform="translate(0,320.6)"/>
<use xlink:href="#tick_y" transform="translate(0,187.3)"/>
<use xlink:href="#tick_y" transform="translate(0,54.0)"/>
<use xlink:href="#tick_x" transform="translate(162.3,0)"/>
<use xlink:href="#tick_x" transform="translate(273.5,0)"/>
<use xlink:href="#tick_x" transform="translate(384.6,0)"/>
<use xlink:href="#tick_x" transform="translate(495.8,0)"/>
<use xlink:href="#tick_x" transform="translate(607.0,0)"/>
<use xlink:href="#tick_x" transform="translate(718.2,0)"/>
<use xlink:href="#tick_x" transform="translate(862.7,0)"/>
<polyline points="145.6,53.993 145.6,587.177 907.2,587.177" stroke="#808080" stroke-width="0.90" fill="none"/>
<text class="ticklabel xtl" transform="translate(162.3,629.0)" text-anchor="middle">1960</text>
<text class="ticklabel xtl" transform="translate(273.5,629.0)" text-anchor="middle">1970</text>
<text class="ticklabel xtl" transform="translate(384.6,629.0)" text-anchor="middle">1980</text>
<text class="ticklabel xtl" transform="translate(495.8,629.0)" text-anchor="middle">1990</text>
<text class="ticklabel xtl" transform="translate(607.0,629.0)" text-anchor="middle">2000</text>
<text class="ticklabel xtl" transform="translate(718.2,629.0)" text-anchor="middle">2010</text>
<text class="ticklabel xtl" transform="translate(862.7,629.0)" text-anchor="middle">2023</text>
<text class="ticklabel ytl" transform="translate(128.8,595.3)">0</text>
<text class="ticklabel ytl" transform="translate(128.8,462.0)">100</text>
<text class="ticklabel ytl" transform="translate(128.8,328.7)">200</text>
<text class="ticklabel ytl" transform="translate(128.8,195.4)">300</text>
<text class="ticklabel ytl" transform="translate(128.8,62.1)">400 Mt</text>
<polyline class="pl" points="140.0,581.9 151.2,581.7 162.3,580.6 173.4,580.9 184.5,579.6 195.6,580.0 206.8,579.0 217.9,577.9 229.0,576.0 240.1,576.3 251.2,575.8 262.3,574.6 273.5,575.3 284.6,575.2 295.7,574.7 306.8,575.2 317.9,574.5 329.1,572.4 340.2,571.8 351.3,567.1 362.4,563.6 373.5,562.6 384.6,560.5 395.8,560.9 406.9,558.4 418.0,555.3 429.1,548.5 440.2,540.7 451.4,540.4 462.5,533.5 473.6,534.2 484.7,534.0 495.8,537.7 506.9,530.6 518.1,532.3 529.2,530.7 540.3,529.0 551.4,526.4 562.5,525.2 573.7,524.5 584.8,526.4 595.9,524.8 607.0,519.9 618.1,521.3 629.2,522.3 640.4,518.0 651.5,515.4 662.6,519.3 673.7,519.4 684.8,513.9 696.0,513.4 707.1,529.1 718.2,511.6 729.3,504.1 740.4,505.8 751.5,499.7 762.7,495.2 773.8,494.6 784.9,502.1 796.0,497.4 807.1,499.4 818.3,504.7 829.4,512.2 840.5,496.2 851.6,512.4 862.7,514.1" stroke="#7B553E" stroke-width="5.40" stroke-opacity="1.00" fill="none" clip-path="url(#axis_clip)"/>
<g class="pl" fill="#FFF" stroke="#7B553E" stroke-width="0.900">
  <circle cx="151.2" cy="581.7" r="2.2" />
  <circle cx="173.4" cy="580.9" r="2.2" />
  <circle cx="184.5" cy="579.6" r="2.2" />
  <circle cx="195.6" cy="580.0" r="2.2" />
  <circle cx="206.8" cy="579.0" r="2.2" />
  <circle cx="217.9" cy="577.9" r="2.2" />
  <circle cx="229.0" cy="576.0" r="2.2" />
  <circle cx="240.1" cy="576.3" r="2.2" />
  <circle cx="251.2" cy="575.8" r="2.2" />
  <circle cx="262.3" cy="574.6" r="2.2" />
  <circle cx="284.6" cy="575.2" r="2.2" />
  <circle cx="295.7" cy="574.7" r="2.2" />
  <circle cx="306.8" cy="575.2" r="2.2" />
  <circle cx="317.9" cy="574.5" r="2.2" />
  <circle cx="329.1" cy="572.4" r="2.2" />
  <circle cx="340.2" cy="571.8" r="2.2" />
  <circle cx="351.3" cy="567.1" r="2.2" />
  <circle cx="362.4" cy="563.6" r="2.2" />
  <circle cx="373.5" cy="562.6" r="2.2" />
  <circle cx="395.8" cy="560.9" r="2.2" />
  <circle cx="406.9" cy="558.4" r="2.2" />
  <circle cx="418.0" cy="555.3" r="2.2" />
  <circle cx="429.1" cy="548.5" r="2.2" />
  <circle cx="440.2" cy="540.7" r="2.2" />
  <circle cx="451.4" cy="540.4" r="2.2" />
  <circle cx="462.5" cy="533.5" r="2.2" />
  <circle cx="473.6" cy="534.2" r="2.2" />
  <circle cx="484.7" cy="534.0" r="2.2" />
  <circle cx="506.9" cy="530.6" r="2.2" />
  <circle cx="518.1" cy="532.3" r="2.2" />
  <circle cx="529.2" cy="530.7" r="2.2" />
  <circle cx="540.3" cy="529.0" r="2.2" />
  <circle cx="551.4" cy="526.4" r="2.2" />
  <circle cx="562.5" cy="525.2" r="2.2" />
  <circle cx="573.7" cy="524.5" r="2.2" />
  <circle cx="584.8" cy="526.4" r="2.2" />
  <circle cx="595.9" cy="524.8" r="2.2" />
  <circle cx="618.1" cy="521.3" r="2.2" />
  <circle cx="629.2" cy="522.3" r="2.2" />
  <circle cx="640.4" cy="518.0" r="2.2" />
  <circle cx="651.5" cy="515.4" r="2.2" />
  <circle cx="662.6" cy="519.3" r="2.2" />
  <circle cx="673.7" cy="519.4" r="2.2" />
  <circle cx="684.8" cy="513.9" r="2.2" />
  <circle cx="696.0" cy="513.4" r="2.2" />
  <circle cx="707.1" cy="529.1" r="2.2" />
  <circle cx="729.3" cy="504.1" r="2.2" />
  <circle cx="740.4" cy="505.8" r="2.2" />
  <circle cx="751.5" cy="499.7" r="2.2" />
  <circle cx="762.7" cy="495.2" r="2.2" />
  <circle cx="773.8" cy="494.6" r="2.2" />
  <circle cx="784.9" cy="502.1" r="2.2" />
  <circle cx="796.0" cy="497.4" r="2.2" />
  <circle cx="807.1" cy="499.4" r="2.2" />
  <circle cx="818.3" cy="504.7" r="2.2" />
  <circle cx="840.5" cy="496.2" r="2.2" />
  <circle cx="851.6" cy="512.4" r="2.2" />
  <circle cx="862.7" cy="514.1" r="2.2" />
</g>
<g class="pl" fill="#FFF" stroke="#7B553E" stroke-width="0.900">
  <circle cx="162.3" cy="580.6" r="5.4" />
  <circle cx="273.5" cy="575.3" r="5.4" />
  <circle cx="384.6" cy="560.5" r="5.4" />
  <circle cx="495.8" cy="537.7" r="5.4" />
  <circle cx="607.0" cy="519.9" r="5.4" />
  <circle cx="718.2" cy="511.6" r="5.4" />
  <circle cx="829.4" cy="512.2" r="5.4" />
</g>
<polyline class="pl" points="140.0,543.4 151.2,543.9 162.3,535.2 173.4,531.9 184.5,527.4 195.6,524.6 206.8,524.5 217.9,526.2 229.0,518.1 240.1,515.6 251.2,501.9 262.3,494.6 273.5,482.9 284.6,471.1 295.7,456.9 306.8,433.4 317.9,420.8 329.1,414.3 340.2,410.9 351.3,406.8 362.4,393.3 373.5,381.2 384.6,387.0 395.8,406.5 406.9,409.6 418.0,419.6 429.1,424.5 440.2,417.2 451.4,397.4 462.5,393.2 473.6,390.4 484.7,385.1 495.8,384.9 506.9,378.3 518.1,369.6 529.2,358.9 540.3,348.4 551.4,333.5 562.5,312.2 573.7,294.1 584.8,281.2 595.9,273.3 607.0,267.9 618.1,264.9 629.2,268.3 640.4,277.4 651.5,267.6 662.6,267.0 673.7,264.3 684.8,245.9 696.0,231.0 707.1,237.0 718.2,205.8 729.3,182.1 740.4,150.3 751.5,130.9 762.7,111.6 773.8,146.8 784.9,170.0 796.0,165.8 807.1,186.3 818.3,188.0 829.4,210.4 840.5,180.1 851.6,160.7 862.7,152.1" stroke="#404040" stroke-width="5.40" stroke-opacity="1.00" fill="none" clip-path="url(#axis_clip)"/>
<g class="pl" fill="#FFF" stroke="#404040" stroke-width="0.900">
  <circle cx="151.2" cy="543.9" r="2.2" />
  <circle cx="173.4" cy="531.9" r="2.2" />
  <circle cx="184.5" cy="527.4" r="2.2" />
  <circle cx="195.6" cy="524.6" r="2.2" />
  <circle cx="206.8" cy="524.5" r="2.2" />
  <circle cx="217.9" cy="526.2" r="2.2" />
  <circle cx="229.0" cy="518.1" r="2.2" />
  <circle cx="240.1" cy="515.6" r="2.2" />
  <circle cx="251.2" cy="501.9" r="2.2" />
  <circle cx="262.3" cy="494.6" r="2.2" />
  <circle cx="284.6" cy="471.1" r="2.2" />
  <circle cx="295.7" cy="456.9" r="2.2" />
  <circle cx="306.8" cy="433.4" r="2.2" />
  <circle cx="317.9" cy="420.8" r="2.2" />
  <circle cx="329.1" cy="414.3" r="2.2" />
  <circle cx="340.2" cy="410.9" r="2.2" />
  <circle cx="351.3" cy="406.8" r="2.2" />
  <circle cx="362.4" cy="393.3" r="2.2" />
  <circle cx="373.5" cy="381.2" r="2.2" />
  <circle cx="395.8" cy="406.5" r="2.2" />
  <circle cx="406.9" cy="409.6" r="2.2" />
  <circle cx="418.0" cy="419.6" r="2.2" />
  <circle cx="429.1" cy="424.5" r="2.2" />
  <circle cx="440.2" cy="417.2" r="2.2" />
  <circle cx="451.4" cy="397.4" r="2.2" />
  <circle cx="462.5" cy="393.2" r="2.2" />
  <circle cx="473.6" cy="390.4" r="2.2" />
  <circle cx="484.7" cy="385.1" r="2.2" />
  <circle cx="506.9" cy="378.3" r="2.2" />
  <circle cx="518.1" cy="369.6" r="2.2" />
  <circle cx="529.2" cy="358.9" r="2.2" />
  <circle cx="540.3" cy="348.4" r="2.2" />
  <circle cx="551.4" cy="333.5" r="2.2" />
  <circle cx="562.5" cy="312.2" r="2.2" />
  <circle cx="573.7" cy="294.1" r="2.2" />
  <circle cx="584.8" cy="281.2" r="2.2" />
  <circle cx="595.9" cy="273.3" r="2.2" />
  <circle cx="618.1" cy="264.9" r="2.2" />
  <circle cx="629.2" cy="268.3" r="2.2" />
  <circle cx="640.4" cy="277.4" r="2.2" />
  <circle cx="651.5" cy="267.6" r="2.2" />
  <circle cx="662.6" cy="267.0" r="2.2" />
  <circle cx="673.7" cy="264.3" r="2.2" />
  <circle cx="684.8" cy="245.9" r="2.2" />
  <circle cx="696.0" cy="231.0" r="2.2" />
  <circle cx="707.1" cy="237.0" r="2.2" />
  <circle cx="729.3" cy="182.1" r="2.2" />
  <circle cx="740.4" cy="150.3" r="2.2" />
  <circle cx="751.5" cy="130.9" r="2.2" />
  <circle cx="762.7" cy="111.6" r="2.2" />
  <circle cx="773.8" cy="146.8" r="2.2" />
  <circle cx="784.9" cy="170.0" r="2.2" />
  <circle cx="796.0" cy="165.8" r="2.2" />
  <circle cx="807.1" cy="186.3" r="2.2" />
  <circle cx="818.3" cy="188.0" r="2.2" />
  <circle cx="840.5" cy="180.1" r="2.2" />
  <circle cx="851.6" cy="160.7" r="2.2" />
  <circle cx="862.7" cy="152.1" r="2.2" />
</g>
<g class="pl" fill="#FFF" stroke="#404040" stroke-width="0.900">
  <circle cx="162.3" cy="535.2" r="5.4" />
  <circle cx="273.5" cy="482.9" r="5.4" />
  <circle cx="384.6" cy="387.0" r="5.4" />
  <circle cx="495.8" cy="384.9" r="5.4" />
  <circle cx="607.0" cy="267.9" r="5.4" />
  <circle cx="718.2" cy="205.8" r="5.4" />
  <circle cx="829.4" cy="210.4" r="5.4" />
</g>
<polyline class="pl" points="140.0,587.1 151.2,587.1 162.3,587.0 173.4,587.0 184.5,587.0 195.6,587.0 206.8,587.0 217.9,586.9 229.0,586.8 240.1,586.8 251.2,586.9 262.3,586.9 273.5,587.0 284.6,586.8 295.7,586.8 306.8,586.7 317.9,586.3 329.1,586.1 340.2,586.0 351.3,585.7 362.4,585.2 373.5,585.0 384.6,584.7 395.8,584.9 406.9,584.0 418.0,582.7 429.1,581.6 440.2,580.5 451.4,579.2 462.5,578.3 473.6,578.1 484.7,577.4 495.8,577.2 506.9,577.4 518.1,576.5 529.2,575.5 540.3,575.2 551.4,574.4 562.5,573.0 573.7,571.4 584.8,570.6 595.9,568.4 607.0,562.6 618.1,556.3 629.2,548.1 640.4,546.0 651.5,536.2 662.6,534.4 673.7,531.1 684.8,529.5 696.0,518.8 707.1,532.6 718.2,513.8 729.3,516.4 740.4,502.7 751.5,487.6 762.7,478.8 773.8,479.9 784.9,494.3 796.0,493.0 807.1,497.3 818.3,497.7 829.4,508.5 840.5,485.9 851.6,507.1 862.7,512.1" stroke="#6298C6" stroke-width="5.40" stroke-opacity="1.00" fill="none" clip-path="url(#axis_clip)"/>
<g class="pl" fill="#FFF" stroke="#6298C6" stroke-width="0.900">
  <circle cx="151.2" cy="587.1" r="2.2" />
  <circle cx="173.4" cy="587.0" r="2.2" />
  <circle cx="184.5" cy="587.0" r="2.2" />
  <circle cx="195.6" cy="587.0" r="2.2" />
  <circle cx="206.8" cy="587.0" r="2.2" />
  <circle cx="217.9" cy="586.9" r="2.2" />
  <circle cx="229.0" cy="586.8" r="2.2" />
  <circle cx="240.1" cy="586.8" r="2.2" />
  <circle cx="251.2" cy="586.9" r="2.2" />
  <circle cx="262.3" cy="586.9" r="2.2" />
  <circle cx="284.6" cy="586.8" r="2.2" />
  <circle cx="295.7" cy="586.8" r="2.2" />
  <circle cx="306.8" cy="586.7" r="2.2" />
  <circle cx="317.9" cy="586.3" r="2.2" />
  <circle cx="329.1" cy="586.1" r="2.2" />
  <circle cx="340.2" cy="586.0" r="2.2" />
  <circle cx="351.3" cy="585.7" r="2.2" />
  <circle cx="362.4" cy="585.2" r="2.2" />
  <circle cx="373.5" cy="585.0" r="2.2" />
  <circle cx="395.8" cy="584.9" r="2.2" />
  <circle cx="406.9" cy="584.0" r="2.2" />
  <circle cx="418.0" cy="582.7" r="2.2" />
  <circle cx="429.1" cy="581.6" r="2.2" />
  <circle cx="440.2" cy="580.5" r="2.2" />
  <circle cx="451.4" cy="579.2" r="2.2" />
  <circle cx="462.5" cy="578.3" r="2.2" />
  <circle cx="473.6" cy="578.1" r="2.2" />
  <circle cx="484.7" cy="577.4" r="2.2" />
  <circle cx="506.9" cy="577.4" r="2.2" />
  <circle cx="518.1" cy="576.5" r="2.2" />
  <circle cx="529.2" cy="575.5" r="2.2" />
  <circle cx="540.3" cy="575.2" r="2.2" />
  <circle cx="551.4" cy="574.4" r="2.2" />
  <circle cx="562.5" cy="573.0" r="2.2" />
  <circle cx="573.7" cy="571.4" r="2.2" />
  <circle cx="584.8" cy="570.6" r="2.2" />
  <circle cx="595.9" cy="568.4" r="2.2" />
  <circle cx="618.1" cy="556.3" r="2.2" />
  <circle cx="629.2" cy="548.1" r="2.2" />
  <circle cx="640.4" cy="546.0" r="2.2" />
  <circle cx="651.5" cy="536.2" r="2.2" />
  <circle cx="662.6" cy="534.4" r="2.2" />
  <circle cx="673.7" cy="531.1" r="2.2" />
  <circle cx="684.8" cy="529.5" r="2.2" />
  <circle cx="696.0" cy="518.8" r="2.2" />
  <circle cx="707.1" cy="532.6" r="2.2" />
  <circle cx="729.3" cy="516.4" r="2.2" />
  <circle cx="740.4" cy="502.7" r="2.2" />
  <circle cx="751.5" cy="487.6" r="2.2" />
  <circle cx="762.7" cy="478.8" r="2.2" />
  <circle cx="773.8" cy="479.9" r="2.2" />
  <circle cx="784.9" cy="494.3" r="2.2" />
  <circle cx="796.0" cy="493.0" r="2.2" />
  <circle cx="807.1" cy="497.3" r="2.2" />
  <circle cx="818.3" cy="497.7" r="2.2" />
  <circle cx="840.5" cy="485.9" r="2.2" />
  <circle cx="851.6" cy="507.1" r="2.2" />
  <circle cx="862.7" cy="512.1" r="2.2" />
</g>
<g class="pl" fill="#FFF" stroke="#6298C6" stroke-width="0.900">
  <circle cx="162.3" cy="587.0" r="5.4" />
  <circle cx="273.5" cy="587.0" r="5.4" />
  <circle cx="384.6" cy="584.7" r="5.4" />
  <circle cx="495.8" cy="577.2" r="5.4" />
  <circle cx="607.0" cy="562.6" r="5.4" />
  <circle cx="718.2" cy="513.8" r="5.4" />
  <circle cx="829.4" cy="508.5" r="5.4" />
</g>
<polyline class="pl" points="140.0,584.7 151.2,584.6 162.3,584.2 173.4,584.1 184.5,583.9 195.6,583.8 206.8,583.5 217.9,583.5 229.0,583.3 240.1,583.1 251.2,582.5 262.3,582.2 273.5,581.5 284.6,581.0 295.7,579.9 306.8,578.7 317.9,577.7 329.1,576.5 340.2,575.0 351.3,573.8 362.4,571.9 373.5,571.2 384.6,570.1 395.8,570.3 406.9,570.9 418.0,574.1 429.1,575.5 440.2,574.8 451.4,572.4 462.5,572.1 473.6,572.3 484.7,572.3 495.8,572.4 506.9,571.5 518.1,574.2 529.2,573.6 540.3,573.7 551.4,571.8 562.5,568.7 573.7,566.8 584.8,565.6 595.9,565.3 607.0,565.8 618.1,566.9 629.2,568.0 640.4,569.7 651.5,569.5 662.6,568.0 673.7,566.6 684.8,564.2 696.0,562.0 707.1,561.8 718.2,558.8 729.3,556.7 740.4,553.9 751.5,551.7 762.7,551.3 773.8,553.7 784.9,557.3 796.0,560.2 807.1,559.9 818.3,559.1 829.4,556.0 840.5,554.5 851.6,555.4 862.7,553.9" stroke="#666" stroke-width="5.40" stroke-opacity="1.00" fill="none" clip-path="url(#axis_clip)"/>
<g class="pl" fill="#FFF" stroke="#666" stroke-width="0.900">
  <circle cx="151.2" cy="584.6" r="2.2" />
  <circle cx="173.4" cy="584.1" r="2.2" />
  <circle cx="184.5" cy="583.9" r="2.2" />
  <circle cx="195.6" cy="583.8" r="2.2" />
  <circle cx="206.8" cy="583.5" r="2.2" />
  <circle cx="217.9" cy="583.5" r="2.2" />
  <circle cx="229.0" cy="583.3" r="2.2" />
  <circle cx="240.1" cy="583.1" r="2.2" />
  <circle cx="251.2" cy="582.5" r="2.2" />
  <circle cx="262.3" cy="582.2" r="2.2" />
  <circle cx="284.6" cy="581.0" r="2.2" />
  <circle cx="295.7" cy="579.9" r="2.2" />
  <circle cx="306.8" cy="578.7" r="2.2" />
  <circle cx="317.9" cy="577.7" r="2.2" />
  <circle cx="329.1" cy="576.5" r="2.2" />
  <circle cx="340.2" cy="575.0" r="2.2" />
  <circle cx="351.3" cy="573.8" r="2.2" />
  <circle cx="362.4" cy="571.9" r="2.2" />
  <circle cx="373.5" cy="571.2" r="2.2" />
  <circle cx="395.8" cy="570.3" r="2.2" />
  <circle cx="406.9" cy="570.9" r="2.2" />
  <circle cx="418.0" cy="574.1" r="2.2" />
  <circle cx="429.1" cy="575.5" r="2.2" />
  <circle cx="440.2" cy="574.8" r="2.2" />
  <circle cx="451.4" cy="572.4" r="2.2" />
  <circle cx="462.5" cy="572.1" r="2.2" />
  <circle cx="473.6" cy="572.3" r="2.2" />
  <circle cx="484.7" cy="572.3" r="2.2" />
  <circle cx="506.9" cy="571.5" r="2.2" />
  <circle cx="518.1" cy="574.2" r="2.2" />
  <circle cx="529.2" cy="573.6" r="2.2" />
  <circle cx="540.3" cy="573.7" r="2.2" />
  <circle cx="551.4" cy="571.8" r="2.2" />
  <circle cx="562.5" cy="568.7" r="2.2" />
  <circle cx="573.7" cy="566.8" r="2.2" />
  <circle cx="584.8" cy="565.6" r="2.2" />
  <circle cx="595.9" cy="565.3" r="2.2" />
  <circle cx="618.1" cy="566.9" r="2.2" />
  <circle cx="629.2" cy="568.0" r="2.2" />
  <circle cx="640.4" cy="569.7" r="2.2" />
  <circle cx="651.5" cy="569.5" r="2.2" />
  <circle cx="662.6" cy="568.0" r="2.2" />
  <circle cx="673.7" cy="566.6" r="2.2" />
  <circle cx="684.8" cy="564.2" r="2.2" />
  <circle cx="696.0" cy="562.0" r="2.2" />
  <circle cx="707.1" cy="561.8" r="2.2" />
  <circle cx="729.3" cy="556.7" r="2.2" />
  <circle cx="740.4" cy="553.9" r="2.2" />
  <circle cx="751.5" cy="551.7" r="2.2" />
  <circle cx="762.7" cy="551.3" r="2.2" />
  <circle cx="773.8" cy="553.7" r="2.2" />
  <circle cx="784.9" cy="557.3" r="2.2" />
  <circle cx="796.0" cy="560.2" r="2.2" />
  <circle cx="807.1" cy="559.9" r="2.2" />
  <circle cx="818.3" cy="559.1" r="2.2" />
  <circle cx="840.5" cy="554.5" r="2.2" />
  <circle cx="851.6" cy="555.4" r="2.2" />
  <circle cx="862.7" cy="553.9" r="2.2" />
</g>
<g class="pl" fill="#FFF" stroke="#666" stroke-width="0.900">
  <circle cx="162.3" cy="584.2" r="5.4" />
  <circle cx="273.5" cy="581.5" r="5.4" />
  <circle cx="384.6" cy="570.1" r="5.4" />
  <circle cx="495.8" cy="572.4" r="5.4" />
  <circle cx="607.0" cy="565.8" r="5.4" />
  <circle cx="718.2" cy="558.8" r="5.4" />
  <circle cx="829.4" cy="556.0" r="5.4" />
</g>
<text transform="translate(925.2,526.0)" dy="8.1" font-size="27.00" fill="#7B553E" stroke="none">Coal 54.8</text>
<text transform="translate(925.2,152.1)" dy="8.1" font-size="27.00" fill="#404040" stroke="none">Oil 326.4</text>
<text transform="translate(925.2,500.1)" dy="8.1" font-size="27.00" fill="#6298C6" stroke="none">Gas 56.3</text>
<text transform="translate(925.2,553.9)" dy="8.1" font-size="27.00" fill="#666" stroke="none">Cement 25.0</text>
<text transform="translate(925.2,129.1)" dy="0.0" font-size="19.80" fill="#404040" stroke="none">Mt CO<tspan dy="0.2em"><tspan style="font-size:70%">2</tspan></tspan><tspan dy="-0.2em"> </tspan>in 2023</text>
<g stroke="none" stroke-width="0.9000"  >
  <polygon points="1050.2,519.3 1059.8,532.8 1069.4,519.3 1050.2,519.3" fill="#7B553E"/>
</g>
<text transform="translate(1074.2,528.1)" dy="5.4" font-size="18.00" fill="#7B553E" stroke="none">2.2%</text>
<g stroke="none" stroke-width="0.9000"  >
  <polygon points="1043.8,158.8 1053.4,145.3 1063.0,158.8 1043.8,158.8" fill="#404040"/>
</g>
<text transform="translate(1067.8,154.1)" dy="5.4" font-size="18.00" fill="#404040" stroke="none">2.0%</text>
<g stroke="none" stroke-width="0.9000"  >
  <polygon points="1044.8,493.4 1054.4,506.9 1064.0,493.4 1044.8,493.4" fill="#6298C6"/>
</g>
<text transform="translate(1068.8,502.2)" dy="5.4" font-size="18.00" fill="#6298C6" stroke="none">6.3%</text>
<g stroke="none" stroke-width="0.9000"  >
  <polygon points="1090.1,560.7 1099.7,547.2 1109.3,560.7 1090.1,560.7" fill="#666"/>
</g>
<text transform="translate(1114.1,555.9)" dy="5.4" font-size="18.00" fill="#666" stroke="none">4.7%</text>
<text transform="translate(145.6,47.2)" dy="0.0" font-size="27.00" fill="#808080" stroke="none">Annual Fossil CO<tspan dy="0.2em"><tspan style="font-size:70%">2</tspan></tspan><tspan dy="-0.2em"> </tspan>Emissions in Brazil</text>
<text transform="translate(130.0,81.6)" dy="8.1" font-size="27.00" fill="#808080" stroke="none" text-anchor="end">CO<tspan dy="0.2em"><tspan style="font-size:70%">2</tspan></tspan><tspan dy="-0.2em"></tspan></text>
<text transform="translate(157.6,60.7)" dy="18.0" font-size="18.00" fill="#808080" stroke="none">Total emissions growth in 2023: +0.5%</text>
<text transform="translate(160.2,666.1)" font-size="19.80" font-family="Helvetica" fill="#BFBFBF" stroke="none" xml:space="preserve">Global Carbon Project</text>
<g>
  <rect x="123.0" y="651.4" width="34" height="17" fill="#FFF" stroke="none"/>
  <g transform="translate(124.0,652.4) scale(0.24)">
  <g><circle fill="#FFF" cx="37.79" cy="28.5" r="28.84"/>
     <circle fill="none" cx="37.79" cy="28.5" r="28.84" stroke="#BFBFBF" stroke-width="5.5"/>
     <path fill="#BFBFBF" d="M37.16,23.19 l-4.29,2.23c-0.458-0.951-1.02-1.62-1.69-2c-0.667-0.38-1.29-0.571-1.86-0.571c-2.86,0-4.29,1.89-4.29,5.66 c0,1.71,0.36,3.08,1.09,4.11c0.724,1.03,1.79,1.54,3.2,1.54c1.87,0,3.18-0.915,3.94-2.74l3.94,2 c-0.838,1.56-2,2.79-3.49,3.69c-1.48,0.896-3.12,1.34-4.91,1.34c-2.86,0-5.16-0.875-6.92-2.63 c-1.75-1.75-2.63-4.19-2.63-7.31c0-3.05,0.886-5.47,2.66-7.26c1.77-1.79,4.01-2.69,6.72-2.69 C32.6,18.56,35.44,20.1,37.16,23.19z
              M55.61,23.19l-4.23,2.23c-0.457-0.951-1.02-1.62-1.69-2 c-0.668-0.38-1.31-0.571-1.91-0.571c-2.86,0-4.29,1.89-4.29,5.66c0,1.71,0.363,3.08,1.09,4.11 c0.723,1.03,1.79,1.54,3.2,1.54c1.87,0,3.18-0.915,3.94-2.74l4,2c-0.875,1.56-2.06,2.79-3.54,3.69 c-1.49,0.9-3.11,1.34-4.86,1.34c-2.9,0-5.21-0.875-6.94-2.63c-1.74-1.75-2.6-4.19-2.6-7.31 c0-3.05,0.885-5.47,2.66-7.26c1.77-1.79,4.01-2.69,6.71-2.69C51.12,18.56,53.944,20.1,55.61,23.19z"/>
  </g></g>
  <g transform="translate(140.2,652.4) scale(0.24)">
  <g><circle fill="#FFF" cx="37.79" cy="28.5" r="28.84"/>
     <circle fill="none" cx="37.79" cy="28.5" r="28.84" stroke="#BFBFBF" stroke-width="5.5"/>
     <path fill="#BFBFBF" d="M46.129,20.557v13.085h-3.656v15.542h-9.944V33.643h-3.656V20.557 c0-0.572,0.2-1.057,0.599-1.457c0.401-0.399,0.887-0.6,1.457-0.6h13.144c0.533,0,1.01,0.2,1.428,0.6 C45.918,19.5,46.129,19.986,46.129,20.557z
              M33.042,12.329c0-3.008,1.485-4.514,4.458-4.514s4.457,1.504,4.457,4.514 c0,2.971-1.486,4.457-4.457,4.457S33.042,15.3,33.042,12.329z"/>
  </g></g>
</g>
</g>
</svg>
