<svg version="1.1" xmlns="http://www.w3.org/2000/svg" xmlns:xlink="http://www.w3.org/1999/xlink" width="100%" height="100%" viewBox="0 0 1200.000 674.916">
<title>Annual Fossil CO2 Emissions in South Korea</title>
<style type="text/css">
  #main {font-family:Helvetica,Arial,sans-serif; font-size:27.00px;
         fill-opacity:1; fill:#000000; stroke:none; stroke-linejoin:round; stroke-linecap:round; stroke-width:1.00;}
  .marker {stroke-opacity:0;fill-opacity:0;}
  .marker:hover {stroke-opacity:0.5; fill-opacity:1;}
  .ticklabel {font-size:27.00px;fill:#808080;stroke:none;font-family:Helvetica}
  .ytl {text-anchor:end;}
  .dp1 {pointer-events:none;font-size:70%;text-anchor:middle;fill:#000000;}
  .dp2 {pointer-events:none;font-size:70%;text-anchor:middle;fill:#FFFFFF;}
  .numtip {pointer-events:none;}
  .cc {opacity:0.25;}
.dl_fe {background-color:#FDFFDF;display:flex;margin:auto;align-items:center}
.dl_fe_p {font-size:20px;text-align:center;margin:3px}
.dl_el {display:none;pointer-events:none;}
.cc:hover + .dl_el {display:block;}
text:hover + .dl_el {display:block;}
</style>
<defs>
  <clipPath id="axis_clip"><rect x="145.8" y="54.2" width="761.2" height="532.8" /></clipPath>
  <path id="line_x" d="M 145.600,0 h 761.600" stroke="#262626" stroke-opacity="0.15" stroke-width="1.00"/>
  <path id="tick_y" d="M 145.600,0 h -6.000" stroke="#808080" stroke-width="0.90"/>
  <path id="tick_x" d="M 0,587.177 v 6.000" stroke="#808080" stroke-width="0.90"/>
</defs>
<g id="main">
<use xlink:href="#line_x" transform="translate(0,587.2)"/>
<use xlink:href="#line_x" transform="translate(0,434.8)"/>
<use xlink:href="#line_x" transform="translate(0,282.5)"/>
<use xlink:href="#line_x" transform="translate(0,130.2)"/>
<use xlink:href="#tick_y" transform="translate(0,587.2)"/>
<use xlink:href="#tick_y" transform="translate(0,434.8)"/>
<use xlink:href="#tick_y" transform="translate(0,282.5)"/>
<use xlink:href="#tick_y" transform="translate(0,130.2)"/>
<use xlink:href="#tick_x" transform="translate(162.3,0)"/>
<use xlink:href="#tick_x" transform="translate(273.5,0)"/>
<use xlink:href="#tick_x" transform="translate(384.6,0)"/>
<use xlink:href="#tick_x" transform="translate(495.8,0)"/>
<use xlink:href="#tick_x" transform="translate(607.0,0)"/>
<use xlink:href="#tick_x" transform="translate(718.2,0)"/>
<use xlink:href="#tick_x" transform="translate(862.7,0)"/>
<polyline points="145.6,53.993 145.6,587.177 907.2,587.177" stroke="#808080" stroke-width="0.90" fill="none"/>
<text class="ticklabel xtl" transform="translate(162.3,629.0)" text-anchor="middle">1960</text>
<text class="ticklabel xtl" transform="translate(273.5,629.0)" text-anchor="middle">1970</text>
<text class="ticklabel xtl" transform="translate(384.6,629.0)" text-anchor="middle">1980</text>
<text class="ticklabel xtl" transform="translate(495.8,629.0)" text-anchor="middle">1990</text>
<text class="ticklabel xtl" transform="translate(607.0,629.0)" text-anchor="middle">2000</text>
<text class="ticklabel xtl" transform="translate(718.2,629.0)" text-anchor="middle">2010</text>
<text class="ticklabel xtl" transform="translate(862.7,629.0)" text-anchor="middle">2023</text>
<text class="ticklabel ytl" transform="translate(128.8,595.3)">0</text>
<text class="ticklabel ytl" transform="translate(128.8,442.9)">100</text>
<text class="ticklabel ytl" transform="translate(128.8,290.6)">200</text>
<text class="ticklabel ytl" transform="translate(128.8,138.3)">300 Mt</text>
<polyline class="pl" points="140.0,576.2 151.2,573.6 162.3,571.6 173.4,569.0 184.5,566.0 195.6,561.6 206.8,559.3 217.9,557.3 229.0,552.9 240.1,551.5 251.2,556.6 262.3,556.7 273.5,551.7 284.6,551.3 295.7,549.8 306.8,543.4 317.9,542.2 329.1,540.4 340.2,535.7 351.3,530.7 362.4,531.8 373.5,517.1 384.6,511.9 395.8,495.9 406.9,494.9 418.0,488.8 429.1,468.9 440.2,453.4 451.4,448.3 462.5,446.6 473.6,436.5 484.7,440.9 495.8,443.5 506.9,443.8 518.1,448.1 529.2,435.4 540.3,432.1 551.4,426.8 562.5,400.3 573.7,384.1 584.8,377.6 595.9,365.3 607.0,337.5 618.1,321.2 629.2,301.3 640.4,289.6 651.5,277.7 662.6,268.3 673.7,257.5 684.8,239.2 696.0,201.7 707.1,187.4 718.2,137.7 729.3,99.4 740.4,104.3 751.5,98.7 762.7,82.5 773.8,76.2 784.9,98.6 796.0,72.8 807.1,68.7 818.3,97.2 829.4,156.2 840.5,154.7 851.6,178.8 862.7,203.5" stroke="#7B553E" stroke-width="5.40" stroke-opacity="1.00" fill="none" clip-path="url(#axis_clip)"/>
<g class="pl" fill="#FFF" stroke="#7B553E" stroke-width="0.900">
  <circle cx="151.2" cy="573.6" r="2.2" />
  <circle cx="173.4" cy="569.0" r="2.2" />
  <circle cx="184.5" cy="566.0" r="2.2" />
  <circle cx="195.6" cy="561.6" r="2.2" />
  <circle cx="206.8" cy="559.3" r="2.2" />
  <circle cx="217.9" cy="557.3" r="2.2" />
  <circle cx="229.0" cy="552.9" r="2.2" />
  <circle cx="240.1" cy="551.5" r="2.2" />
  <circle cx="251.2" cy="556.6" r="2.2" />
  <circle cx="262.3" cy="556.7" r="2.2" />
  <circle cx="284.6" cy="551.3" r="2.2" />
  <circle cx="295.7" cy="549.8" r="2.2" />
  <circle cx="306.8" cy="543.4" r="2.2" />
  <circle cx="317.9" cy="542.2" r="2.2" />
  <circle cx="329.1" cy="540.4" r="2.2" />
  <circle cx="340.2" cy="535.7" r="2.2" />
  <circle cx="351.3" cy="530.7" r="2.2" />
  <circle cx="362.4" cy="531.8" r="2.2" />
  <circle cx="373.5" cy="517.1" r="2.2" />
  <circle cx="395.8" cy="495.9" r="2.2" />
  <circle cx="406.9" cy="494.9" r="2.2" />
  <circle cx="418.0" cy="488.8" r="2.2" />
  <circle cx="429.1" cy="468.9" r="2.2" />
  <circle cx="440.2" cy="453.4" r="2.2" />
  <circle cx="451.4" cy="448.3" r="2.2" />
  <circle cx="462.5" cy="446.6" r="2.2" />
  <circle cx="473.6" cy="436.5" r="2.2" />
  <circle cx="484.7" cy="440.9" r="2.2" />
  <circle cx="506.9" cy="443.8" r="2.2" />
  <circle cx="518.1" cy="448.1" r="2.2" />
  <circle cx="529.2" cy="435.4" r="2.2" />
  <circle cx="540.3" cy="432.1" r="2.2" />
  <circle cx="551.4" cy="426.8" r="2.2" />
  <circle cx="562.5" cy="400.3" r="2.2" />
  <circle cx="573.7" cy="384.1" r="2.2" />
  <circle cx="584.8" cy="377.6" r="2.2" />
  <circle cx="595.9" cy="365.3" r="2.2" />
  <circle cx="618.1" cy="321.2" r="2.2" />
  <circle cx="629.2" cy="301.3" r="2.2" />
  <circle cx="640.4" cy="289.6" r="2.2" />
  <circle cx="651.5" cy="277.7" r="2.2" />
  <circle cx="662.6" cy="268.3" r="2.2" />
  <circle cx="673.7" cy="257.5" r="2.2" />
  <circle cx="684.8" cy="239.2" r="2.2" />
  <circle cx="696.0" cy="201.7" r="2.2" />
  <circle cx="707.1" cy="187.4" r="2.2" />
  <circle cx="729.3" cy="99.4" r="2.2" />
  <circle cx="740.4" cy="104.3" r="2.2" />
  <circle cx="751.5" cy="98.7" r="2.2" />
  <circle cx="762.7" cy="82.5" r="2.2" />
  <circle cx="773.8" cy="76.2" r="2.2" />
  <circle cx="784.9" cy="98.6" r="2.2" />
  <circle cx="796.0" cy="72.8" r="2.2" />
  <circle cx="807.1" cy="68.7" r="2.2" />
  <circle cx="818.3" cy="97.2" r="2.2" />
  <circle cx="840.5" cy="154.7" r="2.2" />
  <circle cx="851.6" cy="178.8" r="2.2" />
  <circle cx="862.7" cy="203.5" r="2.2" />
</g>
<g class="pl" fill="#FFF" stroke="#7B553E" stroke-width="0.900">
  <circle cx="162.3" cy="571.6" r="5.4" />
  <circle cx="273.5" cy="551.7" r="5.4" />
  <circle cx="384.6" cy="511.9" r="5.4" />
  <circle cx="495.8" cy="443.5" r="5.4" />
  <circle cx="607.0" cy="337.5" r="5.4" />
  <circle cx="718.2" cy="137.7" r="5.4" />
  <circle cx="829.4" cy="156.2" r="5.4" />
</g>
<polyline class="pl" points="140.0,584.6 151.2,583.9 162.3,584.0 173.4,583.7 184.5,582.7 195.6,581.2 206.8,582.2 217.9,580.2 229.0,577.2 240.1,571.2 251.2,563.7 262.3,556.6 273.5,545.2 284.6,539.0 295.7,537.6 306.8,525.9 317.9,523.7 329.1,517.0 340.2,505.7 351.3,493.5 362.4,481.4 373.5,466.9 384.6,469.0 395.8,477.3 406.9,478.1 418.0,473.9 429.1,475.5 440.2,478.8 451.4,474.7 462.5,470.8 473.6,446.3 484.7,423.5 495.8,387.7 506.9,356.1 518.1,322.2 529.2,298.6 540.3,272.5 551.4,242.8 562.5,222.4 573.7,212.3 584.8,307.5 595.9,281.5 607.0,273.0 618.1,273.2 629.2,271.7 640.4,274.3 651.5,288.2 662.6,290.0 673.7,297.7 684.8,301.9 696.0,326.5 707.1,324.1 718.2,318.8 729.3,326.0 740.4,327.0 751.5,330.4 762.7,341.1 773.8,327.3 784.9,306.8 796.0,313.9 807.1,316.6 818.3,319.4 829.4,335.7 840.5,325.9 851.6,322.6 862.7,327.6" stroke="#404040" stroke-width="5.40" stroke-opacity="1.00" fill="none" clip-path="url(#axis_clip)"/>
<g class="pl" fill="#FFF" stroke="#404040" stroke-width="0.900">
  <circle cx="151.2" cy="583.9" r="2.2" />
  <circle cx="173.4" cy="583.7" r="2.2" />
  <circle cx="184.5" cy="582.7" r="2.2" />
  <circle cx="195.6" cy="581.2" r="2.2" />
  <circle cx="206.8" cy="582.2" r="2.2" />
  <circle cx="217.9" cy="580.2" r="2.2" />
  <circle cx="229.0" cy="577.2" r="2.2" />
  <circle cx="240.1" cy="571.2" r="2.2" />
  <circle cx="251.2" cy="563.7" r="2.2" />
  <circle cx="262.3" cy="556.6" r="2.2" />
  <circle cx="284.6" cy="539.0" r="2.2" />
  <circle cx="295.7" cy="537.6" r="2.2" />
  <circle cx="306.8" cy="525.9" r="2.2" />
  <circle cx="317.9" cy="523.7" r="2.2" />
  <circle cx="329.1" cy="517.0" r="2.2" />
  <circle cx="340.2" cy="505.7" r="2.2" />
  <circle cx="351.3" cy="493.5" r="2.2" />
  <circle cx="362.4" cy="481.4" r="2.2" />
  <circle cx="373.5" cy="466.9" r="2.2" />
  <circle cx="395.8" cy="477.3" r="2.2" />
  <circle cx="406.9" cy="478.1" r="2.2" />
  <circle cx="418.0" cy="473.9" r="2.2" />
  <circle cx="429.1" cy="475.5" r="2.2" />
  <circle cx="440.2" cy="478.8" r="2.2" />
  <circle cx="451.4" cy="474.7" r="2.2" />
  <circle cx="462.5" cy="470.8" r="2.2" />
  <circle cx="473.6" cy="446.3" r="2.2" />
  <circle cx="484.7" cy="423.5" r="2.2" />
  <circle cx="506.9" cy="356.1" r="2.2" />
  <circle cx="518.1" cy="322.2" r="2.2" />
  <circle cx="529.2" cy="298.6" r="2.2" />
  <circle cx="540.3" cy="272.5" r="2.2" />
  <circle cx="551.4" cy="242.8" r="2.2" />
  <circle cx="562.5" cy="222.4" r="2.2" />
  <circle cx="573.7" cy="212.3" r="2.2" />
  <circle cx="584.8" cy="307.5" r="2.2" />
  <circle cx="595.9" cy="281.5" r="2.2" />
  <circle cx="618.1" cy="273.2" r="2.2" />
  <circle cx="629.2" cy="271.7" r="2.2" />
  <circle cx="640.4" cy="274.3" r="2.2" />
  <circle cx="651.5" cy="288.2" r="2.2" />
  <circle cx="662.6" cy="290.0" r="2.2" />
  <circle cx="673.7" cy="297.7" r="2.2" />
  <circle cx="684.8" cy="301.9" r="2.2" />
  <circle cx="696.0" cy="326.5" r="2.2" />
  <circle cx="707.1" cy="324.1" r="2.2" />
  <circle cx="729.3" cy="326.0" r="2.2" />
  <circle cx="740.4" cy="327.0" r="2.2" />
  <circle cx="751.5" cy="330.4" r="2.2" />
  <circle cx="762.7" cy="341.1" r="2.2" />
  <circle cx="773.8" cy="327.3" r="2.2" />
  <circle cx="784.9" cy="306.8" r="2.2" />
  <circle cx="796.0" cy="313.9" r="2.2" />
  <circle cx="807.1" cy="316.6" r="2.2" />
  <circle cx="818.3" cy="319.4" r="2.2" />
  <circle cx="840.5" cy="325.9" r="2.2" />
  <circle cx="851.6" cy="322.6" r="2.2" />
  <circle cx="862.7" cy="327.6" r="2.2" />
</g>
<g class="pl" fill="#FFF" stroke="#404040" stroke-width="0.900">
  <circle cx="162.3" cy="584.0" r="5.4" />
  <circle cx="273.5" cy="545.2" r="5.4" />
  <circle cx="384.6" cy="469.0" r="5.4" />
  <circle cx="495.8" cy="387.7" r="5.4" />
  <circle cx="607.0" cy="273.0" r="5.4" />
  <circle cx="718.2" cy="318.8" r="5.4" />
  <circle cx="829.4" cy="335.7" r="5.4" />
</g>
<polyline class="pl" points="140.0,587.2 151.2,587.2 162.3,587.2 173.4,587.2 184.5,587.2 195.6,587.2 206.8,587.2 217.9,587.2 229.0,587.2 240.1,587.2 251.2,587.2 262.3,587.2 273.5,587.2 284.6,587.2 295.7,587.2 306.8,587.2 317.9,587.2 329.1,587.2 340.2,587.2 351.3,587.2 362.4,587.2 373.5,587.2 384.6,587.2 395.8,587.2 406.9,587.2 418.0,587.2 429.1,587.2 440.2,587.2 451.4,587.0 462.5,580.4 473.6,578.4 484.7,578.6 495.8,577.4 506.9,575.8 518.1,572.3 529.2,568.7 540.3,562.5 551.4,557.4 562.5,547.8 573.7,539.3 584.8,542.4 595.9,532.6 607.0,525.9 618.1,519.9 629.2,512.4 640.4,508.9 651.5,495.4 662.6,487.7 673.7,483.6 684.8,475.4 696.0,471.5 707.1,477.2 718.2,447.7 729.3,437.1 740.4,424.8 751.5,417.3 762.7,432.6 773.8,446.1 784.9,439.9 796.0,433.5 807.1,408.7 818.3,414.1 829.4,409.5 840.5,394.0 851.6,394.1 862.7,401.2" stroke="#6298C6" stroke-width="5.40" stroke-opacity="1.00" fill="none" clip-path="url(#axis_clip)"/>
<g class="pl" fill="#FFF" stroke="#6298C6" stroke-width="0.900">
  <circle cx="151.2" cy="587.2" r="2.2" />
  <circle cx="173.4" cy="587.2" r="2.2" />
  <circle cx="184.5" cy="587.2" r="2.2" />
  <circle cx="195.6" cy="587.2" r="2.2" />
  <circle cx="206.8" cy="587.2" r="2.2" />
  <circle cx="217.9" cy="587.2" r="2.2" />
  <circle cx="229.0" cy="587.2" r="2.2" />
  <circle cx="240.1" cy="587.2" r="2.2" />
  <circle cx="251.2" cy="587.2" r="2.2" />
  <circle cx="262.3" cy="587.2" r="2.2" />
  <circle cx="284.6" cy="587.2" r="2.2" />
  <circle cx="295.7" cy="587.2" r="2.2" />
  <circle cx="306.8" cy="587.2" r="2.2" />
  <circle cx="317.9" cy="587.2" r="2.2" />
  <circle cx="329.1" cy="587.2" r="2.2" />
  <circle cx="340.2" cy="587.2" r="2.2" />
  <circle cx="351.3" cy="587.2" r="2.2" />
  <circle cx="362.4" cy="587.2" r="2.2" />
  <circle cx="373.5" cy="587.2" r="2.2" />
  <circle cx="395.8" cy="587.2" r="2.2" />
  <circle cx="406.9" cy="587.2" r="2.2" />
  <circle cx="418.0" cy="587.2" r="2.2" />
  <circle cx="429.1" cy="587.2" r="2.2" />
  <circle cx="440.2" cy="587.2" r="2.2" />
  <circle cx="451.4" cy="587.0" r="2.2" />
  <circle cx="462.5" cy="580.4" r="2.2" />
  <circle cx="473.6" cy="578.4" r="2.2" />
  <circle cx="484.7" cy="578.6" r="2.2" />
  <circle cx="506.9" cy="575.8" r="2.2" />
  <circle cx="518.1" cy="572.3" r="2.2" />
  <circle cx="529.2" cy="568.7" r="2.2" />
  <circle cx="540.3" cy="562.5" r="2.2" />
  <circle cx="551.4" cy="557.4" r="2.2" />
  <circle cx="562.5" cy="547.8" r="2.2" />
  <circle cx="573.7" cy="539.3" r="2.2" />
  <circle cx="584.8" cy="542.4" r="2.2" />
  <circle cx="595.9" cy="532.6" r="2.2" />
  <circle cx="618.1" cy="519.9" r="2.2" />
  <circle cx="629.2" cy="512.4" r="2.2" />
  <circle cx="640.4" cy="508.9" r="2.2" />
  <circle cx="651.5" cy="495.4" r="2.2" />
  <circle cx="662.6" cy="487.7" r="2.2" />
  <circle cx="673.7" cy="483.6" r="2.2" />
  <circle cx="684.8" cy="475.4" r="2.2" />
  <circle cx="696.0" cy="471.5" r="2.2" />
  <circle cx="707.1" cy="477.2" r="2.2" />
  <circle cx="729.3" cy="437.1" r="2.2" />
  <circle cx="740.4" cy="424.8" r="2.2" />
  <circle cx="751.5" cy="417.3" r="2.2" />
  <circle cx="762.7" cy="432.6" r="2.2" />
  <circle cx="773.8" cy="446.1" r="2.2" />
  <circle cx="784.9" cy="439.9" r="2.2" />
  <circle cx="796.0" cy="433.5" r="2.2" />
  <circle cx="807.1" cy="408.7" r="2.2" />
  <circle cx="818.3" cy="414.1" r="2.2" />
  <circle cx="840.5" cy="394.0" r="2.2" />
  <circle cx="851.6" cy="394.1" r="2.2" />
  <circle cx="862.7" cy="401.2" r="2.2" />
</g>
<g class="pl" fill="#FFF" stroke="#6298C6" stroke-width="0.900">
  <circle cx="162.3" cy="587.2" r="5.4" />
  <circle cx="273.5" cy="587.2" r="5.4" />
  <circle cx="384.6" cy="587.2" r="5.4" />
  <circle cx="495.8" cy="577.4" r="5.4" />
  <circle cx="607.0" cy="525.9" r="5.4" />
  <circle cx="718.2" cy="447.7" r="5.4" />
  <circle cx="829.4" cy="409.5" r="5.4" />
</g>
<polyline class="pl" points="140.0,587.0 151.2,586.9 162.3,586.8 173.4,586.8 184.5,586.6 195.6,586.6 206.8,586.2 217.9,586.0 229.0,585.8 240.1,585.3 251.2,584.5 262.3,583.5 273.5,582.8 284.6,582.0 295.7,582.3 306.8,581.1 317.9,580.6 329.1,579.6 340.2,578.4 351.3,576.7 362.4,576.0 373.5,575.1 384.6,575.7 395.8,575.7 406.9,574.1 418.0,571.6 429.1,572.3 440.2,572.3 451.4,570.2 462.5,568.6 473.6,566.2 484.7,565.2 495.8,563.0 506.9,558.3 518.1,555.0 529.2,549.5 540.3,546.3 551.4,544.4 562.5,544.1 573.7,542.5 584.8,552.3 595.9,551.0 607.0,549.5 618.1,548.1 629.2,545.9 640.4,544.6 651.5,547.4 662.6,551.6 673.7,551.9 684.8,547.1 696.0,547.4 707.1,549.8 718.2,550.2 729.3,549.5 740.4,549.3 751.5,549.0 762.7,548.5 773.8,547.9 784.9,546.5 796.0,547.0 807.1,549.5 818.3,549.2 829.4,552.3 840.5,551.1 851.6,551.5 862.7,552.3" stroke="#666" stroke-width="5.40" stroke-opacity="1.00" fill="none" clip-path="url(#axis_clip)"/>
<g class="pl" fill="#FFF" stroke="#666" stroke-width="0.900">
  <circle cx="151.2" cy="586.9" r="2.2" />
  <circle cx="173.4" cy="586.8" r="2.2" />
  <circle cx="184.5" cy="586.6" r="2.2" />
  <circle cx="195.6" cy="586.6" r="2.2" />
  <circle cx="206.8" cy="586.2" r="2.2" />
  <circle cx="217.9" cy="586.0" r="2.2" />
  <circle cx="229.0" cy="585.8" r="2.2" />
  <circle cx="240.1" cy="585.3" r="2.2" />
  <circle cx="251.2" cy="584.5" r="2.2" />
  <circle cx="262.3" cy="583.5" r="2.2" />
  <circle cx="284.6" cy="582.0" r="2.2" />
  <circle cx="295.7" cy="582.3" r="2.2" />
  <circle cx="306.8" cy="581.1" r="2.2" />
  <circle cx="317.9" cy="580.6" r="2.2" />
  <circle cx="329.1" cy="579.6" r="2.2" />
  <circle cx="340.2" cy="578.4" r="2.2" />
  <circle cx="351.3" cy="576.7" r="2.2" />
  <circle cx="362.4" cy="576.0" r="2.2" />
  <circle cx="373.5" cy="575.1" r="2.2" />
  <circle cx="395.8" cy="575.7" r="2.2" />
  <circle cx="406.9" cy="574.1" r="2.2" />
  <circle cx="418.0" cy="571.6" r="2.2" />
  <circle cx="429.1" cy="572.3" r="2.2" />
  <circle cx="440.2" cy="572.3" r="2.2" />
  <circle cx="451.4" cy="570.2" r="2.2" />
  <circle cx="462.5" cy="568.6" r="2.2" />
  <circle cx="473.6" cy="566.2" r="2.2" />
  <circle cx="484.7" cy="565.2" r="2.2" />
  <circle cx="506.9" cy="558.3" r="2.2" />
  <circle cx="518.1" cy="555.0" r="2.2" />
  <circle cx="529.2" cy="549.5" r="2.2" />
  <circle cx="540.3" cy="546.3" r="2.2" />
  <circle cx="551.4" cy="544.4" r="2.2" />
  <circle cx="562.5" cy="544.1" r="2.2" />
  <circle cx="573.7" cy="542.5" r="2.2" />
  <circle cx="584.8" cy="552.3" r="2.2" />
  <circle cx="595.9" cy="551.0" r="2.2" />
  <circle cx="618.1" cy="548.1" r="2.2" />
  <circle cx="629.2" cy="545.9" r="2.2" />
  <circle cx="640.4" cy="544.6" r="2.2" />
  <circle cx="651.5" cy="547.4" r="2.2" />
  <circle cx="662.6" cy="551.6" r="2.2" />
  <circle cx="673.7" cy="551.9" r="2.2" />
  <circle cx="684.8" cy="547.1" r="2.2" />
  <circle cx="696.0" cy="547.4" r="2.2" />
  <circle cx="707.1" cy="549.8" r="2.2" />
  <circle cx="729.3" cy="549.5" r="2.2" />
  <circle cx="740.4" cy="549.3" r="2.2" />
  <circle cx="751.5" cy="549.0" r="2.2" />
  <circle cx="762.7" cy="548.5" r="2.2" />
  <circle cx="773.8" cy="547.9" r="2.2" />
  <circle cx="784.9" cy="546.5" r="2.2" />
  <circle cx="796.0" cy="547.0" r="2.2" />
  <circle cx="807.1" cy="549.5" r="2.2" />
  <circle cx="818.3" cy="549.2" r="2.2" />
  <circle cx="840.5" cy="551.1" r="2.2" />
  <circle cx="851.6" cy="551.5" r="2.2" />
  <circle cx="862.7" cy="552.3" r="2.2" />
</g>
<g class="pl" fill="#FFF" stroke="#666" stroke-width="0.900">
  <circle cx="162.3" cy="586.8" r="5.4" />
  <circle cx="273.5" cy="582.8" r="5.4" />
  <circle cx="384.6" cy="575.7" r="5.4" />
  <circle cx="495.8" cy="563.0" r="5.4" />
  <circle cx="607.0" cy="549.5" r="5.4" />
  <circle cx="718.2" cy="550.2" r="5.4" />
  <circle cx="829.4" cy="552.3" r="5.4" />
</g>
<text transform="translate(925.2,203.5)" dy="8.1" font-size="27.00" fill="#7B553E" stroke="none">Coal 251.9</text>
<text transform="translate(925.2,327.6)" dy="8.1" font-size="27.00" fill="#404040" stroke="none">Oil 170.4</text>
<text transform="translate(925.2,401.2)" dy="8.1" font-size="27.00" fill="#6298C6" stroke="none">Gas 122.1</text>
<text transform="translate(925.2,552.3)" dy="8.1" font-size="27.00" fill="#666" stroke="none">Cement 22.9</text>
<text transform="translate(925.2,180.5)" dy="0.0" font-size="19.80" fill="#7B553E" stroke="none">Mt CO<tspan dy="0.2em"><tspan style="font-size:70%">2</tspan></tspan><tspan dy="-0.2em"> </tspan>in 2023</text>
<g stroke="none" stroke-width="0.9000"  >
  <polygon points="1065.3,196.7 1074.9,210.2 1084.5,196.7 1065.3,196.7" fill="#7B553E"/>
</g>
<text transform="translate(1089.3,205.5)" dy="5.4" font-size="18.00" fill="#7B553E" stroke="none">6.1%</text>
<g stroke="none" stroke-width="0.9000"  >
  <polygon points="1043.8,320.9 1053.4,334.4 1063.0,320.9 1043.8,320.9" fill="#404040"/>
</g>
<text transform="translate(1067.8,329.6)" dy="5.4" font-size="18.00" fill="#404040" stroke="none">1.9%</text>
<g stroke="none" stroke-width="0.9000"  >
  <polygon points="1059.9,394.5 1069.5,408.0 1079.1,394.5 1059.9,394.5" fill="#6298C6"/>
</g>
<text transform="translate(1083.9,403.3)" dy="5.4" font-size="18.00" fill="#6298C6" stroke="none">3.7%</text>
<g stroke="none" stroke-width="0.9000"  >
  <polygon points="1090.1,545.5 1099.7,559.0 1109.3,545.5 1090.1,545.5" fill="#666"/>
</g>
<text transform="translate(1114.1,554.3)" dy="5.4" font-size="18.00" fill="#666" stroke="none">2.1%</text>
<text transform="translate(145.6,47.2)" dy="0.0" font-size="27.00" fill="#808080" stroke="none">Annual Fossil CO<tspan dy="0.2em"><tspan style="font-size:70%">2</tspan></tspan><tspan dy="-0.2em"> </tspan>Emissions in South Korea</text>
<text transform="translate(130.0,157.8)" dy="8.1" font-size="27.00" fill="#808080" stroke="none" text-anchor="end">CO<tspan dy="0.2em"><tspan style="font-size:70%">2</tspan></tspan><tspan dy="-0.2em"></tspan></text>
<text transform="translate(157.6,60.7)" dy="18.0" font-size="18.00" fill="#808080" stroke="none">Total emissions growth in 2023: -4.1%</text>
<text transform="translate(160.2,666.1)" font-size="19.80" font-family="Helvetica" fill="#BFBFBF" stroke="none" xml:space="preserve">Global Carbon Project</text>
<g>
  <rect x="123.0" y="651.4" width="34" height="17" fill="#FFF" stroke="none"/>
  <g transform="translate(124.0,652.4) scale(0.24)">
  <g><circle fill="#FFF" cx="37.79" cy="28.5" r="28.84"/>
     <circle fill="none" cx="37.79" cy="28.5" r="28.84" stroke="#BFBFBF" stroke-width="5.5"/>
     <path fill="#BFBFBF" d="M37.16,23.19 l-4.29,2.23c-0.458-0.951-1.02-1.62-1.69-2c-0.667-0.38-1.29-0.571-1.86-0.571c-2.86,0-4.29,1.89-4.29,5.66 c0,1.71,0.36,3.08,1.09,4.11c0.724,1.03,1.79,1.54,3.2,1.54c1.87,0,3.18-0.915,3.94-2.74l3.94,2 c-0.838,1.56-2,2.79-3.49,3.69c-1.48,0.896-3.12,1.34-4.91,1.34c-2.86,0-5.16-0.875-6.92-2.63 c-1.75-1.75-2.63-4.19-2.63-7.31c0-3.05,0.886-5.47,2.66-7.26c1.77-1.79,4.01-2.69,6.72-2.69 C32.6,18.56,35.44,20.1,37.16,23.19z
              M55.61,23.19l-4.23,2.23c-0.457-0.951-1.02-1.62-1.69-2 c-0.668-0.38-1.31-0.571-1.91-0.571c-2.86,0-4.29,1.89-4.29,5.66c0,1.71,0.363,3.08,1.09,4.11 c0.723,1.03,1.79,1.54,3.2,1.54c1.87,0,3.18-0.915,3.94-2.74l4,2c-0.875,1.56-2.06,2.79-3.54,3.69 c-1.49,0.9-3.11,1.34-4.86,1.34c-2.9,0-5.21-0.875-6.94-2.63c-1.74-1.75-2.6-4.19-2.6-7.31 c0-3.05,0.885-5.47,2.66-7.26c1.77-1.79,4.01-2.69,6.71-2.69C51.12,18.56,53.944,20.1,55.61,23.19z"/>
  </g></g>
  <g transform="translate(140.2,652.4) scale(0.24)">
  <g><circle fill="#FFF" cx="37.79" cy="28.5" r="28.84"/>
     <circle fill="none" cx="37.79" cy="28.5" r="28.84" stroke="#BFBFBF" stroke-width="5.5"/>
     <path fill="#BFBFBF" d="M46.129,20.557v13.085h-3.656v15.542h-9.944V33.643h-3.656V20.557 c0-0.572,0.2-1.057,0.599-1.457c0.401-0.399,0.887-0.6,1.457-0.6h13.144c0.533,0,1.01,0.2,1.428,0.6 C45.918,19.5,46.129,19.986,46.129,20.557z
              M33.042,12.329c0-3.008,1.485-4.514,4.458-4.514s4.457,1.504,4.457,4.514 c0,2.971-1.486,4.457-4.457,4.457S33.042,15.3,33.042,12.329z"/>
  </g></g>
</g>
</g>
</svg>
