<svg version="1.1" xmlns="http://www.w3.org/2000/svg" xmlns:xlink="http://www.w3.org/1999/xlink" width="100%" height="100%" viewBox="0 0 1200.000 674.916">
<title>Annual energy consumption Russia</title>
<style type="text/css">
  #main {font-family:Helvetica,Arial,sans-serif; font-size:27.00px;
         fill-opacity:1; fill:#000000; stroke:none; stroke-linejoin:round; stroke-linecap:round; stroke-width:1.00;}
  .marker {stroke-opacity:0;fill-opacity:0;}
  .marker:hover {stroke-opacity:0.5; fill-opacity:1;}
  .ticklabel {font-size:27.00px;fill:#808080;stroke:none;font-family:Helvetica}
  .ytl {text-anchor:end;}
  .dp1 {pointer-events:none;font-size:70%;text-anchor:middle;fill:#000000;}
  .dp2 {pointer-events:none;font-size:70%;text-anchor:middle;fill:#FFFFFF;}
  .numtip {pointer-events:none;}
  .cc {opacity:0.25;}
.dl_fe {background-color:#FDFFDF;display:flex;margin:auto;align-items:center}
.dl_fe_p {font-size:20px;text-align:center;margin:3px}
.dl_el {display:none;pointer-events:none;}
.cc:hover + .dl_el {display:block;}
text:hover + .dl_el {display:block;}
</style>
<defs>
  <clipPath id="axis_clip"><rect x="145.8" y="54.2" width="761.2" height="532.8" /></clipPath>
  <path id="line_x" d="M 145.600,0 h 761.600" stroke="#262626" stroke-opacity="0.15" stroke-width="1.00"/>
  <path id="tick_y" d="M 145.600,0 h -6.000" stroke="#808080" stroke-width="0.90"/>
  <path id="tick_x" d="M 0,587.177 v 6.000" stroke="#808080" stroke-width="0.90"/>
</defs>
<g id="main">
<use xlink:href="#line_x" transform="translate(0,587.2)"/>
<use xlink:href="#line_x" transform="translate(0,468.7)"/>
<use xlink:href="#line_x" transform="translate(0,350.2)"/>
<use xlink:href="#line_x" transform="translate(0,231.7)"/>
<use xlink:href="#line_x" transform="translate(0,113.2)"/>
<use xlink:href="#tick_y" transform="translate(0,587.2)"/>
<use xlink:href="#tick_y" transform="translate(0,468.7)"/>
<use xlink:href="#tick_y" transform="translate(0,350.2)"/>
<use xlink:href="#tick_y" transform="translate(0,231.7)"/>
<use xlink:href="#tick_y" transform="translate(0,113.2)"/>
<use xlink:href="#tick_x" transform="translate(163.2,0)"/>
<use xlink:href="#tick_x" transform="translate(280.3,0)"/>
<use xlink:href="#tick_x" transform="translate(397.5,0)"/>
<use xlink:href="#tick_x" transform="translate(514.7,0)"/>
<use xlink:href="#tick_x" transform="translate(631.9,0)"/>
<use xlink:href="#tick_x" transform="translate(749.0,0)"/>
<use xlink:href="#tick_x" transform="translate(901.3,0)"/>
<polyline points="145.6,53.993 145.6,587.177 907.2,587.177" stroke="#808080" stroke-width="0.90" fill="none"/>
<text class="ticklabel xtl" transform="translate(163.2,629.0)" text-anchor="middle">1960</text>
<text class="ticklabel xtl" transform="translate(280.3,629.0)" text-anchor="middle">1970</text>
<text class="ticklabel xtl" transform="translate(397.5,629.0)" text-anchor="middle">1980</text>
<text class="ticklabel xtl" transform="translate(514.7,629.0)" text-anchor="middle">1990</text>
<text class="ticklabel xtl" transform="translate(631.9,629.0)" text-anchor="middle">2000</text>
<text class="ticklabel xtl" transform="translate(749.0,629.0)" text-anchor="middle">2010</text>
<text class="ticklabel xtl" transform="translate(901.3,629.0)" text-anchor="middle">2023</text>
<text class="ticklabel ytl" transform="translate(128.8,595.3)">0</text>
<text class="ticklabel ytl" transform="translate(128.8,476.8)">4</text>
<text class="ticklabel ytl" transform="translate(128.8,358.3)">8</text>
<text class="ticklabel ytl" transform="translate(128.8,239.8)">12</text>
<text class="ticklabel ytl" transform="translate(128.8,121.3)">16 EJ</text>
<polyline class="pl" points="514.7,572.1 526.4,572.9 538.1,573.8 549.8,574.4 561.6,578.6 573.3,579.5 585.0,580.6 596.7,581.5 608.4,582.5 620.1,581.0 631.9,582.3 643.6,582.5 655.3,582.7 667.0,582.8 678.7,582.9 690.4,582.8 702.2,582.8 713.9,582.5 725.6,583.3 737.3,583.6 749.0,583.5 760.7,583.4 772.5,583.2 784.2,583.4 795.9,583.8 807.6,583.6 819.3,583.6 831.0,583.8 842.8,583.7 854.5,583.5 866.2,583.6 877.9,583.4 889.6,583.9 901.3,583.7" stroke="#FDBF6F" stroke-width="5.40" stroke-opacity="1.00" fill="none" clip-path="url(#axis_clip)"/>
<g class="pl" fill="#FFF" stroke="#FDBF6F" stroke-width="0.900">
  <circle cx="526.4" cy="572.9" r="2.2" />
  <circle cx="538.1" cy="573.8" r="2.2" />
  <circle cx="549.8" cy="574.4" r="2.2" />
  <circle cx="561.6" cy="578.6" r="2.2" />
  <circle cx="573.3" cy="579.5" r="2.2" />
  <circle cx="585.0" cy="580.6" r="2.2" />
  <circle cx="596.7" cy="581.5" r="2.2" />
  <circle cx="608.4" cy="582.5" r="2.2" />
  <circle cx="620.1" cy="581.0" r="2.2" />
  <circle cx="643.6" cy="582.5" r="2.2" />
  <circle cx="655.3" cy="582.7" r="2.2" />
  <circle cx="667.0" cy="582.8" r="2.2" />
  <circle cx="678.7" cy="582.9" r="2.2" />
  <circle cx="690.4" cy="582.8" r="2.2" />
  <circle cx="702.2" cy="582.8" r="2.2" />
  <circle cx="713.9" cy="582.5" r="2.2" />
  <circle cx="725.6" cy="583.3" r="2.2" />
  <circle cx="737.3" cy="583.6" r="2.2" />
  <circle cx="760.7" cy="583.4" r="2.2" />
  <circle cx="772.5" cy="583.2" r="2.2" />
  <circle cx="784.2" cy="583.4" r="2.2" />
  <circle cx="795.9" cy="583.8" r="2.2" />
  <circle cx="807.6" cy="583.6" r="2.2" />
  <circle cx="819.3" cy="583.6" r="2.2" />
  <circle cx="831.0" cy="583.8" r="2.2" />
  <circle cx="842.8" cy="583.7" r="2.2" />
  <circle cx="854.5" cy="583.5" r="2.2" />
  <circle cx="877.9" cy="583.4" r="2.2" />
  <circle cx="889.6" cy="583.9" r="2.2" />
  <circle cx="901.3" cy="583.7" r="2.2" />
</g>
<g class="pl" fill="#FFF" stroke="#FDBF6F" stroke-width="0.900">
  <circle cx="514.7" cy="572.1" r="5.4" />
  <circle cx="631.9" cy="582.3" r="5.4" />
  <circle cx="749.0" cy="583.5" r="5.4" />
  <circle cx="866.2" cy="583.6" r="5.4" />
</g>
<polyline class="pl" points="456.1,587.2 467.8,587.2 479.5,587.2 491.2,587.2 503.0,587.2 514.7,587.2 526.4,587.2 538.1,587.2 549.8,587.2 561.6,587.2 573.3,587.2 585.0,587.2 596.7,587.2 608.4,587.2 620.1,587.2 631.9,587.2 643.6,587.1 655.3,587.1 667.0,587.1 678.7,587.0 690.4,587.0 702.2,587.0 713.9,587.0 725.6,587.0 737.3,587.0 749.0,587.0 760.7,587.0 772.5,587.0 784.2,587.0 795.9,587.0 807.6,587.0 819.3,587.1 831.0,587.0 842.8,587.0 854.5,587.0 866.2,586.9 877.9,586.9 889.6,586.9 901.3,586.9" stroke="#E78AC3" stroke-width="5.40" stroke-opacity="1.00" fill="none" clip-path="url(#axis_clip)"/>
<g class="pl" fill="#FFF" stroke="#E78AC3" stroke-width="0.900">
  <circle cx="456.1" cy="587.2" r="2.2" />
  <circle cx="467.8" cy="587.2" r="2.2" />
  <circle cx="479.5" cy="587.2" r="2.2" />
  <circle cx="491.2" cy="587.2" r="2.2" />
  <circle cx="503.0" cy="587.2" r="2.2" />
  <circle cx="526.4" cy="587.2" r="2.2" />
  <circle cx="538.1" cy="587.2" r="2.2" />
  <circle cx="549.8" cy="587.2" r="2.2" />
  <circle cx="561.6" cy="587.2" r="2.2" />
  <circle cx="573.3" cy="587.2" r="2.2" />
  <circle cx="585.0" cy="587.2" r="2.2" />
  <circle cx="596.7" cy="587.2" r="2.2" />
  <circle cx="608.4" cy="587.2" r="2.2" />
  <circle cx="620.1" cy="587.2" r="2.2" />
  <circle cx="643.6" cy="587.1" r="2.2" />
  <circle cx="655.3" cy="587.1" r="2.2" />
  <circle cx="667.0" cy="587.1" r="2.2" />
  <circle cx="678.7" cy="587.0" r="2.2" />
  <circle cx="690.4" cy="587.0" r="2.2" />
  <circle cx="702.2" cy="587.0" r="2.2" />
  <circle cx="713.9" cy="587.0" r="2.2" />
  <circle cx="725.6" cy="587.0" r="2.2" />
  <circle cx="737.3" cy="587.0" r="2.2" />
  <circle cx="760.7" cy="587.0" r="2.2" />
  <circle cx="772.5" cy="587.0" r="2.2" />
  <circle cx="784.2" cy="587.0" r="2.2" />
  <circle cx="795.9" cy="587.0" r="2.2" />
  <circle cx="807.6" cy="587.0" r="2.2" />
  <circle cx="819.3" cy="587.1" r="2.2" />
  <circle cx="831.0" cy="587.0" r="2.2" />
  <circle cx="842.8" cy="587.0" r="2.2" />
  <circle cx="854.5" cy="587.0" r="2.2" />
  <circle cx="877.9" cy="586.9" r="2.2" />
  <circle cx="889.6" cy="586.9" r="2.2" />
  <circle cx="901.3" cy="586.9" r="2.2" />
</g>
<g class="pl" fill="#FFF" stroke="#E78AC3" stroke-width="0.900">
  <circle cx="514.7" cy="587.2" r="5.4" />
  <circle cx="631.9" cy="587.2" r="5.4" />
  <circle cx="749.0" cy="587.0" r="5.4" />
  <circle cx="866.2" cy="586.9" r="5.4" />
</g>
<g class="pl" fill="#FFF" stroke="#8DA0CB" stroke-width="0.900">
</g>
<g class="pl" fill="#FFF" stroke="#8DA0CB" stroke-width="0.900">
</g>
<polyline class="pl" points="456.1,557.1 467.8,555.3 479.5,549.4 491.2,546.4 503.0,545.9 514.7,551.4 526.4,550.9 538.1,551.0 549.8,551.1 561.6,557.6 573.3,557.1 585.0,554.2 596.7,554.3 608.4,555.8 620.1,550.3 631.9,547.6 643.6,546.0 655.3,544.9 667.0,542.6 678.7,544.5 690.4,543.4 702.2,541.6 713.9,540.9 725.6,540.3 737.3,540.4 749.0,538.8 760.7,538.4 772.5,537.4 784.2,539.1 795.9,537.1 807.6,533.3 819.3,533.3 831.0,531.9 842.8,531.8 854.5,530.8 866.2,529.2 877.9,527.6 889.6,527.5 901.3,529.4" stroke="#FC8D62" stroke-width="5.40" stroke-opacity="1.00" fill="none" clip-path="url(#axis_clip)"/>
<g class="pl" fill="#FFF" stroke="#FC8D62" stroke-width="0.900">
  <circle cx="456.1" cy="557.1" r="2.2" />
  <circle cx="467.8" cy="555.3" r="2.2" />
  <circle cx="479.5" cy="549.4" r="2.2" />
  <circle cx="491.2" cy="546.4" r="2.2" />
  <circle cx="503.0" cy="545.9" r="2.2" />
  <circle cx="526.4" cy="550.9" r="2.2" />
  <circle cx="538.1" cy="551.0" r="2.2" />
  <circle cx="549.8" cy="551.1" r="2.2" />
  <circle cx="561.6" cy="557.6" r="2.2" />
  <circle cx="573.3" cy="557.1" r="2.2" />
  <circle cx="585.0" cy="554.2" r="2.2" />
  <circle cx="596.7" cy="554.3" r="2.2" />
  <circle cx="608.4" cy="555.8" r="2.2" />
  <circle cx="620.1" cy="550.3" r="2.2" />
  <circle cx="643.6" cy="546.0" r="2.2" />
  <circle cx="655.3" cy="544.9" r="2.2" />
  <circle cx="667.0" cy="542.6" r="2.2" />
  <circle cx="678.7" cy="544.5" r="2.2" />
  <circle cx="690.4" cy="543.4" r="2.2" />
  <circle cx="702.2" cy="541.6" r="2.2" />
  <circle cx="713.9" cy="540.9" r="2.2" />
  <circle cx="725.6" cy="540.3" r="2.2" />
  <circle cx="737.3" cy="540.4" r="2.2" />
  <circle cx="760.7" cy="538.4" r="2.2" />
  <circle cx="772.5" cy="537.4" r="2.2" />
  <circle cx="784.2" cy="539.1" r="2.2" />
  <circle cx="795.9" cy="537.1" r="2.2" />
  <circle cx="807.6" cy="533.3" r="2.2" />
  <circle cx="819.3" cy="533.3" r="2.2" />
  <circle cx="831.0" cy="531.9" r="2.2" />
  <circle cx="842.8" cy="531.8" r="2.2" />
  <circle cx="854.5" cy="530.8" r="2.2" />
  <circle cx="877.9" cy="527.6" r="2.2" />
  <circle cx="889.6" cy="527.5" r="2.2" />
  <circle cx="901.3" cy="529.4" r="2.2" />
</g>
<g class="pl" fill="#FFF" stroke="#FC8D62" stroke-width="0.900">
  <circle cx="514.7" cy="551.4" r="5.4" />
  <circle cx="631.9" cy="547.6" r="5.4" />
  <circle cx="749.0" cy="538.8" r="5.4" />
  <circle cx="866.2" cy="529.2" r="5.4" />
</g>
<polyline class="pl" points="456.1,536.8 467.8,535.4 479.5,535.9 491.2,536.4 503.0,536.8 514.7,534.6 526.4,534.2 538.1,532.8 549.8,532.2 561.6,531.7 573.3,531.6 585.0,538.5 596.7,537.5 608.4,537.2 620.1,536.6 631.9,535.4 643.6,532.7 655.3,536.7 667.0,539.0 678.7,533.2 690.4,534.5 702.2,534.6 713.9,533.8 725.6,537.8 737.3,535.3 749.0,537.9 760.7,539.2 772.5,539.4 784.2,534.5 795.9,537.1 807.6,538.9 819.3,534.5 831.0,534.6 842.8,533.4 854.5,532.5 866.2,527.7 877.9,527.3 889.6,532.2 901.3,531.5" stroke="#66C2A5" stroke-width="5.40" stroke-opacity="1.00" fill="none" clip-path="url(#axis_clip)"/>
<g class="pl" fill="#FFF" stroke="#66C2A5" stroke-width="0.900">
  <circle cx="456.1" cy="536.8" r="2.2" />
  <circle cx="467.8" cy="535.4" r="2.2" />
  <circle cx="479.5" cy="535.9" r="2.2" />
  <circle cx="491.2" cy="536.4" r="2.2" />
  <circle cx="503.0" cy="536.8" r="2.2" />
  <circle cx="526.4" cy="534.2" r="2.2" />
  <circle cx="538.1" cy="532.8" r="2.2" />
  <circle cx="549.8" cy="532.2" r="2.2" />
  <circle cx="561.6" cy="531.7" r="2.2" />
  <circle cx="573.3" cy="531.6" r="2.2" />
  <circle cx="585.0" cy="538.5" r="2.2" />
  <circle cx="596.7" cy="537.5" r="2.2" />
  <circle cx="608.4" cy="537.2" r="2.2" />
  <circle cx="620.1" cy="536.6" r="2.2" />
  <circle cx="643.6" cy="532.7" r="2.2" />
  <circle cx="655.3" cy="536.7" r="2.2" />
  <circle cx="667.0" cy="539.0" r="2.2" />
  <circle cx="678.7" cy="533.2" r="2.2" />
  <circle cx="690.4" cy="534.5" r="2.2" />
  <circle cx="702.2" cy="534.6" r="2.2" />
  <circle cx="713.9" cy="533.8" r="2.2" />
  <circle cx="725.6" cy="537.8" r="2.2" />
  <circle cx="737.3" cy="535.3" r="2.2" />
  <circle cx="760.7" cy="539.2" r="2.2" />
  <circle cx="772.5" cy="539.4" r="2.2" />
  <circle cx="784.2" cy="534.5" r="2.2" />
  <circle cx="795.9" cy="537.1" r="2.2" />
  <circle cx="807.6" cy="538.9" r="2.2" />
  <circle cx="819.3" cy="534.5" r="2.2" />
  <circle cx="831.0" cy="534.6" r="2.2" />
  <circle cx="842.8" cy="533.4" r="2.2" />
  <circle cx="854.5" cy="532.5" r="2.2" />
  <circle cx="877.9" cy="527.3" r="2.2" />
  <circle cx="889.6" cy="532.2" r="2.2" />
  <circle cx="901.3" cy="531.5" r="2.2" />
</g>
<g class="pl" fill="#FFF" stroke="#66C2A5" stroke-width="0.900">
  <circle cx="514.7" cy="534.6" r="5.4" />
  <circle cx="631.9" cy="535.4" r="5.4" />
  <circle cx="749.0" cy="537.9" r="5.4" />
  <circle cx="866.2" cy="527.7" r="5.4" />
</g>
<polyline class="pl" points="456.1,587.2 467.8,587.2 479.5,587.2 491.2,587.2 503.0,587.2 514.7,587.2 526.4,587.2 538.1,587.2 549.8,587.2 561.6,587.2 573.3,587.2 585.0,587.2 596.7,587.2 608.4,587.2 620.1,587.2 631.9,587.2 643.6,587.2 655.3,587.2 667.0,587.2 678.7,587.2 690.4,587.2 702.2,587.2 713.9,587.2 725.6,587.2 737.3,587.2 749.0,587.2 760.7,587.2 772.5,587.2 784.2,587.2 795.9,587.1 807.6,587.1 819.3,587.0 831.0,587.0 842.8,587.0 854.5,586.9 866.2,586.7 877.9,586.5 889.6,586.5 901.3,586.4" stroke="#E5C494" stroke-width="5.40" stroke-opacity="1.00" fill="none" clip-path="url(#axis_clip)"/>
<g class="pl" fill="#FFF" stroke="#E5C494" stroke-width="0.900">
  <circle cx="456.1" cy="587.2" r="2.2" />
  <circle cx="467.8" cy="587.2" r="2.2" />
  <circle cx="479.5" cy="587.2" r="2.2" />
  <circle cx="491.2" cy="587.2" r="2.2" />
  <circle cx="503.0" cy="587.2" r="2.2" />
  <circle cx="526.4" cy="587.2" r="2.2" />
  <circle cx="538.1" cy="587.2" r="2.2" />
  <circle cx="549.8" cy="587.2" r="2.2" />
  <circle cx="561.6" cy="587.2" r="2.2" />
  <circle cx="573.3" cy="587.2" r="2.2" />
  <circle cx="585.0" cy="587.2" r="2.2" />
  <circle cx="596.7" cy="587.2" r="2.2" />
  <circle cx="608.4" cy="587.2" r="2.2" />
  <circle cx="620.1" cy="587.2" r="2.2" />
  <circle cx="643.6" cy="587.2" r="2.2" />
  <circle cx="655.3" cy="587.2" r="2.2" />
  <circle cx="667.0" cy="587.2" r="2.2" />
  <circle cx="678.7" cy="587.2" r="2.2" />
  <circle cx="690.4" cy="587.2" r="2.2" />
  <circle cx="702.2" cy="587.2" r="2.2" />
  <circle cx="713.9" cy="587.2" r="2.2" />
  <circle cx="725.6" cy="587.2" r="2.2" />
  <circle cx="737.3" cy="587.2" r="2.2" />
  <circle cx="760.7" cy="587.2" r="2.2" />
  <circle cx="772.5" cy="587.2" r="2.2" />
  <circle cx="784.2" cy="587.2" r="2.2" />
  <circle cx="795.9" cy="587.1" r="2.2" />
  <circle cx="807.6" cy="587.1" r="2.2" />
  <circle cx="819.3" cy="587.0" r="2.2" />
  <circle cx="831.0" cy="587.0" r="2.2" />
  <circle cx="842.8" cy="587.0" r="2.2" />
  <circle cx="854.5" cy="586.9" r="2.2" />
  <circle cx="877.9" cy="586.5" r="2.2" />
  <circle cx="889.6" cy="586.5" r="2.2" />
  <circle cx="901.3" cy="586.4" r="2.2" />
</g>
<g class="pl" fill="#FFF" stroke="#E5C494" stroke-width="0.900">
  <circle cx="514.7" cy="587.2" r="5.4" />
  <circle cx="631.9" cy="587.2" r="5.4" />
  <circle cx="749.0" cy="587.2" r="5.4" />
  <circle cx="866.2" cy="586.7" r="5.4" />
</g>
<polyline class="pl" points="456.1,587.2 467.8,587.2 479.5,587.2 491.2,587.2 503.0,587.2 514.7,587.2 526.4,587.2 538.1,587.2 549.8,587.2 561.6,587.2 573.3,587.2 585.0,587.2 596.7,587.2 608.4,587.2 620.1,587.2 631.9,587.2 643.6,587.2 655.3,587.2 667.0,587.2 678.7,587.2 690.4,587.2 702.2,587.2 713.9,587.2 725.6,587.2 737.3,587.2 749.0,587.2 760.7,587.2 772.5,587.2 784.2,587.2 795.9,587.1 807.6,587.1 819.3,587.1 831.0,587.1 842.8,587.1 854.5,587.1 866.2,586.9 877.9,586.5 889.6,586.0 901.3,585.9" stroke="#FFD92F" stroke-width="5.40" stroke-opacity="1.00" fill="none" clip-path="url(#axis_clip)"/>
<g class="pl" fill="#FFF" stroke="#FFD92F" stroke-width="0.900">
  <circle cx="456.1" cy="587.2" r="2.2" />
  <circle cx="467.8" cy="587.2" r="2.2" />
  <circle cx="479.5" cy="587.2" r="2.2" />
  <circle cx="491.2" cy="587.2" r="2.2" />
  <circle cx="503.0" cy="587.2" r="2.2" />
  <circle cx="526.4" cy="587.2" r="2.2" />
  <circle cx="538.1" cy="587.2" r="2.2" />
  <circle cx="549.8" cy="587.2" r="2.2" />
  <circle cx="561.6" cy="587.2" r="2.2" />
  <circle cx="573.3" cy="587.2" r="2.2" />
  <circle cx="585.0" cy="587.2" r="2.2" />
  <circle cx="596.7" cy="587.2" r="2.2" />
  <circle cx="608.4" cy="587.2" r="2.2" />
  <circle cx="620.1" cy="587.2" r="2.2" />
  <circle cx="643.6" cy="587.2" r="2.2" />
  <circle cx="655.3" cy="587.2" r="2.2" />
  <circle cx="667.0" cy="587.2" r="2.2" />
  <circle cx="678.7" cy="587.2" r="2.2" />
  <circle cx="690.4" cy="587.2" r="2.2" />
  <circle cx="702.2" cy="587.2" r="2.2" />
  <circle cx="713.9" cy="587.2" r="2.2" />
  <circle cx="725.6" cy="587.2" r="2.2" />
  <circle cx="737.3" cy="587.2" r="2.2" />
  <circle cx="760.7" cy="587.2" r="2.2" />
  <circle cx="772.5" cy="587.2" r="2.2" />
  <circle cx="784.2" cy="587.2" r="2.2" />
  <circle cx="795.9" cy="587.1" r="2.2" />
  <circle cx="807.6" cy="587.1" r="2.2" />
  <circle cx="819.3" cy="587.1" r="2.2" />
  <circle cx="831.0" cy="587.1" r="2.2" />
  <circle cx="842.8" cy="587.1" r="2.2" />
  <circle cx="854.5" cy="587.1" r="2.2" />
  <circle cx="877.9" cy="586.5" r="2.2" />
  <circle cx="889.6" cy="586.0" r="2.2" />
  <circle cx="901.3" cy="585.9" r="2.2" />
</g>
<g class="pl" fill="#FFF" stroke="#FFD92F" stroke-width="0.900">
  <circle cx="514.7" cy="587.2" r="5.4" />
  <circle cx="631.9" cy="587.2" r="5.4" />
  <circle cx="749.0" cy="587.2" r="5.4" />
  <circle cx="866.2" cy="586.9" r="5.4" />
</g>
<polyline class="pl" points="456.1,207.5 467.8,203.1 479.5,180.9 491.2,158.4 503.0,152.1 514.7,145.5 526.4,134.0 538.1,148.5 549.8,149.8 561.6,176.3 573.3,190.0 585.0,187.8 596.7,218.8 608.4,203.7 620.1,204.9 631.9,196.7 643.6,190.3 655.3,185.5 667.0,176.0 678.7,165.3 690.4,160.2 702.2,137.5 713.9,129.9 725.6,136.4 737.3,163.0 749.0,135.1 760.7,122.6 772.5,130.1 784.2,134.1 795.9,137.0 807.6,151.4 819.3,138.6 831.0,127.5 842.8,102.5 854.5,113.4 866.2,135.6 877.9,127.0 889.6,109.0 901.3,103.7" stroke="#6298C6" stroke-width="5.40" stroke-opacity="1.00" fill="none" clip-path="url(#axis_clip)"/>
<g class="pl" fill="#FFF" stroke="#6298C6" stroke-width="0.900">
  <circle cx="456.1" cy="207.5" r="2.2" />
  <circle cx="467.8" cy="203.1" r="2.2" />
  <circle cx="479.5" cy="180.9" r="2.2" />
  <circle cx="491.2" cy="158.4" r="2.2" />
  <circle cx="503.0" cy="152.1" r="2.2" />
  <circle cx="526.4" cy="134.0" r="2.2" />
  <circle cx="538.1" cy="148.5" r="2.2" />
  <circle cx="549.8" cy="149.8" r="2.2" />
  <circle cx="561.6" cy="176.3" r="2.2" />
  <circle cx="573.3" cy="190.0" r="2.2" />
  <circle cx="585.0" cy="187.8" r="2.2" />
  <circle cx="596.7" cy="218.8" r="2.2" />
  <circle cx="608.4" cy="203.7" r="2.2" />
  <circle cx="620.1" cy="204.9" r="2.2" />
  <circle cx="643.6" cy="190.3" r="2.2" />
  <circle cx="655.3" cy="185.5" r="2.2" />
  <circle cx="667.0" cy="176.0" r="2.2" />
  <circle cx="678.7" cy="165.3" r="2.2" />
  <circle cx="690.4" cy="160.2" r="2.2" />
  <circle cx="702.2" cy="137.5" r="2.2" />
  <circle cx="713.9" cy="129.9" r="2.2" />
  <circle cx="725.6" cy="136.4" r="2.2" />
  <circle cx="737.3" cy="163.0" r="2.2" />
  <circle cx="760.7" cy="122.6" r="2.2" />
  <circle cx="772.5" cy="130.1" r="2.2" />
  <circle cx="784.2" cy="134.1" r="2.2" />
  <circle cx="795.9" cy="137.0" r="2.2" />
  <circle cx="807.6" cy="151.4" r="2.2" />
  <circle cx="819.3" cy="138.6" r="2.2" />
  <circle cx="831.0" cy="127.5" r="2.2" />
  <circle cx="842.8" cy="102.5" r="2.2" />
  <circle cx="854.5" cy="113.4" r="2.2" />
  <circle cx="877.9" cy="127.0" r="2.2" />
  <circle cx="889.6" cy="109.0" r="2.2" />
  <circle cx="901.3" cy="103.7" r="2.2" />
</g>
<g class="pl" fill="#FFF" stroke="#6298C6" stroke-width="0.900">
  <circle cx="514.7" cy="145.5" r="5.4" />
  <circle cx="631.9" cy="196.7" r="5.4" />
  <circle cx="749.0" cy="135.1" r="5.4" />
  <circle cx="866.2" cy="135.6" r="5.4" />
</g>
<polyline class="pl" points="456.1,274.1 467.8,270.3 479.5,267.7 491.2,270.3 503.0,264.3 514.7,268.9 526.4,277.0 538.1,291.0 549.8,340.2 561.6,369.0 573.3,396.8 585.0,423.0 596.7,424.4 608.4,431.2 620.1,427.7 631.9,430.9 643.6,426.2 655.3,431.9 667.0,426.2 678.7,428.5 690.4,427.9 702.2,419.8 713.9,420.6 725.6,415.3 737.3,422.3 749.0,416.0 760.7,403.6 772.5,397.3 784.2,396.8 795.9,387.2 807.6,393.9 819.3,391.1 831.0,391.7 842.8,389.8 854.5,385.8 866.2,393.6 877.9,381.3 889.6,375.8 901.3,373.6" stroke="#404040" stroke-width="5.40" stroke-opacity="1.00" fill="none" clip-path="url(#axis_clip)"/>
<g class="pl" fill="#FFF" stroke="#404040" stroke-width="0.900">
  <circle cx="456.1" cy="274.1" r="2.2" />
  <circle cx="467.8" cy="270.3" r="2.2" />
  <circle cx="479.5" cy="267.7" r="2.2" />
  <circle cx="491.2" cy="270.3" r="2.2" />
  <circle cx="503.0" cy="264.3" r="2.2" />
  <circle cx="526.4" cy="277.0" r="2.2" />
  <circle cx="538.1" cy="291.0" r="2.2" />
  <circle cx="549.8" cy="340.2" r="2.2" />
  <circle cx="561.6" cy="369.0" r="2.2" />
  <circle cx="573.3" cy="396.8" r="2.2" />
  <circle cx="585.0" cy="423.0" r="2.2" />
  <circle cx="596.7" cy="424.4" r="2.2" />
  <circle cx="608.4" cy="431.2" r="2.2" />
  <circle cx="620.1" cy="427.7" r="2.2" />
  <circle cx="643.6" cy="426.2" r="2.2" />
  <circle cx="655.3" cy="431.9" r="2.2" />
  <circle cx="667.0" cy="426.2" r="2.2" />
  <circle cx="678.7" cy="428.5" r="2.2" />
  <circle cx="690.4" cy="427.9" r="2.2" />
  <circle cx="702.2" cy="419.8" r="2.2" />
  <circle cx="713.9" cy="420.6" r="2.2" />
  <circle cx="725.6" cy="415.3" r="2.2" />
  <circle cx="737.3" cy="422.3" r="2.2" />
  <circle cx="760.7" cy="403.6" r="2.2" />
  <circle cx="772.5" cy="397.3" r="2.2" />
  <circle cx="784.2" cy="396.8" r="2.2" />
  <circle cx="795.9" cy="387.2" r="2.2" />
  <circle cx="807.6" cy="393.9" r="2.2" />
  <circle cx="819.3" cy="391.1" r="2.2" />
  <circle cx="831.0" cy="391.7" r="2.2" />
  <circle cx="842.8" cy="389.8" r="2.2" />
  <circle cx="854.5" cy="385.8" r="2.2" />
  <circle cx="877.9" cy="381.3" r="2.2" />
  <circle cx="889.6" cy="375.8" r="2.2" />
  <circle cx="901.3" cy="373.6" r="2.2" />
</g>
<g class="pl" fill="#FFF" stroke="#404040" stroke-width="0.900">
  <circle cx="514.7" cy="268.9" r="5.4" />
  <circle cx="631.9" cy="430.9" r="5.4" />
  <circle cx="749.0" cy="416.0" r="5.4" />
  <circle cx="866.2" cy="393.6" r="5.4" />
</g>
<polyline class="pl" points="456.1,341.5 467.8,334.8 479.5,331.0 491.2,334.8 503.0,343.1 514.7,361.1 526.4,380.0 538.1,392.5 549.8,411.5 561.6,433.5 573.3,439.1 585.0,441.9 596.7,453.2 608.4,461.7 620.1,460.7 631.9,456.0 643.6,459.2 655.3,458.7 667.0,457.9 678.7,463.3 690.4,469.9 702.2,466.9 713.9,470.7 725.6,462.3 737.3,472.9 749.0,474.9 760.7,470.6 772.5,465.1 784.2,474.9 795.9,478.6 807.6,472.9 819.3,476.5 831.0,483.1 842.8,479.7 854.5,481.5 866.2,489.7 877.9,485.7 889.6,473.4 901.3,473.6" stroke="#7B553E" stroke-width="5.40" stroke-opacity="1.00" fill="none" clip-path="url(#axis_clip)"/>
<g class="pl" fill="#FFF" stroke="#7B553E" stroke-width="0.900">
  <circle cx="456.1" cy="341.5" r="2.2" />
  <circle cx="467.8" cy="334.8" r="2.2" />
  <circle cx="479.5" cy="331.0" r="2.2" />
  <circle cx="491.2" cy="334.8" r="2.2" />
  <circle cx="503.0" cy="343.1" r="2.2" />
  <circle cx="526.4" cy="380.0" r="2.2" />
  <circle cx="538.1" cy="392.5" r="2.2" />
  <circle cx="549.8" cy="411.5" r="2.2" />
  <circle cx="561.6" cy="433.5" r="2.2" />
  <circle cx="573.3" cy="439.1" r="2.2" />
  <circle cx="585.0" cy="441.9" r="2.2" />
  <circle cx="596.7" cy="453.2" r="2.2" />
  <circle cx="608.4" cy="461.7" r="2.2" />
  <circle cx="620.1" cy="460.7" r="2.2" />
  <circle cx="643.6" cy="459.2" r="2.2" />
  <circle cx="655.3" cy="458.7" r="2.2" />
  <circle cx="667.0" cy="457.9" r="2.2" />
  <circle cx="678.7" cy="463.3" r="2.2" />
  <circle cx="690.4" cy="469.9" r="2.2" />
  <circle cx="702.2" cy="466.9" r="2.2" />
  <circle cx="713.9" cy="470.7" r="2.2" />
  <circle cx="725.6" cy="462.3" r="2.2" />
  <circle cx="737.3" cy="472.9" r="2.2" />
  <circle cx="760.7" cy="470.6" r="2.2" />
  <circle cx="772.5" cy="465.1" r="2.2" />
  <circle cx="784.2" cy="474.9" r="2.2" />
  <circle cx="795.9" cy="478.6" r="2.2" />
  <circle cx="807.6" cy="472.9" r="2.2" />
  <circle cx="819.3" cy="476.5" r="2.2" />
  <circle cx="831.0" cy="483.1" r="2.2" />
  <circle cx="842.8" cy="479.7" r="2.2" />
  <circle cx="854.5" cy="481.5" r="2.2" />
  <circle cx="877.9" cy="485.7" r="2.2" />
  <circle cx="889.6" cy="473.4" r="2.2" />
  <circle cx="901.3" cy="473.6" r="2.2" />
</g>
<g class="pl" fill="#FFF" stroke="#7B553E" stroke-width="0.900">
  <circle cx="514.7" cy="361.1" r="5.4" />
  <circle cx="631.9" cy="456.0" r="5.4" />
  <circle cx="749.0" cy="474.9" r="5.4" />
  <circle cx="866.2" cy="489.7" r="5.4" />
</g>
<text transform="translate(945.6,509.5)" dy="8.1" font-size="27.00" fill="#FDBF6F" stroke="none">Bioenergy</text>
<text transform="translate(945.6,587.2)" dy="8.1" font-size="27.00" fill="#E78AC3" stroke="none">Other</text>
<text transform="translate(945.6,457.7)" dy="8.1" font-size="27.00" fill="#FC8D62" stroke="none">Nuclear</text>
<text transform="translate(945.6,483.6)" dy="8.1" font-size="27.00" fill="#66C2A5" stroke="none">Hydro</text>
<text transform="translate(945.6,561.3)" dy="8.1" font-size="27.00" fill="#E5C494" stroke="none">Solar</text>
<text transform="translate(945.6,535.4)" dy="8.1" font-size="27.00" fill="#FFD92F" stroke="none">Wind</text>
<text transform="translate(945.6,103.7)" dy="8.1" font-size="27.00" fill="#6298C6" stroke="none">Gas</text>
<text transform="translate(945.6,373.6)" dy="8.1" font-size="27.00" fill="#404040" stroke="none">Oil</text>
<text transform="translate(945.6,431.8)" dy="8.1" font-size="27.00" fill="#7B553E" stroke="none">Coal</text>
<polyline class="pl" points="910.8,583.7 912.4,583.4 913.8,582.7 915.2,581.5 916.4,579.8 917.6,577.8 918.8,575.5 919.8,572.8 920.8,569.9 921.7,566.7 922.7,563.3 923.5,559.8 924.4,556.1 925.2,552.3 926.0,548.5 926.8,544.7 927.6,540.8 928.4,537.1 929.3,533.4 930.1,529.9 931.1,526.5 932.0,523.3 933.0,520.4 934.0,517.7 935.2,515.3 936.4,513.3 937.6,511.7 939.0,510.5 940.4,509.7 942.0,509.5" stroke="#FDBF6F" stroke-width="0.90" stroke-opacity="1.00" fill="none" />
<polyline class="pl" points="910.8,586.9 912.4,586.9 913.8,586.9 915.2,586.9 916.4,586.9 917.6,586.9 918.8,586.9 919.8,587.0 920.8,587.0 921.7,587.0 922.7,587.0 923.5,587.0 924.4,587.0 925.2,587.0 926.0,587.0 926.8,587.1 927.6,587.1 928.4,587.1 929.3,587.1 930.1,587.1 931.1,587.1 932.0,587.1 933.0,587.1 934.0,587.1 935.2,587.2 936.4,587.2 937.6,587.2 939.0,587.2 940.4,587.2 942.0,587.2" stroke="#E78AC3" stroke-width="0.90" stroke-opacity="1.00" fill="none" />
<polyline class="pl" points="910.8,529.4 912.4,529.1 913.8,528.4 915.2,527.2 916.4,525.7 917.6,523.7 918.8,521.5 919.8,518.9 920.8,516.0 921.7,513.0 922.7,509.7 923.5,506.3 924.4,502.7 925.2,499.1 926.0,495.4 926.8,491.7 927.6,488.0 928.4,484.3 929.3,480.8 930.1,477.4 931.1,474.1 932.0,471.0 933.0,468.2 934.0,465.6 935.2,463.3 936.4,461.4 937.6,459.8 939.0,458.6 940.4,457.9 942.0,457.7" stroke="#FC8D62" stroke-width="0.90" stroke-opacity="1.00" fill="none" />
<polyline class="pl" points="910.8,531.5 912.4,531.4 913.8,530.9 915.2,530.1 916.4,529.0 917.6,527.7 918.8,526.2 919.8,524.5 920.8,522.6 921.7,520.5 922.7,518.4 923.5,516.1 924.4,513.7 925.2,511.3 926.0,508.8 926.8,506.3 927.6,503.8 928.4,501.4 929.3,499.0 930.1,496.7 931.1,494.6 932.0,492.5 933.0,490.6 934.0,488.9 935.2,487.3 936.4,486.0 937.6,485.0 939.0,484.2 940.4,483.7 942.0,483.6" stroke="#66C2A5" stroke-width="0.90" stroke-opacity="1.00" fill="none" />
<polyline class="pl" points="910.8,586.4 912.4,586.4 913.8,586.1 915.2,585.7 916.4,585.1 917.6,584.5 918.8,583.7 919.8,582.8 920.8,581.8 921.7,580.7 922.7,579.5 923.5,578.3 924.4,577.1 925.2,575.8 926.0,574.5 926.8,573.2 927.6,571.9 928.4,570.6 929.3,569.4 930.1,568.2 931.1,567.0 932.0,566.0 933.0,565.0 934.0,564.1 935.2,563.3 936.4,562.6 937.6,562.0 939.0,561.6 940.4,561.4 942.0,561.3" stroke="#E5C494" stroke-width="0.90" stroke-opacity="1.00" fill="none" />
<polyline class="pl" points="910.8,585.9 912.4,585.7 913.8,585.2 915.2,584.4 916.4,583.2 917.6,581.9 918.8,580.3 919.8,578.5 920.8,576.5 921.7,574.3 922.7,572.0 923.5,569.6 924.4,567.1 925.2,564.5 926.0,561.9 926.8,559.3 927.6,556.7 928.4,554.2 929.3,551.7 930.1,549.2 931.1,546.9 932.0,544.8 933.0,542.8 934.0,541.0 935.2,539.4 936.4,538.0 937.6,536.9 939.0,536.1 940.4,535.5 942.0,535.4" stroke="#FFD92F" stroke-width="0.90" stroke-opacity="1.00" fill="none" />
<polyline class="pl" points="910.8,473.6 912.4,473.5 913.8,473.0 915.2,472.4 916.4,471.4 917.6,470.3 918.8,469.0 919.8,467.5 920.8,465.8 921.7,464.0 922.7,462.1 923.5,460.1 924.4,458.0 925.2,455.9 926.0,453.8 926.8,451.6 927.6,449.4 928.4,447.3 929.3,445.3 930.1,443.3 931.1,441.3 932.0,439.6 933.0,437.9 934.0,436.4 935.2,435.1 936.4,433.9 937.6,433.0 939.0,432.3 940.4,431.9 942.0,431.8" stroke="#7B553E" stroke-width="0.90" stroke-opacity="1.00" fill="none" />
<text transform="translate(1079.5,506.1)" dy="0.0" font-size="14.40" fill="#FDBF6F" stroke="none">excluding</text>
<text transform="translate(1079.5,506.1)" dy="14.4" font-size="14.40" fill="#FDBF6F" stroke="none">liquids</text>
<text transform="translate(145.6,47.2)" dy="0.0" font-size="27.00" fill="#808080" stroke="none">Annual energy consumption Russia</text>
<text transform="translate(160.3,666.1)" font-size="19.80" font-family="Helvetica" fill="#BFBFBF" stroke="none" xml:space="preserve">Global Carbon Project   &#9679;   Data: Energy Institute, IEA (bioenergy)</text>
<g>
  <rect x="123.0" y="651.4" width="34" height="17" fill="#FFF" stroke="none"/>
  <g transform="translate(124.0,652.4) scale(0.24)">
  <g><circle fill="#FFF" cx="37.79" cy="28.5" r="28.84"/>
     <circle fill="none" cx="37.79" cy="28.5" r="28.84" stroke="#BFBFBF" stroke-width="5.5"/>
     <path fill="#BFBFBF" d="M37.16,23.19 l-4.29,2.23c-0.458-0.951-1.02-1.62-1.69-2c-0.667-0.38-1.29-0.571-1.86-0.571c-2.86,0-4.29,1.89-4.29,5.66 c0,1.71,0.36,3.08,1.09,4.11c0.724,1.03,1.79,1.54,3.2,1.54c1.87,0,3.18-0.915,3.94-2.74l3.94,2 c-0.838,1.56-2,2.79-3.49,3.69c-1.48,0.896-3.12,1.34-4.91,1.34c-2.86,0-5.16-0.875-6.92-2.63 c-1.75-1.75-2.63-4.19-2.63-7.31c0-3.05,0.886-5.47,2.66-7.26c1.77-1.79,4.01-2.69,6.72-2.69 C32.6,18.56,35.44,20.1,37.16,23.19z
              M55.61,23.19l-4.23,2.23c-0.457-0.951-1.02-1.62-1.69-2 c-0.668-0.38-1.31-0.571-1.91-0.571c-2.86,0-4.29,1.89-4.29,5.66c0,1.71,0.363,3.08,1.09,4.11 c0.723,1.03,1.79,1.54,3.2,1.54c1.87,0,3.18-0.915,3.94-2.74l4,2c-0.875,1.56-2.06,2.79-3.54,3.69 c-1.49,0.9-3.11,1.34-4.86,1.34c-2.9,0-5.21-0.875-6.94-2.63c-1.74-1.75-2.6-4.19-2.6-7.31 c0-3.05,0.885-5.47,2.66-7.26c1.77-1.79,4.01-2.69,6.71-2.69C51.12,18.56,53.944,20.1,55.61,23.19z"/>
  </g></g>
  <g transform="translate(140.2,652.4) scale(0.24)">
  <g><circle fill="#FFF" cx="37.79" cy="28.5" r="28.84"/>
     <circle fill="none" cx="37.79" cy="28.5" r="28.84" stroke="#BFBFBF" stroke-width="5.5"/>
     <path fill="#BFBFBF" d="M46.129,20.557v13.085h-3.656v15.542h-9.944V33.643h-3.656V20.557 c0-0.572,0.2-1.057,0.599-1.457c0.401-0.399,0.887-0.6,1.457-0.6h13.144c0.533,0,1.01,0.2,1.428,0.6 C45.918,19.5,46.129,19.986,46.129,20.557z
              M33.042,12.329c0-3.008,1.485-4.514,4.458-4.514s4.457,1.504,4.457,4.514 c0,2.971-1.486,4.457-4.457,4.457S33.042,15.3,33.042,12.329z"/>
  </g></g>
</g>
</g>
</svg>
