<svg version="1.1" xmlns="http://www.w3.org/2000/svg" xmlns:xlink="http://www.w3.org/1999/xlink" width="100%" height="100%" viewBox="0 0 1200.000 674.916">
<title>Annual energy consumption per capita Bangladesh</title>
<style type="text/css">
  #main {font-family:Helvetica,Arial,sans-serif; font-size:27.00px;
         fill-opacity:1; fill:#000000; stroke:none; stroke-linejoin:round; stroke-linecap:round; stroke-width:1.00;}
  .marker {stroke-opacity:0;fill-opacity:0;}
  .marker:hover {stroke-opacity:0.5; fill-opacity:1;}
  .ticklabel {font-size:27.00px;fill:#808080;stroke:none;font-family:Helvetica}
  .ytl {text-anchor:end;}
  .dp1 {pointer-events:none;font-size:70%;text-anchor:middle;fill:#000000;}
  .dp2 {pointer-events:none;font-size:70%;text-anchor:middle;fill:#FFFFFF;}
  .numtip {pointer-events:none;}
  .cc {opacity:0.25;}
.dl_fe {background-color:#FDFFDF;display:flex;margin:auto;align-items:center}
.dl_fe_p {font-size:20px;text-align:center;margin:3px}
.dl_el {display:none;pointer-events:none;}
.cc:hover + .dl_el {display:block;}
text:hover + .dl_el {display:block;}
</style>
<defs>
  <clipPath id="axis_clip"><rect x="145.8" y="54.2" width="761.2" height="532.8" /></clipPath>
  <path id="line_x" d="M 145.600,0 h 761.600" stroke="#262626" stroke-opacity="0.15" stroke-width="1.00"/>
  <path id="tick_y" d="M 145.600,0 h -6.000" stroke="#808080" stroke-width="0.90"/>
  <path id="tick_x" d="M 0,587.177 v 6.000" stroke="#808080" stroke-width="0.90"/>
</defs>
<g id="main">
<use xlink:href="#line_x" transform="translate(0,587.2)"/>
<use xlink:href="#line_x" transform="translate(0,434.8)"/>
<use xlink:href="#line_x" transform="translate(0,282.5)"/>
<use xlink:href="#line_x" transform="translate(0,130.2)"/>
<use xlink:href="#tick_y" transform="translate(0,587.2)"/>
<use xlink:href="#tick_y" transform="translate(0,434.8)"/>
<use xlink:href="#tick_y" transform="translate(0,282.5)"/>
<use xlink:href="#tick_y" transform="translate(0,130.2)"/>
<use xlink:href="#tick_x" transform="translate(163.2,0)"/>
<use xlink:href="#tick_x" transform="translate(280.3,0)"/>
<use xlink:href="#tick_x" transform="translate(397.5,0)"/>
<use xlink:href="#tick_x" transform="translate(514.7,0)"/>
<use xlink:href="#tick_x" transform="translate(631.9,0)"/>
<use xlink:href="#tick_x" transform="translate(749.0,0)"/>
<use xlink:href="#tick_x" transform="translate(901.3,0)"/>
<polyline points="145.6,53.993 145.6,587.177 907.2,587.177" stroke="#808080" stroke-width="0.90" fill="none"/>
<text class="ticklabel xtl" transform="translate(163.2,629.0)" text-anchor="middle">1960</text>
<text class="ticklabel xtl" transform="translate(280.3,629.0)" text-anchor="middle">1970</text>
<text class="ticklabel xtl" transform="translate(397.5,629.0)" text-anchor="middle">1980</text>
<text class="ticklabel xtl" transform="translate(514.7,629.0)" text-anchor="middle">1990</text>
<text class="ticklabel xtl" transform="translate(631.9,629.0)" text-anchor="middle">2000</text>
<text class="ticklabel xtl" transform="translate(749.0,629.0)" text-anchor="middle">2010</text>
<text class="ticklabel xtl" transform="translate(901.3,629.0)" text-anchor="middle">2023</text>
<text class="ticklabel ytl" transform="translate(128.8,595.3)">0</text>
<text class="ticklabel ytl" transform="translate(128.8,442.9)">2</text>
<text class="ticklabel ytl" transform="translate(128.8,290.6)">4</text>
<text class="ticklabel ytl" transform="translate(128.8,138.3)">6 GJ</text>
<polyline class="pl" points="292.1,379.3 303.8,373.7 315.5,372.6 327.2,374.2 338.9,372.4 350.6,372.1 362.4,371.3 374.1,372.1 385.8,372.7 397.5,372.4 409.2,375.6 420.9,376.6 432.7,372.7 444.4,381.0 456.1,382.0 467.8,377.8 479.5,401.7 491.2,389.1 503.0,387.5 514.7,382.9 526.4,386.4 538.1,386.8 549.8,389.8 561.6,388.6 573.3,391.8 585.0,401.9 596.7,399.1 608.4,399.8 620.1,399.2 631.9,398.9 643.6,399.0 655.3,399.3 667.0,399.5 678.7,400.1 690.4,400.5 702.2,401.0 713.9,401.2 725.6,401.6 737.3,402.7 749.0,404.1 760.7,406.4 772.5,408.7 784.2,411.2 795.9,414.2 807.6,417.4 819.3,421.5 831.0,425.6 842.8,430.8 854.5,434.5 866.2,437.9 877.9,440.8 889.6,444.0 901.3,447.6" stroke="#FDBF6F" stroke-width="5.40" stroke-opacity="1.00" fill="none" clip-path="url(#axis_clip)"/>
<g class="pl" fill="#FFF" stroke="#FDBF6F" stroke-width="0.900">
  <circle cx="292.1" cy="379.3" r="2.2" />
  <circle cx="303.8" cy="373.7" r="2.2" />
  <circle cx="315.5" cy="372.6" r="2.2" />
  <circle cx="327.2" cy="374.2" r="2.2" />
  <circle cx="338.9" cy="372.4" r="2.2" />
  <circle cx="350.6" cy="372.1" r="2.2" />
  <circle cx="362.4" cy="371.3" r="2.2" />
  <circle cx="374.1" cy="372.1" r="2.2" />
  <circle cx="385.8" cy="372.7" r="2.2" />
  <circle cx="409.2" cy="375.6" r="2.2" />
  <circle cx="420.9" cy="376.6" r="2.2" />
  <circle cx="432.7" cy="372.7" r="2.2" />
  <circle cx="444.4" cy="381.0" r="2.2" />
  <circle cx="456.1" cy="382.0" r="2.2" />
  <circle cx="467.8" cy="377.8" r="2.2" />
  <circle cx="479.5" cy="401.7" r="2.2" />
  <circle cx="491.2" cy="389.1" r="2.2" />
  <circle cx="503.0" cy="387.5" r="2.2" />
  <circle cx="526.4" cy="386.4" r="2.2" />
  <circle cx="538.1" cy="386.8" r="2.2" />
  <circle cx="549.8" cy="389.8" r="2.2" />
  <circle cx="561.6" cy="388.6" r="2.2" />
  <circle cx="573.3" cy="391.8" r="2.2" />
  <circle cx="585.0" cy="401.9" r="2.2" />
  <circle cx="596.7" cy="399.1" r="2.2" />
  <circle cx="608.4" cy="399.8" r="2.2" />
  <circle cx="620.1" cy="399.2" r="2.2" />
  <circle cx="643.6" cy="399.0" r="2.2" />
  <circle cx="655.3" cy="399.3" r="2.2" />
  <circle cx="667.0" cy="399.5" r="2.2" />
  <circle cx="678.7" cy="400.1" r="2.2" />
  <circle cx="690.4" cy="400.5" r="2.2" />
  <circle cx="702.2" cy="401.0" r="2.2" />
  <circle cx="713.9" cy="401.2" r="2.2" />
  <circle cx="725.6" cy="401.6" r="2.2" />
  <circle cx="737.3" cy="402.7" r="2.2" />
  <circle cx="760.7" cy="406.4" r="2.2" />
  <circle cx="772.5" cy="408.7" r="2.2" />
  <circle cx="784.2" cy="411.2" r="2.2" />
  <circle cx="795.9" cy="414.2" r="2.2" />
  <circle cx="807.6" cy="417.4" r="2.2" />
  <circle cx="819.3" cy="421.5" r="2.2" />
  <circle cx="831.0" cy="425.6" r="2.2" />
  <circle cx="842.8" cy="430.8" r="2.2" />
  <circle cx="854.5" cy="434.5" r="2.2" />
  <circle cx="877.9" cy="440.8" r="2.2" />
  <circle cx="889.6" cy="444.0" r="2.2" />
  <circle cx="901.3" cy="447.6" r="2.2" />
</g>
<g class="pl" fill="#FFF" stroke="#FDBF6F" stroke-width="0.900">
  <circle cx="397.5" cy="372.4" r="5.4" />
  <circle cx="514.7" cy="382.9" r="5.4" />
  <circle cx="631.9" cy="398.9" r="5.4" />
  <circle cx="749.0" cy="404.1" r="5.4" />
  <circle cx="866.2" cy="437.9" r="5.4" />
</g>
<polyline class="pl" points="221.8,587.2 233.5,587.2 245.2,587.2 256.9,587.2 268.6,587.2 280.3,587.2 292.1,587.2 303.8,587.2 315.5,587.2 327.2,587.2 338.9,587.2 350.6,587.2 362.4,587.2 374.1,587.2 385.8,587.2 397.5,587.2 409.2,587.2 420.9,587.2 432.7,587.2 444.4,587.2 456.1,587.2 467.8,587.2 479.5,587.2 491.2,587.2 503.0,587.2 514.7,587.2 526.4,587.2 538.1,587.2 549.8,587.2 561.6,587.2 573.3,587.2 585.0,587.2 596.7,587.2 608.4,587.2 620.1,587.2 631.9,587.2 643.6,587.2 655.3,587.2 667.0,587.2 678.7,587.2 690.4,587.2 702.2,587.2 713.9,587.2 725.6,587.2 737.3,587.2 749.0,587.2 760.7,587.2 772.5,587.2 784.2,587.2 795.9,587.2 807.6,587.2 819.3,587.2 831.0,587.2 842.8,587.2 854.5,587.2 866.2,587.2 877.9,587.2 889.6,587.2 901.3,587.2" stroke="#E78AC3" stroke-width="5.40" stroke-opacity="1.00" fill="none" clip-path="url(#axis_clip)"/>
<g class="pl" fill="#FFF" stroke="#E78AC3" stroke-width="0.900">
  <circle cx="221.8" cy="587.2" r="2.2" />
  <circle cx="233.5" cy="587.2" r="2.2" />
  <circle cx="245.2" cy="587.2" r="2.2" />
  <circle cx="256.9" cy="587.2" r="2.2" />
  <circle cx="268.6" cy="587.2" r="2.2" />
  <circle cx="292.1" cy="587.2" r="2.2" />
  <circle cx="303.8" cy="587.2" r="2.2" />
  <circle cx="315.5" cy="587.2" r="2.2" />
  <circle cx="327.2" cy="587.2" r="2.2" />
  <circle cx="338.9" cy="587.2" r="2.2" />
  <circle cx="350.6" cy="587.2" r="2.2" />
  <circle cx="362.4" cy="587.2" r="2.2" />
  <circle cx="374.1" cy="587.2" r="2.2" />
  <circle cx="385.8" cy="587.2" r="2.2" />
  <circle cx="409.2" cy="587.2" r="2.2" />
  <circle cx="420.9" cy="587.2" r="2.2" />
  <circle cx="432.7" cy="587.2" r="2.2" />
  <circle cx="444.4" cy="587.2" r="2.2" />
  <circle cx="456.1" cy="587.2" r="2.2" />
  <circle cx="467.8" cy="587.2" r="2.2" />
  <circle cx="479.5" cy="587.2" r="2.2" />
  <circle cx="491.2" cy="587.2" r="2.2" />
  <circle cx="503.0" cy="587.2" r="2.2" />
  <circle cx="526.4" cy="587.2" r="2.2" />
  <circle cx="538.1" cy="587.2" r="2.2" />
  <circle cx="549.8" cy="587.2" r="2.2" />
  <circle cx="561.6" cy="587.2" r="2.2" />
  <circle cx="573.3" cy="587.2" r="2.2" />
  <circle cx="585.0" cy="587.2" r="2.2" />
  <circle cx="596.7" cy="587.2" r="2.2" />
  <circle cx="608.4" cy="587.2" r="2.2" />
  <circle cx="620.1" cy="587.2" r="2.2" />
  <circle cx="643.6" cy="587.2" r="2.2" />
  <circle cx="655.3" cy="587.2" r="2.2" />
  <circle cx="667.0" cy="587.2" r="2.2" />
  <circle cx="678.7" cy="587.2" r="2.2" />
  <circle cx="690.4" cy="587.2" r="2.2" />
  <circle cx="702.2" cy="587.2" r="2.2" />
  <circle cx="713.9" cy="587.2" r="2.2" />
  <circle cx="725.6" cy="587.2" r="2.2" />
  <circle cx="737.3" cy="587.2" r="2.2" />
  <circle cx="760.7" cy="587.2" r="2.2" />
  <circle cx="772.5" cy="587.2" r="2.2" />
  <circle cx="784.2" cy="587.2" r="2.2" />
  <circle cx="795.9" cy="587.2" r="2.2" />
  <circle cx="807.6" cy="587.2" r="2.2" />
  <circle cx="819.3" cy="587.2" r="2.2" />
  <circle cx="831.0" cy="587.2" r="2.2" />
  <circle cx="842.8" cy="587.2" r="2.2" />
  <circle cx="854.5" cy="587.2" r="2.2" />
  <circle cx="877.9" cy="587.2" r="2.2" />
  <circle cx="889.6" cy="587.2" r="2.2" />
  <circle cx="901.3" cy="587.2" r="2.2" />
</g>
<g class="pl" fill="#FFF" stroke="#E78AC3" stroke-width="0.900">
  <circle cx="280.3" cy="587.2" r="5.4" />
  <circle cx="397.5" cy="587.2" r="5.4" />
  <circle cx="514.7" cy="587.2" r="5.4" />
  <circle cx="631.9" cy="587.2" r="5.4" />
  <circle cx="749.0" cy="587.2" r="5.4" />
  <circle cx="866.2" cy="587.2" r="5.4" />
</g>
<g class="pl" fill="#FFF" stroke="#8DA0CB" stroke-width="0.900">
</g>
<g class="pl" fill="#FFF" stroke="#8DA0CB" stroke-width="0.900">
</g>
<polyline class="pl" points="221.8,587.2 233.5,587.2 245.2,587.2 256.9,587.2 268.6,587.2 280.3,587.2 292.1,587.2 303.8,587.2 315.5,587.2 327.2,587.2 338.9,587.2 350.6,587.2 362.4,587.2 374.1,587.2 385.8,587.2 397.5,587.2 409.2,587.2 420.9,587.2 432.7,587.2 444.4,587.2 456.1,587.2 467.8,587.2 479.5,587.2 491.2,587.2 503.0,587.2 514.7,587.2 526.4,587.2 538.1,587.2 549.8,587.2 561.6,587.2 573.3,587.2 585.0,587.2 596.7,587.2 608.4,587.2 620.1,587.2 631.9,587.2 643.6,587.2 655.3,587.2 667.0,587.2 678.7,587.2 690.4,587.2 702.2,587.2 713.9,587.2 725.6,587.2 737.3,587.2 749.0,587.2 760.7,587.2 772.5,587.2 784.2,587.2 795.9,587.2 807.6,587.2 819.3,587.2 831.0,587.2 842.8,587.2 854.5,587.2 866.2,587.2 877.9,587.2 889.6,587.2 901.3,587.2" stroke="#FC8D62" stroke-width="5.40" stroke-opacity="1.00" fill="none" clip-path="url(#axis_clip)"/>
<g class="pl" fill="#FFF" stroke="#FC8D62" stroke-width="0.900">
  <circle cx="221.8" cy="587.2" r="2.2" />
  <circle cx="233.5" cy="587.2" r="2.2" />
  <circle cx="245.2" cy="587.2" r="2.2" />
  <circle cx="256.9" cy="587.2" r="2.2" />
  <circle cx="268.6" cy="587.2" r="2.2" />
  <circle cx="292.1" cy="587.2" r="2.2" />
  <circle cx="303.8" cy="587.2" r="2.2" />
  <circle cx="315.5" cy="587.2" r="2.2" />
  <circle cx="327.2" cy="587.2" r="2.2" />
  <circle cx="338.9" cy="587.2" r="2.2" />
  <circle cx="350.6" cy="587.2" r="2.2" />
  <circle cx="362.4" cy="587.2" r="2.2" />
  <circle cx="374.1" cy="587.2" r="2.2" />
  <circle cx="385.8" cy="587.2" r="2.2" />
  <circle cx="409.2" cy="587.2" r="2.2" />
  <circle cx="420.9" cy="587.2" r="2.2" />
  <circle cx="432.7" cy="587.2" r="2.2" />
  <circle cx="444.4" cy="587.2" r="2.2" />
  <circle cx="456.1" cy="587.2" r="2.2" />
  <circle cx="467.8" cy="587.2" r="2.2" />
  <circle cx="479.5" cy="587.2" r="2.2" />
  <circle cx="491.2" cy="587.2" r="2.2" />
  <circle cx="503.0" cy="587.2" r="2.2" />
  <circle cx="526.4" cy="587.2" r="2.2" />
  <circle cx="538.1" cy="587.2" r="2.2" />
  <circle cx="549.8" cy="587.2" r="2.2" />
  <circle cx="561.6" cy="587.2" r="2.2" />
  <circle cx="573.3" cy="587.2" r="2.2" />
  <circle cx="585.0" cy="587.2" r="2.2" />
  <circle cx="596.7" cy="587.2" r="2.2" />
  <circle cx="608.4" cy="587.2" r="2.2" />
  <circle cx="620.1" cy="587.2" r="2.2" />
  <circle cx="643.6" cy="587.2" r="2.2" />
  <circle cx="655.3" cy="587.2" r="2.2" />
  <circle cx="667.0" cy="587.2" r="2.2" />
  <circle cx="678.7" cy="587.2" r="2.2" />
  <circle cx="690.4" cy="587.2" r="2.2" />
  <circle cx="702.2" cy="587.2" r="2.2" />
  <circle cx="713.9" cy="587.2" r="2.2" />
  <circle cx="725.6" cy="587.2" r="2.2" />
  <circle cx="737.3" cy="587.2" r="2.2" />
  <circle cx="760.7" cy="587.2" r="2.2" />
  <circle cx="772.5" cy="587.2" r="2.2" />
  <circle cx="784.2" cy="587.2" r="2.2" />
  <circle cx="795.9" cy="587.2" r="2.2" />
  <circle cx="807.6" cy="587.2" r="2.2" />
  <circle cx="819.3" cy="587.2" r="2.2" />
  <circle cx="831.0" cy="587.2" r="2.2" />
  <circle cx="842.8" cy="587.2" r="2.2" />
  <circle cx="854.5" cy="587.2" r="2.2" />
  <circle cx="877.9" cy="587.2" r="2.2" />
  <circle cx="889.6" cy="587.2" r="2.2" />
  <circle cx="901.3" cy="587.2" r="2.2" />
</g>
<g class="pl" fill="#FFF" stroke="#FC8D62" stroke-width="0.900">
  <circle cx="280.3" cy="587.2" r="5.4" />
  <circle cx="397.5" cy="587.2" r="5.4" />
  <circle cx="514.7" cy="587.2" r="5.4" />
  <circle cx="631.9" cy="587.2" r="5.4" />
  <circle cx="749.0" cy="587.2" r="5.4" />
  <circle cx="866.2" cy="587.2" r="5.4" />
</g>
<polyline class="pl" points="221.8,587.2 233.5,587.2 245.2,587.2 256.9,587.2 268.6,587.2 280.3,587.2 292.1,585.1 303.8,585.1 315.5,583.4 327.2,584.5 338.9,582.4 350.6,581.9 362.4,582.6 374.1,582.0 385.8,581.4 397.5,581.5 409.2,581.3 420.9,582.4 432.7,581.3 444.4,579.4 456.1,580.9 467.8,583.5 479.5,583.0 491.2,581.8 503.0,580.1 514.7,580.5 526.4,581.0 538.1,581.4 549.8,582.8 561.6,581.2 573.3,584.6 585.0,582.2 596.7,582.4 608.4,581.5 620.1,581.8 631.9,582.5 643.6,581.1 655.3,582.7 667.0,582.8 678.7,582.9 690.4,583.0 702.2,583.1 713.9,583.1 725.6,582.1 737.3,585.0 749.0,583.4 760.7,582.8 772.5,583.3 784.2,583.6 795.9,584.5 807.6,583.0 819.3,583.1 831.0,582.5 842.8,583.3 854.5,583.6 866.2,584.2 877.9,584.3 889.6,583.9 901.3,584.4" stroke="#66C2A5" stroke-width="5.40" stroke-opacity="1.00" fill="none" clip-path="url(#axis_clip)"/>
<g class="pl" fill="#FFF" stroke="#66C2A5" stroke-width="0.900">
  <circle cx="221.8" cy="587.2" r="2.2" />
  <circle cx="233.5" cy="587.2" r="2.2" />
  <circle cx="245.2" cy="587.2" r="2.2" />
  <circle cx="256.9" cy="587.2" r="2.2" />
  <circle cx="268.6" cy="587.2" r="2.2" />
  <circle cx="292.1" cy="585.1" r="2.2" />
  <circle cx="303.8" cy="585.1" r="2.2" />
  <circle cx="315.5" cy="583.4" r="2.2" />
  <circle cx="327.2" cy="584.5" r="2.2" />
  <circle cx="338.9" cy="582.4" r="2.2" />
  <circle cx="350.6" cy="581.9" r="2.2" />
  <circle cx="362.4" cy="582.6" r="2.2" />
  <circle cx="374.1" cy="582.0" r="2.2" />
  <circle cx="385.8" cy="581.4" r="2.2" />
  <circle cx="409.2" cy="581.3" r="2.2" />
  <circle cx="420.9" cy="582.4" r="2.2" />
  <circle cx="432.7" cy="581.3" r="2.2" />
  <circle cx="444.4" cy="579.4" r="2.2" />
  <circle cx="456.1" cy="580.9" r="2.2" />
  <circle cx="467.8" cy="583.5" r="2.2" />
  <circle cx="479.5" cy="583.0" r="2.2" />
  <circle cx="491.2" cy="581.8" r="2.2" />
  <circle cx="503.0" cy="580.1" r="2.2" />
  <circle cx="526.4" cy="581.0" r="2.2" />
  <circle cx="538.1" cy="581.4" r="2.2" />
  <circle cx="549.8" cy="582.8" r="2.2" />
  <circle cx="561.6" cy="581.2" r="2.2" />
  <circle cx="573.3" cy="584.6" r="2.2" />
  <circle cx="585.0" cy="582.2" r="2.2" />
  <circle cx="596.7" cy="582.4" r="2.2" />
  <circle cx="608.4" cy="581.5" r="2.2" />
  <circle cx="620.1" cy="581.8" r="2.2" />
  <circle cx="643.6" cy="581.1" r="2.2" />
  <circle cx="655.3" cy="582.7" r="2.2" />
  <circle cx="667.0" cy="582.8" r="2.2" />
  <circle cx="678.7" cy="582.9" r="2.2" />
  <circle cx="690.4" cy="583.0" r="2.2" />
  <circle cx="702.2" cy="583.1" r="2.2" />
  <circle cx="713.9" cy="583.1" r="2.2" />
  <circle cx="725.6" cy="582.1" r="2.2" />
  <circle cx="737.3" cy="585.0" r="2.2" />
  <circle cx="760.7" cy="582.8" r="2.2" />
  <circle cx="772.5" cy="583.3" r="2.2" />
  <circle cx="784.2" cy="583.6" r="2.2" />
  <circle cx="795.9" cy="584.5" r="2.2" />
  <circle cx="807.6" cy="583.0" r="2.2" />
  <circle cx="819.3" cy="583.1" r="2.2" />
  <circle cx="831.0" cy="582.5" r="2.2" />
  <circle cx="842.8" cy="583.3" r="2.2" />
  <circle cx="854.5" cy="583.6" r="2.2" />
  <circle cx="877.9" cy="584.3" r="2.2" />
  <circle cx="889.6" cy="583.9" r="2.2" />
  <circle cx="901.3" cy="584.4" r="2.2" />
</g>
<g class="pl" fill="#FFF" stroke="#66C2A5" stroke-width="0.900">
  <circle cx="280.3" cy="587.2" r="5.4" />
  <circle cx="397.5" cy="581.5" r="5.4" />
  <circle cx="514.7" cy="580.5" r="5.4" />
  <circle cx="631.9" cy="582.5" r="5.4" />
  <circle cx="749.0" cy="583.4" r="5.4" />
  <circle cx="866.2" cy="584.2" r="5.4" />
</g>
<polyline class="pl" points="221.8,587.2 233.5,587.2 245.2,587.2 256.9,587.2 268.6,587.2 280.3,587.2 292.1,587.2 303.8,587.2 315.5,587.2 327.2,587.2 338.9,587.2 350.6,587.2 362.4,587.2 374.1,587.2 385.8,587.2 397.5,587.2 409.2,587.2 420.9,587.2 432.7,587.2 444.4,587.2 456.1,587.2 467.8,587.2 479.5,587.2 491.2,587.2 503.0,587.2 514.7,587.2 526.4,587.2 538.1,587.2 549.8,587.2 561.6,587.2 573.3,587.2 585.0,587.2 596.7,587.2 608.4,587.2 620.1,587.2 631.9,587.2 643.6,587.2 655.3,587.2 667.0,587.2 678.7,587.2 690.4,587.2 702.2,587.1 713.9,587.1 725.6,587.1 737.3,587.0 749.0,586.9 760.7,586.6 772.5,586.4 784.2,586.2 795.9,586.1 807.6,585.9 819.3,586.2 831.0,585.9 842.8,585.8 854.5,585.5 866.2,585.2 877.9,584.6 889.6,583.6 901.3,582.0" stroke="#E5C494" stroke-width="5.40" stroke-opacity="1.00" fill="none" clip-path="url(#axis_clip)"/>
<g class="pl" fill="#FFF" stroke="#E5C494" stroke-width="0.900">
  <circle cx="221.8" cy="587.2" r="2.2" />
  <circle cx="233.5" cy="587.2" r="2.2" />
  <circle cx="245.2" cy="587.2" r="2.2" />
  <circle cx="256.9" cy="587.2" r="2.2" />
  <circle cx="268.6" cy="587.2" r="2.2" />
  <circle cx="292.1" cy="587.2" r="2.2" />
  <circle cx="303.8" cy="587.2" r="2.2" />
  <circle cx="315.5" cy="587.2" r="2.2" />
  <circle cx="327.2" cy="587.2" r="2.2" />
  <circle cx="338.9" cy="587.2" r="2.2" />
  <circle cx="350.6" cy="587.2" r="2.2" />
  <circle cx="362.4" cy="587.2" r="2.2" />
  <circle cx="374.1" cy="587.2" r="2.2" />
  <circle cx="385.8" cy="587.2" r="2.2" />
  <circle cx="409.2" cy="587.2" r="2.2" />
  <circle cx="420.9" cy="587.2" r="2.2" />
  <circle cx="432.7" cy="587.2" r="2.2" />
  <circle cx="444.4" cy="587.2" r="2.2" />
  <circle cx="456.1" cy="587.2" r="2.2" />
  <circle cx="467.8" cy="587.2" r="2.2" />
  <circle cx="479.5" cy="587.2" r="2.2" />
  <circle cx="491.2" cy="587.2" r="2.2" />
  <circle cx="503.0" cy="587.2" r="2.2" />
  <circle cx="526.4" cy="587.2" r="2.2" />
  <circle cx="538.1" cy="587.2" r="2.2" />
  <circle cx="549.8" cy="587.2" r="2.2" />
  <circle cx="561.6" cy="587.2" r="2.2" />
  <circle cx="573.3" cy="587.2" r="2.2" />
  <circle cx="585.0" cy="587.2" r="2.2" />
  <circle cx="596.7" cy="587.2" r="2.2" />
  <circle cx="608.4" cy="587.2" r="2.2" />
  <circle cx="620.1" cy="587.2" r="2.2" />
  <circle cx="643.6" cy="587.2" r="2.2" />
  <circle cx="655.3" cy="587.2" r="2.2" />
  <circle cx="667.0" cy="587.2" r="2.2" />
  <circle cx="678.7" cy="587.2" r="2.2" />
  <circle cx="690.4" cy="587.2" r="2.2" />
  <circle cx="702.2" cy="587.1" r="2.2" />
  <circle cx="713.9" cy="587.1" r="2.2" />
  <circle cx="725.6" cy="587.1" r="2.2" />
  <circle cx="737.3" cy="587.0" r="2.2" />
  <circle cx="760.7" cy="586.6" r="2.2" />
  <circle cx="772.5" cy="586.4" r="2.2" />
  <circle cx="784.2" cy="586.2" r="2.2" />
  <circle cx="795.9" cy="586.1" r="2.2" />
  <circle cx="807.6" cy="585.9" r="2.2" />
  <circle cx="819.3" cy="586.2" r="2.2" />
  <circle cx="831.0" cy="585.9" r="2.2" />
  <circle cx="842.8" cy="585.8" r="2.2" />
  <circle cx="854.5" cy="585.5" r="2.2" />
  <circle cx="877.9" cy="584.6" r="2.2" />
  <circle cx="889.6" cy="583.6" r="2.2" />
  <circle cx="901.3" cy="582.0" r="2.2" />
</g>
<g class="pl" fill="#FFF" stroke="#E5C494" stroke-width="0.900">
  <circle cx="280.3" cy="587.2" r="5.4" />
  <circle cx="397.5" cy="587.2" r="5.4" />
  <circle cx="514.7" cy="587.2" r="5.4" />
  <circle cx="631.9" cy="587.2" r="5.4" />
  <circle cx="749.0" cy="586.9" r="5.4" />
  <circle cx="866.2" cy="585.2" r="5.4" />
</g>
<polyline class="pl" points="221.8,587.2 233.5,587.2 245.2,587.2 256.9,587.2 268.6,587.2 280.3,587.2 292.1,587.2 303.8,587.2 315.5,587.2 327.2,587.2 338.9,587.2 350.6,587.2 362.4,587.2 374.1,587.2 385.8,587.2 397.5,587.2 409.2,587.2 420.9,587.2 432.7,587.2 444.4,587.2 456.1,587.2 467.8,587.2 479.5,587.2 491.2,587.2 503.0,587.2 514.7,587.2 526.4,587.2 538.1,587.2 549.8,587.2 561.6,587.2 573.3,587.2 585.0,587.2 596.7,587.2 608.4,587.2 620.1,587.2 631.9,587.2 643.6,587.2 655.3,587.2 667.0,587.2 678.7,587.2 690.4,587.2 702.2,587.2 713.9,587.2 725.6,587.2 737.3,587.1 749.0,587.2 760.7,587.2 772.5,587.2 784.2,587.2 795.9,587.2 807.6,587.2 819.3,587.2 831.0,587.2 842.8,587.2 854.5,587.2 866.2,587.2 877.9,587.2 889.6,587.2 901.3,587.1" stroke="#FFD92F" stroke-width="5.40" stroke-opacity="1.00" fill="none" clip-path="url(#axis_clip)"/>
<g class="pl" fill="#FFF" stroke="#FFD92F" stroke-width="0.900">
  <circle cx="221.8" cy="587.2" r="2.2" />
  <circle cx="233.5" cy="587.2" r="2.2" />
  <circle cx="245.2" cy="587.2" r="2.2" />
  <circle cx="256.9" cy="587.2" r="2.2" />
  <circle cx="268.6" cy="587.2" r="2.2" />
  <circle cx="292.1" cy="587.2" r="2.2" />
  <circle cx="303.8" cy="587.2" r="2.2" />
  <circle cx="315.5" cy="587.2" r="2.2" />
  <circle cx="327.2" cy="587.2" r="2.2" />
  <circle cx="338.9" cy="587.2" r="2.2" />
  <circle cx="350.6" cy="587.2" r="2.2" />
  <circle cx="362.4" cy="587.2" r="2.2" />
  <circle cx="374.1" cy="587.2" r="2.2" />
  <circle cx="385.8" cy="587.2" r="2.2" />
  <circle cx="409.2" cy="587.2" r="2.2" />
  <circle cx="420.9" cy="587.2" r="2.2" />
  <circle cx="432.7" cy="587.2" r="2.2" />
  <circle cx="444.4" cy="587.2" r="2.2" />
  <circle cx="456.1" cy="587.2" r="2.2" />
  <circle cx="467.8" cy="587.2" r="2.2" />
  <circle cx="479.5" cy="587.2" r="2.2" />
  <circle cx="491.2" cy="587.2" r="2.2" />
  <circle cx="503.0" cy="587.2" r="2.2" />
  <circle cx="526.4" cy="587.2" r="2.2" />
  <circle cx="538.1" cy="587.2" r="2.2" />
  <circle cx="549.8" cy="587.2" r="2.2" />
  <circle cx="561.6" cy="587.2" r="2.2" />
  <circle cx="573.3" cy="587.2" r="2.2" />
  <circle cx="585.0" cy="587.2" r="2.2" />
  <circle cx="596.7" cy="587.2" r="2.2" />
  <circle cx="608.4" cy="587.2" r="2.2" />
  <circle cx="620.1" cy="587.2" r="2.2" />
  <circle cx="643.6" cy="587.2" r="2.2" />
  <circle cx="655.3" cy="587.2" r="2.2" />
  <circle cx="667.0" cy="587.2" r="2.2" />
  <circle cx="678.7" cy="587.2" r="2.2" />
  <circle cx="690.4" cy="587.2" r="2.2" />
  <circle cx="702.2" cy="587.2" r="2.2" />
  <circle cx="713.9" cy="587.2" r="2.2" />
  <circle cx="725.6" cy="587.2" r="2.2" />
  <circle cx="737.3" cy="587.1" r="2.2" />
  <circle cx="760.7" cy="587.2" r="2.2" />
  <circle cx="772.5" cy="587.2" r="2.2" />
  <circle cx="784.2" cy="587.2" r="2.2" />
  <circle cx="795.9" cy="587.2" r="2.2" />
  <circle cx="807.6" cy="587.2" r="2.2" />
  <circle cx="819.3" cy="587.2" r="2.2" />
  <circle cx="831.0" cy="587.2" r="2.2" />
  <circle cx="842.8" cy="587.2" r="2.2" />
  <circle cx="854.5" cy="587.2" r="2.2" />
  <circle cx="877.9" cy="587.2" r="2.2" />
  <circle cx="889.6" cy="587.2" r="2.2" />
  <circle cx="901.3" cy="587.1" r="2.2" />
</g>
<g class="pl" fill="#FFF" stroke="#FFD92F" stroke-width="0.900">
  <circle cx="280.3" cy="587.2" r="5.4" />
  <circle cx="397.5" cy="587.2" r="5.4" />
  <circle cx="514.7" cy="587.2" r="5.4" />
  <circle cx="631.9" cy="587.2" r="5.4" />
  <circle cx="749.0" cy="587.2" r="5.4" />
  <circle cx="866.2" cy="587.2" r="5.4" />
</g>
<polyline class="pl" points="221.8,587.2 233.5,587.2 245.2,587.2 256.9,587.2 268.6,587.2 280.3,587.2 292.1,572.5 303.8,572.7 315.5,564.5 327.2,560.4 338.9,569.0 350.6,561.2 362.4,558.7 374.1,557.7 385.8,554.1 397.5,547.0 409.2,543.8 420.9,532.4 432.7,527.9 444.4,520.6 456.1,513.5 467.8,506.1 479.5,494.0 491.2,479.8 503.0,476.1 514.7,470.1 526.4,468.9 538.1,460.6 549.8,448.2 561.6,442.5 573.3,430.2 585.0,421.6 596.7,427.3 608.4,417.7 620.1,405.9 631.9,394.9 643.6,375.9 655.3,369.0 667.0,356.6 678.7,343.4 690.4,329.1 702.2,311.0 713.9,295.4 725.6,278.4 737.3,236.8 749.0,231.4 760.7,229.7 772.5,202.5 784.2,196.4 795.9,182.4 807.6,138.0 819.3,133.2 831.0,136.5 842.8,127.7 854.5,74.7 866.2,97.2 877.9,91.6 889.6,127.7 901.3,141.3" stroke="#6298C6" stroke-width="5.40" stroke-opacity="1.00" fill="none" clip-path="url(#axis_clip)"/>
<g class="pl" fill="#FFF" stroke="#6298C6" stroke-width="0.900">
  <circle cx="221.8" cy="587.2" r="2.2" />
  <circle cx="233.5" cy="587.2" r="2.2" />
  <circle cx="245.2" cy="587.2" r="2.2" />
  <circle cx="256.9" cy="587.2" r="2.2" />
  <circle cx="268.6" cy="587.2" r="2.2" />
  <circle cx="292.1" cy="572.5" r="2.2" />
  <circle cx="303.8" cy="572.7" r="2.2" />
  <circle cx="315.5" cy="564.5" r="2.2" />
  <circle cx="327.2" cy="560.4" r="2.2" />
  <circle cx="338.9" cy="569.0" r="2.2" />
  <circle cx="350.6" cy="561.2" r="2.2" />
  <circle cx="362.4" cy="558.7" r="2.2" />
  <circle cx="374.1" cy="557.7" r="2.2" />
  <circle cx="385.8" cy="554.1" r="2.2" />
  <circle cx="409.2" cy="543.8" r="2.2" />
  <circle cx="420.9" cy="532.4" r="2.2" />
  <circle cx="432.7" cy="527.9" r="2.2" />
  <circle cx="444.4" cy="520.6" r="2.2" />
  <circle cx="456.1" cy="513.5" r="2.2" />
  <circle cx="467.8" cy="506.1" r="2.2" />
  <circle cx="479.5" cy="494.0" r="2.2" />
  <circle cx="491.2" cy="479.8" r="2.2" />
  <circle cx="503.0" cy="476.1" r="2.2" />
  <circle cx="526.4" cy="468.9" r="2.2" />
  <circle cx="538.1" cy="460.6" r="2.2" />
  <circle cx="549.8" cy="448.2" r="2.2" />
  <circle cx="561.6" cy="442.5" r="2.2" />
  <circle cx="573.3" cy="430.2" r="2.2" />
  <circle cx="585.0" cy="421.6" r="2.2" />
  <circle cx="596.7" cy="427.3" r="2.2" />
  <circle cx="608.4" cy="417.7" r="2.2" />
  <circle cx="620.1" cy="405.9" r="2.2" />
  <circle cx="643.6" cy="375.9" r="2.2" />
  <circle cx="655.3" cy="369.0" r="2.2" />
  <circle cx="667.0" cy="356.6" r="2.2" />
  <circle cx="678.7" cy="343.4" r="2.2" />
  <circle cx="690.4" cy="329.1" r="2.2" />
  <circle cx="702.2" cy="311.0" r="2.2" />
  <circle cx="713.9" cy="295.4" r="2.2" />
  <circle cx="725.6" cy="278.4" r="2.2" />
  <circle cx="737.3" cy="236.8" r="2.2" />
  <circle cx="760.7" cy="229.7" r="2.2" />
  <circle cx="772.5" cy="202.5" r="2.2" />
  <circle cx="784.2" cy="196.4" r="2.2" />
  <circle cx="795.9" cy="182.4" r="2.2" />
  <circle cx="807.6" cy="138.0" r="2.2" />
  <circle cx="819.3" cy="133.2" r="2.2" />
  <circle cx="831.0" cy="136.5" r="2.2" />
  <circle cx="842.8" cy="127.7" r="2.2" />
  <circle cx="854.5" cy="74.7" r="2.2" />
  <circle cx="877.9" cy="91.6" r="2.2" />
  <circle cx="889.6" cy="127.7" r="2.2" />
  <circle cx="901.3" cy="141.3" r="2.2" />
</g>
<g class="pl" fill="#FFF" stroke="#6298C6" stroke-width="0.900">
  <circle cx="280.3" cy="587.2" r="5.4" />
  <circle cx="397.5" cy="547.0" r="5.4" />
  <circle cx="514.7" cy="470.1" r="5.4" />
  <circle cx="631.9" cy="394.9" r="5.4" />
  <circle cx="749.0" cy="231.4" r="5.4" />
  <circle cx="866.2" cy="97.2" r="5.4" />
</g>
<polyline class="pl" points="221.8,587.2 233.5,587.2 245.2,587.2 256.9,587.2 268.6,587.2 280.3,587.2 292.1,554.6 303.8,548.0 315.5,544.0 327.2,543.3 338.9,537.1 350.6,534.2 362.4,536.2 374.1,534.2 385.8,529.9 397.5,524.2 409.2,523.9 420.9,526.4 432.7,534.3 444.4,535.3 456.1,530.8 467.8,527.8 479.5,530.0 491.2,531.1 503.0,527.2 514.7,530.3 526.4,535.4 538.1,530.5 549.8,524.9 561.6,523.5 573.3,506.0 585.0,505.7 596.7,495.3 608.4,487.8 620.1,500.2 631.9,503.4 643.6,489.0 655.3,499.5 667.0,499.0 678.7,496.8 690.4,495.7 702.2,496.3 713.9,500.2 725.6,501.6 737.3,506.9 749.0,499.2 760.7,477.6 772.5,463.9 784.2,463.2 795.9,452.4 807.6,426.1 819.3,422.2 831.0,403.7 842.8,379.1 854.5,385.3 866.2,418.9 877.9,359.6 889.6,312.6 901.3,359.2" stroke="#404040" stroke-width="5.40" stroke-opacity="1.00" fill="none" clip-path="url(#axis_clip)"/>
<g class="pl" fill="#FFF" stroke="#404040" stroke-width="0.900">
  <circle cx="221.8" cy="587.2" r="2.2" />
  <circle cx="233.5" cy="587.2" r="2.2" />
  <circle cx="245.2" cy="587.2" r="2.2" />
  <circle cx="256.9" cy="587.2" r="2.2" />
  <circle cx="268.6" cy="587.2" r="2.2" />
  <circle cx="292.1" cy="554.6" r="2.2" />
  <circle cx="303.8" cy="548.0" r="2.2" />
  <circle cx="315.5" cy="544.0" r="2.2" />
  <circle cx="327.2" cy="543.3" r="2.2" />
  <circle cx="338.9" cy="537.1" r="2.2" />
  <circle cx="350.6" cy="534.2" r="2.2" />
  <circle cx="362.4" cy="536.2" r="2.2" />
  <circle cx="374.1" cy="534.2" r="2.2" />
  <circle cx="385.8" cy="529.9" r="2.2" />
  <circle cx="409.2" cy="523.9" r="2.2" />
  <circle cx="420.9" cy="526.4" r="2.2" />
  <circle cx="432.7" cy="534.3" r="2.2" />
  <circle cx="444.4" cy="535.3" r="2.2" />
  <circle cx="456.1" cy="530.8" r="2.2" />
  <circle cx="467.8" cy="527.8" r="2.2" />
  <circle cx="479.5" cy="530.0" r="2.2" />
  <circle cx="491.2" cy="531.1" r="2.2" />
  <circle cx="503.0" cy="527.2" r="2.2" />
  <circle cx="526.4" cy="535.4" r="2.2" />
  <circle cx="538.1" cy="530.5" r="2.2" />
  <circle cx="549.8" cy="524.9" r="2.2" />
  <circle cx="561.6" cy="523.5" r="2.2" />
  <circle cx="573.3" cy="506.0" r="2.2" />
  <circle cx="585.0" cy="505.7" r="2.2" />
  <circle cx="596.7" cy="495.3" r="2.2" />
  <circle cx="608.4" cy="487.8" r="2.2" />
  <circle cx="620.1" cy="500.2" r="2.2" />
  <circle cx="643.6" cy="489.0" r="2.2" />
  <circle cx="655.3" cy="499.5" r="2.2" />
  <circle cx="667.0" cy="499.0" r="2.2" />
  <circle cx="678.7" cy="496.8" r="2.2" />
  <circle cx="690.4" cy="495.7" r="2.2" />
  <circle cx="702.2" cy="496.3" r="2.2" />
  <circle cx="713.9" cy="500.2" r="2.2" />
  <circle cx="725.6" cy="501.6" r="2.2" />
  <circle cx="737.3" cy="506.9" r="2.2" />
  <circle cx="760.7" cy="477.6" r="2.2" />
  <circle cx="772.5" cy="463.9" r="2.2" />
  <circle cx="784.2" cy="463.2" r="2.2" />
  <circle cx="795.9" cy="452.4" r="2.2" />
  <circle cx="807.6" cy="426.1" r="2.2" />
  <circle cx="819.3" cy="422.2" r="2.2" />
  <circle cx="831.0" cy="403.7" r="2.2" />
  <circle cx="842.8" cy="379.1" r="2.2" />
  <circle cx="854.5" cy="385.3" r="2.2" />
  <circle cx="877.9" cy="359.6" r="2.2" />
  <circle cx="889.6" cy="312.6" r="2.2" />
  <circle cx="901.3" cy="359.2" r="2.2" />
</g>
<g class="pl" fill="#FFF" stroke="#404040" stroke-width="0.900">
  <circle cx="280.3" cy="587.2" r="5.4" />
  <circle cx="397.5" cy="524.2" r="5.4" />
  <circle cx="514.7" cy="530.3" r="5.4" />
  <circle cx="631.9" cy="503.4" r="5.4" />
  <circle cx="749.0" cy="499.2" r="5.4" />
  <circle cx="866.2" cy="418.9" r="5.4" />
</g>
<polyline class="pl" points="221.8,587.2 233.5,587.2 245.2,587.2 256.9,587.2 268.6,587.2 280.3,587.2 292.1,582.8 303.8,582.9 315.5,581.7 327.2,582.5 338.9,581.8 350.6,582.0 362.4,581.9 374.1,582.2 385.8,583.6 397.5,582.5 409.2,582.5 420.9,581.6 432.7,584.1 444.4,586.0 456.1,585.5 467.8,584.8 479.5,583.5 491.2,583.5 503.0,583.4 514.7,578.8 526.4,584.6 538.1,584.8 549.8,586.3 561.6,586.4 573.3,578.5 585.0,582.5 596.7,578.7 608.4,584.8 620.1,586.0 631.9,579.0 643.6,578.7 655.3,578.5 667.0,579.0 678.7,579.1 690.4,570.9 702.2,562.8 713.9,567.5 725.6,566.6 737.3,561.7 749.0,571.1 760.7,563.6 772.5,568.0 784.2,560.9 795.9,570.7 807.6,534.0 819.3,547.6 831.0,544.6 842.8,539.3 854.5,507.5 866.2,501.4 877.9,518.7 889.6,498.4 901.3,463.1" stroke="#7B553E" stroke-width="5.40" stroke-opacity="1.00" fill="none" clip-path="url(#axis_clip)"/>
<g class="pl" fill="#FFF" stroke="#7B553E" stroke-width="0.900">
  <circle cx="221.8" cy="587.2" r="2.2" />
  <circle cx="233.5" cy="587.2" r="2.2" />
  <circle cx="245.2" cy="587.2" r="2.2" />
  <circle cx="256.9" cy="587.2" r="2.2" />
  <circle cx="268.6" cy="587.2" r="2.2" />
  <circle cx="292.1" cy="582.8" r="2.2" />
  <circle cx="303.8" cy="582.9" r="2.2" />
  <circle cx="315.5" cy="581.7" r="2.2" />
  <circle cx="327.2" cy="582.5" r="2.2" />
  <circle cx="338.9" cy="581.8" r="2.2" />
  <circle cx="350.6" cy="582.0" r="2.2" />
  <circle cx="362.4" cy="581.9" r="2.2" />
  <circle cx="374.1" cy="582.2" r="2.2" />
  <circle cx="385.8" cy="583.6" r="2.2" />
  <circle cx="409.2" cy="582.5" r="2.2" />
  <circle cx="420.9" cy="581.6" r="2.2" />
  <circle cx="432.7" cy="584.1" r="2.2" />
  <circle cx="444.4" cy="586.0" r="2.2" />
  <circle cx="456.1" cy="585.5" r="2.2" />
  <circle cx="467.8" cy="584.8" r="2.2" />
  <circle cx="479.5" cy="583.5" r="2.2" />
  <circle cx="491.2" cy="583.5" r="2.2" />
  <circle cx="503.0" cy="583.4" r="2.2" />
  <circle cx="526.4" cy="584.6" r="2.2" />
  <circle cx="538.1" cy="584.8" r="2.2" />
  <circle cx="549.8" cy="586.3" r="2.2" />
  <circle cx="561.6" cy="586.4" r="2.2" />
  <circle cx="573.3" cy="578.5" r="2.2" />
  <circle cx="585.0" cy="582.5" r="2.2" />
  <circle cx="596.7" cy="578.7" r="2.2" />
  <circle cx="608.4" cy="584.8" r="2.2" />
  <circle cx="620.1" cy="586.0" r="2.2" />
  <circle cx="643.6" cy="578.7" r="2.2" />
  <circle cx="655.3" cy="578.5" r="2.2" />
  <circle cx="667.0" cy="579.0" r="2.2" />
  <circle cx="678.7" cy="579.1" r="2.2" />
  <circle cx="690.4" cy="570.9" r="2.2" />
  <circle cx="702.2" cy="562.8" r="2.2" />
  <circle cx="713.9" cy="567.5" r="2.2" />
  <circle cx="725.6" cy="566.6" r="2.2" />
  <circle cx="737.3" cy="561.7" r="2.2" />
  <circle cx="760.7" cy="563.6" r="2.2" />
  <circle cx="772.5" cy="568.0" r="2.2" />
  <circle cx="784.2" cy="560.9" r="2.2" />
  <circle cx="795.9" cy="570.7" r="2.2" />
  <circle cx="807.6" cy="534.0" r="2.2" />
  <circle cx="819.3" cy="547.6" r="2.2" />
  <circle cx="831.0" cy="544.6" r="2.2" />
  <circle cx="842.8" cy="539.3" r="2.2" />
  <circle cx="854.5" cy="507.5" r="2.2" />
  <circle cx="877.9" cy="518.7" r="2.2" />
  <circle cx="889.6" cy="498.4" r="2.2" />
  <circle cx="901.3" cy="463.1" r="2.2" />
</g>
<g class="pl" fill="#FFF" stroke="#7B553E" stroke-width="0.900">
  <circle cx="280.3" cy="587.2" r="5.4" />
  <circle cx="397.5" cy="582.5" r="5.4" />
  <circle cx="514.7" cy="578.8" r="5.4" />
  <circle cx="631.9" cy="579.0" r="5.4" />
  <circle cx="749.0" cy="571.1" r="5.4" />
  <circle cx="866.2" cy="501.4" r="5.4" />
</g>
<text transform="translate(945.6,431.8)" dy="8.1" font-size="27.00" fill="#FDBF6F" stroke="none">Bioenergy</text>
<text transform="translate(945.6,561.3)" dy="8.1" font-size="27.00" fill="#E78AC3" stroke="none">Other</text>
<text transform="translate(945.6,587.2)" dy="8.1" font-size="27.00" fill="#FC8D62" stroke="none">Nuclear</text>
<text transform="translate(945.6,509.5)" dy="8.1" font-size="27.00" fill="#66C2A5" stroke="none">Hydro</text>
<text transform="translate(945.6,483.6)" dy="8.1" font-size="27.00" fill="#E5C494" stroke="none">Solar</text>
<text transform="translate(945.6,535.4)" dy="8.1" font-size="27.00" fill="#FFD92F" stroke="none">Wind</text>
<text transform="translate(945.6,141.3)" dy="8.1" font-size="27.00" fill="#6298C6" stroke="none">Gas</text>
<text transform="translate(945.6,359.2)" dy="8.1" font-size="27.00" fill="#404040" stroke="none">Oil</text>
<text transform="translate(945.6,457.7)" dy="8.1" font-size="27.00" fill="#7B553E" stroke="none">Coal</text>
<polyline class="pl" points="910.8,447.6 912.4,447.6 913.8,447.4 915.2,447.2 916.4,446.8 917.6,446.4 918.8,445.9 919.8,445.3 920.8,444.7 921.7,444.0 922.7,443.3 923.5,442.5 924.4,441.7 925.2,440.9 926.0,440.1 926.8,439.3 927.6,438.5 928.4,437.7 929.3,436.9 930.1,436.1 931.1,435.4 932.0,434.7 933.0,434.1 934.0,433.5 935.2,433.0 936.4,432.6 937.6,432.2 939.0,432.0 940.4,431.8 942.0,431.8" stroke="#FDBF6F" stroke-width="0.90" stroke-opacity="1.00" fill="none" />
<polyline class="pl" points="910.8,587.2 912.4,587.1 913.8,586.8 915.2,586.4 916.4,585.8 917.6,585.1 918.8,584.3 919.8,583.4 920.8,582.3 921.7,581.2 922.7,580.0 923.5,578.8 924.4,577.5 925.2,576.2 926.0,574.9 926.8,573.5 927.6,572.2 928.4,570.9 929.3,569.6 930.1,568.4 931.1,567.2 932.0,566.1 933.0,565.1 934.0,564.1 935.2,563.3 936.4,562.6 937.6,562.0 939.0,561.6 940.4,561.4 942.0,561.3" stroke="#E78AC3" stroke-width="0.90" stroke-opacity="1.00" fill="none" />
<polyline class="pl" points="910.8,584.4 912.4,584.1 913.8,583.3 915.2,582.1 916.4,580.5 917.6,578.4 918.8,576.1 919.8,573.4 920.8,570.4 921.7,567.2 922.7,563.8 923.5,560.2 924.4,556.5 925.2,552.7 926.0,548.8 926.8,545.0 927.6,541.1 928.4,537.3 929.3,533.6 930.1,530.0 931.1,526.6 932.0,523.4 933.0,520.5 934.0,517.8 935.2,515.4 936.4,513.3 937.6,511.7 939.0,510.5 940.4,509.7 942.0,509.5" stroke="#66C2A5" stroke-width="0.90" stroke-opacity="1.00" fill="none" />
<polyline class="pl" points="910.8,582.0 912.4,581.6 913.8,580.6 915.2,579.0 916.4,576.9 917.6,574.2 918.8,571.1 919.8,567.5 920.8,563.6 921.7,559.4 922.7,554.9 923.5,550.2 924.4,545.4 925.2,540.4 926.0,535.3 926.8,530.2 927.6,525.2 928.4,520.2 929.3,515.3 930.1,510.6 931.1,506.1 932.0,501.9 933.0,498.0 934.0,494.5 935.2,491.3 936.4,488.7 937.6,486.5 939.0,484.9 940.4,483.9 942.0,483.6" stroke="#E5C494" stroke-width="0.90" stroke-opacity="1.00" fill="none" />
<polyline class="pl" points="910.8,587.1 912.4,586.9 913.8,586.4 915.2,585.6 916.4,584.4 917.6,583.0 918.8,581.4 919.8,579.5 920.8,577.5 921.7,575.3 922.7,572.9 923.5,570.4 924.4,567.9 925.2,565.2 926.0,562.6 926.8,559.9 927.6,557.2 928.4,554.6 929.3,552.1 930.1,549.6 931.1,547.2 932.0,545.0 933.0,543.0 934.0,541.1 935.2,539.5 936.4,538.1 937.6,536.9 939.0,536.1 940.4,535.5 942.0,535.4" stroke="#FFD92F" stroke-width="0.90" stroke-opacity="1.00" fill="none" />
<polyline class="pl" points="910.8,463.1 912.4,463.0 913.8,463.0 915.2,462.9 916.4,462.8 917.6,462.6 918.8,462.5 919.8,462.3 920.8,462.0 921.7,461.8 922.7,461.6 923.5,461.3 924.4,461.0 925.2,460.8 926.0,460.5 926.8,460.2 927.6,459.9 928.4,459.7 929.3,459.4 930.1,459.1 931.1,458.9 932.0,458.7 933.0,458.4 934.0,458.3 935.2,458.1 936.4,457.9 937.6,457.8 939.0,457.7 940.4,457.7 942.0,457.7" stroke="#7B553E" stroke-width="0.90" stroke-opacity="1.00" fill="none" />
<text transform="translate(1079.5,428.4)" dy="0.0" font-size="14.40" fill="#FDBF6F" stroke="none">excluding</text>
<text transform="translate(1079.5,428.4)" dy="14.4" font-size="14.40" fill="#FDBF6F" stroke="none">liquids</text>
<text transform="translate(145.6,47.2)" dy="0.0" font-size="27.00" fill="#808080" stroke="none">Annual energy consumption per capita Bangladesh</text>
<text transform="translate(130.0,157.8)" dy="8.1" font-size="27.00" fill="#808080" stroke="none" text-anchor="end">per person</text>
<text transform="translate(160.2,666.1)" font-size="19.80" font-family="Helvetica" fill="#BFBFBF" stroke="none" xml:space="preserve">Global Carbon Project   &#9679;   Data: Energy Institute, IEA (bioenergy)</text>
<g>
  <rect x="123.0" y="651.4" width="34" height="17" fill="#FFF" stroke="none"/>
  <g transform="translate(124.0,652.4) scale(0.24)">
  <g><circle fill="#FFF" cx="37.79" cy="28.5" r="28.84"/>
     <circle fill="none" cx="37.79" cy="28.5" r="28.84" stroke="#BFBFBF" stroke-width="5.5"/>
     <path fill="#BFBFBF" d="M37.16,23.19 l-4.29,2.23c-0.458-0.951-1.02-1.62-1.69-2c-0.667-0.38-1.29-0.571-1.86-0.571c-2.86,0-4.29,1.89-4.29,5.66 c0,1.71,0.36,3.08,1.09,4.11c0.724,1.03,1.79,1.54,3.2,1.54c1.87,0,3.18-0.915,3.94-2.74l3.94,2 c-0.838,1.56-2,2.79-3.49,3.69c-1.48,0.896-3.12,1.34-4.91,1.34c-2.86,0-5.16-0.875-6.92-2.63 c-1.75-1.75-2.63-4.19-2.63-7.31c0-3.05,0.886-5.47,2.66-7.26c1.77-1.79,4.01-2.69,6.72-2.69 C32.6,18.56,35.44,20.1,37.16,23.19z
              M55.61,23.19l-4.23,2.23c-0.457-0.951-1.02-1.62-1.69-2 c-0.668-0.38-1.31-0.571-1.91-0.571c-2.86,0-4.29,1.89-4.29,5.66c0,1.71,0.363,3.08,1.09,4.11 c0.723,1.03,1.79,1.54,3.2,1.54c1.87,0,3.18-0.915,3.94-2.74l4,2c-0.875,1.56-2.06,2.79-3.54,3.69 c-1.49,0.9-3.11,1.34-4.86,1.34c-2.9,0-5.21-0.875-6.94-2.63c-1.74-1.75-2.6-4.19-2.6-7.31 c0-3.05,0.885-5.47,2.66-7.26c1.77-1.79,4.01-2.69,6.71-2.69C51.12,18.56,53.944,20.1,55.61,23.19z"/>
  </g></g>
  <g transform="translate(140.2,652.4) scale(0.24)">
  <g><circle fill="#FFF" cx="37.79" cy="28.5" r="28.84"/>
     <circle fill="none" cx="37.79" cy="28.5" r="28.84" stroke="#BFBFBF" stroke-width="5.5"/>
     <path fill="#BFBFBF" d="M46.129,20.557v13.085h-3.656v15.542h-9.944V33.643h-3.656V20.557 c0-0.572,0.2-1.057,0.599-1.457c0.401-0.399,0.887-0.6,1.457-0.6h13.144c0.533,0,1.01,0.2,1.428,0.6 C45.918,19.5,46.129,19.986,46.129,20.557z
              M33.042,12.329c0-3.008,1.485-4.514,4.458-4.514s4.457,1.504,4.457,4.514 c0,2.971-1.486,4.457-4.457,4.457S33.042,15.3,33.042,12.329z"/>
  </g></g>
</g>
</g>
</svg>
