<svg version="1.1" xmlns="http://www.w3.org/2000/svg" xmlns:xlink="http://www.w3.org/1999/xlink" width="100%" height="100%" viewBox="0 0 1200.000 674.916">
<title>Annual energy consumption United Kingdom</title>
<style type="text/css">
  #main {font-family:Helvetica,Arial,sans-serif; font-size:27.00px;
         fill-opacity:1; fill:#000000; stroke:none; stroke-linejoin:round; stroke-linecap:round; stroke-width:1.00;}
  .marker {stroke-opacity:0;fill-opacity:0;}
  .marker:hover {stroke-opacity:0.5; fill-opacity:1;}
  .ticklabel {font-size:27.00px;fill:#808080;stroke:none;font-family:Helvetica}
  .ytl {text-anchor:end;}
  .dp1 {pointer-events:none;font-size:70%;text-anchor:middle;fill:#000000;}
  .dp2 {pointer-events:none;font-size:70%;text-anchor:middle;fill:#FFFFFF;}
  .numtip {pointer-events:none;}
  .cc {opacity:0.25;}
.dl_fe {background-color:#FDFFDF;display:flex;margin:auto;align-items:center}
.dl_fe_p {font-size:20px;text-align:center;margin:3px}
.dl_el {display:none;pointer-events:none;}
.cc:hover + .dl_el {display:block;}
text:hover + .dl_el {display:block;}
</style>
<defs>
  <clipPath id="axis_clip"><rect x="145.8" y="54.2" width="761.2" height="532.8" /></clipPath>
  <path id="line_x" d="M 145.600,0 h 761.600" stroke="#262626" stroke-opacity="0.15" stroke-width="1.00"/>
  <path id="tick_y" d="M 145.600,0 h -6.000" stroke="#808080" stroke-width="0.90"/>
  <path id="tick_x" d="M 0,587.177 v 6.000" stroke="#808080" stroke-width="0.90"/>
</defs>
<g id="main">
<use xlink:href="#line_x" transform="translate(0,587.2)"/>
<use xlink:href="#line_x" transform="translate(0,480.5)"/>
<use xlink:href="#line_x" transform="translate(0,373.9)"/>
<use xlink:href="#line_x" transform="translate(0,267.3)"/>
<use xlink:href="#line_x" transform="translate(0,160.6)"/>
<use xlink:href="#line_x" transform="translate(0,54.0)"/>
<use xlink:href="#tick_y" transform="translate(0,587.2)"/>
<use xlink:href="#tick_y" transform="translate(0,480.5)"/>
<use xlink:href="#tick_y" transform="translate(0,373.9)"/>
<use xlink:href="#tick_y" transform="translate(0,267.3)"/>
<use xlink:href="#tick_y" transform="translate(0,160.6)"/>
<use xlink:href="#tick_y" transform="translate(0,54.0)"/>
<use xlink:href="#tick_x" transform="translate(163.2,0)"/>
<use xlink:href="#tick_x" transform="translate(280.3,0)"/>
<use xlink:href="#tick_x" transform="translate(397.5,0)"/>
<use xlink:href="#tick_x" transform="translate(514.7,0)"/>
<use xlink:href="#tick_x" transform="translate(631.9,0)"/>
<use xlink:href="#tick_x" transform="translate(749.0,0)"/>
<use xlink:href="#tick_x" transform="translate(901.3,0)"/>
<polyline points="145.6,53.993 145.6,587.177 907.2,587.177" stroke="#808080" stroke-width="0.90" fill="none"/>
<text class="ticklabel xtl" transform="translate(163.2,629.0)" text-anchor="middle">1960</text>
<text class="ticklabel xtl" transform="translate(280.3,629.0)" text-anchor="middle">1970</text>
<text class="ticklabel xtl" transform="translate(397.5,629.0)" text-anchor="middle">1980</text>
<text class="ticklabel xtl" transform="translate(514.7,629.0)" text-anchor="middle">1990</text>
<text class="ticklabel xtl" transform="translate(631.9,629.0)" text-anchor="middle">2000</text>
<text class="ticklabel xtl" transform="translate(749.0,629.0)" text-anchor="middle">2010</text>
<text class="ticklabel xtl" transform="translate(901.3,629.0)" text-anchor="middle">2023</text>
<text class="ticklabel ytl" transform="translate(128.8,595.3)">0</text>
<text class="ticklabel ytl" transform="translate(128.8,488.6)">1</text>
<text class="ticklabel ytl" transform="translate(128.8,382.0)">2</text>
<text class="ticklabel ytl" transform="translate(128.8,275.4)">3</text>
<text class="ticklabel ytl" transform="translate(128.8,168.7)">4</text>
<text class="ticklabel ytl" transform="translate(128.8,62.1)">5 EJ</text>
<polyline class="pl" points="503.0,584.4 514.7,584.6 526.4,584.5 538.1,583.2 549.8,582.9 561.6,581.4 573.3,581.0 585.0,580.8 596.7,580.4 608.4,580.2 620.1,580.1 631.9,579.4 643.6,579.0 655.3,578.3 667.0,577.0 678.7,575.5 690.4,573.2 702.2,572.8 713.9,572.7 725.6,571.6 737.3,570.4 749.0,567.8 760.7,566.7 772.5,565.5 784.2,562.3 795.9,557.7 807.6,551.2 819.3,548.0 831.0,545.9 842.8,541.4 854.5,541.0 866.2,538.7 877.9,536.2 889.6,539.4 901.3,540.1" stroke="#FDBF6F" stroke-width="5.40" stroke-opacity="1.00" fill="none" clip-path="url(#axis_clip)"/>
<g class="pl" fill="#FFF" stroke="#FDBF6F" stroke-width="0.900">
  <circle cx="503.0" cy="584.4" r="2.2" />
  <circle cx="526.4" cy="584.5" r="2.2" />
  <circle cx="538.1" cy="583.2" r="2.2" />
  <circle cx="549.8" cy="582.9" r="2.2" />
  <circle cx="561.6" cy="581.4" r="2.2" />
  <circle cx="573.3" cy="581.0" r="2.2" />
  <circle cx="585.0" cy="580.8" r="2.2" />
  <circle cx="596.7" cy="580.4" r="2.2" />
  <circle cx="608.4" cy="580.2" r="2.2" />
  <circle cx="620.1" cy="580.1" r="2.2" />
  <circle cx="643.6" cy="579.0" r="2.2" />
  <circle cx="655.3" cy="578.3" r="2.2" />
  <circle cx="667.0" cy="577.0" r="2.2" />
  <circle cx="678.7" cy="575.5" r="2.2" />
  <circle cx="690.4" cy="573.2" r="2.2" />
  <circle cx="702.2" cy="572.8" r="2.2" />
  <circle cx="713.9" cy="572.7" r="2.2" />
  <circle cx="725.6" cy="571.6" r="2.2" />
  <circle cx="737.3" cy="570.4" r="2.2" />
  <circle cx="760.7" cy="566.7" r="2.2" />
  <circle cx="772.5" cy="565.5" r="2.2" />
  <circle cx="784.2" cy="562.3" r="2.2" />
  <circle cx="795.9" cy="557.7" r="2.2" />
  <circle cx="807.6" cy="551.2" r="2.2" />
  <circle cx="819.3" cy="548.0" r="2.2" />
  <circle cx="831.0" cy="545.9" r="2.2" />
  <circle cx="842.8" cy="541.4" r="2.2" />
  <circle cx="854.5" cy="541.0" r="2.2" />
  <circle cx="877.9" cy="536.2" r="2.2" />
  <circle cx="889.6" cy="539.4" r="2.2" />
  <circle cx="901.3" cy="540.1" r="2.2" />
</g>
<g class="pl" fill="#FFF" stroke="#FDBF6F" stroke-width="0.900">
  <circle cx="514.7" cy="584.6" r="5.4" />
  <circle cx="631.9" cy="579.4" r="5.4" />
  <circle cx="749.0" cy="567.8" r="5.4" />
  <circle cx="866.2" cy="538.7" r="5.4" />
</g>
<polyline class="pl" points="221.8,587.2 233.5,587.2 245.2,587.2 256.9,587.2 268.6,587.2 280.3,587.2 292.1,587.2 303.8,587.2 315.5,587.2 327.2,587.2 338.9,587.2 350.6,587.2 362.4,587.2 374.1,587.2 385.8,587.2 397.5,587.2 409.2,587.2 420.9,587.2 432.7,587.2 444.4,587.2 456.1,587.2 467.8,587.2 479.5,587.2 491.2,587.2 503.0,587.2 514.7,586.4 526.4,586.3 538.1,586.0 549.8,585.7 561.6,585.3 573.3,585.2 585.0,585.0 596.7,584.6 608.4,583.9 620.1,583.0 631.9,582.4 643.6,581.6 655.3,581.0 667.0,579.6 678.7,578.2 690.4,576.0 702.2,575.8 713.9,575.7 725.6,575.4 737.3,574.0 749.0,572.1 760.7,570.9 772.5,569.1 784.2,565.0 795.9,559.5 807.6,551.3 819.3,550.3 831.0,548.1 842.8,544.1 854.5,541.2 866.2,538.7 877.9,538.1 889.6,543.3 901.3,545.5" stroke="#E78AC3" stroke-width="5.40" stroke-opacity="1.00" fill="none" clip-path="url(#axis_clip)"/>
<g class="pl" fill="#FFF" stroke="#E78AC3" stroke-width="0.900">
  <circle cx="221.8" cy="587.2" r="2.2" />
  <circle cx="233.5" cy="587.2" r="2.2" />
  <circle cx="245.2" cy="587.2" r="2.2" />
  <circle cx="256.9" cy="587.2" r="2.2" />
  <circle cx="268.6" cy="587.2" r="2.2" />
  <circle cx="292.1" cy="587.2" r="2.2" />
  <circle cx="303.8" cy="587.2" r="2.2" />
  <circle cx="315.5" cy="587.2" r="2.2" />
  <circle cx="327.2" cy="587.2" r="2.2" />
  <circle cx="338.9" cy="587.2" r="2.2" />
  <circle cx="350.6" cy="587.2" r="2.2" />
  <circle cx="362.4" cy="587.2" r="2.2" />
  <circle cx="374.1" cy="587.2" r="2.2" />
  <circle cx="385.8" cy="587.2" r="2.2" />
  <circle cx="409.2" cy="587.2" r="2.2" />
  <circle cx="420.9" cy="587.2" r="2.2" />
  <circle cx="432.7" cy="587.2" r="2.2" />
  <circle cx="444.4" cy="587.2" r="2.2" />
  <circle cx="456.1" cy="587.2" r="2.2" />
  <circle cx="467.8" cy="587.2" r="2.2" />
  <circle cx="479.5" cy="587.2" r="2.2" />
  <circle cx="491.2" cy="587.2" r="2.2" />
  <circle cx="503.0" cy="587.2" r="2.2" />
  <circle cx="526.4" cy="586.3" r="2.2" />
  <circle cx="538.1" cy="586.0" r="2.2" />
  <circle cx="549.8" cy="585.7" r="2.2" />
  <circle cx="561.6" cy="585.3" r="2.2" />
  <circle cx="573.3" cy="585.2" r="2.2" />
  <circle cx="585.0" cy="585.0" r="2.2" />
  <circle cx="596.7" cy="584.6" r="2.2" />
  <circle cx="608.4" cy="583.9" r="2.2" />
  <circle cx="620.1" cy="583.0" r="2.2" />
  <circle cx="643.6" cy="581.6" r="2.2" />
  <circle cx="655.3" cy="581.0" r="2.2" />
  <circle cx="667.0" cy="579.6" r="2.2" />
  <circle cx="678.7" cy="578.2" r="2.2" />
  <circle cx="690.4" cy="576.0" r="2.2" />
  <circle cx="702.2" cy="575.8" r="2.2" />
  <circle cx="713.9" cy="575.7" r="2.2" />
  <circle cx="725.6" cy="575.4" r="2.2" />
  <circle cx="737.3" cy="574.0" r="2.2" />
  <circle cx="760.7" cy="570.9" r="2.2" />
  <circle cx="772.5" cy="569.1" r="2.2" />
  <circle cx="784.2" cy="565.0" r="2.2" />
  <circle cx="795.9" cy="559.5" r="2.2" />
  <circle cx="807.6" cy="551.3" r="2.2" />
  <circle cx="819.3" cy="550.3" r="2.2" />
  <circle cx="831.0" cy="548.1" r="2.2" />
  <circle cx="842.8" cy="544.1" r="2.2" />
  <circle cx="854.5" cy="541.2" r="2.2" />
  <circle cx="877.9" cy="538.1" r="2.2" />
  <circle cx="889.6" cy="543.3" r="2.2" />
  <circle cx="901.3" cy="545.5" r="2.2" />
</g>
<g class="pl" fill="#FFF" stroke="#E78AC3" stroke-width="0.900">
  <circle cx="280.3" cy="587.2" r="5.4" />
  <circle cx="397.5" cy="587.2" r="5.4" />
  <circle cx="514.7" cy="586.4" r="5.4" />
  <circle cx="631.9" cy="582.4" r="5.4" />
  <circle cx="749.0" cy="572.1" r="5.4" />
  <circle cx="866.2" cy="538.7" r="5.4" />
</g>
<polyline class="pl" points="514.7,587.2 526.4,587.2 538.1,587.2 549.8,587.2 561.6,587.2 573.3,587.2 585.0,587.2 596.7,587.2 608.4,587.2 620.1,587.2 631.9,587.2 643.6,587.2 655.3,587.2 667.0,587.1 678.7,587.1 690.4,586.9 702.2,586.4 713.9,585.6 725.6,583.6 737.3,582.8 749.0,582.1 760.7,582.4 772.5,583.2 784.2,582.6 795.9,582.0 807.6,583.0 819.3,583.0 831.0,583.0 842.8,581.5 854.5,579.9 866.2,580.3 877.9,580.3 889.6,578.3 901.3,577.5" stroke="#8DA0CB" stroke-width="5.40" stroke-opacity="1.00" fill="none" clip-path="url(#axis_clip)"/>
<g class="pl" fill="#FFF" stroke="#8DA0CB" stroke-width="0.900">
  <circle cx="526.4" cy="587.2" r="2.2" />
  <circle cx="538.1" cy="587.2" r="2.2" />
  <circle cx="549.8" cy="587.2" r="2.2" />
  <circle cx="561.6" cy="587.2" r="2.2" />
  <circle cx="573.3" cy="587.2" r="2.2" />
  <circle cx="585.0" cy="587.2" r="2.2" />
  <circle cx="596.7" cy="587.2" r="2.2" />
  <circle cx="608.4" cy="587.2" r="2.2" />
  <circle cx="620.1" cy="587.2" r="2.2" />
  <circle cx="643.6" cy="587.2" r="2.2" />
  <circle cx="655.3" cy="587.2" r="2.2" />
  <circle cx="667.0" cy="587.1" r="2.2" />
  <circle cx="678.7" cy="587.1" r="2.2" />
  <circle cx="690.4" cy="586.9" r="2.2" />
  <circle cx="702.2" cy="586.4" r="2.2" />
  <circle cx="713.9" cy="585.6" r="2.2" />
  <circle cx="725.6" cy="583.6" r="2.2" />
  <circle cx="737.3" cy="582.8" r="2.2" />
  <circle cx="760.7" cy="582.4" r="2.2" />
  <circle cx="772.5" cy="583.2" r="2.2" />
  <circle cx="784.2" cy="582.6" r="2.2" />
  <circle cx="795.9" cy="582.0" r="2.2" />
  <circle cx="807.6" cy="583.0" r="2.2" />
  <circle cx="819.3" cy="583.0" r="2.2" />
  <circle cx="831.0" cy="583.0" r="2.2" />
  <circle cx="842.8" cy="581.5" r="2.2" />
  <circle cx="854.5" cy="579.9" r="2.2" />
  <circle cx="877.9" cy="580.3" r="2.2" />
  <circle cx="889.6" cy="578.3" r="2.2" />
  <circle cx="901.3" cy="577.5" r="2.2" />
</g>
<g class="pl" fill="#FFF" stroke="#8DA0CB" stroke-width="0.900">
  <circle cx="514.7" cy="587.2" r="5.4" />
  <circle cx="631.9" cy="587.2" r="5.4" />
  <circle cx="749.0" cy="582.1" r="5.4" />
  <circle cx="866.2" cy="580.3" r="5.4" />
</g>
<polyline class="pl" points="221.8,570.7 233.5,565.2 245.2,561.8 256.9,558.6 268.6,555.5 280.3,558.8 292.1,557.2 303.8,555.2 315.5,556.7 327.2,550.6 338.9,554.1 350.6,547.8 362.4,543.6 374.1,546.6 385.8,545.4 397.5,546.8 409.2,545.8 420.9,539.3 432.7,532.8 444.4,528.4 456.1,520.6 467.8,522.8 479.5,527.0 491.2,518.1 503.0,509.0 514.7,515.6 526.4,510.3 538.1,503.5 549.8,489.8 561.6,491.0 573.3,490.3 585.0,484.1 596.7,480.3 608.4,478.8 620.1,483.5 631.9,494.5 643.6,489.7 655.3,492.7 667.0,492.4 678.7,502.3 690.4,501.1 702.2,508.1 713.9,521.5 725.6,532.8 737.3,516.1 749.0,523.6 760.7,517.1 772.5,516.1 784.2,516.3 795.9,523.6 807.6,517.4 819.3,516.4 831.0,518.2 842.8,523.8 854.5,532.6 866.2,538.5 877.9,542.9 889.6,541.3 901.3,548.2" stroke="#FC8D62" stroke-width="5.40" stroke-opacity="1.00" fill="none" clip-path="url(#axis_clip)"/>
<g class="pl" fill="#FFF" stroke="#FC8D62" stroke-width="0.900">
  <circle cx="221.8" cy="570.7" r="2.2" />
  <circle cx="233.5" cy="565.2" r="2.2" />
  <circle cx="245.2" cy="561.8" r="2.2" />
  <circle cx="256.9" cy="558.6" r="2.2" />
  <circle cx="268.6" cy="555.5" r="2.2" />
  <circle cx="292.1" cy="557.2" r="2.2" />
  <circle cx="303.8" cy="555.2" r="2.2" />
  <circle cx="315.5" cy="556.7" r="2.2" />
  <circle cx="327.2" cy="550.6" r="2.2" />
  <circle cx="338.9" cy="554.1" r="2.2" />
  <circle cx="350.6" cy="547.8" r="2.2" />
  <circle cx="362.4" cy="543.6" r="2.2" />
  <circle cx="374.1" cy="546.6" r="2.2" />
  <circle cx="385.8" cy="545.4" r="2.2" />
  <circle cx="409.2" cy="545.8" r="2.2" />
  <circle cx="420.9" cy="539.3" r="2.2" />
  <circle cx="432.7" cy="532.8" r="2.2" />
  <circle cx="444.4" cy="528.4" r="2.2" />
  <circle cx="456.1" cy="520.6" r="2.2" />
  <circle cx="467.8" cy="522.8" r="2.2" />
  <circle cx="479.5" cy="527.0" r="2.2" />
  <circle cx="491.2" cy="518.1" r="2.2" />
  <circle cx="503.0" cy="509.0" r="2.2" />
  <circle cx="526.4" cy="510.3" r="2.2" />
  <circle cx="538.1" cy="503.5" r="2.2" />
  <circle cx="549.8" cy="489.8" r="2.2" />
  <circle cx="561.6" cy="491.0" r="2.2" />
  <circle cx="573.3" cy="490.3" r="2.2" />
  <circle cx="585.0" cy="484.1" r="2.2" />
  <circle cx="596.7" cy="480.3" r="2.2" />
  <circle cx="608.4" cy="478.8" r="2.2" />
  <circle cx="620.1" cy="483.5" r="2.2" />
  <circle cx="643.6" cy="489.7" r="2.2" />
  <circle cx="655.3" cy="492.7" r="2.2" />
  <circle cx="667.0" cy="492.4" r="2.2" />
  <circle cx="678.7" cy="502.3" r="2.2" />
  <circle cx="690.4" cy="501.1" r="2.2" />
  <circle cx="702.2" cy="508.1" r="2.2" />
  <circle cx="713.9" cy="521.5" r="2.2" />
  <circle cx="725.6" cy="532.8" r="2.2" />
  <circle cx="737.3" cy="516.1" r="2.2" />
  <circle cx="760.7" cy="517.1" r="2.2" />
  <circle cx="772.5" cy="516.1" r="2.2" />
  <circle cx="784.2" cy="516.3" r="2.2" />
  <circle cx="795.9" cy="523.6" r="2.2" />
  <circle cx="807.6" cy="517.4" r="2.2" />
  <circle cx="819.3" cy="516.4" r="2.2" />
  <circle cx="831.0" cy="518.2" r="2.2" />
  <circle cx="842.8" cy="523.8" r="2.2" />
  <circle cx="854.5" cy="532.6" r="2.2" />
  <circle cx="877.9" cy="542.9" r="2.2" />
  <circle cx="889.6" cy="541.3" r="2.2" />
  <circle cx="901.3" cy="548.2" r="2.2" />
</g>
<g class="pl" fill="#FFF" stroke="#FC8D62" stroke-width="0.900">
  <circle cx="280.3" cy="558.8" r="5.4" />
  <circle cx="397.5" cy="546.8" r="5.4" />
  <circle cx="514.7" cy="515.6" r="5.4" />
  <circle cx="631.9" cy="494.5" r="5.4" />
  <circle cx="749.0" cy="523.6" r="5.4" />
  <circle cx="866.2" cy="538.5" r="5.4" />
</g>
<polyline class="pl" points="221.8,581.9 233.5,582.0 245.2,581.6 256.9,583.0 268.6,583.5 280.3,582.0 292.1,583.3 303.8,583.3 315.5,582.8 327.2,582.6 338.9,582.8 350.6,582.0 362.4,582.7 374.1,582.6 385.8,582.3 397.5,582.7 409.2,582.2 420.9,582.0 432.7,582.0 444.4,582.0 456.1,582.7 467.8,581.8 479.5,582.4 491.2,581.6 503.0,581.8 514.7,581.4 526.4,582.0 538.1,581.1 549.8,582.3 561.6,581.4 573.3,581.9 585.0,583.3 596.7,582.2 608.4,581.4 620.1,581.1 631.9,581.4 643.6,582.6 655.3,581.8 667.0,583.6 678.7,581.8 690.4,581.8 702.2,582.2 713.9,581.7 725.6,581.6 737.3,581.6 749.0,583.3 760.7,581.1 772.5,581.6 784.2,582.3 795.9,581.1 807.6,580.7 819.3,581.7 831.0,581.2 842.8,581.6 854.5,581.2 866.2,580.3 877.9,581.8 889.6,581.5 901.3,582.0" stroke="#66C2A5" stroke-width="5.40" stroke-opacity="1.00" fill="none" clip-path="url(#axis_clip)"/>
<g class="pl" fill="#FFF" stroke="#66C2A5" stroke-width="0.900">
  <circle cx="221.8" cy="581.9" r="2.2" />
  <circle cx="233.5" cy="582.0" r="2.2" />
  <circle cx="245.2" cy="581.6" r="2.2" />
  <circle cx="256.9" cy="583.0" r="2.2" />
  <circle cx="268.6" cy="583.5" r="2.2" />
  <circle cx="292.1" cy="583.3" r="2.2" />
  <circle cx="303.8" cy="583.3" r="2.2" />
  <circle cx="315.5" cy="582.8" r="2.2" />
  <circle cx="327.2" cy="582.6" r="2.2" />
  <circle cx="338.9" cy="582.8" r="2.2" />
  <circle cx="350.6" cy="582.0" r="2.2" />
  <circle cx="362.4" cy="582.7" r="2.2" />
  <circle cx="374.1" cy="582.6" r="2.2" />
  <circle cx="385.8" cy="582.3" r="2.2" />
  <circle cx="409.2" cy="582.2" r="2.2" />
  <circle cx="420.9" cy="582.0" r="2.2" />
  <circle cx="432.7" cy="582.0" r="2.2" />
  <circle cx="444.4" cy="582.0" r="2.2" />
  <circle cx="456.1" cy="582.7" r="2.2" />
  <circle cx="467.8" cy="581.8" r="2.2" />
  <circle cx="479.5" cy="582.4" r="2.2" />
  <circle cx="491.2" cy="581.6" r="2.2" />
  <circle cx="503.0" cy="581.8" r="2.2" />
  <circle cx="526.4" cy="582.0" r="2.2" />
  <circle cx="538.1" cy="581.1" r="2.2" />
  <circle cx="549.8" cy="582.3" r="2.2" />
  <circle cx="561.6" cy="581.4" r="2.2" />
  <circle cx="573.3" cy="581.9" r="2.2" />
  <circle cx="585.0" cy="583.3" r="2.2" />
  <circle cx="596.7" cy="582.2" r="2.2" />
  <circle cx="608.4" cy="581.4" r="2.2" />
  <circle cx="620.1" cy="581.1" r="2.2" />
  <circle cx="643.6" cy="582.6" r="2.2" />
  <circle cx="655.3" cy="581.8" r="2.2" />
  <circle cx="667.0" cy="583.6" r="2.2" />
  <circle cx="678.7" cy="581.8" r="2.2" />
  <circle cx="690.4" cy="581.8" r="2.2" />
  <circle cx="702.2" cy="582.2" r="2.2" />
  <circle cx="713.9" cy="581.7" r="2.2" />
  <circle cx="725.6" cy="581.6" r="2.2" />
  <circle cx="737.3" cy="581.6" r="2.2" />
  <circle cx="760.7" cy="581.1" r="2.2" />
  <circle cx="772.5" cy="581.6" r="2.2" />
  <circle cx="784.2" cy="582.3" r="2.2" />
  <circle cx="795.9" cy="581.1" r="2.2" />
  <circle cx="807.6" cy="580.7" r="2.2" />
  <circle cx="819.3" cy="581.7" r="2.2" />
  <circle cx="831.0" cy="581.2" r="2.2" />
  <circle cx="842.8" cy="581.6" r="2.2" />
  <circle cx="854.5" cy="581.2" r="2.2" />
  <circle cx="877.9" cy="581.8" r="2.2" />
  <circle cx="889.6" cy="581.5" r="2.2" />
  <circle cx="901.3" cy="582.0" r="2.2" />
</g>
<g class="pl" fill="#FFF" stroke="#66C2A5" stroke-width="0.900">
  <circle cx="280.3" cy="582.0" r="5.4" />
  <circle cx="397.5" cy="582.7" r="5.4" />
  <circle cx="514.7" cy="581.4" r="5.4" />
  <circle cx="631.9" cy="581.4" r="5.4" />
  <circle cx="749.0" cy="583.3" r="5.4" />
  <circle cx="866.2" cy="580.3" r="5.4" />
</g>
<polyline class="pl" points="221.8,587.2 233.5,587.2 245.2,587.2 256.9,587.2 268.6,587.2 280.3,587.2 292.1,587.2 303.8,587.2 315.5,587.2 327.2,587.2 338.9,587.2 350.6,587.2 362.4,587.2 374.1,587.2 385.8,587.2 397.5,587.2 409.2,587.2 420.9,587.2 432.7,587.2 444.4,587.2 456.1,587.2 467.8,587.2 479.5,587.2 491.2,587.2 503.0,587.2 514.7,587.2 526.4,587.2 538.1,587.2 549.8,587.2 561.6,587.2 573.3,587.2 585.0,587.2 596.7,587.2 608.4,587.2 620.1,587.2 631.9,587.2 643.6,587.2 655.3,587.2 667.0,587.2 678.7,587.2 690.4,587.2 702.2,587.2 713.9,587.2 725.6,587.2 737.3,587.2 749.0,587.1 760.7,586.9 772.5,585.8 784.2,585.1 795.9,583.0 807.6,579.4 819.3,576.5 831.0,575.5 842.8,574.3 854.5,574.6 866.2,574.6 877.9,575.0 889.6,573.9 901.3,573.4" stroke="#E5C494" stroke-width="5.40" stroke-opacity="1.00" fill="none" clip-path="url(#axis_clip)"/>
<g class="pl" fill="#FFF" stroke="#E5C494" stroke-width="0.900">
  <circle cx="221.8" cy="587.2" r="2.2" />
  <circle cx="233.5" cy="587.2" r="2.2" />
  <circle cx="245.2" cy="587.2" r="2.2" />
  <circle cx="256.9" cy="587.2" r="2.2" />
  <circle cx="268.6" cy="587.2" r="2.2" />
  <circle cx="292.1" cy="587.2" r="2.2" />
  <circle cx="303.8" cy="587.2" r="2.2" />
  <circle cx="315.5" cy="587.2" r="2.2" />
  <circle cx="327.2" cy="587.2" r="2.2" />
  <circle cx="338.9" cy="587.2" r="2.2" />
  <circle cx="350.6" cy="587.2" r="2.2" />
  <circle cx="362.4" cy="587.2" r="2.2" />
  <circle cx="374.1" cy="587.2" r="2.2" />
  <circle cx="385.8" cy="587.2" r="2.2" />
  <circle cx="409.2" cy="587.2" r="2.2" />
  <circle cx="420.9" cy="587.2" r="2.2" />
  <circle cx="432.7" cy="587.2" r="2.2" />
  <circle cx="444.4" cy="587.2" r="2.2" />
  <circle cx="456.1" cy="587.2" r="2.2" />
  <circle cx="467.8" cy="587.2" r="2.2" />
  <circle cx="479.5" cy="587.2" r="2.2" />
  <circle cx="491.2" cy="587.2" r="2.2" />
  <circle cx="503.0" cy="587.2" r="2.2" />
  <circle cx="526.4" cy="587.2" r="2.2" />
  <circle cx="538.1" cy="587.2" r="2.2" />
  <circle cx="549.8" cy="587.2" r="2.2" />
  <circle cx="561.6" cy="587.2" r="2.2" />
  <circle cx="573.3" cy="587.2" r="2.2" />
  <circle cx="585.0" cy="587.2" r="2.2" />
  <circle cx="596.7" cy="587.2" r="2.2" />
  <circle cx="608.4" cy="587.2" r="2.2" />
  <circle cx="620.1" cy="587.2" r="2.2" />
  <circle cx="643.6" cy="587.2" r="2.2" />
  <circle cx="655.3" cy="587.2" r="2.2" />
  <circle cx="667.0" cy="587.2" r="2.2" />
  <circle cx="678.7" cy="587.2" r="2.2" />
  <circle cx="690.4" cy="587.2" r="2.2" />
  <circle cx="702.2" cy="587.2" r="2.2" />
  <circle cx="713.9" cy="587.2" r="2.2" />
  <circle cx="725.6" cy="587.2" r="2.2" />
  <circle cx="737.3" cy="587.2" r="2.2" />
  <circle cx="760.7" cy="586.9" r="2.2" />
  <circle cx="772.5" cy="585.8" r="2.2" />
  <circle cx="784.2" cy="585.1" r="2.2" />
  <circle cx="795.9" cy="583.0" r="2.2" />
  <circle cx="807.6" cy="579.4" r="2.2" />
  <circle cx="819.3" cy="576.5" r="2.2" />
  <circle cx="831.0" cy="575.5" r="2.2" />
  <circle cx="842.8" cy="574.3" r="2.2" />
  <circle cx="854.5" cy="574.6" r="2.2" />
  <circle cx="877.9" cy="575.0" r="2.2" />
  <circle cx="889.6" cy="573.9" r="2.2" />
  <circle cx="901.3" cy="573.4" r="2.2" />
</g>
<g class="pl" fill="#FFF" stroke="#E5C494" stroke-width="0.900">
  <circle cx="280.3" cy="587.2" r="5.4" />
  <circle cx="397.5" cy="587.2" r="5.4" />
  <circle cx="514.7" cy="587.2" r="5.4" />
  <circle cx="631.9" cy="587.2" r="5.4" />
  <circle cx="749.0" cy="587.1" r="5.4" />
  <circle cx="866.2" cy="574.6" r="5.4" />
</g>
<polyline class="pl" points="221.8,587.2 233.5,587.2 245.2,587.2 256.9,587.2 268.6,587.2 280.3,587.2 292.1,587.2 303.8,587.2 315.5,587.2 327.2,587.2 338.9,587.2 350.6,587.2 362.4,587.2 374.1,587.2 385.8,587.2 397.5,587.2 409.2,587.2 420.9,587.2 432.7,587.2 444.4,587.2 456.1,587.2 467.8,587.2 479.5,587.2 491.2,587.2 503.0,587.2 514.7,587.2 526.4,587.2 538.1,587.1 549.8,586.9 561.6,586.8 573.3,586.7 585.0,586.6 596.7,586.4 608.4,586.2 620.1,586.2 631.9,586.1 643.6,586.1 655.3,585.8 667.0,585.7 678.7,585.0 690.4,584.0 702.2,582.5 713.9,581.5 725.6,579.5 737.3,577.2 749.0,576.2 760.7,570.3 772.5,566.3 784.2,557.5 795.9,553.9 807.6,545.5 819.3,549.0 831.0,536.5 842.8,529.4 854.5,522.6 866.2,511.2 877.9,522.2 889.6,506.9 901.3,505.4" stroke="#FFD92F" stroke-width="5.40" stroke-opacity="1.00" fill="none" clip-path="url(#axis_clip)"/>
<g class="pl" fill="#FFF" stroke="#FFD92F" stroke-width="0.900">
  <circle cx="221.8" cy="587.2" r="2.2" />
  <circle cx="233.5" cy="587.2" r="2.2" />
  <circle cx="245.2" cy="587.2" r="2.2" />
  <circle cx="256.9" cy="587.2" r="2.2" />
  <circle cx="268.6" cy="587.2" r="2.2" />
  <circle cx="292.1" cy="587.2" r="2.2" />
  <circle cx="303.8" cy="587.2" r="2.2" />
  <circle cx="315.5" cy="587.2" r="2.2" />
  <circle cx="327.2" cy="587.2" r="2.2" />
  <circle cx="338.9" cy="587.2" r="2.2" />
  <circle cx="350.6" cy="587.2" r="2.2" />
  <circle cx="362.4" cy="587.2" r="2.2" />
  <circle cx="374.1" cy="587.2" r="2.2" />
  <circle cx="385.8" cy="587.2" r="2.2" />
  <circle cx="409.2" cy="587.2" r="2.2" />
  <circle cx="420.9" cy="587.2" r="2.2" />
  <circle cx="432.7" cy="587.2" r="2.2" />
  <circle cx="444.4" cy="587.2" r="2.2" />
  <circle cx="456.1" cy="587.2" r="2.2" />
  <circle cx="467.8" cy="587.2" r="2.2" />
  <circle cx="479.5" cy="587.2" r="2.2" />
  <circle cx="491.2" cy="587.2" r="2.2" />
  <circle cx="503.0" cy="587.2" r="2.2" />
  <circle cx="526.4" cy="587.2" r="2.2" />
  <circle cx="538.1" cy="587.1" r="2.2" />
  <circle cx="549.8" cy="586.9" r="2.2" />
  <circle cx="561.6" cy="586.8" r="2.2" />
  <circle cx="573.3" cy="586.7" r="2.2" />
  <circle cx="585.0" cy="586.6" r="2.2" />
  <circle cx="596.7" cy="586.4" r="2.2" />
  <circle cx="608.4" cy="586.2" r="2.2" />
  <circle cx="620.1" cy="586.2" r="2.2" />
  <circle cx="643.6" cy="586.1" r="2.2" />
  <circle cx="655.3" cy="585.8" r="2.2" />
  <circle cx="667.0" cy="585.7" r="2.2" />
  <circle cx="678.7" cy="585.0" r="2.2" />
  <circle cx="690.4" cy="584.0" r="2.2" />
  <circle cx="702.2" cy="582.5" r="2.2" />
  <circle cx="713.9" cy="581.5" r="2.2" />
  <circle cx="725.6" cy="579.5" r="2.2" />
  <circle cx="737.3" cy="577.2" r="2.2" />
  <circle cx="760.7" cy="570.3" r="2.2" />
  <circle cx="772.5" cy="566.3" r="2.2" />
  <circle cx="784.2" cy="557.5" r="2.2" />
  <circle cx="795.9" cy="553.9" r="2.2" />
  <circle cx="807.6" cy="545.5" r="2.2" />
  <circle cx="819.3" cy="549.0" r="2.2" />
  <circle cx="831.0" cy="536.5" r="2.2" />
  <circle cx="842.8" cy="529.4" r="2.2" />
  <circle cx="854.5" cy="522.6" r="2.2" />
  <circle cx="877.9" cy="522.2" r="2.2" />
  <circle cx="889.6" cy="506.9" r="2.2" />
  <circle cx="901.3" cy="505.4" r="2.2" />
</g>
<g class="pl" fill="#FFF" stroke="#FFD92F" stroke-width="0.900">
  <circle cx="280.3" cy="587.2" r="5.4" />
  <circle cx="397.5" cy="587.2" r="5.4" />
  <circle cx="514.7" cy="587.2" r="5.4" />
  <circle cx="631.9" cy="586.1" r="5.4" />
  <circle cx="749.0" cy="576.2" r="5.4" />
  <circle cx="866.2" cy="511.2" r="5.4" />
</g>
<polyline class="pl" points="221.8,583.9 233.5,584.0 245.2,581.8 256.9,574.9 268.6,563.3 280.3,541.8 292.1,514.0 303.8,483.3 315.5,474.8 327.2,452.7 338.9,446.3 350.6,437.7 362.4,428.4 374.1,422.4 385.8,406.7 397.5,407.2 409.2,404.8 420.9,405.7 432.7,398.0 444.4,393.6 456.1,379.0 467.8,375.6 479.5,369.8 491.2,380.2 503.0,384.9 514.7,376.5 526.4,359.6 538.1,360.7 549.8,329.1 561.6,321.4 573.3,303.8 585.0,257.1 596.7,247.7 608.4,234.2 620.1,211.4 631.9,198.1 643.6,200.0 655.3,205.1 667.0,204.0 678.7,195.7 690.4,205.6 702.2,225.3 713.9,221.3 725.6,211.6 737.3,237.0 749.0,209.1 760.7,272.7 772.5,292.0 784.2,294.2 795.9,318.2 807.6,310.6 819.3,280.5 831.0,286.9 842.8,284.5 854.5,288.2 866.2,306.4 877.9,291.9 889.6,315.0 901.3,343.4" stroke="#6298C6" stroke-width="5.40" stroke-opacity="1.00" fill="none" clip-path="url(#axis_clip)"/>
<g class="pl" fill="#FFF" stroke="#6298C6" stroke-width="0.900">
  <circle cx="221.8" cy="583.9" r="2.2" />
  <circle cx="233.5" cy="584.0" r="2.2" />
  <circle cx="245.2" cy="581.8" r="2.2" />
  <circle cx="256.9" cy="574.9" r="2.2" />
  <circle cx="268.6" cy="563.3" r="2.2" />
  <circle cx="292.1" cy="514.0" r="2.2" />
  <circle cx="303.8" cy="483.3" r="2.2" />
  <circle cx="315.5" cy="474.8" r="2.2" />
  <circle cx="327.2" cy="452.7" r="2.2" />
  <circle cx="338.9" cy="446.3" r="2.2" />
  <circle cx="350.6" cy="437.7" r="2.2" />
  <circle cx="362.4" cy="428.4" r="2.2" />
  <circle cx="374.1" cy="422.4" r="2.2" />
  <circle cx="385.8" cy="406.7" r="2.2" />
  <circle cx="409.2" cy="404.8" r="2.2" />
  <circle cx="420.9" cy="405.7" r="2.2" />
  <circle cx="432.7" cy="398.0" r="2.2" />
  <circle cx="444.4" cy="393.6" r="2.2" />
  <circle cx="456.1" cy="379.0" r="2.2" />
  <circle cx="467.8" cy="375.6" r="2.2" />
  <circle cx="479.5" cy="369.8" r="2.2" />
  <circle cx="491.2" cy="380.2" r="2.2" />
  <circle cx="503.0" cy="384.9" r="2.2" />
  <circle cx="526.4" cy="359.6" r="2.2" />
  <circle cx="538.1" cy="360.7" r="2.2" />
  <circle cx="549.8" cy="329.1" r="2.2" />
  <circle cx="561.6" cy="321.4" r="2.2" />
  <circle cx="573.3" cy="303.8" r="2.2" />
  <circle cx="585.0" cy="257.1" r="2.2" />
  <circle cx="596.7" cy="247.7" r="2.2" />
  <circle cx="608.4" cy="234.2" r="2.2" />
  <circle cx="620.1" cy="211.4" r="2.2" />
  <circle cx="643.6" cy="200.0" r="2.2" />
  <circle cx="655.3" cy="205.1" r="2.2" />
  <circle cx="667.0" cy="204.0" r="2.2" />
  <circle cx="678.7" cy="195.7" r="2.2" />
  <circle cx="690.4" cy="205.6" r="2.2" />
  <circle cx="702.2" cy="225.3" r="2.2" />
  <circle cx="713.9" cy="221.3" r="2.2" />
  <circle cx="725.6" cy="211.6" r="2.2" />
  <circle cx="737.3" cy="237.0" r="2.2" />
  <circle cx="760.7" cy="272.7" r="2.2" />
  <circle cx="772.5" cy="292.0" r="2.2" />
  <circle cx="784.2" cy="294.2" r="2.2" />
  <circle cx="795.9" cy="318.2" r="2.2" />
  <circle cx="807.6" cy="310.6" r="2.2" />
  <circle cx="819.3" cy="280.5" r="2.2" />
  <circle cx="831.0" cy="286.9" r="2.2" />
  <circle cx="842.8" cy="284.5" r="2.2" />
  <circle cx="854.5" cy="288.2" r="2.2" />
  <circle cx="877.9" cy="291.9" r="2.2" />
  <circle cx="889.6" cy="315.0" r="2.2" />
  <circle cx="901.3" cy="343.4" r="2.2" />
</g>
<g class="pl" fill="#FFF" stroke="#6298C6" stroke-width="0.900">
  <circle cx="280.3" cy="541.8" r="5.4" />
  <circle cx="397.5" cy="407.2" r="5.4" />
  <circle cx="514.7" cy="376.5" r="5.4" />
  <circle cx="631.9" cy="198.1" r="5.4" />
  <circle cx="749.0" cy="209.1" r="5.4" />
  <circle cx="866.2" cy="306.4" r="5.4" />
</g>
<polyline class="pl" points="221.8,247.2 233.5,222.9 245.2,195.7 256.9,172.8 268.6,141.7 280.3,115.5 292.1,113.0 303.8,84.4 315.5,71.0 327.2,107.7 338.9,167.9 350.6,170.3 362.4,166.8 374.1,156.0 385.8,152.1 397.5,215.1 409.2,242.7 420.9,238.8 432.7,252.1 444.4,175.3 456.1,229.3 467.8,228.5 479.5,238.4 491.2,216.1 503.0,207.9 514.7,203.0 526.4,204.8 538.1,200.5 549.8,198.6 561.6,202.6 573.3,207.1 585.0,197.7 596.7,208.9 608.4,212.9 620.1,217.8 631.9,221.7 643.6,223.4 655.3,226.2 667.0,223.4 678.7,213.3 690.4,202.6 702.2,206.4 713.9,217.0 725.6,224.7 737.3,241.9 749.0,247.5 760.7,254.3 772.5,263.3 784.2,269.1 795.9,268.8 807.6,260.1 819.3,253.0 831.0,248.6 842.8,252.7 854.5,259.4 866.2,334.9 877.9,325.5 889.6,304.6 901.3,300.5" stroke="#404040" stroke-width="5.40" stroke-opacity="1.00" fill="none" clip-path="url(#axis_clip)"/>
<g class="pl" fill="#FFF" stroke="#404040" stroke-width="0.900">
  <circle cx="221.8" cy="247.2" r="2.2" />
  <circle cx="233.5" cy="222.9" r="2.2" />
  <circle cx="245.2" cy="195.7" r="2.2" />
  <circle cx="256.9" cy="172.8" r="2.2" />
  <circle cx="268.6" cy="141.7" r="2.2" />
  <circle cx="292.1" cy="113.0" r="2.2" />
  <circle cx="303.8" cy="84.4" r="2.2" />
  <circle cx="315.5" cy="71.0" r="2.2" />
  <circle cx="327.2" cy="107.7" r="2.2" />
  <circle cx="338.9" cy="167.9" r="2.2" />
  <circle cx="350.6" cy="170.3" r="2.2" />
  <circle cx="362.4" cy="166.8" r="2.2" />
  <circle cx="374.1" cy="156.0" r="2.2" />
  <circle cx="385.8" cy="152.1" r="2.2" />
  <circle cx="409.2" cy="242.7" r="2.2" />
  <circle cx="420.9" cy="238.8" r="2.2" />
  <circle cx="432.7" cy="252.1" r="2.2" />
  <circle cx="444.4" cy="175.3" r="2.2" />
  <circle cx="456.1" cy="229.3" r="2.2" />
  <circle cx="467.8" cy="228.5" r="2.2" />
  <circle cx="479.5" cy="238.4" r="2.2" />
  <circle cx="491.2" cy="216.1" r="2.2" />
  <circle cx="503.0" cy="207.9" r="2.2" />
  <circle cx="526.4" cy="204.8" r="2.2" />
  <circle cx="538.1" cy="200.5" r="2.2" />
  <circle cx="549.8" cy="198.6" r="2.2" />
  <circle cx="561.6" cy="202.6" r="2.2" />
  <circle cx="573.3" cy="207.1" r="2.2" />
  <circle cx="585.0" cy="197.7" r="2.2" />
  <circle cx="596.7" cy="208.9" r="2.2" />
  <circle cx="608.4" cy="212.9" r="2.2" />
  <circle cx="620.1" cy="217.8" r="2.2" />
  <circle cx="643.6" cy="223.4" r="2.2" />
  <circle cx="655.3" cy="226.2" r="2.2" />
  <circle cx="667.0" cy="223.4" r="2.2" />
  <circle cx="678.7" cy="213.3" r="2.2" />
  <circle cx="690.4" cy="202.6" r="2.2" />
  <circle cx="702.2" cy="206.4" r="2.2" />
  <circle cx="713.9" cy="217.0" r="2.2" />
  <circle cx="725.6" cy="224.7" r="2.2" />
  <circle cx="737.3" cy="241.9" r="2.2" />
  <circle cx="760.7" cy="254.3" r="2.2" />
  <circle cx="772.5" cy="263.3" r="2.2" />
  <circle cx="784.2" cy="269.1" r="2.2" />
  <circle cx="795.9" cy="268.8" r="2.2" />
  <circle cx="807.6" cy="260.1" r="2.2" />
  <circle cx="819.3" cy="253.0" r="2.2" />
  <circle cx="831.0" cy="248.6" r="2.2" />
  <circle cx="842.8" cy="252.7" r="2.2" />
  <circle cx="854.5" cy="259.4" r="2.2" />
  <circle cx="877.9" cy="325.5" r="2.2" />
  <circle cx="889.6" cy="304.6" r="2.2" />
  <circle cx="901.3" cy="300.5" r="2.2" />
</g>
<g class="pl" fill="#FFF" stroke="#404040" stroke-width="0.900">
  <circle cx="280.3" cy="115.5" r="5.4" />
  <circle cx="397.5" cy="215.1" r="5.4" />
  <circle cx="514.7" cy="203.0" r="5.4" />
  <circle cx="631.9" cy="221.7" r="5.4" />
  <circle cx="749.0" cy="247.5" r="5.4" />
  <circle cx="866.2" cy="334.9" r="5.4" />
</g>
<polyline class="pl" points="221.8,63.0 233.5,88.3 245.2,121.2 256.9,120.8 268.6,132.6 280.3,158.5 292.1,207.2 303.8,254.4 315.5,226.7 327.2,269.8 338.9,267.9 350.6,262.3 362.4,261.2 374.1,269.6 385.8,245.9 397.5,269.9 409.2,271.6 420.9,292.9 432.7,290.1 444.4,376.1 456.1,306.4 467.8,284.0 479.5,276.6 491.2,285.7 503.0,297.0 514.7,297.2 526.4,296.7 538.1,314.1 549.8,349.4 561.6,365.1 573.3,375.3 585.0,389.1 596.7,410.5 608.4,414.9 620.1,434.0 631.9,423.2 643.6,413.4 655.3,427.7 667.0,417.1 678.7,421.1 690.4,418.1 702.2,402.5 713.9,413.3 725.6,425.8 737.3,454.1 749.0,451.0 760.7,449.9 772.5,413.9 784.2,420.2 795.9,452.4 807.6,480.7 819.3,533.0 831.0,543.3 842.8,550.2 854.5,560.7 866.2,563.1 877.9,562.5 889.6,564.8 901.3,567.6" stroke="#7B553E" stroke-width="5.40" stroke-opacity="1.00" fill="none" clip-path="url(#axis_clip)"/>
<g class="pl" fill="#FFF" stroke="#7B553E" stroke-width="0.900">
  <circle cx="221.8" cy="63.0" r="2.2" />
  <circle cx="233.5" cy="88.3" r="2.2" />
  <circle cx="245.2" cy="121.2" r="2.2" />
  <circle cx="256.9" cy="120.8" r="2.2" />
  <circle cx="268.6" cy="132.6" r="2.2" />
  <circle cx="292.1" cy="207.2" r="2.2" />
  <circle cx="303.8" cy="254.4" r="2.2" />
  <circle cx="315.5" cy="226.7" r="2.2" />
  <circle cx="327.2" cy="269.8" r="2.2" />
  <circle cx="338.9" cy="267.9" r="2.2" />
  <circle cx="350.6" cy="262.3" r="2.2" />
  <circle cx="362.4" cy="261.2" r="2.2" />
  <circle cx="374.1" cy="269.6" r="2.2" />
  <circle cx="385.8" cy="245.9" r="2.2" />
  <circle cx="409.2" cy="271.6" r="2.2" />
  <circle cx="420.9" cy="292.9" r="2.2" />
  <circle cx="432.7" cy="290.1" r="2.2" />
  <circle cx="444.4" cy="376.1" r="2.2" />
  <circle cx="456.1" cy="306.4" r="2.2" />
  <circle cx="467.8" cy="284.0" r="2.2" />
  <circle cx="479.5" cy="276.6" r="2.2" />
  <circle cx="491.2" cy="285.7" r="2.2" />
  <circle cx="503.0" cy="297.0" r="2.2" />
  <circle cx="526.4" cy="296.7" r="2.2" />
  <circle cx="538.1" cy="314.1" r="2.2" />
  <circle cx="549.8" cy="349.4" r="2.2" />
  <circle cx="561.6" cy="365.1" r="2.2" />
  <circle cx="573.3" cy="375.3" r="2.2" />
  <circle cx="585.0" cy="389.1" r="2.2" />
  <circle cx="596.7" cy="410.5" r="2.2" />
  <circle cx="608.4" cy="414.9" r="2.2" />
  <circle cx="620.1" cy="434.0" r="2.2" />
  <circle cx="643.6" cy="413.4" r="2.2" />
  <circle cx="655.3" cy="427.7" r="2.2" />
  <circle cx="667.0" cy="417.1" r="2.2" />
  <circle cx="678.7" cy="421.1" r="2.2" />
  <circle cx="690.4" cy="418.1" r="2.2" />
  <circle cx="702.2" cy="402.5" r="2.2" />
  <circle cx="713.9" cy="413.3" r="2.2" />
  <circle cx="725.6" cy="425.8" r="2.2" />
  <circle cx="737.3" cy="454.1" r="2.2" />
  <circle cx="760.7" cy="449.9" r="2.2" />
  <circle cx="772.5" cy="413.9" r="2.2" />
  <circle cx="784.2" cy="420.2" r="2.2" />
  <circle cx="795.9" cy="452.4" r="2.2" />
  <circle cx="807.6" cy="480.7" r="2.2" />
  <circle cx="819.3" cy="533.0" r="2.2" />
  <circle cx="831.0" cy="543.3" r="2.2" />
  <circle cx="842.8" cy="550.2" r="2.2" />
  <circle cx="854.5" cy="560.7" r="2.2" />
  <circle cx="877.9" cy="562.5" r="2.2" />
  <circle cx="889.6" cy="564.8" r="2.2" />
  <circle cx="901.3" cy="567.6" r="2.2" />
</g>
<g class="pl" fill="#FFF" stroke="#7B553E" stroke-width="0.900">
  <circle cx="280.3" cy="158.5" r="5.4" />
  <circle cx="397.5" cy="269.9" r="5.4" />
  <circle cx="514.7" cy="297.2" r="5.4" />
  <circle cx="631.9" cy="423.2" r="5.4" />
  <circle cx="749.0" cy="451.0" r="5.4" />
  <circle cx="866.2" cy="563.1" r="5.4" />
</g>
<text transform="translate(945.6,431.8)" dy="8.1" font-size="27.00" fill="#FDBF6F" stroke="none">Bioenergy</text>
<text transform="translate(945.6,457.7)" dy="8.1" font-size="27.00" fill="#E78AC3" stroke="none">Other</text>
<text transform="translate(945.6,561.3)" dy="8.1" font-size="27.00" fill="#8DA0CB" stroke="none">Biofuels</text>
<text transform="translate(945.6,483.6)" dy="8.1" font-size="27.00" fill="#FC8D62" stroke="none">Nuclear</text>
<text transform="translate(945.6,587.2)" dy="8.1" font-size="27.00" fill="#66C2A5" stroke="none">Hydro</text>
<text transform="translate(945.6,535.4)" dy="8.1" font-size="27.00" fill="#E5C494" stroke="none">Solar</text>
<text transform="translate(945.6,405.9)" dy="8.1" font-size="27.00" fill="#FFD92F" stroke="none">Wind</text>
<text transform="translate(945.6,343.4)" dy="8.1" font-size="27.00" fill="#6298C6" stroke="none">Gas</text>
<text transform="translate(945.6,300.5)" dy="8.1" font-size="27.00" fill="#404040" stroke="none">Oil</text>
<text transform="translate(945.6,509.5)" dy="8.1" font-size="27.00" fill="#7B553E" stroke="none">Coal</text>
<polyline class="pl" points="910.8,540.1 912.4,539.8 913.8,538.7 915.2,536.9 916.4,534.5 917.6,531.6 918.8,528.1 919.8,524.2 920.8,519.9 921.7,515.3 922.7,510.4 923.5,505.2 924.4,499.8 925.2,494.3 926.0,488.7 926.8,483.1 927.6,477.6 928.4,472.1 929.3,466.7 930.1,461.5 931.1,456.6 932.0,451.9 933.0,447.7 934.0,443.8 935.2,440.3 936.4,437.4 937.6,435.0 939.0,433.2 940.4,432.1 942.0,431.8" stroke="#FDBF6F" stroke-width="0.90" stroke-opacity="1.00" fill="none" />
<polyline class="pl" points="910.8,545.5 912.4,545.2 913.8,544.3 915.2,542.9 916.4,541.0 917.6,538.6 918.8,535.8 919.8,532.6 920.8,529.2 921.7,525.4 922.7,521.4 923.5,517.2 924.4,512.8 925.2,508.4 926.0,503.9 926.8,499.3 927.6,494.8 928.4,490.3 929.3,486.0 930.1,481.8 931.1,477.8 932.0,474.0 933.0,470.5 934.0,467.4 935.2,464.6 936.4,462.2 937.6,460.3 939.0,458.9 940.4,458.0 942.0,457.7" stroke="#E78AC3" stroke-width="0.90" stroke-opacity="1.00" fill="none" />
<polyline class="pl" points="910.8,577.5 912.4,577.4 913.8,577.3 915.2,577.0 916.4,576.6 917.6,576.2 918.8,575.7 919.8,575.1 920.8,574.5 921.7,573.8 922.7,573.0 923.5,572.2 924.4,571.4 925.2,570.6 926.0,569.8 926.8,569.0 927.6,568.1 928.4,567.3 929.3,566.5 930.1,565.7 931.1,565.0 932.0,564.3 933.0,563.6 934.0,563.1 935.2,562.6 936.4,562.1 937.6,561.8 939.0,561.5 940.4,561.3 942.0,561.3" stroke="#8DA0CB" stroke-width="0.90" stroke-opacity="1.00" fill="none" />
<polyline class="pl" points="910.8,548.2 912.4,548.0 913.8,547.3 915.2,546.3 916.4,544.8 917.6,543.1 918.8,541.0 919.8,538.7 920.8,536.1 921.7,533.4 922.7,530.4 923.5,527.3 924.4,524.1 925.2,520.9 926.0,517.5 926.8,514.2 927.6,510.9 928.4,507.6 929.3,504.4 930.1,501.3 931.1,498.4 932.0,495.6 933.0,493.0 934.0,490.7 935.2,488.7 936.4,486.9 937.6,485.5 939.0,484.4 940.4,483.8 942.0,483.6" stroke="#FC8D62" stroke-width="0.90" stroke-opacity="1.00" fill="none" />
<polyline class="pl" points="910.8,582.0 912.4,582.0 913.8,582.1 915.2,582.2 916.4,582.3 917.6,582.4 918.8,582.6 919.8,582.8 920.8,583.0 921.7,583.2 922.7,583.4 923.5,583.7 924.4,583.9 925.2,584.2 926.0,584.5 926.8,584.7 927.6,585.0 928.4,585.2 929.3,585.5 930.1,585.8 931.1,586.0 932.0,586.2 933.0,586.4 934.0,586.6 935.2,586.8 936.4,586.9 937.6,587.0 939.0,587.1 940.4,587.2 942.0,587.2" stroke="#66C2A5" stroke-width="0.90" stroke-opacity="1.00" fill="none" />
<polyline class="pl" points="910.8,573.4 912.4,573.3 913.8,572.9 915.2,572.3 916.4,571.4 917.6,570.4 918.8,569.2 919.8,567.8 920.8,566.3 921.7,564.7 922.7,562.9 923.5,561.1 924.4,559.2 925.2,557.3 926.0,555.4 926.8,553.4 927.6,551.4 928.4,549.5 929.3,547.6 930.1,545.8 931.1,544.1 932.0,542.5 933.0,540.9 934.0,539.6 935.2,538.4 936.4,537.3 937.6,536.5 939.0,535.9 940.4,535.5 942.0,535.4" stroke="#E5C494" stroke-width="0.90" stroke-opacity="1.00" fill="none" />
<polyline class="pl" points="910.8,505.4 912.4,505.1 913.8,504.1 915.2,502.4 916.4,500.3 917.6,497.6 918.8,494.4 919.8,490.8 920.8,486.9 921.7,482.6 922.7,478.1 923.5,473.3 924.4,468.4 925.2,463.3 926.0,458.2 926.8,453.1 927.6,447.9 928.4,442.9 929.3,438.0 930.1,433.2 931.1,428.7 932.0,424.4 933.0,420.5 934.0,416.9 935.2,413.7 936.4,411.0 937.6,408.8 939.0,407.2 940.4,406.2 942.0,405.9" stroke="#FFD92F" stroke-width="0.90" stroke-opacity="1.00" fill="none" />
<polyline class="pl" points="910.8,567.6 912.4,567.4 913.8,566.8 915.2,565.8 916.4,564.6 917.6,563.0 918.8,561.2 919.8,559.1 920.8,556.8 921.7,554.3 922.7,551.6 923.5,548.8 924.4,546.0 925.2,543.0 926.0,540.0 926.8,537.0 927.6,534.0 928.4,531.1 929.3,528.2 930.1,525.4 931.1,522.8 932.0,520.3 933.0,518.0 934.0,515.9 935.2,514.1 936.4,512.5 937.6,511.2 939.0,510.3 940.4,509.7 942.0,509.5" stroke="#7B553E" stroke-width="0.90" stroke-opacity="1.00" fill="none" />
<text transform="translate(1079.5,428.4)" dy="0.0" font-size="14.40" fill="#FDBF6F" stroke="none">excluding</text>
<text transform="translate(1079.5,428.4)" dy="14.4" font-size="14.40" fill="#FDBF6F" stroke="none">liquids</text>
<text transform="translate(145.6,47.2)" dy="0.0" font-size="27.00" fill="#808080" stroke="none">Annual energy consumption United Kingdom</text>
<text transform="translate(160.2,666.1)" font-size="19.80" font-family="Helvetica" fill="#BFBFBF" stroke="none" xml:space="preserve">Global Carbon Project   &#9679;   Data: Energy Institute, IEA (bioenergy)</text>
<g>
  <rect x="123.0" y="651.4" width="34" height="17" fill="#FFF" stroke="none"/>
  <g transform="translate(124.0,652.4) scale(0.24)">
  <g><circle fill="#FFF" cx="37.79" cy="28.5" r="28.84"/>
     <circle fill="none" cx="37.79" cy="28.5" r="28.84" stroke="#BFBFBF" stroke-width="5.5"/>
     <path fill="#BFBFBF" d="M37.16,23.19 l-4.29,2.23c-0.458-0.951-1.02-1.62-1.69-2c-0.667-0.38-1.29-0.571-1.86-0.571c-2.86,0-4.29,1.89-4.29,5.66 c0,1.71,0.36,3.08,1.09,4.11c0.724,1.03,1.79,1.54,3.2,1.54c1.87,0,3.18-0.915,3.94-2.74l3.94,2 c-0.838,1.56-2,2.79-3.49,3.69c-1.48,0.896-3.12,1.34-4.91,1.34c-2.86,0-5.16-0.875-6.92-2.63 c-1.75-1.75-2.63-4.19-2.63-7.31c0-3.05,0.886-5.47,2.66-7.26c1.77-1.79,4.01-2.69,6.72-2.69 C32.6,18.56,35.44,20.1,37.16,23.19z
              M55.61,23.19l-4.23,2.23c-0.457-0.951-1.02-1.62-1.69-2 c-0.668-0.38-1.31-0.571-1.91-0.571c-2.86,0-4.29,1.89-4.29,5.66c0,1.71,0.363,3.08,1.09,4.11 c0.723,1.03,1.79,1.54,3.2,1.54c1.87,0,3.18-0.915,3.94-2.74l4,2c-0.875,1.56-2.06,2.79-3.54,3.69 c-1.49,0.9-3.11,1.34-4.86,1.34c-2.9,0-5.21-0.875-6.94-2.63c-1.74-1.75-2.6-4.19-2.6-7.31 c0-3.05,0.885-5.47,2.66-7.26c1.77-1.79,4.01-2.69,6.71-2.69C51.12,18.56,53.944,20.1,55.61,23.19z"/>
  </g></g>
  <g transform="translate(140.2,652.4) scale(0.24)">
  <g><circle fill="#FFF" cx="37.79" cy="28.5" r="28.84"/>
     <circle fill="none" cx="37.79" cy="28.5" r="28.84" stroke="#BFBFBF" stroke-width="5.5"/>
     <path fill="#BFBFBF" d="M46.129,20.557v13.085h-3.656v15.542h-9.944V33.643h-3.656V20.557 c0-0.572,0.2-1.057,0.599-1.457c0.401-0.399,0.887-0.6,1.457-0.6h13.144c0.533,0,1.01,0.2,1.428,0.6 C45.918,19.5,46.129,19.986,46.129,20.557z
              M33.042,12.329c0-3.008,1.485-4.514,4.458-4.514s4.457,1.504,4.457,4.514 c0,2.971-1.486,4.457-4.457,4.457S33.042,15.3,33.042,12.329z"/>
  </g></g>
</g>
</g>
</svg>
