<svg version="1.1" xmlns="http://www.w3.org/2000/svg" xmlns:xlink="http://www.w3.org/1999/xlink" width="100%" height="100%" viewBox="0 0 1200.000 674.916">
<title>Annual energy consumption in France, 2000-2023</title>
<style type="text/css">
  #main {font-family:Helvetica,Arial,sans-serif; font-size:27.00px;
         fill-opacity:1; fill:#000000; stroke:none; stroke-linejoin:round; stroke-linecap:round; stroke-width:1.00;}
  .marker {stroke-opacity:0;fill-opacity:0;}
  .marker:hover {stroke-opacity:0.5; fill-opacity:1;}
  .ticklabel {font-size:27.00px;fill:#808080;stroke:none;font-family:Helvetica}
  .ytl {text-anchor:end;}
  .dp1 {pointer-events:none;font-size:70%;text-anchor:middle;fill:#000000;}
  .dp2 {pointer-events:none;font-size:70%;text-anchor:middle;fill:#FFFFFF;}
  .numtip {pointer-events:none;}
  .cc {opacity:0.25;}
.dl_fe {background-color:#FDFFDF;display:flex;margin:auto;align-items:center}
.dl_fe_p {font-size:20px;text-align:center;margin:3px}
.dl_el {display:none;pointer-events:none;}
.cc:hover + .dl_el {display:block;}
text:hover + .dl_el {display:block;}
</style>
<defs>
  <clipPath id="axis_clip"><rect x="145.8" y="54.2" width="761.2" height="532.8" /></clipPath>
  <path id="line_x" d="M 145.600,0 h 761.600" stroke="#262626" stroke-opacity="0.15" stroke-width="1.00"/>
  <path id="tick_y" d="M 145.600,0 h -6.000" stroke="#808080" stroke-width="0.90"/>
  <path id="tick_x" d="M 0,587.177 v 6.000" stroke="#808080" stroke-width="0.90"/>
</defs>
<g id="main">
<use xlink:href="#line_x" transform="translate(0,587.2)"/>
<use xlink:href="#line_x" transform="translate(0,498.3)"/>
<use xlink:href="#line_x" transform="translate(0,409.4)"/>
<use xlink:href="#line_x" transform="translate(0,320.6)"/>
<use xlink:href="#line_x" transform="translate(0,231.7)"/>
<use xlink:href="#line_x" transform="translate(0,142.9)"/>
<use xlink:href="#line_x" transform="translate(0,54.0)"/>
<use xlink:href="#tick_y" transform="translate(0,587.2)"/>
<use xlink:href="#tick_y" transform="translate(0,498.3)"/>
<use xlink:href="#tick_y" transform="translate(0,409.4)"/>
<use xlink:href="#tick_y" transform="translate(0,320.6)"/>
<use xlink:href="#tick_y" transform="translate(0,231.7)"/>
<use xlink:href="#tick_y" transform="translate(0,142.9)"/>
<use xlink:href="#tick_y" transform="translate(0,54.0)"/>
<use xlink:href="#tick_x" transform="translate(209.1,0)"/>
<use xlink:href="#tick_x" transform="translate(336.0,0)"/>
<use xlink:href="#tick_x" transform="translate(462.9,0)"/>
<use xlink:href="#tick_x" transform="translate(589.9,0)"/>
<use xlink:href="#tick_x" transform="translate(716.8,0)"/>
<use xlink:href="#tick_x" transform="translate(843.7,0)"/>
<polyline points="145.6,53.993 145.6,587.177 907.2,587.177" stroke="#808080" stroke-width="0.90" fill="none"/>
<text class="ticklabel ytl" transform="translate(128.8,595.3)">0</text>
<text class="ticklabel ytl" transform="translate(128.8,506.4)">1</text>
<text class="ticklabel ytl" transform="translate(128.8,417.5)">2</text>
<text class="ticklabel ytl" transform="translate(128.8,328.7)">3</text>
<text class="ticklabel ytl" transform="translate(128.8,239.8)">4</text>
<text class="ticklabel ytl" transform="translate(128.8,151.0)">5</text>
<text class="ticklabel ytl" transform="translate(128.8,62.1)">6 EJ</text>
<g stroke="#262626" stroke-width="0.9000"  clip-path="url(#axis_clip)">
  <polygon points="158.3,587.2 158.3,532.4 162.5,532.4 162.5,587.2" fill="#FFEFE6"/>
  <polygon points="285.2,587.2 285.2,221.5 289.5,221.5 289.5,587.2" fill="#EEE"/>
  <polygon points="412.2,587.2 412.2,454.1 416.4,454.1 416.4,587.2" fill="#E6F3FF"/>
  <polygon points="539.1,587.2 539.1,210.3 543.3,210.3 543.3,587.2" fill="#FFEDE6"/>
  <polygon points="666.0,587.2 666.0,524.4 670.3,524.4 670.3,587.2" fill="#E6EDFF"/>
  <polygon points="793.0,587.2 793.0,582.9 797.2,582.9 797.2,587.2" fill="#E6FFF7"/>
</g>
<g stroke="#262626" stroke-width="0.9000"  clip-path="url(#axis_clip)">
  <polygon points="162.5,587.2 162.5,541.1 166.8,541.1 166.8,587.2" fill="#F9E7DC"/>
  <polygon points="289.5,587.2 289.5,221.7 293.7,221.7 293.7,587.2" fill="#E7E7E7"/>
  <polygon points="416.4,587.2 416.4,447.5 420.6,447.5 420.6,587.2" fill="#DFEFFD"/>
  <polygon points="543.3,587.2 543.3,207.4 547.6,207.4 547.6,587.2" fill="#FFE8E0"/>
  <polygon points="670.3,587.2 670.3,517.4 674.5,517.4 674.5,587.2" fill="#E1EAFD"/>
  <polygon points="797.2,587.2 797.2,582.5 801.4,582.5 801.4,587.2" fill="#DFFCF3"/>
</g>
<g stroke="#262626" stroke-width="0.9000"  clip-path="url(#axis_clip)">
  <polygon points="166.8,587.2 166.8,537.7 171.0,537.7 171.0,587.2" fill="#F4DFD3"/>
  <polygon points="293.7,587.2 293.7,231.2 297.9,231.2 297.9,587.2" fill="#E0E0E0"/>
  <polygon points="420.6,587.2 420.6,447.7 424.9,447.7 424.9,587.2" fill="#D8EAFA"/>
  <polygon points="547.6,587.2 547.6,195.8 551.8,195.8 551.8,587.2" fill="#FFE4DA"/>
  <polygon points="674.5,587.2 674.5,530.8 678.7,530.8 678.7,587.2" fill="#DDE6FA"/>
  <polygon points="801.4,587.2 801.4,582.1 805.7,582.1 805.7,587.2" fill="#D9FAEF"/>
</g>
<g stroke="#262626" stroke-width="0.9000"  clip-path="url(#axis_clip)">
  <polygon points="171.0,587.2 171.0,534.8 175.2,534.8 175.2,587.2" fill="#EED7CA"/>
  <polygon points="297.9,587.2 297.9,229.8 302.2,229.8 302.2,587.2" fill="#D9D9D9"/>
  <polygon points="424.9,587.2 424.9,440.9 429.1,440.9 429.1,587.2" fill="#D2E6F8"/>
  <polygon points="551.8,587.2 551.8,194.5 556.0,194.5 556.0,587.2" fill="#FFE0D4"/>
  <polygon points="678.7,587.2 678.7,532.5 683.0,532.5 683.0,587.2" fill="#D9E2F8"/>
  <polygon points="805.7,587.2 805.7,581.9 809.9,581.9 809.9,587.2" fill="#D2F7EB"/>
</g>
<g stroke="#262626" stroke-width="0.9000"  clip-path="url(#axis_clip)">
  <polygon points="175.2,587.2 175.2,536.7 179.4,536.7 179.4,587.2" fill="#E8D0C1"/>
  <polygon points="302.2,587.2 302.2,226.7 306.4,226.7 306.4,587.2" fill="#D2D2D2"/>
  <polygon points="429.1,587.2 429.1,437.8 433.3,437.8 433.3,587.2" fill="#CBE2F5"/>
  <polygon points="556.0,587.2 556.0,190.7 560.2,190.7 560.2,587.2" fill="#FEDCCE"/>
  <polygon points="683.0,587.2 683.0,532.3 687.2,532.3 687.2,587.2" fill="#D5DFF6"/>
  <polygon points="809.9,587.2 809.9,581.5 814.1,581.5 814.1,587.2" fill="#CCF4E8"/>
</g>
<g stroke="#262626" stroke-width="0.9000"  clip-path="url(#axis_clip)">
  <polygon points="179.4,587.2 179.4,535.1 183.7,535.1 183.7,587.2" fill="#E2C8B8"/>
  <polygon points="306.4,587.2 306.4,233.9 310.6,233.9 310.6,587.2" fill="#CACACA"/>
  <polygon points="433.3,587.2 433.3,434.5 437.5,434.5 437.5,587.2" fill="#C5DEF3"/>
  <polygon points="560.2,587.2 560.2,190.3 564.5,190.3 564.5,587.2" fill="#FED8C9"/>
  <polygon points="687.2,587.2 687.2,540.0 691.4,540.0 691.4,587.2" fill="#D0DBF4"/>
  <polygon points="814.1,587.2 814.1,580.2 818.3,580.2 818.3,587.2" fill="#C6F2E4"/>
</g>
<g stroke="#262626" stroke-width="0.9000"  clip-path="url(#axis_clip)">
  <polygon points="183.7,587.2 183.7,539.1 187.9,539.1 187.9,587.2" fill="#DDC1B0"/>
  <polygon points="310.6,587.2 310.6,234.7 314.8,234.7 314.8,587.2" fill="#C3C3C3"/>
  <polygon points="437.5,587.2 437.5,439.8 441.8,439.8 441.8,587.2" fill="#BFD9F0"/>
  <polygon points="564.5,587.2 564.5,193.9 568.7,193.9 568.7,587.2" fill="#FED3C3"/>
  <polygon points="691.4,587.2 691.4,535.9 695.6,535.9 695.6,587.2" fill="#CCD8F1"/>
  <polygon points="818.3,587.2 818.3,578.7 822.6,578.7 822.6,587.2" fill="#C0EFE0"/>
</g>
<g stroke="#262626" stroke-width="0.9000"  clip-path="url(#axis_clip)">
  <polygon points="187.9,587.2 187.9,537.4 192.1,537.4 192.1,587.2" fill="#D7B9A7"/>
  <polygon points="314.8,587.2 314.8,243.1 319.1,243.1 319.1,587.2" fill="#BCBCBC"/>
  <polygon points="441.8,587.2 441.8,444.0 446.0,444.0 446.0,587.2" fill="#B9D5EE"/>
  <polygon points="568.7,587.2 568.7,205.5 572.9,205.5 572.9,587.2" fill="#FECFBD"/>
  <polygon points="695.6,587.2 695.6,535.1 699.9,535.1 699.9,587.2" fill="#C8D4EF"/>
  <polygon points="822.6,587.2 822.6,574.0 826.8,574.0 826.8,587.2" fill="#BAECDC"/>
</g>
<g stroke="#262626" stroke-width="0.9000"  clip-path="url(#axis_clip)">
  <polygon points="192.1,587.2 192.1,540.0 196.4,540.0 196.4,587.2" fill="#D1B29F"/>
  <polygon points="319.1,587.2 319.1,250.2 323.3,250.2 323.3,587.2" fill="#B4B4B4"/>
  <polygon points="446.0,587.2 446.0,438.8 450.2,438.8 450.2,587.2" fill="#B3D1EB"/>
  <polygon points="572.9,587.2 572.9,208.1 577.2,208.1 577.2,587.2" fill="#FECBB7"/>
  <polygon points="699.9,587.2 699.9,530.0 704.1,530.0 704.1,587.2" fill="#C4D1ED"/>
  <polygon points="826.8,587.2 826.8,569.2 831.0,569.2 831.0,587.2" fill="#B4EAD9"/>
</g>
<g stroke="#262626" stroke-width="0.9000"  clip-path="url(#axis_clip)">
  <polygon points="196.4,587.2 196.4,546.0 200.6,546.0 200.6,587.2" fill="#CBAB98"/>
  <polygon points="323.3,587.2 323.3,263.8 327.5,263.8 327.5,587.2" fill="#ADADAD"/>
  <polygon points="450.2,587.2 450.2,444.1 454.5,444.1 454.5,587.2" fill="#ADCDE9"/>
  <polygon points="577.2,587.2 577.2,235.9 581.4,235.9 581.4,587.2" fill="#FEC7B2"/>
  <polygon points="704.1,587.2 704.1,536.3 708.3,536.3 708.3,587.2" fill="#C0CDEB"/>
  <polygon points="831.0,587.2 831.0,566.4 835.3,566.4 835.3,587.2" fill="#AEE7D5"/>
</g>
<g stroke="#262626" stroke-width="0.9000"  clip-path="url(#axis_clip)">
  <polygon points="200.6,587.2 200.6,543.0 204.8,543.0 204.8,587.2" fill="#C6A490"/>
  <polygon points="327.5,587.2 327.5,273.8 331.8,273.8 331.8,587.2" fill="#A5A5A5"/>
  <polygon points="454.5,587.2 454.5,428.6 458.7,428.6 458.7,587.2" fill="#A7C9E6"/>
  <polygon points="581.4,587.2 581.4,222.1 585.6,222.1 585.6,587.2" fill="#FEC3AC"/>
  <polygon points="708.3,587.2 708.3,531.5 712.6,531.5 712.6,587.2" fill="#BCCAE8"/>
  <polygon points="835.3,587.2 835.3,564.0 839.5,564.0 839.5,587.2" fill="#A8E4D2"/>
</g>
<g stroke="#262626" stroke-width="0.9000"  clip-path="url(#axis_clip)">
  <polygon points="204.8,587.2 204.8,547.6 209.1,547.6 209.1,587.2" fill="#C09D88"/>
  <polygon points="331.8,587.2 331.8,278.8 336.0,278.8 336.0,587.2" fill="#9E9E9E"/>
  <polygon points="458.7,587.2 458.7,449.6 462.9,449.6 462.9,587.2" fill="#A1C5E4"/>
  <polygon points="585.6,587.2 585.6,212.5 589.9,212.5 589.9,587.2" fill="#FEBFA6"/>
  <polygon points="712.6,587.2 712.6,547.6 716.8,547.6 716.8,587.2" fill="#B9C6E6"/>
  <polygon points="839.5,587.2 839.5,560.2 843.7,560.2 843.7,587.2" fill="#A3E2CE"/>
</g>
<g stroke="#262626" stroke-width="0.9000"  clip-path="url(#axis_clip)">
  <polygon points="209.1,587.2 209.1,543.2 213.3,543.2 213.3,587.2" fill="#BA9781"/>
  <polygon points="336.0,587.2 336.0,289.3 340.2,289.3 340.2,587.2" fill="#969696"/>
  <polygon points="462.9,587.2 462.9,445.0 467.2,445.0 467.2,587.2" fill="#9BC1E1"/>
  <polygon points="589.9,587.2 589.9,229.1 594.1,229.1 594.1,587.2" fill="#FDBAA1"/>
  <polygon points="716.8,587.2 716.8,535.6 721.0,535.6 721.0,587.2" fill="#B5C3E4"/>
  <polygon points="843.7,587.2 843.7,555.1 848.0,555.1 848.0,587.2" fill="#9DDFCA"/>
</g>
<g stroke="#262626" stroke-width="0.9000"  clip-path="url(#axis_clip)">
  <polygon points="213.3,587.2 213.3,540.4 217.5,540.4 217.5,587.2" fill="#B4907A"/>
  <polygon points="340.2,587.2 340.2,293.1 344.5,293.1 344.5,587.2" fill="#8F8F8F"/>
  <polygon points="467.2,587.2 467.2,442.8 471.4,442.8 471.4,587.2" fill="#96BDDF"/>
  <polygon points="594.1,587.2 594.1,232.7 598.3,232.7 598.3,587.2" fill="#FDB69B"/>
  <polygon points="721.0,587.2 721.0,525.4 725.3,525.4 725.3,587.2" fill="#B1C0E2"/>
  <polygon points="848.0,587.2 848.0,553.2 852.2,553.2 852.2,587.2" fill="#98DDC7"/>
</g>
<g stroke="#262626" stroke-width="0.9000"  clip-path="url(#axis_clip)">
  <polygon points="217.5,587.2 217.5,552.9 221.8,552.9 221.8,587.2" fill="#AF8A73"/>
  <polygon points="344.5,587.2 344.5,302.6 348.7,302.6 348.7,587.2" fill="#878787"/>
  <polygon points="471.4,587.2 471.4,465.9 475.6,465.9 475.6,587.2" fill="#90B9DC"/>
  <polygon points="598.3,587.2 598.3,224.2 602.6,224.2 602.6,587.2" fill="#FDB295"/>
  <polygon points="725.3,587.2 725.3,532.7 729.5,532.7 729.5,587.2" fill="#ADBCDF"/>
  <polygon points="852.2,587.2 852.2,550.0 856.4,550.0 856.4,587.2" fill="#92DAC3"/>
</g>
<g stroke="#262626" stroke-width="0.9000"  clip-path="url(#axis_clip)">
  <polygon points="221.8,587.2 221.8,554.5 226.0,554.5 226.0,587.2" fill="#A9836C"/>
  <polygon points="348.7,587.2 348.7,298.4 352.9,298.4 352.9,587.2" fill="#7F7F7F"/>
  <polygon points="475.6,587.2 475.6,456.8 479.9,456.8 479.9,587.2" fill="#8BB5DA"/>
  <polygon points="602.6,587.2 602.6,225.6 606.8,225.6 606.8,587.2" fill="#FDAE8F"/>
  <polygon points="729.5,587.2 729.5,540.2 733.7,540.2 733.7,587.2" fill="#A9B9DD"/>
  <polygon points="856.4,587.2 856.4,544.8 860.7,544.8 860.7,587.2" fill="#8DD7C0"/>
</g>
<g stroke="#262626" stroke-width="0.9000"  clip-path="url(#axis_clip)">
  <polygon points="226.0,587.2 226.0,555.3 230.2,555.3 230.2,587.2" fill="#A37D66"/>
  <polygon points="352.9,587.2 352.9,303.1 357.2,303.1 357.2,587.2" fill="#787878"/>
  <polygon points="479.9,587.2 479.9,444.7 484.1,444.7 484.1,587.2" fill="#85B2D7"/>
  <polygon points="606.8,587.2 606.8,255.8 611.0,255.8 611.0,587.2" fill="#FDAA8A"/>
  <polygon points="733.7,587.2 733.7,535.9 738.0,535.9 738.0,587.2" fill="#A6B6DB"/>
  <polygon points="860.7,587.2 860.7,543.5 864.9,543.5 864.9,587.2" fill="#88D5BC"/>
</g>
<g stroke="#262626" stroke-width="0.9000"  clip-path="url(#axis_clip)">
  <polygon points="230.2,587.2 230.2,552.3 234.5,552.3 234.5,587.2" fill="#9D7760"/>
  <polygon points="357.2,587.2 357.2,298.8 361.4,298.8 361.4,587.2" fill="#707070"/>
  <polygon points="484.1,587.2 484.1,444.0 488.3,444.0 488.3,587.2" fill="#80AED5"/>
  <polygon points="611.0,587.2 611.0,261.7 615.3,261.7 615.3,587.2" fill="#FDA684"/>
  <polygon points="738.0,587.2 738.0,545.5 742.2,545.5 742.2,587.2" fill="#A2B3D9"/>
  <polygon points="864.9,587.2 864.9,539.5 869.1,539.5 869.1,587.2" fill="#83D2B9"/>
</g>
<g stroke="#262626" stroke-width="0.9000"  clip-path="url(#axis_clip)">
  <polygon points="234.5,587.2 234.5,555.1 238.7,555.1 238.7,587.2" fill="#98715A"/>
  <polygon points="361.4,587.2 361.4,305.8 365.6,305.8 365.6,587.2" fill="#686868"/>
  <polygon points="488.3,587.2 488.3,450.1 492.6,450.1 492.6,587.2" fill="#7BAAD2"/>
  <polygon points="615.3,587.2 615.3,251.8 619.5,251.8 619.5,587.2" fill="#FDA27E"/>
  <polygon points="742.2,587.2 742.2,533.1 746.4,533.1 746.4,587.2" fill="#9EB0D6"/>
  <polygon points="869.1,587.2 869.1,535.0 873.4,535.0 873.4,587.2" fill="#7ECFB6"/>
</g>
<g stroke="#262626" stroke-width="0.9000"  clip-path="url(#axis_clip)">
  <polygon points="238.7,587.2 238.7,561.8 242.9,561.8 242.9,587.2" fill="#926B54"/>
  <polygon points="365.6,587.2 365.6,308.1 369.8,308.1 369.8,587.2" fill="#606060"/>
  <polygon points="492.6,587.2 492.6,447.5 496.8,447.5 496.8,587.2" fill="#76A6D0"/>
  <polygon points="619.5,587.2 619.5,264.3 623.7,264.3 623.7,587.2" fill="#FD9D79"/>
  <polygon points="746.4,587.2 746.4,539.9 750.6,539.9 750.6,587.2" fill="#9BACD4"/>
  <polygon points="873.4,587.2 873.4,528.3 877.6,528.3 877.6,587.2" fill="#79CDB2"/>
</g>
<g stroke="#262626" stroke-width="0.9000"  clip-path="url(#axis_clip)">
  <polygon points="242.9,587.2 242.9,569.3 247.1,569.3 247.1,587.2" fill="#8C654E"/>
  <polygon points="369.8,587.2 369.8,354.2 374.1,354.2 374.1,587.2" fill="#585858"/>
  <polygon points="496.8,587.2 496.8,457.3 501.0,457.3 501.0,587.2" fill="#71A3CD"/>
  <polygon points="623.7,587.2 623.7,301.9 627.9,301.9 627.9,587.2" fill="#FC9973"/>
  <polygon points="750.6,587.2 750.6,535.3 754.9,535.3 754.9,587.2" fill="#97A9D2"/>
  <polygon points="877.6,587.2 877.6,524.1 881.8,524.1 881.8,587.2" fill="#74CAAF"/>
</g>
<g stroke="#262626" stroke-width="0.9000"  clip-path="url(#axis_clip)">
  <polygon points="247.1,587.2 247.1,563.2 251.4,563.2 251.4,587.2" fill="#866048"/>
  <polygon points="374.1,587.2 374.1,337.0 378.3,337.0 378.3,587.2" fill="#505050"/>
  <polygon points="501.0,587.2 501.0,449.5 505.2,449.5 505.2,587.2" fill="#6C9FCB"/>
  <polygon points="627.9,587.2 627.9,282.4 632.2,282.4 632.2,587.2" fill="#FC956D"/>
  <polygon points="754.9,587.2 754.9,538.1 759.1,538.1 759.1,587.2" fill="#94A6D0"/>
  <polygon points="881.8,587.2 881.8,523.2 886.0,523.2 886.0,587.2" fill="#6FC7AC"/>
</g>
<g stroke="#262626" stroke-width="0.9000"  clip-path="url(#axis_clip)">
  <polygon points="251.4,587.2 251.4,566.6 255.6,566.6 255.6,587.2" fill="#815A43"/>
  <polygon points="378.3,587.2 378.3,338.4 382.5,338.4 382.5,587.2" fill="#484848"/>
  <polygon points="505.2,587.2 505.2,464.4 509.5,464.4 509.5,587.2" fill="#679CC8"/>
  <polygon points="632.2,587.2 632.2,351.3 636.4,351.3 636.4,587.2" fill="#FC9168"/>
  <polygon points="759.1,587.2 759.1,550.3 763.3,550.3 763.3,587.2" fill="#90A3CD"/>
  <polygon points="886.0,587.2 886.0,516.8 890.3,516.8 890.3,587.2" fill="#6BC5A8"/>
</g>
<g stroke="#262626" stroke-width="0.9000"  clip-path="url(#axis_clip)">
  <polygon points="255.6,587.2 255.6,571.4 259.8,571.4 259.8,587.2" fill="#7B553E"/>
  <polygon points="382.5,587.2 382.5,341.5 386.8,341.5 386.8,587.2" fill="#404040"/>
  <polygon points="509.5,587.2 509.5,478.8 513.7,478.8 513.7,587.2" fill="#6298C6"/>
  <polygon points="636.4,587.2 636.4,317.5 640.6,317.5 640.6,587.2" fill="#FC8D62"/>
  <polygon points="763.3,587.2 763.3,541.0 767.6,541.0 767.6,587.2" fill="#8DA0CB"/>
  <polygon points="890.3,587.2 890.3,502.9 894.5,502.9 894.5,587.2" fill="#66C2A5"/>
</g>
<text transform="translate(209.1,600.7)" dy="21.6" font-size="21.60" fill="#808080" stroke="none" text-anchor="middle">Coal</text>
<text transform="translate(336.0,600.7)" dy="21.6" font-size="21.60" fill="#808080" stroke="none" text-anchor="middle">Oil</text>
<text transform="translate(462.9,600.7)" dy="21.6" font-size="21.60" fill="#808080" stroke="none" text-anchor="middle">Gas</text>
<text transform="translate(589.9,600.7)" dy="21.6" font-size="21.60" fill="#808080" stroke="none" text-anchor="middle">Nuclear</text>
<text transform="translate(716.8,600.7)" dy="21.6" font-size="21.60" fill="#808080" stroke="none" text-anchor="middle">Hydro</text>
<text transform="translate(843.7,600.7)"  font-size="21.60" fill="#808080" stroke="none" text-anchor="middle">
      <tspan x="0" y="18.0">Other</tspan><tspan x="0" y="42.2">Renewables</tspan>
    </text>
<polyline class="pl" points="234.5,545.5 234.5,538.8 259.8,538.8 259.8,545.5" stroke="#808080" stroke-width="0.90" stroke-opacity="1.00" fill="none" clip-path="url(#axis_clip)"/>
<text transform="translate(259.8,518.9)" dy="0.0" font-size="21.60" fill="#808080" stroke="none" text-anchor="end">-11.1%/yr</text>
<polyline class="pl" points="361.4,292.0 361.4,285.3 386.8,285.3 386.8,292.0" stroke="#808080" stroke-width="0.90" stroke-opacity="1.00" fill="none" clip-path="url(#axis_clip)"/>
<text transform="translate(386.8,208.0)" dy="0.0" font-size="21.60" fill="#808080" stroke="none" text-anchor="end">-2.7%/yr</text>
<polyline class="pl" points="374.1,285.3 374.1,221.5" stroke="#808080" stroke-width="0.90" stroke-opacity="1.00" fill="none" clip-path="url(#axis_clip)"/>
<polyline class="pl" points="488.3,437.2 488.3,430.5 513.7,430.5 513.7,437.2" stroke="#808080" stroke-width="0.90" stroke-opacity="1.00" fill="none" clip-path="url(#axis_clip)"/>
<text transform="translate(513.7,415.1)" dy="0.0" font-size="21.60" fill="#808080" stroke="none" text-anchor="end">-4.3%/yr</text>
<polyline class="pl" points="615.3,245.0 615.3,238.3 640.6,238.3 640.6,245.0" stroke="#808080" stroke-width="0.90" stroke-opacity="1.00" fill="none" clip-path="url(#axis_clip)"/>
<text transform="translate(640.6,176.8)" dy="0.0" font-size="21.60" fill="#808080" stroke="none" text-anchor="end">-5.6%/yr</text>
<polyline class="pl" points="627.9,238.3 627.9,190.3" stroke="#808080" stroke-width="0.90" stroke-opacity="1.00" fill="none" clip-path="url(#axis_clip)"/>
<polyline class="pl" points="742.2,526.3 742.2,519.6 767.6,519.6 767.6,526.3" stroke="#808080" stroke-width="0.90" stroke-opacity="1.00" fill="none" clip-path="url(#axis_clip)"/>
<text transform="translate(767.6,503.9)" dy="0.0" font-size="21.60" fill="#808080" stroke="none" text-anchor="end">-4.5%/yr</text>
<polyline class="pl" points="869.1,496.1 869.1,489.4 894.5,489.4 894.5,496.1" stroke="#808080" stroke-width="0.90" stroke-opacity="1.00" fill="none" clip-path="url(#axis_clip)"/>
<text transform="translate(894.5,479.3)" dy="0.0" font-size="21.60" fill="#808080" stroke="none" text-anchor="end">+8.4%/yr</text>
<text transform="translate(145.6,47.2)" dy="0.0" font-size="27.00" fill="#808080" stroke="none">Annual energy consumption in France, 2000-2023</text>
<text transform="translate(145.6,54.0)" dy="18.0" font-size="18.00" fill="#808080" stroke="none" xml:space="preserve"> Annual growth rates from 2018-2023</text>
<text transform="translate(161.9,666.1)" font-size="19.80" font-family="Helvetica" fill="#BFBFBF" stroke="none" xml:space="preserve">Global Carbon Project   &#9679;   Data: Energy Institute</text>
<g>
  <rect x="123.0" y="651.4" width="34" height="17" fill="#FFF" stroke="none"/>
  <g transform="translate(124.0,652.4) scale(0.24)">
  <g><circle fill="#FFF" cx="37.79" cy="28.5" r="28.84"/>
     <circle fill="none" cx="37.79" cy="28.5" r="28.84" stroke="#BFBFBF" stroke-width="5.5"/>
     <path fill="#BFBFBF" d="M37.16,23.19 l-4.29,2.23c-0.458-0.951-1.02-1.62-1.69-2c-0.667-0.38-1.29-0.571-1.86-0.571c-2.86,0-4.29,1.89-4.29,5.66 c0,1.71,0.36,3.08,1.09,4.11c0.724,1.03,1.79,1.54,3.2,1.54c1.87,0,3.18-0.915,3.94-2.74l3.94,2 c-0.838,1.56-2,2.79-3.49,3.69c-1.48,0.896-3.12,1.34-4.91,1.34c-2.86,0-5.16-0.875-6.92-2.63 c-1.75-1.75-2.63-4.19-2.63-7.31c0-3.05,0.886-5.47,2.66-7.26c1.77-1.79,4.01-2.69,6.72-2.69 C32.6,18.56,35.44,20.1,37.16,23.19z
              M55.61,23.19l-4.23,2.23c-0.457-0.951-1.02-1.62-1.69-2 c-0.668-0.38-1.31-0.571-1.91-0.571c-2.86,0-4.29,1.89-4.29,5.66c0,1.71,0.363,3.08,1.09,4.11 c0.723,1.03,1.79,1.54,3.2,1.54c1.87,0,3.18-0.915,3.94-2.74l4,2c-0.875,1.56-2.06,2.79-3.54,3.69 c-1.49,0.9-3.11,1.34-4.86,1.34c-2.9,0-5.21-0.875-6.94-2.63c-1.74-1.75-2.6-4.19-2.6-7.31 c0-3.05,0.885-5.47,2.66-7.26c1.77-1.79,4.01-2.69,6.71-2.69C51.12,18.56,53.944,20.1,55.61,23.19z"/>
  </g></g>
  <g transform="translate(140.2,652.4) scale(0.24)">
  <g><circle fill="#FFF" cx="37.79" cy="28.5" r="28.84"/>
     <circle fill="none" cx="37.79" cy="28.5" r="28.84" stroke="#BFBFBF" stroke-width="5.5"/>
     <path fill="#BFBFBF" d="M46.129,20.557v13.085h-3.656v15.542h-9.944V33.643h-3.656V20.557 c0-0.572,0.2-1.057,0.599-1.457c0.401-0.399,0.887-0.6,1.457-0.6h13.144c0.533,0,1.01,0.2,1.428,0.6 C45.918,19.5,46.129,19.986,46.129,20.557z
              M33.042,12.329c0-3.008,1.485-4.514,4.458-4.514s4.457,1.504,4.457,4.514 c0,2.971-1.486,4.457-4.457,4.457S33.042,15.3,33.042,12.329z"/>
  </g></g>
</g>
</g>
</svg>
