<svg version="1.1" xmlns="http://www.w3.org/2000/svg" xmlns:xlink="http://www.w3.org/1999/xlink" width="100%" height="100%" viewBox="0 0 1200.000 674.916">
<title>Annual energy consumption per capita Brazil</title>
<style type="text/css">
  #main {font-family:Helvetica,Arial,sans-serif; font-size:27.00px;
         fill-opacity:1; fill:#000000; stroke:none; stroke-linejoin:round; stroke-linecap:round; stroke-width:1.00;}
  .marker {stroke-opacity:0;fill-opacity:0;}
  .marker:hover {stroke-opacity:0.5; fill-opacity:1;}
  .ticklabel {font-size:27.00px;fill:#808080;stroke:none;font-family:Helvetica}
  .ytl {text-anchor:end;}
  .dp1 {pointer-events:none;font-size:70%;text-anchor:middle;fill:#000000;}
  .dp2 {pointer-events:none;font-size:70%;text-anchor:middle;fill:#FFFFFF;}
  .numtip {pointer-events:none;}
  .cc {opacity:0.25;}
.dl_fe {background-color:#FDFFDF;display:flex;margin:auto;align-items:center}
.dl_fe_p {font-size:20px;text-align:center;margin:3px}
.dl_el {display:none;pointer-events:none;}
.cc:hover + .dl_el {display:block;}
text:hover + .dl_el {display:block;}
</style>
<defs>
  <clipPath id="axis_clip"><rect x="145.8" y="54.2" width="761.2" height="532.8" /></clipPath>
  <path id="line_x" d="M 145.600,0 h 761.600" stroke="#262626" stroke-opacity="0.15" stroke-width="1.00"/>
  <path id="tick_y" d="M 145.600,0 h -6.000" stroke="#808080" stroke-width="0.90"/>
  <path id="tick_x" d="M 0,587.177 v 6.000" stroke="#808080" stroke-width="0.90"/>
</defs>
<g id="main">
<use xlink:href="#line_x" transform="translate(0,587.2)"/>
<use xlink:href="#line_x" transform="translate(0,498.3)"/>
<use xlink:href="#line_x" transform="translate(0,409.4)"/>
<use xlink:href="#line_x" transform="translate(0,320.6)"/>
<use xlink:href="#line_x" transform="translate(0,231.7)"/>
<use xlink:href="#line_x" transform="translate(0,142.9)"/>
<use xlink:href="#line_x" transform="translate(0,54.0)"/>
<use xlink:href="#tick_y" transform="translate(0,587.2)"/>
<use xlink:href="#tick_y" transform="translate(0,498.3)"/>
<use xlink:href="#tick_y" transform="translate(0,409.4)"/>
<use xlink:href="#tick_y" transform="translate(0,320.6)"/>
<use xlink:href="#tick_y" transform="translate(0,231.7)"/>
<use xlink:href="#tick_y" transform="translate(0,142.9)"/>
<use xlink:href="#tick_y" transform="translate(0,54.0)"/>
<use xlink:href="#tick_x" transform="translate(163.2,0)"/>
<use xlink:href="#tick_x" transform="translate(280.3,0)"/>
<use xlink:href="#tick_x" transform="translate(397.5,0)"/>
<use xlink:href="#tick_x" transform="translate(514.7,0)"/>
<use xlink:href="#tick_x" transform="translate(631.9,0)"/>
<use xlink:href="#tick_x" transform="translate(749.0,0)"/>
<use xlink:href="#tick_x" transform="translate(901.3,0)"/>
<polyline points="145.6,53.993 145.6,587.177 907.2,587.177" stroke="#808080" stroke-width="0.90" fill="none"/>
<text class="ticklabel xtl" transform="translate(163.2,629.0)" text-anchor="middle">1960</text>
<text class="ticklabel xtl" transform="translate(280.3,629.0)" text-anchor="middle">1970</text>
<text class="ticklabel xtl" transform="translate(397.5,629.0)" text-anchor="middle">1980</text>
<text class="ticklabel xtl" transform="translate(514.7,629.0)" text-anchor="middle">1990</text>
<text class="ticklabel xtl" transform="translate(631.9,629.0)" text-anchor="middle">2000</text>
<text class="ticklabel xtl" transform="translate(749.0,629.0)" text-anchor="middle">2010</text>
<text class="ticklabel xtl" transform="translate(901.3,629.0)" text-anchor="middle">2023</text>
<text class="ticklabel ytl" transform="translate(128.8,595.3)">0</text>
<text class="ticklabel ytl" transform="translate(128.8,506.4)">5</text>
<text class="ticklabel ytl" transform="translate(128.8,417.5)">10</text>
<text class="ticklabel ytl" transform="translate(128.8,328.7)">15</text>
<text class="ticklabel ytl" transform="translate(128.8,239.8)">20</text>
<text class="ticklabel ytl" transform="translate(128.8,151.0)">25</text>
<text class="ticklabel ytl" transform="translate(128.8,62.1)">30 GJ</text>
<polyline class="pl" points="292.1,319.9 303.8,320.3 315.5,325.7 327.2,326.7 338.9,331.7 350.6,342.3 362.4,345.7 374.1,356.0 385.8,353.0 397.5,350.0 409.2,355.9 420.9,362.5 432.7,350.7 444.4,334.1 456.1,334.9 467.8,344.7 479.5,338.1 491.2,349.1 503.0,353.5 514.7,380.2 526.4,387.7 538.1,393.4 549.8,398.2 561.6,390.5 573.3,401.8 585.0,406.0 596.7,401.6 608.4,405.3 620.1,402.0 631.9,414.5 643.6,408.6 655.3,396.3 667.0,378.0 678.7,366.9 690.4,362.8 702.2,351.0 713.9,340.4 725.6,330.8 737.3,346.6 749.0,331.5 760.7,343.5 772.5,341.6 784.2,339.8 795.9,337.9 807.6,337.4 819.3,338.4 831.0,335.9 842.8,336.4 854.5,336.3 866.2,320.4 877.9,337.3 889.6,331.7 901.3,313.5" stroke="#FDBF6F" stroke-width="5.40" stroke-opacity="1.00" fill="none" clip-path="url(#axis_clip)"/>
<g class="pl" fill="#FFF" stroke="#FDBF6F" stroke-width="0.900">
  <circle cx="292.1" cy="319.9" r="2.2" />
  <circle cx="303.8" cy="320.3" r="2.2" />
  <circle cx="315.5" cy="325.7" r="2.2" />
  <circle cx="327.2" cy="326.7" r="2.2" />
  <circle cx="338.9" cy="331.7" r="2.2" />
  <circle cx="350.6" cy="342.3" r="2.2" />
  <circle cx="362.4" cy="345.7" r="2.2" />
  <circle cx="374.1" cy="356.0" r="2.2" />
  <circle cx="385.8" cy="353.0" r="2.2" />
  <circle cx="409.2" cy="355.9" r="2.2" />
  <circle cx="420.9" cy="362.5" r="2.2" />
  <circle cx="432.7" cy="350.7" r="2.2" />
  <circle cx="444.4" cy="334.1" r="2.2" />
  <circle cx="456.1" cy="334.9" r="2.2" />
  <circle cx="467.8" cy="344.7" r="2.2" />
  <circle cx="479.5" cy="338.1" r="2.2" />
  <circle cx="491.2" cy="349.1" r="2.2" />
  <circle cx="503.0" cy="353.5" r="2.2" />
  <circle cx="526.4" cy="387.7" r="2.2" />
  <circle cx="538.1" cy="393.4" r="2.2" />
  <circle cx="549.8" cy="398.2" r="2.2" />
  <circle cx="561.6" cy="390.5" r="2.2" />
  <circle cx="573.3" cy="401.8" r="2.2" />
  <circle cx="585.0" cy="406.0" r="2.2" />
  <circle cx="596.7" cy="401.6" r="2.2" />
  <circle cx="608.4" cy="405.3" r="2.2" />
  <circle cx="620.1" cy="402.0" r="2.2" />
  <circle cx="643.6" cy="408.6" r="2.2" />
  <circle cx="655.3" cy="396.3" r="2.2" />
  <circle cx="667.0" cy="378.0" r="2.2" />
  <circle cx="678.7" cy="366.9" r="2.2" />
  <circle cx="690.4" cy="362.8" r="2.2" />
  <circle cx="702.2" cy="351.0" r="2.2" />
  <circle cx="713.9" cy="340.4" r="2.2" />
  <circle cx="725.6" cy="330.8" r="2.2" />
  <circle cx="737.3" cy="346.6" r="2.2" />
  <circle cx="760.7" cy="343.5" r="2.2" />
  <circle cx="772.5" cy="341.6" r="2.2" />
  <circle cx="784.2" cy="339.8" r="2.2" />
  <circle cx="795.9" cy="337.9" r="2.2" />
  <circle cx="807.6" cy="337.4" r="2.2" />
  <circle cx="819.3" cy="338.4" r="2.2" />
  <circle cx="831.0" cy="335.9" r="2.2" />
  <circle cx="842.8" cy="336.4" r="2.2" />
  <circle cx="854.5" cy="336.3" r="2.2" />
  <circle cx="877.9" cy="337.3" r="2.2" />
  <circle cx="889.6" cy="331.7" r="2.2" />
  <circle cx="901.3" cy="313.5" r="2.2" />
</g>
<g class="pl" fill="#FFF" stroke="#FDBF6F" stroke-width="0.900">
  <circle cx="397.5" cy="350.0" r="5.4" />
  <circle cx="514.7" cy="380.2" r="5.4" />
  <circle cx="631.9" cy="414.5" r="5.4" />
  <circle cx="749.0" cy="331.5" r="5.4" />
  <circle cx="866.2" cy="320.4" r="5.4" />
</g>
<polyline class="pl" points="221.8,587.2 233.5,587.2 245.2,587.2 256.9,587.2 268.6,587.2 280.3,586.1 292.1,585.9 303.8,585.7 315.5,585.7 327.2,585.7 338.9,585.5 350.6,585.6 362.4,585.2 374.1,584.8 385.8,584.1 397.5,584.2 409.2,584.1 420.9,583.7 432.7,582.5 444.4,582.8 456.1,582.6 467.8,582.5 479.5,582.1 491.2,582.5 503.0,582.5 514.7,581.9 526.4,581.8 538.1,580.7 549.8,580.8 561.6,580.3 573.3,580.2 585.0,578.9 596.7,578.2 608.4,578.2 620.1,577.3 631.9,578.1 643.6,576.8 655.3,575.6 667.0,573.8 678.7,573.3 690.4,572.3 702.2,571.1 713.9,567.8 725.6,566.2 737.3,563.2 749.0,554.0 760.7,553.6 772.5,550.6 784.2,545.7 795.9,539.9 807.6,537.5 819.3,536.5 831.0,535.3 842.8,534.3 854.5,534.2 866.2,530.9 877.9,534.1 889.6,535.0 901.3,534.5" stroke="#E78AC3" stroke-width="5.40" stroke-opacity="1.00" fill="none" clip-path="url(#axis_clip)"/>
<g class="pl" fill="#FFF" stroke="#E78AC3" stroke-width="0.900">
  <circle cx="221.8" cy="587.2" r="2.2" />
  <circle cx="233.5" cy="587.2" r="2.2" />
  <circle cx="245.2" cy="587.2" r="2.2" />
  <circle cx="256.9" cy="587.2" r="2.2" />
  <circle cx="268.6" cy="587.2" r="2.2" />
  <circle cx="292.1" cy="585.9" r="2.2" />
  <circle cx="303.8" cy="585.7" r="2.2" />
  <circle cx="315.5" cy="585.7" r="2.2" />
  <circle cx="327.2" cy="585.7" r="2.2" />
  <circle cx="338.9" cy="585.5" r="2.2" />
  <circle cx="350.6" cy="585.6" r="2.2" />
  <circle cx="362.4" cy="585.2" r="2.2" />
  <circle cx="374.1" cy="584.8" r="2.2" />
  <circle cx="385.8" cy="584.1" r="2.2" />
  <circle cx="409.2" cy="584.1" r="2.2" />
  <circle cx="420.9" cy="583.7" r="2.2" />
  <circle cx="432.7" cy="582.5" r="2.2" />
  <circle cx="444.4" cy="582.8" r="2.2" />
  <circle cx="456.1" cy="582.6" r="2.2" />
  <circle cx="467.8" cy="582.5" r="2.2" />
  <circle cx="479.5" cy="582.1" r="2.2" />
  <circle cx="491.2" cy="582.5" r="2.2" />
  <circle cx="503.0" cy="582.5" r="2.2" />
  <circle cx="526.4" cy="581.8" r="2.2" />
  <circle cx="538.1" cy="580.7" r="2.2" />
  <circle cx="549.8" cy="580.8" r="2.2" />
  <circle cx="561.6" cy="580.3" r="2.2" />
  <circle cx="573.3" cy="580.2" r="2.2" />
  <circle cx="585.0" cy="578.9" r="2.2" />
  <circle cx="596.7" cy="578.2" r="2.2" />
  <circle cx="608.4" cy="578.2" r="2.2" />
  <circle cx="620.1" cy="577.3" r="2.2" />
  <circle cx="643.6" cy="576.8" r="2.2" />
  <circle cx="655.3" cy="575.6" r="2.2" />
  <circle cx="667.0" cy="573.8" r="2.2" />
  <circle cx="678.7" cy="573.3" r="2.2" />
  <circle cx="690.4" cy="572.3" r="2.2" />
  <circle cx="702.2" cy="571.1" r="2.2" />
  <circle cx="713.9" cy="567.8" r="2.2" />
  <circle cx="725.6" cy="566.2" r="2.2" />
  <circle cx="737.3" cy="563.2" r="2.2" />
  <circle cx="760.7" cy="553.6" r="2.2" />
  <circle cx="772.5" cy="550.6" r="2.2" />
  <circle cx="784.2" cy="545.7" r="2.2" />
  <circle cx="795.9" cy="539.9" r="2.2" />
  <circle cx="807.6" cy="537.5" r="2.2" />
  <circle cx="819.3" cy="536.5" r="2.2" />
  <circle cx="831.0" cy="535.3" r="2.2" />
  <circle cx="842.8" cy="534.3" r="2.2" />
  <circle cx="854.5" cy="534.2" r="2.2" />
  <circle cx="877.9" cy="534.1" r="2.2" />
  <circle cx="889.6" cy="535.0" r="2.2" />
  <circle cx="901.3" cy="534.5" r="2.2" />
</g>
<g class="pl" fill="#FFF" stroke="#E78AC3" stroke-width="0.900">
  <circle cx="280.3" cy="586.1" r="5.4" />
  <circle cx="397.5" cy="584.2" r="5.4" />
  <circle cx="514.7" cy="581.9" r="5.4" />
  <circle cx="631.9" cy="578.1" r="5.4" />
  <circle cx="749.0" cy="554.0" r="5.4" />
  <circle cx="866.2" cy="530.9" r="5.4" />
</g>
<polyline class="pl" points="514.7,555.8 526.4,555.9 538.1,557.0 549.8,555.8 561.6,554.0 573.3,553.1 585.0,552.5 596.7,554.3 608.4,555.0 620.1,555.4 631.9,559.9 643.6,561.9 655.3,560.1 667.0,561.7 678.7,559.1 690.4,558.0 702.2,559.4 713.9,550.9 725.6,538.0 737.3,534.3 749.0,531.9 760.7,537.2 772.5,539.9 784.2,532.4 795.9,527.6 807.6,518.1 819.3,524.8 831.0,524.0 842.8,514.4 854.5,507.3 866.2,513.3 877.9,514.5 889.6,515.3 901.3,508.5" stroke="#8DA0CB" stroke-width="5.40" stroke-opacity="1.00" fill="none" clip-path="url(#axis_clip)"/>
<g class="pl" fill="#FFF" stroke="#8DA0CB" stroke-width="0.900">
  <circle cx="526.4" cy="555.9" r="2.2" />
  <circle cx="538.1" cy="557.0" r="2.2" />
  <circle cx="549.8" cy="555.8" r="2.2" />
  <circle cx="561.6" cy="554.0" r="2.2" />
  <circle cx="573.3" cy="553.1" r="2.2" />
  <circle cx="585.0" cy="552.5" r="2.2" />
  <circle cx="596.7" cy="554.3" r="2.2" />
  <circle cx="608.4" cy="555.0" r="2.2" />
  <circle cx="620.1" cy="555.4" r="2.2" />
  <circle cx="643.6" cy="561.9" r="2.2" />
  <circle cx="655.3" cy="560.1" r="2.2" />
  <circle cx="667.0" cy="561.7" r="2.2" />
  <circle cx="678.7" cy="559.1" r="2.2" />
  <circle cx="690.4" cy="558.0" r="2.2" />
  <circle cx="702.2" cy="559.4" r="2.2" />
  <circle cx="713.9" cy="550.9" r="2.2" />
  <circle cx="725.6" cy="538.0" r="2.2" />
  <circle cx="737.3" cy="534.3" r="2.2" />
  <circle cx="760.7" cy="537.2" r="2.2" />
  <circle cx="772.5" cy="539.9" r="2.2" />
  <circle cx="784.2" cy="532.4" r="2.2" />
  <circle cx="795.9" cy="527.6" r="2.2" />
  <circle cx="807.6" cy="518.1" r="2.2" />
  <circle cx="819.3" cy="524.8" r="2.2" />
  <circle cx="831.0" cy="524.0" r="2.2" />
  <circle cx="842.8" cy="514.4" r="2.2" />
  <circle cx="854.5" cy="507.3" r="2.2" />
  <circle cx="877.9" cy="514.5" r="2.2" />
  <circle cx="889.6" cy="515.3" r="2.2" />
  <circle cx="901.3" cy="508.5" r="2.2" />
</g>
<g class="pl" fill="#FFF" stroke="#8DA0CB" stroke-width="0.900">
  <circle cx="514.7" cy="555.8" r="5.4" />
  <circle cx="631.9" cy="559.9" r="5.4" />
  <circle cx="749.0" cy="531.9" r="5.4" />
  <circle cx="866.2" cy="513.3" r="5.4" />
</g>
<polyline class="pl" points="221.8,587.2 233.5,587.2 245.2,587.2 256.9,587.2 268.6,587.2 280.3,587.2 292.1,587.2 303.8,587.2 315.5,587.2 327.2,587.2 338.9,587.2 350.6,587.2 362.4,587.2 374.1,587.2 385.8,587.2 397.5,587.2 409.2,587.2 420.9,587.2 432.7,587.2 444.4,584.9 456.1,582.7 467.8,587.0 479.5,585.9 491.2,586.4 503.0,584.9 514.7,584.5 526.4,585.5 538.1,585.1 549.8,586.7 561.6,587.1 573.3,584.4 585.0,584.5 596.7,583.8 608.4,583.7 620.1,583.0 631.9,580.9 643.6,572.7 655.3,573.4 667.0,574.2 678.7,576.1 690.4,577.9 702.2,574.5 713.9,575.9 725.6,574.7 737.3,575.8 749.0,574.6 760.7,573.8 772.5,573.7 784.2,574.4 795.9,574.6 807.6,575.3 819.3,574.6 831.0,574.8 842.8,575.1 854.5,574.9 866.2,576.5 877.9,576.2 889.6,576.4 901.3,576.5" stroke="#FC8D62" stroke-width="5.40" stroke-opacity="1.00" fill="none" clip-path="url(#axis_clip)"/>
<g class="pl" fill="#FFF" stroke="#FC8D62" stroke-width="0.900">
  <circle cx="221.8" cy="587.2" r="2.2" />
  <circle cx="233.5" cy="587.2" r="2.2" />
  <circle cx="245.2" cy="587.2" r="2.2" />
  <circle cx="256.9" cy="587.2" r="2.2" />
  <circle cx="268.6" cy="587.2" r="2.2" />
  <circle cx="292.1" cy="587.2" r="2.2" />
  <circle cx="303.8" cy="587.2" r="2.2" />
  <circle cx="315.5" cy="587.2" r="2.2" />
  <circle cx="327.2" cy="587.2" r="2.2" />
  <circle cx="338.9" cy="587.2" r="2.2" />
  <circle cx="350.6" cy="587.2" r="2.2" />
  <circle cx="362.4" cy="587.2" r="2.2" />
  <circle cx="374.1" cy="587.2" r="2.2" />
  <circle cx="385.8" cy="587.2" r="2.2" />
  <circle cx="409.2" cy="587.2" r="2.2" />
  <circle cx="420.9" cy="587.2" r="2.2" />
  <circle cx="432.7" cy="587.2" r="2.2" />
  <circle cx="444.4" cy="584.9" r="2.2" />
  <circle cx="456.1" cy="582.7" r="2.2" />
  <circle cx="467.8" cy="587.0" r="2.2" />
  <circle cx="479.5" cy="585.9" r="2.2" />
  <circle cx="491.2" cy="586.4" r="2.2" />
  <circle cx="503.0" cy="584.9" r="2.2" />
  <circle cx="526.4" cy="585.5" r="2.2" />
  <circle cx="538.1" cy="585.1" r="2.2" />
  <circle cx="549.8" cy="586.7" r="2.2" />
  <circle cx="561.6" cy="587.1" r="2.2" />
  <circle cx="573.3" cy="584.4" r="2.2" />
  <circle cx="585.0" cy="584.5" r="2.2" />
  <circle cx="596.7" cy="583.8" r="2.2" />
  <circle cx="608.4" cy="583.7" r="2.2" />
  <circle cx="620.1" cy="583.0" r="2.2" />
  <circle cx="643.6" cy="572.7" r="2.2" />
  <circle cx="655.3" cy="573.4" r="2.2" />
  <circle cx="667.0" cy="574.2" r="2.2" />
  <circle cx="678.7" cy="576.1" r="2.2" />
  <circle cx="690.4" cy="577.9" r="2.2" />
  <circle cx="702.2" cy="574.5" r="2.2" />
  <circle cx="713.9" cy="575.9" r="2.2" />
  <circle cx="725.6" cy="574.7" r="2.2" />
  <circle cx="737.3" cy="575.8" r="2.2" />
  <circle cx="760.7" cy="573.8" r="2.2" />
  <circle cx="772.5" cy="573.7" r="2.2" />
  <circle cx="784.2" cy="574.4" r="2.2" />
  <circle cx="795.9" cy="574.6" r="2.2" />
  <circle cx="807.6" cy="575.3" r="2.2" />
  <circle cx="819.3" cy="574.6" r="2.2" />
  <circle cx="831.0" cy="574.8" r="2.2" />
  <circle cx="842.8" cy="575.1" r="2.2" />
  <circle cx="854.5" cy="574.9" r="2.2" />
  <circle cx="877.9" cy="576.2" r="2.2" />
  <circle cx="889.6" cy="576.4" r="2.2" />
  <circle cx="901.3" cy="576.5" r="2.2" />
</g>
<g class="pl" fill="#FFF" stroke="#FC8D62" stroke-width="0.900">
  <circle cx="280.3" cy="587.2" r="5.4" />
  <circle cx="397.5" cy="587.2" r="5.4" />
  <circle cx="514.7" cy="584.5" r="5.4" />
  <circle cx="631.9" cy="580.9" r="5.4" />
  <circle cx="749.0" cy="574.6" r="5.4" />
  <circle cx="866.2" cy="576.5" r="5.4" />
</g>
<polyline class="pl" points="221.8,530.1 233.5,526.5 245.2,525.4 256.9,524.1 268.6,521.4 280.3,509.0 292.1,504.4 303.8,492.4 315.5,481.5 327.2,470.1 338.9,461.4 350.6,446.2 362.4,432.0 374.1,420.6 385.8,402.5 397.5,387.7 409.2,389.5 420.9,378.7 432.7,368.4 444.4,351.8 456.1,340.5 467.8,340.0 479.5,340.7 491.2,327.9 503.0,325.5 514.7,327.7 526.4,318.5 538.1,316.1 549.8,306.5 561.6,301.9 573.3,293.4 585.0,284.4 596.7,274.0 608.4,264.8 620.1,267.6 631.9,259.7 643.6,304.6 655.3,291.1 667.0,276.7 678.7,267.0 690.4,256.2 702.2,250.9 713.9,232.5 725.6,242.3 737.3,228.0 749.0,222.4 760.7,205.7 772.5,222.8 784.2,249.2 795.9,269.0 807.6,285.1 819.3,271.8 831.0,284.3 842.8,273.9 854.5,270.3 866.2,274.8 877.9,303.8 889.6,256.3 901.3,258.0" stroke="#66C2A5" stroke-width="5.40" stroke-opacity="1.00" fill="none" clip-path="url(#axis_clip)"/>
<g class="pl" fill="#FFF" stroke="#66C2A5" stroke-width="0.900">
  <circle cx="221.8" cy="530.1" r="2.2" />
  <circle cx="233.5" cy="526.5" r="2.2" />
  <circle cx="245.2" cy="525.4" r="2.2" />
  <circle cx="256.9" cy="524.1" r="2.2" />
  <circle cx="268.6" cy="521.4" r="2.2" />
  <circle cx="292.1" cy="504.4" r="2.2" />
  <circle cx="303.8" cy="492.4" r="2.2" />
  <circle cx="315.5" cy="481.5" r="2.2" />
  <circle cx="327.2" cy="470.1" r="2.2" />
  <circle cx="338.9" cy="461.4" r="2.2" />
  <circle cx="350.6" cy="446.2" r="2.2" />
  <circle cx="362.4" cy="432.0" r="2.2" />
  <circle cx="374.1" cy="420.6" r="2.2" />
  <circle cx="385.8" cy="402.5" r="2.2" />
  <circle cx="409.2" cy="389.5" r="2.2" />
  <circle cx="420.9" cy="378.7" r="2.2" />
  <circle cx="432.7" cy="368.4" r="2.2" />
  <circle cx="444.4" cy="351.8" r="2.2" />
  <circle cx="456.1" cy="340.5" r="2.2" />
  <circle cx="467.8" cy="340.0" r="2.2" />
  <circle cx="479.5" cy="340.7" r="2.2" />
  <circle cx="491.2" cy="327.9" r="2.2" />
  <circle cx="503.0" cy="325.5" r="2.2" />
  <circle cx="526.4" cy="318.5" r="2.2" />
  <circle cx="538.1" cy="316.1" r="2.2" />
  <circle cx="549.8" cy="306.5" r="2.2" />
  <circle cx="561.6" cy="301.9" r="2.2" />
  <circle cx="573.3" cy="293.4" r="2.2" />
  <circle cx="585.0" cy="284.4" r="2.2" />
  <circle cx="596.7" cy="274.0" r="2.2" />
  <circle cx="608.4" cy="264.8" r="2.2" />
  <circle cx="620.1" cy="267.6" r="2.2" />
  <circle cx="643.6" cy="304.6" r="2.2" />
  <circle cx="655.3" cy="291.1" r="2.2" />
  <circle cx="667.0" cy="276.7" r="2.2" />
  <circle cx="678.7" cy="267.0" r="2.2" />
  <circle cx="690.4" cy="256.2" r="2.2" />
  <circle cx="702.2" cy="250.9" r="2.2" />
  <circle cx="713.9" cy="232.5" r="2.2" />
  <circle cx="725.6" cy="242.3" r="2.2" />
  <circle cx="737.3" cy="228.0" r="2.2" />
  <circle cx="760.7" cy="205.7" r="2.2" />
  <circle cx="772.5" cy="222.8" r="2.2" />
  <circle cx="784.2" cy="249.2" r="2.2" />
  <circle cx="795.9" cy="269.0" r="2.2" />
  <circle cx="807.6" cy="285.1" r="2.2" />
  <circle cx="819.3" cy="271.8" r="2.2" />
  <circle cx="831.0" cy="284.3" r="2.2" />
  <circle cx="842.8" cy="273.9" r="2.2" />
  <circle cx="854.5" cy="270.3" r="2.2" />
  <circle cx="877.9" cy="303.8" r="2.2" />
  <circle cx="889.6" cy="256.3" r="2.2" />
  <circle cx="901.3" cy="258.0" r="2.2" />
</g>
<g class="pl" fill="#FFF" stroke="#66C2A5" stroke-width="0.900">
  <circle cx="280.3" cy="509.0" r="5.4" />
  <circle cx="397.5" cy="387.7" r="5.4" />
  <circle cx="514.7" cy="327.7" r="5.4" />
  <circle cx="631.9" cy="259.7" r="5.4" />
  <circle cx="749.0" cy="222.4" r="5.4" />
  <circle cx="866.2" cy="274.8" r="5.4" />
</g>
<polyline class="pl" points="221.8,587.2 233.5,587.2 245.2,587.2 256.9,587.2 268.6,587.2 280.3,587.2 292.1,587.2 303.8,587.2 315.5,587.2 327.2,587.2 338.9,587.2 350.6,587.2 362.4,587.2 374.1,587.2 385.8,587.2 397.5,587.2 409.2,587.2 420.9,587.2 432.7,587.2 444.4,587.2 456.1,587.2 467.8,587.2 479.5,587.2 491.2,587.2 503.0,587.2 514.7,587.2 526.4,587.2 538.1,587.2 549.8,587.2 561.6,587.2 573.3,587.2 585.0,587.2 596.7,587.2 608.4,587.2 620.1,587.2 631.9,587.2 643.6,587.2 655.3,587.2 667.0,587.2 678.7,587.2 690.4,587.2 702.2,587.2 713.9,587.2 725.6,587.2 737.3,587.2 749.0,587.2 760.7,587.2 772.5,587.2 784.2,587.2 795.9,587.2 807.6,587.1 819.3,587.1 831.0,586.5 842.8,584.4 854.5,581.9 866.2,578.7 877.9,574.1 889.6,563.8 901.3,547.6" stroke="#E5C494" stroke-width="5.40" stroke-opacity="1.00" fill="none" clip-path="url(#axis_clip)"/>
<g class="pl" fill="#FFF" stroke="#E5C494" stroke-width="0.900">
  <circle cx="221.8" cy="587.2" r="2.2" />
  <circle cx="233.5" cy="587.2" r="2.2" />
  <circle cx="245.2" cy="587.2" r="2.2" />
  <circle cx="256.9" cy="587.2" r="2.2" />
  <circle cx="268.6" cy="587.2" r="2.2" />
  <circle cx="292.1" cy="587.2" r="2.2" />
  <circle cx="303.8" cy="587.2" r="2.2" />
  <circle cx="315.5" cy="587.2" r="2.2" />
  <circle cx="327.2" cy="587.2" r="2.2" />
  <circle cx="338.9" cy="587.2" r="2.2" />
  <circle cx="350.6" cy="587.2" r="2.2" />
  <circle cx="362.4" cy="587.2" r="2.2" />
  <circle cx="374.1" cy="587.2" r="2.2" />
  <circle cx="385.8" cy="587.2" r="2.2" />
  <circle cx="409.2" cy="587.2" r="2.2" />
  <circle cx="420.9" cy="587.2" r="2.2" />
  <circle cx="432.7" cy="587.2" r="2.2" />
  <circle cx="444.4" cy="587.2" r="2.2" />
  <circle cx="456.1" cy="587.2" r="2.2" />
  <circle cx="467.8" cy="587.2" r="2.2" />
  <circle cx="479.5" cy="587.2" r="2.2" />
  <circle cx="491.2" cy="587.2" r="2.2" />
  <circle cx="503.0" cy="587.2" r="2.2" />
  <circle cx="526.4" cy="587.2" r="2.2" />
  <circle cx="538.1" cy="587.2" r="2.2" />
  <circle cx="549.8" cy="587.2" r="2.2" />
  <circle cx="561.6" cy="587.2" r="2.2" />
  <circle cx="573.3" cy="587.2" r="2.2" />
  <circle cx="585.0" cy="587.2" r="2.2" />
  <circle cx="596.7" cy="587.2" r="2.2" />
  <circle cx="608.4" cy="587.2" r="2.2" />
  <circle cx="620.1" cy="587.2" r="2.2" />
  <circle cx="643.6" cy="587.2" r="2.2" />
  <circle cx="655.3" cy="587.2" r="2.2" />
  <circle cx="667.0" cy="587.2" r="2.2" />
  <circle cx="678.7" cy="587.2" r="2.2" />
  <circle cx="690.4" cy="587.2" r="2.2" />
  <circle cx="702.2" cy="587.2" r="2.2" />
  <circle cx="713.9" cy="587.2" r="2.2" />
  <circle cx="725.6" cy="587.2" r="2.2" />
  <circle cx="737.3" cy="587.2" r="2.2" />
  <circle cx="760.7" cy="587.2" r="2.2" />
  <circle cx="772.5" cy="587.2" r="2.2" />
  <circle cx="784.2" cy="587.2" r="2.2" />
  <circle cx="795.9" cy="587.2" r="2.2" />
  <circle cx="807.6" cy="587.1" r="2.2" />
  <circle cx="819.3" cy="587.1" r="2.2" />
  <circle cx="831.0" cy="586.5" r="2.2" />
  <circle cx="842.8" cy="584.4" r="2.2" />
  <circle cx="854.5" cy="581.9" r="2.2" />
  <circle cx="877.9" cy="574.1" r="2.2" />
  <circle cx="889.6" cy="563.8" r="2.2" />
  <circle cx="901.3" cy="547.6" r="2.2" />
</g>
<g class="pl" fill="#FFF" stroke="#E5C494" stroke-width="0.900">
  <circle cx="280.3" cy="587.2" r="5.4" />
  <circle cx="397.5" cy="587.2" r="5.4" />
  <circle cx="514.7" cy="587.2" r="5.4" />
  <circle cx="631.9" cy="587.2" r="5.4" />
  <circle cx="749.0" cy="587.2" r="5.4" />
  <circle cx="866.2" cy="578.7" r="5.4" />
</g>
<polyline class="pl" points="221.8,587.2 233.5,587.2 245.2,587.2 256.9,587.2 268.6,587.2 280.3,587.2 292.1,587.2 303.8,587.2 315.5,587.2 327.2,587.2 338.9,587.2 350.6,587.2 362.4,587.2 374.1,587.2 385.8,587.2 397.5,587.2 409.2,587.2 420.9,587.2 432.7,587.2 444.4,587.2 456.1,587.2 467.8,587.2 479.5,587.2 491.2,587.2 503.0,587.2 514.7,587.2 526.4,587.2 538.1,587.2 549.8,587.2 561.6,587.2 573.3,587.2 585.0,587.2 596.7,587.2 608.4,587.2 620.1,587.2 631.9,587.2 643.6,587.1 655.3,587.1 667.0,587.1 678.7,587.1 690.4,587.1 702.2,586.9 713.9,586.5 725.6,586.1 737.3,586.0 749.0,585.2 760.7,584.8 772.5,582.7 784.2,581.5 795.9,576.8 807.6,569.0 819.3,559.4 831.0,552.6 842.8,548.1 854.5,542.6 866.2,542.2 877.9,530.7 889.6,523.9 901.3,513.8" stroke="#FFD92F" stroke-width="5.40" stroke-opacity="1.00" fill="none" clip-path="url(#axis_clip)"/>
<g class="pl" fill="#FFF" stroke="#FFD92F" stroke-width="0.900">
  <circle cx="221.8" cy="587.2" r="2.2" />
  <circle cx="233.5" cy="587.2" r="2.2" />
  <circle cx="245.2" cy="587.2" r="2.2" />
  <circle cx="256.9" cy="587.2" r="2.2" />
  <circle cx="268.6" cy="587.2" r="2.2" />
  <circle cx="292.1" cy="587.2" r="2.2" />
  <circle cx="303.8" cy="587.2" r="2.2" />
  <circle cx="315.5" cy="587.2" r="2.2" />
  <circle cx="327.2" cy="587.2" r="2.2" />
  <circle cx="338.9" cy="587.2" r="2.2" />
  <circle cx="350.6" cy="587.2" r="2.2" />
  <circle cx="362.4" cy="587.2" r="2.2" />
  <circle cx="374.1" cy="587.2" r="2.2" />
  <circle cx="385.8" cy="587.2" r="2.2" />
  <circle cx="409.2" cy="587.2" r="2.2" />
  <circle cx="420.9" cy="587.2" r="2.2" />
  <circle cx="432.7" cy="587.2" r="2.2" />
  <circle cx="444.4" cy="587.2" r="2.2" />
  <circle cx="456.1" cy="587.2" r="2.2" />
  <circle cx="467.8" cy="587.2" r="2.2" />
  <circle cx="479.5" cy="587.2" r="2.2" />
  <circle cx="491.2" cy="587.2" r="2.2" />
  <circle cx="503.0" cy="587.2" r="2.2" />
  <circle cx="526.4" cy="587.2" r="2.2" />
  <circle cx="538.1" cy="587.2" r="2.2" />
  <circle cx="549.8" cy="587.2" r="2.2" />
  <circle cx="561.6" cy="587.2" r="2.2" />
  <circle cx="573.3" cy="587.2" r="2.2" />
  <circle cx="585.0" cy="587.2" r="2.2" />
  <circle cx="596.7" cy="587.2" r="2.2" />
  <circle cx="608.4" cy="587.2" r="2.2" />
  <circle cx="620.1" cy="587.2" r="2.2" />
  <circle cx="643.6" cy="587.1" r="2.2" />
  <circle cx="655.3" cy="587.1" r="2.2" />
  <circle cx="667.0" cy="587.1" r="2.2" />
  <circle cx="678.7" cy="587.1" r="2.2" />
  <circle cx="690.4" cy="587.1" r="2.2" />
  <circle cx="702.2" cy="586.9" r="2.2" />
  <circle cx="713.9" cy="586.5" r="2.2" />
  <circle cx="725.6" cy="586.1" r="2.2" />
  <circle cx="737.3" cy="586.0" r="2.2" />
  <circle cx="760.7" cy="584.8" r="2.2" />
  <circle cx="772.5" cy="582.7" r="2.2" />
  <circle cx="784.2" cy="581.5" r="2.2" />
  <circle cx="795.9" cy="576.8" r="2.2" />
  <circle cx="807.6" cy="569.0" r="2.2" />
  <circle cx="819.3" cy="559.4" r="2.2" />
  <circle cx="831.0" cy="552.6" r="2.2" />
  <circle cx="842.8" cy="548.1" r="2.2" />
  <circle cx="854.5" cy="542.6" r="2.2" />
  <circle cx="877.9" cy="530.7" r="2.2" />
  <circle cx="889.6" cy="523.9" r="2.2" />
  <circle cx="901.3" cy="513.8" r="2.2" />
</g>
<g class="pl" fill="#FFF" stroke="#FFD92F" stroke-width="0.900">
  <circle cx="280.3" cy="587.2" r="5.4" />
  <circle cx="397.5" cy="587.2" r="5.4" />
  <circle cx="514.7" cy="587.2" r="5.4" />
  <circle cx="631.9" cy="587.2" r="5.4" />
  <circle cx="749.0" cy="585.2" r="5.4" />
  <circle cx="866.2" cy="542.2" r="5.4" />
</g>
<polyline class="pl" points="221.8,586.8 233.5,586.7 245.2,586.7 256.9,586.7 268.6,586.7 280.3,586.6 292.1,586.3 303.8,586.1 315.5,585.9 327.2,584.8 338.9,584.7 350.6,584.4 362.4,583.8 374.1,582.8 385.8,582.5 397.5,581.9 409.2,582.5 420.9,580.7 432.7,578.6 444.4,577.4 456.1,575.1 467.8,573.4 479.5,572.1 491.2,572.3 503.0,572.2 514.7,573.8 526.4,573.5 538.1,572.0 549.8,569.7 561.6,568.3 573.3,566.7 585.0,565.0 596.7,563.4 608.4,562.6 620.1,558.5 631.9,551.9 643.6,543.1 655.3,535.7 667.0,530.3 678.7,520.2 690.4,518.2 702.2,515.4 713.9,514.1 725.6,502.0 737.3,519.2 749.0,497.3 760.7,498.4 772.5,482.9 784.2,465.4 795.9,459.3 807.6,453.3 819.3,472.5 831.0,471.7 842.8,477.9 854.5,479.2 866.2,492.9 877.9,466.4 889.6,492.1 901.3,498.5" stroke="#6298C6" stroke-width="5.40" stroke-opacity="1.00" fill="none" clip-path="url(#axis_clip)"/>
<g class="pl" fill="#FFF" stroke="#6298C6" stroke-width="0.900">
  <circle cx="221.8" cy="586.8" r="2.2" />
  <circle cx="233.5" cy="586.7" r="2.2" />
  <circle cx="245.2" cy="586.7" r="2.2" />
  <circle cx="256.9" cy="586.7" r="2.2" />
  <circle cx="268.6" cy="586.7" r="2.2" />
  <circle cx="292.1" cy="586.3" r="2.2" />
  <circle cx="303.8" cy="586.1" r="2.2" />
  <circle cx="315.5" cy="585.9" r="2.2" />
  <circle cx="327.2" cy="584.8" r="2.2" />
  <circle cx="338.9" cy="584.7" r="2.2" />
  <circle cx="350.6" cy="584.4" r="2.2" />
  <circle cx="362.4" cy="583.8" r="2.2" />
  <circle cx="374.1" cy="582.8" r="2.2" />
  <circle cx="385.8" cy="582.5" r="2.2" />
  <circle cx="409.2" cy="582.5" r="2.2" />
  <circle cx="420.9" cy="580.7" r="2.2" />
  <circle cx="432.7" cy="578.6" r="2.2" />
  <circle cx="444.4" cy="577.4" r="2.2" />
  <circle cx="456.1" cy="575.1" r="2.2" />
  <circle cx="467.8" cy="573.4" r="2.2" />
  <circle cx="479.5" cy="572.1" r="2.2" />
  <circle cx="491.2" cy="572.3" r="2.2" />
  <circle cx="503.0" cy="572.2" r="2.2" />
  <circle cx="526.4" cy="573.5" r="2.2" />
  <circle cx="538.1" cy="572.0" r="2.2" />
  <circle cx="549.8" cy="569.7" r="2.2" />
  <circle cx="561.6" cy="568.3" r="2.2" />
  <circle cx="573.3" cy="566.7" r="2.2" />
  <circle cx="585.0" cy="565.0" r="2.2" />
  <circle cx="596.7" cy="563.4" r="2.2" />
  <circle cx="608.4" cy="562.6" r="2.2" />
  <circle cx="620.1" cy="558.5" r="2.2" />
  <circle cx="643.6" cy="543.1" r="2.2" />
  <circle cx="655.3" cy="535.7" r="2.2" />
  <circle cx="667.0" cy="530.3" r="2.2" />
  <circle cx="678.7" cy="520.2" r="2.2" />
  <circle cx="690.4" cy="518.2" r="2.2" />
  <circle cx="702.2" cy="515.4" r="2.2" />
  <circle cx="713.9" cy="514.1" r="2.2" />
  <circle cx="725.6" cy="502.0" r="2.2" />
  <circle cx="737.3" cy="519.2" r="2.2" />
  <circle cx="760.7" cy="498.4" r="2.2" />
  <circle cx="772.5" cy="482.9" r="2.2" />
  <circle cx="784.2" cy="465.4" r="2.2" />
  <circle cx="795.9" cy="459.3" r="2.2" />
  <circle cx="807.6" cy="453.3" r="2.2" />
  <circle cx="819.3" cy="472.5" r="2.2" />
  <circle cx="831.0" cy="471.7" r="2.2" />
  <circle cx="842.8" cy="477.9" r="2.2" />
  <circle cx="854.5" cy="479.2" r="2.2" />
  <circle cx="877.9" cy="466.4" r="2.2" />
  <circle cx="889.6" cy="492.1" r="2.2" />
  <circle cx="901.3" cy="498.5" r="2.2" />
</g>
<g class="pl" fill="#FFF" stroke="#6298C6" stroke-width="0.900">
  <circle cx="280.3" cy="586.6" r="5.4" />
  <circle cx="397.5" cy="581.9" r="5.4" />
  <circle cx="514.7" cy="573.8" r="5.4" />
  <circle cx="631.9" cy="551.9" r="5.4" />
  <circle cx="749.0" cy="497.3" r="5.4" />
  <circle cx="866.2" cy="492.9" r="5.4" />
</g>
<polyline class="pl" points="221.8,452.8 233.5,444.6 245.2,443.9 256.9,419.5 268.6,407.8 280.3,387.2 292.1,365.5 303.8,341.4 315.5,296.5 327.2,272.5 338.9,270.4 350.6,253.9 362.4,255.6 374.1,232.5 385.8,218.4 397.5,237.7 409.2,258.3 420.9,259.9 432.7,288.6 444.4,295.6 456.1,293.2 467.8,275.9 479.5,274.3 491.2,279.8 503.0,278.1 514.7,281.8 526.4,286.7 538.1,290.3 549.8,282.7 561.6,268.6 573.3,250.7 585.0,232.1 596.7,206.2 608.4,197.2 620.1,202.0 631.9,190.2 643.6,192.4 655.3,205.0 667.0,219.9 678.7,211.9 690.4,209.8 702.2,205.4 713.9,190.3 725.6,178.1 737.3,186.3 749.0,161.8 760.7,150.8 772.5,129.0 784.2,120.6 795.9,106.2 807.6,139.2 819.3,166.4 831.0,165.5 842.8,189.2 854.5,194.0 866.2,218.4 877.9,190.8 889.6,173.9 901.3,167.7" stroke="#404040" stroke-width="5.40" stroke-opacity="1.00" fill="none" clip-path="url(#axis_clip)"/>
<g class="pl" fill="#FFF" stroke="#404040" stroke-width="0.900">
  <circle cx="221.8" cy="452.8" r="2.2" />
  <circle cx="233.5" cy="444.6" r="2.2" />
  <circle cx="245.2" cy="443.9" r="2.2" />
  <circle cx="256.9" cy="419.5" r="2.2" />
  <circle cx="268.6" cy="407.8" r="2.2" />
  <circle cx="292.1" cy="365.5" r="2.2" />
  <circle cx="303.8" cy="341.4" r="2.2" />
  <circle cx="315.5" cy="296.5" r="2.2" />
  <circle cx="327.2" cy="272.5" r="2.2" />
  <circle cx="338.9" cy="270.4" r="2.2" />
  <circle cx="350.6" cy="253.9" r="2.2" />
  <circle cx="362.4" cy="255.6" r="2.2" />
  <circle cx="374.1" cy="232.5" r="2.2" />
  <circle cx="385.8" cy="218.4" r="2.2" />
  <circle cx="409.2" cy="258.3" r="2.2" />
  <circle cx="420.9" cy="259.9" r="2.2" />
  <circle cx="432.7" cy="288.6" r="2.2" />
  <circle cx="444.4" cy="295.6" r="2.2" />
  <circle cx="456.1" cy="293.2" r="2.2" />
  <circle cx="467.8" cy="275.9" r="2.2" />
  <circle cx="479.5" cy="274.3" r="2.2" />
  <circle cx="491.2" cy="279.8" r="2.2" />
  <circle cx="503.0" cy="278.1" r="2.2" />
  <circle cx="526.4" cy="286.7" r="2.2" />
  <circle cx="538.1" cy="290.3" r="2.2" />
  <circle cx="549.8" cy="282.7" r="2.2" />
  <circle cx="561.6" cy="268.6" r="2.2" />
  <circle cx="573.3" cy="250.7" r="2.2" />
  <circle cx="585.0" cy="232.1" r="2.2" />
  <circle cx="596.7" cy="206.2" r="2.2" />
  <circle cx="608.4" cy="197.2" r="2.2" />
  <circle cx="620.1" cy="202.0" r="2.2" />
  <circle cx="643.6" cy="192.4" r="2.2" />
  <circle cx="655.3" cy="205.0" r="2.2" />
  <circle cx="667.0" cy="219.9" r="2.2" />
  <circle cx="678.7" cy="211.9" r="2.2" />
  <circle cx="690.4" cy="209.8" r="2.2" />
  <circle cx="702.2" cy="205.4" r="2.2" />
  <circle cx="713.9" cy="190.3" r="2.2" />
  <circle cx="725.6" cy="178.1" r="2.2" />
  <circle cx="737.3" cy="186.3" r="2.2" />
  <circle cx="760.7" cy="150.8" r="2.2" />
  <circle cx="772.5" cy="129.0" r="2.2" />
  <circle cx="784.2" cy="120.6" r="2.2" />
  <circle cx="795.9" cy="106.2" r="2.2" />
  <circle cx="807.6" cy="139.2" r="2.2" />
  <circle cx="819.3" cy="166.4" r="2.2" />
  <circle cx="831.0" cy="165.5" r="2.2" />
  <circle cx="842.8" cy="189.2" r="2.2" />
  <circle cx="854.5" cy="194.0" r="2.2" />
  <circle cx="877.9" cy="190.8" r="2.2" />
  <circle cx="889.6" cy="173.9" r="2.2" />
  <circle cx="901.3" cy="167.7" r="2.2" />
</g>
<g class="pl" fill="#FFF" stroke="#404040" stroke-width="0.900">
  <circle cx="280.3" cy="387.2" r="5.4" />
  <circle cx="397.5" cy="237.7" r="5.4" />
  <circle cx="514.7" cy="281.8" r="5.4" />
  <circle cx="631.9" cy="190.2" r="5.4" />
  <circle cx="749.0" cy="161.8" r="5.4" />
  <circle cx="866.2" cy="218.4" r="5.4" />
</g>
<polyline class="pl" points="221.8,571.9 233.5,571.1 245.2,571.0 256.9,571.7 268.6,570.3 280.3,568.4 292.1,568.7 303.8,568.2 315.5,569.0 327.2,568.3 338.9,565.3 350.6,564.3 362.4,558.9 374.1,555.4 385.8,553.5 397.5,551.3 409.2,552.8 420.9,551.7 432.7,548.2 444.4,540.1 456.1,532.7 467.8,533.1 479.5,531.7 491.2,531.6 503.0,533.0 514.7,539.8 526.4,533.8 538.1,536.2 549.8,535.5 561.6,535.0 573.3,533.3 585.0,532.4 596.7,532.9 608.4,534.8 620.1,534.9 631.9,532.2 643.6,533.8 655.3,536.1 667.0,534.8 678.7,532.9 690.4,535.4 702.2,536.7 713.9,534.2 725.6,534.0 737.3,544.7 749.0,532.4 760.7,529.2 772.5,530.3 784.2,526.4 795.9,523.1 807.6,523.3 819.3,529.9 831.0,527.3 842.8,529.0 854.5,532.9 866.2,538.2 877.9,528.1 889.6,538.8 901.3,540.1" stroke="#7B553E" stroke-width="5.40" stroke-opacity="1.00" fill="none" clip-path="url(#axis_clip)"/>
<g class="pl" fill="#FFF" stroke="#7B553E" stroke-width="0.900">
  <circle cx="221.8" cy="571.9" r="2.2" />
  <circle cx="233.5" cy="571.1" r="2.2" />
  <circle cx="245.2" cy="571.0" r="2.2" />
  <circle cx="256.9" cy="571.7" r="2.2" />
  <circle cx="268.6" cy="570.3" r="2.2" />
  <circle cx="292.1" cy="568.7" r="2.2" />
  <circle cx="303.8" cy="568.2" r="2.2" />
  <circle cx="315.5" cy="569.0" r="2.2" />
  <circle cx="327.2" cy="568.3" r="2.2" />
  <circle cx="338.9" cy="565.3" r="2.2" />
  <circle cx="350.6" cy="564.3" r="2.2" />
  <circle cx="362.4" cy="558.9" r="2.2" />
  <circle cx="374.1" cy="555.4" r="2.2" />
  <circle cx="385.8" cy="553.5" r="2.2" />
  <circle cx="409.2" cy="552.8" r="2.2" />
  <circle cx="420.9" cy="551.7" r="2.2" />
  <circle cx="432.7" cy="548.2" r="2.2" />
  <circle cx="444.4" cy="540.1" r="2.2" />
  <circle cx="456.1" cy="532.7" r="2.2" />
  <circle cx="467.8" cy="533.1" r="2.2" />
  <circle cx="479.5" cy="531.7" r="2.2" />
  <circle cx="491.2" cy="531.6" r="2.2" />
  <circle cx="503.0" cy="533.0" r="2.2" />
  <circle cx="526.4" cy="533.8" r="2.2" />
  <circle cx="538.1" cy="536.2" r="2.2" />
  <circle cx="549.8" cy="535.5" r="2.2" />
  <circle cx="561.6" cy="535.0" r="2.2" />
  <circle cx="573.3" cy="533.3" r="2.2" />
  <circle cx="585.0" cy="532.4" r="2.2" />
  <circle cx="596.7" cy="532.9" r="2.2" />
  <circle cx="608.4" cy="534.8" r="2.2" />
  <circle cx="620.1" cy="534.9" r="2.2" />
  <circle cx="643.6" cy="533.8" r="2.2" />
  <circle cx="655.3" cy="536.1" r="2.2" />
  <circle cx="667.0" cy="534.8" r="2.2" />
  <circle cx="678.7" cy="532.9" r="2.2" />
  <circle cx="690.4" cy="535.4" r="2.2" />
  <circle cx="702.2" cy="536.7" r="2.2" />
  <circle cx="713.9" cy="534.2" r="2.2" />
  <circle cx="725.6" cy="534.0" r="2.2" />
  <circle cx="737.3" cy="544.7" r="2.2" />
  <circle cx="760.7" cy="529.2" r="2.2" />
  <circle cx="772.5" cy="530.3" r="2.2" />
  <circle cx="784.2" cy="526.4" r="2.2" />
  <circle cx="795.9" cy="523.1" r="2.2" />
  <circle cx="807.6" cy="523.3" r="2.2" />
  <circle cx="819.3" cy="529.9" r="2.2" />
  <circle cx="831.0" cy="527.3" r="2.2" />
  <circle cx="842.8" cy="529.0" r="2.2" />
  <circle cx="854.5" cy="532.9" r="2.2" />
  <circle cx="877.9" cy="528.1" r="2.2" />
  <circle cx="889.6" cy="538.8" r="2.2" />
  <circle cx="901.3" cy="540.1" r="2.2" />
</g>
<g class="pl" fill="#FFF" stroke="#7B553E" stroke-width="0.900">
  <circle cx="280.3" cy="568.4" r="5.4" />
  <circle cx="397.5" cy="551.3" r="5.4" />
  <circle cx="514.7" cy="539.8" r="5.4" />
  <circle cx="631.9" cy="532.2" r="5.4" />
  <circle cx="749.0" cy="532.4" r="5.4" />
  <circle cx="866.2" cy="538.2" r="5.4" />
</g>
<text transform="translate(945.6,313.5)" dy="8.1" font-size="27.00" fill="#FDBF6F" stroke="none">Bioenergy</text>
<text transform="translate(945.6,509.5)" dy="8.1" font-size="27.00" fill="#E78AC3" stroke="none">Other</text>
<text transform="translate(945.6,457.7)" dy="8.1" font-size="27.00" fill="#8DA0CB" stroke="none">Biofuels</text>
<text transform="translate(945.6,587.2)" dy="8.1" font-size="27.00" fill="#FC8D62" stroke="none">Nuclear</text>
<text transform="translate(945.6,258.0)" dy="8.1" font-size="27.00" fill="#66C2A5" stroke="none">Hydro</text>
<text transform="translate(945.6,561.3)" dy="8.1" font-size="27.00" fill="#E5C494" stroke="none">Solar</text>
<text transform="translate(945.6,483.6)" dy="8.1" font-size="27.00" fill="#FFD92F" stroke="none">Wind</text>
<text transform="translate(945.6,431.8)" dy="8.1" font-size="27.00" fill="#6298C6" stroke="none">Gas</text>
<text transform="translate(945.6,167.7)" dy="8.1" font-size="27.00" fill="#404040" stroke="none">Oil</text>
<text transform="translate(945.6,535.4)" dy="8.1" font-size="27.00" fill="#7B553E" stroke="none">Coal</text>
<polyline class="pl" points="910.8,534.5 912.4,534.4 913.8,534.1 915.2,533.7 916.4,533.2 917.6,532.5 918.8,531.7 919.8,530.8 920.8,529.8 921.7,528.8 922.7,527.6 923.5,526.4 924.4,525.2 925.2,523.9 926.0,522.6 926.8,521.3 927.6,520.0 928.4,518.8 929.3,517.5 930.1,516.3 931.1,515.2 932.0,514.1 933.0,513.1 934.0,512.2 935.2,511.4 936.4,510.8 937.6,510.2 939.0,509.8 940.4,509.6 942.0,509.5" stroke="#E78AC3" stroke-width="0.90" stroke-opacity="1.00" fill="none" />
<polyline class="pl" points="910.8,508.5 912.4,508.3 913.8,507.8 915.2,507.0 916.4,505.9 917.6,504.5 918.8,502.9 919.8,501.1 920.8,499.0 921.7,496.9 922.7,494.5 923.5,492.1 924.4,489.6 925.2,487.0 926.0,484.4 926.8,481.8 927.6,479.2 928.4,476.6 929.3,474.1 930.1,471.6 931.1,469.3 932.0,467.1 933.0,465.1 934.0,463.3 935.2,461.7 936.4,460.3 937.6,459.2 939.0,458.4 940.4,457.8 942.0,457.7" stroke="#8DA0CB" stroke-width="0.90" stroke-opacity="1.00" fill="none" />
<polyline class="pl" points="910.8,576.5 912.4,576.5 913.8,576.6 915.2,576.8 916.4,577.0 917.6,577.3 918.8,577.7 919.8,578.1 920.8,578.5 921.7,578.9 922.7,579.4 923.5,579.9 924.4,580.5 925.2,581.0 926.0,581.6 926.8,582.1 927.6,582.7 928.4,583.2 929.3,583.7 930.1,584.2 931.1,584.7 932.0,585.2 933.0,585.6 934.0,586.0 935.2,586.3 936.4,586.6 937.6,586.9 939.0,587.0 940.4,587.1 942.0,587.2" stroke="#FC8D62" stroke-width="0.90" stroke-opacity="1.00" fill="none" />
<polyline class="pl" points="910.8,547.6 912.4,547.7 913.8,547.8 915.2,548.0 916.4,548.3 917.6,548.7 918.8,549.1 919.8,549.6 920.8,550.2 921.7,550.8 922.7,551.4 923.5,552.0 924.4,552.7 925.2,553.4 926.0,554.1 926.8,554.8 927.6,555.5 928.4,556.2 929.3,556.9 930.1,557.5 931.1,558.1 932.0,558.7 933.0,559.3 934.0,559.8 935.2,560.2 936.4,560.6 937.6,560.9 939.0,561.1 940.4,561.2 942.0,561.3" stroke="#E5C494" stroke-width="0.90" stroke-opacity="1.00" fill="none" />
<polyline class="pl" points="910.8,513.8 912.4,513.7 913.8,513.4 915.2,512.9 916.4,512.3 917.6,511.4 918.8,510.5 919.8,509.4 920.8,508.2 921.7,506.9 922.7,505.5 923.5,504.1 924.4,502.6 925.2,501.0 926.0,499.5 926.8,497.9 927.6,496.4 928.4,494.8 929.3,493.3 930.1,491.9 931.1,490.5 932.0,489.2 933.0,488.0 934.0,486.9 935.2,486.0 936.4,485.1 937.6,484.5 939.0,484.0 940.4,483.7 942.0,483.6" stroke="#FFD92F" stroke-width="0.90" stroke-opacity="1.00" fill="none" />
<polyline class="pl" points="910.8,498.5 912.4,498.3 913.8,497.6 915.2,496.5 916.4,495.1 917.6,493.3 918.8,491.1 919.8,488.7 920.8,486.1 921.7,483.2 922.7,480.2 923.5,477.0 924.4,473.7 925.2,470.3 926.0,466.9 926.8,463.4 927.6,460.0 928.4,456.6 929.3,453.3 930.1,450.1 931.1,447.1 932.0,444.2 933.0,441.5 934.0,439.1 935.2,437.0 936.4,435.2 937.6,433.8 939.0,432.7 940.4,432.0 942.0,431.8" stroke="#6298C6" stroke-width="0.90" stroke-opacity="1.00" fill="none" />
<polyline class="pl" points="910.8,540.1 912.4,540.1 913.8,540.1 915.2,540.0 916.4,539.9 917.6,539.8 918.8,539.6 919.8,539.4 920.8,539.3 921.7,539.0 922.7,538.8 923.5,538.6 924.4,538.4 925.2,538.1 926.0,537.9 926.8,537.6 927.6,537.4 928.4,537.1 929.3,536.9 930.1,536.7 931.1,536.5 932.0,536.3 933.0,536.1 934.0,535.9 935.2,535.7 936.4,535.6 937.6,535.5 939.0,535.4 940.4,535.4 942.0,535.4" stroke="#7B553E" stroke-width="0.90" stroke-opacity="1.00" fill="none" />
<text transform="translate(1079.5,310.2)" dy="0.0" font-size="14.40" fill="#FDBF6F" stroke="none">excluding</text>
<text transform="translate(1079.5,310.2)" dy="14.4" font-size="14.40" fill="#FDBF6F" stroke="none">liquids</text>
<text transform="translate(145.6,47.2)" dy="0.0" font-size="27.00" fill="#808080" stroke="none">Annual energy consumption per capita Brazil</text>
<text transform="translate(130.0,81.6)" dy="8.1" font-size="27.00" fill="#808080" stroke="none" text-anchor="end">per person</text>
<text transform="translate(160.2,666.1)" font-size="19.80" font-family="Helvetica" fill="#BFBFBF" stroke="none" xml:space="preserve">Global Carbon Project   &#9679;   Data: Energy Institute, IEA (bioenergy)</text>
<g>
  <rect x="123.0" y="651.4" width="34" height="17" fill="#FFF" stroke="none"/>
  <g transform="translate(124.0,652.4) scale(0.24)">
  <g><circle fill="#FFF" cx="37.79" cy="28.5" r="28.84"/>
     <circle fill="none" cx="37.79" cy="28.5" r="28.84" stroke="#BFBFBF" stroke-width="5.5"/>
     <path fill="#BFBFBF" d="M37.16,23.19 l-4.29,2.23c-0.458-0.951-1.02-1.62-1.69-2c-0.667-0.38-1.29-0.571-1.86-0.571c-2.86,0-4.29,1.89-4.29,5.66 c0,1.71,0.36,3.08,1.09,4.11c0.724,1.03,1.79,1.54,3.2,1.54c1.87,0,3.18-0.915,3.94-2.74l3.94,2 c-0.838,1.56-2,2.79-3.49,3.69c-1.48,0.896-3.12,1.34-4.91,1.34c-2.86,0-5.16-0.875-6.92-2.63 c-1.75-1.75-2.63-4.19-2.63-7.31c0-3.05,0.886-5.47,2.66-7.26c1.77-1.79,4.01-2.69,6.72-2.69 C32.6,18.56,35.44,20.1,37.16,23.19z
              M55.61,23.19l-4.23,2.23c-0.457-0.951-1.02-1.62-1.69-2 c-0.668-0.38-1.31-0.571-1.91-0.571c-2.86,0-4.29,1.89-4.29,5.66c0,1.71,0.363,3.08,1.09,4.11 c0.723,1.03,1.79,1.54,3.2,1.54c1.87,0,3.18-0.915,3.94-2.74l4,2c-0.875,1.56-2.06,2.79-3.54,3.69 c-1.49,0.9-3.11,1.34-4.86,1.34c-2.9,0-5.21-0.875-6.94-2.63c-1.74-1.75-2.6-4.19-2.6-7.31 c0-3.05,0.885-5.47,2.66-7.26c1.77-1.79,4.01-2.69,6.71-2.69C51.12,18.56,53.944,20.1,55.61,23.19z"/>
  </g></g>
  <g transform="translate(140.2,652.4) scale(0.24)">
  <g><circle fill="#FFF" cx="37.79" cy="28.5" r="28.84"/>
     <circle fill="none" cx="37.79" cy="28.5" r="28.84" stroke="#BFBFBF" stroke-width="5.5"/>
     <path fill="#BFBFBF" d="M46.129,20.557v13.085h-3.656v15.542h-9.944V33.643h-3.656V20.557 c0-0.572,0.2-1.057,0.599-1.457c0.401-0.399,0.887-0.6,1.457-0.6h13.144c0.533,0,1.01,0.2,1.428,0.6 C45.918,19.5,46.129,19.986,46.129,20.557z
              M33.042,12.329c0-3.008,1.485-4.514,4.458-4.514s4.457,1.504,4.457,4.514 c0,2.971-1.486,4.457-4.457,4.457S33.042,15.3,33.042,12.329z"/>
  </g></g>
</g>
</g>
</svg>
