<svg version="1.1" xmlns="http://www.w3.org/2000/svg" xmlns:xlink="http://www.w3.org/1999/xlink" width="100%" height="100%" viewBox="0 0 1200.000 674.916">
<title>Annual CO2 fluxes from land-use change: Türkiye</title>
<style type="text/css">
  #main {font-family:Helvetica,Arial,sans-serif; font-size:27.00px;
         fill-opacity:1; fill:#000000; stroke:none; stroke-linejoin:round; stroke-linecap:round; stroke-width:1.00;}
  .marker {stroke-opacity:0;fill-opacity:0;}
  .marker:hover {stroke-opacity:0.5; fill-opacity:1;}
  .ticklabel {font-size:27.00px;fill:#808080;stroke:none;font-family:Helvetica}
  .ytl {text-anchor:end;}
  .dp1 {pointer-events:none;font-size:70%;text-anchor:middle;fill:#000000;}
  .dp2 {pointer-events:none;font-size:70%;text-anchor:middle;fill:#FFFFFF;}
  .numtip {pointer-events:none;}
  .cc {opacity:0.25;}
.dl_fe {background-color:#FDFFDF;display:flex;margin:auto;align-items:center}
.dl_fe_p {font-size:20px;text-align:center;margin:3px}
.dl_el {display:none;pointer-events:none;}
.cc:hover + .dl_el {display:block;}
text:hover + .dl_el {display:block;}
</style>
<defs>
  <clipPath id="axis_clip"><rect x="145.8" y="54.2" width="761.2" height="532.8" /></clipPath>
  <path id="line_x" d="M 145.600,0 h 761.600" stroke="#262626" stroke-opacity="0.15" stroke-width="1.00"/>
  <path id="tick_y" d="M 145.600,0 h -6.000" stroke="#808080" stroke-width="0.90"/>
  <path id="tick_x" d="M 0,587.177 v 6.000" stroke="#808080" stroke-width="0.90"/>
</defs>
<g id="main">
<use xlink:href="#line_x" transform="translate(0,587.2)"/>
<use xlink:href="#line_x" transform="translate(0,480.5)"/>
<use xlink:href="#line_x" transform="translate(0,373.9)"/>
<use xlink:href="#line_x" transform="translate(0,267.3)"/>
<use xlink:href="#line_x" transform="translate(0,160.6)"/>
<use xlink:href="#line_x" transform="translate(0,54.0)"/>
<use xlink:href="#tick_y" transform="translate(0,587.2)"/>
<use xlink:href="#tick_y" transform="translate(0,480.5)"/>
<use xlink:href="#tick_y" transform="translate(0,373.9)"/>
<use xlink:href="#tick_y" transform="translate(0,267.3)"/>
<use xlink:href="#tick_y" transform="translate(0,160.6)"/>
<use xlink:href="#tick_y" transform="translate(0,54.0)"/>
<use xlink:href="#tick_x" transform="translate(157.9,0)"/>
<use xlink:href="#tick_x" transform="translate(269.7,0)"/>
<use xlink:href="#tick_x" transform="translate(381.6,0)"/>
<use xlink:href="#tick_x" transform="translate(493.4,0)"/>
<use xlink:href="#tick_x" transform="translate(605.2,0)"/>
<use xlink:href="#tick_x" transform="translate(717.1,0)"/>
<use xlink:href="#tick_x" transform="translate(828.9,0)"/>
<polyline points="145.6,53.993 145.6,587.177 907.2,587.177" stroke="#808080" stroke-width="0.90" fill="none"/>
<text class="ticklabel xtl" transform="translate(157.9,629.0)" text-anchor="middle">1960</text>
<text class="ticklabel xtl" transform="translate(269.7,629.0)" text-anchor="middle">1970</text>
<text class="ticklabel xtl" transform="translate(381.6,629.0)" text-anchor="middle">1980</text>
<text class="ticklabel xtl" transform="translate(493.4,629.0)" text-anchor="middle">1990</text>
<text class="ticklabel xtl" transform="translate(605.2,629.0)" text-anchor="middle">2000</text>
<text class="ticklabel xtl" transform="translate(717.1,629.0)" text-anchor="middle">2010</text>
<text class="ticklabel xtl" transform="translate(828.9,629.0)" text-anchor="middle">2020</text>
<text class="ticklabel ytl" transform="translate(128.8,595.3)">-50</text>
<text class="ticklabel ytl" transform="translate(128.8,488.6)">0</text>
<text class="ticklabel ytl" transform="translate(128.8,382.0)">50</text>
<text class="ticklabel ytl" transform="translate(128.8,275.4)">100</text>
<text class="ticklabel ytl" transform="translate(128.8,168.7)">150</text>
<text class="ticklabel ytl" transform="translate(128.8,62.1)">200 Mt</text>
<polyline class="pl" points="145.6,480.5 907.2,480.5" stroke="#000" stroke-width="0.90" stroke-opacity="1.00" fill="none" clip-path="url(#axis_clip)"/>
<polyline class="pl" points="135.5,182.9 146.7,196.2 157.9,292.7 169.1,302.6 180.3,197.7 191.5,301.1 202.6,330.1 213.8,311.9 225.0,358.6 236.2,313.5 247.4,148.9 258.6,302.9 269.7,305.0 280.9,237.6 292.1,310.4 303.3,362.9 314.5,395.0 325.7,400.6 336.8,375.7 348.0,386.4 359.2,262.7 370.4,368.6 381.6,387.3 392.8,467.5 403.9,491.3 415.1,342.6 426.3,383.3 437.5,415.8 448.7,332.8 459.9,411.0 471.0,381.7 482.2,431.1 493.4,421.1 504.6,448.4 515.8,454.2 527.0,418.7 538.1,465.0 549.3,483.0 560.5,490.2 571.7,442.6 582.9,453.0 594.1,484.4 605.2,460.2 616.4,437.4 627.6,491.7 638.8,396.2 650.0,445.0 661.2,500.3 672.3,547.9 683.5,560.4 694.7,561.5 705.9,536.4 717.1,578.3 728.3,542.6 739.4,543.7 750.6,522.8 761.8,531.6 773.0,519.1 784.2,521.5 795.4,511.8 806.5,566.6 817.7,551.1 828.9,544.5 840.1,546.2 851.3,547.3 862.5,547.9" stroke="#0072BD" stroke-width="5.40" stroke-opacity="1.00" fill="none" clip-path="url(#axis_clip)"/>
<g class="pl" fill="#FFF" stroke="#0072BD" stroke-width="0.900">
  <circle cx="146.7" cy="196.2" r="2.2" />
  <circle cx="169.1" cy="302.6" r="2.2" />
  <circle cx="180.3" cy="197.7" r="2.2" />
  <circle cx="191.5" cy="301.1" r="2.2" />
  <circle cx="202.6" cy="330.1" r="2.2" />
  <circle cx="213.8" cy="311.9" r="2.2" />
  <circle cx="225.0" cy="358.6" r="2.2" />
  <circle cx="236.2" cy="313.5" r="2.2" />
  <circle cx="247.4" cy="148.9" r="2.2" />
  <circle cx="258.6" cy="302.9" r="2.2" />
  <circle cx="280.9" cy="237.6" r="2.2" />
  <circle cx="292.1" cy="310.4" r="2.2" />
  <circle cx="303.3" cy="362.9" r="2.2" />
  <circle cx="314.5" cy="395.0" r="2.2" />
  <circle cx="325.7" cy="400.6" r="2.2" />
  <circle cx="336.8" cy="375.7" r="2.2" />
  <circle cx="348.0" cy="386.4" r="2.2" />
  <circle cx="359.2" cy="262.7" r="2.2" />
  <circle cx="370.4" cy="368.6" r="2.2" />
  <circle cx="392.8" cy="467.5" r="2.2" />
  <circle cx="403.9" cy="491.3" r="2.2" />
  <circle cx="415.1" cy="342.6" r="2.2" />
  <circle cx="426.3" cy="383.3" r="2.2" />
  <circle cx="437.5" cy="415.8" r="2.2" />
  <circle cx="448.7" cy="332.8" r="2.2" />
  <circle cx="459.9" cy="411.0" r="2.2" />
  <circle cx="471.0" cy="381.7" r="2.2" />
  <circle cx="482.2" cy="431.1" r="2.2" />
  <circle cx="504.6" cy="448.4" r="2.2" />
  <circle cx="515.8" cy="454.2" r="2.2" />
  <circle cx="527.0" cy="418.7" r="2.2" />
  <circle cx="538.1" cy="465.0" r="2.2" />
  <circle cx="549.3" cy="483.0" r="2.2" />
  <circle cx="560.5" cy="490.2" r="2.2" />
  <circle cx="571.7" cy="442.6" r="2.2" />
  <circle cx="582.9" cy="453.0" r="2.2" />
  <circle cx="594.1" cy="484.4" r="2.2" />
  <circle cx="616.4" cy="437.4" r="2.2" />
  <circle cx="627.6" cy="491.7" r="2.2" />
  <circle cx="638.8" cy="396.2" r="2.2" />
  <circle cx="650.0" cy="445.0" r="2.2" />
  <circle cx="661.2" cy="500.3" r="2.2" />
  <circle cx="672.3" cy="547.9" r="2.2" />
  <circle cx="683.5" cy="560.4" r="2.2" />
  <circle cx="694.7" cy="561.5" r="2.2" />
  <circle cx="705.9" cy="536.4" r="2.2" />
  <circle cx="728.3" cy="542.6" r="2.2" />
  <circle cx="739.4" cy="543.7" r="2.2" />
  <circle cx="750.6" cy="522.8" r="2.2" />
  <circle cx="761.8" cy="531.6" r="2.2" />
  <circle cx="773.0" cy="519.1" r="2.2" />
  <circle cx="784.2" cy="521.5" r="2.2" />
  <circle cx="795.4" cy="511.8" r="2.2" />
  <circle cx="806.5" cy="566.6" r="2.2" />
  <circle cx="817.7" cy="551.1" r="2.2" />
  <circle cx="840.1" cy="546.2" r="2.2" />
  <circle cx="851.3" cy="547.3" r="2.2" />
  <circle cx="862.5" cy="547.9" r="2.2" />
</g>
<g class="pl" fill="#FFF" stroke="#0072BD" stroke-width="0.900">
  <circle cx="157.9" cy="292.7" r="5.4" />
  <circle cx="269.7" cy="305.0" r="5.4" />
  <circle cx="381.6" cy="387.3" r="5.4" />
  <circle cx="493.4" cy="421.1" r="5.4" />
  <circle cx="605.2" cy="460.2" r="5.4" />
  <circle cx="717.1" cy="578.3" r="5.4" />
  <circle cx="828.9" cy="544.5" r="5.4" />
</g>
<polyline class="pl" points="135.5,458.7 146.7,433.6 157.9,416.9 169.1,380.1 180.3,357.1 191.5,337.8 202.6,321.3 213.8,312.6 225.0,316.9 236.2,282.4 247.4,293.7 258.6,295.7 269.7,270.6 280.9,285.6 292.1,342.1 303.3,356.0 314.5,393.6 325.7,414.7 336.8,432.4 348.0,418.7 359.2,417.1 370.4,415.7 381.6,444.1 392.8,458.4 403.9,458.7 415.1,454.4 426.3,452.4 437.5,440.0 448.7,415.8 459.9,421.7 471.0,370.0 482.2,378.2 493.4,381.1 504.6,405.9 515.8,434.7 527.0,475.1 538.1,483.2 549.3,495.7 560.5,496.8 571.7,498.4 582.9,502.3 594.1,504.3 605.2,507.7 616.4,511.2 627.6,513.7 638.8,504.6 650.0,509.1 661.2,512.1 672.3,519.6 683.5,524.8 694.7,535.9 705.9,543.0 717.1,550.7 728.3,554.2 739.4,556.1 750.6,556.2 761.8,551.6 773.0,550.2 784.2,547.0 795.4,544.3 806.5,545.4 817.7,546.3 828.9,548.1 840.1,548.1 851.3,548.2 862.5,548.2" stroke="#D95319" stroke-width="5.40" stroke-opacity="1.00" fill="none" clip-path="url(#axis_clip)"/>
<g class="pl" fill="#FFF" stroke="#D95319" stroke-width="0.900">
  <circle cx="146.7" cy="433.6" r="2.2" />
  <circle cx="169.1" cy="380.1" r="2.2" />
  <circle cx="180.3" cy="357.1" r="2.2" />
  <circle cx="191.5" cy="337.8" r="2.2" />
  <circle cx="202.6" cy="321.3" r="2.2" />
  <circle cx="213.8" cy="312.6" r="2.2" />
  <circle cx="225.0" cy="316.9" r="2.2" />
  <circle cx="236.2" cy="282.4" r="2.2" />
  <circle cx="247.4" cy="293.7" r="2.2" />
  <circle cx="258.6" cy="295.7" r="2.2" />
  <circle cx="280.9" cy="285.6" r="2.2" />
  <circle cx="292.1" cy="342.1" r="2.2" />
  <circle cx="303.3" cy="356.0" r="2.2" />
  <circle cx="314.5" cy="393.6" r="2.2" />
  <circle cx="325.7" cy="414.7" r="2.2" />
  <circle cx="336.8" cy="432.4" r="2.2" />
  <circle cx="348.0" cy="418.7" r="2.2" />
  <circle cx="359.2" cy="417.1" r="2.2" />
  <circle cx="370.4" cy="415.7" r="2.2" />
  <circle cx="392.8" cy="458.4" r="2.2" />
  <circle cx="403.9" cy="458.7" r="2.2" />
  <circle cx="415.1" cy="454.4" r="2.2" />
  <circle cx="426.3" cy="452.4" r="2.2" />
  <circle cx="437.5" cy="440.0" r="2.2" />
  <circle cx="448.7" cy="415.8" r="2.2" />
  <circle cx="459.9" cy="421.7" r="2.2" />
  <circle cx="471.0" cy="370.0" r="2.2" />
  <circle cx="482.2" cy="378.2" r="2.2" />
  <circle cx="504.6" cy="405.9" r="2.2" />
  <circle cx="515.8" cy="434.7" r="2.2" />
  <circle cx="527.0" cy="475.1" r="2.2" />
  <circle cx="538.1" cy="483.2" r="2.2" />
  <circle cx="549.3" cy="495.7" r="2.2" />
  <circle cx="560.5" cy="496.8" r="2.2" />
  <circle cx="571.7" cy="498.4" r="2.2" />
  <circle cx="582.9" cy="502.3" r="2.2" />
  <circle cx="594.1" cy="504.3" r="2.2" />
  <circle cx="616.4" cy="511.2" r="2.2" />
  <circle cx="627.6" cy="513.7" r="2.2" />
  <circle cx="638.8" cy="504.6" r="2.2" />
  <circle cx="650.0" cy="509.1" r="2.2" />
  <circle cx="661.2" cy="512.1" r="2.2" />
  <circle cx="672.3" cy="519.6" r="2.2" />
  <circle cx="683.5" cy="524.8" r="2.2" />
  <circle cx="694.7" cy="535.9" r="2.2" />
  <circle cx="705.9" cy="543.0" r="2.2" />
  <circle cx="728.3" cy="554.2" r="2.2" />
  <circle cx="739.4" cy="556.1" r="2.2" />
  <circle cx="750.6" cy="556.2" r="2.2" />
  <circle cx="761.8" cy="551.6" r="2.2" />
  <circle cx="773.0" cy="550.2" r="2.2" />
  <circle cx="784.2" cy="547.0" r="2.2" />
  <circle cx="795.4" cy="544.3" r="2.2" />
  <circle cx="806.5" cy="545.4" r="2.2" />
  <circle cx="817.7" cy="546.3" r="2.2" />
  <circle cx="840.1" cy="548.1" r="2.2" />
  <circle cx="851.3" cy="548.2" r="2.2" />
  <circle cx="862.5" cy="548.2" r="2.2" />
</g>
<g class="pl" fill="#FFF" stroke="#D95319" stroke-width="0.900">
  <circle cx="157.9" cy="416.9" r="5.4" />
  <circle cx="269.7" cy="270.6" r="5.4" />
  <circle cx="381.6" cy="444.1" r="5.4" />
  <circle cx="493.4" cy="381.1" r="5.4" />
  <circle cx="605.2" cy="507.7" r="5.4" />
  <circle cx="717.1" cy="550.7" r="5.4" />
  <circle cx="828.9" cy="548.1" r="5.4" />
</g>
<polyline class="pl" points="135.5,462.1 146.7,461.8 157.9,466.9 169.1,468.9 180.3,463.4 191.5,460.9 202.6,465.0 213.8,461.2 225.0,460.3 236.2,457.4 247.4,449.2 258.6,450.1 269.7,457.0 280.9,453.7 292.1,456.2 303.3,462.4 314.5,463.3 325.7,464.1 336.8,462.6 348.0,464.0 359.2,456.7 370.4,455.8 381.6,461.3 392.8,462.4 403.9,467.5 415.1,461.7 426.3,460.3 437.5,459.3 448.7,452.7 459.9,449.8 471.0,450.6 482.2,455.7 493.4,457.7 504.6,456.5 515.8,459.9 527.0,459.8 538.1,459.3 549.3,462.1 560.5,462.5 571.7,457.5 582.9,451.9 594.1,453.5 605.2,450.0 616.4,450.4 627.6,455.0 638.8,454.1 650.0,458.3 661.2,463.4 672.3,465.6 683.5,469.1 694.7,473.5 705.9,469.1 717.1,472.9 728.3,472.3 739.4,472.3 750.6,476.8 761.8,474.7 773.0,473.8 784.2,475.4 795.4,478.2 806.5,474.8 817.7,475.9 828.9,479.2 840.1,478.8 851.3,478.1 862.5,476.6" stroke="#EDB120" stroke-width="5.40" stroke-opacity="1.00" fill="none" clip-path="url(#axis_clip)"/>
<g class="pl" fill="#FFF" stroke="#EDB120" stroke-width="0.900">
  <circle cx="146.7" cy="461.8" r="2.2" />
  <circle cx="169.1" cy="468.9" r="2.2" />
  <circle cx="180.3" cy="463.4" r="2.2" />
  <circle cx="191.5" cy="460.9" r="2.2" />
  <circle cx="202.6" cy="465.0" r="2.2" />
  <circle cx="213.8" cy="461.2" r="2.2" />
  <circle cx="225.0" cy="460.3" r="2.2" />
  <circle cx="236.2" cy="457.4" r="2.2" />
  <circle cx="247.4" cy="449.2" r="2.2" />
  <circle cx="258.6" cy="450.1" r="2.2" />
  <circle cx="280.9" cy="453.7" r="2.2" />
  <circle cx="292.1" cy="456.2" r="2.2" />
  <circle cx="303.3" cy="462.4" r="2.2" />
  <circle cx="314.5" cy="463.3" r="2.2" />
  <circle cx="325.7" cy="464.1" r="2.2" />
  <circle cx="336.8" cy="462.6" r="2.2" />
  <circle cx="348.0" cy="464.0" r="2.2" />
  <circle cx="359.2" cy="456.7" r="2.2" />
  <circle cx="370.4" cy="455.8" r="2.2" />
  <circle cx="392.8" cy="462.4" r="2.2" />
  <circle cx="403.9" cy="467.5" r="2.2" />
  <circle cx="415.1" cy="461.7" r="2.2" />
  <circle cx="426.3" cy="460.3" r="2.2" />
  <circle cx="437.5" cy="459.3" r="2.2" />
  <circle cx="448.7" cy="452.7" r="2.2" />
  <circle cx="459.9" cy="449.8" r="2.2" />
  <circle cx="471.0" cy="450.6" r="2.2" />
  <circle cx="482.2" cy="455.7" r="2.2" />
  <circle cx="504.6" cy="456.5" r="2.2" />
  <circle cx="515.8" cy="459.9" r="2.2" />
  <circle cx="527.0" cy="459.8" r="2.2" />
  <circle cx="538.1" cy="459.3" r="2.2" />
  <circle cx="549.3" cy="462.1" r="2.2" />
  <circle cx="560.5" cy="462.5" r="2.2" />
  <circle cx="571.7" cy="457.5" r="2.2" />
  <circle cx="582.9" cy="451.9" r="2.2" />
  <circle cx="594.1" cy="453.5" r="2.2" />
  <circle cx="616.4" cy="450.4" r="2.2" />
  <circle cx="627.6" cy="455.0" r="2.2" />
  <circle cx="638.8" cy="454.1" r="2.2" />
  <circle cx="650.0" cy="458.3" r="2.2" />
  <circle cx="661.2" cy="463.4" r="2.2" />
  <circle cx="672.3" cy="465.6" r="2.2" />
  <circle cx="683.5" cy="469.1" r="2.2" />
  <circle cx="694.7" cy="473.5" r="2.2" />
  <circle cx="705.9" cy="469.1" r="2.2" />
  <circle cx="728.3" cy="472.3" r="2.2" />
  <circle cx="739.4" cy="472.3" r="2.2" />
  <circle cx="750.6" cy="476.8" r="2.2" />
  <circle cx="761.8" cy="474.7" r="2.2" />
  <circle cx="773.0" cy="473.8" r="2.2" />
  <circle cx="784.2" cy="475.4" r="2.2" />
  <circle cx="795.4" cy="478.2" r="2.2" />
  <circle cx="806.5" cy="474.8" r="2.2" />
  <circle cx="817.7" cy="475.9" r="2.2" />
  <circle cx="840.1" cy="478.8" r="2.2" />
  <circle cx="851.3" cy="478.1" r="2.2" />
  <circle cx="862.5" cy="476.6" r="2.2" />
</g>
<g class="pl" fill="#FFF" stroke="#EDB120" stroke-width="0.900">
  <circle cx="157.9" cy="466.9" r="5.4" />
  <circle cx="269.7" cy="457.0" r="5.4" />
  <circle cx="381.6" cy="461.3" r="5.4" />
  <circle cx="493.4" cy="457.7" r="5.4" />
  <circle cx="605.2" cy="450.0" r="5.4" />
  <circle cx="717.1" cy="472.9" r="5.4" />
  <circle cx="828.9" cy="479.2" r="5.4" />
</g>
<polyline class="pl" points="135.5,285.6 146.7,274.7 157.9,351.2 169.1,355.9 180.3,280.6 191.5,357.2 202.6,372.7 213.8,363.4 225.0,396.3 236.2,360.1 247.4,237.0 258.6,354.3 269.7,351.6 280.9,309.8 292.1,362.9 303.3,400.1 314.5,426.0 325.7,425.2 336.8,400.6 348.0,409.5 359.2,319.3 370.4,398.8 381.6,413.8 392.8,474.6 403.9,490.4 415.1,386.8 426.3,426.6 437.5,457.5 448.7,408.8 459.9,461.9 471.0,443.7 482.2,477.8 493.4,472.6 504.6,488.6 515.8,487.5 527.0,461.0 538.1,503.4 549.3,505.9 560.5,505.7 571.7,479.3 582.9,508.5 594.1,550.7 605.2,526.3 616.4,501.4 627.6,529.6 638.8,458.9 650.0,491.9 661.2,528.6 672.3,562.5 683.5,565.1 694.7,559.4 705.9,534.5 717.1,557.5 728.3,524.6 739.4,533.0 750.6,495.5 761.8,501.3 773.0,486.4 784.2,478.7 795.4,476.3 806.5,546.4 817.7,493.6 828.9,477.4 840.1,462.5 851.3,441.0 862.5,416.5" stroke="#7E2F8E" stroke-width="5.40" stroke-opacity="1.00" fill="none" clip-path="url(#axis_clip)"/>
<g class="pl" fill="#FFF" stroke="#7E2F8E" stroke-width="0.900">
  <circle cx="146.7" cy="274.7" r="2.2" />
  <circle cx="169.1" cy="355.9" r="2.2" />
  <circle cx="180.3" cy="280.6" r="2.2" />
  <circle cx="191.5" cy="357.2" r="2.2" />
  <circle cx="202.6" cy="372.7" r="2.2" />
  <circle cx="213.8" cy="363.4" r="2.2" />
  <circle cx="225.0" cy="396.3" r="2.2" />
  <circle cx="236.2" cy="360.1" r="2.2" />
  <circle cx="247.4" cy="237.0" r="2.2" />
  <circle cx="258.6" cy="354.3" r="2.2" />
  <circle cx="280.9" cy="309.8" r="2.2" />
  <circle cx="292.1" cy="362.9" r="2.2" />
  <circle cx="303.3" cy="400.1" r="2.2" />
  <circle cx="314.5" cy="426.0" r="2.2" />
  <circle cx="325.7" cy="425.2" r="2.2" />
  <circle cx="336.8" cy="400.6" r="2.2" />
  <circle cx="348.0" cy="409.5" r="2.2" />
  <circle cx="359.2" cy="319.3" r="2.2" />
  <circle cx="370.4" cy="398.8" r="2.2" />
  <circle cx="392.8" cy="474.6" r="2.2" />
  <circle cx="403.9" cy="490.4" r="2.2" />
  <circle cx="415.1" cy="386.8" r="2.2" />
  <circle cx="426.3" cy="426.6" r="2.2" />
  <circle cx="437.5" cy="457.5" r="2.2" />
  <circle cx="448.7" cy="408.8" r="2.2" />
  <circle cx="459.9" cy="461.9" r="2.2" />
  <circle cx="471.0" cy="443.7" r="2.2" />
  <circle cx="482.2" cy="477.8" r="2.2" />
  <circle cx="504.6" cy="488.6" r="2.2" />
  <circle cx="515.8" cy="487.5" r="2.2" />
  <circle cx="527.0" cy="461.0" r="2.2" />
  <circle cx="538.1" cy="503.4" r="2.2" />
  <circle cx="549.3" cy="505.9" r="2.2" />
  <circle cx="560.5" cy="505.7" r="2.2" />
  <circle cx="571.7" cy="479.3" r="2.2" />
  <circle cx="582.9" cy="508.5" r="2.2" />
  <circle cx="594.1" cy="550.7" r="2.2" />
  <circle cx="616.4" cy="501.4" r="2.2" />
  <circle cx="627.6" cy="529.6" r="2.2" />
  <circle cx="638.8" cy="458.9" r="2.2" />
  <circle cx="650.0" cy="491.9" r="2.2" />
  <circle cx="661.2" cy="528.6" r="2.2" />
  <circle cx="672.3" cy="562.5" r="2.2" />
  <circle cx="683.5" cy="565.1" r="2.2" />
  <circle cx="694.7" cy="559.4" r="2.2" />
  <circle cx="705.9" cy="534.5" r="2.2" />
  <circle cx="728.3" cy="524.6" r="2.2" />
  <circle cx="739.4" cy="533.0" r="2.2" />
  <circle cx="750.6" cy="495.5" r="2.2" />
  <circle cx="761.8" cy="501.3" r="2.2" />
  <circle cx="773.0" cy="486.4" r="2.2" />
  <circle cx="784.2" cy="478.7" r="2.2" />
  <circle cx="795.4" cy="476.3" r="2.2" />
  <circle cx="806.5" cy="546.4" r="2.2" />
  <circle cx="817.7" cy="493.6" r="2.2" />
  <circle cx="840.1" cy="462.5" r="2.2" />
  <circle cx="851.3" cy="441.0" r="2.2" />
  <circle cx="862.5" cy="416.5" r="2.2" />
</g>
<g class="pl" fill="#FFF" stroke="#7E2F8E" stroke-width="0.900">
  <circle cx="157.9" cy="351.2" r="5.4" />
  <circle cx="269.7" cy="351.6" r="5.4" />
  <circle cx="381.6" cy="413.8" r="5.4" />
  <circle cx="493.4" cy="472.6" r="5.4" />
  <circle cx="605.2" cy="526.3" r="5.4" />
  <circle cx="717.1" cy="557.5" r="5.4" />
  <circle cx="828.9" cy="477.4" r="5.4" />
</g>
<polyline class="pl" points="135.5,347.3 146.7,341.5 157.9,381.9 169.1,376.9 180.3,324.7 191.5,364.2 202.6,372.3 213.8,362.3 225.0,383.0 236.2,353.3 247.4,282.2 258.6,350.7 269.7,346.0 280.9,321.7 292.1,367.9 303.3,395.4 314.5,419.5 325.7,426.1 336.8,417.8 348.0,419.6 359.2,364.0 370.4,409.7 381.6,426.6 392.8,465.7 403.9,477.0 415.1,411.4 426.3,430.6 437.5,443.1 448.7,402.5 459.9,436.1 471.0,411.5 482.2,435.7 493.4,433.1 504.6,449.9 515.8,459.1 527.0,453.6 538.1,477.7 549.3,486.7 560.5,488.8 571.7,469.5 582.9,478.9 594.1,498.2 605.2,486.1 616.4,475.1 627.6,497.5 638.8,453.5 650.0,476.1 661.2,501.1 672.3,523.9 683.5,529.9 694.7,532.6 705.9,520.7 717.1,539.9 728.3,523.4 739.4,526.3 750.6,512.8 761.8,514.8 773.0,507.3 784.2,505.6 795.4,502.6 806.5,533.3 817.7,516.7 828.9,512.3 840.1,508.9 851.3,503.6 862.5,497.3" stroke="#000" stroke-width="5.40" stroke-opacity="1.00" fill="none" clip-path="url(#axis_clip)"/>
<g class="pl" fill="#FFF" stroke="#000" stroke-width="0.900">
  <circle cx="146.7" cy="341.5" r="2.2" />
  <circle cx="169.1" cy="376.9" r="2.2" />
  <circle cx="180.3" cy="324.7" r="2.2" />
  <circle cx="191.5" cy="364.2" r="2.2" />
  <circle cx="202.6" cy="372.3" r="2.2" />
  <circle cx="213.8" cy="362.3" r="2.2" />
  <circle cx="225.0" cy="383.0" r="2.2" />
  <circle cx="236.2" cy="353.3" r="2.2" />
  <circle cx="247.4" cy="282.2" r="2.2" />
  <circle cx="258.6" cy="350.7" r="2.2" />
  <circle cx="280.9" cy="321.7" r="2.2" />
  <circle cx="292.1" cy="367.9" r="2.2" />
  <circle cx="303.3" cy="395.4" r="2.2" />
  <circle cx="314.5" cy="419.5" r="2.2" />
  <circle cx="325.7" cy="426.1" r="2.2" />
  <circle cx="336.8" cy="417.8" r="2.2" />
  <circle cx="348.0" cy="419.6" r="2.2" />
  <circle cx="359.2" cy="364.0" r="2.2" />
  <circle cx="370.4" cy="409.7" r="2.2" />
  <circle cx="392.8" cy="465.7" r="2.2" />
  <circle cx="403.9" cy="477.0" r="2.2" />
  <circle cx="415.1" cy="411.4" r="2.2" />
  <circle cx="426.3" cy="430.6" r="2.2" />
  <circle cx="437.5" cy="443.1" r="2.2" />
  <circle cx="448.7" cy="402.5" r="2.2" />
  <circle cx="459.9" cy="436.1" r="2.2" />
  <circle cx="471.0" cy="411.5" r="2.2" />
  <circle cx="482.2" cy="435.7" r="2.2" />
  <circle cx="504.6" cy="449.9" r="2.2" />
  <circle cx="515.8" cy="459.1" r="2.2" />
  <circle cx="527.0" cy="453.6" r="2.2" />
  <circle cx="538.1" cy="477.7" r="2.2" />
  <circle cx="549.3" cy="486.7" r="2.2" />
  <circle cx="560.5" cy="488.8" r="2.2" />
  <circle cx="571.7" cy="469.5" r="2.2" />
  <circle cx="582.9" cy="478.9" r="2.2" />
  <circle cx="594.1" cy="498.2" r="2.2" />
  <circle cx="616.4" cy="475.1" r="2.2" />
  <circle cx="627.6" cy="497.5" r="2.2" />
  <circle cx="638.8" cy="453.5" r="2.2" />
  <circle cx="650.0" cy="476.1" r="2.2" />
  <circle cx="661.2" cy="501.1" r="2.2" />
  <circle cx="672.3" cy="523.9" r="2.2" />
  <circle cx="683.5" cy="529.9" r="2.2" />
  <circle cx="694.7" cy="532.6" r="2.2" />
  <circle cx="705.9" cy="520.7" r="2.2" />
  <circle cx="728.3" cy="523.4" r="2.2" />
  <circle cx="739.4" cy="526.3" r="2.2" />
  <circle cx="750.6" cy="512.8" r="2.2" />
  <circle cx="761.8" cy="514.8" r="2.2" />
  <circle cx="773.0" cy="507.3" r="2.2" />
  <circle cx="784.2" cy="505.6" r="2.2" />
  <circle cx="795.4" cy="502.6" r="2.2" />
  <circle cx="806.5" cy="533.3" r="2.2" />
  <circle cx="817.7" cy="516.7" r="2.2" />
  <circle cx="840.1" cy="508.9" r="2.2" />
  <circle cx="851.3" cy="503.6" r="2.2" />
  <circle cx="862.5" cy="497.3" r="2.2" />
</g>
<g class="pl" fill="#FFF" stroke="#000" stroke-width="0.900">
  <circle cx="157.9" cy="381.9" r="5.4" />
  <circle cx="269.7" cy="346.0" r="5.4" />
  <circle cx="381.6" cy="426.6" r="5.4" />
  <circle cx="493.4" cy="433.1" r="5.4" />
  <circle cx="605.2" cy="486.1" r="5.4" />
  <circle cx="717.1" cy="539.9" r="5.4" />
  <circle cx="828.9" cy="512.3" r="5.4" />
</g>
<text transform="translate(945.6,535.1)" dy="8.1" font-size="27.00" fill="#0072BD" stroke="none">BLUE</text>
<text transform="translate(945.6,561.0)" dy="8.1" font-size="27.00" fill="#D95319" stroke="none">H&amp;C2023</text>
<text transform="translate(945.6,474.0)" dy="8.1" font-size="27.00" fill="#EDB120" stroke="none">OSCAR</text>
<text transform="translate(945.6,416.5)" dy="8.1" font-size="27.00" fill="#7E2F8E" stroke="none">LUCE</text>
<text transform="translate(945.6,499.9)" dy="8.1" font-size="27.00" fill="#000" stroke="none">Mean</text>
<polyline class="pl" points="910.8,547.9 912.4,547.8 913.8,547.7 915.2,547.5 916.4,547.2 917.6,546.9 918.8,546.5 919.8,546.0 920.8,545.5 921.7,544.9 922.7,544.4 923.5,543.7 924.4,543.1 925.2,542.5 926.0,541.8 926.8,541.1 927.6,540.5 928.4,539.8 929.3,539.2 930.1,538.6 931.1,538.0 932.0,537.4 933.0,536.9 934.0,536.5 935.2,536.1 936.4,535.7 937.6,535.4 939.0,535.2 940.4,535.1 942.0,535.1" stroke="#0072BD" stroke-width="0.90" stroke-opacity="1.00" fill="none" />
<polyline class="pl" points="910.8,548.2 912.4,548.2 913.8,548.3 915.2,548.5 916.4,548.8 917.6,549.2 918.8,549.6 919.8,550.0 920.8,550.5 921.7,551.1 922.7,551.7 923.5,552.3 924.4,552.9 925.2,553.6 926.0,554.2 926.8,554.9 927.6,555.6 928.4,556.2 929.3,556.8 930.1,557.4 931.1,558.0 932.0,558.6 933.0,559.1 934.0,559.5 935.2,560.0 936.4,560.3 937.6,560.6 939.0,560.8 940.4,560.9 942.0,561.0" stroke="#D95319" stroke-width="0.90" stroke-opacity="1.00" fill="none" />
<polyline class="pl" points="910.8,476.6 912.4,476.6 913.8,476.5 915.2,476.5 916.4,476.4 917.6,476.4 918.8,476.3 919.8,476.2 920.8,476.1 921.7,476.0 922.7,475.9 923.5,475.7 924.4,475.6 925.2,475.5 926.0,475.3 926.8,475.2 927.6,475.1 928.4,474.9 929.3,474.8 930.1,474.7 931.1,474.6 932.0,474.5 933.0,474.3 934.0,474.3 935.2,474.2 936.4,474.1 937.6,474.0 939.0,474.0 940.4,474.0 942.0,474.0" stroke="#EDB120" stroke-width="0.90" stroke-opacity="1.00" fill="none" />
<polyline class="pl" points="910.8,497.3 912.4,497.3 913.8,497.3 915.2,497.4 916.4,497.4 917.6,497.5 918.8,497.6 919.8,497.7 920.8,497.8 921.7,497.9 922.7,498.0 923.5,498.1 924.4,498.2 925.2,498.4 926.0,498.5 926.8,498.6 927.6,498.8 928.4,498.9 929.3,499.0 930.1,499.2 931.1,499.3 932.0,499.4 933.0,499.5 934.0,499.6 935.2,499.7 936.4,499.7 937.6,499.8 939.0,499.8 940.4,499.9 942.0,499.9" stroke="#000" stroke-width="0.90" stroke-opacity="1.00" fill="none" />
<text transform="translate(157.6,60.7)" dy="18.0" font-size="18.00" fill="#808080" stroke="none">Note: The wide spread of the models means we have lower confidence in the estimates</text>
<text transform="translate(145.6,47.2)" dy="0.0" font-size="27.00" fill="#808080" stroke="none">Annual CO<tspan dy="0.2em"><tspan style="font-size:70%">2</tspan></tspan><tspan dy="-0.2em"> </tspan>fluxes from land-use change: Türkiye</text>
<text transform="translate(130.0,81.6)" dy="8.1" font-size="27.00" fill="#808080" stroke="none" text-anchor="end">CO<tspan dy="0.2em"><tspan style="font-size:70%">2</tspan></tspan><tspan dy="-0.2em"></tspan></text>
<text transform="translate(160.2,666.1)" font-size="19.80" font-family="Helvetica" fill="#BFBFBF" stroke="none" xml:space="preserve">Global Carbon Project</text>
<g>
  <rect x="123.0" y="651.4" width="34" height="17" fill="#FFF" stroke="none"/>
  <g transform="translate(124.0,652.4) scale(0.24)">
  <g><circle fill="#FFF" cx="37.79" cy="28.5" r="28.84"/>
     <circle fill="none" cx="37.79" cy="28.5" r="28.84" stroke="#BFBFBF" stroke-width="5.5"/>
     <path fill="#BFBFBF" d="M37.16,23.19 l-4.29,2.23c-0.458-0.951-1.02-1.62-1.69-2c-0.667-0.38-1.29-0.571-1.86-0.571c-2.86,0-4.29,1.89-4.29,5.66 c0,1.71,0.36,3.08,1.09,4.11c0.724,1.03,1.79,1.54,3.2,1.54c1.87,0,3.18-0.915,3.94-2.74l3.94,2 c-0.838,1.56-2,2.79-3.49,3.69c-1.48,0.896-3.12,1.34-4.91,1.34c-2.86,0-5.16-0.875-6.92-2.63 c-1.75-1.75-2.63-4.19-2.63-7.31c0-3.05,0.886-5.47,2.66-7.26c1.77-1.79,4.01-2.69,6.72-2.69 C32.6,18.56,35.44,20.1,37.16,23.19z
              M55.61,23.19l-4.23,2.23c-0.457-0.951-1.02-1.62-1.69-2 c-0.668-0.38-1.31-0.571-1.91-0.571c-2.86,0-4.29,1.89-4.29,5.66c0,1.71,0.363,3.08,1.09,4.11 c0.723,1.03,1.79,1.54,3.2,1.54c1.87,0,3.18-0.915,3.94-2.74l4,2c-0.875,1.56-2.06,2.79-3.54,3.69 c-1.49,0.9-3.11,1.34-4.86,1.34c-2.9,0-5.21-0.875-6.94-2.63c-1.74-1.75-2.6-4.19-2.6-7.31 c0-3.05,0.885-5.47,2.66-7.26c1.77-1.79,4.01-2.69,6.71-2.69C51.12,18.56,53.944,20.1,55.61,23.19z"/>
  </g></g>
  <g transform="translate(140.2,652.4) scale(0.24)">
  <g><circle fill="#FFF" cx="37.79" cy="28.5" r="28.84"/>
     <circle fill="none" cx="37.79" cy="28.5" r="28.84" stroke="#BFBFBF" stroke-width="5.5"/>
     <path fill="#BFBFBF" d="M46.129,20.557v13.085h-3.656v15.542h-9.944V33.643h-3.656V20.557 c0-0.572,0.2-1.057,0.599-1.457c0.401-0.399,0.887-0.6,1.457-0.6h13.144c0.533,0,1.01,0.2,1.428,0.6 C45.918,19.5,46.129,19.986,46.129,20.557z
              M33.042,12.329c0-3.008,1.485-4.514,4.458-4.514s4.457,1.504,4.457,4.514 c0,2.971-1.486,4.457-4.457,4.457S33.042,15.3,33.042,12.329z"/>
  </g></g>
</g>
</g>
</svg>
