<svg version="1.1" xmlns="http://www.w3.org/2000/svg" xmlns:xlink="http://www.w3.org/1999/xlink" width="100%" height="100%" viewBox="0 0 1200.000 674.916">
<title>Annual CO2 fluxes from land-use change: Egypt</title>
<style type="text/css">
  #main {font-family:Helvetica,Arial,sans-serif; font-size:27.00px;
         fill-opacity:1; fill:#000000; stroke:none; stroke-linejoin:round; stroke-linecap:round; stroke-width:1.00;}
  .marker {stroke-opacity:0;fill-opacity:0;}
  .marker:hover {stroke-opacity:0.5; fill-opacity:1;}
  .ticklabel {font-size:27.00px;fill:#808080;stroke:none;font-family:Helvetica}
  .ytl {text-anchor:end;}
  .dp1 {pointer-events:none;font-size:70%;text-anchor:middle;fill:#000000;}
  .dp2 {pointer-events:none;font-size:70%;text-anchor:middle;fill:#FFFFFF;}
  .numtip {pointer-events:none;}
  .cc {opacity:0.25;}
.dl_fe {background-color:#FDFFDF;display:flex;margin:auto;align-items:center}
.dl_fe_p {font-size:20px;text-align:center;margin:3px}
.dl_el {display:none;pointer-events:none;}
.cc:hover + .dl_el {display:block;}
text:hover + .dl_el {display:block;}
</style>
<defs>
  <clipPath id="axis_clip"><rect x="145.8" y="54.2" width="761.2" height="532.8" /></clipPath>
  <path id="line_x" d="M 145.600,0 h 761.600" stroke="#262626" stroke-opacity="0.15" stroke-width="1.00"/>
  <path id="tick_y" d="M 145.600,0 h -6.000" stroke="#808080" stroke-width="0.90"/>
  <path id="tick_x" d="M 0,587.177 v 6.000" stroke="#808080" stroke-width="0.90"/>
</defs>
<g id="main">
<use xlink:href="#line_x" transform="translate(0,587.2)"/>
<use xlink:href="#line_x" transform="translate(0,527.9)"/>
<use xlink:href="#line_x" transform="translate(0,468.7)"/>
<use xlink:href="#line_x" transform="translate(0,409.4)"/>
<use xlink:href="#line_x" transform="translate(0,350.2)"/>
<use xlink:href="#line_x" transform="translate(0,291.0)"/>
<use xlink:href="#line_x" transform="translate(0,231.7)"/>
<use xlink:href="#line_x" transform="translate(0,172.5)"/>
<use xlink:href="#line_x" transform="translate(0,113.2)"/>
<use xlink:href="#line_x" transform="translate(0,54.0)"/>
<use xlink:href="#tick_y" transform="translate(0,587.2)"/>
<use xlink:href="#tick_y" transform="translate(0,527.9)"/>
<use xlink:href="#tick_y" transform="translate(0,468.7)"/>
<use xlink:href="#tick_y" transform="translate(0,409.4)"/>
<use xlink:href="#tick_y" transform="translate(0,350.2)"/>
<use xlink:href="#tick_y" transform="translate(0,291.0)"/>
<use xlink:href="#tick_y" transform="translate(0,231.7)"/>
<use xlink:href="#tick_y" transform="translate(0,172.5)"/>
<use xlink:href="#tick_y" transform="translate(0,113.2)"/>
<use xlink:href="#tick_y" transform="translate(0,54.0)"/>
<use xlink:href="#tick_x" transform="translate(157.9,0)"/>
<use xlink:href="#tick_x" transform="translate(269.7,0)"/>
<use xlink:href="#tick_x" transform="translate(381.6,0)"/>
<use xlink:href="#tick_x" transform="translate(493.4,0)"/>
<use xlink:href="#tick_x" transform="translate(605.2,0)"/>
<use xlink:href="#tick_x" transform="translate(717.1,0)"/>
<use xlink:href="#tick_x" transform="translate(828.9,0)"/>
<polyline points="145.6,53.993 145.6,587.177 907.2,587.177" stroke="#808080" stroke-width="0.90" fill="none"/>
<text class="ticklabel xtl" transform="translate(157.9,629.0)" text-anchor="middle">1960</text>
<text class="ticklabel xtl" transform="translate(269.7,629.0)" text-anchor="middle">1970</text>
<text class="ticklabel xtl" transform="translate(381.6,629.0)" text-anchor="middle">1980</text>
<text class="ticklabel xtl" transform="translate(493.4,629.0)" text-anchor="middle">1990</text>
<text class="ticklabel xtl" transform="translate(605.2,629.0)" text-anchor="middle">2000</text>
<text class="ticklabel xtl" transform="translate(717.1,629.0)" text-anchor="middle">2010</text>
<text class="ticklabel xtl" transform="translate(828.9,629.0)" text-anchor="middle">2020</text>
<text class="ticklabel ytl" transform="translate(128.8,595.3)">-5</text>
<text class="ticklabel ytl" transform="translate(128.8,536.0)">0</text>
<text class="ticklabel ytl" transform="translate(128.8,476.8)">5</text>
<text class="ticklabel ytl" transform="translate(128.8,417.5)">10</text>
<text class="ticklabel ytl" transform="translate(128.8,358.3)">15</text>
<text class="ticklabel ytl" transform="translate(128.8,299.1)">20</text>
<text class="ticklabel ytl" transform="translate(128.8,239.8)">25</text>
<text class="ticklabel ytl" transform="translate(128.8,180.6)">30</text>
<text class="ticklabel ytl" transform="translate(128.8,121.3)">35</text>
<text class="ticklabel ytl" transform="translate(128.8,62.1)">40 Mt</text>
<polyline class="pl" points="145.6,527.9 907.2,527.9" stroke="#000" stroke-width="0.90" stroke-opacity="1.00" fill="none" clip-path="url(#axis_clip)"/>
<polyline class="pl" points="135.5,450.3 146.7,448.1 157.9,444.5 169.1,468.2 180.3,477.8 191.5,478.1 202.6,436.9 213.8,432.3 225.0,453.8 236.2,471.1 247.4,471.8 258.6,481.0 269.7,486.3 280.9,491.8 292.1,496.2 303.3,501.4 314.5,506.3 325.7,521.4 336.8,534.0 348.0,544.1 359.2,551.9 370.4,545.5 381.6,534.2 392.8,536.0 403.9,535.2 415.1,525.8 426.3,516.0 437.5,501.3 448.7,513.7 459.9,507.3 471.0,513.7 482.2,494.7 493.4,505.9 504.6,414.7 515.8,454.8 527.0,478.6 538.1,419.5 549.3,474.8 560.5,473.8 571.7,489.0 582.9,438.6 594.1,498.1 605.2,497.1 616.4,485.1 627.6,502.5 638.8,495.1 650.0,493.9 661.2,500.6 672.3,505.6 683.5,514.2 694.7,479.9 705.9,495.8 717.1,516.2 728.3,506.0 739.4,503.7 750.6,516.7 761.8,505.4 773.0,521.7 784.2,503.8 795.4,509.5 806.5,501.7 817.7,499.4 828.9,494.9 840.1,494.0 851.3,492.7 862.5,491.7" stroke="#0072BD" stroke-width="5.40" stroke-opacity="1.00" fill="none" clip-path="url(#axis_clip)"/>
<g class="pl" fill="#FFF" stroke="#0072BD" stroke-width="0.900">
  <circle cx="146.7" cy="448.1" r="2.2" />
  <circle cx="169.1" cy="468.2" r="2.2" />
  <circle cx="180.3" cy="477.8" r="2.2" />
  <circle cx="191.5" cy="478.1" r="2.2" />
  <circle cx="202.6" cy="436.9" r="2.2" />
  <circle cx="213.8" cy="432.3" r="2.2" />
  <circle cx="225.0" cy="453.8" r="2.2" />
  <circle cx="236.2" cy="471.1" r="2.2" />
  <circle cx="247.4" cy="471.8" r="2.2" />
  <circle cx="258.6" cy="481.0" r="2.2" />
  <circle cx="280.9" cy="491.8" r="2.2" />
  <circle cx="292.1" cy="496.2" r="2.2" />
  <circle cx="303.3" cy="501.4" r="2.2" />
  <circle cx="314.5" cy="506.3" r="2.2" />
  <circle cx="325.7" cy="521.4" r="2.2" />
  <circle cx="336.8" cy="534.0" r="2.2" />
  <circle cx="348.0" cy="544.1" r="2.2" />
  <circle cx="359.2" cy="551.9" r="2.2" />
  <circle cx="370.4" cy="545.5" r="2.2" />
  <circle cx="392.8" cy="536.0" r="2.2" />
  <circle cx="403.9" cy="535.2" r="2.2" />
  <circle cx="415.1" cy="525.8" r="2.2" />
  <circle cx="426.3" cy="516.0" r="2.2" />
  <circle cx="437.5" cy="501.3" r="2.2" />
  <circle cx="448.7" cy="513.7" r="2.2" />
  <circle cx="459.9" cy="507.3" r="2.2" />
  <circle cx="471.0" cy="513.7" r="2.2" />
  <circle cx="482.2" cy="494.7" r="2.2" />
  <circle cx="504.6" cy="414.7" r="2.2" />
  <circle cx="515.8" cy="454.8" r="2.2" />
  <circle cx="527.0" cy="478.6" r="2.2" />
  <circle cx="538.1" cy="419.5" r="2.2" />
  <circle cx="549.3" cy="474.8" r="2.2" />
  <circle cx="560.5" cy="473.8" r="2.2" />
  <circle cx="571.7" cy="489.0" r="2.2" />
  <circle cx="582.9" cy="438.6" r="2.2" />
  <circle cx="594.1" cy="498.1" r="2.2" />
  <circle cx="616.4" cy="485.1" r="2.2" />
  <circle cx="627.6" cy="502.5" r="2.2" />
  <circle cx="638.8" cy="495.1" r="2.2" />
  <circle cx="650.0" cy="493.9" r="2.2" />
  <circle cx="661.2" cy="500.6" r="2.2" />
  <circle cx="672.3" cy="505.6" r="2.2" />
  <circle cx="683.5" cy="514.2" r="2.2" />
  <circle cx="694.7" cy="479.9" r="2.2" />
  <circle cx="705.9" cy="495.8" r="2.2" />
  <circle cx="728.3" cy="506.0" r="2.2" />
  <circle cx="739.4" cy="503.7" r="2.2" />
  <circle cx="750.6" cy="516.7" r="2.2" />
  <circle cx="761.8" cy="505.4" r="2.2" />
  <circle cx="773.0" cy="521.7" r="2.2" />
  <circle cx="784.2" cy="503.8" r="2.2" />
  <circle cx="795.4" cy="509.5" r="2.2" />
  <circle cx="806.5" cy="501.7" r="2.2" />
  <circle cx="817.7" cy="499.4" r="2.2" />
  <circle cx="840.1" cy="494.0" r="2.2" />
  <circle cx="851.3" cy="492.7" r="2.2" />
  <circle cx="862.5" cy="491.7" r="2.2" />
</g>
<g class="pl" fill="#FFF" stroke="#0072BD" stroke-width="0.900">
  <circle cx="157.9" cy="444.5" r="5.4" />
  <circle cx="269.7" cy="486.3" r="5.4" />
  <circle cx="381.6" cy="534.2" r="5.4" />
  <circle cx="493.4" cy="505.9" r="5.4" />
  <circle cx="605.2" cy="497.1" r="5.4" />
  <circle cx="717.1" cy="516.2" r="5.4" />
  <circle cx="828.9" cy="494.9" r="5.4" />
</g>
<polyline class="pl" points="135.5,249.6 146.7,182.7 157.9,226.5 169.1,262.1 180.3,290.2 191.5,248.4 202.6,282.9 213.8,247.8 225.0,237.7 236.2,225.0 247.4,296.0 258.6,353.1 269.7,377.2 280.9,392.2 292.1,427.3 303.3,445.9 314.5,449.7 325.7,454.3 336.8,459.5 348.0,465.2 359.2,470.9 370.4,476.7 381.6,481.5 392.8,485.9 403.9,484.7 415.1,477.2 426.3,460.4 437.5,459.5 448.7,437.8 459.9,450.1 471.0,430.8 482.2,463.2 493.4,286.1 504.6,154.2 515.8,108.5 527.0,92.3 538.1,114.5 549.3,236.4 560.5,361.5 571.7,283.7 582.9,400.5 594.1,350.6 605.2,349.4 616.4,367.0 627.6,442.4 638.8,346.8 650.0,357.9 661.2,394.9 672.3,392.0 683.5,358.8 694.7,385.7 705.9,418.6 717.1,392.0 728.3,377.6 739.4,453.2 750.6,420.7 761.8,424.7 773.0,414.0 784.2,430.8 795.4,424.9 806.5,459.5 817.7,465.4 828.9,469.2 840.1,469.2 851.3,469.2 862.5,469.2" stroke="#D95319" stroke-width="5.40" stroke-opacity="1.00" fill="none" clip-path="url(#axis_clip)"/>
<g class="pl" fill="#FFF" stroke="#D95319" stroke-width="0.900">
  <circle cx="146.7" cy="182.7" r="2.2" />
  <circle cx="169.1" cy="262.1" r="2.2" />
  <circle cx="180.3" cy="290.2" r="2.2" />
  <circle cx="191.5" cy="248.4" r="2.2" />
  <circle cx="202.6" cy="282.9" r="2.2" />
  <circle cx="213.8" cy="247.8" r="2.2" />
  <circle cx="225.0" cy="237.7" r="2.2" />
  <circle cx="236.2" cy="225.0" r="2.2" />
  <circle cx="247.4" cy="296.0" r="2.2" />
  <circle cx="258.6" cy="353.1" r="2.2" />
  <circle cx="280.9" cy="392.2" r="2.2" />
  <circle cx="292.1" cy="427.3" r="2.2" />
  <circle cx="303.3" cy="445.9" r="2.2" />
  <circle cx="314.5" cy="449.7" r="2.2" />
  <circle cx="325.7" cy="454.3" r="2.2" />
  <circle cx="336.8" cy="459.5" r="2.2" />
  <circle cx="348.0" cy="465.2" r="2.2" />
  <circle cx="359.2" cy="470.9" r="2.2" />
  <circle cx="370.4" cy="476.7" r="2.2" />
  <circle cx="392.8" cy="485.9" r="2.2" />
  <circle cx="403.9" cy="484.7" r="2.2" />
  <circle cx="415.1" cy="477.2" r="2.2" />
  <circle cx="426.3" cy="460.4" r="2.2" />
  <circle cx="437.5" cy="459.5" r="2.2" />
  <circle cx="448.7" cy="437.8" r="2.2" />
  <circle cx="459.9" cy="450.1" r="2.2" />
  <circle cx="471.0" cy="430.8" r="2.2" />
  <circle cx="482.2" cy="463.2" r="2.2" />
  <circle cx="504.6" cy="154.2" r="2.2" />
  <circle cx="515.8" cy="108.5" r="2.2" />
  <circle cx="527.0" cy="92.3" r="2.2" />
  <circle cx="538.1" cy="114.5" r="2.2" />
  <circle cx="549.3" cy="236.4" r="2.2" />
  <circle cx="560.5" cy="361.5" r="2.2" />
  <circle cx="571.7" cy="283.7" r="2.2" />
  <circle cx="582.9" cy="400.5" r="2.2" />
  <circle cx="594.1" cy="350.6" r="2.2" />
  <circle cx="616.4" cy="367.0" r="2.2" />
  <circle cx="627.6" cy="442.4" r="2.2" />
  <circle cx="638.8" cy="346.8" r="2.2" />
  <circle cx="650.0" cy="357.9" r="2.2" />
  <circle cx="661.2" cy="394.9" r="2.2" />
  <circle cx="672.3" cy="392.0" r="2.2" />
  <circle cx="683.5" cy="358.8" r="2.2" />
  <circle cx="694.7" cy="385.7" r="2.2" />
  <circle cx="705.9" cy="418.6" r="2.2" />
  <circle cx="728.3" cy="377.6" r="2.2" />
  <circle cx="739.4" cy="453.2" r="2.2" />
  <circle cx="750.6" cy="420.7" r="2.2" />
  <circle cx="761.8" cy="424.7" r="2.2" />
  <circle cx="773.0" cy="414.0" r="2.2" />
  <circle cx="784.2" cy="430.8" r="2.2" />
  <circle cx="795.4" cy="424.9" r="2.2" />
  <circle cx="806.5" cy="459.5" r="2.2" />
  <circle cx="817.7" cy="465.4" r="2.2" />
  <circle cx="840.1" cy="469.2" r="2.2" />
  <circle cx="851.3" cy="469.2" r="2.2" />
  <circle cx="862.5" cy="469.2" r="2.2" />
</g>
<g class="pl" fill="#FFF" stroke="#D95319" stroke-width="0.900">
  <circle cx="157.9" cy="226.5" r="5.4" />
  <circle cx="269.7" cy="377.2" r="5.4" />
  <circle cx="381.6" cy="481.5" r="5.4" />
  <circle cx="493.4" cy="286.1" r="5.4" />
  <circle cx="605.2" cy="349.4" r="5.4" />
  <circle cx="717.1" cy="392.0" r="5.4" />
  <circle cx="828.9" cy="469.2" r="5.4" />
</g>
<polyline class="pl" points="135.5,518.3 146.7,518.2 157.9,518.1 169.1,517.6 180.3,517.0 191.5,517.2 202.6,517.6 213.8,518.3 225.0,518.7 236.2,518.7 247.4,519.0 258.6,519.2 269.7,519.1 280.9,519.2 292.1,519.0 303.3,518.8 314.5,519.0 325.7,518.7 336.8,518.8 348.0,519.2 359.2,519.1 370.4,519.1 381.6,519.0 392.8,518.7 403.9,518.7 415.1,518.6 426.3,518.6 437.5,518.9 448.7,518.5 459.9,517.9 471.0,517.8 482.2,517.3 493.4,517.1 504.6,517.6 515.8,517.7 527.0,517.5 538.1,517.8 549.3,517.6 560.5,517.3 571.7,517.2 582.9,517.6 594.1,517.5 605.2,517.4 616.4,517.5 627.6,517.8 638.8,517.6 650.0,517.8 661.2,517.8 672.3,517.8 683.5,517.9 694.7,518.4 705.9,518.3 717.1,518.6 728.3,518.4 739.4,518.9 750.6,519.1 761.8,519.3 773.0,519.4 784.2,519.6 795.4,519.7 806.5,520.8 817.7,520.6 828.9,520.9 840.1,521.2 851.3,521.3 862.5,521.7" stroke="#EDB120" stroke-width="5.40" stroke-opacity="1.00" fill="none" clip-path="url(#axis_clip)"/>
<g class="pl" fill="#FFF" stroke="#EDB120" stroke-width="0.900">
  <circle cx="146.7" cy="518.2" r="2.2" />
  <circle cx="169.1" cy="517.6" r="2.2" />
  <circle cx="180.3" cy="517.0" r="2.2" />
  <circle cx="191.5" cy="517.2" r="2.2" />
  <circle cx="202.6" cy="517.6" r="2.2" />
  <circle cx="213.8" cy="518.3" r="2.2" />
  <circle cx="225.0" cy="518.7" r="2.2" />
  <circle cx="236.2" cy="518.7" r="2.2" />
  <circle cx="247.4" cy="519.0" r="2.2" />
  <circle cx="258.6" cy="519.2" r="2.2" />
  <circle cx="280.9" cy="519.2" r="2.2" />
  <circle cx="292.1" cy="519.0" r="2.2" />
  <circle cx="303.3" cy="518.8" r="2.2" />
  <circle cx="314.5" cy="519.0" r="2.2" />
  <circle cx="325.7" cy="518.7" r="2.2" />
  <circle cx="336.8" cy="518.8" r="2.2" />
  <circle cx="348.0" cy="519.2" r="2.2" />
  <circle cx="359.2" cy="519.1" r="2.2" />
  <circle cx="370.4" cy="519.1" r="2.2" />
  <circle cx="392.8" cy="518.7" r="2.2" />
  <circle cx="403.9" cy="518.7" r="2.2" />
  <circle cx="415.1" cy="518.6" r="2.2" />
  <circle cx="426.3" cy="518.6" r="2.2" />
  <circle cx="437.5" cy="518.9" r="2.2" />
  <circle cx="448.7" cy="518.5" r="2.2" />
  <circle cx="459.9" cy="517.9" r="2.2" />
  <circle cx="471.0" cy="517.8" r="2.2" />
  <circle cx="482.2" cy="517.3" r="2.2" />
  <circle cx="504.6" cy="517.6" r="2.2" />
  <circle cx="515.8" cy="517.7" r="2.2" />
  <circle cx="527.0" cy="517.5" r="2.2" />
  <circle cx="538.1" cy="517.8" r="2.2" />
  <circle cx="549.3" cy="517.6" r="2.2" />
  <circle cx="560.5" cy="517.3" r="2.2" />
  <circle cx="571.7" cy="517.2" r="2.2" />
  <circle cx="582.9" cy="517.6" r="2.2" />
  <circle cx="594.1" cy="517.5" r="2.2" />
  <circle cx="616.4" cy="517.5" r="2.2" />
  <circle cx="627.6" cy="517.8" r="2.2" />
  <circle cx="638.8" cy="517.6" r="2.2" />
  <circle cx="650.0" cy="517.8" r="2.2" />
  <circle cx="661.2" cy="517.8" r="2.2" />
  <circle cx="672.3" cy="517.8" r="2.2" />
  <circle cx="683.5" cy="517.9" r="2.2" />
  <circle cx="694.7" cy="518.4" r="2.2" />
  <circle cx="705.9" cy="518.3" r="2.2" />
  <circle cx="728.3" cy="518.4" r="2.2" />
  <circle cx="739.4" cy="518.9" r="2.2" />
  <circle cx="750.6" cy="519.1" r="2.2" />
  <circle cx="761.8" cy="519.3" r="2.2" />
  <circle cx="773.0" cy="519.4" r="2.2" />
  <circle cx="784.2" cy="519.6" r="2.2" />
  <circle cx="795.4" cy="519.7" r="2.2" />
  <circle cx="806.5" cy="520.8" r="2.2" />
  <circle cx="817.7" cy="520.6" r="2.2" />
  <circle cx="840.1" cy="521.2" r="2.2" />
  <circle cx="851.3" cy="521.3" r="2.2" />
  <circle cx="862.5" cy="521.7" r="2.2" />
</g>
<g class="pl" fill="#FFF" stroke="#EDB120" stroke-width="0.900">
  <circle cx="157.9" cy="518.1" r="5.4" />
  <circle cx="269.7" cy="519.1" r="5.4" />
  <circle cx="381.6" cy="519.0" r="5.4" />
  <circle cx="493.4" cy="517.1" r="5.4" />
  <circle cx="605.2" cy="517.4" r="5.4" />
  <circle cx="717.1" cy="518.6" r="5.4" />
  <circle cx="828.9" cy="520.9" r="5.4" />
</g>
<polyline class="pl" points="135.5,511.4 146.7,510.3 157.9,508.6 169.1,519.6 180.3,524.4 191.5,524.3 202.6,502.3 213.8,499.4 225.0,509.2 236.2,519.4 247.4,519.1 258.6,521.5 269.7,522.0 280.9,524.0 292.1,525.1 303.3,526.5 314.5,527.6 325.7,531.2 336.8,533.6 348.0,536.2 359.2,538.6 370.4,537.5 381.6,533.6 392.8,535.3 403.9,535.3 415.1,531.6 426.3,527.3 437.5,519.9 448.7,527.0 459.9,524.8 471.0,528.3 482.2,518.8 493.4,525.4 504.6,479.7 515.8,501.2 527.0,512.2 538.1,486.7 549.3,509.7 560.5,508.0 571.7,520.9 582.9,491.0 594.1,515.8 605.2,516.5 616.4,515.6 627.6,523.1 638.8,520.6 650.0,520.9 661.2,523.9 672.3,526.9 683.5,530.4 694.7,511.3 705.9,519.7 717.1,527.4 728.3,522.9 739.4,519.6 750.6,526.4 761.8,526.7 773.0,530.8 784.2,516.5 795.4,521.1 806.5,517.4 817.7,515.8 828.9,512.7 840.1,512.5 851.3,511.6 862.5,511.4" stroke="#7E2F8E" stroke-width="5.40" stroke-opacity="1.00" fill="none" clip-path="url(#axis_clip)"/>
<g class="pl" fill="#FFF" stroke="#7E2F8E" stroke-width="0.900">
  <circle cx="146.7" cy="510.3" r="2.2" />
  <circle cx="169.1" cy="519.6" r="2.2" />
  <circle cx="180.3" cy="524.4" r="2.2" />
  <circle cx="191.5" cy="524.3" r="2.2" />
  <circle cx="202.6" cy="502.3" r="2.2" />
  <circle cx="213.8" cy="499.4" r="2.2" />
  <circle cx="225.0" cy="509.2" r="2.2" />
  <circle cx="236.2" cy="519.4" r="2.2" />
  <circle cx="247.4" cy="519.1" r="2.2" />
  <circle cx="258.6" cy="521.5" r="2.2" />
  <circle cx="280.9" cy="524.0" r="2.2" />
  <circle cx="292.1" cy="525.1" r="2.2" />
  <circle cx="303.3" cy="526.5" r="2.2" />
  <circle cx="314.5" cy="527.6" r="2.2" />
  <circle cx="325.7" cy="531.2" r="2.2" />
  <circle cx="336.8" cy="533.6" r="2.2" />
  <circle cx="348.0" cy="536.2" r="2.2" />
  <circle cx="359.2" cy="538.6" r="2.2" />
  <circle cx="370.4" cy="537.5" r="2.2" />
  <circle cx="392.8" cy="535.3" r="2.2" />
  <circle cx="403.9" cy="535.3" r="2.2" />
  <circle cx="415.1" cy="531.6" r="2.2" />
  <circle cx="426.3" cy="527.3" r="2.2" />
  <circle cx="437.5" cy="519.9" r="2.2" />
  <circle cx="448.7" cy="527.0" r="2.2" />
  <circle cx="459.9" cy="524.8" r="2.2" />
  <circle cx="471.0" cy="528.3" r="2.2" />
  <circle cx="482.2" cy="518.8" r="2.2" />
  <circle cx="504.6" cy="479.7" r="2.2" />
  <circle cx="515.8" cy="501.2" r="2.2" />
  <circle cx="527.0" cy="512.2" r="2.2" />
  <circle cx="538.1" cy="486.7" r="2.2" />
  <circle cx="549.3" cy="509.7" r="2.2" />
  <circle cx="560.5" cy="508.0" r="2.2" />
  <circle cx="571.7" cy="520.9" r="2.2" />
  <circle cx="582.9" cy="491.0" r="2.2" />
  <circle cx="594.1" cy="515.8" r="2.2" />
  <circle cx="616.4" cy="515.6" r="2.2" />
  <circle cx="627.6" cy="523.1" r="2.2" />
  <circle cx="638.8" cy="520.6" r="2.2" />
  <circle cx="650.0" cy="520.9" r="2.2" />
  <circle cx="661.2" cy="523.9" r="2.2" />
  <circle cx="672.3" cy="526.9" r="2.2" />
  <circle cx="683.5" cy="530.4" r="2.2" />
  <circle cx="694.7" cy="511.3" r="2.2" />
  <circle cx="705.9" cy="519.7" r="2.2" />
  <circle cx="728.3" cy="522.9" r="2.2" />
  <circle cx="739.4" cy="519.6" r="2.2" />
  <circle cx="750.6" cy="526.4" r="2.2" />
  <circle cx="761.8" cy="526.7" r="2.2" />
  <circle cx="773.0" cy="530.8" r="2.2" />
  <circle cx="784.2" cy="516.5" r="2.2" />
  <circle cx="795.4" cy="521.1" r="2.2" />
  <circle cx="806.5" cy="517.4" r="2.2" />
  <circle cx="817.7" cy="515.8" r="2.2" />
  <circle cx="840.1" cy="512.5" r="2.2" />
  <circle cx="851.3" cy="511.6" r="2.2" />
  <circle cx="862.5" cy="511.4" r="2.2" />
</g>
<g class="pl" fill="#FFF" stroke="#7E2F8E" stroke-width="0.900">
  <circle cx="157.9" cy="508.6" r="5.4" />
  <circle cx="269.7" cy="522.0" r="5.4" />
  <circle cx="381.6" cy="533.6" r="5.4" />
  <circle cx="493.4" cy="525.4" r="5.4" />
  <circle cx="605.2" cy="516.5" r="5.4" />
  <circle cx="717.1" cy="527.4" r="5.4" />
  <circle cx="828.9" cy="512.7" r="5.4" />
</g>
<polyline class="pl" points="135.5,432.4 146.7,414.8 157.9,424.4 169.1,441.9 180.3,452.4 191.5,442.0 202.6,434.9 213.8,424.4 225.0,429.9 236.2,433.5 247.4,451.5 258.6,468.7 269.7,476.2 280.9,481.8 292.1,491.9 303.3,498.2 314.5,500.6 325.7,506.4 336.8,511.5 348.0,516.2 359.2,520.1 370.4,519.7 381.6,517.1 392.8,519.0 403.9,518.5 415.1,513.3 426.3,505.6 437.5,499.9 448.7,499.2 459.9,500.0 471.0,497.6 482.2,498.5 493.4,458.6 504.6,391.6 515.8,395.5 527.0,400.2 538.1,384.6 549.3,434.6 560.5,465.2 571.7,452.7 582.9,461.9 594.1,470.5 605.2,470.1 616.4,471.3 627.6,496.4 638.8,470.1 650.0,472.6 661.2,484.3 672.3,485.6 683.5,480.3 694.7,473.8 705.9,488.1 717.1,488.5 728.3,481.2 739.4,498.8 750.6,495.7 761.8,494.0 773.0,496.5 784.2,492.7 795.4,493.8 806.5,499.9 817.7,500.3 828.9,499.4 840.1,499.2 851.3,498.7 862.5,498.5" stroke="#000" stroke-width="5.40" stroke-opacity="1.00" fill="none" clip-path="url(#axis_clip)"/>
<g class="pl" fill="#FFF" stroke="#000" stroke-width="0.900">
  <circle cx="146.7" cy="414.8" r="2.2" />
  <circle cx="169.1" cy="441.9" r="2.2" />
  <circle cx="180.3" cy="452.4" r="2.2" />
  <circle cx="191.5" cy="442.0" r="2.2" />
  <circle cx="202.6" cy="434.9" r="2.2" />
  <circle cx="213.8" cy="424.4" r="2.2" />
  <circle cx="225.0" cy="429.9" r="2.2" />
  <circle cx="236.2" cy="433.5" r="2.2" />
  <circle cx="247.4" cy="451.5" r="2.2" />
  <circle cx="258.6" cy="468.7" r="2.2" />
  <circle cx="280.9" cy="481.8" r="2.2" />
  <circle cx="292.1" cy="491.9" r="2.2" />
  <circle cx="303.3" cy="498.2" r="2.2" />
  <circle cx="314.5" cy="500.6" r="2.2" />
  <circle cx="325.7" cy="506.4" r="2.2" />
  <circle cx="336.8" cy="511.5" r="2.2" />
  <circle cx="348.0" cy="516.2" r="2.2" />
  <circle cx="359.2" cy="520.1" r="2.2" />
  <circle cx="370.4" cy="519.7" r="2.2" />
  <circle cx="392.8" cy="519.0" r="2.2" />
  <circle cx="403.9" cy="518.5" r="2.2" />
  <circle cx="415.1" cy="513.3" r="2.2" />
  <circle cx="426.3" cy="505.6" r="2.2" />
  <circle cx="437.5" cy="499.9" r="2.2" />
  <circle cx="448.7" cy="499.2" r="2.2" />
  <circle cx="459.9" cy="500.0" r="2.2" />
  <circle cx="471.0" cy="497.6" r="2.2" />
  <circle cx="482.2" cy="498.5" r="2.2" />
  <circle cx="504.6" cy="391.6" r="2.2" />
  <circle cx="515.8" cy="395.5" r="2.2" />
  <circle cx="527.0" cy="400.2" r="2.2" />
  <circle cx="538.1" cy="384.6" r="2.2" />
  <circle cx="549.3" cy="434.6" r="2.2" />
  <circle cx="560.5" cy="465.2" r="2.2" />
  <circle cx="571.7" cy="452.7" r="2.2" />
  <circle cx="582.9" cy="461.9" r="2.2" />
  <circle cx="594.1" cy="470.5" r="2.2" />
  <circle cx="616.4" cy="471.3" r="2.2" />
  <circle cx="627.6" cy="496.4" r="2.2" />
  <circle cx="638.8" cy="470.1" r="2.2" />
  <circle cx="650.0" cy="472.6" r="2.2" />
  <circle cx="661.2" cy="484.3" r="2.2" />
  <circle cx="672.3" cy="485.6" r="2.2" />
  <circle cx="683.5" cy="480.3" r="2.2" />
  <circle cx="694.7" cy="473.8" r="2.2" />
  <circle cx="705.9" cy="488.1" r="2.2" />
  <circle cx="728.3" cy="481.2" r="2.2" />
  <circle cx="739.4" cy="498.8" r="2.2" />
  <circle cx="750.6" cy="495.7" r="2.2" />
  <circle cx="761.8" cy="494.0" r="2.2" />
  <circle cx="773.0" cy="496.5" r="2.2" />
  <circle cx="784.2" cy="492.7" r="2.2" />
  <circle cx="795.4" cy="493.8" r="2.2" />
  <circle cx="806.5" cy="499.9" r="2.2" />
  <circle cx="817.7" cy="500.3" r="2.2" />
  <circle cx="840.1" cy="499.2" r="2.2" />
  <circle cx="851.3" cy="498.7" r="2.2" />
  <circle cx="862.5" cy="498.5" r="2.2" />
</g>
<g class="pl" fill="#FFF" stroke="#000" stroke-width="0.900">
  <circle cx="157.9" cy="424.4" r="5.4" />
  <circle cx="269.7" cy="476.2" r="5.4" />
  <circle cx="381.6" cy="517.1" r="5.4" />
  <circle cx="493.4" cy="458.6" r="5.4" />
  <circle cx="605.2" cy="470.1" r="5.4" />
  <circle cx="717.1" cy="488.5" r="5.4" />
  <circle cx="828.9" cy="499.4" r="5.4" />
</g>
<text transform="translate(945.6,472.6)" dy="8.1" font-size="27.00" fill="#0072BD" stroke="none">BLUE</text>
<text transform="translate(945.6,446.7)" dy="8.1" font-size="27.00" fill="#D95319" stroke="none">H&amp;C2023</text>
<text transform="translate(945.6,550.3)" dy="8.1" font-size="27.00" fill="#EDB120" stroke="none">OSCAR</text>
<text transform="translate(945.6,524.4)" dy="8.1" font-size="27.00" fill="#7E2F8E" stroke="none">LUCE</text>
<text transform="translate(945.6,498.5)" dy="8.1" font-size="27.00" fill="#000" stroke="none">Mean</text>
<polyline class="pl" points="910.8,491.7 912.4,491.7 913.8,491.5 915.2,491.2 916.4,490.7 917.6,490.2 918.8,489.6 919.8,488.9 920.8,488.2 921.7,487.3 922.7,486.5 923.5,485.6 924.4,484.6 925.2,483.7 926.0,482.7 926.8,481.7 927.6,480.7 928.4,479.7 929.3,478.8 930.1,477.9 931.1,477.0 932.0,476.2 933.0,475.4 934.0,474.7 935.2,474.1 936.4,473.6 937.6,473.2 939.0,472.9 940.4,472.7 942.0,472.6" stroke="#0072BD" stroke-width="0.90" stroke-opacity="1.00" fill="none" />
<polyline class="pl" points="910.8,469.2 912.4,469.1 913.8,468.9 915.2,468.5 916.4,468.1 917.6,467.4 918.8,466.7 919.8,465.9 920.8,465.0 921.7,464.1 922.7,463.0 923.5,462.0 924.4,460.8 925.2,459.7 926.0,458.5 926.8,457.4 927.6,456.2 928.4,455.1 929.3,454.0 930.1,452.9 931.1,451.9 932.0,450.9 933.0,450.0 934.0,449.2 935.2,448.5 936.4,447.9 937.6,447.4 939.0,447.0 940.4,446.8 942.0,446.7" stroke="#D95319" stroke-width="0.90" stroke-opacity="1.00" fill="none" />
<polyline class="pl" points="910.8,521.7 912.4,521.8 913.8,522.1 915.2,522.6 916.4,523.2 917.6,524.0 918.8,524.9 919.8,525.9 920.8,527.0 921.7,528.3 922.7,529.6 923.5,530.9 924.4,532.4 925.2,533.8 926.0,535.3 926.8,536.8 927.6,538.2 928.4,539.7 929.3,541.1 930.1,542.5 931.1,543.8 932.0,545.0 933.0,546.1 934.0,547.2 935.2,548.1 936.4,548.8 937.6,549.5 939.0,549.9 940.4,550.2 942.0,550.3" stroke="#EDB120" stroke-width="0.90" stroke-opacity="1.00" fill="none" />
<polyline class="pl" points="910.8,511.4 912.4,511.5 913.8,511.6 915.2,511.8 916.4,512.1 917.6,512.5 918.8,512.9 919.8,513.3 920.8,513.9 921.7,514.4 922.7,515.0 923.5,515.6 924.4,516.3 925.2,516.9 926.0,517.6 926.8,518.3 927.6,518.9 928.4,519.6 929.3,520.2 930.1,520.9 931.1,521.4 932.0,522.0 933.0,522.5 934.0,523.0 935.2,523.4 936.4,523.8 937.6,524.0 939.0,524.2 940.4,524.4 942.0,524.4" stroke="#7E2F8E" stroke-width="0.90" stroke-opacity="1.00" fill="none" />
<text transform="translate(157.6,60.7)" dy="18.0" font-size="18.00" fill="#808080" stroke="none">Note: The wide spread of the models means we have lower confidence in the estimates</text>
<text transform="translate(145.6,47.2)" dy="0.0" font-size="27.00" fill="#808080" stroke="none">Annual CO<tspan dy="0.2em"><tspan style="font-size:70%">2</tspan></tspan><tspan dy="-0.2em"> </tspan>fluxes from land-use change: Egypt</text>
<text transform="translate(130.0,81.6)" dy="8.1" font-size="27.00" fill="#808080" stroke="none" text-anchor="end">CO<tspan dy="0.2em"><tspan style="font-size:70%">2</tspan></tspan><tspan dy="-0.2em"></tspan></text>
<text transform="translate(160.2,666.1)" font-size="19.80" font-family="Helvetica" fill="#BFBFBF" stroke="none" xml:space="preserve">Global Carbon Project</text>
<g>
  <rect x="123.0" y="651.4" width="34" height="17" fill="#FFF" stroke="none"/>
  <g transform="translate(124.0,652.4) scale(0.24)">
  <g><circle fill="#FFF" cx="37.79" cy="28.5" r="28.84"/>
     <circle fill="none" cx="37.79" cy="28.5" r="28.84" stroke="#BFBFBF" stroke-width="5.5"/>
     <path fill="#BFBFBF" d="M37.16,23.19 l-4.29,2.23c-0.458-0.951-1.02-1.62-1.69-2c-0.667-0.38-1.29-0.571-1.86-0.571c-2.86,0-4.29,1.89-4.29,5.66 c0,1.71,0.36,3.08,1.09,4.11c0.724,1.03,1.79,1.54,3.2,1.54c1.87,0,3.18-0.915,3.94-2.74l3.94,2 c-0.838,1.56-2,2.79-3.49,3.69c-1.48,0.896-3.12,1.34-4.91,1.34c-2.86,0-5.16-0.875-6.92-2.63 c-1.75-1.75-2.63-4.19-2.63-7.31c0-3.05,0.886-5.47,2.66-7.26c1.77-1.79,4.01-2.69,6.72-2.69 C32.6,18.56,35.44,20.1,37.16,23.19z
              M55.61,23.19l-4.23,2.23c-0.457-0.951-1.02-1.62-1.69-2 c-0.668-0.38-1.31-0.571-1.91-0.571c-2.86,0-4.29,1.89-4.29,5.66c0,1.71,0.363,3.08,1.09,4.11 c0.723,1.03,1.79,1.54,3.2,1.54c1.87,0,3.18-0.915,3.94-2.74l4,2c-0.875,1.56-2.06,2.79-3.54,3.69 c-1.49,0.9-3.11,1.34-4.86,1.34c-2.9,0-5.21-0.875-6.94-2.63c-1.74-1.75-2.6-4.19-2.6-7.31 c0-3.05,0.885-5.47,2.66-7.26c1.77-1.79,4.01-2.69,6.71-2.69C51.12,18.56,53.944,20.1,55.61,23.19z"/>
  </g></g>
  <g transform="translate(140.2,652.4) scale(0.24)">
  <g><circle fill="#FFF" cx="37.79" cy="28.5" r="28.84"/>
     <circle fill="none" cx="37.79" cy="28.5" r="28.84" stroke="#BFBFBF" stroke-width="5.5"/>
     <path fill="#BFBFBF" d="M46.129,20.557v13.085h-3.656v15.542h-9.944V33.643h-3.656V20.557 c0-0.572,0.2-1.057,0.599-1.457c0.401-0.399,0.887-0.6,1.457-0.6h13.144c0.533,0,1.01,0.2,1.428,0.6 C45.918,19.5,46.129,19.986,46.129,20.557z
              M33.042,12.329c0-3.008,1.485-4.514,4.458-4.514s4.457,1.504,4.457,4.514 c0,2.971-1.486,4.457-4.457,4.457S33.042,15.3,33.042,12.329z"/>
  </g></g>
</g>
</g>
</svg>
