<svg version="1.1" xmlns="http://www.w3.org/2000/svg" xmlns:xlink="http://www.w3.org/1999/xlink" width="100%" height="100%" viewBox="0 0 1200.000 674.916">
<title>Annual CH4 Emissions: Germany</title>
<style type="text/css">
  #main {font-family:Helvetica,Arial,sans-serif; font-size:27.00px;
         fill-opacity:1; fill:#000000; stroke:none; stroke-linejoin:round; stroke-linecap:round; stroke-width:1.00;}
  .marker {stroke-opacity:0;fill-opacity:0;}
  .marker:hover {stroke-opacity:0.5; fill-opacity:1;}
  .ticklabel {font-size:27.00px;fill:#808080;stroke:none;font-family:Helvetica}
  .ytl {text-anchor:end;}
  .dp1 {pointer-events:none;font-size:70%;text-anchor:middle;fill:#000000;}
  .dp2 {pointer-events:none;font-size:70%;text-anchor:middle;fill:#FFFFFF;}
  .numtip {pointer-events:none;}
  .cc {opacity:0.25;}
.dl_fe {background-color:#FDFFDF;display:flex;margin:auto;align-items:center}
.dl_fe_p {font-size:20px;text-align:center;margin:3px}
.dl_el {display:none;pointer-events:none;}
.cc:hover + .dl_el {display:block;}
text:hover + .dl_el {display:block;}
</style>
<defs>
  <clipPath id="axis_clip"><rect x="145.8" y="54.2" width="761.2" height="532.8" /></clipPath>
  <path id="line_y" d="M 0,53.993 v 533.183" stroke="#262626" stroke-opacity="0.15" stroke-width="1.00"/>
  <path id="line_x" d="M 145.600,0 h 761.600" stroke="#262626" stroke-opacity="0.15" stroke-width="1.00"/>
  <path id="tick_y" d="M 145.600,0 h -6.000" stroke="#808080" stroke-width="0.90"/>
  <path id="tick_x" d="M 0,587.177 v 6.000" stroke="#808080" stroke-width="0.90"/>
</defs>
<g id="main">
<use xlink:href="#line_y" transform="translate(156.8,0)"/>
<use xlink:href="#line_y" transform="translate(268.8,0)"/>
<use xlink:href="#line_y" transform="translate(380.8,0)"/>
<use xlink:href="#line_y" transform="translate(492.8,0)"/>
<use xlink:href="#line_y" transform="translate(604.8,0)"/>
<use xlink:href="#line_y" transform="translate(716.8,0)"/>
<use xlink:href="#line_y" transform="translate(828.8,0)"/>
<use xlink:href="#line_y" transform="translate(896.0,0)"/>
<use xlink:href="#line_x" transform="translate(0,587.2)"/>
<use xlink:href="#line_x" transform="translate(0,498.3)"/>
<use xlink:href="#line_x" transform="translate(0,409.4)"/>
<use xlink:href="#line_x" transform="translate(0,320.6)"/>
<use xlink:href="#line_x" transform="translate(0,231.7)"/>
<use xlink:href="#line_x" transform="translate(0,142.9)"/>
<use xlink:href="#line_x" transform="translate(0,54.0)"/>
<use xlink:href="#tick_y" transform="translate(0,587.2)"/>
<use xlink:href="#tick_y" transform="translate(0,498.3)"/>
<use xlink:href="#tick_y" transform="translate(0,409.4)"/>
<use xlink:href="#tick_y" transform="translate(0,320.6)"/>
<use xlink:href="#tick_y" transform="translate(0,231.7)"/>
<use xlink:href="#tick_y" transform="translate(0,142.9)"/>
<use xlink:href="#tick_y" transform="translate(0,54.0)"/>
<use xlink:href="#tick_x" transform="translate(156.8,0)"/>
<use xlink:href="#tick_x" transform="translate(268.8,0)"/>
<use xlink:href="#tick_x" transform="translate(380.8,0)"/>
<use xlink:href="#tick_x" transform="translate(492.8,0)"/>
<use xlink:href="#tick_x" transform="translate(604.8,0)"/>
<use xlink:href="#tick_x" transform="translate(716.8,0)"/>
<use xlink:href="#tick_x" transform="translate(828.8,0)"/>
<use xlink:href="#tick_x" transform="translate(896.0,0)"/>
<polyline points="145.6,53.993 145.6,587.177 907.2,587.177" stroke="#808080" stroke-width="0.90" fill="none"/>
<text class="ticklabel xtl" transform="translate(156.8,629.0)" text-anchor="middle">1990</text>
<text class="ticklabel xtl" transform="translate(268.8,629.0)" text-anchor="middle">1995</text>
<text class="ticklabel xtl" transform="translate(380.8,629.0)" text-anchor="middle">2000</text>
<text class="ticklabel xtl" transform="translate(492.8,629.0)" text-anchor="middle">2005</text>
<text class="ticklabel xtl" transform="translate(604.8,629.0)" text-anchor="middle">2010</text>
<text class="ticklabel xtl" transform="translate(716.8,629.0)" text-anchor="middle">2015</text>
<text class="ticklabel xtl" transform="translate(828.8,629.0)" text-anchor="middle">2020</text>
<text class="ticklabel xtl" transform="translate(896.0,629.0)" text-anchor="middle">23</text>
<text class="ticklabel ytl" transform="translate(128.8,595.3)">0</text>
<text class="ticklabel ytl" transform="translate(128.8,506.4)">1</text>
<text class="ticklabel ytl" transform="translate(128.8,417.5)">2</text>
<text class="ticklabel ytl" transform="translate(128.8,328.7)">3</text>
<text class="ticklabel ytl" transform="translate(128.8,239.8)">4</text>
<text class="ticklabel ytl" transform="translate(128.8,151.0)">5</text>
<text class="ticklabel ytl" transform="translate(128.8,62.1)">6 Mt</text>
<g stroke="#000" stroke-width="0.90" fill="#7FBF7F"  clip-path="url(#axis_clip)">
  <polygon points="147.8,140.4 147.8,163.7 165.8,163.7 165.8,140.4 147.8,140.4"/>
  <polygon points="170.2,162.0 170.2,183.6 188.2,183.6 188.2,162.0 170.2,162.0"/>
  <polygon points="192.6,174.7 192.6,195.9 210.6,195.9 210.6,174.7 192.6,174.7"/>
  <polygon points="215.0,167.7 215.0,193.1 233.0,193.1 233.0,167.7 215.0,167.7"/>
  <polygon points="237.4,185.0 237.4,208.4 255.4,208.4 255.4,185.0 237.4,185.0"/>
  <polygon points="259.8,194.5 259.8,216.7 277.8,216.7 277.8,194.5 259.8,194.5"/>
  <polygon points="282.2,205.5 282.2,226.4 300.2,226.4 300.2,205.5 282.2,205.5"/>
  <polygon points="304.6,221.6 304.6,242.9 322.6,242.9 322.6,221.6 304.6,221.6"/>
  <polygon points="327.0,233.5 327.0,261.2 345.0,261.2 345.0,233.5 327.0,233.5"/>
  <polygon points="349.4,242.9 349.4,265.0 367.4,265.0 367.4,242.9 349.4,242.9"/>
  <polygon points="371.8,257.1 371.8,279.5 389.8,279.5 389.8,257.1 371.8,257.1"/>
  <polygon points="394.2,266.7 394.2,292.6 412.2,292.6 412.2,266.7 394.2,266.7"/>
  <polygon points="416.6,281.2 416.6,307.4 434.6,307.4 434.6,281.2 416.6,281.2"/>
  <polygon points="439.0,300.0 439.0,320.1 457.0,320.1 457.0,300.0 439.0,300.0"/>
  <polygon points="461.4,318.2 461.4,341.7 479.4,341.7 479.4,318.2 461.4,318.2"/>
  <polygon points="483.8,331.8 483.8,354.0 501.8,354.0 501.8,331.8 483.8,331.8"/>
  <polygon points="506.2,346.8 506.2,367.9 524.2,367.9 524.2,346.8 506.2,346.8"/>
  <polygon points="528.6,350.3 528.6,375.9 546.6,375.9 546.6,350.3 528.6,350.3"/>
  <polygon points="551.0,358.4 551.0,380.3 569.0,380.3 569.0,358.4 551.0,358.4"/>
  <polygon points="573.4,367.8 573.4,389.3 591.4,389.3 591.4,367.8 573.4,367.8"/>
  <polygon points="595.8,370.0 595.8,393.6 613.8,393.6 613.8,370.0 595.8,370.0"/>
  <polygon points="618.2,375.7 618.2,398.6 636.2,398.6 636.2,375.7 618.2,375.7"/>
  <polygon points="640.6,375.3 640.6,397.5 658.6,397.5 658.6,375.3 640.6,375.3"/>
  <polygon points="663.0,378.1 663.0,400.5 681.0,400.5 681.0,378.1 663.0,378.1"/>
  <polygon points="685.4,383.8 685.4,405.4 703.4,405.4 703.4,383.8 685.4,383.8"/>
  <polygon points="707.8,384.1 707.8,406.9 725.8,406.9 725.8,384.1 707.8,384.1"/>
  <polygon points="730.2,390.9 730.2,412.4 748.2,412.4 748.2,390.9 730.2,390.9"/>
  <polygon points="752.6,389.2 752.6,415.2 770.6,415.2 770.6,389.2 752.6,389.2"/>
  <polygon points="775.0,402.4 775.0,422.3 793.0,422.3 793.0,402.4 775.0,402.4"/>
  <polygon points="797.4,410.0 797.4,431.3 815.4,431.3 815.4,410.0 797.4,410.0"/>
  <polygon points="819.8,414.4 819.8,435.2 837.8,435.2 837.8,414.4 819.8,414.4"/>
  <polygon points="842.2,415.6 842.2,438.6 860.2,438.6 860.2,415.6 842.2,415.6"/>
  <polygon points="864.6,421.7 864.6,442.1 882.6,442.1 882.6,421.7 864.6,421.7"/>
  <polygon points="887.0,420.0 887.0,444.6 905.0,444.6 905.0,420.0 887.0,420.0"/>
</g>
<g stroke="#000" stroke-width="0.90" fill="#DBA746"  clip-path="url(#axis_clip)">
  <polygon points="147.8,163.7 147.8,293.8 165.8,293.8 165.8,163.7 147.8,163.7"/>
  <polygon points="170.2,183.6 170.2,318.3 188.2,318.3 188.2,183.6 170.2,183.6"/>
  <polygon points="192.6,195.9 192.6,332.3 210.6,332.3 210.6,195.9 192.6,195.9"/>
  <polygon points="215.0,193.1 215.0,328.4 233.0,328.4 233.0,193.1 215.0,193.1"/>
  <polygon points="237.4,208.4 237.4,340.0 255.4,340.0 255.4,208.4 237.4,208.4"/>
  <polygon points="259.8,216.7 259.8,344.0 277.8,344.0 277.8,216.7 259.8,216.7"/>
  <polygon points="282.2,226.4 282.2,347.8 300.2,347.8 300.2,226.4 282.2,226.4"/>
  <polygon points="304.6,242.9 304.6,353.5 322.6,353.5 322.6,242.9 304.6,242.9"/>
  <polygon points="327.0,261.2 327.0,363.6 345.0,363.6 345.0,261.2 327.0,261.2"/>
  <polygon points="349.4,265.0 349.4,360.9 367.4,360.9 367.4,265.0 349.4,265.0"/>
  <polygon points="371.8,279.5 371.8,369.2 389.8,369.2 389.8,279.5 371.8,279.5"/>
  <polygon points="394.2,292.6 394.2,375.8 412.2,375.8 412.2,292.6 394.2,292.6"/>
  <polygon points="416.6,307.4 416.6,385.1 434.6,385.1 434.6,307.4 416.6,307.4"/>
  <polygon points="439.0,320.1 439.0,392.1 457.0,392.1 457.0,320.1 439.0,320.1"/>
  <polygon points="461.4,341.7 461.4,405.4 479.4,405.4 479.4,341.7 461.4,341.7"/>
  <polygon points="483.8,354.0 483.8,412.2 501.8,412.2 501.8,354.0 483.8,354.0"/>
  <polygon points="506.2,367.9 506.2,420.1 524.2,420.1 524.2,367.9 506.2,367.9"/>
  <polygon points="528.6,375.9 528.6,423.2 546.6,423.2 546.6,375.9 528.6,375.9"/>
  <polygon points="551.0,380.3 551.0,423.2 569.0,423.2 569.0,380.3 551.0,380.3"/>
  <polygon points="573.4,389.3 573.4,427.8 591.4,427.8 591.4,389.3 573.4,389.3"/>
  <polygon points="595.8,393.6 595.8,428.0 613.8,428.0 613.8,393.6 595.8,393.6"/>
  <polygon points="618.2,398.6 618.2,430.2 636.2,430.2 636.2,398.6 618.2,398.6"/>
  <polygon points="640.6,397.5 640.6,426.4 658.6,426.4 658.6,397.5 640.6,397.5"/>
  <polygon points="663.0,400.5 663.0,426.9 681.0,426.9 681.0,400.5 663.0,400.5"/>
  <polygon points="685.4,405.4 685.4,429.8 703.4,429.8 703.4,405.4 685.4,405.4"/>
  <polygon points="707.8,406.9 707.8,429.4 725.8,429.4 725.8,406.9 707.8,406.9"/>
  <polygon points="730.2,412.4 730.2,433.2 748.2,433.2 748.2,412.4 730.2,412.4"/>
  <polygon points="752.6,415.2 752.6,434.7 770.6,434.7 770.6,415.2 752.6,415.2"/>
  <polygon points="775.0,422.3 775.0,440.6 793.0,440.6 793.0,422.3 775.0,422.3"/>
  <polygon points="797.4,431.3 797.4,447.9 815.4,447.9 815.4,431.3 797.4,431.3"/>
  <polygon points="819.8,435.2 819.8,450.2 837.8,450.2 837.8,435.2 819.8,435.2"/>
  <polygon points="842.2,438.6 842.2,453.0 860.2,453.0 860.2,438.6 842.2,438.6"/>
  <polygon points="864.6,442.1 864.6,455.7 882.6,455.7 882.6,442.1 864.6,442.1"/>
  <polygon points="887.0,444.6 887.0,457.6 905.0,457.6 905.0,444.6 887.0,444.6"/>
</g>
<g stroke="#000" stroke-width="0.90" fill="#845F48"  clip-path="url(#axis_clip)">
  <polygon points="147.8,293.8 147.8,439.1 165.8,439.1 165.8,293.8 147.8,293.8"/>
  <polygon points="170.2,318.3 170.2,448.2 188.2,448.2 188.2,318.3 170.2,318.3"/>
  <polygon points="192.6,332.3 192.6,459.9 210.6,459.9 210.6,332.3 192.6,332.3"/>
  <polygon points="215.0,328.4 215.0,456.5 233.0,456.5 233.0,328.4 215.0,328.4"/>
  <polygon points="237.4,340.0 237.4,468.9 255.4,468.9 255.4,340.0 237.4,340.0"/>
  <polygon points="259.8,344.0 259.8,473.4 277.8,473.4 277.8,344.0 259.8,344.0"/>
  <polygon points="282.2,347.8 282.2,477.6 300.2,477.6 300.2,347.8 282.2,347.8"/>
  <polygon points="304.6,353.5 304.6,480.0 322.6,480.0 322.6,353.5 304.6,353.5"/>
  <polygon points="327.0,363.6 327.0,489.9 345.0,489.9 345.0,363.6 327.0,363.6"/>
  <polygon points="349.4,360.9 349.4,486.2 367.4,486.2 367.4,360.9 349.4,360.9"/>
  <polygon points="371.8,369.2 371.8,492.8 389.8,492.8 389.8,369.2 371.8,369.2"/>
  <polygon points="394.2,375.8 394.2,501.3 412.2,501.3 412.2,375.8 394.2,375.8"/>
  <polygon points="416.6,385.1 416.6,506.2 434.6,506.2 434.6,385.1 416.6,385.1"/>
  <polygon points="439.0,392.1 439.0,512.1 457.0,512.1 457.0,392.1 439.0,392.1"/>
  <polygon points="461.4,405.4 461.4,522.2 479.4,522.2 479.4,405.4 461.4,405.4"/>
  <polygon points="483.8,412.2 483.8,528.5 501.8,528.5 501.8,412.2 483.8,412.2"/>
  <polygon points="506.2,420.1 506.2,534.3 524.2,534.3 524.2,420.1 506.2,420.1"/>
  <polygon points="528.6,423.2 528.6,538.2 546.6,538.2 546.6,423.2 528.6,423.2"/>
  <polygon points="551.0,423.2 551.0,538.9 569.0,538.9 569.0,423.2 551.0,423.2"/>
  <polygon points="573.4,427.8 573.4,543.8 591.4,543.8 591.4,427.8 573.4,427.8"/>
  <polygon points="595.8,428.0 595.8,543.2 613.8,543.2 613.8,428.0 595.8,428.0"/>
  <polygon points="618.2,430.2 618.2,544.7 636.2,544.7 636.2,430.2 618.2,430.2"/>
  <polygon points="640.6,426.4 640.6,541.5 658.6,541.5 658.6,426.4 640.6,426.4"/>
  <polygon points="663.0,426.9 663.0,544.1 681.0,544.1 681.0,426.9 663.0,426.9"/>
  <polygon points="685.4,429.8 685.4,548.3 703.4,548.3 703.4,429.8 685.4,429.8"/>
  <polygon points="707.8,429.4 707.8,547.9 725.8,547.9 725.8,429.4 707.8,429.4"/>
  <polygon points="730.2,433.2 730.2,550.9 748.2,550.9 748.2,433.2 730.2,433.2"/>
  <polygon points="752.6,434.7 752.6,551.7 770.6,551.7 770.6,434.7 752.6,434.7"/>
  <polygon points="775.0,440.6 775.0,556.0 793.0,556.0 793.0,440.6 775.0,440.6"/>
  <polygon points="797.4,447.9 797.4,562.2 815.4,562.2 815.4,447.9 797.4,447.9"/>
  <polygon points="819.8,450.2 819.8,563.1 837.8,563.1 837.8,450.2 819.8,450.2"/>
  <polygon points="842.2,453.0 842.2,563.0 860.2,563.0 860.2,453.0 842.2,453.0"/>
  <polygon points="864.6,455.7 864.6,564.2 882.6,564.2 882.6,455.7 864.6,455.7"/>
  <polygon points="887.0,457.6 887.0,565.7 905.0,565.7 905.0,457.6 887.0,457.6"/>
</g>
<g stroke="#000" stroke-width="0.90" fill="#4A89E8"  clip-path="url(#axis_clip)">
  <polygon points="147.8,439.1 147.8,440.6 165.8,440.6 165.8,439.1 147.8,439.1"/>
  <polygon points="170.2,448.2 170.2,449.6 188.2,449.6 188.2,448.2 170.2,448.2"/>
  <polygon points="192.6,459.9 192.6,461.4 210.6,461.4 210.6,459.9 192.6,459.9"/>
  <polygon points="215.0,456.5 215.0,458.1 233.0,458.1 233.0,456.5 215.0,456.5"/>
  <polygon points="237.4,468.9 237.4,470.7 255.4,470.7 255.4,468.9 237.4,468.9"/>
  <polygon points="259.8,473.4 259.8,475.2 277.8,475.2 277.8,473.4 259.8,473.4"/>
  <polygon points="282.2,477.6 282.2,479.4 300.2,479.4 300.2,477.6 282.2,477.6"/>
  <polygon points="304.6,480.0 304.6,481.9 322.6,481.9 322.6,480.0 304.6,480.0"/>
  <polygon points="327.0,489.9 327.0,491.9 345.0,491.9 345.0,489.9 327.0,489.9"/>
  <polygon points="349.4,486.2 349.4,488.3 367.4,488.3 367.4,486.2 349.4,486.2"/>
  <polygon points="371.8,492.8 371.8,495.1 389.8,495.1 389.8,492.8 371.8,492.8"/>
  <polygon points="394.2,501.3 394.2,503.5 412.2,503.5 412.2,501.3 394.2,501.3"/>
  <polygon points="416.6,506.2 416.6,508.3 434.6,508.3 434.6,506.2 416.6,506.2"/>
  <polygon points="439.0,512.1 439.0,514.4 457.0,514.4 457.0,512.1 439.0,512.1"/>
  <polygon points="461.4,522.2 461.4,524.4 479.4,524.4 479.4,522.2 461.4,522.2"/>
  <polygon points="483.8,528.5 483.8,530.8 501.8,530.8 501.8,528.5 483.8,528.5"/>
  <polygon points="506.2,534.3 506.2,536.6 524.2,536.6 524.2,534.3 506.2,534.3"/>
  <polygon points="528.6,538.2 528.6,540.5 546.6,540.5 546.6,538.2 528.6,538.2"/>
  <polygon points="551.0,538.9 551.0,541.0 569.0,541.0 569.0,538.9 551.0,538.9"/>
  <polygon points="573.4,543.8 573.4,545.9 591.4,545.9 591.4,543.8 573.4,543.8"/>
  <polygon points="595.8,543.2 595.8,545.3 613.8,545.3 613.8,543.2 595.8,543.2"/>
  <polygon points="618.2,544.7 618.2,546.8 636.2,546.8 636.2,544.7 618.2,544.7"/>
  <polygon points="640.6,541.5 640.6,543.6 658.6,543.6 658.6,541.5 640.6,541.5"/>
  <polygon points="663.0,544.1 663.0,546.1 681.0,546.1 681.0,544.1 663.0,544.1"/>
  <polygon points="685.4,548.3 685.4,550.4 703.4,550.4 703.4,548.3 685.4,548.3"/>
  <polygon points="707.8,547.9 707.8,550.0 725.8,550.0 725.8,547.9 707.8,547.9"/>
  <polygon points="730.2,550.9 730.2,553.0 748.2,553.0 748.2,550.9 730.2,550.9"/>
  <polygon points="752.6,551.7 752.6,553.9 770.6,553.9 770.6,551.7 752.6,551.7"/>
  <polygon points="775.0,556.0 775.0,558.0 793.0,558.0 793.0,556.0 775.0,556.0"/>
  <polygon points="797.4,562.2 797.4,564.2 815.4,564.2 815.4,562.2 797.4,562.2"/>
  <polygon points="819.8,563.1 819.8,565.2 837.8,565.2 837.8,563.1 819.8,563.1"/>
  <polygon points="842.2,563.0 842.2,565.1 860.2,565.1 860.2,563.0 842.2,563.0"/>
  <polygon points="864.6,564.2 864.6,566.0 882.6,566.0 882.6,564.2 864.6,564.2"/>
  <polygon points="887.0,565.7 887.0,567.3 905.0,567.3 905.0,565.7 887.0,565.7"/>
</g>
<g stroke="#000" stroke-width="0.90" fill="#FF7F61"  clip-path="url(#axis_clip)">
  <polygon points="147.8,440.6 147.8,587.2 165.8,587.2 165.8,440.6 147.8,440.6"/>
  <polygon points="170.2,449.6 170.2,587.2 188.2,587.2 188.2,449.6 170.2,449.6"/>
  <polygon points="192.6,461.4 192.6,587.2 210.6,587.2 210.6,461.4 192.6,461.4"/>
  <polygon points="215.0,458.1 215.0,587.2 233.0,587.2 233.0,458.1 215.0,458.1"/>
  <polygon points="237.4,470.7 237.4,587.2 255.4,587.2 255.4,470.7 237.4,470.7"/>
  <polygon points="259.8,475.2 259.8,587.2 277.8,587.2 277.8,475.2 259.8,475.2"/>
  <polygon points="282.2,479.4 282.2,587.2 300.2,587.2 300.2,479.4 282.2,479.4"/>
  <polygon points="304.6,481.9 304.6,587.2 322.6,587.2 322.6,481.9 304.6,481.9"/>
  <polygon points="327.0,491.9 327.0,587.2 345.0,587.2 345.0,491.9 327.0,491.9"/>
  <polygon points="349.4,488.3 349.4,587.2 367.4,587.2 367.4,488.3 349.4,488.3"/>
  <polygon points="371.8,495.1 371.8,587.2 389.8,587.2 389.8,495.1 371.8,495.1"/>
  <polygon points="394.2,503.5 394.2,587.2 412.2,587.2 412.2,503.5 394.2,503.5"/>
  <polygon points="416.6,508.3 416.6,587.2 434.6,587.2 434.6,508.3 416.6,508.3"/>
  <polygon points="439.0,514.4 439.0,587.2 457.0,587.2 457.0,514.4 439.0,514.4"/>
  <polygon points="461.4,524.4 461.4,587.2 479.4,587.2 479.4,524.4 461.4,524.4"/>
  <polygon points="483.8,530.8 483.8,587.2 501.8,587.2 501.8,530.8 483.8,530.8"/>
  <polygon points="506.2,536.6 506.2,587.2 524.2,587.2 524.2,536.6 506.2,536.6"/>
  <polygon points="528.6,540.5 528.6,587.2 546.6,587.2 546.6,540.5 528.6,540.5"/>
  <polygon points="551.0,541.0 551.0,587.2 569.0,587.2 569.0,541.0 551.0,541.0"/>
  <polygon points="573.4,545.9 573.4,587.2 591.4,587.2 591.4,545.9 573.4,545.9"/>
  <polygon points="595.8,545.3 595.8,587.2 613.8,587.2 613.8,545.3 595.8,545.3"/>
  <polygon points="618.2,546.8 618.2,587.2 636.2,587.2 636.2,546.8 618.2,546.8"/>
  <polygon points="640.6,543.6 640.6,587.2 658.6,587.2 658.6,543.6 640.6,543.6"/>
  <polygon points="663.0,546.1 663.0,587.2 681.0,587.2 681.0,546.1 663.0,546.1"/>
  <polygon points="685.4,550.4 685.4,587.2 703.4,587.2 703.4,550.4 685.4,550.4"/>
  <polygon points="707.8,550.0 707.8,587.2 725.8,587.2 725.8,550.0 707.8,550.0"/>
  <polygon points="730.2,553.0 730.2,587.2 748.2,587.2 748.2,553.0 730.2,553.0"/>
  <polygon points="752.6,553.9 752.6,587.2 770.6,587.2 770.6,553.9 752.6,553.9"/>
  <polygon points="775.0,558.0 775.0,587.2 793.0,587.2 793.0,558.0 775.0,558.0"/>
  <polygon points="797.4,564.2 797.4,587.2 815.4,587.2 815.4,564.2 797.4,564.2"/>
  <polygon points="819.8,565.2 819.8,587.2 837.8,587.2 837.8,565.2 819.8,565.2"/>
  <polygon points="842.2,565.1 842.2,587.2 860.2,587.2 860.2,565.1 842.2,565.1"/>
  <polygon points="864.6,566.0 864.6,587.2 882.6,587.2 882.6,566.0 864.6,566.0"/>
  <polygon points="887.0,567.3 887.0,587.2 905.0,587.2 905.0,567.3 887.0,567.3"/>
</g>
<polyline class="pl" points="156.8,140.4 179.2,162.0 201.6,174.7 224.0,167.7 246.4,185.0 268.8,194.5 291.2,205.5 313.6,221.6 336.0,233.5 358.4,242.9 380.8,257.1 403.2,266.7 425.6,281.2 448.0,300.0 470.4,318.2 492.8,331.8 515.2,346.8 537.6,350.3 560.0,358.4 582.4,367.8 604.8,370.0 627.2,375.7 649.6,375.3 672.0,378.1 694.4,383.8 716.8,384.1 739.2,390.9 761.6,389.2 784.0,402.4 806.4,410.0 828.8,414.4 851.2,415.6 873.6,421.7 896.0,420.0" stroke="#000" stroke-width="5.40" stroke-opacity="1.00" fill="none" clip-path="url(#axis_clip)"/>
<g class="pl" fill="#FFF" stroke="#000" stroke-width="0.900">
  <circle cx="179.2" cy="162.0" r="2.2" />
  <circle cx="201.6" cy="174.7" r="2.2" />
  <circle cx="224.0" cy="167.7" r="2.2" />
  <circle cx="246.4" cy="185.0" r="2.2" />
  <circle cx="268.8" cy="194.5" r="2.2" />
  <circle cx="291.2" cy="205.5" r="2.2" />
  <circle cx="313.6" cy="221.6" r="2.2" />
  <circle cx="336.0" cy="233.5" r="2.2" />
  <circle cx="358.4" cy="242.9" r="2.2" />
  <circle cx="403.2" cy="266.7" r="2.2" />
  <circle cx="425.6" cy="281.2" r="2.2" />
  <circle cx="448.0" cy="300.0" r="2.2" />
  <circle cx="470.4" cy="318.2" r="2.2" />
  <circle cx="492.8" cy="331.8" r="2.2" />
  <circle cx="515.2" cy="346.8" r="2.2" />
  <circle cx="537.6" cy="350.3" r="2.2" />
  <circle cx="560.0" cy="358.4" r="2.2" />
  <circle cx="582.4" cy="367.8" r="2.2" />
  <circle cx="627.2" cy="375.7" r="2.2" />
  <circle cx="649.6" cy="375.3" r="2.2" />
  <circle cx="672.0" cy="378.1" r="2.2" />
  <circle cx="694.4" cy="383.8" r="2.2" />
  <circle cx="716.8" cy="384.1" r="2.2" />
  <circle cx="739.2" cy="390.9" r="2.2" />
  <circle cx="761.6" cy="389.2" r="2.2" />
  <circle cx="784.0" cy="402.4" r="2.2" />
  <circle cx="806.4" cy="410.0" r="2.2" />
  <circle cx="851.2" cy="415.6" r="2.2" />
  <circle cx="873.6" cy="421.7" r="2.2" />
  <circle cx="896.0" cy="420.0" r="2.2" />
</g>
<g class="pl" fill="#FFF" stroke="#000" stroke-width="0.900">
  <circle cx="156.8" cy="140.4" r="5.4" />
  <circle cx="380.8" cy="257.1" r="5.4" />
  <circle cx="604.8" cy="370.0" r="5.4" />
  <circle cx="828.8" cy="414.4" r="5.4" />
</g>
<text transform="translate(145.6,47.2)" dy="0.0" font-size="27.00" fill="#808080" stroke="none">Annual CH<tspan dy="0.2em"><tspan style="font-size:70%">4</tspan></tspan><tspan dy="-0.2em"> </tspan>Emissions: Germany</text>
<text transform="translate(130.0,81.6)" dy="8.1" font-size="27.00" fill="#808080" stroke="none" text-anchor="end">CH<tspan dy="0.2em"><tspan style="font-size:70%">4</tspan></tspan><tspan dy="-0.2em"></tspan></text>
<text transform="translate(945.6,409.4)" dy="7.6" font-size="25.20" fill="#000" stroke="none">-62.6% since 1990</text>
<text transform="translate(945.6,584.4)" dy="7.6" font-size="25.20" fill="#FF7F61" stroke="none">Energy</text>
<text transform="translate(945.6,559.3)" dy="7.6" font-size="25.20" fill="#4A89E8" stroke="none">Industrial Processes</text>
<text transform="translate(945.6,511.6)" dy="7.6" font-size="25.20" fill="#845F48" stroke="none">Agriculture</text>
<text transform="translate(945.6,459.5)" dy="7.6" font-size="25.20" fill="#DBA746" stroke="none">Waste</text>
<text transform="translate(945.6,434.4)" dy="7.6" font-size="25.20" fill="#7FBF7F" stroke="none">LULUCF</text>
<polyline class="pl" points="910.8,420.0 912.4,419.9 913.8,419.8 915.2,419.7 916.4,419.4 917.6,419.1 918.8,418.8 919.8,418.4 920.8,418.0 921.7,417.6 922.7,417.1 923.5,416.6 924.4,416.0 925.2,415.5 926.0,415.0 926.8,414.4 927.6,413.9 928.4,413.3 929.3,412.8 930.1,412.3 931.1,411.8 932.0,411.4 933.0,411.0 934.0,410.6 935.2,410.2 936.4,410.0 937.6,409.7 939.0,409.6 940.4,409.4 942.0,409.4" stroke="#000" stroke-width="0.90" stroke-opacity="1.00" fill="none" />
<polyline class="pl" points="910.8,577.2 912.4,577.2 913.8,577.3 915.2,577.4 916.4,577.6 917.6,577.8 918.8,578.0 919.8,578.3 920.8,578.5 921.7,578.8 922.7,579.2 923.5,579.5 924.4,579.9 925.2,580.2 926.0,580.6 926.8,581.0 927.6,581.3 928.4,581.7 929.3,582.1 930.1,582.4 931.1,582.7 932.0,583.0 933.0,583.3 934.0,583.6 935.2,583.8 936.4,584.0 937.6,584.1 939.0,584.3 940.4,584.3 942.0,584.4" stroke="#FF7F61" stroke-width="0.90" stroke-opacity="1.00" fill="none" />
<polyline class="pl" points="910.8,566.5 912.4,566.4 913.8,566.4 915.2,566.2 916.4,566.1 917.6,565.9 918.8,565.7 919.8,565.4 920.8,565.1 921.7,564.8 922.7,564.5 923.5,564.1 924.4,563.8 925.2,563.4 926.0,563.1 926.8,562.7 927.6,562.3 928.4,562.0 929.3,561.6 930.1,561.3 931.1,560.9 932.0,560.6 933.0,560.4 934.0,560.1 935.2,559.9 936.4,559.7 937.6,559.5 939.0,559.4 940.4,559.3 942.0,559.3" stroke="#4A89E8" stroke-width="0.90" stroke-opacity="1.00" fill="none" />
<polyline class="pl" points="910.8,451.1 912.4,451.1 913.8,451.2 915.2,451.3 916.4,451.5 917.6,451.8 918.8,452.0 919.8,452.3 920.8,452.7 921.7,453.0 922.7,453.4 923.5,453.8 924.4,454.2 925.2,454.6 926.0,455.1 926.8,455.5 927.6,455.9 928.4,456.4 929.3,456.8 930.1,457.2 931.1,457.6 932.0,457.9 933.0,458.3 934.0,458.6 935.2,458.8 936.4,459.1 937.6,459.2 939.0,459.4 940.4,459.5 942.0,459.5" stroke="#DBA746" stroke-width="0.90" stroke-opacity="1.00" fill="none" />
<polyline class="pl" points="910.8,432.3 912.4,432.3 913.8,432.3 915.2,432.3 916.4,432.4 917.6,432.4 918.8,432.5 919.8,432.6 920.8,432.7 921.7,432.8 922.7,432.9 923.5,433.0 924.4,433.1 925.2,433.2 926.0,433.3 926.8,433.4 927.6,433.5 928.4,433.6 929.3,433.7 930.1,433.9 931.1,433.9 932.0,434.0 933.0,434.1 934.0,434.2 935.2,434.3 936.4,434.3 937.6,434.4 939.0,434.4 940.4,434.4 942.0,434.4" stroke="#7FBF7F" stroke-width="0.90" stroke-opacity="1.00" fill="none" />
<text transform="translate(160.0,666.1)" font-size="19.80" font-family="Helvetica" fill="#BFBFBF" stroke="none" xml:space="preserve">CICERO   &#9679;   Data: UNFCCC (2025)</text>
<g>
  <rect x="123.0" y="651.4" width="34" height="17" fill="#FFF" stroke="none" opacity="0.01"/>
  <g transform="translate(124.0,652.4) scale(0.24)">
  <g><circle fill="#FFF" cx="37.79" cy="28.5" r="28.84"/>
     <circle fill="none" cx="37.79" cy="28.5" r="28.84" stroke="#BFBFBF" stroke-width="5.5"/>
     <path fill="#BFBFBF" d="M37.16,23.19 l-4.29,2.23c-0.458-0.951-1.02-1.62-1.69-2c-0.667-0.38-1.29-0.571-1.86-0.571c-2.86,0-4.29,1.89-4.29,5.66 c0,1.71,0.36,3.08,1.09,4.11c0.724,1.03,1.79,1.54,3.2,1.54c1.87,0,3.18-0.915,3.94-2.74l3.94,2 c-0.838,1.56-2,2.79-3.49,3.69c-1.48,0.896-3.12,1.34-4.91,1.34c-2.86,0-5.16-0.875-6.92-2.63 c-1.75-1.75-2.63-4.19-2.63-7.31c0-3.05,0.886-5.47,2.66-7.26c1.77-1.79,4.01-2.69,6.72-2.69 C32.6,18.56,35.44,20.1,37.16,23.19z
              M55.61,23.19l-4.23,2.23c-0.457-0.951-1.02-1.62-1.69-2 c-0.668-0.38-1.31-0.571-1.91-0.571c-2.86,0-4.29,1.89-4.29,5.66c0,1.71,0.363,3.08,1.09,4.11 c0.723,1.03,1.79,1.54,3.2,1.54c1.87,0,3.18-0.915,3.94-2.74l4,2c-0.875,1.56-2.06,2.79-3.54,3.69 c-1.49,0.9-3.11,1.34-4.86,1.34c-2.9,0-5.21-0.875-6.94-2.63c-1.74-1.75-2.6-4.19-2.6-7.31 c0-3.05,0.885-5.47,2.66-7.26c1.77-1.79,4.01-2.69,6.71-2.69C51.12,18.56,53.944,20.1,55.61,23.19z"/>
  </g></g>
  <g transform="translate(140.2,652.4) scale(0.24)">
  <g><circle fill="#FFF" cx="37.79" cy="28.5" r="28.84"/>
     <circle fill="none" cx="37.79" cy="28.5" r="28.84" stroke="#BFBFBF" stroke-width="5.5"/>
     <path fill="#BFBFBF" d="M46.129,20.557v13.085h-3.656v15.542h-9.944V33.643h-3.656V20.557 c0-0.572,0.2-1.057,0.599-1.457c0.401-0.399,0.887-0.6,1.457-0.6h13.144c0.533,0,1.01,0.2,1.428,0.6 C45.918,19.5,46.129,19.986,46.129,20.557z
              M33.042,12.329c0-3.008,1.485-4.514,4.458-4.514s4.457,1.504,4.457,4.514 c0,2.971-1.486,4.457-4.457,4.457S33.042,15.3,33.042,12.329z"/>
  </g></g>
</g>
</g>
</svg>
