<svg version="1.1" xmlns="http://www.w3.org/2000/svg" xmlns:xlink="http://www.w3.org/1999/xlink" width="100%" height="100%" viewBox="0 0 1200.000 674.916">
<title>Annual Greenhouse Gas Emissions: Germany</title>
<style type="text/css">
  #main {font-family:Helvetica,Arial,sans-serif; font-size:27.00px;
         fill-opacity:1; fill:#000000; stroke:none; stroke-linejoin:round; stroke-linecap:round; stroke-width:1.00;}
  .marker {stroke-opacity:0;fill-opacity:0;}
  .marker:hover {stroke-opacity:0.5; fill-opacity:1;}
  .ticklabel {font-size:27.00px;fill:#808080;stroke:none;font-family:Helvetica}
  .ytl {text-anchor:end;}
  .dp1 {pointer-events:none;font-size:70%;text-anchor:middle;fill:#000000;}
  .dp2 {pointer-events:none;font-size:70%;text-anchor:middle;fill:#FFFFFF;}
  .numtip {pointer-events:none;}
  .cc {opacity:0.25;}
.dl_fe {background-color:#FDFFDF;display:flex;margin:auto;align-items:center}
.dl_fe_p {font-size:20px;text-align:center;margin:3px}
.dl_el {display:none;pointer-events:none;}
.cc:hover + .dl_el {display:block;}
text:hover + .dl_el {display:block;}
</style>
<defs>
  <clipPath id="axis_clip"><rect x="145.8" y="54.2" width="761.2" height="532.8" /></clipPath>
  <path id="line_y" d="M 0,53.993 v 533.183" stroke="#262626" stroke-opacity="0.15" stroke-width="1.00"/>
  <path id="line_x" d="M 145.600,0 h 761.600" stroke="#262626" stroke-opacity="0.15" stroke-width="1.00"/>
  <path id="tick_y" d="M 145.600,0 h -6.000" stroke="#808080" stroke-width="0.90"/>
  <path id="tick_x" d="M 0,587.177 v 6.000" stroke="#808080" stroke-width="0.90"/>
</defs>
<g id="main">
<use xlink:href="#line_y" transform="translate(157.1,0)"/>
<use xlink:href="#line_y" transform="translate(272.5,0)"/>
<use xlink:href="#line_y" transform="translate(387.9,0)"/>
<use xlink:href="#line_y" transform="translate(503.3,0)"/>
<use xlink:href="#line_y" transform="translate(618.7,0)"/>
<use xlink:href="#line_y" transform="translate(734.1,0)"/>
<use xlink:href="#line_y" transform="translate(895.7,0)"/>
<use xlink:href="#line_x" transform="translate(0,520.5)"/>
<use xlink:href="#line_x" transform="translate(0,387.2)"/>
<use xlink:href="#line_x" transform="translate(0,253.9)"/>
<use xlink:href="#line_x" transform="translate(0,120.6)"/>
<use xlink:href="#tick_y" transform="translate(0,520.5)"/>
<use xlink:href="#tick_y" transform="translate(0,387.2)"/>
<use xlink:href="#tick_y" transform="translate(0,253.9)"/>
<use xlink:href="#tick_y" transform="translate(0,120.6)"/>
<use xlink:href="#tick_x" transform="translate(157.1,0)"/>
<use xlink:href="#tick_x" transform="translate(272.5,0)"/>
<use xlink:href="#tick_x" transform="translate(387.9,0)"/>
<use xlink:href="#tick_x" transform="translate(503.3,0)"/>
<use xlink:href="#tick_x" transform="translate(618.7,0)"/>
<use xlink:href="#tick_x" transform="translate(734.1,0)"/>
<use xlink:href="#tick_x" transform="translate(895.7,0)"/>
<polyline points="145.6,53.993 145.6,587.177 907.2,587.177" stroke="#808080" stroke-width="0.90" fill="none"/>
<text class="ticklabel xtl" transform="translate(157.1,629.0)" text-anchor="middle">1990</text>
<text class="ticklabel xtl" transform="translate(272.5,629.0)" text-anchor="middle">1995</text>
<text class="ticklabel xtl" transform="translate(387.9,629.0)" text-anchor="middle">2000</text>
<text class="ticklabel xtl" transform="translate(503.3,629.0)" text-anchor="middle">2005</text>
<text class="ticklabel xtl" transform="translate(618.7,629.0)" text-anchor="middle">2010</text>
<text class="ticklabel xtl" transform="translate(734.1,629.0)" text-anchor="middle">2015</text>
<text class="ticklabel xtl" transform="translate(895.7,629.0)" text-anchor="middle">2022</text>
<text class="ticklabel ytl" transform="translate(128.8,528.6)">0</text>
<text class="ticklabel ytl" transform="translate(128.8,395.3)">0.4</text>
<text class="ticklabel ytl" transform="translate(128.8,262.0)">0.8</text>
<text class="ticklabel ytl" transform="translate(128.8,128.7)">1.2 Gt</text>
<g stroke="#000" stroke-width="0.90" fill="#7FBF7F"  clip-path="url(#axis_clip)">
  <polygon points="147.9,92.8 147.9,103.8 166.4,103.8 166.4,92.8 147.9,92.8"/>
  <polygon points="424.9,169.6 424.9,176.2 443.3,176.2 443.3,169.6 424.9,169.6"/>
  <polygon points="447.9,173.8 447.9,179.0 466.4,179.0 466.4,173.8 447.9,173.8"/>
  <polygon points="471.0,182.7 471.0,186.9 489.5,186.9 489.5,182.7 471.0,182.7"/>
  <polygon points="494.1,188.5 494.1,191.4 512.6,191.4 512.6,188.5 494.1,188.5"/>
  <polygon points="517.2,186.2 517.2,187.0 535.6,187.0 535.6,186.2 517.2,186.2"/>
  <polygon points="540.2,198.4 540.2,200.4 558.7,200.4 558.7,198.4 540.2,198.4"/>
  <polygon points="794.1,236.5 794.1,236.7 812.6,236.7 812.6,236.5 794.1,236.5"/>
  <polygon points="840.3,274.7 840.3,276.7 858.7,276.7 858.7,274.7 840.3,274.7"/>
  <polygon points="863.4,266.5 863.4,267.4 881.8,267.4 881.8,266.5 863.4,266.5"/>
  <polygon points="886.4,269.2 886.4,270.6 904.9,270.6 904.9,269.2 886.4,269.2"/>
</g>
<g stroke="#000" stroke-width="0.90" fill="#7FDEDE"  clip-path="url(#axis_clip)">
  <polygon points="147.9,103.8 147.9,117.6 166.4,117.6 166.4,103.8 147.9,103.8"/>
  <polygon points="171.0,119.1 171.0,133.4 189.4,133.4 189.4,119.1 171.0,119.1"/>
  <polygon points="194.1,135.6 194.1,150.2 212.5,150.2 212.5,135.6 194.1,135.6"/>
  <polygon points="217.1,138.7 217.1,153.1 235.6,153.1 235.6,138.7 217.1,138.7"/>
  <polygon points="240.2,144.7 240.2,158.8 258.7,158.8 258.7,144.7 240.2,144.7"/>
  <polygon points="263.3,147.1 263.3,160.8 281.8,160.8 281.8,147.1 263.3,147.1"/>
  <polygon points="286.4,141.3 286.4,154.4 304.8,154.4 304.8,141.3 286.4,141.3"/>
  <polygon points="309.5,153.3 309.5,165.2 327.9,165.2 327.9,153.3 309.5,153.3"/>
  <polygon points="332.5,161.4 332.5,172.6 351.0,172.6 351.0,161.4 332.5,161.4"/>
  <polygon points="355.6,172.8 355.6,183.3 374.1,183.3 374.1,172.8 355.6,172.8"/>
  <polygon points="378.7,173.8 378.7,183.7 397.2,183.7 397.2,173.8 378.7,173.8"/>
  <polygon points="401.8,168.9 401.8,178.1 420.2,178.1 420.2,168.9 401.8,168.9"/>
  <polygon points="424.9,176.2 424.9,184.8 443.3,184.8 443.3,176.2 424.9,176.2"/>
  <polygon points="447.9,179.0 447.9,187.1 466.4,187.1 466.4,179.0 447.9,179.0"/>
  <polygon points="471.0,186.9 471.0,194.0 489.5,194.0 489.5,186.9 471.0,186.9"/>
  <polygon points="494.1,191.4 494.1,198.1 512.6,198.1 512.6,191.4 494.1,191.4"/>
  <polygon points="517.2,187.0 517.2,192.9 535.6,192.9 535.6,187.0 517.2,187.0"/>
  <polygon points="540.2,200.4 540.2,205.8 558.7,205.8 558.7,200.4 540.2,200.4"/>
  <polygon points="563.3,197.8 563.3,202.7 581.8,202.7 581.8,197.8 563.3,197.8"/>
  <polygon points="586.4,220.7 586.4,225.2 604.9,225.2 604.9,220.7 586.4,220.7"/>
  <polygon points="609.5,211.3 609.5,215.4 627.9,215.4 627.9,211.3 609.5,211.3"/>
  <polygon points="632.6,219.2 632.6,222.9 651.0,222.9 651.0,219.2 632.6,219.2"/>
  <polygon points="655.6,215.8 655.6,219.3 674.1,219.3 674.1,215.8 655.6,215.8"/>
  <polygon points="678.7,210.1 678.7,213.4 697.2,213.4 697.2,210.1 678.7,210.1"/>
  <polygon points="701.8,223.6 701.8,226.7 720.3,226.7 720.3,223.6 701.8,223.6"/>
  <polygon points="724.9,220.8 724.9,223.6 743.3,223.6 743.3,220.8 724.9,220.8"/>
  <polygon points="748.0,222.4 748.0,225.0 766.4,225.0 766.4,222.4 748.0,222.4"/>
  <polygon points="771.0,227.3 771.0,229.8 789.5,229.8 789.5,227.3 771.0,227.3"/>
  <polygon points="794.1,236.7 794.1,239.1 812.6,239.1 812.6,236.7 794.1,236.7"/>
  <polygon points="817.2,255.0 817.2,257.2 835.7,257.2 835.7,255.0 817.2,255.0"/>
  <polygon points="840.3,276.7 840.3,278.7 858.7,278.7 858.7,276.7 840.3,276.7"/>
  <polygon points="863.4,267.4 863.4,269.3 881.8,269.3 881.8,267.4 863.4,267.4"/>
  <polygon points="886.4,270.6 886.4,272.5 904.9,272.5 904.9,270.6 886.4,270.6"/>
</g>
<g stroke="#000" stroke-width="0.90" fill="#DEDE7F"  clip-path="url(#axis_clip)">
  <polygon points="147.9,117.6 147.9,141.4 166.4,141.4 166.4,117.6 147.9,117.6"/>
  <polygon points="171.0,133.4 171.0,155.0 189.4,155.0 189.4,133.4 171.0,133.4"/>
  <polygon points="194.1,150.2 194.1,171.1 212.5,171.1 212.5,150.2 194.1,150.2"/>
  <polygon points="217.1,153.1 217.1,173.8 235.6,173.8 235.6,153.1 217.1,153.1"/>
  <polygon points="240.2,158.8 240.2,179.5 258.7,179.5 258.7,158.8 240.2,158.8"/>
  <polygon points="263.3,160.8 263.3,181.5 281.8,181.5 281.8,160.8 263.3,160.8"/>
  <polygon points="286.4,154.4 286.4,175.3 304.8,175.3 304.8,154.4 286.4,154.4"/>
  <polygon points="309.5,165.2 309.5,185.7 327.9,185.7 327.9,165.2 309.5,165.2"/>
  <polygon points="332.5,172.6 332.5,193.2 351.0,193.2 351.0,172.6 332.5,172.6"/>
  <polygon points="355.6,183.3 355.6,204.0 374.1,204.0 374.1,183.3 355.6,183.3"/>
  <polygon points="378.7,183.7 378.7,204.2 397.2,204.2 397.2,183.7 378.7,183.7"/>
  <polygon points="401.8,178.1 401.8,198.8 420.2,198.8 420.2,178.1 401.8,178.1"/>
  <polygon points="424.9,184.8 424.9,204.8 443.3,204.8 443.3,184.8 424.9,184.8"/>
  <polygon points="447.9,187.1 447.9,207.0 466.4,207.0 466.4,187.1 447.9,187.1"/>
  <polygon points="471.0,194.0 471.0,213.5 489.5,213.5 489.5,194.0 471.0,194.0"/>
  <polygon points="494.1,198.1 494.1,217.5 512.6,217.5 512.6,198.1 494.1,198.1"/>
  <polygon points="517.2,192.9 517.2,212.0 535.6,212.0 535.6,192.9 517.2,192.9"/>
  <polygon points="540.2,205.8 540.2,225.0 558.7,225.0 558.7,205.8 540.2,205.8"/>
  <polygon points="563.3,202.7 563.3,222.0 581.8,222.0 581.8,202.7 563.3,202.7"/>
  <polygon points="586.4,225.2 586.4,244.6 604.9,244.6 604.9,225.2 586.4,225.2"/>
  <polygon points="609.5,215.4 609.5,234.7 627.9,234.7 627.9,215.4 609.5,215.4"/>
  <polygon points="632.6,222.9 632.6,242.3 651.0,242.3 651.0,222.9 632.6,222.9"/>
  <polygon points="655.6,219.3 655.6,238.8 674.1,238.8 674.1,219.3 655.6,219.3"/>
  <polygon points="678.7,213.4 678.7,233.2 697.2,233.2 697.2,213.4 678.7,213.4"/>
  <polygon points="701.8,226.7 701.8,246.8 720.3,246.8 720.3,226.7 701.8,226.7"/>
  <polygon points="724.9,223.6 724.9,243.8 743.3,243.8 743.3,223.6 724.9,223.6"/>
  <polygon points="748.0,225.0 748.0,245.0 766.4,245.0 766.4,225.0 748.0,225.0"/>
  <polygon points="771.0,229.8 771.0,249.6 789.5,249.6 789.5,229.8 771.0,229.8"/>
  <polygon points="794.1,239.1 794.1,258.5 812.6,258.5 812.6,239.1 794.1,239.1"/>
  <polygon points="817.2,257.2 817.2,276.3 835.7,276.3 835.7,257.2 817.2,257.2"/>
  <polygon points="840.3,278.7 840.3,297.4 858.7,297.4 858.7,278.7 840.3,278.7"/>
  <polygon points="863.4,269.3 863.4,287.4 881.8,287.4 881.8,269.3 863.4,269.3"/>
  <polygon points="886.4,272.5 886.4,290.3 904.9,290.3 904.9,272.5 886.4,272.5"/>
</g>
<g stroke="#000" stroke-width="0.90" fill="#7F7FFF"  clip-path="url(#axis_clip)">
  <polygon points="147.9,141.4 147.9,172.5 166.4,172.5 166.4,141.4 147.9,141.4"/>
  <polygon points="171.0,155.0 171.0,184.8 189.4,184.8 189.4,155.0 171.0,155.0"/>
  <polygon points="194.1,171.1 194.1,201.0 212.5,201.0 212.5,171.1 194.1,171.1"/>
  <polygon points="217.1,173.8 217.1,204.1 235.6,204.1 235.6,173.8 217.1,173.8"/>
  <polygon points="240.2,179.5 240.2,211.6 258.7,211.6 258.7,179.5 240.2,179.5"/>
  <polygon points="263.3,181.5 263.3,213.0 281.8,213.0 281.8,181.5 263.3,181.5"/>
  <polygon points="286.4,175.3 286.4,206.2 304.8,206.2 304.8,175.3 286.4,175.3"/>
  <polygon points="309.5,185.7 309.5,216.9 327.9,216.9 327.9,185.7 309.5,185.7"/>
  <polygon points="332.5,193.2 332.5,220.2 351.0,220.2 351.0,193.2 332.5,193.2"/>
  <polygon points="355.6,204.0 355.6,228.5 374.1,228.5 374.1,204.0 355.6,204.0"/>
  <polygon points="378.7,204.2 378.7,229.7 397.2,229.7 397.2,204.2 378.7,204.2"/>
  <polygon points="401.8,198.8 401.8,223.2 420.2,223.2 420.2,198.8 401.8,198.8"/>
  <polygon points="424.9,204.8 424.9,228.6 443.3,228.6 443.3,204.8 424.9,204.8"/>
  <polygon points="447.9,207.0 447.9,231.7 466.4,231.7 466.4,207.0 447.9,207.0"/>
  <polygon points="471.0,213.5 471.0,238.8 489.5,238.8 489.5,213.5 471.0,213.5"/>
  <polygon points="494.1,217.5 494.1,241.7 512.6,241.7 512.6,217.5 494.1,217.5"/>
  <polygon points="517.2,212.0 517.2,236.3 535.6,236.3 535.6,212.0 517.2,212.0"/>
  <polygon points="540.2,225.0 540.2,250.4 558.7,250.4 558.7,225.0 540.2,225.0"/>
  <polygon points="563.3,222.0 563.3,246.0 581.8,246.0 581.8,222.0 563.3,222.0"/>
  <polygon points="586.4,244.6 586.4,265.9 604.9,265.9 604.9,244.6 586.4,244.6"/>
  <polygon points="609.5,234.7 609.5,255.3 627.9,255.3 627.9,234.7 609.5,234.7"/>
  <polygon points="632.6,242.3 632.6,263.3 651.0,263.3 651.0,242.3 632.6,242.3"/>
  <polygon points="655.6,238.8 655.6,258.9 674.1,258.9 674.1,238.8 655.6,238.8"/>
  <polygon points="678.7,233.2 678.7,253.2 697.2,253.2 697.2,233.2 678.7,233.2"/>
  <polygon points="701.8,246.8 701.8,267.0 720.3,267.0 720.3,246.8 701.8,246.8"/>
  <polygon points="724.9,243.8 724.9,263.7 743.3,263.7 743.3,243.8 724.9,243.8"/>
  <polygon points="748.0,245.0 748.0,265.5 766.4,265.5 766.4,245.0 748.0,245.0"/>
  <polygon points="771.0,249.6 771.0,271.4 789.5,271.4 789.5,249.6 771.0,249.6"/>
  <polygon points="794.1,258.5 794.1,279.3 812.6,279.3 812.6,258.5 794.1,258.5"/>
  <polygon points="817.2,276.3 817.2,296.0 835.7,296.0 835.7,276.3 817.2,276.3"/>
  <polygon points="840.3,297.4 840.3,315.8 858.7,315.8 858.7,297.4 840.3,297.4"/>
  <polygon points="863.4,287.4 863.4,306.4 881.8,306.4 881.8,287.4 863.4,287.4"/>
  <polygon points="886.4,290.3 886.4,307.6 904.9,307.6 904.9,290.3 886.4,290.3"/>
</g>
<g stroke="#000" stroke-width="0.90" fill="#FF7F7F"  clip-path="url(#axis_clip)">
  <polygon points="147.9,172.5 147.9,520.5 166.4,520.5 166.4,172.5 147.9,172.5"/>
  <polygon points="171.0,184.8 171.0,520.5 189.4,520.5 189.4,184.8 171.0,184.8"/>
  <polygon points="194.1,201.0 194.1,520.5 212.5,520.5 212.5,201.0 194.1,201.0"/>
  <polygon points="217.1,204.1 217.1,520.5 235.6,520.5 235.6,204.1 217.1,204.1"/>
  <polygon points="240.2,211.6 240.2,520.5 258.7,520.5 258.7,211.6 240.2,211.6"/>
  <polygon points="263.3,213.0 263.3,520.5 281.8,520.5 281.8,213.0 263.3,213.0"/>
  <polygon points="286.4,206.2 286.4,520.5 304.8,520.5 304.8,206.2 286.4,206.2"/>
  <polygon points="309.5,216.9 309.5,520.5 327.9,520.5 327.9,216.9 309.5,216.9"/>
  <polygon points="332.5,220.2 332.5,520.5 351.0,520.5 351.0,220.2 332.5,220.2"/>
  <polygon points="355.6,228.5 355.6,520.5 374.1,520.5 374.1,228.5 355.6,228.5"/>
  <polygon points="378.7,229.7 378.7,520.5 397.2,520.5 397.2,229.7 378.7,229.7"/>
  <polygon points="401.8,223.2 401.8,520.5 420.2,520.5 420.2,223.2 401.8,223.2"/>
  <polygon points="424.9,228.6 424.9,520.5 443.3,520.5 443.3,228.6 424.9,228.6"/>
  <polygon points="447.9,231.7 447.9,520.5 466.4,520.5 466.4,231.7 447.9,231.7"/>
  <polygon points="471.0,238.8 471.0,520.5 489.5,520.5 489.5,238.8 471.0,238.8"/>
  <polygon points="494.1,241.7 494.1,520.5 512.6,520.5 512.6,241.7 494.1,241.7"/>
  <polygon points="517.2,236.3 517.2,520.5 535.6,520.5 535.6,236.3 517.2,236.3"/>
  <polygon points="540.2,250.4 540.2,520.5 558.7,520.5 558.7,250.4 540.2,250.4"/>
  <polygon points="563.3,246.0 563.3,520.5 581.8,520.5 581.8,246.0 563.3,246.0"/>
  <polygon points="586.4,265.9 586.4,520.5 604.9,520.5 604.9,265.9 586.4,265.9"/>
  <polygon points="609.5,255.3 609.5,520.5 627.9,520.5 627.9,255.3 609.5,255.3"/>
  <polygon points="632.6,263.3 632.6,520.5 651.0,520.5 651.0,263.3 632.6,263.3"/>
  <polygon points="655.6,258.9 655.6,520.5 674.1,520.5 674.1,258.9 655.6,258.9"/>
  <polygon points="678.7,253.2 678.7,520.5 697.2,520.5 697.2,253.2 678.7,253.2"/>
  <polygon points="701.8,267.0 701.8,520.5 720.3,520.5 720.3,267.0 701.8,267.0"/>
  <polygon points="724.9,263.7 724.9,520.5 743.3,520.5 743.3,263.7 724.9,263.7"/>
  <polygon points="748.0,265.5 748.0,520.5 766.4,520.5 766.4,265.5 748.0,265.5"/>
  <polygon points="771.0,271.4 771.0,520.5 789.5,520.5 789.5,271.4 771.0,271.4"/>
  <polygon points="794.1,279.3 794.1,520.5 812.6,520.5 812.6,279.3 794.1,279.3"/>
  <polygon points="817.2,296.0 817.2,520.5 835.7,520.5 835.7,296.0 817.2,296.0"/>
  <polygon points="840.3,315.8 840.3,520.5 858.7,520.5 858.7,315.8 840.3,315.8"/>
  <polygon points="863.4,306.4 863.4,520.5 881.8,520.5 881.8,306.4 863.4,306.4"/>
  <polygon points="886.4,307.6 886.4,520.5 904.9,520.5 904.9,307.6 886.4,307.6"/>
</g>
<g stroke="#000" stroke-width="0.90" fill="#7FBF7F"  clip-path="url(#axis_clip)">
  <polygon points="171.0,529.0 171.0,520.5 189.4,520.5 189.4,529.0 171.0,529.0"/>
  <polygon points="194.1,531.0 194.1,520.5 212.5,520.5 212.5,531.0 194.1,531.0"/>
  <polygon points="217.1,530.8 217.1,520.5 235.6,520.5 235.6,530.8 217.1,530.8"/>
  <polygon points="240.2,529.0 240.2,520.5 258.7,520.5 258.7,529.0 240.2,529.0"/>
  <polygon points="263.3,526.8 263.3,520.5 281.8,520.5 281.8,526.8 263.3,526.8"/>
  <polygon points="286.4,527.9 286.4,520.5 304.8,520.5 304.8,527.9 286.4,527.9"/>
  <polygon points="309.5,527.7 309.5,520.5 327.9,520.5 327.9,527.7 309.5,527.7"/>
  <polygon points="332.5,527.5 332.5,520.5 351.0,520.5 351.0,527.5 332.5,527.5"/>
  <polygon points="355.6,528.5 355.6,520.5 374.1,520.5 374.1,528.5 355.6,528.5"/>
  <polygon points="378.7,521.8 378.7,520.5 397.2,520.5 397.2,521.8 378.7,521.8"/>
  <polygon points="401.8,524.9 401.8,520.5 420.2,520.5 420.2,524.9 401.8,524.9"/>
  <polygon points="563.3,522.5 563.3,520.5 581.8,520.5 581.8,522.5 563.3,522.5"/>
  <polygon points="586.4,524.0 586.4,520.5 604.9,520.5 604.9,524.0 586.4,524.0"/>
  <polygon points="609.5,520.9 609.5,520.5 627.9,520.5 627.9,520.9 609.5,520.9"/>
  <polygon points="632.6,523.3 632.6,520.5 651.0,520.5 651.0,523.3 632.6,523.3"/>
  <polygon points="655.6,525.8 655.6,520.5 674.1,520.5 674.1,525.8 655.6,525.8"/>
  <polygon points="678.7,525.2 678.7,520.5 697.2,520.5 697.2,525.2 678.7,525.2"/>
  <polygon points="701.8,522.6 701.8,520.5 720.3,520.5 720.3,522.6 701.8,522.6"/>
  <polygon points="724.9,523.1 724.9,520.5 743.3,520.5 743.3,523.1 724.9,523.1"/>
  <polygon points="748.0,523.8 748.0,520.5 766.4,520.5 766.4,523.8 748.0,523.8"/>
  <polygon points="771.0,522.6 771.0,520.5 789.5,520.5 789.5,522.6 771.0,522.6"/>
  <polygon points="817.2,521.3 817.2,520.5 835.7,520.5 835.7,521.3 817.2,521.3"/>
</g>
<g stroke="#000" stroke-width="0.90" fill="#7FDEDE"  clip-path="url(#axis_clip)">
</g>
<g stroke="#000" stroke-width="0.90" fill="#DEDE7F"  clip-path="url(#axis_clip)">
</g>
<g stroke="#000" stroke-width="0.90" fill="#7F7FFF"  clip-path="url(#axis_clip)">
</g>
<g stroke="#000" stroke-width="0.90" fill="#FF7F7F"  clip-path="url(#axis_clip)">
</g>
<polyline class="pl" points="157.1,92.8 180.2,127.5 203.3,146.0 226.4,148.9 249.5,153.1 272.5,153.3 295.6,148.7 318.7,160.4 341.8,168.4 364.8,180.8 387.9,175.1 411.0,173.3 434.1,169.6 457.2,173.8 480.2,182.7 503.3,188.5 526.4,186.2 549.5,198.4 572.6,199.7 595.6,224.2 618.7,211.7 641.8,222.0 664.9,221.1 688.0,214.8 711.0,225.7 734.1,223.4 757.2,225.6 780.3,229.4 803.3,236.5 826.4,255.8 849.5,274.7 872.6,266.5 895.7,269.2" stroke="#000" stroke-width="5.40" stroke-opacity="1.00" fill="none" clip-path="url(#axis_clip)"/>
<g class="pl" fill="#FFF" stroke="#000" stroke-width="0.900">
  <circle cx="180.2" cy="127.5" r="2.2" />
  <circle cx="203.3" cy="146.0" r="2.2" />
  <circle cx="226.4" cy="148.9" r="2.2" />
  <circle cx="249.5" cy="153.1" r="2.2" />
  <circle cx="272.5" cy="153.3" r="2.2" />
  <circle cx="295.6" cy="148.7" r="2.2" />
  <circle cx="318.7" cy="160.4" r="2.2" />
  <circle cx="341.8" cy="168.4" r="2.2" />
  <circle cx="364.8" cy="180.8" r="2.2" />
  <circle cx="411.0" cy="173.3" r="2.2" />
  <circle cx="434.1" cy="169.6" r="2.2" />
  <circle cx="457.2" cy="173.8" r="2.2" />
  <circle cx="480.2" cy="182.7" r="2.2" />
  <circle cx="503.3" cy="188.5" r="2.2" />
  <circle cx="526.4" cy="186.2" r="2.2" />
  <circle cx="549.5" cy="198.4" r="2.2" />
  <circle cx="572.6" cy="199.7" r="2.2" />
  <circle cx="595.6" cy="224.2" r="2.2" />
  <circle cx="641.8" cy="222.0" r="2.2" />
  <circle cx="664.9" cy="221.1" r="2.2" />
  <circle cx="688.0" cy="214.8" r="2.2" />
  <circle cx="711.0" cy="225.7" r="2.2" />
  <circle cx="734.1" cy="223.4" r="2.2" />
  <circle cx="757.2" cy="225.6" r="2.2" />
  <circle cx="780.3" cy="229.4" r="2.2" />
  <circle cx="803.3" cy="236.5" r="2.2" />
  <circle cx="826.4" cy="255.8" r="2.2" />
  <circle cx="872.6" cy="266.5" r="2.2" />
  <circle cx="895.7" cy="269.2" r="2.2" />
</g>
<g class="pl" fill="#FFF" stroke="#000" stroke-width="0.900">
  <circle cx="157.1" cy="92.8" r="5.4" />
  <circle cx="387.9" cy="175.1" r="5.4" />
  <circle cx="618.7" cy="211.7" r="5.4" />
  <circle cx="849.5" cy="274.7" r="5.4" />
</g>
<text transform="translate(145.6,47.2)" dy="0.0" font-size="27.00" fill="#808080" stroke="none">Annual Greenhouse Gas Emissions: Germany</text>
<text transform="translate(130.0,148.3)" dy="8.1" font-size="27.00" fill="#808080" stroke="none" text-anchor="end">CO<tspan dy="0.2em"><tspan style="font-size:70%">2</tspan></tspan><tspan dy="-0.2em">e</tspan></text>
<text transform="translate(945.6,228.1)" dy="7.6" font-size="25.20" fill="#000" stroke="none">-41.2% since 1990</text>
<text transform="translate(945.6,414.1)" dy="7.6" font-size="25.20" fill="#FF7F7F" stroke="none">Energy</text>
<text transform="translate(945.6,328.3)" dy="7.6" font-size="25.20" fill="#7F7FFF" stroke="none">Industrial Processes</text>
<text transform="translate(945.6,303.2)" dy="7.6" font-size="25.20" fill="#DEDE7F" stroke="none">Agriculture</text>
<text transform="translate(945.6,278.2)" dy="7.6" font-size="25.20" fill="#7FDEDE" stroke="none">Waste</text>
<text transform="translate(945.6,253.1)" dy="7.6" font-size="25.20" fill="#7FBF7F" stroke="none">LULUCF</text>
<text transform="translate(945.6,520.9)" dy="7.6" font-size="25.20" fill="#7FBF7F" stroke="none">LULUCF</text>
<polyline class="pl" points="910.8,269.2 912.4,269.0 913.8,268.6 915.2,267.9 916.4,267.0 917.6,265.9 918.8,264.6 919.8,263.1 920.8,261.5 921.7,259.7 922.7,257.9 923.5,255.9 924.4,253.9 925.2,251.8 926.0,249.7 926.8,247.6 927.6,245.5 928.4,243.4 929.3,241.3 930.1,239.4 931.1,237.5 932.0,235.8 933.0,234.1 934.0,232.6 935.2,231.3 936.4,230.2 937.6,229.3 939.0,228.7 940.4,228.2 942.0,228.1" stroke="#000" stroke-width="0.90" stroke-opacity="1.00" fill="none" />
<polyline class="pl" points="910.8,298.9 912.4,299.1 913.8,299.3 915.2,299.8 916.4,300.5 917.6,301.3 918.8,302.2 919.8,303.2 920.8,304.4 921.7,305.7 922.7,307.0 923.5,308.4 924.4,309.9 925.2,311.3 926.0,312.8 926.8,314.4 927.6,315.9 928.4,317.4 929.3,318.8 930.1,320.2 931.1,321.5 932.0,322.8 933.0,324.0 934.0,325.0 935.2,326.0 936.4,326.7 937.6,327.4 939.0,327.9 940.4,328.2 942.0,328.3" stroke="#7F7FFF" stroke-width="0.90" stroke-opacity="1.00" fill="none" />
<polyline class="pl" points="910.8,281.4 912.4,281.5 913.8,281.7 915.2,282.0 916.4,282.5 917.6,283.1 918.8,283.8 919.8,284.6 920.8,285.5 921.7,286.4 922.7,287.4 923.5,288.4 924.4,289.5 925.2,290.6 926.0,291.7 926.8,292.9 927.6,294.0 928.4,295.1 929.3,296.2 930.1,297.2 931.1,298.2 932.0,299.2 933.0,300.0 934.0,300.8 935.2,301.5 936.4,302.1 937.6,302.6 939.0,302.9 940.4,303.1 942.0,303.2" stroke="#DEDE7F" stroke-width="0.90" stroke-opacity="1.00" fill="none" />
<polyline class="pl" points="910.8,271.6 912.4,271.6 913.8,271.6 915.2,271.8 916.4,271.9 917.6,272.1 918.8,272.3 919.8,272.5 920.8,272.8 921.7,273.1 922.7,273.4 923.5,273.7 924.4,274.0 925.2,274.4 926.0,274.7 926.8,275.0 927.6,275.4 928.4,275.7 929.3,276.0 930.1,276.4 931.1,276.7 932.0,276.9 933.0,277.2 934.0,277.5 935.2,277.7 936.4,277.8 937.6,278.0 939.0,278.1 940.4,278.2 942.0,278.2" stroke="#7FDEDE" stroke-width="0.90" stroke-opacity="1.00" fill="none" />
<polyline class="pl" points="910.8,269.9 912.4,269.8 913.8,269.7 915.2,269.4 916.4,269.0 917.6,268.6 918.8,268.0 919.8,267.4 920.8,266.8 921.7,266.0 922.7,265.3 923.5,264.5 924.4,263.7 925.2,262.8 926.0,261.9 926.8,261.1 927.6,260.2 928.4,259.4 929.3,258.5 930.1,257.7 931.1,257.0 932.0,256.3 933.0,255.6 934.0,255.0 935.2,254.5 936.4,254.0 937.6,253.6 939.0,253.4 940.4,253.2 942.0,253.1" stroke="#7FBF7F" stroke-width="0.90" stroke-opacity="1.00" fill="none" />
<text transform="translate(160.0,666.1)" font-size="19.80" font-family="Helvetica" fill="#BFBFBF" stroke="none" xml:space="preserve">CICERO   &#9679;   Data: UNFCCC (2024)</text>
<g>
  <rect x="123.0" y="651.4" width="34" height="17" fill="#FFF" stroke="none"/>
  <g transform="translate(124.0,652.4) scale(0.24)">
  <g><circle fill="#FFF" cx="37.79" cy="28.5" r="28.84"/>
     <circle fill="none" cx="37.79" cy="28.5" r="28.84" stroke="#BFBFBF" stroke-width="5.5"/>
     <path fill="#BFBFBF" d="M37.16,23.19 l-4.29,2.23c-0.458-0.951-1.02-1.62-1.69-2c-0.667-0.38-1.29-0.571-1.86-0.571c-2.86,0-4.29,1.89-4.29,5.66 c0,1.71,0.36,3.08,1.09,4.11c0.724,1.03,1.79,1.54,3.2,1.54c1.87,0,3.18-0.915,3.94-2.74l3.94,2 c-0.838,1.56-2,2.79-3.49,3.69c-1.48,0.896-3.12,1.34-4.91,1.34c-2.86,0-5.16-0.875-6.92-2.63 c-1.75-1.75-2.63-4.19-2.63-7.31c0-3.05,0.886-5.47,2.66-7.26c1.77-1.79,4.01-2.69,6.72-2.69 C32.6,18.56,35.44,20.1,37.16,23.19z
              M55.61,23.19l-4.23,2.23c-0.457-0.951-1.02-1.62-1.69-2 c-0.668-0.38-1.31-0.571-1.91-0.571c-2.86,0-4.29,1.89-4.29,5.66c0,1.71,0.363,3.08,1.09,4.11 c0.723,1.03,1.79,1.54,3.2,1.54c1.87,0,3.18-0.915,3.94-2.74l4,2c-0.875,1.56-2.06,2.79-3.54,3.69 c-1.49,0.9-3.11,1.34-4.86,1.34c-2.9,0-5.21-0.875-6.94-2.63c-1.74-1.75-2.6-4.19-2.6-7.31 c0-3.05,0.885-5.47,2.66-7.26c1.77-1.79,4.01-2.69,6.71-2.69C51.12,18.56,53.944,20.1,55.61,23.19z"/>
  </g></g>
  <g transform="translate(140.2,652.4) scale(0.24)">
  <g><circle fill="#FFF" cx="37.79" cy="28.5" r="28.84"/>
     <circle fill="none" cx="37.79" cy="28.5" r="28.84" stroke="#BFBFBF" stroke-width="5.5"/>
     <path fill="#BFBFBF" d="M46.129,20.557v13.085h-3.656v15.542h-9.944V33.643h-3.656V20.557 c0-0.572,0.2-1.057,0.599-1.457c0.401-0.399,0.887-0.6,1.457-0.6h13.144c0.533,0,1.01,0.2,1.428,0.6 C45.918,19.5,46.129,19.986,46.129,20.557z
              M33.042,12.329c0-3.008,1.485-4.514,4.458-4.514s4.457,1.504,4.457,4.514 c0,2.971-1.486,4.457-4.457,4.457S33.042,15.3,33.042,12.329z"/>
  </g></g>
</g>
</g>
</svg>
