<svg version="1.1" xmlns="http://www.w3.org/2000/svg" xmlns:xlink="http://www.w3.org/1999/xlink" width="100%" height="100%" viewBox="0 0 1200.000 674.916">
<title>Annual Greenhouse Gas Emissions: Peru</title>
<style type="text/css">
  #main {font-family:Helvetica,Arial,sans-serif; font-size:27.00px;
         fill-opacity:1; fill:#000000; stroke:none; stroke-linejoin:round; stroke-linecap:round; stroke-width:1.00;}
  .marker {stroke-opacity:0;fill-opacity:0;}
  .marker:hover {stroke-opacity:0.5; fill-opacity:1;}
  .ticklabel {font-size:27.00px;fill:#808080;stroke:none;font-family:Helvetica}
  .ytl {text-anchor:end;}
  .dp1 {pointer-events:none;font-size:70%;text-anchor:middle;fill:#000000;}
  .dp2 {pointer-events:none;font-size:70%;text-anchor:middle;fill:#FFFFFF;}
  .numtip {pointer-events:none;}
  .cc {opacity:0.25;}
.dl_fe {background-color:#FDFFDF;display:flex;margin:auto;align-items:center}
.dl_fe_p {font-size:20px;text-align:center;margin:3px}
.dl_el {display:none;pointer-events:none;}
.cc:hover + .dl_el {display:block;}
text:hover + .dl_el {display:block;}
</style>
<defs>
  <clipPath id="axis_clip"><rect x="145.8" y="54.2" width="761.2" height="532.8" /></clipPath>
  <path id="line_y" d="M 0,53.993 v 533.183" stroke="#262626" stroke-opacity="0.15" stroke-width="1.00"/>
  <path id="line_x" d="M 145.600,0 h 761.600" stroke="#262626" stroke-opacity="0.15" stroke-width="1.00"/>
  <path id="tick_y" d="M 145.600,0 h -6.000" stroke="#808080" stroke-width="0.90"/>
  <path id="tick_x" d="M 0,587.177 v 6.000" stroke="#808080" stroke-width="0.90"/>
</defs>
<g id="main">
<use xlink:href="#line_y" transform="translate(162.9,0)"/>
<use xlink:href="#line_y" transform="translate(336.0,0)"/>
<use xlink:href="#line_y" transform="translate(509.1,0)"/>
<use xlink:href="#line_y" transform="translate(682.2,0)"/>
<use xlink:href="#line_y" transform="translate(889.9,0)"/>
<use xlink:href="#line_x" transform="translate(0,587.2)"/>
<use xlink:href="#line_x" transform="translate(0,480.5)"/>
<use xlink:href="#line_x" transform="translate(0,373.9)"/>
<use xlink:href="#line_x" transform="translate(0,267.3)"/>
<use xlink:href="#line_x" transform="translate(0,160.6)"/>
<use xlink:href="#line_x" transform="translate(0,54.0)"/>
<use xlink:href="#tick_y" transform="translate(0,587.2)"/>
<use xlink:href="#tick_y" transform="translate(0,480.5)"/>
<use xlink:href="#tick_y" transform="translate(0,373.9)"/>
<use xlink:href="#tick_y" transform="translate(0,267.3)"/>
<use xlink:href="#tick_y" transform="translate(0,160.6)"/>
<use xlink:href="#tick_y" transform="translate(0,54.0)"/>
<use xlink:href="#tick_x" transform="translate(162.9,0)"/>
<use xlink:href="#tick_x" transform="translate(336.0,0)"/>
<use xlink:href="#tick_x" transform="translate(509.1,0)"/>
<use xlink:href="#tick_x" transform="translate(682.2,0)"/>
<use xlink:href="#tick_x" transform="translate(889.9,0)"/>
<polyline points="145.6,53.993 145.6,587.177 907.2,587.177" stroke="#808080" stroke-width="0.90" fill="none"/>
<text class="ticklabel xtl" transform="translate(162.9,629.0)" text-anchor="middle">2000</text>
<text class="ticklabel xtl" transform="translate(336.0,629.0)" text-anchor="middle">2005</text>
<text class="ticklabel xtl" transform="translate(509.1,629.0)" text-anchor="middle">2010</text>
<text class="ticklabel xtl" transform="translate(682.2,629.0)" text-anchor="middle">2015</text>
<text class="ticklabel xtl" transform="translate(889.9,629.0)" text-anchor="middle">2021</text>
<text class="ticklabel ytl" transform="translate(128.8,595.3)">0</text>
<text class="ticklabel ytl" transform="translate(128.8,488.6)">50</text>
<text class="ticklabel ytl" transform="translate(128.8,382.0)">100</text>
<text class="ticklabel ytl" transform="translate(128.8,275.4)">150</text>
<text class="ticklabel ytl" transform="translate(128.8,168.7)">200</text>
<text class="ticklabel ytl" transform="translate(128.8,62.1)">250 Mt</text>
<g stroke="#000" stroke-width="0.90" fill="#7FBF7F"  clip-path="url(#axis_clip)">
  <polygon class="pl" points="495.2,222.1 495.2,388.1 522.9,388.1 522.9,222.1 495.2,222.1"/>
  <polygon class="pl" points="529.9,238.3 529.9,394.8 557.6,394.8 557.6,238.3 529.9,238.3"/>
  <polygon class="pl" points="564.5,217.4 564.5,393.6 592.2,393.6 592.2,217.4 564.5,217.4"/>
  <polygon class="pl" points="599.1,188.5 599.1,391.6 626.8,391.6 626.8,188.5 599.1,188.5"/>
  <polygon class="pl" points="633.7,176.8 633.7,380.1 661.4,380.1 661.4,176.8 633.7,176.8"/>
  <polygon class="pl" points="668.3,180.3 668.3,378.6 696.0,378.6 696.0,180.3 668.3,180.3"/>
  <polygon class="pl" points="703.0,196.1 703.0,372.0 730.6,372.0 730.6,196.1 703.0,196.1"/>
  <polygon class="pl" points="737.6,175.2 737.6,371.3 765.3,371.3 765.3,175.2 737.6,175.2"/>
  <polygon class="pl" points="772.2,150.2 772.2,370.2 799.9,370.2 799.9,150.2 772.2,150.2"/>
  <polygon class="pl" points="806.8,134.1 806.8,360.9 834.5,360.9 834.5,134.1 806.8,134.1"/>
  <polygon class="pl" points="841.4,133.4 841.4,386.2 869.1,386.2 869.1,133.4 841.4,133.4"/>
  <polygon class="pl" points="876.0,171.5 876.0,352.4 903.7,352.4 903.7,171.5 876.0,171.5"/>
</g>
<g stroke="#000" stroke-width="0.90" fill="#DBA746"  clip-path="url(#axis_clip)">
  <polygon class="pl" points="149.1,437.6 149.1,437.7 176.8,437.7 176.8,437.6 149.1,437.6"/>
  <polygon class="pl" points="183.7,438.4 183.7,438.5 211.4,438.5 211.4,438.4 183.7,438.4"/>
  <polygon class="pl" points="218.3,433.9 218.3,434.0 246.0,434.0 246.0,433.9 218.3,433.9"/>
  <polygon class="pl" points="252.9,431.8 252.9,431.9 280.6,431.9 280.6,431.8 252.9,431.8"/>
  <polygon class="pl" points="287.5,428.9 287.5,429.0 315.2,429.0 315.2,428.9 287.5,428.9"/>
  <polygon class="pl" points="322.2,422.2 322.2,422.3 349.8,422.3 349.8,422.2 322.2,422.2"/>
  <polygon class="pl" points="356.8,423.6 356.8,423.7 384.5,423.7 384.5,423.6 356.8,423.6"/>
  <polygon class="pl" points="391.4,406.0 391.4,406.1 419.1,406.1 419.1,406.0 391.4,406.0"/>
  <polygon class="pl" points="426.0,411.3 426.0,411.5 453.7,411.5 453.7,411.3 426.0,411.3"/>
  <polygon class="pl" points="460.6,399.4 460.6,399.6 488.3,399.6 488.3,399.4 460.6,399.4"/>
  <polygon class="pl" points="495.2,388.1 495.2,388.4 522.9,388.4 522.9,388.1 495.2,388.1"/>
  <polygon class="pl" points="529.9,394.8 529.9,395.1 557.6,395.1 557.6,394.8 529.9,394.8"/>
  <polygon class="pl" points="564.5,393.6 564.5,394.0 592.2,394.0 592.2,393.6 564.5,393.6"/>
  <polygon class="pl" points="599.1,391.6 599.1,392.2 626.8,392.2 626.8,391.6 599.1,391.6"/>
  <polygon class="pl" points="633.7,380.1 633.7,380.8 661.4,380.8 661.4,380.1 633.7,380.1"/>
  <polygon class="pl" points="668.3,378.6 668.3,379.4 696.0,379.4 696.0,378.6 668.3,378.6"/>
  <polygon class="pl" points="703.0,372.0 703.0,373.1 730.6,373.1 730.6,372.0 703.0,372.0"/>
  <polygon class="pl" points="737.6,371.3 737.6,372.7 765.3,372.7 765.3,371.3 737.6,371.3"/>
  <polygon class="pl" points="772.2,370.2 772.2,371.8 799.9,371.8 799.9,370.2 772.2,370.2"/>
  <polygon class="pl" points="806.8,360.9 806.8,362.9 834.5,362.9 834.5,360.9 806.8,360.9"/>
  <polygon class="pl" points="841.4,386.2 841.4,388.6 869.1,388.6 869.1,386.2 841.4,386.2"/>
  <polygon class="pl" points="876.0,352.4 876.0,354.9 903.7,354.9 903.7,352.4 876.0,352.4"/>
</g>
<g stroke="#000" stroke-width="0.90" fill="#845F48"  clip-path="url(#axis_clip)">
  <polygon class="pl" points="149.1,437.7 149.1,458.3 176.8,458.3 176.8,437.7 149.1,437.7"/>
  <polygon class="pl" points="183.7,438.5 183.7,459.4 211.4,459.4 211.4,438.5 183.7,438.5"/>
  <polygon class="pl" points="218.3,434.0 218.3,455.5 246.0,455.5 246.0,434.0 218.3,434.0"/>
  <polygon class="pl" points="252.9,431.9 252.9,453.6 280.6,453.6 280.6,431.9 252.9,431.9"/>
  <polygon class="pl" points="287.5,429.0 287.5,450.7 315.2,450.7 315.2,429.0 287.5,429.0"/>
  <polygon class="pl" points="322.2,422.3 322.2,443.8 349.8,443.8 349.8,422.3 322.2,422.3"/>
  <polygon class="pl" points="356.8,423.7 356.8,445.8 384.5,445.8 384.5,423.7 356.8,423.7"/>
  <polygon class="pl" points="391.4,406.1 391.4,429.2 419.1,429.2 419.1,406.1 391.4,406.1"/>
  <polygon class="pl" points="426.0,411.5 426.0,434.3 453.7,434.3 453.7,411.5 426.0,411.5"/>
  <polygon class="pl" points="460.6,399.6 460.6,423.4 488.3,423.4 488.3,399.6 460.6,399.6"/>
  <polygon class="pl" points="495.2,388.4 495.2,411.9 522.9,411.9 522.9,388.4 495.2,388.4"/>
  <polygon class="pl" points="529.9,395.1 529.9,419.3 557.6,419.3 557.6,395.1 529.9,395.1"/>
  <polygon class="pl" points="564.5,394.0 564.5,418.3 592.2,418.3 592.2,394.0 564.5,394.0"/>
  <polygon class="pl" points="599.1,392.2 599.1,416.4 626.8,416.4 626.8,392.2 599.1,392.2"/>
  <polygon class="pl" points="633.7,380.8 633.7,405.1 661.4,405.1 661.4,380.8 633.7,380.8"/>
  <polygon class="pl" points="668.3,379.4 668.3,404.2 696.0,404.2 696.0,379.4 668.3,379.4"/>
  <polygon class="pl" points="703.0,373.1 703.0,397.5 730.6,397.5 730.6,373.1 703.0,373.1"/>
  <polygon class="pl" points="737.6,372.7 737.6,397.8 765.3,397.8 765.3,372.7 737.6,372.7"/>
  <polygon class="pl" points="772.2,371.8 772.2,396.3 799.9,396.3 799.9,371.8 772.2,371.8"/>
  <polygon class="pl" points="806.8,362.9 806.8,388.6 834.5,388.6 834.5,362.9 806.8,362.9"/>
  <polygon class="pl" points="841.4,388.6 841.4,414.0 869.1,414.0 869.1,388.6 841.4,388.6"/>
  <polygon class="pl" points="876.0,354.9 876.0,381.1 903.7,381.1 903.7,354.9 876.0,354.9"/>
</g>
<g stroke="#000" stroke-width="0.90" fill="#4A89E8"  clip-path="url(#axis_clip)">
  <polygon class="pl" points="149.1,458.3 149.1,529.7 176.8,529.7 176.8,458.3 149.1,458.3"/>
  <polygon class="pl" points="183.7,459.4 183.7,531.6 211.4,531.6 211.4,459.4 183.7,459.4"/>
  <polygon class="pl" points="218.3,455.5 218.3,527.9 246.0,527.9 246.0,455.5 218.3,455.5"/>
  <polygon class="pl" points="252.9,453.6 252.9,528.9 280.6,528.9 280.6,453.6 252.9,453.6"/>
  <polygon class="pl" points="287.5,450.7 287.5,521.3 315.2,521.3 315.2,450.7 287.5,450.7"/>
  <polygon class="pl" points="322.2,443.8 322.2,518.7 349.8,518.7 349.8,443.8 322.2,443.8"/>
  <polygon class="pl" points="356.8,445.8 356.8,520.3 384.5,520.3 384.5,445.8 356.8,445.8"/>
  <polygon class="pl" points="391.4,429.2 391.4,511.1 419.1,511.1 419.1,429.2 391.4,429.2"/>
  <polygon class="pl" points="426.0,434.3 426.0,504.2 453.7,504.2 453.7,434.3 426.0,434.3"/>
  <polygon class="pl" points="460.6,423.4 460.6,501.4 488.3,501.4 488.3,423.4 460.6,423.4"/>
  <polygon class="pl" points="495.2,411.9 495.2,491.1 522.9,491.1 522.9,411.9 495.2,411.9"/>
  <polygon class="pl" points="529.9,419.3 529.9,486.3 557.6,486.3 557.6,419.3 529.9,419.3"/>
  <polygon class="pl" points="564.5,418.3 564.5,486.1 592.2,486.1 592.2,418.3 564.5,418.3"/>
  <polygon class="pl" points="599.1,416.4 599.1,484.9 626.8,484.9 626.8,416.4 599.1,416.4"/>
  <polygon class="pl" points="633.7,405.1 633.7,476.7 661.4,476.7 661.4,405.1 633.7,405.1"/>
  <polygon class="pl" points="668.3,404.2 668.3,474.1 696.0,474.1 696.0,404.2 668.3,404.2"/>
  <polygon class="pl" points="703.0,397.5 703.0,468.6 730.6,468.6 730.6,397.5 703.0,397.5"/>
  <polygon class="pl" points="737.6,397.8 737.6,470.7 765.3,470.7 765.3,397.8 737.6,397.8"/>
  <polygon class="pl" points="772.2,396.3 772.2,468.6 799.9,468.6 799.9,396.3 772.2,396.3"/>
  <polygon class="pl" points="806.8,388.6 806.8,462.0 834.5,462.0 834.5,388.6 806.8,388.6"/>
  <polygon class="pl" points="841.4,414.0 841.4,487.0 869.1,487.0 869.1,414.0 841.4,414.0"/>
  <polygon class="pl" points="876.0,381.1 876.0,460.3 903.7,460.3 903.7,381.1 876.0,381.1"/>
</g>
<g stroke="#000" stroke-width="0.90" fill="#FF7F61"  clip-path="url(#axis_clip)">
  <polygon class="pl" points="149.1,529.7 149.1,587.2 176.8,587.2 176.8,529.7 149.1,529.7"/>
  <polygon class="pl" points="183.7,531.6 183.7,587.2 211.4,587.2 211.4,531.6 183.7,531.6"/>
  <polygon class="pl" points="218.3,527.9 218.3,587.2 246.0,587.2 246.0,527.9 218.3,527.9"/>
  <polygon class="pl" points="252.9,528.9 252.9,587.2 280.6,587.2 280.6,528.9 252.9,528.9"/>
  <polygon class="pl" points="287.5,521.3 287.5,587.2 315.2,587.2 315.2,521.3 287.5,521.3"/>
  <polygon class="pl" points="322.2,518.7 322.2,587.2 349.8,587.2 349.8,518.7 322.2,518.7"/>
  <polygon class="pl" points="356.8,520.3 356.8,587.2 384.5,587.2 384.5,520.3 356.8,520.3"/>
  <polygon class="pl" points="391.4,511.1 391.4,587.2 419.1,587.2 419.1,511.1 391.4,511.1"/>
  <polygon class="pl" points="426.0,504.2 426.0,587.2 453.7,587.2 453.7,504.2 426.0,504.2"/>
  <polygon class="pl" points="460.6,501.4 460.6,587.2 488.3,587.2 488.3,501.4 460.6,501.4"/>
  <polygon class="pl" points="495.2,491.1 495.2,587.2 522.9,587.2 522.9,491.1 495.2,491.1"/>
  <polygon class="pl" points="529.9,486.3 529.9,587.2 557.6,587.2 557.6,486.3 529.9,486.3"/>
  <polygon class="pl" points="564.5,486.1 564.5,587.2 592.2,587.2 592.2,486.1 564.5,486.1"/>
  <polygon class="pl" points="599.1,484.9 599.1,587.2 626.8,587.2 626.8,484.9 599.1,484.9"/>
  <polygon class="pl" points="633.7,476.7 633.7,587.2 661.4,587.2 661.4,476.7 633.7,476.7"/>
  <polygon class="pl" points="668.3,474.1 668.3,587.2 696.0,587.2 696.0,474.1 668.3,474.1"/>
  <polygon class="pl" points="703.0,468.6 703.0,587.2 730.6,587.2 730.6,468.6 703.0,468.6"/>
  <polygon class="pl" points="737.6,470.7 737.6,587.2 765.3,587.2 765.3,470.7 737.6,470.7"/>
  <polygon class="pl" points="772.2,468.6 772.2,587.2 799.9,587.2 799.9,468.6 772.2,468.6"/>
  <polygon class="pl" points="806.8,462.0 806.8,587.2 834.5,587.2 834.5,462.0 806.8,462.0"/>
  <polygon class="pl" points="841.4,487.0 841.4,587.2 869.1,587.2 869.1,487.0 841.4,487.0"/>
  <polygon class="pl" points="876.0,460.3 876.0,587.2 903.7,587.2 903.7,460.3 876.0,460.3"/>
</g>
<polyline class="pl" points="162.9,437.6 197.5,438.4 232.1,433.9 266.8,431.8 301.4,428.9 336.0,422.2 370.6,423.6 405.2,406.0 439.9,411.3 474.5,399.4 509.1,222.1 543.7,238.3 578.3,217.4 612.9,188.5 647.6,176.8 682.2,180.3 716.8,196.1 751.4,175.2 786.0,150.2 820.7,134.1 855.3,133.4 889.9,171.5" stroke="#000" stroke-width="5.40" stroke-opacity="1.00" fill="none" clip-path="url(#axis_clip)"/>
<g class="pl" fill="#FFF" stroke="#000" stroke-width="0.900">
  <circle cx="197.5" cy="438.4" r="2.2" />
  <circle cx="232.1" cy="433.9" r="2.2" />
  <circle cx="266.8" cy="431.8" r="2.2" />
  <circle cx="301.4" cy="428.9" r="2.2" />
  <circle cx="336.0" cy="422.2" r="2.2" />
  <circle cx="370.6" cy="423.6" r="2.2" />
  <circle cx="405.2" cy="406.0" r="2.2" />
  <circle cx="439.9" cy="411.3" r="2.2" />
  <circle cx="474.5" cy="399.4" r="2.2" />
  <circle cx="543.7" cy="238.3" r="2.2" />
  <circle cx="578.3" cy="217.4" r="2.2" />
  <circle cx="612.9" cy="188.5" r="2.2" />
  <circle cx="647.6" cy="176.8" r="2.2" />
  <circle cx="682.2" cy="180.3" r="2.2" />
  <circle cx="716.8" cy="196.1" r="2.2" />
  <circle cx="751.4" cy="175.2" r="2.2" />
  <circle cx="786.0" cy="150.2" r="2.2" />
  <circle cx="820.7" cy="134.1" r="2.2" />
  <circle cx="889.9" cy="171.5" r="2.2" />
</g>
<g class="pl" fill="#FFF" stroke="#000" stroke-width="0.900">
  <circle cx="162.9" cy="437.6" r="5.4" />
  <circle cx="509.1" cy="222.1" r="5.4" />
  <circle cx="855.3" cy="133.4" r="5.4" />
</g>
<text transform="translate(145.6,47.2)" dy="0.0" font-size="27.00" fill="#808080" stroke="none">Annual Greenhouse Gas Emissions: Peru</text>
<text transform="translate(130.0,81.7)" dy="8.1" font-size="27.00" fill="#808080" stroke="none" text-anchor="end">CO<tspan dy="0.2em"><tspan style="font-size:70%">2</tspan></tspan><tspan dy="-0.2em">e</tspan></text>
<text transform="translate(945.6,171.5)" dy="7.6" font-size="25.20" fill="#000" stroke="none">+178.0% since 2000</text>
<text transform="translate(945.6,523.8)" dy="7.6" font-size="25.20" fill="#FF7F61" stroke="none">Fossil CO<tspan dy="0.2em"><tspan style="font-size:70%">2</tspan></tspan><tspan dy="-0.2em"></tspan></text>
<text transform="translate(945.6,420.7)" dy="7.6" font-size="25.20" fill="#4A89E8" stroke="none">CH<tspan dy="0.2em"><tspan style="font-size:70%">4</tspan></tspan><tspan dy="-0.2em"></tspan></text>
<text transform="translate(945.6,373.1)" dy="7.6" font-size="25.20" fill="#845F48" stroke="none">N<tspan dy="0.2em"><tspan style="font-size:70%">2</tspan></tspan><tspan dy="-0.2em">O</tspan></text>
<text transform="translate(945.6,348.6)" dy="7.6" font-size="25.20" fill="#DBA746" stroke="none">F-gas</text>
<text transform="translate(945.6,261.9)" dy="7.6" font-size="25.20" fill="#7FBF7F" stroke="none">LULUCF</text>
<polyline class="pl" points="910.8,368.0 912.4,368.0 913.8,368.1 915.2,368.2 916.4,368.3 917.6,368.4 918.8,368.6 919.8,368.7 920.8,368.9 921.7,369.2 922.7,369.4 923.5,369.6 924.4,369.9 925.2,370.1 926.0,370.4 926.8,370.7 927.6,370.9 928.4,371.2 929.3,371.4 930.1,371.7 931.1,371.9 932.0,372.1 933.0,372.3 934.0,372.5 935.2,372.7 936.4,372.8 937.6,372.9 939.0,373.0 940.4,373.0 942.0,373.1" stroke="#845F48" stroke-width="0.90" stroke-opacity="1.00" fill="none" />
<polyline class="pl" points="910.8,353.6 912.4,353.6 913.8,353.5 915.2,353.5 916.4,353.4 917.6,353.2 918.8,353.1 919.8,352.9 920.8,352.7 921.7,352.5 922.7,352.2 923.5,352.0 924.4,351.7 925.2,351.5 926.0,351.2 926.8,351.0 927.6,350.7 928.4,350.4 929.3,350.2 930.1,349.9 931.1,349.7 932.0,349.5 933.0,349.3 934.0,349.1 935.2,349.0 936.4,348.8 937.6,348.7 939.0,348.6 940.4,348.6 942.0,348.6" stroke="#DBA746" stroke-width="0.90" stroke-opacity="1.00" fill="none" />
<text transform="translate(160.0,666.1)" font-size="19.80" font-family="Helvetica" fill="#BFBFBF" stroke="none" xml:space="preserve">CICERO   &#9679;   Data: UNFCCC (NaN)</text>
<g>
  <rect x="123.0" y="651.4" width="34" height="17" fill="#FFF" stroke="none" opacity="0.01"/>
  <g transform="translate(124.0,652.4) scale(0.24)">
  <g><circle fill="#FFF" cx="37.79" cy="28.5" r="28.84"/>
     <circle fill="none" cx="37.79" cy="28.5" r="28.84" stroke="#BFBFBF" stroke-width="5.5"/>
     <path fill="#BFBFBF" d="M37.16,23.19 l-4.29,2.23c-0.458-0.951-1.02-1.62-1.69-2c-0.667-0.38-1.29-0.571-1.86-0.571c-2.86,0-4.29,1.89-4.29,5.66 c0,1.71,0.36,3.08,1.09,4.11c0.724,1.03,1.79,1.54,3.2,1.54c1.87,0,3.18-0.915,3.94-2.74l3.94,2 c-0.838,1.56-2,2.79-3.49,3.69c-1.48,0.896-3.12,1.34-4.91,1.34c-2.86,0-5.16-0.875-6.92-2.63 c-1.75-1.75-2.63-4.19-2.63-7.31c0-3.05,0.886-5.47,2.66-7.26c1.77-1.79,4.01-2.69,6.72-2.69 C32.6,18.56,35.44,20.1,37.16,23.19z
              M55.61,23.19l-4.23,2.23c-0.457-0.951-1.02-1.62-1.69-2 c-0.668-0.38-1.31-0.571-1.91-0.571c-2.86,0-4.29,1.89-4.29,5.66c0,1.71,0.363,3.08,1.09,4.11 c0.723,1.03,1.79,1.54,3.2,1.54c1.87,0,3.18-0.915,3.94-2.74l4,2c-0.875,1.56-2.06,2.79-3.54,3.69 c-1.49,0.9-3.11,1.34-4.86,1.34c-2.9,0-5.21-0.875-6.94-2.63c-1.74-1.75-2.6-4.19-2.6-7.31 c0-3.05,0.885-5.47,2.66-7.26c1.77-1.79,4.01-2.69,6.71-2.69C51.12,18.56,53.944,20.1,55.61,23.19z"/>
  </g></g>
  <g transform="translate(140.2,652.4) scale(0.24)">
  <g><circle fill="#FFF" cx="37.79" cy="28.5" r="28.84"/>
     <circle fill="none" cx="37.79" cy="28.5" r="28.84" stroke="#BFBFBF" stroke-width="5.5"/>
     <path fill="#BFBFBF" d="M46.129,20.557v13.085h-3.656v15.542h-9.944V33.643h-3.656V20.557 c0-0.572,0.2-1.057,0.599-1.457c0.401-0.399,0.887-0.6,1.457-0.6h13.144c0.533,0,1.01,0.2,1.428,0.6 C45.918,19.5,46.129,19.986,46.129,20.557z
              M33.042,12.329c0-3.008,1.485-4.514,4.458-4.514s4.457,1.504,4.457,4.514 c0,2.971-1.486,4.457-4.457,4.457S33.042,15.3,33.042,12.329z"/>
  </g></g>
</g>
</g>
</svg>
