<svg version="1.1" xmlns="http://www.w3.org/2000/svg" xmlns:xlink="http://www.w3.org/1999/xlink" width="100%" height="100%" viewBox="0 0 1200.000 674.916">
<title>Kaya decomposition of emissions growth: Peru</title>
<style type="text/css">
  #main {font-family:Helvetica,Arial,sans-serif; font-size:27.00px;
         fill-opacity:1; fill:#000000; stroke:none; stroke-linejoin:round; stroke-linecap:round; stroke-width:1.00;}
  .marker {stroke-opacity:0;fill-opacity:0;}
  .marker:hover {stroke-opacity:0.5; fill-opacity:1;}
  .ticklabel {font-size:27.00px;fill:#808080;stroke:none;font-family:Helvetica}
  .ytl {text-anchor:end;}
  .dp1 {pointer-events:none;font-size:70%;text-anchor:middle;fill:#000000;}
  .dp2 {pointer-events:none;font-size:70%;text-anchor:middle;fill:#FFFFFF;}
  .numtip {pointer-events:none;}
  .cc {opacity:0.25;}
.dl_fe {background-color:#FDFFDF;display:flex;margin:auto;align-items:center}
.dl_fe_p {font-size:20px;text-align:center;margin:3px}
.dl_el {display:none;pointer-events:none;}
.cc:hover + .dl_el {display:block;}
text:hover + .dl_el {display:block;}
</style>
<defs>
  <clipPath id="axis_clip"><rect x="145.8" y="54.2" width="761.2" height="532.8" /></clipPath>
  <path id="line_x" d="M 145.600,0 h 761.600" stroke="#262626" stroke-opacity="0.15" stroke-width="1.00"/>
  <path id="tick_y" d="M 145.600,0 h -6.000" stroke="#808080" stroke-width="0.90"/>
  <path id="tick_x" d="M 0,587.177 v 6.000" stroke="#808080" stroke-width="0.90"/>
</defs>
<g id="main">
<use xlink:href="#line_x" transform="translate(0,587.2)"/>
<use xlink:href="#line_x" transform="translate(0,533.9)"/>
<use xlink:href="#line_x" transform="translate(0,480.5)"/>
<use xlink:href="#line_x" transform="translate(0,427.2)"/>
<use xlink:href="#line_x" transform="translate(0,373.9)"/>
<use xlink:href="#line_x" transform="translate(0,320.6)"/>
<use xlink:href="#line_x" transform="translate(0,267.3)"/>
<use xlink:href="#line_x" transform="translate(0,213.9)"/>
<use xlink:href="#line_x" transform="translate(0,160.6)"/>
<use xlink:href="#line_x" transform="translate(0,107.3)"/>
<use xlink:href="#line_x" transform="translate(0,54.0)"/>
<use xlink:href="#tick_y" transform="translate(0,587.2)"/>
<use xlink:href="#tick_y" transform="translate(0,533.9)"/>
<use xlink:href="#tick_y" transform="translate(0,480.5)"/>
<use xlink:href="#tick_y" transform="translate(0,427.2)"/>
<use xlink:href="#tick_y" transform="translate(0,373.9)"/>
<use xlink:href="#tick_y" transform="translate(0,320.6)"/>
<use xlink:href="#tick_y" transform="translate(0,267.3)"/>
<use xlink:href="#tick_y" transform="translate(0,213.9)"/>
<use xlink:href="#tick_y" transform="translate(0,160.6)"/>
<use xlink:href="#tick_y" transform="translate(0,107.3)"/>
<use xlink:href="#tick_y" transform="translate(0,54.0)"/>
<use xlink:href="#tick_x" transform="translate(156.8,0)"/>
<use xlink:href="#tick_x" transform="translate(268.8,0)"/>
<use xlink:href="#tick_x" transform="translate(380.8,0)"/>
<use xlink:href="#tick_x" transform="translate(492.8,0)"/>
<use xlink:href="#tick_x" transform="translate(604.8,0)"/>
<use xlink:href="#tick_x" transform="translate(716.8,0)"/>
<use xlink:href="#tick_x" transform="translate(828.8,0)"/>
<polyline points="145.6,53.993 145.6,587.177 907.2,587.177" stroke="#808080" stroke-width="0.90" fill="none"/>
<text class="ticklabel xtl" transform="translate(156.8,629.0)" text-anchor="middle">1990</text>
<text class="ticklabel xtl" transform="translate(268.8,629.0)" text-anchor="middle">1995</text>
<text class="ticklabel xtl" transform="translate(380.8,629.0)" text-anchor="middle">2000</text>
<text class="ticklabel xtl" transform="translate(492.8,629.0)" text-anchor="middle">2005</text>
<text class="ticklabel xtl" transform="translate(604.8,629.0)" text-anchor="middle">2010</text>
<text class="ticklabel xtl" transform="translate(716.8,629.0)" text-anchor="middle">2015</text>
<text class="ticklabel xtl" transform="translate(828.8,629.0)" text-anchor="middle">2020</text>
<text class="ticklabel ytl" transform="translate(128.8,595.3)">-25</text>
<text class="ticklabel ytl" transform="translate(128.8,542.0)">-20</text>
<text class="ticklabel ytl" transform="translate(128.8,488.6)">-15</text>
<text class="ticklabel ytl" transform="translate(128.8,435.3)">-10</text>
<text class="ticklabel ytl" transform="translate(128.8,382.0)">-5</text>
<text class="ticklabel ytl" transform="translate(128.8,328.7)">0</text>
<text class="ticklabel ytl" transform="translate(128.8,275.4)">5</text>
<text class="ticklabel ytl" transform="translate(128.8,222.0)">10</text>
<text class="ticklabel ytl" transform="translate(128.8,168.7)">15</text>
<text class="ticklabel ytl" transform="translate(128.8,115.4)">20</text>
<text class="ticklabel ytl" transform="translate(128.8,62.1)">25 %/yr</text>
<g stroke="#000" stroke-width="0.90" fill="#808080"  clip-path="url(#axis_clip)">
  <polygon class="pl" points="215.0,170.0 215.0,177.2 233.0,177.2 233.0,170.0 215.0,170.0"/>
  <polygon class="pl" points="349.4,261.6 349.4,262.5 367.4,262.5 367.4,261.6 349.4,261.6"/>
  <polygon class="pl" points="394.2,305.7 394.2,306.2 412.2,306.2 412.2,305.7 394.2,305.7"/>
  <polygon class="pl" points="461.4,165.8 461.4,172.2 479.4,172.2 479.4,165.8 461.4,165.8"/>
  <polygon class="pl" points="483.8,220.0 483.8,220.4 501.8,220.4 501.8,220.0 483.8,220.0"/>
  <polygon class="pl" points="528.6,89.6 528.6,101.6 546.6,101.6 546.6,89.6 528.6,89.6"/>
  <polygon class="pl" points="573.4,190.1 573.4,192.6 591.4,192.6 591.4,190.1 573.4,190.1"/>
  <polygon class="pl" points="640.6,210.7 640.6,211.0 658.6,211.0 658.6,210.7 640.6,210.7"/>
  <polygon class="pl" points="685.4,162.8 685.4,166.0 703.4,166.0 703.4,162.8 685.4,162.8"/>
  <polygon class="pl" points="730.2,247.8 730.2,249.5 748.2,249.5 748.2,247.8 730.2,247.8"/>
  <polygon class="pl" points="752.6,264.5 752.6,264.9 770.6,264.9 770.6,264.5 752.6,264.5"/>
  <polygon class="pl" points="797.4,272.5 797.4,273.2 815.4,273.2 815.4,272.5 797.4,272.5"/>
  <polygon class="pl" points="819.8,294.7 819.8,305.0 837.8,305.0 837.8,294.7 819.8,294.7"/>
  <polygon class="pl" points="864.6,263.7 864.6,264.7 882.6,264.7 882.6,263.7 864.6,263.7"/>
</g>
<g stroke="#000" stroke-width="0.90" fill="#8DA0CB"  clip-path="url(#axis_clip)">
  <polygon class="pl" points="192.6,257.8 192.6,298.7 210.6,298.7 210.6,257.8 192.6,257.8"/>
  <polygon class="pl" points="215.0,177.2 215.0,221.4 233.0,221.4 233.0,177.2 215.0,177.2"/>
  <polygon class="pl" points="304.6,94.9 304.6,249.4 322.6,249.4 322.6,94.9 304.6,94.9"/>
  <polygon class="pl" points="349.4,262.5 349.4,291.2 367.4,291.2 367.4,262.5 349.4,262.5"/>
  <polygon class="pl" points="461.4,172.2 461.4,254.6 479.4,254.6 479.4,172.2 461.4,172.2"/>
  <polygon class="pl" points="483.8,220.4 483.8,251.0 501.8,251.0 501.8,220.4 483.8,220.4"/>
  <polygon class="pl" points="528.6,101.6 528.6,226.9 546.6,226.9 546.6,101.6 528.6,101.6"/>
  <polygon class="pl" points="573.4,192.6 573.4,297.0 591.4,297.0 591.4,192.6 573.4,192.6"/>
  <polygon class="pl" points="640.6,211.0 640.6,258.7 658.6,258.7 658.6,211.0 640.6,211.0"/>
  <polygon class="pl" points="685.4,166.0 685.4,295.3 703.4,295.3 703.4,166.0 685.4,166.0"/>
  <polygon class="pl" points="730.2,249.5 730.2,259.5 748.2,259.5 748.2,249.5 730.2,249.5"/>
  <polygon class="pl" points="752.6,264.9 752.6,290.9 770.6,290.9 770.6,264.9 752.6,264.9"/>
  <polygon class="pl" points="797.4,273.2 797.4,293.4 815.4,293.4 815.4,273.2 797.4,273.2"/>
  <polygon class="pl" points="864.6,264.7 864.6,286.5 882.6,286.5 882.6,264.7 864.6,264.7"/>
  <polygon class="pl" points="887.0,286.4 887.0,288.7 905.0,288.7 905.0,286.4 887.0,286.4"/>
</g>
<g stroke="#000" stroke-width="0.90" fill="#66C2A5"  clip-path="url(#axis_clip)">
  <polygon class="pl" points="147.8,250.5 147.8,296.7 165.8,296.7 165.8,250.5 147.8,250.5"/>
  <polygon class="pl" points="215.0,221.4 215.0,262.3 233.0,262.3 233.0,221.4 215.0,221.4"/>
  <polygon class="pl" points="259.8,231.3 259.8,242.7 277.8,242.7 277.8,231.3 259.8,231.3"/>
  <polygon class="pl" points="282.2,290.9 282.2,293.9 300.2,293.9 300.2,290.9 282.2,290.9"/>
  <polygon class="pl" points="327.0,263.4 327.0,301.5 345.0,301.5 345.0,263.4 327.0,263.4"/>
  <polygon class="pl" points="349.4,291.2 349.4,302.7 367.4,302.7 367.4,291.2 349.4,291.2"/>
  <polygon class="pl" points="371.8,288.6 371.8,295.0 389.8,295.0 389.8,288.6 371.8,288.6"/>
  <polygon class="pl" points="461.4,254.6 461.4,271.2 479.4,271.2 479.4,254.6 461.4,254.6"/>
  <polygon class="pl" points="528.6,226.9 528.6,230.4 546.6,230.4 546.6,226.9 528.6,226.9"/>
  <polygon class="pl" points="573.4,297.0 573.4,306.0 591.4,306.0 591.4,297.0 573.4,297.0"/>
  <polygon class="pl" points="595.8,181.2 595.8,232.3 613.8,232.3 613.8,181.2 595.8,181.2"/>
  <polygon class="pl" points="618.2,213.5 618.2,253.6 636.2,253.6 636.2,213.5 618.2,213.5"/>
  <polygon class="pl" points="707.8,270.4 707.8,286.2 725.8,286.2 725.8,270.4 707.8,270.4"/>
  <polygon class="pl" points="730.2,259.5 730.2,281.8 748.2,281.8 748.2,259.5 730.2,259.5"/>
  <polygon class="pl" points="775.0,269.3 775.0,278.7 793.0,278.7 793.0,269.3 775.0,269.3"/>
  <polygon class="pl" points="797.4,293.4 797.4,297.1 815.4,297.1 815.4,293.4 797.4,293.4"/>
  <polygon class="pl" points="842.2,172.9 842.2,177.1 860.2,177.1 860.2,172.9 842.2,172.9"/>
  <polygon class="pl" points="864.6,286.5 864.6,289.3 882.6,289.3 882.6,286.5 864.6,286.5"/>
</g>
<g stroke="#000" stroke-width="0.90" fill="#E78AC3"  clip-path="url(#axis_clip)">
  <polygon class="pl" points="170.2,296.9 170.2,297.7 188.2,297.7 188.2,296.9 170.2,296.9"/>
  <polygon class="pl" points="215.0,262.3 215.0,299.0 233.0,299.0 233.0,262.3 215.0,262.3"/>
  <polygon class="pl" points="237.4,191.5 237.4,299.3 255.4,299.3 255.4,191.5 237.4,191.5"/>
  <polygon class="pl" points="259.8,242.7 259.8,299.9 277.8,299.9 277.8,242.7 259.8,242.7"/>
  <polygon class="pl" points="282.2,293.9 282.2,300.6 300.2,300.6 300.2,293.9 282.2,293.9"/>
  <polygon class="pl" points="304.6,249.4 304.6,301.0 322.6,301.0 322.6,249.4 304.6,249.4"/>
  <polygon class="pl" points="371.8,295.0 371.8,304.2 389.8,304.2 389.8,295.0 371.8,295.0"/>
  <polygon class="pl" points="416.6,263.0 416.6,308.0 434.6,308.0 434.6,263.0 416.6,263.0"/>
  <polygon class="pl" points="439.0,276.5 439.0,309.3 457.0,309.3 457.0,276.5 439.0,276.5"/>
  <polygon class="pl" points="461.4,271.2 461.4,310.1 479.4,310.1 479.4,271.2 461.4,271.2"/>
  <polygon class="pl" points="483.8,251.0 483.8,310.9 501.8,310.9 501.8,251.0 483.8,251.0"/>
  <polygon class="pl" points="506.2,240.9 506.2,311.7 524.2,311.7 524.2,240.9 506.2,240.9"/>
  <polygon class="pl" points="528.6,230.4 528.6,312.3 546.6,312.3 546.6,230.4 528.6,230.4"/>
  <polygon class="pl" points="551.0,227.1 551.0,312.9 569.0,312.9 569.0,227.1 551.0,227.1"/>
  <polygon class="pl" points="573.4,306.0 573.4,313.1 591.4,313.1 591.4,306.0 573.4,306.0"/>
  <polygon class="pl" points="595.8,232.3 595.8,312.5 613.8,312.5 613.8,232.3 595.8,232.3"/>
  <polygon class="pl" points="618.2,253.6 618.2,311.5 636.2,311.5 636.2,253.6 618.2,253.6"/>
  <polygon class="pl" points="640.6,258.7 640.6,310.8 658.6,310.8 658.6,258.7 640.6,258.7"/>
  <polygon class="pl" points="663.0,255.6 663.0,310.2 681.0,310.2 681.0,255.6 663.0,255.6"/>
  <polygon class="pl" points="685.4,295.3 685.4,309.4 703.4,309.4 703.4,295.3 685.4,295.3"/>
  <polygon class="pl" points="707.8,286.2 707.8,308.0 725.8,308.0 725.8,286.2 707.8,286.2"/>
  <polygon class="pl" points="730.2,281.8 730.2,306.0 748.2,306.0 748.2,281.8 730.2,281.8"/>
  <polygon class="pl" points="752.6,290.9 752.6,304.4 770.6,304.4 770.6,290.9 752.6,290.9"/>
  <polygon class="pl" points="775.0,278.7 775.0,300.4 793.0,300.4 793.0,278.7 775.0,278.7"/>
  <polygon class="pl" points="797.4,297.1 797.4,300.0 815.4,300.0 815.4,297.1 797.4,297.1"/>
  <polygon class="pl" points="842.2,177.1 842.2,307.4 860.2,307.4 860.2,177.1 842.2,177.1"/>
  <polygon class="pl" points="864.6,289.3 864.6,310.0 882.6,310.0 882.6,289.3 864.6,289.3"/>
  <polygon class="pl" points="887.0,288.7 887.0,311.1 905.0,311.1 905.0,288.7 887.0,288.7"/>
</g>
<g stroke="#000" stroke-width="0.90" fill="#A6D854"  clip-path="url(#axis_clip)">
  <polygon class="pl" points="147.8,296.7 147.8,320.6 165.8,320.6 165.8,296.7 147.8,296.7"/>
  <polygon class="pl" points="170.2,297.7 170.2,320.6 188.2,320.6 188.2,297.7 170.2,297.7"/>
  <polygon class="pl" points="192.6,298.7 192.6,320.6 210.6,320.6 210.6,298.7 192.6,298.7"/>
  <polygon class="pl" points="215.0,299.0 215.0,320.6 233.0,320.6 233.0,299.0 215.0,299.0"/>
  <polygon class="pl" points="237.4,299.3 237.4,320.6 255.4,320.6 255.4,299.3 237.4,299.3"/>
  <polygon class="pl" points="259.8,299.9 259.8,320.6 277.8,320.6 277.8,299.9 259.8,299.9"/>
  <polygon class="pl" points="282.2,300.6 282.2,320.6 300.2,320.6 300.2,300.6 282.2,300.6"/>
  <polygon class="pl" points="304.6,301.0 304.6,320.6 322.6,320.6 322.6,301.0 304.6,301.0"/>
  <polygon class="pl" points="327.0,301.5 327.0,320.6 345.0,320.6 345.0,301.5 327.0,301.5"/>
  <polygon class="pl" points="349.4,302.7 349.4,320.6 367.4,320.6 367.4,302.7 349.4,302.7"/>
  <polygon class="pl" points="371.8,304.2 371.8,320.6 389.8,320.6 389.8,304.2 371.8,304.2"/>
  <polygon class="pl" points="394.2,306.2 394.2,320.6 412.2,320.6 412.2,306.2 394.2,306.2"/>
  <polygon class="pl" points="416.6,308.0 416.6,320.6 434.6,320.6 434.6,308.0 416.6,308.0"/>
  <polygon class="pl" points="439.0,309.3 439.0,320.6 457.0,320.6 457.0,309.3 439.0,309.3"/>
  <polygon class="pl" points="461.4,310.1 461.4,320.6 479.4,320.6 479.4,310.1 461.4,310.1"/>
  <polygon class="pl" points="483.8,310.9 483.8,320.6 501.8,320.6 501.8,310.9 483.8,310.9"/>
  <polygon class="pl" points="506.2,311.7 506.2,320.6 524.2,320.6 524.2,311.7 506.2,311.7"/>
  <polygon class="pl" points="528.6,312.3 528.6,320.6 546.6,320.6 546.6,312.3 528.6,312.3"/>
  <polygon class="pl" points="551.0,312.9 551.0,320.6 569.0,320.6 569.0,312.9 551.0,312.9"/>
  <polygon class="pl" points="573.4,313.1 573.4,320.6 591.4,320.6 591.4,313.1 573.4,313.1"/>
  <polygon class="pl" points="595.8,312.5 595.8,320.6 613.8,320.6 613.8,312.5 595.8,312.5"/>
  <polygon class="pl" points="618.2,311.5 618.2,320.6 636.2,320.6 636.2,311.5 618.2,311.5"/>
  <polygon class="pl" points="640.6,310.8 640.6,320.6 658.6,320.6 658.6,310.8 640.6,310.8"/>
  <polygon class="pl" points="663.0,310.2 663.0,320.6 681.0,320.6 681.0,310.2 663.0,310.2"/>
  <polygon class="pl" points="685.4,309.4 685.4,320.6 703.4,320.6 703.4,309.4 685.4,309.4"/>
  <polygon class="pl" points="707.8,308.0 707.8,320.6 725.8,320.6 725.8,308.0 707.8,308.0"/>
  <polygon class="pl" points="730.2,306.0 730.2,320.6 748.2,320.6 748.2,306.0 730.2,306.0"/>
  <polygon class="pl" points="752.6,304.4 752.6,320.6 770.6,320.6 770.6,304.4 752.6,304.4"/>
  <polygon class="pl" points="775.0,300.4 775.0,320.6 793.0,320.6 793.0,300.4 775.0,300.4"/>
  <polygon class="pl" points="797.4,300.0 797.4,320.6 815.4,320.6 815.4,300.0 797.4,300.0"/>
  <polygon class="pl" points="819.8,305.0 819.8,320.6 837.8,320.6 837.8,305.0 819.8,305.0"/>
  <polygon class="pl" points="842.2,307.4 842.2,320.6 860.2,320.6 860.2,307.4 842.2,307.4"/>
  <polygon class="pl" points="864.6,310.0 864.6,320.6 882.6,320.6 882.6,310.0 864.6,310.0"/>
  <polygon class="pl" points="887.0,311.1 887.0,320.6 905.0,320.6 905.0,311.1 887.0,311.1"/>
</g>
<g stroke="#000" stroke-width="0.90" fill="#808080"  clip-path="url(#axis_clip)">
  <polygon class="pl" points="147.8,408.4 147.8,404.4 165.8,404.4 165.8,408.4 147.8,408.4"/>
  <polygon class="pl" points="170.2,376.3 170.2,375.8 188.2,375.8 188.2,376.3 170.2,376.3"/>
  <polygon class="pl" points="192.6,374.6 192.6,373.0 210.6,373.0 210.6,374.6 192.6,374.6"/>
  <polygon class="pl" points="237.4,436.7 237.4,428.2 255.4,428.2 255.4,436.7 237.4,436.7"/>
  <polygon class="pl" points="259.8,367.3 259.8,365.4 277.8,365.4 277.8,367.3 259.8,367.3"/>
  <polygon class="pl" points="282.2,371.2 282.2,370.0 300.2,370.0 300.2,371.2 282.2,371.2"/>
  <polygon class="pl" points="304.6,412.2 304.6,404.9 322.6,404.9 322.6,412.2 304.6,412.2"/>
  <polygon class="pl" points="327.0,365.7 327.0,364.4 345.0,364.4 345.0,365.7 327.0,365.7"/>
  <polygon class="pl" points="371.8,387.4 371.8,385.7 389.8,385.7 389.8,387.4 371.8,387.4"/>
  <polygon class="pl" points="416.6,377.2 416.6,375.5 434.6,375.5 434.6,377.2 416.6,377.2"/>
  <polygon class="pl" points="439.0,396.7 439.0,394.9 457.0,394.9 457.0,396.7 439.0,396.7"/>
  <polygon class="pl" points="506.2,475.0 506.2,469.8 524.2,469.8 524.2,475.0 506.2,475.0"/>
  <polygon class="pl" points="551.0,386.3 551.0,382.0 569.0,382.0 569.0,386.3 551.0,386.3"/>
  <polygon class="pl" points="595.8,379.2 595.8,376.5 613.8,376.5 613.8,379.2 595.8,379.2"/>
  <polygon class="pl" points="618.2,436.0 618.2,428.0 636.2,428.0 636.2,436.0 618.2,436.0"/>
  <polygon class="pl" points="663.0,441.0 663.0,437.3 681.0,437.3 681.0,441.0 663.0,441.0"/>
  <polygon class="pl" points="707.8,374.2 707.8,372.5 725.8,372.5 725.8,374.2 707.8,374.2"/>
  <polygon class="pl" points="775.0,352.7 775.0,351.9 793.0,351.9 793.0,352.7 775.0,352.7"/>
  <polygon class="pl" points="842.2,349.3 842.2,347.6 860.2,347.6 860.2,349.3 842.2,349.3"/>
  <polygon class="pl" points="887.0,334.0 887.0,333.8 905.0,333.8 905.0,334.0 887.0,334.0"/>
</g>
<g stroke="#000" stroke-width="0.90" fill="#8DA0CB"  clip-path="url(#axis_clip)">
  <polygon class="pl" points="147.8,404.4 147.8,395.9 165.8,395.9 165.8,404.4 147.8,404.4"/>
  <polygon class="pl" points="170.2,375.8 170.2,352.2 188.2,352.2 188.2,375.8 170.2,375.8"/>
  <polygon class="pl" points="237.4,428.2 237.4,354.6 255.4,354.6 255.4,428.2 237.4,428.2"/>
  <polygon class="pl" points="259.8,365.4 259.8,320.6 277.8,320.6 277.8,365.4 259.8,365.4"/>
  <polygon class="pl" points="282.2,370.0 282.2,320.6 300.2,320.6 300.2,370.0 282.2,370.0"/>
  <polygon class="pl" points="327.0,364.4 327.0,343.4 345.0,343.4 345.0,364.4 327.0,364.4"/>
  <polygon class="pl" points="371.8,385.7 371.8,320.6 389.8,320.6 389.8,385.7 371.8,385.7"/>
  <polygon class="pl" points="394.2,454.2 394.2,341.2 412.2,341.2 412.2,454.2 394.2,454.2"/>
  <polygon class="pl" points="416.6,375.5 416.6,351.5 434.6,351.5 434.6,375.5 416.6,375.5"/>
  <polygon class="pl" points="439.0,394.9 439.0,376.3 457.0,376.3 457.0,394.9 439.0,394.9"/>
  <polygon class="pl" points="506.2,469.8 506.2,384.0 524.2,384.0 524.2,469.8 506.2,469.8"/>
  <polygon class="pl" points="551.0,382.0 551.0,331.9 569.0,331.9 569.0,382.0 551.0,382.0"/>
  <polygon class="pl" points="595.8,376.5 595.8,320.6 613.8,320.6 613.8,376.5 595.8,376.5"/>
  <polygon class="pl" points="618.2,428.0 618.2,320.6 636.2,320.6 636.2,428.0 618.2,428.0"/>
  <polygon class="pl" points="663.0,437.3 663.0,356.6 681.0,356.6 681.0,437.3 663.0,437.3"/>
  <polygon class="pl" points="707.8,372.5 707.8,320.6 725.8,320.6 725.8,372.5 707.8,372.5"/>
  <polygon class="pl" points="775.0,351.9 775.0,320.6 793.0,320.6 793.0,351.9 775.0,351.9"/>
  <polygon class="pl" points="819.8,557.9 819.8,464.2 837.8,464.2 837.8,557.9 819.8,557.9"/>
  <polygon class="pl" points="842.2,347.6 842.2,320.6 860.2,320.6 860.2,347.6 842.2,347.6"/>
</g>
<g stroke="#000" stroke-width="0.90" fill="#66C2A5"  clip-path="url(#axis_clip)">
  <polygon class="pl" points="170.2,352.2 170.2,320.6 188.2,320.6 188.2,352.2 170.2,352.2"/>
  <polygon class="pl" points="192.6,373.0 192.6,350.6 210.6,350.6 210.6,373.0 192.6,373.0"/>
  <polygon class="pl" points="237.4,354.6 237.4,320.6 255.4,320.6 255.4,354.6 237.4,354.6"/>
  <polygon class="pl" points="304.6,404.9 304.6,320.6 322.6,320.6 322.6,404.9 304.6,404.9"/>
  <polygon class="pl" points="394.2,341.2 394.2,325.4 412.2,325.4 412.2,341.2 394.2,341.2"/>
  <polygon class="pl" points="416.6,351.5 416.6,320.6 434.6,320.6 434.6,351.5 416.6,351.5"/>
  <polygon class="pl" points="439.0,376.3 439.0,320.6 457.0,320.6 457.0,376.3 439.0,376.3"/>
  <polygon class="pl" points="483.8,343.3 483.8,320.6 501.8,320.6 501.8,343.3 483.8,343.3"/>
  <polygon class="pl" points="506.2,384.0 506.2,320.6 524.2,320.6 524.2,384.0 506.2,384.0"/>
  <polygon class="pl" points="551.0,331.9 551.0,320.6 569.0,320.6 569.0,331.9 551.0,331.9"/>
  <polygon class="pl" points="640.6,349.2 640.6,320.6 658.6,320.6 658.6,349.2 640.6,349.2"/>
  <polygon class="pl" points="663.0,356.6 663.0,320.6 681.0,320.6 681.0,356.6 663.0,356.6"/>
  <polygon class="pl" points="685.4,320.6 685.4,320.6 703.4,320.6 703.4,320.6 685.4,320.6"/>
  <polygon class="pl" points="752.6,330.6 752.6,320.6 770.6,320.6 770.6,330.6 752.6,330.6"/>
  <polygon class="pl" points="819.8,464.2 819.8,455.7 837.8,455.7 837.8,464.2 819.8,464.2"/>
  <polygon class="pl" points="887.0,333.8 887.0,320.6 905.0,320.6 905.0,333.8 887.0,333.8"/>
</g>
<g stroke="#000" stroke-width="0.90" fill="#E78AC3"  clip-path="url(#axis_clip)">
  <polygon class="pl" points="147.8,395.9 147.8,320.6 165.8,320.6 165.8,395.9 147.8,395.9"/>
  <polygon class="pl" points="192.6,350.6 192.6,320.6 210.6,320.6 210.6,350.6 192.6,350.6"/>
  <polygon class="pl" points="327.0,343.4 327.0,320.6 345.0,320.6 345.0,343.4 327.0,343.4"/>
  <polygon class="pl" points="349.4,322.5 349.4,320.6 367.4,320.6 367.4,322.5 349.4,322.5"/>
  <polygon class="pl" points="394.2,325.4 394.2,320.6 412.2,320.6 412.2,325.4 394.2,325.4"/>
  <polygon class="pl" points="819.8,455.7 819.8,320.6 837.8,320.6 837.8,455.7 819.8,455.7"/>
</g>
<g stroke="#000" stroke-width="0.90" fill="#A6D854"  clip-path="url(#axis_clip)">
</g>
<g class="pl" fill="#000" stroke="#000" stroke-width="0.900">
  <circle cx="156.8" cy="338.3" r="5.4" />
  <circle cx="179.2" cy="352.6" r="5.4" />
  <circle cx="201.6" cy="311.8" r="5.4" />
  <circle cx="224.0" cy="170.0" r="5.4" />
  <circle cx="246.4" cy="307.6" r="5.4" />
  <circle cx="268.8" cy="278.0" r="5.4" />
  <circle cx="291.2" cy="341.5" r="5.4" />
  <circle cx="313.6" cy="186.6" r="5.4" />
  <circle cx="336.0" cy="308.5" r="5.4" />
  <circle cx="358.4" cy="263.6" r="5.4" />
  <circle cx="380.8" cy="355.3" r="5.4" />
  <circle cx="403.2" cy="439.3" r="5.4" />
  <circle cx="425.6" cy="319.6" r="5.4" />
  <circle cx="448.0" cy="352.6" r="5.4" />
  <circle cx="470.4" cy="165.8" r="5.4" />
  <circle cx="492.8" cy="242.7" r="5.4" />
  <circle cx="515.2" cy="395.3" r="5.4" />
  <circle cx="537.6" cy="89.6" r="5.4" />
  <circle cx="560.0" cy="292.7" r="5.4" />
  <circle cx="582.4" cy="190.1" r="5.4" />
  <circle cx="604.8" cy="239.8" r="5.4" />
  <circle cx="627.2" cy="328.9" r="5.4" />
  <circle cx="649.6" cy="239.4" r="5.4" />
  <circle cx="672.0" cy="376.0" r="5.4" />
  <circle cx="694.4" cy="162.8" r="5.4" />
  <circle cx="716.8" cy="324.0" r="5.4" />
  <circle cx="739.2" cy="247.8" r="5.4" />
  <circle cx="761.6" cy="274.5" r="5.4" />
  <circle cx="784.0" cy="301.4" r="5.4" />
  <circle cx="806.4" cy="272.5" r="5.4" />
  <circle cx="828.8" cy="532.0" r="5.4" />
  <circle cx="851.2" cy="201.6" r="5.4" />
  <circle cx="873.6" cy="263.7" r="5.4" />
  <circle cx="896.0" cy="299.7" r="5.4" />
</g>
<g stroke="#000" stroke-width="0.90" fill="#808080"  >
</g>
<g stroke="#000" stroke-width="0.90" fill="#8DA0CB"  >
</g>
<g stroke="#000" stroke-width="0.90" fill="#66C2A5"  >
</g>
<g stroke="#000" stroke-width="0.90" fill="#E78AC3"  >
  <polygon class="pl" points="959.0,278.3 959.0,306.0 977.0,306.0 977.0,278.3 959.0,278.3"/>
</g>
<g stroke="#000" stroke-width="0.90" fill="#A6D854"  >
  <polygon class="pl" points="959.0,306.0 959.0,320.6 977.0,320.6 977.0,306.0 959.0,306.0"/>
</g>
<g stroke="#000" stroke-width="0.90" fill="#808080"  >
  <polygon class="pl" points="959.0,329.5 959.0,329.1 977.0,329.1 977.0,329.5 959.0,329.5"/>
</g>
<g stroke="#000" stroke-width="0.90" fill="#8DA0CB"  >
  <polygon class="pl" points="959.0,329.1 959.0,324.5 977.0,324.5 977.0,329.1 959.0,329.1"/>
</g>
<g stroke="#000" stroke-width="0.90" fill="#66C2A5"  >
  <polygon class="pl" points="959.0,324.5 959.0,320.6 977.0,320.6 977.0,324.5 959.0,324.5"/>
</g>
<g stroke="#000" stroke-width="0.90" fill="#E78AC3"  >
</g>
<g stroke="#000" stroke-width="0.90" fill="#A6D854"  >
</g>
<g class="pl" fill="#000" stroke="#000" stroke-width="0.900">
  <circle cx="968.0" cy="287.2" r="5.4" />
</g>
<text transform="translate(968.0,593.9)"  font-size="21.60" fill="#808080" stroke="none" text-anchor="middle">
      <tspan x="0" y="18.0">Average over</tspan><tspan x="0" y="42.2">1990&#8211;2023</tspan>
    </text>
<g stroke="none" stroke-width="0.9000"  >
  <polygon points="968.0,587.2 974.0,593.9 962.0,593.9 968.0,587.2" fill="#808080"/>
</g>
<text transform="translate(1009.2,259.6)" dy="6.5" font-size="21.60" fill="#000" stroke="none">Fossil CO<tspan dy="0.2em"><tspan style="font-size:70%">2</tspan></tspan><tspan dy="-0.2em"></tspan></text>
<text transform="translate(1009.2,301.4)" dy="6.5" font-size="21.60" fill="#A6D854" stroke="none">Population</text>
<text transform="translate(1009.2,280.5)" dy="6.5" font-size="21.60" fill="#E78AC3" stroke="none">GDP/Population</text>
<text transform="translate(1009.2,322.3)" dy="6.5" font-size="21.60" fill="#66C2A5" stroke="none">Energy/GDP</text>
<text transform="translate(1009.2,343.2)" dy="6.5" font-size="21.60" fill="#8DA0CB" stroke="none">CO<tspan dy="0.2em"><tspan style="font-size:70%">2</tspan></tspan><tspan dy="-0.2em">/</tspan>Energy</text>
<text transform="translate(1009.2,364.1)" dy="6.5" font-size="21.60" fill="#808080" stroke="none">Interactions</text>
<polyline class="pl" points="985.2,287.2 986.2,287.1 987.2,286.8 988.1,286.4 988.9,285.8 989.7,285.0 990.4,284.2 991.1,283.2 991.7,282.1 992.4,280.9 992.9,279.6 993.5,278.3 994.1,277.0 994.6,275.6 995.1,274.1 995.7,272.7 996.2,271.3 996.7,269.9 997.3,268.5 997.9,267.2 998.4,266.0 999.1,264.8 999.7,263.7 1000.4,262.7 1001.1,261.8 1001.9,261.1 1002.7,260.5 1003.6,260.0 1004.6,259.7 1005.6,259.6" stroke="#000" stroke-width="0.90" stroke-opacity="1.00" fill="none" />
<polyline class="pl" points="985.2,313.3 986.2,313.2 987.2,313.1 988.1,312.9 988.9,312.7 989.7,312.3 990.4,312.0 991.1,311.5 991.7,311.1 992.4,310.6 992.9,310.0 993.5,309.5 994.1,308.9 994.6,308.3 995.1,307.7 995.7,307.0 996.2,306.4 996.7,305.8 997.3,305.2 997.9,304.7 998.4,304.1 999.1,303.6 999.7,303.2 1000.4,302.7 1001.1,302.4 1001.9,302.0 1002.7,301.8 1003.6,301.6 1004.6,301.5 1005.6,301.4" stroke="#A6D854" stroke-width="0.90" stroke-opacity="1.00" fill="none" />
<polyline class="pl" points="985.2,292.1 986.2,292.1 987.2,292.0 988.1,291.8 988.9,291.5 989.7,291.2 990.4,290.9 991.1,290.4 991.7,290.0 992.4,289.5 992.9,289.0 993.5,288.4 994.1,287.8 994.6,287.2 995.1,286.6 995.7,286.0 996.2,285.4 996.7,284.9 997.3,284.3 997.9,283.7 998.4,283.2 999.1,282.7 999.7,282.2 1000.4,281.8 1001.1,281.5 1001.9,281.1 1002.7,280.9 1003.6,280.7 1004.6,280.6 1005.6,280.5" stroke="#E78AC3" stroke-width="0.90" stroke-opacity="1.00" fill="none" />
<polyline class="pl" points="985.2,322.5 986.2,322.5 987.2,322.5 988.1,322.5 988.9,322.5 989.7,322.5 990.4,322.5 991.1,322.5 991.7,322.5 992.4,322.5 992.9,322.5 993.5,322.5 994.1,322.5 994.6,322.4 995.1,322.4 995.7,322.4 996.2,322.4 996.7,322.4 997.3,322.4 997.9,322.4 998.4,322.4 999.1,322.4 999.7,322.4 1000.4,322.3 1001.1,322.3 1001.9,322.3 1002.7,322.3 1003.6,322.3 1004.6,322.3 1005.6,322.3" stroke="#66C2A5" stroke-width="0.90" stroke-opacity="1.00" fill="none" />
<polyline class="pl" points="985.2,326.8 986.2,326.9 987.2,327.0 988.1,327.3 988.9,327.7 989.7,328.1 990.4,328.6 991.1,329.2 991.7,329.9 992.4,330.6 992.9,331.3 993.5,332.1 994.1,332.9 994.6,333.7 995.1,334.6 995.7,335.4 996.2,336.3 996.7,337.1 997.3,337.9 997.9,338.7 998.4,339.5 999.1,340.2 999.7,340.8 1000.4,341.4 1001.1,341.9 1001.9,342.4 1002.7,342.7 1003.6,343.0 1004.6,343.2 1005.6,343.2" stroke="#8DA0CB" stroke-width="0.90" stroke-opacity="1.00" fill="none" />
<polyline class="pl" points="985.2,329.3 986.2,329.4 987.2,329.8 988.1,330.3 988.9,331.1 989.7,332.0 990.4,333.1 991.1,334.4 991.7,335.8 992.4,337.3 992.9,338.9 993.5,340.5 994.1,342.2 994.6,344.0 995.1,345.8 995.7,347.6 996.2,349.4 996.7,351.2 997.3,352.9 997.9,354.5 998.4,356.1 999.1,357.6 999.7,359.0 1000.4,360.3 1001.1,361.4 1001.9,362.3 1002.7,363.1 1003.6,363.6 1004.6,364.0 1005.6,364.1" stroke="#808080" stroke-width="0.90" stroke-opacity="1.00" fill="none" />
<text transform="translate(145.6,47.2)" dy="0.0" font-size="27.00" fill="#808080" stroke="none">Kaya decomposition of emissions growth: Peru</text>
<text transform="translate(157.6,60.7)" dy="18.0" font-size="18.00" fill="#808080" stroke="none">Percentage change relative to previous year</text>
<text transform="translate(157.6,82.4)" dy="18.0" font-size="18.00" fill="#808080" stroke="none">Adjusted for leap years</text>
<text transform="translate(160.3,666.1)" font-size="19.80" font-family="Helvetica" fill="#BFBFBF" stroke="none" xml:space="preserve">Global Carbon Project</text>
<g>
  <rect x="123.0" y="651.4" width="34" height="17" fill="#FFF" stroke="none" opacity="0.01"/>
  <g transform="translate(124.0,652.4) scale(0.24)">
  <g><circle fill="#FFF" cx="37.79" cy="28.5" r="28.84"/>
     <circle fill="none" cx="37.79" cy="28.5" r="28.84" stroke="#BFBFBF" stroke-width="5.5"/>
     <path fill="#BFBFBF" d="M37.16,23.19 l-4.29,2.23c-0.458-0.951-1.02-1.62-1.69-2c-0.667-0.38-1.29-0.571-1.86-0.571c-2.86,0-4.29,1.89-4.29,5.66 c0,1.71,0.36,3.08,1.09,4.11c0.724,1.03,1.79,1.54,3.2,1.54c1.87,0,3.18-0.915,3.94-2.74l3.94,2 c-0.838,1.56-2,2.79-3.49,3.69c-1.48,0.896-3.12,1.34-4.91,1.34c-2.86,0-5.16-0.875-6.92-2.63 c-1.75-1.75-2.63-4.19-2.63-7.31c0-3.05,0.886-5.47,2.66-7.26c1.77-1.79,4.01-2.69,6.72-2.69 C32.6,18.56,35.44,20.1,37.16,23.19z
              M55.61,23.19l-4.23,2.23c-0.457-0.951-1.02-1.62-1.69-2 c-0.668-0.38-1.31-0.571-1.91-0.571c-2.86,0-4.29,1.89-4.29,5.66c0,1.71,0.363,3.08,1.09,4.11 c0.723,1.03,1.79,1.54,3.2,1.54c1.87,0,3.18-0.915,3.94-2.74l4,2c-0.875,1.56-2.06,2.79-3.54,3.69 c-1.49,0.9-3.11,1.34-4.86,1.34c-2.9,0-5.21-0.875-6.94-2.63c-1.74-1.75-2.6-4.19-2.6-7.31 c0-3.05,0.885-5.47,2.66-7.26c1.77-1.79,4.01-2.69,6.71-2.69C51.12,18.56,53.944,20.1,55.61,23.19z"/>
  </g></g>
  <g transform="translate(140.2,652.4) scale(0.24)">
  <g><circle fill="#FFF" cx="37.79" cy="28.5" r="28.84"/>
     <circle fill="none" cx="37.79" cy="28.5" r="28.84" stroke="#BFBFBF" stroke-width="5.5"/>
     <path fill="#BFBFBF" d="M46.129,20.557v13.085h-3.656v15.542h-9.944V33.643h-3.656V20.557 c0-0.572,0.2-1.057,0.599-1.457c0.401-0.399,0.887-0.6,1.457-0.6h13.144c0.533,0,1.01,0.2,1.428,0.6 C45.918,19.5,46.129,19.986,46.129,20.557z
              M33.042,12.329c0-3.008,1.485-4.514,4.458-4.514s4.457,1.504,4.457,4.514 c0,2.971-1.486,4.457-4.457,4.457S33.042,15.3,33.042,12.329z"/>
  </g></g>
</g>
</g>
</svg>
