<svg version="1.1" xmlns="http://www.w3.org/2000/svg" xmlns:xlink="http://www.w3.org/1999/xlink" width="100%" height="100%" viewBox="0 0 1200.000 674.916">
<title>Cumulative Shares of Historical Fossil CO2 Emissions</title>
<style type="text/css">
  #main {font-family:Helvetica,Arial,sans-serif; font-size:27.00px;
         fill-opacity:1; fill:#000000; stroke:none; stroke-linejoin:round; stroke-linecap:round; stroke-width:1.00;}
  .marker {stroke-opacity:0;fill-opacity:0;}
  .marker:hover {stroke-opacity:0.5; fill-opacity:1;}
  .ticklabel {font-size:27.00px;fill:#808080;stroke:none}
  .ytl {text-anchor:end;}
  .xtl {text-anchor:middle;}
  .dp1 {pointer-events:none;font-size:70%;text-anchor:middle;fill:#000000;}
  .dp2 {pointer-events:none;font-size:70%;text-anchor:middle;fill:#FFFFFF;}
  .numtip {pointer-events:none;}
  .cc {opacity:0.25;}
.dl_fe {background-color:#FDFFDF;display:flex;margin:auto;align-items:center}
.dl_fe_p {font-size:20px;text-align:center;margin:3px}
.dl_el {display:none;pointer-events:none;}
.cc:hover + .dl_el {display:block;}
text:hover + .dl_el {display:block;}
</style>
<defs>
  <clipPath id="axis_clip"><rect x="145.8" y="54.2" width="761.2" height="532.8" /></clipPath>
  <path id="line_x" d="M 145.600,0 h 761.600" stroke="#262626" stroke-opacity="0.15" stroke-width="1.00"/>
  <path id="tick_y" d="M 145.600,0 h -6.000" stroke="#808080" stroke-width="0.90"/>
  <path id="tick_x" d="M 0,587.177 v 6.000" stroke="#808080" stroke-width="0.90"/>
</defs>
<g id="main">
<use xlink:href="#line_x" transform="translate(0,587.2)"/>
<use xlink:href="#line_x" transform="translate(0,480.5)"/>
<use xlink:href="#line_x" transform="translate(0,373.9)"/>
<use xlink:href="#line_x" transform="translate(0,267.3)"/>
<use xlink:href="#line_x" transform="translate(0,160.6)"/>
<use xlink:href="#line_x" transform="translate(0,54.0)"/>
<use xlink:href="#tick_y" transform="translate(0,587.2)"/>
<use xlink:href="#tick_y" transform="translate(0,480.5)"/>
<use xlink:href="#tick_y" transform="translate(0,373.9)"/>
<use xlink:href="#tick_y" transform="translate(0,267.3)"/>
<use xlink:href="#tick_y" transform="translate(0,160.6)"/>
<use xlink:href="#tick_y" transform="translate(0,54.0)"/>
<use xlink:href="#tick_x" transform="translate(190.4,0)"/>
<use xlink:href="#tick_x" transform="translate(280.0,0)"/>
<use xlink:href="#tick_x" transform="translate(369.6,0)"/>
<use xlink:href="#tick_x" transform="translate(459.2,0)"/>
<use xlink:href="#tick_x" transform="translate(548.8,0)"/>
<use xlink:href="#tick_x" transform="translate(638.4,0)"/>
<use xlink:href="#tick_x" transform="translate(728.0,0)"/>
<use xlink:href="#tick_x" transform="translate(817.6,0)"/>
<use xlink:href="#tick_x" transform="translate(907.2,0)"/>
<polyline points="145.6,53.993 145.6,587.177 907.2,587.177" stroke="#808080" stroke-width="0.90" fill="none"/>
<text class="ticklabel xtl" transform="translate(190.4,629.0)">1860</text>
<text class="ticklabel xtl" transform="translate(280.0,629.0)">1880</text>
<text class="ticklabel xtl" transform="translate(369.6,629.0)">1900</text>
<text class="ticklabel xtl" transform="translate(459.2,629.0)">1920</text>
<text class="ticklabel xtl" transform="translate(548.8,629.0)">1940</text>
<text class="ticklabel xtl" transform="translate(638.4,629.0)">1960</text>
<text class="ticklabel xtl" transform="translate(728.0,629.0)">1980</text>
<text class="ticklabel xtl" transform="translate(817.6,629.0)">2000</text>
<text class="ticklabel xtl" transform="translate(907.2,629.0)">2020</text>
<text class="ticklabel ytl" transform="translate(128.8,595.3)">0%</text>
<text class="ticklabel ytl" transform="translate(128.8,488.6)">20%</text>
<text class="ticklabel ytl" transform="translate(128.8,382.0)">40%</text>
<text class="ticklabel ytl" transform="translate(128.8,275.4)">60%</text>
<text class="ticklabel ytl" transform="translate(128.8,168.7)">80%</text>
<text class="ticklabel ytl" transform="translate(128.8,62.1)">100%</text>
<g id="areas">
  <g class="pg_7">
    <polygon class="pl" points="145.6,54.0 150.1,54.0 154.6,54.0 159.0,54.0 163.5,54.0 168.0,54.0 172.5,54.0 177.0,54.0 181.4,54.0 185.9,54.0 190.4,54.0 194.9,54.0 199.4,54.0 203.8,54.0 208.3,54.0 212.8,54.0 217.3,54.0 221.8,54.0 226.2,54.0 230.7,54.0 235.2,54.0 239.7,54.0 244.2,54.0 248.6,54.0 253.1,54.0 257.6,54.0 262.1,54.0 266.6,54.0 271.0,54.0 275.5,54.0 280.0,54.0 284.5,54.0 289.0,54.0 293.4,54.0 297.9,54.0 302.4,54.0 306.9,54.0 311.4,54.0 315.8,54.0 320.3,54.0 324.8,54.0 329.3,54.0 333.8,54.0 338.2,54.0 342.7,54.0 347.2,54.0 351.7,54.0 356.2,54.0 360.6,54.0 365.1,54.0 369.6,54.0 374.1,54.0 378.6,54.0 383.0,54.0 387.5,54.0 392.0,54.0 396.5,54.0 401.0,54.0 405.4,54.0 409.9,54.0 414.4,54.0 418.9,54.0 423.4,54.0 427.8,54.0 432.3,54.0 436.8,54.0 441.3,54.0 445.8,54.0 450.2,54.0 454.7,54.0 459.2,54.0 463.7,54.0 468.2,54.0 472.6,54.0 477.1,54.0 481.6,54.0 486.1,54.0 490.6,54.0 495.0,54.0 499.5,54.0 504.0,54.0 508.5,54.0 513.0,54.0 517.4,54.0 521.9,54.0 526.4,54.0 530.9,54.0 535.4,54.0 539.8,54.0 544.3,54.0 548.8,54.0 553.3,54.0 557.8,54.0 562.2,54.0 566.7,54.0 571.2,54.0 575.7,54.0 580.2,54.0 584.6,54.0 589.1,54.0 593.6,54.0 598.1,54.0 602.6,54.0 607.0,54.0 611.5,54.0 616.0,54.0 620.5,54.0 625.0,54.0 629.4,54.0 633.9,54.0 638.4,54.0 642.9,54.0 647.4,54.0 651.8,54.0 656.3,54.0 660.8,54.0 665.3,54.0 669.8,54.0 674.2,54.0 678.7,54.0 683.2,54.0 687.7,54.0 692.2,54.0 696.6,54.0 701.1,54.0 705.6,54.0 710.1,54.0 714.6,54.0 719.0,54.0 723.5,54.0 728.0,54.0 732.5,54.0 737.0,54.0 741.4,54.0 745.9,54.0 750.4,54.0 754.9,54.0 759.4,54.0 763.8,54.0 768.3,54.0 772.8,54.0 777.3,54.0 781.8,54.0 786.2,54.0 790.7,54.0 795.2,54.0 799.7,54.0 804.2,54.0 808.6,54.0 813.1,54.0 817.6,54.0 822.1,54.0 826.6,54.0 831.0,54.0 835.5,54.0 840.0,54.0 844.5,54.0 849.0,54.0 853.4,54.0 857.9,54.0 862.4,54.0 866.9,54.0 871.4,54.0 875.8,54.0 880.3,54.0 884.8,54.0 889.3,54.0 893.8,54.0 898.2,54.0 902.7,54.0 907.2,54.0 907.2,60.7 902.7,60.7 898.2,60.7 893.8,60.7 889.3,60.7 884.8,60.7 880.3,60.7 875.8,60.7 871.4,60.7 866.9,60.7 862.4,60.7 857.9,60.6 853.4,60.6 849.0,60.6 844.5,60.5 840.0,60.5 835.5,60.5 831.0,60.4 826.6,60.4 822.1,60.3 817.6,60.3 813.1,60.2 808.6,60.2 804.2,60.1 799.7,60.0 795.2,60.0 790.7,59.9 786.2,59.9 781.8,59.8 777.3,59.8 772.8,59.8 768.3,59.7 763.8,59.7 759.4,59.6 754.9,59.6 750.4,59.5 745.9,59.5 741.4,59.4 737.0,59.4 732.5,59.3 728.0,59.3 723.5,59.2 719.0,59.2 714.6,59.1 710.1,59.1 705.6,59.1 701.1,59.0 696.6,59.0 692.2,58.9 687.7,58.9 683.2,58.8 678.7,58.8 674.2,58.7 669.8,58.7 665.3,58.6 660.8,58.6 656.3,58.5 651.8,58.4 647.4,58.4 642.9,58.3 638.4,58.3 633.9,58.2 629.4,58.2 625.0,58.1 620.5,58.1 616.0,58.0 611.5,58.0 607.0,57.9 602.6,57.9 598.1,57.8 593.6,57.8 589.1,57.7 584.6,57.7 580.2,57.7 575.7,57.7 571.2,57.6 566.7,57.6 562.2,57.6 557.8,57.6 553.3,57.5 548.8,57.5 544.3,57.5 539.8,57.5 535.4,57.5 530.9,57.5 526.4,57.5 521.9,57.4 517.4,57.4 513.0,57.4 508.5,57.4 504.0,57.4 499.5,57.4 495.0,57.4 490.6,57.4 486.1,57.3 481.6,57.3 477.1,57.2 472.6,57.2 468.2,57.1 463.7,57.1 459.2,57.1 454.7,57.0 450.2,57.0 445.8,56.9 441.3,56.9 436.8,56.8 432.3,56.8 427.8,56.7 423.4,56.6 418.9,56.5 414.4,56.4 409.9,56.4 405.4,56.3 401.0,56.2 396.5,56.2 392.0,56.1 387.5,56.0 383.0,55.9 378.6,55.9 374.1,55.8 369.6,55.7 365.1,55.6 360.6,55.6 356.2,55.5 351.7,55.5 347.2,55.4 342.7,55.4 338.2,55.4 333.8,55.3 329.3,55.3 324.8,55.2 320.3,55.2 315.8,55.1 311.4,55.1 306.9,55.0 302.4,55.0 297.9,54.9 293.4,54.8 289.0,54.8 284.5,54.7 280.0,54.7 275.5,54.6 271.0,54.6 266.6,54.5 262.1,54.5 257.6,54.5 253.1,54.5 248.6,54.5 244.2,54.5 239.7,54.4 235.2,54.4 230.7,54.4 226.2,54.4 221.8,54.4 217.3,54.3 212.8,54.2 208.3,54.2 203.8,54.2 199.4,54.2 194.9,54.1 190.4,54.0 185.9,54.0 181.4,54.0 177.0,54.0 172.5,54.0 168.0,54.0 163.5,54.0 159.0,54.0 154.6,54.0 150.1,54.0 145.6,54.0" stroke="none" stroke-width="0.9000"  fill="#933E1C" clip-path="url(#axis_clip)"/>
<polyline class="pl" points="145.6,54.0 150.1,54.0 154.6,54.0 159.0,54.0 163.5,54.0 168.0,54.0 172.5,54.0 177.0,54.0 181.4,54.0 185.9,54.0 190.4,54.0 194.9,54.0 199.4,54.0 203.8,54.0 208.3,54.0 212.8,54.0 217.3,54.0 221.8,54.0 226.2,54.0 230.7,54.0 235.2,54.0 239.7,54.0 244.2,54.0 248.6,54.0 253.1,54.0 257.6,54.0 262.1,54.0 266.6,54.0 271.0,54.0 275.5,54.0 280.0,54.0 284.5,54.0 289.0,54.0 293.4,54.0 297.9,54.0 302.4,54.0 306.9,54.0 311.4,54.0 315.8,54.0 320.3,54.0 324.8,54.0 329.3,54.0 333.8,54.0 338.2,54.0 342.7,54.0 347.2,54.0 351.7,54.0 356.2,54.0 360.6,54.0 365.1,54.0 369.6,54.0 374.1,54.0 378.6,54.0 383.0,54.0 387.5,54.0 392.0,54.0 396.5,54.0 401.0,54.0 405.4,54.0 409.9,54.0 414.4,54.0 418.9,54.0 423.4,54.0 427.8,54.0 432.3,54.0 436.8,54.0 441.3,54.0 445.8,54.0 450.2,54.0 454.7,54.0 459.2,54.0 463.7,54.0 468.2,54.0 472.6,54.0 477.1,54.0 481.6,54.0 486.1,54.0 490.6,54.0 495.0,54.0 499.5,54.0 504.0,54.0 508.5,54.0 513.0,54.0 517.4,54.0 521.9,54.0 526.4,54.0 530.9,54.0 535.4,54.0 539.8,54.0 544.3,54.0 548.8,54.0 553.3,54.0 557.8,54.0 562.2,54.0 566.7,54.0 571.2,54.0 575.7,54.0 580.2,54.0 584.6,54.0 589.1,54.0 593.6,54.0 598.1,54.0 602.6,54.0 607.0,54.0 611.5,54.0 616.0,54.0 620.5,54.0 625.0,54.0 629.4,54.0 633.9,54.0 638.4,54.0 642.9,54.0 647.4,54.0 651.8,54.0 656.3,54.0 660.8,54.0 665.3,54.0 669.8,54.0 674.2,54.0 678.7,54.0 683.2,54.0 687.7,54.0 692.2,54.0 696.6,54.0 701.1,54.0 705.6,54.0 710.1,54.0 714.6,54.0 719.0,54.0 723.5,54.0 728.0,54.0 732.5,54.0 737.0,54.0 741.4,54.0 745.9,54.0 750.4,54.0 754.9,54.0 759.4,54.0 763.8,54.0 768.3,54.0 772.8,54.0 777.3,54.0 781.8,54.0 786.2,54.0 790.7,54.0 795.2,54.0 799.7,54.0 804.2,54.0 808.6,54.0 813.1,54.0 817.6,54.0 822.1,54.0 826.6,54.0 831.0,54.0 835.5,54.0 840.0,54.0 844.5,54.0 849.0,54.0 853.4,54.0 857.9,54.0 862.4,54.0 866.9,54.0 871.4,54.0 875.8,54.0 880.3,54.0 884.8,54.0 889.3,54.0 893.8,54.0 898.2,54.0 902.7,54.0 907.2,54.0" stroke="#000" stroke-width="0.90" stroke-opacity="1.00" fill="none" clip-path="url(#axis_clip)"/>
  </g>
  <g class="pg_6">
    <polygon class="pl" points="145.6,54.0 150.1,54.0 154.6,54.0 159.0,54.0 163.5,54.0 168.0,54.0 172.5,54.0 177.0,54.0 181.4,54.0 185.9,54.0 190.4,54.0 194.9,54.1 199.4,54.2 203.8,54.2 208.3,54.2 212.8,54.2 217.3,54.3 221.8,54.4 226.2,54.4 230.7,54.4 235.2,54.4 239.7,54.4 244.2,54.5 248.6,54.5 253.1,54.5 257.6,54.5 262.1,54.5 266.6,54.5 271.0,54.6 275.5,54.6 280.0,54.7 284.5,54.7 289.0,54.8 293.4,54.8 297.9,54.9 302.4,55.0 306.9,55.0 311.4,55.1 315.8,55.1 320.3,55.2 324.8,55.2 329.3,55.3 333.8,55.3 338.2,55.4 342.7,55.4 347.2,55.4 351.7,55.5 356.2,55.5 360.6,55.6 365.1,55.6 369.6,55.7 374.1,55.8 378.6,55.9 383.0,55.9 387.5,56.0 392.0,56.1 396.5,56.2 401.0,56.2 405.4,56.3 409.9,56.4 414.4,56.4 418.9,56.5 423.4,56.6 427.8,56.7 432.3,56.8 436.8,56.8 441.3,56.9 445.8,56.9 450.2,57.0 454.7,57.0 459.2,57.1 463.7,57.1 468.2,57.1 472.6,57.2 477.1,57.2 481.6,57.3 486.1,57.3 490.6,57.4 495.0,57.4 499.5,57.4 504.0,57.4 508.5,57.4 513.0,57.4 517.4,57.4 521.9,57.4 526.4,57.5 530.9,57.5 535.4,57.5 539.8,57.5 544.3,57.5 548.8,57.5 553.3,57.5 557.8,57.6 562.2,57.6 566.7,57.6 571.2,57.6 575.7,57.7 580.2,57.7 584.6,57.7 589.1,57.7 593.6,57.8 598.1,57.8 602.6,57.9 607.0,57.9 611.5,58.0 616.0,58.0 620.5,58.1 625.0,58.1 629.4,58.2 633.9,58.2 638.4,58.3 642.9,58.3 647.4,58.4 651.8,58.4 656.3,58.5 660.8,58.6 665.3,58.6 669.8,58.7 674.2,58.7 678.7,58.8 683.2,58.8 687.7,58.9 692.2,58.9 696.6,59.0 701.1,59.0 705.6,59.1 710.1,59.1 714.6,59.1 719.0,59.2 723.5,59.2 728.0,59.3 732.5,59.3 737.0,59.4 741.4,59.4 745.9,59.5 750.4,59.5 754.9,59.6 759.4,59.6 763.8,59.7 768.3,59.7 772.8,59.8 777.3,59.8 781.8,59.8 786.2,59.9 790.7,59.9 795.2,60.0 799.7,60.0 804.2,60.1 808.6,60.2 813.1,60.2 817.6,60.3 822.1,60.3 826.6,60.4 831.0,60.4 835.5,60.5 840.0,60.5 844.5,60.5 849.0,60.6 853.4,60.6 857.9,60.6 862.4,60.7 866.9,60.7 871.4,60.7 875.8,60.7 880.3,60.7 884.8,60.7 889.3,60.7 893.8,60.7 898.2,60.7 902.7,60.7 907.2,60.7 907.2,83.0 902.7,82.6 898.2,82.3 893.8,81.9 889.3,81.4 884.8,81.0 880.3,80.5 875.8,80.1 871.4,79.7 866.9,79.2 862.4,78.8 857.9,78.4 853.4,77.9 849.0,77.5 844.5,77.0 840.0,76.6 835.5,76.2 831.0,75.7 826.6,75.3 822.1,74.9 817.6,74.5 813.1,74.0 808.6,73.6 804.2,73.3 799.7,72.9 795.2,72.6 790.7,72.2 786.2,71.7 781.8,71.3 777.3,70.9 772.8,70.2 768.3,69.8 763.8,69.5 759.4,69.2 754.9,68.9 750.4,68.5 745.9,68.2 741.4,67.9 737.0,67.6 732.5,67.3 728.0,67.0 723.5,66.7 719.0,66.4 714.6,66.0 710.1,65.7 705.6,65.3 701.1,65.0 696.6,64.7 692.2,64.3 687.7,64.0 683.2,63.7 678.7,63.5 674.2,63.2 669.8,63.0 665.3,62.8 660.8,62.5 656.3,62.3 651.8,62.2 647.4,62.0 642.9,61.9 638.4,61.8 633.9,61.7 629.4,61.6 625.0,61.5 620.5,61.5 616.0,61.4 611.5,61.3 607.0,61.3 602.6,61.3 598.1,61.3 593.6,61.2 589.1,61.0 584.6,60.8 580.2,60.6 575.7,60.3 571.2,60.0 566.7,59.8 562.2,59.7 557.8,59.5 553.3,59.4 548.8,59.3 544.3,59.3 539.8,59.1 535.4,59.0 530.9,58.9 526.4,58.7 521.9,58.6 517.4,58.5 513.0,58.4 508.5,58.4 504.0,58.3 499.5,58.2 495.0,58.1 490.6,58.1 486.1,58.0 481.6,57.8 477.1,57.7 472.6,57.6 468.2,57.6 463.7,57.5 459.2,57.4 454.7,57.3 450.2,57.2 445.8,57.2 441.3,57.1 436.8,57.1 432.3,57.0 427.8,56.9 423.4,56.8 418.9,56.7 414.4,56.7 409.9,56.6 405.4,56.5 401.0,56.4 396.5,56.3 392.0,56.3 387.5,56.2 383.0,56.1 378.6,56.0 374.1,55.9 369.6,55.8 365.1,55.7 360.6,55.7 356.2,55.7 351.7,55.6 347.2,55.6 342.7,55.5 338.2,55.5 333.8,55.5 329.3,55.4 324.8,55.4 320.3,55.3 315.8,55.3 311.4,55.2 306.9,55.1 302.4,55.1 297.9,55.0 293.4,55.0 289.0,54.9 284.5,54.9 280.0,54.8 275.5,54.7 271.0,54.7 266.6,54.7 262.1,54.6 257.6,54.6 253.1,54.6 248.6,54.6 244.2,54.6 239.7,54.5 235.2,54.5 230.7,54.5 226.2,54.5 221.8,54.4 217.3,54.3 212.8,54.3 208.3,54.2 203.8,54.2 199.4,54.2 194.9,54.1 190.4,54.0 185.9,54.0 181.4,54.0 177.0,54.0 172.5,54.0 168.0,54.0 163.5,54.0 159.0,54.0 154.6,54.0 150.1,54.0 145.6,54.0" stroke="none" stroke-width="0.9000"  fill="#DB4E15" clip-path="url(#axis_clip)"/>
<polyline class="pl" points="145.6,54.0 150.1,54.0 154.6,54.0 159.0,54.0 163.5,54.0 168.0,54.0 172.5,54.0 177.0,54.0 181.4,54.0 185.9,54.0 190.4,54.0 194.9,54.1 199.4,54.2 203.8,54.2 208.3,54.2 212.8,54.2 217.3,54.3 221.8,54.4 226.2,54.4 230.7,54.4 235.2,54.4 239.7,54.4 244.2,54.5 248.6,54.5 253.1,54.5 257.6,54.5 262.1,54.5 266.6,54.5 271.0,54.6 275.5,54.6 280.0,54.7 284.5,54.7 289.0,54.8 293.4,54.8 297.9,54.9 302.4,55.0 306.9,55.0 311.4,55.1 315.8,55.1 320.3,55.2 324.8,55.2 329.3,55.3 333.8,55.3 338.2,55.4 342.7,55.4 347.2,55.4 351.7,55.5 356.2,55.5 360.6,55.6 365.1,55.6 369.6,55.7 374.1,55.8 378.6,55.9 383.0,55.9 387.5,56.0 392.0,56.1 396.5,56.2 401.0,56.2 405.4,56.3 409.9,56.4 414.4,56.4 418.9,56.5 423.4,56.6 427.8,56.7 432.3,56.8 436.8,56.8 441.3,56.9 445.8,56.9 450.2,57.0 454.7,57.0 459.2,57.1 463.7,57.1 468.2,57.1 472.6,57.2 477.1,57.2 481.6,57.3 486.1,57.3 490.6,57.4 495.0,57.4 499.5,57.4 504.0,57.4 508.5,57.4 513.0,57.4 517.4,57.4 521.9,57.4 526.4,57.5 530.9,57.5 535.4,57.5 539.8,57.5 544.3,57.5 548.8,57.5 553.3,57.5 557.8,57.6 562.2,57.6 566.7,57.6 571.2,57.6 575.7,57.7 580.2,57.7 584.6,57.7 589.1,57.7 593.6,57.8 598.1,57.8 602.6,57.9 607.0,57.9 611.5,58.0 616.0,58.0 620.5,58.1 625.0,58.1 629.4,58.2 633.9,58.2 638.4,58.3 642.9,58.3 647.4,58.4 651.8,58.4 656.3,58.5 660.8,58.6 665.3,58.6 669.8,58.7 674.2,58.7 678.7,58.8 683.2,58.8 687.7,58.9 692.2,58.9 696.6,59.0 701.1,59.0 705.6,59.1 710.1,59.1 714.6,59.1 719.0,59.2 723.5,59.2 728.0,59.3 732.5,59.3 737.0,59.4 741.4,59.4 745.9,59.5 750.4,59.5 754.9,59.6 759.4,59.6 763.8,59.7 768.3,59.7 772.8,59.8 777.3,59.8 781.8,59.8 786.2,59.9 790.7,59.9 795.2,60.0 799.7,60.0 804.2,60.1 808.6,60.2 813.1,60.2 817.6,60.3 822.1,60.3 826.6,60.4 831.0,60.4 835.5,60.5 840.0,60.5 844.5,60.5 849.0,60.6 853.4,60.6 857.9,60.6 862.4,60.7 866.9,60.7 871.4,60.7 875.8,60.7 880.3,60.7 884.8,60.7 889.3,60.7 893.8,60.7 898.2,60.7 902.7,60.7 907.2,60.7" stroke="#000" stroke-width="0.90" stroke-opacity="1.00" fill="none" clip-path="url(#axis_clip)"/>
  </g>
  <g class="pg_5">
    <polygon class="pl" points="145.6,54.0 150.1,54.0 154.6,54.0 159.0,54.0 163.5,54.0 168.0,54.0 172.5,54.0 177.0,54.0 181.4,54.0 185.9,54.0 190.4,54.0 194.9,54.1 199.4,54.2 203.8,54.2 208.3,54.2 212.8,54.3 217.3,54.3 221.8,54.4 226.2,54.5 230.7,54.5 235.2,54.5 239.7,54.5 244.2,54.6 248.6,54.6 253.1,54.6 257.6,54.6 262.1,54.6 266.6,54.7 271.0,54.7 275.5,54.7 280.0,54.8 284.5,54.9 289.0,54.9 293.4,55.0 297.9,55.0 302.4,55.1 306.9,55.1 311.4,55.2 315.8,55.3 320.3,55.3 324.8,55.4 329.3,55.4 333.8,55.5 338.2,55.5 342.7,55.5 347.2,55.6 351.7,55.6 356.2,55.7 360.6,55.7 365.1,55.7 369.6,55.8 374.1,55.9 378.6,56.0 383.0,56.1 387.5,56.2 392.0,56.3 396.5,56.3 401.0,56.4 405.4,56.5 409.9,56.6 414.4,56.7 418.9,56.7 423.4,56.8 427.8,56.9 432.3,57.0 436.8,57.1 441.3,57.1 445.8,57.2 450.2,57.2 454.7,57.3 459.2,57.4 463.7,57.5 468.2,57.6 472.6,57.6 477.1,57.7 481.6,57.8 486.1,58.0 490.6,58.1 495.0,58.1 499.5,58.2 504.0,58.3 508.5,58.4 513.0,58.4 517.4,58.5 521.9,58.6 526.4,58.7 530.9,58.9 535.4,59.0 539.8,59.1 544.3,59.3 548.8,59.3 553.3,59.4 557.8,59.5 562.2,59.7 566.7,59.8 571.2,60.0 575.7,60.3 580.2,60.6 584.6,60.8 589.1,61.0 593.6,61.2 598.1,61.3 602.6,61.3 607.0,61.3 611.5,61.3 616.0,61.4 620.5,61.5 625.0,61.5 629.4,61.6 633.9,61.7 638.4,61.8 642.9,61.9 647.4,62.0 651.8,62.2 656.3,62.3 660.8,62.5 665.3,62.8 669.8,63.0 674.2,63.2 678.7,63.5 683.2,63.7 687.7,64.0 692.2,64.3 696.6,64.7 701.1,65.0 705.6,65.3 710.1,65.7 714.6,66.0 719.0,66.4 723.5,66.7 728.0,67.0 732.5,67.3 737.0,67.6 741.4,67.9 745.9,68.2 750.4,68.5 754.9,68.9 759.4,69.2 763.8,69.5 768.3,69.8 772.8,70.2 777.3,70.9 781.8,71.3 786.2,71.7 790.7,72.2 795.2,72.6 799.7,72.9 804.2,73.3 808.6,73.6 813.1,74.0 817.6,74.5 822.1,74.9 826.6,75.3 831.0,75.7 835.5,76.2 840.0,76.6 844.5,77.0 849.0,77.5 853.4,77.9 857.9,78.4 862.4,78.8 866.9,79.2 871.4,79.7 875.8,80.1 880.3,80.5 884.8,81.0 889.3,81.4 893.8,81.9 898.2,82.3 902.7,82.6 907.2,83.0 907.2,99.4 902.7,99.0 898.2,98.5 893.8,98.1 889.3,97.5 884.8,97.0 880.3,96.4 875.8,95.8 871.4,95.3 866.9,94.7 862.4,94.1 857.9,93.5 853.4,92.9 849.0,92.4 844.5,91.8 840.0,91.3 835.5,90.7 831.0,90.2 826.6,89.6 822.1,89.0 817.6,88.4 813.1,87.8 808.6,87.2 804.2,86.7 799.7,86.2 795.2,85.6 790.7,85.1 786.2,84.5 781.8,83.9 777.3,83.4 772.8,82.6 768.3,82.2 763.8,81.7 759.4,81.2 754.9,80.8 750.4,80.3 745.9,79.9 741.4,79.4 737.0,79.0 732.5,78.5 728.0,78.0 723.5,77.5 719.0,77.0 714.6,76.4 710.1,75.9 705.6,75.4 701.1,74.8 696.6,74.3 692.2,73.7 687.7,73.2 683.2,72.7 678.7,72.2 674.2,71.8 669.8,71.3 665.3,70.9 660.8,70.5 656.3,70.1 651.8,69.7 647.4,69.4 642.9,69.1 638.4,68.7 633.9,68.4 629.4,68.1 625.0,67.8 620.5,67.5 616.0,67.1 611.5,66.8 607.0,66.5 602.6,66.3 598.1,66.0 593.6,65.8 589.1,65.3 584.6,65.0 580.2,64.7 575.7,64.3 571.2,63.7 566.7,63.4 562.2,63.2 557.8,63.0 553.3,62.8 548.8,62.6 544.3,62.4 539.8,62.2 535.4,61.9 530.9,61.7 526.4,61.5 521.9,61.2 517.4,61.0 513.0,60.9 508.5,60.7 504.0,60.6 499.5,60.4 495.0,60.3 490.6,60.1 486.1,59.9 481.6,59.7 477.1,59.6 472.6,59.4 468.2,59.2 463.7,59.1 459.2,59.0 454.7,58.9 450.2,58.8 445.8,58.7 441.3,58.7 436.8,58.6 432.3,58.5 427.8,58.3 423.4,58.2 418.9,58.0 414.4,57.8 409.9,57.6 405.4,57.5 401.0,57.3 396.5,57.2 392.0,57.0 387.5,56.8 383.0,56.7 378.6,56.5 374.1,56.4 369.6,56.2 365.1,56.1 360.6,56.0 356.2,56.0 351.7,55.9 347.2,55.8 342.7,55.7 338.2,55.7 333.8,55.6 329.3,55.5 324.8,55.5 320.3,55.4 315.8,55.3 311.4,55.2 306.9,55.1 302.4,55.1 297.9,55.0 293.4,55.0 289.0,54.9 284.5,54.9 280.0,54.8 275.5,54.7 271.0,54.7 266.6,54.7 262.1,54.6 257.6,54.6 253.1,54.6 248.6,54.6 244.2,54.6 239.7,54.5 235.2,54.5 230.7,54.5 226.2,54.5 221.8,54.4 217.3,54.3 212.8,54.3 208.3,54.2 203.8,54.2 199.4,54.2 194.9,54.1 190.4,54.0 185.9,54.0 181.4,54.0 177.0,54.0 172.5,54.0 168.0,54.0 163.5,54.0 159.0,54.0 154.6,54.0 150.1,54.0 145.6,54.0" stroke="none" stroke-width="0.9000"  fill="#F2D03A" clip-path="url(#axis_clip)"/>
<polyline class="pl" points="145.6,54.0 150.1,54.0 154.6,54.0 159.0,54.0 163.5,54.0 168.0,54.0 172.5,54.0 177.0,54.0 181.4,54.0 185.9,54.0 190.4,54.0 194.9,54.1 199.4,54.2 203.8,54.2 208.3,54.2 212.8,54.3 217.3,54.3 221.8,54.4 226.2,54.5 230.7,54.5 235.2,54.5 239.7,54.5 244.2,54.6 248.6,54.6 253.1,54.6 257.6,54.6 262.1,54.6 266.6,54.7 271.0,54.7 275.5,54.7 280.0,54.8 284.5,54.9 289.0,54.9 293.4,55.0 297.9,55.0 302.4,55.1 306.9,55.1 311.4,55.2 315.8,55.3 320.3,55.3 324.8,55.4 329.3,55.4 333.8,55.5 338.2,55.5 342.7,55.5 347.2,55.6 351.7,55.6 356.2,55.7 360.6,55.7 365.1,55.7 369.6,55.8 374.1,55.9 378.6,56.0 383.0,56.1 387.5,56.2 392.0,56.3 396.5,56.3 401.0,56.4 405.4,56.5 409.9,56.6 414.4,56.7 418.9,56.7 423.4,56.8 427.8,56.9 432.3,57.0 436.8,57.1 441.3,57.1 445.8,57.2 450.2,57.2 454.7,57.3 459.2,57.4 463.7,57.5 468.2,57.6 472.6,57.6 477.1,57.7 481.6,57.8 486.1,58.0 490.6,58.1 495.0,58.1 499.5,58.2 504.0,58.3 508.5,58.4 513.0,58.4 517.4,58.5 521.9,58.6 526.4,58.7 530.9,58.9 535.4,59.0 539.8,59.1 544.3,59.3 548.8,59.3 553.3,59.4 557.8,59.5 562.2,59.7 566.7,59.8 571.2,60.0 575.7,60.3 580.2,60.6 584.6,60.8 589.1,61.0 593.6,61.2 598.1,61.3 602.6,61.3 607.0,61.3 611.5,61.3 616.0,61.4 620.5,61.5 625.0,61.5 629.4,61.6 633.9,61.7 638.4,61.8 642.9,61.9 647.4,62.0 651.8,62.2 656.3,62.3 660.8,62.5 665.3,62.8 669.8,63.0 674.2,63.2 678.7,63.5 683.2,63.7 687.7,64.0 692.2,64.3 696.6,64.7 701.1,65.0 705.6,65.3 710.1,65.7 714.6,66.0 719.0,66.4 723.5,66.7 728.0,67.0 732.5,67.3 737.0,67.6 741.4,67.9 745.9,68.2 750.4,68.5 754.9,68.9 759.4,69.2 763.8,69.5 768.3,69.8 772.8,70.2 777.3,70.9 781.8,71.3 786.2,71.7 790.7,72.2 795.2,72.6 799.7,72.9 804.2,73.3 808.6,73.6 813.1,74.0 817.6,74.5 822.1,74.9 826.6,75.3 831.0,75.7 835.5,76.2 840.0,76.6 844.5,77.0 849.0,77.5 853.4,77.9 857.9,78.4 862.4,78.8 866.9,79.2 871.4,79.7 875.8,80.1 880.3,80.5 884.8,81.0 889.3,81.4 893.8,81.9 898.2,82.3 902.7,82.6 907.2,83.0" stroke="#000" stroke-width="0.90" stroke-opacity="1.00" fill="none" clip-path="url(#axis_clip)"/>
  </g>
  <g class="pg_4">
    <polygon class="pl" points="145.6,54.0 150.1,54.0 154.6,54.0 159.0,54.0 163.5,54.0 168.0,54.0 172.5,54.0 177.0,54.0 181.4,54.0 185.9,54.0 190.4,54.0 194.9,54.1 199.4,54.2 203.8,54.2 208.3,54.2 212.8,54.3 217.3,54.3 221.8,54.4 226.2,54.5 230.7,54.5 235.2,54.5 239.7,54.5 244.2,54.6 248.6,54.6 253.1,54.6 257.6,54.6 262.1,54.6 266.6,54.7 271.0,54.7 275.5,54.7 280.0,54.8 284.5,54.9 289.0,54.9 293.4,55.0 297.9,55.0 302.4,55.1 306.9,55.1 311.4,55.2 315.8,55.3 320.3,55.4 324.8,55.5 329.3,55.5 333.8,55.6 338.2,55.7 342.7,55.7 347.2,55.8 351.7,55.9 356.2,56.0 360.6,56.0 365.1,56.1 369.6,56.2 374.1,56.4 378.6,56.5 383.0,56.7 387.5,56.8 392.0,57.0 396.5,57.2 401.0,57.3 405.4,57.5 409.9,57.6 414.4,57.8 418.9,58.0 423.4,58.2 427.8,58.3 432.3,58.5 436.8,58.6 441.3,58.7 445.8,58.7 450.2,58.8 454.7,58.9 459.2,59.0 463.7,59.1 468.2,59.2 472.6,59.4 477.1,59.6 481.6,59.7 486.1,59.9 490.6,60.1 495.0,60.3 499.5,60.4 504.0,60.6 508.5,60.7 513.0,60.9 517.4,61.0 521.9,61.2 526.4,61.5 530.9,61.7 535.4,61.9 539.8,62.2 544.3,62.4 548.8,62.6 553.3,62.8 557.8,63.0 562.2,63.2 566.7,63.4 571.2,63.7 575.7,64.3 580.2,64.7 584.6,65.0 589.1,65.3 593.6,65.8 598.1,66.0 602.6,66.3 607.0,66.5 611.5,66.8 616.0,67.1 620.5,67.5 625.0,67.8 629.4,68.1 633.9,68.4 638.4,68.7 642.9,69.1 647.4,69.4 651.8,69.7 656.3,70.1 660.8,70.5 665.3,70.9 669.8,71.3 674.2,71.8 678.7,72.2 683.2,72.7 687.7,73.2 692.2,73.7 696.6,74.3 701.1,74.8 705.6,75.4 710.1,75.9 714.6,76.4 719.0,77.0 723.5,77.5 728.0,78.0 732.5,78.5 737.0,79.0 741.4,79.4 745.9,79.9 750.4,80.3 754.9,80.8 759.4,81.2 763.8,81.7 768.3,82.2 772.8,82.6 777.3,83.4 781.8,83.9 786.2,84.5 790.7,85.1 795.2,85.6 799.7,86.2 804.2,86.7 808.6,87.2 813.1,87.8 817.6,88.4 822.1,89.0 826.6,89.6 831.0,90.2 835.5,90.7 840.0,91.3 844.5,91.8 849.0,92.4 853.4,92.9 857.9,93.5 862.4,94.1 866.9,94.7 871.4,95.3 875.8,95.8 880.3,96.4 884.8,97.0 889.3,97.5 893.8,98.1 898.2,98.5 902.7,99.0 907.2,99.4 907.2,251.4 902.7,252.3 898.2,253.2 893.8,254.0 889.3,254.9 884.8,255.7 880.3,256.5 875.8,257.4 871.4,258.3 866.9,259.3 862.4,260.2 857.9,261.0 853.4,261.8 849.0,262.5 844.5,263.1 840.0,263.6 835.5,264.0 831.0,264.4 826.6,264.7 822.1,264.8 817.6,264.8 813.1,264.8 808.6,264.9 804.2,265.0 799.7,265.2 795.2,265.5 790.7,265.9 786.2,266.2 781.8,266.5 777.3,267.0 772.8,267.6 768.3,268.4 763.8,269.1 759.4,270.0 754.9,270.9 750.4,271.9 745.9,272.9 741.4,273.8 737.0,274.8 732.5,275.7 728.0,276.6 723.5,277.6 719.0,278.5 714.6,279.4 710.1,280.3 705.6,281.3 701.1,282.3 696.6,283.2 692.2,284.0 687.7,284.9 683.2,285.9 678.7,286.7 674.2,287.5 669.8,288.3 665.3,288.9 660.8,289.7 656.3,290.6 651.8,291.5 647.4,292.4 642.9,293.3 638.4,294.2 633.9,295.2 629.4,296.0 625.0,296.7 620.5,297.1 616.0,297.2 611.5,297.3 607.0,297.4 602.6,297.2 598.1,296.9 593.6,296.3 589.1,295.5 584.6,294.9 580.2,293.5 575.7,291.9 571.2,290.2 566.7,287.9 562.2,286.4 557.8,285.2 553.3,284.2 548.8,283.6 544.3,283.4 539.8,283.3 535.4,283.5 530.9,283.0 526.4,282.5 521.9,282.2 517.4,281.9 513.0,281.5 508.5,281.2 504.0,280.6 499.5,279.5 495.0,277.9 490.6,276.3 486.1,274.4 481.6,271.6 477.1,269.5 472.6,267.4 468.2,264.0 463.7,262.0 459.2,259.6 454.7,256.3 450.2,253.4 445.8,249.7 441.3,246.4 436.8,243.5 432.3,241.0 427.8,238.6 423.4,235.8 418.9,232.9 414.4,230.2 409.9,227.0 405.4,224.2 401.0,221.9 396.5,218.1 392.0,214.8 387.5,211.3 383.0,208.2 378.6,204.7 374.1,201.8 369.6,199.0 365.1,196.6 360.6,194.3 356.2,192.3 351.7,190.6 347.2,188.7 342.7,186.4 338.2,184.5 333.8,181.7 329.3,178.7 324.8,175.9 320.3,173.1 315.8,171.0 311.4,167.6 306.9,165.1 302.4,162.7 297.9,160.3 293.4,157.8 289.0,155.3 284.5,152.9 280.0,150.8 275.5,148.7 271.0,146.8 266.6,145.7 262.1,144.2 257.6,143.2 253.1,141.7 248.6,139.7 244.2,137.5 239.7,135.3 235.2,133.9 230.7,132.2 226.2,130.6 221.8,129.3 217.3,128.5 212.8,128.6 208.3,128.6 203.8,128.2 199.4,127.7 194.9,127.8 190.4,128.1 185.9,127.6 181.4,126.7 177.0,125.8 172.5,124.6 168.0,123.2 163.5,120.9 159.0,120.1 154.6,117.1 150.1,114.0 145.6,107.8" stroke="none" stroke-width="0.9000"  fill="#DF65B0" clip-path="url(#axis_clip)"/>
<polyline class="pl" points="145.6,54.0 150.1,54.0 154.6,54.0 159.0,54.0 163.5,54.0 168.0,54.0 172.5,54.0 177.0,54.0 181.4,54.0 185.9,54.0 190.4,54.0 194.9,54.1 199.4,54.2 203.8,54.2 208.3,54.2 212.8,54.3 217.3,54.3 221.8,54.4 226.2,54.5 230.7,54.5 235.2,54.5 239.7,54.5 244.2,54.6 248.6,54.6 253.1,54.6 257.6,54.6 262.1,54.6 266.6,54.7 271.0,54.7 275.5,54.7 280.0,54.8 284.5,54.9 289.0,54.9 293.4,55.0 297.9,55.0 302.4,55.1 306.9,55.1 311.4,55.2 315.8,55.3 320.3,55.4 324.8,55.5 329.3,55.5 333.8,55.6 338.2,55.7 342.7,55.7 347.2,55.8 351.7,55.9 356.2,56.0 360.6,56.0 365.1,56.1 369.6,56.2 374.1,56.4 378.6,56.5 383.0,56.7 387.5,56.8 392.0,57.0 396.5,57.2 401.0,57.3 405.4,57.5 409.9,57.6 414.4,57.8 418.9,58.0 423.4,58.2 427.8,58.3 432.3,58.5 436.8,58.6 441.3,58.7 445.8,58.7 450.2,58.8 454.7,58.9 459.2,59.0 463.7,59.1 468.2,59.2 472.6,59.4 477.1,59.6 481.6,59.7 486.1,59.9 490.6,60.1 495.0,60.3 499.5,60.4 504.0,60.6 508.5,60.7 513.0,60.9 517.4,61.0 521.9,61.2 526.4,61.5 530.9,61.7 535.4,61.9 539.8,62.2 544.3,62.4 548.8,62.6 553.3,62.8 557.8,63.0 562.2,63.2 566.7,63.4 571.2,63.7 575.7,64.3 580.2,64.7 584.6,65.0 589.1,65.3 593.6,65.8 598.1,66.0 602.6,66.3 607.0,66.5 611.5,66.8 616.0,67.1 620.5,67.5 625.0,67.8 629.4,68.1 633.9,68.4 638.4,68.7 642.9,69.1 647.4,69.4 651.8,69.7 656.3,70.1 660.8,70.5 665.3,70.9 669.8,71.3 674.2,71.8 678.7,72.2 683.2,72.7 687.7,73.2 692.2,73.7 696.6,74.3 701.1,74.8 705.6,75.4 710.1,75.9 714.6,76.4 719.0,77.0 723.5,77.5 728.0,78.0 732.5,78.5 737.0,79.0 741.4,79.4 745.9,79.9 750.4,80.3 754.9,80.8 759.4,81.2 763.8,81.7 768.3,82.2 772.8,82.6 777.3,83.4 781.8,83.9 786.2,84.5 790.7,85.1 795.2,85.6 799.7,86.2 804.2,86.7 808.6,87.2 813.1,87.8 817.6,88.4 822.1,89.0 826.6,89.6 831.0,90.2 835.5,90.7 840.0,91.3 844.5,91.8 849.0,92.4 853.4,92.9 857.9,93.5 862.4,94.1 866.9,94.7 871.4,95.3 875.8,95.8 880.3,96.4 884.8,97.0 889.3,97.5 893.8,98.1 898.2,98.5 902.7,99.0 907.2,99.4" stroke="#000" stroke-width="0.90" stroke-opacity="1.00" fill="none" clip-path="url(#axis_clip)"/>
  </g>
  <g class="pg_3">
    <polygon class="pl" points="145.6,107.8 150.1,114.0 154.6,117.1 159.0,120.1 163.5,120.9 168.0,123.2 172.5,124.6 177.0,125.8 181.4,126.7 185.9,127.6 190.4,128.1 194.9,127.8 199.4,127.7 203.8,128.2 208.3,128.6 212.8,128.6 217.3,128.5 221.8,129.3 226.2,130.6 230.7,132.2 235.2,133.9 239.7,135.3 244.2,137.5 248.6,139.7 253.1,141.7 257.6,143.2 262.1,144.2 266.6,145.7 271.0,146.8 275.5,148.7 280.0,150.8 284.5,152.9 289.0,155.3 293.4,157.8 297.9,160.3 302.4,162.7 306.9,165.1 311.4,167.6 315.8,171.0 320.3,173.1 324.8,175.9 329.3,178.7 333.8,181.7 338.2,184.5 342.7,186.4 347.2,188.7 351.7,190.6 356.2,192.3 360.6,194.3 365.1,196.6 369.6,199.0 374.1,201.8 378.6,204.7 383.0,208.2 387.5,211.3 392.0,214.8 396.5,218.1 401.0,221.9 405.4,224.2 409.9,227.0 414.4,230.2 418.9,232.9 423.4,235.8 427.8,238.6 432.3,241.0 436.8,243.5 441.3,246.4 445.8,249.7 450.2,253.4 454.7,256.3 459.2,259.6 463.7,262.0 468.2,264.0 472.6,267.4 477.1,269.5 481.6,271.6 486.1,274.4 490.6,276.3 495.0,277.9 499.5,279.5 504.0,280.6 508.5,281.2 513.0,281.5 517.4,281.9 521.9,282.2 526.4,282.5 530.9,283.0 535.4,283.5 539.8,283.3 544.3,283.4 548.8,283.6 553.3,284.2 557.8,285.2 562.2,286.4 566.7,287.9 571.2,290.2 575.7,291.9 580.2,293.5 584.6,294.9 589.1,295.5 593.6,296.3 598.1,296.9 602.6,297.2 607.0,297.4 611.5,297.3 616.0,297.2 620.5,297.1 625.0,296.7 629.4,296.0 633.9,295.2 638.4,294.2 642.9,293.3 647.4,292.4 651.8,291.5 656.3,290.6 660.8,289.7 665.3,288.9 669.8,288.3 674.2,287.5 678.7,286.7 683.2,285.9 687.7,284.9 692.2,284.0 696.6,283.2 701.1,282.3 705.6,281.3 710.1,280.3 714.6,279.4 719.0,278.5 723.5,277.6 728.0,276.6 732.5,275.7 737.0,274.8 741.4,273.8 745.9,272.9 750.4,271.9 754.9,270.9 759.4,270.0 763.8,269.1 768.3,268.4 772.8,267.6 777.3,267.0 781.8,266.5 786.2,266.2 790.7,265.9 795.2,265.5 799.7,265.2 804.2,265.0 808.6,264.9 813.1,264.8 817.6,264.8 822.1,264.8 826.6,264.7 831.0,264.4 835.5,264.0 840.0,263.6 844.5,263.1 849.0,262.5 853.4,261.8 857.9,261.0 862.4,260.2 866.9,259.3 871.4,258.3 875.8,257.4 880.3,256.5 884.8,255.7 889.3,254.9 893.8,254.0 898.2,253.2 902.7,252.3 907.2,251.4 907.2,266.8 902.7,267.6 898.2,268.3 893.8,269.1 889.3,269.8 884.8,270.4 880.3,271.1 875.8,271.8 871.4,272.6 866.9,273.4 862.4,274.2 857.9,274.9 853.4,275.5 849.0,276.0 844.5,276.4 840.0,276.8 835.5,277.1 831.0,277.2 826.6,277.3 822.1,277.3 817.6,277.2 813.1,277.0 808.6,276.9 804.2,276.8 799.7,276.9 795.2,277.1 790.7,277.2 786.2,277.4 781.8,277.6 777.3,278.0 772.8,278.4 768.3,279.0 763.8,279.6 759.4,280.2 754.9,280.9 750.4,281.6 745.9,282.4 741.4,283.0 737.0,283.8 732.5,284.5 728.0,285.2 723.5,285.9 719.0,286.6 714.6,287.4 710.1,288.1 705.6,288.9 701.1,289.7 696.6,290.5 692.2,291.1 687.7,291.8 683.2,292.6 678.7,293.3 674.2,294.0 669.8,294.5 665.3,295.1 660.8,295.8 656.3,296.5 651.8,297.2 647.4,298.0 642.9,298.8 638.4,299.6 633.9,300.5 629.4,301.2 625.0,301.7 620.5,302.0 616.0,302.0 611.5,301.9 607.0,301.9 602.6,301.5 598.1,301.1 593.6,300.4 589.1,299.4 584.6,298.8 580.2,297.3 575.7,295.6 571.2,293.8 566.7,291.4 562.2,289.8 557.8,288.6 553.3,287.5 548.8,286.8 544.3,286.6 539.8,286.4 535.4,286.5 530.9,286.0 526.4,285.4 521.9,285.1 517.4,284.7 513.0,284.3 508.5,283.9 504.0,283.2 499.5,282.1 495.0,280.4 490.6,278.7 486.1,276.8 481.6,274.0 477.1,271.7 472.6,269.5 468.2,266.1 463.7,264.1 459.2,261.6 454.7,258.1 450.2,255.1 445.8,251.4 441.3,248.0 436.8,245.1 432.3,242.4 427.8,240.0 423.4,237.1 418.9,234.2 414.4,231.3 409.9,228.1 405.4,225.2 401.0,222.7 396.5,218.9 392.0,215.5 387.5,211.9 383.0,208.8 378.6,205.2 374.1,202.2 369.6,199.4 365.1,197.1 360.6,194.6 356.2,192.6 351.7,190.8 347.2,188.8 342.7,186.5 338.2,184.6 333.8,181.7 329.3,178.8 324.8,175.9 320.3,173.1 315.8,171.0 311.4,167.6 306.9,165.1 302.4,162.7 297.9,160.3 293.4,157.8 289.0,155.3 284.5,152.9 280.0,150.8 275.5,148.7 271.0,146.8 266.6,145.7 262.1,144.2 257.6,143.2 253.1,141.7 248.6,139.7 244.2,137.5 239.7,135.3 235.2,133.9 230.7,132.2 226.2,130.6 221.8,129.3 217.3,128.5 212.8,128.6 208.3,128.6 203.8,128.2 199.4,127.7 194.9,127.8 190.4,128.1 185.9,127.6 181.4,126.7 177.0,125.8 172.5,124.6 168.0,123.2 163.5,120.9 159.0,120.1 154.6,117.1 150.1,114.0 145.6,107.8" stroke="none" stroke-width="0.9000"  fill="#6BAED6" clip-path="url(#axis_clip)"/>
<polyline class="pl" points="145.6,107.8 150.1,114.0 154.6,117.1 159.0,120.1 163.5,120.9 168.0,123.2 172.5,124.6 177.0,125.8 181.4,126.7 185.9,127.6 190.4,128.1 194.9,127.8 199.4,127.7 203.8,128.2 208.3,128.6 212.8,128.6 217.3,128.5 221.8,129.3 226.2,130.6 230.7,132.2 235.2,133.9 239.7,135.3 244.2,137.5 248.6,139.7 253.1,141.7 257.6,143.2 262.1,144.2 266.6,145.7 271.0,146.8 275.5,148.7 280.0,150.8 284.5,152.9 289.0,155.3 293.4,157.8 297.9,160.3 302.4,162.7 306.9,165.1 311.4,167.6 315.8,171.0 320.3,173.1 324.8,175.9 329.3,178.7 333.8,181.7 338.2,184.5 342.7,186.4 347.2,188.7 351.7,190.6 356.2,192.3 360.6,194.3 365.1,196.6 369.6,199.0 374.1,201.8 378.6,204.7 383.0,208.2 387.5,211.3 392.0,214.8 396.5,218.1 401.0,221.9 405.4,224.2 409.9,227.0 414.4,230.2 418.9,232.9 423.4,235.8 427.8,238.6 432.3,241.0 436.8,243.5 441.3,246.4 445.8,249.7 450.2,253.4 454.7,256.3 459.2,259.6 463.7,262.0 468.2,264.0 472.6,267.4 477.1,269.5 481.6,271.6 486.1,274.4 490.6,276.3 495.0,277.9 499.5,279.5 504.0,280.6 508.5,281.2 513.0,281.5 517.4,281.9 521.9,282.2 526.4,282.5 530.9,283.0 535.4,283.5 539.8,283.3 544.3,283.4 548.8,283.6 553.3,284.2 557.8,285.2 562.2,286.4 566.7,287.9 571.2,290.2 575.7,291.9 580.2,293.5 584.6,294.9 589.1,295.5 593.6,296.3 598.1,296.9 602.6,297.2 607.0,297.4 611.5,297.3 616.0,297.2 620.5,297.1 625.0,296.7 629.4,296.0 633.9,295.2 638.4,294.2 642.9,293.3 647.4,292.4 651.8,291.5 656.3,290.6 660.8,289.7 665.3,288.9 669.8,288.3 674.2,287.5 678.7,286.7 683.2,285.9 687.7,284.9 692.2,284.0 696.6,283.2 701.1,282.3 705.6,281.3 710.1,280.3 714.6,279.4 719.0,278.5 723.5,277.6 728.0,276.6 732.5,275.7 737.0,274.8 741.4,273.8 745.9,272.9 750.4,271.9 754.9,270.9 759.4,270.0 763.8,269.1 768.3,268.4 772.8,267.6 777.3,267.0 781.8,266.5 786.2,266.2 790.7,265.9 795.2,265.5 799.7,265.2 804.2,265.0 808.6,264.9 813.1,264.8 817.6,264.8 822.1,264.8 826.6,264.7 831.0,264.4 835.5,264.0 840.0,263.6 844.5,263.1 849.0,262.5 853.4,261.8 857.9,261.0 862.4,260.2 866.9,259.3 871.4,258.3 875.8,257.4 880.3,256.5 884.8,255.7 889.3,254.9 893.8,254.0 898.2,253.2 902.7,252.3 907.2,251.4" stroke="#000" stroke-width="0.90" stroke-opacity="1.00" fill="none" clip-path="url(#axis_clip)"/>
  </g>
  <g class="pg_2">
    <polygon class="pl" points="145.6,107.8 150.1,114.0 154.6,117.1 159.0,120.1 163.5,120.9 168.0,123.2 172.5,124.6 177.0,125.8 181.4,126.7 185.9,127.6 190.4,128.1 194.9,127.8 199.4,127.7 203.8,128.2 208.3,128.6 212.8,128.6 217.3,128.5 221.8,129.3 226.2,130.6 230.7,132.2 235.2,133.9 239.7,135.3 244.2,137.5 248.6,139.7 253.1,141.7 257.6,143.2 262.1,144.2 266.6,145.7 271.0,146.8 275.5,148.7 280.0,150.8 284.5,152.9 289.0,155.3 293.4,157.8 297.9,160.3 302.4,162.7 306.9,165.1 311.4,167.6 315.8,171.0 320.3,173.1 324.8,175.9 329.3,178.8 333.8,181.7 338.2,184.6 342.7,186.5 347.2,188.8 351.7,190.8 356.2,192.6 360.6,194.6 365.1,197.1 369.6,199.4 374.1,202.2 378.6,205.2 383.0,208.8 387.5,211.9 392.0,215.5 396.5,218.9 401.0,222.7 405.4,225.2 409.9,228.1 414.4,231.3 418.9,234.2 423.4,237.1 427.8,240.0 432.3,242.4 436.8,245.1 441.3,248.0 445.8,251.4 450.2,255.1 454.7,258.1 459.2,261.6 463.7,264.1 468.2,266.1 472.6,269.5 477.1,271.7 481.6,274.0 486.1,276.8 490.6,278.7 495.0,280.4 499.5,282.1 504.0,283.2 508.5,283.9 513.0,284.3 517.4,284.7 521.9,285.1 526.4,285.4 530.9,286.0 535.4,286.5 539.8,286.4 544.3,286.6 548.8,286.8 553.3,287.5 557.8,288.6 562.2,289.8 566.7,291.4 571.2,293.8 575.7,295.6 580.2,297.3 584.6,298.8 589.1,299.4 593.6,300.4 598.1,301.1 602.6,301.5 607.0,301.9 611.5,301.9 616.0,302.0 620.5,302.0 625.0,301.7 629.4,301.2 633.9,300.5 638.4,299.6 642.9,298.8 647.4,298.0 651.8,297.2 656.3,296.5 660.8,295.8 665.3,295.1 669.8,294.5 674.2,294.0 678.7,293.3 683.2,292.6 687.7,291.8 692.2,291.1 696.6,290.5 701.1,289.7 705.6,288.9 710.1,288.1 714.6,287.4 719.0,286.6 723.5,285.9 728.0,285.2 732.5,284.5 737.0,283.8 741.4,283.0 745.9,282.4 750.4,281.6 754.9,280.9 759.4,280.2 763.8,279.6 768.3,279.0 772.8,278.4 777.3,278.0 781.8,277.6 786.2,277.4 790.7,277.2 795.2,277.1 799.7,276.9 804.2,276.8 808.6,276.9 813.1,277.0 817.6,277.2 822.1,277.3 826.6,277.3 831.0,277.2 835.5,277.1 840.0,276.8 844.5,276.4 849.0,276.0 853.4,275.5 857.9,274.9 862.4,274.2 866.9,273.4 871.4,272.6 875.8,271.8 880.3,271.1 884.8,270.4 889.3,269.8 893.8,269.1 898.2,268.3 902.7,267.6 907.2,266.8 907.2,416.9 902.7,415.0 898.2,413.0 893.8,410.9 889.3,408.8 884.8,406.7 880.3,404.5 875.8,402.1 871.4,399.8 866.9,397.4 862.4,395.1 857.9,392.7 853.4,390.5 849.0,388.3 844.5,386.0 840.0,383.9 835.5,381.8 831.0,379.7 826.6,377.7 822.1,375.8 817.6,374.0 813.1,372.1 808.6,370.2 804.2,368.3 799.7,366.3 795.2,364.4 790.7,362.5 786.2,360.6 781.8,358.9 777.3,357.4 772.8,356.0 768.3,354.9 763.8,353.7 759.4,352.5 754.9,351.5 750.4,350.6 745.9,349.7 741.4,348.8 737.0,348.0 732.5,347.2 728.0,346.3 723.5,345.5 719.0,344.6 714.6,343.7 710.1,342.7 705.6,341.9 701.1,341.1 696.6,340.2 692.2,339.2 687.7,338.2 683.2,337.3 678.7,336.4 674.2,335.7 669.8,335.2 665.3,334.6 660.8,334.2 656.3,333.8 651.8,333.5 647.4,333.3 642.9,333.0 638.4,332.5 633.9,331.8 629.4,331.0 625.0,330.4 620.5,329.9 616.0,329.3 611.5,328.7 607.0,328.2 602.6,327.4 598.1,326.5 593.6,325.6 589.1,324.4 584.6,323.5 580.2,321.9 575.7,320.3 571.2,318.5 566.7,316.0 562.2,314.0 557.8,312.4 553.3,310.7 548.8,309.4 544.3,308.5 539.8,307.8 535.4,307.3 530.9,306.2 526.4,305.1 521.9,304.3 517.4,303.4 513.0,302.5 508.5,301.8 504.0,300.7 499.5,299.2 495.0,297.1 490.6,295.1 486.1,292.8 481.6,289.6 477.1,287.0 472.6,284.4 468.2,280.6 463.7,278.2 459.2,275.3 454.7,271.5 450.2,268.0 445.8,263.9 441.3,260.1 436.8,256.7 432.3,253.7 427.8,250.8 423.4,247.6 418.9,244.3 414.4,241.0 409.9,237.3 405.4,234.0 401.0,230.9 396.5,226.6 392.0,222.7 387.5,218.8 383.0,215.3 378.6,211.3 374.1,208.0 369.6,204.9 365.1,202.2 360.6,199.4 356.2,197.1 351.7,195.0 347.2,192.8 342.7,190.2 338.2,188.0 333.8,185.0 329.3,181.8 324.8,178.8 320.3,175.7 315.8,173.5 311.4,170.0 306.9,167.3 302.4,164.7 297.9,162.2 293.4,159.5 289.0,157.0 284.5,154.4 280.0,152.2 275.5,149.9 271.0,147.8 266.6,146.5 262.1,145.0 257.6,143.9 253.1,142.4 248.6,140.3 244.2,138.1 239.7,135.9 235.2,134.5 230.7,132.8 226.2,131.2 221.8,130.0 217.3,129.1 212.8,129.2 208.3,129.2 203.8,128.8 199.4,128.2 194.9,128.2 190.4,128.5 185.9,127.9 181.4,126.8 177.0,125.8 172.5,124.6 168.0,123.2 163.5,120.9 159.0,120.1 154.6,117.1 150.1,114.0 145.6,107.8" stroke="none" stroke-width="0.9000"  fill="#74C476" clip-path="url(#axis_clip)"/>
<polyline class="pl" points="145.6,107.8 150.1,114.0 154.6,117.1 159.0,120.1 163.5,120.9 168.0,123.2 172.5,124.6 177.0,125.8 181.4,126.7 185.9,127.6 190.4,128.1 194.9,127.8 199.4,127.7 203.8,128.2 208.3,128.6 212.8,128.6 217.3,128.5 221.8,129.3 226.2,130.6 230.7,132.2 235.2,133.9 239.7,135.3 244.2,137.5 248.6,139.7 253.1,141.7 257.6,143.2 262.1,144.2 266.6,145.7 271.0,146.8 275.5,148.7 280.0,150.8 284.5,152.9 289.0,155.3 293.4,157.8 297.9,160.3 302.4,162.7 306.9,165.1 311.4,167.6 315.8,171.0 320.3,173.1 324.8,175.9 329.3,178.8 333.8,181.7 338.2,184.6 342.7,186.5 347.2,188.8 351.7,190.8 356.2,192.6 360.6,194.6 365.1,197.1 369.6,199.4 374.1,202.2 378.6,205.2 383.0,208.8 387.5,211.9 392.0,215.5 396.5,218.9 401.0,222.7 405.4,225.2 409.9,228.1 414.4,231.3 418.9,234.2 423.4,237.1 427.8,240.0 432.3,242.4 436.8,245.1 441.3,248.0 445.8,251.4 450.2,255.1 454.7,258.1 459.2,261.6 463.7,264.1 468.2,266.1 472.6,269.5 477.1,271.7 481.6,274.0 486.1,276.8 490.6,278.7 495.0,280.4 499.5,282.1 504.0,283.2 508.5,283.9 513.0,284.3 517.4,284.7 521.9,285.1 526.4,285.4 530.9,286.0 535.4,286.5 539.8,286.4 544.3,286.6 548.8,286.8 553.3,287.5 557.8,288.6 562.2,289.8 566.7,291.4 571.2,293.8 575.7,295.6 580.2,297.3 584.6,298.8 589.1,299.4 593.6,300.4 598.1,301.1 602.6,301.5 607.0,301.9 611.5,301.9 616.0,302.0 620.5,302.0 625.0,301.7 629.4,301.2 633.9,300.5 638.4,299.6 642.9,298.8 647.4,298.0 651.8,297.2 656.3,296.5 660.8,295.8 665.3,295.1 669.8,294.5 674.2,294.0 678.7,293.3 683.2,292.6 687.7,291.8 692.2,291.1 696.6,290.5 701.1,289.7 705.6,288.9 710.1,288.1 714.6,287.4 719.0,286.6 723.5,285.9 728.0,285.2 732.5,284.5 737.0,283.8 741.4,283.0 745.9,282.4 750.4,281.6 754.9,280.9 759.4,280.2 763.8,279.6 768.3,279.0 772.8,278.4 777.3,278.0 781.8,277.6 786.2,277.4 790.7,277.2 795.2,277.1 799.7,276.9 804.2,276.8 808.6,276.9 813.1,277.0 817.6,277.2 822.1,277.3 826.6,277.3 831.0,277.2 835.5,277.1 840.0,276.8 844.5,276.4 849.0,276.0 853.4,275.5 857.9,274.9 862.4,274.2 866.9,273.4 871.4,272.6 875.8,271.8 880.3,271.1 884.8,270.4 889.3,269.8 893.8,269.1 898.2,268.3 902.7,267.6 907.2,266.8" stroke="#000" stroke-width="0.90" stroke-opacity="1.00" fill="none" clip-path="url(#axis_clip)"/>
  </g>
  <g class="pg_1">
    <polygon class="pl" points="145.6,107.8 150.1,114.0 154.6,117.1 159.0,120.1 163.5,120.9 168.0,123.2 172.5,124.6 177.0,125.8 181.4,126.8 185.9,127.9 190.4,128.5 194.9,128.2 199.4,128.2 203.8,128.8 208.3,129.2 212.8,129.2 217.3,129.1 221.8,130.0 226.2,131.2 230.7,132.8 235.2,134.5 239.7,135.9 244.2,138.1 248.6,140.3 253.1,142.4 257.6,143.9 262.1,145.0 266.6,146.5 271.0,147.8 275.5,149.9 280.0,152.2 284.5,154.4 289.0,157.0 293.4,159.5 297.9,162.2 302.4,164.7 306.9,167.3 311.4,170.0 315.8,173.5 320.3,175.7 324.8,178.8 329.3,181.8 333.8,185.0 338.2,188.0 342.7,190.2 347.2,192.8 351.7,195.0 356.2,197.1 360.6,199.4 365.1,202.2 369.6,204.9 374.1,208.0 378.6,211.3 383.0,215.3 387.5,218.8 392.0,222.7 396.5,226.6 401.0,230.9 405.4,234.0 409.9,237.3 414.4,241.0 418.9,244.3 423.4,247.6 427.8,250.8 432.3,253.7 436.8,256.7 441.3,260.1 445.8,263.9 450.2,268.0 454.7,271.5 459.2,275.3 463.7,278.2 468.2,280.6 472.6,284.4 477.1,287.0 481.6,289.6 486.1,292.8 490.6,295.1 495.0,297.1 499.5,299.2 504.0,300.7 508.5,301.8 513.0,302.5 517.4,303.4 521.9,304.3 526.4,305.1 530.9,306.2 535.4,307.3 539.8,307.8 544.3,308.5 548.8,309.4 553.3,310.7 557.8,312.4 562.2,314.0 566.7,316.0 571.2,318.5 575.7,320.3 580.2,321.9 584.6,323.5 589.1,324.4 593.6,325.6 598.1,326.5 602.6,327.4 607.0,328.2 611.5,328.7 616.0,329.3 620.5,329.9 625.0,330.4 629.4,331.0 633.9,331.8 638.4,332.5 642.9,333.0 647.4,333.3 651.8,333.5 656.3,333.8 660.8,334.2 665.3,334.6 669.8,335.2 674.2,335.7 678.7,336.4 683.2,337.3 687.7,338.2 692.2,339.2 696.6,340.2 701.1,341.1 705.6,341.9 710.1,342.7 714.6,343.7 719.0,344.6 723.5,345.5 728.0,346.3 732.5,347.2 737.0,348.0 741.4,348.8 745.9,349.7 750.4,350.6 754.9,351.5 759.4,352.5 763.8,353.7 768.3,354.9 772.8,356.0 777.3,357.4 781.8,358.9 786.2,360.6 790.7,362.5 795.2,364.4 799.7,366.3 804.2,368.3 808.6,370.2 813.1,372.1 817.6,374.0 822.1,375.8 826.6,377.7 831.0,379.7 835.5,381.8 840.0,383.9 844.5,386.0 849.0,388.3 853.4,390.5 857.9,392.7 862.4,395.1 866.9,397.4 871.4,399.8 875.8,402.1 880.3,404.5 884.8,406.7 889.3,408.8 893.8,410.9 898.2,413.0 902.7,415.0 907.2,416.9 907.2,587.2 145.6,587.2" stroke="none" stroke-width="0.9000"  fill="#FD8D3C" clip-path="url(#axis_clip)"/>
<polyline class="pl" points="145.6,107.8 150.1,114.0 154.6,117.1 159.0,120.1 163.5,120.9 168.0,123.2 172.5,124.6 177.0,125.8 181.4,126.8 185.9,127.9 190.4,128.5 194.9,128.2 199.4,128.2 203.8,128.8 208.3,129.2 212.8,129.2 217.3,129.1 221.8,130.0 226.2,131.2 230.7,132.8 235.2,134.5 239.7,135.9 244.2,138.1 248.6,140.3 253.1,142.4 257.6,143.9 262.1,145.0 266.6,146.5 271.0,147.8 275.5,149.9 280.0,152.2 284.5,154.4 289.0,157.0 293.4,159.5 297.9,162.2 302.4,164.7 306.9,167.3 311.4,170.0 315.8,173.5 320.3,175.7 324.8,178.8 329.3,181.8 333.8,185.0 338.2,188.0 342.7,190.2 347.2,192.8 351.7,195.0 356.2,197.1 360.6,199.4 365.1,202.2 369.6,204.9 374.1,208.0 378.6,211.3 383.0,215.3 387.5,218.8 392.0,222.7 396.5,226.6 401.0,230.9 405.4,234.0 409.9,237.3 414.4,241.0 418.9,244.3 423.4,247.6 427.8,250.8 432.3,253.7 436.8,256.7 441.3,260.1 445.8,263.9 450.2,268.0 454.7,271.5 459.2,275.3 463.7,278.2 468.2,280.6 472.6,284.4 477.1,287.0 481.6,289.6 486.1,292.8 490.6,295.1 495.0,297.1 499.5,299.2 504.0,300.7 508.5,301.8 513.0,302.5 517.4,303.4 521.9,304.3 526.4,305.1 530.9,306.2 535.4,307.3 539.8,307.8 544.3,308.5 548.8,309.4 553.3,310.7 557.8,312.4 562.2,314.0 566.7,316.0 571.2,318.5 575.7,320.3 580.2,321.9 584.6,323.5 589.1,324.4 593.6,325.6 598.1,326.5 602.6,327.4 607.0,328.2 611.5,328.7 616.0,329.3 620.5,329.9 625.0,330.4 629.4,331.0 633.9,331.8 638.4,332.5 642.9,333.0 647.4,333.3 651.8,333.5 656.3,333.8 660.8,334.2 665.3,334.6 669.8,335.2 674.2,335.7 678.7,336.4 683.2,337.3 687.7,338.2 692.2,339.2 696.6,340.2 701.1,341.1 705.6,341.9 710.1,342.7 714.6,343.7 719.0,344.6 723.5,345.5 728.0,346.3 732.5,347.2 737.0,348.0 741.4,348.8 745.9,349.7 750.4,350.6 754.9,351.5 759.4,352.5 763.8,353.7 768.3,354.9 772.8,356.0 777.3,357.4 781.8,358.9 786.2,360.6 790.7,362.5 795.2,364.4 799.7,366.3 804.2,368.3 808.6,370.2 813.1,372.1 817.6,374.0 822.1,375.8 826.6,377.7 831.0,379.7 835.5,381.8 840.0,383.9 844.5,386.0 849.0,388.3 853.4,390.5 857.9,392.7 862.4,395.1 866.9,397.4 871.4,399.8 875.8,402.1 880.3,404.5 884.8,406.7 889.3,408.8 893.8,410.9 898.2,413.0 902.7,415.0 907.2,416.9" stroke="#000" stroke-width="0.90" stroke-opacity="1.00" fill="none" clip-path="url(#axis_clip)"/>
  </g>
</g>
<text transform="translate(925.2,502.1)" dy="8.1" font-size="27.00" fill="#FD8D3C" stroke="none">Europe</text>
<text transform="translate(925.2,341.9)" dy="8.1" font-size="27.00" fill="#74C476" stroke="none">Asia</text>
<text transform="translate(925.2,259.1)" dy="8.1" font-size="27.00" fill="#6BAED6" stroke="none">Africa</text>
<text transform="translate(925.2,175.4)" dy="8.1" font-size="27.00" fill="#DF65B0" stroke="none">North America</text>
<text transform="translate(925.2,105.8)" dy="8.1" font-size="27.00" fill="#F2D03A" stroke="none">South America</text>
<text transform="translate(925.2,79.9)" dy="8.1" font-size="27.00" fill="#DB4E15" stroke="none">Middle East</text>
<text transform="translate(925.2,54.0)" dy="8.1" font-size="27.00" fill="#933E1C" stroke="none">Oceania</text>
<text transform="translate(145.6,47.2)" dy="0.0" font-size="27.00" fill="#808080" stroke="none">Cumulative Shares of Historical Fossil CO<tspan dy="0.2em"><tspan style="font-size:70%">2</tspan></tspan><tspan dy="-0.2em"> </tspan>Emissions</text>
<text transform="translate(160.1,666.1)" font-size="19.80" fill="#BFBFBF" stroke="none" xml:space="preserve">Global Carbon Project</text>
<g class="cc">
  <rect x="123.0" y="651.4" width="34" height="17" fill="#FFF" stroke="none"/>
  <g transform="translate(124.0,652.4) scale(0.24)">
  <g><circle fill="#FFF" cx="37.79" cy="28.5" r="28.84"/>
     <circle fill="none" cx="37.79" cy="28.5" r="28.84" stroke="#000" stroke-width="5.5"/>
     <path d="M37.16,23.19 l-4.29,2.23c-0.458-0.951-1.02-1.62-1.69-2c-0.667-0.38-1.29-0.571-1.86-0.571c-2.86,0-4.29,1.89-4.29,5.66 c0,1.71,0.36,3.08,1.09,4.11c0.724,1.03,1.79,1.54,3.2,1.54c1.87,0,3.18-0.915,3.94-2.74l3.94,2 c-0.838,1.56-2,2.79-3.49,3.69c-1.48,0.896-3.12,1.34-4.91,1.34c-2.86,0-5.16-0.875-6.92-2.63 c-1.75-1.75-2.63-4.19-2.63-7.31c0-3.05,0.886-5.47,2.66-7.26c1.77-1.79,4.01-2.69,6.72-2.69 C32.6,18.56,35.44,20.1,37.16,23.19z
              M55.61,23.19l-4.23,2.23c-0.457-0.951-1.02-1.62-1.69-2 c-0.668-0.38-1.31-0.571-1.91-0.571c-2.86,0-4.29,1.89-4.29,5.66c0,1.71,0.363,3.08,1.09,4.11 c0.723,1.03,1.79,1.54,3.2,1.54c1.87,0,3.18-0.915,3.94-2.74l4,2c-0.875,1.56-2.06,2.79-3.54,3.69 c-1.49,0.9-3.11,1.34-4.86,1.34c-2.9,0-5.21-0.875-6.94-2.63c-1.74-1.75-2.6-4.19-2.6-7.31 c0-3.05,0.885-5.47,2.66-7.26c1.77-1.79,4.01-2.69,6.71-2.69C51.12,18.56,53.944,20.1,55.61,23.19z"/>
  </g></g>
  <g transform="translate(140.2,652.4) scale(0.24)">
  <g><circle fill="#FFF" cx="37.79" cy="28.5" r="28.84"/>
     <circle fill="none" cx="37.79" cy="28.5" r="28.84" stroke="#000" stroke-width="5.5"/>
     <path d="M46.129,20.557v13.085h-3.656v15.542h-9.944V33.643h-3.656V20.557 c0-0.572,0.2-1.057,0.599-1.457c0.401-0.399,0.887-0.6,1.457-0.6h13.144c0.533,0,1.01,0.2,1.428,0.6 C45.918,19.5,46.129,19.986,46.129,20.557z
              M33.042,12.329c0-3.008,1.485-4.514,4.458-4.514s4.457,1.504,4.457,4.514 c0,2.971-1.486,4.457-4.457,4.457S33.042,15.3,33.042,12.329z"/>
  </g></g>
</g>
</g>
</svg>
