<svg version="1.1" xmlns="http://www.w3.org/2000/svg" xmlns:xlink="http://www.w3.org/1999/xlink" width="100%" height="100%" viewBox="0 0 1200.000 674.916">
<title>Annual Greenhouse Gas Emissions: Australia</title>
<style type="text/css">
  #main {font-family:Helvetica,Arial,sans-serif; font-size:27.00px;
         fill-opacity:1; fill:#000000; stroke:none; stroke-linejoin:round; stroke-linecap:round; stroke-width:1.00;}
  .marker {stroke-opacity:0;fill-opacity:0;}
  .marker:hover {stroke-opacity:0.5; fill-opacity:1;}
  .ticklabel {font-size:27.00px;fill:#808080;stroke:none;font-family:Helvetica}
  .ytl {text-anchor:end;}
  .dp1 {pointer-events:none;font-size:70%;text-anchor:middle;fill:#000000;}
  .dp2 {pointer-events:none;font-size:70%;text-anchor:middle;fill:#FFFFFF;}
  .numtip {pointer-events:none;}
  .cc {opacity:0.25;}
.dl_fe {background-color:#FDFFDF;display:flex;margin:auto;align-items:center}
.dl_fe_p {font-size:20px;text-align:center;margin:3px}
.dl_el {display:none;pointer-events:none;}
.cc:hover + .dl_el {display:block;}
text:hover + .dl_el {display:block;}
</style>
<defs>
  <clipPath id="axis_clip"><rect x="145.8" y="54.2" width="761.2" height="532.8" /></clipPath>
  <path id="line_y" d="M 0,53.993 v 533.183" stroke="#262626" stroke-opacity="0.15" stroke-width="1.00"/>
  <path id="line_x" d="M 145.600,0 h 761.600" stroke="#262626" stroke-opacity="0.15" stroke-width="1.00"/>
  <path id="tick_y" d="M 145.600,0 h -6.000" stroke="#808080" stroke-width="0.90"/>
  <path id="tick_x" d="M 0,587.177 v 6.000" stroke="#808080" stroke-width="0.90"/>
</defs>
<g id="main">
<use xlink:href="#line_y" transform="translate(156.5,0)"/>
<use xlink:href="#line_y" transform="translate(265.3,0)"/>
<use xlink:href="#line_y" transform="translate(374.1,0)"/>
<use xlink:href="#line_y" transform="translate(482.9,0)"/>
<use xlink:href="#line_y" transform="translate(591.7,0)"/>
<use xlink:href="#line_y" transform="translate(700.5,0)"/>
<use xlink:href="#line_y" transform="translate(809.3,0)"/>
<use xlink:href="#line_y" transform="translate(896.3,0)"/>
<use xlink:href="#line_x" transform="translate(0,520.5)"/>
<use xlink:href="#line_x" transform="translate(0,387.2)"/>
<use xlink:href="#line_x" transform="translate(0,253.9)"/>
<use xlink:href="#line_x" transform="translate(0,120.6)"/>
<use xlink:href="#tick_y" transform="translate(0,520.5)"/>
<use xlink:href="#tick_y" transform="translate(0,387.2)"/>
<use xlink:href="#tick_y" transform="translate(0,253.9)"/>
<use xlink:href="#tick_y" transform="translate(0,120.6)"/>
<use xlink:href="#tick_x" transform="translate(156.5,0)"/>
<use xlink:href="#tick_x" transform="translate(265.3,0)"/>
<use xlink:href="#tick_x" transform="translate(374.1,0)"/>
<use xlink:href="#tick_x" transform="translate(482.9,0)"/>
<use xlink:href="#tick_x" transform="translate(591.7,0)"/>
<use xlink:href="#tick_x" transform="translate(700.5,0)"/>
<use xlink:href="#tick_x" transform="translate(809.3,0)"/>
<use xlink:href="#tick_x" transform="translate(896.3,0)"/>
<polyline points="145.6,53.993 145.6,587.177 907.2,587.177" stroke="#808080" stroke-width="0.90" fill="none"/>
<text class="ticklabel xtl" transform="translate(156.5,629.0)" text-anchor="middle">1990</text>
<text class="ticklabel xtl" transform="translate(265.3,629.0)" text-anchor="middle">1995</text>
<text class="ticklabel xtl" transform="translate(374.1,629.0)" text-anchor="middle">2000</text>
<text class="ticklabel xtl" transform="translate(482.9,629.0)" text-anchor="middle">2005</text>
<text class="ticklabel xtl" transform="translate(591.7,629.0)" text-anchor="middle">2010</text>
<text class="ticklabel xtl" transform="translate(700.5,629.0)" text-anchor="middle">2015</text>
<text class="ticklabel xtl" transform="translate(809.3,629.0)" text-anchor="middle">2020</text>
<text class="ticklabel xtl" transform="translate(896.3,629.0)" text-anchor="middle">2024</text>
<text class="ticklabel ytl" transform="translate(128.8,528.6)">0</text>
<text class="ticklabel ytl" transform="translate(128.8,395.3)">200</text>
<text class="ticklabel ytl" transform="translate(128.8,262.0)">400</text>
<text class="ticklabel ytl" transform="translate(128.8,128.7)">600 Mt</text>
<g stroke="#000" stroke-width="0.90" fill="#7FBF7F"  clip-path="url(#axis_clip)">
  <polygon class="pl" points="147.8,110.1 147.8,230.1 165.2,230.1 165.2,110.1 147.8,110.1"/>
  <polygon class="pl" points="169.5,122.9 169.5,230.0 186.9,230.0 186.9,122.9 169.5,122.9"/>
  <polygon class="pl" points="191.3,148.9 191.3,227.4 208.7,227.4 208.7,148.9 191.3,148.9"/>
  <polygon class="pl" points="213.1,162.8 213.1,227.1 230.5,227.1 230.5,162.8 213.1,162.8"/>
  <polygon class="pl" points="234.8,169.6 234.8,226.9 252.2,226.9 252.2,169.6 234.8,169.6"/>
  <polygon class="pl" points="256.6,177.7 256.6,220.9 274.0,220.9 274.0,177.7 256.6,177.7"/>
  <polygon class="pl" points="278.3,176.6 278.3,216.8 295.7,216.8 295.7,176.6 278.3,176.6"/>
  <polygon class="pl" points="300.1,177.6 300.1,208.8 317.5,208.8 317.5,177.6 300.1,177.6"/>
  <polygon class="pl" points="321.9,165.4 321.9,199.2 339.3,199.2 339.3,165.4 321.9,165.4"/>
  <polygon class="pl" points="343.6,151.6 343.6,195.2 361.0,195.2 361.0,151.6 343.6,151.6"/>
  <polygon class="pl" points="365.4,137.3 365.4,187.6 382.8,187.6 382.8,137.3 365.4,137.3"/>
  <polygon class="pl" points="387.1,127.1 387.1,182.4 404.5,182.4 404.5,127.1 387.1,127.1"/>
  <polygon class="pl" points="408.9,124.4 408.9,180.1 426.3,180.1 426.3,124.4 408.9,124.4"/>
  <polygon class="pl" points="430.7,124.6 430.7,179.6 448.1,179.6 448.1,124.6 430.7,124.6"/>
  <polygon class="pl" points="452.4,137.0 452.4,170.1 469.8,170.1 469.8,137.0 452.4,137.0"/>
  <polygon class="pl" points="474.2,115.5 474.2,166.7 491.6,166.7 491.6,115.5 474.2,115.5"/>
  <polygon class="pl" points="495.9,91.3 495.9,163.3 513.3,163.3 513.3,91.3 495.9,91.3"/>
  <polygon class="pl" points="517.7,102.8 517.7,158.0 535.1,158.0 535.1,102.8 517.7,102.8"/>
  <polygon class="pl" points="539.5,109.4 539.5,155.9 556.9,155.9 556.9,109.4 539.5,109.4"/>
  <polygon class="pl" points="561.2,113.2 561.2,154.6 578.6,154.6 578.6,113.2 561.2,113.2"/>
  <polygon class="pl" points="583.0,112.1 583.0,157.8 600.4,157.8 600.4,112.1 583.0,112.1"/>
  <polygon class="pl" points="604.7,132.7 604.7,156.5 622.1,156.5 622.1,132.7 604.7,132.7"/>
  <polygon class="pl" points="626.5,149.5 626.5,155.3 643.9,155.3 643.9,149.5 626.5,149.5"/>
  <polygon class="pl" points="648.3,147.6 648.3,160.3 665.7,160.3 665.7,147.6 648.3,147.6"/>
  <polygon class="pl" points="670.0,159.9 670.0,165.4 687.4,165.4 687.4,159.9 670.0,159.9"/>
</g>
<g stroke="#000" stroke-width="0.90" fill="#DBA746"  clip-path="url(#axis_clip)">
  <polygon class="pl" points="147.8,230.1 147.8,245.8 165.2,245.8 165.2,230.1 147.8,230.1"/>
  <polygon class="pl" points="169.5,230.0 169.5,245.6 186.9,245.6 186.9,230.0 169.5,230.0"/>
  <polygon class="pl" points="191.3,227.4 191.3,242.8 208.7,242.8 208.7,227.4 191.3,227.4"/>
  <polygon class="pl" points="213.1,227.1 213.1,242.4 230.5,242.4 230.5,227.1 213.1,227.1"/>
  <polygon class="pl" points="234.8,226.9 234.8,241.7 252.2,241.7 252.2,226.9 234.8,226.9"/>
  <polygon class="pl" points="256.6,220.9 256.6,235.6 274.0,235.6 274.0,220.9 256.6,220.9"/>
  <polygon class="pl" points="278.3,216.8 278.3,230.3 295.7,230.3 295.7,216.8 278.3,216.8"/>
  <polygon class="pl" points="300.1,208.8 300.1,222.1 317.5,222.1 317.5,208.8 300.1,208.8"/>
  <polygon class="pl" points="321.9,199.2 321.9,211.9 339.3,211.9 339.3,199.2 321.9,199.2"/>
  <polygon class="pl" points="343.6,195.2 343.6,208.0 361.0,208.0 361.0,195.2 343.6,195.2"/>
  <polygon class="pl" points="365.4,187.6 365.4,200.0 382.8,200.0 382.8,187.6 365.4,187.6"/>
  <polygon class="pl" points="387.1,182.4 387.1,195.0 404.5,195.0 404.5,182.4 387.1,182.4"/>
  <polygon class="pl" points="408.9,180.1 408.9,192.8 426.3,192.8 426.3,180.1 408.9,180.1"/>
  <polygon class="pl" points="430.7,179.6 430.7,190.5 448.1,190.5 448.1,179.6 430.7,179.6"/>
  <polygon class="pl" points="452.4,170.1 452.4,180.7 469.8,180.7 469.8,170.1 452.4,170.1"/>
  <polygon class="pl" points="474.2,166.7 474.2,177.2 491.6,177.2 491.6,166.7 474.2,166.7"/>
  <polygon class="pl" points="495.9,163.3 495.9,173.7 513.3,173.7 513.3,163.3 495.9,163.3"/>
  <polygon class="pl" points="517.7,158.0 517.7,168.6 535.1,168.6 535.1,158.0 517.7,158.0"/>
  <polygon class="pl" points="539.5,155.9 539.5,166.9 556.9,166.9 556.9,155.9 539.5,155.9"/>
  <polygon class="pl" points="561.2,154.6 561.2,165.5 578.6,165.5 578.6,154.6 561.2,154.6"/>
  <polygon class="pl" points="583.0,157.8 583.0,168.5 600.4,168.5 600.4,157.8 583.0,157.8"/>
  <polygon class="pl" points="604.7,156.5 604.7,167.0 622.1,167.0 622.1,156.5 604.7,156.5"/>
  <polygon class="pl" points="626.5,155.3 626.5,164.8 643.9,164.8 643.9,155.3 626.5,155.3"/>
  <polygon class="pl" points="648.3,160.3 648.3,169.5 665.7,169.5 665.7,160.3 648.3,160.3"/>
  <polygon class="pl" points="670.0,165.4 670.0,174.5 687.4,174.5 687.4,165.4 670.0,165.4"/>
  <polygon class="pl" points="691.8,158.9 691.8,168.3 709.2,168.3 709.2,158.9 691.8,158.9"/>
  <polygon class="pl" points="713.5,153.3 713.5,163.0 730.9,163.0 730.9,153.3 713.5,153.3"/>
  <polygon class="pl" points="735.3,147.5 735.3,157.1 752.7,157.1 752.7,147.5 735.3,147.5"/>
  <polygon class="pl" points="757.1,146.9 757.1,155.6 774.5,155.6 774.5,146.9 757.1,146.9"/>
  <polygon class="pl" points="778.8,151.3 778.8,160.1 796.2,160.1 796.2,151.3 778.8,151.3"/>
  <polygon class="pl" points="800.6,162.7 800.6,171.7 818.0,171.7 818.0,162.7 800.6,162.7"/>
  <polygon class="pl" points="822.3,167.9 822.3,177.1 839.7,177.1 839.7,167.9 822.3,167.9"/>
  <polygon class="pl" points="844.1,170.7 844.1,180.0 861.5,180.0 861.5,170.7 844.1,170.7"/>
  <polygon class="pl" points="865.9,170.1 865.9,179.4 883.3,179.4 883.3,170.1 865.9,170.1"/>
  <polygon class="pl" points="887.6,174.9 887.6,184.2 905.0,184.2 905.0,174.9 887.6,174.9"/>
</g>
<g stroke="#000" stroke-width="0.90" fill="#845F48"  clip-path="url(#axis_clip)">
  <polygon class="pl" points="147.8,245.8 147.8,305.7 165.2,305.7 165.2,245.8 147.8,245.8"/>
  <polygon class="pl" points="169.5,245.6 169.5,305.1 186.9,305.1 186.9,245.6 169.5,245.6"/>
  <polygon class="pl" points="191.3,242.8 191.3,300.5 208.7,300.5 208.7,242.8 191.3,242.8"/>
  <polygon class="pl" points="213.1,242.4 213.1,298.5 230.5,298.5 230.5,242.4 213.1,242.4"/>
  <polygon class="pl" points="234.8,241.7 234.8,297.7 252.2,297.7 252.2,241.7 234.8,241.7"/>
  <polygon class="pl" points="256.6,235.6 256.6,289.6 274.0,289.6 274.0,235.6 256.6,235.6"/>
  <polygon class="pl" points="278.3,230.3 278.3,285.5 295.7,285.5 295.7,230.3 278.3,230.3"/>
  <polygon class="pl" points="300.1,222.1 300.1,278.0 317.5,278.0 317.5,222.1 300.1,222.1"/>
  <polygon class="pl" points="321.9,211.9 321.9,267.8 339.3,267.8 339.3,211.9 321.9,211.9"/>
  <polygon class="pl" points="343.6,208.0 343.6,263.8 361.0,263.8 361.0,208.0 343.6,208.0"/>
  <polygon class="pl" points="365.4,200.0 365.4,257.9 382.8,257.9 382.8,200.0 365.4,200.0"/>
  <polygon class="pl" points="387.1,195.0 387.1,252.1 404.5,252.1 404.5,195.0 387.1,195.0"/>
  <polygon class="pl" points="408.9,192.8 408.9,249.7 426.3,249.7 426.3,192.8 408.9,192.8"/>
  <polygon class="pl" points="430.7,190.5 430.7,244.0 448.1,244.0 448.1,190.5 430.7,190.5"/>
  <polygon class="pl" points="452.4,180.7 452.4,236.2 469.8,236.2 469.8,180.7 452.4,180.7"/>
  <polygon class="pl" points="474.2,177.2 474.2,232.3 491.6,232.3 491.6,177.2 474.2,177.2"/>
  <polygon class="pl" points="495.9,173.7 495.9,228.0 513.3,228.0 513.3,173.7 495.9,173.7"/>
  <polygon class="pl" points="517.7,168.6 517.7,220.7 535.1,220.7 535.1,168.6 517.7,168.6"/>
  <polygon class="pl" points="539.5,166.9 539.5,217.1 556.9,217.1 556.9,166.9 539.5,166.9"/>
  <polygon class="pl" points="561.2,165.5 561.2,215.7 578.6,215.7 578.6,165.5 561.2,165.5"/>
  <polygon class="pl" points="583.0,168.5 583.0,217.1 600.4,217.1 600.4,168.5 583.0,168.5"/>
  <polygon class="pl" points="604.7,167.0 604.7,218.5 622.1,218.5 622.1,167.0 604.7,167.0"/>
  <polygon class="pl" points="626.5,164.8 626.5,217.1 643.9,217.1 643.9,164.8 626.5,164.8"/>
  <polygon class="pl" points="648.3,169.5 648.3,222.0 665.7,222.0 665.7,169.5 648.3,169.5"/>
  <polygon class="pl" points="670.0,174.5 670.0,227.2 687.4,227.2 687.4,174.5 670.0,174.5"/>
  <polygon class="pl" points="691.8,168.3 691.8,219.0 709.2,219.0 709.2,168.3 691.8,168.3"/>
  <polygon class="pl" points="713.5,163.0 713.5,212.9 730.9,212.9 730.9,163.0 713.5,163.0"/>
  <polygon class="pl" points="735.3,157.1 735.3,209.8 752.7,209.8 752.7,157.1 735.3,157.1"/>
  <polygon class="pl" points="757.1,155.6 757.1,207.7 774.5,207.7 774.5,155.6 757.1,155.6"/>
  <polygon class="pl" points="778.8,160.1 778.8,208.2 796.2,208.2 796.2,160.1 778.8,160.1"/>
  <polygon class="pl" points="800.6,171.7 800.6,218.5 818.0,218.5 818.0,171.7 800.6,171.7"/>
  <polygon class="pl" points="822.3,177.1 822.3,227.4 839.7,227.4 839.7,177.1 822.3,177.1"/>
  <polygon class="pl" points="844.1,180.0 844.1,231.1 861.5,231.1 861.5,180.0 844.1,180.0"/>
  <polygon class="pl" points="865.9,179.4 865.9,231.9 883.3,231.9 883.3,179.4 865.9,179.4"/>
  <polygon class="pl" points="887.6,184.2 887.6,234.6 905.0,234.6 905.0,184.2 887.6,184.2"/>
</g>
<g stroke="#000" stroke-width="0.90" fill="#4A89E8"  clip-path="url(#axis_clip)">
  <polygon class="pl" points="147.8,305.7 147.8,322.4 165.2,322.4 165.2,305.7 147.8,305.7"/>
  <polygon class="pl" points="169.5,305.1 169.5,321.3 186.9,321.3 186.9,305.1 169.5,305.1"/>
  <polygon class="pl" points="191.3,300.5 191.3,317.0 208.7,317.0 208.7,300.5 191.3,300.5"/>
  <polygon class="pl" points="213.1,298.5 213.1,314.9 230.5,314.9 230.5,298.5 213.1,298.5"/>
  <polygon class="pl" points="234.8,297.7 234.8,314.3 252.2,314.3 252.2,297.7 234.8,297.7"/>
  <polygon class="pl" points="256.6,289.6 256.6,306.0 274.0,306.0 274.0,289.6 256.6,289.6"/>
  <polygon class="pl" points="278.3,285.5 278.3,301.7 295.7,301.7 295.7,285.5 278.3,285.5"/>
  <polygon class="pl" points="300.1,278.0 300.1,294.2 317.5,294.2 317.5,278.0 300.1,278.0"/>
  <polygon class="pl" points="321.9,267.8 321.9,284.8 339.3,284.8 339.3,267.8 321.9,267.8"/>
  <polygon class="pl" points="343.6,263.8 343.6,281.1 361.0,281.1 361.0,263.8 343.6,263.8"/>
  <polygon class="pl" points="365.4,257.9 365.4,275.1 382.8,275.1 382.8,257.9 365.4,257.9"/>
  <polygon class="pl" points="387.1,252.1 387.1,269.8 404.5,269.8 404.5,252.1 387.1,252.1"/>
  <polygon class="pl" points="408.9,249.7 408.9,267.8 426.3,267.8 426.3,249.7 408.9,249.7"/>
  <polygon class="pl" points="430.7,244.0 430.7,263.7 448.1,263.7 448.1,244.0 430.7,244.0"/>
  <polygon class="pl" points="452.4,236.2 452.4,256.8 469.8,256.8 469.8,236.2 452.4,236.2"/>
  <polygon class="pl" points="474.2,232.3 474.2,252.4 491.6,252.4 491.6,232.3 474.2,232.3"/>
  <polygon class="pl" points="495.9,228.0 495.9,248.4 513.3,248.4 513.3,228.0 495.9,228.0"/>
  <polygon class="pl" points="517.7,220.7 517.7,242.4 535.1,242.4 535.1,220.7 517.7,220.7"/>
  <polygon class="pl" points="539.5,217.1 539.5,238.9 556.9,238.9 556.9,217.1 539.5,217.1"/>
  <polygon class="pl" points="561.2,215.7 561.2,236.0 578.6,236.0 578.6,215.7 561.2,215.7"/>
  <polygon class="pl" points="583.0,217.1 583.0,239.4 600.4,239.4 600.4,217.1 583.0,217.1"/>
  <polygon class="pl" points="604.7,218.5 604.7,241.4 622.1,241.4 622.1,218.5 604.7,218.5"/>
  <polygon class="pl" points="626.5,217.1 626.5,238.4 643.9,238.4 643.9,217.1 626.5,217.1"/>
  <polygon class="pl" points="648.3,222.0 648.3,241.9 665.7,241.9 665.7,222.0 648.3,222.0"/>
  <polygon class="pl" points="670.0,227.2 670.0,247.0 687.4,247.0 687.4,227.2 670.0,227.2"/>
  <polygon class="pl" points="691.8,219.0 691.8,239.4 709.2,239.4 709.2,219.0 691.8,219.0"/>
  <polygon class="pl" points="713.5,212.9 713.5,233.3 730.9,233.3 730.9,212.9 713.5,212.9"/>
  <polygon class="pl" points="735.3,209.8 735.3,230.6 752.7,230.6 752.7,209.8 735.3,209.8"/>
  <polygon class="pl" points="757.1,207.7 757.1,228.9 774.5,228.9 774.5,207.7 757.1,207.7"/>
  <polygon class="pl" points="778.8,208.2 778.8,229.9 796.2,229.9 796.2,208.2 778.8,208.2"/>
  <polygon class="pl" points="800.6,218.5 800.6,239.7 818.0,239.7 818.0,218.5 800.6,218.5"/>
  <polygon class="pl" points="822.3,227.4 822.3,249.2 839.7,249.2 839.7,227.4 822.3,227.4"/>
  <polygon class="pl" points="844.1,231.1 844.1,253.0 861.5,253.0 861.5,231.1 844.1,231.1"/>
  <polygon class="pl" points="865.9,231.9 865.9,253.9 883.3,253.9 883.3,231.9 865.9,231.9"/>
  <polygon class="pl" points="887.6,234.6 887.6,255.2 905.0,255.2 905.0,234.6 887.6,234.6"/>
</g>
<g stroke="#000" stroke-width="0.90" fill="#FF7F61"  clip-path="url(#axis_clip)">
  <polygon class="pl" points="147.8,322.4 147.8,520.5 165.2,520.5 165.2,322.4 147.8,322.4"/>
  <polygon class="pl" points="169.5,321.3 169.5,520.5 186.9,520.5 186.9,321.3 169.5,321.3"/>
  <polygon class="pl" points="191.3,317.0 191.3,520.5 208.7,520.5 208.7,317.0 191.3,317.0"/>
  <polygon class="pl" points="213.1,314.9 213.1,520.5 230.5,520.5 230.5,314.9 213.1,314.9"/>
  <polygon class="pl" points="234.8,314.3 234.8,520.5 252.2,520.5 252.2,314.3 234.8,314.3"/>
  <polygon class="pl" points="256.6,306.0 256.6,520.5 274.0,520.5 274.0,306.0 256.6,306.0"/>
  <polygon class="pl" points="278.3,301.7 278.3,520.5 295.7,520.5 295.7,301.7 278.3,301.7"/>
  <polygon class="pl" points="300.1,294.2 300.1,520.5 317.5,520.5 317.5,294.2 300.1,294.2"/>
  <polygon class="pl" points="321.9,284.8 321.9,520.5 339.3,520.5 339.3,284.8 321.9,284.8"/>
  <polygon class="pl" points="343.6,281.1 343.6,520.5 361.0,520.5 361.0,281.1 343.6,281.1"/>
  <polygon class="pl" points="365.4,275.1 365.4,520.5 382.8,520.5 382.8,275.1 365.4,275.1"/>
  <polygon class="pl" points="387.1,269.8 387.1,520.5 404.5,520.5 404.5,269.8 387.1,269.8"/>
  <polygon class="pl" points="408.9,267.8 408.9,520.5 426.3,520.5 426.3,267.8 408.9,267.8"/>
  <polygon class="pl" points="430.7,263.7 430.7,520.5 448.1,520.5 448.1,263.7 430.7,263.7"/>
  <polygon class="pl" points="452.4,256.8 452.4,520.5 469.8,520.5 469.8,256.8 452.4,256.8"/>
  <polygon class="pl" points="474.2,252.4 474.2,520.5 491.6,520.5 491.6,252.4 474.2,252.4"/>
  <polygon class="pl" points="495.9,248.4 495.9,520.5 513.3,520.5 513.3,248.4 495.9,248.4"/>
  <polygon class="pl" points="517.7,242.4 517.7,520.5 535.1,520.5 535.1,242.4 517.7,242.4"/>
  <polygon class="pl" points="539.5,238.9 539.5,520.5 556.9,520.5 556.9,238.9 539.5,238.9"/>
  <polygon class="pl" points="561.2,236.0 561.2,520.5 578.6,520.5 578.6,236.0 561.2,236.0"/>
  <polygon class="pl" points="583.0,239.4 583.0,520.5 600.4,520.5 600.4,239.4 583.0,239.4"/>
  <polygon class="pl" points="604.7,241.4 604.7,520.5 622.1,520.5 622.1,241.4 604.7,241.4"/>
  <polygon class="pl" points="626.5,238.4 626.5,520.5 643.9,520.5 643.9,238.4 626.5,238.4"/>
  <polygon class="pl" points="648.3,241.9 648.3,520.5 665.7,520.5 665.7,241.9 648.3,241.9"/>
  <polygon class="pl" points="670.0,247.0 670.0,520.5 687.4,520.5 687.4,247.0 670.0,247.0"/>
  <polygon class="pl" points="691.8,239.4 691.8,520.5 709.2,520.5 709.2,239.4 691.8,239.4"/>
  <polygon class="pl" points="713.5,233.3 713.5,520.5 730.9,520.5 730.9,233.3 713.5,233.3"/>
  <polygon class="pl" points="735.3,230.6 735.3,520.5 752.7,520.5 752.7,230.6 735.3,230.6"/>
  <polygon class="pl" points="757.1,228.9 757.1,520.5 774.5,520.5 774.5,228.9 757.1,228.9"/>
  <polygon class="pl" points="778.8,229.9 778.8,520.5 796.2,520.5 796.2,229.9 778.8,229.9"/>
  <polygon class="pl" points="800.6,239.7 800.6,520.5 818.0,520.5 818.0,239.7 800.6,239.7"/>
  <polygon class="pl" points="822.3,249.2 822.3,520.5 839.7,520.5 839.7,249.2 822.3,249.2"/>
  <polygon class="pl" points="844.1,253.0 844.1,520.5 861.5,520.5 861.5,253.0 844.1,253.0"/>
  <polygon class="pl" points="865.9,253.9 865.9,520.5 883.3,520.5 883.3,253.9 865.9,253.9"/>
  <polygon class="pl" points="887.6,255.2 887.6,520.5 905.0,520.5 905.0,255.2 887.6,255.2"/>
</g>
<g stroke="#000" stroke-width="0.90" fill="#7FBF7F"  clip-path="url(#axis_clip)">
  <polygon class="pl" points="691.8,523.9 691.8,520.5 709.2,520.5 709.2,523.9 691.8,523.9"/>
  <polygon class="pl" points="713.5,558.0 713.5,520.5 730.9,520.5 730.9,558.0 713.5,558.0"/>
  <polygon class="pl" points="735.3,537.8 735.3,520.5 752.7,520.5 752.7,537.8 735.3,537.8"/>
  <polygon class="pl" points="757.1,557.7 757.1,520.5 774.5,520.5 774.5,557.7 757.1,557.7"/>
  <polygon class="pl" points="778.8,561.3 778.8,520.5 796.2,520.5 796.2,561.3 778.8,561.3"/>
  <polygon class="pl" points="800.6,560.7 800.6,520.5 818.0,520.5 818.0,560.7 800.6,560.7"/>
  <polygon class="pl" points="822.3,579.7 822.3,520.5 839.7,520.5 839.7,579.7 822.3,579.7"/>
  <polygon class="pl" points="844.1,574.6 844.1,520.5 861.5,520.5 861.5,574.6 844.1,574.6"/>
  <polygon class="pl" points="865.9,547.9 865.9,520.5 883.3,520.5 883.3,547.9 865.9,547.9"/>
  <polygon class="pl" points="887.6,555.3 887.6,520.5 905.0,520.5 905.0,555.3 887.6,555.3"/>
</g>
<polyline class="pl" points="156.5,110.1 178.2,122.9 200.0,148.9 221.8,162.8 243.5,169.6 265.3,177.7 287.0,176.6 308.8,177.6 330.6,165.4 352.3,151.6 374.1,137.3 395.8,127.1 417.6,124.4 439.4,124.6 461.1,137.0 482.9,115.5 504.6,91.3 526.4,102.8 548.2,109.4 569.9,113.2 591.7,112.1 613.4,132.7 635.2,149.5 657.0,147.6 678.7,159.9 700.5,162.3 722.2,190.8 744.0,164.8 765.8,184.0 787.5,192.0 809.3,202.9 831.0,227.0 852.8,224.8 874.6,197.5 896.3,209.7" stroke="#000" stroke-width="5.40" stroke-opacity="1.00" fill="none" clip-path="url(#axis_clip)"/>
<g class="pl" fill="#FFF" stroke="#000" stroke-width="0.900">
  <circle cx="178.2" cy="122.9" r="2.2" />
  <circle cx="200.0" cy="148.9" r="2.2" />
  <circle cx="221.8" cy="162.8" r="2.2" />
  <circle cx="243.5" cy="169.6" r="2.2" />
  <circle cx="265.3" cy="177.7" r="2.2" />
  <circle cx="287.0" cy="176.6" r="2.2" />
  <circle cx="308.8" cy="177.6" r="2.2" />
  <circle cx="330.6" cy="165.4" r="2.2" />
  <circle cx="352.3" cy="151.6" r="2.2" />
  <circle cx="395.8" cy="127.1" r="2.2" />
  <circle cx="417.6" cy="124.4" r="2.2" />
  <circle cx="439.4" cy="124.6" r="2.2" />
  <circle cx="461.1" cy="137.0" r="2.2" />
  <circle cx="482.9" cy="115.5" r="2.2" />
  <circle cx="504.6" cy="91.3" r="2.2" />
  <circle cx="526.4" cy="102.8" r="2.2" />
  <circle cx="548.2" cy="109.4" r="2.2" />
  <circle cx="569.9" cy="113.2" r="2.2" />
  <circle cx="613.4" cy="132.7" r="2.2" />
  <circle cx="635.2" cy="149.5" r="2.2" />
  <circle cx="657.0" cy="147.6" r="2.2" />
  <circle cx="678.7" cy="159.9" r="2.2" />
  <circle cx="700.5" cy="162.3" r="2.2" />
  <circle cx="722.2" cy="190.8" r="2.2" />
  <circle cx="744.0" cy="164.8" r="2.2" />
  <circle cx="765.8" cy="184.0" r="2.2" />
  <circle cx="787.5" cy="192.0" r="2.2" />
  <circle cx="831.0" cy="227.0" r="2.2" />
  <circle cx="852.8" cy="224.8" r="2.2" />
  <circle cx="874.6" cy="197.5" r="2.2" />
  <circle cx="896.3" cy="209.7" r="2.2" />
</g>
<g class="pl" fill="#FFF" stroke="#000" stroke-width="0.900">
  <circle cx="156.5" cy="110.1" r="5.4" />
  <circle cx="374.1" cy="137.3" r="5.4" />
  <circle cx="591.7" cy="112.1" r="5.4" />
  <circle cx="809.3" cy="202.9" r="5.4" />
</g>
<text transform="translate(145.6,47.2)" dy="0.0" font-size="27.00" fill="#808080" stroke="none">Annual Greenhouse Gas Emissions: Australia</text>
<text transform="translate(130.0,148.3)" dy="8.1" font-size="27.00" fill="#808080" stroke="none" text-anchor="end">CO<tspan dy="0.2em"><tspan style="font-size:70%">2</tspan></tspan><tspan dy="-0.2em">e</tspan></text>
<text transform="translate(945.6,228.2)" dy="7.6" font-size="25.20" fill="#000" stroke="none">-24.3% since 1990</text>
<text transform="translate(945.6,387.9)" dy="7.6" font-size="25.20" fill="#FF7F61" stroke="none">Energy</text>
<text transform="translate(945.6,253.2)" dy="7.6" font-size="25.20" fill="#4A89E8" stroke="none">Industrial Processes</text>
<text transform="translate(945.6,203.1)" dy="7.6" font-size="25.20" fill="#845F48" stroke="none">Agriculture</text>
<text transform="translate(945.6,178.1)" dy="7.6" font-size="25.20" fill="#DBA746" stroke="none">Waste</text>
<text transform="translate(945.6,153.1)" dy="7.6" font-size="25.20" fill="#7FBF7F" stroke="none">LULUCF</text>
<text transform="translate(945.6,537.9)" dy="7.6" font-size="25.20" fill="#7FBF7F" stroke="none">LULUCF</text>
<polyline class="pl" points="910.8,209.7 912.4,209.7 913.8,209.9 915.2,210.2 916.4,210.6 917.6,211.1 918.8,211.7 919.8,212.4 920.8,213.1 921.7,213.9 922.7,214.8 923.5,215.6 924.4,216.6 925.2,217.5 926.0,218.4 926.8,219.4 927.6,220.4 928.4,221.3 929.3,222.2 930.1,223.1 931.1,223.9 932.0,224.7 933.0,225.5 934.0,226.1 935.2,226.7 936.4,227.2 937.6,227.6 939.0,227.9 940.4,228.1 942.0,228.2" stroke="#000" stroke-width="0.90" stroke-opacity="1.00" fill="none" />
<polyline class="pl" points="910.8,244.9 912.4,244.9 913.8,245.0 915.2,245.2 916.4,245.3 917.6,245.6 918.8,245.8 919.8,246.1 920.8,246.5 921.7,246.8 922.7,247.2 923.5,247.6 924.4,248.0 925.2,248.4 926.0,248.9 926.8,249.3 927.6,249.7 928.4,250.1 929.3,250.5 930.1,250.9 931.1,251.3 932.0,251.7 933.0,252.0 934.0,252.3 935.2,252.6 936.4,252.8 937.6,253.0 939.0,253.1 940.4,253.2 942.0,253.2" stroke="#4A89E8" stroke-width="0.90" stroke-opacity="1.00" fill="none" />
<polyline class="pl" points="910.8,209.4 912.4,209.4 913.8,209.3 915.2,209.2 916.4,209.1 917.6,208.9 918.8,208.7 919.8,208.5 920.8,208.2 921.7,208.0 922.7,207.7 923.5,207.4 924.4,207.1 925.2,206.8 926.0,206.4 926.8,206.1 927.6,205.8 928.4,205.5 929.3,205.2 930.1,204.9 931.1,204.6 932.0,204.3 933.0,204.1 934.0,203.8 935.2,203.6 936.4,203.5 937.6,203.3 939.0,203.2 940.4,203.2 942.0,203.1" stroke="#845F48" stroke-width="0.90" stroke-opacity="1.00" fill="none" />
<polyline class="pl" points="910.8,179.6 912.4,179.6 913.8,179.5 915.2,179.5 916.4,179.5 917.6,179.4 918.8,179.4 919.8,179.3 920.8,179.3 921.7,179.2 922.7,179.2 923.5,179.1 924.4,179.0 925.2,178.9 926.0,178.9 926.8,178.8 927.6,178.7 928.4,178.6 929.3,178.6 930.1,178.5 931.1,178.4 932.0,178.4 933.0,178.3 934.0,178.3 935.2,178.2 936.4,178.2 937.6,178.1 939.0,178.1 940.4,178.1 942.0,178.1" stroke="#DBA746" stroke-width="0.90" stroke-opacity="1.00" fill="none" />
<polyline class="pl" points="910.8,172.2 912.4,172.1 913.8,171.9 915.2,171.6 916.4,171.2 917.6,170.7 918.8,170.0 919.8,169.4 920.8,168.6 921.7,167.8 922.7,166.9 923.5,166.0 924.4,165.1 925.2,164.1 926.0,163.1 926.8,162.1 927.6,161.1 928.4,160.2 929.3,159.2 930.1,158.3 931.1,157.4 932.0,156.6 933.0,155.9 934.0,155.2 935.2,154.6 936.4,154.1 937.6,153.6 939.0,153.3 940.4,153.1 942.0,153.1" stroke="#7FBF7F" stroke-width="0.90" stroke-opacity="1.00" fill="none" />
<text transform="translate(160.0,666.1)" font-size="19.80" font-family="Helvetica" fill="#BFBFBF" stroke="none" xml:space="preserve">CICERO   &#9679;   Data: UNFCCC (2026)</text>
<g>
  <rect x="123.0" y="651.4" width="34" height="17" fill="#FFF" stroke="none" opacity="0.01"/>
  <g transform="translate(124.0,652.4) scale(0.24)">
  <g><circle fill="#FFF" cx="37.79" cy="28.5" r="28.84"/>
     <circle fill="none" cx="37.79" cy="28.5" r="28.84" stroke="#BFBFBF" stroke-width="5.5"/>
     <path fill="#BFBFBF" d="M37.16,23.19 l-4.29,2.23c-0.458-0.951-1.02-1.62-1.69-2c-0.667-0.38-1.29-0.571-1.86-0.571c-2.86,0-4.29,1.89-4.29,5.66 c0,1.71,0.36,3.08,1.09,4.11c0.724,1.03,1.79,1.54,3.2,1.54c1.87,0,3.18-0.915,3.94-2.74l3.94,2 c-0.838,1.56-2,2.79-3.49,3.69c-1.48,0.896-3.12,1.34-4.91,1.34c-2.86,0-5.16-0.875-6.92-2.63 c-1.75-1.75-2.63-4.19-2.63-7.31c0-3.05,0.886-5.47,2.66-7.26c1.77-1.79,4.01-2.69,6.72-2.69 C32.6,18.56,35.44,20.1,37.16,23.19z
              M55.61,23.19l-4.23,2.23c-0.457-0.951-1.02-1.62-1.69-2 c-0.668-0.38-1.31-0.571-1.91-0.571c-2.86,0-4.29,1.89-4.29,5.66c0,1.71,0.363,3.08,1.09,4.11 c0.723,1.03,1.79,1.54,3.2,1.54c1.87,0,3.18-0.915,3.94-2.74l4,2c-0.875,1.56-2.06,2.79-3.54,3.69 c-1.49,0.9-3.11,1.34-4.86,1.34c-2.9,0-5.21-0.875-6.94-2.63c-1.74-1.75-2.6-4.19-2.6-7.31 c0-3.05,0.885-5.47,2.66-7.26c1.77-1.79,4.01-2.69,6.71-2.69C51.12,18.56,53.944,20.1,55.61,23.19z"/>
  </g></g>
  <g transform="translate(140.2,652.4) scale(0.24)">
  <g><circle fill="#FFF" cx="37.79" cy="28.5" r="28.84"/>
     <circle fill="none" cx="37.79" cy="28.5" r="28.84" stroke="#BFBFBF" stroke-width="5.5"/>
     <path fill="#BFBFBF" d="M46.129,20.557v13.085h-3.656v15.542h-9.944V33.643h-3.656V20.557 c0-0.572,0.2-1.057,0.599-1.457c0.401-0.399,0.887-0.6,1.457-0.6h13.144c0.533,0,1.01,0.2,1.428,0.6 C45.918,19.5,46.129,19.986,46.129,20.557z
              M33.042,12.329c0-3.008,1.485-4.514,4.458-4.514s4.457,1.504,4.457,4.514 c0,2.971-1.486,4.457-4.457,4.457S33.042,15.3,33.042,12.329z"/>
  </g></g>
</g>
</g>
</svg>
