<svg version="1.1" xmlns="http://www.w3.org/2000/svg" xmlns:xlink="http://www.w3.org/1999/xlink" width="100%" height="100%" viewBox="0 0 1200.000 674.916">
<title>Annual Greenhouse Gas Emissions: Kenya</title>
<style type="text/css">
  #main {font-family:Helvetica,Arial,sans-serif; font-size:27.00px;
         fill-opacity:1; fill:#000000; stroke:none; stroke-linejoin:round; stroke-linecap:round; stroke-width:1.00;}
  .marker {stroke-opacity:0;fill-opacity:0;}
  .marker:hover {stroke-opacity:0.5; fill-opacity:1;}
  .ticklabel {font-size:27.00px;fill:#808080;stroke:none;font-family:Helvetica}
  .ytl {text-anchor:end;}
  .dp1 {pointer-events:none;font-size:70%;text-anchor:middle;fill:#000000;}
  .dp2 {pointer-events:none;font-size:70%;text-anchor:middle;fill:#FFFFFF;}
  .numtip {pointer-events:none;}
  .cc {opacity:0.25;}
.dl_fe {background-color:#FDFFDF;display:flex;margin:auto;align-items:center}
.dl_fe_p {font-size:20px;text-align:center;margin:3px}
.dl_el {display:none;pointer-events:none;}
.cc:hover + .dl_el {display:block;}
text:hover + .dl_el {display:block;}
</style>
<defs>
  <clipPath id="axis_clip"><rect x="145.8" y="54.2" width="761.2" height="532.8" /></clipPath>
  <path id="line_y" d="M 0,53.993 v 533.183" stroke="#262626" stroke-opacity="0.15" stroke-width="1.00"/>
  <path id="line_x" d="M 145.600,0 h 761.600" stroke="#262626" stroke-opacity="0.15" stroke-width="1.00"/>
  <path id="tick_y" d="M 145.600,0 h -6.000" stroke="#808080" stroke-width="0.90"/>
  <path id="tick_x" d="M 0,587.177 v 6.000" stroke="#808080" stroke-width="0.90"/>
</defs>
<g id="main">
<use xlink:href="#line_y" transform="translate(157.1,0)"/>
<use xlink:href="#line_y" transform="translate(272.5,0)"/>
<use xlink:href="#line_y" transform="translate(387.9,0)"/>
<use xlink:href="#line_y" transform="translate(503.3,0)"/>
<use xlink:href="#line_y" transform="translate(618.7,0)"/>
<use xlink:href="#line_y" transform="translate(734.1,0)"/>
<use xlink:href="#line_y" transform="translate(895.7,0)"/>
<use xlink:href="#line_x" transform="translate(0,587.2)"/>
<use xlink:href="#line_x" transform="translate(0,498.3)"/>
<use xlink:href="#line_x" transform="translate(0,409.4)"/>
<use xlink:href="#line_x" transform="translate(0,320.6)"/>
<use xlink:href="#line_x" transform="translate(0,231.7)"/>
<use xlink:href="#line_x" transform="translate(0,142.9)"/>
<use xlink:href="#line_x" transform="translate(0,54.0)"/>
<use xlink:href="#tick_y" transform="translate(0,587.2)"/>
<use xlink:href="#tick_y" transform="translate(0,498.3)"/>
<use xlink:href="#tick_y" transform="translate(0,409.4)"/>
<use xlink:href="#tick_y" transform="translate(0,320.6)"/>
<use xlink:href="#tick_y" transform="translate(0,231.7)"/>
<use xlink:href="#tick_y" transform="translate(0,142.9)"/>
<use xlink:href="#tick_y" transform="translate(0,54.0)"/>
<use xlink:href="#tick_x" transform="translate(157.1,0)"/>
<use xlink:href="#tick_x" transform="translate(272.5,0)"/>
<use xlink:href="#tick_x" transform="translate(387.9,0)"/>
<use xlink:href="#tick_x" transform="translate(503.3,0)"/>
<use xlink:href="#tick_x" transform="translate(618.7,0)"/>
<use xlink:href="#tick_x" transform="translate(734.1,0)"/>
<use xlink:href="#tick_x" transform="translate(895.7,0)"/>
<polyline points="145.6,53.993 145.6,587.177 907.2,587.177" stroke="#808080" stroke-width="0.90" fill="none"/>
<text class="ticklabel xtl" transform="translate(157.1,629.0)" text-anchor="middle">1990</text>
<text class="ticklabel xtl" transform="translate(272.5,629.0)" text-anchor="middle">1995</text>
<text class="ticklabel xtl" transform="translate(387.9,629.0)" text-anchor="middle">2000</text>
<text class="ticklabel xtl" transform="translate(503.3,629.0)" text-anchor="middle">2005</text>
<text class="ticklabel xtl" transform="translate(618.7,629.0)" text-anchor="middle">2010</text>
<text class="ticklabel xtl" transform="translate(734.1,629.0)" text-anchor="middle">2015</text>
<text class="ticklabel xtl" transform="translate(895.7,629.0)" text-anchor="middle">2022</text>
<text class="ticklabel ytl" transform="translate(128.8,595.3)">0</text>
<text class="ticklabel ytl" transform="translate(128.8,506.4)">5</text>
<text class="ticklabel ytl" transform="translate(128.8,417.5)">10</text>
<text class="ticklabel ytl" transform="translate(128.8,328.7)">15</text>
<text class="ticklabel ytl" transform="translate(128.8,239.8)">20</text>
<text class="ticklabel ytl" transform="translate(128.8,151.0)">25</text>
<text class="ticklabel ytl" transform="translate(128.8,62.1)">30 Mt</text>
<g stroke="#000" stroke-width="0.90" fill="#DBA746"  clip-path="url(#axis_clip)">
</g>
<g stroke="#000" stroke-width="0.90" fill="#845F48"  clip-path="url(#axis_clip)">
  <polygon points="147.9,427.5 147.9,461.9 166.4,461.9 166.4,427.5 147.9,427.5"/>
  <polygon points="171.0,422.0 171.0,459.8 189.4,459.8 189.4,422.0 171.0,422.0"/>
  <polygon points="194.1,420.1 194.1,458.3 212.5,458.3 212.5,420.1 194.1,420.1"/>
  <polygon points="217.1,411.2 217.1,459.9 235.6,459.9 235.6,411.2 217.1,411.2"/>
  <polygon points="240.2,417.9 240.2,459.6 258.7,459.6 258.7,417.9 240.2,417.9"/>
  <polygon points="263.3,422.9 263.3,462.3 281.8,462.3 281.8,422.9 263.3,422.9"/>
  <polygon points="286.4,412.7 286.4,448.0 304.8,448.0 304.8,412.7 286.4,412.7"/>
  <polygon points="309.5,411.3 309.5,446.5 327.9,446.5 327.9,411.3 309.5,411.3"/>
  <polygon points="332.5,412.6 332.5,448.0 351.0,448.0 351.0,412.6 332.5,412.6"/>
  <polygon points="355.6,399.9 355.6,436.7 374.1,436.7 374.1,399.9 355.6,399.9"/>
  <polygon points="378.7,404.9 378.7,441.2 397.2,441.2 397.2,404.9 378.7,404.9"/>
  <polygon points="401.8,397.6 401.8,435.3 420.2,435.3 420.2,397.6 401.8,397.6"/>
  <polygon points="424.9,387.0 424.9,426.1 443.3,426.1 443.3,387.0 424.9,387.0"/>
  <polygon points="447.9,368.7 447.9,411.2 466.4,411.2 466.4,368.7 447.9,368.7"/>
  <polygon points="471.0,349.0 471.0,391.9 489.5,391.9 489.5,349.0 471.0,349.0"/>
  <polygon points="494.1,352.0 494.1,395.0 512.6,395.0 512.6,352.0 494.1,352.0"/>
  <polygon points="517.2,347.5 517.2,389.9 535.6,389.9 535.6,347.5 517.2,347.5"/>
  <polygon points="540.2,343.9 540.2,386.5 558.7,386.5 558.7,343.9 540.2,343.9"/>
  <polygon points="563.3,332.6 563.3,377.0 581.8,377.0 581.8,332.6 563.3,332.6"/>
  <polygon points="586.4,333.1 586.4,377.7 604.9,377.7 604.9,333.1 586.4,333.1"/>
  <polygon points="609.5,300.9 609.5,348.7 627.9,348.7 627.9,300.9 609.5,300.9"/>
  <polygon points="632.6,286.7 632.6,337.4 651.0,337.4 651.0,286.7 632.6,286.7"/>
  <polygon points="655.6,230.4 655.6,285.6 674.1,285.6 674.1,230.4 655.6,230.4"/>
  <polygon points="678.7,206.0 678.7,263.9 697.2,263.9 697.2,206.0 678.7,206.0"/>
  <polygon points="701.8,199.4 701.8,257.4 720.3,257.4 720.3,199.4 701.8,199.4"/>
  <polygon points="724.9,206.0 724.9,262.9 743.3,262.9 743.3,206.0 724.9,206.0"/>
  <polygon points="748.0,174.4 748.0,235.2 766.4,235.2 766.4,174.4 748.0,174.4"/>
  <polygon points="771.0,169.7 771.0,231.2 789.5,231.2 789.5,169.7 771.0,169.7"/>
  <polygon points="794.1,165.2 794.1,229.0 812.6,229.0 812.6,165.2 794.1,165.2"/>
  <polygon points="817.2,77.4 817.2,144.0 835.7,144.0 835.7,77.4 817.2,77.4"/>
  <polygon points="840.3,78.5 840.3,146.4 858.7,146.4 858.7,78.5 840.3,78.5"/>
  <polygon points="863.4,86.4 863.4,154.7 881.8,154.7 881.8,86.4 863.4,86.4"/>
  <polygon points="886.4,114.9 886.4,184.2 904.9,184.2 904.9,114.9 886.4,114.9"/>
</g>
<g stroke="#000" stroke-width="0.90" fill="#4A89E8"  clip-path="url(#axis_clip)">
  <polygon points="147.9,461.9 147.9,587.2 166.4,587.2 166.4,461.9 147.9,461.9"/>
  <polygon points="171.0,459.8 171.0,587.2 189.4,587.2 189.4,459.8 171.0,459.8"/>
  <polygon points="194.1,458.3 194.1,587.2 212.5,587.2 212.5,458.3 194.1,458.3"/>
  <polygon points="217.1,459.9 217.1,587.2 235.6,587.2 235.6,459.9 217.1,459.9"/>
  <polygon points="240.2,459.6 240.2,587.2 258.7,587.2 258.7,459.6 240.2,459.6"/>
  <polygon points="263.3,462.3 263.3,587.2 281.8,587.2 281.8,462.3 263.3,462.3"/>
  <polygon points="286.4,448.0 286.4,587.2 304.8,587.2 304.8,448.0 286.4,448.0"/>
  <polygon points="309.5,446.5 309.5,587.2 327.9,587.2 327.9,446.5 309.5,446.5"/>
  <polygon points="332.5,448.0 332.5,587.2 351.0,587.2 351.0,448.0 332.5,448.0"/>
  <polygon points="355.6,436.7 355.6,587.2 374.1,587.2 374.1,436.7 355.6,436.7"/>
  <polygon points="378.7,441.2 378.7,587.2 397.2,587.2 397.2,441.2 378.7,441.2"/>
  <polygon points="401.8,435.3 401.8,587.2 420.2,587.2 420.2,435.3 401.8,435.3"/>
  <polygon points="424.9,426.1 424.9,587.2 443.3,587.2 443.3,426.1 424.9,426.1"/>
  <polygon points="447.9,411.2 447.9,587.2 466.4,587.2 466.4,411.2 447.9,411.2"/>
  <polygon points="471.0,391.9 471.0,587.2 489.5,587.2 489.5,391.9 471.0,391.9"/>
  <polygon points="494.1,395.0 494.1,587.2 512.6,587.2 512.6,395.0 494.1,395.0"/>
  <polygon points="517.2,389.9 517.2,587.2 535.6,587.2 535.6,389.9 517.2,389.9"/>
  <polygon points="540.2,386.5 540.2,587.2 558.7,587.2 558.7,386.5 540.2,386.5"/>
  <polygon points="563.3,377.0 563.3,587.2 581.8,587.2 581.8,377.0 563.3,377.0"/>
  <polygon points="586.4,377.7 586.4,587.2 604.9,587.2 604.9,377.7 586.4,377.7"/>
  <polygon points="609.5,348.7 609.5,587.2 627.9,587.2 627.9,348.7 609.5,348.7"/>
  <polygon points="632.6,337.4 632.6,587.2 651.0,587.2 651.0,337.4 632.6,337.4"/>
  <polygon points="655.6,285.6 655.6,587.2 674.1,587.2 674.1,285.6 655.6,285.6"/>
  <polygon points="678.7,263.9 678.7,587.2 697.2,587.2 697.2,263.9 678.7,263.9"/>
  <polygon points="701.8,257.4 701.8,587.2 720.3,587.2 720.3,257.4 701.8,257.4"/>
  <polygon points="724.9,262.9 724.9,587.2 743.3,587.2 743.3,262.9 724.9,262.9"/>
  <polygon points="748.0,235.2 748.0,587.2 766.4,587.2 766.4,235.2 748.0,235.2"/>
  <polygon points="771.0,231.2 771.0,587.2 789.5,587.2 789.5,231.2 771.0,231.2"/>
  <polygon points="794.1,229.0 794.1,587.2 812.6,587.2 812.6,229.0 794.1,229.0"/>
  <polygon points="817.2,144.0 817.2,587.2 835.7,587.2 835.7,144.0 817.2,144.0"/>
  <polygon points="840.3,146.4 840.3,587.2 858.7,587.2 858.7,146.4 840.3,146.4"/>
  <polygon points="863.4,154.7 863.4,587.2 881.8,587.2 881.8,154.7 863.4,154.7"/>
  <polygon points="886.4,184.2 886.4,587.2 904.9,587.2 904.9,184.2 886.4,184.2"/>
</g>
<polyline class="pl" points="157.1,427.5 180.2,422.0 203.3,420.1 226.4,411.2 249.5,417.9 272.5,422.9 295.6,412.7 318.7,411.3 341.8,412.6 364.8,399.9 387.9,404.9 411.0,397.6 434.1,387.0 457.2,368.7 480.2,349.0 503.3,352.0 526.4,347.5 549.5,343.9 572.6,332.6 595.6,333.1 618.7,300.9 641.8,286.7 664.9,230.4 688.0,206.0 711.0,199.4 734.1,206.0 757.2,174.4 780.3,169.7 803.3,165.2 826.4,77.4 849.5,78.5 872.6,86.4 895.7,114.9" stroke="#000" stroke-width="5.40" stroke-opacity="1.00" fill="none" clip-path="url(#axis_clip)"/>
<g class="pl" fill="#FFF" stroke="#000" stroke-width="0.900">
  <circle cx="180.2" cy="422.0" r="2.2" />
  <circle cx="203.3" cy="420.1" r="2.2" />
  <circle cx="226.4" cy="411.2" r="2.2" />
  <circle cx="249.5" cy="417.9" r="2.2" />
  <circle cx="272.5" cy="422.9" r="2.2" />
  <circle cx="295.6" cy="412.7" r="2.2" />
  <circle cx="318.7" cy="411.3" r="2.2" />
  <circle cx="341.8" cy="412.6" r="2.2" />
  <circle cx="364.8" cy="399.9" r="2.2" />
  <circle cx="411.0" cy="397.6" r="2.2" />
  <circle cx="434.1" cy="387.0" r="2.2" />
  <circle cx="457.2" cy="368.7" r="2.2" />
  <circle cx="480.2" cy="349.0" r="2.2" />
  <circle cx="503.3" cy="352.0" r="2.2" />
  <circle cx="526.4" cy="347.5" r="2.2" />
  <circle cx="549.5" cy="343.9" r="2.2" />
  <circle cx="572.6" cy="332.6" r="2.2" />
  <circle cx="595.6" cy="333.1" r="2.2" />
  <circle cx="641.8" cy="286.7" r="2.2" />
  <circle cx="664.9" cy="230.4" r="2.2" />
  <circle cx="688.0" cy="206.0" r="2.2" />
  <circle cx="711.0" cy="199.4" r="2.2" />
  <circle cx="734.1" cy="206.0" r="2.2" />
  <circle cx="757.2" cy="174.4" r="2.2" />
  <circle cx="780.3" cy="169.7" r="2.2" />
  <circle cx="803.3" cy="165.2" r="2.2" />
  <circle cx="826.4" cy="77.4" r="2.2" />
  <circle cx="872.6" cy="86.4" r="2.2" />
  <circle cx="895.7" cy="114.9" r="2.2" />
</g>
<g class="pl" fill="#FFF" stroke="#000" stroke-width="0.900">
  <circle cx="157.1" cy="427.5" r="5.4" />
  <circle cx="387.9" cy="404.9" r="5.4" />
  <circle cx="618.7" cy="300.9" r="5.4" />
  <circle cx="849.5" cy="78.5" r="5.4" />
</g>
<text transform="translate(145.6,47.2)" dy="0.0" font-size="27.00" fill="#808080" stroke="none">Annual Greenhouse Gas Emissions: Kenya</text>
<text transform="translate(130.0,81.6)" dy="8.1" font-size="27.00" fill="#808080" stroke="none" text-anchor="end">CO<tspan dy="0.2em"><tspan style="font-size:70%">2</tspan></tspan><tspan dy="-0.2em">e</tspan></text>
<text transform="translate(925.2,114.9)" dy="7.6" font-size="25.20" fill="#000" stroke="none">+195.9% since 1990</text>
<text transform="translate(925.2,385.7)" dy="7.6" font-size="25.20" fill="#4A89E8" stroke="none">CH<tspan dy="0.2em"><tspan style="font-size:70%">4</tspan></tspan><tspan dy="-0.2em"></tspan></text>
<text transform="translate(925.2,149.6)" dy="7.6" font-size="25.20" fill="#845F48" stroke="none">N<tspan dy="0.2em"><tspan style="font-size:70%">2</tspan></tspan><tspan dy="-0.2em">O</tspan></text>
<text transform="translate(160.0,666.1)" font-size="19.80" font-family="Helvetica" fill="#BFBFBF" stroke="none" xml:space="preserve">CICERO   &#9679;   Data: UNFCCC (2024)</text>
<g>
  <rect x="123.0" y="651.4" width="34" height="17" fill="#FFF" stroke="none" opacity="0.01"/>
  <g transform="translate(124.0,652.4) scale(0.24)">
  <g><circle fill="#FFF" cx="37.79" cy="28.5" r="28.84"/>
     <circle fill="none" cx="37.79" cy="28.5" r="28.84" stroke="#BFBFBF" stroke-width="5.5"/>
     <path fill="#BFBFBF" d="M37.16,23.19 l-4.29,2.23c-0.458-0.951-1.02-1.62-1.69-2c-0.667-0.38-1.29-0.571-1.86-0.571c-2.86,0-4.29,1.89-4.29,5.66 c0,1.71,0.36,3.08,1.09,4.11c0.724,1.03,1.79,1.54,3.2,1.54c1.87,0,3.18-0.915,3.94-2.74l3.94,2 c-0.838,1.56-2,2.79-3.49,3.69c-1.48,0.896-3.12,1.34-4.91,1.34c-2.86,0-5.16-0.875-6.92-2.63 c-1.75-1.75-2.63-4.19-2.63-7.31c0-3.05,0.886-5.47,2.66-7.26c1.77-1.79,4.01-2.69,6.72-2.69 C32.6,18.56,35.44,20.1,37.16,23.19z
              M55.61,23.19l-4.23,2.23c-0.457-0.951-1.02-1.62-1.69-2 c-0.668-0.38-1.31-0.571-1.91-0.571c-2.86,0-4.29,1.89-4.29,5.66c0,1.71,0.363,3.08,1.09,4.11 c0.723,1.03,1.79,1.54,3.2,1.54c1.87,0,3.18-0.915,3.94-2.74l4,2c-0.875,1.56-2.06,2.79-3.54,3.69 c-1.49,0.9-3.11,1.34-4.86,1.34c-2.9,0-5.21-0.875-6.94-2.63c-1.74-1.75-2.6-4.19-2.6-7.31 c0-3.05,0.885-5.47,2.66-7.26c1.77-1.79,4.01-2.69,6.71-2.69C51.12,18.56,53.944,20.1,55.61,23.19z"/>
  </g></g>
  <g transform="translate(140.2,652.4) scale(0.24)">
  <g><circle fill="#FFF" cx="37.79" cy="28.5" r="28.84"/>
     <circle fill="none" cx="37.79" cy="28.5" r="28.84" stroke="#BFBFBF" stroke-width="5.5"/>
     <path fill="#BFBFBF" d="M46.129,20.557v13.085h-3.656v15.542h-9.944V33.643h-3.656V20.557 c0-0.572,0.2-1.057,0.599-1.457c0.401-0.399,0.887-0.6,1.457-0.6h13.144c0.533,0,1.01,0.2,1.428,0.6 C45.918,19.5,46.129,19.986,46.129,20.557z
              M33.042,12.329c0-3.008,1.485-4.514,4.458-4.514s4.457,1.504,4.457,4.514 c0,2.971-1.486,4.457-4.457,4.457S33.042,15.3,33.042,12.329z"/>
  </g></g>
</g>
</g>
</svg>
