<svg version="1.1" xmlns="http://www.w3.org/2000/svg" xmlns:xlink="http://www.w3.org/1999/xlink" width="100%" height="100%" viewBox="0 0 1200.000 674.916">
<title>Emissions and removals on forest land: Finland</title>
<style type="text/css">
  #main {font-family:Helvetica,Arial,sans-serif; font-size:27.00px;
         fill-opacity:1; fill:#000000; stroke:none; stroke-linejoin:round; stroke-linecap:round; stroke-width:1.00;}
  .marker {stroke-opacity:0;fill-opacity:0;}
  .marker:hover {stroke-opacity:0.5; fill-opacity:1;}
  .ticklabel {font-size:27.00px;fill:#808080;stroke:none;font-family:Helvetica}
  .ytl {text-anchor:end;}
  .dp1 {pointer-events:none;font-size:70%;text-anchor:middle;fill:#000000;}
  .dp2 {pointer-events:none;font-size:70%;text-anchor:middle;fill:#FFFFFF;}
  .numtip {pointer-events:none;}
  .cc {opacity:0.25;}
.dl_fe {background-color:#FDFFDF;display:flex;margin:auto;align-items:center}
.dl_fe_p {font-size:20px;text-align:center;margin:3px}
.dl_el {display:none;pointer-events:none;}
.cc:hover + .dl_el {display:block;}
text:hover + .dl_el {display:block;}
</style>
<defs>
  <clipPath id="axis_clip"><rect x="145.8" y="54.2" width="761.2" height="532.8" /></clipPath>
  <path id="line_y" d="M 0,53.993 v 533.183" stroke="#262626" stroke-opacity="0.15" stroke-width="1.00"/>
  <path id="line_x" d="M 145.600,0 h 761.600" stroke="#262626" stroke-opacity="0.15" stroke-width="1.00"/>
  <path id="tick_y" d="M 145.600,0 h -6.000" stroke="#808080" stroke-width="0.90"/>
  <path id="tick_x" d="M 0,587.177 v 6.000" stroke="#808080" stroke-width="0.90"/>
</defs>
<g id="main">
<use xlink:href="#line_y" transform="translate(156.8,0)"/>
<use xlink:href="#line_y" transform="translate(268.8,0)"/>
<use xlink:href="#line_y" transform="translate(380.8,0)"/>
<use xlink:href="#line_y" transform="translate(492.8,0)"/>
<use xlink:href="#line_y" transform="translate(604.8,0)"/>
<use xlink:href="#line_y" transform="translate(716.8,0)"/>
<use xlink:href="#line_y" transform="translate(828.8,0)"/>
<use xlink:href="#line_y" transform="translate(896.0,0)"/>
<use xlink:href="#line_x" transform="translate(0,587.2)"/>
<use xlink:href="#line_x" transform="translate(0,453.9)"/>
<use xlink:href="#line_x" transform="translate(0,320.6)"/>
<use xlink:href="#line_x" transform="translate(0,187.3)"/>
<use xlink:href="#line_x" transform="translate(0,54.0)"/>
<use xlink:href="#tick_y" transform="translate(0,587.2)"/>
<use xlink:href="#tick_y" transform="translate(0,453.9)"/>
<use xlink:href="#tick_y" transform="translate(0,320.6)"/>
<use xlink:href="#tick_y" transform="translate(0,187.3)"/>
<use xlink:href="#tick_y" transform="translate(0,54.0)"/>
<use xlink:href="#tick_x" transform="translate(156.8,0)"/>
<use xlink:href="#tick_x" transform="translate(268.8,0)"/>
<use xlink:href="#tick_x" transform="translate(380.8,0)"/>
<use xlink:href="#tick_x" transform="translate(492.8,0)"/>
<use xlink:href="#tick_x" transform="translate(604.8,0)"/>
<use xlink:href="#tick_x" transform="translate(716.8,0)"/>
<use xlink:href="#tick_x" transform="translate(828.8,0)"/>
<use xlink:href="#tick_x" transform="translate(896.0,0)"/>
<polyline points="145.6,53.993 145.6,587.177 907.2,587.177" stroke="#808080" stroke-width="0.90" fill="none"/>
<text class="ticklabel xtl" transform="translate(156.8,629.0)" text-anchor="middle">1990</text>
<text class="ticklabel xtl" transform="translate(268.8,629.0)" text-anchor="middle">1995</text>
<text class="ticklabel xtl" transform="translate(380.8,629.0)" text-anchor="middle">2000</text>
<text class="ticklabel xtl" transform="translate(492.8,629.0)" text-anchor="middle">2005</text>
<text class="ticklabel xtl" transform="translate(604.8,629.0)" text-anchor="middle">2010</text>
<text class="ticklabel xtl" transform="translate(716.8,629.0)" text-anchor="middle">2015</text>
<text class="ticklabel xtl" transform="translate(828.8,629.0)" text-anchor="middle">2020</text>
<text class="ticklabel xtl" transform="translate(896.0,629.0)" text-anchor="middle">23</text>
<text class="ticklabel ytl" transform="translate(128.8,595.3)">-60</text>
<text class="ticklabel ytl" transform="translate(128.8,462.0)">-40</text>
<text class="ticklabel ytl" transform="translate(128.8,328.7)">-20</text>
<text class="ticklabel ytl" transform="translate(128.8,195.4)">0</text>
<text class="ticklabel ytl" transform="translate(128.8,62.1)">20 Mt</text>
<g stroke="#000" stroke-width="0.90" fill="#87AC55"  clip-path="url(#axis_clip)">
  <polygon points="147.8,173.2 147.8,187.3 165.8,187.3 165.8,173.2 147.8,173.2"/>
  <polygon points="170.2,169.5 170.2,187.3 188.2,187.3 188.2,169.5 170.2,169.5"/>
  <polygon points="192.6,172.9 192.6,187.3 210.6,187.3 210.6,172.9 192.6,172.9"/>
  <polygon points="215.0,180.2 215.0,187.3 233.0,187.3 233.0,180.2 215.0,180.2"/>
  <polygon points="237.4,184.4 237.4,187.3 255.4,187.3 255.4,184.4 237.4,184.4"/>
  <polygon points="259.8,182.3 259.8,187.3 277.8,187.3 277.8,182.3 259.8,182.3"/>
  <polygon points="282.2,177.8 282.2,187.3 300.2,187.3 300.2,177.8 282.2,177.8"/>
  <polygon points="304.6,182.7 304.6,187.3 322.6,187.3 322.6,182.7 304.6,182.7"/>
  <polygon points="327.0,181.0 327.0,187.3 345.0,187.3 345.0,181.0 327.0,181.0"/>
  <polygon points="349.4,179.5 349.4,187.3 367.4,187.3 367.4,179.5 349.4,179.5"/>
  <polygon points="371.8,178.9 371.8,187.3 389.8,187.3 389.8,178.9 371.8,178.9"/>
  <polygon points="394.2,174.0 394.2,187.3 412.2,187.3 412.2,174.0 394.2,174.0"/>
  <polygon points="416.6,174.5 416.6,187.3 434.6,187.3 434.6,174.5 416.6,174.5"/>
  <polygon points="439.0,172.5 439.0,187.3 457.0,187.3 457.0,172.5 439.0,172.5"/>
  <polygon points="461.4,175.5 461.4,187.3 479.4,187.3 479.4,175.5 461.4,175.5"/>
  <polygon points="483.8,172.0 483.8,187.3 501.8,187.3 501.8,172.0 483.8,172.0"/>
  <polygon points="506.2,162.0 506.2,187.3 524.2,187.3 524.2,162.0 506.2,162.0"/>
  <polygon points="528.6,161.2 528.6,187.3 546.6,187.3 546.6,161.2 528.6,161.2"/>
  <polygon points="551.0,159.8 551.0,187.3 569.0,187.3 569.0,159.8 551.0,159.8"/>
  <polygon points="573.4,152.4 573.4,187.3 591.4,187.3 591.4,152.4 573.4,152.4"/>
  <polygon points="595.8,158.0 595.8,187.3 613.8,187.3 613.8,158.0 595.8,158.0"/>
  <polygon points="618.2,153.4 618.2,187.3 636.2,187.3 636.2,153.4 618.2,153.4"/>
  <polygon points="640.6,148.8 640.6,187.3 658.6,187.3 658.6,148.8 640.6,148.8"/>
  <polygon points="663.0,149.2 663.0,187.3 681.0,187.3 681.0,149.2 663.0,149.2"/>
  <polygon points="685.4,147.3 685.4,187.3 703.4,187.3 703.4,147.3 685.4,147.3"/>
  <polygon points="707.8,147.4 707.8,187.3 725.8,187.3 725.8,147.4 707.8,147.4"/>
  <polygon points="730.2,144.7 730.2,187.3 748.2,187.3 748.2,144.7 730.2,144.7"/>
  <polygon points="752.6,145.2 752.6,187.3 770.6,187.3 770.6,145.2 752.6,145.2"/>
  <polygon points="775.0,146.8 775.0,187.3 793.0,187.3 793.0,146.8 775.0,146.8"/>
  <polygon points="797.4,142.2 797.4,187.3 815.4,187.3 815.4,142.2 797.4,142.2"/>
  <polygon points="819.8,132.8 819.8,187.3 837.8,187.3 837.8,132.8 819.8,132.8"/>
  <polygon points="842.2,131.3 842.2,186.5 860.2,186.5 860.2,131.3 842.2,131.3"/>
  <polygon points="864.6,119.6 864.6,183.2 882.6,183.2 882.6,119.6 864.6,119.6"/>
  <polygon points="887.0,107.6 887.0,184.8 905.0,184.8 905.0,107.6 887.0,107.6"/>
</g>
<g stroke="#000" stroke-width="0.90" fill="#834B8E"  clip-path="url(#axis_clip)">
  <polygon points="842.2,186.5 842.2,187.3 860.2,187.3 860.2,186.5 842.2,186.5"/>
  <polygon points="864.6,183.2 864.6,187.3 882.6,187.3 882.6,183.2 864.6,183.2"/>
  <polygon points="887.0,184.8 887.0,187.3 905.0,187.3 905.0,184.8 887.0,184.8"/>
</g>
<g stroke="#000" stroke-width="0.90" fill="#3988BD"  clip-path="url(#axis_clip)">
</g>
<g stroke="#000" stroke-width="0.90" fill="#87AC55"  clip-path="url(#axis_clip)">
</g>
<g stroke="#000" stroke-width="0.90" fill="#834B8E"  clip-path="url(#axis_clip)">
  <polygon points="147.8,412.8 147.8,348.6 165.8,348.6 165.8,412.8 147.8,412.8"/>
  <polygon points="170.2,509.8 170.2,447.9 188.2,447.9 188.2,509.8 170.2,509.8"/>
  <polygon points="192.6,464.8 192.6,402.0 210.6,402.0 210.6,464.8 192.6,464.8"/>
  <polygon points="215.0,448.2 215.0,385.3 233.0,385.3 233.0,448.2 215.0,448.2"/>
  <polygon points="237.4,391.5 237.4,325.3 255.4,325.3 255.4,391.5 237.4,391.5"/>
  <polygon points="259.8,387.2 259.8,315.8 277.8,315.8 277.8,387.2 259.8,387.2"/>
  <polygon points="282.2,445.9 282.2,370.3 300.2,370.3 300.2,445.9 282.2,445.9"/>
  <polygon points="304.6,398.4 304.6,324.1 322.6,324.1 322.6,398.4 304.6,398.4"/>
  <polygon points="327.0,384.9 327.0,312.1 345.0,312.1 345.0,384.9 327.0,384.9"/>
  <polygon points="349.4,392.5 349.4,319.4 367.4,319.4 367.4,392.5 349.4,392.5"/>
  <polygon points="371.8,388.5 371.8,319.6 389.8,319.6 389.8,388.5 371.8,388.5"/>
  <polygon points="394.2,414.3 394.2,350.0 412.2,350.0 412.2,414.3 394.2,414.3"/>
  <polygon points="416.6,417.4 416.6,355.6 434.6,355.6 434.6,417.4 416.6,417.4"/>
  <polygon points="439.0,419.7 439.0,361.7 457.0,361.7 457.0,419.7 439.0,419.7"/>
  <polygon points="461.4,426.1 461.4,373.0 479.4,373.0 479.4,426.1 461.4,426.1"/>
  <polygon points="483.8,453.4 483.8,401.8 501.8,401.8 501.8,453.4 483.8,453.4"/>
  <polygon points="506.2,472.5 506.2,426.6 524.2,426.6 524.2,472.5 506.2,472.5"/>
  <polygon points="528.6,400.3 528.6,368.0 546.6,368.0 546.6,400.3 528.6,400.3"/>
  <polygon points="551.0,447.5 551.0,419.1 569.0,419.1 569.0,447.5 551.0,447.5"/>
  <polygon points="573.4,551.5 573.4,524.2 591.4,524.2 591.4,551.5 573.4,551.5"/>
  <polygon points="595.8,444.9 595.8,423.6 613.8,423.6 613.8,444.9 595.8,444.9"/>
  <polygon points="618.2,445.0 618.2,421.3 636.2,421.3 636.2,445.0 618.2,445.0"/>
  <polygon points="640.6,464.0 640.6,432.6 658.6,432.6 658.6,464.0 640.6,464.0"/>
  <polygon points="663.0,412.4 663.0,381.8 681.0,381.8 681.0,412.4 663.0,412.4"/>
  <polygon points="685.4,414.4 685.4,383.6 703.4,383.6 703.4,414.4 685.4,414.4"/>
  <polygon points="707.8,379.0 707.8,347.7 725.8,347.7 725.8,379.0 707.8,379.0"/>
  <polygon points="730.2,347.3 730.2,317.4 748.2,317.4 748.2,347.3 730.2,347.3"/>
  <polygon points="752.6,317.3 752.6,291.5 770.6,291.5 770.6,317.3 752.6,317.3"/>
  <polygon points="775.0,249.7 775.0,231.5 793.0,231.5 793.0,249.7 775.0,249.7"/>
  <polygon points="797.4,289.1 797.4,274.3 815.4,274.3 815.4,289.1 797.4,289.1"/>
  <polygon points="819.8,322.0 819.8,312.0 837.8,312.0 837.8,322.0 819.8,322.0"/>
</g>
<g stroke="#000" stroke-width="0.90" fill="#3988BD"  clip-path="url(#axis_clip)">
  <polygon points="147.8,348.6 147.8,187.3 165.8,187.3 165.8,348.6 147.8,348.6"/>
  <polygon points="170.2,447.9 170.2,187.3 188.2,187.3 188.2,447.9 170.2,447.9"/>
  <polygon points="192.6,402.0 192.6,187.3 210.6,187.3 210.6,402.0 192.6,402.0"/>
  <polygon points="215.0,385.3 215.0,187.3 233.0,187.3 233.0,385.3 215.0,385.3"/>
  <polygon points="237.4,325.3 237.4,187.3 255.4,187.3 255.4,325.3 237.4,325.3"/>
  <polygon points="259.8,315.8 259.8,187.3 277.8,187.3 277.8,315.8 259.8,315.8"/>
  <polygon points="282.2,370.3 282.2,187.3 300.2,187.3 300.2,370.3 282.2,370.3"/>
  <polygon points="304.6,324.1 304.6,187.3 322.6,187.3 322.6,324.1 304.6,324.1"/>
  <polygon points="327.0,312.1 327.0,187.3 345.0,187.3 345.0,312.1 327.0,312.1"/>
  <polygon points="349.4,319.4 349.4,187.3 367.4,187.3 367.4,319.4 349.4,319.4"/>
  <polygon points="371.8,319.6 371.8,187.3 389.8,187.3 389.8,319.6 371.8,319.6"/>
  <polygon points="394.2,350.0 394.2,187.3 412.2,187.3 412.2,350.0 394.2,350.0"/>
  <polygon points="416.6,355.6 416.6,187.3 434.6,187.3 434.6,355.6 416.6,355.6"/>
  <polygon points="439.0,361.7 439.0,187.3 457.0,187.3 457.0,361.7 439.0,361.7"/>
  <polygon points="461.4,373.0 461.4,187.3 479.4,187.3 479.4,373.0 461.4,373.0"/>
  <polygon points="483.8,401.8 483.8,187.3 501.8,187.3 501.8,401.8 483.8,401.8"/>
  <polygon points="506.2,426.6 506.2,187.3 524.2,187.3 524.2,426.6 506.2,426.6"/>
  <polygon points="528.6,368.0 528.6,187.3 546.6,187.3 546.6,368.0 528.6,368.0"/>
  <polygon points="551.0,419.1 551.0,187.3 569.0,187.3 569.0,419.1 551.0,419.1"/>
  <polygon points="573.4,524.2 573.4,187.3 591.4,187.3 591.4,524.2 573.4,524.2"/>
  <polygon points="595.8,423.6 595.8,187.3 613.8,187.3 613.8,423.6 595.8,423.6"/>
  <polygon points="618.2,421.3 618.2,187.3 636.2,187.3 636.2,421.3 618.2,421.3"/>
  <polygon points="640.6,432.6 640.6,187.3 658.6,187.3 658.6,432.6 640.6,432.6"/>
  <polygon points="663.0,381.8 663.0,187.3 681.0,187.3 681.0,381.8 663.0,381.8"/>
  <polygon points="685.4,383.6 685.4,187.3 703.4,187.3 703.4,383.6 685.4,383.6"/>
  <polygon points="707.8,347.7 707.8,187.3 725.8,187.3 725.8,347.7 707.8,347.7"/>
  <polygon points="730.2,317.4 730.2,187.3 748.2,187.3 748.2,317.4 730.2,317.4"/>
  <polygon points="752.6,291.5 752.6,187.3 770.6,187.3 770.6,291.5 752.6,291.5"/>
  <polygon points="775.0,231.5 775.0,187.3 793.0,187.3 793.0,231.5 775.0,231.5"/>
  <polygon points="797.4,274.3 797.4,187.3 815.4,187.3 815.4,274.3 797.4,274.3"/>
  <polygon points="819.8,312.0 819.8,187.3 837.8,187.3 837.8,312.0 819.8,312.0"/>
  <polygon points="842.2,241.5 842.2,187.3 860.2,187.3 860.2,241.5 842.2,241.5"/>
  <polygon points="864.6,252.6 864.6,187.3 882.6,187.3 882.6,252.6 864.6,252.6"/>
  <polygon points="887.0,275.3 887.0,187.3 905.0,187.3 905.0,275.3 887.0,275.3"/>
</g>
<text transform="translate(145.6,47.2)" dy="0.0" font-size="27.00" fill="#808080" stroke="none">Emissions and removals on forest land: Finland</text>
<text transform="translate(130.0,81.6)" dy="8.1" font-size="27.00" fill="#808080" stroke="none" text-anchor="end">CO<tspan dy="0.2em"><tspan style="font-size:70%">2</tspan></tspan><tspan dy="-0.2em"></tspan></text>
<polyline class="pl" points="156.8,398.9 179.2,492.2 201.6,450.6 224.0,441.3 246.4,388.8 268.8,382.4 291.2,436.6 313.6,394.0 336.0,378.7 358.4,384.9 380.8,380.2 403.2,401.1 425.6,404.7 448.0,405.1 470.4,414.5 492.8,438.4 515.2,447.4 537.6,374.3 560.0,420.1 582.4,516.8 604.8,415.8 627.2,411.3 649.6,425.7 672.0,374.4 694.4,374.5 716.8,339.2 739.2,304.9 761.6,275.2 784.0,209.3 806.4,244.1 828.8,267.5 851.2,185.5 873.6,185.0 896.0,195.6" stroke="#000" stroke-width="5.40" fill="none" clip-path="url(#axis_clip)"/>
<g class="pl" fill="#FFF" stroke="#000" stroke-width="0.900">
  <circle cx="179.2" cy="492.2" r="2.2" />
  <circle cx="201.6" cy="450.6" r="2.2" />
  <circle cx="224.0" cy="441.3" r="2.2" />
  <circle cx="246.4" cy="388.8" r="2.2" />
  <circle cx="268.8" cy="382.4" r="2.2" />
  <circle cx="291.2" cy="436.6" r="2.2" />
  <circle cx="313.6" cy="394.0" r="2.2" />
  <circle cx="336.0" cy="378.7" r="2.2" />
  <circle cx="358.4" cy="384.9" r="2.2" />
  <circle cx="403.2" cy="401.1" r="2.2" />
  <circle cx="425.6" cy="404.7" r="2.2" />
  <circle cx="448.0" cy="405.1" r="2.2" />
  <circle cx="470.4" cy="414.5" r="2.2" />
  <circle cx="492.8" cy="438.4" r="2.2" />
  <circle cx="515.2" cy="447.4" r="2.2" />
  <circle cx="537.6" cy="374.3" r="2.2" />
  <circle cx="560.0" cy="420.1" r="2.2" />
  <circle cx="582.4" cy="516.8" r="2.2" />
  <circle cx="627.2" cy="411.3" r="2.2" />
  <circle cx="649.6" cy="425.7" r="2.2" />
  <circle cx="672.0" cy="374.4" r="2.2" />
  <circle cx="694.4" cy="374.5" r="2.2" />
  <circle cx="716.8" cy="339.2" r="2.2" />
  <circle cx="739.2" cy="304.9" r="2.2" />
  <circle cx="761.6" cy="275.2" r="2.2" />
  <circle cx="784.0" cy="209.3" r="2.2" />
  <circle cx="806.4" cy="244.1" r="2.2" />
  <circle cx="851.2" cy="185.5" r="2.2" />
  <circle cx="873.6" cy="185.0" r="2.2" />
  <circle cx="896.0" cy="195.6" r="2.2" />
</g>
<g class="pl" fill="#FFF" stroke="#000" stroke-width="0.900">
  <circle cx="156.8" cy="398.9" r="5.4" />
  <circle cx="380.8" cy="380.2" r="5.4" />
  <circle cx="604.8" cy="415.8" r="5.4" />
  <circle cx="828.8" cy="267.5" r="5.4" />
</g>
<text transform="translate(945.6,201.2)" dy="6.5" font-size="21.60" fill="#000" stroke="none">Total (net)</text>
<text transform="translate(945.6,180.5)" dy="6.5" font-size="21.60" fill="#834B8E" stroke="none">Mineral Soils (net)</text>
<text transform="translate(945.6,146.2)" dy="6.5" font-size="21.60" fill="#87AC55" stroke="none">Organic Soils (net)</text>
<text transform="translate(945.6,231.3)" dy="6.5" font-size="21.60" fill="#3988BD" stroke="none">Living biomass (net)</text>
<polyline class="pl" points="910.8,195.6 912.4,195.6 913.8,195.7 915.2,195.8 916.4,195.9 917.6,196.0 918.8,196.2 919.8,196.4 920.8,196.6 921.7,196.9 922.7,197.1 923.5,197.4 924.4,197.7 925.2,198.0 926.0,198.2 926.8,198.5 927.6,198.8 928.4,199.1 929.3,199.4 930.1,199.7 931.1,199.9 932.0,200.1 933.0,200.4 934.0,200.6 935.2,200.7 936.4,200.9 937.6,201.0 939.0,201.1 940.4,201.2 942.0,201.2" stroke="#000" stroke-width="0.90" stroke-opacity="1.00" fill="none" />
<polyline class="pl" points="910.8,186.1 912.4,186.0 913.8,186.0 915.2,185.9 916.4,185.8 917.6,185.6 918.8,185.4 919.8,185.2 920.8,185.0 921.7,184.8 922.7,184.5 923.5,184.3 924.4,184.0 925.2,183.7 926.0,183.4 926.8,183.1 927.6,182.8 928.4,182.5 929.3,182.3 930.1,182.0 931.1,181.7 932.0,181.5 933.0,181.3 934.0,181.1 935.2,180.9 936.4,180.8 937.6,180.6 939.0,180.5 940.4,180.5 942.0,180.5" stroke="#834B8E" stroke-width="0.90" stroke-opacity="1.00" fill="none" />
<text transform="translate(160.0,666.1)" font-size="19.80" font-family="Helvetica" fill="#BFBFBF" stroke="none" xml:space="preserve">CICERO   &#9679;   Data: UNFCCC (2025)</text>
<g>
  <rect x="123.0" y="651.4" width="34" height="17" fill="#FFF" stroke="none" opacity="0.01"/>
  <g transform="translate(124.0,652.4) scale(0.24)">
  <g><circle fill="#FFF" cx="37.79" cy="28.5" r="28.84"/>
     <circle fill="none" cx="37.79" cy="28.5" r="28.84" stroke="#BFBFBF" stroke-width="5.5"/>
     <path fill="#BFBFBF" d="M37.16,23.19 l-4.29,2.23c-0.458-0.951-1.02-1.62-1.69-2c-0.667-0.38-1.29-0.571-1.86-0.571c-2.86,0-4.29,1.89-4.29,5.66 c0,1.71,0.36,3.08,1.09,4.11c0.724,1.03,1.79,1.54,3.2,1.54c1.87,0,3.18-0.915,3.94-2.74l3.94,2 c-0.838,1.56-2,2.79-3.49,3.69c-1.48,0.896-3.12,1.34-4.91,1.34c-2.86,0-5.16-0.875-6.92-2.63 c-1.75-1.75-2.63-4.19-2.63-7.31c0-3.05,0.886-5.47,2.66-7.26c1.77-1.79,4.01-2.69,6.72-2.69 C32.6,18.56,35.44,20.1,37.16,23.19z
              M55.61,23.19l-4.23,2.23c-0.457-0.951-1.02-1.62-1.69-2 c-0.668-0.38-1.31-0.571-1.91-0.571c-2.86,0-4.29,1.89-4.29,5.66c0,1.71,0.363,3.08,1.09,4.11 c0.723,1.03,1.79,1.54,3.2,1.54c1.87,0,3.18-0.915,3.94-2.74l4,2c-0.875,1.56-2.06,2.79-3.54,3.69 c-1.49,0.9-3.11,1.34-4.86,1.34c-2.9,0-5.21-0.875-6.94-2.63c-1.74-1.75-2.6-4.19-2.6-7.31 c0-3.05,0.885-5.47,2.66-7.26c1.77-1.79,4.01-2.69,6.71-2.69C51.12,18.56,53.944,20.1,55.61,23.19z"/>
  </g></g>
  <g transform="translate(140.2,652.4) scale(0.24)">
  <g><circle fill="#FFF" cx="37.79" cy="28.5" r="28.84"/>
     <circle fill="none" cx="37.79" cy="28.5" r="28.84" stroke="#BFBFBF" stroke-width="5.5"/>
     <path fill="#BFBFBF" d="M46.129,20.557v13.085h-3.656v15.542h-9.944V33.643h-3.656V20.557 c0-0.572,0.2-1.057,0.599-1.457c0.401-0.399,0.887-0.6,1.457-0.6h13.144c0.533,0,1.01,0.2,1.428,0.6 C45.918,19.5,46.129,19.986,46.129,20.557z
              M33.042,12.329c0-3.008,1.485-4.514,4.458-4.514s4.457,1.504,4.457,4.514 c0,2.971-1.486,4.457-4.457,4.457S33.042,15.3,33.042,12.329z"/>
  </g></g>
</g>
</g>
</svg>
