<svg version="1.1" xmlns="http://www.w3.org/2000/svg" xmlns:xlink="http://www.w3.org/1999/xlink" width="100%" height="100%" viewBox="0 0 1200.000 674.916">
<title>Annual N2O Emissions: Ireland</title>
<style type="text/css">
  #main {font-family:Helvetica,Arial,sans-serif; font-size:27.00px;
         fill-opacity:1; fill:#000000; stroke:none; stroke-linejoin:round; stroke-linecap:round; stroke-width:1.00;}
  .marker {stroke-opacity:0;fill-opacity:0;}
  .marker:hover {stroke-opacity:0.5; fill-opacity:1;}
  .ticklabel {font-size:27.00px;fill:#808080;stroke:none;font-family:Helvetica}
  .ytl {text-anchor:end;}
  .dp1 {pointer-events:none;font-size:70%;text-anchor:middle;fill:#000000;}
  .dp2 {pointer-events:none;font-size:70%;text-anchor:middle;fill:#FFFFFF;}
  .numtip {pointer-events:none;}
  .cc {opacity:0.25;}
.dl_fe {background-color:#FDFFDF;display:flex;margin:auto;align-items:center}
.dl_fe_p {font-size:20px;text-align:center;margin:3px}
.dl_el {display:none;pointer-events:none;}
.cc:hover + .dl_el {display:block;}
text:hover + .dl_el {display:block;}
</style>
<defs>
  <clipPath id="axis_clip"><rect x="145.8" y="54.2" width="761.2" height="532.8" /></clipPath>
  <path id="line_y" d="M 0,53.993 v 533.183" stroke="#262626" stroke-opacity="0.15" stroke-width="1.00"/>
  <path id="line_x" d="M 145.600,0 h 761.600" stroke="#262626" stroke-opacity="0.15" stroke-width="1.00"/>
  <path id="tick_y" d="M 145.600,0 h -6.000" stroke="#808080" stroke-width="0.90"/>
  <path id="tick_x" d="M 0,587.177 v 6.000" stroke="#808080" stroke-width="0.90"/>
</defs>
<g id="main">
<use xlink:href="#line_y" transform="translate(156.8,0)"/>
<use xlink:href="#line_y" transform="translate(268.8,0)"/>
<use xlink:href="#line_y" transform="translate(380.8,0)"/>
<use xlink:href="#line_y" transform="translate(492.8,0)"/>
<use xlink:href="#line_y" transform="translate(604.8,0)"/>
<use xlink:href="#line_y" transform="translate(716.8,0)"/>
<use xlink:href="#line_y" transform="translate(828.8,0)"/>
<use xlink:href="#line_y" transform="translate(896.0,0)"/>
<use xlink:href="#line_x" transform="translate(0,587.2)"/>
<use xlink:href="#line_x" transform="translate(0,498.3)"/>
<use xlink:href="#line_x" transform="translate(0,409.4)"/>
<use xlink:href="#line_x" transform="translate(0,320.6)"/>
<use xlink:href="#line_x" transform="translate(0,231.7)"/>
<use xlink:href="#line_x" transform="translate(0,142.9)"/>
<use xlink:href="#line_x" transform="translate(0,54.0)"/>
<use xlink:href="#tick_y" transform="translate(0,587.2)"/>
<use xlink:href="#tick_y" transform="translate(0,498.3)"/>
<use xlink:href="#tick_y" transform="translate(0,409.4)"/>
<use xlink:href="#tick_y" transform="translate(0,320.6)"/>
<use xlink:href="#tick_y" transform="translate(0,231.7)"/>
<use xlink:href="#tick_y" transform="translate(0,142.9)"/>
<use xlink:href="#tick_y" transform="translate(0,54.0)"/>
<use xlink:href="#tick_x" transform="translate(156.8,0)"/>
<use xlink:href="#tick_x" transform="translate(268.8,0)"/>
<use xlink:href="#tick_x" transform="translate(380.8,0)"/>
<use xlink:href="#tick_x" transform="translate(492.8,0)"/>
<use xlink:href="#tick_x" transform="translate(604.8,0)"/>
<use xlink:href="#tick_x" transform="translate(716.8,0)"/>
<use xlink:href="#tick_x" transform="translate(828.8,0)"/>
<use xlink:href="#tick_x" transform="translate(896.0,0)"/>
<polyline points="145.6,53.993 145.6,587.177 907.2,587.177" stroke="#808080" stroke-width="0.90" fill="none"/>
<text class="ticklabel xtl" transform="translate(156.8,629.0)" text-anchor="middle">1990</text>
<text class="ticklabel xtl" transform="translate(268.8,629.0)" text-anchor="middle">1995</text>
<text class="ticklabel xtl" transform="translate(380.8,629.0)" text-anchor="middle">2000</text>
<text class="ticklabel xtl" transform="translate(492.8,629.0)" text-anchor="middle">2005</text>
<text class="ticklabel xtl" transform="translate(604.8,629.0)" text-anchor="middle">2010</text>
<text class="ticklabel xtl" transform="translate(716.8,629.0)" text-anchor="middle">2015</text>
<text class="ticklabel xtl" transform="translate(828.8,629.0)" text-anchor="middle">2020</text>
<text class="ticklabel xtl" transform="translate(896.0,629.0)" text-anchor="middle">23</text>
<text class="ticklabel ytl" transform="translate(128.8,595.3)">0</text>
<text class="ticklabel ytl" transform="translate(128.8,506.4)">5</text>
<text class="ticklabel ytl" transform="translate(128.8,417.5)">10</text>
<text class="ticklabel ytl" transform="translate(128.8,328.7)">15</text>
<text class="ticklabel ytl" transform="translate(128.8,239.8)">20</text>
<text class="ticklabel ytl" transform="translate(128.8,151.0)">25</text>
<text class="ticklabel ytl" transform="translate(128.8,62.1)">30 kt</text>
<g stroke="#000" stroke-width="0.90" fill="#7FBF7F"  clip-path="url(#axis_clip)">
  <polygon points="147.8,156.9 147.8,170.0 165.8,170.0 165.8,156.9 147.8,156.9"/>
  <polygon points="170.2,171.5 170.2,185.1 188.2,185.1 188.2,171.5 170.2,171.5"/>
  <polygon points="192.6,176.6 192.6,189.2 210.6,189.2 210.6,176.6 192.6,176.6"/>
  <polygon points="215.0,165.5 215.0,179.0 233.0,179.0 233.0,165.5 215.0,165.5"/>
  <polygon points="237.4,150.4 237.4,164.4 255.4,164.4 255.4,150.4 237.4,150.4"/>
  <polygon points="259.8,131.2 259.8,146.7 277.8,146.7 277.8,131.2 259.8,131.2"/>
  <polygon points="282.2,125.4 282.2,141.1 300.2,141.1 300.2,125.4 282.2,125.4"/>
  <polygon points="304.6,132.8 304.6,148.4 322.6,148.4 322.6,132.8 304.6,132.8"/>
  <polygon points="327.0,106.9 327.0,121.9 345.0,121.9 345.0,106.9 327.0,106.9"/>
  <polygon points="349.4,120.5 349.4,135.4 367.4,135.4 367.4,120.5 349.4,120.5"/>
  <polygon points="371.8,137.1 371.8,152.8 389.8,152.8 389.8,137.1 371.8,137.1"/>
  <polygon points="394.2,161.6 394.2,181.0 412.2,181.0 412.2,161.6 394.2,161.6"/>
  <polygon points="416.6,184.3 416.6,200.9 434.6,200.9 434.6,184.3 416.6,184.3"/>
  <polygon points="439.0,185.7 439.0,205.5 457.0,205.5 457.0,185.7 439.0,185.7"/>
  <polygon points="461.4,196.0 461.4,213.5 479.4,213.5 479.4,196.0 461.4,196.0"/>
  <polygon points="483.8,203.3 483.8,221.3 501.8,221.3 501.8,203.3 483.8,203.3"/>
  <polygon points="506.2,212.3 506.2,230.0 524.2,230.0 524.2,212.3 506.2,212.3"/>
  <polygon points="528.6,222.2 528.6,239.4 546.6,239.4 546.6,222.2 528.6,222.2"/>
  <polygon points="551.0,231.8 551.0,249.1 569.0,249.1 569.0,231.8 551.0,231.8"/>
  <polygon points="573.4,241.5 573.4,259.1 591.4,259.1 591.4,241.5 573.4,241.5"/>
  <polygon points="595.8,218.7 595.8,240.9 613.8,240.9 613.8,218.7 595.8,218.7"/>
  <polygon points="618.2,247.6 618.2,266.7 636.2,266.7 636.2,247.6 618.2,247.6"/>
  <polygon points="640.6,240.8 640.6,258.7 658.6,258.7 658.6,240.8 640.6,240.8"/>
  <polygon points="663.0,216.6 663.0,235.4 681.0,235.4 681.0,216.6 663.0,216.6"/>
  <polygon points="685.4,221.9 685.4,243.3 703.4,243.3 703.4,221.9 685.4,221.9"/>
  <polygon points="707.8,223.0 707.8,241.5 725.8,241.5 725.8,223.0 707.8,223.0"/>
  <polygon points="730.2,216.6 730.2,234.2 748.2,234.2 748.2,216.6 730.2,216.6"/>
  <polygon points="752.6,194.4 752.6,216.2 770.6,216.2 770.6,194.4 752.6,194.4"/>
  <polygon points="775.0,182.1 775.0,200.9 793.0,200.9 793.0,182.1 775.0,182.1"/>
  <polygon points="797.4,196.8 797.4,215.3 815.4,215.3 815.4,196.8 797.4,196.8"/>
  <polygon points="819.8,196.9 819.8,215.2 837.8,215.2 837.8,196.9 819.8,196.9"/>
  <polygon points="842.2,186.5 842.2,204.3 860.2,204.3 860.2,186.5 842.2,186.5"/>
  <polygon points="864.6,214.7 864.6,232.3 882.6,232.3 882.6,214.7 864.6,214.7"/>
  <polygon points="887.0,244.9 887.0,262.8 905.0,262.8 905.0,244.9 887.0,244.9"/>
</g>
<g stroke="#000" stroke-width="0.90" fill="#DBA746"  clip-path="url(#axis_clip)">
  <polygon points="147.8,170.0 147.8,174.6 165.8,174.6 165.8,170.0 147.8,170.0"/>
  <polygon points="170.2,185.1 170.2,189.6 188.2,189.6 188.2,185.1 170.2,185.1"/>
  <polygon points="192.6,189.2 192.6,193.8 210.6,193.8 210.6,189.2 192.6,189.2"/>
  <polygon points="215.0,179.0 215.0,183.6 233.0,183.6 233.0,179.0 215.0,179.0"/>
  <polygon points="237.4,164.4 237.4,168.9 255.4,168.9 255.4,164.4 237.4,164.4"/>
  <polygon points="259.8,146.7 259.8,151.2 277.8,151.2 277.8,146.7 259.8,146.7"/>
  <polygon points="282.2,141.1 282.2,145.5 300.2,145.5 300.2,141.1 282.2,141.1"/>
  <polygon points="304.6,148.4 304.6,152.9 322.6,152.9 322.6,148.4 304.6,148.4"/>
  <polygon points="327.0,121.9 327.0,126.6 345.0,126.6 345.0,121.9 327.0,121.9"/>
  <polygon points="349.4,135.4 349.4,140.3 367.4,140.3 367.4,135.4 349.4,135.4"/>
  <polygon points="371.8,152.8 371.8,157.8 389.8,157.8 389.8,152.8 371.8,152.8"/>
  <polygon points="394.2,181.0 394.2,186.3 412.2,186.3 412.2,181.0 394.2,181.0"/>
  <polygon points="416.6,200.9 416.6,206.3 434.6,206.3 434.6,200.9 416.6,200.9"/>
  <polygon points="439.0,205.5 439.0,211.0 457.0,211.0 457.0,205.5 439.0,205.5"/>
  <polygon points="461.4,213.5 461.4,219.7 479.4,219.7 479.4,213.5 461.4,213.5"/>
  <polygon points="483.8,221.3 483.8,227.8 501.8,227.8 501.8,221.3 483.8,221.3"/>
  <polygon points="506.2,230.0 506.2,236.4 524.2,236.4 524.2,230.0 506.2,230.0"/>
  <polygon points="528.6,239.4 528.6,245.9 546.6,245.9 546.6,239.4 528.6,239.4"/>
  <polygon points="551.0,249.1 551.0,255.9 569.0,255.9 569.0,249.1 551.0,249.1"/>
  <polygon points="573.4,259.1 573.4,266.0 591.4,266.0 591.4,259.1 573.4,259.1"/>
  <polygon points="595.8,240.9 595.8,247.8 613.8,247.8 613.8,240.9 595.8,240.9"/>
  <polygon points="618.2,266.7 618.2,273.5 636.2,273.5 636.2,266.7 618.2,266.7"/>
  <polygon points="640.6,258.7 640.6,265.3 658.6,265.3 658.6,258.7 640.6,258.7"/>
  <polygon points="663.0,235.4 663.0,242.0 681.0,242.0 681.0,235.4 663.0,235.4"/>
  <polygon points="685.4,243.3 685.4,250.0 703.4,250.0 703.4,243.3 685.4,243.3"/>
  <polygon points="707.8,241.5 707.8,248.3 725.8,248.3 725.8,241.5 707.8,241.5"/>
  <polygon points="730.2,234.2 730.2,241.3 748.2,241.3 748.2,234.2 730.2,234.2"/>
  <polygon points="752.6,216.2 752.6,223.5 770.6,223.5 770.6,216.2 752.6,216.2"/>
  <polygon points="775.0,200.9 775.0,208.2 793.0,208.2 793.0,200.9 775.0,200.9"/>
  <polygon points="797.4,215.3 797.4,222.7 815.4,222.7 815.4,215.3 797.4,215.3"/>
  <polygon points="819.8,215.2 819.8,222.7 837.8,222.7 837.8,215.2 819.8,215.2"/>
  <polygon points="842.2,204.3 842.2,211.7 860.2,211.7 860.2,204.3 842.2,204.3"/>
  <polygon points="864.6,232.3 864.6,239.9 882.6,239.9 882.6,232.3 864.6,232.3"/>
  <polygon points="887.0,262.8 887.0,270.7 905.0,270.7 905.0,262.8 887.0,262.8"/>
</g>
<g stroke="#000" stroke-width="0.90" fill="#845F48"  clip-path="url(#axis_clip)">
  <polygon points="147.8,174.6 147.8,510.8 165.8,510.8 165.8,174.6 147.8,174.6"/>
  <polygon points="170.2,189.6 170.2,523.3 188.2,523.3 188.2,189.6 170.2,189.6"/>
  <polygon points="192.6,193.8 192.6,522.7 210.6,522.7 210.6,193.8 192.6,193.8"/>
  <polygon points="215.0,183.6 215.0,521.8 233.0,521.8 233.0,183.6 215.0,183.6"/>
  <polygon points="237.4,168.9 237.4,519.3 255.4,519.3 255.4,168.9 237.4,168.9"/>
  <polygon points="259.8,151.2 259.8,516.0 277.8,516.0 277.8,151.2 259.8,151.2"/>
  <polygon points="282.2,145.5 282.2,511.9 300.2,511.9 300.2,145.5 282.2,145.5"/>
  <polygon points="304.6,152.9 304.6,508.2 322.6,508.2 322.6,152.9 304.6,152.9"/>
  <polygon points="327.0,126.6 327.0,504.0 345.0,504.0 345.0,126.6 327.0,126.6"/>
  <polygon points="349.4,140.3 349.4,516.5 367.4,516.5 367.4,140.3 349.4,140.3"/>
  <polygon points="371.8,157.8 371.8,515.3 389.8,515.3 389.8,157.8 371.8,157.8"/>
  <polygon points="394.2,186.3 394.2,527.4 412.2,527.4 412.2,186.3 394.2,186.3"/>
  <polygon points="416.6,206.3 416.6,543.8 434.6,543.8 434.6,206.3 416.6,206.3"/>
  <polygon points="439.0,211.0 439.0,560.2 457.0,560.2 457.0,211.0 439.0,211.0"/>
  <polygon points="461.4,219.7 461.4,561.2 479.4,561.2 479.4,219.7 461.4,219.7"/>
  <polygon points="483.8,227.8 483.8,560.3 501.8,560.3 501.8,227.8 483.8,227.8"/>
  <polygon points="506.2,236.4 506.2,560.4 524.2,560.4 524.2,236.4 506.2,236.4"/>
  <polygon points="528.6,245.9 528.6,560.8 546.6,560.8 546.6,245.9 528.6,245.9"/>
  <polygon points="551.0,255.9 551.0,561.1 569.0,561.1 569.0,255.9 551.0,255.9"/>
  <polygon points="573.4,266.0 573.4,563.0 591.4,563.0 591.4,266.0 573.4,266.0"/>
  <polygon points="595.8,247.8 595.8,563.3 613.8,563.3 613.8,247.8 595.8,247.8"/>
  <polygon points="618.2,273.5 618.2,564.5 636.2,564.5 636.2,273.5 618.2,273.5"/>
  <polygon points="640.6,265.3 640.6,564.7 658.6,564.7 658.6,265.3 640.6,265.3"/>
  <polygon points="663.0,242.0 663.0,565.5 681.0,565.5 681.0,242.0 663.0,242.0"/>
  <polygon points="685.4,250.0 685.4,565.5 703.4,565.5 703.4,250.0 685.4,250.0"/>
  <polygon points="707.8,248.3 707.8,565.2 725.8,565.2 725.8,248.3 707.8,248.3"/>
  <polygon points="730.2,241.3 730.2,563.5 748.2,563.5 748.2,241.3 730.2,241.3"/>
  <polygon points="752.6,223.5 752.6,563.3 770.6,563.3 770.6,223.5 752.6,223.5"/>
  <polygon points="775.0,208.2 775.0,562.5 793.0,562.5 793.0,208.2 775.0,208.2"/>
  <polygon points="797.4,222.7 797.4,562.5 815.4,562.5 815.4,222.7 797.4,222.7"/>
  <polygon points="819.8,222.7 819.8,564.2 837.8,564.2 837.8,222.7 819.8,222.7"/>
  <polygon points="842.2,211.7 842.2,564.7 860.2,564.7 860.2,211.7 842.2,211.7"/>
  <polygon points="864.6,239.9 864.6,562.5 882.6,562.5 882.6,239.9 864.6,239.9"/>
  <polygon points="887.0,270.7 887.0,563.6 905.0,563.6 905.0,270.7 887.0,270.7"/>
</g>
<g stroke="#000" stroke-width="0.90" fill="#4A89E8"  clip-path="url(#axis_clip)">
  <polygon points="147.8,510.8 147.8,572.0 165.8,572.0 165.8,510.8 147.8,510.8"/>
  <polygon points="170.2,523.3 170.2,571.7 188.2,571.7 188.2,523.3 170.2,523.3"/>
  <polygon points="192.6,522.7 192.6,571.1 210.6,571.1 210.6,522.7 192.6,522.7"/>
  <polygon points="215.0,521.8 215.0,570.2 233.0,570.2 233.0,521.8 215.0,521.8"/>
  <polygon points="237.4,519.3 237.4,567.8 255.4,567.8 255.4,519.3 237.4,519.3"/>
  <polygon points="259.8,516.0 259.8,564.5 277.8,564.5 277.8,516.0 259.8,516.0"/>
  <polygon points="282.2,511.9 282.2,560.5 300.2,560.5 300.2,511.9 282.2,511.9"/>
  <polygon points="304.6,508.2 304.6,556.7 322.6,556.7 322.6,508.2 304.6,508.2"/>
  <polygon points="327.0,504.0 327.0,552.5 345.0,552.5 345.0,504.0 327.0,504.0"/>
  <polygon points="349.4,516.5 349.4,565.1 367.4,565.1 367.4,516.5 349.4,516.5"/>
  <polygon points="371.8,515.3 371.8,563.9 389.8,563.9 389.8,515.3 371.8,515.3"/>
  <polygon points="394.2,527.4 394.2,563.0 412.2,563.0 412.2,527.4 394.2,527.4"/>
  <polygon points="416.6,543.8 416.6,562.7 434.6,562.7 434.6,543.8 416.6,543.8"/>
  <polygon points="439.0,560.2 439.0,562.3 457.0,562.3 457.0,560.2 439.0,560.2"/>
  <polygon points="461.4,561.2 461.4,563.3 479.4,563.3 479.4,561.2 461.4,561.2"/>
  <polygon points="483.8,560.3 483.8,562.5 501.8,562.5 501.8,560.3 483.8,560.3"/>
  <polygon points="506.2,560.4 506.2,562.6 524.2,562.6 524.2,560.4 506.2,560.4"/>
  <polygon points="528.6,560.8 528.6,563.2 546.6,563.2 546.6,560.8 528.6,560.8"/>
  <polygon points="551.0,561.1 551.0,563.5 569.0,563.5 569.0,561.1 551.0,561.1"/>
  <polygon points="573.4,563.0 573.4,565.4 591.4,565.4 591.4,563.0 573.4,563.0"/>
  <polygon points="595.8,563.3 595.8,565.7 613.8,565.7 613.8,563.3 595.8,563.3"/>
  <polygon points="618.2,564.5 618.2,566.9 636.2,566.9 636.2,564.5 618.2,564.5"/>
  <polygon points="640.6,564.7 640.6,567.2 658.6,567.2 658.6,564.7 640.6,564.7"/>
  <polygon points="663.0,565.5 663.0,567.9 681.0,567.9 681.0,565.5 663.0,565.5"/>
  <polygon points="685.4,565.5 685.4,568.0 703.4,568.0 703.4,565.5 685.4,565.5"/>
  <polygon points="707.8,565.2 707.8,567.7 725.8,567.7 725.8,565.2 707.8,565.2"/>
  <polygon points="730.2,563.5 730.2,566.0 748.2,566.0 748.2,563.5 730.2,563.5"/>
  <polygon points="752.6,563.3 752.6,565.8 770.6,565.8 770.6,563.3 752.6,563.3"/>
  <polygon points="775.0,562.5 775.0,565.1 793.0,565.1 793.0,562.5 775.0,562.5"/>
  <polygon points="797.4,562.5 797.4,565.1 815.4,565.1 815.4,562.5 797.4,562.5"/>
  <polygon points="819.8,564.2 819.8,566.9 837.8,566.9 837.8,564.2 819.8,564.2"/>
  <polygon points="842.2,564.7 842.2,567.4 860.2,567.4 860.2,564.7 842.2,564.7"/>
  <polygon points="864.6,562.5 864.6,565.3 882.6,565.3 882.6,562.5 864.6,562.5"/>
  <polygon points="887.0,563.6 887.0,566.4 905.0,566.4 905.0,563.6 887.0,563.6"/>
</g>
<g stroke="#000" stroke-width="0.90" fill="#FF7F61"  clip-path="url(#axis_clip)">
  <polygon points="147.8,572.0 147.8,587.2 165.8,587.2 165.8,572.0 147.8,572.0"/>
  <polygon points="170.2,571.7 170.2,587.2 188.2,587.2 188.2,571.7 170.2,571.7"/>
  <polygon points="192.6,571.1 192.6,587.2 210.6,587.2 210.6,571.1 192.6,571.1"/>
  <polygon points="215.0,570.2 215.0,587.2 233.0,587.2 233.0,570.2 215.0,570.2"/>
  <polygon points="237.4,567.8 237.4,587.2 255.4,587.2 255.4,567.8 237.4,567.8"/>
  <polygon points="259.8,564.5 259.8,587.2 277.8,587.2 277.8,564.5 259.8,564.5"/>
  <polygon points="282.2,560.5 282.2,587.2 300.2,587.2 300.2,560.5 282.2,560.5"/>
  <polygon points="304.6,556.7 304.6,587.2 322.6,587.2 322.6,556.7 304.6,556.7"/>
  <polygon points="327.0,552.5 327.0,587.2 345.0,587.2 345.0,552.5 327.0,552.5"/>
  <polygon points="349.4,565.1 349.4,587.2 367.4,587.2 367.4,565.1 349.4,565.1"/>
  <polygon points="371.8,563.9 371.8,587.2 389.8,587.2 389.8,563.9 371.8,563.9"/>
  <polygon points="394.2,563.0 394.2,587.2 412.2,587.2 412.2,563.0 394.2,563.0"/>
  <polygon points="416.6,562.7 416.6,587.2 434.6,587.2 434.6,562.7 416.6,562.7"/>
  <polygon points="439.0,562.3 439.0,587.2 457.0,587.2 457.0,562.3 439.0,562.3"/>
  <polygon points="461.4,563.3 461.4,587.2 479.4,587.2 479.4,563.3 461.4,563.3"/>
  <polygon points="483.8,562.5 483.8,587.2 501.8,587.2 501.8,562.5 483.8,562.5"/>
  <polygon points="506.2,562.6 506.2,587.2 524.2,587.2 524.2,562.6 506.2,562.6"/>
  <polygon points="528.6,563.2 528.6,587.2 546.6,587.2 546.6,563.2 528.6,563.2"/>
  <polygon points="551.0,563.5 551.0,587.2 569.0,587.2 569.0,563.5 551.0,563.5"/>
  <polygon points="573.4,565.4 573.4,587.2 591.4,587.2 591.4,565.4 573.4,565.4"/>
  <polygon points="595.8,565.7 595.8,587.2 613.8,587.2 613.8,565.7 595.8,565.7"/>
  <polygon points="618.2,566.9 618.2,587.2 636.2,587.2 636.2,566.9 618.2,566.9"/>
  <polygon points="640.6,567.2 640.6,587.2 658.6,587.2 658.6,567.2 640.6,567.2"/>
  <polygon points="663.0,567.9 663.0,587.2 681.0,587.2 681.0,567.9 663.0,567.9"/>
  <polygon points="685.4,568.0 685.4,587.2 703.4,587.2 703.4,568.0 685.4,568.0"/>
  <polygon points="707.8,567.7 707.8,587.2 725.8,587.2 725.8,567.7 707.8,567.7"/>
  <polygon points="730.2,566.0 730.2,587.2 748.2,587.2 748.2,566.0 730.2,566.0"/>
  <polygon points="752.6,565.8 752.6,587.2 770.6,587.2 770.6,565.8 752.6,565.8"/>
  <polygon points="775.0,565.1 775.0,587.2 793.0,587.2 793.0,565.1 775.0,565.1"/>
  <polygon points="797.4,565.1 797.4,587.2 815.4,587.2 815.4,565.1 797.4,565.1"/>
  <polygon points="819.8,566.9 819.8,587.2 837.8,587.2 837.8,566.9 819.8,566.9"/>
  <polygon points="842.2,567.4 842.2,587.2 860.2,587.2 860.2,567.4 842.2,567.4"/>
  <polygon points="864.6,565.3 864.6,587.2 882.6,587.2 882.6,565.3 864.6,565.3"/>
  <polygon points="887.0,566.4 887.0,587.2 905.0,587.2 905.0,566.4 887.0,566.4"/>
</g>
<polyline class="pl" points="156.8,156.9 179.2,171.5 201.6,176.6 224.0,165.5 246.4,150.4 268.8,131.2 291.2,125.4 313.6,132.8 336.0,106.9 358.4,120.5 380.8,137.1 403.2,161.6 425.6,184.3 448.0,185.7 470.4,196.0 492.8,203.3 515.2,212.3 537.6,222.2 560.0,231.8 582.4,241.5 604.8,218.7 627.2,247.6 649.6,240.8 672.0,216.6 694.4,221.9 716.8,223.0 739.2,216.6 761.6,194.4 784.0,182.1 806.4,196.8 828.8,196.9 851.2,186.5 873.6,214.7 896.0,244.9" stroke="#000" stroke-width="5.40" stroke-opacity="1.00" fill="none" clip-path="url(#axis_clip)"/>
<g class="pl" fill="#FFF" stroke="#000" stroke-width="0.900">
  <circle cx="179.2" cy="171.5" r="2.2" />
  <circle cx="201.6" cy="176.6" r="2.2" />
  <circle cx="224.0" cy="165.5" r="2.2" />
  <circle cx="246.4" cy="150.4" r="2.2" />
  <circle cx="268.8" cy="131.2" r="2.2" />
  <circle cx="291.2" cy="125.4" r="2.2" />
  <circle cx="313.6" cy="132.8" r="2.2" />
  <circle cx="336.0" cy="106.9" r="2.2" />
  <circle cx="358.4" cy="120.5" r="2.2" />
  <circle cx="403.2" cy="161.6" r="2.2" />
  <circle cx="425.6" cy="184.3" r="2.2" />
  <circle cx="448.0" cy="185.7" r="2.2" />
  <circle cx="470.4" cy="196.0" r="2.2" />
  <circle cx="492.8" cy="203.3" r="2.2" />
  <circle cx="515.2" cy="212.3" r="2.2" />
  <circle cx="537.6" cy="222.2" r="2.2" />
  <circle cx="560.0" cy="231.8" r="2.2" />
  <circle cx="582.4" cy="241.5" r="2.2" />
  <circle cx="627.2" cy="247.6" r="2.2" />
  <circle cx="649.6" cy="240.8" r="2.2" />
  <circle cx="672.0" cy="216.6" r="2.2" />
  <circle cx="694.4" cy="221.9" r="2.2" />
  <circle cx="716.8" cy="223.0" r="2.2" />
  <circle cx="739.2" cy="216.6" r="2.2" />
  <circle cx="761.6" cy="194.4" r="2.2" />
  <circle cx="784.0" cy="182.1" r="2.2" />
  <circle cx="806.4" cy="196.8" r="2.2" />
  <circle cx="851.2" cy="186.5" r="2.2" />
  <circle cx="873.6" cy="214.7" r="2.2" />
  <circle cx="896.0" cy="244.9" r="2.2" />
</g>
<g class="pl" fill="#FFF" stroke="#000" stroke-width="0.900">
  <circle cx="156.8" cy="156.9" r="5.4" />
  <circle cx="380.8" cy="137.1" r="5.4" />
  <circle cx="604.8" cy="218.7" r="5.4" />
  <circle cx="828.8" cy="196.9" r="5.4" />
</g>
<text transform="translate(145.6,47.2)" dy="0.0" font-size="27.00" fill="#808080" stroke="none">Annual N<tspan dy="0.2em"><tspan style="font-size:70%">2</tspan></tspan><tspan dy="-0.2em">O</tspan> Emissions: Ireland</text>
<text transform="translate(130.0,81.6)" dy="8.1" font-size="27.00" fill="#808080" stroke="none" text-anchor="end">N<tspan dy="0.2em"><tspan style="font-size:70%">2</tspan></tspan><tspan dy="-0.2em">O</tspan></text>
<text transform="translate(945.6,230.1)" dy="7.6" font-size="25.20" fill="#000" stroke="none">-20.5% since 1990</text>
<text transform="translate(945.6,583.4)" dy="7.6" font-size="25.20" fill="#FF7F61" stroke="none">Energy</text>
<text transform="translate(945.6,558.4)" dy="7.6" font-size="25.20" fill="#4A89E8" stroke="none">Industrial Processes</text>
<text transform="translate(945.6,417.1)" dy="7.6" font-size="25.20" fill="#845F48" stroke="none">Agriculture</text>
<text transform="translate(945.6,280.2)" dy="7.6" font-size="25.20" fill="#DBA746" stroke="none">Waste</text>
<text transform="translate(945.6,255.2)" dy="7.6" font-size="25.20" fill="#7FBF7F" stroke="none">LULUCF</text>
<polyline class="pl" points="910.8,244.9 912.4,244.9 913.8,244.7 915.2,244.5 916.4,244.2 917.6,243.8 918.8,243.3 919.8,242.8 920.8,242.2 921.7,241.5 922.7,240.9 923.5,240.2 924.4,239.4 925.2,238.7 926.0,237.9 926.8,237.2 927.6,236.4 928.4,235.6 929.3,234.9 930.1,234.2 931.1,233.5 932.0,232.9 933.0,232.3 934.0,231.8 935.2,231.3 936.4,230.9 937.6,230.6 939.0,230.3 940.4,230.2 942.0,230.1" stroke="#000" stroke-width="0.90" stroke-opacity="1.00" fill="none" />
<polyline class="pl" points="910.8,576.8 912.4,576.8 913.8,576.9 915.2,577.0 916.4,577.1 917.6,577.3 918.8,577.5 919.8,577.7 920.8,578.0 921.7,578.3 922.7,578.6 923.5,578.9 924.4,579.2 925.2,579.6 926.0,579.9 926.8,580.3 927.6,580.6 928.4,580.9 929.3,581.3 930.1,581.6 931.1,581.9 932.0,582.2 933.0,582.4 934.0,582.7 935.2,582.9 936.4,583.1 937.6,583.2 939.0,583.3 940.4,583.4 942.0,583.4" stroke="#FF7F61" stroke-width="0.90" stroke-opacity="1.00" fill="none" />
<polyline class="pl" points="910.8,565.0 912.4,564.9 913.8,564.9 915.2,564.8 916.4,564.6 917.6,564.4 918.8,564.2 919.8,564.0 920.8,563.7 921.7,563.5 922.7,563.2 923.5,562.8 924.4,562.5 925.2,562.2 926.0,561.8 926.8,561.5 927.6,561.2 928.4,560.8 929.3,560.5 930.1,560.2 931.1,559.9 932.0,559.6 933.0,559.3 934.0,559.1 935.2,558.9 936.4,558.7 937.6,558.6 939.0,558.4 940.4,558.4 942.0,558.4" stroke="#4A89E8" stroke-width="0.90" stroke-opacity="1.00" fill="none" />
<polyline class="pl" points="910.8,266.8 912.4,266.8 913.8,267.0 915.2,267.2 916.4,267.5 917.6,267.8 918.8,268.3 919.8,268.7 920.8,269.3 921.7,269.9 922.7,270.5 923.5,271.1 924.4,271.8 925.2,272.5 926.0,273.1 926.8,273.8 927.6,274.5 928.4,275.2 929.3,275.9 930.1,276.5 931.1,277.1 932.0,277.7 933.0,278.3 934.0,278.7 935.2,279.2 936.4,279.5 937.6,279.8 939.0,280.0 940.4,280.2 942.0,280.2" stroke="#DBA746" stroke-width="0.90" stroke-opacity="1.00" fill="none" />
<polyline class="pl" points="910.8,253.9 912.4,253.9 913.8,253.9 915.2,253.9 916.4,253.9 917.6,254.0 918.8,254.0 919.8,254.1 920.8,254.1 921.7,254.2 922.7,254.2 923.5,254.3 924.4,254.4 925.2,254.4 926.0,254.5 926.8,254.6 927.6,254.6 928.4,254.7 929.3,254.8 930.1,254.8 931.1,254.9 932.0,254.9 933.0,255.0 934.0,255.0 935.2,255.1 936.4,255.1 937.6,255.1 939.0,255.2 940.4,255.2 942.0,255.2" stroke="#7FBF7F" stroke-width="0.90" stroke-opacity="1.00" fill="none" />
<text transform="translate(160.0,666.1)" font-size="19.80" font-family="Helvetica" fill="#BFBFBF" stroke="none" xml:space="preserve">CICERO   &#9679;   Data: UNFCCC (2025)</text>
<g>
  <rect x="123.0" y="651.4" width="34" height="17" fill="#FFF" stroke="none" opacity="0.01"/>
  <g transform="translate(124.0,652.4) scale(0.24)">
  <g><circle fill="#FFF" cx="37.79" cy="28.5" r="28.84"/>
     <circle fill="none" cx="37.79" cy="28.5" r="28.84" stroke="#BFBFBF" stroke-width="5.5"/>
     <path fill="#BFBFBF" d="M37.16,23.19 l-4.29,2.23c-0.458-0.951-1.02-1.62-1.69-2c-0.667-0.38-1.29-0.571-1.86-0.571c-2.86,0-4.29,1.89-4.29,5.66 c0,1.71,0.36,3.08,1.09,4.11c0.724,1.03,1.79,1.54,3.2,1.54c1.87,0,3.18-0.915,3.94-2.74l3.94,2 c-0.838,1.56-2,2.79-3.49,3.69c-1.48,0.896-3.12,1.34-4.91,1.34c-2.86,0-5.16-0.875-6.92-2.63 c-1.75-1.75-2.63-4.19-2.63-7.31c0-3.05,0.886-5.47,2.66-7.26c1.77-1.79,4.01-2.69,6.72-2.69 C32.6,18.56,35.44,20.1,37.16,23.19z
              M55.61,23.19l-4.23,2.23c-0.457-0.951-1.02-1.62-1.69-2 c-0.668-0.38-1.31-0.571-1.91-0.571c-2.86,0-4.29,1.89-4.29,5.66c0,1.71,0.363,3.08,1.09,4.11 c0.723,1.03,1.79,1.54,3.2,1.54c1.87,0,3.18-0.915,3.94-2.74l4,2c-0.875,1.56-2.06,2.79-3.54,3.69 c-1.49,0.9-3.11,1.34-4.86,1.34c-2.9,0-5.21-0.875-6.94-2.63c-1.74-1.75-2.6-4.19-2.6-7.31 c0-3.05,0.885-5.47,2.66-7.26c1.77-1.79,4.01-2.69,6.71-2.69C51.12,18.56,53.944,20.1,55.61,23.19z"/>
  </g></g>
  <g transform="translate(140.2,652.4) scale(0.24)">
  <g><circle fill="#FFF" cx="37.79" cy="28.5" r="28.84"/>
     <circle fill="none" cx="37.79" cy="28.5" r="28.84" stroke="#BFBFBF" stroke-width="5.5"/>
     <path fill="#BFBFBF" d="M46.129,20.557v13.085h-3.656v15.542h-9.944V33.643h-3.656V20.557 c0-0.572,0.2-1.057,0.599-1.457c0.401-0.399,0.887-0.6,1.457-0.6h13.144c0.533,0,1.01,0.2,1.428,0.6 C45.918,19.5,46.129,19.986,46.129,20.557z
              M33.042,12.329c0-3.008,1.485-4.514,4.458-4.514s4.457,1.504,4.457,4.514 c0,2.971-1.486,4.457-4.457,4.457S33.042,15.3,33.042,12.329z"/>
  </g></g>
</g>
</g>
</svg>
