<svg version="1.1" xmlns="http://www.w3.org/2000/svg" xmlns:xlink="http://www.w3.org/1999/xlink" width="100%" height="100%" viewBox="0 0 1200.000 674.916">
<title>Annual N2O Emissions: Ireland</title>
<style type="text/css">
  #main {font-family:Helvetica,Arial,sans-serif; font-size:27.00px;
         fill-opacity:1; fill:#000000; stroke:none; stroke-linejoin:round; stroke-linecap:round; stroke-width:1.00;}
  .marker {stroke-opacity:0;fill-opacity:0;}
  .marker:hover {stroke-opacity:0.5; fill-opacity:1;}
  .ticklabel {font-size:27.00px;fill:#808080;stroke:none;font-family:Helvetica}
  .ytl {text-anchor:end;}
  .dp1 {pointer-events:none;font-size:70%;text-anchor:middle;fill:#000000;}
  .dp2 {pointer-events:none;font-size:70%;text-anchor:middle;fill:#FFFFFF;}
  .numtip {pointer-events:none;}
  .cc {opacity:0.25;}
.dl_fe {background-color:#FDFFDF;display:flex;margin:auto;align-items:center}
.dl_fe_p {font-size:20px;text-align:center;margin:3px}
.dl_el {display:none;pointer-events:none;}
.cc:hover + .dl_el {display:block;}
text:hover + .dl_el {display:block;}
</style>
<defs>
  <clipPath id="axis_clip"><rect x="145.8" y="54.2" width="761.2" height="532.8" /></clipPath>
  <path id="line_y" d="M 0,53.993 v 533.183" stroke="#262626" stroke-opacity="0.15" stroke-width="1.00"/>
  <path id="line_x" d="M 145.600,0 h 761.600" stroke="#262626" stroke-opacity="0.15" stroke-width="1.00"/>
  <path id="tick_y" d="M 145.600,0 h -6.000" stroke="#808080" stroke-width="0.90"/>
  <path id="tick_x" d="M 0,587.177 v 6.000" stroke="#808080" stroke-width="0.90"/>
</defs>
<g id="main">
<use xlink:href="#line_y" transform="translate(156.5,0)"/>
<use xlink:href="#line_y" transform="translate(265.3,0)"/>
<use xlink:href="#line_y" transform="translate(374.1,0)"/>
<use xlink:href="#line_y" transform="translate(482.9,0)"/>
<use xlink:href="#line_y" transform="translate(591.7,0)"/>
<use xlink:href="#line_y" transform="translate(700.5,0)"/>
<use xlink:href="#line_y" transform="translate(809.3,0)"/>
<use xlink:href="#line_y" transform="translate(896.3,0)"/>
<use xlink:href="#line_x" transform="translate(0,587.2)"/>
<use xlink:href="#line_x" transform="translate(0,498.3)"/>
<use xlink:href="#line_x" transform="translate(0,409.4)"/>
<use xlink:href="#line_x" transform="translate(0,320.6)"/>
<use xlink:href="#line_x" transform="translate(0,231.7)"/>
<use xlink:href="#line_x" transform="translate(0,142.9)"/>
<use xlink:href="#line_x" transform="translate(0,54.0)"/>
<use xlink:href="#tick_y" transform="translate(0,587.2)"/>
<use xlink:href="#tick_y" transform="translate(0,498.3)"/>
<use xlink:href="#tick_y" transform="translate(0,409.4)"/>
<use xlink:href="#tick_y" transform="translate(0,320.6)"/>
<use xlink:href="#tick_y" transform="translate(0,231.7)"/>
<use xlink:href="#tick_y" transform="translate(0,142.9)"/>
<use xlink:href="#tick_y" transform="translate(0,54.0)"/>
<use xlink:href="#tick_x" transform="translate(156.5,0)"/>
<use xlink:href="#tick_x" transform="translate(265.3,0)"/>
<use xlink:href="#tick_x" transform="translate(374.1,0)"/>
<use xlink:href="#tick_x" transform="translate(482.9,0)"/>
<use xlink:href="#tick_x" transform="translate(591.7,0)"/>
<use xlink:href="#tick_x" transform="translate(700.5,0)"/>
<use xlink:href="#tick_x" transform="translate(809.3,0)"/>
<use xlink:href="#tick_x" transform="translate(896.3,0)"/>
<polyline points="145.6,53.993 145.6,587.177 907.2,587.177" stroke="#808080" stroke-width="0.90" fill="none"/>
<text class="ticklabel xtl" transform="translate(156.5,629.0)" text-anchor="middle">1990</text>
<text class="ticklabel xtl" transform="translate(265.3,629.0)" text-anchor="middle">1995</text>
<text class="ticklabel xtl" transform="translate(374.1,629.0)" text-anchor="middle">2000</text>
<text class="ticklabel xtl" transform="translate(482.9,629.0)" text-anchor="middle">2005</text>
<text class="ticklabel xtl" transform="translate(591.7,629.0)" text-anchor="middle">2010</text>
<text class="ticklabel xtl" transform="translate(700.5,629.0)" text-anchor="middle">2015</text>
<text class="ticklabel xtl" transform="translate(809.3,629.0)" text-anchor="middle">2020</text>
<text class="ticklabel xtl" transform="translate(896.3,629.0)" text-anchor="middle">2024</text>
<text class="ticklabel ytl" transform="translate(128.8,595.3)">0</text>
<text class="ticklabel ytl" transform="translate(128.8,506.4)">5</text>
<text class="ticklabel ytl" transform="translate(128.8,417.5)">10</text>
<text class="ticklabel ytl" transform="translate(128.8,328.7)">15</text>
<text class="ticklabel ytl" transform="translate(128.8,239.8)">20</text>
<text class="ticklabel ytl" transform="translate(128.8,151.0)">25</text>
<text class="ticklabel ytl" transform="translate(128.8,62.1)">30 kt</text>
<g stroke="#000" stroke-width="0.90" fill="#7FBF7F"  clip-path="url(#axis_clip)">
  <polygon class="pl" points="147.8,155.6 147.8,168.9 165.2,168.9 165.2,155.6 147.8,155.6"/>
  <polygon class="pl" points="169.5,169.6 169.5,183.4 186.9,183.4 186.9,169.6 169.5,169.6"/>
  <polygon class="pl" points="191.3,174.7 191.3,187.4 208.7,187.4 208.7,174.7 191.3,174.7"/>
  <polygon class="pl" points="213.1,163.7 213.1,177.1 230.5,177.1 230.5,163.7 213.1,163.7"/>
  <polygon class="pl" points="234.8,148.3 234.8,162.4 252.2,162.4 252.2,148.3 234.8,148.3"/>
  <polygon class="pl" points="256.6,129.3 256.6,144.7 274.0,144.7 274.0,129.3 256.6,129.3"/>
  <polygon class="pl" points="278.3,123.4 278.3,139.1 295.7,139.1 295.7,123.4 278.3,123.4"/>
  <polygon class="pl" points="300.1,130.6 300.1,146.2 317.5,146.2 317.5,130.6 300.1,130.6"/>
  <polygon class="pl" points="321.9,104.7 321.9,119.7 339.3,119.7 339.3,104.7 321.9,104.7"/>
  <polygon class="pl" points="343.6,118.5 343.6,133.2 361.0,133.2 361.0,118.5 343.6,118.5"/>
  <polygon class="pl" points="365.4,135.2 365.4,150.6 382.8,150.6 382.8,135.2 365.4,135.2"/>
  <polygon class="pl" points="387.1,159.4 387.1,178.6 404.5,178.6 404.5,159.4 387.1,159.4"/>
  <polygon class="pl" points="408.9,182.2 408.9,198.5 426.3,198.5 426.3,182.2 408.9,182.2"/>
  <polygon class="pl" points="430.7,183.6 430.7,203.1 448.1,203.1 448.1,183.6 430.7,183.6"/>
  <polygon class="pl" points="452.4,193.9 452.4,211.0 469.8,211.0 469.8,193.9 452.4,193.9"/>
  <polygon class="pl" points="474.2,200.7 474.2,218.3 491.6,218.3 491.6,200.7 474.2,200.7"/>
  <polygon class="pl" points="495.9,209.7 495.9,226.8 513.3,226.8 513.3,209.7 495.9,209.7"/>
  <polygon class="pl" points="517.7,219.3 517.7,236.2 535.1,236.2 535.1,219.3 517.7,219.3"/>
  <polygon class="pl" points="539.5,230.1 539.5,246.9 556.9,246.9 556.9,230.1 539.5,230.1"/>
  <polygon class="pl" points="561.2,239.4 561.2,256.1 578.6,256.1 578.6,239.4 561.2,239.4"/>
  <polygon class="pl" points="583.0,217.1 583.0,238.3 600.4,238.3 600.4,217.1 583.0,217.1"/>
  <polygon class="pl" points="604.7,246.2 604.7,264.4 622.1,264.4 622.1,246.2 604.7,246.2"/>
  <polygon class="pl" points="626.5,239.7 626.5,256.4 643.9,256.4 643.9,239.7 626.5,239.7"/>
  <polygon class="pl" points="648.3,215.6 648.3,233.1 665.7,233.1 665.7,215.6 648.3,215.6"/>
  <polygon class="pl" points="670.0,224.5 670.0,242.0 687.4,242.0 687.4,224.5 670.0,224.5"/>
  <polygon class="pl" points="691.8,221.0 691.8,238.3 709.2,238.3 709.2,221.0 691.8,221.0"/>
  <polygon class="pl" points="713.5,212.5 713.5,228.7 730.9,228.7 730.9,212.5 713.5,212.5"/>
  <polygon class="pl" points="735.3,188.0 735.3,208.7 752.7,208.7 752.7,188.0 735.3,188.0"/>
  <polygon class="pl" points="757.1,175.4 757.1,192.6 774.5,192.6 774.5,175.4 757.1,175.4"/>
  <polygon class="pl" points="778.8,189.2 778.8,205.9 796.2,205.9 796.2,189.2 778.8,189.2"/>
  <polygon class="pl" points="800.6,190.0 800.6,206.5 818.0,206.5 818.0,190.0 800.6,190.0"/>
  <polygon class="pl" points="822.3,178.5 822.3,194.5 839.7,194.5 839.7,178.5 822.3,178.5"/>
  <polygon class="pl" points="844.1,205.0 844.1,221.1 861.5,221.1 861.5,205.0 844.1,205.0"/>
  <polygon class="pl" points="865.9,233.7 865.9,250.6 883.3,250.6 883.3,233.7 865.9,233.7"/>
  <polygon class="pl" points="887.6,230.5 887.6,246.3 905.0,246.3 905.0,230.5 887.6,230.5"/>
</g>
<g stroke="#000" stroke-width="0.90" fill="#DBA746"  clip-path="url(#axis_clip)">
  <polygon class="pl" points="147.8,168.9 147.8,173.5 165.2,173.5 165.2,168.9 147.8,168.9"/>
  <polygon class="pl" points="169.5,183.4 169.5,187.9 186.9,187.9 186.9,183.4 169.5,183.4"/>
  <polygon class="pl" points="191.3,187.4 191.3,192.0 208.7,192.0 208.7,187.4 191.3,187.4"/>
  <polygon class="pl" points="213.1,177.1 213.1,181.7 230.5,181.7 230.5,177.1 213.1,177.1"/>
  <polygon class="pl" points="234.8,162.4 234.8,166.9 252.2,166.9 252.2,162.4 234.8,162.4"/>
  <polygon class="pl" points="256.6,144.7 256.6,149.1 274.0,149.1 274.0,144.7 256.6,144.7"/>
  <polygon class="pl" points="278.3,139.1 278.3,143.6 295.7,143.6 295.7,139.1 278.3,139.1"/>
  <polygon class="pl" points="300.1,146.2 300.1,150.8 317.5,150.8 317.5,146.2 300.1,146.2"/>
  <polygon class="pl" points="321.9,119.7 321.9,124.4 339.3,124.4 339.3,119.7 321.9,119.7"/>
  <polygon class="pl" points="343.6,133.2 343.6,138.1 361.0,138.1 361.0,133.2 343.6,133.2"/>
  <polygon class="pl" points="365.4,150.6 365.4,155.5 382.8,155.5 382.8,150.6 365.4,150.6"/>
  <polygon class="pl" points="387.1,178.6 387.1,183.8 404.5,183.8 404.5,178.6 387.1,178.6"/>
  <polygon class="pl" points="408.9,198.5 408.9,203.9 426.3,203.9 426.3,198.5 408.9,198.5"/>
  <polygon class="pl" points="430.7,203.1 430.7,208.6 448.1,208.6 448.1,203.1 430.7,203.1"/>
  <polygon class="pl" points="452.4,211.0 452.4,217.1 469.8,217.1 469.8,211.0 452.4,211.0"/>
  <polygon class="pl" points="474.2,218.3 474.2,224.8 491.6,224.8 491.6,218.3 474.2,218.3"/>
  <polygon class="pl" points="495.9,226.8 495.9,233.2 513.3,233.2 513.3,226.8 495.9,226.8"/>
  <polygon class="pl" points="517.7,236.2 517.7,242.7 535.1,242.7 535.1,236.2 517.7,236.2"/>
  <polygon class="pl" points="539.5,246.9 539.5,253.8 556.9,253.8 556.9,246.9 539.5,246.9"/>
  <polygon class="pl" points="561.2,256.1 561.2,263.0 578.6,263.0 578.6,256.1 561.2,256.1"/>
  <polygon class="pl" points="583.0,238.3 583.0,245.6 600.4,245.6 600.4,238.3 583.0,238.3"/>
  <polygon class="pl" points="604.7,264.4 604.7,271.6 622.1,271.6 622.1,264.4 604.7,264.4"/>
  <polygon class="pl" points="626.5,256.4 626.5,263.3 643.9,263.3 643.9,256.4 626.5,256.4"/>
  <polygon class="pl" points="648.3,233.1 648.3,240.4 665.7,240.4 665.7,233.1 648.3,233.1"/>
  <polygon class="pl" points="670.0,242.0 670.0,248.8 687.4,248.8 687.4,242.0 670.0,242.0"/>
  <polygon class="pl" points="691.8,238.3 691.8,245.4 709.2,245.4 709.2,238.3 691.8,238.3"/>
  <polygon class="pl" points="713.5,228.7 713.5,236.0 730.9,236.0 730.9,228.7 713.5,228.7"/>
  <polygon class="pl" points="735.3,208.7 735.3,216.6 752.7,216.6 752.7,208.7 735.3,208.7"/>
  <polygon class="pl" points="757.1,192.6 757.1,200.6 774.5,200.6 774.5,192.6 757.1,192.6"/>
  <polygon class="pl" points="778.8,205.9 778.8,214.0 796.2,214.0 796.2,205.9 778.8,205.9"/>
  <polygon class="pl" points="800.6,206.5 800.6,214.7 818.0,214.7 818.0,206.5 800.6,206.5"/>
  <polygon class="pl" points="822.3,194.5 822.3,202.7 839.7,202.7 839.7,194.5 822.3,194.5"/>
  <polygon class="pl" points="844.1,221.1 844.1,229.3 861.5,229.3 861.5,221.1 844.1,221.1"/>
  <polygon class="pl" points="865.9,250.6 865.9,259.2 883.3,259.2 883.3,250.6 865.9,250.6"/>
  <polygon class="pl" points="887.6,246.3 887.6,255.0 905.0,255.0 905.0,246.3 887.6,246.3"/>
</g>
<g stroke="#000" stroke-width="0.90" fill="#845F48"  clip-path="url(#axis_clip)">
  <polygon class="pl" points="147.8,173.5 147.8,509.7 165.2,509.7 165.2,173.5 147.8,173.5"/>
  <polygon class="pl" points="169.5,187.9 169.5,521.5 186.9,521.5 186.9,187.9 169.5,187.9"/>
  <polygon class="pl" points="191.3,192.0 191.3,520.9 208.7,520.9 208.7,192.0 191.3,192.0"/>
  <polygon class="pl" points="213.1,181.7 213.1,519.9 230.5,519.9 230.5,181.7 213.1,181.7"/>
  <polygon class="pl" points="234.8,166.9 234.8,517.3 252.2,517.3 252.2,166.9 234.8,166.9"/>
  <polygon class="pl" points="256.6,149.1 256.6,514.0 274.0,514.0 274.0,149.1 256.6,149.1"/>
  <polygon class="pl" points="278.3,143.6 278.3,510.0 295.7,510.0 295.7,143.6 278.3,143.6"/>
  <polygon class="pl" points="300.1,150.8 300.1,506.1 317.5,506.1 317.5,150.8 300.1,150.8"/>
  <polygon class="pl" points="321.9,124.4 321.9,501.8 339.3,501.8 339.3,124.4 321.9,124.4"/>
  <polygon class="pl" points="343.6,138.1 343.6,514.3 361.0,514.3 361.0,138.1 343.6,138.1"/>
  <polygon class="pl" points="365.4,155.5 365.4,513.1 382.8,513.1 382.8,155.5 365.4,155.5"/>
  <polygon class="pl" points="387.1,183.8 387.1,525.0 404.5,525.0 404.5,183.8 387.1,183.8"/>
  <polygon class="pl" points="408.9,203.9 408.9,541.4 426.3,541.4 426.3,203.9 408.9,203.9"/>
  <polygon class="pl" points="430.7,208.6 430.7,557.8 448.1,557.8 448.1,208.6 430.7,208.6"/>
  <polygon class="pl" points="452.4,217.1 452.4,558.6 469.8,558.6 469.8,217.1 452.4,217.1"/>
  <polygon class="pl" points="474.2,224.8 474.2,557.3 491.6,557.3 491.6,224.8 474.2,224.8"/>
  <polygon class="pl" points="495.9,233.2 495.9,557.2 513.3,557.2 513.3,233.2 495.9,233.2"/>
  <polygon class="pl" points="517.7,242.7 517.7,557.6 535.1,557.6 535.1,242.7 517.7,242.7"/>
  <polygon class="pl" points="539.5,253.8 539.5,559.0 556.9,559.0 556.9,253.8 539.5,253.8"/>
  <polygon class="pl" points="561.2,263.0 561.2,560.1 578.6,560.1 578.6,263.0 561.2,263.0"/>
  <polygon class="pl" points="583.0,245.6 583.0,561.1 600.4,561.1 600.4,245.6 583.0,245.6"/>
  <polygon class="pl" points="604.7,271.6 604.7,562.6 622.1,562.6 622.1,271.6 604.7,271.6"/>
  <polygon class="pl" points="626.5,263.3 626.5,562.7 643.9,562.7 643.9,263.3 626.5,263.3"/>
  <polygon class="pl" points="648.3,240.4 648.3,563.2 665.7,563.2 665.7,240.4 648.3,240.4"/>
  <polygon class="pl" points="670.0,248.8 670.0,563.5 687.4,563.5 687.4,248.8 670.0,248.8"/>
  <polygon class="pl" points="691.8,245.4 691.8,562.3 709.2,562.3 709.2,245.4 691.8,245.4"/>
  <polygon class="pl" points="713.5,236.0 713.5,558.4 730.9,558.4 730.9,236.0 713.5,236.0"/>
  <polygon class="pl" points="735.3,216.6 735.3,556.6 752.7,556.6 752.7,216.6 735.3,216.6"/>
  <polygon class="pl" points="757.1,200.6 757.1,554.6 774.5,554.6 774.5,200.6 757.1,200.6"/>
  <polygon class="pl" points="778.8,214.0 778.8,553.5 796.2,553.5 796.2,214.0 778.8,214.0"/>
  <polygon class="pl" points="800.6,214.7 800.6,556.7 818.0,556.7 818.0,214.7 800.6,214.7"/>
  <polygon class="pl" points="822.3,202.7 822.3,555.6 839.7,555.6 839.7,202.7 822.3,202.7"/>
  <polygon class="pl" points="844.1,229.3 844.1,552.2 861.5,552.2 861.5,229.3 844.1,229.3"/>
  <polygon class="pl" points="865.9,259.2 865.9,553.4 883.3,553.4 883.3,259.2 865.9,259.2"/>
  <polygon class="pl" points="887.6,255.0 887.6,553.5 905.0,553.5 905.0,255.0 887.6,255.0"/>
</g>
<g stroke="#000" stroke-width="0.90" fill="#4A89E8"  clip-path="url(#axis_clip)">
  <polygon class="pl" points="147.8,509.7 147.8,570.9 165.2,570.9 165.2,509.7 147.8,509.7"/>
  <polygon class="pl" points="169.5,521.5 169.5,570.0 186.9,570.0 186.9,521.5 169.5,521.5"/>
  <polygon class="pl" points="191.3,520.9 191.3,569.3 208.7,569.3 208.7,520.9 191.3,520.9"/>
  <polygon class="pl" points="213.1,519.9 213.1,568.4 230.5,568.4 230.5,519.9 213.1,519.9"/>
  <polygon class="pl" points="234.8,517.3 234.8,565.8 252.2,565.8 252.2,517.3 234.8,517.3"/>
  <polygon class="pl" points="256.6,514.0 256.6,562.5 274.0,562.5 274.0,514.0 256.6,514.0"/>
  <polygon class="pl" points="278.3,510.0 278.3,558.5 295.7,558.5 295.7,510.0 278.3,510.0"/>
  <polygon class="pl" points="300.1,506.1 300.1,554.6 317.5,554.6 317.5,506.1 300.1,506.1"/>
  <polygon class="pl" points="321.9,501.8 321.9,550.3 339.3,550.3 339.3,501.8 321.9,501.8"/>
  <polygon class="pl" points="343.6,514.3 343.6,562.9 361.0,562.9 361.0,514.3 343.6,514.3"/>
  <polygon class="pl" points="365.4,513.1 365.4,561.7 382.8,561.7 382.8,513.1 365.4,513.1"/>
  <polygon class="pl" points="387.1,525.0 387.1,560.5 404.5,560.5 404.5,525.0 387.1,525.0"/>
  <polygon class="pl" points="408.9,541.4 408.9,560.2 426.3,560.2 426.3,541.4 408.9,541.4"/>
  <polygon class="pl" points="430.7,557.8 430.7,559.9 448.1,559.9 448.1,557.8 430.7,557.8"/>
  <polygon class="pl" points="452.4,558.6 452.4,560.8 469.8,560.8 469.8,558.6 452.4,558.6"/>
  <polygon class="pl" points="474.2,557.3 474.2,559.5 491.6,559.5 491.6,557.3 474.2,557.3"/>
  <polygon class="pl" points="495.9,557.2 495.9,559.4 513.3,559.4 513.3,557.2 495.9,557.2"/>
  <polygon class="pl" points="517.7,557.6 517.7,559.9 535.1,559.9 535.1,557.6 517.7,557.6"/>
  <polygon class="pl" points="539.5,559.0 539.5,561.4 556.9,561.4 556.9,559.0 539.5,559.0"/>
  <polygon class="pl" points="561.2,560.1 561.2,562.5 578.6,562.5 578.6,560.1 561.2,560.1"/>
  <polygon class="pl" points="583.0,561.1 583.0,563.5 600.4,563.5 600.4,561.1 583.0,561.1"/>
  <polygon class="pl" points="604.7,562.6 604.7,565.0 622.1,565.0 622.1,562.6 604.7,562.6"/>
  <polygon class="pl" points="626.5,562.7 626.5,565.2 643.9,565.2 643.9,562.7 626.5,562.7"/>
  <polygon class="pl" points="648.3,563.2 648.3,565.6 665.7,565.6 665.7,563.2 648.3,563.2"/>
  <polygon class="pl" points="670.0,563.5 670.0,566.0 687.4,566.0 687.4,563.5 670.0,563.5"/>
  <polygon class="pl" points="691.8,562.3 691.8,564.8 709.2,564.8 709.2,562.3 691.8,562.3"/>
  <polygon class="pl" points="713.5,558.4 713.5,560.9 730.9,560.9 730.9,558.4 713.5,558.4"/>
  <polygon class="pl" points="735.3,556.6 735.3,559.2 752.7,559.2 752.7,556.6 735.3,556.6"/>
  <polygon class="pl" points="757.1,554.6 757.1,557.2 774.5,557.2 774.5,554.6 757.1,554.6"/>
  <polygon class="pl" points="778.8,553.5 778.8,556.2 796.2,556.2 796.2,553.5 778.8,553.5"/>
  <polygon class="pl" points="800.6,556.7 800.6,559.4 818.0,559.4 818.0,556.7 800.6,556.7"/>
  <polygon class="pl" points="822.3,555.6 822.3,558.3 839.7,558.3 839.7,555.6 822.3,555.6"/>
  <polygon class="pl" points="844.1,552.2 844.1,554.9 861.5,554.9 861.5,552.2 844.1,552.2"/>
  <polygon class="pl" points="865.9,553.4 865.9,556.2 883.3,556.2 883.3,553.4 865.9,553.4"/>
  <polygon class="pl" points="887.6,553.5 887.6,556.3 905.0,556.3 905.0,553.5 887.6,553.5"/>
</g>
<g stroke="#000" stroke-width="0.90" fill="#FF7F61"  clip-path="url(#axis_clip)">
  <polygon class="pl" points="147.8,570.9 147.8,587.2 165.2,587.2 165.2,570.9 147.8,570.9"/>
  <polygon class="pl" points="169.5,570.0 169.5,587.2 186.9,587.2 186.9,570.0 169.5,570.0"/>
  <polygon class="pl" points="191.3,569.3 191.3,587.2 208.7,587.2 208.7,569.3 191.3,569.3"/>
  <polygon class="pl" points="213.1,568.4 213.1,587.2 230.5,587.2 230.5,568.4 213.1,568.4"/>
  <polygon class="pl" points="234.8,565.8 234.8,587.2 252.2,587.2 252.2,565.8 234.8,565.8"/>
  <polygon class="pl" points="256.6,562.5 256.6,587.2 274.0,587.2 274.0,562.5 256.6,562.5"/>
  <polygon class="pl" points="278.3,558.5 278.3,587.2 295.7,587.2 295.7,558.5 278.3,558.5"/>
  <polygon class="pl" points="300.1,554.6 300.1,587.2 317.5,587.2 317.5,554.6 300.1,554.6"/>
  <polygon class="pl" points="321.9,550.3 321.9,587.2 339.3,587.2 339.3,550.3 321.9,550.3"/>
  <polygon class="pl" points="343.6,562.9 343.6,587.2 361.0,587.2 361.0,562.9 343.6,562.9"/>
  <polygon class="pl" points="365.4,561.7 365.4,587.2 382.8,587.2 382.8,561.7 365.4,561.7"/>
  <polygon class="pl" points="387.1,560.5 387.1,587.2 404.5,587.2 404.5,560.5 387.1,560.5"/>
  <polygon class="pl" points="408.9,560.2 408.9,587.2 426.3,587.2 426.3,560.2 408.9,560.2"/>
  <polygon class="pl" points="430.7,559.9 430.7,587.2 448.1,587.2 448.1,559.9 430.7,559.9"/>
  <polygon class="pl" points="452.4,560.8 452.4,587.2 469.8,587.2 469.8,560.8 452.4,560.8"/>
  <polygon class="pl" points="474.2,559.5 474.2,587.2 491.6,587.2 491.6,559.5 474.2,559.5"/>
  <polygon class="pl" points="495.9,559.4 495.9,587.2 513.3,587.2 513.3,559.4 495.9,559.4"/>
  <polygon class="pl" points="517.7,559.9 517.7,587.2 535.1,587.2 535.1,559.9 517.7,559.9"/>
  <polygon class="pl" points="539.5,561.4 539.5,587.2 556.9,587.2 556.9,561.4 539.5,561.4"/>
  <polygon class="pl" points="561.2,562.5 561.2,587.2 578.6,587.2 578.6,562.5 561.2,562.5"/>
  <polygon class="pl" points="583.0,563.5 583.0,587.2 600.4,587.2 600.4,563.5 583.0,563.5"/>
  <polygon class="pl" points="604.7,565.0 604.7,587.2 622.1,587.2 622.1,565.0 604.7,565.0"/>
  <polygon class="pl" points="626.5,565.2 626.5,587.2 643.9,587.2 643.9,565.2 626.5,565.2"/>
  <polygon class="pl" points="648.3,565.6 648.3,587.2 665.7,587.2 665.7,565.6 648.3,565.6"/>
  <polygon class="pl" points="670.0,566.0 670.0,587.2 687.4,587.2 687.4,566.0 670.0,566.0"/>
  <polygon class="pl" points="691.8,564.8 691.8,587.2 709.2,587.2 709.2,564.8 691.8,564.8"/>
  <polygon class="pl" points="713.5,560.9 713.5,587.2 730.9,587.2 730.9,560.9 713.5,560.9"/>
  <polygon class="pl" points="735.3,559.2 735.3,587.2 752.7,587.2 752.7,559.2 735.3,559.2"/>
  <polygon class="pl" points="757.1,557.2 757.1,587.2 774.5,587.2 774.5,557.2 757.1,557.2"/>
  <polygon class="pl" points="778.8,556.2 778.8,587.2 796.2,587.2 796.2,556.2 778.8,556.2"/>
  <polygon class="pl" points="800.6,559.4 800.6,587.2 818.0,587.2 818.0,559.4 800.6,559.4"/>
  <polygon class="pl" points="822.3,558.3 822.3,587.2 839.7,587.2 839.7,558.3 822.3,558.3"/>
  <polygon class="pl" points="844.1,554.9 844.1,587.2 861.5,587.2 861.5,554.9 844.1,554.9"/>
  <polygon class="pl" points="865.9,556.2 865.9,587.2 883.3,587.2 883.3,556.2 865.9,556.2"/>
  <polygon class="pl" points="887.6,556.3 887.6,587.2 905.0,587.2 905.0,556.3 887.6,556.3"/>
</g>
<polyline class="pl" points="156.5,155.6 178.2,169.6 200.0,174.7 221.8,163.7 243.5,148.3 265.3,129.3 287.0,123.4 308.8,130.6 330.6,104.7 352.3,118.5 374.1,135.2 395.8,159.4 417.6,182.2 439.4,183.6 461.1,193.9 482.9,200.7 504.6,209.7 526.4,219.3 548.2,230.1 569.9,239.4 591.7,217.1 613.4,246.2 635.2,239.7 657.0,215.6 678.7,224.5 700.5,221.0 722.2,212.5 744.0,188.0 765.8,175.4 787.5,189.2 809.3,190.0 831.0,178.5 852.8,205.0 874.6,233.7 896.3,230.5" stroke="#000" stroke-width="5.40" stroke-opacity="1.00" fill="none" clip-path="url(#axis_clip)"/>
<g class="pl" fill="#FFF" stroke="#000" stroke-width="0.900">
  <circle cx="178.2" cy="169.6" r="2.2" />
  <circle cx="200.0" cy="174.7" r="2.2" />
  <circle cx="221.8" cy="163.7" r="2.2" />
  <circle cx="243.5" cy="148.3" r="2.2" />
  <circle cx="265.3" cy="129.3" r="2.2" />
  <circle cx="287.0" cy="123.4" r="2.2" />
  <circle cx="308.8" cy="130.6" r="2.2" />
  <circle cx="330.6" cy="104.7" r="2.2" />
  <circle cx="352.3" cy="118.5" r="2.2" />
  <circle cx="395.8" cy="159.4" r="2.2" />
  <circle cx="417.6" cy="182.2" r="2.2" />
  <circle cx="439.4" cy="183.6" r="2.2" />
  <circle cx="461.1" cy="193.9" r="2.2" />
  <circle cx="482.9" cy="200.7" r="2.2" />
  <circle cx="504.6" cy="209.7" r="2.2" />
  <circle cx="526.4" cy="219.3" r="2.2" />
  <circle cx="548.2" cy="230.1" r="2.2" />
  <circle cx="569.9" cy="239.4" r="2.2" />
  <circle cx="613.4" cy="246.2" r="2.2" />
  <circle cx="635.2" cy="239.7" r="2.2" />
  <circle cx="657.0" cy="215.6" r="2.2" />
  <circle cx="678.7" cy="224.5" r="2.2" />
  <circle cx="700.5" cy="221.0" r="2.2" />
  <circle cx="722.2" cy="212.5" r="2.2" />
  <circle cx="744.0" cy="188.0" r="2.2" />
  <circle cx="765.8" cy="175.4" r="2.2" />
  <circle cx="787.5" cy="189.2" r="2.2" />
  <circle cx="831.0" cy="178.5" r="2.2" />
  <circle cx="852.8" cy="205.0" r="2.2" />
  <circle cx="874.6" cy="233.7" r="2.2" />
  <circle cx="896.3" cy="230.5" r="2.2" />
</g>
<g class="pl" fill="#FFF" stroke="#000" stroke-width="0.900">
  <circle cx="156.5" cy="155.6" r="5.4" />
  <circle cx="374.1" cy="135.2" r="5.4" />
  <circle cx="591.7" cy="217.1" r="5.4" />
  <circle cx="809.3" cy="190.0" r="5.4" />
</g>
<text transform="translate(145.6,47.2)" dy="0.0" font-size="27.00" fill="#808080" stroke="none">Annual N<tspan dy="0.2em"><tspan style="font-size:70%">2</tspan></tspan><tspan dy="-0.2em">O</tspan> Emissions: Ireland</text>
<text transform="translate(130.0,81.7)" dy="8.1" font-size="27.00" fill="#808080" stroke="none" text-anchor="end">N<tspan dy="0.2em"><tspan style="font-size:70%">2</tspan></tspan><tspan dy="-0.2em">O</tspan></text>
<text transform="translate(945.6,215.3)" dy="7.6" font-size="25.20" fill="#000" stroke="none">-17.3% since 1990</text>
<text transform="translate(945.6,575.6)" dy="7.6" font-size="25.20" fill="#FF7F61" stroke="none">Energy</text>
<text transform="translate(945.6,551.1)" dy="7.6" font-size="25.20" fill="#4A89E8" stroke="none">Industrial Processes</text>
<text transform="translate(945.6,404.2)" dy="7.6" font-size="25.20" fill="#845F48" stroke="none">Agriculture</text>
<text transform="translate(945.6,264.3)" dy="7.6" font-size="25.20" fill="#DBA746" stroke="none">Waste</text>
<text transform="translate(945.6,239.8)" dy="7.6" font-size="25.20" fill="#7FBF7F" stroke="none">LULUCF</text>
<polyline class="pl" points="910.8,230.5 912.4,230.4 913.8,230.2 915.2,230.0 916.4,229.7 917.6,229.3 918.8,228.8 919.8,228.2 920.8,227.6 921.7,227.0 922.7,226.3 923.5,225.6 924.4,224.8 925.2,224.1 926.0,223.3 926.8,222.5 927.6,221.7 928.4,221.0 929.3,220.2 930.1,219.5 931.1,218.8 932.0,218.1 933.0,217.5 934.0,217.0 935.2,216.5 936.4,216.1 937.6,215.8 939.0,215.5 940.4,215.4 942.0,215.3" stroke="#000" stroke-width="0.90" stroke-opacity="1.00" fill="none" />
<polyline class="pl" points="910.8,571.8 912.4,571.8 913.8,571.8 915.2,571.9 916.4,571.9 917.6,572.1 918.8,572.2 919.8,572.3 920.8,572.5 921.7,572.6 922.7,572.8 923.5,573.0 924.4,573.2 925.2,573.4 926.0,573.6 926.8,573.8 927.6,574.0 928.4,574.1 929.3,574.3 930.1,574.5 931.1,574.7 932.0,574.9 933.0,575.0 934.0,575.1 935.2,575.3 936.4,575.4 937.6,575.5 939.0,575.5 940.4,575.6 942.0,575.6" stroke="#FF7F61" stroke-width="0.90" stroke-opacity="1.00" fill="none" />
<polyline class="pl" points="910.8,554.9 912.4,554.9 913.8,554.8 915.2,554.8 916.4,554.7 917.6,554.6 918.8,554.5 919.8,554.3 920.8,554.2 921.7,554.0 922.7,553.8 923.5,553.7 924.4,553.5 925.2,553.3 926.0,553.1 926.8,552.9 927.6,552.7 928.4,552.5 929.3,552.3 930.1,552.1 931.1,551.9 932.0,551.8 933.0,551.6 934.0,551.5 935.2,551.4 936.4,551.3 937.6,551.2 939.0,551.1 940.4,551.1 942.0,551.1" stroke="#4A89E8" stroke-width="0.90" stroke-opacity="1.00" fill="none" />
<polyline class="pl" points="910.8,250.7 912.4,250.7 913.8,250.8 915.2,251.1 916.4,251.4 917.6,251.7 918.8,252.2 919.8,252.7 920.8,253.2 921.7,253.8 922.7,254.4 923.5,255.1 924.4,255.7 925.2,256.4 926.0,257.1 926.8,257.8 927.6,258.5 928.4,259.2 929.3,259.9 930.1,260.6 931.1,261.2 932.0,261.8 933.0,262.3 934.0,262.8 935.2,263.2 936.4,263.6 937.6,263.9 939.0,264.1 940.4,264.3 942.0,264.3" stroke="#DBA746" stroke-width="0.90" stroke-opacity="1.00" fill="none" />
<polyline class="pl" points="910.8,238.4 912.4,238.4 913.8,238.4 915.2,238.4 916.4,238.4 917.6,238.5 918.8,238.5 919.8,238.6 920.8,238.6 921.7,238.7 922.7,238.8 923.5,238.8 924.4,238.9 925.2,239.0 926.0,239.1 926.8,239.1 927.6,239.2 928.4,239.3 929.3,239.4 930.1,239.4 931.1,239.5 932.0,239.6 933.0,239.6 934.0,239.7 935.2,239.7 936.4,239.8 937.6,239.8 939.0,239.8 940.4,239.8 942.0,239.8" stroke="#7FBF7F" stroke-width="0.90" stroke-opacity="1.00" fill="none" />
<text transform="translate(160.0,666.1)" font-size="19.80" font-family="Helvetica" fill="#BFBFBF" stroke="none" xml:space="preserve">CICERO   &#9679;   Data: EEA (2026)   &#9679;   Preliminary data</text>
<g>
  <rect x="123.0" y="651.4" width="34" height="17" fill="#FFF" stroke="none" opacity="0.01"/>
  <g transform="translate(124.0,652.4) scale(0.24)">
  <g><circle fill="#FFF" cx="37.79" cy="28.5" r="28.84"/>
     <circle fill="none" cx="37.79" cy="28.5" r="28.84" stroke="#BFBFBF" stroke-width="5.5"/>
     <path fill="#BFBFBF" d="M37.16,23.19 l-4.29,2.23c-0.458-0.951-1.02-1.62-1.69-2c-0.667-0.38-1.29-0.571-1.86-0.571c-2.86,0-4.29,1.89-4.29,5.66 c0,1.71,0.36,3.08,1.09,4.11c0.724,1.03,1.79,1.54,3.2,1.54c1.87,0,3.18-0.915,3.94-2.74l3.94,2 c-0.838,1.56-2,2.79-3.49,3.69c-1.48,0.896-3.12,1.34-4.91,1.34c-2.86,0-5.16-0.875-6.92-2.63 c-1.75-1.75-2.63-4.19-2.63-7.31c0-3.05,0.886-5.47,2.66-7.26c1.77-1.79,4.01-2.69,6.72-2.69 C32.6,18.56,35.44,20.1,37.16,23.19z
              M55.61,23.19l-4.23,2.23c-0.457-0.951-1.02-1.62-1.69-2 c-0.668-0.38-1.31-0.571-1.91-0.571c-2.86,0-4.29,1.89-4.29,5.66c0,1.71,0.363,3.08,1.09,4.11 c0.723,1.03,1.79,1.54,3.2,1.54c1.87,0,3.18-0.915,3.94-2.74l4,2c-0.875,1.56-2.06,2.79-3.54,3.69 c-1.49,0.9-3.11,1.34-4.86,1.34c-2.9,0-5.21-0.875-6.94-2.63c-1.74-1.75-2.6-4.19-2.6-7.31 c0-3.05,0.885-5.47,2.66-7.26c1.77-1.79,4.01-2.69,6.71-2.69C51.12,18.56,53.944,20.1,55.61,23.19z"/>
  </g></g>
  <g transform="translate(140.2,652.4) scale(0.24)">
  <g><circle fill="#FFF" cx="37.79" cy="28.5" r="28.84"/>
     <circle fill="none" cx="37.79" cy="28.5" r="28.84" stroke="#BFBFBF" stroke-width="5.5"/>
     <path fill="#BFBFBF" d="M46.129,20.557v13.085h-3.656v15.542h-9.944V33.643h-3.656V20.557 c0-0.572,0.2-1.057,0.599-1.457c0.401-0.399,0.887-0.6,1.457-0.6h13.144c0.533,0,1.01,0.2,1.428,0.6 C45.918,19.5,46.129,19.986,46.129,20.557z
              M33.042,12.329c0-3.008,1.485-4.514,4.458-4.514s4.457,1.504,4.457,4.514 c0,2.971-1.486,4.457-4.457,4.457S33.042,15.3,33.042,12.329z"/>
  </g></g>
</g>
</g>
</svg>
