<svg version="1.1" xmlns="http://www.w3.org/2000/svg" xmlns:xlink="http://www.w3.org/1999/xlink" width="100%" height="100%" viewBox="0 0 1200.000 674.916">
<title>Annual Greenhouse Gas Emissions: Ireland</title>
<style type="text/css">
  #main {font-family:Helvetica,Arial,sans-serif; font-size:27.00px;
         fill-opacity:1; fill:#000000; stroke:none; stroke-linejoin:round; stroke-linecap:round; stroke-width:1.00;}
  .marker {stroke-opacity:0;fill-opacity:0;}
  .marker:hover {stroke-opacity:0.5; fill-opacity:1;}
  .ticklabel {font-size:27.00px;fill:#808080;stroke:none;font-family:Helvetica}
  .ytl {text-anchor:end;}
  .dp1 {pointer-events:none;font-size:70%;text-anchor:middle;fill:#000000;}
  .dp2 {pointer-events:none;font-size:70%;text-anchor:middle;fill:#FFFFFF;}
  .numtip {pointer-events:none;}
  .cc {opacity:0.25;}
.dl_fe {background-color:#FDFFDF;display:flex;margin:auto;align-items:center}
.dl_fe_p {font-size:20px;text-align:center;margin:3px}
.dl_el {display:none;pointer-events:none;}
.cc:hover + .dl_el {display:block;}
text:hover + .dl_el {display:block;}
</style>
<defs>
  <clipPath id="axis_clip"><rect x="145.8" y="54.2" width="761.2" height="532.8" /></clipPath>
  <path id="line_y" d="M 0,53.993 v 533.183" stroke="#262626" stroke-opacity="0.15" stroke-width="1.00"/>
  <path id="line_x" d="M 145.600,0 h 761.600" stroke="#262626" stroke-opacity="0.15" stroke-width="1.00"/>
  <path id="tick_y" d="M 145.600,0 h -6.000" stroke="#808080" stroke-width="0.90"/>
  <path id="tick_x" d="M 0,587.177 v 6.000" stroke="#808080" stroke-width="0.90"/>
</defs>
<g id="main">
<use xlink:href="#line_y" transform="translate(156.5,0)"/>
<use xlink:href="#line_y" transform="translate(265.3,0)"/>
<use xlink:href="#line_y" transform="translate(374.1,0)"/>
<use xlink:href="#line_y" transform="translate(482.9,0)"/>
<use xlink:href="#line_y" transform="translate(591.7,0)"/>
<use xlink:href="#line_y" transform="translate(700.5,0)"/>
<use xlink:href="#line_y" transform="translate(809.3,0)"/>
<use xlink:href="#line_y" transform="translate(896.3,0)"/>
<use xlink:href="#line_x" transform="translate(0,587.2)"/>
<use xlink:href="#line_x" transform="translate(0,480.5)"/>
<use xlink:href="#line_x" transform="translate(0,373.9)"/>
<use xlink:href="#line_x" transform="translate(0,267.3)"/>
<use xlink:href="#line_x" transform="translate(0,160.6)"/>
<use xlink:href="#line_x" transform="translate(0,54.0)"/>
<use xlink:href="#tick_y" transform="translate(0,587.2)"/>
<use xlink:href="#tick_y" transform="translate(0,480.5)"/>
<use xlink:href="#tick_y" transform="translate(0,373.9)"/>
<use xlink:href="#tick_y" transform="translate(0,267.3)"/>
<use xlink:href="#tick_y" transform="translate(0,160.6)"/>
<use xlink:href="#tick_y" transform="translate(0,54.0)"/>
<use xlink:href="#tick_x" transform="translate(156.5,0)"/>
<use xlink:href="#tick_x" transform="translate(265.3,0)"/>
<use xlink:href="#tick_x" transform="translate(374.1,0)"/>
<use xlink:href="#tick_x" transform="translate(482.9,0)"/>
<use xlink:href="#tick_x" transform="translate(591.7,0)"/>
<use xlink:href="#tick_x" transform="translate(700.5,0)"/>
<use xlink:href="#tick_x" transform="translate(809.3,0)"/>
<use xlink:href="#tick_x" transform="translate(896.3,0)"/>
<polyline points="145.6,53.993 145.6,587.177 907.2,587.177" stroke="#808080" stroke-width="0.90" fill="none"/>
<text class="ticklabel xtl" transform="translate(156.5,629.0)" text-anchor="middle">1990</text>
<text class="ticklabel xtl" transform="translate(265.3,629.0)" text-anchor="middle">1995</text>
<text class="ticklabel xtl" transform="translate(374.1,629.0)" text-anchor="middle">2000</text>
<text class="ticklabel xtl" transform="translate(482.9,629.0)" text-anchor="middle">2005</text>
<text class="ticklabel xtl" transform="translate(591.7,629.0)" text-anchor="middle">2010</text>
<text class="ticklabel xtl" transform="translate(700.5,629.0)" text-anchor="middle">2015</text>
<text class="ticklabel xtl" transform="translate(809.3,629.0)" text-anchor="middle">2020</text>
<text class="ticklabel xtl" transform="translate(896.3,629.0)" text-anchor="middle">2024</text>
<text class="ticklabel ytl" transform="translate(128.8,595.3)">-100</text>
<text class="ticklabel ytl" transform="translate(128.8,488.6)">-50</text>
<text class="ticklabel ytl" transform="translate(128.8,382.0)">0</text>
<text class="ticklabel ytl" transform="translate(128.8,275.4)">50</text>
<text class="ticklabel ytl" transform="translate(128.8,168.7)">100</text>
<text class="ticklabel ytl" transform="translate(128.8,62.1)">150 Mt</text>
<g stroke="#000" stroke-width="0.90" fill="#7FBF7F"  clip-path="url(#axis_clip)">
  <polygon class="pl" points="147.8,277.0 147.8,290.5 165.2,290.5 165.2,277.0 147.8,277.0"/>
  <polygon class="pl" points="169.5,276.1 169.5,288.9 186.9,288.9 186.9,276.1 169.5,276.1"/>
  <polygon class="pl" points="191.3,276.8 191.3,289.4 208.7,289.4 208.7,276.8 191.3,276.8"/>
  <polygon class="pl" points="213.1,275.5 213.1,288.6 230.5,288.6 230.5,275.5 213.1,275.5"/>
  <polygon class="pl" points="234.8,272.9 234.8,285.6 252.2,285.6 252.2,272.9 234.8,272.9"/>
  <polygon class="pl" points="256.6,268.4 256.6,282.8 274.0,282.8 274.0,268.4 256.6,268.4"/>
  <polygon class="pl" points="278.3,264.5 278.3,279.0 295.7,279.0 295.7,264.5 278.3,264.5"/>
  <polygon class="pl" points="300.1,262.9 300.1,276.2 317.5,276.2 317.5,262.9 300.1,262.9"/>
  <polygon class="pl" points="321.9,258.5 321.9,271.5 339.3,271.5 339.3,258.5 321.9,258.5"/>
  <polygon class="pl" points="343.6,255.9 343.6,267.9 361.0,267.9 361.0,255.9 343.6,255.9"/>
  <polygon class="pl" points="365.4,248.7 365.4,262.0 382.8,262.0 382.8,248.7 365.4,248.7"/>
  <polygon class="pl" points="387.1,240.4 387.1,257.8 404.5,257.8 404.5,240.4 387.1,240.4"/>
  <polygon class="pl" points="408.9,245.7 408.9,261.8 426.3,261.8 426.3,245.7 408.9,245.7"/>
  <polygon class="pl" points="430.7,246.2 430.7,262.4 448.1,262.4 448.1,246.2 430.7,246.2"/>
  <polygon class="pl" points="452.4,247.8 452.4,261.6 469.8,261.6 469.8,247.8 452.4,247.8"/>
  <polygon class="pl" points="474.2,244.2 474.2,257.4 491.6,257.4 491.6,244.2 474.2,244.2"/>
  <polygon class="pl" points="495.9,234.5 495.9,244.0 513.3,244.0 513.3,234.5 495.9,234.5"/>
  <polygon class="pl" points="517.7,215.7 517.7,224.4 535.1,224.4 535.1,215.7 517.7,215.7"/>
  <polygon class="pl" points="539.5,168.7 539.5,175.4 556.9,175.4 556.9,168.7 539.5,168.7"/>
  <polygon class="pl" points="561.2,176.6 561.2,183.1 578.6,183.1 578.6,176.6 561.2,176.6"/>
  <polygon class="pl" points="583.0,222.0 583.0,231.0 600.4,231.0 600.4,222.0 583.0,222.0"/>
  <polygon class="pl" points="604.7,204.0 604.7,211.4 622.1,211.4 622.1,204.0 604.7,204.0"/>
  <polygon class="pl" points="626.5,179.8 626.5,186.0 643.9,186.0 643.9,179.8 626.5,179.8"/>
  <polygon class="pl" points="648.3,192.9 648.3,199.6 665.7,199.6 665.7,192.9 648.3,192.9"/>
  <polygon class="pl" points="670.0,182.0 670.0,188.3 687.4,188.3 687.4,182.0 670.0,182.0"/>
  <polygon class="pl" points="691.8,184.5 691.8,190.9 709.2,190.9 709.2,184.5 691.8,184.5"/>
  <polygon class="pl" points="713.5,166.9 713.5,172.7 730.9,172.7 730.9,166.9 713.5,166.9"/>
  <polygon class="pl" points="735.3,222.2 735.3,230.8 752.7,230.8 752.7,222.2 735.3,222.2"/>
  <polygon class="pl" points="757.1,180.8 757.1,187.2 774.5,187.2 774.5,180.8 757.1,180.8"/>
  <polygon class="pl" points="778.8,181.1 778.8,187.3 796.2,187.3 796.2,181.1 778.8,181.1"/>
  <polygon class="pl" points="800.6,205.7 800.6,212.5 818.0,212.5 818.0,205.7 800.6,205.7"/>
  <polygon class="pl" points="822.3,177.8 822.3,183.9 839.7,183.9 839.7,177.8 822.3,177.8"/>
  <polygon class="pl" points="844.1,155.5 844.1,160.8 861.5,160.8 861.5,155.5 844.1,155.5"/>
  <polygon class="pl" points="865.9,187.0 865.9,193.3 883.3,193.3 883.3,187.0 865.9,187.0"/>
  <polygon class="pl" points="887.6,167.2 887.6,172.5 905.0,172.5 905.0,167.2 887.6,167.2"/>
</g>
<g stroke="#000" stroke-width="0.90" fill="#DBA746"  clip-path="url(#axis_clip)">
  <polygon class="pl" points="147.8,290.5 147.8,290.5 165.2,290.5 165.2,290.5 147.8,290.5"/>
  <polygon class="pl" points="169.5,288.9 169.5,289.0 186.9,289.0 186.9,288.9 169.5,288.9"/>
  <polygon class="pl" points="191.3,289.4 191.3,289.6 208.7,289.6 208.7,289.4 191.3,289.4"/>
  <polygon class="pl" points="213.1,288.6 213.1,288.8 230.5,288.8 230.5,288.6 213.1,288.6"/>
  <polygon class="pl" points="234.8,285.6 234.8,285.9 252.2,285.9 252.2,285.6 234.8,285.6"/>
  <polygon class="pl" points="256.6,282.8 256.6,283.2 274.0,283.2 274.0,282.8 256.6,282.8"/>
  <polygon class="pl" points="278.3,279.0 278.3,279.7 295.7,279.7 295.7,279.0 278.3,279.0"/>
  <polygon class="pl" points="300.1,276.2 300.1,277.1 317.5,277.1 317.5,276.2 300.1,276.2"/>
  <polygon class="pl" points="321.9,271.5 321.9,272.2 339.3,272.2 339.3,271.5 321.9,271.5"/>
  <polygon class="pl" points="343.6,267.9 343.6,268.9 361.0,268.9 361.0,267.9 343.6,267.9"/>
  <polygon class="pl" points="365.4,262.0 365.4,263.5 382.8,263.5 382.8,262.0 365.4,262.0"/>
  <polygon class="pl" points="387.1,257.8 387.1,259.4 404.5,259.4 404.5,257.8 387.1,257.8"/>
  <polygon class="pl" points="408.9,261.8 408.9,263.3 426.3,263.3 426.3,261.8 408.9,261.8"/>
  <polygon class="pl" points="430.7,262.4 430.7,264.3 448.1,264.3 448.1,262.4 430.7,262.4"/>
  <polygon class="pl" points="452.4,261.6 452.4,263.6 469.8,263.6 469.8,261.6 452.4,261.6"/>
  <polygon class="pl" points="474.2,257.4 474.2,259.8 491.6,259.8 491.6,257.4 474.2,257.4"/>
  <polygon class="pl" points="495.9,244.0 495.9,246.4 513.3,246.4 513.3,244.0 495.9,244.0"/>
  <polygon class="pl" points="517.7,224.4 517.7,226.7 535.1,226.7 535.1,224.4 517.7,224.4"/>
  <polygon class="pl" points="539.5,175.4 539.5,177.9 556.9,177.9 556.9,175.4 539.5,175.4"/>
  <polygon class="pl" points="561.2,183.1 561.2,185.4 578.6,185.4 578.6,183.1 561.2,183.1"/>
  <polygon class="pl" points="583.0,231.0 583.0,233.2 600.4,233.2 600.4,231.0 583.0,231.0"/>
  <polygon class="pl" points="604.7,211.4 604.7,213.7 622.1,213.7 622.1,211.4 604.7,211.4"/>
  <polygon class="pl" points="626.5,186.0 626.5,188.2 643.9,188.2 643.9,186.0 626.5,186.0"/>
  <polygon class="pl" points="648.3,199.6 648.3,201.9 665.7,201.9 665.7,199.6 648.3,199.6"/>
  <polygon class="pl" points="670.0,188.3 670.0,190.8 687.4,190.8 687.4,188.3 670.0,188.3"/>
  <polygon class="pl" points="691.8,190.9 691.8,193.4 709.2,193.4 709.2,190.9 691.8,190.9"/>
  <polygon class="pl" points="713.5,172.7 713.5,175.3 730.9,175.3 730.9,172.7 713.5,172.7"/>
  <polygon class="pl" points="735.3,230.8 735.3,233.2 752.7,233.2 752.7,230.8 735.3,230.8"/>
  <polygon class="pl" points="757.1,187.2 757.1,189.0 774.5,189.0 774.5,187.2 757.1,187.2"/>
  <polygon class="pl" points="778.8,187.3 778.8,189.0 796.2,189.0 796.2,187.3 778.8,187.3"/>
  <polygon class="pl" points="800.6,212.5 800.6,213.9 818.0,213.9 818.0,212.5 800.6,212.5"/>
  <polygon class="pl" points="822.3,183.9 822.3,185.4 839.7,185.4 839.7,183.9 822.3,183.9"/>
  <polygon class="pl" points="844.1,160.8 844.1,162.2 861.5,162.2 861.5,160.8 844.1,160.8"/>
  <polygon class="pl" points="865.9,193.3 865.9,194.6 883.3,194.6 883.3,193.3 865.9,193.3"/>
  <polygon class="pl" points="887.6,172.5 887.6,173.8 905.0,173.8 905.0,172.5 887.6,172.5"/>
</g>
<g stroke="#000" stroke-width="0.90" fill="#845F48"  clip-path="url(#axis_clip)">
  <polygon class="pl" points="147.8,290.5 147.8,303.8 165.2,303.8 165.2,290.5 147.8,290.5"/>
  <polygon class="pl" points="169.5,289.0 169.5,301.8 186.9,301.8 186.9,289.0 169.5,289.0"/>
  <polygon class="pl" points="191.3,289.6 191.3,302.2 208.7,302.2 208.7,289.6 191.3,289.6"/>
  <polygon class="pl" points="213.1,288.8 213.1,301.8 230.5,301.8 230.5,288.8 213.1,288.8"/>
  <polygon class="pl" points="234.8,285.9 234.8,299.4 252.2,299.4 252.2,285.9 234.8,285.9"/>
  <polygon class="pl" points="256.6,283.2 256.6,297.2 274.0,297.2 274.0,283.2 256.6,283.2"/>
  <polygon class="pl" points="278.3,279.7 278.3,293.8 295.7,293.8 295.7,279.7 278.3,279.7"/>
  <polygon class="pl" points="300.1,277.1 300.1,291.0 317.5,291.0 317.5,277.1 300.1,277.1"/>
  <polygon class="pl" points="321.9,272.2 321.9,287.0 339.3,287.0 339.3,272.2 321.9,272.2"/>
  <polygon class="pl" points="343.6,268.9 343.6,283.3 361.0,283.3 361.0,268.9 343.6,268.9"/>
  <polygon class="pl" points="365.4,263.5 365.4,277.3 382.8,277.3 382.8,263.5 365.4,263.5"/>
  <polygon class="pl" points="387.1,259.4 387.1,272.3 404.5,272.3 404.5,259.4 387.1,259.4"/>
  <polygon class="pl" points="408.9,263.3 408.9,275.6 426.3,275.6 426.3,263.3 408.9,263.3"/>
  <polygon class="pl" points="430.7,264.3 430.7,276.5 448.1,276.5 448.1,264.3 430.7,264.3"/>
  <polygon class="pl" points="452.4,263.6 452.4,275.5 469.8,275.5 469.8,263.6 452.4,263.6"/>
  <polygon class="pl" points="474.2,259.8 474.2,271.4 491.6,271.4 491.6,259.8 474.2,259.8"/>
  <polygon class="pl" points="495.9,246.4 495.9,257.7 513.3,257.7 513.3,246.4 495.9,246.4"/>
  <polygon class="pl" points="517.7,226.7 517.7,237.8 535.1,237.8 535.1,226.7 517.7,226.7"/>
  <polygon class="pl" points="539.5,177.9 539.5,188.6 556.9,188.6 556.9,177.9 539.5,177.9"/>
  <polygon class="pl" points="561.2,185.4 561.2,195.9 578.6,195.9 578.6,185.4 561.2,185.4"/>
  <polygon class="pl" points="583.0,233.2 583.0,244.3 600.4,244.3 600.4,233.2 583.0,233.2"/>
  <polygon class="pl" points="604.7,213.7 604.7,223.9 622.1,223.9 622.1,213.7 604.7,213.7"/>
  <polygon class="pl" points="626.5,188.2 626.5,198.7 643.9,198.7 643.9,188.2 626.5,188.2"/>
  <polygon class="pl" points="648.3,201.9 648.3,213.1 665.7,213.1 665.7,201.9 648.3,201.9"/>
  <polygon class="pl" points="670.0,190.8 670.0,201.7 687.4,201.7 687.4,190.8 670.0,190.8"/>
  <polygon class="pl" points="691.8,193.4 691.8,204.4 709.2,204.4 709.2,193.4 691.8,193.4"/>
  <polygon class="pl" points="713.5,175.3 713.5,186.6 730.9,186.6 730.9,175.3 713.5,175.3"/>
  <polygon class="pl" points="735.3,233.2 735.3,245.1 752.7,245.1 752.7,233.2 735.3,233.2"/>
  <polygon class="pl" points="757.1,189.0 757.1,201.5 774.5,201.5 774.5,189.0 757.1,189.0"/>
  <polygon class="pl" points="778.8,189.0 778.8,201.0 796.2,201.0 796.2,189.0 778.8,189.0"/>
  <polygon class="pl" points="800.6,213.9 800.6,226.0 818.0,226.0 818.0,213.9 800.6,213.9"/>
  <polygon class="pl" points="822.3,185.4 822.3,197.8 839.7,197.8 839.7,185.4 822.3,185.4"/>
  <polygon class="pl" points="844.1,162.2 844.1,173.8 861.5,173.8 861.5,162.2 844.1,162.2"/>
  <polygon class="pl" points="865.9,194.6 865.9,205.2 883.3,205.2 883.3,194.6 865.9,194.6"/>
  <polygon class="pl" points="887.6,173.8 887.6,184.6 905.0,184.6 905.0,173.8 887.6,173.8"/>
</g>
<g stroke="#000" stroke-width="0.90" fill="#4A89E8"  clip-path="url(#axis_clip)">
  <polygon class="pl" points="495.9,257.7 495.9,272.6 513.3,272.6 513.3,257.7 495.9,257.7"/>
  <polygon class="pl" points="517.7,237.8 517.7,272.5 535.1,272.5 535.1,237.8 517.7,237.8"/>
  <polygon class="pl" points="539.5,188.6 539.5,273.2 556.9,273.2 556.9,188.6 539.5,188.6"/>
  <polygon class="pl" points="561.2,195.9 561.2,284.2 578.6,284.2 578.6,195.9 561.2,195.9"/>
  <polygon class="pl" points="583.0,244.3 583.0,285.0 600.4,285.0 600.4,244.3 583.0,244.3"/>
  <polygon class="pl" points="604.7,223.9 604.7,293.0 622.1,293.0 622.1,223.9 604.7,223.9"/>
  <polygon class="pl" points="626.5,198.7 626.5,292.7 643.9,292.7 643.9,198.7 626.5,198.7"/>
  <polygon class="pl" points="648.3,213.1 648.3,294.7 665.7,294.7 665.7,213.1 648.3,213.1"/>
  <polygon class="pl" points="670.0,201.7 670.0,295.6 687.4,295.6 687.4,201.7 670.0,201.7"/>
  <polygon class="pl" points="691.8,204.4 691.8,291.6 709.2,291.6 709.2,204.4 691.8,204.4"/>
  <polygon class="pl" points="713.5,186.6 713.5,288.1 730.9,288.1 730.9,186.6 713.5,186.6"/>
  <polygon class="pl" points="735.3,245.1 735.3,291.0 752.7,291.0 752.7,245.1 735.3,245.1"/>
  <polygon class="pl" points="757.1,201.5 757.1,291.2 774.5,291.2 774.5,201.5 757.1,201.5"/>
  <polygon class="pl" points="778.8,201.0 778.8,294.9 796.2,294.9 796.2,201.0 778.8,201.0"/>
  <polygon class="pl" points="800.6,226.0 800.6,299.4 818.0,299.4 818.0,226.0 800.6,226.0"/>
  <polygon class="pl" points="822.3,197.8 822.3,294.3 839.7,294.3 839.7,197.8 822.3,197.8"/>
  <polygon class="pl" points="844.1,173.8 844.1,296.0 861.5,296.0 861.5,173.8 844.1,173.8"/>
  <polygon class="pl" points="865.9,205.2 865.9,302.7 883.3,302.7 883.3,205.2 865.9,205.2"/>
  <polygon class="pl" points="887.6,184.6 887.6,304.2 905.0,304.2 905.0,184.6 887.6,184.6"/>
</g>
<g stroke="#000" stroke-width="0.90" fill="#FF7F61"  clip-path="url(#axis_clip)">
  <polygon class="pl" points="147.8,303.8 147.8,373.9 165.2,373.9 165.2,303.8 147.8,303.8"/>
  <polygon class="pl" points="169.5,301.8 169.5,373.9 186.9,373.9 186.9,301.8 169.5,301.8"/>
  <polygon class="pl" points="191.3,302.2 191.3,373.9 208.7,373.9 208.7,302.2 191.3,302.2"/>
  <polygon class="pl" points="213.1,301.8 213.1,373.9 230.5,373.9 230.5,301.8 213.1,301.8"/>
  <polygon class="pl" points="234.8,299.4 234.8,373.9 252.2,373.9 252.2,299.4 234.8,299.4"/>
  <polygon class="pl" points="256.6,297.2 256.6,373.9 274.0,373.9 274.0,297.2 256.6,297.2"/>
  <polygon class="pl" points="278.3,293.8 278.3,373.9 295.7,373.9 295.7,293.8 278.3,293.8"/>
  <polygon class="pl" points="300.1,291.0 300.1,373.9 317.5,373.9 317.5,291.0 300.1,291.0"/>
  <polygon class="pl" points="321.9,287.0 321.9,373.9 339.3,373.9 339.3,287.0 321.9,287.0"/>
  <polygon class="pl" points="343.6,283.3 343.6,373.9 361.0,373.9 361.0,283.3 343.6,283.3"/>
  <polygon class="pl" points="365.4,277.3 365.4,373.9 382.8,373.9 382.8,277.3 365.4,277.3"/>
  <polygon class="pl" points="387.1,272.3 387.1,373.9 404.5,373.9 404.5,272.3 387.1,272.3"/>
  <polygon class="pl" points="408.9,275.6 408.9,373.9 426.3,373.9 426.3,275.6 408.9,275.6"/>
  <polygon class="pl" points="430.7,276.5 430.7,373.9 448.1,373.9 448.1,276.5 430.7,276.5"/>
  <polygon class="pl" points="452.4,275.5 452.4,373.9 469.8,373.9 469.8,275.5 452.4,275.5"/>
  <polygon class="pl" points="474.2,271.4 474.2,373.9 491.6,373.9 491.6,271.4 474.2,271.4"/>
  <polygon class="pl" points="495.9,272.6 495.9,373.9 513.3,373.9 513.3,272.6 495.9,272.6"/>
  <polygon class="pl" points="517.7,272.5 517.7,373.9 535.1,373.9 535.1,272.5 517.7,272.5"/>
  <polygon class="pl" points="539.5,273.2 539.5,373.9 556.9,373.9 556.9,273.2 539.5,273.2"/>
  <polygon class="pl" points="561.2,284.2 561.2,373.9 578.6,373.9 578.6,284.2 561.2,284.2"/>
  <polygon class="pl" points="583.0,285.0 583.0,373.9 600.4,373.9 600.4,285.0 583.0,285.0"/>
  <polygon class="pl" points="604.7,293.0 604.7,373.9 622.1,373.9 622.1,293.0 604.7,293.0"/>
  <polygon class="pl" points="626.5,292.7 626.5,373.9 643.9,373.9 643.9,292.7 626.5,292.7"/>
  <polygon class="pl" points="648.3,294.7 648.3,373.9 665.7,373.9 665.7,294.7 648.3,294.7"/>
  <polygon class="pl" points="670.0,295.6 670.0,373.9 687.4,373.9 687.4,295.6 670.0,295.6"/>
  <polygon class="pl" points="691.8,291.6 691.8,373.9 709.2,373.9 709.2,291.6 691.8,291.6"/>
  <polygon class="pl" points="713.5,288.1 713.5,373.9 730.9,373.9 730.9,288.1 713.5,288.1"/>
  <polygon class="pl" points="735.3,291.0 735.3,373.9 752.7,373.9 752.7,291.0 735.3,291.0"/>
  <polygon class="pl" points="757.1,291.2 757.1,373.9 774.5,373.9 774.5,291.2 757.1,291.2"/>
  <polygon class="pl" points="778.8,294.9 778.8,373.9 796.2,373.9 796.2,294.9 778.8,294.9"/>
  <polygon class="pl" points="800.6,299.4 800.6,373.9 818.0,373.9 818.0,299.4 800.6,299.4"/>
  <polygon class="pl" points="822.3,294.3 822.3,373.9 839.7,373.9 839.7,294.3 822.3,294.3"/>
  <polygon class="pl" points="844.1,296.0 844.1,373.9 861.5,373.9 861.5,296.0 844.1,296.0"/>
  <polygon class="pl" points="865.9,302.7 865.9,373.9 883.3,373.9 883.3,302.7 865.9,302.7"/>
  <polygon class="pl" points="887.6,304.2 887.6,373.9 905.0,373.9 905.0,304.2 887.6,304.2"/>
</g>
<g stroke="#000" stroke-width="0.90" fill="#4A89E8"  clip-path="url(#axis_clip)">
  <polygon class="pl" points="147.8,451.9 147.8,373.9 165.2,373.9 165.2,451.9 147.8,451.9"/>
  <polygon class="pl" points="169.5,437.2 169.5,373.9 186.9,373.9 186.9,437.2 169.5,437.2"/>
  <polygon class="pl" points="191.3,435.6 191.3,373.9 208.7,373.9 208.7,435.6 191.3,435.6"/>
  <polygon class="pl" points="213.1,445.4 213.1,373.9 230.5,373.9 230.5,445.4 213.1,445.4"/>
  <polygon class="pl" points="234.8,435.4 234.8,373.9 252.2,373.9 252.2,435.4 234.8,435.4"/>
  <polygon class="pl" points="256.6,483.1 256.6,373.9 274.0,373.9 274.0,483.1 256.6,483.1"/>
  <polygon class="pl" points="278.3,484.7 278.3,373.9 295.7,373.9 295.7,484.7 278.3,484.7"/>
  <polygon class="pl" points="300.1,455.9 300.1,373.9 317.5,373.9 317.5,455.9 300.1,455.9"/>
  <polygon class="pl" points="321.9,450.5 321.9,373.9 339.3,373.9 339.3,450.5 321.9,450.5"/>
  <polygon class="pl" points="343.6,425.2 343.6,373.9 361.0,373.9 361.0,425.2 343.6,425.2"/>
  <polygon class="pl" points="365.4,462.8 365.4,373.9 382.8,373.9 382.8,462.8 365.4,462.8"/>
  <polygon class="pl" points="387.1,564.4 387.1,373.9 404.5,373.9 404.5,564.4 387.1,564.4"/>
  <polygon class="pl" points="408.9,547.4 408.9,373.9 426.3,373.9 426.3,547.4 408.9,547.4"/>
  <polygon class="pl" points="430.7,531.6 430.7,373.9 448.1,373.9 448.1,531.6 430.7,531.6"/>
  <polygon class="pl" points="452.4,476.7 452.4,373.9 469.8,373.9 469.8,476.7 452.4,476.7"/>
  <polygon class="pl" points="474.2,461.4 474.2,373.9 491.6,373.9 491.6,461.4 474.2,461.4"/>
</g>
<polyline class="pl" points="156.5,355.0 178.2,339.4 200.0,338.5 221.8,347.1 243.5,334.4 265.3,377.5 287.0,375.3 308.8,344.9 330.6,335.1 352.3,307.2 374.1,337.5 395.8,430.9 417.6,419.2 439.4,403.9 461.1,350.6 482.9,331.6 504.6,234.5 526.4,215.7 548.2,168.7 569.9,176.6 591.7,222.0 613.4,204.0 635.2,179.8 657.0,192.9 678.7,182.0 700.5,184.5 722.2,166.9 744.0,222.2 765.8,180.8 787.5,181.1 809.3,205.7 831.0,177.8 852.8,155.5 874.6,187.0 896.3,167.2" stroke="#000" stroke-width="5.40" stroke-opacity="1.00" fill="none" clip-path="url(#axis_clip)"/>
<g class="pl" fill="#FFF" stroke="#000" stroke-width="0.900">
  <circle cx="178.2" cy="339.4" r="2.2" />
  <circle cx="200.0" cy="338.5" r="2.2" />
  <circle cx="221.8" cy="347.1" r="2.2" />
  <circle cx="243.5" cy="334.4" r="2.2" />
  <circle cx="265.3" cy="377.5" r="2.2" />
  <circle cx="287.0" cy="375.3" r="2.2" />
  <circle cx="308.8" cy="344.9" r="2.2" />
  <circle cx="330.6" cy="335.1" r="2.2" />
  <circle cx="352.3" cy="307.2" r="2.2" />
  <circle cx="395.8" cy="430.9" r="2.2" />
  <circle cx="417.6" cy="419.2" r="2.2" />
  <circle cx="439.4" cy="403.9" r="2.2" />
  <circle cx="461.1" cy="350.6" r="2.2" />
  <circle cx="482.9" cy="331.6" r="2.2" />
  <circle cx="504.6" cy="234.5" r="2.2" />
  <circle cx="526.4" cy="215.7" r="2.2" />
  <circle cx="548.2" cy="168.7" r="2.2" />
  <circle cx="569.9" cy="176.6" r="2.2" />
  <circle cx="613.4" cy="204.0" r="2.2" />
  <circle cx="635.2" cy="179.8" r="2.2" />
  <circle cx="657.0" cy="192.9" r="2.2" />
  <circle cx="678.7" cy="182.0" r="2.2" />
  <circle cx="700.5" cy="184.5" r="2.2" />
  <circle cx="722.2" cy="166.9" r="2.2" />
  <circle cx="744.0" cy="222.2" r="2.2" />
  <circle cx="765.8" cy="180.8" r="2.2" />
  <circle cx="787.5" cy="181.1" r="2.2" />
  <circle cx="831.0" cy="177.8" r="2.2" />
  <circle cx="852.8" cy="155.5" r="2.2" />
  <circle cx="874.6" cy="187.0" r="2.2" />
  <circle cx="896.3" cy="167.2" r="2.2" />
</g>
<g class="pl" fill="#FFF" stroke="#000" stroke-width="0.900">
  <circle cx="156.5" cy="355.0" r="5.4" />
  <circle cx="374.1" cy="337.5" r="5.4" />
  <circle cx="591.7" cy="222.0" r="5.4" />
  <circle cx="809.3" cy="205.7" r="5.4" />
</g>
<text transform="translate(145.6,47.2)" dy="0.0" font-size="27.00" fill="#808080" stroke="none">Annual Greenhouse Gas Emissions: Ireland</text>
<text transform="translate(130.0,81.6)" dy="8.1" font-size="27.00" fill="#808080" stroke="none" text-anchor="end">CO<tspan dy="0.2em"><tspan style="font-size:70%">2</tspan></tspan><tspan dy="-0.2em">e</tspan></text>
<text transform="translate(945.6,134.8)" dy="7.6" font-size="25.20" fill="#000" stroke="none">+993.2% since 1990</text>
<text transform="translate(945.6,339.1)" dy="7.6" font-size="25.20" fill="#FF7F61" stroke="none">Fossil CO<tspan dy="0.2em"><tspan style="font-size:70%">2</tspan></tspan><tspan dy="-0.2em"></tspan></text>
<text transform="translate(945.6,244.4)" dy="7.6" font-size="25.20" fill="#4A89E8" stroke="none">CH<tspan dy="0.2em"><tspan style="font-size:70%">4</tspan></tspan><tspan dy="-0.2em"></tspan></text>
<text transform="translate(945.6,209.9)" dy="7.6" font-size="25.20" fill="#845F48" stroke="none">N<tspan dy="0.2em"><tspan style="font-size:70%">2</tspan></tspan><tspan dy="-0.2em">O</tspan></text>
<text transform="translate(945.6,184.9)" dy="7.6" font-size="25.20" fill="#DBA746" stroke="none">F-gas</text>
<text transform="translate(945.6,159.8)" dy="7.6" font-size="25.20" fill="#7FBF7F" stroke="none">LULUCF</text>
<text transform="translate(945.6,417.6)" dy="7.6" font-size="25.20" fill="#4A89E8" stroke="none">CH<tspan dy="0.2em"><tspan style="font-size:70%">4</tspan></tspan><tspan dy="-0.2em"></tspan></text>
<polyline class="pl" points="910.8,167.2 912.4,167.0 913.8,166.7 915.2,166.2 916.4,165.5 917.6,164.6 918.8,163.6 919.8,162.4 920.8,161.1 921.7,159.7 922.7,158.3 923.5,156.7 924.4,155.1 925.2,153.5 926.0,151.8 926.8,150.1 927.6,148.5 928.4,146.8 929.3,145.2 930.1,143.7 931.1,142.2 932.0,140.8 933.0,139.5 934.0,138.4 935.2,137.3 936.4,136.5 937.6,135.7 939.0,135.2 940.4,134.9 942.0,134.8" stroke="#000" stroke-width="0.90" stroke-opacity="1.00" fill="none" />
<polyline class="pl" points="910.8,179.2 912.4,179.3 913.8,179.6 915.2,180.1 916.4,180.8 917.6,181.6 918.8,182.6 919.8,183.7 920.8,184.9 921.7,186.2 922.7,187.6 923.5,189.1 924.4,190.6 925.2,192.2 926.0,193.8 926.8,195.3 927.6,196.9 928.4,198.5 929.3,200.0 930.1,201.5 931.1,202.9 932.0,204.2 933.0,205.4 934.0,206.5 935.2,207.5 936.4,208.3 937.6,209.0 939.0,209.5 940.4,209.8 942.0,209.9" stroke="#845F48" stroke-width="0.90" stroke-opacity="1.00" fill="none" />
<polyline class="pl" points="910.8,173.2 912.4,173.2 913.8,173.3 915.2,173.5 916.4,173.8 917.6,174.1 918.8,174.5 919.8,174.9 920.8,175.3 921.7,175.8 922.7,176.4 923.5,176.9 924.4,177.5 925.2,178.1 926.0,178.7 926.8,179.3 927.6,179.9 928.4,180.5 929.3,181.1 930.1,181.6 931.1,182.2 932.0,182.7 933.0,183.1 934.0,183.6 935.2,183.9 936.4,184.3 937.6,184.5 939.0,184.7 940.4,184.8 942.0,184.9" stroke="#DBA746" stroke-width="0.90" stroke-opacity="1.00" fill="none" />
<polyline class="pl" points="910.8,169.8 912.4,169.8 913.8,169.7 915.2,169.5 916.4,169.3 917.6,169.0 918.8,168.7 919.8,168.4 920.8,168.0 921.7,167.5 922.7,167.1 923.5,166.6 924.4,166.1 925.2,165.6 926.0,165.1 926.8,164.6 927.6,164.1 928.4,163.5 929.3,163.1 930.1,162.6 931.1,162.1 932.0,161.7 933.0,161.3 934.0,160.9 935.2,160.6 936.4,160.3 937.6,160.1 939.0,160.0 940.4,159.9 942.0,159.8" stroke="#7FBF7F" stroke-width="0.90" stroke-opacity="1.00" fill="none" />
<text transform="translate(160.0,666.1)" font-size="19.80" font-family="Helvetica" fill="#BFBFBF" stroke="none" xml:space="preserve">CICERO   &#9679;   Data: EIONET (2026)</text>
<g>
  <rect x="123.0" y="651.4" width="34" height="17" fill="#FFF" stroke="none" opacity="0.01"/>
  <g transform="translate(124.0,652.4) scale(0.24)">
  <g><circle fill="#FFF" cx="37.79" cy="28.5" r="28.84"/>
     <circle fill="none" cx="37.79" cy="28.5" r="28.84" stroke="#BFBFBF" stroke-width="5.5"/>
     <path fill="#BFBFBF" d="M37.16,23.19 l-4.29,2.23c-0.458-0.951-1.02-1.62-1.69-2c-0.667-0.38-1.29-0.571-1.86-0.571c-2.86,0-4.29,1.89-4.29,5.66 c0,1.71,0.36,3.08,1.09,4.11c0.724,1.03,1.79,1.54,3.2,1.54c1.87,0,3.18-0.915,3.94-2.74l3.94,2 c-0.838,1.56-2,2.79-3.49,3.69c-1.48,0.896-3.12,1.34-4.91,1.34c-2.86,0-5.16-0.875-6.92-2.63 c-1.75-1.75-2.63-4.19-2.63-7.31c0-3.05,0.886-5.47,2.66-7.26c1.77-1.79,4.01-2.69,6.72-2.69 C32.6,18.56,35.44,20.1,37.16,23.19z
              M55.61,23.19l-4.23,2.23c-0.457-0.951-1.02-1.62-1.69-2 c-0.668-0.38-1.31-0.571-1.91-0.571c-2.86,0-4.29,1.89-4.29,5.66c0,1.71,0.363,3.08,1.09,4.11 c0.723,1.03,1.79,1.54,3.2,1.54c1.87,0,3.18-0.915,3.94-2.74l4,2c-0.875,1.56-2.06,2.79-3.54,3.69 c-1.49,0.9-3.11,1.34-4.86,1.34c-2.9,0-5.21-0.875-6.94-2.63c-1.74-1.75-2.6-4.19-2.6-7.31 c0-3.05,0.885-5.47,2.66-7.26c1.77-1.79,4.01-2.69,6.71-2.69C51.12,18.56,53.944,20.1,55.61,23.19z"/>
  </g></g>
  <g transform="translate(140.2,652.4) scale(0.24)">
  <g><circle fill="#FFF" cx="37.79" cy="28.5" r="28.84"/>
     <circle fill="none" cx="37.79" cy="28.5" r="28.84" stroke="#BFBFBF" stroke-width="5.5"/>
     <path fill="#BFBFBF" d="M46.129,20.557v13.085h-3.656v15.542h-9.944V33.643h-3.656V20.557 c0-0.572,0.2-1.057,0.599-1.457c0.401-0.399,0.887-0.6,1.457-0.6h13.144c0.533,0,1.01,0.2,1.428,0.6 C45.918,19.5,46.129,19.986,46.129,20.557z
              M33.042,12.329c0-3.008,1.485-4.514,4.458-4.514s4.457,1.504,4.457,4.514 c0,2.971-1.486,4.457-4.457,4.457S33.042,15.3,33.042,12.329z"/>
  </g></g>
</g>
</g>
</svg>
