<svg version="1.1" xmlns="http://www.w3.org/2000/svg" xmlns:xlink="http://www.w3.org/1999/xlink" width="100%" height="100%" viewBox="0 0 1200.000 674.916">
<title>Global Fossil CO2 Emissions</title>
<style type="text/css">
  #main {font-family:Helvetica,Arial,sans-serif; font-size:27.00px;
         fill-opacity:1; fill:#000000; stroke:none; stroke-linejoin:round; stroke-linecap:round; stroke-width:1.00;}
  .marker {stroke-opacity:0;fill-opacity:0;}
  .marker:hover {stroke-opacity:0.5; fill-opacity:1;}
  .ticklabel {font-size:27.00px;fill:#808080;stroke:none;font-family:Helvetica}
  .ytl {text-anchor:end;}
  .dp1 {pointer-events:none;font-size:70%;text-anchor:middle;fill:#000000;}
  .dp2 {pointer-events:none;font-size:70%;text-anchor:middle;fill:#FFFFFF;}
  .numtip {pointer-events:none;}
  .cc {opacity:0.25;}
.dl_fe {background-color:#FDFFDF;display:flex;margin:auto;align-items:center}
.dl_fe_p {font-size:20px;text-align:center;margin:3px}
.dl_el {display:none;pointer-events:none;}
.cc:hover + .dl_el {display:block;}
text:hover + .dl_el {display:block;}
</style>
<defs>
  <clipPath id="axis_clip"><rect x="145.8" y="54.2" width="761.2" height="532.8" /></clipPath>
  <path id="tick_y" d="M 145.600,0 h -6.000" stroke="#808080" stroke-width="0.90"/>
  <path id="tick_x" d="M 0,587.177 v 6.000" stroke="#808080" stroke-width="0.90"/>
</defs>
<g id="main">
<text class="ticklabel xtl" transform="translate(157.0,629.0)" text-anchor="middle">1990</text>
<text class="ticklabel xtl" transform="translate(270.6,629.0)" text-anchor="middle">1995</text>
<text class="ticklabel xtl" transform="translate(384.3,629.0)" text-anchor="middle">2000</text>
<text class="ticklabel xtl" transform="translate(498.0,629.0)" text-anchor="middle">2005</text>
<text class="ticklabel xtl" transform="translate(611.7,629.0)" text-anchor="middle">2010</text>
<text class="ticklabel xtl" transform="translate(725.3,629.0)" text-anchor="middle">2015</text>
<text class="ticklabel xtl" transform="translate(839.0,629.0)" text-anchor="middle">2020</text>
<text class="ticklabel xtl" transform="translate(907.2,629.0)" text-anchor="middle">23</text>
<text class="ticklabel ytl" transform="translate(128.8,527.2)">20</text>
<text class="ticklabel ytl" transform="translate(128.8,413.8)">25</text>
<text class="ticklabel ytl" transform="translate(128.8,300.3)">30</text>
<text class="ticklabel ytl" transform="translate(128.8,186.9)">35</text>
<text class="ticklabel ytl" transform="translate(128.8,73.4)">40 Gt</text>
<polyline class="pl" points="145.6,65.3 907.2,65.3" stroke="#E6E6E6" stroke-width="0.90" stroke-opacity="1.00" fill="none" clip-path="url(#axis_clip)"/>
<polyline class="pl" points="145.6,178.8 907.2,178.8" stroke="#E6E6E6" stroke-width="0.90" stroke-opacity="1.00" fill="none" clip-path="url(#axis_clip)"/>
<polyline class="pl" points="145.6,292.2 907.2,292.2" stroke="#E6E6E6" stroke-width="0.90" stroke-opacity="1.00" fill="none" clip-path="url(#axis_clip)"/>
<polyline class="pl" points="145.6,405.7 907.2,405.7" stroke="#E6E6E6" stroke-width="0.90" stroke-opacity="1.00" fill="none" clip-path="url(#axis_clip)"/>
<polyline class="pl" points="145.6,519.1 907.2,519.1" stroke="#E6E6E6" stroke-width="0.90" stroke-opacity="1.00" fill="none" clip-path="url(#axis_clip)"/>
<g stroke="none" stroke-width="0.9000"  clip-path="url(#axis_clip)">
  <polygon points="157.0,430.8 179.7,419.5 202.4,435.3 225.2,429.8 247.9,424.1 270.6,412.5 293.4,395.2 316.1,391.7 338.8,393.2 361.6,381.3 384.3,365.4 407.0,361.2 429.8,347.6 452.5,314.2 475.2,291.1 498.0,267.9 520.7,243.8 543.5,222.5 566.2,209.5 588.9,222.6 611.7,179.4 634.4,152.5 657.1,140.6 679.9,133.5 702.6,128.0 725.3,128.0 748.1,128.1 770.8,114.6 793.5,97.0 816.3,90.5 839.0,138.9 861.7,95.8 884.5,87.9 907.2,69.5 907.2,172.5 884.5,172.1 861.7,179.3 839.0,218.3 816.3,174.5 793.5,180.4 770.8,196.4 748.1,208.6 725.3,208.5 702.6,208.4 679.9,213.5 657.1,219.9 634.4,230.6 611.7,255.0 588.9,294.1 566.2,282.2 543.5,293.9 520.7,313.2 498.0,335.0 475.2,356.0 452.5,376.9 429.8,407.1 407.0,419.5 384.3,423.2 361.6,437.6 338.8,448.4 316.1,447.0 293.4,450.2 270.6,465.8 247.9,476.4 225.2,481.5 202.4,486.5 179.7,472.2 157.0,482.5" fill="#F2F2F2"/>
</g>
<g stroke="none" stroke-width="0.9000"  clip-path="url(#axis_clip)">
  <polygon points="884.5,87.9 907.2,69.5 907.2,172.5 884.5,172.1" fill="#F2D9D9"/>
</g>
<polyline class="pl" points="157.0,430.8 179.7,419.5 202.4,435.3 225.2,429.8 247.9,424.1 270.6,412.5 293.4,395.2 316.1,391.7 338.8,393.2 361.6,381.3 384.3,365.4 407.0,361.2 429.8,347.6 452.5,314.2 475.2,291.1 498.0,267.9 520.7,243.8 543.5,222.5 566.2,209.5 588.9,222.6 611.7,179.4 634.4,152.5 657.1,140.6 679.9,133.5 702.6,128.0 725.3,128.0 748.1,128.1 770.8,114.6 793.5,97.0 816.3,90.5 839.0,138.9 861.7,95.8 884.5,87.9 907.2,69.5" stroke="#D9D9D9" stroke-width="0.90" stroke-opacity="1.00" fill="none" clip-path="url(#axis_clip)"/>
<polyline class="pl" points="157.0,482.5 179.7,472.2 202.4,486.5 225.2,481.5 247.9,476.4 270.6,465.8 293.4,450.2 316.1,447.0 338.8,448.4 361.6,437.6 384.3,423.2 407.0,419.5 429.8,407.1 452.5,376.9 475.2,356.0 498.0,335.0 520.7,313.2 543.5,293.9 566.2,282.2 588.9,294.1 611.7,255.0 634.4,230.6 657.1,219.9 679.9,213.5 702.6,208.4 725.3,208.5 748.1,208.6 770.8,196.4 793.5,180.4 816.3,174.5 839.0,218.3 861.7,179.3 884.5,172.1 907.2,172.5" stroke="#D9D9D9" stroke-width="0.90" stroke-opacity="1.00" fill="none" clip-path="url(#axis_clip)"/>
<polyline class="pl" points="884.5,130.0 907.2,121.0" stroke="#000" stroke-width="5.40" stroke-opacity="1.00" fill="none" clip-path="url(#axis_clip)"/>
<g class="pl" fill="#F00" stroke="#000" stroke-width="2.700" >
  <circle cx="907.2" cy="121.0" r="8.1"/>
</g>
<polyline class="pl" points="157.0,456.7 179.7,445.8 202.4,460.9 225.2,455.6 247.9,450.3 270.6,439.1 293.4,422.7 316.1,419.4 338.8,420.8 361.6,409.4 384.3,394.3 407.0,390.4 429.8,377.3 452.5,345.6 475.2,323.5 498.0,301.5 520.7,278.5 543.5,258.2 566.2,245.9 588.9,258.3 611.7,217.2 634.4,191.6 657.1,180.2 679.9,173.5 702.6,168.2 725.3,168.3 748.1,168.3 770.8,155.5 793.5,138.7 816.3,132.5 839.0,178.6 861.7,137.6 884.5,130.0" stroke="#000" stroke-width="5.40" stroke-opacity="1.00" fill="none" clip-path="url(#axis_clip)"/>
<g class="pl" fill="#FFF" stroke="#000" stroke-width="0.900" clip-path="url(#axis_clip)">
  <circle cx="179.7" cy="445.8" r="2.2"/>
  <circle cx="202.4" cy="460.9" r="2.2"/>
  <circle cx="225.2" cy="455.6" r="2.2"/>
  <circle cx="247.9" cy="450.3" r="2.2"/>
  <circle cx="293.4" cy="422.7" r="2.2"/>
  <circle cx="316.1" cy="419.4" r="2.2"/>
  <circle cx="338.8" cy="420.8" r="2.2"/>
  <circle cx="361.6" cy="409.4" r="2.2"/>
  <circle cx="407.0" cy="390.4" r="2.2"/>
  <circle cx="429.8" cy="377.3" r="2.2"/>
  <circle cx="452.5" cy="345.6" r="2.2"/>
  <circle cx="475.2" cy="323.5" r="2.2"/>
  <circle cx="520.7" cy="278.5" r="2.2"/>
  <circle cx="543.5" cy="258.2" r="2.2"/>
  <circle cx="566.2" cy="245.9" r="2.2"/>
  <circle cx="588.9" cy="258.3" r="2.2"/>
  <circle cx="634.4" cy="191.6" r="2.2"/>
  <circle cx="657.1" cy="180.2" r="2.2"/>
  <circle cx="679.9" cy="173.5" r="2.2"/>
  <circle cx="702.6" cy="168.2" r="2.2"/>
  <circle cx="748.1" cy="168.3" r="2.2"/>
  <circle cx="770.8" cy="155.5" r="2.2"/>
  <circle cx="793.5" cy="138.7" r="2.2"/>
  <circle cx="816.3" cy="132.5" r="2.2"/>
  <circle cx="861.7" cy="137.6" r="2.2"/>
  <circle cx="884.5" cy="130.0" r="2.2"/>
</g>
<g class="pl" fill="#FFF" stroke="#000" stroke-width="0.900" clip-path="url(#axis_clip)">
  <circle cx="157.0" cy="456.7" r="5.4"/>
  <circle cx="270.6" cy="439.1" r="5.4"/>
  <circle cx="384.3" cy="394.3" r="5.4"/>
  <circle cx="498.0" cy="301.5" r="5.4"/>
  <circle cx="611.7" cy="217.2" r="5.4"/>
  <circle cx="725.3" cy="168.3" r="5.4"/>
  <circle cx="839.0" cy="178.6" r="5.4"/>
</g>
<text transform="translate(145.6,47.2)" dy="0.0" font-size="27.00" fill="#808080" stroke="none">Global Fossil CO<tspan dy="0.2em"><tspan style="font-size:70%">2</tspan></tspan><tspan dy="-0.2em"> </tspan>Emissions</text>
<text transform="translate(130.0,93.0)" dy="8.1" font-size="27.00" fill="#808080" stroke="none" text-anchor="end">CO<tspan dy="0.2em"><tspan style="font-size:70%">2</tspan></tspan><tspan dy="-0.2em"></tspan></text>
<text transform="translate(925.2,121.0)" dy="8.1" font-size="27.00" fill="#000" stroke="none">37.5 Gt CO<tspan dy="0.2em"><tspan style="font-size:70%">2</tspan></tspan><tspan dy="-0.2em"></tspan></text>
<g stroke="none" stroke-width="0.9000"  >
  <polygon points="925.2,150.7 934.8,137.2 944.4,150.7 925.2,150.7" fill="#000"/>
</g>
<text transform="translate(949.2,146.0)" dy="5.4" font-size="18.00" fill="#000" stroke="none">1.1%</text>
<text transform="translate(990.6,146.0)" dy="5.4" font-size="18.00" fill="#000" stroke="none" xml:space="preserve"> (0.0% to 2.1%)</text>
<text transform="translate(925.2,98.0)" dy="0.0" font-size="18.00" fill="#000" stroke="none">Projection 2023</text>
<text transform="translate(259.3,380.0)"  font-size="21.60" fill="#808080" stroke="none" text-anchor="middle">
      <tspan x="0" y="-24.2">1990-99</tspan><tspan x="0" y="0.0">+1.0%/yr</tspan>
    </text>
<text transform="translate(452.5,261.8)"  font-size="21.60" fill="#808080" stroke="none" text-anchor="middle">
      <tspan x="0" y="-24.2">2000-09</tspan><tspan x="0" y="0.0">+2.8%/yr</tspan>
    </text>
<text transform="translate(714.0,114.4)"  font-size="21.60" fill="#808080" stroke="none" text-anchor="middle">
      <tspan x="0" y="-24.2">2010-19</tspan><tspan x="0" y="0.0">+1.0%/yr</tspan>
    </text>
<polyline class="pl" points="202.4,467.6 202.4,467.7 202.4,467.8 202.4,468.0 202.5,468.3 202.5,468.6 202.5,469.0 202.5,469.5 202.6,470.0 202.7,470.6 202.7,471.3 202.8,472.0 203.0,472.7 203.1,473.5 203.3,474.3 203.5,475.2 203.7,476.1 203.9,477.0 204.2,477.9 204.5,478.9 204.9,479.9 205.3,480.9 205.7,481.9 206.2,482.9 206.7,484.0 207.2,485.0 207.8,486.0 208.5,487.1 209.2,488.1 209.9,489.1 210.7,490.1 211.6,491.0 212.5,492.0 213.4,492.9 214.5,493.8 215.6,494.7 216.7,495.5 217.9,496.3 219.2,497.0 220.6,497.7 222.0,498.4 223.5,499.0 225.1,499.5 226.8,500.0 228.5,500.4 230.3,500.7 232.2,501.0 234.2,501.2 236.3,501.3 238.4,501.4" stroke="#80AD7E" stroke-width="0.90" stroke-opacity="1.00" fill="none" />
<g class="pl" fill="#80AD7E" stroke="none" stroke-width="0.900" >
  <circle cx="238.4" cy="501.4" r="3.6"/>
</g>
<text transform="translate(250.4,488.5)"  font-size="27.00" fill="#80AD7E" stroke="none">
      <tspan x="0" y="22.5">Dissolution of</tspan><tspan x="0" y="52.7">Soviet Union</tspan>
    </text>
<g stroke="none" stroke-width="0.9000"  >
  <polygon points="250.4,553.4 260.0,566.9 269.6,553.4 250.4,553.4" fill="#80AD7E"/>
</g>
<text transform="translate(274.4,562.2)" dy="5.4" font-size="18.00" fill="#80AD7E" stroke="none">3.1%</text>
<polyline class="pl" points="588.9,265.1 588.9,265.1 588.9,265.3 588.9,265.5 588.9,265.7 589.0,266.1 589.0,266.5 589.0,267.0 589.1,267.5 589.1,268.1 589.2,268.7 589.3,269.4 589.4,270.2 589.6,271.0 589.8,271.8 590.0,272.6 590.2,273.5 590.4,274.5 590.7,275.4 591.0,276.4 591.4,277.4 591.8,278.4 592.2,279.4 592.6,280.4 593.1,281.4 593.7,282.5 594.3,283.5 594.9,284.5 595.6,285.6 596.4,286.6 597.2,287.6 598.0,288.5 598.9,289.5 599.9,290.4 600.9,291.3 602.0,292.1 603.2,293.0 604.4,293.8 605.7,294.5 607.1,295.2 608.5,295.8 610.0,296.4 611.6,297.0 613.2,297.4 615.0,297.9 616.8,298.2 618.7,298.5 620.7,298.7 622.8,298.8 624.9,298.8" stroke="#80AD7E" stroke-width="0.90" stroke-opacity="1.00" fill="none" />
<g class="pl" fill="#80AD7E" stroke="none" stroke-width="0.900" >
  <circle cx="624.9" cy="298.8" r="3.6"/>
</g>
<text transform="translate(636.9,286.0)"  font-size="27.00" fill="#80AD7E" stroke="none">
      <tspan x="0" y="22.5">Global</tspan><tspan x="0" y="52.7">financial</tspan><tspan x="0" y="82.9">crisis</tspan>
    </text>
<g stroke="none" stroke-width="0.9000"  >
  <polygon points="636.9,383.3 646.5,396.8 656.1,383.3 636.9,383.3" fill="#80AD7E"/>
</g>
<text transform="translate(660.9,392.1)" dy="5.4" font-size="18.00" fill="#80AD7E" stroke="none">1.4%</text>
<polyline class="pl" points="839.0,188.7 839.0,188.8 839.0,189.1 839.0,189.5 839.0,190.0 839.0,190.7 839.1,191.5 839.1,192.5 839.2,193.5 839.2,194.7 839.3,196.0 839.4,197.4 839.5,198.9 839.7,200.5 839.8,202.1 840.0,203.8 840.3,205.6 840.5,207.5 840.8,209.4 841.1,211.3 841.4,213.3 841.8,215.3 842.3,217.3 842.7,219.4 843.2,221.4 843.8,223.5 844.4,225.6 845.0,227.6 845.7,229.7 846.5,231.7 847.3,233.6 848.1,235.6 849.0,237.5 850.0,239.3 851.0,241.1 852.1,242.8 853.3,244.5 854.5,246.1 855.8,247.5 857.1,248.9 858.6,250.2 860.1,251.4 861.7,252.5 863.3,253.4 865.1,254.3 866.9,254.9 868.8,255.5 870.8,255.9 872.8,256.1 875.0,256.2" stroke="#80AD7E" stroke-width="0.90" stroke-opacity="1.00" fill="none" />
<g class="pl" fill="#80AD7E" stroke="none" stroke-width="0.900" >
  <circle cx="875.0" cy="256.2" r="3.6"/>
</g>
<text transform="translate(887.0,243.4)"  font-size="27.00" fill="#80AD7E" stroke="none">
      <tspan x="0" y="22.5">COVID-19</tspan><tspan x="0" y="52.7">pandemic</tspan>
    </text>
<g stroke="none" stroke-width="0.9000"  >
  <polygon points="887.0,308.2 896.6,321.7 906.2,308.2 887.0,308.2" fill="#80AD7E"/>
</g>
<text transform="translate(911.0,317.0)" dy="5.4" font-size="18.00" fill="#80AD7E" stroke="none">5.7%</text>
<text transform="translate(907.2,627.7)" dy="18.0" font-size="18.00" fill="#808080" stroke="none" text-anchor="middle">projected</text>
<text transform="translate(160.3,666.1)" font-size="19.80" font-family="Helvetica" fill="#BFBFBF" stroke="none" xml:space="preserve">Global Carbon Project</text>
<use xlink:href="#tick_x" transform="translate(157.0,0)"/>
<use xlink:href="#tick_x" transform="translate(270.6,0)"/>
<use xlink:href="#tick_x" transform="translate(384.3,0)"/>
<use xlink:href="#tick_x" transform="translate(498.0,0)"/>
<use xlink:href="#tick_x" transform="translate(611.7,0)"/>
<use xlink:href="#tick_x" transform="translate(725.3,0)"/>
<use xlink:href="#tick_x" transform="translate(839.0,0)"/>
<use xlink:href="#tick_x" transform="translate(907.2,0)"/>
<use xlink:href="#tick_y" transform="translate(0,519.1)"/>
<use xlink:href="#tick_y" transform="translate(0,405.7)"/>
<use xlink:href="#tick_y" transform="translate(0,292.2)"/>
<use xlink:href="#tick_y" transform="translate(0,178.8)"/>
<use xlink:href="#tick_y" transform="translate(0,65.3)"/>
<polyline points="145.6,53.993 145.6,587.177 907.2,587.177" stroke="#808080" stroke-width="0.90" fill="none"/>
<g>
  <rect x="123.0" y="651.4" width="34" height="17" fill="#FFF" stroke="none"/>
  <g transform="translate(124.0,652.4) scale(0.24)">
  <g><circle fill="#FFF" cx="37.79" cy="28.5" r="28.84"/>
     <circle fill="none" cx="37.79" cy="28.5" r="28.84" stroke="#BFBFBF" stroke-width="5.5"/>
     <path fill="#BFBFBF" d="M37.16,23.19 l-4.29,2.23c-0.458-0.951-1.02-1.62-1.69-2c-0.667-0.38-1.29-0.571-1.86-0.571c-2.86,0-4.29,1.89-4.29,5.66 c0,1.71,0.36,3.08,1.09,4.11c0.724,1.03,1.79,1.54,3.2,1.54c1.87,0,3.18-0.915,3.94-2.74l3.94,2 c-0.838,1.56-2,2.79-3.49,3.69c-1.48,0.896-3.12,1.34-4.91,1.34c-2.86,0-5.16-0.875-6.92-2.63 c-1.75-1.75-2.63-4.19-2.63-7.31c0-3.05,0.886-5.47,2.66-7.26c1.77-1.79,4.01-2.69,6.72-2.69 C32.6,18.56,35.44,20.1,37.16,23.19z
              M55.61,23.19l-4.23,2.23c-0.457-0.951-1.02-1.62-1.69-2 c-0.668-0.38-1.31-0.571-1.91-0.571c-2.86,0-4.29,1.89-4.29,5.66c0,1.71,0.363,3.08,1.09,4.11 c0.723,1.03,1.79,1.54,3.2,1.54c1.87,0,3.18-0.915,3.94-2.74l4,2c-0.875,1.56-2.06,2.79-3.54,3.69 c-1.49,0.9-3.11,1.34-4.86,1.34c-2.9,0-5.21-0.875-6.94-2.63c-1.74-1.75-2.6-4.19-2.6-7.31 c0-3.05,0.885-5.47,2.66-7.26c1.77-1.79,4.01-2.69,6.71-2.69C51.12,18.56,53.944,20.1,55.61,23.19z"/>
  </g></g>
  <g transform="translate(140.2,652.4) scale(0.24)">
  <g><circle fill="#FFF" cx="37.79" cy="28.5" r="28.84"/>
     <circle fill="none" cx="37.79" cy="28.5" r="28.84" stroke="#BFBFBF" stroke-width="5.5"/>
     <path fill="#BFBFBF" d="M46.129,20.557v13.085h-3.656v15.542h-9.944V33.643h-3.656V20.557 c0-0.572,0.2-1.057,0.599-1.457c0.401-0.399,0.887-0.6,1.457-0.6h13.144c0.533,0,1.01,0.2,1.428,0.6 C45.918,19.5,46.129,19.986,46.129,20.557z
              M33.042,12.329c0-3.008,1.485-4.514,4.458-4.514s4.457,1.504,4.457,4.514 c0,2.971-1.486,4.457-4.457,4.457S33.042,15.3,33.042,12.329z"/>
  </g></g>
</g>
</g>
</svg>
