<svg version="1.1" xmlns="http://www.w3.org/2000/svg" xmlns:xlink="http://www.w3.org/1999/xlink" width="100%" height="100%" viewBox="0 0 1200.000 674.916">
<title>Global Annual Fossil CO2 Emissions, 2000-23</title>
<style type="text/css">
  #main {font-family:Helvetica,Arial,sans-serif; font-size:27.00px;
         fill-opacity:1; fill:#000000; stroke:none; stroke-linejoin:round; stroke-linecap:round; stroke-width:1.00;}
  .marker {stroke-opacity:0;fill-opacity:0;}
  .marker:hover {stroke-opacity:0.5; fill-opacity:1;}
  .ticklabel {font-size:27.00px;fill:#808080;stroke:none;font-family:Helvetica}
  .ytl {text-anchor:end;}
  .dp1 {pointer-events:none;font-size:70%;text-anchor:middle;fill:#000000;}
  .dp2 {pointer-events:none;font-size:70%;text-anchor:middle;fill:#FFFFFF;}
  .numtip {pointer-events:none;}
  .cc {opacity:0.25;}
.dl_fe {background-color:#FDFFDF;display:flex;margin:auto;align-items:center}
.dl_fe_p {font-size:20px;text-align:center;margin:3px}
.dl_el {display:none;pointer-events:none;}
.cc:hover + .dl_el {display:block;}
text:hover + .dl_el {display:block;}
</style>
<defs>
  <clipPath id="axis_clip"><rect x="145.8" y="54.2" width="761.2" height="532.8" /></clipPath>
  <path id="line_x" d="M 145.600,0 h 761.600" stroke="#262626" stroke-opacity="0.15" stroke-width="1.00"/>
  <path id="tick_y" d="M 145.600,0 h -6.000" stroke="#808080" stroke-width="0.90"/>
  <path id="tick_x" d="M 0,587.177 v 6.000" stroke="#808080" stroke-width="0.90"/>
</defs>
<g id="main">
<use xlink:href="#line_x" transform="translate(0,587.2)"/>
<use xlink:href="#line_x" transform="translate(0,468.7)"/>
<use xlink:href="#line_x" transform="translate(0,350.2)"/>
<use xlink:href="#line_x" transform="translate(0,231.7)"/>
<use xlink:href="#line_x" transform="translate(0,113.2)"/>
<use xlink:href="#tick_y" transform="translate(0,587.2)"/>
<use xlink:href="#tick_y" transform="translate(0,468.7)"/>
<use xlink:href="#tick_y" transform="translate(0,350.2)"/>
<use xlink:href="#tick_y" transform="translate(0,231.7)"/>
<use xlink:href="#tick_y" transform="translate(0,113.2)"/>
<use xlink:href="#tick_x" transform="translate(209.1,0)"/>
<use xlink:href="#tick_x" transform="translate(336.0,0)"/>
<use xlink:href="#tick_x" transform="translate(462.9,0)"/>
<use xlink:href="#tick_x" transform="translate(589.9,0)"/>
<use xlink:href="#tick_x" transform="translate(716.8,0)"/>
<polyline points="145.6,53.993 145.6,587.177 907.2,587.177" stroke="#808080" stroke-width="0.90" fill="none"/>
<text class="ticklabel ytl" transform="translate(128.8,595.3)">0</text>
<text class="ticklabel ytl" transform="translate(128.8,476.8)">4</text>
<text class="ticklabel ytl" transform="translate(128.8,358.3)">8</text>
<text class="ticklabel ytl" transform="translate(128.8,239.8)">12</text>
<text class="ticklabel ytl" transform="translate(128.8,121.3)">16 Gt</text>
<g stroke="#262626" stroke-width="0.9000"  clip-path="url(#axis_clip)">
  <polygon points="158.3,587.2 158.3,314.4 162.5,314.4 162.5,587.2" fill="#FFEFE6"/>
  <polygon points="285.2,587.2 285.2,282.7 289.5,282.7 289.5,587.2" fill="#EEE"/>
  <polygon points="412.2,587.2 412.2,447.0 416.4,447.0 416.4,587.2" fill="#E6F3FF"/>
  <polygon points="539.1,587.2 539.1,565.8 543.3,565.8 543.3,587.2" fill="#EEE"/>
  <polygon points="666.0,587.2 666.0,576.9 670.3,576.9 670.3,587.2" fill="#FFEAE6"/>
</g>
<g stroke="#262626" stroke-width="0.9000"  clip-path="url(#axis_clip)">
  <polygon points="162.5,587.2 162.5,312.9 166.8,312.9 166.8,587.2" fill="#F9E7DC"/>
  <polygon points="289.5,587.2 289.5,280.4 293.7,280.4 293.7,587.2" fill="#E7E7E7"/>
  <polygon points="416.4,587.2 416.4,446.3 420.6,446.3 420.6,587.2" fill="#DFEFFD"/>
  <polygon points="543.3,587.2 543.3,564.8 547.6,564.8 547.6,587.2" fill="#E9E9E9"/>
  <polygon points="670.3,587.2 670.3,577.2 674.5,577.2 674.5,587.2" fill="#FFE5DE"/>
</g>
<g stroke="#262626" stroke-width="0.9000"  clip-path="url(#axis_clip)">
  <polygon points="166.8,587.2 166.8,300.3 171.0,300.3 171.0,587.2" fill="#F4DFD3"/>
  <polygon points="293.7,587.2 293.7,281.0 297.9,281.0 297.9,587.2" fill="#E0E0E0"/>
  <polygon points="420.6,587.2 420.6,441.9 424.9,441.9 424.9,587.2" fill="#D8EAFA"/>
  <polygon points="547.6,587.2 547.6,564.0 551.8,564.0 551.8,587.2" fill="#E3E3E3"/>
  <polygon points="674.5,587.2 674.5,577.6 678.7,577.6 678.7,587.2" fill="#FFDFD7"/>
</g>
<g stroke="#262626" stroke-width="0.9000"  clip-path="url(#axis_clip)">
  <polygon points="171.0,587.2 171.0,275.5 175.2,275.5 175.2,587.2" fill="#EED7CA"/>
  <polygon points="297.9,587.2 297.9,272.7 302.2,272.7 302.2,587.2" fill="#D9D9D9"/>
  <polygon points="424.9,587.2 424.9,436.6 429.1,436.6 429.1,587.2" fill="#D2E6F8"/>
  <polygon points="551.8,587.2 551.8,561.7 556.0,561.7 556.0,587.2" fill="#DDD"/>
  <polygon points="678.7,587.2 678.7,577.0 683.0,577.0 683.0,587.2" fill="#FFD9D0"/>
</g>
<g stroke="#262626" stroke-width="0.9000"  clip-path="url(#axis_clip)">
  <polygon points="175.2,587.2 175.2,265.0 179.4,265.0 179.4,587.2" fill="#E8D0C1"/>
  <polygon points="302.2,587.2 302.2,261.0 306.4,261.0 306.4,587.2" fill="#D2D2D2"/>
  <polygon points="429.1,587.2 429.1,431.4 433.3,431.4 433.3,587.2" fill="#CBE2F5"/>
  <polygon points="556.0,587.2 556.0,560.6 560.2,560.6 560.2,587.2" fill="#D8D8D8"/>
  <polygon points="683.0,587.2 683.0,577.0 687.2,577.0 687.2,587.2" fill="#FFD3C8"/>
</g>
<g stroke="#262626" stroke-width="0.9000"  clip-path="url(#axis_clip)">
  <polygon points="179.4,587.2 179.4,244.9 183.7,244.9 183.7,587.2" fill="#E2C8B8"/>
  <polygon points="306.4,587.2 306.4,258.1 310.6,258.1 310.6,587.2" fill="#CACACA"/>
  <polygon points="433.3,587.2 433.3,428.0 437.5,428.0 437.5,587.2" fill="#C5DEF3"/>
  <polygon points="560.2,587.2 560.2,558.6 564.5,558.6 564.5,587.2" fill="#D2D2D2"/>
  <polygon points="687.2,587.2 687.2,576.9 691.4,576.9 691.4,587.2" fill="#FFCDC1"/>
</g>
<g stroke="#262626" stroke-width="0.9000"  clip-path="url(#axis_clip)">
  <polygon points="183.7,587.2 183.7,225.8 187.9,225.8 187.9,587.2" fill="#DDC1B0"/>
  <polygon points="310.6,587.2 310.6,255.1 314.8,255.1 314.8,587.2" fill="#C3C3C3"/>
  <polygon points="437.5,587.2 437.5,423.0 441.8,423.0 441.8,587.2" fill="#BFD9F0"/>
  <polygon points="564.5,587.2 564.5,556.0 568.7,556.0 568.7,587.2" fill="#CCC"/>
  <polygon points="691.4,587.2 691.4,576.9 695.6,576.9 695.6,587.2" fill="#FFC7BA"/>
</g>
<g stroke="#262626" stroke-width="0.9000"  clip-path="url(#axis_clip)">
  <polygon points="187.9,587.2 187.9,208.4 192.1,208.4 192.1,587.2" fill="#D7B9A7"/>
  <polygon points="314.8,587.2 314.8,254.0 319.1,254.0 319.1,587.2" fill="#BCBCBC"/>
  <polygon points="441.8,587.2 441.8,417.4 446.0,417.4 446.0,587.2" fill="#B9D5EE"/>
  <polygon points="568.7,587.2 568.7,553.7 572.9,553.7 572.9,587.2" fill="#C7C7C7"/>
  <polygon points="695.6,587.2 695.6,577.0 699.9,577.0 699.9,587.2" fill="#FFC1B2"/>
</g>
<g stroke="#262626" stroke-width="0.9000"  clip-path="url(#axis_clip)">
  <polygon points="192.1,587.2 192.1,196.1 196.4,196.1 196.4,587.2" fill="#D1B29F"/>
  <polygon points="319.1,587.2 319.1,255.3 323.3,255.3 323.3,587.2" fill="#B4B4B4"/>
  <polygon points="446.0,587.2 446.0,412.6 450.2,412.6 450.2,587.2" fill="#B3D1EB"/>
  <polygon points="572.9,587.2 572.9,553.3 577.2,553.3 577.2,587.2" fill="#C1C1C1"/>
  <polygon points="699.9,587.2 699.9,577.3 704.1,577.3 704.1,587.2" fill="#FFBBAB"/>
</g>
<g stroke="#262626" stroke-width="0.9000"  clip-path="url(#axis_clip)">
  <polygon points="196.4,587.2 196.4,201.1 200.6,201.1 200.6,587.2" fill="#CBAB98"/>
  <polygon points="323.3,587.2 323.3,262.5 327.5,262.5 327.5,587.2" fill="#ADADAD"/>
  <polygon points="450.2,587.2 450.2,416.9 454.5,416.9 454.5,587.2" fill="#ADCDE9"/>
  <polygon points="577.2,587.2 577.2,552.4 581.4,552.4 581.4,587.2" fill="#BBB"/>
  <polygon points="704.1,587.2 704.1,577.4 708.3,577.4 708.3,587.2" fill="#FFB5A4"/>
</g>
<g stroke="#262626" stroke-width="0.9000"  clip-path="url(#axis_clip)">
  <polygon points="200.6,587.2 200.6,174.2 204.8,174.2 204.8,587.2" fill="#C6A490"/>
  <polygon points="327.5,587.2 327.5,251.6 331.8,251.6 331.8,587.2" fill="#A5A5A5"/>
  <polygon points="454.5,587.2 454.5,403.7 458.7,403.7 458.7,587.2" fill="#A7C9E6"/>
  <polygon points="581.4,587.2 581.4,550.0 585.6,550.0 585.6,587.2" fill="#B5B5B5"/>
  <polygon points="708.3,587.2 708.3,577.1 712.6,577.1 712.6,587.2" fill="#FFB09C"/>
</g>
<g stroke="#262626" stroke-width="0.9000"  clip-path="url(#axis_clip)">
  <polygon points="204.8,587.2 204.8,150.8 209.1,150.8 209.1,587.2" fill="#C09D88"/>
  <polygon points="331.8,587.2 331.8,251.0 336.0,251.0 336.0,587.2" fill="#9E9E9E"/>
  <polygon points="458.7,587.2 458.7,398.4 462.9,398.4 462.9,587.2" fill="#A1C5E4"/>
  <polygon points="585.6,587.2 585.6,547.2 589.9,547.2 589.9,587.2" fill="#B0B0B0"/>
  <polygon points="712.6,587.2 712.6,576.5 716.8,576.5 716.8,587.2" fill="#FFAA95"/>
</g>
<g stroke="#262626" stroke-width="0.9000"  clip-path="url(#axis_clip)">
  <polygon points="209.1,587.2 209.1,145.9 213.3,145.9 213.3,587.2" fill="#BA9781"/>
  <polygon points="336.0,587.2 336.0,246.6 340.2,246.6 340.2,587.2" fill="#969696"/>
  <polygon points="462.9,587.2 462.9,394.6 467.2,394.6 467.2,587.2" fill="#9BC1E1"/>
  <polygon points="589.9,587.2 589.9,546.2 594.1,546.2 594.1,587.2" fill="#AAA"/>
  <polygon points="716.8,587.2 716.8,576.0 721.0,576.0 721.0,587.2" fill="#FFA48E"/>
</g>
<g stroke="#262626" stroke-width="0.9000"  clip-path="url(#axis_clip)">
  <polygon points="213.3,587.2 213.3,143.2 217.5,143.2 217.5,587.2" fill="#B4907A"/>
  <polygon points="340.2,587.2 340.2,244.0 344.5,244.0 344.5,587.2" fill="#8F8F8F"/>
  <polygon points="467.2,587.2 467.2,393.6 471.4,393.6 471.4,587.2" fill="#96BDDF"/>
  <polygon points="594.1,587.2 594.1,544.4 598.3,544.4 598.3,587.2" fill="#A4A4A4"/>
  <polygon points="721.0,587.2 721.0,575.8 725.3,575.8 725.3,587.2" fill="#FF9E86"/>
</g>
<g stroke="#262626" stroke-width="0.9000"  clip-path="url(#axis_clip)">
  <polygon points="217.5,587.2 217.5,142.7 221.8,142.7 221.8,587.2" fill="#AF8A73"/>
  <polygon points="344.5,587.2 344.5,242.9 348.7,242.9 348.7,587.2" fill="#878787"/>
  <polygon points="471.4,587.2 471.4,390.3 475.6,390.3 475.6,587.2" fill="#90B9DC"/>
  <polygon points="598.3,587.2 598.3,542.8 602.6,542.8 602.6,587.2" fill="#9E9E9E"/>
  <polygon points="725.3,587.2 725.3,575.7 729.5,575.7 729.5,587.2" fill="#FF987F"/>
</g>
<g stroke="#262626" stroke-width="0.9000"  clip-path="url(#axis_clip)">
  <polygon points="221.8,587.2 221.8,152.9 226.0,152.9 226.0,587.2" fill="#A9836C"/>
  <polygon points="348.7,587.2 348.7,235.1 352.9,235.1 352.9,587.2" fill="#7F7F7F"/>
  <polygon points="475.6,587.2 475.6,386.2 479.9,386.2 479.9,587.2" fill="#8BB5DA"/>
  <polygon points="602.6,587.2 602.6,544.4 606.8,544.4 606.8,587.2" fill="#989898"/>
  <polygon points="729.5,587.2 729.5,575.8 733.7,575.8 733.7,587.2" fill="#FF9278"/>
</g>
<g stroke="#262626" stroke-width="0.9000"  clip-path="url(#axis_clip)">
  <polygon points="226.0,587.2 226.0,162.8 230.2,162.8 230.2,587.2" fill="#A37D66"/>
  <polygon points="352.9,587.2 352.9,231.5 357.2,231.5 357.2,587.2" fill="#787878"/>
  <polygon points="479.9,587.2 479.9,380.7 484.1,380.7 484.1,587.2" fill="#85B2D7"/>
  <polygon points="606.8,587.2 606.8,543.3 611.0,543.3 611.0,587.2" fill="#929292"/>
  <polygon points="733.7,587.2 733.7,576.1 738.0,576.1 738.0,587.2" fill="#FF8C70"/>
</g>
<g stroke="#262626" stroke-width="0.9000"  clip-path="url(#axis_clip)">
  <polygon points="230.2,587.2 230.2,158.0 234.5,158.0 234.5,587.2" fill="#9D7760"/>
  <polygon points="357.2,587.2 357.2,225.2 361.4,225.2 361.4,587.2" fill="#707070"/>
  <polygon points="484.1,587.2 484.1,376.2 488.3,376.2 488.3,587.2" fill="#80AED5"/>
  <polygon points="611.0,587.2 611.0,542.6 615.3,542.6 615.3,587.2" fill="#8B8B8B"/>
  <polygon points="738.0,587.2 738.0,575.7 742.2,575.7 742.2,587.2" fill="#FF8669"/>
</g>
<g stroke="#262626" stroke-width="0.9000"  clip-path="url(#axis_clip)">
  <polygon points="234.5,587.2 234.5,151.0 238.7,151.0 238.7,587.2" fill="#98715A"/>
  <polygon points="361.4,587.2 361.4,223.8 365.6,223.8 365.6,587.2" fill="#686868"/>
  <polygon points="488.3,587.2 488.3,365.1 492.6,365.1 492.6,587.2" fill="#7BAAD2"/>
  <polygon points="615.3,587.2 615.3,540.8 619.5,540.8 619.5,587.2" fill="#858585"/>
  <polygon points="742.2,587.2 742.2,575.1 746.4,575.1 746.4,587.2" fill="#FF8062"/>
</g>
<g stroke="#262626" stroke-width="0.9000"  clip-path="url(#axis_clip)">
  <polygon points="238.7,587.2 238.7,152.2 242.9,152.2 242.9,587.2" fill="#926B54"/>
  <polygon points="365.6,587.2 365.6,220.5 369.8,220.5 369.8,587.2" fill="#606060"/>
  <polygon points="492.6,587.2 492.6,361.4 496.8,361.4 496.8,587.2" fill="#76A6D0"/>
  <polygon points="619.5,587.2 619.5,539.3 623.7,539.3 623.7,587.2" fill="#7F7F7F"/>
  <polygon points="746.4,587.2 746.4,574.3 750.6,574.3 750.6,587.2" fill="#FF7B5A"/>
</g>
<g stroke="#262626" stroke-width="0.9000"  clip-path="url(#axis_clip)">
  <polygon points="242.9,587.2 242.9,165.8 247.1,165.8 247.1,587.2" fill="#8C654E"/>
  <polygon points="369.8,587.2 369.8,264.3 374.1,264.3 374.1,587.2" fill="#585858"/>
  <polygon points="496.8,587.2 496.8,363.4 501.0,363.4 501.0,587.2" fill="#71A3CD"/>
  <polygon points="623.7,587.2 623.7,538.8 627.9,538.8 627.9,587.2" fill="#797979"/>
  <polygon points="750.6,587.2 750.6,575.4 754.9,575.4 754.9,587.2" fill="#FF7553"/>
</g>
<g stroke="#262626" stroke-width="0.9000"  clip-path="url(#axis_clip)">
  <polygon points="247.1,587.2 247.1,143.4 251.4,143.4 251.4,587.2" fill="#866048"/>
  <polygon points="374.1,587.2 374.1,246.1 378.3,246.1 378.3,587.2" fill="#505050"/>
  <polygon points="501.0,587.2 501.0,352.5 505.2,352.5 505.2,587.2" fill="#6C9FCB"/>
  <polygon points="627.9,587.2 627.9,537.0 632.2,537.0 632.2,587.2" fill="#737373"/>
  <polygon points="754.9,587.2 754.9,575.2 759.1,575.2 759.1,587.2" fill="#FF6F4C"/>
</g>
<g stroke="#262626" stroke-width="0.9000"  clip-path="url(#axis_clip)">
  <polygon points="251.4,587.2 251.4,136.4 255.6,136.4 255.6,587.2" fill="#815A43"/>
  <polygon points="378.3,587.2 378.3,235.3 382.5,235.3 382.5,587.2" fill="#484848"/>
  <polygon points="505.2,587.2 505.2,357.7 509.5,357.7 509.5,587.2" fill="#679CC8"/>
  <polygon points="632.2,587.2 632.2,539.6 636.4,539.6 636.4,587.2" fill="#6C6C6C"/>
  <polygon points="759.1,587.2 759.1,575.4 763.3,575.4 763.3,587.2" fill="#FF6944"/>
</g>
<g stroke="#262626" stroke-width="0.9000"  clip-path="url(#axis_clip)">
  <polygon points="255.6,587.2 255.6,127.1 259.8,127.1 259.8,587.2" fill="#7B553E"/>
  <polygon points="382.5,587.2 382.5,230.3 386.8,230.3 386.8,587.2" fill="#404040"/>
  <polygon points="509.5,587.2 509.5,355.2 513.7,355.2 513.7,587.2" fill="#6298C6"/>
  <polygon points="636.4,587.2 636.4,539.0 640.6,539.0 640.6,587.2" fill="#666"/>
  <polygon points="763.3,587.2 763.3,575.3 767.6,575.3 767.6,587.2" fill="#FF633D"/>
</g>
<text transform="translate(209.1,600.7)" dy="21.6" font-size="21.60" fill="#808080" stroke="none" text-anchor="middle">Coal</text>
<text transform="translate(336.0,600.7)" dy="21.6" font-size="21.60" fill="#808080" stroke="none" text-anchor="middle">Oil</text>
<text transform="translate(462.9,600.7)" dy="21.6" font-size="21.60" fill="#808080" stroke="none" text-anchor="middle">Gas</text>
<text transform="translate(589.9,600.7)" dy="21.6" font-size="21.60" fill="#808080" stroke="none" text-anchor="middle">Cement</text>
<text transform="translate(716.8,600.7)" dy="21.6" font-size="21.60" fill="#808080" stroke="none" text-anchor="middle">Flaring</text>
<polyline class="pl" points="234.5,120.4 234.5,113.6 259.8,113.6 259.8,120.4" stroke="#808080" stroke-width="0.90" stroke-opacity="1.00" fill="none" clip-path="url(#axis_clip)"/>
<text transform="translate(259.8,103.5)" dy="0.0" font-size="21.60" fill="#808080" stroke="none" text-anchor="end">+1.2%/yr</text>
<polyline class="pl" points="361.4,213.8 361.4,207.0 386.8,207.0 386.8,213.8" stroke="#808080" stroke-width="0.90" stroke-opacity="1.00" fill="none" clip-path="url(#axis_clip)"/>
<text transform="translate(386.8,196.9)" dy="0.0" font-size="21.60" fill="#808080" stroke="none" text-anchor="end">-0.5%/yr</text>
<polyline class="pl" points="488.3,345.8 488.3,339.0 513.7,339.0 513.7,345.8" stroke="#808080" stroke-width="0.90" stroke-opacity="1.00" fill="none" clip-path="url(#axis_clip)"/>
<text transform="translate(513.7,328.9)" dy="0.0" font-size="21.60" fill="#808080" stroke="none" text-anchor="end">+0.9%/yr</text>
<polyline class="pl" points="615.3,530.3 615.3,523.5 640.6,523.5 640.6,530.3" stroke="#808080" stroke-width="0.90" stroke-opacity="1.00" fill="none" clip-path="url(#axis_clip)"/>
<text transform="translate(640.6,513.4)" dy="0.0" font-size="21.60" fill="#808080" stroke="none" text-anchor="end">+0.6%/yr</text>
<polyline class="pl" points="742.2,567.5 742.2,560.8 767.6,560.8 767.6,567.5" stroke="#808080" stroke-width="0.90" stroke-opacity="1.00" fill="none" clip-path="url(#axis_clip)"/>
<text transform="translate(767.6,550.7)" dy="0.0" font-size="21.60" fill="#808080" stroke="none" text-anchor="end">-0.9%/yr</text>
<text transform="translate(145.6,47.2)" dy="0.0" font-size="27.00" fill="#808080" stroke="none">Global Annual Fossil CO<tspan dy="0.2em"><tspan style="font-size:70%">2</tspan></tspan><tspan dy="-0.2em"> </tspan>Emissions, 2000-23</text>
<text transform="translate(130.0,140.9)" dy="8.1" font-size="27.00" fill="#808080" stroke="none" text-anchor="end">CO<tspan dy="0.2em"><tspan style="font-size:70%">2</tspan></tspan><tspan dy="-0.2em"></tspan></text>
<text transform="translate(145.6,54.0)" dy="18.0" font-size="18.00" fill="#808080" stroke="none" xml:space="preserve"> Annual growth rates from 2018-2023.</text>
<text transform="translate(447.7,54.0)" dy="18.0" font-size="18.00" fill="#808080" stroke="none" xml:space="preserve"> Includes projection for 2023.</text>
<text transform="translate(161.9,666.1)" font-size="19.80" font-family="Helvetica" fill="#BFBFBF" stroke="none" xml:space="preserve">Global Carbon Project</text>
<g>
  <rect x="123.0" y="651.4" width="34" height="17" fill="#FFF" stroke="none"/>
  <g transform="translate(124.0,652.4) scale(0.24)">
  <g><circle fill="#FFF" cx="37.79" cy="28.5" r="28.84"/>
     <circle fill="none" cx="37.79" cy="28.5" r="28.84" stroke="#BFBFBF" stroke-width="5.5"/>
     <path fill="#BFBFBF" d="M37.16,23.19 l-4.29,2.23c-0.458-0.951-1.02-1.62-1.69-2c-0.667-0.38-1.29-0.571-1.86-0.571c-2.86,0-4.29,1.89-4.29,5.66 c0,1.71,0.36,3.08,1.09,4.11c0.724,1.03,1.79,1.54,3.2,1.54c1.87,0,3.18-0.915,3.94-2.74l3.94,2 c-0.838,1.56-2,2.79-3.49,3.69c-1.48,0.896-3.12,1.34-4.91,1.34c-2.86,0-5.16-0.875-6.92-2.63 c-1.75-1.75-2.63-4.19-2.63-7.31c0-3.05,0.886-5.47,2.66-7.26c1.77-1.79,4.01-2.69,6.72-2.69 C32.6,18.56,35.44,20.1,37.16,23.19z
              M55.61,23.19l-4.23,2.23c-0.457-0.951-1.02-1.62-1.69-2 c-0.668-0.38-1.31-0.571-1.91-0.571c-2.86,0-4.29,1.89-4.29,5.66c0,1.71,0.363,3.08,1.09,4.11 c0.723,1.03,1.79,1.54,3.2,1.54c1.87,0,3.18-0.915,3.94-2.74l4,2c-0.875,1.56-2.06,2.79-3.54,3.69 c-1.49,0.9-3.11,1.34-4.86,1.34c-2.9,0-5.21-0.875-6.94-2.63c-1.74-1.75-2.6-4.19-2.6-7.31 c0-3.05,0.885-5.47,2.66-7.26c1.77-1.79,4.01-2.69,6.71-2.69C51.12,18.56,53.944,20.1,55.61,23.19z"/>
  </g></g>
  <g transform="translate(140.2,652.4) scale(0.24)">
  <g><circle fill="#FFF" cx="37.79" cy="28.5" r="28.84"/>
     <circle fill="none" cx="37.79" cy="28.5" r="28.84" stroke="#BFBFBF" stroke-width="5.5"/>
     <path fill="#BFBFBF" d="M46.129,20.557v13.085h-3.656v15.542h-9.944V33.643h-3.656V20.557 c0-0.572,0.2-1.057,0.599-1.457c0.401-0.399,0.887-0.6,1.457-0.6h13.144c0.533,0,1.01,0.2,1.428,0.6 C45.918,19.5,46.129,19.986,46.129,20.557z
              M33.042,12.329c0-3.008,1.485-4.514,4.458-4.514s4.457,1.504,4.457,4.514 c0,2.971-1.486,4.457-4.457,4.457S33.042,15.3,33.042,12.329z"/>
  </g></g>
</g>
</g>
</svg>
