<svg version="1.1" xmlns="http://www.w3.org/2000/svg" xmlns:xlink="http://www.w3.org/1999/xlink" width="100%" height="100%" viewBox="0 0 1200.000 674.916">
<title>Annual Fossil CO2 Emissions in India</title>
<style type="text/css">
  #main {font-family:Helvetica,Arial,sans-serif; font-size:27.00px;
         fill-opacity:1; fill:#000000; stroke:none; stroke-linejoin:round; stroke-linecap:round; stroke-width:1.00;}
  .marker {stroke-opacity:0;fill-opacity:0;}
  .marker:hover {stroke-opacity:0.5; fill-opacity:1;}
  .ticklabel {font-size:27.00px;fill:#808080;stroke:none;font-family:Helvetica}
  .ytl {text-anchor:end;}
  .dp1 {pointer-events:none;font-size:70%;text-anchor:middle;fill:#000000;}
  .dp2 {pointer-events:none;font-size:70%;text-anchor:middle;fill:#FFFFFF;}
  .numtip {pointer-events:none;}
  .cc {opacity:0.25;}
.dl_fe {background-color:#FDFFDF;display:flex;margin:auto;align-items:center}
.dl_fe_p {font-size:20px;text-align:center;margin:3px}
.dl_el {display:none;pointer-events:none;}
.cc:hover + .dl_el {display:block;}
text:hover + .dl_el {display:block;}
</style>
<defs>
  <clipPath id="axis_clip"><rect x="145.8" y="54.2" width="761.2" height="532.8" /></clipPath>
  <path id="line_x" d="M 145.600,0 h 761.600" stroke="#262626" stroke-opacity="0.15" stroke-width="1.00"/>
  <path id="tick_y" d="M 145.600,0 h -6.000" stroke="#808080" stroke-width="0.90"/>
  <path id="tick_x" d="M 0,587.177 v 6.000" stroke="#808080" stroke-width="0.90"/>
</defs>
<g id="main">
<use xlink:href="#line_x" transform="translate(0,587.2)"/>
<use xlink:href="#line_x" transform="translate(0,480.5)"/>
<use xlink:href="#line_x" transform="translate(0,373.9)"/>
<use xlink:href="#line_x" transform="translate(0,267.3)"/>
<use xlink:href="#line_x" transform="translate(0,160.6)"/>
<use xlink:href="#line_x" transform="translate(0,54.0)"/>
<use xlink:href="#tick_y" transform="translate(0,587.2)"/>
<use xlink:href="#tick_y" transform="translate(0,480.5)"/>
<use xlink:href="#tick_y" transform="translate(0,373.9)"/>
<use xlink:href="#tick_y" transform="translate(0,267.3)"/>
<use xlink:href="#tick_y" transform="translate(0,160.6)"/>
<use xlink:href="#tick_y" transform="translate(0,54.0)"/>
<use xlink:href="#tick_x" transform="translate(162.5,0)"/>
<use xlink:href="#tick_x" transform="translate(275.4,0)"/>
<use xlink:href="#tick_x" transform="translate(388.2,0)"/>
<use xlink:href="#tick_x" transform="translate(501.0,0)"/>
<use xlink:href="#tick_x" transform="translate(613.8,0)"/>
<use xlink:href="#tick_x" transform="translate(726.7,0)"/>
<use xlink:href="#tick_x" transform="translate(873.4,0)"/>
<polyline points="145.6,53.993 145.6,587.177 907.2,587.177" stroke="#808080" stroke-width="0.90" fill="none"/>
<text class="ticklabel xtl" transform="translate(162.5,629.0)" text-anchor="middle">1960</text>
<text class="ticklabel xtl" transform="translate(275.4,629.0)" text-anchor="middle">1970</text>
<text class="ticklabel xtl" transform="translate(388.2,629.0)" text-anchor="middle">1980</text>
<text class="ticklabel xtl" transform="translate(501.0,629.0)" text-anchor="middle">1990</text>
<text class="ticklabel xtl" transform="translate(613.8,629.0)" text-anchor="middle">2000</text>
<text class="ticklabel xtl" transform="translate(726.7,629.0)" text-anchor="middle">2010</text>
<text class="ticklabel xtl" transform="translate(873.4,629.0)" text-anchor="middle">2023</text>
<text class="ticklabel ytl" transform="translate(128.8,595.3)">0</text>
<text class="ticklabel ytl" transform="translate(128.8,488.6)">500</text>
<text class="ticklabel ytl" transform="translate(128.8,382.0)">1000</text>
<text class="ticklabel ytl" transform="translate(128.8,275.4)">1500</text>
<text class="ticklabel ytl" transform="translate(128.8,168.7)">2000</text>
<text class="ticklabel ytl" transform="translate(128.8,62.1)">2500 Mt</text>
<polyline class="pl" points="862.1,552.1 873.4,549.1" stroke="#666" stroke-width="5.40" stroke-opacity="1.00" fill="none" clip-path="url(#axis_clip)"/>
<polyline class="pl" points="862.1,560.7 873.4,559.2" stroke="#6298C6" stroke-width="5.40" stroke-opacity="1.00" fill="none" clip-path="url(#axis_clip)"/>
<polyline class="pl" points="862.1,441.3 873.4,433.5" stroke="#404040" stroke-width="5.40" stroke-opacity="1.00" fill="none" clip-path="url(#axis_clip)"/>
<polyline class="pl" points="862.1,191.7 873.4,154.3" stroke="#7B553E" stroke-width="5.40" stroke-opacity="1.00" fill="none" clip-path="url(#axis_clip)"/>
<polyline class="pl" points="140.0,571.0 151.2,570.2 162.5,568.4 173.8,566.9 185.1,565.2 196.4,563.6 207.7,564.6 218.9,562.3 230.2,562.2 241.5,561.8 252.8,560.8 264.1,560.9 275.4,560.8 286.6,560.1 297.9,558.5 309.2,557.8 320.5,556.1 331.8,552.8 343.1,551.2 354.3,549.3 365.6,549.9 376.9,548.7 388.2,545.1 399.5,542.3 410.7,541.7 422.0,537.6 433.3,537.8 444.6,533.2 455.9,528.9 467.2,524.9 478.4,519.5 489.7,514.7 501.0,509.0 512.3,503.4 523.6,499.4 534.9,494.8 546.1,490.0 557.4,486.6 568.7,479.6 580.0,474.6 591.3,475.4 602.6,467.6 613.8,465.0 625.1,463.0 636.4,459.5 647.7,453.7 659.0,444.3 670.3,433.3 681.5,422.2 692.8,407.5 704.1,392.9 715.4,377.3 726.7,370.5 738.0,358.0 749.2,329.9 760.5,315.0 771.8,287.1 783.1,278.0 794.4,267.4 805.7,256.3 816.9,231.4 828.2,232.7 839.5,254.1 850.8,210.3 862.1,191.7" stroke="#7B553E" stroke-width="5.40" stroke-opacity="1.00" fill="none" clip-path="url(#axis_clip)"/>
<g class="pl" fill="#FFF" stroke="#7B553E" stroke-width="0.900" clip-path="url(#axis_clip)">
  <circle cx="151.2" cy="570.2" r="2.2"/>
  <circle cx="173.8" cy="566.9" r="2.2"/>
  <circle cx="185.1" cy="565.2" r="2.2"/>
  <circle cx="196.4" cy="563.6" r="2.2"/>
  <circle cx="207.7" cy="564.6" r="2.2"/>
  <circle cx="218.9" cy="562.3" r="2.2"/>
  <circle cx="230.2" cy="562.2" r="2.2"/>
  <circle cx="241.5" cy="561.8" r="2.2"/>
  <circle cx="252.8" cy="560.8" r="2.2"/>
  <circle cx="264.1" cy="560.9" r="2.2"/>
  <circle cx="286.6" cy="560.1" r="2.2"/>
  <circle cx="297.9" cy="558.5" r="2.2"/>
  <circle cx="309.2" cy="557.8" r="2.2"/>
  <circle cx="320.5" cy="556.1" r="2.2"/>
  <circle cx="331.8" cy="552.8" r="2.2"/>
  <circle cx="343.1" cy="551.2" r="2.2"/>
  <circle cx="354.3" cy="549.3" r="2.2"/>
  <circle cx="365.6" cy="549.9" r="2.2"/>
  <circle cx="376.9" cy="548.7" r="2.2"/>
  <circle cx="399.5" cy="542.3" r="2.2"/>
  <circle cx="410.7" cy="541.7" r="2.2"/>
  <circle cx="422.0" cy="537.6" r="2.2"/>
  <circle cx="433.3" cy="537.8" r="2.2"/>
  <circle cx="444.6" cy="533.2" r="2.2"/>
  <circle cx="455.9" cy="528.9" r="2.2"/>
  <circle cx="467.2" cy="524.9" r="2.2"/>
  <circle cx="478.4" cy="519.5" r="2.2"/>
  <circle cx="489.7" cy="514.7" r="2.2"/>
  <circle cx="512.3" cy="503.4" r="2.2"/>
  <circle cx="523.6" cy="499.4" r="2.2"/>
  <circle cx="534.9" cy="494.8" r="2.2"/>
  <circle cx="546.1" cy="490.0" r="2.2"/>
  <circle cx="557.4" cy="486.6" r="2.2"/>
  <circle cx="568.7" cy="479.6" r="2.2"/>
  <circle cx="580.0" cy="474.6" r="2.2"/>
  <circle cx="591.3" cy="475.4" r="2.2"/>
  <circle cx="602.6" cy="467.6" r="2.2"/>
  <circle cx="625.1" cy="463.0" r="2.2"/>
  <circle cx="636.4" cy="459.5" r="2.2"/>
  <circle cx="647.7" cy="453.7" r="2.2"/>
  <circle cx="659.0" cy="444.3" r="2.2"/>
  <circle cx="670.3" cy="433.3" r="2.2"/>
  <circle cx="681.5" cy="422.2" r="2.2"/>
  <circle cx="692.8" cy="407.5" r="2.2"/>
  <circle cx="704.1" cy="392.9" r="2.2"/>
  <circle cx="715.4" cy="377.3" r="2.2"/>
  <circle cx="738.0" cy="358.0" r="2.2"/>
  <circle cx="749.2" cy="329.9" r="2.2"/>
  <circle cx="760.5" cy="315.0" r="2.2"/>
  <circle cx="771.8" cy="287.1" r="2.2"/>
  <circle cx="783.1" cy="278.0" r="2.2"/>
  <circle cx="794.4" cy="267.4" r="2.2"/>
  <circle cx="805.7" cy="256.3" r="2.2"/>
  <circle cx="816.9" cy="231.4" r="2.2"/>
  <circle cx="828.2" cy="232.7" r="2.2"/>
  <circle cx="850.8" cy="210.3" r="2.2"/>
  <circle cx="862.1" cy="191.7" r="2.2"/>
</g>
<g class="pl" fill="#FFF" stroke="#7B553E" stroke-width="0.900" clip-path="url(#axis_clip)">
  <circle cx="162.5" cy="568.4" r="5.4"/>
  <circle cx="275.4" cy="560.8" r="5.4"/>
  <circle cx="388.2" cy="545.1" r="5.4"/>
  <circle cx="501.0" cy="509.0" r="5.4"/>
  <circle cx="613.8" cy="465.0" r="5.4"/>
  <circle cx="726.7" cy="370.5" r="5.4"/>
  <circle cx="839.5" cy="254.1" r="5.4"/>
</g>
<g class="pl" fill="#F00" stroke="#000" stroke-width="0.900" clip-path="url(#axis_clip)">
  <circle cx="873.4" cy="154.3" r="5.4"/>
</g>
<polyline class="pl" points="140.0,583.6 151.2,583.3 162.5,583.0 173.8,582.6 185.1,581.9 196.4,581.4 207.7,581.2 218.9,580.6 230.2,579.6 241.5,580.2 252.8,578.2 264.1,577.5 275.4,576.7 286.6,575.4 297.9,574.6 309.2,574.0 320.5,574.2 331.8,574.0 343.1,573.6 354.3,572.6 365.6,571.1 376.9,569.5 388.2,569.4 399.5,568.0 410.7,567.0 422.0,566.0 433.3,564.5 444.6,562.3 455.9,561.2 467.2,559.9 478.4,558.7 489.7,555.0 501.0,553.4 512.3,551.7 523.6,547.1 534.9,547.3 546.1,544.7 557.4,541.0 568.7,535.3 580.0,535.1 591.3,531.1 602.6,523.0 613.8,520.5 625.1,519.6 636.4,517.8 647.7,516.7 659.0,512.9 670.3,512.0 681.5,508.3 692.8,503.6 704.1,499.0 715.4,494.9 726.7,493.4 738.0,489.0 749.2,482.7 760.5,481.2 771.8,477.9 783.1,468.6 794.4,456.1 805.7,452.3 816.9,447.0 828.2,443.0 839.5,457.9 850.8,454.5 862.1,441.3" stroke="#404040" stroke-width="5.40" stroke-opacity="1.00" fill="none" clip-path="url(#axis_clip)"/>
<g class="pl" fill="#FFF" stroke="#404040" stroke-width="0.900" clip-path="url(#axis_clip)">
  <circle cx="151.2" cy="583.3" r="2.2"/>
  <circle cx="173.8" cy="582.6" r="2.2"/>
  <circle cx="185.1" cy="581.9" r="2.2"/>
  <circle cx="196.4" cy="581.4" r="2.2"/>
  <circle cx="207.7" cy="581.2" r="2.2"/>
  <circle cx="218.9" cy="580.6" r="2.2"/>
  <circle cx="230.2" cy="579.6" r="2.2"/>
  <circle cx="241.5" cy="580.2" r="2.2"/>
  <circle cx="252.8" cy="578.2" r="2.2"/>
  <circle cx="264.1" cy="577.5" r="2.2"/>
  <circle cx="286.6" cy="575.4" r="2.2"/>
  <circle cx="297.9" cy="574.6" r="2.2"/>
  <circle cx="309.2" cy="574.0" r="2.2"/>
  <circle cx="320.5" cy="574.2" r="2.2"/>
  <circle cx="331.8" cy="574.0" r="2.2"/>
  <circle cx="343.1" cy="573.6" r="2.2"/>
  <circle cx="354.3" cy="572.6" r="2.2"/>
  <circle cx="365.6" cy="571.1" r="2.2"/>
  <circle cx="376.9" cy="569.5" r="2.2"/>
  <circle cx="399.5" cy="568.0" r="2.2"/>
  <circle cx="410.7" cy="567.0" r="2.2"/>
  <circle cx="422.0" cy="566.0" r="2.2"/>
  <circle cx="433.3" cy="564.5" r="2.2"/>
  <circle cx="444.6" cy="562.3" r="2.2"/>
  <circle cx="455.9" cy="561.2" r="2.2"/>
  <circle cx="467.2" cy="559.9" r="2.2"/>
  <circle cx="478.4" cy="558.7" r="2.2"/>
  <circle cx="489.7" cy="555.0" r="2.2"/>
  <circle cx="512.3" cy="551.7" r="2.2"/>
  <circle cx="523.6" cy="547.1" r="2.2"/>
  <circle cx="534.9" cy="547.3" r="2.2"/>
  <circle cx="546.1" cy="544.7" r="2.2"/>
  <circle cx="557.4" cy="541.0" r="2.2"/>
  <circle cx="568.7" cy="535.3" r="2.2"/>
  <circle cx="580.0" cy="535.1" r="2.2"/>
  <circle cx="591.3" cy="531.1" r="2.2"/>
  <circle cx="602.6" cy="523.0" r="2.2"/>
  <circle cx="625.1" cy="519.6" r="2.2"/>
  <circle cx="636.4" cy="517.8" r="2.2"/>
  <circle cx="647.7" cy="516.7" r="2.2"/>
  <circle cx="659.0" cy="512.9" r="2.2"/>
  <circle cx="670.3" cy="512.0" r="2.2"/>
  <circle cx="681.5" cy="508.3" r="2.2"/>
  <circle cx="692.8" cy="503.6" r="2.2"/>
  <circle cx="704.1" cy="499.0" r="2.2"/>
  <circle cx="715.4" cy="494.9" r="2.2"/>
  <circle cx="738.0" cy="489.0" r="2.2"/>
  <circle cx="749.2" cy="482.7" r="2.2"/>
  <circle cx="760.5" cy="481.2" r="2.2"/>
  <circle cx="771.8" cy="477.9" r="2.2"/>
  <circle cx="783.1" cy="468.6" r="2.2"/>
  <circle cx="794.4" cy="456.1" r="2.2"/>
  <circle cx="805.7" cy="452.3" r="2.2"/>
  <circle cx="816.9" cy="447.0" r="2.2"/>
  <circle cx="828.2" cy="443.0" r="2.2"/>
  <circle cx="850.8" cy="454.5" r="2.2"/>
  <circle cx="862.1" cy="441.3" r="2.2"/>
</g>
<g class="pl" fill="#FFF" stroke="#404040" stroke-width="0.900" clip-path="url(#axis_clip)">
  <circle cx="162.5" cy="583.0" r="5.4"/>
  <circle cx="275.4" cy="576.7" r="5.4"/>
  <circle cx="388.2" cy="569.4" r="5.4"/>
  <circle cx="501.0" cy="553.4" r="5.4"/>
  <circle cx="613.8" cy="520.5" r="5.4"/>
  <circle cx="726.7" cy="493.4" r="5.4"/>
  <circle cx="839.5" cy="457.9" r="5.4"/>
</g>
<g class="pl" fill="#F00" stroke="#000" stroke-width="0.900" clip-path="url(#axis_clip)">
  <circle cx="873.4" cy="433.5" r="5.4"/>
</g>
<polyline class="pl" points="140.0,587.2 151.2,587.2 162.5,587.2 173.8,587.2 185.1,587.2 196.4,587.2 207.7,587.2 218.9,587.1 230.2,587.1 241.5,587.1 252.8,587.0 264.1,587.0 275.4,587.0 286.6,586.9 297.9,586.9 309.2,586.9 320.5,586.9 331.8,586.8 343.1,586.7 354.3,586.6 365.6,586.6 376.9,586.5 388.2,586.6 399.5,586.6 410.7,586.2 422.0,586.1 433.3,585.9 444.6,585.6 455.9,585.0 467.2,584.5 478.4,583.9 489.7,583.2 501.0,582.7 512.3,582.2 523.6,581.4 534.9,581.4 546.1,581.0 557.4,578.8 568.7,578.7 580.0,577.4 591.3,577.0 602.6,578.2 613.8,577.8 625.1,577.9 636.4,577.1 647.7,576.5 659.0,576.6 670.3,576.4 681.5,569.6 692.8,568.4 704.1,567.9 715.4,563.2 726.7,558.6 738.0,558.1 749.2,560.4 760.5,563.6 771.8,563.8 783.1,564.4 794.4,562.9 805.7,561.8 816.9,560.3 828.2,559.7 839.5,559.9 850.8,558.8 862.1,560.7" stroke="#6298C6" stroke-width="5.40" stroke-opacity="1.00" fill="none" clip-path="url(#axis_clip)"/>
<g class="pl" fill="#FFF" stroke="#6298C6" stroke-width="0.900" clip-path="url(#axis_clip)">
  <circle cx="151.2" cy="587.2" r="2.2"/>
  <circle cx="173.8" cy="587.2" r="2.2"/>
  <circle cx="185.1" cy="587.2" r="2.2"/>
  <circle cx="196.4" cy="587.2" r="2.2"/>
  <circle cx="207.7" cy="587.2" r="2.2"/>
  <circle cx="218.9" cy="587.1" r="2.2"/>
  <circle cx="230.2" cy="587.1" r="2.2"/>
  <circle cx="241.5" cy="587.1" r="2.2"/>
  <circle cx="252.8" cy="587.0" r="2.2"/>
  <circle cx="264.1" cy="587.0" r="2.2"/>
  <circle cx="286.6" cy="586.9" r="2.2"/>
  <circle cx="297.9" cy="586.9" r="2.2"/>
  <circle cx="309.2" cy="586.9" r="2.2"/>
  <circle cx="320.5" cy="586.9" r="2.2"/>
  <circle cx="331.8" cy="586.8" r="2.2"/>
  <circle cx="343.1" cy="586.7" r="2.2"/>
  <circle cx="354.3" cy="586.6" r="2.2"/>
  <circle cx="365.6" cy="586.6" r="2.2"/>
  <circle cx="376.9" cy="586.5" r="2.2"/>
  <circle cx="399.5" cy="586.6" r="2.2"/>
  <circle cx="410.7" cy="586.2" r="2.2"/>
  <circle cx="422.0" cy="586.1" r="2.2"/>
  <circle cx="433.3" cy="585.9" r="2.2"/>
  <circle cx="444.6" cy="585.6" r="2.2"/>
  <circle cx="455.9" cy="585.0" r="2.2"/>
  <circle cx="467.2" cy="584.5" r="2.2"/>
  <circle cx="478.4" cy="583.9" r="2.2"/>
  <circle cx="489.7" cy="583.2" r="2.2"/>
  <circle cx="512.3" cy="582.2" r="2.2"/>
  <circle cx="523.6" cy="581.4" r="2.2"/>
  <circle cx="534.9" cy="581.4" r="2.2"/>
  <circle cx="546.1" cy="581.0" r="2.2"/>
  <circle cx="557.4" cy="578.8" r="2.2"/>
  <circle cx="568.7" cy="578.7" r="2.2"/>
  <circle cx="580.0" cy="577.4" r="2.2"/>
  <circle cx="591.3" cy="577.0" r="2.2"/>
  <circle cx="602.6" cy="578.2" r="2.2"/>
  <circle cx="625.1" cy="577.9" r="2.2"/>
  <circle cx="636.4" cy="577.1" r="2.2"/>
  <circle cx="647.7" cy="576.5" r="2.2"/>
  <circle cx="659.0" cy="576.6" r="2.2"/>
  <circle cx="670.3" cy="576.4" r="2.2"/>
  <circle cx="681.5" cy="569.6" r="2.2"/>
  <circle cx="692.8" cy="568.4" r="2.2"/>
  <circle cx="704.1" cy="567.9" r="2.2"/>
  <circle cx="715.4" cy="563.2" r="2.2"/>
  <circle cx="738.0" cy="558.1" r="2.2"/>
  <circle cx="749.2" cy="560.4" r="2.2"/>
  <circle cx="760.5" cy="563.6" r="2.2"/>
  <circle cx="771.8" cy="563.8" r="2.2"/>
  <circle cx="783.1" cy="564.4" r="2.2"/>
  <circle cx="794.4" cy="562.9" r="2.2"/>
  <circle cx="805.7" cy="561.8" r="2.2"/>
  <circle cx="816.9" cy="560.3" r="2.2"/>
  <circle cx="828.2" cy="559.7" r="2.2"/>
  <circle cx="850.8" cy="558.8" r="2.2"/>
  <circle cx="862.1" cy="560.7" r="2.2"/>
</g>
<g class="pl" fill="#FFF" stroke="#6298C6" stroke-width="0.900" clip-path="url(#axis_clip)">
  <circle cx="162.5" cy="587.2" r="5.4"/>
  <circle cx="275.4" cy="587.0" r="5.4"/>
  <circle cx="388.2" cy="586.6" r="5.4"/>
  <circle cx="501.0" cy="582.7" r="5.4"/>
  <circle cx="613.8" cy="577.8" r="5.4"/>
  <circle cx="726.7" cy="558.6" r="5.4"/>
  <circle cx="839.5" cy="559.9" r="5.4"/>
</g>
<g class="pl" fill="#F00" stroke="#000" stroke-width="0.900" clip-path="url(#axis_clip)">
  <circle cx="873.4" cy="559.2" r="5.4"/>
</g>
<polyline class="pl" points="140.0,586.5 151.2,586.4 162.5,586.3 173.8,586.3 185.1,586.2 196.4,586.2 207.7,586.1 218.9,586.0 230.2,586.0 241.5,585.9 252.8,585.9 264.1,585.8 275.4,585.8 286.6,585.7 297.9,585.6 309.2,585.7 320.5,585.8 331.8,585.6 343.1,585.4 354.3,585.4 365.6,585.4 376.9,585.5 388.2,585.6 399.5,585.3 410.7,585.1 422.0,584.8 433.3,584.5 444.6,584.1 455.9,583.8 467.2,583.7 478.4,583.3 489.7,582.7 501.0,582.4 512.3,582.0 523.6,581.8 534.9,581.5 546.1,581.1 557.4,580.5 568.7,579.9 580.0,579.2 591.3,578.9 602.6,577.7 613.8,577.4 625.1,577.2 636.4,576.7 647.7,576.3 659.0,575.3 670.3,574.4 681.5,573.3 692.8,572.6 704.1,571.6 715.4,569.8 726.7,568.8 738.0,567.7 749.2,565.8 760.5,564.2 771.8,562.5 783.1,562.1 794.4,560.9 805.7,561.4 816.9,557.5 828.2,556.5 839.5,561.0 850.8,555.4 862.1,552.1" stroke="#666" stroke-width="5.40" stroke-opacity="1.00" fill="none" clip-path="url(#axis_clip)"/>
<g class="pl" fill="#FFF" stroke="#666" stroke-width="0.900" clip-path="url(#axis_clip)">
  <circle cx="151.2" cy="586.4" r="2.2"/>
  <circle cx="173.8" cy="586.3" r="2.2"/>
  <circle cx="185.1" cy="586.2" r="2.2"/>
  <circle cx="196.4" cy="586.2" r="2.2"/>
  <circle cx="207.7" cy="586.1" r="2.2"/>
  <circle cx="218.9" cy="586.0" r="2.2"/>
  <circle cx="230.2" cy="586.0" r="2.2"/>
  <circle cx="241.5" cy="585.9" r="2.2"/>
  <circle cx="252.8" cy="585.9" r="2.2"/>
  <circle cx="264.1" cy="585.8" r="2.2"/>
  <circle cx="286.6" cy="585.7" r="2.2"/>
  <circle cx="297.9" cy="585.6" r="2.2"/>
  <circle cx="309.2" cy="585.7" r="2.2"/>
  <circle cx="320.5" cy="585.8" r="2.2"/>
  <circle cx="331.8" cy="585.6" r="2.2"/>
  <circle cx="343.1" cy="585.4" r="2.2"/>
  <circle cx="354.3" cy="585.4" r="2.2"/>
  <circle cx="365.6" cy="585.4" r="2.2"/>
  <circle cx="376.9" cy="585.5" r="2.2"/>
  <circle cx="399.5" cy="585.3" r="2.2"/>
  <circle cx="410.7" cy="585.1" r="2.2"/>
  <circle cx="422.0" cy="584.8" r="2.2"/>
  <circle cx="433.3" cy="584.5" r="2.2"/>
  <circle cx="444.6" cy="584.1" r="2.2"/>
  <circle cx="455.9" cy="583.8" r="2.2"/>
  <circle cx="467.2" cy="583.7" r="2.2"/>
  <circle cx="478.4" cy="583.3" r="2.2"/>
  <circle cx="489.7" cy="582.7" r="2.2"/>
  <circle cx="512.3" cy="582.0" r="2.2"/>
  <circle cx="523.6" cy="581.8" r="2.2"/>
  <circle cx="534.9" cy="581.5" r="2.2"/>
  <circle cx="546.1" cy="581.1" r="2.2"/>
  <circle cx="557.4" cy="580.5" r="2.2"/>
  <circle cx="568.7" cy="579.9" r="2.2"/>
  <circle cx="580.0" cy="579.2" r="2.2"/>
  <circle cx="591.3" cy="578.9" r="2.2"/>
  <circle cx="602.6" cy="577.7" r="2.2"/>
  <circle cx="625.1" cy="577.2" r="2.2"/>
  <circle cx="636.4" cy="576.7" r="2.2"/>
  <circle cx="647.7" cy="576.3" r="2.2"/>
  <circle cx="659.0" cy="575.3" r="2.2"/>
  <circle cx="670.3" cy="574.4" r="2.2"/>
  <circle cx="681.5" cy="573.3" r="2.2"/>
  <circle cx="692.8" cy="572.6" r="2.2"/>
  <circle cx="704.1" cy="571.6" r="2.2"/>
  <circle cx="715.4" cy="569.8" r="2.2"/>
  <circle cx="738.0" cy="567.7" r="2.2"/>
  <circle cx="749.2" cy="565.8" r="2.2"/>
  <circle cx="760.5" cy="564.2" r="2.2"/>
  <circle cx="771.8" cy="562.5" r="2.2"/>
  <circle cx="783.1" cy="562.1" r="2.2"/>
  <circle cx="794.4" cy="560.9" r="2.2"/>
  <circle cx="805.7" cy="561.4" r="2.2"/>
  <circle cx="816.9" cy="557.5" r="2.2"/>
  <circle cx="828.2" cy="556.5" r="2.2"/>
  <circle cx="850.8" cy="555.4" r="2.2"/>
  <circle cx="862.1" cy="552.1" r="2.2"/>
</g>
<g class="pl" fill="#FFF" stroke="#666" stroke-width="0.900" clip-path="url(#axis_clip)">
  <circle cx="162.5" cy="586.3" r="5.4"/>
  <circle cx="275.4" cy="585.8" r="5.4"/>
  <circle cx="388.2" cy="585.6" r="5.4"/>
  <circle cx="501.0" cy="582.4" r="5.4"/>
  <circle cx="613.8" cy="577.4" r="5.4"/>
  <circle cx="726.7" cy="568.8" r="5.4"/>
  <circle cx="839.5" cy="561.0" r="5.4"/>
</g>
<g class="pl" fill="#F00" stroke="#000" stroke-width="0.900" clip-path="url(#axis_clip)">
  <circle cx="873.4" cy="549.1" r="5.4"/>
</g>
<text transform="translate(925.2,154.3)" dy="8.1" font-size="27.00" fill="#7B553E" stroke="none">Coal 2029.7</text>
<text transform="translate(925.2,433.5)" dy="8.1" font-size="27.00" fill="#404040" stroke="none">Oil 720.4</text>
<text transform="translate(925.2,567.1)" dy="8.1" font-size="27.00" fill="#6298C6" stroke="none">Gas 131.0</text>
<text transform="translate(925.2,541.2)" dy="8.1" font-size="27.00" fill="#666" stroke="none">Cement 178.7</text>
<g stroke="none" stroke-width="0.9000"  >
  <polygon points="925.2,184.0 934.8,170.5 944.4,184.0 925.2,184.0" fill="#7B553E"/>
</g>
<text transform="translate(949.2,179.3)" dy="5.4" font-size="18.00" fill="#7B553E" stroke="none">9.5%</text>
<g stroke="none" stroke-width="0.9000"  >
  <polygon points="925.2,463.2 934.8,449.7 944.4,463.2 925.2,463.2" fill="#404040"/>
</g>
<text transform="translate(949.2,458.5)" dy="5.4" font-size="18.00" fill="#404040" stroke="none">5.3%</text>
<g stroke="none" stroke-width="0.9000"  >
  <polygon points="925.2,596.8 934.8,583.3 944.4,596.8 925.2,596.8" fill="#6298C6"/>
</g>
<text transform="translate(949.2,592.1)" dy="5.4" font-size="18.00" fill="#6298C6" stroke="none">5.6%</text>
<g stroke="none" stroke-width="0.9000"  >
  <polygon points="925.2,525.0 934.8,511.5 944.4,525.0 925.2,525.0" fill="#666"/>
</g>
<text transform="translate(949.2,520.2)" dy="5.4" font-size="18.00" fill="#666" stroke="none">8.8%</text>
<text transform="translate(990.6,179.3)" dy="5.4" font-size="18.00" fill="#7B553E" stroke="none" xml:space="preserve"> (+7.9% to +11.0%)</text>
<text transform="translate(990.6,458.5)" dy="5.4" font-size="18.00" fill="#404040" stroke="none" xml:space="preserve"> (+4.4% to +6.2%)</text>
<text transform="translate(990.6,592.1)" dy="5.4" font-size="18.00" fill="#6298C6" stroke="none" xml:space="preserve"> (+2.4% to +8.8%)</text>
<text transform="translate(990.6,520.2)" dy="5.4" font-size="18.00" fill="#666" stroke="none" xml:space="preserve"> (+6.6% to +11.0%)</text>
<text transform="translate(925.2,124.6)" dy="0.0" font-size="18.00" fill="#808080" stroke="none">Projected Mt CO<tspan dy="0.2em"><tspan style="font-size:70%">2</tspan></tspan><tspan dy="-0.2em"> </tspan>in 2023</text>
<text transform="translate(145.6,47.2)" dy="0.0" font-size="27.00" fill="#808080" stroke="none">Annual Fossil CO<tspan dy="0.2em"><tspan style="font-size:70%">2</tspan></tspan><tspan dy="-0.2em"> </tspan>Emissions in India</text>
<text transform="translate(130.0,81.7)" dy="8.1" font-size="27.00" fill="#808080" stroke="none" text-anchor="end">CO<tspan dy="0.2em"><tspan style="font-size:70%">2</tspan></tspan><tspan dy="-0.2em"></tspan></text>
<text transform="translate(873.4,627.7)" dy="18.0" font-size="18.00" fill="#808080" stroke="none" text-anchor="middle">projected</text>
<text transform="translate(157.6,60.7)" dy="18.0" font-size="18.00" fill="#808080" stroke="none">Projected total emissions growth: +8.2% (+6.7% to +9.7%)</text>
<text transform="translate(160.2,666.1)" font-size="19.80" font-family="Helvetica" fill="#BFBFBF" stroke="none" xml:space="preserve">Global Carbon Project</text>
<g>
  <rect x="123.0" y="651.4" width="34" height="17" fill="#FFF" stroke="none"/>
  <g transform="translate(124.0,652.4) scale(0.24)">
  <g><circle fill="#FFF" cx="37.79" cy="28.5" r="28.84"/>
     <circle fill="none" cx="37.79" cy="28.5" r="28.84" stroke="#BFBFBF" stroke-width="5.5"/>
     <path fill="#BFBFBF" d="M37.16,23.19 l-4.29,2.23c-0.458-0.951-1.02-1.62-1.69-2c-0.667-0.38-1.29-0.571-1.86-0.571c-2.86,0-4.29,1.89-4.29,5.66 c0,1.71,0.36,3.08,1.09,4.11c0.724,1.03,1.79,1.54,3.2,1.54c1.87,0,3.18-0.915,3.94-2.74l3.94,2 c-0.838,1.56-2,2.79-3.49,3.69c-1.48,0.896-3.12,1.34-4.91,1.34c-2.86,0-5.16-0.875-6.92-2.63 c-1.75-1.75-2.63-4.19-2.63-7.31c0-3.05,0.886-5.47,2.66-7.26c1.77-1.79,4.01-2.69,6.72-2.69 C32.6,18.56,35.44,20.1,37.16,23.19z
              M55.61,23.19l-4.23,2.23c-0.457-0.951-1.02-1.62-1.69-2 c-0.668-0.38-1.31-0.571-1.91-0.571c-2.86,0-4.29,1.89-4.29,5.66c0,1.71,0.363,3.08,1.09,4.11 c0.723,1.03,1.79,1.54,3.2,1.54c1.87,0,3.18-0.915,3.94-2.74l4,2c-0.875,1.56-2.06,2.79-3.54,3.69 c-1.49,0.9-3.11,1.34-4.86,1.34c-2.9,0-5.21-0.875-6.94-2.63c-1.74-1.75-2.6-4.19-2.6-7.31 c0-3.05,0.885-5.47,2.66-7.26c1.77-1.79,4.01-2.69,6.71-2.69C51.12,18.56,53.944,20.1,55.61,23.19z"/>
  </g></g>
  <g transform="translate(140.2,652.4) scale(0.24)">
  <g><circle fill="#FFF" cx="37.79" cy="28.5" r="28.84"/>
     <circle fill="none" cx="37.79" cy="28.5" r="28.84" stroke="#BFBFBF" stroke-width="5.5"/>
     <path fill="#BFBFBF" d="M46.129,20.557v13.085h-3.656v15.542h-9.944V33.643h-3.656V20.557 c0-0.572,0.2-1.057,0.599-1.457c0.401-0.399,0.887-0.6,1.457-0.6h13.144c0.533,0,1.01,0.2,1.428,0.6 C45.918,19.5,46.129,19.986,46.129,20.557z
              M33.042,12.329c0-3.008,1.485-4.514,4.458-4.514s4.457,1.504,4.457,4.514 c0,2.971-1.486,4.457-4.457,4.457S33.042,15.3,33.042,12.329z"/>
  </g></g>
</g>
</g>
</svg>
