<?xml version="1.0" encoding="UTF-8" standalone="no"?>
<!DOCTYPE svg PUBLIC "-//W3C//DTD SVG 1.1//EN" "http://www.w3.org/Graphics/SVG/1.1/DTD/svg11.dtd">
<svg width="100%" height="100%" viewBox="0 0 3598 1936" version="1.1" xmlns="http://www.w3.org/2000/svg" xmlns:xlink="http://www.w3.org/1999/xlink" xml:space="preserve" xmlns:serif="http://www.serif.com/" style="fill-rule:evenodd;clip-rule:evenodd;stroke-linejoin:round;stroke-miterlimit:10;">
    <g id="Artboard1" transform="matrix(0.877766,0,0,0.856458,-2918.3,45.8788)">
        <rect x="3324.7" y="-53.568" width="4098.04" height="2259.99" style="fill:none;"/>
        <g transform="matrix(1.13926,0,0,1.1676,-118.84,-4296.67)">
            <g transform="matrix(1,0,0,1,5840.81,3793.88)">
                <text x="0px" y="0px" style="font-family:'Calibri-Bold', 'Calibri', sans-serif;font-weight:700;font-size:130px;">2°C</text>
            </g>
            <g transform="matrix(1,0,0,1,5632.5,3905.88)">
                <text x="0px" y="0px" style="font-family:'Calibri', sans-serif;font-size:92px;">(50% lik<tspan x="288.803px 334.578px " y="0px 0px ">el</tspan>ihood)</text>
            </g>
            <g transform="matrix(1,0,0,1,4586.22,3793.88)">
                <text x="0px" y="0px" style="font-family:'Calibri-Bold', 'Calibri', sans-serif;font-weight:700;font-size:130px;">1.7°C</text>
            </g>
            <g transform="matrix(1,0,0,1,4430.12,3905.88)">
                <text x="0px" y="0px" style="font-family:'Calibri', sans-serif;font-size:92px;">(50% lik<tspan x="288.803px 334.578px " y="0px 0px ">el</tspan>ihood)</text>
            </g>
            <g transform="matrix(1,0,0,1,3459.59,3793.88)">
                <text x="0px" y="0px" style="font-family:'Calibri-Bold', 'Calibri', sans-serif;font-weight:700;font-size:130px;">1.5°C</text>
            </g>
            <g transform="matrix(1,0,0,1,106,-110)">
                <g transform="matrix(1,0,0,1,4180.41,5523.72)">
                    <text x="-38.594px" y="0px" style="font-family:'Calibri-Bold', 'Calibri', sans-serif;font-weight:700;font-size:130px;">Gt C<tspan x="186.558px " y="0px ">O</tspan></text>
                    <text x="274.473px" y="0px" style="font-family:'Calibri-Bold', 'Calibri', sans-serif;font-weight:700;font-size:130px;">₂</text>
                </g>
                <g transform="matrix(1,0,0,1,501.142,9.69955)">
                    <g transform="matrix(1,0,0,1,-172.151,135.839)">
                        <rect x="4205.5" y="5256.5" width="60" height="60" style="fill:rgb(89,89,89);stroke:white;stroke-width:6.88px;"/>
                    </g>
                    <g transform="matrix(1,0,0,1,4121.9,5453.84)">
                        <text x="0px" y="0px" style="font-family:'Calibri-Bold', 'Calibri', sans-serif;font-weight:700;font-size:110px;fill:rgb(89,89,89);">Consumed</text>
                    </g>
                </g>
                <g transform="matrix(1,0,0,1,118.473,6.59309)">
                    <g transform="matrix(1,0,0,1,-473.482,253.887)">
                        <rect x="4889.5" y="5256.5" width="61" height="60" style="fill:rgb(237,125,49);stroke:white;stroke-width:6.88px;"/>
                    </g>
                    <g transform="matrix(1,0,0,1,4505.29,5571.89)">
                        <text x="0px" y="0px" style="font-family:'Calibri-Bold', 'Calibri', sans-serif;font-weight:700;font-size:110px;fill:rgb(89,89,89);">R<tspan x="60.317px 115.693px " y="0px 0px ">em</tspan>aining</text>
                    </g>
                </g>
            </g>
            <g transform="matrix(1,0,0,1,3303.49,3905.88)">
                <text x="0px" y="0px" style="font-family:'Calibri', sans-serif;font-size:92px;">(50% lik<tspan x="288.803px 334.578px " y="0px 0px ">el</tspan>ihood)</text>
            </g>
            <g transform="matrix(1,0,0,1,1776,228)">
                <path d="M1972.44,3974.4C2222.28,4050.79 2362.89,4315.24 2286.51,4565.08C2210.12,4814.91 1945.67,4955.53 1695.83,4879.14C1446,4802.76 1305.38,4538.31 1381.77,4288.47C1427.27,4139.64 1543.07,4022.71 1691.46,3975.76L1834.14,4426.77L1972.44,3974.4Z" style="fill:rgb(89,89,89);stroke:white;stroke-width:6.88px;"/>
            </g>
            <g transform="matrix(1,0,0,1,1776,228)">
                <path d="M1691,3881.16C1782.36,3852.26 1880.35,3851.78 1971.98,3879.8L1833.68,4332.17L1691,3881.16Z" style="fill:rgb(237,125,49);stroke:white;stroke-width:6.88px;"/>
            </g>
            <g transform="matrix(1,0,0,1,3518.38,4922)">
                <text x="0px" y="0px" style="font-family:'Calibri-Bold', 'Calibri', sans-serif;font-weight:700;font-size:100px;fill:white;">2590</text>
            </g>
            <g transform="matrix(1,0,0,1,3534.86,4259)">
                <text x="0px" y="0px" style="font-family:'Calibri-Bold', 'Calibri', sans-serif;font-weight:700;font-size:100px;fill:white;">275</text>
            </g>
            <g transform="matrix(4.67782,0,0,4.67782,3200.08,5537.16)">
                <text x="0px" y="0px" style="font-family:'Helvetica', sans-serif;font-size:19.8px;fill:rgb(191,191,191);">Global Carbon Project</text>
            </g>
            <g transform="matrix(1.12268,0,0,1.12268,3031.68,5473.08)">
                <g>
                    <circle cx="37.79" cy="28.5" r="28.84" style="fill:white;"/>
                    <circle cx="37.79" cy="28.5" r="28.84" style="fill:none;stroke:rgb(191,191,191);stroke-width:5.5px;stroke-linejoin:miter;stroke-miterlimit:4;"/>
                    <path d="M37.16,23.19L32.87,25.42C32.412,24.469 31.85,23.8 31.18,23.42C30.513,23.04 29.89,22.849 29.32,22.849C26.46,22.849 25.03,24.739 25.03,28.509C25.03,30.219 25.39,31.589 26.12,32.619C26.844,33.649 27.91,34.159 29.32,34.159C31.19,34.159 32.5,33.244 33.26,31.419L37.2,33.419C36.362,34.979 35.2,36.209 33.71,37.109C32.23,38.005 30.59,38.449 28.8,38.449C25.94,38.449 23.64,37.574 21.88,35.819C20.13,34.069 19.25,31.629 19.25,28.509C19.25,25.459 20.136,23.039 21.91,21.249C23.68,19.459 25.92,18.559 28.63,18.559C32.6,18.56 35.44,20.1 37.16,23.19ZM55.61,23.19L51.38,25.42C50.923,24.469 50.36,23.8 49.69,23.42C49.022,23.04 48.38,22.849 47.78,22.849C44.92,22.849 43.49,24.739 43.49,28.509C43.49,30.219 43.853,31.589 44.58,32.619C45.303,33.649 46.37,34.159 47.78,34.159C49.65,34.159 50.96,33.244 51.72,31.419L55.72,33.419C54.845,34.979 53.66,36.209 52.18,37.109C50.69,38.009 49.07,38.449 47.32,38.449C44.42,38.449 42.11,37.574 40.38,35.819C38.64,34.069 37.78,31.629 37.78,28.509C37.78,25.459 38.665,23.039 40.44,21.249C42.21,19.459 44.45,18.559 47.15,18.559C51.12,18.56 53.944,20.1 55.61,23.19Z" style="fill:rgb(191,191,191);fill-rule:nonzero;"/>
                </g>
            </g>
            <g transform="matrix(1.12268,0,0,1.12268,3107.46,5473.08)">
                <g>
                    <circle cx="37.79" cy="28.5" r="28.84" style="fill:white;"/>
                    <circle cx="37.79" cy="28.5" r="28.84" style="fill:none;stroke:rgb(191,191,191);stroke-width:5.5px;stroke-linejoin:miter;stroke-miterlimit:4;"/>
                    <path d="M46.129,20.557L46.129,33.642L42.473,33.642L42.473,49.184L32.529,49.184L32.529,33.643L28.873,33.643L28.873,20.557C28.873,19.985 29.073,19.5 29.472,19.1C29.873,18.701 30.359,18.5 30.929,18.5L44.073,18.5C44.606,18.5 45.083,18.7 45.501,19.1C45.918,19.5 46.129,19.986 46.129,20.557ZM33.042,12.329C33.042,9.321 34.527,7.815 37.5,7.815C40.473,7.815 41.957,9.319 41.957,12.329C41.957,15.3 40.471,16.786 37.5,16.786C34.529,16.786 33.042,15.3 33.042,12.329Z" style="fill:rgb(191,191,191);fill-rule:nonzero;"/>
                </g>
            </g>
        </g>
        <g transform="matrix(1.13926,0,0,1.1676,452.089,-4285.35)">
            <g transform="matrix(1,0,0,1,-593.142,160.301)">
                <path d="M5112.8,4063.13C5346.15,4226.52 5402.86,4548.16 5239.47,4781.51C5076.07,5014.87 4754.44,5071.58 4521.08,4908.18C4287.73,4744.78 4231.02,4423.15 4394.41,4189.8C4428.95,4140.47 4471.86,4097.57 4521.2,4063.05L4816.94,4485.65L5112.8,4063.13Z" style="fill:rgb(89,89,89);stroke:white;stroke-width:6.88px;"/>
            </g>
            <g transform="matrix(1,0,0,1,-593.142,160.301)">
                <path d="M4521.21,3954.73C4698.83,3830.43 4935.22,3830.46 5112.81,3954.81L4816.95,4377.33L4521.21,3954.73Z" style="fill:rgb(237,125,49);stroke:white;stroke-width:6.88px;"/>
            </g>
            <g transform="matrix(1,0,0,1,4130.86,4912.3)">
                <text x="0px" y="0px" style="font-family:'Calibri-Bold', 'Calibri', sans-serif;font-weight:700;font-size:100px;fill:white;">2590</text>
            </g>
            <g transform="matrix(1,0,0,1,4154.17,4249.3)">
                <text x="0px" y="0px" style="font-family:'Calibri-Bold', 'Calibri', sans-serif;font-weight:700;font-size:100px;fill:white;">625</text>
            </g>
        </g>
        <g transform="matrix(1.13926,0,0,1.1676,-2373.11,-4164.73)">
            <path d="M8387.04,4213.23C8568.97,4473.04 8505.83,4831.14 8246.01,5013.06C7986.2,5194.98 7628.11,5131.84 7446.18,4872.03C7309.17,4676.35 7307.59,4416.29 7442.22,4218.96L7916.61,4542.63L8387.04,4213.23Z" style="fill:rgb(89,89,89);stroke:white;stroke-width:6.88px;"/>
        </g>
        <g transform="matrix(1.13926,0,0,1.1676,-2373.11,-4164.73)">
            <path d="M7441.52,4104.11C7620.28,3842.11 7977.58,3774.62 8239.58,3953.38C8296.86,3992.46 8346.58,4041.58 8386.35,4098.37L7915.92,4427.77L7441.52,4104.11Z" style="fill:rgb(237,125,49);stroke:white;stroke-width:6.88px;"/>
        </g>
        <g transform="matrix(1.13926,0,0,1.1676,6542.08,1450.25)">
            <text x="0px" y="0px" style="font-family:'Calibri-Bold', 'Calibri', sans-serif;font-weight:700;font-size:100px;fill:white;">2590</text>
        </g>
        <g transform="matrix(1.13926,0,0,1.1676,6537.32,676.135)">
            <text x="0px" y="0px" style="font-family:'Calibri-Bold', 'Calibri', sans-serif;font-weight:700;font-size:100px;fill:white;">1150</text>
        </g>
    </g>
</svg>
