<svg version="1.1" xmlns="http://www.w3.org/2000/svg" xmlns:xlink="http://www.w3.org/1999/xlink" width="100%" height="100%" viewBox="0 0 1200.000 674.916">
<title>Annual Fossil CO2 Emissions: Rest of World</title>
<style type="text/css">
  #main {font-family:Helvetica,Arial,sans-serif; font-size:27.00px;
         fill-opacity:1; fill:#000000; stroke:none; stroke-linejoin:round; stroke-linecap:round; stroke-width:1.00;}
  .marker {stroke-opacity:0;fill-opacity:0;}
  .marker:hover {stroke-opacity:0.5; fill-opacity:1;}
  .ticklabel {font-size:27.00px;fill:#808080;stroke:none;font-family:Helvetica}
  .ytl {text-anchor:end;}
  .dp1 {pointer-events:none;font-size:70%;text-anchor:middle;fill:#000000;}
  .dp2 {pointer-events:none;font-size:70%;text-anchor:middle;fill:#FFFFFF;}
  .numtip {pointer-events:none;}
  .cc {opacity:0.25;}
.dl_fe {background-color:#FDFFDF;display:flex;margin:auto;align-items:center}
.dl_fe_p {font-size:20px;text-align:center;margin:3px}
.dl_el {display:none;pointer-events:none;}
.cc:hover + .dl_el {display:block;}
text:hover + .dl_el {display:block;}
</style>
<defs>
  <clipPath id="axis_clip"><rect x="145.8" y="54.2" width="761.2" height="532.8" /></clipPath>
  <path id="line_x" d="M 145.600,0 h 761.600" stroke="#262626" stroke-opacity="0.15" stroke-width="1.00"/>
  <path id="tick_y" d="M 145.600,0 h -6.000" stroke="#808080" stroke-width="0.90"/>
  <path id="tick_x" d="M 0,587.177 v 6.000" stroke="#808080" stroke-width="0.90"/>
</defs>
<g id="main">
<use xlink:href="#line_x" transform="translate(0,587.2)"/>
<use xlink:href="#line_x" transform="translate(0,468.7)"/>
<use xlink:href="#line_x" transform="translate(0,350.2)"/>
<use xlink:href="#line_x" transform="translate(0,231.7)"/>
<use xlink:href="#line_x" transform="translate(0,113.2)"/>
<use xlink:href="#tick_y" transform="translate(0,587.2)"/>
<use xlink:href="#tick_y" transform="translate(0,468.7)"/>
<use xlink:href="#tick_y" transform="translate(0,350.2)"/>
<use xlink:href="#tick_y" transform="translate(0,231.7)"/>
<use xlink:href="#tick_y" transform="translate(0,113.2)"/>
<use xlink:href="#tick_x" transform="translate(162.0,0)"/>
<use xlink:href="#tick_x" transform="translate(271.6,0)"/>
<use xlink:href="#tick_x" transform="translate(381.2,0)"/>
<use xlink:href="#tick_x" transform="translate(490.8,0)"/>
<use xlink:href="#tick_x" transform="translate(600.4,0)"/>
<use xlink:href="#tick_x" transform="translate(710.0,0)"/>
<use xlink:href="#tick_x" transform="translate(874.3,0)"/>
<polyline points="145.6,53.993 145.6,587.177 907.2,587.177" stroke="#808080" stroke-width="0.90" fill="none"/>
<text class="ticklabel xtl" transform="translate(162.0,629.0)" text-anchor="middle">1960</text>
<text class="ticklabel xtl" transform="translate(271.6,629.0)" text-anchor="middle">1970</text>
<text class="ticklabel xtl" transform="translate(381.2,629.0)" text-anchor="middle">1980</text>
<text class="ticklabel xtl" transform="translate(490.8,629.0)" text-anchor="middle">1990</text>
<text class="ticklabel xtl" transform="translate(600.4,629.0)" text-anchor="middle">2000</text>
<text class="ticklabel xtl" transform="translate(710.0,629.0)" text-anchor="middle">2010</text>
<text class="ticklabel xtl" transform="translate(874.3,629.0)" text-anchor="middle">2025</text>
<text class="ticklabel ytl" transform="translate(128.8,595.3)">0</text>
<text class="ticklabel ytl" transform="translate(128.8,476.8)">400</text>
<text class="ticklabel ytl" transform="translate(128.8,358.3)">800</text>
<text class="ticklabel ytl" transform="translate(128.8,239.8)">1200</text>
<text class="ticklabel ytl" transform="translate(128.8,121.3)">1600 Mt C</text>
<polyline class="pl" points="863.4,542.8 874.3,541.9" stroke="#666" stroke-width="5.40" stroke-opacity="1.00" fill="none" clip-path="url(#axis_clip)"/>
<polyline class="pl" points="863.4,233.4 874.3,228.0" stroke="#6298C6" stroke-width="5.40" stroke-opacity="1.00" fill="none" clip-path="url(#axis_clip)"/>
<polyline class="pl" points="863.4,79.2 874.3,75.2" stroke="#404040" stroke-width="5.40" stroke-opacity="1.00" fill="none" clip-path="url(#axis_clip)"/>
<polyline class="pl" points="863.4,326.3 874.3,324.4" stroke="#7B553E" stroke-width="5.40" stroke-opacity="1.00" fill="none" clip-path="url(#axis_clip)"/>
<polyline class="pl" points="140.1,451.4 151.1,451.7 162.0,448.5 173.0,450.1 184.0,449.5 194.9,445.3 205.9,441.8 216.8,437.5 227.8,435.5 238.7,436.4 249.7,435.6 260.7,433.5 271.6,427.0 282.6,422.5 293.5,424.2 304.5,421.5 315.5,422.8 326.4,415.6 337.4,411.5 348.3,407.7 359.3,408.1 370.2,401.7 381.2,395.3 392.2,400.7 403.1,397.8 414.1,393.9 425.0,392.9 436.0,368.9 447.0,361.6 457.9,355.7 468.9,350.0 479.8,354.8 490.8,378.4 501.7,384.5 512.7,401.0 523.7,403.9 534.6,414.2 545.6,412.0 556.5,411.1 567.5,412.6 578.5,414.1 589.4,414.5 600.4,402.3 611.3,396.8 622.3,397.1 633.2,385.8 644.2,381.7 655.2,377.9 666.1,367.8 677.1,362.0 688.0,357.4 699.0,366.7 710.0,354.5 720.9,347.1 731.9,341.5 742.8,347.4 753.8,343.4 764.7,343.2 775.7,343.5 786.7,336.9 797.6,327.4 808.6,319.9 819.5,331.3 830.5,336.4 841.5,335.6 852.4,330.3 863.4,326.3" stroke="#7B553E" stroke-width="5.40" stroke-opacity="1.00" fill="none" clip-path="url(#axis_clip)"/>
<g class="pl" fill="#FFF" stroke="#7B553E" stroke-width="0.900">
  <circle cx="151.1" cy="451.7" r="2.2" />
  <circle cx="173.0" cy="450.1" r="2.2" />
  <circle cx="184.0" cy="449.5" r="2.2" />
  <circle cx="194.9" cy="445.3" r="2.2" />
  <circle cx="205.9" cy="441.8" r="2.2" />
  <circle cx="216.8" cy="437.5" r="2.2" />
  <circle cx="227.8" cy="435.5" r="2.2" />
  <circle cx="238.7" cy="436.4" r="2.2" />
  <circle cx="249.7" cy="435.6" r="2.2" />
  <circle cx="260.7" cy="433.5" r="2.2" />
  <circle cx="282.6" cy="422.5" r="2.2" />
  <circle cx="293.5" cy="424.2" r="2.2" />
  <circle cx="304.5" cy="421.5" r="2.2" />
  <circle cx="315.5" cy="422.8" r="2.2" />
  <circle cx="326.4" cy="415.6" r="2.2" />
  <circle cx="337.4" cy="411.5" r="2.2" />
  <circle cx="348.3" cy="407.7" r="2.2" />
  <circle cx="359.3" cy="408.1" r="2.2" />
  <circle cx="370.2" cy="401.7" r="2.2" />
  <circle cx="392.2" cy="400.7" r="2.2" />
  <circle cx="403.1" cy="397.8" r="2.2" />
  <circle cx="414.1" cy="393.9" r="2.2" />
  <circle cx="425.0" cy="392.9" r="2.2" />
  <circle cx="436.0" cy="368.9" r="2.2" />
  <circle cx="447.0" cy="361.6" r="2.2" />
  <circle cx="457.9" cy="355.7" r="2.2" />
  <circle cx="468.9" cy="350.0" r="2.2" />
  <circle cx="479.8" cy="354.8" r="2.2" />
  <circle cx="501.7" cy="384.5" r="2.2" />
  <circle cx="512.7" cy="401.0" r="2.2" />
  <circle cx="523.7" cy="403.9" r="2.2" />
  <circle cx="534.6" cy="414.2" r="2.2" />
  <circle cx="545.6" cy="412.0" r="2.2" />
  <circle cx="556.5" cy="411.1" r="2.2" />
  <circle cx="567.5" cy="412.6" r="2.2" />
  <circle cx="578.5" cy="414.1" r="2.2" />
  <circle cx="589.4" cy="414.5" r="2.2" />
  <circle cx="611.3" cy="396.8" r="2.2" />
  <circle cx="622.3" cy="397.1" r="2.2" />
  <circle cx="633.2" cy="385.8" r="2.2" />
  <circle cx="644.2" cy="381.7" r="2.2" />
  <circle cx="655.2" cy="377.9" r="2.2" />
  <circle cx="666.1" cy="367.8" r="2.2" />
  <circle cx="677.1" cy="362.0" r="2.2" />
  <circle cx="688.0" cy="357.4" r="2.2" />
  <circle cx="699.0" cy="366.7" r="2.2" />
  <circle cx="720.9" cy="347.1" r="2.2" />
  <circle cx="731.9" cy="341.5" r="2.2" />
  <circle cx="742.8" cy="347.4" r="2.2" />
  <circle cx="753.8" cy="343.4" r="2.2" />
  <circle cx="764.7" cy="343.2" r="2.2" />
  <circle cx="775.7" cy="343.5" r="2.2" />
  <circle cx="786.7" cy="336.9" r="2.2" />
  <circle cx="797.6" cy="327.4" r="2.2" />
  <circle cx="808.6" cy="319.9" r="2.2" />
  <circle cx="830.5" cy="336.4" r="2.2" />
  <circle cx="841.5" cy="335.6" r="2.2" />
  <circle cx="852.4" cy="330.3" r="2.2" />
  <circle cx="863.4" cy="326.3" r="2.2" />
</g>
<g class="pl" fill="#FFF" stroke="#7B553E" stroke-width="0.900">
  <circle cx="162.0" cy="448.5" r="5.4" />
  <circle cx="271.6" cy="427.0" r="5.4" />
  <circle cx="381.2" cy="395.3" r="5.4" />
  <circle cx="490.8" cy="378.4" r="5.4" />
  <circle cx="600.4" cy="402.3" r="5.4" />
  <circle cx="710.0" cy="354.5" r="5.4" />
  <circle cx="819.5" cy="331.3" r="5.4" />
</g>
<g class="pl" fill="#F00" stroke="#000" stroke-width="0.900">
  <circle cx="874.3" cy="324.4" r="5.4" />
</g>
<polyline class="pl" points="140.1,500.3 151.1,493.3 162.0,484.9 173.0,477.6 184.0,469.3 194.9,461.6 205.9,451.8 216.8,442.7 227.8,432.1 238.7,421.7 249.7,408.6 260.7,396.9 271.6,376.7 282.6,363.1 293.5,348.4 304.5,329.8 315.5,325.5 326.4,322.9 337.4,313.7 348.3,301.4 359.3,286.7 370.2,275.3 381.2,273.9 392.2,277.3 403.1,277.6 414.1,278.8 425.0,276.7 436.0,275.0 447.0,267.1 457.9,265.8 468.9,253.3 479.8,245.1 490.8,229.9 501.7,192.9 512.7,242.7 523.7,243.9 534.6,248.4 545.6,246.8 556.5,239.5 567.5,231.6 578.5,228.3 589.4,218.5 600.4,213.4 611.3,210.9 622.3,211.8 633.2,200.7 644.2,183.8 655.2,177.6 666.1,167.5 677.1,162.4 688.0,153.3 699.0,155.3 710.0,135.8 720.9,130.1 731.9,119.2 742.8,115.6 753.8,112.4 764.7,108.0 775.7,105.2 786.7,97.5 797.6,102.4 808.6,92.1 819.5,159.1 830.5,133.2 841.5,112.8 852.4,96.1 863.4,79.2" stroke="#404040" stroke-width="5.40" stroke-opacity="1.00" fill="none" clip-path="url(#axis_clip)"/>
<g class="pl" fill="#FFF" stroke="#404040" stroke-width="0.900">
  <circle cx="151.1" cy="493.3" r="2.2" />
  <circle cx="173.0" cy="477.6" r="2.2" />
  <circle cx="184.0" cy="469.3" r="2.2" />
  <circle cx="194.9" cy="461.6" r="2.2" />
  <circle cx="205.9" cy="451.8" r="2.2" />
  <circle cx="216.8" cy="442.7" r="2.2" />
  <circle cx="227.8" cy="432.1" r="2.2" />
  <circle cx="238.7" cy="421.7" r="2.2" />
  <circle cx="249.7" cy="408.6" r="2.2" />
  <circle cx="260.7" cy="396.9" r="2.2" />
  <circle cx="282.6" cy="363.1" r="2.2" />
  <circle cx="293.5" cy="348.4" r="2.2" />
  <circle cx="304.5" cy="329.8" r="2.2" />
  <circle cx="315.5" cy="325.5" r="2.2" />
  <circle cx="326.4" cy="322.9" r="2.2" />
  <circle cx="337.4" cy="313.7" r="2.2" />
  <circle cx="348.3" cy="301.4" r="2.2" />
  <circle cx="359.3" cy="286.7" r="2.2" />
  <circle cx="370.2" cy="275.3" r="2.2" />
  <circle cx="392.2" cy="277.3" r="2.2" />
  <circle cx="403.1" cy="277.6" r="2.2" />
  <circle cx="414.1" cy="278.8" r="2.2" />
  <circle cx="425.0" cy="276.7" r="2.2" />
  <circle cx="436.0" cy="275.0" r="2.2" />
  <circle cx="447.0" cy="267.1" r="2.2" />
  <circle cx="457.9" cy="265.8" r="2.2" />
  <circle cx="468.9" cy="253.3" r="2.2" />
  <circle cx="479.8" cy="245.1" r="2.2" />
  <circle cx="501.7" cy="192.9" r="2.2" />
  <circle cx="512.7" cy="242.7" r="2.2" />
  <circle cx="523.7" cy="243.9" r="2.2" />
  <circle cx="534.6" cy="248.4" r="2.2" />
  <circle cx="545.6" cy="246.8" r="2.2" />
  <circle cx="556.5" cy="239.5" r="2.2" />
  <circle cx="567.5" cy="231.6" r="2.2" />
  <circle cx="578.5" cy="228.3" r="2.2" />
  <circle cx="589.4" cy="218.5" r="2.2" />
  <circle cx="611.3" cy="210.9" r="2.2" />
  <circle cx="622.3" cy="211.8" r="2.2" />
  <circle cx="633.2" cy="200.7" r="2.2" />
  <circle cx="644.2" cy="183.8" r="2.2" />
  <circle cx="655.2" cy="177.6" r="2.2" />
  <circle cx="666.1" cy="167.5" r="2.2" />
  <circle cx="677.1" cy="162.4" r="2.2" />
  <circle cx="688.0" cy="153.3" r="2.2" />
  <circle cx="699.0" cy="155.3" r="2.2" />
  <circle cx="720.9" cy="130.1" r="2.2" />
  <circle cx="731.9" cy="119.2" r="2.2" />
  <circle cx="742.8" cy="115.6" r="2.2" />
  <circle cx="753.8" cy="112.4" r="2.2" />
  <circle cx="764.7" cy="108.0" r="2.2" />
  <circle cx="775.7" cy="105.2" r="2.2" />
  <circle cx="786.7" cy="97.5" r="2.2" />
  <circle cx="797.6" cy="102.4" r="2.2" />
  <circle cx="808.6" cy="92.1" r="2.2" />
  <circle cx="830.5" cy="133.2" r="2.2" />
  <circle cx="841.5" cy="112.8" r="2.2" />
  <circle cx="852.4" cy="96.1" r="2.2" />
  <circle cx="863.4" cy="79.2" r="2.2" />
</g>
<g class="pl" fill="#FFF" stroke="#404040" stroke-width="0.900">
  <circle cx="162.0" cy="484.9" r="5.4" />
  <circle cx="271.6" cy="376.7" r="5.4" />
  <circle cx="381.2" cy="273.9" r="5.4" />
  <circle cx="490.8" cy="229.9" r="5.4" />
  <circle cx="600.4" cy="213.4" r="5.4" />
  <circle cx="710.0" cy="135.8" r="5.4" />
  <circle cx="819.5" cy="159.1" r="5.4" />
</g>
<g class="pl" fill="#F00" stroke="#000" stroke-width="0.900">
  <circle cx="874.3" cy="75.2" r="5.4" />
</g>
<polyline class="pl" points="140.1,579.3 151.1,577.4 162.0,575.0 173.0,572.3 184.0,569.2 194.9,566.5 205.9,561.8 216.8,558.1 227.8,555.0 238.7,552.1 249.7,548.4 260.7,545.1 271.6,545.1 282.6,539.9 293.5,535.4 304.5,531.4 315.5,527.6 326.4,523.2 337.4,517.6 348.3,512.7 359.3,507.1 370.2,501.3 381.2,495.0 392.2,489.7 403.1,487.2 414.1,481.5 425.0,468.8 436.0,458.3 447.0,459.0 457.9,444.4 468.9,435.6 479.8,431.6 490.8,422.5 501.7,421.4 512.7,418.9 523.7,414.1 534.6,414.6 545.6,410.6 556.5,402.1 567.5,401.2 578.5,397.8 589.4,389.8 600.4,385.4 611.3,380.0 622.3,371.7 633.2,358.4 644.2,347.6 655.2,339.5 666.1,330.7 677.1,323.2 688.0,313.8 699.0,322.0 710.0,301.4 720.9,289.8 731.9,284.6 742.8,283.9 753.8,281.1 764.7,275.7 775.7,268.8 786.7,260.6 797.6,251.7 808.6,248.8 819.5,253.8 830.5,235.1 841.5,243.6 852.4,241.4 863.4,233.4" stroke="#6298C6" stroke-width="5.40" stroke-opacity="1.00" fill="none" clip-path="url(#axis_clip)"/>
<g class="pl" fill="#FFF" stroke="#6298C6" stroke-width="0.900">
  <circle cx="151.1" cy="577.4" r="2.2" />
  <circle cx="173.0" cy="572.3" r="2.2" />
  <circle cx="184.0" cy="569.2" r="2.2" />
  <circle cx="194.9" cy="566.5" r="2.2" />
  <circle cx="205.9" cy="561.8" r="2.2" />
  <circle cx="216.8" cy="558.1" r="2.2" />
  <circle cx="227.8" cy="555.0" r="2.2" />
  <circle cx="238.7" cy="552.1" r="2.2" />
  <circle cx="249.7" cy="548.4" r="2.2" />
  <circle cx="260.7" cy="545.1" r="2.2" />
  <circle cx="282.6" cy="539.9" r="2.2" />
  <circle cx="293.5" cy="535.4" r="2.2" />
  <circle cx="304.5" cy="531.4" r="2.2" />
  <circle cx="315.5" cy="527.6" r="2.2" />
  <circle cx="326.4" cy="523.2" r="2.2" />
  <circle cx="337.4" cy="517.6" r="2.2" />
  <circle cx="348.3" cy="512.7" r="2.2" />
  <circle cx="359.3" cy="507.1" r="2.2" />
  <circle cx="370.2" cy="501.3" r="2.2" />
  <circle cx="392.2" cy="489.7" r="2.2" />
  <circle cx="403.1" cy="487.2" r="2.2" />
  <circle cx="414.1" cy="481.5" r="2.2" />
  <circle cx="425.0" cy="468.8" r="2.2" />
  <circle cx="436.0" cy="458.3" r="2.2" />
  <circle cx="447.0" cy="459.0" r="2.2" />
  <circle cx="457.9" cy="444.4" r="2.2" />
  <circle cx="468.9" cy="435.6" r="2.2" />
  <circle cx="479.8" cy="431.6" r="2.2" />
  <circle cx="501.7" cy="421.4" r="2.2" />
  <circle cx="512.7" cy="418.9" r="2.2" />
  <circle cx="523.7" cy="414.1" r="2.2" />
  <circle cx="534.6" cy="414.6" r="2.2" />
  <circle cx="545.6" cy="410.6" r="2.2" />
  <circle cx="556.5" cy="402.1" r="2.2" />
  <circle cx="567.5" cy="401.2" r="2.2" />
  <circle cx="578.5" cy="397.8" r="2.2" />
  <circle cx="589.4" cy="389.8" r="2.2" />
  <circle cx="611.3" cy="380.0" r="2.2" />
  <circle cx="622.3" cy="371.7" r="2.2" />
  <circle cx="633.2" cy="358.4" r="2.2" />
  <circle cx="644.2" cy="347.6" r="2.2" />
  <circle cx="655.2" cy="339.5" r="2.2" />
  <circle cx="666.1" cy="330.7" r="2.2" />
  <circle cx="677.1" cy="323.2" r="2.2" />
  <circle cx="688.0" cy="313.8" r="2.2" />
  <circle cx="699.0" cy="322.0" r="2.2" />
  <circle cx="720.9" cy="289.8" r="2.2" />
  <circle cx="731.9" cy="284.6" r="2.2" />
  <circle cx="742.8" cy="283.9" r="2.2" />
  <circle cx="753.8" cy="281.1" r="2.2" />
  <circle cx="764.7" cy="275.7" r="2.2" />
  <circle cx="775.7" cy="268.8" r="2.2" />
  <circle cx="786.7" cy="260.6" r="2.2" />
  <circle cx="797.6" cy="251.7" r="2.2" />
  <circle cx="808.6" cy="248.8" r="2.2" />
  <circle cx="830.5" cy="235.1" r="2.2" />
  <circle cx="841.5" cy="243.6" r="2.2" />
  <circle cx="852.4" cy="241.4" r="2.2" />
  <circle cx="863.4" cy="233.4" r="2.2" />
</g>
<g class="pl" fill="#FFF" stroke="#6298C6" stroke-width="0.900">
  <circle cx="162.0" cy="575.0" r="5.4" />
  <circle cx="271.6" cy="545.1" r="5.4" />
  <circle cx="381.2" cy="495.0" r="5.4" />
  <circle cx="490.8" cy="422.5" r="5.4" />
  <circle cx="600.4" cy="385.4" r="5.4" />
  <circle cx="710.0" cy="301.4" r="5.4" />
  <circle cx="819.5" cy="253.8" r="5.4" />
</g>
<g class="pl" fill="#F00" stroke="#000" stroke-width="0.900">
  <circle cx="874.3" cy="228.0" r="5.4" />
</g>
<polyline class="pl" points="140.1,583.6 151.1,583.2 162.0,582.7 173.0,582.4 184.0,581.9 194.9,581.7 205.9,581.1 216.8,580.6 227.8,580.1 238.7,579.8 249.7,579.2 260.7,578.8 271.6,578.2 282.6,577.6 293.5,577.1 304.5,576.4 315.5,576.0 326.4,575.5 337.4,575.0 348.3,574.5 359.3,573.7 370.2,573.6 381.2,573.2 392.2,572.8 403.1,572.7 414.1,572.5 425.0,572.1 436.0,571.8 447.0,571.3 457.9,570.4 468.9,569.8 479.8,569.5 490.8,569.4 501.7,569.5 512.7,569.5 523.7,569.0 534.6,568.5 545.6,567.9 556.5,567.5 567.5,566.6 578.5,567.4 589.4,566.8 600.4,566.0 611.3,565.3 622.3,564.0 633.2,563.5 644.2,562.5 655.2,561.2 666.1,559.5 677.1,557.1 688.0,556.4 699.0,556.3 710.0,554.5 720.9,552.9 731.9,551.4 742.8,549.4 753.8,548.2 764.7,548.3 775.7,547.6 786.7,546.8 797.6,545.4 808.6,544.6 819.5,543.8 830.5,540.5 841.5,541.7 852.4,542.1 863.4,542.8" stroke="#666" stroke-width="5.40" stroke-opacity="1.00" fill="none" clip-path="url(#axis_clip)"/>
<g class="pl" fill="#FFF" stroke="#666" stroke-width="0.900">
  <circle cx="151.1" cy="583.2" r="2.2" />
  <circle cx="173.0" cy="582.4" r="2.2" />
  <circle cx="184.0" cy="581.9" r="2.2" />
  <circle cx="194.9" cy="581.7" r="2.2" />
  <circle cx="205.9" cy="581.1" r="2.2" />
  <circle cx="216.8" cy="580.6" r="2.2" />
  <circle cx="227.8" cy="580.1" r="2.2" />
  <circle cx="238.7" cy="579.8" r="2.2" />
  <circle cx="249.7" cy="579.2" r="2.2" />
  <circle cx="260.7" cy="578.8" r="2.2" />
  <circle cx="282.6" cy="577.6" r="2.2" />
  <circle cx="293.5" cy="577.1" r="2.2" />
  <circle cx="304.5" cy="576.4" r="2.2" />
  <circle cx="315.5" cy="576.0" r="2.2" />
  <circle cx="326.4" cy="575.5" r="2.2" />
  <circle cx="337.4" cy="575.0" r="2.2" />
  <circle cx="348.3" cy="574.5" r="2.2" />
  <circle cx="359.3" cy="573.7" r="2.2" />
  <circle cx="370.2" cy="573.6" r="2.2" />
  <circle cx="392.2" cy="572.8" r="2.2" />
  <circle cx="403.1" cy="572.7" r="2.2" />
  <circle cx="414.1" cy="572.5" r="2.2" />
  <circle cx="425.0" cy="572.1" r="2.2" />
  <circle cx="436.0" cy="571.8" r="2.2" />
  <circle cx="447.0" cy="571.3" r="2.2" />
  <circle cx="457.9" cy="570.4" r="2.2" />
  <circle cx="468.9" cy="569.8" r="2.2" />
  <circle cx="479.8" cy="569.5" r="2.2" />
  <circle cx="501.7" cy="569.5" r="2.2" />
  <circle cx="512.7" cy="569.5" r="2.2" />
  <circle cx="523.7" cy="569.0" r="2.2" />
  <circle cx="534.6" cy="568.5" r="2.2" />
  <circle cx="545.6" cy="567.9" r="2.2" />
  <circle cx="556.5" cy="567.5" r="2.2" />
  <circle cx="567.5" cy="566.6" r="2.2" />
  <circle cx="578.5" cy="567.4" r="2.2" />
  <circle cx="589.4" cy="566.8" r="2.2" />
  <circle cx="611.3" cy="565.3" r="2.2" />
  <circle cx="622.3" cy="564.0" r="2.2" />
  <circle cx="633.2" cy="563.5" r="2.2" />
  <circle cx="644.2" cy="562.5" r="2.2" />
  <circle cx="655.2" cy="561.2" r="2.2" />
  <circle cx="666.1" cy="559.5" r="2.2" />
  <circle cx="677.1" cy="557.1" r="2.2" />
  <circle cx="688.0" cy="556.4" r="2.2" />
  <circle cx="699.0" cy="556.3" r="2.2" />
  <circle cx="720.9" cy="552.9" r="2.2" />
  <circle cx="731.9" cy="551.4" r="2.2" />
  <circle cx="742.8" cy="549.4" r="2.2" />
  <circle cx="753.8" cy="548.2" r="2.2" />
  <circle cx="764.7" cy="548.3" r="2.2" />
  <circle cx="775.7" cy="547.6" r="2.2" />
  <circle cx="786.7" cy="546.8" r="2.2" />
  <circle cx="797.6" cy="545.4" r="2.2" />
  <circle cx="808.6" cy="544.6" r="2.2" />
  <circle cx="830.5" cy="540.5" r="2.2" />
  <circle cx="841.5" cy="541.7" r="2.2" />
  <circle cx="852.4" cy="542.1" r="2.2" />
  <circle cx="863.4" cy="542.8" r="2.2" />
</g>
<g class="pl" fill="#FFF" stroke="#666" stroke-width="0.900">
  <circle cx="162.0" cy="582.7" r="5.4" />
  <circle cx="271.6" cy="578.2" r="5.4" />
  <circle cx="381.2" cy="573.2" r="5.4" />
  <circle cx="490.8" cy="569.4" r="5.4" />
  <circle cx="600.4" cy="566.0" r="5.4" />
  <circle cx="710.0" cy="554.5" r="5.4" />
  <circle cx="819.5" cy="543.8" r="5.4" />
</g>
<g class="pl" fill="#F00" stroke="#000" stroke-width="0.900">
  <circle cx="874.3" cy="541.9" r="5.4" />
</g>
<text transform="translate(925.2,324.4)" dy="8.1" font-size="27.00" fill="#7B553E" stroke="none">Coal 887.0</text>
<text transform="translate(925.2,75.2)" dy="8.1" font-size="27.00" fill="#404040" stroke="none">Oil 1728.5</text>
<text transform="translate(925.2,228.0)" dy="8.1" font-size="27.00" fill="#6298C6" stroke="none">Gas 1212.6</text>
<text transform="translate(925.2,541.9)" dy="8.1" font-size="27.00" fill="#666" stroke="none">Cement 153.0</text>
<g stroke="none" stroke-width="0.9000"  >
  <polygon points="925.2,354.1 934.8,340.6 944.4,354.1 925.2,354.1" fill="#7B553E"/>
</g>
<text transform="translate(949.2,349.4)" dy="5.4" font-size="18.00" fill="#7B553E" stroke="none">1.0%</text>
<g stroke="none" stroke-width="0.9000"  >
  <polygon points="925.2,104.9 934.8,91.4 944.4,104.9 925.2,104.9" fill="#404040"/>
</g>
<text transform="translate(949.2,100.2)" dy="5.4" font-size="18.00" fill="#404040" stroke="none">1.1%</text>
<g stroke="none" stroke-width="0.9000"  >
  <polygon points="925.2,257.7 934.8,244.2 944.4,257.7 925.2,257.7" fill="#6298C6"/>
</g>
<text transform="translate(949.2,253.0)" dy="5.4" font-size="18.00" fill="#6298C6" stroke="none">1.8%</text>
<g stroke="none" stroke-width="0.9000"  >
  <polygon points="925.2,571.6 934.8,558.1 944.4,571.6 925.2,571.6" fill="#666"/>
</g>
<text transform="translate(949.2,566.8)" dy="5.4" font-size="18.00" fill="#666" stroke="none">2.4%</text>
<text transform="translate(925.2,45.5)" dy="0.0" font-size="18.00" fill="#808080" stroke="none">projected Mt C in 2025</text>
<text transform="translate(925.2,578.3)" dy="18.0" font-size="18.00" fill="#666" stroke="none">Non-fuel emissions</text>
<text transform="translate(145.6,47.2)" dy="0.0" font-size="27.00" fill="#808080" stroke="none">Annual Fossil CO<tspan dy="0.2em"><tspan style="font-size:70%">2</tspan></tspan><tspan dy="-0.2em"> </tspan>Emissions: Rest of World</text>
<text transform="translate(874.3,627.7)" dy="18.0" font-size="18.00" fill="#808080" stroke="none" text-anchor="middle">projected</text>
<text transform="translate(157.6,60.7)" dy="18.0" font-size="18.00" fill="#808080" stroke="none">Projected total emissions growth: +1.1% (-1.1% to +3.3%)</text>
<text transform="translate(160.2,666.1)" font-size="19.80" font-family="Helvetica" fill="#BFBFBF" stroke="none" xml:space="preserve">Global Carbon Project</text>
<g>
  <rect x="123.0" y="651.4" width="34" height="17" fill="#FFF" stroke="none" opacity="0.01"/>
  <g transform="translate(124.0,652.4) scale(0.24)">
  <g><circle fill="#FFF" cx="37.79" cy="28.5" r="28.84"/>
     <circle fill="none" cx="37.79" cy="28.5" r="28.84" stroke="#BFBFBF" stroke-width="5.5"/>
     <path fill="#BFBFBF" d="M37.16,23.19 l-4.29,2.23c-0.458-0.951-1.02-1.62-1.69-2c-0.667-0.38-1.29-0.571-1.86-0.571c-2.86,0-4.29,1.89-4.29,5.66 c0,1.71,0.36,3.08,1.09,4.11c0.724,1.03,1.79,1.54,3.2,1.54c1.87,0,3.18-0.915,3.94-2.74l3.94,2 c-0.838,1.56-2,2.79-3.49,3.69c-1.48,0.896-3.12,1.34-4.91,1.34c-2.86,0-5.16-0.875-6.92-2.63 c-1.75-1.75-2.63-4.19-2.63-7.31c0-3.05,0.886-5.47,2.66-7.26c1.77-1.79,4.01-2.69,6.72-2.69 C32.6,18.56,35.44,20.1,37.16,23.19z
              M55.61,23.19l-4.23,2.23c-0.457-0.951-1.02-1.62-1.69-2 c-0.668-0.38-1.31-0.571-1.91-0.571c-2.86,0-4.29,1.89-4.29,5.66c0,1.71,0.363,3.08,1.09,4.11 c0.723,1.03,1.79,1.54,3.2,1.54c1.87,0,3.18-0.915,3.94-2.74l4,2c-0.875,1.56-2.06,2.79-3.54,3.69 c-1.49,0.9-3.11,1.34-4.86,1.34c-2.9,0-5.21-0.875-6.94-2.63c-1.74-1.75-2.6-4.19-2.6-7.31 c0-3.05,0.885-5.47,2.66-7.26c1.77-1.79,4.01-2.69,6.71-2.69C51.12,18.56,53.944,20.1,55.61,23.19z"/>
  </g></g>
  <g transform="translate(140.2,652.4) scale(0.24)">
  <g><circle fill="#FFF" cx="37.79" cy="28.5" r="28.84"/>
     <circle fill="none" cx="37.79" cy="28.5" r="28.84" stroke="#BFBFBF" stroke-width="5.5"/>
     <path fill="#BFBFBF" d="M46.129,20.557v13.085h-3.656v15.542h-9.944V33.643h-3.656V20.557 c0-0.572,0.2-1.057,0.599-1.457c0.401-0.399,0.887-0.6,1.457-0.6h13.144c0.533,0,1.01,0.2,1.428,0.6 C45.918,19.5,46.129,19.986,46.129,20.557z
              M33.042,12.329c0-3.008,1.485-4.514,4.458-4.514s4.457,1.504,4.457,4.514 c0,2.971-1.486,4.457-4.457,4.457S33.042,15.3,33.042,12.329z"/>
  </g></g>
</g>
</g>
</svg>
