<svg version="1.1" xmlns="http://www.w3.org/2000/svg" xmlns:xlink="http://www.w3.org/1999/xlink" width="100%" height="100%" viewBox="0 0 1200.000 674.916">
<title>Changes in Global Fossil CO2 Emissions</title>
<style type="text/css">
  #main {font-family:Helvetica,Arial,sans-serif; font-size:27.00px;
         fill-opacity:1; fill:#000000; stroke:none; stroke-linejoin:round; stroke-linecap:round; stroke-width:1.00;}
  .marker {stroke-opacity:0;fill-opacity:0;}
  .marker:hover {stroke-opacity:0.5; fill-opacity:1;}
  .ticklabel {font-size:27.00px;fill:#808080;stroke:none;font-family:Helvetica}
  .ytl {text-anchor:end;}
  .dp1 {pointer-events:none;font-size:70%;text-anchor:middle;fill:#000000;}
  .dp2 {pointer-events:none;font-size:70%;text-anchor:middle;fill:#FFFFFF;}
  .numtip {pointer-events:none;}
  .cc {opacity:0.25;}
.dl_fe {background-color:#FDFFDF;display:flex;margin:auto;align-items:center}
.dl_fe_p {font-size:20px;text-align:center;margin:3px}
.dl_el {display:none;pointer-events:none;}
.cc:hover + .dl_el {display:block;}
text:hover + .dl_el {display:block;}
</style>
<defs>
  <clipPath id="axis_clip"><rect x="145.8" y="54.2" width="761.2" height="532.8" /></clipPath>
  <path id="line_x" d="M 145.600,0 h 761.600" stroke="#262626" stroke-opacity="0.15" stroke-width="1.00"/>
  <path id="tick_y" d="M 145.600,0 h -6.000" stroke="#808080" stroke-width="0.90"/>
  <path id="tick_x" d="M 0,587.177 v 6.000" stroke="#808080" stroke-width="0.90"/>
</defs>
<g id="main">
<use xlink:href="#line_x" transform="translate(0,508.2)"/>
<use xlink:href="#line_x" transform="translate(0,428.9)"/>
<use xlink:href="#line_x" transform="translate(0,349.6)"/>
<use xlink:href="#line_x" transform="translate(0,270.2)"/>
<use xlink:href="#line_x" transform="translate(0,190.9)"/>
<use xlink:href="#line_x" transform="translate(0,111.6)"/>
<use xlink:href="#tick_y" transform="translate(0,508.2)"/>
<use xlink:href="#tick_y" transform="translate(0,428.9)"/>
<use xlink:href="#tick_y" transform="translate(0,349.6)"/>
<use xlink:href="#tick_y" transform="translate(0,270.2)"/>
<use xlink:href="#tick_y" transform="translate(0,190.9)"/>
<use xlink:href="#tick_y" transform="translate(0,111.6)"/>
<use xlink:href="#tick_x" transform="translate(187.9,0)"/>
<use xlink:href="#tick_x" transform="translate(526.4,0)"/>
<use xlink:href="#tick_x" transform="translate(864.9,0)"/>
<polyline points="145.6,53.993 145.6,587.177 907.2,587.177" stroke="#808080" stroke-width="0.90" fill="none"/>
<text class="ticklabel xtl" transform="translate(187.9,629.0)" text-anchor="middle">2023</text>
<text class="ticklabel xtl" transform="translate(526.4,629.0)" text-anchor="middle">2024</text>
<text class="ticklabel xtl" transform="translate(864.9,629.0)" text-anchor="middle">2025</text>
<text class="ticklabel ytl" transform="translate(128.8,516.3)">10.15</text>
<text class="ticklabel ytl" transform="translate(128.8,437.0)">10.20</text>
<text class="ticklabel ytl" transform="translate(128.8,357.7)">10.25</text>
<text class="ticklabel ytl" transform="translate(128.8,278.3)">10.30</text>
<text class="ticklabel ytl" transform="translate(128.8,199.0)">10.35</text>
<text class="ticklabel ytl" transform="translate(128.8,119.7)">10.40</text>
<g stroke="#000" stroke-width="0.9000"  clip-path="url(#axis_clip)">
  <polygon points="171.0,16612.1 204.8,16612.1 204.8,477.3 171.0,477.3" fill="#B3B3B3"/>
  <polygon points="213.3,477.3 247.1,477.3 247.1,426.7 213.3,426.7" fill="#FF9F7A"/>
  <polygon points="255.6,426.7 289.5,426.7 289.5,452.1 255.6,452.1" fill="#1E8FFF"/>
  <polygon points="297.9,452.1 331.8,452.1 331.8,395.5 297.9,395.5" fill="#B955D2"/>
  <polygon points="340.2,395.5 374.1,395.5 374.1,406.4 340.2,406.4" fill="#522E1A"/>
  <polygon points="382.5,406.4 416.4,406.4 416.4,412.6 382.5,412.6" fill="#BCB66B"/>
  <polygon points="424.9,412.6 458.7,412.6 458.7,383.3 424.9,383.3" fill="#6AC"/>
  <polygon points="467.2,383.3 501.0,383.3 501.0,254.0 467.2,254.0" fill="#D43638"/>
  <polygon points="509.5,16612.1 543.3,16612.1 543.3,254.0 509.5,254.0" fill="#B3B3B3"/>
  <polygon points="551.8,254.0 585.6,254.0 585.6,245.1 551.8,245.1" fill="#FF9F7A"/>
  <polygon points="594.1,245.1 627.9,245.1 627.9,244.3 594.1,244.3" fill="#1E8FFF"/>
  <polygon points="636.4,244.3 670.3,244.3 670.3,228.7 636.4,228.7" fill="#B955D2"/>
  <polygon points="678.7,228.7 712.6,228.7 712.6,239.0 678.7,239.0" fill="#522E1A"/>
  <polygon points="721.0,239.0 754.9,239.0 754.9,203.5 721.0,203.5" fill="#BCB66B"/>
  <polygon points="763.3,203.5 797.2,203.5 797.2,186.7 763.3,186.7" fill="#6AC"/>
  <polygon points="805.7,186.7 839.5,186.7 839.5,111.2 805.7,111.2" fill="#D43638"/>
  <polygon points="848.0,16612.1 881.8,16612.1 881.8,111.2 848.0,111.2" fill="#B3B3B3"/>
</g>
<polyline class="pl" points="187.9,477.3 230.2,477.3" stroke="#000" stroke-width="0.90" stroke-opacity="1.00" fill="none" clip-path="url(#axis_clip)"/>
<polyline class="pl" points="230.2,426.7 272.5,426.7" stroke="#000" stroke-width="0.90" stroke-opacity="1.00" fill="none" clip-path="url(#axis_clip)"/>
<polyline class="pl" points="272.5,452.1 314.8,452.1" stroke="#000" stroke-width="0.90" stroke-opacity="1.00" fill="none" clip-path="url(#axis_clip)"/>
<polyline class="pl" points="314.8,395.5 357.2,395.5" stroke="#000" stroke-width="0.90" stroke-opacity="1.00" fill="none" clip-path="url(#axis_clip)"/>
<polyline class="pl" points="357.2,406.4 399.5,406.4" stroke="#000" stroke-width="0.90" stroke-opacity="1.00" fill="none" clip-path="url(#axis_clip)"/>
<polyline class="pl" points="399.5,412.6 441.8,412.6" stroke="#000" stroke-width="0.90" stroke-opacity="1.00" fill="none" clip-path="url(#axis_clip)"/>
<polyline class="pl" points="441.8,383.3 484.1,383.3" stroke="#000" stroke-width="0.90" stroke-opacity="1.00" fill="none" clip-path="url(#axis_clip)"/>
<polyline class="pl" points="484.1,254.0 526.4,254.0" stroke="#000" stroke-width="0.90" stroke-opacity="1.00" fill="none" clip-path="url(#axis_clip)"/>
<polyline class="pl" points="526.4,254.0 568.7,254.0" stroke="#000" stroke-width="0.90" stroke-opacity="1.00" fill="none" clip-path="url(#axis_clip)"/>
<polyline class="pl" points="568.7,245.1 611.0,245.1" stroke="#000" stroke-width="0.90" stroke-opacity="1.00" fill="none" clip-path="url(#axis_clip)"/>
<polyline class="pl" points="611.0,244.3 653.3,244.3" stroke="#000" stroke-width="0.90" stroke-opacity="1.00" fill="none" clip-path="url(#axis_clip)"/>
<polyline class="pl" points="653.3,228.7 695.6,228.7" stroke="#000" stroke-width="0.90" stroke-opacity="1.00" fill="none" clip-path="url(#axis_clip)"/>
<polyline class="pl" points="695.6,239.0 738.0,239.0" stroke="#000" stroke-width="0.90" stroke-opacity="1.00" fill="none" clip-path="url(#axis_clip)"/>
<polyline class="pl" points="738.0,203.5 780.3,203.5" stroke="#000" stroke-width="0.90" stroke-opacity="1.00" fill="none" clip-path="url(#axis_clip)"/>
<polyline class="pl" points="780.3,186.7 822.6,186.7" stroke="#000" stroke-width="0.90" stroke-opacity="1.00" fill="none" clip-path="url(#axis_clip)"/>
<polyline class="pl" points="822.6,111.2 864.9,111.2" stroke="#000" stroke-width="0.90" stroke-opacity="1.00" fill="none" clip-path="url(#axis_clip)"/>
<text transform="translate(230.2,414.1)" dy="0.0" font-size="16.95" fill="#FF9F7A" stroke="none" text-anchor="middle">China</text>
<text transform="translate(230.2,483.2)" dy="16.9" font-size="16.95" fill="#FF9F7A" stroke="none" text-anchor="middle">+0.03</text>
<text transform="translate(272.5,414.1)" dy="0.0" font-size="16.95" fill="#1E8FFF" stroke="none" text-anchor="middle">EU27</text>
<text transform="translate(272.5,458.0)" dy="16.9" font-size="16.95" fill="#1E8FFF" stroke="none" text-anchor="middle">-0.02</text>
<text transform="translate(314.8,382.9)" dy="0.0" font-size="16.95" fill="#B955D2" stroke="none" text-anchor="middle">India</text>
<text transform="translate(314.8,458.0)" dy="16.9" font-size="16.95" fill="#B955D2" stroke="none" text-anchor="middle">+0.04</text>
<text transform="translate(357.2,382.9)" dy="0.0" font-size="16.95" fill="#522E1A" stroke="none" text-anchor="middle">Japan</text>
<text transform="translate(357.2,412.2)" dy="16.9" font-size="16.95" fill="#522E1A" stroke="none" text-anchor="middle">-0.01</text>
<text transform="translate(399.5,393.8)" dy="0.0" font-size="16.95" fill="#BCB66B" stroke="none" text-anchor="middle">USA</text>
<text transform="translate(399.5,418.4)" dy="16.9" font-size="16.95" fill="#BCB66B" stroke="none" text-anchor="middle">-0.00</text>
<text transform="translate(441.8,370.7)"  font-size="16.95" fill="#6AC" stroke="none" text-anchor="middle">
      <tspan x="0" y="-19.0">Int'l</tspan><tspan x="0" y="0.0">aviation</tspan>
    </text>
<text transform="translate(441.8,418.4)" dy="16.9" font-size="16.95" fill="#6AC" stroke="none" text-anchor="middle">+0.02</text>
<text transform="translate(484.1,241.4)" dy="0.0" font-size="16.95" fill="#D43638" stroke="none" text-anchor="middle">Others</text>
<text transform="translate(484.1,389.2)" dy="16.9" font-size="16.95" fill="#D43638" stroke="none" text-anchor="middle">+0.08</text>
<text transform="translate(526.4,241.4)" dy="0.0" font-size="16.95" fill="#B3B3B3" stroke="none" text-anchor="middle" xml:space="preserve"> </text>
<text transform="translate(568.7,232.5)" dy="0.0" font-size="16.95" fill="#FF9F7A" stroke="none" text-anchor="middle">China</text>
<text transform="translate(568.7,259.8)" dy="16.9" font-size="16.95" fill="#FF9F7A" stroke="none" text-anchor="middle">+0.01</text>
<text transform="translate(611.0,231.7)" dy="0.0" font-size="16.95" fill="#1E8FFF" stroke="none" text-anchor="middle">EU27</text>
<text transform="translate(611.0,251.0)" dy="16.9" font-size="16.95" fill="#1E8FFF" stroke="none" text-anchor="middle">+0.00</text>
<text transform="translate(653.3,216.1)" dy="0.0" font-size="16.95" fill="#B955D2" stroke="none" text-anchor="middle">India</text>
<text transform="translate(653.3,250.1)" dy="16.9" font-size="16.95" fill="#B955D2" stroke="none" text-anchor="middle">+0.01</text>
<text transform="translate(695.6,216.1)" dy="0.0" font-size="16.95" fill="#522E1A" stroke="none" text-anchor="middle">Japan</text>
<text transform="translate(695.6,244.8)" dy="16.9" font-size="16.95" fill="#522E1A" stroke="none" text-anchor="middle">-0.01</text>
<text transform="translate(738.0,190.9)" dy="0.0" font-size="16.95" fill="#BCB66B" stroke="none" text-anchor="middle">USA</text>
<text transform="translate(738.0,244.8)" dy="16.9" font-size="16.95" fill="#BCB66B" stroke="none" text-anchor="middle">+0.02</text>
<text transform="translate(780.3,174.1)"  font-size="16.95" fill="#6AC" stroke="none" text-anchor="middle">
      <tspan x="0" y="-19.0">Int'l</tspan><tspan x="0" y="0.0">aviation</tspan>
    </text>
<text transform="translate(780.3,209.3)" dy="16.9" font-size="16.95" fill="#6AC" stroke="none" text-anchor="middle">+0.01</text>
<text transform="translate(822.6,98.6)" dy="0.0" font-size="16.95" fill="#D43638" stroke="none" text-anchor="middle">Others</text>
<text transform="translate(822.6,192.6)" dy="16.9" font-size="16.95" fill="#D43638" stroke="none" text-anchor="middle">+0.05</text>
<text transform="translate(145.6,47.2)" dy="0.0" font-size="27.00" fill="#808080" stroke="none">Changes in Global Fossil CO<tspan dy="0.2em"><tspan style="font-size:70%">2</tspan></tspan><tspan dy="-0.2em"> </tspan>Emissions</text>
<text transform="translate(130.0,139.3)" dy="8.1" font-size="27.00" fill="#808080" stroke="none" text-anchor="end">Gt C</text>
<text transform="translate(864.9,627.7)" dy="18.0" font-size="18.00" fill="#808080" stroke="none" text-anchor="middle">projected</text>
<text transform="translate(160.6,666.1)" font-size="19.80" font-family="Helvetica" fill="#BFBFBF" stroke="none" xml:space="preserve">Global Carbon Project</text>
<g>
  <rect x="123.0" y="651.4" width="34" height="17" fill="#FFF" stroke="none" opacity="0.01"/>
  <g transform="translate(124.0,652.4) scale(0.24)">
  <g><circle fill="#FFF" cx="37.79" cy="28.5" r="28.84"/>
     <circle fill="none" cx="37.79" cy="28.5" r="28.84" stroke="#BFBFBF" stroke-width="5.5"/>
     <path fill="#BFBFBF" d="M37.16,23.19 l-4.29,2.23c-0.458-0.951-1.02-1.62-1.69-2c-0.667-0.38-1.29-0.571-1.86-0.571c-2.86,0-4.29,1.89-4.29,5.66 c0,1.71,0.36,3.08,1.09,4.11c0.724,1.03,1.79,1.54,3.2,1.54c1.87,0,3.18-0.915,3.94-2.74l3.94,2 c-0.838,1.56-2,2.79-3.49,3.69c-1.48,0.896-3.12,1.34-4.91,1.34c-2.86,0-5.16-0.875-6.92-2.63 c-1.75-1.75-2.63-4.19-2.63-7.31c0-3.05,0.886-5.47,2.66-7.26c1.77-1.79,4.01-2.69,6.72-2.69 C32.6,18.56,35.44,20.1,37.16,23.19z
              M55.61,23.19l-4.23,2.23c-0.457-0.951-1.02-1.62-1.69-2 c-0.668-0.38-1.31-0.571-1.91-0.571c-2.86,0-4.29,1.89-4.29,5.66c0,1.71,0.363,3.08,1.09,4.11 c0.723,1.03,1.79,1.54,3.2,1.54c1.87,0,3.18-0.915,3.94-2.74l4,2c-0.875,1.56-2.06,2.79-3.54,3.69 c-1.49,0.9-3.11,1.34-4.86,1.34c-2.9,0-5.21-0.875-6.94-2.63c-1.74-1.75-2.6-4.19-2.6-7.31 c0-3.05,0.885-5.47,2.66-7.26c1.77-1.79,4.01-2.69,6.71-2.69C51.12,18.56,53.944,20.1,55.61,23.19z"/>
  </g></g>
  <g transform="translate(140.2,652.4) scale(0.24)">
  <g><circle fill="#FFF" cx="37.79" cy="28.5" r="28.84"/>
     <circle fill="none" cx="37.79" cy="28.5" r="28.84" stroke="#BFBFBF" stroke-width="5.5"/>
     <path fill="#BFBFBF" d="M46.129,20.557v13.085h-3.656v15.542h-9.944V33.643h-3.656V20.557 c0-0.572,0.2-1.057,0.599-1.457c0.401-0.399,0.887-0.6,1.457-0.6h13.144c0.533,0,1.01,0.2,1.428,0.6 C45.918,19.5,46.129,19.986,46.129,20.557z
              M33.042,12.329c0-3.008,1.485-4.514,4.458-4.514s4.457,1.504,4.457,4.514 c0,2.971-1.486,4.457-4.457,4.457S33.042,15.3,33.042,12.329z"/>
  </g></g>
</g>
</g>
</svg>
