<svg version="1.1" xmlns="http://www.w3.org/2000/svg" xmlns:xlink="http://www.w3.org/1999/xlink" width="100%" height="100%" viewBox="0 0 1200.000 674.916">
<title>Annual fossil CO2 emissions per unit GDP (PPP): top four emitters </title>
<style type="text/css">
  #main {font-family:Helvetica,Arial,sans-serif; font-size:27.00px;
         fill-opacity:1; fill:#000000; stroke:none; stroke-linejoin:round; stroke-linecap:round; stroke-width:1.00;}
  .marker {stroke-opacity:0;fill-opacity:0;}
  .marker:hover {stroke-opacity:0.5; fill-opacity:1;}
  .ticklabel {font-size:27.00px;fill:#808080;stroke:none;font-family:Helvetica}
  .ytl {text-anchor:end;}
  .dp1 {pointer-events:none;font-size:70%;text-anchor:middle;fill:#000000;}
  .dp2 {pointer-events:none;font-size:70%;text-anchor:middle;fill:#FFFFFF;}
  .numtip {pointer-events:none;}
  .cc {opacity:0.25;}
.dl_fe {background-color:#FDFFDF;display:flex;margin:auto;align-items:center}
.dl_fe_p {font-size:20px;text-align:center;margin:3px}
.dl_el {display:none;pointer-events:none;}
.cc:hover + .dl_el {display:block;}
text:hover + .dl_el {display:block;}
</style>
<defs>
  <clipPath id="axis_clip"><rect x="145.8" y="54.2" width="761.2" height="532.8" /></clipPath>
  <path id="line_x" d="M 145.600,0 h 761.600" stroke="#262626" stroke-opacity="0.15" stroke-width="1.00"/>
  <path id="tick_y" d="M 145.600,0 h -6.000" stroke="#808080" stroke-width="0.90"/>
  <path id="tick_x" d="M 0,587.177 v 6.000" stroke="#808080" stroke-width="0.90"/>
</defs>
<g id="main">
<use xlink:href="#line_x" transform="translate(0,587.2)"/>
<use xlink:href="#line_x" transform="translate(0,527.9)"/>
<use xlink:href="#line_x" transform="translate(0,468.7)"/>
<use xlink:href="#line_x" transform="translate(0,409.4)"/>
<use xlink:href="#line_x" transform="translate(0,350.2)"/>
<use xlink:href="#line_x" transform="translate(0,291.0)"/>
<use xlink:href="#line_x" transform="translate(0,231.7)"/>
<use xlink:href="#line_x" transform="translate(0,172.5)"/>
<use xlink:href="#line_x" transform="translate(0,113.2)"/>
<use xlink:href="#line_x" transform="translate(0,54.0)"/>
<use xlink:href="#tick_y" transform="translate(0,587.2)"/>
<use xlink:href="#tick_y" transform="translate(0,527.9)"/>
<use xlink:href="#tick_y" transform="translate(0,468.7)"/>
<use xlink:href="#tick_y" transform="translate(0,409.4)"/>
<use xlink:href="#tick_y" transform="translate(0,350.2)"/>
<use xlink:href="#tick_y" transform="translate(0,291.0)"/>
<use xlink:href="#tick_y" transform="translate(0,231.7)"/>
<use xlink:href="#tick_y" transform="translate(0,172.5)"/>
<use xlink:href="#tick_y" transform="translate(0,113.2)"/>
<use xlink:href="#tick_y" transform="translate(0,54.0)"/>
<use xlink:href="#tick_x" transform="translate(151.1,0)"/>
<use xlink:href="#tick_x" transform="translate(260.7,0)"/>
<use xlink:href="#tick_x" transform="translate(370.2,0)"/>
<use xlink:href="#tick_x" transform="translate(479.8,0)"/>
<use xlink:href="#tick_x" transform="translate(589.4,0)"/>
<use xlink:href="#tick_x" transform="translate(699.0,0)"/>
<use xlink:href="#tick_x" transform="translate(863.4,0)"/>
<polyline points="145.6,53.993 145.6,587.177 907.2,587.177" stroke="#808080" stroke-width="0.90" fill="none"/>
<text class="ticklabel xtl" transform="translate(151.1,629.0)" text-anchor="middle">1960</text>
<text class="ticklabel xtl" transform="translate(260.7,629.0)" text-anchor="middle">1970</text>
<text class="ticklabel xtl" transform="translate(370.2,629.0)" text-anchor="middle">1980</text>
<text class="ticklabel xtl" transform="translate(479.8,629.0)" text-anchor="middle">1990</text>
<text class="ticklabel xtl" transform="translate(589.4,629.0)" text-anchor="middle">2000</text>
<text class="ticklabel xtl" transform="translate(699.0,629.0)" text-anchor="middle">2010</text>
<text class="ticklabel xtl" transform="translate(863.4,629.0)" text-anchor="middle">2025</text>
<text class="ticklabel ytl" transform="translate(128.8,595.3)">0</text>
<text class="ticklabel ytl" transform="translate(128.8,536.0)">0.1</text>
<text class="ticklabel ytl" transform="translate(128.8,476.8)">0.2</text>
<text class="ticklabel ytl" transform="translate(128.8,417.5)">0.3</text>
<text class="ticklabel ytl" transform="translate(128.8,358.3)">0.4</text>
<text class="ticklabel ytl" transform="translate(128.8,299.1)">0.5</text>
<text class="ticklabel ytl" transform="translate(128.8,239.8)">0.6</text>
<text class="ticklabel ytl" transform="translate(128.8,180.6)">0.7</text>
<text class="ticklabel ytl" transform="translate(128.8,121.3)">0.8</text>
<text class="ticklabel ytl" transform="translate(128.8,62.1)">0.9 kg C</text>
<polyline class="pl" points="151.1,488.2 162.0,492.0 173.0,493.5 184.0,492.7 194.9,494.3 205.9,495.2 216.8,495.6 227.8,496.2 238.7,496.8 249.7,496.2 260.7,493.7 271.6,494.3 282.6,495.1 293.5,496.5 304.5,499.7 315.5,500.9 326.4,501.4 337.4,502.7 348.3,503.0 359.3,504.1 370.2,506.2 381.2,509.9 392.2,511.0 403.1,512.2 414.1,513.0 425.0,512.8 436.0,514.2 447.0,514.4 457.9,514.7 468.9,516.2 479.8,516.2 490.8,515.5 501.7,518.8 512.7,519.2 523.7,520.4 534.6,520.9 545.6,521.3 556.5,523.4 567.5,525.1 578.5,525.8 589.4,527.0 600.4,528.0 611.3,528.2 622.3,527.2 633.2,528.2 644.2,528.8 655.2,529.8 666.1,531.0 677.1,531.5 688.0,532.0 699.0,531.7 710.0,531.9 720.9,532.8 731.9,534.0 742.8,535.4 753.8,537.2 764.7,538.7 775.7,539.7 786.7,540.3 797.6,541.2 808.6,542.1 819.5,542.6 830.5,543.3 841.5,544.0 852.4,544.9 863.4,545.9" stroke="#808082" stroke-width="5.40" stroke-opacity="1.00" fill="none" clip-path="url(#axis_clip)"/>
<g class="pl" fill="#FFF" stroke="#808082" stroke-width="0.900">
  <circle cx="162.0" cy="492.0" r="2.2" />
  <circle cx="173.0" cy="493.5" r="2.2" />
  <circle cx="184.0" cy="492.7" r="2.2" />
  <circle cx="194.9" cy="494.3" r="2.2" />
  <circle cx="205.9" cy="495.2" r="2.2" />
  <circle cx="216.8" cy="495.6" r="2.2" />
  <circle cx="227.8" cy="496.2" r="2.2" />
  <circle cx="238.7" cy="496.8" r="2.2" />
  <circle cx="249.7" cy="496.2" r="2.2" />
  <circle cx="271.6" cy="494.3" r="2.2" />
  <circle cx="282.6" cy="495.1" r="2.2" />
  <circle cx="293.5" cy="496.5" r="2.2" />
  <circle cx="304.5" cy="499.7" r="2.2" />
  <circle cx="315.5" cy="500.9" r="2.2" />
  <circle cx="326.4" cy="501.4" r="2.2" />
  <circle cx="337.4" cy="502.7" r="2.2" />
  <circle cx="348.3" cy="503.0" r="2.2" />
  <circle cx="359.3" cy="504.1" r="2.2" />
  <circle cx="381.2" cy="509.9" r="2.2" />
  <circle cx="392.2" cy="511.0" r="2.2" />
  <circle cx="403.1" cy="512.2" r="2.2" />
  <circle cx="414.1" cy="513.0" r="2.2" />
  <circle cx="425.0" cy="512.8" r="2.2" />
  <circle cx="436.0" cy="514.2" r="2.2" />
  <circle cx="447.0" cy="514.4" r="2.2" />
  <circle cx="457.9" cy="514.7" r="2.2" />
  <circle cx="468.9" cy="516.2" r="2.2" />
  <circle cx="490.8" cy="515.5" r="2.2" />
  <circle cx="501.7" cy="518.8" r="2.2" />
  <circle cx="512.7" cy="519.2" r="2.2" />
  <circle cx="523.7" cy="520.4" r="2.2" />
  <circle cx="534.6" cy="520.9" r="2.2" />
  <circle cx="545.6" cy="521.3" r="2.2" />
  <circle cx="556.5" cy="523.4" r="2.2" />
  <circle cx="567.5" cy="525.1" r="2.2" />
  <circle cx="578.5" cy="525.8" r="2.2" />
  <circle cx="600.4" cy="528.0" r="2.2" />
  <circle cx="611.3" cy="528.2" r="2.2" />
  <circle cx="622.3" cy="527.2" r="2.2" />
  <circle cx="633.2" cy="528.2" r="2.2" />
  <circle cx="644.2" cy="528.8" r="2.2" />
  <circle cx="655.2" cy="529.8" r="2.2" />
  <circle cx="666.1" cy="531.0" r="2.2" />
  <circle cx="677.1" cy="531.5" r="2.2" />
  <circle cx="688.0" cy="532.0" r="2.2" />
  <circle cx="710.0" cy="531.9" r="2.2" />
  <circle cx="720.9" cy="532.8" r="2.2" />
  <circle cx="731.9" cy="534.0" r="2.2" />
  <circle cx="742.8" cy="535.4" r="2.2" />
  <circle cx="753.8" cy="537.2" r="2.2" />
  <circle cx="764.7" cy="538.7" r="2.2" />
  <circle cx="775.7" cy="539.7" r="2.2" />
  <circle cx="786.7" cy="540.3" r="2.2" />
  <circle cx="797.6" cy="541.2" r="2.2" />
  <circle cx="819.5" cy="542.6" r="2.2" />
  <circle cx="830.5" cy="543.3" r="2.2" />
  <circle cx="841.5" cy="544.0" r="2.2" />
  <circle cx="852.4" cy="544.9" r="2.2" />
  <circle cx="863.4" cy="545.9" r="2.2" />
</g>
<g class="pl" fill="#FFF" stroke="#808082" stroke-width="0.900">
  <circle cx="151.1" cy="488.2" r="5.4" />
  <circle cx="260.7" cy="493.7" r="5.4" />
  <circle cx="370.2" cy="506.2" r="5.4" />
  <circle cx="479.8" cy="516.2" r="5.4" />
  <circle cx="589.4" cy="527.0" r="5.4" />
  <circle cx="699.0" cy="531.7" r="5.4" />
  <circle cx="808.6" cy="542.1" r="5.4" />
</g>
<g class="pl" fill="#F00" stroke="#000" stroke-width="0.900">
  <circle cx="863.4" cy="545.9" r="5.4" />
</g>
<polyline class="pl" points="151.1,501.6 162.0,502.7 173.0,501.7 184.0,500.1 194.9,501.1 205.9,504.6 216.8,505.9 227.8,506.9 238.7,506.5 249.7,506.6 260.7,507.6 271.6,508.7 282.6,509.7 293.5,510.8 304.5,514.1 315.5,515.8 326.4,514.2 337.4,517.4 348.3,517.4 359.3,517.9 370.2,519.8 381.2,523.4 392.2,525.4 403.1,527.2 414.1,528.0 425.0,528.4 436.0,530.2 447.0,531.1 457.9,533.7 468.9,535.0 479.8,535.6 490.8,537.0 501.7,539.0 512.7,539.6 523.7,541.1 534.6,541.8 545.6,541.7 556.5,543.6 567.5,545.0 578.5,546.8 589.4,548.1 600.4,548.4 611.3,548.9 622.3,548.5 633.2,549.5 644.2,550.3 655.2,551.4 666.1,553.1 677.1,554.1 688.0,555.4 699.0,555.2 710.0,556.6 720.9,557.0 731.9,557.8 742.8,559.5 753.8,559.7 764.7,560.2 775.7,560.8 786.7,562.0 797.6,563.6 808.6,564.5 819.5,564.3 830.5,565.4 841.5,567.9 852.4,568.7 863.4,569.1" stroke="#1E8FFF" stroke-width="5.40" stroke-opacity="1.00" fill="none" clip-path="url(#axis_clip)"/>
<g class="pl" fill="#FFF" stroke="#1E8FFF" stroke-width="0.900">
  <circle cx="162.0" cy="502.7" r="2.2" />
  <circle cx="173.0" cy="501.7" r="2.2" />
  <circle cx="184.0" cy="500.1" r="2.2" />
  <circle cx="194.9" cy="501.1" r="2.2" />
  <circle cx="205.9" cy="504.6" r="2.2" />
  <circle cx="216.8" cy="505.9" r="2.2" />
  <circle cx="227.8" cy="506.9" r="2.2" />
  <circle cx="238.7" cy="506.5" r="2.2" />
  <circle cx="249.7" cy="506.6" r="2.2" />
  <circle cx="271.6" cy="508.7" r="2.2" />
  <circle cx="282.6" cy="509.7" r="2.2" />
  <circle cx="293.5" cy="510.8" r="2.2" />
  <circle cx="304.5" cy="514.1" r="2.2" />
  <circle cx="315.5" cy="515.8" r="2.2" />
  <circle cx="326.4" cy="514.2" r="2.2" />
  <circle cx="337.4" cy="517.4" r="2.2" />
  <circle cx="348.3" cy="517.4" r="2.2" />
  <circle cx="359.3" cy="517.9" r="2.2" />
  <circle cx="381.2" cy="523.4" r="2.2" />
  <circle cx="392.2" cy="525.4" r="2.2" />
  <circle cx="403.1" cy="527.2" r="2.2" />
  <circle cx="414.1" cy="528.0" r="2.2" />
  <circle cx="425.0" cy="528.4" r="2.2" />
  <circle cx="436.0" cy="530.2" r="2.2" />
  <circle cx="447.0" cy="531.1" r="2.2" />
  <circle cx="457.9" cy="533.7" r="2.2" />
  <circle cx="468.9" cy="535.0" r="2.2" />
  <circle cx="490.8" cy="537.0" r="2.2" />
  <circle cx="501.7" cy="539.0" r="2.2" />
  <circle cx="512.7" cy="539.6" r="2.2" />
  <circle cx="523.7" cy="541.1" r="2.2" />
  <circle cx="534.6" cy="541.8" r="2.2" />
  <circle cx="545.6" cy="541.7" r="2.2" />
  <circle cx="556.5" cy="543.6" r="2.2" />
  <circle cx="567.5" cy="545.0" r="2.2" />
  <circle cx="578.5" cy="546.8" r="2.2" />
  <circle cx="600.4" cy="548.4" r="2.2" />
  <circle cx="611.3" cy="548.9" r="2.2" />
  <circle cx="622.3" cy="548.5" r="2.2" />
  <circle cx="633.2" cy="549.5" r="2.2" />
  <circle cx="644.2" cy="550.3" r="2.2" />
  <circle cx="655.2" cy="551.4" r="2.2" />
  <circle cx="666.1" cy="553.1" r="2.2" />
  <circle cx="677.1" cy="554.1" r="2.2" />
  <circle cx="688.0" cy="555.4" r="2.2" />
  <circle cx="710.0" cy="556.6" r="2.2" />
  <circle cx="720.9" cy="557.0" r="2.2" />
  <circle cx="731.9" cy="557.8" r="2.2" />
  <circle cx="742.8" cy="559.5" r="2.2" />
  <circle cx="753.8" cy="559.7" r="2.2" />
  <circle cx="764.7" cy="560.2" r="2.2" />
  <circle cx="775.7" cy="560.8" r="2.2" />
  <circle cx="786.7" cy="562.0" r="2.2" />
  <circle cx="797.6" cy="563.6" r="2.2" />
  <circle cx="819.5" cy="564.3" r="2.2" />
  <circle cx="830.5" cy="565.4" r="2.2" />
  <circle cx="841.5" cy="567.9" r="2.2" />
  <circle cx="852.4" cy="568.7" r="2.2" />
  <circle cx="863.4" cy="569.1" r="2.2" />
</g>
<g class="pl" fill="#FFF" stroke="#1E8FFF" stroke-width="0.900">
  <circle cx="151.1" cy="501.6" r="5.4" />
  <circle cx="260.7" cy="507.6" r="5.4" />
  <circle cx="370.2" cy="519.8" r="5.4" />
  <circle cx="479.8" cy="535.6" r="5.4" />
  <circle cx="589.4" cy="548.1" r="5.4" />
  <circle cx="699.0" cy="555.2" r="5.4" />
  <circle cx="808.6" cy="564.5" r="5.4" />
</g>
<g class="pl" fill="#F00" stroke="#000" stroke-width="0.900">
  <circle cx="863.4" cy="569.1" r="5.4" />
</g>
<polyline class="pl" points="151.1,548.8 162.0,547.2 173.0,544.4 184.0,543.8 194.9,547.6 205.9,542.4 216.8,540.7 227.8,544.1 238.7,541.7 249.7,543.6 260.7,544.8 271.6,543.1 282.6,540.3 293.5,540.4 304.5,539.5 315.5,539.8 326.4,538.5 337.4,539.1 348.3,541.0 359.3,536.0 370.2,536.5 381.2,535.6 392.2,535.7 403.1,535.2 414.1,535.8 425.0,533.5 436.0,532.3 447.0,530.8 457.9,531.6 468.9,529.5 479.8,528.8 490.8,525.6 501.7,525.0 512.7,525.9 523.7,526.6 534.6,527.2 545.6,526.8 556.5,526.7 567.5,529.0 578.5,528.5 589.4,529.2 600.4,531.1 611.3,531.4 622.3,533.7 633.2,534.6 644.2,535.8 655.2,535.7 666.1,535.7 677.1,533.8 688.0,533.6 699.0,535.8 710.0,535.8 720.9,534.0 731.9,535.4 742.8,535.3 753.8,537.3 764.7,538.6 775.7,540.3 786.7,540.1 797.6,541.6 808.6,541.6 819.5,541.0 830.5,542.0 841.5,541.4 852.4,542.6 863.4,545.1" stroke="#B955D2" stroke-width="5.40" stroke-opacity="1.00" fill="none" clip-path="url(#axis_clip)"/>
<g class="pl" fill="#FFF" stroke="#B955D2" stroke-width="0.900">
  <circle cx="162.0" cy="547.2" r="2.2" />
  <circle cx="173.0" cy="544.4" r="2.2" />
  <circle cx="184.0" cy="543.8" r="2.2" />
  <circle cx="194.9" cy="547.6" r="2.2" />
  <circle cx="205.9" cy="542.4" r="2.2" />
  <circle cx="216.8" cy="540.7" r="2.2" />
  <circle cx="227.8" cy="544.1" r="2.2" />
  <circle cx="238.7" cy="541.7" r="2.2" />
  <circle cx="249.7" cy="543.6" r="2.2" />
  <circle cx="271.6" cy="543.1" r="2.2" />
  <circle cx="282.6" cy="540.3" r="2.2" />
  <circle cx="293.5" cy="540.4" r="2.2" />
  <circle cx="304.5" cy="539.5" r="2.2" />
  <circle cx="315.5" cy="539.8" r="2.2" />
  <circle cx="326.4" cy="538.5" r="2.2" />
  <circle cx="337.4" cy="539.1" r="2.2" />
  <circle cx="348.3" cy="541.0" r="2.2" />
  <circle cx="359.3" cy="536.0" r="2.2" />
  <circle cx="381.2" cy="535.6" r="2.2" />
  <circle cx="392.2" cy="535.7" r="2.2" />
  <circle cx="403.1" cy="535.2" r="2.2" />
  <circle cx="414.1" cy="535.8" r="2.2" />
  <circle cx="425.0" cy="533.5" r="2.2" />
  <circle cx="436.0" cy="532.3" r="2.2" />
  <circle cx="447.0" cy="530.8" r="2.2" />
  <circle cx="457.9" cy="531.6" r="2.2" />
  <circle cx="468.9" cy="529.5" r="2.2" />
  <circle cx="490.8" cy="525.6" r="2.2" />
  <circle cx="501.7" cy="525.0" r="2.2" />
  <circle cx="512.7" cy="525.9" r="2.2" />
  <circle cx="523.7" cy="526.6" r="2.2" />
  <circle cx="534.6" cy="527.2" r="2.2" />
  <circle cx="545.6" cy="526.8" r="2.2" />
  <circle cx="556.5" cy="526.7" r="2.2" />
  <circle cx="567.5" cy="529.0" r="2.2" />
  <circle cx="578.5" cy="528.5" r="2.2" />
  <circle cx="600.4" cy="531.1" r="2.2" />
  <circle cx="611.3" cy="531.4" r="2.2" />
  <circle cx="622.3" cy="533.7" r="2.2" />
  <circle cx="633.2" cy="534.6" r="2.2" />
  <circle cx="644.2" cy="535.8" r="2.2" />
  <circle cx="655.2" cy="535.7" r="2.2" />
  <circle cx="666.1" cy="535.7" r="2.2" />
  <circle cx="677.1" cy="533.8" r="2.2" />
  <circle cx="688.0" cy="533.6" r="2.2" />
  <circle cx="710.0" cy="535.8" r="2.2" />
  <circle cx="720.9" cy="534.0" r="2.2" />
  <circle cx="731.9" cy="535.4" r="2.2" />
  <circle cx="742.8" cy="535.3" r="2.2" />
  <circle cx="753.8" cy="537.3" r="2.2" />
  <circle cx="764.7" cy="538.6" r="2.2" />
  <circle cx="775.7" cy="540.3" r="2.2" />
  <circle cx="786.7" cy="540.1" r="2.2" />
  <circle cx="797.6" cy="541.6" r="2.2" />
  <circle cx="819.5" cy="541.0" r="2.2" />
  <circle cx="830.5" cy="542.0" r="2.2" />
  <circle cx="841.5" cy="541.4" r="2.2" />
  <circle cx="852.4" cy="542.6" r="2.2" />
  <circle cx="863.4" cy="545.1" r="2.2" />
</g>
<g class="pl" fill="#FFF" stroke="#B955D2" stroke-width="0.900">
  <circle cx="151.1" cy="548.8" r="5.4" />
  <circle cx="260.7" cy="544.8" r="5.4" />
  <circle cx="370.2" cy="536.5" r="5.4" />
  <circle cx="479.8" cy="528.8" r="5.4" />
  <circle cx="589.4" cy="529.2" r="5.4" />
  <circle cx="699.0" cy="535.8" r="5.4" />
  <circle cx="808.6" cy="541.6" r="5.4" />
</g>
<g class="pl" fill="#F00" stroke="#000" stroke-width="0.900">
  <circle cx="863.4" cy="545.1" r="5.4" />
</g>
<polyline class="pl" points="151.1,455.6 162.0,459.0 173.0,461.9 184.0,461.9 194.9,463.5 205.9,466.1 216.8,467.8 227.8,466.3 238.7,467.6 249.7,465.4 260.7,455.7 271.6,459.2 282.6,459.8 293.5,461.2 304.5,465.0 315.5,469.9 326.4,470.7 337.4,472.7 348.3,475.4 359.3,478.5 370.2,482.2 381.2,488.9 392.2,492.2 403.1,495.6 414.1,499.2 425.0,502.4 436.0,505.2 447.0,504.5 457.9,504.3 468.9,506.3 479.8,505.0 490.8,505.8 501.7,507.0 512.7,507.6 523.7,509.5 534.6,510.6 545.6,511.0 556.5,513.3 567.5,515.7 578.5,518.2 589.4,518.4 600.4,520.4 611.3,521.0 622.3,522.2 633.2,523.5 644.2,525.5 655.2,527.9 666.1,528.4 677.1,530.4 688.0,533.1 699.0,532.8 710.0,534.9 720.9,538.0 731.9,537.6 742.8,538.2 753.8,540.9 764.7,542.7 775.7,544.1 786.7,543.9 797.6,545.9 808.6,548.9 819.5,548.4 830.5,549.5 841.5,551.3 852.4,552.0 863.4,552.0" stroke="#BCB66B" stroke-width="5.40" stroke-opacity="1.00" fill="none" clip-path="url(#axis_clip)"/>
<g class="pl" fill="#FFF" stroke="#BCB66B" stroke-width="0.900">
  <circle cx="162.0" cy="459.0" r="2.2" />
  <circle cx="173.0" cy="461.9" r="2.2" />
  <circle cx="184.0" cy="461.9" r="2.2" />
  <circle cx="194.9" cy="463.5" r="2.2" />
  <circle cx="205.9" cy="466.1" r="2.2" />
  <circle cx="216.8" cy="467.8" r="2.2" />
  <circle cx="227.8" cy="466.3" r="2.2" />
  <circle cx="238.7" cy="467.6" r="2.2" />
  <circle cx="249.7" cy="465.4" r="2.2" />
  <circle cx="271.6" cy="459.2" r="2.2" />
  <circle cx="282.6" cy="459.8" r="2.2" />
  <circle cx="293.5" cy="461.2" r="2.2" />
  <circle cx="304.5" cy="465.0" r="2.2" />
  <circle cx="315.5" cy="469.9" r="2.2" />
  <circle cx="326.4" cy="470.7" r="2.2" />
  <circle cx="337.4" cy="472.7" r="2.2" />
  <circle cx="348.3" cy="475.4" r="2.2" />
  <circle cx="359.3" cy="478.5" r="2.2" />
  <circle cx="381.2" cy="488.9" r="2.2" />
  <circle cx="392.2" cy="492.2" r="2.2" />
  <circle cx="403.1" cy="495.6" r="2.2" />
  <circle cx="414.1" cy="499.2" r="2.2" />
  <circle cx="425.0" cy="502.4" r="2.2" />
  <circle cx="436.0" cy="505.2" r="2.2" />
  <circle cx="447.0" cy="504.5" r="2.2" />
  <circle cx="457.9" cy="504.3" r="2.2" />
  <circle cx="468.9" cy="506.3" r="2.2" />
  <circle cx="490.8" cy="505.8" r="2.2" />
  <circle cx="501.7" cy="507.0" r="2.2" />
  <circle cx="512.7" cy="507.6" r="2.2" />
  <circle cx="523.7" cy="509.5" r="2.2" />
  <circle cx="534.6" cy="510.6" r="2.2" />
  <circle cx="545.6" cy="511.0" r="2.2" />
  <circle cx="556.5" cy="513.3" r="2.2" />
  <circle cx="567.5" cy="515.7" r="2.2" />
  <circle cx="578.5" cy="518.2" r="2.2" />
  <circle cx="600.4" cy="520.4" r="2.2" />
  <circle cx="611.3" cy="521.0" r="2.2" />
  <circle cx="622.3" cy="522.2" r="2.2" />
  <circle cx="633.2" cy="523.5" r="2.2" />
  <circle cx="644.2" cy="525.5" r="2.2" />
  <circle cx="655.2" cy="527.9" r="2.2" />
  <circle cx="666.1" cy="528.4" r="2.2" />
  <circle cx="677.1" cy="530.4" r="2.2" />
  <circle cx="688.0" cy="533.1" r="2.2" />
  <circle cx="710.0" cy="534.9" r="2.2" />
  <circle cx="720.9" cy="538.0" r="2.2" />
  <circle cx="731.9" cy="537.6" r="2.2" />
  <circle cx="742.8" cy="538.2" r="2.2" />
  <circle cx="753.8" cy="540.9" r="2.2" />
  <circle cx="764.7" cy="542.7" r="2.2" />
  <circle cx="775.7" cy="544.1" r="2.2" />
  <circle cx="786.7" cy="543.9" r="2.2" />
  <circle cx="797.6" cy="545.9" r="2.2" />
  <circle cx="819.5" cy="548.4" r="2.2" />
  <circle cx="830.5" cy="549.5" r="2.2" />
  <circle cx="841.5" cy="551.3" r="2.2" />
  <circle cx="852.4" cy="552.0" r="2.2" />
  <circle cx="863.4" cy="552.0" r="2.2" />
</g>
<g class="pl" fill="#FFF" stroke="#BCB66B" stroke-width="0.900">
  <circle cx="151.1" cy="455.6" r="5.4" />
  <circle cx="260.7" cy="455.7" r="5.4" />
  <circle cx="370.2" cy="482.2" r="5.4" />
  <circle cx="479.8" cy="505.0" r="5.4" />
  <circle cx="589.4" cy="518.4" r="5.4" />
  <circle cx="699.0" cy="532.8" r="5.4" />
  <circle cx="808.6" cy="548.9" r="5.4" />
</g>
<g class="pl" fill="#F00" stroke="#000" stroke-width="0.900">
  <circle cx="863.4" cy="552.0" r="5.4" />
</g>
<polyline class="pl" points="151.1,68.6 162.0,77.9 173.0,152.7 184.0,195.7 194.9,253.1 205.9,277.0 216.8,279.3 227.8,313.5 238.7,279.9 249.7,264.9 260.7,228.0 271.6,209.7 282.6,199.9 293.5,213.1 304.5,214.5 315.5,192.6 326.4,171.7 337.4,165.0 348.3,166.2 359.3,187.3 370.2,223.9 381.2,245.8 392.2,246.4 403.1,262.8 414.1,280.6 425.0,294.5 436.0,304.2 447.0,315.3 457.9,324.5 468.9,331.2 479.8,338.7 490.8,347.4 501.7,368.3 512.7,382.1 523.7,394.5 534.6,399.1 545.6,408.5 556.5,423.0 567.5,441.8 578.5,444.3 589.4,452.0 600.4,459.6 611.3,458.6 622.3,449.3 633.2,452.2 644.2,450.4 655.2,453.4 666.1,461.2 677.1,463.8 688.0,468.5 699.0,470.0 710.0,469.0 720.9,474.7 731.9,481.0 742.8,488.0 753.8,495.6 764.7,502.4 775.7,505.9 786.7,508.4 797.6,510.3 808.6,510.7 819.5,513.9 830.5,514.3 841.5,515.1 852.4,517.9 863.4,521.1" stroke="#FF9F7A" stroke-width="5.40" stroke-opacity="1.00" fill="none" clip-path="url(#axis_clip)"/>
<g class="pl" fill="#FFF" stroke="#FF9F7A" stroke-width="0.900">
  <circle cx="162.0" cy="77.9" r="2.2" />
  <circle cx="173.0" cy="152.7" r="2.2" />
  <circle cx="184.0" cy="195.7" r="2.2" />
  <circle cx="194.9" cy="253.1" r="2.2" />
  <circle cx="205.9" cy="277.0" r="2.2" />
  <circle cx="216.8" cy="279.3" r="2.2" />
  <circle cx="227.8" cy="313.5" r="2.2" />
  <circle cx="238.7" cy="279.9" r="2.2" />
  <circle cx="249.7" cy="264.9" r="2.2" />
  <circle cx="271.6" cy="209.7" r="2.2" />
  <circle cx="282.6" cy="199.9" r="2.2" />
  <circle cx="293.5" cy="213.1" r="2.2" />
  <circle cx="304.5" cy="214.5" r="2.2" />
  <circle cx="315.5" cy="192.6" r="2.2" />
  <circle cx="326.4" cy="171.7" r="2.2" />
  <circle cx="337.4" cy="165.0" r="2.2" />
  <circle cx="348.3" cy="166.2" r="2.2" />
  <circle cx="359.3" cy="187.3" r="2.2" />
  <circle cx="381.2" cy="245.8" r="2.2" />
  <circle cx="392.2" cy="246.4" r="2.2" />
  <circle cx="403.1" cy="262.8" r="2.2" />
  <circle cx="414.1" cy="280.6" r="2.2" />
  <circle cx="425.0" cy="294.5" r="2.2" />
  <circle cx="436.0" cy="304.2" r="2.2" />
  <circle cx="447.0" cy="315.3" r="2.2" />
  <circle cx="457.9" cy="324.5" r="2.2" />
  <circle cx="468.9" cy="331.2" r="2.2" />
  <circle cx="490.8" cy="347.4" r="2.2" />
  <circle cx="501.7" cy="368.3" r="2.2" />
  <circle cx="512.7" cy="382.1" r="2.2" />
  <circle cx="523.7" cy="394.5" r="2.2" />
  <circle cx="534.6" cy="399.1" r="2.2" />
  <circle cx="545.6" cy="408.5" r="2.2" />
  <circle cx="556.5" cy="423.0" r="2.2" />
  <circle cx="567.5" cy="441.8" r="2.2" />
  <circle cx="578.5" cy="444.3" r="2.2" />
  <circle cx="600.4" cy="459.6" r="2.2" />
  <circle cx="611.3" cy="458.6" r="2.2" />
  <circle cx="622.3" cy="449.3" r="2.2" />
  <circle cx="633.2" cy="452.2" r="2.2" />
  <circle cx="644.2" cy="450.4" r="2.2" />
  <circle cx="655.2" cy="453.4" r="2.2" />
  <circle cx="666.1" cy="461.2" r="2.2" />
  <circle cx="677.1" cy="463.8" r="2.2" />
  <circle cx="688.0" cy="468.5" r="2.2" />
  <circle cx="710.0" cy="469.0" r="2.2" />
  <circle cx="720.9" cy="474.7" r="2.2" />
  <circle cx="731.9" cy="481.0" r="2.2" />
  <circle cx="742.8" cy="488.0" r="2.2" />
  <circle cx="753.8" cy="495.6" r="2.2" />
  <circle cx="764.7" cy="502.4" r="2.2" />
  <circle cx="775.7" cy="505.9" r="2.2" />
  <circle cx="786.7" cy="508.4" r="2.2" />
  <circle cx="797.6" cy="510.3" r="2.2" />
  <circle cx="819.5" cy="513.9" r="2.2" />
  <circle cx="830.5" cy="514.3" r="2.2" />
  <circle cx="841.5" cy="515.1" r="2.2" />
  <circle cx="852.4" cy="517.9" r="2.2" />
  <circle cx="863.4" cy="521.1" r="2.2" />
</g>
<g class="pl" fill="#FFF" stroke="#FF9F7A" stroke-width="0.900">
  <circle cx="151.1" cy="68.6" r="5.4" />
  <circle cx="260.7" cy="228.0" r="5.4" />
  <circle cx="370.2" cy="223.9" r="5.4" />
  <circle cx="479.8" cy="338.7" r="5.4" />
  <circle cx="589.4" cy="452.0" r="5.4" />
  <circle cx="699.0" cy="470.0" r="5.4" />
  <circle cx="808.6" cy="510.7" r="5.4" />
</g>
<g class="pl" fill="#F00" stroke="#000" stroke-width="0.900">
  <circle cx="863.4" cy="521.1" r="5.4" />
</g>
<text transform="translate(145.6,47.2)" dy="0.0" font-size="27.00" fill="#808080" stroke="none" xml:space="preserve">Annual fossil CO<tspan dy="0.2em"><tspan style="font-size:70%">2</tspan></tspan><tspan dy="-0.2em"> </tspan>emissions per unit GDP (PPP): top four emitters </text>
<text transform="translate(945.6,535.3)" dy="8.1" font-size="27.00" fill="#808082" stroke="none">World 0.07</text>
<text transform="translate(945.6,483.4)" dy="8.1" font-size="27.00" fill="#FF9F7A" stroke="none">China 0.11</text>
<text transform="translate(945.6,561.2)" dy="8.1" font-size="27.00" fill="#BCB66B" stroke="none">USA 0.06</text>
<text transform="translate(945.6,509.4)" dy="8.1" font-size="27.00" fill="#B955D2" stroke="none">India 0.07</text>
<text transform="translate(945.6,587.2)" dy="8.1" font-size="27.00" fill="#1E8FFF" stroke="none">EU27 0.03</text>
<polyline class="pl" points="910.8,545.9 912.4,545.9 913.8,545.8 915.2,545.6 916.4,545.4 917.6,545.1 918.8,544.8 919.8,544.4 920.8,544.0 921.7,543.5 922.7,543.0 923.5,542.5 924.4,542.0 925.2,541.4 926.0,540.9 926.8,540.3 927.6,539.8 928.4,539.3 929.3,538.7 930.1,538.2 931.1,537.7 932.0,537.3 933.0,536.9 934.0,536.5 935.2,536.1 936.4,535.9 937.6,535.6 939.0,535.4 940.4,535.3 942.0,535.3" stroke="#808082" stroke-width="0.90" stroke-opacity="1.00" fill="none" />
<polyline class="pl" points="910.8,521.1 912.4,521.0 913.8,520.6 915.2,520.0 916.4,519.1 917.6,518.1 918.8,516.9 919.8,515.6 920.8,514.1 921.7,512.5 922.7,510.7 923.5,508.9 924.4,507.1 925.2,505.2 926.0,503.2 926.8,501.3 927.6,499.3 928.4,497.4 929.3,495.6 930.1,493.8 931.1,492.1 932.0,490.4 933.0,488.9 934.0,487.6 935.2,486.4 936.4,485.4 937.6,484.5 939.0,483.9 940.4,483.6 942.0,483.4" stroke="#FF9F7A" stroke-width="0.90" stroke-opacity="1.00" fill="none" />
<polyline class="pl" points="910.8,552.0 912.4,552.0 913.8,552.1 915.2,552.2 916.4,552.4 917.6,552.7 918.8,553.0 919.8,553.3 920.8,553.7 921.7,554.1 922.7,554.5 923.5,555.0 924.4,555.4 925.2,555.9 926.0,556.4 926.8,556.8 927.6,557.3 928.4,557.8 929.3,558.2 930.1,558.7 931.1,559.1 932.0,559.5 933.0,559.9 934.0,560.2 935.2,560.5 936.4,560.8 937.6,561.0 939.0,561.1 940.4,561.2 942.0,561.2" stroke="#BCB66B" stroke-width="0.90" stroke-opacity="1.00" fill="none" />
<polyline class="pl" points="910.8,545.1 912.4,544.9 913.8,544.6 915.2,544.0 916.4,543.2 917.6,542.3 918.8,541.1 919.8,539.8 920.8,538.4 921.7,536.9 922.7,535.3 923.5,533.6 924.4,531.8 925.2,530.0 926.0,528.1 926.8,526.3 927.6,524.5 928.4,522.6 929.3,520.9 930.1,519.2 931.1,517.5 932.0,516.0 933.0,514.6 934.0,513.3 935.2,512.2 936.4,511.2 937.6,510.4 939.0,509.8 940.4,509.5 942.0,509.4" stroke="#B955D2" stroke-width="0.90" stroke-opacity="1.00" fill="none" />
<polyline class="pl" points="910.8,569.1 912.4,569.1 913.8,569.3 915.2,569.6 916.4,570.0 917.6,570.5 918.8,571.1 919.8,571.7 920.8,572.4 921.7,573.2 922.7,574.0 923.5,574.9 924.4,575.8 925.2,576.7 926.0,577.7 926.8,578.6 927.6,579.5 928.4,580.4 929.3,581.3 930.1,582.2 931.1,583.0 932.0,583.8 933.0,584.5 934.0,585.2 935.2,585.7 936.4,586.2 937.6,586.6 939.0,586.9 940.4,587.1 942.0,587.2" stroke="#1E8FFF" stroke-width="0.90" stroke-opacity="1.00" fill="none" />
<g stroke="none" stroke-width="0.9000"  >
  <polygon points="1086.5,528.6 1096.1,542.0 1105.7,528.6 1086.5,528.6" fill="#808082"/>
</g>
<text transform="translate(1110.5,537.3)" dy="5.4" font-size="18.00" fill="#808082" stroke="none">2.3%</text>
<g stroke="none" stroke-width="0.9000"  >
  <polygon points="1086.5,476.7 1096.1,490.2 1105.7,476.7 1086.5,476.7" fill="#FF9F7A"/>
</g>
<text transform="translate(1110.5,485.4)" dy="5.4" font-size="18.00" fill="#FF9F7A" stroke="none">4.3%</text>
<g stroke="none" stroke-width="0.9000"  >
  <polygon points="1071.2,568.0 1080.8,554.5 1090.4,568.0 1071.2,568.0" fill="#BCB66B"/>
</g>
<text transform="translate(1095.2,563.3)" dy="5.4" font-size="18.00" fill="#BCB66B" stroke="none">0.3%</text>
<g stroke="none" stroke-width="0.9000"  >
  <polygon points="1073.9,502.6 1083.5,516.1 1093.1,502.6 1073.9,502.6" fill="#B955D2"/>
</g>
<text transform="translate(1097.9,511.4)" dy="5.4" font-size="18.00" fill="#B955D2" stroke="none">5.3%</text>
<g stroke="none" stroke-width="0.9000"  >
  <polygon points="1082.9,580.4 1092.5,593.9 1102.1,580.4 1082.9,580.4" fill="#1E8FFF"/>
</g>
<text transform="translate(1106.9,589.2)" dy="5.4" font-size="18.00" fill="#1E8FFF" stroke="none">1.5%</text>
<text transform="translate(945.6,453.7)" dy="0.0" font-size="18.00" fill="#808080" stroke="none">kg/USD in 2025</text>
<text transform="translate(863.4,627.7)" dy="18.0" font-size="18.00" fill="#808080" stroke="none" text-anchor="middle">projected</text>
<text transform="translate(160.2,666.1)" font-size="19.80" font-family="Helvetica" fill="#BFBFBF" stroke="none" xml:space="preserve">Global Carbon Project</text>
<g>
  <rect x="123.0" y="651.4" width="34" height="17" fill="#FFF" stroke="none" opacity="0.01"/>
  <g transform="translate(124.0,652.4) scale(0.24)">
  <g><circle fill="#FFF" cx="37.79" cy="28.5" r="28.84"/>
     <circle fill="none" cx="37.79" cy="28.5" r="28.84" stroke="#BFBFBF" stroke-width="5.5"/>
     <path fill="#BFBFBF" d="M37.16,23.19 l-4.29,2.23c-0.458-0.951-1.02-1.62-1.69-2c-0.667-0.38-1.29-0.571-1.86-0.571c-2.86,0-4.29,1.89-4.29,5.66 c0,1.71,0.36,3.08,1.09,4.11c0.724,1.03,1.79,1.54,3.2,1.54c1.87,0,3.18-0.915,3.94-2.74l3.94,2 c-0.838,1.56-2,2.79-3.49,3.69c-1.48,0.896-3.12,1.34-4.91,1.34c-2.86,0-5.16-0.875-6.92-2.63 c-1.75-1.75-2.63-4.19-2.63-7.31c0-3.05,0.886-5.47,2.66-7.26c1.77-1.79,4.01-2.69,6.72-2.69 C32.6,18.56,35.44,20.1,37.16,23.19z
              M55.61,23.19l-4.23,2.23c-0.457-0.951-1.02-1.62-1.69-2 c-0.668-0.38-1.31-0.571-1.91-0.571c-2.86,0-4.29,1.89-4.29,5.66c0,1.71,0.363,3.08,1.09,4.11 c0.723,1.03,1.79,1.54,3.2,1.54c1.87,0,3.18-0.915,3.94-2.74l4,2c-0.875,1.56-2.06,2.79-3.54,3.69 c-1.49,0.9-3.11,1.34-4.86,1.34c-2.9,0-5.21-0.875-6.94-2.63c-1.74-1.75-2.6-4.19-2.6-7.31 c0-3.05,0.885-5.47,2.66-7.26c1.77-1.79,4.01-2.69,6.71-2.69C51.12,18.56,53.944,20.1,55.61,23.19z"/>
  </g></g>
  <g transform="translate(140.2,652.4) scale(0.24)">
  <g><circle fill="#FFF" cx="37.79" cy="28.5" r="28.84"/>
     <circle fill="none" cx="37.79" cy="28.5" r="28.84" stroke="#BFBFBF" stroke-width="5.5"/>
     <path fill="#BFBFBF" d="M46.129,20.557v13.085h-3.656v15.542h-9.944V33.643h-3.656V20.557 c0-0.572,0.2-1.057,0.599-1.457c0.401-0.399,0.887-0.6,1.457-0.6h13.144c0.533,0,1.01,0.2,1.428,0.6 C45.918,19.5,46.129,19.986,46.129,20.557z
              M33.042,12.329c0-3.008,1.485-4.514,4.458-4.514s4.457,1.504,4.457,4.514 c0,2.971-1.486,4.457-4.457,4.457S33.042,15.3,33.042,12.329z"/>
  </g></g>
</g>
</g>
</svg>
