<svg version="1.1" xmlns="http://www.w3.org/2000/svg" xmlns:xlink="http://www.w3.org/1999/xlink" width="100%" height="100%" viewBox="0 0 1200.000 674.916">
<title>Annual Greenhouse Gas Emissions: Canada</title>
<style type="text/css">
  #main {font-family:Helvetica,Arial,sans-serif; font-size:27.00px;
         fill-opacity:1; fill:#000000; stroke:none; stroke-linejoin:round; stroke-linecap:round; stroke-width:1.00;}
  .marker {stroke-opacity:0;fill-opacity:0;}
  .marker:hover {stroke-opacity:0.5; fill-opacity:1;}
  .ticklabel {font-size:27.00px;fill:#808080;stroke:none;font-family:Helvetica}
  .ytl {text-anchor:end;}
  .dp1 {pointer-events:none;font-size:70%;text-anchor:middle;fill:#000000;}
  .dp2 {pointer-events:none;font-size:70%;text-anchor:middle;fill:#FFFFFF;}
  .numtip {pointer-events:none;}
  .cc {opacity:0.25;}
.dl_fe {background-color:#FDFFDF;display:flex;margin:auto;align-items:center}
.dl_fe_p {font-size:20px;text-align:center;margin:3px}
.dl_el {display:none;pointer-events:none;}
.cc:hover + .dl_el {display:block;}
text:hover + .dl_el {display:block;}
</style>
<defs>
  <clipPath id="axis_clip"><rect x="145.8" y="54.2" width="761.2" height="532.8" /></clipPath>
  <path id="line_y" d="M 0,53.993 v 533.183" stroke="#262626" stroke-opacity="0.15" stroke-width="1.00"/>
  <path id="line_x" d="M 145.600,0 h 761.600" stroke="#262626" stroke-opacity="0.15" stroke-width="1.00"/>
  <path id="tick_y" d="M 145.600,0 h -6.000" stroke="#808080" stroke-width="0.90"/>
  <path id="tick_x" d="M 0,587.177 v 6.000" stroke="#808080" stroke-width="0.90"/>
</defs>
<g id="main">
<use xlink:href="#line_y" transform="translate(156.8,0)"/>
<use xlink:href="#line_y" transform="translate(268.8,0)"/>
<use xlink:href="#line_y" transform="translate(380.8,0)"/>
<use xlink:href="#line_y" transform="translate(492.8,0)"/>
<use xlink:href="#line_y" transform="translate(604.8,0)"/>
<use xlink:href="#line_y" transform="translate(716.8,0)"/>
<use xlink:href="#line_y" transform="translate(828.8,0)"/>
<use xlink:href="#line_y" transform="translate(896.0,0)"/>
<use xlink:href="#line_x" transform="translate(0,587.2)"/>
<use xlink:href="#line_x" transform="translate(0,468.7)"/>
<use xlink:href="#line_x" transform="translate(0,350.2)"/>
<use xlink:href="#line_x" transform="translate(0,231.7)"/>
<use xlink:href="#line_x" transform="translate(0,113.2)"/>
<use xlink:href="#tick_y" transform="translate(0,587.2)"/>
<use xlink:href="#tick_y" transform="translate(0,468.7)"/>
<use xlink:href="#tick_y" transform="translate(0,350.2)"/>
<use xlink:href="#tick_y" transform="translate(0,231.7)"/>
<use xlink:href="#tick_y" transform="translate(0,113.2)"/>
<use xlink:href="#tick_x" transform="translate(156.8,0)"/>
<use xlink:href="#tick_x" transform="translate(268.8,0)"/>
<use xlink:href="#tick_x" transform="translate(380.8,0)"/>
<use xlink:href="#tick_x" transform="translate(492.8,0)"/>
<use xlink:href="#tick_x" transform="translate(604.8,0)"/>
<use xlink:href="#tick_x" transform="translate(716.8,0)"/>
<use xlink:href="#tick_x" transform="translate(828.8,0)"/>
<use xlink:href="#tick_x" transform="translate(896.0,0)"/>
<polyline points="145.6,53.993 145.6,587.177 907.2,587.177" stroke="#808080" stroke-width="0.90" fill="none"/>
<text class="ticklabel xtl" transform="translate(156.8,629.0)" text-anchor="middle">1990</text>
<text class="ticklabel xtl" transform="translate(268.8,629.0)" text-anchor="middle">1995</text>
<text class="ticklabel xtl" transform="translate(380.8,629.0)" text-anchor="middle">2000</text>
<text class="ticklabel xtl" transform="translate(492.8,629.0)" text-anchor="middle">2005</text>
<text class="ticklabel xtl" transform="translate(604.8,629.0)" text-anchor="middle">2010</text>
<text class="ticklabel xtl" transform="translate(716.8,629.0)" text-anchor="middle">2015</text>
<text class="ticklabel xtl" transform="translate(828.8,629.0)" text-anchor="middle">2020</text>
<text class="ticklabel xtl" transform="translate(896.0,629.0)" text-anchor="middle">23</text>
<text class="ticklabel ytl" transform="translate(128.8,595.3)">0</text>
<text class="ticklabel ytl" transform="translate(128.8,476.8)">200</text>
<text class="ticklabel ytl" transform="translate(128.8,358.3)">400</text>
<text class="ticklabel ytl" transform="translate(128.8,239.8)">600</text>
<text class="ticklabel ytl" transform="translate(128.8,121.3)">800 Mt</text>
<g stroke="#000" stroke-width="0.90" fill="#7FBF7F"  clip-path="url(#axis_clip)">
  <polygon class="pl" points="147.8,198.4 147.8,227.9 165.8,227.9 165.8,198.4 147.8,198.4"/>
  <polygon class="pl" points="170.2,204.3 170.2,230.8 188.2,230.8 188.2,204.3 170.2,204.3"/>
  <polygon class="pl" points="192.6,187.3 192.6,220.2 210.6,220.2 210.6,187.3 192.6,187.3"/>
  <polygon class="pl" points="215.0,177.1 215.0,217.4 233.0,217.4 233.0,177.1 215.0,177.1"/>
  <polygon class="pl" points="237.4,172.1 237.4,204.4 255.4,204.4 255.4,172.1 237.4,172.1"/>
  <polygon class="pl" points="259.8,155.3 259.8,193.4 277.8,193.4 277.8,155.3 259.8,155.3"/>
  <polygon class="pl" points="282.2,148.3 282.2,180.9 300.2,180.9 300.2,148.3 282.2,148.3"/>
  <polygon class="pl" points="304.6,140.9 304.6,171.6 322.6,171.6 322.6,140.9 304.6,140.9"/>
  <polygon class="pl" points="327.0,141.6 327.0,167.7 345.0,167.7 345.0,141.6 327.0,141.6"/>
  <polygon class="pl" points="349.4,132.7 349.4,161.6 367.4,161.6 367.4,132.7 349.4,132.7"/>
  <polygon class="pl" points="371.8,112.9 371.8,145.2 389.8,145.2 389.8,112.9 371.8,112.9"/>
  <polygon class="pl" points="394.2,127.7 394.2,149.5 412.2,149.5 412.2,127.7 394.2,127.7"/>
  <polygon class="pl" points="416.6,105.0 416.6,145.4 434.6,145.4 434.6,105.0 416.6,105.0"/>
  <polygon class="pl" points="439.0,95.9 439.0,134.8 457.0,134.8 457.0,95.9 439.0,95.9"/>
  <polygon class="pl" points="461.4,97.5 461.4,134.8 479.4,134.8 479.4,97.5 461.4,97.5"/>
  <polygon class="pl" points="483.8,98.6 483.8,137.7 501.8,137.7 501.8,98.6 483.8,98.6"/>
  <polygon class="pl" points="506.2,111.6 506.2,140.0 524.2,140.0 524.2,111.6 506.2,111.6"/>
  <polygon class="pl" points="528.6,101.6 528.6,128.4 546.6,128.4 546.6,101.6 528.6,101.6"/>
  <polygon class="pl" points="551.0,114.2 551.0,138.3 569.0,138.3 569.0,114.2 551.0,114.2"/>
  <polygon class="pl" points="573.4,157.3 573.4,164.1 591.4,164.1 591.4,157.3 573.4,157.3"/>
  <polygon class="pl" points="595.8,132.0 595.8,155.9 613.8,155.9 613.8,132.0 595.8,132.0"/>
  <polygon class="pl" points="618.2,124.0 618.2,150.1 636.2,150.1 636.2,124.0 618.2,124.0"/>
  <polygon class="pl" points="640.6,131.0 640.6,148.1 658.6,148.1 658.6,131.0 640.6,131.0"/>
  <polygon class="pl" points="663.0,124.1 663.0,142.8 681.0,142.8 681.0,124.1 663.0,124.1"/>
  <polygon class="pl" points="685.4,139.6 685.4,144.3 703.4,144.3 703.4,139.6 685.4,139.6"/>
  <polygon class="pl" points="707.8,120.6 707.8,147.6 725.8,147.6 725.8,120.6 707.8,120.6"/>
  <polygon class="pl" points="730.2,140.7 730.2,157.7 748.2,157.7 748.2,140.7 730.2,140.7"/>
  <polygon class="pl" points="752.6,137.6 752.6,150.2 770.6,150.2 770.6,137.6 752.6,137.6"/>
  <polygon class="pl" points="775.0,130.4 775.0,144.6 793.0,144.6 793.0,130.4 775.0,130.4"/>
  <polygon class="pl" points="797.4,135.8 797.4,144.5 815.4,144.5 815.4,135.8 797.4,135.8"/>
  <polygon class="pl" points="819.8,168.2 819.8,183.0 837.8,183.0 837.8,168.2 819.8,168.2"/>
  <polygon class="pl" points="842.2,167.5 842.2,176.3 860.2,176.3 860.2,167.5 842.2,167.5"/>
  <polygon class="pl" points="864.6,142.4 864.6,172.5 882.6,172.5 882.6,142.4 864.6,142.4"/>
  <polygon class="pl" points="887.0,173.6 887.0,176.1 905.0,176.1 905.0,173.6 887.0,173.6"/>
</g>
<g stroke="#000" stroke-width="0.90" fill="#DBA746"  clip-path="url(#axis_clip)">
  <polygon class="pl" points="147.8,227.9 147.8,234.4 165.8,234.4 165.8,227.9 147.8,227.9"/>
  <polygon class="pl" points="170.2,230.8 170.2,237.8 188.2,237.8 188.2,230.8 170.2,230.8"/>
  <polygon class="pl" points="192.6,220.2 192.6,226.3 210.6,226.3 210.6,220.2 192.6,220.2"/>
  <polygon class="pl" points="215.0,217.4 215.0,222.8 233.0,222.8 233.0,217.4 215.0,217.4"/>
  <polygon class="pl" points="237.4,204.4 237.4,209.6 255.4,209.6 255.4,204.4 237.4,204.4"/>
  <polygon class="pl" points="259.8,193.4 259.8,198.4 277.8,198.4 277.8,193.4 259.8,193.4"/>
  <polygon class="pl" points="282.2,180.9 282.2,185.9 300.2,185.9 300.2,180.9 282.2,180.9"/>
  <polygon class="pl" points="304.6,171.6 304.6,176.7 322.6,176.7 322.6,171.6 304.6,171.6"/>
  <polygon class="pl" points="327.0,167.7 327.0,173.5 345.0,173.5 345.0,167.7 327.0,167.7"/>
  <polygon class="pl" points="349.4,161.6 349.4,167.2 367.4,167.2 367.4,161.6 349.4,161.6"/>
  <polygon class="pl" points="371.8,145.2 371.8,151.1 389.8,151.1 389.8,145.2 371.8,145.2"/>
  <polygon class="pl" points="394.2,149.5 394.2,155.0 412.2,155.0 412.2,149.5 394.2,149.5"/>
  <polygon class="pl" points="416.6,145.4 416.6,151.1 434.6,151.1 434.6,145.4 416.6,145.4"/>
  <polygon class="pl" points="439.0,134.8 439.0,140.5 457.0,140.5 457.0,134.8 439.0,134.8"/>
  <polygon class="pl" points="461.4,134.8 461.4,140.7 479.4,140.7 479.4,134.8 461.4,134.8"/>
  <polygon class="pl" points="483.8,137.7 483.8,143.5 501.8,143.5 501.8,137.7 483.8,137.7"/>
  <polygon class="pl" points="506.2,140.0 506.2,145.5 524.2,145.5 524.2,140.0 506.2,140.0"/>
  <polygon class="pl" points="528.6,128.4 528.6,133.6 546.6,133.6 546.6,128.4 528.6,128.4"/>
  <polygon class="pl" points="551.0,138.3 551.0,143.5 569.0,143.5 569.0,138.3 551.0,138.3"/>
  <polygon class="pl" points="573.4,164.1 573.4,169.5 591.4,169.5 591.4,164.1 573.4,164.1"/>
  <polygon class="pl" points="595.8,155.9 595.8,161.5 613.8,161.5 613.8,155.9 595.8,155.9"/>
  <polygon class="pl" points="618.2,150.1 618.2,156.1 636.2,156.1 636.2,150.1 618.2,150.1"/>
  <polygon class="pl" points="640.6,148.1 640.6,154.4 658.6,154.4 658.6,148.1 640.6,148.1"/>
  <polygon class="pl" points="663.0,142.8 663.0,149.6 681.0,149.6 681.0,142.8 663.0,142.8"/>
  <polygon class="pl" points="685.4,144.3 685.4,151.2 703.4,151.2 703.4,144.3 685.4,144.3"/>
  <polygon class="pl" points="707.8,147.6 707.8,154.5 725.8,154.5 725.8,147.6 707.8,147.6"/>
  <polygon class="pl" points="730.2,157.7 730.2,164.6 748.2,164.6 748.2,157.7 730.2,157.7"/>
  <polygon class="pl" points="752.6,150.2 752.6,157.0 770.6,157.0 770.6,150.2 752.6,150.2"/>
  <polygon class="pl" points="775.0,144.6 775.0,151.9 793.0,151.9 793.0,144.6 775.0,144.6"/>
  <polygon class="pl" points="797.4,144.5 797.4,151.8 815.4,151.8 815.4,144.5 797.4,144.5"/>
  <polygon class="pl" points="819.8,183.0 819.8,190.2 837.8,190.2 837.8,183.0 819.8,183.0"/>
  <polygon class="pl" points="842.2,176.3 842.2,183.2 860.2,183.2 860.2,176.3 842.2,176.3"/>
  <polygon class="pl" points="864.6,172.5 864.6,179.4 882.6,179.4 882.6,172.5 864.6,172.5"/>
  <polygon class="pl" points="887.0,176.1 887.0,182.8 905.0,182.8 905.0,176.1 887.0,176.1"/>
</g>
<g stroke="#000" stroke-width="0.90" fill="#845F48"  clip-path="url(#axis_clip)">
  <polygon class="pl" points="147.8,234.4 147.8,252.5 165.8,252.5 165.8,234.4 147.8,234.4"/>
  <polygon class="pl" points="170.2,237.8 170.2,255.5 188.2,255.5 188.2,237.8 170.2,237.8"/>
  <polygon class="pl" points="192.6,226.3 192.6,244.4 210.6,244.4 210.6,226.3 192.6,226.3"/>
  <polygon class="pl" points="215.0,222.8 215.0,241.1 233.0,241.1 233.0,222.8 215.0,222.8"/>
  <polygon class="pl" points="237.4,209.6 237.4,229.2 255.4,229.2 255.4,209.6 237.4,209.6"/>
  <polygon class="pl" points="259.8,198.4 259.8,218.2 277.8,218.2 277.8,198.4 259.8,198.4"/>
  <polygon class="pl" points="282.2,185.9 282.2,206.6 300.2,206.6 300.2,185.9 282.2,185.9"/>
  <polygon class="pl" points="304.6,176.7 304.6,196.8 322.6,196.8 322.6,176.7 304.6,176.7"/>
  <polygon class="pl" points="327.0,173.5 327.0,191.5 345.0,191.5 345.0,173.5 327.0,173.5"/>
  <polygon class="pl" points="349.4,167.2 349.4,183.7 367.4,183.7 367.4,167.2 349.4,167.2"/>
  <polygon class="pl" points="371.8,151.1 371.8,167.3 389.8,167.3 389.8,151.1 371.8,151.1"/>
  <polygon class="pl" points="394.2,155.0 394.2,171.0 412.2,171.0 412.2,155.0 394.2,155.0"/>
  <polygon class="pl" points="416.6,151.1 416.6,167.3 434.6,167.3 434.6,151.1 416.6,151.1"/>
  <polygon class="pl" points="439.0,140.5 439.0,157.3 457.0,157.3 457.0,140.5 439.0,140.5"/>
  <polygon class="pl" points="461.4,140.7 461.4,158.3 479.4,158.3 479.4,140.7 461.4,140.7"/>
  <polygon class="pl" points="483.8,143.5 483.8,160.4 501.8,160.4 501.8,143.5 483.8,143.5"/>
  <polygon class="pl" points="506.2,145.5 506.2,161.5 524.2,161.5 524.2,145.5 506.2,145.5"/>
  <polygon class="pl" points="528.6,133.6 528.6,149.9 546.6,149.9 546.6,133.6 528.6,133.6"/>
  <polygon class="pl" points="551.0,143.5 551.0,160.1 569.0,160.1 569.0,143.5 551.0,143.5"/>
  <polygon class="pl" points="573.4,169.5 573.4,184.5 591.4,184.5 591.4,169.5 573.4,169.5"/>
  <polygon class="pl" points="595.8,161.5 595.8,176.2 613.8,176.2 613.8,161.5 595.8,161.5"/>
  <polygon class="pl" points="618.2,156.1 618.2,170.6 636.2,170.6 636.2,156.1 618.2,156.1"/>
  <polygon class="pl" points="640.6,154.4 640.6,169.4 658.6,169.4 658.6,154.4 640.6,154.4"/>
  <polygon class="pl" points="663.0,149.6 663.0,165.2 681.0,165.2 681.0,149.6 663.0,149.6"/>
  <polygon class="pl" points="685.4,151.2 685.4,166.3 703.4,166.3 703.4,151.2 685.4,151.2"/>
  <polygon class="pl" points="707.8,154.5 707.8,170.1 725.8,170.1 725.8,154.5 707.8,154.5"/>
  <polygon class="pl" points="730.2,164.6 730.2,180.4 748.2,180.4 748.2,164.6 730.2,164.6"/>
  <polygon class="pl" points="752.6,157.0 752.6,172.4 770.6,172.4 770.6,157.0 752.6,157.0"/>
  <polygon class="pl" points="775.0,151.9 775.0,167.9 793.0,167.9 793.0,151.9 775.0,151.9"/>
  <polygon class="pl" points="797.4,151.8 797.4,167.7 815.4,167.7 815.4,151.8 797.4,151.8"/>
  <polygon class="pl" points="819.8,190.2 819.8,206.7 837.8,206.7 837.8,190.2 819.8,190.2"/>
  <polygon class="pl" points="842.2,183.2 842.2,199.1 860.2,199.1 860.2,183.2 842.2,183.2"/>
  <polygon class="pl" points="864.6,179.4 864.6,196.2 882.6,196.2 882.6,179.4 864.6,179.4"/>
  <polygon class="pl" points="887.0,182.8 887.0,199.4 905.0,199.4 905.0,182.8 887.0,182.8"/>
</g>
<g stroke="#000" stroke-width="0.90" fill="#4A89E8"  clip-path="url(#axis_clip)">
  <polygon class="pl" points="147.8,252.5 147.8,315.8 165.8,315.8 165.8,252.5 147.8,252.5"/>
  <polygon class="pl" points="170.2,255.5 170.2,320.7 188.2,320.7 188.2,255.5 170.2,255.5"/>
  <polygon class="pl" points="192.6,244.4 192.6,312.7 210.6,312.7 210.6,244.4 192.6,244.4"/>
  <polygon class="pl" points="215.0,241.1 215.0,312.2 233.0,312.2 233.0,241.1 215.0,241.1"/>
  <polygon class="pl" points="237.4,229.2 237.4,303.7 255.4,303.7 255.4,229.2 237.4,229.2"/>
  <polygon class="pl" points="259.8,218.2 259.8,296.1 277.8,296.1 277.8,218.2 259.8,218.2"/>
  <polygon class="pl" points="282.2,206.6 282.2,286.4 300.2,286.4 300.2,206.6 282.2,206.6"/>
  <polygon class="pl" points="304.6,196.8 304.6,277.9 322.6,277.9 322.6,196.8 304.6,196.8"/>
  <polygon class="pl" points="327.0,191.5 327.0,273.4 345.0,273.4 345.0,191.5 327.0,191.5"/>
  <polygon class="pl" points="349.4,183.7 349.4,265.0 367.4,265.0 367.4,183.7 349.4,183.7"/>
  <polygon class="pl" points="371.8,167.3 371.8,251.5 389.8,251.5 389.8,167.3 371.8,167.3"/>
  <polygon class="pl" points="394.2,171.0 394.2,256.0 412.2,256.0 412.2,171.0 394.2,171.0"/>
  <polygon class="pl" points="416.6,167.3 416.6,252.9 434.6,252.9 434.6,167.3 416.6,167.3"/>
  <polygon class="pl" points="439.0,157.3 439.0,242.9 457.0,242.9 457.0,157.3 439.0,157.3"/>
  <polygon class="pl" points="461.4,158.3 461.4,245.8 479.4,245.8 479.4,158.3 461.4,158.3"/>
  <polygon class="pl" points="483.8,160.4 483.8,249.3 501.8,249.3 501.8,160.4 483.8,160.4"/>
  <polygon class="pl" points="506.2,161.5 506.2,251.7 524.2,251.7 524.2,161.5 506.2,161.5"/>
  <polygon class="pl" points="528.6,149.9 528.6,237.7 546.6,237.7 546.6,149.9 528.6,149.9"/>
  <polygon class="pl" points="551.0,160.1 551.0,247.0 569.0,247.0 569.0,160.1 551.0,160.1"/>
  <polygon class="pl" points="573.4,184.5 573.4,266.6 591.4,266.6 591.4,184.5 573.4,184.5"/>
  <polygon class="pl" points="595.8,176.2 595.8,258.8 613.8,258.8 613.8,176.2 595.8,176.2"/>
  <polygon class="pl" points="618.2,170.6 618.2,253.7 636.2,253.7 636.2,170.6 618.2,170.6"/>
  <polygon class="pl" points="640.6,169.4 640.6,254.4 658.6,254.4 658.6,169.4 640.6,169.4"/>
  <polygon class="pl" points="663.0,165.2 663.0,250.3 681.0,250.3 681.0,165.2 663.0,165.2"/>
  <polygon class="pl" points="685.4,166.3 685.4,252.5 703.4,252.5 703.4,166.3 685.4,166.3"/>
  <polygon class="pl" points="707.8,170.1 707.8,253.6 725.8,253.6 725.8,170.1 707.8,170.1"/>
  <polygon class="pl" points="730.2,180.4 730.2,259.1 748.2,259.1 748.2,180.4 730.2,180.4"/>
  <polygon class="pl" points="752.6,172.4 752.6,251.5 770.6,251.5 770.6,172.4 752.6,172.4"/>
  <polygon class="pl" points="775.0,167.9 775.0,246.5 793.0,246.5 793.0,167.9 775.0,167.9"/>
  <polygon class="pl" points="797.4,167.7 797.4,244.2 815.4,244.2 815.4,167.7 797.4,167.7"/>
  <polygon class="pl" points="819.8,206.7 819.8,276.6 837.8,276.6 837.8,206.7 819.8,206.7"/>
  <polygon class="pl" points="842.2,199.1 842.2,268.8 860.2,268.8 860.2,199.1 842.2,199.1"/>
  <polygon class="pl" points="864.6,196.2 864.6,262.7 882.6,262.7 882.6,196.2 864.6,196.2"/>
  <polygon class="pl" points="887.0,199.4 887.0,264.0 905.0,264.0 905.0,199.4 887.0,199.4"/>
</g>
<g stroke="#000" stroke-width="0.90" fill="#FF7F61"  clip-path="url(#axis_clip)">
  <polygon class="pl" points="147.8,315.8 147.8,587.2 165.8,587.2 165.8,315.8 147.8,315.8"/>
  <polygon class="pl" points="170.2,320.7 170.2,587.2 188.2,587.2 188.2,320.7 170.2,320.7"/>
  <polygon class="pl" points="192.6,312.7 192.6,587.2 210.6,587.2 210.6,312.7 192.6,312.7"/>
  <polygon class="pl" points="215.0,312.2 215.0,587.2 233.0,587.2 233.0,312.2 215.0,312.2"/>
  <polygon class="pl" points="237.4,303.7 237.4,587.2 255.4,587.2 255.4,303.7 237.4,303.7"/>
  <polygon class="pl" points="259.8,296.1 259.8,587.2 277.8,587.2 277.8,296.1 259.8,296.1"/>
  <polygon class="pl" points="282.2,286.4 282.2,587.2 300.2,587.2 300.2,286.4 282.2,286.4"/>
  <polygon class="pl" points="304.6,277.9 304.6,587.2 322.6,587.2 322.6,277.9 304.6,277.9"/>
  <polygon class="pl" points="327.0,273.4 327.0,587.2 345.0,587.2 345.0,273.4 327.0,273.4"/>
  <polygon class="pl" points="349.4,265.0 349.4,587.2 367.4,587.2 367.4,265.0 349.4,265.0"/>
  <polygon class="pl" points="371.8,251.5 371.8,587.2 389.8,587.2 389.8,251.5 371.8,251.5"/>
  <polygon class="pl" points="394.2,256.0 394.2,587.2 412.2,587.2 412.2,256.0 394.2,256.0"/>
  <polygon class="pl" points="416.6,252.9 416.6,587.2 434.6,587.2 434.6,252.9 416.6,252.9"/>
  <polygon class="pl" points="439.0,242.9 439.0,587.2 457.0,587.2 457.0,242.9 439.0,242.9"/>
  <polygon class="pl" points="461.4,245.8 461.4,587.2 479.4,587.2 479.4,245.8 461.4,245.8"/>
  <polygon class="pl" points="483.8,249.3 483.8,587.2 501.8,587.2 501.8,249.3 483.8,249.3"/>
  <polygon class="pl" points="506.2,251.7 506.2,587.2 524.2,587.2 524.2,251.7 506.2,251.7"/>
  <polygon class="pl" points="528.6,237.7 528.6,587.2 546.6,587.2 546.6,237.7 528.6,237.7"/>
  <polygon class="pl" points="551.0,247.0 551.0,587.2 569.0,587.2 569.0,247.0 551.0,247.0"/>
  <polygon class="pl" points="573.4,266.6 573.4,587.2 591.4,587.2 591.4,266.6 573.4,266.6"/>
  <polygon class="pl" points="595.8,258.8 595.8,587.2 613.8,587.2 613.8,258.8 595.8,258.8"/>
  <polygon class="pl" points="618.2,253.7 618.2,587.2 636.2,587.2 636.2,253.7 618.2,253.7"/>
  <polygon class="pl" points="640.6,254.4 640.6,587.2 658.6,587.2 658.6,254.4 640.6,254.4"/>
  <polygon class="pl" points="663.0,250.3 663.0,587.2 681.0,587.2 681.0,250.3 663.0,250.3"/>
  <polygon class="pl" points="685.4,252.5 685.4,587.2 703.4,587.2 703.4,252.5 685.4,252.5"/>
  <polygon class="pl" points="707.8,253.6 707.8,587.2 725.8,587.2 725.8,253.6 707.8,253.6"/>
  <polygon class="pl" points="730.2,259.1 730.2,587.2 748.2,587.2 748.2,259.1 730.2,259.1"/>
  <polygon class="pl" points="752.6,251.5 752.6,587.2 770.6,587.2 770.6,251.5 752.6,251.5"/>
  <polygon class="pl" points="775.0,246.5 775.0,587.2 793.0,587.2 793.0,246.5 775.0,246.5"/>
  <polygon class="pl" points="797.4,244.2 797.4,587.2 815.4,587.2 815.4,244.2 797.4,244.2"/>
  <polygon class="pl" points="819.8,276.6 819.8,587.2 837.8,587.2 837.8,276.6 819.8,276.6"/>
  <polygon class="pl" points="842.2,268.8 842.2,587.2 860.2,587.2 860.2,268.8 842.2,268.8"/>
  <polygon class="pl" points="864.6,262.7 864.6,587.2 882.6,587.2 882.6,262.7 864.6,262.7"/>
  <polygon class="pl" points="887.0,264.0 887.0,587.2 905.0,587.2 905.0,264.0 887.0,264.0"/>
</g>
<polyline class="pl" points="156.8,198.4 179.2,204.3 201.6,187.3 224.0,177.1 246.4,172.1 268.8,155.3 291.2,148.3 313.6,140.9 336.0,141.6 358.4,132.7 380.8,112.9 403.2,127.7 425.6,105.0 448.0,95.9 470.4,97.5 492.8,98.6 515.2,111.6 537.6,101.6 560.0,114.2 582.4,157.3 604.8,132.0 627.2,124.0 649.6,131.0 672.0,124.1 694.4,139.6 716.8,120.6 739.2,140.7 761.6,137.6 784.0,130.4 806.4,135.8 828.8,168.2 851.2,167.5 873.6,142.4 896.0,173.6" stroke="#000" stroke-width="5.40" stroke-opacity="1.00" fill="none" clip-path="url(#axis_clip)"/>
<g class="pl" fill="#FFF" stroke="#000" stroke-width="0.900">
  <circle cx="179.2" cy="204.3" r="2.2" />
  <circle cx="201.6" cy="187.3" r="2.2" />
  <circle cx="224.0" cy="177.1" r="2.2" />
  <circle cx="246.4" cy="172.1" r="2.2" />
  <circle cx="268.8" cy="155.3" r="2.2" />
  <circle cx="291.2" cy="148.3" r="2.2" />
  <circle cx="313.6" cy="140.9" r="2.2" />
  <circle cx="336.0" cy="141.6" r="2.2" />
  <circle cx="358.4" cy="132.7" r="2.2" />
  <circle cx="403.2" cy="127.7" r="2.2" />
  <circle cx="425.6" cy="105.0" r="2.2" />
  <circle cx="448.0" cy="95.9" r="2.2" />
  <circle cx="470.4" cy="97.5" r="2.2" />
  <circle cx="492.8" cy="98.6" r="2.2" />
  <circle cx="515.2" cy="111.6" r="2.2" />
  <circle cx="537.6" cy="101.6" r="2.2" />
  <circle cx="560.0" cy="114.2" r="2.2" />
  <circle cx="582.4" cy="157.3" r="2.2" />
  <circle cx="627.2" cy="124.0" r="2.2" />
  <circle cx="649.6" cy="131.0" r="2.2" />
  <circle cx="672.0" cy="124.1" r="2.2" />
  <circle cx="694.4" cy="139.6" r="2.2" />
  <circle cx="716.8" cy="120.6" r="2.2" />
  <circle cx="739.2" cy="140.7" r="2.2" />
  <circle cx="761.6" cy="137.6" r="2.2" />
  <circle cx="784.0" cy="130.4" r="2.2" />
  <circle cx="806.4" cy="135.8" r="2.2" />
  <circle cx="851.2" cy="167.5" r="2.2" />
  <circle cx="873.6" cy="142.4" r="2.2" />
  <circle cx="896.0" cy="173.6" r="2.2" />
</g>
<g class="pl" fill="#FFF" stroke="#000" stroke-width="0.900">
  <circle cx="156.8" cy="198.4" r="5.4" />
  <circle cx="380.8" cy="112.9" r="5.4" />
  <circle cx="604.8" cy="132.0" r="5.4" />
  <circle cx="828.8" cy="168.2" r="5.4" />
</g>
<text transform="translate(145.6,47.2)" dy="0.0" font-size="27.00" fill="#808080" stroke="none">Annual Greenhouse Gas Emissions: Canada</text>
<text transform="translate(130.0,140.9)" dy="8.1" font-size="27.00" fill="#808080" stroke="none" text-anchor="end">CO<tspan dy="0.2em"><tspan style="font-size:70%">2</tspan></tspan><tspan dy="-0.2em">e</tspan></text>
<text transform="translate(945.6,141.2)" dy="7.6" font-size="25.20" fill="#000" stroke="none">+6.4% since 1990</text>
<text transform="translate(945.6,425.6)" dy="7.6" font-size="25.20" fill="#FF7F61" stroke="none">Fossil CO<tspan dy="0.2em"><tspan style="font-size:70%">2</tspan></tspan><tspan dy="-0.2em"></tspan></text>
<text transform="translate(945.6,239.1)" dy="7.6" font-size="25.20" fill="#4A89E8" stroke="none">CH<tspan dy="0.2em"><tspan style="font-size:70%">4</tspan></tspan><tspan dy="-0.2em"></tspan></text>
<text transform="translate(945.6,214.6)" dy="7.6" font-size="25.20" fill="#845F48" stroke="none">N<tspan dy="0.2em"><tspan style="font-size:70%">2</tspan></tspan><tspan dy="-0.2em">O</tspan></text>
<text transform="translate(945.6,190.1)" dy="7.6" font-size="25.20" fill="#DBA746" stroke="none">F-gas</text>
<text transform="translate(945.6,165.7)" dy="7.6" font-size="25.20" fill="#7FBF7F" stroke="none">LULUCF</text>
<polyline class="pl" points="910.8,173.6 912.4,173.5 913.8,173.2 915.2,172.6 916.4,171.9 917.6,171.1 918.8,170.0 919.8,168.9 920.8,167.6 921.7,166.2 922.7,164.7 923.5,163.1 924.4,161.5 925.2,159.9 926.0,158.2 926.8,156.5 927.6,154.9 928.4,153.2 929.3,151.6 930.1,150.1 931.1,148.6 932.0,147.2 933.0,145.9 934.0,144.7 935.2,143.7 936.4,142.8 937.6,142.1 939.0,141.6 940.4,141.3 942.0,141.2" stroke="#000" stroke-width="0.90" stroke-opacity="1.00" fill="none" />
<polyline class="pl" points="910.8,231.7 912.4,231.7 913.8,231.8 915.2,231.9 916.4,232.1 917.6,232.3 918.8,232.5 919.8,232.8 920.8,233.1 921.7,233.4 922.7,233.8 923.5,234.1 924.4,234.5 925.2,234.9 926.0,235.2 926.8,235.6 927.6,236.0 928.4,236.4 929.3,236.7 930.1,237.1 931.1,237.4 932.0,237.8 933.0,238.1 934.0,238.3 935.2,238.6 936.4,238.8 937.6,238.9 939.0,239.0 940.4,239.1 942.0,239.1" stroke="#4A89E8" stroke-width="0.90" stroke-opacity="1.00" fill="none" />
<polyline class="pl" points="910.8,191.1 912.4,191.2 913.8,191.4 915.2,191.8 916.4,192.3 917.6,193.0 918.8,193.7 919.8,194.6 920.8,195.5 921.7,196.5 922.7,197.6 923.5,198.7 924.4,199.9 925.2,201.1 926.0,202.3 926.8,203.5 927.6,204.7 928.4,205.9 929.3,207.1 930.1,208.2 931.1,209.3 932.0,210.3 933.0,211.2 934.0,212.0 935.2,212.8 936.4,213.4 937.6,213.9 939.0,214.3 940.4,214.6 942.0,214.6" stroke="#845F48" stroke-width="0.90" stroke-opacity="1.00" fill="none" />
<polyline class="pl" points="910.8,179.4 912.4,179.5 913.8,179.6 915.2,179.8 916.4,180.0 917.6,180.3 918.8,180.6 919.8,181.0 920.8,181.4 921.7,181.9 922.7,182.4 923.5,182.9 924.4,183.4 925.2,184.0 926.0,184.5 926.8,185.1 927.6,185.6 928.4,186.2 929.3,186.7 930.1,187.2 931.1,187.7 932.0,188.2 933.0,188.6 934.0,189.0 935.2,189.3 936.4,189.6 937.6,189.8 939.0,190.0 940.4,190.1 942.0,190.1" stroke="#DBA746" stroke-width="0.90" stroke-opacity="1.00" fill="none" />
<polyline class="pl" points="910.8,174.8 912.4,174.8 913.8,174.7 915.2,174.6 916.4,174.4 917.6,174.1 918.8,173.8 919.8,173.5 920.8,173.1 921.7,172.7 922.7,172.3 923.5,171.9 924.4,171.4 925.2,171.0 926.0,170.5 926.8,170.0 927.6,169.5 928.4,169.1 929.3,168.6 930.1,168.2 931.1,167.8 932.0,167.4 933.0,167.0 934.0,166.7 935.2,166.4 936.4,166.1 937.6,165.9 939.0,165.8 940.4,165.7 942.0,165.7" stroke="#7FBF7F" stroke-width="0.90" stroke-opacity="1.00" fill="none" />
<text transform="translate(160.0,666.1)" font-size="19.80" font-family="Helvetica" fill="#BFBFBF" stroke="none" xml:space="preserve">CICERO   &#9679;   Data: UNFCCC (2025)</text>
<g>
  <rect x="123.0" y="651.4" width="34" height="17" fill="#FFF" stroke="none" opacity="0.01"/>
  <g transform="translate(124.0,652.4) scale(0.24)">
  <g><circle fill="#FFF" cx="37.79" cy="28.5" r="28.84"/>
     <circle fill="none" cx="37.79" cy="28.5" r="28.84" stroke="#BFBFBF" stroke-width="5.5"/>
     <path fill="#BFBFBF" d="M37.16,23.19 l-4.29,2.23c-0.458-0.951-1.02-1.62-1.69-2c-0.667-0.38-1.29-0.571-1.86-0.571c-2.86,0-4.29,1.89-4.29,5.66 c0,1.71,0.36,3.08,1.09,4.11c0.724,1.03,1.79,1.54,3.2,1.54c1.87,0,3.18-0.915,3.94-2.74l3.94,2 c-0.838,1.56-2,2.79-3.49,3.69c-1.48,0.896-3.12,1.34-4.91,1.34c-2.86,0-5.16-0.875-6.92-2.63 c-1.75-1.75-2.63-4.19-2.63-7.31c0-3.05,0.886-5.47,2.66-7.26c1.77-1.79,4.01-2.69,6.72-2.69 C32.6,18.56,35.44,20.1,37.16,23.19z
              M55.61,23.19l-4.23,2.23c-0.457-0.951-1.02-1.62-1.69-2 c-0.668-0.38-1.31-0.571-1.91-0.571c-2.86,0-4.29,1.89-4.29,5.66c0,1.71,0.363,3.08,1.09,4.11 c0.723,1.03,1.79,1.54,3.2,1.54c1.87,0,3.18-0.915,3.94-2.74l4,2c-0.875,1.56-2.06,2.79-3.54,3.69 c-1.49,0.9-3.11,1.34-4.86,1.34c-2.9,0-5.21-0.875-6.94-2.63c-1.74-1.75-2.6-4.19-2.6-7.31 c0-3.05,0.885-5.47,2.66-7.26c1.77-1.79,4.01-2.69,6.71-2.69C51.12,18.56,53.944,20.1,55.61,23.19z"/>
  </g></g>
  <g transform="translate(140.2,652.4) scale(0.24)">
  <g><circle fill="#FFF" cx="37.79" cy="28.5" r="28.84"/>
     <circle fill="none" cx="37.79" cy="28.5" r="28.84" stroke="#BFBFBF" stroke-width="5.5"/>
     <path fill="#BFBFBF" d="M46.129,20.557v13.085h-3.656v15.542h-9.944V33.643h-3.656V20.557 c0-0.572,0.2-1.057,0.599-1.457c0.401-0.399,0.887-0.6,1.457-0.6h13.144c0.533,0,1.01,0.2,1.428,0.6 C45.918,19.5,46.129,19.986,46.129,20.557z
              M33.042,12.329c0-3.008,1.485-4.514,4.458-4.514s4.457,1.504,4.457,4.514 c0,2.971-1.486,4.457-4.457,4.457S33.042,15.3,33.042,12.329z"/>
  </g></g>
</g>
</g>
</svg>
