<svg version="1.1" xmlns="http://www.w3.org/2000/svg" xmlns:xlink="http://www.w3.org/1999/xlink" width="100%" height="100%" viewBox="0 0 1200.000 674.916">
<title>Monthly sales of new passenger cars: Canada</title>
<style type="text/css">
  #main {font-family:Helvetica,Arial,sans-serif; font-size:27.00px;
         fill-opacity:1; fill:#000000; stroke:none; stroke-linejoin:round; stroke-linecap:round; stroke-width:1.00;}
  a:hover {text-decoration: underline;}
  .marker {stroke-opacity:0;fill-opacity:0;}
  .marker:hover {stroke-opacity:0.5; fill-opacity:1;}
  .ticklabel {font-size:27.00px;fill:#808080;stroke:none;font-family:Helvetica}
  .ytl {text-anchor:end;}
  .dp1 {pointer-events:none;font-size:70%;text-anchor:middle;fill:#000000;}
  .dp2 {pointer-events:none;font-size:70%;text-anchor:middle;fill:#FFFFFF;}
  .numtip {pointer-events:none;}
  .cc {opacity:0.25;}
.dl_fe {background-color:#FDFFDF;display:flex;margin:auto;align-items:center}
.dl_fe_p {font-size:20px;text-align:center;margin:3px}
.dl_el {display:none;pointer-events:none;}
.cc:hover + .dl_el {display:block;}
text:hover + .dl_el {display:block;}
  #areas .pl {transition: all 0.2s ease;}
  #areas:hover .pl {opacity:0.5;}
  #areas:hover .thick {stroke-width:1;}
  #areas:hover .pg_1:hover .pl {opacity:1;}
  #areas:hover .pg_1:hover .pll {stroke-width:3;}
  #areas:hover .pg_1:hover .pldlm {stroke-width:2;}
  #areas:hover .pg_1:hover .thick {stroke-width:12;}
  #areas:hover .pg_2:hover .pl {opacity:1;}
  #areas:hover .pg_2:hover .pll {stroke-width:3;}
  #areas:hover .pg_2:hover .pldlm {stroke-width:2;}
  #areas:hover .pg_2:hover .thick {stroke-width:12;}
  #areas:hover .pg_3:hover .pl {opacity:1;}
  #areas:hover .pg_3:hover .pll {stroke-width:3;}
  #areas:hover .pg_3:hover .pldlm {stroke-width:2;}
  #areas:hover .pg_3:hover .thick {stroke-width:12;}
  #areas:hover .pg_4:hover .pl {opacity:1;}
  #areas:hover .pg_4:hover .pll {stroke-width:3;}
  #areas:hover .pg_4:hover .pldlm {stroke-width:2;}
  #areas:hover .pg_4:hover .thick {stroke-width:12;}
  #areas:hover .pg_5:hover .pl {opacity:1;}
  #areas:hover .pg_5:hover .pll {stroke-width:3;}
  #areas:hover .pg_5:hover .pldlm {stroke-width:2;}
  #areas:hover .pg_5:hover .thick {stroke-width:12;}
  #lines .pl {transition: all 0.2s ease;}
  #lines:hover .pl {opacity:0.3;}
  #lines:hover .thick {stroke-width:1;}
  #lines:hover .pl_1:hover .pl {opacity:1;}
  #lines:hover .pl_1:hover .pll {stroke-width:3;}
  #lines:hover .pl_1:hover .pldlm {stroke-width:2;}
  #lines:hover .pl_1:hover .thick {stroke-width:12;}
  #lines:hover .pl_2:hover .pl {opacity:1;}
  #lines:hover .pl_2:hover .pll {stroke-width:3;}
  #lines:hover .pl_2:hover .pldlm {stroke-width:2;}
  #lines:hover .pl_2:hover .thick {stroke-width:12;}
  #lines:hover .pl_3:hover .pl {opacity:1;}
  #lines:hover .pl_3:hover .pll {stroke-width:3;}
  #lines:hover .pl_3:hover .pldlm {stroke-width:2;}
  #lines:hover .pl_3:hover .thick {stroke-width:12;}
  #lines:hover .pl_4:hover .pl {opacity:1;}
  #lines:hover .pl_4:hover .pll {stroke-width:3;}
  #lines:hover .pl_4:hover .pldlm {stroke-width:2;}
  #lines:hover .pl_4:hover .thick {stroke-width:12;}
  #lines:hover .pl_5:hover .pl {opacity:1;}
  #lines:hover .pl_5:hover .pll {stroke-width:3;}
  #lines:hover .pl_5:hover .pldlm {stroke-width:2;}
  #lines:hover .pl_5:hover .thick {stroke-width:12;}
  #lines:hover .pl_6:hover .pl {opacity:1;}
  #lines:hover .pl_6:hover .pll {stroke-width:3;}
  #lines:hover .pl_6:hover .pldlm {stroke-width:2;}
  #lines:hover .pl_6:hover .thick {stroke-width:12;}
  #lines:hover .pl_7:hover .pl {opacity:1;}
  #lines:hover .pl_7:hover .pll {stroke-width:3;}
  #lines:hover .pl_7:hover .pldlm {stroke-width:2;}
  #lines:hover .pl_7:hover .thick {stroke-width:12;}
  #lines:hover .pl_8:hover .pl {opacity:1;}
  #lines:hover .pl_8:hover .pll {stroke-width:3;}
  #lines:hover .pl_8:hover .pldlm {stroke-width:2;}
  #lines:hover .pl_8:hover .thick {stroke-width:12;}
  #lines:hover .pl_9:hover .pl {opacity:1;}
  #lines:hover .pl_9:hover .pll {stroke-width:3;}
  #lines:hover .pl_9:hover .pldlm {stroke-width:2;}
  #lines:hover .pl_9:hover .thick {stroke-width:12;}
  #lines:hover .pl_10:hover .pl {opacity:1;}
  #lines:hover .pl_10:hover .pll {stroke-width:3;}
  #lines:hover .pl_10:hover .pldlm {stroke-width:2;}
  #lines:hover .pl_10:hover .thick {stroke-width:12;}
</style>
<defs>
  <clipPath id="axis_clip"><rect x="145.8" y="54.2" width="761.2" height="505.8" /></clipPath>
  <path id="line_y" d="M 0,53.993 v 506.187" stroke="#FFF" stroke-opacity="0.15" stroke-width="1.00"/>
  <path id="line_x" d="M 145.600,0 h 761.600" stroke="#FFF" stroke-opacity="0.15" stroke-width="1.00"/>
  <path id="tick_y" d="M 145.600,0 h -6.000" stroke="#808080" stroke-width="0.90"/>
  <path id="tick_x" d="M 0,560.180 v 6.000" stroke="#808080" stroke-width="0.90"/>
  <symbol id="line_1" viewBox="0 0 1200.000 674.916">
<polyline class="pl" points="148.6,70.1 154.8,70.1 160.9,70.1 167.3,68.2 173.7,68.2 180.0,68.2 186.4,70.2 192.9,70.2 199.2,70.2 205.6,71.2 212.0,71.2 218.3,71.2 224.8,71.9 230.9,71.9 237.1,71.9 243.5,71.5 249.8,71.5 256.2,71.5 262.6,71.7 269.0,71.7 275.4,71.7 281.7,70.9 288.1,70.9 294.5,70.9 300.9,70.2 307.1,70.2 313.3,70.2 319.6,67.4 326.0,67.4 332.3,67.4 338.7,69.4 345.2,69.4 351.5,69.4 357.9,68.8 364.3,68.8 370.6,68.8 377.1,73.6 383.3,73.6 389.6,73.6 395.9,75.2 402.3,75.2 408.6,75.2 415.0,72.9 421.4,72.9 427.8,72.9 434.1,77.7 440.5,77.7 446.8,77.7 453.3,77.6 459.4,77.6 465.6,77.6 471.9,74.8 478.3,74.8 484.7,74.8 491.0,69.3 497.5,69.3 503.9,69.3 510.2,72.9 516.6,72.9 523.0,72.9 529.4,76.2 535.6,76.2 541.7,76.2 548.1,80.6 554.5,80.6 560.8,80.6 567.2,78.6 573.7,78.6 580.0,78.6 586.4,77.7 592.8,77.7 599.1,77.7 605.6,76.7 611.7,76.7 617.9,76.7 624.3,74.6 630.6,74.6 637.0,74.6 643.4,73.3 649.8,73.3 656.2,73.3 662.5,76.3 668.9,76.3 675.3,76.3 681.7,75.4 688.0,75.4 694.2,75.4 700.6,74.3 706.9,74.3 713.3,74.3 719.6,76.4 726.1,76.4 732.4,76.4 738.8,75.1 745.1,75.1 751.4,75.1 757.9,81.3 764.1,81.3 770.2,81.3 776.6,76.5 782.9,76.5 789.3,76.5 795.7,76.2 802.1,76.2 808.5,76.2 814.9,75.6 821.2,75.6 827.6,75.6 834.1,76.2 840.2,76.2 846.4,76.2" stroke="#000" stroke-width="0.90" stroke-opacity="1.00" fill="none" clip-path="url(#axis_clip)"/>
  </symbol>
  <symbol id="line_2" viewBox="0 0 1200.000 674.916">
<polyline class="pl" points="148.6,72.2 154.8,72.2 160.9,72.2 167.3,70.1 173.7,70.1 180.0,70.1 186.4,72.6 192.9,72.6 199.2,72.6 205.6,74.6 212.0,74.6 218.3,74.6 224.8,75.4 230.9,75.4 237.1,75.4 243.5,78.1 249.8,78.1 256.2,78.1 262.6,78.3 269.0,78.3 275.4,78.3 281.7,78.4 288.1,78.4 294.5,78.4 300.9,77.3 307.1,77.3 313.3,77.3 319.6,78.9 326.0,78.9 332.3,78.9 338.7,79.5 345.2,79.5 351.5,79.5 357.9,78.6 364.3,78.6 370.6,78.6 377.1,86.3 383.3,86.3 389.6,86.3 395.9,86.0 402.3,86.0 408.6,86.0 415.0,86.4 421.4,86.4 427.8,86.4 434.1,93.8 440.5,93.8 446.8,93.8 453.3,95.6 459.4,95.6 465.6,95.6 471.9,92.5 478.3,92.5 484.7,92.5 491.0,88.1 497.5,88.1 503.9,88.1 510.2,95.0 516.6,95.0 523.0,95.0 529.4,106.6 535.6,106.6 541.7,106.6 548.1,106.6 554.5,106.6 560.8,106.6 567.2,117.0 573.7,117.0 580.0,117.0 586.4,119.1 592.8,119.1 599.1,119.1 605.6,111.7 611.7,111.7 617.9,111.7 624.3,113.6 630.6,113.6 637.0,113.6 643.4,123.1 649.8,123.1 656.2,123.1 662.5,124.8 668.9,124.8 675.3,124.8 681.7,120.2 688.0,120.2 694.2,120.2 700.6,123.9 706.9,123.9 713.3,123.9 719.6,137.2 726.1,137.2 732.4,137.2 738.8,148.0 745.1,148.0 751.4,148.0 757.9,113.1 764.1,113.1 770.2,113.1 776.6,104.7 782.9,104.7 789.3,104.7 795.7,106.4 802.1,106.4 808.5,106.4 814.9,114.7 821.2,114.7 827.6,114.7 834.1,114.6 840.2,114.6 846.4,114.6" stroke="#000" stroke-width="0.90" stroke-opacity="1.00" fill="none" clip-path="url(#axis_clip)"/>
  </symbol>
  <symbol id="line_3" viewBox="0 0 1200.000 674.916">
<polyline class="pl" points="148.6,74.5 154.8,74.5 160.9,74.5 167.3,72.4 173.7,72.4 180.0,72.4 186.4,75.1 192.9,75.1 199.2,75.1 205.6,77.9 212.0,77.9 218.3,77.9 224.8,80.6 230.9,80.6 237.1,80.6 243.5,84.2 249.8,84.2 256.2,84.2 262.6,83.9 269.0,83.9 275.4,83.9 281.7,83.3 288.1,83.3 294.5,83.3 300.9,81.1 307.1,81.1 313.3,81.1 319.6,85.2 326.0,85.2 332.3,85.2 338.7,85.5 345.2,85.5 351.5,85.5 357.9,84.0 364.3,84.0 370.6,84.0 377.1,91.7 383.3,91.7 389.6,91.7 395.9,91.2 402.3,91.2 408.6,91.2 415.0,91.1 421.4,91.1 427.8,91.1 434.1,98.9 440.5,98.9 446.8,98.9 453.3,101.7 459.4,101.7 465.6,101.7 471.9,100.6 478.3,100.6 484.7,100.6 491.0,97.1 497.5,97.1 503.9,97.1 510.2,105.4 516.6,105.4 523.0,105.4 529.4,114.9 535.6,114.9 541.7,114.9 548.1,115.7 554.5,115.7 560.8,115.7 567.2,122.9 573.7,122.9 580.0,122.9 586.4,127.3 592.8,127.3 599.1,127.3 605.6,121.2 611.7,121.2 617.9,121.2 624.3,126.1 630.6,126.1 637.0,126.1 643.4,138.4 649.8,138.4 656.2,138.4 662.5,139.8 668.9,139.8 675.3,139.8 681.7,135.9 688.0,135.9 694.2,135.9 700.6,141.2 706.9,141.2 713.3,141.2 719.6,158.2 726.1,158.2 732.4,158.2 738.8,170.8 745.1,170.8 751.4,170.8 757.9,126.2 764.1,126.2 770.2,126.2 776.6,121.0 782.9,121.0 789.3,121.0 795.7,126.6 802.1,126.6 808.5,126.6 814.9,134.6 821.2,134.6 827.6,134.6 834.1,132.2 840.2,132.2 846.4,132.2" stroke="#000" stroke-width="0.90" stroke-opacity="1.00" fill="none" clip-path="url(#axis_clip)"/>
  </symbol>
  <symbol id="line_4" viewBox="0 0 1200.000 674.916">
<polyline class="pl" points="148.6,79.6 154.8,79.6 160.9,79.6 167.3,78.8 173.7,78.8 180.0,78.8 186.4,82.2 192.9,82.2 199.2,82.2 205.6,84.4 212.0,84.4 218.3,84.4 224.8,86.5 230.9,86.5 237.1,86.5 243.5,91.3 249.8,91.3 256.2,91.3 262.6,90.8 269.0,90.8 275.4,90.8 281.7,91.5 288.1,91.5 294.5,91.5 300.9,90.0 307.1,90.0 313.3,90.0 319.6,97.4 326.0,97.4 332.3,97.4 338.7,95.9 345.2,95.9 351.5,95.9 357.9,94.9 364.3,94.9 370.6,94.9 377.1,104.0 383.3,104.0 389.6,104.0 395.9,102.3 402.3,102.3 408.6,102.3 415.0,106.2 421.4,106.2 427.8,106.2 434.1,115.4 440.5,115.4 446.8,115.4 453.3,119.6 459.4,119.6 465.6,119.6 471.9,125.5 478.3,125.5 484.7,125.5 491.0,121.5 497.5,121.5 503.9,121.5 510.2,125.0 516.6,125.0 523.0,125.0 529.4,134.9 535.6,134.9 541.7,134.9 548.1,146.7 554.5,146.7 560.8,146.7 567.2,149.9 573.7,149.9 580.0,149.9 586.4,151.9 592.8,151.9 599.1,151.9 605.6,154.2 611.7,154.2 617.9,154.2 624.3,168.2 630.6,168.2 637.0,168.2 643.4,181.6 649.8,181.6 656.2,181.6 662.5,180.6 668.9,180.6 675.3,180.6 681.7,177.1 688.0,177.1 694.2,177.1 700.6,180.2 706.9,180.2 713.3,180.2 719.6,205.0 726.1,205.0 732.4,205.0 738.8,222.9 745.1,222.9 751.4,222.9 757.9,189.2 764.1,189.2 770.2,189.2 776.6,180.6 782.9,180.6 789.3,180.6 795.7,186.9 802.1,186.9 808.5,186.9 814.9,193.3 821.2,193.3 827.6,193.3 834.1,199.7 840.2,199.7 846.4,199.7" stroke="#000" stroke-width="0.90" stroke-opacity="1.00" fill="none" clip-path="url(#axis_clip)"/>
  </symbol>
  <symbol id="line_5" viewBox="0 0 1200.000 674.916">
<polyline class="pl" points="148.6,72.2 154.8,72.2 160.9,72.2 167.3,70.1 173.7,70.1 180.0,70.1 186.4,72.6 192.9,72.6 199.2,72.6 205.6,74.6 212.0,74.6 218.3,74.6 224.8,75.4 230.9,75.4 237.1,75.4 243.5,78.1 249.8,78.1 256.2,78.1 262.6,78.3 269.0,78.3 275.4,78.3 281.7,78.4 288.1,78.4 294.5,78.4 300.9,77.3 307.1,77.3 313.3,77.3 319.6,78.9 326.0,78.9 332.3,78.9 338.7,79.5 345.2,79.5 351.5,79.5 357.9,78.6 364.3,78.6 370.6,78.6 377.1,86.3 383.3,86.3 389.6,86.3 395.9,86.0 402.3,86.0 408.6,86.0 415.0,86.4 421.4,86.4 427.8,86.4 434.1,93.8 440.5,93.8 446.8,93.8 453.3,95.6 459.4,95.6 465.6,95.6 471.9,92.5 478.3,92.5 484.7,92.5 491.0,88.1 497.5,88.1 503.9,88.1 510.2,95.0 516.6,95.0 523.0,95.0 529.4,106.6 535.6,106.6 541.7,106.6 548.1,106.6 554.5,106.6 560.8,106.6 567.2,117.0 573.7,117.0 580.0,117.0 586.4,119.1 592.8,119.1 599.1,119.1 605.6,111.7 611.7,111.7 617.9,111.7 624.3,113.6 630.6,113.6 637.0,113.6 643.4,123.1 649.8,123.1 656.2,123.1 662.5,124.8 668.9,124.8 675.3,124.8 681.7,120.2 688.0,120.2 694.2,120.2 700.6,123.9 706.9,123.9 713.3,123.9 719.6,137.2 726.1,137.2 732.4,137.2 738.8,148.0 745.1,148.0 751.4,148.0 757.9,113.1 764.1,113.1 770.2,113.1 776.6,104.7 782.9,104.7 789.3,104.7 795.7,106.4 802.1,106.4 808.5,106.4 814.9,114.7 821.2,114.7 827.6,114.7 834.1,114.6 840.2,114.6 846.4,114.6" stroke="#000" stroke-width="0.90" stroke-opacity="1.00" fill="none" clip-path="url(#axis_clip)"/>
  </symbol>
  <symbol id="line_6" viewBox="0 0 1200.000 674.916">
<polyline class="pl" points="148.6,74.5 154.8,74.5 160.9,74.5 167.3,72.4 173.7,72.4 180.0,72.4 186.4,75.1 192.9,75.1 199.2,75.1 205.6,77.9 212.0,77.9 218.3,77.9 224.8,80.6 230.9,80.6 237.1,80.6 243.5,84.2 249.8,84.2 256.2,84.2 262.6,83.9 269.0,83.9 275.4,83.9 281.7,83.3 288.1,83.3 294.5,83.3 300.9,81.1 307.1,81.1 313.3,81.1 319.6,85.2 326.0,85.2 332.3,85.2 338.7,85.5 345.2,85.5 351.5,85.5 357.9,84.0 364.3,84.0 370.6,84.0 377.1,91.7 383.3,91.7 389.6,91.7 395.9,91.2 402.3,91.2 408.6,91.2 415.0,91.1 421.4,91.1 427.8,91.1 434.1,98.9 440.5,98.9 446.8,98.9 453.3,101.7 459.4,101.7 465.6,101.7 471.9,100.6 478.3,100.6 484.7,100.6 491.0,97.1 497.5,97.1 503.9,97.1 510.2,105.4 516.6,105.4 523.0,105.4 529.4,114.9 535.6,114.9 541.7,114.9 548.1,115.7 554.5,115.7 560.8,115.7 567.2,122.9 573.7,122.9 580.0,122.9 586.4,127.3 592.8,127.3 599.1,127.3 605.6,121.2 611.7,121.2 617.9,121.2 624.3,126.1 630.6,126.1 637.0,126.1 643.4,138.4 649.8,138.4 656.2,138.4 662.5,139.8 668.9,139.8 675.3,139.8 681.7,135.9 688.0,135.9 694.2,135.9 700.6,141.2 706.9,141.2 713.3,141.2 719.6,158.2 726.1,158.2 732.4,158.2 738.8,170.8 745.1,170.8 751.4,170.8 757.9,126.2 764.1,126.2 770.2,126.2 776.6,121.0 782.9,121.0 789.3,121.0 795.7,126.6 802.1,126.6 808.5,126.6 814.9,134.6 821.2,134.6 827.6,134.6 834.1,132.2 840.2,132.2 846.4,132.2" stroke="#000" stroke-width="0.90" stroke-opacity="1.00" fill="none" clip-path="url(#axis_clip)"/>
  </symbol>
  <symbol id="line_7" viewBox="0 0 1200.000 674.916">
<polyline class="pl" points="148.6,79.6 154.8,79.6 160.9,79.6 167.3,78.8 173.7,78.8 180.0,78.8 186.4,82.2 192.9,82.2 199.2,82.2 205.6,84.4 212.0,84.4 218.3,84.4 224.8,86.5 230.9,86.5 237.1,86.5 243.5,91.3 249.8,91.3 256.2,91.3 262.6,90.8 269.0,90.8 275.4,90.8 281.7,91.5 288.1,91.5 294.5,91.5 300.9,90.0 307.1,90.0 313.3,90.0 319.6,97.4 326.0,97.4 332.3,97.4 338.7,95.9 345.2,95.9 351.5,95.9 357.9,94.9 364.3,94.9 370.6,94.9 377.1,104.0 383.3,104.0 389.6,104.0 395.9,102.3 402.3,102.3 408.6,102.3 415.0,106.2 421.4,106.2 427.8,106.2 434.1,115.4 440.5,115.4 446.8,115.4 453.3,119.6 459.4,119.6 465.6,119.6 471.9,125.5 478.3,125.5 484.7,125.5 491.0,121.5 497.5,121.5 503.9,121.5 510.2,125.0 516.6,125.0 523.0,125.0 529.4,134.9 535.6,134.9 541.7,134.9 548.1,146.7 554.5,146.7 560.8,146.7 567.2,149.9 573.7,149.9 580.0,149.9 586.4,151.9 592.8,151.9 599.1,151.9 605.6,154.2 611.7,154.2 617.9,154.2 624.3,168.2 630.6,168.2 637.0,168.2 643.4,181.6 649.8,181.6 656.2,181.6 662.5,180.6 668.9,180.6 675.3,180.6 681.7,177.1 688.0,177.1 694.2,177.1 700.6,180.2 706.9,180.2 713.3,180.2 719.6,205.0 726.1,205.0 732.4,205.0 738.8,222.9 745.1,222.9 751.4,222.9 757.9,189.2 764.1,189.2 770.2,189.2 776.6,180.6 782.9,180.6 789.3,180.6 795.7,186.9 802.1,186.9 808.5,186.9 814.9,193.3 821.2,193.3 827.6,193.3 834.1,199.7 840.2,199.7 846.4,199.7" stroke="#000" stroke-width="0.90" stroke-opacity="1.00" fill="none" clip-path="url(#axis_clip)"/>
  </symbol>
  <symbol id="line_8" viewBox="0 0 1200.000 674.916">
<polyline class="pl" points="148.6,74.5 154.8,74.5 160.9,74.5 167.3,72.4 173.7,72.4 180.0,72.4 186.4,75.1 192.9,75.1 199.2,75.1 205.6,77.9 212.0,77.9 218.3,77.9 224.8,80.6 230.9,80.6 237.1,80.6 243.5,84.2 249.8,84.2 256.2,84.2 262.6,83.9 269.0,83.9 275.4,83.9 281.7,83.3 288.1,83.3 294.5,83.3 300.9,81.1 307.1,81.1 313.3,81.1 319.6,85.2 326.0,85.2 332.3,85.2 338.7,85.5 345.2,85.5 351.5,85.5 357.9,84.0 364.3,84.0 370.6,84.0 377.1,91.7 383.3,91.7 389.6,91.7 395.9,91.2 402.3,91.2 408.6,91.2 415.0,91.1 421.4,91.1 427.8,91.1 434.1,98.9 440.5,98.9 446.8,98.9 453.3,101.7 459.4,101.7 465.6,101.7 471.9,100.6 478.3,100.6 484.7,100.6 491.0,97.1 497.5,97.1 503.9,97.1 510.2,105.4 516.6,105.4 523.0,105.4 529.4,114.9 535.6,114.9 541.7,114.9 548.1,115.7 554.5,115.7 560.8,115.7 567.2,122.9 573.7,122.9 580.0,122.9 586.4,127.3 592.8,127.3 599.1,127.3 605.6,121.2 611.7,121.2 617.9,121.2 624.3,126.1 630.6,126.1 637.0,126.1 643.4,138.4 649.8,138.4 656.2,138.4 662.5,139.8 668.9,139.8 675.3,139.8 681.7,135.9 688.0,135.9 694.2,135.9 700.6,141.2 706.9,141.2 713.3,141.2 719.6,158.2 726.1,158.2 732.4,158.2 738.8,170.8 745.1,170.8 751.4,170.8 757.9,126.2 764.1,126.2 770.2,126.2 776.6,121.0 782.9,121.0 789.3,121.0 795.7,126.6 802.1,126.6 808.5,126.6 814.9,134.6 821.2,134.6 827.6,134.6 834.1,132.2 840.2,132.2 846.4,132.2" stroke="#000" stroke-width="0.90" stroke-opacity="1.00" fill="none" clip-path="url(#axis_clip)"/>
  </symbol>
  <symbol id="line_9" viewBox="0 0 1200.000 674.916">
<polyline class="pl" points="148.6,79.6 154.8,79.6 160.9,79.6 167.3,78.8 173.7,78.8 180.0,78.8 186.4,82.2 192.9,82.2 199.2,82.2 205.6,84.4 212.0,84.4 218.3,84.4 224.8,86.5 230.9,86.5 237.1,86.5 243.5,91.3 249.8,91.3 256.2,91.3 262.6,90.8 269.0,90.8 275.4,90.8 281.7,91.5 288.1,91.5 294.5,91.5 300.9,90.0 307.1,90.0 313.3,90.0 319.6,97.4 326.0,97.4 332.3,97.4 338.7,95.9 345.2,95.9 351.5,95.9 357.9,94.9 364.3,94.9 370.6,94.9 377.1,104.0 383.3,104.0 389.6,104.0 395.9,102.3 402.3,102.3 408.6,102.3 415.0,106.2 421.4,106.2 427.8,106.2 434.1,115.4 440.5,115.4 446.8,115.4 453.3,119.6 459.4,119.6 465.6,119.6 471.9,125.5 478.3,125.5 484.7,125.5 491.0,121.5 497.5,121.5 503.9,121.5 510.2,125.0 516.6,125.0 523.0,125.0 529.4,134.9 535.6,134.9 541.7,134.9 548.1,146.7 554.5,146.7 560.8,146.7 567.2,149.9 573.7,149.9 580.0,149.9 586.4,151.9 592.8,151.9 599.1,151.9 605.6,154.2 611.7,154.2 617.9,154.2 624.3,168.2 630.6,168.2 637.0,168.2 643.4,181.6 649.8,181.6 656.2,181.6 662.5,180.6 668.9,180.6 675.3,180.6 681.7,177.1 688.0,177.1 694.2,177.1 700.6,180.2 706.9,180.2 713.3,180.2 719.6,205.0 726.1,205.0 732.4,205.0 738.8,222.9 745.1,222.9 751.4,222.9 757.9,189.2 764.1,189.2 770.2,189.2 776.6,180.6 782.9,180.6 789.3,180.6 795.7,186.9 802.1,186.9 808.5,186.9 814.9,193.3 821.2,193.3 827.6,193.3 834.1,199.7 840.2,199.7 846.4,199.7" stroke="#000" stroke-width="0.90" stroke-opacity="1.00" fill="none" clip-path="url(#axis_clip)"/>
  </symbol>
  <symbol id="line_10" viewBox="0 0 1200.000 674.916">
<polyline class="pl" points="148.6,79.6 154.8,79.6 160.9,79.6 167.3,78.8 173.7,78.8 180.0,78.8 186.4,82.2 192.9,82.2 199.2,82.2 205.6,84.4 212.0,84.4 218.3,84.4 224.8,86.5 230.9,86.5 237.1,86.5 243.5,91.3 249.8,91.3 256.2,91.3 262.6,90.8 269.0,90.8 275.4,90.8 281.7,91.5 288.1,91.5 294.5,91.5 300.9,90.0 307.1,90.0 313.3,90.0 319.6,97.4 326.0,97.4 332.3,97.4 338.7,95.9 345.2,95.9 351.5,95.9 357.9,94.9 364.3,94.9 370.6,94.9 377.1,104.0 383.3,104.0 389.6,104.0 395.9,102.3 402.3,102.3 408.6,102.3 415.0,106.2 421.4,106.2 427.8,106.2 434.1,115.4 440.5,115.4 446.8,115.4 453.3,119.6 459.4,119.6 465.6,119.6 471.9,125.5 478.3,125.5 484.7,125.5 491.0,121.5 497.5,121.5 503.9,121.5 510.2,125.0 516.6,125.0 523.0,125.0 529.4,134.9 535.6,134.9 541.7,134.9 548.1,146.7 554.5,146.7 560.8,146.7 567.2,149.9 573.7,149.9 580.0,149.9 586.4,151.9 592.8,151.9 599.1,151.9 605.6,154.2 611.7,154.2 617.9,154.2 624.3,168.2 630.6,168.2 637.0,168.2 643.4,181.6 649.8,181.6 656.2,181.6 662.5,180.6 668.9,180.6 675.3,180.6 681.7,177.1 688.0,177.1 694.2,177.1 700.6,180.2 706.9,180.2 713.3,180.2 719.6,205.0 726.1,205.0 732.4,205.0 738.8,222.9 745.1,222.9 751.4,222.9 757.9,189.2 764.1,189.2 770.2,189.2 776.6,180.6 782.9,180.6 789.3,180.6 795.7,186.9 802.1,186.9 808.5,186.9 814.9,193.3 821.2,193.3 827.6,193.3 834.1,199.7 840.2,199.7 846.4,199.7" stroke="#000" stroke-width="0.90" stroke-opacity="1.00" fill="none" clip-path="url(#axis_clip)"/>
  </symbol>
</defs>
<g id="main">
<text class="ticklabel ytl" transform="translate(128.8,568.3)">0 %</text>
<text class="ticklabel ytl" transform="translate(128.8,467.0)">20 %</text>
<text class="ticklabel ytl" transform="translate(128.8,365.8)">40 %</text>
<text class="ticklabel ytl" transform="translate(128.8,264.6)">60 %</text>
<text class="ticklabel ytl" transform="translate(128.8,163.3)">80 %</text>
<text class="ticklabel ytl" transform="translate(128.8,62.1)">100 %</text>
<g id="areas">
  <g class="pg_5">
    <polygon class="pl" points="148.6,54.0 154.8,54.0 160.9,54.0 167.3,54.0 173.7,54.0 180.0,54.0 186.4,54.0 192.9,54.0 199.2,54.0 205.6,54.0 212.0,54.0 218.3,54.0 224.8,54.0 230.9,54.0 237.1,54.0 243.5,54.0 249.8,54.0 256.2,54.0 262.6,54.0 269.0,54.0 275.4,54.0 281.7,54.0 288.1,54.0 294.5,54.0 300.9,54.0 307.1,54.0 313.3,54.0 319.6,54.0 326.0,54.0 332.3,54.0 338.7,54.0 345.2,54.0 351.5,54.0 357.9,54.0 364.3,54.0 370.6,54.0 377.1,54.0 383.3,54.0 389.6,54.0 395.9,54.0 402.3,54.0 408.6,54.0 415.0,54.0 421.4,54.0 427.8,54.0 434.1,54.0 440.5,54.0 446.8,54.0 453.3,54.0 459.4,54.0 465.6,54.0 471.9,54.0 478.3,54.0 484.7,54.0 491.0,54.0 497.5,54.0 503.9,54.0 510.2,54.0 516.6,54.0 523.0,54.0 529.4,54.0 535.6,54.0 541.7,54.0 548.1,54.0 554.5,54.0 560.8,54.0 567.2,54.0 573.7,54.0 580.0,54.0 586.4,54.0 592.8,54.0 599.1,54.0 605.6,54.0 611.7,54.0 617.9,54.0 624.3,54.0 630.6,54.0 637.0,54.0 643.4,54.0 649.8,54.0 656.2,54.0 662.5,54.0 668.9,54.0 675.3,54.0 681.7,54.0 688.0,54.0 694.2,54.0 700.6,54.0 706.9,54.0 713.3,54.0 719.6,54.0 726.1,54.0 732.4,54.0 738.8,54.0 745.1,54.0 751.4,54.0 757.9,54.0 764.1,54.0 770.2,54.0 776.6,54.0 782.9,54.0 789.3,54.0 795.7,54.0 802.1,54.0 808.5,54.0 814.9,54.0 821.2,54.0 827.6,54.0 834.1,54.0 840.2,54.0 846.4,54.0 846.4,76.2 840.2,76.2 834.1,76.2 827.6,75.6 821.2,75.6 814.9,75.6 808.5,76.2 802.1,76.2 795.7,76.2 789.3,76.5 782.9,76.5 776.6,76.5 770.2,81.3 764.1,81.3 757.9,81.3 751.4,75.1 745.1,75.1 738.8,75.1 732.4,76.4 726.1,76.4 719.6,76.4 713.3,74.3 706.9,74.3 700.6,74.3 694.2,75.4 688.0,75.4 681.7,75.4 675.3,76.3 668.9,76.3 662.5,76.3 656.2,73.3 649.8,73.3 643.4,73.3 637.0,74.6 630.6,74.6 624.3,74.6 617.9,76.7 611.7,76.7 605.6,76.7 599.1,77.7 592.8,77.7 586.4,77.7 580.0,78.6 573.7,78.6 567.2,78.6 560.8,80.6 554.5,80.6 548.1,80.6 541.7,76.2 535.6,76.2 529.4,76.2 523.0,72.9 516.6,72.9 510.2,72.9 503.9,69.3 497.5,69.3 491.0,69.3 484.7,74.8 478.3,74.8 471.9,74.8 465.6,77.6 459.4,77.6 453.3,77.6 446.8,77.7 440.5,77.7 434.1,77.7 427.8,72.9 421.4,72.9 415.0,72.9 408.6,75.2 402.3,75.2 395.9,75.2 389.6,73.6 383.3,73.6 377.1,73.6 370.6,68.8 364.3,68.8 357.9,68.8 351.5,69.4 345.2,69.4 338.7,69.4 332.3,67.4 326.0,67.4 319.6,67.4 313.3,70.2 307.1,70.2 300.9,70.2 294.5,70.9 288.1,70.9 281.7,70.9 275.4,71.7 269.0,71.7 262.6,71.7 256.2,71.5 249.8,71.5 243.5,71.5 237.1,71.9 230.9,71.9 224.8,71.9 218.3,71.2 212.0,71.2 205.6,71.2 199.2,70.2 192.9,70.2 186.4,70.2 180.0,68.2 173.7,68.2 167.3,68.2 160.9,70.1 154.8,70.1 148.6,70.1" stroke="none" stroke-width="0.9000"  fill="#828282" clip-path="url(#axis_clip)"/>
    <text class="pl" transform="translate(925.2,65.1)" dy="7.6" font-size="25.20" fill="#828282" stroke="none">Others</text>
  </g>
  <g class="pg_4">
    <polygon class="pl" points="148.6,70.1 154.8,70.1 160.9,70.1 167.3,68.2 173.7,68.2 180.0,68.2 186.4,70.2 192.9,70.2 199.2,70.2 205.6,71.2 212.0,71.2 218.3,71.2 224.8,71.9 230.9,71.9 237.1,71.9 243.5,71.5 249.8,71.5 256.2,71.5 262.6,71.7 269.0,71.7 275.4,71.7 281.7,70.9 288.1,70.9 294.5,70.9 300.9,70.2 307.1,70.2 313.3,70.2 319.6,67.4 326.0,67.4 332.3,67.4 338.7,69.4 345.2,69.4 351.5,69.4 357.9,68.8 364.3,68.8 370.6,68.8 377.1,73.6 383.3,73.6 389.6,73.6 395.9,75.2 402.3,75.2 408.6,75.2 415.0,72.9 421.4,72.9 427.8,72.9 434.1,77.7 440.5,77.7 446.8,77.7 453.3,77.6 459.4,77.6 465.6,77.6 471.9,74.8 478.3,74.8 484.7,74.8 491.0,69.3 497.5,69.3 503.9,69.3 510.2,72.9 516.6,72.9 523.0,72.9 529.4,76.2 535.6,76.2 541.7,76.2 548.1,80.6 554.5,80.6 560.8,80.6 567.2,78.6 573.7,78.6 580.0,78.6 586.4,77.7 592.8,77.7 599.1,77.7 605.6,76.7 611.7,76.7 617.9,76.7 624.3,74.6 630.6,74.6 637.0,74.6 643.4,73.3 649.8,73.3 656.2,73.3 662.5,76.3 668.9,76.3 675.3,76.3 681.7,75.4 688.0,75.4 694.2,75.4 700.6,74.3 706.9,74.3 713.3,74.3 719.6,76.4 726.1,76.4 732.4,76.4 738.8,75.1 745.1,75.1 751.4,75.1 757.9,81.3 764.1,81.3 770.2,81.3 776.6,76.5 782.9,76.5 789.3,76.5 795.7,76.2 802.1,76.2 808.5,76.2 814.9,75.6 821.2,75.6 827.6,75.6 834.1,76.2 840.2,76.2 846.4,76.2 846.4,114.6 840.2,114.6 834.1,114.6 827.6,114.7 821.2,114.7 814.9,114.7 808.5,106.4 802.1,106.4 795.7,106.4 789.3,104.7 782.9,104.7 776.6,104.7 770.2,113.1 764.1,113.1 757.9,113.1 751.4,148.0 745.1,148.0 738.8,148.0 732.4,137.2 726.1,137.2 719.6,137.2 713.3,123.9 706.9,123.9 700.6,123.9 694.2,120.2 688.0,120.2 681.7,120.2 675.3,124.8 668.9,124.8 662.5,124.8 656.2,123.1 649.8,123.1 643.4,123.1 637.0,113.6 630.6,113.6 624.3,113.6 617.9,111.7 611.7,111.7 605.6,111.7 599.1,119.1 592.8,119.1 586.4,119.1 580.0,117.0 573.7,117.0 567.2,117.0 560.8,106.6 554.5,106.6 548.1,106.6 541.7,106.6 535.6,106.6 529.4,106.6 523.0,95.0 516.6,95.0 510.2,95.0 503.9,88.1 497.5,88.1 491.0,88.1 484.7,92.5 478.3,92.5 471.9,92.5 465.6,95.6 459.4,95.6 453.3,95.6 446.8,93.8 440.5,93.8 434.1,93.8 427.8,86.4 421.4,86.4 415.0,86.4 408.6,86.0 402.3,86.0 395.9,86.0 389.6,86.3 383.3,86.3 377.1,86.3 370.6,78.6 364.3,78.6 357.9,78.6 351.5,79.5 345.2,79.5 338.7,79.5 332.3,78.9 326.0,78.9 319.6,78.9 313.3,77.3 307.1,77.3 300.9,77.3 294.5,78.4 288.1,78.4 281.7,78.4 275.4,78.3 269.0,78.3 262.6,78.3 256.2,78.1 249.8,78.1 243.5,78.1 237.1,75.4 230.9,75.4 224.8,75.4 218.3,74.6 212.0,74.6 205.6,74.6 199.2,72.6 192.9,72.6 186.4,72.6 180.0,70.1 173.7,70.1 167.3,70.1 160.9,72.2 154.8,72.2 148.6,72.2" stroke="none" stroke-width="0.9000"  fill="#6298C6" clip-path="url(#axis_clip)"/>
    <text class="pl" transform="translate(925.2,95.4)" dy="7.6" font-size="25.20" fill="#6298C6" stroke="none">Battery electric</text>
  </g>
  <g class="pg_3">
    <polygon class="pl" points="148.6,72.2 154.8,72.2 160.9,72.2 167.3,70.1 173.7,70.1 180.0,70.1 186.4,72.6 192.9,72.6 199.2,72.6 205.6,74.6 212.0,74.6 218.3,74.6 224.8,75.4 230.9,75.4 237.1,75.4 243.5,78.1 249.8,78.1 256.2,78.1 262.6,78.3 269.0,78.3 275.4,78.3 281.7,78.4 288.1,78.4 294.5,78.4 300.9,77.3 307.1,77.3 313.3,77.3 319.6,78.9 326.0,78.9 332.3,78.9 338.7,79.5 345.2,79.5 351.5,79.5 357.9,78.6 364.3,78.6 370.6,78.6 377.1,86.3 383.3,86.3 389.6,86.3 395.9,86.0 402.3,86.0 408.6,86.0 415.0,86.4 421.4,86.4 427.8,86.4 434.1,93.8 440.5,93.8 446.8,93.8 453.3,95.6 459.4,95.6 465.6,95.6 471.9,92.5 478.3,92.5 484.7,92.5 491.0,88.1 497.5,88.1 503.9,88.1 510.2,95.0 516.6,95.0 523.0,95.0 529.4,106.6 535.6,106.6 541.7,106.6 548.1,106.6 554.5,106.6 560.8,106.6 567.2,117.0 573.7,117.0 580.0,117.0 586.4,119.1 592.8,119.1 599.1,119.1 605.6,111.7 611.7,111.7 617.9,111.7 624.3,113.6 630.6,113.6 637.0,113.6 643.4,123.1 649.8,123.1 656.2,123.1 662.5,124.8 668.9,124.8 675.3,124.8 681.7,120.2 688.0,120.2 694.2,120.2 700.6,123.9 706.9,123.9 713.3,123.9 719.6,137.2 726.1,137.2 732.4,137.2 738.8,148.0 745.1,148.0 751.4,148.0 757.9,113.1 764.1,113.1 770.2,113.1 776.6,104.7 782.9,104.7 789.3,104.7 795.7,106.4 802.1,106.4 808.5,106.4 814.9,114.7 821.2,114.7 827.6,114.7 834.1,114.6 840.2,114.6 846.4,114.6 846.4,132.2 840.2,132.2 834.1,132.2 827.6,134.6 821.2,134.6 814.9,134.6 808.5,126.6 802.1,126.6 795.7,126.6 789.3,121.0 782.9,121.0 776.6,121.0 770.2,126.2 764.1,126.2 757.9,126.2 751.4,170.8 745.1,170.8 738.8,170.8 732.4,158.2 726.1,158.2 719.6,158.2 713.3,141.2 706.9,141.2 700.6,141.2 694.2,135.9 688.0,135.9 681.7,135.9 675.3,139.8 668.9,139.8 662.5,139.8 656.2,138.4 649.8,138.4 643.4,138.4 637.0,126.1 630.6,126.1 624.3,126.1 617.9,121.2 611.7,121.2 605.6,121.2 599.1,127.3 592.8,127.3 586.4,127.3 580.0,122.9 573.7,122.9 567.2,122.9 560.8,115.7 554.5,115.7 548.1,115.7 541.7,114.9 535.6,114.9 529.4,114.9 523.0,105.4 516.6,105.4 510.2,105.4 503.9,97.1 497.5,97.1 491.0,97.1 484.7,100.6 478.3,100.6 471.9,100.6 465.6,101.7 459.4,101.7 453.3,101.7 446.8,98.9 440.5,98.9 434.1,98.9 427.8,91.1 421.4,91.1 415.0,91.1 408.6,91.2 402.3,91.2 395.9,91.2 389.6,91.7 383.3,91.7 377.1,91.7 370.6,84.0 364.3,84.0 357.9,84.0 351.5,85.5 345.2,85.5 338.7,85.5 332.3,85.2 326.0,85.2 319.6,85.2 313.3,81.1 307.1,81.1 300.9,81.1 294.5,83.3 288.1,83.3 281.7,83.3 275.4,83.9 269.0,83.9 262.6,83.9 256.2,84.2 249.8,84.2 243.5,84.2 237.1,80.6 230.9,80.6 224.8,80.6 218.3,77.9 212.0,77.9 205.6,77.9 199.2,75.1 192.9,75.1 186.4,75.1 180.0,72.4 173.7,72.4 167.3,72.4 160.9,74.5 154.8,74.5 148.6,74.5" stroke="none" stroke-width="0.9000"  fill="#77AC30" clip-path="url(#axis_clip)"/>
    <text class="pl" transform="translate(925.2,123.4)" dy="7.6" font-size="25.20" fill="#77AC30" stroke="none">Plugin hybrid</text>
  </g>
  <g class="pg_2">
    <polygon class="pl" points="148.6,74.5 154.8,74.5 160.9,74.5 167.3,72.4 173.7,72.4 180.0,72.4 186.4,75.1 192.9,75.1 199.2,75.1 205.6,77.9 212.0,77.9 218.3,77.9 224.8,80.6 230.9,80.6 237.1,80.6 243.5,84.2 249.8,84.2 256.2,84.2 262.6,83.9 269.0,83.9 275.4,83.9 281.7,83.3 288.1,83.3 294.5,83.3 300.9,81.1 307.1,81.1 313.3,81.1 319.6,85.2 326.0,85.2 332.3,85.2 338.7,85.5 345.2,85.5 351.5,85.5 357.9,84.0 364.3,84.0 370.6,84.0 377.1,91.7 383.3,91.7 389.6,91.7 395.9,91.2 402.3,91.2 408.6,91.2 415.0,91.1 421.4,91.1 427.8,91.1 434.1,98.9 440.5,98.9 446.8,98.9 453.3,101.7 459.4,101.7 465.6,101.7 471.9,100.6 478.3,100.6 484.7,100.6 491.0,97.1 497.5,97.1 503.9,97.1 510.2,105.4 516.6,105.4 523.0,105.4 529.4,114.9 535.6,114.9 541.7,114.9 548.1,115.7 554.5,115.7 560.8,115.7 567.2,122.9 573.7,122.9 580.0,122.9 586.4,127.3 592.8,127.3 599.1,127.3 605.6,121.2 611.7,121.2 617.9,121.2 624.3,126.1 630.6,126.1 637.0,126.1 643.4,138.4 649.8,138.4 656.2,138.4 662.5,139.8 668.9,139.8 675.3,139.8 681.7,135.9 688.0,135.9 694.2,135.9 700.6,141.2 706.9,141.2 713.3,141.2 719.6,158.2 726.1,158.2 732.4,158.2 738.8,170.8 745.1,170.8 751.4,170.8 757.9,126.2 764.1,126.2 770.2,126.2 776.6,121.0 782.9,121.0 789.3,121.0 795.7,126.6 802.1,126.6 808.5,126.6 814.9,134.6 821.2,134.6 827.6,134.6 834.1,132.2 840.2,132.2 846.4,132.2 846.4,199.7 840.2,199.7 834.1,199.7 827.6,193.3 821.2,193.3 814.9,193.3 808.5,186.9 802.1,186.9 795.7,186.9 789.3,180.6 782.9,180.6 776.6,180.6 770.2,189.2 764.1,189.2 757.9,189.2 751.4,222.9 745.1,222.9 738.8,222.9 732.4,205.0 726.1,205.0 719.6,205.0 713.3,180.2 706.9,180.2 700.6,180.2 694.2,177.1 688.0,177.1 681.7,177.1 675.3,180.6 668.9,180.6 662.5,180.6 656.2,181.6 649.8,181.6 643.4,181.6 637.0,168.2 630.6,168.2 624.3,168.2 617.9,154.2 611.7,154.2 605.6,154.2 599.1,151.9 592.8,151.9 586.4,151.9 580.0,149.9 573.7,149.9 567.2,149.9 560.8,146.7 554.5,146.7 548.1,146.7 541.7,134.9 535.6,134.9 529.4,134.9 523.0,125.0 516.6,125.0 510.2,125.0 503.9,121.5 497.5,121.5 491.0,121.5 484.7,125.5 478.3,125.5 471.9,125.5 465.6,119.6 459.4,119.6 453.3,119.6 446.8,115.4 440.5,115.4 434.1,115.4 427.8,106.2 421.4,106.2 415.0,106.2 408.6,102.3 402.3,102.3 395.9,102.3 389.6,104.0 383.3,104.0 377.1,104.0 370.6,94.9 364.3,94.9 357.9,94.9 351.5,95.9 345.2,95.9 338.7,95.9 332.3,97.4 326.0,97.4 319.6,97.4 313.3,90.0 307.1,90.0 300.9,90.0 294.5,91.5 288.1,91.5 281.7,91.5 275.4,90.8 269.0,90.8 262.6,90.8 256.2,91.3 249.8,91.3 243.5,91.3 237.1,86.5 230.9,86.5 224.8,86.5 218.3,84.4 212.0,84.4 205.6,84.4 199.2,82.2 192.9,82.2 186.4,82.2 180.0,78.8 173.7,78.8 167.3,78.8 160.9,79.6 154.8,79.6 148.6,79.6" stroke="none" stroke-width="0.9000"  fill="#919452" clip-path="url(#axis_clip)"/>
    <text class="pl" transform="translate(925.2,165.9)" dy="7.6" font-size="25.20" fill="#919452" stroke="none">Non-plugin hybrid</text>
  </g>
  <g class="pg_1">
    <polygon class="pl" points="148.6,79.6 154.8,79.6 160.9,79.6 167.3,78.8 173.7,78.8 180.0,78.8 186.4,82.2 192.9,82.2 199.2,82.2 205.6,84.4 212.0,84.4 218.3,84.4 224.8,86.5 230.9,86.5 237.1,86.5 243.5,91.3 249.8,91.3 256.2,91.3 262.6,90.8 269.0,90.8 275.4,90.8 281.7,91.5 288.1,91.5 294.5,91.5 300.9,90.0 307.1,90.0 313.3,90.0 319.6,97.4 326.0,97.4 332.3,97.4 338.7,95.9 345.2,95.9 351.5,95.9 357.9,94.9 364.3,94.9 370.6,94.9 377.1,104.0 383.3,104.0 389.6,104.0 395.9,102.3 402.3,102.3 408.6,102.3 415.0,106.2 421.4,106.2 427.8,106.2 434.1,115.4 440.5,115.4 446.8,115.4 453.3,119.6 459.4,119.6 465.6,119.6 471.9,125.5 478.3,125.5 484.7,125.5 491.0,121.5 497.5,121.5 503.9,121.5 510.2,125.0 516.6,125.0 523.0,125.0 529.4,134.9 535.6,134.9 541.7,134.9 548.1,146.7 554.5,146.7 560.8,146.7 567.2,149.9 573.7,149.9 580.0,149.9 586.4,151.9 592.8,151.9 599.1,151.9 605.6,154.2 611.7,154.2 617.9,154.2 624.3,168.2 630.6,168.2 637.0,168.2 643.4,181.6 649.8,181.6 656.2,181.6 662.5,180.6 668.9,180.6 675.3,180.6 681.7,177.1 688.0,177.1 694.2,177.1 700.6,180.2 706.9,180.2 713.3,180.2 719.6,205.0 726.1,205.0 732.4,205.0 738.8,222.9 745.1,222.9 751.4,222.9 757.9,189.2 764.1,189.2 770.2,189.2 776.6,180.6 782.9,180.6 789.3,180.6 795.7,186.9 802.1,186.9 808.5,186.9 814.9,193.3 821.2,193.3 827.6,193.3 834.1,199.7 840.2,199.7 846.4,199.7 846.4,560.2 148.6,560.2" stroke="none" stroke-width="0.9000"  fill="#7B553E" clip-path="url(#axis_clip)"/>
    <text class="pl" transform="translate(925.2,379.9)" dy="7.6" font-size="25.20" fill="#7B553E" stroke="none">Petrol</text>
  </g>
</g>
<g id="lines">
  <g class="pl_1">
    <use xlink:href="#line_1" class="thick" stroke="#000" stroke-width="3" opacity="0"/>
    <use xlink:href="#line_1" class="pl pll" stroke="#000" stroke-width="0.90"/>
  </g>
  <g class="pl_2">
    <use xlink:href="#line_2" class="thick" stroke="#000" stroke-width="3" opacity="0"/>
    <use xlink:href="#line_2" class="pl pll" stroke="#000" stroke-width="0.90"/>
  </g>
  <g class="pl_3">
    <use xlink:href="#line_3" class="thick" stroke="#000" stroke-width="3" opacity="0"/>
    <use xlink:href="#line_3" class="pl pll" stroke="#000" stroke-width="0.90"/>
  </g>
  <g class="pl_4">
    <use xlink:href="#line_4" class="thick" stroke="#000" stroke-width="3" opacity="0"/>
    <use xlink:href="#line_4" class="pl pll" stroke="#000" stroke-width="0.90"/>
  </g>
  <g class="pl_5">
    <use xlink:href="#line_5" class="thick" stroke="#000" stroke-width="3" opacity="0"/>
    <use xlink:href="#line_5" class="pl pll" stroke="#000" stroke-width="0.90"/>
  </g>
  <g class="pl_6">
    <use xlink:href="#line_6" class="thick" stroke="#000" stroke-width="3" opacity="0"/>
    <use xlink:href="#line_6" class="pl pll" stroke="#000" stroke-width="0.90"/>
  </g>
  <g class="pl_7">
    <use xlink:href="#line_7" class="thick" stroke="#000" stroke-width="3" opacity="0"/>
    <use xlink:href="#line_7" class="pl pll" stroke="#000" stroke-width="0.90"/>
  </g>
  <g class="pl_8">
    <use xlink:href="#line_8" class="thick" stroke="#000" stroke-width="3" opacity="0"/>
    <use xlink:href="#line_8" class="pl pll" stroke="#000" stroke-width="0.90"/>
  </g>
  <g class="pl_9">
    <use xlink:href="#line_9" class="thick" stroke="#000" stroke-width="3" opacity="0"/>
    <use xlink:href="#line_9" class="pl pll" stroke="#000" stroke-width="0.90"/>
  </g>
  <g class="pl_10">
    <use xlink:href="#line_10" class="thick" stroke="#000" stroke-width="3" opacity="0"/>
    <use xlink:href="#line_10" class="pl pll" stroke="#000" stroke-width="0.90"/>
  </g>
</g>
    <text class="pl" transform="translate(183.7,573.0) rotate(-90)" dy="8.1" font-size="27.00" fill="#808080" stroke="none" text-anchor="end">2017</text>
    <text class="pl" transform="translate(259.8,573.0) rotate(-90)" dy="8.1" font-size="27.00" fill="#808080" stroke="none" text-anchor="end">2018</text>
    <text class="pl" transform="translate(336.0,573.0) rotate(-90)" dy="8.1" font-size="27.00" fill="#808080" stroke="none" text-anchor="end">2019</text>
    <text class="pl" transform="translate(412.2,573.0) rotate(-90)" dy="8.1" font-size="27.00" fill="#808080" stroke="none" text-anchor="end">2020</text>
    <text class="pl" transform="translate(488.3,573.0) rotate(-90)" dy="8.1" font-size="27.00" fill="#808080" stroke="none" text-anchor="end">2021</text>
    <text class="pl" transform="translate(564.5,573.0) rotate(-90)" dy="8.1" font-size="27.00" fill="#808080" stroke="none" text-anchor="end">2022</text>
    <text class="pl" transform="translate(640.6,573.0) rotate(-90)" dy="8.1" font-size="27.00" fill="#808080" stroke="none" text-anchor="end">2023</text>
    <text class="pl" transform="translate(716.8,573.0) rotate(-90)" dy="8.1" font-size="27.00" fill="#808080" stroke="none" text-anchor="end">2024</text>
    <text class="pl" transform="translate(793.0,573.0) rotate(-90)" dy="8.1" font-size="27.00" fill="#808080" stroke="none" text-anchor="end">2025</text>
    <text class="pl" transform="translate(869.1,573.0) rotate(-90)" dy="8.1" font-size="27.00" fill="#808080" stroke="none" text-anchor="end">2026</text>
    <text class="pl" transform="translate(145.6,47.2)" dy="0.0" font-size="27.00" fill="#808080" stroke="none">Monthly sales of new passenger cars: Canada</text>
<text transform="translate(157.6,666.1)" font-size="19.80" font-family="Helvetica" fill="#BFBFBF" stroke="none" xml:space="preserve"><a href="https://bsky.app/profile/robbieandrew.bsky.social" style="fill:#BFBFBF" target="_blank">@robbieandrew.bsky.social</a>   &#9679;   Data: Statistics Canada   &#9679;   Source data are quarterly   &#9679;   Through March 2026</text>
<text class="twitlink" transform="translate(157.6,666.1)" opacity="0" font-size="19.80" fill="#BFBFBF" stroke="none" xml:space="preserve"><a href="https://bsky.app/profile/robbieandrew.bsky.social" style="fill:#BFBFBF" target="_blank">@robbieandrew.bsky.social</a></text>
  <g class="dl_el" transform="translate(154.6,578.4)">
    <g class="dl_el_balloon">
      <foreignObject x="0" y="0" width="120" height="500">
      <div xmlns="http://www.w3.org/1999/xhtml" class="dl_fe" style="height:60px">
      <p class="dl_fe_p">Find me on BlueSky</p>
      </div>
	    </foreignObject>
      <path stroke="#000" fill="#FDFFDF" d="M0,60H60l5,5l5,-5H120"/>
    </g>
  </g>
<use xlink:href="#line_y" transform="translate(145.6,0)"/>
<use xlink:href="#line_y" transform="translate(221.8,0)"/>
<use xlink:href="#line_y" transform="translate(297.9,0)"/>
<use xlink:href="#line_y" transform="translate(374.1,0)"/>
<use xlink:href="#line_y" transform="translate(450.2,0)"/>
<use xlink:href="#line_y" transform="translate(526.4,0)"/>
<use xlink:href="#line_y" transform="translate(602.6,0)"/>
<use xlink:href="#line_y" transform="translate(678.7,0)"/>
<use xlink:href="#line_y" transform="translate(754.9,0)"/>
<use xlink:href="#line_y" transform="translate(831.0,0)"/>
<use xlink:href="#line_y" transform="translate(907.2,0)"/>
<use xlink:href="#line_x" transform="translate(0,560.2)"/>
<use xlink:href="#line_x" transform="translate(0,458.9)"/>
<use xlink:href="#line_x" transform="translate(0,357.7)"/>
<use xlink:href="#line_x" transform="translate(0,256.5)"/>
<use xlink:href="#line_x" transform="translate(0,155.2)"/>
<use xlink:href="#line_x" transform="translate(0,54.0)"/>
<use xlink:href="#tick_x" transform="translate(145.6,0)"/>
<use xlink:href="#tick_x" transform="translate(221.8,0)"/>
<use xlink:href="#tick_x" transform="translate(297.9,0)"/>
<use xlink:href="#tick_x" transform="translate(374.1,0)"/>
<use xlink:href="#tick_x" transform="translate(450.2,0)"/>
<use xlink:href="#tick_x" transform="translate(526.4,0)"/>
<use xlink:href="#tick_x" transform="translate(602.6,0)"/>
<use xlink:href="#tick_x" transform="translate(678.7,0)"/>
<use xlink:href="#tick_x" transform="translate(754.9,0)"/>
<use xlink:href="#tick_x" transform="translate(831.0,0)"/>
<use xlink:href="#tick_x" transform="translate(907.2,0)"/>
<use xlink:href="#tick_y" transform="translate(0,560.2)"/>
<use xlink:href="#tick_y" transform="translate(0,458.9)"/>
<use xlink:href="#tick_y" transform="translate(0,357.7)"/>
<use xlink:href="#tick_y" transform="translate(0,256.5)"/>
<use xlink:href="#tick_y" transform="translate(0,155.2)"/>
<use xlink:href="#tick_y" transform="translate(0,54.0)"/>
<polyline points="145.6,53.993 145.6,560.180 907.2,560.180" stroke="#808080" stroke-width="0.90" fill="none"/>
<g>
<a href="https://creativecommons.org/licenses/by/4.0/" target="_blank">
  <rect x="123.0" y="651.4" width="34" height="17" fill="#FFF" stroke="none" opacity="0.01"/>
  <g transform="translate(124.0,652.4) scale(0.24)">
  <g><circle fill="#FFF" cx="37.79" cy="28.5" r="28.84"/>
     <circle fill="none" cx="37.79" cy="28.5" r="28.84" stroke="#BFBFBF" stroke-width="5.5"/>
     <path fill="#BFBFBF" d="M37.16,23.19 l-4.29,2.23c-0.458-0.951-1.02-1.62-1.69-2c-0.667-0.38-1.29-0.571-1.86-0.571c-2.86,0-4.29,1.89-4.29,5.66 c0,1.71,0.36,3.08,1.09,4.11c0.724,1.03,1.79,1.54,3.2,1.54c1.87,0,3.18-0.915,3.94-2.74l3.94,2 c-0.838,1.56-2,2.79-3.49,3.69c-1.48,0.896-3.12,1.34-4.91,1.34c-2.86,0-5.16-0.875-6.92-2.63 c-1.75-1.75-2.63-4.19-2.63-7.31c0-3.05,0.886-5.47,2.66-7.26c1.77-1.79,4.01-2.69,6.72-2.69 C32.6,18.56,35.44,20.1,37.16,23.19z
              M55.61,23.19l-4.23,2.23c-0.457-0.951-1.02-1.62-1.69-2 c-0.668-0.38-1.31-0.571-1.91-0.571c-2.86,0-4.29,1.89-4.29,5.66c0,1.71,0.363,3.08,1.09,4.11 c0.723,1.03,1.79,1.54,3.2,1.54c1.87,0,3.18-0.915,3.94-2.74l4,2c-0.875,1.56-2.06,2.79-3.54,3.69 c-1.49,0.9-3.11,1.34-4.86,1.34c-2.9,0-5.21-0.875-6.94-2.63c-1.74-1.75-2.6-4.19-2.6-7.31 c0-3.05,0.885-5.47,2.66-7.26c1.77-1.79,4.01-2.69,6.71-2.69C51.12,18.56,53.944,20.1,55.61,23.19z"/>
  </g></g>
  <g transform="translate(140.2,652.4) scale(0.24)">
  <g><circle fill="#FFF" cx="37.79" cy="28.5" r="28.84"/>
     <circle fill="none" cx="37.79" cy="28.5" r="28.84" stroke="#BFBFBF" stroke-width="5.5"/>
     <path fill="#BFBFBF" d="M46.129,20.557v13.085h-3.656v15.542h-9.944V33.643h-3.656V20.557 c0-0.572,0.2-1.057,0.599-1.457c0.401-0.399,0.887-0.6,1.457-0.6h13.144c0.533,0,1.01,0.2,1.428,0.6 C45.918,19.5,46.129,19.986,46.129,20.557z
              M33.042,12.329c0-3.008,1.485-4.514,4.458-4.514s4.457,1.504,4.457,4.514 c0,2.971-1.486,4.457-4.457,4.457S33.042,15.3,33.042,12.329z"/>
  </g></g>
  </a>
</g>
  <g class="dl_el" transform="translate(69.1,548.4)">
    <g class="dl_el_balloon">
      <foreignObject x="0" y="0" width="250" height="500">
      <div xmlns="http://www.w3.org/1999/xhtml" class="dl_fe" style="height:90px">
      <p class="dl_fe_p">CC-BY: Material may be freely re-used as long as you credit the author</p>
      </div>
	    </foreignObject>
      <path stroke="#000" fill="#FDFFDF" d="M0,90H70l5,5l5,-5H250"/>
    </g>
  </g>
</g>
</svg>
