<svg version="1.1" xmlns="http://www.w3.org/2000/svg" xmlns:xlink="http://www.w3.org/1999/xlink" width="100%" height="100%" viewBox="0 0 1200.000 674.916">
<title>Annual CH4 Emissions: Laos</title>
<style type="text/css">
  #main {font-family:Helvetica,Arial,sans-serif; font-size:27.00px;
         fill-opacity:1; fill:#000000; stroke:none; stroke-linejoin:round; stroke-linecap:round; stroke-width:1.00;}
  .marker {stroke-opacity:0;fill-opacity:0;}
  .marker:hover {stroke-opacity:0.5; fill-opacity:1;}
  .ticklabel {font-size:27.00px;fill:#808080;stroke:none;font-family:Helvetica}
  .ytl {text-anchor:end;}
  .dp1 {pointer-events:none;font-size:70%;text-anchor:middle;fill:#000000;}
  .dp2 {pointer-events:none;font-size:70%;text-anchor:middle;fill:#FFFFFF;}
  .numtip {pointer-events:none;}
  .cc {opacity:0.25;}
.dl_fe {background-color:#FDFFDF;display:flex;margin:auto;align-items:center}
.dl_fe_p {font-size:20px;text-align:center;margin:3px}
.dl_el {display:none;pointer-events:none;}
.cc:hover + .dl_el {display:block;}
text:hover + .dl_el {display:block;}
</style>
<defs>
  <clipPath id="axis_clip"><rect x="145.8" y="54.2" width="761.2" height="532.8" /></clipPath>
  <path id="line_y" d="M 0,53.993 v 533.183" stroke="#262626" stroke-opacity="0.15" stroke-width="1.00"/>
  <path id="line_x" d="M 145.600,0 h 761.600" stroke="#262626" stroke-opacity="0.15" stroke-width="1.00"/>
  <path id="tick_y" d="M 145.600,0 h -6.000" stroke="#808080" stroke-width="0.90"/>
  <path id="tick_x" d="M 0,587.177 v 6.000" stroke="#808080" stroke-width="0.90"/>
</defs>
<g id="main">
<use xlink:href="#line_y" transform="translate(272.5,0)"/>
<use xlink:href="#line_y" transform="translate(526.4,0)"/>
<use xlink:href="#line_y" transform="translate(780.3,0)"/>
<use xlink:href="#line_x" transform="translate(0,587.2)"/>
<use xlink:href="#line_x" transform="translate(0,434.8)"/>
<use xlink:href="#line_x" transform="translate(0,282.5)"/>
<use xlink:href="#line_x" transform="translate(0,130.2)"/>
<use xlink:href="#tick_y" transform="translate(0,587.2)"/>
<use xlink:href="#tick_y" transform="translate(0,434.8)"/>
<use xlink:href="#tick_y" transform="translate(0,282.5)"/>
<use xlink:href="#tick_y" transform="translate(0,130.2)"/>
<use xlink:href="#tick_x" transform="translate(272.5,0)"/>
<use xlink:href="#tick_x" transform="translate(526.4,0)"/>
<use xlink:href="#tick_x" transform="translate(780.3,0)"/>
<polyline points="145.6,53.993 145.6,587.177 907.2,587.177" stroke="#808080" stroke-width="0.90" fill="none"/>
<text class="ticklabel xtl" transform="translate(272.5,629.0)" text-anchor="middle">2020</text>
<text class="ticklabel xtl" transform="translate(526.4,629.0)" text-anchor="middle">2021</text>
<text class="ticklabel xtl" transform="translate(780.3,629.0)" text-anchor="middle">2022</text>
<text class="ticklabel ytl" transform="translate(128.8,595.3)">0</text>
<text class="ticklabel ytl" transform="translate(128.8,442.9)">100</text>
<text class="ticklabel ytl" transform="translate(128.8,290.6)">200</text>
<text class="ticklabel ytl" transform="translate(128.8,138.3)">300 kt</text>
<g stroke="#000" stroke-width="0.90" fill="#7FBF7F"  clip-path="url(#axis_clip)">
  <polygon class="pl" points="171.0,111.8 171.0,115.6 374.1,115.6 374.1,111.8 171.0,111.8"/>
  <polygon class="pl" points="424.9,62.1 424.9,111.9 627.9,111.9 627.9,62.1 424.9,62.1"/>
  <polygon class="pl" points="678.7,103.7 678.7,105.5 881.8,105.5 881.8,103.7 678.7,103.7"/>
</g>
<g stroke="#000" stroke-width="0.90" fill="#DBA746"  clip-path="url(#axis_clip)">
  <polygon class="pl" points="171.0,115.6 171.0,189.9 374.1,189.9 374.1,115.6 171.0,115.6"/>
  <polygon class="pl" points="424.9,111.9 424.9,187.4 627.9,187.4 627.9,111.9 424.9,111.9"/>
  <polygon class="pl" points="678.7,105.5 678.7,181.8 881.8,181.8 881.8,105.5 678.7,105.5"/>
</g>
<g stroke="#000" stroke-width="0.90" fill="#845F48"  clip-path="url(#axis_clip)">
  <polygon class="pl" points="171.0,189.9 171.0,541.8 374.1,541.8 374.1,189.9 171.0,189.9"/>
  <polygon class="pl" points="424.9,187.4 424.9,542.5 627.9,542.5 627.9,187.4 424.9,187.4"/>
  <polygon class="pl" points="678.7,181.8 678.7,539.6 881.8,539.6 881.8,181.8 678.7,181.8"/>
</g>
<g stroke="#000" stroke-width="0.90" fill="#FF7F61"  clip-path="url(#axis_clip)">
  <polygon class="pl" points="171.0,541.8 171.0,587.2 374.1,587.2 374.1,541.8 171.0,541.8"/>
  <polygon class="pl" points="424.9,542.5 424.9,587.2 627.9,587.2 627.9,542.5 424.9,542.5"/>
  <polygon class="pl" points="678.7,539.6 678.7,587.2 881.8,587.2 881.8,539.6 678.7,539.6"/>
</g>
<polyline class="pl" points="272.5,111.8 526.4,62.1 780.3,103.7" stroke="#000" stroke-width="5.40" stroke-opacity="1.00" fill="none" clip-path="url(#axis_clip)"/>
<g class="pl" fill="#FFF" stroke="#000" stroke-width="0.900">
  <circle cx="526.4" cy="62.1" r="2.2" />
  <circle cx="780.3" cy="103.7" r="2.2" />
</g>
<g class="pl" fill="#FFF" stroke="#000" stroke-width="0.900">
  <circle cx="272.5" cy="111.8" r="5.4" />
</g>
<text transform="translate(145.6,47.2)" dy="0.0" font-size="27.00" fill="#808080" stroke="none">Annual CH<tspan dy="0.2em"><tspan style="font-size:70%">4</tspan></tspan><tspan dy="-0.2em"> </tspan>Emissions: Laos</text>
<text transform="translate(130.0,157.8)" dy="8.1" font-size="27.00" fill="#808080" stroke="none" text-anchor="end">CH<tspan dy="0.2em"><tspan style="font-size:70%">4</tspan></tspan><tspan dy="-0.2em"></tspan></text>
<text transform="translate(945.6,91.6)" dy="7.6" font-size="25.20" fill="#000" stroke="none">+1.7% since 2020</text>
<text transform="translate(945.6,563.4)" dy="7.6" font-size="25.20" fill="#FF7F61" stroke="none">Energy</text>
<text transform="translate(945.6,360.7)" dy="7.6" font-size="25.20" fill="#845F48" stroke="none">Agriculture</text>
<text transform="translate(945.6,143.7)" dy="7.6" font-size="25.20" fill="#DBA746" stroke="none">Waste</text>
<text transform="translate(945.6,116.7)" dy="7.6" font-size="25.20" fill="#7FBF7F" stroke="none">LULUCF</text>
<polyline class="pl" points="910.8,103.7 912.4,103.7 913.8,103.6 915.2,103.4 916.4,103.1 917.6,102.8 918.8,102.4 919.8,102.0 920.8,101.5 921.7,101.0 922.7,100.4 923.5,99.8 924.4,99.2 925.2,98.6 926.0,98.0 926.8,97.4 927.6,96.8 928.4,96.1 929.3,95.5 930.1,95.0 931.1,94.4 932.0,93.9 933.0,93.4 934.0,93.0 935.2,92.6 936.4,92.3 937.6,92.0 939.0,91.8 940.4,91.7 942.0,91.6" stroke="#000" stroke-width="0.90" stroke-opacity="1.00" fill="none" />
<polyline class="pl" points="910.8,104.6 912.4,104.6 913.8,104.8 915.2,105.0 916.4,105.2 917.6,105.6 918.8,105.9 919.8,106.4 920.8,106.8 921.7,107.4 922.7,107.9 923.5,108.5 924.4,109.1 925.2,109.7 926.0,110.3 926.8,111.0 927.6,111.6 928.4,112.2 929.3,112.8 930.1,113.4 931.1,113.9 932.0,114.4 933.0,114.9 934.0,115.3 935.2,115.7 936.4,116.1 937.6,116.3 939.0,116.5 940.4,116.6 942.0,116.7" stroke="#7FBF7F" stroke-width="0.90" stroke-opacity="1.00" fill="none" />
<text transform="translate(160.0,666.1)" font-size="19.80" font-family="Helvetica" fill="#BFBFBF" stroke="none" xml:space="preserve">CICERO   &#9679;   Data: UNFCCC (2024)</text>
<g>
  <rect x="123.0" y="651.4" width="34" height="17" fill="#FFF" stroke="none" opacity="0.01"/>
  <g transform="translate(124.0,652.4) scale(0.24)">
  <g><circle fill="#FFF" cx="37.79" cy="28.5" r="28.84"/>
     <circle fill="none" cx="37.79" cy="28.5" r="28.84" stroke="#BFBFBF" stroke-width="5.5"/>
     <path fill="#BFBFBF" d="M37.16,23.19 l-4.29,2.23c-0.458-0.951-1.02-1.62-1.69-2c-0.667-0.38-1.29-0.571-1.86-0.571c-2.86,0-4.29,1.89-4.29,5.66 c0,1.71,0.36,3.08,1.09,4.11c0.724,1.03,1.79,1.54,3.2,1.54c1.87,0,3.18-0.915,3.94-2.74l3.94,2 c-0.838,1.56-2,2.79-3.49,3.69c-1.48,0.896-3.12,1.34-4.91,1.34c-2.86,0-5.16-0.875-6.92-2.63 c-1.75-1.75-2.63-4.19-2.63-7.31c0-3.05,0.886-5.47,2.66-7.26c1.77-1.79,4.01-2.69,6.72-2.69 C32.6,18.56,35.44,20.1,37.16,23.19z
              M55.61,23.19l-4.23,2.23c-0.457-0.951-1.02-1.62-1.69-2 c-0.668-0.38-1.31-0.571-1.91-0.571c-2.86,0-4.29,1.89-4.29,5.66c0,1.71,0.363,3.08,1.09,4.11 c0.723,1.03,1.79,1.54,3.2,1.54c1.87,0,3.18-0.915,3.94-2.74l4,2c-0.875,1.56-2.06,2.79-3.54,3.69 c-1.49,0.9-3.11,1.34-4.86,1.34c-2.9,0-5.21-0.875-6.94-2.63c-1.74-1.75-2.6-4.19-2.6-7.31 c0-3.05,0.885-5.47,2.66-7.26c1.77-1.79,4.01-2.69,6.71-2.69C51.12,18.56,53.944,20.1,55.61,23.19z"/>
  </g></g>
  <g transform="translate(140.2,652.4) scale(0.24)">
  <g><circle fill="#FFF" cx="37.79" cy="28.5" r="28.84"/>
     <circle fill="none" cx="37.79" cy="28.5" r="28.84" stroke="#BFBFBF" stroke-width="5.5"/>
     <path fill="#BFBFBF" d="M46.129,20.557v13.085h-3.656v15.542h-9.944V33.643h-3.656V20.557 c0-0.572,0.2-1.057,0.599-1.457c0.401-0.399,0.887-0.6,1.457-0.6h13.144c0.533,0,1.01,0.2,1.428,0.6 C45.918,19.5,46.129,19.986,46.129,20.557z
              M33.042,12.329c0-3.008,1.485-4.514,4.458-4.514s4.457,1.504,4.457,4.514 c0,2.971-1.486,4.457-4.457,4.457S33.042,15.3,33.042,12.329z"/>
  </g></g>
</g>
</g>
</svg>
