<svg version="1.1" xmlns="http://www.w3.org/2000/svg" xmlns:xlink="http://www.w3.org/1999/xlink" width="100%" height="100%" viewBox="0 0 1200.000 674.916">
<title>Annual N2O Emissions: Luxembourg</title>
<style type="text/css">
  #main {font-family:Helvetica,Arial,sans-serif; font-size:27.00px;
         fill-opacity:1; fill:#000000; stroke:none; stroke-linejoin:round; stroke-linecap:round; stroke-width:1.00;}
  .marker {stroke-opacity:0;fill-opacity:0;}
  .marker:hover {stroke-opacity:0.5; fill-opacity:1;}
  .ticklabel {font-size:27.00px;fill:#808080;stroke:none;font-family:Helvetica}
  .ytl {text-anchor:end;}
  .dp1 {pointer-events:none;font-size:70%;text-anchor:middle;fill:#000000;}
  .dp2 {pointer-events:none;font-size:70%;text-anchor:middle;fill:#FFFFFF;}
  .numtip {pointer-events:none;}
  .cc {opacity:0.25;}
.dl_fe {background-color:#FDFFDF;display:flex;margin:auto;align-items:center}
.dl_fe_p {font-size:20px;text-align:center;margin:3px}
.dl_el {display:none;pointer-events:none;}
.cc:hover + .dl_el {display:block;}
text:hover + .dl_el {display:block;}
</style>
<defs>
  <clipPath id="axis_clip"><rect x="145.8" y="54.2" width="761.2" height="532.8" /></clipPath>
  <path id="line_y" d="M 0,53.993 v 533.183" stroke="#262626" stroke-opacity="0.15" stroke-width="1.00"/>
  <path id="line_x" d="M 145.600,0 h 761.600" stroke="#262626" stroke-opacity="0.15" stroke-width="1.00"/>
  <path id="tick_y" d="M 145.600,0 h -6.000" stroke="#808080" stroke-width="0.90"/>
  <path id="tick_x" d="M 0,587.177 v 6.000" stroke="#808080" stroke-width="0.90"/>
</defs>
<g id="main">
<use xlink:href="#line_y" transform="translate(156.8,0)"/>
<use xlink:href="#line_y" transform="translate(268.8,0)"/>
<use xlink:href="#line_y" transform="translate(380.8,0)"/>
<use xlink:href="#line_y" transform="translate(492.8,0)"/>
<use xlink:href="#line_y" transform="translate(604.8,0)"/>
<use xlink:href="#line_y" transform="translate(716.8,0)"/>
<use xlink:href="#line_y" transform="translate(828.8,0)"/>
<use xlink:href="#line_y" transform="translate(896.0,0)"/>
<use xlink:href="#line_x" transform="translate(0,587.2)"/>
<use xlink:href="#line_x" transform="translate(0,498.3)"/>
<use xlink:href="#line_x" transform="translate(0,409.4)"/>
<use xlink:href="#line_x" transform="translate(0,320.6)"/>
<use xlink:href="#line_x" transform="translate(0,231.7)"/>
<use xlink:href="#line_x" transform="translate(0,142.9)"/>
<use xlink:href="#line_x" transform="translate(0,54.0)"/>
<use xlink:href="#tick_y" transform="translate(0,587.2)"/>
<use xlink:href="#tick_y" transform="translate(0,498.3)"/>
<use xlink:href="#tick_y" transform="translate(0,409.4)"/>
<use xlink:href="#tick_y" transform="translate(0,320.6)"/>
<use xlink:href="#tick_y" transform="translate(0,231.7)"/>
<use xlink:href="#tick_y" transform="translate(0,142.9)"/>
<use xlink:href="#tick_y" transform="translate(0,54.0)"/>
<use xlink:href="#tick_x" transform="translate(156.8,0)"/>
<use xlink:href="#tick_x" transform="translate(268.8,0)"/>
<use xlink:href="#tick_x" transform="translate(380.8,0)"/>
<use xlink:href="#tick_x" transform="translate(492.8,0)"/>
<use xlink:href="#tick_x" transform="translate(604.8,0)"/>
<use xlink:href="#tick_x" transform="translate(716.8,0)"/>
<use xlink:href="#tick_x" transform="translate(828.8,0)"/>
<use xlink:href="#tick_x" transform="translate(896.0,0)"/>
<polyline points="145.6,53.993 145.6,587.177 907.2,587.177" stroke="#808080" stroke-width="0.90" fill="none"/>
<text class="ticklabel xtl" transform="translate(156.8,629.0)" text-anchor="middle">1990</text>
<text class="ticklabel xtl" transform="translate(268.8,629.0)" text-anchor="middle">1995</text>
<text class="ticklabel xtl" transform="translate(380.8,629.0)" text-anchor="middle">2000</text>
<text class="ticklabel xtl" transform="translate(492.8,629.0)" text-anchor="middle">2005</text>
<text class="ticklabel xtl" transform="translate(604.8,629.0)" text-anchor="middle">2010</text>
<text class="ticklabel xtl" transform="translate(716.8,629.0)" text-anchor="middle">2015</text>
<text class="ticklabel xtl" transform="translate(828.8,629.0)" text-anchor="middle">2020</text>
<text class="ticklabel xtl" transform="translate(896.0,629.0)" text-anchor="middle">23</text>
<text class="ticklabel ytl" transform="translate(128.8,595.3)">0</text>
<text class="ticklabel ytl" transform="translate(128.8,506.4)">0.2</text>
<text class="ticklabel ytl" transform="translate(128.8,417.5)">0.4</text>
<text class="ticklabel ytl" transform="translate(128.8,328.7)">0.6</text>
<text class="ticklabel ytl" transform="translate(128.8,239.8)">0.8</text>
<text class="ticklabel ytl" transform="translate(128.8,151.0)">1.0</text>
<text class="ticklabel ytl" transform="translate(128.8,62.1)">1.2 kt</text>
<g stroke="#000" stroke-width="0.90" fill="#7FBF7F"  clip-path="url(#axis_clip)">
  <polygon points="147.8,121.3 147.8,143.8 165.8,143.8 165.8,121.3 147.8,121.3"/>
  <polygon points="170.2,105.8 170.2,128.4 188.2,128.4 188.2,105.8 170.2,105.8"/>
  <polygon points="192.6,96.5 192.6,119.1 210.6,119.1 210.6,96.5 192.6,96.5"/>
  <polygon points="215.0,104.8 215.0,127.5 233.0,127.5 233.0,104.8 215.0,104.8"/>
  <polygon points="237.4,110.8 237.4,133.5 255.4,133.5 255.4,110.8 237.4,110.8"/>
  <polygon points="259.8,110.0 259.8,132.7 277.8,132.7 277.8,110.0 259.8,110.0"/>
  <polygon points="282.2,104.3 282.2,127.1 300.2,127.1 300.2,104.3 282.2,104.3"/>
  <polygon points="304.6,109.0 304.6,131.8 322.6,131.8 322.6,109.0 304.6,109.0"/>
  <polygon points="327.0,115.5 327.0,138.0 345.0,138.0 345.0,115.5 327.0,115.5"/>
  <polygon points="349.4,109.1 349.4,131.3 367.4,131.3 367.4,109.1 349.4,109.1"/>
  <polygon points="371.8,112.7 371.8,134.6 389.8,134.6 389.8,112.7 371.8,112.7"/>
  <polygon points="394.2,135.1 394.2,156.8 412.2,156.8 412.2,135.1 394.2,135.1"/>
  <polygon points="416.6,136.3 416.6,157.7 434.6,157.7 434.6,136.3 416.6,136.3"/>
  <polygon points="439.0,162.8 439.0,183.9 457.0,183.9 457.0,162.8 439.0,162.8"/>
  <polygon points="461.4,129.9 461.4,150.6 479.4,150.6 479.4,129.9 461.4,129.9"/>
  <polygon points="483.8,148.4 483.8,169.0 501.8,169.0 501.8,148.4 483.8,148.4"/>
  <polygon points="506.2,150.0 506.2,169.9 524.2,169.9 524.2,150.0 506.2,150.0"/>
  <polygon points="528.6,146.7 528.6,166.0 546.6,166.0 546.6,146.7 528.6,146.7"/>
  <polygon points="551.0,134.4 551.0,153.0 569.0,153.0 569.0,134.4 551.0,134.4"/>
  <polygon points="573.4,139.9 573.4,156.9 591.4,156.9 591.4,139.9 573.4,139.9"/>
  <polygon points="595.8,130.2 595.8,146.7 613.8,146.7 613.8,130.2 595.8,130.2"/>
  <polygon points="618.2,126.0 618.2,140.4 636.2,140.4 636.2,126.0 618.2,126.0"/>
  <polygon points="640.6,137.0 640.6,149.5 658.6,149.5 658.6,137.0 640.6,137.0"/>
  <polygon points="663.0,137.0 663.0,147.6 681.0,147.6 681.0,137.0 663.0,137.0"/>
  <polygon points="685.4,132.4 685.4,141.8 703.4,141.8 703.4,132.4 685.4,132.4"/>
  <polygon points="707.8,135.8 707.8,143.9 725.8,143.9 725.8,135.8 707.8,135.8"/>
  <polygon points="730.2,122.7 730.2,129.6 748.2,129.6 748.2,122.7 730.2,122.7"/>
  <polygon points="752.6,113.8 752.6,120.1 770.6,120.1 770.6,113.8 752.6,113.8"/>
  <polygon points="775.0,111.3 775.0,117.3 793.0,117.3 793.0,111.3 775.0,111.3"/>
  <polygon points="797.4,106.8 797.4,112.5 815.4,112.5 815.4,106.8 797.4,106.8"/>
  <polygon points="819.8,131.7 819.8,136.9 837.8,136.9 837.8,131.7 819.8,131.7"/>
  <polygon points="842.2,122.5 842.2,127.3 860.2,127.3 860.2,122.5 842.2,122.5"/>
  <polygon points="864.6,185.0 864.6,189.4 882.6,189.4 882.6,185.0 864.6,185.0"/>
  <polygon points="887.0,176.0 887.0,180.1 905.0,180.1 905.0,176.0 887.0,176.0"/>
</g>
<g stroke="#000" stroke-width="0.90" fill="#DBA746"  clip-path="url(#axis_clip)">
  <polygon points="147.8,143.8 147.8,151.4 165.8,151.4 165.8,143.8 147.8,143.8"/>
  <polygon points="170.2,128.4 170.2,136.1 188.2,136.1 188.2,128.4 170.2,128.4"/>
  <polygon points="192.6,119.1 192.6,127.0 210.6,127.0 210.6,119.1 192.6,119.1"/>
  <polygon points="215.0,127.5 215.0,137.2 233.0,137.2 233.0,127.5 215.0,127.5"/>
  <polygon points="237.4,133.5 237.4,143.8 255.4,143.8 255.4,133.5 237.4,133.5"/>
  <polygon points="259.8,132.7 259.8,143.4 277.8,143.4 277.8,132.7 259.8,132.7"/>
  <polygon points="282.2,127.1 282.2,139.0 300.2,139.0 300.2,127.1 282.2,127.1"/>
  <polygon points="304.6,131.8 304.6,144.1 322.6,144.1 322.6,131.8 304.6,131.8"/>
  <polygon points="327.0,138.0 327.0,151.6 345.0,151.6 345.0,138.0 327.0,138.0"/>
  <polygon points="349.4,131.3 349.4,144.7 367.4,144.7 367.4,131.3 349.4,131.3"/>
  <polygon points="371.8,134.6 371.8,149.2 389.8,149.2 389.8,134.6 371.8,134.6"/>
  <polygon points="394.2,156.8 394.2,172.2 412.2,172.2 412.2,156.8 394.2,156.8"/>
  <polygon points="416.6,157.7 416.6,173.2 434.6,173.2 434.6,157.7 416.6,157.7"/>
  <polygon points="439.0,183.9 439.0,201.6 457.0,201.6 457.0,183.9 439.0,183.9"/>
  <polygon points="461.4,150.6 461.4,168.1 479.4,168.1 479.4,150.6 461.4,150.6"/>
  <polygon points="483.8,169.0 483.8,187.8 501.8,187.8 501.8,169.0 483.8,169.0"/>
  <polygon points="506.2,169.9 506.2,189.3 524.2,189.3 524.2,169.9 506.2,169.9"/>
  <polygon points="528.6,166.0 528.6,186.3 546.6,186.3 546.6,166.0 528.6,166.0"/>
  <polygon points="551.0,153.0 551.0,174.4 569.0,174.4 569.0,153.0 551.0,153.0"/>
  <polygon points="573.4,156.9 573.4,177.6 591.4,177.6 591.4,156.9 573.4,156.9"/>
  <polygon points="595.8,146.7 595.8,167.9 613.8,167.9 613.8,146.7 595.8,146.7"/>
  <polygon points="618.2,140.4 618.2,158.9 636.2,158.9 636.2,140.4 618.2,140.4"/>
  <polygon points="640.6,149.5 640.6,166.7 658.6,166.7 658.6,149.5 640.6,149.5"/>
  <polygon points="663.0,147.6 663.0,164.6 681.0,164.6 681.0,147.6 663.0,147.6"/>
  <polygon points="685.4,141.8 685.4,159.4 703.4,159.4 703.4,141.8 685.4,141.8"/>
  <polygon points="707.8,143.9 707.8,159.4 725.8,159.4 725.8,143.9 707.8,143.9"/>
  <polygon points="730.2,129.6 730.2,146.1 748.2,146.1 748.2,129.6 730.2,129.6"/>
  <polygon points="752.6,120.1 752.6,135.7 770.6,135.7 770.6,120.1 752.6,120.1"/>
  <polygon points="775.0,117.3 775.0,133.2 793.0,133.2 793.0,117.3 775.0,117.3"/>
  <polygon points="797.4,112.5 797.4,128.4 815.4,128.4 815.4,112.5 797.4,112.5"/>
  <polygon points="819.8,136.9 819.8,152.0 837.8,152.0 837.8,136.9 819.8,136.9"/>
  <polygon points="842.2,127.3 842.2,143.3 860.2,143.3 860.2,127.3 842.2,127.3"/>
  <polygon points="864.6,189.4 864.6,203.7 882.6,203.7 882.6,189.4 864.6,189.4"/>
  <polygon points="887.0,180.1 887.0,195.0 905.0,195.0 905.0,180.1 887.0,180.1"/>
</g>
<g stroke="#000" stroke-width="0.90" fill="#845F48"  clip-path="url(#axis_clip)">
  <polygon points="147.8,151.4 147.8,520.7 165.8,520.7 165.8,151.4 147.8,151.4"/>
  <polygon points="170.2,136.1 170.2,512.9 188.2,512.9 188.2,136.1 170.2,136.1"/>
  <polygon points="192.6,127.0 192.6,507.3 210.6,507.3 210.6,127.0 192.6,127.0"/>
  <polygon points="215.0,137.2 215.0,503.5 233.0,503.5 233.0,137.2 215.0,137.2"/>
  <polygon points="237.4,143.8 237.4,499.2 255.4,499.2 255.4,143.8 237.4,143.8"/>
  <polygon points="259.8,143.4 259.8,502.6 277.8,502.6 277.8,143.4 259.8,143.4"/>
  <polygon points="282.2,139.0 282.2,502.0 300.2,502.0 300.2,139.0 282.2,139.0"/>
  <polygon points="304.6,144.1 304.6,501.2 322.6,501.2 322.6,144.1 304.6,144.1"/>
  <polygon points="327.0,151.6 327.0,503.0 345.0,503.0 345.0,151.6 327.0,151.6"/>
  <polygon points="349.4,144.7 349.4,501.1 367.4,501.1 367.4,144.7 349.4,144.7"/>
  <polygon points="371.8,149.2 371.8,498.9 389.8,498.9 389.8,149.2 371.8,149.2"/>
  <polygon points="394.2,172.2 394.2,499.2 412.2,499.2 412.2,172.2 394.2,172.2"/>
  <polygon points="416.6,173.2 416.6,499.4 434.6,499.4 434.6,173.2 416.6,173.2"/>
  <polygon points="439.0,201.6 439.0,499.8 457.0,499.8 457.0,201.6 439.0,201.6"/>
  <polygon points="461.4,168.1 461.4,499.1 479.4,499.1 479.4,168.1 461.4,168.1"/>
  <polygon points="483.8,187.8 483.8,499.7 501.8,499.7 501.8,187.8 483.8,187.8"/>
  <polygon points="506.2,189.3 506.2,499.4 524.2,499.4 524.2,189.3 506.2,189.3"/>
  <polygon points="528.6,186.3 528.6,494.9 546.6,494.9 546.6,186.3 528.6,186.3"/>
  <polygon points="551.0,174.4 551.0,489.8 569.0,489.8 569.0,174.4 551.0,174.4"/>
  <polygon points="573.4,177.6 573.4,491.7 591.4,491.7 591.4,177.6 573.4,177.6"/>
  <polygon points="595.8,167.9 595.8,485.4 613.8,485.4 613.8,167.9 595.8,167.9"/>
  <polygon points="618.2,158.9 618.2,477.3 636.2,477.3 636.2,158.9 618.2,158.9"/>
  <polygon points="640.6,166.7 640.6,475.6 658.6,475.6 658.6,166.7 640.6,166.7"/>
  <polygon points="663.0,164.6 663.0,473.4 681.0,473.4 681.0,164.6 663.0,164.6"/>
  <polygon points="685.4,159.4 685.4,470.6 703.4,470.6 703.4,159.4 685.4,159.4"/>
  <polygon points="707.8,159.4 707.8,470.9 725.8,470.9 725.8,159.4 707.8,159.4"/>
  <polygon points="730.2,146.1 730.2,466.8 748.2,466.8 748.2,146.1 730.2,146.1"/>
  <polygon points="752.6,135.7 752.6,460.9 770.6,460.9 770.6,135.7 752.6,135.7"/>
  <polygon points="775.0,133.2 775.0,451.9 793.0,451.9 793.0,133.2 775.0,133.2"/>
  <polygon points="797.4,128.4 797.4,446.2 815.4,446.2 815.4,128.4 797.4,128.4"/>
  <polygon points="819.8,152.0 819.8,462.3 837.8,462.3 837.8,152.0 819.8,152.0"/>
  <polygon points="842.2,143.3 842.2,457.6 860.2,457.6 860.2,143.3 842.2,143.3"/>
  <polygon points="864.6,203.7 864.6,466.6 882.6,466.6 882.6,203.7 864.6,203.7"/>
  <polygon points="887.0,195.0 887.0,469.7 905.0,469.7 905.0,195.0 887.0,195.0"/>
</g>
<g stroke="#000" stroke-width="0.90" fill="#4A89E8"  clip-path="url(#axis_clip)">
  <polygon points="147.8,520.7 147.8,534.7 165.8,534.7 165.8,520.7 147.8,520.7"/>
  <polygon points="170.2,512.9 170.2,526.4 188.2,526.4 188.2,512.9 170.2,512.9"/>
  <polygon points="192.6,507.3 192.6,520.4 210.6,520.4 210.6,507.3 192.6,507.3"/>
  <polygon points="215.0,503.5 215.0,516.1 233.0,516.1 233.0,503.5 215.0,503.5"/>
  <polygon points="237.4,499.2 237.4,511.4 255.4,511.4 255.4,499.2 237.4,499.2"/>
  <polygon points="259.8,502.6 259.8,514.2 277.8,514.2 277.8,502.6 259.8,502.6"/>
  <polygon points="282.2,502.0 282.2,513.2 300.2,513.2 300.2,502.0 282.2,502.0"/>
  <polygon points="304.6,501.2 304.6,512.0 322.6,512.0 322.6,501.2 304.6,501.2"/>
  <polygon points="327.0,503.0 327.0,513.2 345.0,513.2 345.0,503.0 327.0,503.0"/>
  <polygon points="349.4,501.1 349.4,510.8 367.4,510.8 367.4,501.1 349.4,501.1"/>
  <polygon points="371.8,498.9 371.8,508.2 389.8,508.2 389.8,498.9 371.8,498.9"/>
  <polygon points="394.2,499.2 394.2,507.8 412.2,507.8 412.2,499.2 394.2,499.2"/>
  <polygon points="416.6,499.4 416.6,508.1 434.6,508.1 434.6,499.4 416.6,499.4"/>
  <polygon points="439.0,499.8 439.0,508.3 457.0,508.3 457.0,499.8 439.0,499.8"/>
  <polygon points="461.4,499.1 461.4,506.8 479.4,506.8 479.4,499.1 461.4,499.1"/>
  <polygon points="483.8,499.7 483.8,507.0 501.8,507.0 501.8,499.7 483.8,499.7"/>
  <polygon points="506.2,499.4 506.2,507.1 524.2,507.1 524.2,499.4 506.2,499.4"/>
  <polygon points="528.6,494.9 528.6,503.2 546.6,503.2 546.6,494.9 528.6,494.9"/>
  <polygon points="551.0,489.8 551.0,498.8 569.0,498.8 569.0,489.8 551.0,489.8"/>
  <polygon points="573.4,491.7 573.4,499.7 591.4,499.7 591.4,491.7 573.4,491.7"/>
  <polygon points="595.8,485.4 595.8,491.8 613.8,491.8 613.8,485.4 595.8,485.4"/>
  <polygon points="618.2,477.3 618.2,483.4 636.2,483.4 636.2,477.3 618.2,477.3"/>
  <polygon points="640.6,475.6 640.6,481.6 658.6,481.6 658.6,475.6 640.6,475.6"/>
  <polygon points="663.0,473.4 663.0,478.8 681.0,478.8 681.0,473.4 663.0,473.4"/>
  <polygon points="685.4,470.6 685.4,476.3 703.4,476.3 703.4,470.6 685.4,470.6"/>
  <polygon points="707.8,470.9 707.8,476.5 725.8,476.5 725.8,470.9 707.8,470.9"/>
  <polygon points="730.2,466.8 730.2,473.3 748.2,473.3 748.2,466.8 730.2,466.8"/>
  <polygon points="752.6,460.9 752.6,467.5 770.6,467.5 770.6,460.9 752.6,460.9"/>
  <polygon points="775.0,451.9 775.0,458.8 793.0,458.8 793.0,451.9 775.0,451.9"/>
  <polygon points="797.4,446.2 797.4,453.5 815.4,453.5 815.4,446.2 797.4,446.2"/>
  <polygon points="819.8,462.3 819.8,470.2 837.8,470.2 837.8,462.3 819.8,462.3"/>
  <polygon points="842.2,457.6 842.2,465.7 860.2,465.7 860.2,457.6 842.2,457.6"/>
  <polygon points="864.6,466.6 864.6,475.2 882.6,475.2 882.6,466.6 864.6,466.6"/>
  <polygon points="887.0,469.7 887.0,478.6 905.0,478.6 905.0,469.7 887.0,469.7"/>
</g>
<g stroke="#000" stroke-width="0.90" fill="#FF7F61"  clip-path="url(#axis_clip)">
  <polygon points="147.8,534.7 147.8,587.2 165.8,587.2 165.8,534.7 147.8,534.7"/>
  <polygon points="170.2,526.4 170.2,587.2 188.2,587.2 188.2,526.4 170.2,526.4"/>
  <polygon points="192.6,520.4 192.6,587.2 210.6,587.2 210.6,520.4 192.6,520.4"/>
  <polygon points="215.0,516.1 215.0,587.2 233.0,587.2 233.0,516.1 215.0,516.1"/>
  <polygon points="237.4,511.4 237.4,587.2 255.4,587.2 255.4,511.4 237.4,511.4"/>
  <polygon points="259.8,514.2 259.8,587.2 277.8,587.2 277.8,514.2 259.8,514.2"/>
  <polygon points="282.2,513.2 282.2,587.2 300.2,587.2 300.2,513.2 282.2,513.2"/>
  <polygon points="304.6,512.0 304.6,587.2 322.6,587.2 322.6,512.0 304.6,512.0"/>
  <polygon points="327.0,513.2 327.0,587.2 345.0,587.2 345.0,513.2 327.0,513.2"/>
  <polygon points="349.4,510.8 349.4,587.2 367.4,587.2 367.4,510.8 349.4,510.8"/>
  <polygon points="371.8,508.2 371.8,587.2 389.8,587.2 389.8,508.2 371.8,508.2"/>
  <polygon points="394.2,507.8 394.2,587.2 412.2,587.2 412.2,507.8 394.2,507.8"/>
  <polygon points="416.6,508.1 416.6,587.2 434.6,587.2 434.6,508.1 416.6,508.1"/>
  <polygon points="439.0,508.3 439.0,587.2 457.0,587.2 457.0,508.3 439.0,508.3"/>
  <polygon points="461.4,506.8 461.4,587.2 479.4,587.2 479.4,506.8 461.4,506.8"/>
  <polygon points="483.8,507.0 483.8,587.2 501.8,587.2 501.8,507.0 483.8,507.0"/>
  <polygon points="506.2,507.1 506.2,587.2 524.2,587.2 524.2,507.1 506.2,507.1"/>
  <polygon points="528.6,503.2 528.6,587.2 546.6,587.2 546.6,503.2 528.6,503.2"/>
  <polygon points="551.0,498.8 551.0,587.2 569.0,587.2 569.0,498.8 551.0,498.8"/>
  <polygon points="573.4,499.7 573.4,587.2 591.4,587.2 591.4,499.7 573.4,499.7"/>
  <polygon points="595.8,491.8 595.8,587.2 613.8,587.2 613.8,491.8 595.8,491.8"/>
  <polygon points="618.2,483.4 618.2,587.2 636.2,587.2 636.2,483.4 618.2,483.4"/>
  <polygon points="640.6,481.6 640.6,587.2 658.6,587.2 658.6,481.6 640.6,481.6"/>
  <polygon points="663.0,478.8 663.0,587.2 681.0,587.2 681.0,478.8 663.0,478.8"/>
  <polygon points="685.4,476.3 685.4,587.2 703.4,587.2 703.4,476.3 685.4,476.3"/>
  <polygon points="707.8,476.5 707.8,587.2 725.8,587.2 725.8,476.5 707.8,476.5"/>
  <polygon points="730.2,473.3 730.2,587.2 748.2,587.2 748.2,473.3 730.2,473.3"/>
  <polygon points="752.6,467.5 752.6,587.2 770.6,587.2 770.6,467.5 752.6,467.5"/>
  <polygon points="775.0,458.8 775.0,587.2 793.0,587.2 793.0,458.8 775.0,458.8"/>
  <polygon points="797.4,453.5 797.4,587.2 815.4,587.2 815.4,453.5 797.4,453.5"/>
  <polygon points="819.8,470.2 819.8,587.2 837.8,587.2 837.8,470.2 819.8,470.2"/>
  <polygon points="842.2,465.7 842.2,587.2 860.2,587.2 860.2,465.7 842.2,465.7"/>
  <polygon points="864.6,475.2 864.6,587.2 882.6,587.2 882.6,475.2 864.6,475.2"/>
  <polygon points="887.0,478.6 887.0,587.2 905.0,587.2 905.0,478.6 887.0,478.6"/>
</g>
<polyline class="pl" points="156.8,121.3 179.2,105.8 201.6,96.5 224.0,104.8 246.4,110.8 268.8,110.0 291.2,104.3 313.6,109.0 336.0,115.5 358.4,109.1 380.8,112.7 403.2,135.1 425.6,136.3 448.0,162.8 470.4,129.9 492.8,148.4 515.2,150.0 537.6,146.7 560.0,134.4 582.4,139.9 604.8,130.2 627.2,126.0 649.6,137.0 672.0,137.0 694.4,132.4 716.8,135.8 739.2,122.7 761.6,113.8 784.0,111.3 806.4,106.8 828.8,131.7 851.2,122.5 873.6,185.0 896.0,176.0" stroke="#000" stroke-width="5.40" stroke-opacity="1.00" fill="none" clip-path="url(#axis_clip)"/>
<g class="pl" fill="#FFF" stroke="#000" stroke-width="0.900">
  <circle cx="179.2" cy="105.8" r="2.2" />
  <circle cx="201.6" cy="96.5" r="2.2" />
  <circle cx="224.0" cy="104.8" r="2.2" />
  <circle cx="246.4" cy="110.8" r="2.2" />
  <circle cx="268.8" cy="110.0" r="2.2" />
  <circle cx="291.2" cy="104.3" r="2.2" />
  <circle cx="313.6" cy="109.0" r="2.2" />
  <circle cx="336.0" cy="115.5" r="2.2" />
  <circle cx="358.4" cy="109.1" r="2.2" />
  <circle cx="403.2" cy="135.1" r="2.2" />
  <circle cx="425.6" cy="136.3" r="2.2" />
  <circle cx="448.0" cy="162.8" r="2.2" />
  <circle cx="470.4" cy="129.9" r="2.2" />
  <circle cx="492.8" cy="148.4" r="2.2" />
  <circle cx="515.2" cy="150.0" r="2.2" />
  <circle cx="537.6" cy="146.7" r="2.2" />
  <circle cx="560.0" cy="134.4" r="2.2" />
  <circle cx="582.4" cy="139.9" r="2.2" />
  <circle cx="627.2" cy="126.0" r="2.2" />
  <circle cx="649.6" cy="137.0" r="2.2" />
  <circle cx="672.0" cy="137.0" r="2.2" />
  <circle cx="694.4" cy="132.4" r="2.2" />
  <circle cx="716.8" cy="135.8" r="2.2" />
  <circle cx="739.2" cy="122.7" r="2.2" />
  <circle cx="761.6" cy="113.8" r="2.2" />
  <circle cx="784.0" cy="111.3" r="2.2" />
  <circle cx="806.4" cy="106.8" r="2.2" />
  <circle cx="851.2" cy="122.5" r="2.2" />
  <circle cx="873.6" cy="185.0" r="2.2" />
  <circle cx="896.0" cy="176.0" r="2.2" />
</g>
<g class="pl" fill="#FFF" stroke="#000" stroke-width="0.900">
  <circle cx="156.8" cy="121.3" r="5.4" />
  <circle cx="380.8" cy="112.7" r="5.4" />
  <circle cx="604.8" cy="130.2" r="5.4" />
  <circle cx="828.8" cy="131.7" r="5.4" />
</g>
<text transform="translate(145.6,47.2)" dy="0.0" font-size="27.00" fill="#808080" stroke="none">Annual N<tspan dy="0.2em"><tspan style="font-size:70%">2</tspan></tspan><tspan dy="-0.2em">O</tspan> Emissions: Luxembourg</text>
<text transform="translate(130.0,81.6)" dy="8.1" font-size="27.00" fill="#808080" stroke="none" text-anchor="end">N<tspan dy="0.2em"><tspan style="font-size:70%">2</tspan></tspan><tspan dy="-0.2em">O</tspan></text>
<text transform="translate(945.6,155.5)" dy="7.6" font-size="25.20" fill="#000" stroke="none">-11.8% since 1990</text>
<text transform="translate(945.6,532.9)" dy="7.6" font-size="25.20" fill="#FF7F61" stroke="none">Energy</text>
<text transform="translate(945.6,474.2)" dy="7.6" font-size="25.20" fill="#4A89E8" stroke="none">Industrial Processes</text>
<text transform="translate(945.6,332.4)" dy="7.6" font-size="25.20" fill="#845F48" stroke="none">Agriculture</text>
<text transform="translate(945.6,205.6)" dy="7.6" font-size="25.20" fill="#DBA746" stroke="none">Waste</text>
<text transform="translate(945.6,180.6)" dy="7.6" font-size="25.20" fill="#7FBF7F" stroke="none">LULUCF</text>
<polyline class="pl" points="910.8,176.0 912.4,176.0 913.8,175.8 915.2,175.4 916.4,175.0 917.6,174.4 918.8,173.8 919.8,173.0 920.8,172.2 921.7,171.3 922.7,170.4 923.5,169.4 924.4,168.4 925.2,167.4 926.0,166.3 926.8,165.2 927.6,164.2 928.4,163.2 929.3,162.1 930.1,161.2 931.1,160.2 932.0,159.3 933.0,158.5 934.0,157.8 935.2,157.1 936.4,156.6 937.6,156.1 939.0,155.8 940.4,155.6 942.0,155.5" stroke="#000" stroke-width="0.90" stroke-opacity="1.00" fill="none" />
<polyline class="pl" points="910.8,187.6 912.4,187.6 913.8,187.8 915.2,188.1 916.4,188.5 917.6,189.0 918.8,189.6 919.8,190.2 920.8,190.9 921.7,191.7 922.7,192.5 923.5,193.4 924.4,194.3 925.2,195.2 926.0,196.1 926.8,197.1 927.6,198.0 928.4,198.9 929.3,199.8 930.1,200.7 931.1,201.5 932.0,202.2 933.0,203.0 934.0,203.6 935.2,204.2 936.4,204.7 937.6,205.1 939.0,205.4 940.4,205.5 942.0,205.6" stroke="#DBA746" stroke-width="0.90" stroke-opacity="1.00" fill="none" />
<polyline class="pl" points="910.8,178.1 912.4,178.1 913.8,178.1 915.2,178.2 916.4,178.2 917.6,178.3 918.8,178.4 919.8,178.5 920.8,178.5 921.7,178.7 922.7,178.8 923.5,178.9 924.4,179.0 925.2,179.1 926.0,179.3 926.8,179.4 927.6,179.5 928.4,179.6 929.3,179.8 930.1,179.9 931.1,180.0 932.0,180.1 933.0,180.2 934.0,180.3 935.2,180.4 936.4,180.4 937.6,180.5 939.0,180.5 940.4,180.6 942.0,180.6" stroke="#7FBF7F" stroke-width="0.90" stroke-opacity="1.00" fill="none" />
<text transform="translate(160.0,666.1)" font-size="19.80" font-family="Helvetica" fill="#BFBFBF" stroke="none" xml:space="preserve">CICERO   &#9679;   Data: UNFCCC (2025)</text>
<g>
  <rect x="123.0" y="651.4" width="34" height="17" fill="#FFF" stroke="none" opacity="0.01"/>
  <g transform="translate(124.0,652.4) scale(0.24)">
  <g><circle fill="#FFF" cx="37.79" cy="28.5" r="28.84"/>
     <circle fill="none" cx="37.79" cy="28.5" r="28.84" stroke="#BFBFBF" stroke-width="5.5"/>
     <path fill="#BFBFBF" d="M37.16,23.19 l-4.29,2.23c-0.458-0.951-1.02-1.62-1.69-2c-0.667-0.38-1.29-0.571-1.86-0.571c-2.86,0-4.29,1.89-4.29,5.66 c0,1.71,0.36,3.08,1.09,4.11c0.724,1.03,1.79,1.54,3.2,1.54c1.87,0,3.18-0.915,3.94-2.74l3.94,2 c-0.838,1.56-2,2.79-3.49,3.69c-1.48,0.896-3.12,1.34-4.91,1.34c-2.86,0-5.16-0.875-6.92-2.63 c-1.75-1.75-2.63-4.19-2.63-7.31c0-3.05,0.886-5.47,2.66-7.26c1.77-1.79,4.01-2.69,6.72-2.69 C32.6,18.56,35.44,20.1,37.16,23.19z
              M55.61,23.19l-4.23,2.23c-0.457-0.951-1.02-1.62-1.69-2 c-0.668-0.38-1.31-0.571-1.91-0.571c-2.86,0-4.29,1.89-4.29,5.66c0,1.71,0.363,3.08,1.09,4.11 c0.723,1.03,1.79,1.54,3.2,1.54c1.87,0,3.18-0.915,3.94-2.74l4,2c-0.875,1.56-2.06,2.79-3.54,3.69 c-1.49,0.9-3.11,1.34-4.86,1.34c-2.9,0-5.21-0.875-6.94-2.63c-1.74-1.75-2.6-4.19-2.6-7.31 c0-3.05,0.885-5.47,2.66-7.26c1.77-1.79,4.01-2.69,6.71-2.69C51.12,18.56,53.944,20.1,55.61,23.19z"/>
  </g></g>
  <g transform="translate(140.2,652.4) scale(0.24)">
  <g><circle fill="#FFF" cx="37.79" cy="28.5" r="28.84"/>
     <circle fill="none" cx="37.79" cy="28.5" r="28.84" stroke="#BFBFBF" stroke-width="5.5"/>
     <path fill="#BFBFBF" d="M46.129,20.557v13.085h-3.656v15.542h-9.944V33.643h-3.656V20.557 c0-0.572,0.2-1.057,0.599-1.457c0.401-0.399,0.887-0.6,1.457-0.6h13.144c0.533,0,1.01,0.2,1.428,0.6 C45.918,19.5,46.129,19.986,46.129,20.557z
              M33.042,12.329c0-3.008,1.485-4.514,4.458-4.514s4.457,1.504,4.457,4.514 c0,2.971-1.486,4.457-4.457,4.457S33.042,15.3,33.042,12.329z"/>
  </g></g>
</g>
</g>
</svg>
