<svg version="1.1" xmlns="http://www.w3.org/2000/svg" xmlns:xlink="http://www.w3.org/1999/xlink" width="100%" height="100%" viewBox="0 0 1200.000 674.916">
<title>Annual Fossil CO2 Emissions in Malaysia</title>
<style type="text/css">
  #main {font-family:Helvetica,Arial,sans-serif; font-size:27.00px;
         fill-opacity:1; fill:#000000; stroke:none; stroke-linejoin:round; stroke-linecap:round; stroke-width:1.00;}
  .marker {stroke-opacity:0;fill-opacity:0;}
  .marker:hover {stroke-opacity:0.5; fill-opacity:1;}
  .ticklabel {font-size:27.00px;fill:#808080;stroke:none}
  .ytl {text-anchor:end;}
  .xtl {text-anchor:middle;}
  .dp1 {pointer-events:none;font-size:70%;text-anchor:middle;fill:#000000;}
  .dp2 {pointer-events:none;font-size:70%;text-anchor:middle;fill:#FFFFFF;}
  .numtip {pointer-events:none;}
  .cc {opacity:0.25;}
.dl_fe {background-color:#FDFFDF;display:flex;margin:auto;align-items:center}
.dl_fe_p {font-size:20px;text-align:center;margin:3px}
.dl_el {display:none;pointer-events:none;}
.cc:hover + .dl_el {display:block;}
text:hover + .dl_el {display:block;}
</style>
<defs>
  <clipPath id="axis_clip"><rect x="145.8" y="54.2" width="761.2" height="532.8" /></clipPath>
  <path id="line_x" d="M 145.600,0 h 761.600" stroke="#262626" stroke-opacity="0.15" stroke-width="1.00"/>
  <path id="tick_y" d="M 145.600,0 h -6.000" stroke="#808080" stroke-width="0.90"/>
  <path id="tick_x" d="M 0,587.177 v 6.000" stroke="#808080" stroke-width="0.90"/>
</defs>
<g id="main">
<use xlink:href="#line_x" transform="translate(0,587.2)"/>
<use xlink:href="#line_x" transform="translate(0,480.5)"/>
<use xlink:href="#line_x" transform="translate(0,373.9)"/>
<use xlink:href="#line_x" transform="translate(0,267.3)"/>
<use xlink:href="#line_x" transform="translate(0,160.6)"/>
<use xlink:href="#line_x" transform="translate(0,54.0)"/>
<use xlink:href="#tick_y" transform="translate(0,587.2)"/>
<use xlink:href="#tick_y" transform="translate(0,480.5)"/>
<use xlink:href="#tick_y" transform="translate(0,373.9)"/>
<use xlink:href="#tick_y" transform="translate(0,267.3)"/>
<use xlink:href="#tick_y" transform="translate(0,160.6)"/>
<use xlink:href="#tick_y" transform="translate(0,54.0)"/>
<use xlink:href="#tick_x" transform="translate(162.8,0)"/>
<use xlink:href="#tick_x" transform="translate(277.3,0)"/>
<use xlink:href="#tick_x" transform="translate(391.8,0)"/>
<use xlink:href="#tick_x" transform="translate(506.4,0)"/>
<use xlink:href="#tick_x" transform="translate(620.9,0)"/>
<use xlink:href="#tick_x" transform="translate(735.4,0)"/>
<use xlink:href="#tick_x" transform="translate(861.4,0)"/>
<polyline points="145.6,53.993 145.6,587.177 907.2,587.177" stroke="#808080" stroke-width="0.90" fill="none"/>
<text class="ticklabel xtl" transform="translate(162.8,629.0)">1960</text>
<text class="ticklabel xtl" transform="translate(277.3,629.0)">1970</text>
<text class="ticklabel xtl" transform="translate(391.8,629.0)">1980</text>
<text class="ticklabel xtl" transform="translate(506.4,629.0)">1990</text>
<text class="ticklabel xtl" transform="translate(620.9,629.0)">2000</text>
<text class="ticklabel xtl" transform="translate(735.4,629.0)">2010</text>
<text class="ticklabel xtl" transform="translate(861.4,629.0)">2021</text>
<text class="ticklabel ytl" transform="translate(128.8,595.3)">0</text>
<text class="ticklabel ytl" transform="translate(128.8,488.6)">20</text>
<text class="ticklabel ytl" transform="translate(128.8,382.0)">40</text>
<text class="ticklabel ytl" transform="translate(128.8,275.4)">60</text>
<text class="ticklabel ytl" transform="translate(128.8,168.7)">80</text>
<text class="ticklabel ytl" transform="translate(128.8,62.1)">100 Mt</text>
<polyline class="pl" points="139.9,587.1 151.3,586.9 162.8,586.7 174.2,586.6 185.7,586.7 197.1,586.7 208.6,586.8 220.0,586.9 231.5,586.8 242.9,586.9 254.4,586.9 265.9,586.9 277.3,586.8 288.8,586.4 300.2,587.0 311.7,586.5 323.1,586.3 334.6,586.8 346.0,586.7 357.5,586.6 368.9,586.7 380.4,586.5 391.8,586.1 403.3,585.1 414.7,585.3 426.2,581.9 437.6,581.4 449.1,579.5 460.5,581.5 472.0,580.2 483.5,581.0 494.9,561.6 506.4,558.3 517.8,554.8 529.3,553.5 540.7,558.5 552.2,553.9 563.6,553.4 575.1,545.9 586.5,553.2 598.0,553.7 609.4,559.4 620.9,545.2 632.3,534.2 643.8,520.3 655.2,490.1 666.7,418.1 678.1,448.0 689.6,445.2 701.1,427.6 712.5,384.4 724.0,338.8 735.4,292.1 746.9,291.0 758.3,268.0 769.8,278.0 781.2,278.6 792.7,233.6 804.1,208.4 815.6,168.0 827.0,138.5 838.5,133.6 849.9,83.0 861.4,129.7" stroke="#7B553E" stroke-width="5.40" stroke-opacity="1.00" fill="none" clip-path="url(#axis_clip)"/>
<g class="pl" fill="#FFF" stroke="#7B553E" stroke-width="0.900">
  <circle cx="151.3" cy="586.9" r="2.2"/>
  <circle cx="174.2" cy="586.6" r="2.2"/>
  <circle cx="185.7" cy="586.7" r="2.2"/>
  <circle cx="197.1" cy="586.7" r="2.2"/>
  <circle cx="208.6" cy="586.8" r="2.2"/>
  <circle cx="220.0" cy="586.9" r="2.2"/>
  <circle cx="231.5" cy="586.8" r="2.2"/>
  <circle cx="242.9" cy="586.9" r="2.2"/>
  <circle cx="254.4" cy="586.9" r="2.2"/>
  <circle cx="265.9" cy="586.9" r="2.2"/>
  <circle cx="288.8" cy="586.4" r="2.2"/>
  <circle cx="300.2" cy="587.0" r="2.2"/>
  <circle cx="311.7" cy="586.5" r="2.2"/>
  <circle cx="323.1" cy="586.3" r="2.2"/>
  <circle cx="334.6" cy="586.8" r="2.2"/>
  <circle cx="346.0" cy="586.7" r="2.2"/>
  <circle cx="357.5" cy="586.6" r="2.2"/>
  <circle cx="368.9" cy="586.7" r="2.2"/>
  <circle cx="380.4" cy="586.5" r="2.2"/>
  <circle cx="403.3" cy="585.1" r="2.2"/>
  <circle cx="414.7" cy="585.3" r="2.2"/>
  <circle cx="426.2" cy="581.9" r="2.2"/>
  <circle cx="437.6" cy="581.4" r="2.2"/>
  <circle cx="449.1" cy="579.5" r="2.2"/>
  <circle cx="460.5" cy="581.5" r="2.2"/>
  <circle cx="472.0" cy="580.2" r="2.2"/>
  <circle cx="483.5" cy="581.0" r="2.2"/>
  <circle cx="494.9" cy="561.6" r="2.2"/>
  <circle cx="517.8" cy="554.8" r="2.2"/>
  <circle cx="529.3" cy="553.5" r="2.2"/>
  <circle cx="540.7" cy="558.5" r="2.2"/>
  <circle cx="552.2" cy="553.9" r="2.2"/>
  <circle cx="563.6" cy="553.4" r="2.2"/>
  <circle cx="575.1" cy="545.9" r="2.2"/>
  <circle cx="586.5" cy="553.2" r="2.2"/>
  <circle cx="598.0" cy="553.7" r="2.2"/>
  <circle cx="609.4" cy="559.4" r="2.2"/>
  <circle cx="632.3" cy="534.2" r="2.2"/>
  <circle cx="643.8" cy="520.3" r="2.2"/>
  <circle cx="655.2" cy="490.1" r="2.2"/>
  <circle cx="666.7" cy="418.1" r="2.2"/>
  <circle cx="678.1" cy="448.0" r="2.2"/>
  <circle cx="689.6" cy="445.2" r="2.2"/>
  <circle cx="701.1" cy="427.6" r="2.2"/>
  <circle cx="712.5" cy="384.4" r="2.2"/>
  <circle cx="724.0" cy="338.8" r="2.2"/>
  <circle cx="746.9" cy="291.0" r="2.2"/>
  <circle cx="758.3" cy="268.0" r="2.2"/>
  <circle cx="769.8" cy="278.0" r="2.2"/>
  <circle cx="781.2" cy="278.6" r="2.2"/>
  <circle cx="792.7" cy="233.6" r="2.2"/>
  <circle cx="804.1" cy="208.4" r="2.2"/>
  <circle cx="815.6" cy="168.0" r="2.2"/>
  <circle cx="827.0" cy="138.5" r="2.2"/>
  <circle cx="838.5" cy="133.6" r="2.2"/>
  <circle cx="861.4" cy="129.7" r="2.2"/>
</g>
<g class="pl" fill="#FFF" stroke="#7B553E" stroke-width="0.900">
  <circle cx="162.8" cy="586.7" r="5.4"/>
  <circle cx="277.3" cy="586.8" r="5.4"/>
  <circle cx="391.8" cy="586.1" r="5.4"/>
  <circle cx="506.4" cy="558.3" r="5.4"/>
  <circle cx="620.9" cy="545.2" r="5.4"/>
  <circle cx="735.4" cy="292.1" r="5.4"/>
  <circle cx="849.9" cy="83.0" r="5.4"/>
</g>
<polyline class="pl" points="139.9,567.8 151.3,571.7 162.8,566.8 174.2,564.3 185.7,563.8 197.1,558.1 208.6,549.9 220.0,545.3 231.5,537.9 242.9,536.4 254.4,534.5 265.9,542.4 277.3,513.8 288.8,507.3 300.2,502.3 311.7,505.3 323.1,505.4 334.6,506.2 346.0,486.9 357.5,492.1 368.9,484.8 380.4,468.3 391.8,464.4 403.3,447.9 414.7,452.1 426.2,424.4 437.6,450.2 449.1,439.5 460.5,438.0 472.0,437.6 483.5,424.9 494.9,414.7 506.4,396.8 517.8,375.1 529.3,351.6 540.7,319.0 552.2,305.7 563.6,289.2 575.1,272.4 586.5,218.0 598.0,268.9 609.4,305.5 620.9,287.8 632.3,248.7 643.8,263.5 655.2,255.4 666.7,226.7 678.1,220.4 689.6,254.9 701.1,220.2 712.5,212.8 724.0,221.3 735.4,196.0 746.9,204.6 758.3,191.1 769.8,122.2 781.2,114.1 792.7,180.9 804.1,116.0 815.6,153.8 827.0,145.2 838.5,165.3 849.9,211.2 861.4,208.1" stroke="#404040" stroke-width="5.40" stroke-opacity="1.00" fill="none" clip-path="url(#axis_clip)"/>
<g class="pl" fill="#FFF" stroke="#404040" stroke-width="0.900">
  <circle cx="151.3" cy="571.7" r="2.2"/>
  <circle cx="174.2" cy="564.3" r="2.2"/>
  <circle cx="185.7" cy="563.8" r="2.2"/>
  <circle cx="197.1" cy="558.1" r="2.2"/>
  <circle cx="208.6" cy="549.9" r="2.2"/>
  <circle cx="220.0" cy="545.3" r="2.2"/>
  <circle cx="231.5" cy="537.9" r="2.2"/>
  <circle cx="242.9" cy="536.4" r="2.2"/>
  <circle cx="254.4" cy="534.5" r="2.2"/>
  <circle cx="265.9" cy="542.4" r="2.2"/>
  <circle cx="288.8" cy="507.3" r="2.2"/>
  <circle cx="300.2" cy="502.3" r="2.2"/>
  <circle cx="311.7" cy="505.3" r="2.2"/>
  <circle cx="323.1" cy="505.4" r="2.2"/>
  <circle cx="334.6" cy="506.2" r="2.2"/>
  <circle cx="346.0" cy="486.9" r="2.2"/>
  <circle cx="357.5" cy="492.1" r="2.2"/>
  <circle cx="368.9" cy="484.8" r="2.2"/>
  <circle cx="380.4" cy="468.3" r="2.2"/>
  <circle cx="403.3" cy="447.9" r="2.2"/>
  <circle cx="414.7" cy="452.1" r="2.2"/>
  <circle cx="426.2" cy="424.4" r="2.2"/>
  <circle cx="437.6" cy="450.2" r="2.2"/>
  <circle cx="449.1" cy="439.5" r="2.2"/>
  <circle cx="460.5" cy="438.0" r="2.2"/>
  <circle cx="472.0" cy="437.6" r="2.2"/>
  <circle cx="483.5" cy="424.9" r="2.2"/>
  <circle cx="494.9" cy="414.7" r="2.2"/>
  <circle cx="517.8" cy="375.1" r="2.2"/>
  <circle cx="529.3" cy="351.6" r="2.2"/>
  <circle cx="540.7" cy="319.0" r="2.2"/>
  <circle cx="552.2" cy="305.7" r="2.2"/>
  <circle cx="563.6" cy="289.2" r="2.2"/>
  <circle cx="575.1" cy="272.4" r="2.2"/>
  <circle cx="586.5" cy="218.0" r="2.2"/>
  <circle cx="598.0" cy="268.9" r="2.2"/>
  <circle cx="609.4" cy="305.5" r="2.2"/>
  <circle cx="632.3" cy="248.7" r="2.2"/>
  <circle cx="643.8" cy="263.5" r="2.2"/>
  <circle cx="655.2" cy="255.4" r="2.2"/>
  <circle cx="666.7" cy="226.7" r="2.2"/>
  <circle cx="678.1" cy="220.4" r="2.2"/>
  <circle cx="689.6" cy="254.9" r="2.2"/>
  <circle cx="701.1" cy="220.2" r="2.2"/>
  <circle cx="712.5" cy="212.8" r="2.2"/>
  <circle cx="724.0" cy="221.3" r="2.2"/>
  <circle cx="746.9" cy="204.6" r="2.2"/>
  <circle cx="758.3" cy="191.1" r="2.2"/>
  <circle cx="769.8" cy="122.2" r="2.2"/>
  <circle cx="781.2" cy="114.1" r="2.2"/>
  <circle cx="792.7" cy="180.9" r="2.2"/>
  <circle cx="804.1" cy="116.0" r="2.2"/>
  <circle cx="815.6" cy="153.8" r="2.2"/>
  <circle cx="827.0" cy="145.2" r="2.2"/>
  <circle cx="838.5" cy="165.3" r="2.2"/>
  <circle cx="861.4" cy="208.1" r="2.2"/>
</g>
<g class="pl" fill="#FFF" stroke="#404040" stroke-width="0.900">
  <circle cx="162.8" cy="566.8" r="5.4"/>
  <circle cx="277.3" cy="513.8" r="5.4"/>
  <circle cx="391.8" cy="464.4" r="5.4"/>
  <circle cx="506.4" cy="396.8" r="5.4"/>
  <circle cx="620.9" cy="287.8" r="5.4"/>
  <circle cx="735.4" cy="196.0" r="5.4"/>
  <circle cx="849.9" cy="211.2" r="5.4"/>
</g>
<polyline class="pl" points="139.9,586.5 151.3,586.4 162.8,586.4 174.2,586.5 185.7,586.5 197.1,586.6 208.6,586.6 220.0,586.6 231.5,586.6 242.9,586.4 254.4,586.5 265.9,586.1 277.3,586.9 288.8,586.3 300.2,586.0 311.7,586.0 323.1,584.6 334.6,584.1 346.0,583.5 357.5,583.8 368.9,586.6 380.4,586.6 391.8,586.4 403.3,586.4 414.7,586.3 426.2,583.2 437.6,578.4 449.1,569.1 460.5,552.3 472.0,546.2 483.5,552.8 494.9,550.4 506.4,550.7 517.8,516.3 529.3,501.8 540.7,469.7 552.2,467.8 563.6,363.2 575.1,393.9 586.5,398.2 598.0,395.5 609.4,384.8 620.9,322.3 632.3,328.1 643.8,325.8 655.2,257.2 666.7,271.4 678.1,245.5 689.6,216.4 701.1,238.3 712.5,199.9 724.0,238.2 735.4,263.0 746.9,241.8 758.3,233.7 769.8,148.5 781.2,147.0 792.7,175.5 804.1,195.2 815.6,211.7 827.0,137.9 838.5,105.8 849.9,179.2 861.4,150.0" stroke="#6298C6" stroke-width="5.40" stroke-opacity="1.00" fill="none" clip-path="url(#axis_clip)"/>
<g class="pl" fill="#FFF" stroke="#6298C6" stroke-width="0.900">
  <circle cx="151.3" cy="586.4" r="2.2"/>
  <circle cx="174.2" cy="586.5" r="2.2"/>
  <circle cx="185.7" cy="586.5" r="2.2"/>
  <circle cx="197.1" cy="586.6" r="2.2"/>
  <circle cx="208.6" cy="586.6" r="2.2"/>
  <circle cx="220.0" cy="586.6" r="2.2"/>
  <circle cx="231.5" cy="586.6" r="2.2"/>
  <circle cx="242.9" cy="586.4" r="2.2"/>
  <circle cx="254.4" cy="586.5" r="2.2"/>
  <circle cx="265.9" cy="586.1" r="2.2"/>
  <circle cx="288.8" cy="586.3" r="2.2"/>
  <circle cx="300.2" cy="586.0" r="2.2"/>
  <circle cx="311.7" cy="586.0" r="2.2"/>
  <circle cx="323.1" cy="584.6" r="2.2"/>
  <circle cx="334.6" cy="584.1" r="2.2"/>
  <circle cx="346.0" cy="583.5" r="2.2"/>
  <circle cx="357.5" cy="583.8" r="2.2"/>
  <circle cx="368.9" cy="586.6" r="2.2"/>
  <circle cx="380.4" cy="586.6" r="2.2"/>
  <circle cx="403.3" cy="586.4" r="2.2"/>
  <circle cx="414.7" cy="586.3" r="2.2"/>
  <circle cx="426.2" cy="583.2" r="2.2"/>
  <circle cx="437.6" cy="578.4" r="2.2"/>
  <circle cx="449.1" cy="569.1" r="2.2"/>
  <circle cx="460.5" cy="552.3" r="2.2"/>
  <circle cx="472.0" cy="546.2" r="2.2"/>
  <circle cx="483.5" cy="552.8" r="2.2"/>
  <circle cx="494.9" cy="550.4" r="2.2"/>
  <circle cx="517.8" cy="516.3" r="2.2"/>
  <circle cx="529.3" cy="501.8" r="2.2"/>
  <circle cx="540.7" cy="469.7" r="2.2"/>
  <circle cx="552.2" cy="467.8" r="2.2"/>
  <circle cx="563.6" cy="363.2" r="2.2"/>
  <circle cx="575.1" cy="393.9" r="2.2"/>
  <circle cx="586.5" cy="398.2" r="2.2"/>
  <circle cx="598.0" cy="395.5" r="2.2"/>
  <circle cx="609.4" cy="384.8" r="2.2"/>
  <circle cx="632.3" cy="328.1" r="2.2"/>
  <circle cx="643.8" cy="325.8" r="2.2"/>
  <circle cx="655.2" cy="257.2" r="2.2"/>
  <circle cx="666.7" cy="271.4" r="2.2"/>
  <circle cx="678.1" cy="245.5" r="2.2"/>
  <circle cx="689.6" cy="216.4" r="2.2"/>
  <circle cx="701.1" cy="238.3" r="2.2"/>
  <circle cx="712.5" cy="199.9" r="2.2"/>
  <circle cx="724.0" cy="238.2" r="2.2"/>
  <circle cx="746.9" cy="241.8" r="2.2"/>
  <circle cx="758.3" cy="233.7" r="2.2"/>
  <circle cx="769.8" cy="148.5" r="2.2"/>
  <circle cx="781.2" cy="147.0" r="2.2"/>
  <circle cx="792.7" cy="175.5" r="2.2"/>
  <circle cx="804.1" cy="195.2" r="2.2"/>
  <circle cx="815.6" cy="211.7" r="2.2"/>
  <circle cx="827.0" cy="137.9" r="2.2"/>
  <circle cx="838.5" cy="105.8" r="2.2"/>
  <circle cx="861.4" cy="150.0" r="2.2"/>
</g>
<g class="pl" fill="#FFF" stroke="#6298C6" stroke-width="0.900">
  <circle cx="162.8" cy="586.4" r="5.4"/>
  <circle cx="277.3" cy="586.9" r="5.4"/>
  <circle cx="391.8" cy="586.4" r="5.4"/>
  <circle cx="506.4" cy="550.7" r="5.4"/>
  <circle cx="620.9" cy="322.3" r="5.4"/>
  <circle cx="735.4" cy="263.0" r="5.4"/>
  <circle cx="849.9" cy="179.2" r="5.4"/>
</g>
<polyline class="pl" points="139.9,586.9 151.3,586.7 162.8,586.4 174.2,586.3 185.7,586.3 197.1,586.2 208.6,586.0 220.0,585.2 231.5,584.9 242.9,585.0 254.4,584.7 265.9,584.6 277.3,584.5 288.8,584.3 300.2,584.1 311.7,583.7 323.1,583.5 334.6,583.2 346.0,582.4 357.5,582.3 368.9,581.1 380.4,580.9 391.8,580.6 403.3,579.2 414.7,578.4 426.2,578.0 437.6,577.3 449.1,578.2 460.5,576.9 472.0,577.6 483.5,576.2 494.9,573.1 506.4,569.9 517.8,569.1 529.3,569.7 540.7,568.9 552.2,565.8 563.6,564.3 575.1,561.6 586.5,559.4 598.0,558.8 609.4,558.0 620.9,552.1 632.3,553.4 643.8,549.1 655.2,543.4 666.7,543.5 678.1,544.2 689.6,541.3 701.1,542.7 712.5,539.9 724.0,542.5 735.4,547.7 746.9,544.0 758.3,541.8 769.8,537.2 781.2,534.6 792.7,539.3 804.1,515.6 815.6,520.1 827.0,524.4 838.5,529.6 849.9,515.9 861.4,515.8" stroke="#666" stroke-width="5.40" stroke-opacity="1.00" fill="none" clip-path="url(#axis_clip)"/>
<g class="pl" fill="#FFF" stroke="#666" stroke-width="0.900">
  <circle cx="151.3" cy="586.7" r="2.2"/>
  <circle cx="174.2" cy="586.3" r="2.2"/>
  <circle cx="185.7" cy="586.3" r="2.2"/>
  <circle cx="197.1" cy="586.2" r="2.2"/>
  <circle cx="208.6" cy="586.0" r="2.2"/>
  <circle cx="220.0" cy="585.2" r="2.2"/>
  <circle cx="231.5" cy="584.9" r="2.2"/>
  <circle cx="242.9" cy="585.0" r="2.2"/>
  <circle cx="254.4" cy="584.7" r="2.2"/>
  <circle cx="265.9" cy="584.6" r="2.2"/>
  <circle cx="288.8" cy="584.3" r="2.2"/>
  <circle cx="300.2" cy="584.1" r="2.2"/>
  <circle cx="311.7" cy="583.7" r="2.2"/>
  <circle cx="323.1" cy="583.5" r="2.2"/>
  <circle cx="334.6" cy="583.2" r="2.2"/>
  <circle cx="346.0" cy="582.4" r="2.2"/>
  <circle cx="357.5" cy="582.3" r="2.2"/>
  <circle cx="368.9" cy="581.1" r="2.2"/>
  <circle cx="380.4" cy="580.9" r="2.2"/>
  <circle cx="403.3" cy="579.2" r="2.2"/>
  <circle cx="414.7" cy="578.4" r="2.2"/>
  <circle cx="426.2" cy="578.0" r="2.2"/>
  <circle cx="437.6" cy="577.3" r="2.2"/>
  <circle cx="449.1" cy="578.2" r="2.2"/>
  <circle cx="460.5" cy="576.9" r="2.2"/>
  <circle cx="472.0" cy="577.6" r="2.2"/>
  <circle cx="483.5" cy="576.2" r="2.2"/>
  <circle cx="494.9" cy="573.1" r="2.2"/>
  <circle cx="517.8" cy="569.1" r="2.2"/>
  <circle cx="529.3" cy="569.7" r="2.2"/>
  <circle cx="540.7" cy="568.9" r="2.2"/>
  <circle cx="552.2" cy="565.8" r="2.2"/>
  <circle cx="563.6" cy="564.3" r="2.2"/>
  <circle cx="575.1" cy="561.6" r="2.2"/>
  <circle cx="586.5" cy="559.4" r="2.2"/>
  <circle cx="598.0" cy="558.8" r="2.2"/>
  <circle cx="609.4" cy="558.0" r="2.2"/>
  <circle cx="632.3" cy="553.4" r="2.2"/>
  <circle cx="643.8" cy="549.1" r="2.2"/>
  <circle cx="655.2" cy="543.4" r="2.2"/>
  <circle cx="666.7" cy="543.5" r="2.2"/>
  <circle cx="678.1" cy="544.2" r="2.2"/>
  <circle cx="689.6" cy="541.3" r="2.2"/>
  <circle cx="701.1" cy="542.7" r="2.2"/>
  <circle cx="712.5" cy="539.9" r="2.2"/>
  <circle cx="724.0" cy="542.5" r="2.2"/>
  <circle cx="746.9" cy="544.0" r="2.2"/>
  <circle cx="758.3" cy="541.8" r="2.2"/>
  <circle cx="769.8" cy="537.2" r="2.2"/>
  <circle cx="781.2" cy="534.6" r="2.2"/>
  <circle cx="792.7" cy="539.3" r="2.2"/>
  <circle cx="804.1" cy="515.6" r="2.2"/>
  <circle cx="815.6" cy="520.1" r="2.2"/>
  <circle cx="827.0" cy="524.4" r="2.2"/>
  <circle cx="838.5" cy="529.6" r="2.2"/>
  <circle cx="861.4" cy="515.8" r="2.2"/>
</g>
<g class="pl" fill="#FFF" stroke="#666" stroke-width="0.900">
  <circle cx="162.8" cy="586.4" r="5.4"/>
  <circle cx="277.3" cy="584.5" r="5.4"/>
  <circle cx="391.8" cy="580.6" r="5.4"/>
  <circle cx="506.4" cy="569.9" r="5.4"/>
  <circle cx="620.9" cy="552.1" r="5.4"/>
  <circle cx="735.4" cy="547.7" r="5.4"/>
  <circle cx="849.9" cy="515.9" r="5.4"/>
</g>
<text transform="translate(925.2,126.9)" dy="8.1" font-size="27.00" fill="#7B553E" stroke="none">Coal 85.8</text>
<text transform="translate(925.2,208.1)" dy="8.1" font-size="27.00" fill="#404040" stroke="none">Oil 71.1</text>
<text transform="translate(925.2,152.8)" dy="8.1" font-size="27.00" fill="#6298C6" stroke="none">Gas 82.0</text>
<text transform="translate(925.2,515.8)" dy="8.1" font-size="27.00" fill="#666" stroke="none">Cement 13.4</text>
<text transform="translate(925.2,104.0)" dy="0.0" font-size="19.80" fill="#7B553E" stroke="none">Mt CO<tspan dy="0.2em"><tspan style="font-size:70%">2</tspan></tspan><tspan dy="-0.2em"> </tspan>in 2021</text>
<g stroke="none" stroke-width="0.9000"  >
  <polygon points="1050.2,120.1 1059.8,133.6 1069.4,120.1 1050.2,120.1" fill="#7B553E"/>
</g>
<text transform="translate(1074.2,128.9)" dy="5.4" font-size="18.00" fill="#7B553E" stroke="none">9.0%</text>
<g stroke="none" stroke-width="0.9000"  >
  <polygon points="1028.7,214.8 1038.3,201.3 1047.9,214.8 1028.7,214.8" fill="#404040"/>
</g>
<text transform="translate(1052.7,210.1)" dy="5.4" font-size="18.00" fill="#404040" stroke="none">1.1%</text>
<g stroke="none" stroke-width="0.9000"  >
  <polygon points="1044.8,159.5 1054.4,146.0 1064.0,159.5 1044.8,159.5" fill="#6298C6"/>
</g>
<text transform="translate(1068.8,154.8)" dy="5.4" font-size="18.00" fill="#6298C6" stroke="none">7.5%</text>
<g stroke="none" stroke-width="0.9000"  >
  <polygon points="1090.1,522.6 1099.7,509.1 1109.3,522.6 1090.1,522.6" fill="#666"/>
</g>
<text transform="translate(1114.1,517.8)" dy="5.4" font-size="18.00" fill="#666" stroke="none">0.4%</text>
<text transform="translate(145.6,47.2)" dy="0.0" font-size="27.00" fill="#808080" stroke="none">Annual Fossil CO<tspan dy="0.2em"><tspan style="font-size:70%">2</tspan></tspan><tspan dy="-0.2em"> </tspan>Emissions in Malaysia</text>
<text transform="translate(130.0,81.6)" dy="8.1" font-size="27.00" fill="#808080" stroke="none" text-anchor="end">CO<tspan dy="0.2em"><tspan style="font-size:70%">2</tspan></tspan><tspan dy="-0.2em"></tspan></text>
<text transform="translate(157.6,60.7)" dy="18.0" font-size="18.00" fill="#808080" stroke="none">Total emissions growth in 2021: -1.1%</text>
<text transform="translate(160.2,666.1)" font-size="19.80" fill="#BFBFBF" stroke="none" xml:space="preserve">Global Carbon Project</text>
<g>
  <rect x="123.0" y="651.4" width="34" height="17" fill="#FFF" stroke="none"/>
  <g transform="translate(124.0,652.4) scale(0.24)">
  <g><circle fill="#FFF" cx="37.79" cy="28.5" r="28.84"/>
     <circle fill="none" cx="37.79" cy="28.5" r="28.84" stroke="#BFBFBF" stroke-width="5.5"/>
     <path fill="#BFBFBF" d="M37.16,23.19 l-4.29,2.23c-0.458-0.951-1.02-1.62-1.69-2c-0.667-0.38-1.29-0.571-1.86-0.571c-2.86,0-4.29,1.89-4.29,5.66 c0,1.71,0.36,3.08,1.09,4.11c0.724,1.03,1.79,1.54,3.2,1.54c1.87,0,3.18-0.915,3.94-2.74l3.94,2 c-0.838,1.56-2,2.79-3.49,3.69c-1.48,0.896-3.12,1.34-4.91,1.34c-2.86,0-5.16-0.875-6.92-2.63 c-1.75-1.75-2.63-4.19-2.63-7.31c0-3.05,0.886-5.47,2.66-7.26c1.77-1.79,4.01-2.69,6.72-2.69 C32.6,18.56,35.44,20.1,37.16,23.19z
              M55.61,23.19l-4.23,2.23c-0.457-0.951-1.02-1.62-1.69-2 c-0.668-0.38-1.31-0.571-1.91-0.571c-2.86,0-4.29,1.89-4.29,5.66c0,1.71,0.363,3.08,1.09,4.11 c0.723,1.03,1.79,1.54,3.2,1.54c1.87,0,3.18-0.915,3.94-2.74l4,2c-0.875,1.56-2.06,2.79-3.54,3.69 c-1.49,0.9-3.11,1.34-4.86,1.34c-2.9,0-5.21-0.875-6.94-2.63c-1.74-1.75-2.6-4.19-2.6-7.31 c0-3.05,0.885-5.47,2.66-7.26c1.77-1.79,4.01-2.69,6.71-2.69C51.12,18.56,53.944,20.1,55.61,23.19z"/>
  </g></g>
  <g transform="translate(140.2,652.4) scale(0.24)">
  <g><circle fill="#FFF" cx="37.79" cy="28.5" r="28.84"/>
     <circle fill="none" cx="37.79" cy="28.5" r="28.84" stroke="#BFBFBF" stroke-width="5.5"/>
     <path fill="#BFBFBF" d="M46.129,20.557v13.085h-3.656v15.542h-9.944V33.643h-3.656V20.557 c0-0.572,0.2-1.057,0.599-1.457c0.401-0.399,0.887-0.6,1.457-0.6h13.144c0.533,0,1.01,0.2,1.428,0.6 C45.918,19.5,46.129,19.986,46.129,20.557z
              M33.042,12.329c0-3.008,1.485-4.514,4.458-4.514s4.457,1.504,4.457,4.514 c0,2.971-1.486,4.457-4.457,4.457S33.042,15.3,33.042,12.329z"/>
  </g></g>
</g>
</g>
</svg>
