<svg version="1.1" xmlns="http://www.w3.org/2000/svg" xmlns:xlink="http://www.w3.org/1999/xlink" width="100%" height="100%" viewBox="0 0 1200.000 674.916">
<title>Annual Fossil CO2 Emissions in Thailand</title>
<style type="text/css">
  #main {font-family:Helvetica,Arial,sans-serif; font-size:27.00px;
         fill-opacity:1; fill:#000000; stroke:none; stroke-linejoin:round; stroke-linecap:round; stroke-width:1.00;}
  .marker {stroke-opacity:0;fill-opacity:0;}
  .marker:hover {stroke-opacity:0.5; fill-opacity:1;}
  .ticklabel {font-size:27.00px;fill:#808080;stroke:none}
  .ytl {text-anchor:end;}
  .xtl {text-anchor:middle;}
  .dp1 {pointer-events:none;font-size:70%;text-anchor:middle;fill:#000000;}
  .dp2 {pointer-events:none;font-size:70%;text-anchor:middle;fill:#FFFFFF;}
  .numtip {pointer-events:none;}
  .cc {opacity:0.25;}
.dl_fe {background-color:#FDFFDF;display:flex;margin:auto;align-items:center}
.dl_fe_p {font-size:20px;text-align:center;margin:3px}
.dl_el {display:none;pointer-events:none;}
.cc:hover + .dl_el {display:block;}
text:hover + .dl_el {display:block;}
</style>
<defs>
  <clipPath id="axis_clip"><rect x="145.8" y="54.2" width="761.2" height="532.8" /></clipPath>
  <path id="line_x" d="M 145.600,0 h 761.600" stroke="#262626" stroke-opacity="0.15" stroke-width="1.00"/>
  <path id="tick_y" d="M 145.600,0 h -6.000" stroke="#808080" stroke-width="0.90"/>
  <path id="tick_x" d="M 0,587.177 v 6.000" stroke="#808080" stroke-width="0.90"/>
</defs>
<g id="main">
<use xlink:href="#line_x" transform="translate(0,587.2)"/>
<use xlink:href="#line_x" transform="translate(0,434.8)"/>
<use xlink:href="#line_x" transform="translate(0,282.5)"/>
<use xlink:href="#line_x" transform="translate(0,130.2)"/>
<use xlink:href="#tick_y" transform="translate(0,587.2)"/>
<use xlink:href="#tick_y" transform="translate(0,434.8)"/>
<use xlink:href="#tick_y" transform="translate(0,282.5)"/>
<use xlink:href="#tick_y" transform="translate(0,130.2)"/>
<use xlink:href="#tick_x" transform="translate(162.8,0)"/>
<use xlink:href="#tick_x" transform="translate(277.3,0)"/>
<use xlink:href="#tick_x" transform="translate(391.8,0)"/>
<use xlink:href="#tick_x" transform="translate(506.4,0)"/>
<use xlink:href="#tick_x" transform="translate(620.9,0)"/>
<use xlink:href="#tick_x" transform="translate(735.4,0)"/>
<use xlink:href="#tick_x" transform="translate(861.4,0)"/>
<polyline points="145.6,53.993 145.6,587.177 907.2,587.177" stroke="#808080" stroke-width="0.90" fill="none"/>
<text class="ticklabel xtl" transform="translate(162.8,629.0)">1960</text>
<text class="ticklabel xtl" transform="translate(277.3,629.0)">1970</text>
<text class="ticklabel xtl" transform="translate(391.8,629.0)">1980</text>
<text class="ticklabel xtl" transform="translate(506.4,629.0)">1990</text>
<text class="ticklabel xtl" transform="translate(620.9,629.0)">2000</text>
<text class="ticklabel xtl" transform="translate(735.4,629.0)">2010</text>
<text class="ticklabel xtl" transform="translate(861.4,629.0)">2021</text>
<text class="ticklabel ytl" transform="translate(128.8,595.3)">0</text>
<text class="ticklabel ytl" transform="translate(128.8,442.9)">40</text>
<text class="ticklabel ytl" transform="translate(128.8,290.6)">80</text>
<text class="ticklabel ytl" transform="translate(128.8,138.3)">120 Mt</text>
<polyline class="pl" points="139.9,586.6 151.3,586.6 162.8,586.6 174.2,586.7 185.7,586.6 197.1,586.6 208.6,586.7 220.0,586.6 231.5,586.4 242.9,585.8 254.4,585.9 265.9,585.7 277.3,585.4 288.8,585.2 300.2,585.6 311.7,585.5 323.1,584.8 334.6,584.8 346.0,584.4 357.5,584.8 368.9,584.1 380.4,581.3 391.8,580.6 403.3,580.1 414.7,577.4 426.2,577.8 437.6,576.6 449.1,564.4 460.5,563.9 472.0,557.7 483.5,555.7 494.9,549.3 506.4,535.4 517.8,527.7 529.3,523.6 540.7,518.2 552.2,509.0 563.6,495.5 575.1,471.7 586.5,471.4 598.0,493.8 609.4,481.5 620.9,472.6 632.3,454.8 643.8,453.4 655.2,443.8 666.7,426.5 678.1,430.3 689.6,414.8 701.1,390.6 712.5,372.8 724.0,385.4 735.4,373.4 746.9,347.6 758.3,346.1 769.8,335.0 781.2,355.4 792.7,341.1 804.1,362.1 815.6,348.1 827.0,356.4 838.5,349.2 849.9,332.8 861.4,318.1" stroke="#7B553E" stroke-width="5.40" stroke-opacity="1.00" fill="none" clip-path="url(#axis_clip)"/>
<g class="pl" fill="#FFF" stroke="#7B553E" stroke-width="0.900">
  <circle cx="151.3" cy="586.6" r="2.2"/>
  <circle cx="174.2" cy="586.7" r="2.2"/>
  <circle cx="185.7" cy="586.6" r="2.2"/>
  <circle cx="197.1" cy="586.6" r="2.2"/>
  <circle cx="208.6" cy="586.7" r="2.2"/>
  <circle cx="220.0" cy="586.6" r="2.2"/>
  <circle cx="231.5" cy="586.4" r="2.2"/>
  <circle cx="242.9" cy="585.8" r="2.2"/>
  <circle cx="254.4" cy="585.9" r="2.2"/>
  <circle cx="265.9" cy="585.7" r="2.2"/>
  <circle cx="288.8" cy="585.2" r="2.2"/>
  <circle cx="300.2" cy="585.6" r="2.2"/>
  <circle cx="311.7" cy="585.5" r="2.2"/>
  <circle cx="323.1" cy="584.8" r="2.2"/>
  <circle cx="334.6" cy="584.8" r="2.2"/>
  <circle cx="346.0" cy="584.4" r="2.2"/>
  <circle cx="357.5" cy="584.8" r="2.2"/>
  <circle cx="368.9" cy="584.1" r="2.2"/>
  <circle cx="380.4" cy="581.3" r="2.2"/>
  <circle cx="403.3" cy="580.1" r="2.2"/>
  <circle cx="414.7" cy="577.4" r="2.2"/>
  <circle cx="426.2" cy="577.8" r="2.2"/>
  <circle cx="437.6" cy="576.6" r="2.2"/>
  <circle cx="449.1" cy="564.4" r="2.2"/>
  <circle cx="460.5" cy="563.9" r="2.2"/>
  <circle cx="472.0" cy="557.7" r="2.2"/>
  <circle cx="483.5" cy="555.7" r="2.2"/>
  <circle cx="494.9" cy="549.3" r="2.2"/>
  <circle cx="517.8" cy="527.7" r="2.2"/>
  <circle cx="529.3" cy="523.6" r="2.2"/>
  <circle cx="540.7" cy="518.2" r="2.2"/>
  <circle cx="552.2" cy="509.0" r="2.2"/>
  <circle cx="563.6" cy="495.5" r="2.2"/>
  <circle cx="575.1" cy="471.7" r="2.2"/>
  <circle cx="586.5" cy="471.4" r="2.2"/>
  <circle cx="598.0" cy="493.8" r="2.2"/>
  <circle cx="609.4" cy="481.5" r="2.2"/>
  <circle cx="632.3" cy="454.8" r="2.2"/>
  <circle cx="643.8" cy="453.4" r="2.2"/>
  <circle cx="655.2" cy="443.8" r="2.2"/>
  <circle cx="666.7" cy="426.5" r="2.2"/>
  <circle cx="678.1" cy="430.3" r="2.2"/>
  <circle cx="689.6" cy="414.8" r="2.2"/>
  <circle cx="701.1" cy="390.6" r="2.2"/>
  <circle cx="712.5" cy="372.8" r="2.2"/>
  <circle cx="724.0" cy="385.4" r="2.2"/>
  <circle cx="746.9" cy="347.6" r="2.2"/>
  <circle cx="758.3" cy="346.1" r="2.2"/>
  <circle cx="769.8" cy="335.0" r="2.2"/>
  <circle cx="781.2" cy="355.4" r="2.2"/>
  <circle cx="792.7" cy="341.1" r="2.2"/>
  <circle cx="804.1" cy="362.1" r="2.2"/>
  <circle cx="815.6" cy="348.1" r="2.2"/>
  <circle cx="827.0" cy="356.4" r="2.2"/>
  <circle cx="838.5" cy="349.2" r="2.2"/>
  <circle cx="861.4" cy="318.1" r="2.2"/>
</g>
<g class="pl" fill="#FFF" stroke="#7B553E" stroke-width="0.900">
  <circle cx="162.8" cy="586.6" r="5.4"/>
  <circle cx="277.3" cy="585.4" r="5.4"/>
  <circle cx="391.8" cy="580.6" r="5.4"/>
  <circle cx="506.4" cy="535.4" r="5.4"/>
  <circle cx="620.9" cy="472.6" r="5.4"/>
  <circle cx="735.4" cy="373.4" r="5.4"/>
  <circle cx="849.9" cy="332.8" r="5.4"/>
</g>
<polyline class="pl" points="139.9,577.1 151.3,576.0 162.8,574.6 174.2,573.4 185.7,570.4 197.1,568.4 208.6,561.2 220.0,561.8 231.5,554.7 242.9,545.6 254.4,527.9 265.9,537.8 277.3,535.4 288.8,521.2 300.2,512.1 311.7,502.8 323.1,504.7 334.6,504.2 346.0,488.9 357.5,476.9 368.9,466.4 380.4,463.2 391.8,451.2 403.3,463.4 414.7,474.6 426.2,460.0 437.6,455.4 449.1,461.4 460.5,456.9 472.0,442.2 483.5,424.8 494.9,392.3 506.4,375.7 517.8,360.0 529.3,338.8 540.7,302.7 552.2,277.5 563.6,217.3 575.1,187.9 586.5,187.9 598.0,224.1 609.4,223.4 620.9,235.2 632.3,249.4 643.8,230.2 655.2,201.0 666.7,168.5 678.1,161.2 689.6,169.3 701.1,186.0 712.5,217.2 724.0,192.8 735.4,182.8 746.9,178.2 758.3,155.7 769.8,138.5 781.2,137.6 792.7,139.4 804.1,125.9 815.6,111.8 827.0,140.9 838.5,126.3 849.9,164.8 861.4,173.0" stroke="#404040" stroke-width="5.40" stroke-opacity="1.00" fill="none" clip-path="url(#axis_clip)"/>
<g class="pl" fill="#FFF" stroke="#404040" stroke-width="0.900">
  <circle cx="151.3" cy="576.0" r="2.2"/>
  <circle cx="174.2" cy="573.4" r="2.2"/>
  <circle cx="185.7" cy="570.4" r="2.2"/>
  <circle cx="197.1" cy="568.4" r="2.2"/>
  <circle cx="208.6" cy="561.2" r="2.2"/>
  <circle cx="220.0" cy="561.8" r="2.2"/>
  <circle cx="231.5" cy="554.7" r="2.2"/>
  <circle cx="242.9" cy="545.6" r="2.2"/>
  <circle cx="254.4" cy="527.9" r="2.2"/>
  <circle cx="265.9" cy="537.8" r="2.2"/>
  <circle cx="288.8" cy="521.2" r="2.2"/>
  <circle cx="300.2" cy="512.1" r="2.2"/>
  <circle cx="311.7" cy="502.8" r="2.2"/>
  <circle cx="323.1" cy="504.7" r="2.2"/>
  <circle cx="334.6" cy="504.2" r="2.2"/>
  <circle cx="346.0" cy="488.9" r="2.2"/>
  <circle cx="357.5" cy="476.9" r="2.2"/>
  <circle cx="368.9" cy="466.4" r="2.2"/>
  <circle cx="380.4" cy="463.2" r="2.2"/>
  <circle cx="403.3" cy="463.4" r="2.2"/>
  <circle cx="414.7" cy="474.6" r="2.2"/>
  <circle cx="426.2" cy="460.0" r="2.2"/>
  <circle cx="437.6" cy="455.4" r="2.2"/>
  <circle cx="449.1" cy="461.4" r="2.2"/>
  <circle cx="460.5" cy="456.9" r="2.2"/>
  <circle cx="472.0" cy="442.2" r="2.2"/>
  <circle cx="483.5" cy="424.8" r="2.2"/>
  <circle cx="494.9" cy="392.3" r="2.2"/>
  <circle cx="517.8" cy="360.0" r="2.2"/>
  <circle cx="529.3" cy="338.8" r="2.2"/>
  <circle cx="540.7" cy="302.7" r="2.2"/>
  <circle cx="552.2" cy="277.5" r="2.2"/>
  <circle cx="563.6" cy="217.3" r="2.2"/>
  <circle cx="575.1" cy="187.9" r="2.2"/>
  <circle cx="586.5" cy="187.9" r="2.2"/>
  <circle cx="598.0" cy="224.1" r="2.2"/>
  <circle cx="609.4" cy="223.4" r="2.2"/>
  <circle cx="632.3" cy="249.4" r="2.2"/>
  <circle cx="643.8" cy="230.2" r="2.2"/>
  <circle cx="655.2" cy="201.0" r="2.2"/>
  <circle cx="666.7" cy="168.5" r="2.2"/>
  <circle cx="678.1" cy="161.2" r="2.2"/>
  <circle cx="689.6" cy="169.3" r="2.2"/>
  <circle cx="701.1" cy="186.0" r="2.2"/>
  <circle cx="712.5" cy="217.2" r="2.2"/>
  <circle cx="724.0" cy="192.8" r="2.2"/>
  <circle cx="746.9" cy="178.2" r="2.2"/>
  <circle cx="758.3" cy="155.7" r="2.2"/>
  <circle cx="769.8" cy="138.5" r="2.2"/>
  <circle cx="781.2" cy="137.6" r="2.2"/>
  <circle cx="792.7" cy="139.4" r="2.2"/>
  <circle cx="804.1" cy="125.9" r="2.2"/>
  <circle cx="815.6" cy="111.8" r="2.2"/>
  <circle cx="827.0" cy="140.9" r="2.2"/>
  <circle cx="838.5" cy="126.3" r="2.2"/>
  <circle cx="861.4" cy="173.0" r="2.2"/>
</g>
<g class="pl" fill="#FFF" stroke="#404040" stroke-width="0.900">
  <circle cx="162.8" cy="574.6" r="5.4"/>
  <circle cx="277.3" cy="535.4" r="5.4"/>
  <circle cx="391.8" cy="451.2" r="5.4"/>
  <circle cx="506.4" cy="375.7" r="5.4"/>
  <circle cx="620.9" cy="235.2" r="5.4"/>
  <circle cx="735.4" cy="182.8" r="5.4"/>
  <circle cx="849.9" cy="164.8" r="5.4"/>
</g>
<polyline class="pl" points="139.9,587.2 151.3,587.2 162.8,587.2 174.2,587.2 185.7,587.2 197.1,587.2 208.6,587.2 220.0,587.2 231.5,587.2 242.9,587.2 254.4,587.2 265.9,587.2 277.3,587.2 288.8,587.2 300.2,587.2 311.7,587.2 323.1,587.2 334.6,587.2 346.0,587.2 357.5,587.2 368.9,587.2 380.4,587.2 391.8,587.2 403.3,585.0 414.7,577.9 426.2,576.0 437.6,570.3 449.1,565.5 460.5,566.6 472.0,563.6 483.5,547.9 494.9,548.1 506.4,544.8 517.8,534.6 529.3,530.8 540.7,523.6 552.2,515.7 563.6,513.0 575.1,503.0 586.5,482.2 598.0,478.1 609.4,469.4 620.9,452.2 632.3,414.3 643.8,402.3 655.2,399.7 666.7,396.7 678.1,381.4 689.6,377.9 701.1,367.1 712.5,357.6 724.0,314.3 735.4,278.8 746.9,318.7 758.3,280.4 769.8,257.3 781.2,257.4 792.7,258.2 804.1,265.2 815.6,273.3 827.0,277.7 838.5,267.8 849.9,293.5 861.4,292.4" stroke="#6298C6" stroke-width="5.40" stroke-opacity="1.00" fill="none" clip-path="url(#axis_clip)"/>
<g class="pl" fill="#FFF" stroke="#6298C6" stroke-width="0.900">
  <circle cx="151.3" cy="587.2" r="2.2"/>
  <circle cx="174.2" cy="587.2" r="2.2"/>
  <circle cx="185.7" cy="587.2" r="2.2"/>
  <circle cx="197.1" cy="587.2" r="2.2"/>
  <circle cx="208.6" cy="587.2" r="2.2"/>
  <circle cx="220.0" cy="587.2" r="2.2"/>
  <circle cx="231.5" cy="587.2" r="2.2"/>
  <circle cx="242.9" cy="587.2" r="2.2"/>
  <circle cx="254.4" cy="587.2" r="2.2"/>
  <circle cx="265.9" cy="587.2" r="2.2"/>
  <circle cx="288.8" cy="587.2" r="2.2"/>
  <circle cx="300.2" cy="587.2" r="2.2"/>
  <circle cx="311.7" cy="587.2" r="2.2"/>
  <circle cx="323.1" cy="587.2" r="2.2"/>
  <circle cx="334.6" cy="587.2" r="2.2"/>
  <circle cx="346.0" cy="587.2" r="2.2"/>
  <circle cx="357.5" cy="587.2" r="2.2"/>
  <circle cx="368.9" cy="587.2" r="2.2"/>
  <circle cx="380.4" cy="587.2" r="2.2"/>
  <circle cx="403.3" cy="585.0" r="2.2"/>
  <circle cx="414.7" cy="577.9" r="2.2"/>
  <circle cx="426.2" cy="576.0" r="2.2"/>
  <circle cx="437.6" cy="570.3" r="2.2"/>
  <circle cx="449.1" cy="565.5" r="2.2"/>
  <circle cx="460.5" cy="566.6" r="2.2"/>
  <circle cx="472.0" cy="563.6" r="2.2"/>
  <circle cx="483.5" cy="547.9" r="2.2"/>
  <circle cx="494.9" cy="548.1" r="2.2"/>
  <circle cx="517.8" cy="534.6" r="2.2"/>
  <circle cx="529.3" cy="530.8" r="2.2"/>
  <circle cx="540.7" cy="523.6" r="2.2"/>
  <circle cx="552.2" cy="515.7" r="2.2"/>
  <circle cx="563.6" cy="513.0" r="2.2"/>
  <circle cx="575.1" cy="503.0" r="2.2"/>
  <circle cx="586.5" cy="482.2" r="2.2"/>
  <circle cx="598.0" cy="478.1" r="2.2"/>
  <circle cx="609.4" cy="469.4" r="2.2"/>
  <circle cx="632.3" cy="414.3" r="2.2"/>
  <circle cx="643.8" cy="402.3" r="2.2"/>
  <circle cx="655.2" cy="399.7" r="2.2"/>
  <circle cx="666.7" cy="396.7" r="2.2"/>
  <circle cx="678.1" cy="381.4" r="2.2"/>
  <circle cx="689.6" cy="377.9" r="2.2"/>
  <circle cx="701.1" cy="367.1" r="2.2"/>
  <circle cx="712.5" cy="357.6" r="2.2"/>
  <circle cx="724.0" cy="314.3" r="2.2"/>
  <circle cx="746.9" cy="318.7" r="2.2"/>
  <circle cx="758.3" cy="280.4" r="2.2"/>
  <circle cx="769.8" cy="257.3" r="2.2"/>
  <circle cx="781.2" cy="257.4" r="2.2"/>
  <circle cx="792.7" cy="258.2" r="2.2"/>
  <circle cx="804.1" cy="265.2" r="2.2"/>
  <circle cx="815.6" cy="273.3" r="2.2"/>
  <circle cx="827.0" cy="277.7" r="2.2"/>
  <circle cx="838.5" cy="267.8" r="2.2"/>
  <circle cx="861.4" cy="292.4" r="2.2"/>
</g>
<g class="pl" fill="#FFF" stroke="#6298C6" stroke-width="0.900">
  <circle cx="162.8" cy="587.2" r="5.4"/>
  <circle cx="277.3" cy="587.2" r="5.4"/>
  <circle cx="391.8" cy="587.2" r="5.4"/>
  <circle cx="506.4" cy="544.8" r="5.4"/>
  <circle cx="620.9" cy="452.2" r="5.4"/>
  <circle cx="735.4" cy="278.8" r="5.4"/>
  <circle cx="849.9" cy="293.5" r="5.4"/>
</g>
<polyline class="pl" points="139.9,586.3 151.3,586.2 162.8,586.2 174.2,585.7 185.7,585.4 197.1,585.3 208.6,585.2 220.0,584.8 231.5,584.4 242.9,583.9 254.4,582.7 265.9,582.7 277.3,582.2 288.8,582.0 300.2,581.0 311.7,580.5 323.1,580.2 334.6,580.2 346.0,579.5 357.5,578.5 368.9,578.7 380.4,578.5 391.8,578.5 403.3,577.2 414.7,576.8 426.2,576.0 437.6,574.7 449.1,575.3 460.5,575.6 472.0,573.0 483.5,570.9 494.9,566.3 506.4,562.5 517.8,564.3 529.3,555.8 540.7,541.2 552.2,536.3 563.6,528.8 575.1,521.1 586.5,513.5 598.0,536.6 609.4,525.9 620.9,528.9 632.3,520.6 643.8,512.0 655.2,520.6 666.7,517.6 678.1,510.1 689.6,506.3 701.1,503.4 712.5,513.1 724.0,516.0 735.4,516.8 746.9,517.8 758.3,515.8 769.8,515.1 781.2,512.1 792.7,510.9 804.1,499.4 815.6,501.9 827.0,501.6 838.5,502.2 849.9,503.7 861.4,506.6" stroke="#666" stroke-width="5.40" stroke-opacity="1.00" fill="none" clip-path="url(#axis_clip)"/>
<g class="pl" fill="#FFF" stroke="#666" stroke-width="0.900">
  <circle cx="151.3" cy="586.2" r="2.2"/>
  <circle cx="174.2" cy="585.7" r="2.2"/>
  <circle cx="185.7" cy="585.4" r="2.2"/>
  <circle cx="197.1" cy="585.3" r="2.2"/>
  <circle cx="208.6" cy="585.2" r="2.2"/>
  <circle cx="220.0" cy="584.8" r="2.2"/>
  <circle cx="231.5" cy="584.4" r="2.2"/>
  <circle cx="242.9" cy="583.9" r="2.2"/>
  <circle cx="254.4" cy="582.7" r="2.2"/>
  <circle cx="265.9" cy="582.7" r="2.2"/>
  <circle cx="288.8" cy="582.0" r="2.2"/>
  <circle cx="300.2" cy="581.0" r="2.2"/>
  <circle cx="311.7" cy="580.5" r="2.2"/>
  <circle cx="323.1" cy="580.2" r="2.2"/>
  <circle cx="334.6" cy="580.2" r="2.2"/>
  <circle cx="346.0" cy="579.5" r="2.2"/>
  <circle cx="357.5" cy="578.5" r="2.2"/>
  <circle cx="368.9" cy="578.7" r="2.2"/>
  <circle cx="380.4" cy="578.5" r="2.2"/>
  <circle cx="403.3" cy="577.2" r="2.2"/>
  <circle cx="414.7" cy="576.8" r="2.2"/>
  <circle cx="426.2" cy="576.0" r="2.2"/>
  <circle cx="437.6" cy="574.7" r="2.2"/>
  <circle cx="449.1" cy="575.3" r="2.2"/>
  <circle cx="460.5" cy="575.6" r="2.2"/>
  <circle cx="472.0" cy="573.0" r="2.2"/>
  <circle cx="483.5" cy="570.9" r="2.2"/>
  <circle cx="494.9" cy="566.3" r="2.2"/>
  <circle cx="517.8" cy="564.3" r="2.2"/>
  <circle cx="529.3" cy="555.8" r="2.2"/>
  <circle cx="540.7" cy="541.2" r="2.2"/>
  <circle cx="552.2" cy="536.3" r="2.2"/>
  <circle cx="563.6" cy="528.8" r="2.2"/>
  <circle cx="575.1" cy="521.1" r="2.2"/>
  <circle cx="586.5" cy="513.5" r="2.2"/>
  <circle cx="598.0" cy="536.6" r="2.2"/>
  <circle cx="609.4" cy="525.9" r="2.2"/>
  <circle cx="632.3" cy="520.6" r="2.2"/>
  <circle cx="643.8" cy="512.0" r="2.2"/>
  <circle cx="655.2" cy="520.6" r="2.2"/>
  <circle cx="666.7" cy="517.6" r="2.2"/>
  <circle cx="678.1" cy="510.1" r="2.2"/>
  <circle cx="689.6" cy="506.3" r="2.2"/>
  <circle cx="701.1" cy="503.4" r="2.2"/>
  <circle cx="712.5" cy="513.1" r="2.2"/>
  <circle cx="724.0" cy="516.0" r="2.2"/>
  <circle cx="746.9" cy="517.8" r="2.2"/>
  <circle cx="758.3" cy="515.8" r="2.2"/>
  <circle cx="769.8" cy="515.1" r="2.2"/>
  <circle cx="781.2" cy="512.1" r="2.2"/>
  <circle cx="792.7" cy="510.9" r="2.2"/>
  <circle cx="804.1" cy="499.4" r="2.2"/>
  <circle cx="815.6" cy="501.9" r="2.2"/>
  <circle cx="827.0" cy="501.6" r="2.2"/>
  <circle cx="838.5" cy="502.2" r="2.2"/>
  <circle cx="861.4" cy="506.6" r="2.2"/>
</g>
<g class="pl" fill="#FFF" stroke="#666" stroke-width="0.900">
  <circle cx="162.8" cy="586.2" r="5.4"/>
  <circle cx="277.3" cy="582.2" r="5.4"/>
  <circle cx="391.8" cy="578.5" r="5.4"/>
  <circle cx="506.4" cy="562.5" r="5.4"/>
  <circle cx="620.9" cy="528.9" r="5.4"/>
  <circle cx="735.4" cy="516.8" r="5.4"/>
  <circle cx="849.9" cy="503.7" r="5.4"/>
</g>
<text transform="translate(925.2,318.2)" dy="8.1" font-size="27.00" fill="#7B553E" stroke="none">Coal 70.6</text>
<text transform="translate(925.2,173.0)" dy="8.1" font-size="27.00" fill="#404040" stroke="none">Oil 108.8</text>
<text transform="translate(925.2,292.3)" dy="8.1" font-size="27.00" fill="#6298C6" stroke="none">Gas 77.4</text>
<text transform="translate(925.2,506.6)" dy="8.1" font-size="27.00" fill="#666" stroke="none">Cement 21.2</text>
<text transform="translate(925.2,150.1)" dy="0.0" font-size="19.80" fill="#404040" stroke="none">Mt CO<tspan dy="0.2em"><tspan style="font-size:70%">2</tspan></tspan><tspan dy="-0.2em"> </tspan>in 2021</text>
<g stroke="none" stroke-width="0.9000"  >
  <polygon points="1050.2,325.0 1059.8,311.5 1069.4,325.0 1050.2,325.0" fill="#7B553E"/>
</g>
<text transform="translate(1074.2,320.3)" dy="5.4" font-size="18.00" fill="#7B553E" stroke="none">6.0%</text>
<g stroke="none" stroke-width="0.9000"  >
  <polygon points="1043.8,166.2 1053.4,179.7 1063.0,166.2 1043.8,166.2" fill="#404040"/>
</g>
<text transform="translate(1067.8,175.0)" dy="5.4" font-size="18.00" fill="#404040" stroke="none">1.7%</text>
<g stroke="none" stroke-width="0.9000"  >
  <polygon points="1044.8,299.1 1054.4,285.6 1064.0,299.1 1044.8,299.1" fill="#6298C6"/>
</g>
<text transform="translate(1068.8,294.4)" dy="5.4" font-size="18.00" fill="#6298C6" stroke="none">0.6%</text>
<g stroke="none" stroke-width="0.9000"  >
  <polygon points="1090.1,499.9 1099.7,513.4 1109.3,499.9 1090.1,499.9" fill="#666"/>
</g>
<text transform="translate(1114.1,508.6)" dy="5.4" font-size="18.00" fill="#666" stroke="none">3.3%</text>
<text transform="translate(145.6,47.2)" dy="0.0" font-size="27.00" fill="#808080" stroke="none">Annual Fossil CO<tspan dy="0.2em"><tspan style="font-size:70%">2</tspan></tspan><tspan dy="-0.2em"> </tspan>Emissions in Thailand</text>
<text transform="translate(130.0,157.8)" dy="8.1" font-size="27.00" fill="#808080" stroke="none" text-anchor="end">CO<tspan dy="0.2em"><tspan style="font-size:70%">2</tspan></tspan><tspan dy="-0.2em"></tspan></text>
<text transform="translate(157.6,60.7)" dy="18.0" font-size="18.00" fill="#808080" stroke="none">Total emissions growth in 2021: +0.7%</text>
<text transform="translate(160.2,666.1)" font-size="19.80" fill="#BFBFBF" stroke="none" xml:space="preserve">Global Carbon Project</text>
<g>
  <rect x="123.0" y="651.4" width="34" height="17" fill="#FFF" stroke="none"/>
  <g transform="translate(124.0,652.4) scale(0.24)">
  <g><circle fill="#FFF" cx="37.79" cy="28.5" r="28.84"/>
     <circle fill="none" cx="37.79" cy="28.5" r="28.84" stroke="#BFBFBF" stroke-width="5.5"/>
     <path fill="#BFBFBF" d="M37.16,23.19 l-4.29,2.23c-0.458-0.951-1.02-1.62-1.69-2c-0.667-0.38-1.29-0.571-1.86-0.571c-2.86,0-4.29,1.89-4.29,5.66 c0,1.71,0.36,3.08,1.09,4.11c0.724,1.03,1.79,1.54,3.2,1.54c1.87,0,3.18-0.915,3.94-2.74l3.94,2 c-0.838,1.56-2,2.79-3.49,3.69c-1.48,0.896-3.12,1.34-4.91,1.34c-2.86,0-5.16-0.875-6.92-2.63 c-1.75-1.75-2.63-4.19-2.63-7.31c0-3.05,0.886-5.47,2.66-7.26c1.77-1.79,4.01-2.69,6.72-2.69 C32.6,18.56,35.44,20.1,37.16,23.19z
              M55.61,23.19l-4.23,2.23c-0.457-0.951-1.02-1.62-1.69-2 c-0.668-0.38-1.31-0.571-1.91-0.571c-2.86,0-4.29,1.89-4.29,5.66c0,1.71,0.363,3.08,1.09,4.11 c0.723,1.03,1.79,1.54,3.2,1.54c1.87,0,3.18-0.915,3.94-2.74l4,2c-0.875,1.56-2.06,2.79-3.54,3.69 c-1.49,0.9-3.11,1.34-4.86,1.34c-2.9,0-5.21-0.875-6.94-2.63c-1.74-1.75-2.6-4.19-2.6-7.31 c0-3.05,0.885-5.47,2.66-7.26c1.77-1.79,4.01-2.69,6.71-2.69C51.12,18.56,53.944,20.1,55.61,23.19z"/>
  </g></g>
  <g transform="translate(140.2,652.4) scale(0.24)">
  <g><circle fill="#FFF" cx="37.79" cy="28.5" r="28.84"/>
     <circle fill="none" cx="37.79" cy="28.5" r="28.84" stroke="#BFBFBF" stroke-width="5.5"/>
     <path fill="#BFBFBF" d="M46.129,20.557v13.085h-3.656v15.542h-9.944V33.643h-3.656V20.557 c0-0.572,0.2-1.057,0.599-1.457c0.401-0.399,0.887-0.6,1.457-0.6h13.144c0.533,0,1.01,0.2,1.428,0.6 C45.918,19.5,46.129,19.986,46.129,20.557z
              M33.042,12.329c0-3.008,1.485-4.514,4.458-4.514s4.457,1.504,4.457,4.514 c0,2.971-1.486,4.457-4.457,4.457S33.042,15.3,33.042,12.329z"/>
  </g></g>
</g>
</g>
</svg>
