<svg version="1.1" xmlns="http://www.w3.org/2000/svg" xmlns:xlink="http://www.w3.org/1999/xlink" width="100%" height="100%" viewBox="0 0 1200.000 674.916">
<title>Annual energy consumption Italy</title>
<style type="text/css">
  #main {font-family:Helvetica,Arial,sans-serif; font-size:27.00px;
         fill-opacity:1; fill:#000000; stroke:none; stroke-linejoin:round; stroke-linecap:round; stroke-width:1.00;}
  .marker {stroke-opacity:0;fill-opacity:0;}
  .marker:hover {stroke-opacity:0.5; fill-opacity:1;}
  .ticklabel {font-size:27.00px;fill:#808080;stroke:none}
  .ytl {text-anchor:end;}
  .xtl {text-anchor:middle;}
  .dp1 {pointer-events:none;font-size:70%;text-anchor:middle;fill:#000000;}
  .dp2 {pointer-events:none;font-size:70%;text-anchor:middle;fill:#FFFFFF;}
  .numtip {pointer-events:none;}
  .cc {opacity:0.25;}
.dl_fe {background-color:#FDFFDF;display:flex;margin:auto;align-items:center}
.dl_fe_p {font-size:20px;text-align:center;margin:3px}
.dl_el {display:none;pointer-events:none;}
.cc:hover + .dl_el {display:block;}
text:hover + .dl_el {display:block;}
</style>
<defs>
  <clipPath id="axis_clip"><rect x="145.8" y="54.2" width="761.2" height="532.8" /></clipPath>
  <path id="line_x" d="M 145.600,0 h 761.600" stroke="#262626" stroke-opacity="0.15" stroke-width="1.00"/>
  <path id="tick_y" d="M 145.600,0 h -6.000" stroke="#808080" stroke-width="0.90"/>
  <path id="tick_x" d="M 0,587.177 v 6.000" stroke="#808080" stroke-width="0.90"/>
</defs>
<g id="main">
<use xlink:href="#line_x" transform="translate(0,587.2)"/>
<use xlink:href="#line_x" transform="translate(0,468.7)"/>
<use xlink:href="#line_x" transform="translate(0,350.2)"/>
<use xlink:href="#line_x" transform="translate(0,231.7)"/>
<use xlink:href="#line_x" transform="translate(0,113.2)"/>
<use xlink:href="#tick_y" transform="translate(0,587.2)"/>
<use xlink:href="#tick_y" transform="translate(0,468.7)"/>
<use xlink:href="#tick_y" transform="translate(0,350.2)"/>
<use xlink:href="#tick_y" transform="translate(0,231.7)"/>
<use xlink:href="#tick_y" transform="translate(0,113.2)"/>
<use xlink:href="#tick_x" transform="translate(163.7,0)"/>
<use xlink:href="#tick_x" transform="translate(284.6,0)"/>
<use xlink:href="#tick_x" transform="translate(405.5,0)"/>
<use xlink:href="#tick_x" transform="translate(526.4,0)"/>
<use xlink:href="#tick_x" transform="translate(647.3,0)"/>
<use xlink:href="#tick_x" transform="translate(768.2,0)"/>
<use xlink:href="#tick_x" transform="translate(901.2,0)"/>
<polyline points="145.6,53.993 145.6,587.177 907.2,587.177" stroke="#808080" stroke-width="0.90" fill="none"/>
<text class="ticklabel xtl" transform="translate(163.7,629.0)">1960</text>
<text class="ticklabel xtl" transform="translate(284.6,629.0)">1970</text>
<text class="ticklabel xtl" transform="translate(405.5,629.0)">1980</text>
<text class="ticklabel xtl" transform="translate(526.4,629.0)">1990</text>
<text class="ticklabel xtl" transform="translate(647.3,629.0)">2000</text>
<text class="ticklabel xtl" transform="translate(768.2,629.0)">2010</text>
<text class="ticklabel xtl" transform="translate(901.2,629.0)">2021</text>
<text class="ticklabel ytl" transform="translate(128.8,595.3)">0</text>
<text class="ticklabel ytl" transform="translate(128.8,476.8)">1</text>
<text class="ticklabel ytl" transform="translate(128.8,358.3)">2</text>
<text class="ticklabel ytl" transform="translate(128.8,239.8)">3</text>
<text class="ticklabel ytl" transform="translate(128.8,121.3)">4 EJ</text>
<polyline class="pl" points="284.6,585.7 296.7,586.1 308.8,586.0 320.9,586.0 333.0,581.1 345.1,581.7 357.2,582.0 369.2,582.6 381.3,583.1 393.4,582.9 405.5,582.6 417.6,582.3 429.7,582.5 441.8,582.4 453.9,582.2 466.0,582.8 478.0,581.8 490.1,582.1 502.2,581.9 514.3,582.9 526.4,583.3 538.5,582.5 550.6,581.7 562.7,582.0 574.8,581.0 586.8,580.8 598.9,580.8 611.0,579.8 623.1,579.1 635.2,578.1 647.3,577.3 659.4,576.7 671.5,571.7 683.6,563.3 695.6,567.3 707.7,558.4 719.8,554.0 731.9,544.8 744.0,538.0 756.1,538.3 768.2,539.5 780.3,546.3 792.4,535.5 804.4,530.0 816.5,533.0 828.6,530.9 840.7,531.5 852.8,528.6 864.9,531.1 877.0,530.4 889.1,531.3 901.2,529.3" stroke="#FDBF6F" stroke-width="5.40" stroke-opacity="1.00" fill="none" clip-path="url(#axis_clip)"/>
<g class="pl" fill="#FFF" stroke="#FDBF6F" stroke-width="0.900">
  <circle cx="296.7" cy="586.1" r="2.2"/>
  <circle cx="308.8" cy="586.0" r="2.2"/>
  <circle cx="320.9" cy="586.0" r="2.2"/>
  <circle cx="333.0" cy="581.1" r="2.2"/>
  <circle cx="345.1" cy="581.7" r="2.2"/>
  <circle cx="357.2" cy="582.0" r="2.2"/>
  <circle cx="369.2" cy="582.6" r="2.2"/>
  <circle cx="381.3" cy="583.1" r="2.2"/>
  <circle cx="393.4" cy="582.9" r="2.2"/>
  <circle cx="417.6" cy="582.3" r="2.2"/>
  <circle cx="429.7" cy="582.5" r="2.2"/>
  <circle cx="441.8" cy="582.4" r="2.2"/>
  <circle cx="453.9" cy="582.2" r="2.2"/>
  <circle cx="466.0" cy="582.8" r="2.2"/>
  <circle cx="478.0" cy="581.8" r="2.2"/>
  <circle cx="490.1" cy="582.1" r="2.2"/>
  <circle cx="502.2" cy="581.9" r="2.2"/>
  <circle cx="514.3" cy="582.9" r="2.2"/>
  <circle cx="538.5" cy="582.5" r="2.2"/>
  <circle cx="550.6" cy="581.7" r="2.2"/>
  <circle cx="562.7" cy="582.0" r="2.2"/>
  <circle cx="574.8" cy="581.0" r="2.2"/>
  <circle cx="586.8" cy="580.8" r="2.2"/>
  <circle cx="598.9" cy="580.8" r="2.2"/>
  <circle cx="611.0" cy="579.8" r="2.2"/>
  <circle cx="623.1" cy="579.1" r="2.2"/>
  <circle cx="635.2" cy="578.1" r="2.2"/>
  <circle cx="659.4" cy="576.7" r="2.2"/>
  <circle cx="671.5" cy="571.7" r="2.2"/>
  <circle cx="683.6" cy="563.3" r="2.2"/>
  <circle cx="695.6" cy="567.3" r="2.2"/>
  <circle cx="707.7" cy="558.4" r="2.2"/>
  <circle cx="719.8" cy="554.0" r="2.2"/>
  <circle cx="731.9" cy="544.8" r="2.2"/>
  <circle cx="744.0" cy="538.0" r="2.2"/>
  <circle cx="756.1" cy="538.3" r="2.2"/>
  <circle cx="780.3" cy="546.3" r="2.2"/>
  <circle cx="792.4" cy="535.5" r="2.2"/>
  <circle cx="804.4" cy="530.0" r="2.2"/>
  <circle cx="816.5" cy="533.0" r="2.2"/>
  <circle cx="828.6" cy="530.9" r="2.2"/>
  <circle cx="840.7" cy="531.5" r="2.2"/>
  <circle cx="852.8" cy="528.6" r="2.2"/>
  <circle cx="864.9" cy="531.1" r="2.2"/>
  <circle cx="877.0" cy="530.4" r="2.2"/>
  <circle cx="901.2" cy="529.3" r="2.2"/>
</g>
<g class="pl" fill="#FFF" stroke="#FDBF6F" stroke-width="0.900">
  <circle cx="284.6" cy="585.7" r="5.4"/>
  <circle cx="405.5" cy="582.6" r="5.4"/>
  <circle cx="526.4" cy="583.3" r="5.4"/>
  <circle cx="647.3" cy="577.3" r="5.4"/>
  <circle cx="768.2" cy="539.5" r="5.4"/>
  <circle cx="889.1" cy="531.3" r="5.4"/>
</g>
<polyline class="pl" points="224.2,583.9 236.3,583.0 248.4,582.8 260.4,582.7 272.5,582.4 284.6,581.8 296.7,581.8 308.8,582.4 320.9,582.3 333.0,581.8 345.1,582.1 357.2,582.4 369.2,582.5 381.3,582.4 393.4,582.3 405.5,582.2 417.6,582.9 429.7,582.8 441.8,583.0 453.9,582.9 466.0,583.2 478.0,582.8 490.1,582.6 502.2,582.5 514.3,583.3 526.4,583.2 538.5,583.2 550.6,582.9 562.7,582.6 574.8,582.8 586.8,582.7 598.9,582.1 611.0,581.7 623.1,581.0 635.2,580.3 647.3,579.6 659.4,579.3 671.5,577.9 683.6,576.2 695.6,575.0 707.7,574.6 719.8,573.8 731.9,573.6 744.0,572.7 756.1,570.8 768.2,568.2 780.3,566.0 792.4,563.9 804.4,557.6 816.5,555.1 828.6,553.9 840.7,553.7 852.8,554.0 864.9,554.5 877.0,554.0 889.1,554.0 901.2,553.8" stroke="#E78AC3" stroke-width="5.40" stroke-opacity="1.00" fill="none" clip-path="url(#axis_clip)"/>
<g class="pl" fill="#FFF" stroke="#E78AC3" stroke-width="0.900">
  <circle cx="224.2" cy="583.9" r="2.2"/>
  <circle cx="236.3" cy="583.0" r="2.2"/>
  <circle cx="248.4" cy="582.8" r="2.2"/>
  <circle cx="260.4" cy="582.7" r="2.2"/>
  <circle cx="272.5" cy="582.4" r="2.2"/>
  <circle cx="296.7" cy="581.8" r="2.2"/>
  <circle cx="308.8" cy="582.4" r="2.2"/>
  <circle cx="320.9" cy="582.3" r="2.2"/>
  <circle cx="333.0" cy="581.8" r="2.2"/>
  <circle cx="345.1" cy="582.1" r="2.2"/>
  <circle cx="357.2" cy="582.4" r="2.2"/>
  <circle cx="369.2" cy="582.5" r="2.2"/>
  <circle cx="381.3" cy="582.4" r="2.2"/>
  <circle cx="393.4" cy="582.3" r="2.2"/>
  <circle cx="417.6" cy="582.9" r="2.2"/>
  <circle cx="429.7" cy="582.8" r="2.2"/>
  <circle cx="441.8" cy="583.0" r="2.2"/>
  <circle cx="453.9" cy="582.9" r="2.2"/>
  <circle cx="466.0" cy="583.2" r="2.2"/>
  <circle cx="478.0" cy="582.8" r="2.2"/>
  <circle cx="490.1" cy="582.6" r="2.2"/>
  <circle cx="502.2" cy="582.5" r="2.2"/>
  <circle cx="514.3" cy="583.3" r="2.2"/>
  <circle cx="538.5" cy="583.2" r="2.2"/>
  <circle cx="550.6" cy="582.9" r="2.2"/>
  <circle cx="562.7" cy="582.6" r="2.2"/>
  <circle cx="574.8" cy="582.8" r="2.2"/>
  <circle cx="586.8" cy="582.7" r="2.2"/>
  <circle cx="598.9" cy="582.1" r="2.2"/>
  <circle cx="611.0" cy="581.7" r="2.2"/>
  <circle cx="623.1" cy="581.0" r="2.2"/>
  <circle cx="635.2" cy="580.3" r="2.2"/>
  <circle cx="659.4" cy="579.3" r="2.2"/>
  <circle cx="671.5" cy="577.9" r="2.2"/>
  <circle cx="683.6" cy="576.2" r="2.2"/>
  <circle cx="695.6" cy="575.0" r="2.2"/>
  <circle cx="707.7" cy="574.6" r="2.2"/>
  <circle cx="719.8" cy="573.8" r="2.2"/>
  <circle cx="731.9" cy="573.6" r="2.2"/>
  <circle cx="744.0" cy="572.7" r="2.2"/>
  <circle cx="756.1" cy="570.8" r="2.2"/>
  <circle cx="780.3" cy="566.0" r="2.2"/>
  <circle cx="792.4" cy="563.9" r="2.2"/>
  <circle cx="804.4" cy="557.6" r="2.2"/>
  <circle cx="816.5" cy="555.1" r="2.2"/>
  <circle cx="828.6" cy="553.9" r="2.2"/>
  <circle cx="840.7" cy="553.7" r="2.2"/>
  <circle cx="852.8" cy="554.0" r="2.2"/>
  <circle cx="864.9" cy="554.5" r="2.2"/>
  <circle cx="877.0" cy="554.0" r="2.2"/>
  <circle cx="901.2" cy="553.8" r="2.2"/>
</g>
<g class="pl" fill="#FFF" stroke="#E78AC3" stroke-width="0.900">
  <circle cx="284.6" cy="581.8" r="5.4"/>
  <circle cx="405.5" cy="582.2" r="5.4"/>
  <circle cx="526.4" cy="583.2" r="5.4"/>
  <circle cx="647.3" cy="579.6" r="5.4"/>
  <circle cx="768.2" cy="568.2" r="5.4"/>
  <circle cx="889.1" cy="554.0" r="5.4"/>
</g>
<polyline class="pl" points="526.4,587.2 538.5,587.2 550.6,587.2 562.7,587.2 574.8,587.2 586.8,587.2 598.9,587.2 611.0,587.2 623.1,587.2 635.2,587.2 647.3,587.2 659.4,587.2 671.5,587.2 683.6,587.2 695.6,586.0 707.7,586.4 719.8,586.2 731.9,586.3 744.0,583.8 756.1,581.7 768.2,580.4 780.3,580.5 792.4,579.7 804.4,580.9 816.5,581.8 828.6,580.6 840.7,580.6 852.8,580.5 864.9,580.4 877.0,583.2 889.1,581.5 901.2,581.3" stroke="#8DA0CB" stroke-width="5.40" stroke-opacity="1.00" fill="none" clip-path="url(#axis_clip)"/>
<g class="pl" fill="#FFF" stroke="#8DA0CB" stroke-width="0.900">
  <circle cx="538.5" cy="587.2" r="2.2"/>
  <circle cx="550.6" cy="587.2" r="2.2"/>
  <circle cx="562.7" cy="587.2" r="2.2"/>
  <circle cx="574.8" cy="587.2" r="2.2"/>
  <circle cx="586.8" cy="587.2" r="2.2"/>
  <circle cx="598.9" cy="587.2" r="2.2"/>
  <circle cx="611.0" cy="587.2" r="2.2"/>
  <circle cx="623.1" cy="587.2" r="2.2"/>
  <circle cx="635.2" cy="587.2" r="2.2"/>
  <circle cx="659.4" cy="587.2" r="2.2"/>
  <circle cx="671.5" cy="587.2" r="2.2"/>
  <circle cx="683.6" cy="587.2" r="2.2"/>
  <circle cx="695.6" cy="586.0" r="2.2"/>
  <circle cx="707.7" cy="586.4" r="2.2"/>
  <circle cx="719.8" cy="586.2" r="2.2"/>
  <circle cx="731.9" cy="586.3" r="2.2"/>
  <circle cx="744.0" cy="583.8" r="2.2"/>
  <circle cx="756.1" cy="581.7" r="2.2"/>
  <circle cx="780.3" cy="580.5" r="2.2"/>
  <circle cx="792.4" cy="579.7" r="2.2"/>
  <circle cx="804.4" cy="580.9" r="2.2"/>
  <circle cx="816.5" cy="581.8" r="2.2"/>
  <circle cx="828.6" cy="580.6" r="2.2"/>
  <circle cx="840.7" cy="580.6" r="2.2"/>
  <circle cx="852.8" cy="580.5" r="2.2"/>
  <circle cx="864.9" cy="580.4" r="2.2"/>
  <circle cx="877.0" cy="583.2" r="2.2"/>
  <circle cx="901.2" cy="581.3" r="2.2"/>
</g>
<g class="pl" fill="#FFF" stroke="#8DA0CB" stroke-width="0.900">
  <circle cx="526.4" cy="587.2" r="5.4"/>
  <circle cx="647.3" cy="587.2" r="5.4"/>
  <circle cx="768.2" cy="580.4" r="5.4"/>
  <circle cx="889.1" cy="581.5" r="5.4"/>
</g>
<polyline class="pl" points="224.2,582.9 236.3,582.5 248.4,583.4 260.4,584.1 272.5,585.1 284.6,583.3 296.7,583.1 308.8,582.8 320.9,583.4 333.0,583.0 345.1,582.6 357.2,582.6 369.2,583.1 381.3,581.8 393.4,584.0 405.5,584.5 417.6,583.9 429.7,578.9 441.8,580.2 453.9,578.8 466.0,578.7 478.0,576.6 490.1,587.0 502.2,587.2 514.3,587.2 526.4,587.2 538.5,587.2 550.6,587.2 562.7,587.2 574.8,587.2 586.8,587.2 598.9,587.2 611.0,587.2 623.1,587.2 635.2,587.2 647.3,587.2 659.4,587.2 671.5,587.2 683.6,587.2 695.6,587.2 707.7,587.2 719.8,587.2 731.9,587.2 744.0,587.2 756.1,587.2 768.2,587.2 780.3,587.2 792.4,587.2 804.4,587.2 816.5,587.2 828.6,587.2 840.7,587.2 852.8,587.2 864.9,587.2 877.0,587.2 889.1,587.2 901.2,587.2" stroke="#FC8D62" stroke-width="5.40" stroke-opacity="1.00" fill="none" clip-path="url(#axis_clip)"/>
<g class="pl" fill="#FFF" stroke="#FC8D62" stroke-width="0.900">
  <circle cx="224.2" cy="582.9" r="2.2"/>
  <circle cx="236.3" cy="582.5" r="2.2"/>
  <circle cx="248.4" cy="583.4" r="2.2"/>
  <circle cx="260.4" cy="584.1" r="2.2"/>
  <circle cx="272.5" cy="585.1" r="2.2"/>
  <circle cx="296.7" cy="583.1" r="2.2"/>
  <circle cx="308.8" cy="582.8" r="2.2"/>
  <circle cx="320.9" cy="583.4" r="2.2"/>
  <circle cx="333.0" cy="583.0" r="2.2"/>
  <circle cx="345.1" cy="582.6" r="2.2"/>
  <circle cx="357.2" cy="582.6" r="2.2"/>
  <circle cx="369.2" cy="583.1" r="2.2"/>
  <circle cx="381.3" cy="581.8" r="2.2"/>
  <circle cx="393.4" cy="584.0" r="2.2"/>
  <circle cx="417.6" cy="583.9" r="2.2"/>
  <circle cx="429.7" cy="578.9" r="2.2"/>
  <circle cx="441.8" cy="580.2" r="2.2"/>
  <circle cx="453.9" cy="578.8" r="2.2"/>
  <circle cx="466.0" cy="578.7" r="2.2"/>
  <circle cx="478.0" cy="576.6" r="2.2"/>
  <circle cx="490.1" cy="587.0" r="2.2"/>
  <circle cx="502.2" cy="587.2" r="2.2"/>
  <circle cx="514.3" cy="587.2" r="2.2"/>
  <circle cx="538.5" cy="587.2" r="2.2"/>
  <circle cx="550.6" cy="587.2" r="2.2"/>
  <circle cx="562.7" cy="587.2" r="2.2"/>
  <circle cx="574.8" cy="587.2" r="2.2"/>
  <circle cx="586.8" cy="587.2" r="2.2"/>
  <circle cx="598.9" cy="587.2" r="2.2"/>
  <circle cx="611.0" cy="587.2" r="2.2"/>
  <circle cx="623.1" cy="587.2" r="2.2"/>
  <circle cx="635.2" cy="587.2" r="2.2"/>
  <circle cx="659.4" cy="587.2" r="2.2"/>
  <circle cx="671.5" cy="587.2" r="2.2"/>
  <circle cx="683.6" cy="587.2" r="2.2"/>
  <circle cx="695.6" cy="587.2" r="2.2"/>
  <circle cx="707.7" cy="587.2" r="2.2"/>
  <circle cx="719.8" cy="587.2" r="2.2"/>
  <circle cx="731.9" cy="587.2" r="2.2"/>
  <circle cx="744.0" cy="587.2" r="2.2"/>
  <circle cx="756.1" cy="587.2" r="2.2"/>
  <circle cx="780.3" cy="587.2" r="2.2"/>
  <circle cx="792.4" cy="587.2" r="2.2"/>
  <circle cx="804.4" cy="587.2" r="2.2"/>
  <circle cx="816.5" cy="587.2" r="2.2"/>
  <circle cx="828.6" cy="587.2" r="2.2"/>
  <circle cx="840.7" cy="587.2" r="2.2"/>
  <circle cx="852.8" cy="587.2" r="2.2"/>
  <circle cx="864.9" cy="587.2" r="2.2"/>
  <circle cx="877.0" cy="587.2" r="2.2"/>
  <circle cx="901.2" cy="587.2" r="2.2"/>
</g>
<g class="pl" fill="#FFF" stroke="#FC8D62" stroke-width="0.900">
  <circle cx="284.6" cy="583.3" r="5.4"/>
  <circle cx="405.5" cy="584.5" r="5.4"/>
  <circle cx="526.4" cy="587.2" r="5.4"/>
  <circle cx="647.3" cy="587.2" r="5.4"/>
  <circle cx="768.2" cy="587.2" r="5.4"/>
  <circle cx="889.1" cy="587.2" r="5.4"/>
</g>
<polyline class="pl" points="224.2,533.4 236.3,532.0 248.4,533.8 260.4,533.3 272.5,535.3 284.6,536.3 296.7,537.9 308.8,535.0 320.9,539.8 333.0,539.5 345.1,535.4 357.2,537.8 369.2,522.7 381.3,529.8 393.4,529.2 405.5,530.1 417.6,532.9 429.7,534.9 441.8,534.9 453.9,533.7 466.0,535.3 478.0,535.3 490.1,537.3 502.2,535.9 514.3,544.2 526.4,547.3 538.5,533.9 550.6,533.9 562.7,534.9 574.8,530.8 586.8,539.5 598.9,534.2 611.0,534.7 623.1,535.2 635.2,530.0 647.3,531.4 659.4,528.5 671.5,538.0 683.6,541.8 695.6,535.1 707.7,543.1 719.8,542.3 731.9,547.6 744.0,537.3 756.1,528.6 768.2,526.7 780.3,533.3 792.4,538.2 804.4,525.8 816.5,519.5 828.6,536.5 840.7,540.8 852.8,548.2 864.9,532.1 877.0,534.2 889.1,535.9 901.2,539.1" stroke="#66C2A5" stroke-width="5.40" stroke-opacity="1.00" fill="none" clip-path="url(#axis_clip)"/>
<g class="pl" fill="#FFF" stroke="#66C2A5" stroke-width="0.900">
  <circle cx="224.2" cy="533.4" r="2.2"/>
  <circle cx="236.3" cy="532.0" r="2.2"/>
  <circle cx="248.4" cy="533.8" r="2.2"/>
  <circle cx="260.4" cy="533.3" r="2.2"/>
  <circle cx="272.5" cy="535.3" r="2.2"/>
  <circle cx="296.7" cy="537.9" r="2.2"/>
  <circle cx="308.8" cy="535.0" r="2.2"/>
  <circle cx="320.9" cy="539.8" r="2.2"/>
  <circle cx="333.0" cy="539.5" r="2.2"/>
  <circle cx="345.1" cy="535.4" r="2.2"/>
  <circle cx="357.2" cy="537.8" r="2.2"/>
  <circle cx="369.2" cy="522.7" r="2.2"/>
  <circle cx="381.3" cy="529.8" r="2.2"/>
  <circle cx="393.4" cy="529.2" r="2.2"/>
  <circle cx="417.6" cy="532.9" r="2.2"/>
  <circle cx="429.7" cy="534.9" r="2.2"/>
  <circle cx="441.8" cy="534.9" r="2.2"/>
  <circle cx="453.9" cy="533.7" r="2.2"/>
  <circle cx="466.0" cy="535.3" r="2.2"/>
  <circle cx="478.0" cy="535.3" r="2.2"/>
  <circle cx="490.1" cy="537.3" r="2.2"/>
  <circle cx="502.2" cy="535.9" r="2.2"/>
  <circle cx="514.3" cy="544.2" r="2.2"/>
  <circle cx="538.5" cy="533.9" r="2.2"/>
  <circle cx="550.6" cy="533.9" r="2.2"/>
  <circle cx="562.7" cy="534.9" r="2.2"/>
  <circle cx="574.8" cy="530.8" r="2.2"/>
  <circle cx="586.8" cy="539.5" r="2.2"/>
  <circle cx="598.9" cy="534.2" r="2.2"/>
  <circle cx="611.0" cy="534.7" r="2.2"/>
  <circle cx="623.1" cy="535.2" r="2.2"/>
  <circle cx="635.2" cy="530.0" r="2.2"/>
  <circle cx="659.4" cy="528.5" r="2.2"/>
  <circle cx="671.5" cy="538.0" r="2.2"/>
  <circle cx="683.6" cy="541.8" r="2.2"/>
  <circle cx="695.6" cy="535.1" r="2.2"/>
  <circle cx="707.7" cy="543.1" r="2.2"/>
  <circle cx="719.8" cy="542.3" r="2.2"/>
  <circle cx="731.9" cy="547.6" r="2.2"/>
  <circle cx="744.0" cy="537.3" r="2.2"/>
  <circle cx="756.1" cy="528.6" r="2.2"/>
  <circle cx="780.3" cy="533.3" r="2.2"/>
  <circle cx="792.4" cy="538.2" r="2.2"/>
  <circle cx="804.4" cy="525.8" r="2.2"/>
  <circle cx="816.5" cy="519.5" r="2.2"/>
  <circle cx="828.6" cy="536.5" r="2.2"/>
  <circle cx="840.7" cy="540.8" r="2.2"/>
  <circle cx="852.8" cy="548.2" r="2.2"/>
  <circle cx="864.9" cy="532.1" r="2.2"/>
  <circle cx="877.0" cy="534.2" r="2.2"/>
  <circle cx="901.2" cy="539.1" r="2.2"/>
</g>
<g class="pl" fill="#FFF" stroke="#66C2A5" stroke-width="0.900">
  <circle cx="284.6" cy="536.3" r="5.4"/>
  <circle cx="405.5" cy="530.1" r="5.4"/>
  <circle cx="526.4" cy="547.3" r="5.4"/>
  <circle cx="647.3" cy="531.4" r="5.4"/>
  <circle cx="768.2" cy="526.7" r="5.4"/>
  <circle cx="889.1" cy="535.9" r="5.4"/>
</g>
<polyline class="pl" points="224.2,587.2 236.3,587.2 248.4,587.2 260.4,587.2 272.5,587.2 284.6,587.2 296.7,587.2 308.8,587.2 320.9,587.2 333.0,587.2 345.1,587.2 357.2,587.2 369.2,587.2 381.3,587.2 393.4,587.2 405.5,587.2 417.6,587.2 429.7,587.2 441.8,587.2 453.9,587.2 466.0,587.2 478.0,587.2 490.1,587.2 502.2,587.2 514.3,587.2 526.4,587.2 538.5,587.2 550.6,587.2 562.7,587.2 574.8,587.2 586.8,587.2 598.9,587.2 611.0,587.2 623.1,587.2 635.2,587.2 647.3,587.2 659.4,587.2 671.5,587.2 683.6,587.1 695.6,587.1 707.7,587.1 719.8,587.1 731.9,587.1 744.0,586.9 756.1,586.4 768.2,584.9 780.3,574.5 792.4,565.1 804.4,562.1 816.5,561.4 828.6,560.8 840.7,561.9 852.8,559.5 864.9,561.6 877.0,560.5 889.1,559.7 901.2,559.2" stroke="#E5C494" stroke-width="5.40" stroke-opacity="1.00" fill="none" clip-path="url(#axis_clip)"/>
<g class="pl" fill="#FFF" stroke="#E5C494" stroke-width="0.900">
  <circle cx="224.2" cy="587.2" r="2.2"/>
  <circle cx="236.3" cy="587.2" r="2.2"/>
  <circle cx="248.4" cy="587.2" r="2.2"/>
  <circle cx="260.4" cy="587.2" r="2.2"/>
  <circle cx="272.5" cy="587.2" r="2.2"/>
  <circle cx="296.7" cy="587.2" r="2.2"/>
  <circle cx="308.8" cy="587.2" r="2.2"/>
  <circle cx="320.9" cy="587.2" r="2.2"/>
  <circle cx="333.0" cy="587.2" r="2.2"/>
  <circle cx="345.1" cy="587.2" r="2.2"/>
  <circle cx="357.2" cy="587.2" r="2.2"/>
  <circle cx="369.2" cy="587.2" r="2.2"/>
  <circle cx="381.3" cy="587.2" r="2.2"/>
  <circle cx="393.4" cy="587.2" r="2.2"/>
  <circle cx="417.6" cy="587.2" r="2.2"/>
  <circle cx="429.7" cy="587.2" r="2.2"/>
  <circle cx="441.8" cy="587.2" r="2.2"/>
  <circle cx="453.9" cy="587.2" r="2.2"/>
  <circle cx="466.0" cy="587.2" r="2.2"/>
  <circle cx="478.0" cy="587.2" r="2.2"/>
  <circle cx="490.1" cy="587.2" r="2.2"/>
  <circle cx="502.2" cy="587.2" r="2.2"/>
  <circle cx="514.3" cy="587.2" r="2.2"/>
  <circle cx="538.5" cy="587.2" r="2.2"/>
  <circle cx="550.6" cy="587.2" r="2.2"/>
  <circle cx="562.7" cy="587.2" r="2.2"/>
  <circle cx="574.8" cy="587.2" r="2.2"/>
  <circle cx="586.8" cy="587.2" r="2.2"/>
  <circle cx="598.9" cy="587.2" r="2.2"/>
  <circle cx="611.0" cy="587.2" r="2.2"/>
  <circle cx="623.1" cy="587.2" r="2.2"/>
  <circle cx="635.2" cy="587.2" r="2.2"/>
  <circle cx="659.4" cy="587.2" r="2.2"/>
  <circle cx="671.5" cy="587.2" r="2.2"/>
  <circle cx="683.6" cy="587.1" r="2.2"/>
  <circle cx="695.6" cy="587.1" r="2.2"/>
  <circle cx="707.7" cy="587.1" r="2.2"/>
  <circle cx="719.8" cy="587.1" r="2.2"/>
  <circle cx="731.9" cy="587.1" r="2.2"/>
  <circle cx="744.0" cy="586.9" r="2.2"/>
  <circle cx="756.1" cy="586.4" r="2.2"/>
  <circle cx="780.3" cy="574.5" r="2.2"/>
  <circle cx="792.4" cy="565.1" r="2.2"/>
  <circle cx="804.4" cy="562.1" r="2.2"/>
  <circle cx="816.5" cy="561.4" r="2.2"/>
  <circle cx="828.6" cy="560.8" r="2.2"/>
  <circle cx="840.7" cy="561.9" r="2.2"/>
  <circle cx="852.8" cy="559.5" r="2.2"/>
  <circle cx="864.9" cy="561.6" r="2.2"/>
  <circle cx="877.0" cy="560.5" r="2.2"/>
  <circle cx="901.2" cy="559.2" r="2.2"/>
</g>
<g class="pl" fill="#FFF" stroke="#E5C494" stroke-width="0.900">
  <circle cx="284.6" cy="587.2" r="5.4"/>
  <circle cx="405.5" cy="587.2" r="5.4"/>
  <circle cx="526.4" cy="587.2" r="5.4"/>
  <circle cx="647.3" cy="587.2" r="5.4"/>
  <circle cx="768.2" cy="584.9" r="5.4"/>
  <circle cx="889.1" cy="559.7" r="5.4"/>
</g>
<polyline class="pl" points="224.2,587.2 236.3,587.2 248.4,587.2 260.4,587.2 272.5,587.2 284.6,587.2 296.7,587.2 308.8,587.2 320.9,587.2 333.0,587.2 345.1,587.2 357.2,587.2 369.2,587.2 381.3,587.2 393.4,587.2 405.5,587.2 417.6,587.2 429.7,587.2 441.8,587.2 453.9,587.2 466.0,587.2 478.0,587.2 490.1,587.2 502.2,587.2 514.3,587.2 526.4,587.2 538.5,587.2 550.6,587.2 562.7,587.2 574.8,587.2 586.8,587.2 598.9,587.1 611.0,587.0 623.1,586.9 635.2,586.7 647.3,586.5 659.4,585.7 671.5,585.4 683.6,585.4 695.6,584.9 707.7,584.3 719.8,583.6 731.9,582.3 744.0,581.4 756.1,579.4 768.2,576.4 780.3,575.6 792.4,571.5 804.4,569.9 816.5,569.6 828.6,570.1 840.7,567.0 852.8,567.0 864.9,567.2 877.0,564.7 889.1,566.3 901.2,564.2" stroke="#FFD92F" stroke-width="5.40" stroke-opacity="1.00" fill="none" clip-path="url(#axis_clip)"/>
<g class="pl" fill="#FFF" stroke="#FFD92F" stroke-width="0.900">
  <circle cx="224.2" cy="587.2" r="2.2"/>
  <circle cx="236.3" cy="587.2" r="2.2"/>
  <circle cx="248.4" cy="587.2" r="2.2"/>
  <circle cx="260.4" cy="587.2" r="2.2"/>
  <circle cx="272.5" cy="587.2" r="2.2"/>
  <circle cx="296.7" cy="587.2" r="2.2"/>
  <circle cx="308.8" cy="587.2" r="2.2"/>
  <circle cx="320.9" cy="587.2" r="2.2"/>
  <circle cx="333.0" cy="587.2" r="2.2"/>
  <circle cx="345.1" cy="587.2" r="2.2"/>
  <circle cx="357.2" cy="587.2" r="2.2"/>
  <circle cx="369.2" cy="587.2" r="2.2"/>
  <circle cx="381.3" cy="587.2" r="2.2"/>
  <circle cx="393.4" cy="587.2" r="2.2"/>
  <circle cx="417.6" cy="587.2" r="2.2"/>
  <circle cx="429.7" cy="587.2" r="2.2"/>
  <circle cx="441.8" cy="587.2" r="2.2"/>
  <circle cx="453.9" cy="587.2" r="2.2"/>
  <circle cx="466.0" cy="587.2" r="2.2"/>
  <circle cx="478.0" cy="587.2" r="2.2"/>
  <circle cx="490.1" cy="587.2" r="2.2"/>
  <circle cx="502.2" cy="587.2" r="2.2"/>
  <circle cx="514.3" cy="587.2" r="2.2"/>
  <circle cx="538.5" cy="587.2" r="2.2"/>
  <circle cx="550.6" cy="587.2" r="2.2"/>
  <circle cx="562.7" cy="587.2" r="2.2"/>
  <circle cx="574.8" cy="587.2" r="2.2"/>
  <circle cx="586.8" cy="587.2" r="2.2"/>
  <circle cx="598.9" cy="587.1" r="2.2"/>
  <circle cx="611.0" cy="587.0" r="2.2"/>
  <circle cx="623.1" cy="586.9" r="2.2"/>
  <circle cx="635.2" cy="586.7" r="2.2"/>
  <circle cx="659.4" cy="585.7" r="2.2"/>
  <circle cx="671.5" cy="585.4" r="2.2"/>
  <circle cx="683.6" cy="585.4" r="2.2"/>
  <circle cx="695.6" cy="584.9" r="2.2"/>
  <circle cx="707.7" cy="584.3" r="2.2"/>
  <circle cx="719.8" cy="583.6" r="2.2"/>
  <circle cx="731.9" cy="582.3" r="2.2"/>
  <circle cx="744.0" cy="581.4" r="2.2"/>
  <circle cx="756.1" cy="579.4" r="2.2"/>
  <circle cx="780.3" cy="575.6" r="2.2"/>
  <circle cx="792.4" cy="571.5" r="2.2"/>
  <circle cx="804.4" cy="569.9" r="2.2"/>
  <circle cx="816.5" cy="569.6" r="2.2"/>
  <circle cx="828.6" cy="570.1" r="2.2"/>
  <circle cx="840.7" cy="567.0" r="2.2"/>
  <circle cx="852.8" cy="567.0" r="2.2"/>
  <circle cx="864.9" cy="567.2" r="2.2"/>
  <circle cx="877.0" cy="564.7" r="2.2"/>
  <circle cx="901.2" cy="564.2" r="2.2"/>
</g>
<g class="pl" fill="#FFF" stroke="#FFD92F" stroke-width="0.900">
  <circle cx="284.6" cy="587.2" r="5.4"/>
  <circle cx="405.5" cy="587.2" r="5.4"/>
  <circle cx="526.4" cy="587.2" r="5.4"/>
  <circle cx="647.3" cy="586.5" r="5.4"/>
  <circle cx="768.2" cy="576.4" r="5.4"/>
  <circle cx="889.1" cy="566.3" r="5.4"/>
</g>
<polyline class="pl" points="224.2,555.7 236.3,552.8 248.4,549.7 260.4,543.1 272.5,538.8 284.6,535.0 296.7,533.3 308.8,525.4 320.9,517.7 333.0,509.1 345.1,497.2 357.2,478.2 369.2,475.9 381.3,477.5 393.4,474.5 405.5,475.4 417.6,478.7 429.7,479.1 441.8,476.1 453.9,456.3 466.0,454.1 478.0,446.5 490.1,431.1 502.2,417.9 514.3,404.1 526.4,393.4 538.5,381.3 550.6,383.2 562.7,379.1 574.8,386.1 586.8,365.7 598.9,358.7 611.0,349.9 623.1,331.7 635.2,309.5 647.3,297.6 659.4,296.8 671.5,298.8 683.6,269.3 695.6,257.3 707.7,234.1 719.8,241.4 731.9,239.7 744.0,242.3 756.1,270.2 768.2,249.6 780.3,270.6 792.4,282.8 804.4,302.5 816.5,335.6 828.6,312.8 840.7,299.1 852.8,281.9 864.9,291.9 877.0,285.2 889.1,298.7 901.2,277.9" stroke="#6298C6" stroke-width="5.40" stroke-opacity="1.00" fill="none" clip-path="url(#axis_clip)"/>
<g class="pl" fill="#FFF" stroke="#6298C6" stroke-width="0.900">
  <circle cx="224.2" cy="555.7" r="2.2"/>
  <circle cx="236.3" cy="552.8" r="2.2"/>
  <circle cx="248.4" cy="549.7" r="2.2"/>
  <circle cx="260.4" cy="543.1" r="2.2"/>
  <circle cx="272.5" cy="538.8" r="2.2"/>
  <circle cx="296.7" cy="533.3" r="2.2"/>
  <circle cx="308.8" cy="525.4" r="2.2"/>
  <circle cx="320.9" cy="517.7" r="2.2"/>
  <circle cx="333.0" cy="509.1" r="2.2"/>
  <circle cx="345.1" cy="497.2" r="2.2"/>
  <circle cx="357.2" cy="478.2" r="2.2"/>
  <circle cx="369.2" cy="475.9" r="2.2"/>
  <circle cx="381.3" cy="477.5" r="2.2"/>
  <circle cx="393.4" cy="474.5" r="2.2"/>
  <circle cx="417.6" cy="478.7" r="2.2"/>
  <circle cx="429.7" cy="479.1" r="2.2"/>
  <circle cx="441.8" cy="476.1" r="2.2"/>
  <circle cx="453.9" cy="456.3" r="2.2"/>
  <circle cx="466.0" cy="454.1" r="2.2"/>
  <circle cx="478.0" cy="446.5" r="2.2"/>
  <circle cx="490.1" cy="431.1" r="2.2"/>
  <circle cx="502.2" cy="417.9" r="2.2"/>
  <circle cx="514.3" cy="404.1" r="2.2"/>
  <circle cx="538.5" cy="381.3" r="2.2"/>
  <circle cx="550.6" cy="383.2" r="2.2"/>
  <circle cx="562.7" cy="379.1" r="2.2"/>
  <circle cx="574.8" cy="386.1" r="2.2"/>
  <circle cx="586.8" cy="365.7" r="2.2"/>
  <circle cx="598.9" cy="358.7" r="2.2"/>
  <circle cx="611.0" cy="349.9" r="2.2"/>
  <circle cx="623.1" cy="331.7" r="2.2"/>
  <circle cx="635.2" cy="309.5" r="2.2"/>
  <circle cx="659.4" cy="296.8" r="2.2"/>
  <circle cx="671.5" cy="298.8" r="2.2"/>
  <circle cx="683.6" cy="269.3" r="2.2"/>
  <circle cx="695.6" cy="257.3" r="2.2"/>
  <circle cx="707.7" cy="234.1" r="2.2"/>
  <circle cx="719.8" cy="241.4" r="2.2"/>
  <circle cx="731.9" cy="239.7" r="2.2"/>
  <circle cx="744.0" cy="242.3" r="2.2"/>
  <circle cx="756.1" cy="270.2" r="2.2"/>
  <circle cx="780.3" cy="270.6" r="2.2"/>
  <circle cx="792.4" cy="282.8" r="2.2"/>
  <circle cx="804.4" cy="302.5" r="2.2"/>
  <circle cx="816.5" cy="335.6" r="2.2"/>
  <circle cx="828.6" cy="312.8" r="2.2"/>
  <circle cx="840.7" cy="299.1" r="2.2"/>
  <circle cx="852.8" cy="281.9" r="2.2"/>
  <circle cx="864.9" cy="291.9" r="2.2"/>
  <circle cx="877.0" cy="285.2" r="2.2"/>
  <circle cx="901.2" cy="277.9" r="2.2"/>
</g>
<g class="pl" fill="#FFF" stroke="#6298C6" stroke-width="0.900">
  <circle cx="284.6" cy="535.0" r="5.4"/>
  <circle cx="405.5" cy="475.4" r="5.4"/>
  <circle cx="526.4" cy="393.4" r="5.4"/>
  <circle cx="647.3" cy="297.6" r="5.4"/>
  <circle cx="768.2" cy="249.6" r="5.4"/>
  <circle cx="889.1" cy="298.7" r="5.4"/>
</g>
<polyline class="pl" points="224.2,326.7 236.3,299.9 248.4,269.2 260.4,236.6 272.5,201.0 284.6,150.4 296.7,117.4 308.8,94.0 320.9,68.1 333.0,82.1 345.1,112.8 357.2,91.5 369.2,105.1 381.3,81.0 393.4,64.3 405.5,90.7 417.6,101.5 429.7,125.9 441.8,137.8 453.9,158.5 466.0,160.7 478.0,150.5 490.1,131.8 502.2,123.7 514.3,110.2 526.4,106.2 538.5,103.2 550.6,96.5 562.7,109.5 574.8,111.1 586.8,95.0 598.9,103.4 611.0,98.7 623.1,100.1 635.2,104.1 647.3,107.4 659.4,116.9 671.5,115.2 683.6,119.7 695.6,129.7 707.7,143.8 719.8,144.3 731.9,158.2 744.0,183.4 756.1,213.5 768.2,223.2 780.3,233.6 792.4,257.8 804.4,285.8 816.5,300.8 828.6,284.1 840.7,286.6 852.8,282.8 864.9,275.7 877.0,284.7 889.1,337.4 901.2,308.9" stroke="#404040" stroke-width="5.40" stroke-opacity="1.00" fill="none" clip-path="url(#axis_clip)"/>
<g class="pl" fill="#FFF" stroke="#404040" stroke-width="0.900">
  <circle cx="224.2" cy="326.7" r="2.2"/>
  <circle cx="236.3" cy="299.9" r="2.2"/>
  <circle cx="248.4" cy="269.2" r="2.2"/>
  <circle cx="260.4" cy="236.6" r="2.2"/>
  <circle cx="272.5" cy="201.0" r="2.2"/>
  <circle cx="296.7" cy="117.4" r="2.2"/>
  <circle cx="308.8" cy="94.0" r="2.2"/>
  <circle cx="320.9" cy="68.1" r="2.2"/>
  <circle cx="333.0" cy="82.1" r="2.2"/>
  <circle cx="345.1" cy="112.8" r="2.2"/>
  <circle cx="357.2" cy="91.5" r="2.2"/>
  <circle cx="369.2" cy="105.1" r="2.2"/>
  <circle cx="381.3" cy="81.0" r="2.2"/>
  <circle cx="393.4" cy="64.3" r="2.2"/>
  <circle cx="417.6" cy="101.5" r="2.2"/>
  <circle cx="429.7" cy="125.9" r="2.2"/>
  <circle cx="441.8" cy="137.8" r="2.2"/>
  <circle cx="453.9" cy="158.5" r="2.2"/>
  <circle cx="466.0" cy="160.7" r="2.2"/>
  <circle cx="478.0" cy="150.5" r="2.2"/>
  <circle cx="490.1" cy="131.8" r="2.2"/>
  <circle cx="502.2" cy="123.7" r="2.2"/>
  <circle cx="514.3" cy="110.2" r="2.2"/>
  <circle cx="538.5" cy="103.2" r="2.2"/>
  <circle cx="550.6" cy="96.5" r="2.2"/>
  <circle cx="562.7" cy="109.5" r="2.2"/>
  <circle cx="574.8" cy="111.1" r="2.2"/>
  <circle cx="586.8" cy="95.0" r="2.2"/>
  <circle cx="598.9" cy="103.4" r="2.2"/>
  <circle cx="611.0" cy="98.7" r="2.2"/>
  <circle cx="623.1" cy="100.1" r="2.2"/>
  <circle cx="635.2" cy="104.1" r="2.2"/>
  <circle cx="659.4" cy="116.9" r="2.2"/>
  <circle cx="671.5" cy="115.2" r="2.2"/>
  <circle cx="683.6" cy="119.7" r="2.2"/>
  <circle cx="695.6" cy="129.7" r="2.2"/>
  <circle cx="707.7" cy="143.8" r="2.2"/>
  <circle cx="719.8" cy="144.3" r="2.2"/>
  <circle cx="731.9" cy="158.2" r="2.2"/>
  <circle cx="744.0" cy="183.4" r="2.2"/>
  <circle cx="756.1" cy="213.5" r="2.2"/>
  <circle cx="780.3" cy="233.6" r="2.2"/>
  <circle cx="792.4" cy="257.8" r="2.2"/>
  <circle cx="804.4" cy="285.8" r="2.2"/>
  <circle cx="816.5" cy="300.8" r="2.2"/>
  <circle cx="828.6" cy="284.1" r="2.2"/>
  <circle cx="840.7" cy="286.6" r="2.2"/>
  <circle cx="852.8" cy="282.8" r="2.2"/>
  <circle cx="864.9" cy="275.7" r="2.2"/>
  <circle cx="877.0" cy="284.7" r="2.2"/>
  <circle cx="901.2" cy="308.9" r="2.2"/>
</g>
<g class="pl" fill="#FFF" stroke="#404040" stroke-width="0.900">
  <circle cx="284.6" cy="150.4" r="5.4"/>
  <circle cx="405.5" cy="90.7" r="5.4"/>
  <circle cx="526.4" cy="106.2" r="5.4"/>
  <circle cx="647.3" cy="107.4" r="5.4"/>
  <circle cx="768.2" cy="223.2" r="5.4"/>
  <circle cx="889.1" cy="337.4" r="5.4"/>
</g>
<polyline class="pl" points="224.2,544.4 236.3,542.7 248.4,538.4 260.4,539.9 272.5,538.7 284.6,538.2 296.7,539.9 308.8,543.2 320.9,542.5 333.0,538.5 345.1,538.4 357.2,538.8 369.2,539.6 381.3,538.8 393.4,534.1 405.5,524.9 417.6,523.4 429.7,515.8 441.8,520.4 453.9,511.4 466.0,512.4 478.0,513.7 490.1,514.2 502.2,518.8 514.3,515.8 526.4,514.6 538.5,518.2 550.6,526.7 562.7,534.3 574.8,531.3 586.8,527.1 598.9,531.9 611.0,531.1 623.1,528.9 635.2,529.0 647.3,525.1 659.4,521.2 671.5,519.1 683.6,513.7 695.6,504.8 707.7,505.5 719.8,504.5 731.9,506.2 744.0,508.8 756.1,525.8 768.2,519.3 780.3,511.1 792.4,509.2 804.4,520.0 816.5,521.7 828.6,526.0 840.7,532.7 852.8,539.4 864.9,543.4 877.0,554.1 889.1,561.9 901.2,559.9" stroke="#7B553E" stroke-width="5.40" stroke-opacity="1.00" fill="none" clip-path="url(#axis_clip)"/>
<g class="pl" fill="#FFF" stroke="#7B553E" stroke-width="0.900">
  <circle cx="224.2" cy="544.4" r="2.2"/>
  <circle cx="236.3" cy="542.7" r="2.2"/>
  <circle cx="248.4" cy="538.4" r="2.2"/>
  <circle cx="260.4" cy="539.9" r="2.2"/>
  <circle cx="272.5" cy="538.7" r="2.2"/>
  <circle cx="296.7" cy="539.9" r="2.2"/>
  <circle cx="308.8" cy="543.2" r="2.2"/>
  <circle cx="320.9" cy="542.5" r="2.2"/>
  <circle cx="333.0" cy="538.5" r="2.2"/>
  <circle cx="345.1" cy="538.4" r="2.2"/>
  <circle cx="357.2" cy="538.8" r="2.2"/>
  <circle cx="369.2" cy="539.6" r="2.2"/>
  <circle cx="381.3" cy="538.8" r="2.2"/>
  <circle cx="393.4" cy="534.1" r="2.2"/>
  <circle cx="417.6" cy="523.4" r="2.2"/>
  <circle cx="429.7" cy="515.8" r="2.2"/>
  <circle cx="441.8" cy="520.4" r="2.2"/>
  <circle cx="453.9" cy="511.4" r="2.2"/>
  <circle cx="466.0" cy="512.4" r="2.2"/>
  <circle cx="478.0" cy="513.7" r="2.2"/>
  <circle cx="490.1" cy="514.2" r="2.2"/>
  <circle cx="502.2" cy="518.8" r="2.2"/>
  <circle cx="514.3" cy="515.8" r="2.2"/>
  <circle cx="538.5" cy="518.2" r="2.2"/>
  <circle cx="550.6" cy="526.7" r="2.2"/>
  <circle cx="562.7" cy="534.3" r="2.2"/>
  <circle cx="574.8" cy="531.3" r="2.2"/>
  <circle cx="586.8" cy="527.1" r="2.2"/>
  <circle cx="598.9" cy="531.9" r="2.2"/>
  <circle cx="611.0" cy="531.1" r="2.2"/>
  <circle cx="623.1" cy="528.9" r="2.2"/>
  <circle cx="635.2" cy="529.0" r="2.2"/>
  <circle cx="659.4" cy="521.2" r="2.2"/>
  <circle cx="671.5" cy="519.1" r="2.2"/>
  <circle cx="683.6" cy="513.7" r="2.2"/>
  <circle cx="695.6" cy="504.8" r="2.2"/>
  <circle cx="707.7" cy="505.5" r="2.2"/>
  <circle cx="719.8" cy="504.5" r="2.2"/>
  <circle cx="731.9" cy="506.2" r="2.2"/>
  <circle cx="744.0" cy="508.8" r="2.2"/>
  <circle cx="756.1" cy="525.8" r="2.2"/>
  <circle cx="780.3" cy="511.1" r="2.2"/>
  <circle cx="792.4" cy="509.2" r="2.2"/>
  <circle cx="804.4" cy="520.0" r="2.2"/>
  <circle cx="816.5" cy="521.7" r="2.2"/>
  <circle cx="828.6" cy="526.0" r="2.2"/>
  <circle cx="840.7" cy="532.7" r="2.2"/>
  <circle cx="852.8" cy="539.4" r="2.2"/>
  <circle cx="864.9" cy="543.4" r="2.2"/>
  <circle cx="877.0" cy="554.1" r="2.2"/>
  <circle cx="901.2" cy="559.9" r="2.2"/>
</g>
<g class="pl" fill="#FFF" stroke="#7B553E" stroke-width="0.900">
  <circle cx="284.6" cy="538.2" r="5.4"/>
  <circle cx="405.5" cy="524.9" r="5.4"/>
  <circle cx="526.4" cy="514.6" r="5.4"/>
  <circle cx="647.3" cy="525.1" r="5.4"/>
  <circle cx="768.2" cy="519.3" r="5.4"/>
  <circle cx="889.1" cy="561.9" r="5.4"/>
</g>
<text transform="translate(945.6,405.9)" dy="8.1" font-size="27.00" fill="#FDBF6F" stroke="none">Bioenergy</text>
<text transform="translate(945.6,457.7)" dy="8.1" font-size="27.00" fill="#E78AC3" stroke="none">Other</text>
<text transform="translate(945.6,561.3)" dy="8.1" font-size="27.00" fill="#8DA0CB" stroke="none">Biofuels</text>
<text transform="translate(945.6,587.2)" dy="8.1" font-size="27.00" fill="#FC8D62" stroke="none">Nuclear</text>
<text transform="translate(945.6,431.8)" dy="8.1" font-size="27.00" fill="#66C2A5" stroke="none">Hydro</text>
<text transform="translate(945.6,483.6)" dy="8.1" font-size="27.00" fill="#E5C494" stroke="none">Solar</text>
<text transform="translate(945.6,535.4)" dy="8.1" font-size="27.00" fill="#FFD92F" stroke="none">Wind</text>
<text transform="translate(945.6,277.9)" dy="8.1" font-size="27.00" fill="#6298C6" stroke="none">Gas</text>
<text transform="translate(945.6,308.9)" dy="8.1" font-size="27.00" fill="#404040" stroke="none">Oil</text>
<text transform="translate(945.6,509.5)" dy="8.1" font-size="27.00" fill="#7B553E" stroke="none">Coal</text>
<polyline class="pl" points="910.8,529.3 912.4,528.9 913.8,527.6 915.2,525.6 916.4,522.9 917.6,519.6 918.8,515.6 919.8,511.2 920.8,506.3 921.7,501.0 922.7,495.4 923.5,489.5 924.4,483.4 925.2,477.1 926.0,470.8 926.8,464.4 927.6,458.0 928.4,451.8 929.3,445.7 930.1,439.8 931.1,434.1 932.0,428.9 933.0,424.0 934.0,419.5 935.2,415.6 936.4,412.2 937.6,409.5 939.0,407.5 940.4,406.3 942.0,405.9" stroke="#FDBF6F" stroke-width="0.90" stroke-opacity="1.00" fill="none" />
<polyline class="pl" points="910.8,553.8 912.4,553.5 913.8,552.5 915.2,550.9 916.4,548.8 917.6,546.2 918.8,543.2 919.8,539.7 920.8,535.9 921.7,531.8 922.7,527.4 923.5,522.8 924.4,518.1 925.2,513.2 926.0,508.2 926.8,503.3 927.6,498.3 928.4,493.4 929.3,488.7 930.1,484.1 931.1,479.7 932.0,475.6 933.0,471.8 934.0,468.3 935.2,465.2 936.4,462.6 937.6,460.5 939.0,459.0 940.4,458.0 942.0,457.7" stroke="#E78AC3" stroke-width="0.90" stroke-opacity="1.00" fill="none" />
<polyline class="pl" points="910.8,581.3 912.4,581.2 913.8,581.0 915.2,580.7 916.4,580.3 917.6,579.7 918.8,579.1 919.8,578.4 920.8,577.6 921.7,576.7 922.7,575.8 923.5,574.9 924.4,573.9 925.2,572.8 926.0,571.8 926.8,570.8 927.6,569.7 928.4,568.7 929.3,567.7 930.1,566.8 931.1,565.9 932.0,565.0 933.0,564.2 934.0,563.5 935.2,562.9 936.4,562.3 937.6,561.9 939.0,561.5 940.4,561.3 942.0,561.3" stroke="#8DA0CB" stroke-width="0.90" stroke-opacity="1.00" fill="none" />
<polyline class="pl" points="910.8,539.1 912.4,538.7 913.8,537.7 915.2,535.9 916.4,533.6 917.6,530.6 918.8,527.2 919.8,523.4 920.8,519.1 921.7,514.5 922.7,509.6 923.5,504.5 924.4,499.2 925.2,493.7 926.0,488.2 926.8,482.7 927.6,477.1 928.4,471.7 929.3,466.4 930.1,461.2 931.1,456.4 932.0,451.8 933.0,447.5 934.0,443.6 935.2,440.2 936.4,437.3 937.6,435.0 939.0,433.2 940.4,432.1 942.0,431.8" stroke="#66C2A5" stroke-width="0.90" stroke-opacity="1.00" fill="none" />
<polyline class="pl" points="910.8,559.2 912.4,558.9 913.8,558.2 915.2,556.9 916.4,555.3 917.6,553.2 918.8,550.8 919.8,548.1 920.8,545.1 921.7,541.9 922.7,538.4 923.5,534.8 924.4,531.1 925.2,527.2 926.0,523.3 926.8,519.4 927.6,515.5 928.4,511.7 929.3,508.0 930.1,504.3 931.1,500.9 932.0,497.7 933.0,494.7 934.0,491.9 935.2,489.5 936.4,487.5 937.6,485.8 939.0,484.6 940.4,483.8 942.0,483.6" stroke="#E5C494" stroke-width="0.90" stroke-opacity="1.00" fill="none" />
<polyline class="pl" points="910.8,564.2 912.4,564.1 913.8,563.8 915.2,563.3 916.4,562.7 917.6,561.9 918.8,561.0 919.8,559.9 920.8,558.8 921.7,557.6 922.7,556.3 923.5,554.9 924.4,553.5 925.2,552.0 926.0,550.5 926.8,549.0 927.6,547.5 928.4,546.1 929.3,544.7 930.1,543.3 931.1,542.0 932.0,540.7 933.0,539.6 934.0,538.6 935.2,537.6 936.4,536.9 937.6,536.2 939.0,535.8 940.4,535.5 942.0,535.4" stroke="#FFD92F" stroke-width="0.90" stroke-opacity="1.00" fill="none" />
<polyline class="pl" points="910.8,559.9 912.4,559.8 913.8,559.3 915.2,558.4 916.4,557.3 917.6,556.0 918.8,554.4 919.8,552.5 920.8,550.5 921.7,548.4 922.7,546.1 923.5,543.7 924.4,541.2 925.2,538.6 926.0,536.0 926.8,533.4 927.6,530.8 928.4,528.2 929.3,525.7 930.1,523.3 931.1,521.0 932.0,518.9 933.0,516.9 934.0,515.1 935.2,513.4 936.4,512.1 937.6,511.0 939.0,510.2 940.4,509.6 942.0,509.5" stroke="#7B553E" stroke-width="0.90" stroke-opacity="1.00" fill="none" />
<text transform="translate(1079.5,402.5)" dy="0.0" font-size="14.40" fill="#FDBF6F" stroke="none">excluding</text>
<text transform="translate(1079.5,402.5)" dy="14.4" font-size="14.40" fill="#FDBF6F" stroke="none">liquids</text>
<text transform="translate(145.6,47.2)" dy="0.0" font-size="27.00" fill="#808080" stroke="none">Annual energy consumption Italy</text>
<text transform="translate(160.2,666.1)" font-size="19.80" fill="#BFBFBF" stroke="none" xml:space="preserve">Global Carbon Project   &#9679;   Data: BP, IEA (bioenergy)</text>
<g>
  <rect x="123.0" y="651.4" width="34" height="17" fill="#FFF" stroke="none"/>
  <g transform="translate(124.0,652.4) scale(0.24)">
  <g><circle fill="#FFF" cx="37.79" cy="28.5" r="28.84"/>
     <circle fill="none" cx="37.79" cy="28.5" r="28.84" stroke="#BFBFBF" stroke-width="5.5"/>
     <path fill="#BFBFBF" d="M37.16,23.19 l-4.29,2.23c-0.458-0.951-1.02-1.62-1.69-2c-0.667-0.38-1.29-0.571-1.86-0.571c-2.86,0-4.29,1.89-4.29,5.66 c0,1.71,0.36,3.08,1.09,4.11c0.724,1.03,1.79,1.54,3.2,1.54c1.87,0,3.18-0.915,3.94-2.74l3.94,2 c-0.838,1.56-2,2.79-3.49,3.69c-1.48,0.896-3.12,1.34-4.91,1.34c-2.86,0-5.16-0.875-6.92-2.63 c-1.75-1.75-2.63-4.19-2.63-7.31c0-3.05,0.886-5.47,2.66-7.26c1.77-1.79,4.01-2.69,6.72-2.69 C32.6,18.56,35.44,20.1,37.16,23.19z
              M55.61,23.19l-4.23,2.23c-0.457-0.951-1.02-1.62-1.69-2 c-0.668-0.38-1.31-0.571-1.91-0.571c-2.86,0-4.29,1.89-4.29,5.66c0,1.71,0.363,3.08,1.09,4.11 c0.723,1.03,1.79,1.54,3.2,1.54c1.87,0,3.18-0.915,3.94-2.74l4,2c-0.875,1.56-2.06,2.79-3.54,3.69 c-1.49,0.9-3.11,1.34-4.86,1.34c-2.9,0-5.21-0.875-6.94-2.63c-1.74-1.75-2.6-4.19-2.6-7.31 c0-3.05,0.885-5.47,2.66-7.26c1.77-1.79,4.01-2.69,6.71-2.69C51.12,18.56,53.944,20.1,55.61,23.19z"/>
  </g></g>
  <g transform="translate(140.2,652.4) scale(0.24)">
  <g><circle fill="#FFF" cx="37.79" cy="28.5" r="28.84"/>
     <circle fill="none" cx="37.79" cy="28.5" r="28.84" stroke="#BFBFBF" stroke-width="5.5"/>
     <path fill="#BFBFBF" d="M46.129,20.557v13.085h-3.656v15.542h-9.944V33.643h-3.656V20.557 c0-0.572,0.2-1.057,0.599-1.457c0.401-0.399,0.887-0.6,1.457-0.6h13.144c0.533,0,1.01,0.2,1.428,0.6 C45.918,19.5,46.129,19.986,46.129,20.557z
              M33.042,12.329c0-3.008,1.485-4.514,4.458-4.514s4.457,1.504,4.457,4.514 c0,2.971-1.486,4.457-4.457,4.457S33.042,15.3,33.042,12.329z"/>
  </g></g>
</g>
</g>
</svg>
