<svg version="1.1" xmlns="http://www.w3.org/2000/svg" xmlns:xlink="http://www.w3.org/1999/xlink" width="100%" height="100%" viewBox="0 0 1200.000 674.916">
<title>Annual energy consumption in Malaysia, 2000–2021</title>
<style type="text/css">
  #main {font-family:Helvetica,Arial,sans-serif; font-size:27.00px;
         fill-opacity:1; fill:#000000; stroke:none; stroke-linejoin:round; stroke-linecap:round; stroke-width:1.00;}
  .marker {stroke-opacity:0;fill-opacity:0;}
  .marker:hover {stroke-opacity:0.5; fill-opacity:1;}
  .ticklabel {font-size:27.00px;fill:#808080;stroke:none}
  .ytl {text-anchor:end;}
  .xtl {text-anchor:middle;}
  .dp1 {pointer-events:none;font-size:70%;text-anchor:middle;fill:#000000;}
  .dp2 {pointer-events:none;font-size:70%;text-anchor:middle;fill:#FFFFFF;}
  .numtip {pointer-events:none;}
  .cc {opacity:0.25;}
.dl_fe {background-color:#FDFFDF;display:flex;margin:auto;align-items:center}
.dl_fe_p {font-size:20px;text-align:center;margin:3px}
.dl_el {display:none;pointer-events:none;}
.cc:hover + .dl_el {display:block;}
text:hover + .dl_el {display:block;}
</style>
<defs>
  <clipPath id="axis_clip"><rect x="145.8" y="54.2" width="761.2" height="532.8" /></clipPath>
  <path id="line_x" d="M 145.600,0 h 761.600" stroke="#262626" stroke-opacity="0.15" stroke-width="1.00"/>
  <path id="tick_y" d="M 145.600,0 h -6.000" stroke="#808080" stroke-width="0.90"/>
  <path id="tick_x" d="M 0,587.177 v 6.000" stroke="#808080" stroke-width="0.90"/>
</defs>
<g id="main">
<use xlink:href="#line_x" transform="translate(0,587.2)"/>
<use xlink:href="#line_x" transform="translate(0,453.9)"/>
<use xlink:href="#line_x" transform="translate(0,320.6)"/>
<use xlink:href="#line_x" transform="translate(0,187.3)"/>
<use xlink:href="#line_x" transform="translate(0,54.0)"/>
<use xlink:href="#tick_y" transform="translate(0,587.2)"/>
<use xlink:href="#tick_y" transform="translate(0,453.9)"/>
<use xlink:href="#tick_y" transform="translate(0,320.6)"/>
<use xlink:href="#tick_y" transform="translate(0,187.3)"/>
<use xlink:href="#tick_y" transform="translate(0,54.0)"/>
<use xlink:href="#tick_x" transform="translate(209.1,0)"/>
<use xlink:href="#tick_x" transform="translate(336.0,0)"/>
<use xlink:href="#tick_x" transform="translate(462.9,0)"/>
<use xlink:href="#tick_x" transform="translate(589.9,0)"/>
<use xlink:href="#tick_x" transform="translate(716.8,0)"/>
<use xlink:href="#tick_x" transform="translate(843.7,0)"/>
<polyline points="145.6,53.993 145.6,587.177 907.2,587.177" stroke="#808080" stroke-width="0.90" fill="none"/>
<text class="ticklabel ytl" transform="translate(128.8,595.3)">0</text>
<text class="ticklabel ytl" transform="translate(128.8,462.0)">0.5</text>
<text class="ticklabel ytl" transform="translate(128.8,328.7)">1.0</text>
<text class="ticklabel ytl" transform="translate(128.8,195.4)">1.5</text>
<text class="ticklabel ytl" transform="translate(128.8,62.1)">2.0 EJ</text>
<g stroke="#262626" stroke-width="0.9000"  clip-path="url(#axis_clip)">
  <polygon points="158.3,587.2 158.3,559.4 162.9,559.4 162.9,587.2" fill="#FFEFE6"/>
  <polygon points="285.2,587.2 285.2,325.8 289.8,325.8 289.8,587.2" fill="#FFE6E6"/>
  <polygon points="412.2,587.2 412.2,311.2 416.8,311.2 416.8,587.2" fill="#E6F3FF"/>
  <polygon points="539.1,587.2 539.1,587.2 543.7,587.2 543.7,587.2" fill="#FFEDE6"/>
  <polygon points="666.0,587.2 666.0,567.3 670.6,567.3 670.6,587.2" fill="#E6EDFF"/>
  <polygon points="793.0,587.2 793.0,585.4 797.6,585.4 797.6,587.2" fill="#E6FFF7"/>
</g>
<g stroke="#262626" stroke-width="0.9000"  clip-path="url(#axis_clip)">
  <polygon points="162.9,587.2 162.9,554.0 167.5,554.0 167.5,587.2" fill="#F9E6DB"/>
  <polygon points="289.8,587.2 289.8,304.4 294.5,304.4 294.5,587.2" fill="#F6DEDE"/>
  <polygon points="416.8,587.2 416.8,321.2 421.4,321.2 421.4,587.2" fill="#DEEEFC"/>
  <polygon points="543.7,587.2 543.7,587.2 548.3,587.2 548.3,587.2" fill="#FFE8DF"/>
  <polygon points="670.6,587.2 670.6,570.1 675.3,570.1 675.3,587.2" fill="#E1E9FD"/>
  <polygon points="797.6,587.2 797.6,585.4 802.2,585.4 802.2,587.2" fill="#DEFCF3"/>
</g>
<g stroke="#262626" stroke-width="0.9000"  clip-path="url(#axis_clip)">
  <polygon points="167.5,587.2 167.5,546.6 172.1,546.6 172.1,587.2" fill="#F2DED1"/>
  <polygon points="294.5,587.2 294.5,281.2 299.1,281.2 299.1,587.2" fill="#EDD7D7"/>
  <polygon points="421.4,587.2 421.4,317.6 426.0,317.6 426.0,587.2" fill="#D7EAFA"/>
  <polygon points="548.3,587.2 548.3,587.2 552.9,587.2 552.9,587.2" fill="#FFE3D9"/>
  <polygon points="675.3,587.2 675.3,572.0 679.9,572.0 679.9,587.2" fill="#DCE5FA"/>
  <polygon points="802.2,587.2 802.2,585.9 806.8,585.9 806.8,587.2" fill="#D7F9EF"/>
</g>
<g stroke="#262626" stroke-width="0.9000"  clip-path="url(#axis_clip)">
  <polygon points="172.1,587.2 172.1,527.9 176.8,527.9 176.8,587.2" fill="#ECD5C7"/>
  <polygon points="299.1,587.2 299.1,267.0 303.7,267.0 303.7,587.2" fill="#E4D0D0"/>
  <polygon points="426.0,587.2 426.0,296.7 430.6,296.7 430.6,587.2" fill="#D0E5F7"/>
  <polygon points="552.9,587.2 552.9,587.2 557.6,587.2 557.6,587.2" fill="#FFDFD3"/>
  <polygon points="679.9,587.2 679.9,573.0 684.5,573.0 684.5,587.2" fill="#D8E1F8"/>
  <polygon points="806.8,587.2 806.8,585.9 811.4,585.9 811.4,587.2" fill="#D0F6EA"/>
</g>
<g stroke="#262626" stroke-width="0.9000"  clip-path="url(#axis_clip)">
  <polygon points="176.8,587.2 176.8,513.2 181.4,513.2 181.4,587.2" fill="#E6CDBE"/>
  <polygon points="303.7,587.2 303.7,251.6 308.3,251.6 308.3,587.2" fill="#DBC9C9"/>
  <polygon points="430.6,587.2 430.6,273.4 435.2,273.4 435.2,587.2" fill="#C9E0F4"/>
  <polygon points="557.6,587.2 557.6,587.2 562.2,587.2 562.2,587.2" fill="#FEDACC"/>
  <polygon points="684.5,587.2 684.5,571.8 689.1,571.8 689.1,587.2" fill="#D3DDF5"/>
  <polygon points="811.4,587.2 811.4,585.4 816.0,585.4 816.0,587.2" fill="#CAF3E6"/>
</g>
<g stroke="#262626" stroke-width="0.9000"  clip-path="url(#axis_clip)">
  <polygon points="181.4,587.2 181.4,510.3 186.0,510.3 186.0,587.2" fill="#E0C5B4"/>
  <polygon points="308.3,587.2 308.3,239.6 312.9,239.6 312.9,587.2" fill="#D2C2C2"/>
  <polygon points="435.2,587.2 435.2,228.5 439.9,228.5 439.9,587.2" fill="#C2DCF1"/>
  <polygon points="562.2,587.2 562.2,587.2 566.8,587.2 566.8,587.2" fill="#FED6C6"/>
  <polygon points="689.1,587.2 689.1,570.7 693.7,570.7 693.7,587.2" fill="#CEDAF3"/>
  <polygon points="816.0,587.2 816.0,585.4 820.7,585.4 820.7,587.2" fill="#C3F0E2"/>
</g>
<g stroke="#262626" stroke-width="0.9000"  clip-path="url(#axis_clip)">
  <polygon points="186.0,587.2 186.0,505.8 190.6,505.8 190.6,587.2" fill="#D9BCAB"/>
  <polygon points="312.9,587.2 312.9,250.1 317.5,250.1 317.5,587.2" fill="#C8BABA"/>
  <polygon points="439.9,587.2 439.9,214.2 444.5,214.2 444.5,587.2" fill="#BBD7EF"/>
  <polygon points="566.8,587.2 566.8,587.2 571.4,587.2 571.4,587.2" fill="#FED1C0"/>
  <polygon points="693.7,587.2 693.7,569.9 698.3,569.9 698.3,587.2" fill="#CAD6F0"/>
  <polygon points="820.7,587.2 820.7,585.2 825.3,585.2 825.3,587.2" fill="#BCEEDE"/>
</g>
<g stroke="#262626" stroke-width="0.9000"  clip-path="url(#axis_clip)">
  <polygon points="190.6,587.2 190.6,488.5 195.2,488.5 195.2,587.2" fill="#D3B5A2"/>
  <polygon points="317.5,587.2 317.5,227.6 322.2,227.6 322.2,587.2" fill="#BFB3B3"/>
  <polygon points="444.5,587.2 444.5,199.4 449.1,199.4 449.1,587.2" fill="#B5D2EC"/>
  <polygon points="571.4,587.2 571.4,587.2 576.0,587.2 576.0,587.2" fill="#FECDB9"/>
  <polygon points="698.3,587.2 698.3,571.0 703.0,571.0 703.0,587.2" fill="#C6D2EE"/>
  <polygon points="825.3,587.2 825.3,584.5 829.9,584.5 829.9,587.2" fill="#B6EBDA"/>
</g>
<g stroke="#262626" stroke-width="0.9000"  clip-path="url(#axis_clip)">
  <polygon points="195.2,587.2 195.2,478.1 199.8,478.1 199.8,587.2" fill="#CDAD99"/>
  <polygon points="322.2,587.2 322.2,243.0 326.8,243.0 326.8,587.2" fill="#B6ABAB"/>
  <polygon points="449.1,587.2 449.1,169.2 453.7,169.2 453.7,587.2" fill="#AECEE9"/>
  <polygon points="576.0,587.2 576.0,587.2 580.6,587.2 580.6,587.2" fill="#FEC8B3"/>
  <polygon points="703.0,587.2 703.0,566.1 707.6,566.1 707.6,587.2" fill="#C1CEEB"/>
  <polygon points="829.9,587.2 829.9,584.3 834.5,584.3 834.5,587.2" fill="#B0E8D6"/>
</g>
<g stroke="#262626" stroke-width="0.9000"  clip-path="url(#axis_clip)">
  <polygon points="199.8,587.2 199.8,468.7 204.5,468.7 204.5,587.2" fill="#C6A591"/>
  <polygon points="326.8,587.2 326.8,245.7 331.4,245.7 331.4,587.2" fill="#ADA3A3"/>
  <polygon points="453.7,587.2 453.7,203.1 458.3,203.1 458.3,587.2" fill="#A7CAE7"/>
  <polygon points="580.6,587.2 580.6,587.2 585.3,587.2 585.3,587.2" fill="#FEC3AD"/>
  <polygon points="707.6,587.2 707.6,568.7 712.2,568.7 712.2,587.2" fill="#BDCAE9"/>
  <polygon points="834.5,587.2 834.5,582.9 839.1,582.9 839.1,587.2" fill="#A9E5D2"/>
</g>
<g stroke="#262626" stroke-width="0.9000"  clip-path="url(#axis_clip)">
  <polygon points="204.5,587.2 204.5,422.4 209.1,422.4 209.1,587.2" fill="#C09E89"/>
  <polygon points="331.4,587.2 331.4,242.7 336.0,242.7 336.0,587.2" fill="#A49B9B"/>
  <polygon points="458.3,587.2 458.3,222.3 462.9,222.3 462.9,587.2" fill="#A1C5E4"/>
  <polygon points="585.3,587.2 585.3,587.2 589.9,587.2 589.9,587.2" fill="#FEBFA6"/>
  <polygon points="712.2,587.2 712.2,570.2 716.8,570.2 716.8,587.2" fill="#B9C7E6"/>
  <polygon points="839.1,587.2 839.1,583.3 843.7,583.3 843.7,587.2" fill="#A3E2CE"/>
</g>
<g stroke="#262626" stroke-width="0.9000"  clip-path="url(#axis_clip)">
  <polygon points="209.1,587.2 209.1,422.4 213.7,422.4 213.7,587.2" fill="#BA9681"/>
  <polygon points="336.0,587.2 336.0,235.3 340.6,235.3 340.6,587.2" fill="#9B9494"/>
  <polygon points="462.9,587.2 462.9,219.4 467.5,219.4 467.5,587.2" fill="#9BC1E1"/>
  <polygon points="589.9,587.2 589.9,587.2 594.5,587.2 594.5,587.2" fill="#FDBAA0"/>
  <polygon points="716.8,587.2 716.8,565.8 721.4,565.8 721.4,587.2" fill="#B4C3E4"/>
  <polygon points="843.7,587.2 843.7,582.2 848.3,582.2 848.3,587.2" fill="#9DDFCA"/>
</g>
<g stroke="#262626" stroke-width="0.9000"  clip-path="url(#axis_clip)">
  <polygon points="213.7,587.2 213.7,410.0 218.3,410.0 218.3,587.2" fill="#B48F79"/>
  <polygon points="340.6,587.2 340.6,201.5 345.2,201.5 345.2,587.2" fill="#928C8C"/>
  <polygon points="467.5,587.2 467.5,183.9 472.2,183.9 472.2,587.2" fill="#95BDDE"/>
  <polygon points="594.5,587.2 594.5,587.2 599.1,587.2 599.1,587.2" fill="#FDB69A"/>
  <polygon points="721.4,587.2 721.4,562.8 726.0,562.8 726.0,587.2" fill="#B0BFE1"/>
  <polygon points="848.3,587.2 848.3,581.3 853.0,581.3 853.0,587.2" fill="#97DCC6"/>
</g>
<g stroke="#262626" stroke-width="0.9000"  clip-path="url(#axis_clip)">
  <polygon points="218.3,587.2 218.3,419.1 222.9,419.1 222.9,587.2" fill="#AD8871"/>
  <polygon points="345.2,587.2 345.2,177.0 349.8,177.0 349.8,587.2" fill="#898484"/>
  <polygon points="472.2,587.2 472.2,159.5 476.8,159.5 476.8,587.2" fill="#8FB8DC"/>
  <polygon points="599.1,587.2 599.1,587.2 603.7,587.2 603.7,587.2" fill="#FDB194"/>
  <polygon points="726.0,587.2 726.0,556.3 730.6,556.3 730.6,587.2" fill="#ACBCDF"/>
  <polygon points="853.0,587.2 853.0,581.3 857.6,581.3 857.6,587.2" fill="#91D9C3"/>
</g>
<g stroke="#262626" stroke-width="0.9000"  clip-path="url(#axis_clip)">
  <polygon points="222.9,587.2 222.9,415.9 227.5,415.9 227.5,587.2" fill="#A7816A"/>
  <polygon points="349.8,587.2 349.8,175.3 354.5,175.3 354.5,587.2" fill="#807B7B"/>
  <polygon points="476.8,587.2 476.8,158.1 481.4,158.1 481.4,587.2" fill="#89B4D9"/>
  <polygon points="603.7,587.2 603.7,587.2 608.3,587.2 608.3,587.2" fill="#FDAD8D"/>
  <polygon points="730.6,587.2 730.6,552.4 735.3,552.4 735.3,587.2" fill="#A8B8DC"/>
  <polygon points="857.6,587.2 857.6,581.1 862.2,581.1 862.2,587.2" fill="#8BD6BF"/>
</g>
<g stroke="#262626" stroke-width="0.9000"  clip-path="url(#axis_clip)">
  <polygon points="227.5,587.2 227.5,393.0 232.1,393.0 232.1,587.2" fill="#A17A63"/>
  <polygon points="354.5,587.2 354.5,204.7 359.1,204.7 359.1,587.2" fill="#777373"/>
  <polygon points="481.4,587.2 481.4,137.6 486.0,137.6 486.0,587.2" fill="#83B0D6"/>
  <polygon points="608.3,587.2 608.3,587.2 612.9,587.2 612.9,587.2" fill="#FDA887"/>
  <polygon points="735.3,587.2 735.3,551.2 739.9,551.2 739.9,587.2" fill="#A4B5DA"/>
  <polygon points="862.2,587.2 862.2,579.8 866.8,579.8 866.8,587.2" fill="#86D3BB"/>
</g>
<g stroke="#262626" stroke-width="0.9000"  clip-path="url(#axis_clip)">
  <polygon points="232.1,587.2 232.1,378.1 236.8,378.1 236.8,587.2" fill="#9A745C"/>
  <polygon points="359.1,587.2 359.1,161.4 363.7,161.4 363.7,587.2" fill="#6D6B6B"/>
  <polygon points="486.0,587.2 486.0,155.4 490.6,155.4 490.6,587.2" fill="#7DACD4"/>
  <polygon points="612.9,587.2 612.9,587.2 617.6,587.2 617.6,587.2" fill="#FDA481"/>
  <polygon points="739.9,587.2 739.9,535.7 744.5,535.7 744.5,587.2" fill="#A0B1D7"/>
  <polygon points="866.8,587.2 866.8,579.7 871.4,579.7 871.4,587.2" fill="#80D1B7"/>
</g>
<g stroke="#262626" stroke-width="0.9000"  clip-path="url(#axis_clip)">
  <polygon points="236.8,587.2 236.8,355.5 241.4,355.5 241.4,587.2" fill="#946D56"/>
  <polygon points="363.7,587.2 363.7,186.6 368.3,186.6 368.3,587.2" fill="#646262"/>
  <polygon points="490.6,587.2 490.6,154.9 495.2,154.9 495.2,587.2" fill="#77A8D1"/>
  <polygon points="617.6,587.2 617.6,587.2 622.2,587.2 622.2,587.2" fill="#FD9F7B"/>
  <polygon points="744.5,587.2 744.5,518.6 749.1,518.6 749.1,587.2" fill="#9CAED5"/>
  <polygon points="871.4,587.2 871.4,579.8 876.0,579.8 876.0,587.2" fill="#7BCEB4"/>
</g>
<g stroke="#262626" stroke-width="0.9000"  clip-path="url(#axis_clip)">
  <polygon points="241.4,587.2 241.4,338.7 246.0,338.7 246.0,587.2" fill="#8E6750"/>
  <polygon points="368.3,587.2 368.3,181.2 372.9,181.2 372.9,587.2" fill="#5B5A5A"/>
  <polygon points="495.2,587.2 495.2,158.4 499.9,158.4 499.9,587.2" fill="#72A4CE"/>
  <polygon points="622.2,587.2 622.2,587.2 626.8,587.2 626.8,587.2" fill="#FC9B75"/>
  <polygon points="749.1,587.2 749.1,520.3 753.7,520.3 753.7,587.2" fill="#98AAD2"/>
  <polygon points="876.0,587.2 876.0,576.6 880.7,576.6 880.7,587.2" fill="#75CBB0"/>
</g>
<g stroke="#262626" stroke-width="0.9000"  clip-path="url(#axis_clip)">
  <polygon points="246.0,587.2 246.0,352.3 250.6,352.3 250.6,587.2" fill="#886149"/>
  <polygon points="372.9,587.2 372.9,145.3 377.5,145.3 377.5,587.2" fill="#525151"/>
  <polygon points="499.9,587.2 499.9,153.2 504.5,153.2 504.5,587.2" fill="#6DA0CB"/>
  <polygon points="626.8,587.2 626.8,587.2 631.4,587.2 631.4,587.2" fill="#FC966E"/>
  <polygon points="753.7,587.2 753.7,520.9 758.3,520.9 758.3,587.2" fill="#95A7D0"/>
  <polygon points="880.7,587.2 880.7,572.6 885.3,572.6 885.3,587.2" fill="#70C8AC"/>
</g>
<g stroke="#262626" stroke-width="0.9000"  clip-path="url(#axis_clip)">
  <polygon points="250.6,587.2 250.6,326.1 255.2,326.1 255.2,587.2" fill="#815B44"/>
  <polygon points="377.5,587.2 377.5,206.5 382.2,206.5 382.2,587.2" fill="#494949"/>
  <polygon points="504.5,587.2 504.5,219.4 509.1,219.4 509.1,587.2" fill="#679CC9"/>
  <polygon points="631.4,587.2 631.4,587.2 636.0,587.2 636.0,587.2" fill="#FC9268"/>
  <polygon points="758.3,587.2 758.3,516.8 763.0,516.8 763.0,587.2" fill="#91A3CD"/>
  <polygon points="885.3,587.2 885.3,573.4 889.9,573.4 889.9,587.2" fill="#6BC5A9"/>
</g>
<g stroke="#262626" stroke-width="0.9000"  clip-path="url(#axis_clip)">
  <polygon points="255.2,587.2 255.2,350.3 259.8,350.3 259.8,587.2" fill="#7B553E"/>
  <polygon points="382.2,587.2 382.2,199.0 386.8,199.0 386.8,587.2" fill="#404040"/>
  <polygon points="509.1,587.2 509.1,193.0 513.7,193.0 513.7,587.2" fill="#6298C6"/>
  <polygon points="636.0,587.2 636.0,587.2 640.6,587.2 640.6,587.2" fill="#FC8D62"/>
  <polygon points="763.0,587.2 763.0,505.9 767.6,505.9 767.6,587.2" fill="#8DA0CB"/>
  <polygon points="889.9,587.2 889.9,570.4 894.5,570.4 894.5,587.2" fill="#66C2A5"/>
</g>
<text transform="translate(209.1,600.7)" dy="21.6" font-size="21.60" fill="#808080" stroke="none" text-anchor="middle">Coal</text>
<text transform="translate(336.0,600.7)" dy="21.6" font-size="21.60" fill="#808080" stroke="none" text-anchor="middle">Oil</text>
<text transform="translate(462.9,600.7)" dy="21.6" font-size="21.60" fill="#808080" stroke="none" text-anchor="middle">Gas</text>
<text transform="translate(589.9,600.7)" dy="21.6" font-size="21.60" fill="#808080" stroke="none" text-anchor="middle">Nuclear</text>
<text transform="translate(716.8,600.7)" dy="21.6" font-size="21.60" fill="#808080" stroke="none" text-anchor="middle">Hydro</text>
<text transform="translate(843.7,600.7)"  font-size="21.60" fill="#808080" stroke="none" text-anchor="middle">
      <tspan x="0" y="18.0">Other</tspan><tspan x="0" y="42.2">Renewables</tspan>
    </text>
<polyline class="pl" points="232.1,319.3 232.1,312.6 259.8,312.6 259.8,319.3" stroke="#808080" stroke-width="0.90" stroke-opacity="1.00" fill="none" clip-path="url(#axis_clip)"/>
<text transform="translate(259.8,302.5)" dy="0.0" font-size="21.60" fill="#808080" stroke="none" text-anchor="end">+2.6%/yr</text>
<polyline class="pl" points="359.1,138.6 359.1,131.8 386.8,131.8 386.8,138.6" stroke="#808080" stroke-width="0.90" stroke-opacity="1.00" fill="none" clip-path="url(#axis_clip)"/>
<text transform="translate(386.8,121.7)" dy="0.0" font-size="21.60" fill="#808080" stroke="none" text-anchor="end">-1.5%/yr</text>
<polyline class="pl" points="486.0,130.9 486.0,124.1 513.7,124.1 513.7,130.9" stroke="#808080" stroke-width="0.90" stroke-opacity="1.00" fill="none" clip-path="url(#axis_clip)"/>
<text transform="translate(513.7,114.0)" dy="0.0" font-size="21.60" fill="#808080" stroke="none" text-anchor="end">-2.7%/yr</text>
<polyline class="pl" points="612.9,580.4 612.9,573.7 640.6,573.7 640.6,580.4" stroke="#808080" stroke-width="0.90" stroke-opacity="1.00" fill="none" clip-path="url(#axis_clip)"/>
<text transform="translate(640.6,563.6)" dy="0.0" font-size="21.60" fill="#808080" stroke="none" text-anchor="end">No Data</text>
<polyline class="pl" points="739.9,499.2 739.9,492.4 767.6,492.4 767.6,499.2" stroke="#808080" stroke-width="0.90" stroke-opacity="1.00" fill="none" clip-path="url(#axis_clip)"/>
<text transform="translate(767.6,482.3)" dy="0.0" font-size="21.60" fill="#808080" stroke="none" text-anchor="end">+6.7%/yr</text>
<polyline class="pl" points="866.8,563.6 866.8,556.9 894.5,556.9 894.5,563.6" stroke="#808080" stroke-width="0.90" stroke-opacity="1.00" fill="none" clip-path="url(#axis_clip)"/>
<text transform="translate(894.5,546.7)" dy="0.0" font-size="21.60" fill="#808080" stroke="none" text-anchor="end">+17.8%/yr</text>
<text transform="translate(145.6,47.2)" dy="0.0" font-size="27.00" fill="#808080" stroke="none">Annual energy consumption in Malaysia, 2000&#8211;2021</text>
<text transform="translate(145.6,54.0)" dy="18.0" font-size="18.00" fill="#808080" stroke="none" xml:space="preserve"> Annual growth rates from 2016&#8211;2021</text>
<text transform="translate(161.9,666.1)" font-size="19.80" fill="#BFBFBF" stroke="none" xml:space="preserve">Global Carbon Project   &#9679;   Data: BP</text>
<g>
  <rect x="123.0" y="651.4" width="34" height="17" fill="#FFF" stroke="none"/>
  <g transform="translate(124.0,652.4) scale(0.24)">
  <g><circle fill="#FFF" cx="37.79" cy="28.5" r="28.84"/>
     <circle fill="none" cx="37.79" cy="28.5" r="28.84" stroke="#BFBFBF" stroke-width="5.5"/>
     <path fill="#BFBFBF" d="M37.16,23.19 l-4.29,2.23c-0.458-0.951-1.02-1.62-1.69-2c-0.667-0.38-1.29-0.571-1.86-0.571c-2.86,0-4.29,1.89-4.29,5.66 c0,1.71,0.36,3.08,1.09,4.11c0.724,1.03,1.79,1.54,3.2,1.54c1.87,0,3.18-0.915,3.94-2.74l3.94,2 c-0.838,1.56-2,2.79-3.49,3.69c-1.48,0.896-3.12,1.34-4.91,1.34c-2.86,0-5.16-0.875-6.92-2.63 c-1.75-1.75-2.63-4.19-2.63-7.31c0-3.05,0.886-5.47,2.66-7.26c1.77-1.79,4.01-2.69,6.72-2.69 C32.6,18.56,35.44,20.1,37.16,23.19z
              M55.61,23.19l-4.23,2.23c-0.457-0.951-1.02-1.62-1.69-2 c-0.668-0.38-1.31-0.571-1.91-0.571c-2.86,0-4.29,1.89-4.29,5.66c0,1.71,0.363,3.08,1.09,4.11 c0.723,1.03,1.79,1.54,3.2,1.54c1.87,0,3.18-0.915,3.94-2.74l4,2c-0.875,1.56-2.06,2.79-3.54,3.69 c-1.49,0.9-3.11,1.34-4.86,1.34c-2.9,0-5.21-0.875-6.94-2.63c-1.74-1.75-2.6-4.19-2.6-7.31 c0-3.05,0.885-5.47,2.66-7.26c1.77-1.79,4.01-2.69,6.71-2.69C51.12,18.56,53.944,20.1,55.61,23.19z"/>
  </g></g>
  <g transform="translate(140.2,652.4) scale(0.24)">
  <g><circle fill="#FFF" cx="37.79" cy="28.5" r="28.84"/>
     <circle fill="none" cx="37.79" cy="28.5" r="28.84" stroke="#BFBFBF" stroke-width="5.5"/>
     <path fill="#BFBFBF" d="M46.129,20.557v13.085h-3.656v15.542h-9.944V33.643h-3.656V20.557 c0-0.572,0.2-1.057,0.599-1.457c0.401-0.399,0.887-0.6,1.457-0.6h13.144c0.533,0,1.01,0.2,1.428,0.6 C45.918,19.5,46.129,19.986,46.129,20.557z
              M33.042,12.329c0-3.008,1.485-4.514,4.458-4.514s4.457,1.504,4.457,4.514 c0,2.971-1.486,4.457-4.457,4.457S33.042,15.3,33.042,12.329z"/>
  </g></g>
</g>
</g>
</svg>
