<svg version="1.1" xmlns="http://www.w3.org/2000/svg" xmlns:xlink="http://www.w3.org/1999/xlink" width="100%" height="100%" viewBox="0 0 1200.000 674.916">
<title>Annual Norwegian oil and gas production by field</title>
<style type="text/css">
  #main {font-family:Helvetica,Arial,sans-serif; font-size:27.00px;
         fill-opacity:1; fill:#000000; stroke:none; stroke-linejoin:round; stroke-linecap:round; stroke-width:1.00;}
  a:hover {text-decoration: underline;}
  .marker {stroke-opacity:0;fill-opacity:0;}
  .marker:hover {stroke-opacity:0.5; fill-opacity:1;}
  .ticklabel {font-size:27.00px;fill:#808080;stroke:none;font-family:Helvetica}
  .ytl {text-anchor:end;}
  .dp1 {pointer-events:none;font-size:70%;text-anchor:middle;fill:#000000;}
  .dp2 {pointer-events:none;font-size:70%;text-anchor:middle;fill:#FFFFFF;}
  .numtip {pointer-events:none;}
  .cc {opacity:0.25;}
.dl_fe {background-color:#FDFFDF;display:flex;margin:auto;align-items:center}
.dl_fe_p {font-size:20px;text-align:center;margin:3px}
.dl_el {display:none;pointer-events:none;}
.cc:hover + .dl_el {display:block;}
text:hover + .dl_el {display:block;}
  #areas .pl {transition: all 0.2s ease;}
  #areas:hover .pl {opacity:0.5;}
  #areas:hover .thick {stroke-width:1;}
  #areas:hover .pg_1:hover .pl {opacity:1;}
  #areas:hover .pg_1:hover .pll {stroke-width:3;}
  #areas:hover .pg_1:hover .pldlm {stroke-width:2;}
  #areas:hover .pg_1:hover .thick {stroke-width:12;}
  #areas:hover .pg_2:hover .pl {opacity:1;}
  #areas:hover .pg_2:hover .pll {stroke-width:3;}
  #areas:hover .pg_2:hover .pldlm {stroke-width:2;}
  #areas:hover .pg_2:hover .thick {stroke-width:12;}
  #areas:hover .pg_3:hover .pl {opacity:1;}
  #areas:hover .pg_3:hover .pll {stroke-width:3;}
  #areas:hover .pg_3:hover .pldlm {stroke-width:2;}
  #areas:hover .pg_3:hover .thick {stroke-width:12;}
  #areas:hover .pg_4:hover .pl {opacity:1;}
  #areas:hover .pg_4:hover .pll {stroke-width:3;}
  #areas:hover .pg_4:hover .pldlm {stroke-width:2;}
  #areas:hover .pg_4:hover .thick {stroke-width:12;}
  #areas:hover .pg_5:hover .pl {opacity:1;}
  #areas:hover .pg_5:hover .pll {stroke-width:3;}
  #areas:hover .pg_5:hover .pldlm {stroke-width:2;}
  #areas:hover .pg_5:hover .thick {stroke-width:12;}
  #areas:hover .pg_6:hover .pl {opacity:1;}
  #areas:hover .pg_6:hover .pll {stroke-width:3;}
  #areas:hover .pg_6:hover .pldlm {stroke-width:2;}
  #areas:hover .pg_6:hover .thick {stroke-width:12;}
  #areas:hover .pg_7:hover .pl {opacity:1;}
  #areas:hover .pg_7:hover .pll {stroke-width:3;}
  #areas:hover .pg_7:hover .pldlm {stroke-width:2;}
  #areas:hover .pg_7:hover .thick {stroke-width:12;}
  #areas:hover .pg_8:hover .pl {opacity:1;}
  #areas:hover .pg_8:hover .pll {stroke-width:3;}
  #areas:hover .pg_8:hover .pldlm {stroke-width:2;}
  #areas:hover .pg_8:hover .thick {stroke-width:12;}
  #areas:hover .pg_9:hover .pl {opacity:1;}
  #areas:hover .pg_9:hover .pll {stroke-width:3;}
  #areas:hover .pg_9:hover .pldlm {stroke-width:2;}
  #areas:hover .pg_9:hover .thick {stroke-width:12;}
  #areas:hover .pg_10:hover .pl {opacity:1;}
  #areas:hover .pg_10:hover .pll {stroke-width:3;}
  #areas:hover .pg_10:hover .pldlm {stroke-width:2;}
  #areas:hover .pg_10:hover .thick {stroke-width:12;}
  #areas:hover .pg_11:hover .pl {opacity:1;}
  #areas:hover .pg_11:hover .pll {stroke-width:3;}
  #areas:hover .pg_11:hover .pldlm {stroke-width:2;}
  #areas:hover .pg_11:hover .thick {stroke-width:12;}
  #areas:hover .pg_12:hover .pl {opacity:1;}
  #areas:hover .pg_12:hover .pll {stroke-width:3;}
  #areas:hover .pg_12:hover .pldlm {stroke-width:2;}
  #areas:hover .pg_12:hover .thick {stroke-width:12;}
  #areas:hover .pg_13:hover .pl {opacity:1;}
  #areas:hover .pg_13:hover .pll {stroke-width:3;}
  #areas:hover .pg_13:hover .pldlm {stroke-width:2;}
  #areas:hover .pg_13:hover .thick {stroke-width:12;}
  #areas:hover .pg_14:hover .pl {opacity:1;}
  #areas:hover .pg_14:hover .pll {stroke-width:3;}
  #areas:hover .pg_14:hover .pldlm {stroke-width:2;}
  #areas:hover .pg_14:hover .thick {stroke-width:12;}
  #areas:hover .pg_15:hover .pl {opacity:1;}
  #areas:hover .pg_15:hover .pll {stroke-width:3;}
  #areas:hover .pg_15:hover .pldlm {stroke-width:2;}
  #areas:hover .pg_15:hover .thick {stroke-width:12;}
  #areas:hover .pg_16:hover .pl {opacity:1;}
  #areas:hover .pg_16:hover .pll {stroke-width:3;}
  #areas:hover .pg_16:hover .pldlm {stroke-width:2;}
  #areas:hover .pg_16:hover .thick {stroke-width:12;}
  #areas:hover .pg_17:hover .pl {opacity:1;}
  #areas:hover .pg_17:hover .pll {stroke-width:3;}
  #areas:hover .pg_17:hover .pldlm {stroke-width:2;}
  #areas:hover .pg_17:hover .thick {stroke-width:12;}
  #areas:hover .pg_18:hover .pl {opacity:1;}
  #areas:hover .pg_18:hover .pll {stroke-width:3;}
  #areas:hover .pg_18:hover .pldlm {stroke-width:2;}
  #areas:hover .pg_18:hover .thick {stroke-width:12;}
  #areas:hover .pg_19:hover .pl {opacity:1;}
  #areas:hover .pg_19:hover .pll {stroke-width:3;}
  #areas:hover .pg_19:hover .pldlm {stroke-width:2;}
  #areas:hover .pg_19:hover .thick {stroke-width:12;}
  #areas:hover .pg_20:hover .pl {opacity:1;}
  #areas:hover .pg_20:hover .pll {stroke-width:3;}
  #areas:hover .pg_20:hover .pldlm {stroke-width:2;}
  #areas:hover .pg_20:hover .thick {stroke-width:12;}
  #areas:hover .pg_21:hover .pl {opacity:1;}
  #areas:hover .pg_21:hover .pll {stroke-width:3;}
  #areas:hover .pg_21:hover .pldlm {stroke-width:2;}
  #areas:hover .pg_21:hover .thick {stroke-width:12;}
</style>
<defs>
  <clipPath id="axis_clip"><rect x="145.8" y="54.2" width="761.2" height="532.8" /></clipPath>
  <path id="line_x" d="M 145.600,0 h 761.600" stroke="#262626" stroke-opacity="0.15" stroke-width="1.00"/>
  <path id="tick_y" d="M 145.600,0 h -6.000" stroke="#808080" stroke-width="0.90"/>
  <path id="tick_x" d="M 0,587.177 v 6.000" stroke="#808080" stroke-width="0.90"/>
</defs>
<g id="main">
<use xlink:href="#line_x" transform="translate(0,587.2)"/>
<use xlink:href="#line_x" transform="translate(0,498.3)"/>
<use xlink:href="#line_x" transform="translate(0,409.4)"/>
<use xlink:href="#line_x" transform="translate(0,320.6)"/>
<use xlink:href="#line_x" transform="translate(0,231.7)"/>
<use xlink:href="#line_x" transform="translate(0,142.9)"/>
<use xlink:href="#line_x" transform="translate(0,54.0)"/>
<use xlink:href="#tick_y" transform="translate(0,587.2)"/>
<use xlink:href="#tick_y" transform="translate(0,498.3)"/>
<use xlink:href="#tick_y" transform="translate(0,409.4)"/>
<use xlink:href="#tick_y" transform="translate(0,320.6)"/>
<use xlink:href="#tick_y" transform="translate(0,231.7)"/>
<use xlink:href="#tick_y" transform="translate(0,142.9)"/>
<use xlink:href="#tick_y" transform="translate(0,54.0)"/>
<use xlink:href="#tick_x" transform="translate(145.6,0)"/>
<use xlink:href="#tick_x" transform="translate(284.1,0)"/>
<use xlink:href="#tick_x" transform="translate(422.5,0)"/>
<use xlink:href="#tick_x" transform="translate(561.0,0)"/>
<use xlink:href="#tick_x" transform="translate(699.5,0)"/>
<use xlink:href="#tick_x" transform="translate(838.0,0)"/>
<use xlink:href="#tick_x" transform="translate(907.2,0)"/>
<polyline points="145.6,53.993 145.6,587.177 907.2,587.177" stroke="#808080" stroke-width="0.90" fill="none"/>
<text class="ticklabel xtl" transform="translate(145.6,629.0)" text-anchor="middle">1970</text>
<text class="ticklabel xtl" transform="translate(284.1,629.0)" text-anchor="middle">1980</text>
<text class="ticklabel xtl" transform="translate(422.5,629.0)" text-anchor="middle">1990</text>
<text class="ticklabel xtl" transform="translate(561.0,629.0)" text-anchor="middle">2000</text>
<text class="ticklabel xtl" transform="translate(699.5,629.0)" text-anchor="middle">2010</text>
<text class="ticklabel xtl" transform="translate(838.0,629.0)" text-anchor="middle">2020</text>
<text class="ticklabel xtl" transform="translate(907.2,629.0)" text-anchor="middle">25</text>
<text class="ticklabel ytl" transform="translate(128.8,595.3)">0</text>
<text class="ticklabel ytl" transform="translate(128.8,506.4)">50</text>
<text class="ticklabel ytl" transform="translate(128.8,417.5)">100</text>
<text class="ticklabel ytl" transform="translate(128.8,328.7)">150</text>
<text class="ticklabel ytl" transform="translate(128.8,239.8)">200</text>
<text class="ticklabel ytl" transform="translate(128.8,151.0)">250</text>
<text class="ticklabel ytl" transform="translate(128.8,62.1)">300 million</text>
<g id="areas">
  <g class="pg_21">
    <polygon class="pl" points="173.3,583.8 187.1,583.9 201.0,583.6 214.8,567.6 228.7,558.3 242.5,552.9 256.4,525.2 270.2,508.4 284.1,488.0 297.9,490.0 311.8,489.7 325.6,477.0 339.5,463.2 353.3,455.7 367.2,447.2 381.0,428.5 394.9,413.1 408.7,374.5 422.5,364.9 436.4,341.0 450.2,312.0 464.1,298.1 477.9,262.6 491.8,239.3 505.6,187.4 519.5,174.3 533.3,186.6 547.2,179.0 561.0,154.2 574.9,140.2 588.7,128.0 602.6,122.1 616.4,117.3 630.3,129.1 644.1,143.6 657.9,163.6 671.8,154.3 685.6,159.5 699.5,176.4 713.3,196.8 727.2,185.0 741.0,204.4 754.9,200.1 768.7,178.5 782.6,173.2 796.4,162.2 810.3,179.0 824.1,200.7 838.0,180.1 851.8,173.1 865.7,170.0 879.5,170.3 893.4,155.9 907.2,159.8 907.2,321.3 893.4,306.2 879.5,317.9 865.7,325.2 851.8,318.1 838.0,323.8 824.1,352.7 810.3,332.6 796.4,325.2 782.6,333.2 768.7,328.7 754.9,334.5 741.0,322.9 727.2,296.9 713.3,310.5 699.5,285.7 685.6,275.2 671.8,266.7 657.9,272.0 644.1,251.9 630.3,235.4 616.4,230.3 602.6,232.3 588.7,224.3 574.9,241.5 561.0,253.0 547.2,264.6 533.3,266.2 519.5,257.3 505.6,271.0 491.8,315.4 477.9,326.9 464.1,353.8 450.2,366.7 436.4,395.5 422.5,410.7 408.7,411.9 394.9,447.6 381.0,461.6 367.2,473.2 353.3,480.5 339.5,486.9 325.6,495.2 311.8,510.7 297.9,512.3 284.1,516.7 270.2,533.7 256.4,542.9 242.5,554.7 228.7,558.3 214.8,567.6 201.0,583.6 187.1,583.9 173.3,583.8" stroke="#FFF" stroke-width="0.9000"  fill="#CCC" clip-path="url(#axis_clip)"/>
  </g>
  <g class="pg_20">
    <polygon class="pl" points="173.3,583.8 187.1,583.9 201.0,583.6 214.8,567.6 228.7,558.3 242.5,554.7 256.4,542.9 270.2,533.7 284.1,516.7 297.9,512.3 311.8,510.7 325.6,495.2 339.5,486.9 353.3,480.5 367.2,473.2 381.0,461.6 394.9,447.6 408.7,411.9 422.5,410.7 436.4,395.5 450.2,366.7 464.1,353.8 477.9,326.9 491.8,315.4 505.6,271.0 519.5,257.3 533.3,266.2 547.2,264.6 561.0,253.0 574.9,241.5 588.7,224.3 602.6,232.3 616.4,230.3 630.3,235.4 644.1,251.9 657.9,272.0 671.8,266.7 685.6,275.2 699.5,285.7 713.3,310.5 727.2,296.9 741.0,322.9 754.9,334.5 768.7,328.7 782.6,333.2 796.4,325.2 810.3,332.6 824.1,352.7 838.0,323.8 851.8,318.1 865.7,325.2 879.5,317.9 893.4,306.2 907.2,321.3 907.2,329.8 893.4,319.6 879.5,330.2 865.7,333.0 851.8,318.1 838.0,331.9 824.1,366.2 810.3,346.7 796.4,337.4 782.6,346.5 768.7,341.9 754.9,346.0 741.0,332.5 727.2,307.3 713.3,320.1 699.5,296.9 685.6,282.8 671.8,272.2 657.9,272.5 644.1,251.9 630.3,235.4 616.4,230.3 602.6,232.3 588.7,224.3 574.9,241.5 561.0,253.0 547.2,264.6 533.3,266.2 519.5,257.3 505.6,271.0 491.8,315.4 477.9,326.9 464.1,353.8 450.2,366.7 436.4,395.5 422.5,410.7 408.7,411.9 394.9,447.6 381.0,461.6 367.2,473.2 353.3,480.5 339.5,486.9 325.6,495.2 311.8,510.7 297.9,512.3 284.1,516.7 270.2,533.7 256.4,542.9 242.5,554.7 228.7,558.3 214.8,567.6 201.0,583.6 187.1,583.9 173.3,583.8" stroke="#FFF" stroke-width="0.9000"  fill="#786592" clip-path="url(#axis_clip)"/>
  </g>
  <g class="pg_19">
    <polygon class="pl" points="173.3,583.8 187.1,583.9 201.0,583.6 214.8,567.6 228.7,558.3 242.5,554.7 256.4,542.9 270.2,533.7 284.1,516.7 297.9,512.3 311.8,510.7 325.6,495.2 339.5,486.9 353.3,480.5 367.2,473.2 381.0,461.6 394.9,447.6 408.7,411.9 422.5,410.7 436.4,395.5 450.2,366.7 464.1,353.8 477.9,326.9 491.8,315.4 505.6,271.0 519.5,257.3 533.3,266.2 547.2,264.6 561.0,253.0 574.9,241.5 588.7,224.3 602.6,232.3 616.4,230.3 630.3,235.4 644.1,251.9 657.9,272.5 671.8,272.2 685.6,282.8 699.5,296.9 713.3,320.1 727.2,307.3 741.0,332.5 754.9,346.0 768.7,341.9 782.6,346.5 796.4,337.4 810.3,346.7 824.1,366.2 838.0,331.9 851.8,318.1 865.7,333.0 879.5,330.2 893.4,319.6 907.2,329.8 907.2,330.5 893.4,320.5 879.5,332.2 865.7,335.6 851.8,320.8 838.0,334.7 824.1,370.2 810.3,348.2 796.4,338.6 782.6,347.5 768.7,343.4 754.9,347.6 741.0,334.2 727.2,309.0 713.3,323.6 699.5,300.7 685.6,287.1 671.8,279.2 657.9,281.2 644.1,261.5 630.3,246.8 616.4,244.9 602.6,249.2 588.7,244.2 574.9,263.9 561.0,271.5 547.2,279.4 533.3,277.5 519.5,258.1 505.6,271.0 491.8,315.4 477.9,326.9 464.1,353.8 450.2,366.7 436.4,395.5 422.5,410.7 408.7,411.9 394.9,447.6 381.0,461.6 367.2,473.2 353.3,480.5 339.5,486.9 325.6,495.2 311.8,510.7 297.9,512.3 284.1,516.7 270.2,533.7 256.4,542.9 242.5,554.7 228.7,558.3 214.8,567.6 201.0,583.6 187.1,583.9 173.3,583.8" stroke="#FFF" stroke-width="0.9000"  fill="#59A4D5" clip-path="url(#axis_clip)"/>
  </g>
  <g class="pg_18">
    <polygon class="pl" points="173.3,583.8 187.1,583.9 201.0,583.6 214.8,567.6 228.7,558.3 242.5,554.7 256.4,542.9 270.2,533.7 284.1,516.7 297.9,512.3 311.8,510.7 325.6,495.2 339.5,486.9 353.3,480.5 367.2,473.2 381.0,461.6 394.9,447.6 408.7,411.9 422.5,410.7 436.4,395.5 450.2,366.7 464.1,353.8 477.9,326.9 491.8,315.4 505.6,271.0 519.5,258.1 533.3,277.5 547.2,279.4 561.0,271.5 574.9,263.9 588.7,244.2 602.6,249.2 616.4,244.9 630.3,246.8 644.1,261.5 657.9,281.2 671.8,279.2 685.6,287.1 699.5,300.7 713.3,323.6 727.2,309.0 741.0,334.2 754.9,347.6 768.7,343.4 782.6,347.5 796.4,338.6 810.3,348.2 824.1,370.2 838.0,334.7 851.8,320.8 865.7,335.6 879.5,332.2 893.4,320.5 907.2,330.5 907.2,330.5 893.4,320.5 879.5,332.2 865.7,335.6 851.8,320.8 838.0,334.7 824.1,370.2 810.3,348.2 796.4,338.6 782.6,347.5 768.7,343.4 754.9,347.6 741.0,334.2 727.2,309.0 713.3,323.6 699.5,300.7 685.6,287.1 671.8,279.2 657.9,281.2 644.1,261.5 630.3,246.8 616.4,246.4 602.6,250.4 588.7,245.5 574.9,265.2 561.0,272.6 547.2,280.0 533.3,278.5 519.5,258.9 505.6,271.7 491.8,316.6 477.9,328.8 464.1,356.2 450.2,369.6 436.4,398.2 422.5,414.9 408.7,421.1 394.9,460.0 381.0,475.4 367.2,487.8 353.3,495.8 339.5,504.9 325.6,514.4 311.8,528.8 297.9,531.8 284.1,534.4 270.2,548.5 256.4,550.8 242.5,556.4 228.7,558.3 214.8,567.6 201.0,583.6 187.1,583.9 173.3,583.8" stroke="#FFF" stroke-width="0.9000"  fill="#4DBEEE" clip-path="url(#axis_clip)"/>
  </g>
  <g class="pg_17">
    <polygon class="pl" points="173.3,583.8 187.1,583.9 201.0,583.6 214.8,567.6 228.7,558.3 242.5,556.4 256.4,550.8 270.2,548.5 284.1,534.4 297.9,531.8 311.8,528.8 325.6,514.4 339.5,504.9 353.3,495.8 367.2,487.8 381.0,475.4 394.9,460.0 408.7,421.1 422.5,414.9 436.4,398.2 450.2,369.6 464.1,356.2 477.9,328.8 491.8,316.6 505.6,271.7 519.5,258.9 533.3,278.5 547.2,280.0 561.0,272.6 574.9,265.2 588.7,245.5 602.6,250.4 616.4,246.4 630.3,246.8 644.1,261.5 657.9,281.2 671.8,279.2 685.6,287.1 699.5,300.7 713.3,323.6 727.2,309.0 741.0,334.2 754.9,347.6 768.7,343.4 782.6,347.5 796.4,338.6 810.3,348.2 824.1,370.2 838.0,334.7 851.8,320.8 865.7,335.6 879.5,332.2 893.4,320.5 907.2,330.5 907.2,333.5 893.4,323.5 879.5,335.9 865.7,339.3 851.8,326.2 838.0,341.8 824.1,379.3 810.3,358.2 796.4,349.0 782.6,355.4 768.7,350.9 754.9,354.9 741.0,344.0 727.2,321.6 713.3,338.0 699.5,317.8 685.6,306.2 671.8,297.0 657.9,302.5 644.1,283.9 630.3,265.1 616.4,259.0 602.6,251.8 588.7,245.5 574.9,265.2 561.0,272.6 547.2,280.0 533.3,278.5 519.5,258.9 505.6,271.8 491.8,316.6 477.9,328.8 464.1,356.2 450.2,369.6 436.4,398.2 422.5,414.9 408.7,421.1 394.9,460.0 381.0,475.4 367.2,487.8 353.3,495.8 339.5,504.9 325.6,514.4 311.8,528.8 297.9,531.8 284.1,534.4 270.2,548.5 256.4,550.8 242.5,556.4 228.7,558.3 214.8,567.6 201.0,583.6 187.1,583.9 173.3,583.8" stroke="#FFF" stroke-width="0.9000"  fill="#53BDD0" clip-path="url(#axis_clip)"/>
  </g>
  <g class="pg_16">
    <polygon class="pl" points="173.3,583.8 187.1,583.9 201.0,583.6 214.8,567.6 228.7,558.3 242.5,556.4 256.4,550.8 270.2,548.5 284.1,534.4 297.9,531.8 311.8,528.8 325.6,514.4 339.5,504.9 353.3,495.8 367.2,487.8 381.0,475.4 394.9,460.0 408.7,421.1 422.5,414.9 436.4,398.2 450.2,369.6 464.1,356.2 477.9,328.8 491.8,316.6 505.6,271.8 519.5,258.9 533.3,278.5 547.2,280.0 561.0,272.6 574.9,265.2 588.7,245.5 602.6,251.8 616.4,259.0 630.3,265.1 644.1,283.9 657.9,302.5 671.8,297.0 685.6,306.2 699.5,317.8 713.3,338.0 727.2,321.6 741.0,344.0 754.9,354.9 768.7,350.9 782.6,355.4 796.4,349.0 810.3,358.2 824.1,379.3 838.0,341.8 851.8,326.2 865.7,339.3 879.5,335.9 893.4,323.5 907.2,333.5 907.2,338.5 893.4,329.4 879.5,341.7 865.7,345.5 851.8,334.1 838.0,351.2 824.1,389.5 810.3,370.3 796.4,363.3 782.6,372.0 768.7,367.6 754.9,372.1 741.0,361.7 727.2,340.1 713.3,355.7 699.5,334.9 685.6,320.8 671.8,305.7 657.9,305.7 644.1,300.4 630.3,277.7 616.4,260.5 602.6,251.8 588.7,245.5 574.9,265.2 561.0,272.6 547.2,280.0 533.3,278.5 519.5,258.9 505.6,271.8 491.8,316.6 477.9,328.8 464.1,356.2 450.2,369.6 436.4,398.2 422.5,414.9 408.7,421.1 394.9,460.0 381.0,475.4 367.2,487.8 353.3,495.8 339.5,504.9 325.6,514.4 311.8,528.8 297.9,531.8 284.1,534.4 270.2,548.5 256.4,550.8 242.5,556.4 228.7,558.3 214.8,567.6 201.0,583.6 187.1,583.9 173.3,583.8" stroke="#FFF" stroke-width="0.9000"  fill="#60B98F" clip-path="url(#axis_clip)"/>
  </g>
  <g class="pg_15">
    <polygon class="pl" points="173.3,583.8 187.1,583.9 201.0,583.6 214.8,567.6 228.7,558.3 242.5,556.4 256.4,550.8 270.2,548.5 284.1,534.4 297.9,531.8 311.8,528.8 325.6,514.4 339.5,504.9 353.3,495.8 367.2,487.8 381.0,475.4 394.9,460.0 408.7,421.1 422.5,414.9 436.4,398.2 450.2,369.6 464.1,356.2 477.9,328.8 491.8,316.6 505.6,271.8 519.5,258.9 533.3,278.5 547.2,280.0 561.0,272.6 574.9,265.2 588.7,245.5 602.6,251.8 616.4,260.5 630.3,277.7 644.1,300.4 657.9,305.7 671.8,305.7 685.6,320.8 699.5,334.9 713.3,355.7 727.2,340.1 741.0,361.7 754.9,372.1 768.7,367.6 782.6,372.0 796.4,363.3 810.3,370.3 824.1,389.5 838.0,351.2 851.8,334.1 865.7,345.5 879.5,341.7 893.4,329.4 907.2,338.5 907.2,340.5 893.4,331.5 879.5,343.3 865.7,347.1 851.8,335.7 838.0,353.0 824.1,391.6 810.3,372.5 796.4,365.8 782.6,374.4 768.7,370.9 754.9,375.6 741.0,364.5 727.2,344.0 713.3,359.9 699.5,339.5 685.6,327.4 671.8,313.6 657.9,313.7 644.1,309.3 630.3,289.5 616.4,275.8 602.6,266.2 588.7,266.7 574.9,288.1 561.0,293.5 547.2,301.5 533.3,298.4 519.5,277.5 505.6,286.8 491.8,329.0 477.9,335.7 464.1,356.5 450.2,369.6 436.4,398.2 422.5,414.9 408.7,421.1 394.9,460.0 381.0,475.4 367.2,487.8 353.3,495.8 339.5,504.9 325.6,514.4 311.8,528.8 297.9,531.8 284.1,534.4 270.2,548.5 256.4,550.8 242.5,556.4 228.7,558.3 214.8,567.6 201.0,583.6 187.1,583.9 173.3,583.8" stroke="#FFF" stroke-width="0.9000"  fill="#6EB34E" clip-path="url(#axis_clip)"/>
  </g>
  <g class="pg_14">
    <polygon class="pl" points="173.3,583.8 187.1,583.9 201.0,583.6 214.8,567.6 228.7,558.3 242.5,556.4 256.4,550.8 270.2,548.5 284.1,534.4 297.9,531.8 311.8,528.8 325.6,514.4 339.5,504.9 353.3,495.8 367.2,487.8 381.0,475.4 394.9,460.0 408.7,421.1 422.5,414.9 436.4,398.2 450.2,369.6 464.1,356.5 477.9,335.7 491.8,329.0 505.6,286.8 519.5,277.5 533.3,298.4 547.2,301.5 561.0,293.5 574.9,288.1 588.7,266.7 602.6,266.2 616.4,275.8 630.3,289.5 644.1,309.3 657.9,313.7 671.8,313.6 685.6,327.4 699.5,339.5 713.3,359.9 727.2,344.0 741.0,364.5 754.9,375.6 768.7,370.9 782.6,374.4 796.4,365.8 810.3,372.5 824.1,391.6 838.0,353.0 851.8,335.7 865.7,347.1 879.5,343.3 893.4,331.5 907.2,340.5 907.2,344.5 893.4,335.9 879.5,347.7 865.7,351.6 851.8,341.0 838.0,358.8 824.1,396.0 810.3,376.5 796.4,369.6 782.6,378.8 768.7,376.2 754.9,380.4 741.0,368.2 727.2,346.1 713.3,363.4 699.5,344.0 685.6,332.2 671.8,319.7 657.9,321.1 644.1,318.2 630.3,300.2 616.4,286.4 602.6,275.0 588.7,276.1 574.9,297.8 561.0,303.6 547.2,313.3 533.3,309.8 519.5,287.7 505.6,296.0 491.8,336.9 477.9,342.8 464.1,364.5 450.2,378.9 436.4,406.7 422.5,424.6 408.7,430.8 394.9,468.4 381.0,483.3 367.2,493.6 353.3,502.1 339.5,511.3 325.6,516.4 311.8,529.0 297.9,531.8 284.1,534.4 270.2,548.5 256.4,550.8 242.5,556.4 228.7,558.3 214.8,567.6 201.0,583.6 187.1,583.9 173.3,583.8" stroke="#FFF" stroke-width="0.9000"  fill="#77AC30" clip-path="url(#axis_clip)"/>
  </g>
  <g class="pg_13">
    <polygon class="pl" points="173.3,583.8 187.1,583.9 201.0,583.6 214.8,567.6 228.7,558.3 242.5,556.4 256.4,550.8 270.2,548.5 284.1,534.4 297.9,531.8 311.8,529.0 325.6,516.4 339.5,511.3 353.3,502.1 367.2,493.6 381.0,483.3 394.9,468.4 408.7,430.8 422.5,424.6 436.4,406.7 450.2,378.9 464.1,364.5 477.9,342.8 491.8,336.9 505.6,296.0 519.5,287.7 533.3,309.8 547.2,313.3 561.0,303.6 574.9,297.8 588.7,276.1 602.6,275.0 616.4,286.4 630.3,300.2 644.1,318.2 657.9,321.1 671.8,319.7 685.6,332.2 699.5,344.0 713.3,363.4 727.2,346.1 741.0,368.2 754.9,380.4 768.7,376.2 782.6,378.8 796.4,369.6 810.3,376.5 824.1,396.0 838.0,358.8 851.8,341.0 865.7,351.6 879.5,347.7 893.4,335.9 907.2,344.5 907.2,358.5 893.4,347.7 879.5,360.5 865.7,365.3 851.8,355.7 838.0,371.8 824.1,409.2 810.3,392.0 796.4,385.6 782.6,391.8 768.7,386.8 754.9,392.2 741.0,378.7 727.2,354.9 713.3,369.6 699.5,353.2 685.6,343.7 671.8,333.4 657.9,336.0 644.1,331.6 630.3,315.3 616.4,300.8 602.6,286.6 588.7,286.9 574.9,305.9 561.0,310.0 547.2,317.2 533.3,309.9 519.5,287.7 505.6,296.0 491.8,336.9 477.9,342.8 464.1,364.5 450.2,378.9 436.4,406.7 422.5,424.6 408.7,430.8 394.9,468.4 381.0,483.3 367.2,493.6 353.3,502.1 339.5,511.3 325.6,516.4 311.8,529.0 297.9,531.8 284.1,534.4 270.2,548.5 256.4,550.8 242.5,556.4 228.7,558.3 214.8,567.6 201.0,583.6 187.1,583.9 173.3,583.8" stroke="#FFF" stroke-width="0.9000"  fill="#798848" clip-path="url(#axis_clip)"/>
  </g>
  <g class="pg_12">
    <polygon class="pl" points="173.3,583.8 187.1,583.9 201.0,583.6 214.8,567.6 228.7,558.3 242.5,556.4 256.4,550.8 270.2,548.5 284.1,534.4 297.9,531.8 311.8,529.0 325.6,516.4 339.5,511.3 353.3,502.1 367.2,493.6 381.0,483.3 394.9,468.4 408.7,430.8 422.5,424.6 436.4,406.7 450.2,378.9 464.1,364.5 477.9,342.8 491.8,336.9 505.6,296.0 519.5,287.7 533.3,309.9 547.2,317.2 561.0,310.0 574.9,305.9 588.7,286.9 602.6,286.6 616.4,300.8 630.3,315.3 644.1,331.6 657.9,336.0 671.8,333.4 685.6,343.7 699.5,353.2 713.3,369.6 727.2,354.9 741.0,378.7 754.9,392.2 768.7,386.8 782.6,391.8 796.4,385.6 810.3,392.0 824.1,409.2 838.0,371.8 851.8,355.7 865.7,365.3 879.5,360.5 893.4,347.7 907.2,358.5 907.2,363.3 893.4,352.6 879.5,365.0 865.7,369.8 851.8,360.9 838.0,376.9 824.1,414.0 810.3,397.0 796.4,390.9 782.6,396.9 768.7,391.8 754.9,396.3 741.0,382.7 727.2,360.3 713.3,375.8 699.5,359.4 685.6,349.9 671.8,340.0 657.9,341.8 644.1,338.5 630.3,323.4 616.4,308.3 602.6,292.4 588.7,293.1 574.9,311.0 561.0,313.7 547.2,320.4 533.3,314.8 519.5,295.3 505.6,303.5 491.8,345.8 477.9,349.9 464.1,372.4 450.2,387.6 436.4,416.1 422.5,434.3 408.7,442.0 394.9,480.1 381.0,491.8 367.2,502.7 353.3,511.2 339.5,520.3 325.6,526.1 311.8,539.3 297.9,543.7 284.1,548.1 270.2,552.4 256.4,550.8 242.5,556.4 228.7,558.3 214.8,567.6 201.0,583.6 187.1,583.9 173.3,583.8" stroke="#FFF" stroke-width="0.9000"  fill="#7B4D75" clip-path="url(#axis_clip)"/>
  </g>
  <g class="pg_11">
    <polygon class="pl" points="173.3,583.8 187.1,583.9 201.0,583.6 214.8,567.6 228.7,558.3 242.5,556.4 256.4,550.8 270.2,552.4 284.1,548.1 297.9,543.7 311.8,539.3 325.6,526.1 339.5,520.3 353.3,511.2 367.2,502.7 381.0,491.8 394.9,480.1 408.7,442.0 422.5,434.3 436.4,416.1 450.2,387.6 464.1,372.4 477.9,349.9 491.8,345.8 505.6,303.5 519.5,295.3 533.3,314.8 547.2,320.4 561.0,313.7 574.9,311.0 588.7,293.1 602.6,292.4 616.4,308.3 630.3,323.4 644.1,338.5 657.9,341.8 671.8,340.0 685.6,349.9 699.5,359.4 713.3,375.8 727.2,360.3 741.0,382.7 754.9,396.3 768.7,391.8 782.6,396.9 796.4,390.9 810.3,397.0 824.1,414.0 838.0,376.9 851.8,360.9 865.7,369.8 879.5,365.0 893.4,352.6 907.2,363.3 907.2,369.9 893.4,359.9 879.5,372.8 865.7,378.4 851.8,369.8 838.0,384.9 824.1,422.2 810.3,404.5 796.4,399.2 782.6,404.4 768.7,398.6 754.9,402.8 741.0,390.3 727.2,367.1 713.3,383.7 699.5,366.7 685.6,359.6 671.8,351.6 657.9,354.6 644.1,354.9 630.3,340.0 616.4,326.3 602.6,311.3 588.7,313.3 574.9,332.0 561.0,333.6 547.2,343.9 533.3,336.6 519.5,319.8 505.6,325.2 491.8,347.6 477.9,349.9 464.1,372.4 450.2,387.6 436.4,416.1 422.5,434.3 408.7,442.0 394.9,480.1 381.0,491.8 367.2,502.7 353.3,511.2 339.5,520.3 325.6,526.1 311.8,539.3 297.9,543.7 284.1,548.1 270.2,552.4 256.4,550.8 242.5,556.4 228.7,558.3 214.8,567.6 201.0,583.6 187.1,583.9 173.3,583.8" stroke="#FFF" stroke-width="0.9000"  fill="#7E2F8E" clip-path="url(#axis_clip)"/>
  </g>
  <g class="pg_10">
    <polygon class="pl" points="173.3,583.8 187.1,583.9 201.0,583.6 214.8,567.6 228.7,558.3 242.5,556.4 256.4,550.8 270.2,552.4 284.1,548.1 297.9,543.7 311.8,539.3 325.6,526.1 339.5,520.3 353.3,511.2 367.2,502.7 381.0,491.8 394.9,480.1 408.7,442.0 422.5,434.3 436.4,416.1 450.2,387.6 464.1,372.4 477.9,349.9 491.8,347.6 505.6,325.2 519.5,319.8 533.3,336.6 547.2,343.9 561.0,333.6 574.9,332.0 588.7,313.3 602.6,311.3 616.4,326.3 630.3,340.0 644.1,354.9 657.9,354.6 671.8,351.6 685.6,359.6 699.5,366.7 713.3,383.7 727.2,367.1 741.0,390.3 754.9,402.8 768.7,398.6 782.6,404.4 796.4,399.2 810.3,404.5 824.1,422.2 838.0,384.9 851.8,369.8 865.7,378.4 879.5,372.8 893.4,359.9 907.2,369.9 907.2,445.0 893.4,437.6 879.5,450.1 865.7,433.2 851.8,425.8 838.0,431.3 824.1,429.3 810.3,404.5 796.4,399.2 782.6,404.4 768.7,398.6 754.9,402.8 741.0,390.3 727.2,367.1 713.3,383.7 699.5,366.7 685.6,359.6 671.8,351.6 657.9,354.6 644.1,354.9 630.3,340.0 616.4,326.3 602.6,311.3 588.7,313.3 574.9,332.0 561.0,333.6 547.2,343.9 533.3,336.6 519.5,319.8 505.6,325.2 491.8,347.6 477.9,349.9 464.1,372.4 450.2,387.6 436.4,416.1 422.5,434.3 408.7,442.0 394.9,480.1 381.0,491.8 367.2,502.7 353.3,511.2 339.5,520.3 325.6,526.1 311.8,539.3 297.9,543.7 284.1,548.1 270.2,552.4 256.4,550.8 242.5,556.4 228.7,558.3 214.8,567.6 201.0,583.6 187.1,583.9 173.3,583.8" stroke="#FFF" stroke-width="0.9000"  fill="#9D5172" clip-path="url(#axis_clip)"/>
    <text class="pl" transform="translate(945.6,385.7)" dy="5.9" font-size="19.80" fill="#9D5172" stroke="none">Johan Sverdrup</text>
<polyline class="pl" points="910.8,407.5 912.4,407.4 913.8,407.2 915.2,406.8 916.4,406.3 917.6,405.7 918.8,405.1 919.8,404.3 920.8,403.4 921.7,402.5 922.7,401.5 923.5,400.4 924.4,399.4 925.2,398.3 926.0,397.1 926.8,396.0 927.6,394.9 928.4,393.8 929.3,392.7 930.1,391.7 931.1,390.7 932.0,389.8 933.0,388.9 934.0,388.1 935.2,387.4 936.4,386.8 937.6,386.4 939.0,386.0 940.4,385.8 942.0,385.7" stroke="#9D5172" stroke-width="0.90" stroke-opacity="1.00" fill="none" />
  </g>
  <g class="pg_9">
    <polygon class="pl" points="173.3,583.8 187.1,583.9 201.0,583.6 214.8,567.6 228.7,558.3 242.5,556.4 256.4,550.8 270.2,552.4 284.1,548.1 297.9,543.7 311.8,539.3 325.6,526.1 339.5,520.3 353.3,511.2 367.2,502.7 381.0,491.8 394.9,480.1 408.7,442.0 422.5,434.3 436.4,416.1 450.2,387.6 464.1,372.4 477.9,349.9 491.8,347.6 505.6,325.2 519.5,319.8 533.3,336.6 547.2,343.9 561.0,333.6 574.9,332.0 588.7,313.3 602.6,311.3 616.4,326.3 630.3,340.0 644.1,354.9 657.9,354.6 671.8,351.6 685.6,359.6 699.5,366.7 713.3,383.7 727.2,367.1 741.0,390.3 754.9,402.8 768.7,398.6 782.6,404.4 796.4,399.2 810.3,404.5 824.1,429.3 838.0,431.3 851.8,425.8 865.7,433.2 879.5,450.1 893.4,437.6 907.2,445.0 907.2,445.1 893.4,437.8 879.5,450.3 865.7,433.4 851.8,426.1 838.0,431.7 824.1,429.8 810.3,405.0 796.4,399.6 782.6,405.1 768.7,399.5 754.9,405.8 741.0,401.2 727.2,379.9 713.3,398.9 699.5,381.9 685.6,378.7 671.8,373.2 657.9,380.3 644.1,380.5 630.3,368.0 616.4,351.7 602.6,338.5 588.7,343.0 574.9,359.2 561.0,361.6 547.2,366.8 533.3,357.7 519.5,341.8 505.6,349.0 491.8,366.9 477.9,364.3 464.1,375.2 450.2,387.6 436.4,416.1 422.5,434.3 408.7,442.0 394.9,480.1 381.0,491.8 367.2,502.7 353.3,511.2 339.5,520.3 325.6,526.1 311.8,539.3 297.9,543.7 284.1,548.1 270.2,552.4 256.4,550.8 242.5,556.4 228.7,558.3 214.8,567.6 201.0,583.6 187.1,583.9 173.3,583.8" stroke="#FFF" stroke-width="0.9000"  fill="#D18F3E" clip-path="url(#axis_clip)"/>
    <text class="pl" transform="translate(945.6,405.9)" dy="5.9" font-size="19.80" fill="#D18F3E" stroke="none">Sleipner &#216;st</text>
<polyline class="pl" points="910.8,445.0 912.4,444.9 913.8,444.5 915.2,443.9 916.4,443.0 917.6,441.9 918.8,440.7 919.8,439.3 920.8,437.7 921.7,436.1 922.7,434.3 923.5,432.4 924.4,430.5 925.2,428.5 926.0,426.5 926.8,424.4 927.6,422.4 928.4,420.4 929.3,418.5 930.1,416.6 931.1,414.9 932.0,413.2 933.0,411.6 934.0,410.2 935.2,409.0 936.4,407.9 937.6,407.0 939.0,406.4 940.4,406.0 942.0,405.9" stroke="#D18F3E" stroke-width="0.90" stroke-opacity="1.00" fill="none" />
  </g>
  <g class="pg_8">
    <polygon class="pl" points="173.3,583.8 187.1,583.9 201.0,583.6 214.8,567.6 228.7,558.3 242.5,556.4 256.4,550.8 270.2,552.4 284.1,548.1 297.9,543.7 311.8,539.3 325.6,526.1 339.5,520.3 353.3,511.2 367.2,502.7 381.0,491.8 394.9,480.1 408.7,442.0 422.5,434.3 436.4,416.1 450.2,387.6 464.1,375.2 477.9,364.3 491.8,366.9 505.6,349.0 519.5,341.8 533.3,357.7 547.2,366.8 561.0,361.6 574.9,359.2 588.7,343.0 602.6,338.5 616.4,351.7 630.3,368.0 644.1,380.5 657.9,380.3 671.8,373.2 685.6,378.7 699.5,381.9 713.3,398.9 727.2,379.9 741.0,401.2 754.9,405.8 768.7,399.5 782.6,405.1 796.4,399.6 810.3,405.0 824.1,429.8 838.0,431.7 851.8,426.1 865.7,433.4 879.5,450.3 893.4,437.8 907.2,445.1 907.2,454.0 893.4,446.7 879.5,460.0 865.7,444.1 851.8,436.4 838.0,438.7 824.1,435.2 810.3,414.5 796.4,408.5 782.6,415.3 768.7,410.8 754.9,415.8 741.0,410.3 727.2,387.9 713.3,409.0 699.5,392.7 685.6,389.8 671.8,389.0 657.9,395.4 644.1,395.9 630.3,385.2 616.4,373.0 602.6,364.6 588.7,368.0 574.9,382.4 561.0,378.4 547.2,385.1 533.3,377.5 519.5,363.0 505.6,371.6 491.8,389.5 477.9,383.8 464.1,388.7 450.2,390.5 436.4,416.1 422.5,434.3 408.7,442.0 394.9,480.1 381.0,491.8 367.2,502.7 353.3,511.2 339.5,520.3 325.6,526.1 311.8,539.3 297.9,543.7 284.1,548.1 270.2,552.4 256.4,550.8 242.5,556.4 228.7,558.3 214.8,567.6 201.0,583.6 187.1,583.9 173.3,583.8" stroke="#FFF" stroke-width="0.9000"  fill="#EDB120" clip-path="url(#axis_clip)"/>
    <text class="pl" transform="translate(945.6,426.1)" dy="5.9" font-size="19.80" fill="#EDB120" stroke="none">Snorre</text>
<polyline class="pl" points="910.8,449.6 912.4,449.5 913.8,449.2 915.2,448.9 916.4,448.3 917.6,447.7 918.8,447.0 919.8,446.1 920.8,445.2 921.7,444.2 922.7,443.1 923.5,442.0 924.4,440.8 925.2,439.6 926.0,438.4 926.8,437.2 927.6,436.0 928.4,434.8 929.3,433.6 930.1,432.5 931.1,431.4 932.0,430.4 933.0,429.5 934.0,428.7 935.2,427.9 936.4,427.3 937.6,426.8 939.0,426.4 940.4,426.1 942.0,426.1" stroke="#EDB120" stroke-width="0.90" stroke-opacity="1.00" fill="none" />
  </g>
  <g class="pg_7">
    <polygon class="pl" points="173.3,583.8 187.1,583.9 201.0,583.6 214.8,567.6 228.7,558.3 242.5,556.4 256.4,550.8 270.2,552.4 284.1,548.1 297.9,543.7 311.8,539.3 325.6,526.1 339.5,520.3 353.3,511.2 367.2,502.7 381.0,491.8 394.9,480.1 408.7,442.0 422.5,434.3 436.4,416.1 450.2,390.5 464.1,388.7 477.9,383.8 491.8,389.5 505.6,371.6 519.5,363.0 533.3,377.5 547.2,385.1 561.0,378.4 574.9,382.4 588.7,368.0 602.6,364.6 616.4,373.0 630.3,385.2 644.1,395.9 657.9,395.4 671.8,389.0 685.6,389.8 699.5,392.7 713.3,409.0 727.2,387.9 741.0,410.3 754.9,415.8 768.7,410.8 782.6,415.3 796.4,408.5 810.3,414.5 824.1,435.2 838.0,438.7 851.8,436.4 865.7,444.1 879.5,460.0 893.4,446.7 907.2,454.0 907.2,468.4 893.4,460.8 879.5,472.5 865.7,461.9 851.8,457.3 838.0,460.9 824.1,458.8 810.3,443.8 796.4,439.0 782.6,447.8 768.7,442.5 754.9,454.1 741.0,451.1 727.2,430.5 713.3,450.6 699.5,432.4 685.6,429.6 671.8,411.0 657.9,398.6 644.1,395.9 630.3,385.2 616.4,373.0 602.6,364.6 588.7,368.0 574.9,382.4 561.0,378.4 547.2,385.1 533.3,377.5 519.5,363.0 505.6,371.6 491.8,389.5 477.9,383.8 464.1,388.7 450.2,390.5 436.4,416.1 422.5,434.3 408.7,442.0 394.9,480.1 381.0,491.8 367.2,502.7 353.3,511.2 339.5,520.3 325.6,526.1 311.8,539.3 297.9,543.7 284.1,548.1 270.2,552.4 256.4,550.8 242.5,556.4 228.7,558.3 214.8,567.6 201.0,583.6 187.1,583.9 173.3,583.8" stroke="#FFF" stroke-width="0.9000"  fill="#ECA21D" clip-path="url(#axis_clip)"/>
    <text class="pl" transform="translate(945.6,446.2)" dy="5.9" font-size="19.80" fill="#ECA21D" stroke="none">Ormen Lange</text>
<polyline class="pl" points="910.8,461.2 912.4,461.2 913.8,461.0 915.2,460.8 916.4,460.4 917.6,460.0 918.8,459.5 919.8,459.0 920.8,458.4 921.7,457.8 922.7,457.1 923.5,456.4 924.4,455.6 925.2,454.9 926.0,454.1 926.8,453.3 927.6,452.6 928.4,451.8 929.3,451.1 930.1,450.3 931.1,449.7 932.0,449.0 933.0,448.4 934.0,447.9 935.2,447.4 936.4,447.0 937.6,446.7 939.0,446.4 940.4,446.3 942.0,446.2" stroke="#ECA21D" stroke-width="0.90" stroke-opacity="1.00" fill="none" />
  </g>
  <g class="pg_6">
    <polygon class="pl" points="173.3,583.8 187.1,583.9 201.0,583.6 214.8,567.6 228.7,558.3 242.5,556.4 256.4,550.8 270.2,552.4 284.1,548.1 297.9,543.7 311.8,539.3 325.6,526.1 339.5,520.3 353.3,511.2 367.2,502.7 381.0,491.8 394.9,480.1 408.7,442.0 422.5,434.3 436.4,416.1 450.2,390.5 464.1,388.7 477.9,383.8 491.8,389.5 505.6,371.6 519.5,363.0 533.3,377.5 547.2,385.1 561.0,378.4 574.9,382.4 588.7,368.0 602.6,364.6 616.4,373.0 630.3,385.2 644.1,395.9 657.9,398.6 671.8,411.0 685.6,429.6 699.5,432.4 713.3,450.6 727.2,430.5 741.0,451.1 754.9,454.1 768.7,442.5 782.6,447.8 796.4,439.0 810.3,443.8 824.1,458.8 838.0,460.9 851.8,457.3 865.7,461.9 879.5,472.5 893.4,460.8 907.2,468.4 907.2,470.6 893.4,463.1 879.5,474.9 865.7,464.8 851.8,460.4 838.0,465.2 824.1,463.7 810.3,448.6 796.4,442.6 782.6,451.9 768.7,446.3 754.9,457.9 741.0,455.7 727.2,435.0 713.3,455.3 699.5,439.7 685.6,438.5 671.8,421.6 657.9,409.4 644.1,408.6 630.3,401.2 616.4,391.7 602.6,383.0 588.7,385.7 574.9,402.9 561.0,403.8 547.2,417.8 533.3,415.8 519.5,409.2 505.6,420.3 491.8,443.4 477.9,442.8 464.1,444.2 450.2,438.8 436.4,454.2 422.5,462.7 408.7,471.7 394.9,496.6 381.0,499.2 367.2,502.8 353.3,511.2 339.5,520.3 325.6,526.1 311.8,539.3 297.9,543.7 284.1,548.1 270.2,552.4 256.4,550.8 242.5,556.4 228.7,558.3 214.8,567.6 201.0,583.6 187.1,583.9 173.3,583.8" stroke="#FFF" stroke-width="0.9000"  fill="#E8821B" clip-path="url(#axis_clip)"/>
    <text class="pl" transform="translate(945.6,466.4)" dy="5.9" font-size="19.80" fill="#E8821B" stroke="none">Gullfaks</text>
<polyline class="pl" points="910.8,469.5 912.4,469.5 913.8,469.4 915.2,469.4 916.4,469.3 917.6,469.2 918.8,469.1 919.8,469.0 920.8,468.9 921.7,468.8 922.7,468.6 923.5,468.5 924.4,468.3 925.2,468.2 926.0,468.0 926.8,467.9 927.6,467.7 928.4,467.5 929.3,467.4 930.1,467.2 931.1,467.1 932.0,467.0 933.0,466.9 934.0,466.7 935.2,466.6 936.4,466.6 937.6,466.5 939.0,466.4 940.4,466.4 942.0,466.4" stroke="#E8821B" stroke-width="0.90" stroke-opacity="1.00" fill="none" />
  </g>
  <g class="pg_5">
    <polygon class="pl" points="173.3,583.8 187.1,583.9 201.0,583.6 214.8,567.6 228.7,558.3 242.5,556.4 256.4,550.8 270.2,552.4 284.1,548.1 297.9,543.7 311.8,539.3 325.6,526.1 339.5,520.3 353.3,511.2 367.2,502.8 381.0,499.2 394.9,496.6 408.7,471.7 422.5,462.7 436.4,454.2 450.2,438.8 464.1,444.2 477.9,442.8 491.8,443.4 505.6,420.3 519.5,409.2 533.3,415.8 547.2,417.8 561.0,403.8 574.9,402.9 588.7,385.7 602.6,383.0 616.4,391.7 630.3,401.2 644.1,408.6 657.9,409.4 671.8,421.6 685.6,438.5 699.5,439.7 713.3,455.3 727.2,435.0 741.0,455.7 754.9,457.9 768.7,446.3 782.6,451.9 796.4,442.6 810.3,448.6 824.1,463.7 838.0,465.2 851.8,460.4 865.7,464.8 879.5,474.9 893.4,463.1 907.2,470.6 907.2,484.2 893.4,474.5 879.5,487.4 865.7,478.7 851.8,475.2 838.0,484.0 824.1,488.0 810.3,475.3 796.4,470.9 782.6,480.9 768.7,474.9 754.9,487.6 741.0,485.3 727.2,472.7 713.3,492.4 699.5,477.9 685.6,478.4 671.8,459.6 657.9,449.2 644.1,444.9 630.3,440.6 616.4,433.0 602.6,427.2 588.7,421.8 574.9,428.2 561.0,419.0 547.2,424.7 533.3,415.8 519.5,409.2 505.6,420.3 491.8,443.4 477.9,442.8 464.1,444.2 450.2,438.8 436.4,454.2 422.5,462.7 408.7,471.7 394.9,496.6 381.0,499.2 367.2,502.8 353.3,511.2 339.5,520.3 325.6,526.1 311.8,539.3 297.9,543.7 284.1,548.1 270.2,552.4 256.4,550.8 242.5,556.4 228.7,558.3 214.8,567.6 201.0,583.6 187.1,583.9 173.3,583.8" stroke="#FFF" stroke-width="0.9000"  fill="#E16219" clip-path="url(#axis_clip)"/>
    <text class="pl" transform="translate(945.6,486.6)" dy="5.9" font-size="19.80" fill="#E16219" stroke="none">&#197;sgard</text>
<polyline class="pl" points="910.8,477.4 912.4,477.4 913.8,477.5 915.2,477.7 916.4,477.9 917.6,478.1 918.8,478.4 919.8,478.7 920.8,479.1 921.7,479.5 922.7,479.9 923.5,480.3 924.4,480.8 925.2,481.3 926.0,481.7 926.8,482.2 927.6,482.7 928.4,483.2 929.3,483.6 930.1,484.1 931.1,484.5 932.0,484.9 933.0,485.2 934.0,485.6 935.2,485.9 936.4,486.1 937.6,486.3 939.0,486.5 940.4,486.5 942.0,486.6" stroke="#E16219" stroke-width="0.90" stroke-opacity="1.00" fill="none" />
  </g>
  <g class="pg_4">
    <polygon class="pl" points="173.3,583.8 187.1,583.9 201.0,583.6 214.8,567.6 228.7,558.3 242.5,556.4 256.4,550.8 270.2,552.4 284.1,548.1 297.9,543.7 311.8,539.3 325.6,526.1 339.5,520.3 353.3,511.2 367.2,502.8 381.0,499.2 394.9,496.6 408.7,471.7 422.5,462.7 436.4,454.2 450.2,438.8 464.1,444.2 477.9,442.8 491.8,443.4 505.6,420.3 519.5,409.2 533.3,415.8 547.2,424.7 561.0,419.0 574.9,428.2 588.7,421.8 602.6,427.2 616.4,433.0 630.3,440.6 644.1,444.9 657.9,449.2 671.8,459.6 685.6,478.4 699.5,477.9 713.3,492.4 727.2,472.7 741.0,485.3 754.9,487.6 768.7,474.9 782.6,480.9 796.4,470.9 810.3,475.3 824.1,488.0 838.0,484.0 851.8,475.2 865.7,478.7 879.5,487.4 893.4,474.5 907.2,484.2 907.2,501.7 893.4,493.7 879.5,503.0 865.7,496.3 851.8,497.3 838.0,498.4 824.1,501.4 810.3,486.6 796.4,485.3 782.6,491.7 768.7,487.1 754.9,497.9 741.0,499.3 727.2,488.8 713.3,504.2 699.5,492.8 685.6,493.6 671.8,477.9 657.9,463.4 644.1,464.2 630.3,460.9 616.4,454.9 602.6,447.6 588.7,446.5 574.9,456.1 561.0,450.0 547.2,459.3 533.3,458.7 519.5,457.7 505.6,472.1 491.8,494.9 477.9,494.7 464.1,494.8 450.2,485.2 436.4,491.4 422.5,493.4 408.7,495.7 394.9,498.6 381.0,500.6 367.2,503.3 353.3,511.2 339.5,520.3 325.6,526.1 311.8,539.3 297.9,543.7 284.1,548.1 270.2,552.4 256.4,550.8 242.5,556.4 228.7,558.3 214.8,567.6 201.0,583.6 187.1,583.9 173.3,583.8" stroke="#FFF" stroke-width="0.9000"  fill="#D95319" clip-path="url(#axis_clip)"/>
    <text class="pl" transform="translate(945.6,506.8)" dy="5.9" font-size="19.80" fill="#D95319" stroke="none">Oseberg</text>
<polyline class="pl" points="910.8,493.0 912.4,493.0 913.8,493.2 915.2,493.4 916.4,493.7 917.6,494.1 918.8,494.5 919.8,495.0 920.8,495.5 921.7,496.1 922.7,496.8 923.5,497.4 924.4,498.1 925.2,498.8 926.0,499.5 926.8,500.2 927.6,500.9 928.4,501.6 929.3,502.3 930.1,503.0 931.1,503.6 932.0,504.2 933.0,504.7 934.0,505.2 935.2,505.7 936.4,506.0 937.6,506.3 939.0,506.6 940.4,506.7 942.0,506.8" stroke="#D95319" stroke-width="0.90" stroke-opacity="1.00" fill="none" />
  </g>
  <g class="pg_3">
    <polygon class="pl" points="173.3,583.8 187.1,583.9 201.0,583.6 214.8,567.6 228.7,558.3 242.5,556.4 256.4,550.8 270.2,552.4 284.1,548.1 297.9,543.7 311.8,539.3 325.6,526.1 339.5,520.3 353.3,511.2 367.2,503.3 381.0,500.6 394.9,498.6 408.7,495.7 422.5,493.4 436.4,491.4 450.2,485.2 464.1,494.8 477.9,494.7 491.8,494.9 505.6,472.1 519.5,457.7 533.3,458.7 547.2,459.3 561.0,450.0 574.9,456.1 588.7,446.5 602.6,447.6 616.4,454.9 630.3,460.9 644.1,464.2 657.9,463.4 671.8,477.9 685.6,493.6 699.5,492.8 713.3,504.2 727.2,488.8 741.0,499.3 754.9,497.9 768.7,487.1 782.6,491.7 796.4,485.3 810.3,486.6 824.1,501.4 838.0,498.4 851.8,497.3 865.7,496.3 879.5,503.0 893.4,493.7 907.2,501.7 907.2,507.6 893.4,500.8 879.5,511.2 865.7,505.0 851.8,507.2 838.0,509.2 824.1,513.2 810.3,498.8 796.4,498.5 782.6,504.5 768.7,500.7 754.9,512.1 741.0,512.5 727.2,504.7 713.3,522.0 699.5,513.0 685.6,517.8 671.8,504.4 657.9,491.9 644.1,498.1 630.3,494.6 616.4,489.9 602.6,484.0 588.7,483.1 574.9,491.6 561.0,486.0 547.2,490.4 533.3,492.1 519.5,493.4 505.6,506.9 491.8,528.5 477.9,522.6 464.1,520.2 450.2,513.3 436.4,517.2 422.5,518.0 408.7,518.5 394.9,516.8 381.0,515.9 367.2,518.0 353.3,534.7 339.5,547.3 325.6,553.3 311.8,566.9 297.9,573.1 284.1,581.1 270.2,586.7 256.4,587.2 242.5,587.2 228.7,587.2 214.8,587.2 201.0,587.2 187.1,587.2 173.3,587.2" stroke="#FFF" stroke-width="0.9000"  fill="#B35532" clip-path="url(#axis_clip)"/>
    <text class="pl" transform="translate(945.6,526.9)" dy="5.9" font-size="19.80" fill="#B35532" stroke="none">Ekofisk</text>
<polyline class="pl" points="910.8,504.7 912.4,504.7 913.8,505.0 915.2,505.3 916.4,505.8 917.6,506.4 918.8,507.1 919.8,507.9 920.8,508.8 921.7,509.8 922.7,510.8 923.5,511.8 924.4,512.9 925.2,514.1 926.0,515.2 926.8,516.4 927.6,517.5 928.4,518.6 929.3,519.7 930.1,520.8 931.1,521.8 932.0,522.8 933.0,523.7 934.0,524.5 935.2,525.2 936.4,525.8 937.6,526.3 939.0,526.6 940.4,526.8 942.0,526.9" stroke="#B35532" stroke-width="0.90" stroke-opacity="1.00" fill="none" />
  </g>
  <g class="pg_2">
    <polygon class="pl" points="173.3,587.2 187.1,587.2 201.0,587.2 214.8,587.2 228.7,587.2 242.5,587.2 256.4,587.2 270.2,586.7 284.1,581.1 297.9,573.1 311.8,566.9 325.6,553.3 339.5,547.3 353.3,534.7 367.2,518.0 381.0,515.9 394.9,516.8 408.7,518.5 422.5,518.0 436.4,517.2 450.2,513.3 464.1,520.2 477.9,522.6 491.8,528.5 505.6,506.9 519.5,493.4 533.3,492.1 547.2,490.4 561.0,486.0 574.9,491.6 588.7,483.1 602.6,484.0 616.4,489.9 630.3,494.6 644.1,498.1 657.9,491.9 671.8,504.4 685.6,517.8 699.5,513.0 713.3,522.0 727.2,504.7 741.0,512.5 754.9,512.1 768.7,500.7 782.6,504.5 796.4,498.5 810.3,498.8 824.1,513.2 838.0,509.2 851.8,507.2 865.7,505.0 879.5,511.2 893.4,500.8 907.2,507.6 907.2,509.8 893.4,503.5 879.5,514.1 865.7,507.7 851.8,511.1 838.0,513.6 824.1,517.8 810.3,504.6 796.4,506.4 782.6,515.2 768.7,510.8 754.9,520.4 741.0,519.7 727.2,510.9 713.3,528.5 699.5,522.3 685.6,528.0 671.8,517.9 657.9,504.4 644.1,510.9 630.3,509.4 616.4,507.5 602.6,501.0 588.7,502.7 574.9,513.3 561.0,509.4 547.2,518.6 533.3,528.2 519.5,535.5 505.6,553.7 491.8,582.1 477.9,587.1 464.1,587.1 450.2,587.1 436.4,586.9 422.5,585.3 408.7,587.2 394.9,587.2 381.0,587.2 367.2,587.2 353.3,587.2 339.5,587.2 325.6,587.2 311.8,587.2 297.9,587.2 284.1,587.2 270.2,587.2 256.4,587.2 242.5,587.2 228.7,587.2 214.8,587.2 201.0,587.2 187.1,587.2 173.3,587.2" stroke="#FFF" stroke-width="0.9000"  fill="#635F6F" clip-path="url(#axis_clip)"/>
    <text class="pl" transform="translate(945.6,547.1)" dy="5.9" font-size="19.80" fill="#635F6F" stroke="none">Statfjord</text>
<polyline class="pl" points="910.8,508.7 912.4,508.8 913.8,509.2 915.2,509.8 916.4,510.7 917.6,511.7 918.8,512.9 919.8,514.3 920.8,515.8 921.7,517.5 922.7,519.2 923.5,521.1 924.4,523.0 925.2,524.9 926.0,526.9 926.8,528.9 927.6,530.9 928.4,532.8 929.3,534.7 930.1,536.5 931.1,538.3 932.0,539.9 933.0,541.5 934.0,542.8 935.2,544.1 936.4,545.1 937.6,546.0 939.0,546.6 940.4,547.0 942.0,547.1" stroke="#635F6F" stroke-width="0.90" stroke-opacity="1.00" fill="none" />
  </g>
  <g class="pg_1">
    <polygon class="pl" points="173.3,587.2 187.1,587.2 201.0,587.2 214.8,587.2 228.7,587.2 242.5,587.2 256.4,587.2 270.2,587.2 284.1,587.2 297.9,587.2 311.8,587.2 325.6,587.2 339.5,587.2 353.3,587.2 367.2,587.2 381.0,587.2 394.9,587.2 408.7,587.2 422.5,585.3 436.4,586.9 450.2,587.1 464.1,587.1 477.9,587.1 491.8,582.1 505.6,553.7 519.5,535.5 533.3,528.2 547.2,518.6 561.0,509.4 574.9,513.3 588.7,502.7 602.6,501.0 616.4,507.5 630.3,509.4 644.1,510.9 657.9,504.4 671.8,517.9 685.6,528.0 699.5,522.3 713.3,528.5 727.2,510.9 741.0,519.7 754.9,520.4 768.7,510.8 782.6,515.2 796.4,506.4 810.3,504.6 824.1,517.8 838.0,513.6 851.8,511.1 865.7,507.7 879.5,514.1 893.4,503.5 907.2,509.8 907.2,587.2 173.3,587.2" stroke="#FFF" stroke-width="0.9000"  fill="#0072BD" clip-path="url(#axis_clip)"/>
    <text class="pl" transform="translate(945.6,567.3)" dy="5.9" font-size="19.80" fill="#0072BD" stroke="none">Troll</text>
<polyline class="pl" points="910.8,548.5 912.4,548.5 913.8,548.7 915.2,549.0 916.4,549.4 917.6,550.0 918.8,550.6 919.8,551.2 920.8,552.0 921.7,552.8 922.7,553.6 923.5,554.5 924.4,555.5 925.2,556.4 926.0,557.4 926.8,558.4 927.6,559.3 928.4,560.3 929.3,561.2 930.1,562.1 931.1,563.0 932.0,563.8 933.0,564.5 934.0,565.2 935.2,565.8 936.4,566.3 937.6,566.7 939.0,567.0 940.4,567.2 942.0,567.3" stroke="#0072BD" stroke-width="0.90" stroke-opacity="1.00" fill="none" />
  </g>
</g>
    <text class="pl" transform="translate(145.6,47.2)" dy="0.0" font-size="27.00" fill="#808080" stroke="none">Annual Norwegian oil and gas production by field</text>
    <text class="pl" transform="translate(130.0,81.7)" dy="8.1" font-size="27.00" fill="#808080" stroke="none" text-anchor="end">Sm³oe</text>
<text transform="translate(157.6,666.1)" font-size="19.80" font-family="Helvetica" fill="#BFBFBF" stroke="none" xml:space="preserve"><a href="https://bsky.app/profile/robbieandrew.bsky.social" style="fill:#BFBFBF" target="_blank">@robbieandrew.bsky.social</a>   &#9679;   Data: DISKOS   &#9679;   Sm³oe is standard cubic metres of oil equivalent</text>
<text class="twitlink" transform="translate(157.6,666.1)" opacity="0" font-size="19.80" fill="#BFBFBF" stroke="none" xml:space="preserve"><a href="https://bsky.app/profile/robbieandrew.bsky.social" style="fill:#BFBFBF" target="_blank">@robbieandrew.bsky.social</a></text>
  <g class="dl_el" transform="translate(154.6,578.4)">
    <g class="dl_el_balloon">
      <foreignObject x="0" y="0" width="120" height="500">
      <div xmlns="http://www.w3.org/1999/xhtml" class="dl_fe" style="height:60px">
      <p class="dl_fe_p">Find me on BlueSky</p>
      </div>
	    </foreignObject>
      <path stroke="#000" fill="#FDFFDF" d="M0,60H60l5,5l5,-5H120"/>
    </g>
  </g>
<g>
<a href="https://creativecommons.org/licenses/by/4.0/" target="_blank">
  <rect x="123.0" y="651.4" width="34" height="17" fill="#FFF" stroke="none" opacity="0.01"/>
  <g transform="translate(124.0,652.4) scale(0.24)">
  <g><circle fill="#FFF" cx="37.79" cy="28.5" r="28.84"/>
     <circle fill="none" cx="37.79" cy="28.5" r="28.84" stroke="#BFBFBF" stroke-width="5.5"/>
     <path fill="#BFBFBF" d="M37.16,23.19 l-4.29,2.23c-0.458-0.951-1.02-1.62-1.69-2c-0.667-0.38-1.29-0.571-1.86-0.571c-2.86,0-4.29,1.89-4.29,5.66 c0,1.71,0.36,3.08,1.09,4.11c0.724,1.03,1.79,1.54,3.2,1.54c1.87,0,3.18-0.915,3.94-2.74l3.94,2 c-0.838,1.56-2,2.79-3.49,3.69c-1.48,0.896-3.12,1.34-4.91,1.34c-2.86,0-5.16-0.875-6.92-2.63 c-1.75-1.75-2.63-4.19-2.63-7.31c0-3.05,0.886-5.47,2.66-7.26c1.77-1.79,4.01-2.69,6.72-2.69 C32.6,18.56,35.44,20.1,37.16,23.19z
              M55.61,23.19l-4.23,2.23c-0.457-0.951-1.02-1.62-1.69-2 c-0.668-0.38-1.31-0.571-1.91-0.571c-2.86,0-4.29,1.89-4.29,5.66c0,1.71,0.363,3.08,1.09,4.11 c0.723,1.03,1.79,1.54,3.2,1.54c1.87,0,3.18-0.915,3.94-2.74l4,2c-0.875,1.56-2.06,2.79-3.54,3.69 c-1.49,0.9-3.11,1.34-4.86,1.34c-2.9,0-5.21-0.875-6.94-2.63c-1.74-1.75-2.6-4.19-2.6-7.31 c0-3.05,0.885-5.47,2.66-7.26c1.77-1.79,4.01-2.69,6.71-2.69C51.12,18.56,53.944,20.1,55.61,23.19z"/>
  </g></g>
  <g transform="translate(140.2,652.4) scale(0.24)">
  <g><circle fill="#FFF" cx="37.79" cy="28.5" r="28.84"/>
     <circle fill="none" cx="37.79" cy="28.5" r="28.84" stroke="#BFBFBF" stroke-width="5.5"/>
     <path fill="#BFBFBF" d="M46.129,20.557v13.085h-3.656v15.542h-9.944V33.643h-3.656V20.557 c0-0.572,0.2-1.057,0.599-1.457c0.401-0.399,0.887-0.6,1.457-0.6h13.144c0.533,0,1.01,0.2,1.428,0.6 C45.918,19.5,46.129,19.986,46.129,20.557z
              M33.042,12.329c0-3.008,1.485-4.514,4.458-4.514s4.457,1.504,4.457,4.514 c0,2.971-1.486,4.457-4.457,4.457S33.042,15.3,33.042,12.329z"/>
  </g></g>
  </a>
</g>
  <g class="dl_el" transform="translate(69.1,548.4)">
    <g class="dl_el_balloon">
      <foreignObject x="0" y="0" width="250" height="500">
      <div xmlns="http://www.w3.org/1999/xhtml" class="dl_fe" style="height:90px">
      <p class="dl_fe_p">CC-BY: Material may be freely re-used as long as you credit the author</p>
      </div>
	    </foreignObject>
      <path stroke="#000" fill="#FDFFDF" d="M0,90H70l5,5l5,-5H250"/>
    </g>
  </g>
</g>
</svg>
