<svg version="1.1" xmlns="http://www.w3.org/2000/svg" xmlns:xlink="http://www.w3.org/1999/xlink" width="100%" height="100%" viewBox="0 0 1200.000 674.916">
<title>Annual Fossil CO2 Emissions by Continent: Per Capita</title>
<style type="text/css">
  #main {font-family:Helvetica,Arial,sans-serif; font-size:27.00px;
         fill-opacity:1; fill:#000000; stroke:none; stroke-linejoin:round; stroke-linecap:round; stroke-width:1.00;}
  .marker {stroke-opacity:0;fill-opacity:0;}
  .marker:hover {stroke-opacity:0.5; fill-opacity:1;}
  .ticklabel {font-size:27.00px;fill:#808080;stroke:none;font-family:Helvetica}
  .ytl {text-anchor:end;}
  .dp1 {pointer-events:none;font-size:70%;text-anchor:middle;fill:#000000;}
  .dp2 {pointer-events:none;font-size:70%;text-anchor:middle;fill:#FFFFFF;}
  .numtip {pointer-events:none;}
  .cc {opacity:0.25;}
.dl_fe {background-color:#FDFFDF;display:flex;margin:auto;align-items:center}
.dl_fe_p {font-size:20px;text-align:center;margin:3px}
.dl_el {display:none;pointer-events:none;}
.cc:hover + .dl_el {display:block;}
text:hover + .dl_el {display:block;}
</style>
<defs>
  <clipPath id="axis_clip"><rect x="145.8" y="54.2" width="761.2" height="532.8" /></clipPath>
  <path id="line_x" d="M 145.600,0 h 761.600" stroke="#262626" stroke-opacity="0.15" stroke-width="1.00"/>
  <path id="tick_y" d="M 145.600,0 h -6.000" stroke="#808080" stroke-width="0.90"/>
  <path id="tick_x" d="M 0,587.177 v 6.000" stroke="#808080" stroke-width="0.90"/>
</defs>
<g id="main">
<use xlink:href="#line_x" transform="translate(0,587.2)"/>
<use xlink:href="#line_x" transform="translate(0,498.3)"/>
<use xlink:href="#line_x" transform="translate(0,409.4)"/>
<use xlink:href="#line_x" transform="translate(0,320.6)"/>
<use xlink:href="#line_x" transform="translate(0,231.7)"/>
<use xlink:href="#line_x" transform="translate(0,142.9)"/>
<use xlink:href="#line_x" transform="translate(0,54.0)"/>
<use xlink:href="#tick_y" transform="translate(0,587.2)"/>
<use xlink:href="#tick_y" transform="translate(0,498.3)"/>
<use xlink:href="#tick_y" transform="translate(0,409.4)"/>
<use xlink:href="#tick_y" transform="translate(0,320.6)"/>
<use xlink:href="#tick_y" transform="translate(0,231.7)"/>
<use xlink:href="#tick_y" transform="translate(0,142.9)"/>
<use xlink:href="#tick_y" transform="translate(0,54.0)"/>
<use xlink:href="#tick_x" transform="translate(162.5,0)"/>
<use xlink:href="#tick_x" transform="translate(275.4,0)"/>
<use xlink:href="#tick_x" transform="translate(388.2,0)"/>
<use xlink:href="#tick_x" transform="translate(501.0,0)"/>
<use xlink:href="#tick_x" transform="translate(613.8,0)"/>
<use xlink:href="#tick_x" transform="translate(726.7,0)"/>
<use xlink:href="#tick_x" transform="translate(862.1,0)"/>
<polyline points="145.6,53.993 145.6,587.177 907.2,587.177" stroke="#808080" stroke-width="0.90" fill="none"/>
<text class="ticklabel xtl" transform="translate(162.5,629.0)" text-anchor="middle">1960</text>
<text class="ticklabel xtl" transform="translate(275.4,629.0)" text-anchor="middle">1970</text>
<text class="ticklabel xtl" transform="translate(388.2,629.0)" text-anchor="middle">1980</text>
<text class="ticklabel xtl" transform="translate(501.0,629.0)" text-anchor="middle">1990</text>
<text class="ticklabel xtl" transform="translate(613.8,629.0)" text-anchor="middle">2000</text>
<text class="ticklabel xtl" transform="translate(726.7,629.0)" text-anchor="middle">2010</text>
<text class="ticklabel xtl" transform="translate(862.1,629.0)" text-anchor="middle">2022</text>
<text class="ticklabel ytl" transform="translate(128.8,595.3)">0</text>
<text class="ticklabel ytl" transform="translate(128.8,506.4)">1</text>
<text class="ticklabel ytl" transform="translate(128.8,417.5)">2</text>
<text class="ticklabel ytl" transform="translate(128.8,328.7)">3</text>
<text class="ticklabel ytl" transform="translate(128.8,239.8)">4</text>
<text class="ticklabel ytl" transform="translate(128.8,151.0)">5</text>
<text class="ticklabel ytl" transform="translate(128.8,62.1)">6 t C</text>
<polyline class="pl" points="140.0,438.9 151.2,437.1 162.5,428.5 173.8,424.4 185.1,417.0 196.4,408.0 207.7,400.7 218.9,396.8 230.2,391.8 241.5,389.0 252.8,381.2 264.1,371.4 275.4,362.2 286.6,355.2 297.9,348.3 309.2,339.2 320.5,340.0 331.8,340.0 343.1,327.9 354.3,327.3 365.6,320.3 376.9,315.2 388.2,316.3 399.5,327.3 410.7,330.4 422.0,331.2 433.3,330.5 444.6,320.4 455.9,321.0 467.2,321.4 478.4,321.2 489.7,323.3 501.0,317.2 512.3,328.0 523.6,350.0 534.9,360.1 546.1,372.3 557.4,373.1 568.7,371.6 580.0,378.4 591.3,379.3 602.6,382.0 613.8,382.0 625.1,377.8 636.4,378.9 647.7,374.1 659.0,373.3 670.3,373.8 681.5,370.7 692.8,372.6 704.1,375.6 715.4,392.9 726.7,385.7 738.0,388.5 749.2,390.5 760.5,395.9 771.8,403.7 783.1,403.9 794.4,404.5 805.7,403.7 816.9,404.8 828.2,410.7 839.5,423.9 850.8,414.6 862.1,420.9" stroke="#FD8D3C" stroke-width="5.40" stroke-opacity="1.00" fill="none" clip-path="url(#axis_clip)"/>
<g class="pl" fill="#FFF" stroke="#FD8D3C" stroke-width="0.900" clip-path="url(#axis_clip)">
  <circle cx="151.2" cy="437.1" r="2.2"/>
  <circle cx="173.8" cy="424.4" r="2.2"/>
  <circle cx="185.1" cy="417.0" r="2.2"/>
  <circle cx="196.4" cy="408.0" r="2.2"/>
  <circle cx="207.7" cy="400.7" r="2.2"/>
  <circle cx="218.9" cy="396.8" r="2.2"/>
  <circle cx="230.2" cy="391.8" r="2.2"/>
  <circle cx="241.5" cy="389.0" r="2.2"/>
  <circle cx="252.8" cy="381.2" r="2.2"/>
  <circle cx="264.1" cy="371.4" r="2.2"/>
  <circle cx="286.6" cy="355.2" r="2.2"/>
  <circle cx="297.9" cy="348.3" r="2.2"/>
  <circle cx="309.2" cy="339.2" r="2.2"/>
  <circle cx="320.5" cy="340.0" r="2.2"/>
  <circle cx="331.8" cy="340.0" r="2.2"/>
  <circle cx="343.1" cy="327.9" r="2.2"/>
  <circle cx="354.3" cy="327.3" r="2.2"/>
  <circle cx="365.6" cy="320.3" r="2.2"/>
  <circle cx="376.9" cy="315.2" r="2.2"/>
  <circle cx="399.5" cy="327.3" r="2.2"/>
  <circle cx="410.7" cy="330.4" r="2.2"/>
  <circle cx="422.0" cy="331.2" r="2.2"/>
  <circle cx="433.3" cy="330.5" r="2.2"/>
  <circle cx="444.6" cy="320.4" r="2.2"/>
  <circle cx="455.9" cy="321.0" r="2.2"/>
  <circle cx="467.2" cy="321.4" r="2.2"/>
  <circle cx="478.4" cy="321.2" r="2.2"/>
  <circle cx="489.7" cy="323.3" r="2.2"/>
  <circle cx="512.3" cy="328.0" r="2.2"/>
  <circle cx="523.6" cy="350.0" r="2.2"/>
  <circle cx="534.9" cy="360.1" r="2.2"/>
  <circle cx="546.1" cy="372.3" r="2.2"/>
  <circle cx="557.4" cy="373.1" r="2.2"/>
  <circle cx="568.7" cy="371.6" r="2.2"/>
  <circle cx="580.0" cy="378.4" r="2.2"/>
  <circle cx="591.3" cy="379.3" r="2.2"/>
  <circle cx="602.6" cy="382.0" r="2.2"/>
  <circle cx="625.1" cy="377.8" r="2.2"/>
  <circle cx="636.4" cy="378.9" r="2.2"/>
  <circle cx="647.7" cy="374.1" r="2.2"/>
  <circle cx="659.0" cy="373.3" r="2.2"/>
  <circle cx="670.3" cy="373.8" r="2.2"/>
  <circle cx="681.5" cy="370.7" r="2.2"/>
  <circle cx="692.8" cy="372.6" r="2.2"/>
  <circle cx="704.1" cy="375.6" r="2.2"/>
  <circle cx="715.4" cy="392.9" r="2.2"/>
  <circle cx="738.0" cy="388.5" r="2.2"/>
  <circle cx="749.2" cy="390.5" r="2.2"/>
  <circle cx="760.5" cy="395.9" r="2.2"/>
  <circle cx="771.8" cy="403.7" r="2.2"/>
  <circle cx="783.1" cy="403.9" r="2.2"/>
  <circle cx="794.4" cy="404.5" r="2.2"/>
  <circle cx="805.7" cy="403.7" r="2.2"/>
  <circle cx="816.9" cy="404.8" r="2.2"/>
  <circle cx="828.2" cy="410.7" r="2.2"/>
  <circle cx="850.8" cy="414.6" r="2.2"/>
  <circle cx="862.1" cy="420.9" r="2.2"/>
</g>
<g class="pl" fill="#FFF" stroke="#FD8D3C" stroke-width="0.900" clip-path="url(#axis_clip)">
  <circle cx="162.5" cy="428.5" r="5.4"/>
  <circle cx="275.4" cy="362.2" r="5.4"/>
  <circle cx="388.2" cy="316.3" r="5.4"/>
  <circle cx="501.0" cy="317.2" r="5.4"/>
  <circle cx="613.8" cy="382.0" r="5.4"/>
  <circle cx="726.7" cy="385.7" r="5.4"/>
  <circle cx="839.5" cy="423.9" r="5.4"/>
</g>
<polyline class="pl" points="140.0,570.6 151.2,567.4 162.5,565.5 173.8,568.1 185.1,569.4 196.4,568.9 207.7,568.5 218.9,567.4 230.2,566.3 241.5,566.5 252.8,565.0 264.1,562.6 275.4,558.5 286.6,556.8 297.9,555.8 309.2,554.7 320.5,554.9 331.8,553.7 343.1,552.8 354.3,551.2 365.6,550.0 376.9,549.3 388.2,549.9 399.5,550.8 410.7,550.2 422.0,549.5 433.3,548.0 444.6,546.6 455.9,545.8 467.2,544.7 478.4,542.1 489.7,541.6 501.0,540.9 512.3,539.9 523.6,538.9 534.9,537.7 546.1,536.3 557.4,534.3 568.7,532.7 580.0,532.5 591.3,535.2 602.6,533.2 613.8,532.2 625.1,531.9 636.4,529.2 647.7,523.8 659.0,520.9 670.3,516.6 681.5,512.5 692.8,508.8 704.1,505.9 715.4,504.0 726.7,498.5 738.0,492.3 749.2,490.1 760.5,489.4 771.8,489.1 783.1,489.8 794.4,490.3 805.7,488.6 816.9,486.0 828.2,484.2 839.5,486.0 850.8,482.2 862.1,481.1" stroke="#74C476" stroke-width="5.40" stroke-opacity="1.00" fill="none" clip-path="url(#axis_clip)"/>
<g class="pl" fill="#FFF" stroke="#74C476" stroke-width="0.900" clip-path="url(#axis_clip)">
  <circle cx="151.2" cy="567.4" r="2.2"/>
  <circle cx="173.8" cy="568.1" r="2.2"/>
  <circle cx="185.1" cy="569.4" r="2.2"/>
  <circle cx="196.4" cy="568.9" r="2.2"/>
  <circle cx="207.7" cy="568.5" r="2.2"/>
  <circle cx="218.9" cy="567.4" r="2.2"/>
  <circle cx="230.2" cy="566.3" r="2.2"/>
  <circle cx="241.5" cy="566.5" r="2.2"/>
  <circle cx="252.8" cy="565.0" r="2.2"/>
  <circle cx="264.1" cy="562.6" r="2.2"/>
  <circle cx="286.6" cy="556.8" r="2.2"/>
  <circle cx="297.9" cy="555.8" r="2.2"/>
  <circle cx="309.2" cy="554.7" r="2.2"/>
  <circle cx="320.5" cy="554.9" r="2.2"/>
  <circle cx="331.8" cy="553.7" r="2.2"/>
  <circle cx="343.1" cy="552.8" r="2.2"/>
  <circle cx="354.3" cy="551.2" r="2.2"/>
  <circle cx="365.6" cy="550.0" r="2.2"/>
  <circle cx="376.9" cy="549.3" r="2.2"/>
  <circle cx="399.5" cy="550.8" r="2.2"/>
  <circle cx="410.7" cy="550.2" r="2.2"/>
  <circle cx="422.0" cy="549.5" r="2.2"/>
  <circle cx="433.3" cy="548.0" r="2.2"/>
  <circle cx="444.6" cy="546.6" r="2.2"/>
  <circle cx="455.9" cy="545.8" r="2.2"/>
  <circle cx="467.2" cy="544.7" r="2.2"/>
  <circle cx="478.4" cy="542.1" r="2.2"/>
  <circle cx="489.7" cy="541.6" r="2.2"/>
  <circle cx="512.3" cy="539.9" r="2.2"/>
  <circle cx="523.6" cy="538.9" r="2.2"/>
  <circle cx="534.9" cy="537.7" r="2.2"/>
  <circle cx="546.1" cy="536.3" r="2.2"/>
  <circle cx="557.4" cy="534.3" r="2.2"/>
  <circle cx="568.7" cy="532.7" r="2.2"/>
  <circle cx="580.0" cy="532.5" r="2.2"/>
  <circle cx="591.3" cy="535.2" r="2.2"/>
  <circle cx="602.6" cy="533.2" r="2.2"/>
  <circle cx="625.1" cy="531.9" r="2.2"/>
  <circle cx="636.4" cy="529.2" r="2.2"/>
  <circle cx="647.7" cy="523.8" r="2.2"/>
  <circle cx="659.0" cy="520.9" r="2.2"/>
  <circle cx="670.3" cy="516.6" r="2.2"/>
  <circle cx="681.5" cy="512.5" r="2.2"/>
  <circle cx="692.8" cy="508.8" r="2.2"/>
  <circle cx="704.1" cy="505.9" r="2.2"/>
  <circle cx="715.4" cy="504.0" r="2.2"/>
  <circle cx="738.0" cy="492.3" r="2.2"/>
  <circle cx="749.2" cy="490.1" r="2.2"/>
  <circle cx="760.5" cy="489.4" r="2.2"/>
  <circle cx="771.8" cy="489.1" r="2.2"/>
  <circle cx="783.1" cy="489.8" r="2.2"/>
  <circle cx="794.4" cy="490.3" r="2.2"/>
  <circle cx="805.7" cy="488.6" r="2.2"/>
  <circle cx="816.9" cy="486.0" r="2.2"/>
  <circle cx="828.2" cy="484.2" r="2.2"/>
  <circle cx="850.8" cy="482.2" r="2.2"/>
  <circle cx="862.1" cy="481.1" r="2.2"/>
</g>
<g class="pl" fill="#FFF" stroke="#74C476" stroke-width="0.900" clip-path="url(#axis_clip)">
  <circle cx="162.5" cy="565.5" r="5.4"/>
  <circle cx="275.4" cy="558.5" r="5.4"/>
  <circle cx="388.2" cy="549.9" r="5.4"/>
  <circle cx="501.0" cy="540.9" r="5.4"/>
  <circle cx="613.8" cy="532.2" r="5.4"/>
  <circle cx="726.7" cy="498.5" r="5.4"/>
  <circle cx="839.5" cy="486.0" r="5.4"/>
</g>
<polyline class="pl" points="140.0,573.9 151.2,574.3 162.5,573.8 173.8,573.7 185.1,573.7 196.4,573.2 207.7,572.2 218.9,571.1 230.2,570.9 241.5,570.2 252.8,569.2 264.1,568.2 275.4,567.1 286.6,565.7 297.9,565.0 309.2,564.0 320.5,564.0 331.8,564.7 343.1,563.5 354.3,563.4 365.6,562.5 376.9,561.3 388.2,560.2 399.5,560.3 410.7,560.0 422.0,559.7 433.3,558.0 444.6,558.1 455.9,557.9 467.2,558.7 478.4,558.1 489.7,559.9 501.0,562.2 512.3,561.7 523.6,563.1 534.9,562.3 546.1,560.0 557.4,558.9 568.7,558.7 580.0,558.7 591.3,558.8 602.6,559.9 613.8,559.6 625.1,560.6 636.4,561.8 647.7,560.0 659.0,559.2 670.3,559.4 681.5,559.3 692.8,559.3 704.1,558.7 715.4,559.5 726.7,559.2 738.0,559.1 749.2,559.7 760.5,560.2 771.8,559.3 783.1,560.5 794.4,560.5 805.7,560.9 816.9,561.8 828.2,560.5 839.5,563.0 850.8,562.2 862.1,563.1" stroke="#6BAED6" stroke-width="5.40" stroke-opacity="1.00" fill="none" clip-path="url(#axis_clip)"/>
<g class="pl" fill="#FFF" stroke="#6BAED6" stroke-width="0.900" clip-path="url(#axis_clip)">
  <circle cx="151.2" cy="574.3" r="2.2"/>
  <circle cx="173.8" cy="573.7" r="2.2"/>
  <circle cx="185.1" cy="573.7" r="2.2"/>
  <circle cx="196.4" cy="573.2" r="2.2"/>
  <circle cx="207.7" cy="572.2" r="2.2"/>
  <circle cx="218.9" cy="571.1" r="2.2"/>
  <circle cx="230.2" cy="570.9" r="2.2"/>
  <circle cx="241.5" cy="570.2" r="2.2"/>
  <circle cx="252.8" cy="569.2" r="2.2"/>
  <circle cx="264.1" cy="568.2" r="2.2"/>
  <circle cx="286.6" cy="565.7" r="2.2"/>
  <circle cx="297.9" cy="565.0" r="2.2"/>
  <circle cx="309.2" cy="564.0" r="2.2"/>
  <circle cx="320.5" cy="564.0" r="2.2"/>
  <circle cx="331.8" cy="564.7" r="2.2"/>
  <circle cx="343.1" cy="563.5" r="2.2"/>
  <circle cx="354.3" cy="563.4" r="2.2"/>
  <circle cx="365.6" cy="562.5" r="2.2"/>
  <circle cx="376.9" cy="561.3" r="2.2"/>
  <circle cx="399.5" cy="560.3" r="2.2"/>
  <circle cx="410.7" cy="560.0" r="2.2"/>
  <circle cx="422.0" cy="559.7" r="2.2"/>
  <circle cx="433.3" cy="558.0" r="2.2"/>
  <circle cx="444.6" cy="558.1" r="2.2"/>
  <circle cx="455.9" cy="557.9" r="2.2"/>
  <circle cx="467.2" cy="558.7" r="2.2"/>
  <circle cx="478.4" cy="558.1" r="2.2"/>
  <circle cx="489.7" cy="559.9" r="2.2"/>
  <circle cx="512.3" cy="561.7" r="2.2"/>
  <circle cx="523.6" cy="563.1" r="2.2"/>
  <circle cx="534.9" cy="562.3" r="2.2"/>
  <circle cx="546.1" cy="560.0" r="2.2"/>
  <circle cx="557.4" cy="558.9" r="2.2"/>
  <circle cx="568.7" cy="558.7" r="2.2"/>
  <circle cx="580.0" cy="558.7" r="2.2"/>
  <circle cx="591.3" cy="558.8" r="2.2"/>
  <circle cx="602.6" cy="559.9" r="2.2"/>
  <circle cx="625.1" cy="560.6" r="2.2"/>
  <circle cx="636.4" cy="561.8" r="2.2"/>
  <circle cx="647.7" cy="560.0" r="2.2"/>
  <circle cx="659.0" cy="559.2" r="2.2"/>
  <circle cx="670.3" cy="559.4" r="2.2"/>
  <circle cx="681.5" cy="559.3" r="2.2"/>
  <circle cx="692.8" cy="559.3" r="2.2"/>
  <circle cx="704.1" cy="558.7" r="2.2"/>
  <circle cx="715.4" cy="559.5" r="2.2"/>
  <circle cx="738.0" cy="559.1" r="2.2"/>
  <circle cx="749.2" cy="559.7" r="2.2"/>
  <circle cx="760.5" cy="560.2" r="2.2"/>
  <circle cx="771.8" cy="559.3" r="2.2"/>
  <circle cx="783.1" cy="560.5" r="2.2"/>
  <circle cx="794.4" cy="560.5" r="2.2"/>
  <circle cx="805.7" cy="560.9" r="2.2"/>
  <circle cx="816.9" cy="561.8" r="2.2"/>
  <circle cx="828.2" cy="560.5" r="2.2"/>
  <circle cx="850.8" cy="562.2" r="2.2"/>
  <circle cx="862.1" cy="563.1" r="2.2"/>
</g>
<g class="pl" fill="#FFF" stroke="#6BAED6" stroke-width="0.900" clip-path="url(#axis_clip)">
  <circle cx="162.5" cy="573.8" r="5.4"/>
  <circle cx="275.4" cy="567.1" r="5.4"/>
  <circle cx="388.2" cy="560.2" r="5.4"/>
  <circle cx="501.0" cy="562.2" r="5.4"/>
  <circle cx="613.8" cy="559.6" r="5.4"/>
  <circle cx="726.7" cy="559.2" r="5.4"/>
  <circle cx="839.5" cy="563.0" r="5.4"/>
</g>
<polyline class="pl" points="140.0,260.5 151.2,257.3 162.5,255.2 173.8,262.2 185.1,256.2 196.4,248.3 207.7,237.4 218.9,228.7 230.2,216.7 241.5,206.7 252.8,197.3 264.1,184.4 275.4,159.8 286.6,162.6 297.9,148.2 309.2,135.4 320.5,153.8 331.8,170.2 343.1,152.2 354.3,145.5 365.6,145.0 376.9,142.9 388.2,162.7 399.5,177.6 410.7,200.2 422.0,208.8 433.3,195.2 444.6,200.0 455.9,204.6 467.2,194.9 478.4,182.2 489.7,179.9 501.0,187.1 512.3,196.7 523.6,194.2 534.9,193.3 546.1,191.4 557.4,193.5 568.7,185.5 580.0,184.1 591.3,185.1 602.6,184.8 613.8,175.9 625.1,186.3 636.4,188.1 647.7,186.3 659.0,184.8 670.3,186.9 681.5,195.3 692.8,193.9 704.1,210.6 715.4,240.1 726.7,232.5 738.0,241.2 749.2,254.3 760.5,250.7 771.8,252.1 783.1,262.8 794.4,272.5 805.7,277.6 816.9,271.2 828.2,279.3 839.5,311.6 850.8,295.4 862.1,293.0" stroke="#DF65B0" stroke-width="5.40" stroke-opacity="1.00" fill="none" clip-path="url(#axis_clip)"/>
<g class="pl" fill="#FFF" stroke="#DF65B0" stroke-width="0.900" clip-path="url(#axis_clip)">
  <circle cx="151.2" cy="257.3" r="2.2"/>
  <circle cx="173.8" cy="262.2" r="2.2"/>
  <circle cx="185.1" cy="256.2" r="2.2"/>
  <circle cx="196.4" cy="248.3" r="2.2"/>
  <circle cx="207.7" cy="237.4" r="2.2"/>
  <circle cx="218.9" cy="228.7" r="2.2"/>
  <circle cx="230.2" cy="216.7" r="2.2"/>
  <circle cx="241.5" cy="206.7" r="2.2"/>
  <circle cx="252.8" cy="197.3" r="2.2"/>
  <circle cx="264.1" cy="184.4" r="2.2"/>
  <circle cx="286.6" cy="162.6" r="2.2"/>
  <circle cx="297.9" cy="148.2" r="2.2"/>
  <circle cx="309.2" cy="135.4" r="2.2"/>
  <circle cx="320.5" cy="153.8" r="2.2"/>
  <circle cx="331.8" cy="170.2" r="2.2"/>
  <circle cx="343.1" cy="152.2" r="2.2"/>
  <circle cx="354.3" cy="145.5" r="2.2"/>
  <circle cx="365.6" cy="145.0" r="2.2"/>
  <circle cx="376.9" cy="142.9" r="2.2"/>
  <circle cx="399.5" cy="177.6" r="2.2"/>
  <circle cx="410.7" cy="200.2" r="2.2"/>
  <circle cx="422.0" cy="208.8" r="2.2"/>
  <circle cx="433.3" cy="195.2" r="2.2"/>
  <circle cx="444.6" cy="200.0" r="2.2"/>
  <circle cx="455.9" cy="204.6" r="2.2"/>
  <circle cx="467.2" cy="194.9" r="2.2"/>
  <circle cx="478.4" cy="182.2" r="2.2"/>
  <circle cx="489.7" cy="179.9" r="2.2"/>
  <circle cx="512.3" cy="196.7" r="2.2"/>
  <circle cx="523.6" cy="194.2" r="2.2"/>
  <circle cx="534.9" cy="193.3" r="2.2"/>
  <circle cx="546.1" cy="191.4" r="2.2"/>
  <circle cx="557.4" cy="193.5" r="2.2"/>
  <circle cx="568.7" cy="185.5" r="2.2"/>
  <circle cx="580.0" cy="184.1" r="2.2"/>
  <circle cx="591.3" cy="185.1" r="2.2"/>
  <circle cx="602.6" cy="184.8" r="2.2"/>
  <circle cx="625.1" cy="186.3" r="2.2"/>
  <circle cx="636.4" cy="188.1" r="2.2"/>
  <circle cx="647.7" cy="186.3" r="2.2"/>
  <circle cx="659.0" cy="184.8" r="2.2"/>
  <circle cx="670.3" cy="186.9" r="2.2"/>
  <circle cx="681.5" cy="195.3" r="2.2"/>
  <circle cx="692.8" cy="193.9" r="2.2"/>
  <circle cx="704.1" cy="210.6" r="2.2"/>
  <circle cx="715.4" cy="240.1" r="2.2"/>
  <circle cx="738.0" cy="241.2" r="2.2"/>
  <circle cx="749.2" cy="254.3" r="2.2"/>
  <circle cx="760.5" cy="250.7" r="2.2"/>
  <circle cx="771.8" cy="252.1" r="2.2"/>
  <circle cx="783.1" cy="262.8" r="2.2"/>
  <circle cx="794.4" cy="272.5" r="2.2"/>
  <circle cx="805.7" cy="277.6" r="2.2"/>
  <circle cx="816.9" cy="271.2" r="2.2"/>
  <circle cx="828.2" cy="279.3" r="2.2"/>
  <circle cx="850.8" cy="295.4" r="2.2"/>
  <circle cx="862.1" cy="293.0" r="2.2"/>
</g>
<g class="pl" fill="#FFF" stroke="#DF65B0" stroke-width="0.900" clip-path="url(#axis_clip)">
  <circle cx="162.5" cy="255.2" r="5.4"/>
  <circle cx="275.4" cy="159.8" r="5.4"/>
  <circle cx="388.2" cy="162.7" r="5.4"/>
  <circle cx="501.0" cy="187.1" r="5.4"/>
  <circle cx="613.8" cy="175.9" r="5.4"/>
  <circle cx="726.7" cy="232.5" r="5.4"/>
  <circle cx="839.5" cy="311.6" r="5.4"/>
</g>
<polyline class="pl" points="140.0,556.8 151.2,555.0 162.5,556.1 173.8,556.3 185.1,554.6 196.4,555.7 207.7,554.5 218.9,554.2 230.2,553.7 241.5,552.3 252.8,550.7 264.1,548.5 275.4,545.6 286.6,545.2 297.9,544.2 309.2,541.3 320.5,540.1 331.8,541.3 343.1,540.2 354.3,540.1 365.6,539.1 376.9,537.1 388.2,537.1 399.5,540.1 410.7,540.9 422.0,543.0 433.3,542.8 444.6,542.5 455.9,542.4 467.2,541.0 478.4,540.3 489.7,540.9 501.0,540.7 512.3,541.1 523.6,541.2 534.9,539.7 546.1,540.1 557.4,538.4 568.7,537.0 580.0,534.6 591.3,531.9 602.6,533.2 613.8,533.3 625.1,534.9 636.4,533.8 647.7,534.1 659.0,532.9 670.3,531.7 681.5,530.4 692.8,528.9 704.1,527.3 715.4,529.4 726.7,524.0 738.0,523.8 749.2,521.8 760.5,519.2 771.8,518.8 783.1,520.8 794.4,523.7 805.7,525.3 816.9,529.0 828.2,529.2 839.5,535.7 850.8,530.0 862.1,530.4" stroke="#F2D03A" stroke-width="5.40" stroke-opacity="1.00" fill="none" clip-path="url(#axis_clip)"/>
<g class="pl" fill="#FFF" stroke="#F2D03A" stroke-width="0.900" clip-path="url(#axis_clip)">
  <circle cx="151.2" cy="555.0" r="2.2"/>
  <circle cx="173.8" cy="556.3" r="2.2"/>
  <circle cx="185.1" cy="554.6" r="2.2"/>
  <circle cx="196.4" cy="555.7" r="2.2"/>
  <circle cx="207.7" cy="554.5" r="2.2"/>
  <circle cx="218.9" cy="554.2" r="2.2"/>
  <circle cx="230.2" cy="553.7" r="2.2"/>
  <circle cx="241.5" cy="552.3" r="2.2"/>
  <circle cx="252.8" cy="550.7" r="2.2"/>
  <circle cx="264.1" cy="548.5" r="2.2"/>
  <circle cx="286.6" cy="545.2" r="2.2"/>
  <circle cx="297.9" cy="544.2" r="2.2"/>
  <circle cx="309.2" cy="541.3" r="2.2"/>
  <circle cx="320.5" cy="540.1" r="2.2"/>
  <circle cx="331.8" cy="541.3" r="2.2"/>
  <circle cx="343.1" cy="540.2" r="2.2"/>
  <circle cx="354.3" cy="540.1" r="2.2"/>
  <circle cx="365.6" cy="539.1" r="2.2"/>
  <circle cx="376.9" cy="537.1" r="2.2"/>
  <circle cx="399.5" cy="540.1" r="2.2"/>
  <circle cx="410.7" cy="540.9" r="2.2"/>
  <circle cx="422.0" cy="543.0" r="2.2"/>
  <circle cx="433.3" cy="542.8" r="2.2"/>
  <circle cx="444.6" cy="542.5" r="2.2"/>
  <circle cx="455.9" cy="542.4" r="2.2"/>
  <circle cx="467.2" cy="541.0" r="2.2"/>
  <circle cx="478.4" cy="540.3" r="2.2"/>
  <circle cx="489.7" cy="540.9" r="2.2"/>
  <circle cx="512.3" cy="541.1" r="2.2"/>
  <circle cx="523.6" cy="541.2" r="2.2"/>
  <circle cx="534.9" cy="539.7" r="2.2"/>
  <circle cx="546.1" cy="540.1" r="2.2"/>
  <circle cx="557.4" cy="538.4" r="2.2"/>
  <circle cx="568.7" cy="537.0" r="2.2"/>
  <circle cx="580.0" cy="534.6" r="2.2"/>
  <circle cx="591.3" cy="531.9" r="2.2"/>
  <circle cx="602.6" cy="533.2" r="2.2"/>
  <circle cx="625.1" cy="534.9" r="2.2"/>
  <circle cx="636.4" cy="533.8" r="2.2"/>
  <circle cx="647.7" cy="534.1" r="2.2"/>
  <circle cx="659.0" cy="532.9" r="2.2"/>
  <circle cx="670.3" cy="531.7" r="2.2"/>
  <circle cx="681.5" cy="530.4" r="2.2"/>
  <circle cx="692.8" cy="528.9" r="2.2"/>
  <circle cx="704.1" cy="527.3" r="2.2"/>
  <circle cx="715.4" cy="529.4" r="2.2"/>
  <circle cx="738.0" cy="523.8" r="2.2"/>
  <circle cx="749.2" cy="521.8" r="2.2"/>
  <circle cx="760.5" cy="519.2" r="2.2"/>
  <circle cx="771.8" cy="518.8" r="2.2"/>
  <circle cx="783.1" cy="520.8" r="2.2"/>
  <circle cx="794.4" cy="523.7" r="2.2"/>
  <circle cx="805.7" cy="525.3" r="2.2"/>
  <circle cx="816.9" cy="529.0" r="2.2"/>
  <circle cx="828.2" cy="529.2" r="2.2"/>
  <circle cx="850.8" cy="530.0" r="2.2"/>
  <circle cx="862.1" cy="530.4" r="2.2"/>
</g>
<g class="pl" fill="#FFF" stroke="#F2D03A" stroke-width="0.900" clip-path="url(#axis_clip)">
  <circle cx="162.5" cy="556.1" r="5.4"/>
  <circle cx="275.4" cy="545.6" r="5.4"/>
  <circle cx="388.2" cy="537.1" r="5.4"/>
  <circle cx="501.0" cy="540.7" r="5.4"/>
  <circle cx="613.8" cy="533.3" r="5.4"/>
  <circle cx="726.7" cy="524.0" r="5.4"/>
  <circle cx="839.5" cy="535.7" r="5.4"/>
</g>
<polyline class="pl" points="140.0,564.9 151.2,564.3 162.5,558.8 173.8,558.3 185.1,554.7 196.4,551.5 207.7,546.6 218.9,540.1 230.2,534.5 241.5,534.4 252.8,528.1 264.1,522.2 275.4,520.1 286.6,510.8 297.9,507.2 309.2,495.0 320.5,494.5 331.8,499.0 343.1,487.3 354.3,485.5 365.6,488.0 376.9,484.8 388.2,490.5 399.5,494.2 410.7,495.4 422.0,493.5 433.3,492.2 444.6,488.0 455.9,484.8 467.2,485.7 478.4,482.2 489.7,479.3 501.0,479.3 512.3,471.4 523.6,463.9 534.9,456.4 546.1,452.3 557.4,459.6 568.7,460.2 580.0,464.5 591.3,462.9 602.6,456.3 613.8,445.5 625.1,446.9 636.4,447.7 647.7,441.3 659.0,433.1 670.3,430.5 681.5,424.3 692.8,428.9 704.1,420.8 715.4,418.1 726.7,412.7 738.0,412.6 749.2,404.6 760.5,411.8 771.8,407.2 783.1,402.2 794.4,401.2 805.7,398.8 816.9,400.1 828.2,402.8 839.5,415.3 850.8,409.0 862.1,408.8" stroke="#DB4E15" stroke-width="5.40" stroke-opacity="1.00" fill="none" clip-path="url(#axis_clip)"/>
<g class="pl" fill="#FFF" stroke="#DB4E15" stroke-width="0.900" clip-path="url(#axis_clip)">
  <circle cx="151.2" cy="564.3" r="2.2"/>
  <circle cx="173.8" cy="558.3" r="2.2"/>
  <circle cx="185.1" cy="554.7" r="2.2"/>
  <circle cx="196.4" cy="551.5" r="2.2"/>
  <circle cx="207.7" cy="546.6" r="2.2"/>
  <circle cx="218.9" cy="540.1" r="2.2"/>
  <circle cx="230.2" cy="534.5" r="2.2"/>
  <circle cx="241.5" cy="534.4" r="2.2"/>
  <circle cx="252.8" cy="528.1" r="2.2"/>
  <circle cx="264.1" cy="522.2" r="2.2"/>
  <circle cx="286.6" cy="510.8" r="2.2"/>
  <circle cx="297.9" cy="507.2" r="2.2"/>
  <circle cx="309.2" cy="495.0" r="2.2"/>
  <circle cx="320.5" cy="494.5" r="2.2"/>
  <circle cx="331.8" cy="499.0" r="2.2"/>
  <circle cx="343.1" cy="487.3" r="2.2"/>
  <circle cx="354.3" cy="485.5" r="2.2"/>
  <circle cx="365.6" cy="488.0" r="2.2"/>
  <circle cx="376.9" cy="484.8" r="2.2"/>
  <circle cx="399.5" cy="494.2" r="2.2"/>
  <circle cx="410.7" cy="495.4" r="2.2"/>
  <circle cx="422.0" cy="493.5" r="2.2"/>
  <circle cx="433.3" cy="492.2" r="2.2"/>
  <circle cx="444.6" cy="488.0" r="2.2"/>
  <circle cx="455.9" cy="484.8" r="2.2"/>
  <circle cx="467.2" cy="485.7" r="2.2"/>
  <circle cx="478.4" cy="482.2" r="2.2"/>
  <circle cx="489.7" cy="479.3" r="2.2"/>
  <circle cx="512.3" cy="471.4" r="2.2"/>
  <circle cx="523.6" cy="463.9" r="2.2"/>
  <circle cx="534.9" cy="456.4" r="2.2"/>
  <circle cx="546.1" cy="452.3" r="2.2"/>
  <circle cx="557.4" cy="459.6" r="2.2"/>
  <circle cx="568.7" cy="460.2" r="2.2"/>
  <circle cx="580.0" cy="464.5" r="2.2"/>
  <circle cx="591.3" cy="462.9" r="2.2"/>
  <circle cx="602.6" cy="456.3" r="2.2"/>
  <circle cx="625.1" cy="446.9" r="2.2"/>
  <circle cx="636.4" cy="447.7" r="2.2"/>
  <circle cx="647.7" cy="441.3" r="2.2"/>
  <circle cx="659.0" cy="433.1" r="2.2"/>
  <circle cx="670.3" cy="430.5" r="2.2"/>
  <circle cx="681.5" cy="424.3" r="2.2"/>
  <circle cx="692.8" cy="428.9" r="2.2"/>
  <circle cx="704.1" cy="420.8" r="2.2"/>
  <circle cx="715.4" cy="418.1" r="2.2"/>
  <circle cx="738.0" cy="412.6" r="2.2"/>
  <circle cx="749.2" cy="404.6" r="2.2"/>
  <circle cx="760.5" cy="411.8" r="2.2"/>
  <circle cx="771.8" cy="407.2" r="2.2"/>
  <circle cx="783.1" cy="402.2" r="2.2"/>
  <circle cx="794.4" cy="401.2" r="2.2"/>
  <circle cx="805.7" cy="398.8" r="2.2"/>
  <circle cx="816.9" cy="400.1" r="2.2"/>
  <circle cx="828.2" cy="402.8" r="2.2"/>
  <circle cx="850.8" cy="409.0" r="2.2"/>
  <circle cx="862.1" cy="408.8" r="2.2"/>
</g>
<g class="pl" fill="#FFF" stroke="#DB4E15" stroke-width="0.900" clip-path="url(#axis_clip)">
  <circle cx="162.5" cy="558.8" r="5.4"/>
  <circle cx="275.4" cy="520.1" r="5.4"/>
  <circle cx="388.2" cy="490.5" r="5.4"/>
  <circle cx="501.0" cy="479.3" r="5.4"/>
  <circle cx="613.8" cy="445.5" r="5.4"/>
  <circle cx="726.7" cy="412.7" r="5.4"/>
  <circle cx="839.5" cy="415.3" r="5.4"/>
</g>
<polyline class="pl" points="140.0,423.2 151.2,417.5 162.5,410.8 173.8,414.9 185.1,413.1 196.4,406.4 207.7,395.1 218.9,382.0 230.2,381.9 241.5,376.1 252.8,369.7 264.1,361.6 275.4,349.0 286.6,349.6 297.9,350.8 309.2,328.6 320.5,336.8 331.8,332.3 343.1,338.7 354.3,324.4 365.6,319.3 376.9,322.1 388.2,308.7 399.5,302.5 410.7,300.2 422.0,317.0 433.3,307.5 444.6,299.5 455.9,302.7 467.2,293.6 478.4,289.5 489.7,276.1 501.0,258.0 512.3,260.6 523.6,257.2 534.9,256.2 546.1,254.5 557.4,246.6 568.7,242.4 580.0,236.5 591.3,228.1 602.6,220.5 613.8,217.7 625.1,212.7 636.4,212.4 647.7,208.7 659.0,201.3 670.3,201.6 681.5,201.4 692.8,201.8 704.1,203.9 715.4,209.9 726.7,216.1 738.0,222.7 749.2,224.8 760.5,236.1 771.8,245.1 783.1,243.4 794.4,242.7 805.7,244.1 816.9,247.9 828.2,252.2 839.5,272.9 850.8,283.5 862.1,283.7" stroke="#933E1C" stroke-width="5.40" stroke-opacity="1.00" fill="none" clip-path="url(#axis_clip)"/>
<g class="pl" fill="#FFF" stroke="#933E1C" stroke-width="0.900" clip-path="url(#axis_clip)">
  <circle cx="151.2" cy="417.5" r="2.2"/>
  <circle cx="173.8" cy="414.9" r="2.2"/>
  <circle cx="185.1" cy="413.1" r="2.2"/>
  <circle cx="196.4" cy="406.4" r="2.2"/>
  <circle cx="207.7" cy="395.1" r="2.2"/>
  <circle cx="218.9" cy="382.0" r="2.2"/>
  <circle cx="230.2" cy="381.9" r="2.2"/>
  <circle cx="241.5" cy="376.1" r="2.2"/>
  <circle cx="252.8" cy="369.7" r="2.2"/>
  <circle cx="264.1" cy="361.6" r="2.2"/>
  <circle cx="286.6" cy="349.6" r="2.2"/>
  <circle cx="297.9" cy="350.8" r="2.2"/>
  <circle cx="309.2" cy="328.6" r="2.2"/>
  <circle cx="320.5" cy="336.8" r="2.2"/>
  <circle cx="331.8" cy="332.3" r="2.2"/>
  <circle cx="343.1" cy="338.7" r="2.2"/>
  <circle cx="354.3" cy="324.4" r="2.2"/>
  <circle cx="365.6" cy="319.3" r="2.2"/>
  <circle cx="376.9" cy="322.1" r="2.2"/>
  <circle cx="399.5" cy="302.5" r="2.2"/>
  <circle cx="410.7" cy="300.2" r="2.2"/>
  <circle cx="422.0" cy="317.0" r="2.2"/>
  <circle cx="433.3" cy="307.5" r="2.2"/>
  <circle cx="444.6" cy="299.5" r="2.2"/>
  <circle cx="455.9" cy="302.7" r="2.2"/>
  <circle cx="467.2" cy="293.6" r="2.2"/>
  <circle cx="478.4" cy="289.5" r="2.2"/>
  <circle cx="489.7" cy="276.1" r="2.2"/>
  <circle cx="512.3" cy="260.6" r="2.2"/>
  <circle cx="523.6" cy="257.2" r="2.2"/>
  <circle cx="534.9" cy="256.2" r="2.2"/>
  <circle cx="546.1" cy="254.5" r="2.2"/>
  <circle cx="557.4" cy="246.6" r="2.2"/>
  <circle cx="568.7" cy="242.4" r="2.2"/>
  <circle cx="580.0" cy="236.5" r="2.2"/>
  <circle cx="591.3" cy="228.1" r="2.2"/>
  <circle cx="602.6" cy="220.5" r="2.2"/>
  <circle cx="625.1" cy="212.7" r="2.2"/>
  <circle cx="636.4" cy="212.4" r="2.2"/>
  <circle cx="647.7" cy="208.7" r="2.2"/>
  <circle cx="659.0" cy="201.3" r="2.2"/>
  <circle cx="670.3" cy="201.6" r="2.2"/>
  <circle cx="681.5" cy="201.4" r="2.2"/>
  <circle cx="692.8" cy="201.8" r="2.2"/>
  <circle cx="704.1" cy="203.9" r="2.2"/>
  <circle cx="715.4" cy="209.9" r="2.2"/>
  <circle cx="738.0" cy="222.7" r="2.2"/>
  <circle cx="749.2" cy="224.8" r="2.2"/>
  <circle cx="760.5" cy="236.1" r="2.2"/>
  <circle cx="771.8" cy="245.1" r="2.2"/>
  <circle cx="783.1" cy="243.4" r="2.2"/>
  <circle cx="794.4" cy="242.7" r="2.2"/>
  <circle cx="805.7" cy="244.1" r="2.2"/>
  <circle cx="816.9" cy="247.9" r="2.2"/>
  <circle cx="828.2" cy="252.2" r="2.2"/>
  <circle cx="850.8" cy="283.5" r="2.2"/>
  <circle cx="862.1" cy="283.7" r="2.2"/>
</g>
<g class="pl" fill="#FFF" stroke="#933E1C" stroke-width="0.900" clip-path="url(#axis_clip)">
  <circle cx="162.5" cy="410.8" r="5.4"/>
  <circle cx="275.4" cy="349.0" r="5.4"/>
  <circle cx="388.2" cy="308.7" r="5.4"/>
  <circle cx="501.0" cy="258.0" r="5.4"/>
  <circle cx="613.8" cy="217.7" r="5.4"/>
  <circle cx="726.7" cy="216.1" r="5.4"/>
  <circle cx="839.5" cy="272.9" r="5.4"/>
</g>
<text transform="translate(910.0,427.8)" dy="8.1" font-size="27.00" fill="#FD8D3C" stroke="none">Europe</text>
<text transform="translate(910.0,481.1)" dy="8.1" font-size="27.00" fill="#74C476" stroke="none">Asia</text>
<text transform="translate(910.0,563.1)" dy="8.1" font-size="27.00" fill="#6BAED6" stroke="none">Africa</text>
<text transform="translate(910.0,301.3)" dy="8.1" font-size="27.00" fill="#DF65B0" stroke="none">North America</text>
<text transform="translate(910.0,530.4)" dy="8.1" font-size="27.00" fill="#F2D03A" stroke="none">South America</text>
<text transform="translate(910.0,401.9)" dy="8.1" font-size="27.00" fill="#DB4E15" stroke="none">Middle East</text>
<text transform="translate(910.0,275.4)" dy="8.1" font-size="27.00" fill="#933E1C" stroke="none">Oceania</text>
<polyline class="pl" points="876.8,420.9 878.3,420.9 879.7,421.0 881.0,421.1 882.2,421.2 883.3,421.4 884.4,421.6 885.4,421.9 886.4,422.2 887.3,422.5 888.1,422.8 888.9,423.1 889.8,423.5 890.5,423.8 891.3,424.2 892.1,424.5 892.9,424.9 893.6,425.2 894.4,425.6 895.3,425.9 896.1,426.2 897.0,426.5 898.0,426.8 899.0,427.1 900.1,427.3 901.2,427.5 902.4,427.6 903.7,427.7 905.1,427.8 906.6,427.8" stroke="#FD8D3C" stroke-width="0.90" stroke-opacity="1.00" fill="none" />
<polyline class="pl" points="876.8,293.0 878.3,293.0 879.7,293.1 881.0,293.2 882.2,293.4 883.3,293.6 884.4,293.9 885.4,294.2 886.4,294.5 887.3,294.9 888.1,295.3 888.9,295.7 889.8,296.1 890.5,296.5 891.3,296.9 892.1,297.4 892.9,297.8 893.6,298.2 894.4,298.6 895.3,299.0 896.1,299.4 897.0,299.8 898.0,300.1 899.0,300.4 900.1,300.7 901.2,300.9 902.4,301.1 903.7,301.2 905.1,301.3 906.6,301.3" stroke="#DF65B0" stroke-width="0.90" stroke-opacity="1.00" fill="none" />
<polyline class="pl" points="876.8,408.8 878.3,408.8 879.7,408.7 881.0,408.6 882.2,408.5 883.3,408.3 884.4,408.1 885.4,407.8 886.4,407.5 887.3,407.2 888.1,406.9 888.9,406.6 889.8,406.3 890.5,405.9 891.3,405.5 892.1,405.2 892.9,404.8 893.6,404.5 894.4,404.1 895.3,403.8 896.1,403.5 897.0,403.2 898.0,402.9 899.0,402.7 900.1,402.4 901.2,402.2 902.4,402.1 903.7,402.0 905.1,401.9 906.6,401.9" stroke="#DB4E15" stroke-width="0.90" stroke-opacity="1.00" fill="none" />
<polyline class="pl" points="876.8,283.7 878.3,283.7 879.7,283.6 881.0,283.5 882.2,283.3 883.3,283.1 884.4,282.8 885.4,282.5 886.4,282.2 887.3,281.8 888.1,281.4 888.9,281.0 889.8,280.6 890.5,280.2 891.3,279.8 892.1,279.3 892.9,278.9 893.6,278.5 894.4,278.1 895.3,277.7 896.1,277.3 897.0,276.9 898.0,276.6 899.0,276.3 900.1,276.0 901.2,275.8 902.4,275.6 903.7,275.5 905.1,275.4 906.6,275.4" stroke="#933E1C" stroke-width="0.90" stroke-opacity="1.00" fill="none" />
<text transform="translate(145.6,47.2)" dy="0.0" font-size="27.00" fill="#808080" stroke="none">Annual Fossil CO<tspan dy="0.2em"><tspan style="font-size:70%">2</tspan></tspan><tspan dy="-0.2em"> </tspan>Emissions by Continent: Per Capita</text>
<text transform="translate(160.2,666.1)" font-size="19.80" font-family="Helvetica" fill="#BFBFBF" stroke="none" xml:space="preserve">Global Carbon Project</text>
<g>
  <rect x="123.0" y="651.4" width="34" height="17" fill="#FFF" stroke="none"/>
  <g transform="translate(124.0,652.4) scale(0.24)">
  <g><circle fill="#FFF" cx="37.79" cy="28.5" r="28.84"/>
     <circle fill="none" cx="37.79" cy="28.5" r="28.84" stroke="#BFBFBF" stroke-width="5.5"/>
     <path fill="#BFBFBF" d="M37.16,23.19 l-4.29,2.23c-0.458-0.951-1.02-1.62-1.69-2c-0.667-0.38-1.29-0.571-1.86-0.571c-2.86,0-4.29,1.89-4.29,5.66 c0,1.71,0.36,3.08,1.09,4.11c0.724,1.03,1.79,1.54,3.2,1.54c1.87,0,3.18-0.915,3.94-2.74l3.94,2 c-0.838,1.56-2,2.79-3.49,3.69c-1.48,0.896-3.12,1.34-4.91,1.34c-2.86,0-5.16-0.875-6.92-2.63 c-1.75-1.75-2.63-4.19-2.63-7.31c0-3.05,0.886-5.47,2.66-7.26c1.77-1.79,4.01-2.69,6.72-2.69 C32.6,18.56,35.44,20.1,37.16,23.19z
              M55.61,23.19l-4.23,2.23c-0.457-0.951-1.02-1.62-1.69-2 c-0.668-0.38-1.31-0.571-1.91-0.571c-2.86,0-4.29,1.89-4.29,5.66c0,1.71,0.363,3.08,1.09,4.11 c0.723,1.03,1.79,1.54,3.2,1.54c1.87,0,3.18-0.915,3.94-2.74l4,2c-0.875,1.56-2.06,2.79-3.54,3.69 c-1.49,0.9-3.11,1.34-4.86,1.34c-2.9,0-5.21-0.875-6.94-2.63c-1.74-1.75-2.6-4.19-2.6-7.31 c0-3.05,0.885-5.47,2.66-7.26c1.77-1.79,4.01-2.69,6.71-2.69C51.12,18.56,53.944,20.1,55.61,23.19z"/>
  </g></g>
  <g transform="translate(140.2,652.4) scale(0.24)">
  <g><circle fill="#FFF" cx="37.79" cy="28.5" r="28.84"/>
     <circle fill="none" cx="37.79" cy="28.5" r="28.84" stroke="#BFBFBF" stroke-width="5.5"/>
     <path fill="#BFBFBF" d="M46.129,20.557v13.085h-3.656v15.542h-9.944V33.643h-3.656V20.557 c0-0.572,0.2-1.057,0.599-1.457c0.401-0.399,0.887-0.6,1.457-0.6h13.144c0.533,0,1.01,0.2,1.428,0.6 C45.918,19.5,46.129,19.986,46.129,20.557z
              M33.042,12.329c0-3.008,1.485-4.514,4.458-4.514s4.457,1.504,4.457,4.514 c0,2.971-1.486,4.457-4.457,4.457S33.042,15.3,33.042,12.329z"/>
  </g></g>
</g>
</g>
</svg>
