<svg version="1.1" xmlns="http://www.w3.org/2000/svg" xmlns:xlink="http://www.w3.org/1999/xlink" width="100%" height="100%" viewBox="0 0 1200.000 674.916">
<title>Annual CO2 Emissions: Azerbaijan</title>
<style type="text/css">
  #main {font-family:Helvetica,Arial,sans-serif; font-size:27.00px;
         fill-opacity:1; fill:#000000; stroke:none; stroke-linejoin:round; stroke-linecap:round; stroke-width:1.00;}
  .marker {stroke-opacity:0;fill-opacity:0;}
  .marker:hover {stroke-opacity:0.5; fill-opacity:1;}
  .ticklabel {font-size:27.00px;fill:#808080;stroke:none;font-family:Helvetica}
  .ytl {text-anchor:end;}
  .dp1 {pointer-events:none;font-size:70%;text-anchor:middle;fill:#000000;}
  .dp2 {pointer-events:none;font-size:70%;text-anchor:middle;fill:#FFFFFF;}
  .numtip {pointer-events:none;}
  .cc {opacity:0.25;}
.dl_fe {background-color:#FDFFDF;display:flex;margin:auto;align-items:center}
.dl_fe_p {font-size:20px;text-align:center;margin:3px}
.dl_el {display:none;pointer-events:none;}
.cc:hover + .dl_el {display:block;}
text:hover + .dl_el {display:block;}
</style>
<defs>
  <clipPath id="axis_clip"><rect x="145.8" y="54.2" width="761.2" height="532.8" /></clipPath>
  <path id="line_y" d="M 0,53.993 v 533.183" stroke="#262626" stroke-opacity="0.15" stroke-width="1.00"/>
  <path id="line_x" d="M 145.600,0 h 761.600" stroke="#262626" stroke-opacity="0.15" stroke-width="1.00"/>
  <path id="tick_y" d="M 145.600,0 h -6.000" stroke="#808080" stroke-width="0.90"/>
  <path id="tick_x" d="M 0,587.177 v 6.000" stroke="#808080" stroke-width="0.90"/>
</defs>
<g id="main">
<use xlink:href="#line_y" transform="translate(157.1,0)"/>
<use xlink:href="#line_y" transform="translate(272.5,0)"/>
<use xlink:href="#line_y" transform="translate(387.9,0)"/>
<use xlink:href="#line_y" transform="translate(503.3,0)"/>
<use xlink:href="#line_y" transform="translate(618.7,0)"/>
<use xlink:href="#line_y" transform="translate(734.1,0)"/>
<use xlink:href="#line_y" transform="translate(895.7,0)"/>
<use xlink:href="#line_x" transform="translate(0,511.0)"/>
<use xlink:href="#line_x" transform="translate(0,358.7)"/>
<use xlink:href="#line_x" transform="translate(0,206.3)"/>
<use xlink:href="#line_x" transform="translate(0,54.0)"/>
<use xlink:href="#tick_y" transform="translate(0,511.0)"/>
<use xlink:href="#tick_y" transform="translate(0,358.7)"/>
<use xlink:href="#tick_y" transform="translate(0,206.3)"/>
<use xlink:href="#tick_y" transform="translate(0,54.0)"/>
<use xlink:href="#tick_x" transform="translate(157.1,0)"/>
<use xlink:href="#tick_x" transform="translate(272.5,0)"/>
<use xlink:href="#tick_x" transform="translate(387.9,0)"/>
<use xlink:href="#tick_x" transform="translate(503.3,0)"/>
<use xlink:href="#tick_x" transform="translate(618.7,0)"/>
<use xlink:href="#tick_x" transform="translate(734.1,0)"/>
<use xlink:href="#tick_x" transform="translate(895.7,0)"/>
<polyline points="145.6,53.993 145.6,587.177 907.2,587.177" stroke="#808080" stroke-width="0.90" fill="none"/>
<text class="ticklabel xtl" transform="translate(157.1,629.0)" text-anchor="middle">1990</text>
<text class="ticklabel xtl" transform="translate(272.5,629.0)" text-anchor="middle">1995</text>
<text class="ticklabel xtl" transform="translate(387.9,629.0)" text-anchor="middle">2000</text>
<text class="ticklabel xtl" transform="translate(503.3,629.0)" text-anchor="middle">2005</text>
<text class="ticklabel xtl" transform="translate(618.7,629.0)" text-anchor="middle">2010</text>
<text class="ticklabel xtl" transform="translate(734.1,629.0)" text-anchor="middle">2015</text>
<text class="ticklabel xtl" transform="translate(895.7,629.0)" text-anchor="middle">2022</text>
<text class="ticklabel ytl" transform="translate(128.8,519.1)">0</text>
<text class="ticklabel ytl" transform="translate(128.8,366.8)">20</text>
<text class="ticklabel ytl" transform="translate(128.8,214.4)">40</text>
<text class="ticklabel ytl" transform="translate(128.8,62.1)">60 Mt</text>
<g stroke="#000" stroke-width="0.90" fill="#845F48"  clip-path="url(#axis_clip)">
  <polygon points="840.3,191.7 840.3,191.7 858.7,191.7 858.7,191.7 840.3,191.7"/>
  <polygon points="863.4,173.2 863.4,173.2 881.8,173.2 881.8,173.2 863.4,173.2"/>
  <polygon points="886.4,155.3 886.4,155.3 904.9,155.3 904.9,155.3 886.4,155.3"/>
</g>
<g stroke="#000" stroke-width="0.90" fill="#4A89E8"  clip-path="url(#axis_clip)">
  <polygon points="147.9,76.2 147.9,85.0 166.4,85.0 166.4,76.2 147.9,76.2"/>
  <polygon points="840.3,191.7 840.3,210.0 858.7,210.0 858.7,191.7 840.3,191.7"/>
  <polygon points="863.4,173.2 863.4,193.4 881.8,193.4 881.8,173.2 863.4,173.2"/>
  <polygon points="886.4,155.3 886.4,176.8 904.9,176.8 904.9,155.3 886.4,155.3"/>
</g>
<g stroke="#000" stroke-width="0.90" fill="#FF7F61"  clip-path="url(#axis_clip)">
  <polygon points="147.9,85.0 147.9,511.0 166.4,511.0 166.4,85.0 147.9,85.0"/>
  <polygon points="840.3,210.0 840.3,511.0 858.7,511.0 858.7,210.0 840.3,210.0"/>
  <polygon points="863.4,193.4 863.4,511.0 881.8,511.0 881.8,193.4 863.4,193.4"/>
  <polygon points="886.4,176.8 886.4,511.0 904.9,511.0 904.9,176.8 886.4,176.8"/>
</g>
<g stroke="#000" stroke-width="0.90" fill="#7FBF7F"  clip-path="url(#axis_clip)">
  <polygon points="147.9,541.5 147.9,511.0 166.4,511.0 166.4,541.5 147.9,541.5"/>
  <polygon points="840.3,553.1 840.3,511.0 858.7,511.0 858.7,553.1 840.3,553.1"/>
  <polygon points="863.4,552.1 863.4,511.0 881.8,511.0 881.8,552.1 863.4,552.1"/>
  <polygon points="886.4,550.7 886.4,511.0 904.9,511.0 904.9,550.7 886.4,550.7"/>
</g>
<polyline class="pl" points="157.1,106.6 849.5,233.8 872.6,214.3 895.7,195.0" stroke="#000" stroke-width="5.40" stroke-opacity="1.00" fill="none" clip-path="url(#axis_clip)"/>
<g class="pl" fill="#FFF" stroke="#000" stroke-width="0.900">
  <circle cx="872.6" cy="214.3" r="2.2" />
  <circle cx="895.7" cy="195.0" r="2.2" />
</g>
<g class="pl" fill="#FFF" stroke="#000" stroke-width="0.900">
  <circle cx="157.1" cy="106.6" r="5.4" />
  <circle cx="849.5" cy="233.8" r="5.4" />
</g>
<text transform="translate(145.6,47.2)" dy="0.0" font-size="27.00" fill="#808080" stroke="none">Annual CO<tspan dy="0.2em"><tspan style="font-size:70%">2</tspan></tspan><tspan dy="-0.2em"> </tspan>Emissions: Azerbaijan</text>
<text transform="translate(130.0,81.6)" dy="8.1" font-size="27.00" fill="#808080" stroke="none" text-anchor="end">CO<tspan dy="0.2em"><tspan style="font-size:70%">2</tspan></tspan><tspan dy="-0.2em"></tspan></text>
<text transform="translate(945.6,197.2)" dy="7.6" font-size="25.20" fill="#000" stroke="none">-21.9% since 1990</text>
<text transform="translate(945.6,343.9)" dy="7.6" font-size="25.20" fill="#FF7F61" stroke="none">Energy</text>
<text transform="translate(945.6,172.1)" dy="7.6" font-size="25.20" fill="#4A89E8" stroke="none">Industrial Processes</text>
<text transform="translate(945.6,147.1)" dy="7.6" font-size="25.20" fill="#845F48" stroke="none">Agriculture</text>
<text transform="translate(945.6,530.9)" dy="7.6" font-size="25.20" fill="#7FBF7F" stroke="none">LULUCF</text>
<polyline class="pl" points="910.8,195.0 912.4,195.1 913.8,195.1 915.2,195.1 916.4,195.2 917.6,195.2 918.8,195.3 919.8,195.4 920.8,195.4 921.7,195.5 922.7,195.6 923.5,195.7 924.4,195.8 925.2,196.0 926.0,196.1 926.8,196.2 927.6,196.3 928.4,196.4 929.3,196.5 930.1,196.6 931.1,196.7 932.0,196.8 933.0,196.9 934.0,197.0 935.2,197.0 936.4,197.1 937.6,197.1 939.0,197.2 940.4,197.2 942.0,197.2" stroke="#000" stroke-width="0.90" stroke-opacity="1.00" fill="none" />
<polyline class="pl" points="910.8,166.1 912.4,166.1 913.8,166.1 915.2,166.2 916.4,166.4 917.6,166.5 918.8,166.7 919.8,167.0 920.8,167.2 921.7,167.5 922.7,167.7 923.5,168.0 924.4,168.3 925.2,168.6 926.0,168.9 926.8,169.3 927.6,169.6 928.4,169.9 929.3,170.2 930.1,170.5 931.1,170.8 932.0,171.0 933.0,171.3 934.0,171.5 935.2,171.7 936.4,171.8 937.6,172.0 939.0,172.1 940.4,172.1 942.0,172.1" stroke="#4A89E8" stroke-width="0.90" stroke-opacity="1.00" fill="none" />
<polyline class="pl" points="910.8,155.3 912.4,155.3 913.8,155.2 915.2,155.1 916.4,154.9 917.6,154.7 918.8,154.4 919.8,154.1 920.8,153.8 921.7,153.4 922.7,153.1 923.5,152.7 924.4,152.3 925.2,151.9 926.0,151.4 926.8,151.0 927.6,150.6 928.4,150.2 929.3,149.8 930.1,149.4 931.1,149.0 932.0,148.6 933.0,148.3 934.0,148.0 935.2,147.8 936.4,147.5 937.6,147.4 939.0,147.2 940.4,147.1 942.0,147.1" stroke="#845F48" stroke-width="0.90" stroke-opacity="1.00" fill="none" />
<text transform="translate(160.0,666.1)" font-size="19.80" font-family="Helvetica" fill="#BFBFBF" stroke="none" xml:space="preserve">CICERO   &#9679;   Data: UNFCCC (2024)</text>
<g>
  <rect x="123.0" y="651.4" width="34" height="17" fill="#FFF" stroke="none" opacity="0.01"/>
  <g transform="translate(124.0,652.4) scale(0.24)">
  <g><circle fill="#FFF" cx="37.79" cy="28.5" r="28.84"/>
     <circle fill="none" cx="37.79" cy="28.5" r="28.84" stroke="#BFBFBF" stroke-width="5.5"/>
     <path fill="#BFBFBF" d="M37.16,23.19 l-4.29,2.23c-0.458-0.951-1.02-1.62-1.69-2c-0.667-0.38-1.29-0.571-1.86-0.571c-2.86,0-4.29,1.89-4.29,5.66 c0,1.71,0.36,3.08,1.09,4.11c0.724,1.03,1.79,1.54,3.2,1.54c1.87,0,3.18-0.915,3.94-2.74l3.94,2 c-0.838,1.56-2,2.79-3.49,3.69c-1.48,0.896-3.12,1.34-4.91,1.34c-2.86,0-5.16-0.875-6.92-2.63 c-1.75-1.75-2.63-4.19-2.63-7.31c0-3.05,0.886-5.47,2.66-7.26c1.77-1.79,4.01-2.69,6.72-2.69 C32.6,18.56,35.44,20.1,37.16,23.19z
              M55.61,23.19l-4.23,2.23c-0.457-0.951-1.02-1.62-1.69-2 c-0.668-0.38-1.31-0.571-1.91-0.571c-2.86,0-4.29,1.89-4.29,5.66c0,1.71,0.363,3.08,1.09,4.11 c0.723,1.03,1.79,1.54,3.2,1.54c1.87,0,3.18-0.915,3.94-2.74l4,2c-0.875,1.56-2.06,2.79-3.54,3.69 c-1.49,0.9-3.11,1.34-4.86,1.34c-2.9,0-5.21-0.875-6.94-2.63c-1.74-1.75-2.6-4.19-2.6-7.31 c0-3.05,0.885-5.47,2.66-7.26c1.77-1.79,4.01-2.69,6.71-2.69C51.12,18.56,53.944,20.1,55.61,23.19z"/>
  </g></g>
  <g transform="translate(140.2,652.4) scale(0.24)">
  <g><circle fill="#FFF" cx="37.79" cy="28.5" r="28.84"/>
     <circle fill="none" cx="37.79" cy="28.5" r="28.84" stroke="#BFBFBF" stroke-width="5.5"/>
     <path fill="#BFBFBF" d="M46.129,20.557v13.085h-3.656v15.542h-9.944V33.643h-3.656V20.557 c0-0.572,0.2-1.057,0.599-1.457c0.401-0.399,0.887-0.6,1.457-0.6h13.144c0.533,0,1.01,0.2,1.428,0.6 C45.918,19.5,46.129,19.986,46.129,20.557z
              M33.042,12.329c0-3.008,1.485-4.514,4.458-4.514s4.457,1.504,4.457,4.514 c0,2.971-1.486,4.457-4.457,4.457S33.042,15.3,33.042,12.329z"/>
  </g></g>
</g>
</g>
</svg>
