<svg version="1.1" xmlns="http://www.w3.org/2000/svg" xmlns:xlink="http://www.w3.org/1999/xlink" width="100%" height="100%" viewBox="0 0 1200.000 674.916">
<title>Annual Energy sector Emissions: Thailand</title>
<style type="text/css">
  #main {font-family:Helvetica,Arial,sans-serif; font-size:27.00px;
         fill-opacity:1; fill:#000000; stroke:none; stroke-linejoin:round; stroke-linecap:round; stroke-width:1.00;}
  .marker {stroke-opacity:0;fill-opacity:0;}
  .marker:hover {stroke-opacity:0.5; fill-opacity:1;}
  .ticklabel {font-size:27.00px;fill:#808080;stroke:none;font-family:Helvetica}
  .ytl {text-anchor:end;}
  .dp1 {pointer-events:none;font-size:70%;text-anchor:middle;fill:#000000;}
  .dp2 {pointer-events:none;font-size:70%;text-anchor:middle;fill:#FFFFFF;}
  .numtip {pointer-events:none;}
  .cc {opacity:0.25;}
.dl_fe {background-color:#FDFFDF;display:flex;margin:auto;align-items:center}
.dl_fe_p {font-size:20px;text-align:center;margin:3px}
.dl_el {display:none;pointer-events:none;}
.cc:hover + .dl_el {display:block;}
text:hover + .dl_el {display:block;}
</style>
<defs>
  <clipPath id="axis_clip"><rect x="145.8" y="54.2" width="761.2" height="532.8" /></clipPath>
  <path id="line_y" d="M 0,53.993 v 533.183" stroke="#262626" stroke-opacity="0.15" stroke-width="1.00"/>
  <path id="line_x" d="M 145.600,0 h 761.600" stroke="#262626" stroke-opacity="0.15" stroke-width="1.00"/>
  <path id="tick_y" d="M 145.600,0 h -6.000" stroke="#808080" stroke-width="0.90"/>
  <path id="tick_x" d="M 0,587.177 v 6.000" stroke="#808080" stroke-width="0.90"/>
</defs>
<g id="main">
<use xlink:href="#line_y" transform="translate(272.5,0)"/>
<use xlink:href="#line_y" transform="translate(526.4,0)"/>
<use xlink:href="#line_y" transform="translate(780.3,0)"/>
<use xlink:href="#line_x" transform="translate(0,587.2)"/>
<use xlink:href="#line_x" transform="translate(0,480.5)"/>
<use xlink:href="#line_x" transform="translate(0,373.9)"/>
<use xlink:href="#line_x" transform="translate(0,267.3)"/>
<use xlink:href="#line_x" transform="translate(0,160.6)"/>
<use xlink:href="#line_x" transform="translate(0,54.0)"/>
<use xlink:href="#tick_y" transform="translate(0,587.2)"/>
<use xlink:href="#tick_y" transform="translate(0,480.5)"/>
<use xlink:href="#tick_y" transform="translate(0,373.9)"/>
<use xlink:href="#tick_y" transform="translate(0,267.3)"/>
<use xlink:href="#tick_y" transform="translate(0,160.6)"/>
<use xlink:href="#tick_y" transform="translate(0,54.0)"/>
<use xlink:href="#tick_x" transform="translate(272.5,0)"/>
<use xlink:href="#tick_x" transform="translate(526.4,0)"/>
<use xlink:href="#tick_x" transform="translate(780.3,0)"/>
<polyline points="145.6,53.993 145.6,587.177 907.2,587.177" stroke="#808080" stroke-width="0.90" fill="none"/>
<text class="ticklabel xtl" transform="translate(272.5,629.0)" text-anchor="middle">2020</text>
<text class="ticklabel xtl" transform="translate(526.4,629.0)" text-anchor="middle">2021</text>
<text class="ticklabel xtl" transform="translate(780.3,629.0)" text-anchor="middle">2022</text>
<text class="ticklabel ytl" transform="translate(128.8,595.3)">0</text>
<text class="ticklabel ytl" transform="translate(128.8,488.6)">50</text>
<text class="ticklabel ytl" transform="translate(128.8,382.0)">100</text>
<text class="ticklabel ytl" transform="translate(128.8,275.4)">150</text>
<text class="ticklabel ytl" transform="translate(128.8,168.7)">200</text>
<text class="ticklabel ytl" transform="translate(128.8,62.1)">250 Mt</text>
<g stroke="#000" stroke-width="0.90" fill="#DBA746"  clip-path="url(#axis_clip)">
  <polygon points="171.0,66.8 171.0,97.7 374.1,97.7 374.1,66.8 171.0,66.8"/>
  <polygon points="424.9,93.3 424.9,123.4 627.9,123.4 627.9,93.3 424.9,93.3"/>
  <polygon points="678.7,62.9 678.7,92.8 881.8,92.8 881.8,62.9 678.7,62.9"/>
</g>
<g stroke="#000" stroke-width="0.90" fill="#845F48"  clip-path="url(#axis_clip)">
  <polygon points="171.0,97.7 171.0,260.6 374.1,260.6 374.1,97.7 171.0,97.7"/>
  <polygon points="424.9,123.4 424.9,274.1 627.9,274.1 627.9,123.4 424.9,123.4"/>
  <polygon points="678.7,92.8 678.7,257.0 881.8,257.0 881.8,92.8 678.7,92.8"/>
</g>
<g stroke="#000" stroke-width="0.90" fill="#4A89E8"  clip-path="url(#axis_clip)">
  <polygon points="171.0,260.6 171.0,375.7 374.1,375.7 374.1,260.6 171.0,260.6"/>
  <polygon points="424.9,274.1 424.9,376.8 627.9,376.8 627.9,274.1 424.9,274.1"/>
  <polygon points="678.7,257.0 678.7,390.5 881.8,390.5 881.8,257.0 678.7,257.0"/>
</g>
<g stroke="#000" stroke-width="0.90" fill="#FF7F61"  clip-path="url(#axis_clip)">
  <polygon points="171.0,375.7 171.0,587.2 374.1,587.2 374.1,375.7 171.0,375.7"/>
  <polygon points="424.9,376.8 424.9,587.2 627.9,587.2 627.9,376.8 424.9,376.8"/>
  <polygon points="678.7,390.5 678.7,587.2 881.8,587.2 881.8,390.5 678.7,390.5"/>
</g>
<polyline class="pl" points="272.5,66.8 526.4,93.3 780.3,62.9" stroke="#000" stroke-width="5.40" stroke-opacity="1.00" fill="none" clip-path="url(#axis_clip)"/>
<g class="pl" fill="#FFF" stroke="#000" stroke-width="0.900">
  <circle cx="526.4" cy="93.3" r="2.2" />
  <circle cx="780.3" cy="62.9" r="2.2" />
</g>
<g class="pl" fill="#FFF" stroke="#000" stroke-width="0.900">
  <circle cx="272.5" cy="66.8" r="5.4" />
</g>
<text transform="translate(145.6,47.2)" dy="0.0" font-size="27.00" fill="#808080" stroke="none">Annual Energy sector Emissions: Thailand</text>
<text transform="translate(130.0,81.6)" dy="8.1" font-size="27.00" fill="#808080" stroke="none" text-anchor="end">CO<tspan dy="0.2em"><tspan style="font-size:70%">2</tspan></tspan><tspan dy="-0.2em">e</tspan></text>
<text transform="translate(945.6,57.9)" dy="7.6" font-size="25.20" fill="#000" stroke="none">+0.8% since 2020</text>
<text transform="translate(945.6,488.8)" dy="7.6" font-size="25.20" fill="#FF7F61" stroke="none">Energy industries</text>
<text transform="translate(945.6,323.8)" dy="7.6" font-size="25.20" fill="#4A89E8" stroke="none">Manufacturing</text>
<text transform="translate(945.6,174.9)" dy="7.6" font-size="25.20" fill="#845F48" stroke="none">Transport</text>
<text transform="translate(945.6,82.9)" dy="7.6" font-size="25.20" fill="#DBA746" stroke="none">Other sectors</text>
<polyline class="pl" points="910.8,62.9 912.4,62.9 913.8,62.9 915.2,62.8 916.4,62.7 917.6,62.5 918.8,62.4 919.8,62.2 920.8,62.0 921.7,61.8 922.7,61.5 923.5,61.3 924.4,61.0 925.2,60.8 926.0,60.5 926.8,60.3 927.6,60.0 928.4,59.7 929.3,59.5 930.1,59.3 931.1,59.0 932.0,58.8 933.0,58.6 934.0,58.4 935.2,58.3 936.4,58.1 937.6,58.0 939.0,57.9 940.4,57.9 942.0,57.9" stroke="#000" stroke-width="0.90" stroke-opacity="1.00" fill="none" />
<polyline class="pl" points="910.8,77.8 912.4,77.9 913.8,77.9 915.2,78.0 916.4,78.1 917.6,78.2 918.8,78.4 919.8,78.6 920.8,78.8 921.7,79.0 922.7,79.2 923.5,79.5 924.4,79.7 925.2,80.0 926.0,80.2 926.8,80.5 927.6,80.8 928.4,81.0 929.3,81.3 930.1,81.5 931.1,81.7 932.0,82.0 933.0,82.2 934.0,82.3 935.2,82.5 936.4,82.6 937.6,82.8 939.0,82.8 940.4,82.9 942.0,82.9" stroke="#DBA746" stroke-width="0.90" stroke-opacity="1.00" fill="none" />
<text transform="translate(160.0,666.1)" font-size="19.80" font-family="Helvetica" fill="#BFBFBF" stroke="none" xml:space="preserve">CICERO   &#9679;   Data: UNFCCC (2025)</text>
<g>
  <rect x="123.0" y="651.4" width="34" height="17" fill="#FFF" stroke="none" opacity="0.01"/>
  <g transform="translate(124.0,652.4) scale(0.24)">
  <g><circle fill="#FFF" cx="37.79" cy="28.5" r="28.84"/>
     <circle fill="none" cx="37.79" cy="28.5" r="28.84" stroke="#BFBFBF" stroke-width="5.5"/>
     <path fill="#BFBFBF" d="M37.16,23.19 l-4.29,2.23c-0.458-0.951-1.02-1.62-1.69-2c-0.667-0.38-1.29-0.571-1.86-0.571c-2.86,0-4.29,1.89-4.29,5.66 c0,1.71,0.36,3.08,1.09,4.11c0.724,1.03,1.79,1.54,3.2,1.54c1.87,0,3.18-0.915,3.94-2.74l3.94,2 c-0.838,1.56-2,2.79-3.49,3.69c-1.48,0.896-3.12,1.34-4.91,1.34c-2.86,0-5.16-0.875-6.92-2.63 c-1.75-1.75-2.63-4.19-2.63-7.31c0-3.05,0.886-5.47,2.66-7.26c1.77-1.79,4.01-2.69,6.72-2.69 C32.6,18.56,35.44,20.1,37.16,23.19z
              M55.61,23.19l-4.23,2.23c-0.457-0.951-1.02-1.62-1.69-2 c-0.668-0.38-1.31-0.571-1.91-0.571c-2.86,0-4.29,1.89-4.29,5.66c0,1.71,0.363,3.08,1.09,4.11 c0.723,1.03,1.79,1.54,3.2,1.54c1.87,0,3.18-0.915,3.94-2.74l4,2c-0.875,1.56-2.06,2.79-3.54,3.69 c-1.49,0.9-3.11,1.34-4.86,1.34c-2.9,0-5.21-0.875-6.94-2.63c-1.74-1.75-2.6-4.19-2.6-7.31 c0-3.05,0.885-5.47,2.66-7.26c1.77-1.79,4.01-2.69,6.71-2.69C51.12,18.56,53.944,20.1,55.61,23.19z"/>
  </g></g>
  <g transform="translate(140.2,652.4) scale(0.24)">
  <g><circle fill="#FFF" cx="37.79" cy="28.5" r="28.84"/>
     <circle fill="none" cx="37.79" cy="28.5" r="28.84" stroke="#BFBFBF" stroke-width="5.5"/>
     <path fill="#BFBFBF" d="M46.129,20.557v13.085h-3.656v15.542h-9.944V33.643h-3.656V20.557 c0-0.572,0.2-1.057,0.599-1.457c0.401-0.399,0.887-0.6,1.457-0.6h13.144c0.533,0,1.01,0.2,1.428,0.6 C45.918,19.5,46.129,19.986,46.129,20.557z
              M33.042,12.329c0-3.008,1.485-4.514,4.458-4.514s4.457,1.504,4.457,4.514 c0,2.971-1.486,4.457-4.457,4.457S33.042,15.3,33.042,12.329z"/>
  </g></g>
</g>
</g>
</svg>
